<svg xmlns="http://www.w3.org/2000/svg" viewBox="0 0 26.67 19.8"><defs>
<style>.ea6ef7ac-d2fe-402d-8a7f-c372a4ba690c{fill:#1b1f2c;stroke:#5b607d;stroke-miterlimit:10;stroke-width:0.5px;opacity:0.5;}.befd9104-8ba5-4d66-b64c-dc2c6e40ac27{fill:#5f6580;}</style></defs><title>middle-right-top-button</title><g id="a956c314-a8df-49b9-ad3f-95651951bd84" data-name="Слой 2"><g id="ed9875ef-1b57-4ed5-8957-c413c8452192" data-name="Layer 1"><polygon class="ea6ef7ac-d2fe-402d-8a7f-c372a4ba690c" points="26.42 5.23 21.44 0.25 0.6 0.25 5.58 5.23 5.58 19.55 26.42 19.55 26.42 5.23"/><path class="befd9104-8ba5-4d66-b64c-dc2c6e40ac27" d="M13,15.31a2,2,0,0,1-1.42-3.43l5.29-5.29,2.84,2.84-5.29,5.29a2,2,0,0,1-1.42.59m3.87-7.88L12,12.3a1.41,1.41,0,0,0,2,2l4.87-4.87Z"/><path class="befd9104-8ba5-4d66-b64c-dc2c6e40ac27" d="M19.87,10.09a.86.86,0,0,1-.62-.25L16.43,7a.86.86,0,0,1,0-1.22.87.87,0,0,1,1.22,0l2.83,2.83a.86.86,0,0,1-.61,1.47M17,6.13a.27.27,0,0,0-.19.08.26.26,0,0,0,0,.38l2.82,2.83A.27.27,0,1,0,20.06,9L17.23,6.21A.27.27,0,0,0,17,6.13"/><path class="befd9104-8ba5-4d66-b64c-dc2c6e40ac27" d="M19.83,8.81,17.46,6.44l.94-.93a.69.69,0,0,1,.49-.21h0a.71.71,0,0,1,.49.21l1.38,1.38a.69.69,0,0,1,0,1ZM18.3,6.44,19.83,8l.51-.52a.1.1,0,0,0,0-.14L19,5.93a.09.09,0,0,0-.07,0s-.05,0-.07,0Z"/><path class="befd9104-8ba5-4d66-b64c-dc2c6e40ac27" d="M14,10.74,12.1,12.62a1,1,0,0,0,0,1.46l.08.09a1.05,1.05,0,0,0,1.47,0l4-4.06Zm-.27,2.19a.58.58,0,0,1,0-.81.57.57,0,0,1,.8,0,.56.56,0,0,1,0,.81.57.57,0,0,1-.8,0m.52-1.32a.42.42,0,0,1,0-.59.42.42,0,0,1,.6,0,.42.42,0,0,1,0,.59.42.42,0,0,1-.6,0"/></g></g></svg>