<svg xmlns="http://www.w3.org/2000/svg" viewBox="0 0 26.67 19.8"><defs><style>.a0f3c4b4-caba-4fe1-9614-0f32a4fa6d04,.b44481aa-ef74-4e7a-a657-ebc023d3b0d1{fill:#1b1f2c;stroke:#5b607d;stroke-miterlimit:10;stroke-width:0.5px;}.a0f3c4b4-caba-4fe1-9614-0f32a4fa6d04{opacity:0.5;}</style></defs><title>middle-left-bottom-button</title><g id="b74f31a7-cfab-4158-88ee-b62572504258" data-name="Слой 2"><g id="bbe11b9e-780d-4e35-a46a-895d635346b3" data-name="Layer 1"><polygon class="a0f3c4b4-caba-4fe1-9614-0f32a4fa6d04" points="0.25 14.57 5.23 19.55 26.07 19.55 21.09 14.57 21.09 0.25 0.25 0.25 0.25 14.57"/><path class="b44481aa-ef74-4e7a-a657-ebc023d3b0d1" d="M15.74,10.3A4.3,4.3,0,0,0,10,6.55"/><path class="b44481aa-ef74-4e7a-a657-ebc023d3b0d1" d="M7.16,10.86a4.3,4.3,0,0,0,5.74,3.77"/><path class="b44481aa-ef74-4e7a-a657-ebc023d3b0d1" d="M13,11.1a4.65,4.65,0,0,0-1.58-2.75A4.65,4.65,0,0,0,9.87,11.1a1.09,1.09,0,0,0,0,.18,1.59,1.59,0,0,0,3.18,0A1.09,1.09,0,0,0,13,11.1Z"/></g></g></svg>