<svg xmlns="http://www.w3.org/2000/svg" viewBox="0 0 26.4 42.78"><defs>
<style>.b195262e-0f36-4bd7-8b5d-a0004436b690,.e5bde44f-423f-4ebd-9e40-b8254243c480{fill:#1b1f2c;stroke:#5b607d;stroke-miterlimit:10;stroke-width:0.5px;}.e5bde44f-423f-4ebd-9e40-b8254243c480{opacity:0.5;}</style></defs>
<title>middle-left-big-button</title><g id="b8a35108-ed6f-48ad-98f0-51f675d085c7" data-name="Слой 2">
<g id="a7630036-83e8-4483-84be-75526a2259e3" data-name="Layer 1">
<polygon class="e5bde44f-423f-4ebd-9e40-b8254243c480" points="5.3 42.52 10.77 42.52 25.79 42.52 20.73 37.58 20.73 5.2 25.79 0.25 10.77 0.25 5.3 0.25 0.25 5.2 0.25 37.58 5.3 42.52"/>
<polyline class="b195262e-0f36-4bd7-8b5d-a0004436b690" points="9.55 24.7 5.58 24.7 5.58 17.21 15.43 17.21 15.43 20.13"/>
<polyline class="b195262e-0f36-4bd7-8b5d-a0004436b690" points="8.17 18.77 7.13 18.77 7.13 19.55"/>
<polyline class="b195262e-0f36-4bd7-8b5d-a0004436b690" points="7.13 22.37 7.13 23.14 8.17 23.14"/>
<polyline class="b195262e-0f36-4bd7-8b5d-a0004436b690" points="13.88 19.55 13.88 18.77 12.84 18.77"/>
<path class="b195262e-0f36-4bd7-8b5d-a0004436b690" d="M15.56,25.29a6,6,0,0,0-2.07-3.6,6,6,0,0,0-2.07,3.6,1.94,1.94,0,0,0,0,.24,2.09,2.09,0,0,0,4.18,0A1.94,1.94,0,0,0,15.56,25.29Z"/>
</g></g></svg>