<svg xmlns="http://www.w3.org/2000/svg" width="80" height="50" viewBox="0 0 419.2 270"><title>Ресурс 2</title><ellipse cx="158" cy="87.58" rx="28.8" ry="20.95"/><path d="M394.4,164.68c-13.6-9.31-30.8-15.42-49.6-17.17V41c0-11.34-6.4-21.53-16.4-29.09C318,4.36,304,0,288.4,0H56.4c-15.6,0-29.6,4.66-40,11.93C6,19.49,0,29.68,0,41v173.7c0,11.35,6.4,21.53,16.4,29.09,10.4,7.57,24.4,11.93,40,11.93H280.8A105.5,105.5,0,0,0,334.4,270c23.6,0,44.8-7,60-18s24.8-26.48,24.8-43.64S409.6,175.73,394.4,164.68ZM21.2,41c0-7,4-13.38,10.4-18a42.55,42.55,0,0,1,24.8-7.56h232A42.55,42.55,0,0,1,313.2,23c6.4,4.66,10.4,11.06,10.4,18V131.8L264.4,89a13.75,13.75,0,0,0-15.2,0L160,154.2,99.6,110a13.75,13.75,0,0,0-15.2,0L21.2,156.53ZM56,240.61v-.29a42.55,42.55,0,0,1-24.8-7.56c-6-4.66-10-11.06-10-18V178.35l71.2-51.79,60.4,43.94c4,2.91,10.8,2.91,15.2,0l89.2-65.18,58.4,42.77L312,149a48.13,48.13,0,0,0-5.2,1.16c-1.6.29-3.2.87-4.8,1.16a13.78,13.78,0,0,0-3.2,1.17c-1.6.58-2.8.87-4,1.45l-6,2.62c-1.2.58-2,.87-3.2,1.45-.8.3-1.2.59-2,.88A46.7,46.7,0,0,0,274,165c-15.2,11.05-24.8,26.47-24.8,43.64a47.4,47.4,0,0,0,2,12.8c.4,1.17.8,2,1.2,3.2a84.58,84.58,0,0,0,4,8.73v.29a50.6,50.6,0,0,0,5.2,7Zm322.8.3c-11.6,8.43-27.2,13.38-44.8,13.38-16.8,0-32.4-4.95-43.6-12.8-1.6-1.17-3.2-2.62-4.8-3.79-1.2-.87-2.4-2-3.6-2.9a27.81,27.81,0,0,1-4-5c-.8-1.16-1.6-2-2.4-3.2a19.9,19.9,0,0,1-2-5c-.4-1.16-1.2-2.62-1.6-3.78a35.51,35.51,0,0,1-1.2-9.31c0-12.8,7.2-24.15,18.4-32.59,11.6-8.43,27.2-13.38,44.8-13.38s33.2,5.24,44.8,13.38,18.4,19.79,18.4,32.59C397.2,221.12,390,232.47,378.8,240.91Z"/><path d="M368.8,200.46H344.4V182.72c0-4.37-4.8-7.86-10.8-7.86s-10.8,3.49-10.8,7.86v17.74H298.4c-6,0-10.8,3.49-10.8,7.86s4.8,7.85,10.8,7.85h24.4v17.75c0,4.37,4.8,7.86,10.8,7.86s10.8-3.49,10.8-7.86V216.17h24.4c6,0,10.8-3.49,10.8-7.85S374.8,200.46,368.8,200.46Z"/></svg>