<svg width="38" height="41" viewBox="0 0 38 41" fill="none" xmlns="http://www.w3.org/2000/svg">
<path fill-rule="evenodd" clip-rule="evenodd" d="M35.5955 12.2456L34.4025 10.1754C33.3933 8.42376 31.1566 7.81947 29.4025 8.82456V8.82456C28.5676 9.31643 27.5712 9.45598 26.6333 9.21244C25.6953 8.96889 24.8927 8.36226 24.4025 7.52632C24.0872 6.99497 23.9177 6.38978 23.9113 5.77193V5.77193C23.9398 4.78136 23.566 3.82146 22.8753 3.11089C22.1846 2.40032 21.2356 1.99959 20.2446 2H17.8411C16.8703 1.99999 15.9394 2.38686 15.2546 3.075C14.5697 3.76314 14.1873 4.69582 14.192 5.66667V5.66667C14.1632 7.67113 12.53 9.28091 10.5253 9.2807C9.90749 9.27428 9.30229 9.10483 8.77095 8.78947V8.78947C7.01687 7.78438 4.78022 8.38867 3.77095 10.1404L2.49025 12.2456C1.4822 13.9951 2.07827 16.2303 3.82358 17.2456V17.2456C4.95806 17.9006 5.65694 19.1111 5.65694 20.4211C5.65694 21.731 4.95806 22.9415 3.82358 23.5965V23.5965C2.08048 24.6049 1.48377 26.8347 2.49025 28.5789V28.5789L3.70078 30.6667C4.17366 31.5199 4.96707 32.1496 5.90546 32.4163C6.84384 32.683 7.84981 32.5647 8.70078 32.0877V32.0877C9.53732 31.5996 10.5342 31.4659 11.4698 31.7162C12.4054 31.9666 13.2023 32.5804 13.6832 33.4211C13.9986 33.9524 14.168 34.5576 14.1745 35.1754V35.1754C14.1745 37.2005 15.8161 38.8421 17.8411 38.8421H20.2446C22.2628 38.8421 23.9016 37.2112 23.9113 35.193V35.193C23.9066 34.2191 24.2914 33.2837 24.9801 32.5951C25.6687 31.9064 26.6041 31.5216 27.578 31.5263C28.1943 31.5428 28.797 31.7116 29.3324 32.0175V32.0175C31.0818 33.0256 33.3171 32.4295 34.3324 30.6842V30.6842L35.5955 28.5789C36.0844 27.7397 36.2186 26.7402 35.9684 25.8017C35.7181 24.8633 35.1041 24.0633 34.2622 23.5789V23.5789C33.4203 23.0946 32.8062 22.2946 32.556 21.3562C32.3057 20.4177 32.4399 19.4182 32.9288 18.5789C33.2468 18.0238 33.7071 17.5636 34.2622 17.2456V17.2456C35.997 16.2309 36.5917 14.0087 35.5955 12.2632V12.2632V12.2456Z" stroke="#D7E2F2" stroke-width="3" stroke-linecap="round" stroke-linejoin="round"/>
<circle cx="19.0517" cy="20.4208" r="5.05263" stroke="#D7E2F2" stroke-width="3" stroke-linecap="round" stroke-linejoin="round"/>
</svg>
