<svg width="6" height="20" viewBox="0 0 6 20" fill="none" xmlns="http://www.w3.org/2000/svg">
<path d="M5.80326 19.8679V0.277832H3.80462L0.806641 3.27783V16.8679L3.80462 19.8679H5.80326ZM3.29519 4.07788C3.45444 4.06297 3.61487 4.0815 3.76655 4.13226C3.91824 4.18303 4.0577 4.26491 4.17595 4.37268C4.29419 4.48045 4.38895 4.61172 4.45359 4.75812C4.51823 4.90452 4.55167 5.06279 4.55167 5.22284C4.55167 5.38289 4.51823 5.54122 4.45359 5.68762C4.38895 5.83402 4.29419 5.96529 4.17595 6.07306C4.0577 6.18083 3.91824 6.26271 3.76655 6.31348C3.61487 6.36424 3.45444 6.38277 3.29519 6.36786C3.13595 6.38277 2.97552 6.36424 2.82383 6.31348C2.67215 6.26271 2.53269 6.18083 2.41444 6.07306C2.29619 5.96529 2.20143 5.83402 2.1368 5.68762C2.07216 5.54122 2.03872 5.38289 2.03872 5.22284C2.03872 5.06279 2.07216 4.90452 2.1368 4.75812C2.20143 4.61172 2.29619 4.48045 2.41444 4.37268C2.53269 4.26491 2.67215 4.18303 2.82383 4.13226C2.97552 4.0815 3.13595 4.06297 3.29519 4.07788ZM3.29519 8.89789C3.60183 8.9005 3.89519 9.0235 4.11202 9.24048C4.32886 9.45746 4.45196 9.75102 4.45457 10.0579C4.45724 10.2114 4.4288 10.3639 4.37161 10.5064C4.31443 10.6489 4.22934 10.7785 4.1213 10.8876C4.01325 10.9966 3.88456 11.0829 3.74265 11.1414C3.60073 11.1998 3.44865 11.2292 3.29519 11.2278C2.98683 11.2252 2.69206 11.1008 2.47495 10.8817C2.25783 10.6625 2.13581 10.3664 2.13582 10.0579C2.14342 9.7526 2.26796 9.46195 2.48373 9.24603C2.6995 9.03012 2.99014 8.90549 3.29519 8.89789ZM3.29519 13.7479C3.60183 13.7505 3.89519 13.8735 4.11202 14.0905C4.32886 14.3075 4.45196 14.601 4.45457 14.9078C4.45724 15.0614 4.4288 15.2139 4.37161 15.3564C4.31443 15.4989 4.22934 15.6286 4.1213 15.7376C4.01325 15.8467 3.88456 15.933 3.74265 15.9914C3.60073 16.0498 3.44865 16.0792 3.29519 16.0779C2.98683 16.0752 2.69206 15.9508 2.47495 15.7317C2.25783 15.5126 2.13581 15.2164 2.13582 14.9078C2.14342 14.6026 2.26796 14.3119 2.48373 14.096C2.6995 13.8801 2.99014 13.7555 3.29519 13.7479Z" fill="#0079DE"/>
</svg>
