<svg width="15" height="16" viewBox="0 0 15 16" fill="none" xmlns="http://www.w3.org/2000/svg">
<path d="M3.125 0.554565C1.39893 0.554565 0 1.95349 0 3.67957C0 5.40564 1.39893 6.80457 3.125 6.80457C4.85107 6.80457 6.25 5.40564 6.25 3.67957C6.25 1.95349 4.85107 0.554565 3.125 0.554565ZM9.88281 0.554565C9.58496 0.610718 9.37012 0.87439 9.375 1.17957V5.55457C9.375 5.8988 9.65576 6.17957 10 6.17957H14.375C14.7192 6.17957 15 5.8988 15 5.55457V1.17957C15 0.835327 14.7192 0.554565 14.375 0.554565H10C9.98047 0.554565 9.96094 0.554565 9.94141 0.554565C9.92188 0.554565 9.90234 0.554565 9.88281 0.554565ZM10.625 1.80457H13.75V4.92957H10.625V1.80457ZM3.125 9.30457C1.39893 9.30457 0 10.7035 0 12.4296C0 14.1556 1.39893 15.5546 3.125 15.5546C4.85107 15.5546 6.25 14.1556 6.25 12.4296C6.25 10.7035 4.85107 9.30457 3.125 9.30457ZM11.875 9.30457C10.1489 9.30457 8.75 10.7035 8.75 12.4296C8.75 14.1556 10.1489 15.5546 11.875 15.5546C13.6011 15.5546 15 14.1556 15 12.4296C15 10.7035 13.6011 9.30457 11.875 9.30457Z" fill="#0089FF"/>
</svg>
