<svg width="16" height="16" viewBox="0 0 16 16" fill="none" xmlns="http://www.w3.org/2000/svg">
<path d="M12.4004 13.6496V3.84961" stroke="#606580" stroke-miterlimit="10" stroke-linecap="round" stroke-linejoin="round"/>
<path d="M3.6001 3.84961V13.6496" stroke="#606580" stroke-miterlimit="10" stroke-linecap="round" stroke-linejoin="round"/>
<path d="M8.0002 4.2C10.6512 4.2 12.8002 3.48366 12.8002 2.6C12.8002 1.71634 10.6512 1 8.0002 1C5.34923 1 3.2002 1.71634 3.2002 2.6C3.2002 3.48366 5.34923 4.2 8.0002 4.2Z" stroke="#606580" stroke-miterlimit="10" stroke-linecap="round" stroke-linejoin="round"/>
<path d="M12.8002 7.80078C12.8002 8.70078 10.6502 9.40078 8.0002 9.40078C5.3502 9.40078 3.2002 8.70078 3.2002 7.80078" stroke="#606580" stroke-miterlimit="10" stroke-linecap="round" stroke-linejoin="round"/>
<path d="M12.8002 13.4004C12.8002 14.3004 10.6502 15.0004 8.0002 15.0004C5.3502 15.0004 3.2002 14.3004 3.2002 13.4004" stroke="#606580" stroke-miterlimit="10" stroke-linecap="round" stroke-linejoin="round"/>
</svg>
