<svg width="16" height="16" viewBox="0 0 16 16" fill="none" xmlns="http://www.w3.org/2000/svg">
<path d="M2.7002 10.8008C3.25248 10.8008 3.7002 10.3531 3.7002 9.80078C3.7002 9.2485 3.25248 8.80078 2.7002 8.80078C2.14791 8.80078 1.7002 9.2485 1.7002 9.80078C1.7002 10.3531 2.14791 10.8008 2.7002 10.8008Z" stroke="#606580" stroke-miterlimit="10" stroke-linecap="round" stroke-linejoin="round"/>
<path d="M12.25 10.8008C12.8023 10.8008 13.25 10.3531 13.25 9.80078C13.25 9.2485 12.8023 8.80078 12.25 8.80078C11.6977 8.80078 11.25 9.2485 11.25 9.80078C11.25 10.3531 11.6977 10.8008 12.25 10.8008Z" stroke="#606580" stroke-miterlimit="10" stroke-linecap="round" stroke-linejoin="round"/>
<path d="M3.9502 9.59961H10.9002" stroke="#606580" stroke-miterlimit="10" stroke-linecap="round" stroke-linejoin="round"/>
<path d="M13.5 9.59976H15.05L15.5 8.39976C14.3 7.49976 12.9 7.04976 11.4 7.04976H10.95C10.95 7.04976 9.15 5.24976 6.4 5.24976C4.9 5.19976 3 5.49976 3 5.49976L1.85 6.59976L0.5 7.04976V8.34976C0.5 8.64976 0.7 8.94976 1 9.04976L1.5 9.19976" stroke="#606580" stroke-miterlimit="10" stroke-linecap="round" stroke-linejoin="round"/>
<path d="M3 6L3.7 6.95L4 7.05H10.95" stroke="#606580" stroke-miterlimit="10" stroke-linecap="round" stroke-linejoin="round"/>
<path d="M4.8999 5.55078L5.8999 6.85078" stroke="#606580" stroke-miterlimit="10" stroke-linecap="round" stroke-linejoin="round"/>
</svg>
