<svg width="16" height="17" viewBox="0 0 16 17" fill="none" xmlns="http://www.w3.org/2000/svg">
<path d="M12.05 6.25L11.7 5.2V4H9.05V5.2L7.75 9.15V10.35" stroke="#D7E2F2" stroke-miterlimit="10" stroke-linecap="round" stroke-linejoin="round"/>
<path d="M7.4499 5.44922H5.4499V6.39922L4.3999 9.39922V10.3492H7.7499" stroke="#D7E2F2" stroke-miterlimit="10" stroke-linecap="round" stroke-linejoin="round"/>
<path d="M3.7 6.94922H2.7V7.59922L2 9.69922V10.3492H4.8" stroke="#D7E2F2" stroke-miterlimit="10" stroke-linecap="round" stroke-linejoin="round"/>
<path d="M9.9499 5.75C9.9499 5.75 10.1499 5.75 9.7999 5.75C9.4499 5.75 9.1499 5.75 9.1499 5.75C9.1499 5.75 9.4499 5.75 9.7999 5.75C10.1499 5.75 9.9499 5.75 9.9499 5.75Z" stroke="#D7E2F2" stroke-miterlimit="10" stroke-linecap="round" stroke-linejoin="round"/>
<path d="M1 10.3496H7.75" stroke="#D7E2F2" stroke-miterlimit="10" stroke-linecap="round" stroke-linejoin="round"/>
<path d="M12.4001 12.4L10.3501 10.3L12.4001 8.25" stroke="#D7E2F2" stroke-miterlimit="10" stroke-linecap="round" stroke-linejoin="round"/>
<path d="M15.0001 10.3008H10.3501" stroke="#D7E2F2" stroke-miterlimit="10" stroke-linecap="round" stroke-linejoin="round"/>
</svg>
