<svg width="16" height="16" viewBox="0 0 16 16" fill="none" xmlns="http://www.w3.org/2000/svg">
<path d="M7.5501 1C7.5501 1 3.0001 4.75 2.6501 9.5C2.6501 9.7 2.6001 9.85 2.6001 10.05C2.6001 12.75 4.8001 15 7.5501 15C10.0501 15 12.1501 13.1 12.4501 10.7" stroke="#606580" stroke-miterlimit="10" stroke-linecap="round" stroke-linejoin="round"/>
<path d="M4.6499 10.3008C4.6499 11.7008 5.7499 12.8008 7.1499 12.8008" stroke="#606580" stroke-miterlimit="10" stroke-linecap="round" stroke-linejoin="round"/>
<path d="M12.5003 8.55039C12.8869 8.55039 13.2003 8.23699 13.2003 7.85039C13.2003 7.46379 12.8869 7.15039 12.5003 7.15039C12.1137 7.15039 11.8003 7.46379 11.8003 7.85039C11.8003 8.23699 12.1137 8.55039 12.5003 8.55039Z" fill="#606580"/>
<path d="M9.75029 2.74961C10.1369 2.74961 10.4503 2.43621 10.4503 2.04961C10.4503 1.66301 10.1369 1.34961 9.75029 1.34961C9.36369 1.34961 9.05029 1.66301 9.05029 2.04961C9.05029 2.43621 9.36369 2.74961 9.75029 2.74961Z" fill="#606580"/>
<path d="M10.1003 6.85C10.6802 6.85 11.1503 6.3799 11.1503 5.8C11.1503 5.2201 10.6802 4.75 10.1003 4.75C9.52039 4.75 9.05029 5.2201 9.05029 5.8C9.05029 6.3799 9.52039 6.85 10.1003 6.85Z" fill="#606580"/>
<path d="M12.3503 4.64883C12.9302 4.64883 13.4003 4.17873 13.4003 3.59883C13.4003 3.01893 12.9302 2.54883 12.3503 2.54883C11.7704 2.54883 11.3003 3.01893 11.3003 3.59883C11.3003 4.17873 11.7704 4.64883 12.3503 4.64883Z" fill="#606580"/>
</svg>
