<svg width="16" height="16" viewBox="0 0 16 16" fill="none" xmlns="http://www.w3.org/2000/svg">
<g clip-path="url(#clip0)">
<path d="M12.4498 6.35024L3.8498 6.45024L2.2998 4.35024C2.0998 4.05024 1.7498 3.85024 1.3998 3.90024H0.699805C0.599805 3.90024 0.549805 4.00024 0.549805 4.10024L1.4498 6.50024H0.549805V7.20024C0.549805 7.40024 0.699805 7.60024 0.899805 7.65024L5.0498 8.95023C5.6998 9.15023 6.3498 9.30023 6.9998 9.40023L3.9998 12.9502C3.9498 13.0002 3.9998 13.1502 4.0998 13.1502H5.7498C5.8998 13.1502 6.0498 13.1002 6.1998 13.0002L10.5498 9.50024L13.5998 9.45023C14.9998 9.45023 15.5998 8.85023 15.5998 8.15023V8.05024C15.4498 7.10024 14.0998 6.35024 12.4498 6.35024Z" stroke="#606580" stroke-miterlimit="10" stroke-linecap="round" stroke-linejoin="round"/>
<path d="M15.2497 7.40039C15.2497 7.40039 14.8497 7.75039 13.1997 7.75039" stroke="#606580" stroke-miterlimit="10" stroke-linecap="round" stroke-linejoin="round"/>
<path d="M8.64969 4.95078L7.09969 3.95078C6.94969 3.85078 6.79969 3.80078 6.64969 3.80078H5.19969C5.09969 3.80078 5.04969 3.90078 5.09969 4.00078L6.14969 4.95078" stroke="#606580" stroke-miterlimit="10" stroke-linecap="round" stroke-linejoin="round"/>
</g>
<defs>
<clipPath id="clip0">
<rect width="16" height="16" fill="white"/>
</clipPath>
</defs>
</svg>
