<svg width="16" height="17" viewBox="0 0 16 17" fill="none" xmlns="http://www.w3.org/2000/svg">
<path d="M12.05 6.45117L11.7 5.40117V4.20117H9.05V5.40117L7.75 9.35117V10.5512" stroke="#D7E2F2" stroke-miterlimit="10" stroke-linecap="round" stroke-linejoin="round"/>
<path d="M7.4499 5.65039H5.4499V6.60039L4.3999 9.60039V10.5504H7.7499" stroke="#D7E2F2" stroke-miterlimit="10" stroke-linecap="round" stroke-linejoin="round"/>
<path d="M3.7 7.15039H2.7V7.80039L2 9.90039V10.5504H4.8" stroke="#D7E2F2" stroke-miterlimit="10" stroke-linecap="round" stroke-linejoin="round"/>
<path d="M9.9499 5.95117C9.9499 5.95117 10.1499 5.95117 9.7999 5.95117C9.4499 5.95117 9.1499 5.95117 9.1499 5.95117C9.1499 5.95117 9.4499 5.95117 9.7999 5.95117C10.1499 5.95117 9.9499 5.95117 9.9499 5.95117Z" stroke="#D7E2F2" stroke-miterlimit="10" stroke-linecap="round" stroke-linejoin="round"/>
<path d="M1 10.5508H7.75" stroke="#D7E2F2" stroke-miterlimit="10" stroke-linecap="round" stroke-linejoin="round"/>
<path d="M12.9502 8.45117L15.0002 10.5012L12.9502 12.6012" stroke="#D7E2F2" stroke-miterlimit="10" stroke-linecap="round" stroke-linejoin="round"/>
<path d="M10.3501 10.502H15.0001" stroke="#D7E2F2" stroke-miterlimit="10" stroke-linecap="round" stroke-linejoin="round"/>
</svg>
