<svg width="16" height="16" viewBox="0 0 16 16" fill="none" xmlns="http://www.w3.org/2000/svg">
<path d="M12.7999 12.0988C13.435 12.0988 13.9499 11.584 13.9499 10.9488C13.9499 10.3137 13.435 9.79883 12.7999 9.79883C12.1648 9.79883 11.6499 10.3137 11.6499 10.9488C11.6499 11.584 12.1648 12.0988 12.7999 12.0988Z" stroke="#606580" stroke-miterlimit="10" stroke-linecap="round" stroke-linejoin="round"/>
<path d="M2.5499 12.0988C3.18503 12.0988 3.6999 11.584 3.6999 10.9488C3.6999 10.3137 3.18503 9.79883 2.5499 9.79883C1.91477 9.79883 1.3999 10.3137 1.3999 10.9488C1.3999 11.584 1.91477 12.0988 2.5499 12.0988Z" stroke="#606580" stroke-miterlimit="10" stroke-linecap="round" stroke-linejoin="round"/>
<path d="M9.9002 10.7988H5.4502" stroke="#606580" stroke-miterlimit="10" stroke-linecap="round" stroke-linejoin="round"/>
<path d="M14.1 10.2996H15.2C15.4 10.2996 15.55 10.0996 15.45 9.89961L15.15 8.64961V7.29961L12.2 6.79961L11.65 4.79961L9.8 3.84961H7.4V8.34961H5.3H4.95H0.85L0.5 8.84961" stroke="#606580" stroke-miterlimit="10" stroke-linecap="round" stroke-linejoin="round"/>
<path d="M11.65 5.34961H9.75V6.84961H12.2" stroke="#606580" stroke-miterlimit="10" stroke-linecap="round" stroke-linejoin="round"/>
</svg>
