<svg width="29" height="29" viewBox="0 0 29 29" fill="none" xmlns="http://www.w3.org/2000/svg">
    <path d="M14.5 28C21.9558 28 28 21.9558 28 14.5C28 7.04416 21.9558 1 14.5 1C7.04416 1 1 7.04416 1 14.5C1 21.9558 7.04416 28 14.5 28Z" stroke="white" stroke-width="0.5"/>
    <path opacity="0.1" d="M14.4999 26.5297C21.1437 26.5297 26.5296 21.1438 26.5296 14.5C26.5296 7.85616 21.1437 2.47028 14.4999 2.47028C7.8561 2.47028 2.47021 7.85616 2.47021 14.5C2.47021 21.1438 7.8561 26.5297 14.4999 26.5297Z" fill="white"/>
    <path opacity="0.1" d="M14.5002 25.1931C20.4058 25.1931 25.1933 20.4056 25.1933 14.5C25.1933 8.5944 20.4058 3.80695 14.5002 3.80695C8.59458 3.80695 3.80713 8.5944 3.80713 14.5C3.80713 20.4056 8.59458 25.1931 14.5002 25.1931Z" fill="white"/>
    <path opacity="0.1" d="M14.5 23.8564C19.6674 23.8564 23.8564 19.6674 23.8564 14.5C23.8564 9.33257 19.6674 5.14355 14.5 5.14355C9.33257 5.14355 5.14355 9.33257 5.14355 14.5C5.14355 19.6674 9.33257 23.8564 14.5 23.8564Z" fill="white"/>
    <path opacity="0.1" d="M14.5003 22.5198C18.9295 22.5198 22.5201 18.9292 22.5201 14.5C22.5201 10.0708 18.9295 6.48019 14.5003 6.48019C10.0711 6.48019 6.48047 10.0708 6.48047 14.5C6.48047 18.9292 10.0711 22.5198 14.5003 22.5198Z" fill="white"/>
    <path d="M13.4166 14.393C14.1783 15.4665 15.781 15.278 16.5663 14.393L18.1282 12.8225C19.0108 11.8582 19.0422 10.6127 18.1282 9.68142C17.2361 8.77286 15.8792 8.77286 14.9871 9.68142L13.4166 11.252" stroke="white" stroke-width="0.7" stroke-linecap="round" stroke-linejoin="round"/>
    <path d="M14.9855 13.662C14.2238 12.5885 12.6297 12.722 11.8444 13.607L10.2739 15.1579C9.39127 16.1222 9.35986 17.3873 10.2739 18.3186C11.166 19.2271 12.5237 19.2271 13.415 18.3186L14.9855 16.7481" stroke="white" stroke-width="0.7" stroke-linecap="round" stroke-linejoin="round"/>
</svg>
