<svg xmlns="http://www.w3.org/2000/svg" viewBox="0 0 27.5 27.5"><defs><style>.eabd1e3c-cad8-4937-8467-6e5a4a18b966{fill:none;stroke-width:0.5px;}.eabd1e3c-cad8-4937-8467-6e5a4a18b966,.fae3d287-3951-4cfc-bf3e-81128b837e5c{stroke:#fff;stroke-miterlimit:10;}.e228be79-db0c-4d73-a1a9-3a8f623a0b77,.fae3d287-3951-4cfc-bf3e-81128b837e5c{fill:#fff;}.e228be79-db0c-4d73-a1a9-3a8f623a0b77{opacity:0.1;}.fae3d287-3951-4cfc-bf3e-81128b837e5c{stroke-width:0.05px;}</style></defs><title>reference</title><g id="b255d529-a837-4db6-9de0-1d8f67cb2ce5" data-name="Слой 2"><g id="b0a394f9-76c3-49cd-9e22-6df2bc62ad64" data-name="Layer 1"><circle class="eabd1e3c-cad8-4937-8467-6e5a4a18b966" cx="13.75" cy="13.75" r="13.5"/><circle class="e228be79-db0c-4d73-a1a9-3a8f623a0b77" cx="13.75" cy="13.75" r="12.03"/><circle class="e228be79-db0c-4d73-a1a9-3a8f623a0b77" cx="13.75" cy="13.75" r="10.69"/><circle class="e228be79-db0c-4d73-a1a9-3a8f623a0b77" cx="13.75" cy="13.75" r="9.36"/><circle class="e228be79-db0c-4d73-a1a9-3a8f623a0b77" cx="13.75" cy="13.75" r="8.02"/><path class="fae3d287-3951-4cfc-bf3e-81128b837e5c" d="M16.24,19.29h-5a1.94,1.94,0,0,1-1.94-1.94V10.77a1.94,1.94,0,0,1,1.94-1.93h5a1.94,1.94,0,0,1,1.93,1.93v6.58A1.94,1.94,0,0,1,16.24,19.29Zm-5-10a1.47,1.47,0,0,0-1.47,1.46v6.58a1.47,1.47,0,0,0,1.47,1.47h5a1.47,1.47,0,0,0,1.46-1.47V10.77a1.47,1.47,0,0,0-1.46-1.46Z"/><path class="fae3d287-3951-4cfc-bf3e-81128b837e5c" d="M16.16,17.05H11.32a.33.33,0,0,1,0-.66h4.84a.33.33,0,0,1,0,.66Z"/><path class="fae3d287-3951-4cfc-bf3e-81128b837e5c" d="M16.15,15.39H11.34a.35.35,0,1,1,0-.7h4.81a.35.35,0,0,1,0,.7Zm0-.22Z"/><path class="fae3d287-3951-4cfc-bf3e-81128b837e5c" d="M18.77,12.2h-.23V10.05h.23a1.08,1.08,0,1,1,0,2.15ZM19,10.57v1.11a.59.59,0,0,0,.37-.55A.61.61,0,0,0,19,10.57Z"/><path class="fae3d287-3951-4cfc-bf3e-81128b837e5c" d="M18.77,14.72h-.23V12.57h.23a1.08,1.08,0,1,1,0,2.15ZM19,13.09V14.2a.6.6,0,0,0,0-1.11Z"/><path class="fae3d287-3951-4cfc-bf3e-81128b837e5c" d="M18.77,17.23h-.23V15.09h.23a1.07,1.07,0,1,1,0,2.14ZM19,15.61v1.11a.61.61,0,0,0,.37-.56A.59.59,0,0,0,19,15.61Z"/></g></g></svg>