<svg xmlns="http://www.w3.org/2000/svg" viewBox="0 0 27.5 27.5"><defs><style>.b2905a6d-10ba-4957-b1b8-4362995091ac{fill:none;stroke:#fff;stroke-miterlimit:10;stroke-width:0.5px;}.ac90e835-e262-4c12-92c5-dbc7e6ea1f35,.ffe3af6c-eab6-467a-8278-3959a7f0b23d{fill:#fff;}.ffe3af6c-eab6-467a-8278-3959a7f0b23d{opacity:0.1;}</style></defs><title>filter-operation</title><g id="a3ff9df5-9536-4e36-b0db-aca013a4fd30" data-name="Слой 2"><g id="f7dfd78c-16c5-47b7-a41e-9940d9639851" data-name="Layer 1"><circle class="b2905a6d-10ba-4957-b1b8-4362995091ac" cx="13.75" cy="13.75" r="13.5"/><circle class="ffe3af6c-eab6-467a-8278-3959a7f0b23d" cx="13.75" cy="13.75" r="12.03"/><circle class="ffe3af6c-eab6-467a-8278-3959a7f0b23d" cx="13.75" cy="13.75" r="10.69"/><circle class="ffe3af6c-eab6-467a-8278-3959a7f0b23d" cx="13.75" cy="13.75" r="9.36"/><circle class="ffe3af6c-eab6-467a-8278-3959a7f0b23d" cx="13.75" cy="13.75" r="8.02"/><path class="ac90e835-e262-4c12-92c5-dbc7e6ea1f35" d="M10.68,11.61V10.38a.86.86,0,0,0,0-.16A.48.48,0,0,1,11,9.67a4.72,4.72,0,0,1,1.7-.59C13.22,9,13.76,9,14.3,8.92h.14v-.4a.24.24,0,1,1,.48,0c0,.14,0,.27,0,.4l1.42.14V8.72a.25.25,0,1,1,.49,0v.46a4.81,4.81,0,0,1,.53.2,6.82,6.82,0,0,1,.68.41.35.35,0,0,1,.13.31v6.71h.13c.18,0,.3.1.3.24s-.12.25-.3.25H7.83a.23.23,0,0,1-.19-.2.2.2,0,0,1,.12-.24.15.15,0,0,0,.1-.17c0-1.35,0-2.71,0-4.06A.39.39,0,0,1,8,12.26a4,4,0,0,1,1.49-.52C9.9,11.68,10.28,11.66,10.68,11.61Zm3.75-2.22c-.5,0-1,.08-1.46.15a4.87,4.87,0,0,0-1.66.52.26.26,0,0,0-.15.25q0,3.18,0,6.38v.14h3.26Zm3.27,7.44V15.12c0-1.64,0-3.27,0-4.9a.24.24,0,0,0-.06-.17,2.27,2.27,0,0,0-.79-.36V10H17a.24.24,0,0,1,0,.48h-2v1.2h1.41V11a.25.25,0,0,1,.3-.25.27.27,0,0,1,.19.26v.65H17a.21.21,0,0,1,.19.17.34.34,0,0,1-.06.24.32.32,0,0,1-.22.07H14.93v1.2h1.41v-.56a.26.26,0,0,1,.25-.26.26.26,0,0,1,.24.25v.58H17a.25.25,0,0,1,.23.23.24.24,0,0,1-.2.25H14.93v1.2h1.41V14.6a.59.59,0,0,1,0-.14.24.24,0,0,1,.25-.15.27.27,0,0,1,.22.25v.52H17a.23.23,0,0,1,.06.45.45.45,0,0,1-.16,0H14.93v1.26h1.41v-.72a.24.24,0,0,1,.24-.26.26.26,0,0,1,.25.27v.71Zm-7,0v-3l-.65,0a4.26,4.26,0,0,0-1.56.42.19.19,0,0,0-.11.19V16.7c0,.05,0,.09,0,.13Zm-2.32-3a6.07,6.07,0,0,1,2.32-.46V12.12c-.35,0-.68.06-1,.11a3.66,3.66,0,0,0-1.2.38s-.09.06-.09.1C8.35,13.06,8.35,13.42,8.35,13.79Zm8-3.79V9.7c0-.08,0-.12-.1-.12s-.27-.05-.41-.06l-.89-.09V10Z"/></g></g></svg>