<svg xmlns="http://www.w3.org/2000/svg" viewBox="0 0 27.5 27.5"><defs><style>.a6476589-bf71-4283-a7f7-add6d166c453{fill:none;stroke:#fff;stroke-miterlimit:10;stroke-width:0.5px;}.a57a99fa-3be3-4964-b0ab-1f3d8ea87c74,.e1d98b4b-d715-4a25-a2c9-5c7ca904753d{fill:#fff;}.a57a99fa-3be3-4964-b0ab-1f3d8ea87c74{opacity:0.1;}</style></defs><title>idea</title><g id="bb670a9d-67f6-49a2-b3fd-ce6c27fc85b7" data-name="Слой 2"><g id="e4596446-9a3c-49c4-83f9-3d7b10a00a0e" data-name="Layer 1"><circle class="a6476589-bf71-4283-a7f7-add6d166c453" cx="13.75" cy="13.75" r="13.5"/><circle class="a57a99fa-3be3-4964-b0ab-1f3d8ea87c74" cx="13.75" cy="13.75" r="12.03"/><circle class="a57a99fa-3be3-4964-b0ab-1f3d8ea87c74" cx="13.75" cy="13.75" r="10.69"/><circle class="a57a99fa-3be3-4964-b0ab-1f3d8ea87c74" cx="13.75" cy="13.75" r="9.36"/><circle class="a57a99fa-3be3-4964-b0ab-1f3d8ea87c74" cx="13.75" cy="13.75" r="8.02"/><path class="e1d98b4b-d715-4a25-a2c9-5c7ca904753d" d="M14.42,7.09l.13,0a.42.42,0,0,1,.25.37v.63a.44.44,0,0,1-.41.43,1.67,1.67,0,0,1-.32,0,.43.43,0,0,1-.32-.41V7.53a.44.44,0,0,1,.34-.43h.33Z"/><path class="e1d98b4b-d715-4a25-a2c9-5c7ca904753d" d="M8,13.17l0-.07a.43.43,0,0,1,.39-.31h.66a.41.41,0,0,1,.4.39,1.15,1.15,0,0,1,0,.32.43.43,0,0,1-.42.33H8.5a.43.43,0,0,1-.44-.35s0,0,0,0Z"/><path class="e1d98b4b-d715-4a25-a2c9-5c7ca904753d" d="M14.28,18.83c-.21,0-.42,0-.64,0A.94.94,0,0,1,12.7,18c0-.23,0-.45-.06-.67a1,1,0,0,0-.44-.78A3.86,3.86,0,0,1,10.48,14a3.79,3.79,0,0,1,.61-2.94,3.69,3.69,0,0,1,2.23-1.59,3.79,3.79,0,0,1,3.43.79,3.84,3.84,0,0,1,1.35,2.42,3.89,3.89,0,0,1-1.72,3.83,1,1,0,0,0-.45.81,5.51,5.51,0,0,1-.07.71.91.91,0,0,1-.86.76c-.24,0-.48,0-.72,0Zm0-.65h.63A.29.29,0,0,0,15.2,18l0-.25c0-.21,0-.42.08-.63a1.62,1.62,0,0,1,.69-1,3.19,3.19,0,0,0,1.43-3.27,3.19,3.19,0,0,0-3-2.7,2.44,2.44,0,0,0-.54,0,3.2,3.2,0,0,0-1.79.88,3.17,3.17,0,0,0-1,2.22A3.23,3.23,0,0,0,11.57,15a3.5,3.5,0,0,0,1,1.05,1.41,1.41,0,0,1,.63.94,8.27,8.27,0,0,1,.1.87.3.3,0,0,0,.3.3Z"/><path class="e1d98b4b-d715-4a25-a2c9-5c7ca904753d" d="M19.76,12.79h.29a.46.46,0,0,1,.45.41,1.31,1.31,0,0,1,0,.28.43.43,0,0,1-.41.36h-.64a.42.42,0,0,1-.41-.38,1.36,1.36,0,0,1,0-.35.43.43,0,0,1,.4-.32Z"/><path class="e1d98b4b-d715-4a25-a2c9-5c7ca904753d" d="M18.31,8.75l.12,0a.64.64,0,0,1,.43.59.45.45,0,0,1-.12.26c-.13.13-.26.27-.4.4a.49.49,0,0,1-.54.09.65.65,0,0,1-.33-.57.39.39,0,0,1,.12-.25L18,8.88A.51.51,0,0,1,18.31,8.75Z"/><path class="e1d98b4b-d715-4a25-a2c9-5c7ca904753d" d="M10.25,8.76a.46.46,0,0,1,.33.12l.4.41a.44.44,0,0,1,0,.61l-.14.14a.45.45,0,0,1-.6,0q-.21-.19-.42-.42a.44.44,0,0,1,0-.59L10,8.87A.4.4,0,0,1,10.25,8.76Z"/><path class="e1d98b4b-d715-4a25-a2c9-5c7ca904753d" d="M14.29,19.17h.78a.16.16,0,0,1,.12.28,1.19,1.19,0,0,1-.94.44,1.16,1.16,0,0,1-.89-.46.17.17,0,0,1,0-.18.16.16,0,0,1,.15-.08Z"/><path class="e1d98b4b-d715-4a25-a2c9-5c7ca904753d" d="M14.29,11.35a1.43,1.43,0,0,1,1.13.57,1.28,1.28,0,0,1-.14,1.67,1.38,1.38,0,0,1-.4.28.71.71,0,0,0-.41.77.3.3,0,0,1-.18.3.31.31,0,0,1-.36-.11.45.45,0,0,1-.07-.18,1.29,1.29,0,0,1,.55-1.2l.21-.13a.69.69,0,0,0,.3-.94.68.68,0,0,0-.65-.37.77.77,0,0,0-.75.61.67.67,0,0,0,0,.2.27.27,0,0,1-.12.29.26.26,0,0,1-.3,0,.39.39,0,0,1-.19-.29A1.35,1.35,0,0,1,14,11.39Z"/><path class="e1d98b4b-d715-4a25-a2c9-5c7ca904753d" d="M14.18,16.21a.52.52,0,0,1-.52-.5.54.54,0,0,1,.54-.53.55.55,0,0,1,.51.51A.53.53,0,0,1,14.18,16.21Z"/></g></g></svg>