<svg width="30" height="29" viewBox="0 0 30 29" fill="none" xmlns="http://www.w3.org/2000/svg">
<g opacity="0.85">
<path d="M1.06396 13.0322C1.74493 5.72522 8.03094 0.142217 15.4539 0.42423C23.137 0.716222 29.1279 7.18223 28.835 14.8642C28.5699 21.8462 23.2069 27.4312 16.465 28.1722" stroke="white" stroke-width="0.5"/>
<path d="M14.5326 14.199C14.2265 14.302 14.1305 14.269 13.9915 14.028C13.7776 13.653 13.4585 13.387 13.1065 13.147C12.7605 12.911 12.3996 12.686 12.0926 12.405C11.0935 11.494 10.8526 10.36 11.1905 9.08096C11.2325 8.92398 11.2265 8.79996 11.1385 8.65796C10.8435 8.17896 10.8216 8.03397 10.8905 7.41498H18.7906C18.7856 7.81897 18.8825 8.22998 18.5815 8.57996C18.4386 8.74698 18.4395 8.92697 18.4936 9.14398C18.8695 10.657 18.3985 11.874 17.1026 12.795C16.7815 13.023 16.4455 13.232 16.1405 13.479C15.9706 13.616 15.8325 13.802 15.7075 13.984C15.5116 14.272 15.4995 14.287 15.1295 14.217C15.2245 13.897 15.3996 13.628 15.6106 13.377C15.9546 12.969 16.4225 12.722 16.8495 12.422C18.0825 11.559 18.4546 10.495 18.0096 8.98798C17.9776 8.87897 17.9245 8.84695 17.8145 8.84695C15.8255 8.84998 13.8365 8.84998 11.8476 8.84598C11.7306 8.84598 11.6916 8.89496 11.6576 8.99496C11.2075 10.325 11.5636 11.489 12.6905 12.325C13.0276 12.575 13.3866 12.796 13.7226 13.047C14.0426 13.287 14.2755 13.605 14.4485 13.966C14.4845 14.04 14.5045 14.121 14.5326 14.199Z" fill="#FCFCFC"/>
<path d="M15.1096 14.6052C15.4976 14.5412 15.5036 14.5442 15.6826 14.8482C15.8916 15.2022 16.1946 15.4582 16.5356 15.6762C16.7455 15.8112 16.9576 15.9422 17.1616 16.0862C18.4056 16.9592 18.8705 18.2022 18.4936 19.6842C18.4396 19.8982 18.4416 20.0772 18.5605 20.2592C18.7895 20.6102 18.8486 20.9942 18.7756 21.4152H10.8806C10.8936 21.1192 10.8025 20.8172 10.9745 20.5402C11.1876 20.1972 11.2236 19.8612 11.1335 19.4492C10.8296 18.0412 11.3396 16.9282 12.4946 16.0962C12.7336 15.9242 12.9875 15.7712 13.2336 15.6082C13.5846 15.3772 13.8755 15.0892 14.0636 14.7072C14.1826 14.4652 14.3846 14.6342 14.5406 14.5782L14.5796 14.6202C14.4976 14.7872 14.4246 14.9602 14.3315 15.1212C14.0636 15.5832 13.6426 15.8822 13.2086 16.1742C12.8566 16.4102 12.4996 16.6552 12.1996 16.9522C11.4916 17.6532 11.3606 18.5242 11.5626 19.4672C11.6725 19.9812 11.6746 19.9812 12.1985 19.9812C14.0426 19.9812 15.8866 19.9782 17.7306 19.9872C17.9225 19.9882 18.0085 19.9272 18.0356 19.7502C18.0856 19.4342 18.1656 19.1192 18.1816 18.8002C18.2325 17.7922 17.7356 17.0612 16.9535 16.4932C16.7035 16.3122 16.4366 16.1572 16.1806 15.9842C15.6396 15.6182 15.2375 15.1012 15.1096 14.6052Z" fill="#FCFCFC"/>
<path d="M17.4678 19.659H12.2058C12.3718 19.319 12.5648 19.028 12.8228 18.784C13.0128 18.603 13.2118 18.431 13.4098 18.258C14.0148 17.73 14.4678 17.097 14.7428 16.34C14.7668 16.272 14.7948 16.206 14.8328 16.106C14.8698 16.195 14.8978 16.256 14.9198 16.318C15.2018 17.111 15.6808 17.765 16.3178 18.308C16.6818 18.62 17.0518 18.926 17.2968 19.35C17.3488 19.44 17.3978 19.532 17.4678 19.659Z" fill="#FCFCFC"/>
<path d="M14.8369 13.9759C14.4699 13.1169 13.8569 12.5588 13.075 12.0888C14.2709 11.7528 15.3989 11.7539 16.5949 12.0869C15.8189 12.5619 15.1959 13.1098 14.8369 13.9759Z" fill="#FCFCFC"/>
</g>
</svg>
