<svg xmlns="http://www.w3.org/2000/svg" viewBox="0 0 28.28 28.26">
    <defs>
        <style>.ad4e80a6-0687-448e-bc4e-ba31e2694306 {
            fill: none;
            stroke: #00CF94;
            stroke-miterlimit: 10;
            stroke-width: 0.5px;
        }

        .e7ed28b5-000a-442a-a117-3b7f832f8649 {
            fill: #00CF94;
        }</style>
    </defs>
    <title>libra-red</title>
    <g id="f62c8939-ec1e-434b-b6b0-c207eef467e3" data-name="Слой 2">
        <g id="e5bdab21-9fd9-48b3-a8ce-7e214fdc5144" data-name="Layer 1">
            <path class="ad4e80a6-0687-448e-bc4e-ba31e2694306" d="M.25,12.87A13.92,13.92,0,1,1,15.65,28"/>
            <path class="e7ed28b5-000a-442a-a117-3b7f832f8649"
                  d="M22,18c-.67-1.69-1.36-3.37-2.05-5.06-.2-.49-.39-1-.6-1.49l-.06.05q-1.34,3.3-2.66,6.58a.54.54,0,0,0,0,.35,4.11,4.11,0,0,0,.43,1,2.67,2.67,0,0,0,2.59,1.1A2.5,2.5,0,0,0,22,18.57,1,1,0,0,0,22,18Zm-.77.31H17.39a.93.93,0,0,1-.19-.06l2.11-5.54a1.55,1.55,0,0,1,.14.2L21.4,18C21.47,18.17,21.46,18.29,21.24,18.29Z"/>
            <path class="e7ed28b5-000a-442a-a117-3b7f832f8649"
                  d="M11.21,17.94c-.67-1.69-1.36-3.37-2.05-5.06-.19-.47-.39-.94-.6-1.45a1.72,1.72,0,0,0-.12.22c-.86,2.13-1.73,4.26-2.58,6.4a.6.6,0,0,0-.05.32A2.61,2.61,0,0,0,6.88,20a3.11,3.11,0,0,0,2,.45,2.54,2.54,0,0,0,2.42-1.93A1.1,1.1,0,0,0,11.21,17.94Zm-.83.35H6.76c-.32,0-.36-.05-.25-.34.64-1.66,1.27-3.32,1.91-5a2,2,0,0,1,.1-.21l.09,0,2.09,5.51A2.55,2.55,0,0,1,10.38,18.29Z"/>
            <path class="e7ed28b5-000a-442a-a117-3b7f832f8649"
                  d="M20.35,10.25H15.41c-.27,0-.44-.05-.51-.38-.25-1.15-.54-2.28-.84-3.49,0,.16-.06.25-.09.35-.24,1-.5,2.1-.73,3.16a.35.35,0,0,1-.41.33c-1.62,0-3.23,0-4.85,0a.8.8,0,0,0-.31,0c-.11.06-.29.19-.29.28a.67.67,0,0,0,.26.36c.05,0,.17,0,.27,0,1.58,0,3.17,0,4.75,0,.24,0,.37,0,.43.31a1,1,0,0,0,.91.71.88.88,0,0,0,1-.55c.12-.44.37-.51.74-.46h4.64c.23,0,.43-.06.43-.32S20.59,10.24,20.35,10.25Zm-6.28,1.24a.6.6,0,0,1-.58-.6.59.59,0,0,1,.59-.59.6.6,0,0,1,.58.6A.59.59,0,0,1,14.07,11.49Z"/>
        </g>
    </g>
</svg>