<svg xmlns="http://www.w3.org/2000/svg" viewBox="0 0 24.9 28.13"><defs><style>.cls-1-pdf,.cls-3-pdf,.cls-4-pdf{fill:#343745;}.cls-1-pdf{opacity:0.6;}.cls-2-pdf{fill:#2e3045;}.cls-3-pdf{opacity:0.8;}.cls-5-pdf{fill:#2b3645;}.cls-6-pdf{fill:#ac0100;}.cls-7-pdf{fill:#db0000;}.cls-8-pdf{fill:#dfffff;}</style></defs><title>Ресурс 1</title><g id="Слой_2" data-name="Слой 2"><g id="Layer_1" data-name="Layer 1"><path class="cls-1-pdf" d="M23.2,28.13h-21V1.71H16L23.2,8.93Z"/><path class="cls-2-pdf" d="M23.2,8.47H16.43V1.71h0L23.2,8.47Z"/><path class="cls-3-pdf" d="M24.05,27.28H3V.85H16.82l7.23,7.23Z"/><path class="cls-2-pdf" d="M24.05,7.62H17.28V.85h0l6.77,6.77Z"/><path class="cls-4-pdf" d="M24.9,26.43h-21V0H17.67L24.9,7.23Z"/><path class="cls-5-pdf" d="M24.9,6.77H18.14V0h0L24.9,6.77Z"/><polygon class="cls-6-pdf" points="0 13.3 2.17 18.45 2.17 12.34 0 12.28 0 13.3"/><rect class="cls-7-pdf" y="8.12" width="17.05" height="7.25" rx="1.73"/><path class="cls-8-pdf" d="M6,10.79a1.51,1.51,0,0,1-.42,1.07,1.79,1.79,0,0,1-.59.37,2.51,2.51,0,0,1-.85.12H3.57v1.8H2.93V9.33H4.14a3.07,3.07,0,0,1,.73.08,1.56,1.56,0,0,1,.53.22,1.58,1.58,0,0,1,.42.47A1.47,1.47,0,0,1,6,10.79Zm-.67,0a1.14,1.14,0,0,0-.08-.43.83.83,0,0,0-.26-.3.82.82,0,0,0-.36-.14,2.27,2.27,0,0,0-.5,0H3.57v1.93H4a2.16,2.16,0,0,0,.62-.07.79.79,0,0,0,.4-.22.93.93,0,0,0,.21-.32A1.2,1.2,0,0,0,5.3,10.8Z"/><path class="cls-8-pdf" d="M10.37,11.75a2.66,2.66,0,0,1-.26,1.18,2.09,2.09,0,0,1-.72.83,2.06,2.06,0,0,1-.74.31,5,5,0,0,1-1,.08H6.58V9.33H7.67a4.22,4.22,0,0,1,1.07.11,2,2,0,0,1,.66.28,2,2,0,0,1,.72.81A2.71,2.71,0,0,1,10.37,11.75Zm-.66,0a2.09,2.09,0,0,0-.19-1A1.42,1.42,0,0,0,9,10.17,2.18,2.18,0,0,0,8.43,10a3.5,3.5,0,0,0-.72-.07H7.22V13.6h.49a4,4,0,0,0,.74-.07A1.72,1.72,0,0,0,9,13.28a1.37,1.37,0,0,0,.5-.61A2.31,2.31,0,0,0,9.71,11.74Z"/><path class="cls-8-pdf" d="M14,9.9H11.71v1.36h2.14v.57H11.71v2.32h-.64V9.33H14Z"/><rect class="cls-7-pdf" x="12.21" y="17.05" width="1.69" height="8.53" rx="0.84"/><rect class="cls-7-pdf" x="13.4" y="21.19" width="1.69" height="4.68" rx="0.84" transform="translate(20.81 -3.18) rotate(45)"/><rect class="cls-7-pdf" x="10.98" y="21.19" width="1.69" height="4.68" rx="0.84" transform="translate(-13.17 15.25) rotate(-45)"/></g></g></svg>