<svg xmlns="http://www.w3.org/2000/svg" viewBox="0 0 27.5 27.5"><defs><style>.abefbf9e-3c63-4dae-8d3b-352ac6071249{fill:none;stroke-width:0.5px;}.abefbf9e-3c63-4dae-8d3b-352ac6071249,.f3937a0b-2576-40e6-a861-3daf9caccba8{stroke:#fff;stroke-miterlimit:10;}.ac551359-3501-4908-8c1e-cedbecaaf3c0,.f3937a0b-2576-40e6-a861-3daf9caccba8{fill:#fff;}.ac551359-3501-4908-8c1e-cedbecaaf3c0{opacity:0.1;}.f3937a0b-2576-40e6-a861-3daf9caccba8{stroke-width:0.05px;}</style></defs><title>report-operation</title><g id="f3c95277-ea3d-498c-ae28-e7a70b1b72a5" data-name="Слой 2"><g id="a2e9cbdb-92bc-4b41-b471-700f9fbace3e" data-name="Layer 1"><circle class="abefbf9e-3c63-4dae-8d3b-352ac6071249" cx="13.75" cy="13.75" r="13.5"/><circle class="ac551359-3501-4908-8c1e-cedbecaaf3c0" cx="13.75" cy="13.75" r="12.03"/><circle class="ac551359-3501-4908-8c1e-cedbecaaf3c0" cx="13.75" cy="13.75" r="10.69"/><circle class="ac551359-3501-4908-8c1e-cedbecaaf3c0" cx="13.75" cy="13.75" r="9.36"/><path class="f3937a0b-2576-40e6-a861-3daf9caccba8" d="M16.24,19.29h-5a1.94,1.94,0,0,1-1.94-1.94V10.77a1.94,1.94,0,0,1,1.94-1.93h5a1.94,1.94,0,0,1,1.93,1.93v6.58A1.94,1.94,0,0,1,16.24,19.29Zm-5-10a1.47,1.47,0,0,0-1.47,1.46v6.58a1.47,1.47,0,0,0,1.47,1.47h5a1.47,1.47,0,0,0,1.46-1.47V10.77a1.47,1.47,0,0,0-1.46-1.46Z"/><path class="f3937a0b-2576-40e6-a861-3daf9caccba8" d="M16.16,17.05H11.32a.33.33,0,0,1,0-.66h4.84a.33.33,0,0,1,0,.66Z"/><path class="f3937a0b-2576-40e6-a861-3daf9caccba8" d="M16.15,15.39H11.34a.35.35,0,1,1,0-.7h4.81a.35.35,0,0,1,0,.7Z"/></g></g></svg>