<svg xmlns="http://www.w3.org/2000/svg" viewBox="0 0 27.5 27.5"><defs><style>.ab2513c1-2cbe-4627-b0c7-2d9ecdfa21dd{fill:none;stroke:#fff;stroke-miterlimit:10;stroke-width:0.5px;}.a0acca3a-e8a2-48c8-8a15-9d422117d69b,.b1c36b2b-e852-4701-815c-06fe0d5bc7e1{fill:#fff;}.a0acca3a-e8a2-48c8-8a15-9d422117d69b{opacity:0.1;}</style></defs><title>settings</title><g id="ac99ccf7-a52f-453f-a146-b4f29f92c52b" data-name="Слой 2"><g id="ba9bcbfd-a1a4-4eed-8561-8e722c485d30" data-name="Layer 1"><circle class="ab2513c1-2cbe-4627-b0c7-2d9ecdfa21dd" cx="13.75" cy="13.75" r="13.5"/><circle class="a0acca3a-e8a2-48c8-8a15-9d422117d69b" cx="13.75" cy="13.75" r="12.03"/><circle class="a0acca3a-e8a2-48c8-8a15-9d422117d69b" cx="13.75" cy="13.75" r="10.69"/><circle class="a0acca3a-e8a2-48c8-8a15-9d422117d69b" cx="13.75" cy="13.75" r="9.36"/><circle class="a0acca3a-e8a2-48c8-8a15-9d422117d69b" cx="13.75" cy="13.75" r="8.02"/><path class="b1c36b2b-e852-4701-815c-06fe0d5bc7e1" d="M14.51,19.32H13a.61.61,0,0,1-.61-.61v-.55a4.41,4.41,0,0,1-.71-.29l-.38.38a.6.6,0,0,1-.43.18.6.6,0,0,1-.44-.18L9.3,17.16a.62.62,0,0,1,0-.87l.38-.37a4.55,4.55,0,0,1-.3-.72H8.85a.61.61,0,0,1-.62-.61V13a.62.62,0,0,1,.62-.61h.53a4.87,4.87,0,0,1,.3-.71l-.38-.38a.6.6,0,0,1,0-.86l1.09-1.1a.62.62,0,0,1,.87,0l.38.39a3.65,3.65,0,0,1,.71-.29V8.93A.61.61,0,0,1,13,8.32h1.55a.61.61,0,0,1,.61.61v.56a3.83,3.83,0,0,1,.7.29l.39-.4a.62.62,0,0,1,.87,0l1.09,1.1a.6.6,0,0,1,0,.86l-.4.4a4.19,4.19,0,0,1,.29.69h.56a.61.61,0,0,1,.61.61v1.55a.61.61,0,0,1-.61.61h-.56a4.7,4.7,0,0,1-.29.7l.4.39a.62.62,0,0,1,0,.87l-1.09,1.09a.6.6,0,0,1-.44.18.6.6,0,0,1-.43-.18l-.39-.39a4.7,4.7,0,0,1-.7.29v.56A.61.61,0,0,1,14.51,19.32Zm-2.9-1.86a.16.16,0,0,1,.09,0,4.28,4.28,0,0,0,.88.36.17.17,0,0,1,.13.17v.69A.25.25,0,0,0,13,19h1.55a.25.25,0,0,0,.25-.24V18a.18.18,0,0,1,.13-.18,4.7,4.7,0,0,0,.87-.36.18.18,0,0,1,.22,0l.49.49a.26.26,0,0,0,.35,0l1.09-1.1a.24.24,0,0,0,0-.35l-.49-.49a.18.18,0,0,1,0-.22,4.19,4.19,0,0,0,.36-.87.17.17,0,0,1,.17-.13h.7a.25.25,0,0,0,.25-.25V13a.25.25,0,0,0-.25-.24h-.7a.18.18,0,0,1-.17-.14,4.34,4.34,0,0,0-.36-.86.18.18,0,0,1,0-.22l.49-.5a.23.23,0,0,0,0-.34l-1.09-1.1a.24.24,0,0,0-.35,0l-.49.49a.18.18,0,0,1-.22,0,4.1,4.1,0,0,0-.87-.36.19.19,0,0,1-.13-.18V8.93a.25.25,0,0,0-.25-.25H13a.25.25,0,0,0-.25.25v.68a.18.18,0,0,1-.13.18,4.28,4.28,0,0,0-.88.36.18.18,0,0,1-.22,0L11,9.64a.24.24,0,0,0-.35,0l-1.09,1.1a.22.22,0,0,0,0,.34l.47.48a.18.18,0,0,1,0,.22,4.83,4.83,0,0,0-.37.88.18.18,0,0,1-.17.14H8.85A.25.25,0,0,0,8.6,13v1.55a.25.25,0,0,0,.25.25h.67a.17.17,0,0,1,.17.13,4.64,4.64,0,0,0,.37.89.18.18,0,0,1,0,.22l-.47.47a.24.24,0,0,0,0,.35L10.65,18A.26.26,0,0,0,11,18l.48-.48A.16.16,0,0,1,11.61,17.46Z"/><path class="b1c36b2b-e852-4701-815c-06fe0d5bc7e1" d="M13.73,16a2.09,2.09,0,0,1-.81-.16,2.13,2.13,0,0,1,0-3.94.18.18,0,0,1,.24.1.19.19,0,0,1-.1.24,1.76,1.76,0,1,0,1.35,3.26,1.77,1.77,0,0,0,1-2.31.18.18,0,0,1,.1-.24.17.17,0,0,1,.23.1,2.13,2.13,0,0,1-2,2.95Z"/><path class="b1c36b2b-e852-4701-815c-06fe0d5bc7e1" d="M11.71,9.16a.16.16,0,0,1-.16-.11l0-.05a.17.17,0,0,1,.1-.23.18.18,0,0,1,.24.09v.05a.17.17,0,0,1-.1.23Z"/><path class="b1c36b2b-e852-4701-815c-06fe0d5bc7e1" d="M15.77,18.89a.19.19,0,0,1-.17-.12l0,0a.18.18,0,1,1,.34-.14l0,0a.18.18,0,0,1-.1.24Z"/><path class="b1c36b2b-e852-4701-815c-06fe0d5bc7e1" d="M11.72,18.9l-.07,0a.18.18,0,0,1-.1-.24l0,0a.17.17,0,0,1,.23-.1.18.18,0,0,1,.1.24v0A.19.19,0,0,1,11.72,18.9Z"/><path class="b1c36b2b-e852-4701-815c-06fe0d5bc7e1" d="M18.63,16l-.07,0h0a.18.18,0,0,1-.09-.24.17.17,0,0,1,.23-.1h.05a.2.2,0,0,1,.1.24A.19.19,0,0,1,18.63,16Z"/><path class="b1c36b2b-e852-4701-815c-06fe0d5bc7e1" d="M18.58,12a.18.18,0,0,1-.17-.11.18.18,0,0,1,.09-.24l.05,0a.2.2,0,0,1,.24.1.18.18,0,0,1-.1.24l0,0Z"/></g></g></svg>