<svg xmlns="http://www.w3.org/2000/svg" width="100%" height="100%" viewBox="0 0 17.81 11.69"><title>1</title><path d="M8.91,0A8.92,8.92,0,0,0,0,8.91a8.82,8.82,0,0,0,.27,2.16.66.66,0,1,0,1.29-.32l-.06-.34a.66.66,0,0,0-.1-1.32h0c0-.06,0-.13,0-.19A7.45,7.45,0,0,1,2.68,4.62a.67.67,0,0,0,.4.14.65.65,0,0,0,.66-.66.69.69,0,0,0-.22-.5A7.5,7.5,0,0,1,8.24,1.37a.67.67,0,0,0,1.33,0,7.55,7.55,0,0,1,4.75,2.25.68.68,0,0,0-.2.48.66.66,0,0,0,.67.66.62.62,0,0,0,.36-.12,7.5,7.5,0,0,1,1.33,4.27c0,.06,0,.12,0,.18a.67.67,0,0,0-.65.67.64.64,0,0,0,.5.63c0,.16,0,.31-.09.46a.68.68,0,0,0,.48.82l.17,0a.67.67,0,0,0,.64-.5,8.76,8.76,0,0,0,.3-2.28A8.92,8.92,0,0,0,8.91,0Z" style="fill-rule:evenodd"/><path d="M12.58,5.39,8.92,8.83a1.28,1.28,0,0,0-1,.4A1.29,1.29,0,1,0,9.83,11a1.23,1.23,0,0,0,.34-.93l3.18-4a.52.52,0,0,0-.77-.7Z" style="fill-rule:evenodd"/></svg>
