<svg xmlns="http://www.w3.org/2000/svg" width="100%" height="100%" viewBox="0 0 17 11.57"><title>10</title><path d="M16,4.76H15.6a1,1,0,0,0-1,1v.06H10.94a3.9,3.9,0,0,0-.9-.65V4.19h.13a1,1,0,0,0,1-1V2.8a1,1,0,0,0-.33-.72l2-1.23,0,0a.13.13,0,0,0,.07-.06L13,.68,13,.6a.29.29,0,0,0,0-.09.43.43,0,0,0,0,0h0a0,0,0,0,0,0,0,.2.2,0,0,0,0-.07.36.36,0,0,0,0-.11h0v0A.38.38,0,0,0,12.85.1h0A.48.48,0,0,0,12.59,0H4.38l-.1,0h0a.61.61,0,0,0-.14.07l0,0A.38.38,0,0,0,4,.2s0,0,0,0,0,0,0,0a.3.3,0,0,0,0,.1s0,.05,0,.08,0,0,0,0a.43.43,0,0,0,0,0A.29.29,0,0,0,4,.6L4,.68,4,.75a.13.13,0,0,0,.07.06.08.08,0,0,0,0,0l2,1.23a1,1,0,0,0-.33.72v.43a1,1,0,0,0,1,1h.13v1a3.6,3.6,0,0,0-.86.63H2.37V5.72a1,1,0,0,0-1-1H1a1,1,0,0,0-1,1v4.89a1,1,0,0,0,1,1H1.4a1,1,0,0,0,1-1v-.06h3.7a3.39,3.39,0,0,0,4.87,0h3.69v.06a1,1,0,0,0,1,1H16a1,1,0,0,0,1-1V5.72A1,1,0,0,0,16,4.76ZM1.46,6.24v4.37H.91V5.67H1.4a.06.06,0,0,1,.06,0ZM6,.92h5l-1.48.9h-2Zm.8,2.37V2.73h3.37a.08.08,0,0,1,.07.07v.49H6.79Zm2.34.9v.57H7.84V4.19ZM5.45,9.64H2.37V6.69H5.45A3.36,3.36,0,0,0,5.1,8.17,3.32,3.32,0,0,0,5.45,9.64Zm3.05,1A2.5,2.5,0,1,1,11,8.17,2.5,2.5,0,0,1,8.5,10.66Zm6.13-1H11.56a3.32,3.32,0,0,0,.35-1.47,3.36,3.36,0,0,0-.35-1.48h3.07Zm1.46,1h-.55V5.72a.06.06,0,0,1,.06,0h.49Z"/></svg>
