<svg xmlns="http://www.w3.org/2000/svg" width="100%" height="100%" viewBox="0 0 10.26 15"><title>2</title><path d="M9.73,7.67A38,38,0,0,0,6.86,2.24c-.31-.51-.65-1-1-1.5C5.72.52,5.57.29,5.42.07l0-.07H4.9L4.85.05,4.78.13a1.73,1.73,0,0,0-.17.21A45.23,45.23,0,0,0,.73,7.19l0,0A6.37,6.37,0,0,0,0,9.81a4.93,4.93,0,0,0,2.88,4.64,5.47,5.47,0,0,0,1.18.4L4.6,15h1l.1,0,.12,0A5.08,5.08,0,0,0,9.73,7.67ZM8.59,11.93a4,4,0,0,1-2.76,1.9A4,4,0,0,1,1.11,10a3.85,3.85,0,0,1,.27-1.43A29.23,29.23,0,0,1,4.12,3.16L4.19,3c.23-.38.47-.75.72-1.15l.24-.38.63,1.07c.54.92,1.06,1.8,1.57,2.69A21.74,21.74,0,0,1,9,8.9,3.7,3.7,0,0,1,8.59,11.93Z"/><path d="M5,12.29a3.26,3.26,0,0,1-.61-.11A2.43,2.43,0,0,1,2.7,10a.76.76,0,0,0-.22-.55.51.51,0,0,0-.38-.12c-.34,0-.51.26-.5.71a3.52,3.52,0,0,0,3.31,3.35H5c.23,0,.6-.05.63-.48S5.18,12.31,5,12.29Z" /></svg>
