<svg xmlns="http://www.w3.org/2000/svg" width="100%" height="100%" viewBox="0 0 14 11.51"><title>3</title><path d="M4.61,6.7a1.53,1.53,0,0,0-1.19-.35H3.31A3.24,3.24,0,0,1,.93,5.43,3.19,3.19,0,0,1,.23,2a.44.44,0,0,1,.3-.25.4.4,0,0,1,.37.11L2.36,3.31a.68.68,0,0,0,.94,0,.71.71,0,0,0,.2-.48.67.67,0,0,0-.19-.47L1.85.9A.39.39,0,0,1,1.74.53.44.44,0,0,1,2,.23,3.18,3.18,0,0,1,6.36,3.29v.13A1.52,1.52,0,0,0,6.7,4.61l-.59.56a2.26,2.26,0,0,1-.57-1.8L6,3.3l-.41,0a2.4,2.4,0,0,0-.69-1.77A2.37,2.37,0,0,0,2.94.83l.94,1a1.48,1.48,0,0,1,.44,1.05,1.45,1.45,0,0,1-.44,1,1.5,1.5,0,0,1-2.1,0L.83,2.94a2.36,2.36,0,0,0,2.43,2.6h.11a2.3,2.3,0,0,1,1.8.57Z" /><path d="M10.08,11.5H9.9a1.94,1.94,0,0,1-1.08-.57L7.61,9.7l.58-.57L9.4,10.34a1.12,1.12,0,0,0,.6.34.57.57,0,0,0,.5-.19c.4-.4.07-.86-.16-1.09L9.09,8.15l.58-.58,1.25,1.25a1.52,1.52,0,0,1,.16,2.25A1.38,1.38,0,0,1,10.08,11.5Z" /><polygon points="9.91 5.64 9.33 5.06 11.54 2.85 12.17 2.92 12.97 1.62 12.66 1.3 11.35 2.1 11.42 2.74 9.73 4.43 9.15 3.85 10.56 2.44 10.48 1.67 12.78 0.27 14 1.49 12.6 3.79 11.84 3.71 9.91 5.64" /><path d="M4.58,10.1A.42.42,0,0,1,4.29,10a.41.41,0,0,1,0-.58L8.06,5.64a.41.41,0,0,1,.58,0,.4.4,0,0,1,0,.57L4.87,10A.4.4,0,0,1,4.58,10.1Z"/><path d="M4.6,11.51a1.28,1.28,0,0,1-.92-.38l-.54-.54a1.3,1.3,0,0,1,0-1.83L7.42,4.48a1.34,1.34,0,0,1,1.83,0L9.79,5a1.28,1.28,0,0,1,.38.91,1.32,1.32,0,0,1-.38.92L5.51,11.13h0A1.25,1.25,0,0,1,4.6,11.51ZM8.33,4.92A.44.44,0,0,0,8,5.06L3.72,9.34a.46.46,0,0,0,0,.67l.54.54a.48.48,0,0,0,.67,0h0L9.21,6.28a.48.48,0,0,0,0-.68l-.54-.54A.48.48,0,0,0,8.33,4.92Z" /></svg>
