<svg xmlns="http://www.w3.org/2000/svg" width="100%" height="100%" viewBox="0 0 14.87 14"><title>4</title><path d="M14.74,12.63,8.27.5A.92.92,0,0,0,6.63.5L.13,12.63a.85.85,0,0,0,0,.92A.89.89,0,0,0,1,14h13a.91.91,0,0,0,.81-.45.85.85,0,0,0,0-.92ZM1,13.07,7.45.93l6.47,12.14ZM6.52,5.63A.89.89,0,0,1,6.79,5a.9.9,0,0,1,.66-.26A.92.92,0,0,1,8.11,5a.89.89,0,0,1,.27.67v2.8a.89.89,0,0,1-.27.65.9.9,0,0,1-.66.28.94.94,0,0,1-.93-.93V5.63Zm.27,4.91a.91.91,0,0,1,.66-.27.93.93,0,1,1,0,1.86.91.91,0,0,1-.66-.27.94.94,0,0,1,0-1.32Z" style="fill-rule:evenodd"/></svg>
