<svg xmlns="http://www.w3.org/2000/svg" width="100%" height="100%" viewBox="0 0 11.73 16"><title>6</title><path d="M9,.74v5.6a.74.74,0,0,0,1.48,0V.74A.74.74,0,0,0,9,.74Z" style="fill-rule:evenodd"/><path d="M2.71,6.34V.74a.74.74,0,1,0-1.47,0v5.6a.74.74,0,1,0,1.47,0Z" style="fill-rule:evenodd"/><path d="M6.33,15.81l5.2-5.2a.66.66,0,0,0,0-.94.65.65,0,0,0-.93,0l-4,4V2.58a.74.74,0,1,0-1.48,0V13.66l-4-4a.66.66,0,0,0-.94,0,.68.68,0,0,0,0,.94l5.2,5.2A.68.68,0,0,0,6.33,15.81Z" style="fill-rule:evenodd"/></svg>
