<svg xmlns="http://www.w3.org/2000/svg" width="100%" height="100%" viewBox="0 0 14 14"><title>7</title><path d="M.88,13.14H14V14H0V0H.88V2.62h.88V3.5H.88V5.25h.88v.88H.88V7.89h.88v.86H.88v1.76h.88v.87H.88ZM2.62,9.2A1.32,1.32,0,0,1,3.94,7.89a1.67,1.67,0,0,1,.39.05L5.47,6.42a1.31,1.31,0,0,1,1.09-2A1.33,1.33,0,0,1,7.89,5.7a1.59,1.59,0,0,1-.07.38L9.34,7.23A1.33,1.33,0,0,1,10.06,7a.58.58,0,0,1,.18,0L11.76,4a1.26,1.26,0,0,1-.38-.9,1.31,1.31,0,1,1,1.31,1.31h-.16L11,7.41a1.29,1.29,0,0,1,.37.91,1.32,1.32,0,0,1-2.63,0,1.87,1.87,0,0,1,.07-.4L7.3,6.78A1.32,1.32,0,0,1,6.56,7a1.69,1.69,0,0,1-.38-.07L5,8.46a1.33,1.33,0,0,1,.21.74,1.32,1.32,0,0,1-2.63,0Zm9.64-6.13a.43.43,0,0,0,.43.43.44.44,0,0,0,.45-.43.46.46,0,0,0-.45-.45.44.44,0,0,0-.43.45ZM9.63,8.32a.43.43,0,0,0,.43.43.43.43,0,1,0,0-.86.43.43,0,0,0-.43.43ZM6.13,5.7a.43.43,0,0,0,.43.43A.44.44,0,0,0,7,5.7a.45.45,0,0,0-.45-.45.44.44,0,0,0-.43.45ZM3.5,9.2a.43.43,0,0,0,.44.43.44.44,0,0,0,.44-.43.45.45,0,0,0-.44-.45.45.45,0,0,0-.44.45Z"/></svg>
