<?xml version="1.0" encoding="utf-8"?>
<!-- Generator: Adobe Illustrator 19.0.0, SVG Export Plug-In . SVG Version: 6.00 Build 0)  -->
<svg version="1.1" id="Слой_1" xmlns="http://www.w3.org/2000/svg" xmlns:xlink="http://www.w3.org/1999/xlink" x="0px" y="0px"
	 viewBox="0 0 595.3 841.9" style="enable-background:new 0 0 595.3 841.9;" xml:space="preserve">
<style type="text/css">
	.st0{fill:#F5A422;}
	.st1{fill:none;stroke:#F5A422;stroke-width:5;stroke-miterlimit:10;}
</style>
<g id="XMLID_9_">
	<g id="XMLID_53_">
		<polygon id="XMLID_58_" class="st0" points="184.6,442.5 184.6,407.8 202,407.8 202,390.5 184.6,390.5 184.6,355.8 202,355.8 
			202,338.5 184.6,338.5 184.6,286.4 167.3,286.4 167.3,563.9 184.6,563.9 184.6,546.6 184.6,511.9 202,511.9 202,494.5 
			184.6,494.5 184.6,459.8 428.1,459.8 428.1,442.5 		"/>
		<polygon id="XMLID_57_" class="st0" points="245.5,401 262.8,401 262.8,424.2 280.1,424.2 280.1,383.7 228.2,383.7 228.2,424.2 
			245.5,424.2 		"/>
		<polygon id="XMLID_56_" class="st0" points="297.5,530.4 280.1,530.4 280.1,474.3 262.9,474.3 262.9,547.8 314.8,547.8 
			314.8,474.3 297.5,474.3 		"/>
		<polygon id="XMLID_55_" class="st0" points="314.8,348.8 332,348.8 332,424.2 349.4,424.2 349.4,331.4 297.4,331.4 297.4,424.2 
			314.8,424.2 		"/>
		<polygon id="XMLID_54_" class="st0" points="366.6,505.8 349.4,505.8 349.4,474.3 332,474.3 332,523.1 384,523.1 384,474.3 
			366.6,474.3 		"/>
	</g>
</g>
<path id="XMLID_1_" class="st1" d="M500.1,720H95.3C59.2,679.3,39,656.5,2.8,616V234.4c36.1-40.7,56.4-63.4,92.5-104H500
	c36.1,40.7,56.4,63.4,92.5,104v381.5C556.4,656.5,536.2,679.3,500.1,720z"/>
</svg>
