<?xml version="1.0" encoding="utf-8"?>
<!-- Generator: Adobe Illustrator 19.0.0, SVG Export Plug-In . SVG Version: 6.00 Build 0)  -->
<svg version="1.1" id="Слой_1" xmlns="http://www.w3.org/2000/svg" xmlns:xlink="http://www.w3.org/1999/xlink" x="0px" y="0px"
	 viewBox="0 0 595.3 841.9" style="enable-background:new 0 0 595.3 841.9;" xml:space="preserve">
<style type="text/css">
	.st0{fill:#F5A422;}
	.st1{fill:none;stroke:#F5A422;stroke-width:5;stroke-miterlimit:10;}
</style>
<g id="XMLID_8_">
	<g id="XMLID_53_">
		<path id="XMLID_56_" class="st0" d="M268.4,461c0,8.1,0,15.9,0,23.6c0,4.6,3.5,8.1,7.9,8.1s7.9-3.4,7.9-8.1c0.1-6.6,0-13.2,0-19.8
			c0-1.2,0-2.4,0-3.8c1.6,0,2.9,0,4.2,0c11.6,0,23.1,0,34.7-0.1c1.7,0,3.5-0.4,4.9-1.2c3-1.6,4.4-5.3,3.5-8.5c-0.9-3.6-3.9-6-7.8-6
			c-11,0-22,0-33,0c-2.1,0-4.3,0-6.5,0c0-5.3,0-10.4,0-15.9c1,0,1.8,0,2.6,0c8.5,0,17,0.1,25.5,0c18-0.2,35.1-17.4,35.2-35.4
			c0.1-18.4-17-35.8-35.4-36c-11.6-0.1-23.3,0-35,0c-5.9,0-9,3.1-9,9c0,14.6,0,29.2,0,43.9c0,0.9,0,1.7,0,2.7c-5.5,0-10.6,0-15.7,0
			c-4.6,0.1-8.1,3.5-8,8c0,4.4,3.5,7.8,8.1,7.9c1.2,0,2.5,0,3.7,0c3.9,0,7.9,0,11.8,0c0,5.4,0,10.5,0,15.9c-0.9,0-1.7,0-2.5,0
			c-4.4,0-8.8-0.1-13.1,0c-4.6,0.1-8.1,3.6-8,8c0,4.3,3.5,7.7,7.9,7.8c3.1,0.1,6.3,0,9.4,0C264.1,461,266.2,461,268.4,461z
			 M284.4,373.7c6.1,0,12,0,17.9,0c4.2,0,8.5-0.3,12.6,0.2c10.5,1.2,17,9,16.9,19.7s-6.6,18.8-17.2,19.5c-10,0.7-20.1,0.1-30.3,0.1
			C284.4,400.2,284.4,387.2,284.4,373.7z"/>
		<path id="XMLID_55_" class="st0" d="M309.4,301.8c1.9-1.6,3.1-3.9,3.2-6.3c0.1-2.3-0.6-4.6-2.2-6.3c-1.5-1.7-3.7-2.8-6-2.9
			c-47.3-2.5-92.1,18.4-119.9,56.1c-22.3,30-31.2,67.5-25.5,104.2l-11.2,3.9c-1.9,0.7-3.3,2.2-3.7,4.2s0.3,4,1.8,5.3l30.4,26.4
			c1,0.9,2.3,1.4,3.6,1.4c0.6,0,1.3-0.1,1.9-0.3c1.9-0.7,3.3-2.2,3.7-4.2l7.6-39.5c0.4-2-0.3-4-1.8-5.3s-3.6-1.8-5.5-1.1l-10.1,3.5
			c-4-31.1,4-62.7,22.9-88c24.3-32.9,63.4-51.2,104.7-49.1C305.6,303.9,307.6,303.2,309.4,301.8z"/>
		<path id="XMLID_54_" class="st0" d="M449.8,409.4l-26.7-29.7c-1.3-1.5-3.3-2.2-5.4-1.8c-2,0.4-3.6,1.8-4.2,3.8l-12.4,38
			c-0.6,1.9-0.2,4,1.2,5.6c1.1,1.2,2.6,1.9,4.2,1.9c0.4,0,0.8,0,1.2-0.1l10.4-2.2c0.1,26.1-8.3,51.7-24,72.8
			c-28.4,38.4-77,56.6-123.5,46.6c-2.2-0.5-4.6-0.1-6.5,1.2c-2,1.3-3.3,3.2-3.8,5.5s-0.1,4.6,1.2,6.6s3.2,3.3,5.5,3.8
			c9.6,2.1,19.4,3.1,29.3,3.1c44,0,85.9-21.1,111.9-56.3c18.7-25.2,28.1-55.7,27.2-86.7l11.5-2.4c2-0.4,3.6-1.8,4.2-3.8
			C451.6,413,451.2,410.9,449.8,409.4z"/>
	</g>
</g>
<path id="XMLID_1_" class="st1" d="M500.1,720H95.4C59.2,679.3,39,656.5,2.8,616V234.4c36.1-40.7,56.4-63.5,92.5-104H500
	c36.1,40.7,56.4,63.5,92.5,104V616C556.5,656.5,536.2,679.3,500.1,720z"/>
</svg>
