<?xml version="1.0" encoding="utf-8"?>
<!-- Generator: Adobe Illustrator 19.0.0, SVG Export Plug-In . SVG Version: 6.00 Build 0)  -->
<svg version="1.1" id="Слой_1" xmlns="http://www.w3.org/2000/svg" xmlns:xlink="http://www.w3.org/1999/xlink" x="0px" y="0px"
	 viewBox="0 0 595.3 841.9" style="enable-background:new 0 0 595.3 841.9;" xml:space="preserve">
<style type="text/css">
	.st0{fill:#8D9AB3;}
	.st1{fill:none;stroke:#636680;stroke-width:5;stroke-miterlimit:10;}
</style>
<path id="XMLID_6_" class="st0" d="M322.4,326.9l-8.4,66.5l62.8,1.6l-135,185.6l30.7-126.9l-53.8,3.7l110.9-187.7L322.4,326.9
	L322.4,326.9z M310.5,325.4l-70.2,118.8l47.4-3.3l-20.4,84.3l86.3-118.8l-53.3-1.4L310.5,325.4z"/>
<path id="XMLID_1_" class="st1" d="M500,720H95.3c-36.2-40.6-56.4-63.4-92.5-104V234.4c36.1-40.6,56.4-63.4,92.5-104H500
	c36.1,40.6,56.4,63.4,92.5,104v381.5C556.4,656.6,536,679.4,500,720z"/>
</svg>
