<svg xmlns="http://www.w3.org/2000/svg" viewBox="0 0 21.54 12.51"><defs>
<style>.a4d182d0-b676-414d-b4ae-d69759ad88c5{fill:#1b1f2c;stroke:#5b607d;stroke-miterlimit:10;stroke-width:0.5px;opacity:0.5;}.a1ea6938-8d1c-4e9b-970f-5f8af8bfd62e{fill:#5f6580;}
</style></defs><title>left-pie-left-middle-button</title><g id="e23022c9-f073-4bd6-8742-2a5d48cb8757" data-name="Слой 2"><g id="ba22f7bf-2fbc-4a55-bfba-56197c9c42f8" data-name="Layer 1"><rect class="a4d182d0-b676-414d-b4ae-d69759ad88c5" x="0.25" y="0.25" width="21.04" height="12.01"/><path class="a1ea6938-8d1c-4e9b-970f-5f8af8bfd62e" d="M7.2,11.32A2,2,0,0,1,5.79,7.89L11.08,2.6l2.84,2.84-5.3,5.29a2,2,0,0,1-1.42.59m3.88-7.88L6.2,8.31a1.41,1.41,0,1,0,2,2l4.88-4.87Z"/><path class="a1ea6938-8d1c-4e9b-970f-5f8af8bfd62e" d="M8.21,6.75,6.34,8.63a1,1,0,0,0,0,1.47l.08.08a1,1,0,0,0,1.47,0l4.05-4ZM8,8.94a.57.57,0,1,1,.8-.8.57.57,0,0,1-.8.8m.52-1.31a.42.42,0,0,1,0-.6.42.42,0,1,1,0,.6"/></g></g></svg>