<svg xmlns="http://www.w3.org/2000/svg" xmlns:xlink="http://www.w3.org/1999/xlink" viewBox="0 0 210 210"><defs><style>.b275e704-9914-4302-8a27-91604260450a{opacity:0.21;fill:url(#e9f352fc-574c-4093-8bac-ba3a596205ef);}</style><linearGradient id="e9f352fc-574c-4093-8bac-ba3a596205ef" y1="105" x2="210" y2="105" gradientUnits="userSpaceOnUse"><stop offset="0" stop-color="#6ba6f1"/><stop offset="1" stop-color="#6ba6f1" stop-opacity="0.45"/></linearGradient></defs><title>Ресурс 9@1х</title><g id="b6a851ff-d5ca-4d8e-a995-8db653479238" data-name="Слой 2"><g id="b98a45a9-23a0-4367-9090-ccf93d9556be" data-name="Слой 1"><path class="b275e704-9914-4302-8a27-91604260450a" d="M0,0V210H210V0ZM105.56,163.43a63.47,63.47,0,0,1-49.22-23.34c0-.58,0-1.15.09-1.71.41-6.07,2.61-11.23,8-14.52a54.54,54.54,0,0,1,6.93-3.33c3.59-1.55,7.31-2.83,10.85-4.52a21.87,21.87,0,0,0,9.49-8.61,2.59,2.59,0,0,0-.12-3.1,53.92,53.92,0,0,1-4.28-8.22c-1.58-4-2-8.36-4.47-12.06a6.16,6.16,0,0,1-.73-3.51c.15-2.37.78-4.71.89-7.09s-.21-4.79-.21-7.19a6.77,6.77,0,0,1,.68-2.52c.66-1.54,1.43-3,2.19-4.62l-1.54-.45c1.4-1.84,2.64-3.6,4-5.26,4.18-5.05,9.42-7.54,16.09-6.6a10.25,10.25,0,0,0,2.82,0,16.38,16.38,0,0,1,14.72,5.18c2,2,3.55,4.4,5.37,6.69l-1.71.49c1.77,3.19,3.61,6.18,3.08,9.86a13.35,13.35,0,0,0,.22,6,13.88,13.88,0,0,1-2.15,12.56,6.22,6.22,0,0,0-1,2.58,30.32,30.32,0,0,1-6.8,15.31,1.65,1.65,0,0,0,0,2.49,52.76,52.76,0,0,0,5.89,6.06c4.38,3.42,9.71,5,14.87,6.82,9.85,3.5,14.05,9.42,14.18,19.84,0,.26,0,.51,0,.78A63.42,63.42,0,0,1,105.56,163.43Z"/></g></g></svg>