<svg xmlns="http://www.w3.org/2000/svg" xmlns:xlink="http://www.w3.org/1999/xlink" viewBox="0 0 93.09 76.71"><defs><style>.b9d6dcaf-f321-4436-a837-e41eb2ced53d{opacity:0.21;fill:url(#bb571feb-12e3-45eb-a31f-0ff7ef868cd4);}</style><linearGradient id="bb571feb-12e3-45eb-a31f-0ff7ef868cd4" y1="38.35" x2="93.09" y2="38.35" gradientUnits="userSpaceOnUse"><stop offset="0" stop-color="#6ba6f1"/><stop offset="1" stop-color="#6ba6f1" stop-opacity="0.45"/></linearGradient></defs><title>Ресурс 4@1х</title><g id="ac6a177d-19c9-43d0-a3b0-0f7204b7e99c" data-name="Слой 2"><g id="a563b480-fd07-4fdb-a892-42b6541e8b6c" data-name="Слой 1"><path class="b9d6dcaf-f321-4436-a837-e41eb2ced53d" d="M81.84,76.71c0-.8-.08-1.32-.09-1.85-.09-7.64-3.17-12-10.38-14.53-3.78-1.35-7.68-2.49-10.89-5a38.61,38.61,0,0,1-4.32-4.44,1.2,1.2,0,0,1,0-1.82,22.23,22.23,0,0,0,5-11.21A4.45,4.45,0,0,1,61.91,36a10.17,10.17,0,0,0,1.58-9.2,9.69,9.69,0,0,1-.17-4.4c.39-2.7-1-4.89-2.25-7.23l1.25-.35c-1.33-1.68-2.51-3.41-3.93-4.9a12,12,0,0,0-10.78-3.8,7.18,7.18,0,0,1-2.07,0C40.66,5.42,36.82,7.25,33.76,11c-1,1.21-1.92,2.5-2.95,3.85l1.13.33c-.55,1.16-1.12,2.25-1.6,3.38a5,5,0,0,0-.5,1.85c0,1.75.24,3.52.16,5.27s-.55,3.45-.66,5.19a4.45,4.45,0,0,0,.54,2.56c1.79,2.72,2.11,5.93,3.27,8.84a39.07,39.07,0,0,0,3.13,6,1.9,1.9,0,0,1,.09,2.27,16,16,0,0,1-6.95,6.31c-2.59,1.23-5.31,2.17-8,3.31a38.76,38.76,0,0,0-5.07,2.44C12.47,65,10.86,68.75,10.56,73.2a11.15,11.15,0,0,1-.22,2.26C1.39,64.19-1.74,51.43.91,37.32,4.5,18.14,20.78,3,40.23.41a46.44,46.44,0,0,1,41.61,76.3Z"/></g></g></svg>