<svg xmlns="http://www.w3.org/2000/svg" viewBox="0 0 93.09 76.71"><defs><style>.eecc1fa8-94ba-4039-a932-364388209c6d{fill:#fff;opacity:0.1;}</style></defs><title>Ресурс 5@1х</title><g id="f7e8c716-e38c-4147-aa0f-4e87a0ba7f36" data-name="Слой 2"><g id="e382faf1-e80a-490a-8231-46171f2deb07" data-name="Слой 1"><path class="eecc1fa8-94ba-4039-a932-364388209c6d" d="M81.84,76.71c0-.8-.08-1.32-.09-1.85-.09-7.64-3.17-12-10.38-14.53-3.78-1.35-7.68-2.49-10.89-5a38.61,38.61,0,0,1-4.32-4.44,1.2,1.2,0,0,1,0-1.82,22.23,22.23,0,0,0,5-11.21A4.45,4.45,0,0,1,61.91,36a10.17,10.17,0,0,0,1.58-9.2,9.69,9.69,0,0,1-.17-4.4c.39-2.7-1-4.89-2.25-7.23l1.25-.35c-1.33-1.68-2.51-3.41-3.93-4.9a12,12,0,0,0-10.78-3.8,7.18,7.18,0,0,1-2.07,0C40.66,5.42,36.82,7.25,33.76,11c-1,1.21-1.92,2.5-2.95,3.85l1.13.33c-.55,1.16-1.12,2.25-1.6,3.38a5,5,0,0,0-.5,1.85c0,1.75.24,3.52.16,5.27s-.55,3.45-.66,5.19a4.45,4.45,0,0,0,.54,2.56c1.79,2.72,2.11,5.93,3.27,8.84a39.07,39.07,0,0,0,3.13,6,1.9,1.9,0,0,1,.09,2.27,16,16,0,0,1-6.95,6.31c-2.59,1.23-5.31,2.17-8,3.31a38.76,38.76,0,0,0-5.07,2.44C12.47,65,10.86,68.75,10.56,73.2a11.15,11.15,0,0,1-.22,2.26C1.39,64.19-1.74,51.43.91,37.32,4.5,18.14,20.78,3,40.23.41a46.44,46.44,0,0,1,41.61,76.3Z"/></g></g></svg>