<svg xmlns="http://www.w3.org/2000/svg" viewBox="0 0 24.66 16.63"><defs><style>.cls-1{fill:#8e97af;}</style></defs><title>icon_group</title><g id="Слой_2" data-name="Слой 2"><g id="Слой_1-2" data-name="Слой 1"><path class="cls-1" d="M17.68,14.21h7c0-4.19-.83-6.74-3.61-7.38a3.49,3.49,0,1,0-2,0A4,4,0,0,0,16,9.75a5.37,5.37,0,0,1,1,1.51A9.73,9.73,0,0,1,17.68,14.21Z"/><path class="cls-1" d="M8.7,9.75A4,4,0,0,0,5.64,6.83a3.49,3.49,0,1,0-2,0C.83,7.47,0,10,0,14.21H7a9.73,9.73,0,0,1,.72-3A5.37,5.37,0,0,1,8.7,9.75Z"/><path class="cls-1" d="M13.34,9.24a3.49,3.49,0,1,0-2,0c-2.78.65-3.61,3.2-3.61,7.39H17C17,12.44,16.12,9.89,13.34,9.24Z"/></g></g></svg>