<svg xmlns="http://www.w3.org/2000/svg" viewBox="0 0 25.5 25.5"><title>Ресурс 1ldpi</title><circle cx="12.75" cy="12.75" r="12" style="fill:#00aaf7;stroke:#1b1e27;stroke-miterlimit:10;stroke-width:1.5px"/><path d="M13,6.63l1.84,3.73a.23.23,0,0,0,.18.13l4.12.6a.24.24,0,0,1,.13.41l-3,2.91a.26.26,0,0,0-.07.21l.71,4.1a.25.25,0,0,1-.36.26L12.86,17a.22.22,0,0,0-.22,0L9,19a.25.25,0,0,1-.36-.26l.71-4.1a.26.26,0,0,0-.07-.21l-3-2.91a.24.24,0,0,1,.13-.41l4.12-.6a.23.23,0,0,0,.18-.13l1.84-3.73A.25.25,0,0,1,13,6.63Z" style="fill:#fff"/></svg>