<svg xmlns="http://www.w3.org/2000/svg" xmlns:xlink="http://www.w3.org/1999/xlink" viewBox="0 0 748.5 297"><defs><style>.cls-1,.cls-3,.cls-4,.cls-5{fill:none;stroke-miterlimit:10;}.cls-1{stroke-width:11px;stroke-dasharray:2 2;stroke:url(#Безымянный_градиент_9);}.cls-2{fill:#fff;}.cls-3,.cls-5{stroke:#fff;}.cls-3,.cls-4,.cls-5{stroke-width:0.75px;}.cls-3,.cls-4{fill-rule:evenodd;}.cls-4{stroke:#fcfcfc;}.cls-6{fill:url(#Безымянный_градиент_7);}.cls-7{fill:url(#Безымянный_градиент_6);}.cls-8{fill:url(#Безымянный_градиент_4);}.cls-9{fill:url(#Безымянный_градиент_4-2);}.cls-10,.cls-11{fill:#6ba6f1;}.cls-10{opacity:0.12;}.cls-11{opacity:0.09;}</style><linearGradient id="Безымянный_градиент_9" y1="148.5" x2="297" y2="148.5" gradientUnits="userSpaceOnUse"><stop offset="0" stop-color="#3fa9f5"/><stop offset="0.01" stop-color="#3da3ec"/><stop offset="0.11" stop-color="#337bb1"/><stop offset="0.21" stop-color="#2a5a7f"/><stop offset="0.3" stop-color="#244059"/><stop offset="0.39" stop-color="#1f2d3e"/><stop offset="0.46" stop-color="#1c222d"/><stop offset="0.51" stop-color="#1b1e27"/><stop offset="0.6" stop-color="#1c202a"/><stop offset="0.67" stop-color="#1d2735"/><stop offset="0.73" stop-color="#203346"/><stop offset="0.79" stop-color="#25435f"/><stop offset="0.85" stop-color="#2a597e"/><stop offset="0.91" stop-color="#3173a5"/><stop offset="0.96" stop-color="#3991d2"/><stop offset="1" stop-color="#3fa9f5"/></linearGradient><linearGradient id="Безымянный_градиент_7" x1="322.17" y1="43" x2="748.5" y2="43" gradientUnits="userSpaceOnUse"><stop offset="0" stop-color="#3fa9f5" stop-opacity="0.6"/><stop offset="0.1" stop-color="#3992d3" stop-opacity="0.52"/><stop offset="0.31" stop-color="#2a587e" stop-opacity="0.31"/><stop offset="0.5" stop-color="#1b1e27" stop-opacity="0.1"/><stop offset="0.6" stop-color="#1c212c" stop-opacity="0.11"/><stop offset="0.69" stop-color="#1e2b3a" stop-opacity="0.15"/><stop offset="0.76" stop-color="#233b52" stop-opacity="0.2"/><stop offset="0.83" stop-color="#295274" stop-opacity="0.29"/><stop offset="0.9" stop-color="#3070a0" stop-opacity="0.39"/><stop offset="0.97" stop-color="#3a94d6" stop-opacity="0.52"/><stop offset="1" stop-color="#3fa9f5" stop-opacity="0.6"/></linearGradient><linearGradient id="Безымянный_градиент_6" x1="317.45" y1="260" x2="748.5" y2="260" gradientUnits="userSpaceOnUse"><stop offset="0" stop-color="#3fa9f5" stop-opacity="0.6"/><stop offset="0.06" stop-color="#3da1e9" stop-opacity="0.57"/><stop offset="0.17" stop-color="#378ac7" stop-opacity="0.49"/><stop offset="0.3" stop-color="#2d6591" stop-opacity="0.36"/><stop offset="0.45" stop-color="#203346" stop-opacity="0.17"/><stop offset="0.5" stop-color="#1b1e27" stop-opacity="0.1"/><stop offset="0.57" stop-color="#1c232f" stop-opacity="0.12"/><stop offset="0.66" stop-color="#203245" stop-opacity="0.17"/><stop offset="0.75" stop-color="#274b69" stop-opacity="0.26"/><stop offset="0.86" stop-color="#2f6d9c" stop-opacity="0.38"/><stop offset="0.96" stop-color="#3b99dd" stop-opacity="0.54"/><stop offset="1" stop-color="#3fa9f5" stop-opacity="0.6"/></linearGradient><linearGradient id="Безымянный_градиент_4" x1="358.97" y1="116" x2="748.5" y2="116" gradientUnits="userSpaceOnUse"><stop offset="0" stop-color="#3fa9f5" stop-opacity="0.8"/><stop offset="0.09" stop-color="#3685bf" stop-opacity="0.62"/><stop offset="0.19" stop-color="#2c6089" stop-opacity="0.43"/><stop offset="0.28" stop-color="#25445f" stop-opacity="0.29"/><stop offset="0.37" stop-color="#1f2f40" stop-opacity="0.19"/><stop offset="0.45" stop-color="#1c222e" stop-opacity="0.12"/><stop offset="0.5" stop-color="#1b1e27" stop-opacity="0.1"/><stop offset="0.57" stop-color="#1c232f" stop-opacity="0.12"/><stop offset="0.66" stop-color="#203245" stop-opacity="0.17"/><stop offset="0.75" stop-color="#274b69" stop-opacity="0.26"/><stop offset="0.86" stop-color="#2f6d9c" stop-opacity="0.38"/><stop offset="0.96" stop-color="#3b99dd" stop-opacity="0.54"/><stop offset="1" stop-color="#3fa9f5" stop-opacity="0.6"/></linearGradient><linearGradient id="Безымянный_градиент_4-2" x1="356.8" y1="188" x2="748.5" y2="188" xlink:href="#Безымянный_градиент_4"/></defs><title>worker-card</title><g id="Слой_2" data-name="Слой 2"><g id="Слой_1-2" data-name="Слой 1"><circle class="cls-1" cx="148.5" cy="148.5" r="143"/><path class="cls-2" d="M323.54,120.79l-6-4.5-6,4.5Zm-5.8-5.23,1.34,1,4.9-3.31v-.88c0-.42-.24-.58-.63-.86l-5.82-4-5.83,4c-.39.28-.63.44-.63.86v.88l4.9,3.31,1.34-1a.36.36,0,0,1,.43,0Zm1.94,1.46,4.3,3.21v-6.11l-4.3,2.9Zm-8.61,3.21,4.3-3.21-4.3-2.9v6.11Zm13.62-7.85v8.41a.71.71,0,0,1-.71.71H311.07a.71.71,0,0,1-.71-.71v-8.41c0-.79.35-1,.94-1.44l6-4.19a.36.36,0,0,1,.41,0l6,4.18c.58.41.93.65.93,1.44Z"/><path class="cls-3" d="M288.46,35.25a45,45,0,0,0-7.21,12.48,2,2,0,0,0,1.16,2.61l2.72,1.06a.93.93,0,0,0,1.21-.52l1.11-2.74a.9.9,0,0,0,0-.72.93.93,0,0,0-.52-.51l-1.35-.52a.36.36,0,0,1-.21-.21.35.35,0,0,1,0-.3,40.33,40.33,0,0,1,3.57-6.13.36.36,0,0,1,.25-.16.34.34,0,0,1,.29.08l1.11.89a.92.92,0,0,0,.7.2.92.92,0,0,0,.63-.35l1.82-2.33a.94.94,0,0,0-.16-1.31L291.31,35A2,2,0,0,0,288.46,35.25Z"/><path class="cls-4" d="M295.89,254.64a.71.71,0,0,0-.69-.51h-4.57l-1.41-4.35a.68.68,0,0,0-.1-.21.71.71,0,0,0-.59-.3h0a.73.73,0,0,0-.7.51l-1.4,4.35h-4.58a.71.71,0,0,0-.69.5.72.72,0,0,0,.26.82l3.71,2.68-1.42,4.35a.7.7,0,0,0,.26.81.72.72,0,0,0,.86,0l3.69-2.69,3.7,2.69a.71.71,0,0,0,.85,0,.72.72,0,0,0,.27-.82l-1.42-4.35,3.71-2.68a.72.72,0,0,0,.3-.58A.59.59,0,0,0,295.89,254.64Z"/><path class="cls-5" d="M318.13,188.13a2.1,2.1,0,1,0-1.21,0c-1.67.38-2.17,1.92-2.17,4.43h5.55C320.3,190.05,319.8,188.51,318.13,188.13Z"/><path class="cls-5" d="M320.74,191.11h4.19c0-2.52-.5-4.05-2.17-4.44a2.1,2.1,0,1,0-1.21,0,2.43,2.43,0,0,0-1.84,1.76,3.27,3.27,0,0,1,.6.91A6,6,0,0,1,320.74,191.11Z"/><path class="cls-5" d="M315.35,188.43a2.46,2.46,0,0,0-1.84-1.76,2.1,2.1,0,1,0-1.22,0c-1.67.39-2.17,1.92-2.17,4.44h4.19a6,6,0,0,1,.43-1.77A3.09,3.09,0,0,1,315.35,188.43Z"/><path class="cls-6" d="M742.5,12.5H322.17a224.53,224.53,0,0,1,32.93,61H742.5l6-6v-49Z"/><path class="cls-7" d="M742.5,229.5H352.89a224.89,224.89,0,0,1-35.44,61H742.5l6-6v-49Z"/><path class="cls-8" d="M742.5,85.5H359a225.25,225.25,0,0,1,8.93,61H742.5l6-6v-49Z"/><path class="cls-9" d="M742.5,157.5H367.73a224.49,224.49,0,0,1-10.93,61H742.5l6-6v-49Z"/><path class="cls-10" d="M344.69,73.5h10.69a219.82,219.82,0,0,0-33.94-61H308.5A209.69,209.69,0,0,1,344.69,73.5Z"/><path class="cls-10" d="M342.3,229.5a210.14,210.14,0,0,1-39.1,61h13.32a219.72,219.72,0,0,0,36.58-61Z"/><path class="cls-10" d="M358.3,157.5a209.27,209.27,0,0,1-11.77,61h10.59a219,219,0,0,0,11.18-61Z"/><path class="cls-10" d="M348.88,85.5a209.42,209.42,0,0,1,9.59,61h10a219.73,219.73,0,0,0-9.14-61Z"/><path class="cls-11" d="M330.69,73.5h10.69a219.82,219.82,0,0,0-33.94-61H294.5A209.69,209.69,0,0,1,330.69,73.5Z"/><path class="cls-11" d="M328.3,229.5a210.14,210.14,0,0,1-39.1,61h13.32a219.72,219.72,0,0,0,36.58-61Z"/><path class="cls-11" d="M344.3,157.5a209.27,209.27,0,0,1-11.77,61h10.59a219,219,0,0,0,11.18-61Z"/><path class="cls-11" d="M334.88,85.5a209.42,209.42,0,0,1,9.59,61h10a219.73,219.73,0,0,0-9.14-61Z"/></g></g></svg>