<svg width="325" height="306" viewBox="0 0 325 306" xmlns="http://www.w3.org/2000/svg">
<path opacity="0.25" d="M122.887 300.13C147.441 306.727 173.256 307.072 197.977 301.133C222.699 295.194 245.54 283.161 264.417 266.13L275.157 269.13C291.416 253.26 304.165 234.156 312.579 213.052C320.994 191.947 324.887 169.313 324.007 146.61L314.347 141.21C312.699 119.999 306.626 99.3692 296.517 80.6497C297.317 79.2397 298.847 76.4896 299.457 75.1996C283.392 46.7842 258.887 24.0686 229.337 10.1996C228.337 10.8896 226.047 12.7396 224.707 13.8196C201.712 3.53371 176.528 -0.901424 151.403 0.909729C126.277 2.72088 101.99 10.722 80.7072 24.1996C79.2372 23.5096 76.3771 22.1997 75.0471 21.6897C49.6574 38.7687 29.7973 62.8789 17.8972 91.0696L12.5471 91.4597C9.96579 97.8011 7.78178 104.297 6.00728 110.91C-1.80359 140.027 -1.3351 170.745 7.36031 199.611C16.0557 228.476 32.633 254.342 55.2272 274.3L66.2272 271.3C82.8589 284.801 102.158 294.633 122.857 300.15L122.887 300.13ZM201.037 8.37964C229.623 16.0391 255.295 32.003 274.807 54.2527C294.32 76.5023 306.797 104.038 310.66 133.379C314.523 162.72 309.599 192.547 296.51 219.089C283.422 245.631 262.756 267.696 237.128 282.493C211.499 297.29 182.058 304.156 152.528 302.221C122.997 300.286 94.7034 289.638 71.2246 271.623C47.7457 253.608 30.1363 229.036 20.6228 201.013C11.1092 172.99 10.119 142.775 17.7773 114.19C22.8601 95.2038 31.6335 77.4053 43.5964 61.8109C55.5593 46.2165 70.4773 33.1316 87.4982 23.3039C104.519 13.4761 123.31 7.09802 142.796 4.53384C162.283 1.96967 182.083 3.26969 201.067 8.35965L201.037 8.37964Z"/>
</svg>
