<?xml version="1.0" encoding="utf-8"?>
<!-- Generator: Adobe Illustrator 23.0.3, SVG Export Plug-In . SVG Version: 6.00 Build 0)  -->
<svg version="1.1" id="Слой_1" xmlns="http://www.w3.org/2000/svg" xmlns:xlink="http://www.w3.org/1999/xlink" x="0px" y="0px"
	 viewBox="0 0 324 116.8" style="enable-background:new 0 0 324 116.8;" xml:space="preserve">
<style type="text/css">
	.st0{opacity:0.8;fill:url(#SVGID_1_);enable-background:new    ;}
	.st1{opacity:0.14;fill:#FFFFFF;enable-background:new    ;}
	.st2{font-family:'Tahoma';}
	.st3{font-size:4.3613px;}
	.st4{opacity:0.8;fill:url(#SVGID_2_);enable-background:new    ;}
	.st5{opacity:0.8;fill:url(#SVGID_3_);enable-background:new    ;}
	.st6{font-size:3.271px;}
	.st7{fill:none;stroke:url(#SVGID_4_);stroke-width:2;stroke-miterlimit:10;stroke-dasharray:2.007,2.007;}
	.st8{fill:url(#SVGID_5_);}
	.st9{fill:#FFFFFF;}
	.st10{fill:#F6FDFE;}
	.st11{fill:none;stroke:url(#SVGID_6_);stroke-width:0.5;stroke-miterlimit:10;}
	.st12{fill:none;stroke:url(#SVGID_7_);stroke-width:0.5;stroke-miterlimit:10;}
	.st13{fill:none;stroke:url(#SVGID_8_);stroke-width:0.5;stroke-miterlimit:10;}
	.st14{fill:none;stroke:url(#SVGID_9_);stroke-width:0.5;stroke-miterlimit:10;}
	.st15{fill:none;stroke:url(#SVGID_10_);stroke-width:0.5;stroke-miterlimit:10;}
	.st16{fill:none;stroke:#FFFFFF;stroke-width:0.25;stroke-miterlimit:10;}
	.st17{fill:none;stroke:#FCFCFC;stroke-width:0.25;stroke-miterlimit:10;}
	.st18{fill:url(#SVGID_11_);}
	.st19{fill:url(#SVGID_12_);}
	.st20{fill:url(#SVGID_13_);}
	.st21{fill:url(#SVGID_14_);}
	.st22{fill:#20222D;}
	.st23{opacity:0.12;fill:#6BA6F1;enable-background:new    ;}
	.st24{opacity:9.000000e-02;fill:#6BA6F1;enable-background:new    ;}
	.st25{clip-path:url(#SVGID_16_);}
	.st26{opacity:0.21;fill:url(#SVGID_17_);enable-background:new    ;}
</style>
<title>Proekt1</title>
<linearGradient id="SVGID_1_" gradientUnits="userSpaceOnUse" x1="7.33" y1="88.095" x2="124.7" y2="88.095" gradientTransform="matrix(1 0 0 -1 0 118)">
	<stop  offset="0" style="stop-color:#2C2F38"/>
	<stop  offset="8.000000e-02" style="stop-color:#282B34;stop-opacity:0.74"/>
	<stop  offset="0.21" style="stop-color:#22252E;stop-opacity:0.41"/>
	<stop  offset="0.37" style="stop-color:#1E212A;stop-opacity:0.18"/>
	<stop  offset="0.58" style="stop-color:#1C1F28;stop-opacity:4.000000e-02"/>
	<stop  offset="1" style="stop-color:#1B1E27;stop-opacity:0"/>
</linearGradient>
<path class="st0" d="M121.7,38.2H10.3l-3-3V24.6l3-3h111.4l3,3v10.6L121.7,38.2z"/>
<text transform="matrix(1 0 0 1 22.36 28.9301)" class="st1 st2 st3">Синявский Игорь Олегович</text>
<linearGradient id="SVGID_2_" gradientUnits="userSpaceOnUse" x1="7.38" y1="48.565" x2="125.3" y2="48.565" gradientTransform="matrix(1 0 0 -1 0 118)">
	<stop  offset="0" style="stop-color:#2C2F38"/>
	<stop  offset="8.000000e-02" style="stop-color:#282B34;stop-opacity:0.74"/>
	<stop  offset="0.21" style="stop-color:#22252E;stop-opacity:0.41"/>
	<stop  offset="0.37" style="stop-color:#1E212A;stop-opacity:0.18"/>
	<stop  offset="0.58" style="stop-color:#1C1F28;stop-opacity:4.000000e-02"/>
	<stop  offset="1" style="stop-color:#1B1E27;stop-opacity:0"/>
</linearGradient>
<path class="st4" d="M122.3,77.8H10.4l-3-3V64.1l3-3h111.9l3,3v10.6L122.3,77.8z"/>
<text transform="matrix(1 0 0 1 22.36 68.43)" class="st1 st2 st3">Костров Петр Андреевич</text>
<linearGradient id="SVGID_3_" gradientUnits="userSpaceOnUse" x1="7.41" y1="28.945" x2="124.75" y2="28.945" gradientTransform="matrix(1 0 0 -1 0 118)">
	<stop  offset="0" style="stop-color:#2C2F38"/>
	<stop  offset="8.000000e-02" style="stop-color:#282B34;stop-opacity:0.74"/>
	<stop  offset="0.21" style="stop-color:#22252E;stop-opacity:0.41"/>
	<stop  offset="0.37" style="stop-color:#1E212A;stop-opacity:0.18"/>
	<stop  offset="0.58" style="stop-color:#1C1F28;stop-opacity:4.000000e-02"/>
	<stop  offset="1" style="stop-color:#1B1E27;stop-opacity:0"/>
</linearGradient>
<path class="st5" d="M121.8,97.4H10.4l-3-3V83.7l3-3h111.3l3,3v10.6L121.8,97.4z"/>
<text transform="matrix(1 0 0 1 22.36 87.78)" class="st1 st2 st3">Белов Андрей Андреевич</text>
<text transform="matrix(1 0 0 1 22.36 34.1)" class="st1 st2 st6">Слесарь | КИПиА</text>
<text transform="matrix(1 0 0 1 22.36 72.79)" class="st1 st2 st6">Старший оператор | КИПиА</text>
<text transform="matrix(1 0 0 1 22.36 92.69)" class="st1 st2 st6">Оператор | КИПиА</text>
<linearGradient id="SVGID_4_" gradientUnits="userSpaceOnUse" x1="99.71" y1="59.33" x2="179.67" y2="59.33" gradientTransform="matrix(1 0 0 -1 0 118)">
	<stop  offset="0" style="stop-color:#3FA9F5"/>
	<stop  offset="1.000000e-02" style="stop-color:#3DA3EC"/>
	<stop  offset="0.11" style="stop-color:#337BB1"/>
	<stop  offset="0.21" style="stop-color:#2A5A7F"/>
	<stop  offset="0.3" style="stop-color:#244059"/>
	<stop  offset="0.39" style="stop-color:#1F2D3E"/>
	<stop  offset="0.46" style="stop-color:#1C222D"/>
	<stop  offset="0.51" style="stop-color:#1B1E27"/>
	<stop  offset="0.6" style="stop-color:#1C202A"/>
	<stop  offset="0.67" style="stop-color:#1D2735"/>
	<stop  offset="0.73" style="stop-color:#203346"/>
	<stop  offset="0.79" style="stop-color:#25435F"/>
	<stop  offset="0.85" style="stop-color:#2A597E"/>
	<stop  offset="0.91" style="stop-color:#3173A5"/>
	<stop  offset="0.96" style="stop-color:#3991D2"/>
	<stop  offset="1" style="stop-color:#3FA9F5"/>
</linearGradient>
<circle class="st7" cx="139.7" cy="58.7" r="39"/>
<linearGradient id="SVGID_5_" gradientUnits="userSpaceOnUse" x1="7.38" y1="68.195" x2="124.21" y2="68.195" gradientTransform="matrix(1 0 0 -1 0 118)">
	<stop  offset="0" style="stop-color:#3FA9F5;stop-opacity:0.6"/>
	<stop  offset="9.000000e-02" style="stop-color:#378AC7;stop-opacity:0.47"/>
	<stop  offset="0.21" style="stop-color:#2E6996;stop-opacity:0.32"/>
	<stop  offset="0.33" style="stop-color:#274E6E;stop-opacity:0.21"/>
	<stop  offset="0.47" style="stop-color:#22384E;stop-opacity:0.11"/>
	<stop  offset="0.61" style="stop-color:#1E2A38;stop-opacity:5.000000e-02"/>
	<stop  offset="0.77" style="stop-color:#1C212B;stop-opacity:1.000000e-02"/>
	<stop  offset="1" style="stop-color:#1B1E27;stop-opacity:0"/>
</linearGradient>
<path class="st8" d="M121.2,58.1H10.4l-3-3V44.5l3-3h110.8l3,3v10.6L121.2,58.1z"/>
<text transform="matrix(1 0 0 1 22.36 48.8)" class="st9 st2 st3">Иванов Иван Сергеевич</text>
<text transform="matrix(1 0 0 1 22.36 53.71)" class="st10 st2 st6">Старший оператор | КИПиА</text>
<linearGradient id="SVGID_6_" gradientUnits="userSpaceOnUse" x1="7.15" y1="68.275" x2="125.25" y2="68.275" gradientTransform="matrix(1 0 0 -1 0 118)">
	<stop  offset="0" style="stop-color:#3FA9F5"/>
	<stop  offset="6.000000e-02" style="stop-color:#3EA4ED;stop-opacity:0.96"/>
	<stop  offset="0.15" style="stop-color:#3A95D8;stop-opacity:0.86"/>
	<stop  offset="0.27" style="stop-color:#347EB5;stop-opacity:0.69"/>
	<stop  offset="0.4" style="stop-color:#2B5D84;stop-opacity:0.45"/>
	<stop  offset="0.56" style="stop-color:#213447;stop-opacity:0.16"/>
	<stop  offset="0.64" style="stop-color:#1B1E27;stop-opacity:0"/>
	<stop  offset="1" style="stop-color:#1B1E27;stop-opacity:0"/>
</linearGradient>
<path class="st11" d="M122,58H10.4l-3-3V44.5l3-3H122l3,3V55L122,58z"/>
<linearGradient id="SVGID_7_" gradientUnits="userSpaceOnUse" x1="-4028.71" y1="-7936.0103" x2="-3910.6001" y2="-7936.0103" gradientTransform="matrix(-1 0 0 1 -3711.3201 7965.8301)">
	<stop  offset="0" style="stop-color:#3FA9F5"/>
	<stop  offset="6.000000e-02" style="stop-color:#3EA4ED;stop-opacity:0.96"/>
	<stop  offset="0.15" style="stop-color:#3A95D8;stop-opacity:0.86"/>
	<stop  offset="0.27" style="stop-color:#347EB5;stop-opacity:0.69"/>
	<stop  offset="0.4" style="stop-color:#2B5D84;stop-opacity:0.45"/>
	<stop  offset="0.56" style="stop-color:#213447;stop-opacity:0.16"/>
	<stop  offset="0.64" style="stop-color:#1B1E27;stop-opacity:0"/>
	<stop  offset="1" style="stop-color:#1B1E27;stop-opacity:0"/>
</linearGradient>
<path class="st12" d="M202.5,21.5h111.6l3,3v10.5l-3,3H202.5l-3-3V24.5L202.5,21.5z"/>
<linearGradient id="SVGID_8_" gradientUnits="userSpaceOnUse" x1="-4028.71" y1="-7916.105" x2="-3910.6001" y2="-7916.105" gradientTransform="matrix(-1 0 0 1 -3711.3201 7965.8301)">
	<stop  offset="0" style="stop-color:#3FA9F5"/>
	<stop  offset="6.000000e-02" style="stop-color:#3EA4ED;stop-opacity:0.96"/>
	<stop  offset="0.15" style="stop-color:#3A95D8;stop-opacity:0.86"/>
	<stop  offset="0.27" style="stop-color:#347EB5;stop-opacity:0.69"/>
	<stop  offset="0.4" style="stop-color:#2B5D84;stop-opacity:0.45"/>
	<stop  offset="0.56" style="stop-color:#213447;stop-opacity:0.16"/>
	<stop  offset="0.64" style="stop-color:#1B1E27;stop-opacity:0"/>
	<stop  offset="1" style="stop-color:#1B1E27;stop-opacity:0"/>
</linearGradient>
<path class="st13" d="M202.5,41.5h111.6l3,3V55l-3,3H202.5l-3-3V44.5L202.5,41.5z"/>
<linearGradient id="SVGID_9_" gradientUnits="userSpaceOnUse" x1="-4028.71" y1="-7896.4849" x2="-3910.6001" y2="-7896.4849" gradientTransform="matrix(-1 0 0 1 -3711.3201 7965.8301)">
	<stop  offset="0" style="stop-color:#3FA9F5"/>
	<stop  offset="6.000000e-02" style="stop-color:#3EA4ED;stop-opacity:0.96"/>
	<stop  offset="0.15" style="stop-color:#3A95D8;stop-opacity:0.86"/>
	<stop  offset="0.27" style="stop-color:#347EB5;stop-opacity:0.69"/>
	<stop  offset="0.4" style="stop-color:#2B5D84;stop-opacity:0.45"/>
	<stop  offset="0.56" style="stop-color:#213447;stop-opacity:0.16"/>
	<stop  offset="0.64" style="stop-color:#1B1E27;stop-opacity:0"/>
	<stop  offset="1" style="stop-color:#1B1E27;stop-opacity:0"/>
</linearGradient>
<path class="st14" d="M202.5,61.1h111.6l3,3v10.5l-3,3H202.5l-3-3V64.1L202.5,61.1z"/>
<linearGradient id="SVGID_10_" gradientUnits="userSpaceOnUse" x1="-4028.71" y1="-7876.5752" x2="-3910.6001" y2="-7876.5752" gradientTransform="matrix(-1 0 0 1 -3711.3201 7965.8301)">
	<stop  offset="0" style="stop-color:#3FA9F5"/>
	<stop  offset="6.000000e-02" style="stop-color:#3EA4ED;stop-opacity:0.96"/>
	<stop  offset="0.15" style="stop-color:#3A95D8;stop-opacity:0.86"/>
	<stop  offset="0.27" style="stop-color:#347EB5;stop-opacity:0.69"/>
	<stop  offset="0.4" style="stop-color:#2B5D84;stop-opacity:0.45"/>
	<stop  offset="0.56" style="stop-color:#213447;stop-opacity:0.16"/>
	<stop  offset="0.64" style="stop-color:#1B1E27;stop-opacity:0"/>
	<stop  offset="1" style="stop-color:#1B1E27;stop-opacity:0"/>
</linearGradient>
<path class="st15" d="M202.5,81h111.6l3,3v10.5l-3,3H202.5l-3-3V84L202.5,81z"/>
<path class="st9" d="M201.3,51.1l-1.6-1.2l-1.7,1.2H201.3z M199.7,49.7l0.4,0.3l1.3-0.9v-0.2c0-0.1-0.1-0.2-0.2-0.2l-1.6-1.1
	l-1.6,1.1c-0.1,0.1-0.2,0.1-0.2,0.2v0.2l1.3,0.9l0.4-0.3C199.7,49.7,199.7,49.7,199.7,49.7z M200.3,50.1l1.2,0.9v-1.7L200.3,50.1z
	 M197.9,51l1.2-0.9l-1.2-0.8V51L197.9,51z M201.6,48.8v2.3c0,0.1-0.1,0.2-0.2,0.2c0,0,0,0,0,0h-3.5c-0.1,0-0.2-0.1-0.2-0.2
	c0,0,0,0,0,0v-2.3c0-0.2,0.1-0.3,0.3-0.4l1.6-1.1c0,0,0.1,0,0.1,0l1.6,1.1C201.5,48.5,201.6,48.6,201.6,48.8L201.6,48.8z"/>
<path class="st16" d="M191.8,27.8c-0.9,1-1.5,2.2-2,3.4c-0.1,0.3,0,0.6,0.3,0.7c0,0,0,0,0,0l0.7,0.3c0.1,0.1,0.3,0,0.3-0.1
	c0,0,0,0,0,0l0.3-0.8c0-0.1,0-0.1,0-0.2c0-0.1-0.1-0.1-0.1-0.1l-0.4-0.1c0,0-0.1,0-0.1-0.1c0,0,0-0.1,0-0.1c0.3-0.6,0.6-1.1,1-1.7
	c0,0,0,0,0.1,0c0,0,0,0,0.1,0l0.3,0.2c0.1,0,0.1,0.1,0.2,0.1c0.1,0,0.1,0,0.2-0.1l0.5-0.6c0.1-0.1,0.1-0.3,0-0.4l-0.6-0.5
	C192.4,27.5,192,27.5,191.8,27.8C191.8,27.8,191.8,27.8,191.8,27.8z"/>
<path class="st17" d="M193.8,87.6c0-0.1-0.1-0.1-0.2-0.1h-1.2l-0.3-1.2l0,0c0,0-0.1-0.1-0.2-0.1l0,0c-0.1,0-0.2,0-0.2,0.1l-0.4,1.2
	H190c-0.1,0-0.2,0.1-0.2,0.1c0,0.1,0,0.2,0.1,0.2l1,0.7l-0.4,1.2c0,0.1,0,0.2,0.1,0.2c0.1,0.1,0.2,0.1,0.2,0l1-0.7l1,0.7
	c0.1,0,0.2,0,0.2,0c0.1,0,0.1-0.1,0.1-0.2l-0.4-1.2l1-0.7c0,0,0.1-0.1,0.1-0.2C193.8,87.7,193.8,87.6,193.8,87.6z"/>
<path class="st16" d="M199.9,69.5c0.3-0.1,0.5-0.4,0.4-0.7s-0.4-0.5-0.7-0.4s-0.5,0.4-0.4,0.7c0.1,0.2,0.2,0.3,0.4,0.4
	c-0.4,0.1-0.6,0.5-0.6,1.2h1.5C200.4,70,200.3,69.6,199.9,69.5z"/>
<path class="st16" d="M200.6,70.3h1.1c0-0.7-0.1-1.1-0.6-1.2c0.3-0.1,0.5-0.4,0.4-0.7c-0.1-0.3-0.4-0.5-0.7-0.4s-0.5,0.4-0.4,0.7
	c0.1,0.2,0.2,0.3,0.4,0.4c-0.2,0.1-0.4,0.2-0.5,0.5c0.1,0.1,0.1,0.2,0.2,0.3C200.5,70,200.5,70.1,200.6,70.3z"/>
<path class="st16" d="M199.1,69.6c-0.1-0.2-0.3-0.4-0.5-0.5c0.2-0.1,0.4-0.3,0.4-0.6c0-0.3-0.3-0.6-0.6-0.6c-0.3,0-0.6,0.2-0.6,0.5
	c0,0.3,0.2,0.5,0.4,0.6c-0.4,0.1-0.6,0.5-0.6,1.2h1.1c0-0.2,0.1-0.3,0.1-0.5C199,69.7,199,69.6,199.1,69.6z"/>
<linearGradient id="SVGID_11_" gradientUnits="userSpaceOnUse" x1="200.94" y1="88.095" x2="317.16" y2="88.095" gradientTransform="matrix(1 0 0 -1 0 118)">
	<stop  offset="0" style="stop-color:#3FA9F5;stop-opacity:0.6"/>
	<stop  offset="0.1" style="stop-color:#3992D3;stop-opacity:0.52"/>
	<stop  offset="0.31" style="stop-color:#2A587E;stop-opacity:0.31"/>
	<stop  offset="0.5" style="stop-color:#1B1E27;stop-opacity:0.1"/>
	<stop  offset="0.6" style="stop-color:#1C212C;stop-opacity:0.11"/>
	<stop  offset="0.69" style="stop-color:#1E2B3A;stop-opacity:0.15"/>
	<stop  offset="0.76" style="stop-color:#233B52;stop-opacity:0.2"/>
	<stop  offset="0.83" style="stop-color:#295274;stop-opacity:0.29"/>
	<stop  offset="0.9" style="stop-color:#3070A0;stop-opacity:0.39"/>
	<stop  offset="0.97" style="stop-color:#3A94D6;stop-opacity:0.52"/>
	<stop  offset="1" style="stop-color:#3FA9F5;stop-opacity:0.6"/>
</linearGradient>
<path class="st18" d="M314.2,21.6H200.9c3.8,5,6.9,10.7,9,16.6h104.2l3-3V24.6L314.2,21.6z"/>
<linearGradient id="SVGID_12_" gradientUnits="userSpaceOnUse" x1="199.66" y1="28.945" x2="317.16" y2="28.945" gradientTransform="matrix(1 0 0 -1 0 118)">
	<stop  offset="0" style="stop-color:#3FA9F5;stop-opacity:0.6"/>
	<stop  offset="6.000000e-02" style="stop-color:#3DA1E9;stop-opacity:0.57"/>
	<stop  offset="0.17" style="stop-color:#378AC7;stop-opacity:0.49"/>
	<stop  offset="0.3" style="stop-color:#2D6591;stop-opacity:0.36"/>
	<stop  offset="0.45" style="stop-color:#203346;stop-opacity:0.17"/>
	<stop  offset="0.5" style="stop-color:#1B1E27;stop-opacity:0.1"/>
	<stop  offset="0.57" style="stop-color:#1C232F;stop-opacity:0.12"/>
	<stop  offset="0.66" style="stop-color:#203245;stop-opacity:0.17"/>
	<stop  offset="0.75" style="stop-color:#274B69;stop-opacity:0.26"/>
	<stop  offset="0.86" style="stop-color:#2F6D9C;stop-opacity:0.38"/>
	<stop  offset="0.96" style="stop-color:#3B99DD;stop-opacity:0.54"/>
	<stop  offset="1" style="stop-color:#3FA9F5;stop-opacity:0.6"/>
</linearGradient>
<path class="st19" d="M314.2,80.7H209.3c-2.3,6-5.6,11.6-9.7,16.6h114.5l3-3V83.7L314.2,80.7z"/>
<linearGradient id="SVGID_13_" gradientUnits="userSpaceOnUse" x1="211" y1="68.195" x2="317.16" y2="68.195" gradientTransform="matrix(1 0 0 -1 0 118)">
	<stop  offset="0" style="stop-color:#3FA9F5;stop-opacity:0.8"/>
	<stop  offset="9.000000e-02" style="stop-color:#3685BF;stop-opacity:0.62"/>
	<stop  offset="0.19" style="stop-color:#2C6089;stop-opacity:0.43"/>
	<stop  offset="0.28" style="stop-color:#25445F;stop-opacity:0.29"/>
	<stop  offset="0.37" style="stop-color:#1F2F40;stop-opacity:0.19"/>
	<stop  offset="0.45" style="stop-color:#1C222E;stop-opacity:0.12"/>
	<stop  offset="0.5" style="stop-color:#1B1E27;stop-opacity:0.1"/>
	<stop  offset="0.57" style="stop-color:#1C232F;stop-opacity:0.12"/>
	<stop  offset="0.66" style="stop-color:#203245;stop-opacity:0.17"/>
	<stop  offset="0.75" style="stop-color:#274B69;stop-opacity:0.26"/>
	<stop  offset="0.86" style="stop-color:#2F6D9C;stop-opacity:0.38"/>
	<stop  offset="0.96" style="stop-color:#3B99DD;stop-opacity:0.54"/>
	<stop  offset="1" style="stop-color:#3FA9F5;stop-opacity:0.6"/>
</linearGradient>
<path class="st20" d="M314.2,41.5H211c1.6,5.4,2.4,11,2.4,16.6h101.7l2-2V44.5L314.2,41.5z"/>
<linearGradient id="SVGID_14_" gradientUnits="userSpaceOnUse" x1="210.36" y1="48.565" x2="317.16" y2="48.565" gradientTransform="matrix(1 0 0 -1 0 118)">
	<stop  offset="0" style="stop-color:#3FA9F5;stop-opacity:0.8"/>
	<stop  offset="9.000000e-02" style="stop-color:#3685BF;stop-opacity:0.62"/>
	<stop  offset="0.19" style="stop-color:#2C6089;stop-opacity:0.43"/>
	<stop  offset="0.28" style="stop-color:#25445F;stop-opacity:0.29"/>
	<stop  offset="0.37" style="stop-color:#1F2F40;stop-opacity:0.19"/>
	<stop  offset="0.45" style="stop-color:#1C222E;stop-opacity:0.12"/>
	<stop  offset="0.5" style="stop-color:#1B1E27;stop-opacity:0.1"/>
	<stop  offset="0.57" style="stop-color:#1C232F;stop-opacity:0.12"/>
	<stop  offset="0.66" style="stop-color:#203245;stop-opacity:0.17"/>
	<stop  offset="0.75" style="stop-color:#274B69;stop-opacity:0.26"/>
	<stop  offset="0.86" style="stop-color:#2F6D9C;stop-opacity:0.38"/>
	<stop  offset="0.96" style="stop-color:#3B99DD;stop-opacity:0.54"/>
	<stop  offset="1" style="stop-color:#3FA9F5;stop-opacity:0.6"/>
</linearGradient>
<path class="st21" d="M314.2,61.1H213.4c-0.2,5.7-1.2,11.3-3,16.6h103.8l3-3V64.1L314.2,61.1z"/>
<text transform="matrix(1 0 0 1 239.5701 51.28)" class="st9 st2 st3">I</text>
<text transform="matrix(1 0 0 1 241.13 51.28)" class="st9 st2 st3">v</text>
<text transform="matrix(1 0 0 1 243.22 51.28)" class="st9 st2 st3">an</text>
<text transform="matrix(1 0 0 1 247.9399 51.28)" class="st9 st2 st3">o</text>
<text transform="matrix(1 0 0 1 250.28 51.28)" class="st9 st2 st3">v@gazp</text>
<text transform="matrix(1 0 0 1 265.47 51.28)" class="st9 st2 st3">r</text>
<text transform="matrix(1 0 0 1 267.02 51.28)" class="st9 st2 st3">om-neft.ru</text>
<text transform="matrix(1 0 0 1 239.5701 31.65)" class="st9 st2 st3">+ 7 (925) 599-99-87</text>
<text transform="matrix(1 0 0 1 239.5701 70.09)" class="st9 st2 st3">Бригада №1</text>
<text transform="matrix(1 0 0 1 239.5701 90.53)" class="st9 st2 st3">Высокий уровень доступа</text>
<path class="st22" d="M207.1,38.2h2.9c-2.2-6-5.3-11.6-9.3-16.6h-3.5C201.4,26.5,204.8,32.2,207.1,38.2z"/>
<path class="st22" d="M206.4,80.7c-2.6,6.1-6.2,11.7-10.7,16.6h3.6c4.2-5,7.6-10.6,10-16.6H206.4z"/>
<path class="st22" d="M210.8,61.1c-0.2,5.7-1.3,11.3-3.2,16.6h2.9c1.8-5.4,2.8-11,3.1-16.6L210.8,61.1z"/>
<path class="st22" d="M208.2,41.5c1.7,5.4,2.6,11,2.6,16.6h2.7c0-5.6-0.9-11.2-2.5-16.6L208.2,41.5z"/>
<path class="st23" d="M207.1,38.2h2.9c-2.2-6-5.3-11.6-9.3-16.6h-3.5C201.4,26.5,204.8,32.2,207.1,38.2z"/>
<path class="st23" d="M206.4,80.7c-2.6,6.1-6.2,11.7-10.7,16.6h3.6c4.2-5,7.6-10.6,10-16.6H206.4z"/>
<path class="st23" d="M210.8,61.1c-0.2,5.7-1.3,11.3-3.2,16.6h2.9c1.8-5.4,2.8-11,3.1-16.6L210.8,61.1z"/>
<path class="st23" d="M208.2,41.5c1.7,5.4,2.6,11,2.6,16.6h2.7c0-5.6-0.9-11.2-2.5-16.6L208.2,41.5z"/>
<path class="st24" d="M203.3,38.2h2.9c-2.2-6-5.3-11.6-9.3-16.6h-3.5C197.6,26.5,200.9,32.2,203.3,38.2z"/>
<path class="st24" d="M202.6,80.7c-2.6,6.1-6.1,11.7-10.6,16.6h3.6c4.2-5,7.6-10.6,10-16.6L202.6,80.7z"/>
<path class="st24" d="M207,61.1c-0.2,5.7-1.3,11.3-3.2,16.6h2.9c1.8-5.4,2.8-11,3-16.6L207,61.1z"/>
<path class="st24" d="M204.4,41.5c1.7,5.4,2.5,11,2.6,16.6h2.7c0-5.6-0.9-11.2-2.5-16.6L204.4,41.5z"/>
<g>
	<defs>
		<circle id="SVGID_15_" cx="139.7" cy="58.6" r="34.5"/>
	</defs>
	<clipPath id="SVGID_16_">
		<use xlink:href="#SVGID_15_"  style="overflow:visible;"/>
	</clipPath>
	<g id="b6a851ff-d5ca-4d8e-a995-8db653479238" class="st25">
		<g id="b98a45a9-23a0-4367-9090-ccf93d9556be">
			
				<linearGradient id="SVGID_17_" gradientUnits="userSpaceOnUse" x1="91.9196" y1="59.4898" x2="186.6824" y2="59.4898" gradientTransform="matrix(1 0 0 -1 0 118)">
				<stop  offset="0" style="stop-color:#6BA6F1"/>
				<stop  offset="1" style="stop-color:#6BA6F1;stop-opacity:0.45"/>
			</linearGradient>
			<path class="st26" d="M91.9,11.1v94.8h94.8V11.1H91.9z M139.6,84.9c-8.6,0-16.8-3.9-22.2-10.5c0-0.3,0-0.5,0-0.8
				c0.2-2.7,1.2-5.1,3.6-6.6c1-0.6,2.1-1.1,3.1-1.5c1.6-0.7,3.3-1.3,4.9-2c1.8-0.8,3.3-2.2,4.3-3.9c0.3-0.4,0.3-1-0.1-1.4
				c-0.7-1.2-1.4-2.4-1.9-3.7c-0.7-1.8-0.9-3.8-2-5.4c-0.3-0.5-0.4-1-0.3-1.6c0.1-1.1,0.4-2.1,0.4-3.2c0-1.1-0.1-2.2-0.1-3.2
				c0-0.4,0.1-0.8,0.3-1.1c0.3-0.7,0.6-1.4,1-2.1l-0.7-0.2c0.6-0.8,1.2-1.6,1.8-2.4c1.9-2.3,4.3-3.4,7.3-3c0.4,0.1,0.9,0.1,1.3,0
				c2.5-0.4,5,0.5,6.6,2.3c0.9,0.9,1.6,2,2.4,3l-0.8,0.2c0.8,1.4,1.6,2.8,1.4,4.4c-0.2,0.9-0.1,1.8,0.1,2.7c0.6,1.9,0.3,4-1,5.7
				c-0.2,0.3-0.4,0.7-0.5,1.2c-0.4,2.5-1.4,4.9-3.1,6.9c-0.3,0.3-0.3,0.7-0.1,1.1c0,0,0,0.1,0.1,0.1c0.8,1,1.7,1.9,2.7,2.7
				c2,1.5,4.4,2.3,6.7,3.1c4.4,1.6,6.3,4.3,6.4,9c0,0.1,0,0.2,0,0.4C155.8,81.3,147.9,84.9,139.6,84.9z"/>
		</g>
	</g>
</g>
</svg>
