<svg width="324" height="117" viewBox="0 0 324 117" fill="none" xmlns="http://www.w3.org/2000/svg">
<path d="M14.9956 13H14.1993V7.71953H11.4445V13H10.6482V7.01172H14.9956V13ZM19.8497 10.7559C19.8497 11.512 19.6674 12.0965 19.3028 12.5094C18.9382 12.9196 18.4529 13.1247 17.8469 13.1247C17.2222 13.1247 16.7303 12.9129 16.371 12.4892C16.0144 12.063 15.8361 11.4852 15.8361 10.7559C15.8361 10.0052 16.0198 9.42203 16.3871 9.00646C16.7571 8.59089 17.2437 8.3831 17.8469 8.3831C18.4529 8.3831 18.9382 8.59089 19.3028 9.00646C19.6674 9.41935 19.8497 10.0025 19.8497 10.7559ZM19.0695 10.7559C19.0695 10.1741 18.9636 9.74242 18.7518 9.46091C18.54 9.17671 18.2384 9.03461 17.8469 9.03461C17.4528 9.03461 17.1485 9.17671 16.934 9.46091C16.7222 9.74242 16.6163 10.1741 16.6163 10.7559C16.6163 11.3189 16.7222 11.7466 16.934 12.0388C17.1485 12.3284 17.4528 12.4732 17.8469 12.4732C18.2357 12.4732 18.536 12.3311 18.7478 12.0469C18.9623 11.76 19.0695 11.3297 19.0695 10.7559ZM24.2414 13H23.3003L21.76 10.9288H21.382V13H20.6259V8.50777H21.382V10.4623C21.5777 10.4597 21.7439 10.4194 21.8807 10.3417C22.0201 10.2612 22.1381 10.1071 22.2346 9.87916C22.2641 9.81213 22.2962 9.73438 22.3311 9.6459C22.3686 9.55743 22.3981 9.47968 22.4196 9.41265C22.5375 9.08287 22.7011 8.84961 22.9102 8.71288C23.1193 8.57614 23.3915 8.50777 23.7266 8.50777H23.9317V9.15928H23.7588C23.547 9.15928 23.3874 9.20352 23.2802 9.292C23.1756 9.37779 23.0872 9.53598 23.0148 9.76655C22.9397 9.99981 22.8512 10.1822 22.7493 10.3135C22.6475 10.4422 22.5349 10.5414 22.4115 10.6111L24.2414 13ZM27.2375 11.894V10.6473C27.0579 10.6634 26.83 10.6862 26.5538 10.7157C26.2804 10.7425 26.0592 10.7814 25.8903 10.8323C25.6892 10.894 25.523 10.9892 25.3916 11.1179C25.2602 11.2439 25.1945 11.4208 25.1945 11.6487C25.1945 11.9061 25.2669 12.1005 25.4117 12.2319C25.5565 12.3632 25.7683 12.4289 26.0471 12.4289C26.2857 12.4289 26.5016 12.378 26.6946 12.2761C26.8876 12.1715 27.0686 12.0442 27.2375 11.894ZM27.2375 12.5214C27.1759 12.567 27.0927 12.6313 26.9882 12.7145C26.8863 12.7949 26.7871 12.8592 26.6906 12.9075C26.5565 12.9772 26.4265 13.0308 26.3005 13.0684C26.1771 13.1059 26.0029 13.1247 25.7777 13.1247C25.5927 13.1247 25.417 13.0898 25.2508 13.0201C25.0846 12.9504 24.9385 12.8525 24.8125 12.7265C24.6918 12.6032 24.5953 12.4517 24.5229 12.2721C24.4505 12.0898 24.4143 11.8981 24.4143 11.697C24.4143 11.386 24.48 11.1219 24.6114 10.9047C24.7427 10.6849 24.9505 10.5106 25.2347 10.3819C25.4868 10.2666 25.7844 10.1875 26.1275 10.1446C26.4707 10.099 26.8407 10.0655 27.2375 10.0441V9.89927C27.2375 9.72232 27.2107 9.58022 27.1571 9.47297C27.1035 9.36305 27.0284 9.27859 26.9319 9.21961C26.8354 9.15794 26.7174 9.11773 26.578 9.09896C26.4385 9.07751 26.2951 9.06678 26.1476 9.06678C25.9734 9.06678 25.7683 9.0936 25.5323 9.14722C25.2964 9.19816 25.0605 9.27323 24.8245 9.37243H24.7803V8.60429C24.9197 8.56408 25.1194 8.51984 25.3795 8.47158C25.6396 8.42332 25.897 8.39919 26.1517 8.39919C26.46 8.39919 26.7201 8.42332 26.9319 8.47158C27.1437 8.51984 27.334 8.60697 27.5029 8.73299C27.6665 8.85632 27.7885 9.01584 27.8689 9.21156C27.9494 9.40729 27.9896 9.6459 27.9896 9.92742V13H27.2375V12.5214ZM32.0313 11.7573C32.0313 12.0093 31.9764 12.2225 31.8665 12.3968C31.7565 12.571 31.6158 12.7091 31.4442 12.811C31.2806 12.9102 31.0943 12.9839 30.8852 13.0322C30.676 13.0804 30.4669 13.1046 30.2578 13.1046C29.9629 13.1046 29.684 13.0751 29.4213 13.0161C29.1585 12.9598 28.8971 12.8686 28.6371 12.7426V11.9061H28.6853C28.8676 12.075 29.0955 12.2091 29.369 12.3083C29.6452 12.4048 29.92 12.4531 30.1934 12.4531C30.3114 12.4531 30.4374 12.441 30.5715 12.4169C30.7082 12.39 30.8235 12.3498 30.9173 12.2962C31.0407 12.2211 31.1278 12.1407 31.1787 12.0549C31.2324 11.9691 31.2592 11.8511 31.2592 11.701C31.2592 11.5401 31.2283 11.4114 31.1667 11.3149C31.1077 11.2157 31.0259 11.142 30.9214 11.0937C30.8168 11.0455 30.6988 11.016 30.5675 11.0053C30.4388 10.9919 30.302 10.9851 30.1572 10.9851H29.6264V10.3336H30.0326C30.1345 10.3336 30.2618 10.331 30.4146 10.3256C30.5675 10.3176 30.6894 10.2961 30.7806 10.2612C30.8959 10.2184 30.9884 10.158 31.0581 10.0803C31.1278 9.99981 31.1627 9.86575 31.1627 9.67808C31.1627 9.5467 31.1332 9.4408 31.0742 9.36037C31.0152 9.27993 30.9415 9.21693 30.853 9.17135C30.7618 9.12309 30.6626 9.09091 30.5554 9.07483C30.4481 9.05606 30.3449 9.04668 30.2457 9.04668C29.991 9.04668 29.7457 9.08287 29.5098 9.15526C29.2765 9.22497 29.0754 9.32953 28.9065 9.46895H28.8583V8.65255C29.0513 8.58553 29.2644 8.52654 29.4977 8.4756C29.7336 8.42466 29.9696 8.39919 30.2055 8.39919C30.3959 8.39919 30.5889 8.4193 30.7846 8.45951C30.983 8.49705 31.1707 8.56274 31.3477 8.65658C31.5139 8.74773 31.6533 8.87374 31.7659 9.03461C31.8785 9.1928 31.9348 9.38718 31.9348 9.61775C31.9348 9.86173 31.8651 10.0763 31.7257 10.2612C31.589 10.4436 31.4066 10.5642 31.1787 10.6232V10.6513C31.4281 10.7371 31.6319 10.8685 31.79 11.0455C31.9509 11.2224 32.0313 11.4597 32.0313 11.7573ZM35.3371 11.894V10.6473C35.1575 10.6634 34.9296 10.6862 34.6535 10.7157C34.38 10.7425 34.1588 10.7814 33.9899 10.8323C33.7888 10.894 33.6226 10.9892 33.4912 11.1179C33.3598 11.2439 33.2941 11.4208 33.2941 11.6487C33.2941 11.9061 33.3665 12.1005 33.5113 12.2319C33.6561 12.3632 33.8679 12.4289 34.1467 12.4289C34.3854 12.4289 34.6012 12.378 34.7942 12.2761C34.9873 12.1715 35.1682 12.0442 35.3371 11.894ZM35.3371 12.5214C35.2755 12.567 35.1924 12.6313 35.0878 12.7145C34.9859 12.7949 34.8867 12.8592 34.7902 12.9075C34.6561 12.9772 34.5261 13.0308 34.4001 13.0684C34.2768 13.1059 34.1025 13.1247 33.8773 13.1247C33.6923 13.1247 33.5167 13.0898 33.3504 13.0201C33.1842 12.9504 33.0381 12.8525 32.9121 12.7265C32.7914 12.6032 32.6949 12.4517 32.6225 12.2721C32.5501 12.0898 32.5139 11.8981 32.5139 11.697C32.5139 11.386 32.5796 11.1219 32.711 10.9047C32.8424 10.6849 33.0502 10.5106 33.3344 10.3819C33.5864 10.2666 33.884 10.1875 34.2272 10.1446C34.5703 10.099 34.9403 10.0655 35.3371 10.0441V9.89927C35.3371 9.72232 35.3103 9.58022 35.2567 9.47297C35.2031 9.36305 35.128 9.27859 35.0315 9.21961C34.935 9.15794 34.817 9.11773 34.6776 9.09896C34.5382 9.07751 34.3947 9.06678 34.2473 9.06678C34.073 9.06678 33.8679 9.0936 33.632 9.14722C33.396 9.19816 33.1601 9.27323 32.9241 9.37243H32.8799V8.60429C33.0193 8.56408 33.2191 8.51984 33.4791 8.47158C33.7392 8.42332 33.9966 8.39919 34.2513 8.39919C34.5596 8.39919 34.8197 8.42332 35.0315 8.47158C35.2433 8.51984 35.4337 8.60697 35.6026 8.73299C35.7661 8.85632 35.8881 9.01584 35.9685 9.21156C36.049 9.40729 36.0892 9.6459 36.0892 9.92742V13H35.3371V12.5214ZM40.4366 9.17135H38.9084V13H38.1523V9.17135H36.6241V8.50777H40.4366V9.17135ZM42.9502 13.1046C42.2343 13.1046 41.678 12.9035 41.2812 12.5013C40.887 12.0965 40.69 11.5227 40.69 10.78C40.69 10.0481 40.8817 9.46627 41.2651 9.03461C41.6485 8.60027 42.1498 8.3831 42.7692 8.3831C43.048 8.3831 43.2947 8.42332 43.5092 8.50375C43.7237 8.58419 43.9113 8.7102 44.0722 8.88179C44.2331 9.05338 44.3564 9.26385 44.4422 9.51319C44.528 9.75985 44.5709 10.0628 44.5709 10.4221V10.8323H41.4581C41.4581 11.3551 41.5895 11.7546 41.8522 12.0308C42.115 12.3069 42.4783 12.445 42.9421 12.445C43.1083 12.445 43.2705 12.4262 43.4287 12.3887C43.5896 12.3512 43.7344 12.3029 43.8631 12.2439C43.9998 12.1823 44.1151 12.1233 44.2089 12.067C44.3028 12.008 44.3805 11.953 44.4422 11.9021H44.4864V12.7265C44.3979 12.7614 44.288 12.8056 44.1567 12.8592C44.0253 12.9102 43.9073 12.9504 43.8027 12.9799C43.6553 13.0201 43.5212 13.0509 43.4006 13.0724C43.2826 13.0938 43.1325 13.1046 42.9502 13.1046ZM43.8349 10.2532C43.8296 10.0494 43.8054 9.8738 43.7625 9.72634C43.7196 9.57888 43.658 9.4542 43.5775 9.35232C43.4891 9.23972 43.3751 9.15392 43.2357 9.09494C43.099 9.03595 42.9287 9.00646 42.7249 9.00646C42.5239 9.00646 42.3523 9.03729 42.2102 9.09896C42.0707 9.15794 41.9434 9.24508 41.8281 9.36037C41.7155 9.47833 41.6297 9.60971 41.5707 9.75449C41.5117 9.89659 41.4742 10.0628 41.4581 10.2532H43.8349ZM48.8137 13H48.0577V9.1432H46.5133C46.5053 9.36573 46.4973 9.58022 46.4892 9.78666C46.4812 9.99043 46.4731 10.1755 46.4651 10.3417C46.449 10.7626 46.4208 11.1152 46.3806 11.3994C46.3431 11.6836 46.2948 11.9115 46.2358 12.0831C46.1769 12.26 46.1112 12.3981 46.0388 12.4973C45.9691 12.5965 45.89 12.6863 45.8015 12.7667C45.7104 12.8472 45.6125 12.9075 45.5079 12.9477C45.4034 12.9879 45.2854 13.008 45.154 13.008C45.1111 13.008 45.0562 13.0067 44.9891 13.004C44.9221 13.0013 44.8752 13 44.8484 13V12.3404H44.8886C44.9074 12.3404 44.9261 12.3418 44.9449 12.3445C44.9663 12.3472 44.9905 12.3485 45.0173 12.3485C45.0816 12.3485 45.1446 12.3391 45.2063 12.3203C45.268 12.3016 45.3229 12.2667 45.3712 12.2158C45.5052 12.0844 45.6031 11.8552 45.6648 11.5281C45.7264 11.1983 45.7707 10.7385 45.7975 10.1486C45.8082 9.92876 45.8176 9.66869 45.8256 9.36841C45.8364 9.06813 45.8457 8.78125 45.8538 8.50777H48.8137V13ZM53.4588 13H52.7107V9.64993L50.5953 13H49.9117V8.50777H50.6597V11.8056L52.7509 8.50777H53.4588V13ZM56.0165 11.8538L54.8905 14.488H54.3033L55.0111 11.8538H56.0165ZM64.5425 14.3553H63.7864V12.9839H59.9015V14.3553H59.1454V12.2922H59.4711C59.8197 11.7211 60.0999 10.9731 60.3117 10.0481C60.5262 9.12041 60.6334 8.10829 60.6334 7.01172H63.9754V12.2922H64.5425V14.3553ZM63.1791 12.2922V7.70344H61.3814C61.3439 8.67132 61.2232 9.54938 61.0195 10.3377C60.8157 11.1259 60.5556 11.7774 60.2393 12.2922H63.1791ZM70.7036 13H69.7907L68.3791 10.9329H68.0855V13H67.3375V10.9329H67.0439L65.6082 13H64.7355L66.4286 10.6473C66.2972 10.5776 66.1806 10.4771 66.0787 10.3457C65.9768 10.2116 65.8857 10.0186 65.8053 9.76655C65.7329 9.53866 65.6471 9.38047 65.5479 9.292C65.4487 9.20352 65.2865 9.15928 65.0613 9.15928H64.8883V8.50777H65.0934C65.4232 8.50777 65.694 8.5748 65.9058 8.70886C66.1203 8.84291 66.2879 9.07751 66.4085 9.41265C66.4326 9.48236 66.4621 9.56279 66.497 9.65395C66.5345 9.74242 66.5667 9.81749 66.5935 9.87916C66.682 10.083 66.7852 10.2304 66.9032 10.3216C67.0211 10.4127 67.1659 10.4637 67.3375 10.4744V8.50777H68.0855V10.4744C68.2571 10.461 68.4033 10.4087 68.5239 10.3176C68.6472 10.2264 68.7518 10.0803 68.8376 9.87916C68.8671 9.81213 68.8993 9.73438 68.9341 9.6459C68.9716 9.55743 69.0011 9.47968 69.0226 9.41265C69.1406 9.08287 69.3041 8.84961 69.5132 8.71288C69.7224 8.57614 69.9945 8.50777 70.3296 8.50777H70.5347V9.15928H70.3618C70.15 9.15928 69.9905 9.20352 69.8832 9.292C69.7787 9.37779 69.6902 9.53598 69.6178 9.76655C69.5427 9.99981 69.4542 10.1835 69.3524 10.3176C69.2505 10.4516 69.1379 10.5535 69.0145 10.6232L70.7036 13Z" fill="#606580"/>
<path d="M213.36 7.89489C213.588 8.15764 213.764 8.4834 213.89 8.87216C214.017 9.26092 214.08 9.70464 214.08 10.2033C214.08 10.6886 214.018 11.1269 213.895 11.5184C213.771 11.9098 213.593 12.2383 213.36 12.5037C213.116 12.7825 212.83 12.989 212.503 13.123C212.179 13.2544 211.821 13.3201 211.429 13.3201C211.024 13.3201 210.66 13.2517 210.335 13.115C210.011 12.9782 209.732 12.7745 209.499 12.5037C209.268 12.2383 209.091 11.9112 208.968 11.5224C208.845 11.1336 208.783 10.6939 208.783 10.2033C208.783 9.69928 208.845 9.2569 208.968 8.87618C209.094 8.49546 209.272 8.16837 209.503 7.89489C209.733 7.62946 210.011 7.42838 210.335 7.29164C210.662 7.15223 211.027 7.08252 211.429 7.08252C211.837 7.08252 212.204 7.15357 212.531 7.29566C212.858 7.43776 213.134 7.63751 213.36 7.89489ZM213.251 10.2033C213.251 9.80652 213.208 9.4553 213.122 9.14965C213.037 8.844 212.916 8.59064 212.76 8.38956C212.602 8.18311 212.411 8.02895 212.185 7.92707C211.963 7.8225 211.712 7.77022 211.433 7.77022C211.144 7.77022 210.89 7.82116 210.673 7.92304C210.459 8.02224 210.268 8.17775 210.102 8.38956C209.944 8.59332 209.822 8.84937 209.736 9.15769C209.653 9.46602 209.611 9.81457 209.611 10.2033C209.611 10.9889 209.776 11.5908 210.106 12.009C210.436 12.4246 210.878 12.6324 211.433 12.6324C211.988 12.6324 212.429 12.4246 212.756 12.009C213.086 11.5908 213.251 10.9889 213.251 10.2033ZM218.178 9.36682H216.649V13.1954H215.893V9.36682H214.365V8.70325H218.178V9.36682ZM222.288 13.1954H221.532V11.1725H219.497V13.1954H218.741V8.70325H219.497V10.521H221.532V8.70325H222.288V13.1954ZM227.078 10.9513C227.078 11.7074 226.895 12.2919 226.531 12.7048C226.166 13.115 225.681 13.3201 225.075 13.3201C224.45 13.3201 223.958 13.1083 223.599 12.6847C223.242 12.2584 223.064 11.6806 223.064 10.9513C223.064 10.2006 223.248 9.6175 223.615 9.20193C223.985 8.78636 224.471 8.57857 225.075 8.57857C225.681 8.57857 226.166 8.78636 226.531 9.20193C226.895 9.61482 227.078 10.1979 227.078 10.9513ZM226.297 10.9513C226.297 10.3695 226.191 9.9379 225.98 9.65638C225.768 9.37218 225.466 9.23008 225.075 9.23008C224.681 9.23008 224.376 9.37218 224.162 9.65638C223.95 9.9379 223.844 10.3695 223.844 10.9513C223.844 11.5144 223.95 11.942 224.162 12.2342C224.376 12.5238 224.681 12.6686 225.075 12.6686C225.463 12.6686 225.764 12.5265 225.976 12.2423C226.19 11.9554 226.297 11.5251 226.297 10.9513ZM229.639 13.296C229.331 13.296 229.048 13.249 228.791 13.1552C228.533 13.0587 228.312 12.9139 228.127 12.7209C227.942 12.5278 227.799 12.2852 227.697 11.9929C227.595 11.698 227.544 11.3522 227.544 10.9553C227.544 10.5612 227.596 10.2207 227.701 9.93387C227.808 9.647 227.95 9.4057 228.127 9.20998C228.304 9.01425 228.524 8.86411 228.787 8.75955C229.052 8.65231 229.336 8.59868 229.639 8.59868C229.886 8.59868 230.123 8.63354 230.351 8.70325C230.582 8.77296 230.787 8.85339 230.966 8.94455V9.79312H230.922C230.869 9.74754 230.799 9.69526 230.713 9.63627C230.63 9.57729 230.528 9.51696 230.407 9.4553C230.303 9.40167 230.18 9.35476 230.037 9.31454C229.895 9.27432 229.759 9.25421 229.627 9.25421C229.236 9.25421 228.921 9.40302 228.682 9.70062C228.446 9.99554 228.328 10.4138 228.328 10.9553C228.328 11.4862 228.442 11.9004 228.67 12.198C228.901 12.493 229.22 12.6404 229.627 12.6404C229.874 12.6404 230.109 12.5895 230.331 12.4876C230.554 12.3857 230.751 12.2543 230.922 12.0935H230.966V12.942C230.891 12.9769 230.798 13.0198 230.685 13.0707C230.572 13.119 230.47 13.1552 230.379 13.1793C230.251 13.2169 230.135 13.245 230.033 13.2638C229.932 13.2852 229.8 13.296 229.639 13.296ZM235.205 13.1954H234.457V9.8454L232.342 13.1954H231.658V8.70325H232.406V12.001L234.497 8.70325H235.205V13.1954ZM239.581 9.36682H238.053V13.1954H237.297V9.36682H235.768V8.70325H239.581V9.36682ZM242.094 13.3C241.379 13.3 240.822 13.0989 240.425 12.6967C240.031 12.2919 239.834 11.7181 239.834 10.9755C239.834 10.2435 240.026 9.66174 240.409 9.23008C240.793 8.79574 241.294 8.57857 241.913 8.57857C242.192 8.57857 242.439 8.61879 242.653 8.69922C242.868 8.77966 243.056 8.90567 243.216 9.07726C243.377 9.24885 243.501 9.45932 243.586 9.70866C243.672 9.95532 243.715 10.2583 243.715 10.6175V11.0277H240.602C240.602 11.5506 240.734 11.95 240.996 12.2262C241.259 12.5023 241.623 12.6404 242.086 12.6404C242.253 12.6404 242.415 12.6217 242.573 12.5841C242.734 12.5466 242.879 12.4983 243.007 12.4393C243.144 12.3777 243.259 12.3187 243.353 12.2624C243.447 12.2034 243.525 12.1484 243.586 12.0975H243.631V12.9219C243.542 12.9568 243.432 13.001 243.301 13.0547C243.17 13.1056 243.052 13.1458 242.947 13.1753C242.8 13.2155 242.665 13.2464 242.545 13.2678C242.427 13.2893 242.277 13.3 242.094 13.3ZM242.979 10.4486C242.974 10.2449 242.95 10.0692 242.907 9.92181C242.864 9.77435 242.802 9.64968 242.722 9.5478C242.633 9.43519 242.519 9.34939 242.38 9.29041C242.243 9.23142 242.073 9.20193 241.869 9.20193C241.668 9.20193 241.497 9.23277 241.354 9.29443C241.215 9.35341 241.088 9.44055 240.972 9.55584C240.86 9.67381 240.774 9.80518 240.715 9.94996C240.656 10.092 240.618 10.2583 240.602 10.4486H242.979ZM247.958 13.1954H247.202V9.33867H245.658C245.65 9.5612 245.642 9.77569 245.633 9.98213C245.625 10.1859 245.617 10.3709 245.609 10.5371C245.593 10.958 245.565 11.3106 245.525 11.5948C245.487 11.879 245.439 12.1069 245.38 12.2785C245.321 12.4554 245.255 12.5935 245.183 12.6927C245.113 12.7919 245.034 12.8817 244.946 12.9622C244.855 13.0426 244.757 13.1029 244.652 13.1431C244.548 13.1833 244.43 13.2035 244.298 13.2035C244.255 13.2035 244.2 13.2021 244.133 13.1994C244.066 13.1968 244.019 13.1954 243.993 13.1954V12.5359H244.033C244.052 12.5359 244.07 12.5372 244.089 12.5399C244.111 12.5426 244.135 12.5439 244.162 12.5439C244.226 12.5439 244.289 12.5345 244.351 12.5158C244.412 12.497 244.467 12.4621 244.515 12.4112C244.65 12.2798 244.747 12.0506 244.809 11.7235C244.871 11.3937 244.915 10.9339 244.942 10.3441C244.952 10.1242 244.962 9.86417 244.97 9.56388C244.981 9.2636 244.99 8.97672 244.998 8.70325H247.958V13.1954ZM252.458 11.8039C252.458 12.0211 252.414 12.2181 252.326 12.3951C252.24 12.5721 252.122 12.7155 251.972 12.8254C251.795 12.9595 251.606 13.0547 251.405 13.111C251.203 13.1673 250.945 13.1954 250.628 13.1954H249.056V8.70325H249.812V10.4526H250.648C250.986 10.4526 251.248 10.4701 251.433 10.5049C251.62 10.5398 251.807 10.6256 251.992 10.7623C252.147 10.8776 252.264 11.0251 252.342 11.2047C252.419 11.3843 252.458 11.5841 252.458 11.8039ZM251.678 11.816C251.678 11.6792 251.654 11.5599 251.606 11.4581C251.56 11.3535 251.484 11.269 251.376 11.2047C251.264 11.1377 251.135 11.0974 250.99 11.084C250.848 11.0706 250.643 11.0639 250.375 11.0639H249.812V12.5922H250.359C250.627 12.5922 250.835 12.5814 250.982 12.56C251.13 12.5359 251.257 12.4916 251.364 12.4273C251.474 12.3576 251.553 12.2758 251.602 12.182C251.653 12.0854 251.678 11.9634 251.678 11.816ZM256.729 13.1954H255.973V11.1725H253.938V13.1954H253.182V8.70325H253.938V10.521H255.973V8.70325H256.729V13.1954ZM260.333 12.0895V10.8427C260.153 10.8588 259.925 10.8816 259.649 10.9111C259.375 10.9379 259.154 10.9768 258.985 11.0277C258.784 11.0894 258.618 11.1846 258.487 11.3133C258.355 11.4393 258.29 11.6162 258.29 11.8441C258.29 12.1015 258.362 12.2959 258.507 12.4273C258.652 12.5586 258.863 12.6243 259.142 12.6243C259.381 12.6243 259.597 12.5734 259.79 12.4715C259.983 12.367 260.164 12.2396 260.333 12.0895ZM260.333 12.7168C260.271 12.7624 260.188 12.8268 260.083 12.9099C259.981 12.9903 259.882 13.0547 259.786 13.1029C259.652 13.1726 259.522 13.2262 259.396 13.2638C259.272 13.3013 259.098 13.3201 258.873 13.3201C258.688 13.3201 258.512 13.2852 258.346 13.2155C258.18 13.1458 258.034 13.048 257.908 12.9219C257.787 12.7986 257.69 12.6471 257.618 12.4675C257.546 12.2852 257.509 12.0935 257.509 11.8924C257.509 11.5814 257.575 11.3173 257.706 11.1001C257.838 10.8803 258.046 10.706 258.33 10.5773C258.582 10.462 258.879 10.3829 259.223 10.34C259.566 10.2945 259.936 10.2609 260.333 10.2395V10.0947C260.333 9.91779 260.306 9.77569 260.252 9.66845C260.199 9.55852 260.124 9.47406 260.027 9.41508C259.93 9.35341 259.813 9.3132 259.673 9.29443C259.534 9.27298 259.39 9.26226 259.243 9.26226C259.069 9.26226 258.863 9.28907 258.627 9.34269C258.392 9.39363 258.156 9.4687 257.92 9.5679H257.875V8.79977C258.015 8.75955 258.215 8.71531 258.475 8.66705C258.735 8.61879 258.992 8.59466 259.247 8.59466C259.555 8.59466 259.815 8.61879 260.027 8.66705C260.239 8.71531 260.429 8.80245 260.598 8.92846C260.762 9.05179 260.884 9.21132 260.964 9.40704C261.044 9.60276 261.085 9.84138 261.085 10.1229V13.1954H260.333V12.7168ZM265.404 13.1954H264.648V11.4138H263.9L262.569 13.1954H261.688L263.132 11.3454C262.759 11.2355 262.486 11.072 262.311 10.8548C262.14 10.6376 262.054 10.3467 262.054 9.98213C262.054 9.7596 262.102 9.56522 262.199 9.39899C262.298 9.23008 262.431 9.08799 262.597 8.9727C262.731 8.88154 262.9 8.81451 263.104 8.77161C263.307 8.72604 263.535 8.70325 263.787 8.70325H265.404V13.1954ZM264.648 10.8186V9.3065H263.827C263.653 9.3065 263.515 9.31588 263.413 9.33465C263.314 9.35341 263.218 9.38961 263.124 9.44323C263.027 9.50222 262.953 9.58265 262.902 9.68453C262.854 9.78373 262.83 9.89098 262.83 10.0062C262.83 10.1537 262.846 10.2743 262.878 10.3682C262.913 10.4593 262.975 10.5438 263.063 10.6215C263.157 10.702 263.271 10.7556 263.405 10.7824C263.542 10.8065 263.691 10.8186 263.852 10.8186H264.648ZM272.599 11.8361C272.599 12.0533 272.557 12.2463 272.474 12.4152C272.391 12.5814 272.277 12.7209 272.132 12.8335C271.95 12.9756 271.758 13.0721 271.557 13.123C271.359 13.1713 271.12 13.1954 270.841 13.1954H269.076V8.70325H270.725C271.054 8.70325 271.296 8.71397 271.449 8.73542C271.601 8.75419 271.753 8.80513 271.903 8.88824C272.061 8.97404 272.178 9.08799 272.253 9.23008C272.328 9.37218 272.365 9.54109 272.365 9.73681C272.365 9.9513 272.306 10.1443 272.189 10.3159C272.071 10.4848 271.914 10.6162 271.718 10.71L271.738 10.7382C271.982 10.7998 272.186 10.9245 272.349 11.1122C272.516 11.2999 272.599 11.5412 272.599 11.8361ZM271.589 9.85344C271.589 9.75156 271.572 9.66308 271.537 9.58801C271.505 9.51294 271.447 9.45396 271.364 9.41106C271.268 9.36012 271.159 9.33063 271.038 9.32258C270.92 9.31186 270.755 9.3065 270.544 9.3065H269.824V10.5371H270.692C270.877 10.5371 271.009 10.5291 271.087 10.513C271.164 10.4942 271.25 10.4567 271.344 10.4004C271.432 10.3467 271.495 10.2743 271.533 10.1832C271.571 10.092 271.589 9.98213 271.589 9.85344ZM271.819 11.8401C271.819 11.6873 271.796 11.5653 271.75 11.4741C271.707 11.3803 271.611 11.2972 271.461 11.2248C271.367 11.1792 271.266 11.1511 271.159 11.1403C271.052 11.1296 270.903 11.1243 270.713 11.1243H269.824V12.5922H270.479C270.75 12.5922 270.961 12.5814 271.111 12.56C271.261 12.5385 271.39 12.4956 271.497 12.4313C271.609 12.3616 271.691 12.2812 271.742 12.19C271.793 12.0988 271.819 11.9822 271.819 11.8401ZM275.346 13.3C274.63 13.3 274.073 13.0989 273.677 12.6967C273.282 12.2919 273.085 11.7181 273.085 10.9755C273.085 10.2435 273.277 9.66174 273.66 9.23008C274.044 8.79574 274.545 8.57857 275.165 8.57857C275.443 8.57857 275.69 8.61879 275.905 8.69922C276.119 8.77966 276.307 8.90567 276.468 9.07726C276.628 9.24885 276.752 9.45932 276.838 9.70866C276.923 9.95532 276.966 10.2583 276.966 10.6175V11.0277H273.853C273.853 11.5506 273.985 11.95 274.248 12.2262C274.51 12.5023 274.874 12.6404 275.337 12.6404C275.504 12.6404 275.666 12.6217 275.824 12.5841C275.985 12.5466 276.13 12.4983 276.258 12.4393C276.395 12.3777 276.51 12.3187 276.604 12.2624C276.698 12.2034 276.776 12.1484 276.838 12.0975H276.882V12.9219C276.793 12.9568 276.683 13.001 276.552 13.0547C276.421 13.1056 276.303 13.1458 276.198 13.1753C276.051 13.2155 275.917 13.2464 275.796 13.2678C275.678 13.2893 275.528 13.3 275.346 13.3ZM276.23 10.4486C276.225 10.2449 276.201 10.0692 276.158 9.92181C276.115 9.77435 276.053 9.64968 275.973 9.5478C275.884 9.43519 275.77 9.34939 275.631 9.29041C275.494 9.23142 275.324 9.20193 275.12 9.20193C274.919 9.20193 274.748 9.23277 274.606 9.29443C274.466 9.35341 274.339 9.44055 274.223 9.55584C274.111 9.67381 274.025 9.80518 273.966 9.94996C273.907 10.092 273.87 10.2583 273.853 10.4486H276.23ZM281.209 13.1954H280.453V9.33867H278.909C278.901 9.5612 278.893 9.77569 278.885 9.98213C278.877 10.1859 278.868 10.3709 278.86 10.5371C278.844 10.958 278.816 11.3106 278.776 11.5948C278.738 11.879 278.69 12.1069 278.631 12.2785C278.572 12.4554 278.507 12.5935 278.434 12.6927C278.364 12.7919 278.285 12.8817 278.197 12.9622C278.106 13.0426 278.008 13.1029 277.903 13.1431C277.799 13.1833 277.681 13.2035 277.549 13.2035C277.506 13.2035 277.452 13.2021 277.384 13.1994C277.317 13.1968 277.271 13.1954 277.244 13.1954V12.5359H277.284C277.303 12.5359 277.321 12.5372 277.34 12.5399C277.362 12.5426 277.386 12.5439 277.413 12.5439C277.477 12.5439 277.54 12.5345 277.602 12.5158C277.663 12.497 277.718 12.4621 277.767 12.4112C277.901 12.2798 277.998 12.0506 278.06 11.7235C278.122 11.3937 278.166 10.9339 278.193 10.3441C278.204 10.1242 278.213 9.86417 278.221 9.56388C278.232 9.2636 278.241 8.97672 278.249 8.70325H281.209V13.1954ZM285.854 13.1954H285.106V9.8454L282.991 13.1954H282.307V8.70325H283.055V12.001L285.146 8.70325H285.854V13.1954ZM290.326 13.1954H289.57V11.442C289.334 11.5197 289.105 11.58 288.882 11.6229C288.66 11.6658 288.44 11.6873 288.223 11.6873C288.033 11.6873 287.846 11.6632 287.664 11.6149C287.484 11.564 287.329 11.4822 287.197 11.3696C287.066 11.257 286.964 11.1135 286.892 10.9393C286.822 10.7623 286.787 10.5545 286.787 10.3159V8.70325H287.543V9.92181C287.543 10.1202 287.551 10.2784 287.567 10.3963C287.583 10.5116 287.628 10.6242 287.7 10.7342C287.762 10.828 287.854 10.9004 287.978 10.9513C288.104 11.0023 288.268 11.0277 288.472 11.0277C288.649 11.0277 288.838 11.0103 289.039 10.9755C289.243 10.9406 289.42 10.899 289.57 10.8508V8.70325H290.326V13.1954ZM294.967 13.1954H294.219V9.8454L292.104 13.1954H291.42V8.70325H292.168V12.001L294.259 8.70325H294.967V13.1954ZM299.608 13.1954H298.852V11.1725H296.817V13.1954H296.061V8.70325H296.817V10.521H298.852V8.70325H299.608V13.1954ZM303.212 12.0895V10.8427C303.032 10.8588 302.804 10.8816 302.528 10.9111C302.254 10.9379 302.033 10.9768 301.864 11.0277C301.663 11.0894 301.497 11.1846 301.366 11.3133C301.234 11.4393 301.169 11.6162 301.169 11.8441C301.169 12.1015 301.241 12.2959 301.386 12.4273C301.531 12.5586 301.742 12.6243 302.021 12.6243C302.26 12.6243 302.476 12.5734 302.669 12.4715C302.862 12.367 303.043 12.2396 303.212 12.0895ZM303.212 12.7168C303.15 12.7624 303.067 12.8268 302.962 12.9099C302.86 12.9903 302.761 13.0547 302.665 13.1029C302.531 13.1726 302.401 13.2262 302.275 13.2638C302.151 13.3013 301.977 13.3201 301.752 13.3201C301.567 13.3201 301.391 13.2852 301.225 13.2155C301.059 13.1458 300.913 13.048 300.787 12.9219C300.666 12.7986 300.569 12.6471 300.497 12.4675C300.425 12.2852 300.388 12.0935 300.388 11.8924C300.388 11.5814 300.454 11.3173 300.585 11.1001C300.717 10.8803 300.925 10.706 301.209 10.5773C301.461 10.462 301.758 10.3829 302.102 10.34C302.445 10.2945 302.815 10.2609 303.212 10.2395V10.0947C303.212 9.91779 303.185 9.77569 303.131 9.66845C303.078 9.55852 303.002 9.47406 302.906 9.41508C302.809 9.35341 302.691 9.3132 302.552 9.29443C302.413 9.27298 302.269 9.26226 302.122 9.26226C301.947 9.26226 301.742 9.28907 301.506 9.34269C301.27 9.39363 301.035 9.4687 300.799 9.5679H300.754V8.79977C300.894 8.75955 301.094 8.71531 301.354 8.66705C301.614 8.61879 301.871 8.59466 302.126 8.59466C302.434 8.59466 302.694 8.61879 302.906 8.66705C303.118 8.71531 303.308 8.80245 303.477 8.92846C303.641 9.05179 303.763 9.21132 303.843 9.40704C303.923 9.60276 303.964 9.84138 303.964 10.1229V13.1954H303.212V12.7168Z" fill="#606580"/>
<path d="M110.817 13.1953L112.836 7.20702H113.817L115.836 13.1953H114.995L114.452 11.5223H112.164L111.621 13.1953H110.817ZM114.231 10.8426L113.306 8.01939L112.385 10.8426H114.231ZM119.528 9.36665C119.702 9.5436 119.837 9.76882 119.934 10.0423C120.03 10.3131 120.079 10.6282 120.079 10.9874C120.079 11.3333 120.024 11.6537 119.914 11.9486C119.804 12.2408 119.655 12.4875 119.467 12.6886C119.274 12.8977 119.06 13.0559 118.824 13.1631C118.591 13.2677 118.336 13.32 118.06 13.32C117.778 13.32 117.52 13.2717 117.284 13.1752C117.05 13.076 116.851 12.9245 116.684 12.7208C116.478 12.4661 116.322 12.147 116.218 11.7636C116.116 11.3802 116.065 10.9056 116.065 10.3399C116.065 10.1388 116.073 9.93505 116.089 9.7286C116.108 9.51947 116.147 9.27013 116.206 8.98057C116.259 8.72318 116.332 8.48457 116.423 8.26472C116.514 8.04218 116.633 7.85451 116.781 7.70168C116.971 7.50328 117.219 7.3451 117.525 7.22713C117.833 7.10916 118.241 7.02738 118.748 6.9818C118.927 6.96572 119.119 6.95097 119.323 6.93757C119.529 6.92148 119.686 6.90942 119.793 6.90137V7.59712C119.654 7.60516 119.505 7.61589 119.347 7.62929C119.189 7.64002 119.008 7.65342 118.804 7.66951C118.533 7.69096 118.25 7.73922 117.955 7.81429C117.66 7.88668 117.438 8.00063 117.288 8.15613C117.175 8.27142 117.085 8.43631 117.018 8.65079C116.951 8.86528 116.904 9.1039 116.877 9.36665C117.076 9.22455 117.288 9.10524 117.513 9.00872C117.741 8.90952 117.986 8.85992 118.249 8.85992C118.493 8.85992 118.725 8.90148 118.945 8.98459C119.164 9.06503 119.359 9.19238 119.528 9.36665ZM119.311 11.0317C119.311 10.5544 119.203 10.1885 118.989 9.9337C118.774 9.679 118.469 9.55165 118.072 9.55165C117.855 9.55165 117.644 9.58784 117.44 9.66023C117.237 9.73262 117.045 9.82914 116.865 9.94979C116.86 10.0169 116.855 10.0973 116.849 10.1911C116.844 10.2823 116.841 10.3654 116.841 10.4405C116.841 10.907 116.879 11.2864 116.954 11.5786C117.029 11.8708 117.133 12.1001 117.268 12.2663C117.388 12.4165 117.516 12.521 117.65 12.58C117.784 12.6363 117.93 12.6645 118.088 12.6645C118.474 12.6645 118.774 12.5183 118.989 12.2261C119.203 11.9339 119.311 11.5357 119.311 11.0317ZM122.657 13.2959C122.348 13.2959 122.065 13.2489 121.808 13.1551C121.551 13.0586 121.329 12.9138 121.144 12.7208C120.959 12.5277 120.816 12.2851 120.714 11.9928C120.612 11.6979 120.561 11.3521 120.561 10.9552C120.561 10.5611 120.614 10.2206 120.718 9.9337C120.825 9.64683 120.967 9.40553 121.144 9.20981C121.321 9.01408 121.541 8.86394 121.804 8.75938C122.069 8.65214 122.354 8.59851 122.657 8.59851C122.903 8.59851 123.141 8.63337 123.368 8.70308C123.599 8.77279 123.804 8.85322 123.984 8.94438V9.79295H123.939C123.886 9.74737 123.816 9.69509 123.73 9.6361C123.647 9.57712 123.545 9.51679 123.425 9.45513C123.32 9.4015 123.197 9.35459 123.055 9.31437C122.913 9.27415 122.776 9.25404 122.644 9.25404C122.253 9.25404 121.938 9.40285 121.699 9.70045C121.463 9.99537 121.345 10.4137 121.345 10.9552C121.345 11.4861 121.459 11.9003 121.687 12.1979C121.918 12.4929 122.237 12.6403 122.644 12.6403C122.891 12.6403 123.126 12.5894 123.348 12.4875C123.571 12.3856 123.768 12.2542 123.939 12.0934H123.984V12.9419C123.909 12.9768 123.815 13.0197 123.702 13.0706C123.59 13.1189 123.488 13.1551 123.397 13.1792C123.268 13.2168 123.153 13.2449 123.051 13.2637C122.949 13.2851 122.817 13.2959 122.657 13.2959ZM128.371 10.9512C128.371 11.7073 128.189 12.2918 127.824 12.7047C127.46 13.1149 126.974 13.32 126.369 13.32C125.744 13.32 125.252 13.1082 124.893 12.6846C124.536 12.2583 124.358 11.6805 124.358 10.9512C124.358 10.2005 124.541 9.61733 124.909 9.20176C125.279 8.78619 125.765 8.5784 126.369 8.5784C126.974 8.5784 127.46 8.78619 127.824 9.20176C128.189 9.61465 128.371 10.1978 128.371 10.9512ZM127.591 10.9512C127.591 10.3694 127.485 9.93773 127.273 9.65621C127.062 9.37201 126.76 9.22991 126.369 9.22991C125.974 9.22991 125.67 9.37201 125.456 9.65621C125.244 9.93773 125.138 10.3694 125.138 10.9512C125.138 11.5143 125.244 11.9419 125.456 12.2341C125.67 12.5237 125.974 12.6685 126.369 12.6685C126.757 12.6685 127.058 12.5264 127.269 12.2422C127.484 11.9553 127.591 11.525 127.591 10.9512ZM132.626 13.1953H131.87V9.3385H130.326C130.318 9.56103 130.31 9.77552 130.302 9.98196C130.294 10.1858 130.286 10.3708 130.278 10.537C130.262 10.9579 130.233 11.3105 130.193 11.5947C130.156 11.8789 130.107 12.1068 130.048 12.2784C129.989 12.4553 129.924 12.5934 129.851 12.6926C129.782 12.7918 129.703 12.8816 129.614 12.9621C129.523 13.0425 129.425 13.1028 129.32 13.143C129.216 13.1832 129.098 13.2034 128.967 13.2034C128.924 13.2034 128.869 13.202 128.802 13.1993C128.735 13.1967 128.688 13.1953 128.661 13.1953V12.5358H128.701C128.72 12.5358 128.739 12.5371 128.757 12.5398C128.779 12.5425 128.803 12.5438 128.83 12.5438C128.894 12.5438 128.957 12.5344 129.019 12.5157C129.08 12.4969 129.135 12.462 129.184 12.4111C129.318 12.2797 129.416 12.0505 129.477 11.7234C129.539 11.3936 129.583 10.9338 129.61 10.344C129.621 10.1241 129.63 9.864 129.638 9.56371C129.649 9.26343 129.658 8.97655 129.666 8.70308H132.626V13.1953ZM139.222 10.9512C139.222 11.7046 139.039 12.2878 138.675 12.7006C138.313 13.1135 137.833 13.32 137.235 13.32C136.648 13.32 136.181 13.1269 135.836 12.7409C135.492 12.3521 135.305 11.8226 135.273 11.1523H134.48V13.1953H133.724V8.70308H134.48V10.533H135.289C135.35 9.92164 135.554 9.44306 135.9 9.0972C136.246 8.75134 136.691 8.5784 137.235 8.5784C137.865 8.5784 138.353 8.79289 138.699 9.22187C139.048 9.65085 139.222 10.2273 139.222 10.9512ZM138.442 10.9512C138.442 10.3775 138.336 9.94711 138.124 9.66023C137.915 9.37335 137.618 9.22991 137.235 9.22991C136.846 9.22991 136.546 9.37469 136.334 9.66425C136.125 9.95381 136.021 10.3828 136.021 10.9512C136.021 11.5143 136.126 11.9419 136.338 12.2341C136.55 12.5237 136.849 12.6685 137.235 12.6685C137.618 12.6685 137.915 12.5277 138.124 12.2462C138.336 11.962 138.442 11.5303 138.442 10.9512ZM143.28 9.36665H141.751V13.1953H140.995V9.36665H139.467V8.70308H143.28V9.36665ZM147.39 13.1953H146.634V11.1724H144.599V13.1953H143.843V8.70308H144.599V10.5209H146.634V8.70308H147.39V13.1953ZM150.993 12.0894V10.8426C150.814 10.8587 150.586 10.8815 150.31 10.911C150.036 10.9378 149.815 10.9767 149.646 11.0276C149.445 11.0893 149.279 11.1845 149.147 11.3132C149.016 11.4392 148.95 11.6161 148.95 11.844C148.95 12.1014 149.023 12.2958 149.167 12.4272C149.312 12.5585 149.524 12.6242 149.803 12.6242C150.041 12.6242 150.257 12.5733 150.45 12.4714C150.643 12.3669 150.824 12.2395 150.993 12.0894ZM150.993 12.7167C150.932 12.7623 150.848 12.8267 150.744 12.9098C150.642 12.9902 150.543 13.0546 150.446 13.1028C150.312 13.1725 150.182 13.2261 150.056 13.2637C149.933 13.3012 149.759 13.32 149.533 13.32C149.348 13.32 149.173 13.2851 149.006 13.2154C148.84 13.1457 148.694 13.0479 148.568 12.9218C148.447 12.7985 148.351 12.647 148.279 12.4674C148.206 12.2851 148.17 12.0934 148.17 11.8923C148.17 11.5813 148.236 11.3172 148.367 11.1C148.498 10.8802 148.706 10.7059 148.99 10.5772C149.242 10.4619 149.54 10.3828 149.883 10.3399C150.226 10.2944 150.596 10.2608 150.993 10.2394V10.0946C150.993 9.91762 150.966 9.77552 150.913 9.66828C150.859 9.55835 150.784 9.47389 150.688 9.41491C150.591 9.35324 150.473 9.31303 150.334 9.29426C150.194 9.27281 150.051 9.26209 149.903 9.26209C149.729 9.26209 149.524 9.2889 149.288 9.34252C149.052 9.39346 148.816 9.46853 148.58 9.56773H148.536V8.7996C148.675 8.75938 148.875 8.71514 149.135 8.66688C149.395 8.61862 149.653 8.59449 149.907 8.59449C150.216 8.59449 150.476 8.61862 150.688 8.66688C150.899 8.71514 151.09 8.80228 151.259 8.92829C151.422 9.05162 151.544 9.21115 151.625 9.40687C151.705 9.60259 151.745 9.84121 151.745 10.1228V13.1953H150.993V12.7167ZM156.065 13.1953H155.308V11.4137H154.56L153.229 13.1953H152.348L153.792 11.3453C153.42 11.2354 153.146 11.0719 152.972 10.8547C152.8 10.6375 152.714 10.3466 152.714 9.98196C152.714 9.75943 152.763 9.56505 152.859 9.39882C152.958 9.22991 153.091 9.08782 153.257 8.97253C153.391 8.88137 153.56 8.81434 153.764 8.77144C153.968 8.72587 154.196 8.70308 154.448 8.70308H156.065V13.1953ZM155.308 10.8185V9.30633H154.488C154.314 9.30633 154.176 9.31571 154.074 9.33448C153.975 9.35324 153.878 9.38944 153.784 9.44306C153.688 9.50205 153.614 9.58248 153.563 9.68436C153.515 9.78356 153.491 9.89081 153.491 10.0061C153.491 10.1536 153.507 10.2742 153.539 10.3681C153.574 10.4592 153.635 10.5437 153.724 10.6214C153.818 10.7019 153.932 10.7555 154.066 10.7823C154.202 10.8064 154.351 10.8185 154.512 10.8185H155.308ZM163.259 11.836C163.259 12.0532 163.218 12.2462 163.135 12.4151C163.051 12.5813 162.938 12.7208 162.793 12.8334C162.61 12.9755 162.419 13.072 162.218 13.1229C162.019 13.1712 161.781 13.1953 161.502 13.1953H159.736V8.70308H161.385C161.715 8.70308 161.956 8.7138 162.109 8.73525C162.262 8.75402 162.413 8.80496 162.564 8.88807C162.722 8.97387 162.838 9.08782 162.913 9.22991C162.988 9.37201 163.026 9.54092 163.026 9.73664C163.026 9.95113 162.967 10.1442 162.849 10.3158C162.731 10.4847 162.574 10.6161 162.379 10.7099L162.399 10.7381C162.643 10.7997 162.846 10.9244 163.01 11.1121C163.176 11.2998 163.259 11.5411 163.259 11.836ZM162.25 9.85327C162.25 9.75139 162.232 9.66291 162.198 9.58784C162.165 9.51277 162.108 9.45379 162.025 9.41089C161.928 9.35995 161.82 9.33046 161.699 9.32241C161.581 9.31169 161.416 9.30633 161.204 9.30633H160.484V10.537H161.353C161.538 10.537 161.669 10.529 161.747 10.5129C161.825 10.4941 161.911 10.4566 162.005 10.4003C162.093 10.3466 162.156 10.2742 162.194 10.1831C162.231 10.0919 162.25 9.98196 162.25 9.85327ZM162.479 11.84C162.479 11.6872 162.456 11.5652 162.411 11.474C162.368 11.3802 162.271 11.2971 162.121 11.2247C162.027 11.1791 161.927 11.151 161.82 11.1402C161.712 11.1295 161.563 11.1242 161.373 11.1242H160.484V12.5921H161.14C161.411 12.5921 161.621 12.5813 161.771 12.5599C161.921 12.5384 162.05 12.4955 162.157 12.4312C162.27 12.3615 162.352 12.2811 162.403 12.1899C162.454 12.0987 162.479 11.9821 162.479 11.84ZM166.006 13.2999C165.29 13.2999 164.734 13.0988 164.337 12.6966C163.943 12.2918 163.746 11.718 163.746 10.9754C163.746 10.2434 163.938 9.66157 164.321 9.22991C164.704 8.79557 165.206 8.5784 165.825 8.5784C166.104 8.5784 166.351 8.61862 166.565 8.69905C166.78 8.77949 166.967 8.9055 167.128 9.07709C167.289 9.24868 167.412 9.45915 167.498 9.70849C167.584 9.95515 167.627 10.2582 167.627 10.6174V11.0276H164.514C164.514 11.5505 164.645 11.9499 164.908 12.2261C165.171 12.5022 165.534 12.6403 165.998 12.6403C166.164 12.6403 166.326 12.6216 166.485 12.584C166.646 12.5465 166.79 12.4982 166.919 12.4392C167.056 12.3776 167.171 12.3186 167.265 12.2623C167.359 12.2033 167.436 12.1483 167.498 12.0974H167.542V12.9218C167.454 12.9567 167.344 13.0009 167.213 13.0546C167.081 13.1055 166.963 13.1457 166.859 13.1752C166.711 13.2154 166.577 13.2463 166.456 13.2677C166.339 13.2892 166.188 13.2999 166.006 13.2999ZM166.891 10.4485C166.885 10.2448 166.861 10.0691 166.818 9.92164C166.776 9.77418 166.714 9.64951 166.633 9.54763C166.545 9.43502 166.431 9.34922 166.292 9.29024C166.155 9.23125 165.985 9.20176 165.781 9.20176C165.58 9.20176 165.408 9.2326 165.266 9.29426C165.127 9.35324 164.999 9.44038 164.884 9.55567C164.771 9.67364 164.686 9.80501 164.627 9.94979C164.568 10.0919 164.53 10.2582 164.514 10.4485H166.891ZM171.87 13.1953H171.114V9.3385H169.569C169.561 9.56103 169.553 9.77552 169.545 9.98196C169.537 10.1858 169.529 10.3708 169.521 10.537C169.505 10.9579 169.477 11.3105 169.437 11.5947C169.399 11.8789 169.351 12.1068 169.292 12.2784C169.233 12.4553 169.167 12.5934 169.095 12.6926C169.025 12.7918 168.946 12.8816 168.857 12.9621C168.766 13.0425 168.668 13.1028 168.564 13.143C168.459 13.1832 168.341 13.2034 168.21 13.2034C168.167 13.2034 168.112 13.202 168.045 13.1993C167.978 13.1967 167.931 13.1953 167.904 13.1953V12.5358H167.944C167.963 12.5358 167.982 12.5371 168.001 12.5398C168.022 12.5425 168.046 12.5438 168.073 12.5438C168.138 12.5438 168.201 12.5344 168.262 12.5157C168.324 12.4969 168.379 12.462 168.427 12.4111C168.561 12.2797 168.659 12.0505 168.721 11.7234C168.782 11.3936 168.827 10.9338 168.853 10.344C168.864 10.1241 168.873 9.864 168.882 9.56371C168.892 9.26343 168.902 8.97655 168.91 8.70308H171.87V13.1953ZM176.515 13.1953H175.767V9.84523L173.651 13.1953H172.968V8.70308H173.716V12.0009L175.807 8.70308H176.515V13.1953ZM180.987 13.1953H180.231V11.4419C179.995 11.5196 179.765 11.5799 179.543 11.6228C179.32 11.6657 179.101 11.6872 178.883 11.6872C178.693 11.6872 178.507 11.6631 178.324 11.6148C178.145 11.5639 177.989 11.4821 177.858 11.3695C177.727 11.2569 177.625 11.1134 177.552 10.9392C177.483 10.7622 177.448 10.5544 177.448 10.3158V8.70308H178.204V9.92164C178.204 10.1201 178.212 10.2783 178.228 10.3962C178.244 10.5115 178.288 10.6241 178.361 10.7341C178.422 10.8279 178.515 10.9003 178.638 10.9512C178.764 11.0022 178.929 11.0276 179.133 11.0276C179.31 11.0276 179.499 11.0102 179.7 10.9754C179.904 10.9405 180.081 10.8989 180.231 10.8507V8.70308H180.987V13.1953ZM185.628 13.1953H184.88V9.84523L182.764 13.1953H182.081V8.70308H182.829V12.0009L184.92 8.70308H185.628V13.1953ZM190.269 13.1953H189.513V11.1724H187.478V13.1953H186.722V8.70308H187.478V10.5209H189.513V8.70308H190.269V13.1953ZM193.872 12.0894V10.8426C193.693 10.8587 193.465 10.8815 193.188 10.911C192.915 10.9378 192.694 10.9767 192.525 11.0276C192.324 11.0893 192.158 11.1845 192.026 11.3132C191.895 11.4392 191.829 11.6161 191.829 11.844C191.829 12.1014 191.902 12.2958 192.046 12.4272C192.191 12.5585 192.403 12.6242 192.682 12.6242C192.92 12.6242 193.136 12.5733 193.329 12.4714C193.522 12.3669 193.703 12.2395 193.872 12.0894ZM193.872 12.7167C193.81 12.7623 193.727 12.8267 193.623 12.9098C193.521 12.9902 193.422 13.0546 193.325 13.1028C193.191 13.1725 193.061 13.2261 192.935 13.2637C192.812 13.3012 192.638 13.32 192.412 13.32C192.227 13.32 192.052 13.2851 191.885 13.2154C191.719 13.1457 191.573 13.0479 191.447 12.9218C191.326 12.7985 191.23 12.647 191.158 12.4674C191.085 12.2851 191.049 12.0934 191.049 11.8923C191.049 11.5813 191.115 11.3172 191.246 11.1C191.377 10.8802 191.585 10.7059 191.869 10.5772C192.121 10.4619 192.419 10.3828 192.762 10.3399C193.105 10.2944 193.475 10.2608 193.872 10.2394V10.0946C193.872 9.91762 193.845 9.77552 193.792 9.66828C193.738 9.55835 193.663 9.47389 193.567 9.41491C193.47 9.35324 193.352 9.31303 193.213 9.29426C193.073 9.27281 192.93 9.26209 192.782 9.26209C192.608 9.26209 192.403 9.2889 192.167 9.34252C191.931 9.39346 191.695 9.46853 191.459 9.56773H191.415V8.7996C191.554 8.75938 191.754 8.71514 192.014 8.66688C192.274 8.61862 192.532 8.59449 192.786 8.59449C193.095 8.59449 193.355 8.61862 193.567 8.66688C193.778 8.71514 193.969 8.80228 194.138 8.92829C194.301 9.05162 194.423 9.21115 194.504 9.40687C194.584 9.60259 194.624 9.84121 194.624 10.1228V13.1953H193.872V12.7167Z" fill="#606580"/>
<path opacity="0.5" d="M319 24.1953H5V45.1953H319V24.1953Z" fill="#EBF1F9"/>
<path d="M6.37273 24.1953H5V44.7862H6.37273V24.1953Z" fill="#8C99B2"/>
<path d="M35.9775 38.4638C35.8328 38.5014 35.6799 38.5295 35.5191 38.5483C35.3609 38.5671 35.2027 38.5764 35.0445 38.5764C34.5968 38.5764 34.2321 38.4504 33.9506 38.1984C33.6718 37.9464 33.519 37.5871 33.4922 37.1206C33.4573 37.1206 33.4238 37.1206 33.3916 37.1206C33.3594 37.1206 33.3313 37.1206 33.3072 37.1206C32.9023 37.1206 32.5363 37.0522 32.2092 36.9155C31.8848 36.7761 31.6073 36.5737 31.3768 36.3082C31.1462 36.0428 30.9692 35.7157 30.8459 35.3269C30.7226 34.9382 30.6609 34.4985 30.6609 34.0078C30.6609 33.5038 30.7226 33.0614 30.8459 32.6807C30.9719 32.3 31.1502 31.9729 31.3808 31.6994C31.6114 31.434 31.8889 31.2329 32.2133 31.0962C32.5404 30.9567 32.905 30.887 33.3072 30.887C33.7147 30.887 34.082 30.9581 34.4091 31.1002C34.7362 31.2423 35.0123 31.442 35.2376 31.6994C35.4655 31.9622 35.6424 32.2879 35.7684 32.6767C35.8944 33.0654 35.9574 33.5092 35.9574 34.0078C35.9574 34.7827 35.806 35.4221 35.503 35.9262C35.2 36.4302 34.7858 36.7721 34.2603 36.9517C34.2737 37.1018 34.2992 37.2359 34.3367 37.3539C34.3769 37.4745 34.4279 37.5697 34.4895 37.6394C34.5619 37.7225 34.6491 37.7828 34.7509 37.8204C34.8555 37.8606 34.9976 37.8807 35.1772 37.8807C35.2845 37.8807 35.4105 37.8633 35.5553 37.8284C35.7 37.7962 35.8046 37.7668 35.869 37.7399H35.9775V38.4638ZM35.129 34.0078C35.129 33.611 35.0861 33.2598 35.0003 32.9542C34.9145 32.6485 34.7938 32.3952 34.6383 32.1941C34.4801 31.9876 34.2884 31.8335 34.0632 31.7316C33.8407 31.627 33.59 31.5747 33.3112 31.5747C33.0216 31.5747 32.7683 31.6257 32.5511 31.7276C32.3366 31.8268 32.1462 31.9823 31.98 32.1941C31.8218 32.3978 31.6998 32.6539 31.614 32.9622C31.5309 33.2705 31.4894 33.6191 31.4894 34.0078C31.4894 34.7934 31.6543 35.3953 31.984 35.8136C32.3138 36.2318 32.7562 36.4409 33.3112 36.4409C33.8662 36.4409 34.3072 36.2318 34.6343 35.8136C34.9641 35.3953 35.129 34.7934 35.129 34.0078ZM43.0436 34.7559C43.0436 35.5119 42.8613 36.0964 42.4967 36.5093C42.132 36.9195 41.6467 37.1246 41.0408 37.1246C40.4161 37.1246 39.9241 36.9128 39.5649 36.4892C39.2083 36.0629 39.03 35.4851 39.03 34.7559C39.03 34.0052 39.2136 33.422 39.581 33.0064C39.9509 32.5909 40.4376 32.3831 41.0408 32.3831C41.6467 32.3831 42.132 32.5909 42.4967 33.0064C42.8613 33.4193 43.0436 34.0025 43.0436 34.7559ZM42.2634 34.7559C42.2634 34.1741 42.1575 33.7424 41.9457 33.4609C41.7339 33.1767 41.4323 33.0346 41.0408 33.0346C40.6467 33.0346 40.3424 33.1767 40.1279 33.4609C39.9161 33.7424 39.8102 34.1741 39.8102 34.7559C39.8102 35.3189 39.9161 35.7465 40.1279 36.0388C40.3424 36.3283 40.6467 36.4731 41.0408 36.4731C41.4296 36.4731 41.7299 36.331 41.9417 36.0468C42.1562 35.7599 42.2634 35.3296 42.2634 34.7559ZM47.0049 33.1713C47.1792 33.3483 47.3146 33.5735 47.4111 33.847C47.5076 34.1178 47.5559 34.4328 47.5559 34.7921C47.5559 35.1379 47.5009 35.4583 47.391 35.7532C47.2811 36.0455 47.1323 36.2921 46.9446 36.4932C46.7516 36.7024 46.5371 36.8605 46.3011 36.9678C46.0679 37.0723 45.8132 37.1246 45.537 37.1246C45.2555 37.1246 44.9968 37.0764 44.7609 36.9798C44.5276 36.8806 44.3279 36.7292 44.1616 36.5254C43.9552 36.2707 43.7997 35.9516 43.6951 35.5682C43.5932 35.1848 43.5423 34.7103 43.5423 34.1446C43.5423 33.9435 43.5503 33.7397 43.5664 33.5333C43.5852 33.3242 43.6241 33.0748 43.683 32.7853C43.7367 32.5279 43.8091 32.2892 43.9002 32.0694C43.9914 31.8469 44.1107 31.6592 44.2581 31.5064C44.4485 31.308 44.6965 31.1498 45.0022 31.0318C45.3105 30.9138 45.718 30.8321 46.2247 30.7865C46.4044 30.7704 46.5961 30.7557 46.7998 30.7423C47.0063 30.7262 47.1631 30.7141 47.2704 30.7061V31.4018C47.131 31.4098 46.9822 31.4206 46.824 31.434C46.6658 31.4447 46.4848 31.4581 46.281 31.4742C46.0102 31.4956 45.7274 31.5439 45.4325 31.619C45.1375 31.6914 44.915 31.8053 44.7649 31.9608C44.6523 32.0761 44.5625 32.241 44.4954 32.4555C44.4284 32.67 44.3815 32.9086 44.3547 33.1713C44.5531 33.0292 44.7649 32.9099 44.9901 32.8134C45.218 32.7142 45.4633 32.6646 45.7261 32.6646C45.97 32.6646 46.2019 32.7062 46.4218 32.7893C46.6417 32.8697 46.836 32.9971 47.0049 33.1713ZM46.7878 34.8363C46.7878 34.3591 46.6805 33.9931 46.466 33.7384C46.2515 33.4837 45.9459 33.3563 45.5491 33.3563C45.3319 33.3563 45.1215 33.3925 44.9177 33.4649C44.7139 33.5373 44.5222 33.6338 44.3426 33.7545C44.3372 33.8215 44.3319 33.9019 44.3265 33.9958C44.3212 34.0869 44.3185 34.17 44.3185 34.2451C44.3185 34.7116 44.356 35.091 44.4311 35.3832C44.5061 35.6755 44.6107 35.9047 44.7448 36.071C44.8654 36.2211 44.9928 36.3257 45.1268 36.3846C45.2609 36.4409 45.407 36.4691 45.5652 36.4691C45.9513 36.4691 46.2515 36.323 46.466 36.0307C46.6805 35.7385 46.7878 35.3404 46.7878 34.8363ZM54.1112 38.0778H53.4074V37H48.3482V32.5078H49.1042V36.3605H50.6285V32.5078H51.3845V36.3605H52.9087V32.5078H53.6648V36.3605H54.1112V38.0778ZM57.3647 35.894V34.6473C57.1851 34.6634 56.9572 34.6862 56.6811 34.7157C56.4076 34.7425 56.1864 34.7813 56.0175 34.8323C55.8164 34.8939 55.6502 34.9891 55.5188 35.1178C55.3874 35.2438 55.3217 35.4208 55.3217 35.6487C55.3217 35.9061 55.3941 36.1004 55.5389 36.2318C55.6837 36.3632 55.8955 36.4289 56.1743 36.4289C56.4129 36.4289 56.6288 36.3779 56.8218 36.2761C57.0149 36.1715 57.1958 36.0441 57.3647 35.894ZM57.3647 36.5214C57.3031 36.567 57.22 36.6313 57.1154 36.7144C57.0135 36.7949 56.9143 36.8592 56.8178 36.9075C56.6837 36.9772 56.5537 37.0308 56.4277 37.0683C56.3044 37.1059 56.1301 37.1246 55.9049 37.1246C55.7199 37.1246 55.5443 37.0898 55.378 37.0201C55.2118 36.9504 55.0657 36.8525 54.9397 36.7265C54.819 36.6032 54.7225 36.4517 54.6501 36.272C54.5777 36.0897 54.5415 35.898 54.5415 35.6969C54.5415 35.3859 54.6072 35.1218 54.7386 34.9047C54.87 34.6848 55.0778 34.5105 55.362 34.3819C55.614 34.2666 55.9116 34.1875 56.2548 34.1446C56.5979 34.099 56.9679 34.0655 57.3647 34.044V33.8993C57.3647 33.7223 57.3379 33.5802 57.2843 33.473C57.2307 33.363 57.1556 33.2786 57.0591 33.2196C56.9626 33.1579 56.8446 33.1177 56.7052 33.0989C56.5658 33.0775 56.4223 33.0668 56.2749 33.0668C56.1006 33.0668 55.8955 33.0936 55.6596 33.1472C55.4236 33.1981 55.1877 33.2732 54.9517 33.3724H54.9075V32.6043C55.0469 32.5641 55.2467 32.5198 55.5067 32.4716C55.7668 32.4233 56.0242 32.3992 56.2789 32.3992C56.5872 32.3992 56.8473 32.4233 57.0591 32.4716C57.2709 32.5198 57.4613 32.607 57.6302 32.733C57.7937 32.8563 57.9157 33.0158 57.9961 33.2116C58.0766 33.4073 58.1168 33.6459 58.1168 33.9274V37H57.3647V36.5214ZM62.4361 37H61.68V35.2184H60.932L59.6008 37H58.72L60.1638 35.15C59.7911 35.0401 59.5177 34.8765 59.3434 34.6593C59.1718 34.4422 59.086 34.1513 59.086 33.7866C59.086 33.5641 59.1343 33.3697 59.2308 33.2035C59.33 33.0346 59.4627 32.8925 59.6289 32.7772C59.763 32.6861 59.9319 32.619 60.1357 32.5761C60.3394 32.5305 60.5673 32.5078 60.8193 32.5078H62.4361V37ZM61.68 34.6232V33.111H60.8596C60.6853 33.111 60.5472 33.1204 60.4453 33.1392C60.3461 33.1579 60.2496 33.1941 60.1558 33.2477C60.0593 33.3067 59.9855 33.3872 59.9346 33.489C59.8863 33.5882 59.8622 33.6955 59.8622 33.8108C59.8622 33.9582 59.8783 34.0789 59.9105 34.1727C59.9453 34.2639 60.007 34.3483 60.0954 34.4261C60.1893 34.5065 60.3032 34.5601 60.4373 34.587C60.574 34.6111 60.7228 34.6232 60.8837 34.6232H61.68Z" fill="#303549"/>
<path d="M18.7272 39.2951C16.071 39.2951 13.9227 37.1468 13.9227 34.4906C13.9227 31.8344 16.071 29.686 18.7272 29.686C21.3835 29.686 23.5318 31.8344 23.5318 34.4906C23.5318 37.1468 21.3835 39.2951 18.7272 39.2951Z" stroke="#8C99B2" stroke-width="0.686364" stroke-miterlimit="10" stroke-linecap="round" stroke-linejoin="round"/>
<path d="M20.2853 32.9326L17.1692 36.0487" stroke="#8C99B2" stroke-width="0.686364" stroke-miterlimit="10" stroke-linecap="round" stroke-linejoin="round"/>
<path d="M17.1692 32.9326L20.2853 36.0487" stroke="#8C99B2" stroke-width="0.686364" stroke-miterlimit="10" stroke-linecap="round" stroke-linejoin="round"/>
<path d="M250.594 37H247.674V36.3887H248.76V32.375H247.674V31.8281C248.084 31.8281 248.386 31.7705 248.579 31.6552C248.774 31.5372 248.884 31.316 248.909 30.9916H249.532V36.3887H250.594V37ZM255.424 34.0038C255.424 35.0789 255.267 35.8685 254.953 36.3726C254.642 36.8739 254.161 37.1246 253.509 37.1246C252.85 37.1246 252.366 36.8686 252.058 36.3565C251.749 35.8444 251.595 35.0629 251.595 34.0119C251.595 32.9314 251.751 32.1418 252.062 31.6431C252.375 31.1417 252.858 30.8911 253.509 30.8911C254.169 30.8911 254.653 31.1498 254.961 31.6672C255.269 32.1847 255.424 32.9635 255.424 34.0038ZM254.394 35.8297C254.472 35.6313 254.527 35.3806 254.559 35.0776C254.591 34.7746 254.607 34.4167 254.607 34.0038C254.607 33.5936 254.591 33.237 254.559 32.9341C254.527 32.6311 254.471 32.3791 254.39 32.178C254.31 31.9742 254.198 31.8201 254.056 31.7155C253.917 31.6082 253.735 31.5546 253.509 31.5546C253.287 31.5546 253.103 31.6082 252.958 31.7155C252.816 31.8201 252.704 31.9769 252.621 32.186C252.54 32.3898 252.485 32.6472 252.456 32.9582C252.426 33.2692 252.411 33.6204 252.411 34.0119C252.411 34.4301 252.423 34.78 252.448 35.0615C252.474 35.343 252.531 35.5951 252.617 35.8176C252.694 36.024 252.804 36.1836 252.946 36.2962C253.091 36.4061 253.279 36.4611 253.509 36.4611C253.732 36.4611 253.914 36.4088 254.056 36.3042C254.201 36.197 254.314 36.0388 254.394 35.8297ZM259.92 34.0038C259.92 35.0789 259.763 35.8685 259.449 36.3726C259.138 36.8739 258.657 37.1246 258.006 37.1246C257.346 37.1246 256.862 36.8686 256.554 36.3565C256.245 35.8444 256.091 35.0629 256.091 34.0119C256.091 32.9314 256.247 32.1418 256.558 31.6431C256.871 31.1417 257.354 30.8911 258.006 30.8911C258.665 30.8911 259.149 31.1498 259.457 31.6672C259.766 32.1847 259.92 32.9635 259.92 34.0038ZM258.89 35.8297C258.968 35.6313 259.023 35.3806 259.055 35.0776C259.087 34.7746 259.103 34.4167 259.103 34.0038C259.103 33.5936 259.087 33.237 259.055 32.9341C259.023 32.6311 258.967 32.3791 258.886 32.178C258.806 31.9742 258.695 31.8201 258.552 31.7155C258.413 31.6082 258.231 31.5546 258.006 31.5546C257.783 31.5546 257.599 31.6082 257.455 31.7155C257.312 31.8201 257.2 31.9769 257.117 32.186C257.036 32.3898 256.981 32.6472 256.952 32.9582C256.922 33.2692 256.908 33.6204 256.908 34.0119C256.908 34.4301 256.92 34.78 256.944 35.0615C256.971 35.343 257.027 35.5951 257.113 35.8176C257.19 36.024 257.3 36.1836 257.443 36.2962C257.587 36.4061 257.775 36.4611 258.006 36.4611C258.228 36.4611 258.41 36.4088 258.552 36.3042C258.697 36.197 258.81 36.0388 258.89 35.8297ZM264.416 34.0038C264.416 35.0789 264.259 35.8685 263.946 36.3726C263.635 36.8739 263.153 37.1246 262.502 37.1246C261.842 37.1246 261.358 36.8686 261.05 36.3565C260.742 35.8444 260.587 35.0629 260.587 34.0119C260.587 32.9314 260.743 32.1418 261.054 31.6431C261.368 31.1417 261.85 30.8911 262.502 30.8911C263.161 30.8911 263.645 31.1498 263.954 31.6672C264.262 32.1847 264.416 32.9635 264.416 34.0038ZM263.387 35.8297C263.464 35.6313 263.519 35.3806 263.551 35.0776C263.584 34.7746 263.6 34.4167 263.6 34.0038C263.6 33.5936 263.584 33.237 263.551 32.9341C263.519 32.6311 263.463 32.3791 263.383 32.178C263.302 31.9742 263.191 31.8201 263.049 31.7155C262.909 31.6082 262.727 31.5546 262.502 31.5546C262.279 31.5546 262.096 31.6082 261.951 31.7155C261.809 31.8201 261.696 31.9769 261.613 32.186C261.533 32.3898 261.478 32.6472 261.448 32.9582C261.419 33.2692 261.404 33.6204 261.404 34.0119C261.404 34.4301 261.416 34.78 261.44 35.0615C261.467 35.343 261.523 35.5951 261.609 35.8176C261.687 36.024 261.797 36.1836 261.939 36.2962C262.084 36.4061 262.271 36.4611 262.502 36.4611C262.724 36.4611 262.907 36.4088 263.049 36.3042C263.193 36.197 263.306 36.0388 263.387 35.8297Z" fill="#303549"/>
<path d="M146.933 37H144.013V36.3887H145.099V32.375H144.013V31.8281C144.423 31.8281 144.725 31.7705 144.918 31.6552C145.114 31.5372 145.224 31.316 145.248 30.9916H145.871V36.3887H146.933V37ZM151.763 34.0038C151.763 35.0789 151.606 35.8685 151.292 36.3726C150.981 36.8739 150.5 37.1246 149.849 37.1246C149.189 37.1246 148.705 36.8686 148.397 36.3565C148.088 35.8444 147.934 35.0629 147.934 34.0119C147.934 32.9314 148.09 32.1418 148.401 31.6431C148.714 31.1417 149.197 30.8911 149.849 30.8911C150.508 30.8911 150.992 31.1498 151.3 31.6672C151.609 32.1847 151.763 32.9635 151.763 34.0038ZM150.733 35.8297C150.811 35.6313 150.866 35.3806 150.898 35.0776C150.93 34.7746 150.946 34.4167 150.946 34.0038C150.946 33.5936 150.93 33.237 150.898 32.9341C150.866 32.6311 150.81 32.3791 150.729 32.178C150.649 31.9742 150.538 31.8201 150.395 31.7155C150.256 31.6082 150.074 31.5546 149.849 31.5546C149.626 31.5546 149.442 31.6082 149.298 31.7155C149.155 31.8201 149.043 31.9769 148.96 32.186C148.879 32.3898 148.824 32.6472 148.795 32.9582C148.765 33.2692 148.751 33.6204 148.751 34.0119C148.751 34.4301 148.763 34.78 148.787 35.0615C148.814 35.343 148.87 35.5951 148.956 35.8176C149.033 36.024 149.143 36.1836 149.285 36.2962C149.43 36.4061 149.618 36.4611 149.849 36.4611C150.071 36.4611 150.253 36.4088 150.395 36.3042C150.54 36.197 150.653 36.0388 150.733 35.8297ZM156.259 34.0038C156.259 35.0789 156.102 35.8685 155.788 36.3726C155.477 36.8739 154.996 37.1246 154.345 37.1246C153.685 37.1246 153.201 36.8686 152.893 36.3565C152.585 35.8444 152.43 35.0629 152.43 34.0119C152.43 32.9314 152.586 32.1418 152.897 31.6431C153.211 31.1417 153.693 30.8911 154.345 30.8911C155.004 30.8911 155.488 31.1498 155.797 31.6672C156.105 32.1847 156.259 32.9635 156.259 34.0038ZM155.229 35.8297C155.307 35.6313 155.362 35.3806 155.394 35.0776C155.427 34.7746 155.443 34.4167 155.443 34.0038C155.443 33.5936 155.427 33.237 155.394 32.9341C155.362 32.6311 155.306 32.3791 155.225 32.178C155.145 31.9742 155.034 31.8201 154.892 31.7155C154.752 31.6082 154.57 31.5546 154.345 31.5546C154.122 31.5546 153.939 31.6082 153.794 31.7155C153.652 31.8201 153.539 31.9769 153.456 32.186C153.376 32.3898 153.321 32.6472 153.291 32.9582C153.262 33.2692 153.247 33.6204 153.247 34.0119C153.247 34.4301 153.259 34.78 153.283 35.0615C153.31 35.343 153.366 35.5951 153.452 35.8176C153.53 36.024 153.64 36.1836 153.782 36.2962C153.926 36.4061 154.114 36.4611 154.345 36.4611C154.567 36.4611 154.75 36.4088 154.892 36.3042C155.036 36.197 155.149 36.0388 155.229 35.8297ZM160.755 34.0038C160.755 35.0789 160.598 35.8685 160.285 36.3726C159.974 36.8739 159.492 37.1246 158.841 37.1246C158.181 37.1246 157.697 36.8686 157.389 36.3565C157.081 35.8444 156.927 35.0629 156.927 34.0119C156.927 32.9314 157.082 32.1418 157.393 31.6431C157.707 31.1417 158.189 30.8911 158.841 30.8911C159.5 30.8911 159.984 31.1498 160.293 31.6672C160.601 32.1847 160.755 32.9635 160.755 34.0038ZM159.726 35.8297C159.803 35.6313 159.858 35.3806 159.891 35.0776C159.923 34.7746 159.939 34.4167 159.939 34.0038C159.939 33.5936 159.923 33.237 159.891 32.9341C159.858 32.6311 159.802 32.3791 159.722 32.178C159.641 31.9742 159.53 31.8201 159.388 31.7155C159.248 31.6082 159.066 31.5546 158.841 31.5546C158.618 31.5546 158.435 31.6082 158.29 31.7155C158.148 31.8201 158.035 31.9769 157.952 32.186C157.872 32.3898 157.817 32.6472 157.787 32.9582C157.758 33.2692 157.743 33.6204 157.743 34.0119C157.743 34.4301 157.755 34.78 157.779 35.0615C157.806 35.343 157.862 35.5951 157.948 35.8176C158.026 36.024 158.136 36.1836 158.278 36.2962C158.423 36.4061 158.61 36.4611 158.841 36.4611C159.063 36.4611 159.246 36.4088 159.388 36.3042C159.533 36.197 159.645 36.0388 159.726 35.8297Z" fill="#303549"/>
<path opacity="0.5" d="M319 51H17V68H319V51Z" fill="#EBF1F9"/>
<path d="M27.7411 63.9211C27.5963 63.9586 27.4435 63.9867 27.2827 64.0055C27.1245 64.0243 26.9663 64.0337 26.8081 64.0337C26.3604 64.0337 25.9957 63.9077 25.7142 63.6556C25.4354 63.4036 25.2825 63.0443 25.2557 62.5778C25.2209 62.5778 25.1874 62.5778 25.1552 62.5778C25.123 62.5778 25.0949 62.5778 25.0707 62.5778C24.6659 62.5778 24.2999 62.5095 23.9728 62.3727C23.6484 62.2333 23.3709 62.0309 23.1403 61.7654C22.9098 61.5 22.7328 61.1729 22.6095 60.7842C22.4862 60.3954 22.4245 59.9557 22.4245 59.4651C22.4245 58.961 22.4862 58.5186 22.6095 58.1379C22.7355 57.7572 22.9138 57.4301 23.1444 57.1566C23.3749 56.8912 23.6524 56.6901 23.9768 56.5534C24.3039 56.414 24.6686 56.3442 25.0707 56.3442C25.4783 56.3442 25.8456 56.4153 26.1727 56.5574C26.4998 56.6995 26.7759 56.8992 27.0011 57.1566C27.229 57.4194 27.406 57.7451 27.532 58.1339C27.658 58.5226 27.721 58.9664 27.721 59.4651C27.721 60.2399 27.5695 60.8793 27.2666 61.3834C26.9636 61.8874 26.5494 62.2293 26.0239 62.4089C26.0373 62.5591 26.0628 62.6931 26.1003 62.8111C26.1405 62.9317 26.1914 63.0269 26.2531 63.0966C26.3255 63.1797 26.4126 63.2401 26.5145 63.2776C26.6191 63.3178 26.7612 63.3379 26.9408 63.3379C27.0481 63.3379 27.1741 63.3205 27.3188 63.2856C27.4636 63.2535 27.5682 63.224 27.6325 63.1972H27.7411V63.9211ZM26.8926 59.4651C26.8926 59.0683 26.8497 58.717 26.7639 58.4114C26.6781 58.1057 26.5574 57.8524 26.4019 57.6513C26.2437 57.4448 26.052 57.2907 25.8268 57.1888C25.6043 57.0842 25.3536 57.032 25.0748 57.032C24.7852 57.032 24.5318 57.0829 24.3147 57.1848C24.1002 57.284 23.9098 57.4395 23.7436 57.6513C23.5854 57.8551 23.4634 58.1111 23.3776 58.4194C23.2945 58.7278 23.2529 59.0763 23.2529 59.4651C23.2529 60.2506 23.4178 60.8525 23.7476 61.2708C24.0774 61.689 24.5198 61.8982 25.0748 61.8982C25.6298 61.8982 26.0708 61.689 26.3979 61.2708C26.7277 60.8525 26.8926 60.2506 26.8926 59.4651ZM31.8191 62.4572H28.8994V61.8459H29.9852V57.8323H28.8994V57.2853C29.3096 57.2853 29.6112 57.2277 29.8042 57.1124C30 56.9944 30.1099 56.7732 30.134 56.4488H30.7574V61.8459H31.8191V62.4572Z" fill="#606580"/>
<path d="M250.042 63.2525H246.346V62.412C246.611 62.1599 246.862 61.9186 247.098 61.6881C247.334 61.4575 247.564 61.2175 247.79 60.9682C248.245 60.4668 248.556 60.066 248.723 59.7657C248.889 59.4627 248.972 59.1504 248.972 58.8287C248.972 58.6624 248.945 58.5163 248.891 58.3903C248.841 58.2643 248.769 58.1597 248.678 58.0766C248.584 57.9962 248.476 57.9358 248.353 57.8956C248.229 57.8554 248.094 57.8353 247.946 57.8353C247.804 57.8353 247.659 57.8541 247.512 57.8916C247.367 57.9265 247.228 57.9707 247.094 58.0243C246.981 58.0699 246.873 58.1249 246.768 58.1892C246.663 58.2536 246.579 58.3085 246.515 58.3541H246.47V57.5015C246.637 57.4184 246.867 57.338 247.162 57.2602C247.46 57.1798 247.741 57.1396 248.007 57.1396C248.564 57.1396 249.001 57.2884 249.318 57.586C249.634 57.8809 249.792 58.2817 249.792 58.7884C249.792 59.0217 249.764 59.2375 249.708 59.4359C249.654 59.6343 249.579 59.818 249.483 59.9869C249.383 60.1612 249.264 60.3341 249.125 60.5057C248.985 60.6773 248.838 60.8462 248.682 61.0124C248.43 61.2859 248.149 61.5701 247.838 61.865C247.529 62.1599 247.283 62.3932 247.098 62.5648H250.042V63.2525ZM254.538 63.2525H250.842V62.412C251.107 62.1599 251.358 61.9186 251.594 61.6881C251.83 61.4575 252.061 61.2175 252.286 60.9682C252.742 60.4668 253.053 60.066 253.219 59.7657C253.385 59.4627 253.468 59.1504 253.468 58.8287C253.468 58.6624 253.441 58.5163 253.388 58.3903C253.337 58.2643 253.266 58.1597 253.175 58.0766C253.081 57.9962 252.972 57.9358 252.849 57.8956C252.725 57.8554 252.59 57.8353 252.443 57.8353C252.3 57.8353 252.156 57.8541 252.008 57.8916C251.863 57.9265 251.724 57.9707 251.59 58.0243C251.477 58.0699 251.369 58.1249 251.264 58.1892C251.16 58.2536 251.075 58.3085 251.011 58.3541H250.967V57.5015C251.133 57.4184 251.363 57.338 251.658 57.2602C251.956 57.1798 252.237 57.1396 252.503 57.1396C253.061 57.1396 253.498 57.2884 253.814 57.586C254.13 57.8809 254.289 58.2817 254.289 58.7884C254.289 59.0217 254.26 59.2375 254.204 59.4359C254.15 59.6343 254.075 59.818 253.979 59.9869C253.88 60.1612 253.76 60.3341 253.621 60.5057C253.482 60.6773 253.334 60.8462 253.179 61.0124C252.927 61.2859 252.645 61.5701 252.334 61.865C252.026 62.1599 251.779 62.3932 251.594 62.5648H254.538V63.2525ZM259.191 61.1934H258.479V63.2525H257.707V61.1934H255.061V60.3488L257.739 57.2642H258.479V60.5499H259.191V61.1934ZM257.707 60.5499V58.2093L255.688 60.5499H257.707ZM261.041 63.2525H260.08V62.1063H261.041V63.2525ZM265.155 59.7255C265.155 59.318 265.118 58.9868 265.042 58.7321C264.967 58.4748 264.864 58.2763 264.733 58.1369C264.615 58.0082 264.496 57.9198 264.375 57.8715C264.254 57.8232 264.121 57.7991 263.977 57.7991C263.647 57.7991 263.384 57.9171 263.188 58.153C262.993 58.389 262.895 58.7308 262.895 59.1785C262.895 59.4306 262.927 59.6384 262.991 59.8019C263.056 59.9654 263.16 60.1062 263.305 60.2242C263.407 60.3073 263.522 60.3636 263.651 60.3931C263.78 60.4199 263.918 60.4333 264.065 60.4333C264.237 60.4333 264.422 60.4038 264.62 60.3448C264.819 60.2832 264.992 60.2027 265.139 60.1035C265.142 60.0633 265.144 60.011 265.147 59.9467C265.152 59.8797 265.155 59.8059 265.155 59.7255ZM262.078 59.2107C262.078 58.9024 262.128 58.6209 262.227 58.3662C262.329 58.1115 262.467 57.8916 262.642 57.7066C262.808 57.5297 263.01 57.3916 263.249 57.2924C263.49 57.1932 263.734 57.1436 263.981 57.1436C264.257 57.1436 264.506 57.1905 264.729 57.2843C264.954 57.3755 265.148 57.5082 265.312 57.6825C265.518 57.9023 265.678 58.1906 265.79 58.5471C265.906 58.9037 265.963 59.3542 265.963 59.8984C265.963 60.3944 265.907 60.865 265.795 61.31C265.685 61.7524 265.521 62.1197 265.304 62.412C265.073 62.723 264.796 62.9602 264.471 63.1238C264.15 63.2873 263.751 63.3691 263.277 63.3691C263.17 63.3691 263.056 63.3624 262.935 63.349C262.814 63.3383 262.702 63.3168 262.597 63.2847V62.5165H262.637C262.705 62.5541 262.809 62.5903 262.951 62.6251C263.093 62.66 263.238 62.6774 263.386 62.6774C263.911 62.6774 264.324 62.5045 264.624 62.1586C264.924 61.8127 265.095 61.3181 265.135 60.6746C264.92 60.8194 264.715 60.9253 264.52 60.9923C264.327 61.0593 264.116 61.0929 263.888 61.0929C263.666 61.0929 263.463 61.0687 263.281 61.0205C263.099 60.9722 262.915 60.8784 262.73 60.7389C262.516 60.5754 262.353 60.369 262.243 60.1196C262.133 59.8676 262.078 59.5646 262.078 59.2107Z" fill="#606580"/>
<path d="M17.3545 50.9634H15.9818V68.433H17.3545V50.9634Z" fill="#8C99B2"/>
<path d="M146.447 63.2525H142.751V62.412C143.016 62.1599 143.267 61.9186 143.503 61.6881C143.739 61.4575 143.969 61.2175 144.194 60.9682C144.65 60.4668 144.961 60.066 145.128 59.7657C145.294 59.4627 145.377 59.1504 145.377 58.8287C145.377 58.6624 145.35 58.5163 145.296 58.3903C145.245 58.2643 145.174 58.1597 145.083 58.0766C144.989 57.9962 144.881 57.9358 144.758 57.8956C144.634 57.8554 144.499 57.8353 144.351 57.8353C144.209 57.8353 144.064 57.8541 143.917 57.8916C143.772 57.9265 143.633 57.9707 143.499 58.0243C143.386 58.0699 143.278 58.1249 143.173 58.1892C143.068 58.2536 142.984 58.3085 142.92 58.3541H142.875V57.5015C143.042 57.4184 143.272 57.338 143.567 57.2602C143.865 57.1798 144.146 57.1396 144.412 57.1396C144.969 57.1396 145.406 57.2884 145.723 57.586C146.039 57.8809 146.197 58.2817 146.197 58.7884C146.197 59.0217 146.169 59.2375 146.113 59.4359C146.059 59.6343 145.984 59.818 145.888 59.9869C145.788 60.1612 145.669 60.3341 145.53 60.5057C145.39 60.6773 145.243 60.8462 145.087 61.0124C144.835 61.2859 144.554 61.5701 144.243 61.865C143.934 62.1599 143.688 62.3932 143.503 62.5648H146.447V63.2525ZM150.943 63.2525H147.247V62.412C147.512 62.1599 147.763 61.9186 147.999 61.6881C148.235 61.4575 148.465 61.2175 148.691 60.9682C149.146 60.4668 149.457 60.066 149.624 59.7657C149.79 59.4627 149.873 59.1504 149.873 58.8287C149.873 58.6624 149.846 58.5163 149.793 58.3903C149.742 58.2643 149.671 58.1597 149.579 58.0766C149.486 57.9962 149.377 57.9358 149.254 57.8956C149.13 57.8554 148.995 57.8353 148.848 57.8353C148.705 57.8353 148.561 57.8541 148.413 57.8916C148.268 57.9265 148.129 57.9707 147.995 58.0243C147.882 58.0699 147.774 58.1249 147.669 58.1892C147.565 58.2536 147.48 58.3085 147.416 58.3541H147.372V57.5015C147.538 57.4184 147.768 57.338 148.063 57.2602C148.361 57.1798 148.642 57.1396 148.908 57.1396C149.466 57.1396 149.903 57.2884 150.219 57.586C150.535 57.8809 150.693 58.2817 150.693 58.7884C150.693 59.0217 150.665 59.2375 150.609 59.4359C150.555 59.6343 150.48 59.818 150.384 59.9869C150.285 60.1612 150.165 60.3341 150.026 60.5057C149.886 60.6773 149.739 60.8462 149.584 61.0124C149.331 61.2859 149.05 61.5701 148.739 61.865C148.431 62.1599 148.184 62.3932 147.999 62.5648H150.943V63.2525ZM155.596 61.1934H154.884V63.2525H154.112V61.1934H151.466V60.3488L154.144 57.2642H154.884V60.5499H155.596V61.1934ZM154.112 60.5499V58.2093L152.093 60.5499H154.112ZM157.446 63.2525H156.485V62.1063H157.446V63.2525ZM161.56 59.7255C161.56 59.318 161.522 58.9868 161.447 58.7321C161.372 58.4748 161.269 58.2763 161.138 58.1369C161.02 58.0082 160.9 57.9198 160.78 57.8715C160.659 57.8232 160.526 57.7991 160.382 57.7991C160.052 57.7991 159.789 57.9171 159.593 58.153C159.398 58.389 159.3 58.7308 159.3 59.1785C159.3 59.4306 159.332 59.6384 159.396 59.8019C159.461 59.9654 159.565 60.1062 159.71 60.2242C159.812 60.3073 159.927 60.3636 160.056 60.3931C160.185 60.4199 160.323 60.4333 160.47 60.4333C160.642 60.4333 160.827 60.4038 161.025 60.3448C161.224 60.2832 161.396 60.2027 161.544 60.1035C161.547 60.0633 161.549 60.011 161.552 59.9467C161.557 59.8797 161.56 59.8059 161.56 59.7255ZM158.483 59.2107C158.483 58.9024 158.533 58.6209 158.632 58.3662C158.734 58.1115 158.872 57.8916 159.046 57.7066C159.213 57.5297 159.415 57.3916 159.654 57.2924C159.895 57.1932 160.139 57.1436 160.386 57.1436C160.662 57.1436 160.911 57.1905 161.134 57.2843C161.359 57.3755 161.553 57.5082 161.717 57.6825C161.923 57.9023 162.083 58.1906 162.195 58.5471C162.311 58.9037 162.368 59.3542 162.368 59.8984C162.368 60.3944 162.312 60.865 162.199 61.31C162.09 61.7524 161.926 62.1197 161.709 62.412C161.478 62.723 161.201 62.9602 160.876 63.1238C160.555 63.2873 160.156 63.3691 159.682 63.3691C159.575 63.3691 159.461 63.3624 159.34 63.349C159.219 63.3383 159.107 63.3168 159.002 63.2847V62.5165H159.042C159.109 62.5541 159.214 62.5903 159.356 62.6251C159.498 62.66 159.643 62.6774 159.79 62.6774C160.316 62.6774 160.729 62.5045 161.029 62.1586C161.329 61.8127 161.5 61.3181 161.54 60.6746C161.325 60.8194 161.12 60.9253 160.925 60.9923C160.732 61.0593 160.521 61.0929 160.293 61.0929C160.071 61.0929 159.868 61.0687 159.686 61.0205C159.504 60.9722 159.32 60.8784 159.135 60.7389C158.92 60.5754 158.758 60.369 158.648 60.1196C158.538 59.8676 158.483 59.5646 158.483 59.2107Z" fill="#606580"/>
<path d="M6 60.1953H15" stroke="#C4D3E9" stroke-width="0.686364" stroke-miterlimit="10" stroke-dasharray="0.62 0.62"/>
<path d="M108.298 50.9634V68.433" stroke="#D7E2F2" stroke-width="0.686364"/>
<path d="M199.343 50.9634V68.433" stroke="#D7E2F2" stroke-width="0.686364"/>
<path d="M319 72H17V88H319V72Z" fill="#EBF1F9"/>
<path d="M27.7411 84.8849C27.5963 84.9224 27.4435 84.9506 27.2827 84.9693C27.1245 84.9881 26.9663 84.9975 26.8081 84.9975C26.3604 84.9975 25.9957 84.8715 25.7142 84.6195C25.4354 84.3674 25.2825 84.0082 25.2557 83.5416C25.2209 83.5416 25.1874 83.5416 25.1552 83.5416C25.123 83.5416 25.0949 83.5416 25.0707 83.5416C24.6659 83.5416 24.2999 83.4733 23.9728 83.3365C23.6484 83.1971 23.3709 82.9947 23.1403 82.7293C22.9098 82.4638 22.7328 82.1367 22.6095 81.748C22.4862 81.3592 22.4245 80.9195 22.4245 80.4289C22.4245 79.9248 22.4862 79.4825 22.6095 79.1017C22.7355 78.721 22.9138 78.3939 23.1444 78.1204C23.3749 77.855 23.6524 77.6539 23.9768 77.5172C24.3039 77.3778 24.6686 77.3081 25.0707 77.3081C25.4783 77.3081 25.8456 77.3791 26.1727 77.5212C26.4998 77.6633 26.7759 77.8631 27.0011 78.1204C27.229 78.3832 27.406 78.709 27.532 79.0977C27.658 79.4865 27.721 79.9302 27.721 80.4289C27.721 81.2037 27.5695 81.8432 27.2666 82.3472C26.9636 82.8513 26.5494 83.1931 26.0239 83.3727C26.0373 83.5229 26.0628 83.6569 26.1003 83.7749C26.1405 83.8956 26.1914 83.9907 26.2531 84.0604C26.3255 84.1436 26.4126 84.2039 26.5145 84.2414C26.6191 84.2816 26.7612 84.3017 26.9408 84.3017C27.0481 84.3017 27.1741 84.2843 27.3188 84.2495C27.4636 84.2173 27.5682 84.1878 27.6325 84.161H27.7411V84.8849ZM26.8926 80.4289C26.8926 80.0321 26.8497 79.6809 26.7639 79.3752C26.6781 79.0696 26.5574 78.8162 26.4019 78.6151C26.2437 78.4087 26.052 78.2545 25.8268 78.1526C25.6043 78.0481 25.3536 77.9958 25.0748 77.9958C24.7852 77.9958 24.5318 78.0467 24.3147 78.1486C24.1002 78.2478 23.9098 78.4033 23.7436 78.6151C23.5854 78.8189 23.4634 79.0749 23.3776 79.3832C23.2945 79.6916 23.2529 80.0401 23.2529 80.4289C23.2529 81.2144 23.4178 81.8164 23.7476 82.2346C24.0774 82.6529 24.5198 82.862 25.0748 82.862C25.6298 82.862 26.0708 82.6529 26.3979 82.2346C26.7277 81.8164 26.8926 81.2144 26.8926 80.4289ZM32.1247 83.421H28.4288V82.5805C28.6943 82.3284 28.9449 82.0871 29.1809 81.8566C29.4168 81.626 29.6474 81.386 29.8726 81.1367C30.3284 80.6353 30.6394 80.2345 30.8056 79.9342C30.9719 79.6313 31.055 79.3189 31.055 78.9972C31.055 78.8309 31.0282 78.6848 30.9745 78.5588C30.9236 78.4328 30.8525 78.3282 30.7614 78.2451C30.6676 78.1647 30.559 78.1044 30.4356 78.0641C30.3123 78.0239 30.1769 78.0038 30.0294 78.0038C29.8874 78.0038 29.7426 78.0226 29.5951 78.0601C29.4503 78.095 29.3109 78.1392 29.1769 78.1928C29.0643 78.2384 28.9557 78.2934 28.8511 78.3577C28.7465 78.4221 28.6621 78.477 28.5977 78.5226H28.5535V77.67C28.7197 77.5869 28.9503 77.5065 29.2452 77.4287C29.5428 77.3483 29.8243 77.3081 30.0898 77.3081C30.6474 77.3081 31.0845 77.4569 31.4008 77.7545C31.7172 78.0494 31.8754 78.4502 31.8754 78.957C31.8754 79.1902 31.8472 79.406 31.7909 79.6044C31.7373 79.8028 31.6622 79.9865 31.5657 80.1554C31.4665 80.3297 31.3472 80.5026 31.2078 80.6742C31.0684 80.8458 30.9209 81.0147 30.7654 81.1809C30.5134 81.4544 30.2319 81.7386 29.9209 82.0335C29.6125 82.3284 29.3659 82.5617 29.1809 82.7333H32.1247V83.421Z" fill="#303549"/>
<path d="M250.042 84.216H246.346V83.3754C246.611 83.1234 246.862 82.8821 247.098 82.6515C247.334 82.421 247.564 82.181 247.79 81.9317C248.245 81.4303 248.556 81.0295 248.723 80.7292C248.889 80.4262 248.972 80.1139 248.972 79.7921C248.972 79.6259 248.945 79.4798 248.891 79.3538C248.841 79.2278 248.769 79.1232 248.678 79.0401C248.584 78.9597 248.476 78.8993 248.353 78.8591C248.229 78.8189 248.094 78.7988 247.946 78.7988C247.804 78.7988 247.659 78.8176 247.512 78.8551C247.367 78.8899 247.228 78.9342 247.094 78.9878C246.981 79.0334 246.873 79.0883 246.768 79.1527C246.663 79.217 246.579 79.272 246.515 79.3176H246.47V78.465C246.637 78.3819 246.867 78.3014 247.162 78.2237C247.46 78.1433 247.741 78.103 248.007 78.103C248.564 78.103 249.001 78.2518 249.318 78.5494C249.634 78.8444 249.792 79.2452 249.792 79.7519C249.792 79.9852 249.764 80.201 249.708 80.3994C249.654 80.5978 249.579 80.7815 249.483 80.9504C249.383 81.1246 249.264 81.2976 249.125 81.4692C248.985 81.6408 248.838 81.8097 248.682 81.9759C248.43 82.2494 248.149 82.5336 247.838 82.8285C247.529 83.1234 247.283 83.3567 247.098 83.5283H250.042V84.216ZM254.538 84.216H250.842V83.3754C251.107 83.1234 251.358 82.8821 251.594 82.6515C251.83 82.421 252.061 82.181 252.286 81.9317C252.742 81.4303 253.053 81.0295 253.219 80.7292C253.385 80.4262 253.468 80.1139 253.468 79.7921C253.468 79.6259 253.441 79.4798 253.388 79.3538C253.337 79.2278 253.266 79.1232 253.175 79.0401C253.081 78.9597 252.972 78.8993 252.849 78.8591C252.725 78.8189 252.59 78.7988 252.443 78.7988C252.3 78.7988 252.156 78.8176 252.008 78.8551C251.863 78.8899 251.724 78.9342 251.59 78.9878C251.477 79.0334 251.369 79.0883 251.264 79.1527C251.16 79.217 251.075 79.272 251.011 79.3176H250.967V78.465C251.133 78.3819 251.363 78.3014 251.658 78.2237C251.956 78.1433 252.237 78.103 252.503 78.103C253.061 78.103 253.498 78.2518 253.814 78.5494C254.13 78.8444 254.289 79.2452 254.289 79.7519C254.289 79.9852 254.26 80.201 254.204 80.3994C254.15 80.5978 254.075 80.7815 253.979 80.9504C253.88 81.1246 253.76 81.2976 253.621 81.4692C253.482 81.6408 253.334 81.8097 253.179 81.9759C252.927 82.2494 252.645 82.5336 252.334 82.8285C252.026 83.1234 251.779 83.3567 251.594 83.5283H254.538V84.216ZM259.191 82.1569H258.479V84.216H257.707V82.1569H255.061V81.3123L257.739 78.2277H258.479V81.5134H259.191V82.1569ZM257.707 81.5134V79.1728L255.688 81.5134H257.707ZM261.041 84.216H260.08V83.0698H261.041V84.216ZM265.155 80.689C265.155 80.2814 265.118 79.9503 265.042 79.6956C264.967 79.4382 264.864 79.2398 264.733 79.1004C264.615 78.9717 264.496 78.8832 264.375 78.835C264.254 78.7867 264.121 78.7626 263.977 78.7626C263.647 78.7626 263.384 78.8806 263.188 79.1165C262.993 79.3524 262.895 79.6943 262.895 80.142C262.895 80.394 262.927 80.6018 262.991 80.7654C263.056 80.9289 263.16 81.0697 263.305 81.1877C263.407 81.2708 263.522 81.3271 263.651 81.3566C263.78 81.3834 263.918 81.3968 264.065 81.3968C264.237 81.3968 264.422 81.3673 264.62 81.3083C264.819 81.2466 264.992 81.1662 265.139 81.067C265.142 81.0268 265.144 80.9745 265.147 80.9102C265.152 80.8431 265.155 80.7694 265.155 80.689ZM262.078 80.1742C262.078 79.8659 262.128 79.5844 262.227 79.3296C262.329 79.0749 262.467 78.8551 262.642 78.6701C262.808 78.4931 263.01 78.3551 263.249 78.2559C263.49 78.1567 263.734 78.1071 263.981 78.1071C264.257 78.1071 264.506 78.154 264.729 78.2478C264.954 78.339 265.148 78.4717 265.312 78.646C265.518 78.8658 265.678 79.154 265.79 79.5106C265.906 79.8672 265.963 80.3176 265.963 80.8619C265.963 81.3579 265.907 81.8284 265.795 82.2735C265.685 82.7159 265.521 83.0832 265.304 83.3754C265.073 83.6864 264.796 83.9237 264.471 84.0873C264.15 84.2508 263.751 84.3326 263.277 84.3326C263.17 84.3326 263.056 84.3259 262.935 84.3125C262.814 84.3018 262.702 84.2803 262.597 84.2481V83.48H262.637C262.705 83.5175 262.809 83.5537 262.951 83.5886C263.093 83.6234 263.238 83.6409 263.386 83.6409C263.911 83.6409 264.324 83.4679 264.624 83.1221C264.924 82.7762 265.095 82.2815 265.135 81.6381C264.92 81.7829 264.715 81.8888 264.52 81.9558C264.327 82.0228 264.116 82.0563 263.888 82.0563C263.666 82.0563 263.463 82.0322 263.281 81.9839C263.099 81.9357 262.915 81.8418 262.73 81.7024C262.516 81.5389 262.353 81.3324 262.243 81.0831C262.133 80.8311 262.078 80.5281 262.078 80.1742Z" fill="#303549"/>
<path d="M17.3545 71.3447H15.9818V88.8143H17.3545V71.3447Z" fill="#0089FF"/>
<path d="M146.447 84.216H142.751V83.3754C143.016 83.1234 143.267 82.8821 143.503 82.6515C143.739 82.421 143.969 82.181 144.194 81.9317C144.65 81.4303 144.961 81.0295 145.128 80.7292C145.294 80.4262 145.377 80.1139 145.377 79.7921C145.377 79.6259 145.35 79.4798 145.296 79.3538C145.245 79.2278 145.174 79.1232 145.083 79.0401C144.989 78.9597 144.881 78.8993 144.758 78.8591C144.634 78.8189 144.499 78.7988 144.351 78.7988C144.209 78.7988 144.064 78.8176 143.917 78.8551C143.772 78.8899 143.633 78.9342 143.499 78.9878C143.386 79.0334 143.278 79.0883 143.173 79.1527C143.068 79.217 142.984 79.272 142.92 79.3176H142.875V78.465C143.042 78.3819 143.272 78.3014 143.567 78.2237C143.865 78.1433 144.146 78.103 144.412 78.103C144.969 78.103 145.406 78.2518 145.723 78.5494C146.039 78.8444 146.197 79.2452 146.197 79.7519C146.197 79.9852 146.169 80.201 146.113 80.3994C146.059 80.5978 145.984 80.7815 145.888 80.9504C145.788 81.1246 145.669 81.2976 145.53 81.4692C145.39 81.6408 145.243 81.8097 145.087 81.9759C144.835 82.2494 144.554 82.5336 144.243 82.8285C143.934 83.1234 143.688 83.3567 143.503 83.5283H146.447V84.216ZM150.943 84.216H147.247V83.3754C147.512 83.1234 147.763 82.8821 147.999 82.6515C148.235 82.421 148.465 82.181 148.691 81.9317C149.146 81.4303 149.457 81.0295 149.624 80.7292C149.79 80.4262 149.873 80.1139 149.873 79.7921C149.873 79.6259 149.846 79.4798 149.793 79.3538C149.742 79.2278 149.671 79.1232 149.579 79.0401C149.486 78.9597 149.377 78.8993 149.254 78.8591C149.13 78.8189 148.995 78.7988 148.848 78.7988C148.705 78.7988 148.561 78.8176 148.413 78.8551C148.268 78.8899 148.129 78.9342 147.995 78.9878C147.882 79.0334 147.774 79.0883 147.669 79.1527C147.565 79.217 147.48 79.272 147.416 79.3176H147.372V78.465C147.538 78.3819 147.768 78.3014 148.063 78.2237C148.361 78.1433 148.642 78.103 148.908 78.103C149.466 78.103 149.903 78.2518 150.219 78.5494C150.535 78.8444 150.693 79.2452 150.693 79.7519C150.693 79.9852 150.665 80.201 150.609 80.3994C150.555 80.5978 150.48 80.7815 150.384 80.9504C150.285 81.1246 150.165 81.2976 150.026 81.4692C149.886 81.6408 149.739 81.8097 149.584 81.9759C149.331 82.2494 149.05 82.5336 148.739 82.8285C148.431 83.1234 148.184 83.3567 147.999 83.5283H150.943V84.216ZM155.596 82.1569H154.884V84.216H154.112V82.1569H151.466V81.3123L154.144 78.2277H154.884V81.5134H155.596V82.1569ZM154.112 81.5134V79.1728L152.093 81.5134H154.112ZM157.446 84.216H156.485V83.0698H157.446V84.216ZM161.56 80.689C161.56 80.2814 161.522 79.9503 161.447 79.6956C161.372 79.4382 161.269 79.2398 161.138 79.1004C161.02 78.9717 160.9 78.8832 160.78 78.835C160.659 78.7867 160.526 78.7626 160.382 78.7626C160.052 78.7626 159.789 78.8806 159.593 79.1165C159.398 79.3524 159.3 79.6943 159.3 80.142C159.3 80.394 159.332 80.6018 159.396 80.7654C159.461 80.9289 159.565 81.0697 159.71 81.1877C159.812 81.2708 159.927 81.3271 160.056 81.3566C160.185 81.3834 160.323 81.3968 160.47 81.3968C160.642 81.3968 160.827 81.3673 161.025 81.3083C161.224 81.2466 161.396 81.1662 161.544 81.067C161.547 81.0268 161.549 80.9745 161.552 80.9102C161.557 80.8431 161.56 80.7694 161.56 80.689ZM158.483 80.1742C158.483 79.8659 158.533 79.5844 158.632 79.3296C158.734 79.0749 158.872 78.8551 159.046 78.6701C159.213 78.4931 159.415 78.3551 159.654 78.2559C159.895 78.1567 160.139 78.1071 160.386 78.1071C160.662 78.1071 160.911 78.154 161.134 78.2478C161.359 78.339 161.553 78.4717 161.717 78.646C161.923 78.8658 162.083 79.154 162.195 79.5106C162.311 79.8672 162.368 80.3176 162.368 80.8619C162.368 81.3579 162.312 81.8284 162.199 82.2735C162.09 82.7159 161.926 83.0832 161.709 83.3754C161.478 83.6864 161.201 83.9237 160.876 84.0873C160.555 84.2508 160.156 84.3326 159.682 84.3326C159.575 84.3326 159.461 84.3259 159.34 84.3125C159.219 84.3018 159.107 84.2803 159.002 84.2481V83.48H159.042C159.109 83.5175 159.214 83.5537 159.356 83.5886C159.498 83.6234 159.643 83.6409 159.79 83.6409C160.316 83.6409 160.729 83.4679 161.029 83.1221C161.329 82.7762 161.5 82.2815 161.54 81.6381C161.325 81.7829 161.12 81.8888 160.925 81.9558C160.732 82.0228 160.521 82.0563 160.293 82.0563C160.071 82.0563 159.868 82.0322 159.686 81.9839C159.504 81.9357 159.32 81.8418 159.135 81.7024C158.92 81.5389 158.758 81.3324 158.648 81.0831C158.538 80.8311 158.483 80.5281 158.483 80.1742Z" fill="#303549"/>
<path d="M6 81.1953H15" stroke="#C4D3E9" stroke-width="0.686364" stroke-miterlimit="10" stroke-dasharray="0.62 0.62"/>
<path d="M108.298 71.3447V89.3966" stroke="#D7E2F2" stroke-width="0.686364"/>
<path d="M199.343 71.3447V89.3966" stroke="#D7E2F2" stroke-width="0.686364"/>
<path opacity="0.5" d="M319 92H17V109H319V92Z" fill="#EBF1F9"/>
<path d="M27.7411 104.684C27.5963 104.721 27.4435 104.749 27.2827 104.768C27.1245 104.787 26.9663 104.796 26.8081 104.796C26.3604 104.796 25.9957 104.67 25.7142 104.418C25.4354 104.166 25.2825 103.807 25.2557 103.34C25.2209 103.34 25.1874 103.34 25.1552 103.34C25.123 103.34 25.0949 103.34 25.0707 103.34C24.6659 103.34 24.2999 103.272 23.9728 103.135C23.6484 102.996 23.3709 102.793 23.1403 102.528C22.9098 102.263 22.7328 101.935 22.6095 101.547C22.4862 101.158 22.4245 100.718 22.4245 100.228C22.4245 99.7237 22.4862 99.2813 22.6095 98.9006C22.7355 98.5198 22.9138 98.1927 23.1444 97.9193C23.3749 97.6538 23.6524 97.4528 23.9768 97.316C24.3039 97.1766 24.6686 97.1069 25.0707 97.1069C25.4783 97.1069 25.8456 97.1779 26.1727 97.32C26.4998 97.4621 26.7759 97.6619 27.0011 97.9193C27.229 98.182 27.406 98.5078 27.532 98.8965C27.658 99.2853 27.721 99.729 27.721 100.228C27.721 101.002 27.5695 101.642 27.2666 102.146C26.9636 102.65 26.5494 102.992 26.0239 103.171C26.0373 103.322 26.0628 103.456 26.1003 103.574C26.1405 103.694 26.1914 103.789 26.2531 103.859C26.3255 103.942 26.4126 104.003 26.5145 104.04C26.6191 104.08 26.7612 104.1 26.9408 104.1C27.0481 104.1 27.1741 104.083 27.3188 104.048C27.4636 104.016 27.5682 103.987 27.6325 103.96H27.7411V104.684ZM26.8926 100.228C26.8926 99.8309 26.8497 99.4797 26.7639 99.174C26.6781 98.8684 26.5574 98.615 26.4019 98.4139C26.2437 98.2075 26.052 98.0533 25.8268 97.9514C25.6043 97.8469 25.3536 97.7946 25.0748 97.7946C24.7852 97.7946 24.5318 97.8455 24.3147 97.9474C24.1002 98.0466 23.9098 98.2021 23.7436 98.4139C23.5854 98.6177 23.4634 98.8738 23.3776 99.1821C23.2945 99.4904 23.2529 99.8389 23.2529 100.228C23.2529 101.013 23.4178 101.615 23.7476 102.033C24.0774 102.452 24.5198 102.661 25.0748 102.661C25.6298 102.661 26.0708 102.452 26.3979 102.033C26.7277 101.615 26.8926 101.013 26.8926 100.228ZM30.0455 97.8026C29.9008 97.8026 29.756 97.8201 29.6112 97.8549C29.4664 97.8898 29.3243 97.9354 29.1849 97.9917C29.0562 98.0453 28.9436 98.1016 28.8471 98.1606C28.7532 98.2196 28.6688 98.2745 28.5937 98.3255H28.5455V97.4769C28.7197 97.3831 28.9557 97.2986 29.2533 97.2235C29.5536 97.1458 29.8391 97.1069 30.1099 97.1069C30.3807 97.1069 30.6166 97.1351 30.8177 97.1914C31.0215 97.245 31.2051 97.3294 31.3687 97.4447C31.5456 97.5734 31.6783 97.7289 31.7668 97.9112C31.858 98.0935 31.9035 98.3067 31.9035 98.5507C31.9035 98.8805 31.795 99.17 31.5778 99.4194C31.3606 99.6687 31.1006 99.8269 30.7976 99.8939V99.9502C30.9236 99.9743 31.0577 100.016 31.1998 100.075C31.3445 100.134 31.4786 100.221 31.6019 100.336C31.7253 100.451 31.8258 100.6 31.9035 100.783C31.9813 100.962 32.0202 101.182 32.0202 101.442C32.0202 101.713 31.9733 101.962 31.8794 102.19C31.7883 102.415 31.6582 102.615 31.4893 102.789C31.315 102.972 31.1046 103.11 30.8579 103.204C30.6113 103.297 30.3311 103.344 30.0174 103.344C29.7171 103.344 29.4195 103.308 29.1246 103.236C28.8297 103.163 28.5817 103.076 28.3806 102.974V102.126H28.4369C28.6058 102.249 28.8323 102.367 29.1165 102.48C29.4007 102.592 29.6849 102.649 29.9691 102.649C30.1327 102.649 30.2962 102.623 30.4598 102.572C30.626 102.519 30.7641 102.433 30.874 102.315C30.9812 102.197 31.063 102.067 31.1193 101.925C31.1756 101.783 31.2038 101.603 31.2038 101.386C31.2038 101.169 31.1716 100.99 31.1073 100.851C31.0456 100.712 30.9585 100.602 30.8458 100.521C30.7332 100.441 30.5992 100.386 30.4437 100.356C30.2909 100.324 30.1246 100.308 29.945 100.308H29.6032V99.6405H29.8686C30.2305 99.6405 30.5241 99.5548 30.7493 99.3832C30.9772 99.2116 31.0912 98.9622 31.0912 98.6351C31.0912 98.485 31.0617 98.3563 31.0027 98.2491C30.9437 98.1391 30.8686 98.052 30.7775 97.9876C30.6756 97.9179 30.563 97.8697 30.4397 97.8429C30.3163 97.8161 30.185 97.8026 30.0455 97.8026Z" fill="#606580"/>
<path d="M250.042 104.015H246.346V103.175C246.611 102.923 246.862 102.681 247.098 102.451C247.334 102.22 247.564 101.98 247.79 101.731C248.245 101.229 248.556 100.829 248.723 100.528C248.889 100.225 248.972 99.9131 248.972 99.5914C248.972 99.4252 248.945 99.2791 248.891 99.153C248.841 99.027 248.769 98.9225 248.678 98.8394C248.584 98.7589 248.476 98.6986 248.353 98.6584C248.229 98.6182 248.094 98.5981 247.946 98.5981C247.804 98.5981 247.659 98.6168 247.512 98.6544C247.367 98.6892 247.228 98.7335 247.094 98.7871C246.981 98.8327 246.873 98.8876 246.768 98.952C246.663 99.0163 246.579 99.0713 246.515 99.1169H246.47V98.2643C246.637 98.1811 246.867 98.1007 247.162 98.023C247.46 97.9425 247.741 97.9023 248.007 97.9023C248.564 97.9023 249.001 98.0511 249.318 98.3487C249.634 98.6436 249.792 99.0445 249.792 99.5512C249.792 99.7844 249.764 100 249.708 100.199C249.654 100.397 249.579 100.581 249.483 100.75C249.383 100.924 249.264 101.097 249.125 101.268C248.985 101.44 248.838 101.609 248.682 101.775C248.43 102.049 248.149 102.333 247.838 102.628C247.529 102.923 247.283 103.156 247.098 103.327H250.042V104.015ZM254.538 104.015H250.842V103.175C251.107 102.923 251.358 102.681 251.594 102.451C251.83 102.22 252.061 101.98 252.286 101.731C252.742 101.229 253.053 100.829 253.219 100.528C253.385 100.225 253.468 99.9131 253.468 99.5914C253.468 99.4252 253.441 99.2791 253.388 99.153C253.337 99.027 253.266 98.9225 253.175 98.8394C253.081 98.7589 252.972 98.6986 252.849 98.6584C252.725 98.6182 252.59 98.5981 252.443 98.5981C252.3 98.5981 252.156 98.6168 252.008 98.6544C251.863 98.6892 251.724 98.7335 251.59 98.7871C251.477 98.8327 251.369 98.8876 251.264 98.952C251.16 99.0163 251.075 99.0713 251.011 99.1169H250.967V98.2643C251.133 98.1811 251.363 98.1007 251.658 98.023C251.956 97.9425 252.237 97.9023 252.503 97.9023C253.061 97.9023 253.498 98.0511 253.814 98.3487C254.13 98.6436 254.289 99.0445 254.289 99.5512C254.289 99.7844 254.26 100 254.204 100.199C254.15 100.397 254.075 100.581 253.979 100.75C253.88 100.924 253.76 101.097 253.621 101.268C253.482 101.44 253.334 101.609 253.179 101.775C252.927 102.049 252.645 102.333 252.334 102.628C252.026 102.923 251.779 103.156 251.594 103.327H254.538V104.015ZM259.191 101.956H258.479V104.015H257.707V101.956H255.061V101.111L257.739 98.027H258.479V101.313H259.191V101.956ZM257.707 101.313V98.9721L255.688 101.313H257.707ZM261.041 104.015H260.08V102.869H261.041V104.015ZM265.155 100.488C265.155 100.081 265.118 99.7496 265.042 99.4949C264.967 99.2375 264.864 99.0391 264.733 98.8997C264.615 98.771 264.496 98.6825 264.375 98.6343C264.254 98.586 264.121 98.5619 263.977 98.5619C263.647 98.5619 263.384 98.6798 263.188 98.9158C262.993 99.1517 262.895 99.4935 262.895 99.9413C262.895 100.193 262.927 100.401 262.991 100.565C263.056 100.728 263.16 100.869 263.305 100.987C263.407 101.07 263.522 101.126 263.651 101.156C263.78 101.183 263.918 101.196 264.065 101.196C264.237 101.196 264.422 101.166 264.62 101.107C264.819 101.046 264.992 100.965 265.139 100.866C265.142 100.826 265.144 100.774 265.147 100.709C265.152 100.642 265.155 100.569 265.155 100.488ZM262.078 99.9735C262.078 99.6651 262.128 99.3836 262.227 99.1289C262.329 98.8742 262.467 98.6544 262.642 98.4694C262.808 98.2924 263.01 98.1543 263.249 98.0551C263.49 97.9559 263.734 97.9063 263.981 97.9063C264.257 97.9063 264.506 97.9533 264.729 98.0471C264.954 98.1382 265.148 98.271 265.312 98.4452C265.518 98.6651 265.678 98.9533 265.79 99.3099C265.906 99.6665 265.963 100.117 265.963 100.661C265.963 101.157 265.907 101.628 265.795 102.073C265.685 102.515 265.521 102.882 265.304 103.175C265.073 103.486 264.796 103.723 264.471 103.886C264.15 104.05 263.751 104.132 263.277 104.132C263.17 104.132 263.056 104.125 262.935 104.112C262.814 104.101 262.702 104.079 262.597 104.047V103.279H262.637C262.705 103.317 262.809 103.353 262.951 103.388C263.093 103.423 263.238 103.44 263.386 103.44C263.911 103.44 264.324 103.267 264.624 102.921C264.924 102.575 265.095 102.081 265.135 101.437C264.92 101.582 264.715 101.688 264.52 101.755C264.327 101.822 264.116 101.856 263.888 101.856C263.666 101.856 263.463 101.831 263.281 101.783C263.099 101.735 262.915 101.641 262.73 101.502C262.516 101.338 262.353 101.132 262.243 100.882C262.133 100.63 262.078 100.327 262.078 99.9735Z" fill="#606580"/>
<path d="M17.3545 91.7256H15.9818V109.195H17.3545V91.7256Z" fill="#8C99B2"/>
<path d="M146.447 104.015H142.751V103.175C143.016 102.923 143.267 102.681 143.503 102.451C143.739 102.22 143.969 101.98 144.194 101.731C144.65 101.229 144.961 100.829 145.128 100.528C145.294 100.225 145.377 99.9131 145.377 99.5914C145.377 99.4252 145.35 99.2791 145.296 99.153C145.245 99.027 145.174 98.9225 145.083 98.8394C144.989 98.7589 144.881 98.6986 144.758 98.6584C144.634 98.6182 144.499 98.5981 144.351 98.5981C144.209 98.5981 144.064 98.6168 143.917 98.6544C143.772 98.6892 143.633 98.7335 143.499 98.7871C143.386 98.8327 143.278 98.8876 143.173 98.952C143.068 99.0163 142.984 99.0713 142.92 99.1169H142.875V98.2643C143.042 98.1811 143.272 98.1007 143.567 98.023C143.865 97.9425 144.146 97.9023 144.412 97.9023C144.969 97.9023 145.406 98.0511 145.723 98.3487C146.039 98.6436 146.197 99.0445 146.197 99.5512C146.197 99.7844 146.169 100 146.113 100.199C146.059 100.397 145.984 100.581 145.888 100.75C145.788 100.924 145.669 101.097 145.53 101.268C145.39 101.44 145.243 101.609 145.087 101.775C144.835 102.049 144.554 102.333 144.243 102.628C143.934 102.923 143.688 103.156 143.503 103.327H146.447V104.015ZM150.943 104.015H147.247V103.175C147.512 102.923 147.763 102.681 147.999 102.451C148.235 102.22 148.465 101.98 148.691 101.731C149.146 101.229 149.457 100.829 149.624 100.528C149.79 100.225 149.873 99.9131 149.873 99.5914C149.873 99.4252 149.846 99.2791 149.793 99.153C149.742 99.027 149.671 98.9225 149.579 98.8394C149.486 98.7589 149.377 98.6986 149.254 98.6584C149.13 98.6182 148.995 98.5981 148.848 98.5981C148.705 98.5981 148.561 98.6168 148.413 98.6544C148.268 98.6892 148.129 98.7335 147.995 98.7871C147.882 98.8327 147.774 98.8876 147.669 98.952C147.565 99.0163 147.48 99.0713 147.416 99.1169H147.372V98.2643C147.538 98.1811 147.768 98.1007 148.063 98.023C148.361 97.9425 148.642 97.9023 148.908 97.9023C149.466 97.9023 149.903 98.0511 150.219 98.3487C150.535 98.6436 150.693 99.0445 150.693 99.5512C150.693 99.7844 150.665 100 150.609 100.199C150.555 100.397 150.48 100.581 150.384 100.75C150.285 100.924 150.165 101.097 150.026 101.268C149.886 101.44 149.739 101.609 149.584 101.775C149.331 102.049 149.05 102.333 148.739 102.628C148.431 102.923 148.184 103.156 147.999 103.327H150.943V104.015ZM155.596 101.956H154.884V104.015H154.112V101.956H151.466V101.111L154.144 98.027H154.884V101.313H155.596V101.956ZM154.112 101.313V98.9721L152.093 101.313H154.112ZM157.446 104.015H156.485V102.869H157.446V104.015ZM161.56 100.488C161.56 100.081 161.522 99.7496 161.447 99.4949C161.372 99.2375 161.269 99.0391 161.138 98.8997C161.02 98.771 160.9 98.6825 160.78 98.6343C160.659 98.586 160.526 98.5619 160.382 98.5619C160.052 98.5619 159.789 98.6798 159.593 98.9158C159.398 99.1517 159.3 99.4935 159.3 99.9413C159.3 100.193 159.332 100.401 159.396 100.565C159.461 100.728 159.565 100.869 159.71 100.987C159.812 101.07 159.927 101.126 160.056 101.156C160.185 101.183 160.323 101.196 160.47 101.196C160.642 101.196 160.827 101.166 161.025 101.107C161.224 101.046 161.396 100.965 161.544 100.866C161.547 100.826 161.549 100.774 161.552 100.709C161.557 100.642 161.56 100.569 161.56 100.488ZM158.483 99.9735C158.483 99.6651 158.533 99.3836 158.632 99.1289C158.734 98.8742 158.872 98.6544 159.046 98.4694C159.213 98.2924 159.415 98.1543 159.654 98.0551C159.895 97.9559 160.139 97.9063 160.386 97.9063C160.662 97.9063 160.911 97.9533 161.134 98.0471C161.359 98.1382 161.553 98.271 161.717 98.4452C161.923 98.6651 162.083 98.9533 162.195 99.3099C162.311 99.6665 162.368 100.117 162.368 100.661C162.368 101.157 162.312 101.628 162.199 102.073C162.09 102.515 161.926 102.882 161.709 103.175C161.478 103.486 161.201 103.723 160.876 103.886C160.555 104.05 160.156 104.132 159.682 104.132C159.575 104.132 159.461 104.125 159.34 104.112C159.219 104.101 159.107 104.079 159.002 104.047V103.279H159.042C159.109 103.317 159.214 103.353 159.356 103.388C159.498 103.423 159.643 103.44 159.79 103.44C160.316 103.44 160.729 103.267 161.029 102.921C161.329 102.575 161.5 102.081 161.54 101.437C161.325 101.582 161.12 101.688 160.925 101.755C160.732 101.822 160.521 101.856 160.293 101.856C160.071 101.856 159.868 101.831 159.686 101.783C159.504 101.735 159.32 101.641 159.135 101.502C158.92 101.338 158.758 101.132 158.648 100.882C158.538 100.63 158.483 100.327 158.483 99.9735Z" fill="#606580"/>
<path d="M6 101.195H15" stroke="#C4D3E9" stroke-width="0.686364" stroke-miterlimit="10" stroke-dasharray="0.62 0.62"/>
<path d="M108.298 91.7256V109.195" stroke="#D7E2F2" stroke-width="0.686364"/>
<path d="M199.343 91.7256V109.195" stroke="#D7E2F2" stroke-width="0.686364"/>
<path d="M6 45.1953V101.195" stroke="#C4D3E9" stroke-miterlimit="10" stroke-dasharray="0.9 0.9"/>
</svg>
