<svg width="324" height="117" viewBox="0 0 324 117" fill="none" xmlns="http://www.w3.org/2000/svg">
<path d="M5 7H319V100.954C319 102.058 318.105 102.954 317 102.954H7C5.89543 102.954 5 102.058 5 100.954V7Z" fill="white" fill-opacity="0.5"/>
<path d="M5.25 7.25H318.75V100.954C318.75 101.92 317.967 102.704 317 102.704H7C6.0335 102.704 5.25 101.92 5.25 100.954V7.25Z" stroke="#D7E2F2" stroke-width="0.5"/>
<g opacity="0.1">
<path opacity="0.1" d="M44.6587 26.5518V98.138" stroke="#8C99B2" stroke-width="0.5"/>
</g>
<g opacity="0.1">
<path opacity="0.1" d="M61.9128 26.5518V98.138" stroke="#8C99B2" stroke-width="0.5"/>
</g>
<g opacity="0.1">
<path opacity="0.1" d="M79.7422 26.5518V98.138" stroke="#8C99B2" stroke-width="0.5"/>
</g>
<g opacity="0.1">
<path opacity="0.1" d="M97.5713 26.5518V98.138" stroke="#8C99B2" stroke-width="0.5"/>
</g>
<g opacity="0.1">
<path opacity="0.1" d="M115.401 26.5518V98.138" stroke="#8C99B2" stroke-width="0.5"/>
</g>
<g opacity="0.1">
<path opacity="0.1" d="M132.655 26.5518V98.138" stroke="#8C99B2" stroke-width="0.5"/>
</g>
<g opacity="0.1">
<path opacity="0.1" d="M150.484 26.5518V98.138" stroke="#8C99B2" stroke-width="0.5"/>
</g>
<g opacity="0.1">
<path opacity="0.1" d="M168.313 27.002V98.1379" stroke="#8C99B2" stroke-width="0.5"/>
</g>
<g opacity="0.1">
<path opacity="0.1" d="M186.143 26.5518V98.138" stroke="#8C99B2" stroke-width="0.5"/>
</g>
<g opacity="0.1">
<path opacity="0.1" d="M311.328 36.7539H26.8179" stroke="#8C99B2" stroke-width="0.5"/>
</g>
<g opacity="0.1">
<path opacity="0.1" d="M311.328 47.4028H26.8179" stroke="#8C99B2" stroke-width="0.5"/>
</g>
<g opacity="0.1">
<path opacity="0.1" d="M311.328 57.6426H26.8179" stroke="#8C99B2" stroke-width="0.5"/>
</g>
<g opacity="0.1">
<path opacity="0.1" d="M311.328 68.7012H26.8179" stroke="#8C99B2" stroke-width="0.5"/>
</g>
<g opacity="0.1">
<path opacity="0.1" d="M311.328 78.5312H26.8179" stroke="#8C99B2" stroke-width="0.5"/>
</g>
<g opacity="0.1">
<path opacity="0.1" d="M311.328 89.1802H26.8179" stroke="#8C99B2" stroke-width="0.5"/>
</g>
<g opacity="0.1">
<path opacity="0.1" d="M203.972 26.5518V98.138" stroke="#8C99B2" stroke-width="0.5"/>
</g>
<g opacity="0.1">
<path opacity="0.1" d="M221.802 26.5518V98.138" stroke="#8C99B2" stroke-width="0.5"/>
</g>
<g opacity="0.1">
<path opacity="0.1" d="M239.056 26.5518V98.138" stroke="#8C99B2" stroke-width="0.5"/>
</g>
<g opacity="0.1">
<path opacity="0.1" d="M257.46 26.5518V98.138" stroke="#8C99B2" stroke-width="0.5"/>
</g>
<g opacity="0.1">
<path opacity="0.1" d="M275.289 26.5518V98.138" stroke="#8C99B2" stroke-width="0.5"/>
</g>
<g opacity="0.1">
<path opacity="0.1" d="M293.119 26.5518V98.138" stroke="#8C99B2" stroke-width="0.5"/>
</g>
<path d="M14.9934 69.4954C14.9934 69.688 14.9622 69.8664 14.8997 70.0305C14.8391 70.1946 14.7535 70.3364 14.6429 70.456C14.5305 70.5773 14.3905 70.6727 14.2228 70.7423C14.0569 70.8118 13.8705 70.8466 13.6635 70.8466C13.4727 70.8466 13.2845 70.8252 13.0989 70.7824C12.9152 70.7414 12.7555 70.687 12.62 70.6192V70.0546H12.6574C12.6985 70.0849 12.7573 70.1197 12.834 70.1589C12.9107 70.1964 12.9955 70.2321 13.0882 70.266C13.1935 70.3034 13.2898 70.3329 13.3772 70.3543C13.4646 70.3739 13.5627 70.3837 13.6716 70.3837C13.7786 70.3837 13.8829 70.365 13.9846 70.3275C14.0863 70.2883 14.1737 70.2258 14.2469 70.1402C14.3129 70.0617 14.3628 69.9699 14.3967 69.8646C14.4324 69.7594 14.4502 69.6354 14.4502 69.4927C14.4502 69.3518 14.4306 69.2358 14.3913 69.1448C14.3539 69.0538 14.2986 68.9789 14.2254 68.9201C14.1487 68.8523 14.0542 68.805 13.9418 68.7782C13.8312 68.7497 13.7072 68.7354 13.5699 68.7354C13.4254 68.7354 13.28 68.747 13.1337 68.7702C12.9874 68.7916 12.8706 68.8121 12.7832 68.8318V66.7794H14.9693V67.2477H13.2996V68.3073C13.3638 68.3002 13.4272 68.2948 13.4896 68.2912C13.552 68.2877 13.6091 68.2859 13.6609 68.2859C13.8642 68.2859 14.0364 68.3028 14.1773 68.3367C14.3182 68.3706 14.4538 68.4366 14.584 68.5347C14.716 68.6346 14.8168 68.7595 14.8864 68.9094C14.9577 69.0592 14.9934 69.2545 14.9934 69.4954ZM18.0491 68.7702C18.0491 69.4855 17.9448 70.0109 17.7361 70.3462C17.5291 70.6798 17.2089 70.8466 16.7755 70.8466C16.3366 70.8466 16.0147 70.6763 15.8095 70.3355C15.6044 69.9948 15.5018 69.4748 15.5018 68.7756C15.5018 68.0567 15.6053 67.5313 15.8122 67.1995C16.0209 66.866 16.342 66.6992 16.7755 66.6992C17.2143 66.6992 17.5363 66.8713 17.7414 67.2156C17.9466 67.5599 18.0491 68.0781 18.0491 68.7702ZM17.3641 69.985C17.4159 69.853 17.4524 69.6862 17.4738 69.4846C17.4952 69.2831 17.506 69.0449 17.506 68.7702C17.506 68.4973 17.4952 68.26 17.4738 68.0585C17.4524 67.8569 17.415 67.6892 17.3615 67.5554C17.3079 67.4198 17.2339 67.3173 17.1394 67.2477C17.0466 67.1763 16.9253 67.1407 16.7755 67.1407C16.6274 67.1407 16.5052 67.1763 16.4089 67.2477C16.3143 67.3173 16.2394 67.4216 16.1841 67.5608C16.1306 67.6963 16.094 67.8676 16.0744 68.0745C16.0548 68.2814 16.045 68.5151 16.045 68.7756C16.045 69.0538 16.053 69.2866 16.0691 69.4739C16.0869 69.6612 16.1244 69.8289 16.1814 69.977C16.2332 70.1143 16.3063 70.2205 16.4009 70.2954C16.4972 70.3685 16.6221 70.4051 16.7755 70.4051C16.9235 70.4051 17.0448 70.3703 17.1394 70.3008C17.2357 70.2294 17.3106 70.1242 17.3641 69.985ZM21.0407 68.7702C21.0407 69.4855 20.9363 70.0109 20.7276 70.3462C20.5207 70.6798 20.2005 70.8466 19.767 70.8466C19.3282 70.8466 19.0062 70.6763 18.801 70.3355C18.5959 69.9948 18.4933 69.4748 18.4933 68.7756C18.4933 68.0567 18.5968 67.5313 18.8037 67.1995C19.0124 66.866 19.3335 66.6992 19.767 66.6992C20.2058 66.6992 20.5278 66.8713 20.7329 67.2156C20.9381 67.5599 21.0407 68.0781 21.0407 68.7702ZM20.3557 69.985C20.4074 69.853 20.444 69.6862 20.4654 69.4846C20.4868 69.2831 20.4975 69.0449 20.4975 68.7702C20.4975 68.4973 20.4868 68.26 20.4654 68.0585C20.444 67.8569 20.4065 67.6892 20.353 67.5554C20.2995 67.4198 20.2254 67.3173 20.1309 67.2477C20.0381 67.1763 19.9168 67.1407 19.767 67.1407C19.6189 67.1407 19.4967 67.1763 19.4004 67.2477C19.3059 67.3173 19.2309 67.4216 19.1756 67.5608C19.1221 67.6963 19.0856 67.8676 19.0659 68.0745C19.0463 68.2814 19.0365 68.5151 19.0365 68.7756C19.0365 69.0538 19.0445 69.2866 19.0606 69.4739C19.0784 69.6612 19.1159 69.8289 19.173 69.977C19.2247 70.1143 19.2978 70.2205 19.3924 70.2954C19.4887 70.3685 19.6136 70.4051 19.767 70.4051C19.915 70.4051 20.0363 70.3703 20.1309 70.3008C20.2272 70.2294 20.3021 70.1242 20.3557 69.985Z" fill="#8C99B2"/>
<path d="M13.4603 77.8501C13.364 77.8501 13.2677 77.8617 13.1714 77.8849C13.075 77.9081 12.9805 77.9384 12.8877 77.9759C12.8021 78.0116 12.7272 78.049 12.663 78.0883C12.6005 78.1275 12.5443 78.1641 12.4944 78.198H12.4623V77.6334C12.5782 77.5709 12.7352 77.5147 12.9332 77.4648C13.133 77.4131 13.323 77.3872 13.5032 77.3872C13.6833 77.3872 13.8403 77.4059 13.9741 77.4434C14.1097 77.4791 14.2319 77.5353 14.3407 77.612C14.4584 77.6976 14.5467 77.8011 14.6056 77.9224C14.6662 78.0437 14.6966 78.1855 14.6966 78.3478C14.6966 78.5672 14.6243 78.7599 14.4798 78.9258C14.3353 79.0917 14.1623 79.1969 13.9607 79.2415V79.279C14.0446 79.295 14.1338 79.3227 14.2283 79.3619C14.3246 79.4012 14.4138 79.4591 14.4959 79.5359C14.5779 79.6126 14.6448 79.7116 14.6966 79.8329C14.7483 79.9524 14.7742 80.0987 14.7742 80.2717C14.7742 80.4519 14.7429 80.6178 14.6805 80.7694C14.6199 80.9192 14.5333 81.0521 14.421 81.1681C14.305 81.2894 14.165 81.3813 14.0009 81.4437C13.8367 81.5061 13.6503 81.5373 13.4416 81.5373C13.2418 81.5373 13.0438 81.5133 12.8476 81.4651C12.6514 81.4169 12.4864 81.359 12.3526 81.2912V80.7266H12.39C12.5024 80.8086 12.6532 80.8871 12.8422 80.962C13.0313 81.037 13.2204 81.0744 13.4095 81.0744C13.5183 81.0744 13.6271 81.0575 13.736 81.0236C13.8466 80.9879 13.9384 80.9308 14.0116 80.8523C14.0829 80.7738 14.1373 80.6873 14.1748 80.5928C14.2122 80.4982 14.231 80.3787 14.231 80.2342C14.231 80.0897 14.2096 79.9711 14.1668 79.8784C14.1257 79.7856 14.0678 79.7125 13.9928 79.6589C13.9179 79.6054 13.8287 79.5689 13.7253 79.5492C13.6236 79.5278 13.513 79.5171 13.3935 79.5171H13.166V79.0729H13.3426C13.5834 79.0729 13.7788 79.0159 13.9286 78.9017C14.0802 78.7875 14.1561 78.6216 14.1561 78.404C14.1561 78.3041 14.1364 78.2185 14.0972 78.1471C14.0579 78.074 14.008 78.016 13.9473 77.9732C13.8796 77.9268 13.8046 77.8947 13.7226 77.8769C13.6405 77.859 13.5531 77.8501 13.4603 77.8501ZM17.854 79.4609C17.854 80.1763 17.7496 80.7016 17.5409 81.037C17.334 81.3705 17.0138 81.5373 16.5803 81.5373C16.1415 81.5373 15.8195 81.367 15.6144 81.0263C15.4092 80.6855 15.3066 80.1656 15.3066 79.4663C15.3066 78.7474 15.4101 78.222 15.617 77.8902C15.8257 77.5567 16.1468 77.3899 16.5803 77.3899C17.0191 77.3899 17.3411 77.562 17.5463 77.9063C17.7514 78.2506 17.854 78.7688 17.854 79.4609ZM17.169 80.6757C17.2207 80.5437 17.2573 80.3769 17.2787 80.1754C17.3001 79.9738 17.3108 79.7356 17.3108 79.4609C17.3108 79.188 17.3001 78.9508 17.2787 78.7492C17.2573 78.5476 17.2198 78.3799 17.1663 78.2461C17.1128 78.1106 17.0388 78.008 16.9442 77.9384C16.8515 77.8671 16.7302 77.8314 16.5803 77.8314C16.4323 77.8314 16.3101 77.8671 16.2137 77.9384C16.1192 78.008 16.0443 78.1123 15.989 78.2515C15.9354 78.3871 15.8989 78.5583 15.8793 78.7652C15.8596 78.9722 15.8498 79.2058 15.8498 79.4663C15.8498 79.7446 15.8578 79.9774 15.8739 80.1647C15.8917 80.352 15.9292 80.5197 15.9863 80.6677C16.038 80.8051 16.1112 80.9112 16.2057 80.9861C16.302 81.0593 16.4269 81.0958 16.5803 81.0958C16.7284 81.0958 16.8497 81.061 16.9442 80.9915C17.0405 80.9201 17.1155 80.8149 17.169 80.6757ZM20.8455 79.4609C20.8455 80.1763 20.7412 80.7016 20.5324 81.037C20.3255 81.3705 20.0053 81.5373 19.5718 81.5373C19.133 81.5373 18.811 81.367 18.6059 81.0263C18.4007 80.6855 18.2982 80.1656 18.2982 79.4663C18.2982 78.7474 18.4016 78.222 18.6086 77.8902C18.8173 77.5567 19.1384 77.3899 19.5718 77.3899C20.0107 77.3899 20.3326 77.562 20.5378 77.9063C20.7429 78.2506 20.8455 78.7688 20.8455 79.4609ZM20.1605 80.6757C20.2122 80.5437 20.2488 80.3769 20.2702 80.1754C20.2916 79.9738 20.3023 79.7356 20.3023 79.4609C20.3023 79.188 20.2916 78.9508 20.2702 78.7492C20.2488 78.5476 20.2113 78.3799 20.1578 78.2461C20.1043 78.1106 20.0303 78.008 19.9357 77.9384C19.843 77.8671 19.7217 77.8314 19.5718 77.8314C19.4238 77.8314 19.3016 77.8671 19.2053 77.9384C19.1107 78.008 19.0358 78.1123 18.9805 78.2515C18.927 78.3871 18.8904 78.5583 18.8708 78.7652C18.8512 78.9722 18.8413 79.2058 18.8413 79.4663C18.8413 79.7446 18.8494 79.9774 18.8654 80.1647C18.8833 80.352 18.9207 80.5197 18.9778 80.6677C19.0295 80.8051 19.1027 80.9112 19.1972 80.9861C19.2936 81.0593 19.4184 81.0958 19.5718 81.0958C19.7199 81.0958 19.8412 81.061 19.9357 80.9915C20.0321 80.9201 20.107 80.8149 20.1605 80.6757Z" fill="#8C99B2"/>
<path d="M14.7378 92.1456H12.7952V91.7389H13.5177V89.0685H12.7952V88.7046C13.0681 88.7046 13.2688 88.6662 13.3973 88.5895C13.5275 88.511 13.6006 88.3638 13.6167 88.148H14.0314V91.7389H14.7378V92.1456ZM17.9514 90.1522C17.9514 90.8675 17.8471 91.3928 17.6384 91.7282C17.4314 92.0618 17.1112 92.2286 16.6778 92.2286C16.2389 92.2286 15.917 92.0582 15.7118 91.7175C15.5067 91.3768 15.4041 90.8568 15.4041 90.1575C15.4041 89.4386 15.5076 88.9133 15.7145 88.5815C15.9232 88.2479 16.2443 88.0811 16.6778 88.0811C17.1166 88.0811 17.4386 88.2532 17.6437 88.5975C17.8489 88.9418 17.9514 89.46 17.9514 90.1522ZM17.2664 91.367C17.3182 91.235 17.3547 91.0682 17.3761 90.8666C17.3975 90.665 17.4083 90.4269 17.4083 90.1522C17.4083 89.8792 17.3975 89.642 17.3761 89.4404C17.3547 89.2388 17.3173 89.0711 17.2638 88.9373C17.2102 88.8018 17.1362 88.6992 17.0417 88.6296C16.9489 88.5583 16.8276 88.5226 16.6778 88.5226C16.5297 88.5226 16.4075 88.5583 16.3112 88.6296C16.2166 88.6992 16.1417 88.8035 16.0864 88.9426C16.0329 89.0782 15.9963 89.2495 15.9767 89.4564C15.9571 89.6634 15.9473 89.8971 15.9473 90.1575C15.9473 90.4358 15.9553 90.6686 15.9714 90.8559C15.9892 91.0432 16.0267 91.2109 16.0837 91.3589C16.1355 91.4963 16.2086 91.6024 16.3032 91.6773C16.3995 91.7505 16.5244 91.7871 16.6778 91.7871C16.8258 91.7871 16.9471 91.7523 17.0417 91.6827C17.138 91.6113 17.2129 91.5061 17.2664 91.367ZM20.943 90.1522C20.943 90.8675 20.8386 91.3928 20.6299 91.7282C20.423 92.0618 20.1028 92.2286 19.6693 92.2286C19.2305 92.2286 18.9085 92.0582 18.7033 91.7175C18.4982 91.3768 18.3956 90.8568 18.3956 90.1575C18.3956 89.4386 18.4991 88.9133 18.706 88.5815C18.9147 88.2479 19.2358 88.0811 19.6693 88.0811C20.1081 88.0811 20.4301 88.2532 20.6352 88.5975C20.8404 88.9418 20.943 89.46 20.943 90.1522ZM20.258 91.367C20.3097 91.235 20.3463 91.0682 20.3677 90.8666C20.3891 90.665 20.3998 90.4269 20.3998 90.1522C20.3998 89.8792 20.3891 89.642 20.3677 89.4404C20.3463 89.2388 20.3088 89.0711 20.2553 88.9373C20.2018 88.8018 20.1277 88.6992 20.0332 88.6296C19.9404 88.5583 19.8191 88.5226 19.6693 88.5226C19.5212 88.5226 19.399 88.5583 19.3027 88.6296C19.2082 88.6992 19.1332 88.8035 19.0779 88.9426C19.0244 89.0782 18.9879 89.2495 18.9682 89.4564C18.9486 89.6634 18.9388 89.8971 18.9388 90.1575C18.9388 90.4358 18.9468 90.6686 18.9629 90.8559C18.9807 91.0432 19.0182 91.2109 19.0753 91.3589C19.127 91.4963 19.2001 91.6024 19.2947 91.6773C19.391 91.7505 19.5159 91.7871 19.6693 91.7871C19.8173 91.7871 19.9387 91.7523 20.0332 91.6827C20.1295 91.6113 20.2044 91.5061 20.258 91.367Z" fill="#8C99B2"/>
<path d="M15.0817 56.6853L13.3585 60.0729H12.7885L14.6134 56.5569H12.5531V56.0886H15.0817V56.6853ZM18.0491 58.0794C18.0491 58.7947 17.9448 59.3201 17.7361 59.6554C17.5291 59.989 17.2089 60.1558 16.7755 60.1558C16.3366 60.1558 16.0147 59.9854 15.8095 59.6447C15.6044 59.304 15.5018 58.784 15.5018 58.0847C15.5018 57.3659 15.6053 56.8405 15.8122 56.5087C16.0209 56.1751 16.342 56.0083 16.7755 56.0083C17.2143 56.0083 17.5363 56.1805 17.7414 56.5248C17.9466 56.8691 18.0491 57.3873 18.0491 58.0794ZM17.3641 59.2942C17.4159 59.1622 17.4524 58.9954 17.4738 58.7938C17.4952 58.5923 17.506 58.3541 17.506 58.0794C17.506 57.8065 17.4952 57.5692 17.4738 57.3676C17.4524 57.1661 17.415 56.9984 17.3615 56.8646C17.3079 56.729 17.2339 56.6264 17.1394 56.5569C17.0466 56.4855 16.9253 56.4498 16.7755 56.4498C16.6274 56.4498 16.5052 56.4855 16.4089 56.5569C16.3143 56.6264 16.2394 56.7308 16.1841 56.8699C16.1306 57.0055 16.094 57.1768 16.0744 57.3837C16.0548 57.5906 16.045 57.8243 16.045 58.0847C16.045 58.363 16.053 58.5958 16.0691 58.7831C16.0869 58.9704 16.1244 59.1381 16.1814 59.2862C16.2332 59.4235 16.3063 59.5297 16.4009 59.6046C16.4972 59.6777 16.6221 59.7143 16.7755 59.7143C16.9235 59.7143 17.0448 59.6795 17.1394 59.6099C17.2357 59.5386 17.3106 59.4333 17.3641 59.2942ZM21.0407 58.0794C21.0407 58.7947 20.9363 59.3201 20.7276 59.6554C20.5207 59.989 20.2005 60.1558 19.767 60.1558C19.3282 60.1558 19.0062 59.9854 18.801 59.6447C18.5959 59.304 18.4933 58.784 18.4933 58.0847C18.4933 57.3659 18.5968 56.8405 18.8037 56.5087C19.0124 56.1751 19.3335 56.0083 19.767 56.0083C20.2058 56.0083 20.5278 56.1805 20.7329 56.5248C20.9381 56.8691 21.0407 57.3873 21.0407 58.0794ZM20.3557 59.2942C20.4074 59.1622 20.444 58.9954 20.4654 58.7938C20.4868 58.5923 20.4975 58.3541 20.4975 58.0794C20.4975 57.8065 20.4868 57.5692 20.4654 57.3676C20.444 57.1661 20.4065 56.9984 20.353 56.8646C20.2995 56.729 20.2254 56.6264 20.1309 56.5569C20.0381 56.4855 19.9168 56.4498 19.767 56.4498C19.6189 56.4498 19.4967 56.4855 19.4004 56.5569C19.3059 56.6264 19.2309 56.7308 19.1756 56.8699C19.1221 57.0055 19.0856 57.1768 19.0659 57.3837C19.0463 57.5906 19.0365 57.8243 19.0365 58.0847C19.0365 58.363 19.0445 58.5958 19.0606 58.7831C19.0784 58.9704 19.1159 59.1381 19.173 59.2862C19.2247 59.4235 19.2978 59.5297 19.3924 59.6046C19.4887 59.6777 19.6136 59.7143 19.767 59.7143C19.915 59.7143 20.0363 59.6795 20.1309 59.6099C20.2272 59.5386 20.3021 59.4333 20.3557 59.2942Z" fill="#8C99B2"/>
<path d="M14.5144 48.5625C14.5144 48.2914 14.4895 48.0711 14.4395 47.9016C14.3896 47.7304 14.3209 47.5983 14.2335 47.5056C14.155 47.42 14.0756 47.3611 13.9953 47.329C13.9151 47.2969 13.8268 47.2808 13.7304 47.2808C13.511 47.2808 13.3362 47.3593 13.206 47.5163C13.0758 47.6733 13.0106 47.9007 13.0106 48.1986C13.0106 48.3663 13.032 48.5045 13.0749 48.6134C13.1177 48.7222 13.1872 48.8158 13.2836 48.8943C13.3514 48.9496 13.4281 48.9871 13.5137 49.0067C13.5993 49.0245 13.6912 49.0335 13.7893 49.0335C13.9035 49.0335 14.0265 49.0138 14.1585 48.9746C14.2906 48.9336 14.4056 48.88 14.5037 48.814C14.5055 48.7873 14.5073 48.7525 14.5091 48.7097C14.5126 48.6651 14.5144 48.616 14.5144 48.5625ZM12.4675 48.22C12.4675 48.0149 12.5005 47.8276 12.5665 47.6581C12.6342 47.4886 12.7261 47.3424 12.8421 47.2193C12.9527 47.1015 13.0873 47.0097 13.2461 46.9437C13.4067 46.8777 13.569 46.8447 13.7331 46.8447C13.9168 46.8447 14.0827 46.8759 14.2308 46.9383C14.3806 46.999 14.51 47.0873 14.6188 47.2032C14.7561 47.3495 14.8623 47.5413 14.9372 47.7785C15.0139 48.0158 15.0523 48.3155 15.0523 48.6776C15.0523 49.0076 15.0148 49.3207 14.9399 49.6168C14.8667 49.9111 14.7579 50.1555 14.6134 50.3499C14.46 50.5569 14.2754 50.7147 14.0595 50.8236C13.8455 50.9324 13.5806 50.9868 13.2648 50.9868C13.1935 50.9868 13.1177 50.9823 13.0374 50.9734C12.9571 50.9663 12.8822 50.952 12.8126 50.9306V50.4195H12.8394C12.884 50.4445 12.9536 50.4686 13.0481 50.4918C13.1426 50.5149 13.239 50.5265 13.3371 50.5265C13.6867 50.5265 13.9614 50.4115 14.1612 50.1814C14.361 49.9512 14.4743 49.6221 14.501 49.194C14.3583 49.2903 14.2219 49.3608 14.0917 49.4054C13.9632 49.45 13.8232 49.4723 13.6716 49.4723C13.5235 49.4723 13.3888 49.4562 13.2675 49.4241C13.1462 49.392 13.024 49.3296 12.9009 49.2368C12.7582 49.128 12.6503 48.9906 12.5772 48.8247C12.504 48.6571 12.4675 48.4555 12.4675 48.22ZM18.0491 48.9157C18.0491 49.631 17.9448 50.1564 17.7361 50.4918C17.5291 50.8253 17.2089 50.9921 16.7755 50.9921C16.3366 50.9921 16.0147 50.8218 15.8095 50.4811C15.6044 50.1403 15.5018 49.6203 15.5018 48.9211C15.5018 48.2022 15.6053 47.6768 15.8122 47.345C16.0209 47.0115 16.342 46.8447 16.7755 46.8447C17.2143 46.8447 17.5363 47.0168 17.7414 47.3611C17.9466 47.7054 18.0491 48.2236 18.0491 48.9157ZM17.3641 50.1305C17.4159 49.9985 17.4524 49.8317 17.4738 49.6302C17.4952 49.4286 17.506 49.1904 17.506 48.9157C17.506 48.6428 17.4952 48.4055 17.4738 48.204C17.4524 48.0024 17.415 47.8347 17.3615 47.7009C17.3079 47.5653 17.2339 47.4628 17.1394 47.3932C17.0466 47.3218 16.9253 47.2862 16.7755 47.2862C16.6274 47.2862 16.5052 47.3218 16.4089 47.3932C16.3143 47.4628 16.2394 47.5671 16.1841 47.7063C16.1306 47.8418 16.094 48.0131 16.0744 48.22C16.0548 48.4269 16.045 48.6606 16.045 48.9211C16.045 49.1994 16.053 49.4321 16.0691 49.6195C16.0869 49.8068 16.1244 49.9744 16.1814 50.1225C16.2332 50.2599 16.3063 50.366 16.4009 50.4409C16.4972 50.5141 16.6221 50.5506 16.7755 50.5506C16.9235 50.5506 17.0448 50.5158 17.1394 50.4463C17.2357 50.3749 17.3106 50.2697 17.3641 50.1305ZM21.0407 48.9157C21.0407 49.631 20.9363 50.1564 20.7276 50.4918C20.5207 50.8253 20.2005 50.9921 19.767 50.9921C19.3282 50.9921 19.0062 50.8218 18.801 50.4811C18.5959 50.1403 18.4933 49.6203 18.4933 48.9211C18.4933 48.2022 18.5968 47.6768 18.8037 47.345C19.0124 47.0115 19.3335 46.8447 19.767 46.8447C20.2058 46.8447 20.5278 47.0168 20.7329 47.3611C20.9381 47.7054 21.0407 48.2236 21.0407 48.9157ZM20.3557 50.1305C20.4074 49.9985 20.444 49.8317 20.4654 49.6302C20.4868 49.4286 20.4975 49.1904 20.4975 48.9157C20.4975 48.6428 20.4868 48.4055 20.4654 48.204C20.444 48.0024 20.4065 47.8347 20.353 47.7009C20.2995 47.5653 20.2254 47.4628 20.1309 47.3932C20.0381 47.3218 19.9168 47.2862 19.767 47.2862C19.6189 47.2862 19.4967 47.3218 19.4004 47.3932C19.3059 47.4628 19.2309 47.5671 19.1756 47.7063C19.1221 47.8418 19.0856 48.0131 19.0659 48.22C19.0463 48.4269 19.0365 48.6606 19.0365 48.9211C19.0365 49.1994 19.0445 49.4321 19.0606 49.6195C19.0784 49.8068 19.1159 49.9744 19.173 50.1225C19.2247 50.2599 19.2978 50.366 19.3924 50.4409C19.4887 50.5141 19.6136 50.5506 19.767 50.5506C19.915 50.5506 20.0363 50.5158 20.1309 50.4463C20.2272 50.3749 20.3021 50.2697 20.3557 50.1305Z" fill="#8C99B2"/>
<path d="M12.1667 40.2184H10.224V39.8116H10.9465V37.1412H10.224V36.7773C10.497 36.7773 10.6977 36.739 10.8261 36.6622C10.9563 36.5838 11.0294 36.4366 11.0455 36.2207H11.4602V39.8116H12.1667V40.2184ZM15.1582 40.2184H13.2156V39.8116H13.938V37.1412H13.2156V36.7773C13.4885 36.7773 13.6892 36.739 13.8176 36.6622C13.9478 36.5838 14.021 36.4366 14.037 36.2207H14.4518V39.8116H15.1582V40.2184ZM18.3718 38.2249C18.3718 38.9402 18.2674 39.4656 18.0587 39.8009C17.8518 40.1345 17.5316 40.3013 17.0981 40.3013C16.6593 40.3013 16.3373 40.131 16.1322 39.7902C15.927 39.4495 15.8244 38.9295 15.8244 38.2303C15.8244 37.5114 15.9279 36.986 16.1348 36.6542C16.3436 36.3206 16.6646 36.1538 17.0981 36.1538C17.5369 36.1538 17.8589 36.326 18.0641 36.6703C18.2692 37.0146 18.3718 37.5328 18.3718 38.2249ZM17.6868 39.4397C17.7385 39.3077 17.7751 39.1409 17.7965 38.9393C17.8179 38.7378 17.8286 38.4996 17.8286 38.2249C17.8286 37.952 17.8179 37.7147 17.7965 37.5131C17.7751 37.3116 17.7376 37.1439 17.6841 37.0101C17.6306 36.8745 17.5566 36.772 17.462 36.7024C17.3693 36.631 17.248 36.5954 17.0981 36.5954C16.9501 36.5954 16.8279 36.631 16.7315 36.7024C16.637 36.772 16.5621 36.8763 16.5068 37.0155C16.4533 37.151 16.4167 37.3223 16.3971 37.5292C16.3774 37.7361 16.3676 37.9698 16.3676 38.2303C16.3676 38.5085 16.3757 38.7413 16.3917 38.9286C16.4096 39.1159 16.447 39.2836 16.5041 39.4317C16.5558 39.569 16.629 39.6752 16.7235 39.7501C16.8198 39.8232 16.9447 39.8598 17.0981 39.8598C17.2462 39.8598 17.3675 39.825 17.462 39.7555C17.5584 39.6841 17.6333 39.5788 17.6868 39.4397ZM21.3633 38.2249C21.3633 38.9402 21.259 39.4656 21.0503 39.8009C20.8433 40.1345 20.5231 40.3013 20.0896 40.3013C19.6508 40.3013 19.3288 40.131 19.1237 39.7902C18.9185 39.4495 18.816 38.9295 18.816 38.2303C18.816 37.5114 18.9194 36.986 19.1264 36.6542C19.3351 36.3206 19.6562 36.1538 20.0896 36.1538C20.5285 36.1538 20.8505 36.326 21.0556 36.6703C21.2607 37.0146 21.3633 37.5328 21.3633 38.2249ZM20.6783 39.4397C20.73 39.3077 20.7666 39.1409 20.788 38.9393C20.8094 38.7378 20.8201 38.4996 20.8201 38.2249C20.8201 37.952 20.8094 37.7147 20.788 37.5131C20.7666 37.3116 20.7292 37.1439 20.6756 37.0101C20.6221 36.8745 20.5481 36.772 20.4536 36.7024C20.3608 36.631 20.2395 36.5954 20.0896 36.5954C19.9416 36.5954 19.8194 36.631 19.7231 36.7024C19.6285 36.772 19.5536 36.8763 19.4983 37.0155C19.4448 37.151 19.4082 37.3223 19.3886 37.5292C19.369 37.7361 19.3592 37.9698 19.3592 38.2303C19.3592 38.5085 19.3672 38.7413 19.3832 38.9286C19.4011 39.1159 19.4385 39.2836 19.4956 39.4317C19.5474 39.569 19.6205 39.6752 19.715 39.7501C19.8114 39.8232 19.9362 39.8598 20.0896 39.8598C20.2377 39.8598 20.359 39.825 20.4536 39.7555C20.5499 39.6841 20.6248 39.5788 20.6783 39.4397Z" fill="#8C99B2"/>
<path opacity="0.3" d="M15.6724 63.2715H258.1" stroke="url(#paint0_linear)" stroke-width="0.25" stroke-miterlimit="10"/>
<path opacity="0.3" d="M15.8972 73.9482H311.328" stroke="url(#paint1_linear)" stroke-width="0.25" stroke-miterlimit="10"/>
<path d="M43.7793 45.2108L26.2545 45.211L26.2542 28.5518C26.2542 27.4472 27.1496 26.5518 28.2542 26.5518H308.948C310.053 26.5518 310.948 27.4472 310.948 28.5518V45.3424L230.912 45.2845L221.757 42.8907H212.84L203.553 45.2108H186.152L176.993 48.1013H168.217L159.441 51.7931H141.53L132.572 49.3162H123.785L114.331 47.2635H105.99L96.6063 49.3162H79.2289L69.4976 47.2635H52.1202L43.7793 45.2108Z" fill="#F7931E" fill-opacity="0.25"/>
<path d="M27.1169 55.9432H38.8811L44.6712 57.332H56.7343L63.4897 58.7207H75.5527L82.0668 57.332H87.8571L94.4198 58.7207H100.519L106.738 60.3965H119.171L125.263 57.8988H131.356L137.714 55.9432H149.793L156.241 54.3735H162.431L168.786 55.993" stroke="#0089FF" stroke-width="0.5" stroke-linecap="round"/>
<path d="M26.8291 61.724L28.8585 62.5594C31.2175 63.5306 33.8683 63.5105 36.2124 62.5038C38.0378 61.7198 40.0633 61.5287 42.0031 61.9576L43.6831 62.329C44.392 62.4858 45.1158 62.5648 45.8419 62.5648H49.1035C50.4319 62.5648 51.7469 62.8295 52.9719 63.3434L54.6009 64.0268C56.3779 64.7722 58.3325 64.9884 60.2295 64.6492L62.5514 64.234C63.1323 64.1302 63.7213 64.0779 64.3115 64.0779H67.7681C69.0344 64.0779 70.2892 64.3184 71.4658 64.7867L72.9841 65.3909C74.8114 66.1181 76.8126 66.2904 78.7373 65.8861L82.1525 65.1688L85.9222 64.2631C90.1361 63.2505 94.5227 65.0676 96.7862 68.7634L96.837 68.8464L97.5143 70.3401C99.2278 74.1187 104.668 73.8958 106.067 69.9897C106.544 68.6568 107.606 67.6166 108.949 67.1674L110.684 66.5869C112.149 66.0968 113.72 66.0208 115.226 66.3674L117.074 66.793C118.567 67.1366 120.119 67.1328 121.61 66.7817L125.62 65.8374L129.864 64.2637C130.977 63.8512 132.154 63.64 133.341 63.64H137.77H142.352C143.374 63.64 144.389 63.4834 145.364 63.1757L150.117 61.6745L155.117 59.9892C155.796 59.7603 156.507 59.6436 157.224 59.6436C160.247 59.6436 162.883 61.6976 163.621 64.6285L168.313 83.2412" stroke="#12151E" stroke-width="0.5"/>
<path d="M169.864 55.8794H311.041" stroke="#0089FF" stroke-width="0.2"/>
<path d="M27.1169 45.0619H44.3188L52.6429 47.161H69.9852L79.6969 49.2601H97.0392L106.404 47.161H114.728L124.163 49.2601H132.932L141.873 51.7929H159.747L168.505 48.0177H177.263L186.404 45.0619H203.77L213.039 42.6895H221.938L231.074 45.1373H310.661" stroke="#F7931E" stroke-width="0.75" stroke-linecap="round" stroke-dasharray="0.5 1.5"/>
<path d="M27.1169 73.5957H44.3314L52.6669 75.6789H70.0331L79.7582 77.762H97.1244L106.502 75.6789H114.838L124.286 77.762H133.067L142.02 80.2757H159.918L168.689 76.529H177.459L186.612 73.5957H204.002L213.284 71.2412H222.195L231.344 73.6705L310.661 73.724" stroke="#8C99B2" stroke-width="0.75" stroke-linecap="round" stroke-dasharray="0.5 1.5"/>
<path d="M309.523 26.8018H28.2542C27.2877 26.8018 26.5042 27.5853 26.5042 28.5518V96.138C26.5042 97.1045 27.2877 97.888 28.2542 97.888H309.523C310.49 97.888 311.273 97.1045 311.273 96.138V28.5518C311.273 27.5853 310.49 26.8018 309.523 26.8018Z" fill="#EBF1F9" fill-opacity="0.5" stroke="#EBF1F9" stroke-opacity="0.5" stroke-width="0.5"/>
<path d="M43.4274 73.5116L26.8296 73.5118V97.724H310.661V73.6404L229.874 73.5837L220.753 71.2412H211.868L202.615 73.5116H185.278L176.152 76.3402H167.408L158.664 79.953H140.82L131.894 77.5291H123.14L113.721 75.5204H105.41L96.0606 77.5291H78.747L69.0514 75.5204H51.7377L43.4274 73.5116Z" fill="#8C99B2" fill-opacity="0.1"/>
<path d="M168.889 26.5518H309.523C310.628 26.5518 311.523 27.4472 311.523 28.5518V96.138C311.523 97.2425 310.628 98.138 309.523 98.138H168.889V62.3449V26.5518Z" fill="#F5F8FD" fill-opacity="0.5"/>
<path d="M168.498 98.138V26.5518" stroke="#8C99B2" stroke-width="0.5"/>
<path d="M169 56.5999C169.331 56.5999 169.6 56.3313 169.6 55.9999C169.6 55.6685 169.331 55.3999 169 55.3999C168.669 55.3999 168.4 55.6685 168.4 55.9999C168.4 56.3313 168.669 56.5999 169 56.5999Z" fill="#F5F8FD" stroke="#0089FF" stroke-width="0.8"/>
<path opacity="0.05" d="M171.101 83.0718C171.101 84.3306 169.934 85.4478 168.368 85.4478C166.802 85.4478 165.635 84.3306 165.635 83.0718C165.635 81.813 166.802 80.6958 168.368 80.6958C169.934 80.6958 171.101 81.813 171.101 83.0718Z" fill="#F7931E" stroke="#F7931E"/>
<path opacity="0.2" d="M169.908 83.0718C169.908 83.7426 169.276 84.3838 168.369 84.3838C167.462 84.3838 166.83 83.7426 166.83 83.0718C166.83 82.401 167.462 81.7598 168.369 81.7598C169.276 81.7598 169.908 82.401 169.908 83.0718Z" fill="#F7931E" stroke="#F7931E"/>
<path opacity="0.5" d="M168.369 84.0559C168.98 84.0559 169.475 83.6153 169.475 83.0719C169.475 82.5284 168.98 82.0879 168.369 82.0879C167.757 82.0879 167.262 82.5284 167.262 83.0719C167.262 83.6153 167.757 84.0559 168.369 84.0559Z" fill="#F7931E" stroke="#F7931E" stroke-miterlimit="10"/>
<path d="M168.297 83.0723C168.297 83.0271 168.318 82.9952 168.334 82.9805C168.35 82.9666 168.363 82.9644 168.369 82.9644C168.374 82.9644 168.388 82.9666 168.403 82.9805C168.419 82.9952 168.44 83.0271 168.44 83.0723C168.44 83.1174 168.419 83.1496 168.403 83.1642C168.388 83.1782 168.374 83.1804 168.369 83.1804C168.363 83.1804 168.35 83.1782 168.334 83.1642C168.318 83.1496 168.297 83.1174 168.297 83.0723Z" fill="#F7931E" stroke="#F7931E"/>
<path d="M26.2749 18.9998V15.0156H28.766V15.4865H26.8047V16.5782H28.6323V17.0492H26.8047V18.5289H28.766V18.9998H26.2749ZM31.8753 19.7169H31.407V18.9918H29.4377V19.7169H28.9694V18.5717H29.1674C29.3369 18.2934 29.4751 17.9304 29.5822 17.4826C29.691 17.0331 29.7454 16.5425 29.7454 16.011H31.5783V18.5717H31.8753V19.7169ZM31.0752 18.5717V16.4337H30.219C30.1958 16.8797 30.1343 17.2873 30.0344 17.6566C29.9363 18.024 29.8123 18.3291 29.6624 18.5717H31.0752ZM33.157 18.9998H32.5175V18.2372H33.157V18.9998ZM38.1045 18.9998H37.6068V16.7709L36.1994 18.9998H35.7445V16.011H36.2422V18.2051L37.6336 16.011H38.1045V18.9998ZM40.8124 18.173C40.8124 18.3407 40.7758 18.4825 40.7027 18.5984C40.6296 18.7144 40.5359 18.8063 40.4217 18.874C40.3129 18.94 40.189 18.9891 40.0498 19.0212C39.9107 19.0533 39.7715 19.0694 39.6324 19.0694C39.4362 19.0694 39.2506 19.0497 39.0758 19.0105C38.901 18.973 38.7271 18.9124 38.5541 18.8285V18.272H38.5862C38.7075 18.3844 38.8591 18.4736 39.041 18.5396C39.2248 18.6038 39.4076 18.6359 39.5896 18.6359C39.6681 18.6359 39.7519 18.6279 39.8411 18.6118C39.9321 18.594 40.0088 18.5672 40.0712 18.5315C40.1533 18.4816 40.2113 18.4281 40.2451 18.371C40.2808 18.3139 40.2987 18.2354 40.2987 18.1355C40.2987 18.0285 40.2781 17.9429 40.2371 17.8786C40.1979 17.8126 40.1435 17.7636 40.0739 17.7315C40.0043 17.6994 39.9258 17.6797 39.8384 17.6726C39.7528 17.6637 39.6618 17.6592 39.5655 17.6592H39.2123V17.2258H39.4825C39.5503 17.2258 39.6351 17.224 39.7367 17.2204C39.8384 17.2151 39.9196 17.2008 39.9802 17.1776C40.0569 17.1491 40.1185 17.1089 40.1649 17.0572C40.2113 17.0037 40.2344 16.9145 40.2344 16.7896C40.2344 16.7022 40.2148 16.6317 40.1756 16.5782C40.1363 16.5247 40.0873 16.4828 40.0284 16.4525C39.9678 16.4203 39.9018 16.3989 39.8304 16.3882C39.759 16.3758 39.6904 16.3695 39.6244 16.3695C39.4549 16.3695 39.2917 16.3936 39.1347 16.4418C38.9795 16.4881 38.8457 16.5577 38.7333 16.6505H38.7012V16.1073C38.8297 16.0627 38.9715 16.0234 39.1267 15.9895C39.2836 15.9557 39.4406 15.9387 39.5976 15.9387C39.7243 15.9387 39.8527 15.9521 39.9829 15.9788C40.1149 16.0038 40.2398 16.0475 40.3575 16.11C40.4681 16.1706 40.5609 16.2544 40.6358 16.3615C40.7107 16.4667 40.7482 16.5961 40.7482 16.7495C40.7482 16.9118 40.7018 17.0545 40.6091 17.1776C40.5181 17.2989 40.3968 17.3792 40.2451 17.4184V17.4371C40.411 17.4942 40.5466 17.5816 40.6519 17.6994C40.7589 17.8171 40.8124 17.975 40.8124 18.173ZM44.1143 18.9998H43.6166V16.6505L42.8995 18.1757H42.5249L41.8132 16.6505V18.9998H41.3422V16.011H41.9496L42.7363 17.6699L43.4962 16.011H44.1143V18.9998ZM46.1399 19.0694C45.6636 19.0694 45.2935 18.9356 45.0294 18.668C44.7672 18.3986 44.6361 18.0169 44.6361 17.5228C44.6361 17.0358 44.7637 16.6487 45.0187 16.3615C45.2738 16.0725 45.6074 15.928 46.0195 15.928C46.205 15.928 46.3691 15.9548 46.5118 16.0083C46.6545 16.0618 46.7794 16.1456 46.8864 16.2598C46.9935 16.374 47.0755 16.514 47.1326 16.6799C47.1897 16.844 47.2182 17.0456 47.2182 17.2846V17.5576H45.1472C45.1472 17.9054 45.2346 18.1712 45.4094 18.3549C45.5842 18.5387 45.8259 18.6305 46.1345 18.6305C46.2451 18.6305 46.3531 18.6181 46.4583 18.5931C46.5653 18.5681 46.6617 18.536 46.7473 18.4968C46.8383 18.4557 46.915 18.4165 46.9774 18.379C47.0398 18.3398 47.0916 18.3032 47.1326 18.2693H47.162V18.8178C47.1032 18.841 47.03 18.8705 46.9426 18.9061C46.8552 18.94 46.7767 18.9668 46.7072 18.9864C46.609 19.0132 46.5199 19.0337 46.4396 19.048C46.3611 19.0622 46.2612 19.0694 46.1399 19.0694ZM46.7286 17.1722C46.725 17.0367 46.7089 16.9198 46.6804 16.8217C46.6519 16.7236 46.6108 16.6407 46.5573 16.5729C46.4984 16.4979 46.4226 16.4409 46.3299 16.4016C46.2389 16.3624 46.1256 16.3427 45.99 16.3427C45.8563 16.3427 45.7421 16.3633 45.6475 16.4043C45.5548 16.4435 45.4701 16.5015 45.3934 16.5782C45.3184 16.6567 45.2613 16.7441 45.2221 16.8404C45.1829 16.935 45.1579 17.0456 45.1472 17.1722H46.7286ZM50.2338 17.4264C50.2338 17.9241 50.1143 18.321 49.8753 18.6172C49.638 18.9115 49.3375 19.0587 48.9735 19.0587C48.8255 19.0587 48.6944 19.0417 48.5802 19.0078C48.466 18.9739 48.3492 18.9213 48.2297 18.85V20.1022H47.7266V16.011H48.2297V16.324C48.3545 16.2116 48.4928 16.118 48.6444 16.0431C48.7978 15.9664 48.9646 15.928 49.1448 15.928C49.4873 15.928 49.754 16.0636 49.9449 16.3347C50.1375 16.6059 50.2338 16.9698 50.2338 17.4264ZM49.7147 17.4826C49.7147 17.1419 49.6603 16.8779 49.5515 16.6906C49.4427 16.5015 49.2661 16.407 49.0217 16.407C48.879 16.407 48.7408 16.4391 48.607 16.5033C48.475 16.5657 48.3492 16.6469 48.2297 16.7468V18.4406C48.3617 18.5048 48.4741 18.5485 48.5668 18.5717C48.6614 18.5949 48.7693 18.6065 48.8906 18.6065C49.151 18.6065 49.3535 18.511 49.498 18.3202C49.6425 18.1293 49.7147 17.8501 49.7147 17.4826ZM52.0534 19.0694C51.5771 19.0694 51.2069 18.9356 50.9429 18.668C50.6807 18.3986 50.5496 18.0169 50.5496 17.5228C50.5496 17.0358 50.6771 16.6487 50.9322 16.3615C51.1873 16.0725 51.5209 15.928 51.933 15.928C52.1185 15.928 52.2826 15.9548 52.4253 16.0083C52.568 16.0618 52.6929 16.1456 52.7999 16.2598C52.9069 16.374 52.989 16.514 53.0461 16.6799C53.1032 16.844 53.1317 17.0456 53.1317 17.2846V17.5576H51.0607C51.0607 17.9054 51.1481 18.1712 51.3229 18.3549C51.4977 18.5387 51.7394 18.6305 52.048 18.6305C52.1586 18.6305 52.2665 18.6181 52.3718 18.5931C52.4788 18.5681 52.5751 18.536 52.6608 18.4968C52.7517 18.4557 52.8285 18.4165 52.8909 18.379C52.9533 18.3398 53.0051 18.3032 53.0461 18.2693H53.0755V18.8178C53.0166 18.841 52.9435 18.8705 52.8561 18.9061C52.7687 18.94 52.6902 18.9668 52.6206 18.9864C52.5225 19.0132 52.4333 19.0337 52.3531 19.048C52.2746 19.0622 52.1747 19.0694 52.0534 19.0694ZM52.642 17.1722C52.6385 17.0367 52.6224 16.9198 52.5939 16.8217C52.5653 16.7236 52.5243 16.6407 52.4708 16.5729C52.4119 16.4979 52.3361 16.4409 52.2433 16.4016C52.1524 16.3624 52.0391 16.3427 51.9035 16.3427C51.7697 16.3427 51.6556 16.3633 51.561 16.4043C51.4683 16.4435 51.3835 16.5015 51.3068 16.5782C51.2319 16.6567 51.1748 16.7441 51.1356 16.8404C51.0963 16.935 51.0714 17.0456 51.0607 17.1722H52.642ZM56.0001 18.9998H55.4971V17.6539H54.1432V18.9998H53.6401V16.011H54.1432V17.2204H55.4971V16.011H56.0001V18.9998ZM59.088 18.9998H58.5903V16.7709L57.1828 18.9998H56.728V16.011H57.2257V18.2051L58.6171 16.011H59.088V18.9998ZM61.9805 18.9998H61.4775V17.8144H60.9798L60.0941 18.9998H59.5081L60.4687 17.7689C60.2207 17.6958 60.0388 17.587 59.9228 17.4425C59.8087 17.298 59.7516 17.1045 59.7516 16.8619C59.7516 16.7138 59.7837 16.5845 59.8479 16.4739C59.9139 16.3615 60.0022 16.2669 60.1128 16.1902C60.202 16.1296 60.3144 16.085 60.45 16.0564C60.5855 16.0261 60.7372 16.011 60.9049 16.011H61.9805V18.9998ZM61.4775 17.4184V16.4123H60.9316C60.8157 16.4123 60.7238 16.4186 60.656 16.431C60.59 16.4435 60.5258 16.4676 60.4633 16.5033C60.3991 16.5425 60.3501 16.5961 60.3162 16.6638C60.2841 16.7298 60.268 16.8012 60.268 16.8779C60.268 16.976 60.2787 17.0563 60.3001 17.1187C60.3233 17.1794 60.3643 17.2356 60.4232 17.2873C60.4856 17.3408 60.5615 17.3765 60.6507 17.3943C60.7416 17.4104 60.8406 17.4184 60.9477 17.4184H61.4775Z" fill="#8C99B2"/>
<path d="M205 12H233C233.552 12 234 12.4477 234 13V21C234 21.5523 233.552 22 233 22H205C204.448 22 204 21.5523 204 21V13C204 12.4477 204.448 12 205 12Z" fill="#EBF1F9"/>
<path d="M277 12H310C310.552 12 311 12.4477 311 13V21C311 21.5523 310.552 22 310 22H277C276.448 22 276 21.5523 276 21V13C276 12.4477 276.448 12 277 12Z" fill="#EBF1F9"/>
<path d="M222.794 15.6125L221.07 19H220.5L222.325 15.484H220.265V15.0158H222.794V15.6125ZM225.761 17.0065C225.761 17.7219 225.657 18.2472 225.448 18.5826C225.241 18.9162 224.921 19.0829 224.487 19.0829C224.048 19.0829 223.726 18.9126 223.521 18.5719C223.316 18.2312 223.214 17.7112 223.214 17.0119C223.214 16.293 223.317 15.7677 223.524 15.4359C223.733 15.1023 224.054 14.9355 224.487 14.9355C224.926 14.9355 225.248 15.1076 225.453 15.4519C225.658 15.7962 225.761 16.3144 225.761 17.0065ZM225.076 18.2213C225.128 18.0893 225.164 17.9226 225.186 17.721C225.207 17.5194 225.218 17.2813 225.218 17.0065C225.218 16.7336 225.207 16.4964 225.186 16.2948C225.164 16.0932 225.127 15.9255 225.073 15.7917C225.02 15.6562 224.946 15.5536 224.851 15.484C224.758 15.4127 224.637 15.377 224.487 15.377C224.339 15.377 224.217 15.4127 224.121 15.484C224.026 15.5536 223.951 15.6579 223.896 15.7971C223.842 15.9327 223.806 16.1039 223.786 16.3108C223.767 16.5178 223.757 16.7515 223.757 17.0119C223.757 17.2902 223.765 17.523 223.781 17.7103C223.799 17.8976 223.836 18.0653 223.893 18.2133C223.945 18.3507 224.018 18.4568 224.113 18.5317C224.209 18.6049 224.334 18.6414 224.487 18.6414C224.635 18.6414 224.757 18.6067 224.851 18.5371C224.948 18.4657 225.022 18.3605 225.076 18.2213ZM228.752 17.0065C228.752 17.7219 228.648 18.2472 228.439 18.5826C228.232 18.9162 227.912 19.0829 227.479 19.0829C227.04 19.0829 226.718 18.9126 226.513 18.5719C226.308 18.2312 226.205 17.7112 226.205 17.0119C226.205 16.293 226.309 15.7677 226.516 15.4359C226.724 15.1023 227.045 14.9355 227.479 14.9355C227.918 14.9355 228.24 15.1076 228.445 15.4519C228.65 15.7962 228.752 16.3144 228.752 17.0065ZM228.067 18.2213C228.119 18.0893 228.156 17.9226 228.177 17.721C228.199 17.5194 228.209 17.2813 228.209 17.0065C228.209 16.7336 228.199 16.4964 228.177 16.2948C228.156 16.0932 228.118 15.9255 228.065 15.7917C228.011 15.6562 227.937 15.5536 227.843 15.484C227.75 15.4127 227.629 15.377 227.479 15.377C227.331 15.377 227.209 15.4127 227.112 15.484C227.018 15.5536 226.943 15.6579 226.887 15.7971C226.834 15.9327 226.797 16.1039 226.778 16.3108C226.758 16.5178 226.748 16.7515 226.748 17.0119C226.748 17.2902 226.756 17.523 226.772 17.7103C226.79 17.8976 226.828 18.0653 226.885 18.2133C226.937 18.3507 227.01 18.4568 227.104 18.5317C227.201 18.6049 227.325 18.6414 227.479 18.6414C227.627 18.6414 227.748 18.6067 227.843 18.5371C227.939 18.4657 228.014 18.3605 228.067 18.2213Z" fill="#0089FF"/>
<path d="M298.072 17.7317C298.072 17.9243 298.041 18.1027 297.979 18.2668C297.918 18.431 297.832 18.5728 297.722 18.6923C297.609 18.8136 297.469 18.909 297.302 18.9786C297.136 19.0482 296.949 19.0829 296.743 19.0829C296.552 19.0829 296.363 19.0615 296.178 19.0187C295.994 18.9777 295.835 18.9233 295.699 18.8555V18.2909H295.736C295.777 18.3212 295.836 18.356 295.913 18.3953C295.99 18.4327 296.074 18.4684 296.167 18.5023C296.272 18.5398 296.369 18.5692 296.456 18.5906C296.544 18.6102 296.642 18.62 296.751 18.62C296.858 18.62 296.962 18.6013 297.064 18.5638C297.165 18.5246 297.253 18.4622 297.326 18.3765C297.392 18.2981 297.442 18.2062 297.476 18.1009C297.511 17.9957 297.529 17.8717 297.529 17.729C297.529 17.5881 297.51 17.4721 297.47 17.3812C297.433 17.2902 297.378 17.2153 297.304 17.1564C297.228 17.0886 297.133 17.0413 297.021 17.0146C296.91 16.986 296.786 16.9718 296.649 16.9718C296.504 16.9718 296.359 16.9834 296.213 17.0065C296.066 17.0279 295.95 17.0485 295.862 17.0681V15.0158H298.048V15.484H296.379V16.5436C296.443 16.5365 296.506 16.5311 296.569 16.5276C296.631 16.524 296.688 16.5222 296.74 16.5222C296.943 16.5222 297.115 16.5392 297.256 16.5731C297.397 16.607 297.533 16.673 297.663 16.7711C297.795 16.871 297.896 16.9958 297.965 17.1457C298.037 17.2955 298.072 17.4909 298.072 17.7317ZM301.064 17.7317C301.064 17.9243 301.033 18.1027 300.97 18.2668C300.91 18.431 300.824 18.5728 300.713 18.6923C300.601 18.8136 300.461 18.909 300.293 18.9786C300.127 19.0482 299.941 19.0829 299.734 19.0829C299.543 19.0829 299.355 19.0615 299.169 19.0187C298.986 18.9777 298.826 18.9233 298.691 18.8555V18.2909H298.728C298.769 18.3212 298.828 18.356 298.905 18.3953C298.981 18.4327 299.066 18.4684 299.159 18.5023C299.264 18.5398 299.36 18.5692 299.448 18.5906C299.535 18.6102 299.633 18.62 299.742 18.62C299.849 18.62 299.953 18.6013 300.055 18.5638C300.157 18.5246 300.244 18.4622 300.317 18.3765C300.383 18.2981 300.433 18.2062 300.467 18.1009C300.503 17.9957 300.521 17.8717 300.521 17.729C300.521 17.5881 300.501 17.4721 300.462 17.3812C300.424 17.2902 300.369 17.2153 300.296 17.1564C300.219 17.0886 300.125 17.0413 300.012 17.0146C299.902 16.986 299.778 16.9718 299.64 16.9718C299.496 16.9718 299.351 16.9834 299.204 17.0065C299.058 17.0279 298.941 17.0485 298.854 17.0681V15.0158H301.04V15.484H299.37V16.5436C299.434 16.5365 299.498 16.5311 299.56 16.5276C299.623 16.524 299.68 16.5222 299.731 16.5222C299.935 16.5222 300.107 16.5392 300.248 16.5731C300.389 16.607 300.524 16.673 300.655 16.7711C300.787 16.871 300.887 16.9958 300.957 17.1457C301.028 17.2955 301.064 17.4909 301.064 17.7317ZM304.12 17.0065C304.12 17.7219 304.015 18.2472 303.807 18.5826C303.6 18.9162 303.279 19.0829 302.846 19.0829C302.407 19.0829 302.085 18.9126 301.88 18.5719C301.675 18.2312 301.572 17.7112 301.572 17.0119C301.572 16.293 301.676 15.7677 301.883 15.4359C302.091 15.1023 302.413 14.9355 302.846 14.9355C303.285 14.9355 303.607 15.1076 303.812 15.4519C304.017 15.7962 304.12 16.3144 304.12 17.0065ZM303.435 18.2213C303.486 18.0893 303.523 17.9226 303.544 17.721C303.566 17.5194 303.576 17.2813 303.576 17.0065C303.576 16.7336 303.566 16.4964 303.544 16.2948C303.523 16.0932 303.486 15.9255 303.432 15.7917C303.378 15.6562 303.304 15.5536 303.21 15.484C303.117 15.4127 302.996 15.377 302.846 15.377C302.698 15.377 302.576 15.4127 302.479 15.484C302.385 15.5536 302.31 15.6579 302.255 15.7971C302.201 15.9327 302.165 16.1039 302.145 16.3108C302.125 16.5178 302.116 16.7515 302.116 17.0119C302.116 17.2902 302.124 17.523 302.14 17.7103C302.157 17.8976 302.195 18.0653 302.252 18.2133C302.304 18.3507 302.377 18.4568 302.471 18.5317C302.568 18.6049 302.693 18.6414 302.846 18.6414C302.994 18.6414 303.115 18.6067 303.21 18.5371C303.306 18.4657 303.381 18.3605 303.435 18.2213Z" fill="#8C99B2"/>
<path d="M210 19C211.105 19 212 18.1046 212 17C212 15.8954 211.105 15 210 15C208.895 15 208 15.8954 208 17C208 18.1046 208.895 19 210 19Z" fill="#0089FF"/>
<path d="M285 19.0483C286.105 19.0483 287 18.1529 287 17.0483C287 15.9438 286.105 15.0483 285 15.0483C283.895 15.0483 283 15.9438 283 17.0483C283 18.1529 283.895 19.0483 285 19.0483Z" fill="#8C99B2"/>
<path d="M185.297 18.9998H184.767V15.4865H182.934V18.9998H182.404V15.0156H185.297V18.9998ZM188.382 18.9998H187.879V16.4337H186.851C186.846 16.5818 186.84 16.7245 186.835 16.8619C186.83 16.9974 186.824 17.1205 186.819 17.2311C186.808 17.5112 186.79 17.7458 186.763 17.9348C186.738 18.1239 186.706 18.2756 186.667 18.3897C186.627 18.5075 186.584 18.5993 186.535 18.6653C186.489 18.7313 186.436 18.7911 186.378 18.8446C186.317 18.8981 186.252 18.9383 186.182 18.965C186.113 18.9918 186.034 19.0052 185.947 19.0052C185.918 19.0052 185.882 19.0043 185.837 19.0025C185.792 19.0007 185.761 18.9998 185.743 18.9998V18.561H185.77C185.783 18.561 185.795 18.5619 185.808 18.5636C185.822 18.5654 185.838 18.5663 185.856 18.5663C185.899 18.5663 185.941 18.5601 185.982 18.5476C186.023 18.5351 186.059 18.5119 186.091 18.478C186.18 18.3906 186.246 18.2381 186.287 18.0205C186.328 17.801 186.357 17.4951 186.375 17.1027C186.382 16.9564 186.388 16.7834 186.394 16.5836C186.401 16.3838 186.407 16.1929 186.412 16.011H188.382V18.9998ZM190.782 18.264V17.4345C190.662 17.4452 190.511 17.4603 190.327 17.48C190.145 17.4978 189.998 17.5237 189.886 17.5576C189.752 17.5986 189.641 17.6619 189.554 17.7475C189.466 17.8314 189.423 17.9491 189.423 18.1007C189.423 18.272 189.471 18.4013 189.567 18.4887C189.663 18.5761 189.804 18.6198 189.99 18.6198C190.149 18.6198 190.292 18.5859 190.421 18.5182C190.549 18.4486 190.67 18.3639 190.782 18.264ZM190.782 18.6814C190.741 18.7117 190.686 18.7545 190.616 18.8098C190.548 18.8633 190.482 18.9061 190.418 18.9383C190.329 18.9846 190.242 19.0203 190.158 19.0453C190.076 19.0703 189.96 19.0827 189.811 19.0827C189.688 19.0827 189.571 19.0596 189.46 19.0132C189.349 18.9668 189.252 18.9017 189.168 18.8178C189.088 18.7358 189.024 18.635 188.976 18.5155C188.928 18.3942 188.904 18.2666 188.904 18.1328C188.904 17.9259 188.947 17.7502 189.035 17.6057C189.122 17.4594 189.26 17.3435 189.449 17.2579C189.617 17.1812 189.815 17.1285 190.043 17.1C190.272 17.0697 190.518 17.0474 190.782 17.0331V16.9368C190.782 16.819 190.764 16.7245 190.728 16.6531C190.693 16.58 190.643 16.5238 190.579 16.4846C190.514 16.4435 190.436 16.4168 190.343 16.4043C190.25 16.39 190.155 16.3829 190.057 16.3829C189.941 16.3829 189.804 16.4007 189.647 16.4364C189.49 16.4703 189.333 16.5202 189.176 16.5862H189.147V16.0752C189.24 16.0484 189.373 16.019 189.546 15.9869C189.719 15.9548 189.89 15.9387 190.059 15.9387C190.265 15.9387 190.438 15.9548 190.579 15.9869C190.719 16.019 190.846 16.077 190.959 16.1608C191.067 16.2429 191.148 16.349 191.202 16.4792C191.256 16.6094 191.282 16.7682 191.282 16.9555V18.9998H190.782V18.6814ZM194.351 18.9998H193.848V17.6539H192.494V18.9998H191.991V16.011H192.494V17.2204H193.848V16.011H194.351V18.9998Z" fill="#0089FF"/>
<path d="M259.925 17.0149C259.925 17.2629 259.888 17.4823 259.813 17.6731C259.738 17.8622 259.634 18.0219 259.5 18.1521C259.355 18.2948 259.178 18.4054 258.967 18.4839C258.757 18.5606 258.539 18.6016 258.315 18.607V19.0913H257.787V18.607C257.564 18.5999 257.348 18.5597 257.137 18.4866C256.927 18.4134 256.747 18.3037 256.599 18.1575C256.466 18.0272 256.361 17.8658 256.286 17.6731C256.213 17.4805 256.177 17.2611 256.177 17.0149C256.177 16.783 256.212 16.5752 256.284 16.3914C256.355 16.2059 256.455 16.0463 256.583 15.9125C256.721 15.7698 256.893 15.6574 257.1 15.5753C257.307 15.4933 257.536 15.4487 257.787 15.4415V15H258.315V15.4415C258.566 15.4469 258.796 15.4915 259.005 15.5753C259.214 15.6574 259.387 15.7689 259.524 15.9098C259.652 16.0418 259.751 16.1997 259.821 16.3834C259.891 16.5672 259.925 16.7777 259.925 17.0149ZM259.374 16.9935C259.374 16.8169 259.349 16.6564 259.299 16.5119C259.249 16.3656 259.175 16.2416 259.077 16.1399C258.984 16.0436 258.876 15.9722 258.753 15.9259C258.63 15.8795 258.484 15.8545 258.315 15.8509V18.2056C258.475 18.2021 258.618 18.1762 258.743 18.128C258.869 18.0781 258.974 18.0121 259.056 17.93C259.165 17.823 259.245 17.6928 259.297 17.5394C259.348 17.3859 259.374 17.204 259.374 16.9935ZM257.787 18.2056V15.8509C257.618 15.8527 257.472 15.8777 257.349 15.9259C257.226 15.974 257.118 16.0454 257.025 16.1399C256.927 16.2398 256.853 16.3638 256.803 16.5119C256.753 16.6599 256.728 16.8205 256.728 16.9935C256.728 17.204 256.754 17.3868 256.805 17.542C256.857 17.6954 256.937 17.8248 257.046 17.93C257.128 18.0085 257.232 18.0736 257.357 18.1254C257.483 18.1771 257.627 18.2038 257.787 18.2056ZM262.138 18.3127V17.4832C262.019 17.4939 261.867 17.509 261.683 17.5287C261.501 17.5465 261.354 17.5724 261.242 17.6063C261.108 17.6473 260.997 17.7106 260.91 17.7962C260.823 17.8801 260.779 17.9978 260.779 18.1494C260.779 18.3207 260.827 18.45 260.923 18.5374C261.02 18.6248 261.161 18.6685 261.346 18.6685C261.505 18.6685 261.649 18.6346 261.777 18.5669C261.905 18.4973 262.026 18.4126 262.138 18.3127ZM262.138 18.7301C262.097 18.7604 262.042 18.8032 261.972 18.8585C261.905 18.912 261.839 18.9548 261.774 18.987C261.685 19.0333 261.599 19.069 261.515 19.094C261.433 19.119 261.317 19.1314 261.167 19.1314C261.044 19.1314 260.927 19.1083 260.816 19.0619C260.706 19.0155 260.609 18.9504 260.525 18.8665C260.444 18.7845 260.38 18.6837 260.332 18.5642C260.284 18.4429 260.26 18.3153 260.26 18.1815C260.26 17.9746 260.304 17.7989 260.391 17.6544C260.478 17.5081 260.617 17.3922 260.806 17.3066C260.973 17.2299 261.171 17.1772 261.4 17.1487C261.628 17.1184 261.874 17.0961 262.138 17.0818V16.9855C262.138 16.8677 262.12 16.7732 262.085 16.7018C262.049 16.6287 261.999 16.5725 261.935 16.5333C261.871 16.4922 261.792 16.4655 261.699 16.453C261.607 16.4387 261.511 16.4316 261.413 16.4316C261.297 16.4316 261.161 16.4494 261.004 16.4851C260.847 16.519 260.69 16.5689 260.533 16.6349H260.503V16.1239C260.596 16.0971 260.729 16.0677 260.902 16.0356C261.075 16.0035 261.246 15.9874 261.416 15.9874C261.621 15.9874 261.794 16.0035 261.935 16.0356C262.076 16.0677 262.202 16.1257 262.315 16.2095C262.424 16.2916 262.505 16.3977 262.558 16.5279C262.612 16.6581 262.639 16.8169 262.639 17.0042V19.0485H262.138V18.7301ZM265.753 19.0485H265.127L264.102 17.6705H263.851V19.0485H263.348V16.0597H263.851V17.3601C263.981 17.3583 264.092 17.3315 264.183 17.2798C264.275 17.2263 264.354 17.1237 264.418 16.9721C264.438 16.9275 264.459 16.8758 264.482 16.8169C264.507 16.758 264.527 16.7063 264.541 16.6617C264.62 16.4423 264.728 16.2871 264.868 16.1961C265.007 16.1051 265.188 16.0597 265.411 16.0597H265.547V16.4931H265.432C265.291 16.4931 265.185 16.5226 265.114 16.5814C265.044 16.6385 264.985 16.7438 264.937 16.8972C264.887 17.0524 264.828 17.1737 264.761 17.2611C264.693 17.3467 264.618 17.4127 264.536 17.4591L265.753 19.0485ZM268.26 16.5012H267.244V19.0485H266.741V16.5012H265.724V16.0597H268.26V16.5012Z" fill="#8C99B2"/>
<path d="M43.1799 108.945H41.2373V108.539H41.9598V105.868H41.2373V105.504C41.5102 105.504 41.7109 105.466 41.8393 105.389C41.9696 105.311 42.0427 105.164 42.0588 104.948H42.4735V108.539H43.1799V108.945Z" fill="#8C99B2"/>
<path d="M26.5314 106.952C26.5314 107.667 26.427 108.193 26.2183 108.528C26.0114 108.861 25.6912 109.028 25.2577 109.028C24.8189 109.028 24.4969 108.858 24.2918 108.517C24.0866 108.176 23.9841 107.656 23.9841 106.957C23.9841 106.238 24.0875 105.713 24.2944 105.381C24.5032 105.048 24.8242 104.881 25.2577 104.881C25.6966 104.881 26.0185 105.053 26.2237 105.397C26.4288 105.742 26.5314 106.26 26.5314 106.952ZM25.8464 108.167C25.8981 108.035 25.9347 107.868 25.9561 107.666C25.9775 107.465 25.9882 107.227 25.9882 106.952C25.9882 106.679 25.9775 106.442 25.9561 106.24C25.9347 106.039 25.8972 105.871 25.8437 105.737C25.7902 105.601 25.7162 105.499 25.6216 105.429C25.5289 105.358 25.4076 105.322 25.2577 105.322C25.1097 105.322 24.9875 105.358 24.8911 105.429C24.7966 105.499 24.7217 105.603 24.6664 105.742C24.6129 105.878 24.5763 106.049 24.5567 106.256C24.537 106.463 24.5272 106.697 24.5272 106.957C24.5272 107.235 24.5353 107.468 24.5513 107.656C24.5692 107.843 24.6066 108.011 24.6637 108.159C24.7154 108.296 24.7886 108.402 24.8831 108.477C24.9794 108.55 25.1043 108.587 25.2577 108.587C25.4058 108.587 25.5271 108.552 25.6216 108.482C25.718 108.411 25.7929 108.306 25.8464 108.167Z" fill="#8C99B2"/>
<path d="M60.2541 108.945H57.7951V108.386C57.9717 108.218 58.1385 108.058 58.2954 107.904C58.4524 107.751 58.6058 107.591 58.7557 107.425C59.0589 107.092 59.2659 106.825 59.3765 106.625C59.4871 106.424 59.5424 106.216 59.5424 106.002C59.5424 105.891 59.5245 105.794 59.4888 105.71C59.455 105.626 59.4077 105.557 59.347 105.502C59.2846 105.448 59.2124 105.408 59.1303 105.381C59.0482 105.354 58.9582 105.341 58.86 105.341C58.7655 105.341 58.6692 105.354 58.5711 105.378C58.4747 105.402 58.382 105.431 58.2928 105.467C58.2179 105.497 58.1456 105.534 58.076 105.577C58.0065 105.619 57.9503 105.656 57.9075 105.686H57.878V105.119C57.9886 105.064 58.142 105.01 58.3383 104.958C58.5363 104.905 58.7236 104.878 58.9002 104.878C59.2712 104.878 59.562 104.977 59.7725 105.175C59.983 105.371 60.0882 105.638 60.0882 105.975C60.0882 106.13 60.0695 106.274 60.032 106.406C59.9964 106.538 59.9464 106.66 59.8822 106.773C59.8162 106.889 59.7368 107.004 59.644 107.118C59.5513 107.232 59.4532 107.344 59.3497 107.455C59.182 107.637 58.9947 107.826 58.7878 108.022C58.5826 108.218 58.4185 108.374 58.2954 108.488H60.2541V108.945Z" fill="#8C99B2"/>
<path d="M77.8502 105.341C77.7539 105.341 77.6576 105.353 77.5613 105.376C77.4649 105.399 77.3704 105.429 77.2776 105.467C77.192 105.502 77.1171 105.54 77.0529 105.579C76.9904 105.618 76.9342 105.655 76.8843 105.689H76.8522V105.124C76.9681 105.062 77.1251 105.006 77.3231 104.956C77.5229 104.904 77.7129 104.878 77.893 104.878C78.0732 104.878 78.2302 104.897 78.364 104.934C78.4996 104.97 78.6218 105.026 78.7306 105.103C78.8483 105.189 78.9366 105.292 78.9955 105.413C79.0561 105.535 79.0864 105.676 79.0864 105.839C79.0864 106.058 79.0142 106.251 78.8697 106.417C78.7252 106.583 78.5522 106.688 78.3506 106.732V106.77C78.4344 106.786 78.5236 106.814 78.6182 106.853C78.7145 106.892 78.8037 106.95 78.8858 107.027C78.9678 107.103 79.0347 107.202 79.0864 107.324C79.1382 107.443 79.164 107.59 79.164 107.763C79.164 107.943 79.1328 108.109 79.0704 108.26C79.0097 108.41 78.9232 108.543 78.8108 108.659C78.6949 108.78 78.5549 108.872 78.3907 108.935C78.2266 108.997 78.0402 109.028 77.8315 109.028C77.6317 109.028 77.4337 109.004 77.2375 108.956C77.0413 108.908 76.8763 108.85 76.7425 108.782V108.217H76.7799C76.8923 108.3 77.043 108.378 77.2321 108.453C77.4212 108.528 77.6103 108.565 77.7994 108.565C77.9082 108.565 78.017 108.548 78.1258 108.515C78.2364 108.479 78.3283 108.422 78.4014 108.343C78.4728 108.265 78.5272 108.178 78.5647 108.084C78.6021 107.989 78.6209 107.87 78.6209 107.725C78.6209 107.581 78.5995 107.462 78.5566 107.369C78.5156 107.277 78.4576 107.203 78.3827 107.15C78.3078 107.096 78.2186 107.06 78.1151 107.04C78.0135 107.019 77.9029 107.008 77.7833 107.008H77.5559V106.564H77.7325C77.9733 106.564 78.1687 106.507 78.3185 106.393C78.4701 106.278 78.5459 106.113 78.5459 105.895C78.5459 105.795 78.5263 105.709 78.4871 105.638C78.4478 105.565 78.3979 105.507 78.3372 105.464C78.2694 105.418 78.1945 105.386 78.1125 105.368C78.0304 105.35 77.943 105.341 77.8502 105.341Z" fill="#8C99B2"/>
<path d="M96.2088 107.575H95.7352V108.945H95.2215V107.575H93.4608V107.013L95.2429 104.961H95.7352V107.147H96.2088V107.575ZM95.2215 107.147V105.59L93.8782 107.147H95.2215Z" fill="#8C99B2"/>
<path d="M115.038 107.677C115.038 107.87 115.007 108.048 114.945 108.212C114.884 108.376 114.799 108.518 114.688 108.638C114.576 108.759 114.436 108.854 114.268 108.924C114.102 108.993 113.916 109.028 113.709 109.028C113.518 109.028 113.33 109.007 113.144 108.964C112.96 108.923 112.801 108.869 112.665 108.801V108.236H112.703C112.744 108.267 112.802 108.301 112.879 108.341C112.956 108.378 113.041 108.414 113.133 108.448C113.239 108.485 113.335 108.515 113.422 108.536C113.51 108.556 113.608 108.565 113.717 108.565C113.824 108.565 113.928 108.547 114.03 108.509C114.131 108.47 114.219 108.407 114.292 108.322C114.358 108.243 114.408 108.151 114.442 108.046C114.477 107.941 114.495 107.817 114.495 107.674C114.495 107.533 114.476 107.417 114.436 107.326C114.399 107.235 114.344 107.161 114.271 107.102C114.194 107.034 114.099 106.987 113.987 106.96C113.876 106.931 113.752 106.917 113.615 106.917C113.47 106.917 113.325 106.929 113.179 106.952C113.033 106.973 112.916 106.994 112.828 107.013V104.961H115.014V105.429H113.345V106.489C113.409 106.482 113.472 106.476 113.535 106.473C113.597 106.469 113.654 106.468 113.706 106.468C113.909 106.468 114.081 106.484 114.222 106.518C114.363 106.552 114.499 106.618 114.629 106.716C114.761 106.816 114.862 106.941 114.931 107.091C115.003 107.241 115.038 107.436 115.038 107.677Z" fill="#8C99B2"/>
<path d="M132.017 107.653C132.017 107.858 131.983 108.047 131.915 108.22C131.847 108.393 131.756 108.538 131.642 108.654C131.522 108.777 131.389 108.87 131.241 108.935C131.093 108.997 130.929 109.028 130.751 109.028C130.571 109.028 130.407 108.998 130.259 108.937C130.112 108.877 129.983 108.787 129.871 108.667C129.733 108.523 129.625 108.33 129.547 108.089C129.47 107.846 129.432 107.549 129.432 107.195C129.432 106.849 129.467 106.537 129.539 106.259C129.61 105.979 129.72 105.735 129.868 105.528C130.012 105.327 130.199 105.17 130.427 105.057C130.656 104.943 130.92 104.886 131.219 104.886C131.308 104.886 131.391 104.891 131.468 104.9C131.545 104.908 131.613 104.923 131.671 104.942V105.453H131.647C131.599 105.427 131.53 105.403 131.439 105.381C131.348 105.358 131.25 105.346 131.147 105.346C130.815 105.346 130.547 105.459 130.342 105.684C130.138 105.907 130.018 106.238 129.98 106.679C130.107 106.59 130.237 106.521 130.371 106.473C130.505 106.425 130.651 106.401 130.81 106.401C130.965 106.401 131.101 106.417 131.217 106.449C131.334 106.479 131.456 106.542 131.583 106.636C131.729 106.747 131.838 106.887 131.91 107.056C131.981 107.226 132.017 107.425 132.017 107.653ZM131.473 107.674C131.473 107.51 131.452 107.373 131.409 107.262C131.366 107.152 131.297 107.057 131.2 106.979C131.131 106.922 131.052 106.884 130.962 106.866C130.875 106.848 130.785 106.839 130.692 106.839C130.567 106.839 130.446 106.858 130.328 106.896C130.21 106.933 130.094 106.988 129.98 107.059C129.977 107.098 129.974 107.136 129.972 107.174C129.971 107.21 129.97 107.255 129.97 107.31C129.97 107.587 129.996 107.81 130.05 107.979C130.105 108.149 130.173 108.277 130.253 108.365C130.33 108.449 130.408 108.507 130.489 108.541C130.571 108.575 130.659 108.592 130.754 108.592C130.968 108.592 131.141 108.515 131.273 108.362C131.407 108.209 131.473 107.979 131.473 107.674Z" fill="#8C99B2"/>
<path d="M150.977 105.558L149.254 108.945H148.684L150.509 105.429H148.448V104.961H150.977V105.558Z" fill="#8C99B2"/>
<path d="M167.225 105.89C167.225 105.711 167.165 105.562 167.045 105.443C166.926 105.323 166.76 105.263 166.548 105.263C166.353 105.263 166.193 105.317 166.069 105.424C165.945 105.531 165.884 105.676 165.884 105.857C165.884 105.989 165.915 106.101 165.978 106.192C166.042 106.283 166.137 106.365 166.264 106.438C166.319 106.468 166.403 106.51 166.515 106.564C166.63 106.617 166.733 106.659 166.826 106.69C166.981 106.57 167.086 106.448 167.142 106.323C167.197 106.196 167.225 106.052 167.225 105.89ZM167.299 107.886C167.299 107.722 167.267 107.591 167.203 107.495C167.139 107.399 167.015 107.301 166.831 107.201C166.771 107.167 166.689 107.13 166.588 107.091C166.488 107.052 166.374 107.005 166.248 106.952C166.1 107.05 165.987 107.171 165.908 107.316C165.83 107.458 165.79 107.622 165.79 107.805C165.79 108.046 165.863 108.245 166.007 108.402C166.153 108.559 166.336 108.638 166.556 108.638C166.78 108.638 166.96 108.571 167.096 108.437C167.232 108.301 167.299 108.118 167.299 107.886ZM166.55 109.036C166.352 109.036 166.172 109.007 166.01 108.948C165.847 108.889 165.709 108.804 165.595 108.694C165.483 108.587 165.397 108.46 165.338 108.314C165.281 108.166 165.252 108.01 165.252 107.846C165.252 107.63 165.31 107.432 165.424 107.252C165.54 107.07 165.707 106.925 165.927 106.818V106.802C165.731 106.688 165.585 106.563 165.491 106.427C165.396 106.292 165.349 106.122 165.349 105.919C165.349 105.619 165.462 105.37 165.689 105.17C165.915 104.97 166.202 104.87 166.55 104.87C166.912 104.87 167.202 104.966 167.42 105.156C167.639 105.345 167.749 105.588 167.749 105.884C167.749 106.063 167.696 106.239 167.591 106.414C167.488 106.589 167.338 106.725 167.142 106.823V106.839C167.373 106.948 167.549 107.08 167.669 107.235C167.788 107.391 167.848 107.59 167.848 107.835C167.848 108.176 167.724 108.461 167.476 108.691C167.23 108.921 166.921 109.036 166.55 109.036Z" fill="#8C99B2"/>
<path d="M184.152 106.599C184.152 106.328 184.127 106.107 184.077 105.938C184.027 105.766 183.958 105.634 183.871 105.542C183.792 105.456 183.713 105.397 183.632 105.365C183.552 105.333 183.464 105.317 183.368 105.317C183.148 105.317 182.973 105.395 182.843 105.552C182.713 105.709 182.648 105.937 182.648 106.235C182.648 106.402 182.669 106.541 182.712 106.649C182.755 106.758 182.824 106.852 182.921 106.93C182.988 106.986 183.065 107.023 183.151 107.043C183.236 107.061 183.328 107.07 183.426 107.07C183.541 107.07 183.664 107.05 183.796 107.011C183.928 106.97 184.043 106.916 184.141 106.85C184.143 106.823 184.144 106.789 184.146 106.746C184.15 106.701 184.152 106.652 184.152 106.599ZM182.105 106.256C182.105 106.051 182.138 105.864 182.204 105.694C182.271 105.525 182.363 105.378 182.479 105.255C182.59 105.138 182.724 105.046 182.883 104.98C183.044 104.914 183.206 104.881 183.37 104.881C183.554 104.881 183.72 104.912 183.868 104.974C184.018 105.035 184.147 105.123 184.256 105.239C184.393 105.386 184.499 105.577 184.574 105.815C184.651 106.052 184.689 106.352 184.689 106.714C184.689 107.044 184.652 107.357 184.577 107.653C184.504 107.947 184.395 108.192 184.251 108.386C184.097 108.593 183.913 108.751 183.697 108.86C183.483 108.969 183.218 109.023 182.902 109.023C182.831 109.023 182.755 109.018 182.675 109.01C182.594 109.002 182.519 108.988 182.45 108.967V108.456H182.477C182.521 108.481 182.591 108.505 182.685 108.528C182.78 108.551 182.876 108.563 182.974 108.563C183.324 108.563 183.599 108.448 183.798 108.217C183.998 107.987 184.111 107.658 184.138 107.23C183.995 107.326 183.859 107.397 183.729 107.442C183.6 107.486 183.46 107.508 183.309 107.508C183.161 107.508 183.026 107.492 182.905 107.46C182.783 107.428 182.661 107.366 182.538 107.273C182.395 107.164 182.287 107.027 182.214 106.861C182.141 106.693 182.105 106.492 182.105 106.256Z" fill="#8C99B2"/>
<path d="M199.235 108.945H197.292V108.539H198.014V105.868H197.292V105.504C197.565 105.504 197.766 105.466 197.894 105.389C198.024 105.311 198.097 105.164 198.113 104.948H198.528V108.539H199.235V108.945ZM202.448 106.952C202.448 107.667 202.344 108.193 202.135 108.528C201.928 108.861 201.608 109.028 201.175 109.028C200.736 109.028 200.414 108.858 200.209 108.517C200.003 108.176 199.901 107.656 199.901 106.957C199.901 106.238 200.004 105.713 200.211 105.381C200.42 105.048 200.741 104.881 201.175 104.881C201.613 104.881 201.935 105.053 202.14 105.397C202.346 105.742 202.448 106.26 202.448 106.952ZM201.763 108.167C201.815 108.035 201.852 107.868 201.873 107.666C201.894 107.465 201.905 107.227 201.905 106.952C201.905 106.679 201.894 106.442 201.873 106.24C201.852 106.039 201.814 105.871 201.761 105.737C201.707 105.601 201.633 105.499 201.538 105.429C201.446 105.358 201.324 105.322 201.175 105.322C201.026 105.322 200.904 105.358 200.808 105.429C200.713 105.499 200.638 105.603 200.583 105.742C200.53 105.878 200.493 106.049 200.473 106.256C200.454 106.463 200.444 106.697 200.444 106.957C200.444 107.235 200.452 107.468 200.468 107.656C200.486 107.843 200.523 108.011 200.581 108.159C200.632 108.296 200.705 108.402 200.8 108.477C200.896 108.55 201.021 108.587 201.175 108.587C201.323 108.587 201.444 108.552 201.538 108.482C201.635 108.411 201.71 108.306 201.763 108.167Z" fill="#8C99B2"/>
<path d="M218.214 108.945H216.271V108.539H216.994V105.868H216.271V105.504C216.544 105.504 216.745 105.466 216.874 105.389C217.004 105.311 217.077 105.164 217.093 104.948H217.508V108.539H218.214V108.945ZM221.206 108.945H219.263V108.539H219.985V105.868H219.263V105.504C219.536 105.504 219.737 105.466 219.865 105.389C219.995 105.311 220.068 105.164 220.084 104.948H220.499V108.539H221.206V108.945Z" fill="#8C99B2"/>
<path d="M235.085 108.945H233.142V108.539H233.865V105.868H233.142V105.504C233.415 105.504 233.616 105.466 233.744 105.389C233.874 105.311 233.947 105.164 233.964 104.948H234.378V108.539H235.085V108.945ZM238.28 108.945H235.821V108.386C235.997 108.218 236.164 108.058 236.321 107.904C236.478 107.751 236.631 107.591 236.781 107.425C237.084 107.092 237.291 106.825 237.402 106.625C237.513 106.424 237.568 106.216 237.568 106.002C237.568 105.891 237.55 105.794 237.514 105.71C237.48 105.626 237.433 105.557 237.372 105.502C237.31 105.448 237.238 105.408 237.156 105.381C237.074 105.354 236.984 105.341 236.885 105.341C236.791 105.341 236.695 105.354 236.597 105.378C236.5 105.402 236.407 105.431 236.318 105.467C236.243 105.497 236.171 105.534 236.101 105.577C236.032 105.619 235.976 105.656 235.933 105.686H235.903V105.119C236.014 105.064 236.167 105.01 236.364 104.958C236.562 104.905 236.749 104.878 236.926 104.878C237.297 104.878 237.587 104.977 237.798 105.175C238.008 105.371 238.114 105.638 238.114 105.975C238.114 106.13 238.095 106.274 238.057 106.406C238.022 106.538 237.972 106.66 237.908 106.773C237.842 106.889 237.762 107.004 237.67 107.118C237.577 107.232 237.479 107.344 237.375 107.455C237.207 107.637 237.02 107.826 236.813 108.022C236.608 108.218 236.444 108.374 236.321 108.488H238.28V108.945Z" fill="#8C99B2"/>
<path d="M270.935 108.945H268.992V108.539H269.715V105.868H268.992V105.504C269.265 105.504 269.466 105.466 269.594 105.389C269.725 105.311 269.798 105.164 269.814 104.948H270.229V108.539H270.935V108.945ZM274.234 107.575H273.761V108.945H273.247V107.575H271.486V107.013L273.268 104.961H273.761V107.147H274.234V107.575ZM273.247 107.147V105.59L271.904 107.147H273.247Z" fill="#8C99B2"/>
<path d="M289.915 108.945H287.972V108.539H288.695V105.868H287.972V105.504C288.245 105.504 288.446 105.466 288.574 105.389C288.704 105.311 288.778 105.164 288.794 104.948H289.208V108.539H289.915V108.945ZM293.064 107.677C293.064 107.87 293.033 108.048 292.971 108.212C292.91 108.376 292.824 108.518 292.714 108.638C292.601 108.759 292.461 108.854 292.294 108.924C292.128 108.993 291.941 109.028 291.734 109.028C291.543 109.028 291.355 109.007 291.17 108.964C290.986 108.923 290.826 108.869 290.691 108.801V108.236H290.728C290.769 108.267 290.828 108.301 290.905 108.341C290.982 108.378 291.066 108.414 291.159 108.448C291.264 108.485 291.361 108.515 291.448 108.536C291.535 108.556 291.634 108.565 291.742 108.565C291.849 108.565 291.954 108.547 292.055 108.509C292.157 108.47 292.244 108.407 292.318 108.322C292.384 108.243 292.434 108.151 292.467 108.046C292.503 107.941 292.521 107.817 292.521 107.674C292.521 107.533 292.501 107.417 292.462 107.326C292.425 107.235 292.369 107.161 292.296 107.102C292.22 107.034 292.125 106.987 292.013 106.96C291.902 106.931 291.778 106.917 291.641 106.917C291.496 106.917 291.351 106.929 291.205 106.952C291.058 106.973 290.941 106.994 290.854 107.013V104.961H293.04V105.429H291.37V106.489C291.435 106.482 291.498 106.476 291.56 106.473C291.623 106.469 291.68 106.468 291.732 106.468C291.935 106.468 292.107 106.484 292.248 106.518C292.389 106.552 292.525 106.618 292.655 106.716C292.787 106.816 292.888 106.941 292.957 107.091C293.028 107.241 293.064 107.436 293.064 107.677Z" fill="#8C99B2"/>
<path d="M308.894 108.945H306.952V108.539H307.674V105.868H306.952V105.504C307.225 105.504 307.425 105.466 307.554 105.389C307.684 105.311 307.757 105.164 307.773 104.948H308.188V108.539H308.894V108.945ZM312.151 107.653C312.151 107.858 312.117 108.047 312.049 108.22C311.981 108.393 311.89 108.538 311.776 108.654C311.657 108.777 311.523 108.87 311.375 108.935C311.227 108.997 311.063 109.028 310.885 109.028C310.705 109.028 310.541 108.998 310.393 108.937C310.246 108.877 310.117 108.787 310.005 108.667C309.867 108.523 309.759 108.33 309.681 108.089C309.604 107.846 309.566 107.549 309.566 107.195C309.566 106.849 309.602 106.537 309.673 106.259C309.744 105.979 309.854 105.735 310.002 105.528C310.147 105.327 310.333 105.17 310.561 105.057C310.79 104.943 311.054 104.886 311.353 104.886C311.443 104.886 311.525 104.891 311.602 104.9C311.679 104.908 311.747 104.923 311.806 104.942V105.453H311.781C311.733 105.427 311.664 105.403 311.573 105.381C311.482 105.358 311.385 105.346 311.281 105.346C310.949 105.346 310.681 105.459 310.476 105.684C310.272 105.907 310.152 106.238 310.114 106.679C310.241 106.59 310.371 106.521 310.505 106.473C310.639 106.425 310.785 106.401 310.944 106.401C311.099 106.401 311.235 106.417 311.351 106.449C311.468 106.479 311.591 106.542 311.717 106.636C311.863 106.747 311.972 106.887 312.044 107.056C312.115 107.226 312.151 107.425 312.151 107.653ZM311.608 107.674C311.608 107.51 311.586 107.373 311.543 107.262C311.5 107.152 311.431 107.057 311.335 106.979C311.265 106.922 311.186 106.884 311.096 106.866C311.009 106.848 310.919 106.839 310.826 106.839C310.701 106.839 310.58 106.858 310.462 106.896C310.345 106.933 310.229 106.988 310.114 107.059C310.111 107.098 310.108 107.136 310.106 107.174C310.105 107.21 310.104 107.255 310.104 107.31C310.104 107.587 310.13 107.81 310.184 107.979C310.239 108.149 310.307 108.277 310.387 108.365C310.464 108.449 310.543 108.507 310.623 108.541C310.705 108.575 310.793 108.592 310.888 108.592C311.102 108.592 311.275 108.515 311.407 108.362C311.541 108.209 311.608 107.979 311.608 107.674Z" fill="#8C99B2"/>
<path d="M254.064 108.945H252.122V108.539H252.844V105.868H252.122V105.504C252.395 105.504 252.595 105.466 252.724 105.389C252.854 105.311 252.927 105.164 252.943 104.948H253.358V108.539H254.064V108.945ZM255.876 105.341C255.78 105.341 255.683 105.353 255.587 105.376C255.491 105.399 255.396 105.429 255.303 105.467C255.218 105.502 255.143 105.54 255.079 105.579C255.016 105.618 254.96 105.655 254.91 105.689H254.878V105.124C254.994 105.062 255.151 105.006 255.349 104.956C255.549 104.904 255.739 104.878 255.919 104.878C256.099 104.878 256.256 104.897 256.39 104.934C256.525 104.97 256.647 105.026 256.756 105.103C256.874 105.189 256.962 105.292 257.021 105.413C257.082 105.535 257.112 105.676 257.112 105.839C257.112 106.058 257.04 106.251 256.895 106.417C256.751 106.583 256.578 106.688 256.376 106.732V106.77C256.46 106.786 256.549 106.814 256.644 106.853C256.74 106.892 256.829 106.95 256.911 107.027C256.994 107.103 257.06 107.202 257.112 107.324C257.164 107.443 257.19 107.59 257.19 107.763C257.19 107.943 257.159 108.109 257.096 108.26C257.035 108.41 256.949 108.543 256.837 108.659C256.721 108.78 256.581 108.872 256.416 108.935C256.252 108.997 256.066 109.028 255.857 109.028C255.657 109.028 255.459 109.004 255.263 108.956C255.067 108.908 254.902 108.85 254.768 108.782V108.217H254.806C254.918 108.3 255.069 108.378 255.258 108.453C255.447 108.528 255.636 108.565 255.825 108.565C255.934 108.565 256.043 108.548 256.152 108.515C256.262 108.479 256.354 108.422 256.427 108.343C256.499 108.265 256.553 108.178 256.59 108.084C256.628 107.989 256.647 107.87 256.647 107.725C256.647 107.581 256.625 107.462 256.582 107.369C256.541 107.277 256.483 107.203 256.408 107.15C256.333 107.096 256.244 107.06 256.141 107.04C256.039 107.019 255.929 107.008 255.809 107.008H255.582V106.564H255.758C255.999 106.564 256.194 106.507 256.344 106.393C256.496 106.278 256.572 106.113 256.572 105.895C256.572 105.795 256.552 105.709 256.513 105.638C256.474 105.565 256.424 105.507 256.363 105.464C256.295 105.418 256.22 105.386 256.138 105.368C256.056 105.35 255.969 105.341 255.876 105.341Z" fill="#8C99B2"/>
<defs>
<linearGradient id="paint0_linear" x1="-nan" y1="-nan" x2="-nan" y2="-nan" gradientUnits="userSpaceOnUse">
<stop stop-color="white" stop-opacity="0"/>
<stop offset="0.05" stop-color="white" stop-opacity="0.07"/>
<stop offset="0.15" stop-color="white" stop-opacity="0.25"/>
<stop offset="0.3" stop-color="white" stop-opacity="0.53"/>
<stop offset="0.48" stop-color="white" stop-opacity="0.92"/>
<stop offset="0.51" stop-color="white"/>
<stop offset="0.61" stop-color="white" stop-opacity="0.76"/>
<stop offset="0.75" stop-color="white" stop-opacity="0.44"/>
<stop offset="0.87" stop-color="white" stop-opacity="0.2"/>
<stop offset="0.95" stop-color="white" stop-opacity="0.06"/>
<stop offset="1" stop-color="white" stop-opacity="0"/>
</linearGradient>
<linearGradient id="paint1_linear" x1="-nan" y1="-nan" x2="-nan" y2="-nan" gradientUnits="userSpaceOnUse">
<stop stop-color="white" stop-opacity="0"/>
<stop offset="0.05" stop-color="white" stop-opacity="0.07"/>
<stop offset="0.15" stop-color="white" stop-opacity="0.25"/>
<stop offset="0.3" stop-color="white" stop-opacity="0.53"/>
<stop offset="0.48" stop-color="white" stop-opacity="0.92"/>
<stop offset="0.51" stop-color="white"/>
<stop offset="0.61" stop-color="white" stop-opacity="0.76"/>
<stop offset="0.75" stop-color="white" stop-opacity="0.44"/>
<stop offset="0.87" stop-color="white" stop-opacity="0.2"/>
<stop offset="0.95" stop-color="white" stop-opacity="0.06"/>
<stop offset="1" stop-color="white" stop-opacity="0"/>
</linearGradient>
</defs>
</svg>
