<svg width="324" height="118" viewBox="0 0 324 118" fill="none" xmlns="http://www.w3.org/2000/svg">
<g clip-path="url(#clip0)">
<path d="M7.44 91.3398H99.06" stroke="#8C99B2" stroke-width="0.5" stroke-miterlimit="10" stroke-dasharray="2 2"/>
<path d="M7.44 38.6401H99.06" stroke="#8C99B2" stroke-width="0.5" stroke-miterlimit="10" stroke-dasharray="2 2"/>
<path d="M26.0145 98.966C26.0145 99.1441 25.9824 99.313 25.9181 99.4727C25.8557 99.6306 25.7685 99.7656 25.6565 99.8776C25.5151 100.017 25.349 100.123 25.158 100.194C24.9671 100.266 24.7257 100.302 24.4338 100.302H23.9711V101.83H23.4258V97.7295H24.4558C24.6981 97.7295 24.9047 97.7497 25.0754 97.7901C25.2462 97.8305 25.3967 97.8957 25.5271 97.9856C25.6795 98.0903 25.7988 98.2234 25.8851 98.3849C25.9714 98.5447 26.0145 98.7384 26.0145 98.966ZM25.4472 98.9798C25.4472 98.8384 25.4224 98.7154 25.3728 98.6108C25.3251 98.5061 25.2517 98.4207 25.1525 98.3546C25.0662 98.2977 24.9653 98.2573 24.8496 98.2335C24.7358 98.2096 24.5935 98.1977 24.4228 98.1977H23.9711V99.8363H24.3429C24.5632 99.8363 24.7413 99.8188 24.8771 99.7839C25.013 99.7472 25.1259 99.6829 25.2159 99.5912C25.2967 99.5085 25.3554 99.4186 25.3921 99.3213C25.4288 99.224 25.4472 99.1101 25.4472 98.9798ZM27.8321 101.902C27.3419 101.902 26.9609 101.764 26.6892 101.489C26.4193 101.211 26.2844 100.818 26.2844 100.31C26.2844 99.8087 26.4157 99.4103 26.6782 99.1147C26.9407 98.8173 27.2841 98.6686 27.7082 98.6686C27.8991 98.6686 28.068 98.6961 28.2149 98.7512C28.3618 98.8063 28.4903 98.8926 28.6004 99.0101C28.7106 99.1276 28.795 99.2717 28.8538 99.4424C28.9125 99.6113 28.9419 99.8188 28.9419 100.065V100.346H26.8104C26.8104 100.704 26.9003 100.977 27.0803 101.166C27.2602 101.355 27.509 101.45 27.8266 101.45C27.9404 101.45 28.0515 101.437 28.1598 101.411C28.27 101.386 28.3691 101.353 28.4572 101.312C28.5509 101.27 28.6298 101.23 28.6941 101.191C28.7583 101.151 28.8116 101.113 28.8538 101.078H28.8841V101.643C28.8235 101.667 28.7482 101.697 28.6583 101.734C28.5683 101.769 28.4875 101.796 28.4159 101.816C28.3149 101.844 28.2231 101.865 28.1405 101.88C28.0597 101.894 27.9569 101.902 27.8321 101.902ZM28.4379 99.9492C28.4343 99.8096 28.4178 99.6894 28.3884 99.5884C28.359 99.4874 28.3168 99.4021 28.2617 99.3323C28.2011 99.2552 28.1231 99.1964 28.0276 99.156C27.934 99.1156 27.8174 99.0954 27.6779 99.0954C27.5402 99.0954 27.4227 99.1166 27.3254 99.1588C27.2299 99.1992 27.1427 99.2588 27.0637 99.3378C26.9866 99.4186 26.9279 99.5085 26.8875 99.6077C26.8471 99.705 26.8214 99.8188 26.8104 99.9492H28.4379ZM31.4204 99.2084H29.9829V101.83H29.4652V98.754H31.4204V99.2084ZM34.2239 98.754L32.5688 102.965H32.0153L32.5661 101.681L31.448 98.754H32.007L32.847 101.031L33.6841 98.754H34.2239ZM36.9971 101.83H36.4794V99.1891H35.4219C35.4163 99.3415 35.4108 99.4883 35.4053 99.6297C35.3998 99.7692 35.3943 99.8959 35.3888 100.01C35.3778 100.298 35.3585 100.539 35.331 100.734C35.3053 100.929 35.2722 101.085 35.2318 101.202C35.1914 101.323 35.1465 101.418 35.0969 101.486C35.0492 101.554 34.995 101.615 34.9344 101.67C34.872 101.725 34.805 101.767 34.7334 101.794C34.6618 101.822 34.581 101.836 34.491 101.836C34.4617 101.836 34.424 101.835 34.3781 101.833C34.3322 101.831 34.3001 101.83 34.2817 101.83V101.378H34.3093C34.3221 101.378 34.335 101.379 34.3478 101.381C34.3625 101.383 34.379 101.384 34.3974 101.384C34.4415 101.384 34.4846 101.378 34.5268 101.365C34.5691 101.352 34.6067 101.328 34.6397 101.293C34.7315 101.203 34.7986 101.046 34.8408 100.822C34.883 100.596 34.9133 100.281 34.9317 99.8776C34.939 99.727 34.9454 99.5489 34.9509 99.3433C34.9583 99.1377 34.9647 98.9412 34.9702 98.754H36.9971V101.83ZM40.1778 101.83H39.6656V99.5361L38.2171 101.83H37.7489V98.754H38.2611V101.012L39.6932 98.754H40.1778V101.83ZM43.5073 100.211C43.5073 100.723 43.3843 101.132 43.1383 101.436C42.8941 101.739 42.5848 101.891 42.2102 101.891C42.0579 101.891 41.9229 101.873 41.8054 101.838C41.6879 101.803 41.5677 101.749 41.4446 101.676V102.965H40.9269V98.754H41.4446V99.0762C41.5732 98.9605 41.7154 98.8641 41.8715 98.787C42.0294 98.7081 42.2011 98.6686 42.3865 98.6686C42.739 98.6686 43.0135 98.8081 43.2099 99.0872C43.4082 99.3663 43.5073 99.7408 43.5073 100.211ZM42.9731 100.269C42.9731 99.9179 42.9171 99.6462 42.8051 99.4535C42.6931 99.2588 42.5113 99.1615 42.2598 99.1615C42.1129 99.1615 41.9706 99.1946 41.8329 99.2607C41.6971 99.3249 41.5677 99.4085 41.4446 99.5113V101.255C41.5805 101.321 41.6962 101.366 41.7916 101.389C41.8889 101.413 42 101.425 42.1249 101.425C42.3929 101.425 42.6013 101.327 42.75 101.131C42.8987 100.934 42.9731 100.647 42.9731 100.269ZM46.4623 98.754L44.8072 102.965H44.2536L44.8044 101.681L43.6863 98.754H44.2454L45.0853 101.031L45.9225 98.754H46.4623ZM48.189 101.902C47.6988 101.902 47.3178 101.764 47.0461 101.489C46.7762 101.211 46.6413 100.818 46.6413 100.31C46.6413 99.8087 46.7725 99.4103 47.0351 99.1147C47.2976 98.8173 47.6409 98.6686 48.065 98.6686C48.256 98.6686 48.4249 98.6961 48.5718 98.7512C48.7186 98.8063 48.8471 98.8926 48.9573 99.0101C49.0675 99.1276 49.1519 99.2717 49.2107 99.4424C49.2694 99.6113 49.2988 99.8188 49.2988 100.065V100.346H47.1673C47.1673 100.704 47.2572 100.977 47.4371 101.166C47.6171 101.355 47.8658 101.45 48.1835 101.45C48.2973 101.45 48.4084 101.437 48.5167 101.411C48.6268 101.386 48.726 101.353 48.8141 101.312C48.9077 101.27 48.9867 101.23 49.0509 101.191C49.1152 101.151 49.1684 101.113 49.2107 101.078H49.241V101.643C49.1804 101.667 49.1051 101.697 49.0151 101.734C48.9252 101.769 48.8444 101.796 48.7728 101.816C48.6718 101.844 48.58 101.865 48.4974 101.88C48.4166 101.894 48.3138 101.902 48.189 101.902ZM48.7948 99.9492C48.7911 99.8096 48.7746 99.6894 48.7453 99.5884C48.7159 99.4874 48.6736 99.4021 48.6186 99.3323C48.558 99.2552 48.48 99.1964 48.3845 99.156C48.2909 99.1156 48.1743 99.0954 48.0347 99.0954C47.897 99.0954 47.7795 99.1166 47.6822 99.1588C47.5868 99.1992 47.4996 99.2588 47.4206 99.3378C47.3435 99.4186 47.2848 99.5085 47.2444 99.6077C47.204 99.705 47.1783 99.8188 47.1673 99.9492H48.7948ZM52.6751 101.83H52.1628V99.4121L51.4248 100.982H51.0393L50.3067 99.4121V101.83H49.822V98.754H50.4472L51.2568 100.461L52.0389 98.754H52.6751V101.83ZM55.7071 100.877C55.7071 101.026 55.6768 101.161 55.6162 101.282C55.5575 101.403 55.4767 101.501 55.3739 101.577C55.2527 101.669 55.1233 101.734 54.9856 101.772C54.8479 101.811 54.6707 101.83 54.4541 101.83H53.4241V98.754H53.9419V99.9519H54.4679C54.6992 99.9519 54.8782 99.9638 55.0049 99.9877C55.1334 100.012 55.261 100.07 55.3877 100.164C55.4942 100.243 55.574 100.344 55.6273 100.467C55.6805 100.59 55.7071 100.727 55.7071 100.877ZM55.1729 100.885C55.1729 100.792 55.1563 100.71 55.1233 100.64C55.0921 100.569 55.0398 100.511 54.9663 100.467C54.8892 100.421 54.8011 100.393 54.702 100.384C54.6046 100.375 54.4642 100.371 54.2806 100.371H53.9419V101.417H54.2696C54.4532 101.417 54.5955 101.41 54.6964 101.395C54.7974 101.378 54.8846 101.348 54.9581 101.304C55.0333 101.256 55.0875 101.2 55.1205 101.136C55.1554 101.07 55.1729 100.986 55.1729 100.885ZM56.5829 101.83H56.0651V98.754H56.5829V101.83ZM58.6703 101.902C58.1801 101.902 57.7992 101.764 57.5275 101.489C57.2576 101.211 57.1226 100.818 57.1226 100.31C57.1226 99.8087 57.2539 99.4103 57.5164 99.1147C57.779 98.8173 58.1223 98.6686 58.5464 98.6686C58.7373 98.6686 58.9062 98.6961 59.0531 98.7512C59.2 98.8063 59.3285 98.8926 59.4387 99.0101C59.5488 99.1276 59.6333 99.2717 59.692 99.4424C59.7508 99.6113 59.7802 99.8188 59.7802 100.065V100.346H57.6486C57.6486 100.704 57.7386 100.977 57.9185 101.166C58.0984 101.355 58.3472 101.45 58.6648 101.45C58.7787 101.45 58.8897 101.437 58.998 101.411C59.1082 101.386 59.2073 101.353 59.2955 101.312C59.3891 101.27 59.468 101.23 59.5323 101.191C59.5966 101.151 59.6498 101.113 59.692 101.078H59.7223V101.643C59.6617 101.667 59.5865 101.697 59.4965 101.734C59.4065 101.769 59.3258 101.796 59.2542 101.816C59.1532 101.844 59.0614 101.865 58.9788 101.88C58.898 101.894 58.7952 101.902 58.6703 101.902ZM59.2762 99.9492C59.2725 99.8096 59.256 99.6894 59.2266 99.5884C59.1972 99.4874 59.155 99.4021 59.0999 99.3323C59.0394 99.2552 58.9613 99.1964 58.8659 99.156C58.7722 99.1156 58.6556 99.0954 58.5161 99.0954C58.3784 99.0954 58.2609 99.1166 58.1636 99.1588C58.0681 99.1992 57.9809 99.2588 57.902 99.3378C57.8249 99.4186 57.7661 99.5085 57.7257 99.6077C57.6854 99.705 57.6596 99.8188 57.6486 99.9492H59.2762ZM64.5417 101.83H63.8972L62.8425 100.412H62.5836V101.83H62.0659V98.754H62.5836V100.092C62.7177 100.091 62.8315 100.063 62.9251 100.01C63.0206 99.9547 63.1014 99.8491 63.1675 99.693C63.1877 99.6471 63.2097 99.5939 63.2336 99.5333C63.2593 99.4727 63.2795 99.4195 63.2941 99.3736C63.3749 99.1478 63.4869 98.988 63.6301 98.8944C63.7733 98.8008 63.9597 98.754 64.1892 98.754H64.3296V99.2001H64.2112C64.0661 99.2001 63.9569 99.2304 63.8835 99.291C63.8119 99.3497 63.7513 99.458 63.7017 99.6159C63.6503 99.7757 63.5897 99.9005 63.52 99.9905C63.4502 100.079 63.3731 100.147 63.2886 100.194L64.5417 101.83ZM67.257 101.83H66.7393V99.1891H65.6818C65.6763 99.3415 65.6708 99.4883 65.6652 99.6297C65.6597 99.7692 65.6542 99.8959 65.6487 100.01C65.6377 100.298 65.6184 100.539 65.5909 100.734C65.5652 100.929 65.5321 101.085 65.4918 101.202C65.4514 101.323 65.4064 101.418 65.3568 101.486C65.3091 101.554 65.2549 101.615 65.1943 101.67C65.1319 101.725 65.0649 101.767 64.9933 101.794C64.9217 101.822 64.8409 101.836 64.751 101.836C64.7216 101.836 64.6839 101.835 64.638 101.833C64.5921 101.831 64.56 101.83 64.5417 101.83V101.378H64.5692C64.582 101.378 64.5949 101.379 64.6077 101.381C64.6224 101.383 64.639 101.384 64.6573 101.384C64.7014 101.384 64.7445 101.378 64.7868 101.365C64.829 101.352 64.8666 101.328 64.8997 101.293C64.9915 101.203 65.0585 101.046 65.1007 100.822C65.1429 100.596 65.1732 100.281 65.1916 99.8776C65.1989 99.727 65.2053 99.5489 65.2109 99.3433C65.2182 99.1377 65.2246 98.9412 65.2301 98.754H67.257V101.83ZM69.7273 101.073V100.219C69.6043 100.23 69.4482 100.246 69.2591 100.266C69.0718 100.284 68.9204 100.311 68.8047 100.346C68.667 100.388 68.5532 100.453 68.4632 100.541C68.3733 100.628 68.3283 100.749 68.3283 100.905C68.3283 101.081 68.3778 101.214 68.477 101.304C68.5761 101.394 68.7212 101.439 68.9121 101.439C69.0755 101.439 69.2233 101.404 69.3555 101.334C69.4877 101.263 69.6116 101.176 69.7273 101.073ZM69.7273 101.502C69.685 101.534 69.6281 101.578 69.5565 101.635C69.4868 101.69 69.4188 101.734 69.3527 101.767C69.2609 101.814 69.1719 101.851 69.0856 101.877C69.0011 101.903 68.8818 101.915 68.7276 101.915C68.6009 101.915 68.4807 101.892 68.3668 101.844C68.253 101.796 68.1529 101.729 68.0667 101.643C67.984 101.558 67.9179 101.455 67.8684 101.332C67.8188 101.207 67.794 101.076 67.794 100.938C67.794 100.725 67.839 100.544 67.929 100.395C68.0189 100.245 68.1612 100.125 68.3558 100.037C68.5284 99.9583 68.7322 99.9042 68.9672 99.8748C69.2022 99.8436 69.4555 99.8206 69.7273 99.806V99.7068C69.7273 99.5856 69.7089 99.4883 69.6722 99.4149C69.6355 99.3396 69.5841 99.2818 69.518 99.2414C69.4519 99.1992 69.3711 99.1716 69.2756 99.1588C69.1802 99.1441 69.0819 99.1368 68.981 99.1368C68.8616 99.1368 68.7212 99.1551 68.5596 99.1918C68.398 99.2267 68.2365 99.2781 68.0749 99.3461H68.0446V98.8201C68.1401 98.7925 68.2769 98.7622 68.455 98.7292C68.633 98.6961 68.8093 98.6796 68.9837 98.6796C69.1948 98.6796 69.3729 98.6961 69.518 98.7292C69.663 98.7622 69.7934 98.8219 69.909 98.9082C70.021 98.9926 70.1045 99.1019 70.1596 99.2359C70.2147 99.3699 70.2422 99.5333 70.2422 99.7261V101.83H69.7273V101.502ZM73.401 101.83H72.8832V99.2001H71.4898V101.83H70.972V98.754H73.401V101.83ZM75.8685 101.073V100.219C75.7455 100.23 75.5894 100.246 75.4003 100.266C75.213 100.284 75.0616 100.311 74.9459 100.346C74.8082 100.388 74.6944 100.453 74.6044 100.541C74.5145 100.628 74.4695 100.749 74.4695 100.905C74.4695 101.081 74.5191 101.214 74.6182 101.304C74.7173 101.394 74.8624 101.439 75.0533 101.439C75.2167 101.439 75.3645 101.404 75.4967 101.334C75.6289 101.263 75.7528 101.176 75.8685 101.073ZM75.8685 101.502C75.8262 101.534 75.7693 101.578 75.6977 101.635C75.628 101.69 75.56 101.734 75.4939 101.767C75.4021 101.814 75.3131 101.851 75.2268 101.877C75.1424 101.903 75.023 101.915 74.8688 101.915C74.7421 101.915 74.6219 101.892 74.508 101.844C74.3942 101.796 74.2942 101.729 74.2079 101.643C74.1253 101.558 74.0592 101.455 74.0096 101.332C73.96 101.207 73.9352 101.076 73.9352 100.938C73.9352 100.725 73.9802 100.544 74.0702 100.395C74.1601 100.245 74.3024 100.125 74.497 100.037C74.6696 99.9583 74.8734 99.9042 75.1084 99.8748C75.3434 99.8436 75.5968 99.8206 75.8685 99.806V99.7068C75.8685 99.5856 75.8501 99.4883 75.8134 99.4149C75.7767 99.3396 75.7253 99.2818 75.6592 99.2414C75.5931 99.1992 75.5123 99.1716 75.4168 99.1588C75.3214 99.1441 75.2231 99.1368 75.1222 99.1368C75.0028 99.1368 74.8624 99.1551 74.7008 99.1918C74.5393 99.2267 74.3777 99.2781 74.2161 99.3461H74.1858V98.8201C74.2813 98.7925 74.4181 98.7622 74.5962 98.7292C74.7743 98.6961 74.9505 98.6796 75.1249 98.6796C75.3361 98.6796 75.5141 98.6961 75.6592 98.7292C75.8042 98.7622 75.9346 98.8219 76.0502 98.9082C76.1622 98.9926 76.2458 99.1019 76.3008 99.2359C76.3559 99.3699 76.3835 99.5333 76.3835 99.7261V101.83H75.8685V101.502ZM79.5422 101.83H79.0245V100.445H77.631V101.83H77.1132V98.754H77.631V99.9987H79.0245V98.754H79.5422V101.83ZM82.5742 100.877C82.5742 101.026 82.5439 101.161 82.4834 101.282C82.4246 101.403 82.3438 101.501 82.241 101.577C82.1198 101.669 81.9904 101.734 81.8527 101.772C81.715 101.811 81.5379 101.83 81.3212 101.83H80.2912V98.754H80.809V99.9519H81.335C81.5663 99.9519 81.7453 99.9638 81.872 99.9877C82.0005 100.012 82.1281 100.07 82.2548 100.164C82.3613 100.243 82.4411 100.344 82.4944 100.467C82.5476 100.59 82.5742 100.727 82.5742 100.877ZM82.04 100.885C82.04 100.792 82.0235 100.71 81.9904 100.64C81.9592 100.569 81.9069 100.511 81.8334 100.467C81.7563 100.421 81.6682 100.393 81.5691 100.384C81.4718 100.375 81.3313 100.371 81.1477 100.371H80.809V101.417H81.1367C81.3203 101.417 81.4626 101.41 81.5636 101.395C81.6645 101.378 81.7517 101.348 81.8252 101.304C81.9004 101.256 81.9546 101.2 81.9877 101.136C82.0225 101.07 82.04 100.986 82.04 100.885ZM83.45 101.83H82.9322V98.754H83.45V101.83Z" fill="#606580"/>
<path d="M7.71 91.93C8.03585 91.93 8.3 91.6658 8.3 91.34C8.3 91.0141 8.03585 90.75 7.71 90.75C7.38415 90.75 7.12 91.0141 7.12 91.34C7.12 91.6658 7.38415 91.93 7.71 91.93Z" fill="#A2E2FF"/>
<path d="M31.36 91.93C31.6858 91.93 31.95 91.6658 31.95 91.34C31.95 91.0141 31.6858 90.75 31.36 90.75C31.0342 90.75 30.77 91.0141 30.77 91.34C30.77 91.6658 31.0342 91.93 31.36 91.93Z" fill="#A2E2FF"/>
<path d="M41.69 91.93C42.0158 91.93 42.28 91.6658 42.28 91.34C42.28 91.0141 42.0158 90.75 41.69 90.75C41.3642 90.75 41.1 91.0141 41.1 91.34C41.1 91.6658 41.3642 91.93 41.69 91.93Z" fill="#12151E"/>
<path d="M65.34 91.93C65.6658 91.93 65.93 91.6658 65.93 91.34C65.93 91.0141 65.6658 90.75 65.34 90.75C65.0141 90.75 64.75 91.0141 64.75 91.34C64.75 91.6658 65.0141 91.93 65.34 91.93Z" fill="#12151E"/>
<path d="M75.68 91.93C76.0058 91.93 76.27 91.6658 76.27 91.34C76.27 91.0141 76.0058 90.75 75.68 90.75C75.3542 90.75 75.09 91.0141 75.09 91.34C75.09 91.6658 75.3542 91.93 75.68 91.93Z" fill="#F7931E"/>
<path d="M99.05 91.93C99.3759 91.93 99.64 91.6658 99.64 91.34C99.64 91.0141 99.3759 90.75 99.05 90.75C98.7242 90.75 98.46 91.0141 98.46 91.34C98.46 91.6658 98.7242 91.93 99.05 91.93Z" fill="#F7931E"/>
<path d="M116.16 91.3398H207.77" stroke="#8C99B2" stroke-width="0.5" stroke-miterlimit="10" stroke-dasharray="2 2"/>
<path d="M116.16 38.6401H207.77" stroke="#8C99B2" stroke-width="0.5" stroke-miterlimit="10" stroke-dasharray="2 2"/>
<path d="M137.056 98.2004C137.212 98.3804 137.333 98.6034 137.419 98.8696C137.506 99.1358 137.549 99.4397 137.549 99.7812C137.549 100.113 137.506 100.414 137.422 100.682C137.338 100.95 137.215 101.175 137.056 101.356C136.889 101.547 136.693 101.689 136.469 101.781C136.247 101.87 136.002 101.915 135.734 101.915C135.457 101.915 135.207 101.869 134.985 101.775C134.763 101.681 134.572 101.542 134.412 101.356C134.254 101.175 134.133 100.951 134.048 100.684C133.964 100.418 133.922 100.117 133.922 99.7812C133.922 99.436 133.964 99.1331 134.048 98.8724C134.135 98.6117 134.257 98.3877 134.415 98.2004C134.573 98.0187 134.763 97.881 134.985 97.7873C135.209 97.6919 135.458 97.6441 135.734 97.6441C136.013 97.6441 136.264 97.6928 136.488 97.7901C136.712 97.8874 136.901 98.0242 137.056 98.2004ZM136.981 99.7812C136.981 99.5095 136.952 99.2689 136.893 99.0596C136.834 98.8504 136.752 98.6769 136.645 98.5392C136.537 98.3978 136.406 98.2922 136.252 98.2225C136.099 98.1509 135.928 98.1151 135.737 98.1151C135.538 98.1151 135.365 98.1499 135.216 98.2197C135.069 98.2876 134.939 98.3941 134.825 98.5392C134.717 98.6787 134.633 98.854 134.574 99.0652C134.518 99.2763 134.489 99.515 134.489 99.7812C134.489 100.319 134.602 100.731 134.828 101.018C135.054 101.302 135.357 101.445 135.737 101.445C136.117 101.445 136.419 101.302 136.643 101.018C136.868 100.731 136.981 100.319 136.981 99.7812ZM140.355 99.2084H139.308V101.83H138.791V99.2084H137.744V98.754H140.355V99.2084ZM141.963 101.899C141.752 101.899 141.558 101.867 141.382 101.803C141.206 101.736 141.054 101.637 140.928 101.505C140.801 101.373 140.703 101.207 140.633 101.007C140.563 100.805 140.528 100.568 140.528 100.296C140.528 100.026 140.564 99.7931 140.636 99.5967C140.709 99.4002 140.807 99.235 140.928 99.101C141.049 98.9669 141.199 98.8641 141.379 98.7925C141.561 98.7191 141.756 98.6824 141.963 98.6824C142.132 98.6824 142.295 98.7062 142.451 98.754C142.609 98.8017 142.749 98.8568 142.872 98.9192V99.5003H142.842C142.805 99.4691 142.757 99.4333 142.698 99.3929C142.642 99.3525 142.572 99.3112 142.489 99.2689C142.418 99.2322 142.333 99.2001 142.236 99.1726C142.139 99.145 142.045 99.1313 141.955 99.1313C141.687 99.1313 141.471 99.2331 141.308 99.4369C141.146 99.6389 141.065 99.9253 141.065 100.296C141.065 100.66 141.143 100.943 141.299 101.147C141.457 101.349 141.676 101.45 141.955 101.45C142.124 101.45 142.284 101.415 142.437 101.345C142.589 101.276 142.724 101.186 142.842 101.076H142.872V101.657C142.821 101.68 142.756 101.71 142.679 101.745C142.602 101.778 142.532 101.803 142.47 101.819C142.382 101.845 142.303 101.864 142.233 101.877C142.163 101.892 142.073 101.899 141.963 101.899ZM144.681 101.902C144.191 101.902 143.81 101.764 143.538 101.489C143.269 101.211 143.134 100.818 143.134 100.31C143.134 99.8087 143.265 99.4103 143.527 99.1147C143.79 98.8173 144.133 98.6686 144.557 98.6686C144.748 98.6686 144.917 98.6961 145.064 98.7512C145.211 98.8063 145.339 98.8926 145.45 99.0101C145.56 99.1276 145.644 99.2717 145.703 99.4424C145.762 99.6113 145.791 99.8188 145.791 100.065V100.346H143.66C143.66 100.704 143.75 100.977 143.929 101.166C144.109 101.355 144.358 101.45 144.676 101.45C144.79 101.45 144.901 101.437 145.009 101.411C145.119 101.386 145.218 101.353 145.306 101.312C145.4 101.27 145.479 101.23 145.543 101.191C145.608 101.151 145.661 101.113 145.703 101.078H145.733V101.643C145.673 101.667 145.597 101.697 145.507 101.734C145.417 101.769 145.337 101.796 145.265 101.816C145.164 101.844 145.072 101.865 144.99 101.88C144.909 101.894 144.806 101.902 144.681 101.902ZM145.287 99.9492C145.283 99.8096 145.267 99.6894 145.238 99.5884C145.208 99.4874 145.166 99.4021 145.111 99.3323C145.05 99.2552 144.972 99.1964 144.877 99.156C144.783 99.1156 144.667 99.0954 144.527 99.0954C144.389 99.0954 144.272 99.1166 144.175 99.1588C144.079 99.1992 143.992 99.2588 143.913 99.3378C143.836 99.4186 143.777 99.5085 143.737 99.6077C143.696 99.705 143.671 99.8188 143.66 99.9492H145.287ZM148.79 101.83H148.146L147.091 100.412H146.832V101.83H146.314V98.754H146.832V100.092C146.966 100.091 147.08 100.063 147.174 100.01C147.269 99.9547 147.35 99.8491 147.416 99.693C147.436 99.6471 147.458 99.5939 147.482 99.5333C147.508 99.4727 147.528 99.4195 147.543 99.3736C147.623 99.1478 147.735 98.988 147.879 98.8944C148.022 98.8008 148.208 98.754 148.438 98.754H148.578V99.2001H148.46C148.315 99.2001 148.205 99.2304 148.132 99.291C148.06 99.3497 148 99.458 147.95 99.6159C147.899 99.7757 147.838 99.9005 147.768 99.9905C147.699 100.079 147.622 100.147 147.537 100.194L148.79 101.83ZM150.842 101.073V100.219C150.719 100.23 150.563 100.246 150.374 100.266C150.186 100.284 150.035 100.311 149.919 100.346C149.782 100.388 149.668 100.453 149.578 100.541C149.488 100.628 149.443 100.749 149.443 100.905C149.443 101.081 149.492 101.214 149.591 101.304C149.691 101.394 149.836 101.439 150.027 101.439C150.19 101.439 150.338 101.404 150.47 101.334C150.602 101.263 150.726 101.176 150.842 101.073ZM150.842 101.502C150.8 101.534 150.743 101.578 150.671 101.635C150.601 101.69 150.533 101.734 150.467 101.767C150.375 101.814 150.286 101.851 150.2 101.877C150.116 101.903 149.996 101.915 149.842 101.915C149.715 101.915 149.595 101.892 149.481 101.844C149.368 101.796 149.267 101.729 149.181 101.643C149.099 101.558 149.032 101.455 148.983 101.332C148.933 101.207 148.909 101.076 148.909 100.938C148.909 100.725 148.954 100.544 149.043 100.395C149.133 100.245 149.276 100.125 149.47 100.037C149.643 99.9583 149.847 99.9042 150.082 99.8748C150.317 99.8436 150.57 99.8206 150.842 99.806V99.7068C150.842 99.5856 150.823 99.4883 150.787 99.4149C150.75 99.3396 150.699 99.2818 150.632 99.2414C150.566 99.1992 150.486 99.1716 150.39 99.1588C150.295 99.1441 150.196 99.1368 150.095 99.1368C149.976 99.1368 149.836 99.1551 149.674 99.1918C149.513 99.2267 149.351 99.2781 149.189 99.3461H149.159V98.8201C149.255 98.7925 149.391 98.7622 149.569 98.7292C149.748 98.6961 149.924 98.6796 150.098 98.6796C150.309 98.6796 150.487 98.6961 150.632 98.7292C150.778 98.7622 150.908 98.8219 151.024 98.9082C151.136 98.9926 151.219 99.1019 151.274 99.2359C151.329 99.3699 151.357 99.5333 151.357 99.7261V101.83H150.842V101.502ZM155.851 100.293C155.851 100.809 155.726 101.209 155.477 101.491C155.229 101.774 154.9 101.915 154.491 101.915C154.089 101.915 153.769 101.783 153.532 101.519C153.297 101.253 153.169 100.89 153.147 100.431H152.604V101.83H152.087V98.754H152.604V100.007H153.158C153.2 99.5884 153.34 99.2607 153.576 99.0238C153.813 98.787 154.118 98.6686 154.491 98.6686C154.922 98.6686 155.256 98.8155 155.493 99.1092C155.732 99.403 155.851 99.7977 155.851 100.293ZM155.317 100.293C155.317 99.9005 155.244 99.6058 155.099 99.4094C154.956 99.2129 154.753 99.1147 154.491 99.1147C154.224 99.1147 154.019 99.2139 153.874 99.4121C153.731 99.6104 153.659 99.9042 153.659 100.293C153.659 100.679 153.732 100.972 153.877 101.172C154.022 101.37 154.226 101.469 154.491 101.469C154.753 101.469 154.956 101.373 155.099 101.18C155.244 100.986 155.317 100.69 155.317 100.293ZM160.329 102.568H159.847V101.83H156.383V98.754H156.9V101.392H157.944V98.754H158.462V101.392H159.506V98.754H160.023V101.392H160.329V102.568ZM163.267 101.83H162.755V99.5361L161.307 101.83H160.838V98.754H161.351V101.012L162.783 98.754H163.267V101.83ZM165.352 101.902C164.862 101.902 164.481 101.764 164.209 101.489C163.939 101.211 163.804 100.818 163.804 100.31C163.804 99.8087 163.936 99.4103 164.198 99.1147C164.461 98.8173 164.804 98.6686 165.228 98.6686C165.419 98.6686 165.588 98.6961 165.735 98.7512C165.882 98.8063 166.01 98.8926 166.12 99.0101C166.231 99.1276 166.315 99.2717 166.374 99.4424C166.433 99.6113 166.462 99.8188 166.462 100.065V100.346H164.33C164.33 100.704 164.42 100.977 164.6 101.166C164.78 101.355 165.029 101.45 165.347 101.45C165.46 101.45 165.571 101.437 165.68 101.411C165.79 101.386 165.889 101.353 165.977 101.312C166.071 101.27 166.15 101.23 166.214 101.191C166.278 101.151 166.332 101.113 166.374 101.078H166.404V101.643C166.344 101.667 166.268 101.697 166.178 101.734C166.088 101.769 166.008 101.796 165.936 101.816C165.835 101.844 165.743 101.865 165.661 101.88C165.58 101.894 165.477 101.902 165.352 101.902ZM165.958 99.9492C165.954 99.8096 165.938 99.6894 165.908 99.5884C165.879 99.4874 165.837 99.4021 165.782 99.3323C165.721 99.2552 165.643 99.1964 165.548 99.156C165.454 99.1156 165.337 99.0954 165.198 99.0954C165.06 99.0954 164.943 99.1166 164.845 99.1588C164.75 99.1992 164.663 99.2588 164.584 99.3378C164.507 99.4186 164.448 99.5085 164.408 99.6077C164.367 99.705 164.341 99.8188 164.33 99.9492H165.958ZM171.223 101.83H170.579L169.524 100.412H169.265V101.83H168.748V98.754H169.265V100.092C169.399 100.091 169.513 100.063 169.607 100.01C169.702 99.9547 169.783 99.8491 169.849 99.693C169.869 99.6471 169.891 99.5939 169.915 99.5333C169.941 99.4727 169.961 99.4195 169.976 99.3736C170.057 99.1478 170.169 98.988 170.312 98.8944C170.455 98.8008 170.641 98.754 170.871 98.754H171.011V99.2001H170.893C170.748 99.2001 170.639 99.2304 170.565 99.291C170.494 99.3497 170.433 99.458 170.383 99.6159C170.332 99.7757 170.271 99.9005 170.202 99.9905C170.132 100.079 170.055 100.147 169.97 100.194L171.223 101.83ZM173.939 101.83H173.421V99.1891H172.364C172.358 99.3415 172.353 99.4883 172.347 99.6297C172.342 99.7692 172.336 99.8959 172.33 100.01C172.319 100.298 172.3 100.539 172.273 100.734C172.247 100.929 172.214 101.085 172.174 101.202C172.133 101.323 172.088 101.418 172.039 101.486C171.991 101.554 171.937 101.615 171.876 101.67C171.814 101.725 171.747 101.767 171.675 101.794C171.603 101.822 171.523 101.836 171.433 101.836C171.403 101.836 171.366 101.835 171.32 101.833C171.274 101.831 171.242 101.83 171.223 101.83V101.378H171.251C171.264 101.378 171.277 101.379 171.29 101.381C171.304 101.383 171.321 101.384 171.339 101.384C171.383 101.384 171.426 101.378 171.469 101.365C171.511 101.352 171.548 101.328 171.581 101.293C171.673 101.203 171.74 101.046 171.782 100.822C171.825 100.596 171.855 100.281 171.873 99.8776C171.881 99.727 171.887 99.5489 171.893 99.3433C171.9 99.1377 171.906 98.9412 171.912 98.754H173.939V101.83ZM176.409 101.073V100.219C176.286 100.23 176.13 100.246 175.941 100.266C175.754 100.284 175.602 100.311 175.486 100.346C175.349 100.388 175.235 100.453 175.145 100.541C175.055 100.628 175.01 100.749 175.01 100.905C175.01 101.081 175.06 101.214 175.159 101.304C175.258 101.394 175.403 101.439 175.594 101.439C175.757 101.439 175.905 101.404 176.037 101.334C176.169 101.263 176.293 101.176 176.409 101.073ZM176.409 101.502C176.367 101.534 176.31 101.578 176.238 101.635C176.169 101.69 176.101 101.734 176.034 101.767C175.943 101.814 175.854 101.851 175.767 101.877C175.683 101.903 175.564 101.915 175.409 101.915C175.283 101.915 175.162 101.892 175.049 101.844C174.935 101.796 174.835 101.729 174.748 101.643C174.666 101.558 174.6 101.455 174.55 101.332C174.501 101.207 174.476 101.076 174.476 100.938C174.476 100.725 174.521 100.544 174.611 100.395C174.701 100.245 174.843 100.125 175.038 100.037C175.21 99.9583 175.414 99.9042 175.649 99.8748C175.884 99.8436 176.137 99.8206 176.409 99.806V99.7068C176.409 99.5856 176.391 99.4883 176.354 99.4149C176.317 99.3396 176.266 99.2818 176.2 99.2414C176.134 99.1992 176.053 99.1716 175.957 99.1588C175.862 99.1441 175.764 99.1368 175.663 99.1368C175.543 99.1368 175.403 99.1551 175.241 99.1918C175.08 99.2267 174.918 99.2781 174.757 99.3461H174.726V98.8201C174.822 98.7925 174.959 98.7622 175.137 98.7292C175.315 98.6961 175.491 98.6796 175.665 98.6796C175.877 98.6796 176.055 98.6961 176.2 98.7292C176.345 98.7622 176.475 98.8219 176.591 98.9082C176.703 98.9926 176.786 99.1019 176.841 99.2359C176.896 99.3699 176.924 99.5333 176.924 99.7261V101.83H176.409V101.502ZM180.083 101.83H179.565V99.2001H178.172V101.83H177.654V98.754H180.083V101.83ZM182.55 101.073V100.219C182.427 100.23 182.271 100.246 182.082 100.266C181.895 100.284 181.743 100.311 181.628 100.346C181.49 100.388 181.376 100.453 181.286 100.541C181.196 100.628 181.151 100.749 181.151 100.905C181.151 101.081 181.201 101.214 181.3 101.304C181.399 101.394 181.544 101.439 181.735 101.439C181.898 101.439 182.046 101.404 182.178 101.334C182.311 101.263 182.435 101.176 182.55 101.073ZM182.55 101.502C182.508 101.534 182.451 101.578 182.379 101.635C182.31 101.69 182.242 101.734 182.176 101.767C182.084 101.814 181.995 101.851 181.909 101.877C181.824 101.903 181.705 101.915 181.551 101.915C181.424 101.915 181.304 101.892 181.19 101.844C181.076 101.796 180.976 101.729 180.89 101.643C180.807 101.558 180.741 101.455 180.691 101.332C180.642 101.207 180.617 101.076 180.617 100.938C180.617 100.725 180.662 100.544 180.752 100.395C180.842 100.245 180.984 100.125 181.179 100.037C181.351 99.9583 181.555 99.9042 181.79 99.8748C182.025 99.8436 182.279 99.8206 182.55 99.806V99.7068C182.55 99.5856 182.532 99.4883 182.495 99.4149C182.458 99.3396 182.407 99.2818 182.341 99.2414C182.275 99.1992 182.194 99.1716 182.099 99.1588C182.003 99.1441 181.905 99.1368 181.804 99.1368C181.685 99.1368 181.544 99.1551 181.383 99.1918C181.221 99.2267 181.059 99.2781 180.898 99.3461H180.868V98.8201C180.963 98.7925 181.1 98.7622 181.278 98.7292C181.456 98.6961 181.632 98.6796 181.807 98.6796C182.018 98.6796 182.196 98.6961 182.341 98.7292C182.486 98.7622 182.616 98.8219 182.732 98.9082C182.844 98.9926 182.928 99.1019 182.983 99.2359C183.038 99.3699 183.065 99.5333 183.065 99.7261V101.83H182.55V101.502ZM186.224 101.83H185.706V100.445H184.313V101.83H183.795V98.754H184.313V99.9987H185.706V98.754H186.224V101.83ZM189.256 100.877C189.256 101.026 189.226 101.161 189.165 101.282C189.106 101.403 189.026 101.501 188.923 101.577C188.802 101.669 188.672 101.734 188.534 101.772C188.397 101.811 188.22 101.83 188.003 101.83H186.973V98.754H187.491V99.9519H188.017C188.248 99.9519 188.427 99.9638 188.554 99.9877C188.682 100.012 188.81 100.07 188.937 100.164C189.043 100.243 189.123 100.344 189.176 100.467C189.229 100.59 189.256 100.727 189.256 100.877ZM188.722 100.885C188.722 100.792 188.705 100.71 188.672 100.64C188.641 100.569 188.589 100.511 188.515 100.467C188.438 100.421 188.35 100.393 188.251 100.384C188.154 100.375 188.013 100.371 187.829 100.371H187.491V101.417H187.818C188.002 101.417 188.144 101.41 188.245 101.395C188.346 101.378 188.433 101.348 188.507 101.304C188.582 101.256 188.636 101.2 188.669 101.136C188.704 101.07 188.722 100.986 188.722 100.885ZM190.132 101.83H189.614V98.754H190.132V101.83Z" fill="#606580"/>
<path d="M116.42 91.93C116.746 91.93 117.01 91.6658 117.01 91.34C117.01 91.0141 116.746 90.75 116.42 90.75C116.094 90.75 115.83 91.0141 115.83 91.34C115.83 91.6658 116.094 91.93 116.42 91.93Z" fill="#A2E2FF"/>
<path d="M140.07 91.93C140.396 91.93 140.66 91.6658 140.66 91.34C140.66 91.0141 140.396 90.75 140.07 90.75C139.744 90.75 139.48 91.0141 139.48 91.34C139.48 91.6658 139.744 91.93 140.07 91.93Z" fill="#A2E2FF"/>
<path d="M150.41 91.93C150.736 91.93 151 91.6658 151 91.34C151 91.0141 150.736 90.75 150.41 90.75C150.084 90.75 149.82 91.0141 149.82 91.34C149.82 91.6658 150.084 91.93 150.41 91.93Z" fill="#12151E"/>
<path d="M174.06 91.93C174.386 91.93 174.65 91.6658 174.65 91.34C174.65 91.0141 174.386 90.75 174.06 90.75C173.734 90.75 173.47 91.0141 173.47 91.34C173.47 91.6658 173.734 91.93 174.06 91.93Z" fill="#12151E"/>
<path d="M184.4 91.93C184.726 91.93 184.99 91.6658 184.99 91.34C184.99 91.0141 184.726 90.75 184.4 90.75C184.074 90.75 183.81 91.0141 183.81 91.34C183.81 91.6658 184.074 91.93 184.4 91.93Z" fill="#F7931E"/>
<path d="M207.77 91.93C208.096 91.93 208.36 91.6658 208.36 91.34C208.36 91.0141 208.096 90.75 207.77 90.75C207.444 90.75 207.18 91.0141 207.18 91.34C207.18 91.6658 207.444 91.93 207.77 91.93Z" fill="#F7931E"/>
<path d="M224.88 91.3398H316.49" stroke="#8C99B2" stroke-width="0.5" stroke-miterlimit="10" stroke-dasharray="2 2"/>
<path d="M293.11 91.3398H316.49" stroke="#8C99B2" stroke-width="0.5" stroke-miterlimit="10"/>
<path d="M224.88 38.6401H316.49" stroke="#8C99B2" stroke-width="0.5" stroke-miterlimit="10" stroke-dasharray="2 2"/>
<path d="M232.662 101.83L234.045 97.7295H234.717L236.099 101.83H235.524L235.152 100.684H233.585L233.213 101.83H232.662ZM235.001 100.219L234.367 98.2858L233.736 100.219H235.001ZM239.027 100.211C239.027 100.723 238.904 101.132 238.658 101.436C238.414 101.739 238.104 101.891 237.73 101.891C237.577 101.891 237.442 101.873 237.325 101.838C237.207 101.803 237.087 101.749 236.964 101.676V102.965H236.446V98.754H236.964V99.0762C237.093 98.9605 237.235 98.8641 237.391 98.787C237.549 98.7081 237.72 98.6686 237.906 98.6686C238.258 98.6686 238.533 98.8081 238.729 99.0872C238.928 99.3663 239.027 99.7408 239.027 100.211ZM238.492 100.269C238.492 99.9179 238.436 99.6462 238.324 99.4535C238.213 99.2588 238.031 99.1615 237.779 99.1615C237.632 99.1615 237.49 99.1946 237.352 99.2607C237.217 99.3249 237.087 99.4085 236.964 99.5113V101.255C237.1 101.321 237.216 101.366 237.311 101.389C237.408 101.413 237.519 101.425 237.644 101.425C237.912 101.425 238.121 101.327 238.269 101.131C238.418 100.934 238.492 100.647 238.492 100.269ZM242.417 101.83H241.905V99.4121L241.167 100.982H240.781L240.048 99.4121V101.83H239.564V98.754H240.189L240.999 100.461L241.781 98.754H242.417V101.83ZM244.884 101.073V100.219C244.761 100.23 244.605 100.246 244.416 100.266C244.229 100.284 244.077 100.311 243.962 100.346C243.824 100.388 243.71 100.453 243.62 100.541C243.53 100.628 243.485 100.749 243.485 100.905C243.485 101.081 243.535 101.214 243.634 101.304C243.733 101.394 243.878 101.439 244.069 101.439C244.233 101.439 244.38 101.404 244.513 101.334C244.645 101.263 244.769 101.176 244.884 101.073ZM244.884 101.502C244.842 101.534 244.785 101.578 244.714 101.635C244.644 101.69 244.576 101.734 244.51 101.767C244.418 101.814 244.329 101.851 244.243 101.877C244.158 101.903 244.039 101.915 243.885 101.915C243.758 101.915 243.638 101.892 243.524 101.844C243.41 101.796 243.31 101.729 243.224 101.643C243.141 101.558 243.075 101.455 243.025 101.332C242.976 101.207 242.951 101.076 242.951 100.938C242.951 100.725 242.996 100.544 243.086 100.395C243.176 100.245 243.318 100.125 243.513 100.037C243.685 99.9583 243.889 99.9042 244.124 99.8748C244.359 99.8436 244.613 99.8206 244.884 99.806V99.7068C244.884 99.5856 244.866 99.4883 244.829 99.4149C244.793 99.3396 244.741 99.2818 244.675 99.2414C244.609 99.1992 244.528 99.1716 244.433 99.1588C244.337 99.1441 244.239 99.1368 244.138 99.1368C244.019 99.1368 243.878 99.1551 243.717 99.1918C243.555 99.2267 243.394 99.2781 243.232 99.3461H243.202V98.8201C243.297 98.7925 243.434 98.7622 243.612 98.7292C243.79 98.6961 243.966 98.6796 244.141 98.6796C244.352 98.6796 244.53 98.6961 244.675 98.7292C244.82 98.7622 244.95 98.8219 245.066 98.9082C245.178 98.9926 245.262 99.1019 245.317 99.2359C245.372 99.3699 245.399 99.5333 245.399 99.7261V101.83H244.884V101.502ZM248.376 99.2084H247.33V101.83H246.812V99.2084H245.766V98.754H248.376V99.2084ZM251.18 98.754L249.525 102.965H248.971L249.522 101.681L248.404 98.754H248.963L249.803 101.031L250.64 98.754H251.18ZM254.151 100.211C254.151 100.723 254.028 101.132 253.782 101.436C253.538 101.739 253.229 101.891 252.854 101.891C252.702 101.891 252.567 101.873 252.449 101.838C252.332 101.803 252.212 101.749 252.089 101.676V102.965H251.571V98.754H252.089V99.0762C252.217 98.9605 252.359 98.8641 252.515 98.787C252.673 98.7081 252.845 98.6686 253.03 98.6686C253.383 98.6686 253.657 98.8081 253.854 99.0872C254.052 99.3663 254.151 99.7408 254.151 100.211ZM253.617 100.269C253.617 99.9179 253.561 99.6462 253.449 99.4535C253.337 99.2588 253.155 99.1615 252.904 99.1615C252.757 99.1615 252.615 99.1946 252.477 99.2607C252.341 99.3249 252.212 99.4085 252.089 99.5113V101.255C252.224 101.321 252.34 101.366 252.436 101.389C252.533 101.413 252.644 101.425 252.769 101.425C253.037 101.425 253.245 101.327 253.394 101.131C253.543 100.934 253.617 100.647 253.617 100.269ZM256.407 101.073V100.219C256.284 100.23 256.128 100.246 255.938 100.266C255.751 100.284 255.6 100.311 255.484 100.346C255.346 100.388 255.233 100.453 255.143 100.541C255.053 100.628 255.008 100.749 255.008 100.905C255.008 101.081 255.057 101.214 255.156 101.304C255.256 101.394 255.401 101.439 255.591 101.439C255.755 101.439 255.903 101.404 256.035 101.334C256.167 101.263 256.291 101.176 256.407 101.073ZM256.407 101.502C256.364 101.534 256.308 101.578 256.236 101.635C256.166 101.69 256.098 101.734 256.032 101.767C255.94 101.814 255.851 101.851 255.765 101.877C255.681 101.903 255.561 101.915 255.407 101.915C255.28 101.915 255.16 101.892 255.046 101.844C254.932 101.796 254.832 101.729 254.746 101.643C254.663 101.558 254.597 101.455 254.548 101.332C254.498 101.207 254.473 101.076 254.473 100.938C254.473 100.725 254.518 100.544 254.608 100.395C254.698 100.245 254.841 100.125 255.035 100.037C255.208 99.9583 255.412 99.9042 255.647 99.8748C255.882 99.8436 256.135 99.8206 256.407 99.806V99.7068C256.407 99.5856 256.388 99.4883 256.352 99.4149C256.315 99.3396 256.263 99.2818 256.197 99.2414C256.131 99.1992 256.05 99.1716 255.955 99.1588C255.86 99.1441 255.761 99.1368 255.66 99.1368C255.541 99.1368 255.401 99.1551 255.239 99.1918C255.077 99.2267 254.916 99.2781 254.754 99.3461H254.724V98.8201C254.819 98.7925 254.956 98.7622 255.134 98.7292C255.312 98.6961 255.489 98.6796 255.663 98.6796C255.874 98.6796 256.052 98.6961 256.197 98.7292C256.342 98.7622 256.473 98.8219 256.588 98.9082C256.7 98.9926 256.784 99.1019 256.839 99.2359C256.894 99.3699 256.922 99.5333 256.922 99.7261V101.83H256.407V101.502ZM260.637 101.899C260.426 101.899 260.232 101.867 260.056 101.803C259.879 101.736 259.728 101.637 259.601 101.505C259.474 101.373 259.376 101.207 259.307 101.007C259.237 100.805 259.202 100.568 259.202 100.296C259.202 100.026 259.238 99.7931 259.309 99.5967C259.383 99.4002 259.48 99.235 259.601 99.101C259.722 98.9669 259.873 98.8641 260.053 98.7925C260.235 98.7191 260.429 98.6824 260.637 98.6824C260.806 98.6824 260.968 98.7062 261.124 98.754C261.282 98.8017 261.422 98.8568 261.545 98.9192V99.5003H261.515C261.478 99.4691 261.431 99.4333 261.372 99.3929C261.315 99.3525 261.245 99.3112 261.163 99.2689C261.091 99.2322 261.007 99.2001 260.909 99.1726C260.812 99.145 260.718 99.1313 260.628 99.1313C260.36 99.1313 260.145 99.2331 259.981 99.4369C259.82 99.6389 259.739 99.9253 259.739 100.296C259.739 100.66 259.817 100.943 259.973 101.147C260.131 101.349 260.349 101.45 260.628 101.45C260.797 101.45 260.958 101.415 261.11 101.345C261.263 101.276 261.398 101.186 261.515 101.076H261.545V101.657C261.494 101.68 261.43 101.71 261.353 101.745C261.276 101.778 261.206 101.803 261.143 101.819C261.055 101.845 260.976 101.864 260.907 101.877C260.837 101.892 260.747 101.899 260.637 101.899ZM263.523 101.125H263.556C263.596 101.16 263.646 101.197 263.704 101.235C263.765 101.272 263.836 101.307 263.917 101.34C264.005 101.377 264.089 101.405 264.17 101.425C264.251 101.445 264.35 101.456 264.467 101.456C264.732 101.456 264.944 101.367 265.103 101.188C265.263 101.01 265.355 100.752 265.379 100.415H263.98V99.9987H265.376C265.343 99.7068 265.247 99.4883 265.087 99.3433C264.929 99.1983 264.733 99.1257 264.498 99.1257C264.393 99.1257 264.296 99.1377 264.206 99.1615C264.116 99.1836 264.029 99.2139 263.944 99.2524C263.874 99.2855 263.812 99.3213 263.757 99.3598C263.704 99.3984 263.652 99.4379 263.603 99.4782H263.57V98.9109C263.667 98.8687 263.804 98.8201 263.98 98.765C264.158 98.7099 264.327 98.6824 264.487 98.6824C264.694 98.6824 264.884 98.7136 265.057 98.776C265.229 98.8384 265.378 98.9339 265.503 99.0624C265.629 99.1946 265.726 99.3552 265.792 99.5443C265.86 99.7316 265.894 99.9602 265.894 100.23C265.894 100.744 265.762 101.151 265.497 101.45C265.235 101.749 264.879 101.899 264.432 101.899C264.264 101.899 264.101 101.877 263.941 101.833C263.783 101.791 263.644 101.744 263.523 101.692V101.125ZM268.824 101.83H268.306V99.1891H267.249C267.243 99.3415 267.238 99.4883 267.232 99.6297C267.227 99.7692 267.221 99.8959 267.216 100.01C267.205 100.298 267.185 100.539 267.158 100.734C267.132 100.929 267.099 101.085 267.059 101.202C267.018 101.323 266.973 101.418 266.924 101.486C266.876 101.554 266.822 101.615 266.761 101.67C266.699 101.725 266.632 101.767 266.56 101.794C266.489 101.822 266.408 101.836 266.318 101.836C266.289 101.836 266.251 101.835 266.205 101.833C266.159 101.831 266.127 101.83 266.109 101.83V101.378H266.136C266.149 101.378 266.162 101.379 266.175 101.381C266.189 101.383 266.206 101.384 266.224 101.384C266.268 101.384 266.312 101.378 266.354 101.365C266.396 101.352 266.434 101.328 266.467 101.293C266.558 101.203 266.625 101.046 266.668 100.822C266.71 100.596 266.74 100.281 266.759 99.8776C266.766 99.727 266.772 99.5489 266.778 99.3433C266.785 99.1377 266.792 98.9412 266.797 98.754H268.824V101.83ZM270.911 101.902C270.421 101.902 270.04 101.764 269.769 101.489C269.499 101.211 269.364 100.818 269.364 100.31C269.364 99.8087 269.495 99.4103 269.758 99.1147C270.02 98.8173 270.363 98.6686 270.788 98.6686C270.978 98.6686 271.147 98.6961 271.294 98.7512C271.441 98.8063 271.57 98.8926 271.68 99.0101C271.79 99.1276 271.874 99.2717 271.933 99.4424C271.992 99.6113 272.021 99.8188 272.021 100.065V100.346H269.89C269.89 100.704 269.98 100.977 270.16 101.166C270.34 101.355 270.588 101.45 270.906 101.45C271.02 101.45 271.131 101.437 271.239 101.411C271.349 101.386 271.448 101.353 271.537 101.312C271.63 101.27 271.709 101.23 271.773 101.191C271.838 101.151 271.891 101.113 271.933 101.078H271.963V101.643C271.903 101.667 271.828 101.697 271.738 101.734C271.648 101.769 271.567 101.796 271.495 101.816C271.394 101.844 271.303 101.865 271.22 101.88C271.139 101.894 271.036 101.902 270.911 101.902ZM271.517 99.9492C271.514 99.8096 271.497 99.6894 271.468 99.5884C271.438 99.4874 271.396 99.4021 271.341 99.3323C271.28 99.2552 271.202 99.1964 271.107 99.156C271.013 99.1156 270.897 99.0954 270.757 99.0954C270.62 99.0954 270.502 99.1166 270.405 99.1588C270.309 99.1992 270.222 99.2588 270.143 99.3378C270.066 99.4186 270.007 99.5085 269.967 99.6077C269.926 99.705 269.901 99.8188 269.89 99.9492H271.517ZM275.02 101.83H274.376L273.321 100.412H273.062V101.83H272.545V98.754H273.062V100.092C273.196 100.091 273.31 100.063 273.404 100.01C273.499 99.9547 273.58 99.8491 273.646 99.693C273.666 99.6471 273.688 99.5939 273.712 99.5333C273.738 99.4727 273.758 99.4195 273.773 99.3736C273.854 99.1478 273.966 98.988 274.109 98.8944C274.252 98.8008 274.438 98.754 274.668 98.754H274.808V99.2001H274.69C274.545 99.2001 274.436 99.2304 274.362 99.291C274.291 99.3497 274.23 99.458 274.18 99.6159C274.129 99.7757 274.068 99.9005 273.999 99.9905C273.929 100.079 273.852 100.147 273.767 100.194L275.02 101.83ZM277.601 99.2084H276.554V101.83H276.036V99.2084H274.99V98.754H277.601V99.2084ZM280.567 100.211C280.567 100.723 280.444 101.132 280.198 101.436C279.953 101.739 279.644 101.891 279.27 101.891C279.117 101.891 278.982 101.873 278.865 101.838C278.747 101.803 278.627 101.749 278.504 101.676V102.965H277.986V98.754H278.504V99.0762C278.633 98.9605 278.775 98.8641 278.931 98.787C279.089 98.7081 279.26 98.6686 279.446 98.6686C279.798 98.6686 280.073 98.8081 280.269 99.0872C280.468 99.3663 280.567 99.7408 280.567 100.211ZM280.032 100.269C280.032 99.9179 279.976 99.6462 279.864 99.4535C279.752 99.2588 279.571 99.1615 279.319 99.1615C279.172 99.1615 279.03 99.1946 278.892 99.2607C278.756 99.3249 278.627 99.4085 278.504 99.5113V101.255C278.64 101.321 278.756 101.366 278.851 101.389C278.948 101.413 279.059 101.425 279.184 101.425C279.452 101.425 279.661 101.327 279.809 101.131C279.958 100.934 280.032 100.647 280.032 100.269ZM283.635 100.293C283.635 100.811 283.51 101.211 283.26 101.494C283.01 101.775 282.678 101.915 282.263 101.915C281.835 101.915 281.498 101.77 281.252 101.48C281.008 101.188 280.886 100.793 280.886 100.293C280.886 99.7793 281.012 99.38 281.263 99.0954C281.517 98.8109 281.85 98.6686 282.263 98.6686C282.678 98.6686 283.01 98.8109 283.26 99.0954C283.51 99.3782 283.635 99.7775 283.635 100.293ZM283.1 100.293C283.1 99.895 283.028 99.5994 282.883 99.4066C282.738 99.212 282.531 99.1147 282.263 99.1147C281.993 99.1147 281.785 99.212 281.638 99.4066C281.493 99.5994 281.42 99.895 281.42 100.293C281.42 100.679 281.493 100.972 281.638 101.172C281.785 101.37 281.993 101.469 282.263 101.469C282.529 101.469 282.735 101.372 282.88 101.177C283.027 100.981 283.1 100.686 283.1 100.293ZM286.595 101.83H286.077V99.2001H284.684V101.83H284.166V98.754H286.595V101.83ZM289.924 100.211C289.924 100.723 289.801 101.132 289.555 101.436C289.311 101.739 289.002 101.891 288.627 101.891C288.475 101.891 288.34 101.873 288.223 101.838C288.105 101.803 287.985 101.749 287.862 101.676V102.965H287.344V98.754H287.862V99.0762C287.99 98.9605 288.133 98.8641 288.289 98.787C288.447 98.7081 288.618 98.6686 288.804 98.6686C289.156 98.6686 289.431 98.8081 289.627 99.0872C289.825 99.3663 289.924 99.7408 289.924 100.211ZM289.39 100.269C289.39 99.9179 289.334 99.6462 289.222 99.4535C289.11 99.2588 288.928 99.1615 288.677 99.1615C288.53 99.1615 288.388 99.1946 288.25 99.2607C288.114 99.3249 287.985 99.4085 287.862 99.5113V101.255C287.998 101.321 288.113 101.366 288.209 101.389C288.306 101.413 288.417 101.425 288.542 101.425C288.81 101.425 289.018 101.327 289.167 101.131C289.316 100.934 289.39 100.647 289.39 100.269ZM292.89 101.83H292.378V99.5361L290.93 101.83H290.461V98.754H290.974V101.012L292.406 98.754H292.89V101.83ZM296.052 100.899C296.052 101.048 296.023 101.18 295.967 101.296C295.91 101.41 295.832 101.505 295.732 101.582C295.608 101.68 295.476 101.746 295.339 101.781C295.203 101.814 295.039 101.83 294.848 101.83H293.639V98.754H294.769C294.994 98.754 295.16 98.7613 295.264 98.776C295.369 98.7888 295.473 98.8237 295.575 98.8806C295.684 98.9394 295.764 99.0174 295.815 99.1147C295.866 99.212 295.892 99.3277 295.892 99.4617C295.892 99.6086 295.852 99.7408 295.771 99.8583C295.69 99.9739 295.583 100.064 295.449 100.128L295.463 100.147C295.63 100.19 295.769 100.275 295.881 100.404C295.995 100.532 296.052 100.697 296.052 100.899ZM295.361 99.5416C295.361 99.4718 295.349 99.4112 295.325 99.3598C295.303 99.3084 295.263 99.268 295.206 99.2387C295.14 99.2038 295.066 99.1836 294.983 99.1781C294.903 99.1707 294.79 99.1671 294.645 99.1671H294.152V100.01H294.747C294.873 100.01 294.963 100.004 295.016 99.9932C295.07 99.9804 295.128 99.9547 295.193 99.9161C295.253 99.8794 295.296 99.8298 295.322 99.7674C295.348 99.705 295.361 99.6297 295.361 99.5416ZM295.518 100.902C295.518 100.797 295.502 100.714 295.471 100.651C295.441 100.587 295.375 100.53 295.273 100.481C295.208 100.449 295.139 100.43 295.066 100.423C294.993 100.415 294.891 100.412 294.76 100.412H294.152V101.417H294.601C294.786 101.417 294.93 101.41 295.033 101.395C295.136 101.38 295.224 101.351 295.297 101.307C295.374 101.259 295.43 101.204 295.465 101.142C295.5 101.079 295.518 100.999 295.518 100.902ZM299.128 100.293C299.128 100.811 299.003 101.211 298.753 101.494C298.504 101.775 298.171 101.915 297.757 101.915C297.329 101.915 296.992 101.77 296.746 101.48C296.502 101.188 296.38 100.793 296.38 100.293C296.38 99.7793 296.505 99.38 296.757 99.0954C297.01 98.8109 297.343 98.6686 297.757 98.6686C298.171 98.6686 298.504 98.8109 298.753 99.0954C299.003 99.3782 299.128 99.7775 299.128 100.293ZM298.594 100.293C298.594 99.895 298.521 99.5994 298.376 99.4066C298.231 99.212 298.025 99.1147 297.757 99.1147C297.487 99.1147 297.278 99.212 297.131 99.4066C296.986 99.5994 296.914 99.895 296.914 100.293C296.914 100.679 296.986 100.972 297.131 101.172C297.278 101.37 297.487 101.469 297.757 101.469C298.023 101.469 298.228 101.372 298.373 101.177C298.52 100.981 298.594 100.686 298.594 100.293ZM302.298 102.568H301.816V101.822H299.789V102.568H299.307V101.389H299.511C299.685 101.103 299.827 100.729 299.938 100.269C300.05 99.806 300.106 99.3011 300.106 98.754H301.992V101.389H302.298V102.568ZM301.474 101.389V99.1891H300.593C300.569 99.6481 300.506 100.068 300.403 100.448C300.302 100.826 300.174 101.14 300.02 101.389H301.474ZM305.341 100.293C305.341 100.811 305.216 101.211 304.966 101.494C304.717 101.775 304.384 101.915 303.969 101.915C303.542 101.915 303.205 101.77 302.959 101.48C302.714 101.188 302.592 100.793 302.592 100.293C302.592 99.7793 302.718 99.38 302.97 99.0954C303.223 98.8109 303.556 98.6686 303.969 98.6686C304.384 98.6686 304.717 98.8109 304.966 99.0954C305.216 99.3782 305.341 99.7775 305.341 100.293ZM304.807 100.293C304.807 99.895 304.734 99.5994 304.589 99.4066C304.444 99.212 304.237 99.1147 303.969 99.1147C303.699 99.1147 303.491 99.212 303.344 99.4066C303.199 99.5994 303.127 99.895 303.127 100.293C303.127 100.679 303.199 100.972 303.344 101.172C303.491 101.37 303.699 101.469 303.969 101.469C304.236 101.469 304.441 101.372 304.586 101.177C304.733 100.981 304.807 100.686 304.807 100.293ZM308.725 101.83H308.213V99.4121L307.475 100.982H307.09L306.357 99.4121V101.83H305.872V98.754H306.497L307.307 100.461L308.089 98.754H308.725V101.83Z" fill="#606580"/>
<path d="M225.14 91.93C225.466 91.93 225.73 91.6658 225.73 91.34C225.73 91.0141 225.466 90.75 225.14 90.75C224.814 90.75 224.55 91.0141 224.55 91.34C224.55 91.6658 224.814 91.93 225.14 91.93Z" fill="#A2E2FF"/>
<path d="M248.79 91.93C249.116 91.93 249.38 91.6658 249.38 91.34C249.38 91.0141 249.116 90.75 248.79 90.75C248.464 90.75 248.2 91.0141 248.2 91.34C248.2 91.6658 248.464 91.93 248.79 91.93Z" fill="#A2E2FF"/>
<path d="M259.13 91.93C259.456 91.93 259.72 91.6658 259.72 91.34C259.72 91.0141 259.456 90.75 259.13 90.75C258.804 90.75 258.54 91.0141 258.54 91.34C258.54 91.6658 258.804 91.93 259.13 91.93Z" fill="#12151E"/>
<path d="M282.77 91.93C283.096 91.93 283.36 91.6658 283.36 91.34C283.36 91.0141 283.096 90.75 282.77 90.75C282.444 90.75 282.18 91.0141 282.18 91.34C282.18 91.6658 282.444 91.93 282.77 91.93Z" fill="#12151E"/>
<path d="M293.11 91.93C293.436 91.93 293.7 91.6658 293.7 91.34C293.7 91.0141 293.436 90.75 293.11 90.75C292.784 90.75 292.52 91.0141 292.52 91.34C292.52 91.6658 292.784 91.93 293.11 91.93Z" fill="#606580"/>
<path d="M316.48 91.93C316.806 91.93 317.07 91.6658 317.07 91.34C317.07 91.0141 316.806 90.75 316.48 90.75C316.154 90.75 315.89 91.0141 315.89 91.34C315.89 91.6658 316.154 91.93 316.48 91.93Z" fill="#606580"/>
<path d="M97.76 38.61C97.76 38.6708 97.7108 38.72 97.65 38.72C97.5893 38.72 97.54 38.6708 97.54 38.61C97.54 38.5492 97.5893 38.5 97.65 38.5C97.7108 38.5 97.76 38.5492 97.76 38.61Z" fill="white" stroke="white"/>
<path d="M97.65 38.3399C97.7034 38.3399 97.7556 38.3558 97.8 38.3854C97.8444 38.4151 97.879 38.4573 97.8994 38.5066C97.9199 38.5559 97.9252 38.6102 97.9148 38.6626C97.9044 38.715 97.8787 38.7631 97.8409 38.8008C97.8032 38.8386 97.755 38.8643 97.7027 38.8747C97.6503 38.8852 97.596 38.8798 97.5467 38.8594C97.4973 38.8389 97.4552 38.8043 97.4255 38.7599C97.3958 38.7155 97.38 38.6633 97.38 38.6099C97.38 38.5383 97.4084 38.4696 97.4591 38.419C97.5097 38.3684 97.5784 38.3399 97.65 38.3399ZM97.65 37.6699C97.4641 37.6699 97.2823 37.7251 97.1278 37.8283C96.9732 37.9316 96.8527 38.0784 96.7816 38.2502C96.7104 38.422 96.6918 38.611 96.7281 38.7933C96.7643 38.9757 96.8539 39.1431 96.9853 39.2746C97.1168 39.4061 97.2843 39.4956 97.4666 39.5319C97.649 39.5681 97.838 39.5495 98.0097 39.4784C98.1815 39.4072 98.3283 39.2867 98.4316 39.1322C98.5349 38.9776 98.59 38.7958 98.59 38.6099C98.5874 38.3614 98.4875 38.1238 98.3118 37.9481C98.1361 37.7724 97.8985 37.6725 97.65 37.6699Z" fill="#606580"/>
<path d="M116.27 38.61C116.27 38.6708 116.221 38.72 116.16 38.72C116.099 38.72 116.05 38.6708 116.05 38.61C116.05 38.5492 116.099 38.5 116.16 38.5C116.221 38.5 116.27 38.5492 116.27 38.61Z" fill="white" stroke="white"/>
<path d="M116.16 38.3399C116.213 38.3399 116.266 38.3558 116.31 38.3854C116.354 38.4151 116.389 38.4573 116.409 38.5066C116.43 38.5559 116.435 38.6102 116.425 38.6626C116.414 38.715 116.389 38.7631 116.351 38.8008C116.313 38.8386 116.265 38.8643 116.213 38.8747C116.16 38.8852 116.106 38.8798 116.057 38.8594C116.007 38.8389 115.965 38.8043 115.935 38.7599C115.906 38.7155 115.89 38.6633 115.89 38.6099C115.89 38.5383 115.918 38.4696 115.969 38.419C116.02 38.3684 116.088 38.3399 116.16 38.3399ZM116.16 37.6699C115.974 37.6699 115.792 37.7251 115.638 37.8283C115.483 37.9316 115.363 38.0784 115.292 38.2502C115.22 38.422 115.202 38.611 115.238 38.7933C115.274 38.9757 115.364 39.1431 115.495 39.2746C115.627 39.4061 115.794 39.4956 115.977 39.5319C116.159 39.5681 116.348 39.5495 116.52 39.4784C116.691 39.4072 116.838 39.2867 116.942 39.1322C117.045 38.9776 117.1 38.7958 117.1 38.6099C117.1 38.3606 117.001 38.1215 116.825 37.9452C116.648 37.769 116.409 37.6699 116.16 37.6699Z" fill="#606580"/>
<path d="M207.28 38.61C207.28 38.6708 207.231 38.72 207.17 38.72C207.109 38.72 207.06 38.6708 207.06 38.61C207.06 38.5492 207.109 38.5 207.17 38.5C207.231 38.5 207.28 38.5492 207.28 38.61Z" fill="white" stroke="white"/>
<path d="M207.17 38.3399C207.223 38.3399 207.276 38.3558 207.32 38.3854C207.364 38.4151 207.399 38.4573 207.419 38.5066C207.44 38.5559 207.445 38.6102 207.435 38.6626C207.424 38.715 207.399 38.7631 207.361 38.8008C207.323 38.8386 207.275 38.8643 207.223 38.8747C207.17 38.8852 207.116 38.8798 207.067 38.8594C207.017 38.8389 206.975 38.8043 206.945 38.7599C206.916 38.7155 206.9 38.6633 206.9 38.6099C206.9 38.5745 206.907 38.5394 206.921 38.5066C206.934 38.4738 206.954 38.4441 206.979 38.419C207.004 38.3939 207.034 38.374 207.067 38.3605C207.099 38.3469 207.135 38.3399 207.17 38.3399ZM207.17 37.6699C206.984 37.6699 206.802 37.7251 206.648 37.8283C206.493 37.9316 206.373 38.0784 206.302 38.2502C206.23 38.422 206.212 38.611 206.248 38.7933C206.284 38.9757 206.374 39.1431 206.505 39.2746C206.637 39.4061 206.804 39.4956 206.987 39.5319C207.169 39.5681 207.358 39.5495 207.53 39.4784C207.701 39.4072 207.848 39.2867 207.952 39.1322C208.055 38.9776 208.11 38.7958 208.11 38.6099C208.11 38.3606 208.011 38.1215 207.835 37.9452C207.658 37.769 207.419 37.6699 207.17 37.6699Z" fill="#606580"/>
<path d="M224.872 38.72C224.85 38.7203 224.829 38.7142 224.81 38.7023C224.792 38.6905 224.778 38.6734 224.769 38.6533C224.76 38.6333 224.758 38.6111 224.762 38.5896C224.766 38.5682 224.776 38.5484 224.792 38.5329C224.807 38.5173 224.826 38.5066 224.848 38.5023C224.869 38.4979 224.891 38.4999 224.912 38.5082C224.932 38.5165 224.949 38.5306 224.961 38.5487C224.973 38.5668 224.98 38.5881 224.98 38.61C224.98 38.6389 224.969 38.6666 224.948 38.6871C224.928 38.7077 224.901 38.7195 224.872 38.72Z" fill="white" stroke="white"/>
<path d="M224.88 38.34C224.933 38.3419 224.984 38.3594 225.027 38.3903C225.07 38.4211 225.103 38.4639 225.122 38.5134C225.141 38.5629 225.145 38.6168 225.134 38.6685C225.122 38.7202 225.096 38.7674 225.057 38.8041C225.019 38.8409 224.971 38.8657 224.919 38.8753C224.867 38.8849 224.813 38.879 224.764 38.8583C224.716 38.8376 224.674 38.803 224.645 38.7589C224.616 38.7147 224.6 38.6629 224.6 38.61C224.6 38.5737 224.607 38.5377 224.621 38.5043C224.636 38.4709 224.656 38.4406 224.683 38.4154C224.709 38.3902 224.74 38.3706 224.774 38.3576C224.808 38.3446 224.844 38.3386 224.88 38.34ZM224.88 37.67C224.694 37.668 224.511 37.7214 224.355 37.8235C224.199 37.9256 224.077 38.0717 224.004 38.2433C223.932 38.4148 223.912 38.6042 223.947 38.7872C223.982 38.9702 224.071 39.1386 224.202 39.271C224.333 39.4035 224.5 39.494 224.683 39.5311C224.866 39.5682 225.055 39.5502 225.227 39.4793C225.4 39.4085 225.547 39.288 225.651 39.1332C225.755 38.9784 225.81 38.7963 225.81 38.61C225.81 38.3624 225.712 38.1248 225.538 37.9488C225.364 37.7728 225.128 37.6726 224.88 37.67Z" fill="#606580"/>
<path d="M316.16 38.61C316.16 38.6707 316.111 38.72 316.05 38.72C315.989 38.72 315.94 38.6708 315.94 38.61C315.94 38.5492 315.989 38.5 316.05 38.5C316.111 38.5 316.16 38.5493 316.16 38.61Z" fill="white" stroke="white"/>
<path d="M316.05 38.3399C316.122 38.3399 316.19 38.3684 316.241 38.419C316.292 38.4696 316.32 38.5383 316.32 38.6099C316.32 38.6815 316.292 38.7502 316.241 38.8008C316.19 38.8515 316.122 38.8799 316.05 38.8799C315.978 38.8799 315.91 38.8515 315.859 38.8008C315.808 38.7502 315.78 38.6815 315.78 38.6099C315.78 38.5383 315.808 38.4696 315.859 38.419C315.91 38.3684 315.978 38.3399 316.05 38.3399ZM316.05 37.6699C315.864 37.6699 315.682 37.7251 315.528 37.8283C315.373 37.9316 315.253 38.0784 315.182 38.2502C315.11 38.422 315.092 38.611 315.128 38.7933C315.164 38.9757 315.254 39.1431 315.385 39.2746C315.517 39.4061 315.684 39.4956 315.867 39.5319C316.049 39.5681 316.238 39.5495 316.41 39.4784C316.581 39.4072 316.728 39.2867 316.832 39.1322C316.935 38.9776 316.99 38.7958 316.99 38.6099C316.99 38.3606 316.891 38.1215 316.715 37.9452C316.538 37.769 316.299 37.6699 316.05 37.6699Z" fill="#606580"/>
<path d="M75.6 91.2802V85.4502H99.06V91.2802" fill="#F7931E" fill-opacity="0.2"/>
<path d="M75.6 91.2802V85.4502H99.06V91.2802" stroke="#F7931E" stroke-width="0.14" stroke-miterlimit="10"/>
<path d="M41.52 91.0798V44.3398H64.98V91.0798" fill="#8C99B2" fill-opacity="0.2"/>
<path d="M41.52 91.0798V44.3398H64.98V91.0798" stroke="#12151E" stroke-width="0.47" stroke-miterlimit="10"/>
<path d="M7.86 91.0799V38.6099H31.32V91.0799" fill="#A2E2FF" fill-opacity="0.2"/>
<path d="M7.86 91.0799V38.6099H31.32V91.0799" stroke="#A2E2FF" stroke-width="0.5" stroke-miterlimit="10"/>
<path d="M184.37 91.2798V81.3198H207.83V91.2798" fill="#F7931E" fill-opacity="0.2"/>
<path d="M184.37 91.2798V81.3198H207.83V91.2798" stroke="#F7931E" stroke-width="0.19" stroke-miterlimit="10"/>
<path d="M150.29 91.0797V49.9697H173.76V91.0797" fill="#8C99B2" fill-opacity="0.2"/>
<path d="M150.29 91.0797V49.9697H173.76V91.0797" stroke="#12151E" stroke-width="0.44" stroke-miterlimit="10"/>
<path d="M116.64 91.0799V38.6099H140.1V91.0799" fill="#A2E2FF" fill-opacity="0.2"/>
<path d="M116.64 91.0799V38.6099H140.1V91.0799" stroke="#A2E2FF" stroke-width="0.5" stroke-miterlimit="10"/>
<path d="M259.07 91.0801V38.5601H282.53V91.0801" fill="#8C99B2" fill-opacity="0.2"/>
<path d="M259.07 91.0801V38.5601H282.53V91.0801" stroke="#12151E" stroke-width="0.5" stroke-miterlimit="10"/>
<path d="M225.41 91.0799V38.6099H248.87V91.0799" fill="#A2E2FF" fill-opacity="0.2"/>
<path d="M225.41 91.0799V38.6099H248.87V91.0799" stroke="#A2E2FF" stroke-width="0.5" stroke-miterlimit="10"/>
<path d="M7.97 38.61C7.97 38.6708 7.92075 38.72 7.86 38.72C7.79925 38.72 7.75 38.6708 7.75 38.61C7.75 38.5492 7.79925 38.5 7.86 38.5C7.92075 38.5 7.97 38.5492 7.97 38.61Z" fill="white" stroke="white"/>
<path d="M7.86 38.3399C7.93161 38.3399 8.00028 38.3684 8.05092 38.419C8.10155 38.4696 8.13 38.5383 8.13 38.6099C8.13 38.6815 8.10155 38.7502 8.05092 38.8008C8.00028 38.8515 7.93161 38.8799 7.86 38.8799C7.78839 38.8799 7.71971 38.8515 7.66908 38.8008C7.61845 38.7502 7.59 38.6815 7.59 38.6099C7.59 38.5383 7.61845 38.4696 7.66908 38.419C7.71971 38.3684 7.78839 38.3399 7.86 38.3399ZM7.86 37.6699C7.67408 37.6699 7.49234 37.7251 7.33776 37.8283C7.18318 37.9316 7.0627 38.0784 6.99155 38.2502C6.92041 38.422 6.90179 38.611 6.93806 38.7933C6.97433 38.9757 7.06386 39.1431 7.19532 39.2746C7.32678 39.4061 7.49427 39.4956 7.67661 39.5319C7.85896 39.5681 8.04796 39.5495 8.21972 39.4784C8.39148 39.4072 8.53829 39.2867 8.64158 39.1322C8.74487 38.9776 8.8 38.7958 8.8 38.6099C8.8 38.3606 8.70096 38.1215 8.52468 37.9452C8.34839 37.769 8.1093 37.6699 7.86 37.6699Z" fill="#606580"/>
<path d="M102.389 21.8347C102.389 22.0979 102.339 22.3302 102.24 22.5318C102.14 22.7333 102.006 22.8993 101.838 23.0296C101.638 23.1861 101.425 23.2976 101.198 23.3639C100.97 23.428 100.676 23.46 100.316 23.46H98.797V18.1646H100.202C100.579 18.1646 100.861 18.1777 101.048 18.2037C101.238 18.2275 101.419 18.2855 101.592 18.378C101.782 18.48 101.921 18.6139 102.008 18.7799C102.096 18.9435 102.14 19.1367 102.14 19.3595C102.14 19.6085 102.074 19.8313 101.941 20.0281C101.81 20.2249 101.629 20.379 101.397 20.4904V20.5189C101.712 20.6042 101.956 20.7607 102.129 20.9883C102.302 21.2136 102.389 21.4957 102.389 21.8347ZM101.407 19.4591C101.407 19.3311 101.386 19.2208 101.343 19.1284C101.301 19.0335 101.232 18.9589 101.137 18.9043C101.023 18.8403 100.896 18.8012 100.757 18.787C100.617 18.7728 100.423 18.7656 100.177 18.7656H99.5012V20.3162H100.301C100.522 20.3162 100.684 20.3055 100.789 20.2842C100.893 20.2605 101.001 20.2131 101.112 20.1419C101.219 20.0732 101.295 19.9831 101.34 19.8717C101.385 19.7602 101.407 19.6227 101.407 19.4591ZM101.656 21.8632C101.656 21.664 101.628 21.5004 101.571 21.3724C101.514 21.242 101.399 21.1318 101.226 21.0417C101.115 20.9824 100.992 20.9445 100.86 20.9279C100.729 20.9113 100.543 20.903 100.301 20.903H99.5012V22.8589H100.074C100.382 22.8589 100.625 22.8447 100.803 22.8163C100.981 22.7878 101.137 22.7274 101.272 22.6349C101.405 22.5424 101.502 22.4381 101.564 22.3219C101.625 22.2034 101.656 22.0505 101.656 21.8632ZM104.619 23.5489C104.346 23.5489 104.096 23.5074 103.868 23.4244C103.641 23.339 103.445 23.211 103.282 23.0403C103.118 22.8696 102.991 22.6551 102.901 22.3966C102.811 22.1358 102.766 21.83 102.766 21.4791C102.766 21.1306 102.812 20.8295 102.905 20.5758C102.999 20.3221 103.125 20.1087 103.282 19.9357C103.438 19.7626 103.632 19.6298 103.865 19.5374C104.099 19.4425 104.351 19.3951 104.619 19.3951C104.837 19.3951 105.047 19.4259 105.248 19.4876C105.452 19.5492 105.633 19.6203 105.792 19.7009V20.4513H105.753C105.706 20.411 105.644 20.3648 105.568 20.3126C105.495 20.2605 105.405 20.2071 105.298 20.1526C105.205 20.1052 105.096 20.0637 104.971 20.0281C104.845 19.9926 104.724 19.9748 104.608 19.9748C104.262 19.9748 103.983 20.1064 103.772 20.3695C103.564 20.6303 103.459 21.0002 103.459 21.4791C103.459 21.9485 103.56 22.3148 103.762 22.578C103.965 22.8388 104.248 22.9692 104.608 22.9692C104.826 22.9692 105.034 22.9241 105.23 22.8341C105.427 22.744 105.601 22.6278 105.753 22.4855H105.792V23.2359C105.726 23.2667 105.643 23.3047 105.543 23.3497C105.444 23.3924 105.354 23.4244 105.273 23.4457C105.159 23.4789 105.057 23.5038 104.967 23.5204C104.877 23.5394 104.761 23.5489 104.619 23.5489ZM108.129 23.5524C107.496 23.5524 107.004 23.3746 106.653 23.019C106.304 22.661 106.13 22.1536 106.13 21.4969C106.13 20.8496 106.3 20.3352 106.639 19.9534C106.978 19.5694 107.421 19.3773 107.969 19.3773C108.215 19.3773 108.433 19.4129 108.623 19.484C108.813 19.5551 108.979 19.6666 109.121 19.8183C109.263 19.97 109.372 20.1562 109.448 20.3766C109.524 20.5948 109.562 20.8627 109.562 21.1804V21.5431H106.809C106.809 22.0054 106.926 22.3587 107.158 22.6029C107.39 22.8471 107.711 22.9692 108.122 22.9692C108.269 22.9692 108.412 22.9526 108.552 22.9194C108.694 22.8862 108.822 22.8435 108.936 22.7914C109.057 22.7368 109.159 22.6847 109.242 22.6349C109.325 22.5827 109.394 22.5341 109.448 22.4891H109.487V23.2181C109.409 23.249 109.312 23.2881 109.196 23.3355C109.079 23.3805 108.975 23.4161 108.883 23.4422C108.752 23.4777 108.634 23.505 108.527 23.524C108.423 23.5429 108.29 23.5524 108.129 23.5524ZM108.911 21.031C108.906 20.8508 108.885 20.6955 108.847 20.5651C108.809 20.4347 108.755 20.3245 108.684 20.2344C108.605 20.1348 108.505 20.059 108.381 20.0068C108.26 19.9546 108.11 19.9286 107.93 19.9286C107.752 19.9286 107.6 19.9558 107.474 20.0103C107.351 20.0625 107.238 20.1396 107.137 20.2415C107.037 20.3458 106.961 20.462 106.909 20.59C106.857 20.7157 106.824 20.8627 106.809 21.031H108.911ZM112.763 20.0744H110.906V23.46H110.238V19.4876H112.763V20.0744ZM116.529 21.4755C116.529 22.1441 116.368 22.661 116.045 23.0261C115.723 23.3888 115.294 23.5702 114.758 23.5702C114.205 23.5702 113.77 23.3829 113.453 23.0083C113.137 22.6313 112.98 22.1204 112.98 21.4755C112.98 20.8117 113.142 20.296 113.467 19.9286C113.794 19.5611 114.224 19.3773 114.758 19.3773C115.294 19.3773 115.723 19.5611 116.045 19.9286C116.368 20.2937 116.529 20.8093 116.529 21.4755ZM115.839 21.4755C115.839 20.9611 115.745 20.5794 115.558 20.3304C115.371 20.0791 115.104 19.9534 114.758 19.9534C114.409 19.9534 114.14 20.0791 113.95 20.3304C113.763 20.5794 113.669 20.9611 113.669 21.4755C113.669 21.9734 113.763 22.3516 113.95 22.61C114.14 22.8661 114.409 22.9941 114.758 22.9941C115.101 22.9941 115.367 22.8684 115.554 22.6171C115.744 22.3634 115.839 21.9829 115.839 21.4755Z" fill="#A2E2FF"/>
<path opacity="0.9" d="M136.569 21.8347C136.569 22.0979 136.519 22.3302 136.42 22.5318C136.32 22.7333 136.186 22.8993 136.018 23.0296C135.818 23.1861 135.605 23.2976 135.378 23.3639C135.15 23.428 134.856 23.46 134.496 23.46H132.977V18.1646H134.382C134.759 18.1646 135.041 18.1777 135.228 18.2037C135.418 18.2275 135.599 18.2855 135.772 18.378C135.962 18.48 136.101 18.6139 136.188 18.7799C136.276 18.9435 136.32 19.1367 136.32 19.3595C136.32 19.6085 136.254 19.8313 136.121 20.0281C135.99 20.2249 135.809 20.379 135.577 20.4904V20.5189C135.892 20.6042 136.136 20.7607 136.309 20.9883C136.482 21.2136 136.569 21.4957 136.569 21.8347ZM135.587 19.4591C135.587 19.3311 135.566 19.2208 135.523 19.1284C135.481 19.0335 135.412 18.9589 135.317 18.9043C135.203 18.8403 135.076 18.8012 134.937 18.787C134.797 18.7728 134.603 18.7656 134.357 18.7656H133.681V20.3162H134.481C134.702 20.3162 134.864 20.3055 134.969 20.2842C135.073 20.2605 135.181 20.2131 135.292 20.1419C135.399 20.0732 135.475 19.9831 135.52 19.8717C135.565 19.7602 135.587 19.6227 135.587 19.4591ZM135.836 21.8632C135.836 21.664 135.808 21.5004 135.751 21.3724C135.694 21.242 135.579 21.1318 135.406 21.0417C135.295 20.9824 135.172 20.9445 135.04 20.9279C134.909 20.9113 134.723 20.903 134.481 20.903H133.681V22.8589H134.254C134.562 22.8589 134.805 22.8447 134.983 22.8163C135.161 22.7878 135.317 22.7274 135.452 22.6349C135.585 22.5424 135.682 22.4381 135.744 22.3219C135.805 22.2034 135.836 22.0505 135.836 21.8632ZM142.828 21.3689C142.828 22.0303 142.669 22.5578 142.351 22.9514C142.036 23.3426 141.637 23.5382 141.153 23.5382C140.956 23.5382 140.782 23.5157 140.63 23.4706C140.478 23.4256 140.323 23.3556 140.164 23.2608V24.9252H139.496V19.4876H140.164V19.9037C140.33 19.7543 140.514 19.6298 140.716 19.5302C140.919 19.4283 141.141 19.3773 141.381 19.3773C141.836 19.3773 142.19 19.5575 142.444 19.9179C142.7 20.2783 142.828 20.7619 142.828 21.3689ZM142.138 21.4435C142.138 20.9907 142.066 20.6398 141.921 20.3909C141.776 20.1396 141.542 20.0139 141.217 20.0139C141.027 20.0139 140.844 20.0566 140.666 20.1419C140.49 20.2249 140.323 20.3328 140.164 20.4656V22.7167C140.34 22.802 140.489 22.8601 140.612 22.891C140.738 22.9218 140.881 22.9372 141.043 22.9372C141.389 22.9372 141.658 22.8103 141.85 22.5567C142.042 22.303 142.138 21.9319 142.138 21.4435ZM145.741 22.482V21.3795C145.582 21.3937 145.38 21.4139 145.136 21.44C144.894 21.4637 144.699 21.4981 144.549 21.5431C144.371 21.5976 144.224 21.6818 144.108 21.7956C143.992 21.907 143.934 22.0635 143.934 22.265C143.934 22.4926 143.998 22.6645 144.126 22.7807C144.254 22.8969 144.441 22.955 144.688 22.955C144.899 22.955 145.09 22.9099 145.26 22.8198C145.431 22.7274 145.591 22.6147 145.741 22.482ZM145.741 23.0368C145.686 23.0771 145.613 23.134 145.52 23.2075C145.43 23.2786 145.342 23.3355 145.257 23.3782C145.138 23.4398 145.023 23.4872 144.912 23.5204C144.803 23.5536 144.649 23.5702 144.45 23.5702C144.286 23.5702 144.131 23.5394 143.984 23.4777C143.837 23.4161 143.708 23.3296 143.596 23.2181C143.489 23.1091 143.404 22.9751 143.34 22.8163C143.276 22.6551 143.244 22.4855 143.244 22.3077C143.244 22.0327 143.302 21.7992 143.418 21.6071C143.534 21.4127 143.718 21.2586 143.97 21.1448C144.192 21.0429 144.456 20.9729 144.759 20.935C145.063 20.8947 145.39 20.865 145.741 20.8461V20.7181C145.741 20.5616 145.717 20.4359 145.669 20.3411C145.622 20.2439 145.556 20.1692 145.47 20.117C145.385 20.0625 145.281 20.0269 145.157 20.0103C145.034 19.9914 144.907 19.9819 144.777 19.9819C144.623 19.9819 144.441 20.0056 144.233 20.053C144.024 20.0981 143.815 20.1645 143.607 20.2522H143.568V19.5729C143.691 19.5374 143.868 19.4982 144.098 19.4556C144.328 19.4129 144.555 19.3916 144.78 19.3916C145.053 19.3916 145.283 19.4129 145.47 19.4556C145.658 19.4982 145.826 19.5753 145.975 19.6867C146.12 19.7958 146.228 19.9369 146.299 20.1099C146.37 20.283 146.406 20.494 146.406 20.7429V23.46H145.741V23.0368ZM150.165 20.0744C150.319 20.2308 150.438 20.43 150.524 20.6718C150.609 20.9113 150.652 21.1899 150.652 21.5076C150.652 21.8134 150.603 22.0967 150.506 22.3575C150.409 22.6159 150.277 22.8341 150.111 23.0119C149.941 23.1968 149.751 23.3367 149.542 23.4315C149.336 23.524 149.111 23.5702 148.867 23.5702C148.618 23.5702 148.389 23.5275 148.18 23.4422C147.974 23.3545 147.797 23.2205 147.65 23.0403C147.468 22.8151 147.33 22.533 147.238 22.1939C147.148 21.8549 147.103 21.4352 147.103 20.935C147.103 20.7572 147.11 20.577 147.124 20.3944C147.141 20.2095 147.175 19.989 147.227 19.733C147.275 19.5054 147.339 19.2943 147.419 19.0999C147.5 18.9032 147.605 18.7372 147.736 18.6021C147.904 18.4266 148.123 18.2867 148.394 18.1824C148.666 18.0781 149.027 18.0058 149.475 17.9655C149.634 17.9512 149.803 17.9382 149.983 17.9264C150.166 17.9121 150.304 17.9015 150.399 17.8943V18.5096C150.276 18.5167 150.144 18.5262 150.005 18.538C149.865 18.5475 149.705 18.5594 149.524 18.5736C149.285 18.5926 149.035 18.6352 148.774 18.7016C148.513 18.7656 148.317 18.8664 148.184 19.0039C148.084 19.1059 148.005 19.2517 147.945 19.4413C147.886 19.631 147.845 19.842 147.821 20.0744C147.996 19.9487 148.184 19.8432 148.383 19.7578C148.584 19.6701 148.801 19.6263 149.034 19.6263C149.249 19.6263 149.455 19.663 149.649 19.7365C149.843 19.8076 150.015 19.9203 150.165 20.0744ZM149.973 21.5467C149.973 21.1247 149.878 20.801 149.688 20.5758C149.498 20.3506 149.228 20.238 148.877 20.238C148.685 20.238 148.499 20.27 148.319 20.334C148.139 20.398 147.969 20.4833 147.81 20.59C147.806 20.6493 147.801 20.7204 147.796 20.8034C147.791 20.884 147.789 20.9575 147.789 21.0239C147.789 21.4364 147.822 21.7719 147.889 22.0303C147.955 22.2888 148.047 22.4915 148.166 22.6385C148.273 22.7712 148.385 22.8637 148.504 22.9158C148.622 22.9656 148.752 22.9905 148.891 22.9905C149.233 22.9905 149.498 22.8613 149.688 22.6029C149.878 22.3445 149.973 21.9924 149.973 21.5467ZM154.621 21.4755C154.621 22.1441 154.459 22.661 154.137 23.0261C153.815 23.3888 153.385 23.5702 152.85 23.5702C152.297 23.5702 151.862 23.3829 151.544 23.0083C151.229 22.6313 151.071 22.1204 151.071 21.4755C151.071 20.8117 151.234 20.296 151.559 19.9286C151.886 19.5611 152.316 19.3773 152.85 19.3773C153.385 19.3773 153.815 19.5611 154.137 19.9286C154.459 20.2937 154.621 20.8093 154.621 21.4755ZM153.931 21.4755C153.931 20.9611 153.837 20.5794 153.65 20.3304C153.462 20.0791 153.196 19.9534 152.85 19.9534C152.501 19.9534 152.232 20.0791 152.042 20.3304C151.855 20.5794 151.761 20.9611 151.761 21.4755C151.761 21.9734 151.855 22.3516 152.042 22.61C152.232 22.8661 152.501 22.9941 152.85 22.9941C153.193 22.9941 153.459 22.8684 153.646 22.6171C153.836 22.3634 153.931 21.9829 153.931 21.4755ZM158.209 20.0744H156.858V23.46H156.189V20.0744H154.838V19.4876H158.209V20.0744ZM160.432 23.5524C159.799 23.5524 159.307 23.3746 158.956 23.019C158.607 22.661 158.433 22.1536 158.433 21.4969C158.433 20.8496 158.603 20.3352 158.942 19.9534C159.281 19.5694 159.724 19.3773 160.272 19.3773C160.518 19.3773 160.736 19.4129 160.926 19.484C161.116 19.5551 161.282 19.6666 161.424 19.8183C161.566 19.97 161.675 20.1562 161.751 20.3766C161.827 20.5948 161.865 20.8627 161.865 21.1804V21.5431H159.112C159.112 22.0054 159.228 22.3587 159.461 22.6029C159.693 22.8471 160.014 22.9692 160.425 22.9692C160.572 22.9692 160.715 22.9526 160.855 22.9194C160.997 22.8862 161.125 22.8435 161.239 22.7914C161.36 22.7368 161.462 22.6847 161.545 22.6349C161.628 22.5827 161.697 22.5341 161.751 22.4891H161.79V23.2181C161.712 23.249 161.615 23.2881 161.499 23.3355C161.382 23.3805 161.278 23.4161 161.186 23.4422C161.055 23.4777 160.937 23.505 160.83 23.524C160.726 23.5429 160.593 23.5524 160.432 23.5524ZM161.214 21.031C161.209 20.8508 161.188 20.6955 161.15 20.5651C161.112 20.4347 161.058 20.3245 160.986 20.2344C160.908 20.1348 160.807 20.059 160.684 20.0068C160.563 19.9546 160.413 19.9286 160.233 19.9286C160.055 19.9286 159.903 19.9558 159.777 20.0103C159.654 20.0625 159.541 20.1396 159.439 20.2415C159.34 20.3458 159.264 20.462 159.212 20.59C159.16 20.7157 159.126 20.8627 159.112 21.031H161.214Z" fill="#12151E"/>
<path d="M178.337 23.556C177.991 23.556 177.672 23.4979 177.38 23.3817C177.091 23.2655 176.841 23.0925 176.63 22.8625C176.419 22.6325 176.255 22.3457 176.139 22.0019C176.023 21.6581 175.965 21.2634 175.965 20.8176C175.965 20.3743 176.02 19.9878 176.132 19.6583C176.246 19.3287 176.41 19.0418 176.626 18.7976C176.837 18.5606 177.087 18.3804 177.377 18.2571C177.666 18.1314 177.989 18.0686 178.347 18.0686C178.525 18.0686 178.691 18.0816 178.845 18.1077C179.002 18.1338 179.146 18.167 179.279 18.2073C179.393 18.2429 179.509 18.2879 179.628 18.3424C179.749 18.3946 179.867 18.4527 179.983 18.5167V19.3667H179.926C179.865 19.3098 179.785 19.241 179.688 19.1604C179.591 19.0798 179.472 19.0004 179.333 18.9221C179.197 18.8486 179.05 18.7882 178.892 18.7407C178.733 18.6933 178.549 18.6696 178.34 18.6696C178.115 18.6696 177.902 18.7159 177.7 18.8083C177.499 18.9008 177.322 19.0371 177.17 19.2173C177.021 19.3975 176.905 19.6239 176.822 19.8965C176.739 20.1692 176.697 20.4762 176.697 20.8176C176.697 21.1804 176.741 21.4933 176.829 21.7565C176.917 22.0173 177.036 22.2378 177.188 22.418C177.335 22.5934 177.508 22.7262 177.707 22.8163C177.906 22.904 178.117 22.9479 178.34 22.9479C178.544 22.9479 178.733 22.923 178.906 22.8732C179.079 22.8234 179.233 22.7606 179.368 22.6847C179.498 22.6112 179.611 22.5365 179.706 22.4606C179.801 22.3824 179.875 22.316 179.93 22.2615H179.983V23.1008C179.867 23.1553 179.757 23.2075 179.653 23.2573C179.551 23.307 179.426 23.3556 179.279 23.4031C179.125 23.4528 178.982 23.4908 178.849 23.5169C178.718 23.5429 178.548 23.556 178.337 23.556ZM186.132 21.4755C186.132 22.1441 185.971 22.661 185.649 23.0261C185.326 23.3888 184.897 23.5702 184.361 23.5702C183.809 23.5702 183.374 23.3829 183.056 23.0083C182.741 22.6313 182.583 22.1204 182.583 21.4755C182.583 20.8117 182.745 20.296 183.07 19.9286C183.397 19.5611 183.828 19.3773 184.361 19.3773C184.897 19.3773 185.326 19.5611 185.649 19.9286C185.971 20.2937 186.132 20.8093 186.132 21.4755ZM185.442 21.4755C185.442 20.9611 185.349 20.5794 185.161 20.3304C184.974 20.0791 184.707 19.9534 184.361 19.9534C184.013 19.9534 183.744 20.0791 183.554 20.3304C183.367 20.5794 183.273 20.9611 183.273 21.4755C183.273 21.9734 183.367 22.3516 183.554 22.61C183.744 22.8661 184.013 22.9941 184.361 22.9941C184.705 22.9941 184.97 22.8684 185.158 22.6171C185.347 22.3634 185.442 21.9829 185.442 21.4755ZM189.72 20.0744H188.369V23.46H187.701V20.0744H186.349V19.4876H189.72V20.0744ZM193.415 23.46H192.583L191.221 21.6285H190.887V23.46H190.218V19.4876H190.887V21.2159C191.06 21.2136 191.207 21.178 191.328 21.1092C191.451 21.0381 191.556 20.9018 191.641 20.7003C191.667 20.641 191.695 20.5722 191.726 20.494C191.759 20.4158 191.786 20.347 191.804 20.2877C191.909 19.9961 192.053 19.7899 192.238 19.6689C192.423 19.548 192.664 19.4876 192.96 19.4876H193.142V20.0637H192.989C192.801 20.0637 192.66 20.1028 192.566 20.181C192.473 20.2569 192.395 20.3968 192.331 20.6007C192.264 20.807 192.186 20.9682 192.096 21.0844C192.006 21.1982 191.906 21.2859 191.797 21.3475L193.415 23.46ZM196.922 23.46H196.253V20.0495H194.888C194.881 20.2462 194.874 20.4359 194.866 20.6185C194.859 20.7987 194.852 20.9623 194.845 21.1092C194.831 21.4815 194.806 21.7932 194.77 22.0446C194.737 22.2959 194.695 22.4974 194.642 22.6491C194.59 22.8056 194.532 22.9277 194.468 23.0154C194.407 23.1031 194.337 23.1826 194.258 23.2537C194.178 23.3248 194.091 23.3782 193.999 23.4137C193.906 23.4493 193.802 23.4671 193.686 23.4671C193.648 23.4671 193.599 23.4659 193.54 23.4635C193.481 23.4611 193.439 23.46 193.415 23.46V22.8767H193.451C193.468 22.8767 193.484 22.8779 193.501 22.8803C193.52 22.8827 193.541 22.8838 193.565 22.8838C193.622 22.8838 193.677 22.8755 193.732 22.8589C193.787 22.8423 193.835 22.8115 193.878 22.7665C193.996 22.6503 194.083 22.4476 194.137 22.1584C194.192 21.8667 194.231 21.4601 194.255 20.9385C194.264 20.7441 194.273 20.5142 194.28 20.2486C194.289 19.9831 194.297 19.7294 194.305 19.4876H196.922V23.46ZM201.161 21.4755C201.161 22.1441 201 22.661 200.677 23.0261C200.355 23.3888 199.926 23.5702 199.39 23.5702C198.838 23.5702 198.403 23.3829 198.085 23.0083C197.77 22.6313 197.612 22.1204 197.612 21.4755C197.612 20.8117 197.774 20.296 198.099 19.9286C198.426 19.5611 198.857 19.3773 199.39 19.3773C199.926 19.3773 200.355 19.5611 200.677 19.9286C201 20.2937 201.161 20.8093 201.161 21.4755ZM200.471 21.4755C200.471 20.9611 200.378 20.5794 200.19 20.3304C200.003 20.0791 199.736 19.9534 199.39 19.9534C199.042 19.9534 198.772 20.0791 198.583 20.3304C198.395 20.5794 198.302 20.9611 198.302 21.4755C198.302 21.9734 198.395 22.3516 198.583 22.61C198.772 22.8661 199.042 22.9941 199.39 22.9941C199.734 22.9941 199.999 22.8684 200.187 22.6171C200.376 22.3634 200.471 21.9829 200.471 21.4755ZM204.984 23.46H204.316V21.6711H202.516V23.46H201.847V19.4876H202.516V21.095H204.316V19.4876H204.984V23.46ZM207.676 23.5524C207.043 23.5524 206.551 23.3746 206.2 23.019C205.852 22.661 205.678 22.1536 205.678 21.4969C205.678 20.8496 205.847 20.3352 206.186 19.9534C206.525 19.5694 206.969 19.3773 207.516 19.3773C207.763 19.3773 207.981 19.4129 208.171 19.484C208.36 19.5551 208.526 19.6666 208.668 19.8183C208.811 19.97 208.92 20.1562 208.996 20.3766C209.072 20.5948 209.109 20.8627 209.109 21.1804V21.5431H206.357C206.357 22.0054 206.473 22.3587 206.705 22.6029C206.938 22.8471 207.259 22.9692 207.669 22.9692C207.816 22.9692 207.96 22.9526 208.099 22.9194C208.242 22.8862 208.37 22.8435 208.484 22.7914C208.604 22.7368 208.706 22.6847 208.789 22.6349C208.872 22.5827 208.941 22.5341 208.996 22.4891H209.035V23.2181C208.957 23.249 208.859 23.2881 208.743 23.3355C208.627 23.3805 208.523 23.4161 208.43 23.4422C208.3 23.4777 208.181 23.505 208.075 23.524C207.97 23.5429 207.837 23.5524 207.676 23.5524ZM208.459 21.031C208.454 20.8508 208.433 20.6955 208.395 20.5651C208.357 20.4347 208.302 20.3245 208.231 20.2344C208.153 20.1348 208.052 20.059 207.929 20.0068C207.808 19.9546 207.657 19.9286 207.477 19.9286C207.299 19.9286 207.148 19.9558 207.022 20.0103C206.899 20.0625 206.786 20.1396 206.684 20.2415C206.584 20.3458 206.509 20.462 206.456 20.59C206.404 20.7157 206.371 20.8627 206.357 21.031H208.459ZM212.922 23.46H212.253V21.6711H210.454V23.46H209.785V19.4876H210.454V21.095H212.253V19.4876H212.922V23.46ZM217.026 23.46H216.364V20.4976L214.494 23.46H213.889V19.4876H214.551V22.4037L216.4 19.4876H217.026V23.46ZM219.718 23.5524C219.085 23.5524 218.593 23.3746 218.242 23.019C217.894 22.661 217.719 22.1536 217.719 21.4969C217.719 20.8496 217.889 20.3352 218.228 19.9534C218.567 19.5694 219.01 19.3773 219.558 19.3773C219.804 19.3773 220.023 19.4129 220.212 19.484C220.402 19.5551 220.568 19.6666 220.71 19.8183C220.852 19.97 220.961 20.1562 221.037 20.3766C221.113 20.5948 221.151 20.8627 221.151 21.1804V21.5431H218.399C218.399 22.0054 218.515 22.3587 218.747 22.6029C218.979 22.8471 219.301 22.9692 219.711 22.9692C219.858 22.9692 220.001 22.9526 220.141 22.9194C220.283 22.8862 220.411 22.8435 220.525 22.7914C220.646 22.7368 220.748 22.6847 220.831 22.6349C220.914 22.5827 220.983 22.5341 221.037 22.4891H221.076V23.2181C220.998 23.249 220.901 23.2881 220.785 23.3355C220.669 23.3805 220.564 23.4161 220.472 23.4422C220.341 23.4777 220.223 23.505 220.116 23.524C220.012 23.5429 219.879 23.5524 219.718 23.5524ZM220.5 21.031C220.496 20.8508 220.474 20.6955 220.436 20.5651C220.398 20.4347 220.344 20.3245 220.273 20.2344C220.194 20.1348 220.094 20.059 219.97 20.0068C219.849 19.9546 219.699 19.9286 219.519 19.9286C219.341 19.9286 219.189 19.9558 219.064 20.0103C218.94 20.0625 218.828 20.1396 218.726 20.2415C218.626 20.3458 218.55 20.462 218.498 20.59C218.446 20.7157 218.413 20.8627 218.399 21.031H220.5ZM225.511 23.46H224.85V20.3375L223.897 22.3646H223.399L222.453 20.3375V23.46H221.827V19.4876H222.634L223.68 21.6925L224.69 19.4876H225.511V23.46Z" fill="#F7931E"/>
<g opacity="0.18">
<g opacity="0.18">
<g opacity="0.18">
<g opacity="0.18">
<path opacity="0.05" d="M199.73 118.02L199.17 117.69L159.1 123.39L174.83 132.46L199.73 118.02Z" fill="#A2E2FF"/>
<path opacity="0.5" d="M199.91 118L174.83 132.54L158.83 123.33L199.2 117.6L199.89 118H199.91ZM200.06 118L199.23 117.52L158.8 123.27H158.59L174.72 132.57H174.81L200 118.07H200.08" fill="#12151E"/>
</g>
</g>
</g>
</g>
</g>
<defs>
<clipPath id="clip0">
<rect width="324" height="118" fill="white"/>
</clipPath>
</defs>
</svg>
