<svg width="324" height="117" viewBox="0 0 324 117" fill="none" xmlns="http://www.w3.org/2000/svg">
<path d="M156.647 12.0667C156.647 12.5662 156.546 12.937 156.344 13.179C156.145 13.4187 155.855 13.5386 155.475 13.5386C155.089 13.5386 154.796 13.4165 154.596 13.1723C154.398 12.9281 154.3 12.5607 154.3 12.0701C154.3 11.5728 154.401 11.2031 154.603 10.9612C154.805 10.7192 155.096 10.5982 155.475 10.5982C155.861 10.5982 156.153 10.7203 156.351 10.9645C156.549 11.2087 156.647 11.5761 156.647 12.0667ZM158.865 10.6914L156.268 15.6499H155.718L158.316 10.6914H158.865ZM160.277 14.2746C160.277 14.7741 160.176 15.1448 159.974 15.3868C159.774 15.6266 159.485 15.7465 159.105 15.7465C158.719 15.7465 158.426 15.6244 158.226 15.3802C158.028 15.136 157.929 14.7685 157.929 14.2779C157.929 13.7806 158.03 13.411 158.232 13.169C158.435 12.927 158.725 12.806 159.105 12.806C159.491 12.806 159.783 12.9281 159.981 13.1723C160.178 13.4165 160.277 13.7839 160.277 14.2746ZM156.055 12.0667C156.055 11.7293 156.015 11.474 155.935 11.3008C155.857 11.1277 155.704 11.0411 155.475 11.0411C155.247 11.0411 155.092 11.1288 155.012 11.3042C154.932 11.4795 154.892 11.7348 154.892 12.0701C154.892 12.4031 154.93 12.6573 155.006 12.8327C155.081 13.008 155.238 13.0957 155.475 13.0957C155.704 13.0957 155.857 13.008 155.935 12.8327C156.015 12.6573 156.055 12.402 156.055 12.0667ZM159.684 14.2746C159.684 13.9371 159.644 13.6818 159.565 13.5087C159.487 13.3355 159.334 13.2489 159.105 13.2489C158.876 13.2489 158.722 13.3366 158.642 13.512C158.562 13.6874 158.522 13.9427 158.522 14.2779C158.522 14.6109 158.56 14.8651 158.635 15.0405C158.711 15.2159 158.867 15.3036 159.105 15.3036C159.334 15.3036 159.487 15.2159 159.565 15.0405C159.644 14.8651 159.684 14.6098 159.684 14.2746Z" fill="#A2E2FF"/>
<path d="M171.27 28.3098H23.65L20.78 25.4398V24.4398L23.65 21.5698H171.27L174.14 24.4398V25.4398L171.27 28.3098Z" fill="white" fill-opacity="0.5"/>
<path d="M22.4 28.3101H21.98V30.8701H22.4V28.3101Z" fill="#8C99B2"/>
<path d="M77.56 28.3101H77.14V30.8701H77.56V28.3101Z" fill="#8C99B2"/>
<path opacity="0.8" d="M147.88 26.7302H120.49L120.56 23.1602H147.88L149.57 24.6502V25.2402L147.88 26.7302Z" fill="#F7931E"/>
<path d="M120.47 26.7302H22.52L21 25.1702V24.7202L22.57 23.1602H120.57L122 24.7202V25.1702L120.47 26.7302Z" fill="#8C99B2"/>
<path d="M126.76 25.8398H121.59V24.0498H126.75L126.93 24.7998V25.0898L126.76 25.8398Z" fill="#8C99B2"/>
<path d="M149.93 21.3701H149.36V30.8101H149.93V21.3701Z" fill="#A2E2FF"/>
<path d="M149.646 30.9398C149.587 30.9391 149.529 30.9209 149.481 30.8874C149.432 30.854 149.394 30.8069 149.372 30.7521C149.35 30.6972 149.344 30.637 149.356 30.579C149.368 30.5211 149.397 30.468 149.439 30.4264C149.481 30.3848 149.535 30.3566 149.593 30.3453C149.651 30.3341 149.711 30.3402 149.766 30.363C149.82 30.3859 149.867 30.4243 149.9 30.4735C149.932 30.5228 149.95 30.5806 149.95 30.6398C149.95 30.6796 149.942 30.7189 149.927 30.7555C149.912 30.7921 149.889 30.8254 149.861 30.8533C149.833 30.8812 149.799 30.9032 149.762 30.9181C149.725 30.9329 149.686 30.9403 149.646 30.9398Z" fill="white" stroke="white"/>
<path d="M149.64 30.17C149.733 30.17 149.824 30.1976 149.901 30.2492C149.978 30.3009 150.039 30.3743 150.074 30.4601C150.11 30.546 150.119 30.6405 150.101 30.7317C150.083 30.8229 150.038 30.9066 149.972 30.9723C149.907 31.0381 149.823 31.0828 149.732 31.101C149.641 31.1191 149.546 31.1098 149.46 31.0742C149.374 31.0386 149.301 30.9784 149.249 30.9011C149.198 30.8238 149.17 30.733 149.17 30.64C149.17 30.5153 149.22 30.3958 149.308 30.3077C149.396 30.2195 149.515 30.17 149.64 30.17ZM149.64 29.5C149.415 29.5 149.194 29.5669 149.007 29.6921C148.819 29.8174 148.673 29.9954 148.587 30.2037C148.5 30.412 148.478 30.6413 148.522 30.8624C148.566 31.0835 148.674 31.2867 148.834 31.4461C148.993 31.6055 149.196 31.7141 149.418 31.7581C149.639 31.8021 149.868 31.7795 150.076 31.6932C150.285 31.6069 150.463 31.4608 150.588 31.2733C150.713 31.0859 150.78 30.8655 150.78 30.64C150.78 30.3377 150.66 30.0477 150.446 29.8339C150.232 29.6201 149.942 29.5 149.64 29.5Z" fill="#A2E2FF"/>
<path d="M131.747 12.0667C131.747 12.5662 131.646 12.937 131.444 13.179C131.245 13.4187 130.955 13.5386 130.575 13.5386C130.189 13.5386 129.896 13.4165 129.696 13.1723C129.498 12.9281 129.4 12.5607 129.4 12.0701C129.4 11.5728 129.501 11.2031 129.703 10.9612C129.905 10.7192 130.196 10.5982 130.575 10.5982C130.961 10.5982 131.253 10.7203 131.451 10.9645C131.649 11.2087 131.747 11.5761 131.747 12.0667ZM133.965 10.6914L131.368 15.6499H130.818L133.416 10.6914H133.965ZM135.377 14.2746C135.377 14.7741 135.276 15.1448 135.074 15.3868C134.874 15.6266 134.585 15.7465 134.205 15.7465C133.819 15.7465 133.526 15.6244 133.326 15.3802C133.128 15.136 133.029 14.7685 133.029 14.2779C133.029 13.7806 133.13 13.411 133.332 13.169C133.535 12.927 133.825 12.806 134.205 12.806C134.591 12.806 134.883 12.9281 135.081 13.1723C135.278 13.4165 135.377 13.7839 135.377 14.2746ZM131.155 12.0667C131.155 11.7293 131.115 11.474 131.035 11.3008C130.957 11.1277 130.804 11.0411 130.575 11.0411C130.347 11.0411 130.192 11.1288 130.112 11.3042C130.032 11.4795 129.992 11.7348 129.992 12.0701C129.992 12.4031 130.03 12.6573 130.106 12.8327C130.181 13.008 130.338 13.0957 130.575 13.0957C130.804 13.0957 130.957 13.008 131.035 12.8327C131.115 12.6573 131.155 12.402 131.155 12.0667ZM134.784 14.2746C134.784 13.9371 134.744 13.6818 134.665 13.5087C134.587 13.3355 134.434 13.2489 134.205 13.2489C133.976 13.2489 133.822 13.3366 133.742 13.512C133.662 13.6874 133.622 13.9427 133.622 14.2779C133.622 14.6109 133.66 14.8651 133.735 15.0405C133.811 15.2159 133.967 15.3036 134.205 15.3036C134.434 15.3036 134.587 15.2159 134.665 15.0405C134.744 14.8651 134.784 14.6098 134.784 14.2746Z" fill="#A2E2FF"/>
<path d="M128.75 21.3701H128.18V30.8101H128.75V21.3701Z" fill="#A2E2FF"/>
<path d="M128.47 30.9398C128.411 30.9398 128.353 30.9222 128.303 30.8893C128.254 30.8563 128.216 30.8095 128.193 30.7546C128.17 30.6998 128.164 30.6395 128.176 30.5813C128.187 30.5231 128.216 30.4697 128.258 30.4277C128.3 30.3858 128.353 30.3572 128.411 30.3456C128.47 30.334 128.53 30.34 128.585 30.3627C128.64 30.3854 128.686 30.4238 128.719 30.4732C128.752 30.5225 128.77 30.5805 128.77 30.6398C128.77 30.7194 128.738 30.7957 128.682 30.852C128.626 30.9082 128.55 30.9398 128.47 30.9398Z" fill="white" stroke="white"/>
<path d="M128.47 30.17C128.563 30.17 128.654 30.1976 128.731 30.2493C128.808 30.3009 128.869 30.3743 128.904 30.4602C128.94 30.5461 128.949 30.6406 128.931 30.7317C128.913 30.8229 128.868 30.9067 128.802 30.9724C128.737 31.0381 128.653 31.0829 128.562 31.101C128.471 31.1191 128.376 31.1098 128.29 31.0743C128.204 31.0387 128.131 30.9785 128.079 30.9012C128.028 30.8239 128 30.733 128 30.64C128 30.5154 128.05 30.3958 128.138 30.3077C128.226 30.2196 128.345 30.17 128.47 30.17ZM128.47 29.5C128.244 29.4981 128.023 29.5632 127.834 29.6873C127.645 29.8113 127.497 29.9887 127.41 30.1968C127.322 30.4049 127.298 30.6345 127.341 30.8563C127.384 31.078 127.491 31.2821 127.65 31.4425C127.809 31.603 128.012 31.7125 128.234 31.7574C128.455 31.8022 128.685 31.7802 128.894 31.6942C129.103 31.6082 129.281 31.4621 129.407 31.2744C129.533 31.0867 129.6 30.8659 129.6 30.64C129.6 30.3394 129.481 30.051 129.27 29.8375C129.058 29.624 128.771 29.5027 128.47 29.5Z" fill="#A2E2FF"/>
<path d="M149.646 19.3901L149.646 19.39L149.64 19.39C149.579 19.39 149.518 19.3717 149.467 19.3375C149.416 19.3033 149.377 19.2546 149.353 19.1977C149.33 19.1409 149.324 19.0784 149.336 19.0181C149.349 18.9579 149.378 18.9027 149.422 18.8595C149.466 18.8163 149.522 18.787 149.582 18.7755C149.642 18.764 149.705 18.7707 149.761 18.7947C149.818 18.8188 149.866 18.8591 149.9 18.9106C149.933 18.9621 149.951 19.0224 149.95 19.0838L149.95 19.0838L149.95 19.0901C149.95 19.1298 149.942 19.1691 149.927 19.2057C149.912 19.2424 149.889 19.2756 149.861 19.3035C149.833 19.3314 149.799 19.3535 149.762 19.3683C149.725 19.3832 149.686 19.3906 149.646 19.3901Z" fill="white" stroke="white"/>
<path d="M149.64 18.6202C149.733 18.6202 149.824 18.6478 149.901 18.6994C149.978 18.751 150.039 18.8245 150.074 18.9103C150.11 18.9962 150.119 19.0907 150.101 19.1819C150.083 19.2731 150.038 19.3568 149.972 19.4225C149.907 19.4883 149.823 19.533 149.732 19.5512C149.641 19.5693 149.546 19.56 149.46 19.5244C149.374 19.4888 149.301 19.4286 149.249 19.3513C149.198 19.274 149.17 19.1832 149.17 19.0902C149.17 18.9655 149.22 18.846 149.308 18.7579C149.396 18.6697 149.515 18.6202 149.64 18.6202ZM149.64 17.9502C149.415 17.9502 149.194 18.0171 149.007 18.1423C148.819 18.2676 148.673 18.4456 148.587 18.6539C148.5 18.8622 148.478 19.0915 148.522 19.3126C148.566 19.5337 148.674 19.7369 148.834 19.8963C148.993 20.0557 149.196 20.1643 149.418 20.2083C149.639 20.2523 149.868 20.2297 150.076 20.1434C150.285 20.0571 150.463 19.911 150.588 19.7235C150.713 19.5361 150.78 19.3157 150.78 19.0902C150.767 18.7966 150.641 18.5193 150.429 18.3162C150.217 18.1131 149.934 17.9999 149.64 18.0002V17.9502Z" fill="#F7931E"/>
<path d="M126.946 19.3901L126.946 19.39L126.94 19.39C126.879 19.39 126.818 19.3717 126.767 19.3375C126.716 19.3033 126.677 19.2546 126.653 19.1977C126.63 19.1409 126.624 19.0783 126.636 19.0181C126.649 18.9579 126.678 18.9027 126.722 18.8595C126.766 18.8163 126.822 18.787 126.882 18.7755C126.942 18.764 127.005 18.7707 127.061 18.7947C127.118 18.8188 127.166 18.8591 127.2 18.9106C127.233 18.9621 127.251 19.0224 127.25 19.0838L127.25 19.0838L127.25 19.0901C127.25 19.1298 127.242 19.1691 127.227 19.2057C127.212 19.2424 127.189 19.2756 127.161 19.3035C127.133 19.3314 127.099 19.3535 127.062 19.3683C127.025 19.3832 126.986 19.3906 126.946 19.3901Z" fill="white" stroke="white"/>
<path d="M126.94 18.6202C127.065 18.6202 127.184 18.6697 127.272 18.7579C127.36 18.846 127.41 18.9655 127.41 19.0902C127.41 19.2148 127.36 19.3344 127.272 19.4225C127.184 19.5107 127.065 19.5602 126.94 19.5602C126.815 19.5602 126.696 19.5107 126.608 19.4225C126.52 19.3344 126.47 19.2148 126.47 19.0902C126.47 18.9655 126.52 18.846 126.608 18.7579C126.696 18.6697 126.815 18.6202 126.94 18.6202ZM126.94 17.9502C126.715 17.9502 126.494 18.0171 126.307 18.1423C126.119 18.2676 125.973 18.4456 125.887 18.6539C125.8 18.8622 125.778 19.0915 125.822 19.3126C125.866 19.5337 125.974 19.7369 126.134 19.8963C126.293 20.0557 126.496 20.1643 126.718 20.2083C126.939 20.2523 127.168 20.2297 127.376 20.1434C127.585 20.0571 127.763 19.911 127.888 19.7235C128.013 19.5361 128.08 19.3157 128.08 19.0902C128.067 18.7966 127.941 18.5193 127.729 18.3162C127.517 18.1131 127.234 17.9999 126.94 18.0002V17.9502Z" fill="#8C99B2"/>
<path d="M24.5127 16.0801H23.8533V11.7077H21.5722V16.0801H20.9128V11.1216H24.5127V16.0801ZM28.3522 16.0801H27.7262V12.8865H26.4474C26.4408 13.0708 26.4341 13.2484 26.4275 13.4193C26.4208 13.5881 26.4141 13.7413 26.4075 13.8789C26.3942 14.2274 26.3708 14.5194 26.3375 14.7547C26.3065 14.99 26.2665 15.1787 26.2177 15.3208C26.1688 15.4673 26.1144 15.5817 26.0545 15.6638C25.9968 15.746 25.9313 15.8203 25.858 15.8869C25.7825 15.9535 25.7015 16.0035 25.6149 16.0368C25.5283 16.0701 25.4306 16.0867 25.3219 16.0867C25.2863 16.0867 25.2408 16.0856 25.1853 16.0834C25.1298 16.0812 25.091 16.0801 25.0688 16.0801V15.5339H25.1021C25.1176 15.5339 25.1332 15.5351 25.1487 15.5373C25.1665 15.5395 25.1864 15.5406 25.2086 15.5406C25.2619 15.5406 25.3141 15.5328 25.3652 15.5173C25.4162 15.5018 25.4617 15.4729 25.5017 15.4307C25.6127 15.3219 25.6937 15.1321 25.7448 14.8613C25.7958 14.5882 25.8325 14.2075 25.8547 13.7191C25.8636 13.537 25.8713 13.3217 25.878 13.073C25.8869 12.8244 25.8946 12.5868 25.9013 12.3604H28.3522V16.0801ZM31.3393 15.1643V14.132C31.1906 14.1453 31.0019 14.1642 30.7732 14.1886C30.5468 14.2108 30.3636 14.243 30.2237 14.2852C30.0572 14.3362 29.9196 14.415 29.8108 14.5216C29.702 14.6259 29.6476 14.7725 29.6476 14.9612C29.6476 15.1743 29.7076 15.3353 29.8275 15.444C29.9473 15.5528 30.1227 15.6072 30.3536 15.6072C30.5512 15.6072 30.7299 15.565 30.8898 15.4807C31.0496 15.3941 31.1995 15.2886 31.3393 15.1643ZM31.3393 15.6838C31.2883 15.7215 31.2194 15.7748 31.1329 15.8436C31.0485 15.9102 30.9663 15.9635 30.8864 16.0035C30.7754 16.0612 30.6678 16.1056 30.5634 16.1367C30.4613 16.1678 30.317 16.1833 30.1305 16.1833C29.9773 16.1833 29.8319 16.1544 29.6943 16.0967C29.5566 16.039 29.4356 15.958 29.3313 15.8536C29.2314 15.7515 29.1515 15.6261 29.0915 15.4773C29.0316 15.3264 29.0016 15.1676 29.0016 15.0011C29.0016 14.7436 29.056 14.5249 29.1648 14.3451C29.2736 14.1631 29.4456 14.0188 29.6809 13.9122C29.8896 13.8167 30.136 13.7512 30.4202 13.7157C30.7044 13.678 31.0107 13.6502 31.3393 13.6325V13.5126C31.3393 13.3661 31.3171 13.2484 31.2727 13.1596C31.2283 13.0686 31.1662 12.9986 31.0862 12.9498C31.0063 12.8987 30.9086 12.8654 30.7932 12.8499C30.6777 12.8321 30.559 12.8233 30.4369 12.8233C30.2926 12.8233 30.1227 12.8455 29.9274 12.8899C29.732 12.932 29.5366 12.9942 29.3413 13.0763H29.3046V12.4403C29.4201 12.407 29.5855 12.3704 29.8008 12.3304C30.0162 12.2904 30.2293 12.2705 30.4402 12.2705C30.6955 12.2705 30.9108 12.2904 31.0862 12.3304C31.2616 12.3704 31.4192 12.4425 31.5591 12.5469C31.6945 12.649 31.7955 12.7811 31.8621 12.9431C31.9287 13.1052 31.962 13.3028 31.962 13.5359V16.0801H31.3393V15.6838ZM35.7816 16.0801H35.1556V14.405H33.4706V16.0801H32.8445V12.3604H33.4706V13.8656H35.1556V12.3604H35.7816V16.0801Z" fill="#A2E2FF"/>
<path d="M45.4749 14.0627C45.4749 14.3606 45.4257 14.6353 45.3272 14.8866C45.2288 15.138 45.0966 15.3479 44.9308 15.5163C44.7572 15.6951 44.5629 15.8311 44.3478 15.9244C44.1327 16.0151 43.8956 16.0604 43.6365 16.0604C43.3748 16.0604 43.1364 16.0164 42.9214 15.9283C42.7089 15.8402 42.521 15.7093 42.3578 15.5357C42.1583 15.3258 42.0015 15.046 41.8875 14.6962C41.7761 14.3438 41.7204 13.9111 41.7204 13.398C41.7204 12.8953 41.7722 12.4419 41.8758 12.0377C41.9795 11.6309 42.1388 11.2772 42.3539 10.9766C42.5638 10.6838 42.8346 10.4558 43.1662 10.2925C43.4979 10.1267 43.8814 10.0438 44.3167 10.0438C44.4463 10.0438 44.5667 10.0503 44.6782 10.0632C44.7896 10.0762 44.888 10.0969 44.9736 10.1254V10.8678H44.9386C44.8686 10.8289 44.7676 10.7939 44.6354 10.7628C44.5033 10.7291 44.362 10.7123 44.2118 10.7123C43.7298 10.7123 43.3398 10.8755 43.0419 11.202C42.7465 11.5259 42.5716 12.0079 42.5171 12.6479C42.7011 12.5183 42.8903 12.4186 43.0846 12.3486C43.2789 12.2787 43.4914 12.2437 43.722 12.2437C43.9475 12.2437 44.1444 12.267 44.3128 12.3136C44.4838 12.3577 44.6613 12.4484 44.8453 12.5857C45.0578 12.7464 45.2158 12.9498 45.3195 13.1959C45.4231 13.4421 45.4749 13.731 45.4749 14.0627ZM44.6859 14.0937C44.6859 13.8554 44.6548 13.6558 44.5927 13.4952C44.5305 13.3345 44.4294 13.1972 44.2895 13.0832C44.1884 13.0003 44.0731 12.9459 43.9436 12.92C43.8166 12.894 43.6858 12.8811 43.551 12.8811C43.3696 12.8811 43.1934 12.9083 43.0224 12.9627C42.8514 13.0171 42.683 13.0962 42.5171 13.1998C42.512 13.2568 42.5081 13.3125 42.5055 13.3669C42.5029 13.4188 42.5016 13.4848 42.5016 13.5652C42.5016 13.9668 42.5405 14.2907 42.6182 14.5368C42.6985 14.783 42.797 14.9696 42.9136 15.0965C43.025 15.2183 43.139 15.3038 43.2556 15.353C43.3748 15.4023 43.5031 15.4269 43.6404 15.4269C43.9513 15.4269 44.2027 15.3155 44.3944 15.0926C44.5888 14.8698 44.6859 14.5368 44.6859 14.0937ZM49.8825 13.9499H49.1945V15.9399H48.4483V13.9499H45.8908V13.1337L48.4794 10.1526H49.1945V13.3281H49.8825V13.9499ZM48.4483 13.3281V11.066L46.4971 13.3281H48.4483ZM53.2328 11.5013C53.2328 11.2422 53.146 11.0258 52.9724 10.8522C52.7988 10.6786 52.5578 10.5918 52.2495 10.5918C51.9671 10.5918 51.7351 10.6696 51.5538 10.825C51.375 10.9805 51.2856 11.1904 51.2856 11.4547C51.2856 11.6464 51.3309 11.8084 51.4216 11.9405C51.5149 12.0727 51.6535 12.1918 51.8375 12.2981C51.9178 12.3421 52.0396 12.403 52.2029 12.4808C52.3687 12.5585 52.519 12.6194 52.6537 12.6634C52.8791 12.4898 53.032 12.3123 53.1123 12.131C53.1927 11.947 53.2328 11.7371 53.2328 11.5013ZM53.3417 14.4008C53.3417 14.1624 53.295 13.9733 53.2017 13.8333C53.1085 13.6934 52.9284 13.5509 52.6615 13.4058C52.5734 13.3566 52.4555 13.3035 52.3078 13.2464C52.1627 13.1894 51.9982 13.1221 51.8142 13.0443C51.5991 13.1868 51.4346 13.363 51.3206 13.5729C51.2066 13.7802 51.1496 14.0173 51.1496 14.2842C51.1496 14.634 51.2545 14.9229 51.4644 15.1509C51.6768 15.379 51.9424 15.493 52.2612 15.493C52.5876 15.493 52.8493 15.3958 53.0463 15.2015C53.2432 15.0045 53.3417 14.7376 53.3417 14.4008ZM52.2534 16.0721C51.9658 16.0721 51.7041 16.0293 51.4683 15.9438C51.2325 15.8583 51.0317 15.7352 50.8658 15.5746C50.7026 15.4191 50.5782 15.2351 50.4927 15.0227C50.4098 14.8076 50.3683 14.5809 50.3683 14.3425C50.3683 14.029 50.4512 13.7414 50.6171 13.4796C50.7855 13.2154 51.0291 13.0055 51.3478 12.85V12.8267C51.0627 12.6608 50.8516 12.4795 50.7142 12.2825C50.5769 12.0856 50.5082 11.8395 50.5082 11.5441C50.5082 11.1087 50.6728 10.746 51.0019 10.4558C51.3309 10.1656 51.7481 10.0205 52.2534 10.0205C52.7794 10.0205 53.2004 10.1591 53.5166 10.4363C53.8353 10.711 53.9946 11.0634 53.9946 11.4935C53.9946 11.7526 53.9182 12.0092 53.7653 12.2631C53.615 12.517 53.3974 12.7153 53.1123 12.8578V12.8811C53.4492 13.0392 53.7044 13.2309 53.878 13.4563C54.0516 13.6818 54.1384 13.972 54.1384 14.327C54.1384 14.8219 53.9584 15.2364 53.5982 15.5707C53.2406 15.905 52.7923 16.0721 52.2534 16.0721Z" fill="#A2E2FF"/>
<path d="M264.812 13.2595H262.62V12.556H264.812V13.2595ZM270.883 12.0313C270.883 11.6374 270.847 11.3174 270.774 11.0713C270.702 10.8225 270.602 10.6308 270.475 10.496C270.361 10.3717 270.246 10.2862 270.129 10.2395C270.012 10.1929 269.884 10.1696 269.744 10.1696C269.425 10.1696 269.172 10.2836 268.982 10.5116C268.793 10.7396 268.699 11.07 268.699 11.5027C268.699 11.7463 268.73 11.9471 268.792 12.1051C268.854 12.2632 268.955 12.3992 269.095 12.5132C269.194 12.5936 269.305 12.648 269.429 12.6765C269.554 12.7024 269.687 12.7154 269.83 12.7154C269.995 12.7154 270.174 12.6868 270.366 12.6298C270.558 12.5702 270.725 12.4925 270.867 12.3966C270.87 12.3578 270.873 12.3072 270.875 12.2451C270.88 12.1803 270.883 12.109 270.883 12.0313ZM267.91 11.5338C267.91 11.2358 267.958 10.9637 268.053 10.7176C268.152 10.4714 268.285 10.2589 268.454 10.0802C268.614 9.90914 268.81 9.7757 269.041 9.67982C269.274 9.58395 269.51 9.53602 269.748 9.53602C270.015 9.53602 270.256 9.58136 270.471 9.67205C270.689 9.76015 270.876 9.88841 271.035 10.0568C271.234 10.2693 271.388 10.5479 271.497 10.8925C271.608 11.2371 271.664 11.6724 271.664 12.1984C271.664 12.6778 271.61 13.1325 271.501 13.5627C271.395 13.9902 271.237 14.3452 271.027 14.6276C270.804 14.9282 270.536 15.1575 270.222 15.3156C269.911 15.4736 269.526 15.5527 269.068 15.5527C268.964 15.5527 268.854 15.5462 268.737 15.5332C268.621 15.5229 268.512 15.5021 268.411 15.471V14.7287H268.45C268.515 14.7649 268.616 14.7999 268.753 14.8336C268.89 14.8673 269.03 14.8841 269.173 14.8841C269.681 14.8841 270.08 14.717 270.37 14.3828C270.66 14.0485 270.825 13.5704 270.864 12.9486C270.656 13.0885 270.458 13.1908 270.269 13.2556C270.082 13.3204 269.879 13.3528 269.659 13.3528C269.444 13.3528 269.248 13.3295 269.072 13.2828C268.896 13.2362 268.718 13.1455 268.539 13.0107C268.332 12.8527 268.175 12.6532 268.069 12.4122C267.963 12.1686 267.91 11.8758 267.91 11.5338ZM273.662 15.4399H272.733V14.3322H273.662V15.4399ZM278.334 13.5976C278.334 13.8775 278.288 14.1366 278.198 14.375C278.11 14.6134 277.985 14.8194 277.825 14.993C277.661 15.1692 277.458 15.3078 277.214 15.4088C276.973 15.5099 276.703 15.5604 276.402 15.5604C276.125 15.5604 275.851 15.5293 275.582 15.4671C275.315 15.4076 275.083 15.3285 274.886 15.2301V14.41H274.941C275 14.454 275.086 14.5045 275.197 14.5615C275.309 14.616 275.432 14.6678 275.566 14.717C275.719 14.7714 275.859 14.8142 275.986 14.8453C276.113 14.8738 276.256 14.888 276.414 14.888C276.569 14.888 276.721 14.8608 276.869 14.8064C277.016 14.7494 277.143 14.6587 277.249 14.5343C277.345 14.4203 277.418 14.2869 277.467 14.134C277.519 13.9811 277.545 13.801 277.545 13.5937C277.545 13.389 277.516 13.2206 277.459 13.0885C277.405 12.9563 277.325 12.8475 277.218 12.762C277.107 12.6635 276.97 12.5949 276.806 12.556C276.646 12.5145 276.466 12.4938 276.266 12.4938C276.056 12.4938 275.845 12.5107 275.633 12.5443C275.42 12.5754 275.25 12.6052 275.123 12.6337V9.65262H278.299V10.3328H275.874V11.8719C275.967 11.8616 276.059 11.8538 276.149 11.8486C276.24 11.8434 276.323 11.8408 276.398 11.8408C276.694 11.8408 276.944 11.8655 277.148 11.9147C277.353 11.9639 277.55 12.0598 277.739 12.2023C277.931 12.3474 278.077 12.5288 278.178 12.7464C278.282 12.9641 278.334 13.2478 278.334 13.5976Z" fill="#F7931E"/>
<path d="M264.561 25.477H262.598V27.4398H261.953V25.477H259.99V24.8551H261.953V22.8923H262.598V24.8551H264.561V25.477ZM271.359 27.7002H268.537V27.1094H269.587V23.2305H268.537V22.7019C268.934 22.7019 269.225 22.6462 269.412 22.5347C269.601 22.4207 269.707 22.207 269.73 21.8934H270.333V27.1094H271.359V27.7002ZM273.671 27.7002H272.743V26.5925H273.671V27.7002ZM277.566 23.2616C277.566 23.0024 277.479 22.7861 277.306 22.6125C277.132 22.4389 276.891 22.3521 276.583 22.3521C276.3 22.3521 276.068 22.4298 275.887 22.5853C275.708 22.7407 275.619 22.9506 275.619 23.2149C275.619 23.4067 275.664 23.5686 275.755 23.7008C275.848 23.8329 275.987 23.9521 276.171 24.0583C276.251 24.1024 276.373 24.1633 276.536 24.241C276.702 24.3187 276.852 24.3796 276.987 24.4237C277.212 24.2501 277.365 24.0726 277.445 23.8912C277.526 23.7072 277.566 23.4974 277.566 23.2616ZM277.675 26.1611C277.675 25.9227 277.628 25.7335 277.535 25.5936C277.442 25.4537 277.262 25.3112 276.995 25.1661C276.907 25.1168 276.789 25.0637 276.641 25.0067C276.496 24.9497 276.331 24.8823 276.147 24.8046C275.932 24.9471 275.768 25.1233 275.654 25.3332C275.54 25.5405 275.483 25.7776 275.483 26.0445C275.483 26.3943 275.588 26.6832 275.798 26.9112C276.01 27.1392 276.276 27.2532 276.594 27.2532C276.921 27.2532 277.182 27.1561 277.379 26.9617C277.576 26.7648 277.675 26.4979 277.675 26.1611ZM276.587 27.8323C276.299 27.8323 276.037 27.7896 275.801 27.7041C275.566 27.6186 275.365 27.4955 275.199 27.3348C275.036 27.1794 274.911 26.9954 274.826 26.7829C274.743 26.5679 274.701 26.3411 274.701 26.1028C274.701 25.7892 274.784 25.5016 274.95 25.2399C275.119 24.9756 275.362 24.7657 275.681 24.6103V24.5869C275.396 24.4211 275.185 24.2397 275.047 24.0428C274.91 23.8459 274.841 23.5997 274.841 23.3043C274.841 22.869 275.006 22.5062 275.335 22.216C275.664 21.9258 276.081 21.7807 276.587 21.7807C277.113 21.7807 277.534 21.9193 277.85 22.1966C278.168 22.4713 278.328 22.8237 278.328 23.2538C278.328 23.5129 278.251 23.7694 278.098 24.0234C277.948 24.2773 277.731 24.4755 277.445 24.618V24.6413C277.782 24.7994 278.038 24.9912 278.211 25.2166C278.385 25.442 278.472 25.7322 278.472 26.0872C278.472 26.5821 278.291 26.9967 277.931 27.331C277.574 27.6652 277.125 27.8323 276.587 27.8323Z" fill="#12151E"/>
<path d="M286.45 24.9998C286.509 25.0004 286.565 25.0216 286.61 25.0598L289 27.4198C289.038 27.4605 289.059 27.5141 289.059 27.5698C289.059 27.6255 289.038 27.6791 289 27.7198C288.981 27.7411 288.958 27.7581 288.932 27.7698C288.906 27.7815 288.878 27.7875 288.85 27.7875C288.822 27.7875 288.794 27.7815 288.768 27.7698C288.742 27.7581 288.719 27.7411 288.7 27.7198L286.43 25.4598L284.17 27.7198C284.15 27.7395 284.127 27.7551 284.101 27.7658C284.075 27.7765 284.048 27.7819 284.02 27.7819C283.992 27.7819 283.965 27.7765 283.939 27.7658C283.913 27.7551 283.89 27.7395 283.87 27.7198C283.85 27.7001 283.835 27.6767 283.824 27.651C283.813 27.6253 283.808 27.5977 283.808 27.5698C283.808 27.542 283.813 27.5144 283.824 27.4886C283.835 27.4629 283.85 27.4395 283.87 27.4198L286.3 24.9998C286.349 24.9838 286.401 24.9838 286.45 24.9998Z" fill="#12151E"/>
<path d="M286.45 22.1C286.48 22.0995 286.51 22.1055 286.538 22.1176C286.565 22.1297 286.59 22.1476 286.61 22.17L289 24.58C289.038 24.6207 289.059 24.6743 289.059 24.73C289.059 24.7857 289.038 24.8393 289 24.88C288.981 24.9013 288.958 24.9183 288.932 24.93C288.906 24.9417 288.878 24.9477 288.85 24.9477C288.822 24.9477 288.794 24.9417 288.768 24.93C288.742 24.9183 288.719 24.9013 288.7 24.88L286.43 22.62L284.17 24.88C284.15 24.8997 284.127 24.9153 284.101 24.926C284.075 24.9367 284.048 24.9422 284.02 24.9422C283.992 24.9422 283.965 24.9367 283.939 24.926C283.913 24.9153 283.89 24.8997 283.87 24.88C283.85 24.8603 283.835 24.8369 283.824 24.8112C283.813 24.7855 283.808 24.7579 283.808 24.73C283.808 24.7022 283.813 24.6746 283.824 24.6488C283.835 24.6231 283.85 24.5997 283.87 24.58L286.28 22.17C286.301 22.1462 286.327 22.1276 286.357 22.1154C286.386 22.1033 286.418 22.098 286.45 22.1Z" fill="#12151E"/>
<path d="M285.89 12.8299C285.834 12.8297 285.781 12.8082 285.74 12.7699L283.32 10.3499C283.282 10.3092 283.261 10.2556 283.261 10.1999C283.261 10.1443 283.282 10.0907 283.32 10.0499C283.362 10.0113 283.418 9.98985 283.475 9.98985C283.532 9.98985 283.588 10.0113 283.63 10.0499L285.89 12.3099L288.16 10.0499C288.18 10.0302 288.203 10.0146 288.229 10.0039C288.255 9.99328 288.282 9.98779 288.31 9.98779C288.338 9.98779 288.365 9.99328 288.391 10.0039C288.417 10.0146 288.44 10.0302 288.46 10.0499C288.48 10.0696 288.495 10.093 288.506 10.1187C288.517 10.1445 288.522 10.1721 288.522 10.1999C288.522 10.2278 288.517 10.2554 288.506 10.2811C288.495 10.3068 288.48 10.3302 288.46 10.3499L286 12.7699C285.971 12.8012 285.932 12.8222 285.89 12.8299Z" fill="#F7931E"/>
<path d="M285.89 15.6698C285.834 15.6695 285.781 15.6481 285.74 15.6098L283.32 13.1898C283.282 13.149 283.261 13.0954 283.261 13.0398C283.261 12.9841 283.282 12.9305 283.32 12.8898C283.362 12.8511 283.418 12.8297 283.475 12.8297C283.532 12.8297 283.588 12.8511 283.63 12.8898L285.89 15.1598L288.16 12.8898C288.18 12.8701 288.203 12.8544 288.229 12.8438C288.255 12.8331 288.282 12.8276 288.31 12.8276C288.338 12.8276 288.365 12.8331 288.391 12.8438C288.417 12.8544 288.44 12.8701 288.46 12.8898C288.48 12.9095 288.495 12.9329 288.506 12.9586C288.517 12.9843 288.522 13.0119 288.522 13.0398C288.522 13.0676 288.517 13.0952 288.506 13.1209C288.495 13.1467 288.48 13.1701 288.46 13.1898L286 15.6098C285.971 15.641 285.932 15.6621 285.89 15.6698Z" fill="#F7931E"/>
<path d="M216.979 12.5448C217.136 12.726 217.258 12.9507 217.345 13.2188C217.432 13.4868 217.476 13.7929 217.476 14.1368C217.476 14.4714 217.433 14.7737 217.348 15.0437C217.263 15.3136 217.14 15.5401 216.979 15.7232C216.811 15.9155 216.614 16.0578 216.388 16.1503C216.165 16.2409 215.918 16.2862 215.648 16.2862C215.369 16.2862 215.117 16.239 214.894 16.1447C214.67 16.0504 214.478 15.9099 214.317 15.7232C214.158 15.5401 214.036 15.3145 213.951 15.0464C213.866 14.7783 213.823 14.4751 213.823 14.1368C213.823 13.7892 213.866 13.4841 213.951 13.2215C214.038 12.959 214.16 12.7334 214.319 12.5448C214.479 12.3618 214.67 12.2231 214.894 12.1288C215.119 12.0326 215.371 11.9846 215.648 11.9846C215.929 11.9846 216.182 12.0336 216.408 12.1316C216.633 12.2296 216.824 12.3673 216.979 12.5448ZM216.904 14.1368C216.904 13.8631 216.875 13.6209 216.816 13.4101C216.756 13.1993 216.673 13.0246 216.566 12.8859C216.457 12.7436 216.325 12.6373 216.169 12.567C216.016 12.4949 215.843 12.4588 215.651 12.4588C215.451 12.4588 215.276 12.494 215.127 12.5642C214.979 12.6326 214.847 12.7399 214.733 12.8859C214.624 13.0265 214.54 13.203 214.48 13.4157C214.423 13.6283 214.394 13.8687 214.394 14.1368C214.394 14.6785 214.508 15.0936 214.736 15.382C214.963 15.6686 215.268 15.8119 215.651 15.8119C216.033 15.8119 216.338 15.6686 216.563 15.382C216.791 15.0936 216.904 14.6785 216.904 14.1368ZM220.302 13.5599H219.248V16.2002H218.726V13.5599H217.673V13.1023H220.302V13.5599ZM223.183 16.2002H222.534L221.472 14.7719H221.211V16.2002H220.69V13.1023H221.211V14.4502C221.346 14.4483 221.461 14.4206 221.555 14.367C221.652 14.3115 221.733 14.2052 221.799 14.048C221.82 14.0018 221.842 13.9482 221.866 13.8871C221.892 13.8261 221.912 13.7725 221.927 13.7263C222.008 13.4989 222.121 13.338 222.265 13.2437C222.41 13.1494 222.597 13.1023 222.828 13.1023H222.97V13.5516H222.851C222.705 13.5516 222.595 13.5821 222.521 13.6431C222.448 13.7023 222.387 13.8113 222.337 13.9704C222.286 14.1312 222.225 14.2569 222.154 14.3475C222.084 14.4363 222.007 14.5047 221.921 14.5528L223.183 16.2002ZM225.918 16.2002H225.397V13.5405H224.332C224.326 13.6939 224.321 13.8418 224.315 13.9842C224.309 14.1247 224.304 14.2523 224.298 14.367C224.287 14.6572 224.268 14.9004 224.24 15.0964C224.214 15.2924 224.181 15.4495 224.14 15.5679C224.1 15.6899 224.054 15.7851 224.004 15.8535C223.956 15.9219 223.902 15.9839 223.841 16.0393C223.778 16.0948 223.71 16.1364 223.638 16.1641C223.566 16.1919 223.485 16.2057 223.394 16.2057C223.365 16.2057 223.327 16.2048 223.28 16.203C223.234 16.2011 223.202 16.2002 223.183 16.2002V15.7454H223.211C223.224 15.7454 223.237 15.7463 223.25 15.7481C223.265 15.75 223.281 15.7509 223.3 15.7509C223.344 15.7509 223.388 15.7444 223.43 15.7315C223.473 15.7185 223.511 15.6945 223.544 15.6594C223.636 15.5688 223.704 15.4107 223.746 15.1851C223.789 14.9577 223.819 14.6406 223.838 14.2338C223.845 14.0822 223.852 13.9029 223.857 13.6958C223.865 13.4887 223.871 13.2909 223.877 13.1023H225.918V16.2002ZM229.224 14.6526C229.224 15.174 229.098 15.5771 228.847 15.8618C228.595 16.1447 228.261 16.2862 227.843 16.2862C227.412 16.2862 227.073 16.1401 226.825 15.848C226.579 15.554 226.456 15.1555 226.456 14.6526C226.456 14.1349 226.583 13.7328 226.836 13.4462C227.091 13.1596 227.427 13.0163 227.843 13.0163C228.261 13.0163 228.595 13.1596 228.847 13.4462C229.098 13.7309 229.224 14.1331 229.224 14.6526ZM228.686 14.6526C228.686 14.2514 228.613 13.9537 228.467 13.7596C228.321 13.5636 228.113 13.4656 227.843 13.4656C227.571 13.4656 227.361 13.5636 227.213 13.7596C227.067 13.9537 226.994 14.2514 226.994 14.6526C226.994 15.0409 227.067 15.3358 227.213 15.5373C227.361 15.737 227.571 15.8369 227.843 15.8369C228.111 15.8369 228.318 15.7389 228.464 15.5429C228.612 15.3451 228.686 15.0483 228.686 14.6526ZM232.205 16.2002H231.684V14.8052H230.281V16.2002H229.759V13.1023H230.281V14.3559H231.684V13.1023H232.205V16.2002ZM234.305 16.2723C233.811 16.2723 233.428 16.1336 233.154 15.8563C232.882 15.5771 232.746 15.1814 232.746 14.6693C232.746 14.1645 232.878 13.7633 233.143 13.4656C233.407 13.1661 233.753 13.0163 234.18 13.0163C234.372 13.0163 234.542 13.044 234.69 13.0995C234.838 13.155 234.968 13.2419 235.079 13.3602C235.19 13.4785 235.275 13.6237 235.334 13.7956C235.393 13.9657 235.423 14.1747 235.423 14.4224V14.7053H233.276C233.276 15.0659 233.367 15.3414 233.548 15.5318C233.729 15.7222 233.979 15.8175 234.299 15.8175C234.414 15.8175 234.526 15.8045 234.635 15.7786C234.746 15.7527 234.846 15.7195 234.934 15.6788C235.029 15.6363 235.108 15.5956 235.173 15.5568C235.238 15.5161 235.291 15.4782 235.334 15.443H235.364V16.0116C235.303 16.0356 235.228 16.0661 235.137 16.1031C235.046 16.1383 234.965 16.166 234.893 16.1863C234.791 16.2141 234.699 16.2353 234.616 16.2501C234.534 16.2649 234.431 16.2723 234.305 16.2723ZM234.915 14.3059C234.911 14.1654 234.895 14.0443 234.865 13.9426C234.836 13.8409 234.793 13.7549 234.738 13.6847C234.677 13.607 234.598 13.5479 234.502 13.5072C234.407 13.4665 234.29 13.4462 234.15 13.4462C234.011 13.4462 233.893 13.4674 233.795 13.51C233.698 13.5506 233.611 13.6107 233.531 13.6902C233.453 13.7716 233.394 13.8622 233.354 13.962C233.313 14.06 233.287 14.1747 233.276 14.3059H234.915ZM238.396 16.2002H237.874V14.8052H236.471V16.2002H235.95V13.1023H236.471V14.3559H237.874V13.1023H238.396V16.2002ZM241.596 16.2002H241.08V13.8899L239.622 16.2002H239.15V13.1023H239.666V15.3765L241.108 13.1023H241.596V16.2002ZM243.696 16.2723C243.202 16.2723 242.818 16.1336 242.545 15.8563C242.273 15.5771 242.137 15.1814 242.137 14.6693C242.137 14.1645 242.269 13.7633 242.534 13.4656C242.798 13.1661 243.144 13.0163 243.571 13.0163C243.763 13.0163 243.933 13.044 244.081 13.0995C244.229 13.155 244.359 13.2419 244.47 13.3602C244.58 13.4785 244.666 13.6237 244.725 13.7956C244.784 13.9657 244.813 14.1747 244.813 14.4224V14.7053H242.667C242.667 15.0659 242.757 15.3414 242.939 15.5318C243.12 15.7222 243.37 15.8175 243.69 15.8175C243.805 15.8175 243.917 15.8045 244.026 15.7786C244.137 15.7527 244.237 15.7195 244.325 15.6788C244.42 15.6363 244.499 15.5956 244.564 15.5568C244.629 15.5161 244.682 15.4782 244.725 15.443H244.755V16.0116C244.694 16.0356 244.618 16.0661 244.528 16.1031C244.437 16.1383 244.356 16.166 244.284 16.1863C244.182 16.2141 244.09 16.2353 244.006 16.2501C243.925 16.2649 243.821 16.2723 243.696 16.2723ZM244.306 14.3059C244.302 14.1654 244.286 14.0443 244.256 13.9426C244.226 13.8409 244.184 13.7549 244.128 13.6847C244.067 13.607 243.989 13.5479 243.893 13.5072C243.798 13.4665 243.681 13.4462 243.54 13.4462C243.402 13.4462 243.283 13.4674 243.185 13.51C243.089 13.5506 243.001 13.6107 242.922 13.6902C242.844 13.7716 242.785 13.8622 242.744 13.962C242.704 14.06 242.678 14.1747 242.667 14.3059H244.306Z" fill="#F7931E"/>
<path d="M216.943 23.8503L215.446 27.3282C215.383 27.4743 215.311 27.5917 215.232 27.6804C215.154 27.7692 215.073 27.8358 214.988 27.8801C214.903 27.9264 214.819 27.9569 214.736 27.9717C214.654 27.9865 214.572 27.9938 214.489 27.9938C214.415 27.9938 214.328 27.992 214.228 27.9883C214.128 27.9846 214.064 27.9818 214.037 27.98V27.4669H214.075C214.103 27.4706 214.145 27.4752 214.2 27.4808C214.258 27.4845 214.33 27.4863 214.417 27.4863C214.457 27.4863 214.505 27.4845 214.561 27.4808C214.616 27.4752 214.667 27.4613 214.713 27.4392C214.767 27.4133 214.817 27.3791 214.863 27.3365C214.911 27.2922 214.955 27.2228 214.993 27.1285L215.088 26.9094L213.637 23.8503H214.245L215.365 26.2799L216.377 23.8503H216.943ZM219.683 27.98H219.162V25.3203H218.097C218.091 25.4737 218.086 25.6216 218.08 25.764C218.075 25.9045 218.069 26.0321 218.064 26.1467C218.053 26.437 218.033 26.6802 218.005 26.8762C217.98 27.0721 217.946 27.2293 217.906 27.3476C217.865 27.4697 217.82 27.5649 217.77 27.6333C217.722 27.7017 217.667 27.7637 217.606 27.8191C217.543 27.8746 217.476 27.9162 217.404 27.9439C217.331 27.9717 217.25 27.9855 217.159 27.9855C217.13 27.9855 217.092 27.9846 217.046 27.9828C217 27.9809 216.967 27.98 216.949 27.98V27.5251H216.976C216.989 27.5251 217.002 27.5261 217.015 27.5279C217.03 27.5298 217.047 27.5307 217.065 27.5307C217.11 27.5307 217.153 27.5242 217.196 27.5113C217.238 27.4983 217.276 27.4743 217.309 27.4392C217.402 27.3486 217.469 27.1905 217.512 26.9649C217.554 26.7375 217.585 26.4204 217.603 26.0136C217.611 25.862 217.617 25.6826 217.623 25.4756C217.63 25.2685 217.637 25.0706 217.642 24.8821H219.683V27.98ZM222.876 24.8821L221.209 29.1226H220.651L221.206 27.8302L220.08 24.8821H220.643L221.489 27.1757L222.332 24.8821H222.876ZM225.599 27.98H225.078V26.7708C224.915 26.8244 224.757 26.866 224.603 26.8956C224.45 26.9251 224.298 26.9399 224.149 26.9399C224.017 26.9399 223.889 26.9233 223.763 26.89C223.639 26.8549 223.532 26.7985 223.441 26.7208C223.351 26.6432 223.28 26.5443 223.231 26.4241C223.182 26.3021 223.158 26.1588 223.158 25.9942V24.8821H223.68V25.7224C223.68 25.8592 223.685 25.9683 223.696 26.0497C223.708 26.1292 223.738 26.2068 223.788 26.2826C223.831 26.3474 223.894 26.3973 223.979 26.4324C224.066 26.4675 224.18 26.4851 224.321 26.4851C224.443 26.4851 224.573 26.4731 224.712 26.449C224.852 26.425 224.974 26.3963 225.078 26.3631V24.8821H225.599V27.98ZM230.02 27.98H226.353V24.8821H226.875V27.539H227.926V24.8821H228.447V27.539H229.499V24.8821H230.02V27.98ZM232.119 28.0521C231.626 28.0521 231.242 27.9134 230.968 27.6361C230.697 27.3569 230.561 26.9612 230.561 26.449C230.561 25.9443 230.693 25.5431 230.957 25.2454C231.222 24.9458 231.567 24.7961 231.995 24.7961C232.187 24.7961 232.357 24.8238 232.505 24.8793C232.653 24.9347 232.782 25.0216 232.893 25.14C233.004 25.2583 233.089 25.4035 233.148 25.5754C233.208 25.7455 233.237 25.9544 233.237 26.2022V26.4851H231.09C231.09 26.8456 231.181 27.1211 231.362 27.3116C231.543 27.502 231.794 27.5972 232.114 27.5972C232.229 27.5972 232.34 27.5843 232.449 27.5584C232.56 27.5325 232.66 27.4993 232.749 27.4586C232.843 27.416 232.923 27.3754 232.987 27.3365C233.052 27.2959 233.106 27.258 233.148 27.2228H233.179V27.7914C233.118 27.8154 233.042 27.8459 232.951 27.8829C232.861 27.918 232.779 27.9458 232.707 27.9661C232.606 27.9938 232.513 28.0151 232.43 28.0299C232.349 28.0447 232.245 28.0521 232.119 28.0521ZM232.73 26.0857C232.726 25.9452 232.709 25.8241 232.68 25.7224C232.65 25.6207 232.608 25.5347 232.552 25.4645C232.491 25.3868 232.412 25.3276 232.316 25.287C232.222 25.2463 232.105 25.226 231.964 25.226C231.825 25.226 231.707 25.2472 231.609 25.2897C231.513 25.3304 231.425 25.3905 231.346 25.47C231.268 25.5514 231.209 25.642 231.168 25.7418C231.127 25.8398 231.102 25.9544 231.09 26.0857H232.73ZM236.21 27.98H235.689V26.5849H234.285V27.98H233.764V24.8821H234.285V26.1356H235.689V24.8821H236.21V27.98ZM239.411 27.98H238.895V25.6697L237.436 27.98H236.965V24.8821H237.48V27.1563L238.923 24.8821H239.411V27.98ZM241.51 28.0521C241.017 28.0521 240.633 27.9134 240.359 27.6361C240.087 27.3569 239.952 26.9612 239.952 26.449C239.952 25.9443 240.084 25.5431 240.348 25.2454C240.613 24.9458 240.958 24.7961 241.385 24.7961C241.578 24.7961 241.748 24.8238 241.896 24.8793C242.044 24.9347 242.173 25.0216 242.284 25.14C242.395 25.2583 242.48 25.4035 242.539 25.5754C242.598 25.7455 242.628 25.9544 242.628 26.2022V26.4851H240.481C240.481 26.8456 240.572 27.1211 240.753 27.3116C240.934 27.502 241.185 27.5972 241.505 27.5972C241.619 27.5972 241.731 27.5843 241.84 27.5584C241.951 27.5325 242.051 27.4993 242.14 27.4586C242.234 27.416 242.314 27.3754 242.378 27.3365C242.443 27.2959 242.497 27.258 242.539 27.2228H242.57V27.7914C242.509 27.8154 242.433 27.8459 242.342 27.8829C242.252 27.918 242.17 27.9458 242.098 27.9661C241.997 27.9938 241.904 28.0151 241.821 28.0299C241.74 28.0447 241.636 28.0521 241.51 28.0521ZM242.12 26.0857C242.117 25.9452 242.1 25.8241 242.071 25.7224C242.041 25.6207 241.998 25.5347 241.943 25.4645C241.882 25.3868 241.803 25.3276 241.707 25.287C241.613 25.2463 241.495 25.226 241.355 25.226C241.216 25.226 241.098 25.2472 241 25.2897C240.904 25.3304 240.816 25.3905 240.736 25.47C240.659 25.5514 240.6 25.642 240.559 25.7418C240.518 25.8398 240.492 25.9544 240.481 26.0857H242.12Z" fill="#12151E"/>
<path d="M13.64 100.8C13.5802 100.796 13.5237 100.771 13.48 100.73L11.07 98.3198C11.032 98.2791 11.0109 98.2255 11.0109 98.1698C11.0109 98.1142 11.032 98.0606 11.07 98.0198C11.0888 97.9986 11.1118 97.9815 11.1377 97.9698C11.1636 97.9582 11.1916 97.9521 11.22 97.9521C11.2484 97.9521 11.2764 97.9582 11.3023 97.9698C11.3281 97.9815 11.3512 97.9986 11.37 98.0198L13.64 100.28L15.9 97.9998C15.9188 97.9786 15.9418 97.9615 15.9677 97.9498C15.9936 97.9382 16.0216 97.9321 16.05 97.9321C16.0784 97.9321 16.1064 97.9382 16.1323 97.9498C16.1581 97.9615 16.1812 97.9786 16.2 97.9998C16.238 98.0406 16.2591 98.0942 16.2591 98.1498C16.2591 98.2055 16.238 98.2591 16.2 98.2998L13.79 100.71C13.7519 100.756 13.6989 100.788 13.64 100.8Z" fill="#12151E"/>
<path d="M13.64 103.64C13.5813 103.64 13.5246 103.618 13.48 103.58L11.07 101.16C11.032 101.119 11.0109 101.066 11.0109 101.01C11.0109 100.955 11.032 100.901 11.07 100.86C11.0888 100.839 11.1118 100.822 11.1377 100.81C11.1636 100.799 11.1916 100.792 11.22 100.792C11.2484 100.792 11.2764 100.799 11.3023 100.81C11.3281 100.822 11.3512 100.839 11.37 100.86L13.64 103.12L15.9 100.86C15.9188 100.839 15.9418 100.822 15.9677 100.81C15.9936 100.799 16.0216 100.792 16.05 100.792C16.0784 100.792 16.1064 100.799 16.1323 100.81C16.1581 100.822 16.1812 100.839 16.2 100.86C16.238 100.901 16.2591 100.955 16.2591 101.01C16.2591 101.066 16.238 101.119 16.2 101.16L13.79 103.58C13.7484 103.617 13.6954 103.638 13.64 103.64Z" fill="#12151E"/>
<path d="M13.1409 91.9498C12.8168 91.9498 12.5182 91.8954 12.2452 91.7866C11.9743 91.6778 11.7401 91.5158 11.5425 91.3004C11.3449 91.0851 11.1917 90.8164 11.083 90.4945C10.9742 90.1726 10.9198 89.803 10.9198 89.3856C10.9198 88.9705 10.972 88.6086 11.0763 88.3C11.1829 87.9914 11.3372 87.7228 11.5392 87.4941C11.7368 87.2721 11.971 87.1034 12.2418 86.988C12.5127 86.8703 12.8157 86.8115 13.1509 86.8115C13.3174 86.8115 13.4728 86.8237 13.6171 86.8481C13.7637 86.8725 13.8991 86.9036 14.0234 86.9413C14.13 86.9746 14.2388 87.0168 14.3498 87.0679C14.463 87.1167 14.574 87.1711 14.6828 87.2311V88.0269H14.6295C14.5718 87.9737 14.4974 87.9093 14.4064 87.8338C14.3154 87.7583 14.2044 87.6839 14.0734 87.6107C13.9468 87.5419 13.8092 87.4853 13.6604 87.4408C13.5117 87.3964 13.3396 87.3742 13.1443 87.3742C12.9334 87.3742 12.7336 87.4175 12.5449 87.5041C12.3562 87.5907 12.1908 87.7184 12.0487 87.8871C11.9088 88.0558 11.8 88.2678 11.7223 88.5231C11.6446 88.7784 11.6058 89.0659 11.6058 89.3856C11.6058 89.7253 11.6469 90.0183 11.729 90.2648C11.8111 90.509 11.9232 90.7154 12.0653 90.8842C12.203 91.0484 12.365 91.1728 12.5515 91.2571C12.738 91.3393 12.9356 91.3803 13.1443 91.3803C13.3352 91.3803 13.5117 91.357 13.6738 91.3104C13.8358 91.2638 13.9801 91.2049 14.1067 91.1339C14.2288 91.0651 14.3342 90.9952 14.423 90.9241C14.5118 90.8508 14.5818 90.7887 14.6328 90.7376H14.6828V91.5235C14.574 91.5746 14.4708 91.6234 14.3731 91.67C14.2776 91.7167 14.1611 91.7622 14.0234 91.8066C13.8791 91.8532 13.7448 91.8887 13.6205 91.9131C13.4984 91.9376 13.3385 91.9498 13.1409 91.9498ZM18.1727 88.1402L16.1713 93.2319H15.502L16.168 91.68L14.816 88.1402H15.492L16.5077 90.8941L17.52 88.1402H18.1727ZM21.8358 92.7523H21.253V91.8499H18.8021V92.7523H18.2193V91.3271H18.4657C18.6766 90.9807 18.8487 90.5289 18.9819 89.9717C19.1173 89.4123 19.185 88.8017 19.185 88.1402H21.4661V91.3271H21.8358V92.7523ZM20.8401 91.3271V88.6663H19.7745C19.7456 89.2213 19.669 89.7286 19.5447 90.1882C19.4226 90.6455 19.2683 91.0251 19.0818 91.3271H20.8401ZM25.5155 90.0017C25.5155 90.6277 25.3646 91.1117 25.0626 91.4536C24.7607 91.7933 24.3589 91.9631 23.8571 91.9631C23.3399 91.9631 22.9325 91.7877 22.635 91.4369C22.3397 91.084 22.1921 90.6055 22.1921 90.0017C22.1921 89.3801 22.3442 88.8972 22.6483 88.5531C22.9547 88.209 23.3576 88.0369 23.8571 88.0369C24.3589 88.0369 24.7607 88.209 25.0626 88.5531C25.3646 88.895 25.5155 89.3778 25.5155 90.0017ZM24.8695 90.0017C24.8695 89.5199 24.7818 89.1625 24.6064 88.9294C24.431 88.6941 24.1813 88.5764 23.8571 88.5764C23.5308 88.5764 23.2788 88.6941 23.1012 88.9294C22.9258 89.1625 22.8381 89.5199 22.8381 90.0017C22.8381 90.4679 22.9258 90.822 23.1012 91.064C23.2788 91.3037 23.5308 91.4236 23.8571 91.4236C24.179 91.4236 24.4277 91.306 24.6031 91.0706C24.7807 90.8331 24.8695 90.4768 24.8695 90.0017ZM29.0754 90.7343C29.0754 90.9141 29.041 91.074 28.9721 91.2138C28.9033 91.3515 28.809 91.4669 28.6891 91.5602C28.5381 91.6778 28.3794 91.7577 28.2129 91.7999C28.0486 91.8399 27.851 91.8599 27.6201 91.8599H26.1582V88.1402H27.5236C27.7966 88.1402 27.9964 88.149 28.123 88.1668C28.2495 88.1823 28.3749 88.2245 28.4993 88.2933C28.6303 88.3644 28.7268 88.4587 28.789 88.5764C28.8511 88.6941 28.8822 88.8339 28.8822 88.996C28.8822 89.1736 28.8334 89.3334 28.7357 89.4755C28.638 89.6154 28.5081 89.7242 28.3461 89.8019L28.3627 89.8252C28.5648 89.8762 28.7335 89.9795 28.8689 90.1349C29.0066 90.2903 29.0754 90.4901 29.0754 90.7343ZM28.2395 89.0926C28.2395 89.0082 28.2251 88.9349 28.1962 88.8728C28.1696 88.8106 28.1219 88.7618 28.053 88.7263C27.9731 88.6841 27.8832 88.6597 27.7833 88.653C27.6856 88.6441 27.5491 88.6397 27.3737 88.6397H26.7776V89.6587H27.4969C27.6501 89.6587 27.7589 89.652 27.8233 89.6387C27.8876 89.6232 27.9587 89.5921 28.0364 89.5455C28.1097 89.5011 28.1618 89.4411 28.1929 89.3656C28.224 89.2902 28.2395 89.1991 28.2395 89.0926ZM28.4293 90.7376C28.4293 90.6111 28.4105 90.5101 28.3727 90.4346C28.3372 90.3569 28.2573 90.2881 28.133 90.2281C28.0553 90.1904 27.972 90.1671 27.8832 90.1582C27.7944 90.1493 27.6712 90.1449 27.5136 90.1449H26.7776V91.3604H27.3204C27.5446 91.3604 27.7189 91.3515 27.8432 91.3337C27.9676 91.316 28.0741 91.2804 28.1629 91.2271C28.2562 91.1694 28.3239 91.1028 28.3661 91.0273C28.4082 90.9519 28.4293 90.8553 28.4293 90.7376ZM32.7951 90.0017C32.7951 90.6277 32.6441 91.1117 32.3422 91.4536C32.0403 91.7933 31.6384 91.9631 31.1367 91.9631C30.6194 91.9631 30.212 91.7877 29.9146 91.4369C29.6193 91.084 29.4717 90.6055 29.4717 90.0017C29.4717 89.3801 29.6237 88.8972 29.9279 88.5531C30.2342 88.209 30.6372 88.0369 31.1367 88.0369C31.6384 88.0369 32.0403 88.209 32.3422 88.5531C32.6441 88.895 32.7951 89.3778 32.7951 90.0017ZM32.149 90.0017C32.149 89.5199 32.0613 89.1625 31.886 88.9294C31.7106 88.6941 31.4608 88.5764 31.1367 88.5764C30.8103 88.5764 30.5584 88.6941 30.3808 88.9294C30.2054 89.1625 30.1177 89.5199 30.1177 90.0017C30.1177 90.4679 30.2054 90.822 30.3808 91.064C30.5584 91.3037 30.8103 91.4236 31.1367 91.4236C31.4586 91.4236 31.7072 91.306 31.8826 91.0706C32.0602 90.8331 32.149 90.4768 32.149 90.0017ZM35.0529 91.9464C34.4601 91.9464 33.9994 91.7799 33.6709 91.4469C33.3445 91.1117 33.1814 90.6366 33.1814 90.0217C33.1814 89.4156 33.3401 88.9338 33.6576 88.5764C33.975 88.2168 34.3902 88.0369 34.903 88.0369C35.1339 88.0369 35.3381 88.0702 35.5157 88.1368C35.6933 88.2034 35.8488 88.3078 35.982 88.4499C36.1152 88.5919 36.2173 88.7662 36.2883 88.9727C36.3594 89.1769 36.3949 89.4278 36.3949 89.7253V90.065H33.8174C33.8174 90.4979 33.9262 90.8286 34.1438 91.0573C34.3613 91.286 34.6621 91.4003 35.0462 91.4003C35.1838 91.4003 35.3182 91.3848 35.4491 91.3537C35.5823 91.3226 35.7022 91.2826 35.8088 91.2338C35.922 91.1827 36.0175 91.1339 36.0952 91.0873C36.1729 91.0384 36.2373 90.9929 36.2883 90.9508H36.325V91.6334C36.2517 91.6623 36.1607 91.6989 36.0519 91.7433C35.9431 91.7855 35.8454 91.8188 35.7588 91.8432C35.6367 91.8765 35.5257 91.902 35.4258 91.9198C35.3281 91.9376 35.2038 91.9464 35.0529 91.9464ZM35.7855 89.5854C35.781 89.4167 35.7611 89.2713 35.7255 89.1492C35.69 89.0271 35.639 88.9238 35.5724 88.8395C35.4991 88.7462 35.4047 88.6752 35.2893 88.6264C35.1761 88.5775 35.0351 88.5531 34.8664 88.5531C34.6999 88.5531 34.5578 88.5786 34.4401 88.6297C34.3247 88.6785 34.2192 88.7507 34.1238 88.8461C34.0305 88.9438 33.9595 89.0526 33.9106 89.1725C33.8618 89.2902 33.8307 89.4278 33.8174 89.5854H35.7855ZM41.8762 88.6896H40.6108V91.8599H39.9847V88.6896H38.7193V88.1402H41.8762V88.6896ZM45.4027 90.0017C45.4027 90.6277 45.2518 91.1117 44.9499 91.4536C44.6479 91.7933 44.2461 91.9631 43.7444 91.9631C43.2271 91.9631 42.8197 91.7877 42.5222 91.4369C42.227 91.084 42.0793 90.6055 42.0793 90.0017C42.0793 89.3801 42.2314 88.8972 42.5355 88.5531C42.8419 88.209 43.2449 88.0369 43.7444 88.0369C44.2461 88.0369 44.6479 88.209 44.9499 88.5531C45.2518 88.895 45.4027 89.3778 45.4027 90.0017ZM44.7567 90.0017C44.7567 89.5199 44.669 89.1625 44.4936 88.9294C44.3183 88.6941 44.0685 88.5764 43.7444 88.5764C43.418 88.5764 43.166 88.6941 42.9884 88.9294C42.8131 89.1625 42.7254 89.5199 42.7254 90.0017C42.7254 90.4679 42.8131 90.822 42.9884 91.064C43.166 91.3037 43.418 91.4236 43.7444 91.4236C44.0663 91.4236 44.3149 91.306 44.4903 91.0706C44.6679 90.8331 44.7567 90.4768 44.7567 90.0017ZM48.9826 91.8599H48.3565V88.6796H46.6715V91.8599H46.0455V88.1402H48.9826V91.8599ZM52.7689 91.8599H52.1428V88.6663H50.8641C50.8574 88.8506 50.8508 89.0282 50.8441 89.1991C50.8374 89.3679 50.8308 89.521 50.8241 89.6587C50.8108 90.0072 50.7875 90.2992 50.7542 90.5345C50.7231 90.7698 50.6831 90.9585 50.6343 91.1006C50.5855 91.2471 50.5311 91.3615 50.4711 91.4436C50.4134 91.5257 50.3479 91.6001 50.2747 91.6667C50.1992 91.7333 50.1181 91.7833 50.0316 91.8166C49.945 91.8499 49.8473 91.8665 49.7385 91.8665C49.703 91.8665 49.6575 91.8654 49.602 91.8632C49.5465 91.861 49.5076 91.8599 49.4854 91.8599V91.3137H49.5187C49.5343 91.3137 49.5498 91.3148 49.5653 91.3171C49.5831 91.3193 49.6031 91.3204 49.6253 91.3204C49.6786 91.3204 49.7307 91.3126 49.7818 91.2971C49.8329 91.2815 49.8784 91.2527 49.9183 91.2105C50.0293 91.1017 50.1104 90.9119 50.1614 90.6411C50.2125 90.368 50.2491 89.9872 50.2713 89.4988C50.2802 89.3168 50.288 89.1014 50.2946 88.8528C50.3035 88.6042 50.3113 88.3666 50.3179 88.1402H52.7689V91.8599ZM56.6151 91.8599H55.9957V89.0859L54.2441 91.8599H53.678V88.1402H54.2974V90.8708L56.029 88.1402H56.6151V91.8599ZM60.438 90.7343C60.438 90.9141 60.4036 91.074 60.3348 91.2138C60.266 91.3515 60.1716 91.4669 60.0518 91.5602C59.9008 91.6778 59.7421 91.7577 59.5756 91.7999C59.4113 91.8399 59.2137 91.8599 58.9828 91.8599H57.5209V88.1402H58.8862C59.1593 88.1402 59.3591 88.149 59.4856 88.1668C59.6122 88.1823 59.7376 88.2245 59.8619 88.2933C59.9929 88.3644 60.0895 88.4587 60.1517 88.5764C60.2138 88.6941 60.2449 88.8339 60.2449 88.996C60.2449 89.1736 60.1961 89.3334 60.0984 89.4755C60.0007 89.6154 59.8708 89.7242 59.7088 89.8019L59.7254 89.8252C59.9274 89.8762 60.0962 89.9795 60.2316 90.1349C60.3692 90.2903 60.438 90.4901 60.438 90.7343ZM59.6022 89.0926C59.6022 89.0082 59.5878 88.9349 59.5589 88.8728C59.5323 88.8106 59.4845 88.7618 59.4157 88.7263C59.3358 88.6841 59.2459 88.6597 59.146 88.653C59.0483 88.6441 58.9118 88.6397 58.7364 88.6397H58.1403V89.6587H58.8596C59.0128 89.6587 59.1216 89.652 59.1859 89.6387C59.2503 89.6232 59.3214 89.5921 59.3991 89.5455C59.4723 89.5011 59.5245 89.4411 59.5556 89.3656C59.5867 89.2902 59.6022 89.1991 59.6022 89.0926ZM59.792 90.7376C59.792 90.6111 59.7731 90.5101 59.7354 90.4346C59.6999 90.3569 59.62 90.2881 59.4956 90.2281C59.4179 90.1904 59.3347 90.1671 59.2459 90.1582C59.1571 90.1493 59.0339 90.1449 58.8762 90.1449H58.1403V91.3604H58.6831C58.9073 91.3604 59.0816 91.3515 59.2059 91.3337C59.3302 91.316 59.4368 91.2804 59.5256 91.2271C59.6188 91.1694 59.6866 91.1028 59.7287 91.0273C59.7709 90.9519 59.792 90.8553 59.792 90.7376ZM64.1577 90.0017C64.1577 90.6277 64.0068 91.1117 63.7049 91.4536C63.4029 91.7933 63.0011 91.9631 62.4994 91.9631C61.9821 91.9631 61.5747 91.7877 61.2772 91.4369C60.982 91.084 60.8343 90.6055 60.8343 90.0017C60.8343 89.3801 60.9864 88.8972 61.2905 88.5531C61.5969 88.209 61.9999 88.0369 62.4994 88.0369C63.0011 88.0369 63.4029 88.209 63.7049 88.5531C64.0068 88.895 64.1577 89.3778 64.1577 90.0017ZM63.5117 90.0017C63.5117 89.5199 63.424 89.1625 63.2486 88.9294C63.0732 88.6941 62.8235 88.5764 62.4994 88.5764C62.173 88.5764 61.921 88.6941 61.7434 88.9294C61.5681 89.1625 61.4804 89.5199 61.4804 90.0017C61.4804 90.4679 61.5681 90.822 61.7434 91.064C61.921 91.3037 62.173 91.4236 62.4994 91.4236C62.8213 91.4236 63.0699 91.306 63.2453 91.0706C63.4229 90.8331 63.5117 90.4768 63.5117 90.0017Z" fill="#A2E2FF"/>
<path d="M52.866 101.887H50.3599V101.083H52.866V101.887ZM60.7085 101.07C60.7085 102.257 60.5352 103.13 60.1886 103.687C59.845 104.241 59.3133 104.518 58.5934 104.518C57.8647 104.518 57.3301 104.235 56.9894 103.669C56.6487 103.103 56.4784 102.24 56.4784 101.078C56.4784 99.8847 56.6502 99.0123 56.9938 98.4613C57.3404 97.9074 57.8736 97.6304 58.5934 97.6304C59.3222 97.6304 59.8568 97.9163 60.1975 98.488C60.5382 99.0597 60.7085 99.9202 60.7085 101.07ZM59.571 103.087C59.6569 102.868 59.7176 102.591 59.7532 102.256C59.7887 101.921 59.8065 101.526 59.8065 101.07C59.8065 100.616 59.7887 100.222 59.7532 99.8876C59.7176 99.5529 59.6554 99.2745 59.5665 99.0523C59.4777 98.8272 59.3547 98.6568 59.1977 98.5413C59.0437 98.4228 58.8423 98.3636 58.5934 98.3636C58.3476 98.3636 58.1447 98.4228 57.9847 98.5413C57.8277 98.6568 57.7033 98.8301 57.6115 99.0612C57.5226 99.2863 57.4619 99.5707 57.4293 99.9143C57.3967 100.258 57.3804 100.646 57.3804 101.078C57.3804 101.541 57.3937 101.927 57.4204 102.238C57.45 102.549 57.5122 102.828 57.607 103.074C57.6929 103.302 57.8144 103.478 57.9714 103.602C58.1313 103.724 58.3387 103.784 58.5934 103.784C58.8393 103.784 59.0407 103.727 59.1977 103.611C59.3577 103.493 59.4821 103.318 59.571 103.087ZM62.9835 104.38H61.9215V103.114H62.9835V104.38ZM68.5732 102.105H67.7868V104.38H66.9336V102.105H64.0099V101.172L66.9692 97.7637H67.7868V101.394H68.5732V102.105ZM66.9336 101.394V98.8079L64.7031 101.394H66.9336Z" fill="#12151E"/>
<path d="M13.64 65.1698C13.5813 65.1692 13.5246 65.1479 13.48 65.1098L11.07 62.6898C11.0503 62.6701 11.0347 62.6467 11.024 62.6209C11.0134 62.5952 11.0079 62.5676 11.0079 62.5398C11.0079 62.5119 11.0134 62.4843 11.024 62.4586C11.0347 62.4329 11.0503 62.4095 11.07 62.3898C11.0897 62.3701 11.1131 62.3544 11.1388 62.3438C11.1646 62.3331 11.1921 62.3276 11.22 62.3276C11.2479 62.3276 11.2754 62.3331 11.3012 62.3438C11.3269 62.3544 11.3503 62.3701 11.37 62.3898L13.64 64.6498L15.9 62.3898C15.9197 62.3701 15.9431 62.3544 15.9688 62.3438C15.9946 62.3331 16.0221 62.3276 16.05 62.3276C16.0779 62.3276 16.1054 62.3331 16.1312 62.3438C16.1569 62.3544 16.1803 62.3701 16.2 62.3898C16.2197 62.4095 16.2353 62.4329 16.246 62.4586C16.2566 62.4843 16.2621 62.5119 16.2621 62.5398C16.2621 62.5676 16.2566 62.5952 16.246 62.6209C16.2353 62.6467 16.2197 62.6701 16.2 62.6898L13.79 65.1098C13.7484 65.1465 13.6954 65.1677 13.64 65.1698Z" fill="#F7931E"/>
<path d="M13.64 67.9998C13.5813 67.9993 13.5246 67.978 13.48 67.9398L11.07 65.5198C11.0302 65.4801 11.0079 65.4261 11.0079 65.3699C11.0079 65.3136 11.0302 65.2596 11.07 65.2198C11.1098 65.1801 11.1637 65.1577 11.22 65.1577C11.2763 65.1577 11.3302 65.1801 11.37 65.2198L13.64 67.4898L15.9 65.2198C15.9197 65.2002 15.9431 65.1845 15.9688 65.1739C15.9946 65.1632 16.0221 65.1577 16.05 65.1577C16.0779 65.1577 16.1054 65.1632 16.1312 65.1739C16.1569 65.1845 16.1803 65.2002 16.2 65.2198C16.2197 65.2395 16.2353 65.2629 16.246 65.2887C16.2566 65.3144 16.2621 65.342 16.2621 65.3699C16.2621 65.3977 16.2566 65.4253 16.246 65.451C16.2353 65.4768 16.2197 65.5001 16.2 65.5198L13.79 67.9998C13.7413 68.0159 13.6887 68.0159 13.64 67.9998Z" fill="#F7931E"/>
<path d="M14.5795 54.6948C14.5795 54.9346 14.5329 55.1521 14.4397 55.3475C14.3464 55.5429 14.221 55.7016 14.0634 55.8237C13.8769 55.9702 13.6771 56.0746 13.464 56.1367C13.2508 56.1989 12.9756 56.23 12.6381 56.23H11.2028V51.2715H14.2232V51.8576H11.8622V53.2163H12.6581C12.9955 53.2163 13.2708 53.2362 13.4839 53.2762C13.6971 53.3139 13.898 53.4061 14.0867 53.5526C14.2554 53.6836 14.3797 53.8456 14.4597 54.0388C14.5396 54.2319 14.5795 54.4506 14.5795 54.6948ZM13.8902 54.7081C13.8902 54.5416 13.8625 54.3951 13.807 54.2686C13.7537 54.142 13.6682 54.0399 13.5505 53.9622C13.4284 53.8801 13.2875 53.8301 13.1276 53.8123C12.9678 53.7946 12.7424 53.7857 12.4516 53.7857H11.8622V55.6672H12.435C12.7302 55.6672 12.9567 55.6528 13.1143 55.6239C13.2742 55.595 13.414 55.5395 13.5339 55.4574C13.6582 55.3708 13.7481 55.2698 13.8036 55.1544C13.8614 55.0367 13.8902 54.888 13.8902 54.7081ZM16.7907 56.3166C16.198 56.3166 15.7373 56.1501 15.4087 55.8171C15.0824 55.4818 14.9192 55.0067 14.9192 54.3918C14.9192 53.7857 15.0779 53.304 15.3954 52.9465C15.7129 52.5869 16.128 52.4071 16.6409 52.4071C16.8717 52.4071 17.076 52.4404 17.2536 52.507C17.4312 52.5736 17.5866 52.6779 17.7198 52.82C17.853 52.9621 17.9551 53.1363 18.0262 53.3428C18.0972 53.547 18.1327 53.7979 18.1327 54.0954V54.4351H15.5553C15.5553 54.868 15.664 55.1988 15.8816 55.4274C16.0992 55.6561 16.4 55.7704 16.7841 55.7704C16.9217 55.7704 17.056 55.7549 17.187 55.7238C17.3202 55.6927 17.4401 55.6528 17.5466 55.6039C17.6599 55.5529 17.7553 55.504 17.833 55.4574C17.9107 55.4086 17.9751 55.3631 18.0262 55.3209H18.0628V56.0035C17.9895 56.0324 17.8985 56.069 17.7897 56.1134C17.681 56.1556 17.5833 56.1889 17.4967 56.2133C17.3746 56.2466 17.2636 56.2722 17.1637 56.2899C17.066 56.3077 16.9417 56.3166 16.7907 56.3166ZM17.5233 53.9555C17.5189 53.7868 17.4989 53.6414 17.4634 53.5193C17.4279 53.3972 17.3768 53.294 17.3102 53.2096C17.2369 53.1164 17.1426 53.0453 17.0271 52.9965C16.9139 52.9476 16.773 52.9232 16.6042 52.9232C16.4377 52.9232 16.2956 52.9487 16.178 52.9998C16.0625 53.0486 15.9571 53.1208 15.8616 53.2163C15.7684 53.3139 15.6973 53.4227 15.6485 53.5426C15.5997 53.6603 15.5686 53.7979 15.5553 53.9555H17.5233ZM21.7026 56.23H21.0765V54.555H19.3915V56.23H18.7655V52.5103H19.3915V54.0155H21.0765V52.5103H21.7026V56.23ZM25.0726 55.201C25.0726 55.4097 25.0271 55.5862 24.9361 55.7305C24.8451 55.8748 24.7285 55.9891 24.5864 56.0735C24.451 56.1556 24.2967 56.2167 24.1235 56.2566C23.9504 56.2966 23.7772 56.3166 23.6041 56.3166C23.3598 56.3166 23.129 56.2921 22.9114 56.2433C22.6938 56.1967 22.4774 56.1212 22.262 56.0169V55.3242H22.302C22.453 55.4641 22.6417 55.5751 22.8681 55.6572C23.0968 55.7371 23.3243 55.7771 23.5508 55.7771C23.6485 55.7771 23.7528 55.7671 23.8638 55.7471C23.977 55.7249 24.0725 55.6916 24.1502 55.6472C24.2523 55.5851 24.3245 55.5185 24.3666 55.4474C24.411 55.3764 24.4332 55.2787 24.4332 55.1544C24.4332 55.0212 24.4077 54.9146 24.3567 54.8347C24.3078 54.7525 24.2401 54.6915 24.1535 54.6515C24.0669 54.6116 23.9693 54.5871 23.8605 54.5783C23.7539 54.5672 23.6407 54.5616 23.5208 54.5616H23.0812V54.0221H23.4176C23.5019 54.0221 23.6074 54.0199 23.7339 54.0155C23.8605 54.0088 23.9615 53.9911 24.037 53.9622C24.1324 53.9267 24.209 53.8767 24.2667 53.8123C24.3245 53.7457 24.3533 53.6347 24.3533 53.4793C24.3533 53.3706 24.3289 53.2829 24.2801 53.2163C24.2312 53.1497 24.1702 53.0975 24.0969 53.0597C24.0214 53.0198 23.9393 52.9931 23.8505 52.9798C23.7617 52.9643 23.6762 52.9565 23.5941 52.9565C23.3832 52.9565 23.18 52.9865 22.9847 53.0464C22.7915 53.1041 22.625 53.1907 22.4851 53.3062H22.4452V52.6302C22.605 52.5747 22.7815 52.5258 22.9747 52.4836C23.17 52.4415 23.3654 52.4204 23.5608 52.4204C23.7184 52.4204 23.8782 52.437 24.0403 52.4703C24.2046 52.5014 24.36 52.5558 24.5065 52.6335C24.6441 52.709 24.7596 52.8133 24.8528 52.9465C24.9461 53.0775 24.9927 53.2385 24.9927 53.4294C24.9927 53.6314 24.935 53.809 24.8195 53.9622C24.7063 54.1132 24.5553 54.2131 24.3666 54.2619V54.2852C24.5731 54.3563 24.7418 54.465 24.8728 54.6116C25.006 54.7581 25.0726 54.9546 25.0726 55.201ZM28.6691 56.23H28.0497V53.456L26.2981 56.23H25.732V52.5103H26.3514V55.2409L28.083 52.5103H28.6691V56.23ZM32.512 56.23H31.886V54.555H30.2009V56.23H29.5749V52.5103H30.2009V54.0155H31.886V52.5103H32.512V56.23ZM36.1784 55.0778C36.1784 55.2576 36.1418 55.4208 36.0685 55.5673C35.9975 55.7138 35.8998 55.8326 35.7755 55.9236C35.629 56.0346 35.4725 56.1134 35.3059 56.16C35.1394 56.2067 34.9252 56.23 34.6632 56.23H33.4178V52.5103H34.0439V53.9589H34.6799C34.9596 53.9589 35.1761 53.9733 35.3293 54.0022C35.4847 54.031 35.639 54.1021 35.7921 54.2153C35.9209 54.3107 36.0175 54.4328 36.0819 54.5816C36.1462 54.7303 36.1784 54.8957 36.1784 55.0778ZM35.5324 55.0878C35.5324 54.9745 35.5124 54.8757 35.4725 54.7914C35.4347 54.7048 35.3714 54.6349 35.2826 54.5816C35.1894 54.5261 35.0828 54.4928 34.963 54.4817C34.8453 54.4706 34.6755 54.465 34.4534 54.465H34.0439V55.7305H34.4401C34.6621 55.7305 34.8342 55.7216 34.9563 55.7038C35.0784 55.6838 35.1838 55.6472 35.2726 55.5939C35.3637 55.5362 35.4292 55.4685 35.4691 55.3908C35.5113 55.3109 35.5324 55.2099 35.5324 55.0878ZM37.2374 56.23H36.6113V52.5103H37.2374V56.23Z" fill="#12151E"/>
<path d="M52.866 66.267H50.3599V65.4628H52.866V66.267ZM60.7085 65.4495C60.7085 66.6373 60.5352 67.5097 60.1886 68.0666C59.845 68.6205 59.3133 68.8975 58.5934 68.8975C57.8647 68.8975 57.3301 68.6146 56.9894 68.0488C56.6487 67.483 56.4784 66.6195 56.4784 65.4583C56.4784 64.2646 56.6502 63.3922 56.9938 62.8412C57.3404 62.2873 57.8736 62.0103 58.5934 62.0103C59.3222 62.0103 59.8568 62.2962 60.1975 62.8679C60.5382 63.4396 60.7085 64.3001 60.7085 65.4495ZM59.571 67.4667C59.6569 67.2475 59.7176 66.9706 59.7532 66.6358C59.7887 66.3011 59.8065 65.9056 59.8065 65.4495C59.8065 64.9962 59.7887 64.6023 59.7532 64.2675C59.7176 63.9328 59.6554 63.6543 59.5665 63.4322C59.4777 63.207 59.3547 63.0367 59.1977 62.9212C59.0437 62.8027 58.8423 62.7435 58.5934 62.7435C58.3476 62.7435 58.1447 62.8027 57.9847 62.9212C57.8277 63.0367 57.7033 63.21 57.6115 63.4411C57.5226 63.6662 57.4619 63.9506 57.4293 64.2942C57.3967 64.6378 57.3804 65.0259 57.3804 65.4583C57.3804 65.9205 57.3937 66.307 57.4204 66.6181C57.45 66.9291 57.5122 67.2076 57.607 67.4534C57.6929 67.6815 57.8144 67.8578 57.9714 67.9822C58.1313 68.1036 58.3387 68.1644 58.5934 68.1644C58.8393 68.1644 59.0407 68.1066 59.1977 67.9911C59.3577 67.8726 59.4821 67.6978 59.571 67.4667ZM62.9835 68.7598H61.9215V67.4934H62.9835V68.7598ZM68.5732 66.4848H67.7868V68.7598H66.9336V66.4848H64.0099V65.5517L66.9692 62.1436H67.7868V65.7738H68.5732V66.4848ZM66.9336 65.7738V63.1878L64.7031 65.7738H66.9336Z" fill="#F7931E"/>
<path opacity="0.1" d="M70.2 74.6598H10.69L4.69 68.6598V52.2598L10.69 46.2598H70.2L76.2 52.2598V68.6598L70.2 74.6598Z" fill="url(#paint0_linear)"/>
<path d="M70.2 74.6598H10.69L4.69 68.6598V52.2598L10.69 46.2598H70.2L76.2 52.2598V68.6598L70.2 74.6598Z" stroke="#0089FF" stroke-width="0.5" stroke-miterlimit="10"/>
<path d="M70.2 110.32H10.69L4.69 104.32V87.9199L10.69 81.9199H70.2L76.2 87.9199V104.32L70.2 110.32Z" stroke="#606580" stroke-width="0.5" stroke-miterlimit="10"/>
<path d="M134.55 65.17C134.578 65.1691 134.606 65.1739 134.631 65.1842C134.657 65.1946 134.681 65.2102 134.7 65.2301L137.12 67.65C137.14 67.6697 137.155 67.6931 137.166 67.7189C137.177 67.7446 137.182 67.7722 137.182 67.8001C137.182 67.8279 137.177 67.8555 137.166 67.8812C137.155 67.907 137.14 67.9303 137.12 67.95C137.1 67.9697 137.077 67.9854 137.051 67.996C137.025 68.0067 136.998 68.0122 136.97 68.0122C136.942 68.0122 136.915 68.0067 136.889 67.996C136.863 67.9854 136.84 67.9697 136.82 67.95L134.55 65.68L132.29 68C132.249 68.038 132.196 68.0591 132.14 68.0591C132.084 68.0591 132.031 68.038 131.99 68C131.969 67.9813 131.952 67.9582 131.94 67.9323C131.928 67.9065 131.922 67.8784 131.922 67.85C131.922 67.8217 131.928 67.7936 131.94 67.7678C131.952 67.7419 131.969 67.7188 131.99 67.7L134.4 65.28C134.415 65.2519 134.437 65.2274 134.463 65.2084C134.489 65.1894 134.518 65.1763 134.55 65.17Z" fill="#12151E"/>
<path d="M134.55 62.3302C134.578 62.3292 134.606 62.3341 134.631 62.3444C134.657 62.3547 134.681 62.3703 134.7 62.3902L137.12 64.8102C137.16 64.85 137.182 64.9039 137.182 64.9602C137.182 65.0165 137.16 65.0704 137.12 65.1102C137.08 65.15 137.026 65.1723 136.97 65.1723C136.914 65.1723 136.86 65.15 136.82 65.1102L134.55 62.8402L132.29 65.1102C132.249 65.1482 132.196 65.1693 132.14 65.1693C132.084 65.1693 132.031 65.1482 131.99 65.1102C131.969 65.0914 131.952 65.0684 131.94 65.0425C131.928 65.0166 131.922 64.9886 131.922 64.9602C131.922 64.9318 131.928 64.9038 131.94 64.8779C131.952 64.8521 131.969 64.829 131.99 64.8102L134.4 62.3902C134.441 62.3519 134.494 62.3305 134.55 62.3302Z" fill="#12151E"/>
<path d="M135.789 56.23H134.95L133.198 53.9589H132.782V56.23H132.123V51.2715H132.782V53.506C133.042 53.4971 133.247 53.4316 133.398 53.3095C133.551 53.1874 133.676 53.012 133.771 52.7833C133.811 52.6834 133.847 52.5891 133.878 52.5003C133.911 52.4093 133.938 52.3327 133.958 52.2705C134.091 51.8909 134.261 51.63 134.467 51.4879C134.674 51.3436 134.96 51.2715 135.326 51.2715H135.53V51.8609H135.363C135.092 51.8609 134.902 51.9142 134.794 52.0208C134.685 52.1251 134.585 52.3238 134.494 52.6168C134.403 52.9099 134.301 53.1252 134.187 53.2629C134.074 53.3983 133.938 53.5182 133.778 53.6225L135.789 56.23ZM137.797 56.3166C137.205 56.3166 136.744 56.1501 136.415 55.8171C136.089 55.4818 135.926 55.0067 135.926 54.3918C135.926 53.7857 136.085 53.304 136.402 52.9465C136.719 52.5869 137.135 52.4071 137.647 52.4071C137.878 52.4071 138.083 52.4404 138.26 52.507C138.438 52.5736 138.593 52.6779 138.726 52.82C138.86 52.9621 138.962 53.1363 139.033 53.3428C139.104 53.547 139.139 53.7979 139.139 54.0954V54.4351H136.562C136.562 54.868 136.671 55.1988 136.888 55.4274C137.106 55.6561 137.407 55.7704 137.791 55.7704C137.928 55.7704 138.063 55.7549 138.194 55.7238C138.327 55.6927 138.447 55.6528 138.553 55.6039C138.666 55.5529 138.762 55.504 138.84 55.4574C138.917 55.4086 138.982 55.3631 139.033 55.3209H139.069V56.0035C138.996 56.0324 138.905 56.069 138.796 56.1134C138.688 56.1556 138.59 56.1889 138.503 56.2133C138.381 56.2466 138.27 56.2722 138.17 56.2899C138.073 56.3077 137.948 56.3166 137.797 56.3166ZM138.53 53.9555C138.525 53.7868 138.505 53.6414 138.47 53.5193C138.434 53.3972 138.383 53.294 138.317 53.2096C138.244 53.1164 138.149 53.0453 138.034 52.9965C137.921 52.9476 137.78 52.9232 137.611 52.9232C137.444 52.9232 137.302 52.9487 137.185 52.9998C137.069 53.0486 136.964 53.1208 136.868 53.2163C136.775 53.3139 136.704 53.4227 136.655 53.5426C136.606 53.6603 136.575 53.7979 136.562 53.9555H138.53ZM142.892 54.2719C142.892 54.8913 142.744 55.3853 142.446 55.7538C142.151 56.1201 141.777 56.3032 141.324 56.3032C141.14 56.3032 140.976 56.2822 140.834 56.24C140.692 56.1978 140.547 56.1323 140.398 56.0435V57.602H139.772V52.5103H140.398V52.8999C140.553 52.76 140.726 52.6435 140.914 52.5502C141.105 52.4548 141.313 52.4071 141.537 52.4071C141.963 52.4071 142.295 52.5758 142.533 52.9132C142.772 53.2507 142.892 53.7036 142.892 54.2719ZM142.246 54.3418C142.246 53.9178 142.179 53.5892 142.043 53.3561C141.908 53.1208 141.688 53.0031 141.384 53.0031C141.206 53.0031 141.034 53.0431 140.868 53.123C140.703 53.2007 140.547 53.3017 140.398 53.4261V55.534C140.562 55.6139 140.702 55.6683 140.818 55.6972C140.935 55.726 141.07 55.7405 141.221 55.7405C141.545 55.7405 141.797 55.6217 141.977 55.3841C142.156 55.1466 142.246 54.7992 142.246 54.3418ZM146.602 54.3718C146.602 54.9979 146.451 55.4818 146.149 55.8237C145.847 56.1634 145.445 56.3332 144.944 56.3332C144.426 56.3332 144.019 56.1578 143.721 55.8071C143.426 55.4541 143.279 54.9757 143.279 54.3718C143.279 53.7502 143.431 53.2673 143.735 52.9232C144.041 52.5791 144.444 52.4071 144.944 52.4071C145.445 52.4071 145.847 52.5791 146.149 52.9232C146.451 53.2651 146.602 53.748 146.602 54.3718ZM145.956 54.3718C145.956 53.89 145.868 53.5326 145.693 53.2995C145.518 53.0642 145.268 52.9465 144.944 52.9465C144.617 52.9465 144.365 53.0642 144.188 53.2995C144.012 53.5326 143.925 53.89 143.925 54.3718C143.925 54.838 144.012 55.1921 144.188 55.4341C144.365 55.6739 144.617 55.7937 144.944 55.7937C145.266 55.7937 145.514 55.6761 145.69 55.4408C145.867 55.2032 145.956 54.8469 145.956 54.3718ZM148.723 56.3132C148.468 56.3132 148.234 56.2744 148.021 56.1967C147.808 56.1168 147.624 55.9969 147.471 55.837C147.318 55.6772 147.199 55.4763 147.115 55.2343C147.03 54.9901 146.988 54.7037 146.988 54.3751C146.988 54.0488 147.032 53.7668 147.118 53.5293C147.207 53.2917 147.325 53.0919 147.471 52.9299C147.618 52.7678 147.8 52.6435 148.017 52.5569C148.237 52.4681 148.472 52.4237 148.723 52.4237C148.928 52.4237 149.124 52.4526 149.313 52.5103C149.504 52.568 149.673 52.6346 149.822 52.7101V53.4127H149.786C149.741 53.375 149.683 53.3317 149.612 53.2829C149.544 53.234 149.459 53.1841 149.359 53.133C149.273 53.0886 149.171 53.0498 149.053 53.0165C148.935 52.9832 148.822 52.9665 148.713 52.9665C148.389 52.9665 148.128 53.0897 147.931 53.3361C147.735 53.5803 147.638 53.9267 147.638 54.3751C147.638 54.8147 147.732 55.1577 147.921 55.4041C148.112 55.6483 148.376 55.7704 148.713 55.7704C148.918 55.7704 149.112 55.7282 149.296 55.6439C149.48 55.5595 149.643 55.4507 149.786 55.3175H149.822V56.0202C149.76 56.049 149.682 56.0846 149.589 56.1267C149.496 56.1667 149.411 56.1967 149.336 56.2167C149.229 56.2477 149.134 56.2711 149.05 56.2866C148.965 56.3044 148.856 56.3132 148.723 56.3132ZM153.332 56.23H152.713V53.456L150.961 56.23H150.395V52.5103H151.014V55.2409L152.746 52.5103H153.332V56.23ZM157.175 56.23H156.549V54.555H154.864V56.23H154.238V52.5103H154.864V54.0155H156.549V52.5103H157.175V56.23ZM160.841 55.0778C160.841 55.2576 160.805 55.4208 160.732 55.5673C160.66 55.7138 160.563 55.8326 160.438 55.9236C160.292 56.0346 160.135 56.1134 159.969 56.16C159.802 56.2067 159.588 56.23 159.326 56.23H158.081V52.5103H158.707V53.9589H159.343C159.623 53.9589 159.839 53.9733 159.992 54.0022C160.148 54.031 160.302 54.1021 160.455 54.2153C160.584 54.3107 160.68 54.4328 160.745 54.5816C160.809 54.7303 160.841 54.8957 160.841 55.0778ZM160.195 55.0878C160.195 54.9745 160.175 54.8757 160.135 54.7914C160.098 54.7048 160.034 54.6349 159.946 54.5816C159.852 54.5261 159.746 54.4928 159.626 54.4817C159.508 54.4706 159.338 54.465 159.116 54.465H158.707V55.7305H159.103C159.325 55.7305 159.497 55.7216 159.619 55.7038C159.741 55.6838 159.847 55.6472 159.936 55.5939C160.027 55.5362 160.092 55.4685 160.132 55.3908C160.174 55.3109 160.195 55.2099 160.195 55.0878ZM161.9 56.23H161.274V52.5103H161.9V56.23Z" fill="#A2E2FF"/>
<path d="M176.233 66.2182H173.989V68.4621H173.252V66.2182H171.008V65.5072H173.252V63.2633H173.989V65.5072H176.233V66.2182ZM184.004 68.7598H180.779V68.0844H181.978V63.6499H180.779V63.0456C181.232 63.0456 181.565 62.9819 181.778 62.8545C181.995 62.7242 182.116 62.4798 182.143 62.1214H182.831V68.0844H184.004V68.7598ZM188.972 68.7598H185.746V68.0844H186.946V63.6499H185.746V63.0456C186.199 63.0456 186.533 62.9819 186.746 62.8545C186.962 62.7242 187.084 62.4798 187.11 62.1214H187.799V68.0844H188.972V68.7598Z" fill="#12151E"/>
<path d="M173.476 101.887H170.97V101.083H173.476V101.887ZM181.318 101.07C181.318 102.257 181.145 103.13 180.799 103.687C180.455 104.241 179.923 104.518 179.203 104.518C178.475 104.518 177.94 104.235 177.599 103.669C177.259 103.103 177.088 102.24 177.088 101.078C177.088 99.8847 177.26 99.0123 177.604 98.4613C177.95 97.9074 178.484 97.6304 179.203 97.6304C179.932 97.6304 180.467 97.9163 180.808 98.488C181.148 99.0597 181.318 99.9202 181.318 101.07ZM180.181 103.087C180.267 102.868 180.328 102.591 180.363 102.256C180.399 101.921 180.416 101.526 180.416 101.07C180.416 100.616 180.399 100.222 180.363 99.8876C180.328 99.5529 180.265 99.2745 180.177 99.0523C180.088 98.8272 179.965 98.6568 179.808 98.5413C179.654 98.4228 179.452 98.3636 179.203 98.3636C178.958 98.3636 178.755 98.4228 178.595 98.5413C178.438 98.6568 178.313 98.8301 178.221 99.0612C178.133 99.2863 178.072 99.5707 178.039 99.9143C178.007 100.258 177.99 100.646 177.99 101.078C177.99 101.541 178.004 101.927 178.03 102.238C178.06 102.549 178.122 102.828 178.217 103.074C178.303 103.302 178.424 103.478 178.581 103.602C178.741 103.724 178.949 103.784 179.203 103.784C179.449 103.784 179.651 103.727 179.808 103.611C179.968 103.493 180.092 103.318 180.181 103.087ZM183.593 104.38H182.532V103.114H183.593V104.38ZM189.183 102.105H188.397V104.38H187.544V102.105H184.62V101.172L187.579 97.7637H188.397V101.394H189.183V102.105ZM187.544 101.394V98.8079L185.313 101.394H187.544Z" fill="#12151E"/>
<path d="M134.55 100.8C134.493 100.796 134.44 100.771 134.4 100.73L132 98.3198C131.98 98.3001 131.965 98.2768 131.954 98.251C131.943 98.2253 131.938 98.1977 131.938 98.1698C131.938 98.142 131.943 98.1144 131.954 98.0887C131.965 98.0629 131.98 98.0395 132 98.0198C132.02 98.0001 132.043 97.9845 132.069 97.9739C132.095 97.9632 132.122 97.9577 132.15 97.9577C132.178 97.9577 132.205 97.9632 132.231 97.9739C132.257 97.9845 132.28 98.0001 132.3 98.0198L134.56 100.28L136.82 97.9998C136.839 97.9786 136.862 97.9615 136.888 97.9498C136.914 97.9382 136.942 97.9321 136.97 97.9321C136.998 97.9321 137.026 97.9382 137.052 97.9498C137.078 97.9615 137.101 97.9786 137.12 97.9998C137.158 98.0406 137.179 98.0942 137.179 98.1498C137.179 98.2055 137.158 98.2591 137.12 98.2998L134.7 100.71C134.683 100.735 134.661 100.756 134.635 100.771C134.609 100.787 134.58 100.797 134.55 100.8Z" fill="#12151E"/>
<path d="M134.55 103.64C134.494 103.64 134.441 103.618 134.4 103.58L132 101.16C131.98 101.14 131.965 101.117 131.954 101.091C131.943 101.066 131.938 101.038 131.938 101.01C131.938 100.982 131.943 100.955 131.954 100.929C131.965 100.903 131.98 100.88 132 100.86C132.02 100.84 132.043 100.825 132.069 100.814C132.095 100.804 132.122 100.798 132.15 100.798C132.178 100.798 132.205 100.804 132.231 100.814C132.257 100.825 132.28 100.84 132.3 100.86L134.56 103.12L136.83 100.86C136.849 100.839 136.872 100.822 136.898 100.81C136.924 100.799 136.952 100.792 136.98 100.792C137.008 100.792 137.036 100.799 137.062 100.81C137.088 100.822 137.111 100.839 137.13 100.86C137.168 100.901 137.189 100.955 137.189 101.01C137.189 101.066 137.168 101.119 137.13 101.16L134.71 103.58C134.689 103.601 134.664 103.618 134.637 103.628C134.609 103.639 134.579 103.643 134.55 103.64Z" fill="#12151E"/>
<path d="M135.5 90.3247C135.5 90.5645 135.453 90.782 135.36 90.9774C135.266 91.1728 135.141 91.3315 134.983 91.4536C134.797 91.6001 134.597 91.7045 134.384 91.7666C134.171 91.8288 133.896 91.8599 133.558 91.8599H132.123V86.9014H135.143V87.4875H132.782V88.8461H133.578C133.916 88.8461 134.191 88.8661 134.404 88.9061C134.617 88.9438 134.818 89.036 135.007 89.1825C135.175 89.3135 135.3 89.4755 135.38 89.6687C135.46 89.8618 135.5 90.0805 135.5 90.3247ZM134.81 90.338C134.81 90.1715 134.782 90.025 134.727 89.8984C134.674 89.7719 134.588 89.6698 134.471 89.5921C134.348 89.5099 134.207 89.46 134.048 89.4422C133.888 89.4245 133.662 89.4156 133.372 89.4156H132.782V91.2971H133.355C133.65 91.2971 133.877 91.2826 134.034 91.2538C134.194 91.2249 134.334 91.1694 134.454 91.0873C134.578 91.0007 134.668 90.8997 134.724 90.7842C134.781 90.6666 134.81 90.5178 134.81 90.338ZM139.033 91.8599H138.413V89.0859L136.662 91.8599H136.096V88.1402H136.715V90.8708L138.447 88.1402H139.033V91.8599ZM142.656 88.6896H141.39V91.8599H140.764V88.6896H139.499V88.1402H142.656V88.6896ZM146.046 88.1402L144.045 93.2319H143.375L144.041 91.68L142.689 88.1402H143.365L144.381 90.8941L145.393 88.1402H146.046ZM149.969 91.8599H149.349V88.9361L148.457 90.8342H147.991L147.105 88.9361V91.8599H146.519V88.1402H147.275L148.254 90.2048L149.199 88.1402H149.969V91.8599ZM153.635 90.7077C153.635 90.8875 153.599 91.0507 153.525 91.1972C153.454 91.3437 153.357 91.4625 153.232 91.5535C153.086 91.6645 152.929 91.7433 152.763 91.7899C152.596 91.8366 152.382 91.8599 152.12 91.8599H150.875V88.1402H151.501V89.5887H152.137C152.416 89.5887 152.633 89.6032 152.786 89.632C152.941 89.6609 153.096 89.7319 153.249 89.8452C153.378 89.9406 153.474 90.0627 153.539 90.2115C153.603 90.3602 153.635 90.5256 153.635 90.7077ZM152.989 90.7176C152.989 90.6044 152.969 90.5056 152.929 90.4213C152.891 90.3347 152.828 90.2648 152.739 90.2115C152.646 90.156 152.54 90.1227 152.42 90.1116C152.302 90.1005 152.132 90.0949 151.91 90.0949H151.501V91.3604H151.897C152.119 91.3604 152.291 91.3515 152.413 91.3337C152.535 91.3137 152.641 91.2771 152.729 91.2238C152.82 91.1661 152.886 91.0984 152.926 91.0207C152.968 90.9408 152.989 90.8397 152.989 90.7176ZM154.694 91.8599H154.068V88.1402H154.694V91.8599Z" fill="#A2E2FF"/>
<path d="M191.05 74.6598H131.53L125.53 68.6598V52.2598L131.53 46.2598H191.05L197.05 52.2598V68.6598L191.05 74.6598Z" stroke="#606580" stroke-width="0.5" stroke-miterlimit="10"/>
<path d="M191.05 110.32H131.53L125.53 104.32V87.9199L131.53 81.9199H191.05L197.05 87.9199V104.32L191.05 110.32Z" stroke="#606580" stroke-width="0.5" stroke-miterlimit="10"/>
<path d="M255.76 65.1699C255.816 65.1702 255.869 65.1916 255.91 65.2299L258.32 67.6499C258.341 67.6687 258.358 67.6918 258.37 67.7176C258.382 67.7435 258.388 67.7716 258.388 67.7999C258.388 67.8283 258.382 67.8563 258.37 67.8822C258.358 67.9081 258.341 67.9312 258.32 67.9499C258.279 67.9879 258.226 68.009 258.17 68.009C258.114 68.009 258.061 67.9879 258.02 67.9499L255.76 65.6799L253.49 67.9999C253.47 68.0196 253.447 68.0352 253.421 68.0459C253.395 68.0566 253.368 68.0621 253.34 68.0621C253.312 68.0621 253.285 68.0566 253.259 68.0459C253.233 68.0352 253.21 68.0196 253.19 67.9999C253.17 67.9802 253.155 67.9568 253.144 67.9311C253.133 67.9054 253.128 67.8778 253.128 67.8499C253.128 67.8221 253.133 67.7945 253.144 67.7687C253.155 67.743 253.17 67.7196 253.19 67.6999L255.61 65.2799C255.624 65.2508 255.645 65.2256 255.671 65.2064C255.698 65.1873 255.728 65.1747 255.76 65.1699Z" fill="#12151E"/>
<path d="M255.76 62.3302C255.816 62.3305 255.869 62.3519 255.91 62.3902L258.32 64.8102C258.341 64.829 258.358 64.8521 258.37 64.8779C258.382 64.9038 258.388 64.9318 258.388 64.9602C258.388 64.9886 258.382 65.0166 258.37 65.0425C258.358 65.0684 258.341 65.0914 258.32 65.1102C258.279 65.1482 258.226 65.1693 258.17 65.1693C258.114 65.1693 258.061 65.1482 258.02 65.1102L255.76 62.8402L253.49 65.1102C253.47 65.1299 253.447 65.1455 253.421 65.1562C253.395 65.1668 253.368 65.1723 253.34 65.1723C253.312 65.1723 253.285 65.1668 253.259 65.1562C253.233 65.1455 253.21 65.1299 253.19 65.1102C253.17 65.0905 253.155 65.0671 253.144 65.0414C253.133 65.0156 253.128 64.9881 253.128 64.9602C253.128 64.9323 253.133 64.9048 253.144 64.879C253.155 64.8533 253.17 64.8299 253.19 64.8102L255.61 62.3902C255.629 62.3703 255.653 62.3547 255.679 62.3444C255.704 62.3341 255.732 62.3292 255.76 62.3302Z" fill="#12151E"/>
<path d="M257.349 57.3522H256.723V56.2167H253.506V57.3522H252.88V55.6439H253.15C253.438 55.171 253.67 54.5516 253.846 53.7857C254.023 53.0176 254.112 52.1795 254.112 51.2715H256.879V55.6439H257.349V57.3522ZM256.22 55.6439V51.8443H254.731C254.7 52.6457 254.6 53.3728 254.432 54.0255C254.263 54.6782 254.048 55.2176 253.786 55.6439H256.22ZM260.872 56.23H260.253V53.456L258.501 56.23H257.935V52.5103H258.554V55.2409L260.286 52.5103H260.872V56.23ZM264.242 55.201C264.242 55.4097 264.197 55.5862 264.106 55.7305C264.015 55.8748 263.898 55.9891 263.756 56.0735C263.621 56.1556 263.466 56.2167 263.293 56.2566C263.12 56.2966 262.947 56.3166 262.774 56.3166C262.529 56.3166 262.299 56.2921 262.081 56.2433C261.863 56.1967 261.647 56.1212 261.432 56.0169V55.3242H261.472C261.623 55.4641 261.811 55.5751 262.038 55.6572C262.266 55.7371 262.494 55.7771 262.72 55.7771C262.818 55.7771 262.922 55.7671 263.033 55.7471C263.147 55.7249 263.242 55.6916 263.32 55.6472C263.422 55.5851 263.494 55.5185 263.536 55.4474C263.581 55.3764 263.603 55.2787 263.603 55.1544C263.603 55.0212 263.577 54.9146 263.526 54.8347C263.477 54.7525 263.41 54.6915 263.323 54.6515C263.236 54.6116 263.139 54.5871 263.03 54.5783C262.923 54.5672 262.81 54.5616 262.69 54.5616H262.251V54.0221H262.587C262.671 54.0221 262.777 54.0199 262.903 54.0155C263.03 54.0088 263.131 53.9911 263.207 53.9622C263.302 53.9267 263.379 53.8767 263.436 53.8123C263.494 53.7457 263.523 53.6347 263.523 53.4793C263.523 53.3706 263.498 53.2829 263.45 53.2163C263.401 53.1497 263.34 53.0975 263.266 53.0597C263.191 53.0198 263.109 52.9931 263.02 52.9798C262.931 52.9643 262.846 52.9565 262.764 52.9565C262.553 52.9565 262.35 52.9865 262.154 53.0464C261.961 53.1041 261.795 53.1907 261.655 53.3062H261.615V52.6302C261.775 52.5747 261.951 52.5258 262.144 52.4836C262.34 52.4415 262.535 52.4204 262.73 52.4204C262.888 52.4204 263.048 52.437 263.21 52.4703C263.374 52.5014 263.53 52.5558 263.676 52.6335C263.814 52.709 263.929 52.8133 264.022 52.9465C264.116 53.0775 264.162 53.2385 264.162 53.4294C264.162 53.6314 264.105 53.809 263.989 53.9622C263.876 54.1132 263.725 54.2131 263.536 54.2619V54.2852C263.743 54.3563 263.911 54.465 264.042 54.6116C264.176 54.7581 264.242 54.9546 264.242 55.201ZM266.517 56.3166C265.924 56.3166 265.463 56.1501 265.135 55.8171C264.808 55.4818 264.645 55.0067 264.645 54.3918C264.645 53.7857 264.804 53.304 265.121 52.9465C265.439 52.5869 265.854 52.4071 266.367 52.4071C266.598 52.4071 266.802 52.4404 266.98 52.507C267.157 52.5736 267.313 52.6779 267.446 52.82C267.579 52.9621 267.681 53.1363 267.752 53.3428C267.823 53.547 267.859 53.7979 267.859 54.0954V54.4351H265.281C265.281 54.868 265.39 55.1988 265.608 55.4274C265.825 55.6561 266.126 55.7704 266.51 55.7704C266.648 55.7704 266.782 55.7549 266.913 55.7238C267.046 55.6927 267.166 55.6528 267.273 55.6039C267.386 55.5529 267.481 55.504 267.559 55.4574C267.637 55.4086 267.701 55.3631 267.752 55.3209H267.789V56.0035C267.715 56.0324 267.624 56.069 267.516 56.1134C267.407 56.1556 267.309 56.1889 267.223 56.2133C267.1 56.2466 266.989 56.2722 266.89 56.2899C266.792 56.3077 266.668 56.3166 266.517 56.3166ZM267.249 53.9555C267.245 53.7868 267.225 53.6414 267.189 53.5193C267.154 53.3972 267.103 53.294 267.036 53.2096C266.963 53.1164 266.868 53.0453 266.753 52.9965C266.64 52.9476 266.499 52.9232 266.33 52.9232C266.164 52.9232 266.022 52.9487 265.904 52.9998C265.788 53.0486 265.683 53.1208 265.588 53.2163C265.494 53.3139 265.423 53.4227 265.374 53.5426C265.326 53.6603 265.294 53.7979 265.281 53.9555H267.249ZM271.372 56.23H270.746V53.0364H269.467C269.46 53.2207 269.454 53.3983 269.447 53.5692C269.44 53.738 269.434 53.8912 269.427 54.0288C269.414 54.3773 269.39 54.6693 269.357 54.9046C269.326 55.1399 269.286 55.3286 269.237 55.4707C269.188 55.6172 269.134 55.7316 269.074 55.8137C269.016 55.8959 268.951 55.9702 268.878 56.0368C268.802 56.1034 268.721 56.1534 268.635 56.1867C268.548 56.22 268.45 56.2366 268.342 56.2366C268.306 56.2366 268.26 56.2355 268.205 56.2333C268.149 56.2311 268.111 56.23 268.088 56.23V55.6838H268.122C268.137 55.6838 268.153 55.685 268.168 55.6872C268.186 55.6894 268.206 55.6905 268.228 55.6905C268.282 55.6905 268.334 55.6827 268.385 55.6672C268.436 55.6517 268.481 55.6228 268.521 55.5806C268.632 55.4718 268.713 55.282 268.764 55.0112C268.815 54.7381 268.852 54.3574 268.874 53.869C268.883 53.6869 268.891 53.4716 268.898 53.2229C268.907 52.9743 268.914 52.7367 268.921 52.5103H271.372V56.23ZM275.218 56.23H274.599V53.456L272.847 56.23H272.281V52.5103H272.9V55.2409L274.632 52.5103H275.218V56.23Z" fill="#A2E2FF"/>
<path d="M302.403 66.2182H300.159V68.4621H299.422V66.2182H297.178V65.5072H299.422V63.2633H300.159V65.5072H302.403V66.2182ZM310.614 66.6136C310.614 66.9543 310.558 67.2683 310.445 67.5556C310.333 67.843 310.182 68.0829 309.992 68.2754C309.794 68.4798 309.572 68.6354 309.326 68.742C309.08 68.8457 308.809 68.8975 308.513 68.8975C308.213 68.8975 307.941 68.8472 307.695 68.7464C307.452 68.6457 307.237 68.4961 307.051 68.2977C306.823 68.0577 306.643 67.7378 306.513 67.3379C306.386 66.935 306.322 66.4403 306.322 65.8538C306.322 65.2791 306.381 64.7607 306.5 64.2986C306.618 63.8336 306.8 63.4292 307.046 63.0856C307.286 62.7509 307.596 62.4902 307.975 62.3036C308.354 62.114 308.793 62.0192 309.29 62.0192C309.438 62.0192 309.576 62.0266 309.703 62.0414C309.831 62.0562 309.943 62.0799 310.041 62.1125V62.9612H310.001C309.921 62.9167 309.806 62.8768 309.655 62.8412C309.503 62.8027 309.342 62.7834 309.17 62.7834C308.619 62.7834 308.173 62.9701 307.833 63.3433C307.495 63.7136 307.295 64.2646 307.233 64.9962C307.443 64.8481 307.66 64.7341 307.882 64.6541C308.104 64.5741 308.347 64.5341 308.61 64.5341C308.868 64.5341 309.093 64.5608 309.286 64.6141C309.481 64.6645 309.684 64.7681 309.895 64.9251C310.137 65.1088 310.318 65.3413 310.437 65.6228C310.555 65.9042 310.614 66.2345 310.614 66.6136ZM309.712 66.6492C309.712 66.3766 309.677 66.1486 309.606 65.9649C309.535 65.7812 309.419 65.6242 309.259 65.4939C309.144 65.3991 309.012 65.3369 308.864 65.3073C308.719 65.2777 308.569 65.2628 308.415 65.2628C308.208 65.2628 308.006 65.2939 307.811 65.3562C307.615 65.4184 307.423 65.5087 307.233 65.6272C307.227 65.6924 307.223 65.7561 307.22 65.8183C307.217 65.8775 307.215 65.953 307.215 66.0449C307.215 66.504 307.26 66.8743 307.348 67.1557C307.44 67.4371 307.553 67.6504 307.686 67.7956C307.814 67.9348 307.944 68.0325 308.077 68.0888C308.213 68.1451 308.36 68.1732 308.517 68.1732C308.873 68.1732 309.16 68.0459 309.379 67.7911C309.601 67.5364 309.712 67.1557 309.712 66.6492Z" fill="#12151E"/>
<path d="M255.76 100.8C255.732 100.799 255.704 100.793 255.678 100.781C255.652 100.768 255.629 100.751 255.61 100.73L253.19 98.3201C253.152 98.2794 253.131 98.2258 253.131 98.1701C253.131 98.1144 253.152 98.0608 253.19 98.0201C253.209 97.9988 253.232 97.9818 253.258 97.9701C253.284 97.9584 253.312 97.9524 253.34 97.9524C253.368 97.9524 253.396 97.9584 253.422 97.9701C253.448 97.9818 253.471 97.9988 253.49 98.0201L255.76 100.28L258 98.0001C258.04 97.9603 258.094 97.938 258.15 97.938C258.206 97.938 258.26 97.9603 258.3 98.0001C258.34 98.0399 258.362 98.0939 258.362 98.1501C258.362 98.2064 258.34 98.2603 258.3 98.3001L255.89 100.71C255.859 100.755 255.813 100.786 255.76 100.8Z" fill="#12151E"/>
<path d="M255.76 103.64C255.732 103.641 255.704 103.636 255.679 103.626C255.653 103.616 255.629 103.6 255.61 103.58L253.19 101.16C253.152 101.119 253.131 101.066 253.131 101.01C253.131 100.955 253.152 100.901 253.19 100.86C253.209 100.839 253.232 100.822 253.258 100.81C253.284 100.799 253.312 100.792 253.34 100.792C253.368 100.792 253.396 100.799 253.422 100.81C253.448 100.822 253.471 100.839 253.49 100.86L255.76 103.12L258.02 100.86C258.06 100.82 258.114 100.798 258.17 100.798C258.226 100.798 258.28 100.82 258.32 100.86C258.36 100.9 258.382 100.954 258.382 101.01C258.382 101.066 258.36 101.12 258.32 101.16L255.91 103.58C255.869 103.618 255.816 103.64 255.76 103.64Z" fill="#12151E"/>
<path d="M257.572 91.8599H256.913V87.5874L255.621 90.4945H255.221L253.939 87.5874V91.8599H253.323V86.9014H254.222L255.461 89.662L256.656 86.9014H257.572V91.8599ZM260.606 90.9441V89.9118C260.457 89.9251 260.268 89.944 260.04 89.9684C259.813 89.9906 259.63 90.0228 259.49 90.065C259.324 90.116 259.186 90.1948 259.077 90.3014C258.968 90.4057 258.914 90.5523 258.914 90.741C258.914 90.9541 258.974 91.115 259.094 91.2238C259.214 91.3326 259.389 91.387 259.62 91.387C259.818 91.387 259.996 91.3448 260.156 91.2604C260.316 91.1739 260.466 91.0684 260.606 90.9441ZM260.606 91.4636C260.555 91.5013 260.486 91.5546 260.399 91.6234C260.315 91.69 260.233 91.7433 260.153 91.7833C260.042 91.841 259.934 91.8854 259.83 91.9165C259.728 91.9476 259.583 91.9631 259.397 91.9631C259.244 91.9631 259.098 91.9342 258.961 91.8765C258.823 91.8188 258.702 91.7378 258.598 91.6334C258.498 91.5313 258.418 91.4059 258.358 91.2571C258.298 91.1062 258.268 90.9474 258.268 90.7809C258.268 90.5234 258.322 90.3047 258.431 90.1249C258.54 89.9428 258.712 89.7985 258.947 89.692C259.156 89.5965 259.402 89.531 259.687 89.4955C259.971 89.4578 260.277 89.43 260.606 89.4123V89.2924C260.606 89.1458 260.584 89.0282 260.539 88.9394C260.495 88.8484 260.433 88.7784 260.353 88.7296C260.273 88.6785 260.175 88.6452 260.06 88.6297C259.944 88.6119 259.825 88.603 259.703 88.603C259.559 88.603 259.389 88.6252 259.194 88.6696C258.998 88.7118 258.803 88.774 258.608 88.8561H258.571V88.2201C258.686 88.1868 258.852 88.1502 259.067 88.1102C259.283 88.0702 259.496 88.0503 259.707 88.0503C259.962 88.0503 260.177 88.0702 260.353 88.1102C260.528 88.1502 260.686 88.2223 260.826 88.3267C260.961 88.4288 261.062 88.5609 261.129 88.7229C261.195 88.885 261.228 89.0826 261.228 89.3157V91.8599H260.606V91.4636ZM264.575 90.8309C264.575 91.0396 264.53 91.216 264.439 91.3604C264.348 91.5047 264.231 91.619 264.089 91.7033C263.954 91.7855 263.799 91.8465 263.626 91.8865C263.453 91.9265 263.28 91.9464 263.107 91.9464C262.862 91.9464 262.632 91.922 262.414 91.8732C262.196 91.8266 261.98 91.7511 261.765 91.6467V90.9541H261.805C261.956 91.0939 262.144 91.2049 262.371 91.2871C262.599 91.367 262.827 91.407 263.053 91.407C263.151 91.407 263.255 91.397 263.366 91.377C263.48 91.3548 263.575 91.3215 263.653 91.2771C263.755 91.2149 263.827 91.1483 263.869 91.0773C263.914 91.0063 263.936 90.9086 263.936 90.7842C263.936 90.651 263.91 90.5445 263.859 90.4646C263.81 90.3824 263.743 90.3214 263.656 90.2814C263.57 90.2414 263.472 90.217 263.363 90.2081C263.256 90.197 263.143 90.1915 263.023 90.1915H262.584V89.652H262.92C263.004 89.652 263.11 89.6498 263.236 89.6454C263.363 89.6387 263.464 89.6209 263.54 89.5921C263.635 89.5566 263.712 89.5066 263.769 89.4422C263.827 89.3756 263.856 89.2646 263.856 89.1092C263.856 89.0004 263.831 88.9127 263.783 88.8461C263.734 88.7795 263.673 88.7274 263.599 88.6896C263.524 88.6497 263.442 88.623 263.353 88.6097C263.264 88.5942 263.179 88.5864 263.097 88.5864C262.886 88.5864 262.683 88.6164 262.487 88.6763C262.294 88.734 262.128 88.8206 261.988 88.9361H261.948V88.26C262.108 88.2045 262.284 88.1557 262.477 88.1135C262.673 88.0713 262.868 88.0503 263.063 88.0503C263.221 88.0503 263.381 88.0669 263.543 88.1002C263.707 88.1313 263.863 88.1857 264.009 88.2634C264.147 88.3389 264.262 88.4432 264.355 88.5764C264.449 88.7074 264.495 88.8683 264.495 89.0593C264.495 89.2613 264.438 89.4389 264.322 89.5921C264.209 89.743 264.058 89.8429 263.869 89.8918V89.9151C264.076 89.9861 264.244 90.0949 264.375 90.2414C264.509 90.388 264.575 90.5844 264.575 90.8309ZM268.158 88.1402L266.157 93.2319H265.488L266.154 91.68L264.802 88.1402H265.478L266.493 90.8941L267.506 88.1402H268.158ZM271.349 88.6896H270.083V91.8599H269.457V88.6896H268.192V88.1402H271.349V88.6896ZM274.575 90.7077C274.575 90.8875 274.539 91.0507 274.466 91.1972C274.394 91.3437 274.297 91.4625 274.172 91.5535C274.026 91.6645 273.869 91.7433 273.703 91.7899C273.536 91.8366 273.322 91.8599 273.06 91.8599H271.815V88.1402H272.441V89.5887H273.077C273.357 89.5887 273.573 89.6032 273.726 89.632C273.882 89.6609 274.036 89.7319 274.189 89.8452C274.318 89.9406 274.414 90.0627 274.479 90.2115C274.543 90.3602 274.575 90.5256 274.575 90.7077ZM273.929 90.7176C273.929 90.6044 273.909 90.5056 273.869 90.4213C273.832 90.3347 273.768 90.2648 273.68 90.2115C273.586 90.156 273.48 90.1227 273.36 90.1116C273.242 90.1005 273.072 90.0949 272.85 90.0949H272.441V91.3604H272.837C273.059 91.3604 273.231 91.3515 273.353 91.3337C273.475 91.3137 273.581 91.2771 273.67 91.2238C273.761 91.1661 273.826 91.0984 273.866 91.0207C273.908 90.9408 273.929 90.8397 273.929 90.7176ZM275.634 91.8599H275.008V88.1402H275.634V91.8599Z" fill="#A2E2FF"/>
<path d="M294.986 101.887H292.48V101.083H294.986V101.887ZM302.828 101.07C302.828 102.257 302.655 103.13 302.309 103.687C301.965 104.241 301.433 104.518 300.713 104.518C299.985 104.518 299.45 104.235 299.109 103.669C298.769 103.103 298.598 102.24 298.598 101.078C298.598 99.8847 298.77 99.0123 299.114 98.4613C299.46 97.9074 299.994 97.6304 300.713 97.6304C301.442 97.6304 301.977 97.9163 302.317 98.488C302.658 99.0597 302.828 99.9202 302.828 101.07ZM301.691 103.087C301.777 102.868 301.838 102.591 301.873 102.256C301.909 101.921 301.926 101.526 301.926 101.07C301.926 100.616 301.909 100.222 301.873 99.8876C301.838 99.5529 301.775 99.2745 301.687 99.0523C301.598 98.8272 301.475 98.6568 301.318 98.5413C301.164 98.4228 300.962 98.3636 300.713 98.3636C300.468 98.3636 300.265 98.4228 300.105 98.5413C299.948 98.6568 299.823 98.8301 299.731 99.0612C299.643 99.2863 299.582 99.5707 299.549 99.9143C299.517 100.258 299.5 100.646 299.5 101.078C299.5 101.541 299.514 101.927 299.54 102.238C299.57 102.549 299.632 102.828 299.727 103.074C299.813 103.302 299.934 103.478 300.091 103.602C300.251 103.724 300.459 103.784 300.713 103.784C300.959 103.784 301.161 103.727 301.318 103.611C301.478 103.493 301.602 103.318 301.691 103.087ZM305.103 104.38H304.042V103.114H305.103V104.38ZM310.693 102.105H309.907V104.38H309.054V102.105H306.13V101.172L309.089 97.7637H309.907V101.394H310.693V102.105ZM309.054 101.394V98.8079L306.823 101.394H309.054Z" fill="#12151E"/>
<path d="M312.18 74.6598H252.66L246.66 68.6598V52.2598L252.66 46.2598H312.18L318.18 52.2598V68.6598L312.18 74.6598Z" stroke="#606580" stroke-width="0.5" stroke-miterlimit="10"/>
<path d="M312.18 110.32H252.66L246.66 104.32V87.9199L252.66 81.9199H312.18L318.18 87.9199V104.32L312.18 110.32Z" stroke="#606580" stroke-width="0.5" stroke-miterlimit="10"/>
<defs>
<linearGradient id="paint0_linear" x1="40.44" y1="46.2598" x2="40.44" y2="74.6598" gradientUnits="userSpaceOnUse">
<stop stop-color="#3FA9F5"/>
<stop offset="1" stop-color="#3FA9F5" stop-opacity="0"/>
</linearGradient>
</defs>
</svg>
