<svg width="324" height="117" viewBox="0 0 324 117" fill="none" xmlns="http://www.w3.org/2000/svg">
<path d="M319 6H5V31H319V6Z" fill="white" fill-opacity="0.5"/>
<path d="M318.5 6.5H5.5V30.5H318.5V6.5Z" stroke="#D7E2F2"/>
<path d="M128.5 34V57" stroke="#D7E2F2"/>
<path d="M188.5 34V57" stroke="#D7E2F2"/>
<path d="M248.5 34V57" stroke="#D7E2F2"/>
<path d="M310.5 34.5H19.5V56.5H310.5V34.5Z" stroke="#D7E2F2"/>
<path fill-rule="evenodd" clip-rule="evenodd" d="M20.6108 56.4628V34.5361H72.0065V36.9128V53.9328V56.4628H20.6108Z" fill="url(#paint0_linear)"/>
<path d="M33.8633 47.1055C33.4831 47.1055 33.1328 47.0417 32.8125 46.9141C32.4948 46.7865 32.2201 46.5964 31.9883 46.3438C31.7565 46.0911 31.5768 45.776 31.4492 45.3984C31.3216 45.0208 31.2578 44.5872 31.2578 44.0977C31.2578 43.6107 31.319 43.1862 31.4414 42.8242C31.5664 42.4622 31.7474 42.1471 31.9844 41.8789C32.2161 41.6185 32.4909 41.4206 32.8086 41.2852C33.1263 41.1471 33.4818 41.0781 33.875 41.0781C34.0703 41.0781 34.2526 41.0924 34.4219 41.1211C34.5938 41.1497 34.7526 41.1862 34.8984 41.2305C35.0234 41.2695 35.151 41.319 35.2812 41.3789C35.4141 41.4362 35.5443 41.5 35.6719 41.5703V42.5039H35.6094C35.5417 42.4414 35.4544 42.3659 35.3477 42.2773C35.2409 42.1888 35.1107 42.1016 34.957 42.0156C34.8086 41.9349 34.6471 41.8685 34.4727 41.8164C34.2982 41.7643 34.0964 41.7383 33.8672 41.7383C33.6198 41.7383 33.3854 41.7891 33.1641 41.8906C32.9427 41.9922 32.7487 42.1419 32.582 42.3398C32.418 42.5378 32.2904 42.7865 32.1992 43.0859C32.1081 43.3854 32.0625 43.7227 32.0625 44.0977C32.0625 44.4961 32.1107 44.8398 32.207 45.1289C32.3034 45.4154 32.4349 45.6576 32.6016 45.8555C32.763 46.0482 32.9531 46.194 33.1719 46.293C33.3906 46.3893 33.6224 46.4375 33.8672 46.4375C34.0911 46.4375 34.2982 46.4102 34.4883 46.3555C34.6784 46.3008 34.8477 46.2318 34.9961 46.1484C35.1393 46.0677 35.263 45.9857 35.3672 45.9023C35.4714 45.8164 35.5534 45.7435 35.6133 45.6836H35.6719V46.6055C35.5443 46.6654 35.4232 46.7227 35.3086 46.7773C35.1966 46.832 35.0599 46.8854 34.8984 46.9375C34.7292 46.9922 34.5716 47.0339 34.4258 47.0625C34.2826 47.0911 34.0951 47.1055 33.8633 47.1055ZM39.7656 42.6367L37.418 48.6094H36.6328L37.4141 46.7891L35.8281 42.6367H36.6211L37.8125 45.8672L39 42.6367H39.7656ZM43.7109 47H42.8086L41.75 45.3516L40.6602 47H39.8281L41.3438 44.8359L39.8438 42.6367H40.7461L41.7969 44.2695L42.875 42.6367H43.7109L42.2031 44.7852L43.7109 47ZM47.8711 44.8203C47.8711 45.5547 47.694 46.1224 47.3398 46.5234C46.9857 46.9219 46.5143 47.1211 45.9258 47.1211C45.319 47.1211 44.8411 46.9154 44.4922 46.5039C44.1458 46.0898 43.9727 45.5286 43.9727 44.8203C43.9727 44.0911 44.151 43.5247 44.5078 43.1211C44.8672 42.7174 45.3398 42.5156 45.9258 42.5156C46.5143 42.5156 46.9857 42.7174 47.3398 43.1211C47.694 43.5221 47.8711 44.0885 47.8711 44.8203ZM47.1133 44.8203C47.1133 44.2552 47.0104 43.8359 46.8047 43.5625C46.599 43.2865 46.306 43.1484 45.9258 43.1484C45.543 43.1484 45.2474 43.2865 45.0391 43.5625C44.8333 43.8359 44.7305 44.2552 44.7305 44.8203C44.7305 45.3672 44.8333 45.7826 45.0391 46.0664C45.2474 46.3477 45.543 46.4883 45.9258 46.4883C46.3034 46.4883 46.5951 46.3503 46.8008 46.0742C47.0091 45.7956 47.1133 45.3776 47.1133 44.8203ZM52.0703 47H51.3438V43.7461L49.2891 47H48.625V42.6367H49.3516V45.8398L51.3828 42.6367H52.0703V47ZM51.7422 40.6094C51.7422 40.8333 51.7148 41.0378 51.6602 41.2227C51.6055 41.4049 51.5273 41.5586 51.4258 41.6836C51.3086 41.8216 51.1758 41.9258 51.0273 41.9961C50.8789 42.0638 50.6888 42.0977 50.457 42.0977C50.2435 42.0977 50.056 42.0625 49.8945 41.9922C49.7357 41.9193 49.6016 41.8164 49.4922 41.6836C49.3854 41.5534 49.3047 41.3971 49.25 41.2148C49.1953 41.0326 49.168 40.8307 49.168 40.6094H49.8008C49.8008 40.9609 49.8555 41.2148 49.9648 41.3711C50.0742 41.5247 50.2383 41.6016 50.457 41.6016C50.6628 41.6016 50.8229 41.526 50.9375 41.375C51.0521 41.2214 51.1094 40.9661 51.1094 40.6094H51.7422ZM58.4062 43.2812H56.3672V47H55.6328V42.6367H58.4062V43.2812ZM61.3906 45.9258V44.7148C61.2161 44.7305 60.9948 44.7526 60.7266 44.7812C60.4609 44.8073 60.2461 44.8451 60.082 44.8945C59.8867 44.9544 59.7253 45.0469 59.5977 45.1719C59.4701 45.2943 59.4062 45.4661 59.4062 45.6875C59.4062 45.9375 59.4766 46.1263 59.6172 46.2539C59.7578 46.3815 59.9635 46.4453 60.2344 46.4453C60.4661 46.4453 60.6758 46.3958 60.8633 46.2969C61.0508 46.1953 61.2266 46.0716 61.3906 45.9258ZM61.3906 46.5352C61.3307 46.5794 61.25 46.6419 61.1484 46.7227C61.0495 46.8008 60.9531 46.8633 60.8594 46.9102C60.7292 46.9779 60.6029 47.0299 60.4805 47.0664C60.3607 47.1029 60.1914 47.1211 59.9727 47.1211C59.793 47.1211 59.6224 47.0872 59.4609 47.0195C59.2995 46.9518 59.1576 46.8568 59.0352 46.7344C58.918 46.6146 58.8242 46.4674 58.7539 46.293C58.6836 46.1159 58.6484 45.9297 58.6484 45.7344C58.6484 45.4323 58.7122 45.1758 58.8398 44.9648C58.9674 44.7513 59.1693 44.582 59.4453 44.457C59.6901 44.3451 59.9792 44.2682 60.3125 44.2266C60.6458 44.1823 61.0052 44.1497 61.3906 44.1289V43.9883C61.3906 43.8164 61.3646 43.6784 61.3125 43.5742C61.2604 43.4674 61.1875 43.3854 61.0938 43.3281C61 43.2682 60.8854 43.2292 60.75 43.2109C60.6146 43.1901 60.4753 43.1797 60.332 43.1797C60.1628 43.1797 59.9635 43.2057 59.7344 43.2578C59.5052 43.3073 59.276 43.3802 59.0469 43.4766H59.0039V42.7305C59.1393 42.6914 59.3333 42.6484 59.5859 42.6016C59.8385 42.5547 60.0885 42.5312 60.3359 42.5312C60.6354 42.5312 60.888 42.5547 61.0938 42.6016C61.2995 42.6484 61.4844 42.7331 61.6484 42.8555C61.8073 42.9753 61.9258 43.1302 62.0039 43.3203C62.082 43.5104 62.1211 43.7422 62.1211 44.0156V47H61.3906V46.5352ZM66.0469 45.793C66.0469 46.0378 65.9935 46.2448 65.8867 46.4141C65.7799 46.5833 65.6432 46.7174 65.4766 46.8164C65.3177 46.9128 65.1367 46.9844 64.9336 47.0312C64.7305 47.0781 64.5273 47.1016 64.3242 47.1016C64.0378 47.1016 63.7669 47.0729 63.5117 47.0156C63.2565 46.9609 63.0026 46.8724 62.75 46.75V45.9375H62.7969C62.974 46.1016 63.1953 46.2318 63.4609 46.3281C63.7292 46.4219 63.9961 46.4688 64.2617 46.4688C64.3763 46.4688 64.4987 46.457 64.6289 46.4336C64.7617 46.4076 64.8737 46.3685 64.9648 46.3164C65.0846 46.2435 65.1693 46.1654 65.2188 46.082C65.2708 45.9987 65.2969 45.8841 65.2969 45.7383C65.2969 45.582 65.2669 45.457 65.207 45.3633C65.1497 45.2669 65.0703 45.1953 64.9688 45.1484C64.8672 45.1016 64.7526 45.0729 64.625 45.0625C64.5 45.0495 64.3672 45.043 64.2266 45.043H63.7109V44.4102H64.1055C64.2044 44.4102 64.3281 44.4076 64.4766 44.4023C64.625 44.3945 64.7435 44.3737 64.832 44.3398C64.944 44.2982 65.0339 44.2396 65.1016 44.1641C65.1693 44.0859 65.2031 43.9557 65.2031 43.7734C65.2031 43.6458 65.1745 43.543 65.1172 43.4648C65.0599 43.3867 64.9883 43.3255 64.9023 43.2812C64.8138 43.2344 64.7174 43.2031 64.6133 43.1875C64.5091 43.1693 64.4089 43.1602 64.3125 43.1602C64.0651 43.1602 63.8268 43.1953 63.5977 43.2656C63.3711 43.3333 63.1758 43.4349 63.0117 43.5703H62.9648V42.7773C63.1523 42.7122 63.3594 42.6549 63.5859 42.6055C63.8151 42.556 64.0443 42.5312 64.2734 42.5312C64.4583 42.5312 64.6458 42.5508 64.8359 42.5898C65.0286 42.6263 65.2109 42.6901 65.3828 42.7812C65.5443 42.8698 65.6797 42.9922 65.7891 43.1484C65.8984 43.3021 65.9531 43.4909 65.9531 43.7148C65.9531 43.9518 65.8854 44.1602 65.75 44.3398C65.6172 44.5169 65.4401 44.6341 65.2188 44.6914V44.7188C65.4609 44.8021 65.6589 44.9297 65.8125 45.1016C65.9688 45.2734 66.0469 45.5039 66.0469 45.793Z" fill="#606580"/>
<path d="M273.306 44.456C273.306 45.5003 273.154 46.2672 272.849 46.7568C272.547 47.2438 272.079 47.4873 271.447 47.4873C270.806 47.4873 270.336 47.2386 270.036 46.7412C269.737 46.2438 269.587 45.4847 269.587 44.4639C269.587 43.4144 269.738 42.6474 270.04 42.1631C270.345 41.6761 270.814 41.4326 271.447 41.4326C272.087 41.4326 272.557 41.6839 272.857 42.1865C273.156 42.6891 273.306 43.4456 273.306 44.456ZM272.306 46.2295C272.381 46.0368 272.435 45.7933 272.466 45.499C272.497 45.2047 272.513 44.8571 272.513 44.456C272.513 44.0576 272.497 43.7113 272.466 43.417C272.435 43.1227 272.38 42.8779 272.302 42.6826C272.224 42.4847 272.116 42.3349 271.978 42.2334C271.842 42.1292 271.665 42.0771 271.447 42.0771C271.23 42.0771 271.052 42.1292 270.911 42.2334C270.773 42.3349 270.664 42.4873 270.583 42.6904C270.505 42.8883 270.452 43.1383 270.423 43.4404C270.395 43.7425 270.38 44.0836 270.38 44.4639C270.38 44.8701 270.392 45.2099 270.415 45.4834C270.441 45.7568 270.496 46.0016 270.579 46.2178C270.655 46.4183 270.762 46.5732 270.9 46.6826C271.04 46.7894 271.223 46.8428 271.447 46.8428C271.663 46.8428 271.84 46.792 271.978 46.6904C272.118 46.5863 272.228 46.4326 272.306 46.2295ZM276.783 43.1631C276.783 43.749 276.664 44.1839 276.427 44.4678C276.193 44.749 275.853 44.8896 275.408 44.8896C274.954 44.8896 274.611 44.7464 274.376 44.4599C274.145 44.1735 274.029 43.7425 274.029 43.167C274.029 42.5836 274.147 42.1501 274.384 41.8662C274.621 41.5823 274.962 41.4404 275.408 41.4404C275.861 41.4404 276.203 41.5836 276.435 41.8701C276.667 42.1566 276.783 42.5876 276.783 43.1631ZM279.384 41.5498L276.337 47.3662H275.693L278.74 41.5498H279.384ZM281.04 45.7529C281.04 46.3389 280.922 46.7738 280.685 47.0576C280.45 47.3389 280.111 47.4795 279.665 47.4795C279.212 47.4795 278.868 47.3363 278.634 47.0498C278.402 46.7633 278.286 46.3323 278.286 45.7568C278.286 45.1735 278.405 44.7399 278.642 44.456C278.879 44.1722 279.22 44.0303 279.665 44.0303C280.118 44.0303 280.461 44.1735 280.693 44.4599C280.924 44.7464 281.04 45.1774 281.04 45.7529ZM276.087 43.1631C276.087 42.7672 276.04 42.4678 275.947 42.2646C275.855 42.0615 275.676 41.9599 275.408 41.9599C275.139 41.9599 274.958 42.0628 274.865 42.2685C274.771 42.4743 274.724 42.7738 274.724 43.167C274.724 43.5576 274.768 43.8558 274.857 44.0615C274.945 44.2672 275.129 44.3701 275.408 44.3701C275.676 44.3701 275.855 44.2672 275.947 44.0615C276.04 43.8558 276.087 43.5563 276.087 43.1631ZM280.345 45.7529C280.345 45.3571 280.298 45.0576 280.204 44.8545C280.113 44.6514 279.934 44.5498 279.665 44.5498C279.397 44.5498 279.216 44.6527 279.122 44.8584C279.029 45.0641 278.982 45.3636 278.982 45.7568C278.982 46.1474 279.026 46.4456 279.115 46.6514C279.203 46.8571 279.387 46.9599 279.665 46.9599C279.934 46.9599 280.113 46.8571 280.204 46.6514C280.298 46.4456 280.345 46.1461 280.345 45.7529Z" fill="#606580"/>
<path d="M20.6108 34H18.8918V57H20.6108V34Z" fill="#8C99B2"/>
<path d="M149.848 49H146.258V48.1836C146.516 47.9388 146.759 47.7044 146.988 47.4805C147.217 47.2565 147.441 47.0234 147.66 46.7812C148.103 46.2943 148.405 45.9049 148.566 45.6133C148.728 45.319 148.809 45.0156 148.809 44.7031C148.809 44.5417 148.783 44.3997 148.73 44.2773C148.681 44.1549 148.612 44.0534 148.523 43.9727C148.432 43.8945 148.327 43.8359 148.207 43.7969C148.087 43.7578 147.956 43.7383 147.812 43.7383C147.674 43.7383 147.534 43.7565 147.391 43.793C147.25 43.8268 147.115 43.8698 146.984 43.9219C146.875 43.9661 146.77 44.0195 146.668 44.082C146.566 44.1445 146.484 44.1979 146.422 44.2422H146.379V43.4141C146.54 43.3333 146.764 43.2552 147.051 43.1797C147.34 43.1016 147.613 43.0625 147.871 43.0625C148.413 43.0625 148.837 43.207 149.145 43.4961C149.452 43.7826 149.605 44.1719 149.605 44.6641C149.605 44.8906 149.578 45.1003 149.523 45.293C149.471 45.4857 149.398 45.6641 149.305 45.8281C149.208 45.9974 149.092 46.1654 148.957 46.332C148.822 46.4987 148.678 46.6628 148.527 46.8242C148.283 47.0898 148.009 47.3659 147.707 47.6523C147.408 47.9388 147.168 48.1654 146.988 48.332H149.848V49ZM153.367 44.5391C153.367 44.2786 153.28 44.0612 153.105 43.8867C152.931 43.7122 152.689 43.625 152.379 43.625C152.095 43.625 151.862 43.7031 151.68 43.8594C151.5 44.0156 151.41 44.2266 151.41 44.4922C151.41 44.6849 151.456 44.8477 151.547 44.9805C151.641 45.1133 151.78 45.2331 151.965 45.3398C152.046 45.3841 152.168 45.4453 152.332 45.5234C152.499 45.6016 152.65 45.6628 152.785 45.707C153.012 45.5326 153.165 45.3542 153.246 45.1719C153.327 44.987 153.367 44.776 153.367 44.5391ZM153.477 47.4531C153.477 47.2135 153.43 47.0234 153.336 46.8828C153.242 46.7422 153.061 46.599 152.793 46.4531C152.704 46.4036 152.586 46.3503 152.438 46.293C152.292 46.2357 152.126 46.168 151.941 46.0898C151.725 46.2331 151.56 46.4102 151.445 46.6211C151.331 46.8294 151.273 47.0677 151.273 47.3359C151.273 47.6875 151.379 47.9779 151.59 48.207C151.803 48.4362 152.07 48.5508 152.391 48.5508C152.719 48.5508 152.982 48.4531 153.18 48.2578C153.378 48.0599 153.477 47.7917 153.477 47.4531ZM152.383 49.1328C152.094 49.1328 151.831 49.0898 151.594 49.0039C151.357 48.918 151.155 48.7943 150.988 48.6328C150.824 48.4766 150.699 48.2917 150.613 48.0781C150.53 47.862 150.488 47.6341 150.488 47.3945C150.488 47.0794 150.572 46.7904 150.738 46.5273C150.908 46.2617 151.152 46.0508 151.473 45.8945V45.8711C151.186 45.7044 150.974 45.5221 150.836 45.3242C150.698 45.1263 150.629 44.8789 150.629 44.582C150.629 44.1445 150.794 43.7799 151.125 43.4883C151.456 43.1966 151.875 43.0508 152.383 43.0508C152.911 43.0508 153.335 43.1901 153.652 43.4688C153.973 43.7448 154.133 44.099 154.133 44.5312C154.133 44.7917 154.056 45.0495 153.902 45.3047C153.751 45.5599 153.533 45.7591 153.246 45.9023V45.9258C153.585 46.0846 153.841 46.2773 154.016 46.5039C154.19 46.7305 154.277 47.0221 154.277 47.3789C154.277 47.8763 154.096 48.293 153.734 48.6289C153.375 48.9648 152.924 49.1328 152.383 49.1328ZM160.785 49H157.949V48.4062H159.004V44.5078H157.949V43.9766C158.348 43.9766 158.641 43.9206 158.828 43.8086C159.018 43.694 159.125 43.4792 159.148 43.1641H159.754V48.4062H160.785V49ZM165.152 49H162.316V48.4062H163.371V44.5078H162.316V43.9766C162.715 43.9766 163.008 43.9206 163.195 43.8086C163.385 43.694 163.492 43.4792 163.516 43.1641H164.121V48.4062H165.152V49ZM169.051 45.5742C169.051 45.1784 169.014 44.8568 168.941 44.6094C168.868 44.3594 168.768 44.1667 168.641 44.0312C168.526 43.9062 168.41 43.8203 168.293 43.7734C168.176 43.7266 168.047 43.7031 167.906 43.7031C167.586 43.7031 167.331 43.8177 167.141 44.0469C166.951 44.276 166.855 44.6081 166.855 45.043C166.855 45.2878 166.887 45.4896 166.949 45.6484C167.012 45.8073 167.113 45.944 167.254 46.0586C167.353 46.1393 167.465 46.194 167.59 46.2227C167.715 46.2487 167.849 46.2617 167.992 46.2617C168.159 46.2617 168.339 46.2331 168.531 46.1758C168.724 46.1159 168.892 46.0378 169.035 45.9414C169.038 45.9023 169.04 45.8516 169.043 45.7891C169.048 45.724 169.051 45.6523 169.051 45.5742ZM166.062 45.0742C166.062 44.7747 166.111 44.5013 166.207 44.2539C166.306 44.0065 166.44 43.793 166.609 43.6133C166.771 43.4414 166.967 43.3073 167.199 43.2109C167.434 43.1146 167.671 43.0664 167.91 43.0664C168.178 43.0664 168.421 43.112 168.637 43.2031C168.855 43.2917 169.044 43.4206 169.203 43.5898C169.404 43.8034 169.559 44.0833 169.668 44.4297C169.78 44.776 169.836 45.2135 169.836 45.7422C169.836 46.224 169.781 46.681 169.672 47.1133C169.565 47.543 169.406 47.8997 169.195 48.1836C168.971 48.4857 168.702 48.7161 168.387 48.875C168.074 49.0339 167.688 49.1133 167.227 49.1133C167.122 49.1133 167.012 49.1068 166.895 49.0938C166.777 49.0833 166.668 49.0625 166.566 49.0312V48.2852H166.605C166.671 48.3216 166.772 48.3568 166.91 48.3906C167.048 48.4245 167.189 48.4414 167.332 48.4414C167.842 48.4414 168.243 48.2734 168.535 47.9375C168.827 47.6016 168.992 47.1211 169.031 46.4961C168.823 46.6367 168.624 46.7396 168.434 46.8047C168.246 46.8698 168.042 46.9023 167.82 46.9023C167.604 46.9023 167.408 46.8789 167.23 46.832C167.053 46.7852 166.875 46.694 166.695 46.5586C166.487 46.3997 166.329 46.1992 166.223 45.957C166.116 45.7122 166.062 45.418 166.062 45.0742Z" fill="#606580"/>
<path d="M209.848 49H206.258V48.1836C206.516 47.9388 206.759 47.7044 206.988 47.4805C207.217 47.2565 207.441 47.0234 207.66 46.7812C208.103 46.2943 208.405 45.9049 208.566 45.6133C208.728 45.319 208.809 45.0156 208.809 44.7031C208.809 44.5417 208.783 44.3997 208.73 44.2773C208.681 44.1549 208.612 44.0534 208.523 43.9727C208.432 43.8945 208.327 43.8359 208.207 43.7969C208.087 43.7578 207.956 43.7383 207.812 43.7383C207.674 43.7383 207.534 43.7565 207.391 43.793C207.25 43.8268 207.115 43.8698 206.984 43.9219C206.875 43.9661 206.77 44.0195 206.668 44.082C206.566 44.1445 206.484 44.1979 206.422 44.2422H206.379V43.4141C206.54 43.3333 206.764 43.2552 207.051 43.1797C207.34 43.1016 207.613 43.0625 207.871 43.0625C208.413 43.0625 208.837 43.207 209.145 43.4961C209.452 43.7826 209.605 44.1719 209.605 44.6641C209.605 44.8906 209.578 45.1003 209.523 45.293C209.471 45.4857 209.398 45.6641 209.305 45.8281C209.208 45.9974 209.092 46.1654 208.957 46.332C208.822 46.4987 208.678 46.6628 208.527 46.8242C208.283 47.0898 208.009 47.3659 207.707 47.6523C207.408 47.9388 207.168 48.1654 206.988 48.332H209.848V49ZM213.367 44.5391C213.367 44.2786 213.28 44.0612 213.105 43.8867C212.931 43.7122 212.689 43.625 212.379 43.625C212.095 43.625 211.862 43.7031 211.68 43.8594C211.5 44.0156 211.41 44.2266 211.41 44.4922C211.41 44.6849 211.456 44.8477 211.547 44.9805C211.641 45.1133 211.78 45.2331 211.965 45.3398C212.046 45.3841 212.168 45.4453 212.332 45.5234C212.499 45.6016 212.65 45.6628 212.785 45.707C213.012 45.5326 213.165 45.3542 213.246 45.1719C213.327 44.987 213.367 44.776 213.367 44.5391ZM213.477 47.4531C213.477 47.2135 213.43 47.0234 213.336 46.8828C213.242 46.7422 213.061 46.599 212.793 46.4531C212.704 46.4036 212.586 46.3503 212.438 46.293C212.292 46.2357 212.126 46.168 211.941 46.0898C211.725 46.2331 211.56 46.4102 211.445 46.6211C211.331 46.8294 211.273 47.0677 211.273 47.3359C211.273 47.6875 211.379 47.9779 211.59 48.207C211.803 48.4362 212.07 48.5508 212.391 48.5508C212.719 48.5508 212.982 48.4531 213.18 48.2578C213.378 48.0599 213.477 47.7917 213.477 47.4531ZM212.383 49.1328C212.094 49.1328 211.831 49.0898 211.594 49.0039C211.357 48.918 211.155 48.7943 210.988 48.6328C210.824 48.4766 210.699 48.2917 210.613 48.0781C210.53 47.862 210.488 47.6341 210.488 47.3945C210.488 47.0794 210.572 46.7904 210.738 46.5273C210.908 46.2617 211.152 46.0508 211.473 45.8945V45.8711C211.186 45.7044 210.974 45.5221 210.836 45.3242C210.698 45.1263 210.629 44.8789 210.629 44.582C210.629 44.1445 210.794 43.7799 211.125 43.4883C211.456 43.1966 211.875 43.0508 212.383 43.0508C212.911 43.0508 213.335 43.1901 213.652 43.4688C213.973 43.7448 214.133 44.099 214.133 44.5312C214.133 44.7917 214.056 45.0495 213.902 45.3047C213.751 45.5599 213.533 45.7591 213.246 45.9023V45.9258C213.585 46.0846 213.841 46.2773 214.016 46.5039C214.19 46.7305 214.277 47.0221 214.277 47.3789C214.277 47.8763 214.096 48.293 213.734 48.6289C213.375 48.9648 212.924 49.1328 212.383 49.1328ZM220.785 49H217.949V48.4062H219.004V44.5078H217.949V43.9766C218.348 43.9766 218.641 43.9206 218.828 43.8086C219.018 43.694 219.125 43.4792 219.148 43.1641H219.754V48.4062H220.785V49ZM225.152 49H222.316V48.4062H223.371V44.5078H222.316V43.9766C222.715 43.9766 223.008 43.9206 223.195 43.8086C223.385 43.694 223.492 43.4792 223.516 43.1641H224.121V48.4062H225.152V49ZM229.051 45.5742C229.051 45.1784 229.014 44.8568 228.941 44.6094C228.868 44.3594 228.768 44.1667 228.641 44.0312C228.526 43.9062 228.41 43.8203 228.293 43.7734C228.176 43.7266 228.047 43.7031 227.906 43.7031C227.586 43.7031 227.331 43.8177 227.141 44.0469C226.951 44.276 226.855 44.6081 226.855 45.043C226.855 45.2878 226.887 45.4896 226.949 45.6484C227.012 45.8073 227.113 45.944 227.254 46.0586C227.353 46.1393 227.465 46.194 227.59 46.2227C227.715 46.2487 227.849 46.2617 227.992 46.2617C228.159 46.2617 228.339 46.2331 228.531 46.1758C228.724 46.1159 228.892 46.0378 229.035 45.9414C229.038 45.9023 229.04 45.8516 229.043 45.7891C229.048 45.724 229.051 45.6523 229.051 45.5742ZM226.062 45.0742C226.062 44.7747 226.111 44.5013 226.207 44.2539C226.306 44.0065 226.44 43.793 226.609 43.6133C226.771 43.4414 226.967 43.3073 227.199 43.2109C227.434 43.1146 227.671 43.0664 227.91 43.0664C228.178 43.0664 228.421 43.112 228.637 43.2031C228.855 43.2917 229.044 43.4206 229.203 43.5898C229.404 43.8034 229.559 44.0833 229.668 44.4297C229.78 44.776 229.836 45.2135 229.836 45.7422C229.836 46.224 229.781 46.681 229.672 47.1133C229.565 47.543 229.406 47.8997 229.195 48.1836C228.971 48.4857 228.702 48.7161 228.387 48.875C228.074 49.0339 227.688 49.1133 227.227 49.1133C227.122 49.1133 227.012 49.1068 226.895 49.0938C226.777 49.0833 226.668 49.0625 226.566 49.0312V48.2852H226.605C226.671 48.3216 226.772 48.3568 226.91 48.3906C227.048 48.4245 227.189 48.4414 227.332 48.4414C227.842 48.4414 228.243 48.2734 228.535 47.9375C228.827 47.6016 228.992 47.1211 229.031 46.4961C228.823 46.6367 228.624 46.7396 228.434 46.8047C228.246 46.8698 228.042 46.9023 227.82 46.9023C227.604 46.9023 227.408 46.8789 227.23 46.832C227.053 46.7852 226.875 46.694 226.695 46.5586C226.487 46.3997 226.329 46.1992 226.223 45.957C226.116 45.7122 226.062 45.418 226.062 45.0742Z" fill="#606580"/>
<path d="M129.5 62V84" stroke="#D7E2F2"/>
<path d="M188.5 62V84" stroke="#D7E2F2"/>
<path d="M248.5 62V84" stroke="#D7E2F2"/>
<path d="M310.5 62.5H19.5V83.5H310.5V62.5Z" stroke="#D7E2F2"/>
<path fill-rule="evenodd" clip-rule="evenodd" d="M20.6108 83.487V62.5137H72.0065V64.787V81.067V83.487H20.6108Z" fill="url(#paint1_linear)"/>
<path d="M35.8125 73H35.0391V67.8711H32.3633V73H31.5898V67.1836H35.8125V73ZM41.2188 73H40.4453V67.8711H37.7695V73H36.9961V67.1836H41.2188V73ZM47.543 70.0312C47.543 70.3932 47.4883 70.7135 47.3789 70.9922C47.2695 71.2682 47.1172 71.5013 46.9219 71.6914C46.7109 71.8997 46.4518 72.0612 46.1445 72.1758C45.8372 72.2878 45.5195 72.3477 45.1914 72.3555V73.0625H44.4219V72.3555C44.0964 72.3451 43.7799 72.2865 43.4727 72.1797C43.1654 72.0729 42.9036 71.9128 42.6875 71.6992C42.4922 71.5091 42.3398 71.2734 42.2305 70.9922C42.1237 70.7109 42.0703 70.3906 42.0703 70.0312C42.0703 69.6927 42.1224 69.3893 42.2266 69.1211C42.3307 68.8503 42.4766 68.6172 42.6641 68.4219C42.8646 68.2135 43.1159 68.0495 43.418 67.9297C43.7201 67.8099 44.0547 67.7448 44.4219 67.7344V67.0898H45.1914V67.7344C45.5586 67.7422 45.8945 67.8073 46.1992 67.9297C46.5039 68.0495 46.7565 68.2122 46.957 68.418C47.1445 68.6107 47.2891 68.8411 47.3906 69.1094C47.4922 69.3776 47.543 69.6849 47.543 70.0312ZM46.7383 70C46.7383 69.7422 46.7018 69.5078 46.6289 69.2969C46.556 69.0833 46.4479 68.9023 46.3047 68.7539C46.1693 68.6133 46.0117 68.5091 45.832 68.4414C45.6523 68.3737 45.4388 68.3372 45.1914 68.332V71.7695C45.4258 71.7643 45.6341 71.7266 45.8164 71.6562C46.0013 71.5833 46.1536 71.487 46.2734 71.3672C46.4323 71.2109 46.5495 71.0208 46.625 70.7969C46.7005 70.5729 46.7383 70.3073 46.7383 70ZM44.4219 71.7695V68.332C44.1745 68.3346 43.9609 68.3711 43.7812 68.4414C43.6016 68.5117 43.444 68.6159 43.3086 68.7539C43.1654 68.8997 43.0573 69.0807 42.9844 69.2969C42.9115 69.513 42.875 69.7474 42.875 70C42.875 70.3073 42.9128 70.5742 42.9883 70.8008C43.0638 71.0247 43.181 71.2135 43.3398 71.3672C43.4596 71.4818 43.6107 71.5768 43.793 71.6523C43.9779 71.7279 44.1875 71.7669 44.4219 71.7695Z" fill="#606580"/>
<path d="M273.306 70.2226C273.306 71.2669 273.154 72.0338 272.849 72.5234C272.547 73.0104 272.079 73.2539 271.447 73.2539C270.806 73.2539 270.336 73.0052 270.036 72.5078C269.737 72.0104 269.587 71.2513 269.587 70.2305C269.587 69.181 269.738 68.4141 270.04 67.9297C270.345 67.4427 270.814 67.1992 271.447 67.1992C272.087 67.1992 272.557 67.4505 272.857 67.9531C273.156 68.4557 273.306 69.2122 273.306 70.2226ZM272.306 71.9961C272.381 71.8034 272.435 71.5599 272.466 71.2656C272.497 70.9713 272.513 70.6237 272.513 70.2226C272.513 69.8242 272.497 69.4779 272.466 69.1836C272.435 68.8893 272.38 68.6445 272.302 68.4492C272.224 68.2513 272.116 68.1016 271.978 68C271.842 67.8958 271.665 67.8437 271.447 67.8437C271.23 67.8437 271.052 67.8958 270.911 68C270.773 68.1016 270.664 68.2539 270.583 68.457C270.505 68.6549 270.452 68.9049 270.423 69.207C270.395 69.5091 270.38 69.8502 270.38 70.2305C270.38 70.6367 270.392 70.9766 270.415 71.25C270.441 71.5234 270.496 71.7682 270.579 71.9844C270.655 72.1849 270.762 72.3398 270.9 72.4492C271.04 72.556 271.223 72.6094 271.447 72.6094C271.663 72.6094 271.84 72.5586 271.978 72.457C272.118 72.3529 272.228 72.1992 272.306 71.9961ZM276.783 68.9297C276.783 69.5156 276.664 69.9505 276.427 70.2344C276.193 70.5156 275.853 70.6562 275.408 70.6562C274.954 70.6562 274.611 70.513 274.376 70.2266C274.145 69.9401 274.029 69.5091 274.029 68.9336C274.029 68.3502 274.147 67.9167 274.384 67.6328C274.621 67.3489 274.962 67.207 275.408 67.207C275.861 67.207 276.203 67.3502 276.435 67.6367C276.667 67.9232 276.783 68.3542 276.783 68.9297ZM279.384 67.3164L276.337 73.1328H275.693L278.74 67.3164H279.384ZM281.04 71.5195C281.04 72.1055 280.922 72.5404 280.685 72.8242C280.45 73.1055 280.111 73.2461 279.665 73.2461C279.212 73.2461 278.868 73.1029 278.634 72.8164C278.402 72.5299 278.286 72.0989 278.286 71.5234C278.286 70.9401 278.405 70.5065 278.642 70.2226C278.879 69.9388 279.22 69.7969 279.665 69.7969C280.118 69.7969 280.461 69.9401 280.693 70.2266C280.924 70.513 281.04 70.944 281.04 71.5195ZM276.087 68.9297C276.087 68.5338 276.04 68.2344 275.947 68.0312C275.855 67.8281 275.676 67.7266 275.408 67.7266C275.139 67.7266 274.958 67.8294 274.865 68.0351C274.771 68.2409 274.724 68.5404 274.724 68.9336C274.724 69.3242 274.768 69.6224 274.857 69.8281C274.945 70.0338 275.129 70.1367 275.408 70.1367C275.676 70.1367 275.855 70.0338 275.947 69.8281C276.04 69.6224 276.087 69.3229 276.087 68.9297ZM280.345 71.5195C280.345 71.1237 280.298 70.8242 280.204 70.6211C280.113 70.418 279.934 70.3164 279.665 70.3164C279.397 70.3164 279.216 70.4193 279.122 70.625C279.029 70.8307 278.982 71.1302 278.982 71.5234C278.982 71.9141 279.026 72.2122 279.115 72.418C279.203 72.6237 279.387 72.7266 279.665 72.7266C279.934 72.7266 280.113 72.6237 280.204 72.418C280.298 72.2122 280.345 71.9127 280.345 71.5195Z" fill="#606580"/>
<path d="M20.6108 62H18.8918V84H20.6108V62Z" fill="#8C99B2"/>
<path d="M150.348 73H146.758V72.1836C147.016 71.9388 147.259 71.7044 147.488 71.4805C147.717 71.2565 147.941 71.0234 148.16 70.7812C148.603 70.2943 148.905 69.9049 149.066 69.6133C149.228 69.319 149.309 69.0156 149.309 68.7031C149.309 68.5417 149.283 68.3997 149.23 68.2773C149.181 68.1549 149.112 68.0534 149.023 67.9727C148.932 67.8945 148.827 67.8359 148.707 67.7969C148.587 67.7578 148.456 67.7383 148.312 67.7383C148.174 67.7383 148.034 67.7565 147.891 67.793C147.75 67.8268 147.615 67.8698 147.484 67.9219C147.375 67.9661 147.27 68.0195 147.168 68.082C147.066 68.1445 146.984 68.1979 146.922 68.2422H146.879V67.4141C147.04 67.3333 147.264 67.2552 147.551 67.1797C147.84 67.1016 148.113 67.0625 148.371 67.0625C148.913 67.0625 149.337 67.207 149.645 67.4961C149.952 67.7826 150.105 68.1719 150.105 68.6641C150.105 68.8906 150.078 69.1003 150.023 69.293C149.971 69.4857 149.898 69.6641 149.805 69.8281C149.708 69.9974 149.592 70.1654 149.457 70.332C149.322 70.4987 149.178 70.6628 149.027 70.8242C148.783 71.0898 148.509 71.3659 148.207 71.6523C147.908 71.9388 147.668 72.1654 147.488 72.332H150.348V73ZM152.695 67.7383C152.555 67.7383 152.414 67.7552 152.273 67.7891C152.133 67.8229 151.995 67.8672 151.859 67.9219C151.734 67.974 151.625 68.0286 151.531 68.0859C151.44 68.1432 151.358 68.1966 151.285 68.2461H151.238V67.4219C151.408 67.3307 151.637 67.2487 151.926 67.1758C152.217 67.1003 152.495 67.0625 152.758 67.0625C153.021 67.0625 153.25 67.0898 153.445 67.1445C153.643 67.1966 153.822 67.2786 153.98 67.3906C154.152 67.5156 154.281 67.6667 154.367 67.8438C154.456 68.0208 154.5 68.2279 154.5 68.4648C154.5 68.7852 154.395 69.0664 154.184 69.3086C153.973 69.5508 153.72 69.7044 153.426 69.7695V69.8242C153.548 69.8477 153.678 69.888 153.816 69.9453C153.957 70.0026 154.087 70.0872 154.207 70.1992C154.327 70.3112 154.424 70.4557 154.5 70.6328C154.576 70.8073 154.613 71.0208 154.613 71.2734C154.613 71.5365 154.568 71.7786 154.477 72C154.388 72.2188 154.262 72.4128 154.098 72.582C153.928 72.7591 153.724 72.8932 153.484 72.9844C153.245 73.0755 152.973 73.1211 152.668 73.1211C152.376 73.1211 152.087 73.0859 151.801 73.0156C151.514 72.9453 151.273 72.8607 151.078 72.7617V71.9375H151.133C151.297 72.0573 151.517 72.1719 151.793 72.2812C152.069 72.3906 152.345 72.4453 152.621 72.4453C152.78 72.4453 152.939 72.4206 153.098 72.3711C153.259 72.319 153.393 72.2357 153.5 72.1211C153.604 72.0065 153.684 71.8802 153.738 71.7422C153.793 71.6042 153.82 71.4297 153.82 71.2188C153.82 71.0078 153.789 70.8346 153.727 70.6992C153.667 70.5638 153.582 70.457 153.473 70.3789C153.363 70.3008 153.233 70.2474 153.082 70.2188C152.934 70.1875 152.772 70.1719 152.598 70.1719H152.266V69.5234H152.523C152.875 69.5234 153.16 69.4401 153.379 69.2734C153.6 69.1068 153.711 68.8646 153.711 68.5469C153.711 68.401 153.682 68.276 153.625 68.1719C153.568 68.0651 153.495 67.9805 153.406 67.918C153.307 67.8503 153.198 67.8034 153.078 67.7773C152.958 67.7513 152.831 67.7383 152.695 67.7383ZM160.816 69.5742C160.816 69.1784 160.78 68.8568 160.707 68.6094C160.634 68.3594 160.534 68.1667 160.406 68.0312C160.292 67.9062 160.176 67.8203 160.059 67.7734C159.941 67.7266 159.812 67.7031 159.672 67.7031C159.352 67.7031 159.096 67.8177 158.906 68.0469C158.716 68.276 158.621 68.6081 158.621 69.043C158.621 69.2878 158.652 69.4896 158.715 69.6484C158.777 69.8073 158.879 69.944 159.02 70.0586C159.118 70.1393 159.23 70.194 159.355 70.2227C159.48 70.2487 159.615 70.2617 159.758 70.2617C159.924 70.2617 160.104 70.2331 160.297 70.1758C160.49 70.1159 160.658 70.0378 160.801 69.9414C160.803 69.9023 160.806 69.8516 160.809 69.7891C160.814 69.724 160.816 69.6523 160.816 69.5742ZM157.828 69.0742C157.828 68.7747 157.876 68.5013 157.973 68.2539C158.072 68.0065 158.206 67.793 158.375 67.6133C158.536 67.4414 158.733 67.3073 158.965 67.2109C159.199 67.1146 159.436 67.0664 159.676 67.0664C159.944 67.0664 160.186 67.112 160.402 67.2031C160.621 67.2917 160.81 67.4206 160.969 67.5898C161.169 67.8034 161.324 68.0833 161.434 68.4297C161.546 68.776 161.602 69.2135 161.602 69.7422C161.602 70.224 161.547 70.681 161.438 71.1133C161.331 71.543 161.172 71.8997 160.961 72.1836C160.737 72.4857 160.467 72.7161 160.152 72.875C159.84 73.0339 159.453 73.1133 158.992 73.1133C158.888 73.1133 158.777 73.1068 158.66 73.0938C158.543 73.0833 158.434 73.0625 158.332 73.0312V72.2852H158.371C158.436 72.3216 158.538 72.3568 158.676 72.3906C158.814 72.4245 158.954 72.4414 159.098 72.4414C159.608 72.4414 160.009 72.2734 160.301 71.9375C160.592 71.6016 160.758 71.1211 160.797 70.4961C160.589 70.6367 160.389 70.7396 160.199 70.8047C160.012 70.8698 159.807 70.9023 159.586 70.9023C159.37 70.9023 159.173 70.8789 158.996 70.832C158.819 70.7852 158.641 70.694 158.461 70.5586C158.253 70.3997 158.095 70.1992 157.988 69.957C157.882 69.7122 157.828 69.418 157.828 69.0742ZM165.102 68.5391C165.102 68.2786 165.014 68.0612 164.84 67.8867C164.665 67.7122 164.423 67.625 164.113 67.625C163.829 67.625 163.596 67.7031 163.414 67.8594C163.234 68.0156 163.145 68.2266 163.145 68.4922C163.145 68.6849 163.19 68.8477 163.281 68.9805C163.375 69.1133 163.514 69.2331 163.699 69.3398C163.78 69.3841 163.902 69.4453 164.066 69.5234C164.233 69.6016 164.384 69.6628 164.52 69.707C164.746 69.5326 164.9 69.3542 164.98 69.1719C165.061 68.987 165.102 68.776 165.102 68.5391ZM165.211 71.4531C165.211 71.2135 165.164 71.0234 165.07 70.8828C164.977 70.7422 164.796 70.599 164.527 70.4531C164.439 70.4036 164.32 70.3503 164.172 70.293C164.026 70.2357 163.861 70.168 163.676 70.0898C163.46 70.2331 163.294 70.4102 163.18 70.6211C163.065 70.8294 163.008 71.0677 163.008 71.3359C163.008 71.6875 163.113 71.9779 163.324 72.207C163.538 72.4362 163.805 72.5508 164.125 72.5508C164.453 72.5508 164.716 72.4531 164.914 72.2578C165.112 72.0599 165.211 71.7917 165.211 71.4531ZM164.117 73.1328C163.828 73.1328 163.565 73.0898 163.328 73.0039C163.091 72.918 162.889 72.7943 162.723 72.6328C162.559 72.4766 162.434 72.2917 162.348 72.0781C162.264 71.862 162.223 71.6341 162.223 71.3945C162.223 71.0794 162.306 70.7904 162.473 70.5273C162.642 70.2617 162.887 70.0508 163.207 69.8945V69.8711C162.921 69.7044 162.708 69.5221 162.57 69.3242C162.432 69.1263 162.363 68.8789 162.363 68.582C162.363 68.1445 162.529 67.7799 162.859 67.4883C163.19 67.1966 163.609 67.0508 164.117 67.0508C164.646 67.0508 165.069 67.1901 165.387 67.4688C165.707 67.7448 165.867 68.099 165.867 68.5312C165.867 68.7917 165.79 69.0495 165.637 69.3047C165.486 69.5599 165.267 69.7591 164.98 69.9023V69.9258C165.319 70.0846 165.576 70.2773 165.75 70.5039C165.924 70.7305 166.012 71.0221 166.012 71.3789C166.012 71.8763 165.831 72.293 165.469 72.6289C165.109 72.9648 164.659 73.1328 164.117 73.1328ZM170.02 73H167.184V72.4062H168.238V68.5078H167.184V67.9766C167.582 67.9766 167.875 67.9206 168.062 67.8086C168.253 67.694 168.359 67.4792 168.383 67.1641H168.988V72.4062H170.02V73Z" fill="#606580"/>
<path d="M209.848 73H206.258V72.1836C206.516 71.9388 206.759 71.7044 206.988 71.4805C207.217 71.2565 207.441 71.0234 207.66 70.7812C208.103 70.2943 208.405 69.9049 208.566 69.6133C208.728 69.319 208.809 69.0156 208.809 68.7031C208.809 68.5417 208.783 68.3997 208.73 68.2773C208.681 68.1549 208.612 68.0534 208.523 67.9727C208.432 67.8945 208.327 67.8359 208.207 67.7969C208.087 67.7578 207.956 67.7383 207.812 67.7383C207.674 67.7383 207.534 67.7565 207.391 67.793C207.25 67.8268 207.115 67.8698 206.984 67.9219C206.875 67.9661 206.77 68.0195 206.668 68.082C206.566 68.1445 206.484 68.1979 206.422 68.2422H206.379V67.4141C206.54 67.3333 206.764 67.2552 207.051 67.1797C207.34 67.1016 207.613 67.0625 207.871 67.0625C208.413 67.0625 208.837 67.207 209.145 67.4961C209.452 67.7826 209.605 68.1719 209.605 68.6641C209.605 68.8906 209.578 69.1003 209.523 69.293C209.471 69.4857 209.398 69.6641 209.305 69.8281C209.208 69.9974 209.092 70.1654 208.957 70.332C208.822 70.4987 208.678 70.6628 208.527 70.8242C208.283 71.0898 208.009 71.3659 207.707 71.6523C207.408 71.9388 207.168 72.1654 206.988 72.332H209.848V73ZM212.195 67.7383C212.055 67.7383 211.914 67.7552 211.773 67.7891C211.633 67.8229 211.495 67.8672 211.359 67.9219C211.234 67.974 211.125 68.0286 211.031 68.0859C210.94 68.1432 210.858 68.1966 210.785 68.2461H210.738V67.4219C210.908 67.3307 211.137 67.2487 211.426 67.1758C211.717 67.1003 211.995 67.0625 212.258 67.0625C212.521 67.0625 212.75 67.0898 212.945 67.1445C213.143 67.1966 213.322 67.2786 213.48 67.3906C213.652 67.5156 213.781 67.6667 213.867 67.8438C213.956 68.0208 214 68.2279 214 68.4648C214 68.7852 213.895 69.0664 213.684 69.3086C213.473 69.5508 213.22 69.7044 212.926 69.7695V69.8242C213.048 69.8477 213.178 69.888 213.316 69.9453C213.457 70.0026 213.587 70.0872 213.707 70.1992C213.827 70.3112 213.924 70.4557 214 70.6328C214.076 70.8073 214.113 71.0208 214.113 71.2734C214.113 71.5365 214.068 71.7786 213.977 72C213.888 72.2188 213.762 72.4128 213.598 72.582C213.428 72.7591 213.224 72.8932 212.984 72.9844C212.745 73.0755 212.473 73.1211 212.168 73.1211C211.876 73.1211 211.587 73.0859 211.301 73.0156C211.014 72.9453 210.773 72.8607 210.578 72.7617V71.9375H210.633C210.797 72.0573 211.017 72.1719 211.293 72.2812C211.569 72.3906 211.845 72.4453 212.121 72.4453C212.28 72.4453 212.439 72.4206 212.598 72.3711C212.759 72.319 212.893 72.2357 213 72.1211C213.104 72.0065 213.184 71.8802 213.238 71.7422C213.293 71.6042 213.32 71.4297 213.32 71.2188C213.32 71.0078 213.289 70.8346 213.227 70.6992C213.167 70.5638 213.082 70.457 212.973 70.3789C212.863 70.3008 212.733 70.2474 212.582 70.2188C212.434 70.1875 212.272 70.1719 212.098 70.1719H211.766V69.5234H212.023C212.375 69.5234 212.66 69.4401 212.879 69.2734C213.1 69.1068 213.211 68.8646 213.211 68.5469C213.211 68.401 213.182 68.276 213.125 68.1719C213.068 68.0651 212.995 67.9805 212.906 67.918C212.807 67.8503 212.698 67.8034 212.578 67.7773C212.458 67.7513 212.331 67.7383 212.195 67.7383ZM220.316 69.5742C220.316 69.1784 220.28 68.8568 220.207 68.6094C220.134 68.3594 220.034 68.1667 219.906 68.0312C219.792 67.9062 219.676 67.8203 219.559 67.7734C219.441 67.7266 219.312 67.7031 219.172 67.7031C218.852 67.7031 218.596 67.8177 218.406 68.0469C218.216 68.276 218.121 68.6081 218.121 69.043C218.121 69.2878 218.152 69.4896 218.215 69.6484C218.277 69.8073 218.379 69.944 218.52 70.0586C218.618 70.1393 218.73 70.194 218.855 70.2227C218.98 70.2487 219.115 70.2617 219.258 70.2617C219.424 70.2617 219.604 70.2331 219.797 70.1758C219.99 70.1159 220.158 70.0378 220.301 69.9414C220.303 69.9023 220.306 69.8516 220.309 69.7891C220.314 69.724 220.316 69.6523 220.316 69.5742ZM217.328 69.0742C217.328 68.7747 217.376 68.5013 217.473 68.2539C217.572 68.0065 217.706 67.793 217.875 67.6133C218.036 67.4414 218.233 67.3073 218.465 67.2109C218.699 67.1146 218.936 67.0664 219.176 67.0664C219.444 67.0664 219.686 67.112 219.902 67.2031C220.121 67.2917 220.31 67.4206 220.469 67.5898C220.669 67.8034 220.824 68.0833 220.934 68.4297C221.046 68.776 221.102 69.2135 221.102 69.7422C221.102 70.224 221.047 70.681 220.938 71.1133C220.831 71.543 220.672 71.8997 220.461 72.1836C220.237 72.4857 219.967 72.7161 219.652 72.875C219.34 73.0339 218.953 73.1133 218.492 73.1133C218.388 73.1133 218.277 73.1068 218.16 73.0938C218.043 73.0833 217.934 73.0625 217.832 73.0312V72.2852H217.871C217.936 72.3216 218.038 72.3568 218.176 72.3906C218.314 72.4245 218.454 72.4414 218.598 72.4414C219.108 72.4414 219.509 72.2734 219.801 71.9375C220.092 71.6016 220.258 71.1211 220.297 70.4961C220.089 70.6367 219.889 70.7396 219.699 70.8047C219.512 70.8698 219.307 70.9023 219.086 70.9023C218.87 70.9023 218.673 70.8789 218.496 70.832C218.319 70.7852 218.141 70.694 217.961 70.5586C217.753 70.3997 217.595 70.1992 217.488 69.957C217.382 69.7122 217.328 69.418 217.328 69.0742ZM224.602 68.5391C224.602 68.2786 224.514 68.0612 224.34 67.8867C224.165 67.7122 223.923 67.625 223.613 67.625C223.329 67.625 223.096 67.7031 222.914 67.8594C222.734 68.0156 222.645 68.2266 222.645 68.4922C222.645 68.6849 222.69 68.8477 222.781 68.9805C222.875 69.1133 223.014 69.2331 223.199 69.3398C223.28 69.3841 223.402 69.4453 223.566 69.5234C223.733 69.6016 223.884 69.6628 224.02 69.707C224.246 69.5326 224.4 69.3542 224.48 69.1719C224.561 68.987 224.602 68.776 224.602 68.5391ZM224.711 71.4531C224.711 71.2135 224.664 71.0234 224.57 70.8828C224.477 70.7422 224.296 70.599 224.027 70.4531C223.939 70.4036 223.82 70.3503 223.672 70.293C223.526 70.2357 223.361 70.168 223.176 70.0898C222.96 70.2331 222.794 70.4102 222.68 70.6211C222.565 70.8294 222.508 71.0677 222.508 71.3359C222.508 71.6875 222.613 71.9779 222.824 72.207C223.038 72.4362 223.305 72.5508 223.625 72.5508C223.953 72.5508 224.216 72.4531 224.414 72.2578C224.612 72.0599 224.711 71.7917 224.711 71.4531ZM223.617 73.1328C223.328 73.1328 223.065 73.0898 222.828 73.0039C222.591 72.918 222.389 72.7943 222.223 72.6328C222.059 72.4766 221.934 72.2917 221.848 72.0781C221.764 71.862 221.723 71.6341 221.723 71.3945C221.723 71.0794 221.806 70.7904 221.973 70.5273C222.142 70.2617 222.387 70.0508 222.707 69.8945V69.8711C222.421 69.7044 222.208 69.5221 222.07 69.3242C221.932 69.1263 221.863 68.8789 221.863 68.582C221.863 68.1445 222.029 67.7799 222.359 67.4883C222.69 67.1966 223.109 67.0508 223.617 67.0508C224.146 67.0508 224.569 67.1901 224.887 67.4688C225.207 67.7448 225.367 68.099 225.367 68.5312C225.367 68.7917 225.29 69.0495 225.137 69.3047C224.986 69.5599 224.767 69.7591 224.48 69.9023V69.9258C224.819 70.0846 225.076 70.2773 225.25 70.5039C225.424 70.7305 225.512 71.0221 225.512 71.3789C225.512 71.8763 225.331 72.293 224.969 72.6289C224.609 72.9648 224.159 73.1328 223.617 73.1328ZM229.52 73H226.684V72.4062H227.738V68.5078H226.684V67.9766C227.082 67.9766 227.375 67.9206 227.562 67.8086C227.753 67.694 227.859 67.4792 227.883 67.1641H228.488V72.4062H229.52V73Z" fill="#606580"/>
<path d="M129.5 89V110" stroke="#D7E2F2"/>
<path d="M188.5 89V110" stroke="#D7E2F2"/>
<path d="M248.5 89V110" stroke="#D7E2F2"/>
<path d="M310.5 89.5H19.5V109.5H310.5V89.5Z" stroke="#D7E2F2"/>
<path opacity="0.2" fill-rule="evenodd" clip-rule="evenodd" d="M21 110V89H72V91.2762V107.577V110H21Z" fill="url(#paint2_linear)"/>
<path d="M21 89H19V110H21V89Z" fill="#F7931E"/>
<path d="M36.5508 100.148C36.5508 100.43 36.4961 100.685 36.3867 100.914C36.2773 101.143 36.1302 101.329 35.9453 101.473C35.7266 101.645 35.4922 101.767 35.2422 101.84C34.9922 101.913 34.6693 101.949 34.2734 101.949H32.5898V96.1329H36.1328V96.8204H33.3633V98.4141H34.2969C34.6927 98.4141 35.0156 98.4376 35.2656 98.4845C35.5156 98.5287 35.7513 98.6368 35.9727 98.8087C36.1706 98.9623 36.3164 99.1524 36.4102 99.379C36.5039 99.6055 36.5508 99.8621 36.5508 100.148ZM35.7422 100.164C35.7422 99.9688 35.7096 99.797 35.6445 99.6485C35.582 99.5001 35.4818 99.3803 35.3438 99.2891C35.2005 99.1928 35.0352 99.1342 34.8477 99.1134C34.6602 99.0925 34.3958 99.0821 34.0547 99.0821H33.3633V101.289H34.0352C34.3815 101.289 34.6471 101.272 34.832 101.238C35.0195 101.204 35.1836 101.139 35.3242 101.043C35.4701 100.941 35.5755 100.823 35.6406 100.688C35.7083 100.55 35.7422 100.375 35.7422 100.164ZM41.2695 100.148C41.2695 100.43 41.2148 100.685 41.1055 100.914C40.9961 101.143 40.849 101.329 40.6641 101.473C40.4453 101.645 40.2109 101.767 39.9609 101.84C39.7109 101.913 39.388 101.949 38.9922 101.949H37.3086V96.1329H40.8516V96.8204H38.082V98.4141H39.0156C39.4115 98.4141 39.7344 98.4376 39.9844 98.4845C40.2344 98.5287 40.4701 98.6368 40.6914 98.8087C40.8893 98.9623 41.0352 99.1524 41.1289 99.379C41.2227 99.6055 41.2695 99.8621 41.2695 100.148ZM40.4609 100.164C40.4609 99.9688 40.4284 99.797 40.3633 99.6485C40.3008 99.5001 40.2005 99.3803 40.0625 99.2891C39.9193 99.1928 39.7539 99.1342 39.5664 99.1134C39.3789 99.0925 39.1146 99.0821 38.7734 99.0821H38.082V101.289H38.7539C39.1003 101.289 39.3659 101.272 39.5508 101.238C39.7383 101.204 39.9023 101.139 40.043 101.043C40.1888 100.941 40.2943 100.823 40.3594 100.688C40.4271 100.55 40.4609 100.375 40.4609 100.164ZM47.168 98.9805C47.168 99.3425 47.1133 99.6628 47.0039 99.9415C46.8945 100.217 46.7422 100.451 46.5469 100.641C46.3359 100.849 46.0768 101.01 45.7695 101.125C45.4622 101.237 45.1445 101.297 44.8164 101.305V102.011H44.0469V101.305C43.7214 101.294 43.4049 101.236 43.0977 101.129C42.7904 101.022 42.5286 100.862 42.3125 100.648C42.1172 100.458 41.9648 100.223 41.8555 99.9415C41.7487 99.6602 41.6953 99.3399 41.6953 98.9805C41.6953 98.642 41.7474 98.3386 41.8516 98.0704C41.9557 97.7996 42.1016 97.5665 42.2891 97.3712C42.4896 97.1628 42.7409 96.9988 43.043 96.879C43.3451 96.7592 43.6797 96.6941 44.0469 96.6837V96.0391H44.8164V96.6837C45.1836 96.6915 45.5195 96.7566 45.8242 96.879C46.1289 96.9988 46.3815 97.1615 46.582 97.3673C46.7695 97.56 46.9141 97.7904 47.0156 98.0587C47.1172 98.3269 47.168 98.6342 47.168 98.9805ZM46.3633 98.9493C46.3633 98.6915 46.3268 98.4571 46.2539 98.2462C46.181 98.0326 46.0729 97.8516 45.9297 97.7032C45.7943 97.5626 45.6367 97.4584 45.457 97.3907C45.2773 97.323 45.0638 97.2865 44.8164 97.2813V100.719C45.0508 100.714 45.2591 100.676 45.4414 100.605C45.6263 100.533 45.7786 100.436 45.8984 100.316C46.0573 100.16 46.1745 99.9701 46.25 99.7462C46.3255 99.5222 46.3633 99.2566 46.3633 98.9493ZM44.0469 100.719V97.2813C43.7995 97.2839 43.5859 97.3204 43.4062 97.3907C43.2266 97.461 43.069 97.5652 42.9336 97.7032C42.7904 97.849 42.6823 98.03 42.6094 98.2462C42.5365 98.4623 42.5 98.6967 42.5 98.9493C42.5 99.2566 42.5378 99.5235 42.6133 99.7501C42.6888 99.974 42.806 100.163 42.9648 100.316C43.0846 100.431 43.2357 100.526 43.418 100.602C43.6029 100.677 43.8125 100.716 44.0469 100.719Z" fill="#303549"/>
<path opacity="0.2" d="M305.162 92.2197H250.287V106.71H305.162V92.2197Z" fill="url(#paint3_linear)"/>
<path d="M271.296 101.972H267.706V101.156C267.964 100.911 268.207 100.677 268.437 100.453C268.666 100.229 268.89 99.9961 269.108 99.7539C269.551 99.2669 269.853 98.8776 270.015 98.5859C270.176 98.2917 270.257 97.9883 270.257 97.6758C270.257 97.5143 270.231 97.3724 270.179 97.25C270.129 97.1276 270.06 97.0261 269.972 96.9453C269.881 96.8672 269.775 96.8086 269.655 96.7695C269.536 96.7305 269.404 96.7109 269.261 96.7109C269.123 96.7109 268.982 96.7292 268.839 96.7656C268.698 96.7995 268.563 96.8425 268.433 96.8945C268.323 96.9388 268.218 96.9922 268.116 97.0547C268.015 97.1172 267.933 97.1706 267.87 97.2149H267.827V96.3867C267.989 96.306 268.213 96.2279 268.499 96.1524C268.788 96.0742 269.062 96.0352 269.319 96.0352C269.861 96.0352 270.286 96.1797 270.593 96.4688C270.9 96.7552 271.054 97.1445 271.054 97.6367C271.054 97.8633 271.026 98.0729 270.972 98.2656C270.92 98.4583 270.847 98.6367 270.753 98.8008C270.657 98.9701 270.541 99.138 270.405 99.3047C270.27 99.4714 270.127 99.6354 269.976 99.7969C269.731 100.062 269.457 100.338 269.155 100.625C268.856 100.911 268.616 101.138 268.437 101.304H271.296V101.972ZM275.366 101.972H272.53V101.378H273.585V97.4805H272.53V96.9492C272.929 96.9492 273.222 96.8932 273.409 96.7813C273.599 96.6667 273.706 96.4518 273.73 96.1367H274.335V101.378H275.366V101.972ZM277.69 101.972H276.757V100.859H277.69V101.972ZM281.687 98.5469C281.687 98.1511 281.65 97.8294 281.577 97.582C281.504 97.332 281.404 97.1393 281.276 97.0039C281.162 96.8789 281.046 96.793 280.929 96.7461C280.812 96.6992 280.683 96.6758 280.542 96.6758C280.222 96.6758 279.966 96.7904 279.776 97.0195C279.586 97.2487 279.491 97.5807 279.491 98.0156C279.491 98.2604 279.522 98.4623 279.585 98.6211C279.647 98.78 279.749 98.9167 279.89 99.0313C279.989 99.112 280.101 99.1667 280.226 99.1953C280.351 99.2214 280.485 99.2344 280.628 99.2344C280.795 99.2344 280.974 99.2057 281.167 99.1484C281.36 99.0886 281.528 99.0104 281.671 98.9141C281.674 98.875 281.676 98.8242 281.679 98.7617C281.684 98.6966 281.687 98.625 281.687 98.5469ZM278.698 98.0469C278.698 97.7474 278.746 97.474 278.843 97.2266C278.942 96.9792 279.076 96.7656 279.245 96.5859C279.407 96.4141 279.603 96.28 279.835 96.1836C280.069 96.0873 280.306 96.0391 280.546 96.0391C280.814 96.0391 281.056 96.0846 281.272 96.1758C281.491 96.2643 281.68 96.3932 281.839 96.5625C282.039 96.7761 282.194 97.056 282.304 97.4024C282.416 97.7487 282.472 98.1862 282.472 98.7149C282.472 99.1966 282.417 99.6537 282.308 100.085C282.201 100.515 282.042 100.872 281.831 101.156C281.607 101.458 281.338 101.688 281.022 101.847C280.71 102.006 280.323 102.085 279.862 102.085C279.758 102.085 279.647 102.079 279.53 102.066C279.413 102.056 279.304 102.035 279.202 102.003V101.257H279.241C279.306 101.294 279.408 101.329 279.546 101.363C279.684 101.397 279.825 101.414 279.968 101.414C280.478 101.414 280.879 101.246 281.171 100.91C281.463 100.574 281.628 100.093 281.667 99.4688C281.459 99.6094 281.259 99.7123 281.069 99.7774C280.882 99.8425 280.677 99.875 280.456 99.875C280.24 99.875 280.043 99.8516 279.866 99.8047C279.689 99.7578 279.511 99.6667 279.331 99.5313C279.123 99.3724 278.965 99.1719 278.858 98.9297C278.752 98.6849 278.698 98.3906 278.698 98.0469ZM285.956 97.7695C285.956 98.3555 285.838 98.7904 285.601 99.0742C285.366 99.3555 285.026 99.4961 284.581 99.4961C284.128 99.4961 283.784 99.3529 283.55 99.0664C283.318 98.78 283.202 98.349 283.202 97.7734C283.202 97.1901 283.321 96.7565 283.558 96.4727C283.795 96.1888 284.136 96.0469 284.581 96.0469C285.034 96.0469 285.377 96.1901 285.608 96.4766C285.84 96.763 285.956 97.194 285.956 97.7695ZM288.558 96.1563L285.511 101.972H284.866L287.913 96.1563H288.558ZM290.214 100.359C290.214 100.945 290.095 101.38 289.858 101.664C289.624 101.945 289.284 102.085 288.839 102.085C288.386 102.085 288.042 101.942 287.808 101.656C287.576 101.369 287.46 100.938 287.46 100.363C287.46 99.78 287.578 99.3464 287.815 99.0625C288.052 98.7787 288.394 98.6367 288.839 98.6367C289.292 98.6367 289.634 98.78 289.866 99.0664C290.098 99.3529 290.214 99.7839 290.214 100.359ZM285.261 97.7695C285.261 97.3737 285.214 97.0742 285.12 96.8711C285.029 96.668 284.849 96.5664 284.581 96.5664C284.313 96.5664 284.132 96.6693 284.038 96.875C283.944 97.0807 283.897 97.3802 283.897 97.7734C283.897 98.1641 283.942 98.4623 284.03 98.668C284.119 98.8737 284.302 98.9766 284.581 98.9766C284.849 98.9766 285.029 98.8737 285.12 98.668C285.214 98.4623 285.261 98.1628 285.261 97.7695ZM289.519 100.359C289.519 99.9636 289.472 99.6641 289.378 99.4609C289.287 99.2578 289.107 99.1563 288.839 99.1563C288.571 99.1563 288.39 99.2591 288.296 99.4649C288.202 99.6706 288.155 99.9701 288.155 100.363C288.155 100.753 288.2 101.052 288.288 101.257C288.377 101.463 288.56 101.566 288.839 101.566C289.107 101.566 289.287 101.463 289.378 101.257C289.472 101.052 289.519 100.752 289.519 100.359Z" fill="#F7931E"/>
<path d="M251.136 92.2197H250.287V106.71H251.136V92.2197Z" fill="#F7931E"/>
<path d="M150.348 101.949H146.758V101.133C147.016 100.888 147.259 100.654 147.488 100.43C147.717 100.206 147.941 99.9726 148.16 99.7304C148.603 99.2435 148.905 98.8541 149.066 98.5625C149.228 98.2682 149.309 97.9648 149.309 97.6523C149.309 97.4909 149.283 97.3489 149.23 97.2265C149.181 97.1041 149.112 97.0026 149.023 96.9219C148.932 96.8437 148.827 96.7851 148.707 96.7461C148.587 96.707 148.456 96.6875 148.312 96.6875C148.174 96.6875 148.034 96.7057 147.891 96.7422C147.75 96.776 147.615 96.819 147.484 96.8711C147.375 96.9153 147.27 96.9687 147.168 97.0312C147.066 97.0937 146.984 97.1471 146.922 97.1914H146.879V96.3633C147.04 96.2825 147.264 96.2044 147.551 96.1289C147.84 96.0508 148.113 96.0117 148.371 96.0117C148.913 96.0117 149.337 96.1562 149.645 96.4453C149.952 96.7318 150.105 97.1211 150.105 97.6133C150.105 97.8398 150.078 98.0495 150.023 98.2422C149.971 98.4349 149.898 98.6133 149.805 98.7773C149.708 98.9466 149.592 99.1146 149.457 99.2812C149.322 99.4479 149.178 99.612 149.027 99.7734C148.783 100.039 148.509 100.315 148.207 100.602C147.908 100.888 147.668 101.115 147.488 101.281H150.348V101.949ZM153.867 97.4883C153.867 97.2278 153.78 97.0104 153.605 96.8359C153.431 96.6614 153.189 96.5742 152.879 96.5742C152.595 96.5742 152.362 96.6523 152.18 96.8086C152 96.9648 151.91 97.1758 151.91 97.4414C151.91 97.6341 151.956 97.7969 152.047 97.9297C152.141 98.0625 152.28 98.1823 152.465 98.289C152.546 98.3333 152.668 98.3945 152.832 98.4726C152.999 98.5508 153.15 98.612 153.285 98.6562C153.512 98.4818 153.665 98.3034 153.746 98.1211C153.827 97.9362 153.867 97.7252 153.867 97.4883ZM153.977 100.402C153.977 100.163 153.93 99.9726 153.836 99.832C153.742 99.6914 153.561 99.5482 153.293 99.4023C153.204 99.3528 153.086 99.2995 152.938 99.2422C152.792 99.1849 152.626 99.1172 152.441 99.039C152.225 99.1823 152.06 99.3594 151.945 99.5703C151.831 99.7786 151.773 100.017 151.773 100.285C151.773 100.637 151.879 100.927 152.09 101.156C152.303 101.385 152.57 101.5 152.891 101.5C153.219 101.5 153.482 101.402 153.68 101.207C153.878 101.009 153.977 100.741 153.977 100.402ZM152.883 102.082C152.594 102.082 152.331 102.039 152.094 101.953C151.857 101.867 151.655 101.744 151.488 101.582C151.324 101.426 151.199 101.241 151.113 101.027C151.03 100.811 150.988 100.583 150.988 100.344C150.988 100.029 151.072 99.7396 151.238 99.4765C151.408 99.2109 151.652 99 151.973 98.8437V98.8203C151.686 98.6536 151.474 98.4713 151.336 98.2734C151.198 98.0755 151.129 97.8281 151.129 97.5312C151.129 97.0937 151.294 96.7291 151.625 96.4375C151.956 96.1458 152.375 96 152.883 96C153.411 96 153.835 96.1393 154.152 96.418C154.473 96.694 154.633 97.0482 154.633 97.4804C154.633 97.7409 154.556 97.9987 154.402 98.2539C154.251 98.5091 154.033 98.7083 153.746 98.8515V98.875C154.085 99.0338 154.341 99.2265 154.516 99.4531C154.69 99.6797 154.777 99.9713 154.777 100.328C154.777 100.826 154.596 101.242 154.234 101.578C153.875 101.914 153.424 102.082 152.883 102.082ZM161.285 101.949H158.449V101.355H159.504V97.457H158.449V96.9258C158.848 96.9258 159.141 96.8698 159.328 96.7578C159.518 96.6432 159.625 96.4284 159.648 96.1133H160.254V101.355H161.285V101.949ZM165.652 101.949H162.816V101.355H163.871V97.457H162.816V96.9258C163.215 96.9258 163.508 96.8698 163.695 96.7578C163.885 96.6432 163.992 96.4284 164.016 96.1133H164.621V101.355H165.652V101.949ZM169.551 98.5234C169.551 98.1276 169.514 97.806 169.441 97.5586C169.368 97.3086 169.268 97.1159 169.141 96.9804C169.026 96.8554 168.91 96.7695 168.793 96.7226C168.676 96.6758 168.547 96.6523 168.406 96.6523C168.086 96.6523 167.831 96.7669 167.641 96.9961C167.451 97.2252 167.355 97.5573 167.355 97.9922C167.355 98.237 167.387 98.4388 167.449 98.5976C167.512 98.7565 167.613 98.8932 167.754 99.0078C167.853 99.0885 167.965 99.1432 168.09 99.1719C168.215 99.1979 168.349 99.2109 168.492 99.2109C168.659 99.2109 168.839 99.1823 169.031 99.125C169.224 99.0651 169.392 98.987 169.535 98.8906C169.538 98.8515 169.54 98.8008 169.543 98.7383C169.548 98.6732 169.551 98.6015 169.551 98.5234ZM166.562 98.0234C166.562 97.7239 166.611 97.4505 166.707 97.2031C166.806 96.9557 166.94 96.7422 167.109 96.5625C167.271 96.3906 167.467 96.2565 167.699 96.1601C167.934 96.0638 168.171 96.0156 168.41 96.0156C168.678 96.0156 168.921 96.0612 169.137 96.1523C169.355 96.2409 169.544 96.3698 169.703 96.539C169.904 96.7526 170.059 97.0325 170.168 97.3789C170.28 97.7252 170.336 98.1627 170.336 98.6914C170.336 99.1732 170.281 99.6302 170.172 100.062C170.065 100.492 169.906 100.849 169.695 101.133C169.471 101.435 169.202 101.665 168.887 101.824C168.574 101.983 168.188 102.062 167.727 102.062C167.622 102.062 167.512 102.056 167.395 102.043C167.277 102.032 167.168 102.011 167.066 101.98V101.234H167.105C167.171 101.271 167.272 101.306 167.41 101.34C167.548 101.374 167.689 101.391 167.832 101.391C168.342 101.391 168.743 101.223 169.035 100.887C169.327 100.551 169.492 100.07 169.531 99.4453C169.323 99.5859 169.124 99.6888 168.934 99.7539C168.746 99.819 168.542 99.8515 168.32 99.8515C168.104 99.8515 167.908 99.8281 167.73 99.7812C167.553 99.7344 167.375 99.6432 167.195 99.5078C166.987 99.3489 166.829 99.1484 166.723 98.9062C166.616 98.6614 166.562 98.3672 166.562 98.0234Z" fill="#303549"/>
<path d="M209.848 101.949H206.258V101.133C206.516 100.888 206.759 100.654 206.988 100.43C207.217 100.206 207.441 99.9726 207.66 99.7304C208.103 99.2435 208.405 98.8541 208.566 98.5625C208.728 98.2682 208.809 97.9648 208.809 97.6523C208.809 97.4909 208.783 97.3489 208.73 97.2265C208.681 97.1041 208.612 97.0026 208.523 96.9219C208.432 96.8437 208.327 96.7851 208.207 96.7461C208.087 96.707 207.956 96.6875 207.812 96.6875C207.674 96.6875 207.534 96.7057 207.391 96.7422C207.25 96.776 207.115 96.819 206.984 96.8711C206.875 96.9153 206.77 96.9687 206.668 97.0312C206.566 97.0937 206.484 97.1471 206.422 97.1914H206.379V96.3633C206.54 96.2825 206.764 96.2044 207.051 96.1289C207.34 96.0508 207.613 96.0117 207.871 96.0117C208.413 96.0117 208.837 96.1562 209.145 96.4453C209.452 96.7318 209.605 97.1211 209.605 97.6133C209.605 97.8398 209.578 98.0495 209.523 98.2422C209.471 98.4349 209.398 98.6133 209.305 98.7773C209.208 98.9466 209.092 99.1146 208.957 99.2812C208.822 99.4479 208.678 99.612 208.527 99.7734C208.283 100.039 208.009 100.315 207.707 100.602C207.408 100.888 207.168 101.115 206.988 101.281H209.848V101.949ZM214.242 99.039C214.242 100.083 214.09 100.85 213.785 101.34C213.483 101.827 213.016 102.07 212.383 102.07C211.742 102.07 211.272 101.822 210.973 101.324C210.673 100.827 210.523 100.068 210.523 99.0469C210.523 97.9974 210.674 97.2304 210.977 96.7461C211.281 96.2591 211.75 96.0156 212.383 96.0156C213.023 96.0156 213.493 96.2669 213.793 96.7695C214.092 97.2721 214.242 98.0286 214.242 99.039ZM213.242 100.813C213.318 100.62 213.371 100.376 213.402 100.082C213.434 99.7877 213.449 99.4401 213.449 99.039C213.449 98.6406 213.434 98.2943 213.402 98C213.371 97.7057 213.316 97.4609 213.238 97.2656C213.16 97.0677 213.052 96.918 212.914 96.8164C212.779 96.7122 212.602 96.6601 212.383 96.6601C212.167 96.6601 211.988 96.7122 211.848 96.8164C211.71 96.918 211.6 97.0703 211.52 97.2734C211.441 97.4713 211.388 97.7213 211.359 98.0234C211.331 98.3255 211.316 98.6666 211.316 99.0469C211.316 99.4531 211.328 99.793 211.352 100.066C211.378 100.34 211.432 100.585 211.516 100.801C211.591 101.001 211.698 101.156 211.836 101.266C211.977 101.372 212.159 101.426 212.383 101.426C212.599 101.426 212.776 101.375 212.914 101.273C213.055 101.169 213.164 101.016 213.242 100.813ZM221.109 99.039C221.109 100.083 220.957 100.85 220.652 101.34C220.35 101.827 219.883 102.07 219.25 102.07C218.609 102.07 218.139 101.822 217.84 101.324C217.54 100.827 217.391 100.068 217.391 99.0469C217.391 97.9974 217.542 97.2304 217.844 96.7461C218.148 96.2591 218.617 96.0156 219.25 96.0156C219.891 96.0156 220.361 96.2669 220.66 96.7695C220.96 97.2721 221.109 98.0286 221.109 99.039ZM220.109 100.813C220.185 100.62 220.238 100.376 220.27 100.082C220.301 99.7877 220.316 99.4401 220.316 99.039C220.316 98.6406 220.301 98.2943 220.27 98C220.238 97.7057 220.184 97.4609 220.105 97.2656C220.027 97.0677 219.919 96.918 219.781 96.8164C219.646 96.7122 219.469 96.6601 219.25 96.6601C219.034 96.6601 218.855 96.7122 218.715 96.8164C218.577 96.918 218.467 97.0703 218.387 97.2734C218.309 97.4713 218.255 97.7213 218.227 98.0234C218.198 98.3255 218.184 98.6666 218.184 99.0469C218.184 99.4531 218.195 99.793 218.219 100.066C218.245 100.34 218.299 100.585 218.383 100.801C218.458 101.001 218.565 101.156 218.703 101.266C218.844 101.372 219.026 101.426 219.25 101.426C219.466 101.426 219.643 101.375 219.781 101.273C219.922 101.169 220.031 101.016 220.109 100.813ZM225.383 100.098C225.383 100.379 225.337 100.639 225.246 100.879C225.158 101.119 225.033 101.326 224.871 101.5C224.707 101.677 224.503 101.816 224.258 101.918C224.016 102.019 223.743 102.07 223.441 102.07C223.163 102.07 222.888 102.039 222.617 101.976C222.349 101.917 222.116 101.837 221.918 101.738V100.914H221.973C222.033 100.958 222.118 101.009 222.23 101.066C222.342 101.121 222.466 101.173 222.602 101.223C222.755 101.277 222.896 101.32 223.023 101.352C223.151 101.38 223.294 101.395 223.453 101.395C223.609 101.395 223.762 101.367 223.91 101.313C224.059 101.255 224.186 101.164 224.293 101.039C224.389 100.925 224.462 100.79 224.512 100.637C224.564 100.483 224.59 100.302 224.59 100.094C224.59 99.888 224.561 99.7187 224.504 99.5859C224.449 99.4531 224.368 99.3437 224.262 99.2578C224.15 99.1588 224.012 99.0898 223.848 99.0508C223.686 99.0091 223.505 98.9883 223.305 98.9883C223.094 98.9883 222.882 99.0052 222.668 99.039C222.454 99.0703 222.284 99.1002 222.156 99.1289V96.1328H225.348V96.8164H222.91V98.3633C223.004 98.3528 223.096 98.345 223.188 98.3398C223.279 98.3346 223.362 98.332 223.438 98.332C223.734 98.332 223.986 98.3568 224.191 98.4062C224.397 98.4557 224.595 98.5521 224.785 98.6953C224.978 98.8411 225.125 99.0234 225.227 99.2422C225.331 99.4609 225.383 99.7461 225.383 100.098ZM229.969 99.9492H229.277V101.949H228.527V99.9492H225.957V99.1289L228.559 96.1328H229.277V99.3242H229.969V99.9492ZM228.527 99.3242V97.0508L226.566 99.3242H228.527Z" fill="#303549"/>
<path d="M154.321 17.0312C154.321 17.3932 154.267 17.7135 154.157 17.9922C154.048 18.2682 153.896 18.5013 153.7 18.6914C153.489 18.8997 153.23 19.0612 152.923 19.1758C152.616 19.2878 152.298 19.3477 151.97 19.3555V20.0625H151.2V19.3555C150.875 19.3451 150.558 19.2865 150.251 19.1797C149.944 19.0729 149.682 18.9128 149.466 18.6992C149.271 18.5091 149.118 18.2734 149.009 17.9922C148.902 17.7109 148.849 17.3906 148.849 17.0312C148.849 16.6927 148.901 16.3893 149.005 16.1211C149.109 15.8503 149.255 15.6172 149.442 15.4219C149.643 15.2135 149.894 15.0495 150.196 14.9297C150.498 14.8099 150.833 14.7448 151.2 14.7344V14.0898H151.97V14.7344C152.337 14.7422 152.673 14.8073 152.978 14.9297C153.282 15.0495 153.535 15.2122 153.735 15.418C153.923 15.6107 154.067 15.8411 154.169 16.1094C154.271 16.3776 154.321 16.6849 154.321 17.0312ZM153.517 17C153.517 16.7422 153.48 16.5078 153.407 16.2969C153.334 16.0833 153.226 15.9023 153.083 15.7539C152.948 15.6133 152.79 15.5091 152.61 15.4414C152.431 15.3737 152.217 15.3372 151.97 15.332V18.7695C152.204 18.7643 152.412 18.7266 152.595 18.6562C152.78 18.5833 152.932 18.487 153.052 18.3672C153.211 18.2109 153.328 18.0208 153.403 17.7969C153.479 17.5729 153.517 17.3073 153.517 17ZM151.2 18.7695V15.332C150.953 15.3346 150.739 15.3711 150.56 15.4414C150.38 15.5117 150.222 15.6159 150.087 15.7539C149.944 15.8997 149.836 16.0807 149.763 16.2969C149.69 16.513 149.653 16.7474 149.653 17C149.653 17.3073 149.691 17.5742 149.767 17.8008C149.842 18.0247 149.959 18.2135 150.118 18.3672C150.238 18.4818 150.389 18.5768 150.571 18.6523C150.756 18.7279 150.966 18.7669 151.2 18.7695ZM157.552 18.9258V17.7148C157.377 17.7305 157.156 17.7526 156.888 17.7812C156.622 17.8073 156.407 17.8451 156.243 17.8945C156.048 17.9544 155.886 18.0469 155.759 18.1719C155.631 18.2943 155.567 18.4661 155.567 18.6875C155.567 18.9375 155.638 19.1263 155.778 19.2539C155.919 19.3815 156.125 19.4453 156.396 19.4453C156.627 19.4453 156.837 19.3958 157.024 19.2969C157.212 19.1953 157.388 19.0716 157.552 18.9258ZM157.552 19.5352C157.492 19.5794 157.411 19.6419 157.31 19.7227C157.211 19.8008 157.114 19.8633 157.021 19.9102C156.89 19.9779 156.764 20.0299 156.642 20.0664C156.522 20.1029 156.353 20.1211 156.134 20.1211C155.954 20.1211 155.784 20.0872 155.622 20.0195C155.461 19.9518 155.319 19.8568 155.196 19.7344C155.079 19.6146 154.985 19.4674 154.915 19.293C154.845 19.1159 154.81 18.9297 154.81 18.7344C154.81 18.4323 154.873 18.1758 155.001 17.9648C155.129 17.7513 155.33 17.582 155.606 17.457C155.851 17.3451 156.14 17.2682 156.474 17.2266C156.807 17.1823 157.166 17.1497 157.552 17.1289V16.9883C157.552 16.8164 157.526 16.6784 157.474 16.5742C157.422 16.4674 157.349 16.3854 157.255 16.3281C157.161 16.2682 157.047 16.2292 156.911 16.2109C156.776 16.1901 156.636 16.1797 156.493 16.1797C156.324 16.1797 156.125 16.2057 155.896 16.2578C155.666 16.3073 155.437 16.3802 155.208 16.4766H155.165V15.7305C155.3 15.6914 155.494 15.6484 155.747 15.6016C156 15.5547 156.25 15.5312 156.497 15.5312C156.797 15.5312 157.049 15.5547 157.255 15.6016C157.461 15.6484 157.646 15.7331 157.81 15.8555C157.968 15.9753 158.087 16.1302 158.165 16.3203C158.243 16.5104 158.282 16.7422 158.282 17.0156V20H157.552V19.5352ZM162.829 20H161.915L160.419 17.9883H160.052V20H159.317V15.6367H160.052V17.5352C160.242 17.5326 160.403 17.4935 160.536 17.418C160.672 17.3398 160.786 17.1901 160.88 16.9688C160.909 16.9036 160.94 16.8281 160.974 16.7422C161.01 16.6562 161.039 16.5807 161.06 16.5156C161.174 16.1953 161.333 15.9688 161.536 15.8359C161.739 15.7031 162.004 15.6367 162.329 15.6367H162.528V16.2695H162.36C162.155 16.2695 162 16.3125 161.896 16.3984C161.794 16.4818 161.708 16.6354 161.638 16.8594C161.565 17.0859 161.479 17.263 161.38 17.3906C161.281 17.5156 161.172 17.612 161.052 17.6797L162.829 20ZM166.489 16.2812H165.005V20H164.271V16.2812H162.786V15.6367H166.489V16.2812Z" fill="#606580"/>
<path d="M125 7V31" stroke="#D7E2F2"/>
<path d="M213.497 20H212.723V14.9883L211.208 18.3984H210.739L209.235 14.9883V20H208.512V14.1836H209.567L211.02 17.4219L212.423 14.1836H213.497V20ZM218.208 17.8203C218.208 18.5547 218.031 19.1224 217.677 19.5234C217.322 19.9219 216.851 20.1211 216.262 20.1211C215.656 20.1211 215.178 19.9154 214.829 19.5039C214.483 19.0898 214.309 18.5286 214.309 17.8203C214.309 17.0911 214.488 16.5247 214.844 16.1211C215.204 15.7174 215.677 15.5156 216.262 15.5156C216.851 15.5156 217.322 15.7174 217.677 16.1211C218.031 16.5221 218.208 17.0885 218.208 17.8203ZM217.45 17.8203C217.45 17.2552 217.347 16.8359 217.141 16.5625C216.936 16.2865 216.643 16.1484 216.262 16.1484C215.88 16.1484 215.584 16.2865 215.376 16.5625C215.17 16.8359 215.067 17.2552 215.067 17.8203C215.067 18.3672 215.17 18.7826 215.376 19.0664C215.584 19.3477 215.88 19.4883 216.262 19.4883C216.64 19.4883 216.932 19.3503 217.137 19.0742C217.346 18.7956 217.45 18.3776 217.45 17.8203ZM222.704 21.0469H222.02V19.9883H219.145V21.0469H218.462V19.375H218.751C218.998 18.9688 219.2 18.4388 219.356 17.7852C219.515 17.1289 219.594 16.4128 219.594 15.6367H222.27V19.375H222.704V21.0469ZM221.536 19.375V16.2539H220.286C220.252 16.9049 220.162 17.5 220.016 18.0391C219.873 18.5755 219.692 19.0208 219.473 19.375H221.536ZM225.325 20.1016C224.63 20.1016 224.089 19.9062 223.704 19.5156C223.321 19.1224 223.13 18.5651 223.13 17.8438C223.13 17.1328 223.316 16.5677 223.688 16.1484C224.061 15.7266 224.548 15.5156 225.149 15.5156C225.42 15.5156 225.66 15.5547 225.868 15.6328C226.076 15.7109 226.259 15.8333 226.415 16C226.571 16.1667 226.691 16.3711 226.774 16.6133C226.858 16.8529 226.899 17.1471 226.899 17.4961V17.8945H223.876C223.876 18.4023 224.003 18.7904 224.259 19.0586C224.514 19.3268 224.867 19.4609 225.317 19.4609C225.479 19.4609 225.636 19.4427 225.79 19.4062C225.946 19.3698 226.087 19.3229 226.212 19.2656C226.344 19.2057 226.456 19.1484 226.548 19.0938C226.639 19.0365 226.714 18.9831 226.774 18.9336H226.817V19.7344C226.731 19.7682 226.624 19.8112 226.497 19.8633C226.369 19.9128 226.255 19.9518 226.153 19.9805C226.01 20.0195 225.88 20.0495 225.762 20.0703C225.648 20.0911 225.502 20.1016 225.325 20.1016ZM226.184 17.332C226.179 17.1341 226.156 16.9635 226.114 16.8203C226.072 16.6771 226.012 16.556 225.934 16.457C225.848 16.3477 225.738 16.2643 225.602 16.207C225.469 16.1497 225.304 16.1211 225.106 16.1211C224.911 16.1211 224.744 16.151 224.606 16.2109C224.471 16.2682 224.347 16.3529 224.235 16.4648C224.126 16.5794 224.042 16.707 223.985 16.8477C223.928 16.9857 223.891 17.1471 223.876 17.332H226.184ZM231.02 20H230.286V16.2539H228.786C228.778 16.4701 228.77 16.6784 228.762 16.8789C228.755 17.0768 228.747 17.2565 228.739 17.418C228.723 17.8268 228.696 18.1693 228.657 18.4453C228.621 18.7214 228.574 18.9427 228.516 19.1094C228.459 19.2812 228.395 19.4154 228.325 19.5117C228.257 19.6081 228.18 19.6953 228.094 19.7734C228.006 19.8516 227.911 19.9102 227.809 19.9492C227.708 19.9883 227.593 20.0078 227.466 20.0078C227.424 20.0078 227.371 20.0065 227.305 20.0039C227.24 20.0013 227.195 20 227.169 20V19.3594H227.208C227.226 19.3594 227.244 19.3607 227.262 19.3633C227.283 19.3659 227.307 19.3672 227.333 19.3672C227.395 19.3672 227.456 19.3581 227.516 19.3398C227.576 19.3216 227.63 19.2878 227.677 19.2383C227.807 19.1107 227.902 18.888 227.962 18.5703C228.022 18.25 228.065 17.8034 228.091 17.2305C228.101 17.0169 228.11 16.7643 228.118 16.4727C228.128 16.181 228.137 15.9023 228.145 15.6367H231.02V20ZM235.391 18.6484C235.391 18.8594 235.348 19.0508 235.262 19.2227C235.179 19.3945 235.065 19.5339 234.919 19.6406C234.747 19.7708 234.563 19.8633 234.368 19.918C234.173 19.9727 233.921 20 233.614 20H232.087V15.6367H232.821V17.3359H233.634C233.962 17.3359 234.216 17.3529 234.395 17.3867C234.578 17.4206 234.759 17.5039 234.938 17.6367C235.089 17.7487 235.203 17.8919 235.278 18.0664C235.354 18.2409 235.391 18.4349 235.391 18.6484ZM234.634 18.6602C234.634 18.5273 234.61 18.4115 234.563 18.3125C234.519 18.2109 234.445 18.1289 234.341 18.0664C234.231 18.0013 234.106 17.9622 233.966 17.9492C233.828 17.9362 233.628 17.9297 233.368 17.9297H232.821V19.4141H233.352C233.613 19.4141 233.815 19.4036 233.958 19.3828C234.101 19.3594 234.225 19.3164 234.329 19.2539C234.436 19.1862 234.512 19.1068 234.559 19.0156C234.609 18.9219 234.634 18.8034 234.634 18.6602Z" fill="#606580"/>
<path d="M191 7V31" stroke="#D7E2F2"/>
<path d="M286.616 20H281.585L283.624 14.1836H284.577L286.616 20ZM285.569 19.3281L284.081 14.9531L282.596 19.3281H285.569Z" fill="#606580"/>
<path d="M255 7V31" stroke="#D7E2F2"/>
<path d="M52.1055 20H51.332V14.9883L49.8164 18.3984H49.3477L47.8438 14.9883V20H47.1211V14.1836H48.1758L49.6289 17.4219L51.0312 14.1836H52.1055V20ZM55.6641 18.9258V17.7148C55.4896 17.7305 55.2682 17.7526 55 17.7812C54.7344 17.8073 54.5195 17.8451 54.3555 17.8945C54.1602 17.9544 53.9987 18.0469 53.8711 18.1719C53.7435 18.2943 53.6797 18.4661 53.6797 18.6875C53.6797 18.9375 53.75 19.1263 53.8906 19.2539C54.0312 19.3815 54.237 19.4453 54.5078 19.4453C54.7396 19.4453 54.9492 19.3958 55.1367 19.2969C55.3242 19.1953 55.5 19.0716 55.6641 18.9258ZM55.6641 19.5352C55.6042 19.5794 55.5234 19.6419 55.4219 19.7227C55.3229 19.8008 55.2266 19.8633 55.1328 19.9102C55.0026 19.9779 54.8763 20.0299 54.7539 20.0664C54.6341 20.1029 54.4648 20.1211 54.2461 20.1211C54.0664 20.1211 53.8958 20.0872 53.7344 20.0195C53.5729 19.9518 53.431 19.8568 53.3086 19.7344C53.1914 19.6146 53.0977 19.4674 53.0273 19.293C52.957 19.1159 52.9219 18.9297 52.9219 18.7344C52.9219 18.4323 52.9857 18.1758 53.1133 17.9648C53.2409 17.7513 53.4427 17.582 53.7188 17.457C53.9635 17.3451 54.2526 17.2682 54.5859 17.2266C54.9193 17.1823 55.2786 17.1497 55.6641 17.1289V16.9883C55.6641 16.8164 55.638 16.6784 55.5859 16.5742C55.5339 16.4674 55.4609 16.3854 55.3672 16.3281C55.2734 16.2682 55.1589 16.2292 55.0234 16.2109C54.888 16.1901 54.7487 16.1797 54.6055 16.1797C54.4362 16.1797 54.237 16.2057 54.0078 16.2578C53.7786 16.3073 53.5495 16.3802 53.3203 16.4766H53.2773V15.7305C53.4128 15.6914 53.6068 15.6484 53.8594 15.6016C54.112 15.5547 54.362 15.5312 54.6094 15.5312C54.9089 15.5312 55.1615 15.5547 55.3672 15.6016C55.5729 15.6484 55.7578 15.7331 55.9219 15.8555C56.0807 15.9753 56.1992 16.1302 56.2773 16.3203C56.3555 16.5104 56.3945 16.7422 56.3945 17.0156V20H55.6641V19.5352ZM60.6172 16.2812H59.1328V20H58.3984V16.2812H56.9141V15.6367H60.6172V16.2812ZM62.3086 20H61.375V18.8867H62.3086V20ZM69.5312 20H68.7969V16.2695H66.8203V20H66.0859V15.6367H69.5312V20ZM74.1836 17.8203C74.1836 18.5547 74.0065 19.1224 73.6523 19.5234C73.2982 19.9219 72.8268 20.1211 72.2383 20.1211C71.6315 20.1211 71.1536 19.9154 70.8047 19.5039C70.4583 19.0898 70.2852 18.5286 70.2852 17.8203C70.2852 17.0911 70.4635 16.5247 70.8203 16.1211C71.1797 15.7174 71.6523 15.5156 72.2383 15.5156C72.8268 15.5156 73.2982 15.7174 73.6523 16.1211C74.0065 16.5221 74.1836 17.0885 74.1836 17.8203ZM73.4258 17.8203C73.4258 17.2552 73.3229 16.8359 73.1172 16.5625C72.9115 16.2865 72.6185 16.1484 72.2383 16.1484C71.8555 16.1484 71.5599 16.2865 71.3516 16.5625C71.1458 16.8359 71.043 17.2552 71.043 17.8203C71.043 18.3672 71.1458 18.7826 71.3516 19.0664C71.5599 19.3477 71.8555 19.4883 72.2383 19.4883C72.6159 19.4883 72.9076 19.3503 73.1133 19.0742C73.3216 18.7956 73.4258 18.3776 73.4258 17.8203ZM78.125 16.2812H76.6406V20H75.9062V16.2812H74.4219V15.6367H78.125V16.2812ZM82.2617 17.8203C82.2617 18.5547 82.0846 19.1224 81.7305 19.5234C81.3763 19.9219 80.9049 20.1211 80.3164 20.1211C79.7096 20.1211 79.2318 19.9154 78.8828 19.5039C78.5365 19.0898 78.3633 18.5286 78.3633 17.8203C78.3633 17.0911 78.5417 16.5247 78.8984 16.1211C79.2578 15.7174 79.7305 15.5156 80.3164 15.5156C80.9049 15.5156 81.3763 15.7174 81.7305 16.1211C82.0846 16.5221 82.2617 17.0885 82.2617 17.8203ZM81.5039 17.8203C81.5039 17.2552 81.401 16.8359 81.1953 16.5625C80.9896 16.2865 80.6966 16.1484 80.3164 16.1484C79.9336 16.1484 79.638 16.2865 79.4297 16.5625C79.224 16.8359 79.1211 17.2552 79.1211 17.8203C79.1211 18.3672 79.224 18.7826 79.4297 19.0664C79.638 19.3477 79.9336 19.4883 80.3164 19.4883C80.694 19.4883 80.9857 19.3503 81.1914 19.0742C81.3997 18.7956 81.5039 18.3776 81.5039 17.8203ZM86.5273 20H85.6133L84.1172 17.9883H83.75V20H83.0156V15.6367H83.75V17.5352C83.9401 17.5326 84.1016 17.4935 84.2344 17.418C84.3698 17.3398 84.4844 17.1901 84.5781 16.9688C84.6068 16.9036 84.638 16.8281 84.6719 16.7422C84.7083 16.6562 84.737 16.5807 84.7578 16.5156C84.8724 16.1953 85.0312 15.9688 85.2344 15.8359C85.4375 15.7031 85.7018 15.6367 86.0273 15.6367H86.2266V16.2695H86.0586C85.8529 16.2695 85.6979 16.3125 85.5938 16.3984C85.4922 16.4818 85.4062 16.6354 85.3359 16.8594C85.263 17.0859 85.1771 17.263 85.0781 17.3906C84.9792 17.5156 84.8698 17.612 84.75 17.6797L86.5273 20Z" fill="#606580"/>
<defs>
<linearGradient id="paint0_linear" x1="20.6287" y1="45.5103" x2="72.0325" y2="45.5103" gradientUnits="userSpaceOnUse">
<stop stop-color="#8C99B2" stop-opacity="0.2"/>
<stop offset="0.838" stop-color="#8C99B2" stop-opacity="0"/>
</linearGradient>
<linearGradient id="paint1_linear" x1="20.6287" y1="73.0107" x2="72.0325" y2="73.0107" gradientUnits="userSpaceOnUse">
<stop stop-color="#8C99B2" stop-opacity="0.2"/>
<stop offset="0.838" stop-color="#8C99B2" stop-opacity="0"/>
</linearGradient>
<linearGradient id="paint2_linear" x1="21.0005" y1="99.4982" x2="75.6898" y2="99.4982" gradientUnits="userSpaceOnUse">
<stop stop-color="#FF8C00"/>
<stop offset="0.838" stop-color="#FF8C00" stop-opacity="0"/>
</linearGradient>
<linearGradient id="paint3_linear" x1="250.287" y1="99.4634" x2="309.132" y2="99.4634" gradientUnits="userSpaceOnUse">
<stop stop-color="#FF8C00"/>
<stop offset="0.838" stop-color="#FF8C00" stop-opacity="0"/>
</linearGradient>
</defs>
</svg>
