<svg width="324" height="118" viewBox="0 0 324 118" fill="none" xmlns="http://www.w3.org/2000/svg">
<path d="M51.9916 21.6378H49.1419V27.1001H48.3182V20.9056H51.9916V21.6378ZM56.4804 24.6539C56.4804 25.4277 56.2946 26.0448 55.9229 26.5052C55.5541 26.9628 55.0868 27.1916 54.521 27.1916C54.2908 27.1916 54.0869 27.1653 53.9094 27.1126C53.7319 27.0599 53.5503 26.9781 53.3645 26.8671V28.8141H52.5823V22.4532H53.3645V22.9399C53.5586 22.7652 53.7735 22.6196 54.0093 22.5031C54.2478 22.3839 54.5071 22.3242 54.7872 22.3242C55.3197 22.3242 55.7344 22.535 56.0311 22.9566C56.3306 23.3781 56.4804 23.9439 56.4804 24.6539ZM55.6733 24.7413C55.6733 24.2116 55.5887 23.8011 55.4196 23.5099C55.2504 23.2159 54.9758 23.0689 54.5959 23.0689C54.374 23.0689 54.159 23.1188 53.951 23.2187C53.7458 23.3157 53.5503 23.4419 53.3645 23.5972V26.2306C53.5697 26.3305 53.7444 26.3984 53.8886 26.4345C54.0356 26.4705 54.2034 26.4886 54.392 26.4886C54.7969 26.4886 55.1117 26.3402 55.3364 26.0434C55.561 25.7467 55.6733 25.3126 55.6733 24.7413ZM59.3093 27.2083C58.5688 27.2083 57.9933 27.0003 57.5829 26.5842C57.1752 26.1654 56.9713 25.5719 56.9713 24.8037C56.9713 24.0465 57.1696 23.4447 57.5662 22.9982C57.9628 22.5489 58.4814 22.3242 59.1221 22.3242C59.4105 22.3242 59.6657 22.3658 59.8876 22.449C60.1095 22.5322 60.3036 22.6626 60.47 22.8401C60.6364 23.0176 60.764 23.2353 60.8527 23.4932C60.9415 23.7484 60.9859 24.0618 60.9859 24.4334V24.8578H57.7659C57.7659 25.3986 57.9018 25.8118 58.1736 26.0975C58.4454 26.3832 58.8212 26.526 59.301 26.526C59.4729 26.526 59.6407 26.5066 59.8044 26.4678C59.9708 26.4289 60.1205 26.379 60.2537 26.318C60.3951 26.2542 60.5144 26.1932 60.6114 26.1349C60.7085 26.0739 60.7889 26.0171 60.8527 25.9644H60.8985V26.8172C60.807 26.8533 60.6933 26.899 60.5574 26.9545C60.4215 27.0072 60.2994 27.0488 60.1913 27.0793C60.0387 27.1209 59.9001 27.1528 59.7753 27.175C59.6532 27.1972 59.4979 27.2083 59.3093 27.2083ZM60.2246 24.2587C60.219 24.0479 60.194 23.8663 60.1497 23.7137C60.1053 23.5612 60.0415 23.4322 59.9583 23.3268C59.8668 23.2104 59.7489 23.1216 59.6047 23.0606C59.4632 22.9996 59.2871 22.9691 59.0763 22.9691C58.8683 22.9691 58.6908 23.001 58.5438 23.0647C58.3996 23.1258 58.2679 23.2159 58.1486 23.3352C58.0321 23.4572 57.9434 23.5931 57.8824 23.7429C57.8214 23.8898 57.7825 24.0618 57.7659 24.2587H60.2246ZM65.0711 23.1396C65.2514 23.3227 65.3915 23.5556 65.4913 23.8385C65.5912 24.1187 65.6411 24.4445 65.6411 24.8162C65.6411 25.1739 65.5842 25.5054 65.4705 25.8104C65.3568 26.1128 65.2029 26.3679 65.0087 26.5759C64.809 26.7922 64.5872 26.9559 64.3431 27.0668C64.1018 27.175 63.8383 27.2291 63.5527 27.2291C63.2615 27.2291 62.9938 27.1791 62.7498 27.0793C62.5085 26.9767 62.3019 26.82 62.1299 26.6092C61.9163 26.3457 61.7555 26.0157 61.6473 25.6191C61.5419 25.2225 61.4892 24.7316 61.4892 24.1464C61.4892 23.9384 61.4976 23.7276 61.5142 23.514C61.5336 23.2977 61.5738 23.0398 61.6348 22.7403C61.6903 22.474 61.7652 22.2272 61.8595 21.9997C61.9538 21.7696 62.0772 21.5754 62.2297 21.4173C62.4267 21.2121 62.6832 21.0485 62.9994 20.9264C63.3183 20.8044 63.7399 20.7198 64.2641 20.6727C64.4499 20.656 64.6482 20.6408 64.859 20.6269C65.0725 20.6103 65.2348 20.5978 65.3457 20.5895V21.3092C65.2015 21.3175 65.0476 21.3286 64.8839 21.3424C64.7203 21.3535 64.5331 21.3674 64.3223 21.384C64.0422 21.4062 63.7496 21.4562 63.4445 21.5338C63.1394 21.6087 62.9092 21.7266 62.7539 21.8874C62.6374 22.0067 62.5445 22.1772 62.4752 22.3991C62.4059 22.621 62.3573 22.8678 62.3296 23.1396C62.5348 22.9926 62.7539 22.8692 62.9869 22.7694C63.2226 22.6668 63.4764 22.6154 63.7482 22.6154C64.0006 22.6154 64.2405 22.6584 64.4679 22.7444C64.6953 22.8276 64.8964 22.9594 65.0711 23.1396ZM64.8465 24.8619C64.8465 24.3683 64.7355 23.9897 64.5137 23.7262C64.2918 23.4627 63.9756 23.331 63.5652 23.331C63.3405 23.331 63.1228 23.3684 62.912 23.4433C62.7012 23.5182 62.5029 23.618 62.3171 23.7429C62.3116 23.8122 62.306 23.8954 62.3005 23.9925C62.2949 24.0868 62.2921 24.1727 62.2921 24.2504C62.2921 24.733 62.331 25.1254 62.4086 25.4277C62.4863 25.73 62.5945 25.9671 62.7331 26.1391C62.8579 26.2944 62.9897 26.4026 63.1283 26.4636C63.267 26.5218 63.4182 26.551 63.5818 26.551C63.9812 26.551 64.2918 26.3998 64.5137 26.0975C64.7355 25.7952 64.8465 25.3833 64.8465 24.8619ZM68.4783 27.2083C67.7378 27.2083 67.1623 27.0003 66.7518 26.5842C66.3441 26.1654 66.1403 25.5719 66.1403 24.8037C66.1403 24.0465 66.3386 23.4447 66.7352 22.9982C67.1318 22.5489 67.6504 22.3242 68.2911 22.3242C68.5795 22.3242 68.8347 22.3658 69.0566 22.449C69.2784 22.5322 69.4726 22.6626 69.639 22.8401C69.8054 23.0176 69.933 23.2353 70.0217 23.4932C70.1105 23.7484 70.1548 24.0618 70.1548 24.4334V24.8578H66.9349C66.9349 25.3986 67.0708 25.8118 67.3426 26.0975C67.6144 26.3832 67.9902 26.526 68.47 26.526C68.6419 26.526 68.8097 26.5066 68.9734 26.4678C69.1398 26.4289 69.2895 26.379 69.4227 26.318C69.5641 26.2542 69.6834 26.1932 69.7804 26.1349C69.8775 26.0739 69.9579 26.0171 70.0217 25.9644H70.0675V26.8172C69.976 26.8533 69.8622 26.899 69.7263 26.9545C69.5904 27.0072 69.4684 27.0488 69.3603 27.0793C69.2077 27.1209 69.069 27.1528 68.9442 27.175C68.8222 27.1972 68.6669 27.2083 68.4783 27.2083ZM69.3935 24.2587C69.388 24.0479 69.363 23.8663 69.3187 23.7137C69.2743 23.5612 69.2105 23.4322 69.1273 23.3268C69.0358 23.2104 68.9179 23.1216 68.7737 23.0606C68.6322 22.9996 68.4561 22.9691 68.2453 22.9691C68.0373 22.9691 67.8598 23.001 67.7128 23.0647C67.5686 23.1258 67.4369 23.2159 67.3176 23.3352C67.2011 23.4572 67.1124 23.5931 67.0514 23.7429C66.9904 23.8898 66.9515 24.0618 66.9349 24.2587H69.3935ZM74.6145 27.1001H73.8324V25.0075H71.7274V27.1001H70.9453V22.4532H71.7274V24.3336H73.8324V22.4532H74.6145V27.1001ZM81.7076 28.215H80.9796V27.1001H75.7461V22.4532H76.5282V26.4386H78.1049V22.4532H78.887V26.4386H80.4637V22.4532H81.2458V26.4386H81.7076V28.215ZM86.1465 27.1001H85.3727V23.6347L83.1845 27.1001H82.4772V22.4532H83.251V25.8645L85.4143 22.4532H86.1465V27.1001ZM91.018 27.1001H90.0446L88.4512 24.9576H88.0602V27.1001H87.278V22.4532H88.0602V24.475C88.2626 24.4723 88.4346 24.4307 88.576 24.3502C88.7202 24.267 88.8423 24.1076 88.9421 23.8718C88.9726 23.8025 89.0059 23.7221 89.042 23.6305C89.0808 23.539 89.1113 23.4586 89.1335 23.3892C89.2555 23.0481 89.4247 22.8068 89.641 22.6654C89.8573 22.5239 90.1388 22.4532 90.4855 22.4532H90.6977V23.1271H90.5188C90.2997 23.1271 90.1347 23.1729 90.0237 23.2644C89.9156 23.3532 89.8241 23.5168 89.7492 23.7553C89.6715 23.9966 89.58 24.1852 89.4746 24.3211C89.3692 24.4542 89.2527 24.5569 89.1252 24.629L91.018 27.1001ZM95.3446 24.7787C95.3446 25.5608 95.156 26.1654 94.7788 26.5926C94.4016 27.0169 93.8996 27.2291 93.2728 27.2291C92.6266 27.2291 92.1177 27.01 91.7461 26.5718C91.3772 26.1308 91.1928 25.5331 91.1928 24.7787C91.1928 24.0022 91.3827 23.3989 91.7627 22.9691C92.1454 22.5392 92.6488 22.3242 93.2728 22.3242C93.8996 22.3242 94.4016 22.5392 94.7788 22.9691C95.156 23.3962 95.3446 23.9994 95.3446 24.7787ZM94.5375 24.7787C94.5375 24.1769 94.428 23.7304 94.2089 23.4392C93.9898 23.1452 93.6778 22.9982 93.2728 22.9982C92.8651 22.9982 92.5504 23.1452 92.3285 23.4392C92.1094 23.7304 91.9998 24.1769 91.9998 24.7787C91.9998 25.3612 92.1094 25.8035 92.3285 26.1058C92.5504 26.4054 92.8651 26.5551 93.2728 26.5551C93.675 26.5551 93.9856 26.4081 94.2047 26.1141C94.4266 25.8174 94.5375 25.3722 94.5375 24.7787ZM99.7918 25.694C99.7918 25.9186 99.7488 26.1183 99.6628 26.293C99.5769 26.465 99.459 26.6092 99.3092 26.7257C99.1206 26.8727 98.9223 26.9725 98.7143 27.0252C98.5091 27.0751 98.2622 27.1001 97.9738 27.1001H96.1475V22.4532H97.8532C98.1943 22.4532 98.4439 22.4643 98.602 22.4865C98.7601 22.5059 98.9168 22.5586 99.0721 22.6446C99.2357 22.7333 99.3564 22.8512 99.434 22.9982C99.5117 23.1452 99.5505 23.3199 99.5505 23.5224C99.5505 23.7442 99.4895 23.9439 99.3675 24.1214C99.2454 24.2962 99.0832 24.4321 98.8807 24.5291L98.9015 24.5582C99.1539 24.622 99.3647 24.751 99.5339 24.9451C99.7058 25.1393 99.7918 25.3889 99.7918 25.694ZM98.7476 23.643C98.7476 23.5376 98.7296 23.4461 98.6935 23.3684C98.6602 23.2908 98.6006 23.2298 98.5146 23.1854C98.4148 23.1327 98.3025 23.1022 98.1777 23.0939C98.0556 23.0828 97.8851 23.0772 97.666 23.0772H96.9213V24.3502H97.8199C98.0112 24.3502 98.1471 24.3419 98.2276 24.3253C98.308 24.3059 98.3968 24.267 98.4938 24.2088C98.5854 24.1533 98.6505 24.0784 98.6894 23.9841C98.7282 23.8898 98.7476 23.7761 98.7476 23.643ZM98.9847 25.6981C98.9847 25.54 98.9612 25.4138 98.914 25.3196C98.8696 25.2225 98.7698 25.1365 98.6145 25.0616C98.5174 25.0145 98.4134 24.9854 98.3025 24.9743C98.1915 24.9632 98.0376 24.9576 97.8407 24.9576H96.9213V26.4761H97.5994C97.8795 26.4761 98.0972 26.465 98.2525 26.4428C98.4079 26.4206 98.541 26.3762 98.6519 26.3097C98.7684 26.2376 98.853 26.1544 98.9057 26.0601C98.9584 25.9658 98.9847 25.8451 98.9847 25.6981ZM107.542 25.1989C107.542 25.5068 107.484 25.7786 107.367 26.0143C107.251 26.25 107.094 26.4442 106.897 26.5967C106.664 26.7798 106.415 26.9101 106.149 26.9878C105.882 27.0627 105.538 27.1001 105.117 27.1001H103.34V20.9056H104.984C105.425 20.9056 105.755 20.9209 105.974 20.9514C106.196 20.9791 106.408 21.0471 106.61 21.1552C106.832 21.2745 106.994 21.4312 107.097 21.6253C107.2 21.8167 107.251 22.0427 107.251 22.3034C107.251 22.5946 107.173 22.8554 107.018 23.0855C106.865 23.3157 106.653 23.496 106.381 23.6264V23.6596C106.75 23.7595 107.036 23.9425 107.238 24.2088C107.441 24.4723 107.542 24.8023 107.542 25.1989ZM106.394 22.4199C106.394 22.2702 106.369 22.1412 106.319 22.033C106.269 21.9221 106.189 21.8347 106.078 21.7709C105.945 21.6961 105.796 21.6503 105.633 21.6337C105.469 21.617 105.243 21.6087 104.955 21.6087H104.164V23.4225H105.1C105.358 23.4225 105.548 23.41 105.67 23.3851C105.792 23.3573 105.918 23.3019 106.049 23.2187C106.173 23.1382 106.262 23.0329 106.315 22.9025C106.368 22.7721 106.394 22.6113 106.394 22.4199ZM106.685 25.2322C106.685 24.9992 106.652 24.8079 106.585 24.6581C106.519 24.5055 106.384 24.3766 106.182 24.2712C106.051 24.2019 105.909 24.1575 105.753 24.1381C105.601 24.1187 105.383 24.1089 105.1 24.1089H104.164V26.397H104.834C105.194 26.397 105.479 26.3804 105.687 26.3471C105.895 26.3138 106.078 26.2431 106.236 26.1349C106.391 26.0268 106.505 25.9047 106.577 25.7688C106.649 25.6302 106.685 25.4513 106.685 25.2322ZM109.522 27.1001H108.528V25.9145H109.522V27.1001ZM116.254 27.1001H115.43V21.7626L113.816 25.3944H113.316L111.715 21.7626V27.1001H110.945V20.9056H112.068L113.616 24.3544L115.109 20.9056H116.254V27.1001ZM118.666 27.1001H117.672V25.9145H118.666V27.1001Z" fill="#303549"/>
<path d="M50.1309 40.0198C49.8068 40.0198 49.5082 39.9655 49.2352 39.8567C48.9643 39.7479 48.7301 39.5858 48.5325 39.3705C48.3349 39.1551 48.1817 38.8865 48.073 38.5646C47.9642 38.2427 47.9098 37.8731 47.9098 37.4557C47.9098 37.0405 47.962 36.6787 48.0663 36.3701C48.1729 36.0615 48.3272 35.7929 48.5292 35.5642C48.7268 35.3422 48.961 35.1735 49.2318 35.058C49.5027 34.9404 49.8057 34.8815 50.1409 34.8815C50.3074 34.8815 50.4628 34.8937 50.6071 34.9182C50.7537 34.9426 50.8891 34.9737 51.0134 35.0114C51.12 35.0447 51.2288 35.0869 51.3398 35.1379C51.453 35.1868 51.564 35.2412 51.6728 35.3011V36.097H51.6195C51.5618 36.0437 51.4874 35.9793 51.3964 35.9039C51.3054 35.8284 51.1944 35.754 51.0634 35.6808C50.9368 35.6119 50.7992 35.5553 50.6504 35.5109C50.5017 35.4665 50.3296 35.4443 50.1343 35.4443C49.9234 35.4443 49.7236 35.4876 49.5349 35.5742C49.3462 35.6608 49.1808 35.7884 49.0387 35.9571C48.8988 36.1259 48.79 36.3379 48.7123 36.5932C48.6346 36.8485 48.5958 37.136 48.5958 37.4557C48.5958 37.7954 48.6369 38.0884 48.719 38.3348C48.8011 38.579 48.9132 38.7855 49.0553 38.9542C49.193 39.1185 49.355 39.2428 49.5415 39.3272C49.728 39.4093 49.9256 39.4504 50.1343 39.4504C50.3252 39.4504 50.5017 39.4271 50.6638 39.3805C50.8258 39.3338 50.9701 39.275 51.0967 39.204C51.2188 39.1352 51.3242 39.0652 51.413 38.9942C51.5018 38.9209 51.5718 38.8588 51.6228 38.8077H51.6728V39.5936C51.564 39.6447 51.4608 39.6935 51.3631 39.7401C51.2676 39.7867 51.1511 39.8322 51.0134 39.8767C50.8691 39.9233 50.7348 39.9588 50.6105 39.9832C50.4884 40.0076 50.3285 40.0198 50.1309 40.0198ZM54.9562 36.7597H53.6908V39.9299H53.0647V36.7597H51.7993V36.2102H54.9562V36.7597ZM57.5004 39.0142V37.9818C57.3517 37.9952 57.163 38.014 56.9343 38.0384C56.7079 38.0606 56.5247 38.0928 56.3848 38.135C56.2183 38.1861 56.0807 38.2649 55.9719 38.3715C55.8631 38.4758 55.8087 38.6223 55.8087 38.811C55.8087 39.0242 55.8687 39.1851 55.9886 39.2939C56.1084 39.4027 56.2838 39.4571 56.5147 39.4571C56.7123 39.4571 56.891 39.4149 57.0508 39.3305C57.2107 39.2439 57.3605 39.1385 57.5004 39.0142ZM57.5004 39.5337C57.4493 39.5714 57.3805 39.6247 57.2939 39.6935C57.2096 39.7601 57.1274 39.8134 57.0475 39.8533C56.9365 39.9111 56.8288 39.9555 56.7245 39.9865C56.6224 40.0176 56.4781 40.0332 56.2916 40.0332C56.1384 40.0332 55.993 40.0043 55.8554 39.9466C55.7177 39.8889 55.5967 39.8078 55.4924 39.7035C55.3925 39.6014 55.3125 39.4759 55.2526 39.3272C55.1927 39.1762 55.1627 39.0175 55.1627 38.851C55.1627 38.5935 55.2171 38.3748 55.3259 38.195C55.4347 38.0129 55.6067 37.8686 55.842 37.7621C56.0507 37.6666 56.2971 37.6011 56.5813 37.5656C56.8655 37.5278 57.1718 37.5001 57.5004 37.4823V37.3624C57.5004 37.2159 57.4782 37.0983 57.4338 37.0095C57.3894 36.9184 57.3272 36.8485 57.2473 36.7997C57.1674 36.7486 57.0697 36.7153 56.9543 36.6998C56.8388 36.682 56.7201 36.6731 56.598 36.6731C56.4537 36.6731 56.2838 36.6953 56.0885 36.7397C55.8931 36.7819 55.6977 36.8441 55.5024 36.9262H55.4657V36.2902C55.5812 36.2569 55.7466 36.2202 55.9619 36.1803C56.1773 36.1403 56.3904 36.1203 56.6013 36.1203C56.8566 36.1203 57.0719 36.1403 57.2473 36.1803C57.4227 36.2202 57.5803 36.2924 57.7202 36.3967C57.8556 36.4988 57.9566 36.6309 58.0232 36.793C58.0898 36.9551 58.1231 37.1526 58.1231 37.3858V39.9299H57.5004V39.5337ZM62.1259 37.9718C62.1259 38.5912 61.9771 39.0852 61.6797 39.4537C61.3844 39.82 61.0103 40.0032 60.5574 40.0032C60.3732 40.0032 60.21 39.9821 60.0679 39.9399C59.9258 39.8977 59.7804 39.8322 59.6317 39.7434V41.3019H59.0056V36.2102H59.6317V36.5999C59.7871 36.46 59.9591 36.3434 60.1478 36.2502C60.3387 36.1547 60.5463 36.107 60.7705 36.107C61.1968 36.107 61.5287 36.2757 61.7662 36.6132C62.006 36.9506 62.1259 37.4035 62.1259 37.9718ZM61.4799 38.0418C61.4799 37.6177 61.4121 37.2892 61.2767 37.0561C61.1413 36.8207 60.9215 36.7031 60.6174 36.7031C60.4398 36.7031 60.2677 36.743 60.1012 36.823C59.9369 36.9007 59.7804 37.0017 59.6317 37.126V39.2339C59.7959 39.3139 59.9358 39.3683 60.0512 39.3971C60.1689 39.426 60.3032 39.4404 60.4542 39.4404C60.7783 39.4404 61.0303 39.3216 61.2101 39.0841C61.3899 38.8465 61.4799 38.4991 61.4799 38.0418ZM67.1776 39.9299H62.7753V36.2102H63.4013V39.4004H64.6634V36.2102H65.2895V39.4004H66.5516V36.2102H67.1776V39.9299ZM71.0205 39.9299H70.4011V37.156L68.6495 39.9299H68.0834V36.2102H68.7028V38.9409L70.4344 36.2102H71.0205V39.9299ZM74.8634 39.9299H74.244V37.156L72.4924 39.9299H71.9263V36.2102H72.5457V38.9409L74.2773 36.2102H74.8634V39.9299ZM74.5837 34.4819C74.5837 34.6728 74.5604 34.8471 74.5138 35.0047C74.4672 35.1601 74.4006 35.2911 74.314 35.3977C74.2141 35.5154 74.1008 35.6042 73.9743 35.6641C73.8478 35.7218 73.6857 35.7507 73.4881 35.7507C73.3061 35.7507 73.1462 35.7207 73.0086 35.6608C72.8732 35.5986 72.7588 35.5109 72.6656 35.3977C72.5746 35.2867 72.5057 35.1535 72.4591 34.9981C72.4125 34.8427 72.3892 34.6706 72.3892 34.4819H72.9287C72.9287 34.7816 72.9753 34.9981 73.0685 35.1313C73.1618 35.2623 73.3016 35.3278 73.4881 35.3278C73.6635 35.3278 73.8 35.2634 73.8977 35.1346C73.9954 35.0036 74.0442 34.7861 74.0442 34.4819H74.5837ZM80.9608 38.0717C80.9608 38.6978 80.8098 39.1818 80.5079 39.5237C80.206 39.8633 79.8042 40.0332 79.3024 40.0332C78.7852 40.0332 78.3778 39.8578 78.0803 39.507C77.785 39.154 77.6374 38.6756 77.6374 38.0717C77.6374 37.4501 77.7895 36.9673 78.0936 36.6232C78.4 36.2791 78.8029 36.107 79.3024 36.107C79.8042 36.107 80.206 36.2791 80.5079 36.6232C80.8098 36.9651 80.9608 37.4479 80.9608 38.0717ZM80.3148 38.0717C80.3148 37.59 80.2271 37.2326 80.0517 36.9995C79.8763 36.7641 79.6266 36.6465 79.3024 36.6465C78.9761 36.6465 78.7241 36.7641 78.5465 36.9995C78.3711 37.2326 78.2834 37.59 78.2834 38.0717C78.2834 38.538 78.3711 38.8921 78.5465 39.134C78.7241 39.3738 78.9761 39.4937 79.3024 39.4937C79.6243 39.4937 79.873 39.376 80.0484 39.1407C80.226 38.9032 80.3148 38.5468 80.3148 38.0717ZM84.5406 39.9299H83.9146V36.7497H82.2296V39.9299H81.6035V36.2102H84.5406V39.9299ZM87.0615 40.0165C86.4688 40.0165 86.0081 39.85 85.6795 39.517C85.3532 39.1818 85.19 38.7067 85.19 38.0917C85.19 37.4857 85.3487 37.0039 85.6662 36.6465C85.9837 36.2868 86.3988 36.107 86.9117 36.107C87.1425 36.107 87.3468 36.1403 87.5244 36.2069C87.702 36.2735 87.8574 36.3778 87.9906 36.5199C88.1238 36.662 88.2259 36.8363 88.297 37.0428C88.368 37.247 88.4035 37.4979 88.4035 37.7954V38.135H85.8261C85.8261 38.5679 85.9348 38.8987 86.1524 39.1274C86.37 39.356 86.6708 39.4704 87.0549 39.4704C87.1925 39.4704 87.3268 39.4548 87.4578 39.4238C87.591 39.3927 87.7109 39.3527 87.8174 39.3039C87.9307 39.2528 88.0261 39.204 88.1038 39.1574C88.1815 39.1085 88.2459 39.063 88.297 39.0208H88.3336V39.7035C88.2603 39.7323 88.1693 39.769 88.0605 39.8134C87.9518 39.8556 87.8541 39.8889 87.7675 39.9133C87.6454 39.9466 87.5344 39.9721 87.4345 39.9899C87.3368 40.0076 87.2125 40.0165 87.0615 40.0165ZM87.7941 37.6555C87.7897 37.4868 87.7697 37.3414 87.7342 37.2192C87.6987 37.0971 87.6476 36.9939 87.581 36.9096C87.5077 36.8163 87.4134 36.7453 87.2979 36.6964C87.1847 36.6476 87.0438 36.6232 86.875 36.6232C86.7085 36.6232 86.5664 36.6487 86.4488 36.6998C86.3333 36.7486 86.2279 36.8207 86.1324 36.9162C86.0392 37.0139 85.9681 37.1227 85.9193 37.2426C85.8705 37.3602 85.8394 37.4979 85.8261 37.6555H87.7941ZM92.1565 37.9718C92.1565 38.5912 92.0078 39.0852 91.7103 39.4537C91.415 39.82 91.041 40.0032 90.5881 40.0032C90.4038 40.0032 90.2406 39.9821 90.0985 39.9399C89.9565 39.8977 89.811 39.8322 89.6623 39.7434V41.3019H89.0362V36.2102H89.6623V36.5999C89.8177 36.46 89.9898 36.3434 90.1785 36.2502C90.3694 36.1547 90.577 36.107 90.8012 36.107C91.2274 36.107 91.5593 36.2757 91.7969 36.6132C92.0366 36.9506 92.1565 37.4035 92.1565 37.9718ZM91.5105 38.0418C91.5105 37.6177 91.4428 37.2892 91.3074 37.0561C91.1719 36.8207 90.9522 36.7031 90.648 36.7031C90.4704 36.7031 90.2983 36.743 90.1318 36.823C89.9676 36.9007 89.811 37.0017 89.6623 37.126V39.2339C89.8266 39.3139 89.9665 39.3683 90.0819 39.3971C90.1996 39.426 90.3339 39.4404 90.4848 39.4404C90.809 39.4404 91.0609 39.3216 91.2408 39.0841C91.4206 38.8465 91.5105 38.4991 91.5105 38.0418ZM94.8839 39.0142V37.9818C94.7351 37.9952 94.5464 38.014 94.3178 38.0384C94.0913 38.0606 93.9082 38.0928 93.7683 38.135C93.6018 38.1861 93.4641 38.2649 93.3554 38.3715C93.2466 38.4758 93.1922 38.6223 93.1922 38.811C93.1922 39.0242 93.2521 39.1851 93.372 39.2939C93.4919 39.4027 93.6673 39.4571 93.8982 39.4571C94.0957 39.4571 94.2745 39.4149 94.4343 39.3305C94.5942 39.2439 94.744 39.1385 94.8839 39.0142ZM94.8839 39.5337C94.8328 39.5714 94.764 39.6247 94.6774 39.6935C94.593 39.7601 94.5109 39.8134 94.431 39.8533C94.32 39.9111 94.2123 39.9555 94.108 39.9865C94.0058 40.0176 93.8615 40.0332 93.675 40.0332C93.5219 40.0332 93.3765 40.0043 93.2388 39.9466C93.1012 39.8889 92.9802 39.8078 92.8758 39.7035C92.7759 39.6014 92.696 39.4759 92.6361 39.3272C92.5761 39.1762 92.5462 39.0175 92.5462 38.851C92.5462 38.5935 92.6005 38.3748 92.7093 38.195C92.8181 38.0129 92.9902 37.8686 93.2255 37.7621C93.4342 37.6666 93.6806 37.6011 93.9648 37.5656C94.2489 37.5278 94.5553 37.5001 94.8839 37.4823V37.3624C94.8839 37.2159 94.8617 37.0983 94.8173 37.0095C94.7729 36.9184 94.7107 36.8485 94.6308 36.7997C94.5509 36.7486 94.4532 36.7153 94.3377 36.6998C94.2223 36.682 94.1035 36.6731 93.9814 36.6731C93.8371 36.6731 93.6673 36.6953 93.4719 36.7397C93.2765 36.7819 93.0812 36.8441 92.8858 36.9262H92.8492V36.2902C92.9646 36.2569 93.13 36.2202 93.3454 36.1803C93.5607 36.1403 93.7738 36.1203 93.9847 36.1203C94.2401 36.1203 94.4554 36.1403 94.6308 36.1803C94.8062 36.2202 94.9638 36.2924 95.1037 36.3967C95.2391 36.4988 95.3401 36.6309 95.4067 36.793C95.4733 36.9551 95.5066 37.1526 95.5066 37.3858V39.9299H94.8839V39.5337ZM99.1064 36.7597H97.841V39.9299H97.2149V36.7597H95.9495V36.2102H99.1064V36.7597ZM102.633 38.0717C102.633 38.6978 102.482 39.1818 102.18 39.5237C101.878 39.8633 101.476 40.0332 100.975 40.0332C100.457 40.0332 100.05 39.8578 99.7524 39.507C99.4572 39.154 99.3095 38.6756 99.3095 38.0717C99.3095 37.4501 99.4616 36.9673 99.7658 36.6232C100.072 36.2791 100.475 36.107 100.975 36.107C101.476 36.107 101.878 36.2791 102.18 36.6232C102.482 36.9651 102.633 37.4479 102.633 38.0717ZM101.987 38.0717C101.987 37.59 101.899 37.2326 101.724 36.9995C101.548 36.7641 101.299 36.6465 100.975 36.6465C100.648 36.6465 100.396 36.7641 100.219 36.9995C100.043 37.2326 99.9556 37.59 99.9556 38.0717C99.9556 38.538 100.043 38.8921 100.219 39.134C100.396 39.3738 100.648 39.4937 100.975 39.4937C101.296 39.4937 101.545 39.376 101.721 39.1407C101.898 38.9032 101.987 38.5468 101.987 38.0717ZM106.396 37.9718C106.396 38.5912 106.247 39.0852 105.95 39.4537C105.654 39.82 105.28 40.0032 104.827 40.0032C104.643 40.0032 104.48 39.9821 104.338 39.9399C104.196 39.8977 104.05 39.8322 103.902 39.7434V41.3019H103.276V36.2102H103.902V36.5999C104.057 36.46 104.229 36.3434 104.418 36.2502C104.609 36.1547 104.816 36.107 105.041 36.107C105.467 36.107 105.799 36.2757 106.036 36.6132C106.276 36.9506 106.396 37.4035 106.396 37.9718ZM105.75 38.0418C105.75 37.6177 105.682 37.2892 105.547 37.0561C105.411 36.8207 105.192 36.7031 104.887 36.7031C104.71 36.7031 104.538 36.743 104.371 36.823C104.207 36.9007 104.05 37.0017 103.902 37.126V39.2339C104.066 39.3139 104.206 39.3683 104.321 39.3971C104.439 39.426 104.573 39.4404 104.724 39.4404C105.048 39.4404 105.3 39.3216 105.48 39.0841C105.66 38.8465 105.75 38.4991 105.75 38.0418Z" fill="#606580"/>
<path d="M6.6 7.1001H126.3" stroke="#0089FF" stroke-width="0.5" stroke-miterlimit="10" stroke-dasharray="2 2"/>
<path d="M5.9 8.4C5.2 8.4 4.7 7.8 4.7 7.2C4.7 6.6 5.3 6 5.9 6C6.5 6 7.1 6.6 7.1 7.2C7.2 7.8 6.6 8.4 5.9 8.4Z" fill="#F5F8FD"/>
<path d="M5.9 6.2C6.4 6.2 6.8 6.6 6.8 7.1C6.8 7.6 6.4 8 5.9 8C5.4 8 5.1 7.6 5.1 7.1C5 6.6 5.4 6.2 5.9 6.2ZM5.9 5.5C5 5.5 4.3 6.2 4.3 7.1C4.3 8 5 8.7 5.9 8.7C6.8 8.7 7.5 8 7.5 7.1C7.5 6.3 6.8 5.5 5.9 5.5Z" fill="#0089FF"/>
<path d="M126.3 8.2999C126.963 8.2999 127.5 7.76264 127.5 7.0999C127.5 6.43716 126.963 5.8999 126.3 5.8999C125.637 5.8999 125.1 6.43716 125.1 7.0999C125.1 7.76264 125.637 8.2999 126.3 8.2999Z" fill="#F5F8FD"/>
<path d="M126.3 6.2C126.8 6.2 127.2 6.6 127.2 7.1C127.2 7.6 126.8 8 126.3 8C125.8 8 125.4 7.6 125.4 7.1C125.4 6.6 125.8 6.2 126.3 6.2ZM126.3 5.5C125.4 5.6 124.8 6.3 124.8 7.2C124.9 8 125.5 8.6 126.3 8.7C127.2 8.8 128 8.1 128 7.2C128 6.3 127.4 5.5 126.5 5.5C126.4 5.5 126.4 5.5 126.3 5.5Z" fill="#0089FF"/>
<path d="M311.1 112.5H12L6 106.5V72.5L12 66.5H311.1L317.1 72.5V106.5L311.1 112.5Z" stroke="#606580" stroke-width="0.5" stroke-miterlimit="10"/>
<path d="M23.4 112.5H12.5L6.3 106.3V72.7L12.5 66.5H23.4" stroke="#606580" stroke-miterlimit="10" stroke-linecap="round"/>
<path d="M300 66.5H310.9L317.1 72.7V106.3L310.9 112.5H300" stroke="#606580" stroke-width="1.5" stroke-miterlimit="10" stroke-linecap="round"/>
<path d="M87.849 93H86.4494V83.7186H81.6072V93H80.2075V82.4744H87.849V93ZM93.3132 93.1838C92.055 93.1838 91.0771 92.8303 90.3797 92.1235C89.6869 91.4119 89.3405 90.4034 89.3405 89.098C89.3405 87.8114 89.6775 86.7888 90.3514 86.0301C91.0253 85.2666 91.9065 84.8849 92.9951 84.8849C93.4853 84.8849 93.9188 84.9556 94.2958 85.097C94.6728 85.2384 95.0027 85.4599 95.2855 85.7615C95.5682 86.0631 95.785 86.433 95.9358 86.8713C96.0866 87.3048 96.162 87.8374 96.162 88.4688V89.1899H90.6907C90.6907 90.1088 90.9216 90.811 91.3834 91.2964C91.8453 91.7818 92.4838 92.0245 93.2991 92.0245C93.5913 92.0245 93.8764 91.9915 94.1544 91.9255C94.4372 91.8596 94.6917 91.7747 94.9179 91.6711C95.1582 91.5627 95.3609 91.459 95.5258 91.36C95.6907 91.2563 95.8274 91.1597 95.9358 91.0702H96.0136V92.5193C95.858 92.5806 95.6648 92.6583 95.4339 92.7526C95.203 92.8421 94.9956 92.9128 94.8118 92.9647C94.5527 93.0353 94.317 93.0895 94.105 93.1272C93.8976 93.1649 93.6337 93.1838 93.3132 93.1838ZM94.8684 88.172C94.859 87.8138 94.8166 87.5051 94.7412 87.2459C94.6658 86.9867 94.5574 86.7676 94.416 86.5885C94.2605 86.3906 94.0602 86.2398 93.8151 86.1361C93.5748 86.0324 93.2755 85.9806 92.9174 85.9806C92.5639 85.9806 92.2623 86.0348 92.0126 86.1432C91.7675 86.2469 91.5437 86.4 91.341 86.6027C91.1431 86.81 90.9923 87.0409 90.8886 87.2954C90.7849 87.5452 90.719 87.8374 90.6907 88.172H94.8684ZM104.129 88.8435C104.129 90.1583 103.813 91.2069 103.181 91.9892C102.555 92.7667 101.761 93.1555 100.799 93.1555C100.408 93.1555 100.062 93.1107 99.7601 93.0212C99.4585 92.9317 99.1498 92.7926 98.834 92.6041V95.9124H97.5051V85.1041H98.834V85.9311C99.1639 85.6342 99.5291 85.3868 99.9297 85.1889C100.335 84.9862 100.776 84.8849 101.252 84.8849C102.156 84.8849 102.861 85.2431 103.365 85.9594C103.874 86.6757 104.129 87.6371 104.129 88.8435ZM102.757 88.9919C102.757 88.0918 102.614 87.3944 102.326 86.8996C102.039 86.4 101.572 86.1503 100.926 86.1503C100.549 86.1503 100.184 86.2351 99.8307 86.4047C99.482 86.5697 99.1498 86.7841 98.834 87.048V91.5226C99.1828 91.6923 99.4797 91.8077 99.7247 91.869C99.9745 91.9302 100.26 91.9609 100.58 91.9609C101.268 91.9609 101.803 91.7088 102.185 91.2045C102.566 90.7003 102.757 89.9627 102.757 88.9919ZM108.935 93.1838C107.677 93.1838 106.699 92.8303 106.002 92.1235C105.309 91.4119 104.963 90.4034 104.963 89.098C104.963 87.8114 105.3 86.7888 105.974 86.0301C106.648 85.2666 107.529 84.8849 108.617 84.8849C109.107 84.8849 109.541 84.9556 109.918 85.097C110.295 85.2384 110.625 85.4599 110.908 85.7615C111.19 86.0631 111.407 86.433 111.558 86.8713C111.709 87.3048 111.784 87.8374 111.784 88.4688V89.1899H106.313C106.313 90.1088 106.544 90.811 107.006 91.2964C107.467 91.7818 108.106 92.0245 108.921 92.0245C109.214 92.0245 109.499 91.9915 109.777 91.9255C110.059 91.8596 110.314 91.7747 110.54 91.6711C110.78 91.5627 110.983 91.459 111.148 91.36C111.313 91.2563 111.45 91.1597 111.558 91.0702H111.636V92.5193C111.48 92.5806 111.287 92.6583 111.056 92.7526C110.825 92.8421 110.618 92.9128 110.434 92.9647C110.175 93.0353 109.939 93.0895 109.727 93.1272C109.52 93.1649 109.256 93.1838 108.935 93.1838ZM110.491 88.172C110.481 87.8138 110.439 87.5051 110.363 87.2459C110.288 86.9867 110.18 86.7676 110.038 86.5885C109.883 86.3906 109.682 86.2398 109.437 86.1361C109.197 86.0324 108.898 85.9806 108.54 85.9806C108.186 85.9806 107.885 86.0348 107.635 86.1432C107.39 86.2469 107.166 86.4 106.963 86.6027C106.765 86.81 106.615 87.0409 106.511 87.2954C106.407 87.5452 106.341 87.8374 106.313 88.172H110.491ZM119.899 94.8945H118.662V92.9788H113.46V94.8945H112.222V91.869H112.746C113.193 91.1338 113.559 90.1748 113.841 88.9919C114.129 87.8044 114.272 86.5084 114.272 85.1041H119.115V91.869H119.899V94.8945ZM117.786 91.869V86.2209H115.524C115.462 87.3991 115.3 88.4759 115.036 89.4514C114.777 90.4222 114.449 91.2281 114.053 91.869H117.786ZM125.625 91.0561V88.8647C125.309 88.893 124.909 88.933 124.423 88.9849C123.943 89.032 123.554 89.1003 123.257 89.1899C122.904 89.2983 122.611 89.4656 122.38 89.6918C122.15 89.9133 122.034 90.2243 122.034 90.6249C122.034 91.0773 122.161 91.4189 122.416 91.6498C122.67 91.8808 123.043 91.9962 123.533 91.9962C123.952 91.9962 124.331 91.9067 124.671 91.7276C125.01 91.5438 125.328 91.32 125.625 91.0561ZM125.625 92.1588C125.517 92.2389 125.371 92.352 125.187 92.4981C125.008 92.6395 124.833 92.7526 124.664 92.8374C124.428 92.9599 124.2 93.0542 123.978 93.1202C123.761 93.1861 123.455 93.2191 123.059 93.2191C122.734 93.2191 122.425 93.1579 122.133 93.0353C121.841 92.9128 121.584 92.7408 121.363 92.5193C121.15 92.3025 120.981 92.0363 120.854 91.7205C120.726 91.4001 120.663 91.0631 120.663 90.7097C120.663 90.163 120.778 89.6988 121.009 89.3171C121.24 88.9307 121.605 88.6244 122.105 88.3982C122.548 88.1955 123.071 88.0565 123.674 87.9811C124.277 87.901 124.928 87.8421 125.625 87.8044V87.5499C125.625 87.2389 125.578 86.9891 125.484 86.8006C125.389 86.6074 125.258 86.4589 125.088 86.3553C124.918 86.2469 124.711 86.1762 124.466 86.1432C124.221 86.1055 123.969 86.0866 123.709 86.0866C123.403 86.0866 123.043 86.1338 122.628 86.228C122.213 86.3176 121.798 86.4495 121.384 86.6239H121.306V85.2737C121.551 85.203 121.902 85.1253 122.359 85.0404C122.816 84.9556 123.269 84.9132 123.716 84.9132C124.258 84.9132 124.716 84.9556 125.088 85.0404C125.46 85.1253 125.795 85.2784 126.092 85.4999C126.379 85.7167 126.594 85.9971 126.735 86.3411C126.876 86.6851 126.947 87.1046 126.947 87.5994V93H125.625V92.1588ZM134.588 86.2704H131.902V93H130.573V86.2704H127.887V85.1041H134.588V86.2704ZM141.558 90.5542C141.558 90.9359 141.481 91.2823 141.325 91.5933C141.174 91.9043 140.967 92.1564 140.703 92.3497C140.392 92.5853 140.06 92.7526 139.706 92.8516C139.353 92.9505 138.898 93 138.342 93H135.578V85.1041H136.907V88.179H138.377C138.971 88.179 139.431 88.2097 139.756 88.2709C140.086 88.3322 140.413 88.483 140.738 88.7233C141.012 88.926 141.217 89.1852 141.353 89.5009C141.49 89.8166 141.558 90.1677 141.558 90.5542ZM140.187 90.5754C140.187 90.335 140.145 90.1253 140.06 89.9462C139.98 89.7625 139.845 89.614 139.657 89.5009C139.459 89.3831 139.233 89.3124 138.978 89.2888C138.728 89.2653 138.368 89.2535 137.897 89.2535H136.907V91.9397H137.868C138.34 91.9397 138.705 91.9208 138.964 91.8831C139.223 91.8407 139.447 91.7629 139.636 91.6498C139.829 91.5273 139.968 91.3836 140.053 91.2186C140.142 91.049 140.187 90.8346 140.187 90.5754ZM147.016 82.0008L142.894 95.2903H141.7L145.8 82.0008H147.016ZM154.608 93H153.279V86.2492H149.702V93H148.373V85.1041H154.608V93ZM163.154 88.8435C163.154 90.1583 162.838 91.2069 162.207 91.9892C161.58 92.7667 160.786 93.1555 159.824 93.1555C159.433 93.1555 159.087 93.1107 158.785 93.0212C158.484 92.9317 158.175 92.7926 157.859 92.6041V95.9124H156.53V85.1041H157.859V85.9311C158.189 85.6342 158.554 85.3868 158.955 85.1889C159.36 84.9862 159.801 84.8849 160.277 84.8849C161.182 84.8849 161.886 85.2431 162.39 85.9594C162.899 86.6757 163.154 87.6371 163.154 88.8435ZM161.782 88.9919C161.782 88.0918 161.639 87.3944 161.351 86.8996C161.064 86.4 160.597 86.1503 159.952 86.1503C159.575 86.1503 159.209 86.2351 158.856 86.4047C158.507 86.5697 158.175 86.7841 157.859 87.048V91.5226C158.208 91.6923 158.505 91.8077 158.75 91.869C159 91.9302 159.285 91.9609 159.605 91.9609C160.293 91.9609 160.828 91.7088 161.21 91.2045C161.592 90.7003 161.782 89.9627 161.782 88.9919ZM170.767 93H169.452V87.1116L165.734 93H164.532V85.1041H165.847V90.9005L169.523 85.1041H170.767V93ZM178.924 93H177.596V89.4444H174.019V93H172.69V85.1041H174.019V88.2992H177.596V85.1041H178.924V93ZM186.566 93H185.237V89.8685H183.922L181.582 93H180.034L182.572 89.7483C181.917 89.5551 181.436 89.2676 181.13 88.8859C180.828 88.5042 180.678 87.9929 180.678 87.352C180.678 86.9608 180.762 86.6192 180.932 86.327C181.106 86.0301 181.34 85.7803 181.632 85.5777C181.867 85.4174 182.164 85.2996 182.523 85.2242C182.881 85.1441 183.281 85.1041 183.724 85.1041H186.566V93ZM185.237 88.8223V86.1644H183.795C183.489 86.1644 183.246 86.1809 183.067 86.2139C182.892 86.2469 182.723 86.3105 182.558 86.4047C182.388 86.5084 182.259 86.6498 182.169 86.8289C182.084 87.0032 182.042 87.1917 182.042 87.3944C182.042 87.6536 182.07 87.8656 182.127 88.0306C182.188 88.1908 182.296 88.3393 182.452 88.4759C182.617 88.6173 182.817 88.7115 183.053 88.7587C183.293 88.8011 183.555 88.8223 183.837 88.8223H185.237ZM194.264 86.2704H191.578V93H190.249V86.2704H187.563V85.1041H194.264V86.2704ZM201.234 90.5542C201.234 90.9359 201.156 91.2823 201.001 91.5933C200.85 91.9043 200.642 92.1564 200.379 92.3497C200.067 92.5853 199.735 92.7526 199.382 92.8516C199.028 92.9505 198.574 93 198.017 93H195.254V85.1041H196.583V88.179H198.053C198.647 88.179 199.106 88.2097 199.431 88.2709C199.761 88.3322 200.089 88.483 200.414 88.7233C200.687 88.926 200.892 89.1852 201.029 89.5009C201.166 89.8166 201.234 90.1677 201.234 90.5542ZM199.862 90.5754C199.862 90.335 199.82 90.1253 199.735 89.9462C199.655 89.7625 199.521 89.614 199.332 89.5009C199.134 89.3831 198.908 89.3124 198.654 89.2888C198.404 89.2653 198.043 89.2535 197.572 89.2535H196.583V91.9397H197.544C198.015 91.9397 198.38 91.9208 198.64 91.8831C198.899 91.8407 199.123 91.7629 199.311 91.6498C199.504 91.5273 199.643 91.3836 199.728 91.2186C199.818 91.049 199.862 90.8346 199.862 90.5754ZM210.169 93.1767C209.627 93.1767 209.13 93.0943 208.677 92.9293C208.225 92.7597 207.836 92.5052 207.511 92.1659C207.186 91.8266 206.934 91.4001 206.755 90.8864C206.576 90.368 206.486 89.7601 206.486 89.0626C206.486 88.3699 206.578 87.7714 206.762 87.2671C206.95 86.7629 207.2 86.3388 207.511 85.9947C207.822 85.6507 208.208 85.3868 208.67 85.203C209.137 85.0145 209.636 84.9203 210.169 84.9203C210.602 84.9203 211.02 84.9815 211.42 85.1041C211.825 85.2266 212.186 85.368 212.502 85.5282V87.0197H212.424C212.33 86.9396 212.207 86.8477 212.056 86.744C211.91 86.6404 211.731 86.5343 211.519 86.4259C211.335 86.3317 211.118 86.2492 210.869 86.1785C210.619 86.1078 210.379 86.0725 210.148 86.0725C209.46 86.0725 208.906 86.334 208.487 86.8571C208.072 87.3755 207.864 88.1107 207.864 89.0626C207.864 89.9957 208.065 90.7238 208.465 91.2469C208.871 91.7653 209.431 92.0245 210.148 92.0245C210.581 92.0245 210.994 91.935 211.385 91.7559C211.776 91.5768 212.122 91.3459 212.424 91.0631H212.502V92.5547C212.37 92.6159 212.205 92.6913 212.007 92.7809C211.809 92.8657 211.63 92.9293 211.47 92.9717C211.243 93.0377 211.041 93.0872 210.862 93.1202C210.683 93.1579 210.452 93.1767 210.169 93.1767ZM221.041 93H219.726V86.7935L217.832 90.8228H216.842L214.962 86.7935V93H213.717V85.1041H215.322L217.4 89.4868L219.408 85.1041H221.041V93ZM226.392 93.1838C225.134 93.1838 224.156 92.8303 223.458 92.1235C222.766 91.4119 222.419 90.4034 222.419 89.098C222.419 87.8114 222.756 86.7888 223.43 86.0301C224.104 85.2666 224.985 84.8849 226.074 84.8849C226.564 84.8849 226.998 84.9556 227.375 85.097C227.752 85.2384 228.081 85.4599 228.364 85.7615C228.647 86.0631 228.864 86.433 229.015 86.8713C229.165 87.3048 229.241 87.8374 229.241 88.4688V89.1899H223.769C223.769 90.1088 224 90.811 224.462 91.2964C224.924 91.7818 225.563 92.0245 226.378 92.0245C226.67 92.0245 226.955 91.9915 227.233 91.9255C227.516 91.8596 227.77 91.7747 227.997 91.6711C228.237 91.5627 228.44 91.459 228.605 91.36C228.769 91.2563 228.906 91.1597 229.015 91.0702H229.092V92.5193C228.937 92.5806 228.744 92.6583 228.513 92.7526C228.282 92.8421 228.074 92.9128 227.891 92.9647C227.631 93.0353 227.396 93.0895 227.184 93.1272C226.976 93.1649 226.712 93.1838 226.392 93.1838ZM227.947 88.172C227.938 87.8138 227.895 87.5051 227.82 87.2459C227.744 86.9867 227.636 86.7676 227.495 86.5885C227.339 86.3906 227.139 86.2398 226.894 86.1361C226.654 86.0324 226.354 85.9806 225.996 85.9806C225.643 85.9806 225.341 86.0348 225.091 86.1432C224.846 86.2469 224.622 86.4 224.42 86.6027C224.222 86.81 224.071 87.0409 223.967 87.2954C223.864 87.5452 223.798 87.8374 223.769 88.172H227.947ZM236.819 93H235.49V89.4444H231.913V93H230.584V85.1041H231.913V88.2992H235.49V85.1041H236.819V93ZM244.948 85.1041L240.699 95.9124H239.279L240.692 92.6183L237.822 85.1041H239.257L241.413 90.95L243.562 85.1041H244.948Z" fill="#303549"/>
<path d="M240.896 27.1001V21.6378H238.816V20.9056H243.8V21.6378H241.72V27.1001H240.896ZM248.185 24.7787C248.185 25.5608 247.996 26.1654 247.619 26.5926C247.242 27.0169 246.74 27.2291 246.113 27.2291C245.467 27.2291 244.958 27.01 244.586 26.5718C244.217 26.1308 244.033 25.5331 244.033 24.7787C244.033 24.0022 244.223 23.3989 244.603 22.9691C244.985 22.5392 245.489 22.3242 246.113 22.3242C246.74 22.3242 247.242 22.5392 247.619 22.9691C247.996 23.3962 248.185 23.9994 248.185 24.7787ZM247.378 24.7787C247.378 24.1769 247.268 23.7304 247.049 23.4392C246.83 23.1452 246.518 22.9982 246.113 22.9982C245.705 22.9982 245.39 23.1452 245.168 23.4392C244.949 23.7304 244.84 24.1769 244.84 24.7787C244.84 25.3612 244.949 25.8035 245.168 26.1058C245.39 26.4054 245.705 26.5551 246.113 26.5551C246.515 26.5551 246.826 26.4081 247.045 26.1141C247.267 25.8174 247.378 25.3722 247.378 24.7787ZM252.728 27.1001H251.754L250.161 24.9576H249.77V27.1001H248.988V22.4532H249.77V24.475C249.972 24.4723 250.144 24.4307 250.285 24.3502C250.43 24.267 250.552 24.1076 250.652 23.8718C250.682 23.8025 250.715 23.7221 250.751 23.6305C250.79 23.539 250.821 23.4586 250.843 23.3892C250.965 23.0481 251.134 22.8068 251.35 22.6654C251.567 22.5239 251.848 22.4532 252.195 22.4532H252.407V23.1271H252.228C252.009 23.1271 251.844 23.1729 251.733 23.2644C251.625 23.3532 251.534 23.5168 251.459 23.7553C251.381 23.9966 251.289 24.1852 251.184 24.3211C251.079 24.4542 250.962 24.5569 250.835 24.629L252.728 27.1001ZM255.827 25.9561V24.6664C255.641 24.683 255.405 24.7066 255.12 24.7371C254.837 24.7649 254.608 24.8051 254.433 24.8578C254.225 24.9216 254.053 25.02 253.917 25.1531C253.781 25.2835 253.713 25.4665 253.713 25.7023C253.713 25.9685 253.788 26.1696 253.938 26.3055C254.088 26.4414 254.307 26.5094 254.595 26.5094C254.842 26.5094 255.066 26.4567 255.265 26.3513C255.465 26.2431 255.652 26.1114 255.827 25.9561ZM255.827 26.605C255.763 26.6522 255.677 26.7187 255.569 26.8047C255.463 26.8879 255.361 26.9545 255.261 27.0044C255.122 27.0765 254.988 27.132 254.858 27.1708C254.73 27.2096 254.55 27.2291 254.317 27.2291C254.125 27.2291 253.944 27.193 253.772 27.1209C253.6 27.0488 253.449 26.9476 253.318 26.8172C253.193 26.6896 253.094 26.5329 253.019 26.3471C252.944 26.1585 252.906 25.9602 252.906 25.7522C252.906 25.4305 252.974 25.1573 253.11 24.9327C253.246 24.7052 253.461 24.525 253.755 24.3918C254.016 24.2726 254.324 24.1908 254.679 24.1464C255.034 24.0992 255.416 24.0646 255.827 24.0424V23.8926C255.827 23.7096 255.799 23.5626 255.744 23.4516C255.688 23.3379 255.61 23.2506 255.511 23.1896C255.411 23.1258 255.289 23.0842 255.145 23.0647C255 23.0426 254.852 23.0315 254.699 23.0315C254.519 23.0315 254.307 23.0592 254.063 23.1147C253.819 23.1674 253.575 23.245 253.331 23.3476H253.285V22.553C253.429 22.5114 253.636 22.4657 253.905 22.4158C254.174 22.3658 254.44 22.3409 254.704 22.3409C255.023 22.3409 255.292 22.3658 255.511 22.4158C255.73 22.4657 255.927 22.5558 256.101 22.6862C256.271 22.8137 256.397 22.9788 256.48 23.1812C256.563 23.3837 256.605 23.6305 256.605 23.9217V27.1001H255.827V26.605ZM261.605 24.6539C261.605 25.4277 261.419 26.0448 261.048 26.5052C260.679 26.9628 260.212 27.1916 259.646 27.1916C259.416 27.1916 259.212 27.1653 259.034 27.1126C258.857 27.0599 258.675 26.9781 258.489 26.8671V28.8141H257.707V22.4532H258.489V22.9399C258.683 22.7652 258.898 22.6196 259.134 22.5031C259.373 22.3839 259.632 22.3242 259.912 22.3242C260.445 22.3242 260.859 22.535 261.156 22.9566C261.456 23.3781 261.605 23.9439 261.605 24.6539ZM260.798 24.7413C260.798 24.2116 260.714 23.8011 260.544 23.5099C260.375 23.2159 260.101 23.0689 259.721 23.0689C259.499 23.0689 259.284 23.1188 259.076 23.2187C258.871 23.3157 258.675 23.4419 258.489 23.5972V26.2306C258.695 26.3305 258.869 26.3984 259.013 26.4345C259.16 26.4705 259.328 26.4886 259.517 26.4886C259.922 26.4886 260.237 26.3402 260.461 26.0434C260.686 25.7467 260.798 25.3126 260.798 24.7413ZM264.434 27.2083C263.694 27.2083 263.118 27.0003 262.708 26.5842C262.3 26.1654 262.096 25.5719 262.096 24.8037C262.096 24.0465 262.294 23.4447 262.691 22.9982C263.088 22.5489 263.606 22.3242 264.247 22.3242C264.535 22.3242 264.791 22.3658 265.012 22.449C265.234 22.5322 265.428 22.6626 265.595 22.8401C265.761 23.0176 265.889 23.2353 265.978 23.4932C266.066 23.7484 266.111 24.0618 266.111 24.4334V24.8578H262.891C262.891 25.3986 263.027 25.8118 263.298 26.0975C263.57 26.3832 263.946 26.526 264.426 26.526C264.598 26.526 264.766 26.5066 264.929 26.4678C265.096 26.4289 265.245 26.379 265.379 26.318C265.52 26.2542 265.639 26.1932 265.736 26.1349C265.833 26.0739 265.914 26.0171 265.978 25.9644H266.023V26.8172C265.932 26.8533 265.818 26.899 265.682 26.9545C265.546 27.0072 265.424 27.0488 265.316 27.0793C265.164 27.1209 265.025 27.1528 264.9 27.175C264.778 27.1972 264.623 27.2083 264.434 27.2083ZM265.349 24.2587C265.344 24.0479 265.319 23.8663 265.275 23.7137C265.23 23.5612 265.166 23.4322 265.083 23.3268C264.992 23.2104 264.874 23.1216 264.73 23.0606C264.588 22.9996 264.412 22.9691 264.201 22.9691C263.993 22.9691 263.816 23.001 263.669 23.0647C263.524 23.1258 263.393 23.2159 263.273 23.3352C263.157 23.4572 263.068 23.5931 263.007 23.7429C262.946 23.8898 262.907 24.0618 262.891 24.2587H265.349ZM270.545 25.694C270.545 25.9186 270.502 26.1183 270.416 26.293C270.331 26.465 270.213 26.6092 270.063 26.7257C269.874 26.8727 269.676 26.9725 269.468 27.0252C269.263 27.0751 269.016 27.1001 268.727 27.1001H266.901V22.4532H268.607C268.948 22.4532 269.198 22.4643 269.356 22.4865C269.514 22.5059 269.67 22.5586 269.826 22.6446C269.989 22.7333 270.11 22.8512 270.188 22.9982C270.265 23.1452 270.304 23.3199 270.304 23.5224C270.304 23.7442 270.243 23.9439 270.121 24.1214C269.999 24.2962 269.837 24.4321 269.634 24.5291L269.655 24.5582C269.908 24.622 270.118 24.751 270.288 24.9451C270.459 25.1393 270.545 25.3889 270.545 25.694ZM269.501 23.643C269.501 23.5376 269.483 23.4461 269.447 23.3684C269.414 23.2908 269.354 23.2298 269.268 23.1854C269.168 23.1327 269.056 23.1022 268.931 23.0939C268.809 23.0828 268.639 23.0772 268.42 23.0772H267.675V24.3502H268.574C268.765 24.3502 268.901 24.3419 268.981 24.3253C269.062 24.3059 269.15 24.267 269.247 24.2088C269.339 24.1533 269.404 24.0784 269.443 23.9841C269.482 23.8898 269.501 23.7761 269.501 23.643ZM269.738 25.6981C269.738 25.54 269.715 25.4138 269.668 25.3196C269.623 25.2225 269.523 25.1365 269.368 25.0616C269.271 25.0145 269.167 24.9854 269.056 24.9743C268.945 24.9632 268.791 24.9576 268.594 24.9576H267.675V26.4761H268.353C268.633 26.4761 268.851 26.465 269.006 26.4428C269.162 26.4206 269.295 26.3762 269.406 26.3097C269.522 26.2376 269.607 26.1544 269.659 26.0601C269.712 25.9658 269.738 25.8451 269.738 25.6981ZM273.424 27.1001L275.513 20.9056H276.528L278.616 27.1001H277.747L277.185 25.3695H274.818L274.256 27.1001H273.424ZM276.956 24.6664L275.999 21.746L275.047 24.6664H276.956ZM280.359 27.1001H279.365V25.9145H280.359V27.1001ZM287.09 27.1001H286.267V21.7626L284.653 25.3944H284.153L282.552 21.7626V27.1001H281.782V20.9056H282.905L284.453 24.3544L285.946 20.9056H287.09V27.1001ZM289.503 27.1001H288.509V25.9145H289.503V27.1001Z" fill="#303549"/>
<path d="M241.261 40.0198C240.937 40.0198 240.638 39.9655 240.365 39.8567C240.094 39.7479 239.86 39.5858 239.663 39.3705C239.465 39.1551 239.312 38.8865 239.203 38.5646C239.094 38.2427 239.04 37.8731 239.04 37.4557C239.04 37.0405 239.092 36.6787 239.196 36.3701C239.303 36.0615 239.457 35.7929 239.659 35.5642C239.857 35.3422 240.091 35.1735 240.362 35.058C240.633 34.9404 240.936 34.8815 241.271 34.8815C241.438 34.8815 241.593 34.8937 241.737 34.9182C241.884 34.9426 242.019 34.9737 242.144 35.0114C242.25 35.0447 242.359 35.0869 242.47 35.1379C242.583 35.1868 242.694 35.2412 242.803 35.3011V36.097H242.75C242.692 36.0437 242.617 35.9793 242.526 35.9039C242.435 35.8284 242.324 35.754 242.193 35.6808C242.067 35.6119 241.929 35.5553 241.781 35.5109C241.632 35.4665 241.46 35.4443 241.264 35.4443C241.053 35.4443 240.854 35.4876 240.665 35.5742C240.476 35.6608 240.311 35.7884 240.169 35.9571C240.029 36.1259 239.92 36.3379 239.842 36.5932C239.765 36.8485 239.726 37.136 239.726 37.4557C239.726 37.7954 239.767 38.0884 239.849 38.3348C239.931 38.579 240.043 38.7855 240.185 38.9542C240.323 39.1185 240.485 39.2428 240.672 39.3272C240.858 39.4093 241.056 39.4504 241.264 39.4504C241.455 39.4504 241.632 39.4271 241.794 39.3805C241.956 39.3338 242.1 39.275 242.227 39.204C242.349 39.1352 242.454 39.0652 242.543 38.9942C242.632 38.9209 242.702 38.8588 242.753 38.8077H242.803V39.5936C242.694 39.6447 242.591 39.6935 242.493 39.7401C242.398 39.7867 242.281 39.8322 242.144 39.8767C241.999 39.9233 241.865 39.9588 241.741 39.9832C241.618 40.0076 241.459 40.0198 241.261 40.0198ZM246.086 36.7597H244.821V39.9299H244.195V36.7597H242.929V36.2102H246.086V36.7597ZM248.631 39.0142V37.9818C248.482 37.9952 248.293 38.014 248.064 38.0384C247.838 38.0606 247.655 38.0928 247.515 38.135C247.348 38.1861 247.211 38.2649 247.102 38.3715C246.993 38.4758 246.939 38.6223 246.939 38.811C246.939 39.0242 246.999 39.1851 247.119 39.2939C247.239 39.4027 247.414 39.4571 247.645 39.4571C247.842 39.4571 248.021 39.4149 248.181 39.3305C248.341 39.2439 248.491 39.1385 248.631 39.0142ZM248.631 39.5337C248.579 39.5714 248.511 39.6247 248.424 39.6935C248.34 39.7601 248.258 39.8134 248.178 39.8533C248.067 39.9111 247.959 39.9555 247.855 39.9865C247.752 40.0176 247.608 40.0332 247.422 40.0332C247.269 40.0332 247.123 40.0043 246.985 39.9466C246.848 39.8889 246.727 39.8078 246.622 39.7035C246.523 39.6014 246.443 39.4759 246.383 39.3272C246.323 39.1762 246.293 39.0175 246.293 38.851C246.293 38.5935 246.347 38.3748 246.456 38.195C246.565 38.0129 246.737 37.8686 246.972 37.7621C247.181 37.6666 247.427 37.6011 247.711 37.5656C247.996 37.5278 248.302 37.5001 248.631 37.4823V37.3624C248.631 37.2159 248.608 37.0983 248.564 37.0095C248.52 36.9184 248.457 36.8485 248.377 36.7997C248.298 36.7486 248.2 36.7153 248.084 36.6998C247.969 36.682 247.85 36.6731 247.728 36.6731C247.584 36.6731 247.414 36.6953 247.219 36.7397C247.023 36.7819 246.828 36.8441 246.632 36.9262H246.596V36.2902C246.711 36.2569 246.877 36.2202 247.092 36.1803C247.307 36.1403 247.52 36.1203 247.731 36.1203C247.987 36.1203 248.202 36.1403 248.377 36.1803C248.553 36.2202 248.71 36.2924 248.85 36.3967C248.986 36.4988 249.087 36.6309 249.153 36.793C249.22 36.9551 249.253 37.1526 249.253 37.3858V39.9299H248.631V39.5337ZM253.256 37.9718C253.256 38.5912 253.107 39.0852 252.81 39.4537C252.514 39.82 252.14 40.0032 251.688 40.0032C251.503 40.0032 251.34 39.9821 251.198 39.9399C251.056 39.8977 250.911 39.8322 250.762 39.7434V41.3019H250.136V36.2102H250.762V36.5999C250.917 36.46 251.089 36.3434 251.278 36.2502C251.469 36.1547 251.676 36.107 251.901 36.107C252.327 36.107 252.659 36.2757 252.896 36.6132C253.136 36.9506 253.256 37.4035 253.256 37.9718ZM252.61 38.0418C252.61 37.6177 252.542 37.2892 252.407 37.0561C252.271 36.8207 252.052 36.7031 251.747 36.7031C251.57 36.7031 251.398 36.743 251.231 36.823C251.067 36.9007 250.911 37.0017 250.762 37.126V39.2339C250.926 39.3139 251.066 39.3683 251.181 39.3971C251.299 39.426 251.433 39.4404 251.584 39.4404C251.908 39.4404 252.16 39.3216 252.34 39.0841C252.52 38.8465 252.61 38.4991 252.61 38.0418ZM258.308 39.9299H253.905V36.2102H254.531V39.4004H255.794V36.2102H256.42V39.4004H257.682V36.2102H258.308V39.9299ZM262.151 39.9299H261.531V37.156L259.78 39.9299H259.213V36.2102H259.833V38.9409L261.565 36.2102H262.151V39.9299ZM265.994 39.9299H265.374V37.156L263.623 39.9299H263.056V36.2102H263.676V38.9409L265.407 36.2102H265.994V39.9299ZM265.714 34.4819C265.714 34.6728 265.691 34.8471 265.644 35.0047C265.597 35.1601 265.531 35.2911 265.444 35.3977C265.344 35.5154 265.231 35.6042 265.104 35.6641C264.978 35.7218 264.816 35.7507 264.618 35.7507C264.436 35.7507 264.276 35.7207 264.139 35.6608C264.003 35.5986 263.889 35.5109 263.796 35.3977C263.705 35.2867 263.636 35.1535 263.589 34.9981C263.543 34.8427 263.519 34.6706 263.519 34.4819H264.059C264.059 34.7816 264.105 34.9981 264.199 35.1313C264.292 35.2623 264.432 35.3278 264.618 35.3278C264.794 35.3278 264.93 35.2634 265.028 35.1346C265.125 35.0036 265.174 34.7861 265.174 34.4819H265.714ZM272.091 38.0717C272.091 38.6978 271.94 39.1818 271.638 39.5237C271.336 39.8633 270.934 40.0332 270.433 40.0332C269.915 40.0332 269.508 39.8578 269.21 39.507C268.915 39.154 268.767 38.6756 268.767 38.0717C268.767 37.4501 268.92 36.9673 269.224 36.6232C269.53 36.2791 269.933 36.107 270.433 36.107C270.934 36.107 271.336 36.2791 271.638 36.6232C271.94 36.9651 272.091 37.4479 272.091 38.0717ZM271.445 38.0717C271.445 37.59 271.357 37.2326 271.182 36.9995C271.006 36.7641 270.757 36.6465 270.433 36.6465C270.106 36.6465 269.854 36.7641 269.677 36.9995C269.501 37.2326 269.414 37.59 269.414 38.0717C269.414 38.538 269.501 38.8921 269.677 39.134C269.854 39.3738 270.106 39.4937 270.433 39.4937C270.754 39.4937 271.003 39.376 271.178 39.1407C271.356 38.9032 271.445 38.5468 271.445 38.0717ZM275.671 39.9299H275.045V36.7497H273.36V39.9299H272.734V36.2102H275.671V39.9299ZM278.192 40.0165C277.599 40.0165 277.138 39.85 276.81 39.517C276.483 39.1818 276.32 38.7067 276.32 38.0917C276.32 37.4857 276.479 37.0039 276.796 36.6465C277.114 36.2868 277.529 36.107 278.042 36.107C278.273 36.107 278.477 36.1403 278.654 36.2069C278.832 36.2735 278.988 36.3778 279.121 36.5199C279.254 36.662 279.356 36.8363 279.427 37.0428C279.498 37.247 279.534 37.4979 279.534 37.7954V38.135H276.956C276.956 38.5679 277.065 38.8987 277.283 39.1274C277.5 39.356 277.801 39.4704 278.185 39.4704C278.323 39.4704 278.457 39.4548 278.588 39.4238C278.721 39.3927 278.841 39.3527 278.948 39.3039C279.061 39.2528 279.156 39.204 279.234 39.1574C279.312 39.1085 279.376 39.063 279.427 39.0208H279.464V39.7035C279.39 39.7323 279.299 39.769 279.191 39.8134C279.082 39.8556 278.984 39.8889 278.898 39.9133C278.775 39.9466 278.664 39.9721 278.565 39.9899C278.467 40.0076 278.343 40.0165 278.192 40.0165ZM278.924 37.6555C278.92 37.4868 278.9 37.3414 278.864 37.2192C278.829 37.0971 278.778 36.9939 278.711 36.9096C278.638 36.8163 278.543 36.7453 278.428 36.6964C278.315 36.6476 278.174 36.6232 278.005 36.6232C277.839 36.6232 277.697 36.6487 277.579 36.6998C277.463 36.7486 277.358 36.8207 277.263 36.9162C277.169 37.0139 277.098 37.1227 277.049 37.2426C277.001 37.3602 276.969 37.4979 276.956 37.6555H278.924ZM283.287 37.9718C283.287 38.5912 283.138 39.0852 282.84 39.4537C282.545 39.82 282.171 40.0032 281.718 40.0032C281.534 40.0032 281.371 39.9821 281.229 39.9399C281.087 39.8977 280.941 39.8322 280.792 39.7434V41.3019H280.166V36.2102H280.792V36.5999C280.948 36.46 281.12 36.3434 281.309 36.2502C281.499 36.1547 281.707 36.107 281.931 36.107C282.358 36.107 282.689 36.2757 282.927 36.6132C283.167 36.9506 283.287 37.4035 283.287 37.9718ZM282.641 38.0418C282.641 37.6177 282.573 37.2892 282.437 37.0561C282.302 36.8207 282.082 36.7031 281.778 36.7031C281.601 36.7031 281.428 36.743 281.262 36.823C281.098 36.9007 280.941 37.0017 280.792 37.126V39.2339C280.957 39.3139 281.097 39.3683 281.212 39.3971C281.33 39.426 281.464 39.4404 281.615 39.4404C281.939 39.4404 282.191 39.3216 282.371 39.0841C282.551 38.8465 282.641 38.4991 282.641 38.0418ZM286.014 39.0142V37.9818C285.865 37.9952 285.677 38.014 285.448 38.0384C285.221 38.0606 285.038 38.0928 284.898 38.135C284.732 38.1861 284.594 38.2649 284.485 38.3715C284.377 38.4758 284.322 38.6223 284.322 38.811C284.322 39.0242 284.382 39.1851 284.502 39.2939C284.622 39.4027 284.797 39.4571 285.028 39.4571C285.226 39.4571 285.405 39.4149 285.564 39.3305C285.724 39.2439 285.874 39.1385 286.014 39.0142ZM286.014 39.5337C285.963 39.5714 285.894 39.6247 285.808 39.6935C285.723 39.7601 285.641 39.8134 285.561 39.8533C285.45 39.9111 285.342 39.9555 285.238 39.9865C285.136 40.0176 284.992 40.0332 284.805 40.0332C284.652 40.0332 284.507 40.0043 284.369 39.9466C284.231 39.8889 284.11 39.8078 284.006 39.7035C283.906 39.6014 283.826 39.4759 283.766 39.3272C283.706 39.1762 283.676 39.0175 283.676 38.851C283.676 38.5935 283.731 38.3748 283.839 38.195C283.948 38.0129 284.12 37.8686 284.356 37.7621C284.564 37.6666 284.811 37.6011 285.095 37.5656C285.379 37.5278 285.685 37.5001 286.014 37.4823V37.3624C286.014 37.2159 285.992 37.0983 285.947 37.0095C285.903 36.9184 285.841 36.8485 285.761 36.7997C285.681 36.7486 285.583 36.7153 285.468 36.6998C285.352 36.682 285.234 36.6731 285.112 36.6731C284.967 36.6731 284.797 36.6953 284.602 36.7397C284.407 36.7819 284.211 36.8441 284.016 36.9262H283.979V36.2902C284.095 36.2569 284.26 36.2202 284.475 36.1803C284.691 36.1403 284.904 36.1203 285.115 36.1203C285.37 36.1203 285.585 36.1403 285.761 36.1803C285.936 36.2202 286.094 36.2924 286.234 36.3967C286.369 36.4988 286.47 36.6309 286.537 36.793C286.603 36.9551 286.637 37.1526 286.637 37.3858V39.9299H286.014V39.5337ZM290.237 36.7597H288.971V39.9299H288.345V36.7597H287.08V36.2102H290.237V36.7597ZM293.763 38.0717C293.763 38.6978 293.612 39.1818 293.31 39.5237C293.008 39.8633 292.606 40.0332 292.105 40.0332C291.587 40.0332 291.18 39.8578 290.883 39.507C290.587 39.154 290.44 38.6756 290.44 38.0717C290.44 37.4501 290.592 36.9673 290.896 36.6232C291.202 36.2791 291.605 36.107 292.105 36.107C292.606 36.107 293.008 36.2791 293.31 36.6232C293.612 36.9651 293.763 37.4479 293.763 38.0717ZM293.117 38.0717C293.117 37.59 293.029 37.2326 292.854 36.9995C292.679 36.7641 292.429 36.6465 292.105 36.6465C291.778 36.6465 291.526 36.7641 291.349 36.9995C291.173 37.2326 291.086 37.59 291.086 38.0717C291.086 38.538 291.173 38.8921 291.349 39.134C291.526 39.3738 291.778 39.4937 292.105 39.4937C292.427 39.4937 292.675 39.376 292.851 39.1407C293.028 38.9032 293.117 38.5468 293.117 38.0717ZM297.526 37.9718C297.526 38.5912 297.377 39.0852 297.08 39.4537C296.785 39.82 296.41 40.0032 295.958 40.0032C295.773 40.0032 295.61 39.9821 295.468 39.9399C295.326 39.8977 295.181 39.8322 295.032 39.7434V41.3019H294.406V36.2102H295.032V36.5999C295.187 36.46 295.359 36.3434 295.548 36.2502C295.739 36.1547 295.946 36.107 296.171 36.107C296.597 36.107 296.929 36.2757 297.166 36.6132C297.406 36.9506 297.526 37.4035 297.526 37.9718ZM296.88 38.0418C296.88 37.6177 296.812 37.2892 296.677 37.0561C296.541 36.8207 296.322 36.7031 296.018 36.7031C295.84 36.7031 295.668 36.743 295.501 36.823C295.337 36.9007 295.181 37.0017 295.032 37.126V39.2339C295.196 39.3139 295.336 39.3683 295.451 39.3971C295.569 39.426 295.703 39.4404 295.854 39.4404C296.178 39.4404 296.43 39.3216 296.61 39.0841C296.79 38.8465 296.88 38.4991 296.88 38.0418Z" fill="#606580"/>
<path d="M197.7 7.1001H317.4" stroke="#0089FF" stroke-width="0.5" stroke-miterlimit="10" stroke-dasharray="2 2"/>
<path d="M197.7 8.3999C197 8.3999 196.5 7.7999 196.5 7.0999C196.5 6.3999 197.1 5.8999 197.8 5.8999C198.5 5.8999 199 6.4999 199 7.0999C199 7.7999 198.4 8.3999 197.7 8.3999C197.8 8.3999 197.7 8.3999 197.7 8.3999Z" fill="#F5F8FD"/>
<path d="M197.7 6.2C198.2 6.2 198.6 6.6 198.6 7.1C198.6 7.6 198.2 8 197.7 8C197.2 8 196.8 7.6 196.8 7.1C196.8 6.6 197.2 6.2 197.7 6.2ZM197.7 5.5C196.8 5.5 196.1 6.2 196.1 7.1C196.1 8 196.8 8.7 197.7 8.7C198.6 8.7 199.3 8 199.3 7.1C199.3 6.3 198.6 5.5 197.7 5.5Z" fill="#0089FF"/>
<path d="M316.4 8.2999C317.063 8.2999 317.6 7.76264 317.6 7.0999C317.6 6.43716 317.063 5.8999 316.4 5.8999C315.737 5.8999 315.2 6.43716 315.2 7.0999C315.2 7.76264 315.737 8.2999 316.4 8.2999Z" fill="#F5F8FD"/>
<path d="M316.4 6.2C316.9 6.2 317.3 6.6 317.3 7.1C317.3 7.6 316.9 8 316.4 8C315.9 8 315.5 7.6 315.5 7.1C315.5 6.6 315.9 6.2 316.4 6.2ZM316.4 5.5C315.5 5.6 314.9 6.3 314.9 7.2C315 8 315.6 8.6 316.4 8.7C317.3 8.8 318.1 8.1 318.1 7.2C318.2 6.3 317.5 5.5 316.6 5.5C316.5 5.5 316.5 5.5 316.4 5.5Z" fill="#0089FF"/>
<path d="M158.1 75.1001C167.765 75.1001 175.6 67.2651 175.6 57.6001C175.6 47.9351 167.765 40.1001 158.1 40.1001C148.435 40.1001 140.6 47.9351 140.6 57.6001C140.6 67.2651 148.435 75.1001 158.1 75.1001Z" fill="#EBF1F9" stroke="#D7E2F2" stroke-miterlimit="10"/>
<path fill-rule="evenodd" clip-rule="evenodd" d="M159.1 57.1001L164.1 62.1001C164.5 62.5001 164.5 63.1001 164.1 63.5001C163.7 63.9001 163.1 63.9001 162.7 63.5001L157.4 58.2001C157.2 58.0001 157.1 57.8001 157.1 57.5001V48.3001C157.1 47.7001 157.5 47.3001 158.1 47.3001C158.7 47.3001 159.1 47.7001 159.1 48.3001V57.1001ZM173.6 57.6001C173.6 49.1001 166.7 42.1001 158.2 42.1001C149.7 42.1001 142.7 49.0001 142.7 57.5001C142.7 66.0001 149.6 73.0001 158.1 73.0001C162.2 73.0001 166.1 71.4001 169.1 68.5001C171.9 65.6001 173.5 61.7001 173.6 57.6001ZM167.6 67.1001C172.8 61.8001 172.8 53.3001 167.5 48.0001C162.2 42.7001 153.7 42.8001 148.4 48.1001C143.2 53.4001 143.2 61.9001 148.5 67.2001C151 69.7001 154.5 71.1001 158 71.1001C161.7 71.1001 165.1 69.6001 167.6 67.1001Z" fill="#606580"/>
<path d="M213.6 12.8C203.328 12.8 195 21.1276 195 31.4C195 41.6725 203.328 50 213.6 50C223.873 50 232.2 41.6725 232.2 31.4C232.2 21.1276 223.873 12.8 213.6 12.8ZM213.7 41.8C210.402 41.8 207.292 40.3886 205.192 37.9308C205.066 37.7832 205 37.5942 205 37.4001C205.1 36.3001 205.5 35.4 206.4 34.8C206.8 34.6 207.2 34.4001 207.6 34.2001C208.2 33.9001 208.9 33.7001 209.5 33.4001C210.2 33.1001 210.8 32.5 211.2 31.9C211.358 31.5846 211.105 31.2486 210.944 30.9351C210.766 30.5901 210.607 30.2451 210.4 29.9C210.1 29.2 210 28.4 209.6 27.8C209.5 27.6 209.5 27.4 209.5 27.2C209.5 27.1942 209.5 27.1883 209.5 27.1824C209.506 26.3179 209.7 25.4646 209.7 24.6C209.7 24.4763 209.738 24.3909 209.767 24.32C209.799 24.2434 209.812 24.1592 209.845 24.0835C209.934 23.8852 210.06 23.7243 210.15 23.5274C210.181 23.4585 210.142 23.3807 210.07 23.3567C209.984 23.3282 209.95 23.2262 210.004 23.1542C210.195 22.9028 210.432 22.6514 210.6 22.4C211.3 21.5 212.3 21.1 213.5 21.2C213.833 21.2 214.164 21.1517 214.497 21.1487C215.321 21.1413 216.1 21.5164 216.6 22.1C216.955 22.4554 217.153 22.8107 217.473 23.166C217.53 23.2291 217.505 23.3316 217.425 23.3584C217.359 23.3804 217.328 23.4556 217.359 23.5176C217.638 24.0665 217.893 24.5396 217.8 25.1C217.7 25.5 217.7 25.8 217.8 26.2C218 27 217.9 27.8 217.4 28.4C217.3 28.5 217.2 28.7 217.2 28.9C217.107 29.8271 216.671 30.6683 216.13 31.4235C216.045 31.542 215.925 31.6542 215.925 31.8C215.925 31.9459 216.042 32.06 216.138 32.1702C216.198 32.2397 216.261 32.3067 216.324 32.3726C216.783 32.8461 217.257 33.323 217.846 33.6193C218.411 33.9038 219.006 34.1019 219.6 34.3C221.3 34.9 222.1 36 222.1 37.8C222.1 37.8648 222.078 37.9278 222.037 37.9779C220.035 40.4291 216.966 41.8 213.7 41.8Z" fill="#EBF1F9"/>
<path d="M230.6 31C230.6 25.4 227.8 20.1 223 17.1V15.9C218.7 13.3 213.5 12.7 208.7 14.2L208.4 15.4C206.2 16.2 204.2 17.4 202.5 19L201.8 18.9C199.3 21.4 197.5 24.6 196.9 28.1L197.4 28.5C196.5 34 198.5 39.6 202.6 43.4C202.6 43.6 202.5 43.9 202.5 44.1C205 46.3 208.1 47.7 211.4 48.2L211.6 48.8C212.3 48.9 213.1 48.9 213.8 48.9C220.5 48.9 226.6 45.1 229.6 39.1L229 38C230.1 35.7 230.6 33.4 230.6 31ZM197.6 31C197.6 22 204.9 14.7 213.9 14.7C222.9 14.7 230.2 22 230.2 31C230.2 40 222.9 47.3 213.9 47.3C204.9 47.3 197.6 40 197.6 31Z" fill="#0089FF"/>
<path d="M18.6 12.8C8.32751 12.8 0 21.1276 0 31.4C0 41.6725 8.32751 50 18.6 50C28.8725 50 37.2 41.6725 37.2 31.4C37.2 21.1276 28.8725 12.8 18.6 12.8ZM18.7 41.8C15.4019 41.8 12.292 40.3886 10.1917 37.9308C10.0656 37.7832 10 37.5942 10 37.4001C10.1 36.3001 10.5 35.4 11.4 34.8C11.8 34.6 12.2 34.4001 12.6 34.2001C13.2 33.9001 13.9 33.7001 14.5 33.4001C15.2 33.1001 15.8 32.5 16.2 31.9C16.3577 31.5846 16.1052 31.2486 15.9439 30.9351C15.7664 30.5901 15.607 30.2451 15.4 29.9C15.1 29.2 15 28.4 14.6 27.8C14.5 27.6 14.5 27.4 14.5 27.2C14.5 27.1942 14.5 27.1883 14.5001 27.1824C14.5064 26.3179 14.7 25.4646 14.7 24.6C14.7 24.4763 14.7383 24.3909 14.7675 24.32C14.799 24.2434 14.8117 24.1592 14.8455 24.0835C14.9339 23.8852 15.0599 23.7243 15.1497 23.5274C15.181 23.4585 15.1418 23.3807 15.0701 23.3567C14.9844 23.3282 14.9497 23.2262 15.0042 23.1542C15.1946 22.9028 15.4324 22.6514 15.6 22.4C16.3 21.5 17.3 21.1 18.5 21.2C18.8325 21.2 19.1642 21.1517 19.4967 21.1487C20.3213 21.1413 21.0997 21.5164 21.6 22.1C21.9553 22.4554 22.1528 22.8107 22.4729 23.166C22.5297 23.2291 22.5053 23.3316 22.4248 23.3584C22.3589 23.3804 22.3278 23.4556 22.3593 23.5176C22.6378 24.0665 22.8934 24.5396 22.8 25.1C22.7 25.5 22.7 25.8 22.8 26.2C23 27 22.9 27.8 22.4 28.4C22.3 28.5 22.2 28.7 22.2 28.9C22.1073 29.8271 21.6708 30.6683 21.1295 31.4235C21.0446 31.542 20.925 31.6542 20.925 31.8C20.925 31.9459 21.0423 32.06 21.1378 32.1702C21.198 32.2397 21.2606 32.3067 21.3244 32.3726C21.7829 32.8461 22.2569 33.323 22.8457 33.6193C23.4112 33.9038 24.0056 34.1019 24.6 34.3C26.3 34.9 27.1 36 27.1 37.8C27.1 37.8648 27.078 37.9278 27.0371 37.9779C25.0353 40.4291 21.9656 41.8 18.7 41.8Z" fill="#EBF1F9"/>
<path d="M35.6 31C35.6 25.4 32.8 20.1 28 17.1V15.9C23.7 13.3 18.5 12.7 13.7 14.2L13.4 15.4C11.2 16.2 9.20003 17.4 7.50003 19L6.80003 18.9C4.30003 21.4 2.50002 24.6 1.90002 28.1L2.40002 28.5C1.50002 34 3.50004 39.6 7.60004 43.4C7.60004 43.6 7.50003 43.9 7.50003 44.1C10 46.3 13.1 47.7 16.4 48.2L16.6 48.8C17.3 48.9 18.1 48.9 18.8 48.9C25.5 48.9 31.6 45.1 34.6 39.1L34 38C35.1 35.7 35.6 33.4 35.6 31ZM2.60004 31C2.60004 22 9.90002 14.7 18.9 14.7C27.9 14.7 35.2 22 35.2 31C35.2 40 27.9 47.3 18.9 47.3C9.90002 47.3 2.60004 40 2.60004 31Z" fill="#0089FF"/>
</svg>
