<svg width="324" height="117" viewBox="0 0 324 117" fill="none" xmlns="http://www.w3.org/2000/svg">
<path opacity="0.2" d="M172.848 39.1104H172.084V36.2947H169.438V39.1104H168.673V33.3594H169.438V35.615H172.084V33.3594H172.848V39.1104ZM175.834 39.2108C175.146 39.2108 174.612 39.0177 174.231 38.6314C173.853 38.2426 173.663 37.6916 173.663 36.9784C173.663 36.2754 173.847 35.7167 174.216 35.3021C174.584 34.885 175.065 34.6764 175.66 34.6764C175.928 34.6764 176.165 34.715 176.371 34.7923C176.577 34.8695 176.757 34.9906 176.911 35.1554C177.066 35.3201 177.184 35.5223 177.267 35.7617C177.349 35.9986 177.39 36.2896 177.39 36.6346V37.0286H174.401C174.401 37.5307 174.527 37.9143 174.78 38.1795C175.032 38.4447 175.381 38.5774 175.826 38.5774C175.986 38.5774 176.142 38.5593 176.294 38.5233C176.448 38.4872 176.587 38.4409 176.711 38.3842C176.842 38.325 176.953 38.2684 177.043 38.2143C177.133 38.1576 177.208 38.1049 177.267 38.0559H177.309V38.8477C177.224 38.8812 177.119 38.9237 176.993 38.9752C176.866 39.0241 176.753 39.0627 176.653 39.091C176.511 39.1297 176.382 39.1593 176.266 39.1799C176.153 39.2005 176.009 39.2108 175.834 39.2108ZM176.684 36.4724C176.678 36.2767 176.655 36.1081 176.614 35.9664C176.573 35.8248 176.514 35.7051 176.436 35.6072C176.351 35.4991 176.242 35.4167 176.108 35.3601C175.977 35.3034 175.813 35.2751 175.618 35.2751C175.425 35.2751 175.26 35.3047 175.123 35.3639C174.989 35.4206 174.867 35.5042 174.756 35.615C174.648 35.7283 174.566 35.8544 174.509 35.9935C174.452 36.1299 174.416 36.2896 174.401 36.4724H176.684ZM184.068 39.1104H183.165L181.685 37.1213H181.322V39.1104H180.596V34.7962H181.322V36.6732C181.51 36.6707 181.67 36.632 181.801 36.5574C181.935 36.4801 182.048 36.3321 182.141 36.1132C182.169 36.0488 182.2 35.9742 182.234 35.8892C182.27 35.8042 182.298 35.7295 182.319 35.6652C182.432 35.3485 182.589 35.1245 182.79 34.9931C182.991 34.8618 183.252 34.7962 183.574 34.7962H183.771V35.4219H183.605C183.401 35.4219 183.248 35.4643 183.145 35.5493C183.045 35.6317 182.96 35.7836 182.89 36.0051C182.818 36.2291 182.733 36.4042 182.635 36.5303C182.538 36.6539 182.429 36.7492 182.311 36.8161L184.068 39.1104ZM187.919 37.8049C187.919 38.0135 187.879 38.1988 187.799 38.3611C187.72 38.5207 187.61 38.6546 187.471 38.7627C187.296 38.8992 187.112 38.9919 186.919 39.0408C186.728 39.0872 186.499 39.1104 186.231 39.1104H184.536V34.7962H186.119C186.436 34.7962 186.668 34.8065 186.814 34.8271C186.961 34.8451 187.107 34.894 187.251 34.9738C187.403 35.0562 187.515 35.1657 187.587 35.3021C187.659 35.4386 187.695 35.6008 187.695 35.7888C187.695 35.9948 187.638 36.1801 187.525 36.3449C187.412 36.5072 187.261 36.6333 187.073 36.7234L187.093 36.7505C187.327 36.8097 187.523 36.9294 187.68 37.1097C187.839 37.2899 187.919 37.5217 187.919 37.8049ZM186.95 35.9008C186.95 35.8029 186.933 35.718 186.899 35.6459C186.869 35.5738 186.813 35.5171 186.733 35.4759C186.641 35.427 186.536 35.3987 186.42 35.391C186.307 35.3807 186.149 35.3755 185.945 35.3755H185.254V36.5574H186.088C186.266 36.5574 186.392 36.5496 186.467 36.5342C186.542 36.5162 186.624 36.4801 186.714 36.426C186.799 36.3746 186.86 36.305 186.896 36.2175C186.932 36.1299 186.95 36.0244 186.95 35.9008ZM187.17 37.8088C187.17 37.662 187.148 37.5448 187.104 37.4573C187.063 37.3672 186.97 37.2873 186.826 37.2178C186.736 37.174 186.639 37.147 186.536 37.1367C186.433 37.1264 186.29 37.1213 186.108 37.1213H185.254V38.531H185.884C186.144 38.531 186.346 38.5207 186.49 38.5001C186.634 38.4795 186.758 38.4383 186.861 38.3765C186.969 38.3096 187.047 38.2323 187.096 38.1448C187.145 38.0572 187.17 37.9452 187.17 37.8088ZM192.09 39.1104H191.372V35.8931L189.34 39.1104H188.684V34.7962H189.402V37.9632L191.411 34.7962H192.09V39.1104ZM196.293 35.4334H194.825V39.1104H194.099V35.4334H192.631V34.7962H196.293V35.4334ZM200.24 39.1104H199.521V35.8931L197.49 39.1104H196.833V34.7962H197.552V37.9632L199.56 34.7962H200.24V39.1104ZM204.909 36.8393C204.909 37.5577 204.737 38.1306 204.392 38.558C204.049 38.9829 203.615 39.1953 203.09 39.1953C202.876 39.1953 202.687 39.1709 202.522 39.1219C202.358 39.073 202.189 38.9971 202.016 38.8941V40.7016H201.29V34.7962H202.016V35.248C202.197 35.0858 202.396 34.9506 202.615 34.8425C202.837 34.7318 203.077 34.6764 203.337 34.6764C203.832 34.6764 204.217 34.8721 204.492 35.2635C204.77 35.6549 204.909 36.1801 204.909 36.8393ZM204.16 36.9204C204.16 36.4286 204.082 36.0475 203.924 35.7772C203.767 35.5042 203.512 35.3678 203.16 35.3678C202.954 35.3678 202.754 35.4141 202.561 35.5068C202.371 35.5969 202.189 35.7141 202.016 35.8583V38.3031C202.207 38.3958 202.369 38.4589 202.503 38.4924C202.64 38.5259 202.795 38.5426 202.97 38.5426C203.346 38.5426 203.639 38.4048 203.847 38.1293C204.056 37.8538 204.16 37.4508 204.16 36.9204ZM209.212 36.9552C209.212 37.6813 209.037 38.2426 208.687 38.6392C208.336 39.0331 207.87 39.2301 207.289 39.2301C206.689 39.2301 206.216 39.0267 205.871 38.6198C205.529 38.2104 205.357 37.6556 205.357 36.9552C205.357 36.2342 205.534 35.6742 205.887 35.2751C206.242 34.876 206.709 34.6764 207.289 34.6764C207.87 34.6764 208.336 34.876 208.687 35.2751C209.037 35.6716 209.212 36.2316 209.212 36.9552ZM208.463 36.9552C208.463 36.3964 208.361 35.9819 208.158 35.7115C207.954 35.4386 207.664 35.3021 207.289 35.3021C206.91 35.3021 206.618 35.4386 206.412 35.7115C206.208 35.9819 206.107 36.3964 206.107 36.9552C206.107 37.4959 206.208 37.9066 206.412 38.1873C206.618 38.4653 206.91 38.6044 207.289 38.6044C207.662 38.6044 207.95 38.4679 208.154 38.195C208.36 37.9195 208.463 37.5062 208.463 36.9552ZM213.341 37.8049C213.341 38.0135 213.301 38.1988 213.221 38.3611C213.141 38.5207 213.032 38.6546 212.893 38.7627C212.718 38.8992 212.534 38.9919 212.34 39.0408C212.15 39.0872 211.921 39.1104 211.653 39.1104H209.957V34.7962H211.541C211.858 34.7962 212.089 34.8065 212.236 34.8271C212.383 34.8451 212.528 34.894 212.673 34.9738C212.824 35.0562 212.937 35.1657 213.009 35.3021C213.081 35.4386 213.117 35.6008 213.117 35.7888C213.117 35.9948 213.06 36.1801 212.947 36.3449C212.834 36.5072 212.683 36.6333 212.495 36.7234L212.514 36.7505C212.749 36.8097 212.944 36.9294 213.101 37.1097C213.261 37.2899 213.341 37.5217 213.341 37.8049ZM212.371 35.9008C212.371 35.8029 212.355 35.718 212.321 35.6459C212.29 35.5738 212.235 35.5171 212.155 35.4759C212.062 35.427 211.958 35.3987 211.842 35.391C211.729 35.3807 211.571 35.3755 211.367 35.3755H210.676V36.5574H211.51C211.688 36.5574 211.814 36.5496 211.889 36.5342C211.963 36.5162 212.046 36.4801 212.136 36.426C212.221 36.3746 212.281 36.305 212.317 36.2175C212.353 36.1299 212.371 36.0244 212.371 35.9008ZM212.591 37.8088C212.591 37.662 212.57 37.5448 212.526 37.4573C212.485 37.3672 212.392 37.2873 212.248 37.2178C212.158 37.174 212.061 37.147 211.958 37.1367C211.855 37.1264 211.712 37.1213 211.529 37.1213H210.676V38.531H211.305C211.565 38.531 211.768 38.5207 211.912 38.5001C212.056 38.4795 212.179 38.4383 212.282 38.3765C212.391 38.3096 212.469 38.2323 212.518 38.1448C212.567 38.0572 212.591 37.9452 212.591 37.8088ZM216.516 38.0482V36.8509C216.343 36.8664 216.124 36.8882 215.859 36.9166C215.596 36.9423 215.384 36.9796 215.222 37.0286C215.029 37.0878 214.869 37.1792 214.743 37.3028C214.617 37.4238 214.554 37.5938 214.554 37.8126C214.554 38.0598 214.623 38.2465 214.762 38.3727C214.901 38.4988 215.105 38.5619 215.372 38.5619C215.601 38.5619 215.809 38.513 215.994 38.4151C216.18 38.3147 216.353 38.1924 216.516 38.0482ZM216.516 38.6507C216.456 38.6945 216.377 38.7563 216.276 38.8361C216.178 38.9134 216.083 38.9752 215.99 39.0215C215.862 39.0885 215.737 39.14 215.616 39.176C215.497 39.2121 215.33 39.2301 215.114 39.2301C214.936 39.2301 214.767 39.1966 214.608 39.1297C214.448 39.0627 214.308 38.9687 214.187 38.8477C214.071 38.7293 213.978 38.5838 213.909 38.4113C213.839 38.2362 213.804 38.0521 213.804 37.859C213.804 37.5603 213.867 37.3067 213.993 37.0981C214.12 36.887 214.319 36.7196 214.592 36.596C214.834 36.4853 215.12 36.4093 215.45 36.3681C215.779 36.3243 216.134 36.2922 216.516 36.2716V36.1325C216.516 35.9626 216.49 35.8261 216.438 35.7231C216.387 35.6175 216.315 35.5364 216.222 35.4798C216.129 35.4206 216.016 35.3819 215.882 35.3639C215.748 35.3433 215.611 35.333 215.469 35.333C215.302 35.333 215.105 35.3588 214.878 35.4103C214.651 35.4592 214.425 35.5313 214.198 35.6266H214.156V34.8889C214.29 34.8502 214.481 34.8077 214.731 34.7614C214.981 34.715 215.228 34.6919 215.473 34.6919C215.769 34.6919 216.019 34.715 216.222 34.7614C216.425 34.8077 216.608 34.8914 216.77 35.0124C216.928 35.1309 217.045 35.2841 217.122 35.4721C217.199 35.66 217.238 35.8892 217.238 36.1596V39.1104H216.516V38.6507ZM221.668 39.1104H220.942V37.1676H218.987V39.1104H218.261V34.7962H218.987V36.5419H220.942V34.7962H221.668V39.1104ZM226.268 36.9552C226.268 37.6813 226.093 38.2426 225.743 38.6392C225.392 39.0331 224.926 39.2301 224.344 39.2301C223.745 39.2301 223.272 39.0267 222.927 38.6198C222.585 38.2104 222.413 37.6556 222.413 36.9552C222.413 36.2342 222.59 35.6742 222.942 35.2751C223.298 34.876 223.765 34.6764 224.344 34.6764C224.926 34.6764 225.392 34.876 225.743 35.2751C226.093 35.6716 226.268 36.2316 226.268 36.9552ZM225.519 36.9552C225.519 36.3964 225.417 35.9819 225.213 35.7115C225.01 35.4386 224.72 35.3021 224.344 35.3021C223.966 35.3021 223.674 35.4386 223.468 35.7115C223.264 35.9819 223.163 36.3964 223.163 36.9552C223.163 37.4959 223.264 37.9066 223.468 38.1873C223.674 38.4653 223.966 38.6044 224.344 38.6044C224.718 38.6044 225.006 38.4679 225.21 38.195C225.416 37.9195 225.519 37.5062 225.519 36.9552Z" fill="#8C99B2"/>
<path d="M172.926 68.8203H171.952L169.921 66.1862H169.438V68.8203H168.673V63.0693H169.438V65.6609C169.739 65.6506 169.977 65.5747 170.152 65.4331C170.33 65.2915 170.474 65.088 170.585 64.8228C170.631 64.707 170.673 64.5975 170.709 64.4945C170.747 64.389 170.778 64.3001 170.801 64.228C170.956 63.7877 171.153 63.4852 171.392 63.3204C171.632 63.153 171.964 63.0693 172.389 63.0693H172.624V63.753H172.431C172.117 63.753 171.897 63.8148 171.771 63.9384C171.645 64.0594 171.529 64.2898 171.423 64.6297C171.318 64.9696 171.199 65.2194 171.068 65.379C170.937 65.5361 170.778 65.6751 170.593 65.7961L172.926 68.8203ZM176.765 67.5149C176.765 67.7234 176.725 67.9088 176.645 68.071C176.565 68.2307 176.456 68.3646 176.317 68.4727C176.142 68.6092 175.958 68.7019 175.764 68.7508C175.574 68.7971 175.345 68.8203 175.077 68.8203H173.381V64.5061H174.965C175.282 64.5061 175.513 64.5164 175.66 64.537C175.807 64.555 175.952 64.604 176.097 64.6838C176.248 64.7662 176.36 64.8756 176.433 65.0121C176.505 65.1485 176.541 65.3108 176.541 65.4987C176.541 65.7047 176.484 65.8901 176.371 66.0549C176.257 66.2171 176.107 66.3433 175.919 66.4334L175.938 66.4604C176.173 66.5197 176.368 66.6394 176.525 66.8196C176.685 66.9999 176.765 67.2316 176.765 67.5149ZM175.795 65.6107C175.795 65.5129 175.779 65.4279 175.745 65.3558C175.714 65.2837 175.659 65.2271 175.579 65.1859C175.486 65.137 175.382 65.1086 175.266 65.1009C175.153 65.0906 174.995 65.0855 174.791 65.0855H174.1V66.2673H174.934C175.112 66.2673 175.238 66.2596 175.313 66.2442C175.387 66.2261 175.47 66.1901 175.56 66.136C175.645 66.0845 175.705 66.015 175.741 65.9274C175.777 65.8399 175.795 65.7343 175.795 65.6107ZM176.015 67.5187C176.015 67.3719 175.994 67.2548 175.95 67.1672C175.909 67.0771 175.816 66.9973 175.672 66.9278C175.582 66.884 175.485 66.857 175.382 66.8467C175.279 66.8364 175.136 66.8312 174.953 66.8312H174.1V68.241H174.729C174.989 68.241 175.191 68.2307 175.336 68.2101C175.48 68.1895 175.603 68.1483 175.706 68.0865C175.815 68.0195 175.893 67.9423 175.942 67.8547C175.991 67.7672 176.015 67.6552 176.015 67.5187ZM180.936 68.8203H180.218V65.603L178.186 68.8203H177.529V64.5061H178.248V67.6732L180.256 64.5061H180.936V68.8203ZM185.138 65.1434H183.671V68.8203H182.944V65.1434H181.477V64.5061H185.138V65.1434ZM189.085 68.8203H188.367V65.603L186.336 68.8203H185.679V64.5061H186.397V67.6732L188.406 64.5061H189.085V68.8203ZM193.755 66.5493C193.755 67.2677 193.582 67.8406 193.237 68.268C192.895 68.6929 192.461 68.9053 191.936 68.9053C191.722 68.9053 191.533 68.8808 191.368 68.8319C191.203 68.783 191.035 68.707 190.862 68.604V70.4116H190.136V64.5061H190.862V64.958C191.042 64.7958 191.242 64.6606 191.461 64.5525C191.682 64.4417 191.923 64.3864 192.183 64.3864C192.677 64.3864 193.062 64.5821 193.338 64.9735C193.616 65.3648 193.755 65.8901 193.755 66.5493ZM193.006 66.6304C193.006 66.1386 192.927 65.7575 192.77 65.4871C192.613 65.2142 192.358 65.0777 192.005 65.0777C191.799 65.0777 191.6 65.1241 191.407 65.2168C191.216 65.3069 191.035 65.4241 190.862 65.5683V68.0131C191.053 68.1058 191.215 68.1689 191.349 68.2023C191.485 68.2358 191.641 68.2526 191.816 68.2526C192.192 68.2526 192.484 68.1148 192.693 67.8393C192.901 67.5638 193.006 67.1608 193.006 66.6304ZM198.058 66.6651C198.058 67.3913 197.883 67.9526 197.532 68.3491C197.182 68.7431 196.716 68.94 196.134 68.94C195.534 68.94 195.062 68.7366 194.717 68.3298C194.374 67.9204 194.203 67.3655 194.203 66.6651C194.203 65.9442 194.379 65.3841 194.732 64.985C195.088 64.5859 195.555 64.3864 196.134 64.3864C196.716 64.3864 197.182 64.5859 197.532 64.985C197.883 65.3816 198.058 65.9416 198.058 66.6651ZM197.308 66.6651C197.308 66.1064 197.207 65.6918 197.003 65.4215C196.8 65.1485 196.51 65.0121 196.134 65.0121C195.756 65.0121 195.463 65.1485 195.257 65.4215C195.054 65.6918 194.952 66.1064 194.952 66.6651C194.952 67.2059 195.054 67.6166 195.257 67.8972C195.463 68.1753 195.756 68.3144 196.134 68.3144C196.508 68.3144 196.796 68.1779 196.999 67.9049C197.205 67.6294 197.308 67.2162 197.308 66.6651ZM202.186 67.5149C202.186 67.7234 202.147 67.9088 202.067 68.071C201.987 68.2307 201.877 68.3646 201.738 68.4727C201.563 68.6092 201.379 68.7019 201.186 68.7508C200.996 68.7971 200.766 68.8203 200.499 68.8203H198.803V64.5061H200.387C200.703 64.5061 200.935 64.5164 201.082 64.537C201.229 64.555 201.374 64.604 201.518 64.6838C201.67 64.7662 201.782 64.8756 201.854 65.0121C201.926 65.1485 201.962 65.3108 201.962 65.4987C201.962 65.7047 201.906 65.8901 201.792 66.0549C201.679 66.2171 201.529 66.3433 201.341 66.4334L201.36 66.4604C201.594 66.5197 201.79 66.6394 201.947 66.8196C202.107 66.9999 202.186 67.2316 202.186 67.5149ZM201.217 65.6107C201.217 65.5129 201.2 65.4279 201.167 65.3558C201.136 65.2837 201.081 65.2271 201.001 65.1859C200.908 65.137 200.804 65.1086 200.688 65.1009C200.575 65.0906 200.416 65.0855 200.213 65.0855H199.521V66.2673H200.356C200.533 66.2673 200.66 66.2596 200.734 66.2442C200.809 66.2261 200.891 66.1901 200.981 66.136C201.066 66.0845 201.127 66.015 201.163 65.9274C201.199 65.8399 201.217 65.7343 201.217 65.6107ZM201.437 67.5187C201.437 67.3719 201.415 67.2548 201.371 67.1672C201.33 67.0771 201.238 66.9973 201.093 66.9278C201.003 66.884 200.907 66.857 200.804 66.8467C200.701 66.8364 200.558 66.8312 200.375 66.8312H199.521V68.241H200.151C200.411 68.241 200.613 68.2307 200.757 68.2101C200.902 68.1895 201.025 68.1483 201.128 68.0865C201.236 68.0195 201.315 67.9423 201.364 67.8547C201.413 67.7672 201.437 67.6552 201.437 67.5187ZM205.361 67.7582V66.5609C205.189 66.5763 204.97 66.5982 204.705 66.6265C204.442 66.6523 204.23 66.6896 204.067 66.7385C203.874 66.7978 203.715 66.8892 203.588 67.0128C203.462 67.1338 203.399 67.3037 203.399 67.5226C203.399 67.7698 203.469 67.9564 203.608 68.0826C203.747 68.2088 203.95 68.2719 204.218 68.2719C204.447 68.2719 204.654 68.2229 204.84 68.1251C205.025 68.0247 205.199 67.9024 205.361 67.7582ZM205.361 68.3607C205.302 68.4045 205.222 68.4663 205.122 68.5461C205.024 68.6233 204.929 68.6851 204.836 68.7315C204.707 68.7984 204.582 68.8499 204.461 68.886C204.343 68.922 204.176 68.94 203.959 68.94C203.782 68.94 203.613 68.9066 203.453 68.8396C203.294 68.7727 203.153 68.6787 203.032 68.5577C202.916 68.4392 202.824 68.2938 202.754 68.1212C202.685 67.9461 202.65 67.762 202.65 67.5689C202.65 67.2702 202.713 67.0166 202.839 66.8081C202.965 66.5969 203.165 66.4295 203.438 66.306C203.68 66.1952 203.966 66.1193 204.295 66.0781C204.625 66.0343 204.98 66.0021 205.361 65.9815V65.8425C205.361 65.6725 205.335 65.5361 205.284 65.4331C205.232 65.3275 205.16 65.2464 205.068 65.1897C204.975 65.1305 204.862 65.0919 204.728 65.0739C204.594 65.0533 204.456 65.043 204.315 65.043C204.147 65.043 203.95 65.0687 203.724 65.1202C203.497 65.1691 203.27 65.2412 203.044 65.3365H203.001V64.5988C203.135 64.5602 203.327 64.5177 203.577 64.4714C203.827 64.425 204.074 64.4018 204.318 64.4018C204.615 64.4018 204.864 64.425 205.068 64.4714C205.271 64.5177 205.454 64.6014 205.616 64.7224C205.773 64.8409 205.89 64.9941 205.968 65.182C206.045 65.37 206.083 65.5992 206.083 65.8695V68.8203H205.361V68.3607ZM210.514 68.8203H209.787V66.8776H207.833V68.8203H207.107V64.5061H207.833V66.2519H209.787V64.5061H210.514V68.8203ZM215.114 66.6651C215.114 67.3913 214.938 67.9526 214.588 68.3491C214.238 68.7431 213.772 68.94 213.19 68.94C212.59 68.94 212.118 68.7366 211.773 68.3298C211.43 67.9204 211.259 67.3655 211.259 66.6651C211.259 65.9442 211.435 65.3841 211.788 64.985C212.143 64.5859 212.611 64.3864 213.19 64.3864C213.772 64.3864 214.238 64.5859 214.588 64.985C214.938 65.3816 215.114 65.9416 215.114 66.6651ZM214.364 66.6651C214.364 66.1064 214.263 65.6918 214.059 65.4215C213.856 65.1485 213.566 65.0121 213.19 65.0121C212.812 65.0121 212.519 65.1485 212.313 65.4215C212.11 65.6918 212.008 66.1064 212.008 66.6651C212.008 67.2059 212.11 67.6166 212.313 67.8972C212.519 68.1753 212.812 68.3144 213.19 68.3144C213.563 68.3144 213.852 68.1779 214.055 67.9049C214.261 67.6294 214.364 67.2162 214.364 66.6651Z" fill="#303549"/>
<path opacity="0.2" d="M249.643 40.4119H248.917V39.0949H245.186V40.4119H244.46V38.4306H244.772C245.107 37.8821 245.376 37.1638 245.58 36.2754C245.786 35.3845 245.889 34.4125 245.889 33.3594H249.098V38.4306H249.643V40.4119ZM248.333 38.4306V34.0237H246.607C246.571 34.9532 246.455 35.7965 246.259 36.5535C246.064 37.3105 245.814 37.9362 245.51 38.4306H248.333ZM253.729 39.1104H253.011V35.8931L250.979 39.1104H250.322V34.7962H251.041V37.9632L253.049 34.7962H253.729V39.1104ZM257.19 38.0482V36.8509C257.017 36.8664 256.798 36.8882 256.533 36.9166C256.27 36.9423 256.058 36.9796 255.896 37.0286C255.703 37.0878 255.543 37.1792 255.417 37.3028C255.291 37.4238 255.228 37.5938 255.228 37.8126C255.228 38.0598 255.297 38.2465 255.436 38.3727C255.575 38.4988 255.779 38.5619 256.046 38.5619C256.276 38.5619 256.483 38.513 256.668 38.4151C256.854 38.3147 257.027 38.1924 257.19 38.0482ZM257.19 38.6507C257.13 38.6945 257.051 38.7563 256.95 38.8361C256.852 38.9134 256.757 38.9752 256.664 39.0215C256.536 39.0885 256.411 39.14 256.29 39.176C256.171 39.2121 256.004 39.2301 255.788 39.2301C255.61 39.2301 255.441 39.1966 255.282 39.1297C255.122 39.0627 254.982 38.9687 254.861 38.8477C254.745 38.7293 254.652 38.5838 254.583 38.4113C254.513 38.2362 254.478 38.0521 254.478 37.859C254.478 37.5603 254.541 37.3067 254.668 37.0981C254.794 36.887 254.993 36.7196 255.266 36.596C255.508 36.4853 255.794 36.4093 256.124 36.3681C256.453 36.3243 256.809 36.2922 257.19 36.2716V36.1325C257.19 35.9626 257.164 35.8261 257.112 35.7231C257.061 35.6175 256.989 35.5364 256.896 35.4798C256.803 35.4206 256.69 35.3819 256.556 35.3639C256.422 35.3433 256.285 35.333 256.143 35.333C255.976 35.333 255.779 35.3588 255.552 35.4103C255.325 35.4592 255.099 35.5313 254.872 35.6266H254.83V34.8889C254.964 34.8502 255.156 34.8077 255.405 34.7614C255.655 34.715 255.902 34.6919 256.147 34.6919C256.443 34.6919 256.693 34.715 256.896 34.7614C257.1 34.8077 257.282 34.8914 257.445 35.0124C257.602 35.1309 257.719 35.2841 257.796 35.4721C257.873 35.66 257.912 35.8892 257.912 36.1596V39.1104H257.19V38.6507ZM261.678 35.4334H259.662V39.1104H258.935V34.7962H261.678V35.4334ZM265.625 39.1104H264.899V37.1676H262.945V39.1104H262.218V34.7962H262.945V36.5419H264.899V34.7962H265.625V39.1104ZM270.225 36.9552C270.225 37.6813 270.05 38.2426 269.7 38.6392C269.349 39.0331 268.883 39.2301 268.302 39.2301C267.702 39.2301 267.229 39.0267 266.884 38.6198C266.542 38.2104 266.37 37.6556 266.37 36.9552C266.37 36.2342 266.547 35.6742 266.9 35.2751C267.255 34.876 267.722 34.6764 268.302 34.6764C268.883 34.6764 269.349 34.876 269.7 35.2751C270.05 35.6716 270.225 36.2316 270.225 36.9552ZM269.476 36.9552C269.476 36.3964 269.374 35.9819 269.171 35.7115C268.967 35.4386 268.677 35.3021 268.302 35.3021C267.923 35.3021 267.631 35.4386 267.425 35.7115C267.221 35.9819 267.12 36.3964 267.12 36.9552C267.12 37.4959 267.221 37.9066 267.425 38.1873C267.631 38.4653 267.923 38.6044 268.302 38.6044C268.675 38.6044 268.963 38.4679 269.167 38.195C269.373 37.9195 269.476 37.5062 269.476 36.9552ZM272.685 39.2069C272.389 39.2069 272.117 39.1618 271.87 39.0717C271.623 38.979 271.411 38.84 271.233 38.6546C271.055 38.4692 270.918 38.2362 270.82 37.9555C270.722 37.6723 270.673 37.3401 270.673 36.959C270.673 36.5805 270.723 36.2535 270.824 35.978C270.927 35.7025 271.063 35.4708 271.233 35.2828C271.403 35.0948 271.614 34.9506 271.866 34.8502C272.121 34.7472 272.394 34.6957 272.685 34.6957C272.922 34.6957 273.15 34.7292 273.369 34.7962C273.59 34.8631 273.787 34.9404 273.96 35.0279V35.8428H273.917C273.866 35.7991 273.799 35.7489 273.716 35.6922C273.637 35.6356 273.539 35.5776 273.423 35.5184C273.323 35.4669 273.204 35.4219 273.068 35.3832C272.931 35.3446 272.8 35.3253 272.674 35.3253C272.298 35.3253 271.995 35.4682 271.766 35.754C271.539 36.0372 271.426 36.4389 271.426 36.959C271.426 37.4689 271.536 37.8667 271.754 38.1525C271.976 38.4357 272.282 38.5774 272.674 38.5774C272.911 38.5774 273.136 38.5284 273.35 38.4306C273.563 38.3327 273.753 38.2066 273.917 38.0521H273.96V38.867C273.888 38.9005 273.798 38.9417 273.689 38.9906C273.581 39.037 273.483 39.0717 273.396 39.0949C273.272 39.131 273.162 39.158 273.064 39.176C272.966 39.1966 272.84 39.2069 272.685 39.2069ZM277.776 35.4334H276.308V39.1104H275.582V35.4334H274.114V34.7962H277.776V35.4334ZM281.723 39.1104H281.005V35.8931L278.973 39.1104H278.316V34.7962H279.035V37.9632L281.043 34.7962H281.723V39.1104ZM286.246 39.1104H285.342L283.863 37.1213H283.5V39.1104H282.774V34.7962H283.5V36.6732C283.688 36.6707 283.847 36.632 283.979 36.5574C284.113 36.4801 284.226 36.3321 284.319 36.1132C284.347 36.0488 284.378 35.9742 284.411 35.8892C284.447 35.8042 284.476 35.7295 284.496 35.6652C284.609 35.3485 284.767 35.1245 284.967 34.9931C285.168 34.8618 285.43 34.7962 285.751 34.7962H285.948V35.4219H285.782C285.579 35.4219 285.426 35.4643 285.323 35.5493C285.222 35.6317 285.137 35.7836 285.068 36.0051C284.996 36.2291 284.911 36.4042 284.813 36.5303C284.715 36.6539 284.607 36.7492 284.488 36.8161L286.246 39.1104ZM289.123 38.0482V36.8509C288.951 36.8664 288.732 36.8882 288.467 36.9166C288.204 36.9423 287.992 36.9796 287.829 37.0286C287.636 37.0878 287.477 37.1792 287.35 37.3028C287.224 37.4238 287.161 37.5938 287.161 37.8126C287.161 38.0598 287.231 38.2465 287.37 38.3727C287.509 38.4988 287.712 38.5619 287.98 38.5619C288.209 38.5619 288.416 38.513 288.602 38.4151C288.787 38.3147 288.961 38.1924 289.123 38.0482ZM289.123 38.6507C289.064 38.6945 288.984 38.7563 288.884 38.8361C288.786 38.9134 288.691 38.9752 288.598 39.0215C288.469 39.0885 288.344 39.14 288.223 39.176C288.105 39.2121 287.937 39.2301 287.721 39.2301C287.544 39.2301 287.375 39.1966 287.215 39.1297C287.056 39.0627 286.915 38.9687 286.794 38.8477C286.678 38.7293 286.586 38.5838 286.516 38.4113C286.447 38.2362 286.412 38.0521 286.412 37.859C286.412 37.5603 286.475 37.3067 286.601 37.0981C286.727 36.887 286.927 36.7196 287.2 36.596C287.442 36.4853 287.728 36.4093 288.057 36.3681C288.387 36.3243 288.742 36.2922 289.123 36.2716V36.1325C289.123 35.9626 289.097 35.8261 289.046 35.7231C288.994 35.6175 288.922 35.5364 288.83 35.4798C288.737 35.4206 288.624 35.3819 288.49 35.3639C288.356 35.3433 288.218 35.333 288.077 35.333C287.909 35.333 287.712 35.3588 287.486 35.4103C287.259 35.4592 287.032 35.5313 286.806 35.6266H286.763V34.8889C286.897 34.8502 287.089 34.8077 287.339 34.7614C287.589 34.715 287.836 34.6919 288.08 34.6919C288.376 34.6919 288.626 34.715 288.83 34.7614C289.033 34.8077 289.216 34.8914 289.378 35.0124C289.535 35.1309 289.652 35.2841 289.73 35.4721C289.807 35.66 289.845 35.8892 289.845 36.1596V39.1104H289.123V38.6507Z" fill="#8C99B2"/>
<path d="M172.994 83.4102H169.254V82.6271H170.645V77.4861H169.254V76.7855C169.78 76.7855 170.166 76.7117 170.413 76.564C170.664 76.4129 170.805 76.1296 170.836 75.714H171.634V82.6271H172.994V83.4102ZM179.263 80.922C179.263 81.317 179.198 81.681 179.068 82.0141C178.937 82.3473 178.762 82.6254 178.542 82.8487C178.312 83.0856 178.054 83.2659 177.769 83.3896C177.484 83.5097 177.17 83.5698 176.827 83.5698C176.48 83.5698 176.164 83.5115 175.879 83.3947C175.597 83.2779 175.348 83.1045 175.132 82.8744C174.867 82.5962 174.66 82.2253 174.509 81.7617C174.361 81.2947 174.287 80.7211 174.287 80.0412C174.287 79.3749 174.356 78.7739 174.493 78.2382C174.631 77.699 174.842 77.2302 175.127 76.8319C175.405 76.4438 175.764 76.1416 176.203 75.9252C176.643 75.7054 177.151 75.5955 177.728 75.5955C177.9 75.5955 178.06 75.6041 178.207 75.6213C178.355 75.6385 178.485 75.6659 178.599 75.7037V76.6876H178.552C178.46 76.6361 178.326 76.5897 178.151 76.5485C177.975 76.5039 177.788 76.4816 177.589 76.4816C176.95 76.4816 176.433 76.6979 176.039 77.1306C175.647 77.5599 175.415 78.1987 175.343 79.0469C175.587 78.8752 175.838 78.743 176.095 78.6503C176.353 78.5576 176.634 78.5112 176.94 78.5112C177.239 78.5112 177.5 78.5421 177.723 78.6039C177.95 78.6623 178.185 78.7825 178.429 78.9645C178.71 79.1774 178.92 79.447 179.057 79.7733C179.195 80.0995 179.263 80.4825 179.263 80.922ZM178.218 80.9633C178.218 80.6473 178.176 80.3829 178.094 80.1699C178.012 79.957 177.878 79.775 177.692 79.6239C177.558 79.514 177.405 79.4419 177.234 79.4075C177.065 79.3732 176.892 79.356 176.713 79.356C176.473 79.356 176.239 79.3921 176.013 79.4642C175.786 79.5363 175.563 79.6411 175.343 79.7784C175.336 79.854 175.331 79.9278 175.328 80C175.324 80.0686 175.323 80.1562 175.323 80.2627C175.323 80.795 175.374 81.2243 175.477 81.5505C175.584 81.8768 175.714 82.124 175.869 82.2923C176.016 82.4537 176.167 82.567 176.322 82.6323C176.48 82.6976 176.65 82.7302 176.832 82.7302C177.244 82.7302 177.577 82.5825 177.831 82.2872C178.089 81.9918 178.218 81.5505 178.218 80.9633Z" fill="#303549"/>
<path opacity="0.2" d="M174.089 50.2016C174.089 51.751 173.863 52.889 173.411 53.6154C172.962 54.3379 172.269 54.6992 171.33 54.6992C170.379 54.6992 169.682 54.3302 169.238 53.5922C168.793 52.8542 168.571 51.7278 168.571 50.2132C168.571 48.656 168.795 47.5181 169.243 46.7994C169.695 46.0768 170.391 45.7156 171.33 45.7156C172.28 45.7156 172.978 46.0884 173.422 46.8342C173.867 47.5799 174.089 48.7024 174.089 50.2016ZM172.605 52.8329C172.717 52.547 172.796 52.1857 172.843 51.7491C172.889 51.3125 172.912 50.7966 172.912 50.2016C172.912 49.6104 172.889 49.0965 172.843 48.6599C172.796 48.2233 172.715 47.86 172.599 47.5702C172.483 47.2766 172.323 47.0544 172.118 46.9037C171.917 46.7492 171.654 46.6719 171.33 46.6719C171.009 46.6719 170.745 46.7492 170.536 46.9037C170.331 47.0544 170.169 47.2805 170.049 47.5818C169.933 47.8755 169.854 48.2464 169.811 48.6947C169.769 49.1429 169.748 49.649 169.748 50.2132C169.748 50.816 169.765 51.3202 169.8 51.7259C169.838 52.1316 169.92 52.4948 170.043 52.8155C170.155 53.1131 170.314 53.343 170.518 53.5052C170.727 53.6637 170.998 53.7429 171.33 53.7429C171.651 53.7429 171.913 53.6675 172.118 53.5168C172.327 53.3623 172.489 53.1343 172.605 52.8329Z" fill="#8C99B2"/>
<path opacity="0.2" d="M249.722 49.8624C249.722 51.2396 249.521 52.2509 249.119 52.8966C248.721 53.5388 248.104 53.8599 247.27 53.8599C246.425 53.8599 245.805 53.5319 245.41 52.876C245.015 52.22 244.818 51.219 244.818 49.8727C244.818 48.4887 245.017 47.4773 245.415 46.8386C245.817 46.1964 246.435 45.8753 247.27 45.8753C248.114 45.8753 248.734 46.2067 249.129 46.8695C249.524 47.5323 249.722 48.5299 249.722 49.8624ZM248.403 52.2011C248.503 51.947 248.573 51.6259 248.614 51.2378C248.655 50.8498 248.676 50.3913 248.676 49.8624C248.676 49.337 248.655 48.8802 248.614 48.4922C248.573 48.1041 248.501 47.7813 248.398 47.5237C248.295 47.2627 248.152 47.0652 247.97 46.9313C247.792 46.7939 247.558 46.7252 247.27 46.7252C246.985 46.7252 246.749 46.7939 246.564 46.9313C246.382 47.0652 246.238 47.2661 246.131 47.534C246.028 47.795 245.958 48.1247 245.92 48.5231C245.882 48.9214 245.863 49.3713 245.863 49.8727C245.863 50.4085 245.879 50.8566 245.91 51.2172C245.944 51.5778 246.016 51.9007 246.126 52.1857C246.226 52.4501 246.366 52.6545 246.548 52.7987C246.734 52.9395 246.974 53.0099 247.27 53.0099C247.555 53.0099 247.788 52.9429 247.97 52.809C248.156 52.6716 248.3 52.469 248.403 52.2011Z" fill="#8C99B2"/>
<path d="M249.148 68.8203H248.384V63.7491H245.738V68.8203H244.973V63.0693H249.148V68.8203ZM253.88 66.5493C253.88 67.2677 253.707 67.8406 253.362 68.268C253.02 68.6929 252.586 68.9053 252.061 68.9053C251.847 68.9053 251.658 68.8808 251.493 68.8319C251.328 68.783 251.159 68.707 250.987 68.604V70.4116H250.261V64.5061H250.987V64.958C251.167 64.7958 251.367 64.6606 251.585 64.5525C251.807 64.4417 252.048 64.3864 252.308 64.3864C252.802 64.3864 253.187 64.5821 253.463 64.9735C253.741 65.3648 253.88 65.8901 253.88 66.5493ZM253.13 66.6304C253.13 66.1386 253.052 65.7575 252.895 65.4871C252.738 65.2142 252.483 65.0777 252.13 65.0777C251.924 65.0777 251.725 65.1241 251.531 65.2168C251.341 65.3069 251.159 65.4241 250.987 65.5683V68.0131C251.177 68.1058 251.34 68.1689 251.473 68.2023C251.61 68.2358 251.766 68.2526 251.941 68.2526C252.317 68.2526 252.609 68.1148 252.818 67.8393C253.026 67.5638 253.13 67.1608 253.13 66.6304ZM258.182 66.6651C258.182 67.3913 258.007 67.9526 257.657 68.3491C257.307 68.7431 256.841 68.94 256.259 68.94C255.659 68.94 255.186 68.7366 254.841 68.3298C254.499 67.9204 254.328 67.3655 254.328 66.6651C254.328 65.9442 254.504 65.3841 254.857 64.985C255.212 64.5859 255.68 64.3864 256.259 64.3864C256.841 64.3864 257.307 64.5859 257.657 64.985C258.007 65.3816 258.182 65.9416 258.182 66.6651ZM257.433 66.6651C257.433 66.1064 257.331 65.6918 257.128 65.4215C256.924 65.1485 256.635 65.0121 256.259 65.0121C255.88 65.0121 255.588 65.1485 255.382 65.4215C255.179 65.6918 255.077 66.1064 255.077 66.6651C255.077 67.2059 255.179 67.6166 255.382 67.8972C255.588 68.1753 255.88 68.3144 256.259 68.3144C256.632 68.3144 256.921 68.1779 257.124 67.9049C257.33 67.6294 257.433 67.2162 257.433 66.6651ZM261.67 65.1434H259.654V68.8203H258.928V64.5061H261.67V65.1434ZM265.617 68.8203H264.891V66.8776H262.937V68.8203H262.211V64.5061H262.937V66.2519H264.891V64.5061H265.617V68.8203ZM270.217 66.6651C270.217 67.3913 270.042 67.9526 269.692 68.3491C269.342 68.7431 268.876 68.94 268.294 68.94C267.694 68.94 267.221 68.7366 266.876 68.3298C266.534 67.9204 266.363 67.3655 266.363 66.6651C266.363 65.9442 266.539 65.3841 266.892 64.985C267.247 64.5859 267.714 64.3864 268.294 64.3864C268.876 64.3864 269.342 64.5859 269.692 64.985C270.042 65.3816 270.217 65.9416 270.217 66.6651ZM269.468 66.6651C269.468 66.1064 269.366 65.6918 269.163 65.4215C268.959 65.1485 268.67 65.0121 268.294 65.0121C267.915 65.0121 267.623 65.1485 267.417 65.4215C267.214 65.6918 267.112 66.1064 267.112 66.6651C267.112 67.2059 267.214 67.6166 267.417 67.8972C267.623 68.1753 267.915 68.3144 268.294 68.3144C268.667 68.3144 268.956 68.1779 269.159 67.9049C269.365 67.6294 269.468 67.2162 269.468 66.6651ZM273.821 67.6269C273.821 67.8689 273.768 68.0736 273.662 68.241C273.557 68.4083 273.422 68.5409 273.257 68.6388C273.1 68.7341 272.921 68.8049 272.72 68.8512C272.519 68.8976 272.318 68.9207 272.117 68.9207C271.834 68.9207 271.566 68.8924 271.314 68.8358C271.062 68.7817 270.811 68.6941 270.561 68.5731V67.7698H270.607C270.782 67.932 271.001 68.0607 271.264 68.156C271.529 68.2487 271.793 68.295 272.056 68.295C272.169 68.295 272.29 68.2835 272.419 68.2603C272.55 68.2345 272.661 68.1959 272.751 68.1444C272.869 68.0723 272.953 67.9951 273.002 67.9127C273.053 67.8303 273.079 67.717 273.079 67.5728C273.079 67.4183 273.05 67.2947 272.99 67.202C272.934 67.1067 272.855 67.0359 272.755 66.9896C272.654 66.9432 272.541 66.9149 272.415 66.9046C272.291 66.8917 272.16 66.8853 272.021 66.8853H271.511V66.2596H271.901C271.999 66.2596 272.121 66.257 272.268 66.2519C272.415 66.2442 272.532 66.2236 272.62 66.1901C272.73 66.1489 272.819 66.091 272.886 66.0163C272.953 65.939 272.987 65.8103 272.987 65.63C272.987 65.5039 272.958 65.4022 272.902 65.3249C272.845 65.2477 272.774 65.1872 272.689 65.1434C272.602 65.0971 272.506 65.0662 272.403 65.0507C272.3 65.0327 272.201 65.0237 272.106 65.0237C271.861 65.0237 271.626 65.0584 271.399 65.1279C271.175 65.1949 270.982 65.2953 270.82 65.4292H270.773V64.6452C270.959 64.5808 271.163 64.5241 271.388 64.4752C271.614 64.4263 271.841 64.4018 272.067 64.4018C272.25 64.4018 272.435 64.4211 272.623 64.4598C272.814 64.4958 272.994 64.5589 273.164 64.649C273.324 64.7366 273.458 64.8576 273.566 65.0121C273.674 65.164 273.728 65.3507 273.728 65.5721C273.728 65.8064 273.661 66.0124 273.527 66.1901C273.396 66.3652 273.221 66.481 273.002 66.5377V66.5647C273.241 66.6471 273.437 66.7733 273.589 66.9432C273.744 67.1132 273.821 67.341 273.821 67.6269Z" fill="#0089FF"/>
<path d="M249.686 84.5498H244.951V83.4732C245.291 83.1503 245.613 82.8413 245.915 82.5459C246.217 82.2506 246.512 81.9432 246.801 81.6238C247.385 80.9816 247.783 80.4682 247.996 80.0836C248.209 79.6955 248.315 79.2954 248.315 78.8833C248.315 78.6704 248.281 78.4832 248.212 78.3218C248.147 78.1604 248.056 78.0265 247.939 77.92C247.819 77.817 247.68 77.7397 247.522 77.6882C247.364 77.6367 247.191 77.6109 247.002 77.6109C246.82 77.6109 246.634 77.635 246.445 77.683C246.26 77.7277 246.081 77.7843 245.91 77.853C245.765 77.9114 245.626 77.9818 245.492 78.0642C245.358 78.1467 245.25 78.2171 245.168 78.2754H245.111V77.1833C245.324 77.0769 245.619 76.9739 245.997 76.8743C246.378 76.7712 246.739 76.7197 247.079 76.7197C247.793 76.7197 248.353 76.9103 248.758 77.2915C249.164 77.6693 249.366 78.1827 249.366 78.8318C249.366 79.1306 249.33 79.407 249.258 79.6612C249.189 79.9153 249.093 80.1505 248.97 80.3669C248.842 80.5901 248.69 80.8116 248.511 81.0314C248.333 81.2512 248.144 81.4676 247.944 81.6805C247.622 82.0308 247.261 82.3948 246.863 82.7726C246.468 83.1503 246.152 83.4491 245.915 83.6689H249.686V84.5498Z" fill="#0089FF"/>
<path d="M83.4 94.3504C103.188 94.3504 119.23 78.3088 119.23 58.5204C119.23 38.7321 103.188 22.6904 83.4 22.6904C63.6116 22.6904 47.57 38.7321 47.57 58.5204C47.57 78.3088 63.6116 94.3504 83.4 94.3504Z" stroke="white" stroke-opacity="0.5" stroke-width="11.35" stroke-miterlimit="10"/>
<path d="M83.4 94.3504C103.188 94.3504 119.23 78.3088 119.23 58.5204C119.23 38.7321 103.188 22.6904 83.4 22.6904C63.6116 22.6904 47.57 38.7321 47.57 58.5204C47.57 78.3088 63.6116 94.3504 83.4 94.3504Z" stroke="#8C99B2" stroke-width="5.67" stroke-linejoin="round"/>
<path d="M76.68 25.9996V32.1096L74 26.6596C74.44 26.5296 74.88 26.4196 75.33 26.3196C75.78 26.2196 76.23 26.1196 76.68 26.0296V25.9996ZM82.6 19.5596C76.787 19.5651 71.0518 20.8955 65.83 23.4496L82.62 57.7396V19.5596H82.6Z" fill="#0089FF"/>
<path d="M83.4 94.4396C103.238 94.4396 119.32 78.3577 119.32 58.5196C119.32 38.6815 103.238 22.5996 83.4 22.5996C63.5619 22.5996 47.48 38.6815 47.48 58.5196C47.48 78.3577 63.5619 94.4396 83.4 94.4396Z" fill="#F5F8FD"/>
<path d="M82.3948 65.3896H74.1115V63.201H76.7547V56.576H74.1115V54.5305C74.4987 54.5305 74.8832 54.5052 75.2648 54.4547C75.6464 54.4042 75.9522 54.3228 76.1823 54.2106C76.4517 54.0759 76.6593 53.8963 76.8053 53.6718C76.9568 53.4417 77.0438 53.1583 77.0662 52.8216H79.8105V63.201H82.3948V65.3896ZM93.8937 61.8962C93.8937 62.4349 93.7815 62.9372 93.557 63.403C93.3381 63.8632 93.0155 64.2616 92.5889 64.5984C92.1624 64.9351 91.6405 65.1988 91.0232 65.3896C90.4115 65.5805 89.71 65.6759 88.9187 65.6759C88.0769 65.6759 87.3389 65.5805 86.7048 65.3896C86.0706 65.1932 85.5515 64.9295 85.1475 64.5984C84.749 64.2673 84.4544 63.8772 84.2636 63.4283C84.0728 62.9793 83.9774 62.5051 83.9774 62.0056C83.9774 61.2873 84.1738 60.6896 84.5666 60.2126C84.9651 59.7356 85.5403 59.3371 86.2923 59.0172V58.9667C85.5571 58.6076 85.0436 58.1726 84.7518 57.662C84.46 57.1513 84.3141 56.5816 84.3141 55.9531C84.3141 55.4929 84.4151 55.0608 84.6171 54.6567C84.8192 54.2527 85.1222 53.8907 85.5263 53.5708C85.9079 53.2678 86.3905 53.0265 86.9742 52.8469C87.5634 52.6617 88.2228 52.5691 88.9524 52.5691C89.7268 52.5691 90.4003 52.6533 90.9727 52.8216C91.5507 52.9844 92.0249 53.2004 92.3953 53.4698C92.7769 53.7448 93.0688 54.0787 93.2708 54.4715C93.4728 54.8588 93.5738 55.2797 93.5738 55.7342C93.5738 56.3291 93.3999 56.8679 93.0519 57.3505C92.7096 57.8275 92.1821 58.2288 91.4694 58.5543V58.6048C92.2999 58.9415 92.9116 59.3848 93.3045 59.9348C93.6973 60.4792 93.8937 61.133 93.8937 61.8962ZM90.5265 56.1046C90.5265 55.6781 90.3862 55.3386 90.1056 55.0861C89.825 54.8279 89.4434 54.6988 88.9608 54.6988C88.5006 54.6988 88.1274 54.8139 87.8412 55.044C87.5606 55.2741 87.4203 55.5575 87.4203 55.8942C87.4203 56.2309 87.5045 56.5031 87.6729 56.7107C87.8468 56.9128 88.1134 57.1008 88.4726 57.2747C88.6297 57.3533 88.8149 57.4347 89.0281 57.5188C89.247 57.603 89.536 57.7125 89.8952 57.8471C90.1141 57.5609 90.274 57.286 90.375 57.0222C90.476 56.7528 90.5265 56.447 90.5265 56.1046ZM90.7875 62.0309C90.7875 61.6212 90.7005 61.3069 90.5265 61.0881C90.3526 60.8692 89.9794 60.6223 89.407 60.3473C89.2442 60.2687 89.0085 60.1705 88.6998 60.0527C88.3968 59.9348 88.1274 59.8254 87.8917 59.7244C87.6729 59.9432 87.4764 60.2154 87.3025 60.5409C87.1341 60.8608 87.0499 61.2143 87.0499 61.6016C87.0499 62.1852 87.2351 62.651 87.6055 62.9989C87.9759 63.3469 88.4641 63.5209 89.0702 63.5209C89.233 63.5209 89.4182 63.4956 89.6258 63.4451C89.8391 63.389 90.0271 63.3048 90.1898 63.1926C90.3694 63.0635 90.5125 62.912 90.6191 62.738C90.7314 62.564 90.7875 62.3283 90.7875 62.0309Z" fill="#8C99B2"/>
<path d="M83.75 16.7803H82.34V28.5903H83.75V16.7803Z" fill="#F5F8FD"/>
<path d="M65.6106 20.502L64.3442 21.1221L69.5381 31.7287L70.8044 31.1086L65.6106 20.502Z" fill="#F5F8FD"/>
<g opacity="0.2">
<path opacity="0.2" d="M48.78 28.4295L47.7 27.4795L47.22 28.0295L48.32 28.9695L48.78 28.4295Z" fill="#8C99B2"/>
<path opacity="0.2" d="M50.72 26.3496L49.72 25.3496L49.21 25.8696L50.21 26.8696L50.72 26.3496Z" fill="#8C99B2"/>
<path opacity="0.2" d="M49.74 27.3799L48.68 26.3799L48.19 26.9199L49.26 27.9199C49.41 27.7199 49.57 27.5499 49.74 27.3799Z" fill="#8C99B2"/>
<path opacity="0.2" d="M46.13 31.7602L45 30.9102L44.36 31.8202L45.76 32.3402L46.13 31.7602Z" fill="#8C99B2"/>
<path opacity="0.2" d="M47.86 29.5096L46.75 28.5996C46.6 28.7796 46.44 28.9696 46.29 29.1696L47.42 30.0596L47.86 29.5096Z" fill="#8C99B2"/>
<path opacity="0.2" d="M47 30.6202L45.86 29.7402L45.42 30.3202L46.57 31.1902L47 30.6202Z" fill="#8C99B2"/>
<path opacity="0.2" d="M55 22.5704L54.11 21.4404L53.54 21.9004L54.4 23.0004L55 22.5704Z" fill="#8C99B2"/>
<path opacity="0.2" d="M54.64 20.9996L55.52 22.1496C55.7 21.9996 56.52 21.3496 56.76 21.2096L55.23 20.5596L54.64 20.9996Z" fill="#8C99B2"/>
<path opacity="0.2" d="M51.73 25.3596L50.73 24.3096L50.2 24.8196L51.2 25.8196L51.73 25.3596Z" fill="#8C99B2"/>
<path opacity="0.2" d="M53.85 23.4704L52.93 22.3604L52.37 22.8404L53.31 23.9304L53.85 23.4704Z" fill="#8C99B2"/>
<path opacity="0.2" d="M52.78 24.4003L51.78 23.3203L51.24 23.8103L52.24 24.8703L52.78 24.4003Z" fill="#8C99B2"/>
<path opacity="0.2" d="M116.6 27.7995L117.66 26.7995C117.49 26.6195 117.33 26.4395 117.16 26.2695L116.16 27.2695L116.6 27.7995Z" fill="#8C99B2"/>
<path opacity="0.2" d="M115.62 26.77L116.62 25.77L116.1 25.25L115.1 26.25L115.62 26.77Z" fill="#8C99B2"/>
<path opacity="0.2" d="M117.55 28.8604L118.64 27.9104C118.48 27.7204 118.32 27.5404 118.15 27.3604L117.08 28.3604L117.55 28.8604Z" fill="#8C99B2"/>
<path opacity="0.2" d="M114.61 25.7795L115.61 24.7295L115.08 24.2295L114.08 25.2895L114.61 25.7795Z" fill="#8C99B2"/>
<path opacity="0.2" d="M119.35 31.0496L120.49 30.1696C120.35 29.9763 120.2 29.7863 120.04 29.5996L118.91 30.4896L119.35 31.0496Z" fill="#8C99B2"/>
<path opacity="0.2" d="M118.47 29.94L119.58 29.03L119.12 28.46L118.01 29.39L118.47 29.94Z" fill="#8C99B2"/>
<path opacity="0.2" d="M113.57 24.81L114.57 23.74L114.02 23.25L113.02 24.34L113.57 24.81Z" fill="#8C99B2"/>
<path opacity="0.2" d="M111.13 21.0003L110.54 20.5703L109.03 21.2603L110.27 22.1603L111.13 21.0003Z" fill="#8C99B2"/>
<path opacity="0.2" d="M119.78 31.6202L120.2 32.1902L121.65 31.7402L120.94 30.7402L119.78 31.6202Z" fill="#8C99B2"/>
<path opacity="0.2" d="M112.49 23.8796L113.42 22.7796L112.86 22.3096L112 23.4296L112.49 23.8796Z" fill="#8C99B2"/>
<path opacity="0.2" d="M111.4 22.9999L112.29 21.8699L111.71 21.4199L110.84 22.5699L111.4 22.9999Z" fill="#8C99B2"/>
<path opacity="0.2" d="M50.22 91.0703L49.22 92.0703L49.73 92.5903L50.73 91.5903L50.22 91.0703Z" fill="#8C99B2"/>
<path opacity="0.2" d="M51.22 92.0801L50.22 93.0801L50.75 93.5901L51.75 92.5401L51.22 92.0801Z" fill="#8C99B2"/>
<path opacity="0.2" d="M47.42 87.8604L46.29 88.7604L46.75 89.3304L47.86 88.4203L47.42 87.8604Z" fill="#8C99B2"/>
<path opacity="0.2" d="M52.25 93.0498L51.25 94.1198L51.79 94.6098L52.79 93.5298L52.25 93.0498Z" fill="#8C99B2"/>
<path opacity="0.2" d="M48.32 89L47.22 89.93L47.7 90.49L48.78 89.49L48.32 89Z" fill="#8C99B2"/>
<path opacity="0.2" d="M49.26 90L48.19 91L48.68 91.54L49.74 90.54C49.57 90.38 49.41 90.2 49.26 90Z" fill="#8C99B2"/>
<path opacity="0.2" d="M46.55 86.7402L45.4 87.6002C45.54 87.8002 45.69 87.9902 45.84 88.1902L47 87.3002L46.55 86.7402Z" fill="#8C99B2"/>
<path opacity="0.2" d="M53.31 94L52.37 95.09L52.93 95.57L53.85 94.46L53.31 94Z" fill="#8C99B2"/>
<path opacity="0.2" d="M45.72 85.5898L44.33 86.1298L45 86.9998L46.17 86.1599L45.72 85.5898Z" fill="#8C99B2"/>
<path opacity="0.2" d="M54.4 94.9102L53.49 96.0002L54.06 96.4602L55 95.3602L54.4 94.9102Z" fill="#8C99B2"/>
<path opacity="0.2" d="M54.64 96.94L55.23 97.38L56.76 96.73C56.57 96.59 55.7 95.94 55.52 95.79L54.64 96.94Z" fill="#8C99B2"/>
<path opacity="0.2" d="M114.09 92.6404L115.09 93.7004L115.62 93.1904L114.62 92.1904L114.09 92.6404Z" fill="#8C99B2"/>
<path opacity="0.2" d="M118 88.53L119.11 89.46L119.57 88.9L118.47 88L118 88.53Z" fill="#8C99B2"/>
<path opacity="0.2" d="M116.12 90.6404L117.12 91.6404C117.29 91.4704 117.45 91.2904 117.62 91.1104L116.56 90.1104L116.12 90.6404Z" fill="#8C99B2"/>
<path opacity="0.2" d="M117.08 89.5998L118.15 90.5998C118.32 90.4198 118.48 90.2298 118.64 90.0498L117.55 89.0498C117.4 89.2498 117.24 89.4298 117.08 89.5998Z" fill="#8C99B2"/>
<path opacity="0.2" d="M119.78 86.3102L120.94 87.1702L121.6 86.2602L120.2 85.7402L119.78 86.3102Z" fill="#8C99B2"/>
<path opacity="0.2" d="M118.91 87.4399L120.04 88.3299C120.2 88.1399 120.35 87.9499 120.49 87.7499L119.35 86.8799L118.91 87.4399Z" fill="#8C99B2"/>
<path opacity="0.2" d="M112 94.4998L112.91 95.6198L113.47 95.1498L112.54 94.0498L112 94.4998Z" fill="#8C99B2"/>
<path opacity="0.2" d="M110.84 95.38L111.71 96.53L112.29 96.08L111.4 95L110.84 95.38Z" fill="#8C99B2"/>
<path opacity="0.2" d="M115.12 91.6597L116.12 92.6597L116.64 92.1396L115.64 91.1396C115.45 91.3196 115.29 91.4897 115.12 91.6597Z" fill="#8C99B2"/>
<path opacity="0.2" d="M109 96.7396L110.54 97.3996L111.13 96.9696L110.27 95.8096L109 96.7396Z" fill="#8C99B2"/>
<path opacity="0.2" d="M113 93.5903L114 94.6703L114.55 94.1904L113.55 93.1104L113 93.5903Z" fill="#8C99B2"/>
<path opacity="0.2" d="M130 45.34L129.21 45.12C127.748 40.2666 125.531 35.6737 122.64 31.51C123.31 31.25 124.31 30.92 124.96 30.71C120.12 23.3378 113.435 17.3599 105.57 13.37L103.69 14.66H102.91C96.6339 11.7869 89.8125 10.2998 82.91 10.2998C76.0075 10.2998 69.1861 11.7869 62.91 14.66L60.18 13.41C52.3457 17.3992 45.6867 23.362 40.86 30.71C41.52 30.92 42.52 31.25 43.19 31.51C40.2975 35.669 38.0801 40.2589 36.62 45.11L35.8 45.34C33.2132 54.2629 33.2132 63.737 35.8 72.66L36.63 72.89C38.0845 77.7414 40.2987 82.3316 43.19 86.49C42.52 86.75 41.52 87.08 40.87 87.29C45.7104 94.6621 52.395 100.64 60.26 104.63L62.14 103.34H62.92C69.1961 106.213 76.0175 107.7 82.92 107.7C89.8225 107.7 96.6439 106.213 102.92 103.34L105.66 104.59C113.502 100.605 120.169 94.6415 125 87.29C124.35 87.08 123.35 86.75 122.68 86.49C125.571 82.328 127.786 77.7345 129.24 72.88L130.04 72.66C132.627 63.737 132.627 54.2629 130.04 45.34H130ZM127.52 73.34L128.38 73.1C125.272 83.0514 118.997 91.7145 110.51 97.77L108.6 97C103.779 100.364 98.3421 102.743 92.6 104L91.06 102.72H74.59L73.09 103.97C67.4058 102.687 62.0257 100.309 57.25 96.97L55.33 97.78C46.8461 91.7239 40.5687 83.0662 37.45 73.12L38.28 73.35C35.293 64.0164 35.293 53.9835 38.28 44.65L37.45 44.88C40.5687 34.9338 46.8461 26.276 55.33 20.22L57.25 21.03C62.0715 17.6678 67.5085 15.2891 73.25 14.03L74.79 15.31H91.27L92.77 14.06C98.4511 15.3433 103.828 17.7209 108.6 21.06L110.53 20.25C119.017 26.3076 125.295 34.9694 128.41 44.92L127.54 44.68C130.54 54.0115 130.54 64.0484 127.54 73.38L127.52 73.34Z" fill="#8C99B2"/>
</g>
</svg>
