<svg width="324" height="117" viewBox="0 0 324 117" fill="none" xmlns="http://www.w3.org/2000/svg">
<path d="M21.86 89.6446V90.437L20.1161 91.734V92.0523H21.86V92.6889H18.0775V92.0523H19.7233C19.721 91.8875 19.6871 91.7475 19.6217 91.6324C19.554 91.515 19.4242 91.4156 19.2323 91.3344C19.1758 91.3095 19.1104 91.2825 19.0359 91.2531C18.9614 91.2215 18.8959 91.1967 18.8395 91.1786C18.5618 91.0793 18.3654 90.9416 18.2502 90.7655C18.1351 90.5894 18.0775 90.3603 18.0775 90.0781V89.9054H18.6261V90.051C18.6261 90.2293 18.6634 90.3637 18.7379 90.454C18.8101 90.542 18.9433 90.6165 19.1374 90.6774C19.3339 90.7407 19.4874 90.8152 19.598 90.9009C19.7063 90.9867 19.7899 91.0815 19.8486 91.1854L21.86 89.6446ZM19.9705 86.1229C20.6071 86.1229 21.0992 86.2764 21.4469 86.5835C21.7923 86.8905 21.965 87.2991 21.965 87.8093C21.965 88.3353 21.7866 88.7495 21.4299 89.052C21.071 89.3523 20.5845 89.5024 19.9705 89.5024C19.3384 89.5024 18.8474 89.3478 18.4974 89.0385C18.1475 88.727 17.9726 88.3172 17.9726 87.8093C17.9726 87.2991 18.1475 86.8905 18.4974 86.5835C18.8451 86.2764 19.3361 86.1229 19.9705 86.1229ZM19.9705 86.7799C19.4806 86.7799 19.1171 86.869 18.8801 87.0474C18.6408 87.2257 18.5211 87.4797 18.5211 87.8093C18.5211 88.1411 18.6408 88.3974 18.8801 88.578C19.1171 88.7563 19.4806 88.8455 19.9705 88.8455C20.4445 88.8455 20.8046 88.7563 21.0507 88.578C21.2945 88.3974 21.4164 88.1411 21.4164 87.8093C21.4164 87.4819 21.2968 87.2291 21.0575 87.0508C20.8159 86.8702 20.4536 86.7799 19.9705 86.7799ZM21.86 82.5403V83.1769H18.6126V84.4772C18.7999 84.484 18.9806 84.4907 19.1544 84.4975C19.3259 84.5043 19.4817 84.5111 19.6217 84.5178C19.9761 84.5314 20.273 84.5551 20.5123 84.5889C20.7516 84.6206 20.9435 84.6612 21.0879 84.7109C21.2369 84.7605 21.3532 84.8158 21.4367 84.8768C21.5202 84.9355 21.5959 85.0021 21.6636 85.0766C21.7313 85.1533 21.7821 85.2357 21.816 85.3238C21.8498 85.4118 21.8668 85.5111 21.8668 85.6218C21.8668 85.6579 21.8656 85.7042 21.8634 85.7606C21.8611 85.817 21.86 85.8565 21.86 85.8791H21.3047V85.8452C21.3047 85.8294 21.3058 85.8136 21.308 85.7978C21.3103 85.7798 21.3114 85.7595 21.3114 85.7369C21.3114 85.6827 21.3035 85.6297 21.2877 85.5777C21.2719 85.5258 21.2426 85.4795 21.1997 85.4389C21.0891 85.326 20.896 85.2436 20.6206 85.1917C20.343 85.1398 19.9558 85.1025 19.4591 85.08C19.274 85.0709 19.055 85.063 18.8022 85.0563C18.5494 85.0472 18.3078 85.0393 18.0775 85.0325V82.5403H21.86ZM21.86 78.6291V79.259H19.0392L21.86 81.0401V81.6158H18.0775V80.986H20.8543L18.0775 79.2251V78.6291H21.86ZM21.86 74.8636V75.5002H20.3836C20.4491 75.6989 20.4999 75.8919 20.536 76.0793C20.5721 76.2666 20.5902 76.4518 20.5902 76.6346C20.5902 76.7949 20.5698 76.9518 20.5292 77.1053C20.4863 77.2566 20.4175 77.3875 20.3226 77.4981C20.2278 77.6087 20.107 77.6945 19.9603 77.7555C19.8113 77.8142 19.6364 77.8435 19.4354 77.8435H18.0775V77.2069H19.1036C19.2706 77.2069 19.4038 77.2001 19.5032 77.1866C19.6002 77.173 19.6951 77.1358 19.7876 77.0748C19.8666 77.0229 19.9276 76.945 19.9705 76.8412C20.0134 76.7351 20.0348 76.5962 20.0348 76.4247C20.0348 76.2757 20.0201 76.1165 19.9908 75.9472C19.9614 75.7756 19.9264 75.6266 19.8858 75.5002H18.0775V74.8636H21.86ZM21.948 72.3002C21.948 72.903 21.7787 73.3714 21.4401 73.7055C21.0992 74.0374 20.6161 74.2033 19.9908 74.2033C19.3745 74.2033 18.8846 74.0419 18.5211 73.719C18.1554 73.3962 17.9726 72.9741 17.9726 72.4526C17.9726 72.2178 18.0064 72.0101 18.0742 71.8295C18.1419 71.6489 18.248 71.4909 18.3925 71.3554C18.537 71.22 18.7142 71.1161 18.9241 71.0439C19.1318 70.9717 19.3869 70.9355 19.6894 70.9355H20.0348V73.5565C20.475 73.5565 20.8114 73.4459 21.0439 73.2247C21.2764 73.0034 21.3927 72.6975 21.3927 72.307C21.3927 72.167 21.3769 72.0304 21.3453 71.8972C21.3137 71.7618 21.273 71.6399 21.2234 71.5315C21.1715 71.4164 21.1218 71.3193 21.0744 71.2403C21.0247 71.1613 20.9784 71.0958 20.9356 71.0439V71.0067H21.6297C21.6591 71.0812 21.6963 71.1737 21.7415 71.2843C21.7844 71.3949 21.8182 71.4943 21.8431 71.5823C21.8769 71.7065 21.9029 71.8194 21.921 71.9209C21.939 72.0203 21.948 72.1467 21.948 72.3002ZM19.5472 71.5552C19.3756 71.5597 19.2277 71.5801 19.1036 71.6162C18.9794 71.6523 18.8744 71.7042 18.7887 71.7719C18.6938 71.8464 18.6216 71.9424 18.5719 72.0598C18.5223 72.1749 18.4974 72.3183 18.4974 72.4898C18.4974 72.6591 18.5234 72.8036 18.5753 72.9233C18.625 73.0407 18.6984 73.1479 18.7954 73.245C18.8948 73.3398 19.0054 73.412 19.1273 73.4617C19.2469 73.5114 19.3869 73.543 19.5472 73.5565V71.5552ZM21.9447 68.7887C21.9447 69.0483 21.9052 69.2864 21.8261 69.5032C21.7449 69.7199 21.623 69.9061 21.4604 70.0619C21.2979 70.2177 21.0936 70.3384 20.8475 70.4242C20.5992 70.51 20.308 70.5529 19.9739 70.5529C19.642 70.5529 19.3553 70.5089 19.1137 70.4208C18.8722 70.3305 18.669 70.2109 18.5042 70.0619C18.3394 69.9129 18.213 69.7278 18.125 69.5065C18.0347 69.283 17.9895 69.0438 17.9895 68.7887C17.9895 68.581 18.0189 68.3812 18.0775 68.1893C18.1362 67.9951 18.204 67.8224 18.2807 67.6712H18.9952V67.7084C18.9568 67.7536 18.9128 67.8123 18.8632 67.8845C18.8135 67.9545 18.7627 68.0403 18.7108 68.1419C18.6656 68.2299 18.6261 68.3338 18.5923 68.4534C18.5584 68.5731 18.5415 68.6882 18.5415 68.7988C18.5415 69.1284 18.6668 69.3937 18.9173 69.5946C19.1657 69.7932 19.5178 69.8926 19.9739 69.8926C20.4208 69.8926 20.7696 69.7966 21.0202 69.6047C21.2685 69.4106 21.3927 69.142 21.3927 68.7988C21.3927 68.5911 21.3498 68.3936 21.264 68.2062C21.1782 68.0188 21.0676 67.8529 20.9322 67.7084V67.6712H21.6467C21.676 67.7344 21.7121 67.8134 21.755 67.9082C21.7957 68.003 21.8261 68.0888 21.8465 68.1656C21.8781 68.2739 21.9018 68.371 21.9176 68.4568C21.9356 68.5426 21.9447 68.6532 21.9447 68.7887ZM18.6363 64.3256V65.6123H21.86V66.249H18.6363V67.5357H18.0775V64.3256H18.6363ZM20.7154 60.8851C20.8983 60.8851 21.0608 60.9201 21.2031 60.9901C21.343 61.0601 21.4604 61.156 21.5552 61.2779C21.6749 61.4314 21.7562 61.5929 21.799 61.7622C21.8397 61.9292 21.86 62.1301 21.86 62.3649V63.8515H18.0775V62.4631C18.0775 62.1854 18.0866 61.9823 18.1046 61.8536C18.1204 61.7249 18.1633 61.5974 18.2333 61.4709C18.3056 61.3378 18.4015 61.2396 18.5211 61.1763C18.6408 61.1131 18.783 61.0815 18.9478 61.0815C19.1284 61.0815 19.291 61.1312 19.4354 61.2305C19.5777 61.3299 19.6883 61.4619 19.7673 61.6267L19.791 61.6098C19.8429 61.4043 19.9479 61.2328 20.1059 61.0951C20.2639 60.9551 20.4671 60.8851 20.7154 60.8851ZM19.046 61.7351C18.9602 61.7351 18.8857 61.7497 18.8225 61.7791C18.7593 61.8062 18.7096 61.8547 18.6735 61.9247C18.6306 62.006 18.6058 62.0974 18.599 62.199C18.59 62.2983 18.5855 62.4372 18.5855 62.6155V63.2216H19.6217V62.4902C19.6217 62.3344 19.6149 62.2238 19.6014 62.1584C19.5856 62.0929 19.554 62.0206 19.5065 61.9416C19.4614 61.8671 19.4004 61.8141 19.3237 61.7825C19.2469 61.7509 19.1544 61.7351 19.046 61.7351ZM20.7188 61.5421C20.5902 61.5421 20.4874 61.5612 20.4107 61.5996C20.3317 61.6357 20.2617 61.717 20.2007 61.8434C20.1624 61.9224 20.1387 62.0071 20.1296 62.0974C20.1206 62.1877 20.1161 62.313 20.1161 62.4733V63.2216H21.3521V62.6697C21.3521 62.4417 21.343 62.2645 21.325 62.138C21.3069 62.0116 21.2708 61.9033 21.2166 61.813C21.1579 61.7181 21.0902 61.6493 21.0134 61.6064C20.9367 61.5635 20.8385 61.5421 20.7188 61.5421ZM19.9705 57.1027C20.6071 57.1027 21.0992 57.2562 21.4469 57.5632C21.7923 57.8702 21.965 58.2788 21.965 58.789C21.965 59.315 21.7866 59.7293 21.4299 60.0318C21.071 60.332 20.5845 60.4822 19.9705 60.4822C19.3384 60.4822 18.8474 60.3275 18.4974 60.0182C18.1475 59.7067 17.9726 59.297 17.9726 58.789C17.9726 58.2788 18.1475 57.8702 18.4974 57.5632C18.8451 57.2562 19.3361 57.1027 19.9705 57.1027ZM19.9705 57.7596C19.4806 57.7596 19.1171 57.8488 18.8801 58.0271C18.6408 58.2055 18.5211 58.4594 18.5211 58.789C18.5211 59.1209 18.6408 59.3771 18.8801 59.5577C19.1171 59.7361 19.4806 59.8252 19.9705 59.8252C20.4445 59.8252 20.8046 59.7361 21.0507 59.5577C21.2945 59.3771 21.4164 59.1209 21.4164 58.789C21.4164 58.4617 21.2968 58.2088 21.0575 58.0305C20.8159 57.8499 20.4536 57.7596 19.9705 57.7596ZM19.9705 51.1699C20.6071 51.1699 21.0992 51.3235 21.4469 51.6305C21.7923 51.9375 21.965 52.3461 21.965 52.8563C21.965 53.3823 21.7866 53.7966 21.4299 54.0991C21.071 54.3993 20.5845 54.5494 19.9705 54.5494C19.3384 54.5494 18.8474 54.3948 18.4974 54.0855C18.1475 53.774 17.9726 53.3642 17.9726 52.8563C17.9726 52.3461 18.1475 51.9375 18.4974 51.6305C18.8451 51.3235 19.3361 51.1699 19.9705 51.1699ZM19.9705 51.8269C19.4806 51.8269 19.1171 51.916 18.8801 52.0944C18.6408 52.2727 18.5211 52.5267 18.5211 52.8563C18.5211 53.1882 18.6408 53.4444 18.8801 53.625C19.1171 53.8033 19.4806 53.8925 19.9705 53.8925C20.4445 53.8925 20.8046 53.8033 21.0507 53.625C21.2945 53.4444 21.4164 53.1882 21.4164 52.8563C21.4164 52.529 21.2968 52.2761 21.0575 52.0978C20.8159 51.9172 20.4536 51.8269 19.9705 51.8269ZM18.6363 47.7532V49.04H21.86V49.6766H18.6363V50.9634H18.0775V47.7532H18.6363ZM21.86 44.2349V45.0273L20.1161 46.3242V46.6425H21.86V47.2791H18.0775V46.6425H19.7233C19.721 46.4777 19.6871 46.3377 19.6217 46.2226C19.554 46.1052 19.4242 46.0059 19.2323 45.9246C19.1758 45.8998 19.1104 45.8727 19.0359 45.8434C18.9614 45.8117 18.8959 45.7869 18.8395 45.7689C18.5618 45.6695 18.3654 45.5318 18.2502 45.3557C18.1351 45.1796 18.0775 44.9505 18.0775 44.6683V44.4956H18.6261V44.6412C18.6261 44.8196 18.6634 44.9539 18.7379 45.0442C18.8101 45.1322 18.9433 45.2067 19.1374 45.2677C19.3339 45.3309 19.4874 45.4054 19.598 45.4912C19.7063 45.577 19.7899 45.6718 19.8486 45.7756L21.86 44.2349ZM21.86 40.896V41.5326H18.6126V42.833C18.7999 42.8397 18.9806 42.8465 19.1544 42.8533C19.3259 42.8601 19.4817 42.8668 19.6217 42.8736C19.9761 42.8871 20.273 42.9108 20.5123 42.9447C20.7516 42.9763 20.9435 43.017 21.0879 43.0666C21.2369 43.1163 21.3532 43.1716 21.4367 43.2325C21.5202 43.2912 21.5959 43.3578 21.6636 43.4323C21.7313 43.5091 21.7821 43.5915 21.816 43.6795C21.8498 43.7676 21.8668 43.8669 21.8668 43.9775C21.8668 44.0136 21.8656 44.0599 21.8634 44.1164C21.8611 44.1728 21.86 44.2123 21.86 44.2349H21.3047V44.201C21.3047 44.1852 21.3058 44.1694 21.308 44.1536C21.3103 44.1355 21.3114 44.1152 21.3114 44.0927C21.3114 44.0385 21.3035 43.9854 21.2877 43.9335C21.2719 43.8816 21.2426 43.8353 21.1997 43.7947C21.0891 43.6818 20.896 43.5994 20.6206 43.5475C20.343 43.4955 19.9558 43.4583 19.4591 43.4357C19.274 43.4267 19.055 43.4188 18.8022 43.412C18.5494 43.403 18.3078 43.3951 18.0775 43.3883V40.896H21.86ZM19.9705 36.8596C20.6071 36.8596 21.0992 37.0131 21.4469 37.3201C21.7923 37.6272 21.965 38.0358 21.965 38.546C21.965 39.072 21.7866 39.4862 21.4299 39.7887C21.071 40.089 20.5845 40.2391 19.9705 40.2391C19.3384 40.2391 18.8474 40.0844 18.4974 39.7752C18.1475 39.4636 17.9726 39.0539 17.9726 38.546C17.9726 38.0358 18.1475 37.6272 18.4974 37.3201C18.8451 37.0131 19.3361 36.8596 19.9705 36.8596ZM19.9705 37.5165C19.4806 37.5165 19.1171 37.6057 18.8801 37.7841C18.6408 37.9624 18.5211 38.2164 18.5211 38.546C18.5211 38.8778 18.6408 39.134 18.8801 39.3146C19.1171 39.493 19.4806 39.5822 19.9705 39.5822C20.4445 39.5822 20.8046 39.493 21.0507 39.3146C21.2945 39.134 21.4164 38.8778 21.4164 38.546C21.4164 38.2186 21.2968 37.9658 21.0575 37.7874C20.8159 37.6068 20.4536 37.5165 19.9705 37.5165ZM21.86 33.2194V33.856H20.1567V35.5694H21.86V36.2061H18.0775V35.5694H19.6081V33.856H18.0775V33.2194H21.86ZM21.948 30.656C21.948 31.2587 21.7787 31.7272 21.4401 32.0613C21.0992 32.3931 20.6161 32.559 19.9908 32.559C19.3745 32.559 18.8846 32.3976 18.5211 32.0748C18.1554 31.752 17.9726 31.3298 17.9726 30.8084C17.9726 30.5736 18.0064 30.3659 18.0742 30.1853C18.1419 30.0047 18.248 29.8467 18.3925 29.7112C18.537 29.5758 18.7142 29.4719 18.9241 29.3997C19.1318 29.3274 19.3869 29.2913 19.6894 29.2913H20.0348V31.9123C20.475 31.9123 20.8114 31.8017 21.0439 31.5804C21.2764 31.3592 21.3927 31.0533 21.3927 30.6627C21.3927 30.5228 21.3769 30.3862 21.3453 30.253C21.3137 30.1176 21.273 29.9956 21.2234 29.8873C21.1715 29.7722 21.1218 29.6751 21.0744 29.5961C21.0247 29.5171 20.9784 29.4516 20.9356 29.3997V29.3624H21.6297C21.6591 29.4369 21.6963 29.5295 21.7415 29.6401C21.7844 29.7507 21.8182 29.85 21.8431 29.9381C21.8769 30.0622 21.9029 30.1751 21.921 30.2767C21.939 30.376 21.948 30.5025 21.948 30.656ZM19.5472 29.911C19.3756 29.9155 19.2277 29.9358 19.1036 29.9719C18.9794 30.0081 18.8744 30.06 18.7887 30.1277C18.6938 30.2022 18.6216 30.2982 18.5719 30.4155C18.5223 30.5307 18.4974 30.674 18.4974 30.8456C18.4974 31.0149 18.5234 31.1594 18.5753 31.279C18.625 31.3964 18.6984 31.5037 18.7954 31.6007C18.8948 31.6956 19.0054 31.7678 19.1273 31.8175C19.2469 31.8671 19.3869 31.8987 19.5472 31.9123V29.911ZM21.86 25.6612V26.2979H20.1567V28.0113H21.86V28.6479H18.0775V28.0113H19.6081V26.2979H18.0775V25.6612H21.86ZM21.86 21.7535V22.3833H19.0392L21.86 24.1645V24.7402H18.0775V24.1103H20.8543L18.0775 22.3495V21.7535H21.86ZM21.86 17.8457V18.4756H19.0392L21.86 20.2568V20.8324H18.0775V20.2026H20.8543L18.0775 18.4417V17.8457H21.86ZM16.3201 18.1302C16.5142 18.1302 16.6914 18.1539 16.8517 18.2013C17.0097 18.2487 17.1429 18.3164 17.2513 18.4045C17.3709 18.5061 17.4612 18.6212 17.5222 18.7499C17.5809 18.8786 17.6102 19.0434 17.6102 19.2443C17.6102 19.4294 17.5798 19.5919 17.5188 19.7319C17.4556 19.8696 17.3664 19.9859 17.2513 20.0807C17.1384 20.1732 17.003 20.2432 16.8449 20.2906C16.6869 20.338 16.512 20.3617 16.3201 20.3617V19.8132C16.6248 19.8132 16.8449 19.7658 16.9804 19.6709C17.1136 19.5761 17.1802 19.4339 17.1802 19.2443C17.1802 19.0659 17.1147 18.9271 16.9838 18.8278C16.8506 18.7284 16.6294 18.6788 16.3201 18.6788V18.1302Z" fill="#8C99B2"/>
<path d="M44.4498 13.3589C44.4498 13.6644 44.4003 13.9472 44.3013 14.2075C44.2051 14.4677 44.0694 14.6926 43.894 14.8822C43.7158 15.0745 43.4937 15.2258 43.2278 15.3362C42.9647 15.4465 42.6691 15.5017 42.341 15.5017C42.0383 15.5017 41.7399 15.4677 41.4457 15.3998C41.1543 15.3348 40.9011 15.2485 40.6862 15.141V14.2457H40.7456C40.8106 14.2938 40.904 14.3489 41.0256 14.4112C41.1472 14.4706 41.2816 14.5271 41.4287 14.5809C41.5956 14.6403 41.7484 14.687 41.887 14.7209C42.0256 14.752 42.1812 14.7676 42.3537 14.7676C42.5234 14.7676 42.6889 14.7379 42.8502 14.6785C43.0114 14.6162 43.15 14.5172 43.266 14.3815C43.3707 14.257 43.4499 14.1113 43.5036 13.9444C43.5602 13.7775 43.5885 13.5809 43.5885 13.3546C43.5885 13.1311 43.5574 12.9473 43.4951 12.803C43.4357 12.6587 43.348 12.5399 43.2321 12.4466C43.1104 12.3391 42.9605 12.2641 42.7823 12.2217C42.6069 12.1764 42.4103 12.1538 42.1925 12.1538C41.9633 12.1538 41.7328 12.1722 41.5008 12.209C41.2689 12.2429 41.0836 12.2754 40.945 12.3066V9.05205H44.4117V9.7946H41.7639V11.4749C41.8658 11.4636 41.9662 11.4551 42.0652 11.4494C42.1642 11.4438 42.2547 11.4409 42.3367 11.4409C42.6592 11.4409 42.9322 11.4678 43.1557 11.5216C43.3791 11.5753 43.5941 11.68 43.8006 11.8356C44.01 11.994 44.1698 12.192 44.2801 12.4296C44.3933 12.6672 44.4498 12.977 44.4498 13.3589Z" fill="#606580"/>
<path d="M69.7495 15.3701H66.669V14.7252H67.8146V10.4905H66.669V9.91341C67.1018 9.91341 67.42 9.85259 67.6237 9.73095C67.8302 9.60649 67.9461 9.37311 67.9716 9.03083H68.6293V14.7252H69.7495V15.3701ZM74.9813 13.1976H74.2303V15.3701H73.4156V13.1976H70.6236V12.3066L73.4495 9.05205H74.2303V12.5187H74.9813V13.1976ZM73.4156 12.5187V10.0492L71.2855 12.5187H73.4156Z" fill="#606580"/>
<path d="M100.372 12.209C100.372 13.3433 100.206 14.1764 99.8752 14.7082C99.5471 15.2372 99.0393 15.5017 98.3519 15.5017C97.6561 15.5017 97.1455 15.2315 96.8201 14.6912C96.4948 14.1509 96.3322 13.3263 96.3322 12.2174C96.3322 11.0774 96.4963 10.2444 96.8244 9.71822C97.1554 9.18924 97.6645 8.92475 98.3519 8.92475C99.0478 8.92475 99.5584 9.19773 99.8837 9.74368C100.209 10.2896 100.372 11.1114 100.372 12.209ZM99.2854 14.1354C99.3675 13.926 99.4255 13.6615 99.4594 13.3419C99.4933 13.0222 99.5103 12.6446 99.5103 12.209C99.5103 11.7762 99.4933 11.3999 99.4594 11.0803C99.4255 10.7606 99.366 10.4947 99.2812 10.2826C99.1963 10.0676 99.0789 9.90492 98.929 9.7946C98.7819 9.68145 98.5895 9.62487 98.3519 9.62487C98.1171 9.62487 97.9234 9.68145 97.7706 9.7946C97.6207 9.90492 97.5019 10.0704 97.4142 10.2911C97.3293 10.506 97.2713 10.7776 97.2402 11.1057C97.2091 11.4339 97.1935 11.8044 97.1935 12.2174C97.1935 12.6587 97.2063 13.0279 97.2317 13.3249C97.26 13.6219 97.3194 13.8878 97.4099 14.1226C97.492 14.3404 97.608 14.5088 97.7579 14.6276C97.9106 14.7435 98.1087 14.8015 98.3519 14.8015C98.5867 14.8015 98.7791 14.7464 98.929 14.636C99.0818 14.5229 99.2006 14.356 99.2854 14.1354Z" fill="#8C99B2"/>
<path d="M125.579 15.3701H122.499V14.7252H123.645V10.4905H122.499V9.91341C122.932 9.91341 123.25 9.85259 123.454 9.73095C123.66 9.60649 123.776 9.37311 123.802 9.03083H124.459V14.7252H125.579V15.3701ZM128.452 9.65458C128.299 9.65458 128.147 9.67296 127.994 9.70974C127.841 9.74651 127.691 9.7946 127.544 9.854C127.408 9.91058 127.289 9.96998 127.188 10.0322C127.089 10.0945 127 10.1524 126.92 10.2062H126.869V9.31088C127.053 9.21187 127.302 9.12277 127.616 9.04356C127.933 8.96153 128.234 8.92051 128.52 8.92051C128.806 8.92051 129.055 8.95021 129.267 9.00961C129.482 9.06619 129.676 9.1553 129.848 9.27693C130.035 9.41272 130.175 9.57678 130.268 9.76914C130.364 9.9615 130.412 10.1864 130.412 10.4438C130.412 10.7917 130.298 11.0973 130.069 11.3603C129.84 11.6234 129.565 11.7903 129.246 11.861V11.9204C129.379 11.9459 129.52 11.9897 129.67 12.052C129.823 12.1142 129.964 12.2061 130.094 12.3278C130.224 12.4494 130.33 12.6064 130.412 12.7988C130.494 12.9883 130.536 13.2202 130.536 13.4946C130.536 13.7803 130.486 14.0434 130.387 14.2839C130.291 14.5215 130.154 14.7322 129.975 14.9161C129.792 15.1085 129.569 15.2541 129.309 15.3531C129.049 15.4522 128.753 15.5017 128.422 15.5017C128.106 15.5017 127.792 15.4635 127.48 15.3871C127.169 15.3107 126.908 15.2188 126.695 15.1113V14.216H126.755C126.933 14.3461 127.172 14.4706 127.472 14.5894C127.772 14.7082 128.072 14.7676 128.371 14.7676C128.544 14.7676 128.717 14.7407 128.889 14.687C129.065 14.6304 129.21 14.5399 129.326 14.4154C129.439 14.2909 129.526 14.1537 129.585 14.0038C129.644 13.8539 129.674 13.6644 129.674 13.4352C129.674 13.2061 129.64 13.018 129.572 12.8709C129.507 12.7238 129.415 12.6078 129.297 12.523C129.178 12.4381 129.036 12.3801 128.872 12.349C128.711 12.315 128.536 12.2981 128.346 12.2981H127.985V11.5937H128.265C128.647 11.5937 128.957 11.5032 129.195 11.3221C129.435 11.1411 129.555 10.878 129.555 10.5329C129.555 10.3745 129.524 10.2387 129.462 10.1256C129.4 10.0096 129.321 9.91765 129.224 9.84976C129.117 9.77621 128.998 9.72529 128.868 9.69701C128.738 9.66872 128.599 9.65458 128.452 9.65458Z" fill="#606580"/>
<path d="M153.812 15.3701H149.913V14.4833C150.193 14.2174 150.457 13.9628 150.706 13.7195C150.955 13.4763 151.198 13.2231 151.436 12.96C151.917 12.431 152.245 12.0081 152.42 11.6913C152.596 11.3716 152.683 11.0421 152.683 10.7026C152.683 10.5273 152.655 10.3731 152.598 10.2401C152.545 10.1072 152.47 9.99686 152.374 9.90917C152.275 9.8243 152.16 9.76065 152.03 9.71822C151.9 9.67579 151.757 9.65458 151.601 9.65458C151.451 9.65458 151.299 9.67438 151.143 9.71398C150.99 9.75075 150.843 9.79743 150.702 9.854C150.583 9.90209 150.468 9.96008 150.358 10.028C150.248 10.0959 150.159 10.1539 150.091 10.2019H150.044V9.30239C150.219 9.2147 150.463 9.12984 150.774 9.0478C151.088 8.96294 151.385 8.92051 151.665 8.92051C152.253 8.92051 152.714 9.07751 153.048 9.3915C153.382 9.70266 153.549 10.1256 153.549 10.6602C153.549 10.9063 153.519 11.134 153.46 11.3434C153.403 11.5527 153.324 11.7465 153.222 11.9247C153.118 12.1085 152.992 12.291 152.845 12.472C152.697 12.6531 152.542 12.8313 152.378 13.0067C152.112 13.2952 151.815 13.5951 151.487 13.9062C151.161 14.2174 150.901 14.4635 150.706 14.6445H153.812V15.3701ZM156.362 9.65458C156.209 9.65458 156.057 9.67296 155.904 9.70974C155.751 9.74651 155.601 9.7946 155.454 9.854C155.318 9.91058 155.199 9.96998 155.098 10.0322C154.999 10.0945 154.91 10.1524 154.83 10.2062H154.779V9.31088C154.963 9.21187 155.212 9.12277 155.526 9.04356C155.843 8.96153 156.144 8.92051 156.43 8.92051C156.716 8.92051 156.965 8.95021 157.177 9.00961C157.392 9.06619 157.586 9.1553 157.758 9.27693C157.945 9.41272 158.085 9.57678 158.178 9.76914C158.274 9.9615 158.322 10.1864 158.322 10.4438C158.322 10.7917 158.208 11.0973 157.979 11.3603C157.75 11.6234 157.475 11.7903 157.156 11.861V11.9204C157.289 11.9459 157.43 11.9897 157.58 12.052C157.733 12.1142 157.874 12.2061 158.004 12.3278C158.134 12.4494 158.24 12.6064 158.322 12.7988C158.404 12.9883 158.446 13.2202 158.446 13.4946C158.446 13.7803 158.396 14.0434 158.297 14.2839C158.201 14.5215 158.064 14.7322 157.885 14.9161C157.702 15.1085 157.479 15.2541 157.219 15.3531C156.959 15.4522 156.663 15.5017 156.332 15.5017C156.016 15.5017 155.702 15.4635 155.39 15.3871C155.079 15.3107 154.818 15.2188 154.605 15.1113V14.216H154.665C154.843 14.3461 155.082 14.4706 155.382 14.5894C155.682 14.7082 155.982 14.7676 156.281 14.7676C156.454 14.7676 156.627 14.7407 156.799 14.687C156.975 14.6304 157.12 14.5399 157.236 14.4154C157.349 14.2909 157.436 14.1537 157.495 14.0038C157.554 13.8539 157.584 13.6644 157.584 13.4352C157.584 13.2061 157.55 13.018 157.482 12.8709C157.417 12.7238 157.325 12.6078 157.207 12.523C157.088 12.4381 156.946 12.3801 156.782 12.349C156.621 12.315 156.446 12.2981 156.256 12.2981H155.895V11.5937H156.175C156.557 11.5937 156.867 11.5032 157.105 11.3221C157.345 11.1411 157.465 10.878 157.465 10.5329C157.465 10.3745 157.434 10.2387 157.372 10.1256C157.31 10.0096 157.231 9.91765 157.134 9.84976C157.027 9.77621 156.908 9.72529 156.778 9.69701C156.648 9.66872 156.509 9.65458 156.362 9.65458Z" fill="#606580"/>
<path d="M181.732 15.3701H177.832V14.4833C178.113 14.2174 178.377 13.9628 178.626 13.7195C178.875 13.4763 179.118 13.2231 179.356 12.96C179.837 12.431 180.165 12.0081 180.34 11.6913C180.516 11.3716 180.603 11.0421 180.603 10.7026C180.603 10.5273 180.575 10.3731 180.518 10.2401C180.465 10.1072 180.39 9.99686 180.294 9.90917C180.195 9.8243 180.08 9.76065 179.95 9.71822C179.82 9.67579 179.677 9.65458 179.521 9.65458C179.371 9.65458 179.219 9.67438 179.063 9.71398C178.91 9.75075 178.763 9.79743 178.622 9.854C178.503 9.90209 178.388 9.96008 178.278 10.028C178.168 10.0959 178.079 10.1539 178.011 10.2019H177.964V9.30239C178.139 9.2147 178.383 9.12984 178.694 9.0478C179.008 8.96294 179.305 8.92051 179.585 8.92051C180.173 8.92051 180.634 9.07751 180.968 9.3915C181.302 9.70266 181.469 10.1256 181.469 10.6602C181.469 10.9063 181.439 11.134 181.38 11.3434C181.323 11.5527 181.244 11.7465 181.142 11.9247C181.038 12.1085 180.912 12.291 180.765 12.472C180.617 12.6531 180.462 12.8313 180.298 13.0067C180.032 13.2952 179.735 13.5951 179.407 13.9062C179.081 14.2174 178.821 14.4635 178.626 14.6445H181.732V15.3701ZM186.506 12.209C186.506 13.3433 186.34 14.1764 186.009 14.7082C185.681 15.2372 185.173 15.5017 184.486 15.5017C183.79 15.5017 183.279 15.2315 182.954 14.6912C182.629 14.1509 182.466 13.3263 182.466 12.2174C182.466 11.0774 182.63 10.2444 182.958 9.71822C183.289 9.18924 183.798 8.92475 184.486 8.92475C185.182 8.92475 185.692 9.19773 186.018 9.74368C186.343 10.2896 186.506 11.1114 186.506 12.209ZM185.419 14.1354C185.501 13.926 185.559 13.6615 185.593 13.3419C185.627 13.0222 185.644 12.6446 185.644 12.209C185.644 11.7762 185.627 11.3999 185.593 11.0803C185.559 10.7606 185.5 10.4947 185.415 10.2826C185.33 10.0676 185.213 9.90492 185.063 9.7946C184.916 9.68145 184.723 9.62487 184.486 9.62487C184.251 9.62487 184.057 9.68145 183.904 9.7946C183.755 9.90492 183.636 10.0704 183.548 10.2911C183.463 10.506 183.405 10.7776 183.374 11.1057C183.343 11.4339 183.327 11.8044 183.327 12.2174C183.327 12.6587 183.34 13.0279 183.366 13.3249C183.394 13.6219 183.453 13.8878 183.544 14.1226C183.626 14.3404 183.742 14.5088 183.892 14.6276C184.044 14.7435 184.243 14.8015 184.486 14.8015C184.721 14.8015 184.913 14.7464 185.063 14.636C185.216 14.5229 185.334 14.356 185.419 14.1354Z" fill="#606580"/>
<path d="M212.1 13.3207C212.1 13.646 212.046 13.9458 211.938 14.2202C211.831 14.4946 211.687 14.7237 211.506 14.9076C211.316 15.1028 211.104 15.2513 210.869 15.3531C210.634 15.4522 210.375 15.5017 210.093 15.5017C209.807 15.5017 209.547 15.4536 209.312 15.3574C209.08 15.2612 208.875 15.1184 208.697 14.9288C208.479 14.6997 208.308 14.3942 208.183 14.0123C208.061 13.6276 208.001 13.1552 208.001 12.5951C208.001 12.0463 208.057 11.5513 208.17 11.11C208.284 10.6659 208.458 10.2797 208.692 9.9516C208.921 9.63195 209.217 9.38301 209.579 9.2048C209.941 9.02376 210.36 8.93324 210.835 8.93324C210.977 8.93324 211.108 8.94031 211.23 8.95445C211.351 8.9686 211.459 8.99123 211.552 9.02234V9.83279H211.514C211.438 9.79036 211.327 9.75217 211.183 9.71822C211.039 9.68145 210.885 9.66306 210.721 9.66306C210.194 9.66306 209.769 9.84127 209.443 10.1977C209.121 10.5513 208.93 11.0774 208.871 11.7762C209.071 11.6347 209.278 11.5258 209.49 11.4494C209.702 11.3731 209.934 11.3349 210.186 11.3349C210.432 11.3349 210.647 11.3603 210.831 11.4112C211.018 11.4593 211.211 11.5583 211.412 11.7083C211.644 11.8837 211.817 12.1057 211.93 12.3744C212.043 12.6432 212.1 12.9586 212.1 13.3207ZM211.238 13.3546C211.238 13.0944 211.204 12.8766 211.136 12.7012C211.068 12.5258 210.958 12.3759 210.805 12.2514C210.695 12.1609 210.569 12.1015 210.428 12.0732C210.289 12.0449 210.146 12.0307 209.999 12.0307C209.801 12.0307 209.609 12.0604 209.422 12.1199C209.235 12.1793 209.052 12.2655 208.871 12.3787C208.865 12.4409 208.861 12.5017 208.858 12.5611C208.855 12.6177 208.854 12.6899 208.854 12.7775C208.854 13.216 208.896 13.5696 208.981 13.8383C209.069 14.1071 209.176 14.3107 209.303 14.4494C209.425 14.5823 209.549 14.6757 209.677 14.7294C209.807 14.7831 209.947 14.81 210.097 14.81C210.436 14.81 210.711 14.6884 210.92 14.4451C211.132 14.2018 211.238 13.8383 211.238 13.3546Z" fill="#606580"/>
<path d="M237.229 15.3701H234.149V14.7252H235.295V10.4905H234.149V9.91341C234.582 9.91341 234.9 9.85259 235.104 9.73095C235.31 9.60649 235.426 9.37311 235.452 9.03083H236.109V14.7252H237.229V15.3701ZM242.364 9.99827L239.631 15.3701H238.727L241.621 9.7946H238.354V9.05205H242.364V9.99827Z" fill="#606580"/>
<path d="M267.862 12.209C267.862 13.3433 267.696 14.1764 267.365 14.7082C267.037 15.2372 266.529 15.5017 265.842 15.5017C265.146 15.5017 264.635 15.2315 264.31 14.6912C263.985 14.1509 263.822 13.3263 263.822 12.2174C263.822 11.0774 263.986 10.2444 264.314 9.71822C264.645 9.18924 265.155 8.92475 265.842 8.92475C266.538 8.92475 267.048 9.19773 267.374 9.74368C267.699 10.2896 267.862 11.1114 267.862 12.209ZM266.775 14.1354C266.857 13.926 266.915 13.6615 266.949 13.3419C266.983 13.0222 267 12.6446 267 12.209C267 11.7762 266.983 11.3999 266.949 11.0803C266.915 10.7606 266.856 10.4947 266.771 10.2826C266.686 10.0676 266.569 9.90492 266.419 9.7946C266.272 9.68145 266.08 9.62487 265.842 9.62487C265.607 9.62487 265.413 9.68145 265.261 9.7946C265.111 9.90492 264.992 10.0704 264.904 10.2911C264.819 10.506 264.761 10.7776 264.73 11.1057C264.699 11.4339 264.684 11.8044 264.684 12.2174C264.684 12.6587 264.696 13.0279 264.722 13.3249C264.75 13.6219 264.809 13.8878 264.9 14.1226C264.982 14.3404 265.098 14.5088 265.248 14.6276C265.401 14.7435 265.599 14.8015 265.842 14.8015C266.077 14.8015 266.269 14.7464 266.419 14.636C266.572 14.5229 266.691 14.356 266.775 14.1354Z" fill="#8C99B2"/>
<path d="M295.67 13.3589C295.67 13.6644 295.62 13.9472 295.521 14.2075C295.425 14.4677 295.289 14.6926 295.114 14.8822C294.936 15.0745 294.714 15.2258 294.448 15.3362C294.185 15.4465 293.889 15.5017 293.561 15.5017C293.258 15.5017 292.96 15.4677 292.666 15.3998C292.374 15.3348 292.121 15.2485 291.906 15.141V14.2457H291.966C292.031 14.2938 292.124 14.3489 292.246 14.4112C292.367 14.4706 292.502 14.5271 292.649 14.5809C292.816 14.6403 292.968 14.687 293.107 14.7209C293.246 14.752 293.401 14.7676 293.574 14.7676C293.743 14.7676 293.909 14.7379 294.07 14.6785C294.231 14.6162 294.37 14.5172 294.486 14.3815C294.591 14.257 294.67 14.1113 294.724 13.9444C294.78 13.7775 294.808 13.5809 294.808 13.3546C294.808 13.1311 294.777 12.9473 294.715 12.803C294.656 12.6587 294.568 12.5399 294.452 12.4466C294.33 12.3391 294.181 12.2641 294.002 12.2217C293.827 12.1764 293.63 12.1538 293.412 12.1538C293.183 12.1538 292.953 12.1722 292.721 12.209C292.489 12.2429 292.304 12.2754 292.165 12.3066V9.05205H295.632V9.7946H292.984V11.4749C293.086 11.4636 293.186 11.4551 293.285 11.4494C293.384 11.4438 293.475 11.4409 293.557 11.4409C293.879 11.4409 294.152 11.4678 294.376 11.5216C294.599 11.5753 294.814 11.68 295.021 11.8356C295.23 11.994 295.39 12.192 295.5 12.4296C295.613 12.6672 295.67 12.977 295.67 13.3589Z" fill="#606580"/>
<path d="M181.712 47.3398H177.813V46.453C178.093 46.1871 178.357 45.9325 178.606 45.6893C178.855 45.446 179.098 45.1928 179.336 44.9297C179.817 44.4007 180.145 43.9778 180.32 43.661C180.496 43.3414 180.583 43.0118 180.583 42.6724C180.583 42.497 180.555 42.3428 180.498 42.2099C180.445 42.0769 180.37 41.9666 180.274 41.8789C180.175 41.794 180.06 41.7304 179.93 41.6879C179.8 41.6455 179.657 41.6243 179.501 41.6243C179.351 41.6243 179.199 41.6441 179.043 41.6837C178.89 41.7205 178.743 41.7672 178.602 41.8237C178.483 41.8718 178.368 41.9298 178.258 41.9977C178.148 42.0656 178.059 42.1236 177.991 42.1717H177.944V41.2721C178.119 41.1844 178.363 41.0996 178.674 41.0175C178.988 40.9327 179.285 40.8902 179.565 40.8902C180.153 40.8902 180.614 41.0472 180.948 41.3612C181.282 41.6724 181.449 42.0953 181.449 42.6299C181.449 42.876 181.419 43.1038 181.36 43.3131C181.303 43.5224 181.224 43.7162 181.122 43.8944C181.018 44.0783 180.892 44.2607 180.745 44.4418C180.597 44.6228 180.442 44.801 180.278 44.9764C180.012 45.2649 179.715 45.5648 179.387 45.876C179.061 46.1871 178.801 46.4332 178.606 46.6143H181.712V47.3398ZM186.486 44.1787C186.486 45.313 186.32 46.1461 185.989 46.6779C185.661 47.2069 185.153 47.4714 184.466 47.4714C183.77 47.4714 183.259 47.2012 182.934 46.6609C182.609 46.1206 182.446 45.2961 182.446 44.1872C182.446 43.0472 182.61 42.2141 182.938 41.6879C183.269 41.159 183.778 40.8945 184.466 40.8945C185.162 40.8945 185.672 41.1675 185.998 41.7134C186.323 42.2594 186.486 43.0811 186.486 44.1787ZM185.399 46.1051C185.481 45.8958 185.539 45.6313 185.573 45.3116C185.607 44.992 185.624 44.6143 185.624 44.1787C185.624 43.7459 185.607 43.3697 185.573 43.05C185.539 42.7304 185.48 42.4644 185.395 42.2523C185.31 42.0373 185.193 41.8746 185.043 41.7643C184.896 41.6512 184.703 41.5946 184.466 41.5946C184.231 41.5946 184.037 41.6512 183.884 41.7643C183.735 41.8746 183.616 42.0401 183.528 42.2608C183.443 42.4758 183.385 42.7473 183.354 43.0755C183.323 43.4036 183.307 43.7742 183.307 44.1872C183.307 44.6285 183.32 44.9976 183.346 45.2946C183.374 45.5917 183.433 45.8576 183.524 46.0924C183.606 46.3102 183.722 46.4785 183.872 46.5973C184.025 46.7133 184.223 46.7713 184.466 46.7713C184.701 46.7713 184.893 46.7161 185.043 46.6058C185.196 46.4926 185.314 46.3257 185.399 46.1051Z" fill="#A2E2FF"/>
<path d="M153.672 32.0195H149.773V31.1327C150.053 30.8668 150.317 30.6122 150.566 30.3689C150.815 30.1257 151.058 29.8725 151.296 29.6094C151.777 29.0804 152.105 28.6575 152.28 28.3407C152.456 28.0211 152.543 27.6915 152.543 27.3521C152.543 27.1767 152.515 27.0225 152.458 26.8895C152.405 26.7566 152.33 26.6463 152.234 26.5586C152.135 26.4737 152.02 26.4101 151.89 26.3676C151.76 26.3252 151.617 26.304 151.461 26.304C151.311 26.304 151.159 26.3238 151.003 26.3634C150.85 26.4002 150.703 26.4468 150.562 26.5034C150.443 26.5515 150.328 26.6095 150.218 26.6774C150.108 26.7453 150.019 26.8033 149.951 26.8514H149.904V25.9518C150.079 25.8641 150.323 25.7793 150.634 25.6972C150.948 25.6124 151.245 25.5699 151.525 25.5699C152.113 25.5699 152.574 25.7269 152.908 26.0409C153.242 26.3521 153.409 26.775 153.409 27.3096C153.409 27.5557 153.379 27.7834 153.32 27.9928C153.263 28.2021 153.184 28.3959 153.082 28.5741C152.978 28.758 152.852 28.9404 152.705 29.1215C152.557 29.3025 152.402 29.4807 152.238 29.6561C151.972 29.9446 151.675 30.2445 151.347 30.5556C151.021 30.8668 150.761 31.1129 150.566 31.294H153.672V32.0195ZM158.446 28.8584C158.446 29.9927 158.28 30.8258 157.949 31.3576C157.621 31.8866 157.113 32.1511 156.426 32.1511C155.73 32.1511 155.219 31.8809 154.894 31.3406C154.569 30.8003 154.406 29.9757 154.406 28.8669C154.406 27.7269 154.57 26.8938 154.898 26.3676C155.229 25.8387 155.738 25.5742 156.426 25.5742C157.122 25.5742 157.632 25.8471 157.958 26.3931C158.283 26.939 158.446 27.7608 158.446 28.8584ZM157.359 30.7848C157.441 30.5754 157.499 30.311 157.533 29.9913C157.567 29.6716 157.584 29.294 157.584 28.8584C157.584 28.4256 157.567 28.0493 157.533 27.7297C157.499 27.41 157.44 27.1441 157.355 26.932C157.27 26.717 157.153 26.5543 157.003 26.444C156.856 26.3309 156.663 26.2743 156.426 26.2743C156.191 26.2743 155.997 26.3309 155.844 26.444C155.695 26.5543 155.576 26.7198 155.488 26.9405C155.403 27.1555 155.345 27.427 155.314 27.7552C155.283 28.0833 155.267 28.4539 155.267 28.8669C155.267 29.3081 155.28 29.6773 155.306 29.9743C155.334 30.2713 155.393 30.5373 155.484 30.772C155.566 30.9899 155.682 31.1582 155.832 31.277C155.984 31.393 156.183 31.4509 156.426 31.4509C156.661 31.4509 156.853 31.3958 157.003 31.2855C157.156 31.1723 157.274 31.0054 157.359 30.7848Z" fill="#8C99B2"/>
<path d="M69.7295 44.3193H66.649V43.6744H67.7946V39.4397H66.649V38.8626C67.0818 38.8626 67.4 38.8018 67.6037 38.6802C67.8102 38.5557 67.9261 38.3223 67.9516 37.98H68.6093V43.6744H69.7295V44.3193ZM74.7958 44.3193H70.8964V43.4325C71.1764 43.1666 71.4409 42.912 71.6898 42.6687C71.9388 42.4255 72.182 42.1723 72.4197 41.9092C72.9006 41.3802 73.2287 40.9573 73.4041 40.6405C73.5795 40.3209 73.6672 39.9913 73.6672 39.6519C73.6672 39.4765 73.6389 39.3223 73.5823 39.1894C73.5285 39.0564 73.4536 38.9461 73.3574 38.8584C73.2584 38.7735 73.1438 38.7099 73.0137 38.6674C72.8836 38.625 72.7407 38.6038 72.5851 38.6038C72.4352 38.6038 72.2825 38.6236 72.1269 38.6632C71.9741 38.7 71.827 38.7466 71.6856 38.8032C71.5668 38.8513 71.4522 38.9093 71.3419 38.9772C71.2316 39.0451 71.1425 39.1031 71.0746 39.1512H71.0279V38.2516C71.2033 38.1639 71.4466 38.0791 71.7577 37.997C72.0717 37.9122 72.3687 37.8697 72.6488 37.8697C73.2372 37.8697 73.6983 38.0267 74.0321 38.3407C74.3659 38.6519 74.5328 39.0748 74.5328 39.6094C74.5328 39.8555 74.5031 40.0832 74.4436 40.2926C74.3871 40.5019 74.3079 40.6957 74.206 40.8739C74.1014 41.0578 73.9755 41.2402 73.8284 41.4213C73.6813 41.6023 73.5257 41.7805 73.3616 41.9559C73.0957 42.2444 72.7987 42.5443 72.4706 42.8554C72.1453 43.1666 71.885 43.4127 71.6898 43.5938H74.7958V44.3193Z" fill="#8C99B2"/>
<path d="M125.559 48.8193H122.479V48.1744H123.625V43.9397H122.479V43.3626C122.912 43.3626 123.23 43.3018 123.434 43.1802C123.64 43.0557 123.756 42.8223 123.782 42.48H124.439V48.1744H125.559V48.8193ZM130.656 45.6582C130.656 46.7925 130.49 47.6256 130.159 48.1574C129.831 48.6864 129.323 48.9509 128.636 48.9509C127.94 48.9509 127.429 48.6807 127.104 48.1404C126.779 47.6001 126.616 46.7755 126.616 45.6667C126.616 44.5267 126.78 43.6936 127.108 43.1674C127.439 42.6385 127.948 42.374 128.636 42.374C129.332 42.374 129.842 42.6469 130.168 43.1929C130.493 43.7389 130.656 44.5606 130.656 45.6582ZM129.569 47.5846C129.651 47.3752 129.709 47.1108 129.743 46.7911C129.777 46.4715 129.794 46.0938 129.794 45.6582C129.794 45.2254 129.777 44.8491 129.743 44.5295C129.709 44.2098 129.65 43.9439 129.565 43.7318C129.48 43.5168 129.363 43.3541 129.213 43.2438C129.066 43.1307 128.873 43.0741 128.636 43.0741C128.401 43.0741 128.207 43.1307 128.054 43.2438C127.905 43.3541 127.786 43.5196 127.698 43.7403C127.613 43.9553 127.555 44.2268 127.524 44.555C127.493 44.8831 127.477 45.2537 127.477 45.6667C127.477 46.108 127.49 46.4771 127.516 46.7741C127.544 47.0712 127.603 47.3371 127.694 47.5718C127.776 47.7897 127.892 47.958 128.042 48.0768C128.194 48.1928 128.393 48.2508 128.636 48.2508C128.871 48.2508 129.063 48.1956 129.213 48.0853C129.366 47.9721 129.484 47.8052 129.569 47.5846Z" fill="#8C99B2"/>
<path d="M28.56 20.46H307.7" stroke="#EBF1F9" stroke-width="0.84" stroke-miterlimit="22.93"/>
<path d="M28.56 37.4502H307.7" stroke="#EBF1F9" stroke-width="0.84" stroke-miterlimit="22.93"/>
<path d="M28.56 64.0596H307.7" stroke="#EBF1F9" stroke-width="0.84" stroke-miterlimit="22.93"/>
<path d="M279.79 90.9097V21.3896" stroke="#EBF1F9" stroke-width="0.89" stroke-miterlimit="22.93"/>
<path d="M251.87 90.9097V21.3896" stroke="#EBF1F9" stroke-width="0.89" stroke-miterlimit="22.93"/>
<path d="M223.96 90.9097V21.3896" stroke="#EBF1F9" stroke-width="0.89" stroke-miterlimit="22.93"/>
<path d="M196.04 90.9097V21.3896" stroke="#EBF1F9" stroke-width="0.89" stroke-miterlimit="22.93"/>
<path d="M168.13 90.9097V21.3896" stroke="#EBF1F9" stroke-width="0.89" stroke-miterlimit="22.93"/>
<path d="M140.21 90.9097V21.3896" stroke="#EBF1F9" stroke-width="0.89" stroke-miterlimit="22.93"/>
<path d="M112.3 90.9097V21.3896" stroke="#EBF1F9" stroke-width="0.89" stroke-miterlimit="22.93"/>
<path d="M84.39 90.9097V21.3896" stroke="#EBF1F9" stroke-width="0.89" stroke-miterlimit="22.93"/>
<path d="M56.47 90.9097V21.3896" stroke="#EBF1F9" stroke-width="0.89" stroke-miterlimit="22.93"/>
<path d="M307.7 90.9097V21.3896" stroke="#EBF1F9" stroke-width="0.89" stroke-miterlimit="22.93"/>
<path d="M28.56 90.9297V10.4697" stroke="#8C99B2" stroke-width="0.89" stroke-miterlimit="22.93"/>
<path d="M30.79 11.1198L28.56 7.25977L26.33 11.1198H30.79Z" fill="#8C99B2"/>
<path d="M74.05 51.0098H66.81V55.2098H74.05V51.0098Z" fill="#F7931E"/>
<path d="M129.88 63.25H122.64V66.14H129.88V63.25Z" fill="#F7931E"/>
<path d="M241.54 41.2998H234.3V51.8598H241.54V41.2998Z" fill="#F7931E"/>
<path d="M74.05 55.21H66.81V90.37H74.05V55.21Z" fill="#8C99B2"/>
<path d="M129.88 66.1396H122.64V90.3697H129.88V66.1396Z" fill="#8C99B2"/>
<path d="M185.71 52.1699H178.47V90.3699H185.71V52.1699Z" fill="#A2E2FF"/>
<path d="M241.54 51.8594H234.3V90.3694H241.54V51.8594Z" fill="#8C99B2"/>
<path d="M297.37 75.7998H290.13V90.3698H297.37V75.7998Z" fill="#A2E2FF"/>
<path d="M28.58 90.6699H303.74" stroke="#8C99B2" stroke-width="0.89" stroke-miterlimit="22.93"/>
<path d="M303.09 92.8995L306.95 90.6694L303.09 88.4395V92.8995Z" fill="#8C99B2"/>
<path d="M206.2 106.14H215.7V106.76H205.56V96.6299H206.2V98.5299H206.84V99.1599H206.2V100.43H206.84V101.06H206.2V102.34H206.84V103H206.2V104.28H206.84V104.9H206.2V106.14ZM207.46 103.29C207.46 103.033 207.558 102.786 207.735 102.6C207.912 102.414 208.154 102.303 208.41 102.29C208.506 102.275 208.604 102.275 208.7 102.29L209.52 101.19C209.418 101.032 209.362 100.848 209.36 100.66C209.423 100.456 209.55 100.278 209.722 100.151C209.894 100.025 210.102 99.9565 210.315 99.9565C210.528 99.9565 210.736 100.025 210.908 100.151C211.08 100.278 211.207 100.456 211.27 100.66C211.269 100.755 211.252 100.85 211.22 100.94L212.32 101.77C212.478 101.668 212.662 101.612 212.85 101.61H213L214.1 99.3999C213.929 99.2264 213.832 98.9933 213.83 98.7499C213.84 98.5644 213.904 98.3859 214.014 98.2364C214.124 98.0869 214.276 97.9729 214.45 97.9086C214.624 97.8443 214.813 97.8325 214.994 97.8746C215.175 97.9167 215.34 98.0109 215.467 98.1456C215.595 98.2802 215.681 98.4494 215.714 98.6322C215.747 98.815 215.725 99.0034 215.652 99.174C215.579 99.3447 215.457 99.4903 215.302 99.5926C215.147 99.6949 214.966 99.7496 214.78 99.7499H214.66L213.56 101.95C213.647 102.036 213.715 102.139 213.762 102.253C213.808 102.366 213.831 102.487 213.83 102.61C213.83 102.862 213.73 103.103 213.552 103.282C213.374 103.46 213.132 103.56 212.88 103.56C212.628 103.56 212.386 103.46 212.208 103.282C212.03 103.103 211.93 102.862 211.93 102.61C211.916 102.514 211.916 102.416 211.93 102.32L210.83 101.5C210.669 101.604 210.482 101.659 210.29 101.66C210.201 101.675 210.109 101.675 210.02 101.66L209.19 102.76C209.29 102.922 209.342 103.109 209.34 103.3C209.34 103.552 209.24 103.793 209.062 103.972C208.884 104.15 208.642 104.25 208.39 104.25C208.138 104.25 207.896 104.15 207.718 103.972C207.54 103.793 207.44 103.552 207.44 103.3L207.46 103.29ZM214.46 98.8499C214.46 98.8914 214.468 98.9326 214.485 98.9709C214.501 99.0091 214.524 99.0438 214.554 99.0727C214.584 99.1016 214.62 99.1242 214.658 99.1392C214.697 99.1542 214.738 99.1612 214.78 99.1599C214.822 99.1612 214.863 99.1542 214.902 99.1392C214.94 99.1242 214.976 99.1016 215.006 99.0727C215.036 99.0438 215.059 99.0091 215.075 98.9709C215.092 98.9326 215.1 98.8914 215.1 98.8499C215.097 98.7658 215.063 98.6859 215.003 98.6264C214.944 98.5669 214.864 98.5324 214.78 98.5299C214.695 98.5299 214.614 98.5636 214.554 98.6236C214.494 98.6836 214.46 98.765 214.46 98.8499ZM212.56 102.65C212.56 102.691 212.568 102.733 212.585 102.771C212.601 102.809 212.624 102.844 212.654 102.873C212.684 102.902 212.72 102.924 212.758 102.939C212.797 102.954 212.838 102.961 212.88 102.96C212.922 102.961 212.963 102.954 213.002 102.939C213.04 102.924 213.076 102.902 213.106 102.873C213.136 102.844 213.159 102.809 213.175 102.771C213.192 102.733 213.2 102.691 213.2 102.65C213.197 102.567 213.163 102.488 213.103 102.43C213.043 102.372 212.963 102.34 212.88 102.34C212.838 102.339 212.797 102.346 212.758 102.361C212.72 102.376 212.684 102.398 212.654 102.427C212.624 102.456 212.601 102.491 212.585 102.529C212.568 102.567 212.56 102.608 212.56 102.65ZM210.03 100.75C210.03 100.832 210.063 100.911 210.121 100.969C210.179 101.027 210.258 101.06 210.34 101.06C210.382 101.061 210.424 101.054 210.463 101.039C210.503 101.025 210.539 101.002 210.569 100.973C210.6 100.944 210.625 100.91 210.642 100.872C210.659 100.833 210.669 100.792 210.67 100.75C210.667 100.664 210.631 100.583 210.57 100.523C210.508 100.463 210.426 100.43 210.34 100.43C210.257 100.432 210.178 100.467 210.12 100.527C210.062 100.587 210.03 100.667 210.03 100.75ZM208.13 103.29C208.13 103.372 208.163 103.451 208.221 103.509C208.279 103.567 208.358 103.6 208.44 103.6C208.482 103.601 208.524 103.594 208.563 103.579C208.603 103.565 208.639 103.542 208.669 103.513C208.7 103.484 208.725 103.45 208.742 103.412C208.759 103.373 208.769 103.332 208.77 103.29C208.77 103.202 208.735 103.118 208.673 103.057C208.611 102.995 208.528 102.96 208.44 102.96C208.398 102.961 208.357 102.971 208.318 102.988C208.28 103.005 208.245 103.03 208.217 103.061C208.188 103.091 208.165 103.127 208.15 103.167C208.136 103.206 208.129 103.248 208.13 103.29Z" fill="#606580"/>
<path d="M96.68 102.379C96.5622 102.28 96.4248 102.206 96.2766 102.163C96.1284 102.12 95.9729 102.108 95.82 102.129H95.74C95.3592 102.143 94.9809 102.063 94.639 101.895C94.2971 101.726 94.0023 101.476 93.7812 101.165C93.5601 100.855 93.4196 100.495 93.3722 100.117C93.3249 99.7385 93.3722 99.3546 93.51 98.9993C93.5297 98.9539 93.5599 98.9139 93.5982 98.8826C93.6364 98.8513 93.6816 98.8296 93.73 98.8193C93.7766 98.8104 93.8246 98.813 93.87 98.8269C93.9153 98.8409 93.9565 98.8657 93.99 98.8993L95.05 99.8993C95.1425 99.9851 95.2639 100.033 95.39 100.033C95.5161 100.033 95.6375 99.9851 95.73 99.8993C95.776 99.8554 95.8126 99.8027 95.8376 99.7442C95.8626 99.6858 95.8755 99.6229 95.8755 99.5593C95.8755 99.4957 95.8626 99.4328 95.8376 99.3744C95.8126 99.3159 95.776 99.2632 95.73 99.2193L94.67 98.1593C94.6356 98.1243 94.6103 98.0814 94.5964 98.0343C94.5824 97.9872 94.5802 97.9374 94.59 97.8893C94.6017 97.8428 94.624 97.7996 94.6553 97.7631C94.6865 97.7267 94.7258 97.698 94.77 97.6793C95.1251 97.5331 95.5112 97.4785 95.8929 97.5206C96.2746 97.5627 96.6396 97.7002 96.9543 97.9202C97.269 98.1403 97.5233 98.436 97.6938 98.7801C97.8643 99.1242 97.9455 99.5056 97.93 99.8893V99.9893C97.909 100.142 97.9204 100.298 97.9635 100.446C98.0066 100.594 98.0803 100.732 98.18 100.849L97.75 101.249C97.593 101.074 97.4752 100.868 97.4045 100.644C97.3338 100.419 97.3118 100.183 97.34 99.9493H97.64H97.34C97.3498 99.7047 97.307 99.4608 97.2145 99.2342C97.1219 99.0076 96.9818 98.8035 96.8036 98.6357C96.6253 98.4679 96.4131 98.3403 96.1814 98.2615C95.9496 98.1828 95.7036 98.1548 95.46 98.1793L96.14 98.8693C96.2413 98.9672 96.3219 99.0845 96.3769 99.2142C96.4319 99.3439 96.4603 99.4834 96.4603 99.6243C96.4603 99.7652 96.4319 99.9047 96.3769 100.034C96.3219 100.164 96.2413 100.281 96.14 100.379C95.9365 100.577 95.6639 100.688 95.38 100.688C95.0961 100.688 94.8235 100.577 94.62 100.379L93.93 99.6893C93.9027 99.9437 93.9335 100.201 94.0201 100.442C94.1067 100.683 94.2469 100.901 94.43 101.079C94.5971 101.244 94.7957 101.373 95.0139 101.459C95.2322 101.545 95.4655 101.586 95.7 101.579H95.77C96.0035 101.548 96.2409 101.569 96.4655 101.64C96.6902 101.711 96.8965 101.83 97.07 101.989L96.68 102.379Z" fill="#8C99B2"/>
<path d="M100.64 105.86H100.51C100.211 105.81 99.9363 105.662 99.73 105.44L98.85 104.56L99.27 104.15L100.15 105.02C100.264 105.146 100.414 105.233 100.58 105.27C100.647 105.278 100.715 105.269 100.778 105.245C100.84 105.22 100.896 105.181 100.94 105.13C101.24 104.84 101 104.51 100.83 104.34L99.92 103.44L100.34 103.02L101.24 103.92C101.362 104.014 101.462 104.133 101.535 104.269C101.608 104.405 101.651 104.554 101.663 104.708C101.674 104.862 101.653 105.016 101.601 105.161C101.549 105.306 101.467 105.438 101.36 105.55C101.267 105.647 101.155 105.725 101.032 105.778C100.908 105.831 100.775 105.859 100.64 105.86Z" fill="#8C99B2"/>
<path d="M100.51 101.609L100.1 101.189L101.69 99.5895L102.15 99.6495L102.73 98.6995L102.5 98.4695L101.56 99.0495L101.61 99.5095L100.38 100.729L99.97 100.309L100.99 99.2895L100.93 98.7395L102.59 97.7295L103.48 98.6095L102.46 100.279L101.91 100.209L100.51 101.609Z" fill="#8C99B2"/>
<path d="M96.66 104.84C96.6207 104.84 96.5819 104.832 96.5458 104.816C96.5097 104.801 96.4771 104.778 96.45 104.75C96.4218 104.724 96.3994 104.692 96.384 104.657C96.3686 104.621 96.3607 104.583 96.3607 104.545C96.3607 104.506 96.3686 104.468 96.384 104.433C96.3994 104.398 96.4218 104.366 96.45 104.34L99.18 101.61C99.2062 101.582 99.2379 101.559 99.2732 101.544C99.3085 101.528 99.3465 101.521 99.385 101.521C99.4235 101.521 99.4615 101.528 99.4968 101.544C99.5321 101.559 99.5638 101.582 99.59 101.61C99.6184 101.637 99.6411 101.669 99.6566 101.706C99.672 101.742 99.68 101.781 99.68 101.82C99.68 101.859 99.672 101.898 99.6566 101.934C99.6411 101.97 99.6184 102.003 99.59 102.03L96.87 104.75C96.8146 104.806 96.7391 104.839 96.66 104.84Z" fill="#8C99B2"/>
<path d="M96.67 105.86C96.4231 105.86 96.186 105.763 96.01 105.59L95.62 105.19C95.5317 105.104 95.4615 105.001 95.4136 104.888C95.3656 104.774 95.3409 104.653 95.3409 104.53C95.3409 104.406 95.3656 104.285 95.4136 104.171C95.4615 104.058 95.5317 103.955 95.62 103.87L98.71 100.78C98.8931 100.616 99.1298 100.526 99.375 100.526C99.6202 100.526 99.8569 100.616 100.04 100.78L100.43 101.18C100.603 101.355 100.701 101.593 100.701 101.84C100.701 102.087 100.603 102.324 100.43 102.5L97.33 105.6C97.1524 105.769 96.9155 105.862 96.67 105.86ZM99.37 101.09C99.2801 101.091 99.1942 101.127 99.13 101.19L96.03 104.29C95.9681 104.356 95.9338 104.444 95.9338 104.535C95.9338 104.625 95.9681 104.713 96.03 104.78L96.43 105.17C96.4937 105.233 96.58 105.269 96.67 105.269C96.76 105.269 96.8463 105.233 96.91 105.17L100.01 102.07C100.074 102.006 100.109 101.919 100.109 101.83C100.109 101.74 100.074 101.653 100.01 101.59L99.62 101.19C99.5522 101.126 99.4629 101.09 99.37 101.09Z" fill="#8C99B2"/>
<path d="M237.209 38.54H234.129V37.8951H235.275V33.6604H234.129V33.0833C234.562 33.0833 234.88 33.0225 235.084 32.9009C235.29 32.7764 235.406 32.543 235.432 32.2008H236.089V37.8951H237.209V38.54ZM242.204 36.5288C242.204 36.8343 242.154 37.1172 242.055 37.3774C241.959 37.6377 241.823 37.8625 241.648 38.0521C241.47 38.2444 241.248 38.3958 240.982 38.5061C240.719 38.6164 240.423 38.6716 240.095 38.6716C239.792 38.6716 239.494 38.6376 239.2 38.5697C238.908 38.5047 238.655 38.4184 238.44 38.3109V37.4156H238.499C238.564 37.4637 238.658 37.5189 238.779 37.5811C238.901 37.6405 239.035 37.6971 239.183 37.7508C239.349 37.8102 239.502 37.8569 239.641 37.8908C239.779 37.922 239.935 37.9375 240.108 37.9375C240.277 37.9375 240.443 37.9078 240.604 37.8484C240.765 37.7862 240.904 37.6872 241.02 37.5514C241.125 37.4269 241.204 37.2812 241.257 37.1143C241.314 36.9474 241.342 36.7508 241.342 36.5245C241.342 36.3011 241.311 36.1172 241.249 35.9729C241.19 35.8287 241.102 35.7098 240.986 35.6165C240.864 35.509 240.714 35.434 240.536 35.3916C240.361 35.3464 240.164 35.3237 239.946 35.3237C239.717 35.3237 239.487 35.3421 239.255 35.3789C239.023 35.4128 238.837 35.4454 238.699 35.4765V32.222H242.166V32.9645H239.518V34.6448C239.62 34.6335 239.72 34.625 239.819 34.6194C239.918 34.6137 240.009 34.6109 240.091 34.6109C240.413 34.6109 240.686 34.6377 240.91 34.6915C241.133 34.7452 241.348 34.8499 241.554 35.0055C241.764 35.1639 241.924 35.3619 242.034 35.5995C242.147 35.8371 242.204 36.1469 242.204 36.5288Z" fill="#8C99B2"/>
<path d="M295.66 63.1889C295.66 63.4944 295.61 63.7773 295.511 64.0376C295.415 64.2978 295.279 64.5227 295.104 64.7122C294.926 64.9046 294.704 65.0559 294.438 65.1663C294.175 65.2766 293.879 65.3317 293.551 65.3317C293.248 65.3317 292.95 65.2978 292.656 65.2299C292.364 65.1648 292.111 65.0786 291.896 64.9711V64.0758H291.956C292.021 64.1238 292.114 64.179 292.236 64.2412C292.357 64.3006 292.492 64.3572 292.639 64.411C292.806 64.4704 292.958 64.517 293.097 64.551C293.236 64.5821 293.391 64.5977 293.564 64.5977C293.733 64.5977 293.899 64.568 294.06 64.5086C294.221 64.4463 294.36 64.3473 294.476 64.2115C294.581 64.0871 294.66 63.9414 294.714 63.7745C294.77 63.6076 294.798 63.411 294.798 63.1847C294.798 62.9612 294.767 62.7773 294.705 62.6331C294.646 62.4888 294.558 62.37 294.442 62.2767C294.32 62.1692 294.17 62.0942 293.992 62.0518C293.817 62.0065 293.62 61.9839 293.402 61.9839C293.173 61.9839 292.943 62.0023 292.711 62.039C292.479 62.073 292.294 62.1055 292.155 62.1366V58.8821H295.622V59.6247H292.974V61.305C293.076 61.2937 293.176 61.2852 293.275 61.2795C293.374 61.2739 293.465 61.271 293.547 61.271C293.869 61.271 294.142 61.2979 294.366 61.3516C294.589 61.4054 294.804 61.5101 295.011 61.6656C295.22 61.8241 295.38 62.0221 295.49 62.2597C295.603 62.4973 295.66 62.8071 295.66 63.1889Z" fill="#A2E2FF"/>
<path d="M268.212 83.1484C268.212 84.2828 268.046 85.1158 267.715 85.6476C267.387 86.1766 266.879 86.4411 266.192 86.4411C265.496 86.4411 264.985 86.171 264.66 85.6307C264.335 85.0904 264.172 84.2658 264.172 83.1569C264.172 82.0169 264.336 81.1838 264.664 80.6577C264.995 80.1287 265.505 79.8642 266.192 79.8642C266.888 79.8642 267.398 80.1372 267.724 80.6831C268.049 81.2291 268.212 82.0508 268.212 83.1484ZM267.125 85.0748C267.207 84.8655 267.265 84.601 267.299 84.2813C267.333 83.9617 267.35 83.584 267.35 83.1484C267.35 82.7156 267.333 82.3394 267.299 82.0197C267.265 81.7001 267.206 81.4342 267.121 81.222C267.036 81.007 266.919 80.8444 266.769 80.7341C266.622 80.6209 266.43 80.5643 266.192 80.5643C265.957 80.5643 265.763 80.6209 265.611 80.7341C265.461 80.8444 265.342 81.0099 265.254 81.2305C265.169 81.4455 265.111 81.7171 265.08 82.0452C265.049 82.3733 265.034 82.7439 265.034 83.1569C265.034 83.5982 265.046 83.9673 265.072 84.2644C265.1 84.5614 265.159 84.8273 265.25 85.0621C265.332 85.2799 265.448 85.4482 265.598 85.567C265.751 85.683 265.949 85.741 266.192 85.741C266.427 85.741 266.619 85.6858 266.769 85.5755C266.922 85.4624 267.041 85.2955 267.125 85.0748Z" fill="#8C99B2"/>
<path d="M100.872 83.1484C100.872 84.2828 100.706 85.1158 100.375 85.6476C100.047 86.1766 99.5393 86.4411 98.8519 86.4411C98.1561 86.4411 97.6455 86.171 97.3201 85.6307C96.9948 85.0904 96.8322 84.2658 96.8322 83.1569C96.8322 82.0169 96.9963 81.1838 97.3244 80.6577C97.6554 80.1287 98.1645 79.8642 98.8519 79.8642C99.5478 79.8642 100.058 80.1372 100.384 80.6831C100.709 81.2291 100.872 82.0508 100.872 83.1484ZM99.7854 85.0748C99.8675 84.8655 99.9255 84.601 99.9594 84.2813C99.9933 83.9617 100.01 83.584 100.01 83.1484C100.01 82.7156 99.9933 82.3394 99.9594 82.0197C99.9255 81.7001 99.866 81.4342 99.7812 81.222C99.6963 81.007 99.5789 80.8444 99.429 80.7341C99.2819 80.6209 99.0895 80.5643 98.8519 80.5643C98.6171 80.5643 98.4234 80.6209 98.2706 80.7341C98.1207 80.8444 98.0019 81.0099 97.9142 81.2305C97.8293 81.4455 97.7713 81.7171 97.7402 82.0452C97.7091 82.3733 97.6935 82.7439 97.6935 83.1569C97.6935 83.5982 97.7063 83.9673 97.7317 84.2644C97.76 84.5614 97.8194 84.8273 97.9099 85.0621C97.992 85.2799 98.108 85.4482 98.2579 85.567C98.4106 85.683 98.6087 85.741 98.8519 85.741C99.0867 85.741 99.2791 85.6858 99.429 85.5755C99.5818 85.4624 99.7006 85.2955 99.7854 85.0748Z" fill="#8C99B2"/>
<path d="M213.62 63.25H206.38V66.14H213.62V63.25Z" fill="#F7931E"/>
<path d="M157.79 36.8896H150.55V90.3596H157.79V36.8896Z" fill="#F7931E"/>
<path d="M213.62 66.1396H206.38V90.3697H213.62V66.1396Z" fill="#8C99B2"/>
<path d="M157.79 54.71H150.55V90.37H157.79V54.71Z" fill="#8C99B2"/>
<path d="M157.61 106.76H150.73C150.456 106.753 150.191 106.667 149.965 106.512C149.739 106.358 149.562 106.141 149.457 105.889C149.351 105.636 149.321 105.358 149.369 105.089C149.418 104.819 149.543 104.57 149.73 104.37L152.82 101.06V98.75H152.47C152.287 98.75 152.111 98.6773 151.982 98.5479C151.853 98.4185 151.78 98.243 151.78 98.06V97.32C151.78 97.137 151.853 96.9615 151.982 96.8321C152.111 96.7027 152.287 96.63 152.47 96.63H155.95C156.041 96.6286 156.132 96.6455 156.217 96.6796C156.302 96.7137 156.379 96.7643 156.444 96.8285C156.51 96.8927 156.561 96.9692 156.597 97.0536C156.632 97.138 156.65 97.2285 156.65 97.32V98.06C156.65 98.1514 156.632 98.242 156.597 98.3263C156.561 98.4107 156.51 98.4872 156.444 98.5514C156.379 98.6156 156.302 98.6663 156.217 98.7003C156.132 98.7344 156.041 98.7513 155.95 98.75H155.6V101.06L158.69 104.37C158.884 104.57 159.014 104.824 159.062 105.098C159.11 105.373 159.075 105.656 158.96 105.91C158.847 106.171 158.658 106.393 158.417 106.544C158.176 106.696 157.895 106.771 157.61 106.76ZM152.43 97.32V98.06H153.43V101.33L150.16 104.84C150.059 104.941 149.991 105.072 149.966 105.213C149.941 105.354 149.96 105.5 150.02 105.63C150.075 105.761 150.169 105.873 150.288 105.952C150.407 106.03 150.547 106.071 150.69 106.07H157.57C157.713 106.072 157.854 106.031 157.974 105.953C158.094 105.876 158.189 105.765 158.247 105.633C158.304 105.502 158.322 105.357 158.298 105.216C158.273 105.075 158.208 104.944 158.11 104.84L154.83 101.33V98.06H155.83V97.32H152.43Z" fill="#606580"/>
<path d="M157.37 105.08L156 103.6C155.721 103.483 155.422 103.423 155.12 103.423C154.818 103.423 154.519 103.483 154.24 103.6C152.94 104.04 152.37 103.6 152.37 103.6L151 105.08C150.981 105.101 150.968 105.128 150.964 105.156C150.959 105.184 150.963 105.214 150.975 105.24C150.986 105.266 151.005 105.289 151.029 105.305C151.053 105.321 151.081 105.329 151.11 105.33H157.28C157.307 105.326 157.333 105.315 157.354 105.297C157.375 105.28 157.391 105.257 157.401 105.232C157.41 105.206 157.412 105.178 157.407 105.151C157.401 105.125 157.388 105.1 157.37 105.08Z" fill="#606580"/>
<path fill-rule="evenodd" clip-rule="evenodd" d="M131.55 105.77L126.86 97.0002C126.807 96.8893 126.724 96.7961 126.619 96.7321C126.514 96.6681 126.393 96.6362 126.27 96.6402C126.147 96.6349 126.025 96.6663 125.92 96.7304C125.815 96.7945 125.732 96.8884 125.68 97.0002L121 105.77C120.937 105.869 120.903 105.983 120.903 106.1C120.903 106.217 120.937 106.332 121 106.43C121.057 106.533 121.141 106.619 121.244 106.677C121.346 106.735 121.462 106.764 121.58 106.76H131C131.117 106.763 131.233 106.733 131.336 106.675C131.438 106.617 131.522 106.533 131.58 106.43C131.641 106.331 131.673 106.217 131.673 106.1C131.673 105.984 131.641 105.869 131.58 105.77H131.55ZM121.55 106.09L126.26 97.3002L130.95 106.09H121.55ZM125.55 100.7C125.547 100.611 125.564 100.521 125.598 100.439C125.633 100.356 125.684 100.281 125.75 100.22C125.813 100.158 125.888 100.109 125.971 100.076C126.053 100.044 126.141 100.028 126.23 100.03C126.317 100.028 126.404 100.044 126.485 100.077C126.565 100.109 126.639 100.158 126.7 100.22C126.768 100.28 126.821 100.354 126.856 100.437C126.89 100.52 126.906 100.61 126.9 100.7V102.7C126.903 102.788 126.886 102.876 126.852 102.957C126.817 103.038 126.765 103.111 126.7 103.17C126.641 103.237 126.569 103.29 126.488 103.326C126.407 103.363 126.319 103.381 126.23 103.38C126.051 103.375 125.881 103.302 125.755 103.175C125.628 103.049 125.555 102.879 125.55 102.7V100.7ZM125.75 104.26C125.813 104.197 125.887 104.146 125.97 104.112C126.052 104.077 126.141 104.06 126.23 104.06C126.318 104.06 126.405 104.078 126.485 104.112C126.566 104.147 126.639 104.197 126.7 104.26C126.765 104.319 126.817 104.392 126.852 104.473C126.886 104.554 126.903 104.642 126.9 104.73C126.903 104.82 126.887 104.909 126.853 104.992C126.818 105.075 126.766 105.149 126.7 105.21C126.639 105.274 126.566 105.324 126.485 105.358C126.405 105.393 126.318 105.41 126.23 105.41C126.141 105.411 126.052 105.393 125.97 105.359C125.887 105.324 125.813 105.274 125.75 105.21C125.686 105.149 125.635 105.075 125.601 104.993C125.566 104.912 125.548 104.824 125.548 104.735C125.548 104.647 125.566 104.559 125.601 104.477C125.635 104.396 125.686 104.322 125.75 104.26Z" fill="#606580"/>
<path fill-rule="evenodd" clip-rule="evenodd" d="M267.23 98.0001L266.88 100.48L269.5 100.54L263.85 107.46L265.14 102.73L262.89 102.87L267.53 95.8701L267.23 98.0001ZM266.73 97.9401L263.8 102.37L265.8 102.24L264.95 105.38L268.56 100.96H266.33L266.73 97.9401Z" fill="#8C99B2"/>
<path d="M241.93 97.1395C241.57 97.1395 241.57 97.1395 241.57 96.7495C241.589 96.7071 241.599 96.6611 241.599 96.6145C241.599 96.568 241.589 96.522 241.57 96.4795C241.534 96.4433 241.49 96.4156 241.441 96.3983C241.393 96.381 241.341 96.3746 241.29 96.3795H239.71C239.42 96.3795 239.27 96.3795 239.17 96.4895C239.07 96.5995 239.07 96.7695 239.08 97.0295C239.09 97.2895 239.08 97.1695 239.08 97.1695C239.08 97.1695 239.08 97.1695 238.92 97.1695H234C233.958 97.1626 233.914 97.1659 233.874 97.179C233.833 97.1922 233.796 97.2148 233.766 97.2451C233.735 97.2754 233.713 97.3124 233.699 97.3532C233.686 97.394 233.683 97.4373 233.69 97.4795C233.681 97.5718 233.706 97.6643 233.76 97.7395C233.796 97.7694 233.837 97.7911 233.882 97.8032C233.927 97.8153 233.974 97.8175 234.02 97.8095C234.14 97.8095 234.18 97.8095 234.19 97.8095C234.207 97.8752 234.207 97.9439 234.19 98.0095V99.0095C234.19 99.9095 234.19 100.82 234.19 101.72V101.83C234.19 103.24 234.19 104.7 234.19 106.13C234.19 106.27 234.19 106.3 234.19 106.3H234C233.955 106.276 233.906 106.264 233.855 106.264C233.804 106.264 233.755 106.276 233.71 106.3C233.672 106.339 233.643 106.386 233.624 106.438C233.605 106.49 233.597 106.545 233.6 106.6C233.597 106.645 233.603 106.691 233.619 106.734C233.634 106.777 233.658 106.816 233.69 106.85C233.726 106.886 233.771 106.912 233.82 106.926C233.869 106.94 233.92 106.941 233.97 106.93H241.78C241.809 106.957 241.844 106.978 241.882 106.99C241.92 107.002 241.96 107.006 242 107C242.034 106.964 242.059 106.921 242.075 106.874C242.09 106.828 242.095 106.778 242.09 106.73C242.102 106.676 242.098 106.62 242.08 106.568C242.063 106.516 242.031 106.47 241.988 106.435C241.946 106.4 241.895 106.377 241.841 106.369C241.786 106.361 241.731 106.368 241.68 106.39H241.63C241.628 106.37 241.628 106.349 241.63 106.33V100.23C241.63 99.5595 241.63 98.8895 241.63 98.2295C241.589 98.1865 241.566 98.1293 241.566 98.0698C241.566 98.0103 241.59 97.9532 241.631 97.9104C241.673 97.8677 241.729 97.8427 241.788 97.8407C241.848 97.8387 241.906 97.8598 241.95 97.8995C241.989 97.9021 242.027 97.8962 242.064 97.8824C242.1 97.8686 242.133 97.8472 242.16 97.8195C242.189 97.7836 242.211 97.7418 242.223 97.697C242.235 97.6522 242.237 97.6054 242.23 97.5595C242.265 97.5136 242.284 97.4577 242.285 97.4C242.286 97.3422 242.269 97.2857 242.235 97.2387C242.202 97.1917 242.154 97.1568 242.099 97.1389C242.044 97.121 241.985 97.1213 241.93 97.1395ZM239.68 96.9995C239.706 96.9895 239.734 96.9895 239.76 96.9995H240.9V97.0595C240.898 97.0828 240.898 97.1063 240.9 97.1295H239.68C239.68 97.1295 239.68 97.1295 239.68 97.0495C239.676 97.0331 239.676 97.0159 239.68 96.9995ZM240.95 102.2V103.05C240.95 104.11 240.95 105.17 240.95 106.23C240.956 106.263 240.956 106.296 240.95 106.33C240.95 106.33 240.95 106.33 240.86 106.33H234.86H234.79C234.784 106.3 234.784 106.269 234.79 106.24C234.79 103.46 234.79 100.68 234.79 97.8995C234.79 97.8295 234.79 97.8095 234.79 97.8095H234.89C236.89 97.8095 238.89 97.8095 240.84 97.8095H240.94C240.946 97.8459 240.946 97.8831 240.94 97.9195C240.94 98.8295 240.94 99.7495 240.94 100.66V102.2H240.95Z" fill="#606580"/>
<path d="M238.09 99.7894L237.99 99.6494L237.89 99.7794C237.464 100.297 237.085 100.853 236.76 101.439C236.529 101.812 236.389 102.233 236.35 102.669C236.318 103.031 236.422 103.391 236.639 103.68C236.857 103.97 237.174 104.169 237.53 104.239H237.9C238.218 104.253 238.531 104.163 238.793 103.983C239.054 103.802 239.25 103.541 239.35 103.239C239.48 102.747 239.426 102.225 239.2 101.769C238.907 101.069 238.535 100.404 238.09 99.7894ZM238.5 103.359C238.364 103.474 238.199 103.551 238.023 103.581C237.847 103.611 237.667 103.593 237.5 103.529C237.329 103.459 237.185 103.336 237.089 103.177C236.994 103.019 236.952 102.834 236.97 102.649C237.026 102.287 237.171 101.944 237.39 101.649C237.46 101.529 237.53 101.409 237.59 101.289C237.679 101.141 237.775 100.997 237.88 100.859V100.799C237.88 100.869 237.95 100.939 237.99 100.999C238.28 101.468 238.499 101.977 238.64 102.509C238.696 102.651 238.712 102.804 238.687 102.954C238.663 103.103 238.598 103.244 238.5 103.359Z" fill="#606580"/>
<path d="M237.65 102.68C237.634 102.609 237.595 102.546 237.54 102.5C237.485 102.482 237.425 102.482 237.37 102.5C237.37 102.5 237.19 102.57 237.24 102.8C237.3 103.003 237.414 103.186 237.57 103.33C237.594 103.354 237.625 103.372 237.658 103.381C237.692 103.39 237.727 103.389 237.76 103.38C237.783 103.376 237.805 103.367 237.825 103.353C237.844 103.339 237.859 103.321 237.87 103.3C237.905 103.245 237.919 103.18 237.91 103.115C237.901 103.051 237.869 102.992 237.82 102.95C237.735 102.881 237.676 102.786 237.65 102.68Z" fill="#606580"/>
<path d="M74.35 101.819C73.7668 100.451 73.0711 99.1329 72.27 97.8793C72.04 97.5193 71.8 97.1493 71.56 96.7993L71.23 96.3193H70.89L70.83 96.3793C70.7846 96.4248 70.7444 96.4751 70.71 96.5293C69.6336 98.1136 68.6936 99.7862 67.9 101.529C67.599 102.106 67.4218 102.74 67.38 103.389C67.3575 104.094 67.5439 104.791 67.9158 105.39C68.2876 105.99 68.8283 106.466 69.47 106.759C69.7426 106.882 70.0276 106.976 70.32 107.039L70.71 107.149H71.47H71.54H71.62C72.1967 107.071 72.7466 106.856 73.2244 106.524C73.7022 106.192 74.0943 105.75 74.3686 105.237C74.6428 104.724 74.7914 104.153 74.8021 103.571C74.8128 102.989 74.6852 102.412 74.43 101.889L74.35 101.819ZM73.52 104.899C73.3079 105.262 73.0188 105.573 72.6733 105.811C72.3277 106.05 71.934 106.21 71.52 106.279C71.1073 106.356 70.6828 106.343 70.2759 106.239C69.8689 106.136 69.4893 105.946 69.1631 105.681C68.837 105.417 68.5721 105.085 68.3868 104.708C68.2016 104.331 68.1003 103.919 68.09 103.499C68.0949 103.157 68.1627 102.818 68.29 102.499C68.8212 101.128 69.4913 99.8143 70.29 98.5793V98.4893C70.45 98.2193 70.62 97.9493 70.81 97.6593L70.98 97.3793L71.44 98.1493C71.83 98.8193 72.21 99.4593 72.57 100.149C73.0594 100.982 73.4615 101.864 73.77 102.779C73.8776 103.131 73.911 103.501 73.8679 103.866C73.8249 104.231 73.7064 104.583 73.52 104.899Z" fill="#606580"/>
<path d="M70.91 105.16C70.7609 105.149 70.6135 105.122 70.47 105.08C70.1294 104.971 69.8305 104.76 69.614 104.476C69.3975 104.191 69.2739 103.847 69.26 103.49C69.2608 103.418 69.2471 103.346 69.2196 103.279C69.1921 103.212 69.1515 103.151 69.1 103.1C69.063 103.065 69.0187 103.039 68.9702 103.023C68.9218 103.008 68.8704 103.003 68.82 103.01C68.57 103.01 68.46 103.2 68.47 103.53C68.4864 104.166 68.7412 104.773 69.1838 105.231C69.6264 105.688 70.2246 105.963 70.86 106H70.94C71.11 106 71.38 106 71.4 105.65C71.42 105.3 71.05 105.17 70.91 105.16Z" fill="#606580"/>
<path fill-rule="evenodd" clip-rule="evenodd" d="M184.45 96.4395V100.439C184.44 100.516 184.446 100.594 184.468 100.668C184.49 100.741 184.527 100.81 184.578 100.868C184.629 100.926 184.691 100.972 184.761 101.004C184.832 101.036 184.908 101.053 184.985 101.053C185.062 101.053 185.138 101.036 185.209 101.004C185.279 100.972 185.341 100.926 185.392 100.868C185.443 100.81 185.48 100.741 185.502 100.668C185.524 100.594 185.53 100.516 185.52 100.439V96.4395C185.53 96.3631 185.524 96.2853 185.502 96.2115C185.48 96.1376 185.443 96.0693 185.392 96.0112C185.341 95.9531 185.279 95.9065 185.209 95.8746C185.138 95.8427 185.062 95.8262 184.985 95.8262C184.908 95.8262 184.832 95.8427 184.761 95.8746C184.691 95.9065 184.629 95.9531 184.578 96.0112C184.527 96.0693 184.49 96.1376 184.468 96.2115C184.446 96.2853 184.44 96.3631 184.45 96.4395Z" fill="#A2E2FF"/>
<path fill-rule="evenodd" clip-rule="evenodd" d="M179.88 100.489V96.4893C179.89 96.4129 179.884 96.3352 179.862 96.2613C179.84 96.1874 179.803 96.1191 179.752 96.061C179.701 96.0029 179.639 95.9563 179.569 95.9244C179.498 95.8925 179.422 95.876 179.345 95.876C179.268 95.876 179.192 95.8925 179.121 95.9244C179.051 95.9563 178.989 96.0029 178.938 96.061C178.887 96.1191 178.85 96.1874 178.828 96.2613C178.806 96.3352 178.8 96.4129 178.81 96.4893V100.489C178.8 100.566 178.806 100.643 178.828 100.717C178.85 100.791 178.887 100.859 178.938 100.918C178.989 100.976 179.051 101.022 179.121 101.054C179.192 101.086 179.268 101.103 179.345 101.103C179.422 101.103 179.498 101.086 179.569 101.054C179.639 101.022 179.701 100.976 179.752 100.918C179.803 100.859 179.84 100.791 179.862 100.717C179.884 100.643 179.89 100.566 179.88 100.489Z" fill="#A2E2FF"/>
<path fill-rule="evenodd" clip-rule="evenodd" d="M182.5 107.35L186.26 103.58C186.305 103.535 186.34 103.482 186.364 103.424C186.389 103.366 186.401 103.303 186.401 103.24C186.401 103.177 186.389 103.114 186.364 103.056C186.34 102.998 186.305 102.945 186.26 102.9C186.168 102.814 186.046 102.767 185.92 102.767C185.794 102.767 185.672 102.814 185.58 102.9L182.69 105.79V97.7899C182.672 97.6606 182.608 97.5421 182.51 97.4563C182.412 97.3705 182.286 97.3232 182.155 97.3232C182.024 97.3232 181.898 97.3705 181.8 97.4563C181.702 97.5421 181.638 97.6606 181.62 97.7899V105.79L178.73 102.9C178.685 102.855 178.632 102.82 178.574 102.796C178.516 102.772 178.453 102.759 178.39 102.759C178.327 102.759 178.264 102.772 178.206 102.796C178.148 102.82 178.095 102.855 178.05 102.9C178.005 102.945 177.97 102.998 177.946 103.056C177.922 103.114 177.909 103.177 177.909 103.24C177.909 103.303 177.922 103.366 177.946 103.424C177.97 103.482 178.005 103.535 178.05 103.58L181.82 107.35C181.912 107.436 182.034 107.483 182.16 107.483C182.286 107.483 182.408 107.436 182.5 107.35Z" fill="#A2E2FF"/>
<path fill-rule="evenodd" clip-rule="evenodd" d="M42.24 97.4593C41.2626 97.4629 40.2988 97.6882 39.4211 98.1183C38.5435 98.5484 37.7748 99.172 37.1731 99.9422C36.5714 100.712 36.1523 101.609 35.9473 102.565C35.7424 103.52 35.757 104.51 35.99 105.459C36.023 105.583 36.1032 105.689 36.2135 105.755C36.3238 105.82 36.4554 105.84 36.58 105.809C36.7026 105.774 36.8071 105.693 36.8721 105.584C36.9372 105.474 36.9579 105.344 36.93 105.219C36.93 105.139 36.93 105.059 36.93 104.979C37.0626 104.97 37.1861 104.908 37.2733 104.808C37.3605 104.708 37.4043 104.577 37.395 104.444C37.3857 104.312 37.3241 104.188 37.2238 104.101C37.1235 104.014 36.9926 103.97 36.86 103.979C36.86 103.979 36.86 103.889 36.86 103.839C36.8682 102.728 37.2173 101.646 37.86 100.739C37.932 100.792 38.0171 100.824 38.106 100.833C38.195 100.841 38.2845 100.824 38.3648 100.785C38.4451 100.746 38.5132 100.686 38.5617 100.611C38.6102 100.535 38.6373 100.449 38.64 100.359C38.6391 100.291 38.6234 100.223 38.5941 100.161C38.5648 100.099 38.5224 100.044 38.47 99.9993C39.3814 99.0719 40.5944 98.5008 41.89 98.3893C41.8976 98.5114 41.9516 98.6259 42.0408 98.7095C42.13 98.7931 42.2477 98.8396 42.37 98.8393C42.493 98.8421 42.6121 98.7965 42.7019 98.7123C42.7916 98.6282 42.8448 98.5122 42.85 98.3893C44.1565 98.4971 45.3792 99.0764 46.29 100.019C46.2435 100.063 46.2069 100.115 46.1828 100.174C46.1586 100.233 46.1474 100.296 46.15 100.359C46.1486 100.423 46.1601 100.486 46.1838 100.545C46.2074 100.603 46.2427 100.657 46.2876 100.702C46.3324 100.747 46.3859 100.782 46.4447 100.806C46.5036 100.829 46.5666 100.841 46.63 100.839C46.7267 100.836 46.8204 100.804 46.9 100.749C47.5202 101.66 47.8513 102.737 47.85 103.839C47.85 103.839 47.85 103.929 47.85 103.979C47.7874 103.979 47.7255 103.992 47.6678 104.016C47.6101 104.04 47.5578 104.076 47.5141 104.121C47.4703 104.165 47.4359 104.218 47.4129 104.276C47.3898 104.335 47.3787 104.397 47.38 104.459C47.381 104.565 47.4169 104.667 47.482 104.75C47.5471 104.834 47.6378 104.893 47.74 104.919C47.74 105.029 47.74 105.139 47.68 105.249C47.6634 105.31 47.659 105.374 47.6671 105.437C47.6752 105.5 47.6957 105.56 47.7273 105.615C47.7589 105.67 47.801 105.718 47.8512 105.756C47.9015 105.795 47.9588 105.823 48.02 105.839H48.15C48.2556 105.838 48.3579 105.802 48.4411 105.737C48.5242 105.672 48.5836 105.582 48.61 105.479C48.7581 104.938 48.8321 104.38 48.83 103.819C48.817 102.968 48.636 102.128 48.2974 101.348C47.9588 100.567 47.4692 99.8607 46.8568 99.2697C46.2445 98.6787 45.5214 98.2145 44.729 97.9039C43.9367 97.5932 43.0909 97.4421 42.24 97.4593Z" fill="#606580"/>
<path fill-rule="evenodd" clip-rule="evenodd" d="M44.91 101.359L42.26 103.859C42.126 103.851 41.9917 103.873 41.8671 103.923C41.7425 103.973 41.6308 104.05 41.54 104.149C41.3729 104.331 41.2848 104.572 41.2952 104.818C41.3055 105.065 41.4133 105.297 41.595 105.464C41.7767 105.631 42.0173 105.72 42.2639 105.709C42.5105 105.699 42.7429 105.591 42.91 105.409C42.9948 105.32 43.0606 105.215 43.1036 105.1C43.1465 104.985 43.1657 104.862 43.16 104.739L45.46 101.869C45.5035 101.836 45.5391 101.793 45.5643 101.744C45.5896 101.695 45.6039 101.641 45.6063 101.586C45.6087 101.531 45.5991 101.476 45.5781 101.425C45.5572 101.374 45.5254 101.328 45.485 101.291C45.4446 101.253 45.3966 101.225 45.3442 101.208C45.2918 101.191 45.2364 101.186 45.1817 101.192C45.127 101.199 45.0743 101.217 45.0274 101.246C44.9805 101.275 44.9405 101.313 44.91 101.359Z" fill="#606580"/>
<path d="M44.6675 63.0277H43.9164V65.2002H43.1017V63.0277H40.3097V62.1366L43.1357 58.8821H43.9164V62.3488H44.6675V63.0277ZM43.1017 62.3488V59.8793L40.9717 62.3488H43.1017Z" fill="#8C99B2"/>
<path d="M46.14 69.8193H38.9V75.7993H46.14V69.8193Z" fill="#F7931E"/>
<path d="M46.14 71.9795H38.9V90.3695H46.14V71.9795Z" fill="#8C99B2"/>
</svg>
