<svg width="324" height="117" viewBox="0 0 324 117" fill="none" xmlns="http://www.w3.org/2000/svg">
<path d="M123.17 20.6202H318.79V10.0502C317.43 8.87016 314.95 7.05016 313.6 5.91016H128.39L123.19 10.4302L123.17 20.6202Z" fill="#EBF1F9"/>
<path d="M224 21L224 100" stroke="#D7E2F2" stroke-width="0.5" stroke-miterlimit="10"/>
<path d="M318 21L318 100" stroke="#D7E2F2" stroke-width="0.5" stroke-miterlimit="10"/>
<path d="M123 21L123 100" stroke="#D7E2F2" stroke-width="0.5" stroke-miterlimit="10"/>
<path d="M224.1 33.9004H123.29" stroke="#D7E2F2" stroke-width="0.5" stroke-miterlimit="10"/>
<path d="M224.1 47.1299H123.29" stroke="#D7E2F2" stroke-width="0.5" stroke-miterlimit="10"/>
<path d="M224.1 60.7305H123.29" stroke="#D7E2F2" stroke-width="0.5" stroke-miterlimit="10"/>
<path d="M224.1 73.96H123.29" stroke="#D7E2F2" stroke-width="0.5" stroke-miterlimit="10"/>
<path d="M224.1 87.1904H123.29" stroke="#D7E2F2" stroke-width="0.5" stroke-miterlimit="10"/>
<path d="M319 100H123" stroke="#D7E2F2" stroke-width="0.5" stroke-miterlimit="10"/>
<path d="M7.99998 21H116V10.2216C114.685 9.01835 112.264 7.16247 110.949 6H13.0907L8.01991 10.6091L7.99998 21Z" fill="#EBF1F9"/>
<path d="M25.6857 14.9004H25.0853V12.6899H23.0082V14.9004H22.4079V10.3854H23.0082V12.1562H25.0853V10.3854H25.6857V14.9004ZM28.4511 14.0665V13.1265C28.3157 13.1387 28.1438 13.1558 27.9356 13.1781C27.7294 13.1983 27.5627 13.2276 27.4353 13.266C27.2837 13.3125 27.1584 13.3843 27.0593 13.4813C26.9602 13.5763 26.9107 13.7097 26.9107 13.8816C26.9107 14.0756 26.9653 14.2222 27.0745 14.3212C27.1836 14.4203 27.3433 14.4698 27.5536 14.4698C27.7335 14.4698 27.8962 14.4314 28.0417 14.3546C28.1873 14.2758 28.3237 14.1797 28.4511 14.0665ZM28.4511 14.5396C28.4046 14.5739 28.3419 14.6224 28.2631 14.6851C28.1863 14.7457 28.1115 14.7943 28.0387 14.8306C27.9376 14.8832 27.8396 14.9236 27.7446 14.9519C27.6516 14.9802 27.5202 14.9944 27.3504 14.9944C27.2109 14.9944 27.0785 14.9681 26.9532 14.9156C26.8278 14.863 26.7177 14.7892 26.6227 14.6942C26.5317 14.6012 26.4589 14.487 26.4043 14.3516C26.3498 14.2141 26.3225 14.0696 26.3225 13.9179C26.3225 13.6835 26.372 13.4843 26.4711 13.3206C26.5701 13.1548 26.7268 13.0234 26.941 12.9264C27.1311 12.8395 27.3554 12.7799 27.6142 12.7475C27.8729 12.7131 28.1519 12.6879 28.4511 12.6717V12.5625C28.4511 12.4291 28.4309 12.322 28.3904 12.2411C28.35 12.1582 28.2934 12.0946 28.2206 12.0501C28.1479 12.0036 28.0589 11.9733 27.9538 11.9591C27.8487 11.943 27.7405 11.9349 27.6294 11.9349C27.498 11.9349 27.3433 11.9551 27.1654 11.9955C26.9875 12.0339 26.8096 12.0905 26.6318 12.1653H26.5984V11.5862C26.7035 11.5558 26.8541 11.5225 27.0502 11.4861C27.2463 11.4497 27.4404 11.4315 27.6324 11.4315C27.8649 11.4315 28.0609 11.4497 28.2206 11.4861C28.3803 11.5225 28.5239 11.5882 28.6512 11.6832C28.7745 11.7762 28.8665 11.8965 28.9272 12.044C28.9878 12.1916 29.0181 12.3715 29.0181 12.5838V14.9004H28.4511V14.5396ZM32.4961 14.9004H31.9321V12.3745L30.3371 14.9004H29.8217V11.5134H30.3857V13.9998L31.9624 11.5134H32.4961V14.9004ZM36.4622 14.9004H35.8982V12.2381L35.0856 13.9665H34.6611L33.8545 12.2381V14.9004H33.3209V11.5134H34.0092L34.9006 13.3934L35.7618 11.5134H36.4622V14.9004ZM38.7576 14.9792C38.2179 14.9792 37.7984 14.8276 37.4993 14.5244C37.2021 14.2192 37.0535 13.7866 37.0535 13.2266C37.0535 12.6747 37.1981 12.2361 37.4871 11.9106C37.7762 11.5831 38.1542 11.4194 38.6212 11.4194C38.8314 11.4194 39.0174 11.4497 39.1791 11.5104C39.3408 11.571 39.4823 11.666 39.6036 11.7954C39.7249 11.9248 39.8179 12.0835 39.8826 12.2715C39.9473 12.4574 39.9796 12.6859 39.9796 12.9567V13.266H37.6327C37.6327 13.6602 37.7317 13.9614 37.9298 14.1696C38.1279 14.3778 38.4019 14.4819 38.7516 14.4819C38.8769 14.4819 38.9992 14.4678 39.1185 14.4395C39.2398 14.4112 39.3489 14.3748 39.4459 14.3303C39.549 14.2838 39.636 14.2394 39.7067 14.1969C39.7775 14.1524 39.8361 14.111 39.8826 14.0726H39.9159V14.6942C39.8492 14.7205 39.7664 14.7538 39.6673 14.7943C39.5682 14.8327 39.4793 14.863 39.4005 14.8852C39.2893 14.9156 39.1882 14.9388 39.0972 14.955C39.0083 14.9711 38.8951 14.9792 38.7576 14.9792ZM39.4247 12.8294C39.4207 12.6757 39.4025 12.5433 39.3701 12.4322C39.3378 12.321 39.2913 12.227 39.2307 12.1502C39.164 12.0653 39.078 12.0006 38.9729 11.9561C38.8698 11.9116 38.7415 11.8894 38.5878 11.8894C38.4362 11.8894 38.3068 11.9126 38.1997 11.9591C38.0946 12.0036 37.9986 12.0693 37.9116 12.1562C37.8267 12.2452 37.7621 12.3442 37.7176 12.4534C37.6731 12.5605 37.6448 12.6859 37.6327 12.8294H39.4247ZM43.2302 14.9004H42.6601V13.3752H41.1258V14.9004H40.5557V11.5134H41.1258V12.884H42.6601V11.5134H43.2302V14.9004ZM46.8415 13.2084C46.8415 13.7785 46.7041 14.2192 46.4292 14.5305C46.1542 14.8397 45.7884 14.9944 45.3315 14.9944C44.8605 14.9944 44.4896 14.8347 44.2187 14.5153C43.9498 14.1939 43.8154 13.7583 43.8154 13.2084C43.8154 12.6424 43.9539 12.2027 44.2308 11.8894C44.5098 11.5761 44.8767 11.4194 45.3315 11.4194C45.7884 11.4194 46.1542 11.5761 46.4292 11.8894C46.7041 12.2007 46.8415 12.6404 46.8415 13.2084ZM46.2533 13.2084C46.2533 12.7697 46.1734 12.4443 46.0138 12.232C45.8541 12.0178 45.6266 11.9106 45.3315 11.9106C45.0343 11.9106 44.8049 12.0178 44.6432 12.232C44.4835 12.4443 44.4036 12.7697 44.4036 13.2084C44.4036 13.6329 44.4835 13.9553 44.6432 14.1757C44.8049 14.394 45.0343 14.5032 45.3315 14.5032C45.6246 14.5032 45.851 14.396 46.0107 14.1818C46.1724 13.9655 46.2533 13.641 46.2533 13.2084ZM50.083 13.8755C50.083 14.0392 50.0517 14.1848 49.989 14.3121C49.9263 14.4375 49.8404 14.5426 49.7313 14.6275C49.5938 14.7346 49.4493 14.8074 49.2977 14.8458C49.1481 14.8822 48.9681 14.9004 48.7579 14.9004H47.4268V11.5134H48.67C48.9186 11.5134 49.1006 11.5215 49.2158 11.5377C49.331 11.5518 49.4452 11.5902 49.5584 11.6529C49.6777 11.7176 49.7656 11.8035 49.8222 11.9106C49.8788 12.0178 49.9071 12.1451 49.9071 12.2927C49.9071 12.4544 49.8627 12.5999 49.7737 12.7293C49.6848 12.8567 49.5665 12.9557 49.4189 13.0265L49.4341 13.0477C49.6181 13.0942 49.7717 13.1882 49.895 13.3297C50.0203 13.4712 50.083 13.6531 50.083 13.8755ZM49.3219 12.3806C49.3219 12.3038 49.3088 12.2371 49.2825 12.1805C49.2582 12.1239 49.2148 12.0794 49.1521 12.0471C49.0793 12.0087 48.9975 11.9864 48.9065 11.9804C48.8175 11.9723 48.6932 11.9682 48.5335 11.9682H47.9908V12.8961H48.6457C48.7852 12.8961 48.8843 12.89 48.9429 12.8779C49.0015 12.8637 49.0662 12.8354 49.1369 12.793C49.2037 12.7526 49.2512 12.698 49.2795 12.6293C49.3078 12.5605 49.3219 12.4776 49.3219 12.3806ZM49.4947 13.8785C49.4947 13.7633 49.4776 13.6713 49.4432 13.6026C49.4109 13.5318 49.3381 13.4692 49.2249 13.4146C49.1541 13.3802 49.0783 13.359 48.9975 13.3509C48.9166 13.3428 48.8044 13.3388 48.6609 13.3388H47.9908V14.4456H48.485C48.6892 14.4456 48.8479 14.4375 48.9611 14.4213C49.0743 14.4051 49.1713 14.3728 49.2522 14.3243C49.3371 14.2717 49.3987 14.2111 49.4371 14.1423C49.4755 14.0736 49.4947 13.9857 49.4947 13.8785ZM52.5755 14.0665V13.1265C52.44 13.1387 52.2682 13.1558 52.06 13.1781C51.8538 13.1983 51.687 13.2276 51.5597 13.266C51.4081 13.3125 51.2827 13.3843 51.1837 13.4813C51.0846 13.5763 51.0351 13.7097 51.0351 13.8816C51.0351 14.0756 51.0897 14.2222 51.1989 14.3212C51.308 14.4203 51.4677 14.4698 51.6779 14.4698C51.8579 14.4698 52.0206 14.4314 52.1661 14.3546C52.3117 14.2758 52.4481 14.1797 52.5755 14.0665ZM52.5755 14.5396C52.529 14.5739 52.4663 14.6224 52.3875 14.6851C52.3107 14.7457 52.2359 14.7943 52.1631 14.8306C52.062 14.8832 51.964 14.9236 51.869 14.9519C51.776 14.9802 51.6446 14.9944 51.4748 14.9944C51.3353 14.9944 51.2029 14.9681 51.0776 14.9156C50.9522 14.863 50.8421 14.7892 50.7471 14.6942C50.6561 14.6012 50.5833 14.487 50.5287 14.3516C50.4742 14.2141 50.4469 14.0696 50.4469 13.9179C50.4469 13.6835 50.4964 13.4843 50.5954 13.3206C50.6945 13.1548 50.8512 13.0234 51.0654 12.9264C51.2555 12.8395 51.4798 12.7799 51.7386 12.7475C51.9973 12.7131 52.2763 12.6879 52.5755 12.6717V12.5625C52.5755 12.4291 52.5553 12.322 52.5148 12.2411C52.4744 12.1582 52.4178 12.0946 52.345 12.0501C52.2723 12.0036 52.1833 11.9733 52.0782 11.9591C51.9731 11.943 51.8649 11.9349 51.7538 11.9349C51.6224 11.9349 51.4677 11.9551 51.2898 11.9955C51.1119 12.0339 50.934 12.0905 50.7562 12.1653H50.7228V11.5862C50.8279 11.5558 50.9785 11.5225 51.1746 11.4861C51.3707 11.4497 51.5647 11.4315 51.7568 11.4315C51.9893 11.4315 52.1853 11.4497 52.345 11.4861C52.5047 11.5225 52.6483 11.5882 52.7756 11.6832C52.8989 11.7762 52.9909 11.8965 53.0515 12.044C53.1122 12.1916 53.1425 12.3715 53.1425 12.5838V14.9004H52.5755V14.5396ZM56.6205 14.9004H56.0504V13.3752H54.5161V14.9004H53.9461V11.5134H54.5161V12.884H56.0504V11.5134H56.6205V14.9004ZM60.1197 14.9004H59.5557V12.3745L57.9607 14.9004H57.4452V11.5134H58.0092V13.9998L59.586 11.5134H60.1197V14.9004ZM62.4151 14.9792C61.8753 14.9792 61.4559 14.8276 61.1567 14.5244C60.8595 14.2192 60.711 13.7866 60.711 13.2266C60.711 12.6747 60.8555 12.2361 61.1446 11.9106C61.4336 11.5831 61.8117 11.4194 62.2786 11.4194C62.4888 11.4194 62.6748 11.4497 62.8365 11.5104C62.9983 11.571 63.1398 11.666 63.2611 11.7954C63.3823 11.9248 63.4753 12.0835 63.54 12.2715C63.6047 12.4574 63.6371 12.6859 63.6371 12.9567V13.266H61.2901C61.2901 13.6602 61.3892 13.9614 61.5873 14.1696C61.7854 14.3778 62.0593 14.4819 62.409 14.4819C62.5343 14.4819 62.6566 14.4678 62.7759 14.4395C62.8972 14.4112 63.0063 14.3748 63.1034 14.3303C63.2065 14.2838 63.2934 14.2394 63.3642 14.1969C63.4349 14.1524 63.4935 14.111 63.54 14.0726H63.5734V14.6942C63.5067 14.7205 63.4238 14.7538 63.3247 14.7943C63.2257 14.8327 63.1367 14.863 63.0579 14.8852C62.9467 14.9156 62.8456 14.9388 62.7547 14.955C62.6657 14.9711 62.5525 14.9792 62.4151 14.9792ZM63.0822 12.8294C63.0781 12.6757 63.0599 12.5433 63.0276 12.4322C62.9952 12.321 62.9487 12.227 62.8881 12.1502C62.8214 12.0653 62.7355 12.0006 62.6304 11.9561C62.5273 11.9116 62.3989 11.8894 62.2453 11.8894C62.0936 11.8894 61.9643 11.9126 61.8571 11.9591C61.752 12.0036 61.656 12.0693 61.5691 12.1562C61.4842 12.2452 61.4195 12.3442 61.375 12.4534C61.3305 12.5605 61.3022 12.6859 61.2901 12.8294H63.0822ZM67.5001 14.9762C67.2676 14.9762 67.0544 14.9408 66.8603 14.8701C66.6662 14.7973 66.4995 14.6881 66.36 14.5426C66.2205 14.397 66.1124 14.2141 66.0355 13.9938C65.9587 13.7714 65.9203 13.5106 65.9203 13.2114C65.9203 12.9143 65.9597 12.6576 66.0386 12.4413C66.1194 12.225 66.2266 12.043 66.36 11.8955C66.4934 11.7479 66.6592 11.6347 66.8573 11.5558C67.0574 11.475 67.2717 11.4346 67.5001 11.4346C67.6861 11.4346 67.865 11.4608 68.0368 11.5134C68.2107 11.566 68.3653 11.6266 68.5007 11.6953V12.3351H68.4674C68.427 12.3008 68.3744 12.2613 68.3097 12.2169C68.247 12.1724 68.1702 12.1269 68.0793 12.0804C68.0004 12.04 67.9074 12.0046 67.8003 11.9743C67.6932 11.944 67.5901 11.9288 67.491 11.9288C67.1959 11.9288 66.9584 12.041 66.7784 12.2654C66.6005 12.4877 66.5116 12.8031 66.5116 13.2114C66.5116 13.6117 66.5975 13.924 66.7693 14.1484C66.9432 14.3708 67.1837 14.4819 67.491 14.4819C67.677 14.4819 67.8539 14.4435 68.0217 14.3667C68.1894 14.2899 68.338 14.1908 68.4674 14.0696H68.5007V14.7094C68.4441 14.7356 68.3734 14.768 68.2885 14.8064C68.2036 14.8428 68.1268 14.8701 68.058 14.8883C67.961 14.9166 67.8741 14.9378 67.7973 14.9519C67.7205 14.9681 67.6214 14.9762 67.5001 14.9762ZM71.6967 14.9004H71.1266V12.0046H69.5923V14.9004H69.0223V11.5134H71.6967V14.9004ZM75.3627 13.1174C75.3627 13.6814 75.2272 14.1312 74.9564 14.4668C74.6875 14.8003 74.3469 14.9671 73.9345 14.9671C73.7667 14.9671 73.6181 14.9479 73.4888 14.9095C73.3594 14.8711 73.227 14.8114 73.0915 14.7306V16.1497H72.5215V11.5134H73.0915V11.8682C73.233 11.7408 73.3897 11.6347 73.5615 11.5498C73.7354 11.4629 73.9244 11.4194 74.1286 11.4194C74.5167 11.4194 74.8189 11.573 75.0352 11.8803C75.2535 12.1876 75.3627 12.5999 75.3627 13.1174ZM74.7744 13.1811C74.7744 12.795 74.7128 12.4958 74.5895 12.2836C74.4661 12.0693 74.266 11.9622 73.9891 11.9622C73.8274 11.9622 73.6707 11.9985 73.5191 12.0713C73.3695 12.1421 73.227 12.2341 73.0915 12.3473V14.2667C73.2411 14.3394 73.3685 14.389 73.4736 14.4152C73.5807 14.4415 73.703 14.4547 73.8405 14.4547C74.1356 14.4547 74.3651 14.3465 74.5288 14.1302C74.6925 13.9139 74.7744 13.5975 74.7744 13.1811ZM77.8461 14.0665V13.1265C77.7106 13.1387 77.5388 13.1558 77.3306 13.1781C77.1244 13.1983 76.9576 13.2276 76.8303 13.266C76.6787 13.3125 76.5533 13.3843 76.4543 13.4813C76.3552 13.5763 76.3057 13.7097 76.3057 13.8816C76.3057 14.0756 76.3603 14.2222 76.4694 14.3212C76.5786 14.4203 76.7383 14.4698 76.9485 14.4698C77.1284 14.4698 77.2912 14.4314 77.4367 14.3546C77.5823 14.2758 77.7187 14.1797 77.8461 14.0665ZM77.8461 14.5396C77.7996 14.5739 77.7369 14.6224 77.6581 14.6851C77.5813 14.7457 77.5065 14.7943 77.4337 14.8306C77.3326 14.8832 77.2346 14.9236 77.1396 14.9519C77.0466 14.9802 76.9152 14.9944 76.7454 14.9944C76.6059 14.9944 76.4735 14.9681 76.3481 14.9156C76.2228 14.863 76.1126 14.7892 76.0176 14.6942C75.9267 14.6012 75.8539 14.487 75.7993 14.3516C75.7447 14.2141 75.7174 14.0696 75.7174 13.9179C75.7174 13.6835 75.767 13.4843 75.866 13.3206C75.9651 13.1548 76.1217 13.0234 76.336 12.9264C76.526 12.8395 76.7504 12.7799 77.0092 12.7475C77.2679 12.7131 77.5469 12.6879 77.8461 12.6717V12.5625C77.8461 12.4291 77.8258 12.322 77.7854 12.2411C77.745 12.1582 77.6884 12.0946 77.6156 12.0501C77.5428 12.0036 77.4539 11.9733 77.3488 11.9591C77.2437 11.943 77.1355 11.9349 77.0243 11.9349C76.8929 11.9349 76.7383 11.9551 76.5604 11.9955C76.3825 12.0339 76.2046 12.0905 76.0267 12.1653H75.9934V11.5862C76.0985 11.5558 76.2491 11.5225 76.4452 11.4861C76.6413 11.4497 76.8353 11.4315 77.0274 11.4315C77.2598 11.4315 77.4559 11.4497 77.6156 11.4861C77.7753 11.5225 77.9188 11.5882 78.0462 11.6832C78.1695 11.7762 78.2615 11.8965 78.3221 12.044C78.3828 12.1916 78.4131 12.3715 78.4131 12.5838V14.9004H77.8461V14.5396ZM81.8729 13.8755C81.8729 14.0392 81.8415 14.1848 81.7789 14.3121C81.7162 14.4375 81.6303 14.5426 81.5211 14.6275C81.3837 14.7346 81.2391 14.8074 81.0875 14.8458C80.9379 14.8822 80.758 14.9004 80.5478 14.9004H79.2166V11.5134H80.4598C80.7085 11.5134 80.8904 11.5215 81.0056 11.5377C81.1209 11.5518 81.2351 11.5902 81.3483 11.6529C81.4676 11.7176 81.5555 11.8035 81.6121 11.9106C81.6687 12.0178 81.697 12.1451 81.697 12.2927C81.697 12.4544 81.6525 12.5999 81.5636 12.7293C81.4746 12.8567 81.3564 12.9557 81.2088 13.0265L81.224 13.0477C81.4079 13.0942 81.5616 13.1882 81.6849 13.3297C81.8102 13.4712 81.8729 13.6531 81.8729 13.8755ZM81.1118 12.3806C81.1118 12.3038 81.0986 12.2371 81.0724 12.1805C81.0481 12.1239 81.0046 12.0794 80.942 12.0471C80.8692 12.0087 80.7873 11.9864 80.6964 11.9804C80.6074 11.9723 80.4831 11.9682 80.3234 11.9682H79.7806V12.8961H80.4356C80.5751 12.8961 80.6741 12.89 80.7327 12.8779C80.7914 12.8637 80.8561 12.8354 80.9268 12.793C80.9935 12.7526 81.041 12.698 81.0693 12.6293C81.0976 12.5605 81.1118 12.4776 81.1118 12.3806ZM81.2846 13.8785C81.2846 13.7633 81.2674 13.6713 81.2331 13.6026C81.2007 13.5318 81.1279 13.4692 81.0147 13.4146C80.944 13.3802 80.8682 13.359 80.7873 13.3509C80.7065 13.3428 80.5943 13.3388 80.4507 13.3388H79.7806V14.4456H80.2749C80.479 14.4456 80.6377 14.4375 80.7509 14.4213C80.8641 14.4051 80.9612 14.3728 81.042 14.3243C81.1269 14.2717 81.1886 14.2111 81.227 14.1423C81.2654 14.0736 81.2846 13.9857 81.2846 13.8785ZM85.2599 13.2084C85.2599 13.7785 85.1224 14.2192 84.8475 14.5305C84.5726 14.8397 84.2067 14.9944 83.7498 14.9944C83.2788 14.9944 82.9079 14.8347 82.637 14.5153C82.3681 14.1939 82.2337 13.7583 82.2337 13.2084C82.2337 12.6424 82.3722 12.2027 82.6491 11.8894C82.9281 11.5761 83.295 11.4194 83.7498 11.4194C84.2067 11.4194 84.5726 11.5761 84.8475 11.8894C85.1224 12.2007 85.2599 12.6404 85.2599 13.2084ZM84.6716 13.2084C84.6716 12.7697 84.5918 12.4443 84.4321 12.232C84.2724 12.0178 84.0449 11.9106 83.7498 11.9106C83.4527 11.9106 83.2232 12.0178 83.0615 12.232C82.9018 12.4443 82.8219 12.7697 82.8219 13.2084C82.8219 13.6329 82.9018 13.9553 83.0615 14.1757C83.2232 14.394 83.4527 14.5032 83.7498 14.5032C84.0429 14.5032 84.2693 14.396 84.429 14.1818C84.5907 13.9655 84.6716 13.641 84.6716 13.2084ZM88.3922 14.9004H87.8221V13.5783C87.6442 13.637 87.4714 13.6824 87.3036 13.7148C87.1358 13.7471 86.97 13.7633 86.8063 13.7633C86.6628 13.7633 86.5223 13.7451 86.3848 13.7087C86.2494 13.6703 86.1321 13.6087 86.0331 13.5238C85.934 13.4389 85.8572 13.3307 85.8026 13.1993C85.7501 13.0659 85.7238 12.9092 85.7238 12.7293V11.5134H86.2938V12.4322C86.2938 12.5817 86.2999 12.701 86.312 12.79C86.3242 12.8769 86.3575 12.9618 86.4121 13.0447C86.4586 13.1154 86.5283 13.17 86.6213 13.2084C86.7163 13.2468 86.8407 13.266 86.9943 13.266C87.1277 13.266 87.2702 13.2529 87.4218 13.2266C87.5755 13.2003 87.7089 13.169 87.8221 13.1326V11.5134H88.3922V14.9004ZM91.8913 14.9004H91.3213V13.3752H89.787V14.9004H89.2169V11.5134H89.787V12.884H91.3213V11.5134H91.8913V14.9004ZM95.3905 14.9004H94.8265V12.3745L93.2316 14.9004H92.7161V11.5134H93.2801V13.9998L94.8569 11.5134H95.3905V14.9004ZM98.9413 14.9004H98.2317L97.0704 13.3388H96.7854V14.9004H96.2153V11.5134H96.7854V12.9871C96.9329 12.985 97.0583 12.9547 97.1614 12.8961C97.2665 12.8354 97.3554 12.7192 97.4282 12.5474C97.4504 12.4968 97.4747 12.4382 97.501 12.3715C97.5293 12.3048 97.5515 12.2462 97.5677 12.1956C97.6566 11.947 97.7799 11.7711 97.9376 11.668C98.0953 11.5649 98.3005 11.5134 98.5531 11.5134H98.7078V12.0046H98.5774C98.4177 12.0046 98.2974 12.038 98.2166 12.1047C98.1377 12.1694 98.071 12.2886 98.0164 12.4625C97.9598 12.6383 97.8931 12.7758 97.8163 12.8749C97.7395 12.9719 97.6546 13.0467 97.5616 13.0992L98.9413 14.9004ZM101.2 14.0665V13.1265C101.065 13.1387 100.893 13.1558 100.685 13.1781C100.479 13.1983 100.312 13.2276 100.184 13.266C100.033 13.3125 99.9075 13.3843 99.8085 13.4813C99.7094 13.5763 99.6599 13.7097 99.6599 13.8816C99.6599 14.0756 99.7145 14.2222 99.8236 14.3212C99.9328 14.4203 100.092 14.4698 100.303 14.4698C100.483 14.4698 100.645 14.4314 100.791 14.3546C100.936 14.2758 101.073 14.1797 101.2 14.0665ZM101.2 14.5396C101.154 14.5739 101.091 14.6224 101.012 14.6851C100.935 14.7457 100.861 14.7943 100.788 14.8306C100.687 14.8832 100.589 14.9236 100.494 14.9519C100.401 14.9802 100.269 14.9944 100.1 14.9944C99.9601 14.9944 99.8277 14.9681 99.7024 14.9156C99.577 14.863 99.4668 14.7892 99.3718 14.6942C99.2809 14.6012 99.2081 14.487 99.1535 14.3516C99.0989 14.2141 99.0716 14.0696 99.0716 13.9179C99.0716 13.6835 99.1212 13.4843 99.2202 13.3206C99.3193 13.1548 99.4759 13.0234 99.6902 12.9264C99.8802 12.8395 100.105 12.7799 100.363 12.7475C100.622 12.7131 100.901 12.6879 101.2 12.6717V12.5625C101.2 12.4291 101.18 12.322 101.14 12.2411C101.099 12.1582 101.043 12.0946 100.97 12.0501C100.897 12.0036 100.808 11.9733 100.703 11.9591C100.598 11.943 100.49 11.9349 100.379 11.9349C100.247 11.9349 100.092 11.9551 99.9146 11.9955C99.7367 12.0339 99.5588 12.0905 99.3809 12.1653H99.3476V11.5862C99.4527 11.5558 99.6033 11.5225 99.7994 11.4861C99.9955 11.4497 100.19 11.4315 100.382 11.4315C100.614 11.4315 100.81 11.4497 100.97 11.4861C101.13 11.5225 101.273 11.5882 101.4 11.6832C101.524 11.7762 101.616 11.8965 101.676 12.044C101.737 12.1916 101.767 12.3715 101.767 12.5838V14.9004H101.2V14.5396Z" fill="#606580"/>
<path d="M133.151 28.8506H132.67V25.9648L131.027 28.8506H130.539V25.2153H131.02V28.0547L132.641 25.2153H133.151V28.8506ZM135.99 28.0254C135.99 28.1572 135.965 28.2744 135.915 28.377C135.864 28.4779 135.795 28.5625 135.707 28.6309C135.596 28.7171 135.48 28.7757 135.358 28.8066C135.238 28.8359 135.093 28.8506 134.923 28.8506H133.852V26.1235H134.853C135.053 26.1235 135.199 26.13 135.292 26.1431C135.385 26.1545 135.477 26.1854 135.568 26.2358C135.664 26.2879 135.735 26.3571 135.78 26.4434C135.826 26.5296 135.849 26.6322 135.849 26.751C135.849 26.8812 135.813 26.9984 135.741 27.1025C135.67 27.2051 135.574 27.2848 135.456 27.3418L135.468 27.3589C135.616 27.3963 135.74 27.472 135.839 27.5859C135.94 27.6999 135.99 27.8464 135.99 28.0254ZM135.378 26.8218C135.378 26.7599 135.367 26.7062 135.346 26.6606C135.326 26.6151 135.291 26.5793 135.241 26.5532C135.182 26.5223 135.116 26.5044 135.043 26.4995C134.971 26.493 134.871 26.4897 134.743 26.4897H134.306V27.2368H134.833C134.945 27.2368 135.025 27.2319 135.072 27.2222C135.12 27.2108 135.172 27.188 135.229 27.1538C135.282 27.1213 135.321 27.0773 135.343 27.022C135.366 26.9666 135.378 26.8999 135.378 26.8218ZM135.517 28.0278C135.517 27.9351 135.503 27.861 135.475 27.8057C135.449 27.7487 135.391 27.6982 135.299 27.6543C135.242 27.6266 135.181 27.6095 135.116 27.603C135.051 27.5965 134.961 27.5933 134.845 27.5933H134.306V28.4844H134.704C134.868 28.4844 134.996 28.4779 135.087 28.4648C135.178 28.4518 135.256 28.4258 135.321 28.3867C135.39 28.3444 135.439 28.2956 135.47 28.2402C135.501 28.1849 135.517 28.1141 135.517 28.0278ZM137.997 28.1792V27.4224C137.888 27.4321 137.75 27.446 137.582 27.4639C137.416 27.4801 137.282 27.5037 137.179 27.5347C137.057 27.5721 136.956 27.6299 136.877 27.708C136.797 27.7845 136.757 27.8919 136.757 28.0303C136.757 28.1865 136.801 28.3045 136.889 28.3843C136.977 28.464 137.105 28.5039 137.274 28.5039C137.419 28.5039 137.55 28.473 137.668 28.4111C137.785 28.3477 137.895 28.2703 137.997 28.1792ZM137.997 28.5601C137.96 28.5877 137.909 28.6268 137.846 28.6772C137.784 28.7261 137.724 28.7651 137.665 28.7944C137.584 28.8368 137.505 28.8693 137.428 28.8921C137.353 28.9149 137.248 28.9263 137.111 28.9263C136.999 28.9263 136.892 28.9051 136.791 28.8628C136.69 28.8205 136.601 28.7611 136.525 28.6846C136.452 28.6097 136.393 28.5177 136.349 28.4087C136.305 28.298 136.283 28.1816 136.283 28.0596C136.283 27.8708 136.323 27.7104 136.403 27.5786C136.483 27.4451 136.609 27.3394 136.781 27.2612C136.934 27.1912 137.115 27.1432 137.323 27.1172C137.532 27.0895 137.756 27.0692 137.997 27.0562V26.9683C137.997 26.8608 137.981 26.7746 137.948 26.7095C137.916 26.6427 137.87 26.5915 137.812 26.5557C137.753 26.5182 137.681 26.4938 137.597 26.4824C137.512 26.4694 137.425 26.4629 137.336 26.4629C137.23 26.4629 137.105 26.4792 136.962 26.5117C136.819 26.5426 136.676 26.5882 136.532 26.6484H136.505V26.1821C136.59 26.1577 136.711 26.1309 136.869 26.1016C137.027 26.0723 137.183 26.0576 137.338 26.0576C137.525 26.0576 137.683 26.0723 137.812 26.1016C137.94 26.1309 138.056 26.1838 138.158 26.2603C138.258 26.3351 138.332 26.432 138.38 26.5508C138.429 26.6696 138.454 26.8145 138.454 26.9854V28.8506H137.997V28.5601ZM141.254 28.8506H140.795V27.6226H139.56V28.8506H139.101V26.1235H139.56V27.2271H140.795V26.1235H141.254V28.8506ZM144.162 27.4883C144.162 27.9473 144.051 28.3021 143.83 28.5527C143.608 28.8018 143.314 28.9263 142.946 28.9263C142.567 28.9263 142.268 28.7977 142.05 28.5405C141.833 28.2817 141.725 27.931 141.725 27.4883C141.725 27.0326 141.837 26.6785 142.06 26.4263C142.284 26.174 142.58 26.0479 142.946 26.0479C143.314 26.0479 143.608 26.174 143.83 26.4263C144.051 26.6769 144.162 27.0309 144.162 27.4883ZM143.688 27.4883C143.688 27.1351 143.624 26.873 143.495 26.7021C143.367 26.5296 143.184 26.4434 142.946 26.4434C142.707 26.4434 142.522 26.5296 142.392 26.7021C142.263 26.873 142.199 27.1351 142.199 27.4883C142.199 27.8301 142.263 28.0897 142.392 28.2671C142.522 28.4429 142.707 28.5308 142.946 28.5308C143.182 28.5308 143.364 28.4445 143.493 28.272C143.623 28.0978 143.688 27.8366 143.688 27.4883ZM146.772 28.0254C146.772 28.1572 146.746 28.2744 146.696 28.377C146.645 28.4779 146.576 28.5625 146.488 28.6309C146.378 28.7171 146.261 28.7757 146.139 28.8066C146.019 28.8359 145.874 28.8506 145.705 28.8506H144.633V26.1235H145.634C145.834 26.1235 145.981 26.13 146.073 26.1431C146.166 26.1545 146.258 26.1854 146.349 26.2358C146.445 26.2879 146.516 26.3571 146.562 26.4434C146.607 26.5296 146.63 26.6322 146.63 26.751C146.63 26.8812 146.594 26.9984 146.523 27.1025C146.451 27.2051 146.356 27.2848 146.237 27.3418L146.249 27.3589C146.397 27.3963 146.521 27.472 146.62 27.5859C146.721 27.6999 146.772 27.8464 146.772 28.0254ZM146.159 26.8218C146.159 26.7599 146.148 26.7062 146.127 26.6606C146.107 26.6151 146.073 26.5793 146.022 26.5532C145.963 26.5223 145.898 26.5044 145.824 26.4995C145.753 26.493 145.653 26.4897 145.524 26.4897H145.087V27.2368H145.614C145.727 27.2368 145.806 27.2319 145.854 27.2222C145.901 27.2108 145.953 27.188 146.01 27.1538C146.064 27.1213 146.102 27.0773 146.125 27.022C146.147 26.9666 146.159 26.8999 146.159 26.8218ZM146.298 28.0278C146.298 27.9351 146.284 27.861 146.256 27.8057C146.23 27.7487 146.172 27.6982 146.081 27.6543C146.024 27.6266 145.963 27.6095 145.898 27.603C145.832 27.5965 145.742 27.5933 145.627 27.5933H145.087V28.4844H145.485C145.649 28.4844 145.777 28.4779 145.868 28.4648C145.959 28.4518 146.038 28.4258 146.103 28.3867C146.171 28.3444 146.221 28.2956 146.252 28.2402C146.282 28.1849 146.298 28.1141 146.298 28.0278ZM151.466 28.8506H150.985V25.9648L149.342 28.8506H148.854V25.2153H149.335V28.0547L150.956 25.2153H151.466V28.8506ZM154.306 28.0254C154.306 28.1572 154.281 28.2744 154.23 28.377C154.18 28.4779 154.11 28.5625 154.023 28.6309C153.912 28.7171 153.795 28.7757 153.673 28.8066C153.553 28.8359 153.408 28.8506 153.239 28.8506H152.167V26.1235H153.168C153.368 26.1235 153.515 26.13 153.607 26.1431C153.7 26.1545 153.792 26.1854 153.883 26.2358C153.979 26.2879 154.05 26.3571 154.096 26.4434C154.141 26.5296 154.164 26.6322 154.164 26.751C154.164 26.8812 154.128 26.9984 154.057 27.1025C153.985 27.2051 153.89 27.2848 153.771 27.3418L153.783 27.3589C153.931 27.3963 154.055 27.472 154.154 27.5859C154.255 27.6999 154.306 27.8464 154.306 28.0254ZM153.693 26.8218C153.693 26.7599 153.682 26.7062 153.661 26.6606C153.642 26.6151 153.607 26.5793 153.556 26.5532C153.498 26.5223 153.432 26.5044 153.358 26.4995C153.287 26.493 153.187 26.4897 153.058 26.4897H152.621V27.2368H153.149C153.261 27.2368 153.341 27.2319 153.388 27.2222C153.435 27.2108 153.487 27.188 153.544 27.1538C153.598 27.1213 153.636 27.0773 153.659 27.022C153.682 26.9666 153.693 26.8999 153.693 26.8218ZM153.832 28.0278C153.832 27.9351 153.818 27.861 153.791 27.8057C153.765 27.7487 153.706 27.6982 153.615 27.6543C153.558 27.6266 153.497 27.6095 153.432 27.603C153.367 27.5965 153.276 27.5933 153.161 27.5933H152.621V28.4844H153.019C153.184 28.4844 153.311 28.4779 153.402 28.4648C153.494 28.4518 153.572 28.4258 153.637 28.3867C153.705 28.3444 153.755 28.2956 153.786 28.2402C153.817 28.1849 153.832 28.1141 153.832 28.0278ZM156.313 28.1792V27.4224C156.204 27.4321 156.065 27.446 155.898 27.4639C155.732 27.4801 155.597 27.5037 155.495 27.5347C155.373 27.5721 155.272 27.6299 155.192 27.708C155.112 27.7845 155.072 27.8919 155.072 28.0303C155.072 28.1865 155.116 28.3045 155.204 28.3843C155.292 28.464 155.421 28.5039 155.59 28.5039C155.735 28.5039 155.866 28.473 155.983 28.4111C156.1 28.3477 156.21 28.2703 156.313 28.1792ZM156.313 28.5601C156.275 28.5877 156.225 28.6268 156.161 28.6772C156.099 28.7261 156.039 28.7651 155.981 28.7944C155.899 28.8368 155.82 28.8693 155.744 28.8921C155.669 28.9149 155.563 28.9263 155.426 28.9263C155.314 28.9263 155.207 28.9051 155.107 28.8628C155.006 28.8205 154.917 28.7611 154.84 28.6846C154.767 28.6097 154.709 28.5177 154.665 28.4087C154.621 28.298 154.599 28.1816 154.599 28.0596C154.599 27.8708 154.639 27.7104 154.718 27.5786C154.798 27.4451 154.924 27.3394 155.097 27.2612C155.25 27.1912 155.43 27.1432 155.639 27.1172C155.847 27.0895 156.072 27.0692 156.313 27.0562V26.9683C156.313 26.8608 156.296 26.7746 156.264 26.7095C156.231 26.6427 156.186 26.5915 156.127 26.5557C156.068 26.5182 155.997 26.4938 155.912 26.4824C155.828 26.4694 155.74 26.4629 155.651 26.4629C155.545 26.4629 155.421 26.4792 155.277 26.5117C155.134 26.5426 154.991 26.5882 154.848 26.6484H154.821V26.1821C154.906 26.1577 155.027 26.1309 155.185 26.1016C155.343 26.0723 155.499 26.0576 155.653 26.0576C155.841 26.0576 155.998 26.0723 156.127 26.1016C156.256 26.1309 156.371 26.1838 156.474 26.2603C156.573 26.3351 156.647 26.432 156.696 26.5508C156.745 26.6696 156.769 26.8145 156.769 26.9854V28.8506H156.313V28.5601ZM159.569 28.8506H159.11V27.6226H157.875V28.8506H157.416V26.1235H157.875V27.2271H159.11V26.1235H159.569V28.8506ZM164.445 28.8506H163.964V25.9648L162.321 28.8506H161.833V25.2153H162.314V28.0547L163.935 25.2153H164.445V28.8506ZM167.284 28.0254C167.284 28.1572 167.259 28.2744 167.209 28.377C167.158 28.4779 167.089 28.5625 167.001 28.6309C166.89 28.7171 166.774 28.7757 166.652 28.8066C166.531 28.8359 166.387 28.8506 166.217 28.8506H165.146V26.1235H166.147C166.347 26.1235 166.493 26.13 166.586 26.1431C166.679 26.1545 166.771 26.1854 166.862 26.2358C166.958 26.2879 167.029 26.3571 167.074 26.4434C167.12 26.5296 167.143 26.6322 167.143 26.751C167.143 26.8812 167.107 26.9984 167.035 27.1025C166.964 27.2051 166.868 27.2848 166.75 27.3418L166.762 27.3589C166.91 27.3963 167.034 27.472 167.133 27.5859C167.234 27.6999 167.284 27.8464 167.284 28.0254ZM166.671 26.8218C166.671 26.7599 166.661 26.7062 166.64 26.6606C166.62 26.6151 166.585 26.5793 166.535 26.5532C166.476 26.5223 166.41 26.5044 166.337 26.4995C166.265 26.493 166.165 26.4897 166.037 26.4897H165.6V27.2368H166.127C166.239 27.2368 166.319 27.2319 166.366 27.2222C166.413 27.2108 166.466 27.188 166.523 27.1538C166.576 27.1213 166.614 27.0773 166.637 27.022C166.66 26.9666 166.671 26.8999 166.671 26.8218ZM166.811 28.0278C166.811 27.9351 166.797 27.861 166.769 27.8057C166.743 27.7487 166.684 27.6982 166.593 27.6543C166.536 27.6266 166.475 27.6095 166.41 27.603C166.345 27.5965 166.255 27.5933 166.139 27.5933H165.6V28.4844H165.998C166.162 28.4844 166.29 28.4779 166.381 28.4648C166.472 28.4518 166.55 28.4258 166.615 28.3867C166.684 28.3444 166.733 28.2956 166.764 28.2402C166.795 28.1849 166.811 28.1141 166.811 28.0278ZM169.291 28.1792V27.4224C169.182 27.4321 169.044 27.446 168.876 27.4639C168.71 27.4801 168.576 27.5037 168.473 27.5347C168.351 27.5721 168.25 27.6299 168.17 27.708C168.091 27.7845 168.051 27.8919 168.051 28.0303C168.051 28.1865 168.095 28.3045 168.183 28.3843C168.271 28.464 168.399 28.5039 168.568 28.5039C168.713 28.5039 168.844 28.473 168.962 28.4111C169.079 28.3477 169.189 28.2703 169.291 28.1792ZM169.291 28.5601C169.254 28.5877 169.203 28.6268 169.14 28.6772C169.078 28.7261 169.018 28.7651 168.959 28.7944C168.878 28.8368 168.799 28.8693 168.722 28.8921C168.647 28.9149 168.542 28.9263 168.405 28.9263C168.293 28.9263 168.186 28.9051 168.085 28.8628C167.984 28.8205 167.895 28.7611 167.819 28.6846C167.746 28.6097 167.687 28.5177 167.643 28.4087C167.599 28.298 167.577 28.1816 167.577 28.0596C167.577 27.8708 167.617 27.7104 167.697 27.5786C167.777 27.4451 167.903 27.3394 168.075 27.2612C168.228 27.1912 168.409 27.1432 168.617 27.1172C168.826 27.0895 169.05 27.0692 169.291 27.0562V26.9683C169.291 26.8608 169.275 26.7746 169.242 26.7095C169.21 26.6427 169.164 26.5915 169.106 26.5557C169.047 26.5182 168.975 26.4938 168.891 26.4824C168.806 26.4694 168.719 26.4629 168.629 26.4629C168.524 26.4629 168.399 26.4792 168.256 26.5117C168.113 26.5426 167.969 26.5882 167.826 26.6484H167.799V26.1821C167.884 26.1577 168.005 26.1309 168.163 26.1016C168.321 26.0723 168.477 26.0576 168.632 26.0576C168.819 26.0576 168.977 26.0723 169.106 26.1016C169.234 26.1309 169.35 26.1838 169.452 26.2603C169.552 26.3351 169.626 26.432 169.674 26.5508C169.723 26.6696 169.748 26.8145 169.748 26.9854V28.8506H169.291V28.5601ZM172.548 28.8506H172.089V27.6226H170.854V28.8506H170.395V26.1235H170.854V27.2271H172.089V26.1235H172.548V28.8506ZM175.456 27.4883C175.456 27.9473 175.345 28.3021 175.124 28.5527C174.902 28.8018 174.608 28.9263 174.24 28.9263C173.861 28.9263 173.562 28.7977 173.344 28.5405C173.127 28.2817 173.019 27.931 173.019 27.4883C173.019 27.0326 173.131 26.6785 173.354 26.4263C173.578 26.174 173.874 26.0479 174.24 26.0479C174.608 26.0479 174.902 26.174 175.124 26.4263C175.345 26.6769 175.456 27.0309 175.456 27.4883ZM174.982 27.4883C174.982 27.1351 174.918 26.873 174.789 26.7021C174.661 26.5296 174.477 26.4434 174.24 26.4434C174.001 26.4434 173.816 26.5296 173.686 26.7021C173.557 26.873 173.493 27.1351 173.493 27.4883C173.493 27.8301 173.557 28.0897 173.686 28.2671C173.816 28.4429 174.001 28.5308 174.24 28.5308C174.476 28.5308 174.658 28.4445 174.787 28.272C174.917 28.0978 174.982 27.8366 174.982 27.4883ZM178.066 28.0254C178.066 28.1572 178.04 28.2744 177.99 28.377C177.939 28.4779 177.87 28.5625 177.782 28.6309C177.672 28.7171 177.555 28.7757 177.433 28.8066C177.313 28.8359 177.168 28.8506 176.999 28.8506H175.927V26.1235H176.928C177.128 26.1235 177.274 26.13 177.367 26.1431C177.46 26.1545 177.552 26.1854 177.643 26.2358C177.739 26.2879 177.81 26.3571 177.856 26.4434C177.901 26.5296 177.924 26.6322 177.924 26.751C177.924 26.8812 177.888 26.9984 177.816 27.1025C177.745 27.2051 177.65 27.2848 177.531 27.3418L177.543 27.3589C177.691 27.3963 177.815 27.472 177.914 27.5859C178.015 27.6999 178.066 27.8464 178.066 28.0254ZM177.453 26.8218C177.453 26.7599 177.442 26.7062 177.421 26.6606C177.401 26.6151 177.366 26.5793 177.316 26.5532C177.257 26.5223 177.191 26.5044 177.118 26.4995C177.047 26.493 176.947 26.4897 176.818 26.4897H176.381V27.2368H176.908C177.021 27.2368 177.1 27.2319 177.148 27.2222C177.195 27.2108 177.247 27.188 177.304 27.1538C177.357 27.1213 177.396 27.0773 177.419 27.022C177.441 26.9666 177.453 26.8999 177.453 26.8218ZM177.592 28.0278C177.592 27.9351 177.578 27.861 177.55 27.8057C177.524 27.7487 177.466 27.6982 177.375 27.6543C177.318 27.6266 177.257 27.6095 177.191 27.603C177.126 27.5965 177.036 27.5933 176.92 27.5933H176.381V28.4844H176.779C176.943 28.4844 177.071 28.4779 177.162 28.4648C177.253 28.4518 177.331 28.4258 177.397 28.3867C177.465 28.3444 177.515 28.2956 177.545 28.2402C177.576 28.1849 177.592 28.1141 177.592 28.0278ZM180.702 28.8506H180.248V26.8169L178.964 28.8506H178.549V26.1235H179.003V28.1255L180.273 26.1235H180.702V28.8506ZM183.417 28.8506H182.958V27.7861C182.815 27.8333 182.676 27.87 182.541 27.896C182.406 27.922 182.272 27.9351 182.14 27.9351C182.025 27.9351 181.912 27.9204 181.801 27.8911C181.692 27.8602 181.597 27.8105 181.518 27.7422C181.438 27.6738 181.376 27.5868 181.332 27.481C181.29 27.3735 181.269 27.2474 181.269 27.1025V26.1235H181.728V26.8633C181.728 26.9837 181.732 27.0798 181.742 27.1514C181.752 27.2214 181.779 27.2897 181.823 27.3564C181.86 27.4134 181.916 27.4574 181.991 27.4883C182.068 27.5192 182.168 27.5347 182.292 27.5347C182.399 27.5347 182.514 27.5241 182.636 27.5029C182.76 27.4818 182.867 27.4565 182.958 27.4272V26.1235H183.417V28.8506Z" fill="#303549"/>
<path d="M115.75 32.75L8.24995 32.75V22.25L115.75 22.25V32.75Z" fill="#0089FF" fill-opacity="0.2" stroke="#0089FF" stroke-width="0.5"/>
<path d="M123.25 34.25L223.75 34.25V46.75L123.25 46.75V34.25Z" fill="#0089FF" fill-opacity="0.2" stroke="#0089FF" stroke-width="0.5"/>
<path d="M133.178 41.7002H132.694V38.4946H131.022V41.7002H130.539V38.0649H133.178V41.7002ZM135.065 41.7637C134.63 41.7637 134.293 41.6416 134.052 41.3975C133.813 41.1517 133.693 40.8034 133.693 40.3525C133.693 39.9082 133.809 39.555 134.042 39.293C134.275 39.0293 134.579 38.8975 134.955 38.8975C135.124 38.8975 135.274 38.9219 135.404 38.9707C135.535 39.0195 135.649 39.096 135.746 39.2002C135.844 39.3044 135.919 39.4321 135.971 39.5835C136.023 39.7332 136.049 39.9172 136.049 40.1353V40.3843H134.159C134.159 40.7017 134.239 40.9442 134.399 41.1118C134.558 41.2795 134.779 41.3633 135.06 41.3633C135.161 41.3633 135.26 41.3519 135.356 41.3291C135.453 41.3063 135.541 41.277 135.619 41.2412C135.702 41.2038 135.772 41.168 135.829 41.1338C135.886 41.098 135.933 41.0646 135.971 41.0337H135.998V41.5342C135.944 41.5553 135.877 41.5822 135.797 41.6147C135.718 41.6457 135.646 41.6701 135.583 41.688C135.493 41.7124 135.412 41.7311 135.338 41.7441C135.267 41.7572 135.176 41.7637 135.065 41.7637ZM135.602 40.0327C135.599 39.909 135.584 39.8024 135.558 39.7129C135.532 39.6234 135.495 39.5477 135.446 39.4858C135.392 39.4175 135.323 39.3654 135.238 39.3296C135.155 39.2938 135.052 39.2759 134.928 39.2759C134.806 39.2759 134.702 39.2946 134.616 39.332C134.531 39.3678 134.454 39.4207 134.384 39.4907C134.316 39.5623 134.263 39.6421 134.228 39.73C134.192 39.8162 134.169 39.9172 134.159 40.0327H135.602ZM138.505 39.376H137.577V41.7002H137.118V39.376H136.191V38.9731H138.505V39.376ZM141.134 40.2646C141.134 40.7188 141.025 41.0809 140.807 41.3511C140.591 41.6196 140.316 41.7539 139.984 41.7539C139.849 41.7539 139.73 41.7384 139.626 41.7075C139.521 41.6766 139.415 41.6286 139.306 41.5635V42.7061H138.847V38.9731H139.306V39.2588C139.42 39.1562 139.546 39.0708 139.684 39.0024C139.824 38.9325 139.976 38.8975 140.141 38.8975C140.453 38.8975 140.697 39.0212 140.871 39.2686C141.046 39.516 141.134 39.848 141.134 40.2646ZM140.661 40.3159C140.661 40.005 140.611 39.7642 140.512 39.5933C140.413 39.4207 140.251 39.3345 140.028 39.3345C139.898 39.3345 139.772 39.3638 139.65 39.4224C139.53 39.4793 139.415 39.5534 139.306 39.6445V41.1899C139.426 41.2485 139.529 41.2884 139.613 41.3096C139.7 41.3307 139.798 41.3413 139.909 41.3413C140.146 41.3413 140.331 41.2542 140.463 41.0801C140.595 40.9059 140.661 40.6512 140.661 40.3159ZM143.854 40.3379C143.854 40.7969 143.743 41.1517 143.522 41.4023C143.301 41.6514 143.006 41.7759 142.638 41.7759C142.259 41.7759 141.96 41.6473 141.742 41.3901C141.526 41.1313 141.418 40.7806 141.418 40.3379C141.418 39.8822 141.529 39.5282 141.752 39.2759C141.977 39.0236 142.272 38.8975 142.638 38.8975C143.006 38.8975 143.301 39.0236 143.522 39.2759C143.743 39.5265 143.854 39.8805 143.854 40.3379ZM143.38 40.3379C143.38 39.9847 143.316 39.7227 143.188 39.5518C143.059 39.3792 142.876 39.293 142.638 39.293C142.399 39.293 142.214 39.3792 142.084 39.5518C141.955 39.7227 141.891 39.9847 141.891 40.3379C141.891 40.6797 141.955 40.9393 142.084 41.1167C142.214 41.2925 142.399 41.3804 142.638 41.3804C142.874 41.3804 143.057 41.2941 143.185 41.1216C143.315 40.9474 143.38 40.6862 143.38 40.3379ZM146.464 40.875C146.464 41.0068 146.439 41.124 146.388 41.2266C146.338 41.3275 146.269 41.4121 146.181 41.4805C146.07 41.5667 145.954 41.6253 145.832 41.6562C145.711 41.6855 145.566 41.7002 145.397 41.7002H144.325V38.9731H145.326C145.526 38.9731 145.673 38.9797 145.766 38.9927C145.858 39.0041 145.95 39.035 146.042 39.0854C146.138 39.1375 146.208 39.2067 146.254 39.293C146.3 39.3792 146.322 39.4818 146.322 39.6006C146.322 39.7308 146.287 39.848 146.215 39.9521C146.143 40.0547 146.048 40.1344 145.929 40.1914L145.941 40.2085C146.09 40.2459 146.213 40.3216 146.313 40.4355C146.413 40.5495 146.464 40.696 146.464 40.875ZM145.851 39.6714C145.851 39.6095 145.841 39.5558 145.819 39.5103C145.8 39.4647 145.765 39.4289 145.714 39.4028C145.656 39.3719 145.59 39.354 145.517 39.3491C145.445 39.3426 145.345 39.3394 145.216 39.3394H144.779V40.0864H145.307C145.419 40.0864 145.499 40.0815 145.546 40.0718C145.593 40.0604 145.645 40.0376 145.702 40.0034C145.756 39.9709 145.794 39.9269 145.817 39.8716C145.84 39.8162 145.851 39.7495 145.851 39.6714ZM145.99 40.8774C145.99 40.7847 145.976 40.7106 145.949 40.6553C145.923 40.5983 145.864 40.5479 145.773 40.5039C145.716 40.4762 145.655 40.4591 145.59 40.4526C145.525 40.4461 145.434 40.4429 145.319 40.4429H144.779V41.334H145.177C145.342 41.334 145.469 41.3275 145.561 41.3145C145.652 41.3014 145.73 41.2754 145.795 41.2363C145.863 41.194 145.913 41.1452 145.944 41.0898C145.975 41.0345 145.99 40.9637 145.99 40.8774ZM151.498 42.5229H151.039V41.6904H148.681V42.5229H148.222V41.2705H148.42C148.631 40.9238 148.801 40.4697 148.93 39.9082C149.06 39.3451 149.125 38.7306 149.125 38.0649H151.154V41.2705H151.498V42.5229ZM150.67 41.2705V38.4849H149.579C149.556 39.0724 149.483 39.6055 149.359 40.084C149.236 40.5625 149.078 40.958 148.886 41.2705H150.67ZM154.457 41.7002H154.003V39.5566L153.349 40.9482H153.007L152.357 39.5566V41.7002H151.928V38.9731H152.482L153.2 40.4868L153.893 38.9731H154.457V41.7002ZM157.274 41.7002H156.82V39.6665L155.536 41.7002H155.121V38.9731H155.575V40.9751L156.845 38.9731H157.274V41.7002ZM159.931 39.376H159.003V41.7002H158.544V39.376H157.616V38.9731H159.931V39.376ZM162.56 40.2646C162.56 40.7188 162.451 41.0809 162.233 41.3511C162.017 41.6196 161.742 41.7539 161.41 41.7539C161.275 41.7539 161.156 41.7384 161.051 41.7075C160.947 41.6766 160.841 41.6286 160.732 41.5635V42.7061H160.273V38.9731H160.732V39.2588C160.845 39.1562 160.972 39.0708 161.11 39.0024C161.25 38.9325 161.402 38.8975 161.566 38.8975C161.879 38.8975 162.122 39.0212 162.296 39.2686C162.472 39.516 162.56 39.848 162.56 40.2646ZM162.087 40.3159C162.087 40.005 162.037 39.7642 161.938 39.5933C161.838 39.4207 161.677 39.3345 161.454 39.3345C161.324 39.3345 161.198 39.3638 161.076 39.4224C160.955 39.4793 160.841 39.5534 160.732 39.6445V41.1899C160.852 41.2485 160.955 41.2884 161.039 41.3096C161.125 41.3307 161.224 41.3413 161.335 41.3413C161.572 41.3413 161.757 41.2542 161.889 41.0801C162.021 40.9059 162.087 40.6512 162.087 40.3159ZM165.19 41.7002H164.735V39.6665L163.451 41.7002H163.036V38.9731H163.49V40.9751L164.76 38.9731H165.19V41.7002ZM168.007 41.7002H167.553V39.6665L166.269 41.7002H165.854V38.9731H166.308V40.9751L167.577 38.9731H168.007V41.7002ZM167.802 37.7061C167.802 37.846 167.785 37.9738 167.751 38.0894C167.716 38.2033 167.668 38.2993 167.604 38.3774C167.531 38.4637 167.448 38.5288 167.355 38.5728C167.262 38.6151 167.143 38.6362 166.999 38.6362C166.865 38.6362 166.748 38.6143 166.647 38.5703C166.548 38.5247 166.464 38.4604 166.396 38.3774C166.329 38.2961 166.278 38.1984 166.244 38.0845C166.21 37.9705 166.193 37.8444 166.193 37.7061H166.588C166.588 37.9258 166.623 38.0845 166.691 38.1821C166.759 38.2782 166.862 38.3262 166.999 38.3262C167.127 38.3262 167.227 38.279 167.299 38.1846C167.371 38.0885 167.406 37.929 167.406 37.7061H167.802ZM172.958 41.7002H172.343L171.059 40.0352H170.753V41.7002H170.27V38.0649H170.753V39.7031C170.944 39.6966 171.094 39.6486 171.205 39.5591C171.317 39.4696 171.409 39.341 171.479 39.1733C171.508 39.1001 171.534 39.0309 171.557 38.9658C171.581 38.8991 171.601 38.8429 171.615 38.7974C171.713 38.519 171.837 38.3278 171.989 38.2236C172.14 38.1178 172.35 38.0649 172.619 38.0649H172.768V38.4971H172.646C172.447 38.4971 172.308 38.5361 172.228 38.6143C172.148 38.6908 172.075 38.8364 172.008 39.0513C171.942 39.2661 171.867 39.424 171.784 39.5249C171.701 39.6242 171.601 39.7121 171.483 39.7886L172.958 41.7002ZM174.77 41.0288V40.272C174.661 40.2817 174.522 40.2956 174.355 40.3135C174.189 40.3298 174.054 40.3534 173.952 40.3843C173.83 40.4217 173.729 40.4795 173.649 40.5576C173.569 40.6341 173.529 40.7415 173.529 40.8799C173.529 41.0361 173.573 41.1541 173.661 41.2339C173.749 41.3136 173.878 41.3535 174.047 41.3535C174.192 41.3535 174.323 41.3226 174.44 41.2607C174.557 41.1973 174.667 41.12 174.77 41.0288ZM174.77 41.4097C174.732 41.4373 174.682 41.4764 174.618 41.5269C174.556 41.5757 174.496 41.6147 174.438 41.644C174.356 41.6864 174.277 41.7189 174.201 41.7417C174.126 41.7645 174.02 41.7759 173.883 41.7759C173.771 41.7759 173.664 41.7547 173.564 41.7124C173.463 41.6701 173.374 41.6107 173.297 41.5342C173.224 41.4593 173.166 41.3674 173.122 41.2583C173.078 41.1476 173.056 41.0312 173.056 40.9092C173.056 40.7204 173.096 40.5601 173.175 40.4282C173.255 40.2948 173.381 40.189 173.554 40.1108C173.707 40.0409 173.887 39.9928 174.096 39.9668C174.304 39.9391 174.529 39.9188 174.77 39.9058V39.8179C174.77 39.7104 174.753 39.6242 174.721 39.5591C174.688 39.4924 174.643 39.4411 174.584 39.4053C174.525 39.3678 174.454 39.3434 174.369 39.332C174.285 39.319 174.198 39.3125 174.108 39.3125C174.002 39.3125 173.878 39.3288 173.734 39.3613C173.591 39.3923 173.448 39.4378 173.305 39.498H173.278V39.0317C173.363 39.0073 173.484 38.9805 173.642 38.9512C173.8 38.9219 173.956 38.9072 174.11 38.9072C174.298 38.9072 174.455 38.9219 174.584 38.9512C174.713 38.9805 174.828 39.0334 174.931 39.1099C175.03 39.1847 175.104 39.2816 175.153 39.4004C175.202 39.5192 175.226 39.6641 175.226 39.835V41.7002H174.77V41.4097ZM178.161 40.2646C178.161 40.7188 178.052 41.0809 177.834 41.3511C177.617 41.6196 177.343 41.7539 177.011 41.7539C176.876 41.7539 176.756 41.7384 176.652 41.7075C176.548 41.6766 176.441 41.6286 176.332 41.5635V42.7061H175.873V38.9731H176.332V39.2588C176.446 39.1562 176.572 39.0708 176.711 39.0024C176.85 38.9325 177.003 38.8975 177.167 38.8975C177.48 38.8975 177.723 39.0212 177.897 39.2686C178.073 39.516 178.161 39.848 178.161 40.2646ZM177.687 40.3159C177.687 40.005 177.637 39.7642 177.538 39.5933C177.439 39.4207 177.278 39.3345 177.055 39.3345C176.925 39.3345 176.798 39.3638 176.676 39.4224C176.556 39.4793 176.441 39.5534 176.332 39.6445V41.1899C176.453 41.2485 176.555 41.2884 176.64 41.3096C176.726 41.3307 176.824 41.3413 176.935 41.3413C177.173 41.3413 177.357 41.2542 177.489 41.0801C177.621 40.9059 177.687 40.6512 177.687 40.3159ZM180.749 41.7002H180.29V39.3589H179.352C179.347 39.494 179.342 39.6242 179.337 39.7495C179.333 39.8732 179.328 39.9855 179.323 40.0864C179.313 40.342 179.296 40.556 179.272 40.7285C179.249 40.901 179.219 41.0394 179.184 41.1436C179.148 41.251 179.108 41.3348 179.064 41.395C179.022 41.4552 178.974 41.5098 178.92 41.5586C178.865 41.6074 178.805 41.644 178.742 41.6685C178.678 41.6929 178.607 41.7051 178.527 41.7051C178.501 41.7051 178.468 41.7043 178.427 41.7026C178.386 41.701 178.358 41.7002 178.341 41.7002V41.2998H178.366C178.377 41.2998 178.389 41.3006 178.4 41.3022C178.413 41.3039 178.428 41.3047 178.444 41.3047C178.483 41.3047 178.521 41.299 178.559 41.2876C178.596 41.2762 178.629 41.255 178.659 41.2241C178.74 41.1444 178.8 41.0052 178.837 40.8066C178.874 40.6064 178.901 40.3273 178.918 39.9692C178.924 39.8358 178.93 39.6779 178.935 39.4956C178.941 39.3133 178.947 39.1392 178.952 38.9731H180.749V41.7002ZM183.659 40.3379C183.659 40.7969 183.548 41.1517 183.327 41.4023C183.105 41.6514 182.811 41.7759 182.443 41.7759C182.064 41.7759 181.765 41.6473 181.547 41.3901C181.33 41.1313 181.222 40.7806 181.222 40.3379C181.222 39.8822 181.334 39.5282 181.557 39.2759C181.781 39.0236 182.077 38.8975 182.443 38.8975C182.811 38.8975 183.105 39.0236 183.327 39.2759C183.548 39.5265 183.659 39.8805 183.659 40.3379ZM183.185 40.3379C183.185 39.9847 183.121 39.7227 182.992 39.5518C182.864 39.3792 182.681 39.293 182.443 39.293C182.204 39.293 182.019 39.3792 181.889 39.5518C181.76 39.7227 181.696 39.9847 181.696 40.3379C181.696 40.6797 181.76 40.9393 181.889 41.1167C182.019 41.2925 182.204 41.3804 182.443 41.3804C182.679 41.3804 182.861 41.2941 182.99 41.1216C183.12 40.9474 183.185 40.6862 183.185 40.3379ZM186.269 40.875C186.269 41.0068 186.243 41.124 186.193 41.2266C186.142 41.3275 186.073 41.4121 185.985 41.4805C185.875 41.5667 185.758 41.6253 185.636 41.6562C185.516 41.6855 185.371 41.7002 185.202 41.7002H184.13V38.9731H185.131C185.331 38.9731 185.478 38.9797 185.57 38.9927C185.663 39.0041 185.755 39.035 185.846 39.0854C185.942 39.1375 186.013 39.2067 186.059 39.293C186.104 39.3792 186.127 39.4818 186.127 39.6006C186.127 39.7308 186.091 39.848 186.02 39.9521C185.948 40.0547 185.853 40.1344 185.734 40.1914L185.746 40.2085C185.894 40.2459 186.018 40.3216 186.117 40.4355C186.218 40.5495 186.269 40.696 186.269 40.875ZM185.656 39.6714C185.656 39.6095 185.645 39.5558 185.624 39.5103C185.605 39.4647 185.57 39.4289 185.519 39.4028C185.461 39.3719 185.395 39.354 185.321 39.3491C185.25 39.3426 185.15 39.3394 185.021 39.3394H184.584V40.0864H185.111C185.224 40.0864 185.303 40.0815 185.351 40.0718C185.398 40.0604 185.45 40.0376 185.507 40.0034C185.561 39.9709 185.599 39.9269 185.622 39.8716C185.644 39.8162 185.656 39.7495 185.656 39.6714ZM185.795 40.8774C185.795 40.7847 185.781 40.7106 185.753 40.6553C185.727 40.5983 185.669 40.5479 185.578 40.5039C185.521 40.4762 185.46 40.4591 185.395 40.4526C185.33 40.4461 185.239 40.4429 185.124 40.4429H184.584V41.334H184.982C185.146 41.334 185.274 41.3275 185.365 41.3145C185.456 41.3014 185.535 41.2754 185.6 41.2363C185.668 41.194 185.718 41.1452 185.749 41.0898C185.78 41.0345 185.795 40.9637 185.795 40.8774ZM188.905 41.7002H188.451V39.6665L187.167 41.7002H186.752V38.9731H187.206V40.9751L188.476 38.9731H188.905V41.7002ZM191.62 41.7002H191.161V40.6357C191.018 40.6829 190.879 40.7196 190.744 40.7456C190.609 40.7716 190.475 40.7847 190.343 40.7847C190.228 40.7847 190.115 40.77 190.004 40.7407C189.895 40.7098 189.801 40.6602 189.721 40.5918C189.641 40.5234 189.579 40.4364 189.535 40.3306C189.493 40.2231 189.472 40.097 189.472 39.9521V38.9731H189.931V39.7129C189.931 39.8333 189.936 39.9294 189.945 40.001C189.955 40.071 189.982 40.1393 190.026 40.2061C190.063 40.263 190.12 40.307 190.194 40.3379C190.271 40.3688 190.371 40.3843 190.495 40.3843C190.602 40.3843 190.717 40.3737 190.839 40.3525C190.963 40.3314 191.07 40.3062 191.161 40.2769V38.9731H191.62V41.7002Z" fill="#303549"/>
<path d="M132.99 14.9998C134.161 14.9998 135.11 14.0506 135.11 12.8798C135.11 11.7089 134.161 10.7598 132.99 10.7598C131.819 10.7598 130.87 11.7089 130.87 12.8798C130.87 14.0506 131.819 14.9998 132.99 14.9998Z" stroke="#0089FF" stroke-width="0.5" stroke-miterlimit="10"/>
<path d="M132.99 14.01C133.614 14.01 134.12 13.5041 134.12 12.88C134.12 12.2559 133.614 11.75 132.99 11.75C132.366 11.75 131.86 12.2559 131.86 12.88C131.86 13.5041 132.366 14.01 132.99 14.01Z" fill="#0089FF"/>
<path d="M173.658 12.5959C173.658 12.8769 173.616 13.1255 173.531 13.3418C173.446 13.5561 173.328 13.737 173.176 13.8846C173.012 14.0463 172.811 14.1716 172.573 14.2606C172.334 14.3475 172.088 14.394 171.833 14.4001V14.9489H171.236V14.4001C170.983 14.392 170.737 14.3465 170.499 14.2636C170.26 14.1807 170.057 14.0564 169.889 13.8907C169.738 13.7431 169.619 13.5601 169.534 13.3418C169.452 13.1235 169.41 12.8749 169.41 12.5959C169.41 12.3331 169.451 12.0976 169.531 11.8894C169.612 11.6792 169.725 11.4982 169.871 11.3466C170.027 11.1849 170.222 11.0575 170.456 10.9646C170.691 10.8716 170.95 10.821 171.236 10.8129V10.3126H171.833V10.8129C172.118 10.819 172.379 10.8696 172.615 10.9646C172.852 11.0575 173.048 11.1839 173.203 11.3436C173.349 11.4932 173.461 11.6721 173.54 11.8803C173.619 12.0885 173.658 12.327 173.658 12.5959ZM173.034 12.5716C173.034 12.3715 173.005 12.1896 172.949 12.0258C172.892 11.8601 172.808 11.7196 172.697 11.6044C172.592 11.4952 172.47 11.4143 172.33 11.3618C172.191 11.3092 172.025 11.2809 171.833 11.2769V13.9452C172.015 13.9412 172.177 13.9119 172.318 13.8573C172.462 13.8007 172.58 13.7259 172.673 13.6329C172.796 13.5116 172.887 13.3641 172.946 13.1902C173.004 13.0164 173.034 12.8102 173.034 12.5716ZM171.236 13.9452V11.2769C171.043 11.2789 170.878 11.3072 170.738 11.3618C170.599 11.4164 170.476 11.4972 170.371 11.6044C170.26 11.7176 170.176 11.8581 170.12 12.0258C170.063 12.1936 170.035 12.3756 170.035 12.5716C170.035 12.8102 170.064 13.0174 170.123 13.1932C170.181 13.3671 170.272 13.5137 170.396 13.6329C170.489 13.7219 170.606 13.7956 170.747 13.8543C170.891 13.9129 171.054 13.9432 171.236 13.9452ZM177.564 14.9004H176.966V11.3163L174.926 14.9004H174.319V10.3854H174.917V13.9119L176.93 10.3854H177.564V14.9004ZM181.672 10.9039C181.844 11.102 181.978 11.3476 182.073 11.6407C182.168 11.9339 182.215 12.2684 182.215 12.6444C182.215 13.0103 182.169 13.3408 182.076 13.636C181.983 13.9311 181.848 14.1787 181.672 14.3788C181.488 14.5891 181.273 14.7447 181.027 14.8458C180.782 14.9449 180.512 14.9944 180.217 14.9944C179.912 14.9944 179.637 14.9428 179.392 14.8397C179.148 14.7367 178.937 14.583 178.762 14.3788C178.588 14.1787 178.454 13.9321 178.361 13.639C178.268 13.3459 178.222 13.0143 178.222 12.6444C178.222 12.2644 178.268 11.9308 178.361 11.6438C178.456 11.3567 178.591 11.1101 178.765 10.9039C178.938 10.7038 179.148 10.5522 179.392 10.4491C179.639 10.344 179.914 10.2914 180.217 10.2914C180.524 10.2914 180.801 10.345 181.048 10.4521C181.294 10.5593 181.503 10.7099 181.672 10.9039ZM181.591 12.6444C181.591 12.3452 181.558 12.0804 181.494 11.85C181.429 11.6195 181.338 11.4285 181.221 11.2769C181.101 11.1212 180.957 11.005 180.787 10.9282C180.619 10.8493 180.43 10.8099 180.22 10.8099C180.002 10.8099 179.811 10.8483 179.647 10.9251C179.485 10.9999 179.342 11.1172 179.216 11.2769C179.097 11.4305 179.005 11.6236 178.94 11.856C178.878 12.0885 178.846 12.3513 178.846 12.6444C178.846 13.2367 178.971 13.6905 179.219 14.0059C179.468 14.3192 179.802 14.4759 180.22 14.4759C180.638 14.4759 180.971 14.3192 181.218 14.0059C181.466 13.6905 181.591 13.2367 181.591 12.6444Z" fill="#303549"/>
<path d="M211.36 41.7797V42.7797H212.36L215.29 39.8497L214.29 38.8497L211.36 41.7797ZM216 39.0897C216.026 39.0663 216.046 39.0377 216.06 39.0059C216.075 38.974 216.082 38.9396 216.082 38.9047C216.082 38.8699 216.075 38.8354 216.06 38.8036C216.046 38.7717 216.026 38.7432 216 38.7197L215.39 38.0997C215.338 38.0519 215.27 38.0254 215.2 38.0254C215.13 38.0254 215.062 38.0519 215.01 38.0997L214.53 38.5797L215.53 39.5797L216 39.0897Z" fill="#303549"/>
<path d="M18.5342 38.3671L17.1948 41.4776C17.1386 41.6083 17.0749 41.7133 17.0038 41.7927C16.9343 41.872 16.8616 41.9316 16.7855 41.9713C16.7094 42.0126 16.6342 42.0399 16.5598 42.0531C16.487 42.0663 16.4134 42.0729 16.339 42.0729C16.2729 42.0729 16.1952 42.0713 16.1059 42.068C16.0166 42.0647 15.9595 42.0622 15.9347 42.0605V41.6017H15.9694C15.9942 41.605 16.0314 41.6091 16.0811 41.6141C16.1323 41.6174 16.1968 41.619 16.2745 41.619C16.3109 41.619 16.3539 41.6174 16.4035 41.6141C16.4531 41.6091 16.4986 41.5967 16.5399 41.5769C16.5879 41.5537 16.6325 41.5231 16.6739 41.4851C16.7169 41.4454 16.7557 41.3834 16.7905 41.299L16.8748 41.1031L15.5775 38.3671H16.1207L17.1229 40.54L18.0282 38.3671H18.5342ZM19.9407 42.1226C19.7505 42.1226 19.576 42.0936 19.4173 42.0357C19.2585 41.9762 19.1221 41.8869 19.008 41.7679C18.8939 41.6488 18.8054 41.4991 18.7426 41.3189C18.6798 41.137 18.6483 40.9237 18.6483 40.6789C18.6483 40.4358 18.6806 40.2258 18.7451 40.0489C18.8112 39.8719 18.8989 39.7231 19.008 39.6024C19.1171 39.4817 19.2527 39.3891 19.4148 39.3246C19.5785 39.2584 19.7538 39.2254 19.9407 39.2254C20.0928 39.2254 20.2391 39.2469 20.3797 39.2899C20.5219 39.3329 20.6484 39.3825 20.7592 39.4387V39.9621H20.7319C20.6989 39.934 20.6559 39.9017 20.6029 39.8653C20.5517 39.829 20.4888 39.7917 20.4144 39.7537C20.3499 39.7206 20.2739 39.6917 20.1862 39.6669C20.0986 39.6421 20.0143 39.6297 19.9332 39.6297C19.6918 39.6297 19.4975 39.7215 19.3503 39.905C19.2048 40.0869 19.132 40.3449 19.132 40.6789C19.132 41.0063 19.2023 41.2618 19.3429 41.4454C19.4851 41.6273 19.6819 41.7182 19.9332 41.7182C20.0854 41.7182 20.2301 41.6868 20.3673 41.624C20.5046 41.5611 20.6261 41.4801 20.7319 41.3809H20.7592V41.9043C20.7129 41.9258 20.655 41.9522 20.5856 41.9837C20.5161 42.0134 20.4533 42.0357 20.3971 42.0506C20.3177 42.0738 20.2466 42.0911 20.1837 42.1027C20.1209 42.1159 20.0399 42.1226 19.9407 42.1226ZM23.2099 39.6991H22.2673V42.0605H21.801V39.6991H20.8584V39.2899H23.2099V39.6991ZM25.105 41.3784V40.6095C24.9942 40.6194 24.8536 40.6335 24.6833 40.6516C24.5146 40.6682 24.3782 40.6922 24.274 40.7236C24.15 40.7616 24.0475 40.8203 23.9665 40.8997C23.8854 40.9774 23.8449 41.0865 23.8449 41.2271C23.8449 41.3859 23.8896 41.5057 23.9789 41.5868C24.0682 41.6678 24.1988 41.7083 24.3708 41.7083C24.518 41.7083 24.6511 41.6769 24.7701 41.6141C24.8892 41.5496 25.0008 41.471 25.105 41.3784ZM25.105 41.7654C25.067 41.7935 25.0157 41.8332 24.9512 41.8844C24.8884 41.934 24.8272 41.9737 24.7677 42.0035C24.685 42.0465 24.6048 42.0796 24.5271 42.1027C24.451 42.1259 24.3435 42.1374 24.2046 42.1374C24.0905 42.1374 23.9822 42.1159 23.8796 42.0729C23.7771 42.03 23.687 41.9696 23.6093 41.8919C23.5349 41.8158 23.4753 41.7224 23.4307 41.6116C23.386 41.4991 23.3637 41.3809 23.3637 41.2569C23.3637 41.0651 23.4042 40.9022 23.4853 40.7682C23.5663 40.6326 23.6944 40.5251 23.8697 40.4458C24.0252 40.3747 24.2087 40.3259 24.4204 40.2994C24.6321 40.2713 24.8603 40.2506 25.105 40.2374V40.1481C25.105 40.039 25.0885 39.9513 25.0554 39.8852C25.0223 39.8174 24.976 39.7653 24.9165 39.7289C24.857 39.6909 24.7842 39.6661 24.6982 39.6545C24.6122 39.6413 24.5237 39.6346 24.4328 39.6346C24.3253 39.6346 24.1988 39.6512 24.0533 39.6843C23.9078 39.7157 23.7622 39.762 23.6167 39.8232H23.5894V39.3494C23.6754 39.3246 23.7986 39.2973 23.959 39.2675C24.1194 39.2378 24.2782 39.2229 24.4353 39.2229C24.6254 39.2229 24.7858 39.2378 24.9165 39.2675C25.0471 39.2973 25.1645 39.351 25.2687 39.4288C25.3696 39.5048 25.4448 39.6032 25.4944 39.7239C25.544 39.8447 25.5688 39.9918 25.5688 40.1655V42.0605H25.105V41.7654ZM28.4139 42.0605H27.9476V40.8129H26.6925V42.0605H26.2262V39.2899H26.6925V40.411H27.9476V39.2899H28.4139V42.0605ZM31.3682 40.6764C31.3682 41.1428 31.2557 41.5033 31.0308 41.7579C30.8059 42.0109 30.5066 42.1374 30.1329 42.1374C29.7476 42.1374 29.4442 42.0068 29.2226 41.7455C29.0026 41.4826 28.8927 41.1262 28.8927 40.6764C28.8927 40.2134 29.0059 39.8538 29.2325 39.5974C29.4607 39.3411 29.7608 39.213 30.1329 39.213C30.5066 39.213 30.8059 39.3411 31.0308 39.5974C31.2557 39.8521 31.3682 40.2118 31.3682 40.6764ZM30.887 40.6764C30.887 40.3176 30.8217 40.0514 30.691 39.8777C30.5604 39.7024 30.3743 39.6148 30.1329 39.6148C29.8898 39.6148 29.7021 39.7024 29.5698 39.8777C29.4392 40.0514 29.3739 40.3176 29.3739 40.6764C29.3739 41.0237 29.4392 41.2875 29.5698 41.4677C29.7021 41.6463 29.8898 41.7356 30.1329 41.7356C30.3727 41.7356 30.5579 41.648 30.6885 41.4727C30.8208 41.2957 30.887 41.0303 30.887 40.6764ZM34.0198 41.2221C34.0198 41.3561 33.9942 41.4752 33.9429 41.5793C33.8916 41.6819 33.8214 41.7679 33.7321 41.8373C33.6196 41.9249 33.5014 41.9845 33.3774 42.0159C33.255 42.0457 33.1078 42.0605 32.9358 42.0605H31.8469V39.2899H32.8639C33.0673 39.2899 33.2161 39.2965 33.3104 39.3097C33.4046 39.3213 33.4981 39.3527 33.5907 39.404C33.6882 39.4569 33.7602 39.5272 33.8065 39.6148C33.8528 39.7024 33.8759 39.8066 33.8759 39.9273C33.8759 40.0596 33.8396 40.1787 33.7668 40.2845C33.694 40.3887 33.5973 40.4697 33.4766 40.5276L33.489 40.545C33.6395 40.583 33.7651 40.6599 33.866 40.7757C33.9685 40.8914 34.0198 41.0402 34.0198 41.2221ZM33.3972 39.9993C33.3972 39.9364 33.3865 39.8819 33.365 39.8356C33.3451 39.7893 33.3096 39.7529 33.2583 39.7264C33.1988 39.695 33.1318 39.6768 33.0574 39.6719C32.9846 39.6652 32.8829 39.6619 32.7523 39.6619H32.3083V40.421H32.8441C32.9582 40.421 33.0392 40.416 33.0871 40.4061C33.1351 40.3945 33.188 40.3713 33.2459 40.3366C33.3005 40.3035 33.3393 40.2589 33.3625 40.2027C33.3856 40.1465 33.3972 40.0787 33.3972 39.9993ZM33.5386 41.2246C33.5386 41.1304 33.5245 41.0551 33.4964 40.9989C33.47 40.941 33.4104 40.8898 33.3178 40.8451C33.26 40.817 33.1979 40.7996 33.1318 40.793C33.0657 40.7864 32.9739 40.7831 32.8565 40.7831H32.3083V41.6885H32.7126C32.8796 41.6885 33.0094 41.6819 33.102 41.6686C33.1946 41.6554 33.274 41.6289 33.3402 41.5893C33.4096 41.5463 33.46 41.4967 33.4915 41.4404C33.5229 41.3842 33.5386 41.3123 33.5386 41.2246ZM36.7409 42.0605H36.1604L35.2104 40.7831H34.9773V42.0605H34.5109V39.2899H34.9773V40.4954C35.098 40.4937 35.2005 40.4689 35.2848 40.421C35.3708 40.3713 35.4436 40.2763 35.5031 40.1357C35.5213 40.0944 35.5412 40.0464 35.5627 39.9918C35.5858 39.9373 35.604 39.8893 35.6172 39.848C35.69 39.6446 35.7909 39.5007 35.9198 39.4164C36.0488 39.332 36.2167 39.2899 36.4234 39.2899H36.5499V39.6917H36.4432C36.3126 39.6917 36.2142 39.719 36.148 39.7736C36.0836 39.8265 36.029 39.924 35.9843 40.0663C35.938 40.2101 35.8835 40.3226 35.8206 40.4036C35.7578 40.483 35.6883 40.5442 35.6123 40.5871L36.7409 42.0605ZM39.2288 42.0605H38.7674V39.9943L37.4627 42.0605H37.041V39.2899H37.5024V41.3238L38.7922 39.2899H39.2288V42.0605Z" fill="#303549"/>
<path d="M16.8282 28.7769C16.5868 28.7769 16.3643 28.7364 16.1609 28.6554C15.9592 28.5744 15.7847 28.4536 15.6376 28.2932C15.4904 28.1328 15.3763 27.9327 15.2953 27.693C15.2142 27.4532 15.1737 27.1779 15.1737 26.867C15.1737 26.5577 15.2126 26.2882 15.2903 26.0583C15.3697 25.8285 15.4846 25.6284 15.6351 25.4581C15.7823 25.2927 15.9567 25.167 16.1585 25.081C16.3602 24.9934 16.5859 24.9496 16.8356 24.9496C16.9596 24.9496 17.0754 24.9587 17.1829 24.9769C17.292 24.995 17.3929 25.0182 17.4855 25.0463C17.5649 25.0711 17.6459 25.1025 17.7286 25.1406C17.8129 25.1769 17.8956 25.2175 17.9766 25.2621V25.8549H17.937C17.894 25.8153 17.8386 25.7673 17.7708 25.7111C17.703 25.6549 17.6203 25.5995 17.5227 25.5449C17.4285 25.4936 17.3259 25.4515 17.2151 25.4184C17.1043 25.3853 16.9762 25.3688 16.8307 25.3688C16.6736 25.3688 16.5247 25.401 16.3842 25.4655C16.2436 25.53 16.1204 25.6251 16.0146 25.7508C15.9104 25.8764 15.8294 26.0344 15.7715 26.2245C15.7136 26.4147 15.6847 26.6288 15.6847 26.867C15.6847 27.12 15.7153 27.3383 15.7765 27.5218C15.8376 27.7037 15.9212 27.8575 16.027 27.9832C16.1295 28.1056 16.2502 28.1982 16.3891 28.261C16.528 28.3222 16.6752 28.3528 16.8307 28.3528C16.9729 28.3528 17.1043 28.3354 17.2251 28.3007C17.3458 28.266 17.4533 28.2221 17.5475 28.1692C17.6385 28.118 17.717 28.0659 17.7832 28.0129C17.8493 27.9584 17.9014 27.9121 17.9394 27.874H17.9766V28.4594C17.8956 28.4975 17.8187 28.5338 17.746 28.5686C17.6749 28.6033 17.588 28.6372 17.4855 28.6703C17.378 28.705 17.278 28.7315 17.1854 28.7496C17.0944 28.7678 16.9754 28.7769 16.8282 28.7769ZM20.6779 27.3259C20.6779 27.7922 20.5654 28.1527 20.3405 28.4073C20.1156 28.6604 19.8163 28.7869 19.4426 28.7869C19.0573 28.7869 18.7539 28.6562 18.5323 28.3949C18.3123 28.132 18.2024 27.7757 18.2024 27.3259C18.2024 26.8628 18.3156 26.5032 18.5422 26.2469C18.7704 25.9905 19.0705 25.8624 19.4426 25.8624C19.8163 25.8624 20.1156 25.9905 20.3405 26.2469C20.5654 26.5015 20.6779 26.8612 20.6779 27.3259ZM20.1967 27.3259C20.1967 26.967 20.1313 26.7008 20.0007 26.5271C19.8701 26.3519 19.684 26.2642 19.4426 26.2642C19.1995 26.2642 19.0118 26.3519 18.8795 26.5271C18.7489 26.7008 18.6836 26.967 18.6836 27.3259C18.6836 27.6731 18.7489 27.9369 18.8795 28.1171C19.0118 28.2957 19.1995 28.385 19.4426 28.385C19.6824 28.385 19.8676 28.2974 19.9982 28.1221C20.1305 27.9451 20.1967 27.6797 20.1967 27.3259ZM23.1807 26.3486H22.2381V28.71H21.7718V26.3486H20.8292V25.9393H23.1807V26.3486ZM25.8521 27.2514C25.8521 27.7128 25.7413 28.0807 25.5197 28.3553C25.2998 28.6281 25.0212 28.7645 24.6838 28.7645C24.5466 28.7645 24.425 28.7488 24.3192 28.7174C24.2134 28.686 24.1051 28.6372 23.9943 28.5711V29.7319H23.5279V25.9393H23.9943V26.2295C24.11 26.1253 24.2382 26.0385 24.3787 25.969C24.5209 25.8979 24.6756 25.8624 24.8426 25.8624C25.1601 25.8624 25.4073 25.9881 25.5842 26.2394C25.7628 26.4908 25.8521 26.8281 25.8521 27.2514ZM25.3709 27.3035C25.3709 26.9877 25.3205 26.7429 25.2196 26.5693C25.1187 26.394 24.955 26.3064 24.7285 26.3064C24.5962 26.3064 24.468 26.3362 24.344 26.3957C24.2216 26.4536 24.1051 26.5288 23.9943 26.6214V28.1915C24.1166 28.2511 24.2208 28.2916 24.3068 28.3131C24.3944 28.3346 24.4945 28.3453 24.6069 28.3453C24.8484 28.3453 25.0361 28.2569 25.17 28.0799C25.3039 27.903 25.3709 27.6442 25.3709 27.3035ZM28.5137 25.9393L27.0229 29.7319H26.5243L27.0204 28.576L26.0134 25.9393H26.5169L27.2734 27.9906L28.0275 25.9393H28.5137ZM31.2422 29.3747H30.8081V28.7025H28.9825V29.3747H28.5484V28.3131H28.732C28.889 28.0551 29.0172 27.7186 29.1164 27.3035C29.2173 26.8868 29.2677 26.4321 29.2677 25.9393H30.9669V28.3131H31.2422V29.3747ZM30.5005 28.3131V26.3312H29.7068C29.6853 26.7446 29.6282 27.1225 29.5356 27.4648C29.4447 27.8054 29.3297 28.0882 29.1908 28.3131H30.5005ZM33.8913 28.71H33.425V27.4623H32.1699V28.71H31.7036V25.9393H32.1699V27.0604H33.425V25.9393H33.8913V28.71ZM36.7538 28.71H36.2924V26.6437L34.9877 28.71H34.566V25.9393H35.0274V27.9733L36.3172 25.9393H36.7538V28.71ZM39.6584 28.71H39.078L38.128 27.4325H37.8948V28.71H37.4285V25.9393H37.8948V27.1448C38.0155 27.1431 38.118 27.1183 38.2024 27.0704C38.2884 27.0208 38.3611 26.9257 38.4207 26.7851C38.4389 26.7438 38.4587 26.6958 38.4802 26.6413C38.5033 26.5867 38.5215 26.5387 38.5348 26.4974C38.6075 26.294 38.7084 26.1501 38.8374 26.0658C38.9664 25.9814 39.1342 25.9393 39.3409 25.9393H39.4674V26.3411H39.3608C39.2301 26.3411 39.1317 26.3684 39.0656 26.423C39.0011 26.4759 38.9465 26.5735 38.9019 26.7157C38.8556 26.8595 38.801 26.972 38.7382 27.053C38.6753 27.1324 38.6059 27.1936 38.5298 27.2366L39.6584 28.71ZM42.1463 28.71H41.685V26.6437L40.3802 28.71H39.9586V25.9393H40.4199V27.9733L41.7098 25.9393H42.1463V28.71Z" fill="#303549"/>
<path d="M18.1359 55.5605H17.6448V52.3037H15.9457V55.5605H15.4546V51.8671H18.1359V55.5605ZM21.1745 54.102C21.1745 54.5634 21.0637 54.9313 20.8421 55.2058C20.6222 55.4787 20.3436 55.6151 20.0062 55.6151C19.869 55.6151 19.7474 55.5994 19.6416 55.568C19.5357 55.5366 19.4274 55.4878 19.3166 55.4216V56.5825H18.8503V52.7899H19.3166V53.0801C19.4324 52.9759 19.5606 52.8891 19.7011 52.8196C19.8433 52.7485 19.9979 52.713 20.165 52.713C20.4825 52.713 20.7297 52.8386 20.9066 53.09C21.0852 53.3414 21.1745 53.6787 21.1745 54.102ZM20.6933 54.1541C20.6933 53.8383 20.6429 53.5935 20.542 53.4199C20.4411 53.2446 20.2774 53.157 20.0509 53.157C19.9186 53.157 19.7904 53.1867 19.6664 53.2463C19.544 53.3041 19.4274 53.3794 19.3166 53.472V55.0421C19.439 55.1017 19.5432 55.1422 19.6292 55.1637C19.7168 55.1852 19.8169 55.1959 19.9293 55.1959C20.1707 55.1959 20.3584 55.1074 20.4924 54.9305C20.6263 54.7536 20.6933 54.4948 20.6933 54.1541ZM23.9378 54.1764C23.9378 54.6428 23.8253 55.0033 23.6004 55.2579C23.3755 55.5109 23.0762 55.6374 22.7025 55.6374C22.3172 55.6374 22.0137 55.5068 21.7921 55.2455C21.5722 54.9826 21.4622 54.6262 21.4622 54.1764C21.4622 53.7134 21.5755 53.3538 21.8021 53.0974C22.0303 52.8411 22.3304 52.713 22.7025 52.713C23.0762 52.713 23.3755 52.8411 23.6004 53.0974C23.8253 53.3521 23.9378 53.7118 23.9378 54.1764ZM23.4565 54.1764C23.4565 53.8176 23.3912 53.5514 23.2606 53.3777C23.1299 53.2024 22.9439 53.1148 22.7025 53.1148C22.4594 53.1148 22.2717 53.2024 22.1394 53.3777C22.0088 53.5514 21.9435 53.8176 21.9435 54.1764C21.9435 54.5237 22.0088 54.7875 22.1394 54.9677C22.2717 55.1463 22.4594 55.2356 22.7025 55.2356C22.9423 55.2356 23.1275 55.148 23.2581 54.9727C23.3904 54.7957 23.4565 54.5303 23.4565 54.1764ZM27.785 54.102C27.785 54.3484 27.7544 54.5667 27.6932 54.7569C27.6337 54.9454 27.5543 55.1008 27.4551 55.2232C27.3542 55.3472 27.2401 55.4415 27.1128 55.506C26.9854 55.5688 26.8523 55.6002 26.7134 55.6002C26.6092 55.6002 26.5174 55.5804 26.4381 55.5407C26.3603 55.501 26.2942 55.4671 26.2396 55.439V56.5825H25.7783V55.439C25.6807 55.4903 25.603 55.53 25.5451 55.5581C25.4872 55.5862 25.3921 55.6002 25.2598 55.6002C24.949 55.6002 24.7001 55.4746 24.5132 55.2232C24.3264 54.9702 24.2329 54.6238 24.2329 54.1839C24.2329 53.9524 24.2627 53.7457 24.3222 53.5638C24.3818 53.3819 24.4636 53.2273 24.5678 53.0999C24.6637 52.9825 24.7745 52.8916 24.9002 52.8271C25.0275 52.7609 25.1598 52.7279 25.2971 52.7279C25.3946 52.7279 25.4823 52.7452 25.56 52.7799C25.6394 52.813 25.7121 52.851 25.7783 52.894V51.7009H26.2396V52.894C26.3124 52.8494 26.3959 52.8105 26.4902 52.7775C26.5844 52.7444 26.6812 52.7279 26.7804 52.7279C27.0913 52.7279 27.336 52.8527 27.5146 53.1024C27.6948 53.3504 27.785 53.6837 27.785 54.102ZM27.3062 54.1541C27.3062 53.8383 27.2525 53.5886 27.145 53.405C27.0392 53.2215 26.8821 53.1297 26.6737 53.1297C26.5877 53.1297 26.5117 53.1413 26.4455 53.1644C26.381 53.1859 26.3124 53.2099 26.2396 53.2363V55.0843C26.3124 55.119 26.3711 55.1471 26.4157 55.1686C26.462 55.1901 26.529 55.2009 26.6167 55.2009C26.8316 55.2009 27.0003 55.1124 27.1227 54.9355C27.245 54.7585 27.3062 54.4981 27.3062 54.1541ZM25.7783 55.0843V53.2363C25.7187 53.2082 25.6592 53.1834 25.5997 53.1619C25.5401 53.1404 25.474 53.1297 25.4012 53.1297C25.1896 53.1297 25.0217 53.2132 24.8977 53.3802C24.7737 53.5472 24.7117 53.8077 24.7117 54.1616C24.7117 54.484 24.7671 54.7379 24.8779 54.9231C24.9903 55.1083 25.1507 55.2009 25.3591 55.2009C25.4417 55.2009 25.5162 55.1885 25.5823 55.1637C25.6485 55.1389 25.7138 55.1124 25.7783 55.0843ZM29.4791 55.625C29.0376 55.625 28.6945 55.501 28.4497 55.253C28.2066 55.0033 28.0851 54.6494 28.0851 54.1913C28.0851 53.7399 28.2033 53.381 28.4398 53.1148C28.6763 52.8469 28.9855 52.713 29.3675 52.713C29.5395 52.713 29.6916 52.7378 29.8239 52.7874C29.9562 52.837 30.072 52.9147 30.1712 53.0205C30.2704 53.1264 30.3465 53.2562 30.3994 53.41C30.4523 53.5621 30.4787 53.749 30.4787 53.9706V54.2236H28.5589C28.5589 54.546 28.6399 54.7924 28.802 54.9628C28.964 55.1331 29.1881 55.2182 29.4742 55.2182C29.5767 55.2182 29.6767 55.2067 29.7743 55.1835C29.8735 55.1604 29.9628 55.1306 30.0422 55.0942C30.1265 55.0562 30.1976 55.0198 30.2555 54.9851C30.3134 54.9487 30.3613 54.9148 30.3994 54.8834H30.4267V55.3919C30.3721 55.4134 30.3043 55.4407 30.2233 55.4737C30.1422 55.5051 30.0695 55.53 30.005 55.5481C29.914 55.5729 29.8313 55.592 29.7569 55.6052C29.6842 55.6184 29.5916 55.625 29.4791 55.625ZM30.0248 53.8664C30.0215 53.7407 30.0066 53.6324 29.9802 53.5414C29.9537 53.4505 29.9157 53.3736 29.8661 53.3108C29.8115 53.2413 29.7412 53.1884 29.6552 53.152C29.5709 53.1156 29.4659 53.0974 29.3402 53.0974C29.2162 53.0974 29.1104 53.1165 29.0227 53.1545C28.9367 53.1909 28.8582 53.2446 28.7871 53.3157C28.7176 53.3885 28.6647 53.4695 28.6283 53.5588C28.5919 53.6465 28.5688 53.749 28.5589 53.8664H30.0248ZM32.0514 55.6226C31.8612 55.6226 31.6867 55.5936 31.528 55.5357C31.3692 55.4762 31.2328 55.3869 31.1187 55.2679C31.0046 55.1488 30.9161 54.9991 30.8533 54.8189C30.7905 54.637 30.759 54.4237 30.759 54.1789C30.759 53.9358 30.7913 53.7258 30.8558 53.5489C30.9219 53.3719 31.0096 53.2231 31.1187 53.1024C31.2279 52.9817 31.3634 52.8891 31.5255 52.8246C31.6892 52.7584 31.8645 52.7254 32.0514 52.7254C32.2035 52.7254 32.3498 52.7469 32.4904 52.7899C32.6326 52.8329 32.7591 52.8825 32.8699 52.9387V53.4621H32.8426C32.8096 53.434 32.7666 53.4017 32.7137 53.3653C32.6624 53.329 32.5996 53.2917 32.5251 53.2537C32.4606 53.2206 32.3846 53.1917 32.2969 53.1669C32.2093 53.1421 32.125 53.1297 32.0439 53.1297C31.8025 53.1297 31.6082 53.2215 31.461 53.405C31.3155 53.5869 31.2427 53.8449 31.2427 54.1789C31.2427 54.5063 31.313 54.7618 31.4536 54.9454C31.5958 55.1273 31.7926 55.2182 32.0439 55.2182C32.1961 55.2182 32.3408 55.1868 32.478 55.124C32.6153 55.0611 32.7368 54.9801 32.8426 54.8809H32.8699V55.4043C32.8236 55.4258 32.7657 55.4522 32.6963 55.4837C32.6268 55.5134 32.564 55.5357 32.5078 55.5506C32.4284 55.5738 32.3573 55.5911 32.2945 55.6027C32.2316 55.6159 32.1506 55.6226 32.0514 55.6226ZM34.3979 55.6226C34.2077 55.6226 34.0333 55.5936 33.8745 55.5357C33.7158 55.4762 33.5793 55.3869 33.4652 55.2679C33.3511 55.1488 33.2627 54.9991 33.1998 54.8189C33.137 54.637 33.1056 54.4237 33.1056 54.1789C33.1056 53.9358 33.1378 53.7258 33.2023 53.5489C33.2685 53.3719 33.3561 53.2231 33.4652 53.1024C33.5744 52.9817 33.71 52.8891 33.872 52.8246C34.0357 52.7584 34.211 52.7254 34.3979 52.7254C34.55 52.7254 34.6964 52.7469 34.8369 52.7899C34.9791 52.8329 35.1057 52.8825 35.2164 52.9387V53.4621H35.1892C35.1561 53.434 35.1131 53.4017 35.0602 53.3653C35.0089 53.329 34.9461 53.2917 34.8717 53.2537C34.8072 53.2206 34.7311 53.1917 34.6435 53.1669C34.5558 53.1421 34.4715 53.1297 34.3904 53.1297C34.149 53.1297 33.9547 53.2215 33.8075 53.405C33.662 53.5869 33.5893 53.8449 33.5893 54.1789C33.5893 54.5063 33.6595 54.7618 33.8001 54.9454C33.9423 55.1273 34.1391 55.2182 34.3904 55.2182C34.5426 55.2182 34.6873 55.1868 34.8245 55.124C34.9618 55.0611 35.0833 54.9801 35.1892 54.8809H35.2164V55.4043C35.1701 55.4258 35.1123 55.4522 35.0428 55.4837C34.9734 55.5134 34.9105 55.5357 34.8543 55.5506C34.7749 55.5738 34.7038 55.5911 34.641 55.6027C34.5781 55.6159 34.4971 55.6226 34.3979 55.6226ZM37.8309 55.5605H37.3695V53.4943L36.0648 55.5605H35.6431V52.7899H36.1045V54.8238L37.3943 52.7899H37.8309V55.5605ZM40.6933 55.5605H40.232V53.4943L38.9272 55.5605H38.5055V52.7899H38.9669V54.8238L40.2568 52.7899H40.6933V55.5605Z" fill="#303549"/>
<path d="M18.0665 67.2307C18.207 67.3928 18.3162 67.5937 18.3939 67.8335C18.4716 68.0733 18.5105 68.347 18.5105 68.6545C18.5105 68.9538 18.4725 69.2242 18.3964 69.4656C18.3203 69.7071 18.2104 69.9096 18.0665 70.0734C17.916 70.2453 17.7399 70.3727 17.5381 70.4554C17.3381 70.5364 17.1173 70.5769 16.8759 70.5769C16.6262 70.5769 16.4013 70.5347 16.2012 70.4504C16.0011 70.3661 15.8291 70.2404 15.6852 70.0734C15.543 69.9096 15.4339 69.7079 15.3578 69.4681C15.2817 69.2283 15.2437 68.9571 15.2437 68.6545C15.2437 68.3436 15.2817 68.0708 15.3578 67.836C15.4355 67.6012 15.5455 67.3994 15.6877 67.2307C15.8299 67.067 16.0011 66.943 16.2012 66.8587C16.4029 66.7727 16.6278 66.7297 16.8759 66.7297C17.1272 66.7297 17.3538 66.7735 17.5555 66.8612C17.7573 66.9488 17.9276 67.072 18.0665 67.2307ZM17.9995 68.6545C17.9995 68.4098 17.9731 68.1932 17.9201 68.0046C17.8672 67.8161 17.7928 67.6599 17.6969 67.5358C17.5993 67.4085 17.4811 67.3134 17.3422 67.2506C17.2049 67.1861 17.0503 67.1538 16.8783 67.1538C16.6997 67.1538 16.5435 67.1853 16.4095 67.2481C16.2772 67.3093 16.1598 67.4052 16.0573 67.5358C15.9597 67.6615 15.8845 67.8194 15.8316 68.0096C15.7803 68.1998 15.7547 68.4148 15.7547 68.6545C15.7547 69.139 15.8564 69.5103 16.0598 69.7683C16.2632 70.0246 16.536 70.1527 16.8783 70.1527C17.2206 70.1527 17.4927 70.0246 17.6944 69.7683C17.8978 69.5103 17.9995 69.139 17.9995 68.6545ZM21.0381 68.1386H20.0955V70.5H19.6292V68.1386H18.6866V67.7293H21.0381V68.1386ZM23.4689 70.5H23.0026V69.4185C22.8571 69.4665 22.7157 69.5037 22.5785 69.5301C22.4412 69.5566 22.3056 69.5698 22.1717 69.5698C22.0543 69.5698 21.9393 69.5549 21.8269 69.5252C21.7161 69.4938 21.6202 69.4433 21.5391 69.3739C21.4581 69.3044 21.3953 69.2159 21.3506 69.1085C21.3076 68.9993 21.2861 68.8712 21.2861 68.724V67.7293H21.7525V68.4809C21.7525 68.6033 21.7574 68.7008 21.7673 68.7736C21.7773 68.8447 21.8046 68.9142 21.8492 68.982C21.8872 69.0398 21.9443 69.0845 22.0204 69.1159C22.0981 69.1473 22.1998 69.163 22.3254 69.163C22.4346 69.163 22.5512 69.1523 22.6752 69.1308C22.8009 69.1093 22.91 69.0837 23.0026 69.0539V67.7293H23.4689V70.5ZM25.3467 70.5645C24.9051 70.5645 24.562 70.4405 24.3173 70.1924C24.0742 69.9427 23.9526 69.5888 23.9526 69.1308C23.9526 68.6793 24.0709 68.3205 24.3073 68.0543C24.5438 67.7864 24.853 67.6524 25.235 67.6524C25.407 67.6524 25.5592 67.6772 25.6914 67.7268C25.8237 67.7764 25.9395 67.8542 26.0387 67.96C26.1379 68.0658 26.214 68.1956 26.2669 68.3494C26.3198 68.5016 26.3463 68.6884 26.3463 68.91V69.163H24.4264C24.4264 69.4855 24.5074 69.7319 24.6695 69.9022C24.8315 70.0725 25.0556 70.1577 25.3417 70.1577C25.4442 70.1577 25.5443 70.1461 25.6418 70.123C25.7411 70.0998 25.8304 70.0701 25.9097 70.0337C25.9941 69.9956 26.0652 69.9593 26.123 69.9245C26.1809 69.8882 26.2289 69.8543 26.2669 69.8228H26.2942V70.3313C26.2396 70.3528 26.1718 70.3801 26.0908 70.4132C26.0098 70.4446 25.937 70.4694 25.8725 70.4876C25.7816 70.5124 25.6989 70.5314 25.6245 70.5446C25.5517 70.5579 25.4591 70.5645 25.3467 70.5645ZM25.8924 68.8058C25.8891 68.6802 25.8742 68.5718 25.8477 68.4809C25.8213 68.3899 25.7832 68.3131 25.7336 68.2502C25.679 68.1808 25.6088 68.1278 25.5228 68.0915C25.4384 68.0551 25.3334 68.0369 25.2078 68.0369C25.0837 68.0369 24.9779 68.0559 24.8903 68.0939C24.8043 68.1303 24.7257 68.1841 24.6546 68.2552C24.5852 68.3279 24.5322 68.409 24.4959 68.4983C24.4595 68.5859 24.4363 68.6884 24.4264 68.8058H25.8924ZM28.8416 68.1386H27.8991V70.5H27.4327V68.1386H26.4902V67.7293H28.8416V68.1386ZM31.2452 69.6418C31.2452 69.7757 31.2179 69.8972 31.1634 70.0064C31.1104 70.1155 31.0377 70.204 30.9451 70.2718C30.8359 70.3545 30.7194 70.4132 30.5953 70.4479C30.4713 70.4826 30.3117 70.5 30.1166 70.5H29.1889V67.7293H29.6552V68.8083H30.129C30.3374 68.8083 30.4986 68.8191 30.6127 68.8406C30.7285 68.8621 30.8434 68.915 30.9575 68.9993C31.0534 69.0704 31.1253 69.1614 31.1733 69.2722C31.2212 69.383 31.2452 69.5062 31.2452 69.6418ZM30.764 69.6492C30.764 69.5649 30.7491 69.4913 30.7194 69.4284C30.6912 69.3639 30.6441 69.3119 30.578 69.2722C30.5085 69.2308 30.4291 69.206 30.3398 69.1978C30.2522 69.1895 30.1257 69.1854 29.9603 69.1854H29.6552V70.1279H29.9504C30.1158 70.1279 30.2439 70.1213 30.3349 70.1081C30.4258 70.0932 30.5044 70.0659 30.5705 70.0262C30.6383 69.9832 30.6871 69.9328 30.7169 69.8749C30.7483 69.8154 30.764 69.7401 30.764 69.6492ZM32.034 70.5H31.5677V67.7293H32.034V70.5Z" fill="#303549"/>
<path d="M248.324 15.9223H247.754V14.8883H244.825V15.9223H244.255V14.3667H244.5C244.763 13.9361 244.974 13.3721 245.134 12.6747C245.296 11.9753 245.376 11.2122 245.376 10.3854H247.896V14.3667H248.324V15.9223ZM247.296 14.3667V10.9069H245.94C245.912 11.6367 245.821 12.2987 245.668 12.8931C245.514 13.4874 245.318 13.9786 245.079 14.3667H247.296ZM251.699 13.1174C251.699 13.6814 251.563 14.1312 251.292 14.4668C251.024 14.8003 250.683 14.9671 250.27 14.9671C250.103 14.9671 249.954 14.9479 249.825 14.9095C249.695 14.8711 249.563 14.8114 249.428 14.7306V16.1497H248.857V11.5134H249.428V11.8682C249.569 11.7408 249.726 11.6347 249.898 11.5498C250.071 11.4629 250.26 11.4194 250.465 11.4194C250.853 11.4194 251.155 11.573 251.371 11.8803C251.59 12.1876 251.699 12.5999 251.699 13.1174ZM251.11 13.1811C251.11 12.795 251.049 12.4958 250.925 12.2836C250.802 12.0693 250.602 11.9622 250.325 11.9622C250.163 11.9622 250.007 11.9985 249.855 12.0713C249.705 12.1421 249.563 12.2341 249.428 12.3473V14.2667C249.577 14.3394 249.704 14.389 249.81 14.4152C249.917 14.4415 250.039 14.4547 250.177 14.4547C250.472 14.4547 250.701 14.3465 250.865 14.1302C251.029 13.9139 251.11 13.5975 251.11 13.1811ZM254.952 11.5134L253.13 16.1497H252.52L253.127 14.7367L251.896 11.5134H252.511L253.436 14.021L254.358 11.5134H254.952ZM257.536 12.0137H255.953V14.9004H255.383V11.5134H257.536V12.0137ZM259.852 14.0665V13.1265C259.717 13.1387 259.545 13.1558 259.337 13.1781C259.131 13.1983 258.964 13.2276 258.837 13.266C258.685 13.3125 258.56 13.3843 258.461 13.4813C258.361 13.5763 258.312 13.7097 258.312 13.8816C258.312 14.0756 258.367 14.2222 258.476 14.3212C258.585 14.4203 258.745 14.4698 258.955 14.4698C259.135 14.4698 259.297 14.4314 259.443 14.3546C259.589 14.2758 259.725 14.1797 259.852 14.0665ZM259.852 14.5396C259.806 14.5739 259.743 14.6224 259.664 14.6851C259.588 14.7457 259.513 14.7943 259.44 14.8306C259.339 14.8832 259.241 14.9236 259.146 14.9519C259.053 14.9802 258.921 14.9944 258.752 14.9944C258.612 14.9944 258.48 14.9681 258.354 14.9156C258.229 14.863 258.119 14.7892 258.024 14.6942C257.933 14.6012 257.86 14.487 257.806 14.3516C257.751 14.2141 257.724 14.0696 257.724 13.9179C257.724 13.6835 257.773 13.4843 257.872 13.3206C257.971 13.1548 258.128 13.0234 258.342 12.9264C258.532 12.8395 258.757 12.7799 259.015 12.7475C259.274 12.7131 259.553 12.6879 259.852 12.6717V12.5625C259.852 12.4291 259.832 12.322 259.792 12.2411C259.751 12.1582 259.695 12.0946 259.622 12.0501C259.549 12.0036 259.46 11.9733 259.355 11.9591C259.25 11.943 259.142 11.9349 259.031 11.9349C258.899 11.9349 258.745 11.9551 258.567 11.9955C258.389 12.0339 258.211 12.0905 258.033 12.1653H258V11.5862C258.105 11.5558 258.255 11.5225 258.451 11.4861C258.648 11.4497 258.842 11.4315 259.034 11.4315C259.266 11.4315 259.462 11.4497 259.622 11.4861C259.782 11.5225 259.925 11.5882 260.052 11.6832C260.176 11.7762 260.268 11.8965 260.328 12.044C260.389 12.1916 260.419 12.3715 260.419 12.5838V14.9004H259.852V14.5396ZM263.676 14.9004H263.106V13.5571H262.542L261.538 14.9004H260.874L261.963 13.5056C261.682 13.4227 261.476 13.2994 261.344 13.1356C261.215 12.9719 261.15 12.7526 261.15 12.4776C261.15 12.3099 261.187 12.1633 261.259 12.038C261.334 11.9106 261.434 11.8035 261.559 11.7166C261.661 11.6478 261.788 11.5973 261.942 11.5649C262.095 11.5306 262.267 11.5134 262.457 11.5134H263.676V14.9004ZM263.106 13.1083V11.9682H262.487C262.356 11.9682 262.252 11.9753 262.175 11.9895C262.1 12.0036 262.027 12.0309 261.957 12.0713C261.884 12.1158 261.828 12.1764 261.79 12.2533C261.754 12.3281 261.735 12.4089 261.735 12.4958C261.735 12.607 261.747 12.698 261.772 12.7687C261.798 12.8375 261.845 12.9011 261.911 12.9598C261.982 13.0204 262.068 13.0608 262.169 13.0811C262.272 13.0992 262.384 13.1083 262.506 13.1083H263.106ZM269.119 14.9004H268.555V12.3745L266.96 14.9004H266.444V11.5134H267.008V13.9998L268.585 11.5134H269.119V14.9004ZM272.618 14.9004H272.048V13.3752H270.514V14.9004H269.944V11.5134H270.514V12.884H272.048V11.5134H272.618V14.9004ZM277.561 13.1174C277.561 13.4186 277.523 13.6855 277.448 13.9179C277.376 14.1484 277.279 14.3384 277.157 14.488C277.034 14.6396 276.894 14.7548 276.739 14.8337C276.583 14.9105 276.42 14.9489 276.251 14.9489C276.123 14.9489 276.011 14.9246 275.914 14.8761C275.819 14.8276 275.738 14.7862 275.671 14.7518V16.1497H275.107V14.7518C274.988 14.8145 274.893 14.863 274.822 14.8974C274.752 14.9317 274.635 14.9489 274.474 14.9489C274.094 14.9489 273.789 14.7953 273.561 14.488C273.333 14.1787 273.218 13.7552 273.218 13.2175C273.218 12.9345 273.255 12.6818 273.328 12.4594C273.4 12.2371 273.5 12.0481 273.628 11.8924C273.745 11.7489 273.88 11.6377 274.034 11.5589C274.19 11.478 274.351 11.4376 274.519 11.4376C274.638 11.4376 274.746 11.4588 274.841 11.5013C274.938 11.5417 275.027 11.5882 275.107 11.6407V10.1822H275.671V11.6407C275.76 11.5862 275.862 11.5387 275.978 11.4982C276.093 11.4578 276.211 11.4376 276.332 11.4376C276.713 11.4376 277.012 11.5902 277.23 11.8955C277.45 12.1987 277.561 12.606 277.561 13.1174ZM276.975 13.1811C276.975 12.795 276.91 12.4898 276.778 12.2654C276.649 12.041 276.457 11.9288 276.202 11.9288C276.097 11.9288 276.004 11.943 275.923 11.9713C275.844 11.9975 275.76 12.0269 275.671 12.0592V14.3182C275.76 14.3607 275.832 14.395 275.887 14.4213C275.943 14.4476 276.025 14.4607 276.132 14.4607C276.395 14.4607 276.601 14.3526 276.751 14.1363C276.901 13.92 276.975 13.6016 276.975 13.1811ZM275.107 14.3182V12.0592C275.035 12.0248 274.962 11.9945 274.889 11.9682C274.816 11.9419 274.736 11.9288 274.647 11.9288C274.388 11.9288 274.183 12.0309 274.031 12.2351C273.879 12.4392 273.804 12.7576 273.804 13.1902C273.804 13.5844 273.871 13.8947 274.007 14.1211C274.144 14.3475 274.34 14.4607 274.595 14.4607C274.696 14.4607 274.787 14.4456 274.868 14.4152C274.949 14.3849 275.029 14.3526 275.107 14.3182ZM280.948 13.2084C280.948 13.7785 280.81 14.2192 280.535 14.5305C280.26 14.8397 279.894 14.9944 279.437 14.9944C278.966 14.9944 278.596 14.8347 278.325 14.5153C278.056 14.1939 277.921 13.7583 277.921 13.2084C277.921 12.6424 278.06 12.2027 278.337 11.8894C278.616 11.5761 278.983 11.4194 279.437 11.4194C279.894 11.4194 280.26 11.5761 280.535 11.8894C280.81 12.2007 280.948 12.6404 280.948 13.2084ZM280.359 13.2084C280.359 12.7697 280.279 12.4443 280.12 12.232C279.96 12.0178 279.733 11.9106 279.437 11.9106C279.14 11.9106 278.911 12.0178 278.749 12.232C278.589 12.4443 278.51 12.7697 278.51 13.2084C278.51 13.6329 278.589 13.9553 278.749 14.1757C278.911 14.394 279.14 14.5032 279.437 14.5032C279.731 14.5032 279.957 14.396 280.117 14.1818C280.278 13.9655 280.359 13.641 280.359 13.2084ZM284.374 13.1174C284.374 13.6814 284.239 14.1312 283.968 14.4668C283.699 14.8003 283.358 14.9671 282.946 14.9671C282.778 14.9671 282.629 14.9479 282.5 14.9095C282.371 14.8711 282.238 14.8114 282.103 14.7306V16.1497H281.533V11.5134H282.103V11.8682C282.244 11.7408 282.401 11.6347 282.573 11.5498C282.747 11.4629 282.936 11.4194 283.14 11.4194C283.528 11.4194 283.83 11.573 284.046 11.8803C284.265 12.1876 284.374 12.5999 284.374 13.1174ZM283.786 13.1811C283.786 12.795 283.724 12.4958 283.601 12.2836C283.477 12.0693 283.277 11.9622 283 11.9622C282.839 11.9622 282.682 11.9985 282.53 12.0713C282.381 12.1421 282.238 12.2341 282.103 12.3473V14.2667C282.252 14.3394 282.38 14.389 282.485 14.4152C282.592 14.4415 282.714 14.4547 282.852 14.4547C283.147 14.4547 283.376 14.3465 283.54 14.1302C283.704 13.9139 283.786 13.5975 283.786 13.1811ZM288.107 14.9004H287.543V12.2381L286.73 13.9665H286.305L285.499 12.2381V14.9004H284.965V11.5134H285.654L286.545 13.3934L287.406 11.5134H288.107V14.9004ZM290.823 14.0665V13.1265C290.688 13.1387 290.516 13.1558 290.308 13.1781C290.102 13.1983 289.935 13.2276 289.808 13.266C289.656 13.3125 289.531 13.3843 289.432 13.4813C289.333 13.5763 289.283 13.7097 289.283 13.8816C289.283 14.0756 289.338 14.2222 289.447 14.3212C289.556 14.4203 289.716 14.4698 289.926 14.4698C290.106 14.4698 290.269 14.4314 290.414 14.3546C290.56 14.2758 290.696 14.1797 290.823 14.0665ZM290.823 14.5396C290.777 14.5739 290.714 14.6224 290.635 14.6851C290.559 14.7457 290.484 14.7943 290.411 14.8306C290.31 14.8832 290.212 14.9236 290.117 14.9519C290.024 14.9802 289.893 14.9944 289.723 14.9944C289.583 14.9944 289.451 14.9681 289.326 14.9156C289.2 14.863 289.09 14.7892 288.995 14.6942C288.904 14.6012 288.831 14.487 288.777 14.3516C288.722 14.2141 288.695 14.0696 288.695 13.9179C288.695 13.6835 288.744 13.4843 288.843 13.3206C288.943 13.1548 289.099 13.0234 289.313 12.9264C289.503 12.8395 289.728 12.7799 289.987 12.7475C290.245 12.7131 290.524 12.6879 290.823 12.6717V12.5625C290.823 12.4291 290.803 12.322 290.763 12.2411C290.722 12.1582 290.666 12.0946 290.593 12.0501C290.52 12.0036 290.431 11.9733 290.326 11.9591C290.221 11.943 290.113 11.9349 290.002 11.9349C289.87 11.9349 289.716 11.9551 289.538 11.9955C289.36 12.0339 289.182 12.0905 289.004 12.1653H288.971V11.5862C289.076 11.5558 289.227 11.5225 289.423 11.4861C289.619 11.4497 289.813 11.4315 290.005 11.4315C290.237 11.4315 290.433 11.4497 290.593 11.4861C290.753 11.5225 290.896 11.5882 291.024 11.6832C291.147 11.7762 291.239 11.8965 291.3 12.044C291.36 12.1916 291.391 12.3715 291.391 12.5838V14.9004H290.823V14.5396ZM295.184 15.713H294.653V14.9004H292.194V11.5134H292.764V14.4092H294.277V11.5134H294.847V14.4092H295.184V15.713ZM298.422 14.9004H297.858V12.3745L296.263 14.9004H295.748V11.5134H296.312V13.9998L297.889 11.5134H298.422V14.9004ZM301.7 14.9004H301.13V13.5571H300.566L299.562 14.9004H298.898L299.987 13.5056C299.706 13.4227 299.5 13.2994 299.368 13.1356C299.239 12.9719 299.174 12.7526 299.174 12.4776C299.174 12.3099 299.211 12.1633 299.283 12.038C299.358 11.9106 299.458 11.8035 299.584 11.7166C299.685 11.6478 299.812 11.5973 299.966 11.5649C300.119 11.5306 300.291 11.5134 300.481 11.5134H301.7V14.9004ZM301.13 13.1083V11.9682H300.511C300.38 11.9682 300.276 11.9753 300.199 11.9895C300.124 12.0036 300.052 12.0309 299.981 12.0713C299.908 12.1158 299.852 12.1764 299.814 12.2533C299.778 12.3281 299.759 12.4089 299.759 12.4958C299.759 12.607 299.772 12.698 299.796 12.7687C299.822 12.8375 299.869 12.9011 299.935 12.9598C300.006 13.0204 300.092 13.0608 300.193 13.0811C300.296 13.0992 300.408 13.1083 300.53 13.1083H301.13Z" fill="#606580"/>
<path d="M276.36 70.8197C276.128 70.8195 275.898 70.7788 275.68 70.6997L259.74 64.6997C259.266 64.5158 258.88 64.1582 258.66 63.6997C258.555 63.47 258.497 63.2219 258.489 62.9697C258.48 62.7175 258.521 62.466 258.61 62.2297L266.27 41.7197C266.406 41.3542 266.65 41.0388 266.97 40.8155C267.29 40.5922 267.67 40.4716 268.06 40.4697C268.292 40.47 268.522 40.5106 268.74 40.5897L284.68 46.5897C285.154 46.7737 285.54 47.1312 285.76 47.5897C285.865 47.8194 285.923 48.0675 285.931 48.3197C285.94 48.572 285.899 48.8234 285.81 49.0597L278.15 69.5697C278.014 69.9352 277.77 70.2506 277.45 70.4739C277.13 70.6972 276.75 70.8178 276.36 70.8197ZM268.06 42.1297C267.998 42.1303 267.939 42.1498 267.889 42.1856C267.838 42.2214 267.801 42.2717 267.78 42.3297L260.12 62.8397C260.093 62.9175 260.093 63.0019 260.12 63.0797C260.137 63.1149 260.161 63.1463 260.19 63.172C260.219 63.1978 260.253 63.2174 260.29 63.2297L276.24 69.2297H276.35C276.412 69.2291 276.471 69.2096 276.522 69.1739C276.572 69.1381 276.61 69.0878 276.63 69.0297L284.3 48.4997C284.327 48.4219 284.327 48.3375 284.3 48.2597C284.283 48.2246 284.259 48.1932 284.23 48.1674C284.201 48.1417 284.167 48.122 284.13 48.1097L268.18 42.1097L268.06 42.1297Z" fill="#0089FF"/>
<path d="M278.58 48.2703C278.511 48.4479 278.374 48.5913 278.201 48.6698C278.027 48.7483 277.829 48.7557 277.65 48.6903L272.65 46.8103C272.47 46.7409 272.325 46.6031 272.246 46.427C272.167 46.2508 272.162 46.0507 272.23 45.8703C272.263 45.7816 272.314 45.7002 272.379 45.6311C272.443 45.5619 272.521 45.5062 272.608 45.4671C272.694 45.4281 272.787 45.4065 272.882 45.4037C272.977 45.4008 273.071 45.4166 273.16 45.4503L278.16 47.3303C278.25 47.3637 278.333 47.4145 278.403 47.4799C278.473 47.5452 278.53 47.6238 278.57 47.7111C278.61 47.7984 278.632 47.8928 278.636 47.9887C278.639 48.0847 278.624 48.1804 278.59 48.2703H278.58Z" fill="#0089FF"/>
<path d="M281 52.4701C280.935 52.6311 280.81 52.7602 280.651 52.8295C280.492 52.8987 280.312 52.9025 280.15 52.8401L268 48.3001C267.918 48.2721 267.842 48.228 267.778 48.1703C267.713 48.1127 267.66 48.0426 267.623 47.9644C267.586 47.8861 267.565 47.8012 267.561 47.7146C267.557 47.628 267.57 47.5414 267.6 47.4601C267.665 47.2991 267.79 47.17 267.949 47.1007C268.108 47.0315 268.288 47.0277 268.45 47.0901L280.61 51.6301C280.692 51.6581 280.768 51.7022 280.832 51.7599C280.897 51.8175 280.95 51.8876 280.987 51.9658C281.024 52.0441 281.045 52.129 281.049 52.2156C281.053 52.3022 281.04 52.3888 281.01 52.4701H281Z" fill="#0089FF"/>
<path d="M280.16 54.6898C280.095 54.8508 279.97 54.9799 279.811 55.0492C279.652 55.1184 279.472 55.1223 279.31 55.0598L267.15 50.5198C267.068 50.4918 266.992 50.4477 266.928 50.3901C266.863 50.3324 266.81 50.2624 266.773 50.1841C266.736 50.1058 266.715 50.0209 266.711 49.9343C266.707 49.8477 266.72 49.7612 266.75 49.6798C266.815 49.5188 266.94 49.3897 267.099 49.3205C267.258 49.2512 267.438 49.2474 267.6 49.3098L279.76 53.8498C279.842 53.8778 279.918 53.9219 279.982 53.9796C280.047 54.0373 280.1 54.1073 280.137 54.1856C280.174 54.2638 280.195 54.3488 280.199 54.4354C280.203 54.522 280.19 54.6085 280.16 54.6898Z" fill="#0089FF"/>
<path d="M279.4 56.9999C279.369 57.0804 279.322 57.154 279.263 57.2164C279.203 57.2787 279.132 57.3286 279.053 57.363C278.973 57.3975 278.888 57.4158 278.802 57.417C278.716 57.4182 278.63 57.4021 278.55 57.3699L266.39 52.8299C266.228 52.7689 266.095 52.6473 266.02 52.4906C265.946 52.3339 265.935 52.1544 265.99 51.9899C266.057 51.8281 266.184 51.6989 266.345 51.6297C266.505 51.5606 266.687 51.5571 266.85 51.6199L279 56.1099C279.082 56.1379 279.158 56.182 279.222 56.2396C279.287 56.2973 279.34 56.3673 279.377 56.4456C279.414 56.5239 279.435 56.6088 279.439 56.6954C279.443 56.782 279.43 56.8685 279.4 56.9499V56.9999Z" fill="#0089FF"/>
<path d="M278.6 59.2606C278.568 59.3415 278.52 59.4154 278.46 59.4778C278.399 59.5403 278.327 59.5901 278.247 59.6245C278.167 59.6589 278.081 59.6771 277.994 59.6782C277.907 59.6792 277.821 59.6631 277.74 59.6306L265.59 55.0906C265.508 55.0625 265.432 55.0184 265.367 54.9609C265.302 54.9035 265.249 54.8337 265.211 54.7557C265.173 54.6777 265.15 54.5929 265.145 54.5062C265.14 54.4195 265.152 54.3327 265.18 54.2506C265.247 54.0889 265.374 53.9596 265.535 53.8905C265.695 53.8213 265.877 53.8178 266.04 53.8806L278.19 58.4206C278.354 58.4796 278.489 58.6004 278.566 58.7573C278.642 58.9142 278.655 59.0948 278.6 59.2606Z" fill="#0089FF"/>
<path d="M286.27 77.6205C286.267 77.9874 286.12 78.3384 285.859 78.5969C285.599 78.8554 285.247 79.0005 284.88 79.0005H255.88C255.511 79.0005 255.158 78.8541 254.897 78.5934C254.636 78.3327 254.49 77.9792 254.49 77.6105V59.2205C254.49 58.4105 254.49 56.4305 254.49 54.5205H263.36L265.54 57.8305H284.89C285.073 57.8305 285.253 57.8665 285.422 57.9363C285.591 58.0062 285.744 58.1086 285.873 58.2376C286.002 58.3667 286.104 58.5199 286.174 58.6886C286.244 58.8572 286.28 59.038 286.28 59.2205L286.27 77.6205Z" fill="#0089FF"/>
<path d="M284.88 79.5904H255.88C255.35 79.5904 254.841 79.3797 254.466 79.0046C254.091 78.6296 253.88 78.1209 253.88 77.5904V58.8604C253.88 57.9304 253.88 56.1904 253.88 54.5204V53.9404H263.65L265.83 57.2504H284.83C285.36 57.2504 285.869 57.4611 286.244 57.8362C286.619 58.2113 286.83 58.72 286.83 59.2504V77.6504C286.815 78.1619 286.604 78.648 286.241 79.0089C285.879 79.3697 285.392 79.5779 284.88 79.5904ZM255.06 55.1004C255.06 56.5804 255.06 58.0304 255.06 58.8604V77.6204C255.06 77.8353 255.145 78.0413 255.297 78.1932C255.449 78.3451 255.655 78.4304 255.87 78.4304H284.87C285.085 78.4304 285.291 78.3451 285.443 78.1932C285.595 78.0413 285.68 77.8353 285.68 77.6204V59.2204C285.68 59.0056 285.595 58.7996 285.443 58.6477C285.291 58.4958 285.085 58.4104 284.87 58.4104H265.22L263 55.1004H255.06Z" fill="#F5F8FD"/>
<path d="M271.58 63.0003C272.22 62.2713 273.063 61.7484 274 61.4977C274.938 61.247 275.928 61.2798 276.847 61.5918C277.766 61.9038 278.572 62.4811 279.163 63.2508C279.754 64.0205 280.104 64.948 280.168 65.9163C280.232 66.8846 280.008 67.8502 279.524 68.6912C279.039 69.5321 278.317 70.2107 277.447 70.6413C276.577 71.0719 275.6 71.2351 274.637 71.1103C273.675 70.9855 272.771 70.5784 272.04 69.9403C271.062 69.0793 270.464 67.8658 270.378 66.5652C270.291 65.2647 270.724 63.9829 271.58 63.0003ZM278.12 68.7403C278.612 68.1779 278.926 67.4823 279.023 66.7414C279.12 66.0004 278.996 65.2474 278.665 64.5774C278.334 63.9073 277.812 63.3504 277.164 62.9769C276.517 62.6035 275.774 62.4302 275.028 62.4791C274.283 62.528 273.568 62.7968 272.975 63.2515C272.382 63.7063 271.937 64.3266 271.697 65.0341C271.456 65.7415 271.431 66.5045 271.623 67.2264C271.816 67.9484 272.219 68.597 272.78 69.0903C273.543 69.742 274.532 70.0656 275.532 69.9907C276.533 69.9158 277.463 69.4483 278.12 68.6903V68.7403Z" fill="white"/>
<path d="M262.66 73.5301L270.08 68.3701C270.326 69.0991 270.786 69.7369 271.4 70.2001L264 75.3601C263.757 75.5378 263.454 75.6118 263.157 75.5659C262.86 75.5199 262.593 75.3578 262.415 75.1151C262.237 74.8724 262.163 74.5691 262.209 74.2719C262.255 73.9746 262.417 73.7078 262.66 73.5301Z" fill="white"/>
</svg>
