<svg width="324" height="118" viewBox="0 0 324 118" fill="none" xmlns="http://www.w3.org/2000/svg">
<path d="M84.3436 72.8202C83.9024 72.2849 83.6292 71.6312 83.5583 70.9411C83.4875 70.251 83.6221 69.5554 83.9453 68.9416C84.2685 68.3278 84.7658 67.8232 85.3748 67.4911C85.9839 67.159 86.6775 67.0143 87.3685 67.0751C88.0595 67.1359 88.7172 67.3995 89.2588 67.8329C89.8005 68.2662 90.2021 68.85 90.4131 69.5108C90.6241 70.1716 90.6352 70.88 90.4449 71.5471C90.2546 72.2142 89.8715 72.8102 89.3436 73.2602C88.988 73.5633 88.5757 73.7926 88.1307 73.9347C87.6856 74.0768 87.2167 74.1289 86.7514 74.088C86.286 74.047 85.8334 73.9138 85.42 73.6962C85.0066 73.4785 84.6407 73.1807 84.3436 72.8202Z" fill="#0089FF"/>
<g opacity="0.9">
<path opacity="0.9" d="M89.7135 63.4999C89.2724 62.9646 88.9992 62.3108 88.9283 61.6208C88.8575 60.9307 88.9921 60.2351 89.3153 59.6213C89.6384 59.0075 90.1358 58.5028 90.7448 58.1708C91.3539 57.8387 92.0475 57.694 92.7385 57.7548C93.4295 57.8156 94.0872 58.0792 94.6288 58.5126C95.1705 58.9459 95.5721 59.5296 95.7831 60.1905C95.9941 60.8513 96.0052 61.5597 95.8149 62.2268C95.6246 62.8939 95.2414 63.4899 94.7135 63.9399C94.358 64.243 93.9457 64.4723 93.5007 64.6144C93.0556 64.7565 92.5867 64.8086 92.1213 64.7677C91.656 64.7267 91.2034 64.5935 90.79 64.3759C90.3766 64.1582 90.0107 63.8604 89.7135 63.4999Z" fill="#0089FF"/>
</g>
<g opacity="0.8">
<path opacity="0.8" d="M87.9437 53.0502C87.5025 52.5149 87.2293 51.8611 87.1584 51.1711C87.0876 50.481 87.2222 49.7854 87.5454 49.1716C87.8686 48.5578 88.3659 48.0531 88.9749 47.7211C89.584 47.389 90.2776 47.2442 90.9686 47.3051C91.6596 47.3659 92.3173 47.6295 92.8589 48.0628C93.4006 48.4962 93.8022 49.0799 94.0132 49.7407C94.2242 50.4016 94.2353 51.11 94.045 51.7771C93.8547 52.4442 93.4716 53.0402 92.9437 53.4902C92.5881 53.7933 92.1758 54.0226 91.7308 54.1647C91.2857 54.3068 90.8168 54.3589 90.3515 54.318C89.8861 54.277 89.4335 54.1438 89.0201 53.9262C88.6067 53.7085 88.2408 53.4107 87.9437 53.0502Z" fill="#0089FF"/>
</g>
<g opacity="0.7">
<path opacity="0.7" d="M79.5436 46.0502C79.1012 45.5158 78.8266 44.8626 78.7543 44.1726C78.682 43.4827 78.8151 42.7867 79.1371 42.1722C79.459 41.5577 79.9553 41.052 80.5638 40.7186C81.1722 40.3853 81.8655 40.2391 82.5567 40.2986C83.2479 40.358 83.9061 40.6204 84.4487 41.0527C84.9913 41.4851 85.394 42.0681 85.6063 42.7285C85.8185 43.389 85.8309 44.0975 85.6419 44.765C85.4528 45.4324 85.0707 46.0292 84.5436 46.4802C84.1887 46.7839 83.7769 47.0139 83.3322 47.1568C82.8875 47.2997 82.4189 47.3527 81.9535 47.3127C81.4881 47.2727 81.0354 47.1404 80.6216 46.9237C80.2079 46.7069 79.8414 46.41 79.5436 46.0502Z" fill="#0089FF"/>
</g>
<g opacity="0.6">
<path opacity="0.6" d="M69.0036 45.9999C68.5624 45.4646 68.2892 44.8108 68.2184 44.1208C68.1475 43.4307 68.2821 42.7351 68.6053 42.1213C68.9285 41.5075 69.4258 41.0028 70.0349 40.6708C70.6439 40.3387 71.3375 40.194 72.0285 40.2548C72.7195 40.3156 73.3772 40.5792 73.9189 41.0126C74.4606 41.4459 74.8621 42.0296 75.0731 42.6905C75.2842 43.3513 75.2952 44.0597 75.1049 44.7268C74.9146 45.3939 74.5315 45.9899 74.0036 46.4399C73.6475 46.7417 73.235 46.9699 72.7902 47.1113C72.3453 47.2526 71.8768 47.3044 71.4118 47.2634C70.9467 47.2225 70.4945 47.0898 70.0811 46.8729C69.6677 46.656 69.3015 46.3593 69.0036 45.9999Z" fill="#0089FF"/>
</g>
<g opacity="0.5">
<path opacity="0.5" d="M60.6235 53.0702C60.1812 52.5358 59.9066 51.8826 59.8342 51.1926C59.7619 50.5027 59.8951 49.8067 60.217 49.1922C60.539 48.5777 61.0353 48.072 61.6437 47.7386C62.2521 47.4053 62.9455 47.2592 63.6367 47.3186C64.3279 47.3781 64.9861 47.6404 65.5287 48.0727C66.0712 48.5051 66.4739 49.0881 66.6862 49.7486C66.8985 50.409 66.9109 51.1175 66.7218 51.785C66.5328 52.4525 66.1507 53.0492 65.6235 53.5002C65.2686 53.8039 64.8569 54.0339 64.4122 54.1768C63.9675 54.3197 63.4988 54.3727 63.0335 54.3327C62.5681 54.2927 62.1153 54.1605 61.7016 53.9437C61.2879 53.727 60.9214 53.43 60.6235 53.0702Z" fill="#0089FF"/>
</g>
<g opacity="0.4">
<path opacity="0.4" d="M58.8036 63.4501C58.3625 62.9148 58.0893 62.261 58.0184 61.571C57.9476 60.8809 58.0822 60.1853 58.4054 59.5715C58.7285 58.9577 59.2259 58.453 59.8349 58.121C60.444 57.7889 61.1376 57.6441 61.8286 57.705C62.5196 57.7658 63.1772 58.0294 63.7189 58.4627C64.2606 58.8961 64.6622 59.4798 64.8732 60.1407C65.0842 60.8015 65.0953 61.5099 64.905 62.177C64.7147 62.8441 64.3315 63.4401 63.8036 63.8901C63.4481 64.1932 63.0358 64.4225 62.5908 64.5646C62.1457 64.7067 61.6768 64.7588 61.2114 64.7179C60.746 64.6769 60.2935 64.5437 59.8801 64.3261C59.4667 64.1084 59.1008 63.8106 58.8036 63.4501Z" fill="#0089FF"/>
</g>
<g opacity="0.3">
<path opacity="0.3" d="M64.2535 72.8901C63.8112 72.3556 63.5366 71.7024 63.4643 71.0125C63.3919 70.3225 63.5251 69.6266 63.847 69.012C64.169 68.3975 64.6653 67.8918 65.2737 67.5585C65.8821 67.2251 66.5755 67.079 67.2667 67.1384C67.9579 67.1979 68.6161 67.4602 69.1587 67.8926C69.7012 68.3249 70.1039 68.9079 70.3162 69.5684C70.5285 70.2289 70.5409 70.9373 70.3518 71.6048C70.1628 72.2723 69.7807 72.869 69.2535 73.3201C68.8986 73.6237 68.4869 73.8537 68.0422 73.9966C67.5975 74.1396 67.1288 74.1926 66.6635 74.1525C66.1981 74.1125 65.7453 73.9803 65.3316 73.7635C64.9179 73.5468 64.5514 73.2499 64.2535 72.8901Z" fill="#0089FF"/>
</g>
<g opacity="0.2">
<path opacity="0.2" d="M74.2336 76.4901C73.7924 75.9548 73.5192 75.3011 73.4483 74.611C73.3775 73.9209 73.5121 73.2253 73.8353 72.6115C74.1585 71.9977 74.6558 71.4931 75.2649 71.161C75.8739 70.8289 76.5675 70.6842 77.2585 70.745C77.9495 70.8058 78.6072 71.0694 79.1489 71.5028C79.6905 71.9361 80.0921 72.5199 80.3031 73.1807C80.5141 73.8415 80.5252 74.5499 80.3349 75.217C80.1446 75.8841 79.7615 76.4801 79.2336 76.9301C78.878 77.2332 78.4657 77.4625 78.0207 77.6046C77.5756 77.7467 77.1068 77.7988 76.6414 77.7579C76.176 77.7169 75.7234 77.5837 75.31 77.3661C74.8966 77.1484 74.5307 76.8507 74.2336 76.4901Z" fill="#0089FF"/>
</g>
<g opacity="0.1">
<path opacity="0.1" d="M84.3436 72.8202C83.9024 72.2849 83.6292 71.6312 83.5583 70.9411C83.4875 70.251 83.6221 69.5554 83.9453 68.9416C84.2685 68.3278 84.7658 67.8232 85.3748 67.4911C85.9839 67.159 86.6775 67.0143 87.3685 67.0751C88.0595 67.1359 88.7172 67.3995 89.2588 67.8329C89.8005 68.2662 90.2021 68.85 90.4131 69.5108C90.6241 70.1716 90.6352 70.88 90.4449 71.5471C90.2546 72.2142 89.8715 72.8102 89.3436 73.2602C88.988 73.5633 88.5757 73.7926 88.1307 73.9347C87.6856 74.0768 87.2167 74.1289 86.7514 74.088C86.286 74.047 85.8334 73.9138 85.42 73.6962C85.0066 73.4785 84.6407 73.1807 84.3436 72.8202Z" fill="#0089FF"/>
</g>
<path d="M113.36 59.582H116.024C117.104 59.582 117.572 60.122 117.572 61.382C117.572 62.642 117.104 63.11 115.862 63.11H114.26C113.54 63.11 113.36 62.93 113.36 62.21V59.582ZM113.36 55.19C113.36 54.47 113.54 54.29 114.26 54.29H115.97C117.05 54.29 117.374 54.884 117.374 55.964C117.374 57.224 117.05 57.692 115.988 57.692H113.36V55.19ZM118.04 58.628V58.556C119.408 58.358 119.822 57.206 119.822 55.856C119.822 53.588 118.922 52.4 117.104 52.4H112.82C111.74 52.4 110.984 52.85 110.984 54.29V63.11C110.984 64.55 111.74 65 112.82 65H117.104C119.516 65 120.02 63.47 120.02 61.544C120.02 59.906 119.516 58.754 118.04 58.628ZM129.655 65V56.81C129.655 55.388 128.557 55.352 128.089 55.352C127.477 55.352 126.433 55.442 126.073 56.54L124.165 62.246C124.111 62.39 124.039 62.498 123.913 62.498C123.769 62.498 123.769 62.408 123.769 62.246L123.859 55.46H121.753V63.758C121.753 64.442 122.095 65.108 123.319 65.108C124.219 65.108 125.065 64.838 125.407 63.812L127.261 58.214C127.351 57.962 127.459 57.962 127.513 57.962C127.585 57.962 127.621 58.016 127.621 58.214L127.549 65H129.655ZM130.236 67.25H132.342V65.54C132.342 65.198 132.504 65 132.81 65H138.552C138.912 65 139.092 65.18 139.092 65.54V67.25H141.198V65C141.198 63.92 140.946 63.38 140.046 63.38H139.812L137.94 56.648C137.652 55.604 136.734 55.352 135.726 55.352C134.736 55.352 133.8 55.55 133.494 56.648L131.64 63.38H131.388C130.488 63.38 130.236 63.92 130.236 65V67.25ZM135.276 57.566C135.348 57.296 135.51 57.134 135.726 57.134C135.96 57.134 136.086 57.314 136.158 57.566L137.616 63.38H133.836L135.276 57.566ZM143.841 65L145.875 61.238C146.037 60.932 146.235 60.554 146.235 60.086C146.235 59.618 145.929 59.186 145.749 58.808L144.147 55.46H141.933L144.003 59.312C144.147 59.582 144.273 59.834 144.273 60.086C144.273 60.338 144.147 60.554 143.931 60.932L141.591 65H143.841ZM148.683 65V55.46H146.631V65H148.683ZM153.723 65L151.383 60.932C151.167 60.554 151.041 60.338 151.041 60.086C151.041 59.834 151.167 59.582 151.311 59.312L153.381 55.46H151.167L149.565 58.808C149.385 59.186 149.079 59.618 149.079 60.086C149.079 60.554 149.277 60.932 149.439 61.238L151.473 65H153.723ZM161.296 65V63.38H158.074C156.454 63.38 156.022 62.372 156.022 60.932H160.126C161.206 60.932 161.602 60.212 161.602 59.132C161.602 56.072 160.252 55.352 157.732 55.352C154.672 55.352 153.844 56.432 153.844 60.212C153.844 63.272 154.564 65 157.444 65H161.296ZM156.022 59.312C156.022 57.692 156.292 56.972 157.732 56.972C158.812 56.972 159.424 57.494 159.424 58.754C159.424 59.024 159.37 59.312 158.956 59.312H156.022ZM167.114 65V57.08H169.976V55.46H162.146V57.08H165.008V65H167.114ZM179.065 55.352C175.825 55.352 174.709 56.432 174.709 60.212C174.709 64.028 175.825 65.108 179.065 65.108C182.305 65.108 183.421 64.028 183.421 60.212C183.421 56.432 182.305 55.352 179.065 55.352ZM176.887 60.212C176.887 57.872 177.265 56.972 179.065 56.972C180.865 56.972 181.243 57.872 181.243 60.212C181.243 62.552 180.865 63.488 179.065 63.488C177.265 63.488 176.887 62.552 176.887 60.212ZM188.752 65V57.08H191.614V55.46H183.784V57.08H186.646V65H188.752ZM198.253 57.08V55.46H195.877C192.637 55.46 191.971 57.332 191.971 60.212C191.971 63.092 192.637 65 195.877 65H198.469V63.38H196.399C194.185 63.38 194.149 62.012 194.149 60.212C194.149 58.412 194.185 57.08 196.399 57.08H198.253ZM208.007 55.46H205.865L203.597 62.426L201.005 55.46H198.827L202.571 65L201.437 68.078H203.579L208.007 55.46ZM213.52 65V57.08H216.382V55.46H208.552V57.08H211.414V65H213.52ZM223.02 57.08V55.46H220.644C217.404 55.46 216.738 57.332 216.738 60.212C216.738 63.092 217.404 65 220.644 65H223.236V63.38H221.166C218.952 63.38 218.916 62.012 218.916 60.212C218.916 58.412 218.952 57.08 221.166 57.08H223.02ZM228.918 65V57.08H231.78V55.46H223.95V57.08H226.812V65H228.918ZM237.317 65C239.297 65 239.927 64.1 239.927 62.3C239.927 61.04 239.585 60.32 238.289 60.104V60.032C239.603 59.87 239.855 58.988 239.855 57.728C239.855 55.928 238.811 55.46 237.191 55.46H234.221C233.141 55.46 232.601 56 232.601 57.08V63.38C232.601 64.46 233.141 65 234.221 65H237.317ZM234.707 60.878H236.525C237.425 60.878 237.749 61.4 237.749 62.12C237.749 63.02 237.425 63.38 236.525 63.38H235.247C234.887 63.38 234.707 63.2 234.707 62.84V60.878ZM234.707 59.258V57.62C234.707 57.26 234.887 57.08 235.247 57.08H236.525C237.317 57.08 237.677 57.44 237.677 58.16C237.677 58.88 237.317 59.258 236.525 59.258H234.707ZM249.544 55.46H247.402L245.134 62.426L242.542 55.46H240.364L244.108 65L242.974 68.078H245.116L249.544 55.46ZM257.36 65V63.38H254.138C252.518 63.38 252.086 62.372 252.086 60.932H256.19C257.27 60.932 257.666 60.212 257.666 59.132C257.666 56.072 256.316 55.352 253.796 55.352C250.736 55.352 249.908 56.432 249.908 60.212C249.908 63.272 250.628 65 253.508 65H257.36ZM252.086 59.312C252.086 57.692 252.356 56.972 253.796 56.972C254.876 56.972 255.488 57.494 255.488 58.754C255.488 59.024 255.434 59.312 255.02 59.312H252.086ZM263.178 65V57.08H266.04V55.46H258.21V57.08H261.072V65H263.178Z" fill="#303549"/>
</svg>
