<svg id="ebd37670-5a14-4ba6-bf48-a5f9e82eac70" data-name="1" xmlns="http://www.w3.org/2000/svg" viewBox="0 0 324 116.75"><defs><style>.aa677e66-ff8e-4b6c-b8aa-4b860b3b3921{fill:#5e6581;opacity:0.2;}.f966546b-58c6-4597-be58-928a2cd20b0f{fill:none;stroke:#0d1014;stroke-miterlimit:10;stroke-width:4.59px;opacity:0.4;}.b84e9d70-ee79-4b95-8f9f-f8cf7dd026f1{fill:#5b607d;}.a9b4db30-e8cd-4010-b8d8-41c76404c5c3{fill:#1b1e27;}.b3e71afe-945b-4fb8-9dce-cee68a8dd99c{opacity:0.5;font-size:21.85px;fill:#616580;}.a60a9775-eab6-4a39-aa34-b2c694e42f43,.a6134dcd-bd86-4dac-ab07-eecb2f45982d,.a9e25ff1-7127-43ce-b660-bce7460235ec,.b3e71afe-945b-4fb8-9dce-cee68a8dd99c,.bf5030fc-8fa4-4c76-8533-9b08028f26c5,.f4373fcf-b7f2-4e0a-a724-6e7bf63e77a8{font-family:Tahoma;}.a45532d5-d23a-4b3d-8956-62b607e9fde3,.a60a9775-eab6-4a39-aa34-b2c694e42f43,.a9e25ff1-7127-43ce-b660-bce7460235ec{fill:#f4a321;}.be4c27f3-1669-4bd9-bca8-0579eca701ae{fill:#fff;}.a0dc5728-f80c-4b07-8dbb-6b6423fce0b1,.a6134dcd-bd86-4dac-ab07-eecb2f45982d,.bf5030fc-8fa4-4c76-8533-9b08028f26c5,.f4373fcf-b7f2-4e0a-a724-6e7bf63e77a8{fill:#a2e2ff;}.b53f223c-61e2-441f-933e-73617c0dafef{fill:#0d1014;}.a60a9775-eab6-4a39-aa34-b2c694e42f43,.bf5030fc-8fa4-4c76-8533-9b08028f26c5{font-size:12.32px;}.a9e25ff1-7127-43ce-b660-bce7460235ec,.f4373fcf-b7f2-4e0a-a724-6e7bf63e77a8{font-size:8.8px;}.a6134dcd-bd86-4dac-ab07-eecb2f45982d{font-size:12.57px;}.e1ea93d3-11e7-4924-b9d3-8e2f2a6de5e5{font-size:8.56px;}</style></defs><title>Prew</title><path class="aa677e66-ff8e-4b6c-b8aa-4b860b3b3921" d="M80.57,10.9a48.1,48.1,0,1,0,22.18,90.79l-1.43-.52a47,47,0,1,1,15.29-12l.23,1.44a48.11,48.11,0,0,0,10.72-41.87s1.62-2,3-3.82A52.08,52.08,0,0,0,107,14.12L102.17,16A47.8,47.8,0,0,0,80.57,10.9Z"/><circle class="f966546b-58c6-4597-be58-928a2cd20b0f" cx="80.39" cy="58.75" r="36.45"/><path class="b84e9d70-ee79-4b95-8f9f-f8cf7dd026f1" d="M85.25,25.26A33.84,33.84,0,1,1,59.12,85.07l24.61-22.7,1.59-1.47V58.74l-.06-33.48M80.39,20h-.07l.07,38.76L51.9,85A38.76,38.76,0,1,0,80.39,20Z"/><circle class="a9b4db30-e8cd-4010-b8d8-41c76404c5c3" cx="80.39" cy="58.75" r="35.18"/><text class="b3e71afe-945b-4fb8-9dce-cee68a8dd99c" transform="translate(73.76 67.32)">0</text><path class="a45532d5-d23a-4b3d-8956-62b607e9fde3" d="M80.39,58.75,80.32,20h.07A38.77,38.77,0,1,1,52.9,31.43Z"/><path class="be4c27f3-1669-4bd9-bca8-0579eca701ae" d="M80.39,58.75,80.32,20h.07A38.76,38.76,0,1,1,50.58,34Z"/><circle class="a9b4db30-e8cd-4010-b8d8-41c76404c5c3" cx="80.39" cy="58.75" r="35.69"/><rect class="a0dc5728-f80c-4b07-8dbb-6b6423fce0b1" x="79.9" y="17.21" width="0.99" height="9.42"/><circle class="b53f223c-61e2-441f-933e-73617c0dafef" cx="80.39" cy="17.21" r="1.65"/><path class="a0dc5728-f80c-4b07-8dbb-6b6423fce0b1" d="M80.39,15.9a1.32,1.32,0,1,1-1.31,1.31,1.32,1.32,0,0,1,1.31-1.31m0-.67a2,2,0,1,0,2,2,2,2,0,0,0-2-2Z"/><circle class="b53f223c-61e2-441f-933e-73617c0dafef" cx="80.39" cy="26.34" r="1.65"/><path class="a0dc5728-f80c-4b07-8dbb-6b6423fce0b1" d="M80.39,25a1.32,1.32,0,1,1-1.31,1.31A1.32,1.32,0,0,1,80.39,25m0-.67a2,2,0,1,0,2,2,2,2,0,0,0-2-2Z"/><text class="a60a9775-eab6-4a39-aa34-b2c694e42f43" transform="translate(164.17 67.24)">+ 0.18</text><path class="a45532d5-d23a-4b3d-8956-62b607e9fde3" d="M213.11,63.26a.32.32,0,0,1,.23.09l3.74,3.74a.33.33,0,0,1,0,.47.32.32,0,0,1-.46,0l-3.51-3.51-3.5,3.51a.33.33,0,0,1-.47-.47l3.74-3.74A.33.33,0,0,1,213.11,63.26Z"/><path class="a45532d5-d23a-4b3d-8956-62b607e9fde3" d="M213.11,58.86a.32.32,0,0,1,.23.09l3.74,3.74a.33.33,0,0,1,0,.47.32.32,0,0,1-.46,0l-3.51-3.51-3.5,3.51a.33.33,0,0,1-.47-.47L212.88,59A.33.33,0,0,1,213.11,58.86Z"/><text class="a9e25ff1-7127-43ce-b660-bce7460235ec" transform="translate(168.68 49.77)">Отклонение</text><text class="bf5030fc-8fa4-4c76-8533-9b08028f26c5" transform="translate(243 67.38)">- 0.02</text><path class="a0dc5728-f80c-4b07-8dbb-6b6423fce0b1" d="M287.45,63.18a.3.3,0,0,1-.23-.1l-3.74-3.74a.32.32,0,0,1,0-.46.33.33,0,0,1,.47,0l3.5,3.5,3.51-3.5a.33.33,0,0,1,.47,0,.34.34,0,0,1,0,.46l-3.74,3.74A.33.33,0,0,1,287.45,63.18Z"/><path class="a0dc5728-f80c-4b07-8dbb-6b6423fce0b1" d="M287.45,67.58a.3.3,0,0,1-.23-.1l-3.74-3.74a.32.32,0,0,1,0-.46.33.33,0,0,1,.47,0l3.5,3.5,3.51-3.5a.33.33,0,0,1,.47,0,.34.34,0,0,1,0,.46l-3.74,3.74A.33.33,0,0,1,287.45,67.58Z"/><text class="f4373fcf-b7f2-4e0a-a724-6e7bf63e77a8" transform="translate(246.4 49.77)">Улучшение</text><text class="a6134dcd-bd86-4dac-ab07-eecb2f45982d" transform="translate(68.58 63.27)">0.2<tspan class="e1ea93d3-11e7-4924-b9d3-8e2f2a6de5e5" x="17.53" y="0">%</tspan></text><path class="b53f223c-61e2-441f-933e-73617c0dafef" d="M47.19,33.1a1.65,1.65,0,1,1,1.65-1.65A1.65,1.65,0,0,1,47.19,33.1Z"/><path class="be4c27f3-1669-4bd9-bca8-0579eca701ae" d="M47.19,30.13a1.32,1.32,0,1,1-1.31,1.32,1.32,1.32,0,0,1,1.31-1.32m0-.66a2,2,0,1,0,2,2,2,2,0,0,0-2-2Z"/><path class="b53f223c-61e2-441f-933e-73617c0dafef" d="M58.56,38.21a1.65,1.65,0,1,1,1.65-1.65A1.65,1.65,0,0,1,58.56,38.21Z"/><path class="a45532d5-d23a-4b3d-8956-62b607e9fde3" d="M58.56,35.24a1.32,1.32,0,1,1-1.32,1.32,1.32,1.32,0,0,1,1.32-1.32m0-.67a2,2,0,1,0,2,2,2,2,0,0,0-2-2Z"/></svg>