<svg width="324" height="117" viewBox="0 0 324 117" fill="none" xmlns="http://www.w3.org/2000/svg">
<path d="M80.57 10.9C73.2837 10.9027 66.0931 12.5607 59.5413 15.7489C52.9895 18.937 47.2476 23.572 42.7491 29.3039C38.2506 35.0358 35.1132 41.7148 33.5736 48.8366C32.034 55.9584 32.1325 63.337 33.8617 70.4152C35.5909 77.4933 38.9056 84.0862 43.5555 89.6959C48.2054 95.3057 54.069 99.7857 60.7037 102.798C67.3383 105.81 74.5705 107.275 81.8543 107.083C89.1381 106.891 96.2832 105.047 102.75 101.69L101.32 101.17C90.8938 106.299 78.9375 107.383 67.7585 104.215C56.5795 101.047 46.9705 93.8496 40.7858 84.013C34.6012 74.1764 32.2794 62.3976 34.2687 50.9498C36.2579 39.502 42.4171 29.1969 51.5575 22.0233C60.6979 14.8496 72.1715 11.3161 83.7641 12.1045C95.3566 12.8929 106.246 17.9475 114.331 26.2927C122.416 34.6379 127.123 45.6821 127.544 57.2938C127.965 68.9055 124.07 80.2615 116.61 89.17L116.84 90.61C121.769 84.9507 125.305 78.2168 127.166 70.9466C129.028 63.6764 129.163 56.0716 127.56 48.74C127.56 48.74 129.18 46.74 130.56 44.92C126.964 32.0034 118.525 20.9712 107 14.12L102.17 16C95.4698 12.6289 88.0704 10.8818 80.57 10.9Z" fill="#EBF1F9"/>
<path opacity="0.4" d="M80.39 95.1998C100.521 95.1998 116.84 78.8806 116.84 58.7498C116.84 38.619 100.521 22.2998 80.39 22.2998C60.2592 22.2998 43.94 38.619 43.94 58.7498C43.94 78.8806 60.2592 95.1998 80.39 95.1998Z" fill="white" stroke="white" stroke-width="4.59" stroke-miterlimit="10"/>
<path d="M85.25 25.26C90.4036 26.0081 95.315 27.9356 99.6018 30.8923C103.889 33.849 107.435 37.7552 109.965 42.3068C112.496 46.8583 113.941 51.9324 114.19 57.1341C114.438 62.3358 113.483 67.5246 111.398 72.2967C109.313 77.0687 106.155 81.2952 102.17 84.6471C98.1845 87.9991 93.4793 90.3859 88.4205 91.622C83.3617 92.858 78.0859 92.9098 73.0038 91.7734C67.9217 90.637 63.1705 88.343 59.12 85.07L83.73 62.37L85.32 60.9V58.74L85.26 25.26H85.25ZM80.39 20H80.32L80.39 58.76L51.9 85C56.2626 89.7429 61.7389 93.3232 67.8334 95.417C73.9279 97.5108 80.4482 98.052 86.8045 96.9917C93.1608 95.9315 99.1525 93.3031 104.237 89.3445C109.322 85.3859 113.34 80.2219 115.927 74.3198C118.514 68.4177 119.588 61.9638 119.053 55.5419C118.518 49.12 116.391 42.9328 112.863 37.5402C109.335 32.1476 104.518 27.7197 98.848 24.6571C93.1781 21.5945 86.8341 19.9938 80.39 20Z" fill="#8C99B2"/>
<path d="M80.39 93.9298C99.8194 93.9298 115.57 78.1792 115.57 58.7498C115.57 39.3204 99.8194 23.5698 80.39 23.5698C60.9606 23.5698 45.21 39.3204 45.21 58.7498C45.21 78.1792 60.9606 93.9298 80.39 93.9298Z" fill="#F5F8FD"/>
<path opacity="0.5" d="M84.8024 59.5219C84.8024 62.374 84.3863 64.4687 83.5541 65.8059C82.729 67.1359 81.4523 67.801 79.7239 67.801C77.9742 67.801 76.6904 67.1217 75.8725 65.7632C75.0545 64.4047 74.6455 62.3313 74.6455 59.5432C74.6455 56.6768 75.0581 54.5821 75.8831 53.2592C76.7153 51.9291 77.9956 51.2641 79.7239 51.2641C81.4736 51.2641 82.7575 51.9505 83.5754 53.3232C84.3934 54.6959 84.8024 56.7621 84.8024 59.5219ZM82.0711 64.3656C82.2774 63.8392 82.4232 63.1742 82.5085 62.3705C82.5939 61.5667 82.6366 60.6172 82.6366 59.5219C82.6366 58.4336 82.5939 57.4876 82.5085 56.6839C82.4232 55.8802 82.2738 55.2116 82.0604 54.6781C81.8471 54.1376 81.5519 53.7286 81.1749 53.4512C80.8051 53.1667 80.3214 53.0245 79.7239 53.0245C79.1336 53.0245 78.6464 53.1667 78.2623 53.4512C77.8853 53.7286 77.5866 54.1447 77.3661 54.6995C77.1527 55.24 77.0069 55.9229 76.9287 56.7479C76.8504 57.573 76.8113 58.5047 76.8113 59.5432C76.8113 60.6528 76.8433 61.581 76.9073 62.3278C76.9785 63.0746 77.1278 63.7432 77.3554 64.3335C77.5617 64.8812 77.8533 65.3044 78.2303 65.6031C78.6144 65.8948 79.1123 66.0406 79.7239 66.0406C80.3143 66.0406 80.7979 65.9019 81.1749 65.6245C81.559 65.34 81.8577 64.9203 82.0711 64.3656Z" fill="#8C99B2"/>
<path d="M80.39 58.75L80.32 20H80.39C89.3551 20.0003 98.043 23.1075 104.975 28.7927C111.907 34.4779 116.654 42.3897 118.409 51.1814C120.164 59.973 118.817 69.1012 114.599 77.0119C110.381 84.9226 103.552 91.127 95.2736 94.5689C86.9955 98.0108 77.7805 98.4775 69.1971 95.8895C60.6137 93.3015 53.1924 87.8189 48.1965 80.3748C43.2007 72.9307 40.9391 63.9854 41.7966 55.0614C42.6542 46.1374 46.578 37.7865 52.9 31.43L80.39 58.75Z" fill="#F7931E"/>
<path d="M80.39 58.75L80.32 20H80.39C89.2041 19.9975 97.7557 22.9992 104.635 28.51C111.513 34.0208 116.309 41.7116 118.229 50.3138C120.15 58.916 119.081 67.916 115.2 75.8294C111.318 83.7427 104.856 90.0968 96.8775 93.8436C88.8994 97.5904 79.8826 98.5062 71.3142 96.4399C62.7458 94.3736 55.1375 89.4486 49.7442 82.4773C44.3508 75.5059 41.4946 66.9046 41.6466 58.0918C41.7985 49.2791 44.9496 40.7813 50.58 34L80.39 58.75Z" fill="#8C99B2"/>
<path d="M80.39 94.4401C100.101 94.4401 116.08 78.4611 116.08 58.7501C116.08 39.039 100.101 23.0601 80.39 23.0601C60.679 23.0601 44.7 39.039 44.7 58.7501C44.7 78.4611 60.679 94.4401 80.39 94.4401Z" fill="#F5F8FD"/>
<path d="M80.89 17.21H79.9V26.63H80.89V17.21Z" fill="#A2E2FF"/>
<path d="M81.54 17.2101C81.54 17.8452 81.0251 18.3601 80.39 18.3601C79.7549 18.3601 79.24 17.8452 79.24 17.2101C79.24 16.5749 79.7549 16.0601 80.39 16.0601C81.0251 16.0601 81.54 16.5749 81.54 17.2101Z" fill="white" stroke="white"/>
<path d="M80.39 15.9C80.6519 15.898 80.9085 15.974 81.1271 16.1183C81.3457 16.2625 81.5164 16.4686 81.6176 16.7102C81.7187 16.9518 81.7457 17.218 81.6951 17.475C81.6445 17.732 81.5185 17.9681 81.3333 18.1533C81.1481 18.3385 80.912 18.4645 80.655 18.5151C80.3981 18.5657 80.1318 18.5387 79.8902 18.4375C79.6486 18.3364 79.4426 18.1657 79.2983 17.9471C79.154 17.7285 79.078 17.4719 79.08 17.21C79.0826 16.8634 79.2215 16.5317 79.4666 16.2866C79.7117 16.0415 80.0434 15.9026 80.39 15.9ZM80.39 15.23C79.9944 15.23 79.6078 15.3473 79.2789 15.567C78.95 15.7868 78.6936 16.0992 78.5422 16.4646C78.3909 16.8301 78.3513 17.2322 78.4284 17.6202C78.5056 18.0081 78.6961 18.3645 78.9758 18.6442C79.2555 18.9239 79.6119 19.1144 79.9998 19.1916C80.3878 19.2687 80.7899 19.2291 81.1554 19.0777C81.5208 18.9264 81.8332 18.67 82.0529 18.3411C82.2727 18.0122 82.39 17.6255 82.39 17.23C82.39 16.6995 82.1793 16.1908 81.8042 15.8158C81.4291 15.4407 80.9204 15.23 80.39 15.23Z" fill="#A2E2FF"/>
<path d="M81.54 26.3399C81.54 26.9751 81.0251 27.4899 80.39 27.4899C79.7549 27.4899 79.24 26.9751 79.24 26.3399C79.24 25.7048 79.7549 25.1899 80.39 25.1899C81.0251 25.1899 81.54 25.7048 81.54 26.3399Z" fill="white" stroke="white"/>
<path d="M80.39 25.0001C80.6519 24.9981 80.9085 25.0741 81.1271 25.2184C81.3457 25.3626 81.5164 25.5687 81.6176 25.8103C81.7187 26.0519 81.7457 26.3181 81.6951 26.5751C81.6445 26.8321 81.5185 27.0682 81.3333 27.2534C81.1481 27.4386 80.912 27.5645 80.655 27.6152C80.3981 27.6658 80.1318 27.6388 79.8902 27.5376C79.6486 27.4365 79.4426 27.2658 79.2983 27.0472C79.154 26.8286 79.078 26.572 79.08 26.3101C79.0826 25.9635 79.2215 25.6318 79.4666 25.3867C79.7117 25.1416 80.0434 25.0027 80.39 25.0001ZM80.39 24.3301C79.9944 24.3301 79.6078 24.4474 79.2789 24.6671C78.95 24.8869 78.6936 25.1993 78.5422 25.5647C78.3909 25.9302 78.3513 26.3323 78.4284 26.7203C78.5056 27.1082 78.6961 27.4646 78.9758 27.7443C79.2555 28.024 79.6119 28.2145 79.9998 28.2916C80.3878 28.3688 80.7899 28.3292 81.1554 28.1778C81.5208 28.0265 81.8332 27.7701 82.0529 27.4412C82.2727 27.1123 82.39 26.7256 82.39 26.3301C82.39 25.7996 82.1793 25.2909 81.8042 24.9159C81.4291 24.5408 80.9204 24.3301 80.39 24.3301Z" fill="#A2E2FF"/>
<path d="M172.189 63.479H169.151V66.5169H168.152V63.479H165.114V62.5165H168.152V59.4786H169.151V62.5165H172.189V63.479ZM183.209 62.4383C183.209 64.0465 182.975 65.2275 182.506 65.9815C182.04 66.7314 181.321 67.1064 180.346 67.1064C179.359 67.1064 178.636 66.7234 178.174 65.9574C177.713 65.1914 177.483 64.0224 177.483 62.4503C177.483 60.8341 177.715 59.653 178.18 58.9071C178.65 58.1572 179.371 57.7822 180.346 57.7822C181.333 57.7822 182.056 58.1692 182.518 58.9432C182.979 59.7172 183.209 60.8822 183.209 62.4383ZM181.669 65.1694C181.786 64.8726 181.868 64.4976 181.916 64.0445C181.964 63.5913 181.988 63.0559 181.988 62.4383C181.988 61.8247 181.964 61.2913 181.916 60.8381C181.868 60.3849 181.784 60.008 181.663 59.7072C181.543 59.4024 181.377 59.1718 181.164 59.0154C180.956 58.855 180.683 58.7748 180.346 58.7748C180.013 58.7748 179.738 58.855 179.522 59.0154C179.309 59.1718 179.141 59.4064 179.017 59.7192C178.896 60.024 178.814 60.409 178.77 60.8742C178.726 61.3394 178.704 61.8648 178.704 62.4503C178.704 63.0759 178.722 63.5993 178.758 64.0204C178.798 64.4415 178.882 64.8185 179.011 65.1513C179.127 65.4601 179.291 65.6988 179.504 65.8672C179.72 66.0316 180.001 66.1138 180.346 66.1138C180.679 66.1138 180.952 66.0356 181.164 65.8792C181.381 65.7188 181.549 65.4822 181.669 65.1694ZM186.289 66.9199H184.852V65.2055H186.289V66.9199ZM193.165 66.9199H188.798V66.0055H190.422V60.002H188.798V59.1838C189.412 59.1838 189.863 59.0976 190.151 58.9252C190.444 58.7487 190.609 58.4178 190.645 57.9326H191.577V66.0055H193.165V66.9199ZM199.043 60.0501C199.043 59.649 198.908 59.3142 198.64 59.0455C198.371 58.7768 197.998 58.6424 197.521 58.6424C197.083 58.6424 196.725 58.7627 196.444 59.0034C196.167 59.244 196.029 59.5688 196.029 59.9779C196.029 60.2747 196.099 60.5253 196.239 60.7298C196.384 60.9344 196.598 61.1189 196.883 61.2833C197.007 61.3515 197.196 61.4457 197.448 61.566C197.705 61.6863 197.938 61.7806 198.146 61.8488C198.495 61.5801 198.732 61.3053 198.856 61.0246C198.98 60.7399 199.043 60.415 199.043 60.0501ZM199.211 64.5377C199.211 64.1688 199.139 63.876 198.994 63.6595C198.85 63.4429 198.571 63.2223 198.158 62.9977C198.022 62.9215 197.839 62.8393 197.611 62.7511C197.386 62.6629 197.132 62.5586 196.847 62.4383C196.514 62.6589 196.259 62.9316 196.083 63.2564C195.906 63.5772 195.818 63.9442 195.818 64.3573C195.818 64.8987 195.981 65.3458 196.305 65.6988C196.634 66.0517 197.045 66.2281 197.539 66.2281C198.044 66.2281 198.449 66.0777 198.754 65.777C199.059 65.4722 199.211 65.0591 199.211 64.5377ZM197.527 67.1245C197.081 67.1245 196.676 67.0583 196.311 66.9259C195.947 66.7936 195.636 66.6031 195.379 66.3545C195.126 66.1138 194.934 65.8291 194.802 65.5002C194.673 65.1674 194.609 64.8165 194.609 64.4475C194.609 63.9622 194.737 63.5171 194.994 63.112C195.255 62.703 195.632 62.3781 196.125 62.1375V62.1014C195.684 61.8447 195.357 61.564 195.144 61.2592C194.932 60.9544 194.826 60.5734 194.826 60.1163C194.826 59.4425 195.08 58.881 195.59 58.4319C196.099 57.9827 196.745 57.7581 197.527 57.7581C198.341 57.7581 198.992 57.9727 199.482 58.4018C199.975 58.8269 200.222 59.3723 200.222 60.038C200.222 60.4391 200.103 60.8361 199.867 61.2291C199.634 61.6222 199.297 61.929 198.856 62.1495V62.1856C199.377 62.4303 199.772 62.727 200.041 63.0759C200.31 63.4248 200.444 63.874 200.444 64.4234C200.444 65.1894 200.165 65.8311 199.608 66.3484C199.055 66.8658 198.361 67.1245 197.527 67.1245Z" fill="#F7931E"/>
<path d="M213.11 63.2599C213.152 63.2589 213.195 63.2663 213.234 63.2818C213.274 63.2972 213.31 63.3204 213.34 63.3499L217.08 67.0898C217.111 67.1206 217.136 67.1571 217.153 67.1975C217.17 67.2378 217.178 67.2811 217.178 67.3249C217.178 67.3686 217.17 67.4119 217.153 67.4522C217.136 67.4926 217.111 67.5291 217.08 67.5599C217.05 67.5907 217.014 67.6152 216.975 67.632C216.935 67.6487 216.893 67.6574 216.85 67.6574C216.807 67.6574 216.765 67.6487 216.725 67.632C216.686 67.6152 216.65 67.5907 216.62 67.5599L213.11 64.0499L209.61 67.5599C209.548 67.6222 209.463 67.6572 209.375 67.6572C209.287 67.6572 209.202 67.6222 209.14 67.5599C209.078 67.4975 209.043 67.413 209.043 67.3249C209.043 67.2367 209.078 67.1522 209.14 67.0898L212.88 63.3499C212.942 63.2912 213.025 63.2589 213.11 63.2599Z" fill="#F7931E"/>
<path d="M213.11 58.8599C213.152 58.859 213.195 58.8664 213.234 58.8819C213.274 58.8973 213.31 58.9205 213.34 58.9499L217.08 62.6899C217.111 62.7206 217.136 62.7572 217.153 62.7976C217.17 62.8379 217.178 62.8812 217.178 62.9249C217.178 62.9687 217.17 63.012 217.153 63.0523C217.136 63.0927 217.111 63.1292 217.08 63.1599C217.05 63.1908 217.014 63.2153 216.975 63.2321C216.935 63.2488 216.893 63.2575 216.85 63.2575C216.807 63.2575 216.765 63.2488 216.725 63.2321C216.686 63.2153 216.65 63.1908 216.62 63.1599L213.11 59.65L209.61 63.1599C209.548 63.2223 209.463 63.2573 209.375 63.2573C209.287 63.2573 209.202 63.2223 209.14 63.1599C209.078 63.0976 209.043 63.0131 209.043 62.9249C209.043 62.8368 209.078 62.7523 209.14 62.6899L212.88 58.9999C212.906 58.9618 212.94 58.9295 212.98 58.9054C213.02 58.8813 213.064 58.8658 213.11 58.8599Z" fill="#F7931E"/>
<path d="M173.853 44.3069C174.097 44.5877 174.286 44.9357 174.421 45.3511C174.555 45.7664 174.623 46.2405 174.623 46.7733C174.623 47.2918 174.557 47.7602 174.425 48.1784C174.293 48.5966 174.103 48.9476 173.853 49.2312C173.593 49.5291 173.288 49.7496 172.938 49.8929C172.592 50.0332 172.209 50.1034 171.791 50.1034C171.358 50.1034 170.969 50.0304 170.622 49.8843C170.276 49.7382 169.978 49.5205 169.728 49.2312C169.482 48.9476 169.293 48.5981 169.161 48.1827C169.029 47.7674 168.964 47.2976 168.964 46.7733C168.964 46.2348 169.029 45.7621 169.161 45.3554C169.296 44.9486 169.486 44.5991 169.733 44.3069C169.979 44.0233 170.276 43.8085 170.622 43.6624C170.972 43.5134 171.361 43.439 171.791 43.439C172.226 43.439 172.619 43.5149 172.968 43.6667C173.318 43.8185 173.613 44.0319 173.853 44.3069ZM173.737 46.7733C173.737 46.3494 173.692 45.9741 173.6 45.6476C173.508 45.321 173.379 45.0503 173.213 44.8354C173.044 44.6149 172.839 44.4502 172.599 44.3413C172.361 44.2296 172.093 44.1737 171.795 44.1737C171.486 44.1737 171.215 44.2282 170.983 44.337C170.754 44.443 170.551 44.6091 170.373 44.8354C170.204 45.0532 170.074 45.3267 169.982 45.6562C169.893 45.9856 169.849 46.358 169.849 46.7733C169.849 47.6127 170.025 48.2558 170.377 48.7026C170.73 49.1466 171.202 49.3687 171.795 49.3687C172.388 49.3687 172.859 49.1466 173.209 48.7026C173.561 48.2558 173.737 47.6127 173.737 46.7733ZM179.001 45.8796H177.368V49.9702H176.56V45.8796H174.928V45.1706H179.001V45.8796ZM183.466 49.9702H182.46L180.814 47.7573H180.41V49.9702H179.603V45.1706H180.41V47.2589C180.62 47.256 180.797 47.2131 180.943 47.13C181.092 47.044 181.218 46.8793 181.321 46.6358C181.353 46.5642 181.387 46.4812 181.425 46.3866C181.465 46.2921 181.496 46.209 181.519 46.1374C181.645 45.7851 181.82 45.5358 182.043 45.3897C182.267 45.2437 182.557 45.1706 182.916 45.1706H183.135V45.8667H182.95C182.724 45.8667 182.553 45.914 182.439 46.0085C182.327 46.1002 182.232 46.2692 182.155 46.5155C182.075 46.7647 181.98 46.9595 181.871 47.0999C181.763 47.2374 181.642 47.3434 181.51 47.4179L183.466 49.9702ZM187.702 49.9702H186.894V45.8495H185.244C185.236 46.0873 185.227 46.3164 185.219 46.537C185.21 46.7547 185.201 46.9524 185.193 47.13C185.176 47.5797 185.146 47.9564 185.103 48.2601C185.063 48.5637 185.011 48.8072 184.948 48.9905C184.885 49.1796 184.815 49.3271 184.737 49.4331C184.663 49.5391 184.578 49.6351 184.484 49.721C184.387 49.8069 184.282 49.8714 184.17 49.9144C184.059 49.9573 183.932 49.9788 183.792 49.9788C183.746 49.9788 183.688 49.9774 183.616 49.9745C183.544 49.9716 183.494 49.9702 183.466 49.9702V49.2655H183.509C183.529 49.2655 183.549 49.267 183.569 49.2698C183.592 49.2727 183.617 49.2741 183.646 49.2741C183.715 49.2741 183.782 49.2641 183.848 49.244C183.914 49.224 183.973 49.1868 184.024 49.1323C184.167 48.992 184.272 48.747 184.338 48.3976C184.404 48.0452 184.451 47.5539 184.48 46.9237C184.491 46.6888 184.501 46.411 184.51 46.0901C184.521 45.7693 184.531 45.4628 184.54 45.1706H187.702V49.9702ZM192.824 47.5726C192.824 48.3804 192.629 49.0049 192.24 49.446C191.85 49.8843 191.332 50.1034 190.684 50.1034C190.017 50.1034 189.491 49.8771 189.107 49.4245C188.726 48.969 188.536 48.3517 188.536 47.5726C188.536 46.7705 188.732 46.1474 189.125 45.7034C189.52 45.2594 190.04 45.0374 190.684 45.0374C191.332 45.0374 191.85 45.2594 192.24 45.7034C192.629 46.1446 192.824 46.7676 192.824 47.5726ZM191.991 47.5726C191.991 46.9509 191.877 46.4897 191.651 46.189C191.425 45.8853 191.103 45.7335 190.684 45.7335C190.263 45.7335 189.938 45.8853 189.709 46.189C189.483 46.4897 189.369 46.9509 189.369 47.5726C189.369 48.1741 189.483 48.631 189.709 48.9433C189.938 49.2526 190.263 49.4073 190.684 49.4073C191.1 49.4073 191.42 49.2555 191.647 48.9519C191.876 48.6453 191.991 48.1856 191.991 47.5726ZM197.443 49.9702H196.635V47.8089H194.461V49.9702H193.653V45.1706H194.461V47.1128H196.635V45.1706H197.443V49.9702ZM200.696 50.0819C199.931 50.0819 199.337 49.8671 198.913 49.4374C198.492 49.0049 198.281 48.3918 198.281 47.5983C198.281 46.8163 198.486 46.1947 198.896 45.7335C199.305 45.2694 199.841 45.0374 200.503 45.0374C200.801 45.0374 201.064 45.0804 201.293 45.1663C201.522 45.2522 201.723 45.3869 201.895 45.5702C202.067 45.7535 202.198 45.9784 202.29 46.2448C202.382 46.5084 202.428 46.8321 202.428 47.2159V47.6542H199.102C199.102 48.2128 199.242 48.6396 199.523 48.9347C199.804 49.2297 200.192 49.3772 200.687 49.3772C200.865 49.3772 201.038 49.3572 201.207 49.3171C201.379 49.277 201.534 49.2254 201.671 49.1624C201.817 49.0965 201.941 49.0335 202.041 48.9733C202.141 48.9103 202.224 48.8516 202.29 48.7972H202.337V49.678C202.243 49.7153 202.125 49.7625 201.985 49.8198C201.845 49.8743 201.719 49.9172 201.607 49.9487C201.449 49.9917 201.306 50.0246 201.177 50.0476C201.051 50.0705 200.891 50.0819 200.696 50.0819ZM201.641 47.0354C201.636 46.8177 201.61 46.6301 201.564 46.4726C201.518 46.315 201.452 46.1818 201.366 46.0729C201.272 45.9526 201.15 45.861 201.001 45.7979C200.855 45.7349 200.673 45.7034 200.455 45.7034C200.241 45.7034 200.057 45.7364 199.905 45.8022C199.756 45.8653 199.62 45.9584 199.497 46.0815C199.377 46.2076 199.285 46.3479 199.222 46.5026C199.159 46.6545 199.119 46.8321 199.102 47.0354H201.641ZM207.034 49.9702H206.226V47.8089H204.052V49.9702H203.244V45.1706H204.052V47.1128H206.226V45.1706H207.034V49.9702ZM211.992 49.9702H211.193V46.3909L208.933 49.9702H208.203V45.1706H209.002V48.694L211.236 45.1706H211.992V49.9702ZM215.245 50.0819C214.48 50.0819 213.886 49.8671 213.462 49.4374C213.041 49.0049 212.83 48.3918 212.83 47.5983C212.83 46.8163 213.035 46.1947 213.445 45.7335C213.854 45.2694 214.39 45.0374 215.052 45.0374C215.35 45.0374 215.613 45.0804 215.842 45.1663C216.072 45.2522 216.272 45.3869 216.444 45.5702C216.616 45.7535 216.748 45.9784 216.839 46.2448C216.931 46.5084 216.977 46.8321 216.977 47.2159V47.6542H213.651C213.651 48.2128 213.791 48.6396 214.072 48.9347C214.353 49.2297 214.741 49.3772 215.237 49.3772C215.414 49.3772 215.588 49.3572 215.757 49.3171C215.928 49.277 216.083 49.2254 216.221 49.1624C216.367 49.0965 216.49 49.0335 216.59 48.9733C216.69 48.9103 216.773 48.8516 216.839 48.7972H216.887V49.678C216.792 49.7153 216.675 49.7625 216.534 49.8198C216.394 49.8743 216.268 49.9172 216.156 49.9487C215.999 49.9917 215.855 50.0246 215.726 50.0476C215.6 50.0705 215.44 50.0819 215.245 50.0819ZM216.191 47.0354C216.185 46.8177 216.159 46.6301 216.113 46.4726C216.067 46.315 216.001 46.1818 215.916 46.0729C215.821 45.9526 215.699 45.861 215.55 45.7979C215.404 45.7349 215.222 45.7034 215.005 45.7034C214.79 45.7034 214.606 45.7364 214.455 45.8022C214.306 45.8653 214.17 45.9584 214.046 46.0815C213.926 46.2076 213.834 46.3479 213.771 46.5026C213.708 46.6545 213.668 46.8321 213.651 47.0354H216.191Z" fill="#F7931E"/>
<path d="M246.934 63.6853H243.541V62.5965H246.934V63.6853ZM257.552 62.5784C257.552 64.1866 257.317 65.3677 256.848 66.1216C256.383 66.8716 255.663 67.2465 254.688 67.2465C253.702 67.2465 252.978 66.8635 252.517 66.0976C252.056 65.3316 251.825 64.1625 251.825 62.5904C251.825 60.9743 252.058 59.7932 252.523 59.0472C252.992 58.2973 253.714 57.9223 254.688 57.9223C255.675 57.9223 256.399 58.3093 256.86 59.0833C257.321 59.8574 257.552 61.0224 257.552 62.5784ZM256.012 65.3095C256.128 65.0127 256.21 64.6378 256.258 64.1846C256.307 63.7314 256.331 63.196 256.331 62.5784C256.331 61.9648 256.307 61.4314 256.258 60.9783C256.21 60.5251 256.126 60.1481 256.006 59.8473C255.885 59.5425 255.719 59.3119 255.506 59.1555C255.298 58.9951 255.025 58.9149 254.688 58.9149C254.355 58.9149 254.081 58.9951 253.864 59.1555C253.652 59.3119 253.483 59.5465 253.359 59.8594C253.239 60.1641 253.156 60.5491 253.112 61.0144C253.068 61.4796 253.046 62.0049 253.046 62.5904C253.046 63.2161 253.064 63.7394 253.1 64.1605C253.14 64.5816 253.225 64.9586 253.353 65.2915C253.469 65.6003 253.634 65.8389 253.846 66.0073C254.063 66.1718 254.343 66.254 254.688 66.254C255.021 66.254 255.294 66.1758 255.506 66.0194C255.723 65.8589 255.891 65.6223 256.012 65.3095ZM260.632 67.0601H259.194V65.3456H260.632V67.0601ZM268.007 62.5784C268.007 64.1866 267.772 65.3677 267.303 66.1216C266.838 66.8716 266.118 67.2465 265.144 67.2465C264.157 67.2465 263.433 66.8635 262.972 66.0976C262.511 65.3316 262.28 64.1625 262.28 62.5904C262.28 60.9743 262.513 59.7932 262.978 59.0472C263.447 58.2973 264.169 57.9223 265.144 57.9223C266.13 57.9223 266.854 58.3093 267.315 59.0833C267.776 59.8574 268.007 61.0224 268.007 62.5784ZM266.467 65.3095C266.583 65.0127 266.665 64.6378 266.714 64.1846C266.762 63.7314 266.786 63.196 266.786 62.5784C266.786 61.9648 266.762 61.4314 266.714 60.9783C266.665 60.5251 266.581 60.1481 266.461 59.8473C266.341 59.5425 266.174 59.3119 265.962 59.1555C265.753 58.9951 265.48 58.9149 265.144 58.9149C264.811 58.9149 264.536 58.9951 264.319 59.1555C264.107 59.3119 263.938 59.5465 263.814 59.8594C263.694 60.1641 263.612 60.5491 263.567 61.0144C263.523 61.4796 263.501 62.0049 263.501 62.5904C263.501 63.2161 263.519 63.7394 263.555 64.1605C263.595 64.5816 263.68 64.9586 263.808 65.2915C263.924 65.6003 264.089 65.8389 264.301 66.0073C264.518 66.1718 264.799 66.254 265.144 66.254C265.476 66.254 265.749 66.1758 265.962 66.0194C266.178 65.8589 266.347 65.6223 266.467 65.3095ZM274.69 67.0601H269.162V65.8028C269.559 65.4258 269.934 65.0649 270.287 64.72C270.64 64.3751 270.985 64.0162 271.322 63.6432C272.003 62.8932 272.469 62.2937 272.717 61.8445C272.966 61.3913 273.09 60.9241 273.09 60.4429C273.09 60.1942 273.05 59.9757 272.97 59.7872C272.894 59.5987 272.787 59.4423 272.651 59.3179C272.511 59.1976 272.348 59.1074 272.164 59.0472C271.979 58.9871 271.777 58.957 271.556 58.957C271.344 58.957 271.127 58.9851 270.906 59.0412C270.69 59.0934 270.481 59.1595 270.281 59.2397C270.112 59.3079 269.95 59.3901 269.794 59.4864C269.637 59.5826 269.511 59.6649 269.415 59.733H269.348V58.4577C269.597 58.3334 269.942 58.2131 270.383 58.0968C270.828 57.9765 271.249 57.9163 271.646 57.9163C272.481 57.9163 273.134 58.1389 273.608 58.584C274.081 59.0252 274.317 59.6247 274.317 60.3827C274.317 60.7316 274.275 61.0545 274.191 61.3512C274.111 61.648 273.999 61.9227 273.854 62.1754C273.706 62.436 273.527 62.6947 273.319 62.9514C273.11 63.2081 272.89 63.4607 272.657 63.7094C272.28 64.1184 271.859 64.5435 271.394 64.9847C270.933 65.4258 270.564 65.7747 270.287 66.0314H274.69V67.0601Z" fill="#A2E2FF"/>
<path d="M73.005 57.7243C73.005 57.1147 72.9489 56.6194 72.8366 56.2384C72.7243 55.8534 72.5699 55.5567 72.3734 55.3481C72.1969 55.1556 72.0184 55.0233 71.838 54.9511C71.6575 54.8789 71.459 54.8428 71.2424 54.8428C70.7491 54.8428 70.3561 55.0193 70.0634 55.3722C69.7706 55.7251 69.6242 56.2364 69.6242 56.9062C69.6242 57.2832 69.6723 57.594 69.7686 57.8386C69.8648 58.0832 70.0212 58.2938 70.2378 58.4702C70.3902 58.5946 70.5627 58.6788 70.7552 58.7229C70.9477 58.763 71.1542 58.783 71.3748 58.783C71.6314 58.783 71.9082 58.7389 72.2049 58.6507C72.5017 58.5585 72.7604 58.4382 72.9809 58.2898C72.9849 58.2296 72.989 58.1514 72.993 58.0552C73.001 57.9549 73.005 57.8446 73.005 57.7243ZM68.403 56.9543C68.403 56.4931 68.4772 56.072 68.6256 55.691C68.778 55.31 68.9846 54.9812 69.2452 54.7045C69.4939 54.4398 69.7967 54.2332 70.1536 54.0848C70.5145 53.9365 70.8795 53.8623 71.2484 53.8623C71.6615 53.8623 72.0345 53.9324 72.3673 54.0728C72.7042 54.2092 72.995 54.4077 73.2396 54.6684C73.5484 54.9972 73.787 55.4283 73.9555 55.9617C74.1279 56.4951 74.2141 57.1689 74.2141 57.983C74.2141 58.7249 74.1299 59.4287 73.9615 60.0945C73.7971 60.7562 73.5524 61.3056 73.2276 61.7427C72.8827 62.2079 72.4676 62.5629 71.9823 62.8075C71.5011 63.0521 70.9055 63.1745 70.1957 63.1745C70.0353 63.1745 69.8648 63.1644 69.6844 63.1444C69.5039 63.1283 69.3355 63.0962 69.1791 63.0481V61.8991H69.2392C69.3395 61.9553 69.4959 62.0094 69.7084 62.0616C69.921 62.1137 70.1376 62.1398 70.3581 62.1398C71.1442 62.1398 71.7618 61.8811 72.2109 61.3638C72.6601 60.8464 72.9148 60.1065 72.9749 59.144C72.6541 59.3605 72.3473 59.519 72.0545 59.6192C71.7658 59.7195 71.451 59.7696 71.1101 59.7696C70.7772 59.7696 70.4744 59.7335 70.2017 59.6613C69.929 59.5891 69.6543 59.4488 69.3776 59.2402C69.0567 58.9956 68.8141 58.6868 68.6497 58.3138C68.4853 57.9368 68.403 57.4837 68.403 56.9543ZM79.6041 56.1302C79.6041 55.7291 79.4698 55.3942 79.2011 55.1255C78.9324 54.8568 78.5594 54.7225 78.0822 54.7225C77.6451 54.7225 77.2861 54.8428 77.0054 55.0834C76.7287 55.3241 76.5903 55.6489 76.5903 56.058C76.5903 56.3547 76.6605 56.6054 76.8009 56.8099C76.9452 57.0145 77.1598 57.1989 77.4445 57.3634C77.5689 57.4315 77.7573 57.5258 78.01 57.6461C78.2667 57.7664 78.4993 57.8607 78.7078 57.9288C79.0567 57.6601 79.2933 57.3854 79.4177 57.1047C79.542 56.8199 79.6041 56.4951 79.6041 56.1302ZM79.7726 60.6178C79.7726 60.2489 79.7004 59.9561 79.556 59.7395C79.4116 59.523 79.1329 59.3024 78.7198 59.0778C78.5835 59.0016 78.401 58.9194 78.1724 58.8312C77.9478 58.7429 77.6932 58.6387 77.4084 58.5184C77.0756 58.7389 76.8209 59.0116 76.6445 59.3365C76.468 59.6573 76.3798 60.0243 76.3798 60.4373C76.3798 60.9788 76.5422 61.4259 76.867 61.7788C77.1959 62.1317 77.607 62.3082 78.1002 62.3082C78.6055 62.3082 79.0106 62.1578 79.3154 61.857C79.6202 61.5522 79.7726 61.1392 79.7726 60.6178ZM78.0882 63.2045C77.643 63.2045 77.238 63.1384 76.873 63.006C76.5081 62.8737 76.1973 62.6832 75.9406 62.4345C75.688 62.1939 75.4955 61.9092 75.3631 61.5803C75.2348 61.2474 75.1706 60.8965 75.1706 60.5276C75.1706 60.0423 75.299 59.5972 75.5556 59.1921C75.8163 58.783 76.1933 58.4582 76.6866 58.2176V58.1815C76.2454 57.9248 75.9186 57.6441 75.706 57.3393C75.4935 57.0345 75.3872 56.6535 75.3872 56.1963C75.3872 55.5226 75.6418 54.9611 76.1512 54.512C76.6605 54.0628 77.3062 53.8382 78.0882 53.8382C78.9023 53.8382 79.554 54.0528 80.0433 54.4819C80.5366 54.907 80.7832 55.4524 80.7832 56.1181C80.7832 56.5192 80.6649 56.9162 80.4283 57.3092C80.1957 57.7022 79.8588 58.009 79.4177 58.2296V58.2657C79.939 58.5103 80.334 58.8071 80.6027 59.156C80.8714 59.5049 81.0058 59.9541 81.0058 60.5035C81.0058 61.2695 80.7271 61.9112 80.1696 62.4285C79.6162 62.9459 78.9224 63.2045 78.0882 63.2045Z" fill="#A2E2FF"/>
<path d="M287.45 63.1801C287.407 63.181 287.364 63.1725 287.324 63.1553C287.284 63.138 287.249 63.1123 287.22 63.0801L283.48 59.3401C283.449 59.3102 283.425 59.2745 283.408 59.235C283.391 59.1955 283.382 59.153 283.382 59.1101C283.382 59.0671 283.391 59.0247 283.408 58.9852C283.425 58.9456 283.449 58.9099 283.48 58.8801C283.511 58.8489 283.547 58.8242 283.588 58.8073C283.628 58.7904 283.671 58.7817 283.715 58.7817C283.759 58.7817 283.802 58.7904 283.842 58.8073C283.883 58.8242 283.919 58.8489 283.95 58.8801L287.45 62.3801L290.96 58.8801C290.991 58.8489 291.027 58.8242 291.068 58.8073C291.108 58.7904 291.151 58.7817 291.195 58.7817C291.239 58.7817 291.282 58.7904 291.322 58.8073C291.363 58.8242 291.399 58.8489 291.43 58.8801C291.488 58.9428 291.52 59.0249 291.52 59.1101C291.52 59.1952 291.488 59.2773 291.43 59.3401L287.69 63.0801C287.659 63.1121 287.622 63.1375 287.58 63.1547C287.539 63.1719 287.495 63.1805 287.45 63.1801Z" fill="#A2E2FF"/>
<path d="M287.45 67.58C287.407 67.5809 287.364 67.5724 287.324 67.5552C287.284 67.5379 287.249 67.5122 287.22 67.48L283.48 63.74C283.449 63.7101 283.425 63.6744 283.408 63.6349C283.391 63.5954 283.382 63.5529 283.382 63.51C283.382 63.467 283.391 63.4246 283.408 63.3851C283.425 63.3455 283.449 63.3098 283.48 63.28C283.511 63.2488 283.547 63.2241 283.588 63.2072C283.628 63.1903 283.671 63.1816 283.715 63.1816C283.759 63.1816 283.802 63.1903 283.842 63.2072C283.883 63.2241 283.919 63.2488 283.95 63.28L287.45 66.78L290.96 63.28C290.991 63.2488 291.027 63.2241 291.068 63.2072C291.108 63.1903 291.151 63.1816 291.195 63.1816C291.239 63.1816 291.282 63.1903 291.322 63.2072C291.363 63.2241 291.399 63.2488 291.43 63.28C291.488 63.3427 291.52 63.4248 291.52 63.51C291.52 63.5951 291.488 63.6772 291.43 63.74L287.69 67.48C287.659 67.512 287.622 67.5374 287.58 67.5546C287.539 67.5718 287.495 67.5804 287.45 67.58Z" fill="#A2E2FF"/>
<path d="M251.518 43.5722L249.197 48.9604C249.1 49.1868 248.99 49.3687 248.866 49.5062C248.746 49.6437 248.62 49.7468 248.488 49.8155C248.357 49.8871 248.226 49.9344 248.097 49.9573C247.971 49.9802 247.844 49.9917 247.715 49.9917C247.6 49.9917 247.466 49.9888 247.311 49.9831C247.156 49.9774 247.057 49.9731 247.014 49.9702V49.1753H247.075C247.118 49.181 247.182 49.1882 247.268 49.1968C247.357 49.2025 247.468 49.2054 247.603 49.2054C247.666 49.2054 247.741 49.2025 247.827 49.1968C247.912 49.1882 247.991 49.1667 248.063 49.1323C248.146 49.0922 248.223 49.0392 248.295 48.9733C248.369 48.9046 248.437 48.7972 248.497 48.6511L248.643 48.3116L246.396 43.5722H247.337L249.073 47.3362L250.641 43.5722H251.518ZM255.763 49.9702H254.955V45.8495H253.305C253.296 46.0873 253.288 46.3164 253.279 46.537C253.271 46.7547 253.262 46.9524 253.254 47.13C253.236 47.5797 253.206 47.9564 253.163 48.2601C253.123 48.5637 253.072 48.8072 253.009 48.9905C252.946 49.1796 252.875 49.3271 252.798 49.4331C252.724 49.5391 252.639 49.6351 252.545 49.721C252.447 49.8069 252.343 49.8714 252.231 49.9144C252.119 49.9573 251.993 49.9788 251.853 49.9788C251.807 49.9788 251.748 49.9774 251.677 49.9745C251.605 49.9716 251.555 49.9702 251.526 49.9702V49.2655H251.569C251.589 49.2655 251.609 49.267 251.629 49.2698C251.652 49.2727 251.678 49.2741 251.707 49.2741C251.775 49.2741 251.843 49.2641 251.909 49.244C251.974 49.224 252.033 49.1868 252.085 49.1323C252.228 48.992 252.333 48.747 252.398 48.3976C252.464 48.0452 252.512 47.5539 252.54 46.9237C252.552 46.6888 252.562 46.411 252.57 46.0901C252.582 45.7693 252.592 45.4628 252.6 45.1706H255.763V49.9702ZM260.709 45.1706L258.126 51.7405H257.262L258.122 49.7382L256.377 45.1706H257.25L258.56 48.7241L259.866 45.1706H260.709ZM264.928 49.9702H264.12V48.0968C263.868 48.1799 263.623 48.2443 263.386 48.2901C263.148 48.336 262.913 48.3589 262.681 48.3589C262.477 48.3589 262.278 48.3331 262.084 48.2815C261.892 48.2271 261.726 48.1397 261.585 48.0194C261.445 47.8991 261.336 47.7459 261.259 47.5597C261.184 47.3706 261.147 47.1486 261.147 46.8937V45.1706H261.955V46.4726C261.955 46.6845 261.963 46.8535 261.98 46.9796C261.998 47.1028 262.045 47.2231 262.122 47.3405C262.188 47.4408 262.287 47.5181 262.419 47.5726C262.553 47.627 262.73 47.6542 262.947 47.6542C263.136 47.6542 263.338 47.6356 263.553 47.5983C263.771 47.5611 263.96 47.5167 264.12 47.4651V45.1706H264.928V49.9702ZM271.777 49.9702H266.097V45.1706H266.905V49.287H268.533V45.1706H269.341V49.287H270.97V45.1706H271.777V49.9702ZM275.03 50.0819C274.265 50.0819 273.671 49.8671 273.247 49.4374C272.826 49.0049 272.615 48.3918 272.615 47.5983C272.615 46.8163 272.82 46.1947 273.23 45.7335C273.639 45.2694 274.175 45.0374 274.837 45.0374C275.135 45.0374 275.398 45.0804 275.627 45.1663C275.857 45.2522 276.057 45.3869 276.229 45.5702C276.401 45.7535 276.533 45.9784 276.624 46.2448C276.716 46.5084 276.762 46.8321 276.762 47.2159V47.6542H273.436C273.436 48.2128 273.576 48.6396 273.857 48.9347C274.138 49.2297 274.526 49.3772 275.021 49.3772C275.199 49.3772 275.372 49.3572 275.541 49.3171C275.713 49.277 275.868 49.2254 276.005 49.1624C276.152 49.0965 276.275 49.0335 276.375 48.9733C276.475 48.9103 276.558 48.8516 276.624 48.7972H276.671V49.678C276.577 49.7153 276.459 49.7625 276.319 49.8198C276.179 49.8743 276.053 49.9172 275.941 49.9487C275.783 49.9917 275.64 50.0246 275.511 50.0476C275.385 50.0705 275.225 50.0819 275.03 50.0819ZM275.975 47.0354C275.97 46.8177 275.944 46.6301 275.898 46.4726C275.852 46.315 275.786 46.1818 275.7 46.0729C275.606 45.9526 275.484 45.861 275.335 45.7979C275.189 45.7349 275.007 45.7034 274.789 45.7034C274.575 45.7034 274.391 45.7364 274.239 45.8022C274.09 45.8653 273.954 45.9584 273.831 46.0815C273.711 46.2076 273.619 46.3479 273.556 46.5026C273.493 46.6545 273.453 46.8321 273.436 47.0354H275.975ZM281.368 49.9702H280.56V47.8089H278.386V49.9702H277.578V45.1706H278.386V47.1128H280.56V45.1706H281.368V49.9702ZM286.327 49.9702H285.527V46.3909L283.267 49.9702H282.537V45.1706H283.336V48.694L285.57 45.1706H286.327V49.9702ZM289.579 50.0819C288.814 50.0819 288.22 49.8671 287.796 49.4374C287.375 49.0049 287.164 48.3918 287.164 47.5983C287.164 46.8163 287.369 46.1947 287.779 45.7335C288.189 45.2694 288.724 45.0374 289.386 45.0374C289.684 45.0374 289.947 45.0804 290.177 45.1663C290.406 45.2522 290.606 45.3869 290.778 45.5702C290.95 45.7535 291.082 45.9784 291.173 46.2448C291.265 46.5084 291.311 46.8321 291.311 47.2159V47.6542H287.985C287.985 48.2128 288.126 48.6396 288.406 48.9347C288.687 49.2297 289.075 49.3772 289.571 49.3772C289.748 49.3772 289.922 49.3572 290.091 49.3171C290.262 49.277 290.417 49.2254 290.555 49.1624C290.701 49.0965 290.824 49.0335 290.924 48.9733C291.024 48.9103 291.108 48.8516 291.173 48.7972H291.221V49.678C291.126 49.7153 291.009 49.7625 290.868 49.8198C290.728 49.8743 290.602 49.9172 290.49 49.9487C290.333 49.9917 290.189 50.0246 290.061 50.0476C289.935 50.0705 289.774 50.0819 289.579 50.0819ZM290.525 47.0354C290.519 46.8177 290.493 46.6301 290.447 46.4726C290.401 46.315 290.336 46.1818 290.25 46.0729C290.155 45.9526 290.033 45.861 289.884 45.7979C289.738 45.7349 289.556 45.7034 289.339 45.7034C289.124 45.7034 288.94 45.7364 288.789 45.8022C288.64 45.8653 288.504 45.9584 288.38 46.0815C288.26 46.2076 288.168 46.3479 288.105 46.5026C288.042 46.6545 288.002 46.8321 287.985 47.0354H290.525Z" fill="#A2E2FF"/>
<path d="M91.0631 56.096C91.0631 57.0167 90.8769 57.7 90.5046 58.146C90.1363 58.5879 89.6023 58.8089 88.9027 58.8089C88.1907 58.8089 87.6506 58.5838 87.2823 58.1338C86.9181 57.6837 86.736 57.0065 86.736 56.1022C86.736 55.1856 86.9222 54.5043 87.2946 54.0583C87.6669 53.6123 88.203 53.3893 88.9027 53.3893C89.6146 53.3893 90.1527 53.6144 90.5169 54.0645C90.881 54.5146 91.0631 55.1917 91.0631 56.096ZM95.1508 53.5612L90.3634 62.7002H89.3507L94.1381 53.5612H95.1508ZM97.7532 60.1653C97.7532 61.086 97.567 61.7693 97.1947 62.2153C96.8264 62.6572 96.2924 62.8782 95.5927 62.8782C94.8808 62.8782 94.3406 62.6531 93.9724 62.203C93.6082 61.7529 93.4261 61.0758 93.4261 60.1715C93.4261 59.2549 93.6123 58.5736 93.9847 58.1276C94.357 57.6816 94.893 57.4586 95.5927 57.4586C96.3047 57.4586 96.8428 57.6837 97.207 58.1338C97.5711 58.5838 97.7532 59.261 97.7532 60.1653ZM89.9706 56.096C89.9706 55.4741 89.897 55.0035 89.7497 54.6844C89.6064 54.3652 89.3241 54.2056 88.9027 54.2056C88.4812 54.2056 88.1968 54.3673 88.0495 54.6905C87.9022 55.0138 87.8286 55.4843 87.8286 56.1022C87.8286 56.7159 87.8981 57.1845 88.0372 57.5077C88.1764 57.831 88.4648 57.9926 88.9027 57.9926C89.3241 57.9926 89.6064 57.831 89.7497 57.5077C89.897 57.1845 89.9706 56.7139 89.9706 56.096ZM96.6607 60.1653C96.6607 59.5434 96.587 59.0728 96.4397 58.7537C96.2965 58.4345 96.0142 58.2749 95.5927 58.2749C95.1713 58.2749 94.8869 58.4365 94.7396 58.7598C94.5923 59.083 94.5186 59.5536 94.5186 60.1715C94.5186 60.7852 94.5882 61.2537 94.7273 61.577C94.8664 61.9002 95.1549 62.0619 95.5927 62.0619C96.0142 62.0619 96.2965 61.9002 96.4397 61.577C96.587 61.2537 96.6607 60.7832 96.6607 60.1653Z" fill="#A2E2FF"/>
<path d="M47.19 32.5998C46.9625 32.5998 46.7402 32.5324 46.5511 32.406C46.362 32.2796 46.2146 32.1 46.1275 31.8899C46.0405 31.6798 46.0177 31.4485 46.0621 31.2255C46.1065 31.0024 46.216 30.7975 46.3768 30.6366C46.5377 30.4758 46.7426 30.3663 46.9656 30.3219C47.1887 30.2775 47.42 30.3003 47.6301 30.3873C47.8402 30.4744 48.0198 30.6218 48.1462 30.8109C48.2726 31 48.34 31.2224 48.34 31.4498C48.34 31.7548 48.2188 32.0473 48.0032 32.263C47.7875 32.4786 47.495 32.5998 47.19 32.5998Z" fill="white" stroke="white"/>
<path d="M47.19 30.1302C47.4515 30.1282 47.7077 30.204 47.9261 30.3478C48.1444 30.4916 48.3152 30.6971 48.4166 30.9381C48.5181 31.1791 48.5456 31.4448 48.4958 31.7015C48.446 31.9583 48.3211 32.1944 48.1369 32.38C47.9527 32.5656 47.7175 32.6923 47.4612 32.7441C47.2049 32.7958 46.939 32.7703 46.6972 32.6707C46.4554 32.5711 46.2487 32.4019 46.1032 32.1846C45.9577 31.9673 45.88 31.7117 45.88 31.4502C45.88 31.1019 46.0177 30.7676 46.2631 30.5204C46.5085 30.2731 46.8416 30.1329 47.19 30.1302ZM47.19 29.4702C46.7944 29.4702 46.4078 29.5875 46.0789 29.8073C45.75 30.027 45.4936 30.3394 45.3422 30.7048C45.1909 31.0703 45.1513 31.4724 45.2284 31.8604C45.3056 32.2484 45.4961 32.6047 45.7758 32.8844C46.0555 33.1641 46.4119 33.3546 46.7998 33.4318C47.1878 33.509 47.5899 33.4694 47.9554 33.318C48.3208 33.1666 48.6332 32.9103 48.8529 32.5814C49.0727 32.2525 49.19 31.8658 49.19 31.4702C49.19 30.9398 48.9793 30.4311 48.6042 30.056C48.2291 29.6809 47.7204 29.4702 47.19 29.4702Z" fill="#12151E"/>
<path d="M58.56 37.7102C58.3326 37.7102 58.1102 37.6427 57.9211 37.5163C57.732 37.39 57.5846 37.2104 57.4975 37.0002C57.4105 36.7901 57.3877 36.5589 57.4321 36.3358C57.4765 36.1127 57.586 35.9078 57.7468 35.747C57.9077 35.5862 58.1126 35.4766 58.3356 35.4323C58.5587 35.3879 58.79 35.4107 59.0001 35.4977C59.2102 35.5847 59.3898 35.7321 59.5162 35.9213C59.6426 36.1104 59.71 36.3327 59.71 36.5602C59.71 36.8652 59.5888 37.1577 59.3732 37.3733C59.1575 37.589 58.865 37.7102 58.56 37.7102Z" fill="white" stroke="white"/>
<path d="M58.56 35.2398C58.8211 35.2398 59.0763 35.3172 59.2934 35.4623C59.5104 35.6073 59.6796 35.8135 59.7795 36.0547C59.8794 36.2959 59.9056 36.5613 59.8546 36.8173C59.8037 37.0734 59.678 37.3086 59.4934 37.4932C59.3088 37.6778 59.0736 37.8035 58.8175 37.8545C58.5615 37.9054 58.2961 37.8793 58.0549 37.7793C57.8137 37.6794 57.6075 37.5103 57.4625 37.2932C57.3174 37.0761 57.24 36.8209 57.24 36.5598C57.24 36.2097 57.3791 35.874 57.6266 35.6264C57.8742 35.3789 58.2099 35.2398 58.56 35.2398ZM58.56 34.5698C58.1644 34.5698 57.7778 34.6871 57.4489 34.9069C57.12 35.1266 56.8636 35.439 56.7122 35.8045C56.5609 36.1699 56.5213 36.572 56.5984 36.96C56.6756 37.348 56.8661 37.7043 57.1458 37.984C57.4255 38.2637 57.7819 38.4542 58.1698 38.5314C58.5578 38.6086 58.9599 38.569 59.3254 38.4176C59.6908 38.2662 60.0032 38.0099 60.2229 37.681C60.4427 37.3521 60.56 36.9654 60.56 36.5698C60.56 36.0394 60.3493 35.5307 59.9742 35.1556C59.5991 34.7805 59.0904 34.5698 58.56 34.5698Z" fill="#F7931E"/>
</svg>
