<svg width="324" height="117" viewBox="0 0 324 117" fill="none" xmlns="http://www.w3.org/2000/svg">
<path opacity="0.5" d="M281 11H7C5.89543 11 5 11.8954 5 13C5 14.1046 5.89543 15 7 15H281C282.105 15 283 14.1046 283 13C283 11.8954 282.105 11 281 11Z" fill="white" fill-opacity="0.5" stroke="#8C99B2" stroke-width="0.5"/>
<path opacity="0.5" d="M281 30H7C5.89543 30 5 30.8954 5 32V33C5 34.1046 5.89543 35 7 35H281C282.105 35 283 34.1046 283 33V32C283 30.8954 282.105 30 281 30Z" fill="white" fill-opacity="0.5" stroke="#8C99B2" stroke-width="0.5"/>
<path opacity="0.5" d="M281 50H7C5.89543 50 5 50.8954 5 52C5 53.1046 5.89543 54 7 54H281C282.105 54 283 53.1046 283 52C283 50.8954 282.105 50 281 50Z" fill="white" fill-opacity="0.5" stroke="#8C99B2" stroke-width="0.5"/>
<path opacity="0.5" d="M281 69H7C5.89543 69 5 69.8954 5 71C5 72.1046 5.89543 73 7 73H281C282.105 73 283 72.1046 283 71C283 69.8954 282.105 69 281 69Z" fill="white" fill-opacity="0.5" stroke="#8C99B2" stroke-width="0.5"/>
<path opacity="0.5" d="M281 88H7C5.89543 88 5 88.8954 5 90V91C5 92.1046 5.89543 93 7 93H281C282.105 93 283 92.1046 283 91V90C283 88.8954 282.105 88 281 88Z" fill="white" fill-opacity="0.5" stroke="#8C99B2" stroke-width="0.5"/>
<path opacity="0.5" d="M281 108H7C5.89543 108 5 108.895 5 110C5 111.105 5.89543 112 7 112H281C282.105 112 283 111.105 283 110C283 108.895 282.105 108 281 108Z" fill="white" fill-opacity="0.5" stroke="#8C99B2" stroke-width="0.5"/>
<path d="M5.97324 9.00008L7.31648 5.01584H7.96938L9.31262 9.00008H8.75338L8.39215 7.88695H6.86963L6.5084 9.00008H5.97324ZM8.24498 7.43475L7.62955 5.55635L7.0168 7.43475H8.24498ZM12.3924 7.77725C12.3924 7.97526 12.355 8.15007 12.2801 8.3017C12.2051 8.45333 12.1043 8.5782 11.9777 8.67631C11.8279 8.79404 11.6673 8.87789 11.4961 8.92783C11.3248 8.976 11.1036 9.00008 10.8325 9.00008H9.6899V5.01584H10.7468C11.0305 5.01584 11.2427 5.02565 11.3837 5.04528C11.5264 5.06311 11.6628 5.10682 11.7931 5.17639C11.9358 5.25309 12.0401 5.35388 12.1061 5.47875C12.1721 5.60184 12.2051 5.74722 12.2051 5.9149C12.2051 6.10221 12.1552 6.26989 12.0553 6.41795C11.9572 6.56601 11.8207 6.68196 11.6459 6.7658V6.78721C11.8832 6.85143 12.0669 6.96916 12.1971 7.14041C12.3273 7.30988 12.3924 7.52216 12.3924 7.77725ZM11.6539 5.98983C11.6539 5.8935 11.6379 5.81055 11.6058 5.74098C11.5737 5.66962 11.5219 5.61343 11.4506 5.5724C11.3649 5.52424 11.2695 5.49481 11.1643 5.4841C11.059 5.4734 10.9136 5.46805 10.7281 5.46805H10.2197V6.63469H10.8218C10.9877 6.63469 11.1099 6.62666 11.1883 6.61061C11.2668 6.59277 11.348 6.55709 11.4318 6.50358C11.5121 6.45184 11.5692 6.38406 11.6031 6.30022C11.637 6.21638 11.6539 6.11291 11.6539 5.98983ZM11.8412 7.79865C11.8412 7.64881 11.8198 7.52572 11.777 7.4294C11.7342 7.33128 11.6477 7.24834 11.5175 7.18055C11.4336 7.13595 11.3418 7.10741 11.2419 7.09492C11.1437 7.08244 11.0037 7.07619 10.8218 7.07619H10.2197V8.54787H10.6505C10.8824 8.54787 11.0653 8.53717 11.199 8.51576C11.3328 8.49436 11.4506 8.44887 11.5522 8.3793C11.6521 8.30973 11.7253 8.23124 11.7717 8.14383C11.818 8.05464 11.8412 7.93958 11.8412 7.79865ZM13.8534 9.00008V5.48678H12.5155V5.01584H15.7211V5.48678H14.3832V9.00008H13.8534ZM17.4684 7.49897H15.9593V7.01465H17.4684V7.49897ZM20.5215 7.70768C20.5215 7.91282 20.4876 8.10191 20.4198 8.27494C20.352 8.44798 20.261 8.59247 20.1469 8.70842C20.0273 8.83151 19.8935 8.92516 19.7455 8.98938C19.5974 9.05181 19.4342 9.08303 19.2558 9.08303C19.0757 9.08303 18.9115 9.0527 18.7635 8.99205C18.6172 8.9314 18.4879 8.84132 18.3755 8.7218C18.2381 8.57731 18.1302 8.38465 18.0517 8.14383C17.975 7.90123 17.9367 7.60332 17.9367 7.25012C17.9367 6.90405 17.9723 6.59188 18.0437 6.3136C18.115 6.03353 18.2248 5.79003 18.3728 5.58311C18.5173 5.38153 18.7037 5.22455 18.9321 5.11217C19.1604 4.998 19.4244 4.94092 19.7241 4.94092C19.8133 4.94092 19.8962 4.94538 19.9729 4.9543C20.0496 4.96322 20.1174 4.97749 20.1763 4.99711V5.50819H20.1522C20.104 5.48143 20.0345 5.45735 19.9435 5.43594C19.8525 5.41275 19.7553 5.40115 19.6518 5.40115C19.32 5.40115 19.0516 5.51354 18.8464 5.7383C18.6431 5.96128 18.5227 6.29308 18.4852 6.73369C18.6118 6.6445 18.7421 6.57582 18.8759 6.52766C19.0096 6.47949 19.1559 6.45541 19.3147 6.45541C19.4699 6.45541 19.6055 6.47147 19.7214 6.50358C19.8391 6.5339 19.9613 6.59634 20.088 6.69088C20.2343 6.80148 20.3431 6.94151 20.4144 7.11098C20.4858 7.28044 20.5215 7.47934 20.5215 7.70768ZM19.9783 7.72908C19.9783 7.56497 19.9569 7.42761 19.9141 7.31701C19.8713 7.20641 19.8017 7.11187 19.7054 7.03338C19.6358 6.9763 19.5564 6.93884 19.4672 6.921C19.3798 6.90316 19.2897 6.89424 19.197 6.89424C19.0721 6.89424 18.9508 6.91297 18.833 6.95043C18.7153 6.98789 18.5994 7.0423 18.4852 7.11365C18.4816 7.1529 18.479 7.19125 18.4772 7.22871C18.4754 7.26439 18.4745 7.30988 18.4745 7.36518C18.4745 7.64168 18.5013 7.86466 18.5548 8.03412C18.6101 8.20359 18.6779 8.33203 18.7581 8.41944C18.8348 8.50328 18.9133 8.56214 18.9936 8.59604C19.0757 8.62993 19.164 8.64688 19.2585 8.64688C19.4726 8.64688 19.6456 8.57017 19.7776 8.41676C19.9114 8.26335 19.9783 8.03412 19.9783 7.72908Z" fill="#303549"/>
<path opacity="0.1" fill-rule="evenodd" clip-rule="evenodd" d="M291 18L293.232 15.7596V4.37435L291 2H316.632L319 4.54876V15.4508L316.632 18H291Z" fill="#8C99B2"/>
<path d="M9 13H268" stroke="#8C99B2"/>
<path d="M268 13H279" stroke="#F7931E"/>
<path d="M298.886 9.00005H296.943V8.59333H297.666V5.9229H296.943V5.559C297.216 5.559 297.417 5.52064 297.545 5.44394C297.675 5.36545 297.748 5.21828 297.765 5.00243H298.179V8.59333H298.886V9.00005ZM302.081 9.00005H299.622V8.44081C299.798 8.27313 299.965 8.11258 300.122 7.95917C300.279 7.80576 300.432 7.6461 300.582 7.48021C300.885 7.14663 301.092 6.87994 301.203 6.68015C301.314 6.47857 301.369 6.27075 301.369 6.05669C301.369 5.94609 301.351 5.84887 301.315 5.76503C301.281 5.68119 301.234 5.61162 301.173 5.55632C301.111 5.5028 301.039 5.46267 300.957 5.43591C300.875 5.40915 300.785 5.39577 300.687 5.39577C300.592 5.39577 300.496 5.40826 300.398 5.43323C300.301 5.45642 300.208 5.48586 300.119 5.52153C300.044 5.55186 299.972 5.58843 299.903 5.63124C299.833 5.67405 299.777 5.71062 299.734 5.74095H299.704V5.17368C299.815 5.11838 299.969 5.06487 300.165 5.01314C300.363 4.95962 300.55 4.93286 300.727 4.93286C301.098 4.93286 301.388 5.03187 301.599 5.22987C301.809 5.4261 301.915 5.69278 301.915 6.02993C301.915 6.18513 301.896 6.32873 301.858 6.46073C301.823 6.59274 301.773 6.71493 301.709 6.82732C301.643 6.94327 301.563 7.05832 301.471 7.17249C301.378 7.28666 301.28 7.39904 301.176 7.50964C301.008 7.69159 300.821 7.88068 300.614 8.07691C300.409 8.27313 300.245 8.42832 300.122 8.54249H302.081V9.00005ZM305.115 5.61251L303.392 9.00005H302.822L304.647 5.48407H302.586V5.01581H305.115V5.61251ZM309.795 7.00659C309.795 7.72192 309.691 8.24726 309.482 8.58263C309.275 8.91621 308.955 9.083 308.521 9.083C308.082 9.083 307.76 8.91264 307.555 8.57192C307.35 8.23121 307.248 7.71122 307.248 7.01194C307.248 6.29305 307.351 5.76771 307.558 5.43591C307.767 5.10233 308.088 4.93554 308.521 4.93554C308.96 4.93554 309.282 5.10768 309.487 5.45196C309.692 5.79625 309.795 6.31446 309.795 7.00659ZM309.11 8.2214C309.162 8.08939 309.198 7.9226 309.22 7.72103C309.241 7.51945 309.252 7.28131 309.252 7.00659C309.252 6.73366 309.241 6.49641 309.22 6.29484C309.198 6.09326 309.161 5.92558 309.107 5.79179C309.054 5.65622 308.98 5.55364 308.885 5.48407C308.792 5.41272 308.671 5.37704 308.521 5.37704C308.373 5.37704 308.251 5.41272 308.155 5.48407C308.06 5.55364 307.985 5.658 307.93 5.79714C307.876 5.93271 307.84 6.10396 307.82 6.31089C307.801 6.51782 307.791 6.7515 307.791 7.01194C307.791 7.29023 307.799 7.52302 307.815 7.71032C307.833 7.89763 307.87 8.06531 307.927 8.21337C307.979 8.35073 308.052 8.45687 308.147 8.53179C308.243 8.60493 308.368 8.6415 308.521 8.6415C308.669 8.6415 308.791 8.60671 308.885 8.53714C308.981 8.46579 309.056 8.36054 309.11 8.2214ZM312.768 9.00005H310.309V8.44081C310.485 8.27313 310.652 8.11258 310.809 7.95917C310.966 7.80576 311.119 7.6461 311.269 7.48021C311.572 7.14663 311.779 6.87994 311.89 6.68015C312.001 6.47857 312.056 6.27075 312.056 6.05669C312.056 5.94609 312.038 5.84887 312.002 5.76503C311.968 5.68119 311.921 5.61162 311.861 5.55632C311.798 5.5028 311.726 5.46267 311.644 5.43591C311.562 5.40915 311.472 5.39577 311.374 5.39577C311.279 5.39577 311.183 5.40826 311.085 5.43323C310.988 5.45642 310.896 5.48586 310.806 5.52153C310.731 5.55186 310.659 5.58843 310.59 5.63124C310.52 5.67405 310.464 5.71062 310.421 5.74095H310.392V5.17368C310.502 5.11838 310.656 5.06487 310.852 5.01314C311.05 4.95962 311.237 4.93286 311.414 4.93286C311.785 4.93286 312.076 5.03187 312.286 5.22987C312.497 5.4261 312.602 5.69278 312.602 6.02993C312.602 6.18513 312.583 6.32873 312.546 6.46073C312.51 6.59274 312.46 6.71493 312.396 6.82732C312.33 6.94327 312.25 7.05832 312.158 7.17249C312.065 7.28666 311.967 7.39904 311.863 7.50964C311.696 7.69159 311.508 7.88068 311.301 8.07691C311.096 8.27313 310.932 8.42832 310.809 8.54249H312.768V9.00005ZM315.778 7.00659C315.778 7.72192 315.674 8.24726 315.465 8.58263C315.258 8.91621 314.938 9.083 314.504 9.083C314.065 9.083 313.743 8.91264 313.538 8.57192C313.333 8.23121 313.231 7.71122 313.231 7.01194C313.231 6.29305 313.334 5.76771 313.541 5.43591C313.75 5.10233 314.071 4.93554 314.504 4.93554C314.943 4.93554 315.265 5.10768 315.47 5.45196C315.675 5.79625 315.778 6.31446 315.778 7.00659ZM315.093 8.2214C315.145 8.08939 315.181 7.9226 315.203 7.72103C315.224 7.51945 315.235 7.28131 315.235 7.00659C315.235 6.73366 315.224 6.49641 315.203 6.29484C315.181 6.09326 315.144 5.92558 315.09 5.79179C315.037 5.65622 314.963 5.55364 314.868 5.48407C314.775 5.41272 314.654 5.37704 314.504 5.37704C314.356 5.37704 314.234 5.41272 314.138 5.48407C314.043 5.55364 313.968 5.658 313.913 5.79714C313.859 5.93271 313.823 6.10396 313.803 6.31089C313.784 6.51782 313.774 6.7515 313.774 7.01194C313.774 7.29023 313.782 7.52302 313.798 7.71032C313.816 7.89763 313.853 8.06531 313.91 8.21337C313.962 8.35073 314.035 8.45687 314.13 8.53179C314.226 8.60493 314.351 8.6415 314.504 8.6415C314.652 8.6415 314.774 8.60671 314.868 8.53714C314.964 8.46579 315.039 8.36054 315.093 8.2214Z" fill="#303549"/>
<path d="M306.785 15.4989H305.275V15.0146H306.785V15.4989ZM309.776 17H307.317V16.4408C307.494 16.2731 307.66 16.1125 307.817 15.9591C307.974 15.8057 308.128 15.6461 308.278 15.4802C308.581 15.1466 308.788 14.8799 308.898 14.6801C309.009 14.4785 309.064 14.2707 309.064 14.0566C309.064 13.946 309.047 13.8488 309.011 13.765C308.977 13.6811 308.93 13.6116 308.869 13.5563C308.807 13.5028 308.734 13.4626 308.652 13.4359C308.57 13.4091 308.48 13.3957 308.382 13.3957C308.288 13.3957 308.191 13.4082 308.093 13.4332C307.997 13.4564 307.904 13.4858 307.815 13.5215C307.74 13.5518 307.668 13.5884 307.598 13.6312C307.528 13.674 307.472 13.7106 307.429 13.7409H307.4V13.1736C307.511 13.1183 307.664 13.0648 307.86 13.0131C308.058 12.9596 308.246 12.9328 308.422 12.9328C308.793 12.9328 309.084 13.0318 309.294 13.2298C309.505 13.426 309.61 13.6927 309.61 14.0299C309.61 14.1851 309.592 14.3287 309.554 14.4607C309.518 14.5927 309.468 14.7149 309.404 14.8273C309.338 14.9432 309.259 15.0583 309.166 15.1724C309.073 15.2866 308.975 15.399 308.872 15.5096C308.704 15.6915 308.517 15.8806 308.31 16.0769C308.105 16.2731 307.941 16.4283 307.817 16.5424H309.776V17ZM312.722 15.7317C312.722 15.9243 312.691 16.1027 312.629 16.2668C312.568 16.431 312.482 16.5728 312.372 16.6923C312.259 16.8136 312.119 16.909 311.952 16.9786C311.786 17.0482 311.599 17.0829 311.392 17.0829C311.201 17.0829 311.013 17.0615 310.828 17.0187C310.644 16.9777 310.484 16.9233 310.349 16.8555V16.2909H310.386C310.427 16.3212 310.486 16.356 310.563 16.3953C310.64 16.4327 310.724 16.4684 310.817 16.5023C310.922 16.5398 311.019 16.5692 311.106 16.5906C311.193 16.6102 311.292 16.62 311.4 16.62C311.507 16.62 311.612 16.6013 311.713 16.5638C311.815 16.5246 311.902 16.4622 311.976 16.3765C312.042 16.2981 312.092 16.2062 312.125 16.1009C312.161 15.9957 312.179 15.8717 312.179 15.729C312.179 15.5881 312.159 15.4721 312.12 15.3812C312.083 15.2902 312.027 15.2153 311.954 15.1564C311.878 15.0886 311.783 15.0413 311.671 15.0146C311.56 14.986 311.436 14.9718 311.299 14.9718C311.154 14.9718 311.009 14.9834 310.862 15.0065C310.716 15.0279 310.599 15.0485 310.512 15.0681V13.0158H312.698V13.484H311.028V14.5436C311.093 14.5365 311.156 14.5311 311.218 14.5276C311.281 14.524 311.338 14.5222 311.39 14.5222C311.593 14.5222 311.765 14.5392 311.906 14.5731C312.047 14.607 312.183 14.673 312.313 14.7711C312.445 14.871 312.546 14.9958 312.615 15.1457C312.686 15.2955 312.722 15.4909 312.722 15.7317ZM315.179 13.9443C315.179 13.7659 315.119 13.6169 314.999 13.4974C314.88 13.3779 314.714 13.3181 314.502 13.3181C314.307 13.3181 314.147 13.3716 314.023 13.4787C313.9 13.5857 313.838 13.7302 313.838 13.9121C313.838 14.0442 313.869 14.1556 313.932 14.2466C313.996 14.3376 314.091 14.4197 314.218 14.4928C314.273 14.5231 314.357 14.565 314.469 14.6186C314.584 14.6721 314.687 14.714 314.78 14.7443C314.935 14.6248 315.04 14.5026 315.096 14.3777C315.151 14.2511 315.179 14.1066 315.179 13.9443ZM315.253 15.9404C315.253 15.7763 315.221 15.6461 315.157 15.5497C315.093 15.4534 314.969 15.3553 314.785 15.2554C314.725 15.2215 314.643 15.1849 314.542 15.1457C314.442 15.1064 314.329 15.0601 314.202 15.0065C314.054 15.1047 313.941 15.226 313.862 15.3704C313.784 15.5132 313.744 15.6764 313.744 15.8601C313.744 16.1009 313.817 16.2998 313.961 16.4568C314.107 16.6138 314.29 16.6923 314.51 16.6923C314.734 16.6923 314.915 16.6254 315.05 16.4916C315.186 16.356 315.253 16.1723 315.253 15.9404ZM314.504 17.091C314.306 17.091 314.126 17.0615 313.964 17.0027C313.801 16.9438 313.663 16.8591 313.549 16.7485C313.437 16.6414 313.351 16.5148 313.292 16.3685C313.235 16.2205 313.206 16.0644 313.206 15.9003C313.206 15.6844 313.264 15.4864 313.378 15.3062C313.494 15.1243 313.661 14.9798 313.881 14.8728V14.8567C313.685 14.7425 313.539 14.6177 313.445 14.4821C313.35 14.3465 313.303 14.1771 313.303 13.9737C313.303 13.674 313.416 13.4243 313.643 13.2245C313.869 13.0247 314.156 12.9248 314.504 12.9248C314.866 12.9248 315.156 13.0202 315.374 13.2111C315.593 13.4002 315.703 13.6428 315.703 13.9389C315.703 14.1173 315.65 14.2939 315.545 14.4687C315.442 14.6435 315.292 14.78 315.096 14.8781V14.8942C315.327 15.003 315.503 15.135 315.623 15.2902C315.742 15.4454 315.802 15.6452 315.802 15.8896C315.802 16.2303 315.678 16.5157 315.43 16.7458C315.184 16.9759 314.875 17.091 314.504 17.091Z" fill="#F7931E"/>
<path d="M5.97324 28.0001L7.31648 24.0159H7.96938L9.31262 28.0001H8.75338L8.39215 26.887H6.86963L6.5084 28.0001H5.97324ZM8.24498 26.4348L7.62955 24.5564L7.0168 26.4348H8.24498ZM12.3924 26.7773C12.3924 26.9753 12.355 27.1501 12.2801 27.3017C12.2051 27.4533 12.1043 27.5782 11.9777 27.6763C11.8279 27.7941 11.6673 27.8779 11.4961 27.9279C11.3248 27.976 11.1036 28.0001 10.8325 28.0001H9.6899V24.0159H10.7468C11.0305 24.0159 11.2427 24.0257 11.3837 24.0453C11.5264 24.0631 11.6628 24.1068 11.7931 24.1764C11.9358 24.2531 12.0401 24.3539 12.1061 24.4788C12.1721 24.6019 12.2051 24.7472 12.2051 24.9149C12.2051 25.1022 12.1552 25.2699 12.0553 25.418C11.9572 25.566 11.8207 25.682 11.6459 25.7658V25.7872C11.8832 25.8514 12.0669 25.9692 12.1971 26.1404C12.3273 26.3099 12.3924 26.5222 12.3924 26.7773ZM11.6539 24.9898C11.6539 24.8935 11.6379 24.8106 11.6058 24.741C11.5737 24.6696 11.5219 24.6135 11.4506 24.5724C11.3649 24.5243 11.2695 24.4948 11.1643 24.4841C11.059 24.4734 10.9136 24.4681 10.7281 24.4681H10.2197V25.6347H10.8218C10.9877 25.6347 11.1099 25.6267 11.1883 25.6106C11.2668 25.5928 11.348 25.5571 11.4318 25.5036C11.5121 25.4519 11.5692 25.3841 11.6031 25.3002C11.637 25.2164 11.6539 25.1129 11.6539 24.9898ZM11.8412 26.7987C11.8412 26.6488 11.8198 26.5257 11.777 26.4294C11.7342 26.3313 11.6477 26.2484 11.5175 26.1806C11.4336 26.136 11.3418 26.1074 11.2419 26.0949C11.1437 26.0825 11.0037 26.0762 10.8218 26.0762H10.2197V27.5479H10.6505C10.8824 27.5479 11.0653 27.5372 11.199 27.5158C11.3328 27.4944 11.4506 27.4489 11.5522 27.3793C11.6521 27.3097 11.7253 27.2313 11.7717 27.1438C11.818 27.0547 11.8412 26.9396 11.8412 26.7987ZM13.8534 28.0001V24.4868H12.5155V24.0159H15.7211V24.4868H14.3832V28.0001H13.8534ZM17.4684 26.499H15.9593V26.0147H17.4684V26.499ZM20.5027 24.6126L18.7795 28.0001H18.2096L20.0345 24.4841H17.9741V24.0159H20.5027V24.6126Z" fill="#303549"/>
<path opacity="0.1" fill-rule="evenodd" clip-rule="evenodd" d="M291 37L293.232 34.7596V23.3743L291 21H316.632L319 23.5488V34.4508L316.632 37H291Z" fill="#8C99B2"/>
<path d="M9 32.5H257" stroke="#8C99B2"/>
<path d="M257 32.5H279" stroke="#F7931E"/>
<path d="M302.142 27.7076C302.142 27.9127 302.108 28.1018 302.04 28.2749C301.973 28.4479 301.882 28.5924 301.768 28.7083C301.648 28.8314 301.514 28.9251 301.366 28.9893C301.218 29.0517 301.055 29.0829 300.876 29.0829C300.696 29.0829 300.532 29.0526 300.384 28.992C300.238 28.9313 300.109 28.8412 299.996 28.7217C299.859 28.5772 299.751 28.3846 299.672 28.1437C299.596 27.9011 299.557 27.6032 299.557 27.25C299.557 26.904 299.593 26.5918 299.664 26.3135C299.736 26.0335 299.845 25.79 299.993 25.583C300.138 25.3815 300.324 25.2245 300.553 25.1121C300.781 24.9979 301.045 24.9408 301.345 24.9408C301.434 24.9408 301.517 24.9453 301.594 24.9542C301.67 24.9631 301.738 24.9774 301.797 24.997V25.5081H301.773C301.725 25.4813 301.655 25.4573 301.564 25.4359C301.473 25.4127 301.376 25.4011 301.272 25.4011C300.941 25.4011 300.672 25.5135 300.467 25.7382C300.264 25.9612 300.143 26.293 300.106 26.7336C300.233 26.6444 300.363 26.5757 300.497 26.5276C300.63 26.4794 300.777 26.4553 300.935 26.4553C301.091 26.4553 301.226 26.4714 301.342 26.5035C301.46 26.5338 301.582 26.5963 301.709 26.6908C301.855 26.8014 301.964 26.9414 302.035 27.1109C302.106 27.2804 302.142 27.4793 302.142 27.7076ZM301.599 27.729C301.599 27.5649 301.578 27.4275 301.535 27.3169C301.492 27.2063 301.422 27.1118 301.326 27.0333C301.256 26.9762 301.177 26.9388 301.088 26.9209C301 26.9031 300.91 26.8942 300.818 26.8942C300.693 26.8942 300.571 26.9129 300.454 26.9504C300.336 26.9878 300.22 27.0422 300.106 27.1136C300.102 27.1528 300.1 27.1912 300.098 27.2286C300.096 27.2643 300.095 27.3098 300.095 27.3651C300.095 27.6416 300.122 27.8646 300.175 28.034C300.231 28.2035 300.299 28.3319 300.379 28.4194C300.455 28.5032 300.534 28.5621 300.614 28.596C300.696 28.6299 300.785 28.6468 300.879 28.6468C301.093 28.6468 301.266 28.5701 301.398 28.4167C301.532 28.2633 301.599 28.034 301.599 27.729ZM305.115 25.6125L303.392 29H302.822L304.647 25.484H302.586V25.0158H305.115V25.6125ZM309.795 27.0065C309.795 27.7219 309.691 28.2472 309.482 28.5826C309.275 28.9162 308.955 29.0829 308.521 29.0829C308.082 29.0829 307.76 28.9126 307.555 28.5719C307.35 28.2312 307.248 27.7112 307.248 27.0119C307.248 26.293 307.351 25.7677 307.558 25.4359C307.767 25.1023 308.088 24.9355 308.521 24.9355C308.96 24.9355 309.282 25.1076 309.487 25.4519C309.692 25.7962 309.795 26.3144 309.795 27.0065ZM309.11 28.2213C309.162 28.0893 309.198 27.9226 309.22 27.721C309.241 27.5194 309.252 27.2813 309.252 27.0065C309.252 26.7336 309.241 26.4964 309.22 26.2948C309.198 26.0932 309.161 25.9255 309.107 25.7917C309.054 25.6562 308.98 25.5536 308.885 25.484C308.792 25.4127 308.671 25.377 308.521 25.377C308.373 25.377 308.251 25.4127 308.155 25.484C308.06 25.5536 307.985 25.6579 307.93 25.7971C307.876 25.9327 307.84 26.1039 307.82 26.3108C307.801 26.5178 307.791 26.7515 307.791 27.0119C307.791 27.2902 307.799 27.523 307.815 27.7103C307.833 27.8976 307.87 28.0653 307.927 28.2133C307.979 28.3507 308.052 28.4568 308.147 28.5317C308.243 28.6049 308.368 28.6414 308.521 28.6414C308.669 28.6414 308.791 28.6067 308.885 28.5371C308.981 28.4657 309.056 28.3605 309.11 28.2213ZM312.243 26.6533C312.243 26.3822 312.218 26.1619 312.168 25.9924C312.118 25.8212 312.05 25.6892 311.962 25.5964C311.884 25.5108 311.804 25.4519 311.724 25.4198C311.644 25.3877 311.556 25.3716 311.459 25.3716C311.24 25.3716 311.065 25.4501 310.935 25.6071C310.805 25.7641 310.739 25.9915 310.739 26.2894C310.739 26.4571 310.761 26.5954 310.804 26.7042C310.846 26.813 310.916 26.9066 311.012 26.9851C311.08 27.0404 311.157 27.0779 311.242 27.0975C311.328 27.1154 311.42 27.1243 311.518 27.1243C311.632 27.1243 311.755 27.1047 311.887 27.0654C312.019 27.0244 312.134 26.9709 312.232 26.9049C312.234 26.8781 312.236 26.8433 312.238 26.8005C312.241 26.7559 312.243 26.7069 312.243 26.6533ZM310.196 26.3108C310.196 26.1057 310.229 25.9184 310.295 25.7489C310.363 25.5795 310.455 25.4332 310.571 25.3101C310.681 25.1924 310.816 25.1005 310.975 25.0345C311.135 24.9685 311.298 24.9355 311.462 24.9355C311.646 24.9355 311.812 24.9667 311.96 25.0291C312.109 25.0898 312.239 25.1781 312.348 25.294C312.485 25.4403 312.591 25.6321 312.666 25.8693C312.743 26.1066 312.781 26.4063 312.781 26.7684C312.781 27.0984 312.744 27.4115 312.669 27.7076C312.596 28.0019 312.487 28.2463 312.342 28.4408C312.189 28.6477 312.004 28.8056 311.788 28.9144C311.574 29.0232 311.309 29.0776 310.994 29.0776C310.922 29.0776 310.846 29.0731 310.766 29.0642C310.686 29.0571 310.611 29.0428 310.541 29.0214V28.5103H310.568C310.613 28.5353 310.682 28.5594 310.777 28.5826C310.871 28.6058 310.968 28.6174 311.066 28.6174C311.415 28.6174 311.69 28.5023 311.89 28.2722C312.09 28.0421 312.203 27.7129 312.23 27.2848C312.087 27.3812 311.951 27.4516 311.82 27.4962C311.692 27.5408 311.552 27.5631 311.4 27.5631C311.252 27.5631 311.118 27.5471 310.996 27.5149C310.875 27.4828 310.753 27.4204 310.63 27.3276C310.487 27.2188 310.379 27.0815 310.306 26.9156C310.233 26.7479 310.196 26.5463 310.196 26.3108ZM315.235 26.6533C315.235 26.3822 315.21 26.1619 315.16 25.9924C315.11 25.8212 315.041 25.6892 314.954 25.5964C314.875 25.5108 314.796 25.4519 314.716 25.4198C314.635 25.3877 314.547 25.3716 314.451 25.3716C314.231 25.3716 314.056 25.4501 313.926 25.6071C313.796 25.7641 313.731 25.9915 313.731 26.2894C313.731 26.4571 313.752 26.5954 313.795 26.7042C313.838 26.813 313.908 26.9066 314.004 26.9851C314.072 27.0404 314.148 27.0779 314.234 27.0975C314.32 27.1154 314.411 27.1243 314.51 27.1243C314.624 27.1243 314.747 27.1047 314.879 27.0654C315.011 27.0244 315.126 26.9709 315.224 26.9049C315.226 26.8781 315.228 26.8433 315.229 26.8005C315.233 26.7559 315.235 26.7069 315.235 26.6533ZM313.188 26.3108C313.188 26.1057 313.221 25.9184 313.287 25.7489C313.355 25.5795 313.446 25.4332 313.562 25.3101C313.673 25.1924 313.808 25.1005 313.966 25.0345C314.127 24.9685 314.289 24.9355 314.453 24.9355C314.637 24.9355 314.803 24.9667 314.951 25.0291C315.101 25.0898 315.23 25.1781 315.339 25.294C315.476 25.4403 315.583 25.6321 315.657 25.8693C315.734 26.1066 315.773 26.4063 315.773 26.7684C315.773 27.0984 315.735 27.4115 315.66 27.7076C315.587 28.0019 315.478 28.2463 315.334 28.4408C315.18 28.6477 314.996 28.8056 314.78 28.9144C314.566 29.0232 314.301 29.0776 313.985 29.0776C313.914 29.0776 313.838 29.0731 313.758 29.0642C313.677 29.0571 313.602 29.0428 313.533 29.0214V28.5103H313.56C313.604 28.5353 313.674 28.5594 313.768 28.5826C313.863 28.6058 313.959 28.6174 314.057 28.6174C314.407 28.6174 314.682 28.5023 314.882 28.2722C315.081 28.0421 315.195 27.7129 315.221 27.2848C315.079 27.3812 314.942 27.4516 314.812 27.4962C314.684 27.5408 314.543 27.5631 314.392 27.5631C314.244 27.5631 314.109 27.5471 313.988 27.5149C313.867 27.4828 313.744 27.4204 313.621 27.3276C313.479 27.2188 313.371 27.0815 313.297 26.9156C313.224 26.7479 313.188 26.5463 313.188 26.3108Z" fill="#303549"/>
<path d="M306.785 34.499H305.275V34.0147H306.785V34.499ZM309.573 36.0001H307.63V35.5934H308.353V32.923H307.63V32.559C307.903 32.559 308.104 32.5207 308.232 32.444C308.362 32.3655 308.436 32.2183 308.452 32.0025H308.866V35.5934H309.573V36.0001ZM312.829 34.7077C312.829 34.9128 312.795 35.1019 312.728 35.275C312.66 35.448 312.569 35.5925 312.455 35.7084C312.335 35.8315 312.201 35.9252 312.053 35.9894C311.905 36.0518 311.742 36.083 311.564 36.083C311.383 36.083 311.219 36.0527 311.071 35.9921C310.925 35.9314 310.796 35.8413 310.683 35.7218C310.546 35.5773 310.438 35.3847 310.359 35.1438C310.283 34.9012 310.244 34.6033 310.244 34.2501C310.244 33.9041 310.28 33.5919 310.351 33.3136C310.423 33.0336 310.532 32.7901 310.681 32.5831C310.825 32.3816 311.011 32.2246 311.24 32.1122C311.468 31.998 311.732 31.9409 312.032 31.9409C312.121 31.9409 312.204 31.9454 312.281 31.9543C312.357 31.9632 312.425 31.9775 312.484 31.9971V32.5082H312.46C312.412 32.4814 312.342 32.4574 312.251 32.436C312.16 32.4128 312.063 32.4012 311.96 32.4012C311.628 32.4012 311.359 32.5136 311.154 32.7383C310.951 32.9613 310.83 33.2931 310.793 33.7337C310.92 33.6445 311.05 33.5758 311.184 33.5277C311.317 33.4795 311.464 33.4554 311.622 33.4554C311.778 33.4554 311.913 33.4715 312.029 33.5036C312.147 33.5339 312.269 33.5964 312.396 33.6909C312.542 33.8015 312.651 33.9415 312.722 34.111C312.794 34.2805 312.829 34.4794 312.829 34.7077ZM312.286 34.7291C312.286 34.565 312.265 34.4276 312.222 34.317C312.179 34.2064 312.109 34.1119 312.013 34.0334C311.944 33.9763 311.864 33.9389 311.775 33.921C311.688 33.9032 311.597 33.8943 311.505 33.8943C311.38 33.8943 311.259 33.913 311.141 33.9505C311.023 33.9879 310.907 34.0423 310.793 34.1137C310.789 34.1529 310.787 34.1913 310.785 34.2287C310.783 34.2644 310.782 34.3099 310.782 34.3652C310.782 34.6417 310.809 34.8647 310.862 35.0341C310.918 35.2036 310.986 35.332 311.066 35.4195C311.143 35.5033 311.221 35.5622 311.301 35.5961C311.383 35.63 311.472 35.6469 311.566 35.6469C311.78 35.6469 311.953 35.5702 312.085 35.4168C312.219 35.2634 312.286 35.0341 312.286 34.7291ZM315.759 36.0001H313.3V35.4409C313.477 35.2732 313.644 35.1126 313.801 34.9592C313.957 34.8058 314.111 34.6462 314.261 34.4803C314.564 34.1467 314.771 33.88 314.882 33.6802C314.992 33.4786 315.047 33.2708 315.047 33.0567C315.047 32.9461 315.03 32.8489 314.994 32.7651C314.96 32.6812 314.913 32.6117 314.852 32.5564C314.79 32.5029 314.717 32.4627 314.635 32.436C314.553 32.4092 314.463 32.3958 314.365 32.3958C314.271 32.3958 314.174 32.4083 314.076 32.4333C313.98 32.4565 313.887 32.4859 313.798 32.5216C313.723 32.5519 313.651 32.5885 313.581 32.6313C313.512 32.6741 313.455 32.7107 313.413 32.741H313.383V32.1737C313.494 32.1184 313.647 32.0649 313.843 32.0132C314.041 31.9597 314.229 31.9329 314.405 31.9329C314.776 31.9329 315.067 32.0319 315.278 32.2299C315.488 32.4261 315.593 32.6928 315.593 33.03C315.593 33.1852 315.575 33.3288 315.537 33.4608C315.501 33.5928 315.451 33.715 315.387 33.8274C315.321 33.9433 315.242 34.0584 315.149 34.1725C315.056 34.2867 314.958 34.3991 314.855 34.5097C314.687 34.6916 314.5 34.8807 314.293 35.077C314.088 35.2732 313.924 35.4284 313.801 35.5425H315.759V36.0001Z" fill="#F7931E"/>
<path d="M5.97324 48L7.31648 44.0158H7.96938L9.31262 48H8.75338L8.39215 46.8869H6.86963L6.5084 48H5.97324ZM8.24498 46.4347L7.62955 44.5563L7.0168 46.4347H8.24498ZM12.3924 46.7772C12.3924 46.9752 12.355 47.15 12.2801 47.3016C12.2051 47.4532 12.1043 47.5781 11.9777 47.6762C11.8279 47.794 11.6673 47.8778 11.4961 47.9278C11.3248 47.9759 11.1036 48 10.8325 48H9.6899V44.0158H10.7468C11.0305 44.0158 11.2427 44.0256 11.3837 44.0452C11.5264 44.063 11.6628 44.1067 11.7931 44.1763C11.9358 44.253 12.0401 44.3538 12.1061 44.4787C12.1721 44.6018 12.2051 44.7471 12.2051 44.9148C12.2051 45.1021 12.1552 45.2698 12.0553 45.4179C11.9572 45.5659 11.8207 45.6819 11.6459 45.7657V45.7871C11.8832 45.8513 12.0669 45.9691 12.1971 46.1403C12.3273 46.3098 12.3924 46.5221 12.3924 46.7772ZM11.6539 44.9897C11.6539 44.8934 11.6379 44.8105 11.6058 44.7409C11.5737 44.6695 11.5219 44.6134 11.4506 44.5723C11.3649 44.5242 11.2695 44.4947 11.1643 44.484C11.059 44.4733 10.9136 44.468 10.7281 44.468H10.2197V45.6346H10.8218C10.9877 45.6346 11.1099 45.6266 11.1883 45.6105C11.2668 45.5927 11.348 45.557 11.4318 45.5035C11.5121 45.4518 11.5692 45.384 11.6031 45.3001C11.637 45.2163 11.6539 45.1128 11.6539 44.9897ZM11.8412 46.7986C11.8412 46.6487 11.8198 46.5256 11.777 46.4293C11.7342 46.3312 11.6477 46.2483 11.5175 46.1805C11.4336 46.1359 11.3418 46.1073 11.2419 46.0948C11.1437 46.0824 11.0037 46.0761 10.8218 46.0761H10.2197V47.5478H10.6505C10.8824 47.5478 11.0653 47.5371 11.199 47.5157C11.3328 47.4943 11.4506 47.4488 11.5522 47.3792C11.6521 47.3096 11.7253 47.2312 11.7717 47.1437C11.818 47.0546 11.8412 46.9395 11.8412 46.7986ZM13.8534 48V44.4867H12.5155V44.0158H15.7211V44.4867H14.3832V48H13.8534ZM17.4684 46.4989H15.9593V46.0146H17.4684V46.4989ZM19.8793 44.9443C19.8793 44.7659 19.8195 44.6169 19.7 44.4974C19.5805 44.3779 19.4146 44.3181 19.2023 44.3181C19.0079 44.3181 18.8482 44.3716 18.7233 44.4787C18.6003 44.5857 18.5387 44.7302 18.5387 44.9121C18.5387 45.0442 18.5699 45.1556 18.6324 45.2466C18.6966 45.3376 18.792 45.4197 18.9187 45.4928C18.974 45.5231 19.0578 45.565 19.1702 45.6186C19.2844 45.6721 19.3878 45.714 19.4806 45.7443C19.6358 45.6248 19.741 45.5026 19.7963 45.3777C19.8516 45.2511 19.8793 45.1066 19.8793 44.9443ZM19.9542 46.9404C19.9542 46.7763 19.9221 46.6461 19.8579 46.5497C19.7937 46.4534 19.6697 46.3553 19.4859 46.2554C19.4253 46.2215 19.3441 46.1849 19.2424 46.1457C19.1425 46.1064 19.0293 46.0601 18.9026 46.0065C18.7546 46.1047 18.6413 46.226 18.5628 46.3704C18.4843 46.5132 18.4451 46.6764 18.4451 46.8601C18.4451 47.1009 18.5173 47.2998 18.6618 47.4568C18.8081 47.6138 18.9909 47.6923 19.2103 47.6923C19.4351 47.6923 19.6153 47.6254 19.7508 47.4916C19.8864 47.356 19.9542 47.1723 19.9542 46.9404ZM19.205 48.091C19.007 48.091 18.8268 48.0615 18.6645 48.0027C18.5021 47.9438 18.3639 47.8591 18.2497 47.7485C18.1373 47.6414 18.0517 47.5148 17.9929 47.3685C17.9358 47.2205 17.9072 47.0644 17.9072 46.9003C17.9072 46.6844 17.9643 46.4864 18.0785 46.3062C18.1944 46.1243 18.3621 45.9798 18.5815 45.8728V45.8567C18.3853 45.7425 18.2399 45.6177 18.1454 45.4821C18.0508 45.3465 18.0036 45.1771 18.0036 44.9737C18.0036 44.674 18.1168 44.4243 18.3434 44.2245C18.5699 44.0247 18.8571 43.9248 19.205 43.9248C19.5671 43.9248 19.857 44.0202 20.0746 44.2111C20.294 44.4002 20.4037 44.6428 20.4037 44.9389C20.4037 45.1173 20.3511 45.2939 20.2459 45.4687C20.1424 45.6435 19.9926 45.78 19.7963 45.8781V45.8942C20.0282 46.003 20.2039 46.135 20.3235 46.2902C20.443 46.4454 20.5027 46.6452 20.5027 46.8896C20.5027 47.2303 20.3788 47.5157 20.1308 47.7458C19.8846 47.9759 19.576 48.091 19.205 48.091Z" fill="#303549"/>
<path opacity="0.1" fill-rule="evenodd" clip-rule="evenodd" d="M291 56L293.232 53.7596V42.3743L291 40H316.632L319 42.5488V53.4508L316.632 56H291Z" fill="#8C99B2"/>
<path d="M9 52H268" stroke="#8C99B2"/>
<path d="M268 52H279" stroke="#F7931E"/>
<path d="M299.089 48.0001H296.63V47.4409C296.807 47.2732 296.973 47.1126 297.13 46.9592C297.287 46.8058 297.441 46.6462 297.591 46.4803C297.894 46.1467 298.101 45.88 298.211 45.6802C298.322 45.4786 298.377 45.2708 298.377 45.0567C298.377 44.9461 298.359 44.8489 298.324 44.7651C298.29 44.6812 298.243 44.6117 298.182 44.5564C298.12 44.5029 298.047 44.4627 297.965 44.436C297.883 44.4092 297.793 44.3958 297.695 44.3958C297.6 44.3958 297.504 44.4083 297.406 44.4333C297.31 44.4565 297.217 44.4859 297.128 44.5216C297.053 44.5519 296.981 44.5885 296.911 44.6313C296.841 44.6741 296.785 44.7107 296.742 44.741H296.713V44.1737C296.824 44.1184 296.977 44.0649 297.173 44.0132C297.371 43.9597 297.559 43.9329 297.735 43.9329C298.106 43.9329 298.397 44.0319 298.607 44.2299C298.818 44.4261 298.923 44.6928 298.923 45.03C298.923 45.1852 298.904 45.3288 298.867 45.4608C298.831 45.5928 298.781 45.715 298.717 45.8274C298.651 45.9433 298.572 46.0584 298.479 46.1725C298.386 46.2867 298.288 46.3991 298.185 46.5097C298.017 46.6916 297.83 46.8807 297.623 47.077C297.418 47.2732 297.253 47.4284 297.13 47.5425H299.089V48.0001ZM302.035 46.7318C302.035 46.9244 302.004 47.1028 301.941 47.2669C301.881 47.4311 301.795 47.5729 301.685 47.6924C301.572 47.8137 301.432 47.9091 301.264 47.9787C301.099 48.0483 300.912 48.083 300.705 48.083C300.514 48.083 300.326 48.0616 300.141 48.0188C299.957 47.9778 299.797 47.9234 299.662 47.8556V47.291H299.699C299.74 47.3213 299.799 47.3561 299.876 47.3954C299.952 47.4328 300.037 47.4685 300.13 47.5024C300.235 47.5399 300.332 47.5693 300.419 47.5907C300.506 47.6103 300.604 47.6201 300.713 47.6201C300.82 47.6201 300.925 47.6014 301.026 47.5639C301.128 47.5247 301.215 47.4623 301.289 47.3766C301.355 47.2982 301.405 47.2063 301.438 47.101C301.474 46.9958 301.492 46.8718 301.492 46.7291C301.492 46.5882 301.472 46.4722 301.433 46.3813C301.396 46.2903 301.34 46.2154 301.267 46.1565C301.19 46.0887 301.096 46.0414 300.984 46.0147C300.873 45.9861 300.749 45.9719 300.612 45.9719C300.467 45.9719 300.322 45.9835 300.175 46.0066C300.029 46.028 299.912 46.0486 299.825 46.0682V44.0159H302.011V44.4841H300.341V45.5437C300.406 45.5366 300.469 45.5312 300.531 45.5277C300.594 45.5241 300.651 45.5223 300.703 45.5223C300.906 45.5223 301.078 45.5393 301.219 45.5732C301.36 45.6071 301.495 45.6731 301.626 45.7712C301.758 45.8711 301.858 45.9959 301.928 46.1458C301.999 46.2956 302.035 46.491 302.035 46.7318ZM305.115 44.6126L303.392 48.0001H302.822L304.647 44.4841H302.586V44.0159H305.115V44.6126ZM309.776 48.0001H307.317V47.4409C307.494 47.2732 307.66 47.1126 307.817 46.9592C307.974 46.8058 308.128 46.6462 308.278 46.4803C308.581 46.1467 308.788 45.88 308.898 45.6802C309.009 45.4786 309.064 45.2708 309.064 45.0567C309.064 44.9461 309.047 44.8489 309.011 44.7651C308.977 44.6812 308.93 44.6117 308.869 44.5564C308.807 44.5029 308.734 44.4627 308.652 44.436C308.57 44.4092 308.48 44.3958 308.382 44.3958C308.288 44.3958 308.191 44.4083 308.093 44.4333C307.997 44.4565 307.904 44.4859 307.815 44.5216C307.74 44.5519 307.668 44.5885 307.598 44.6313C307.528 44.6741 307.472 44.7107 307.429 44.741H307.4V44.1737C307.511 44.1184 307.664 44.0649 307.86 44.0132C308.058 43.9597 308.246 43.9329 308.422 43.9329C308.793 43.9329 309.084 44.0319 309.294 44.2299C309.505 44.4261 309.61 44.6928 309.61 45.03C309.61 45.1852 309.592 45.3288 309.554 45.4608C309.518 45.5928 309.468 45.715 309.404 45.8274C309.338 45.9433 309.259 46.0584 309.166 46.1725C309.073 46.2867 308.975 46.3991 308.872 46.5097C308.704 46.6916 308.517 46.8807 308.31 47.077C308.105 47.2732 307.941 47.4284 307.817 47.5425H309.776V48.0001ZM311.384 44.3958C311.288 44.3958 311.192 44.4074 311.095 44.4306C310.999 44.4538 310.904 44.4841 310.812 44.5216C310.726 44.5573 310.651 44.5947 310.587 44.634C310.524 44.6732 310.468 44.7098 310.418 44.7437H310.386V44.1791C310.502 44.1166 310.659 44.0605 310.857 44.0105C311.057 43.9588 311.247 43.9329 311.427 43.9329C311.607 43.9329 311.764 43.9516 311.898 43.9891C312.034 44.0248 312.156 44.081 312.265 44.1577C312.382 44.2433 312.471 44.3468 312.53 44.4681C312.59 44.5894 312.62 44.7312 312.62 44.8935C312.62 45.1129 312.548 45.3056 312.404 45.4715C312.259 45.6374 312.086 45.7426 311.885 45.7872V45.8247C311.968 45.8407 312.058 45.8684 312.152 45.9076C312.249 45.9469 312.338 46.0049 312.42 46.0816C312.502 46.1583 312.569 46.2573 312.62 46.3786C312.672 46.4981 312.698 46.6444 312.698 46.8174C312.698 46.9976 312.667 47.1635 312.604 47.3151C312.544 47.4649 312.457 47.5978 312.345 47.7138C312.229 47.8351 312.089 47.927 311.925 47.9894C311.761 48.0518 311.574 48.083 311.366 48.083C311.166 48.083 310.968 48.059 310.772 48.0108C310.575 47.9626 310.41 47.9047 310.277 47.8369V47.2723H310.314C310.426 47.3543 310.577 47.4328 310.766 47.5078C310.955 47.5827 311.144 47.6201 311.333 47.6201C311.442 47.6201 311.551 47.6032 311.66 47.5693C311.77 47.5336 311.862 47.4765 311.935 47.398C312.007 47.3196 312.061 47.233 312.099 47.1385C312.136 47.044 312.155 46.9244 312.155 46.7799C312.155 46.6355 312.133 46.5168 312.091 46.4241C312.05 46.3313 311.992 46.2582 311.917 46.2047C311.842 46.1511 311.753 46.1146 311.649 46.0949C311.547 46.0735 311.437 46.0628 311.317 46.0628H311.09V45.6187H311.267C311.507 45.6187 311.703 45.5616 311.853 45.4474C312.004 45.3332 312.08 45.1673 312.08 44.9497C312.08 44.8498 312.06 44.7642 312.021 44.6928C311.982 44.6197 311.932 44.5617 311.871 44.5189C311.803 44.4725 311.729 44.4404 311.647 44.4226C311.564 44.4047 311.477 44.3958 311.384 44.3958ZM315.759 48.0001H313.3V47.4409C313.477 47.2732 313.644 47.1126 313.801 46.9592C313.957 46.8058 314.111 46.6462 314.261 46.4803C314.564 46.1467 314.771 45.88 314.882 45.6802C314.992 45.4786 315.047 45.2708 315.047 45.0567C315.047 44.9461 315.03 44.8489 314.994 44.7651C314.96 44.6812 314.913 44.6117 314.852 44.5564C314.79 44.5029 314.717 44.4627 314.635 44.436C314.553 44.4092 314.463 44.3958 314.365 44.3958C314.271 44.3958 314.174 44.4083 314.076 44.4333C313.98 44.4565 313.887 44.4859 313.798 44.5216C313.723 44.5519 313.651 44.5885 313.581 44.6313C313.512 44.6741 313.455 44.7107 313.413 44.741H313.383V44.1737C313.494 44.1184 313.647 44.0649 313.843 44.0132C314.041 43.9597 314.229 43.9329 314.405 43.9329C314.776 43.9329 315.067 44.0319 315.278 44.2299C315.488 44.4261 315.593 44.6928 315.593 45.03C315.593 45.1852 315.575 45.3288 315.537 45.4608C315.501 45.5928 315.451 45.715 315.387 45.8274C315.321 45.9433 315.242 46.0584 315.149 46.1725C315.056 46.2867 314.958 46.3991 314.855 46.5097C314.687 46.6916 314.5 46.8807 314.293 47.077C314.088 47.2732 313.924 47.4284 313.801 47.5425H315.759V48.0001Z" fill="#303549"/>
<path d="M306.785 53.499H305.275V53.0147H306.785V53.499ZM308.393 51.3958C308.296 51.3958 308.2 51.4074 308.104 51.4306C308.007 51.4538 307.913 51.4841 307.82 51.5216C307.735 51.5573 307.66 51.5947 307.595 51.634C307.533 51.6732 307.477 51.7098 307.427 51.7437H307.395V51.1791C307.511 51.1166 307.668 51.0605 307.866 51.0105C308.065 50.9588 308.255 50.9329 308.436 50.9329C308.616 50.9329 308.773 50.9516 308.907 50.9891C309.042 51.0248 309.164 51.081 309.273 51.1577C309.391 51.2433 309.479 51.3468 309.538 51.4681C309.599 51.5894 309.629 51.7312 309.629 51.8935C309.629 52.1129 309.557 52.3056 309.412 52.4715C309.268 52.6374 309.095 52.7426 308.893 52.7872V52.8247C308.977 52.8407 309.066 52.8684 309.161 52.9076C309.257 52.9469 309.346 53.0049 309.428 53.0816C309.51 53.1583 309.577 53.2573 309.629 53.3786C309.681 53.4981 309.707 53.6444 309.707 53.8174C309.707 53.9976 309.675 54.1635 309.613 54.3151C309.552 54.4649 309.466 54.5978 309.353 54.7138C309.237 54.8351 309.097 54.927 308.933 54.9894C308.769 55.0518 308.583 55.083 308.374 55.083C308.174 55.083 307.976 55.059 307.78 55.0108C307.584 54.9626 307.419 54.9047 307.285 54.8369V54.2723H307.322C307.435 54.3543 307.586 54.4328 307.775 54.5078C307.964 54.5827 308.153 54.6201 308.342 54.6201C308.451 54.6201 308.56 54.6032 308.668 54.5693C308.779 54.5336 308.871 54.4765 308.944 54.398C309.015 54.3196 309.07 54.233 309.107 54.1385C309.145 54.044 309.163 53.9244 309.163 53.7799C309.163 53.6355 309.142 53.5168 309.099 53.4241C309.058 53.3313 309 53.2582 308.925 53.2047C308.85 53.1511 308.761 53.1146 308.658 53.0949C308.556 53.0735 308.445 53.0628 308.326 53.0628H308.098V52.6187H308.275C308.516 52.6187 308.711 52.5616 308.861 52.4474C309.013 52.3332 309.088 52.1673 309.088 51.9497C309.088 51.8498 309.069 51.7642 309.03 51.6928C308.99 51.6197 308.94 51.5617 308.88 51.5189C308.812 51.4725 308.737 51.4404 308.655 51.4226C308.573 51.4047 308.486 51.3958 308.393 51.3958ZM312.243 52.6534C312.243 52.3823 312.218 52.162 312.168 51.9925C312.118 51.8213 312.05 51.6893 311.962 51.5965C311.884 51.5109 311.804 51.452 311.724 51.4199C311.644 51.3878 311.556 51.3717 311.459 51.3717C311.24 51.3717 311.065 51.4502 310.935 51.6072C310.805 51.7642 310.739 51.9916 310.739 52.2895C310.739 52.4572 310.761 52.5955 310.804 52.7043C310.846 52.8131 310.916 52.9067 311.012 52.9852C311.08 53.0405 311.157 53.078 311.242 53.0976C311.328 53.1155 311.42 53.1244 311.518 53.1244C311.632 53.1244 311.755 53.1048 311.887 53.0655C312.019 53.0245 312.134 52.971 312.232 52.905C312.234 52.8782 312.236 52.8434 312.238 52.8006C312.241 52.756 312.243 52.707 312.243 52.6534ZM310.196 52.3109C310.196 52.1058 310.229 51.9185 310.295 51.749C310.363 51.5796 310.455 51.4333 310.571 51.3102C310.681 51.1925 310.816 51.1006 310.975 51.0346C311.135 50.9686 311.298 50.9356 311.462 50.9356C311.646 50.9356 311.812 50.9668 311.96 51.0292C312.109 51.0899 312.239 51.1782 312.348 51.2941C312.485 51.4404 312.591 51.6322 312.666 51.8694C312.743 52.1067 312.781 52.4064 312.781 52.7685C312.781 53.0985 312.744 53.4116 312.669 53.7077C312.596 54.002 312.487 54.2464 312.342 54.4409C312.189 54.6478 312.004 54.8057 311.788 54.9145C311.574 55.0233 311.309 55.0777 310.994 55.0777C310.922 55.0777 310.846 55.0732 310.766 55.0643C310.686 55.0572 310.611 55.0429 310.541 55.0215V54.5104H310.568C310.613 54.5354 310.682 54.5595 310.777 54.5827C310.871 54.6059 310.968 54.6175 311.066 54.6175C311.415 54.6175 311.69 54.5024 311.89 54.2723C312.09 54.0422 312.203 53.713 312.23 53.2849C312.087 53.3813 311.951 53.4517 311.82 53.4963C311.692 53.5409 311.552 53.5632 311.4 53.5632C311.252 53.5632 311.118 53.5472 310.996 53.515C310.875 53.4829 310.753 53.4205 310.63 53.3277C310.487 53.2189 310.379 53.0816 310.306 52.9157C310.233 52.748 310.196 52.5464 310.196 52.3109ZM314.376 51.3958C314.279 51.3958 314.183 51.4074 314.087 51.4306C313.99 51.4538 313.896 51.4841 313.803 51.5216C313.718 51.5573 313.643 51.5947 313.578 51.634C313.516 51.6732 313.46 51.7098 313.41 51.7437H313.378V51.1791C313.494 51.1166 313.651 51.0605 313.849 51.0105C314.048 50.9588 314.238 50.9329 314.419 50.9329C314.599 50.9329 314.756 50.9516 314.89 50.9891C315.025 51.0248 315.147 51.081 315.256 51.1577C315.374 51.2433 315.462 51.3468 315.521 51.4681C315.582 51.5894 315.612 51.7312 315.612 51.8935C315.612 52.1129 315.54 52.3056 315.395 52.4715C315.251 52.6374 315.078 52.7426 314.876 52.7872V52.8247C314.96 52.8407 315.049 52.8684 315.144 52.9076C315.24 52.9469 315.329 53.0049 315.411 53.0816C315.493 53.1583 315.56 53.2573 315.612 53.3786C315.664 53.4981 315.69 53.6444 315.69 53.8174C315.69 53.9976 315.658 54.1635 315.596 54.3151C315.535 54.4649 315.449 54.5978 315.336 54.7138C315.22 54.8351 315.08 54.927 314.916 54.9894C314.752 55.0518 314.566 55.083 314.357 55.083C314.157 55.083 313.959 55.059 313.763 55.0108C313.567 54.9626 313.402 54.9047 313.268 54.8369V54.2723H313.305C313.418 54.3543 313.569 54.4328 313.758 54.5078C313.947 54.5827 314.136 54.6201 314.325 54.6201C314.434 54.6201 314.543 54.6032 314.651 54.5693C314.762 54.5336 314.854 54.4765 314.927 54.398C314.998 54.3196 315.053 54.233 315.09 54.1385C315.128 54.044 315.146 53.9244 315.146 53.7799C315.146 53.6355 315.125 53.5168 315.082 53.4241C315.041 53.3313 314.983 53.2582 314.908 53.2047C314.833 53.1511 314.744 53.1146 314.641 53.0949C314.539 53.0735 314.428 53.0628 314.309 53.0628H314.081V52.6187H314.258C314.499 52.6187 314.694 52.5616 314.844 52.4474C314.996 52.3332 315.072 52.1673 315.072 51.9497C315.072 51.8498 315.052 51.7642 315.013 51.6928C314.973 51.6197 314.923 51.5617 314.863 51.5189C314.795 51.4725 314.72 51.4404 314.638 51.4226C314.556 51.4047 314.469 51.3958 314.376 51.3958Z" fill="#F7931E"/>
<path d="M5.97324 67L7.31648 63.0158H7.96938L9.31262 67H8.75338L8.39215 65.8869H6.86963L6.5084 67H5.97324ZM8.24498 65.4347L7.62955 63.5563L7.0168 65.4347H8.24498ZM10.6211 67V63.4867H9.28318V63.0158H12.4888V63.4867H11.1509V67H10.6211ZM14.2361 65.4989H12.7269V65.0146H14.2361V65.4989ZM16.7031 64.6533C16.7031 64.3822 16.6782 64.1619 16.6282 63.9924C16.5783 63.8212 16.5096 63.6892 16.4222 63.5964C16.3437 63.5108 16.2643 63.4519 16.184 63.4198C16.1038 63.3877 16.0154 63.3716 15.9191 63.3716C15.6997 63.3716 15.5249 63.4501 15.3947 63.6071C15.2644 63.7641 15.1993 63.9915 15.1993 64.2894C15.1993 64.4571 15.2207 64.5954 15.2636 64.7042C15.3064 64.813 15.3759 64.9066 15.4723 64.9851C15.5401 65.0404 15.6168 65.0779 15.7024 65.0975C15.788 65.1154 15.8799 65.1243 15.978 65.1243C16.0922 65.1243 16.2152 65.1047 16.3472 65.0654C16.4793 65.0244 16.5943 64.9709 16.6924 64.9049C16.6942 64.8781 16.696 64.8433 16.6978 64.8005C16.7013 64.7559 16.7031 64.7069 16.7031 64.6533ZM14.6562 64.3108C14.6562 64.1057 14.6892 63.9184 14.7552 63.7489C14.8229 63.5795 14.9148 63.4332 15.0308 63.3101C15.1414 63.1924 15.276 63.1005 15.4348 63.0345C15.5954 62.9685 15.7577 62.9355 15.9218 62.9355C16.1055 62.9355 16.2714 62.9667 16.4195 63.0291C16.5693 63.0898 16.6987 63.1781 16.8075 63.294C16.9448 63.4403 17.051 63.6321 17.1259 63.8693C17.2026 64.1066 17.241 64.4063 17.241 64.7684C17.241 65.0984 17.2035 65.4115 17.1286 65.7076C17.0554 66.0019 16.9466 66.2463 16.8021 66.4408C16.6487 66.6477 16.4641 66.8056 16.2482 66.9144C16.0342 67.0232 15.7693 67.0776 15.4535 67.0776C15.3822 67.0776 15.3064 67.0731 15.2261 67.0642C15.1458 67.0571 15.0709 67.0428 15.0013 67.0214V66.5103H15.0281C15.0727 66.5353 15.1423 66.5594 15.2368 66.5826C15.3313 66.6058 15.4277 66.6174 15.5258 66.6174C15.8754 66.6174 16.1501 66.5023 16.3499 66.2722C16.5497 66.0421 16.663 65.7129 16.6897 65.2848C16.547 65.3812 16.4106 65.4516 16.2804 65.4962C16.1519 65.5408 16.0119 65.5631 15.8603 65.5631C15.7122 65.5631 15.5775 65.5471 15.4562 65.5149C15.3349 65.4828 15.2127 65.4204 15.0896 65.3276C14.9469 65.2188 14.839 65.0815 14.7659 64.9156C14.6927 64.7479 14.6562 64.5463 14.6562 64.3108Z" fill="#303549"/>
<path opacity="0.1" fill-rule="evenodd" clip-rule="evenodd" d="M291 76L293.232 73.7596V62.3743L291 60H316.632L319 62.5488V73.4508L316.632 76H291Z" fill="#8C99B2"/>
<path d="M9 71H279" stroke="#8C99B2"/>
<path d="M279 71H280" stroke="#F7931E"/>
<path d="M297.706 64.3957C297.609 64.3957 297.513 64.4073 297.417 64.4305C297.32 64.4537 297.226 64.484 297.133 64.5215C297.047 64.5572 296.973 64.5946 296.908 64.6339C296.846 64.6731 296.79 64.7097 296.74 64.7436H296.708V64.179C296.824 64.1165 296.981 64.0604 297.179 64.0104C297.378 63.9587 297.568 63.9328 297.748 63.9328C297.929 63.9328 298.086 63.9515 298.219 63.989C298.355 64.0247 298.477 64.0809 298.586 64.1576C298.704 64.2432 298.792 64.3467 298.851 64.468C298.912 64.5893 298.942 64.7311 298.942 64.8934C298.942 65.1128 298.87 65.3055 298.725 65.4714C298.581 65.6373 298.408 65.7425 298.206 65.7871V65.8246C298.29 65.8406 298.379 65.8683 298.474 65.9075C298.57 65.9468 298.659 66.0048 298.741 66.0815C298.823 66.1582 298.89 66.2572 298.942 66.3785C298.994 66.498 299.019 66.6443 299.019 66.8173C299.019 66.9975 298.988 67.1634 298.926 67.315C298.865 67.4648 298.779 67.5977 298.666 67.7137C298.55 67.835 298.41 67.9269 298.246 67.9893C298.082 68.0517 297.896 68.0829 297.687 68.0829C297.487 68.0829 297.289 68.0589 297.093 68.0107C296.897 67.9625 296.732 67.9046 296.598 67.8368V67.2722H296.635C296.748 67.3542 296.898 67.4327 297.088 67.5077C297.277 67.5826 297.466 67.62 297.655 67.62C297.764 67.62 297.872 67.6031 297.981 67.5692C298.092 67.5335 298.184 67.4764 298.257 67.3979C298.328 67.3195 298.383 67.2329 298.42 67.1384C298.458 67.0439 298.476 66.9243 298.476 66.7798C298.476 66.6354 298.455 66.5167 298.412 66.424C298.371 66.3312 298.313 66.2581 298.238 66.2046C298.163 66.151 298.074 66.1145 297.971 66.0948C297.869 66.0734 297.758 66.0627 297.639 66.0627H297.411V65.6186H297.588C297.829 65.6186 298.024 65.5615 298.174 65.4473C298.326 65.3331 298.401 65.1672 298.401 64.9496C298.401 64.8497 298.382 64.7641 298.343 64.6927C298.303 64.6196 298.253 64.5616 298.193 64.5188C298.125 64.4724 298.05 64.4403 297.968 64.4225C297.886 64.4046 297.798 64.3957 297.706 64.3957ZM301.5 64.9443C301.5 64.7659 301.44 64.6169 301.321 64.4974C301.201 64.3779 301.035 64.3181 300.823 64.3181C300.629 64.3181 300.469 64.3716 300.344 64.4787C300.221 64.5857 300.159 64.7302 300.159 64.9121C300.159 65.0442 300.191 65.1556 300.253 65.2466C300.317 65.3376 300.413 65.4197 300.539 65.4928C300.595 65.5231 300.678 65.565 300.791 65.6186C300.905 65.6721 301.008 65.714 301.101 65.7443C301.256 65.6248 301.362 65.5026 301.417 65.3777C301.472 65.2511 301.5 65.1066 301.5 64.9443ZM301.575 66.9404C301.575 66.7763 301.543 66.6461 301.479 66.5497C301.414 66.4534 301.29 66.3553 301.107 66.2554C301.046 66.2215 300.965 66.1849 300.863 66.1457C300.763 66.1064 300.65 66.0601 300.523 66.0065C300.375 66.1047 300.262 66.226 300.183 66.3704C300.105 66.5132 300.066 66.6764 300.066 66.8601C300.066 67.1009 300.138 67.2998 300.282 67.4568C300.429 67.6138 300.612 67.6923 300.831 67.6923C301.056 67.6923 301.236 67.6254 301.372 67.4916C301.507 67.356 301.575 67.1723 301.575 66.9404ZM300.826 68.091C300.628 68.091 300.447 68.0615 300.285 68.0027C300.123 67.9438 299.985 67.8591 299.87 67.7485C299.758 67.6414 299.672 67.5148 299.614 67.3685C299.556 67.2205 299.528 67.0644 299.528 66.9003C299.528 66.6844 299.585 66.4864 299.699 66.3062C299.815 66.1243 299.983 65.9798 300.202 65.8728V65.8567C300.006 65.7425 299.861 65.6177 299.766 65.4821C299.671 65.3465 299.624 65.1771 299.624 64.9737C299.624 64.674 299.737 64.4243 299.964 64.2245C300.191 64.0247 300.478 63.9248 300.826 63.9248C301.188 63.9248 301.478 64.0202 301.695 64.2111C301.915 64.4002 302.024 64.6428 302.024 64.9389C302.024 65.1173 301.972 65.2939 301.867 65.4687C301.763 65.6435 301.613 65.78 301.417 65.8781V65.8942C301.649 66.003 301.825 66.135 301.944 66.2902C302.064 66.4454 302.123 66.6452 302.123 66.8896C302.123 67.2303 301.999 67.5157 301.751 67.7458C301.505 67.9759 301.197 68.091 300.826 68.091ZM305.072 68H302.613V67.4408C302.79 67.2731 302.956 67.1125 303.113 66.9591C303.27 66.8057 303.424 66.6461 303.574 66.4802C303.877 66.1466 304.084 65.8799 304.194 65.6801C304.305 65.4785 304.36 65.2707 304.36 65.0566C304.36 64.946 304.343 64.8488 304.307 64.765C304.273 64.6811 304.226 64.6116 304.165 64.5563C304.103 64.5028 304.03 64.4626 303.948 64.4359C303.866 64.4091 303.776 64.3957 303.678 64.3957C303.583 64.3957 303.487 64.4082 303.389 64.4332C303.293 64.4564 303.2 64.4858 303.111 64.5215C303.036 64.5518 302.964 64.5884 302.894 64.6312C302.824 64.674 302.768 64.7106 302.725 64.7409H302.696V64.1736C302.807 64.1183 302.96 64.0648 303.156 64.0131C303.354 63.9596 303.542 63.9328 303.718 63.9328C304.089 63.9328 304.38 64.0318 304.59 64.2298C304.801 64.426 304.906 64.6927 304.906 65.0299C304.906 65.1851 304.887 65.3287 304.85 65.4607C304.814 65.5927 304.764 65.7149 304.7 65.8273C304.634 65.9432 304.555 66.0583 304.462 66.1724C304.369 66.2866 304.271 66.399 304.168 66.5096C304 66.6915 303.813 66.8806 303.606 67.0769C303.401 67.2731 303.237 67.4283 303.113 67.5424H305.072V68ZM309.838 66.7076C309.838 66.9127 309.804 67.1018 309.736 67.2749C309.668 67.4479 309.577 67.5924 309.463 67.7083C309.344 67.8314 309.21 67.9251 309.062 67.9893C308.914 68.0517 308.75 68.0829 308.572 68.0829C308.392 68.0829 308.228 68.0526 308.08 67.992C307.933 67.9313 307.804 67.8412 307.692 67.7217C307.554 67.5772 307.446 67.3846 307.368 67.1437C307.291 66.9011 307.253 66.6032 307.253 66.25C307.253 65.904 307.289 65.5918 307.36 65.3135C307.431 65.0335 307.541 64.79 307.689 64.583C307.834 64.3815 308.02 64.2245 308.248 64.1121C308.477 63.9979 308.741 63.9408 309.04 63.9408C309.129 63.9408 309.212 63.9453 309.289 63.9542C309.366 63.9631 309.434 63.9774 309.493 63.997V64.5081H309.468C309.42 64.4813 309.351 64.4573 309.26 64.4359C309.169 64.4127 309.072 64.4011 308.968 64.4011C308.636 64.4011 308.368 64.5135 308.163 64.7382C307.959 64.9612 307.839 65.293 307.801 65.7336C307.928 65.6444 308.058 65.5757 308.192 65.5276C308.326 65.4794 308.472 65.4553 308.631 65.4553C308.786 65.4553 308.922 65.4714 309.038 65.5035C309.155 65.5338 309.278 65.5963 309.404 65.6908C309.55 65.8014 309.659 65.9414 309.731 66.1109C309.802 66.2804 309.838 66.4793 309.838 66.7076ZM309.294 66.729C309.294 66.5649 309.273 66.4275 309.23 66.3169C309.187 66.2063 309.118 66.1118 309.022 66.0333C308.952 65.9762 308.873 65.9388 308.783 65.9209C308.696 65.9031 308.606 65.8942 308.513 65.8942C308.388 65.8942 308.267 65.9129 308.149 65.9504C308.032 65.9878 307.916 66.0422 307.801 66.1136C307.798 66.1528 307.795 66.1912 307.793 66.2286C307.792 66.2643 307.791 66.3098 307.791 66.3651C307.791 66.6416 307.817 66.8646 307.871 67.034C307.926 67.2035 307.994 67.3319 308.074 67.4194C308.151 67.5032 308.23 67.5621 308.31 67.596C308.392 67.6299 308.48 67.6468 308.575 67.6468C308.789 67.6468 308.962 67.5701 309.094 67.4167C309.228 67.2633 309.294 67.034 309.294 66.729ZM312.829 66.7076C312.829 66.9127 312.795 67.1018 312.728 67.2749C312.66 67.4479 312.569 67.5924 312.455 67.7083C312.335 67.8314 312.201 67.9251 312.053 67.9893C311.905 68.0517 311.742 68.0829 311.564 68.0829C311.383 68.0829 311.219 68.0526 311.071 67.992C310.925 67.9313 310.796 67.8412 310.683 67.7217C310.546 67.5772 310.438 67.3846 310.359 67.1437C310.283 66.9011 310.244 66.6032 310.244 66.25C310.244 65.904 310.28 65.5918 310.351 65.3135C310.423 65.0335 310.532 64.79 310.681 64.583C310.825 64.3815 311.011 64.2245 311.24 64.1121C311.468 63.9979 311.732 63.9408 312.032 63.9408C312.121 63.9408 312.204 63.9453 312.281 63.9542C312.357 63.9631 312.425 63.9774 312.484 63.997V64.5081H312.46C312.412 64.4813 312.342 64.4573 312.251 64.4359C312.16 64.4127 312.063 64.4011 311.96 64.4011C311.628 64.4011 311.359 64.5135 311.154 64.7382C310.951 64.9612 310.83 65.293 310.793 65.7336C310.92 65.6444 311.05 65.5757 311.184 65.5276C311.317 65.4794 311.464 65.4553 311.622 65.4553C311.778 65.4553 311.913 65.4714 312.029 65.5035C312.147 65.5338 312.269 65.5963 312.396 65.6908C312.542 65.8014 312.651 65.9414 312.722 66.1109C312.794 66.2804 312.829 66.4793 312.829 66.7076ZM312.286 66.729C312.286 66.5649 312.265 66.4275 312.222 66.3169C312.179 66.2063 312.109 66.1118 312.013 66.0333C311.944 65.9762 311.864 65.9388 311.775 65.9209C311.688 65.9031 311.597 65.8942 311.505 65.8942C311.38 65.8942 311.259 65.9129 311.141 65.9504C311.023 65.9878 310.907 66.0422 310.793 66.1136C310.789 66.1528 310.787 66.1912 310.785 66.2286C310.783 66.2643 310.782 66.3098 310.782 66.3651C310.782 66.6416 310.809 66.8646 310.862 67.034C310.918 67.2035 310.986 67.3319 311.066 67.4194C311.143 67.5032 311.221 67.5621 311.301 67.596C311.383 67.6299 311.472 67.6468 311.566 67.6468C311.78 67.6468 311.953 67.5701 312.085 67.4167C312.219 67.2633 312.286 67.034 312.286 66.729ZM315.714 66.7317C315.714 66.9243 315.682 67.1027 315.62 67.2668C315.559 67.431 315.474 67.5728 315.363 67.6923C315.251 67.8136 315.111 67.909 314.943 67.9786C314.777 68.0482 314.591 68.0829 314.384 68.0829C314.193 68.0829 314.005 68.0615 313.819 68.0187C313.636 67.9777 313.476 67.9233 313.34 67.8555V67.2909H313.378C313.419 67.3212 313.478 67.356 313.554 67.3953C313.631 67.4327 313.716 67.4684 313.809 67.5023C313.914 67.5398 314.01 67.5692 314.098 67.5906C314.185 67.6102 314.283 67.62 314.392 67.62C314.499 67.62 314.603 67.6013 314.705 67.5638C314.807 67.5246 314.894 67.4622 314.967 67.3765C315.033 67.2981 315.083 67.2062 315.117 67.1009C315.153 66.9957 315.171 66.8717 315.171 66.729C315.171 66.5881 315.151 66.4721 315.112 66.3812C315.074 66.2902 315.019 66.2153 314.946 66.1564C314.869 66.0886 314.774 66.0413 314.662 66.0146C314.552 65.986 314.428 65.9718 314.29 65.9718C314.146 65.9718 314 65.9834 313.854 66.0065C313.708 66.0279 313.591 66.0485 313.503 66.0681V64.0158H315.69V64.484H314.02V65.5436C314.084 65.5365 314.147 65.5311 314.21 65.5276C314.272 65.524 314.329 65.5222 314.381 65.5222C314.585 65.5222 314.757 65.5392 314.898 65.5731C315.039 65.607 315.174 65.673 315.304 65.7711C315.436 65.871 315.537 65.9958 315.607 66.1457C315.678 66.2955 315.714 66.4909 315.714 66.7317Z" fill="#303549"/>
<path d="M309.776 72.4989H308.267V72.0146H309.776V72.4989ZM312.81 70.6125L311.087 74H310.517L312.342 70.484H310.282V70.0158H312.81V70.6125ZM315.179 70.9443C315.179 70.7659 315.119 70.6169 314.999 70.4974C314.88 70.3779 314.714 70.3181 314.502 70.3181C314.307 70.3181 314.147 70.3716 314.023 70.4787C313.9 70.5857 313.838 70.7302 313.838 70.9121C313.838 71.0442 313.869 71.1556 313.932 71.2466C313.996 71.3376 314.091 71.4197 314.218 71.4928C314.273 71.5231 314.357 71.565 314.469 71.6186C314.584 71.6721 314.687 71.714 314.78 71.7443C314.935 71.6248 315.04 71.5026 315.096 71.3777C315.151 71.2511 315.179 71.1066 315.179 70.9443ZM315.253 72.9404C315.253 72.7763 315.221 72.6461 315.157 72.5497C315.093 72.4534 314.969 72.3553 314.785 72.2554C314.725 72.2215 314.643 72.1849 314.542 72.1457C314.442 72.1064 314.329 72.0601 314.202 72.0065C314.054 72.1047 313.941 72.226 313.862 72.3704C313.784 72.5132 313.744 72.6764 313.744 72.8601C313.744 73.1009 313.817 73.2998 313.961 73.4568C314.107 73.6138 314.29 73.6923 314.51 73.6923C314.734 73.6923 314.915 73.6254 315.05 73.4916C315.186 73.356 315.253 73.1723 315.253 72.9404ZM314.504 74.091C314.306 74.091 314.126 74.0615 313.964 74.0027C313.801 73.9438 313.663 73.8591 313.549 73.7485C313.437 73.6414 313.351 73.5148 313.292 73.3685C313.235 73.2205 313.206 73.0644 313.206 72.9003C313.206 72.6844 313.264 72.4864 313.378 72.3062C313.494 72.1243 313.661 71.9798 313.881 71.8728V71.8567C313.685 71.7425 313.539 71.6177 313.445 71.4821C313.35 71.3465 313.303 71.1771 313.303 70.9737C313.303 70.674 313.416 70.4243 313.643 70.2245C313.869 70.0247 314.156 69.9248 314.504 69.9248C314.866 69.9248 315.156 70.0202 315.374 70.2111C315.593 70.4002 315.703 70.6428 315.703 70.9389C315.703 71.1173 315.65 71.2939 315.545 71.4687C315.442 71.6435 315.292 71.78 315.096 71.8781V71.8942C315.327 72.003 315.503 72.135 315.623 72.2902C315.742 72.4454 315.802 72.6452 315.802 72.8896C315.802 73.2303 315.678 73.5157 315.43 73.7458C315.184 73.9759 314.875 74.091 314.504 74.091Z" fill="#F7931E"/>
<path d="M5.97324 87L7.31648 83.0158H7.96938L9.31262 87H8.75338L8.39215 85.8869H6.86963L6.5084 87H5.97324ZM8.24498 85.4347L7.62955 83.5563L7.0168 85.4347H8.24498ZM12.3924 85.7772C12.3924 85.9752 12.355 86.15 12.2801 86.3016C12.2051 86.4532 12.1043 86.5781 11.9777 86.6762C11.8279 86.794 11.6673 86.8778 11.4961 86.9278C11.3248 86.9759 11.1036 87 10.8325 87H9.6899V83.0158H10.7468C11.0305 83.0158 11.2427 83.0256 11.3837 83.0452C11.5264 83.063 11.6628 83.1067 11.7931 83.1763C11.9358 83.253 12.0401 83.3538 12.1061 83.4787C12.1721 83.6018 12.2051 83.7471 12.2051 83.9148C12.2051 84.1021 12.1552 84.2698 12.0553 84.4179C11.9572 84.5659 11.8207 84.6819 11.6459 84.7657V84.7871C11.8832 84.8513 12.0669 84.9691 12.1971 85.1403C12.3273 85.3098 12.3924 85.5221 12.3924 85.7772ZM11.6539 83.9897C11.6539 83.8934 11.6379 83.8105 11.6058 83.7409C11.5737 83.6695 11.5219 83.6134 11.4506 83.5723C11.3649 83.5242 11.2695 83.4947 11.1643 83.484C11.059 83.4733 10.9136 83.468 10.7281 83.468H10.2197V84.6346H10.8218C10.9877 84.6346 11.1099 84.6266 11.1883 84.6105C11.2668 84.5927 11.348 84.557 11.4318 84.5035C11.5121 84.4518 11.5692 84.384 11.6031 84.3001C11.637 84.2163 11.6539 84.1128 11.6539 83.9897ZM11.8412 85.7986C11.8412 85.6487 11.8198 85.5256 11.777 85.4293C11.7342 85.3312 11.6477 85.2483 11.5175 85.1805C11.4336 85.1359 11.3418 85.1073 11.2419 85.0948C11.1437 85.0824 11.0037 85.0761 10.8218 85.0761H10.2197V86.5478H10.6505C10.8824 86.5478 11.0653 86.5371 11.199 86.5157C11.3328 86.4943 11.4506 86.4488 11.5522 86.3792C11.6521 86.3096 11.7253 86.2312 11.7717 86.1437C11.818 86.0546 11.8412 85.9395 11.8412 85.7986ZM13.8534 87V83.4867H12.5155V83.0158H15.7211V83.4867H14.3832V87H13.8534ZM17.4684 85.4989H15.9593V85.0146H17.4684V85.4989ZM20.2566 87H18.3139V86.5933H19.0364V83.9229H18.3139V83.5589C18.5869 83.5589 18.7876 83.5206 18.916 83.4439C19.0462 83.3654 19.1194 83.2182 19.1354 83.0024H19.5502V86.5933H20.2566V87ZM23.4702 85.0065C23.4702 85.7219 23.3658 86.2472 23.1571 86.5826C22.9502 86.9162 22.63 87.0829 22.1965 87.0829C21.7577 87.0829 21.4357 86.9126 21.2305 86.5719C21.0254 86.2312 20.9228 85.7112 20.9228 85.0119C20.9228 84.293 21.0263 83.7677 21.2332 83.4359C21.4419 83.1023 21.763 82.9355 22.1965 82.9355C22.6353 82.9355 22.9573 83.1076 23.1625 83.4519C23.3676 83.7962 23.4702 84.3144 23.4702 85.0065ZM22.7852 86.2213C22.8369 86.0893 22.8735 85.9226 22.8949 85.721C22.9163 85.5194 22.927 85.2813 22.927 85.0065C22.927 84.7336 22.9163 84.4964 22.8949 84.2948C22.8735 84.0932 22.836 83.9255 22.7825 83.7917C22.729 83.6562 22.655 83.5536 22.5604 83.484C22.4677 83.4127 22.3463 83.377 22.1965 83.377C22.0484 83.377 21.9263 83.4127 21.8299 83.484C21.7354 83.5536 21.6605 83.6579 21.6052 83.7971C21.5516 83.9327 21.5151 84.1039 21.4954 84.3108C21.4758 84.5178 21.466 84.7515 21.466 85.0119C21.466 85.2902 21.474 85.523 21.4901 85.7103C21.5079 85.8976 21.5454 86.0653 21.6025 86.2133C21.6542 86.3507 21.7274 86.4568 21.8219 86.5317C21.9182 86.6049 22.0431 86.6414 22.1965 86.6414C22.3446 86.6414 22.4659 86.6067 22.5604 86.5371C22.6567 86.4657 22.7317 86.3605 22.7852 86.2213Z" fill="#303549"/>
<path opacity="0.1" fill-rule="evenodd" clip-rule="evenodd" d="M291 95L293.232 92.7596V81.3743L291 79H316.632L319 81.5488V92.4508L316.632 95H291Z" fill="#8C99B2"/>
<path d="M9 90.5H276" stroke="#8C99B2"/>
<path d="M276 90.5H279" stroke="#F7931E"/>
<path d="M299.132 82.6125L297.409 86H296.839L298.664 82.484H296.603V82.0158H299.132V82.6125ZM302.099 84.0065C302.099 84.7219 301.995 85.2472 301.786 85.5826C301.579 85.9162 301.259 86.0829 300.826 86.0829C300.387 86.0829 300.065 85.9126 299.86 85.5719C299.655 85.2312 299.552 84.7112 299.552 84.0119C299.552 83.293 299.655 82.7677 299.862 82.4359C300.071 82.1023 300.392 81.9355 300.826 81.9355C301.264 81.9355 301.586 82.1076 301.792 82.4519C301.997 82.7962 302.099 83.3144 302.099 84.0065ZM301.414 85.2213C301.466 85.0893 301.503 84.9226 301.524 84.721C301.545 84.5194 301.556 84.2813 301.556 84.0065C301.556 83.7336 301.545 83.4964 301.524 83.2948C301.503 83.0932 301.465 82.9255 301.412 82.7917C301.358 82.6562 301.284 82.5536 301.19 82.484C301.097 82.4127 300.975 82.377 300.826 82.377C300.678 82.377 300.555 82.4127 300.459 82.484C300.365 82.5536 300.29 82.6579 300.234 82.7971C300.181 82.9327 300.144 83.1039 300.125 83.3108C300.105 83.5178 300.095 83.7515 300.095 84.0119C300.095 84.2902 300.103 84.523 300.119 84.7103C300.137 84.8976 300.175 85.0653 300.232 85.2133C300.283 85.3507 300.356 85.4568 300.451 85.5317C300.547 85.6049 300.672 85.6414 300.826 85.6414C300.974 85.6414 301.095 85.6067 301.19 85.5371C301.286 85.4657 301.361 85.3605 301.414 85.2213ZM304.869 86H302.926V85.5933H303.649V82.9229H302.926V82.5589C303.199 82.5589 303.4 82.5206 303.528 82.4439C303.658 82.3654 303.732 82.2182 303.748 82.0024H304.162V85.5933H304.869V86ZM309.819 82.6125L308.096 86H307.526L309.351 82.484H307.29V82.0158H309.819V82.6125ZM312.187 82.9443C312.187 82.7659 312.127 82.6169 312.008 82.4974C311.888 82.3779 311.722 82.3181 311.51 82.3181C311.316 82.3181 311.156 82.3716 311.031 82.4787C310.908 82.5857 310.846 82.7302 310.846 82.9121C310.846 83.0442 310.878 83.1556 310.94 83.2466C311.004 83.3376 311.1 83.4197 311.226 83.4928C311.282 83.5231 311.366 83.565 311.478 83.6186C311.592 83.6721 311.696 83.714 311.788 83.7443C311.944 83.6248 312.049 83.5026 312.104 83.3777C312.159 83.2511 312.187 83.1066 312.187 82.9443ZM312.262 84.9404C312.262 84.7763 312.23 84.6461 312.166 84.5497C312.101 84.4534 311.977 84.3553 311.794 84.2554C311.733 84.2215 311.652 84.1849 311.55 84.1457C311.45 84.1064 311.337 84.0601 311.21 84.0065C311.062 84.1047 310.949 84.226 310.871 84.3704C310.792 84.5132 310.753 84.6764 310.753 84.8601C310.753 85.1009 310.825 85.2998 310.97 85.4568C311.116 85.6138 311.299 85.6923 311.518 85.6923C311.743 85.6923 311.923 85.6254 312.059 85.4916C312.194 85.356 312.262 85.1723 312.262 84.9404ZM311.513 86.091C311.315 86.091 311.135 86.0615 310.972 86.0027C310.81 85.9438 310.672 85.8591 310.557 85.7485C310.445 85.6414 310.359 85.5148 310.301 85.3685C310.244 85.2205 310.215 85.0644 310.215 84.9003C310.215 84.6844 310.272 84.4864 310.386 84.3062C310.502 84.1243 310.67 83.9798 310.889 83.8728V83.8567C310.693 83.7425 310.548 83.6177 310.453 83.4821C310.359 83.3465 310.311 83.1771 310.311 82.9737C310.311 82.674 310.425 82.4243 310.651 82.2245C310.878 82.0247 311.165 81.9248 311.513 81.9248C311.875 81.9248 312.165 82.0202 312.382 82.2111C312.602 82.4002 312.711 82.6428 312.711 82.9389C312.711 83.1173 312.659 83.2939 312.554 83.4687C312.45 83.6435 312.3 83.78 312.104 83.8781V83.8942C312.336 84.003 312.512 84.135 312.631 84.2902C312.751 84.4454 312.81 84.6452 312.81 84.8896C312.81 85.2303 312.686 85.5157 312.439 85.7458C312.192 85.9759 311.884 86.091 311.513 86.091ZM315.714 84.7317C315.714 84.9243 315.682 85.1027 315.62 85.2668C315.559 85.431 315.474 85.5728 315.363 85.6923C315.251 85.8136 315.111 85.909 314.943 85.9786C314.777 86.0482 314.591 86.0829 314.384 86.0829C314.193 86.0829 314.005 86.0615 313.819 86.0187C313.636 85.9777 313.476 85.9233 313.34 85.8555V85.2909H313.378C313.419 85.3212 313.478 85.356 313.554 85.3953C313.631 85.4327 313.716 85.4684 313.809 85.5023C313.914 85.5398 314.01 85.5692 314.098 85.5906C314.185 85.6102 314.283 85.62 314.392 85.62C314.499 85.62 314.603 85.6013 314.705 85.5638C314.807 85.5246 314.894 85.4622 314.967 85.3765C315.033 85.2981 315.083 85.2062 315.117 85.1009C315.153 84.9957 315.171 84.8717 315.171 84.729C315.171 84.5881 315.151 84.4721 315.112 84.3812C315.074 84.2902 315.019 84.2153 314.946 84.1564C314.869 84.0886 314.774 84.0413 314.662 84.0146C314.552 83.986 314.428 83.9718 314.29 83.9718C314.146 83.9718 314 83.9834 313.854 84.0065C313.708 84.0279 313.591 84.0485 313.503 84.0681V82.0158H315.69V82.484H314.02V83.5436C314.084 83.5365 314.147 83.5311 314.21 83.5276C314.272 83.524 314.329 83.5222 314.381 83.5222C314.585 83.5222 314.757 83.5392 314.898 83.5731C315.039 83.607 315.174 83.673 315.304 83.7711C315.436 83.871 315.537 83.9958 315.607 84.1457C315.678 84.2955 315.714 84.4909 315.714 84.7317Z" fill="#303549"/>
<path d="M9.30994 106H8.78014V102.487H7.43689C7.43154 102.688 7.42441 102.885 7.41549 103.078C7.40657 103.269 7.39943 103.44 7.39408 103.592C7.37981 103.968 7.35662 104.279 7.32451 104.526C7.29419 104.772 7.25405 104.978 7.2041 105.144C7.15594 105.306 7.09885 105.437 7.03285 105.537C6.96863 105.637 6.89817 105.721 6.82146 105.789C6.74119 105.862 6.65467 105.917 6.56191 105.955C6.47094 105.99 6.3648 106.008 6.2435 106.008C6.20604 106.008 6.16768 106.006 6.12844 106.003C6.09098 106.001 6.06154 106 6.04014 106V105.486H6.0776C6.09544 105.488 6.1106 105.49 6.12309 105.492C6.13557 105.493 6.1543 105.494 6.17928 105.494C6.2435 105.494 6.30326 105.484 6.35855 105.465C6.41385 105.445 6.46113 105.415 6.50037 105.374C6.62167 105.254 6.70997 105.042 6.76527 104.737C6.82236 104.43 6.86249 104.018 6.88568 103.501C6.8946 103.326 6.90352 103.095 6.91244 102.808C6.92136 102.521 6.92939 102.257 6.93652 102.016H9.30994V106ZM11.4639 104.499H9.9548V104.015H11.4639V104.499ZM14.4555 106H11.9964V105.441C12.173 105.273 12.3398 105.113 12.4968 104.959C12.6538 104.806 12.8072 104.646 12.957 104.48C13.2603 104.147 13.4672 103.88 13.5778 103.68C13.6884 103.479 13.7437 103.271 13.7437 103.057C13.7437 102.946 13.7259 102.849 13.6902 102.765C13.6563 102.681 13.609 102.612 13.5484 102.556C13.4859 102.503 13.4137 102.463 13.3316 102.436C13.2496 102.409 13.1595 102.396 13.0614 102.396C12.9668 102.396 12.8705 102.408 12.7724 102.433C12.6761 102.456 12.5833 102.486 12.4941 102.521C12.4192 102.552 12.347 102.588 12.2774 102.631C12.2078 102.674 12.1516 102.711 12.1088 102.741H12.0794V102.174C12.19 102.118 12.3434 102.065 12.5396 102.013C12.7376 101.96 12.9249 101.933 13.1015 101.933C13.4726 101.933 13.7633 102.032 13.9738 102.23C14.1843 102.426 14.2896 102.693 14.2896 103.03C14.2896 103.185 14.2708 103.329 14.2334 103.461C14.1977 103.593 14.1478 103.715 14.0835 103.827C14.0175 103.943 13.9382 104.058 13.8454 104.172C13.7526 104.287 13.6545 104.399 13.5511 104.51C13.3834 104.692 13.1961 104.881 12.9891 105.077C12.784 105.273 12.6199 105.428 12.4968 105.542H14.4555V106ZM17.5513 104.63H17.0777V106H16.564V104.63H14.8033V104.068L16.5854 102.016H17.0777V104.202H17.5513V104.63ZM16.564 104.202V102.645L15.2207 104.202H16.564ZM19.4378 104.499H17.9286V104.015H19.4378V104.499ZM22.4908 104.708C22.4908 104.913 22.4569 105.102 22.3892 105.275C22.3214 105.448 22.2304 105.592 22.1162 105.708C21.9967 105.831 21.8629 105.925 21.7149 105.989C21.5668 106.052 21.4036 106.083 21.2252 106.083C21.045 106.083 20.8809 106.053 20.7329 105.992C20.5866 105.931 20.4572 105.841 20.3449 105.722C20.2075 105.577 20.0996 105.385 20.0211 105.144C19.9444 104.901 19.906 104.603 19.906 104.25C19.906 103.904 19.9417 103.592 20.0131 103.314C20.0844 103.033 20.1941 102.79 20.3422 102.583C20.4867 102.381 20.6731 102.224 20.9014 102.112C21.1298 101.998 21.3938 101.941 21.6935 101.941C21.7827 101.941 21.8656 101.945 21.9423 101.954C22.019 101.963 22.0868 101.977 22.1457 101.997V102.508H22.1216C22.0734 102.481 22.0038 102.457 21.9129 102.436C21.8219 102.413 21.7247 102.401 21.6212 102.401C21.2894 102.401 21.0209 102.513 20.8158 102.738C20.6124 102.961 20.492 103.293 20.4546 103.734C20.5812 103.644 20.7114 103.576 20.8452 103.528C20.979 103.479 21.1253 103.455 21.2841 103.455C21.4393 103.455 21.5748 103.471 21.6908 103.503C21.8085 103.534 21.9307 103.596 22.0574 103.691C22.2036 103.801 22.3125 103.941 22.3838 104.111C22.4552 104.28 22.4908 104.479 22.4908 104.708ZM21.9477 104.729C21.9477 104.565 21.9263 104.428 21.8834 104.317C21.8406 104.206 21.7711 104.112 21.6747 104.033C21.6052 103.976 21.5258 103.939 21.4366 103.921C21.3492 103.903 21.2591 103.894 21.1663 103.894C21.0415 103.894 20.9202 103.913 20.8024 103.95C20.6847 103.988 20.5687 104.042 20.4546 104.114C20.451 104.153 20.4483 104.191 20.4465 104.229C20.4448 104.264 20.4439 104.31 20.4439 104.365C20.4439 104.642 20.4706 104.865 20.5241 105.034C20.5794 105.204 20.6472 105.332 20.7275 105.419C20.8042 105.503 20.8827 105.562 20.963 105.596C21.045 105.63 21.1333 105.647 21.2279 105.647C21.4419 105.647 21.615 105.57 21.747 105.417C21.8808 105.263 21.9477 105.034 21.9477 104.729Z" fill="#303549"/>
<path opacity="0.1" fill-rule="evenodd" clip-rule="evenodd" d="M291 115L293.232 112.62V100.523L291 98H316.632L319 100.708V112.292L316.632 115H291Z" fill="#8C99B2"/>
<path d="M9 110H254" stroke="#8C99B2"/>
<path d="M254 110H279" stroke="#F7931E"/>
<path d="M302.035 104.732C302.035 104.924 302.004 105.103 301.941 105.267C301.881 105.431 301.795 105.573 301.685 105.692C301.572 105.814 301.432 105.909 301.264 105.979C301.099 106.048 300.912 106.083 300.705 106.083C300.514 106.083 300.326 106.062 300.141 106.019C299.957 105.978 299.797 105.923 299.662 105.856V105.291H299.699C299.74 105.321 299.799 105.356 299.876 105.395C299.952 105.433 300.037 105.468 300.13 105.502C300.235 105.54 300.332 105.569 300.419 105.591C300.506 105.61 300.604 105.62 300.713 105.62C300.82 105.62 300.925 105.601 301.026 105.564C301.128 105.525 301.215 105.462 301.289 105.377C301.355 105.298 301.405 105.206 301.438 105.101C301.474 104.996 301.492 104.872 301.492 104.729C301.492 104.588 301.472 104.472 301.433 104.381C301.396 104.29 301.34 104.215 301.267 104.156C301.19 104.089 301.096 104.041 300.984 104.015C300.873 103.986 300.749 103.972 300.612 103.972C300.467 103.972 300.322 103.983 300.175 104.007C300.029 104.028 299.912 104.048 299.825 104.068V102.016H302.011V102.484H300.341V103.544C300.406 103.536 300.469 103.531 300.531 103.528C300.594 103.524 300.651 103.522 300.703 103.522C300.906 103.522 301.078 103.539 301.219 103.573C301.36 103.607 301.495 103.673 301.626 103.771C301.758 103.871 301.858 103.996 301.928 104.146C301.999 104.296 302.035 104.491 302.035 104.732ZM305.134 104.708C305.134 104.913 305.1 105.102 305.032 105.275C304.964 105.448 304.873 105.592 304.759 105.708C304.64 105.831 304.506 105.925 304.358 105.989C304.21 106.052 304.046 106.083 303.868 106.083C303.688 106.083 303.524 106.053 303.376 105.992C303.229 105.931 303.1 105.841 302.988 105.722C302.85 105.577 302.742 105.385 302.664 105.144C302.587 104.901 302.549 104.603 302.549 104.25C302.549 103.904 302.585 103.592 302.656 103.314C302.727 103.033 302.837 102.79 302.985 102.583C303.129 102.381 303.316 102.224 303.544 102.112C303.773 101.998 304.037 101.941 304.336 101.941C304.425 101.941 304.508 101.945 304.585 101.954C304.662 101.963 304.73 101.977 304.788 101.997V102.508H304.764C304.716 102.481 304.647 102.457 304.556 102.436C304.465 102.413 304.367 102.401 304.264 102.401C303.932 102.401 303.664 102.513 303.459 102.738C303.255 102.961 303.135 103.293 303.097 103.734C303.224 103.644 303.354 103.576 303.488 103.528C303.622 103.479 303.768 103.455 303.927 103.455C304.082 103.455 304.218 103.471 304.334 103.503C304.451 103.534 304.574 103.596 304.7 103.691C304.846 103.801 304.955 103.941 305.027 104.111C305.098 104.28 305.134 104.479 305.134 104.708ZM304.59 104.729C304.59 104.565 304.569 104.428 304.526 104.317C304.483 104.206 304.414 104.112 304.318 104.033C304.248 103.976 304.169 103.939 304.079 103.921C303.992 103.903 303.902 103.894 303.809 103.894C303.684 103.894 303.563 103.913 303.445 103.95C303.327 103.988 303.212 104.042 303.097 104.114C303.094 104.153 303.091 104.191 303.089 104.229C303.088 104.264 303.087 104.31 303.087 104.365C303.087 104.642 303.113 104.865 303.167 105.034C303.222 105.204 303.29 105.332 303.37 105.419C303.447 105.503 303.526 105.562 303.606 105.596C303.688 105.63 303.776 105.647 303.871 105.647C304.085 105.647 304.258 105.57 304.39 105.417C304.524 105.263 304.59 105.034 304.59 104.729ZM309.838 104.708C309.838 104.913 309.804 105.102 309.736 105.275C309.668 105.448 309.577 105.592 309.463 105.708C309.344 105.831 309.21 105.925 309.062 105.989C308.914 106.052 308.75 106.083 308.572 106.083C308.392 106.083 308.228 106.053 308.08 105.992C307.933 105.931 307.804 105.841 307.692 105.722C307.554 105.577 307.446 105.385 307.368 105.144C307.291 104.901 307.253 104.603 307.253 104.25C307.253 103.904 307.289 103.592 307.36 103.314C307.431 103.033 307.541 102.79 307.689 102.583C307.834 102.381 308.02 102.224 308.248 102.112C308.477 101.998 308.741 101.941 309.04 101.941C309.129 101.941 309.212 101.945 309.289 101.954C309.366 101.963 309.434 101.977 309.492 101.997V102.508H309.468C309.42 102.481 309.351 102.457 309.26 102.436C309.169 102.413 309.072 102.401 308.968 102.401C308.636 102.401 308.368 102.513 308.163 102.738C307.959 102.961 307.839 103.293 307.801 103.734C307.928 103.644 308.058 103.576 308.192 103.528C308.326 103.479 308.472 103.455 308.631 103.455C308.786 103.455 308.922 103.471 309.038 103.503C309.155 103.534 309.278 103.596 309.404 103.691C309.55 103.801 309.659 103.941 309.731 104.111C309.802 104.28 309.838 104.479 309.838 104.708ZM309.294 104.729C309.294 104.565 309.273 104.428 309.23 104.317C309.187 104.206 309.118 104.112 309.022 104.033C308.952 103.976 308.873 103.939 308.783 103.921C308.696 103.903 308.606 103.894 308.513 103.894C308.388 103.894 308.267 103.913 308.149 103.95C308.032 103.988 307.916 104.042 307.801 104.114C307.798 104.153 307.795 104.191 307.793 104.229C307.792 104.264 307.791 104.31 307.791 104.365C307.791 104.642 307.817 104.865 307.871 105.034C307.926 105.204 307.994 105.332 308.074 105.419C308.151 105.503 308.23 105.562 308.31 105.596C308.392 105.63 308.48 105.647 308.575 105.647C308.789 105.647 308.962 105.57 309.094 105.417C309.228 105.263 309.294 105.034 309.294 104.729ZM312.786 104.007C312.786 104.722 312.682 105.247 312.473 105.583C312.266 105.916 311.946 106.083 311.513 106.083C311.074 106.083 310.752 105.913 310.547 105.572C310.342 105.231 310.239 104.711 310.239 104.012C310.239 103.293 310.343 102.768 310.549 102.436C310.758 102.102 311.079 101.935 311.513 101.935C311.952 101.935 312.274 102.108 312.479 102.452C312.684 102.796 312.786 103.314 312.786 104.007ZM312.101 105.221C312.153 105.089 312.19 104.923 312.211 104.721C312.232 104.519 312.243 104.281 312.243 104.007C312.243 103.734 312.232 103.496 312.211 103.295C312.19 103.093 312.152 102.926 312.099 102.792C312.045 102.656 311.971 102.554 311.877 102.484C311.784 102.413 311.663 102.377 311.513 102.377C311.365 102.377 311.242 102.413 311.146 102.484C311.052 102.554 310.977 102.658 310.921 102.797C310.868 102.933 310.831 103.104 310.812 103.311C310.792 103.518 310.782 103.751 310.782 104.012C310.782 104.29 310.79 104.523 310.806 104.71C310.824 104.898 310.862 105.065 310.919 105.213C310.97 105.351 311.044 105.457 311.138 105.532C311.234 105.605 311.359 105.641 311.513 105.641C311.661 105.641 311.782 105.607 311.877 105.537C311.973 105.466 312.048 105.36 312.101 105.221ZM315.821 104.708C315.821 104.913 315.787 105.102 315.719 105.275C315.651 105.448 315.56 105.592 315.446 105.708C315.327 105.831 315.193 105.925 315.045 105.989C314.897 106.052 314.733 106.083 314.555 106.083C314.375 106.083 314.211 106.053 314.063 105.992C313.916 105.931 313.787 105.841 313.675 105.722C313.537 105.577 313.429 105.385 313.351 105.144C313.274 104.901 313.236 104.603 313.236 104.25C313.236 103.904 313.272 103.592 313.343 103.314C313.414 103.033 313.524 102.79 313.672 102.583C313.817 102.381 314.003 102.224 314.231 102.112C314.46 101.998 314.724 101.941 315.023 101.941C315.113 101.941 315.195 101.945 315.272 101.954C315.349 101.963 315.417 101.977 315.476 101.997V102.508H315.451C315.403 102.481 315.334 102.457 315.243 102.436C315.152 102.413 315.055 102.401 314.951 102.401C314.619 102.401 314.351 102.513 314.146 102.738C313.942 102.961 313.822 103.293 313.784 103.734C313.911 103.644 314.041 103.576 314.175 103.528C314.309 103.479 314.455 103.455 314.614 103.455C314.769 103.455 314.905 103.471 315.021 103.503C315.138 103.534 315.261 103.596 315.387 103.691C315.534 103.801 315.642 103.941 315.714 104.111C315.785 104.28 315.821 104.479 315.821 104.708ZM315.278 104.729C315.278 104.565 315.256 104.428 315.213 104.317C315.171 104.206 315.101 104.112 315.005 104.033C314.935 103.976 314.856 103.939 314.766 103.921C314.679 103.903 314.589 103.894 314.496 103.894C314.371 103.894 314.25 103.913 314.132 103.95C314.015 103.988 313.899 104.042 313.784 104.114C313.781 104.153 313.778 104.191 313.776 104.229C313.775 104.264 313.774 104.31 313.774 104.365C313.774 104.642 313.801 104.865 313.854 105.034C313.909 105.204 313.977 105.332 314.057 105.419C314.134 105.503 314.213 105.562 314.293 105.596C314.375 105.63 314.463 105.647 314.558 105.647C314.772 105.647 314.945 105.57 315.077 105.417C315.211 105.263 315.278 105.034 315.278 104.729Z" fill="#303549"/>
<path d="M306.785 92.499H305.275V92.0147H306.785V92.499ZM309.776 94.0001H307.317V93.4409C307.494 93.2732 307.66 93.1126 307.817 92.9592C307.974 92.8058 308.128 92.6462 308.278 92.4803C308.581 92.1467 308.788 91.88 308.898 91.6802C309.009 91.4786 309.064 91.2708 309.064 91.0567C309.064 90.9461 309.047 90.8489 309.011 90.7651C308.977 90.6812 308.93 90.6117 308.869 90.5564C308.807 90.5029 308.734 90.4627 308.652 90.436C308.57 90.4092 308.48 90.3958 308.382 90.3958C308.288 90.3958 308.191 90.4083 308.093 90.4333C307.997 90.4565 307.904 90.4859 307.815 90.5216C307.74 90.5519 307.668 90.5885 307.598 90.6313C307.528 90.6741 307.472 90.7107 307.429 90.741H307.4V90.1737C307.511 90.1184 307.664 90.0649 307.86 90.0132C308.058 89.9597 308.246 89.9329 308.422 89.9329C308.793 89.9329 309.084 90.0319 309.294 90.2299C309.505 90.4261 309.61 90.6928 309.61 91.03C309.61 91.1852 309.592 91.3288 309.554 91.4608C309.518 91.5928 309.468 91.715 309.404 91.8274C309.338 91.9433 309.259 92.0584 309.166 92.1725C309.073 92.2867 308.975 92.3991 308.872 92.5097C308.704 92.6916 308.517 92.8807 308.31 93.077C308.105 93.2732 307.941 93.4284 307.817 93.5425H309.776V94.0001ZM312.872 92.6301H312.398V94.0001H311.885V92.6301H310.124V92.0682L311.906 90.0159H312.398V92.202H312.872V92.6301ZM311.885 92.202V90.6447L310.541 92.202H311.885ZM315.864 92.6301H315.39V94.0001H314.876V92.6301H313.116V92.0682L314.898 90.0159H315.39V92.202H315.864V92.6301ZM314.876 92.202V90.6447L313.533 92.202H314.876Z" fill="#F7931E"/>
<path d="M306.785 111.499H305.275V111.015H306.785V111.499ZM309.88 111.63H309.407V113H308.893V111.63H307.132V111.068L308.915 109.016H309.407V111.202H309.88V111.63ZM308.893 111.202V109.645L307.55 111.202H308.893ZM312.722 111.732C312.722 111.924 312.691 112.103 312.629 112.267C312.568 112.431 312.482 112.573 312.372 112.692C312.259 112.814 312.119 112.909 311.952 112.979C311.786 113.048 311.599 113.083 311.392 113.083C311.201 113.083 311.013 113.062 310.828 113.019C310.644 112.978 310.484 112.923 310.349 112.856V112.291H310.386C310.427 112.321 310.486 112.356 310.563 112.395C310.64 112.433 310.724 112.468 310.817 112.502C310.922 112.54 311.019 112.569 311.106 112.591C311.193 112.61 311.292 112.62 311.4 112.62C311.507 112.62 311.612 112.601 311.713 112.564C311.815 112.525 311.902 112.462 311.976 112.377C312.042 112.298 312.092 112.206 312.125 112.101C312.161 111.996 312.179 111.872 312.179 111.729C312.179 111.588 312.159 111.472 312.12 111.381C312.083 111.29 312.027 111.215 311.954 111.156C311.878 111.089 311.783 111.041 311.671 111.015C311.56 110.986 311.436 110.972 311.299 110.972C311.154 110.972 311.009 110.983 310.862 111.007C310.716 111.028 310.599 111.048 310.512 111.068V109.016H312.698V109.484H311.028V110.544C311.093 110.536 311.156 110.531 311.218 110.528C311.281 110.524 311.338 110.522 311.39 110.522C311.593 110.522 311.765 110.539 311.906 110.573C312.047 110.607 312.183 110.673 312.313 110.771C312.445 110.871 312.546 110.996 312.615 111.146C312.686 111.296 312.722 111.491 312.722 111.732ZM315.802 109.612L314.079 113H313.509L315.334 109.484H313.273V109.016H315.802V109.612Z" fill="#F7931E"/>
</svg>
