<svg width="324" height="117" viewBox="0 0 324 117" fill="none" xmlns="http://www.w3.org/2000/svg">
<path d="M37.521 103.845C37.6675 103.971 37.7876 104.129 37.8813 104.319C37.978 104.507 38.0264 104.75 38.0264 105.049C38.0264 105.342 37.9678 105.614 37.8506 105.866C37.7334 106.115 37.5723 106.333 37.3672 106.521C37.1562 106.714 36.8955 106.862 36.585 106.965C36.2744 107.067 35.9287 107.119 35.5479 107.119C35.1406 107.119 34.7671 107.079 34.4272 107C34.0874 106.918 33.8149 106.833 33.6099 106.745V105.77H33.6714C33.9058 105.925 34.1899 106.062 34.5239 106.183C34.8608 106.3 35.1978 106.358 35.5347 106.358C35.7485 106.358 35.9609 106.331 36.1719 106.275C36.3857 106.216 36.5645 106.123 36.708 105.994C36.8516 105.865 36.957 105.726 37.0244 105.576C37.0918 105.424 37.1255 105.233 37.1255 105.005C37.1255 104.782 37.0845 104.595 37.0024 104.442C36.9233 104.29 36.8105 104.167 36.6641 104.073C36.5205 103.979 36.3477 103.914 36.1455 103.875C35.9463 103.834 35.7324 103.814 35.5039 103.814H34.8184V103.084H35.416C35.8789 103.084 36.251 102.992 36.5322 102.808C36.8135 102.623 36.9541 102.354 36.9541 101.999C36.9541 101.838 36.9189 101.7 36.8486 101.586C36.7812 101.469 36.6846 101.374 36.5586 101.3C36.4209 101.221 36.2759 101.168 36.1235 101.142C35.9741 101.113 35.8101 101.098 35.6313 101.098C35.4438 101.098 35.2593 101.12 35.0776 101.164C34.896 101.205 34.7246 101.256 34.5635 101.318C34.4111 101.379 34.2778 101.444 34.1636 101.511C34.0493 101.579 33.9556 101.634 33.8823 101.678H33.8252V100.716C34.0244 100.622 34.2954 100.536 34.6382 100.457C34.981 100.377 35.3193 100.338 35.6533 100.338C35.9902 100.338 36.2803 100.367 36.5234 100.426C36.7666 100.481 36.9893 100.574 37.1914 100.703C37.4111 100.846 37.5752 101.016 37.6836 101.212C37.7949 101.406 37.8506 101.637 37.8506 101.907C37.8506 102.261 37.7319 102.57 37.4946 102.834C37.2603 103.098 36.9526 103.271 36.5718 103.353V103.418C36.7183 103.445 36.8765 103.492 37.0464 103.559C37.2192 103.626 37.3774 103.722 37.521 103.845ZM41.6123 105.792V104.429C41.416 104.447 41.167 104.472 40.8652 104.504C40.5664 104.533 40.3247 104.576 40.1401 104.631C39.9204 104.699 39.7388 104.803 39.5952 104.943C39.4517 105.081 39.3799 105.274 39.3799 105.523C39.3799 105.805 39.459 106.017 39.6172 106.161C39.7754 106.304 40.0068 106.376 40.3115 106.376C40.5723 106.376 40.8081 106.32 41.019 106.209C41.23 106.095 41.4277 105.956 41.6123 105.792ZM41.6123 106.477C41.5449 106.527 41.4541 106.597 41.3398 106.688C41.2285 106.776 41.1201 106.846 41.0146 106.899C40.8682 106.975 40.7261 107.034 40.5884 107.075C40.4536 107.116 40.2632 107.136 40.0171 107.136C39.8149 107.136 39.623 107.098 39.4414 107.022C39.2598 106.946 39.1001 106.839 38.9624 106.701C38.8306 106.566 38.7251 106.401 38.646 106.205C38.5669 106.005 38.5273 105.796 38.5273 105.576C38.5273 105.236 38.5991 104.948 38.7427 104.71C38.8862 104.47 39.1133 104.28 39.4238 104.139C39.6992 104.013 40.0244 103.927 40.3994 103.88C40.7744 103.83 41.1787 103.793 41.6123 103.77V103.612C41.6123 103.418 41.583 103.263 41.5244 103.146C41.4658 103.026 41.3838 102.934 41.2783 102.869C41.1729 102.802 41.0439 102.758 40.8916 102.737C40.7393 102.714 40.5825 102.702 40.4214 102.702C40.231 102.702 40.0068 102.731 39.749 102.79C39.4912 102.846 39.2334 102.928 38.9756 103.036H38.9272V102.197C39.0796 102.153 39.2979 102.104 39.582 102.052C39.8662 101.999 40.1475 101.973 40.4258 101.973C40.7627 101.973 41.0469 101.999 41.2783 102.052C41.5098 102.104 41.7178 102.2 41.9023 102.337C42.0811 102.472 42.2144 102.646 42.3022 102.86C42.3901 103.074 42.4341 103.335 42.4341 103.643V107H41.6123V106.477ZM46.7188 102.816H44.4248V107H43.5986V102.091H46.7188V102.816ZM51.4517 104.416C51.4517 105.233 51.2554 105.885 50.8628 106.372C50.4731 106.855 49.9795 107.097 49.3818 107.097C49.1387 107.097 48.9233 107.069 48.7358 107.013C48.5483 106.958 48.3564 106.871 48.1602 106.754V108.811H47.334V102.091H48.1602V102.605C48.3652 102.421 48.5923 102.267 48.8413 102.144C49.0933 102.018 49.3672 101.955 49.6631 101.955C50.2256 101.955 50.6636 102.178 50.9771 102.623C51.2935 103.068 51.4517 103.666 51.4517 104.416ZM50.5991 104.508C50.5991 103.949 50.5098 103.515 50.3311 103.208C50.1523 102.897 49.8623 102.742 49.4609 102.742C49.2266 102.742 48.9995 102.794 48.7798 102.9C48.563 103.002 48.3564 103.136 48.1602 103.3V106.082C48.377 106.187 48.5615 106.259 48.7139 106.297C48.8691 106.335 49.0464 106.354 49.2456 106.354C49.6733 106.354 50.0059 106.197 50.2432 105.884C50.4805 105.57 50.5991 105.112 50.5991 104.508ZM56.167 102.091L53.5259 108.811H52.6426L53.5215 106.763L51.7373 102.091H52.6294L53.9697 105.726L55.3057 102.091H56.167ZM60.043 105.642C60.043 105.917 59.9829 106.15 59.8628 106.341C59.7427 106.531 59.5889 106.682 59.4014 106.793C59.2227 106.902 59.019 106.982 58.7905 107.035C58.562 107.088 58.3335 107.114 58.105 107.114C57.7827 107.114 57.478 107.082 57.1909 107.018C56.9038 106.956 56.6182 106.856 56.334 106.719V105.805H56.3867C56.5859 105.989 56.835 106.136 57.1338 106.244C57.4355 106.35 57.7358 106.402 58.0347 106.402C58.1636 106.402 58.3013 106.389 58.4478 106.363C58.5972 106.333 58.7231 106.29 58.8257 106.231C58.9604 106.149 59.0557 106.061 59.1113 105.967C59.1699 105.874 59.1992 105.745 59.1992 105.581C59.1992 105.405 59.1655 105.264 59.0981 105.159C59.0337 105.05 58.9443 104.97 58.8301 104.917C58.7158 104.864 58.5869 104.832 58.4434 104.82C58.3027 104.806 58.1533 104.798 57.9951 104.798H57.415V104.086H57.8589C57.9702 104.086 58.1094 104.083 58.2764 104.078C58.4434 104.069 58.5767 104.045 58.6763 104.007C58.8022 103.96 58.9033 103.895 58.9795 103.81C59.0557 103.722 59.0938 103.575 59.0938 103.37C59.0938 103.227 59.0615 103.111 58.9971 103.023C58.9326 102.935 58.8521 102.866 58.7554 102.816C58.6558 102.764 58.5474 102.729 58.4302 102.711C58.313 102.69 58.2002 102.68 58.0918 102.68C57.8135 102.68 57.5454 102.72 57.2876 102.799C57.0327 102.875 56.813 102.989 56.6284 103.142H56.5757V102.25C56.7866 102.176 57.0195 102.112 57.2744 102.056C57.5322 102 57.79 101.973 58.0479 101.973C58.2559 101.973 58.4668 101.995 58.6807 102.039C58.8975 102.08 59.1025 102.151 59.2959 102.254C59.4775 102.354 59.6299 102.491 59.7529 102.667C59.876 102.84 59.9375 103.052 59.9375 103.304C59.9375 103.571 59.8613 103.805 59.709 104.007C59.5596 104.207 59.3604 104.338 59.1113 104.403V104.434C59.3838 104.527 59.6064 104.671 59.7793 104.864C59.9551 105.058 60.043 105.317 60.043 105.642ZM64.8638 107H63.8354L62.1523 104.737H61.7393V107H60.9131V102.091H61.7393V104.227C61.9531 104.224 62.1348 104.18 62.2842 104.095C62.4365 104.007 62.5654 103.839 62.6709 103.59C62.7031 103.517 62.7383 103.432 62.7764 103.335C62.8174 103.238 62.8496 103.153 62.873 103.08C63.002 102.72 63.1807 102.465 63.4092 102.315C63.6377 102.166 63.9351 102.091 64.3013 102.091H64.5254V102.803H64.3364C64.105 102.803 63.9307 102.852 63.8135 102.948C63.6992 103.042 63.6025 103.215 63.5234 103.467C63.4414 103.722 63.3447 103.921 63.2334 104.064C63.1221 104.205 62.999 104.313 62.8643 104.39L64.8638 107ZM68.1377 105.792V104.429C67.9414 104.447 67.6924 104.472 67.3906 104.504C67.0918 104.533 66.8501 104.576 66.6655 104.631C66.4458 104.699 66.2642 104.803 66.1206 104.943C65.9771 105.081 65.9053 105.274 65.9053 105.523C65.9053 105.805 65.9844 106.017 66.1426 106.161C66.3008 106.304 66.5322 106.376 66.8369 106.376C67.0977 106.376 67.3335 106.32 67.5444 106.209C67.7554 106.095 67.9531 105.956 68.1377 105.792ZM68.1377 106.477C68.0703 106.527 67.9795 106.597 67.8652 106.688C67.7539 106.776 67.6455 106.846 67.54 106.899C67.3936 106.975 67.2515 107.034 67.1138 107.075C66.979 107.116 66.7886 107.136 66.5425 107.136C66.3403 107.136 66.1484 107.098 65.9668 107.022C65.7852 106.946 65.6255 106.839 65.4878 106.701C65.356 106.566 65.2505 106.401 65.1714 106.205C65.0923 106.005 65.0527 105.796 65.0527 105.576C65.0527 105.236 65.1245 104.948 65.2681 104.71C65.4116 104.47 65.6387 104.28 65.9492 104.139C66.2246 104.013 66.5498 103.927 66.9248 103.88C67.2998 103.83 67.7041 103.793 68.1377 103.77V103.612C68.1377 103.418 68.1084 103.263 68.0498 103.146C67.9912 103.026 67.9092 102.934 67.8037 102.869C67.6982 102.802 67.5693 102.758 67.417 102.737C67.2646 102.714 67.1079 102.702 66.9468 102.702C66.7563 102.702 66.5322 102.731 66.2744 102.79C66.0166 102.846 65.7588 102.928 65.501 103.036H65.4526V102.197C65.605 102.153 65.8232 102.104 66.1074 102.052C66.3916 101.999 66.6729 101.973 66.9512 101.973C67.2881 101.973 67.5723 101.999 67.8037 102.052C68.0352 102.104 68.2432 102.2 68.4277 102.337C68.6064 102.472 68.7397 102.646 68.8276 102.86C68.9155 103.074 68.9595 103.335 68.9595 103.643V107H68.1377V106.477Z" fill="#303549"/>
<path d="M44.0771 91H40.5322V90.2578H41.8506V85.3848H40.5322V84.7207C41.0303 84.7207 41.3965 84.6507 41.6309 84.5107C41.8685 84.3675 42.002 84.099 42.0312 83.7051H42.7881V90.2578H44.0771V91ZM49.9414 87.3623C49.9414 88.6676 49.751 89.6263 49.3701 90.2383C48.9925 90.847 48.4082 91.1514 47.6172 91.1514C46.8164 91.1514 46.2288 90.8405 45.8545 90.2188C45.4801 89.597 45.293 88.6481 45.293 87.3721C45.293 86.0602 45.4818 85.1016 45.8594 84.4961C46.2402 83.8874 46.8262 83.583 47.6172 83.583C48.418 83.583 49.0055 83.8971 49.3799 84.5254C49.7542 85.1536 49.9414 86.0993 49.9414 87.3623ZM48.6914 89.5791C48.7858 89.3382 48.8525 89.0339 48.8916 88.666C48.9307 88.2982 48.9502 87.8636 48.9502 87.3623C48.9502 86.8643 48.9307 86.4313 48.8916 86.0635C48.8525 85.6956 48.7842 85.3896 48.6865 85.1455C48.5889 84.8981 48.4538 84.7109 48.2812 84.584C48.112 84.4538 47.8906 84.3887 47.6172 84.3887C47.347 84.3887 47.124 84.4538 46.9482 84.584C46.7757 84.7109 46.639 84.9014 46.5381 85.1553C46.4404 85.4027 46.3737 85.7152 46.3379 86.0928C46.3021 86.4704 46.2842 86.8968 46.2842 87.3721C46.2842 87.8799 46.2988 88.3047 46.3281 88.6465C46.3607 88.9883 46.429 89.2943 46.5332 89.5645C46.6276 89.8151 46.7611 90.0088 46.9336 90.1455C47.1094 90.279 47.3372 90.3457 47.6172 90.3457C47.8874 90.3457 48.1087 90.2822 48.2812 90.1553C48.457 90.0251 48.5938 89.833 48.6914 89.5791ZM55.4004 87.3623C55.4004 88.6676 55.21 89.6263 54.8291 90.2383C54.4515 90.847 53.8672 91.1514 53.0762 91.1514C52.2754 91.1514 51.6878 90.8405 51.3135 90.2188C50.9391 89.597 50.752 88.6481 50.752 87.3721C50.752 86.0602 50.9408 85.1016 51.3184 84.4961C51.6992 83.8874 52.2852 83.583 53.0762 83.583C53.877 83.583 54.4645 83.8971 54.8389 84.5254C55.2132 85.1536 55.4004 86.0993 55.4004 87.3623ZM54.1504 89.5791C54.2448 89.3382 54.3115 89.0339 54.3506 88.666C54.3896 88.2982 54.4092 87.8636 54.4092 87.3623C54.4092 86.8643 54.3896 86.4313 54.3506 86.0635C54.3115 85.6956 54.2432 85.3896 54.1455 85.1455C54.0479 84.8981 53.9128 84.7109 53.7402 84.584C53.571 84.4538 53.3496 84.3887 53.0762 84.3887C52.806 84.3887 52.583 84.4538 52.4072 84.584C52.2347 84.7109 52.098 84.9014 51.9971 85.1553C51.8994 85.4027 51.8327 85.7152 51.7969 86.0928C51.7611 86.4704 51.7432 86.8968 51.7432 87.3721C51.7432 87.8799 51.7578 88.3047 51.7871 88.6465C51.8197 88.9883 51.888 89.2943 51.9922 89.5645C52.0866 89.8151 52.2201 90.0088 52.3926 90.1455C52.5684 90.279 52.7962 90.3457 53.0762 90.3457C53.3464 90.3457 53.5677 90.2822 53.7402 90.1553C53.916 90.0251 54.0527 89.833 54.1504 89.5791ZM59.7461 85.7461C59.7461 86.4785 59.598 87.0221 59.3018 87.377C59.0088 87.7285 58.584 87.9043 58.0273 87.9043C57.4609 87.9043 57.0312 87.7253 56.7383 87.3672C56.4486 87.0091 56.3037 86.4704 56.3037 85.751C56.3037 85.0218 56.4518 84.4798 56.748 84.125C57.0443 83.7702 57.4707 83.5928 58.0273 83.5928C58.5938 83.5928 59.0218 83.7718 59.3115 84.1299C59.6012 84.488 59.7461 85.0267 59.7461 85.7461ZM62.998 83.7295L59.1895 91H58.3838L62.1924 83.7295H62.998ZM65.0684 88.9834C65.0684 89.7158 64.9202 90.2594 64.624 90.6143C64.3311 90.9658 63.9062 91.1416 63.3496 91.1416C62.7832 91.1416 62.3535 90.9626 62.0605 90.6045C61.7708 90.2464 61.626 89.7077 61.626 88.9883C61.626 88.2591 61.7741 87.7171 62.0703 87.3623C62.3665 87.0075 62.793 86.8301 63.3496 86.8301C63.916 86.8301 64.3441 87.0091 64.6338 87.3672C64.9235 87.7253 65.0684 88.264 65.0684 88.9834ZM58.877 85.7461C58.877 85.2513 58.8184 84.877 58.7012 84.623C58.5872 84.3691 58.3626 84.2422 58.0273 84.2422C57.6921 84.2422 57.4658 84.3708 57.3486 84.6279C57.2314 84.8851 57.1729 85.2594 57.1729 85.751C57.1729 86.2393 57.2282 86.612 57.3389 86.8691C57.4495 87.1263 57.679 87.2549 58.0273 87.2549C58.3626 87.2549 58.5872 87.1263 58.7012 86.8691C58.8184 86.612 58.877 86.2376 58.877 85.7461ZM64.1992 88.9834C64.1992 88.4886 64.1406 88.1143 64.0234 87.8604C63.9095 87.6064 63.6849 87.4795 63.3496 87.4795C63.0143 87.4795 62.7881 87.6081 62.6709 87.8652C62.5537 88.1224 62.4951 88.4967 62.4951 88.9883C62.4951 89.4766 62.5505 89.8493 62.6611 90.1064C62.7718 90.3636 63.0013 90.4922 63.3496 90.4922C63.6849 90.4922 63.9095 90.3636 64.0234 90.1064C64.1406 89.8493 64.1992 89.4749 64.1992 88.9834Z" fill="#8C99B2"/>
<path d="M50.186 68H43.897L46.4458 60.7295H47.6372L50.186 68ZM48.8774 67.1602L47.0171 61.6914L45.1616 67.1602H48.8774ZM58.3159 64.3623C58.3159 65.6676 58.1255 66.6263 57.7446 67.2383C57.367 67.847 56.7827 68.1514 55.9917 68.1514C55.1909 68.1514 54.6034 67.8405 54.229 67.2188C53.8547 66.597 53.6675 65.6481 53.6675 64.3721C53.6675 63.0602 53.8563 62.1016 54.2339 61.4961C54.6147 60.8874 55.2007 60.583 55.9917 60.583C56.7925 60.583 57.38 60.8971 57.7544 61.5254C58.1287 62.1536 58.3159 63.0993 58.3159 64.3623ZM57.0659 66.5791C57.1603 66.3382 57.2271 66.0339 57.2661 65.666C57.3052 65.2982 57.3247 64.8636 57.3247 64.3623C57.3247 63.8643 57.3052 63.4313 57.2661 63.0635C57.2271 62.6956 57.1587 62.3896 57.061 62.1455C56.9634 61.8981 56.8283 61.7109 56.6558 61.584C56.4865 61.4538 56.2651 61.3887 55.9917 61.3887C55.7215 61.3887 55.4985 61.4538 55.3228 61.584C55.1502 61.7109 55.0135 61.9014 54.9126 62.1553C54.8149 62.4027 54.7482 62.7152 54.7124 63.0928C54.6766 63.4704 54.6587 63.8968 54.6587 64.3721C54.6587 64.8799 54.6733 65.3047 54.7026 65.6465C54.7352 65.9883 54.8035 66.2943 54.9077 66.5645C55.0021 66.8151 55.1356 67.0088 55.3081 67.1455C55.4839 67.279 55.7118 67.3457 55.9917 67.3457C56.2619 67.3457 56.4832 67.2822 56.6558 67.1553C56.8315 67.0251 56.9683 66.833 57.0659 66.5791Z" fill="#8C99B2"/>
<path d="M26.8563 84.1111C17.7941 76.778 12 65.5656 12 53C12 30.9086 29.9086 13 52 13C74.0914 13 92 30.9086 92 53C92 65.5656 86.2059 76.778 77.1437 84.1111" stroke="white" stroke-width="14"/>
<path d="M26.8563 84.1111C17.7941 76.778 12 65.5656 12 53C12 30.9086 29.9086 13 52 13C74.0914 13 92 30.9086 92 53C92 65.5656 86.2059 76.778 77.1437 84.1111" stroke="#0089FF" stroke-width="4" stroke-dasharray="1 1"/>
<path d="M81.6586 89.5432L72.713 78.6875" stroke="#0089FF" stroke-width="2"/>
<path d="M22.5734 89.6419L31.5251 78.6875" stroke="#0089FF" stroke-width="2"/>
<path d="M41.9571 44.8613C41.9571 44.2676 41.9024 43.7852 41.793 43.4141C41.6837 43.0391 41.5333 42.75 41.3419 42.5469C41.17 42.3594 40.9962 42.2305 40.8204 42.1602C40.6446 42.0898 40.4512 42.0547 40.2403 42.0547C39.7598 42.0547 39.377 42.2266 39.0919 42.5703C38.8067 42.9141 38.6641 43.4121 38.6641 44.0645C38.6641 44.4316 38.711 44.7344 38.8048 44.9727C38.8985 45.2109 39.0509 45.416 39.2618 45.5879C39.4102 45.709 39.5782 45.791 39.7657 45.834C39.9532 45.873 40.1544 45.8926 40.3692 45.8926C40.6192 45.8926 40.8887 45.8496 41.1778 45.7637C41.4669 45.6738 41.7188 45.5566 41.9337 45.4121C41.9376 45.3535 41.9415 45.2773 41.9454 45.1836C41.9532 45.0859 41.9571 44.9785 41.9571 44.8613ZM37.4747 44.1113C37.4747 43.6621 37.547 43.252 37.6915 42.8809C37.8399 42.5098 38.0411 42.1895 38.295 41.9199C38.5372 41.6621 38.8321 41.4609 39.1798 41.3164C39.5313 41.1719 39.8868 41.0996 40.2462 41.0996C40.6485 41.0996 41.0118 41.168 41.336 41.3047C41.6641 41.4375 41.9473 41.6309 42.1856 41.8848C42.4864 42.2051 42.7188 42.625 42.8829 43.1445C43.0509 43.6641 43.1348 44.3203 43.1348 45.1133C43.1348 45.8359 43.0528 46.5215 42.8887 47.1699C42.7286 47.8145 42.4903 48.3496 42.1739 48.7754C41.838 49.2285 41.4337 49.5742 40.961 49.8125C40.4923 50.0508 39.9122 50.1699 39.2208 50.1699C39.0645 50.1699 38.8985 50.1602 38.7227 50.1406C38.547 50.125 38.3829 50.0938 38.2305 50.0469V48.9277H38.2891C38.3868 48.9824 38.5391 49.0352 38.7462 49.0859C38.9532 49.1367 39.1641 49.1621 39.379 49.1621C40.1446 49.1621 40.7462 48.9102 41.1837 48.4062C41.6212 47.9023 41.8692 47.1816 41.9278 46.2441C41.6153 46.4551 41.3165 46.6094 41.0313 46.707C40.7501 46.8047 40.4434 46.8535 40.1114 46.8535C39.7872 46.8535 39.4923 46.8184 39.2266 46.748C38.961 46.6777 38.6934 46.541 38.4239 46.3379C38.1114 46.0996 37.8751 45.7988 37.7149 45.4355C37.5548 45.0684 37.4747 44.627 37.4747 44.1113ZM48.5079 44.8613C48.5079 44.2676 48.4532 43.7852 48.3438 43.4141C48.2345 43.0391 48.0841 42.75 47.8927 42.5469C47.7208 42.3594 47.547 42.2305 47.3712 42.1602C47.1954 42.0898 47.002 42.0547 46.7911 42.0547C46.3106 42.0547 45.9278 42.2266 45.6427 42.5703C45.3575 42.9141 45.2149 43.4121 45.2149 44.0645C45.2149 44.4316 45.2618 44.7344 45.3555 44.9727C45.4493 45.2109 45.6016 45.416 45.8126 45.5879C45.961 45.709 46.129 45.791 46.3165 45.834C46.504 45.873 46.7052 45.8926 46.92 45.8926C47.17 45.8926 47.4395 45.8496 47.7286 45.7637C48.0177 45.6738 48.2696 45.5566 48.4845 45.4121C48.4884 45.3535 48.4923 45.2773 48.4962 45.1836C48.504 45.0859 48.5079 44.9785 48.5079 44.8613ZM44.0255 44.1113C44.0255 43.6621 44.0977 43.252 44.2423 42.8809C44.3907 42.5098 44.5919 42.1895 44.8458 41.9199C45.088 41.6621 45.3829 41.4609 45.7305 41.3164C46.0821 41.1719 46.4376 41.0996 46.797 41.0996C47.1993 41.0996 47.5626 41.168 47.8868 41.3047C48.2149 41.4375 48.4981 41.6309 48.7364 41.8848C49.0372 42.2051 49.2696 42.625 49.4337 43.1445C49.6016 43.6641 49.6856 44.3203 49.6856 45.1133C49.6856 45.8359 49.6036 46.5215 49.4395 47.1699C49.2794 47.8145 49.0411 48.3496 48.7247 48.7754C48.3887 49.2285 47.9845 49.5742 47.5118 49.8125C47.043 50.0508 46.463 50.1699 45.7716 50.1699C45.6153 50.1699 45.4493 50.1602 45.2735 50.1406C45.0977 50.125 44.9337 50.0938 44.7813 50.0469V48.9277H44.8399C44.9376 48.9824 45.0899 49.0352 45.297 49.0859C45.504 49.1367 45.7149 49.1621 45.9298 49.1621C46.6954 49.1621 47.297 48.9102 47.7345 48.4062C48.172 47.9023 48.42 47.1816 48.4786 46.2441C48.1661 46.4551 47.8673 46.6094 47.5821 46.707C47.3009 46.8047 46.9942 46.8535 46.6622 46.8535C46.338 46.8535 46.043 46.8184 45.7774 46.748C45.5118 46.6777 45.2442 46.541 44.9747 46.3379C44.6622 46.0996 44.4259 45.7988 44.2657 45.4355C44.1055 45.0684 44.0255 44.627 44.0255 44.1113ZM52.6973 50H51.297V48.3301H52.6973V50ZM59.8809 45.6348C59.8809 47.2012 59.6524 48.3516 59.1954 49.0859C58.7423 49.8164 58.0411 50.1816 57.0919 50.1816C56.1309 50.1816 55.4259 49.8086 54.9766 49.0625C54.5274 48.3164 54.3028 47.1777 54.3028 45.6465C54.3028 44.0723 54.5294 42.9219 54.9825 42.1953C55.4395 41.4648 56.1427 41.0996 57.0919 41.0996C58.0528 41.0996 58.7579 41.4766 59.2071 42.2305C59.6563 42.9844 59.8809 44.1191 59.8809 45.6348ZM58.3809 48.2949C58.4942 48.0059 58.5743 47.6406 58.6212 47.1992C58.668 46.7578 58.6915 46.2363 58.6915 45.6348C58.6915 45.0371 58.668 44.5176 58.6212 44.0762C58.5743 43.6348 58.4923 43.2676 58.3751 42.9746C58.2579 42.6777 58.0958 42.4531 57.8887 42.3008C57.6856 42.1445 57.42 42.0664 57.0919 42.0664C56.7677 42.0664 56.5001 42.1445 56.2891 42.3008C56.0821 42.4531 55.918 42.6816 55.797 42.9863C55.6798 43.2832 55.5997 43.6582 55.5567 44.1113C55.5137 44.5645 55.4923 45.0762 55.4923 45.6465C55.4923 46.2559 55.5098 46.7656 55.545 47.1758C55.5841 47.5859 55.6661 47.9531 55.7911 48.2773C55.9044 48.5781 56.0645 48.8105 56.2716 48.9746C56.4825 49.1348 56.7559 49.2148 57.0919 49.2148C57.4161 49.2148 57.6817 49.1387 57.8887 48.9863C58.0997 48.8301 58.2637 48.5996 58.3809 48.2949ZM66.4317 45.6348C66.4317 47.2012 66.2032 48.3516 65.7462 49.0859C65.293 49.8164 64.5919 50.1816 63.6427 50.1816C62.6817 50.1816 61.9766 49.8086 61.5274 49.0625C61.0782 48.3164 60.8536 47.1777 60.8536 45.6465C60.8536 44.0723 61.0802 42.9219 61.5333 42.1953C61.9903 41.4648 62.6934 41.0996 63.6427 41.0996C64.6036 41.0996 65.3087 41.4766 65.7579 42.2305C66.2071 42.9844 66.4317 44.1191 66.4317 45.6348ZM64.9317 48.2949C65.045 48.0059 65.1251 47.6406 65.172 47.1992C65.2188 46.7578 65.2423 46.2363 65.2423 45.6348C65.2423 45.0371 65.2188 44.5176 65.172 44.0762C65.1251 43.6348 65.043 43.2676 64.9259 42.9746C64.8087 42.6777 64.6466 42.4531 64.4395 42.3008C64.2364 42.1445 63.9708 42.0664 63.6427 42.0664C63.3184 42.0664 63.0509 42.1445 62.8399 42.3008C62.6329 42.4531 62.4688 42.6816 62.3477 42.9863C62.2305 43.2832 62.1505 43.6582 62.1075 44.1113C62.0645 44.5645 62.043 45.0762 62.043 45.6465C62.043 46.2559 62.0606 46.7656 62.0958 47.1758C62.1348 47.5859 62.2169 47.9531 62.3419 48.2773C62.4552 48.5781 62.6153 48.8105 62.8223 48.9746C63.0333 49.1348 63.3067 49.2148 63.6427 49.2148C63.9669 49.2148 64.2325 49.1387 64.4395 48.9863C64.6505 48.8301 64.8145 48.5996 64.9317 48.2949Z" fill="#303549"/>
<path d="M67 56.25H37" stroke="#606580" stroke-width="0.5"/>
<path d="M51 19C69.2279 19 84.0045 33.7766 84.0045 52.0045C84.0045 62.3751 79.2144 71.6313 71.7491 77.6722L64.2006 68.3438C68.9713 64.4834 72.0045 58.6004 72.0045 52.0045C72.0045 40.404 62.6005 31 51 31V19Z" fill="url(#paint0_linear)"/>
<path d="M71.9946 78.0001L63.495 69.0001L64.495 68L71.9946 78.0001Z" fill="#303549"/>
<path d="M51 19C69.2279 19 84.0045 33.7766 84.0045 52.0045C84.0045 62.3751 79.2144 71.6313 71.7491 77.6722L64.2006 68.3438C68.9713 64.4834 72.0045 58.6004 72.0045 52.0045C72.0045 40.404 62.6005 31 51 31V19Z" fill="url(#paint1_linear)"/>
<path d="M71.9946 78.0001L63.495 69.0001L64.495 68L71.9946 78.0001Z" fill="#8C99B2"/>
<path d="M202 107V8" stroke="#D7E2F2" stroke-width="0.5"/>
<path d="M253 25H268" stroke="#D7E2F2" stroke-width="0.5"/>
<path d="M250 94H265" stroke="#D7E2F2" stroke-width="0.5"/>
<path d="M139.221 88.1191C138.793 88.1191 138.399 88.0473 138.039 87.9037C137.682 87.7602 137.373 87.5464 137.112 87.2622C136.851 86.978 136.649 86.6234 136.505 86.1986C136.362 85.7738 136.29 85.2861 136.29 84.7354C136.29 84.1875 136.359 83.71 136.497 83.3027C136.637 82.8955 136.841 82.541 137.107 82.2393C137.368 81.9463 137.677 81.7236 138.035 81.5713C138.392 81.416 138.792 81.3383 139.234 81.3383C139.454 81.3383 139.659 81.3545 139.85 81.3867C140.043 81.419 140.222 81.46 140.386 81.5098C140.526 81.5537 140.67 81.6094 140.816 81.6768C140.966 81.7412 141.112 81.813 141.256 81.8921V82.9424H141.186C141.109 82.8721 141.011 82.787 140.891 82.6874C140.771 82.5878 140.625 82.4898 140.452 82.3931C140.285 82.3023 140.103 82.2276 139.907 82.169C139.71 82.1104 139.483 82.081 139.226 82.081C138.947 82.081 138.684 82.1381 138.435 82.2524C138.186 82.3666 137.967 82.5352 137.78 82.7578C137.595 82.9805 137.452 83.2603 137.349 83.5972C137.247 83.9341 137.195 84.3135 137.195 84.7354C137.195 85.1836 137.25 85.5702 137.358 85.8954C137.466 86.2177 137.614 86.4902 137.802 86.7129C137.983 86.9297 138.197 87.0937 138.443 87.205C138.689 87.3134 138.95 87.3677 139.226 87.3677C139.478 87.3677 139.71 87.3369 139.924 87.2754C140.138 87.2139 140.329 87.1361 140.496 87.0424C140.657 86.9517 140.796 86.8593 140.913 86.7655C141.03 86.6689 141.123 86.5868 141.19 86.5194H141.256V87.5566C141.112 87.6239 140.976 87.6884 140.847 87.7499C140.721 87.8114 140.567 87.8716 140.386 87.9302C140.195 87.9917 140.018 88.0385 139.854 88.0707C139.693 88.1029 139.482 88.1191 139.221 88.1191ZM145.589 83.8168H143.919V88.0005H143.093V83.8168H141.423V83.0918H145.589V83.8168ZM148.946 86.7919V85.4296C148.75 85.4472 148.501 85.4721 148.199 85.5043C147.9 85.5336 147.659 85.5762 147.474 85.6318C147.254 85.6992 147.073 85.8031 146.929 85.9438C146.786 86.0815 146.714 86.2748 146.714 86.5238C146.714 86.8051 146.793 87.0175 146.951 87.161C147.109 87.3046 147.341 87.3764 147.646 87.3764C147.906 87.3764 148.142 87.3207 148.353 87.2094C148.564 87.0951 148.762 86.956 148.946 86.7919ZM148.946 87.4775C148.879 87.5273 148.788 87.5977 148.674 87.6885C148.562 87.7764 148.454 87.8467 148.349 87.8994C148.202 87.9756 148.06 88.0341 147.922 88.0751C147.788 88.1161 147.597 88.1367 147.351 88.1367C147.149 88.1367 146.957 88.0986 146.775 88.0225C146.594 87.9463 146.434 87.8394 146.296 87.7017C146.165 87.5669 146.059 87.4013 145.98 87.205C145.901 87.0058 145.861 86.7964 145.861 86.5767C145.861 86.2368 145.933 85.9483 146.077 85.7109C146.22 85.4707 146.447 85.2802 146.758 85.1396C147.033 85.0136 147.358 84.9272 147.733 84.8803C148.108 84.8305 148.513 84.7939 148.946 84.7704V84.6123C148.946 84.419 148.917 84.2637 148.858 84.1465C148.8 84.0264 148.718 83.9341 148.612 83.8696C148.507 83.8023 148.378 83.7582 148.226 83.7377C148.073 83.7143 147.917 83.7026 147.755 83.7026C147.565 83.7026 147.341 83.7319 147.083 83.7905C146.825 83.8462 146.567 83.9282 146.31 84.0366H146.261V83.1973C146.414 83.1533 146.632 83.105 146.916 83.0523C147.2 82.9995 147.481 82.9732 147.76 82.9732C148.097 82.9732 148.381 82.9995 148.612 83.0523C148.844 83.105 149.052 83.2002 149.236 83.3379C149.415 83.4727 149.548 83.6469 149.636 83.8608C149.724 84.0746 149.768 84.3355 149.768 84.6431V88.0005H148.946V87.4775ZM154.413 83.8168C154.604 84.0102 154.751 84.2564 154.857 84.5552C154.962 84.8511 155.015 85.1953 155.015 85.5879C155.015 85.9658 154.955 86.3159 154.835 86.6382C154.715 86.9575 154.552 87.227 154.347 87.4467C154.136 87.6752 153.902 87.8481 153.644 87.9652C153.389 88.0795 153.111 88.1367 152.809 88.1367C152.501 88.1367 152.219 88.0839 151.961 87.9784C151.706 87.87 151.488 87.7045 151.306 87.4818C151.081 87.2035 150.911 86.855 150.796 86.436C150.685 86.0171 150.629 85.4984 150.629 84.8803C150.629 84.6606 150.638 84.4379 150.656 84.2123C150.676 83.9838 150.719 83.7114 150.783 83.395C150.842 83.1138 150.921 82.8529 151.021 82.6127C151.12 82.3695 151.25 82.1646 151.412 81.9976C151.62 81.7808 151.891 81.6079 152.225 81.479C152.562 81.3501 153.007 81.2608 153.561 81.2109C153.757 81.1934 153.966 81.1773 154.189 81.1626C154.415 81.145 154.586 81.1317 154.703 81.123V81.8832C154.551 81.892 154.388 81.9037 154.215 81.9184C154.042 81.9301 153.845 81.9447 153.622 81.9623C153.326 81.9858 153.017 82.0386 152.695 82.1206C152.373 82.1997 152.129 82.3241 151.965 82.4941C151.842 82.62 151.744 82.8003 151.671 83.0347C151.598 83.2691 151.546 83.5297 151.517 83.8168C151.734 83.6615 151.965 83.5313 152.211 83.4258C152.46 83.3174 152.729 83.2632 153.016 83.2632C153.282 83.2632 153.536 83.3086 153.776 83.3994C154.016 83.4873 154.229 83.6264 154.413 83.8168ZM154.176 85.6361C154.176 85.1147 154.059 84.7148 153.824 84.4364C153.59 84.1581 153.256 84.0191 152.822 84.0191C152.585 84.0191 152.355 84.0585 152.132 84.1376C151.91 84.2167 151.7 84.3222 151.504 84.454C151.498 84.5273 151.492 84.6152 151.486 84.7178C151.48 84.8174 151.478 84.9082 151.478 84.9902C151.478 85.5 151.519 85.9145 151.601 86.2338C151.683 86.5531 151.797 86.8037 151.943 86.9854C152.075 87.1494 152.214 87.2636 152.361 87.328C152.507 87.3896 152.667 87.4203 152.84 87.4203C153.262 87.4203 153.59 87.2608 153.824 86.9414C154.059 86.6221 154.176 86.1869 154.176 85.6361ZM159.757 88.0005H158.939V84.3399L156.628 88.0005H155.881V83.0918H156.698V86.6953L158.983 83.0918H159.757V88.0005ZM164.753 88.0005H163.927V83.786H162.24C162.231 84.0292 162.222 84.2637 162.213 84.4893C162.205 84.7119 162.196 84.914 162.187 85.0956C162.169 85.5556 162.139 85.9408 162.095 86.2514C162.054 86.5619 162.001 86.811 161.937 86.9985C161.872 87.1919 161.8 87.3427 161.721 87.4511C161.645 87.5595 161.559 87.6577 161.462 87.7456C161.362 87.8335 161.255 87.8994 161.141 87.9434C161.027 87.9873 160.898 88.0092 160.754 88.0092C160.708 88.0092 160.647 88.0078 160.574 88.0049C160.501 88.002 160.45 88.0005 160.42 88.0005V87.2797H160.464C160.485 87.2797 160.505 87.2812 160.526 87.2841C160.549 87.287 160.576 87.2886 160.605 87.2886C160.675 87.2886 160.744 87.2783 160.812 87.2578C160.879 87.2373 160.939 87.1991 160.992 87.1435C161.138 86.9999 161.245 86.7495 161.312 86.3921C161.38 86.0317 161.428 85.5293 161.458 84.8848C161.469 84.6445 161.479 84.3604 161.488 84.0322C161.5 83.7041 161.51 83.3906 161.519 83.0918H164.753V88.0005ZM167.241 88.0005H166.19V86.748H167.241V88.0005ZM140.078 94.8168C140.269 95.0102 140.417 95.2564 140.522 95.5552C140.627 95.8511 140.68 96.1953 140.68 96.5879C140.68 96.9658 140.62 97.3159 140.5 97.6382C140.38 97.9575 140.217 98.227 140.012 98.4467C139.801 98.6752 139.567 98.8481 139.309 98.9652C139.054 99.0795 138.776 99.1367 138.474 99.1367C138.167 99.1367 137.884 99.0839 137.626 98.9784C137.371 98.87 137.153 98.7045 136.971 98.4818C136.746 98.2036 136.576 97.855 136.461 97.436C136.35 97.0171 136.294 96.4984 136.294 95.8803C136.294 95.6606 136.303 95.4379 136.321 95.2123C136.341 94.9838 136.384 94.7114 136.448 94.395C136.507 94.1138 136.586 93.8529 136.686 93.6127C136.785 93.3695 136.916 93.1646 137.077 92.9976C137.285 92.7808 137.556 92.6079 137.89 92.479C138.227 92.3501 138.672 92.2608 139.226 92.2109C139.422 92.1934 139.631 92.1773 139.854 92.1626C140.08 92.145 140.251 92.1317 140.368 92.123V92.8832C140.216 92.892 140.053 92.9037 139.88 92.9184C139.708 92.9301 139.51 92.9447 139.287 92.9623C138.991 92.9858 138.682 93.0386 138.36 93.1206C138.038 93.1997 137.794 93.3241 137.63 93.4941C137.507 93.62 137.409 93.8003 137.336 94.0347C137.263 94.2691 137.211 94.5297 137.182 94.8168C137.399 94.6615 137.63 94.5313 137.876 94.4258C138.125 94.3174 138.394 94.2632 138.681 94.2632C138.947 94.2632 139.201 94.3086 139.441 94.3994C139.681 94.4873 139.894 94.6264 140.078 94.8168ZM139.841 96.6361C139.841 96.1147 139.724 95.7148 139.489 95.4364C139.255 95.1581 138.921 95.0191 138.487 95.0191C138.25 95.0191 138.02 95.0585 137.797 95.1376C137.575 95.2167 137.365 95.3222 137.169 95.454C137.163 95.5273 137.157 95.6152 137.151 95.7178C137.146 95.8174 137.143 95.9082 137.143 95.9902C137.143 96.5 137.184 96.9145 137.266 97.2338C137.348 97.5531 137.462 97.8037 137.608 97.9854C137.74 98.1494 137.879 98.2636 138.026 98.328C138.172 98.3896 138.332 98.4203 138.505 98.4203C138.927 98.4203 139.255 98.2608 139.489 97.9414C139.724 97.6221 139.841 97.1869 139.841 96.6361ZM143.677 99.1148C142.895 99.1148 142.287 98.895 141.854 98.4556C141.423 98.0132 141.208 97.3862 141.208 96.5747C141.208 95.7749 141.417 95.1391 141.836 94.6674C142.255 94.1929 142.803 93.9556 143.479 93.9556C143.784 93.9556 144.054 93.9994 144.288 94.0873C144.522 94.1752 144.728 94.313 144.903 94.5005C145.079 94.688 145.214 94.918 145.308 95.1904C145.401 95.46 145.448 95.7909 145.448 96.1835V96.6318H142.047C142.047 97.2031 142.19 97.6397 142.478 97.9414C142.765 98.2432 143.162 98.3941 143.668 98.3941C143.85 98.3941 144.027 98.3735 144.2 98.3325C144.376 98.2915 144.534 98.2387 144.675 98.1742C144.824 98.1068 144.95 98.0424 145.053 97.9809C145.155 97.9164 145.24 97.8565 145.308 97.8008H145.356V98.7017C145.259 98.7398 145.139 98.788 144.996 98.8466C144.852 98.9023 144.723 98.9462 144.609 98.9784C144.448 99.0224 144.301 99.0562 144.169 99.0796C144.041 99.103 143.876 99.1148 143.677 99.1148ZM144.644 95.9989C144.638 95.7763 144.612 95.5844 144.565 95.4233C144.518 95.2621 144.451 95.1259 144.363 95.0146C144.266 94.8915 144.142 94.7979 143.989 94.7334C143.84 94.669 143.654 94.6367 143.431 94.6367C143.211 94.6367 143.024 94.6703 142.869 94.7377C142.716 94.8022 142.577 94.8975 142.451 95.0234C142.328 95.1524 142.234 95.2958 142.17 95.454C142.105 95.6093 142.064 95.7909 142.047 95.9989H144.644ZM150.159 99.0005H149.333V96.79H147.109V99.0005H146.283V94.0918H147.109V96.078H149.333V94.0918H150.159V99.0005ZM154.606 97.6425C154.606 97.9179 154.546 98.1508 154.426 98.3412C154.306 98.5316 154.152 98.6826 153.965 98.794C153.786 98.9024 153.583 98.9829 153.354 99.0357C153.125 99.0884 152.897 99.1148 152.668 99.1148C152.346 99.1148 152.042 99.0825 151.754 99.0181C151.467 98.9566 151.182 98.8569 150.897 98.7193V97.8052H150.95C151.149 97.9898 151.398 98.1362 151.697 98.2446C151.999 98.3501 152.299 98.4027 152.598 98.4027C152.727 98.4027 152.865 98.3897 153.011 98.3633C153.161 98.334 153.287 98.2901 153.389 98.2315C153.524 98.1494 153.619 98.0615 153.675 97.9678C153.733 97.874 153.763 97.745 153.763 97.581C153.763 97.4052 153.729 97.2646 153.662 97.1591C153.597 97.0507 153.508 96.9701 153.394 96.9174C153.279 96.8647 153.15 96.8324 153.007 96.8207C152.866 96.8061 152.717 96.7988 152.559 96.7988H151.979V96.0869H152.422C152.534 96.0869 152.673 96.0839 152.84 96.078C153.007 96.0692 153.14 96.0459 153.24 96.0078C153.366 95.9609 153.467 95.895 153.543 95.8101C153.619 95.7222 153.657 95.5757 153.657 95.3706C153.657 95.2271 153.625 95.1113 153.561 95.0234C153.496 94.9356 153.416 94.8666 153.319 94.8168C153.219 94.7641 153.111 94.7289 152.994 94.7113C152.876 94.6908 152.764 94.6806 152.655 94.6806C152.377 94.6806 152.109 94.7201 151.851 94.7992C151.596 94.8754 151.376 94.9898 151.192 95.1421H151.139V94.2499C151.35 94.1767 151.583 94.1122 151.838 94.0566C152.096 94.0009 152.354 93.9732 152.611 93.9732C152.819 93.9732 153.03 93.995 153.244 94.039C153.461 94.08 153.666 94.1518 153.859 94.2543C154.041 94.3539 154.193 94.4916 154.316 94.6674C154.439 94.8403 154.501 95.0526 154.501 95.3046C154.501 95.5712 154.425 95.8057 154.272 96.0078C154.123 96.207 153.924 96.3389 153.675 96.4033V96.4341C153.947 96.5278 154.17 96.6714 154.343 96.8648C154.519 97.0581 154.606 97.3173 154.606 97.6425ZM159.353 99.0005H158.535V95.3399L156.224 99.0005H155.477V94.0918H156.294V97.6953L158.579 94.0918H159.353V99.0005ZM164.424 99.0005H163.598V96.79H161.374V99.0005H160.548V94.0918H161.374V96.078H163.598V94.0918H164.424V99.0005Z" fill="#303549"/>
<path d="M140.794 54.4297C140.794 54.7139 140.743 54.9834 140.641 55.2383C140.541 55.4902 140.402 55.7056 140.223 55.8843C139.998 56.1069 139.732 56.2754 139.428 56.3896C139.123 56.5039 138.738 56.561 138.272 56.561H137.534V59H136.664V52.4565H138.307C138.694 52.4565 139.023 52.4888 139.296 52.5532C139.568 52.6177 139.809 52.7217 140.017 52.8652C140.26 53.0322 140.45 53.2446 140.588 53.5024C140.726 53.7573 140.794 54.0664 140.794 54.4297ZM139.889 54.4517C139.889 54.2261 139.85 54.0298 139.771 53.8628C139.694 53.6958 139.577 53.5596 139.419 53.4541C139.281 53.3633 139.12 53.2988 138.936 53.2607C138.754 53.2227 138.527 53.2036 138.254 53.2036H137.534V55.8184H138.127C138.479 55.8184 138.763 55.7905 138.979 55.7349C139.196 55.6763 139.376 55.5737 139.52 55.4272C139.649 55.2954 139.743 55.1519 139.801 54.9966C139.86 54.8413 139.889 54.6597 139.889 54.4517ZM143.695 59.1143C142.913 59.1143 142.305 58.8945 141.871 58.4551C141.44 58.0127 141.225 57.3857 141.225 56.5742C141.225 55.7744 141.435 55.1387 141.854 54.667C142.272 54.1924 142.82 53.9551 143.497 53.9551C143.802 53.9551 144.071 53.999 144.306 54.0869C144.54 54.1748 144.745 54.3125 144.921 54.5C145.097 54.6875 145.231 54.9175 145.325 55.1899C145.419 55.4595 145.466 55.7905 145.466 56.1831V56.6313H142.064C142.064 57.2026 142.208 57.6392 142.495 57.9409C142.782 58.2427 143.179 58.3936 143.686 58.3936C143.868 58.3936 144.045 58.373 144.218 58.332C144.394 58.291 144.552 58.2383 144.692 58.1738C144.842 58.1064 144.968 58.042 145.07 57.9805C145.173 57.916 145.258 57.856 145.325 57.8003H145.374V58.7012C145.277 58.7393 145.157 58.7876 145.013 58.8462C144.87 58.9019 144.741 58.9458 144.626 58.978C144.465 59.022 144.319 59.0557 144.187 59.0791C144.058 59.1025 143.894 59.1143 143.695 59.1143ZM144.662 55.9985C144.656 55.7759 144.629 55.584 144.583 55.4229C144.536 55.2617 144.468 55.1255 144.38 55.0142C144.284 54.8911 144.159 54.7974 144.007 54.7329C143.857 54.6685 143.671 54.6362 143.449 54.6362C143.229 54.6362 143.042 54.6699 142.886 54.7373C142.734 54.8018 142.595 54.897 142.469 55.0229C142.346 55.1519 142.252 55.2954 142.188 55.4536C142.123 55.6089 142.082 55.7905 142.064 55.9985H144.662ZM152.269 56.416C152.269 56.8525 152.214 57.2393 152.106 57.5762C152 57.9102 151.86 58.1855 151.684 58.4023C151.505 58.6221 151.303 58.7891 151.078 58.9033C150.852 59.0146 150.616 59.0703 150.37 59.0703C150.186 59.0703 150.023 59.0352 149.882 58.9648C149.745 58.8945 149.627 58.8345 149.531 58.7847V60.8105H148.713V58.7847C148.541 58.8755 148.403 58.9458 148.3 58.9956C148.198 59.0454 148.029 59.0703 147.795 59.0703C147.244 59.0703 146.803 58.8477 146.472 58.4023C146.141 57.9541 145.976 57.3403 145.976 56.561C145.976 56.1509 146.028 55.7847 146.134 55.4624C146.239 55.1401 146.384 54.8662 146.569 54.6406C146.739 54.4326 146.935 54.2715 147.158 54.1572C147.383 54.04 147.618 53.9814 147.861 53.9814C148.034 53.9814 148.189 54.0122 148.327 54.0737C148.467 54.1323 148.596 54.1997 148.713 54.2759V52.1621H149.531V54.2759C149.66 54.1968 149.808 54.1279 149.975 54.0693C150.142 54.0107 150.313 53.9814 150.489 53.9814C151.04 53.9814 151.473 54.2026 151.79 54.645C152.109 55.0845 152.269 55.6748 152.269 56.416ZM151.42 56.5083C151.42 55.9487 151.325 55.5063 151.135 55.1812C150.947 54.856 150.669 54.6934 150.3 54.6934C150.147 54.6934 150.013 54.7139 149.896 54.7549C149.781 54.793 149.66 54.8354 149.531 54.8823V58.1562C149.66 58.2178 149.764 58.2676 149.843 58.3057C149.925 58.3438 150.043 58.3628 150.199 58.3628C150.58 58.3628 150.878 58.2061 151.095 57.8926C151.312 57.5791 151.42 57.1177 151.42 56.5083ZM148.713 58.1562V54.8823C148.608 54.8325 148.502 54.7886 148.397 54.7505C148.292 54.7124 148.174 54.6934 148.045 54.6934C147.67 54.6934 147.373 54.8413 147.153 55.1372C146.934 55.4331 146.824 55.8945 146.824 56.5215C146.824 57.0928 146.922 57.5425 147.118 57.8706C147.317 58.1987 147.602 58.3628 147.971 58.3628C148.117 58.3628 148.249 58.3408 148.366 58.2969C148.483 58.2529 148.599 58.2061 148.713 58.1562ZM156.94 59H156.114V54.7856H154.426C154.417 55.0288 154.409 55.2632 154.4 55.4888C154.391 55.7114 154.382 55.9136 154.374 56.0952C154.356 56.5552 154.325 56.9404 154.281 57.251C154.24 57.5615 154.188 57.8105 154.123 57.998C154.059 58.1914 153.987 58.3423 153.908 58.4507C153.832 58.5591 153.745 58.6572 153.648 58.7451C153.549 58.833 153.442 58.8989 153.328 58.9429C153.213 58.9868 153.084 59.0088 152.941 59.0088C152.894 59.0088 152.834 59.0073 152.761 59.0044C152.688 59.0015 152.636 59 152.607 59V58.2793H152.651C152.671 58.2793 152.692 58.2808 152.712 58.2837C152.736 58.2866 152.762 58.2881 152.792 58.2881C152.862 58.2881 152.931 58.2778 152.998 58.2573C153.065 58.2368 153.125 58.1987 153.178 58.1431C153.325 57.9995 153.432 57.749 153.499 57.3916C153.566 57.0312 153.615 56.5288 153.644 55.8843C153.656 55.644 153.666 55.3599 153.675 55.0317C153.687 54.7036 153.697 54.3901 153.706 54.0913H156.94V59ZM164.147 56.5479C164.147 57.3711 163.948 58.0083 163.549 58.4595C163.154 58.9106 162.629 59.1362 161.976 59.1362C161.334 59.1362 160.825 58.9253 160.447 58.5034C160.072 58.0786 159.867 57.5 159.832 56.7676H158.966V59H158.14V54.0913H158.966V56.0908H159.849C159.917 55.4229 160.139 54.8999 160.517 54.522C160.895 54.144 161.381 53.9551 161.976 53.9551C162.665 53.9551 163.198 54.1895 163.576 54.6582C163.957 55.127 164.147 55.7568 164.147 56.5479ZM163.294 56.5479C163.294 55.9209 163.179 55.4507 162.947 55.1372C162.719 54.8237 162.395 54.667 161.976 54.667C161.551 54.667 161.223 54.8252 160.992 55.1416C160.763 55.458 160.649 55.9268 160.649 56.5479C160.649 57.1631 160.765 57.6304 160.996 57.9497C161.228 58.2661 161.554 58.4243 161.976 58.4243C162.395 58.4243 162.719 58.2705 162.947 57.9629C163.179 57.6523 163.294 57.1807 163.294 56.5479ZM168.946 59H167.917L166.234 56.7368H165.821V59H164.995V54.0913H165.821V56.2271C166.035 56.2241 166.217 56.1802 166.366 56.0952C166.519 56.0073 166.647 55.8389 166.753 55.5898C166.785 55.5166 166.82 55.4316 166.858 55.335C166.899 55.2383 166.932 55.1533 166.955 55.0801C167.084 54.7197 167.263 54.4648 167.491 54.3154C167.72 54.166 168.017 54.0913 168.383 54.0913H168.607V54.8032H168.418C168.187 54.8032 168.013 54.8516 167.896 54.9482C167.781 55.042 167.685 55.2148 167.605 55.4668C167.523 55.7217 167.427 55.9209 167.315 56.0645C167.204 56.2051 167.081 56.3135 166.946 56.3896L168.946 59ZM171.429 59.1099C171.092 59.1099 170.783 59.0586 170.501 58.9561C170.22 58.8506 169.979 58.6924 169.776 58.4814C169.574 58.2705 169.417 58.0054 169.306 57.686C169.195 57.3638 169.139 56.9858 169.139 56.5522C169.139 56.1216 169.196 55.7495 169.311 55.436C169.428 55.1226 169.583 54.8589 169.776 54.645C169.97 54.4312 170.21 54.2671 170.497 54.1528C170.787 54.0356 171.098 53.9771 171.429 53.9771C171.698 53.9771 171.958 54.0151 172.207 54.0913C172.458 54.1675 172.683 54.2554 172.879 54.355V55.2822H172.831C172.772 55.2324 172.696 55.1753 172.602 55.1108C172.511 55.0464 172.4 54.9805 172.268 54.9131C172.154 54.8545 172.019 54.8032 171.864 54.7593C171.708 54.7153 171.559 54.6934 171.416 54.6934C170.988 54.6934 170.644 54.856 170.383 55.1812C170.125 55.5034 169.996 55.9604 169.996 56.5522C169.996 57.1323 170.121 57.585 170.37 57.9102C170.622 58.2324 170.97 58.3936 171.416 58.3936C171.685 58.3936 171.941 58.3379 172.185 58.2266C172.428 58.1152 172.643 57.9717 172.831 57.7959H172.879V58.7231C172.797 58.7612 172.694 58.8081 172.571 58.8638C172.448 58.9165 172.337 58.9561 172.237 58.9824C172.097 59.0234 171.971 59.0542 171.859 59.0747C171.748 59.0981 171.604 59.1099 171.429 59.1099Z" fill="#303549"/>
<path d="M140.544 22.2296H137.534V27.9996H136.664V21.4561H140.544V22.2296ZM143.91 26.7911V25.4288C143.714 25.4464 143.465 25.4713 143.163 25.5035C142.864 25.5328 142.623 25.5753 142.438 25.6309C142.218 25.6983 142.037 25.8023 141.893 25.943C141.75 26.0807 141.678 26.274 141.678 26.523C141.678 26.8043 141.757 27.0167 141.915 27.1602C142.073 27.3038 142.305 27.3756 142.609 27.3756C142.87 27.3756 143.106 27.3199 143.317 27.2086C143.528 27.0943 143.726 26.9552 143.91 26.7911ZM143.91 27.4767C143.843 27.5265 143.752 27.5968 143.638 27.6876C143.526 27.7755 143.418 27.8458 143.312 27.8985C143.166 27.9747 143.024 28.0333 142.886 28.0743C142.751 28.1153 142.561 28.1358 142.315 28.1358C142.113 28.1358 141.921 28.0977 141.739 28.0216C141.558 27.9454 141.398 27.8385 141.26 27.7008C141.128 27.566 141.023 27.4005 140.944 27.2042C140.865 27.005 140.825 26.7955 140.825 26.5758C140.825 26.2359 140.897 25.9474 141.041 25.71C141.184 25.4698 141.411 25.2794 141.722 25.1388C141.997 25.0128 142.322 24.9264 142.697 24.8795C143.072 24.8297 143.477 24.7931 143.91 24.7696V24.6114C143.91 24.4181 143.881 24.2628 143.822 24.1456C143.764 24.0255 143.682 23.9332 143.576 23.8687C143.471 23.8014 143.342 23.7574 143.189 23.7369C143.037 23.7135 142.88 23.7017 142.719 23.7017C142.529 23.7017 142.305 23.731 142.047 23.7896C141.789 23.8453 141.531 23.9273 141.273 24.0357H141.225V23.1964C141.377 23.1524 141.596 23.1041 141.88 23.0514C142.164 22.9986 142.445 22.9723 142.724 22.9723C143.061 22.9723 143.345 22.9986 143.576 23.0514C143.808 23.1041 144.016 23.1993 144.2 23.337C144.379 23.4718 144.512 23.6461 144.6 23.86C144.688 24.0738 144.732 24.3346 144.732 24.6422V27.9996H143.91V27.4767ZM149.148 26.6417C149.148 26.9171 149.088 27.15 148.968 27.3404C148.848 27.5308 148.694 27.6817 148.507 27.7931C148.328 27.9015 148.125 27.982 147.896 28.0348C147.667 28.0875 147.439 28.1139 147.21 28.1139C146.888 28.1139 146.583 28.0816 146.296 28.0172C146.009 27.9557 145.724 27.856 145.439 27.7184V26.8043H145.492C145.691 26.9889 145.94 27.1353 146.239 27.2437C146.541 27.3492 146.841 27.4019 147.14 27.4019C147.269 27.4019 147.407 27.3888 147.553 27.3624C147.703 27.3331 147.829 27.2892 147.931 27.2306C148.066 27.1485 148.161 27.0606 148.217 26.9669C148.275 26.8731 148.305 26.7442 148.305 26.5802C148.305 26.4044 148.271 26.2638 148.204 26.1583C148.139 26.0499 148.05 25.9693 147.936 25.9166C147.821 25.8639 147.692 25.8316 147.549 25.8199C147.408 25.8053 147.259 25.7979 147.101 25.7979H146.521V25.086H146.964C147.076 25.086 147.215 25.0831 147.382 25.0772C147.549 25.0684 147.682 25.045 147.782 25.0069C147.908 24.96 148.009 24.8941 148.085 24.8092C148.161 24.7213 148.199 24.5748 148.199 24.3697C148.199 24.2262 148.167 24.1104 148.103 24.0225C148.038 23.9347 147.958 23.8658 147.861 23.816C147.761 23.7633 147.653 23.7281 147.536 23.7105C147.418 23.69 147.306 23.6798 147.197 23.6798C146.919 23.6798 146.651 23.7193 146.393 23.7984C146.138 23.8746 145.918 23.9889 145.734 24.1412H145.681V23.2491C145.892 23.1759 146.125 23.1114 146.38 23.0558C146.638 23.0001 146.896 22.9723 147.153 22.9723C147.361 22.9723 147.572 22.9942 147.786 23.0382C148.003 23.0792 148.208 23.151 148.401 23.2535C148.583 23.3531 148.735 23.4908 148.858 23.6666C148.981 23.8394 149.043 24.0518 149.043 24.3038C149.043 24.5704 148.967 24.8048 148.814 25.0069C148.665 25.2061 148.466 25.338 148.217 25.4024V25.4332C148.489 25.5269 148.712 25.6705 148.885 25.8639C149.061 26.0572 149.148 26.3165 149.148 26.6417Z" fill="#303549"/>
<path d="M241.938 78.9913C241.938 79.3165 241.877 79.6036 241.754 79.8526C241.631 80.1017 241.465 80.3067 241.257 80.4679C241.011 80.6612 240.748 80.7989 240.466 80.8809C240.185 80.96 239.822 80.9996 239.376 80.9996H237.5V74.4561H239.236C239.702 74.4561 240.05 74.4723 240.282 74.5045C240.516 74.5338 240.74 74.6056 240.954 74.7198C241.188 74.8458 241.36 75.0113 241.468 75.2164C241.577 75.4185 241.631 75.6573 241.631 75.9327C241.631 76.2403 241.549 76.5157 241.385 76.7589C241.224 77.002 241 77.1925 240.712 77.3302V77.3653C241.102 77.4708 241.404 77.6642 241.618 77.9454C241.832 78.2237 241.938 78.5724 241.938 78.9913ZM240.726 76.0558C240.726 75.8975 240.699 75.7613 240.646 75.6471C240.594 75.5299 240.509 75.4376 240.392 75.3702C240.251 75.2911 240.094 75.2428 239.921 75.2252C239.749 75.2076 239.51 75.1988 239.205 75.1988H238.37V77.1148H239.359C239.631 77.1148 239.832 77.1017 239.961 77.0753C240.09 77.046 240.223 76.9874 240.361 76.8995C240.493 76.8145 240.586 76.7032 240.642 76.5655C240.698 76.4278 240.726 76.2579 240.726 76.0558ZM241.033 79.0265C241.033 78.7804 240.998 78.5782 240.928 78.42C240.857 78.2589 240.715 78.1226 240.501 78.0113C240.364 77.9381 240.213 77.8912 240.049 77.8707C239.888 77.8502 239.658 77.8399 239.359 77.8399H238.37V80.2569H239.078C239.458 80.2569 239.759 80.2393 239.979 80.2042C240.198 80.169 240.392 80.0943 240.559 79.9801C240.723 79.8658 240.843 79.7369 240.919 79.5934C240.995 79.4469 241.033 79.2579 241.033 79.0265ZM249.141 76.816H247.471V80.9996H246.645V76.816H244.975V76.0909H249.141V76.816ZM253.795 78.5475C253.795 79.3736 253.596 80.0123 253.197 80.4635C252.799 80.9117 252.269 81.1358 251.606 81.1358C250.924 81.1358 250.386 80.9044 249.994 80.4415C249.604 79.9757 249.409 79.3443 249.409 78.5475C249.409 77.7271 249.61 77.0899 250.011 76.6358C250.416 76.1817 250.947 75.9547 251.606 75.9547C252.269 75.9547 252.799 76.1817 253.197 76.6358C253.596 77.087 253.795 77.7242 253.795 78.5475ZM252.942 78.5475C252.942 77.9117 252.827 77.44 252.595 77.1324C252.364 76.8219 252.034 76.6666 251.606 76.6666C251.176 76.6666 250.843 76.8219 250.609 77.1324C250.377 77.44 250.262 77.9117 250.262 78.5475C250.262 79.1627 250.377 79.63 250.609 79.9493C250.843 80.2657 251.176 80.4239 251.606 80.4239C252.031 80.4239 252.359 80.2686 252.591 79.9581C252.825 79.6446 252.942 79.1744 252.942 78.5475ZM258.493 79.5142C258.493 79.7516 258.447 79.9625 258.356 80.1471C258.266 80.3287 258.141 80.481 257.983 80.6041C257.784 80.7594 257.574 80.8648 257.354 80.9205C257.138 80.9732 256.877 80.9996 256.572 80.9996H254.643V76.0909H256.445C256.805 76.0909 257.069 76.1026 257.236 76.1261C257.403 76.1466 257.568 76.2022 257.732 76.2931C257.905 76.3868 258.033 76.5113 258.115 76.6666C258.197 76.8219 258.238 77.0064 258.238 77.2203C258.238 77.4547 258.173 77.6656 258.044 77.8531C257.916 78.0377 257.744 78.1812 257.53 78.2838L257.552 78.3145C257.819 78.3819 258.042 78.5182 258.22 78.7232C258.402 78.9283 258.493 79.192 258.493 79.5142ZM257.39 77.3477C257.39 77.2364 257.371 77.1397 257.333 77.0577C257.297 76.9757 257.234 76.9112 257.144 76.8643C257.038 76.8087 256.919 76.7765 256.788 76.7677C256.659 76.7559 256.479 76.7501 256.247 76.7501H255.46V78.0948H256.41C256.612 78.0948 256.755 78.086 256.84 78.0684C256.925 78.0479 257.019 78.0069 257.122 77.9454C257.218 77.8868 257.287 77.8077 257.328 77.7081C257.369 77.6085 257.39 77.4884 257.39 77.3477ZM257.64 79.5186C257.64 79.3517 257.615 79.2184 257.565 79.1187C257.519 79.0162 257.413 78.9254 257.249 78.8463C257.146 78.7965 257.037 78.7657 256.919 78.754C256.802 78.7423 256.64 78.7364 256.432 78.7364H255.46V80.3404H256.177C256.473 80.3404 256.703 80.3287 256.867 80.3053C257.031 80.2818 257.171 80.235 257.289 80.1646C257.412 80.0885 257.501 80.0006 257.557 79.901C257.612 79.8014 257.64 79.6739 257.64 79.5186ZM262.105 79.7911V78.4288C261.909 78.4464 261.66 78.4713 261.358 78.5035C261.059 78.5328 260.817 78.5753 260.633 78.6309C260.413 78.6983 260.231 78.8023 260.088 78.943C259.944 79.0807 259.873 79.274 259.873 79.523C259.873 79.8043 259.952 80.0167 260.11 80.1602C260.268 80.3038 260.5 80.3756 260.804 80.3756C261.065 80.3756 261.301 80.3199 261.512 80.2086C261.723 80.0943 261.92 79.9552 262.105 79.7911ZM262.105 80.4767C262.038 80.5265 261.947 80.5968 261.833 80.6876C261.721 80.7755 261.613 80.8458 261.507 80.8985C261.361 80.9747 261.219 81.0333 261.081 81.0743C260.946 81.1153 260.756 81.1358 260.51 81.1358C260.308 81.1358 260.116 81.0977 259.934 81.0216C259.752 80.9454 259.593 80.8385 259.455 80.7008C259.323 80.566 259.218 80.4005 259.139 80.2042C259.06 80.005 259.02 79.7955 259.02 79.5758C259.02 79.2359 259.092 78.9474 259.235 78.71C259.379 78.4698 259.606 78.2794 259.917 78.1388C260.192 78.0128 260.517 77.9264 260.892 77.8795C261.267 77.8297 261.671 77.7931 262.105 77.7696V77.6114C262.105 77.4181 262.076 77.2628 262.017 77.1456C261.958 77.0255 261.876 76.9332 261.771 76.8687C261.666 76.8014 261.537 76.7574 261.384 76.7369C261.232 76.7135 261.075 76.7017 260.914 76.7017C260.724 76.7017 260.5 76.731 260.242 76.7896C259.984 76.8453 259.726 76.9273 259.468 77.0357H259.42V76.1964C259.572 76.1524 259.791 76.1041 260.075 76.0514C260.359 75.9986 260.64 75.9723 260.918 75.9723C261.255 75.9723 261.54 75.9986 261.771 76.0514C262.002 76.1041 262.21 76.1993 262.395 76.337C262.574 76.4718 262.707 76.6461 262.795 76.86C262.883 77.0738 262.927 77.3346 262.927 77.6422V80.9996H262.105V80.4767ZM268.209 78.4156C268.209 79.233 268.013 79.8849 267.62 80.3712C267.23 80.8546 266.737 81.0963 266.139 81.0963C265.896 81.0963 265.681 81.0684 265.493 81.0128C265.306 80.9571 265.114 80.8707 264.917 80.7535V82.8101H264.091V76.0909H264.917V76.6051C265.123 76.4205 265.35 76.2667 265.599 76.1436C265.851 76.0177 266.125 75.9547 266.42 75.9547C266.983 75.9547 267.421 76.1773 267.734 76.6226C268.051 77.068 268.209 77.6656 268.209 78.4156ZM267.356 78.5079C267.356 77.9483 267.267 77.5147 267.088 77.2071C266.91 76.8966 266.62 76.7413 266.218 76.7413C265.984 76.7413 265.757 76.794 265.537 76.8995C265.32 77.002 265.114 77.1353 264.917 77.2994V80.0811C265.134 80.1866 265.319 80.2584 265.471 80.2965C265.626 80.3346 265.804 80.3536 266.003 80.3536C266.431 80.3536 266.763 80.1969 267 79.8834C267.238 79.5699 267.356 79.1114 267.356 78.5079ZM272.942 80.9996H272.116V78.7892H269.892V80.9996H269.066V76.0909H269.892V78.0772H272.116V76.0909H272.942V80.9996ZM278.176 78.5475C278.176 79.3736 277.977 80.0123 277.578 80.4635C277.18 80.9117 276.649 81.1358 275.987 81.1358C275.305 81.1358 274.767 80.9044 274.375 80.4415C273.985 79.9757 273.79 79.3443 273.79 78.5475C273.79 77.7271 273.991 77.0899 274.392 76.6358C274.796 76.1817 275.328 75.9547 275.987 75.9547C276.649 75.9547 277.18 76.1817 277.578 76.6358C277.977 77.087 278.176 77.7242 278.176 78.5475ZM277.323 78.5475C277.323 77.9117 277.208 77.44 276.976 77.1324C276.745 76.8219 276.415 76.6666 275.987 76.6666C275.557 76.6666 275.224 76.8219 274.99 77.1324C274.758 77.44 274.643 77.9117 274.643 78.5475C274.643 79.1627 274.758 79.63 274.99 79.9493C275.224 80.2657 275.557 80.4239 275.987 80.4239C276.412 80.4239 276.74 80.2686 276.972 79.9581C277.206 79.6446 277.323 79.1744 277.323 78.5475ZM281.155 81.1139C280.373 81.1139 279.765 80.8941 279.332 80.4547C278.901 80.0123 278.686 79.3853 278.686 78.5738C278.686 77.774 278.895 77.1383 279.314 76.6666C279.733 76.192 280.281 75.9547 280.958 75.9547C281.262 75.9547 281.532 75.9986 281.766 76.0865C282 76.1744 282.206 76.3121 282.381 76.4996C282.557 76.6871 282.692 76.9171 282.786 77.1895C282.879 77.4591 282.926 77.7901 282.926 78.1827V78.6309H279.525C279.525 79.2022 279.668 79.6388 279.956 79.9405C280.243 80.2423 280.64 80.3932 281.146 80.3932C281.328 80.3932 281.505 80.3726 281.678 80.3316C281.854 80.2906 282.012 80.2379 282.153 80.1734C282.302 80.106 282.428 80.0416 282.531 79.9801C282.633 79.9156 282.718 79.8556 282.786 79.7999H282.834V80.7008C282.737 80.7389 282.617 80.7872 282.474 80.8458C282.33 80.9015 282.201 80.9454 282.087 80.9776C281.926 81.0216 281.779 81.0553 281.647 81.0787C281.519 81.1021 281.354 81.1139 281.155 81.1139ZM282.122 77.9981C282.116 77.7755 282.09 77.5836 282.043 77.4225C281.996 77.2613 281.929 77.1251 281.841 77.0138C281.744 76.8907 281.62 76.797 281.467 76.7325C281.318 76.6681 281.132 76.6358 280.909 76.6358C280.689 76.6358 280.502 76.6695 280.347 76.7369C280.194 76.8014 280.055 76.8966 279.929 77.0225C279.806 77.1515 279.712 77.295 279.648 77.4532C279.583 77.6085 279.542 77.7901 279.525 77.9981H282.122ZM236.111 89.9996H235.285V85.8028H233.062V89.9996H232.235V85.0909H236.111V89.9996ZM241.424 87.4156C241.424 88.233 241.228 88.8849 240.835 89.3712C240.446 89.8546 239.952 90.0963 239.354 90.0963C239.111 90.0963 238.896 90.0684 238.708 90.0128C238.521 89.9571 238.329 89.8707 238.133 89.7535V91.8101H237.307V85.0909H238.133V85.6051C238.338 85.4205 238.565 85.2667 238.814 85.1436C239.066 85.0177 239.34 84.9547 239.636 84.9547C240.198 84.9547 240.636 85.1773 240.95 85.6226C241.266 86.068 241.424 86.6656 241.424 87.4156ZM240.572 87.5079C240.572 86.9483 240.482 86.5147 240.304 86.2071C240.125 85.8966 239.835 85.7413 239.434 85.7413C239.199 85.7413 238.972 85.794 238.752 85.8995C238.536 86.002 238.329 86.1353 238.133 86.2994V89.0811C238.35 89.1866 238.534 89.2584 238.687 89.2965C238.842 89.3346 239.019 89.3536 239.218 89.3536C239.646 89.3536 239.979 89.1969 240.216 88.8834C240.453 88.5699 240.572 88.1114 240.572 87.5079ZM246.32 87.5475C246.32 88.3736 246.121 89.0123 245.722 89.4635C245.324 89.9117 244.793 90.1358 244.131 90.1358C243.449 90.1358 242.911 89.9044 242.519 89.4415C242.129 88.9757 241.934 88.3443 241.934 87.5475C241.934 86.7271 242.135 86.0899 242.536 85.6358C242.94 85.1817 243.472 84.9547 244.131 84.9547C244.793 84.9547 245.324 85.1817 245.722 85.6358C246.121 86.087 246.32 86.7242 246.32 87.5475ZM245.467 87.5475C245.467 86.9117 245.352 86.44 245.12 86.1324C244.889 85.8219 244.559 85.6666 244.131 85.6666C243.701 85.6666 243.368 85.8219 243.134 86.1324C242.902 86.44 242.787 86.9117 242.787 87.5475C242.787 88.1627 242.902 88.63 243.134 88.9493C243.368 89.2657 243.701 89.4239 244.131 89.4239C244.556 89.4239 244.884 89.2686 245.116 88.9581C245.35 88.6446 245.467 88.1744 245.467 87.5475ZM251.044 89.9996H250.227V86.339L247.915 89.9996H247.168V85.0909H247.985V88.6944L250.271 85.0909H251.044V89.9996ZM255.491 88.6417C255.491 88.9171 255.431 89.15 255.311 89.3404C255.191 89.5308 255.037 89.6817 254.85 89.7931C254.671 89.9015 254.467 89.982 254.239 90.0348C254.01 90.0875 253.782 90.1139 253.553 90.1139C253.231 90.1139 252.926 90.0816 252.639 90.0172C252.352 89.9557 252.066 89.856 251.782 89.7184V88.8043H251.835C252.034 88.9889 252.283 89.1353 252.582 89.2437C252.884 89.3492 253.184 89.4019 253.483 89.4019C253.612 89.4019 253.75 89.3888 253.896 89.3624C254.045 89.3331 254.171 89.2892 254.274 89.2306C254.409 89.1485 254.504 89.0606 254.56 88.9669C254.618 88.8731 254.647 88.7442 254.647 88.5802C254.647 88.4044 254.614 88.2638 254.546 88.1583C254.482 88.0499 254.393 87.9693 254.278 87.9166C254.164 87.8639 254.035 87.8316 253.892 87.8199C253.751 87.8053 253.602 87.7979 253.443 87.7979H252.863V87.086H253.307C253.418 87.086 253.558 87.0831 253.725 87.0772C253.892 87.0684 254.025 87.045 254.125 87.0069C254.25 86.96 254.352 86.8941 254.428 86.8092C254.504 86.7213 254.542 86.5748 254.542 86.3697C254.542 86.2262 254.51 86.1104 254.445 86.0225C254.381 85.9347 254.3 85.8658 254.204 85.816C254.104 85.7633 253.996 85.7281 253.878 85.7105C253.761 85.69 253.648 85.6798 253.54 85.6798C253.262 85.6798 252.994 85.7193 252.736 85.7984C252.481 85.8746 252.261 85.9889 252.077 86.1412H252.024V85.2491C252.235 85.1759 252.468 85.1114 252.723 85.0558C252.98 85.0001 253.238 84.9723 253.496 84.9723C253.704 84.9723 253.915 84.9942 254.129 85.0382C254.346 85.0792 254.551 85.151 254.744 85.2535C254.926 85.3531 255.078 85.4908 255.201 85.6666C255.324 85.8394 255.386 86.0518 255.386 86.3038C255.386 86.5704 255.31 86.8048 255.157 87.0069C255.008 87.2061 254.809 87.338 254.56 87.4024V87.4332C254.832 87.5269 255.055 87.6705 255.228 87.8639C255.403 88.0572 255.491 88.3165 255.491 88.6417ZM260.211 88.5142C260.211 88.7516 260.166 88.9625 260.075 89.1471C259.984 89.3287 259.859 89.481 259.701 89.6041C259.502 89.7594 259.292 89.8648 259.073 89.9205C258.856 89.9732 258.595 89.9996 258.291 89.9996H256.361V85.0909H258.163C258.523 85.0909 258.787 85.1026 258.954 85.1261C259.121 85.1466 259.287 85.2022 259.451 85.2931C259.624 85.3868 259.751 85.5113 259.833 85.6666C259.915 85.8219 259.956 86.0064 259.956 86.2203C259.956 86.4547 259.892 86.6656 259.763 86.8531C259.634 87.0377 259.462 87.1812 259.249 87.2838L259.271 87.3145C259.537 87.3819 259.76 87.5182 259.938 87.7232C260.12 87.9283 260.211 88.192 260.211 88.5142ZM259.108 86.3477C259.108 86.2364 259.089 86.1397 259.051 86.0577C259.016 85.9757 258.953 85.9112 258.862 85.8643C258.756 85.8087 258.638 85.7765 258.506 85.7677C258.377 85.7559 258.197 85.7501 257.965 85.7501H257.179V87.0948H258.128C258.33 87.0948 258.474 87.086 258.559 87.0684C258.644 87.0479 258.737 87.0069 258.84 86.9454C258.937 86.8868 259.005 86.8077 259.046 86.7081C259.087 86.6085 259.108 86.4884 259.108 86.3477ZM259.358 88.5186C259.358 88.3517 259.333 88.2184 259.284 88.1187C259.237 88.0162 259.131 87.9254 258.967 87.8463C258.865 87.7965 258.755 87.7657 258.638 87.754C258.521 87.7423 258.358 87.7364 258.15 87.7364H257.179V89.3404H257.895C258.191 89.3404 258.421 89.3287 258.585 89.3053C258.749 89.2818 258.89 89.235 259.007 89.1646C259.13 89.0885 259.219 89.0006 259.275 88.901C259.331 88.8014 259.358 88.6739 259.358 88.5186ZM265.12 87.5475C265.12 88.3736 264.92 89.0123 264.522 89.4635C264.124 89.9117 263.593 90.1358 262.931 90.1358C262.249 90.1358 261.711 89.9044 261.318 89.4415C260.929 88.9757 260.734 88.3443 260.734 87.5475C260.734 86.7271 260.935 86.0899 261.336 85.6358C261.74 85.1817 262.272 84.9547 262.931 84.9547C263.593 84.9547 264.124 85.1817 264.522 85.6358C264.92 86.087 265.12 86.7242 265.12 87.5475ZM264.267 87.5475C264.267 86.9117 264.151 86.44 263.92 86.1324C263.688 85.8219 263.359 85.6666 262.931 85.6666C262.5 85.6666 262.168 85.8219 261.934 86.1324C261.702 86.44 261.586 86.9117 261.586 87.5475C261.586 88.1627 261.702 88.63 261.934 88.9493C262.168 89.2657 262.5 89.4239 262.931 89.4239C263.356 89.4239 263.684 89.2686 263.916 88.9581C264.15 88.6446 264.267 88.1744 264.267 87.5475ZM270.178 91.1773H269.409V89.9864H266.174V91.1773H265.405V89.2965H265.73C266.009 88.8394 266.236 88.2433 266.412 87.5079C266.59 86.7696 266.68 85.964 266.68 85.0909H269.69V89.2965H270.178V91.1773ZM268.864 89.2965V85.7852H267.458C267.419 86.5177 267.318 87.1871 267.154 87.7935C266.993 88.3971 266.79 88.898 266.543 89.2965H268.864ZM272.946 90.1095C272.609 90.1095 272.3 90.0582 272.019 89.9557C271.738 89.8502 271.496 89.692 271.294 89.481C271.092 89.2701 270.935 89.005 270.824 88.6856C270.712 88.3634 270.657 87.9854 270.657 87.5518C270.657 87.1212 270.714 86.7491 270.828 86.4356C270.945 86.1222 271.101 85.8585 271.294 85.6446C271.487 85.4308 271.728 85.2667 272.015 85.1524C272.305 85.0352 272.615 84.9767 272.946 84.9767C273.216 84.9767 273.475 85.0147 273.724 85.0909C273.976 85.1671 274.2 85.255 274.396 85.3546V86.2818H274.348C274.29 86.232 274.213 86.1749 274.12 86.1104C274.029 86.046 273.917 85.9801 273.786 85.9127C273.671 85.8541 273.537 85.8028 273.381 85.7589C273.226 85.7149 273.077 85.693 272.933 85.693C272.505 85.693 272.161 85.8556 271.9 86.1808C271.643 86.503 271.514 86.96 271.514 87.5518C271.514 88.1319 271.638 88.5846 271.887 88.9098C272.139 89.232 272.488 89.3932 272.933 89.3932C273.203 89.3932 273.459 89.3375 273.702 89.2262C273.945 89.1148 274.161 88.9713 274.348 88.7955H274.396V89.7227C274.314 89.7608 274.212 89.8077 274.089 89.8634C273.966 89.9161 273.854 89.9557 273.755 89.982C273.614 90.023 273.488 90.0538 273.377 90.0743C273.266 90.0977 273.122 90.1095 272.946 90.1095ZM278.738 85.816H277.068V89.9996H276.242V85.816H274.572V85.0909H278.738V85.816ZM283.203 88.5142C283.203 88.7516 283.158 88.9625 283.067 89.1471C282.976 89.3287 282.852 89.481 282.693 89.6041C282.494 89.7594 282.285 89.8648 282.065 89.9205C281.848 89.9732 281.587 89.9996 281.283 89.9996H279.354V85.0909H281.155C281.516 85.0909 281.779 85.1026 281.946 85.1261C282.113 85.1466 282.279 85.2022 282.443 85.2931C282.616 85.3868 282.743 85.5113 282.825 85.6666C282.907 85.8219 282.948 86.0064 282.948 86.2203C282.948 86.4547 282.884 86.6656 282.755 86.8531C282.626 87.0377 282.455 87.1812 282.241 87.2838L282.263 87.3145C282.529 87.3819 282.752 87.5182 282.931 87.7232C283.112 87.9283 283.203 88.192 283.203 88.5142ZM282.1 86.3477C282.1 86.2364 282.081 86.1397 282.043 86.0577C282.008 85.9757 281.945 85.9112 281.854 85.8643C281.749 85.8087 281.63 85.7765 281.498 85.7677C281.369 85.7559 281.189 85.7501 280.958 85.7501H280.171V87.0948H281.12C281.322 87.0948 281.466 87.086 281.551 87.0684C281.636 87.0479 281.729 87.0069 281.832 86.9454C281.929 86.8868 281.998 86.8077 282.039 86.7081C282.08 86.6085 282.1 86.4884 282.1 86.3477ZM282.351 88.5186C282.351 88.3517 282.326 88.2184 282.276 88.1187C282.229 88.0162 282.124 87.9254 281.959 87.8463C281.857 87.7965 281.747 87.7657 281.63 87.754C281.513 87.7423 281.35 87.7364 281.142 87.7364H280.171V89.3404H280.887C281.183 89.3404 281.413 89.3287 281.577 89.3053C281.741 89.2818 281.882 89.235 281.999 89.1646C282.122 89.0885 282.211 89.0006 282.267 88.901C282.323 88.8014 282.351 88.6739 282.351 88.5186ZM288.112 87.5475C288.112 88.3736 287.913 89.0123 287.514 89.4635C287.116 89.9117 286.585 90.1358 285.923 90.1358C285.241 90.1358 284.703 89.9044 284.311 89.4415C283.921 88.9757 283.726 88.3443 283.726 87.5475C283.726 86.7271 283.927 86.0899 284.328 85.6358C284.732 85.1817 285.264 84.9547 285.923 84.9547C286.585 84.9547 287.116 85.1817 287.514 85.6358C287.913 86.087 288.112 86.7242 288.112 87.5475ZM287.259 87.5475C287.259 86.9117 287.144 86.44 286.912 86.1324C286.681 85.8219 286.351 85.6666 285.923 85.6666C285.493 85.6666 285.16 85.8219 284.926 86.1324C284.694 86.44 284.579 86.9117 284.579 87.5475C284.579 88.1627 284.694 88.63 284.926 88.9493C285.16 89.2657 285.493 89.4239 285.923 89.4239C286.348 89.4239 286.676 89.2686 286.908 88.9581C287.142 88.6446 287.259 88.1744 287.259 87.5475Z" fill="#606580"/>
<path d="M238.809 53.9913C238.809 54.3165 238.747 54.6036 238.624 54.8526C238.501 55.1017 238.335 55.3067 238.127 55.4679C237.881 55.6612 237.618 55.7989 237.336 55.8809C237.055 55.96 236.692 55.9996 236.247 55.9996H234.37V49.4561H236.106C236.572 49.4561 236.92 49.4723 237.152 49.5045C237.386 49.5338 237.61 49.6056 237.824 49.7198C238.059 49.8458 238.23 50.0113 238.338 50.2164C238.447 50.4185 238.501 50.6573 238.501 50.9327C238.501 51.2403 238.419 51.5157 238.255 51.7589C238.094 52.002 237.87 52.1925 237.583 52.3302V52.3653C237.972 52.4708 238.274 52.6642 238.488 52.9454C238.702 53.2237 238.809 53.5724 238.809 53.9913ZM237.596 51.0558C237.596 50.8975 237.569 50.7613 237.517 50.6471C237.464 50.5299 237.379 50.4376 237.262 50.3702C237.121 50.2911 236.964 50.2428 236.792 50.2252C236.619 50.2076 236.38 50.1988 236.075 50.1988H235.24V52.1148H236.229C236.501 52.1148 236.702 52.1017 236.831 52.0753C236.96 52.046 237.093 51.9874 237.231 51.8995C237.363 51.8145 237.457 51.7032 237.512 51.5655C237.568 51.4278 237.596 51.2579 237.596 51.0558ZM237.903 54.0265C237.903 53.7804 237.868 53.5782 237.798 53.42C237.728 53.2589 237.585 53.1226 237.372 53.0113C237.234 52.9381 237.083 52.8912 236.919 52.8707C236.758 52.8502 236.528 52.8399 236.229 52.8399H235.24V55.2569H235.948C236.329 55.2569 236.629 55.2393 236.849 55.2042C237.068 55.169 237.262 55.0943 237.429 54.9801C237.593 54.8658 237.713 54.7369 237.789 54.5934C237.865 54.4469 237.903 54.2579 237.903 54.0265ZM246.376 55.9996H245.348L243.665 53.7364H243.251V55.9996H242.425V51.0909H243.251V53.2267C243.465 53.2237 243.647 53.1798 243.796 53.0948C243.949 53.0069 244.078 52.8385 244.183 52.5894C244.215 52.5162 244.25 52.4312 244.289 52.3346C244.33 52.2379 244.362 52.1529 244.385 52.0797C244.514 51.7193 244.693 51.4644 244.921 51.315C245.15 51.1656 245.447 51.0909 245.813 51.0909H246.038V51.8028H245.849C245.617 51.8028 245.443 51.8512 245.326 51.9478C245.211 52.0416 245.115 52.2144 245.036 52.4664C244.954 52.7213 244.857 52.9205 244.746 53.0641C244.634 53.2047 244.511 53.3131 244.376 53.3892L246.376 55.9996ZM250.946 53.5475C250.946 54.3736 250.747 55.0123 250.349 55.4635C249.95 55.9117 249.42 56.1358 248.758 56.1358C248.075 56.1358 247.538 55.9044 247.145 55.4415C246.755 54.9757 246.561 54.3443 246.561 53.5475C246.561 52.7271 246.761 52.0899 247.163 51.6358C247.567 51.1817 248.099 50.9547 248.758 50.9547C249.42 50.9547 249.95 51.1817 250.349 51.6358C250.747 52.087 250.946 52.7242 250.946 53.5475ZM250.094 53.5475C250.094 52.9117 249.978 52.44 249.747 52.1324C249.515 51.8219 249.186 51.6666 248.758 51.6666C248.327 51.6666 247.995 51.8219 247.76 52.1324C247.529 52.44 247.413 52.9117 247.413 53.5475C247.413 54.1627 247.529 54.63 247.76 54.9493C247.995 55.2657 248.327 55.4239 248.758 55.4239C249.183 55.4239 249.511 55.2686 249.742 54.9581C249.977 54.6446 250.094 54.1744 250.094 53.5475ZM255.596 55.9996H254.77V51.7852H253.082C253.073 52.0284 253.064 52.2628 253.056 52.4884C253.047 52.711 253.038 52.9132 253.029 53.0948C253.012 53.5548 252.981 53.94 252.937 54.2506C252.896 54.5611 252.843 54.8101 252.779 54.9976C252.714 55.191 252.643 55.3419 252.563 55.4503C252.487 55.5587 252.401 55.6568 252.304 55.7447C252.205 55.8326 252.098 55.8985 251.983 55.9425C251.869 55.9864 251.74 56.0084 251.597 56.0084C251.55 56.0084 251.49 56.0069 251.417 56.004C251.343 56.0011 251.292 55.9996 251.263 55.9996V55.2789H251.307C251.327 55.2789 251.348 55.2804 251.368 55.2833C251.392 55.2862 251.418 55.2877 251.447 55.2877C251.518 55.2877 251.586 55.2774 251.654 55.2569C251.721 55.2364 251.781 55.1983 251.834 55.1427C251.98 54.9991 252.087 54.7486 252.155 54.3912C252.222 54.0308 252.271 53.5284 252.3 52.8839C252.312 52.6436 252.322 52.3595 252.331 52.0313C252.342 51.7032 252.353 51.3897 252.361 51.0909H255.596V55.9996ZM260.597 55.9996H259.771V51.7852H258.083C258.074 52.0284 258.065 52.2628 258.057 52.4884C258.048 52.711 258.039 52.9132 258.03 53.0948C258.013 53.5548 257.982 53.94 257.938 54.2506C257.897 54.5611 257.844 54.8101 257.78 54.9976C257.715 55.191 257.644 55.3419 257.564 55.4503C257.488 55.5587 257.402 55.6568 257.305 55.7447C257.206 55.8326 257.099 55.8985 256.984 55.9425C256.87 55.9864 256.741 56.0084 256.598 56.0084C256.551 56.0084 256.491 56.0069 256.417 56.004C256.344 56.0011 256.293 55.9996 256.264 55.9996V55.2789H256.308C256.328 55.2789 256.349 55.2804 256.369 55.2833C256.393 55.2862 256.419 55.2877 256.448 55.2877C256.519 55.2877 256.587 55.2774 256.655 55.2569C256.722 55.2364 256.782 55.1983 256.835 55.1427C256.981 54.9991 257.088 54.7486 257.156 54.3912C257.223 54.0308 257.271 53.5284 257.301 52.8839C257.312 52.6436 257.323 52.3595 257.332 52.0313C257.343 51.7032 257.354 51.3897 257.362 51.0909H260.597V55.9996ZM263.928 56.1139C263.146 56.1139 262.538 55.8941 262.104 55.4547C261.673 55.0123 261.458 54.3853 261.458 53.5738C261.458 52.774 261.667 52.1383 262.086 51.6666C262.505 51.192 263.053 50.9547 263.73 50.9547C264.035 50.9547 264.304 50.9986 264.539 51.0865C264.773 51.1744 264.978 51.3121 265.154 51.4996C265.33 51.6871 265.464 51.9171 265.558 52.1895C265.652 52.4591 265.699 52.7901 265.699 53.1827V53.6309H262.297C262.297 54.2022 262.441 54.6388 262.728 54.9405C263.015 55.2423 263.412 55.3932 263.919 55.3932C264.101 55.3932 264.278 55.3726 264.451 55.3316C264.626 55.2906 264.785 55.2379 264.925 55.1734C265.075 55.106 265.201 55.0416 265.303 54.9801C265.406 54.9156 265.491 54.8556 265.558 54.7999H265.606V55.7008C265.51 55.7389 265.39 55.7872 265.246 55.8458C265.103 55.9015 264.974 55.9454 264.859 55.9776C264.698 56.0216 264.552 56.0553 264.42 56.0787C264.291 56.1021 264.127 56.1139 263.928 56.1139ZM264.895 52.9981C264.889 52.7755 264.862 52.5836 264.815 52.4225C264.769 52.2613 264.701 52.1251 264.613 52.0138C264.517 51.8907 264.392 51.797 264.24 51.7325C264.09 51.6681 263.904 51.6358 263.682 51.6358C263.462 51.6358 263.274 51.6695 263.119 51.7369C262.967 51.8014 262.828 51.8966 262.702 52.0225C262.579 52.1515 262.485 52.295 262.42 52.4532C262.356 52.6085 262.315 52.7901 262.297 52.9981H264.895ZM270.484 55.9996H269.456L267.773 53.7364H267.36V55.9996H266.534V51.0909H267.36V53.2267C267.574 53.2237 267.755 53.1798 267.905 53.0948C268.057 53.0069 268.186 52.8385 268.292 52.5894C268.324 52.5162 268.359 52.4312 268.397 52.3346C268.438 52.2379 268.47 52.1529 268.494 52.0797C268.623 51.7193 268.801 51.4644 269.03 51.315C269.258 51.1656 269.556 51.0909 269.922 51.0909H270.146V51.8028H269.957C269.726 51.8028 269.551 51.8512 269.434 51.9478C269.32 52.0416 269.223 52.2144 269.144 52.4664C269.062 52.7213 268.965 52.9205 268.854 53.0641C268.743 53.2047 268.62 53.3131 268.485 53.3892L270.484 55.9996ZM274.602 51.816H272.932V55.9996H272.106V51.816H270.436V51.0909H274.602V51.816ZM279.256 53.5475C279.256 54.3736 279.057 55.0123 278.658 55.4635C278.26 55.9117 277.729 56.1358 277.067 56.1358C276.385 56.1358 275.847 55.9044 275.455 55.4415C275.065 54.9757 274.87 54.3443 274.87 53.5475C274.87 52.7271 275.071 52.0899 275.472 51.6358C275.876 51.1817 276.408 50.9547 277.067 50.9547C277.729 50.9547 278.26 51.1817 278.658 51.6358C279.057 52.087 279.256 52.7242 279.256 53.5475ZM278.403 53.5475C278.403 52.9117 278.288 52.44 278.056 52.1324C277.825 51.8219 277.495 51.6666 277.067 51.6666C276.637 51.6666 276.304 51.8219 276.07 52.1324C275.838 52.44 275.723 52.9117 275.723 53.5475C275.723 54.1627 275.838 54.63 276.07 54.9493C276.304 55.2657 276.637 55.4239 277.067 55.4239C277.492 55.4239 277.82 55.2686 278.052 54.9581C278.286 54.6446 278.403 54.1744 278.403 53.5475ZM284.222 53.4156C284.222 54.233 284.025 54.8849 283.633 55.3712C283.243 55.8546 282.75 56.0963 282.152 56.0963C281.909 56.0963 281.693 56.0684 281.506 56.0128C281.318 55.9571 281.126 55.8707 280.93 55.7535V57.8101H280.104V51.0909H280.93V51.6051C281.135 51.4205 281.362 51.2667 281.611 51.1436C281.863 51.0177 282.137 50.9547 282.433 50.9547C282.996 50.9547 283.434 51.1773 283.747 51.6226C284.063 52.068 284.222 52.6656 284.222 53.4156ZM283.369 53.5079C283.369 52.9483 283.28 52.5147 283.101 52.2071C282.922 51.8966 282.632 51.7413 282.231 51.7413C281.997 51.7413 281.77 51.794 281.55 51.8995C281.333 52.002 281.126 52.1353 280.93 52.2994V55.0811C281.147 55.1866 281.332 55.2584 281.484 55.2965C281.639 55.3346 281.816 55.3536 282.016 55.3536C282.443 55.3536 282.776 55.1969 283.013 54.8834C283.25 54.5699 283.369 54.1114 283.369 53.5079ZM244.328 62.4156C244.328 63.233 244.132 63.8849 243.739 64.3712C243.35 64.8546 242.856 65.0963 242.258 65.0963C242.015 65.0963 241.8 65.0684 241.612 65.0128C241.425 64.9571 241.233 64.8707 241.037 64.7535V66.8101H240.21V60.0909H241.037V60.6051C241.242 60.4205 241.469 60.2667 241.718 60.1436C241.97 60.0177 242.244 59.9547 242.54 59.9547C243.102 59.9547 243.54 60.1773 243.854 60.6226C244.17 61.068 244.328 61.6656 244.328 62.4156ZM243.476 62.5079C243.476 61.9483 243.386 61.5147 243.208 61.2071C243.029 60.8966 242.739 60.7413 242.337 60.7413C242.103 60.7413 241.876 60.794 241.656 60.8995C241.439 61.002 241.233 61.1353 241.037 61.2994V64.0811C241.253 64.1866 241.438 64.2584 241.59 64.2965C241.746 64.3346 241.923 64.3535 242.122 64.3535C242.55 64.3535 242.882 64.1969 243.12 63.8834C243.357 63.5699 243.476 63.1114 243.476 62.5079ZM247.316 65.1139C246.534 65.1139 245.926 64.8941 245.493 64.4547C245.062 64.0123 244.847 63.3853 244.847 62.5738C244.847 61.774 245.056 61.1383 245.475 60.6666C245.894 60.192 246.442 59.9547 247.119 59.9547C247.423 59.9547 247.693 59.9986 247.927 60.0865C248.162 60.1744 248.367 60.3121 248.542 60.4996C248.718 60.6871 248.853 60.9171 248.947 61.1895C249.041 61.4591 249.087 61.7901 249.087 62.1827V62.6309H245.686C245.686 63.2022 245.83 63.6388 246.117 63.9405C246.404 64.2423 246.801 64.3932 247.308 64.3932C247.489 64.3932 247.667 64.3726 247.839 64.3316C248.015 64.2906 248.173 64.2379 248.314 64.1734C248.463 64.106 248.589 64.0416 248.692 63.9801C248.794 63.9156 248.879 63.8556 248.947 63.7999H248.995V64.7008C248.898 64.7389 248.778 64.7872 248.635 64.8458C248.491 64.9015 248.362 64.9454 248.248 64.9776C248.087 65.0216 247.94 65.0553 247.809 65.0787C247.68 65.1021 247.516 65.1139 247.316 65.1139ZM248.283 61.9981C248.277 61.7755 248.251 61.5836 248.204 61.4225C248.157 61.2613 248.09 61.1251 248.002 61.0138C247.905 60.8907 247.781 60.797 247.628 60.7325C247.479 60.6681 247.293 60.6358 247.07 60.6358C246.851 60.6358 246.663 60.6695 246.508 60.7369C246.355 60.8014 246.216 60.8966 246.09 61.0225C245.967 61.1515 245.874 61.295 245.809 61.4532C245.745 61.6085 245.704 61.7901 245.686 61.9981H248.283ZM255.89 62.4156C255.89 62.8521 255.836 63.2389 255.728 63.5758C255.622 63.9098 255.481 64.1851 255.306 64.4019C255.127 64.6217 254.925 64.7887 254.699 64.9029C254.474 65.0142 254.238 65.0699 253.992 65.0699C253.807 65.0699 253.645 65.0348 253.504 64.9644C253.366 64.8941 253.249 64.8341 253.152 64.7843V66.8101H252.335V64.7843C252.162 64.8751 252.024 64.9454 251.922 64.9952C251.819 65.045 251.651 65.0699 251.417 65.0699C250.866 65.0699 250.425 64.8473 250.094 64.4019C249.763 63.9537 249.597 63.3399 249.597 62.5606C249.597 62.1505 249.65 61.7843 249.755 61.462C249.861 61.1397 250.006 60.8658 250.19 60.6402C250.36 60.4322 250.557 60.2711 250.779 60.1568C251.005 60.0396 251.239 59.981 251.482 59.981C251.655 59.981 251.811 60.0118 251.948 60.0733C252.089 60.1319 252.218 60.1993 252.335 60.2755V58.1617H253.152V60.2755C253.281 60.1964 253.429 60.1275 253.596 60.0689C253.763 60.0103 253.935 59.981 254.11 59.981C254.661 59.981 255.095 60.2022 255.411 60.6446C255.73 61.0841 255.89 61.6744 255.89 62.4156ZM255.042 62.5079C255.042 61.9483 254.947 61.5059 254.756 61.1808C254.569 60.8556 254.291 60.693 253.921 60.693C253.769 60.693 253.634 60.7135 253.517 60.7545C253.403 60.7926 253.281 60.835 253.152 60.8819V64.1558C253.281 64.2174 253.385 64.2672 253.464 64.3053C253.546 64.3434 253.665 64.3624 253.82 64.3624C254.201 64.3624 254.5 64.2057 254.717 63.8922C254.934 63.5787 255.042 63.1173 255.042 62.5079ZM252.335 64.1558V60.8819C252.229 60.8321 252.124 60.7882 252.019 60.7501C251.913 60.712 251.796 60.693 251.667 60.693C251.292 60.693 250.995 60.8409 250.775 61.1368C250.555 61.4327 250.445 61.8941 250.445 62.5211C250.445 63.0924 250.543 63.5421 250.74 63.8702C250.939 64.1983 251.223 64.3624 251.592 64.3624C251.739 64.3624 251.871 64.3404 251.988 64.2965C252.105 64.2525 252.221 64.2057 252.335 64.1558ZM260.562 64.9996H259.735V60.7852H258.048C258.039 61.0284 258.03 61.2628 258.021 61.4884C258.013 61.711 258.004 61.9132 257.995 62.0948C257.978 62.5548 257.947 62.94 257.903 63.2506C257.862 63.5611 257.809 63.8101 257.745 63.9976C257.68 64.191 257.608 64.3419 257.529 64.4503C257.453 64.5587 257.367 64.6568 257.27 64.7447C257.17 64.8326 257.063 64.8985 256.949 64.9425C256.835 64.9864 256.706 65.0084 256.562 65.0084C256.516 65.0084 256.456 65.0069 256.382 65.004C256.309 65.0011 256.258 64.9996 256.229 64.9996V64.2789H256.272C256.293 64.2789 256.313 64.2804 256.334 64.2833C256.357 64.2862 256.384 64.2877 256.413 64.2877C256.483 64.2877 256.552 64.2774 256.62 64.2569C256.687 64.2364 256.747 64.1983 256.8 64.1427C256.946 63.9991 257.053 63.7486 257.121 63.3912C257.188 63.0308 257.236 62.5284 257.266 61.8839C257.277 61.6436 257.288 61.3595 257.296 61.0313C257.308 60.7032 257.318 60.3897 257.327 60.0909H260.562V64.9996ZM267.769 62.5475C267.769 63.3707 267.569 64.0079 267.171 64.4591C266.775 64.9102 266.251 65.1358 265.598 65.1358C264.956 65.1358 264.446 64.9249 264.068 64.503C263.693 64.0782 263.488 63.4996 263.453 62.7672H262.587V64.9996H261.761V60.0909H262.587V62.0904H263.471C263.538 61.4225 263.761 60.8995 264.139 60.5216C264.517 60.1436 265.003 59.9547 265.598 59.9547C266.286 59.9547 266.819 60.1891 267.197 60.6578C267.578 61.1266 267.769 61.7564 267.769 62.5475ZM266.916 62.5475C266.916 61.9205 266.8 61.4503 266.569 61.1368C266.34 60.8233 266.017 60.6666 265.598 60.6666C265.173 60.6666 264.845 60.8248 264.613 61.1412C264.385 61.4576 264.271 61.9264 264.271 62.5475C264.271 63.1627 264.386 63.63 264.618 63.9493C264.849 64.2657 265.176 64.4239 265.598 64.4239C266.017 64.4239 266.34 64.2701 266.569 63.9625C266.8 63.6519 266.916 63.1803 266.916 62.5475ZM272.567 64.9996H271.539L269.856 62.7364H269.443V64.9996H268.617V60.0909H269.443V62.2267C269.657 62.2237 269.838 62.1798 269.988 62.0948C270.14 62.0069 270.269 61.8385 270.375 61.5894C270.407 61.5162 270.442 61.4312 270.48 61.3346C270.521 61.2379 270.553 61.1529 270.577 61.0797C270.706 60.7193 270.884 60.4644 271.113 60.315C271.341 60.1656 271.639 60.0909 272.005 60.0909H272.229V60.8028H272.04C271.809 60.8028 271.634 60.8512 271.517 60.9478C271.403 61.0416 271.306 61.2144 271.227 61.4664C271.145 61.7213 271.048 61.9205 270.937 62.0641C270.826 62.2047 270.703 62.3131 270.568 62.3892L272.567 64.9996ZM275.05 65.1095C274.713 65.1095 274.404 65.0582 274.123 64.9557C273.842 64.8502 273.6 64.692 273.398 64.481C273.196 64.2701 273.039 64.005 272.928 63.6856C272.816 63.3634 272.761 62.9854 272.761 62.5518C272.761 62.1212 272.818 61.7491 272.932 61.4356C273.049 61.1222 273.205 60.8585 273.398 60.6446C273.591 60.4308 273.832 60.2667 274.119 60.1524C274.409 60.0352 274.719 59.9767 275.05 59.9767C275.32 59.9767 275.579 60.0147 275.828 60.0909C276.08 60.1671 276.304 60.255 276.5 60.3546V61.2818H276.452C276.394 61.232 276.317 61.1749 276.224 61.1104C276.133 61.046 276.021 60.9801 275.89 60.9127C275.775 60.8541 275.641 60.8028 275.485 60.7589C275.33 60.7149 275.181 60.693 275.037 60.693C274.609 60.693 274.265 60.8556 274.004 61.1808C273.747 61.503 273.618 61.96 273.618 62.5518C273.618 63.1319 273.742 63.5846 273.991 63.9098C274.243 64.232 274.592 64.3932 275.037 64.3932C275.307 64.3932 275.563 64.3375 275.806 64.2262C276.049 64.1148 276.265 63.9713 276.452 63.7955H276.5V64.7227C276.418 64.7608 276.316 64.8077 276.193 64.8634C276.07 64.9161 275.958 64.9557 275.859 64.982C275.718 65.023 275.592 65.0538 275.481 65.0743C275.37 65.0977 275.226 65.1095 275.05 65.1095ZM279.999 63.7911V62.4288C279.802 62.4464 279.553 62.4713 279.251 62.5035C278.953 62.5328 278.711 62.5753 278.526 62.6309C278.307 62.6983 278.125 62.8023 277.981 62.943C277.838 63.0807 277.766 63.274 277.766 63.523C277.766 63.8043 277.845 64.0167 278.003 64.1602C278.162 64.3038 278.393 64.3756 278.698 64.3756C278.958 64.3756 279.194 64.3199 279.405 64.2086C279.616 64.0943 279.814 63.9552 279.999 63.7911ZM279.999 64.4767C279.931 64.5265 279.84 64.5968 279.726 64.6876C279.615 64.7755 279.506 64.8458 279.401 64.8985C279.254 64.9747 279.112 65.0333 278.975 65.0743C278.84 65.1153 278.649 65.1358 278.403 65.1358C278.201 65.1358 278.009 65.0977 277.828 65.0216C277.646 64.9454 277.486 64.8385 277.349 64.7008C277.217 64.566 277.111 64.4005 277.032 64.2042C276.953 64.005 276.914 63.7955 276.914 63.5758C276.914 63.2359 276.985 62.9474 277.129 62.71C277.272 62.4698 277.5 62.2794 277.81 62.1388C278.085 62.0128 278.411 61.9264 278.786 61.8795C279.161 61.8297 279.565 61.7931 279.999 61.7696V61.6114C279.999 61.4181 279.969 61.2628 279.911 61.1456C279.852 61.0255 279.77 60.9332 279.665 60.8687C279.559 60.8014 279.43 60.7574 279.278 60.7369C279.125 60.7135 278.969 60.7017 278.808 60.7017C278.617 60.7017 278.393 60.731 278.135 60.7896C277.877 60.8453 277.62 60.9273 277.362 61.0357H277.313V60.1964C277.466 60.1524 277.684 60.1041 277.968 60.0514C278.252 59.9986 278.534 59.9723 278.812 59.9723C279.149 59.9723 279.433 59.9986 279.665 60.0514C279.896 60.1041 280.104 60.1993 280.289 60.337C280.467 60.4718 280.601 60.6461 280.688 60.86C280.776 61.0738 280.82 61.3346 280.82 61.6422V64.9996H279.999V64.4767Z" fill="#606580"/>
<path d="M239.372 20.9995H238.502V15.2295H235.492V20.9995H234.622V14.456H239.372V20.9995ZM242.769 21.1138C241.987 21.1138 241.379 20.894 240.945 20.4546C240.515 20.0122 240.299 19.3852 240.299 18.5737C240.299 17.7739 240.509 17.1382 240.928 16.6665C241.347 16.1919 241.895 15.9546 242.571 15.9546C242.876 15.9546 243.146 15.9985 243.38 16.0864C243.614 16.1743 243.819 16.312 243.995 16.4995C244.171 16.687 244.306 16.917 244.399 17.1894C244.493 17.459 244.54 17.79 244.54 18.1826V18.6308H241.139C241.139 19.2021 241.282 19.6387 241.569 19.9404C241.856 20.2422 242.253 20.3931 242.76 20.3931C242.942 20.3931 243.119 20.3725 243.292 20.3315C243.468 20.2905 243.626 20.2378 243.767 20.1733C243.916 20.1059 244.042 20.0415 244.145 19.98C244.247 19.9155 244.332 19.8555 244.399 19.7998H244.448V20.7007C244.351 20.7388 244.231 20.7871 244.087 20.8457C243.944 20.9014 243.815 20.9453 243.701 20.9775C243.54 21.0215 243.393 21.0552 243.261 21.0786C243.132 21.102 242.968 21.1138 242.769 21.1138ZM243.736 17.998C243.73 17.7754 243.704 17.5835 243.657 17.4224C243.61 17.2612 243.542 17.125 243.455 17.0137C243.358 16.8906 243.233 16.7969 243.081 16.7324C242.932 16.668 242.746 16.6357 242.523 16.6357C242.303 16.6357 242.116 16.6694 241.96 16.7368C241.808 16.8013 241.669 16.8965 241.543 17.0224C241.42 17.1514 241.326 17.2949 241.262 17.4531C241.197 17.6084 241.156 17.79 241.139 17.998H243.736ZM249.066 20.9995H248.24V19.0835C247.982 19.1684 247.732 19.2344 247.489 19.2812C247.246 19.3281 247.005 19.3516 246.768 19.3516C246.56 19.3516 246.356 19.3252 246.157 19.2724C245.961 19.2168 245.791 19.1274 245.647 19.0044C245.504 18.8813 245.393 18.7246 245.313 18.5342C245.237 18.3408 245.199 18.1138 245.199 17.853V16.0908H246.025V17.4224C246.025 17.6391 246.034 17.812 246.052 17.9409C246.069 18.0669 246.118 18.1899 246.197 18.31C246.264 18.4126 246.365 18.4917 246.5 18.5474C246.638 18.603 246.818 18.6308 247.041 18.6308C247.234 18.6308 247.44 18.6118 247.66 18.5737C247.883 18.5356 248.076 18.4902 248.24 18.4375V16.0908H249.066V20.9995ZM253.979 19.479C253.979 19.7163 253.931 19.9316 253.834 20.125C253.741 20.3183 253.612 20.4751 253.448 20.5952C253.254 20.7417 253.048 20.8457 252.828 20.9072C252.608 20.9687 252.326 20.9995 251.98 20.9995H250.262V16.0908H251.088V18.0024H252.002C252.371 18.0024 252.657 18.0215 252.859 18.0596C253.064 18.0976 253.268 18.1914 253.47 18.3408C253.64 18.4668 253.767 18.6279 253.852 18.8242C253.937 19.0205 253.979 19.2388 253.979 19.479ZM253.127 19.4922C253.127 19.3428 253.101 19.2124 253.048 19.1011C252.998 18.9868 252.915 18.8945 252.797 18.8242C252.674 18.751 252.534 18.707 252.375 18.6924C252.22 18.6777 251.996 18.6704 251.703 18.6704H251.088V20.3403H251.686C251.979 20.3403 252.206 20.3286 252.367 20.3052C252.528 20.2788 252.667 20.2305 252.784 20.1601C252.904 20.084 252.991 19.9946 253.043 19.8921C253.099 19.7866 253.127 19.6533 253.127 19.4922ZM256.941 20.9995L259.147 14.456H260.22L262.426 20.9995H261.507L260.914 19.1714H258.414L257.82 20.9995H256.941ZM260.672 18.4287L259.662 15.3437L258.655 18.4287H260.672ZM267.484 18.9912C267.484 19.3164 267.422 19.6035 267.299 19.8525C267.176 20.1016 267.011 20.3066 266.803 20.4678C266.557 20.6611 266.293 20.7988 266.012 20.8808C265.73 20.9599 265.367 20.9995 264.922 20.9995H263.045V14.456H264.781C265.247 14.456 265.596 14.4722 265.827 14.5044C266.062 14.5337 266.286 14.6055 266.5 14.7197C266.734 14.8457 266.905 15.0112 267.014 15.2163C267.122 15.4184 267.176 15.6572 267.176 15.9326C267.176 16.2402 267.094 16.5156 266.93 16.7588C266.769 17.0019 266.545 17.1924 266.258 17.3301V17.3652C266.647 17.4707 266.949 17.6641 267.163 17.9453C267.377 18.2236 267.484 18.5723 267.484 18.9912ZM266.271 16.0557C266.271 15.8974 266.245 15.7612 266.192 15.647C266.139 15.5298 266.054 15.4375 265.937 15.3701C265.796 15.291 265.64 15.2427 265.467 15.2251C265.294 15.2075 265.055 15.1987 264.75 15.1987H263.916V17.1147H264.904C265.177 17.1147 265.377 17.1016 265.506 17.0752C265.635 17.0459 265.769 16.9873 265.906 16.8994C266.038 16.8144 266.132 16.7031 266.188 16.5654C266.243 16.4277 266.271 16.2578 266.271 16.0557ZM266.579 19.0264C266.579 18.7803 266.543 18.5781 266.473 18.4199C266.403 18.2588 266.261 18.1225 266.047 18.0112C265.909 17.938 265.758 17.8911 265.594 17.8706C265.433 17.8501 265.203 17.8398 264.904 17.8398H263.916V20.2568H264.623C265.004 20.2568 265.304 20.2392 265.524 20.2041C265.744 20.1689 265.937 20.0942 266.104 19.98C266.268 19.8657 266.388 19.7368 266.464 19.5933C266.541 19.4468 266.579 19.2578 266.579 19.0264ZM269.883 20.9995V15.2295H267.686V14.456H272.951V15.2295H270.753V20.9995H269.883ZM275.82 18.5342H273.342V17.7388H275.82V18.5342ZM280.399 20.9995H277.209V20.3315H278.396V15.9458H277.209V15.3481C277.657 15.3481 277.987 15.2851 278.198 15.1592C278.412 15.0303 278.532 14.7886 278.558 14.4341H279.239V20.3315H280.399V20.9995ZM285.677 17.7256C285.677 18.9004 285.506 19.7632 285.163 20.314C284.823 20.8618 284.297 21.1357 283.585 21.1357C282.865 21.1357 282.336 20.8559 281.999 20.2964C281.662 19.7368 281.494 18.8828 281.494 17.7344C281.494 16.5537 281.664 15.6909 282.003 15.146C282.346 14.5981 282.874 14.3242 283.585 14.3242C284.306 14.3242 284.835 14.6069 285.172 15.1724C285.509 15.7378 285.677 16.5889 285.677 17.7256ZM284.552 19.7207C284.637 19.5039 284.697 19.23 284.732 18.8989C284.768 18.5679 284.785 18.1767 284.785 17.7256C284.785 17.2773 284.768 16.8877 284.732 16.5566C284.697 16.2256 284.636 15.9502 284.548 15.7305C284.46 15.5078 284.338 15.3393 284.183 15.2251C284.031 15.1079 283.832 15.0493 283.585 15.0493C283.342 15.0493 283.142 15.1079 282.983 15.2251C282.828 15.3393 282.705 15.5107 282.614 15.7392C282.526 15.9619 282.466 16.2432 282.434 16.583C282.402 16.9228 282.386 17.3066 282.386 17.7344C282.386 18.1914 282.399 18.5737 282.425 18.8813C282.455 19.189 282.516 19.4643 282.61 19.7075C282.695 19.9331 282.815 20.1074 282.97 20.2305C283.128 20.3506 283.333 20.4106 283.585 20.4106C283.829 20.4106 284.028 20.3535 284.183 20.2392C284.341 20.1221 284.464 19.9492 284.552 19.7207Z" fill="#606580"/>
<path d="M256.3 30.2305H253.29V36.0005H252.419V29.457H256.3V30.2305ZM262.773 32.6607C262.773 33.0679 262.711 33.4282 262.588 33.7417C262.465 34.0523 262.294 34.3145 262.074 34.5283C261.837 34.7627 261.545 34.9443 261.2 35.0733C260.854 35.1992 260.497 35.2666 260.127 35.2754V36.0708H259.262V35.2754C258.896 35.2637 258.54 35.1978 258.194 35.0776C257.848 34.9575 257.554 34.7774 257.311 34.5371C257.091 34.3233 256.919 34.0581 256.796 33.7417C256.676 33.4253 256.616 33.065 256.616 32.6607C256.616 32.2798 256.675 31.9385 256.792 31.6367C256.909 31.332 257.073 31.0698 257.284 30.8501C257.51 30.6157 257.792 30.4312 258.132 30.2964C258.472 30.1616 258.849 30.0884 259.262 30.0767V29.3516H260.127V30.0767C260.541 30.0855 260.918 30.1587 261.261 30.2964C261.604 30.4312 261.888 30.6143 262.114 30.8457C262.325 31.0625 262.487 31.3218 262.602 31.6235C262.716 31.9253 262.773 32.271 262.773 32.6607ZM261.868 32.6255C261.868 32.3355 261.827 32.0718 261.745 31.8345C261.663 31.5943 261.541 31.3906 261.38 31.2236C261.228 31.0654 261.05 30.9483 260.848 30.8721C260.646 30.7959 260.406 30.7549 260.127 30.749V34.6162C260.391 34.6104 260.625 34.5679 260.831 34.4888C261.039 34.4067 261.21 34.2984 261.345 34.1636C261.523 33.9878 261.655 33.7739 261.74 33.522C261.825 33.27 261.868 32.9712 261.868 32.6255ZM259.262 34.6162V30.749C258.983 30.752 258.743 30.793 258.541 30.8721C258.339 30.9512 258.162 31.0684 258.009 31.2236C257.848 31.3877 257.727 31.5913 257.645 31.8345C257.562 32.0776 257.521 32.3413 257.521 32.6255C257.521 32.9712 257.564 33.2715 257.649 33.5264C257.734 33.7783 257.866 33.9907 258.044 34.1636C258.179 34.2925 258.349 34.3994 258.554 34.4844C258.762 34.5693 258.998 34.6133 259.262 34.6162ZM268.301 29.457L265.928 34.9678C265.829 35.1992 265.716 35.3853 265.59 35.5259C265.467 35.6665 265.338 35.772 265.203 35.8423C265.068 35.9155 264.935 35.9639 264.803 35.9873C264.674 36.0108 264.544 36.0225 264.412 36.0225C264.295 36.0225 264.157 36.0195 263.999 36.0137C263.841 36.0078 263.74 36.0034 263.696 36.0005V35.1875H263.757C263.801 35.1934 263.867 35.2007 263.955 35.2095C264.046 35.2153 264.16 35.2183 264.298 35.2183C264.362 35.2183 264.438 35.2153 264.526 35.2095C264.614 35.2007 264.695 35.1787 264.768 35.1436C264.853 35.1026 264.932 35.0484 265.005 34.981C265.082 34.9107 265.15 34.8008 265.212 34.6514L265.361 34.3042L263.063 29.457H264.025L265.801 33.3067L267.405 29.457H268.301Z" fill="#606580"/>
<path d="M122 107V8" stroke="#D7E2F2" stroke-width="0.5"/>
<path d="M318 107V8" stroke="#D7E2F2" stroke-width="0.5"/>
<path d="M122 8H318" stroke="#D7E2F2" stroke-width="0.5"/>
<path d="M122 107H318" stroke="#D7E2F2" stroke-width="0.5"/>
<path d="M318 42H122" stroke="#D7E2F2" stroke-width="0.5"/>
<path d="M318 72H122" stroke="#D7E2F2" stroke-width="0.5"/>
<path d="M257.051 104H255.944L253.632 101.003H253.083V104H252.213V97.4561H253.083V100.405C253.426 100.394 253.697 100.307 253.896 100.146C254.098 99.9845 254.262 99.753 254.388 99.4513C254.441 99.3194 254.488 99.1949 254.529 99.0777C254.573 98.9576 254.608 98.8565 254.634 98.7745C254.81 98.2735 255.034 97.9293 255.307 97.7418C255.579 97.5514 255.957 97.4561 256.44 97.4561H256.708V98.234H256.489C256.131 98.234 255.881 98.3043 255.737 98.4449C255.594 98.5826 255.462 98.8448 255.342 99.2315C255.222 99.6183 255.087 99.9024 254.938 100.084C254.788 100.263 254.608 100.421 254.397 100.559L257.051 104ZM262.386 104H261.516V98.2296H258.506V104H257.636V97.4561H262.386V104ZM263.01 104L265.216 97.4561H266.289L268.495 104H267.576L266.983 102.172H264.482L263.889 104H263.01ZM266.741 101.429L265.73 98.3438L264.724 101.429H266.741Z" fill="#606580"/>
<defs>
<linearGradient id="paint0_linear" x1="72.9021" y1="80.8783" x2="53.4598" y2="50.2511" gradientUnits="userSpaceOnUse">
<stop stop-color="#606580"/>
<stop offset="0.0001" stop-color="#606580" stop-opacity="0.58"/>
<stop offset="0.838" stop-color="#606580" stop-opacity="0"/>
</linearGradient>
<linearGradient id="paint1_linear" x1="72.9021" y1="80.8783" x2="53.4598" y2="50.2511" gradientUnits="userSpaceOnUse">
<stop stop-color="#606580"/>
<stop offset="0.0001" stop-color="#606580" stop-opacity="0.58"/>
<stop offset="0.838" stop-color="#606580" stop-opacity="0"/>
</linearGradient>
</defs>
</svg>
