<svg id="a206bde0-ab2b-4fd2-9255-e4a4844af971" data-name="1" xmlns="http://www.w3.org/2000/svg" xmlns:xlink="http://www.w3.org/1999/xlink" viewBox="0 0 324 118"><defs><style>.ad757082-0d4a-4e05-aedc-93611323952c,.b491d2a7-4ffa-4ced-bd3f-8c32914511d0,.fd6081a3-b36f-4350-a1d2-99d6e86fde54,.ff750bd6-04e3-4813-b010-f295426aace3{fill:none;}.a95997eb-2ccb-49e9-b66f-6c14d299db0a,.b491d2a7-4ffa-4ced-bd3f-8c32914511d0{stroke:#3fa9f5;}.a95997eb-2ccb-49e9-b66f-6c14d299db0a,.ad757082-0d4a-4e05-aedc-93611323952c,.aff32dd0-2942-4870-8ed0-b52f08554a19,.b491d2a7-4ffa-4ced-bd3f-8c32914511d0,.fd6081a3-b36f-4350-a1d2-99d6e86fde54{stroke-miterlimit:10;}.b491d2a7-4ffa-4ced-bd3f-8c32914511d0{stroke-width:0.38px;stroke-dasharray:1.52;}.a68fe89a-f03a-4605-a15f-cac46de2eda3{fill:#0d1014;}.a5ff0e1a-0ed5-454f-8b00-f92aa0763aad,.afa410bd-68ae-466b-a18c-a7769e04cb42{fill:#3fa9f5;}.a301c3b4-5db1-4618-8199-8f317f1e9bd6{fill:#60647f;}.ef853096-9a32-4da9-87c1-48f2be5d77d3{font-size:7.95px;fill:#fff;font-family:Tahoma;}.afa410bd-68ae-466b-a18c-a7769e04cb42{fill-rule:evenodd;}.a95997eb-2ccb-49e9-b66f-6c14d299db0a{fill:#1b1e27;stroke-width:0.5px;stroke-dasharray:1.52;}.ba22e5e7-d7ed-41db-b824-5cc2995125b7{clip-path:url(#bd69cf1d-7d87-44cd-b070-7053bcb3c09c);}.ae28d2dd-0f75-41e0-a5a2-c2e3b56d86b5,.ae8c0571-f61a-444e-8392-a01b32ef81c0,.f8d95806-e810-40dc-8b5d-78ed35e95229{fill:#a2e2ff;}.ae8c0571-f61a-444e-8392-a01b32ef81c0{opacity:0.1;}.ad757082-0d4a-4e05-aedc-93611323952c,.fd6081a3-b36f-4350-a1d2-99d6e86fde54{stroke:#a2e2ff;stroke-width:0.2px;}.ae28d2dd-0f75-41e0-a5a2-c2e3b56d86b5{opacity:0.15;}.ad757082-0d4a-4e05-aedc-93611323952c{opacity:0.5;}.f8d95806-e810-40dc-8b5d-78ed35e95229{opacity:0.05;}.aff32dd0-2942-4870-8ed0-b52f08554a19{fill:#1a1d26;stroke:#1a1d26;}</style><clipPath id="bd69cf1d-7d87-44cd-b070-7053bcb3c09c"><circle class="ff750bd6-04e3-4813-b010-f295426aace3" cx="163.13" cy="59" r="44.6"/></clipPath></defs><title>Prew</title><line class="b491d2a7-4ffa-4ced-bd3f-8c32914511d0" x1="147.38" y1="64.47" x2="8.52" y2="64.47"/><circle class="a68fe89a-f03a-4605-a15f-cac46de2eda3" cx="8.66" cy="64.59" r="0.52"/><path class="a5ff0e1a-0ed5-454f-8b00-f92aa0763aad" d="M8.66,64.41a.19.19,0,1,1,0,.37.18.18,0,0,1-.18-.19.18.18,0,0,1,.18-.18m0-.67a.85.85,0,0,0-.85.85.85.85,0,1,0,1.7,0,.85.85,0,0,0-.85-.85Z"/><line class="b491d2a7-4ffa-4ced-bd3f-8c32914511d0" x1="315.46" y1="64.59" x2="194.62" y2="64.59"/><circle class="a68fe89a-f03a-4605-a15f-cac46de2eda3" cx="315.34" cy="64.66" r="0.52"/><path class="a301c3b4-5db1-4618-8199-8f317f1e9bd6" d="M315.34,64.47a.18.18,0,0,1,.18.19.18.18,0,0,1-.18.18.19.19,0,1,1,0-.37m0-.67a.86.86,0,1,0,.85.86.85.85,0,0,0-.85-.86Z"/><text class="ef853096-9a32-4da9-87c1-48f2be5d77d3" transform="translate(233.18 35.09)">Температура</text><path class="a5ff0e1a-0ed5-454f-8b00-f92aa0763aad" d="M302.77,34.88a.26.26,0,0,1-.1-.23V30.94h0V27.28a1.22,1.22,0,1,0-2.44,0v7.35a.31.31,0,0,1-.1.24,1.89,1.89,0,0,0-.62,1.7,2,2,0,1,0,3.26-1.71Zm0,2a1.48,1.48,0,0,1-1.63.83A1.45,1.45,0,0,1,300,36.39a1.4,1.4,0,0,1,.57-1.23.37.37,0,0,0,.16-.33V31.05h0V27.31a.73.73,0,0,1,.78-.77.75.75,0,0,1,.69.78v7.51a.4.4,0,0,0,.16.34A1.46,1.46,0,0,1,302.79,36.93Z"/><path class="a5ff0e1a-0ed5-454f-8b00-f92aa0763aad" d="M303.66,28v.47h1.21V28Z"/><path class="a5ff0e1a-0ed5-454f-8b00-f92aa0763aad" d="M305.55,29.49h-1.89V30h1.89Z"/><path class="a5ff0e1a-0ed5-454f-8b00-f92aa0763aad" d="M304.87,31h-1.21v.47h1.21Z"/><path class="a5ff0e1a-0ed5-454f-8b00-f92aa0763aad" d="M303.67,32.89h1.88v-.47h-1.88Z"/><path class="a5ff0e1a-0ed5-454f-8b00-f92aa0763aad" d="M303.66,34.35h1.21v-.46h-1.21Z"/><path class="a5ff0e1a-0ed5-454f-8b00-f92aa0763aad" d="M301.69,35.62V29h-.49v.19q0,3.13,0,6.27a.23.23,0,0,1-.14.25.73.73,0,0,0,.59,1.32.72.72,0,0,0,.51-.82A.77.77,0,0,0,301.69,35.62Z"/><path class="a5ff0e1a-0ed5-454f-8b00-f92aa0763aad" d="M308.16,95a5.66,5.66,0,0,1-.15.59A2.08,2.08,0,0,1,306.34,97a9.12,9.12,0,0,1-1,0v-.73l.45,0a2.74,2.74,0,0,0,1-.26,1.26,1.26,0,0,0,.16-2.2,2.14,2.14,0,0,0-1.19-.39h-7.19a.37.37,0,0,1-.41-.27.36.36,0,0,1,.27-.44h7.59a2.09,2.09,0,0,1,2,1.28,3.68,3.68,0,0,1,.18.59s0,.06,0,.1Z"/><path class="a5ff0e1a-0ed5-454f-8b00-f92aa0763aad" d="M308.16,90a5.47,5.47,0,0,1-.15.58,2.13,2.13,0,0,1-1.67,1.35,3.15,3.15,0,0,1-.44,0h-6.44a.36.36,0,0,1-.31-.35.37.37,0,0,1,.31-.36h6.06a2.2,2.2,0,0,0,1.34-.4A1.33,1.33,0,0,0,307.2,89a1.51,1.51,0,0,0-.87-.54l-.33-.08v-.73c.15,0,.29,0,.43,0a2.14,2.14,0,0,1,1.68,1.67c0,.08,0,.17.05.25Z"/><path class="a5ff0e1a-0ed5-454f-8b00-f92aa0763aad" d="M303.12,97v-.71a.74.74,0,0,0,.54-.26.7.7,0,0,0,.12-.73.68.68,0,0,0-.59-.45h-2.92a.36.36,0,0,1-.39-.41.34.34,0,0,1,.29-.3h2.89a1.44,1.44,0,1,1,.06,2.88Z"/><path class="a5ff0e1a-0ed5-454f-8b00-f92aa0763aad" d="M303.48,89.78h2.13a.35.35,0,0,1,.36.48.32.32,0,0,1-.28.23h-4.28a.75.75,0,0,1-.21,0,.35.35,0,0,1-.24-.37.35.35,0,0,1,.33-.33,2.81,2.81,0,0,1,.29,0Z"/><text class="ef853096-9a32-4da9-87c1-48f2be5d77d3" transform="translate(233.54 94.91)">Ветер</text><path class="afa410bd-68ae-466b-a18c-a7769e04cb42" d="M303.12,76.2a5,5,0,0,0-4.9,6.27.39.39,0,0,0,.46.28.38.38,0,0,0,.28-.46,1.29,1.29,0,0,1,0-.19.38.38,0,0,0-.05-.75h0a.45.45,0,0,1,0-.11,4.22,4.22,0,0,1,.76-2.43.35.35,0,0,0,.22.08.38.38,0,0,0,.38-.38.37.37,0,0,0-.13-.28A4.27,4.27,0,0,1,302.74,77a.38.38,0,0,0,.75,0,4.29,4.29,0,0,1,2.69,1.27.39.39,0,0,0-.11.27.38.38,0,0,0,.38.38.35.35,0,0,0,.2-.07,4.21,4.21,0,0,1,.75,2.42v.1a.39.39,0,0,0-.38.38.38.38,0,0,0,.29.36c0,.09,0,.17-.05.26a.38.38,0,0,0,.27.46h.09a.38.38,0,0,0,.37-.28,5.13,5.13,0,0,0,.17-1.29A5,5,0,0,0,303.12,76.2Z"/><path class="afa410bd-68ae-466b-a18c-a7769e04cb42" d="M305.2,79.25l-2.07,2a.75.75,0,0,0-.56.23.73.73,0,1,0,1.26.46l1.8-2.24a.29.29,0,0,0-.43-.4Z"/><text class="ef853096-9a32-4da9-87c1-48f2be5d77d3" transform="translate(233.44 81.03)">Давление</text><path class="afa410bd-68ae-466b-a18c-a7769e04cb42" d="M298.54,48.61h3.53a.45.45,0,0,0,.46-.46.46.46,0,0,0-.46-.47h-3.53a.47.47,0,0,0-.47.47A.46.46,0,0,0,298.54,48.61Z"/><path class="afa410bd-68ae-466b-a18c-a7769e04cb42" d="M302.07,52.6h-3.53a.47.47,0,1,0,0,.93h3.53a.47.47,0,0,0,0-.93Z"/><path class="afa410bd-68ae-466b-a18c-a7769e04cb42" d="M308,50.32,304.76,47a.41.41,0,0,0-.59,0,.42.42,0,0,0,0,.59l2.52,2.52h-7a.46.46,0,0,0-.47.46.47.47,0,0,0,.47.47h7l-2.52,2.51a.44.44,0,0,0,0,.6.42.42,0,0,0,.59,0L308,50.91A.42.42,0,0,0,308,50.32Z"/><text class="ef853096-9a32-4da9-87c1-48f2be5d77d3" transform="translate(233.44 51.99)">Направление</text><path class="a95997eb-2ccb-49e9-b66f-6c14d299db0a" d="M163.13,6.11A52.89,52.89,0,1,0,216,59,52.89,52.89,0,0,0,163.13,6.11Z"/><g class="ba22e5e7-d7ed-41db-b824-5cc2995125b7"><polygon class="ae8c0571-f61a-444e-8392-a01b32ef81c0" points="15.92 85.64 15.92 -12.32 69.53 -78.14 205.74 -78.14 235.41 -20.38 235.41 8.16 290.85 8.16 290.85 32.02 216.13 116.16 82.39 116.16 82.39 85.64 15.92 85.64"/><polygon class="fd6081a3-b36f-4350-a1d2-99d6e86fde54" points="15.92 85.64 15.92 -12.32 69.53 -78.14 205.74 -78.14 235.41 -20.38 235.41 8.16 290.85 8.16 290.85 32.02 216.13 116.16 82.39 116.16 82.39 85.64 15.92 85.64"/><rect class="ae28d2dd-0f75-41e0-a5a2-c2e3b56d86b5" x="75.28" y="-17.84" width="26.22" height="18.36"/><rect class="ad757082-0d4a-4e05-aedc-93611323952c" x="75.28" y="-17.84" width="26.22" height="18.36"/><rect class="ae28d2dd-0f75-41e0-a5a2-c2e3b56d86b5" x="51.75" y="-25.38" width="21.67" height="25.89"/><rect class="ad757082-0d4a-4e05-aedc-93611323952c" x="51.75" y="-25.38" width="21.67" height="25.89"/><rect class="ae28d2dd-0f75-41e0-a5a2-c2e3b56d86b5" x="51.75" y="2.73" width="21.67" height="38.02"/><rect class="ad757082-0d4a-4e05-aedc-93611323952c" x="51.75" y="2.73" width="21.67" height="38.02"/><rect class="ae28d2dd-0f75-41e0-a5a2-c2e3b56d86b5" x="75.28" y="2.73" width="10.83" height="38.02"/><rect class="ad757082-0d4a-4e05-aedc-93611323952c" x="75.28" y="2.73" width="10.83" height="38.02"/><rect class="ae28d2dd-0f75-41e0-a5a2-c2e3b56d86b5" x="88.18" y="2.73" width="22.93" height="38.02"/><rect class="fd6081a3-b36f-4350-a1d2-99d6e86fde54" x="88.18" y="2.73" width="22.93" height="38.02"/><rect class="ae28d2dd-0f75-41e0-a5a2-c2e3b56d86b5" x="20.14" y="2.75" width="29.45" height="38"/><rect class="ad757082-0d4a-4e05-aedc-93611323952c" x="20.14" y="2.75" width="29.45" height="38"/><rect class="ae28d2dd-0f75-41e0-a5a2-c2e3b56d86b5" x="103.52" y="-17.84" width="20.58" height="18.36"/><rect class="ad757082-0d4a-4e05-aedc-93611323952c" x="103.52" y="-17.84" width="20.58" height="18.36"/><rect class="ae28d2dd-0f75-41e0-a5a2-c2e3b56d86b5" x="126.12" y="-17.84" width="35.18" height="18.36"/><rect class="ad757082-0d4a-4e05-aedc-93611323952c" x="126.12" y="-17.84" width="35.18" height="18.36"/><rect class="ae28d2dd-0f75-41e0-a5a2-c2e3b56d86b5" x="162.58" y="-17.84" width="28" height="18.36"/><rect class="ad757082-0d4a-4e05-aedc-93611323952c" x="162.58" y="-17.84" width="28" height="18.36"/><rect class="ae28d2dd-0f75-41e0-a5a2-c2e3b56d86b5" x="191.77" y="-17.84" width="38.33" height="18.36"/><rect class="ad757082-0d4a-4e05-aedc-93611323952c" x="191.77" y="-17.84" width="38.33" height="18.36"/><polygon class="f8d95806-e810-40dc-8b5d-78ed35e95229" points="262.32 56.22 234.63 88.06 231.51 88.06 231.51 42.5 262.32 42.5 262.32 56.22"/><polygon class="ad757082-0d4a-4e05-aedc-93611323952c" points="262.32 56.22 234.63 88.06 231.51 88.06 231.51 42.5 262.32 42.5 262.32 56.22"/><rect class="ae28d2dd-0f75-41e0-a5a2-c2e3b56d86b5" x="58.84" y="65.64" width="27.28" height="15.54"/><rect class="ad757082-0d4a-4e05-aedc-93611323952c" x="58.84" y="65.64" width="27.28" height="15.54"/><rect class="ae28d2dd-0f75-41e0-a5a2-c2e3b56d86b5" x="88.17" y="42.5" width="22.94" height="21.79"/><rect class="ad757082-0d4a-4e05-aedc-93611323952c" x="88.17" y="42.5" width="22.94" height="21.79"/><rect class="ae28d2dd-0f75-41e0-a5a2-c2e3b56d86b5" x="88.8" y="65.64" width="22.94" height="19.93"/><rect class="fd6081a3-b36f-4350-a1d2-99d6e86fde54" x="88.8" y="65.64" width="22.94" height="19.93"/><rect class="ae28d2dd-0f75-41e0-a5a2-c2e3b56d86b5" x="113.26" y="65.64" width="17.63" height="19.93"/><rect class="fd6081a3-b36f-4350-a1d2-99d6e86fde54" x="113.26" y="65.64" width="17.63" height="19.93"/><rect class="ae28d2dd-0f75-41e0-a5a2-c2e3b56d86b5" x="131.18" y="65.64" width="29.79" height="9.96"/><rect class="fd6081a3-b36f-4350-a1d2-99d6e86fde54" x="131.18" y="65.64" width="29.79" height="9.96"/><rect class="ae28d2dd-0f75-41e0-a5a2-c2e3b56d86b5" x="162.58" y="65.64" width="28" height="31.82"/><rect class="ad757082-0d4a-4e05-aedc-93611323952c" x="162.58" y="65.64" width="28" height="31.82"/><rect class="ae28d2dd-0f75-41e0-a5a2-c2e3b56d86b5" x="163.21" y="98.93" width="50.59" height="12.22"/><rect class="fd6081a3-b36f-4350-a1d2-99d6e86fde54" x="163.21" y="98.93" width="50.59" height="12.22"/><rect class="ae28d2dd-0f75-41e0-a5a2-c2e3b56d86b5" x="191.77" y="65.64" width="38.33" height="31.82"/><rect class="ad757082-0d4a-4e05-aedc-93611323952c" x="191.77" y="65.64" width="38.33" height="31.82"/><rect class="ae28d2dd-0f75-41e0-a5a2-c2e3b56d86b5" x="131.18" y="76.73" width="29.79" height="8.71"/><rect class="fd6081a3-b36f-4350-a1d2-99d6e86fde54" x="131.18" y="76.73" width="29.79" height="8.71"/><rect class="ae28d2dd-0f75-41e0-a5a2-c2e3b56d86b5" x="101.81" y="86.57" width="59.16" height="24.4"/><rect class="ad757082-0d4a-4e05-aedc-93611323952c" x="101.81" y="86.57" width="59.16" height="24.4"/><rect class="ae28d2dd-0f75-41e0-a5a2-c2e3b56d86b5" x="112.63" y="42.5" width="48.67" height="21.79"/><rect class="ad757082-0d4a-4e05-aedc-93611323952c" x="112.63" y="42.5" width="48.67" height="21.79"/><rect class="ae28d2dd-0f75-41e0-a5a2-c2e3b56d86b5" x="162.58" y="42.5" width="28" height="21.79"/><rect class="fd6081a3-b36f-4350-a1d2-99d6e86fde54" x="162.58" y="42.5" width="28" height="21.79"/><rect class="ae28d2dd-0f75-41e0-a5a2-c2e3b56d86b5" x="192.4" y="42.5" width="38.33" height="21.79"/><rect class="fd6081a3-b36f-4350-a1d2-99d6e86fde54" x="192.4" y="42.5" width="38.33" height="21.79"/><rect class="ae28d2dd-0f75-41e0-a5a2-c2e3b56d86b5" x="112.63" y="8.05" width="11.47" height="32.7"/><rect class="ad757082-0d4a-4e05-aedc-93611323952c" x="112.63" y="8.05" width="11.47" height="32.7"/><rect class="ae28d2dd-0f75-41e0-a5a2-c2e3b56d86b5" x="126.17" y="8.05" width="35.13" height="32.7"/><rect class="fd6081a3-b36f-4350-a1d2-99d6e86fde54" x="126.17" y="8.05" width="35.13" height="32.7"/><rect class="ae28d2dd-0f75-41e0-a5a2-c2e3b56d86b5" x="162.58" y="8.05" width="28" height="32.7"/><rect class="ad757082-0d4a-4e05-aedc-93611323952c" x="162.58" y="8.05" width="28" height="32.7"/><rect class="ae28d2dd-0f75-41e0-a5a2-c2e3b56d86b5" x="191.77" y="8.05" width="38.33" height="17.81"/><rect class="ad757082-0d4a-4e05-aedc-93611323952c" x="191.77" y="8.05" width="38.33" height="17.81"/><rect class="ae28d2dd-0f75-41e0-a5a2-c2e3b56d86b5" x="191.77" y="27.65" width="38.33" height="13.1"/><rect class="ad757082-0d4a-4e05-aedc-93611323952c" x="191.77" y="27.65" width="38.33" height="13.1"/><rect class="ae28d2dd-0f75-41e0-a5a2-c2e3b56d86b5" x="231.51" y="27.65" width="30.81" height="13.1"/><rect class="ad757082-0d4a-4e05-aedc-93611323952c" x="231.51" y="27.65" width="30.81" height="13.1"/><rect class="ae28d2dd-0f75-41e0-a5a2-c2e3b56d86b5" x="20.02" y="42.5" width="29.57" height="38.67"/><rect class="ad757082-0d4a-4e05-aedc-93611323952c" x="20.02" y="42.5" width="29.57" height="38.67"/><polygon class="ae28d2dd-0f75-41e0-a5a2-c2e3b56d86b5" points="57.78 81.17 51.75 81.17 51.75 42.5 86.12 42.5 86.12 64.38 57.78 64.38 57.78 81.17"/><polygon class="ad757082-0d4a-4e05-aedc-93611323952c" points="57.78 81.17 51.75 81.17 51.75 42.5 86.12 42.5 86.12 64.38 57.78 64.38 57.78 81.17"/><polygon class="ae28d2dd-0f75-41e0-a5a2-c2e3b56d86b5" points="49.59 -25.38 33.62 -25.38 20.02 -9.52 20.02 1.15 49.59 1.15 49.59 -25.38"/><polygon class="ad757082-0d4a-4e05-aedc-93611323952c" points="49.59 -25.38 33.62 -25.38 20.02 -9.52 20.02 1.15 49.59 1.15 49.59 -25.38"/><polygon class="ae28d2dd-0f75-41e0-a5a2-c2e3b56d86b5" points="286.01 30.71 267.23 51.51 265.11 51.51 265.11 21.54 286.01 21.54 286.01 30.71"/><polygon class="ad757082-0d4a-4e05-aedc-93611323952c" points="286.01 30.71 267.23 51.51 265.11 51.51 265.11 21.54 286.01 21.54 286.01 30.71"/></g><circle class="a68fe89a-f03a-4605-a15f-cac46de2eda3" cx="110.46" cy="64.59" r="1.17"/><path class="a5ff0e1a-0ed5-454f-8b00-f92aa0763aad" d="M110.46,63.76a.83.83,0,0,1,.83.83.83.83,0,1,1-1.66,0,.83.83,0,0,1,.83-.83m0-.67a1.5,1.5,0,1,0,1.5,1.5,1.5,1.5,0,0,0-1.5-1.5Z"/><circle class="a68fe89a-f03a-4605-a15f-cac46de2eda3" cx="216.26" cy="64.59" r="1.17"/><path class="a5ff0e1a-0ed5-454f-8b00-f92aa0763aad" d="M216.26,63.76a.84.84,0,0,1,.84.83.85.85,0,0,1-.84.84.84.84,0,0,1-.83-.84.83.83,0,0,1,.83-.83m0-.67a1.5,1.5,0,1,0,1.5,1.5,1.5,1.5,0,0,0-1.5-1.5Z"/><circle class="aff32dd0-2942-4870-8ed0-b52f08554a19" cx="163.13" cy="59" r="15.14"/><path class="a5ff0e1a-0ed5-454f-8b00-f92aa0763aad" d="M170.19,65c-.13,0-.27,0-.41,0,0-.28,0-.52,0-.77a1.72,1.72,0,0,0,0-.46c-.46-1.5-.91-3-1.38-4.48A5.91,5.91,0,0,1,168,57c0-.31-.1-.41-.4-.41h-3.12c-.33,0-.44.1-.44.43v.71c-.38,0-.48.12-.5.31s.06.28.38.39c-.18.59-.36,1.19-.55,1.78a.15.15,0,0,1-.06-.1l0-1.08c0-.32-.1-.43-.42-.43h-2.3a.33.33,0,0,0-.37.37c0,.1,0,.21,0,.31a3.32,3.32,0,0,1-.17,1.21c-.18.51-.33,1-.49,1.55h0a.66.66,0,0,1,0-.14v-.41c0-.31-.1-.41-.41-.41H157.7c-.31,0-.42.1-.41.42a2.74,2.74,0,0,1-.13.94c-.19.58-.37,1.17-.55,1.76-.06.23-.1.47-.14.71s0,.12-.13.12a4.34,4.34,0,0,0-.51,0,.29.29,0,0,0-.27.29.31.31,0,0,0,.23.33l.19,0h14.21c.23,0,.37-.13.37-.33S170.43,65,170.19,65ZM159,63.46a1.35,1.35,0,0,1-.11.34,2.2,2.2,0,0,0-.13,1c0,.13,0,.18-.16.17s-.45,0-.67,0h-.69c-.09,0-.14,0-.12-.13a2,2,0,0,1,0-.24c.23-.76.47-1.51.7-2.27a2,2,0,0,0,.08-.48c0-.09,0-.14.14-.14h.56a.14.14,0,0,1,.11.09c.09.46.18.92.26,1.38A.93.93,0,0,1,159,63.46Zm3.28,0a.16.16,0,0,1-.18.13c-.32,0-.46.12-.47.33s.14.32.46.34l.06,0v.57c0,.12-.09.1-.16.1h-2.24c-.31,0-.29,0-.31-.3a2.74,2.74,0,0,1,.24-1.07c.34-1.15.71-2.28,1-3.43a2.69,2.69,0,0,0,.06-.75c0-.15,0-.2.19-.2h1.43c.08,0,.16,0,.16.11a9.09,9.09,0,0,0,.27,2.14.59.59,0,0,1,0,.23ZM168.85,65H163c-.21,0-.21,0-.21-.2v-.49H167c.21,0,.34-.07.39-.22a.33.33,0,0,0-.34-.43h-4l0-.16q.76-2.48,1.52-5a.17.17,0,0,1,.2-.14h1.34c.24,0,.39-.12.38-.33s-.14-.32-.39-.32h-1.39v-.5h2.64c0,.14,0,.28,0,.41a2.4,2.4,0,0,0,.12.88c.56,1.79,1.12,3.58,1.66,5.38a3.2,3.2,0,0,1,0,.82C169.13,65,169.15,65,168.85,65Z"/><path class="a5ff0e1a-0ed5-454f-8b00-f92aa0763aad" d="M159,55.43a2.51,2.51,0,0,0,2.62-.9l.1-.14a2.16,2.16,0,0,0,2.27.29l.1.21a2.13,2.13,0,0,0,2.37,1.16,2.09,2.09,0,0,0,1.66-2A2.06,2.06,0,0,0,166.71,52a.23.23,0,0,1-.17-.2,2.12,2.12,0,0,0-3-1.4.21.21,0,0,1-.3,0,2.1,2.1,0,0,0-3,0,.47.47,0,0,1-.41.16,2.5,2.5,0,0,0-.82,4.92Zm.65-4.28a1.83,1.83,0,0,1,1.53.84.47.47,0,0,0,.22.2.29.29,0,0,0,.36-.1.3.3,0,0,0,0-.39,2.42,2.42,0,0,0-.88-.86l-.12-.08a1.41,1.41,0,0,1,2.1.17,2.18,2.18,0,0,0-.45,1,2.58,2.58,0,0,0,0,.48.33.33,0,0,0,.35.37c.19,0,.31-.16.31-.39a1.47,1.47,0,0,1,1.37-1.53,1.44,1.44,0,0,1,1.47,1l-.34.06a2,2,0,0,0-.86.4.35.35,0,0,0-.06.54c.14.16.34.14.52,0a1.23,1.23,0,0,1,.92-.29,1.44,1.44,0,0,1,1.39,1.32,1.46,1.46,0,0,1-2.8.71,1.51,1.51,0,0,1-.11-.43c0-.21-.09-.32-.26-.37s-.23,0-.39.18a1.16,1.16,0,0,1-.56.26,1.39,1.39,0,0,1-1.47-.61,1.3,1.3,0,0,0-.1-.15.32.32,0,0,0-.42-.09.3.3,0,0,0-.14.41.23.23,0,0,1,0,.25,1.85,1.85,0,0,1-3.41-1.12A1.84,1.84,0,0,1,159.61,51.15Z"/><path class="a5ff0e1a-0ed5-454f-8b00-f92aa0763aad" d="M166.05,60.28a1.17,1.17,0,1,0,0,2.33,1.17,1.17,0,1,0,0-2.33ZM166,62a.5.5,0,0,1-.5-.52.51.51,0,1,1,.5.52Z"/><path class="a5ff0e1a-0ed5-454f-8b00-f92aa0763aad" d="M159.6,54.48c.27,0,.42-.11.43-.32s-.13-.33-.42-.34a.87.87,0,0,1-.83-.77.33.33,0,0,0-.37-.31.35.35,0,0,0-.28.4A1.52,1.52,0,0,0,159.6,54.48Z"/><text class="ef853096-9a32-4da9-87c1-48f2be5d77d3" transform="translate(18.15 37.53)">Допустимые <tspan x="0" y="9.54">значения</tspan><tspan x="0" y="47.7">Критические </tspan><tspan x="0" y="57.23">показатели</tspan></text></svg>