<svg width="324" height="118" viewBox="0 0 324 118" fill="none" xmlns="http://www.w3.org/2000/svg">
<path d="M110 65L8.52002 64.4702" stroke="#0089FF" stroke-width="0.38" stroke-miterlimit="10" stroke-dasharray="1.52 1.52"/>
<path d="M8.66 65.1101C8.94719 65.1101 9.18 64.8773 9.18 64.5901C9.18 64.3029 8.94719 64.0701 8.66 64.0701C8.37281 64.0701 8.14 64.3029 8.14 64.5901C8.14 64.8773 8.37281 65.1101 8.66 65.1101Z" fill="#F5F8FD"/>
<path d="M8.66 64.41C8.68788 64.4035 8.71687 64.4033 8.74481 64.4096C8.77276 64.4158 8.79892 64.4283 8.82136 64.4461C8.84379 64.4639 8.86191 64.4865 8.87437 64.5123C8.88683 64.5381 8.8933 64.5664 8.8933 64.595C8.8933 64.6236 8.88683 64.6519 8.87437 64.6777C8.86191 64.7034 8.84379 64.7261 8.82136 64.7439C8.79892 64.7617 8.77276 64.7741 8.74481 64.7804C8.71687 64.7867 8.68788 64.7865 8.66 64.78C8.6355 64.78 8.61124 64.7751 8.58873 64.7654C8.56621 64.7557 8.5459 64.7416 8.52905 64.7238C8.5122 64.706 8.49916 64.685 8.49072 64.6619C8.48229 64.6389 8.47864 64.6145 8.48 64.59C8.48 64.5422 8.49897 64.4965 8.53272 64.4627C8.56648 64.429 8.61226 64.41 8.66 64.41ZM8.66 63.74C8.43457 63.74 8.21837 63.8295 8.05896 63.9889C7.89955 64.1484 7.81 64.3646 7.81 64.59C7.81 64.7016 7.83199 64.8121 7.8747 64.9153C7.91742 65.0184 7.98003 65.1121 8.05896 65.191C8.13789 65.27 8.23159 65.3326 8.33472 65.3753C8.43785 65.418 8.54838 65.44 8.66 65.44C8.77162 65.44 8.88216 65.418 8.98528 65.3753C9.08841 65.3326 9.18211 65.27 9.26104 65.191C9.33997 65.1121 9.40258 65.0184 9.4453 64.9153C9.48802 64.8121 9.51 64.7016 9.51 64.59C9.51 64.4784 9.48802 64.3678 9.4453 64.2647C9.40258 64.1616 9.33997 64.0679 9.26104 63.9889C9.18211 63.91 9.08841 63.8474 8.98528 63.8047C8.88216 63.762 8.77162 63.74 8.66 63.74Z" fill="#0089FF"/>
<path d="M315 65L216 65" stroke="#0089FF" stroke-width="0.38" stroke-miterlimit="10" stroke-dasharray="1.52 1.52"/>
<path d="M315.34 65.1799C315.627 65.1799 315.86 64.9471 315.86 64.6599C315.86 64.3727 315.627 64.1399 315.34 64.1399C315.053 64.1399 314.82 64.3727 314.82 64.6599C314.82 64.9471 315.053 65.1799 315.34 65.1799Z" fill="#F5F8FD"/>
<path d="M315.34 64.4701C315.365 64.4701 315.389 64.475 315.411 64.4847C315.434 64.4944 315.454 64.5085 315.471 64.5263C315.488 64.5441 315.501 64.5651 315.509 64.5882C315.518 64.6112 315.521 64.6356 315.52 64.6601C315.52 64.7079 315.501 64.7536 315.467 64.7874C315.434 64.8211 315.388 64.8401 315.34 64.8401C315.312 64.8466 315.283 64.8468 315.255 64.8405C315.227 64.8343 315.201 64.8218 315.179 64.804C315.156 64.7862 315.138 64.7636 315.126 64.7378C315.113 64.712 315.107 64.6837 315.107 64.6551C315.107 64.6265 315.113 64.5982 315.126 64.5724C315.138 64.5467 315.156 64.524 315.179 64.5062C315.201 64.4884 315.227 64.476 315.255 64.4697C315.283 64.4634 315.312 64.4636 315.34 64.4701ZM315.34 63.8001C315.169 63.7981 315.002 63.8469 314.86 63.9402C314.717 64.0334 314.605 64.1671 314.538 64.324C314.472 64.481 314.453 64.6542 314.485 64.8217C314.517 64.9891 314.598 65.1433 314.718 65.2646C314.838 65.3859 314.991 65.4688 315.159 65.5028C315.326 65.5368 315.499 65.5203 315.657 65.4556C315.815 65.3908 315.949 65.2806 316.044 65.1389C316.139 64.9973 316.19 64.8306 316.19 64.6601C316.191 64.5476 316.17 64.436 316.128 64.3318C316.086 64.2275 316.024 64.1326 315.945 64.0526C315.866 63.9726 315.771 63.9091 315.668 63.8658C315.564 63.8224 315.452 63.8001 315.34 63.8001Z" fill="#8C99B2"/>
<path d="M235.117 35.1399V30.043H233.176V29.3598H237.827V30.043H235.886V35.1399H235.117ZM240.233 35.2408C239.542 35.2408 239.005 35.0467 238.622 34.6585C238.242 34.2678 238.052 33.714 238.052 32.9971C238.052 32.2906 238.237 31.7291 238.607 31.3124C238.977 30.8932 239.461 30.6835 240.059 30.6835C240.328 30.6835 240.566 30.7224 240.773 30.8C240.98 30.8776 241.161 30.9993 241.316 31.1649C241.472 31.3305 241.591 31.5337 241.673 31.7743C241.756 32.0124 241.798 32.3049 241.798 32.6516V33.0476H238.793C238.793 33.5522 238.92 33.9378 239.174 34.2044C239.427 34.4709 239.778 34.6042 240.226 34.6042C240.386 34.6042 240.543 34.5861 240.695 34.5499C240.851 34.5136 240.99 34.467 241.114 34.4101C241.246 34.3506 241.358 34.2937 241.448 34.2393C241.539 34.1824 241.614 34.1293 241.673 34.0802H241.716V34.8759C241.631 34.9096 241.525 34.9523 241.398 35.004C241.271 35.0532 241.157 35.092 241.056 35.1205C240.914 35.1593 240.785 35.1891 240.668 35.2098C240.554 35.2305 240.409 35.2408 240.233 35.2408ZM241.087 32.4886C241.082 32.2919 241.059 32.1224 241.017 31.9801C240.976 31.8377 240.916 31.7174 240.839 31.6191C240.753 31.5104 240.643 31.4276 240.509 31.3706C240.377 31.3137 240.213 31.2852 240.016 31.2852C239.822 31.2852 239.656 31.315 239.519 31.3745C239.384 31.4314 239.262 31.5156 239.15 31.6268C239.042 31.7407 238.959 31.8675 238.902 32.0073C238.845 32.1444 238.809 32.3049 238.793 32.4886H241.087ZM246.557 35.1399H245.835V31.7316L244.794 33.9443H244.251L243.218 31.7316V35.1399H242.535V30.8039H243.416L244.558 33.2106L245.66 30.8039H246.557V35.1399ZM251.036 35.1399H250.307V31.4327H248.342V35.1399H247.613V30.8039H251.036V35.1399ZM253.975 35.2408C253.284 35.2408 252.747 35.0467 252.364 34.6585C251.984 34.2678 251.793 33.714 251.793 32.9971C251.793 32.2906 251.978 31.7291 252.348 31.3124C252.719 30.8932 253.203 30.6835 253.8 30.6835C254.069 30.6835 254.308 30.7224 254.515 30.8C254.722 30.8776 254.903 30.9993 255.058 31.1649C255.213 31.3305 255.332 31.5337 255.415 31.7743C255.498 32.0124 255.539 32.3049 255.539 32.6516V33.0476H252.535C252.535 33.5522 252.662 33.9378 252.915 34.2044C253.169 34.4709 253.52 34.6042 253.967 34.6042C254.128 34.6042 254.284 34.5861 254.437 34.5499C254.592 34.5136 254.732 34.467 254.856 34.4101C254.988 34.3506 255.099 34.2937 255.19 34.2393C255.281 34.1824 255.356 34.1293 255.415 34.0802H255.458V34.8759C255.372 34.9096 255.266 34.9523 255.14 35.004C255.013 35.0532 254.899 35.092 254.798 35.1205C254.656 35.1593 254.526 35.1891 254.41 35.2098C254.296 35.2305 254.151 35.2408 253.975 35.2408ZM254.829 32.4886C254.824 32.2919 254.801 32.1224 254.759 31.9801C254.718 31.8377 254.658 31.7174 254.581 31.6191C254.495 31.5104 254.385 31.4276 254.251 31.3706C254.119 31.3137 253.954 31.2852 253.758 31.2852C253.564 31.2852 253.398 31.315 253.261 31.3745C253.126 31.4314 253.003 31.5156 252.892 31.6268C252.783 31.7407 252.7 31.8675 252.644 32.0073C252.587 32.1444 252.55 32.3049 252.535 32.4886H254.829ZM259.914 32.8574C259.914 33.5794 259.741 34.1552 259.394 34.5848C259.05 35.0118 258.614 35.2253 258.086 35.2253C257.871 35.2253 257.681 35.2007 257.515 35.1515C257.35 35.1024 257.18 35.026 257.007 34.9225V36.7392H256.277V30.8039H257.007V31.2581C257.188 31.095 257.388 30.9592 257.608 30.8505C257.831 30.7392 258.073 30.6835 258.334 30.6835C258.831 30.6835 259.218 30.8802 259.495 31.2736C259.774 31.6669 259.914 32.1949 259.914 32.8574ZM259.161 32.9389C259.161 32.4446 259.082 32.0616 258.924 31.7899C258.766 31.5156 258.51 31.3784 258.156 31.3784C257.949 31.3784 257.748 31.425 257.554 31.5181C257.363 31.6087 257.18 31.7265 257.007 31.8714V34.3286C257.198 34.4218 257.361 34.4852 257.496 34.5188C257.633 34.5524 257.79 34.5693 257.966 34.5693C258.343 34.5693 258.637 34.4308 258.847 34.1539C259.056 33.877 259.161 33.472 259.161 32.9389ZM263.093 34.0724V32.869C262.92 32.8845 262.7 32.9065 262.434 32.935C262.17 32.9609 261.956 32.9984 261.793 33.0476C261.599 33.1071 261.438 33.199 261.312 33.3232C261.185 33.4448 261.121 33.6156 261.121 33.8356C261.121 34.084 261.191 34.2717 261.331 34.3985C261.471 34.5253 261.675 34.5887 261.944 34.5887C262.175 34.5887 262.383 34.5395 262.569 34.4412C262.756 34.3402 262.93 34.2173 263.093 34.0724ZM263.093 34.678C263.034 34.7219 262.954 34.7841 262.853 34.8643C262.754 34.9419 262.659 35.004 262.565 35.0506C262.436 35.1179 262.311 35.1697 262.189 35.2059C262.07 35.2421 261.902 35.2602 261.684 35.2602C261.506 35.2602 261.336 35.2266 261.176 35.1593C261.015 35.092 260.874 34.9976 260.753 34.8759C260.636 34.7569 260.543 34.6107 260.473 34.4373C260.403 34.2613 260.368 34.0763 260.368 33.8822C260.368 33.582 260.432 33.3271 260.559 33.1175C260.685 32.9052 260.886 32.737 261.16 32.6128C261.404 32.5015 261.691 32.4252 262.022 32.3838C262.353 32.3398 262.71 32.3074 263.093 32.2867V32.147C263.093 31.9762 263.068 31.839 263.016 31.7355C262.964 31.6294 262.892 31.5479 262.798 31.491C262.705 31.4314 262.591 31.3926 262.457 31.3745C262.322 31.3538 262.184 31.3435 262.041 31.3435C261.873 31.3435 261.675 31.3693 261.448 31.4211C261.22 31.4703 260.992 31.5427 260.764 31.6385H260.722V30.897C260.856 30.8582 261.049 30.8155 261.3 30.7689C261.551 30.7224 261.799 30.6991 262.045 30.6991C262.343 30.6991 262.594 30.7224 262.798 30.7689C263.003 30.8155 263.187 30.8996 263.35 31.0213C263.507 31.1403 263.625 31.2943 263.703 31.4832C263.781 31.6721 263.819 31.9024 263.819 32.1742V35.1399H263.093V34.678ZM268.016 31.4444H266.54V35.1399H265.811V31.4444H264.336V30.8039H268.016V31.4444ZM271.967 30.8039L269.634 36.7392H268.854L269.63 34.9303L268.054 30.8039H268.842L270.026 34.0142L271.206 30.8039H271.967ZM276.156 32.8574C276.156 33.5794 275.982 34.1552 275.636 34.5848C275.291 35.0118 274.855 35.2253 274.327 35.2253C274.113 35.2253 273.922 35.2007 273.757 35.1515C273.591 35.1024 273.422 35.026 273.248 34.9225V36.7392H272.519V30.8039H273.248V31.2581C273.429 31.095 273.63 30.9592 273.85 30.8505C274.073 30.7392 274.315 30.6835 274.576 30.6835C275.073 30.6835 275.46 30.8802 275.737 31.2736C276.016 31.6669 276.156 32.1949 276.156 32.8574ZM275.403 32.9389C275.403 32.4446 275.324 32.0616 275.166 31.7899C275.008 31.5156 274.752 31.3784 274.397 31.3784C274.19 31.3784 273.99 31.425 273.796 31.5181C273.604 31.6087 273.422 31.7265 273.248 31.8714V34.3286C273.44 34.4218 273.603 34.4852 273.737 34.5188C273.875 34.5524 274.031 34.5693 274.207 34.5693C274.585 34.5693 274.879 34.4308 275.088 34.1539C275.298 33.877 275.403 33.472 275.403 32.9389ZM279.335 34.0724V32.869C279.162 32.8845 278.942 32.9065 278.675 32.935C278.411 32.9609 278.198 32.9984 278.035 33.0476C277.841 33.1071 277.68 33.199 277.553 33.3232C277.426 33.4448 277.363 33.6156 277.363 33.8356C277.363 34.084 277.433 34.2717 277.573 34.3985C277.712 34.5253 277.917 34.5887 278.186 34.5887C278.416 34.5887 278.625 34.5395 278.811 34.4412C278.997 34.3402 279.172 34.2173 279.335 34.0724ZM279.335 34.678C279.276 34.7219 279.195 34.7841 279.094 34.8643C278.996 34.9419 278.9 35.004 278.807 35.0506C278.678 35.1179 278.552 35.1697 278.431 35.2059C278.312 35.2421 278.143 35.2602 277.926 35.2602C277.747 35.2602 277.578 35.2266 277.417 35.1593C277.257 35.092 277.116 34.9976 276.994 34.8759C276.878 34.7569 276.785 34.6107 276.715 34.4373C276.645 34.2613 276.61 34.0763 276.61 33.8822C276.61 33.582 276.673 33.3271 276.8 33.1175C276.927 32.9052 277.128 32.737 277.402 32.6128C277.645 32.5015 277.932 32.4252 278.264 32.3838C278.595 32.3398 278.952 32.3074 279.335 32.2867V32.147C279.335 31.9762 279.309 31.839 279.257 31.7355C279.206 31.6294 279.133 31.5479 279.04 31.491C278.947 31.4314 278.833 31.3926 278.698 31.3745C278.564 31.3538 278.425 31.3435 278.283 31.3435C278.115 31.3435 277.917 31.3693 277.689 31.4211C277.461 31.4703 277.234 31.5427 277.006 31.6385H276.963V30.897C277.098 30.8582 277.291 30.8155 277.542 30.7689C277.793 30.7224 278.041 30.6991 278.287 30.6991C278.585 30.6991 278.836 30.7224 279.04 30.7689C279.244 30.8155 279.428 30.8996 279.591 31.0213C279.749 31.1403 279.867 31.2943 279.944 31.4832C280.022 31.6721 280.061 31.9024 280.061 32.1742V35.1399H279.335V34.678Z" fill="#303549"/>
<path d="M302.77 34.8801C302.735 34.8533 302.708 34.8181 302.69 34.7779C302.673 34.7377 302.666 34.6937 302.67 34.6501V30.9401V27.2801C302.67 26.9565 302.541 26.6462 302.313 26.4174C302.084 26.1886 301.774 26.0601 301.45 26.0601C301.126 26.0601 300.816 26.1886 300.587 26.4174C300.359 26.6462 300.23 26.9565 300.23 27.2801V34.6301C300.232 34.6749 300.224 34.7196 300.206 34.761C300.189 34.8025 300.163 34.8397 300.13 34.8701C299.893 35.079 299.712 35.344 299.603 35.641C299.495 35.938 299.463 36.2575 299.51 36.5701C299.537 36.8994 299.645 37.217 299.824 37.4945C300.004 37.7719 300.249 38.0005 300.539 38.1599C300.828 38.3193 301.153 38.4044 301.483 38.4078C301.814 38.4111 302.14 38.3325 302.432 38.179C302.725 38.0255 302.975 37.8019 303.16 37.5281C303.345 37.2544 303.46 36.939 303.493 36.6103C303.527 36.2815 303.478 35.9496 303.352 35.6441C303.226 35.3387 303.026 35.0693 302.77 34.8601V34.8801ZM302.77 36.8801C302.631 37.1811 302.394 37.4265 302.099 37.577C301.803 37.7275 301.465 37.7744 301.14 37.7101C300.833 37.6435 300.555 37.4787 300.349 37.2406C300.144 37.0025 300.021 36.704 300 36.3901C299.983 36.1535 300.026 35.9166 300.126 35.7015C300.226 35.4863 300.379 35.3 300.57 35.1601C300.623 35.1237 300.666 35.0741 300.694 35.0163C300.722 34.9584 300.734 34.8942 300.73 34.8301V31.0501V27.3101C300.724 27.2065 300.74 27.1029 300.777 27.0061C300.815 26.9093 300.872 26.8216 300.946 26.7488C301.02 26.6759 301.108 26.6196 301.205 26.5836C301.303 26.5476 301.407 26.5328 301.51 26.5401C301.704 26.5554 301.884 26.6453 302.012 26.7908C302.141 26.9363 302.208 27.126 302.2 27.3201V34.8301C302.197 34.8955 302.21 34.9607 302.238 35.02C302.265 35.0793 302.307 35.1308 302.36 35.1701C302.619 35.3721 302.803 35.6559 302.881 35.9753C302.959 36.2947 302.927 36.6311 302.79 36.9301L302.77 36.8801Z" fill="#0089FF"/>
<path d="M303.66 28V28.47H304.87V28H303.66Z" fill="#0089FF"/>
<path d="M305.55 29.49H303.66V30H305.55V29.49Z" fill="#0089FF"/>
<path d="M304.87 31H303.66V31.47H304.87V31Z" fill="#0089FF"/>
<path d="M303.67 32.8899H305.55V32.4199H303.67V32.8899Z" fill="#0089FF"/>
<path d="M303.66 34.3499H304.87V33.8899H303.66V34.3499Z" fill="#0089FF"/>
<path d="M301.69 35.62V29H301.2V29.19C301.2 31.2767 301.2 33.3667 301.2 35.46C301.208 35.5114 301.199 35.5641 301.174 35.6095C301.148 35.6549 301.108 35.6903 301.06 35.71C300.911 35.8035 300.8 35.9477 300.749 36.1161C300.698 36.2845 300.709 36.4658 300.781 36.6265C300.853 36.7872 300.98 36.9166 301.14 36.9907C301.3 37.0649 301.481 37.0788 301.65 37.03C301.821 36.9808 301.969 36.8697 302.063 36.7182C302.157 36.5667 302.192 36.3856 302.16 36.21C302.139 36.0796 302.085 35.9568 302.002 35.8535C301.92 35.7502 301.812 35.6698 301.69 35.62Z" fill="#0089FF"/>
<path d="M308.16 95C308.121 95.1992 308.071 95.3962 308.01 95.59C307.89 95.9568 307.67 96.283 307.375 96.532C307.08 96.7811 306.722 96.9431 306.34 97C306.007 97.0183 305.673 97.0183 305.34 97V96.27H305.79C306.137 96.2475 306.476 96.1593 306.79 96.01C306.995 95.9157 307.17 95.7683 307.298 95.5831C307.426 95.398 307.503 95.1818 307.519 94.9572C307.535 94.7326 307.491 94.5077 307.391 94.3059C307.291 94.1042 307.139 93.9329 306.95 93.81C306.601 93.5643 306.187 93.4284 305.76 93.42H298.57C298.48 93.4329 298.389 93.4126 298.314 93.3628C298.238 93.3131 298.184 93.2374 298.16 93.15C298.148 93.1034 298.146 93.0548 298.153 93.0072C298.16 92.9597 298.177 92.914 298.202 92.873C298.227 92.832 298.26 92.7964 298.3 92.7684C298.339 92.7404 298.383 92.7206 298.43 92.71H306.02C306.444 92.6952 306.862 92.8098 307.219 93.0384C307.577 93.267 307.856 93.5989 308.02 93.99C308.096 94.1813 308.157 94.3787 308.2 94.58C308.2 94.58 308.2 94.64 308.2 94.68L308.16 95Z" fill="#0089FF"/>
<path d="M308.16 89.9999C308.121 90.1958 308.071 90.3895 308.01 90.5799C307.876 90.9327 307.651 91.2436 307.358 91.4808C307.064 91.718 306.713 91.873 306.34 91.9299C306.194 91.9402 306.046 91.9402 305.9 91.9299H299.46C299.375 91.918 299.297 91.8762 299.24 91.8121C299.184 91.7479 299.152 91.6656 299.15 91.5799C299.151 91.4931 299.183 91.4094 299.24 91.3436C299.296 91.2778 299.374 91.234 299.46 91.2199H305.52C305.998 91.2359 306.469 91.0954 306.86 90.8199C307.142 90.6202 307.335 90.3185 307.399 89.9788C307.462 89.6391 307.391 89.288 307.2 88.9999C306.982 88.7241 306.674 88.5331 306.33 88.4599L306 88.3799V87.6499C306.15 87.6499 306.29 87.6499 306.43 87.6499C306.843 87.7319 307.223 87.9342 307.522 88.2313C307.821 88.5283 308.025 88.9071 308.11 89.3199C308.11 89.3999 308.11 89.4899 308.16 89.5699V89.9999Z" fill="#0089FF"/>
<path d="M303.12 97V96.29C303.223 96.2867 303.325 96.2619 303.418 96.2171C303.511 96.1723 303.593 96.1086 303.66 96.03C303.746 95.9316 303.803 95.8111 303.824 95.6821C303.846 95.5531 303.83 95.4207 303.78 95.3C303.736 95.1759 303.657 95.0673 303.552 94.9874C303.447 94.9075 303.321 94.8598 303.19 94.85H300.27C300.216 94.8551 300.161 94.8478 300.11 94.8287C300.059 94.8096 300.013 94.7791 299.975 94.7397C299.938 94.7002 299.91 94.6527 299.893 94.6008C299.877 94.5489 299.872 94.4939 299.88 94.44C299.888 94.3648 299.921 94.2946 299.974 94.2402C300.026 94.1859 300.095 94.1506 300.17 94.14H303.06C303.442 94.132 303.811 94.2761 304.087 94.5405C304.363 94.8049 304.522 95.1681 304.53 95.55C304.538 95.9319 304.394 96.3013 304.129 96.577C303.865 96.8527 303.502 97.012 303.12 97.02V97Z" fill="#0089FF"/>
<path d="M303.48 89.7799H305.61C305.67 89.7737 305.731 89.7832 305.786 89.8074C305.841 89.8316 305.89 89.8698 305.926 89.9181C305.962 89.9664 305.985 90.0233 305.993 90.0832C306.001 90.1431 305.993 90.204 305.97 90.2599C305.952 90.3221 305.916 90.3773 305.866 90.4184C305.816 90.4594 305.754 90.4844 305.69 90.4899H301.41C301.34 90.4998 301.27 90.4998 301.2 90.4899C301.124 90.4651 301.058 90.4148 301.014 90.3475C300.971 90.2801 300.951 90.1998 300.96 90.1199C300.965 90.0339 301.001 89.9528 301.062 89.8919C301.123 89.831 301.204 89.7947 301.29 89.7899C301.387 89.7849 301.483 89.7849 301.58 89.7899L303.48 89.7799Z" fill="#0089FF"/>
<path d="M238.047 93.186C238.047 93.4732 237.992 93.7268 237.884 93.9468C237.775 94.1668 237.629 94.3479 237.445 94.4903C237.228 94.6611 236.995 94.7827 236.746 94.8552C236.498 94.925 236.177 94.96 235.784 94.96H234.126V89.1799H235.659C236.071 89.1799 236.379 89.1941 236.583 89.2226C236.79 89.2485 236.988 89.3119 237.177 89.4128C237.384 89.5241 237.536 89.6703 237.631 89.8515C237.727 90.03 237.775 90.2409 237.775 90.4842C237.775 90.7559 237.703 90.9992 237.558 91.214C237.415 91.4288 237.217 91.597 236.964 91.7186V91.7497C237.308 91.8428 237.575 92.0136 237.763 92.2621C237.952 92.5079 238.047 92.8159 238.047 93.186ZM236.975 90.5929C236.975 90.4531 236.952 90.3328 236.906 90.2319C236.859 90.1284 236.784 90.0469 236.68 89.9873C236.556 89.9175 236.418 89.8748 236.265 89.8592C236.112 89.8437 235.901 89.8359 235.632 89.8359H234.895V91.5284H235.768C236.009 91.5284 236.186 91.5168 236.3 91.4935C236.414 91.4676 236.532 91.4158 236.653 91.3382C236.77 91.2632 236.852 91.1648 236.902 91.0432C236.951 90.9216 236.975 90.7715 236.975 90.5929ZM237.247 93.217C237.247 92.9996 237.216 92.8211 237.154 92.6813C237.092 92.539 236.966 92.4187 236.777 92.3203C236.656 92.2556 236.523 92.2142 236.378 92.1961C236.235 92.178 236.032 92.1689 235.768 92.1689H234.895V94.3039H235.52C235.856 94.3039 236.121 94.2884 236.316 94.2573C236.51 94.2263 236.68 94.1603 236.828 94.0594C236.973 93.9584 237.079 93.8446 237.146 93.7178C237.214 93.5884 237.247 93.4215 237.247 93.217ZM240.64 95.0609C239.949 95.0609 239.412 94.8668 239.029 94.4786C238.648 94.0878 238.458 93.534 238.458 92.8172C238.458 92.1107 238.643 91.5491 239.013 91.1325C239.383 90.7132 239.867 90.5036 240.465 90.5036C240.734 90.5036 240.972 90.5424 241.179 90.6201C241.386 90.6977 241.568 90.8193 241.723 90.985C241.878 91.1506 241.997 91.3537 242.08 91.5944C242.163 91.8325 242.204 92.1249 242.204 92.4717V92.8677H239.2C239.2 93.3723 239.327 93.7579 239.58 94.0244C239.834 94.291 240.184 94.4243 240.632 94.4243C240.793 94.4243 240.949 94.4062 241.102 94.3699C241.257 94.3337 241.397 94.2871 241.521 94.2302C241.653 94.1707 241.764 94.1137 241.855 94.0594C241.945 94.0024 242.021 93.9494 242.08 93.9002H242.123V94.696C242.037 94.7296 241.931 94.7723 241.804 94.8241C241.678 94.8733 241.564 94.9121 241.463 94.9406C241.32 94.9794 241.191 95.0091 241.075 95.0298C240.961 95.0505 240.816 95.0609 240.64 95.0609ZM241.494 92.3087C241.489 92.112 241.465 91.9425 241.424 91.8001C241.383 91.6578 241.323 91.5375 241.245 91.4391C241.16 91.3304 241.05 91.2476 240.915 91.1907C240.783 91.1338 240.619 91.1053 240.422 91.1053C240.228 91.1053 240.063 91.1351 239.926 91.1946C239.791 91.2515 239.668 91.3356 239.557 91.4469C239.448 91.5608 239.365 91.6876 239.308 91.8273C239.251 91.9645 239.215 92.1249 239.2 92.3087H241.494ZM246.109 91.2645H244.634V94.96H243.904V91.2645H242.429V90.624H246.109V91.2645ZM248.536 95.0609C247.845 95.0609 247.308 94.8668 246.925 94.4786C246.544 94.0878 246.354 93.534 246.354 92.8172C246.354 92.1107 246.539 91.5491 246.909 91.1325C247.279 90.7132 247.763 90.5036 248.361 90.5036C248.63 90.5036 248.868 90.5424 249.075 90.6201C249.282 90.6977 249.463 90.8193 249.619 90.985C249.774 91.1506 249.893 91.3537 249.976 91.5944C250.058 91.8325 250.1 92.1249 250.1 92.4717V92.8677H247.095C247.095 93.3723 247.222 93.7579 247.476 94.0244C247.729 94.291 248.08 94.4243 248.528 94.4243C248.688 94.4243 248.845 94.4062 248.997 94.3699C249.153 94.3337 249.292 94.2871 249.417 94.2302C249.549 94.1707 249.66 94.1137 249.751 94.0594C249.841 94.0024 249.916 93.9494 249.976 93.9002H250.018V94.696C249.933 94.7296 249.827 94.7723 249.7 94.8241C249.573 94.8733 249.459 94.9121 249.358 94.9406C249.216 94.9794 249.087 95.0091 248.97 95.0298C248.856 95.0505 248.712 95.0609 248.536 95.0609ZM249.39 92.3087C249.384 92.112 249.361 91.9425 249.32 91.8001C249.278 91.6578 249.219 91.5375 249.141 91.4391C249.056 91.3304 248.946 91.2476 248.811 91.1907C248.679 91.1338 248.515 91.1053 248.318 91.1053C248.124 91.1053 247.958 91.1351 247.821 91.1946C247.687 91.2515 247.564 91.3356 247.452 91.4469C247.344 91.5608 247.261 91.6876 247.204 91.8273C247.147 91.9645 247.111 92.1249 247.095 92.3087H249.39ZM254.475 92.6774C254.475 93.3995 254.301 93.9753 253.955 94.4049C253.61 94.8319 253.174 95.0454 252.646 95.0454C252.432 95.0454 252.241 95.0208 252.076 94.9716C251.91 94.9224 251.741 94.8461 251.567 94.7426V96.5593H250.837V90.624H251.567V91.0781C251.748 90.9151 251.949 90.7792 252.169 90.6705C252.391 90.5593 252.633 90.5036 252.895 90.5036C253.392 90.5036 253.779 90.7003 254.055 91.0937C254.335 91.487 254.475 92.0149 254.475 92.6774ZM253.722 92.759C253.722 92.2647 253.643 91.8817 253.485 91.6099C253.327 91.3356 253.071 91.1985 252.716 91.1985C252.509 91.1985 252.309 91.245 252.115 91.3382C251.923 91.4288 251.741 91.5465 251.567 91.6915V94.1487C251.759 94.2418 251.922 94.3052 252.056 94.3389C252.194 94.3725 252.35 94.3893 252.526 94.3893C252.904 94.3893 253.198 94.2509 253.407 93.974C253.617 93.6971 253.722 93.2921 253.722 92.759Z" fill="#303549"/>
<path fill-rule="evenodd" clip-rule="evenodd" d="M303.12 76.2001C302.35 76.1902 301.588 76.3585 300.893 76.6916C300.199 77.0248 299.591 77.514 299.116 78.1209C298.642 78.7278 298.314 79.4361 298.159 80.1905C298.003 80.945 298.024 81.7251 298.22 82.4701C298.246 82.567 298.308 82.6501 298.394 82.7023C298.48 82.7544 298.582 82.7715 298.68 82.7501C298.729 82.7384 298.774 82.7172 298.815 82.6877C298.855 82.6582 298.89 82.621 298.916 82.5783C298.942 82.5355 298.959 82.4881 298.967 82.4386C298.974 82.3892 298.972 82.3387 298.96 82.2901C298.955 82.2269 298.955 82.1634 298.96 82.1001C299.049 82.0807 299.128 82.03 299.183 81.9572C299.237 81.8844 299.264 81.7944 299.258 81.7036C299.252 81.6127 299.214 81.5271 299.15 81.4622C299.086 81.3973 299.001 81.3575 298.91 81.3501C298.906 81.3136 298.906 81.2766 298.91 81.2401C298.907 80.3712 299.173 79.5226 299.67 78.8101C299.732 78.8612 299.81 78.8895 299.89 78.8901C299.991 78.8901 300.087 78.8501 300.159 78.7788C300.23 78.7076 300.27 78.6109 300.27 78.5101C300.27 78.4568 300.258 78.4042 300.236 78.3559C300.213 78.3076 300.181 78.2647 300.14 78.2301C300.838 77.5318 301.757 77.0971 302.74 77.0001C302.755 77.0891 302.8 77.1699 302.869 77.2283C302.938 77.2866 303.025 77.3187 303.115 77.3187C303.205 77.3187 303.292 77.2866 303.361 77.2283C303.43 77.1699 303.475 77.0891 303.49 77.0001C304.509 77.0891 305.463 77.5395 306.18 78.2701C306.11 78.3425 306.07 78.4393 306.07 78.5401C306.07 78.6409 306.11 78.7376 306.181 78.8088C306.253 78.8801 306.349 78.9201 306.45 78.9201C306.522 78.918 306.592 78.8936 306.65 78.8501C307.143 79.5606 307.404 80.4056 307.4 81.2701V81.3701C307.3 81.3727 307.205 81.4135 307.134 81.4842C307.063 81.5549 307.023 81.6501 307.02 81.7501C307.022 81.8337 307.052 81.9142 307.104 81.9793C307.156 82.0444 307.229 82.0904 307.31 82.1101C307.31 82.2001 307.31 82.2801 307.26 82.3701C307.236 82.4669 307.25 82.5694 307.301 82.6555C307.351 82.7415 307.434 82.8043 307.53 82.8301H307.62C307.704 82.8309 307.786 82.8038 307.853 82.7531C307.92 82.7025 307.968 82.6311 307.99 82.5501C308.101 82.1291 308.158 81.6956 308.16 81.2601C308.168 80.5951 308.043 79.9352 307.793 79.319C307.543 78.7027 307.172 78.1426 306.703 77.6714C306.234 77.2002 305.675 76.8274 305.06 76.5748C304.444 76.3221 303.785 76.1947 303.12 76.2001Z" fill="#0089FF"/>
<path fill-rule="evenodd" clip-rule="evenodd" d="M305.2 79.2499L303.13 81.2499C303.026 81.2473 302.922 81.2663 302.826 81.3059C302.729 81.3455 302.642 81.4048 302.57 81.4799C302.487 81.5679 302.427 81.675 302.396 81.7918C302.365 81.9085 302.363 82.0312 302.391 82.1488C302.419 82.2665 302.475 82.3753 302.555 82.4657C302.636 82.556 302.737 82.625 302.851 82.6665C302.964 82.7079 303.086 82.7205 303.206 82.7032C303.326 82.6858 303.439 82.639 303.536 82.567C303.633 82.495 303.711 82.4 303.762 82.2905C303.813 82.1811 303.837 82.0606 303.83 81.9399L305.63 79.6999C305.683 79.6429 305.711 79.5672 305.708 79.4893C305.706 79.4115 305.672 79.338 305.615 79.2849C305.558 79.2319 305.482 79.2037 305.404 79.2065C305.327 79.2093 305.253 79.2429 305.2 79.2999V79.2499Z" fill="#0089FF"/>
<path d="M238.719 82.3883H237.99V81.0646H234.24V82.3883H233.51V80.3969H233.824C234.161 79.8457 234.431 79.1236 234.636 78.2308C234.843 77.3354 234.946 76.3585 234.946 75.3H238.172V80.3969H238.719V82.3883ZM237.403 80.3969V75.9677H235.668C235.632 76.9019 235.515 77.7495 235.319 78.5103C235.122 79.2711 234.871 79.9 234.566 80.3969H237.403ZM241.825 80.0126V78.8092C241.651 78.8247 241.431 78.8467 241.165 78.8752C240.901 78.9011 240.687 78.9386 240.524 78.9878C240.33 79.0473 240.17 79.1392 240.043 79.2634C239.916 79.385 239.853 79.5558 239.853 79.7758C239.853 80.0242 239.923 80.2118 240.062 80.3386C240.202 80.4655 240.407 80.5289 240.676 80.5289C240.906 80.5289 241.114 80.4797 241.301 80.3813C241.487 80.2804 241.662 80.1575 241.825 80.0126ZM241.825 80.6181C241.765 80.6621 241.685 80.7242 241.584 80.8045C241.486 80.8821 241.39 80.9442 241.297 80.9908C241.167 81.0581 241.042 81.1098 240.92 81.1461C240.801 81.1823 240.633 81.2004 240.416 81.2004C240.237 81.2004 240.068 81.1668 239.907 81.0995C239.747 81.0322 239.606 80.9377 239.484 80.8161C239.368 80.6971 239.274 80.5509 239.205 80.3775C239.135 80.2015 239.1 80.0165 239.1 79.8224C239.1 79.5222 239.163 79.2673 239.29 79.0576C239.417 78.8454 239.617 78.6772 239.892 78.553C240.135 78.4417 240.422 78.3654 240.753 78.324C241.085 78.28 241.442 78.2476 241.825 78.2269V78.0872C241.825 77.9164 241.799 77.7792 241.747 77.6757C241.695 77.5696 241.623 77.4881 241.53 77.4312C241.437 77.3716 241.323 77.3328 241.188 77.3147C241.054 77.294 240.915 77.2836 240.773 77.2836C240.605 77.2836 240.407 77.3095 240.179 77.3613C239.951 77.4104 239.723 77.4829 239.496 77.5787H239.453V76.8372C239.588 76.7984 239.78 76.7557 240.031 76.7091C240.282 76.6625 240.531 76.6393 240.777 76.6393C241.074 76.6393 241.325 76.6625 241.53 76.7091C241.734 76.7557 241.918 76.8398 242.081 76.9615C242.239 77.0805 242.357 77.2345 242.434 77.4234C242.512 77.6123 242.551 77.8426 242.551 78.1144V81.0801H241.825V80.6181ZM246.98 79.768C246.98 79.9776 246.94 80.164 246.86 80.327C246.779 80.4875 246.669 80.622 246.53 80.7307C246.354 80.8679 246.169 80.961 245.974 81.0102C245.783 81.0568 245.553 81.0801 245.283 81.0801H243.579V76.7441H245.171C245.489 76.7441 245.722 76.7544 245.87 76.7751C246.017 76.7932 246.163 76.8424 246.308 76.9226C246.461 77.0054 246.574 77.1154 246.646 77.2526C246.718 77.3897 246.755 77.5528 246.755 77.7417C246.755 77.9487 246.698 78.1351 246.584 78.3007C246.47 78.4637 246.319 78.5905 246.13 78.6811L246.149 78.7083C246.385 78.7678 246.581 78.8881 246.739 79.0693C246.9 79.2504 246.98 79.4833 246.98 79.768ZM246.006 77.8543C246.006 77.7559 245.989 77.6705 245.955 77.5981C245.924 77.5256 245.868 77.4687 245.788 77.4273C245.695 77.3781 245.59 77.3496 245.474 77.3419C245.36 77.3315 245.201 77.3263 244.996 77.3263H244.301V78.5142H245.14C245.318 78.5142 245.445 78.5064 245.52 78.4909C245.595 78.4728 245.678 78.4365 245.769 78.3822C245.854 78.3304 245.915 78.2606 245.951 78.1726C245.987 78.0846 246.006 77.9785 246.006 77.8543ZM246.227 79.7719C246.227 79.6244 246.205 79.5066 246.161 79.4187C246.119 79.3281 246.026 79.2479 245.881 79.178C245.791 79.134 245.694 79.1068 245.59 79.0965C245.487 79.0861 245.343 79.0809 245.159 79.0809H244.301V80.4978H244.934C245.195 80.4978 245.399 80.4875 245.544 80.4667C245.688 80.446 245.813 80.4046 245.916 80.3425C246.025 80.2752 246.104 80.1976 246.153 80.1096C246.202 80.0216 246.227 79.9091 246.227 79.7719ZM251.106 81.0801H250.376V77.3574H248.886C248.878 77.5722 248.87 77.7792 248.863 77.9785C248.855 78.1752 248.847 78.3537 248.839 78.5142C248.824 78.9205 248.797 79.2608 248.758 79.5351C248.721 79.8094 248.675 80.0294 248.618 80.195C248.561 80.3658 248.498 80.4991 248.428 80.5948C248.36 80.6906 248.284 80.7773 248.199 80.8549C248.111 80.9326 248.016 80.9908 247.915 81.0296C247.814 81.0684 247.701 81.0878 247.574 81.0878C247.532 81.0878 247.479 81.0865 247.415 81.084C247.35 81.0814 247.305 81.0801 247.279 81.0801V80.4435H247.318C247.336 80.4435 247.354 80.4448 247.372 80.4473C247.393 80.4499 247.416 80.4512 247.442 80.4512C247.504 80.4512 247.565 80.4422 247.624 80.424C247.684 80.4059 247.737 80.3723 247.783 80.3231C247.913 80.1963 248.007 79.975 248.067 79.6593C248.126 79.341 248.169 78.8972 248.195 78.3279C248.205 78.1156 248.214 77.8646 248.222 77.5748C248.232 77.2849 248.241 77.008 248.249 76.7441H251.106V81.0801ZM254.049 81.181C253.358 81.181 252.821 80.9869 252.438 80.5987C252.057 80.208 251.867 79.6542 251.867 78.9373C251.867 78.2308 252.052 77.6692 252.422 77.2526C252.792 76.8333 253.276 76.6237 253.874 76.6237C254.143 76.6237 254.381 76.6625 254.588 76.7402C254.795 76.8178 254.976 76.9395 255.132 77.1051C255.287 77.2707 255.406 77.4739 255.489 77.7145C255.572 77.9526 255.613 78.245 255.613 78.5918V78.9878H252.609C252.609 79.4924 252.735 79.878 252.989 80.1446C253.243 80.4111 253.593 80.5444 254.041 80.5444C254.201 80.5444 254.358 80.5263 254.511 80.49C254.666 80.4538 254.806 80.4072 254.93 80.3503C255.062 80.2908 255.173 80.2338 255.264 80.1795C255.354 80.1226 255.429 80.0695 255.489 80.0203H255.532V80.8161C255.446 80.8498 255.34 80.8925 255.213 80.9442C255.086 80.9934 254.973 81.0322 254.872 81.0607C254.729 81.0995 254.6 81.1292 254.483 81.15C254.37 81.1707 254.225 81.181 254.049 81.181ZM254.903 78.4288C254.897 78.2321 254.874 78.0626 254.833 77.9203C254.791 77.7779 254.732 77.6576 254.654 77.5593C254.569 77.4506 254.459 77.3677 254.324 77.3108C254.192 77.2539 254.028 77.2254 253.831 77.2254C253.637 77.2254 253.472 77.2552 253.334 77.3147C253.2 77.3716 253.077 77.4557 252.966 77.567C252.857 77.6809 252.774 77.8077 252.717 77.9474C252.66 78.0846 252.624 78.245 252.609 78.4288H254.903ZM259.774 81.0801H259.045V79.1275H257.08V81.0801H256.351V76.7441H257.08V78.4987H259.045V76.7441H259.774V81.0801ZM264.254 81.0801H263.532V77.8465L261.49 81.0801H260.83V76.7441H261.552V79.9272L263.571 76.7441H264.254V81.0801ZM267.193 81.181C266.502 81.181 265.965 80.9869 265.582 80.5987C265.201 80.208 265.011 79.6542 265.011 78.9373C265.011 78.2308 265.196 77.6692 265.566 77.2526C265.936 76.8333 266.42 76.6237 267.018 76.6237C267.287 76.6237 267.525 76.6625 267.732 76.7402C267.939 76.8178 268.12 76.9395 268.276 77.1051C268.431 77.2707 268.55 77.4739 268.633 77.7145C268.716 77.9526 268.757 78.245 268.757 78.5918V78.9878H265.752C265.752 79.4924 265.879 79.878 266.133 80.1446C266.386 80.4111 266.737 80.5444 267.185 80.5444C267.345 80.5444 267.502 80.5263 267.655 80.49C267.81 80.4538 267.95 80.4072 268.074 80.3503C268.206 80.2908 268.317 80.2338 268.408 80.1795C268.498 80.1226 268.573 80.0695 268.633 80.0203H268.675V80.8161C268.59 80.8498 268.484 80.8925 268.357 80.9442C268.23 80.9934 268.116 81.0322 268.016 81.0607C267.873 81.0995 267.744 81.1292 267.627 81.15C267.513 81.1707 267.369 81.181 267.193 81.181ZM268.047 78.4288C268.041 78.2321 268.018 78.0626 267.977 77.9203C267.935 77.7779 267.876 77.6576 267.798 77.5593C267.713 77.4506 267.603 77.3677 267.468 77.3108C267.336 77.2539 267.172 77.2254 266.975 77.2254C266.781 77.2254 266.615 77.2552 266.478 77.3147C266.344 77.3716 266.221 77.4557 266.11 77.567C266.001 77.6809 265.918 77.8077 265.861 77.9474C265.804 78.0846 265.768 78.245 265.752 78.4288H268.047Z" fill="#303549"/>
<path fill-rule="evenodd" clip-rule="evenodd" d="M298.54 48.6099H302.07C302.131 48.6113 302.191 48.6003 302.248 48.5777C302.304 48.5551 302.355 48.5212 302.398 48.4782C302.441 48.4353 302.475 48.384 302.498 48.3276C302.52 48.2711 302.531 48.2107 302.53 48.1499C302.531 48.0887 302.52 48.0278 302.498 47.9708C302.475 47.9139 302.442 47.862 302.399 47.8182C302.356 47.7744 302.305 47.7396 302.248 47.7159C302.192 47.6921 302.131 47.6799 302.07 47.6799H298.54C298.415 47.6799 298.296 47.7295 298.208 47.8176C298.12 47.9057 298.07 48.0253 298.07 48.1499C298.07 48.2112 298.082 48.2718 298.106 48.3283C298.13 48.3848 298.164 48.4359 298.208 48.4788C298.252 48.5216 298.304 48.5553 298.361 48.5778C298.418 48.6003 298.479 48.6113 298.54 48.6099Z" fill="#0089FF"/>
<path fill-rule="evenodd" clip-rule="evenodd" d="M302.07 52.6H298.54C298.473 52.5902 298.405 52.5948 298.34 52.6137C298.275 52.6326 298.215 52.6652 298.164 52.7093C298.113 52.7534 298.072 52.808 298.044 52.8694C298.016 52.9308 298.002 52.9975 298.002 53.065C298.002 53.1325 298.016 53.1992 298.044 53.2606C298.072 53.3219 298.113 53.3765 298.164 53.4207C298.215 53.4648 298.275 53.4974 298.34 53.5162C298.405 53.5351 298.473 53.5398 298.54 53.53H302.07C302.182 53.5136 302.284 53.4576 302.357 53.3722C302.431 53.2868 302.472 53.1778 302.472 53.065C302.472 52.9522 302.431 52.8431 302.357 52.7578C302.284 52.6724 302.182 52.6164 302.07 52.6Z" fill="#0089FF"/>
<path fill-rule="evenodd" clip-rule="evenodd" d="M308 50.32L304.76 47C304.722 46.9604 304.676 46.9289 304.625 46.9074C304.575 46.8858 304.52 46.8748 304.465 46.8748C304.41 46.8748 304.355 46.8858 304.305 46.9074C304.254 46.9289 304.208 46.9604 304.17 47C304.092 47.0786 304.049 47.1846 304.049 47.295C304.049 47.4054 304.092 47.5114 304.17 47.59L306.69 50.11H299.69C299.629 50.1087 299.568 50.1196 299.511 50.1421C299.454 50.1646 299.402 50.1983 299.358 50.2412C299.314 50.284 299.28 50.3352 299.256 50.3916C299.232 50.4481 299.22 50.5088 299.22 50.57C299.22 50.6947 299.27 50.8142 299.358 50.9024C299.446 50.9905 299.565 51.04 299.69 51.04H306.69L304.17 53.55C304.094 53.6315 304.052 53.7387 304.052 53.85C304.052 53.9614 304.094 54.0686 304.17 54.15C304.249 54.2276 304.355 54.2711 304.465 54.2711C304.575 54.2711 304.681 54.2276 304.76 54.15L308 50.91C308.078 50.8314 308.121 50.7254 308.121 50.615C308.121 50.5046 308.078 50.3986 308 50.32Z" fill="#0089FF"/>
<path d="M238.222 52.04H237.454V49.2102H234.795V52.04H234.026V46.26H234.795V48.527H237.454V46.26H238.222V52.04ZM241.763 50.9725V49.7692C241.589 49.7847 241.369 49.8067 241.103 49.8352C240.839 49.861 240.625 49.8986 240.462 49.9477C240.268 50.0073 240.108 50.0991 239.981 50.2233C239.854 50.345 239.791 50.5158 239.791 50.7357C239.791 50.9842 239.861 51.1718 240 51.2986C240.14 51.4254 240.344 51.4888 240.614 51.4888C240.844 51.4888 241.052 51.4396 241.239 51.3413C241.425 51.2404 241.6 51.1175 241.763 50.9725ZM241.763 51.5781C241.703 51.6221 241.623 51.6842 241.522 51.7644C241.424 51.8421 241.328 51.9042 241.235 51.9508C241.105 52.018 240.98 52.0698 240.858 52.106C240.739 52.1423 240.571 52.1604 240.354 52.1604C240.175 52.1604 240.005 52.1267 239.845 52.0594C239.685 51.9922 239.544 51.8977 239.422 51.7761C239.305 51.657 239.212 51.5108 239.142 51.3374C239.073 51.1615 239.038 50.9764 239.038 50.7823C239.038 50.4821 239.101 50.2272 239.228 50.0176C239.355 49.8054 239.555 49.6372 239.83 49.513C240.073 49.4017 240.36 49.3253 240.691 49.2839C241.023 49.2399 241.38 49.2076 241.763 49.1869V49.0471C241.763 48.8763 241.737 48.7392 241.685 48.6357C241.633 48.5296 241.561 48.448 241.468 48.3911C241.374 48.3316 241.261 48.2928 241.126 48.2747C240.991 48.254 240.853 48.2436 240.711 48.2436C240.542 48.2436 240.344 48.2695 240.117 48.3212C239.889 48.3704 239.661 48.4429 239.434 48.5386H239.391V47.7972C239.525 47.7584 239.718 47.7157 239.969 47.6691C240.22 47.6225 240.469 47.5992 240.715 47.5992C241.012 47.5992 241.263 47.6225 241.468 47.6691C241.672 47.7157 241.856 47.7998 242.019 47.9214C242.177 48.0405 242.294 48.1944 242.372 48.3833C242.45 48.5723 242.489 48.8026 242.489 49.0743V52.04H241.763V51.5781ZM246.941 52.04H246.211V48.3329H244.247V52.04H243.517V47.704H246.941V52.04ZM251.634 49.7575C251.634 50.4795 251.461 51.0553 251.114 51.4849C250.77 51.9119 250.334 52.1254 249.806 52.1254C249.591 52.1254 249.401 52.1009 249.235 52.0517C249.07 52.0025 248.9 51.9262 248.727 51.8227V53.6394H247.997V47.704H248.727V48.1582C248.908 47.9952 249.108 47.8593 249.328 47.7506C249.551 47.6393 249.793 47.5837 250.054 47.5837C250.551 47.5837 250.938 47.7804 251.215 48.1737C251.494 48.5671 251.634 49.095 251.634 49.7575ZM250.881 49.839C250.881 49.3448 250.802 48.9617 250.644 48.69C250.486 48.4157 250.23 48.2785 249.876 48.2785C249.669 48.2785 249.468 48.3251 249.274 48.4183C249.083 48.5089 248.9 48.6266 248.727 48.7715V51.2287C248.918 51.3219 249.081 51.3853 249.216 51.4189C249.353 51.4526 249.51 51.4694 249.685 51.4694C250.063 51.4694 250.357 51.331 250.567 51.0541C250.776 50.7771 250.881 50.3721 250.881 49.839ZM254.813 50.9725V49.7692C254.64 49.7847 254.42 49.8067 254.153 49.8352C253.89 49.861 253.676 49.8986 253.513 49.9477C253.319 50.0073 253.158 50.0991 253.032 50.2233C252.905 50.345 252.841 50.5158 252.841 50.7357C252.841 50.9842 252.911 51.1718 253.051 51.2986C253.191 51.4254 253.395 51.4888 253.664 51.4888C253.895 51.4888 254.103 51.4396 254.289 51.3413C254.476 51.2404 254.65 51.1175 254.813 50.9725ZM254.813 51.5781C254.754 51.6221 254.674 51.6842 254.573 51.7644C254.474 51.8421 254.379 51.9042 254.285 51.9508C254.156 52.018 254.031 52.0698 253.909 52.106C253.79 52.1423 253.622 52.1604 253.404 52.1604C253.226 52.1604 253.056 52.1267 252.896 52.0594C252.735 51.9922 252.594 51.8977 252.473 51.7761C252.356 51.657 252.263 51.5108 252.193 51.3374C252.123 51.1615 252.088 50.9764 252.088 50.7823C252.088 50.4821 252.152 50.2272 252.279 50.0176C252.405 49.8054 252.606 49.6372 252.88 49.513C253.123 49.4017 253.411 49.3253 253.742 49.2839C254.073 49.2399 254.43 49.2076 254.813 49.1869V49.0471C254.813 48.8763 254.788 48.7392 254.736 48.6357C254.684 48.5296 254.612 48.448 254.518 48.3911C254.425 48.3316 254.311 48.2928 254.177 48.2747C254.042 48.254 253.904 48.2436 253.761 48.2436C253.593 48.2436 253.395 48.2695 253.167 48.3212C252.94 48.3704 252.712 48.4429 252.484 48.5386H252.442V47.7972C252.576 47.7584 252.769 47.7157 253.02 47.6691C253.271 47.6225 253.519 47.5992 253.765 47.5992C254.063 47.5992 254.314 47.6225 254.518 47.6691C254.723 47.7157 254.907 47.7998 255.07 47.9214C255.227 48.0405 255.345 48.1944 255.423 48.3833C255.5 48.5723 255.539 48.8026 255.539 49.0743V52.04H254.813V51.5781ZM259.968 50.728C259.968 50.9376 259.928 51.1239 259.848 51.287C259.768 51.4474 259.658 51.582 259.518 51.6907C259.342 51.8278 259.157 51.921 258.963 51.9702C258.772 52.0167 258.541 52.04 258.272 52.04H256.568V47.704H258.16C258.478 47.704 258.711 47.7144 258.858 47.7351C259.006 47.7532 259.152 47.8024 259.297 47.8826C259.45 47.9654 259.562 48.0754 259.635 48.2125C259.707 48.3497 259.743 48.5127 259.743 48.7017C259.743 48.9087 259.686 49.095 259.573 49.2606C259.459 49.4237 259.307 49.5505 259.118 49.6411L259.138 49.6682C259.373 49.7278 259.57 49.8481 259.728 50.0292C259.888 50.2104 259.968 50.4433 259.968 50.728ZM258.994 48.8142C258.994 48.7159 258.977 48.6305 258.944 48.558C258.913 48.4856 258.857 48.4286 258.777 48.3872C258.684 48.3381 258.579 48.3096 258.462 48.3018C258.348 48.2915 258.189 48.2863 257.985 48.2863H257.29V49.4741H258.128C258.307 49.4741 258.434 49.4664 258.509 49.4509C258.584 49.4327 258.667 49.3965 258.757 49.3422C258.843 49.2904 258.904 49.2205 258.94 49.1325C258.976 49.0446 258.994 48.9385 258.994 48.8142ZM259.215 50.7319C259.215 50.5844 259.193 50.4666 259.149 50.3786C259.108 50.288 259.015 50.2078 258.87 50.1379C258.779 50.0939 258.682 50.0668 258.579 50.0564C258.475 50.0461 258.332 50.0409 258.148 50.0409H257.29V51.4578H257.923C258.184 51.4578 258.387 51.4474 258.532 51.4267C258.677 51.406 258.801 51.3646 258.905 51.3025C259.014 51.2352 259.092 51.1576 259.142 51.0696C259.191 50.9816 259.215 50.869 259.215 50.7319ZM264.095 52.04H263.365V48.3174H261.874C261.867 48.5322 261.859 48.7392 261.851 48.9385C261.843 49.1351 261.836 49.3137 261.828 49.4741C261.812 49.8804 261.785 50.2208 261.746 50.4951C261.71 50.7694 261.664 50.9894 261.607 51.155C261.55 51.3258 261.486 51.4591 261.416 51.5548C261.349 51.6506 261.273 51.7373 261.187 51.8149C261.099 51.8925 261.005 51.9508 260.904 51.9896C260.803 52.0284 260.689 52.0478 260.562 52.0478C260.521 52.0478 260.468 52.0465 260.403 52.0439C260.339 52.0413 260.293 52.04 260.267 52.04V51.4034H260.306C260.324 51.4034 260.342 51.4047 260.361 51.4073C260.381 51.4099 260.405 51.4112 260.43 51.4112C260.493 51.4112 260.553 51.4021 260.613 51.384C260.672 51.3659 260.725 51.3323 260.772 51.2831C260.901 51.1563 260.996 50.935 261.055 50.6193C261.115 50.301 261.158 49.8572 261.183 49.2878C261.194 49.0756 261.203 48.8246 261.211 48.5347C261.221 48.2449 261.23 47.968 261.238 47.704H264.095V52.04ZM267.037 52.141C266.346 52.141 265.809 51.9469 265.426 51.5587C265.046 51.1679 264.856 50.6141 264.856 49.8973C264.856 49.1908 265.041 48.6292 265.411 48.2125C265.781 47.7933 266.265 47.5837 266.863 47.5837C267.132 47.5837 267.37 47.6225 267.577 47.7001C267.784 47.7778 267.965 47.8994 268.12 48.065C268.276 48.2307 268.395 48.4338 268.477 48.6745C268.56 48.9126 268.602 49.205 268.602 49.5518V49.9477H265.597C265.597 50.4524 265.724 50.838 265.978 51.1045C266.231 51.3711 266.582 51.5043 267.03 51.5043C267.19 51.5043 267.347 51.4862 267.499 51.45C267.655 51.4138 267.794 51.3672 267.918 51.3103C268.05 51.2507 268.162 51.1938 268.252 51.1395C268.343 51.0825 268.418 51.0295 268.477 50.9803H268.52V51.7761C268.435 51.8097 268.329 51.8524 268.202 51.9042C268.075 51.9533 267.961 51.9922 267.86 52.0206C267.718 52.0594 267.589 52.0892 267.472 52.1099C267.358 52.1306 267.213 52.141 267.037 52.141ZM267.891 49.3887C267.886 49.1921 267.863 49.0226 267.821 48.8802C267.78 48.7379 267.72 48.6176 267.643 48.5192C267.557 48.4105 267.447 48.3277 267.313 48.2708C267.181 48.2138 267.017 48.1854 266.82 48.1854C266.626 48.1854 266.46 48.2151 266.323 48.2747C266.188 48.3316 266.066 48.4157 265.954 48.527C265.846 48.6408 265.763 48.7677 265.706 48.9074C265.649 49.0446 265.613 49.205 265.597 49.3887H267.891ZM272.763 52.04H272.033V50.0875H270.069V52.04H269.339V47.704H270.069V49.4586H272.033V47.704H272.763V52.04ZM277.243 52.04H276.521V48.8065L274.479 52.04H273.819V47.704H274.541V50.8871L276.559 47.704H277.243V52.04ZM280.181 52.141C279.49 52.141 278.953 51.9469 278.57 51.5587C278.19 51.1679 278 50.6141 278 49.8973C278 49.1908 278.185 48.6292 278.555 48.2125C278.925 47.7933 279.409 47.5837 280.007 47.5837C280.276 47.5837 280.514 47.6225 280.721 47.7001C280.928 47.7778 281.109 47.8994 281.264 48.065C281.419 48.2307 281.539 48.4338 281.621 48.6745C281.704 48.9126 281.746 49.205 281.746 49.5518V49.9477H278.741C278.741 50.4524 278.868 50.838 279.121 51.1045C279.375 51.3711 279.726 51.5043 280.173 51.5043C280.334 51.5043 280.49 51.4862 280.643 51.45C280.798 51.4138 280.938 51.3672 281.062 51.3103C281.194 51.2507 281.306 51.1938 281.396 51.1395C281.487 51.0825 281.562 51.0295 281.621 50.9803H281.664V51.7761C281.579 51.8097 281.473 51.8524 281.346 51.9042C281.219 51.9533 281.105 51.9922 281.004 52.0206C280.862 52.0594 280.732 52.0892 280.616 52.1099C280.502 52.1306 280.357 52.141 280.181 52.141ZM281.035 49.3887C281.03 49.1921 281.007 49.0226 280.965 48.8802C280.924 48.7379 280.864 48.6176 280.787 48.5192C280.701 48.4105 280.591 48.3277 280.457 48.2708C280.325 48.2138 280.16 48.1854 279.964 48.1854C279.77 48.1854 279.604 48.2151 279.467 48.2747C279.332 48.3316 279.209 48.4157 279.098 48.527C278.989 48.6408 278.907 48.7677 278.85 48.9074C278.793 49.0446 278.757 49.205 278.741 49.3887H281.035Z" fill="#303549"/>
<path d="M13.2793 43.3082H12.5495V41.9845H8.79966V43.3082H8.06987V41.3168H8.3843C8.72073 40.7656 8.99116 40.0436 9.19561 39.1507C9.40264 38.2553 9.50615 37.2784 9.50615 36.2199H12.732V41.3168H13.2793V43.3082ZM11.9634 41.3168V36.8876H10.2282C10.1919 37.8219 10.0755 38.6694 9.87881 39.4302C9.68213 40.1911 9.4311 40.8199 9.12573 41.3168H11.9634ZM17.5299 39.8339C17.5299 40.5637 17.3539 41.1279 17.002 41.5264C16.65 41.9224 16.1816 42.1203 15.5968 42.1203C14.9938 42.1203 14.5189 41.9159 14.1721 41.507C13.8279 41.0955 13.6558 40.5378 13.6558 39.8339C13.6558 39.1093 13.8331 38.5465 14.1876 38.1453C14.5448 37.7442 15.0145 37.5437 15.5968 37.5437C16.1816 37.5437 16.65 37.7442 17.002 38.1453C17.3539 38.5439 17.5299 39.1067 17.5299 39.8339ZM16.7768 39.8339C16.7768 39.2724 16.6746 38.8557 16.4702 38.584C16.2657 38.3097 15.9746 38.1725 15.5968 38.1725C15.2163 38.1725 14.9226 38.3097 14.7156 38.584C14.5111 38.8557 14.4089 39.2724 14.4089 39.8339C14.4089 40.3774 14.5111 40.7902 14.7156 41.0722C14.9226 41.3517 15.2163 41.4915 15.5968 41.4915C15.972 41.4915 16.2618 41.3543 16.4663 41.08C16.6733 40.8031 16.7768 40.3877 16.7768 39.8339ZM21.7029 42H20.9731V38.2928H19.0089V42H18.2791V37.664H21.7029V42ZM26.167 37.664L23.834 43.5993H23.0538L23.8301 41.7904L22.2541 37.664H23.0421L24.2261 40.8743L25.4062 37.664H26.167ZM28.4417 42.097C28.1441 42.097 27.8711 42.0518 27.6227 41.9612C27.3742 41.868 27.1607 41.7283 26.9822 41.5419C26.8036 41.3556 26.6652 41.1214 26.5668 40.8393C26.4685 40.5547 26.4193 40.2208 26.4193 39.8378C26.4193 39.4574 26.4698 39.1287 26.5707 38.8518C26.6742 38.5749 26.8114 38.342 26.9822 38.1531C27.153 37.9642 27.3652 37.8193 27.6188 37.7183C27.875 37.6148 28.1493 37.5631 28.4417 37.5631C28.6798 37.5631 28.9089 37.5967 29.1288 37.664C29.3514 37.7313 29.5494 37.8089 29.7228 37.8969V38.716H29.6801C29.6283 38.672 29.561 38.6215 29.4782 38.5646C29.398 38.5076 29.2996 38.4494 29.1832 38.3899C29.0823 38.3381 28.9632 38.2928 28.826 38.254C28.6889 38.2152 28.5569 38.1958 28.4301 38.1958C28.0523 38.1958 27.7482 38.3394 27.5179 38.6267C27.2901 38.9114 27.1763 39.3151 27.1763 39.8378C27.1763 40.3502 27.2863 40.75 27.5062 41.0373C27.7288 41.322 28.0367 41.4643 28.4301 41.4643C28.6682 41.4643 28.8946 41.4151 29.1094 41.3168C29.3242 41.2185 29.5144 41.0917 29.6801 40.9364H29.7228V41.7554C29.6503 41.7891 29.5597 41.8305 29.451 41.8797C29.3423 41.9262 29.244 41.9612 29.156 41.9845C29.0318 42.0207 28.9205 42.0479 28.8222 42.066C28.7238 42.0867 28.597 42.097 28.4417 42.097ZM33.558 38.3045H32.0829V42H31.3531V38.3045H29.878V37.664H33.558V38.3045ZM37.5252 42H36.8032V38.7664L34.7614 42H34.1015V37.664H34.8235V40.8471L36.842 37.664H37.5252V42ZM42.6027 42H41.8807V38.5917L40.8403 40.8044H40.2969L39.2643 38.5917V42H38.5811V37.664H39.4623L40.6035 40.0707L41.706 37.664H42.6027V42ZM46.8766 40.6569C46.8766 40.8665 46.8339 41.0567 46.7485 41.2275C46.6657 41.3983 46.5518 41.5368 46.4069 41.6429C46.2361 41.7723 46.0536 41.8641 45.8595 41.9185C45.6655 41.9728 45.4157 42 45.1104 42H43.6585V37.664H44.3883V39.3526H45.1298C45.4558 39.3526 45.7082 39.3694 45.8867 39.4031C46.0679 39.4367 46.2477 39.5195 46.4263 39.6515C46.5764 39.7628 46.689 39.9051 46.764 40.0785C46.8391 40.2519 46.8766 40.4447 46.8766 40.6569ZM46.1235 40.6685C46.1235 40.5365 46.1002 40.4214 46.0536 40.323C46.0096 40.2221 45.9359 40.1406 45.8324 40.0785C45.7237 40.0138 45.5995 39.975 45.4597 39.962C45.3226 39.9491 45.1246 39.9426 44.8658 39.9426H44.3883V41.4177H44.8503C45.1091 41.4177 45.3096 41.4074 45.452 41.3867C45.5943 41.3634 45.7172 41.3207 45.8207 41.2586C45.9268 41.1913 46.0032 41.1124 46.0498 41.0218C46.0989 40.9286 46.1235 40.8109 46.1235 40.6685ZM48.111 42H47.3812V37.664H48.111V42ZM51.0534 42.1009C50.3625 42.1009 49.8255 41.9068 49.4425 41.5187C49.0621 41.1279 48.8719 40.5741 48.8719 39.8572C48.8719 39.1507 49.0569 38.5892 49.427 38.1725C49.797 37.7533 50.281 37.5437 50.8788 37.5437C51.1479 37.5437 51.386 37.5825 51.593 37.6601C51.8 37.7377 51.9812 37.8594 52.1365 38.025C52.2917 38.1906 52.4108 38.3938 52.4936 38.6344C52.5764 38.8725 52.6178 39.165 52.6178 39.5117V39.9077H49.6133C49.6133 40.4123 49.7401 40.7979 49.9937 41.0645C50.2473 41.331 50.598 41.4643 51.0457 41.4643C51.2061 41.4643 51.3627 41.4462 51.5154 41.41C51.6707 41.3737 51.8104 41.3271 51.9346 41.2702C52.0666 41.2107 52.1779 41.1538 52.2685 41.0994C52.359 41.0425 52.4341 40.9894 52.4936 40.9403H52.5363V41.736C52.4509 41.7697 52.3448 41.8124 52.218 41.8641C52.0912 41.9133 51.9773 41.9521 51.8764 41.9806C51.7341 42.0194 51.6047 42.0492 51.4882 42.0699C51.3743 42.0906 51.2294 42.1009 51.0534 42.1009ZM51.9074 39.3487C51.9023 39.152 51.879 38.9825 51.8376 38.8402C51.7962 38.6979 51.7366 38.5775 51.659 38.4792C51.5736 38.3705 51.4636 38.2877 51.3291 38.2307C51.1971 38.1738 51.0327 38.1453 50.8361 38.1453C50.642 38.1453 50.4763 38.1751 50.3392 38.2346C50.2046 38.2916 50.0817 38.3757 49.9704 38.4869C49.8617 38.6008 49.7789 38.7276 49.722 38.8674C49.665 39.0045 49.6288 39.165 49.6133 39.3487H51.9074ZM58.7123 40.8005C58.7123 41.0438 58.6592 41.2495 58.5531 41.4177C58.447 41.5859 58.3112 41.7192 58.1456 41.8176C57.9877 41.9133 57.8078 41.9845 57.606 42.0311C57.4041 42.0776 57.2023 42.1009 57.0004 42.1009C56.7157 42.1009 56.4466 42.0725 56.193 42.0155C55.9394 41.9612 55.6871 41.8732 55.436 41.7516V40.9441H55.4826C55.6586 41.1072 55.8786 41.2366 56.1425 41.3323C56.4091 41.4255 56.6743 41.4721 56.9383 41.4721C57.0522 41.4721 57.1738 41.4604 57.3032 41.4371C57.4352 41.4113 57.5465 41.3724 57.637 41.3207C57.7561 41.2482 57.8402 41.1706 57.8894 41.0878C57.9411 41.005 57.967 40.8911 57.967 40.7462C57.967 40.5909 57.9372 40.4667 57.8777 40.3735C57.8208 40.2778 57.7418 40.2066 57.6409 40.16C57.54 40.1134 57.4261 40.085 57.2993 40.0746C57.1751 40.0617 57.0431 40.0552 56.9034 40.0552H56.391V39.4263H56.783C56.8814 39.4263 57.0043 39.4238 57.1518 39.4186C57.2993 39.4108 57.4171 39.3901 57.5051 39.3565C57.6163 39.3151 57.7056 39.2568 57.7729 39.1818C57.8402 39.1042 57.8738 38.9748 57.8738 38.7936C57.8738 38.6668 57.8454 38.5646 57.7884 38.4869C57.7315 38.4093 57.6603 38.3485 57.5749 38.3045C57.4869 38.2579 57.3912 38.2269 57.2877 38.2113C57.1842 38.1932 57.0845 38.1842 56.9888 38.1842C56.7429 38.1842 56.5061 38.2191 56.2784 38.289C56.0532 38.3563 55.8592 38.4572 55.6961 38.5917H55.6495V37.8037C55.8359 37.739 56.0416 37.6821 56.2667 37.6329C56.4945 37.5838 56.7222 37.5592 56.9499 37.5592C57.1337 37.5592 57.32 37.5786 57.5089 37.6174C57.7004 37.6536 57.8816 37.717 58.0524 37.8076C58.2128 37.8956 58.3474 38.0172 58.4561 38.1725C58.5648 38.3252 58.6191 38.5128 58.6191 38.7354C58.6191 38.9709 58.5519 39.1779 58.4173 39.3565C58.2853 39.5324 58.1093 39.6489 57.8894 39.7058V39.733C58.13 39.8158 58.3267 39.9426 58.4794 40.1134C58.6347 40.2842 58.7123 40.5133 58.7123 40.8005ZM62.9047 42H62.1749V40.0474H60.2107V42H59.4809V37.664H60.2107V39.4186H62.1749V37.664H62.9047V42ZM66.3828 40.9325V39.7291C66.2094 39.7447 65.9895 39.7667 65.7229 39.7951C65.4589 39.821 65.2454 39.8585 65.0824 39.9077C64.8883 39.9672 64.7279 40.0591 64.601 40.1833C64.4742 40.3049 64.4108 40.4757 64.4108 40.6957C64.4108 40.9441 64.4807 41.1318 64.6205 41.2586C64.7602 41.3854 64.9646 41.4488 65.2338 41.4488C65.4641 41.4488 65.6724 41.3996 65.8588 41.3013C66.0451 41.2003 66.2198 41.0774 66.3828 40.9325ZM66.3828 41.5381C66.3233 41.5821 66.2431 41.6442 66.1421 41.7244C66.0438 41.802 65.948 41.8641 65.8549 41.9107C65.7255 41.978 65.6 42.0298 65.4783 42.066C65.3593 42.1022 65.1911 42.1203 64.9737 42.1203C64.7951 42.1203 64.6256 42.0867 64.4652 42.0194C64.3047 41.9521 64.1637 41.8577 64.0421 41.736C63.9256 41.617 63.8324 41.4708 63.7626 41.2974C63.6927 41.1214 63.6578 40.9364 63.6578 40.7423C63.6578 40.4421 63.7212 40.1872 63.848 39.9776C63.9748 39.7654 64.1753 39.5971 64.4497 39.4729C64.6929 39.3616 64.9802 39.2853 65.3114 39.2439C65.6427 39.1999 65.9998 39.1676 66.3828 39.1469V39.0071C66.3828 38.8363 66.3569 38.6991 66.3052 38.5956C66.2534 38.4895 66.181 38.408 66.0878 38.3511C65.9946 38.2916 65.8808 38.2527 65.7462 38.2346C65.6116 38.2139 65.4732 38.2036 65.3308 38.2036C65.1626 38.2036 64.9646 38.2294 64.7369 38.2812C64.5092 38.3304 64.2814 38.4028 64.0537 38.4986H64.011V37.7572C64.1456 37.7183 64.3384 37.6756 64.5894 37.6291C64.8404 37.5825 65.0889 37.5592 65.3347 37.5592C65.6323 37.5592 65.8833 37.5825 66.0878 37.6291C66.2922 37.6756 66.476 37.7597 66.639 37.8814C66.7969 38.0004 66.9146 38.1544 66.9923 38.3433C67.0699 38.5322 67.1087 38.7625 67.1087 39.0343V42H66.3828V41.5381ZM71.3981 42H70.6684V40.3075C70.4406 40.3826 70.2194 40.4408 70.0046 40.4822C69.7898 40.5236 69.5776 40.5443 69.3679 40.5443C69.1842 40.5443 69.0043 40.521 68.8284 40.4744C68.655 40.4253 68.5049 40.3463 68.3781 40.2376C68.2513 40.129 68.1529 39.9905 68.0831 39.8223C68.0158 39.6515 67.9821 39.4509 67.9821 39.2206V37.664H68.7119V38.8402C68.7119 39.0317 68.7197 39.1844 68.7352 39.2982C68.7507 39.4095 68.7934 39.5182 68.8633 39.6243C68.9228 39.7149 69.0121 39.7848 69.1312 39.8339C69.2528 39.8831 69.4119 39.9077 69.6086 39.9077C69.7794 39.9077 69.9619 39.8909 70.156 39.8572C70.3526 39.8236 70.5234 39.7835 70.6684 39.7369V37.664H71.3981V42ZM74.3367 42.1009C73.6457 42.1009 73.1087 41.9068 72.7257 41.5187C72.3453 41.1279 72.1551 40.5741 72.1551 39.8572C72.1551 39.1507 72.3401 38.5892 72.7102 38.1725C73.0803 37.7533 73.5642 37.5437 74.162 37.5437C74.4311 37.5437 74.6692 37.5825 74.8763 37.6601C75.0833 37.7377 75.2644 37.8594 75.4197 38.025C75.575 38.1906 75.694 38.3938 75.7769 38.6344C75.8597 38.8725 75.9011 39.165 75.9011 39.5117V39.9077H72.8965C72.8965 40.4123 73.0233 40.7979 73.277 41.0645C73.5306 41.331 73.8812 41.4643 74.3289 41.4643C74.4894 41.4643 74.6459 41.4462 74.7986 41.41C74.9539 41.3737 75.0936 41.3271 75.2179 41.2702C75.3499 41.2107 75.4611 41.1538 75.5517 41.0994C75.6423 41.0425 75.7173 40.9894 75.7769 40.9403H75.8196V41.736C75.7342 41.7697 75.628 41.8124 75.5012 41.8641C75.3744 41.9133 75.2606 41.9521 75.1596 41.9806C75.0173 42.0194 74.8879 42.0492 74.7715 42.0699C74.6576 42.0906 74.5127 42.1009 74.3367 42.1009ZM75.1907 39.3487C75.1855 39.152 75.1622 38.9825 75.1208 38.8402C75.0794 38.6979 75.0199 38.5775 74.9423 38.4792C74.8569 38.3705 74.7469 38.2877 74.6123 38.2307C74.4803 38.1738 74.316 38.1453 74.1193 38.1453C73.9252 38.1453 73.7596 38.1751 73.6224 38.2346C73.4879 38.2916 73.3649 38.3757 73.2537 38.4869C73.145 38.6008 73.0622 38.7276 73.0052 38.8674C72.9483 39.0045 72.9121 39.165 72.8965 39.3487H75.1907ZM80.0624 42H79.3326V40.0474H77.3684V42H76.6386V37.664H77.3684V39.4186H79.3326V37.664H80.0624V42ZM84.542 42H83.82V38.7664L81.7782 42H81.1183V37.664H81.8403V40.8471L83.8588 37.664H84.542V42ZM88.7383 42H88.0085V40.2803H87.2865L86.0016 42H85.1515L86.5451 40.2144C86.1854 40.1083 85.9214 39.9504 85.7532 39.7408C85.5875 39.5312 85.5047 39.2504 85.5047 38.8984C85.5047 38.6836 85.5513 38.496 85.6445 38.3355C85.7402 38.1725 85.8683 38.0354 86.0288 37.9241C86.1582 37.8361 86.3212 37.7714 86.5179 37.73C86.7146 37.686 86.9345 37.664 87.1778 37.664H88.7383V42ZM88.0085 39.7058V38.2463H87.2166C87.0484 38.2463 86.9151 38.2553 86.8168 38.2734C86.721 38.2916 86.6279 38.3265 86.5373 38.3782C86.4441 38.4352 86.373 38.5128 86.3238 38.6112C86.2772 38.7069 86.2539 38.8104 86.2539 38.9217C86.2539 39.064 86.2695 39.1805 86.3005 39.2711C86.3342 39.3591 86.3937 39.4406 86.4791 39.5156C86.5697 39.5933 86.6796 39.645 86.809 39.6709C86.941 39.6942 87.0846 39.7058 87.2399 39.7058H88.0085ZM12.8601 92H11.8818L9.83999 89.3526H9.35476V92H8.58616V86.2199H9.35476V88.8247C9.65754 88.8143 9.89692 88.738 10.0729 88.5956C10.2515 88.4533 10.3964 88.2489 10.5077 87.9823C10.5542 87.8658 10.5957 87.7559 10.6319 87.6523C10.6707 87.5462 10.7018 87.457 10.725 87.3845C10.8803 86.942 11.0783 86.6379 11.319 86.4723C11.5596 86.3041 11.8935 86.2199 12.3205 86.2199H12.5573V86.907H12.3632C12.0475 86.907 11.8262 86.9691 11.6994 87.0934C11.5726 87.215 11.4561 87.4466 11.35 87.7882C11.2439 88.1298 11.1249 88.3808 10.9929 88.5413C10.8609 88.6991 10.7018 88.8389 10.5154 88.9605L12.8601 92ZM16.9554 89.7175C16.9554 90.4395 16.782 91.0153 16.4352 91.4449C16.091 91.8719 15.655 92.0854 15.1271 92.0854C14.9123 92.0854 14.722 92.0608 14.5564 92.0116C14.3908 91.9625 14.2213 91.8861 14.0479 91.7826V93.5993H13.3181V87.664H14.0479V88.1182C14.2291 87.9551 14.4296 87.8193 14.6496 87.7106C14.8721 87.5993 15.1141 87.5437 15.3755 87.5437C15.8724 87.5437 16.2593 87.7403 16.5362 88.1337C16.8156 88.5271 16.9554 89.055 16.9554 89.7175ZM16.2023 89.799C16.2023 89.3047 16.1234 88.9217 15.9655 88.65C15.8077 88.3757 15.5515 88.2385 15.1969 88.2385C14.9899 88.2385 14.7893 88.2851 14.5952 88.3782C14.4037 88.4688 14.2213 88.5866 14.0479 88.7315V91.1887C14.2394 91.2819 14.4024 91.3453 14.537 91.3789C14.6742 91.4125 14.8307 91.4294 15.0067 91.4294C15.3845 91.4294 15.6783 91.2909 15.8879 91.014C16.0975 90.7371 16.2023 90.3321 16.2023 89.799ZM21.1361 92H20.4141V88.7664L18.3723 92H17.7124V87.664H18.4344V90.8471L20.4529 87.664H21.1361V92ZM25.3596 88.3045H23.8845V92H23.1547V88.3045H21.6796V87.664H25.3596V88.3045ZM29.3268 92H28.6048V88.7664L26.5629 92H25.903V87.664H26.625V90.8471L28.6436 87.664H29.3268V92ZM33.6434 92H32.9136V90.3075C32.6859 90.3826 32.4646 90.4408 32.2498 90.4822C32.035 90.5236 31.8228 90.5443 31.6132 90.5443C31.4295 90.5443 31.2496 90.521 31.0736 90.4744C30.9002 90.4253 30.7501 90.3463 30.6233 90.2376C30.4965 90.129 30.3982 89.9905 30.3283 89.8223C30.261 89.6515 30.2274 89.4509 30.2274 89.2206V87.664H30.9572V88.8402C30.9572 89.0317 30.9649 89.1844 30.9805 89.2982C30.996 89.4095 31.0387 89.5182 31.1086 89.6243C31.1681 89.7149 31.2574 89.7848 31.3764 89.8339C31.498 89.8831 31.6572 89.9077 31.8539 89.9077C32.0247 89.9077 32.2071 89.8909 32.4012 89.8572C32.5979 89.8236 32.7687 89.7835 32.9136 89.7369V87.664H33.6434V92ZM36.582 92.1009C35.891 92.1009 35.354 91.9068 34.971 91.5187C34.5906 91.1279 34.4004 90.5741 34.4004 89.8572C34.4004 89.1507 34.5854 88.5892 34.9555 88.1725C35.3255 87.7533 35.8095 87.5437 36.4073 87.5437C36.6764 87.5437 36.9145 87.5825 37.1215 87.6601C37.3286 87.7377 37.5097 87.8594 37.665 88.025C37.8203 88.1906 37.9393 88.3938 38.0221 88.6344C38.1049 88.8725 38.1463 89.165 38.1463 89.5117V89.9077H35.1418C35.1418 90.4123 35.2686 90.7979 35.5222 91.0645C35.7758 91.331 36.1265 91.4643 36.5742 91.4643C36.7346 91.4643 36.8912 91.4462 37.0439 91.41C37.1992 91.3737 37.3389 91.3271 37.4631 91.2702C37.5951 91.2107 37.7064 91.1538 37.797 91.0994C37.8875 91.0425 37.9626 90.9894 38.0221 90.9403H38.0648V91.736C37.9794 91.7697 37.8733 91.8124 37.7465 91.8641C37.6197 91.9133 37.5058 91.9521 37.4049 91.9806C37.2626 92.0194 37.1332 92.0492 37.0167 92.0699C36.9029 92.0906 36.7579 92.1009 36.582 92.1009ZM37.436 89.3487C37.4308 89.152 37.4075 88.9825 37.3661 88.8402C37.3247 88.6979 37.2652 88.5775 37.1875 88.4792C37.1021 88.3705 36.9921 88.2877 36.8576 88.2307C36.7256 88.1738 36.5613 88.1453 36.3646 88.1453C36.1705 88.1453 36.0049 88.1751 35.8677 88.2346C35.7331 88.2916 35.6102 88.3757 35.4989 88.4869C35.3902 88.6008 35.3074 88.7276 35.2505 88.8674C35.1936 89.0045 35.1573 89.165 35.1418 89.3487H37.436ZM40.6074 92.097C40.3098 92.097 40.0368 92.0518 39.7884 91.9612C39.5399 91.868 39.3264 91.7283 39.1478 91.5419C38.9693 91.3556 38.8308 91.1214 38.7325 90.8393C38.6342 90.5547 38.585 90.2208 38.585 89.8378C38.585 89.4574 38.6354 89.1287 38.7364 88.8518C38.8399 88.5749 38.977 88.342 39.1478 88.1531C39.3187 87.9642 39.5309 87.8193 39.7845 87.7183C40.0407 87.6148 40.315 87.5631 40.6074 87.5631C40.8455 87.5631 41.0745 87.5967 41.2945 87.664C41.5171 87.7313 41.715 87.8089 41.8884 87.8969V88.716H41.8457C41.794 88.672 41.7267 88.6215 41.6439 88.5646C41.5636 88.5076 41.4653 88.4494 41.3489 88.3899C41.2479 88.3381 41.1289 88.2928 40.9917 88.254C40.8546 88.2152 40.7226 88.1958 40.5958 88.1958C40.2179 88.1958 39.9139 88.3394 39.6835 88.6267C39.4558 88.9114 39.3419 89.3151 39.3419 89.8378C39.3419 90.3502 39.4519 90.75 39.6719 91.0373C39.8945 91.322 40.2024 91.4643 40.5958 91.4643C40.8339 91.4643 41.0603 91.4151 41.2751 91.3168C41.4899 91.2185 41.6801 91.0917 41.8457 90.9364H41.8884V91.7554C41.816 91.7891 41.7254 91.8305 41.6167 91.8797C41.508 91.9262 41.4097 91.9612 41.3217 91.9845C41.1975 92.0207 41.0862 92.0479 40.9878 92.066C40.8895 92.0867 40.7627 92.097 40.6074 92.097ZM46.0459 92H45.1375L43.6508 90.0009H43.2859V92H42.5561V87.664H43.2859V89.5506C43.4748 89.548 43.6353 89.5092 43.7672 89.4341C43.9018 89.3565 44.0157 89.2077 44.1088 88.9877C44.1373 88.923 44.1684 88.8479 44.202 88.7625C44.2382 88.6771 44.2667 88.6021 44.2874 88.5374C44.4013 88.2191 44.5591 87.9939 44.761 87.862C44.9628 87.73 45.2255 87.664 45.549 87.664H45.747V88.2928H45.5801C45.3756 88.2928 45.2216 88.3355 45.1181 88.4209C45.0172 88.5038 44.9318 88.6564 44.8619 88.879C44.7895 89.1042 44.7041 89.2801 44.6057 89.4069C44.5074 89.5312 44.3987 89.6269 44.2796 89.6942L46.0459 92ZM49.9394 92H49.2173V88.7664L47.1755 92H46.5156V87.664H47.2376V90.8471L49.2561 87.664H49.9394V92ZM52.8779 92.1009C52.1869 92.1009 51.65 91.9068 51.2669 91.5187C50.8865 91.1279 50.6963 90.5741 50.6963 89.8572C50.6963 89.1507 50.8813 88.5892 51.2514 88.1725C51.6215 87.7533 52.1054 87.5437 52.7032 87.5437C52.9724 87.5437 53.2104 87.5825 53.4175 87.6601C53.6245 87.7377 53.8057 87.8594 53.9609 88.025C54.1162 88.1906 54.2353 88.3938 54.3181 88.6344C54.4009 88.8725 54.4423 89.165 54.4423 89.5117V89.9077H51.4377C51.4377 90.4123 51.5646 90.7979 51.8182 91.0645C52.0718 91.331 52.4224 91.4643 52.8701 91.4643C53.0306 91.4643 53.1872 91.4462 53.3398 91.41C53.4951 91.3737 53.6349 91.3271 53.7591 91.2702C53.8911 91.2107 54.0023 91.1538 54.0929 91.0994C54.1835 91.0425 54.2585 90.9894 54.3181 90.9403H54.3608V91.736C54.2754 91.7697 54.1693 91.8124 54.0425 91.8641C53.9156 91.9133 53.8018 91.9521 53.7009 91.9806C53.5585 92.0194 53.4291 92.0492 53.3127 92.0699C53.1988 92.0906 53.0539 92.1009 52.8779 92.1009ZM53.7319 89.3487C53.7267 89.152 53.7034 88.9825 53.662 88.8402C53.6206 88.6979 53.5611 88.5775 53.4835 88.4792C53.3981 88.3705 53.2881 88.2877 53.1535 88.2307C53.0215 88.1738 52.8572 88.1453 52.6605 88.1453C52.4664 88.1453 52.3008 88.1751 52.1636 88.2346C52.0291 88.2916 51.9062 88.3757 51.7949 88.4869C51.6862 88.6008 51.6034 88.7276 51.5464 88.8674C51.4895 89.0045 51.4533 89.165 51.4377 89.3487H53.7319ZM61.088 92H60.3582V88.2928H58.394V92H57.6642V87.664H61.088V92ZM65.7113 89.8339C65.7113 90.5637 65.5353 91.1279 65.1833 91.5264C64.8314 91.9224 64.363 92.1203 63.7781 92.1203C63.1751 92.1203 62.7002 91.9159 62.3535 91.507C62.0093 91.0955 61.8372 90.5378 61.8372 89.8339C61.8372 89.1093 62.0145 88.5465 62.369 88.1453C62.7261 87.7442 63.1958 87.5437 63.7781 87.5437C64.363 87.5437 64.8314 87.7442 65.1833 88.1453C65.5353 88.5439 65.7113 89.1067 65.7113 89.8339ZM64.9582 89.8339C64.9582 89.2724 64.856 88.8557 64.6515 88.584C64.4471 88.3097 64.1559 88.1725 63.7781 88.1725C63.3977 88.1725 63.104 88.3097 62.8969 88.584C62.6925 88.8557 62.5903 89.2724 62.5903 89.8339C62.5903 90.3774 62.6925 90.7902 62.8969 91.0722C63.104 91.3517 63.3977 91.4915 63.7781 91.4915C64.1533 91.4915 64.4432 91.3543 64.6476 91.08C64.8547 90.8031 64.9582 90.3877 64.9582 89.8339ZM69.9502 92H69.0419L67.5551 90.0009H67.1902V92H66.4604V87.664H67.1902V89.5506C67.3791 89.548 67.5396 89.5092 67.6716 89.4341C67.8062 89.3565 67.92 89.2077 68.0132 88.9877C68.0416 88.923 68.0727 88.8479 68.1063 88.7625C68.1426 88.6771 68.171 88.6021 68.1917 88.5374C68.3056 88.2191 68.4635 87.9939 68.6653 87.862C68.8672 87.73 69.1299 87.664 69.4533 87.664H69.6513V88.2928H69.4844C69.28 88.2928 69.126 88.3355 69.0225 88.4209C68.9215 88.5038 68.8361 88.6564 68.7663 88.879C68.6938 89.1042 68.6084 89.2801 68.5101 89.4069C68.4117 89.5312 68.303 89.6269 68.184 89.6942L69.9502 92ZM72.8422 90.9325V89.7291C72.6688 89.7447 72.4488 89.7667 72.1823 89.7951C71.9183 89.821 71.7048 89.8585 71.5418 89.9077C71.3477 89.9672 71.1872 90.0591 71.0604 90.1833C70.9336 90.3049 70.8702 90.4757 70.8702 90.6957C70.8702 90.9441 70.9401 91.1318 71.0798 91.2586C71.2196 91.3854 71.424 91.4488 71.6932 91.4488C71.9235 91.4488 72.1318 91.3996 72.3181 91.3013C72.5045 91.2003 72.6791 91.0774 72.8422 90.9325ZM72.8422 91.5381C72.7827 91.5821 72.7024 91.6442 72.6015 91.7244C72.5032 91.802 72.4074 91.8641 72.3143 91.9107C72.1849 91.978 72.0593 92.0298 71.9377 92.066C71.8187 92.1022 71.6505 92.1203 71.4331 92.1203C71.2545 92.1203 71.085 92.0867 70.9246 92.0194C70.7641 91.9521 70.6231 91.8577 70.5014 91.736C70.385 91.617 70.2918 91.4708 70.2219 91.2974C70.1521 91.1214 70.1171 90.9364 70.1171 90.7423C70.1171 90.4421 70.1805 90.1872 70.3073 89.9776C70.4342 89.7654 70.6347 89.5971 70.909 89.4729C71.1523 89.3616 71.4395 89.2853 71.7708 89.2439C72.102 89.1999 72.4592 89.1676 72.8422 89.1469V89.0071C72.8422 88.8363 72.8163 88.6991 72.7645 88.5956C72.7128 88.4895 72.6403 88.408 72.5472 88.3511C72.454 88.2916 72.3401 88.2527 72.2056 88.2346C72.071 88.2139 71.9325 88.2036 71.7902 88.2036C71.622 88.2036 71.424 88.2294 71.1963 88.2812C70.9686 88.3304 70.7408 88.4028 70.5131 88.4986H70.4704V87.7572C70.605 87.7183 70.7978 87.6756 71.0488 87.6291C71.2998 87.5825 71.5482 87.5592 71.7941 87.5592C72.0917 87.5592 72.3427 87.5825 72.5472 87.6291C72.7516 87.6756 72.9353 87.7597 73.0984 87.8814C73.2562 88.0004 73.374 88.1544 73.4516 88.3433C73.5293 88.5322 73.5681 88.7625 73.5681 89.0343V92H72.8422V91.5381ZM77.4693 90.8005C77.4693 91.0438 77.4163 91.2495 77.3102 91.4177C77.2041 91.5859 77.0682 91.7192 76.9026 91.8176C76.7447 91.9133 76.5649 91.9845 76.363 92.0311C76.1612 92.0776 75.9593 92.1009 75.7574 92.1009C75.4728 92.1009 75.2036 92.0725 74.95 92.0155C74.6964 91.9612 74.4441 91.8732 74.1931 91.7516V90.9441H74.2396C74.4156 91.1072 74.6356 91.2366 74.8996 91.3323C75.1661 91.4255 75.4314 91.4721 75.6953 91.4721C75.8092 91.4721 75.9308 91.4604 76.0602 91.4371C76.1922 91.4113 76.3035 91.3724 76.3941 91.3207C76.5131 91.2482 76.5972 91.1706 76.6464 91.0878C76.6981 91.005 76.724 90.8911 76.724 90.7462C76.724 90.5909 76.6943 90.4667 76.6347 90.3735C76.5778 90.2778 76.4989 90.2066 76.3979 90.16C76.297 90.1134 76.1832 90.085 76.0563 90.0746C75.9321 90.0617 75.8001 90.0552 75.6604 90.0552H75.148V89.4263H75.5401C75.6384 89.4263 75.7613 89.4238 75.9088 89.4186C76.0563 89.4108 76.1741 89.3901 76.2621 89.3565C76.3734 89.3151 76.4626 89.2568 76.5299 89.1818C76.5972 89.1042 76.6309 88.9748 76.6309 88.7936C76.6309 88.6668 76.6024 88.5646 76.5455 88.4869C76.4885 88.4093 76.4174 88.3485 76.332 88.3045C76.244 88.2579 76.1482 88.2269 76.0447 88.2113C75.9412 88.1932 75.8416 88.1842 75.7458 88.1842C75.5 88.1842 75.2632 88.2191 75.0354 88.289C74.8103 88.3563 74.6162 88.4572 74.4531 88.5917H74.4066V87.8037C74.5929 87.739 74.7986 87.6821 75.0238 87.6329C75.2515 87.5838 75.4792 87.5592 75.707 87.5592C75.8907 87.5592 76.0771 87.5786 76.266 87.6174C76.4575 87.6536 76.6386 87.717 76.8094 87.8076C76.9699 87.8956 77.1044 88.0172 77.2131 88.1725C77.3218 88.3252 77.3762 88.5128 77.3762 88.7354C77.3762 88.9709 77.3089 89.1779 77.1743 89.3565C77.0423 89.5324 76.8664 89.6489 76.6464 89.7058V89.733C76.8871 89.8158 77.0837 89.9426 77.2364 90.1134C77.3917 90.2842 77.4693 90.5133 77.4693 90.8005ZM80.6602 90.9325V89.7291C80.4868 89.7447 80.2668 89.7667 80.0003 89.7951C79.7363 89.821 79.5228 89.8585 79.3598 89.9077C79.1657 89.9672 79.0052 90.0591 78.8784 90.1833C78.7516 90.3049 78.6882 90.4757 78.6882 90.6957C78.6882 90.9441 78.7581 91.1318 78.8978 91.2586C79.0376 91.3854 79.242 91.4488 79.5112 91.4488C79.7415 91.4488 79.9498 91.3996 80.1362 91.3013C80.3225 91.2003 80.4972 91.0774 80.6602 90.9325ZM80.6602 91.5381C80.6007 91.5821 80.5205 91.6442 80.4195 91.7244C80.3212 91.802 80.2254 91.8641 80.1323 91.9107C80.0029 91.978 79.8774 92.0298 79.7557 92.066C79.6367 92.1022 79.4685 92.1203 79.2511 92.1203C79.0725 92.1203 78.903 92.0867 78.7426 92.0194C78.5821 91.9521 78.4411 91.8577 78.3195 91.736C78.203 91.617 78.1098 91.4708 78.04 91.2974C77.9701 91.1214 77.9352 90.9364 77.9352 90.7423C77.9352 90.4421 77.9986 90.1872 78.1254 89.9776C78.2522 89.7654 78.4527 89.5971 78.727 89.4729C78.9703 89.3616 79.2576 89.2853 79.5888 89.2439C79.9201 89.1999 80.2772 89.1676 80.6602 89.1469V89.0071C80.6602 88.8363 80.6343 88.6991 80.5826 88.5956C80.5308 88.4895 80.4583 88.408 80.3652 88.3511C80.272 88.2916 80.1582 88.2527 80.0236 88.2346C79.889 88.2139 79.7506 88.2036 79.6082 88.2036C79.44 88.2036 79.242 88.2294 79.0143 88.2812C78.7866 88.3304 78.5588 88.4028 78.3311 88.4986H78.2884V87.7572C78.423 87.7183 78.6158 87.6756 78.8668 87.6291C79.1178 87.5825 79.3663 87.5592 79.6121 87.5592C79.9097 87.5592 80.1607 87.5825 80.3652 87.6291C80.5696 87.6756 80.7534 87.7597 80.9164 87.8814C81.0743 88.0004 81.192 88.1544 81.2697 88.3433C81.3473 88.5322 81.3861 88.7625 81.3861 89.0343V92H80.6602V91.5381ZM85.5824 88.3045H84.1073V92H83.3775V88.3045H81.9024V87.664H85.5824V88.3045ZM88.0085 92.1009C87.3176 92.1009 86.7806 91.9068 86.3976 91.5187C86.0171 91.1279 85.8269 90.5741 85.8269 89.8572C85.8269 89.1507 86.012 88.5892 86.382 88.1725C86.7521 87.7533 87.236 87.5437 87.8338 87.5437C88.103 87.5437 88.3411 87.5825 88.5481 87.6601C88.7551 87.7377 88.9363 87.8594 89.0916 88.025C89.2468 88.1906 89.3659 88.3938 89.4487 88.6344C89.5315 88.8725 89.5729 89.165 89.5729 89.5117V89.9077H86.5684C86.5684 90.4123 86.6952 90.7979 86.9488 91.0645C87.2024 91.331 87.5531 91.4643 88.0008 91.4643C88.1612 91.4643 88.3178 91.4462 88.4705 91.41C88.6257 91.3737 88.7655 91.3271 88.8897 91.2702C89.0217 91.2107 89.133 91.1538 89.2235 91.0994C89.3141 91.0425 89.3892 90.9894 89.4487 90.9403H89.4914V91.736C89.406 91.7697 89.2999 91.8124 89.1731 91.8641C89.0463 91.9133 88.9324 91.9521 88.8315 91.9806C88.6891 92.0194 88.5597 92.0492 88.4433 92.0699C88.3294 92.0906 88.1845 92.1009 88.0085 92.1009ZM88.8625 89.3487C88.8573 89.152 88.8341 88.9825 88.7927 88.8402C88.7512 88.6979 88.6917 88.5775 88.6141 88.4792C88.5287 88.3705 88.4187 88.2877 88.2841 88.2307C88.1521 88.1738 87.9878 88.1453 87.7911 88.1453C87.597 88.1453 87.4314 88.1751 87.2943 88.2346C87.1597 88.2916 87.0368 88.3757 86.9255 88.4869C86.8168 88.6008 86.734 88.7276 86.6771 88.8674C86.6201 89.0045 86.5839 89.165 86.5684 89.3487H88.8625ZM93.6682 92H92.9384V88.2773H91.4478C91.4401 88.4921 91.4323 88.6991 91.4245 88.8984C91.4168 89.0951 91.409 89.2737 91.4012 89.4341C91.3857 89.8404 91.3585 90.1807 91.3197 90.455C91.2835 90.7293 91.2369 90.9493 91.18 91.1149C91.123 91.2857 91.0596 91.419 90.9898 91.5148C90.9225 91.6105 90.8461 91.6972 90.7607 91.7749C90.6728 91.8525 90.5783 91.9107 90.4774 91.9495C90.3764 91.9884 90.2626 92.0078 90.1358 92.0078C90.0944 92.0078 90.0413 92.0065 89.9766 92.0039C89.9119 92.0013 89.8666 92 89.8407 92V91.3634H89.8796C89.8977 91.3634 89.9158 91.3647 89.9339 91.3673C89.9546 91.3698 89.9779 91.3711 90.0038 91.3711C90.0659 91.3711 90.1267 91.3621 90.1862 91.344C90.2457 91.3259 90.2988 91.2922 90.3454 91.243C90.4748 91.1162 90.5692 90.895 90.6288 90.5792C90.6883 90.2609 90.731 89.8171 90.7569 89.2478C90.7672 89.0356 90.7763 88.7845 90.784 88.4947C90.7944 88.2049 90.8034 87.928 90.8112 87.664H93.6682V92ZM98.1518 92H97.4297V88.7664L95.3879 92H94.728V87.664H95.45V90.8471L97.4685 87.664H98.1518V92Z" fill="#303549"/>
<path d="M110.46 65.7599C111.106 65.7599 111.63 65.2361 111.63 64.5899C111.63 63.9437 111.106 63.4199 110.46 63.4199C109.814 63.4199 109.29 63.9437 109.29 64.5899C109.29 65.2361 109.814 65.7599 110.46 65.7599Z" fill="#F5F8FD"/>
<path d="M110.46 63.7598C110.569 63.7598 110.677 63.7813 110.778 63.823C110.878 63.8647 110.97 63.9259 111.047 64.0029C111.124 64.08 111.185 64.1715 111.227 64.2722C111.268 64.3729 111.29 64.4808 111.29 64.5898C111.29 64.81 111.203 65.0211 111.047 65.1767C110.891 65.3324 110.68 65.4198 110.46 65.4198C110.24 65.4198 110.029 65.3324 109.873 65.1767C109.717 65.0211 109.63 64.81 109.63 64.5898C109.63 64.3697 109.717 64.1586 109.873 64.0029C110.029 63.8473 110.24 63.7598 110.46 63.7598ZM110.46 63.0898C110.163 63.0898 109.873 63.1778 109.627 63.3426C109.38 63.5075 109.188 63.7417 109.074 64.0158C108.961 64.2899 108.931 64.5915 108.989 64.8825C109.047 65.1735 109.19 65.4407 109.399 65.6505C109.609 65.8603 109.876 66.0031 110.167 66.061C110.458 66.1189 110.76 66.0892 111.034 65.9757C111.308 65.8621 111.542 65.6699 111.707 65.4232C111.872 65.1765 111.96 64.8865 111.96 64.5898C111.96 64.192 111.802 63.8105 111.521 63.5292C111.239 63.2479 110.858 63.0898 110.46 63.0898Z" fill="#0089FF"/>
<path d="M216.26 65.7599C216.906 65.7599 217.43 65.2361 217.43 64.5899C217.43 63.9437 216.906 63.4199 216.26 63.4199C215.614 63.4199 215.09 63.9437 215.09 64.5899C215.09 65.2361 215.614 65.7599 216.26 65.7599Z" fill="#F5F8FD"/>
<path d="M216.26 63.7598C216.481 63.7598 216.693 63.847 216.85 64.0023C217.008 64.1577 217.097 64.3688 217.1 64.5898C217.097 64.8118 217.008 65.024 216.851 65.1809C216.694 65.3379 216.482 65.4272 216.26 65.4298C216.039 65.4272 215.828 65.3376 215.672 65.1803C215.517 65.0231 215.43 64.8109 215.43 64.5898C215.43 64.3697 215.517 64.1586 215.673 64.0029C215.829 63.8473 216.04 63.7598 216.26 63.7598ZM216.26 63.0898C215.963 63.0898 215.673 63.1778 215.427 63.3426C215.18 63.5075 214.988 63.7417 214.874 64.0158C214.761 64.2899 214.731 64.5915 214.789 64.8825C214.847 65.1735 214.99 65.4407 215.199 65.6505C215.409 65.8603 215.676 66.0031 215.967 66.061C216.258 66.1189 216.56 66.0892 216.834 65.9757C217.108 65.8621 217.342 65.6699 217.507 65.4232C217.672 65.1765 217.76 64.8865 217.76 64.5898C217.76 64.192 217.602 63.8105 217.321 63.5292C217.039 63.2479 216.658 63.0898 216.26 63.0898Z" fill="#0089FF"/>
<mask id="mask0" mask-type="alpha" maskUnits="userSpaceOnUse" x="109" y="5" width="108" height="108">
<path d="M163.13 6.11011C152.668 6.10616 142.441 9.20474 133.74 15.014C125.04 20.8232 118.258 29.0821 114.252 38.7461C110.246 48.4102 109.195 59.0452 111.234 69.3062C113.272 79.5671 118.308 88.9931 125.704 96.3919C133.1 103.791 142.524 108.83 152.784 110.872C163.045 112.915 173.68 111.869 183.346 107.866C193.011 103.863 201.273 97.0844 207.085 88.3863C212.898 79.6881 216 69.4616 216 59.0001C216 44.9763 210.43 31.5265 200.516 21.6083C190.601 11.6901 177.154 6.11541 163.13 6.11011Z" fill="#1B1E27" stroke="#3FA9F5" stroke-width="0.5" stroke-miterlimit="10" stroke-dasharray="1.52 1.52"/>
</mask>
<g mask="url(#mask0)">
<path opacity="0.1" d="M-29.4017 82.2558V-49.4835L42.6945 -138H225.873L265.774 -60.3228V-21.9414H340.332V10.1462L239.846 123.3H59.989V82.2558H-29.4017Z" fill="#0089FF"/>
<path d="M-29.4017 82.2559V-49.4835L42.6945 -138H225.873L265.774 -60.3228V-21.9414H340.332V10.1462L239.846 123.3H59.989V82.2559H-29.4017Z" stroke="#0089FF" stroke-width="0.2" stroke-miterlimit="10"/>
<path opacity="0.15" d="M126 55H102V82H126V55Z" fill="#0089FF"/>
<path d="M126 55H102V82H126V55Z" stroke="#0089FF" stroke-width="0.2" stroke-miterlimit="10"/>
<path opacity="0.15" d="M166 55H127V69H166V55Z" fill="#0089FF"/>
<path d="M166 55H127V69H166V55Z" stroke="#0089FF" stroke-width="0.2" stroke-miterlimit="10"/>
<path opacity="0.15" d="M205 55H167V98H205V55Z" fill="#0089FF"/>
<path opacity="0.5" d="M205 55H167V98H205V55Z" stroke="#0089FF" stroke-width="0.2" stroke-miterlimit="10"/>
<path opacity="0.15" d="M236 99H167V117H236V99Z" fill="#0089FF"/>
<path d="M236 99H167V117H236V99Z" stroke="#0089FF" stroke-width="0.2" stroke-miterlimit="10"/>
<path opacity="0.15" d="M259 55H206V98H259V55Z" fill="#0089FF"/>
<path opacity="0.5" d="M259 55H206V98H259V55Z" stroke="#0089FF" stroke-width="0.2" stroke-miterlimit="10"/>
<path opacity="0.15" d="M166 70H127V82H166V70Z" fill="#0089FF"/>
<path d="M166 70H127V82H166V70Z" stroke="#0089FF" stroke-width="0.2" stroke-miterlimit="10"/>
<path opacity="0.15" d="M166 83H86V116H166V83Z" fill="#0089FF"/>
<path opacity="0.5" d="M166 83H86V116H166V83Z" stroke="#0089FF" stroke-width="0.2" stroke-miterlimit="10"/>
<path opacity="0.15" d="M166 24H101V54H166V24Z" fill="#0089FF"/>
<path opacity="0.5" d="M166 24H101V54H166V24Z" stroke="#0089FF" stroke-width="0.2" stroke-miterlimit="10"/>
<path opacity="0.15" d="M205 24H167V54H205V24Z" fill="#0089FF"/>
<path d="M205 24H167V54H205V24Z" stroke="#0089FF" stroke-width="0.2" stroke-miterlimit="10"/>
<path opacity="0.15" d="M259 24H206V54H259V24Z" fill="#0089FF"/>
<path d="M259 24H206V54H259V24Z" stroke="#0089FF" stroke-width="0.2" stroke-miterlimit="10"/>
<path opacity="0.15" d="M116.082 -22.0894H100.656V21.8865H116.082V-22.0894Z" fill="#0089FF"/>
<path opacity="0.5" d="M116.082 -22.0894H100.656V21.8865H116.082V-22.0894Z" stroke="#0089FF" stroke-width="0.2" stroke-miterlimit="10"/>
<path opacity="0.15" d="M166 -22H119V23H166V-22Z" fill="#0089FF"/>
<path d="M166 -22H119V23H166V-22Z" stroke="#0089FF" stroke-width="0.2" stroke-miterlimit="10"/>
<path opacity="0.15" d="M205 -22H167V23H205V-22Z" fill="#0089FF"/>
<path opacity="0.5" d="M205 -22H167V23H205V-22Z" stroke="#0089FF" stroke-width="0.2" stroke-miterlimit="10"/>
<path opacity="0.15" d="M258.633 4.26929H207.086V21.8865H258.633V4.26929Z" fill="#0089FF"/>
<path opacity="0.5" d="M258.633 4.26929H207.086V21.8865H258.633V4.26929Z" stroke="#0089FF" stroke-width="0.2" stroke-miterlimit="10"/>
<path d="M163.13 74.1401C171.492 74.1401 178.27 67.3617 178.27 59.0001C178.27 50.6385 171.492 43.8601 163.13 43.8601C154.768 43.8601 147.99 50.6385 147.99 59.0001C147.99 67.3617 154.768 74.1401 163.13 74.1401Z" fill="#F5F8FD" stroke="#F5F8FD" stroke-miterlimit="10"/>
<path d="M170.19 65.0001C170.06 65.0001 169.92 65.0001 169.78 65.0001C169.78 64.7201 169.78 64.4801 169.78 64.2301C169.801 64.0774 169.801 63.9227 169.78 63.7701C169.32 62.2701 168.87 60.7701 168.4 59.2901C168.116 58.5608 167.98 57.7824 168 57.0001C168 56.6901 167.9 56.5901 167.6 56.5901H164.48C164.15 56.5901 164.04 56.6901 164.04 57.0201V57.7301C163.66 57.7301 163.56 57.8501 163.54 58.0401C163.52 58.2301 163.6 58.3201 163.92 58.4301C163.74 59.0201 163.56 59.6201 163.37 60.2101C163.354 60.1983 163.34 60.1833 163.33 60.1662C163.32 60.149 163.313 60.1299 163.31 60.1101V59.0301C163.31 58.7101 163.21 58.6001 162.89 58.6001H160.59C160.54 58.5935 160.489 58.5986 160.441 58.6149C160.393 58.6311 160.35 58.6582 160.314 58.694C160.278 58.7297 160.251 58.7732 160.235 58.8211C160.218 58.869 160.213 58.9199 160.22 58.9701C160.22 59.0701 160.22 59.1801 160.22 59.2801C160.239 59.6905 160.181 60.1007 160.05 60.4901C159.87 61.0001 159.72 61.4901 159.56 62.0401C159.555 61.9936 159.555 61.9466 159.56 61.9001V61.4901C159.56 61.1801 159.46 61.0801 159.15 61.0801H157.7C157.39 61.0801 157.28 61.1801 157.29 61.5001C157.302 61.8186 157.258 62.1367 157.16 62.4401C156.97 63.0201 156.79 63.6101 156.61 64.2001C156.55 64.4301 156.51 64.6701 156.47 64.9101C156.43 65.1501 156.47 65.0301 156.34 65.0301C156.17 65.0201 156 65.0201 155.83 65.0301C155.757 65.0352 155.688 65.0679 155.638 65.1218C155.588 65.1756 155.56 65.2465 155.56 65.3201C155.553 65.3935 155.572 65.467 155.614 65.5275C155.656 65.5879 155.719 65.6314 155.79 65.6501H155.98H170.19C170.42 65.6501 170.56 65.5201 170.56 65.3201C170.56 65.1201 170.43 65.0001 170.19 65.0001ZM159 63.4601C158.979 63.5778 158.942 63.6921 158.89 63.8001C158.77 64.1189 158.725 64.4612 158.76 64.8001C158.76 64.9301 158.76 64.9801 158.6 64.9701C158.44 64.9601 158.15 64.9701 157.93 64.9701H157.24C157.15 64.9701 157.1 64.9701 157.12 64.8401C157.115 64.7602 157.115 64.68 157.12 64.6001C157.35 63.8401 157.59 63.0901 157.82 62.3301C157.866 62.1739 157.893 62.0127 157.9 61.8501C157.9 61.7601 157.9 61.7101 158.04 61.7101H158.6C158.625 61.7139 158.648 61.7243 158.667 61.7401C158.687 61.7559 158.701 61.7766 158.71 61.8001C158.8 62.2601 158.89 62.7201 158.97 63.1801C158.994 63.2714 159.004 63.3658 159 63.4601ZM162.28 63.4601C162.273 63.5008 162.25 63.5372 162.216 63.5614C162.183 63.5856 162.141 63.5959 162.1 63.5901C161.78 63.5901 161.64 63.7101 161.63 63.9201C161.62 64.1301 161.77 64.2401 162.09 64.2601H162.15V64.8301C162.15 64.9501 162.06 64.9301 161.99 64.9301H159.75C159.44 64.9301 159.46 64.9301 159.44 64.6301C159.447 64.2609 159.529 63.8969 159.68 63.5601C160.02 62.4101 160.39 61.2801 160.68 60.1301C160.735 59.8841 160.755 59.6317 160.74 59.3801C160.74 59.2301 160.74 59.1801 160.93 59.1801H162.36C162.44 59.1801 162.52 59.1801 162.52 59.2901C162.525 60.0116 162.615 60.73 162.79 61.4301C162.805 61.506 162.805 61.5842 162.79 61.6601L162.28 63.4601ZM168.85 65.0001H163C162.79 65.0001 162.79 65.0001 162.79 64.8001V64.3101H167C167.21 64.3101 167.34 64.2401 167.39 64.0901C167.407 64.0385 167.41 63.9836 167.401 63.9303C167.391 63.877 167.368 63.8269 167.335 63.7844C167.301 63.7419 167.258 63.7083 167.208 63.6866C167.158 63.665 167.104 63.6558 167.05 63.6601H163.05V63.5001C163.557 61.8468 164.063 60.1801 164.57 58.5001C164.574 58.4776 164.582 58.4561 164.594 58.4368C164.606 58.4175 164.622 58.4008 164.64 58.3878C164.659 58.3747 164.68 58.3655 164.702 58.3608C164.725 58.356 164.748 58.3558 164.77 58.3601H166.11C166.35 58.3601 166.5 58.2401 166.49 58.0301C166.48 57.8201 166.35 57.7101 166.1 57.7101H164.71V57.2101H167.35C167.35 57.3501 167.35 57.4901 167.35 57.6201C167.335 57.9183 167.376 58.2168 167.47 58.5001C168.03 60.2901 168.59 62.0801 169.13 63.8801C169.165 64.1523 169.165 64.4279 169.13 64.7001C169.13 65.0001 169.15 65.0001 168.85 65.0001Z" fill="#0089FF"/>
<path d="M159 55.4301C159.477 55.5537 159.98 55.5343 160.445 55.3743C160.911 55.2142 161.32 54.9206 161.62 54.5301L161.72 54.3901C162.033 54.6462 162.412 54.8091 162.813 54.8604C163.215 54.9117 163.622 54.8492 163.99 54.6801L164.09 54.8901C164.297 55.3216 164.644 55.6708 165.074 55.8813C165.504 56.0917 165.992 56.1512 166.46 56.0501C166.922 55.9531 167.337 55.7027 167.639 55.3395C167.94 54.9764 168.11 54.5219 168.12 54.0501C168.141 53.6014 168.014 53.1582 167.759 52.7882C167.505 52.4181 167.136 52.1413 166.71 52.0001C166.665 51.9881 166.624 51.9625 166.594 51.9267C166.563 51.891 166.545 51.8468 166.54 51.8001C166.465 51.4912 166.321 51.2031 166.12 50.9571C165.919 50.7112 165.664 50.5137 165.376 50.3792C165.088 50.2448 164.774 50.1769 164.456 50.1805C164.138 50.1841 163.825 50.2591 163.54 50.4001C163.52 50.42 163.497 50.4359 163.471 50.4467C163.446 50.4575 163.418 50.4631 163.39 50.4631C163.362 50.4631 163.334 50.4575 163.309 50.4467C163.283 50.4359 163.26 50.42 163.24 50.4001C163.044 50.2005 162.811 50.042 162.554 49.9338C162.296 49.8255 162.019 49.7698 161.74 49.7698C161.461 49.7698 161.184 49.8255 160.926 49.9338C160.669 50.042 160.436 50.2005 160.24 50.4001C160.19 50.4582 160.126 50.5031 160.055 50.531C159.983 50.5589 159.906 50.5689 159.83 50.5601C159.2 50.4998 158.571 50.6806 158.069 51.0662C157.567 51.4518 157.23 52.0134 157.126 52.6377C157.022 53.262 157.158 53.9025 157.508 54.43C157.858 54.9576 158.394 55.3328 159.01 55.4801L159 55.4301ZM159.65 51.1501C159.955 51.1516 160.254 51.2292 160.522 51.3759C160.789 51.5226 161.015 51.7337 161.18 51.9901C161.23 52.0788 161.307 52.149 161.4 52.1901C161.462 52.2185 161.532 52.2241 161.598 52.2058C161.664 52.1875 161.721 52.1465 161.76 52.0901C161.806 52.0357 161.832 51.9666 161.832 51.8951C161.832 51.8236 161.806 51.7544 161.76 51.7001C161.546 51.3424 161.243 51.0461 160.88 50.8401L160.76 50.7601C160.904 50.6226 161.075 50.517 161.263 50.4505C161.45 50.3839 161.65 50.3578 161.848 50.3738C162.047 50.3899 162.239 50.4478 162.414 50.5436C162.588 50.6395 162.74 50.7712 162.86 50.9301C162.627 51.2196 162.472 51.5638 162.41 51.9301C162.395 52.0897 162.395 52.2504 162.41 52.4101C162.404 52.4584 162.409 52.5074 162.424 52.5537C162.439 52.5999 162.464 52.6423 162.498 52.6776C162.531 52.713 162.572 52.7405 162.617 52.7582C162.663 52.7759 162.711 52.7834 162.76 52.7801C162.95 52.7801 163.07 52.6201 163.07 52.3901C163.053 52.0067 163.188 51.632 163.444 51.3462C163.699 51.0603 164.057 50.8858 164.44 50.8601C164.762 50.8382 165.081 50.9248 165.348 51.1061C165.614 51.2874 165.812 51.5529 165.91 51.8601L165.57 51.9201C165.255 51.9825 164.96 52.1197 164.71 52.3201C164.666 52.3482 164.629 52.3858 164.602 52.43C164.574 52.4743 164.557 52.5241 164.551 52.5758C164.546 52.6275 164.552 52.6799 164.569 52.7291C164.586 52.7782 164.613 52.823 164.65 52.8601C164.79 53.0201 164.99 53.0001 165.17 52.8601C165.296 52.7522 165.442 52.671 165.6 52.6211C165.758 52.5713 165.925 52.5539 166.09 52.5701C166.443 52.5811 166.78 52.7218 167.037 52.9652C167.293 53.2086 167.451 53.5378 167.48 53.8901C167.516 54.2385 167.425 54.5881 167.224 54.8751C167.023 55.162 166.726 55.3673 166.386 55.4534C166.047 55.5394 165.688 55.5006 165.375 55.344C165.061 55.1873 164.815 54.9233 164.68 54.6001C164.622 54.4629 164.585 54.318 164.57 54.1701C164.57 53.9601 164.48 53.8501 164.31 53.8001C164.14 53.7501 164.08 53.8001 163.92 53.9801C163.76 54.1157 163.567 54.2056 163.36 54.2401C163.082 54.3011 162.792 54.2754 162.529 54.1663C162.266 54.0572 162.043 53.87 161.89 53.6301C161.86 53.5778 161.827 53.5277 161.79 53.4801C161.744 53.4157 161.675 53.3708 161.597 53.3541C161.52 53.3375 161.439 53.3503 161.37 53.3901C161.333 53.4071 161.3 53.4314 161.273 53.4615C161.246 53.4916 161.226 53.5269 161.213 53.5652C161.199 53.6035 161.194 53.6441 161.197 53.6844C161.2 53.7248 161.211 53.7641 161.23 53.8001C161.254 53.8373 161.267 53.8807 161.267 53.9251C161.267 53.9694 161.254 54.0128 161.23 54.0501C161.01 54.399 160.68 54.6643 160.292 54.804C159.903 54.9436 159.48 54.9495 159.088 54.8208C158.696 54.6921 158.358 54.4361 158.129 54.0936C157.899 53.751 157.79 53.3415 157.82 52.9301C157.835 52.4611 158.029 52.0156 158.362 51.6847C158.694 51.3538 159.141 51.1626 159.61 51.1501H159.65Z" fill="#0089FF"/>
<path d="M166.05 60.2799C165.888 60.2649 165.725 60.2838 165.57 60.3355C165.416 60.3872 165.274 60.4706 165.154 60.5802C165.033 60.6899 164.937 60.8234 164.872 60.9723C164.806 61.1212 164.772 61.2821 164.772 61.4449C164.772 61.6077 164.806 61.7686 164.872 61.9175C164.937 62.0664 165.033 62.1999 165.154 62.3096C165.274 62.4192 165.416 62.5026 165.57 62.5543C165.725 62.606 165.888 62.6249 166.05 62.6099C166.212 62.6249 166.375 62.606 166.53 62.5543C166.684 62.5026 166.826 62.4192 166.946 62.3096C167.067 62.1999 167.163 62.0664 167.228 61.9175C167.294 61.7686 167.328 61.6077 167.328 61.4449C167.328 61.2821 167.294 61.1212 167.228 60.9723C167.163 60.8234 167.067 60.6899 166.946 60.5802C166.826 60.4706 166.684 60.3872 166.53 60.3355C166.375 60.2838 166.212 60.2649 166.05 60.2799ZM166 61.9999C165.933 62 165.866 61.9864 165.804 61.96C165.742 61.9337 165.686 61.895 165.639 61.8465C165.592 61.7979 165.556 61.7404 165.532 61.6774C165.508 61.6144 165.497 61.5472 165.5 61.4799C165.502 61.3791 165.534 61.2811 165.592 61.1983C165.649 61.1156 165.73 61.0518 165.824 61.0151C165.918 60.9783 166.021 60.9702 166.119 60.9919C166.218 61.0135 166.308 61.0638 166.378 61.1365C166.447 61.2092 166.494 61.301 166.512 61.4003C166.53 61.4996 166.518 61.6019 166.477 61.6943C166.437 61.7867 166.37 61.8651 166.285 61.9195C166.2 61.9739 166.101 62.0019 166 61.9999Z" fill="#0089FF"/>
<path d="M159.6 54.48C159.87 54.48 160.02 54.37 160.03 54.16C160.04 53.95 159.9 53.83 159.61 53.82C159.403 53.8118 159.205 53.7297 159.053 53.5885C158.9 53.4473 158.804 53.2563 158.78 53.05C158.778 53.0048 158.766 52.9606 158.746 52.9201C158.725 52.8796 158.697 52.8437 158.662 52.8146C158.628 52.7855 158.587 52.7639 158.544 52.7511C158.501 52.7382 158.455 52.7345 158.41 52.74C158.32 52.7571 158.241 52.8084 158.189 52.8831C158.136 52.9579 158.115 53.05 158.13 53.14C158.173 53.5027 158.345 53.8378 158.615 54.0839C158.885 54.3299 159.235 54.4706 159.6 54.48Z" fill="#0089FF"/>
</g>
</svg>
