<svg id="e4f8eb99-b0b8-41ff-a9f8-fbf9ae67c90d" data-name="1" xmlns="http://www.w3.org/2000/svg" viewBox="0 0 324 118"><defs><style>.a2a8f7fe-ea2d-4c97-8e4f-135f1c65c10f,.e3ed504c-3a7c-45fe-b2db-8c4659e393d8,.f3a1b022-c5e1-4254-b7df-36e42025e0f0{font-size:8.31px;font-family:Tahoma;}.e3ed504c-3a7c-45fe-b2db-8c4659e393d8{fill:#5b607d;}.baf77d63-eb0c-4518-bdd7-1faaf1d79a0b{fill:#22252e;}.a6de3983-1e70-46b4-bb62-d858b4e81691,.baf77d63-eb0c-4518-bdd7-1faaf1d79a0b{opacity:0.75;}.a2a8f7fe-ea2d-4c97-8e4f-135f1c65c10f,.a4326039-0b64-4817-a931-90d9308229e4{fill:#8c99b2;}.a6de3983-1e70-46b4-bb62-d858b4e81691{fill:none;stroke:#22252e;stroke-miterlimit:10;}.f3a1b022-c5e1-4254-b7df-36e42025e0f0{fill:#f9f9f9;}</style></defs><title>Проект1</title><text class="e3ed504c-3a7c-45fe-b2db-8c4659e393d8" transform="translate(5 109.3) scale(0.99 1)">Напишите свой комментарий... </text><circle class="baf77d63-eb0c-4518-bdd7-1faaf1d79a0b" cx="305.88" cy="102.99" r="13.12"/><path class="a4326039-0b64-4817-a931-90d9308229e4" d="M309.11,97.21a.26.26,0,0,0-.28,0l-7.76,5.22a.25.25,0,0,0-.11.24.26.26,0,0,0,.17.21l2.21.82.73,2a.26.26,0,0,0,.23.17h0a.26.26,0,0,0,.23-.14l.59-1.24,2.64,1a.24.24,0,0,0,.22,0,.26.26,0,0,0,.13-.19l1.11-7.87A.25.25,0,0,0,309.11,97.21ZM304.34,105l-.56-1.53a.25.25,0,0,0-.15-.15l-1.86-.69,5.68-3.82-3.51,3.93a.25.25,0,0,0,0,.36.25.25,0,0,0,.17.06.24.24,0,0,0,.19-.08l3.11-3.48L304.79,104h0Zm3.32,0-2.28-.92,3.16-5.34Z"/><circle class="a6de3983-1e70-46b4-bb62-d858b4e81691" cx="271.81" cy="102.99" r="13.12"/><path class="a4326039-0b64-4817-a931-90d9308229e4" d="M270.46,107.05A2.47,2.47,0,0,1,268,104.6a2.48,2.48,0,0,1,.71-1.76l0,0,3.32-3.32a1.75,1.75,0,0,1,3,1.17,1.74,1.74,0,0,1-.49,1.26l-.05,0-3.32,3.32a1.05,1.05,0,0,1-1.46,0,1,1,0,0,1-.31-.72,1,1,0,0,1,.28-.74l3.1-3.09a.3.3,0,0,1,.43.43l-3.06,3.07a.42.42,0,0,0-.14.31.39.39,0,0,0,.13.29.41.41,0,0,0,.59,0l3.33-3.33a1.15,1.15,0,0,0,.35-.85,1.1,1.1,0,0,0-.35-.8,1.14,1.14,0,0,0-1.61,0l-3.32,3.32a1.86,1.86,0,1,0,2.62,2.64l3.33-3.32a.3.3,0,1,1,.43.43l-3.32,3.32A2.44,2.44,0,0,1,270.46,107.05Z"/><text class="f3a1b022-c5e1-4254-b7df-36e42025e0f0" transform="translate(120.63 23.89)">АО «Газпромнефть МНПЗ»</text><text class="a2a8f7fe-ea2d-4c97-8e4f-135f1c65c10f" transform="translate(120.63 9.06) scale(0.99 1)">Организация:</text><text class="f3a1b022-c5e1-4254-b7df-36e42025e0f0" transform="translate(5.11 23.89)"><tspan xml:space="preserve">22.11.2019     06:30:13</tspan></text><text class="a2a8f7fe-ea2d-4c97-8e4f-135f1c65c10f" transform="translate(5.11 9.06) scale(0.99 1)">Дата / время:</text><text class="f3a1b022-c5e1-4254-b7df-36e42025e0f0" transform="translate(120.72 52.57)">Гребенщиков В.М.</text><text class="a2a8f7fe-ea2d-4c97-8e4f-135f1c65c10f" transform="translate(120.72 37.74) scale(0.99 1)">Старший оператор:</text><text class="f3a1b022-c5e1-4254-b7df-36e42025e0f0" transform="translate(5 52.57)">Бригада-3</text><text class="a2a8f7fe-ea2d-4c97-8e4f-135f1c65c10f" transform="translate(5 37.74) scale(0.99 1)">Смена:</text><text class="f3a1b022-c5e1-4254-b7df-36e42025e0f0" transform="translate(259.79 23.89)">Никонов С.Е.</text><text class="a2a8f7fe-ea2d-4c97-8e4f-135f1c65c10f" transform="translate(259.79 9.06) scale(0.99 1)">Зафиксировал:</text><text class="f3a1b022-c5e1-4254-b7df-36e42025e0f0" transform="translate(259.79 52.57)">В работе</text><text class="a2a8f7fe-ea2d-4c97-8e4f-135f1c65c10f" transform="translate(259.79 37.74) scale(0.99 1)">Статус:</text><text class="a2a8f7fe-ea2d-4c97-8e4f-135f1c65c10f" transform="translate(5.49 77.75) scale(0.99 1)">Тип происшествия:</text><text class="a2a8f7fe-ea2d-4c97-8e4f-135f1c65c10f" transform="translate(5.11 93.04) scale(0.99 1)">Установленные факты:</text></svg>