<svg width="324" height="118" viewBox="0 0 324 118" fill="none" xmlns="http://www.w3.org/2000/svg">
<g clip-path="url(#clip0)">
<path d="M122.332 22.6907C122.332 22.914 122.289 23.1166 122.202 23.2985C122.115 23.4804 121.998 23.6282 121.852 23.7418C121.678 23.8783 121.492 23.9754 121.293 24.0333C121.095 24.0912 120.839 24.1201 120.525 24.1201H119.188V19.5033H122V20.049H119.802V21.3141H120.543C120.857 21.3141 121.114 21.3327 121.312 21.3699C121.511 21.405 121.698 21.4908 121.873 21.6272C122.03 21.7492 122.146 21.9001 122.221 22.0799C122.295 22.2598 122.332 22.4634 122.332 22.6907ZM121.69 22.7031C121.69 22.5481 121.665 22.4117 121.613 22.2939C121.563 22.176 121.484 22.081 121.374 22.0086C121.26 21.9321 121.129 21.8856 120.98 21.8691C120.832 21.8526 120.622 21.8443 120.351 21.8443H119.802V23.5961H120.335C120.61 23.5961 120.821 23.5827 120.968 23.5558C121.117 23.5289 121.247 23.4773 121.359 23.4008C121.474 23.3202 121.558 23.2261 121.61 23.1186C121.663 23.0091 121.69 22.8706 121.69 22.7031ZM124.391 24.2007C123.839 24.2007 123.41 24.0457 123.104 23.7356C122.8 23.4235 122.648 22.9812 122.648 22.4086C122.648 21.8443 122.796 21.3957 123.092 21.0629C123.387 20.7281 123.774 20.5606 124.251 20.5606C124.466 20.5606 124.657 20.5917 124.822 20.6537C124.987 20.7157 125.132 20.8128 125.256 20.9451C125.38 21.0774 125.475 21.2397 125.541 21.4319C125.607 21.6221 125.641 21.8557 125.641 22.1326V22.4489H123.241C123.241 22.852 123.342 23.16 123.545 23.3729C123.747 23.5858 124.027 23.6922 124.385 23.6922C124.513 23.6922 124.638 23.6778 124.76 23.6488C124.884 23.6199 124.996 23.5827 125.095 23.5372C125.2 23.4897 125.289 23.4442 125.361 23.4008C125.434 23.3553 125.494 23.3129 125.541 23.2737H125.575V23.9093C125.507 23.9361 125.422 23.9703 125.321 24.0116C125.22 24.0509 125.129 24.0819 125.048 24.1046C124.935 24.1356 124.831 24.1594 124.738 24.1759C124.647 24.1925 124.532 24.2007 124.391 24.2007ZM125.073 22.0024C125.069 21.8453 125.05 21.7099 125.017 21.5962C124.984 21.4826 124.937 21.3864 124.875 21.3079C124.806 21.2211 124.719 21.1549 124.611 21.1094C124.506 21.064 124.374 21.0412 124.217 21.0412C124.062 21.0412 123.93 21.065 123.82 21.1125C123.713 21.158 123.615 21.2252 123.526 21.3141C123.439 21.405 123.373 21.5063 123.327 21.6179C123.282 21.7275 123.253 21.8557 123.241 22.0024H125.073ZM128.524 23.162C128.524 23.3563 128.482 23.5207 128.397 23.655C128.312 23.7894 128.204 23.8958 128.071 23.9744C127.945 24.0509 127.802 24.1077 127.64 24.1449C127.479 24.1821 127.318 24.2007 127.157 24.2007C126.929 24.2007 126.714 24.178 126.512 24.1325C126.309 24.0891 126.108 24.0188 125.907 23.9217V23.2768H125.944C126.085 23.407 126.261 23.5103 126.471 23.5868C126.684 23.6612 126.896 23.6984 127.107 23.6984C127.198 23.6984 127.295 23.6891 127.399 23.6705C127.504 23.6499 127.593 23.6189 127.665 23.5775C127.76 23.5196 127.827 23.4576 127.867 23.3915C127.908 23.3253 127.929 23.2344 127.929 23.1186C127.929 22.9946 127.905 22.8954 127.857 22.821C127.812 22.7445 127.749 22.6876 127.668 22.6504C127.588 22.6132 127.497 22.5905 127.395 22.5822C127.296 22.5719 127.191 22.5667 127.079 22.5667H126.67V22.0644H126.983C127.062 22.0644 127.16 22.0624 127.278 22.0582C127.395 22.052 127.489 22.0355 127.56 22.0086C127.649 21.9755 127.72 21.929 127.774 21.8691C127.827 21.8071 127.854 21.7037 127.854 21.559C127.854 21.4577 127.832 21.3761 127.786 21.3141C127.741 21.2521 127.684 21.2035 127.616 21.1684C127.545 21.1312 127.469 21.1063 127.386 21.0939C127.303 21.0795 127.224 21.0722 127.147 21.0722C126.951 21.0722 126.762 21.1001 126.58 21.156C126.4 21.2097 126.245 21.2903 126.115 21.3978H126.078V20.7684C126.227 20.7167 126.391 20.6712 126.571 20.632C126.753 20.5927 126.934 20.573 127.116 20.573C127.263 20.573 127.412 20.5885 127.563 20.6196C127.716 20.6485 127.861 20.6991 127.997 20.7715C128.125 20.8418 128.233 20.9389 128.319 21.0629C128.406 21.1849 128.45 21.3348 128.45 21.5125C128.45 21.7006 128.396 21.866 128.288 22.0086C128.183 22.1492 128.042 22.2422 127.867 22.2877V22.3094C128.059 22.3755 128.216 22.4768 128.338 22.6132C128.462 22.7497 128.524 22.9326 128.524 23.162ZM133.857 24.1201H133.274V21.1591H131.705V24.1201H131.122V20.6568H133.857V24.1201ZM137.55 22.39C137.55 22.9729 137.409 23.4235 137.128 23.7418C136.847 24.0581 136.473 24.2162 136.006 24.2162C135.524 24.2162 135.145 24.0529 134.868 23.7263C134.593 23.3977 134.455 22.9522 134.455 22.39C134.455 21.8112 134.597 21.3616 134.88 21.0412C135.166 20.7208 135.541 20.5606 136.006 20.5606C136.473 20.5606 136.847 20.7208 137.128 21.0412C137.409 21.3596 137.55 21.8091 137.55 22.39ZM136.948 22.39C136.948 21.9414 136.867 21.6086 136.703 21.3916C136.54 21.1725 136.308 21.0629 136.006 21.0629C135.702 21.0629 135.467 21.1725 135.302 21.3916C135.139 21.6086 135.057 21.9414 135.057 22.39C135.057 22.8241 135.139 23.1538 135.302 23.3791C135.467 23.6023 135.702 23.7139 136.006 23.7139C136.305 23.7139 136.537 23.6044 136.7 23.3853C136.866 23.1641 136.948 22.8323 136.948 22.39ZM142.353 24.1201H141.649L140.561 22.5264H140.334V24.1201H139.757V22.5264H139.531L138.424 24.1201H137.751L139.057 22.3063C138.955 22.2525 138.866 22.175 138.787 22.0737C138.708 21.9704 138.638 21.8215 138.576 21.6272C138.52 21.4515 138.454 21.3296 138.378 21.2614C138.301 21.1932 138.176 21.1591 138.003 21.1591H137.869V20.6568H138.027C138.282 20.6568 138.49 20.7084 138.654 20.8118C138.819 20.9151 138.948 21.096 139.041 21.3544C139.06 21.4081 139.083 21.4701 139.109 21.5404C139.138 21.6086 139.163 21.6665 139.184 21.7141C139.252 21.8712 139.332 21.9848 139.423 22.0551C139.514 22.1254 139.625 22.1647 139.757 22.1729V20.6568H140.334V22.1729C140.466 22.1626 140.579 22.1223 140.672 22.052C140.767 21.9817 140.848 21.8691 140.914 21.7141C140.937 21.6624 140.962 21.6024 140.988 21.5342C141.017 21.466 141.04 21.4061 141.057 21.3544C141.148 21.1001 141.274 20.9203 141.435 20.8149C141.596 20.7095 141.806 20.6568 142.064 20.6568H142.222V21.1591H142.089C141.926 21.1591 141.803 21.1932 141.72 21.2614C141.64 21.3275 141.571 21.4495 141.516 21.6272C141.458 21.8071 141.389 21.9487 141.311 22.052C141.232 22.1554 141.146 22.2339 141.05 22.2877L142.353 24.1201ZM144.722 23.2675V22.3063C144.583 22.3187 144.407 22.3362 144.194 22.359C143.984 22.3797 143.813 22.4096 143.683 22.4489C143.528 22.4964 143.4 22.5698 143.298 22.669C143.197 22.7662 143.146 22.9026 143.146 23.0783C143.146 23.2768 143.202 23.4266 143.314 23.5279C143.425 23.6292 143.589 23.6798 143.804 23.6798C143.988 23.6798 144.154 23.6406 144.303 23.562C144.452 23.4814 144.591 23.3832 144.722 23.2675ZM144.722 23.7511C144.674 23.7863 144.61 23.8359 144.529 23.9C144.451 23.962 144.374 24.0116 144.3 24.0488C144.196 24.1025 144.096 24.1439 143.999 24.1728C143.904 24.2018 143.77 24.2162 143.596 24.2162C143.453 24.2162 143.318 24.1894 143.19 24.1356C143.062 24.0819 142.949 24.0064 142.852 23.9093C142.759 23.8142 142.684 23.6974 142.629 23.5589C142.573 23.4184 142.545 23.2706 142.545 23.1155C142.545 22.8757 142.596 22.6721 142.697 22.5047C142.798 22.3352 142.958 22.2009 143.177 22.1016C143.372 22.0128 143.601 21.9518 143.866 21.9187C144.13 21.8836 144.416 21.8577 144.722 21.8412V21.7296C144.722 21.5931 144.701 21.4836 144.66 21.4009C144.618 21.3162 144.56 21.251 144.486 21.2056C144.411 21.158 144.321 21.127 144.213 21.1125C144.106 21.096 143.995 21.0877 143.881 21.0877C143.747 21.0877 143.589 21.1084 143.407 21.1498C143.225 21.189 143.043 21.2469 142.861 21.3234H142.827V20.7312C142.935 20.7002 143.089 20.6661 143.289 20.6289C143.49 20.5917 143.688 20.573 143.884 20.573C144.122 20.573 144.323 20.5917 144.486 20.6289C144.649 20.6661 144.796 20.7332 144.926 20.8304C145.052 20.9255 145.146 21.0485 145.208 21.1994C145.27 21.3503 145.301 21.5342 145.301 21.7513V24.1201H144.722V23.7511ZM149.028 22.297C149.028 22.8737 148.89 23.3336 148.613 23.6767C148.338 24.0178 147.99 24.1883 147.568 24.1883C147.396 24.1883 147.244 24.1687 147.112 24.1294C146.98 24.0901 146.844 24.0292 146.706 23.9465V25.3976H146.123V20.6568H146.706V21.0195C146.851 20.8893 147.011 20.7808 147.186 20.694C147.364 20.6051 147.558 20.5606 147.766 20.5606C148.163 20.5606 148.472 20.7177 148.693 21.0319C148.917 21.3461 149.028 21.7678 149.028 22.297ZM148.427 22.3621C148.427 21.9673 148.364 21.6614 148.238 21.4443C148.111 21.2252 147.907 21.1156 147.624 21.1156C147.458 21.1156 147.298 21.1529 147.143 21.2273C146.99 21.2996 146.844 21.3937 146.706 21.5094V23.4721C146.859 23.5465 146.989 23.5972 147.097 23.624C147.206 23.6509 147.331 23.6643 147.472 23.6643C147.774 23.6643 148.008 23.5537 148.176 23.3326C148.343 23.1114 148.427 22.7879 148.427 22.3621ZM151.568 23.2675V22.3063C151.429 22.3187 151.253 22.3362 151.041 22.359C150.83 22.3797 150.659 22.4096 150.529 22.4489C150.374 22.4964 150.246 22.5698 150.144 22.669C150.043 22.7662 149.993 22.9026 149.993 23.0783C149.993 23.2768 150.048 23.4266 150.16 23.5279C150.272 23.6292 150.435 23.6798 150.65 23.6798C150.834 23.6798 151 23.6406 151.149 23.562C151.298 23.4814 151.437 23.3832 151.568 23.2675ZM151.568 23.7511C151.52 23.7863 151.456 23.8359 151.375 23.9C151.297 23.962 151.22 24.0116 151.146 24.0488C151.043 24.1025 150.942 24.1439 150.845 24.1728C150.75 24.2018 150.616 24.2162 150.442 24.2162C150.299 24.2162 150.164 24.1894 150.036 24.1356C149.908 24.0819 149.795 24.0064 149.698 23.9093C149.605 23.8142 149.531 23.6974 149.475 23.5589C149.419 23.4184 149.391 23.2706 149.391 23.1155C149.391 22.8757 149.442 22.6721 149.543 22.5047C149.644 22.3352 149.804 22.2009 150.024 22.1016C150.218 22.0128 150.447 21.9518 150.712 21.9187C150.976 21.8836 151.262 21.8577 151.568 21.8412V21.7296C151.568 21.5931 151.547 21.4836 151.506 21.4009C151.464 21.3162 151.406 21.251 151.332 21.2056C151.258 21.158 151.167 21.127 151.059 21.1125C150.952 21.096 150.841 21.0877 150.727 21.0877C150.593 21.0877 150.435 21.1084 150.253 21.1498C150.071 21.189 149.889 21.2469 149.707 21.3234H149.673V20.7312C149.781 20.7002 149.935 20.6661 150.135 20.6289C150.336 20.5917 150.534 20.573 150.73 20.573C150.968 20.573 151.169 20.5917 151.332 20.6289C151.495 20.6661 151.642 20.7332 151.772 20.8304C151.898 20.9255 151.992 21.0485 152.054 21.1994C152.116 21.3503 152.147 21.5342 152.147 21.7513V24.1201H151.568V23.7511Z" fill="#8C99B2"/>
<path d="M192.632 22.6907C192.632 22.914 192.589 23.1166 192.502 23.2985C192.415 23.4804 192.298 23.6282 192.152 23.7418C191.978 23.8783 191.792 23.9754 191.593 24.0333C191.395 24.0912 191.139 24.1201 190.825 24.1201H189.488V19.5033H192.3V20.049H190.102V21.3141H190.843C191.157 21.3141 191.414 21.3327 191.612 21.3699C191.811 21.405 191.998 21.4908 192.173 21.6272C192.33 21.7492 192.446 21.9001 192.521 22.0799C192.595 22.2598 192.632 22.4634 192.632 22.6907ZM191.99 22.7031C191.99 22.5481 191.965 22.4117 191.913 22.2939C191.863 22.176 191.784 22.081 191.674 22.0086C191.56 21.9321 191.429 21.8856 191.28 21.8691C191.132 21.8526 190.922 21.8443 190.651 21.8443H190.102V23.5961H190.635C190.91 23.5961 191.121 23.5827 191.268 23.5558C191.417 23.5289 191.547 23.4773 191.659 23.4008C191.774 23.3202 191.858 23.2261 191.91 23.1186C191.963 23.0091 191.99 22.8706 191.99 22.7031ZM194.691 24.2007C194.139 24.2007 193.71 24.0457 193.404 23.7356C193.1 23.4235 192.948 22.9812 192.948 22.4086C192.948 21.8443 193.096 21.3957 193.392 21.0629C193.687 20.7281 194.074 20.5606 194.551 20.5606C194.766 20.5606 194.957 20.5917 195.122 20.6537C195.287 20.7157 195.432 20.8128 195.556 20.9451C195.68 21.0774 195.775 21.2397 195.841 21.4319C195.907 21.6221 195.941 21.8557 195.941 22.1326V22.4489H193.541C193.541 22.852 193.642 23.16 193.845 23.3729C194.047 23.5858 194.327 23.6922 194.685 23.6922C194.813 23.6922 194.938 23.6778 195.06 23.6488C195.184 23.6199 195.296 23.5827 195.395 23.5372C195.5 23.4897 195.589 23.4442 195.661 23.4008C195.734 23.3553 195.794 23.3129 195.841 23.2737H195.875V23.9093C195.807 23.9361 195.722 23.9703 195.621 24.0116C195.52 24.0509 195.429 24.0819 195.348 24.1046C195.235 24.1356 195.131 24.1594 195.038 24.1759C194.947 24.1925 194.832 24.2007 194.691 24.2007ZM195.373 22.0024C195.369 21.8453 195.35 21.7099 195.317 21.5962C195.284 21.4826 195.237 21.3864 195.175 21.3079C195.106 21.2211 195.019 21.1549 194.911 21.1094C194.806 21.064 194.674 21.0412 194.517 21.0412C194.362 21.0412 194.23 21.065 194.12 21.1125C194.013 21.158 193.915 21.2252 193.826 21.3141C193.739 21.405 193.673 21.5063 193.627 21.6179C193.582 21.7275 193.553 21.8557 193.541 22.0024H195.373ZM198.824 23.162C198.824 23.3563 198.782 23.5207 198.697 23.655C198.612 23.7894 198.504 23.8958 198.371 23.9744C198.245 24.0509 198.102 24.1077 197.94 24.1449C197.779 24.1821 197.618 24.2007 197.457 24.2007C197.229 24.2007 197.014 24.178 196.812 24.1325C196.609 24.0891 196.408 24.0188 196.207 23.9217V23.2768H196.244C196.385 23.407 196.561 23.5103 196.771 23.5868C196.984 23.6612 197.196 23.6984 197.407 23.6984C197.498 23.6984 197.595 23.6891 197.699 23.6705C197.804 23.6499 197.893 23.6189 197.965 23.5775C198.06 23.5196 198.127 23.4576 198.167 23.3915C198.208 23.3253 198.229 23.2344 198.229 23.1186C198.229 22.9946 198.205 22.8954 198.157 22.821C198.112 22.7445 198.049 22.6876 197.968 22.6504C197.888 22.6132 197.797 22.5905 197.695 22.5822C197.596 22.5719 197.491 22.5667 197.379 22.5667H196.97V22.0644H197.283C197.362 22.0644 197.46 22.0624 197.578 22.0582C197.695 22.052 197.789 22.0355 197.86 22.0086C197.949 21.9755 198.02 21.929 198.074 21.8691C198.127 21.8071 198.154 21.7037 198.154 21.559C198.154 21.4577 198.132 21.3761 198.086 21.3141C198.041 21.2521 197.984 21.2035 197.916 21.1684C197.845 21.1312 197.769 21.1063 197.686 21.0939C197.603 21.0795 197.524 21.0722 197.447 21.0722C197.251 21.0722 197.062 21.1001 196.88 21.156C196.7 21.2097 196.545 21.2903 196.415 21.3978H196.378V20.7684C196.527 20.7167 196.691 20.6712 196.871 20.632C197.053 20.5927 197.234 20.573 197.416 20.573C197.563 20.573 197.712 20.5885 197.863 20.6196C198.016 20.6485 198.161 20.6991 198.297 20.7715C198.425 20.8418 198.533 20.9389 198.619 21.0629C198.706 21.1849 198.75 21.3348 198.75 21.5125C198.75 21.7006 198.696 21.866 198.588 22.0086C198.483 22.1492 198.342 22.2422 198.167 22.2877V22.3094C198.359 22.3755 198.516 22.4768 198.638 22.6132C198.762 22.7497 198.824 22.9326 198.824 23.162ZM203.357 23.2675V22.3063C203.219 22.3187 203.043 22.3362 202.83 22.359C202.619 22.3797 202.449 22.4096 202.318 22.4489C202.163 22.4964 202.035 22.5698 201.934 22.669C201.833 22.7662 201.782 22.9026 201.782 23.0783C201.782 23.2768 201.838 23.4266 201.949 23.5279C202.061 23.6292 202.224 23.6798 202.439 23.6798C202.623 23.6798 202.79 23.6406 202.939 23.562C203.087 23.4814 203.227 23.3832 203.357 23.2675ZM203.357 23.7511C203.31 23.7863 203.245 23.8359 203.165 23.9C203.086 23.962 203.01 24.0116 202.935 24.0488C202.832 24.1025 202.732 24.1439 202.635 24.1728C202.54 24.2018 202.405 24.2162 202.232 24.2162C202.089 24.2162 201.954 24.1894 201.825 24.1356C201.697 24.0819 201.585 24.0064 201.487 23.9093C201.394 23.8142 201.32 23.6974 201.264 23.5589C201.208 23.4184 201.181 23.2706 201.181 23.1155C201.181 22.8757 201.231 22.6721 201.332 22.5047C201.434 22.3352 201.594 22.2009 201.813 22.1016C202.007 22.0128 202.237 21.9518 202.501 21.9187C202.766 21.8836 203.051 21.8577 203.357 21.8412V21.7296C203.357 21.5931 203.336 21.4836 203.295 21.4009C203.254 21.3162 203.196 21.251 203.121 21.2056C203.047 21.158 202.956 21.127 202.849 21.1125C202.741 21.096 202.631 21.0877 202.517 21.0877C202.382 21.0877 202.224 21.1084 202.042 21.1498C201.861 21.189 201.679 21.2469 201.497 21.3234H201.463V20.7312C201.57 20.7002 201.724 20.6661 201.925 20.6289C202.125 20.5917 202.324 20.573 202.52 20.573C202.758 20.573 202.958 20.5917 203.121 20.6289C203.285 20.6661 203.432 20.7332 203.562 20.8304C203.688 20.9255 203.782 21.0485 203.844 21.1994C203.906 21.3503 203.937 21.5342 203.937 21.7513V24.1201H203.357V23.7511ZM207.475 23.0721C207.475 23.2396 207.443 23.3884 207.379 23.5186C207.314 23.6468 207.227 23.7542 207.115 23.8411C206.974 23.9506 206.827 24.025 206.672 24.0643C206.519 24.1015 206.335 24.1201 206.12 24.1201H204.759V20.6568H206.03C206.284 20.6568 206.47 20.665 206.588 20.6816C206.706 20.696 206.823 20.7353 206.938 20.7994C207.06 20.8655 207.15 20.9534 207.208 21.0629C207.266 21.1725 207.295 21.3027 207.295 21.4536C207.295 21.619 207.249 21.7678 207.158 21.9001C207.067 22.0303 206.947 22.1316 206.796 22.204L206.811 22.2257C206.999 22.2732 207.156 22.3693 207.282 22.514C207.411 22.6587 207.475 22.8447 207.475 23.0721ZM206.696 21.5435C206.696 21.465 206.683 21.3968 206.656 21.3389C206.631 21.281 206.587 21.2355 206.523 21.2025C206.448 21.1632 206.365 21.1405 206.272 21.1343C206.181 21.126 206.054 21.1219 205.89 21.1219H205.335V22.0706H206.005C206.148 22.0706 206.249 22.0644 206.309 22.052C206.369 22.0376 206.435 22.0086 206.507 21.9652C206.576 21.9239 206.624 21.8681 206.653 21.7978C206.682 21.7275 206.696 21.6427 206.696 21.5435ZM206.873 23.0752C206.873 22.9574 206.856 22.8633 206.82 22.7931C206.787 22.7207 206.713 22.6566 206.597 22.6008C206.525 22.5657 206.447 22.544 206.365 22.5357C206.282 22.5274 206.167 22.5233 206.021 22.5233H205.335V23.655H205.841C206.049 23.655 206.212 23.6468 206.327 23.6302C206.443 23.6137 206.542 23.5806 206.625 23.531C206.712 23.4773 206.775 23.4153 206.814 23.345C206.854 23.2747 206.873 23.1848 206.873 23.0752ZM210.023 23.2675V22.3063C209.885 22.3187 209.709 22.3362 209.496 22.359C209.285 22.3797 209.115 22.4096 208.985 22.4489C208.83 22.4964 208.701 22.5698 208.6 22.669C208.499 22.7662 208.448 22.9026 208.448 23.0783C208.448 23.2768 208.504 23.4266 208.616 23.5279C208.727 23.6292 208.891 23.6798 209.106 23.6798C209.29 23.6798 209.456 23.6406 209.605 23.562C209.754 23.4814 209.893 23.3832 210.023 23.2675ZM210.023 23.7511C209.976 23.7863 209.912 23.8359 209.831 23.9C209.753 23.962 209.676 24.0116 209.602 24.0488C209.498 24.1025 209.398 24.1439 209.301 24.1728C209.206 24.2018 209.071 24.2162 208.898 24.2162C208.755 24.2162 208.62 24.1894 208.492 24.1356C208.364 24.0819 208.251 24.0064 208.154 23.9093C208.061 23.8142 207.986 23.6974 207.93 23.5589C207.875 23.4184 207.847 23.2706 207.847 23.1155C207.847 22.8757 207.897 22.6721 207.999 22.5047C208.1 22.3352 208.26 22.2009 208.479 22.1016C208.674 22.0128 208.903 21.9518 209.168 21.9187C209.432 21.8836 209.717 21.8577 210.023 21.8412V21.7296C210.023 21.5931 210.003 21.4836 209.961 21.4009C209.92 21.3162 209.862 21.251 209.788 21.2056C209.713 21.158 209.622 21.127 209.515 21.1125C209.407 21.096 209.297 21.0877 209.183 21.0877C209.049 21.0877 208.891 21.1084 208.709 21.1498C208.527 21.189 208.345 21.2469 208.163 21.3234H208.129V20.7312C208.236 20.7002 208.39 20.6661 208.591 20.6289C208.791 20.5917 208.99 20.573 209.186 20.573C209.424 20.573 209.624 20.5917 209.788 20.6289C209.951 20.6661 210.098 20.7332 210.228 20.8304C210.354 20.9255 210.448 21.0485 210.51 21.1994C210.572 21.3503 210.603 21.5342 210.603 21.7513V24.1201H210.023V23.7511ZM214.33 22.297C214.33 22.8737 214.192 23.3336 213.915 23.6767C213.64 24.0178 213.291 24.1883 212.87 24.1883C212.698 24.1883 212.546 24.1687 212.414 24.1294C212.282 24.0901 212.146 24.0292 212.008 23.9465V25.3976H211.425V20.6568H212.008V21.0195C212.152 20.8893 212.313 20.7808 212.488 20.694C212.666 20.6051 212.859 20.5606 213.068 20.5606C213.465 20.5606 213.774 20.7177 213.995 21.0319C214.218 21.3461 214.33 21.7678 214.33 22.297ZM213.729 22.3621C213.729 21.9673 213.666 21.6614 213.539 21.4443C213.413 21.2252 213.209 21.1156 212.926 21.1156C212.76 21.1156 212.6 21.1529 212.445 21.2273C212.292 21.2996 212.146 21.3937 212.008 21.5094V23.4721C212.161 23.5465 212.291 23.5972 212.398 23.624C212.508 23.6509 212.633 23.6643 212.774 23.6643C213.075 23.6643 213.31 23.5537 213.477 23.3326C213.645 23.1114 213.729 22.7879 213.729 22.3621ZM217.669 24.1201H217.093V21.5373L215.462 24.1201H214.935V20.6568H215.511V23.1992L217.124 20.6568H217.669V24.1201ZM221.247 24.1201H220.671V21.5373L219.04 24.1201H218.513V20.6568H219.089V23.1992L220.702 20.6568H221.247V24.1201Z" fill="#8C99B2"/>
<path d="M250.692 22.6907C250.692 22.914 250.649 23.1166 250.562 23.2985C250.475 23.4804 250.358 23.6282 250.212 23.7418C250.038 23.8783 249.852 23.9754 249.653 24.0333C249.455 24.0912 249.199 24.1201 248.885 24.1201H247.548V19.5033H250.36V20.049H248.162V21.3141H248.903C249.217 21.3141 249.474 21.3327 249.672 21.3699C249.871 21.405 250.058 21.4908 250.233 21.6272C250.39 21.7492 250.506 21.9001 250.581 22.0799C250.655 22.2598 250.692 22.4634 250.692 22.6907ZM250.05 22.7031C250.05 22.5481 250.025 22.4117 249.973 22.2939C249.923 22.176 249.844 22.081 249.734 22.0086C249.62 21.9321 249.489 21.8856 249.34 21.8691C249.192 21.8526 248.982 21.8443 248.711 21.8443H248.162V23.5961H248.695C248.97 23.5961 249.181 23.5827 249.328 23.5558C249.477 23.5289 249.607 23.4773 249.719 23.4008C249.834 23.3202 249.918 23.2261 249.97 23.1186C250.023 23.0091 250.05 22.8706 250.05 22.7031ZM252.751 24.2007C252.199 24.2007 251.77 24.0457 251.464 23.7356C251.16 23.4235 251.008 22.9812 251.008 22.4086C251.008 21.8443 251.156 21.3957 251.452 21.0629C251.747 20.7281 252.134 20.5606 252.611 20.5606C252.826 20.5606 253.017 20.5917 253.182 20.6537C253.347 20.7157 253.492 20.8128 253.616 20.9451C253.74 21.0774 253.835 21.2397 253.901 21.4319C253.967 21.6221 254.001 21.8557 254.001 22.1326V22.4489H251.601C251.601 22.852 251.702 23.16 251.905 23.3729C252.107 23.5858 252.387 23.6922 252.745 23.6922C252.873 23.6922 252.998 23.6778 253.12 23.6488C253.244 23.6199 253.356 23.5827 253.455 23.5372C253.56 23.4897 253.649 23.4442 253.721 23.4008C253.794 23.3553 253.854 23.3129 253.901 23.2737H253.935V23.9093C253.867 23.9361 253.782 23.9703 253.681 24.0116C253.58 24.0509 253.489 24.0819 253.408 24.1046C253.295 24.1356 253.191 24.1594 253.098 24.1759C253.007 24.1925 252.892 24.2007 252.751 24.2007ZM253.433 22.0024C253.429 21.8453 253.41 21.7099 253.377 21.5962C253.344 21.4826 253.297 21.3864 253.235 21.3079C253.166 21.2211 253.079 21.1549 252.971 21.1094C252.866 21.064 252.734 21.0412 252.577 21.0412C252.422 21.0412 252.29 21.065 252.18 21.1125C252.073 21.158 251.975 21.2252 251.886 21.3141C251.799 21.405 251.733 21.5063 251.687 21.6179C251.642 21.7275 251.613 21.8557 251.601 22.0024H253.433ZM256.884 23.162C256.884 23.3563 256.842 23.5207 256.757 23.655C256.672 23.7894 256.564 23.8958 256.431 23.9744C256.305 24.0509 256.162 24.1077 256 24.1449C255.839 24.1821 255.678 24.2007 255.517 24.2007C255.289 24.2007 255.074 24.178 254.872 24.1325C254.669 24.0891 254.468 24.0188 254.267 23.9217V23.2768H254.304C254.445 23.407 254.621 23.5103 254.831 23.5868C255.044 23.6612 255.256 23.6984 255.467 23.6984C255.558 23.6984 255.655 23.6891 255.759 23.6705C255.864 23.6499 255.953 23.6189 256.025 23.5775C256.12 23.5196 256.187 23.4576 256.227 23.3915C256.268 23.3253 256.289 23.2344 256.289 23.1186C256.289 22.9946 256.265 22.8954 256.217 22.821C256.172 22.7445 256.109 22.6876 256.028 22.6504C255.948 22.6132 255.857 22.5905 255.755 22.5822C255.656 22.5719 255.551 22.5667 255.439 22.5667H255.03V22.0644H255.343C255.422 22.0644 255.52 22.0624 255.638 22.0582C255.755 22.052 255.849 22.0355 255.92 22.0086C256.009 21.9755 256.08 21.929 256.134 21.8691C256.187 21.8071 256.214 21.7037 256.214 21.559C256.214 21.4577 256.192 21.3761 256.146 21.3141C256.101 21.2521 256.044 21.2035 255.976 21.1684C255.905 21.1312 255.829 21.1063 255.746 21.0939C255.663 21.0795 255.584 21.0722 255.507 21.0722C255.311 21.0722 255.122 21.1001 254.94 21.156C254.76 21.2097 254.605 21.2903 254.475 21.3978H254.438V20.7684C254.587 20.7167 254.751 20.6712 254.931 20.632C255.113 20.5927 255.294 20.573 255.476 20.573C255.623 20.573 255.772 20.5885 255.923 20.6196C256.076 20.6485 256.221 20.6991 256.357 20.7715C256.485 20.8418 256.593 20.9389 256.679 21.0629C256.766 21.1849 256.81 21.3348 256.81 21.5125C256.81 21.7006 256.756 21.866 256.648 22.0086C256.543 22.1492 256.402 22.2422 256.227 22.2877V22.3094C256.419 22.3755 256.576 22.4768 256.698 22.6132C256.822 22.7497 256.884 22.9326 256.884 23.162ZM262.217 24.1201H261.634V22.5605H260.065V24.1201H259.482V20.6568H260.065V22.0582H261.634V20.6568H262.217V24.1201ZM264.564 24.2007C264.012 24.2007 263.583 24.0457 263.277 23.7356C262.974 23.4235 262.822 22.9812 262.822 22.4086C262.822 21.8443 262.969 21.3957 263.265 21.0629C263.561 20.7281 263.947 20.5606 264.425 20.5606C264.64 20.5606 264.83 20.5917 264.995 20.6537C265.161 20.7157 265.305 20.8128 265.429 20.9451C265.553 21.0774 265.648 21.2397 265.715 21.4319C265.781 21.6221 265.814 21.8557 265.814 22.1326V22.4489H263.414C263.414 22.852 263.515 23.16 263.718 23.3729C263.92 23.5858 264.2 23.6922 264.558 23.6922C264.686 23.6922 264.811 23.6778 264.933 23.6488C265.057 23.6199 265.169 23.5827 265.268 23.5372C265.373 23.4897 265.462 23.4442 265.535 23.4008C265.607 23.3553 265.667 23.3129 265.715 23.2737H265.749V23.9093C265.68 23.9361 265.596 23.9703 265.494 24.0116C265.393 24.0509 265.302 24.0819 265.222 24.1046C265.108 24.1356 265.004 24.1594 264.911 24.1759C264.821 24.1925 264.705 24.2007 264.564 24.2007ZM265.246 22.0024C265.242 21.8453 265.224 21.7099 265.191 21.5962C265.157 21.4826 265.11 21.3864 265.048 21.3079C264.98 21.2211 264.892 21.1549 264.784 21.1094C264.679 21.064 264.548 21.0412 264.391 21.0412C264.236 21.0412 264.103 21.065 263.994 21.1125C263.886 21.158 263.788 21.2252 263.699 21.3141C263.612 21.405 263.546 21.5063 263.501 21.6179C263.455 21.7275 263.426 21.8557 263.414 22.0024H265.246ZM267.78 24.1976C267.542 24.1976 267.324 24.1615 267.125 24.0891C266.927 24.0147 266.756 23.9031 266.614 23.7542C266.471 23.6054 266.36 23.4184 266.282 23.193C266.203 22.9657 266.164 22.699 266.164 22.3931C266.164 22.0892 266.204 21.8267 266.285 21.6055C266.368 21.3844 266.477 21.1983 266.614 21.0474C266.75 20.8965 266.92 20.7808 267.122 20.7002C267.327 20.6175 267.546 20.5761 267.78 20.5761C267.97 20.5761 268.153 20.603 268.328 20.6568C268.506 20.7105 268.664 20.7725 268.803 20.8428V21.497H268.769C268.727 21.4619 268.674 21.4216 268.607 21.3761C268.543 21.3306 268.465 21.2841 268.372 21.2366C268.291 21.1952 268.196 21.1591 268.086 21.1281C267.977 21.097 267.871 21.0815 267.77 21.0815C267.468 21.0815 267.226 21.1963 267.042 21.4257C266.86 21.6531 266.769 21.9755 266.769 22.3931C266.769 22.8024 266.857 23.1217 267.032 23.3512C267.21 23.5785 267.456 23.6922 267.77 23.6922C267.96 23.6922 268.141 23.653 268.313 23.5744C268.484 23.4959 268.636 23.3946 268.769 23.2706H268.803V23.9248C268.745 23.9517 268.672 23.9847 268.586 24.024C268.499 24.0612 268.42 24.0891 268.35 24.1077C268.251 24.1367 268.162 24.1584 268.083 24.1728C268.005 24.1894 267.904 24.1976 267.78 24.1976ZM271.94 24.1201H271.358V22.7683C271.176 22.8282 270.999 22.8747 270.827 22.9078C270.656 22.9409 270.486 22.9574 270.319 22.9574C270.172 22.9574 270.028 22.9388 269.888 22.9016C269.749 22.8623 269.63 22.7993 269.528 22.7125C269.427 22.6256 269.348 22.515 269.293 22.3807C269.239 22.2443 269.212 22.0841 269.212 21.9001V20.6568H269.795V21.5962C269.795 21.7492 269.801 21.8712 269.813 21.9621C269.826 22.051 269.86 22.1378 269.916 22.2226C269.963 22.2949 270.035 22.3507 270.13 22.39C270.227 22.4293 270.354 22.4489 270.511 22.4489C270.648 22.4489 270.793 22.4355 270.948 22.4086C271.105 22.3817 271.242 22.3497 271.358 22.3125V20.6568H271.94V24.1201ZM274.719 23.2675V22.3063C274.58 22.3187 274.404 22.3362 274.192 22.359C273.981 22.3797 273.81 22.4096 273.68 22.4489C273.525 22.4964 273.397 22.5698 273.295 22.669C273.194 22.7662 273.144 22.9026 273.144 23.0783C273.144 23.2768 273.199 23.4266 273.311 23.5279C273.423 23.6292 273.586 23.6798 273.801 23.6798C273.985 23.6798 274.151 23.6406 274.3 23.562C274.449 23.4814 274.588 23.3832 274.719 23.2675ZM274.719 23.7511C274.671 23.7863 274.607 23.8359 274.526 23.9C274.448 23.962 274.371 24.0116 274.297 24.0488C274.194 24.1025 274.093 24.1439 273.996 24.1728C273.901 24.2018 273.767 24.2162 273.593 24.2162C273.45 24.2162 273.315 24.1894 273.187 24.1356C273.059 24.0819 272.946 24.0064 272.849 23.9093C272.756 23.8142 272.682 23.6974 272.626 23.5589C272.57 23.4184 272.542 23.2706 272.542 23.1155C272.542 22.8757 272.593 22.6721 272.694 22.5047C272.795 22.3352 272.955 22.2009 273.175 22.1016C273.369 22.0128 273.598 21.9518 273.863 21.9187C274.127 21.8836 274.413 21.8577 274.719 21.8412V21.7296C274.719 21.5931 274.698 21.4836 274.657 21.4009C274.615 21.3162 274.557 21.251 274.483 21.2056C274.409 21.158 274.318 21.127 274.21 21.1125C274.103 21.096 273.992 21.0877 273.878 21.0877C273.744 21.0877 273.586 21.1084 273.404 21.1498C273.222 21.189 273.04 21.2469 272.858 21.3234H272.824V20.7312C272.932 20.7002 273.086 20.6661 273.286 20.6289C273.487 20.5917 273.685 20.573 273.881 20.573C274.119 20.573 274.32 20.5917 274.483 20.6289C274.646 20.6661 274.793 20.7332 274.923 20.8304C275.049 20.9255 275.143 21.0485 275.205 21.1994C275.267 21.3503 275.298 21.5342 275.298 21.7513V24.1201H274.719V23.7511ZM277.497 24.1976C277.259 24.1976 277.041 24.1615 276.843 24.0891C276.644 24.0147 276.474 23.9031 276.331 23.7542C276.188 23.6054 276.078 23.4184 275.999 23.193C275.921 22.9657 275.881 22.699 275.881 22.3931C275.881 22.0892 275.922 21.8267 276.002 21.6055C276.085 21.3844 276.195 21.1983 276.331 21.0474C276.467 20.8965 276.637 20.7808 276.839 20.7002C277.044 20.6175 277.263 20.5761 277.497 20.5761C277.687 20.5761 277.87 20.603 278.046 20.6568C278.223 20.7105 278.381 20.7725 278.52 20.8428V21.497H278.486C278.444 21.4619 278.391 21.4216 278.325 21.3761C278.261 21.3306 278.182 21.2841 278.089 21.2366C278.008 21.1952 277.913 21.1591 277.804 21.1281C277.694 21.097 277.589 21.0815 277.487 21.0815C277.186 21.0815 276.943 21.1963 276.759 21.4257C276.577 21.6531 276.486 21.9755 276.486 22.3931C276.486 22.8024 276.574 23.1217 276.75 23.3512C276.927 23.5785 277.173 23.6922 277.487 23.6922C277.678 23.6922 277.858 23.653 278.03 23.5744C278.202 23.4959 278.354 23.3946 278.486 23.2706H278.52V23.9248C278.462 23.9517 278.39 23.9847 278.303 24.024C278.216 24.0612 278.138 24.0891 278.067 24.1077C277.968 24.1367 277.879 24.1584 277.801 24.1728C277.722 24.1894 277.621 24.1976 277.497 24.1976ZM281.583 21.1684H280.405V24.1201H279.822V21.1684H278.644V20.6568H281.583V21.1684ZM284.752 24.1201H284.169V22.5605H282.6V24.1201H282.017V20.6568H282.6V22.0582H284.169V20.6568H284.752V24.1201ZM288.166 23.0473C288.166 23.2147 288.132 23.3667 288.064 23.5031C287.997 23.6395 287.906 23.7501 287.791 23.8349C287.654 23.9382 287.509 24.0116 287.354 24.055C287.198 24.0984 286.999 24.1201 286.755 24.1201H285.595V20.6568H286.178V22.0055H286.771C287.031 22.0055 287.233 22.019 287.375 22.0458C287.52 22.0727 287.664 22.1388 287.806 22.2443C287.926 22.3331 288.016 22.4468 288.076 22.5853C288.136 22.7238 288.166 22.8778 288.166 23.0473ZM287.564 23.0566C287.564 22.9512 287.546 22.8592 287.509 22.7807C287.473 22.7 287.414 22.6349 287.332 22.5853C287.245 22.5337 287.146 22.5026 287.034 22.4923C286.925 22.482 286.766 22.4768 286.56 22.4768H286.178V23.655H286.547C286.754 23.655 286.914 23.6468 287.028 23.6302C287.142 23.6116 287.24 23.5775 287.323 23.5279C287.407 23.4742 287.468 23.4111 287.505 23.3388C287.545 23.2644 287.564 23.1703 287.564 23.0566ZM289.152 24.1201H288.569V20.6568H289.152V24.1201ZM292.69 24.1201H291.973L291.133 22.8117L290.268 24.1201H289.608L290.811 22.4024L289.62 20.6568H290.336L291.17 21.9528L292.026 20.6568H292.69L291.493 22.3621L292.69 24.1201ZM296.503 24.1976C296.266 24.1976 296.048 24.1615 295.849 24.0891C295.651 24.0147 295.48 23.9031 295.338 23.7542C295.195 23.6054 295.084 23.4184 295.006 23.193C294.927 22.9657 294.888 22.699 294.888 22.3931C294.888 22.0892 294.928 21.8267 295.009 21.6055C295.092 21.3844 295.201 21.1983 295.338 21.0474C295.474 20.8965 295.643 20.7808 295.846 20.7002C296.051 20.6175 296.27 20.5761 296.503 20.5761C296.694 20.5761 296.876 20.603 297.052 20.6568C297.23 20.7105 297.388 20.7725 297.527 20.8428V21.497H297.492C297.451 21.4619 297.397 21.4216 297.331 21.3761C297.267 21.3306 297.189 21.2841 297.096 21.2366C297.015 21.1952 296.92 21.1591 296.81 21.1281C296.701 21.097 296.595 21.0815 296.494 21.0815C296.192 21.0815 295.949 21.1963 295.765 21.4257C295.584 21.6531 295.493 21.9755 295.493 22.3931C295.493 22.8024 295.58 23.1217 295.756 23.3512C295.934 23.5785 296.18 23.6922 296.494 23.6922C296.684 23.6922 296.865 23.653 297.037 23.5744C297.208 23.4959 297.36 23.3946 297.492 23.2706H297.527V23.9248C297.469 23.9517 297.396 23.9847 297.309 24.024C297.223 24.0612 297.144 24.0891 297.074 24.1077C296.975 24.1367 296.886 24.1584 296.807 24.1728C296.729 24.1894 296.627 24.1976 296.503 24.1976ZM300.742 24.1201H300.159V21.1467H298.968C298.962 21.3182 298.956 21.4836 298.95 21.6427C298.944 21.7998 298.937 21.9425 298.931 22.0706C298.919 22.3952 298.897 22.667 298.866 22.8861C298.837 23.1052 298.8 23.2809 298.754 23.4132C298.709 23.5496 298.658 23.6561 298.602 23.7325C298.549 23.809 298.488 23.8783 298.42 23.9403C298.349 24.0023 298.274 24.0488 298.193 24.0798C298.113 24.1108 298.022 24.1263 297.92 24.1263C297.887 24.1263 297.845 24.1253 297.793 24.1232C297.742 24.1212 297.705 24.1201 297.685 24.1201V23.6116H297.716C297.73 23.6116 297.745 23.6127 297.759 23.6147C297.776 23.6168 297.794 23.6178 297.815 23.6178C297.864 23.6178 297.913 23.6106 297.961 23.5961C298.008 23.5816 298.051 23.5548 298.088 23.5155C298.191 23.4142 298.267 23.2375 298.314 22.9853C298.362 22.7311 298.396 22.3766 298.416 21.9218C298.425 21.7523 298.432 21.5518 298.438 21.3203C298.446 21.0888 298.454 20.8676 298.46 20.6568H300.742V24.1201ZM304.311 20.6568L302.447 25.3976H301.824L302.444 23.9527L301.185 20.6568H301.815L302.76 23.2209L303.703 20.6568H304.311ZM307.355 24.1201H306.772V22.7683C306.591 22.8282 306.414 22.8747 306.242 22.9078C306.071 22.9409 305.901 22.9574 305.734 22.9574C305.587 22.9574 305.443 22.9388 305.303 22.9016C305.164 22.8623 305.044 22.7993 304.943 22.7125C304.842 22.6256 304.763 22.515 304.707 22.3807C304.654 22.2443 304.627 22.0841 304.627 21.9001V20.6568H305.21V21.5962C305.21 21.7492 305.216 21.8712 305.228 21.9621C305.241 22.051 305.275 22.1378 305.331 22.2226C305.378 22.2949 305.45 22.3507 305.545 22.39C305.642 22.4293 305.769 22.4489 305.926 22.4489C306.062 22.4489 306.208 22.4355 306.363 22.4086C306.52 22.3817 306.657 22.3497 306.772 22.3125V20.6568H307.355V24.1201ZM310.134 23.2675V22.3063C309.995 22.3187 309.819 22.3362 309.606 22.359C309.396 22.3797 309.225 22.4096 309.095 22.4489C308.94 22.4964 308.812 22.5698 308.71 22.669C308.609 22.7662 308.558 22.9026 308.558 23.0783C308.558 23.2768 308.614 23.4266 308.726 23.5279C308.837 23.6292 309.001 23.6798 309.216 23.6798C309.4 23.6798 309.566 23.6406 309.715 23.562C309.864 23.4814 310.003 23.3832 310.134 23.2675ZM310.134 23.7511C310.086 23.7863 310.022 23.8359 309.941 23.9C309.863 23.962 309.786 24.0116 309.712 24.0488C309.608 24.1025 309.508 24.1439 309.411 24.1728C309.316 24.2018 309.182 24.2162 309.008 24.2162C308.865 24.2162 308.73 24.1894 308.602 24.1356C308.474 24.0819 308.361 24.0064 308.264 23.9093C308.171 23.8142 308.096 23.6974 308.041 23.5589C307.985 23.4184 307.957 23.2706 307.957 23.1155C307.957 22.8757 308.008 22.6721 308.109 22.5047C308.21 22.3352 308.37 22.2009 308.589 22.1016C308.784 22.0128 309.013 21.9518 309.278 21.9187C309.542 21.8836 309.828 21.8577 310.134 21.8412V21.7296C310.134 21.5931 310.113 21.4836 310.072 21.4009C310.03 21.3162 309.972 21.251 309.898 21.2056C309.823 21.158 309.733 21.127 309.625 21.1125C309.518 21.096 309.407 21.0877 309.293 21.0877C309.159 21.0877 309.001 21.1084 308.819 21.1498C308.637 21.189 308.455 21.2469 308.273 21.3234H308.239V20.7312C308.347 20.7002 308.501 20.6661 308.701 20.6289C308.902 20.5917 309.1 20.573 309.296 20.573C309.534 20.573 309.735 20.5917 309.898 20.6289C310.061 20.6661 310.208 20.7332 310.338 20.8304C310.464 20.9255 310.558 21.0485 310.62 21.1994C310.682 21.3503 310.713 21.5342 310.713 21.7513V24.1201H310.134V23.7511ZM313.039 24.2007C312.487 24.2007 312.058 24.0457 311.752 23.7356C311.448 23.4235 311.296 22.9812 311.296 22.4086C311.296 21.8443 311.444 21.3957 311.74 21.0629C312.035 20.7281 312.422 20.5606 312.899 20.5606C313.114 20.5606 313.304 20.5917 313.47 20.6537C313.635 20.7157 313.78 20.8128 313.904 20.9451C314.028 21.0774 314.123 21.2397 314.189 21.4319C314.255 21.6221 314.288 21.8557 314.288 22.1326V22.4489H311.888C311.888 22.852 311.99 23.16 312.192 23.3729C312.395 23.5858 312.675 23.6922 313.033 23.6922C313.161 23.6922 313.286 23.6778 313.408 23.6488C313.532 23.6199 313.643 23.5827 313.743 23.5372C313.848 23.4897 313.937 23.4442 314.009 23.4008C314.082 23.3553 314.142 23.3129 314.189 23.2737H314.223V23.9093C314.155 23.9361 314.07 23.9703 313.969 24.0116C313.868 24.0509 313.777 24.0819 313.696 24.1046C313.582 24.1356 313.479 24.1594 313.386 24.1759C313.295 24.1925 313.179 24.2007 313.039 24.2007ZM313.721 22.0024C313.717 21.8453 313.698 21.7099 313.665 21.5962C313.632 21.4826 313.584 21.3864 313.522 21.3079C313.454 21.2211 313.366 21.1549 313.259 21.1094C313.153 21.064 313.022 21.0412 312.865 21.0412C312.71 21.0412 312.578 21.065 312.468 21.1125C312.361 21.158 312.263 21.2252 312.174 21.3141C312.087 21.405 312.021 21.5063 311.975 21.6179C311.93 21.7275 311.901 21.8557 311.888 22.0024H313.721ZM317.594 23.0721C317.594 23.2396 317.561 23.3884 317.497 23.5186C317.433 23.6468 317.345 23.7542 317.234 23.8411C317.093 23.9506 316.946 24.025 316.79 24.0643C316.638 24.1015 316.454 24.1201 316.239 24.1201H314.877V20.6568H316.149C316.403 20.6568 316.589 20.665 316.707 20.6816C316.825 20.696 316.941 20.7353 317.057 20.7994C317.179 20.8655 317.269 20.9534 317.327 21.0629C317.385 21.1725 317.414 21.3027 317.414 21.4536C317.414 21.619 317.368 21.7678 317.277 21.9001C317.186 22.0303 317.065 22.1316 316.914 22.204L316.93 22.2257C317.118 22.2732 317.275 22.3693 317.401 22.514C317.529 22.6587 317.594 22.8447 317.594 23.0721ZM316.815 21.5435C316.815 21.465 316.802 21.3968 316.775 21.3389C316.75 21.281 316.706 21.2355 316.642 21.2025C316.567 21.1632 316.484 21.1405 316.39 21.1343C316.3 21.126 316.172 21.1219 316.009 21.1219H315.454V22.0706H316.124C316.266 22.0706 316.368 22.0644 316.428 22.052C316.488 22.0376 316.554 22.0086 316.626 21.9652C316.694 21.9239 316.743 21.8681 316.772 21.7978C316.801 21.7275 316.815 21.6427 316.815 21.5435ZM316.992 23.0752C316.992 22.9574 316.974 22.8633 316.939 22.7931C316.906 22.7207 316.832 22.6566 316.716 22.6008C316.644 22.5657 316.566 22.544 316.484 22.5357C316.401 22.5274 316.286 22.5233 316.139 22.5233H315.454V23.655H315.96C316.168 23.655 316.331 23.6468 316.446 23.6302C316.562 23.6137 316.661 23.5806 316.744 23.531C316.831 23.4773 316.894 23.4153 316.933 23.345C316.972 23.2747 316.992 23.1848 316.992 23.0752Z" fill="#8C99B2"/>
<path d="M141.63 42.5302C137.853 42.5252 134.125 43.3792 130.726 45.0275C127.328 46.6758 124.349 49.0752 122.015 52.0443C119.681 55.0134 118.052 58.4745 117.252 62.1658C116.453 65.857 116.503 69.6818 117.399 73.3508C118.295 77.0198 120.014 80.437 122.425 83.3439C124.836 86.2508 127.877 88.5714 131.318 90.13C134.758 91.6887 138.507 92.4446 142.283 92.3407C146.058 92.2368 149.761 91.2757 153.11 89.5302L152.37 89.2602C146.965 91.9282 140.762 92.499 134.961 90.8625C129.159 89.2259 124.169 85.4981 120.955 80.3986C117.74 75.299 116.529 69.1895 117.555 63.2493C118.581 57.3092 121.771 51.9597 126.509 48.2336C131.248 44.5075 137.199 42.6689 143.213 43.073C149.228 43.477 154.88 46.0949 159.077 50.4213C163.275 54.7476 165.721 60.4757 165.943 66.4997C166.165 72.5237 164.148 78.4164 160.28 83.0402C160.33 83.3302 160.4 83.7902 160.4 83.7902C164.351 79.2517 166.528 73.4377 166.53 67.4202C166.531 65.6343 166.336 63.8537 165.95 62.1102L167.51 60.1102C165.662 53.4075 161.299 47.6763 155.33 44.1102L152.81 45.1102C149.337 43.3866 145.507 42.5029 141.63 42.5302Z" fill="#A2E2FF"/>
<path d="M137.407 68.5349C137.407 69.0103 137.329 69.4485 137.172 69.8495C137.015 70.2505 136.804 70.5854 136.539 70.8541C136.262 71.1394 135.952 71.3564 135.609 71.5052C135.266 71.6499 134.888 71.7223 134.474 71.7223C134.057 71.7223 133.676 71.652 133.333 71.5114C132.994 71.3709 132.695 71.1621 132.434 70.8851C132.116 70.5502 131.866 70.1038 131.684 69.5457C131.506 68.9834 131.417 68.293 131.417 67.4745C131.417 66.6724 131.5 65.949 131.665 65.3041C131.831 64.655 132.085 64.0907 132.428 63.6111C132.763 63.144 133.195 62.7802 133.724 62.5197C134.253 62.2551 134.865 62.1229 135.559 62.1229C135.766 62.1229 135.958 62.1332 136.136 62.1539C136.314 62.1745 136.471 62.2076 136.607 62.2531V63.4375H136.552C136.44 63.3755 136.279 63.3197 136.068 63.2701C135.857 63.2163 135.632 63.1895 135.392 63.1895C134.623 63.1895 134.001 63.4499 133.525 63.9708C133.054 64.4876 132.775 65.2565 132.688 66.2776C132.982 66.0709 133.284 65.9118 133.594 65.8001C133.904 65.6885 134.243 65.6327 134.611 65.6327C134.97 65.6327 135.285 65.6699 135.553 65.7443C135.826 65.8146 136.109 65.9593 136.403 66.1784C136.742 66.4347 136.994 66.7593 137.159 67.152C137.325 67.5447 137.407 68.0057 137.407 68.5349ZM136.149 68.5845C136.149 68.2041 136.099 67.8858 136 67.6295C135.901 67.3732 135.739 67.1541 135.516 66.9722C135.355 66.8399 135.171 66.7531 134.964 66.7117C134.762 66.6704 134.553 66.6497 134.338 66.6497C134.048 66.6497 133.767 66.6931 133.494 66.7799C133.222 66.8667 132.953 66.9928 132.688 67.1582C132.68 67.2492 132.674 67.338 132.67 67.4249C132.666 67.5075 132.664 67.613 132.664 67.7411C132.664 68.3819 132.726 68.8987 132.85 69.2914C132.978 69.6841 133.135 69.9818 133.321 70.1844C133.499 70.3787 133.681 70.5151 133.867 70.5937C134.057 70.6722 134.261 70.7115 134.48 70.7115C134.977 70.7115 135.378 70.5337 135.684 70.1782C135.994 69.8226 136.149 69.2914 136.149 68.5845ZM143.726 71.53H139.224V70.5875H140.899V64.3987H139.224V63.5553C139.857 63.5553 140.322 63.4664 140.62 63.2887C140.921 63.1068 141.091 62.7657 141.128 62.2655H142.089V70.5875H143.726V71.53ZM151.273 68.5349C151.273 69.0103 151.195 69.4485 151.038 69.8495C150.881 70.2505 150.67 70.5854 150.405 70.8541C150.128 71.1394 149.818 71.3564 149.475 71.5052C149.132 71.6499 148.754 71.7223 148.34 71.7223C147.923 71.7223 147.542 71.652 147.199 71.5114C146.86 71.3709 146.56 71.1621 146.3 70.8851C145.982 70.5502 145.731 70.1038 145.55 69.5457C145.372 68.9834 145.283 68.293 145.283 67.4745C145.283 66.6724 145.366 65.949 145.531 65.3041C145.696 64.655 145.951 64.0907 146.294 63.6111C146.629 63.144 147.061 62.7802 147.59 62.5197C148.119 62.2551 148.731 62.1229 149.425 62.1229C149.632 62.1229 149.824 62.1332 150.002 62.1539C150.18 62.1745 150.337 62.2076 150.473 62.2531V63.4375H150.417C150.306 63.3755 150.145 63.3197 149.934 63.2701C149.723 63.2163 149.498 63.1895 149.258 63.1895C148.489 63.1895 147.867 63.4499 147.391 63.9708C146.92 64.4876 146.641 65.2565 146.554 66.2776C146.848 66.0709 147.149 65.9118 147.46 65.8001C147.77 65.6885 148.109 65.6327 148.477 65.6327C148.836 65.6327 149.15 65.6699 149.419 65.7443C149.692 65.8146 149.975 65.9593 150.269 66.1784C150.608 66.4347 150.86 66.7593 151.025 67.152C151.191 67.5447 151.273 68.0057 151.273 68.5349ZM150.014 68.5845C150.014 68.2041 149.965 67.8858 149.866 67.6295C149.766 67.3732 149.605 67.1541 149.382 66.9722C149.221 66.8399 149.037 66.7531 148.83 66.7117C148.627 66.6704 148.419 66.6497 148.204 66.6497C147.914 66.6497 147.633 66.6931 147.36 66.7799C147.087 66.8667 146.819 66.9928 146.554 67.1582C146.546 67.2492 146.54 67.338 146.536 67.4249C146.531 67.5075 146.529 67.613 146.529 67.7411C146.529 68.3819 146.591 68.8987 146.715 69.2914C146.844 69.6841 147.001 69.9818 147.187 70.1844C147.364 70.3787 147.546 70.5151 147.732 70.5937C147.923 70.6722 148.127 70.7115 148.346 70.7115C148.842 70.7115 149.243 70.5337 149.549 70.1782C149.859 69.8226 150.014 69.2914 150.014 68.5845Z" fill="#303549"/>
<path d="M112.37 21.6702V28.1102L114.32 30.0602H129.32L142.12 42.9002" stroke="#8C99B2" stroke-miterlimit="10"/>
<path d="M142.12 45.0902C141.687 45.0902 141.263 44.9618 140.903 44.7211C140.543 44.4805 140.262 44.1385 140.097 43.7383C139.931 43.3381 139.888 42.8978 139.972 42.473C140.057 42.0481 140.265 41.6579 140.571 41.3516C140.878 41.0454 141.268 40.8368 141.693 40.7523C142.118 40.6678 142.558 40.7112 142.958 40.8769C143.358 41.0427 143.7 41.3234 143.941 41.6835C144.182 42.0437 144.31 42.4671 144.31 42.9002C144.307 43.4802 144.076 44.0357 143.666 44.4459C143.256 44.856 142.7 45.0876 142.12 45.0902Z" fill="#F5F8FD"/>
<path d="M142.12 41.2102C142.454 41.2102 142.781 41.3093 143.059 41.495C143.337 41.6807 143.553 41.9447 143.681 42.2535C143.809 42.5623 143.843 42.9021 143.778 43.2299C143.712 43.5577 143.551 43.8589 143.315 44.0952C143.079 44.3316 142.778 44.4925 142.45 44.5577C142.122 44.6229 141.782 44.5895 141.473 44.4616C141.164 44.3337 140.901 44.117 140.715 43.8391C140.529 43.5612 140.43 43.2345 140.43 42.9002C140.429 42.6779 140.471 42.4575 140.556 42.2519C140.64 42.0463 140.765 41.8594 140.922 41.7022C141.079 41.545 141.266 41.4206 141.472 41.3361C141.677 41.2517 141.898 41.2089 142.12 41.2102ZM142.12 40.2102C141.588 40.2102 141.068 40.368 140.626 40.6636C140.183 40.9591 139.838 41.3793 139.635 41.8708C139.431 42.3623 139.378 42.9032 139.482 43.425C139.585 43.9468 139.842 44.4261 140.218 44.8023C140.594 45.1785 141.073 45.4347 141.595 45.5385C142.117 45.6423 142.658 45.589 143.149 45.3854C143.641 45.1818 144.061 44.8371 144.357 44.3947C144.652 43.9523 144.81 43.4322 144.81 42.9002C144.81 42.1868 144.527 41.5026 144.022 40.9981C143.518 40.4936 142.833 40.2102 142.12 40.2102Z" fill="#8C99B2"/>
<path d="M142.12 44C141.924 43.9998 141.733 43.9422 141.57 43.8343C141.407 43.7265 141.279 43.5732 141.202 43.3933C141.125 43.2135 141.102 43.0151 141.137 42.8226C141.172 42.6301 141.262 42.452 141.397 42.3103C141.532 42.1687 141.705 42.0697 141.896 42.0257C142.087 41.9816 142.286 41.9944 142.469 42.0625C142.653 42.1306 142.812 42.251 142.928 42.4087C143.043 42.5664 143.11 42.7546 143.12 42.95C143.127 43.0855 143.106 43.2209 143.059 43.3481C143.012 43.4752 142.939 43.5914 142.845 43.6897C142.752 43.7879 142.639 43.866 142.515 43.9194C142.39 43.9727 142.256 44.0002 142.12 44Z" fill="#8C99B2"/>
<path d="M142.12 42.3501C142.193 42.3487 142.265 42.362 142.332 42.3892C142.399 42.4164 142.461 42.4568 142.512 42.5082C142.563 42.5595 142.604 42.6207 142.631 42.688C142.658 42.7554 142.671 42.8275 142.67 42.9001C142.67 43.046 142.612 43.1859 142.509 43.289C142.406 43.3922 142.266 43.4501 142.12 43.4501C141.974 43.4501 141.834 43.3922 141.731 43.289C141.628 43.1859 141.57 43.046 141.57 42.9001C141.57 42.7542 141.628 42.6143 141.731 42.5112C141.834 42.408 141.974 42.3501 142.12 42.3501ZM142.12 41.3501C141.813 41.3501 141.514 41.441 141.259 41.6113C141.004 41.7816 140.805 42.0237 140.688 42.3069C140.571 42.5902 140.54 42.9018 140.6 43.2025C140.66 43.5032 140.807 43.7793 141.024 43.9961C141.241 44.2129 141.517 44.3605 141.818 44.4203C142.118 44.4801 142.43 44.4494 142.713 44.3321C142.996 44.2148 143.238 44.0161 143.409 43.7612C143.579 43.5063 143.67 43.2067 143.67 42.9001C143.67 42.489 143.507 42.0948 143.216 41.8041C142.925 41.5134 142.531 41.3501 142.12 41.3501Z" fill="#F5F8FD"/>
<path d="M112.43 22.7602C113.203 22.7602 113.83 22.1334 113.83 21.3602C113.83 20.587 113.203 19.9602 112.43 19.9602C111.657 19.9602 111.03 20.587 111.03 21.3602C111.03 22.1334 111.657 22.7602 112.43 22.7602Z" fill="#F5F8FD"/>
<path d="M112.43 20.4602C112.608 20.4622 112.781 20.5166 112.927 20.6167C113.074 20.7168 113.188 20.858 113.254 21.0227C113.321 21.1873 113.337 21.3679 113.301 21.5418C113.266 21.7158 113.179 21.8752 113.053 22.0001C112.927 22.1249 112.766 22.2097 112.592 22.2436C112.418 22.2775 112.237 22.2591 112.073 22.1907C111.909 22.1223 111.769 22.0069 111.671 21.8592C111.573 21.7114 111.52 21.5378 111.52 21.3602C111.52 21.2412 111.544 21.1233 111.589 21.0135C111.635 20.9036 111.702 20.804 111.787 20.7202C111.872 20.6365 111.972 20.5705 112.083 20.5258C112.193 20.4812 112.311 20.4589 112.43 20.4602ZM112.43 19.4602C112.054 19.4602 111.687 19.5716 111.374 19.7804C111.062 19.9892 110.818 20.2859 110.675 20.6331C110.531 20.9803 110.493 21.3623 110.567 21.7309C110.64 22.0994 110.821 22.438 111.086 22.7037C111.352 22.9694 111.691 23.1504 112.059 23.2237C112.428 23.297 112.81 23.2594 113.157 23.1156C113.504 22.9718 113.801 22.7282 114.01 22.4158C114.219 22.1033 114.33 21.736 114.33 21.3602C114.33 20.8563 114.13 20.373 113.774 20.0167C113.417 19.6604 112.934 19.4602 112.43 19.4602Z" fill="#8C99B2"/>
<path d="M211.85 42.5302C208.073 42.5253 204.345 43.3792 200.946 45.0275C197.548 46.6758 194.569 49.0752 192.235 52.0444C189.901 55.0135 188.272 58.4746 187.472 62.1658C186.673 65.857 186.723 69.6818 187.619 73.3508C188.515 77.0198 190.234 80.437 192.645 83.344C195.056 86.2509 198.097 88.5714 201.538 90.1301C204.978 91.6887 208.727 92.4447 212.503 92.3408C216.278 92.2368 219.981 91.2757 223.33 89.5302L222.59 89.2602C217.185 91.9282 210.982 92.4991 205.181 90.8625C199.379 89.226 194.389 85.4981 191.175 80.3986C187.96 75.2991 186.749 69.1895 187.775 63.2494C188.801 57.3092 191.991 51.9598 196.729 48.2336C201.468 44.5075 207.419 42.669 213.433 43.073C219.448 43.477 225.1 46.0949 229.297 50.4213C233.495 54.7477 235.941 60.4758 236.163 66.4997C236.385 72.5237 234.368 78.4164 230.5 83.0402C230.55 83.3302 230.62 83.7902 230.62 83.7902C234.571 79.2517 236.748 73.4377 236.75 67.4202C236.751 65.6343 236.556 63.8538 236.17 62.1102L237.73 60.1102C235.882 53.4076 231.519 47.6763 225.55 44.1102L223.03 45.1102C219.557 43.3856 215.727 42.5018 211.85 42.5302Z" fill="#A2E2FF"/>
<path d="M206.349 66.0916C206.349 65.4632 206.291 64.9527 206.176 64.5599C206.06 64.163 205.901 63.8571 205.698 63.6421C205.516 63.4437 205.332 63.3073 205.146 63.2329C204.96 63.1584 204.756 63.1212 204.532 63.1212C204.024 63.1212 203.619 63.3031 203.317 63.6669C203.015 64.0307 202.864 64.5578 202.864 65.2482C202.864 65.6368 202.914 65.9572 203.013 66.2094C203.112 66.4616 203.274 66.6786 203.497 66.8605C203.654 66.9887 203.832 67.0755 204.03 67.121C204.229 67.1623 204.441 67.183 204.669 67.183C204.933 67.183 205.219 67.1375 205.525 67.0466C205.831 66.9515 206.097 66.8275 206.325 66.6745C206.329 66.6125 206.333 66.5319 206.337 66.4327C206.345 66.3293 206.349 66.2156 206.349 66.0916ZM201.605 65.2979C201.605 64.8224 201.682 64.3883 201.835 63.9956C201.992 63.6029 202.205 63.2639 202.474 62.9786C202.73 62.7058 203.042 62.4929 203.41 62.3399C203.782 62.1869 204.158 62.1104 204.539 62.1104C204.964 62.1104 205.349 62.1828 205.692 62.3275C206.039 62.4681 206.339 62.6727 206.591 62.9414C206.91 63.2804 207.156 63.7248 207.329 64.2747C207.507 64.8245 207.596 65.519 207.596 66.3583C207.596 67.1231 207.509 67.8486 207.335 68.5349C207.166 69.217 206.914 69.7834 206.579 70.234C206.223 70.7135 205.795 71.0794 205.295 71.3316C204.799 71.5838 204.185 71.7099 203.453 71.7099C203.288 71.7099 203.112 71.6995 202.926 71.6789C202.74 71.6623 202.567 71.6292 202.405 71.5796V70.3952H202.467C202.571 70.4531 202.732 70.5089 202.951 70.5626C203.17 70.6164 203.393 70.6433 203.621 70.6433C204.431 70.6433 205.068 70.3766 205.531 69.8433C205.994 69.31 206.256 68.5473 206.318 67.5551C205.988 67.7783 205.671 67.9416 205.37 68.045C205.072 68.1483 204.747 68.2 204.396 68.2C204.053 68.2 203.741 68.1628 203.46 68.0884C203.179 68.014 202.895 67.8693 202.61 67.6543C202.279 67.4021 202.029 67.0838 201.86 66.6993C201.69 66.3107 201.605 65.8436 201.605 65.2979ZM213.282 66.0916C213.282 65.4632 213.224 64.9527 213.109 64.5599C212.993 64.163 212.834 63.8571 212.631 63.6421C212.449 63.4437 212.265 63.3073 212.079 63.2329C211.893 63.1584 211.689 63.1212 211.465 63.1212C210.957 63.1212 210.552 63.3031 210.25 63.6669C209.948 64.0307 209.797 64.5578 209.797 65.2482C209.797 65.6368 209.847 65.9572 209.946 66.2094C210.045 66.4616 210.207 66.6786 210.43 66.8605C210.587 66.9887 210.765 67.0755 210.963 67.121C211.161 67.1623 211.374 67.183 211.602 67.183C211.866 67.183 212.152 67.1375 212.458 67.0466C212.763 66.9515 213.03 66.8275 213.257 66.6745C213.262 66.6125 213.266 66.5319 213.27 66.4327C213.278 66.3293 213.282 66.2156 213.282 66.0916ZM208.538 65.2979C208.538 64.8224 208.615 64.3883 208.768 63.9956C208.925 63.6029 209.138 63.2639 209.407 62.9786C209.663 62.7058 209.975 62.4929 210.343 62.3399C210.715 62.1869 211.091 62.1104 211.472 62.1104C211.897 62.1104 212.282 62.1828 212.625 62.3275C212.972 62.4681 213.272 62.6727 213.524 62.9414C213.842 63.2804 214.088 63.7248 214.262 64.2747C214.44 64.8245 214.529 65.519 214.529 66.3583C214.529 67.1231 214.442 67.8486 214.268 68.5349C214.099 69.217 213.847 69.7834 213.512 70.234C213.156 70.7135 212.728 71.0794 212.228 71.3316C211.732 71.5838 211.118 71.7099 210.386 71.7099C210.221 71.7099 210.045 71.6995 209.859 71.6789C209.673 71.6623 209.5 71.6292 209.338 71.5796V70.3952H209.4C209.504 70.4531 209.665 70.5089 209.884 70.5626C210.103 70.6164 210.326 70.6433 210.554 70.6433C211.364 70.6433 212.001 70.3766 212.464 69.8433C212.927 69.31 213.189 68.5473 213.251 67.5551C212.921 67.7783 212.604 67.9416 212.303 68.045C212.005 68.1483 211.68 68.2 211.329 68.2C210.986 68.2 210.674 68.1628 210.393 68.0884C210.111 68.014 209.828 67.8693 209.543 67.6543C209.212 67.4021 208.962 67.0838 208.793 66.6993C208.623 66.3107 208.538 65.8436 208.538 65.2979ZM220.959 71.53H216.457V70.5875H218.132V64.3987H216.457V63.5553C217.09 63.5553 217.555 63.4664 217.853 63.2887C218.154 63.1068 218.324 62.7657 218.361 62.2655H219.322V70.5875H220.959V71.53Z" fill="#303549"/>
<path d="M182.59 21.6702V28.1102L184.59 30.0602H199.59L212.34 42.9002" stroke="#8C99B2" stroke-miterlimit="10"/>
<path d="M212.35 45.0902C211.917 45.0902 211.493 44.9618 211.133 44.7211C210.773 44.4805 210.492 44.1385 210.327 43.7383C210.161 43.3381 210.118 42.8978 210.202 42.473C210.287 42.0481 210.495 41.6579 210.801 41.3516C211.108 41.0454 211.498 40.8368 211.923 40.7523C212.348 40.6678 212.788 40.7112 213.188 40.8769C213.588 41.0427 213.93 41.3234 214.171 41.6835C214.412 42.0437 214.54 42.4671 214.54 42.9002C214.537 43.4802 214.306 44.0357 213.896 44.4459C213.486 44.856 212.93 45.0876 212.35 45.0902Z" fill="#F5F8FD"/>
<path d="M212.34 41.2101C212.674 41.2101 213.001 41.3092 213.279 41.4949C213.557 41.6806 213.773 41.9446 213.901 42.2534C214.029 42.5622 214.063 42.902 213.998 43.2298C213.932 43.5577 213.771 43.8588 213.535 44.0951C213.299 44.3315 212.998 44.4924 212.67 44.5577C212.342 44.6229 212.002 44.5894 211.693 44.4615C211.384 44.3336 211.121 44.117 210.935 43.839C210.749 43.5611 210.65 43.2344 210.65 42.9001C210.65 42.4519 210.828 42.0221 211.145 41.7051C211.462 41.3882 211.892 41.2101 212.34 41.2101ZM212.34 40.2101C211.807 40.2042 211.284 40.3569 210.837 40.6488C210.391 40.9408 210.042 41.3588 209.833 41.8498C209.625 42.3407 209.568 42.8825 209.668 43.4063C209.768 43.9301 210.022 44.4122 210.397 44.7914C210.772 45.1706 211.251 45.4298 211.774 45.536C212.297 45.6423 212.839 45.5908 213.332 45.3881C213.826 45.1854 214.248 44.8407 214.544 44.3977C214.841 43.9547 215 43.4334 215 42.9001C215 42.546 214.93 42.1954 214.794 41.8684C214.658 41.5414 214.459 41.2444 214.209 40.9945C213.958 40.7445 213.66 40.5466 213.332 40.412C213.005 40.2774 212.654 40.2088 212.3 40.2101H212.34Z" fill="#8C99B2"/>
<path d="M212.35 44.0002C212.14 44.0102 211.933 43.9572 211.754 43.848C211.575 43.7389 211.432 43.5786 211.345 43.3878C211.258 43.1971 211.23 42.9846 211.264 42.7777C211.299 42.5708 211.395 42.3791 211.54 42.2272C211.684 42.0753 211.871 41.9703 212.076 41.9255C212.281 41.8808 212.495 41.8985 212.689 41.9762C212.884 42.054 213.051 42.1884 213.169 42.362C213.287 42.5356 213.35 42.7404 213.35 42.9502C213.357 43.0856 213.336 43.2211 213.289 43.3482C213.242 43.4754 213.169 43.5916 213.075 43.6898C212.982 43.7881 212.869 43.8662 212.745 43.9196C212.62 43.9729 212.486 44.0003 212.35 44.0002Z" fill="#8C99B2"/>
<path d="M212.34 42.3501C212.413 42.3487 212.485 42.362 212.552 42.3892C212.619 42.4164 212.681 42.4568 212.732 42.5082C212.783 42.5595 212.824 42.6207 212.851 42.688C212.878 42.7554 212.891 42.8275 212.89 42.9001C212.89 43.046 212.832 43.1859 212.729 43.289C212.626 43.3922 212.486 43.4501 212.34 43.4501C212.194 43.4501 212.054 43.3922 211.951 43.289C211.848 43.1859 211.79 43.046 211.79 42.9001C211.79 42.7542 211.848 42.6143 211.951 42.5112C212.054 42.408 212.194 42.3501 212.34 42.3501ZM212.34 41.3501C212.033 41.3501 211.734 41.441 211.479 41.6113C211.224 41.7816 211.025 42.0237 210.908 42.3069C210.791 42.5902 210.76 42.9018 210.82 43.2025C210.88 43.5032 211.027 43.7793 211.244 43.9961C211.461 44.2129 211.737 44.3605 212.038 44.4203C212.338 44.4801 212.65 44.4494 212.933 44.3321C213.216 44.2148 213.458 44.0161 213.629 43.7612C213.799 43.5063 213.89 43.2067 213.89 42.9001C213.89 42.489 213.727 42.0948 213.436 41.8041C213.145 41.5134 212.751 41.3501 212.34 41.3501Z" fill="#F5F8FD"/>
<path d="M182.65 22.7602C183.423 22.7602 184.05 22.1334 184.05 21.3602C184.05 20.587 183.423 19.9602 182.65 19.9602C181.877 19.9602 181.25 20.587 181.25 21.3602C181.25 22.1334 181.877 22.7602 182.65 22.7602Z" fill="#F5F8FD"/>
<path d="M182.65 20.4602C182.828 20.4622 183.001 20.5166 183.147 20.6167C183.294 20.7168 183.408 20.858 183.474 21.0227C183.541 21.1873 183.557 21.3679 183.521 21.5418C183.486 21.7158 183.399 21.8752 183.273 22.0001C183.147 22.1249 182.986 22.2097 182.812 22.2436C182.638 22.2775 182.457 22.2591 182.293 22.1907C182.129 22.1223 181.989 22.0069 181.891 21.8592C181.793 21.7114 181.74 21.5378 181.74 21.3602C181.74 21.2412 181.764 21.1233 181.809 21.0135C181.855 20.9036 181.922 20.804 182.007 20.7202C182.092 20.6365 182.192 20.5705 182.303 20.5258C182.413 20.4812 182.531 20.4589 182.65 20.4602ZM182.65 19.4602C182.274 19.4602 181.907 19.5716 181.594 19.7804C181.282 19.9892 181.038 20.2859 180.895 20.6331C180.751 20.9803 180.713 21.3623 180.787 21.7309C180.86 22.0994 181.041 22.438 181.307 22.7037C181.572 22.9694 181.911 23.1504 182.279 23.2237C182.648 23.297 183.03 23.2594 183.377 23.1156C183.724 22.9718 184.021 22.7282 184.23 22.4158C184.439 22.1033 184.55 21.736 184.55 21.3602C184.547 20.8571 184.346 20.3754 183.991 20.0196C183.635 19.6639 183.153 19.4628 182.65 19.4602Z" fill="#8C99B2"/>
<path d="M279.5 42.53C275.724 42.5266 271.996 43.3819 268.598 45.0312C265.201 46.6804 262.223 49.0806 259.89 52.0501C257.557 55.0196 255.93 58.4807 255.131 62.1717C254.332 65.8628 254.383 69.6871 255.28 73.3555C256.177 77.0239 257.896 80.4404 260.308 83.3467C262.719 86.2529 265.76 88.5728 269.2 90.1309C272.64 91.6891 276.389 92.4446 280.164 92.3405C283.939 92.2364 287.641 91.2754 290.99 89.53L290.25 89.26C284.851 91.9231 278.657 92.4918 272.863 90.8563C267.069 89.2208 262.087 85.4971 258.877 80.4039C255.668 75.3106 254.459 69.2091 255.484 63.2768C256.509 57.3446 259.695 52.0023 264.427 48.2811C269.159 44.5599 275.102 42.7237 281.109 43.1267C287.115 43.5298 292.76 46.1437 296.952 50.4638C301.145 54.784 303.589 60.504 303.812 66.52C304.035 72.536 302.021 78.4213 298.16 83.04C298.16 83.33 298.28 83.79 298.28 83.79C302.231 79.2516 304.408 73.4375 304.41 67.42C304.411 65.6342 304.216 63.8536 303.83 62.11L305.39 60.11C303.542 53.4074 299.179 47.6762 293.21 44.11L290.68 45.11C287.208 43.3844 283.378 42.5005 279.5 42.53Z" fill="#A2E2FF"/>
<path d="M275.467 68.355H274.369V71.53H273.178V68.355H269.098V67.0528L273.228 62.2965H274.369V67.3628H275.467V68.355ZM273.178 67.3628V63.7538L270.065 67.3628H273.178ZM282.4 68.355H281.302V71.53H280.111V68.355H276.031V67.0528L280.161 62.2965H281.302V67.3628H282.4V68.355ZM280.111 67.3628V63.7538L276.998 67.3628H280.111ZM289.332 68.355H288.235V71.53H287.044V68.355H282.964V67.0528L287.094 62.2965H288.235V67.3628H289.332V68.355ZM287.044 67.3628V63.7538L283.931 67.3628H287.044Z" fill="#303549"/>
<path d="M240.73 21.6702V28.1102L242.73 30.0602H267.22L280 42.9002" stroke="#8C99B2" stroke-miterlimit="10"/>
<path d="M280 45.0902C279.567 45.0902 279.143 44.9618 278.783 44.7211C278.423 44.4805 278.142 44.1385 277.977 43.7383C277.811 43.3381 277.768 42.8978 277.852 42.473C277.937 42.0481 278.145 41.6579 278.451 41.3516C278.758 41.0454 279.148 40.8368 279.573 40.7523C279.998 40.6678 280.438 40.7112 280.838 40.8769C281.238 41.0427 281.58 41.3234 281.821 41.6835C282.062 42.0437 282.19 42.4671 282.19 42.9002C282.19 43.481 281.959 44.0381 281.549 44.4488C281.138 44.8595 280.581 45.0902 280 45.0902Z" fill="#F5F8FD"/>
<path d="M280 41.2102C280.334 41.2102 280.661 41.3093 280.939 41.495C281.217 41.6807 281.433 41.9447 281.561 42.2535C281.689 42.5623 281.723 42.9021 281.658 43.2299C281.592 43.5577 281.431 43.8589 281.195 44.0952C280.959 44.3316 280.658 44.4925 280.33 44.5577C280.002 44.6229 279.662 44.5895 279.353 44.4616C279.044 44.3337 278.78 44.117 278.595 43.8391C278.409 43.5612 278.31 43.2345 278.31 42.9002C278.31 42.452 278.488 42.0221 278.805 41.7052C279.122 41.3883 279.552 41.2102 280 41.2102ZM280 40.2102C279.468 40.2102 278.948 40.368 278.506 40.6636C278.063 40.9591 277.718 41.3793 277.515 41.8708C277.311 42.3623 277.258 42.9032 277.362 43.425C277.465 43.9468 277.722 44.4261 278.098 44.8023C278.474 45.1785 278.953 45.4347 279.475 45.5385C279.997 45.6423 280.538 45.589 281.029 45.3854C281.521 45.1818 281.941 44.8371 282.237 44.3947C282.532 43.9523 282.69 43.4322 282.69 42.9002C282.69 42.1868 282.407 41.5026 281.902 40.9981C281.398 40.4936 280.713 40.2102 280 40.2102Z" fill="#8C99B2"/>
<path d="M280 44.0001C279.807 43.9902 279.621 43.9245 279.464 43.8109C279.308 43.6974 279.187 43.5408 279.118 43.3603C279.049 43.1798 279.033 42.983 279.073 42.7938C279.113 42.6046 279.207 42.4311 279.344 42.2944C279.481 42.1576 279.654 42.0634 279.844 42.0233C280.033 41.9831 280.23 41.9987 280.41 42.0681C280.591 42.1375 280.747 42.2577 280.861 42.4143C280.974 42.5709 281.04 42.757 281.05 42.9501C281.057 43.0899 281.035 43.2297 280.985 43.3603C280.934 43.491 280.857 43.6096 280.758 43.7086C280.659 43.8075 280.541 43.8846 280.41 43.9349C280.28 43.9851 280.14 44.0073 280 44.0001Z" fill="#8C99B2"/>
<path d="M280 42.3501C280.073 42.3487 280.145 42.362 280.212 42.3892C280.279 42.4164 280.341 42.4568 280.392 42.5082C280.443 42.5595 280.484 42.6207 280.511 42.688C280.538 42.7554 280.551 42.8275 280.55 42.9001C280.55 42.9723 280.536 43.0438 280.508 43.1106C280.48 43.1773 280.44 43.2379 280.389 43.289C280.338 43.3401 280.277 43.3806 280.21 43.4082C280.144 43.4359 280.072 43.4501 280 43.4501C279.854 43.4501 279.714 43.3922 279.611 43.289C279.508 43.1859 279.45 43.046 279.45 42.9001C279.45 42.7542 279.508 42.6143 279.611 42.5112C279.714 42.408 279.854 42.3501 280 42.3501ZM280 41.3501C279.693 41.3501 279.394 41.441 279.139 41.6113C278.884 41.7816 278.685 42.0237 278.568 42.3069C278.451 42.5902 278.42 42.9018 278.48 43.2025C278.54 43.5032 278.687 43.7793 278.904 43.9961C279.121 44.2129 279.397 44.3605 279.698 44.4203C279.998 44.4801 280.31 44.4494 280.593 44.3321C280.876 44.2148 281.118 44.0161 281.289 43.7612C281.459 43.5063 281.55 43.2067 281.55 42.9001C281.55 42.489 281.387 42.0948 281.096 41.8041C280.805 41.5134 280.411 41.3501 280 41.3501Z" fill="#F5F8FD"/>
<path d="M240.78 22.7602C241.553 22.7602 242.18 22.1334 242.18 21.3602C242.18 20.587 241.553 19.9602 240.78 19.9602C240.007 19.9602 239.38 20.587 239.38 21.3602C239.38 22.1334 240.007 22.7602 240.78 22.7602Z" fill="#F5F8FD"/>
<path d="M240.78 20.4602C240.958 20.4602 241.132 20.513 241.28 20.6119C241.428 20.7108 241.543 20.8514 241.611 21.0158C241.68 21.1803 241.697 21.3612 241.663 21.5358C241.628 21.7104 241.542 21.8708 241.416 21.9966C241.291 22.1225 241.13 22.2082 240.956 22.2429C240.781 22.2777 240.6 22.2598 240.436 22.1917C240.271 22.1236 240.131 22.0083 240.032 21.8602C239.933 21.7122 239.88 21.5382 239.88 21.3602C239.88 21.1215 239.975 20.8926 240.144 20.7238C240.312 20.5551 240.541 20.4602 240.78 20.4602ZM240.78 19.4602C240.405 19.4622 240.038 19.5753 239.727 19.7853C239.416 19.9953 239.174 20.2927 239.032 20.64C238.889 20.9874 238.853 21.3691 238.928 21.737C239.002 22.1049 239.184 22.4425 239.45 22.7072C239.716 22.972 240.055 23.1519 240.423 23.2244C240.791 23.2969 241.173 23.2587 241.519 23.1146C241.866 22.9705 242.162 22.727 242.37 22.4148C242.579 22.1025 242.69 21.7356 242.69 21.3602C242.69 21.1099 242.641 20.862 242.544 20.6308C242.448 20.3996 242.307 20.1897 242.13 20.0132C241.952 19.8366 241.742 19.6969 241.51 19.602C241.278 19.5071 241.03 19.4589 240.78 19.4602Z" fill="#8C99B2"/>
<path d="M27.9975 94.1802H27.2859V89.4616H24.8242V94.1802H24.1127V88.8291H27.9975V94.1802ZM32.2022 94.1802H31.5337V91.1866L29.6434 94.1802H29.0325V90.166H29.7009V93.1128L31.5697 90.166H32.2022V94.1802ZM36.547 92.0671C36.547 92.7355 36.3865 93.2686 36.0655 93.6663C35.7468 94.0616 35.3431 94.2592 34.8544 94.2592C34.6555 94.2592 34.4794 94.2365 34.3261 94.191C34.1728 94.1454 34.0158 94.0748 33.8553 93.9789V95.6608H33.1797V90.166H33.8553V90.5864C34.023 90.4355 34.2087 90.3097 34.4123 90.2091C34.6184 90.1061 34.8424 90.0546 35.0844 90.0546C35.5444 90.0546 35.9026 90.2366 36.1589 90.6008C36.4177 90.965 36.547 91.4537 36.547 92.0671ZM35.8498 92.1425C35.8498 91.6849 35.7768 91.3303 35.6306 91.0788C35.4845 90.8248 35.2473 90.6978 34.9191 90.6978C34.7274 90.6978 34.5417 90.741 34.362 90.8272C34.1847 90.9111 34.0158 91.0201 33.8553 91.1542V93.4291C34.0326 93.5153 34.1835 93.574 34.3081 93.6052C34.4351 93.6363 34.5801 93.6519 34.743 93.6519C35.0928 93.6519 35.3647 93.5237 35.5587 93.2674C35.7528 93.011 35.8498 92.6361 35.8498 92.1425ZM39.4903 93.1919V92.0778C39.3298 92.0922 39.1261 92.1126 38.8794 92.1389C38.635 92.1629 38.4373 92.1976 38.2864 92.2431C38.1067 92.2982 37.9582 92.3833 37.8408 92.4983C37.7234 92.6109 37.6647 92.769 37.6647 92.9727C37.6647 93.2027 37.7294 93.3764 37.8588 93.4938C37.9881 93.6112 38.1774 93.6699 38.4266 93.6699C38.6398 93.6699 38.8327 93.6243 39.0052 93.5333C39.1777 93.4399 39.3394 93.3261 39.4903 93.1919ZM39.4903 93.7525C39.4352 93.7932 39.3609 93.8507 39.2675 93.925C39.1765 93.9969 39.0878 94.0544 39.0016 94.0975C38.8818 94.1598 38.7656 94.2077 38.653 94.2413C38.5428 94.2748 38.387 94.2916 38.1858 94.2916C38.0205 94.2916 37.8635 94.2604 37.715 94.1981C37.5665 94.1359 37.4359 94.0484 37.3233 93.9358C37.2155 93.8256 37.1292 93.6902 37.0645 93.5297C36.9998 93.3668 36.9675 93.1955 36.9675 93.0158C36.9675 92.7379 37.0262 92.5019 37.1436 92.3078C37.261 92.1114 37.4467 91.9556 37.7006 91.8406C37.9258 91.7376 38.1918 91.6669 38.4984 91.6286C38.8051 91.5879 39.1357 91.5579 39.4903 91.5388V91.4094C39.4903 91.2513 39.4664 91.1243 39.4184 91.0285C39.3705 90.9302 39.3034 90.8548 39.2172 90.8021C39.1309 90.7469 39.0255 90.711 38.9009 90.6942C38.7764 90.6751 38.6482 90.6655 38.5164 90.6655C38.3607 90.6655 38.1774 90.6894 37.9666 90.7374C37.7557 90.7829 37.5449 90.85 37.3341 90.9386H37.2945V90.2522C37.4191 90.2163 37.5976 90.1767 37.83 90.1336C38.0624 90.0905 38.2924 90.0689 38.52 90.0689C38.7955 90.0689 39.0279 90.0905 39.2172 90.1336C39.4065 90.1767 39.5766 90.2546 39.7275 90.3672C39.8736 90.4774 39.9827 90.62 40.0545 90.7949C40.1264 90.9698 40.1623 91.183 40.1623 91.4346V94.1802H39.4903V93.7525ZM44.8378 94.1802H44.1694V91.0249L43.2063 93.0733H42.7031L41.7472 91.0249V94.1802H41.1147V90.166H41.9305L42.987 92.3941L44.0077 90.166H44.8378V94.1802ZM48.985 94.1802H48.3166V91.1866L46.4263 94.1802H45.8153V90.166H46.4838V93.1128L48.3525 90.166H48.985V94.1802ZM53.4053 95.1433H52.7764V94.1694H50.1314V95.1433H49.5025V93.6052H49.7684C49.996 93.2314 50.1817 92.7439 50.3255 92.1425C50.4716 91.5388 50.5447 90.8799 50.5447 90.166H53.0064V93.6052H53.4053V95.1433ZM52.3308 93.6052V90.7338H51.1808C51.1496 91.3327 51.067 91.8802 50.9328 92.3761C50.801 92.8697 50.6345 93.2793 50.4333 93.6052H52.3308ZM56.3163 93.1919V92.0778C56.1557 92.0922 55.9521 92.1126 55.7053 92.1389C55.4609 92.1629 55.2633 92.1976 55.1123 92.2431C54.9327 92.2982 54.7841 92.3833 54.6667 92.4983C54.5493 92.6109 54.4906 92.769 54.4906 92.9727C54.4906 93.2027 54.5553 93.3764 54.6847 93.4938C54.8141 93.6112 55.0033 93.6699 55.2525 93.6699C55.4657 93.6699 55.6586 93.6243 55.8311 93.5333C56.0036 93.4399 56.1653 93.3261 56.3163 93.1919ZM56.3163 93.7525C56.2611 93.7932 56.1869 93.8507 56.0934 93.925C56.0024 93.9969 55.9138 94.0544 55.8275 94.0975C55.7077 94.1598 55.5915 94.2077 55.4789 94.2413C55.3687 94.2748 55.213 94.2916 55.0117 94.2916C54.8464 94.2916 54.6895 94.2604 54.5409 94.1981C54.3924 94.1359 54.2618 94.0484 54.1492 93.9358C54.0414 93.8256 53.9552 93.6902 53.8905 93.5297C53.8258 93.3668 53.7934 93.1955 53.7934 93.0158C53.7934 92.7379 53.8521 92.5019 53.9695 92.3078C54.0869 92.1114 54.2726 91.9556 54.5266 91.8406C54.7518 91.7376 55.0177 91.6669 55.3244 91.6286C55.631 91.5879 55.9617 91.5579 56.3163 91.5388V91.4094C56.3163 91.2513 56.2923 91.1243 56.2444 91.0285C56.1965 90.9302 56.1294 90.8548 56.0431 90.8021C55.9569 90.7469 55.8515 90.711 55.7269 90.6942C55.6023 90.6751 55.4741 90.6655 55.3423 90.6655C55.1866 90.6655 55.0033 90.6894 54.7925 90.7374C54.5817 90.7829 54.3708 90.85 54.16 90.9386H54.1205V90.2522C54.2451 90.2163 54.4235 90.1767 54.6559 90.1336C54.8883 90.0905 55.1183 90.0689 55.3459 90.0689C55.6215 90.0689 55.8539 90.0905 56.0431 90.1336C56.2324 90.1767 56.4025 90.2546 56.5534 90.3672C56.6996 90.4774 56.8086 90.62 56.8805 90.7949C56.9523 90.9698 56.9883 91.183 56.9883 91.4346V94.1802H56.3163V93.7525ZM63.4103 94.1802H62.7347V90.7481H60.9163V94.1802H60.2406V90.166H63.4103V94.1802ZM67.7552 92.0671C67.7552 92.7355 67.5946 93.2686 67.2736 93.6663C66.9549 94.0616 66.5513 94.2592 66.0625 94.2592C65.8636 94.2592 65.6876 94.2365 65.5342 94.191C65.3809 94.1454 65.224 94.0748 65.0634 93.9789V95.6608H64.3878V90.166H65.0634V90.5864C65.2311 90.4355 65.4168 90.3097 65.6205 90.2091C65.8265 90.1061 66.0505 90.0546 66.2925 90.0546C66.7525 90.0546 67.1107 90.2366 67.367 90.6008C67.6258 90.965 67.7552 91.4537 67.7552 92.0671ZM67.058 92.1425C67.058 91.6849 66.9849 91.3303 66.8388 91.0788C66.6926 90.8248 66.4554 90.6978 66.1272 90.6978C65.9355 90.6978 65.7498 90.741 65.5702 90.8272C65.3929 90.9111 65.224 91.0201 65.0634 91.1542V93.4291C65.2407 93.5153 65.3917 93.574 65.5163 93.6052C65.6432 93.6363 65.7882 93.6519 65.9511 93.6519C66.3009 93.6519 66.5728 93.5237 66.7669 93.2674C66.9609 93.011 67.058 92.6361 67.058 92.1425ZM71.7586 92.1749C71.7586 92.8505 71.5957 93.3728 71.2698 93.7417C70.944 94.1083 70.5104 94.2916 69.9689 94.2916C69.4107 94.2916 68.971 94.1023 68.65 93.7238C68.3314 93.3428 68.172 92.8265 68.172 92.1749C68.172 91.504 68.3361 90.9829 68.6644 90.6116C68.995 90.2402 69.4298 90.0546 69.9689 90.0546C70.5104 90.0546 70.944 90.2402 71.2698 90.6116C71.5957 90.9805 71.7586 91.5016 71.7586 92.1749ZM71.0614 92.1749C71.0614 91.655 70.9668 91.2692 70.7775 91.0177C70.5882 90.7637 70.3187 90.6367 69.9689 90.6367C69.6167 90.6367 69.3448 90.7637 69.1531 91.0177C68.9639 91.2692 68.8692 91.655 68.8692 92.1749C68.8692 92.678 68.9639 93.0601 69.1531 93.3213C69.3448 93.58 69.6167 93.7094 69.9689 93.7094C70.3163 93.7094 70.5846 93.5824 70.7739 93.3285C70.9656 93.0721 71.0614 92.6876 71.0614 92.1749ZM75.6219 94.1802H74.9534V91.1866L73.0631 94.1802H72.4522V90.166H73.1206V93.1128L74.9894 90.166H75.6219V94.1802ZM78.195 94.27C77.9195 94.27 77.6667 94.2281 77.4367 94.1442C77.2067 94.058 77.0091 93.9286 76.8438 93.7561C76.6784 93.5836 76.5503 93.3668 76.4592 93.1056C76.3682 92.8421 76.3227 92.533 76.3227 92.1785C76.3227 91.8263 76.3694 91.522 76.4628 91.2656C76.5586 91.0093 76.6856 90.7937 76.8438 90.6188C77.0019 90.4439 77.1983 90.3097 77.4331 90.2163C77.6703 90.1204 77.9243 90.0725 78.195 90.0725C78.4154 90.0725 78.6274 90.1037 78.8311 90.166C79.0371 90.2282 79.2204 90.3001 79.3809 90.3816V91.1399H79.3414C79.2935 91.0991 79.2312 91.0524 79.1545 90.9997C79.0803 90.947 78.9892 90.8931 78.8814 90.838C78.788 90.7901 78.6778 90.7481 78.5508 90.7122C78.4238 90.6763 78.3016 90.6583 78.1842 90.6583C77.8344 90.6583 77.5529 90.7913 77.3397 91.0572C77.1289 91.3207 77.0234 91.6945 77.0234 92.1785C77.0234 92.6528 77.1253 93.023 77.3289 93.2889C77.5349 93.5525 77.8201 93.6842 78.1842 93.6842C78.4046 93.6842 78.6143 93.6387 78.8131 93.5477C79.012 93.4566 79.1881 93.3392 79.3414 93.1955H79.3809V93.9538C79.3139 93.9849 79.23 94.0232 79.1294 94.0688C79.0288 94.1119 78.9377 94.1442 78.8563 94.1658C78.7413 94.1993 78.6382 94.2245 78.5472 94.2413C78.4561 94.2604 78.3388 94.27 78.195 94.27ZM84.75 94.1802H79.9991V90.166H80.6747V93.6088H82.0367V90.166H82.7123V93.6088H84.0744V90.166H84.75V94.1802ZM87.4705 94.2736C86.8308 94.2736 86.3336 94.0939 85.9791 93.7346C85.6269 93.3728 85.4508 92.8601 85.4508 92.1964C85.4508 91.5424 85.6221 91.0225 85.9647 90.6367C86.3073 90.2486 86.7553 90.0546 87.3088 90.0546C87.5579 90.0546 87.7783 90.0905 87.97 90.1624C88.1617 90.2342 88.3294 90.3468 88.4731 90.5002C88.6169 90.6535 88.7271 90.8416 88.8038 91.0644C88.8804 91.2848 88.9188 91.5555 88.9188 91.8766V92.2431H86.1372C86.1372 92.7103 86.2546 93.0673 86.4894 93.3141C86.7242 93.5609 87.0488 93.6842 87.4633 93.6842C87.6118 93.6842 87.7568 93.6675 87.8981 93.6339C88.0419 93.6004 88.1713 93.5573 88.2863 93.5046C88.4084 93.4494 88.5115 93.3967 88.5953 93.3464C88.6792 93.2937 88.7486 93.2446 88.8038 93.1991H88.8433V93.9358C88.7642 93.9669 88.666 94.0065 88.5486 94.0544C88.4312 94.0999 88.3258 94.1359 88.2323 94.1622C88.1006 94.1981 87.9808 94.2257 87.873 94.2449C87.7676 94.264 87.6334 94.2736 87.4705 94.2736ZM88.2611 91.7256C88.2563 91.5436 88.2347 91.3866 88.1964 91.2549C88.1581 91.1231 88.103 91.0117 88.0311 90.9206C87.952 90.82 87.8502 90.7434 87.7256 90.6906C87.6034 90.6379 87.4513 90.6116 87.2692 90.6116C87.0895 90.6116 86.9362 90.6391 86.8092 90.6942C86.6846 90.7469 86.5708 90.8248 86.4678 90.9278C86.3672 91.0332 86.2905 91.1506 86.2378 91.28C86.1851 91.407 86.1516 91.5555 86.1372 91.7256H88.2611ZM91.1972 94.27C90.9217 94.27 90.6689 94.2281 90.4389 94.1442C90.2089 94.058 90.0113 93.9286 89.8459 93.7561C89.6806 93.5836 89.5525 93.3668 89.4614 93.1056C89.3704 92.8421 89.3248 92.533 89.3248 92.1785C89.3248 91.8263 89.3716 91.522 89.465 91.2656C89.5608 91.0093 89.6878 90.7937 89.8459 90.6188C90.0041 90.4439 90.2005 90.3097 90.4353 90.2163C90.6725 90.1204 90.9265 90.0725 91.1972 90.0725C91.4176 90.0725 91.6296 90.1037 91.8333 90.166C92.0393 90.2282 92.2226 90.3001 92.3831 90.3816V91.1399H92.3436C92.2957 91.0991 92.2334 91.0524 92.1567 90.9997C92.0825 90.947 91.9914 90.8931 91.8836 90.838C91.7902 90.7901 91.68 90.7481 91.553 90.7122C91.426 90.6763 91.3038 90.6583 91.1864 90.6583C90.8366 90.6583 90.5551 90.7913 90.3419 91.0572C90.131 91.3207 90.0256 91.6945 90.0256 92.1785C90.0256 92.6528 90.1275 93.023 90.3311 93.2889C90.5371 93.5525 90.8222 93.6842 91.1864 93.6842C91.4068 93.6842 91.6165 93.6387 91.8153 93.5477C92.0142 93.4566 92.1903 93.3392 92.3436 93.1955H92.3831V93.9538C92.316 93.9849 92.2322 94.0232 92.1316 94.0688C92.0309 94.1119 91.9399 94.1442 91.8584 94.1658C91.7434 94.1993 91.6404 94.2245 91.5494 94.2413C91.4583 94.2604 91.3409 94.27 91.1972 94.27ZM95.9338 90.7589H94.5681V94.1802H93.8925V90.7589H92.5269V90.166H95.9338V90.7589ZM99.585 92.9655C99.585 93.1596 99.5479 93.3321 99.4736 93.483C99.3993 93.6315 99.2975 93.7561 99.1681 93.8567C99.0052 93.9837 98.8339 94.07 98.6542 94.1155C98.4769 94.1586 98.2637 94.1802 98.0145 94.1802H96.4369V90.166H97.9103C98.205 90.166 98.4206 90.1755 98.5572 90.1947C98.6938 90.2115 98.8291 90.257 98.9633 90.3313C99.1046 90.4079 99.2089 90.5098 99.2759 90.6367C99.343 90.7637 99.3766 90.9147 99.3766 91.0896C99.3766 91.2812 99.3239 91.4537 99.2184 91.6071C99.113 91.758 98.9729 91.8754 98.798 91.9592L98.8159 91.9844C99.034 92.0395 99.216 92.1509 99.3622 92.3186C99.5107 92.4863 99.585 92.7019 99.585 92.9655ZM98.683 91.1938C98.683 91.1027 98.6674 91.0237 98.6363 90.9566C98.6075 90.8895 98.556 90.8368 98.4817 90.7985C98.3955 90.7529 98.2984 90.7266 98.1906 90.7194C98.0852 90.7098 97.9379 90.705 97.7486 90.705H97.1053V91.8047H97.8816C98.0469 91.8047 98.1643 91.7975 98.2338 91.7831C98.3032 91.7664 98.3799 91.7328 98.4638 91.6825C98.5428 91.6346 98.5991 91.5699 98.6327 91.4885C98.6662 91.407 98.683 91.3088 98.683 91.1938ZM98.8878 92.9691C98.8878 92.8325 98.8675 92.7235 98.8267 92.6421C98.7884 92.5582 98.7021 92.4839 98.568 92.4192C98.4841 92.3785 98.3943 92.3534 98.2984 92.3438C98.2026 92.3342 98.0696 92.3294 97.8995 92.3294H97.1053V93.6411H97.6911C97.9331 93.6411 98.1211 93.6315 98.2553 93.6124C98.3895 93.5932 98.5045 93.5549 98.6003 93.4974C98.7009 93.4351 98.774 93.3632 98.8195 93.2817C98.8651 93.2003 98.8878 93.0961 98.8878 92.9691ZM103.466 94.1802H102.798V91.1866L100.908 94.1802H100.297V90.166H100.965V93.1128L102.834 90.166H103.466V94.1802ZM107.613 94.1802H106.945V91.1866L105.055 94.1802H104.444V90.166H105.112V93.1128L106.981 90.166H107.613V94.1802ZM107.312 88.3008C107.312 88.5068 107.286 88.6949 107.236 88.865C107.186 89.0327 107.114 89.1741 107.02 89.2891C106.913 89.4161 106.79 89.5119 106.654 89.5766C106.517 89.6389 106.342 89.67 106.129 89.67C105.933 89.67 105.76 89.6377 105.612 89.573C105.466 89.5059 105.342 89.4113 105.242 89.2891C105.143 89.1693 105.069 89.0255 105.019 88.8578C104.968 88.6901 104.943 88.5044 104.943 88.3008H105.525C105.525 88.6242 105.576 88.8578 105.676 89.0016C105.777 89.1429 105.928 89.2136 106.129 89.2136C106.318 89.2136 106.466 89.1441 106.571 89.0052C106.677 88.8638 106.729 88.629 106.729 88.3008H107.312ZM27.2069 101.965C27.2069 102.16 27.1697 102.332 27.0955 102.483C27.0212 102.632 26.9194 102.756 26.79 102.857C26.6271 102.984 26.4558 103.07 26.2761 103.115C26.0988 103.159 25.8856 103.18 25.6364 103.18H24.0587V99.166H25.5322C25.8269 99.166 26.0425 99.1755 26.1791 99.1947C26.3156 99.2115 26.451 99.257 26.5852 99.3313C26.7265 99.4079 26.8307 99.5098 26.8978 99.6367C26.9649 99.7637 26.9984 99.9147 26.9984 100.09C26.9984 100.281 26.9457 100.454 26.8403 100.607C26.7349 100.758 26.5947 100.875 26.4198 100.959L26.4378 100.984C26.6558 101.039 26.8379 101.151 26.9841 101.319C27.1326 101.486 27.2069 101.702 27.2069 101.965ZM26.3048 100.194C26.3048 100.103 26.2893 100.024 26.2581 99.9566C26.2294 99.8895 26.1779 99.8368 26.1036 99.7985C26.0173 99.7529 25.9203 99.7266 25.8125 99.7194C25.7071 99.7098 25.5597 99.705 25.3705 99.705H24.7272V100.805H25.5034C25.6687 100.805 25.7861 100.798 25.8556 100.783C25.9251 100.766 26.0018 100.733 26.0856 100.683C26.1647 100.635 26.221 100.57 26.2545 100.488C26.2881 100.407 26.3048 100.309 26.3048 100.194ZM26.5097 101.969C26.5097 101.833 26.4893 101.724 26.4486 101.642C26.4103 101.558 26.324 101.484 26.1898 101.419C26.106 101.379 26.0161 101.353 25.9203 101.344C25.8245 101.334 25.6915 101.329 25.5214 101.329H24.7272V102.641H25.313C25.5549 102.641 25.743 102.632 25.8772 102.612C26.0114 102.593 26.1264 102.555 26.2222 102.497C26.3228 102.435 26.3959 102.363 26.4414 102.282C26.4869 102.2 26.5097 102.096 26.5097 101.969ZM31.8141 103.27C31.5385 103.27 31.2858 103.228 31.0558 103.144C30.8258 103.058 30.6281 102.929 30.4628 102.756C30.2975 102.584 30.1693 102.367 30.0783 102.106C29.9872 101.842 29.9417 101.533 29.9417 101.178C29.9417 100.826 29.9884 100.522 30.0819 100.266C30.1777 100.009 30.3047 99.7937 30.4628 99.6188C30.6209 99.4439 30.8174 99.3097 31.0522 99.2163C31.2894 99.1204 31.5433 99.0725 31.8141 99.0725C32.0345 99.0725 32.2465 99.1037 32.4502 99.166C32.6562 99.2282 32.8395 99.3001 33 99.3816V100.14H32.9605C32.9126 100.099 32.8503 100.052 32.7736 99.9997C32.6993 99.947 32.6083 99.8931 32.5005 99.838C32.407 99.7901 32.2968 99.7481 32.1698 99.7122C32.0429 99.6763 31.9207 99.6583 31.8033 99.6583C31.4535 99.6583 31.172 99.7913 30.9587 100.057C30.7479 100.321 30.6425 100.694 30.6425 101.178C30.6425 101.653 30.7443 102.023 30.948 102.289C31.154 102.552 31.4391 102.684 31.8033 102.684C32.0237 102.684 32.2333 102.639 32.4322 102.548C32.631 102.457 32.8071 102.339 32.9605 102.195H33V102.954C32.9329 102.985 32.8491 103.023 32.7484 103.069C32.6478 103.112 32.5568 103.144 32.4753 103.166C32.3603 103.199 32.2573 103.224 32.1662 103.241C32.0752 103.26 31.9578 103.27 31.8141 103.27ZM36.9208 101.175C36.9208 101.85 36.7579 102.373 36.432 102.742C36.1062 103.108 35.6726 103.292 35.1311 103.292C34.5729 103.292 34.1332 103.102 33.8122 102.724C33.4935 102.343 33.3342 101.827 33.3342 101.175C33.3342 100.504 33.4983 99.9829 33.8266 99.6116C34.1572 99.2402 34.592 99.0546 35.1311 99.0546C35.6726 99.0546 36.1062 99.2402 36.432 99.6116C36.7579 99.9805 36.9208 100.502 36.9208 101.175ZM36.2236 101.175C36.2236 100.655 36.129 100.269 35.9397 100.018C35.7504 99.7637 35.4809 99.6367 35.1311 99.6367C34.7789 99.6367 34.507 99.7637 34.3153 100.018C34.126 100.269 34.0314 100.655 34.0314 101.175C34.0314 101.678 34.126 102.06 34.3153 102.321C34.507 102.58 34.7789 102.709 35.1311 102.709C35.4785 102.709 35.7468 102.582 35.9361 102.328C36.1278 102.072 36.2236 101.688 36.2236 101.175ZM40.917 101.175C40.917 101.85 40.7541 102.373 40.4283 102.742C40.1024 103.108 39.6688 103.292 39.1273 103.292C38.5691 103.292 38.1295 103.102 37.8084 102.724C37.4898 102.343 37.3305 101.827 37.3305 101.175C37.3305 100.504 37.4946 99.9829 37.8228 99.6116C38.1534 99.2402 38.5883 99.0546 39.1273 99.0546C39.6688 99.0546 40.1024 99.2402 40.4283 99.6116C40.7541 99.9805 40.917 100.502 40.917 101.175ZM40.2198 101.175C40.2198 100.655 40.1252 100.269 39.9359 100.018C39.7467 99.7637 39.4771 99.6367 39.1273 99.6367C38.7752 99.6367 38.5032 99.7637 38.3116 100.018C38.1223 100.269 38.0277 100.655 38.0277 101.175C38.0277 101.678 38.1223 102.06 38.3116 102.321C38.5032 102.58 38.7752 102.709 39.1273 102.709C39.4747 102.709 39.7431 102.582 39.9323 102.328C40.124 102.072 40.2198 101.688 40.2198 101.175ZM44.5431 99.7589H43.1775V103.18H42.5019V99.7589H41.1363V99.166H44.5431V99.7589ZM48.1944 101.965C48.1944 102.16 48.1572 102.332 48.083 102.483C48.0087 102.632 47.9069 102.756 47.7775 102.857C47.6146 102.984 47.4433 103.07 47.2636 103.115C47.0863 103.159 46.8731 103.18 46.6239 103.18H45.0463V99.166H46.5197C46.8144 99.166 47.03 99.1755 47.1666 99.1947C47.3031 99.2115 47.4385 99.257 47.5727 99.3313C47.714 99.4079 47.8182 99.5098 47.8853 99.6367C47.9524 99.7637 47.9859 99.9147 47.9859 100.09C47.9859 100.281 47.9332 100.454 47.8278 100.607C47.7224 100.758 47.5822 100.875 47.4073 100.959L47.4253 100.984C47.6433 101.039 47.8254 101.151 47.9716 101.319C48.1201 101.486 48.1944 101.702 48.1944 101.965ZM47.2923 100.194C47.2923 100.103 47.2768 100.024 47.2456 99.9566C47.2169 99.8895 47.1654 99.8368 47.0911 99.7985C47.0048 99.7529 46.9078 99.7266 46.8 99.7194C46.6946 99.7098 46.5472 99.705 46.358 99.705H45.7147V100.805H46.4909C46.6563 100.805 46.7736 100.798 46.8431 100.783C46.9126 100.766 46.9893 100.733 47.0731 100.683C47.1522 100.635 47.2085 100.57 47.242 100.488C47.2756 100.407 47.2923 100.309 47.2923 100.194ZM47.4972 101.969C47.4972 101.833 47.4768 101.724 47.4361 101.642C47.3978 101.558 47.3115 101.484 47.1773 101.419C47.0935 101.379 47.0036 101.353 46.9078 101.344C46.812 101.334 46.679 101.329 46.5089 101.329H45.7147V102.641H46.3005C46.5424 102.641 46.7305 102.632 46.8647 102.612C46.9989 102.593 47.1139 102.555 47.2097 102.497C47.3103 102.435 47.3834 102.363 47.4289 102.282C47.4744 102.2 47.4972 102.096 47.4972 101.969ZM50.6489 103.274C50.0092 103.274 49.5121 103.094 49.1575 102.735C48.8053 102.373 48.6292 101.86 48.6292 101.196C48.6292 100.542 48.8005 100.022 49.1431 99.6367C49.4857 99.2486 49.9337 99.0546 50.4872 99.0546C50.7364 99.0546 50.9568 99.0905 51.1484 99.1624C51.3401 99.2342 51.5078 99.3468 51.6516 99.5002C51.7953 99.6535 51.9055 99.8416 51.9822 100.064C52.0589 100.285 52.0972 100.556 52.0972 100.877V101.243H49.3156C49.3156 101.71 49.433 102.067 49.6678 102.314C49.9026 102.561 50.2272 102.684 50.6417 102.684C50.7903 102.684 50.9352 102.667 51.0766 102.634C51.2203 102.6 51.3497 102.557 51.4647 102.505C51.5869 102.449 51.6899 102.397 51.7737 102.346C51.8576 102.294 51.9271 102.245 51.9822 102.199H52.0217V102.936C51.9427 102.967 51.8444 103.006 51.727 103.054C51.6096 103.1 51.5042 103.136 51.4108 103.162C51.279 103.198 51.1592 103.226 51.0514 103.245C50.946 103.264 50.8118 103.274 50.6489 103.274ZM51.4395 100.726C51.4347 100.544 51.4132 100.387 51.3748 100.255C51.3365 100.123 51.2814 100.012 51.2095 99.9206C51.1305 99.82 51.0286 99.7434 50.9041 99.6906C50.7819 99.6379 50.6297 99.6116 50.4477 99.6116C50.268 99.6116 50.1146 99.6391 49.9877 99.6942C49.8631 99.7469 49.7493 99.8248 49.6462 99.9278C49.5456 100.033 49.469 100.151 49.4162 100.28C49.3635 100.407 49.33 100.556 49.3156 100.726H51.4395ZM55.7125 99.7589H54.3469V103.18H53.6713V99.7589H52.3056V99.166H55.7125V99.7589ZM57.8113 103.27C57.5357 103.27 57.283 103.228 57.053 103.144C56.823 103.058 56.6253 102.929 56.46 102.756C56.2947 102.584 56.1665 102.367 56.0755 102.106C55.9844 101.842 55.9389 101.533 55.9389 101.178C55.9389 100.826 55.9856 100.522 56.0791 100.266C56.1749 100.009 56.3019 99.7937 56.46 99.6188C56.6181 99.4439 56.8146 99.3097 57.0494 99.2163C57.2866 99.1204 57.5405 99.0725 57.8113 99.0725C58.0317 99.0725 58.2437 99.1037 58.4473 99.166C58.6534 99.2282 58.8367 99.3001 58.9972 99.3816V100.14H58.9577C58.9097 100.099 58.8474 100.052 58.7708 99.9997C58.6965 99.947 58.6055 99.8931 58.4977 99.838C58.4042 99.7901 58.294 99.7481 58.167 99.7122C58.0401 99.6763 57.9179 99.6583 57.8005 99.6583C57.4507 99.6583 57.1692 99.7913 56.9559 100.057C56.7451 100.321 56.6397 100.694 56.6397 101.178C56.6397 101.653 56.7415 102.023 56.9452 102.289C57.1512 102.552 57.4363 102.684 57.8005 102.684C58.0209 102.684 58.2305 102.639 58.4294 102.548C58.6282 102.457 58.8043 102.339 58.9577 102.195H58.9972V102.954C58.9301 102.985 58.8463 103.023 58.7456 103.069C58.645 103.112 58.554 103.144 58.4725 103.166C58.3575 103.199 58.2545 103.224 58.1634 103.241C58.0724 103.26 57.955 103.27 57.8113 103.27ZM62.5478 99.7589H61.1822V103.18H60.5066V99.7589H59.1409V99.166H62.5478V99.7589ZM66.1991 101.965C66.1991 102.16 66.1619 102.332 66.0877 102.483C66.0134 102.632 65.9116 102.756 65.7822 102.857C65.6193 102.984 65.448 103.07 65.2683 103.115C65.091 103.159 64.8778 103.18 64.6286 103.18H63.0509V99.166H64.5244C64.8191 99.166 65.0347 99.1755 65.1712 99.1947C65.3078 99.2115 65.4432 99.257 65.5773 99.3313C65.7187 99.4079 65.8229 99.5098 65.89 99.6367C65.9571 99.7637 65.9906 99.9147 65.9906 100.09C65.9906 100.281 65.9379 100.454 65.8325 100.607C65.7271 100.758 65.5869 100.875 65.412 100.959L65.43 100.984C65.648 101.039 65.8301 101.151 65.9762 101.319C66.1248 101.486 66.1991 101.702 66.1991 101.965ZM65.297 100.194C65.297 100.103 65.2815 100.024 65.2503 99.9566C65.2216 99.8895 65.1701 99.8368 65.0958 99.7985C65.0095 99.7529 64.9125 99.7266 64.8047 99.7194C64.6993 99.7098 64.5519 99.705 64.3627 99.705H63.7194V100.805H64.4956C64.6609 100.805 64.7783 100.798 64.8478 100.783C64.9173 100.766 64.994 100.733 65.0778 100.683C65.1569 100.635 65.2132 100.57 65.2467 100.488C65.2803 100.407 65.297 100.309 65.297 100.194ZM65.5019 101.969C65.5019 101.833 65.4815 101.724 65.4408 101.642C65.4024 101.558 65.3162 101.484 65.182 101.419C65.0982 101.379 65.0083 101.353 64.9125 101.344C64.8167 101.334 64.6837 101.329 64.5136 101.329H63.7194V102.641H64.3052C64.5471 102.641 64.7352 102.632 64.8694 102.612C65.0035 102.593 65.1185 102.555 65.2144 102.497C65.315 102.435 65.3881 102.363 65.4336 102.282C65.4791 102.2 65.5019 102.096 65.5019 101.969ZM70.0803 103.18H69.4119V100.187L67.5216 103.18H66.9106V99.166H67.5791V102.113L69.4478 99.166H70.0803V103.18ZM74.2275 103.18H73.5591V100.187L71.6687 103.18H71.0578V99.166H71.7262V102.113L73.595 99.166H74.2275V103.18ZM79.1006 103.27C78.8251 103.27 78.5723 103.228 78.3423 103.144C78.1123 103.058 77.9147 102.929 77.7494 102.756C77.5841 102.584 77.4559 102.367 77.3648 102.106C77.2738 101.842 77.2283 101.533 77.2283 101.178C77.2283 100.826 77.275 100.522 77.3684 100.266C77.4643 100.009 77.5913 99.7937 77.7494 99.6188C77.9075 99.4439 78.104 99.3097 78.3388 99.2163C78.5759 99.1204 78.8299 99.0725 79.1006 99.0725C79.321 99.0725 79.5331 99.1037 79.7367 99.166C79.9428 99.2282 80.126 99.3001 80.2866 99.3816V100.14H80.247C80.1991 100.099 80.1368 100.052 80.0602 99.9997C79.9859 99.947 79.8948 99.8931 79.787 99.838C79.6936 99.7901 79.5834 99.7481 79.4564 99.7122C79.3294 99.6763 79.2072 99.6583 79.0898 99.6583C78.7401 99.6583 78.4585 99.7913 78.2453 100.057C78.0345 100.321 77.9291 100.694 77.9291 101.178C77.9291 101.653 78.0309 102.023 78.2345 102.289C78.4406 102.552 78.7257 102.684 79.0898 102.684C79.3103 102.684 79.5199 102.639 79.7188 102.548C79.9176 102.457 80.0937 102.339 80.247 102.195H80.2866V102.954C80.2195 102.985 80.1356 103.023 80.035 103.069C79.9344 103.112 79.8433 103.144 79.7619 103.166C79.6469 103.199 79.5439 103.224 79.4528 103.241C79.3618 103.26 79.2444 103.27 79.1006 103.27ZM87.2153 103.18H86.3097L84.4194 100.729H83.9702V103.18H83.2586V97.8291H83.9702V100.24C84.2505 100.231 84.4721 100.16 84.635 100.028C84.8003 99.8967 84.9345 99.7074 85.0375 99.4606C85.0806 99.3528 85.119 99.251 85.1525 99.1552C85.1884 99.0569 85.2172 98.9743 85.2388 98.9072C85.3825 98.4975 85.5658 98.216 85.7886 98.0627C86.0114 97.9069 86.3205 97.8291 86.7158 97.8291H86.935V98.4652H86.7553C86.463 98.4652 86.2582 98.5227 86.1408 98.6377C86.0234 98.7503 85.9156 98.9647 85.8173 99.281C85.7191 99.5972 85.6089 99.8296 85.4867 99.9781C85.3645 100.124 85.2172 100.254 85.0447 100.366L87.2153 103.18ZM88.9439 103.18V98.4616H87.147V97.8291H91.4523V98.4616H89.6555V103.18H88.9439ZM93.7991 101.164H91.7722V100.514H93.7991V101.164ZM97.842 100.503C97.842 101.464 97.7019 102.169 97.4216 102.62C97.1437 103.068 96.7136 103.292 96.1314 103.292C95.542 103.292 95.1096 103.063 94.8341 102.605C94.5585 102.148 94.4208 101.449 94.4208 100.51C94.4208 99.5445 94.5597 98.8389 94.8377 98.3933C95.118 97.9453 95.5492 97.7213 96.1314 97.7213C96.7208 97.7213 97.1532 97.9525 97.4288 98.4149C97.7043 98.8773 97.842 99.5732 97.842 100.503ZM96.922 102.134C96.9915 101.957 97.0406 101.733 97.0694 101.462C97.0981 101.192 97.1125 100.872 97.1125 100.503C97.1125 100.136 97.0981 99.8176 97.0694 99.5469C97.0406 99.2762 96.9903 99.051 96.9184 98.8713C96.8466 98.6892 96.7471 98.5514 96.6202 98.458C96.4956 98.3622 96.3327 98.3142 96.1314 98.3142C95.9326 98.3142 95.7684 98.3622 95.6391 98.458C95.5121 98.5514 95.4115 98.6916 95.3372 98.8785C95.2653 99.0605 95.2162 99.2905 95.1898 99.5685C95.1635 99.8464 95.1503 100.16 95.1503 100.51C95.1503 100.884 95.1611 101.196 95.1827 101.448C95.2066 101.7 95.2569 101.925 95.3336 102.124C95.4031 102.308 95.5013 102.451 95.6283 102.551C95.7577 102.649 95.9254 102.699 96.1314 102.699C96.3303 102.699 96.4932 102.652 96.6202 102.558C96.7495 102.463 96.8502 102.321 96.922 102.134ZM101.774 101.477C101.774 101.735 101.732 101.975 101.648 102.195C101.566 102.416 101.451 102.606 101.303 102.767C101.152 102.93 100.964 103.058 100.739 103.151C100.516 103.245 100.265 103.292 99.9875 103.292C99.7311 103.292 99.4784 103.263 99.2292 103.205C98.9824 103.15 98.768 103.077 98.5859 102.986V102.228H98.6362C98.6914 102.269 98.7704 102.315 98.8734 102.368C98.9765 102.418 99.0903 102.466 99.2148 102.512C99.3562 102.562 99.4856 102.602 99.603 102.63C99.7204 102.657 99.8521 102.67 99.9983 102.67C100.142 102.67 100.282 102.645 100.419 102.594C100.555 102.542 100.673 102.458 100.771 102.343C100.86 102.237 100.927 102.114 100.972 101.973C101.02 101.831 101.044 101.665 101.044 101.473C101.044 101.284 101.018 101.128 100.965 101.006C100.915 100.884 100.84 100.783 100.742 100.704C100.639 100.613 100.512 100.55 100.361 100.514C100.213 100.475 100.046 100.456 99.8617 100.456C99.6677 100.456 99.4724 100.472 99.2759 100.503C99.0795 100.532 98.9226 100.559 98.8052 100.585V97.8291H101.741V98.458H99.4987V99.8811C99.585 99.8715 99.6701 99.8643 99.7539 99.8596C99.8378 99.8548 99.9144 99.8524 99.9839 99.8524C100.257 99.8524 100.488 99.8751 100.677 99.9206C100.867 99.9662 101.049 100.055 101.224 100.187C101.401 100.321 101.536 100.488 101.63 100.69C101.726 100.891 101.774 101.153 101.774 101.477ZM105.791 101.477C105.791 101.735 105.749 101.975 105.666 102.195C105.584 102.416 105.469 102.606 105.321 102.767C105.17 102.93 104.982 103.058 104.756 103.151C104.534 103.245 104.283 103.292 104.005 103.292C103.749 103.292 103.496 103.263 103.247 103.205C103 103.15 102.786 103.077 102.604 102.986V102.228H102.654C102.709 102.269 102.788 102.315 102.891 102.368C102.994 102.418 103.108 102.466 103.233 102.512C103.374 102.562 103.503 102.602 103.621 102.63C103.738 102.657 103.87 102.67 104.016 102.67C104.16 102.67 104.3 102.645 104.437 102.594C104.573 102.542 104.691 102.458 104.789 102.343C104.877 102.237 104.944 102.114 104.99 101.973C105.038 101.831 105.062 101.665 105.062 101.473C105.062 101.284 105.036 101.128 104.983 101.006C104.933 100.884 104.858 100.783 104.76 100.704C104.657 100.613 104.53 100.55 104.379 100.514C104.231 100.475 104.064 100.456 103.88 100.456C103.685 100.456 103.49 100.472 103.294 100.503C103.097 100.532 102.94 100.559 102.823 100.585V97.8291H105.759V98.458H103.517V99.8811C103.603 99.8715 103.688 99.8643 103.772 99.8596C103.856 99.8548 103.932 99.8524 104.002 99.8524C104.275 99.8524 104.506 99.8751 104.695 99.9206C104.885 99.9662 105.067 100.055 105.242 100.187C105.419 100.321 105.554 100.488 105.648 100.69C105.743 100.891 105.791 101.153 105.791 101.477Z" fill="#8C99B2"/>
<path d="M9.57 31.2202L6.27 34.5202V89.9002L9.57 93.2002H19.76" stroke="#8C99B2" stroke-miterlimit="10"/>
<path d="M10.68 33.3801C12.4694 33.3801 13.92 31.9295 13.92 30.1401C13.92 28.3507 12.4694 26.9001 10.68 26.9001C8.8906 26.9001 7.44 28.3507 7.44 30.1401C7.44 31.9295 8.8906 33.3801 10.68 33.3801Z" fill="#F5F8FD"/>
<path d="M10.68 27.4102C11.2247 27.3982 11.7607 27.549 12.2193 27.8432C12.6779 28.1374 13.0385 28.5616 13.2548 29.0617C13.4711 29.5618 13.5334 30.115 13.4338 30.6507C13.3341 31.1864 13.077 31.6802 12.6953 32.069C12.3136 32.4578 11.8246 32.724 11.2909 32.8336C10.7571 32.9431 10.2028 32.891 9.69882 32.684C9.19482 32.4769 8.76399 32.1243 8.46138 31.6712C8.15878 31.2181 7.99814 30.685 8 30.1402C8.00264 29.4169 8.29111 28.7241 8.80251 28.2127C9.31391 27.7013 10.0068 27.4128 10.73 27.4102H10.68ZM10.73 26.4102C9.98987 26.4102 9.26639 26.6298 8.65113 27.0412C8.03588 27.4526 7.55652 28.0373 7.27375 28.7213C6.99097 29.4052 6.91749 30.1577 7.06261 30.8835C7.20773 31.6093 7.56493 32.2756 8.08898 32.7983C8.61303 33.3209 9.28037 33.6763 10.0065 33.8195C10.7327 33.9627 11.485 33.8872 12.1682 33.6026C12.8514 33.318 13.4348 32.8371 13.8446 32.2207C14.2543 31.6044 14.472 30.8803 14.47 30.1402C14.47 29.6495 14.3732 29.1636 14.1851 28.7104C13.997 28.2572 13.7214 27.8456 13.374 27.4991C13.0266 27.1526 12.6142 26.8781 12.1605 26.6912C11.7068 26.5044 11.2207 26.4089 10.73 26.4102Z" fill="#8C99B2"/>
<path d="M10.68 31.7902C10.3541 31.7882 10.0361 31.6898 9.76605 31.5073C9.49603 31.3248 9.2861 31.0664 9.16275 30.7647C9.0394 30.4631 9.00814 30.1316 9.07293 29.8122C9.13773 29.4928 9.29566 29.1997 9.52681 28.97C9.75796 28.7402 10.052 28.5841 10.3718 28.5212C10.6916 28.4584 11.0228 28.4916 11.3237 28.6168C11.6246 28.742 11.8817 28.9534 12.0626 29.2246C12.2435 29.4957 12.34 29.8143 12.34 30.1402C12.34 30.3577 12.297 30.5731 12.2135 30.774C12.1299 30.9748 12.0075 31.1571 11.8532 31.3105C11.6989 31.4638 11.5158 31.5852 11.3145 31.6675C11.1132 31.7498 10.8975 31.7915 10.68 31.7902Z" fill="#8C99B2"/>
<path d="M10.68 29C10.9075 29 11.1298 29.0675 11.3189 29.1938C11.508 29.3202 11.6554 29.4998 11.7425 29.7099C11.8295 29.9201 11.8523 30.1513 11.8079 30.3744C11.7635 30.5975 11.654 30.8024 11.4932 30.9632C11.3323 31.124 11.1274 31.2336 10.9044 31.2779C10.6813 31.3223 10.4501 31.2995 10.2399 31.2125C10.0298 31.1254 9.85018 30.978 9.72381 30.7889C9.59745 30.5998 9.53 30.3775 9.53 30.15C9.53261 29.8458 9.65461 29.5548 9.86972 29.3397C10.0848 29.1246 10.3758 29.0026 10.68 29ZM10.68 28C10.2552 28.002 9.84051 28.1298 9.48826 28.3672C9.13602 28.6047 8.862 28.9411 8.7008 29.3342C8.53961 29.7272 8.49846 30.1592 8.58254 30.5756C8.66662 30.992 8.87218 31.3741 9.17325 31.6738C9.47433 31.9735 9.85744 32.1773 10.2742 32.2594C10.691 32.3416 11.1228 32.2984 11.5151 32.1354C11.9073 31.9724 12.2425 31.6968 12.4783 31.3435C12.7142 30.9901 12.84 30.5748 12.84 30.15C12.84 29.8668 12.7841 29.5864 12.6754 29.3249C12.5667 29.0634 12.4075 28.826 12.2067 28.6262C12.006 28.4264 11.7678 28.2683 11.5058 28.1608C11.2438 28.0533 10.9632 27.9987 10.68 28Z" fill="#F5F8FD"/>
<path d="M19.76 94.35C19.5326 94.35 19.3102 94.2826 19.1211 94.1562C18.932 94.0299 18.7846 93.8503 18.6975 93.6401C18.6105 93.43 18.5877 93.1988 18.6321 92.9757C18.6765 92.7526 18.786 92.5477 18.9468 92.3869C19.1077 92.226 19.3126 92.1165 19.5356 92.0721C19.7587 92.0278 19.99 92.0505 20.2001 92.1376C20.4102 92.2246 20.5898 92.372 20.7162 92.5611C20.8426 92.7503 20.91 92.9726 20.91 93.2C20.91 93.505 20.7888 93.7976 20.5732 94.0132C20.3575 94.2289 20.065 94.35 19.76 94.35Z" fill="#F5F8FD"/>
<path d="M19.76 92.55C19.9316 92.5526 20.0954 92.6219 20.2168 92.7433C20.3381 92.8646 20.4074 93.0285 20.41 93.2C20.4074 93.3716 20.3381 93.5355 20.2168 93.6568C20.0954 93.7782 19.9316 93.8475 19.76 93.85C19.5876 93.85 19.4223 93.7816 19.3004 93.6597C19.1785 93.5378 19.11 93.3724 19.11 93.2C19.11 93.0277 19.1785 92.8623 19.3004 92.7404C19.4223 92.6185 19.5876 92.55 19.76 92.55ZM19.76 91.55C19.4337 91.55 19.1147 91.6468 18.8433 91.8281C18.572 92.0094 18.3605 92.2671 18.2356 92.5686C18.1107 92.8701 18.078 93.2019 18.1417 93.5219C18.2054 93.842 18.3625 94.136 18.5933 94.3668C18.824 94.5975 19.118 94.7547 19.4381 94.8183C19.7582 94.882 20.0899 94.8493 20.3914 94.7244C20.6929 94.5996 20.9506 94.3881 21.1319 94.1167C21.3132 93.8454 21.41 93.5264 21.41 93.2C21.41 92.7624 21.2362 92.3428 20.9267 92.0333C20.6173 91.7239 20.1976 91.55 19.76 91.55Z" fill="#606580"/>
<path opacity="0.5" fill-rule="evenodd" clip-rule="evenodd" d="M36.64 36.6201H2.29L13.42 20.1301H36.64V36.6201Z" fill="#A2E2FF"/>
<path opacity="0.5" fill-rule="evenodd" clip-rule="evenodd" d="M36.64 59.6702H-11.54L-0.410001 43.1902H36.64V59.6702Z" fill="#A2E2FF"/>
<path opacity="0.5" fill-rule="evenodd" clip-rule="evenodd" d="M36.64 82.7302H-25.86L-14.73 66.2502H36.64V82.7302Z" fill="#A2E2FF"/>
<path opacity="0.25" fill-rule="evenodd" clip-rule="evenodd" d="M81.48 66.2502H36.64V82.7302H91.92L81.48 66.2502Z" fill="#A2E2FF"/>
<path opacity="0.25" fill-rule="evenodd" clip-rule="evenodd" d="M66.87 43.1902H36.64V59.6702H77.32L66.87 43.1902Z" fill="#A2E2FF"/>
<path opacity="0.25" fill-rule="evenodd" clip-rule="evenodd" d="M52.26 20.1301H36.64V36.6201H62.71L52.26 20.1301Z" fill="#A2E2FF"/>
</g>
<defs>
<clipPath id="clip0">
<rect width="324" height="118" fill="white"/>
</clipPath>
</defs>
</svg>
