<svg width="324" height="117" viewBox="0 0 324 117" fill="none" xmlns="http://www.w3.org/2000/svg">
<path d="M318.545 9H14V104.454H318.545V9Z" fill="white"/>
<path d="M15.3268 109.91H13.7154V109.573H14.3147V107.358H13.7154V107.056C13.9418 107.056 14.1083 107.024 14.2148 106.96C14.3228 106.895 14.3835 106.773 14.3968 106.594H14.7408V109.573H15.3268V109.91Z" fill="#8C99B2"/>
<path d="M14.6804 9H14.2259V104H14.6804V9Z" fill="#D7E2F2"/>
<path d="M25.6318 109.908H23.5921V109.444C23.7386 109.305 23.877 109.172 24.0072 109.045C24.1374 108.917 24.2646 108.785 24.3889 108.647C24.6405 108.371 24.8121 108.15 24.9038 107.984C24.9956 107.817 25.0415 107.644 25.0415 107.467C25.0415 107.375 25.0267 107.294 24.9971 107.225C24.9689 107.155 24.9297 107.098 24.8794 107.052C24.8276 107.007 24.7677 106.974 24.6997 106.952C24.6316 106.93 24.5569 106.918 24.4755 106.918C24.3971 106.918 24.3172 106.929 24.2358 106.95C24.1559 106.969 24.0789 106.993 24.005 107.023C23.9428 107.048 23.8829 107.078 23.8252 107.114C23.7675 107.149 23.7209 107.18 23.6854 107.205H23.6609V106.734C23.7527 106.688 23.8799 106.644 24.0427 106.601C24.2069 106.557 24.3623 106.535 24.5088 106.535C24.8165 106.535 25.0577 106.617 25.2323 106.781C25.4069 106.944 25.4942 107.165 25.4942 107.445C25.4942 107.573 25.4787 107.692 25.4476 107.802C25.418 107.911 25.3766 108.013 25.3233 108.106C25.2686 108.202 25.2027 108.298 25.1258 108.392C25.0488 108.487 24.9675 108.58 24.8817 108.672C24.7426 108.823 24.5872 108.98 24.4156 109.142C24.2454 109.305 24.1093 109.434 24.0072 109.529H25.6318V109.908Z" fill="#8C99B2"/>
<path d="M24.8167 9H24.3622V104H24.8167V9Z" fill="#D7E2F2"/>
<path d="M34.6207 106.918C34.5408 106.918 34.4609 106.928 34.381 106.947C34.3011 106.967 34.2227 106.992 34.1458 107.023C34.0747 107.052 34.0126 107.083 33.9593 107.116C33.9075 107.149 33.8609 107.179 33.8195 107.207H33.7929V106.739C33.889 106.687 34.0192 106.64 34.1835 106.599C34.3492 106.556 34.5068 106.535 34.6562 106.535C34.8057 106.535 34.9359 106.55 35.0469 106.581C35.1593 106.611 35.2607 106.657 35.3509 106.721C35.4486 106.792 35.5218 106.878 35.5706 106.978C35.621 107.079 35.6461 107.197 35.6461 107.331C35.6461 107.513 35.5862 107.673 35.4663 107.811C35.3465 107.948 35.203 108.036 35.0358 108.073V108.104C35.1053 108.117 35.1793 108.14 35.2577 108.172C35.3376 108.205 35.4116 108.253 35.4797 108.317C35.5477 108.38 35.6032 108.462 35.6461 108.563C35.689 108.662 35.7105 108.784 35.7105 108.927C35.7105 109.077 35.6846 109.214 35.6328 109.34C35.5825 109.464 35.5107 109.574 35.4175 109.671C35.3213 109.771 35.2052 109.847 35.0691 109.899C34.9329 109.951 34.7783 109.977 34.6052 109.977C34.4395 109.977 34.2752 109.957 34.1125 109.917C33.9497 109.877 33.8128 109.829 33.7019 109.773V109.304H33.7329C33.8262 109.372 33.9512 109.438 34.108 109.5C34.2649 109.562 34.4217 109.593 34.5785 109.593C34.6688 109.593 34.7591 109.579 34.8493 109.551C34.9411 109.521 35.0173 109.474 35.0779 109.409C35.1371 109.344 35.1822 109.272 35.2133 109.193C35.2444 109.115 35.2599 109.016 35.2599 108.896C35.2599 108.776 35.2422 108.678 35.2067 108.601C35.1726 108.524 35.1245 108.463 35.0624 108.419C35.0002 108.374 34.9263 108.344 34.8404 108.328C34.7561 108.31 34.6644 108.301 34.5652 108.301H34.3766V107.933H34.5231C34.7228 107.933 34.8848 107.885 35.0091 107.791C35.1349 107.696 35.1978 107.558 35.1978 107.378C35.1978 107.295 35.1815 107.224 35.149 107.165C35.1164 107.104 35.075 107.056 35.0247 107.021C34.9684 106.982 34.9063 106.955 34.8382 106.941C34.7702 106.926 34.6977 106.918 34.6207 106.918Z" fill="#8C99B2"/>
<path d="M34.953 9H34.4985V104H34.953V9Z" fill="#D7E2F2"/>
<path d="M45.9912 108.773H45.5983V109.909H45.1722V108.773H43.7118V108.307L45.1899 106.604H45.5983V108.418H45.9912V108.773ZM45.1722 108.418V107.126L44.058 108.418H45.1722Z" fill="#8C99B2"/>
<path d="M45.0894 9H44.6349V104H45.0894V9Z" fill="#D7E2F2"/>
<path d="M56.0032 108.857C56.0032 109.017 55.9773 109.165 55.9255 109.301C55.8752 109.437 55.8042 109.555 55.7124 109.654C55.6192 109.754 55.5031 109.834 55.364 109.891C55.2264 109.949 55.0718 109.978 54.9001 109.978C54.7418 109.978 54.5857 109.96 54.4318 109.925C54.2794 109.891 54.147 109.845 54.0345 109.789V109.321H54.0656C54.0996 109.346 54.1485 109.375 54.2121 109.408C54.2757 109.439 54.346 109.468 54.4229 109.496C54.5102 109.527 54.5901 109.552 54.6626 109.57C54.7351 109.586 54.8165 109.594 54.9068 109.594C54.9956 109.594 55.0821 109.578 55.1664 109.547C55.2508 109.515 55.3233 109.463 55.384 109.392C55.4387 109.327 55.4801 109.251 55.5082 109.163C55.5378 109.076 55.5526 108.973 55.5526 108.855C55.5526 108.738 55.5364 108.642 55.5038 108.566C55.4727 108.491 55.4269 108.429 55.3662 108.38C55.3026 108.324 55.2242 108.284 55.1309 108.262C55.0392 108.239 54.9364 108.227 54.8224 108.227C54.7026 108.227 54.582 108.236 54.4607 108.256C54.3393 108.273 54.2424 108.29 54.1699 108.307V106.604H55.9832V106.993H54.5983V107.872C54.6515 107.866 54.7041 107.861 54.7558 107.858C54.8076 107.855 54.855 107.854 54.8979 107.854C55.0666 107.854 55.2094 107.868 55.3262 107.896C55.4431 107.924 55.5556 107.979 55.6636 108.06C55.7731 108.143 55.8567 108.247 55.9144 108.371C55.9736 108.495 56.0032 108.657 56.0032 108.857Z" fill="#8C99B2"/>
<path d="M55.2257 9H54.7712V104H55.2257V9Z" fill="#D7E2F2"/>
<path d="M66.2284 108.838C66.2284 109.008 66.2003 109.165 66.144 109.309C66.0878 109.452 66.0123 109.572 65.9177 109.668C65.8185 109.77 65.7075 109.848 65.5847 109.901C65.4619 109.953 65.3265 109.979 65.1786 109.979C65.0291 109.979 64.893 109.954 64.7702 109.903C64.6489 109.853 64.5416 109.778 64.4484 109.679C64.3344 109.559 64.2449 109.4 64.1798 109.2C64.1162 108.999 64.0844 108.752 64.0844 108.459C64.0844 108.172 64.114 107.913 64.1732 107.682C64.2323 107.449 64.3233 107.247 64.4462 107.076C64.566 106.909 64.7206 106.778 64.91 106.685C65.0994 106.591 65.3184 106.543 65.567 106.543C65.641 106.543 65.7098 106.547 65.7734 106.554C65.837 106.562 65.8932 106.574 65.9421 106.59V107.014H65.9221C65.8821 106.992 65.8244 106.972 65.749 106.954C65.6735 106.935 65.5929 106.925 65.5071 106.925C65.2318 106.925 65.0092 107.018 64.839 107.205C64.6703 107.39 64.5704 107.665 64.5394 108.03C64.6444 107.956 64.7524 107.899 64.8634 107.859C64.9744 107.819 65.0957 107.799 65.2274 107.799C65.3561 107.799 65.4686 107.813 65.5648 107.839C65.6624 107.865 65.7638 107.916 65.8688 107.995C65.9902 108.086 66.0804 108.203 66.1396 108.343C66.1988 108.484 66.2284 108.649 66.2284 108.838ZM65.7778 108.856C65.7778 108.72 65.7601 108.606 65.7246 108.514C65.689 108.422 65.6313 108.344 65.5514 108.279C65.4937 108.231 65.4279 108.2 65.3539 108.186C65.2814 108.171 65.2067 108.163 65.1297 108.163C65.0262 108.163 64.9256 108.179 64.8279 108.21C64.7302 108.241 64.6341 108.286 64.5394 108.345C64.5364 108.378 64.5342 108.41 64.5327 108.441C64.5312 108.47 64.5305 108.508 64.5305 108.554C64.5305 108.783 64.5527 108.968 64.5971 109.109C64.6429 109.249 64.6992 109.356 64.7658 109.428C64.8294 109.498 64.8945 109.547 64.9611 109.575C65.0291 109.603 65.1024 109.617 65.1808 109.617C65.3583 109.617 65.5019 109.554 65.6114 109.426C65.7223 109.299 65.7778 109.109 65.7778 108.856Z" fill="#8C99B2"/>
<path d="M65.3622 9H64.9077V104H65.3622V9Z" fill="#D7E2F2"/>
<path d="M76.3492 107.099L74.9199 109.909H74.4471L75.9608 106.993H74.2518V106.604H76.3492V107.099Z" fill="#8C99B2"/>
<path d="M75.4985 9H75.044V104H75.4985V9Z" fill="#D7E2F2"/>
<path d="M85.9684 107.374C85.9684 107.227 85.9188 107.103 85.8197 107.004C85.7206 106.905 85.583 106.855 85.4069 106.855C85.2456 106.855 85.1132 106.9 85.0096 106.988C84.9075 107.077 84.8565 107.197 84.8565 107.348C84.8565 107.457 84.8824 107.55 84.9341 107.625C84.9874 107.701 85.0666 107.769 85.1716 107.829C85.2175 107.855 85.287 107.889 85.3803 107.934C85.475 107.978 85.5608 108.013 85.6377 108.038C85.7664 107.939 85.8537 107.838 85.8996 107.734C85.9455 107.629 85.9684 107.509 85.9684 107.374ZM86.0306 109.03C86.0306 108.894 86.0039 108.786 85.9507 108.706C85.8974 108.626 85.7946 108.545 85.6422 108.462C85.5918 108.434 85.5245 108.404 85.4402 108.371C85.3573 108.338 85.2634 108.3 85.1583 108.256C85.0355 108.337 84.9415 108.438 84.8764 108.557C84.8113 108.676 84.7788 108.811 84.7788 108.964C84.7788 109.163 84.8387 109.328 84.9586 109.459C85.0799 109.589 85.2316 109.654 85.4135 109.654C85.6 109.654 85.7494 109.598 85.8619 109.487C85.9743 109.375 86.0306 109.223 86.0306 109.03ZM85.4091 109.985C85.2449 109.985 85.0954 109.96 84.9608 109.911C84.8261 109.862 84.7115 109.792 84.6168 109.7C84.5235 109.612 84.4525 109.507 84.4037 109.385C84.3563 109.263 84.3327 109.133 84.3327 108.997C84.3327 108.818 84.38 108.654 84.4747 108.504C84.5709 108.353 84.71 108.233 84.892 108.145V108.131C84.7292 108.037 84.6086 107.933 84.5302 107.821C84.4518 107.708 84.4126 107.568 84.4126 107.399C84.4126 107.15 84.5065 106.943 84.6944 106.777C84.8824 106.612 85.1206 106.529 85.4091 106.529C85.7095 106.529 85.9499 106.608 86.1304 106.766C86.3124 106.923 86.4034 107.124 86.4034 107.37C86.4034 107.518 86.3598 107.664 86.2725 107.809C86.1867 107.954 86.0624 108.068 85.8996 108.149V108.162C86.092 108.253 86.2377 108.362 86.3368 108.491C86.436 108.62 86.4855 108.785 86.4855 108.988C86.4855 109.271 86.3827 109.507 86.177 109.698C85.9729 109.889 85.7169 109.985 85.4091 109.985Z" fill="#8C99B2"/>
<path d="M85.6348 9H85.1803V104H85.6348V9Z" fill="#D7E2F2"/>
<path d="M96.1514 107.962C96.1514 107.737 96.1307 107.554 96.0892 107.413C96.0478 107.271 95.9908 107.162 95.9183 107.085C95.8532 107.014 95.7874 106.965 95.7208 106.938C95.6542 106.912 95.581 106.899 95.5011 106.899C95.3191 106.899 95.1741 106.964 95.0661 107.094C94.958 107.224 94.904 107.413 94.904 107.66C94.904 107.799 94.9218 107.914 94.9573 108.004C94.9928 108.094 95.0505 108.172 95.1304 108.237C95.1866 108.283 95.2503 108.314 95.3213 108.33C95.3923 108.345 95.4685 108.352 95.5499 108.352C95.6446 108.352 95.7467 108.336 95.8562 108.303C95.9657 108.269 96.0611 108.225 96.1425 108.17C96.144 108.148 96.1455 108.119 96.1469 108.084C96.1499 108.047 96.1514 108.006 96.1514 107.962ZM94.4535 107.678C94.4535 107.507 94.4809 107.352 94.5356 107.211C94.5918 107.071 94.668 106.95 94.7642 106.847C94.8559 106.75 94.9677 106.674 95.0993 106.619C95.2325 106.564 95.3672 106.537 95.5033 106.537C95.6557 106.537 95.7933 106.563 95.9161 106.614C96.0404 106.665 96.1477 106.738 96.2379 106.834C96.3519 106.955 96.4399 107.115 96.502 107.311C96.5657 107.508 96.5975 107.757 96.5975 108.057C96.5975 108.331 96.5664 108.59 96.5043 108.836C96.4436 109.08 96.3533 109.283 96.2335 109.444C96.1062 109.616 95.9531 109.747 95.7741 109.837C95.5965 109.927 95.3768 109.972 95.1149 109.972C95.0557 109.972 94.9928 109.969 94.9262 109.961C94.8596 109.955 94.7975 109.944 94.7398 109.926V109.502H94.762C94.799 109.523 94.8567 109.543 94.9351 109.562C95.0135 109.581 95.0934 109.591 95.1748 109.591C95.4648 109.591 95.6927 109.495 95.8584 109.304C96.0241 109.114 96.1181 108.841 96.1403 108.485C96.0219 108.565 95.9087 108.624 95.8007 108.661C95.6942 108.698 95.578 108.716 95.4522 108.716C95.3294 108.716 95.2177 108.703 95.1171 108.676C95.0165 108.65 94.9151 108.598 94.813 108.521C94.6947 108.431 94.6051 108.317 94.5445 108.179C94.4838 108.04 94.4535 107.873 94.4535 107.678Z" fill="#8C99B2"/>
<path d="M95.7713 9H95.3168V104H95.7713V9Z" fill="#D7E2F2"/>
<path d="M105.541 109.908H103.929V109.571H104.529V107.356H103.929V107.054C104.156 107.054 104.322 107.022 104.429 106.958C104.537 106.893 104.597 106.771 104.611 106.592H104.955V109.571H105.541V109.908ZM108.206 108.255C108.206 108.848 108.12 109.284 107.947 109.562C107.775 109.839 107.509 109.977 107.15 109.977C106.786 109.977 106.519 109.836 106.349 109.553C106.178 109.27 106.093 108.839 106.093 108.259C106.093 107.663 106.179 107.227 106.351 106.952C106.524 106.675 106.79 106.537 107.15 106.537C107.514 106.537 107.781 106.68 107.951 106.965C108.121 107.251 108.206 107.681 108.206 108.255ZM107.638 109.262C107.681 109.153 107.711 109.014 107.729 108.847C107.747 108.68 107.756 108.482 107.756 108.255C107.756 108.028 107.747 107.831 107.729 107.664C107.711 107.497 107.68 107.358 107.636 107.247C107.592 107.135 107.53 107.049 107.452 106.992C107.375 106.933 107.274 106.903 107.15 106.903C107.027 106.903 106.926 106.933 106.846 106.992C106.767 107.049 106.705 107.136 106.659 107.251C106.615 107.364 106.585 107.506 106.568 107.678C106.552 107.849 106.544 108.043 106.544 108.259C106.544 108.49 106.551 108.683 106.564 108.838C106.579 108.994 106.61 109.133 106.657 109.256C106.7 109.37 106.761 109.458 106.839 109.52C106.919 109.58 107.023 109.611 107.15 109.611C107.273 109.611 107.373 109.582 107.452 109.524C107.532 109.465 107.594 109.378 107.638 109.262Z" fill="#8C99B2"/>
<path d="M105.908 9H105.453V104H105.908V9Z" fill="#D7E2F2"/>
<path d="M115.677 109.91H114.066V109.573H114.665V107.358H114.066V107.056C114.292 107.056 114.458 107.024 114.565 106.96C114.673 106.895 114.734 106.773 114.747 106.594H115.091V109.573H115.677V109.91ZM118.158 109.91H116.547V109.573H117.146V107.358H116.547V107.056C116.773 107.056 116.94 107.024 117.046 106.96C117.154 106.895 117.215 106.773 117.228 106.594H117.572V109.573H118.158V109.91Z" fill="#8C99B2"/>
<path d="M116.044 9H115.589V104H116.044V9Z" fill="#D7E2F2"/>
<path d="M125.813 109.908H124.202V109.571H124.801V107.356H124.202V107.054C124.428 107.054 124.595 107.022 124.701 106.958C124.809 106.893 124.87 106.771 124.883 106.592H125.227V109.571H125.813V109.908ZM128.463 109.908H126.424V109.444C126.57 109.305 126.709 109.172 126.839 109.045C126.969 108.917 127.096 108.785 127.221 108.647C127.472 108.371 127.644 108.15 127.735 107.984C127.827 107.817 127.873 107.644 127.873 107.467C127.873 107.375 127.858 107.294 127.829 107.225C127.801 107.155 127.761 107.098 127.711 107.052C127.659 107.007 127.599 106.974 127.531 106.952C127.463 106.93 127.388 106.918 127.307 106.918C127.229 106.918 127.149 106.929 127.067 106.95C126.987 106.969 126.911 106.993 126.837 107.023C126.774 107.048 126.714 107.078 126.657 107.114C126.599 107.149 126.552 107.18 126.517 107.205H126.493V106.734C126.584 106.688 126.712 106.644 126.874 106.601C127.039 106.557 127.194 106.535 127.34 106.535C127.648 106.535 127.889 106.617 128.064 106.781C128.239 106.944 128.326 107.165 128.326 107.445C128.326 107.573 128.31 107.692 128.279 107.802C128.25 107.911 128.208 108.013 128.155 108.106C128.1 108.202 128.034 108.298 127.957 108.392C127.88 108.487 127.799 108.58 127.713 108.672C127.574 108.823 127.419 108.98 127.247 109.142C127.077 109.305 126.941 109.434 126.839 109.529H128.463V109.908Z" fill="#8C99B2"/>
<path d="M126.181 9H125.726V104H126.181V9Z" fill="#D7E2F2"/>
<path d="M135.95 109.908H134.338V109.571H134.938V107.356H134.338V107.054C134.565 107.054 134.731 107.022 134.838 106.958C134.946 106.893 135.007 106.771 135.02 106.592H135.364V109.571H135.95V109.908ZM137.452 106.918C137.372 106.918 137.293 106.928 137.213 106.947C137.133 106.967 137.054 106.992 136.977 107.023C136.906 107.052 136.844 107.083 136.791 107.116C136.739 107.149 136.693 107.179 136.651 107.207H136.625V106.739C136.721 106.687 136.851 106.64 137.015 106.599C137.181 106.556 137.338 106.535 137.488 106.535C137.637 106.535 137.768 106.55 137.879 106.581C137.991 106.611 138.092 106.657 138.183 106.721C138.28 106.792 138.353 106.878 138.402 106.978C138.453 107.079 138.478 107.197 138.478 107.331C138.478 107.513 138.418 107.673 138.298 107.811C138.178 107.948 138.035 108.036 137.867 108.073V108.104C137.937 108.117 138.011 108.14 138.089 108.172C138.169 108.205 138.243 108.253 138.311 108.317C138.379 108.38 138.435 108.462 138.478 108.563C138.521 108.662 138.542 108.784 138.542 108.927C138.542 109.077 138.516 109.214 138.464 109.34C138.414 109.464 138.342 109.574 138.249 109.671C138.153 109.771 138.037 109.847 137.901 109.899C137.765 109.951 137.61 109.977 137.437 109.977C137.271 109.977 137.107 109.957 136.944 109.917C136.781 109.877 136.644 109.829 136.534 109.773V109.304H136.565C136.658 109.372 136.783 109.438 136.94 109.5C137.097 109.562 137.253 109.593 137.41 109.593C137.5 109.593 137.591 109.579 137.681 109.551C137.773 109.521 137.849 109.474 137.91 109.409C137.969 109.344 138.014 109.272 138.045 109.193C138.076 109.115 138.092 109.016 138.092 108.896C138.092 108.776 138.074 108.678 138.038 108.601C138.004 108.524 137.956 108.463 137.894 108.419C137.832 108.374 137.758 108.344 137.672 108.328C137.588 108.31 137.496 108.301 137.397 108.301H137.208V107.933H137.355C137.554 107.933 137.716 107.885 137.841 107.791C137.967 107.696 138.029 107.558 138.029 107.378C138.029 107.295 138.013 107.224 137.981 107.165C137.948 107.104 137.907 107.056 137.856 107.021C137.8 106.982 137.738 106.955 137.67 106.941C137.602 106.926 137.529 106.918 137.452 106.918Z" fill="#8C99B2"/>
<path d="M136.317 9H135.862V104H136.317V9Z" fill="#D7E2F2"/>
<path d="M146.086 109.91H144.475V109.573H145.074V107.358H144.475V107.056C144.701 107.056 144.868 107.024 144.974 106.96C145.082 106.895 145.143 106.773 145.156 106.594H145.5V109.573H146.086V109.91ZM148.823 108.774H148.43V109.91H148.004V108.774H146.543V108.308L148.022 106.605H148.43V108.419H148.823V108.774ZM148.004 108.419V107.127L146.89 108.419H148.004Z" fill="#8C99B2"/>
<path d="M146.454 9H145.999V104H146.454V9Z" fill="#D7E2F2"/>
<path d="M156.222 109.91H154.611V109.573H155.21V107.358H154.611V107.056C154.837 107.056 155.004 107.024 155.11 106.96C155.218 106.895 155.279 106.773 155.292 106.594H155.636V109.573H156.222V109.91ZM158.835 108.858C158.835 109.018 158.809 109.166 158.757 109.302C158.707 109.438 158.636 109.556 158.544 109.655C158.451 109.755 158.335 109.835 158.195 109.892C158.058 109.95 157.903 109.979 157.732 109.979C157.573 109.979 157.417 109.961 157.263 109.926C157.111 109.892 156.978 109.846 156.866 109.79V109.322H156.897C156.931 109.347 156.98 109.376 157.044 109.409C157.107 109.44 157.177 109.469 157.254 109.497C157.342 109.528 157.422 109.553 157.494 109.571C157.567 109.587 157.648 109.595 157.738 109.595C157.827 109.595 157.914 109.579 157.998 109.548C158.082 109.516 158.155 109.464 158.215 109.393C158.27 109.328 158.312 109.252 158.34 109.164C158.369 109.077 158.384 108.974 158.384 108.856C158.384 108.739 158.368 108.643 158.335 108.567C158.304 108.492 158.258 108.43 158.198 108.381C158.134 108.325 158.056 108.285 157.962 108.263C157.871 108.24 157.768 108.228 157.654 108.228C157.534 108.228 157.414 108.237 157.292 108.257C157.171 108.274 157.074 108.291 157.001 108.308V106.605H158.815V106.994H157.43V107.873C157.483 107.867 157.536 107.862 157.587 107.859C157.639 107.856 157.686 107.855 157.729 107.855C157.898 107.855 158.041 107.869 158.158 107.897C158.275 107.925 158.387 107.98 158.495 108.061C158.605 108.144 158.688 108.248 158.746 108.372C158.805 108.496 158.835 108.658 158.835 108.858Z" fill="#8C99B2"/>
<path d="M156.59 9H156.135V104H156.59V9Z" fill="#D7E2F2"/>
<path d="M166.359 109.91H164.748V109.573H165.347V107.358H164.748V107.056C164.974 107.056 165.14 107.024 165.247 106.96C165.355 106.895 165.416 106.773 165.429 106.594H165.773V109.573H166.359V109.91ZM169.06 108.838C169.06 109.008 169.032 109.165 168.976 109.309C168.919 109.452 168.844 109.572 168.749 109.668C168.65 109.77 168.539 109.848 168.416 109.901C168.293 109.953 168.158 109.979 168.01 109.979C167.861 109.979 167.725 109.954 167.602 109.903C167.48 109.853 167.373 109.778 167.28 109.679C167.166 109.559 167.076 109.4 167.011 109.2C166.948 108.999 166.916 108.752 166.916 108.459C166.916 108.172 166.946 107.913 167.005 107.682C167.064 107.449 167.155 107.247 167.278 107.076C167.398 106.909 167.552 106.778 167.742 106.685C167.931 106.591 168.15 106.543 168.399 106.543C168.473 106.543 168.541 106.547 168.605 106.554C168.669 106.562 168.725 106.574 168.774 106.59V107.014H168.754C168.714 106.992 168.656 106.972 168.581 106.954C168.505 106.935 168.424 106.925 168.339 106.925C168.063 106.925 167.841 107.018 167.671 107.205C167.502 107.39 167.402 107.665 167.371 108.03C167.476 107.956 167.584 107.899 167.695 107.859C167.806 107.819 167.927 107.799 168.059 107.799C168.188 107.799 168.3 107.813 168.396 107.839C168.494 107.865 168.595 107.916 168.7 107.995C168.822 108.086 168.912 108.203 168.971 108.343C169.03 108.484 169.06 108.649 169.06 108.838ZM168.609 108.856C168.609 108.72 168.592 108.606 168.556 108.514C168.521 108.422 168.463 108.344 168.383 108.279C168.325 108.231 168.259 108.2 168.185 108.186C168.113 108.171 168.038 108.163 167.961 108.163C167.858 108.163 167.757 108.179 167.659 108.21C167.562 108.241 167.466 108.286 167.371 108.345C167.368 108.378 167.366 108.41 167.364 108.441C167.363 108.47 167.362 108.508 167.362 108.554C167.362 108.783 167.384 108.968 167.429 109.109C167.475 109.249 167.531 109.356 167.597 109.428C167.661 109.498 167.726 109.547 167.793 109.575C167.861 109.603 167.934 109.617 168.012 109.617C168.19 109.617 168.333 109.554 168.443 109.426C168.554 109.299 168.609 109.109 168.609 108.856Z" fill="#8C99B2"/>
<path d="M166.726 9H166.271V104H166.726V9Z" fill="#D7E2F2"/>
<path d="M176.495 109.91H174.884V109.573H175.483V107.358H174.884V107.056C175.11 107.056 175.277 107.024 175.383 106.96C175.491 106.895 175.552 106.773 175.565 106.594H175.909V109.573H176.495V109.91ZM179.181 107.1L177.752 109.91H177.279L178.792 106.994H177.083V106.605H179.181V107.1Z" fill="#8C99B2"/>
<path d="M176.863 9H176.408V104H176.863V9Z" fill="#D7E2F2"/>
<path d="M186.632 109.909H185.02V109.572H185.619V107.357H185.02V107.055C185.247 107.055 185.413 107.023 185.52 106.959C185.628 106.894 185.688 106.772 185.702 106.593H186.046V109.572H186.632V109.909ZM188.8 107.374C188.8 107.227 188.75 107.103 188.651 107.004C188.552 106.905 188.414 106.855 188.238 106.855C188.077 106.855 187.945 106.9 187.841 106.988C187.739 107.077 187.688 107.197 187.688 107.348C187.688 107.457 187.714 107.55 187.766 107.625C187.819 107.701 187.898 107.769 188.003 107.829C188.049 107.855 188.119 107.889 188.212 107.934C188.306 107.978 188.392 108.013 188.469 108.038C188.598 107.939 188.685 107.838 188.731 107.734C188.777 107.629 188.8 107.509 188.8 107.374ZM188.862 109.03C188.862 108.894 188.835 108.786 188.782 108.706C188.729 108.626 188.626 108.545 188.474 108.462C188.423 108.434 188.356 108.404 188.272 108.371C188.189 108.338 188.095 108.3 187.99 108.256C187.867 108.337 187.773 108.438 187.708 108.557C187.643 108.676 187.61 108.811 187.61 108.964C187.61 109.163 187.67 109.328 187.79 109.459C187.911 109.589 188.063 109.654 188.245 109.654C188.431 109.654 188.581 109.598 188.693 109.487C188.806 109.375 188.862 109.223 188.862 109.03ZM188.241 109.985C188.076 109.985 187.927 109.96 187.792 109.911C187.658 109.862 187.543 109.792 187.448 109.7C187.355 109.612 187.284 109.507 187.235 109.385C187.188 109.263 187.164 109.133 187.164 108.997C187.164 108.818 187.212 108.654 187.306 108.504C187.402 108.353 187.541 108.233 187.723 108.145V108.131C187.561 108.037 187.44 107.933 187.362 107.821C187.283 107.708 187.244 107.568 187.244 107.399C187.244 107.15 187.338 106.943 187.526 106.777C187.714 106.612 187.952 106.529 188.241 106.529C188.541 106.529 188.781 106.608 188.962 106.766C189.144 106.923 189.235 107.124 189.235 107.37C189.235 107.518 189.191 107.664 189.104 107.809C189.018 107.954 188.894 108.068 188.731 108.149V108.162C188.923 108.253 189.069 108.362 189.168 108.491C189.267 108.62 189.317 108.785 189.317 108.988C189.317 109.271 189.214 109.507 189.009 109.698C188.804 109.889 188.548 109.985 188.241 109.985Z" fill="#8C99B2"/>
<path d="M186.999 9H186.544V104H186.999V9Z" fill="#D7E2F2"/>
<path d="M196.768 109.908H195.157V109.571H195.756V107.356H195.157V107.054C195.383 107.054 195.549 107.022 195.656 106.958C195.764 106.893 195.825 106.771 195.838 106.592H196.182V109.571H196.768V109.908ZM198.983 107.962C198.983 107.737 198.962 107.554 198.921 107.413C198.879 107.271 198.822 107.162 198.75 107.085C198.685 107.014 198.619 106.965 198.552 106.938C198.486 106.912 198.412 106.899 198.333 106.899C198.151 106.899 198.006 106.964 197.898 107.094C197.79 107.224 197.736 107.413 197.736 107.66C197.736 107.799 197.753 107.914 197.789 108.004C197.824 108.094 197.882 108.172 197.962 108.237C198.018 108.283 198.082 108.314 198.153 108.33C198.224 108.345 198.3 108.352 198.381 108.352C198.476 108.352 198.578 108.336 198.688 108.303C198.797 108.269 198.893 108.225 198.974 108.17C198.975 108.148 198.977 108.119 198.978 108.084C198.981 108.047 198.983 108.006 198.983 107.962ZM197.285 107.678C197.285 107.507 197.312 107.352 197.367 107.211C197.423 107.071 197.5 106.95 197.596 106.847C197.687 106.75 197.799 106.674 197.931 106.619C198.064 106.564 198.199 106.537 198.335 106.537C198.487 106.537 198.625 106.563 198.748 106.614C198.872 106.665 198.979 106.738 199.069 106.834C199.183 106.955 199.271 107.115 199.334 107.311C199.397 107.508 199.429 107.757 199.429 108.057C199.429 108.331 199.398 108.59 199.336 108.836C199.275 109.08 199.185 109.283 199.065 109.444C198.938 109.616 198.785 109.747 198.606 109.837C198.428 109.927 198.208 109.972 197.946 109.972C197.887 109.972 197.824 109.969 197.758 109.961C197.691 109.955 197.629 109.944 197.571 109.926V109.502H197.594C197.63 109.523 197.688 109.543 197.767 109.562C197.845 109.581 197.925 109.591 198.006 109.591C198.296 109.591 198.524 109.495 198.69 109.304C198.856 109.114 198.95 108.841 198.972 108.485C198.853 108.565 198.74 108.624 198.632 108.661C198.526 108.698 198.41 108.716 198.284 108.716C198.161 108.716 198.049 108.703 197.949 108.676C197.848 108.65 197.747 108.598 197.645 108.521C197.526 108.431 197.437 108.317 197.376 108.179C197.315 108.04 197.285 107.873 197.285 107.678Z" fill="#8C99B2"/>
<path d="M197.135 9H196.68V104H197.135V9Z" fill="#D7E2F2"/>
<path d="M207.073 109.908H205.033V109.444C205.18 109.305 205.318 109.172 205.448 109.045C205.579 108.917 205.706 108.785 205.83 108.647C206.082 108.371 206.253 108.15 206.345 107.984C206.437 107.817 206.483 107.644 206.483 107.467C206.483 107.375 206.468 107.294 206.438 107.225C206.41 107.155 206.371 107.098 206.321 107.052C206.269 107.007 206.209 106.974 206.141 106.952C206.073 106.93 205.998 106.918 205.917 106.918C205.838 106.918 205.758 106.929 205.677 106.95C205.597 106.969 205.52 106.993 205.446 107.023C205.384 107.048 205.324 107.078 205.266 107.114C205.209 107.149 205.162 107.18 205.126 107.205H205.102V106.734C205.194 106.688 205.321 106.644 205.484 106.601C205.648 106.557 205.803 106.535 205.95 106.535C206.258 106.535 206.499 106.617 206.673 106.781C206.848 106.944 206.935 107.165 206.935 107.445C206.935 107.573 206.92 107.692 206.889 107.802C206.859 107.911 206.818 108.013 206.764 108.106C206.71 108.202 206.644 108.298 206.567 108.392C206.49 108.487 206.409 108.58 206.323 108.672C206.184 108.823 206.028 108.98 205.857 109.142C205.687 109.305 205.55 109.434 205.448 109.529H207.073V109.908ZM209.57 108.255C209.57 108.848 209.483 109.284 209.31 109.562C209.139 109.839 208.873 109.977 208.513 109.977C208.149 109.977 207.882 109.836 207.712 109.553C207.542 109.27 207.457 108.839 207.457 108.259C207.457 107.663 207.543 107.227 207.714 106.952C207.887 106.675 208.154 106.537 208.513 106.537C208.877 106.537 209.144 106.68 209.315 106.965C209.485 107.251 209.57 107.681 209.57 108.255ZM209.002 109.262C209.045 109.153 209.075 109.014 209.093 108.847C209.11 108.68 209.119 108.482 209.119 108.255C209.119 108.028 209.11 107.831 209.093 107.664C209.075 107.497 209.044 107.358 208.999 107.247C208.955 107.135 208.894 107.049 208.815 106.992C208.738 106.933 208.638 106.903 208.513 106.903C208.391 106.903 208.289 106.933 208.209 106.992C208.131 107.049 208.069 107.136 208.023 107.251C207.978 107.364 207.948 107.506 207.932 107.678C207.916 107.849 207.907 108.043 207.907 108.259C207.907 108.49 207.914 108.683 207.927 108.838C207.942 108.994 207.973 109.133 208.021 109.256C208.064 109.37 208.124 109.458 208.203 109.52C208.283 109.58 208.386 109.611 208.513 109.611C208.636 109.611 208.737 109.582 208.815 109.524C208.895 109.465 208.957 109.378 209.002 109.262Z" fill="#8C99B2"/>
<path d="M207.272 9H206.817V104H207.272V9Z" fill="#D7E2F2"/>
<path d="M217.209 109.908H215.17V109.444C215.316 109.305 215.455 109.172 215.585 109.045C215.715 108.917 215.842 108.785 215.967 108.647C216.218 108.371 216.39 108.15 216.481 107.984C216.573 107.817 216.619 107.644 216.619 107.467C216.619 107.375 216.604 107.294 216.575 107.225C216.547 107.155 216.507 107.098 216.457 107.052C216.405 107.007 216.345 106.974 216.277 106.952C216.209 106.93 216.134 106.918 216.053 106.918C215.975 106.918 215.895 106.929 215.813 106.95C215.733 106.969 215.657 106.993 215.583 107.023C215.52 107.048 215.46 107.078 215.403 107.114C215.345 107.149 215.298 107.18 215.263 107.205H215.239V106.734C215.33 106.688 215.458 106.644 215.62 106.601C215.785 106.557 215.94 106.535 216.086 106.535C216.394 106.535 216.635 106.617 216.81 106.781C216.985 106.944 217.072 107.165 217.072 107.445C217.072 107.573 217.056 107.692 217.025 107.802C216.996 107.911 216.954 108.013 216.901 108.106C216.846 108.202 216.78 108.298 216.703 108.392C216.626 108.487 216.545 108.58 216.459 108.672C216.32 108.823 216.165 108.98 215.993 109.142C215.823 109.305 215.687 109.434 215.585 109.529H217.209V109.908ZM219.522 109.908H217.911V109.571H218.51V107.356H217.911V107.054C218.137 107.054 218.304 107.022 218.41 106.958C218.518 106.893 218.579 106.771 218.592 106.592H218.936V109.571H219.522V109.908Z" fill="#8C99B2"/>
<path d="M217.408 9H216.953V104H217.408V9Z" fill="#D7E2F2"/>
<path d="M227.346 109.908H225.306V109.444C225.452 109.305 225.591 109.172 225.721 109.045C225.851 108.917 225.978 108.785 226.103 108.647C226.354 108.371 226.526 108.15 226.618 107.984C226.709 107.817 226.755 107.644 226.755 107.467C226.755 107.375 226.74 107.294 226.711 107.225C226.683 107.155 226.644 107.098 226.593 107.052C226.541 107.007 226.482 106.974 226.413 106.952C226.345 106.93 226.271 106.918 226.189 106.918C226.111 106.918 226.031 106.929 225.95 106.95C225.87 106.969 225.793 106.993 225.719 107.023C225.657 107.048 225.597 107.078 225.539 107.114C225.481 107.149 225.435 107.18 225.399 107.205H225.375V106.734C225.467 106.688 225.594 106.644 225.757 106.601C225.921 106.557 226.076 106.535 226.223 106.535C226.53 106.535 226.772 106.617 226.946 106.781C227.121 106.944 227.208 107.165 227.208 107.445C227.208 107.573 227.193 107.692 227.161 107.802C227.132 107.911 227.09 108.013 227.037 108.106C226.982 108.202 226.917 108.298 226.84 108.392C226.763 108.487 226.681 108.58 226.595 108.672C226.456 108.823 226.301 108.98 226.129 109.142C225.959 109.305 225.823 109.434 225.721 109.529H227.346V109.908ZM229.827 109.908H227.787V109.444C227.934 109.305 228.072 109.172 228.202 109.045C228.333 108.917 228.46 108.785 228.584 108.647C228.836 108.371 229.007 108.15 229.099 107.984C229.191 107.817 229.237 107.644 229.237 107.467C229.237 107.375 229.222 107.294 229.192 107.225C229.164 107.155 229.125 107.098 229.075 107.052C229.023 107.007 228.963 106.974 228.895 106.952C228.827 106.93 228.752 106.918 228.671 106.918C228.592 106.918 228.512 106.929 228.431 106.95C228.351 106.969 228.274 106.993 228.2 107.023C228.138 107.048 228.078 107.078 228.02 107.114C227.963 107.149 227.916 107.18 227.881 107.205H227.856V106.734C227.948 106.688 228.075 106.644 228.238 106.601C228.402 106.557 228.557 106.535 228.704 106.535C229.012 106.535 229.253 106.617 229.428 106.781C229.602 106.944 229.689 107.165 229.689 107.445C229.689 107.573 229.674 107.692 229.643 107.802C229.613 107.911 229.572 108.013 229.519 108.106C229.464 108.202 229.398 108.298 229.321 108.392C229.244 108.487 229.163 108.58 229.077 108.672C228.938 108.823 228.782 108.98 228.611 109.142C228.441 109.305 228.304 109.434 228.202 109.529H229.827V109.908Z" fill="#8C99B2"/>
<path d="M227.544 9H227.089V104H227.544V9Z" fill="#D7E2F2"/>
<path d="M237.482 109.908H235.443V109.444C235.589 109.305 235.727 109.172 235.858 109.045C235.988 108.917 236.115 108.785 236.239 108.647C236.491 108.371 236.662 108.15 236.754 107.984C236.846 107.817 236.892 107.644 236.892 107.467C236.892 107.375 236.877 107.294 236.847 107.225C236.819 107.155 236.78 107.098 236.73 107.052C236.678 107.007 236.618 106.974 236.55 106.952C236.482 106.93 236.407 106.918 236.326 106.918C236.247 106.918 236.168 106.929 236.086 106.95C236.006 106.969 235.929 106.993 235.855 107.023C235.793 107.048 235.733 107.078 235.676 107.114C235.618 107.149 235.571 107.18 235.536 107.205H235.511V106.734C235.603 106.688 235.73 106.644 235.893 106.601C236.057 106.557 236.213 106.535 236.359 106.535C236.667 106.535 236.908 106.617 237.083 106.781C237.257 106.944 237.345 107.165 237.345 107.445C237.345 107.573 237.329 107.692 237.298 107.802C237.268 107.911 237.227 108.013 237.174 108.106C237.119 108.202 237.053 108.298 236.976 108.392C236.899 108.487 236.818 108.58 236.732 108.672C236.593 108.823 236.438 108.98 236.266 109.142C236.096 109.305 235.96 109.434 235.858 109.529H237.482V109.908ZM238.816 106.918C238.736 106.918 238.656 106.928 238.576 106.947C238.496 106.967 238.418 106.992 238.341 107.023C238.27 107.052 238.208 107.083 238.155 107.116C238.103 107.149 238.056 107.179 238.015 107.207H237.988V106.739C238.084 106.687 238.215 106.64 238.379 106.599C238.545 106.556 238.702 106.535 238.852 106.535C239.001 106.535 239.131 106.55 239.242 106.581C239.355 106.611 239.456 106.657 239.546 106.721C239.644 106.792 239.717 106.878 239.766 106.978C239.816 107.079 239.841 107.197 239.841 107.331C239.841 107.513 239.782 107.673 239.662 107.811C239.542 107.948 239.398 108.036 239.231 108.073V108.104C239.301 108.117 239.375 108.14 239.453 108.172C239.533 108.205 239.607 108.253 239.675 108.317C239.743 108.38 239.799 108.462 239.841 108.563C239.884 108.662 239.906 108.784 239.906 108.927C239.906 109.077 239.88 109.214 239.828 109.34C239.778 109.464 239.706 109.574 239.613 109.671C239.517 109.771 239.401 109.847 239.264 109.899C239.128 109.951 238.974 109.977 238.801 109.977C238.635 109.977 238.471 109.957 238.308 109.917C238.145 109.877 238.008 109.829 237.897 109.773V109.304H237.928C238.022 109.372 238.147 109.438 238.303 109.5C238.46 109.562 238.617 109.593 238.774 109.593C238.864 109.593 238.954 109.579 239.045 109.551C239.136 109.521 239.213 109.474 239.273 109.409C239.332 109.344 239.378 109.272 239.409 109.193C239.44 109.115 239.455 109.016 239.455 108.896C239.455 108.776 239.438 108.678 239.402 108.601C239.368 108.524 239.32 108.463 239.258 108.419C239.196 108.374 239.122 108.344 239.036 108.328C238.951 108.31 238.86 108.301 238.761 108.301H238.572V107.933H238.718C238.918 107.933 239.08 107.885 239.204 107.791C239.33 107.696 239.393 107.558 239.393 107.378C239.393 107.295 239.377 107.224 239.344 107.165C239.312 107.104 239.27 107.056 239.22 107.021C239.164 106.982 239.102 106.955 239.034 106.941C238.966 106.926 238.893 106.918 238.816 106.918Z" fill="#8C99B2"/>
<path d="M237.681 9H237.226V104H237.681V9Z" fill="#8C99B2"/>
<path d="M247.618 109.908H245.579V109.444C245.725 109.305 245.864 109.172 245.994 109.045C246.124 108.917 246.251 108.785 246.376 108.647C246.627 108.371 246.799 108.15 246.89 107.984C246.982 107.817 247.028 107.644 247.028 107.467C247.028 107.375 247.013 107.294 246.984 107.225C246.956 107.155 246.916 107.098 246.866 107.052C246.814 107.007 246.754 106.974 246.686 106.952C246.618 106.93 246.543 106.918 246.462 106.918C246.384 106.918 246.304 106.929 246.222 106.95C246.142 106.969 246.066 106.993 245.992 107.023C245.929 107.048 245.869 107.078 245.812 107.114C245.754 107.149 245.707 107.18 245.672 107.205H245.648V106.734C245.739 106.688 245.867 106.644 246.029 106.601C246.194 106.557 246.349 106.535 246.495 106.535C246.803 106.535 247.044 106.617 247.219 106.781C247.394 106.944 247.481 107.165 247.481 107.445C247.481 107.573 247.465 107.692 247.434 107.802C247.405 107.911 247.363 108.013 247.31 108.106C247.255 108.202 247.189 108.298 247.112 108.392C247.035 108.487 246.954 108.58 246.868 108.672C246.729 108.823 246.574 108.98 246.402 109.142C246.232 109.305 246.096 109.434 245.994 109.529H247.618V109.908ZM250.186 108.772H249.793V109.908H249.367V108.772H247.907V108.306L249.385 106.603H249.793V108.417H250.186V108.772ZM249.367 108.417V107.125L248.253 108.417H249.367Z" fill="#8C99B2"/>
<path d="M247.817 9H247.362V104H247.817V9Z" fill="#D7E2F2"/>
<path d="M257.755 109.908H255.715V109.444C255.862 109.305 256 109.172 256.13 109.045C256.26 108.917 256.388 108.785 256.512 108.647C256.763 108.371 256.935 108.15 257.027 107.984C257.119 107.817 257.164 107.644 257.164 107.467C257.164 107.375 257.15 107.294 257.12 107.225C257.092 107.155 257.053 107.098 257.002 107.052C256.951 107.007 256.891 106.974 256.823 106.952C256.755 106.93 256.68 106.918 256.598 106.918C256.52 106.918 256.44 106.929 256.359 106.95C256.279 106.969 256.202 106.993 256.128 107.023C256.066 107.048 256.006 107.078 255.948 107.114C255.89 107.149 255.844 107.18 255.808 107.205H255.784V106.734C255.876 106.688 256.003 106.644 256.166 106.601C256.33 106.557 256.485 106.535 256.632 106.535C256.94 106.535 257.181 106.617 257.355 106.781C257.53 106.944 257.617 107.165 257.617 107.445C257.617 107.573 257.602 107.692 257.571 107.802C257.541 107.911 257.5 108.013 257.446 108.106C257.392 108.202 257.326 108.298 257.249 108.392C257.172 108.487 257.09 108.58 257.005 108.672C256.866 108.823 256.71 108.98 256.539 109.142C256.368 109.305 256.232 109.434 256.13 109.529H257.755V109.908ZM260.198 108.856C260.198 109.016 260.173 109.164 260.121 109.3C260.07 109.436 259.999 109.554 259.908 109.653C259.814 109.753 259.698 109.833 259.559 109.89C259.422 109.948 259.267 109.977 259.095 109.977C258.937 109.977 258.781 109.959 258.627 109.924C258.475 109.89 258.342 109.844 258.23 109.788V109.32H258.261C258.295 109.345 258.344 109.374 258.407 109.407C258.471 109.438 258.541 109.467 258.618 109.495C258.706 109.526 258.785 109.551 258.858 109.569C258.93 109.585 259.012 109.593 259.102 109.593C259.191 109.593 259.277 109.577 259.362 109.546C259.446 109.514 259.519 109.462 259.579 109.391C259.634 109.326 259.675 109.25 259.704 109.162C259.733 109.075 259.748 108.972 259.748 108.854C259.748 108.737 259.732 108.641 259.699 108.565C259.668 108.49 259.622 108.428 259.561 108.379C259.498 108.323 259.419 108.283 259.326 108.261C259.234 108.238 259.132 108.226 259.018 108.226C258.898 108.226 258.777 108.235 258.656 108.255C258.535 108.272 258.438 108.289 258.365 108.306V106.603H260.178V106.992H258.794V107.871C258.847 107.865 258.899 107.86 258.951 107.857C259.003 107.854 259.05 107.853 259.093 107.853C259.262 107.853 259.405 107.867 259.522 107.895C259.638 107.923 259.751 107.978 259.859 108.059C259.968 108.142 260.052 108.246 260.11 108.37C260.169 108.494 260.198 108.656 260.198 108.856Z" fill="#8C99B2"/>
<path d="M257.953 9H257.498V104H257.953V9Z" fill="#D7E2F2"/>
<path d="M267.891 109.908H265.852V109.444C265.998 109.305 266.136 109.172 266.267 109.045C266.397 108.917 266.524 108.785 266.648 108.647C266.9 108.371 267.071 108.15 267.163 107.984C267.255 107.817 267.301 107.644 267.301 107.467C267.301 107.375 267.286 107.294 267.256 107.225C267.228 107.155 267.189 107.098 267.139 107.052C267.087 107.007 267.027 106.974 266.959 106.952C266.891 106.93 266.816 106.918 266.735 106.918C266.656 106.918 266.577 106.929 266.495 106.95C266.415 106.969 266.338 106.993 266.264 107.023C266.202 107.048 266.142 107.078 266.085 107.114C266.027 107.149 265.98 107.18 265.945 107.205H265.92V106.734C266.012 106.688 266.139 106.644 266.302 106.601C266.466 106.557 266.622 106.535 266.768 106.535C267.076 106.535 267.317 106.617 267.492 106.781C267.666 106.944 267.754 107.165 267.754 107.445C267.754 107.573 267.738 107.692 267.707 107.802C267.677 107.911 267.636 108.013 267.583 108.106C267.528 108.202 267.462 108.298 267.385 108.392C267.308 108.487 267.227 108.58 267.141 108.672C267.002 108.823 266.847 108.98 266.675 109.142C266.505 109.305 266.369 109.434 266.267 109.529H267.891V109.908ZM270.424 108.836C270.424 109.006 270.395 109.163 270.339 109.307C270.283 109.45 270.208 109.57 270.113 109.666C270.014 109.768 269.903 109.846 269.78 109.899C269.657 109.951 269.522 109.977 269.374 109.977C269.224 109.977 269.088 109.952 268.965 109.901C268.844 109.851 268.737 109.776 268.644 109.677C268.53 109.557 268.44 109.398 268.375 109.198C268.311 108.997 268.28 108.75 268.28 108.457C268.28 108.17 268.309 107.911 268.368 107.68C268.428 107.447 268.519 107.245 268.641 107.074C268.761 106.907 268.916 106.776 269.105 106.683C269.295 106.589 269.514 106.541 269.762 106.541C269.836 106.541 269.905 106.545 269.969 106.552C270.032 106.56 270.088 106.572 270.137 106.588V107.012H270.117C270.077 106.99 270.02 106.97 269.944 106.952C269.869 106.933 269.788 106.923 269.702 106.923C269.427 106.923 269.204 107.016 269.034 107.203C268.866 107.388 268.766 107.663 268.735 108.028C268.84 107.954 268.948 107.897 269.059 107.857C269.17 107.817 269.291 107.797 269.423 107.797C269.551 107.797 269.664 107.811 269.76 107.837C269.858 107.863 269.959 107.914 270.064 107.993C270.185 108.084 270.276 108.201 270.335 108.341C270.394 108.482 270.424 108.647 270.424 108.836ZM269.973 108.854C269.973 108.718 269.955 108.604 269.92 108.512C269.884 108.42 269.827 108.342 269.747 108.277C269.689 108.229 269.623 108.198 269.549 108.184C269.477 108.169 269.402 108.161 269.325 108.161C269.221 108.161 269.121 108.177 269.023 108.208C268.925 108.239 268.829 108.284 268.735 108.343C268.732 108.376 268.729 108.408 268.728 108.439C268.726 108.468 268.726 108.506 268.726 108.552C268.726 108.781 268.748 108.966 268.792 109.107C268.838 109.247 268.894 109.354 268.961 109.426C269.025 109.496 269.09 109.545 269.156 109.573C269.224 109.601 269.298 109.615 269.376 109.615C269.554 109.615 269.697 109.552 269.807 109.424C269.918 109.297 269.973 109.107 269.973 108.854Z" fill="#8C99B2"/>
<path d="M268.09 9H267.635V104H268.09V9Z" fill="#D7E2F2"/>
<path d="M278.028 109.908H275.988V109.444C276.134 109.305 276.273 109.172 276.403 109.045C276.533 108.917 276.66 108.785 276.785 108.647C277.036 108.371 277.208 108.15 277.3 107.984C277.391 107.817 277.437 107.644 277.437 107.467C277.437 107.375 277.422 107.294 277.393 107.225C277.365 107.155 277.326 107.098 277.275 107.052C277.223 107.007 277.163 106.974 277.095 106.952C277.027 106.93 276.953 106.918 276.871 106.918C276.793 106.918 276.713 106.929 276.632 106.95C276.552 106.969 276.475 106.993 276.401 107.023C276.339 107.048 276.279 107.078 276.221 107.114C276.163 107.149 276.117 107.18 276.081 107.205H276.057V106.734C276.148 106.688 276.276 106.644 276.438 106.601C276.603 106.557 276.758 106.535 276.905 106.535C277.212 106.535 277.454 106.617 277.628 106.781C277.803 106.944 277.89 107.165 277.89 107.445C277.89 107.573 277.874 107.692 277.843 107.802C277.814 107.911 277.772 108.013 277.719 108.106C277.664 108.202 277.599 108.298 277.522 108.392C277.445 108.487 277.363 108.58 277.277 108.672C277.138 108.823 276.983 108.98 276.811 109.142C276.641 109.305 276.505 109.434 276.403 109.529H278.028V109.908ZM280.544 107.098L279.115 109.908H278.642L280.156 106.992H278.447V106.603H280.544V107.098Z" fill="#8C99B2"/>
<path d="M278.226 9H277.771V104H278.226V9Z" fill="#D7E2F2"/>
<path d="M288.164 109.909H286.124V109.445C286.271 109.306 286.409 109.173 286.539 109.046C286.67 108.918 286.797 108.786 286.921 108.648C287.173 108.372 287.344 108.151 287.436 107.985C287.528 107.818 287.574 107.645 287.574 107.468C287.574 107.376 287.559 107.295 287.529 107.226C287.501 107.156 287.462 107.099 287.412 107.053C287.36 107.008 287.3 106.975 287.232 106.953C287.164 106.931 287.089 106.919 287.008 106.919C286.929 106.919 286.849 106.93 286.768 106.951C286.688 106.97 286.611 106.994 286.537 107.024C286.475 107.049 286.415 107.079 286.357 107.115C286.3 107.15 286.253 107.181 286.218 107.206H286.193V106.735C286.285 106.689 286.412 106.645 286.575 106.602C286.739 106.558 286.894 106.536 287.041 106.536C287.349 106.536 287.59 106.618 287.765 106.782C287.939 106.945 288.026 107.166 288.026 107.446C288.026 107.574 288.011 107.693 287.98 107.803C287.95 107.912 287.909 108.014 287.856 108.107C287.801 108.203 287.735 108.299 287.658 108.393C287.581 108.488 287.5 108.581 287.414 108.673C287.275 108.824 287.119 108.981 286.948 109.143C286.778 109.306 286.641 109.435 286.539 109.53H288.164V109.909ZM290.164 107.374C290.164 107.227 290.114 107.103 290.015 107.004C289.916 106.905 289.778 106.855 289.602 106.855C289.441 106.855 289.309 106.9 289.205 106.988C289.103 107.077 289.052 107.197 289.052 107.348C289.052 107.457 289.078 107.55 289.129 107.625C289.183 107.701 289.262 107.769 289.367 107.829C289.413 107.855 289.482 107.889 289.576 107.934C289.67 107.978 289.756 108.013 289.833 108.038C289.962 107.939 290.049 107.838 290.095 107.734C290.141 107.629 290.164 107.509 290.164 107.374ZM290.226 109.03C290.226 108.894 290.199 108.786 290.146 108.706C290.093 108.626 289.99 108.545 289.837 108.462C289.787 108.434 289.72 108.404 289.636 108.371C289.553 108.338 289.459 108.3 289.354 108.256C289.231 108.337 289.137 108.438 289.072 108.557C289.007 108.676 288.974 108.811 288.974 108.964C288.974 109.163 289.034 109.328 289.154 109.459C289.275 109.589 289.427 109.654 289.609 109.654C289.795 109.654 289.945 109.598 290.057 109.487C290.17 109.375 290.226 109.223 290.226 109.03ZM289.604 109.985C289.44 109.985 289.291 109.96 289.156 109.911C289.021 109.862 288.907 109.792 288.812 109.7C288.719 109.612 288.648 109.507 288.599 109.385C288.552 109.263 288.528 109.133 288.528 108.997C288.528 108.818 288.575 108.654 288.67 108.504C288.766 108.353 288.905 108.233 289.087 108.145V108.131C288.925 108.037 288.804 107.933 288.726 107.821C288.647 107.708 288.608 107.568 288.608 107.399C288.608 107.15 288.702 106.943 288.89 106.777C289.078 106.612 289.316 106.529 289.604 106.529C289.905 106.529 290.145 106.608 290.326 106.766C290.508 106.923 290.599 107.124 290.599 107.37C290.599 107.518 290.555 107.664 290.468 107.809C290.382 107.954 290.258 108.068 290.095 108.149V108.162C290.287 108.253 290.433 108.362 290.532 108.491C290.631 108.62 290.681 108.785 290.681 108.988C290.681 109.271 290.578 109.507 290.372 109.698C290.168 109.889 289.912 109.985 289.604 109.985Z" fill="#8C99B2"/>
<path d="M288.363 9H287.908V104H288.363V9Z" fill="#D7E2F2"/>
<path d="M298.3 109.908H296.261V109.444C296.407 109.305 296.545 109.172 296.676 109.045C296.806 108.917 296.933 108.785 297.057 108.647C297.309 108.371 297.48 108.15 297.572 107.984C297.664 107.817 297.71 107.644 297.71 107.467C297.71 107.375 297.695 107.294 297.665 107.225C297.637 107.155 297.598 107.098 297.548 107.052C297.496 107.007 297.436 106.974 297.368 106.952C297.3 106.93 297.225 106.918 297.144 106.918C297.065 106.918 296.986 106.929 296.904 106.95C296.824 106.969 296.747 106.993 296.673 107.023C296.611 107.048 296.551 107.078 296.494 107.114C296.436 107.149 296.389 107.18 296.354 107.205H296.329V106.734C296.421 106.688 296.548 106.644 296.711 106.601C296.875 106.557 297.031 106.535 297.177 106.535C297.485 106.535 297.726 106.617 297.901 106.781C298.075 106.944 298.163 107.165 298.163 107.445C298.163 107.573 298.147 107.692 298.116 107.802C298.086 107.911 298.045 108.013 297.992 108.106C297.937 108.202 297.871 108.298 297.794 108.392C297.717 108.487 297.636 108.58 297.55 108.672C297.411 108.823 297.256 108.98 297.084 109.142C296.914 109.305 296.778 109.434 296.676 109.529H298.3V109.908ZM300.347 107.962C300.347 107.737 300.326 107.554 300.284 107.413C300.243 107.271 300.186 107.162 300.113 107.085C300.048 107.014 299.983 106.965 299.916 106.938C299.849 106.912 299.776 106.899 299.696 106.899C299.514 106.899 299.369 106.964 299.261 107.094C299.153 107.224 299.099 107.413 299.099 107.66C299.099 107.799 299.117 107.914 299.152 108.004C299.188 108.094 299.246 108.172 299.326 108.237C299.382 108.283 299.445 108.314 299.516 108.33C299.587 108.345 299.664 108.352 299.745 108.352C299.84 108.352 299.942 108.336 300.051 108.303C300.161 108.269 300.256 108.225 300.338 108.17C300.339 108.148 300.341 108.119 300.342 108.084C300.345 108.047 300.347 108.006 300.347 107.962ZM298.649 107.678C298.649 107.507 298.676 107.352 298.731 107.211C298.787 107.071 298.863 106.95 298.959 106.847C299.051 106.75 299.163 106.674 299.295 106.619C299.428 106.564 299.562 106.537 299.698 106.537C299.851 106.537 299.988 106.563 300.111 106.614C300.236 106.665 300.343 106.738 300.433 106.834C300.547 106.955 300.635 107.115 300.697 107.311C300.761 107.508 300.793 107.757 300.793 108.057C300.793 108.331 300.762 108.59 300.699 108.836C300.639 109.08 300.549 109.283 300.429 109.444C300.301 109.616 300.148 109.747 299.969 109.837C299.792 109.927 299.572 109.972 299.31 109.972C299.251 109.972 299.188 109.969 299.121 109.961C299.055 109.955 298.993 109.944 298.935 109.926V109.502H298.957C298.994 109.523 299.052 109.543 299.13 109.562C299.209 109.581 299.289 109.591 299.37 109.591C299.66 109.591 299.888 109.495 300.054 109.304C300.219 109.114 300.313 108.841 300.335 108.485C300.217 108.565 300.104 108.624 299.996 108.661C299.889 108.698 299.773 108.716 299.647 108.716C299.525 108.716 299.413 108.703 299.312 108.676C299.212 108.65 299.11 108.598 299.008 108.521C298.89 108.431 298.8 108.317 298.74 108.179C298.679 108.04 298.649 107.873 298.649 107.678Z" fill="#8C99B2"/>
<path d="M298.499 9H298.044V104H298.499V9Z" fill="#D7E2F2"/>
<path d="M307.289 106.918C307.209 106.918 307.129 106.928 307.049 106.947C306.97 106.967 306.891 106.992 306.814 107.023C306.743 107.052 306.681 107.083 306.628 107.116C306.576 107.149 306.529 107.179 306.488 107.207H306.461V106.739C306.558 106.687 306.688 106.64 306.852 106.599C307.018 106.556 307.175 106.535 307.325 106.535C307.474 106.535 307.604 106.55 307.715 106.581C307.828 106.611 307.929 106.657 308.019 106.721C308.117 106.792 308.19 106.878 308.239 106.978C308.289 107.079 308.315 107.197 308.315 107.331C308.315 107.513 308.255 107.673 308.135 107.811C308.015 107.948 307.871 108.036 307.704 108.073V108.104C307.774 108.117 307.848 108.14 307.926 108.172C308.006 108.205 308.08 108.253 308.148 108.317C308.216 108.38 308.272 108.462 308.315 108.563C308.358 108.662 308.379 108.784 308.379 108.927C308.379 109.077 308.353 109.214 308.301 109.34C308.251 109.464 308.179 109.574 308.086 109.671C307.99 109.771 307.874 109.847 307.738 109.899C307.601 109.951 307.447 109.977 307.274 109.977C307.108 109.977 306.944 109.957 306.781 109.917C306.618 109.877 306.481 109.829 306.37 109.773V109.304H306.401C306.495 109.372 306.62 109.438 306.777 109.5C306.933 109.562 307.09 109.593 307.247 109.593C307.337 109.593 307.428 109.579 307.518 109.551C307.61 109.521 307.686 109.474 307.746 109.409C307.806 109.344 307.851 109.272 307.882 109.193C307.913 109.115 307.928 109.016 307.928 108.896C307.928 108.776 307.911 108.678 307.875 108.601C307.841 108.524 307.793 108.463 307.731 108.419C307.669 108.374 307.595 108.344 307.509 108.328C307.425 108.31 307.333 108.301 307.234 108.301H307.045V107.933H307.192C307.391 107.933 307.553 107.885 307.678 107.791C307.803 107.696 307.866 107.558 307.866 107.378C307.866 107.295 307.85 107.224 307.817 107.165C307.785 107.104 307.743 107.056 307.693 107.021C307.637 106.982 307.575 106.955 307.507 106.941C307.439 106.926 307.366 106.918 307.289 106.918ZM310.934 108.255C310.934 108.848 310.847 109.284 310.674 109.562C310.502 109.839 310.237 109.977 309.877 109.977C309.513 109.977 309.246 109.836 309.076 109.553C308.906 109.27 308.821 108.839 308.821 108.259C308.821 107.663 308.906 107.227 309.078 106.952C309.251 106.675 309.518 106.537 309.877 106.537C310.241 106.537 310.508 106.68 310.678 106.965C310.848 107.251 310.934 107.681 310.934 108.255ZM310.365 109.262C310.408 109.153 310.439 109.014 310.456 108.847C310.474 108.68 310.483 108.482 310.483 108.255C310.483 108.028 310.474 107.831 310.456 107.664C310.439 107.497 310.408 107.358 310.363 107.247C310.319 107.135 310.257 107.049 310.179 106.992C310.102 106.933 310.001 106.903 309.877 106.903C309.754 106.903 309.653 106.933 309.573 106.992C309.495 107.049 309.432 107.136 309.387 107.251C309.342 107.364 309.312 107.506 309.296 107.678C309.279 107.849 309.271 108.043 309.271 108.259C309.271 108.49 309.278 108.683 309.291 108.838C309.306 108.994 309.337 109.133 309.384 109.256C309.427 109.37 309.488 109.458 309.566 109.52C309.646 109.58 309.75 109.611 309.877 109.611C310 109.611 310.101 109.582 310.179 109.524C310.259 109.465 310.321 109.378 310.365 109.262Z" fill="#8C99B2"/>
<path d="M308.635 9H308.18V104H308.635V9Z" fill="#D7E2F2"/>
<path d="M317.425 106.918C317.346 106.918 317.266 106.928 317.186 106.947C317.106 106.967 317.027 106.992 316.951 107.023C316.88 107.052 316.817 107.083 316.764 107.116C316.712 107.149 316.666 107.179 316.624 107.207H316.598V106.739C316.694 106.687 316.824 106.64 316.988 106.599C317.154 106.556 317.312 106.535 317.461 106.535C317.61 106.535 317.741 106.55 317.852 106.581C317.964 106.611 318.065 106.657 318.156 106.721C318.253 106.792 318.327 106.878 318.375 106.978C318.426 107.079 318.451 107.197 318.451 107.331C318.451 107.513 318.391 107.673 318.271 107.811C318.151 107.948 318.008 108.036 317.841 108.073V108.104C317.91 108.117 317.984 108.14 318.062 108.172C318.142 108.205 318.216 108.253 318.284 108.317C318.352 108.38 318.408 108.462 318.451 108.563C318.494 108.662 318.515 108.784 318.515 108.927C318.515 109.077 318.489 109.214 318.438 109.34C318.387 109.464 318.315 109.574 318.222 109.671C318.126 109.771 318.01 109.847 317.874 109.899C317.738 109.951 317.583 109.977 317.41 109.977C317.244 109.977 317.08 109.957 316.917 109.917C316.754 109.877 316.618 109.829 316.507 109.773V109.304H316.538C316.631 109.372 316.756 109.438 316.913 109.5C317.07 109.562 317.226 109.593 317.383 109.593C317.474 109.593 317.564 109.579 317.654 109.551C317.746 109.521 317.822 109.474 317.883 109.409C317.942 109.344 317.987 109.272 318.018 109.193C318.049 109.115 318.065 109.016 318.065 108.896C318.065 108.776 318.047 108.678 318.011 108.601C317.977 108.524 317.929 108.463 317.867 108.419C317.805 108.374 317.731 108.344 317.645 108.328C317.561 108.31 317.469 108.301 317.37 108.301H317.181V107.933H317.328C317.528 107.933 317.69 107.885 317.814 107.791C317.94 107.696 318.003 107.558 318.003 107.378C318.003 107.295 317.986 107.224 317.954 107.165C317.921 107.104 317.88 107.056 317.829 107.021C317.773 106.982 317.711 106.955 317.643 106.941C317.575 106.926 317.502 106.918 317.425 106.918ZM320.886 109.908H319.274V109.571H319.874V107.356H319.274V107.054C319.501 107.054 319.667 107.022 319.774 106.958C319.882 106.893 319.942 106.771 319.956 106.592H320.3V109.571H320.886V109.908Z" fill="#8C99B2"/>
<path d="M318.772 9H318.317V104H318.772V9Z" fill="#D7E2F2"/>
<path d="M318.545 9.45453V9L14.454 9V9.45453L318.545 9.45453Z" fill="#D7E2F2"/>
<path d="M6.3961 11.2717H4.78477V10.9344H5.38403V8.71937H4.78477V8.41752C5.01116 8.41752 5.17762 8.38571 5.28415 8.32209C5.39216 8.25698 5.45283 8.13491 5.46615 7.95588H5.81016V10.9344H6.3961V11.2717ZM9.06167 9.61825C9.06167 10.2116 8.97511 10.6473 8.80199 10.9255C8.63036 11.2022 8.36476 11.3405 8.00521 11.3405C7.64122 11.3405 7.37414 11.1992 7.20398 10.9166C7.03382 10.634 6.94874 10.2027 6.94874 9.62269C6.94874 9.0264 7.03456 8.59064 7.2062 8.31543C7.37932 8.03874 7.64566 7.90039 8.00521 7.90039C8.3692 7.90039 8.63627 8.04318 8.80643 8.32875C8.97659 8.61432 9.06167 9.04415 9.06167 9.61825ZM8.49349 10.6259C8.5364 10.5164 8.56673 10.378 8.58449 10.2108C8.60224 10.0436 8.61112 9.84612 8.61112 9.61825C8.61112 9.39187 8.60224 9.19508 8.58449 9.02788C8.56673 8.86068 8.53566 8.72159 8.49127 8.61062C8.44688 8.49816 8.38548 8.41309 8.30705 8.35538C8.23011 8.29619 8.1295 8.2666 8.00521 8.2666C7.8824 8.2666 7.78104 8.29619 7.70114 8.35538C7.62272 8.41309 7.56058 8.49964 7.51471 8.61506C7.47032 8.72751 7.43999 8.86955 7.42371 9.04119C7.40743 9.21283 7.3993 9.40666 7.3993 9.62269C7.3993 9.85352 7.40595 10.0466 7.41927 10.2019C7.43407 10.3573 7.46514 10.4964 7.51249 10.6192C7.5554 10.7331 7.61606 10.8212 7.69448 10.8833C7.77438 10.944 7.87796 10.9743 8.00521 10.9743C8.12802 10.9743 8.22863 10.9455 8.30705 10.8878C8.38696 10.8286 8.4491 10.7413 8.49349 10.6259ZM11.543 9.61825C11.543 10.2116 11.4565 10.6473 11.2834 10.9255C11.1117 11.2022 10.8461 11.3405 10.4866 11.3405C10.1226 11.3405 9.8555 11.1992 9.68534 10.9166C9.51518 10.634 9.4301 10.2027 9.4301 9.62269C9.4301 9.0264 9.51592 8.59064 9.68756 8.31543C9.86068 8.03874 10.127 7.90039 10.4866 7.90039C10.8506 7.90039 11.1176 8.04318 11.2878 8.32875C11.4579 8.61432 11.543 9.04415 11.543 9.61825ZM10.9748 10.6259C11.0178 10.5164 11.0481 10.378 11.0658 10.2108C11.0836 10.0436 11.0925 9.84612 11.0925 9.61825C11.0925 9.39187 11.0836 9.19508 11.0658 9.02788C11.0481 8.86068 11.017 8.72159 10.9726 8.61062C10.9282 8.49816 10.8668 8.41309 10.7884 8.35538C10.7115 8.29619 10.6109 8.2666 10.4866 8.2666C10.3638 8.2666 10.2624 8.29619 10.1825 8.35538C10.1041 8.41309 10.0419 8.49964 9.99606 8.61506C9.95167 8.72751 9.92134 8.86955 9.90507 9.04119C9.88879 9.21283 9.88065 9.40666 9.88065 9.62269C9.88065 9.85352 9.88731 10.0466 9.90063 10.2019C9.91542 10.3573 9.9465 10.4964 9.99384 10.6192C10.0368 10.7331 10.0974 10.8212 10.1758 10.8833C10.2557 10.944 10.3593 10.9743 10.4866 10.9743C10.6094 10.9743 10.71 10.9455 10.7884 10.8878C10.8683 10.8286 10.9305 10.7413 10.9748 10.6259Z" fill="#8C99B2"/>
<path d="M318.545 28.4545V28L14.454 28V28.4545L318.545 28.4545Z" fill="#D7E2F2"/>
<path d="M8.61117 28.3272C8.61117 28.1023 8.59046 27.9195 8.54903 27.779C8.5076 27.6369 8.45063 27.5274 8.37813 27.4505C8.31303 27.3795 8.24718 27.3306 8.1806 27.304C8.11401 27.2774 8.04077 27.264 7.96087 27.264C7.77888 27.264 7.63387 27.3292 7.52586 27.4594C7.41784 27.5896 7.36384 27.7782 7.36384 28.0253C7.36384 28.1644 7.38159 28.2791 7.4171 28.3693C7.45261 28.4596 7.51032 28.5373 7.59022 28.6024C7.64645 28.6483 7.71007 28.6793 7.78109 28.6956C7.85212 28.7104 7.92832 28.7178 8.0097 28.7178C8.1044 28.7178 8.20649 28.7015 8.31598 28.669C8.42548 28.6349 8.52092 28.5905 8.6023 28.5358C8.60377 28.5136 8.60525 28.4848 8.60673 28.4492C8.60969 28.4122 8.61117 28.3716 8.61117 28.3272ZM6.91329 28.0431C6.91329 27.8729 6.94066 27.7176 6.99541 27.577C7.05163 27.4364 7.12783 27.3151 7.22401 27.213C7.31575 27.1153 7.42746 27.0391 7.55915 26.9844C7.69232 26.9296 7.82696 26.9023 7.96309 26.9023C8.11549 26.9023 8.2531 26.9282 8.37591 26.98C8.5002 27.0303 8.60747 27.1035 8.69773 27.1997C8.81166 27.321 8.8997 27.4801 8.96185 27.6769C9.02547 27.8737 9.05728 28.1222 9.05728 28.4226C9.05728 28.6963 9.02621 28.956 8.96407 29.2016C8.9034 29.4458 8.81314 29.6485 8.69329 29.8098C8.56604 29.9814 8.4129 30.1124 8.23386 30.2026C8.05631 30.2929 7.83658 30.338 7.57469 30.338C7.5155 30.338 7.45261 30.3343 7.38603 30.3269C7.31945 30.321 7.2573 30.3091 7.1996 30.2914V29.8675H7.22179C7.25878 29.8882 7.31649 29.9082 7.39491 29.9274C7.47333 29.9466 7.55323 29.9563 7.63461 29.9563C7.92462 29.9563 8.15248 29.8608 8.3182 29.6699C8.48392 29.4791 8.57788 29.2061 8.60008 28.851C8.4817 28.9309 8.36851 28.9893 8.2605 29.0263C8.15396 29.0633 8.03781 29.0818 7.91204 29.0818C7.78923 29.0818 7.67752 29.0685 7.5769 29.0418C7.47629 29.0152 7.37493 28.9634 7.27284 28.8865C7.15447 28.7962 7.06495 28.6823 7.00428 28.5447C6.94362 28.4056 6.91329 28.2384 6.91329 28.0431ZM11.5431 28.6201C11.5431 29.2135 11.4565 29.6492 11.2834 29.9274C11.1118 30.2041 10.8462 30.3424 10.4866 30.3424C10.1226 30.3424 9.85555 30.2011 9.68539 29.9185C9.51523 29.6359 9.43015 29.2046 9.43015 28.6246C9.43015 28.0283 9.51597 27.5925 9.68761 27.3173C9.86073 27.0406 10.1271 26.9023 10.4866 26.9023C10.8506 26.9023 11.1177 27.0451 11.2878 27.3306C11.458 27.6162 11.5431 28.046 11.5431 28.6201ZM10.9749 29.6278C11.0178 29.5183 11.0481 29.3799 11.0659 29.2127C11.0837 29.0455 11.0925 28.848 11.0925 28.6201C11.0925 28.3938 11.0837 28.197 11.0659 28.0298C11.0481 27.8626 11.0171 27.7235 10.9727 27.6125C10.9283 27.5001 10.8669 27.415 10.7885 27.3573C10.7115 27.2981 10.6109 27.2685 10.4866 27.2685C10.3638 27.2685 10.2625 27.2981 10.1826 27.3573C10.1041 27.415 10.042 27.5015 9.99612 27.6169C9.95173 27.7294 9.92139 27.8714 9.90512 28.0431C9.88884 28.2147 9.8807 28.4085 9.8807 28.6246C9.8807 28.8554 9.88736 29.0485 9.90068 29.2039C9.91548 29.3592 9.94655 29.4983 9.9939 29.6211C10.0368 29.735 10.0975 29.8231 10.1759 29.8852C10.2558 29.9459 10.3594 29.9762 10.4866 29.9762C10.6094 29.9762 10.71 29.9474 10.7885 29.8897C10.8684 29.8305 10.9305 29.7432 10.9749 29.6278Z" fill="#8C99B2"/>
<path d="M318.545 47.4545V47L14.454 47V47.4545L318.545 47.4545Z" fill="#D7E2F2"/>
<path d="M8.56456 46.7382C8.56456 46.5902 8.515 46.4667 8.41586 46.3676C8.31672 46.2684 8.17912 46.2189 8.00304 46.2189C7.84176 46.2189 7.70933 46.2632 7.60576 46.352C7.50366 46.4408 7.45261 46.5607 7.45261 46.7116C7.45261 46.8211 7.47851 46.9135 7.5303 46.989C7.58356 47.0645 7.66272 47.1325 7.76778 47.1932C7.81365 47.2184 7.88319 47.2531 7.97641 47.2975C8.0711 47.3419 8.15692 47.3767 8.23386 47.4018C8.36259 47.3027 8.44989 47.2013 8.49576 47.0978C8.54163 46.9927 8.56456 46.8729 8.56456 46.7382ZM8.62671 48.3939C8.62671 48.2578 8.60008 48.1498 8.54681 48.0699C8.49354 47.99 8.39071 47.9086 8.2383 47.8257C8.188 47.7976 8.12067 47.7673 8.03633 47.7347C7.95347 47.7022 7.85952 47.6637 7.75446 47.6193C7.63165 47.7007 7.53769 47.8013 7.47259 47.9212C7.40749 48.0396 7.37493 48.1749 7.37493 48.3273C7.37493 48.5271 7.43486 48.6921 7.55471 48.8223C7.67604 48.9525 7.8277 49.0176 8.0097 49.0176C8.19613 49.0176 8.34558 48.9621 8.45803 48.8511C8.57048 48.7387 8.62671 48.5863 8.62671 48.3939ZM8.00526 49.3483C7.84102 49.3483 7.69158 49.3239 7.55693 49.2751C7.42228 49.2262 7.30761 49.1559 7.21291 49.0642C7.1197 48.9754 7.04867 48.8704 6.99984 48.749C6.9525 48.6262 6.92882 48.4968 6.92882 48.3606C6.92882 48.1816 6.97617 48.0174 7.07087 47.8679C7.16704 47.717 7.30613 47.5971 7.48813 47.5084V47.495C7.32537 47.4004 7.20478 47.2968 7.12635 47.1843C7.04793 47.0719 7.00872 46.9313 7.00872 46.7626C7.00872 46.514 7.10268 46.3069 7.29059 46.1412C7.47851 45.9755 7.71673 45.8926 8.00526 45.8926C8.30563 45.8926 8.54607 45.9718 8.72658 46.1301C8.90858 46.2869 8.99958 46.4882 8.99958 46.7338C8.99958 46.8817 8.95593 47.0282 8.86863 47.1732C8.78281 47.3182 8.65852 47.4314 8.49576 47.5128V47.5261C8.68811 47.6164 8.83386 47.7259 8.93299 47.8546C9.03213 47.9833 9.0817 48.149 9.0817 48.3518C9.0817 48.6344 8.97886 48.8711 8.77319 49.062C8.569 49.2529 8.31303 49.3483 8.00526 49.3483ZM11.5431 47.6193C11.5431 48.2127 11.4565 48.6484 11.2834 48.9266C11.1118 49.2033 10.8462 49.3416 10.4866 49.3416C10.1226 49.3416 9.85555 49.2003 9.68539 48.9177C9.51523 48.6351 9.43015 48.2038 9.43015 47.6238C9.43015 47.0275 9.51597 46.5917 9.68761 46.3165C9.86073 46.0398 10.1271 45.9015 10.4866 45.9015C10.8506 45.9015 11.1177 46.0443 11.2878 46.3298C11.458 46.6154 11.5431 47.0452 11.5431 47.6193ZM10.9749 48.627C11.0178 48.5175 11.0481 48.3791 11.0659 48.2119C11.0837 48.0447 11.0925 47.8472 11.0925 47.6193C11.0925 47.393 11.0837 47.1962 11.0659 47.029C11.0481 46.8618 11.0171 46.7227 10.9727 46.6117C10.9283 46.4993 10.8669 46.4142 10.7885 46.3565C10.7115 46.2973 10.6109 46.2677 10.4866 46.2677C10.3638 46.2677 10.2625 46.2973 10.1826 46.3565C10.1041 46.4142 10.042 46.5007 9.99612 46.6161C9.95173 46.7286 9.92139 46.8706 9.90512 47.0423C9.88884 47.2139 9.8807 47.4077 9.8807 47.6238C9.8807 47.8546 9.88736 48.0477 9.90068 48.2031C9.91548 48.3584 9.94655 48.4975 9.9939 48.6203C10.0368 48.7342 10.0975 48.8223 10.1759 48.8844C10.2558 48.9451 10.3594 48.9754 10.4866 48.9754C10.6094 48.9754 10.71 48.9466 10.7885 48.8889C10.8684 48.8297 10.9305 48.7424 10.9749 48.627Z" fill="#8C99B2"/>
<path d="M318.545 66.4545V66L14.454 66V66.4545L318.545 66.4545Z" fill="#D7E2F2"/>
<path d="M9.0817 65.4638L7.65237 68.2736H7.17962L8.69329 65.3573H6.98431V64.9689H9.0817V65.4638ZM11.5431 66.6201C11.5431 67.2135 11.4565 67.6492 11.2834 67.9274C11.1118 68.2041 10.8462 68.3424 10.4866 68.3424C10.1226 68.3424 9.85555 68.2011 9.68539 67.9185C9.51523 67.6359 9.43015 67.2046 9.43015 66.6246C9.43015 66.0283 9.51597 65.5925 9.68761 65.3173C9.86073 65.0406 10.1271 64.9023 10.4866 64.9023C10.8506 64.9023 11.1177 65.0451 11.2878 65.3306C11.458 65.6162 11.5431 66.046 11.5431 66.6201ZM10.9749 67.6278C11.0178 67.5183 11.0481 67.3799 11.0659 67.2127C11.0837 67.0455 11.0925 66.848 11.0925 66.6201C11.0925 66.3937 11.0837 66.197 11.0659 66.0298C11.0481 65.8626 11.0171 65.7235 10.9727 65.6125C10.9283 65.5 10.8669 65.415 10.7885 65.3573C10.7115 65.2981 10.6109 65.2685 10.4866 65.2685C10.3638 65.2685 10.2625 65.2981 10.1826 65.3573C10.1041 65.415 10.042 65.5015 9.99612 65.6169C9.95173 65.7294 9.92139 65.8714 9.90512 66.0431C9.88884 66.2147 9.8807 66.4085 9.8807 66.6246C9.8807 66.8554 9.88736 67.0485 9.90068 67.2038C9.91548 67.3592 9.94655 67.4983 9.9939 67.6211C10.0368 67.735 10.0975 67.8231 10.1759 67.8852C10.2558 67.9459 10.3594 67.9762 10.4866 67.9762C10.6094 67.9762 10.71 67.9474 10.7885 67.8897C10.8684 67.8305 10.9305 67.7432 10.9749 67.6278Z" fill="#8C99B2"/>
<path d="M318.545 85.4545V85L14.454 85V85.4545L318.545 85.4545Z" fill="#D7E2F2"/>
<path d="M9.09723 86.2016C9.09723 86.3718 9.06912 86.5286 9.0129 86.6722C8.95667 86.8157 8.88121 86.9355 8.78651 87.0317C8.68737 87.1338 8.5764 87.2115 8.45359 87.2648C8.33078 87.3165 8.19539 87.3424 8.04743 87.3424C7.89799 87.3424 7.76186 87.3173 7.63905 87.267C7.51772 87.2167 7.41045 87.1419 7.31723 87.0428C7.2033 86.923 7.11378 86.7632 7.04867 86.5634C6.98505 86.3622 6.95324 86.1151 6.95324 85.8221C6.95324 85.5351 6.98283 85.2761 7.04201 85.0453C7.1012 84.813 7.1922 84.611 7.31501 84.4394C7.43486 84.2722 7.58948 84.142 7.77888 84.0488C7.96827 83.9541 8.18726 83.9067 8.43584 83.9067C8.50982 83.9067 8.57862 83.9104 8.64225 83.9178C8.70587 83.9252 8.7621 83.937 8.81092 83.9533V84.3772H8.79095C8.751 84.355 8.69329 84.3351 8.61783 84.3173C8.54237 84.2981 8.46173 84.2885 8.37591 84.2885C8.1007 84.2885 7.87801 84.3817 7.70785 84.5681C7.53917 84.7531 7.4393 85.0283 7.40823 85.3937C7.51328 85.3198 7.62129 85.2628 7.73227 85.2228C7.84324 85.1829 7.96457 85.1629 8.09626 85.1629C8.22499 85.1629 8.33744 85.1762 8.43362 85.2029C8.53127 85.228 8.63263 85.2798 8.73768 85.3582C8.85901 85.45 8.94927 85.5661 9.00846 85.7067C9.06764 85.8473 9.09723 86.0122 9.09723 86.2016ZM8.64668 86.2194C8.64668 86.0833 8.62893 85.9693 8.59342 85.8776C8.55791 85.7858 8.5002 85.7074 8.4203 85.6423C8.36259 85.595 8.29675 85.5639 8.22277 85.5491C8.15027 85.5343 8.07554 85.5269 7.9986 85.5269C7.89503 85.5269 7.79441 85.5424 7.69676 85.5735C7.5991 85.6046 7.50292 85.6497 7.40823 85.7089C7.40527 85.7415 7.40305 85.7733 7.40157 85.8043C7.40009 85.8339 7.39935 85.8717 7.39935 85.9175C7.39935 86.1469 7.42154 86.3318 7.46593 86.4724C7.5118 86.613 7.56803 86.7195 7.63461 86.792C7.69824 86.8615 7.76334 86.9104 7.82992 86.9385C7.89799 86.9666 7.97123 86.9807 8.04965 86.9807C8.22721 86.9807 8.37073 86.917 8.48022 86.7898C8.5912 86.6625 8.64668 86.4724 8.64668 86.2194ZM11.5431 85.6201C11.5431 86.2135 11.4565 86.6492 11.2834 86.9274C11.1118 87.2041 10.8462 87.3424 10.4866 87.3424C10.1226 87.3424 9.85555 87.2011 9.68539 86.9185C9.51523 86.6359 9.43015 86.2046 9.43015 85.6246C9.43015 85.0283 9.51597 84.5925 9.68761 84.3173C9.86073 84.0406 10.1271 83.9023 10.4866 83.9023C10.8506 83.9023 11.1177 84.0451 11.2878 84.3306C11.458 84.6162 11.5431 85.046 11.5431 85.6201ZM10.9749 86.6278C11.0178 86.5183 11.0481 86.3799 11.0659 86.2127C11.0837 86.0455 11.0925 85.848 11.0925 85.6201C11.0925 85.3937 11.0837 85.197 11.0659 85.0298C11.0481 84.8626 11.0171 84.7235 10.9727 84.6125C10.9283 84.5 10.8669 84.415 10.7885 84.3573C10.7115 84.2981 10.6109 84.2685 10.4866 84.2685C10.3638 84.2685 10.2625 84.2981 10.1826 84.3573C10.1041 84.415 10.042 84.5015 9.99612 84.6169C9.95173 84.7294 9.92139 84.8714 9.90512 85.0431C9.88884 85.2147 9.8807 85.4085 9.8807 85.6246C9.8807 85.8554 9.88736 86.0485 9.90068 86.2038C9.91548 86.3592 9.94655 86.4983 9.9939 86.6211C10.0368 86.735 10.0975 86.8231 10.1759 86.8852C10.2558 86.9459 10.3594 86.9762 10.4866 86.9762C10.6094 86.9762 10.71 86.9474 10.7885 86.8897C10.8684 86.8305 10.9305 86.7432 10.9749 86.6278Z" fill="#8C99B2"/>
<path d="M318.545 104.455V104L14.454 104V104.455L318.545 104.455Z" fill="#D7E2F2"/>
<path d="M9.00846 105.22C9.00846 105.38 8.98256 105.527 8.93078 105.664C8.88047 105.8 8.80944 105.917 8.71771 106.016C8.62449 106.117 8.50834 106.196 8.36925 106.254C8.23165 106.312 8.07702 106.341 7.90538 106.341C7.74706 106.341 7.59096 106.323 7.43708 106.287C7.28468 106.253 7.15225 106.208 7.0398 106.152V105.684H7.07087C7.1049 105.709 7.15373 105.738 7.21735 105.77C7.28098 105.801 7.35126 105.831 7.4282 105.859C7.5155 105.89 7.5954 105.914 7.6679 105.932C7.7404 105.948 7.82179 105.957 7.91204 105.957C8.00082 105.957 8.08738 105.941 8.17172 105.91C8.25606 105.877 8.32856 105.826 8.38923 105.755C8.44397 105.689 8.4854 105.613 8.51352 105.526C8.54311 105.439 8.55791 105.336 8.55791 105.217C8.55791 105.101 8.54163 105.004 8.50908 104.929C8.47801 104.854 8.43214 104.791 8.37147 104.743C8.30785 104.686 8.22943 104.647 8.13621 104.625C8.04447 104.601 7.94164 104.589 7.8277 104.589C7.70785 104.589 7.58726 104.599 7.46593 104.618C7.3446 104.636 7.24768 104.653 7.17518 104.669V102.967H8.98848V103.355H7.60354V104.234C7.65681 104.228 7.70933 104.224 7.76112 104.221C7.81291 104.218 7.86026 104.217 7.90317 104.217C8.07184 104.217 8.21463 104.231 8.33152 104.259C8.44841 104.287 8.56087 104.342 8.66888 104.423C8.77837 104.506 8.86197 104.609 8.91968 104.734C8.97886 104.858 9.00846 105.02 9.00846 105.22ZM11.5431 104.618C11.5431 105.212 11.4565 105.647 11.2834 105.925C11.1118 106.202 10.8462 106.341 10.4866 106.341C10.1226 106.341 9.85555 106.199 9.68539 105.917C9.51523 105.634 9.43015 105.203 9.43015 104.623C9.43015 104.026 9.51597 103.591 9.68761 103.315C9.86073 103.039 10.1271 102.9 10.4866 102.9C10.8506 102.9 11.1177 103.043 11.2878 103.329C11.458 103.614 11.5431 104.044 11.5431 104.618ZM10.9749 105.626C11.0178 105.516 11.0481 105.378 11.0659 105.211C11.0837 105.044 11.0925 104.846 11.0925 104.618C11.0925 104.392 11.0837 104.195 11.0659 104.028C11.0481 103.861 11.0171 103.722 10.9727 103.611C10.9283 103.498 10.8669 103.413 10.7885 103.355C10.7115 103.296 10.6109 103.267 10.4866 103.267C10.3638 103.267 10.2625 103.296 10.1826 103.355C10.1041 103.413 10.042 103.5 9.99612 103.615C9.95173 103.727 9.92139 103.87 9.90512 104.041C9.88884 104.213 9.8807 104.407 9.8807 104.623C9.8807 104.854 9.88736 105.047 9.90068 105.202C9.91548 105.357 9.94655 105.496 9.9939 105.619C10.0368 105.733 10.0975 105.821 10.1759 105.883C10.2558 105.944 10.3594 105.974 10.4866 105.974C10.6094 105.974 10.71 105.945 10.7885 105.888C10.8684 105.829 10.9305 105.741 10.9749 105.626Z" fill="#8C99B2"/>
<path d="M14.4546 24L24.4546 45.1364L34.9091 72.1818L44.6818 56.0455L55.1364 50.8182L65.1364 56.0455L75.1364 53.5455L85.1364 60.3636L95.3637 43.5455L105.591 50.1364L115.818 41.7273L126.045 52.1818L136.045 53.3679L145.818 50.1364L156.273 54.6818L166.727 44.2273L176.273 53.3679L186.727 71.2727L196.955 46.2727L206.727 40.3636L216.955 46.2727L227.182 50.1364L237.636 44.2273" stroke="#8C99B2" stroke-width="0.454545"/>
<path opacity="0.5" d="M237.636 9H317.636C318.138 9 318.545 9.40701 318.545 9.90909V103.091C318.545 103.593 318.138 104 317.636 104H237.636V9Z" fill="white"/>
<path opacity="0.05" d="M240.632 44.3085C240.632 45.9821 239.235 47.3494 237.5 47.3494C235.764 47.3494 234.368 45.9821 234.368 44.3085C234.368 42.6349 235.764 41.2676 237.5 41.2676C239.235 41.2676 240.632 42.6349 240.632 44.3085Z" fill="#8C99B2" stroke="#8C99B2" stroke-width="0.454545"/>
<path opacity="0.2" d="M239.391 44.3084C239.391 45.3141 238.551 46.1403 237.5 46.1403C236.45 46.1403 235.609 45.3141 235.609 44.3084C235.609 43.3028 236.45 42.4766 237.5 42.4766C238.551 42.4766 239.391 43.3028 239.391 44.3084Z" fill="#8C99B2" stroke="#8C99B2" stroke-width="0.454545"/>
<path opacity="0.5" d="M237.5 45.4278C238.135 45.4278 238.65 44.9271 238.65 44.3096C238.65 43.692 238.135 43.1914 237.5 43.1914C236.865 43.1914 236.35 43.692 236.35 44.3096C236.35 44.9271 236.865 45.4278 237.5 45.4278Z" fill="#8C99B2" stroke="#8C99B2" stroke-width="0.454545" stroke-miterlimit="10"/>
<path d="M237.718 44.31C237.718 44.4305 237.62 44.5282 237.5 44.5282C237.379 44.5282 237.282 44.4305 237.282 44.31C237.282 44.1895 237.379 44.0918 237.5 44.0918C237.62 44.0918 237.718 44.1895 237.718 44.31Z" fill="#8C99B2" stroke="#8C99B2" stroke-width="0.454545"/>
</svg>
