<svg width="324" height="117" viewBox="0 0 324 117" fill="none" xmlns="http://www.w3.org/2000/svg">
<path d="M318.683 5.31763H5.31753V29.6825H318.683V5.31763Z" fill="#EBF1F9"/>
<path d="M200.878 20.8908H200.142V18.1781H197.593V20.8908H196.856V15.3501H197.593V17.5232H200.142V15.3501H200.878V20.8908ZM203.755 20.9875C203.092 20.9875 202.578 20.8015 202.211 20.4294C201.846 20.0548 201.664 19.5239 201.664 18.8367C201.664 18.1595 201.841 17.6212 202.196 17.2218C202.55 16.8199 203.014 16.619 203.587 16.619C203.845 16.619 204.074 16.6562 204.272 16.7306C204.47 16.805 204.644 16.9216 204.793 17.0804C204.942 17.2391 205.056 17.4339 205.135 17.6646C205.215 17.8928 205.254 18.1731 205.254 18.5055V18.8851H202.374C202.374 19.3688 202.496 19.7385 202.739 19.994C202.982 20.2495 203.318 20.3773 203.747 20.3773C203.901 20.3773 204.051 20.3599 204.198 20.3252C204.346 20.2904 204.48 20.2458 204.599 20.1912C204.726 20.1341 204.833 20.0796 204.919 20.0275C205.006 19.9729 205.078 19.922 205.135 19.8749H205.176V20.6377C205.094 20.67 204.993 20.7109 204.871 20.7605C204.75 20.8077 204.64 20.8449 204.544 20.8722C204.407 20.9094 204.283 20.9379 204.172 20.9577C204.062 20.9776 203.923 20.9875 203.755 20.9875ZM204.573 18.3493C204.568 18.1607 204.546 17.9982 204.506 17.8618C204.467 17.7254 204.41 17.61 204.335 17.5157C204.253 17.4115 204.148 17.3322 204.019 17.2776C203.892 17.223 203.735 17.1957 203.546 17.1957C203.36 17.1957 203.202 17.2243 203.07 17.2813C202.941 17.3359 202.823 17.4165 202.717 17.5232C202.612 17.6323 202.533 17.7539 202.478 17.8878C202.424 18.0193 202.389 18.1731 202.374 18.3493H204.573ZM209.307 20.8908H208.436L207.011 18.9744H206.661V20.8908H205.961V16.7343H206.661V18.5428C206.842 18.5403 206.996 18.5031 207.122 18.4311C207.251 18.3567 207.36 18.2141 207.45 18.0032C207.477 17.9412 207.507 17.8692 207.539 17.7874C207.574 17.7055 207.601 17.6336 207.621 17.5716C207.73 17.2664 207.881 17.0506 208.075 16.9241C208.268 16.7976 208.52 16.7343 208.83 16.7343H209.02V17.3371H208.86C208.664 17.3371 208.517 17.3781 208.417 17.4599C208.321 17.5393 208.239 17.6857 208.172 17.899C208.102 18.1148 208.02 18.2835 207.926 18.4051C207.832 18.5242 207.728 18.6159 207.614 18.6804L209.307 20.8908ZM213.244 18.7028C213.244 19.3949 213.077 19.9469 212.745 20.3587C212.415 20.768 211.997 20.9726 211.491 20.9726C211.285 20.9726 211.103 20.9491 210.944 20.9019C210.785 20.8548 210.623 20.7816 210.456 20.6824V22.4239H209.757V16.7343H210.456V17.1697C210.63 17.0134 210.822 16.8832 211.033 16.779C211.247 16.6723 211.479 16.619 211.729 16.619C212.205 16.619 212.576 16.8075 212.842 17.1846C213.11 17.5616 213.244 18.0677 213.244 18.7028ZM212.522 18.7809C212.522 18.3071 212.446 17.9399 212.295 17.6795C212.143 17.4165 211.898 17.285 211.558 17.285C211.359 17.285 211.167 17.3297 210.981 17.419C210.798 17.5058 210.623 17.6187 210.456 17.7576V20.1131C210.64 20.2024 210.796 20.2631 210.925 20.2954C211.057 20.3276 211.207 20.3438 211.376 20.3438C211.738 20.3438 212.019 20.211 212.22 19.9456C212.421 19.6802 212.522 19.2919 212.522 18.7809ZM217.251 20.8908H216.559V17.7911L214.602 20.8908H213.969V16.7343H214.661V19.7856L216.596 16.7343H217.251V20.8908ZM221.3 17.3483H219.886V20.8908H219.186V17.3483H217.772V16.7343H221.3V17.3483ZM225.103 20.8908H224.411V17.7911L222.453 20.8908H221.821V16.7343H222.513V19.7856L224.448 16.7343H225.103V20.8908ZM229.241 20.8908H228.541V19.2684C228.323 19.3403 228.111 19.3961 227.905 19.4358C227.699 19.4755 227.495 19.4954 227.294 19.4954C227.118 19.4954 226.946 19.473 226.777 19.4284C226.611 19.3812 226.467 19.3056 226.346 19.2014C226.224 19.0972 226.13 18.9645 226.063 18.8032C225.998 18.6395 225.966 18.4473 225.966 18.2265V16.7343H226.666V17.8618C226.666 18.0454 226.673 18.1917 226.688 18.3009C226.703 18.4076 226.744 18.5118 226.811 18.6135C226.868 18.7003 226.953 18.7673 227.067 18.8144C227.184 18.8615 227.337 18.8851 227.525 18.8851C227.689 18.8851 227.864 18.869 228.05 18.8367C228.238 18.8045 228.402 18.766 228.541 18.7214V16.7343H229.241V20.8908ZM233.535 20.8908H232.835V19.0191H230.952V20.8908H230.253V16.7343H230.952V18.4162H232.835V16.7343H233.535V20.8908ZM237.632 19.6033C237.632 19.8042 237.591 19.9865 237.509 20.1503C237.429 20.314 237.32 20.4467 237.181 20.5484C237.018 20.6725 236.843 20.7605 236.657 20.8126C236.471 20.8647 236.231 20.8908 235.938 20.8908H234.547V16.7343H235.246V18.353H235.957C236.27 18.353 236.512 18.3691 236.683 18.4014C236.856 18.4336 237.029 18.513 237.2 18.6395C237.344 18.7462 237.452 18.8826 237.524 19.0488C237.596 19.215 237.632 19.3999 237.632 19.6033ZM236.91 19.6144C236.91 19.4879 236.887 19.3775 236.843 19.2833C236.801 19.1865 236.73 19.1084 236.631 19.0488C236.526 18.9868 236.407 18.9496 236.273 18.9372C236.142 18.9248 235.952 18.9186 235.704 18.9186H235.246V20.3326H235.689C235.937 20.3326 236.129 20.3227 236.266 20.3028C236.402 20.2805 236.52 20.2396 236.619 20.18C236.721 20.1155 236.794 20.0399 236.839 19.9531C236.886 19.8637 236.91 19.7509 236.91 19.6144ZM238.815 20.8908H238.115V16.7343H238.815V20.8908ZM241.635 20.9875C240.973 20.9875 240.458 20.8015 240.091 20.4294C239.727 20.0548 239.544 19.5239 239.544 18.8367C239.544 18.1595 239.722 17.6212 240.076 17.2218C240.431 16.8199 240.895 16.619 241.468 16.619C241.726 16.619 241.954 16.6562 242.153 16.7306C242.351 16.805 242.525 16.9216 242.674 17.0804C242.822 17.2391 242.937 17.4339 243.016 17.6646C243.095 17.8928 243.135 18.1731 243.135 18.5055V18.8851H240.255C240.255 19.3688 240.376 19.7385 240.62 19.994C240.863 20.2495 241.199 20.3773 241.628 20.3773C241.782 20.3773 241.932 20.3599 242.078 20.3252C242.227 20.2904 242.361 20.2458 242.48 20.1912C242.607 20.1341 242.713 20.0796 242.8 20.0275C242.887 19.9729 242.959 19.922 243.016 19.8749H243.057V20.6377C242.975 20.67 242.873 20.7109 242.752 20.7605C242.63 20.8077 242.521 20.8449 242.424 20.8722C242.288 20.9094 242.164 20.9379 242.052 20.9577C241.943 20.9776 241.804 20.9875 241.635 20.9875ZM242.454 18.3493C242.449 18.1607 242.427 17.9982 242.387 17.8618C242.347 17.7254 242.29 17.61 242.216 17.5157C242.134 17.4115 242.029 17.3322 241.9 17.2776C241.773 17.223 241.616 17.1957 241.427 17.1957C241.241 17.1957 241.082 17.2243 240.951 17.2813C240.822 17.3359 240.704 17.4165 240.597 17.5232C240.493 17.6323 240.414 17.7539 240.359 17.8878C240.305 18.0193 240.27 18.1731 240.255 18.3493H242.454Z" fill="#8C99B2"/>
<path d="M250.133 20.8909H246.981V20.231H248.153V15.8984H246.981V15.308C247.424 15.308 247.75 15.2458 247.958 15.1213C248.169 14.994 248.288 14.7552 248.314 14.405H248.987V20.231H250.133V20.8909Z" fill="#F7931E"/>
<path d="M131.601 16.0959C131.811 16.3391 131.975 16.6405 132.092 17.0002C132.208 17.3599 132.267 17.7704 132.267 18.2319C132.267 18.6809 132.21 19.0865 132.095 19.4486C131.981 19.8108 131.816 20.1147 131.601 20.3603C131.375 20.6183 131.111 20.8093 130.808 20.9334C130.508 21.0549 130.177 21.1157 129.814 21.1157C129.44 21.1157 129.102 21.0524 128.802 20.9259C128.502 20.7994 128.244 20.6109 128.028 20.3603C127.815 20.1147 127.651 19.8121 127.537 19.4524C127.423 19.0927 127.366 18.6858 127.366 18.2319C127.366 17.7655 127.423 17.3562 127.537 17.0039C127.654 16.6516 127.819 16.349 128.032 16.0959C128.245 15.8504 128.502 15.6643 128.802 15.5378C129.105 15.4088 129.442 15.3443 129.814 15.3443C130.191 15.3443 130.531 15.41 130.834 15.5415C131.137 15.673 131.392 15.8578 131.601 16.0959ZM131.5 18.2319C131.5 17.8647 131.46 17.5397 131.381 17.2569C131.302 16.9741 131.19 16.7397 131.046 16.5536C130.9 16.3626 130.722 16.22 130.514 16.1257C130.308 16.029 130.076 15.9806 129.818 15.9806C129.55 15.9806 129.316 16.0277 129.115 16.122C128.916 16.2138 128.74 16.3577 128.586 16.5536C128.44 16.7422 128.327 16.9791 128.248 17.2644C128.171 17.5497 128.132 17.8721 128.132 18.2319C128.132 18.9587 128.285 19.5156 128.59 19.9026C128.895 20.2871 129.305 20.4794 129.818 20.4794C130.332 20.4794 130.74 20.2871 131.042 19.9026C131.347 19.5156 131.5 18.9587 131.5 18.2319ZM136.058 17.4579H134.644V21.0003H133.945V17.4579H132.531V16.8439H136.058V17.4579ZM139.925 21.0003H139.054L137.629 19.084H137.279V21.0003H136.579V16.8439H137.279V18.6523C137.46 18.6499 137.614 18.6126 137.74 18.5407C137.869 18.4663 137.978 18.3236 138.068 18.1128C138.095 18.0508 138.125 17.9788 138.157 17.897C138.192 17.8151 138.219 17.7431 138.239 17.6811C138.348 17.376 138.499 17.1602 138.693 17.0337C138.886 16.9071 139.138 16.8439 139.448 16.8439H139.638V17.4467H139.478C139.282 17.4467 139.134 17.4876 139.035 17.5695C138.939 17.6489 138.857 17.7952 138.79 18.0086C138.72 18.2244 138.638 18.3931 138.544 18.5147C138.45 18.6337 138.346 18.7255 138.231 18.79L139.925 21.0003ZM143.594 21.0003H142.894V17.4318H141.465C141.458 17.6377 141.45 17.8362 141.443 18.0272C141.435 18.2157 141.428 18.3869 141.42 18.5407C141.406 18.9302 141.38 19.2564 141.342 19.5193C141.308 19.7823 141.263 19.9932 141.208 20.1519C141.154 20.3157 141.093 20.4434 141.026 20.5352C140.962 20.627 140.888 20.7101 140.806 20.7845C140.722 20.8589 140.632 20.9148 140.535 20.952C140.438 20.9892 140.329 21.0078 140.207 21.0078C140.168 21.0078 140.117 21.0065 140.055 21.0041C139.993 21.0016 139.949 21.0003 139.925 21.0003V20.3901H139.962C139.979 20.3901 139.997 20.3913 140.014 20.3938C140.034 20.3963 140.056 20.3975 140.081 20.3975C140.14 20.3975 140.199 20.3888 140.256 20.3715C140.313 20.3541 140.364 20.3219 140.408 20.2747C140.532 20.1532 140.623 19.9411 140.68 19.6384C140.737 19.3333 140.778 18.9079 140.803 18.3621C140.813 18.1587 140.821 17.918 140.829 17.6402C140.839 17.3624 140.847 17.0969 140.855 16.8439H143.594V21.0003ZM148.029 18.924C148.029 19.6235 147.86 20.1643 147.523 20.5464C147.186 20.9259 146.737 21.1157 146.176 21.1157C145.598 21.1157 145.143 20.9197 144.81 20.5278C144.48 20.1333 144.315 19.5987 144.315 18.924C144.315 18.2294 144.485 17.6898 144.825 17.3053C145.168 16.9208 145.618 16.7285 146.176 16.7285C146.737 16.7285 147.186 16.9208 147.523 17.3053C147.86 17.6873 148.029 18.2269 148.029 18.924ZM147.307 18.924C147.307 18.3857 147.209 17.9863 147.013 17.7258C146.817 17.4628 146.538 17.3313 146.176 17.3313C145.811 17.3313 145.53 17.4628 145.331 17.7258C145.135 17.9863 145.037 18.3857 145.037 18.924C145.037 19.4449 145.135 19.8406 145.331 20.111C145.53 20.3789 145.811 20.5129 146.176 20.5129C146.536 20.5129 146.814 20.3814 147.01 20.1184C147.208 19.853 147.307 19.4549 147.307 18.924ZM152.029 21.0003H151.33V19.1286H149.447V21.0003H148.747V16.8439H149.447V18.5258H151.33V16.8439H152.029V21.0003ZM154.846 21.0971C154.184 21.0971 153.669 20.911 153.302 20.5389C152.937 20.1643 152.755 19.6335 152.755 18.9463C152.755 18.2691 152.932 17.7307 153.287 17.3313C153.642 16.9295 154.106 16.7285 154.679 16.7285C154.937 16.7285 155.165 16.7657 155.363 16.8402C155.562 16.9146 155.736 17.0312 155.884 17.1899C156.033 17.3487 156.147 17.5435 156.227 17.7742C156.306 18.0024 156.346 18.2827 156.346 18.6151V18.9947H153.466C153.466 19.4784 153.587 19.848 153.83 20.1036C154.073 20.3591 154.41 20.4868 154.839 20.4868C154.993 20.4868 155.143 20.4695 155.289 20.4347C155.438 20.4 155.572 20.3554 155.691 20.3008C155.817 20.2437 155.924 20.1891 156.011 20.1371C156.098 20.0825 156.17 20.0316 156.227 19.9845H156.268V20.7473C156.186 20.7796 156.084 20.8205 155.962 20.8701C155.841 20.9172 155.732 20.9545 155.635 20.9817C155.499 21.0189 155.375 21.0475 155.263 21.0673C155.154 21.0872 155.015 21.0971 154.846 21.0971ZM155.665 18.4588C155.66 18.2703 155.638 18.1078 155.598 17.9714C155.558 17.8349 155.501 17.7196 155.427 17.6253C155.345 17.5211 155.239 17.4417 155.11 17.3872C154.984 17.3326 154.826 17.3053 154.638 17.3053C154.452 17.3053 154.293 17.3338 154.161 17.3909C154.032 17.4455 153.915 17.5261 153.808 17.6328C153.704 17.7419 153.624 17.8635 153.57 17.9974C153.515 18.1289 153.481 18.2827 153.466 18.4588H155.665ZM160.335 21.0003H159.635V19.1286H157.752V21.0003H157.053V16.8439H157.752V18.5258H159.635V16.8439H160.335V21.0003ZM164.629 21.0003H163.937V17.9007L161.98 21.0003H161.347V16.8439H162.039V19.8952L163.974 16.8439H164.629V21.0003ZM168.923 21.0003H168.231V17.9007L166.274 21.0003H165.641V16.8439H166.333V19.8952L168.268 16.8439H168.923V21.0003ZM168.61 14.9126C168.61 15.126 168.584 15.3207 168.532 15.4968C168.48 15.6705 168.406 15.8169 168.309 15.9359C168.197 16.0674 168.071 16.1666 167.93 16.2336C167.788 16.2981 167.607 16.3304 167.386 16.3304C167.183 16.3304 167.004 16.2969 166.85 16.2299C166.699 16.1604 166.571 16.0625 166.467 15.9359C166.365 15.8119 166.289 15.6631 166.236 15.4894C166.184 15.3158 166.158 15.1235 166.158 14.9126H166.761C166.761 15.2475 166.813 15.4894 166.917 15.6383C167.022 15.7846 167.178 15.8578 167.386 15.8578C167.582 15.8578 167.735 15.7859 167.844 15.642C167.953 15.4956 168.008 15.2525 168.008 14.9126H168.61Z" fill="#8C99B2"/>
<path d="M177.133 21.0001H173.981V20.3402H175.153V16.0076H173.981V15.4172C174.424 15.4172 174.75 15.355 174.958 15.2305C175.169 15.1032 175.288 14.8644 175.314 14.5142H175.987V20.3402H177.133V21.0001Z" fill="#303549"/>
<path d="M265.69 20.9999H264.752L262.795 18.4621H262.33V20.9999H261.593V15.4592H262.33V17.956C262.62 17.9461 262.849 17.8729 263.018 17.7365C263.189 17.6001 263.328 17.4041 263.435 17.1486C263.479 17.0369 263.519 16.9315 263.554 16.8323C263.591 16.7306 263.621 16.645 263.643 16.5755C263.792 16.1513 263.982 15.8598 264.213 15.7011C264.443 15.5398 264.763 15.4592 265.173 15.4592H265.4V16.1178H265.214C264.911 16.1178 264.699 16.1774 264.577 16.2964C264.456 16.413 264.344 16.6351 264.242 16.9625C264.141 17.29 264.026 17.5306 263.9 17.6844C263.773 17.8357 263.621 17.9697 263.442 18.0863L265.69 20.9999ZM269.616 18.8119C269.616 19.504 269.449 20.056 269.117 20.4678C268.787 20.8771 268.369 21.0818 267.863 21.0818C267.657 21.0818 267.475 21.0582 267.316 21.0111C267.157 20.9639 266.995 20.8907 266.828 20.7915V22.533H266.129V16.8434H266.828V17.2788C267.002 17.1225 267.194 16.9923 267.405 16.8881C267.619 16.7814 267.851 16.7281 268.101 16.7281C268.577 16.7281 268.948 16.9166 269.214 17.2937C269.482 17.6708 269.616 18.1768 269.616 18.8119ZM268.894 18.89C268.894 18.4162 268.818 18.0491 268.667 17.7886C268.515 17.5256 268.27 17.3942 267.93 17.3942C267.731 17.3942 267.539 17.4388 267.353 17.5281C267.17 17.6149 266.995 17.7278 266.828 17.8667V20.2222C267.012 20.3115 267.168 20.3723 267.297 20.4045C267.429 20.4368 267.579 20.4529 267.748 20.4529C268.11 20.4529 268.391 20.3202 268.592 20.0547C268.793 19.7893 268.894 19.4011 268.894 18.89ZM273.623 20.9999H272.931V17.9002L270.974 20.9999H270.341V16.8434H271.033V19.8947L272.968 16.8434H273.623V20.9999ZM277.672 17.4574H276.258V20.9999H275.558V17.4574H274.144V16.8434H277.672V17.4574ZM281.475 20.9999H280.783V17.9002L278.825 20.9999H278.193V16.8434H278.885V19.8947L280.82 16.8434H281.475V20.9999ZM285.613 20.9999H284.913V19.3775C284.695 19.4494 284.483 19.5053 284.277 19.545C284.071 19.5846 283.867 19.6045 283.666 19.6045C283.49 19.6045 283.318 19.5822 283.149 19.5375C282.983 19.4904 282.839 19.4147 282.718 19.3105C282.596 19.2063 282.502 19.0736 282.435 18.9124C282.37 18.7486 282.338 18.5564 282.338 18.3356V16.8434H283.038V17.9709C283.038 18.1545 283.045 18.3009 283.06 18.41C283.075 18.5167 283.116 18.6209 283.183 18.7226C283.24 18.8094 283.325 18.8764 283.439 18.9235C283.556 18.9707 283.709 18.9942 283.897 18.9942C284.061 18.9942 284.236 18.9781 284.422 18.9459C284.61 18.9136 284.774 18.8752 284.913 18.8305V16.8434H285.613V20.9999ZM289.907 20.9999H289.207V19.1282H287.324V20.9999H286.625V16.8434H287.324V18.5254H289.207V16.8434H289.907V20.9999ZM294.004 19.7124C294.004 19.9133 293.963 20.0957 293.881 20.2594C293.801 20.4231 293.692 20.5558 293.553 20.6576C293.39 20.7816 293.215 20.8697 293.029 20.9218C292.843 20.9739 292.603 20.9999 292.311 20.9999H290.919V16.8434H291.618V18.4621H292.329C292.642 18.4621 292.884 18.4782 293.055 18.5105C293.228 18.5427 293.401 18.6221 293.572 18.7486C293.716 18.8553 293.824 18.9918 293.896 19.158C293.968 19.3242 294.004 19.509 294.004 19.7124ZM293.282 19.7236C293.282 19.597 293.259 19.4867 293.215 19.3924C293.173 19.2956 293.102 19.2175 293.003 19.158C292.898 19.0959 292.779 19.0587 292.645 19.0463C292.514 19.0339 292.324 19.0277 292.076 19.0277H291.618V20.4417H292.061C292.309 20.4417 292.502 20.4318 292.638 20.412C292.774 20.3896 292.892 20.3487 292.991 20.2892C293.093 20.2247 293.166 20.149 293.211 20.0622C293.258 19.9729 293.282 19.86 293.282 19.7236ZM295.187 20.9999H294.487V16.8434H295.187V20.9999ZM298.007 21.0966C297.345 21.0966 296.83 20.9106 296.463 20.5385C296.099 20.1639 295.916 19.633 295.916 18.9459C295.916 18.2686 296.094 17.7303 296.448 17.3309C296.803 16.929 297.267 16.7281 297.84 16.7281C298.098 16.7281 298.326 16.7653 298.525 16.8397C298.723 16.9141 298.897 17.0307 299.046 17.1895C299.195 17.3483 299.309 17.543 299.388 17.7737C299.467 18.0019 299.507 18.2823 299.507 18.6147V18.9942H296.627C296.627 19.478 296.749 19.8476 296.992 20.1031C297.235 20.3586 297.571 20.4864 298 20.4864C298.154 20.4864 298.304 20.469 298.45 20.4343C298.599 20.3996 298.733 20.3549 298.852 20.3003C298.979 20.2433 299.085 20.1887 299.172 20.1366C299.259 20.082 299.331 20.0312 299.388 19.984H299.429V20.7469C299.347 20.7791 299.245 20.82 299.124 20.8697C299.002 20.9168 298.893 20.954 298.796 20.9813C298.66 21.0185 298.536 21.047 298.424 21.0669C298.315 21.0867 298.176 21.0966 298.007 21.0966ZM298.826 18.4584C298.821 18.2699 298.799 18.1074 298.759 17.9709C298.719 17.8345 298.662 17.7191 298.588 17.6249C298.506 17.5207 298.401 17.4413 298.272 17.3867C298.145 17.3321 297.988 17.3049 297.799 17.3049C297.613 17.3049 297.454 17.3334 297.323 17.3904C297.194 17.445 297.076 17.5256 296.969 17.6323C296.865 17.7415 296.786 17.863 296.731 17.997C296.677 18.1285 296.642 18.2823 296.627 18.4584H298.826Z" fill="#8C99B2"/>
<path d="M308.232 18.4007C308.232 19.5612 308.063 20.4136 307.724 20.9577C307.389 21.4989 306.869 21.7695 306.166 21.7695C305.454 21.7695 304.931 21.4931 304.599 20.9403C304.266 20.3875 304.099 19.5439 304.099 18.4093C304.099 17.243 304.267 16.3907 304.603 15.8523C304.942 15.3111 305.462 15.0405 306.166 15.0405C306.878 15.0405 307.4 15.3198 307.733 15.8784C308.066 16.437 308.232 17.2777 308.232 18.4007ZM307.121 20.3716C307.205 20.1574 307.264 19.8868 307.299 19.5598C307.334 19.2327 307.351 18.8464 307.351 18.4007C307.351 17.9579 307.334 17.5729 307.299 17.2459C307.264 16.9188 307.203 16.6468 307.117 16.4297C307.03 16.2098 306.91 16.0433 306.756 15.9305C306.606 15.8147 306.409 15.7568 306.166 15.7568C305.926 15.7568 305.727 15.8147 305.571 15.9305C305.418 16.0433 305.296 16.2127 305.206 16.4384C305.12 16.6584 305.06 16.9362 305.028 17.2719C304.997 17.6077 304.981 17.9868 304.981 18.4093C304.981 18.8608 304.994 19.2385 305.02 19.5424C305.049 19.8463 305.109 20.1184 305.202 20.3586C305.286 20.5814 305.405 20.7536 305.558 20.8752C305.714 20.9938 305.917 21.0532 306.166 21.0532C306.406 21.0532 306.603 20.9967 306.756 20.8839C306.912 20.7681 307.034 20.5973 307.121 20.3716Z" fill="#8C99B2"/>
<path d="M318.683 5.31763H5.31753V29.6825H318.683V5.31763Z" stroke="#0089FF" stroke-width="0.635066"/>
<path d="M35.0466 22.2559H34.0828L31.2262 16.6817V22.2559H30.4231V15.7917H31.643L34.2434 20.9101V15.7917H35.0466V22.2559ZM39.8393 22.2559H36.6876V21.596H37.8597V17.2634H36.6876V16.673C37.1304 16.673 37.456 16.6108 37.6644 16.4863C37.8756 16.359 37.9943 16.1202 38.0203 15.77H38.6932V21.596H39.8393V22.2559ZM43.3992 19.8204H40.9507V19.0346H43.3992V19.8204ZM49.1383 22.2559H48.2788V16.5558H45.305V22.2559H44.4454V15.7917H49.1383V22.2559ZM55.1467 22.2559H54.2871V16.5558H51.3133V22.2559H50.4537V15.7917H55.1467V22.2559ZM61.155 22.2559H60.2954V16.5558H57.3216V22.2559H56.4621V15.7917H61.155V22.2559ZM67.1633 22.2559H66.3037V19.0911H63.33V22.2559H62.4704V15.7917H63.33V18.327H66.3037V15.7917H67.1633V22.2559ZM72.8808 20.2545C72.8808 20.5671 72.82 20.8507 72.6984 21.1054C72.5769 21.3601 72.4134 21.567 72.2079 21.7262C71.9648 21.9172 71.7043 22.0533 71.4264 22.1343C71.1486 22.2153 70.7897 22.2559 70.3498 22.2559H68.4787V15.7917H72.4162V16.5558H69.3383V18.327H70.3759C70.8158 18.327 71.1746 18.3531 71.4525 18.4051C71.7303 18.4544 71.9923 18.5745 72.2383 18.7655C72.4582 18.9362 72.6203 19.1475 72.7245 19.3993C72.8287 19.6511 72.8808 19.9362 72.8808 20.2545ZM71.9821 20.2719C71.9821 20.0548 71.9459 19.8638 71.8736 19.6988C71.8041 19.5339 71.6927 19.4007 71.5393 19.2995C71.3801 19.1924 71.1964 19.1272 70.988 19.1041C70.7796 19.0809 70.4858 19.0694 70.1067 19.0694H69.3383V21.5222H70.085C70.4699 21.5222 70.7651 21.5034 70.9706 21.4657C71.179 21.4281 71.3613 21.3558 71.5176 21.2487C71.6797 21.1358 71.7969 21.0041 71.8692 20.8536C71.9445 20.7002 71.9821 20.5063 71.9821 20.2719ZM78.5027 22.2559H77.4087L75.1252 19.2951H74.5825V22.2559H73.723V15.7917H74.5825V18.7047C74.9212 18.6931 75.1889 18.6077 75.3857 18.4486C75.5854 18.2894 75.7475 18.0607 75.8719 17.7626C75.924 17.6324 75.9703 17.5094 76.0108 17.3936C76.0542 17.275 76.089 17.1751 76.115 17.0941C76.2887 16.5992 76.5101 16.2591 76.7792 16.0739C77.0484 15.8858 77.4217 15.7917 77.8993 15.7917H78.1641V16.5601H77.947C77.5939 16.5601 77.3465 16.6296 77.2047 16.7685C77.0629 16.9045 76.9326 17.1635 76.814 17.5456C76.6953 17.9276 76.5622 18.2083 76.4146 18.3878C76.267 18.5643 76.089 18.7206 75.8806 18.8566L78.5027 22.2559Z" fill="#606580"/>
<path d="M17.6825 100V30" stroke="#0089FF" stroke-width="0.635066" stroke-dasharray="0.64 0.64"/>
<path d="M25.7393 48.8125H17.7013" stroke="#0089FF" stroke-width="0.635066" stroke-dasharray="0.64 0.64"/>
<path d="M26.6892 36.1152H25.7393V60.8747H26.6892V36.1152Z" fill="#C4D3E9"/>
<path d="M170 36.1152H26.5854V60.8747H170V36.1152Z" fill="#EBF1F9"/>
<path d="M33.3109 52.5432L35.4902 46.079H36.5495L38.7288 52.5432H37.8214L37.2354 50.7372H34.7652L34.1791 52.5432H33.3109ZM36.9966 50.0035L35.9981 46.956L35.004 50.0035H36.9966ZM43.7256 50.5592C43.7256 50.8805 43.6648 51.1641 43.5432 51.4101C43.4217 51.6561 43.2582 51.8587 43.0527 52.0179C42.8096 52.2089 42.5491 52.3449 42.2713 52.426C41.9934 52.5041 41.6345 52.5432 41.1946 52.5432H39.3409V46.079H41.0557C41.5159 46.079 41.8603 46.095 42.0889 46.1268C42.3205 46.1557 42.5419 46.2266 42.7531 46.3395C42.9847 46.464 43.154 46.6275 43.2611 46.8301C43.3681 47.0298 43.4217 47.2656 43.4217 47.5377C43.4217 47.8416 43.3407 48.1136 43.1786 48.3539C43.0194 48.5941 42.798 48.7822 42.5144 48.9182V48.953C42.8993 49.0571 43.1974 49.2482 43.4087 49.526C43.6199 49.801 43.7256 50.1454 43.7256 50.5592ZM42.5274 47.6593C42.5274 47.503 42.5013 47.3684 42.4492 47.2555C42.3972 47.1398 42.3132 47.0486 42.1975 46.982C42.0585 46.9039 41.9037 46.8561 41.7329 46.8388C41.5622 46.8214 41.3263 46.8127 41.0253 46.8127H40.2005V48.7055H41.1773C41.4464 48.7055 41.6447 48.6925 41.772 48.6664C41.8994 48.6375 42.031 48.5796 42.1671 48.4928C42.2973 48.4089 42.3899 48.2989 42.4449 48.1628C42.4999 48.0268 42.5274 47.859 42.5274 47.6593ZM42.8313 50.594C42.8313 50.3508 42.7965 50.1511 42.7271 49.9949C42.6576 49.8357 42.5173 49.7011 42.306 49.5911C42.17 49.5188 42.0209 49.4725 41.8588 49.4522C41.6997 49.4319 41.4725 49.4218 41.1773 49.4218H40.2005V51.8095H40.8994C41.2757 51.8095 41.5723 51.7922 41.7894 51.7574C42.0064 51.7227 42.1975 51.6489 42.3624 51.536C42.5245 51.4231 42.6432 51.2958 42.7184 51.154C42.7937 51.0093 42.8313 50.8226 42.8313 50.594ZM46.0959 52.5432V46.8431H43.9253V46.079H49.1261V46.8431H46.9555V52.5432H46.0959ZM51.961 50.1077H49.5125V49.322H51.961V50.1077ZM56.9144 50.4464C56.9144 50.7792 56.8594 51.086 56.7494 51.3667C56.6394 51.6474 56.4918 51.8819 56.3066 52.07C56.1127 52.2697 55.8956 52.4216 55.6554 52.5258C55.4152 52.6271 55.1504 52.6778 54.8609 52.6778C54.5686 52.6778 54.3024 52.6286 54.0622 52.5302C53.8248 52.4318 53.615 52.2856 53.4327 52.0917C53.2098 51.8573 53.0347 51.5447 52.9074 51.154C52.7829 50.7604 52.7207 50.277 52.7207 49.704C52.7207 49.1425 52.7786 48.636 52.8944 48.1846C53.0101 47.7302 53.1881 47.3351 53.4283 46.9994C53.6628 46.6723 53.9652 46.4177 54.3357 46.2353C54.7061 46.0501 55.1344 45.9575 55.6207 45.9575C55.7654 45.9575 55.9 45.9647 56.0244 45.9792C56.1489 45.9937 56.2588 46.0168 56.3543 46.0486V46.8778H56.3153C56.2371 46.8344 56.1243 46.7953 55.9767 46.7606C55.8291 46.723 55.6713 46.7042 55.5035 46.7042C54.9651 46.7042 54.5296 46.8865 54.1967 47.2512C53.8668 47.613 53.6714 48.1513 53.6107 48.8661C53.8161 48.7214 54.0274 48.61 54.2445 48.5319C54.4616 48.4537 54.6989 48.4146 54.9565 48.4146C55.2083 48.4146 55.4282 48.4407 55.6163 48.4928C55.8073 48.542 56.0056 48.6433 56.2111 48.7967C56.4484 48.9761 56.625 49.2033 56.7407 49.4783C56.8565 49.7532 56.9144 50.0759 56.9144 50.4464ZM56.0331 50.4811C56.0331 50.2148 55.9984 49.992 55.9289 49.8125C55.8594 49.6331 55.7466 49.4797 55.5903 49.3524C55.4774 49.2597 55.3486 49.199 55.2039 49.17C55.0621 49.1411 54.9159 49.1266 54.7654 49.1266C54.5628 49.1266 54.366 49.157 54.175 49.2178C53.984 49.2786 53.7959 49.3668 53.6107 49.4826C53.6049 49.5463 53.6005 49.6085 53.5976 49.6693C53.5947 49.7272 53.5933 49.801 53.5933 49.8907C53.5933 50.3393 53.6367 50.701 53.7235 50.976C53.8133 51.2509 53.9232 51.4593 54.0535 51.6011C54.1779 51.7372 54.3053 51.8327 54.4355 51.8877C54.5686 51.9426 54.7119 51.9701 54.8653 51.9701C55.2126 51.9701 55.4933 51.8457 55.7075 51.5968C55.9246 51.3479 56.0331 50.976 56.0331 50.4811Z" fill="#606580"/>
<path d="M25.7393 74.8105H17.7013" stroke="#0089FF" stroke-width="0.635066" stroke-dasharray="0.64 0.64"/>
<path d="M26.6892 62.1133H25.7393V86.8728H26.6892V62.1133Z" fill="#C4D3E9"/>
<path d="M170 62.1128H26.5854V86.8723H170V62.1128Z" fill="#EBF1F9"/>
<path d="M33.3109 78.5405L35.4902 72.0764H36.5495L38.7288 78.5405H37.8214L37.2354 76.7346H34.7652L34.1791 78.5405H33.3109ZM36.9966 76.0009L35.9981 72.9533L35.004 76.0009H36.9966ZM43.7256 76.5566C43.7256 76.8778 43.6648 77.1615 43.5432 77.4075C43.4217 77.6535 43.2582 77.8561 43.0527 78.0153C42.8096 78.2063 42.5491 78.3423 42.2713 78.4233C41.9934 78.5015 41.6345 78.5405 41.1946 78.5405H39.3409V72.0764H41.0557C41.5159 72.0764 41.8603 72.0923 42.0889 72.1241C42.3205 72.1531 42.5419 72.224 42.7531 72.3369C42.9847 72.4613 43.154 72.6248 43.2611 72.8274C43.3681 73.0271 43.4217 73.263 43.4217 73.5351C43.4217 73.839 43.3407 74.111 43.1786 74.3512C43.0194 74.5914 42.798 74.7796 42.5144 74.9156V74.9503C42.8993 75.0545 43.1974 75.2455 43.4087 75.5234C43.6199 75.7983 43.7256 76.1427 43.7256 76.5566ZM42.5274 73.6566C42.5274 73.5003 42.5013 73.3658 42.4492 73.2529C42.3972 73.1371 42.3132 73.0459 42.1975 72.9794C42.0585 72.9012 41.9037 72.8535 41.7329 72.8361C41.5622 72.8188 41.3263 72.8101 41.0253 72.8101H40.2005V74.7029H41.1773C41.4464 74.7029 41.6447 74.6898 41.772 74.6638C41.8994 74.6349 42.031 74.577 42.1671 74.4901C42.2973 74.4062 42.3899 74.2962 42.4449 74.1602C42.4999 74.0242 42.5274 73.8563 42.5274 73.6566ZM42.8313 76.5913C42.8313 76.3482 42.7965 76.1485 42.7271 75.9922C42.6576 75.833 42.5173 75.6985 42.306 75.5885C42.17 75.5161 42.0209 75.4698 41.8588 75.4496C41.6997 75.4293 41.4725 75.4192 41.1773 75.4192H40.2005V77.8069H40.8994C41.2757 77.8069 41.5723 77.7895 41.7894 77.7548C42.0064 77.72 42.1975 77.6462 42.3624 77.5334C42.5245 77.4205 42.6432 77.2932 42.7184 77.1513C42.7937 77.0066 42.8313 76.82 42.8313 76.5913ZM46.0959 78.5405V72.8405H43.9253V72.0764H49.1261V72.8405H46.9555V78.5405H46.0959ZM51.961 76.1051H49.5125V75.3193H51.961V76.1051ZM56.884 73.0445L54.0882 78.5405H53.1635L56.1243 72.8361H52.7815V72.0764H56.884V73.0445Z" fill="#606580"/>
<path d="M25.7393 100.808H17.7013" stroke="#0089FF" stroke-width="0.635066" stroke-dasharray="0.64 0.64"/>
<path d="M26.6892 88.1104H25.7393V112.87H26.6892V88.1104Z" fill="#C4D3E9"/>
<path d="M170 88.1104H26.5854V112.87H170V88.1104Z" fill="#EBF1F9"/>
<path d="M33.3109 104.538L35.4902 98.0742H36.5495L38.7288 104.538H37.8214L37.2354 102.732H34.7652L34.1791 104.538H33.3109ZM36.9966 101.999L35.9981 98.9511L35.004 101.999H36.9966ZM43.7256 102.554C43.7256 102.876 43.6648 103.159 43.5432 103.405C43.4217 103.651 43.2582 103.854 43.0527 104.013C42.8096 104.204 42.5491 104.34 42.2713 104.421C41.9934 104.499 41.6345 104.538 41.1946 104.538H39.3409V98.0742H41.0557C41.5159 98.0742 41.8603 98.0901 42.0889 98.1219C42.3205 98.1508 42.5419 98.2218 42.7531 98.3346C42.9847 98.4591 43.154 98.6226 43.2611 98.8252C43.3681 99.0249 43.4217 99.2608 43.4217 99.5328C43.4217 99.8367 43.3407 100.109 43.1786 100.349C43.0194 100.589 42.798 100.777 42.5144 100.913V100.948C42.8993 101.052 43.1974 101.243 43.4087 101.521C43.6199 101.796 43.7256 102.14 43.7256 102.554ZM42.5274 99.6544C42.5274 99.4981 42.5013 99.3635 42.4492 99.2506C42.3972 99.1349 42.3132 99.0437 42.1975 98.9771C42.0585 98.899 41.9037 98.8512 41.7329 98.8339C41.5622 98.8165 41.3263 98.8078 41.0253 98.8078H40.2005V100.701H41.1773C41.4464 100.701 41.6447 100.687 41.772 100.661C41.8994 100.633 42.031 100.575 42.1671 100.488C42.2973 100.404 42.3899 100.294 42.4449 100.158C42.4999 100.022 42.5274 99.8541 42.5274 99.6544ZM42.8313 102.589C42.8313 102.346 42.7965 102.146 42.7271 101.99C42.6576 101.831 42.5173 101.696 42.306 101.586C42.17 101.514 42.0209 101.467 41.8588 101.447C41.6997 101.427 41.4725 101.417 41.1773 101.417H40.2005V103.805H40.8994C41.2757 103.805 41.5723 103.787 41.7894 103.752C42.0064 103.718 42.1975 103.644 42.3624 103.531C42.5245 103.418 42.6432 103.291 42.7184 103.149C42.7937 103.004 42.8313 102.818 42.8313 102.589ZM46.0959 104.538V98.8382H43.9253V98.0742H49.1261V98.8382H46.9555V104.538H46.0959ZM51.961 102.103H49.5125V101.317H51.961V102.103ZM55.8725 99.5806C55.8725 99.2912 55.7755 99.0495 55.5816 98.8556C55.3877 98.6617 55.1185 98.5647 54.7741 98.5647C54.4587 98.5647 54.1996 98.6515 53.997 98.8252C53.7973 98.9988 53.6975 99.2333 53.6975 99.5285C53.6975 99.7426 53.7481 99.9235 53.8494 100.071C53.9536 100.219 54.1085 100.352 54.3139 100.47C54.4037 100.52 54.5397 100.588 54.722 100.674C54.9073 100.761 55.0751 100.829 55.2256 100.879C55.4774 100.685 55.6482 100.486 55.7379 100.284C55.8276 100.078 55.8725 99.8439 55.8725 99.5806ZM55.994 102.819C55.994 102.553 55.9419 102.342 55.8377 102.185C55.7335 102.029 55.5324 101.87 55.2343 101.708C55.1359 101.653 55.0042 101.593 54.8392 101.53C54.6772 101.466 54.4934 101.391 54.2879 101.304C54.0477 101.463 53.8639 101.66 53.7366 101.894C53.6092 102.126 53.5455 102.391 53.5455 102.689C53.5455 103.08 53.6628 103.402 53.8972 103.657C54.1345 103.912 54.4312 104.039 54.7871 104.039C55.1518 104.039 55.4441 103.93 55.6641 103.713C55.884 103.493 55.994 103.195 55.994 102.819ZM54.7785 104.686C54.4572 104.686 54.1649 104.638 53.9015 104.543C53.6382 104.447 53.4139 104.31 53.2286 104.13C53.0463 103.956 52.9074 103.751 52.8119 103.514C52.7193 103.273 52.6729 103.02 52.6729 102.754C52.6729 102.404 52.7656 102.082 52.9508 101.79C53.1389 101.495 53.411 101.261 53.7669 101.087V101.061C53.4486 100.876 53.2127 100.673 53.0593 100.453C52.9059 100.233 52.8292 99.9583 52.8292 99.6283C52.8292 99.1421 53.013 98.7369 53.3806 98.4128C53.7481 98.0886 54.2141 97.9265 54.7785 97.9265C55.366 97.9265 55.8363 98.0814 56.1894 98.3911C56.5454 98.6978 56.7234 99.0915 56.7234 99.5719C56.7234 99.8613 56.638 100.148 56.4672 100.431C56.2994 100.715 56.0562 100.936 55.7379 101.096V101.122C56.1141 101.298 56.3992 101.512 56.5931 101.764C56.787 102.016 56.884 102.34 56.884 102.737C56.884 103.289 56.6828 103.752 56.2805 104.126C55.8811 104.499 55.3805 104.686 54.7785 104.686Z" fill="#606580"/>
<path d="M215 62H168V87H215V62Z" fill="#EBF1F9"/>
<path d="M183.126 78.2845H179.137V77.3772C179.423 77.1051 179.694 76.8447 179.949 76.5958C180.203 76.3469 180.452 76.0878 180.695 75.8187C181.187 75.2775 181.523 74.8448 181.702 74.5206C181.882 74.1936 181.972 73.8564 181.972 73.5091C181.972 73.3297 181.943 73.172 181.885 73.0359C181.83 72.8999 181.753 72.787 181.655 72.6973C181.553 72.6105 181.436 72.5454 181.303 72.5019C181.17 72.4585 181.024 72.4368 180.865 72.4368C180.711 72.4368 180.555 72.4571 180.396 72.4976C180.239 72.5352 180.089 72.583 179.944 72.6409C179.823 72.6901 179.705 72.7494 179.593 72.8189C179.48 72.8883 179.389 72.9477 179.319 72.9969H179.271V72.0765C179.451 71.9868 179.7 71.9 180.018 71.816C180.339 71.7292 180.643 71.6858 180.93 71.6858C181.532 71.6858 182.003 71.8464 182.345 72.1677C182.686 72.486 182.857 72.9187 182.857 73.4657C182.857 73.7175 182.827 73.9505 182.766 74.1647C182.708 74.3788 182.627 74.5771 182.523 74.7594C182.416 74.9475 182.287 75.1342 182.137 75.3194C181.986 75.5047 181.827 75.687 181.659 75.8664C181.387 76.1616 181.083 76.4684 180.747 76.7868C180.415 77.1051 180.148 77.3569 179.949 77.5422H183.126V78.2845ZM190.758 78.2845H186.769V77.3772C187.055 77.1051 187.326 76.8447 187.581 76.5958C187.835 76.3469 188.084 76.0878 188.327 75.8187C188.819 75.2775 189.155 74.8448 189.334 74.5206C189.514 74.1936 189.604 73.8564 189.604 73.5091C189.604 73.3297 189.575 73.172 189.517 73.0359C189.462 72.8999 189.385 72.787 189.287 72.6973C189.185 72.6105 189.068 72.5454 188.935 72.5019C188.802 72.4585 188.656 72.4368 188.497 72.4368C188.343 72.4368 188.187 72.4571 188.028 72.4976C187.871 72.5352 187.721 72.583 187.576 72.6409C187.455 72.6901 187.337 72.7494 187.225 72.8189C187.112 72.8883 187.021 72.9477 186.951 72.9969H186.903V72.0765C187.083 71.9868 187.332 71.9 187.65 71.816C187.971 71.7292 188.275 71.6858 188.562 71.6858C189.164 71.6858 189.635 71.8464 189.977 72.1677C190.318 72.486 190.489 72.9187 190.489 73.4657C190.489 73.7175 190.459 73.9505 190.398 74.1647C190.34 74.3788 190.259 74.5771 190.155 74.7594C190.048 74.9475 189.919 75.1342 189.769 75.3194C189.618 75.5047 189.459 75.687 189.291 75.8664C189.019 76.1616 188.715 76.4684 188.379 76.7868C188.047 77.1051 187.78 77.3569 187.581 77.5422H190.758V78.2845ZM195.681 72.7885L192.886 78.2845H191.961L194.922 72.5801H191.579V71.8204H195.681V72.7885ZM200.535 72.7885L197.739 78.2845H196.814L199.775 72.5801H196.432V71.8204H200.535V72.7885ZM202.067 78.2845H201.03V77.0473H202.067V78.2845ZM207.212 72.7885L204.416 78.2845H203.491L206.452 72.5801H203.109V71.8204H207.212V72.7885Z" fill="#606580"/>
<path d="M215 36H168V61H215V36Z" fill="#EBF1F9"/>
<path d="M183.126 52.2845H179.137V51.3772C179.423 51.1051 179.694 50.8447 179.949 50.5958C180.203 50.3469 180.452 50.0878 180.695 49.8187C181.187 49.2775 181.523 48.8448 181.702 48.5206C181.882 48.1936 181.972 47.8564 181.972 47.5091C181.972 47.3297 181.943 47.172 181.885 47.0359C181.83 46.8999 181.753 46.787 181.655 46.6973C181.553 46.6105 181.436 46.5454 181.303 46.5019C181.17 46.4585 181.024 46.4368 180.865 46.4368C180.711 46.4368 180.555 46.4571 180.396 46.4976C180.239 46.5352 180.089 46.583 179.944 46.6409C179.823 46.6901 179.705 46.7494 179.593 46.8189C179.48 46.8883 179.389 46.9477 179.319 46.9969H179.271V46.0765C179.451 45.9868 179.7 45.9 180.018 45.816C180.339 45.7292 180.643 45.6858 180.93 45.6858C181.532 45.6858 182.003 45.8464 182.345 46.1677C182.686 46.486 182.857 46.9187 182.857 47.4657C182.857 47.7175 182.827 47.9505 182.766 48.1647C182.708 48.3788 182.627 48.5771 182.523 48.7594C182.416 48.9475 182.287 49.1342 182.137 49.3194C181.986 49.5047 181.827 49.687 181.659 49.8664C181.387 50.1616 181.083 50.4684 180.747 50.7868C180.415 51.1051 180.148 51.3569 179.949 51.5422H183.126V52.2845ZM190.758 52.2845H186.769V51.3772C187.055 51.1051 187.326 50.8447 187.581 50.5958C187.835 50.3469 188.084 50.0878 188.327 49.8187C188.819 49.2775 189.155 48.8448 189.334 48.5206C189.514 48.1936 189.604 47.8564 189.604 47.5091C189.604 47.3297 189.575 47.172 189.517 47.0359C189.462 46.8999 189.385 46.787 189.287 46.6973C189.185 46.6105 189.068 46.5454 188.935 46.5019C188.802 46.4585 188.656 46.4368 188.497 46.4368C188.343 46.4368 188.187 46.4571 188.028 46.4976C187.871 46.5352 187.721 46.583 187.576 46.6409C187.455 46.6901 187.337 46.7494 187.225 46.8189C187.112 46.8883 187.021 46.9477 186.951 46.9969H186.903V46.0765C187.083 45.9868 187.332 45.9 187.65 45.816C187.971 45.7292 188.275 45.6858 188.562 45.6858C189.164 45.6858 189.635 45.8464 189.977 46.1677C190.318 46.486 190.489 46.9187 190.489 47.4657C190.489 47.7175 190.459 47.9505 190.398 48.1647C190.34 48.3788 190.259 48.5771 190.155 48.7594C190.048 48.9475 189.919 49.1342 189.769 49.3194C189.618 49.5047 189.459 49.687 189.291 49.8664C189.019 50.1616 188.715 50.4684 188.379 50.7868C188.047 51.1051 187.78 51.3569 187.581 51.5422H190.758V52.2845ZM195.681 46.7885L192.886 52.2845H191.961L194.922 46.5801H191.579V45.8204H195.681V46.7885ZM200.535 46.7885L197.739 52.2845H196.814L199.775 46.5801H196.432V45.8204H200.535V46.7885ZM202.067 52.2845H201.03V51.0473H202.067V52.2845ZM207.212 46.7885L204.416 52.2845H203.491L206.452 46.5801H203.109V45.8204H207.212V46.7885Z" fill="#606580"/>
<path d="M215 88H168V113H215V88Z" fill="#EBF1F9"/>
<path d="M182.796 104.284H179.645V103.625H180.817V99.2919H179.645V98.7014C180.088 98.7014 180.413 98.6392 180.621 98.5148C180.833 98.3874 180.951 98.1487 180.977 97.7985H181.65V103.625H182.796V104.284ZM187.038 99.3266C187.038 99.0372 186.941 98.7955 186.747 98.6016C186.553 98.4077 186.284 98.3107 185.94 98.3107C185.624 98.3107 185.365 98.3976 185.162 98.5712C184.963 98.7449 184.863 98.9793 184.863 99.2745C184.863 99.4887 184.914 99.6696 185.015 99.8172C185.119 99.9648 185.274 100.098 185.479 100.217C185.569 100.266 185.705 100.334 185.887 100.421C186.073 100.508 186.241 100.576 186.391 100.625C186.643 100.431 186.814 100.233 186.903 100.03C186.993 99.8244 187.038 99.59 187.038 99.3266ZM187.159 102.565C187.159 102.299 187.107 102.088 187.003 101.931C186.899 101.775 186.698 101.616 186.4 101.454C186.301 101.399 186.17 101.34 186.005 101.276C185.843 101.212 185.659 101.137 185.453 101.05C185.213 101.209 185.029 101.406 184.902 101.641C184.775 101.872 184.711 102.137 184.711 102.435C184.711 102.826 184.828 103.148 185.063 103.403C185.3 103.658 185.597 103.785 185.953 103.785C186.317 103.785 186.61 103.677 186.83 103.46C187.049 103.24 187.159 102.942 187.159 102.565ZM185.944 104.432C185.623 104.432 185.33 104.384 185.067 104.289C184.804 104.193 184.579 104.056 184.394 103.876C184.212 103.703 184.073 103.497 183.977 103.26C183.885 103.02 183.838 102.766 183.838 102.5C183.838 102.15 183.931 101.829 184.116 101.536C184.304 101.241 184.576 101.007 184.932 100.833V100.807C184.614 100.622 184.378 100.419 184.225 100.199C184.071 99.9792 183.995 99.7043 183.995 99.3743C183.995 98.8881 184.178 98.4829 184.546 98.1588C184.914 97.8346 185.38 97.6726 185.944 97.6726C186.531 97.6726 187.002 97.8274 187.355 98.1371C187.711 98.4439 187.889 98.8375 187.889 99.3179C187.889 99.6073 187.803 99.8938 187.633 100.178C187.465 100.461 187.222 100.683 186.903 100.842V100.868C187.28 101.044 187.565 101.259 187.759 101.51C187.952 101.762 188.049 102.086 188.049 102.483C188.049 103.036 187.848 103.499 187.446 103.872C187.047 104.245 186.546 104.432 185.944 104.432ZM190.233 104.284H189.196V103.047H190.233V104.284ZM195.195 104.284H192.043V103.625H193.216V99.2919H192.043V98.7014C192.486 98.7014 192.812 98.6392 193.02 98.5148C193.231 98.3874 193.35 98.1487 193.376 97.7985H194.049V103.625H195.195V104.284Z" fill="#606580"/>
<path d="M267 62H215V87H267V62Z" fill="#EBF1F9"/>
<path d="M232.126 78.2845H228.137V77.3772C228.423 77.1051 228.694 76.8447 228.949 76.5958C229.203 76.3469 229.452 76.0878 229.695 75.8187C230.187 75.2775 230.523 74.8448 230.703 74.5206C230.882 74.1936 230.972 73.8564 230.972 73.5091C230.972 73.3297 230.943 73.172 230.885 73.0359C230.83 72.8999 230.753 72.787 230.655 72.6973C230.553 72.6105 230.436 72.5454 230.303 72.5019C230.17 72.4585 230.024 72.4368 229.865 72.4368C229.711 72.4368 229.555 72.4571 229.396 72.4976C229.24 72.5352 229.089 72.583 228.944 72.6409C228.823 72.6901 228.706 72.7494 228.593 72.8189C228.48 72.8883 228.389 72.9477 228.319 72.9969H228.271V72.0765C228.451 71.9868 228.7 71.9 229.018 71.816C229.339 71.7292 229.643 71.6858 229.93 71.6858C230.532 71.6858 231.004 71.8464 231.345 72.1677C231.687 72.486 231.857 72.9187 231.857 73.4657C231.857 73.7175 231.827 73.9505 231.766 74.1647C231.708 74.3788 231.627 74.5771 231.523 74.7594C231.416 74.9475 231.287 75.1342 231.137 75.3194C230.986 75.5047 230.827 75.687 230.659 75.8664C230.387 76.1616 230.083 76.4684 229.747 76.7868C229.415 77.1051 229.148 77.3569 228.949 77.5422H232.126V78.2845ZM239.758 78.2845H235.769V77.3772C236.055 77.1051 236.326 76.8447 236.581 76.5958C236.835 76.3469 237.084 76.0878 237.327 75.8187C237.819 75.2775 238.155 74.8448 238.334 74.5206C238.514 74.1936 238.604 73.8564 238.604 73.5091C238.604 73.3297 238.575 73.172 238.517 73.0359C238.462 72.8999 238.385 72.787 238.287 72.6973C238.185 72.6105 238.068 72.5454 237.935 72.5019C237.802 72.4585 237.656 72.4368 237.497 72.4368C237.343 72.4368 237.187 72.4571 237.028 72.4976C236.871 72.5352 236.721 72.583 236.576 72.6409C236.455 72.6901 236.337 72.7494 236.225 72.8189C236.112 72.8883 236.021 72.9477 235.951 72.9969H235.903V72.0765C236.083 71.9868 236.332 71.9 236.65 71.816C236.971 71.7292 237.275 71.6858 237.562 71.6858C238.164 71.6858 238.635 71.8464 238.977 72.1677C239.319 72.486 239.489 72.9187 239.489 73.4657C239.489 73.7175 239.459 73.9505 239.398 74.1647C239.34 74.3788 239.259 74.5771 239.155 74.7594C239.048 74.9475 238.919 75.1342 238.769 75.3194C238.618 75.5047 238.459 75.687 238.291 75.8664C238.019 76.1616 237.715 76.4684 237.379 76.7868C237.047 77.1051 236.78 77.3569 236.581 77.5422H239.758V78.2845ZM244.681 72.7885L241.886 78.2845H240.961L243.922 72.5801H240.579V71.8204H244.681V72.7885ZM249.535 72.7885L246.739 78.2845H245.814L248.775 72.5801H245.432V71.8204H249.535V72.7885ZM251.067 78.2845H250.03V77.0473H251.067V78.2845ZM256.212 72.7885L253.416 78.2845H252.491L255.452 72.5801H252.109V71.8204H256.212V72.7885Z" fill="#606580"/>
<path d="M267 36H215V61H267V36Z" fill="#EBF1F9"/>
<path d="M232.126 52.2845H228.137V51.3772C228.423 51.1051 228.694 50.8447 228.949 50.5958C229.203 50.3469 229.452 50.0878 229.695 49.8187C230.187 49.2775 230.523 48.8448 230.703 48.5206C230.882 48.1936 230.972 47.8564 230.972 47.5091C230.972 47.3297 230.943 47.172 230.885 47.0359C230.83 46.8999 230.753 46.787 230.655 46.6973C230.553 46.6105 230.436 46.5454 230.303 46.5019C230.17 46.4585 230.024 46.4368 229.865 46.4368C229.711 46.4368 229.555 46.4571 229.396 46.4976C229.24 46.5352 229.089 46.583 228.944 46.6409C228.823 46.6901 228.706 46.7494 228.593 46.8189C228.48 46.8883 228.389 46.9477 228.319 46.9969H228.271V46.0765C228.451 45.9868 228.7 45.9 229.018 45.816C229.339 45.7292 229.643 45.6858 229.93 45.6858C230.532 45.6858 231.004 45.8464 231.345 46.1677C231.687 46.486 231.857 46.9187 231.857 47.4657C231.857 47.7175 231.827 47.9505 231.766 48.1647C231.708 48.3788 231.627 48.5771 231.523 48.7594C231.416 48.9475 231.287 49.1342 231.137 49.3194C230.986 49.5047 230.827 49.687 230.659 49.8664C230.387 50.1616 230.083 50.4684 229.747 50.7868C229.415 51.1051 229.148 51.3569 228.949 51.5422H232.126V52.2845ZM239.758 52.2845H235.769V51.3772C236.055 51.1051 236.326 50.8447 236.581 50.5958C236.835 50.3469 237.084 50.0878 237.327 49.8187C237.819 49.2775 238.155 48.8448 238.334 48.5206C238.514 48.1936 238.604 47.8564 238.604 47.5091C238.604 47.3297 238.575 47.172 238.517 47.0359C238.462 46.8999 238.385 46.787 238.287 46.6973C238.185 46.6105 238.068 46.5454 237.935 46.5019C237.802 46.4585 237.656 46.4368 237.497 46.4368C237.343 46.4368 237.187 46.4571 237.028 46.4976C236.871 46.5352 236.721 46.583 236.576 46.6409C236.455 46.6901 236.337 46.7494 236.225 46.8189C236.112 46.8883 236.021 46.9477 235.951 46.9969H235.903V46.0765C236.083 45.9868 236.332 45.9 236.65 45.816C236.971 45.7292 237.275 45.6858 237.562 45.6858C238.164 45.6858 238.635 45.8464 238.977 46.1677C239.319 46.486 239.489 46.9187 239.489 47.4657C239.489 47.7175 239.459 47.9505 239.398 48.1647C239.34 48.3788 239.259 48.5771 239.155 48.7594C239.048 48.9475 238.919 49.1342 238.769 49.3194C238.618 49.5047 238.459 49.687 238.291 49.8664C238.019 50.1616 237.715 50.4684 237.379 50.7868C237.047 51.1051 236.78 51.3569 236.581 51.5422H239.758V52.2845ZM244.681 46.7885L241.886 52.2845H240.961L243.922 46.5801H240.579V45.8204H244.681V46.7885ZM249.535 46.7885L246.739 52.2845H245.814L248.775 46.5801H245.432V45.8204H249.535V46.7885ZM251.067 52.2845H250.03V51.0473H251.067V52.2845ZM256.212 46.7885L253.416 52.2845H252.491L255.452 46.5801H252.109V45.8204H256.212V46.7885Z" fill="#606580"/>
<path d="M267 88H215V113H267V88Z" fill="#EBF1F9"/>
<path d="M231.797 104.284H228.645V103.625H229.817V99.2919H228.645V98.7014C229.088 98.7014 229.413 98.6392 229.622 98.5148C229.833 98.3874 229.951 98.1487 229.978 97.7985H230.65V103.625H231.797V104.284ZM236.038 99.3266C236.038 99.0372 235.941 98.7955 235.747 98.6016C235.553 98.4077 235.284 98.3107 234.94 98.3107C234.624 98.3107 234.365 98.3976 234.163 98.5712C233.963 98.7449 233.863 98.9793 233.863 99.2745C233.863 99.4887 233.914 99.6696 234.015 99.8172C234.119 99.9648 234.274 100.098 234.479 100.217C234.569 100.266 234.705 100.334 234.888 100.421C235.073 100.508 235.241 100.576 235.391 100.625C235.643 100.431 235.814 100.233 235.903 100.03C235.993 99.8244 236.038 99.59 236.038 99.3266ZM236.16 102.565C236.16 102.299 236.107 102.088 236.003 101.931C235.899 101.775 235.698 101.616 235.4 101.454C235.301 101.399 235.17 101.34 235.005 101.276C234.843 101.212 234.659 101.137 234.453 101.05C234.213 101.209 234.029 101.406 233.902 101.641C233.775 101.872 233.711 102.137 233.711 102.435C233.711 102.826 233.828 103.148 234.063 103.403C234.3 103.658 234.597 103.785 234.953 103.785C235.317 103.785 235.61 103.677 235.83 103.46C236.05 103.24 236.16 102.942 236.16 102.565ZM234.944 104.432C234.623 104.432 234.33 104.384 234.067 104.289C233.804 104.193 233.579 104.056 233.394 103.876C233.212 103.703 233.073 103.497 232.977 103.26C232.885 103.02 232.838 102.766 232.838 102.5C232.838 102.15 232.931 101.829 233.116 101.536C233.304 101.241 233.576 101.007 233.932 100.833V100.807C233.614 100.622 233.378 100.419 233.225 100.199C233.071 99.9792 232.995 99.7043 232.995 99.3743C232.995 98.8881 233.178 98.4829 233.546 98.1588C233.914 97.8346 234.38 97.6726 234.944 97.6726C235.531 97.6726 236.002 97.8274 236.355 98.1371C236.711 98.4439 236.889 98.8375 236.889 99.3179C236.889 99.6073 236.803 99.8938 236.633 100.178C236.465 100.461 236.222 100.683 235.903 100.842V100.868C236.28 101.044 236.565 101.259 236.759 101.51C236.953 101.762 237.049 102.086 237.049 102.483C237.049 103.036 236.848 103.499 236.446 103.872C236.047 104.245 235.546 104.432 234.944 104.432ZM239.233 104.284H238.196V103.047H239.233V104.284ZM244.195 104.284H241.043V103.625H242.216V99.2919H241.043V98.7014C241.486 98.7014 241.812 98.6392 242.02 98.5148C242.232 98.3874 242.35 98.1487 242.376 97.7985H243.049V103.625H244.195V104.284Z" fill="#606580"/>
<path d="M319 62H267V87H319V62Z" fill="#EBF1F9"/>
<path d="M283.276 74.477C283.276 74.0371 283.235 73.6797 283.154 73.4047C283.073 73.1269 282.962 72.9127 282.82 72.7622C282.692 72.6233 282.564 72.5278 282.433 72.4757C282.303 72.4236 282.16 72.3976 282.004 72.3976C281.648 72.3976 281.364 72.5249 281.153 72.7796C280.941 73.0343 280.836 73.4033 280.836 73.8866C280.836 74.1587 280.871 74.383 280.94 74.5595C281.009 74.7361 281.122 74.888 281.279 75.0153C281.389 75.1051 281.513 75.1658 281.652 75.1977C281.791 75.2266 281.94 75.2411 282.099 75.2411C282.284 75.2411 282.484 75.2093 282.698 75.1456C282.912 75.079 283.099 74.9922 283.258 74.8851C283.261 74.8417 283.264 74.7853 283.267 74.7158C283.273 74.6434 283.276 74.5639 283.276 74.477ZM279.955 73.9213C279.955 73.5885 280.008 73.2846 280.115 73.0097C280.225 72.7347 280.374 72.4974 280.562 72.2977C280.742 72.1067 280.96 71.9576 281.218 71.8506C281.478 71.7435 281.742 71.6899 282.008 71.6899C282.306 71.6899 282.575 71.7406 282.815 71.8419C283.059 71.9403 283.268 72.0835 283.445 72.2717C283.668 72.509 283.84 72.8201 283.961 73.205C284.086 73.59 284.148 74.0762 284.148 74.6637C284.148 75.1991 284.087 75.7071 283.966 76.1875C283.847 76.665 283.671 77.0615 283.436 77.377C283.187 77.7127 282.888 77.9689 282.538 78.1454C282.19 78.3219 281.76 78.4102 281.248 78.4102C281.132 78.4102 281.009 78.403 280.879 78.3885C280.749 78.3769 280.627 78.3538 280.515 78.3191V77.4899H280.558C280.63 77.5304 280.743 77.5695 280.897 77.6071C281.05 77.6447 281.206 77.6635 281.365 77.6635C281.933 77.6635 282.378 77.4768 282.703 77.1035C283.027 76.7301 283.21 76.1962 283.254 75.5016C283.022 75.6579 282.801 75.7722 282.59 75.8445C282.381 75.9169 282.154 75.9531 281.908 75.9531C281.668 75.9531 281.449 75.927 281.253 75.8749C281.056 75.8228 280.857 75.7215 280.658 75.571C280.426 75.3945 280.251 75.1716 280.132 74.9025C280.014 74.6304 279.955 74.3034 279.955 73.9213ZM289.149 76.0616H288.381V78.2843H287.547V76.0616H284.691V75.1499L287.582 71.8202H288.381V75.367H289.149V76.0616ZM287.547 75.367V72.8404L285.368 75.367H287.547ZM291.146 78.2843H290.109V77.0471H291.146V78.2843ZM296.608 76.0616H295.839V78.2843H295.006V76.0616H292.149V75.1499L295.04 71.8202H295.839V75.367H296.608V76.0616ZM295.006 75.367V72.8404L292.826 75.367H295.006Z" fill="#606580"/>
<path d="M319 36H267V61H319V36Z" fill="#EBF1F9"/>
<path d="M283.276 48.477C283.276 48.0371 283.235 47.6797 283.154 47.4047C283.073 47.1269 282.962 46.9127 282.82 46.7622C282.692 46.6233 282.564 46.5278 282.433 46.4757C282.303 46.4236 282.16 46.3976 282.004 46.3976C281.648 46.3976 281.364 46.5249 281.153 46.7796C280.941 47.0343 280.836 47.4033 280.836 47.8866C280.836 48.1587 280.871 48.383 280.94 48.5595C281.009 48.7361 281.122 48.888 281.279 49.0153C281.389 49.1051 281.513 49.1658 281.652 49.1977C281.791 49.2266 281.94 49.2411 282.099 49.2411C282.284 49.2411 282.484 49.2093 282.698 49.1456C282.912 49.079 283.099 48.9922 283.258 48.8851C283.261 48.8417 283.264 48.7853 283.267 48.7158C283.273 48.6434 283.276 48.5639 283.276 48.477ZM279.955 47.9213C279.955 47.5885 280.008 47.2846 280.115 47.0097C280.225 46.7347 280.374 46.4974 280.562 46.2977C280.742 46.1067 280.96 45.9576 281.218 45.8506C281.478 45.7435 281.742 45.6899 282.008 45.6899C282.306 45.6899 282.575 45.7406 282.815 45.8419C283.059 45.9403 283.268 46.0835 283.445 46.2717C283.668 46.509 283.84 46.8201 283.961 47.205C284.086 47.59 284.148 48.0762 284.148 48.6637C284.148 49.1991 284.087 49.7071 283.966 50.1875C283.847 50.665 283.671 51.0615 283.436 51.377C283.187 51.7127 282.888 51.9689 282.538 52.1454C282.19 52.3219 281.76 52.4102 281.248 52.4102C281.132 52.4102 281.009 52.403 280.879 52.3885C280.749 52.3769 280.627 52.3538 280.515 52.3191V51.4899H280.558C280.63 51.5304 280.743 51.5695 280.897 51.6071C281.05 51.6447 281.206 51.6635 281.365 51.6635C281.933 51.6635 282.378 51.4768 282.703 51.1035C283.027 50.7301 283.21 50.1962 283.254 49.5016C283.022 49.6579 282.801 49.7722 282.59 49.8445C282.381 49.9169 282.154 49.9531 281.908 49.9531C281.668 49.9531 281.449 49.927 281.253 49.8749C281.056 49.8228 280.857 49.7215 280.658 49.571C280.426 49.3945 280.251 49.1716 280.132 48.9025C280.014 48.6304 279.955 48.3034 279.955 47.9213ZM289.149 50.0616H288.381V52.2843H287.547V50.0616H284.691V49.1499L287.582 45.8202H288.381V49.367H289.149V50.0616ZM287.547 49.367V46.8404L285.368 49.367H287.547ZM291.146 52.2843H290.109V51.0471H291.146V52.2843ZM296.608 50.0616H295.839V52.2843H295.006V50.0616H292.149V49.1499L295.04 45.8202H295.839V49.367H296.608V50.0616ZM295.006 49.367V46.8404L292.826 49.367H295.006Z" fill="#606580"/>
<path d="M319 88H267V113H319V88Z" fill="#EBF1F9"/>
<path d="M284.157 101.05C284.157 102.211 283.988 103.063 283.649 103.607C283.313 104.148 282.794 104.419 282.09 104.419C281.378 104.419 280.856 104.143 280.523 103.59C280.19 103.037 280.024 102.193 280.024 101.059C280.024 99.8926 280.192 99.0403 280.528 98.5019C280.866 97.9607 281.387 97.6901 282.09 97.6901C282.802 97.6901 283.325 97.9694 283.658 98.528C283.99 99.0866 284.157 99.9273 284.157 101.05ZM283.045 103.021C283.129 102.807 283.189 102.536 283.223 102.209C283.258 101.882 283.276 101.496 283.276 101.05C283.276 100.607 283.258 100.222 283.223 99.8955C283.189 99.5685 283.128 99.2964 283.041 99.0793C282.954 98.8594 282.834 98.693 282.681 98.5801C282.53 98.4643 282.334 98.4064 282.09 98.4064C281.85 98.4064 281.652 98.4643 281.496 98.5801C281.342 98.693 281.221 98.8623 281.131 99.088C281.044 99.308 280.985 99.5858 280.953 99.9215C280.921 100.257 280.905 100.636 280.905 101.059C280.905 101.51 280.918 101.888 280.944 102.192C280.973 102.496 281.034 102.768 281.127 103.008C281.211 103.231 281.329 103.403 281.483 103.525C281.639 103.643 281.842 103.703 282.09 103.703C282.331 103.703 282.527 103.646 282.681 103.533C282.837 103.418 282.959 103.247 283.045 103.021ZM286.38 104.284H285.342V103.047H286.38V104.284ZM289.427 98.4368C289.271 98.4368 289.115 98.4556 288.958 98.4933C288.802 98.5309 288.649 98.5801 288.498 98.6409C288.359 98.6988 288.238 98.7595 288.133 98.8232C288.032 98.8869 287.941 98.9462 287.86 99.0012H287.808V98.0852C287.996 97.9839 288.251 97.8927 288.572 97.8117C288.896 97.7278 289.204 97.6858 289.497 97.6858C289.789 97.6858 290.044 97.7162 290.261 97.777C290.481 97.8348 290.679 97.926 290.855 98.0505C291.046 98.1894 291.19 98.3572 291.285 98.554C291.384 98.7508 291.433 98.9809 291.433 99.2443C291.433 99.6003 291.316 99.9129 291.081 100.182C290.847 100.451 290.566 100.622 290.239 100.694V100.755C290.375 100.781 290.52 100.826 290.673 100.89C290.829 100.953 290.974 101.047 291.107 101.172C291.24 101.296 291.349 101.457 291.433 101.654C291.517 101.848 291.559 102.085 291.559 102.366C291.559 102.658 291.508 102.927 291.407 103.173C291.308 103.416 291.168 103.632 290.986 103.82C290.798 104.017 290.57 104.166 290.304 104.267C290.038 104.368 289.735 104.419 289.397 104.419C289.073 104.419 288.751 104.38 288.433 104.302C288.115 104.224 287.847 104.13 287.63 104.02V103.104H287.691C287.873 103.237 288.118 103.364 288.424 103.486C288.731 103.607 289.038 103.668 289.345 103.668C289.521 103.668 289.698 103.64 289.874 103.585C290.054 103.528 290.203 103.435 290.321 103.308C290.437 103.18 290.526 103.04 290.586 102.887C290.647 102.733 290.677 102.539 290.677 102.305C290.677 102.07 290.643 101.878 290.573 101.727C290.507 101.577 290.413 101.458 290.291 101.371C290.17 101.285 290.025 101.225 289.857 101.193C289.692 101.159 289.513 101.141 289.319 101.141H288.95V100.421H289.236C289.627 100.421 289.944 100.328 290.187 100.143C290.433 99.9577 290.556 99.6886 290.556 99.3355C290.556 99.1734 290.524 99.0345 290.46 98.9187C290.397 98.8 290.316 98.706 290.217 98.6365C290.107 98.5613 289.986 98.5092 289.853 98.4802C289.719 98.4513 289.578 98.4368 289.427 98.4368Z" fill="#606580"/>
<path d="M17.7013 21.8888C15.2563 21.8888 13.2559 19.8883 13.2559 17.4433C13.2559 14.9983 15.2563 12.9978 17.7013 12.9978C20.1463 12.9978 22.1468 14.9983 22.1468 17.4433C22.1468 19.8883 20.1463 21.8888 17.7013 21.8888Z" stroke="#0089FF" stroke-width="0.76208" stroke-miterlimit="10" stroke-linecap="round" stroke-linejoin="round"/>
<path d="M17.7013 15.4109V19.4754" stroke="#0089FF" stroke-width="0.76208" stroke-miterlimit="10" stroke-linecap="round" stroke-linejoin="round"/>
<path d="M15.6692 17.4434H19.7336" stroke="#0089FF" stroke-width="0.76208" stroke-miterlimit="10" stroke-linecap="round" stroke-linejoin="round"/>
<path d="M7 5H5V30H7V5Z" fill="#0089FF"/>
</svg>
