<svg width="324" height="117" viewBox="0 0 324 117" fill="none" xmlns="http://www.w3.org/2000/svg">
<path d="M34.86 28.7901C29.1385 28.8 23.5482 30.505 18.7951 33.6899C14.042 36.8747 10.3391 41.3966 8.15416 46.6845C5.96921 51.9723 5.40012 57.7891 6.51875 63.4002C7.63739 69.0113 10.3936 74.1651 14.4393 78.2108C18.485 82.2565 23.6388 85.0127 29.2499 86.1313C34.861 87.25 40.6777 86.6809 45.9656 84.4959C51.2535 82.311 55.7754 78.6081 58.9602 73.855C62.1451 69.1019 63.8501 63.5116 63.86 57.7901C63.8666 53.9799 63.121 50.2059 61.6659 46.6845C60.2109 43.1631 58.075 39.9635 55.3808 37.2693C52.6866 34.5751 49.487 32.4392 45.9656 30.9842C42.4442 29.5291 38.6702 28.7835 34.86 28.7901Z" fill="#F5F8FD" stroke="#0089FF" stroke-width="0.5" stroke-miterlimit="10" stroke-dasharray="1.52 1.52"/>
<path fill-rule="evenodd" clip-rule="evenodd" d="M34.52 49.6998L33.87 54.7698L38.66 54.8998L28.37 69.0498L30.71 59.3798L26.61 59.6598L35.07 45.3398L34.52 49.6998ZM33.62 49.5798L28.27 58.6398L31.88 58.3798L30.32 64.8098L36.91 55.7598L32.85 55.6498L33.62 49.5798Z" fill="#F7931E"/>
<path fill-rule="evenodd" clip-rule="evenodd" d="M42.6 48.4201L42.29 50.8101L44.55 50.8701L39.7 57.5301L40.8 53.0001L38.87 53.1301L42.87 46.3901L42.61 48.4401L42.6 48.4201ZM42.17 48.3601L39.65 52.6301L41.36 52.5101L40.62 55.5101L43.72 51.2401L41.81 51.1901L42.17 48.3601Z" fill="#0089FF"/>
<path d="M100.81 28.75C95.0859 28.748 89.4898 30.443 84.7287 33.6206C79.9677 36.7983 76.2555 41.316 74.0614 46.6029C71.8672 51.8897 71.2896 57.7083 72.4014 63.3234C73.5133 68.9384 76.2648 74.0978 80.3081 78.1495C84.3514 82.2012 89.5051 84.9634 95.1179 86.0869C100.731 87.2104 106.55 86.6448 111.842 84.4616C117.133 82.2784 121.659 78.5756 124.846 73.8212C128.034 69.0667 129.74 63.4741 129.75 57.75C129.757 53.9449 129.013 50.1758 127.562 46.6583C126.11 43.1408 123.98 39.9439 121.292 37.2505C118.604 34.557 115.412 32.4199 111.897 30.9613C108.383 29.5027 104.615 28.7513 100.81 28.75Z" fill="#F5F8FD" stroke="#0089FF" stroke-width="0.5" stroke-miterlimit="10" stroke-dasharray="1.52 1.52"/>
<path d="M108.34 65.1101H107.87V64.2401C107.87 64.065 107.85 63.8906 107.81 63.7201C107.3 62.0301 106.81 60.3401 106.26 58.6601C105.937 57.8221 105.784 56.9279 105.81 56.0301C105.81 55.6801 105.7 55.5601 105.36 55.5601H101.84C101.47 55.5601 101.35 55.6801 101.35 56.0601V56.8601C100.92 56.9201 100.8 56.9901 100.78 57.2001C100.76 57.4101 100.85 57.5301 101.21 57.6501C101.01 58.3201 100.8 58.9901 100.6 59.6501C100.58 59.6372 100.562 59.6195 100.55 59.5986C100.538 59.5778 100.531 59.5542 100.53 59.5301C100.53 59.1201 100.53 58.7101 100.53 58.3001C100.53 57.8901 100.41 57.8201 100.06 57.8201H97.46C97.4041 57.8153 97.3478 57.823 97.2952 57.8425C97.2426 57.8621 97.195 57.8931 97.1558 57.9332C97.1166 57.9734 97.0868 58.0217 97.0685 58.0748C97.0502 58.1278 97.0439 58.1843 97.05 58.2401V58.5901C97.0747 59.0711 96.9963 59.5518 96.82 60.0001C96.62 60.5801 96.46 61.1701 96.28 61.7601C96.2752 61.7035 96.2752 61.6466 96.28 61.5901V61.1301C96.28 60.7801 96.17 60.6701 95.82 60.6701H94.26C93.9 60.6701 93.79 60.7801 93.8 61.1501C93.8049 61.4893 93.7542 61.8271 93.65 62.1501C93.43 62.8101 93.23 63.4801 93.03 64.1501C92.9613 64.4168 92.9079 64.6872 92.87 64.9601C92.87 65.0601 92.82 65.0801 92.73 65.0801H92.15C92.0669 65.0899 91.9904 65.13 91.935 65.1927C91.8797 65.2555 91.8494 65.3364 91.85 65.4201C91.8426 65.5025 91.8646 65.5849 91.9122 65.6527C91.9598 65.7204 92.0299 65.7691 92.11 65.7901H92.31H108.31C108.57 65.7901 108.73 65.6501 108.73 65.4201C108.73 65.1901 108.6 65.1201 108.34 65.1101ZM95.74 63.4001C95.7138 63.5339 95.6736 63.6646 95.62 63.7901C95.4901 64.1413 95.4389 64.5168 95.47 64.8901C95.47 65.0301 95.47 65.0901 95.29 65.0901C95.11 65.0901 94.78 65.0901 94.53 65.0901H93.76C93.65 65.0901 93.6 65.0901 93.62 64.9401C93.6153 64.8501 93.6153 64.76 93.62 64.6701C93.88 63.8101 94.15 62.9501 94.41 62.0901C94.4553 61.9163 94.4855 61.739 94.5 61.5601C94.5 61.4501 94.5 61.3901 94.66 61.4001H95.29C95.3157 61.4078 95.3396 61.4207 95.3602 61.4379C95.3808 61.455 95.3977 61.4762 95.41 61.5001C95.51 62.0301 95.61 62.5001 95.7 63.0701C95.7333 63.1767 95.7468 63.2885 95.74 63.4001ZM99.44 63.4001C99.4376 63.4234 99.4304 63.4461 99.4189 63.4665C99.4073 63.487 99.3917 63.5048 99.3729 63.5189C99.3541 63.533 99.3326 63.543 99.3097 63.5484C99.2868 63.5538 99.2631 63.5543 99.24 63.5501C98.88 63.5501 98.72 63.6801 98.71 63.9201C98.7 64.1601 98.87 64.2801 99.23 64.3101H99.3V65.0001C99.3 65.1301 99.2 65.1001 99.12 65.1001H96.59C96.24 65.1001 96.26 65.1001 96.24 64.7601C96.2546 64.3435 96.3462 63.9333 96.51 63.5501C96.89 62.2601 97.31 60.9701 97.68 59.6701C97.7437 59.3915 97.7673 59.1053 97.75 58.8201C97.75 58.6601 97.75 58.6001 97.96 58.6001H99.58C99.67 58.6001 99.76 58.6001 99.75 58.7301C99.7583 59.5494 99.8623 60.3649 100.06 61.1601C100.075 61.2461 100.075 61.334 100.06 61.4201C99.85 62.0701 99.64 62.7401 99.44 63.4101V63.4001ZM106.82 65.0901H100.27C100.04 65.0901 100.04 65.0901 100.04 64.8601V64.3001H104.69C104.781 64.3124 104.873 64.2933 104.951 64.246C105.029 64.1987 105.089 64.126 105.12 64.0401C105.138 63.9825 105.142 63.9213 105.131 63.8619C105.12 63.8025 105.095 63.7468 105.057 63.6994C105.02 63.6521 104.971 63.6146 104.916 63.5903C104.861 63.566 104.8 63.5556 104.74 63.5601H100.19C100.183 63.4969 100.183 63.4332 100.19 63.3701C100.76 61.5001 101.34 59.6401 101.9 57.7701C101.904 57.7437 101.913 57.7183 101.926 57.6954C101.94 57.6725 101.958 57.6525 101.979 57.6367C102.001 57.6208 102.025 57.6094 102.051 57.6031C102.077 57.5969 102.104 57.5958 102.13 57.6001H103.64C103.91 57.6001 104.07 57.4601 104.07 57.2301C104.07 57.0001 103.9 56.8601 103.63 56.8601H102.1V56.3001H105.1C105.1 56.4601 105.1 56.6201 105.1 56.7701C105.089 57.1097 105.14 57.4486 105.25 57.7701C105.87 59.7701 106.5 61.8301 107.11 63.8601C107.15 64.1687 107.15 64.4814 107.11 64.7901C107.14 65.1501 107.17 65.1001 106.82 65.1001V65.0901Z" fill="#0089FF"/>
<path d="M95.67 54.3103C96.2128 54.4611 96.7883 54.4465 97.3227 54.2684C97.8572 54.0902 98.3263 53.7566 98.67 53.3103L98.79 53.1503C99.1426 53.4402 99.5698 53.6249 100.023 53.6833C100.475 53.7416 100.935 53.6713 101.35 53.4803L101.45 53.7203C101.689 54.1933 102.077 54.5747 102.554 54.806C103.031 55.0372 103.57 55.1055 104.09 55.0003C104.595 54.8878 105.05 54.6152 105.387 54.2232C105.725 53.8311 105.926 53.3406 105.962 52.8246C105.998 52.3087 105.866 51.7949 105.587 51.3598C105.307 50.9248 104.894 50.5917 104.41 50.4103C104.359 50.3994 104.312 50.372 104.278 50.3323C104.244 50.2926 104.223 50.2427 104.22 50.1903C104.139 49.8342 103.978 49.5015 103.748 49.2179C103.518 48.9342 103.226 48.7072 102.895 48.5545C102.563 48.4018 102.201 48.3274 101.836 48.337C101.471 48.3467 101.113 48.4402 100.79 48.6103C100.769 48.6323 100.743 48.6499 100.715 48.6619C100.686 48.6739 100.656 48.68 100.625 48.68C100.594 48.68 100.564 48.6739 100.535 48.6619C100.507 48.6499 100.481 48.6323 100.46 48.6103C100.239 48.3829 99.9748 48.2021 99.6828 48.0786C99.3908 47.9552 99.077 47.8916 98.76 47.8916C98.443 47.8916 98.1292 47.9552 97.8372 48.0786C97.5452 48.2021 97.2809 48.3829 97.06 48.6103C97.0066 48.6793 96.936 48.7332 96.8553 48.7666C96.7746 48.7999 96.6866 48.8115 96.6 48.8003C95.9008 48.7598 95.2113 48.9792 94.664 49.4162C94.1167 49.8532 93.7501 50.477 93.6348 51.1678C93.5195 51.8586 93.6635 52.5677 94.0391 53.1588C94.4148 53.7499 94.9956 54.1814 95.67 54.3703V54.3103ZM96.41 49.4603C96.7542 49.4572 97.0934 49.5431 97.3947 49.7095C97.696 49.8759 97.9493 50.1173 98.13 50.4103C98.1899 50.5091 98.2766 50.5888 98.38 50.6403C98.45 50.6752 98.5303 50.6833 98.6059 50.663C98.6814 50.6428 98.7469 50.5955 98.79 50.5303C98.8411 50.4664 98.869 50.3871 98.869 50.3053C98.869 50.2235 98.8411 50.1441 98.79 50.0803C98.5453 49.6687 98.2015 49.325 97.79 49.0803L97.68 49.0003C97.841 48.8457 98.0332 48.7273 98.2436 48.6529C98.454 48.5784 98.6779 48.5497 98.9002 48.5687C99.1226 48.5876 99.3384 48.6537 99.5332 48.7626C99.728 48.8715 99.8974 49.0207 100.03 49.2003C99.7796 49.5141 99.6112 49.8852 99.54 50.2803C99.5085 50.4619 99.4918 50.6459 99.49 50.8303C99.4856 50.8844 99.4929 50.9388 99.5113 50.9898C99.5297 51.0409 99.5589 51.0874 99.5968 51.1262C99.6347 51.1651 99.6804 51.1953 99.731 51.215C99.7816 51.2347 99.8358 51.2433 99.89 51.2403C100.11 51.2403 100.24 51.0603 100.24 50.8003C100.221 50.3681 100.371 49.9454 100.658 49.6223C100.946 49.2992 101.348 49.1011 101.78 49.0703C102.147 49.047 102.511 49.1477 102.814 49.3563C103.117 49.5648 103.341 49.8691 103.45 50.2203L103.05 50.2903C102.685 50.3559 102.341 50.5104 102.05 50.7403C102 50.7726 101.958 50.8155 101.926 50.8658C101.894 50.9161 101.874 50.9728 101.867 51.0318C101.859 51.0907 101.864 51.1507 101.882 51.2074C101.9 51.2641 101.93 51.3163 101.97 51.3603C102.13 51.5303 102.35 51.5103 102.56 51.3603C102.836 51.1207 103.195 50.9987 103.56 51.0203C103.856 51.0334 104.144 51.1257 104.393 51.2876C104.641 51.4496 104.842 51.6752 104.974 51.941C105.106 52.2069 105.164 52.5032 105.142 52.7992C105.121 53.0951 105.02 53.3799 104.851 53.6238C104.682 53.8678 104.451 54.062 104.182 54.1862C103.912 54.3104 103.614 54.3601 103.319 54.3302C103.024 54.3002 102.742 54.1916 102.503 54.0158C102.264 53.8399 102.076 53.6032 101.96 53.3303C101.905 53.1676 101.865 53.0003 101.84 52.8303C101.84 52.6003 101.74 52.4703 101.55 52.4203C101.36 52.3703 101.29 52.4203 101.11 52.6203C100.927 52.7694 100.711 52.8723 100.48 52.9203C100.167 52.984 99.843 52.9523 99.5488 52.8292C99.2545 52.7062 99.0041 52.4975 98.83 52.2303L98.8 52.0003C98.7477 51.9286 98.6709 51.8788 98.5841 51.8604C98.4974 51.8419 98.4069 51.8561 98.33 51.9003C98.2889 51.9195 98.252 51.9468 98.2216 51.9805C98.1912 52.0142 98.1679 52.0536 98.153 52.0965C98.1381 52.1394 98.1319 52.1848 98.1348 52.2301C98.1377 52.2754 98.1497 52.3197 98.17 52.3603C98.1976 52.4036 98.2122 52.4539 98.2122 52.5053C98.2122 52.5566 98.1976 52.6069 98.17 52.6503C97.9719 52.9546 97.698 53.202 97.3753 53.3682C97.0525 53.5345 96.692 53.6137 96.3293 53.5983C95.9665 53.5828 95.6141 53.4731 95.3067 53.28C94.9992 53.0869 94.7474 52.817 94.576 52.4969C94.4046 52.1769 94.3195 51.8177 94.3291 51.4548C94.3387 51.0919 94.4427 50.7377 94.6308 50.4272C94.819 50.1167 95.0847 49.8605 95.402 49.6839C95.7192 49.5074 96.077 49.4165 96.44 49.4203L96.41 49.4603Z" fill="#0089FF"/>
<path d="M103.67 59.8003C103.41 59.8023 103.156 59.8812 102.94 60.027C102.725 60.1728 102.557 60.379 102.459 60.6198C102.36 60.8606 102.335 61.1252 102.386 61.3803C102.437 61.6354 102.563 61.8697 102.747 62.0537C102.931 62.2377 103.165 62.3632 103.42 62.4144C103.675 62.4657 103.94 62.4404 104.181 62.3417C104.421 62.2431 104.628 62.0754 104.773 61.8599C104.919 61.6444 104.998 61.3905 105 61.1303C105.001 60.9553 104.968 60.7818 104.901 60.6198C104.835 60.4578 104.737 60.3107 104.613 60.1869C104.49 60.0631 104.343 59.9652 104.181 59.8989C104.019 59.8325 103.845 59.799 103.67 59.8003ZM103.67 61.7003C103.594 61.699 103.519 61.6827 103.449 61.6524C103.379 61.622 103.316 61.5782 103.263 61.5234C103.21 61.4686 103.168 61.4039 103.14 61.3331C103.112 61.2622 103.099 61.1865 103.1 61.1103C103.1 60.9609 103.159 60.8174 103.263 60.7108C103.368 60.6042 103.511 60.543 103.66 60.5403C103.814 60.5403 103.961 60.6014 104.07 60.7102C104.179 60.819 104.24 60.9665 104.24 61.1203C104.24 61.2742 104.179 61.4217 104.07 61.5305C103.961 61.6392 103.814 61.7003 103.66 61.7003H103.67Z" fill="#0089FF"/>
<path d="M96.39 53.23C96.7 53.23 96.87 53.11 96.88 52.87C96.89 52.63 96.74 52.49 96.41 52.48C96.1795 52.4661 95.961 52.3728 95.7915 52.2161C95.622 52.0593 95.5119 51.8487 95.48 51.62C95.4762 51.5688 95.4623 51.5187 95.4391 51.4729C95.4159 51.427 95.3839 51.3861 95.3449 51.3527C95.3058 51.3192 95.2606 51.2938 95.2117 51.2779C95.1628 51.262 95.1112 51.2559 95.06 51.26C94.957 51.2795 94.8658 51.3386 94.806 51.4246C94.7462 51.5107 94.7225 51.6167 94.74 51.72C94.7879 52.1279 94.9809 52.5049 95.2839 52.7822C95.5869 53.0595 95.9795 53.2184 96.39 53.23Z" fill="#0089FF"/>
<path d="M154.18 18.4102H307.33C312.599 18.4102 316.87 22.6814 316.87 27.9502V27.9602C316.87 33.229 312.599 37.5002 307.33 37.5002H154.18C148.911 37.5002 144.64 33.229 144.64 27.9602V27.9502C144.64 22.6814 148.911 18.4102 154.18 18.4102Z" fill="#EBF1F9" stroke="#EBF1F9"/>
<path opacity="0.25" d="M289.44 26.3101H190.37C189.492 26.3101 188.78 27.0219 188.78 27.9001V27.9101C188.78 28.7882 189.492 29.5001 190.37 29.5001H289.44C290.318 29.5001 291.03 28.7882 291.03 27.9101V27.9001C291.03 27.0219 290.318 26.3101 289.44 26.3101Z" fill="#A2E2FF"/>
<path d="M272.39 26.3101H173.32C172.442 26.3101 171.73 27.0219 171.73 27.9001V27.9101C171.73 28.7882 172.442 29.5001 173.32 29.5001H272.39C273.268 29.5001 273.98 28.7882 273.98 27.9101V27.9001C273.98 27.0219 273.268 26.3101 272.39 26.3101Z" fill="#0089FF"/>
<path d="M154.62 47.1899H307.33C312.599 47.1899 316.87 51.4611 316.87 56.7299V56.7399C316.87 62.0087 312.599 66.2799 307.33 66.2799H154.62C149.351 66.2799 145.08 62.0087 145.08 56.7399V56.7299C145.08 51.4611 149.351 47.1899 154.62 47.1899Z" fill="#EBF1F9" stroke="#EBF1F9"/>
<path opacity="0.25" d="M289.44 55.0903H190.37C189.492 55.0903 188.78 55.8022 188.78 56.6803V56.6903C188.78 57.5685 189.492 58.2803 190.37 58.2803H289.44C290.318 58.2803 291.03 57.5685 291.03 56.6903V56.6803C291.03 55.8022 290.318 55.0903 289.44 55.0903Z" fill="#A2E2FF"/>
<path d="M245.14 55.0903H173.32C172.442 55.0903 171.73 55.8022 171.73 56.6803V56.6903C171.73 57.5685 172.442 58.2803 173.32 58.2803H245.14C246.018 58.2803 246.73 57.5685 246.73 56.6903V56.6803C246.73 55.8022 246.018 55.0903 245.14 55.0903Z" fill="#F7931E"/>
<path d="M153.31 77.6401H307.34C312.609 77.6401 316.88 81.9113 316.88 87.1801V87.1901C316.88 92.4589 312.609 96.7301 307.34 96.7301H153.31C148.041 96.7301 143.77 92.4589 143.77 87.1901V87.1801C143.77 81.9113 148.041 77.6401 153.31 77.6401Z" fill="#EBF1F9" stroke="#EBF1F9"/>
<path opacity="0.25" d="M289.44 85.5503H190.37C189.492 85.5503 188.78 86.2622 188.78 87.1403V87.1503C188.78 88.0284 189.492 88.7403 190.37 88.7403H289.44C290.318 88.7403 291.03 88.0284 291.03 87.1503V87.1403C291.03 86.2622 290.318 85.5503 289.44 85.5503Z" fill="#A2E2FF"/>
<path d="M222.12 85.5503H173.32C172.442 85.5503 171.73 86.2622 171.73 87.1403V87.1503C171.73 88.0284 172.442 88.7403 173.32 88.7403H222.12C222.998 88.7403 223.71 88.0284 223.71 87.1503V87.1403C223.71 86.2622 222.998 85.5503 222.12 85.5503Z" fill="#0089FF"/>
</svg>
