<svg width="324" height="117" viewBox="0 0 324 117" fill="none" xmlns="http://www.w3.org/2000/svg">
<path d="M10.8207 29.7077C10.8207 29.9128 10.7868 30.1019 10.719 30.275C10.6513 30.448 10.5603 30.5925 10.4461 30.7084C10.3266 30.8315 10.1928 30.9252 10.0447 30.9894C9.89669 31.0518 9.73346 31.083 9.55508 31.083C9.37491 31.083 9.21079 31.0527 9.06273 30.9921C8.91646 30.9314 8.78713 30.8413 8.67475 30.7218C8.53739 30.5773 8.42947 30.3847 8.35098 30.1438C8.27427 29.9012 8.23592 29.6033 8.23592 29.2501C8.23592 28.9041 8.27159 28.5919 8.34295 28.3136C8.4143 28.0336 8.52401 27.7901 8.67207 27.5831C8.81656 27.3816 9.00298 27.2246 9.23131 27.1122C9.45964 26.998 9.72365 26.9409 10.0233 26.9409C10.1125 26.9409 10.1955 26.9454 10.2722 26.9543C10.3489 26.9632 10.4167 26.9775 10.4755 26.9971V27.5082H10.4515C10.4033 27.4814 10.3337 27.4574 10.2428 27.436C10.1518 27.4128 10.0546 27.4012 9.95109 27.4012C9.6193 27.4012 9.35083 27.5136 9.14568 27.7383C8.94232 27.9613 8.82191 28.2931 8.78445 28.7337C8.91111 28.6445 9.04133 28.5758 9.17512 28.5277C9.30891 28.4795 9.45518 28.4554 9.61395 28.4554C9.76914 28.4554 9.90471 28.4715 10.0207 28.5036C10.1384 28.5339 10.2606 28.5964 10.3872 28.6909C10.5335 28.8015 10.6423 28.9415 10.7137 29.111C10.785 29.2805 10.8207 29.4794 10.8207 29.7077ZM10.2775 29.7291C10.2775 29.565 10.2561 29.4276 10.2133 29.317C10.1705 29.2064 10.1009 29.1119 10.0046 29.0334C9.93504 28.9763 9.85566 28.9389 9.76646 28.921C9.67906 28.9032 9.58897 28.8943 9.49621 28.8943C9.37134 28.8943 9.25004 28.913 9.1323 28.9505C9.01457 28.9879 8.89862 29.0423 8.78445 29.1137C8.78089 29.1529 8.77821 29.1913 8.77643 29.2287C8.77464 29.2644 8.77375 29.3099 8.77375 29.3652C8.77375 29.6417 8.80051 29.8647 8.85402 30.0341C8.90932 30.2036 8.97711 30.332 9.05738 30.4195C9.13409 30.5033 9.21258 30.5622 9.29285 30.5961C9.37491 30.63 9.46321 30.6469 9.55775 30.6469C9.77182 30.6469 9.94485 30.5702 10.0769 30.4168C10.2106 30.2634 10.2775 30.0341 10.2775 29.7291Z" fill="#8C99B2"/>
<path d="M10.7137 40.7315C10.7137 40.9241 10.6825 41.1025 10.62 41.2666C10.5594 41.4308 10.4738 41.5726 10.3632 41.6921C10.2508 41.8134 10.1107 41.9088 9.94307 41.9784C9.77717 42.048 9.59076 42.0827 9.38383 42.0827C9.19296 42.0827 9.00476 42.0613 8.81924 42.0185C8.6355 41.9775 8.47585 41.9231 8.34027 41.8553V41.2907H8.37773C8.41876 41.321 8.47763 41.3558 8.55434 41.3951C8.63104 41.4325 8.71577 41.4682 8.80854 41.5021C8.91378 41.5396 9.01011 41.569 9.09752 41.5904C9.18493 41.61 9.28304 41.6198 9.39186 41.6198C9.49889 41.6198 9.60324 41.6011 9.70492 41.5636C9.8066 41.5244 9.89401 41.462 9.96715 41.3763C10.0332 41.2979 10.0831 41.206 10.117 41.1007C10.1527 40.9955 10.1705 40.8715 10.1705 40.7288C10.1705 40.5879 10.1509 40.4719 10.1116 40.381C10.0742 40.29 10.0189 40.2151 9.94574 40.1562C9.86904 40.0884 9.77449 40.0411 9.66211 40.0144C9.55151 39.9858 9.42753 39.9716 9.29018 39.9716C9.14568 39.9716 9.0003 39.9832 8.85402 40.0063C8.70775 40.0277 8.5909 40.0483 8.5035 40.0679V38.0156H10.6896V38.4838H9.01992V39.5434C9.08414 39.5363 9.14747 39.5309 9.2099 39.5274C9.27234 39.5238 9.32942 39.522 9.38115 39.522C9.58451 39.522 9.75665 39.539 9.89758 39.5729C10.0385 39.6068 10.1741 39.6728 10.3043 39.7709C10.4363 39.8708 10.5371 39.9956 10.6067 40.1455C10.678 40.2953 10.7137 40.4907 10.7137 40.7315Z" fill="#8C99B2"/>
<path d="M10.8635 49.6298H10.3899V50.9998H9.87617V49.6298H8.11551V49.0679L9.89758 47.0156H10.3899V49.2017H10.8635V49.6298ZM9.87617 49.2017V47.6444L8.53293 49.2017H9.87617Z" fill="#8C99B2"/>
<path d="M9.3758 58.3955C9.27947 58.3955 9.18314 58.4071 9.08682 58.4303C8.99049 58.4535 8.89594 58.4838 8.80318 58.5213C8.71756 58.557 8.64264 58.5944 8.57842 58.6337C8.51598 58.6729 8.45979 58.7095 8.40984 58.7434H8.37773V58.1788C8.49368 58.1163 8.65066 58.0602 8.84867 58.0102C9.04846 57.9585 9.23844 57.9326 9.41861 57.9326C9.59878 57.9326 9.75576 57.9513 9.88955 57.9888C10.0251 58.0245 10.1473 58.0807 10.2561 58.1574C10.3739 58.243 10.4622 58.3465 10.521 58.4678C10.5817 58.5891 10.612 58.7309 10.612 58.8932C10.612 59.1126 10.5398 59.3053 10.3953 59.4712C10.2508 59.6371 10.0777 59.7423 9.87617 59.7869V59.8244C9.96001 59.8404 10.0492 59.8681 10.1437 59.9073C10.2401 59.9466 10.3293 60.0046 10.4113 60.0813C10.4934 60.158 10.5603 60.257 10.612 60.3783C10.6637 60.4978 10.6896 60.6441 10.6896 60.8171C10.6896 60.9973 10.6584 61.1632 10.596 61.3148C10.5353 61.4646 10.4488 61.5975 10.3364 61.7135C10.2205 61.8348 10.0804 61.9267 9.91631 61.9891C9.75219 62.0515 9.56578 62.0827 9.35707 62.0827C9.15728 62.0827 8.95927 62.0587 8.76305 62.0105C8.56682 61.9623 8.40182 61.9044 8.26803 61.8366V61.272H8.30549C8.41787 61.354 8.56861 61.4325 8.7577 61.5075C8.94678 61.5824 9.13587 61.6198 9.32496 61.6198C9.43378 61.6198 9.54259 61.6029 9.65141 61.569C9.76201 61.5333 9.85387 61.4762 9.92701 61.3977C9.99837 61.3193 10.0528 61.2327 10.0902 61.1382C10.1277 61.0437 10.1464 60.9241 10.1464 60.7796C10.1464 60.6352 10.125 60.5165 10.0822 60.4238C10.0412 60.331 9.9832 60.2579 9.90828 60.2044C9.83336 60.1508 9.74417 60.1143 9.6407 60.0946C9.53902 60.0732 9.42842 60.0625 9.30891 60.0625H9.08146V59.6184H9.25807C9.49889 59.6184 9.69422 59.5613 9.84406 59.4471C9.99569 59.3329 10.0715 59.167 10.0715 58.9494C10.0715 58.8495 10.0519 58.7639 10.0126 58.6925C9.97339 58.6194 9.92344 58.5614 9.86279 58.5186C9.79501 58.4722 9.72008 58.4401 9.63803 58.4223C9.55597 58.4044 9.46856 58.3955 9.3758 58.3955Z" fill="#8C99B2"/>
<path d="M10.7592 70.9998H8.30014V70.4406C8.47674 70.2729 8.64353 70.1123 8.80051 69.9589C8.95749 69.8055 9.1109 69.6459 9.26074 69.48C9.564 69.1464 9.77092 68.8797 9.88152 68.6799C9.99212 68.4783 10.0474 68.2705 10.0474 68.0564C10.0474 67.9458 10.0296 67.8486 9.99391 67.7648C9.96001 67.6809 9.91274 67.6114 9.85209 67.5561C9.78965 67.5026 9.71741 67.4624 9.63535 67.4357C9.55329 67.4089 9.46321 67.3955 9.3651 67.3955C9.27055 67.3955 9.17423 67.408 9.07611 67.433C8.97979 67.4562 8.88702 67.4856 8.79783 67.5213C8.72291 67.5516 8.65066 67.5882 8.58109 67.631C8.51152 67.6738 8.45533 67.7104 8.41252 67.7407H8.38309V67.1734C8.49368 67.1181 8.6471 67.0646 8.84332 67.0129C9.04133 66.9594 9.22863 66.9326 9.40523 66.9326C9.77628 66.9326 10.067 67.0316 10.2775 67.2296C10.488 67.4258 10.5933 67.6925 10.5933 68.0297C10.5933 68.1849 10.5746 68.3285 10.5371 68.4605C10.5014 68.5925 10.4515 68.7147 10.3872 68.8271C10.3212 68.943 10.2419 69.0581 10.1491 69.1722C10.0563 69.2864 9.95823 69.3988 9.85477 69.5094C9.68708 69.6913 9.49978 69.8804 9.29285 70.0767C9.08771 70.2729 8.92359 70.4281 8.80051 70.5422H10.7592V70.9998Z" fill="#8C99B2"/>
<path d="M10.5558 82H8.6132V81.5933H9.33566V78.9229H8.6132V78.5589C8.88613 78.5589 9.08682 78.5206 9.21525 78.4439C9.34548 78.3654 9.41861 78.2182 9.43467 78.0024H9.84941V81.5933H10.5558V82Z" fill="#8C99B2"/>
<path d="M10.7779 89.0065C10.7779 89.7219 10.6736 90.2472 10.4648 90.5826C10.2579 90.9162 9.93771 91.0829 9.50424 91.0829C9.06541 91.0829 8.74342 90.9126 8.53828 90.5719C8.33314 90.2312 8.23057 89.7112 8.23057 89.0119C8.23057 88.293 8.33403 87.7677 8.54096 87.4359C8.74967 87.1023 9.07076 86.9355 9.50424 86.9355C9.94307 86.9355 10.2651 87.1076 10.4702 87.4519C10.6753 87.7962 10.7779 88.3144 10.7779 89.0065ZM10.0929 90.2213C10.1446 90.0893 10.1812 89.9226 10.2026 89.721C10.224 89.5194 10.2347 89.2813 10.2347 89.0065C10.2347 88.7336 10.224 88.4964 10.2026 88.2948C10.1812 88.0932 10.1437 87.9255 10.0902 87.7917C10.0367 87.6562 9.96269 87.5536 9.86814 87.484C9.77538 87.4127 9.65408 87.377 9.50424 87.377C9.35618 87.377 9.23398 87.4127 9.13766 87.484C9.04311 87.5536 8.96819 87.6579 8.91289 87.7971C8.85937 87.9327 8.82281 88.1039 8.80318 88.3108C8.78356 88.5178 8.77375 88.7515 8.77375 89.0119C8.77375 89.2902 8.78178 89.523 8.79783 89.7103C8.81567 89.8976 8.85313 90.0653 8.91021 90.2133C8.96195 90.3507 9.03508 90.4568 9.12963 90.5317C9.22596 90.6049 9.35083 90.6414 9.50424 90.6414C9.6523 90.6414 9.7736 90.6067 9.86814 90.5371C9.96447 90.4657 10.0394 90.3605 10.0929 90.2213Z" fill="#8C99B2"/>
<path d="M7.54734 12.4526H6.53055V14.9999H6.0275V12.4526H5.0107V12.0111H7.54734V12.4526ZM10.1402 14.0741C10.1402 14.2186 10.1107 14.3497 10.0519 14.4674C9.99479 14.5852 9.9163 14.6806 9.81641 14.7537C9.69867 14.8429 9.57291 14.9062 9.43912 14.9437C9.30533 14.9812 9.13319 14.9999 8.9227 14.9999H7.92195V12.0111H8.425V13.175H8.93607C9.16084 13.175 9.33477 13.1866 9.45785 13.2098C9.58272 13.233 9.7067 13.2901 9.82979 13.3811C9.93325 13.4578 10.0108 13.5559 10.0626 13.6754C10.1143 13.7949 10.1402 13.9278 10.1402 14.0741ZM9.62107 14.0821C9.62107 13.9911 9.60502 13.9117 9.57291 13.844C9.54258 13.7744 9.49174 13.7182 9.42039 13.6754C9.34547 13.6308 9.25984 13.604 9.16352 13.5951C9.06897 13.5862 8.93251 13.5817 8.75412 13.5817H8.425V14.5985H8.74342C8.9218 14.5985 9.06005 14.5914 9.15816 14.5771C9.25628 14.5611 9.34101 14.5316 9.41236 14.4888C9.4855 14.4424 9.53812 14.388 9.57023 14.3256C9.60413 14.2614 9.62107 14.1802 9.62107 14.0821ZM10.9911 14.9999H10.488V12.0111H10.9911V14.9999ZM12.9096 15.0668C12.7045 15.0668 12.5163 15.0356 12.345 14.9731C12.1738 14.9089 12.0266 14.8126 11.9035 14.6842C11.7804 14.5557 11.685 14.3943 11.6172 14.1998C11.5494 14.0036 11.5155 13.7735 11.5155 13.5095C11.5155 13.2473 11.5503 13.0207 11.6199 12.8298C11.6912 12.639 11.7858 12.4784 11.9035 12.3482C12.0213 12.218 12.1675 12.1181 12.3423 12.0485C12.5189 11.9772 12.708 11.9415 12.9096 11.9415C13.0737 11.9415 13.2316 11.9647 13.3832 12.0111C13.5366 12.0574 13.6731 12.1109 13.7926 12.1716V12.7362H13.7632C13.7275 12.7059 13.6811 12.6711 13.624 12.6318C13.5687 12.5926 13.501 12.5525 13.4207 12.5114C13.3511 12.4757 13.2691 12.4445 13.1745 12.4178C13.08 12.391 12.989 12.3776 12.9016 12.3776C12.6411 12.3776 12.4315 12.4766 12.2728 12.6746C12.1158 12.8709 12.0373 13.1492 12.0373 13.5095C12.0373 13.8627 12.1131 14.1383 12.2647 14.3363C12.4182 14.5325 12.6304 14.6306 12.9016 14.6306C13.0657 14.6306 13.2218 14.5967 13.3698 14.529C13.5179 14.4612 13.649 14.3738 13.7632 14.2667H13.7926V14.8313C13.7427 14.8545 13.6802 14.8831 13.6053 14.917C13.5304 14.9491 13.4626 14.9731 13.402 14.9892C13.3163 15.0142 13.2396 15.0329 13.1718 15.0454C13.104 15.0597 13.0166 15.0668 12.9096 15.0668ZM15.8369 10.8364L14.2769 15.8669H13.8247L15.3767 10.8364H15.8369ZM18.5341 12.4526H17.5173V14.9999H17.0143V12.4526H15.9975V12.0111H18.5341V12.4526ZM21.2687 14.9999H20.7657V13.654H19.4118V14.9999H18.9087V12.0111H19.4118V13.2205H20.7657V12.0111H21.2687V14.9999Z" fill="#8C99B2"/>
<path d="M31.7694 94.0065C31.7694 94.7219 31.6651 95.2472 31.4564 95.5826C31.2494 95.9162 30.9292 96.0829 30.4958 96.0829C30.0569 96.0829 29.7349 95.9126 29.5298 95.5719C29.3247 95.2312 29.2221 94.7112 29.2221 94.0119C29.2221 93.293 29.3256 92.7677 29.5325 92.4359C29.7412 92.1023 30.0623 91.9355 30.4958 91.9355C30.9346 91.9355 31.2566 92.1076 31.4617 92.4519C31.6669 92.7962 31.7694 93.3144 31.7694 94.0065ZM31.0844 95.2213C31.1362 95.0893 31.1727 94.9226 31.1941 94.721C31.2155 94.5194 31.2263 94.2813 31.2263 94.0065C31.2263 93.7336 31.2155 93.4964 31.1941 93.2948C31.1727 93.0932 31.1353 92.9255 31.0818 92.7917C31.0282 92.6562 30.9542 92.5536 30.8597 92.484C30.7669 92.4127 30.6456 92.377 30.4958 92.377C30.3477 92.377 30.2255 92.4127 30.1292 92.484C30.0346 92.5536 29.9597 92.6579 29.9044 92.7971C29.8509 92.9327 29.8143 93.1039 29.7947 93.3108C29.7751 93.5178 29.7653 93.7515 29.7653 94.0119C29.7653 94.2902 29.7733 94.523 29.7894 94.7103C29.8072 94.8976 29.8447 95.0653 29.9017 95.2133C29.9535 95.3507 30.0266 95.4568 30.1212 95.5317C30.2175 95.6049 30.3424 95.6414 30.4958 95.6414C30.6438 95.6414 30.7651 95.6067 30.8597 95.5371C30.956 95.4657 31.0309 95.3605 31.0844 95.2213ZM34.5389 96H32.5963V95.5933H33.3187V92.9229H32.5963V92.5589C32.8692 92.5589 33.0699 92.5206 33.1983 92.4439C33.3285 92.3654 33.4017 92.2182 33.4177 92.0024H33.8325V95.5933H34.5389V96Z" fill="#8C99B2"/>
<path d="M17.3673 92.3955C17.271 92.3955 17.1747 92.4071 17.0783 92.4303C16.982 92.4535 16.8875 92.4838 16.7947 92.5213C16.7091 92.557 16.6342 92.5944 16.5699 92.6337C16.5075 92.6729 16.4513 92.7095 16.4014 92.7434H16.3693V92.1788C16.4852 92.1163 16.6422 92.0602 16.8402 92.0102C17.04 91.9585 17.23 91.9326 17.4101 91.9326C17.5903 91.9326 17.7473 91.9513 17.8811 91.9888C18.0166 92.0245 18.1388 92.0807 18.2477 92.1574C18.3654 92.243 18.4537 92.3465 18.5126 92.4678C18.5732 92.5891 18.6035 92.7309 18.6035 92.8932C18.6035 93.1126 18.5313 93.3053 18.3868 93.4712C18.2423 93.6371 18.0693 93.7423 17.8677 93.7869V93.8244C17.9515 93.8404 18.0407 93.8681 18.1353 93.9073C18.2316 93.9466 18.3208 94.0046 18.4029 94.0813C18.4849 94.158 18.5518 94.257 18.6035 94.3783C18.6553 94.4978 18.6811 94.6441 18.6811 94.8171C18.6811 94.9973 18.6499 95.1632 18.5875 95.3148C18.5268 95.4646 18.4403 95.5975 18.3279 95.7135C18.212 95.8348 18.0719 95.9267 17.9078 95.9891C17.7437 96.0515 17.5573 96.0827 17.3486 96.0827C17.1488 96.0827 16.9508 96.0587 16.7546 96.0105C16.5583 95.9623 16.3933 95.9044 16.2596 95.8366V95.272H16.297C16.4094 95.354 16.5601 95.4325 16.7492 95.5075C16.9383 95.5824 17.1274 95.6198 17.3165 95.6198C17.4253 95.6198 17.5341 95.6029 17.6429 95.569C17.7535 95.5333 17.8454 95.4762 17.9185 95.3977C17.9899 95.3193 18.0443 95.2327 18.0818 95.1382C18.1192 95.0437 18.1379 94.9241 18.1379 94.7796C18.1379 94.6352 18.1165 94.5165 18.0737 94.4238C18.0327 94.331 17.9747 94.2579 17.8998 94.2044C17.8249 94.1508 17.7357 94.1143 17.6322 94.0946C17.5305 94.0732 17.4199 94.0625 17.3004 94.0625H17.073V93.6184H17.2496C17.4904 93.6184 17.6857 93.5613 17.8356 93.4471C17.9872 93.3329 18.063 93.167 18.063 92.9494C18.063 92.8495 18.0434 92.7639 18.0042 92.6925C17.9649 92.6194 17.915 92.5614 17.8543 92.5186C17.7865 92.4722 17.7116 92.4401 17.6296 92.4223C17.5475 92.4044 17.4601 92.3955 17.3673 92.3955ZM21.5389 95.9998H19.5963V95.5931H20.3187V92.9227H19.5963V92.5587C19.8692 92.5587 20.0699 92.5204 20.1983 92.4437C20.3285 92.3652 20.4017 92.218 20.4177 92.0022H20.8325V95.5931H21.5389V95.9998Z" fill="#8C99B2"/>
<path d="M42.7694 94.0063C42.7694 94.7217 42.6651 95.247 42.4564 95.5824C42.2494 95.916 41.9292 96.0827 41.4958 96.0827C41.0569 96.0827 40.7349 95.9124 40.5298 95.5717C40.3247 95.231 40.2221 94.711 40.2221 94.0117C40.2221 93.2928 40.3256 92.7675 40.5325 92.4357C40.7412 92.1021 41.0623 91.9353 41.4958 91.9353C41.9346 91.9353 42.2566 92.1074 42.4617 92.4517C42.6669 92.796 42.7694 93.3142 42.7694 94.0063ZM42.0844 95.2211C42.1362 95.0891 42.1727 94.9224 42.1941 94.7208C42.2155 94.5192 42.2263 94.2811 42.2263 94.0063C42.2263 93.7334 42.2155 93.4962 42.1941 93.2946C42.1727 93.093 42.1353 92.9253 42.0818 92.7915C42.0282 92.656 41.9542 92.5534 41.8597 92.4838C41.7669 92.4125 41.6456 92.3768 41.4958 92.3768C41.3477 92.3768 41.2255 92.4125 41.1292 92.4838C41.0346 92.5534 40.9597 92.6577 40.9044 92.7969C40.8509 92.9325 40.8143 93.1037 40.7947 93.3106C40.7751 93.5176 40.7653 93.7513 40.7653 94.0117C40.7653 94.29 40.7733 94.5228 40.7894 94.7101C40.8072 94.8974 40.8447 95.0651 40.9017 95.2131C40.9535 95.3505 41.0266 95.4566 41.1212 95.5315C41.2175 95.6047 41.3424 95.6412 41.4958 95.6412C41.6438 95.6412 41.7651 95.6065 41.8597 95.5369C41.956 95.4655 42.0309 95.3603 42.0844 95.2211ZM45.7422 95.9998H43.2832V95.4406C43.4598 95.2729 43.6266 95.1123 43.7836 94.9589C43.9405 94.8055 44.0939 94.6459 44.2438 94.48C44.547 94.1464 44.754 93.8797 44.8646 93.6799C44.9752 93.4783 45.0305 93.2705 45.0305 93.0564C45.0305 92.9458 45.0126 92.8486 44.977 92.7648C44.9431 92.6809 44.8958 92.6114 44.8351 92.5561C44.7727 92.5026 44.7005 92.4624 44.6184 92.4357C44.5363 92.4089 44.4463 92.3955 44.3481 92.3955C44.2536 92.3955 44.1573 92.408 44.0592 92.433C43.9628 92.4562 43.8701 92.4856 43.7809 92.5213C43.706 92.5516 43.6337 92.5882 43.5641 92.631C43.4946 92.6738 43.4384 92.7104 43.3956 92.7407H43.3661V92.1734C43.4767 92.1181 43.6301 92.0646 43.8264 92.0129C44.0244 91.9594 44.2117 91.9326 44.3883 91.9326C44.7593 91.9326 45.0501 92.0316 45.2606 92.2296C45.4711 92.4258 45.5763 92.6925 45.5763 93.0297C45.5763 93.1849 45.5576 93.3285 45.5201 93.4605C45.4845 93.5925 45.4345 93.7147 45.3703 93.8271C45.3043 93.943 45.2249 94.0581 45.1321 94.1722C45.0394 94.2864 44.9413 94.3988 44.8378 94.5094C44.6701 94.6913 44.4828 94.8804 44.2759 95.0767C44.0708 95.2729 43.9066 95.4281 43.7836 95.5422H45.7422V95.9998Z" fill="#8C99B2"/>
<path d="M54.7694 94.0063C54.7694 94.7217 54.6651 95.247 54.4564 95.5824C54.2494 95.916 53.9292 96.0827 53.4958 96.0827C53.0569 96.0827 52.7349 95.9124 52.5298 95.5717C52.3247 95.231 52.2221 94.711 52.2221 94.0117C52.2221 93.2928 52.3256 92.7675 52.5325 92.4357C52.7412 92.1021 53.0623 91.9353 53.4958 91.9353C53.9346 91.9353 54.2566 92.1074 54.4617 92.4517C54.6669 92.796 54.7694 93.3142 54.7694 94.0063ZM54.0844 95.2211C54.1362 95.0891 54.1727 94.9224 54.1941 94.7208C54.2155 94.5192 54.2263 94.2811 54.2263 94.0063C54.2263 93.7334 54.2155 93.4962 54.1941 93.2946C54.1727 93.093 54.1353 92.9253 54.0818 92.7915C54.0282 92.656 53.9542 92.5534 53.8597 92.4838C53.7669 92.4125 53.6456 92.3768 53.4958 92.3768C53.3477 92.3768 53.2255 92.4125 53.1292 92.4838C53.0346 92.5534 52.9597 92.6577 52.9044 92.7969C52.8509 92.9325 52.8143 93.1037 52.7947 93.3106C52.7751 93.5176 52.7653 93.7513 52.7653 94.0117C52.7653 94.29 52.7733 94.5228 52.7894 94.7101C52.8072 94.8974 52.8447 95.0651 52.9017 95.2131C52.9535 95.3505 53.0266 95.4566 53.1212 95.5315C53.2175 95.6047 53.3424 95.6412 53.4958 95.6412C53.6438 95.6412 53.7651 95.6065 53.8597 95.5369C53.956 95.4655 54.0309 95.3603 54.0844 95.2211ZM56.3588 92.3955C56.2625 92.3955 56.1662 92.4071 56.0699 92.4303C55.9735 92.4535 55.879 92.4838 55.7862 92.5213C55.7006 92.557 55.6257 92.5944 55.5615 92.6337C55.499 92.6729 55.4428 92.7095 55.3929 92.7434H55.3608V92.1788C55.4767 92.1163 55.6337 92.0602 55.8317 92.0102C56.0315 91.9585 56.2215 91.9326 56.4017 91.9326C56.5818 91.9326 56.7388 91.9513 56.8726 91.9888C57.0082 92.0245 57.1304 92.0807 57.2392 92.1574C57.3569 92.243 57.4452 92.3465 57.5041 92.4678C57.5647 92.5891 57.5951 92.7309 57.5951 92.8932C57.5951 93.1126 57.5228 93.3053 57.3783 93.4712C57.2338 93.6371 57.0608 93.7423 56.8592 93.7869V93.8244C56.9431 93.8404 57.0323 93.8681 57.1268 93.9073C57.2231 93.9466 57.3123 94.0046 57.3944 94.0813C57.4764 94.158 57.5433 94.257 57.5951 94.3783C57.6468 94.4978 57.6727 94.6441 57.6727 94.8171C57.6727 94.9973 57.6414 95.1632 57.579 95.3148C57.5184 95.4646 57.4318 95.5975 57.3195 95.7135C57.2035 95.8348 57.0635 95.9267 56.8994 95.9891C56.7352 96.0515 56.5488 96.0827 56.3401 96.0827C56.1403 96.0827 55.9423 96.0587 55.7461 96.0105C55.5499 95.9623 55.3849 95.9044 55.2511 95.8366V95.272H55.2885C55.4009 95.354 55.5517 95.4325 55.7407 95.5075C55.9298 95.5824 56.1189 95.6198 56.308 95.6198C56.4168 95.6198 56.5256 95.6029 56.6345 95.569C56.7451 95.5333 56.8369 95.4762 56.9101 95.3977C56.9814 95.3193 57.0358 95.2327 57.0733 95.1382C57.1107 95.0437 57.1295 94.9241 57.1295 94.7796C57.1295 94.6352 57.1081 94.5165 57.0653 94.4238C57.0242 94.331 56.9663 94.2579 56.8913 94.2044C56.8164 94.1508 56.7272 94.1143 56.6238 94.0946C56.5221 94.0732 56.4115 94.0625 56.292 94.0625H56.0645V93.6184H56.2411C56.4819 93.6184 56.6773 93.5613 56.8271 93.4471C56.9787 93.3329 57.0546 93.167 57.0546 92.9494C57.0546 92.8495 57.0349 92.7639 56.9957 92.6925C56.9564 92.6194 56.9065 92.5614 56.8458 92.5186C56.7781 92.4722 56.7031 92.4401 56.6211 92.4223C56.539 92.4044 56.4516 92.3955 56.3588 92.3955Z" fill="#8C99B2"/>
<path d="M67.7694 94.0065C67.7694 94.7219 67.6651 95.2472 67.4564 95.5826C67.2494 95.9162 66.9292 96.0829 66.4958 96.0829C66.0569 96.0829 65.7349 95.9126 65.5298 95.5719C65.3247 95.2312 65.2221 94.7112 65.2221 94.0119C65.2221 93.293 65.3256 92.7677 65.5325 92.4359C65.7412 92.1023 66.0623 91.9355 66.4958 91.9355C66.9346 91.9355 67.2566 92.1076 67.4617 92.4519C67.6669 92.7962 67.7694 93.3144 67.7694 94.0065ZM67.0844 95.2213C67.1362 95.0893 67.1727 94.9226 67.1941 94.721C67.2155 94.5194 67.2263 94.2813 67.2263 94.0065C67.2263 93.7336 67.2155 93.4964 67.1941 93.2948C67.1727 93.0932 67.1353 92.9255 67.0818 92.7917C67.0282 92.6562 66.9542 92.5536 66.8597 92.484C66.7669 92.4127 66.6456 92.377 66.4958 92.377C66.3477 92.377 66.2255 92.4127 66.1292 92.484C66.0346 92.5536 65.9597 92.6579 65.9044 92.7971C65.8509 92.9327 65.8143 93.1039 65.7947 93.3108C65.7751 93.5178 65.7653 93.7515 65.7653 94.0119C65.7653 94.2902 65.7733 94.523 65.7894 94.7103C65.8072 94.8976 65.8447 95.0653 65.9017 95.2133C65.9535 95.3507 66.0266 95.4568 66.1212 95.5317C66.2175 95.6049 66.3424 95.6414 66.4958 95.6414C66.6438 95.6414 66.7651 95.6067 66.8597 95.5371C66.956 95.4657 67.0309 95.3605 67.0844 95.2213ZM70.8466 94.63H70.373V96H69.8592V94.63H68.0986V94.0681L69.8806 92.0158H70.373V94.2019H70.8466V94.63ZM69.8592 94.2019V92.6446L68.516 94.2019H69.8592Z" fill="#8C99B2"/>
<path d="M79.7694 94.0065C79.7694 94.7219 79.6651 95.2472 79.4564 95.5826C79.2494 95.9162 78.9292 96.0829 78.4958 96.0829C78.0569 96.0829 77.7349 95.9126 77.5298 95.5719C77.3247 95.2312 77.2221 94.7112 77.2221 94.0119C77.2221 93.293 77.3256 92.7677 77.5325 92.4359C77.7412 92.1023 78.0623 91.9355 78.4958 91.9355C78.9346 91.9355 79.2566 92.1076 79.4617 92.4519C79.6669 92.7962 79.7694 93.3144 79.7694 94.0065ZM79.0844 95.2213C79.1362 95.0893 79.1727 94.9226 79.1941 94.721C79.2155 94.5194 79.2263 94.2813 79.2263 94.0065C79.2263 93.7336 79.2155 93.4964 79.1941 93.2948C79.1727 93.0932 79.1353 92.9255 79.0818 92.7917C79.0282 92.6562 78.9542 92.5536 78.8597 92.484C78.7669 92.4127 78.6456 92.377 78.4958 92.377C78.3477 92.377 78.2255 92.4127 78.1292 92.484C78.0346 92.5536 77.9597 92.6579 77.9044 92.7971C77.8509 92.9327 77.8143 93.1039 77.7947 93.3108C77.7751 93.5178 77.7653 93.7515 77.7653 94.0119C77.7653 94.2902 77.7733 94.523 77.7894 94.7103C77.8072 94.8976 77.8447 95.0653 77.9017 95.2133C77.9535 95.3507 78.0266 95.4568 78.1212 95.5317C78.2175 95.6049 78.3424 95.6414 78.4958 95.6414C78.6438 95.6414 78.7651 95.6067 78.8597 95.5371C78.956 95.4657 79.0309 95.3605 79.0844 95.2213ZM82.6967 94.7317C82.6967 94.9243 82.6655 95.1027 82.6031 95.2668C82.5424 95.431 82.4568 95.5728 82.3462 95.6923C82.2338 95.8136 82.0938 95.909 81.9261 95.9786C81.7602 96.0482 81.5738 96.0829 81.3669 96.0829C81.176 96.0829 80.9878 96.0615 80.8023 96.0187C80.6185 95.9777 80.4589 95.9233 80.3233 95.8555V95.2909H80.3608C80.4018 95.3212 80.4607 95.356 80.5374 95.3953C80.6141 95.4327 80.6988 95.4684 80.7916 95.5023C80.8968 95.5398 80.9932 95.5692 81.0806 95.5906C81.168 95.6102 81.2661 95.62 81.3749 95.62C81.4819 95.62 81.5863 95.6013 81.688 95.5638C81.7896 95.5246 81.8771 95.4622 81.9502 95.3765C82.0162 95.2981 82.0661 95.2062 82.1 95.1009C82.1357 94.9957 82.1536 94.8717 82.1536 94.729C82.1536 94.5881 82.1339 94.4721 82.0947 94.3812C82.0572 94.2902 82.0019 94.2153 81.9288 94.1564C81.8521 94.0886 81.7575 94.0413 81.6452 94.0146C81.5346 93.986 81.4106 93.9718 81.2732 93.9718C81.1287 93.9718 80.9833 93.9834 80.8371 94.0065C80.6908 94.0279 80.574 94.0485 80.4865 94.0681V92.0158H82.6727V92.484H81.003V93.5436C81.0672 93.5365 81.1305 93.5311 81.1929 93.5276C81.2554 93.524 81.3125 93.5222 81.3642 93.5222C81.5676 93.5222 81.7397 93.5392 81.8806 93.5731C82.0215 93.607 82.1571 93.673 82.2873 93.7711C82.4193 93.871 82.5201 93.9958 82.5897 94.1457C82.6611 94.2955 82.6967 94.4909 82.6967 94.7317Z" fill="#8C99B2"/>
<path d="M91.7694 94.0065C91.7694 94.7219 91.6651 95.2472 91.4564 95.5826C91.2494 95.9162 90.9292 96.0829 90.4958 96.0829C90.0569 96.0829 89.7349 95.9126 89.5298 95.5719C89.3247 95.2312 89.2221 94.7112 89.2221 94.0119C89.2221 93.293 89.3256 92.7677 89.5325 92.4359C89.7412 92.1023 90.0623 91.9355 90.4958 91.9355C90.9346 91.9355 91.2566 92.1076 91.4617 92.4519C91.6669 92.7962 91.7694 93.3144 91.7694 94.0065ZM91.0844 95.2213C91.1362 95.0893 91.1727 94.9226 91.1941 94.721C91.2155 94.5194 91.2263 94.2813 91.2263 94.0065C91.2263 93.7336 91.2155 93.4964 91.1941 93.2948C91.1727 93.0932 91.1353 92.9255 91.0818 92.7917C91.0282 92.6562 90.9542 92.5536 90.8597 92.484C90.7669 92.4127 90.6456 92.377 90.4958 92.377C90.3477 92.377 90.2255 92.4127 90.1292 92.484C90.0346 92.5536 89.9597 92.6579 89.9044 92.7971C89.8509 92.9327 89.8143 93.1039 89.7947 93.3108C89.7751 93.5178 89.7653 93.7515 89.7653 94.0119C89.7653 94.2902 89.7733 94.523 89.7894 94.7103C89.8072 94.8976 89.8447 95.0653 89.9017 95.2133C89.9535 95.3507 90.0266 95.4568 90.1212 95.5317C90.2175 95.6049 90.3424 95.6414 90.4958 95.6414C90.6438 95.6414 90.7651 95.6067 90.8597 95.5371C90.956 95.4657 91.0309 95.3605 91.0844 95.2213ZM94.8038 94.7076C94.8038 94.9127 94.7699 95.1018 94.7021 95.2749C94.6343 95.4479 94.5433 95.5924 94.4292 95.7083C94.3096 95.8314 94.1759 95.9251 94.0278 95.9893C93.8797 96.0517 93.7165 96.0829 93.5381 96.0829C93.358 96.0829 93.1938 96.0526 93.0458 95.992C92.8995 95.9313 92.7702 95.8412 92.6578 95.7217C92.5204 95.5772 92.4125 95.3846 92.334 95.1437C92.2573 94.9011 92.219 94.6032 92.219 94.25C92.219 93.904 92.2546 93.5918 92.326 93.3135C92.3974 93.0335 92.5071 92.79 92.6551 92.583C92.7996 92.3815 92.986 92.2245 93.2144 92.1121C93.4427 91.9979 93.7067 91.9408 94.0064 91.9408C94.0956 91.9408 94.1785 91.9453 94.2552 91.9542C94.3319 91.9631 94.3997 91.9774 94.4586 91.997V92.5081H94.4345C94.3863 92.4813 94.3168 92.4573 94.2258 92.4359C94.1348 92.4127 94.0376 92.4011 93.9341 92.4011C93.6023 92.4011 93.3339 92.5135 93.1287 92.7382C92.9254 92.9612 92.805 93.293 92.7675 93.7336C92.8942 93.6444 93.0244 93.5757 93.1582 93.5276C93.292 93.4794 93.4382 93.4553 93.597 93.4553C93.7522 93.4553 93.8878 93.4714 94.0037 93.5035C94.1214 93.5338 94.2436 93.5963 94.3703 93.6908C94.5166 93.8014 94.6254 93.9414 94.6967 94.1109C94.7681 94.2804 94.8038 94.4793 94.8038 94.7076ZM94.2606 94.729C94.2606 94.5649 94.2392 94.4275 94.1964 94.3169C94.1536 94.2063 94.084 94.1118 93.9877 94.0333C93.9181 93.9762 93.8387 93.9388 93.7495 93.9209C93.6621 93.9031 93.572 93.8942 93.4793 93.8942C93.3544 93.8942 93.2331 93.9129 93.1154 93.9504C92.9976 93.9878 92.8817 94.0422 92.7675 94.1136C92.7639 94.1528 92.7613 94.1912 92.7595 94.2286C92.7577 94.2643 92.7568 94.3098 92.7568 94.3651C92.7568 94.6416 92.7836 94.8646 92.8371 95.034C92.8924 95.2035 92.9602 95.3319 93.0404 95.4194C93.1171 95.5032 93.1956 95.5621 93.2759 95.596C93.358 95.6299 93.4463 95.6468 93.5408 95.6468C93.7549 95.6468 93.9279 95.5701 94.0599 95.4167C94.1937 95.2633 94.2606 95.034 94.2606 94.729Z" fill="#8C99B2"/>
<path d="M103.769 94.0065C103.769 94.7219 103.665 95.2472 103.456 95.5826C103.249 95.9162 102.929 96.0829 102.496 96.0829C102.057 96.0829 101.735 95.9126 101.53 95.5719C101.325 95.2312 101.222 94.7112 101.222 94.0119C101.222 93.293 101.326 92.7677 101.532 92.4359C101.741 92.1023 102.062 91.9355 102.496 91.9355C102.935 91.9355 103.257 92.1076 103.462 92.4519C103.667 92.7962 103.769 93.3144 103.769 94.0065ZM103.084 95.2213C103.136 95.0893 103.173 94.9226 103.194 94.721C103.216 94.5194 103.226 94.2813 103.226 94.0065C103.226 93.7336 103.216 93.4964 103.194 93.2948C103.173 93.0932 103.135 92.9255 103.082 92.7917C103.028 92.6562 102.954 92.5536 102.86 92.484C102.767 92.4127 102.646 92.377 102.496 92.377C102.348 92.377 102.226 92.4127 102.129 92.484C102.035 92.5536 101.96 92.6579 101.904 92.7971C101.851 92.9327 101.814 93.1039 101.795 93.3108C101.775 93.5178 101.765 93.7515 101.765 94.0119C101.765 94.2902 101.773 94.523 101.789 94.7103C101.807 94.8976 101.845 95.0653 101.902 95.2133C101.953 95.3507 102.027 95.4568 102.121 95.5317C102.217 95.6049 102.342 95.6414 102.496 95.6414C102.644 95.6414 102.765 95.6067 102.86 95.5371C102.956 95.4657 103.031 95.3605 103.084 95.2213ZM106.785 92.6125L105.062 96H104.492L106.317 92.484H104.256V92.0158H106.785V92.6125Z" fill="#8C99B2"/>
<path d="M115.769 94.0065C115.769 94.7219 115.665 95.2472 115.456 95.5826C115.249 95.9162 114.929 96.0829 114.496 96.0829C114.057 96.0829 113.735 95.9126 113.53 95.5719C113.325 95.2312 113.222 94.7112 113.222 94.0119C113.222 93.293 113.326 92.7677 113.532 92.4359C113.741 92.1023 114.062 91.9355 114.496 91.9355C114.935 91.9355 115.257 92.1076 115.462 92.4519C115.667 92.7962 115.769 93.3144 115.769 94.0065ZM115.084 95.2213C115.136 95.0893 115.173 94.9226 115.194 94.721C115.216 94.5194 115.226 94.2813 115.226 94.0065C115.226 93.7336 115.216 93.4964 115.194 93.2948C115.173 93.0932 115.135 92.9255 115.082 92.7917C115.028 92.6562 114.954 92.5536 114.86 92.484C114.767 92.4127 114.646 92.377 114.496 92.377C114.348 92.377 114.226 92.4127 114.129 92.484C114.035 92.5536 113.96 92.6579 113.904 92.7971C113.851 92.9327 113.814 93.1039 113.795 93.3108C113.775 93.5178 113.765 93.7515 113.765 94.0119C113.765 94.2902 113.773 94.523 113.789 94.7103C113.807 94.8976 113.845 95.0653 113.902 95.2133C113.953 95.3507 114.027 95.4568 114.121 95.5317C114.217 95.6049 114.342 95.6414 114.496 95.6414C114.644 95.6414 114.765 95.6067 114.86 95.5371C114.956 95.4657 115.031 95.3605 115.084 95.2213ZM118.162 92.9443C118.162 92.7659 118.102 92.6169 117.982 92.4974C117.863 92.3779 117.697 92.3181 117.485 92.3181C117.29 92.3181 117.131 92.3716 117.006 92.4787C116.883 92.5857 116.821 92.7302 116.821 92.9121C116.821 93.0442 116.852 93.1556 116.915 93.2466C116.979 93.3376 117.074 93.4197 117.201 93.4928C117.256 93.5231 117.34 93.565 117.453 93.6186C117.567 93.6721 117.67 93.714 117.763 93.7443C117.918 93.6248 118.023 93.5026 118.079 93.3777C118.134 93.2511 118.162 93.1066 118.162 92.9443ZM118.237 94.9404C118.237 94.7763 118.204 94.6461 118.14 94.5497C118.076 94.4534 117.952 94.3553 117.768 94.2554C117.708 94.2215 117.626 94.1849 117.525 94.1457C117.425 94.1064 117.312 94.0601 117.185 94.0065C117.037 94.1047 116.924 94.226 116.845 94.3704C116.767 94.5132 116.727 94.6764 116.727 94.8601C116.727 95.1009 116.8 95.2998 116.944 95.4568C117.09 95.6138 117.273 95.6923 117.493 95.6923C117.717 95.6923 117.898 95.6254 118.033 95.4916C118.169 95.356 118.237 95.1723 118.237 94.9404ZM117.487 96.091C117.289 96.091 117.109 96.0615 116.947 96.0027C116.784 95.9438 116.646 95.8591 116.532 95.7485C116.42 95.6414 116.334 95.5148 116.275 95.3685C116.218 95.2205 116.19 95.0644 116.19 94.9003C116.19 94.6844 116.247 94.4864 116.361 94.3062C116.477 94.1243 116.644 93.9798 116.864 93.8728V93.8567C116.668 93.7425 116.522 93.6177 116.428 93.4821C116.333 93.3465 116.286 93.1771 116.286 92.9737C116.286 92.674 116.399 92.4243 116.626 92.2245C116.852 92.0247 117.139 91.9248 117.487 91.9248C117.849 91.9248 118.139 92.0202 118.357 92.2111C118.576 92.4002 118.686 92.6428 118.686 92.9389C118.686 93.1173 118.633 93.2939 118.528 93.4687C118.425 93.6435 118.275 93.78 118.079 93.8781V93.8942C118.311 94.003 118.486 94.135 118.606 94.2902C118.725 94.4454 118.785 94.6452 118.785 94.8896C118.785 95.2303 118.661 95.5157 118.413 95.7458C118.167 95.9759 117.858 96.091 117.487 96.091Z" fill="#8C99B2"/>
<path d="M127.769 94.0065C127.769 94.7219 127.665 95.2472 127.456 95.5826C127.249 95.9162 126.929 96.0829 126.496 96.0829C126.057 96.0829 125.735 95.9126 125.53 95.5719C125.325 95.2312 125.222 94.7112 125.222 94.0119C125.222 93.293 125.326 92.7677 125.532 92.4359C125.741 92.1023 126.062 91.9355 126.496 91.9355C126.935 91.9355 127.257 92.1076 127.462 92.4519C127.667 92.7962 127.769 93.3144 127.769 94.0065ZM127.084 95.2213C127.136 95.0893 127.173 94.9226 127.194 94.721C127.216 94.5194 127.226 94.2813 127.226 94.0065C127.226 93.7336 127.216 93.4964 127.194 93.2948C127.173 93.0932 127.135 92.9255 127.082 92.7917C127.028 92.6562 126.954 92.5536 126.86 92.484C126.767 92.4127 126.646 92.377 126.496 92.377C126.348 92.377 126.226 92.4127 126.129 92.484C126.035 92.5536 125.96 92.6579 125.904 92.7971C125.851 92.9327 125.814 93.1039 125.795 93.3108C125.775 93.5178 125.765 93.7515 125.765 94.0119C125.765 94.2902 125.773 94.523 125.789 94.7103C125.807 94.8976 125.845 95.0653 125.902 95.2133C125.953 95.3507 126.027 95.4568 126.121 95.5317C126.217 95.6049 126.342 95.6414 126.496 95.6414C126.644 95.6414 126.765 95.6067 126.86 95.5371C126.956 95.4657 127.031 95.3605 127.084 95.2213ZM130.218 93.6533C130.218 93.3822 130.193 93.1619 130.143 92.9924C130.093 92.8212 130.024 92.6892 129.937 92.5964C129.858 92.5108 129.779 92.4519 129.699 92.4198C129.618 92.3877 129.53 92.3716 129.434 92.3716C129.214 92.3716 129.04 92.4501 128.909 92.6071C128.779 92.7641 128.714 92.9915 128.714 93.2894C128.714 93.4571 128.735 93.5954 128.778 93.7042C128.821 93.813 128.891 93.9066 128.987 93.9851C129.055 94.0404 129.131 94.0779 129.217 94.0975C129.303 94.1154 129.395 94.1243 129.493 94.1243C129.607 94.1243 129.73 94.1047 129.862 94.0654C129.994 94.0244 130.109 93.9709 130.207 93.9049C130.209 93.8781 130.211 93.8433 130.212 93.8005C130.216 93.7559 130.218 93.7069 130.218 93.6533ZM128.171 93.3108C128.171 93.1057 128.204 92.9184 128.27 92.7489C128.338 92.5795 128.429 92.4332 128.545 92.3101C128.656 92.1924 128.791 92.1005 128.949 92.0345C129.11 91.9685 129.272 91.9355 129.436 91.9355C129.62 91.9355 129.786 91.9667 129.934 92.0291C130.084 92.0898 130.213 92.1781 130.322 92.294C130.459 92.4403 130.566 92.6321 130.641 92.8693C130.717 93.1066 130.756 93.4063 130.756 93.7684C130.756 94.0984 130.718 94.4115 130.643 94.7076C130.57 95.0019 130.461 95.2463 130.317 95.4408C130.163 95.6477 129.979 95.8056 129.763 95.9144C129.549 96.0232 129.284 96.0776 128.968 96.0776C128.897 96.0776 128.821 96.0731 128.741 96.0642C128.66 96.0571 128.586 96.0428 128.516 96.0214V95.5103H128.543C128.587 95.5353 128.657 95.5594 128.751 95.5826C128.846 95.6058 128.942 95.6174 129.04 95.6174C129.39 95.6174 129.665 95.5023 129.865 95.2722C130.064 95.0421 130.178 94.7129 130.204 94.2848C130.062 94.3812 129.925 94.4516 129.795 94.4962C129.667 94.5408 129.527 94.5631 129.375 94.5631C129.227 94.5631 129.092 94.5471 128.971 94.5149C128.85 94.4828 128.727 94.4204 128.604 94.3276C128.462 94.2188 128.354 94.0815 128.281 93.9156C128.207 93.7479 128.171 93.5463 128.171 93.3108Z" fill="#8C99B2"/>
<path d="M140.547 96H138.605V95.5933H139.327V92.9229H138.605V92.5589C138.878 92.5589 139.078 92.5206 139.207 92.4439C139.337 92.3654 139.41 92.2182 139.426 92.0024H139.841V95.5933H140.547V96ZM143.761 94.0065C143.761 94.7219 143.657 95.2472 143.448 95.5826C143.241 95.9162 142.921 96.0829 142.487 96.0829C142.048 96.0829 141.726 95.9126 141.521 95.5719C141.316 95.2312 141.214 94.7112 141.214 94.0119C141.214 93.293 141.317 92.7677 141.524 92.4359C141.733 92.1023 142.054 91.9355 142.487 91.9355C142.926 91.9355 143.248 92.1076 143.453 92.4519C143.658 92.7962 143.761 93.3144 143.761 94.0065ZM143.076 95.2213C143.128 95.0893 143.164 94.9226 143.186 94.721C143.207 94.5194 143.218 94.2813 143.218 94.0065C143.218 93.7336 143.207 93.4964 143.186 93.2948C143.164 93.0932 143.127 92.9255 143.073 92.7917C143.02 92.6562 142.946 92.5536 142.851 92.484C142.758 92.4127 142.637 92.377 142.487 92.377C142.339 92.377 142.217 92.4127 142.121 92.484C142.026 92.5536 141.951 92.6579 141.896 92.7971C141.842 92.9327 141.806 93.1039 141.786 93.3108C141.767 93.5178 141.757 93.7515 141.757 94.0119C141.757 94.2902 141.765 94.523 141.781 94.7103C141.799 94.8976 141.836 95.0653 141.893 95.2133C141.945 95.3507 142.018 95.4568 142.113 95.5317C142.209 95.6049 142.334 95.6414 142.487 95.6414C142.635 95.6414 142.757 95.6067 142.851 95.5371C142.948 95.4657 143.022 95.3605 143.076 95.2213Z" fill="#8C99B2"/>
<path d="M152.547 96H150.605V95.5933H151.327V92.9229H150.605V92.5589C150.878 92.5589 151.078 92.5206 151.207 92.4439C151.337 92.3654 151.41 92.2182 151.426 92.0024H151.841V95.5933H152.547V96ZM155.539 96H153.596V95.5933H154.319V92.9229H153.596V92.5589C153.869 92.5589 154.07 92.5206 154.198 92.4439C154.329 92.3654 154.402 92.2182 154.418 92.0024H154.832V95.5933H155.539V96Z" fill="#8C99B2"/>
<path d="M164.547 95.9998H162.605V95.5931H163.327V92.9227H162.605V92.5587C162.878 92.5587 163.078 92.5204 163.207 92.4437C163.337 92.3652 163.41 92.218 163.426 92.0022H163.841V95.5931H164.547V95.9998ZM167.742 95.9998H165.283V95.4406C165.46 95.2729 165.627 95.1123 165.784 94.9589C165.941 94.8055 166.094 94.6459 166.244 94.48C166.547 94.1464 166.754 93.8797 166.865 93.6799C166.975 93.4783 167.03 93.2705 167.03 93.0564C167.03 92.9458 167.013 92.8486 166.977 92.7648C166.943 92.6809 166.896 92.6114 166.835 92.5561C166.773 92.5026 166.7 92.4624 166.618 92.4357C166.536 92.4089 166.446 92.3955 166.348 92.3955C166.254 92.3955 166.157 92.408 166.059 92.433C165.963 92.4562 165.87 92.4856 165.781 92.5213C165.706 92.5516 165.634 92.5882 165.564 92.631C165.495 92.6738 165.438 92.7104 165.396 92.7407H165.366V92.1734C165.477 92.1181 165.63 92.0646 165.826 92.0129C166.024 91.9594 166.212 91.9326 166.388 91.9326C166.759 91.9326 167.05 92.0316 167.261 92.2296C167.471 92.4258 167.576 92.6925 167.576 93.0297C167.576 93.1849 167.558 93.3285 167.52 93.4605C167.484 93.5925 167.435 93.7147 167.37 93.8271C167.304 93.943 167.225 94.0581 167.132 94.1722C167.039 94.2864 166.941 94.3988 166.838 94.5094C166.67 94.6913 166.483 94.8804 166.276 95.0767C166.071 95.2729 165.907 95.4281 165.784 95.5422H167.742V95.9998Z" fill="#8C99B2"/>
<path d="M176.547 95.9998H174.605V95.5931H175.327V92.9227H174.605V92.5587C174.878 92.5587 175.078 92.5204 175.207 92.4437C175.337 92.3652 175.41 92.218 175.426 92.0022H175.841V95.5931H176.547V95.9998ZM178.359 92.3955C178.263 92.3955 178.166 92.4071 178.07 92.4303C177.974 92.4535 177.879 92.4838 177.786 92.5213C177.701 92.557 177.626 92.5944 177.561 92.6337C177.499 92.6729 177.443 92.7095 177.393 92.7434H177.361V92.1788C177.477 92.1163 177.634 92.0602 177.832 92.0102C178.032 91.9585 178.221 91.9326 178.402 91.9326C178.582 91.9326 178.739 91.9513 178.873 91.9888C179.008 92.0245 179.13 92.0807 179.239 92.1574C179.357 92.243 179.445 92.3465 179.504 92.4678C179.565 92.5891 179.595 92.7309 179.595 92.8932C179.595 93.1126 179.523 93.3053 179.378 93.4712C179.234 93.6371 179.061 93.7423 178.859 93.7869V93.8244C178.943 93.8404 179.032 93.8681 179.127 93.9073C179.223 93.9466 179.312 94.0046 179.394 94.0813C179.476 94.158 179.543 94.257 179.595 94.3783C179.647 94.4978 179.673 94.6441 179.673 94.8171C179.673 94.9973 179.641 95.1632 179.579 95.3148C179.518 95.4646 179.432 95.5975 179.319 95.7135C179.204 95.8348 179.063 95.9267 178.899 95.9891C178.735 96.0515 178.549 96.0827 178.34 96.0827C178.14 96.0827 177.942 96.0587 177.746 96.0105C177.55 95.9623 177.385 95.9044 177.251 95.8366V95.272H177.289C177.401 95.354 177.552 95.4325 177.741 95.5075C177.93 95.5824 178.119 95.6198 178.308 95.6198C178.417 95.6198 178.526 95.6029 178.634 95.569C178.745 95.5333 178.837 95.4762 178.91 95.3977C178.981 95.3193 179.036 95.2327 179.073 95.1382C179.111 95.0437 179.129 94.9241 179.129 94.7796C179.129 94.6352 179.108 94.5165 179.065 94.4238C179.024 94.331 178.966 94.2579 178.891 94.2044C178.816 94.1508 178.727 94.1143 178.624 94.0946C178.522 94.0732 178.411 94.0625 178.292 94.0625H178.065V93.6184H178.241C178.482 93.6184 178.677 93.5613 178.827 93.4471C178.979 93.3329 179.055 93.167 179.055 92.9494C179.055 92.8495 179.035 92.7639 178.996 92.6925C178.956 92.6194 178.906 92.5614 178.846 92.5186C178.778 92.4722 178.703 92.4401 178.621 92.4223C178.539 92.4044 178.452 92.3955 178.359 92.3955Z" fill="#8C99B2"/>
<path d="M189.547 96H187.605V95.5933H188.327V92.9229H187.605V92.5589C187.878 92.5589 188.078 92.5206 188.207 92.4439C188.337 92.3654 188.41 92.2182 188.426 92.0024H188.841V95.5933H189.547V96ZM192.847 94.63H192.373V96H191.859V94.63H190.099V94.0681L191.881 92.0158H192.373V94.2019H192.847V94.63ZM191.859 94.2019V92.6446L190.516 94.2019H191.859Z" fill="#8C99B2"/>
<path d="M201.547 96H199.605V95.5933H200.327V92.9229H199.605V92.5589C199.878 92.5589 200.078 92.5206 200.207 92.4439C200.337 92.3654 200.41 92.2182 200.426 92.0024H200.841V95.5933H201.547V96ZM204.697 94.7317C204.697 94.9243 204.666 95.1027 204.603 95.2668C204.542 95.431 204.457 95.5728 204.346 95.6923C204.234 95.8136 204.094 95.909 203.926 95.9786C203.76 96.0482 203.574 96.0829 203.367 96.0829C203.176 96.0829 202.988 96.0615 202.802 96.0187C202.619 95.9777 202.459 95.9233 202.323 95.8555V95.2909H202.361C202.402 95.3212 202.461 95.356 202.537 95.3953C202.614 95.4327 202.699 95.4684 202.792 95.5023C202.897 95.5398 202.993 95.5692 203.081 95.5906C203.168 95.6102 203.266 95.62 203.375 95.62C203.482 95.62 203.586 95.6013 203.688 95.5638C203.79 95.5246 203.877 95.4622 203.95 95.3765C204.016 95.2981 204.066 95.2062 204.1 95.1009C204.136 94.9957 204.154 94.8717 204.154 94.729C204.154 94.5881 204.134 94.4721 204.095 94.3812C204.057 94.2902 204.002 94.2153 203.929 94.1564C203.852 94.0886 203.758 94.0413 203.645 94.0146C203.535 93.986 203.411 93.9718 203.273 93.9718C203.129 93.9718 202.983 93.9834 202.837 94.0065C202.691 94.0279 202.574 94.0485 202.487 94.0681V92.0158H204.673V92.484H203.003V93.5436C203.067 93.5365 203.131 93.5311 203.193 93.5276C203.255 93.524 203.312 93.5222 203.364 93.5222C203.568 93.5222 203.74 93.5392 203.881 93.5731C204.022 93.607 204.157 93.673 204.287 93.7711C204.419 93.871 204.52 93.9958 204.59 94.1457C204.661 94.2955 204.697 94.4909 204.697 94.7317Z" fill="#8C99B2"/>
<path d="M213.547 96.0001H211.605V95.5934H212.327V92.923H211.605V92.559C211.878 92.559 212.078 92.5207 212.207 92.444C212.337 92.3655 212.41 92.2183 212.426 92.0025H212.841V95.5934H213.547V96.0001ZM216.804 94.7077C216.804 94.9128 216.77 95.1019 216.702 95.275C216.634 95.448 216.543 95.5925 216.429 95.7084C216.31 95.8315 216.176 95.9252 216.028 95.9894C215.88 96.0518 215.717 96.083 215.538 96.083C215.358 96.083 215.194 96.0527 215.046 95.9921C214.9 95.9314 214.77 95.8413 214.658 95.7218C214.52 95.5773 214.413 95.3847 214.334 95.1438C214.257 94.9012 214.219 94.6033 214.219 94.2501C214.219 93.9041 214.255 93.5919 214.326 93.3136C214.397 93.0336 214.507 92.7901 214.655 92.5831C214.8 92.3816 214.986 92.2246 215.214 92.1122C215.443 91.998 215.707 91.9409 216.006 91.9409C216.096 91.9409 216.179 91.9454 216.255 91.9543C216.332 91.9632 216.4 91.9775 216.459 91.9971V92.5082H216.435C216.386 92.4814 216.317 92.4574 216.226 92.436C216.135 92.4128 216.038 92.4012 215.934 92.4012C215.602 92.4012 215.334 92.5136 215.129 92.7383C214.925 92.9613 214.805 93.2931 214.768 93.7337C214.894 93.6445 215.024 93.5758 215.158 93.5277C215.292 93.4795 215.438 93.4554 215.597 93.4554C215.752 93.4554 215.888 93.4715 216.004 93.5036C216.121 93.5339 216.244 93.5964 216.37 93.6909C216.517 93.8015 216.625 93.9415 216.697 94.111C216.768 94.2805 216.804 94.4794 216.804 94.7077ZM216.261 94.7291C216.261 94.565 216.239 94.4276 216.196 94.317C216.154 94.2064 216.084 94.1119 215.988 94.0334C215.918 93.9763 215.839 93.9389 215.75 93.921C215.662 93.9032 215.572 93.8943 215.479 93.8943C215.354 93.8943 215.233 93.913 215.115 93.9505C214.998 93.9879 214.882 94.0423 214.768 94.1137C214.764 94.1529 214.761 94.1913 214.759 94.2287C214.758 94.2644 214.757 94.3099 214.757 94.3652C214.757 94.6417 214.784 94.8647 214.837 95.0341C214.892 95.2036 214.96 95.332 215.04 95.4195C215.117 95.5033 215.196 95.5622 215.276 95.5961C215.358 95.63 215.446 95.6469 215.541 95.6469C215.755 95.6469 215.928 95.5702 216.06 95.4168C216.194 95.2634 216.261 95.0341 216.261 94.7291Z" fill="#8C99B2"/>
<path d="M227.547 96H225.605V95.5933H226.327V92.9229H225.605V92.5589C225.878 92.5589 226.078 92.5206 226.207 92.4439C226.337 92.3654 226.41 92.2182 226.426 92.0024H226.841V95.5933H227.547V96ZM230.785 92.6125L229.062 96H228.492L230.317 92.484H228.256V92.0158H230.785V92.6125Z" fill="#8C99B2"/>
<path d="M238.547 96H236.605V95.5933H237.327V92.9229H236.605V92.5589C236.878 92.5589 237.078 92.5206 237.207 92.4439C237.337 92.3654 237.41 92.2182 237.426 92.0024H237.841V95.5933H238.547V96ZM241.162 92.9443C241.162 92.7659 241.102 92.6169 240.982 92.4974C240.863 92.3779 240.697 92.3181 240.485 92.3181C240.29 92.3181 240.131 92.3716 240.006 92.4787C239.883 92.5857 239.821 92.7302 239.821 92.9121C239.821 93.0442 239.852 93.1556 239.915 93.2466C239.979 93.3376 240.074 93.4197 240.201 93.4928C240.256 93.5231 240.34 93.565 240.453 93.6186C240.567 93.6721 240.67 93.714 240.763 93.7443C240.918 93.6248 241.023 93.5026 241.079 93.3777C241.134 93.2511 241.162 93.1066 241.162 92.9443ZM241.237 94.9404C241.237 94.7763 241.204 94.6461 241.14 94.5497C241.076 94.4534 240.952 94.3553 240.768 94.2554C240.708 94.2215 240.626 94.1849 240.525 94.1457C240.425 94.1064 240.312 94.0601 240.185 94.0065C240.037 94.1047 239.924 94.226 239.845 94.3704C239.767 94.5132 239.727 94.6764 239.727 94.8601C239.727 95.1009 239.8 95.2998 239.944 95.4568C240.09 95.6138 240.273 95.6923 240.493 95.6923C240.717 95.6923 240.898 95.6254 241.033 95.4916C241.169 95.356 241.237 95.1723 241.237 94.9404ZM240.487 96.091C240.289 96.091 240.109 96.0615 239.947 96.0027C239.784 95.9438 239.646 95.8591 239.532 95.7485C239.42 95.6414 239.334 95.5148 239.275 95.3685C239.218 95.2205 239.19 95.0644 239.19 94.9003C239.19 94.6844 239.247 94.4864 239.361 94.3062C239.477 94.1243 239.644 93.9798 239.864 93.8728V93.8567C239.668 93.7425 239.522 93.6177 239.428 93.4821C239.333 93.3465 239.286 93.1771 239.286 92.9737C239.286 92.674 239.399 92.4243 239.626 92.2245C239.852 92.0247 240.139 91.9248 240.487 91.9248C240.849 91.9248 241.139 92.0202 241.357 92.2111C241.576 92.4002 241.686 92.6428 241.686 92.9389C241.686 93.1173 241.633 93.2939 241.528 93.4687C241.425 93.6435 241.275 93.78 241.079 93.8781V93.8942C241.311 94.003 241.486 94.135 241.606 94.2902C241.725 94.4454 241.785 94.6452 241.785 94.8896C241.785 95.2303 241.661 95.5157 241.413 95.7458C241.167 95.9759 240.858 96.091 240.487 96.091Z" fill="#8C99B2"/>
<path d="M251.547 96H249.605V95.5933H250.327V92.9229H249.605V92.5589C249.878 92.5589 250.078 92.5206 250.207 92.4439C250.337 92.3654 250.41 92.2182 250.426 92.0024H250.841V95.5933H251.547V96ZM254.218 93.6533C254.218 93.3822 254.193 93.1619 254.143 92.9924C254.093 92.8212 254.024 92.6892 253.937 92.5964C253.858 92.5108 253.779 92.4519 253.699 92.4198C253.618 92.3877 253.53 92.3716 253.434 92.3716C253.214 92.3716 253.04 92.4501 252.909 92.6071C252.779 92.7641 252.714 92.9915 252.714 93.2894C252.714 93.4571 252.735 93.5954 252.778 93.7042C252.821 93.813 252.891 93.9066 252.987 93.9851C253.055 94.0404 253.131 94.0779 253.217 94.0975C253.303 94.1154 253.395 94.1243 253.493 94.1243C253.607 94.1243 253.73 94.1047 253.862 94.0654C253.994 94.0244 254.109 93.9709 254.207 93.9049C254.209 93.8781 254.211 93.8433 254.212 93.8005C254.216 93.7559 254.218 93.7069 254.218 93.6533ZM252.171 93.3108C252.171 93.1057 252.204 92.9184 252.27 92.7489C252.338 92.5795 252.429 92.4332 252.545 92.3101C252.656 92.1924 252.791 92.1005 252.949 92.0345C253.11 91.9685 253.272 91.9355 253.436 91.9355C253.62 91.9355 253.786 91.9667 253.934 92.0291C254.084 92.0898 254.213 92.1781 254.322 92.294C254.459 92.4403 254.566 92.6321 254.641 92.8693C254.717 93.1066 254.756 93.4063 254.756 93.7684C254.756 94.0984 254.718 94.4115 254.643 94.7076C254.57 95.0019 254.461 95.2463 254.317 95.4408C254.163 95.6477 253.979 95.8056 253.763 95.9144C253.549 96.0232 253.284 96.0776 252.968 96.0776C252.897 96.0776 252.821 96.0731 252.741 96.0642C252.66 96.0571 252.586 96.0428 252.516 96.0214V95.5103H252.543C252.587 95.5353 252.657 95.5594 252.751 95.5826C252.846 95.6058 252.942 95.6174 253.04 95.6174C253.39 95.6174 253.665 95.5023 253.865 95.2722C254.064 95.0421 254.178 94.7129 254.204 94.2848C254.062 94.3812 253.925 94.4516 253.795 94.4962C253.667 94.5408 253.527 94.5631 253.375 94.5631C253.227 94.5631 253.092 94.5471 252.971 94.5149C252.85 94.4828 252.727 94.4204 252.604 94.3276C252.462 94.2188 252.354 94.0815 252.281 93.9156C252.207 93.7479 252.171 93.5463 252.171 93.3108Z" fill="#8C99B2"/>
<path d="M262.751 95.9998H260.292V95.4406C260.468 95.2729 260.635 95.1123 260.792 94.9589C260.949 94.8055 261.102 94.6459 261.252 94.48C261.556 94.1464 261.762 93.8797 261.873 93.6799C261.984 93.4783 262.039 93.2705 262.039 93.0564C262.039 92.9458 262.021 92.8486 261.985 92.7648C261.952 92.6809 261.904 92.6114 261.844 92.5561C261.781 92.5026 261.709 92.4624 261.627 92.4357C261.545 92.4089 261.455 92.3955 261.357 92.3955C261.262 92.3955 261.166 92.408 261.068 92.433C260.971 92.4562 260.879 92.4856 260.789 92.5213C260.714 92.5516 260.642 92.5882 260.573 92.631C260.503 92.6738 260.447 92.7104 260.404 92.7407H260.375V92.1734C260.485 92.1181 260.639 92.0646 260.835 92.0129C261.033 91.9594 261.22 91.9326 261.397 91.9326C261.768 91.9326 262.059 92.0316 262.269 92.2296C262.48 92.4258 262.585 92.6925 262.585 93.0297C262.585 93.1849 262.566 93.3285 262.529 93.4605C262.493 93.5925 262.443 93.7147 262.379 93.8271C262.313 93.943 262.233 94.0581 262.141 94.1722C262.048 94.2864 261.95 94.3988 261.846 94.5094C261.679 94.6913 261.491 94.8804 261.284 95.0767C261.079 95.2729 260.915 95.4281 260.792 95.5422H262.751V95.9998ZM265.761 94.0063C265.761 94.7217 265.657 95.247 265.448 95.5824C265.241 95.916 264.921 96.0827 264.487 96.0827C264.048 96.0827 263.726 95.9124 263.521 95.5717C263.316 95.231 263.214 94.711 263.214 94.0117C263.214 93.2928 263.317 92.7675 263.524 92.4357C263.733 92.1021 264.054 91.9353 264.487 91.9353C264.926 91.9353 265.248 92.1074 265.453 92.4517C265.658 92.796 265.761 93.3142 265.761 94.0063ZM265.076 95.2211C265.128 95.0891 265.164 94.9224 265.186 94.7208C265.207 94.5192 265.218 94.2811 265.218 94.0063C265.218 93.7334 265.207 93.4962 265.186 93.2946C265.164 93.093 265.127 92.9253 265.073 92.7915C265.02 92.656 264.946 92.5534 264.851 92.4838C264.758 92.4125 264.637 92.3768 264.487 92.3768C264.339 92.3768 264.217 92.4125 264.121 92.4838C264.026 92.5534 263.951 92.6577 263.896 92.7969C263.842 92.9325 263.806 93.1037 263.786 93.3106C263.767 93.5176 263.757 93.7513 263.757 94.0117C263.757 94.29 263.765 94.5228 263.781 94.7101C263.799 94.8974 263.836 95.0651 263.893 95.2131C263.945 95.3505 264.018 95.4566 264.113 95.5315C264.209 95.6047 264.334 95.6412 264.487 95.6412C264.635 95.6412 264.757 95.6065 264.851 95.5369C264.948 95.4655 265.022 95.3603 265.076 95.2211Z" fill="#8C99B2"/>
<path d="M274.751 95.9998H272.292V95.4406C272.468 95.2729 272.635 95.1123 272.792 94.9589C272.949 94.8055 273.102 94.6459 273.252 94.48C273.556 94.1464 273.762 93.8797 273.873 93.6799C273.984 93.4783 274.039 93.2705 274.039 93.0564C274.039 92.9458 274.021 92.8486 273.985 92.7648C273.952 92.6809 273.904 92.6114 273.844 92.5561C273.781 92.5026 273.709 92.4624 273.627 92.4357C273.545 92.4089 273.455 92.3955 273.357 92.3955C273.262 92.3955 273.166 92.408 273.068 92.433C272.971 92.4562 272.879 92.4856 272.789 92.5213C272.714 92.5516 272.642 92.5882 272.573 92.631C272.503 92.6738 272.447 92.7104 272.404 92.7407H272.375V92.1734C272.485 92.1181 272.639 92.0646 272.835 92.0129C273.033 91.9594 273.22 91.9326 273.397 91.9326C273.768 91.9326 274.059 92.0316 274.269 92.2296C274.48 92.4258 274.585 92.6925 274.585 93.0297C274.585 93.1849 274.566 93.3285 274.529 93.4605C274.493 93.5925 274.443 93.7147 274.379 93.8271C274.313 93.943 274.233 94.0581 274.141 94.1722C274.048 94.2864 273.95 94.3988 273.846 94.5094C273.679 94.6913 273.491 94.8804 273.284 95.0767C273.079 95.2729 272.915 95.4281 272.792 95.5422H274.751V95.9998ZM277.539 95.9998H275.596V95.5931H276.319V92.9227H275.596V92.5587C275.869 92.5587 276.07 92.5204 276.198 92.4437C276.329 92.3652 276.402 92.218 276.418 92.0022H276.832V95.5931H277.539V95.9998Z" fill="#8C99B2"/>
<path d="M285.751 95.9998H283.292V95.4406C283.468 95.2729 283.635 95.1123 283.792 94.9589C283.949 94.8055 284.102 94.6459 284.252 94.48C284.556 94.1464 284.762 93.8797 284.873 93.6799C284.984 93.4783 285.039 93.2705 285.039 93.0564C285.039 92.9458 285.021 92.8486 284.985 92.7648C284.952 92.6809 284.904 92.6114 284.844 92.5561C284.781 92.5026 284.709 92.4624 284.627 92.4357C284.545 92.4089 284.455 92.3955 284.357 92.3955C284.262 92.3955 284.166 92.408 284.068 92.433C283.971 92.4562 283.879 92.4856 283.789 92.5213C283.714 92.5516 283.642 92.5882 283.573 92.631C283.503 92.6738 283.447 92.7104 283.404 92.7407H283.375V92.1734C283.485 92.1181 283.639 92.0646 283.835 92.0129C284.033 91.9594 284.22 91.9326 284.397 91.9326C284.768 91.9326 285.059 92.0316 285.269 92.2296C285.48 92.4258 285.585 92.6925 285.585 93.0297C285.585 93.1849 285.566 93.3285 285.529 93.4605C285.493 93.5925 285.443 93.7147 285.379 93.8271C285.313 93.943 285.233 94.0581 285.141 94.1722C285.048 94.2864 284.95 94.3988 284.846 94.5094C284.679 94.6913 284.491 94.8804 284.284 95.0767C284.079 95.2729 283.915 95.4281 283.792 95.5422H285.751V95.9998ZM288.742 95.9998H286.283V95.4406C286.46 95.2729 286.627 95.1123 286.784 94.9589C286.941 94.8055 287.094 94.6459 287.244 94.48C287.547 94.1464 287.754 93.8797 287.865 93.6799C287.975 93.4783 288.03 93.2705 288.03 93.0564C288.03 92.9458 288.013 92.8486 287.977 92.7648C287.943 92.6809 287.896 92.6114 287.835 92.5561C287.773 92.5026 287.7 92.4624 287.618 92.4357C287.536 92.4089 287.446 92.3955 287.348 92.3955C287.254 92.3955 287.157 92.408 287.059 92.433C286.963 92.4562 286.87 92.4856 286.781 92.5213C286.706 92.5516 286.634 92.5882 286.564 92.631C286.495 92.6738 286.438 92.7104 286.396 92.7407H286.366V92.1734C286.477 92.1181 286.63 92.0646 286.826 92.0129C287.024 91.9594 287.212 91.9326 287.388 91.9326C287.759 91.9326 288.05 92.0316 288.261 92.2296C288.471 92.4258 288.576 92.6925 288.576 93.0297C288.576 93.1849 288.558 93.3285 288.52 93.4605C288.484 93.5925 288.435 93.7147 288.37 93.8271C288.304 93.943 288.225 94.0581 288.132 94.1722C288.039 94.2864 287.941 94.3988 287.838 94.5094C287.67 94.6913 287.483 94.8804 287.276 95.0767C287.071 95.2729 286.907 95.4281 286.784 95.5422H288.742V95.9998Z" fill="#8C99B2"/>
<path d="M298.751 95.9998H296.292V95.4406C296.468 95.2729 296.635 95.1123 296.792 94.9589C296.949 94.8055 297.102 94.6459 297.252 94.48C297.556 94.1464 297.762 93.8797 297.873 93.6799C297.984 93.4783 298.039 93.2705 298.039 93.0564C298.039 92.9458 298.021 92.8486 297.985 92.7648C297.952 92.6809 297.904 92.6114 297.844 92.5561C297.781 92.5026 297.709 92.4624 297.627 92.4357C297.545 92.4089 297.455 92.3955 297.357 92.3955C297.262 92.3955 297.166 92.408 297.068 92.433C296.971 92.4562 296.879 92.4856 296.789 92.5213C296.714 92.5516 296.642 92.5882 296.573 92.631C296.503 92.6738 296.447 92.7104 296.404 92.7407H296.375V92.1734C296.485 92.1181 296.639 92.0646 296.835 92.0129C297.033 91.9594 297.22 91.9326 297.397 91.9326C297.768 91.9326 298.059 92.0316 298.269 92.2296C298.48 92.4258 298.585 92.6925 298.585 93.0297C298.585 93.1849 298.566 93.3285 298.529 93.4605C298.493 93.5925 298.443 93.7147 298.379 93.8271C298.313 93.943 298.233 94.0581 298.141 94.1722C298.048 94.2864 297.95 94.3988 297.846 94.5094C297.679 94.6913 297.491 94.8804 297.284 95.0767C297.079 95.2729 296.915 95.4281 296.792 95.5422H298.751V95.9998ZM300.359 92.3955C300.263 92.3955 300.166 92.4071 300.07 92.4303C299.974 92.4535 299.879 92.4838 299.786 92.5213C299.701 92.557 299.626 92.5944 299.561 92.6337C299.499 92.6729 299.443 92.7095 299.393 92.7434H299.361V92.1788C299.477 92.1163 299.634 92.0602 299.832 92.0102C300.032 91.9585 300.221 91.9326 300.402 91.9326C300.582 91.9326 300.739 91.9513 300.873 91.9888C301.008 92.0245 301.13 92.0807 301.239 92.1574C301.357 92.243 301.445 92.3465 301.504 92.4678C301.565 92.5891 301.595 92.7309 301.595 92.8932C301.595 93.1126 301.523 93.3053 301.378 93.4712C301.234 93.6371 301.061 93.7423 300.859 93.7869V93.8244C300.943 93.8404 301.032 93.8681 301.127 93.9073C301.223 93.9466 301.312 94.0046 301.394 94.0813C301.476 94.158 301.543 94.257 301.595 94.3783C301.647 94.4978 301.673 94.6441 301.673 94.8171C301.673 94.9973 301.641 95.1632 301.579 95.3148C301.518 95.4646 301.432 95.5975 301.319 95.7135C301.204 95.8348 301.063 95.9267 300.899 95.9891C300.735 96.0515 300.549 96.0827 300.34 96.0827C300.14 96.0827 299.942 96.0587 299.746 96.0105C299.55 95.9623 299.385 95.9044 299.251 95.8366V95.272H299.289C299.401 95.354 299.552 95.4325 299.741 95.5075C299.93 95.5824 300.119 95.6198 300.308 95.6198C300.417 95.6198 300.526 95.6029 300.634 95.569C300.745 95.5333 300.837 95.4762 300.91 95.3977C300.981 95.3193 301.036 95.2327 301.073 95.1382C301.111 95.0437 301.129 94.9241 301.129 94.7796C301.129 94.6352 301.108 94.5165 301.065 94.4238C301.024 94.331 300.966 94.2579 300.891 94.2044C300.816 94.1508 300.727 94.1143 300.624 94.0946C300.522 94.0732 300.411 94.0625 300.292 94.0625H300.065V93.6184H300.241C300.482 93.6184 300.677 93.5613 300.827 93.4471C300.979 93.3329 301.055 93.167 301.055 92.9494C301.055 92.8495 301.035 92.7639 300.996 92.6925C300.956 92.6194 300.906 92.5614 300.846 92.5186C300.778 92.4722 300.703 92.4401 300.621 92.4223C300.539 92.4044 300.452 92.3955 300.359 92.3955Z" fill="#8C99B2"/>
<path d="M310.751 95.9998H308.292V95.4406C308.468 95.2729 308.635 95.1123 308.792 94.9589C308.949 94.8055 309.102 94.6459 309.252 94.48C309.556 94.1464 309.762 93.8797 309.873 93.6799C309.984 93.4783 310.039 93.2705 310.039 93.0564C310.039 92.9458 310.021 92.8486 309.985 92.7648C309.952 92.6809 309.904 92.6114 309.844 92.5561C309.781 92.5026 309.709 92.4624 309.627 92.4357C309.545 92.4089 309.455 92.3955 309.357 92.3955C309.262 92.3955 309.166 92.408 309.068 92.433C308.971 92.4562 308.879 92.4856 308.789 92.5213C308.714 92.5516 308.642 92.5882 308.573 92.631C308.503 92.6738 308.447 92.7104 308.404 92.7407H308.375V92.1734C308.485 92.1181 308.639 92.0646 308.835 92.0129C309.033 91.9594 309.22 91.9326 309.397 91.9326C309.768 91.9326 310.059 92.0316 310.269 92.2296C310.48 92.4258 310.585 92.6925 310.585 93.0297C310.585 93.1849 310.566 93.3285 310.529 93.4605C310.493 93.5925 310.443 93.7147 310.379 93.8271C310.313 93.943 310.233 94.0581 310.141 94.1722C310.048 94.2864 309.95 94.3988 309.846 94.5094C309.679 94.6913 309.491 94.8804 309.284 95.0767C309.079 95.2729 308.915 95.4281 308.792 95.5422H310.751V95.9998ZM313.847 94.6298H313.373V95.9998H312.859V94.6298H311.099V94.0679L312.881 92.0156H313.373V94.2017H313.847V94.6298ZM312.859 94.2017V92.6444L311.516 94.2017H312.859Z" fill="#8C99B2"/>
<path d="M316.5 88H13" stroke="#8C99B2" stroke-width="0.5"/>
<path d="M12.4753 17.9419V88.1711" stroke="#8C99B2"/>
<path opacity="0.1" d="M24.5784 17.9097V88.1709" stroke="#8C99B2"/>
<path opacity="0.1" d="M36.6814 17.9097V88.1709" stroke="#8C99B2"/>
<path opacity="0.1" d="M48.8752 17.9097V88.1709" stroke="#8C99B2"/>
<path opacity="0.1" d="M61.0691 17.9097V88.1709" stroke="#8C99B2"/>
<path opacity="0.1" d="M73.2627 17.9097V88.1709" stroke="#8C99B2"/>
<path opacity="0.1" d="M85.4565 17.9097V88.1709" stroke="#8C99B2"/>
<path opacity="0.1" d="M97.6504 17.9097V88.1709" stroke="#8C99B2"/>
<path opacity="0.1" d="M109.844 17.9097V88.1709" stroke="#8C99B2"/>
<path opacity="0.1" d="M122.038 17.9097V88.1709" stroke="#8C99B2"/>
<path opacity="0.1" d="M316 28H12" stroke="#8C99B2"/>
<path opacity="0.1" d="M316 18H12" stroke="#8C99B2"/>
<path opacity="0.1" d="M316 38H12" stroke="#8C99B2"/>
<path opacity="0.1" d="M316 48H12" stroke="#8C99B2"/>
<path opacity="0.1" d="M316 58H12" stroke="#8C99B2"/>
<path opacity="0.1" d="M316 68H12" stroke="#8C99B2"/>
<path opacity="0.1" d="M316 78H12" stroke="#8C99B2"/>
<path opacity="0.1" d="M134.232 17.9097V88.1709" stroke="#8C99B2"/>
<path opacity="0.1" d="M146.426 17.9097V88.1709" stroke="#8C99B2"/>
<path opacity="0.1" d="M158.619 17.9097V88.1709" stroke="#8C99B2"/>
<path opacity="0.1" d="M170.813 17.9097V88.1709" stroke="#8C99B2"/>
<path opacity="0.1" d="M183.007 17.9097V88.1709" stroke="#8C99B2"/>
<path opacity="0.1" d="M195.201 17.9097V88.1709" stroke="#8C99B2"/>
<path opacity="0.1" d="M207.304 17.9097V88.1709" stroke="#8C99B2"/>
<path opacity="0.1" d="M219.408 17.9097V88.1709" stroke="#8C99B2"/>
<path opacity="0.1" d="M231.511 17.9097V88.1709" stroke="#8C99B2"/>
<path opacity="0.1" d="M243.615 17.9097V88.1709" stroke="#8C99B2"/>
<path opacity="0.1" d="M255.718 17.9097V88.1709" stroke="#8C99B2"/>
<path opacity="0.1" d="M267.822 17.9097V88.1709" stroke="#8C99B2"/>
<path opacity="0.1" d="M279.925 17.9097V88.1709" stroke="#8C99B2"/>
<path opacity="0.1" d="M292.028 17.9097V88.1709" stroke="#8C99B2"/>
<path opacity="0.1" d="M304.132 17.9097V88.1709" stroke="#8C99B2"/>
<path opacity="0.1" d="M316.235 17.9097V88.1709" stroke="#8C99B2"/>
<path d="M14 52.0569L36.0111 39H113.965L138.629 87H316.5" stroke="#0089FF"/>
</svg>
