<svg width="324" height="117" viewBox="0 0 324 117" fill="none" xmlns="http://www.w3.org/2000/svg">
<path d="M162.38 105.5C188.061 105.5 208.88 84.6812 208.88 59C208.88 33.3188 188.061 12.5 162.38 12.5C136.699 12.5 115.88 33.3188 115.88 59C115.88 84.6812 136.699 105.5 162.38 105.5Z" fill="white" fill-opacity="0.5" stroke="#303549" stroke-width="0.75" stroke-miterlimit="10"/>
<path d="M181.09 48.7505L173.09 40.7505C172.635 40.2967 172.018 40.042 171.375 40.042C170.732 40.042 170.115 40.2967 169.66 40.7505L144.35 66.0005C143.896 66.4576 143.641 67.0759 143.641 67.7205C143.641 68.365 143.896 68.9833 144.35 69.4405L152.35 77.4405C152.807 77.8948 153.425 78.1498 154.07 78.1498C154.715 78.1498 155.333 77.8948 155.79 77.4405L181.06 52.1605C181.514 51.7111 181.772 51.1004 181.778 50.4616C181.783 49.8228 181.536 49.2077 181.09 48.7505ZM180.51 51.6005L155.23 76.8805C155.082 77.0296 154.906 77.1479 154.712 77.2285C154.518 77.3092 154.31 77.3506 154.1 77.3505C153.673 77.3491 153.264 77.1804 152.96 76.8805L144.96 68.8805C144.811 68.7326 144.692 68.5566 144.611 68.3627C144.53 68.1687 144.489 67.9606 144.489 67.7505C144.489 67.5403 144.53 67.3322 144.611 67.1383C144.692 66.9443 144.811 66.7683 144.96 66.6205L170.21 41.3005C170.357 41.1495 170.532 41.03 170.727 40.9492C170.921 40.8684 171.13 40.828 171.34 40.8305C171.552 40.8289 171.762 40.8697 171.957 40.9504C172.153 41.0312 172.331 41.1502 172.48 41.3005L180.48 49.3005C180.636 49.4476 180.761 49.6247 180.848 49.8212C180.934 50.0177 180.98 50.2295 180.983 50.4441C180.985 50.6587 180.945 50.8717 180.864 51.0703C180.783 51.269 180.662 51.4493 180.51 51.6005Z" fill="#303549"/>
<path d="M148.489 65.4494L147.527 66.411C147.363 66.575 147.363 66.841 147.527 67.005L148.588 68.0657C148.752 68.2297 149.018 68.2297 149.182 68.0657L150.143 67.104C150.307 66.94 150.307 66.674 150.143 66.51L149.083 65.4494C148.919 65.2853 148.653 65.2853 148.489 65.4494Z" fill="#303549"/>
<path d="M150.449 63.4835L149.487 64.4452C149.323 64.6092 149.323 64.8752 149.487 65.0392L150.548 66.0998C150.712 66.2639 150.978 66.2639 151.142 66.0998L152.103 65.1382C152.267 64.9741 152.267 64.7082 152.103 64.5442L151.043 63.4835C150.879 63.3195 150.613 63.3195 150.449 63.4835Z" fill="#303549"/>
<path d="M152.72 61.3898C152.664 61.3884 152.608 61.3994 152.556 61.4218C152.504 61.4442 152.458 61.4777 152.42 61.5198L151.42 62.5198C151.342 62.5984 151.299 62.7043 151.299 62.8148C151.299 62.9252 151.342 63.0312 151.42 63.1098L152.49 64.1798C152.568 64.2557 152.671 64.2987 152.78 64.2998C152.835 64.3006 152.891 64.2904 152.942 64.2698C152.993 64.2492 153.04 64.2186 153.08 64.1798L154.08 63.1798C154.158 63.1012 154.201 62.9952 154.201 62.8848C154.201 62.7743 154.158 62.6684 154.08 62.5898L153 61.5198C152.963 61.4789 152.919 61.4463 152.869 61.4239C152.819 61.4015 152.765 61.3899 152.71 61.3898H152.72Z" fill="#0089FF"/>
<path d="M154.379 59.5558L153.417 60.5175C153.253 60.6815 153.253 60.9474 153.417 61.1114L154.478 62.1721C154.642 62.3361 154.908 62.3361 155.072 62.1721L156.033 61.2104C156.197 61.0464 156.197 60.7805 156.033 60.6165L154.973 59.5558C154.809 59.3918 154.543 59.3918 154.379 59.5558Z" fill="#303549"/>
<path d="M156.349 57.5802L155.387 58.5419C155.223 58.7059 155.223 58.9718 155.387 59.1359L156.448 60.1965C156.612 60.3605 156.878 60.3605 157.042 60.1965L158.003 59.2348C158.167 59.0708 158.167 58.8049 158.003 58.6409L156.943 57.5802C156.779 57.4162 156.513 57.4162 156.349 57.5802Z" fill="#303549"/>
<path d="M158.319 55.6281L157.357 56.5897C157.193 56.7538 157.193 57.0197 157.357 57.1837L158.418 58.2444C158.582 58.4084 158.848 58.4084 159.012 58.2444L159.973 57.2827C160.137 57.1187 160.137 56.8528 159.973 56.6887L158.913 55.6281C158.749 55.4641 158.483 55.464 158.319 55.6281Z" fill="#303549"/>
<path d="M160.279 53.6515L159.317 54.6132C159.153 54.7772 159.153 55.0431 159.317 55.2071L160.378 56.2678C160.542 56.4318 160.808 56.4318 160.972 56.2678L161.933 55.3061C162.097 55.1421 162.097 54.8762 161.933 54.7122L160.873 53.6515C160.709 53.4875 160.443 53.4875 160.279 53.6515Z" fill="#303549"/>
<path d="M162.256 51.6828L161.294 52.6444C161.13 52.8084 161.13 53.0744 161.294 53.2384L162.355 54.299C162.519 54.4631 162.785 54.4631 162.949 54.299L163.91 53.3374C164.074 53.1734 164.074 52.9074 163.91 52.7434L162.85 51.6828C162.686 51.5187 162.42 51.5187 162.256 51.6828Z" fill="#303549"/>
<path d="M164.219 49.7238L163.257 50.6854C163.093 50.8495 163.093 51.1154 163.257 51.2794L164.318 52.3401C164.482 52.5041 164.748 52.5041 164.912 52.3401L165.873 51.3784C166.037 51.2144 166.037 50.9485 165.873 50.7844L164.813 49.7238C164.649 49.5598 164.383 49.5598 164.219 49.7238Z" fill="#303549"/>
<path d="M166.179 47.7579L165.217 48.7196C165.053 48.8836 165.053 49.1496 165.217 49.3136L166.278 50.3742C166.442 50.5383 166.708 50.5383 166.872 50.3742L167.833 49.4126C167.997 49.2486 167.997 48.9826 167.833 48.8186L166.773 47.7579C166.609 47.5939 166.343 47.5939 166.179 47.7579Z" fill="#303549"/>
<path d="M168.149 45.796L167.187 46.7577C167.023 46.9217 167.023 47.1877 167.187 47.3517L168.248 48.4123C168.412 48.5764 168.678 48.5764 168.842 48.4123L169.803 47.4507C169.967 47.2866 169.967 47.0207 169.803 46.8567L168.743 45.796C168.579 45.632 168.313 45.632 168.149 45.796Z" fill="#303549"/>
<path d="M170.109 43.8205L169.147 44.7821C168.983 44.9461 168.983 45.2121 169.147 45.3761L170.208 46.4367C170.372 46.6008 170.638 46.6008 170.802 46.4367L171.763 45.4751C171.927 45.3111 171.927 45.0451 171.763 44.8811L170.703 43.8205C170.539 43.6564 170.273 43.6564 170.109 43.8205Z" fill="#303549"/>
<path d="M149.608 68.6046L148.646 69.5663C148.482 69.7303 148.482 69.9962 148.646 70.1603L149.707 71.2209C149.871 71.385 150.137 71.385 150.301 71.2209L151.263 70.2593C151.427 70.0952 151.427 69.8293 151.263 69.6653L150.202 68.6046C150.038 68.4406 149.772 68.4406 149.608 68.6046Z" fill="#303549"/>
<path d="M151.561 66.6359L150.599 67.5975C150.435 67.7616 150.435 68.0275 150.599 68.1915L151.66 69.2522C151.824 69.4162 152.09 69.4162 152.254 69.2522L153.216 68.2905C153.38 68.1265 153.38 67.8606 153.216 67.6965L152.155 66.6359C151.991 66.4719 151.725 66.4719 151.561 66.6359Z" fill="#303549"/>
<path d="M153.83 64.5401C153.776 64.5395 153.723 64.5498 153.673 64.5704C153.623 64.5911 153.578 64.6215 153.54 64.6601L152.54 65.6601C152.462 65.7387 152.419 65.8446 152.419 65.9551C152.419 66.0655 152.462 66.1715 152.54 66.2501L153.6 67.3201C153.681 67.3967 153.788 67.4396 153.9 67.4401C154.009 67.439 154.112 67.396 154.19 67.3201L155.19 66.3201C155.268 66.2415 155.311 66.1355 155.311 66.0251C155.311 65.9146 155.268 65.8087 155.19 65.7301L154.12 64.6601C154.082 64.6215 154.037 64.5911 153.987 64.5704C153.937 64.5498 153.884 64.5395 153.83 64.5401Z" fill="#0089FF"/>
<path d="M155.8 62.5801C155.745 62.5793 155.689 62.5895 155.638 62.6101C155.587 62.6307 155.54 62.6613 155.5 62.7001L154.5 63.7001C154.462 63.7382 154.432 63.7834 154.411 63.8332C154.39 63.8829 154.38 63.9363 154.38 63.9901C154.38 64.044 154.39 64.0973 154.411 64.1471C154.432 64.1968 154.462 64.242 154.5 64.2801L155.57 65.3501C155.648 65.4261 155.751 65.4691 155.86 65.4701C155.915 65.4709 155.971 65.4607 156.022 65.4401C156.073 65.4195 156.12 65.3889 156.16 65.3501L157.16 64.3501C157.238 64.2715 157.281 64.1655 157.281 64.0551C157.281 63.9447 157.238 63.8387 157.16 63.7601L156.09 62.7001C156.012 62.6241 155.909 62.5811 155.8 62.5801Z" fill="#0089FF"/>
<path d="M157.461 60.7326L156.499 61.6942C156.335 61.8582 156.335 62.1242 156.499 62.2882L157.56 63.3489C157.724 63.5129 157.99 63.5129 158.154 63.3489L159.116 62.3872C159.28 62.2232 159.28 61.9572 159.116 61.7932L158.055 60.7326C157.891 60.5685 157.625 60.5685 157.461 60.7326Z" fill="#303549"/>
<path d="M159.438 58.7736L158.476 59.7352C158.312 59.8993 158.312 60.1652 158.476 60.3292L159.537 61.3899C159.701 61.5539 159.967 61.5539 160.131 61.3899L161.093 60.4282C161.257 60.2642 161.257 59.9982 161.093 59.8342L160.032 58.7736C159.868 58.6095 159.602 58.6095 159.438 58.7736Z" fill="#303549"/>
<path d="M161.391 56.8048L160.429 57.7665C160.265 57.9305 160.265 58.1964 160.429 58.3605L161.49 59.4211C161.654 59.5851 161.92 59.5851 162.084 59.4211L163.046 58.4595C163.21 58.2954 163.21 58.0295 163.046 57.8655L161.985 56.8048C161.821 56.6408 161.555 56.6408 161.391 56.8048Z" fill="#303549"/>
<path d="M163.368 54.8351L162.406 55.7968C162.242 55.9608 162.242 56.2267 162.406 56.3907L163.467 57.4514C163.631 57.6154 163.897 57.6154 164.061 57.4514L165.023 56.4897C165.187 56.3257 165.187 56.0598 165.023 55.8958L163.962 54.8351C163.798 54.6711 163.532 54.6711 163.368 54.8351Z" fill="#303549"/>
<path d="M165.338 52.8693L164.376 53.8309C164.212 53.995 164.212 54.2609 164.376 54.4249L165.437 55.4856C165.601 55.6496 165.867 55.6496 166.031 55.4856L166.993 54.5239C167.157 54.3599 167.157 54.094 166.993 53.9299L165.932 52.8693C165.768 52.7053 165.502 52.7053 165.338 52.8693Z" fill="#303549"/>
<path d="M167.291 50.9103L166.329 51.872C166.165 52.036 166.165 52.3019 166.329 52.4659L167.39 53.5266C167.554 53.6906 167.82 53.6906 167.984 53.5266L168.946 52.5649C169.11 52.4009 169.11 52.135 168.946 51.9709L167.885 50.9103C167.721 50.7463 167.455 50.7463 167.291 50.9103Z" fill="#303549"/>
<path d="M169.268 48.9415L168.306 49.9032C168.142 50.0672 168.142 50.3332 168.306 50.4972L169.367 51.5578C169.531 51.7219 169.797 51.7219 169.961 51.5578L170.923 50.5962C171.087 50.4322 171.087 50.1662 170.923 50.0022L169.862 48.9415C169.698 48.7775 169.432 48.7775 169.268 48.9415Z" fill="#303549"/>
<path d="M171.53 46.8497C171.475 46.8489 171.419 46.8591 171.368 46.8797C171.317 46.9002 171.27 46.9308 171.23 46.9697L170.23 47.9697C170.192 48.0077 170.162 48.0529 170.141 48.1027C170.12 48.1525 170.11 48.2058 170.11 48.2597C170.11 48.3135 170.12 48.3669 170.141 48.4166C170.162 48.4664 170.192 48.5116 170.23 48.5497L171.3 49.6197C171.378 49.6956 171.481 49.7386 171.59 49.7397C171.645 49.7405 171.701 49.7303 171.752 49.7097C171.803 49.6891 171.85 49.6585 171.89 49.6197L172.89 48.6197C172.968 48.5411 173.011 48.4351 173.011 48.3247C173.011 48.2142 172.968 48.1083 172.89 48.0297L171.82 46.9997C171.742 46.9237 171.639 46.8807 171.53 46.8797V46.8497Z" fill="#0089FF"/>
<path d="M173.191 45.007L172.229 45.9686C172.065 46.1327 172.065 46.3986 172.229 46.5626L173.29 47.6233C173.454 47.7873 173.72 47.7873 173.884 47.6233L174.846 46.6616C175.01 46.4976 175.01 46.2317 174.846 46.0676L173.785 45.007C173.621 44.843 173.355 44.843 173.191 45.007Z" fill="#303549"/>
<path d="M151.606 70.6046L150.645 71.5663C150.481 71.7303 150.481 71.9962 150.645 72.1603L151.705 73.2209C151.869 73.385 152.135 73.385 152.299 73.2209L153.261 72.2593C153.425 72.0952 153.425 71.8293 153.261 71.6653L152.2 70.6046C152.036 70.4406 151.77 70.4406 151.606 70.6046Z" fill="#303549"/>
<path d="M153.574 68.6359L152.612 69.5975C152.448 69.7616 152.448 70.0275 152.612 70.1915L153.673 71.2522C153.837 71.4162 154.102 71.4162 154.266 71.2522L155.228 70.2905C155.392 70.1265 155.392 69.8606 155.228 69.6965L154.167 68.6359C154.003 68.4719 153.738 68.4719 153.574 68.6359Z" fill="#303549"/>
<path d="M155.536 66.6769L154.575 67.6386C154.411 67.8026 154.411 68.0685 154.575 68.2325L155.635 69.2932C155.799 69.4572 156.065 69.4572 156.229 69.2932L157.191 68.3315C157.355 68.1675 157.355 67.9016 157.191 67.7376L156.13 66.6769C155.966 66.5129 155.7 66.5129 155.536 66.6769Z" fill="#303549"/>
<path d="M157.506 64.7013L156.545 65.663C156.381 65.827 156.381 66.0929 156.545 66.2569L157.605 67.3176C157.769 67.4816 158.035 67.4816 158.199 67.3176L159.161 66.3559C159.325 66.1919 159.325 65.926 159.161 65.762L158.1 64.7013C157.936 64.5373 157.67 64.5373 157.506 64.7013Z" fill="#303549"/>
<path d="M159.466 62.7394L158.505 63.7011C158.341 63.8651 158.341 64.131 158.505 64.295L159.565 65.3557C159.729 65.5197 159.995 65.5197 160.159 65.3557L161.121 64.394C161.285 64.23 161.285 63.9641 161.121 63.8001L160.06 62.7394C159.896 62.5754 159.63 62.5754 159.466 62.7394Z" fill="#303549"/>
<path d="M161.436 60.7736L160.475 61.7352C160.311 61.8993 160.311 62.1652 160.475 62.3292L161.535 63.3899C161.699 63.5539 161.965 63.5539 162.129 63.3899L163.091 62.4282C163.255 62.2642 163.255 61.9982 163.091 61.8342L162.03 60.7736C161.866 60.6095 161.6 60.6095 161.436 60.7736Z" fill="#303549"/>
<path d="M163.396 58.797L162.435 59.7587C162.271 59.9227 162.271 60.1886 162.435 60.3527L163.495 61.4133C163.659 61.5773 163.925 61.5773 164.089 61.4133L165.051 60.4516C165.215 60.2876 165.215 60.0217 165.051 59.8577L163.99 58.797C163.826 58.633 163.56 58.633 163.396 58.797Z" fill="#303549"/>
<path d="M165.366 56.8458L164.405 57.8075C164.241 57.9715 164.241 58.2375 164.405 58.4015L165.465 59.4621C165.629 59.6262 165.895 59.6262 166.059 59.4621L167.021 58.5005C167.185 58.3365 167.185 58.0705 167.021 57.9065L165.96 56.8458C165.796 56.6818 165.53 56.6818 165.366 56.8458Z" fill="#303549"/>
<path d="M167.336 54.8693L166.375 55.8309C166.211 55.995 166.211 56.2609 166.375 56.4249L167.435 57.4856C167.599 57.6496 167.865 57.6496 168.029 57.4856L168.991 56.5239C169.155 56.3599 169.155 56.094 168.991 55.9299L167.93 54.8693C167.766 54.7053 167.5 54.7053 167.336 54.8693Z" fill="#303549"/>
<path d="M169.304 52.9103L168.342 53.872C168.178 54.036 168.178 54.3019 168.342 54.4659L169.403 55.5266C169.567 55.6906 169.832 55.6906 169.996 55.5266L170.958 54.5649C171.122 54.4009 171.122 54.135 170.958 53.971L169.897 52.9103C169.733 52.7463 169.468 52.7463 169.304 52.9103Z" fill="#303549"/>
<path d="M171.266 50.9415L170.305 51.9032C170.141 52.0672 170.141 52.3332 170.305 52.4972L171.365 53.5578C171.529 53.7219 171.795 53.7219 171.959 53.5578L172.921 52.5962C173.085 52.4322 173.085 52.1662 172.921 52.0022L171.86 50.9415C171.696 50.7775 171.43 50.7775 171.266 50.9415Z" fill="#303549"/>
<path d="M173.236 48.9757L172.275 49.9374C172.111 50.1014 172.111 50.3673 172.275 50.5314L173.335 51.592C173.499 51.756 173.765 51.756 173.929 51.592L174.891 50.6304C175.055 50.4663 175.055 50.2004 174.891 50.0364L173.83 48.9757C173.666 48.8117 173.4 48.8117 173.236 48.9757Z" fill="#303549"/>
<path d="M175.196 47.0138L174.235 47.9755C174.071 48.1395 174.071 48.4054 174.235 48.5694L175.295 49.6301C175.459 49.7941 175.725 49.7941 175.889 49.6301L176.851 48.6684C177.015 48.5044 177.015 48.2385 176.851 48.0745L175.79 47.0138C175.626 46.8498 175.36 46.8498 175.196 47.0138Z" fill="#303549"/>
<path d="M155.655 70.7257L154.693 71.6874C154.529 71.8514 154.529 72.1173 154.693 72.2814L155.754 73.342C155.918 73.506 156.184 73.506 156.348 73.342L157.31 72.3804C157.474 72.2163 157.474 71.9504 157.31 71.7864L156.249 70.7257C156.085 70.5617 155.819 70.5617 155.655 70.7257Z" fill="#303549"/>
<path d="M157.618 68.757L156.656 69.7186C156.492 69.8827 156.492 70.1486 156.656 70.3126L157.717 71.3733C157.881 71.5373 158.147 71.5373 158.311 71.3733L159.273 70.4116C159.437 70.2476 159.437 69.9817 159.273 69.8176L158.212 68.757C158.048 68.593 157.782 68.593 157.618 68.757Z" fill="#303549"/>
<path d="M159.585 66.7882L158.623 67.7499C158.459 67.9139 158.459 68.1798 158.623 68.3439L159.684 69.4045C159.848 69.5685 160.114 69.5685 160.278 69.4045L161.24 68.4429C161.404 68.2788 161.404 68.0129 161.24 67.8489L160.179 66.7882C160.015 66.6242 159.749 66.6242 159.585 66.7882Z" fill="#303549"/>
<path d="M169.66 56.8899C169.548 56.8904 169.441 56.9333 169.36 57.0099L160.75 65.6199C160.672 65.6985 160.629 65.8045 160.629 65.9149C160.629 66.0253 160.672 66.1313 160.75 66.2099L161.82 67.2799C161.898 67.3559 162.001 67.3989 162.11 67.3999C162.164 67.4005 162.217 67.3901 162.267 67.3695C162.317 67.3489 162.362 67.3184 162.4 67.2799L171 58.6599C171.038 58.6218 171.068 58.5766 171.089 58.5268C171.11 58.4771 171.12 58.4237 171.12 58.3699C171.12 58.316 171.11 58.2627 171.089 58.2129C171.068 58.1632 171.038 58.118 171 58.0799L170 56.9999C169.922 56.9239 169.819 56.8809 169.71 56.8799L169.66 56.8899Z" fill="#0089FF"/>
<path d="M171.385 54.9904L170.423 55.952C170.259 56.1161 170.259 56.382 170.423 56.546L171.484 57.6067C171.648 57.7707 171.914 57.7707 172.078 57.6067L173.04 56.645C173.204 56.481 173.204 56.2151 173.04 56.051L171.979 54.9904C171.815 54.8264 171.549 54.8264 171.385 54.9904Z" fill="#303549"/>
<path d="M173.348 53.0216L172.386 53.9833C172.222 54.1473 172.222 54.4132 172.386 54.5773L173.447 55.6379C173.611 55.8019 173.877 55.8019 174.041 55.6379L175.003 54.6763C175.167 54.5122 175.167 54.2463 175.003 54.0823L173.942 53.0216C173.778 52.8576 173.512 52.8576 173.348 53.0216Z" fill="#303549"/>
<path d="M175.315 51.0626L174.353 52.0243C174.189 52.1883 174.189 52.4543 174.353 52.6183L175.414 53.6789C175.578 53.843 175.844 53.843 176.008 53.6789L176.97 52.7173C177.134 52.5532 177.134 52.2873 176.97 52.1233L175.909 51.0626C175.745 50.8986 175.479 50.8986 175.315 51.0626Z" fill="#303549"/>
<path d="M150.15 48.7604L155.71 53.4004L156.59 52.5304L150.93 47.8104C149.93 46.9604 148.78 45.8104 149.03 44.6904C149.191 44.247 149.489 43.8664 149.881 43.6039C150.273 43.3414 150.739 43.2106 151.21 43.2304C152.321 43.3238 153.392 43.6878 154.33 44.2904C155.15 44.864 156.143 45.1361 157.14 45.0604C157.75 44.9138 158.309 44.6065 158.76 44.1704C160.014 43.0273 160.828 41.4811 161.06 39.8004C161.083 39.64 161.04 39.4771 160.943 39.3477C160.845 39.2183 160.7 39.133 160.54 39.1104C160.38 39.0879 160.217 39.13 160.087 39.2275C159.958 39.3251 159.873 39.47 159.85 39.6304C159.673 41.0156 159.019 42.2958 158 43.2504C157.727 43.5375 157.382 43.745 157 43.8504C156.281 43.8606 155.579 43.6358 155 43.2104C153.883 42.5071 152.607 42.0946 151.29 42.0104C150.539 41.9882 149.802 42.2129 149.192 42.6501C148.581 43.0872 148.131 43.7127 147.91 44.4304C147.44 46.2304 148.86 47.6904 150.15 48.7604Z" fill="#303549"/>
<path d="M110 62.3398H21C18.3359 62.3398 15.7809 63.3982 13.8971 65.282C12.0133 67.1658 10.955 69.7207 10.955 72.3848C10.955 75.0489 12.0133 77.6039 13.8971 79.4877C15.7809 81.3715 18.3359 82.4298 21 82.4298H115.4C112.27 76.1633 110.434 69.331 110 62.3398Z" fill="#EBF1F9"/>
<path d="M303 62.3398H214.77C214.336 69.331 212.5 76.1633 209.37 82.4298H303C305.664 82.4298 308.219 81.3715 310.103 79.4877C311.987 77.6039 313.045 75.0489 313.045 72.3848C313.045 69.7207 311.987 67.1658 310.103 65.282C308.219 63.3982 305.664 62.3398 303 62.3398Z" fill="#EBF1F9"/>
<path d="M115.4 35.5703H21C18.3359 35.5703 15.7809 36.6286 13.8971 38.5124C12.0133 40.3962 10.955 42.9512 10.955 45.6153C10.955 48.2794 12.0133 50.8344 13.8971 52.7182C15.7809 54.602 18.3359 55.6603 21 55.6603H110C110.434 48.6692 112.27 41.8368 115.4 35.5703Z" fill="#EBF1F9"/>
<path d="M303 35.5703H209.37C212.5 41.8368 214.336 48.6692 214.77 55.6603H303C305.664 55.6603 308.219 54.602 310.103 52.7182C311.987 50.8344 313.045 48.2794 313.045 45.6153C313.045 42.9512 311.987 40.3962 310.103 38.5124C308.219 36.6286 305.664 35.5703 303 35.5703Z" fill="#EBF1F9"/>
<path d="M40.6931 45.322C40.6931 45.5937 40.6417 45.8336 40.5389 46.0416C40.4361 46.2497 40.2978 46.4211 40.124 46.5557C39.9183 46.7173 39.698 46.8323 39.463 46.9009C39.228 46.967 38.9245 47 38.5524 47H36.9845V41.5326H38.4349C38.8241 41.5326 39.1154 41.546 39.3088 41.573C39.5046 41.5974 39.6919 41.6574 39.8706 41.7529C40.0664 41.8582 40.2096 41.9965 40.3002 42.1678C40.3908 42.3367 40.4361 42.5362 40.4361 42.7663C40.4361 43.0234 40.3675 43.2535 40.2304 43.4566C40.0958 43.6598 39.9085 43.8189 39.6686 43.934V43.9634C39.9942 44.0515 40.2464 44.213 40.4251 44.448C40.6038 44.6806 40.6931 44.9719 40.6931 45.322ZM39.6797 42.8691C39.6797 42.737 39.6576 42.6231 39.6136 42.5277C39.5695 42.4297 39.4985 42.3526 39.4006 42.2963C39.2831 42.2302 39.1521 42.1898 39.0077 42.1752C38.8633 42.1605 38.6638 42.1531 38.4092 42.1531H37.7115V43.7541H38.5377C38.7654 43.7541 38.933 43.743 39.0408 43.721C39.1485 43.6965 39.2598 43.6476 39.3749 43.5741C39.4851 43.5032 39.5634 43.4101 39.6099 43.2951C39.6564 43.18 39.6797 43.038 39.6797 42.8691ZM39.9367 45.3513C39.9367 45.1457 39.9073 44.9768 39.8486 44.8446C39.7898 44.71 39.6711 44.5961 39.4924 44.5031C39.3773 44.4419 39.2513 44.4028 39.1142 44.3856C38.9796 44.3685 38.7874 44.3599 38.5377 44.3599H37.7115V46.3795H38.3027C38.6209 46.3795 38.8719 46.3648 39.0554 46.3354C39.239 46.306 39.4006 46.2436 39.5401 46.1481C39.6772 46.0527 39.7776 45.9449 39.8412 45.825C39.9049 45.7026 39.9367 45.5447 39.9367 45.3513ZM43.1459 47.0955C42.4923 47.0955 41.9844 46.9119 41.6221 46.5447C41.2622 46.1751 41.0823 45.6512 41.0823 44.9731C41.0823 44.3048 41.2573 43.7736 41.6074 43.3795C41.9574 42.983 42.4152 42.7847 42.9807 42.7847C43.2353 42.7847 43.4605 42.8214 43.6563 42.8948C43.8521 42.9683 44.0235 43.0833 44.1704 43.24C44.3172 43.3967 44.4298 43.5888 44.5082 43.8165C44.5865 44.0417 44.6257 44.3183 44.6257 44.6463V45.0209H41.7836C41.7836 45.4982 41.9036 45.8629 42.1435 46.1151C42.3834 46.3672 42.7151 46.4933 43.1386 46.4933C43.2903 46.4933 43.4384 46.4761 43.5829 46.4419C43.7297 46.4076 43.8619 46.3635 43.9794 46.3097C44.1043 46.2534 44.2095 46.1995 44.2952 46.1481C44.3809 46.0943 44.4519 46.0441 44.5082 45.9976H44.5486V46.7503C44.4678 46.7821 44.3674 46.8225 44.2475 46.8715C44.1275 46.918 44.0198 46.9547 43.9244 46.9816C43.7897 47.0184 43.6673 47.0465 43.5572 47.0661C43.4495 47.0857 43.3124 47.0955 43.1459 47.0955ZM43.9537 44.4921C43.9488 44.3061 43.9268 44.1457 43.8876 44.0111C43.8485 43.8765 43.7922 43.7626 43.7187 43.6696C43.6379 43.5668 43.5339 43.4885 43.4066 43.4346C43.2818 43.3808 43.1263 43.3538 42.9403 43.3538C42.7567 43.3538 42.6 43.382 42.4703 43.4383C42.343 43.4921 42.2267 43.5717 42.1215 43.677C42.0186 43.7847 41.9403 43.9046 41.8865 44.0368C41.8326 44.1665 41.7983 44.3183 41.7836 44.4921H43.9537ZM48.7639 44.8409C48.7639 45.5239 48.5999 46.0686 48.2719 46.4749C47.9463 46.8788 47.5338 47.0808 47.0344 47.0808C46.8313 47.0808 46.6513 47.0575 46.4947 47.011C46.338 46.9645 46.1777 46.8923 46.0136 46.7944V48.5128H45.3233V42.8985H46.0136V43.3281C46.185 43.1739 46.3747 43.0454 46.5828 42.9426C46.7933 42.8373 47.0222 42.7847 47.2694 42.7847C47.7394 42.7847 48.1054 42.9707 48.3673 43.3428C48.6317 43.7149 48.7639 44.2143 48.7639 44.8409ZM48.0515 44.918C48.0515 44.4505 47.9769 44.0882 47.8276 43.8312C47.6782 43.5717 47.4359 43.442 47.1005 43.442C46.9047 43.442 46.715 43.486 46.5314 43.5741C46.3502 43.6598 46.1777 43.7712 46.0136 43.9083V46.2326C46.1948 46.3207 46.349 46.3807 46.4763 46.4125C46.606 46.4443 46.7541 46.4602 46.9206 46.4602C47.278 46.4602 47.5558 46.3293 47.7541 46.0673C47.9524 45.8054 48.0515 45.4223 48.0515 44.918ZM52.6671 47H51.8189L50.8238 45.4505L49.7994 47H49.0172L50.4419 44.9658L49.0319 42.8985H49.8801L50.8679 44.4334L51.8813 42.8985H52.6671L51.2497 44.918L52.6671 47ZM56.4418 47H55.7515V45.153H53.8935V47H53.2032V42.8985H53.8935V44.5582H55.7515V42.8985H56.4418V47ZM60.6791 47H59.9961V43.9413L58.0647 47H57.4405V42.8985H58.1235V45.9095L60.0329 42.8985H60.6791V47ZM64.9165 47H64.2335V43.9413L62.3021 47H61.6779V42.8985H62.3608V45.9095L64.2702 42.8985H64.9165V47ZM64.608 40.9928C64.608 41.2033 64.5823 41.3955 64.5309 41.5693C64.4795 41.7407 64.4061 41.8851 64.3106 42.0026C64.2004 42.1323 64.0756 42.2302 63.9361 42.2963C63.7965 42.36 63.6178 42.3918 63.4 42.3918C63.1992 42.3918 63.023 42.3588 62.8712 42.2927C62.7219 42.2241 62.5958 42.1274 62.493 42.0026C62.3927 41.8802 62.3168 41.7333 62.2654 41.562C62.214 41.3906 62.1883 41.2009 62.1883 40.9928H62.7831C62.7831 41.3233 62.8345 41.562 62.9373 41.7088C63.0401 41.8533 63.1944 41.9255 63.4 41.9255C63.5934 41.9255 63.7439 41.8545 63.8516 41.7125C63.9593 41.5681 64.0132 41.3282 64.0132 40.9928H64.608ZM71.5038 47H70.8135V43.4934H68.9555V47H68.2652V42.8985H71.5038V47ZM75.9431 44.8409C75.9431 45.5239 75.7791 46.0686 75.4511 46.4749C75.1255 46.8788 74.713 47.0808 74.2136 47.0808C74.0105 47.0808 73.8305 47.0575 73.6739 47.011C73.5172 46.9645 73.3569 46.8923 73.1929 46.7944V48.5128H72.5026V42.8985H73.1929V43.3281C73.3642 43.1739 73.5539 43.0454 73.762 42.9426C73.9725 42.8373 74.2014 42.7847 74.4486 42.7847C74.9186 42.7847 75.2846 42.9707 75.5465 43.3428C75.8109 43.7149 75.9431 44.2143 75.9431 44.8409ZM75.2308 44.918C75.2308 44.4505 75.1561 44.0882 75.0068 43.8312C74.8574 43.5717 74.6151 43.442 74.2797 43.442C74.0839 43.442 73.8942 43.486 73.7106 43.5741C73.5295 43.6598 73.3569 43.7712 73.1929 43.9083V46.2326C73.374 46.3207 73.5282 46.3807 73.6555 46.4125C73.7853 46.4443 73.9334 46.4602 74.0998 46.4602C74.4572 46.4602 74.7351 46.3293 74.9333 46.0673C75.1316 45.8054 75.2308 45.4223 75.2308 44.918ZM78.44 47.0955C77.7864 47.0955 77.2784 46.9119 76.9161 46.5447C76.5563 46.1751 76.3764 45.6512 76.3764 44.9731C76.3764 44.3048 76.5514 43.7736 76.9015 43.3795C77.2515 42.983 77.7093 42.7847 78.2747 42.7847C78.5293 42.7847 78.7545 42.8214 78.9504 42.8948C79.1462 42.9683 79.3176 43.0833 79.4644 43.24C79.6113 43.3967 79.7239 43.5888 79.8022 43.8165C79.8806 44.0417 79.9197 44.3183 79.9197 44.6463V45.0209H77.0777C77.0777 45.4982 77.1977 45.8629 77.4376 46.1151C77.6774 46.3672 78.0091 46.4933 78.4326 46.4933C78.5844 46.4933 78.7325 46.4761 78.8769 46.4419C79.0238 46.4076 79.156 46.3635 79.2735 46.3097C79.3983 46.2534 79.5036 46.1995 79.5893 46.1481C79.6749 46.0943 79.7459 46.0441 79.8022 45.9976H79.8426V46.7503C79.7618 46.7821 79.6615 46.8225 79.5415 46.8715C79.4216 46.918 79.3139 46.9547 79.2184 46.9816C79.0838 47.0184 78.9614 47.0465 78.8512 47.0661C78.7435 47.0857 78.6064 47.0955 78.44 47.0955ZM79.2478 44.4921C79.2429 44.3061 79.2209 44.1457 79.1817 44.0111C79.1425 43.8765 79.0862 43.7626 79.0128 43.6696C78.932 43.5668 78.828 43.4885 78.7007 43.4346C78.5758 43.3808 78.4204 43.3538 78.2343 43.3538C78.0508 43.3538 77.8941 43.382 77.7643 43.4383C77.6371 43.4921 77.5208 43.5717 77.4155 43.677C77.3127 43.7847 77.2344 43.9046 77.1805 44.0368C77.1267 44.1665 77.0924 44.3183 77.0777 44.4921H79.2478ZM84.1351 47.9841H83.4925V46.989H80.79V47.9841H80.1474V46.4125H80.4191C80.6517 46.0306 80.8414 45.5325 80.9883 44.918C81.1376 44.3012 81.2122 43.628 81.2122 42.8985H83.7275V46.4125H84.1351V47.9841ZM83.0372 46.4125V43.4787H81.8622C81.8303 44.0907 81.7459 44.65 81.6088 45.1567C81.4742 45.661 81.304 46.0796 81.0984 46.4125H83.0372ZM86.5989 47.0955C85.9453 47.0955 85.4373 46.9119 85.0751 46.5447C84.7152 46.1751 84.5353 45.6512 84.5353 44.9731C84.5353 44.3048 84.7103 43.7736 85.0604 43.3795C85.4104 42.983 85.8682 42.7847 86.4336 42.7847C86.6882 42.7847 86.9134 42.8214 87.1093 42.8948C87.3051 42.9683 87.4765 43.0833 87.6233 43.24C87.7702 43.3967 87.8828 43.5888 87.9611 43.8165C88.0395 44.0417 88.0786 44.3183 88.0786 44.6463V45.0209H85.2366C85.2366 45.4982 85.3566 45.8629 85.5965 46.1151C85.8364 46.3672 86.168 46.4933 86.5915 46.4933C86.7433 46.4933 86.8914 46.4761 87.0358 46.4419C87.1827 46.4076 87.3149 46.3635 87.4324 46.3097C87.5572 46.2534 87.6625 46.1995 87.7482 46.1481C87.8339 46.0943 87.9048 46.0441 87.9611 45.9976H88.0015V46.7503C87.9208 46.7821 87.8204 46.8225 87.7004 46.8715C87.5805 46.918 87.4728 46.9547 87.3773 46.9816C87.2427 47.0184 87.1203 47.0465 87.0101 47.0661C86.9024 47.0857 86.7653 47.0955 86.5989 47.0955ZM87.4067 44.4921C87.4018 44.3061 87.3798 44.1457 87.3406 44.0111C87.3014 43.8765 87.2451 43.7626 87.1717 43.6696C87.0909 43.5668 86.9869 43.4885 86.8596 43.4346C86.7347 43.3808 86.5793 43.3538 86.3933 43.3538C86.2097 43.3538 86.053 43.382 85.9233 43.4383C85.796 43.4921 85.6797 43.5717 85.5744 43.677C85.4716 43.7847 85.3933 43.9046 85.3394 44.0368C85.2856 44.1665 85.2513 44.3183 85.2366 44.4921H87.4067ZM91.9525 47H91.2622V43.4787H89.8522C89.8448 43.6818 89.8375 43.8777 89.8301 44.0662C89.8228 44.2522 89.8154 44.4211 89.8081 44.5729C89.7934 44.9572 89.7677 45.2791 89.731 45.5386C89.6967 45.7981 89.6527 46.0061 89.5988 46.1628C89.5449 46.3244 89.485 46.4504 89.4189 46.541C89.3552 46.6316 89.283 46.7136 89.2022 46.787C89.119 46.8605 89.0297 46.9155 88.9342 46.9523C88.8387 46.989 88.731 47.0073 88.6111 47.0073C88.5719 47.0073 88.5217 47.0061 88.4605 47.0037C88.3993 47.0012 88.3565 47 88.332 47V46.3978H88.3687C88.3859 46.3978 88.403 46.399 88.4201 46.4015C88.4397 46.4039 88.4617 46.4052 88.4862 46.4052C88.545 46.4052 88.6025 46.3966 88.6588 46.3795C88.7151 46.3623 88.7653 46.3305 88.8093 46.284C88.9317 46.164 89.0211 45.9547 89.0774 45.6561C89.1337 45.355 89.1741 44.9352 89.1986 44.3966C89.2084 44.1959 89.2169 43.9585 89.2243 43.6843C89.2341 43.4101 89.2426 43.1482 89.25 42.8985H91.9525V47Z" fill="#303549"/>
<path d="M40.9538 74H40.2268V71.3232H37.7115V74H36.9845V68.5326H37.7115V70.677H40.2268V68.5326H40.9538V74ZM45.2499 74H44.5669V70.9413L42.6355 74H42.0113V69.8985H42.6943V72.9095L44.6036 69.8985H45.2499V74ZM51.2277 74H50.3942L49.1054 72.1127H48.8373V74H48.1544V72.1127H47.8863L46.5754 74H45.7786L47.3245 71.852C47.2046 71.7883 47.0981 71.6965 47.0051 71.5766C46.912 71.4542 46.8288 71.2779 46.7554 71.0478C46.6893 70.8397 46.6109 70.6953 46.5204 70.6145C46.4298 70.5338 46.2817 70.4934 46.0761 70.4934H45.9182V69.8985H46.1054C46.4065 69.8985 46.6538 69.9597 46.8472 70.0821C47.043 70.2045 47.196 70.4187 47.3061 70.7247C47.3282 70.7883 47.3551 70.8618 47.3869 70.945C47.4212 71.0258 47.4506 71.0943 47.4751 71.1506C47.5558 71.3367 47.6501 71.4713 47.7578 71.5545C47.8655 71.6378 47.9977 71.6843 48.1544 71.6941V69.8985H48.8373V71.6941C48.994 71.6818 49.1274 71.6341 49.2376 71.5509C49.3502 71.4676 49.4456 71.3342 49.524 71.1506C49.5509 71.0894 49.5803 71.0184 49.6121 70.9377C49.6464 70.8569 49.6733 70.7859 49.6929 70.7247C49.8006 70.4236 49.9499 70.2106 50.1408 70.0858C50.3318 69.9609 50.5802 69.8985 50.8862 69.8985H51.0735V70.4934H50.9156C50.7222 70.4934 50.5766 70.5338 50.4786 70.6145C50.3832 70.6929 50.3024 70.8373 50.2363 71.0478C50.1678 71.2608 50.087 71.4285 49.994 71.5509C49.9009 71.6733 49.7981 71.7663 49.6855 71.8299L51.2277 74ZM54.9804 74H54.2901V72.153H52.4321V74H51.7418V69.8985H52.4321V71.5582H54.2901V69.8985H54.9804V74ZM59.2177 74H58.5347V70.9413L56.6033 74H55.9791V69.8985H56.6621V72.9095L58.5715 69.8985H59.2177V74ZM63.4551 74H62.7721V70.9413L60.8407 74H60.2165V69.8985H60.8994V72.9095L62.8088 69.8985H63.4551V74ZM63.1466 67.9928C63.1466 68.2033 63.1209 68.3955 63.0695 68.5693C63.0181 68.7407 62.9447 68.8851 62.8492 69.0026C62.739 69.1323 62.6142 69.2302 62.4747 69.2963C62.3351 69.36 62.1564 69.3918 61.9386 69.3918C61.7378 69.3918 61.5616 69.3588 61.4098 69.2927C61.2605 69.2241 61.1344 69.1274 61.0316 69.0026C60.9313 68.8802 60.8554 68.7333 60.804 68.562C60.7526 68.3906 60.7269 68.2009 60.7269 67.9928H61.3217C61.3217 68.3233 61.3731 68.562 61.4759 68.7088C61.5787 68.8533 61.7329 68.9255 61.9386 68.9255C62.132 68.9255 62.2825 68.8545 62.3902 68.7125C62.4979 68.5681 62.5518 68.3282 62.5518 67.9928H63.1466ZM70.0424 74H69.3521V70.4934H67.4941V74H66.8038V69.8985H70.0424V74ZM74.4817 71.8409C74.4817 72.5239 74.3177 73.0686 73.9897 73.4749C73.6641 73.8788 73.2516 74.0808 72.7522 74.0808C72.5491 74.0808 72.3691 74.0575 72.2125 74.011C72.0558 73.9645 71.8955 73.8923 71.7315 73.7944V75.5128H71.0411V69.8985H71.7315V70.3281C71.9028 70.1739 72.0925 70.0454 72.3006 69.9426C72.5111 69.8373 72.74 69.7847 72.9872 69.7847C73.4572 69.7847 73.8232 69.9707 74.0851 70.3428C74.3495 70.7149 74.4817 71.2143 74.4817 71.8409ZM73.7693 71.918C73.7693 71.4505 73.6947 71.0882 73.5454 70.8312C73.396 70.5717 73.1537 70.442 72.8183 70.442C72.6225 70.442 72.4328 70.486 72.2492 70.5741C72.068 70.6598 71.8955 70.7712 71.7315 70.9083V73.2326C71.9126 73.3207 72.0668 73.3807 72.1941 73.4125C72.3239 73.4443 72.472 73.4602 72.6384 73.4602C72.9958 73.4602 73.2736 73.3293 73.4719 73.0673C73.6702 72.8054 73.7693 72.4223 73.7693 71.918ZM76.9786 74.0955C76.325 74.0955 75.817 73.9119 75.4547 73.5447C75.0949 73.1751 74.915 72.6512 74.915 71.9731C74.915 71.3048 75.09 70.7736 75.4401 70.3795C75.7901 69.983 76.2479 69.7847 76.8133 69.7847C77.0679 69.7847 77.2931 69.8214 77.489 69.8948C77.6848 69.9683 77.8561 70.0833 78.003 70.24C78.1499 70.3967 78.2625 70.5888 78.3408 70.8165C78.4192 71.0417 78.4583 71.3183 78.4583 71.6463V72.0209H75.6163C75.6163 72.4982 75.7363 72.8629 75.9761 73.1151C76.216 73.3672 76.5477 73.4933 76.9712 73.4933C77.123 73.4933 77.2711 73.4761 77.4155 73.4419C77.5624 73.4076 77.6946 73.3635 77.8121 73.3097C77.9369 73.2534 78.0422 73.1995 78.1279 73.1481C78.2135 73.0943 78.2845 73.0441 78.3408 72.9976H78.3812V73.7503C78.3004 73.7821 78.2001 73.8225 78.0801 73.8715C77.9602 73.918 77.8525 73.9547 77.757 73.9816C77.6224 74.0184 77.5 74.0465 77.3898 74.0661C77.2821 74.0857 77.145 74.0955 76.9786 74.0955ZM77.7864 71.4921C77.7815 71.3061 77.7595 71.1457 77.7203 71.0111C77.6811 70.8765 77.6248 70.7626 77.5514 70.6696C77.4706 70.5668 77.3666 70.4885 77.2393 70.4346C77.1144 70.3808 76.959 70.3538 76.7729 70.3538C76.5893 70.3538 76.4327 70.382 76.3029 70.4383C76.1757 70.4921 76.0594 70.5717 75.9541 70.677C75.8513 70.7847 75.773 70.9046 75.7191 71.0368C75.6653 71.1665 75.631 71.3183 75.6163 71.4921H77.7864ZM82.6736 74.9841H82.0311V73.989H79.3286V74.9841H78.686V73.4125H78.9577C79.1903 73.0306 79.38 72.5325 79.5269 71.918C79.6762 71.3012 79.7508 70.628 79.7508 69.8985H82.2661V73.4125H82.6736V74.9841ZM81.5758 73.4125V70.4787H80.4008C80.3689 71.0907 80.2845 71.65 80.1474 72.1567C80.0128 72.661 79.8426 73.0796 79.637 73.4125H81.5758ZM85.1375 74.0955C84.4839 74.0955 83.9759 73.9119 83.6136 73.5447C83.2538 73.1751 83.0739 72.6512 83.0739 71.9731C83.0739 71.3048 83.2489 70.7736 83.599 70.3795C83.949 69.983 84.4068 69.7847 84.9722 69.7847C85.2268 69.7847 85.452 69.8214 85.6479 69.8948C85.8437 69.9683 86.0151 70.0833 86.1619 70.24C86.3088 70.3967 86.4214 70.5888 86.4997 70.8165C86.5781 71.0417 86.6172 71.3183 86.6172 71.6463V72.0209H83.7752C83.7752 72.4982 83.8952 72.8629 84.1351 73.1151C84.375 73.3672 84.7066 73.4933 85.1301 73.4933C85.2819 73.4933 85.43 73.4761 85.5744 73.4419C85.7213 73.4076 85.8535 73.3635 85.971 73.3097C86.0958 73.2534 86.2011 73.1995 86.2868 73.1481C86.3725 73.0943 86.4434 73.0441 86.4997 72.9976H86.5401V73.7503C86.4594 73.7821 86.359 73.8225 86.239 73.8715C86.1191 73.918 86.0114 73.9547 85.9159 73.9816C85.7813 74.0184 85.6589 74.0465 85.5487 74.0661C85.441 74.0857 85.3039 74.0955 85.1375 74.0955ZM85.9453 71.4921C85.9404 71.3061 85.9184 71.1457 85.8792 71.0111C85.84 70.8765 85.7837 70.7626 85.7103 70.6696C85.6295 70.5668 85.5255 70.4885 85.3982 70.4346C85.2733 70.3808 85.1179 70.3538 84.9319 70.3538C84.7483 70.3538 84.5916 70.382 84.4619 70.4383C84.3346 70.4921 84.2183 70.5717 84.113 70.677C84.0102 70.7847 83.9319 70.9046 83.878 71.0368C83.8242 71.1665 83.7899 71.3183 83.7752 71.4921H85.9453ZM90.4911 74H89.8008V70.4787H88.3908C88.3834 70.6818 88.3761 70.8777 88.3687 71.0662C88.3614 71.2522 88.354 71.4211 88.3467 71.5729C88.332 71.9572 88.3063 72.2791 88.2696 72.5386C88.2353 72.7981 88.1913 73.0061 88.1374 73.1628C88.0835 73.3244 88.0236 73.4504 87.9575 73.541C87.8938 73.6316 87.8216 73.7136 87.7408 73.787C87.6576 73.8605 87.5683 73.9155 87.4728 73.9523C87.3773 73.989 87.2696 74.0073 87.1497 74.0073C87.1105 74.0073 87.0603 74.0061 86.9991 74.0037C86.9379 74.0012 86.8951 74 86.8706 74V73.3978H86.9073C86.9245 73.3978 86.9416 73.399 86.9587 73.4015C86.9783 73.4039 87.0003 73.4052 87.0248 73.4052C87.0836 73.4052 87.1411 73.3966 87.1974 73.3795C87.2537 73.3623 87.3039 73.3305 87.3479 73.284C87.4703 73.164 87.5597 72.9547 87.616 72.6561C87.6723 72.355 87.7127 71.9352 87.7372 71.3966C87.747 71.1959 87.7555 70.9585 87.7629 70.6843C87.7727 70.4101 87.7812 70.1482 87.7886 69.8985H90.4911V74Z" fill="#303549"/>
<path d="M227.334 47L228.384 41.9893H229.935C230.218 41.9893 230.427 42.0007 230.564 42.0234C230.788 42.0622 230.976 42.1305 231.128 42.2285C231.283 42.3242 231.403 42.4564 231.487 42.625C231.571 42.7913 231.614 42.9759 231.614 43.1787C231.614 43.4544 231.537 43.6971 231.385 43.9067C231.234 44.1164 231.003 44.2759 230.691 44.3853C230.962 44.4741 231.165 44.6086 231.299 44.7886C231.434 44.9663 231.501 45.1748 231.501 45.4141C231.501 45.6898 231.421 45.9541 231.261 46.207C231.104 46.46 230.895 46.6559 230.633 46.7949C230.373 46.9316 230.082 47 229.761 47H227.334ZM228.606 44.1289H229.621C230.106 44.1289 230.455 44.0514 230.667 43.8965C230.881 43.7415 230.988 43.516 230.988 43.2197C230.988 43.0785 230.955 42.9565 230.889 42.854C230.823 42.7515 230.734 42.6774 230.622 42.6318C230.513 42.584 230.306 42.5601 230 42.5601H228.934L228.606 44.1289ZM228.124 46.4326H229.265C229.568 46.4326 229.772 46.4224 229.877 46.4019C230.089 46.3654 230.261 46.3039 230.393 46.2173C230.525 46.1284 230.629 46.0122 230.704 45.8687C230.78 45.7251 230.817 45.5747 230.817 45.4175C230.817 45.1828 230.743 45.005 230.595 44.8843C230.449 44.7612 230.17 44.6997 229.758 44.6997H228.486L228.124 46.4326ZM234.351 45.0996C234.581 45.1794 234.753 45.2899 234.867 45.4312C234.981 45.5701 235.038 45.7399 235.038 45.9404C235.038 46.2184 234.915 46.4782 234.669 46.7197C234.423 46.9613 234.061 47.082 233.582 47.082C233.222 47.082 232.937 47.0216 232.728 46.9009C232.518 46.7801 232.351 46.6081 232.225 46.3848C232.102 46.1592 232.041 45.9085 232.041 45.6328C232.041 44.988 232.226 44.4365 232.598 43.9785C232.969 43.5182 233.469 43.2881 234.098 43.2881C234.477 43.2881 234.765 43.3758 234.963 43.5513C235.161 43.7244 235.26 43.9375 235.26 44.1904C235.26 44.4206 235.184 44.612 235.031 44.7646C234.881 44.915 234.654 45.0267 234.351 45.0996ZM232.793 44.8433C232.959 44.8569 233.103 44.8638 233.223 44.8638C233.693 44.8638 234.044 44.8125 234.276 44.71C234.511 44.6051 234.628 44.4502 234.628 44.2451C234.628 44.1107 234.577 43.999 234.474 43.9102C234.374 43.8213 234.242 43.7769 234.078 43.7769C233.795 43.7769 233.534 43.8726 233.295 44.064C233.056 44.2531 232.888 44.5129 232.793 44.8433ZM232.694 45.3252C232.678 45.4232 232.67 45.52 232.67 45.6157C232.67 45.9028 232.752 46.1387 232.916 46.3232C233.08 46.5055 233.316 46.5967 233.623 46.5967C233.863 46.5967 234.053 46.534 234.194 46.4087C234.338 46.2811 234.409 46.1261 234.409 45.9438C234.409 45.6932 234.31 45.5269 234.112 45.4448C233.914 45.3628 233.55 45.3218 233.022 45.3218C232.972 45.3218 232.862 45.3229 232.694 45.3252ZM238.097 45.7661L238.699 45.8276C238.612 46.1261 238.413 46.4098 238.101 46.6787C237.791 46.9476 237.421 47.082 236.99 47.082C236.721 47.082 236.474 47.0205 236.248 46.8975C236.025 46.7721 235.854 46.591 235.736 46.354C235.619 46.117 235.561 45.847 235.561 45.5439C235.561 45.1475 235.652 44.7635 235.835 44.3921C236.019 44.0184 236.257 43.7415 236.549 43.5615C236.841 43.3792 237.156 43.2881 237.496 43.2881C237.929 43.2881 238.274 43.4225 238.531 43.6914C238.791 43.9603 238.921 44.3271 238.921 44.792C238.921 44.9697 238.905 45.152 238.873 45.3389H236.2C236.191 45.4095 236.187 45.4733 236.187 45.5303C236.187 45.8698 236.264 46.1296 236.419 46.3096C236.576 46.4873 236.768 46.5762 236.993 46.5762C237.205 46.5762 237.414 46.5067 237.619 46.3677C237.824 46.2287 237.983 46.0282 238.097 45.7661ZM236.3 44.8672H238.337C238.339 44.8034 238.34 44.7578 238.34 44.7305C238.34 44.4206 238.263 44.1836 238.108 44.0195C237.953 43.8532 237.753 43.77 237.51 43.77C237.245 43.77 237.004 43.8612 236.785 44.0435C236.568 44.2257 236.407 44.5003 236.3 44.8672ZM240.572 42.4404L240.688 41.9038H241.136C241.708 41.9038 242.135 42.0531 242.418 42.3516C242.703 42.6501 242.845 43.1195 242.845 43.7598C242.845 44.7943 242.671 45.6066 242.322 46.1968C241.976 46.7869 241.478 47.082 240.828 47.082C240.407 47.082 240.056 46.9544 239.776 46.6992C239.495 46.444 239.355 46.0669 239.355 45.5679C239.355 44.9299 239.547 44.391 239.929 43.9512C240.312 43.5091 240.77 43.2881 241.303 43.2881C241.536 43.2881 241.735 43.3405 241.902 43.4453C242.068 43.5479 242.201 43.7039 242.302 43.9136C242.302 43.5968 242.286 43.3621 242.254 43.2095C242.224 43.0568 242.157 42.9167 242.052 42.7891C241.947 42.6615 241.814 42.5715 241.652 42.519C241.49 42.4644 241.264 42.437 240.972 42.437L240.572 42.4404ZM239.974 45.5952C239.974 45.8892 240.05 46.1273 240.203 46.3096C240.356 46.4919 240.57 46.583 240.845 46.583C241.244 46.583 241.564 46.3916 241.806 46.0088C242.047 45.6237 242.168 45.2101 242.168 44.7681C242.168 44.4855 242.093 44.2497 241.943 44.0605C241.792 43.8714 241.583 43.7769 241.314 43.7769C240.904 43.7769 240.578 43.966 240.336 44.3442C240.095 44.7225 239.974 45.1395 239.974 45.5952ZM245.593 46.3438C245.158 46.8359 244.712 47.082 244.257 47.082C243.976 47.082 243.75 47.0023 243.576 46.8428C243.406 46.681 243.32 46.4839 243.32 46.2515C243.32 46.0988 243.359 45.8368 243.436 45.4653L243.874 43.3701H244.492L244.007 45.6909C243.966 45.8846 243.946 46.035 243.946 46.1421C243.946 46.2788 243.987 46.3859 244.069 46.4634C244.153 46.5386 244.276 46.5762 244.438 46.5762C244.611 46.5762 244.78 46.534 244.944 46.4497C245.11 46.3654 245.252 46.2515 245.371 46.1079C245.492 45.9644 245.59 45.7946 245.665 45.5986C245.715 45.4733 245.773 45.2534 245.839 44.939L246.167 43.3701H246.786L246.027 47H245.456L245.593 46.3438ZM247.008 47L247.767 43.3701H248.385L248.259 43.9683C248.489 43.7108 248.694 43.533 248.874 43.4351C249.057 43.3371 249.254 43.2881 249.466 43.2881C249.691 43.2881 249.879 43.3485 250.03 43.4692C250.182 43.5877 250.282 43.7541 250.33 43.9683C250.515 43.7404 250.709 43.5706 250.911 43.459C251.116 43.3451 251.332 43.2881 251.557 43.2881C251.86 43.2881 252.087 43.3599 252.238 43.5034C252.39 43.647 252.467 43.8486 252.467 44.1084C252.467 44.2201 252.44 44.4046 252.388 44.6621L251.899 47H251.281L251.78 44.6006C251.823 44.4046 251.844 44.2645 251.844 44.1802C251.844 44.0617 251.807 43.9683 251.732 43.8999C251.656 43.8315 251.551 43.7974 251.414 43.7974C251.229 43.7974 251.041 43.8532 250.85 43.9648C250.658 44.0765 250.509 44.2235 250.402 44.4058C250.297 44.5858 250.205 44.8638 250.125 45.2397L249.756 47H249.137L249.65 44.5493C249.687 44.383 249.705 44.2645 249.705 44.1938C249.705 44.0754 249.667 43.9797 249.592 43.9067C249.519 43.8338 249.423 43.7974 249.305 43.7974C249.129 43.7974 248.945 43.8532 248.751 43.9648C248.56 44.0765 248.404 44.2326 248.283 44.4331C248.162 44.6313 248.063 44.915 247.986 45.2842L247.627 47H247.008ZM255.509 45.7661L256.11 45.8276C256.024 46.1261 255.824 46.4098 255.512 46.6787C255.202 46.9476 254.832 47.082 254.401 47.082C254.132 47.082 253.885 47.0205 253.659 46.8975C253.436 46.7721 253.265 46.591 253.147 46.354C253.031 46.117 252.972 45.847 252.972 45.5439C252.972 45.1475 253.064 44.7635 253.246 44.3921C253.43 44.0184 253.669 43.7415 253.96 43.5615C254.252 43.3792 254.567 43.2881 254.907 43.2881C255.34 43.2881 255.685 43.4225 255.943 43.6914C256.202 43.9603 256.332 44.3271 256.332 44.792C256.332 44.9697 256.316 45.152 256.284 45.3389H253.612C253.602 45.4095 253.598 45.4733 253.598 45.5303C253.598 45.8698 253.675 46.1296 253.83 46.3096C253.988 46.4873 254.179 46.5762 254.405 46.5762C254.616 46.5762 254.825 46.5067 255.03 46.3677C255.235 46.2287 255.395 46.0282 255.509 45.7661ZM253.711 44.8672H255.748C255.75 44.8034 255.751 44.7578 255.751 44.7305C255.751 44.4206 255.674 44.1836 255.519 44.0195C255.364 43.8532 255.164 43.77 254.921 43.77C254.656 43.77 254.415 43.8612 254.196 44.0435C253.98 44.2257 253.818 44.5003 253.711 44.8672ZM259.655 44.3101L259.084 44.2451C259.232 43.8828 259.415 43.6333 259.634 43.4966C259.855 43.3576 260.134 43.2881 260.471 43.2881C260.834 43.2881 261.119 43.3724 261.326 43.541C261.533 43.7074 261.637 43.9284 261.637 44.2041C261.637 44.4183 261.582 44.6029 261.473 44.7578C261.364 44.9128 261.199 45.0392 260.981 45.1372C261.268 45.3195 261.411 45.5713 261.411 45.8926C261.411 46.2048 261.289 46.4816 261.046 46.7231C260.802 46.9624 260.445 47.082 259.976 47.082C259.174 47.082 258.702 46.7163 258.561 45.9849L259.149 45.9404C259.242 46.387 259.528 46.6104 260.007 46.6104C260.237 46.6104 260.426 46.5488 260.574 46.4258C260.722 46.3005 260.796 46.1375 260.796 45.937C260.796 45.7866 260.755 45.667 260.673 45.5781C260.593 45.487 260.492 45.43 260.369 45.4072C260.246 45.3844 260.058 45.373 259.805 45.373L259.911 44.8877C259.963 44.8923 260.015 44.8945 260.065 44.8945C260.386 44.8945 260.626 44.841 260.786 44.7339C260.948 44.6245 261.029 44.4627 261.029 44.2485C261.029 44.0822 260.976 43.958 260.871 43.876C260.769 43.7917 260.613 43.7495 260.403 43.7495C260.269 43.7495 260.139 43.7769 260.013 43.8315C259.888 43.8862 259.768 44.0457 259.655 44.3101ZM262.7 43.3701H263.312L262.984 44.8843H264.669L264.99 43.3701H265.595L264.829 47H264.214L264.563 45.3765H262.885L262.536 47H261.924L262.7 43.3701ZM268.244 46.5488C268.03 46.7334 267.823 46.869 267.625 46.9556C267.427 47.0399 267.215 47.082 266.99 47.082C266.655 47.082 266.385 46.984 266.179 46.7881C265.974 46.5898 265.872 46.3369 265.872 46.0293C265.872 45.8265 265.917 45.6476 266.009 45.4927C266.102 45.3354 266.225 45.2101 266.378 45.1167C266.53 45.021 266.717 44.9526 266.938 44.9116C267.077 44.8843 267.34 44.8626 267.728 44.8467C268.117 44.8307 268.397 44.7897 268.565 44.7236C268.613 44.555 268.637 44.4149 268.637 44.3032C268.637 44.1597 268.585 44.0469 268.48 43.9648C268.336 43.8509 268.127 43.7939 267.851 43.7939C267.591 43.7939 267.378 43.8521 267.212 43.9683C267.048 44.0822 266.928 44.2451 266.853 44.457L266.227 44.4023C266.355 44.0423 266.557 43.7666 266.832 43.5752C267.11 43.3838 267.46 43.2881 267.882 43.2881C268.33 43.2881 268.686 43.3952 268.948 43.6094C269.149 43.7689 269.249 43.9762 269.249 44.2314C269.249 44.4251 269.22 44.6496 269.163 44.9048L268.962 45.8071C268.898 46.0942 268.866 46.3278 268.866 46.5078C268.866 46.6217 268.891 46.7858 268.941 47H268.316C268.281 46.8815 268.258 46.7311 268.244 46.5488ZM268.473 45.1611C268.386 45.1953 268.293 45.2215 268.193 45.2397C268.095 45.258 267.929 45.2773 267.697 45.2979C267.337 45.3298 267.083 45.3708 266.935 45.4209C266.787 45.4688 266.675 45.5462 266.6 45.6533C266.525 45.7604 266.487 45.8789 266.487 46.0088C266.487 46.182 266.546 46.3244 266.665 46.436C266.786 46.5477 266.956 46.6035 267.177 46.6035C267.383 46.6035 267.58 46.55 267.769 46.4429C267.958 46.3335 268.107 46.182 268.217 45.9883C268.326 45.7946 268.411 45.5189 268.473 45.1611ZM269.768 43.3701H270.377L270.247 43.9785C270.165 44.3636 270.124 44.6336 270.124 44.7886C270.124 44.9481 270.184 45.0688 270.305 45.1509C270.426 45.2306 270.607 45.2705 270.848 45.2705C271.142 45.2705 271.413 45.2192 271.662 45.1167L272.034 43.3701H272.65L271.877 47H271.259L271.556 45.6089C271.248 45.7114 270.961 45.7627 270.695 45.7627C270.323 45.7627 270.031 45.6841 269.82 45.5269C269.61 45.3696 269.505 45.1463 269.505 44.8569C269.505 44.7339 269.56 44.3978 269.669 43.8486L269.768 43.3701ZM275.51 45.7661L276.112 45.8276C276.025 46.1261 275.826 46.4098 275.514 46.6787C275.204 46.9476 274.834 47.082 274.403 47.082C274.134 47.082 273.887 47.0205 273.661 46.8975C273.438 46.7721 273.267 46.591 273.149 46.354C273.032 46.117 272.974 45.847 272.974 45.5439C272.974 45.1475 273.066 44.7635 273.248 44.3921C273.432 44.0184 273.67 43.7415 273.962 43.5615C274.254 43.3792 274.569 43.2881 274.909 43.2881C275.342 43.2881 275.687 43.4225 275.945 43.6914C276.204 43.9603 276.334 44.3271 276.334 44.792C276.334 44.9697 276.318 45.152 276.286 45.3389H273.614C273.604 45.4095 273.6 45.4733 273.6 45.5303C273.6 45.8698 273.677 46.1296 273.832 46.3096C273.99 46.4873 274.181 46.5762 274.406 46.5762C274.618 46.5762 274.827 46.5067 275.032 46.3677C275.237 46.2287 275.397 46.0282 275.51 45.7661ZM273.713 44.8672H275.75C275.752 44.8034 275.753 44.7578 275.753 44.7305C275.753 44.4206 275.676 44.1836 275.521 44.0195C275.366 43.8532 275.166 43.77 274.923 43.77C274.658 43.77 274.417 43.8612 274.198 44.0435C273.982 44.2257 273.82 44.5003 273.713 44.8672ZM277.5 43.3701H278.112L277.783 44.8843H279.469L279.79 43.3701H280.395L279.629 47H279.014L279.363 45.3765H277.684L277.336 47H276.724L277.5 43.3701ZM283.074 46.3438C282.639 46.8359 282.194 47.082 281.738 47.082C281.458 47.082 281.231 47.0023 281.058 46.8428C280.887 46.681 280.802 46.4839 280.802 46.2515C280.802 46.0988 280.84 45.8368 280.918 45.4653L281.355 43.3701H281.974L281.489 45.6909C281.448 45.8846 281.427 46.035 281.427 46.1421C281.427 46.2788 281.468 46.3859 281.55 46.4634C281.634 46.5386 281.757 46.5762 281.919 46.5762C282.092 46.5762 282.261 46.534 282.425 46.4497C282.591 46.3654 282.734 46.2515 282.852 46.1079C282.973 45.9644 283.071 45.7946 283.146 45.5986C283.196 45.4733 283.254 45.2534 283.321 44.939L283.649 43.3701H284.267L283.509 47H282.938L283.074 46.3438ZM287.159 45.7661L287.76 45.8276C287.674 46.1261 287.475 46.4098 287.162 46.6787C286.852 46.9476 286.482 47.082 286.052 47.082C285.783 47.082 285.535 47.0205 285.31 46.8975C285.087 46.7721 284.916 46.591 284.797 46.354C284.681 46.117 284.623 45.847 284.623 45.5439C284.623 45.1475 284.714 44.7635 284.896 44.3921C285.081 44.0184 285.319 43.7415 285.611 43.5615C285.902 43.3792 286.218 43.2881 286.557 43.2881C286.99 43.2881 287.336 43.4225 287.593 43.6914C287.853 43.9603 287.983 44.3271 287.983 44.792C287.983 44.9697 287.967 45.152 287.935 45.3389H285.262C285.253 45.4095 285.248 45.4733 285.248 45.5303C285.248 45.8698 285.326 46.1296 285.481 46.3096C285.638 46.4873 285.829 46.5762 286.055 46.5762C286.267 46.5762 286.475 46.5067 286.68 46.3677C286.885 46.2287 287.045 46.0282 287.159 45.7661ZM285.361 44.8672H287.398C287.4 44.8034 287.402 44.7578 287.402 44.7305C287.402 44.4206 287.324 44.1836 287.169 44.0195C287.014 43.8532 286.815 43.77 286.571 43.77C286.307 43.77 286.065 43.8612 285.846 44.0435C285.63 44.2257 285.468 44.5003 285.361 44.8672Z" fill="#303549"/>
<path d="M227.334 74L228.384 68.9893H229.935C230.218 68.9893 230.427 69.0007 230.564 69.0234C230.788 69.0622 230.976 69.1305 231.128 69.2285C231.283 69.3242 231.403 69.4564 231.487 69.625C231.571 69.7913 231.614 69.9759 231.614 70.1787C231.614 70.4544 231.537 70.6971 231.385 70.9067C231.234 71.1164 231.003 71.2759 230.691 71.3853C230.962 71.4741 231.165 71.6086 231.299 71.7886C231.434 71.9663 231.501 72.1748 231.501 72.4141C231.501 72.6898 231.421 72.9541 231.261 73.207C231.104 73.46 230.895 73.6559 230.633 73.7949C230.373 73.9316 230.082 74 229.761 74H227.334ZM228.606 71.1289H229.621C230.106 71.1289 230.455 71.0514 230.667 70.8965C230.881 70.7415 230.988 70.516 230.988 70.2197C230.988 70.0785 230.955 69.9565 230.889 69.854C230.823 69.7515 230.734 69.6774 230.622 69.6318C230.513 69.584 230.306 69.5601 230 69.5601H228.934L228.606 71.1289ZM228.124 73.4326H229.265C229.568 73.4326 229.772 73.4224 229.877 73.4019C230.089 73.3654 230.261 73.3039 230.393 73.2173C230.525 73.1284 230.629 73.0122 230.704 72.8687C230.78 72.7251 230.817 72.5747 230.817 72.4175C230.817 72.1828 230.743 72.005 230.595 71.8843C230.449 71.7612 230.17 71.6997 229.758 71.6997H228.486L228.124 73.4326ZM234.351 72.0996C234.581 72.1794 234.753 72.2899 234.867 72.4312C234.981 72.5701 235.038 72.7399 235.038 72.9404C235.038 73.2184 234.915 73.4782 234.669 73.7197C234.423 73.9613 234.061 74.082 233.582 74.082C233.222 74.082 232.937 74.0216 232.728 73.9009C232.518 73.7801 232.351 73.6081 232.225 73.3848C232.102 73.1592 232.041 72.9085 232.041 72.6328C232.041 71.988 232.226 71.4365 232.598 70.9785C232.969 70.5182 233.469 70.2881 234.098 70.2881C234.477 70.2881 234.765 70.3758 234.963 70.5513C235.161 70.7244 235.26 70.9375 235.26 71.1904C235.26 71.4206 235.184 71.612 235.031 71.7646C234.881 71.915 234.654 72.0267 234.351 72.0996ZM232.793 71.8433C232.959 71.8569 233.103 71.8638 233.223 71.8638C233.693 71.8638 234.044 71.8125 234.276 71.71C234.511 71.6051 234.628 71.4502 234.628 71.2451C234.628 71.1107 234.577 70.999 234.474 70.9102C234.374 70.8213 234.242 70.7769 234.078 70.7769C233.795 70.7769 233.534 70.8726 233.295 71.064C233.056 71.2531 232.888 71.5129 232.793 71.8433ZM232.694 72.3252C232.678 72.4232 232.67 72.52 232.67 72.6157C232.67 72.9028 232.752 73.1387 232.916 73.3232C233.08 73.5055 233.316 73.5967 233.623 73.5967C233.863 73.5967 234.053 73.534 234.194 73.4087C234.338 73.2811 234.409 73.1261 234.409 72.9438C234.409 72.6932 234.31 72.5269 234.112 72.4448C233.914 72.3628 233.55 72.3218 233.022 72.3218C232.972 72.3218 232.862 72.3229 232.694 72.3252ZM238.097 72.7661L238.699 72.8276C238.612 73.1261 238.413 73.4098 238.101 73.6787C237.791 73.9476 237.421 74.082 236.99 74.082C236.721 74.082 236.474 74.0205 236.248 73.8975C236.025 73.7721 235.854 73.591 235.736 73.354C235.619 73.117 235.561 72.847 235.561 72.5439C235.561 72.1475 235.652 71.7635 235.835 71.3921C236.019 71.0184 236.257 70.7415 236.549 70.5615C236.841 70.3792 237.156 70.2881 237.496 70.2881C237.929 70.2881 238.274 70.4225 238.531 70.6914C238.791 70.9603 238.921 71.3271 238.921 71.792C238.921 71.9697 238.905 72.152 238.873 72.3389H236.2C236.191 72.4095 236.187 72.4733 236.187 72.5303C236.187 72.8698 236.264 73.1296 236.419 73.3096C236.576 73.4873 236.768 73.5762 236.993 73.5762C237.205 73.5762 237.414 73.5067 237.619 73.3677C237.824 73.2287 237.983 73.0282 238.097 72.7661ZM236.3 71.8672H238.337C238.339 71.8034 238.34 71.7578 238.34 71.7305C238.34 71.4206 238.263 71.1836 238.108 71.0195C237.953 70.8532 237.753 70.77 237.51 70.77C237.245 70.77 237.004 70.8612 236.785 71.0435C236.568 71.2257 236.407 71.5003 236.3 71.8672ZM240.572 69.4404L240.688 68.9038H241.136C241.708 68.9038 242.135 69.0531 242.418 69.3516C242.703 69.6501 242.845 70.1195 242.845 70.7598C242.845 71.7943 242.671 72.6066 242.322 73.1968C241.976 73.7869 241.478 74.082 240.828 74.082C240.407 74.082 240.056 73.9544 239.776 73.6992C239.495 73.444 239.355 73.0669 239.355 72.5679C239.355 71.9299 239.547 71.391 239.929 70.9512C240.312 70.5091 240.77 70.2881 241.303 70.2881C241.536 70.2881 241.735 70.3405 241.902 70.4453C242.068 70.5479 242.201 70.7039 242.302 70.9136C242.302 70.5968 242.286 70.3621 242.254 70.2095C242.224 70.0568 242.157 69.9167 242.052 69.7891C241.947 69.6615 241.814 69.5715 241.652 69.519C241.49 69.4644 241.264 69.437 240.972 69.437L240.572 69.4404ZM239.974 72.5952C239.974 72.8892 240.05 73.1273 240.203 73.3096C240.356 73.4919 240.57 73.583 240.845 73.583C241.244 73.583 241.564 73.3916 241.806 73.0088C242.047 72.6237 242.168 72.2101 242.168 71.7681C242.168 71.4855 242.093 71.2497 241.943 71.0605C241.792 70.8714 241.583 70.7769 241.314 70.7769C240.904 70.7769 240.578 70.966 240.336 71.3442C240.095 71.7225 239.974 72.1395 239.974 72.5952ZM245.593 73.3438C245.158 73.8359 244.712 74.082 244.257 74.082C243.976 74.082 243.75 74.0023 243.576 73.8428C243.406 73.681 243.32 73.4839 243.32 73.2515C243.32 73.0988 243.359 72.8368 243.436 72.4653L243.874 70.3701H244.492L244.007 72.6909C243.966 72.8846 243.946 73.035 243.946 73.1421C243.946 73.2788 243.987 73.3859 244.069 73.4634C244.153 73.5386 244.276 73.5762 244.438 73.5762C244.611 73.5762 244.78 73.534 244.944 73.4497C245.11 73.3654 245.252 73.2515 245.371 73.1079C245.492 72.9644 245.59 72.7946 245.665 72.5986C245.715 72.4733 245.773 72.2534 245.839 71.939L246.167 70.3701H246.786L246.027 74H245.456L245.593 73.3438ZM247.008 74L247.767 70.3701H248.385L248.259 70.9683C248.489 70.7108 248.694 70.533 248.874 70.4351C249.057 70.3371 249.254 70.2881 249.466 70.2881C249.691 70.2881 249.879 70.3485 250.03 70.4692C250.182 70.5877 250.282 70.7541 250.33 70.9683C250.515 70.7404 250.709 70.5706 250.911 70.459C251.116 70.3451 251.332 70.2881 251.557 70.2881C251.86 70.2881 252.087 70.3599 252.238 70.5034C252.39 70.647 252.467 70.8486 252.467 71.1084C252.467 71.2201 252.44 71.4046 252.388 71.6621L251.899 74H251.281L251.78 71.6006C251.823 71.4046 251.844 71.2645 251.844 71.1802C251.844 71.0617 251.807 70.9683 251.732 70.8999C251.656 70.8315 251.551 70.7974 251.414 70.7974C251.229 70.7974 251.041 70.8532 250.85 70.9648C250.658 71.0765 250.509 71.2235 250.402 71.4058C250.297 71.5858 250.205 71.8638 250.125 72.2397L249.756 74H249.137L249.65 71.5493C249.687 71.383 249.705 71.2645 249.705 71.1938C249.705 71.0754 249.667 70.9797 249.592 70.9067C249.519 70.8338 249.423 70.7974 249.305 70.7974C249.129 70.7974 248.945 70.8532 248.751 70.9648C248.56 71.0765 248.404 71.2326 248.283 71.4331C248.162 71.6313 248.063 71.915 247.986 72.2842L247.627 74H247.008ZM255.509 72.7661L256.11 72.8276C256.024 73.1261 255.824 73.4098 255.512 73.6787C255.202 73.9476 254.832 74.082 254.401 74.082C254.132 74.082 253.885 74.0205 253.659 73.8975C253.436 73.7721 253.265 73.591 253.147 73.354C253.031 73.117 252.972 72.847 252.972 72.5439C252.972 72.1475 253.064 71.7635 253.246 71.3921C253.43 71.0184 253.669 70.7415 253.96 70.5615C254.252 70.3792 254.567 70.2881 254.907 70.2881C255.34 70.2881 255.685 70.4225 255.943 70.6914C256.202 70.9603 256.332 71.3271 256.332 71.792C256.332 71.9697 256.316 72.152 256.284 72.3389H253.612C253.602 72.4095 253.598 72.4733 253.598 72.5303C253.598 72.8698 253.675 73.1296 253.83 73.3096C253.988 73.4873 254.179 73.5762 254.405 73.5762C254.616 73.5762 254.825 73.5067 255.03 73.3677C255.235 73.2287 255.395 73.0282 255.509 72.7661ZM253.711 71.8672H255.748C255.75 71.8034 255.751 71.7578 255.751 71.7305C255.751 71.4206 255.674 71.1836 255.519 71.0195C255.364 70.8532 255.164 70.77 254.921 70.77C254.656 70.77 254.415 70.8612 254.196 71.0435C253.98 71.2257 253.818 71.5003 253.711 71.8672ZM259.655 71.3101L259.084 71.2451C259.232 70.8828 259.415 70.6333 259.634 70.4966C259.855 70.3576 260.134 70.2881 260.471 70.2881C260.834 70.2881 261.119 70.3724 261.326 70.541C261.533 70.7074 261.637 70.9284 261.637 71.2041C261.637 71.4183 261.582 71.6029 261.473 71.7578C261.364 71.9128 261.199 72.0392 260.981 72.1372C261.268 72.3195 261.411 72.5713 261.411 72.8926C261.411 73.2048 261.289 73.4816 261.046 73.7231C260.802 73.9624 260.445 74.082 259.976 74.082C259.174 74.082 258.702 73.7163 258.561 72.9849L259.149 72.9404C259.242 73.387 259.528 73.6104 260.007 73.6104C260.237 73.6104 260.426 73.5488 260.574 73.4258C260.722 73.3005 260.796 73.1375 260.796 72.937C260.796 72.7866 260.755 72.667 260.673 72.5781C260.593 72.487 260.492 72.43 260.369 72.4072C260.246 72.3844 260.058 72.373 259.805 72.373L259.911 71.8877C259.963 71.8923 260.015 71.8945 260.065 71.8945C260.386 71.8945 260.626 71.841 260.786 71.7339C260.948 71.6245 261.029 71.4627 261.029 71.2485C261.029 71.0822 260.976 70.958 260.871 70.876C260.769 70.7917 260.613 70.7495 260.403 70.7495C260.269 70.7495 260.139 70.7769 260.013 70.8315C259.888 70.8862 259.768 71.0457 259.655 71.3101ZM262.7 70.3701H263.312L262.984 71.8843H264.669L264.99 70.3701H265.595L264.829 74H264.214L264.563 72.3765H262.885L262.536 74H261.924L262.7 70.3701ZM268.244 73.5488C268.03 73.7334 267.823 73.869 267.625 73.9556C267.427 74.0399 267.215 74.082 266.99 74.082C266.655 74.082 266.385 73.984 266.179 73.7881C265.974 73.5898 265.872 73.3369 265.872 73.0293C265.872 72.8265 265.917 72.6476 266.009 72.4927C266.102 72.3354 266.225 72.2101 266.378 72.1167C266.53 72.021 266.717 71.9526 266.938 71.9116C267.077 71.8843 267.34 71.8626 267.728 71.8467C268.117 71.8307 268.397 71.7897 268.565 71.7236C268.613 71.555 268.637 71.4149 268.637 71.3032C268.637 71.1597 268.585 71.0469 268.48 70.9648C268.336 70.8509 268.127 70.7939 267.851 70.7939C267.591 70.7939 267.378 70.8521 267.212 70.9683C267.048 71.0822 266.928 71.2451 266.853 71.457L266.227 71.4023C266.355 71.0423 266.557 70.7666 266.832 70.5752C267.11 70.3838 267.46 70.2881 267.882 70.2881C268.33 70.2881 268.686 70.3952 268.948 70.6094C269.149 70.7689 269.249 70.9762 269.249 71.2314C269.249 71.4251 269.22 71.6496 269.163 71.9048L268.962 72.8071C268.898 73.0942 268.866 73.3278 268.866 73.5078C268.866 73.6217 268.891 73.7858 268.941 74H268.316C268.281 73.8815 268.258 73.7311 268.244 73.5488ZM268.473 72.1611C268.386 72.1953 268.293 72.2215 268.193 72.2397C268.095 72.258 267.929 72.2773 267.697 72.2979C267.337 72.3298 267.083 72.3708 266.935 72.4209C266.787 72.4688 266.675 72.5462 266.6 72.6533C266.525 72.7604 266.487 72.8789 266.487 73.0088C266.487 73.182 266.546 73.3244 266.665 73.436C266.786 73.5477 266.956 73.6035 267.177 73.6035C267.383 73.6035 267.58 73.55 267.769 73.4429C267.958 73.3335 268.107 73.182 268.217 72.9883C268.326 72.7946 268.411 72.5189 268.473 72.1611ZM269.768 70.3701H270.377L270.247 70.9785C270.165 71.3636 270.124 71.6336 270.124 71.7886C270.124 71.9481 270.184 72.0688 270.305 72.1509C270.426 72.2306 270.607 72.2705 270.848 72.2705C271.142 72.2705 271.413 72.2192 271.662 72.1167L272.034 70.3701H272.65L271.877 74H271.259L271.556 72.6089C271.248 72.7114 270.961 72.7627 270.695 72.7627C270.323 72.7627 270.031 72.6841 269.82 72.5269C269.61 72.3696 269.505 72.1463 269.505 71.8569C269.505 71.7339 269.56 71.3978 269.669 70.8486L269.768 70.3701ZM275.51 72.7661L276.112 72.8276C276.025 73.1261 275.826 73.4098 275.514 73.6787C275.204 73.9476 274.834 74.082 274.403 74.082C274.134 74.082 273.887 74.0205 273.661 73.8975C273.438 73.7721 273.267 73.591 273.149 73.354C273.032 73.117 272.974 72.847 272.974 72.5439C272.974 72.1475 273.066 71.7635 273.248 71.3921C273.432 71.0184 273.67 70.7415 273.962 70.5615C274.254 70.3792 274.569 70.2881 274.909 70.2881C275.342 70.2881 275.687 70.4225 275.945 70.6914C276.204 70.9603 276.334 71.3271 276.334 71.792C276.334 71.9697 276.318 72.152 276.286 72.3389H273.614C273.604 72.4095 273.6 72.4733 273.6 72.5303C273.6 72.8698 273.677 73.1296 273.832 73.3096C273.99 73.4873 274.181 73.5762 274.406 73.5762C274.618 73.5762 274.827 73.5067 275.032 73.3677C275.237 73.2287 275.397 73.0282 275.51 72.7661ZM273.713 71.8672H275.75C275.752 71.8034 275.753 71.7578 275.753 71.7305C275.753 71.4206 275.676 71.1836 275.521 71.0195C275.366 70.8532 275.166 70.77 274.923 70.77C274.658 70.77 274.417 70.8612 274.198 71.0435C273.982 71.2257 273.82 71.5003 273.713 71.8672ZM277.5 70.3701H278.112L277.783 71.8843H279.469L279.79 70.3701H280.395L279.629 74H279.014L279.363 72.3765H277.684L277.336 74H276.724L277.5 70.3701ZM283.074 73.3438C282.639 73.8359 282.194 74.082 281.738 74.082C281.458 74.082 281.231 74.0023 281.058 73.8428C280.887 73.681 280.802 73.4839 280.802 73.2515C280.802 73.0988 280.84 72.8368 280.918 72.4653L281.355 70.3701H281.974L281.489 72.6909C281.448 72.8846 281.427 73.035 281.427 73.1421C281.427 73.2788 281.468 73.3859 281.55 73.4634C281.634 73.5386 281.757 73.5762 281.919 73.5762C282.092 73.5762 282.261 73.534 282.425 73.4497C282.591 73.3654 282.734 73.2515 282.852 73.1079C282.973 72.9644 283.071 72.7946 283.146 72.5986C283.196 72.4733 283.254 72.2534 283.321 71.939L283.649 70.3701H284.267L283.509 74H282.938L283.074 73.3438ZM287.159 72.7661L287.76 72.8276C287.674 73.1261 287.475 73.4098 287.162 73.6787C286.852 73.9476 286.482 74.082 286.052 74.082C285.783 74.082 285.535 74.0205 285.31 73.8975C285.087 73.7721 284.916 73.591 284.797 73.354C284.681 73.117 284.623 72.847 284.623 72.5439C284.623 72.1475 284.714 71.7635 284.896 71.3921C285.081 71.0184 285.319 70.7415 285.611 70.5615C285.902 70.3792 286.218 70.2881 286.557 70.2881C286.99 70.2881 287.336 70.4225 287.593 70.6914C287.853 70.9603 287.983 71.3271 287.983 71.792C287.983 71.9697 287.967 72.152 287.935 72.3389H285.262C285.253 72.4095 285.248 72.4733 285.248 72.5303C285.248 72.8698 285.326 73.1296 285.481 73.3096C285.638 73.4873 285.829 73.5762 286.055 73.5762C286.267 73.5762 286.475 73.5067 286.68 73.3677C286.885 73.2287 287.045 73.0282 287.159 72.7661ZM285.361 71.8672H287.398C287.4 71.8034 287.402 71.7578 287.402 71.7305C287.402 71.4206 287.324 71.1836 287.169 71.0195C287.014 70.8532 286.815 70.77 286.571 70.77C286.307 70.77 286.065 70.8612 285.846 71.0435C285.63 71.2257 285.468 71.5003 285.361 71.8672Z" fill="#303549"/>
</svg>
