<svg width="324" height="117" viewBox="0 0 324 117" fill="none" xmlns="http://www.w3.org/2000/svg">
<path d="M309.89 52.15H124.33L121.46 49.28V46.63L124.33 43.76H309.89L312.76 46.63V49.28L309.89 52.15Z" fill="white" fill-opacity="0.5"/>
<path d="M123.49 52.15H122.96V55.34H123.49V52.15Z" fill="#8C99B2"/>
<path d="M192.3 52.15H191.77V55.34H192.3V52.15Z" fill="#8C99B2"/>
<path opacity="0.8" d="M276.876 50H243V46H276.823L278 47.6734V48.3356L276.876 50Z" fill="#F7931E"/>
<path d="M261.446 49H245V47H261.426L262 47.7937V48.127L261.446 49Z" fill="#8C99B2"/>
<path d="M282.56 43.76H281.85V55.26H282.56V43.76Z" fill="#A2E2FF"/>
<path d="M282.2 56.15C281.984 56.15 281.774 56.086 281.594 55.9663C281.415 55.8465 281.275 55.6763 281.193 55.4771C281.11 55.2779 281.089 55.0588 281.131 54.8473C281.173 54.6359 281.277 54.4417 281.429 54.2892C281.582 54.1368 281.776 54.033 281.987 53.9909C282.199 53.9489 282.418 53.9704 282.617 54.0529C282.816 54.1354 282.987 54.2752 283.106 54.4544C283.226 54.6337 283.29 54.8444 283.29 55.06C283.291 55.2035 283.264 55.3458 283.21 55.4787C283.155 55.6115 283.075 55.7322 282.974 55.8337C282.872 55.9352 282.752 56.0154 282.619 56.0697C282.486 56.124 282.344 56.1513 282.2 56.15Z" fill="#F5F8FD"/>
<path d="M282.2 54.31C282.348 54.31 282.493 54.354 282.617 54.4364C282.74 54.5188 282.836 54.636 282.893 54.773C282.95 54.91 282.965 55.0608 282.936 55.2063C282.907 55.3518 282.835 55.4855 282.73 55.5903C282.625 55.6952 282.492 55.7667 282.346 55.7956C282.201 55.8245 282.05 55.8097 281.913 55.7529C281.776 55.6962 281.659 55.6 281.576 55.4767C281.494 55.3534 281.45 55.2084 281.45 55.06C281.45 54.8611 281.529 54.6703 281.67 54.5297C281.81 54.389 282.001 54.31 282.2 54.31ZM282.2 53.64C281.919 53.64 281.645 53.7233 281.411 53.8793C281.178 54.0354 280.996 54.2571 280.888 54.5166C280.781 54.7761 280.752 55.0616 280.807 55.337C280.862 55.6125 280.997 55.8655 281.196 56.0641C281.395 56.2627 281.648 56.3979 281.923 56.4527C282.198 56.5075 282.484 56.4794 282.743 56.3719C283.003 56.2644 283.225 56.0824 283.381 55.8489C283.537 55.6154 283.62 55.3409 283.62 55.06C283.617 54.6842 283.467 54.3246 283.201 54.0588C282.935 53.7931 282.576 53.6426 282.2 53.64Z" fill="#A2E2FF"/>
<path d="M256.14 43.76H255.43V55.26H256.14V43.76Z" fill="#A2E2FF"/>
<path d="M255.79 56.15C255.574 56.152 255.362 56.0897 255.182 55.9712C255.001 55.8526 254.86 55.6831 254.776 55.4841C254.692 55.2851 254.669 55.0656 254.71 54.8535C254.751 54.6414 254.854 54.4463 255.006 54.2928C255.158 54.1394 255.352 54.0346 255.564 53.9917C255.775 53.9488 255.995 53.9698 256.195 54.052C256.395 54.1342 256.565 54.2739 256.686 54.4534C256.806 54.6328 256.87 54.844 256.87 55.06C256.87 55.3473 256.757 55.6231 256.554 55.8272C256.352 56.0313 256.077 56.1474 255.79 56.15Z" fill="#F5F8FD"/>
<path d="M255.79 54.31C255.938 54.312 256.082 54.3576 256.204 54.4412C256.326 54.5248 256.421 54.6426 256.476 54.7798C256.531 54.917 256.544 55.0675 256.514 55.2123C256.484 55.3572 256.412 55.4899 256.307 55.5938C256.202 55.6976 256.068 55.7681 255.923 55.7962C255.777 55.8244 255.627 55.8089 255.491 55.7519C255.354 55.6948 255.238 55.5987 255.156 55.4756C255.074 55.3525 255.03 55.2079 255.03 55.06C255.033 54.8602 255.114 54.6694 255.256 54.529C255.398 54.3887 255.59 54.31 255.79 54.31ZM255.79 53.64C255.509 53.638 255.233 53.7196 254.998 53.8744C254.764 54.0292 254.58 54.2503 254.471 54.5096C254.362 54.7689 254.332 55.0547 254.386 55.3308C254.44 55.6069 254.574 55.8609 254.772 56.0605C254.971 56.2601 255.224 56.3963 255.499 56.4519C255.775 56.5075 256.061 56.48 256.321 56.3728C256.581 56.2657 256.803 56.0837 256.96 55.8499C257.116 55.6162 257.2 55.3413 257.2 55.06C257.2 54.6851 257.052 54.3254 256.788 54.0594C256.523 53.7934 256.165 53.6426 255.79 53.64Z" fill="#A2E2FF"/>
<path d="M277.55 41.74C277.334 41.74 277.124 41.6761 276.944 41.5563C276.765 41.4365 276.625 41.2663 276.543 41.0671C276.46 40.868 276.439 40.6488 276.481 40.4373C276.523 40.2259 276.627 40.0317 276.779 39.8793C276.932 39.7268 277.126 39.623 277.337 39.5809C277.549 39.5389 277.768 39.5605 277.967 39.643C278.166 39.7255 278.337 39.8652 278.456 40.0444C278.576 40.2237 278.64 40.4344 278.64 40.65C278.641 40.7935 278.614 40.9358 278.56 41.0687C278.505 41.2015 278.425 41.3222 278.324 41.4237C278.222 41.5252 278.102 41.6054 277.969 41.6597C277.836 41.7141 277.694 41.7413 277.55 41.74Z" fill="#F5F8FD"/>
<path d="M277.55 39.9C277.698 39.9 277.843 39.944 277.967 40.0264C278.09 40.1088 278.186 40.2259 278.243 40.363C278.3 40.5 278.315 40.6508 278.286 40.7963C278.257 40.9418 278.185 41.0754 278.08 41.1803C277.975 41.2852 277.842 41.3566 277.696 41.3856C277.551 41.4145 277.4 41.3997 277.263 41.3429C277.126 41.2861 277.009 41.19 276.926 41.0667C276.844 40.9433 276.8 40.7983 276.8 40.65C276.8 40.4511 276.879 40.2603 277.02 40.1197C277.16 39.979 277.351 39.9 277.55 39.9ZM277.55 39.23C277.27 39.2359 276.999 39.3242 276.769 39.4837C276.54 39.6433 276.363 39.8671 276.26 40.127C276.157 40.387 276.133 40.6715 276.191 40.9449C276.249 41.2184 276.387 41.4686 276.586 41.6642C276.786 41.8598 277.039 41.9921 277.314 42.0445C277.588 42.0969 277.872 42.0671 278.13 41.9588C278.388 41.8505 278.608 41.6685 278.763 41.4357C278.917 41.2029 279 40.9295 279 40.65C278.997 40.2742 278.847 39.9145 278.581 39.6488C278.315 39.383 277.956 39.2326 277.58 39.23H277.55Z" fill="#F7931E"/>
<path d="M261.93 41.74C261.714 41.744 261.501 41.6834 261.319 41.5661C261.137 41.4488 260.994 41.28 260.909 41.0812C260.823 40.8824 260.799 40.6626 260.839 40.4499C260.878 40.2371 260.981 40.0411 261.132 39.8866C261.284 39.7322 261.478 39.6263 261.69 39.5826C261.902 39.5389 262.122 39.5593 262.322 39.6412C262.523 39.7231 262.694 39.8627 262.815 40.0424C262.936 40.2221 263 40.4336 263 40.65C263 40.9357 262.888 41.2099 262.688 41.4138C262.488 41.6176 262.216 41.7348 261.93 41.74Z" fill="#F5F8FD"/>
<path d="M261.93 39.9C262.129 39.9 262.32 39.979 262.46 40.1197C262.601 40.2603 262.68 40.4511 262.68 40.65C262.68 40.8489 262.601 41.0397 262.46 41.1803C262.32 41.321 262.129 41.4 261.93 41.4C261.731 41.4 261.54 41.321 261.4 41.1803C261.259 41.0397 261.18 40.8489 261.18 40.65C261.18 40.4511 261.259 40.2603 261.4 40.1197C261.54 39.979 261.731 39.9 261.93 39.9ZM261.93 39.23C261.649 39.228 261.373 39.3096 261.138 39.4645C260.904 39.6193 260.72 39.8404 260.611 40.0996C260.502 40.3589 260.472 40.6448 260.526 40.9209C260.58 41.197 260.714 41.4509 260.912 41.6505C261.111 41.8501 261.364 41.9863 261.639 42.042C261.915 42.0976 262.201 42.07 262.461 41.9629C262.721 41.8557 262.944 41.6737 263.1 41.44C263.256 41.2062 263.34 40.9313 263.34 40.65C263.34 40.2751 263.192 39.9155 262.928 39.6494C262.664 39.3834 262.305 39.2327 261.93 39.23Z" fill="#8C99B2"/>
<path d="M126.119 36.16H125.297V30.7041H122.45V36.16H121.627V29.9728H126.119V36.16ZM130.91 36.16H130.129V32.1751H128.534C128.525 32.405 128.517 32.6266 128.509 32.8399C128.5 33.0504 128.492 33.2416 128.484 33.4133C128.467 33.8483 128.438 34.2125 128.396 34.5062C128.358 34.7998 128.308 35.0353 128.247 35.2126C128.186 35.3954 128.118 35.5381 128.043 35.6406C127.971 35.7431 127.889 35.8359 127.798 35.919C127.704 36.0021 127.603 36.0644 127.495 36.106C127.387 36.1475 127.265 36.1683 127.129 36.1683C127.085 36.1683 127.028 36.1669 126.959 36.1641C126.889 36.1614 126.841 36.16 126.813 36.16V35.4785H126.855C126.874 35.4785 126.894 35.4799 126.913 35.4827C126.935 35.4854 126.96 35.4868 126.988 35.4868C127.054 35.4868 127.119 35.4771 127.183 35.4577C127.247 35.4383 127.304 35.4023 127.353 35.3497C127.492 35.214 127.593 34.9771 127.657 34.6391C127.72 34.2984 127.766 33.8233 127.794 33.2139C127.805 32.9867 127.815 32.718 127.823 32.4078C127.834 32.0975 127.844 31.8011 127.852 31.5185H130.91V36.16ZM134.638 35.0173V33.7291C134.452 33.7458 134.217 33.7693 133.931 33.7998C133.649 33.8275 133.42 33.8676 133.246 33.9203C133.038 33.984 132.866 34.0823 132.73 34.2153C132.595 34.3455 132.527 34.5283 132.527 34.7638C132.527 35.0297 132.602 35.2306 132.751 35.3663C132.901 35.5021 133.12 35.5699 133.408 35.5699C133.654 35.5699 133.877 35.5173 134.077 35.412C134.276 35.304 134.463 35.1724 134.638 35.0173ZM134.638 35.6655C134.574 35.7126 134.488 35.7791 134.38 35.8649C134.275 35.9481 134.172 36.0145 134.072 36.0644C133.934 36.1364 133.8 36.1918 133.669 36.2306C133.542 36.2694 133.362 36.2888 133.129 36.2888C132.938 36.2888 132.757 36.2528 132.585 36.1807C132.413 36.1087 132.262 36.0076 132.132 35.8774C132.007 35.75 131.908 35.5935 131.833 35.4079C131.758 35.2195 131.721 35.0214 131.721 34.8137C131.721 34.4923 131.788 34.2195 131.924 33.9951C132.06 33.7679 132.275 33.5879 132.568 33.4549C132.829 33.3358 133.136 33.2541 133.491 33.2097C133.845 33.1626 134.228 33.128 134.638 33.1058V32.9563C134.638 32.7734 134.61 32.6266 134.555 32.5158C134.499 32.4022 134.422 32.315 134.322 32.254C134.222 32.1903 134.1 32.1487 133.956 32.1294C133.812 32.1072 133.664 32.0961 133.512 32.0961C133.331 32.0961 133.12 32.1238 132.876 32.1792C132.632 32.2319 132.388 32.3094 132.144 32.4119H132.099V31.6183C132.243 31.5767 132.449 31.531 132.718 31.4811C132.987 31.4313 133.253 31.4063 133.516 31.4063C133.834 31.4063 134.103 31.4313 134.322 31.4811C134.541 31.531 134.737 31.621 134.912 31.7512C135.081 31.8787 135.207 32.0435 135.29 32.2457C135.373 32.4479 135.415 32.6945 135.415 32.9853V36.16H134.638V35.6655ZM140.181 36.16H139.4V34.0699H137.297V36.16H136.516V31.5185H137.297V33.3967H139.4V31.5185H140.181V36.16Z" fill="#A2E2FF"/>
<path d="M151.786 36.74H148.266V36.003H149.575V31.1641H148.266V30.5046C148.76 30.5046 149.124 30.4352 149.357 30.2962C149.593 30.1539 149.725 29.8873 149.754 29.4961H150.506V36.003H151.786V36.74ZM160.31 36.74H156.79V36.003H158.099V31.1641H156.79V30.5046C157.284 30.5046 157.648 30.4352 157.881 30.2962C158.117 30.1539 158.249 29.8873 158.278 29.4961H159.03V36.003H160.31V36.74ZM166.133 33.1278C166.133 34.424 165.944 35.3759 165.566 35.9836C165.191 36.5881 164.611 36.8903 163.825 36.8903C163.03 36.8903 162.446 36.5816 162.075 35.9642C161.703 35.3468 161.517 34.4046 161.517 33.1375C161.517 31.8348 161.705 30.8828 162.08 30.2816C162.458 29.6771 163.04 29.3749 163.825 29.3749C164.62 29.3749 165.204 29.6868 165.575 30.3107C165.947 30.9346 166.133 31.8736 166.133 33.1278ZM164.892 35.329C164.985 35.0898 165.052 34.7876 165.091 34.4223C165.129 34.0571 165.149 33.6256 165.149 33.1278C165.149 32.6332 165.129 32.2033 165.091 31.838C165.052 31.4728 164.984 31.1689 164.887 30.9265C164.79 30.6808 164.656 30.495 164.484 30.3689C164.316 30.2396 164.097 30.1749 163.825 30.1749C163.557 30.1749 163.335 30.2396 163.161 30.3689C162.989 30.495 162.854 30.684 162.754 30.9362C162.657 31.1818 162.59 31.4922 162.555 31.8671C162.519 32.2421 162.501 32.6655 162.501 33.1375C162.501 33.6417 162.516 34.0635 162.545 34.4029C162.577 34.7424 162.645 35.0462 162.749 35.3145C162.842 35.5634 162.975 35.7557 163.146 35.8915C163.321 36.024 163.547 36.0903 163.825 36.0903C164.093 36.0903 164.313 36.0272 164.484 35.9012C164.659 35.7719 164.795 35.5812 164.892 35.329ZM171.437 34.4417C171.437 34.7908 171.381 35.1141 171.268 35.4115C171.158 35.7088 171.003 35.9658 170.802 36.1824C170.599 36.4022 170.345 36.5751 170.041 36.7012C169.74 36.8273 169.403 36.8903 169.028 36.8903C168.682 36.8903 168.341 36.8515 168.005 36.7739C167.672 36.6996 167.382 36.601 167.137 36.4782V35.4551H167.205C167.279 35.5101 167.386 35.5731 167.525 35.6442C167.664 35.7121 167.817 35.7767 167.985 35.8381C168.176 35.906 168.35 35.9594 168.509 35.9981C168.667 36.0337 168.845 36.0515 169.042 36.0515C169.236 36.0515 169.425 36.0175 169.609 35.9497C169.794 35.8785 169.952 35.7654 170.085 35.6103C170.204 35.468 170.295 35.3016 170.356 35.1108C170.421 34.9201 170.453 34.6955 170.453 34.4369C170.453 34.1815 170.418 33.9714 170.346 33.8066C170.279 33.6417 170.178 33.506 170.046 33.3993C169.907 33.2765 169.736 33.1908 169.532 33.1423C169.331 33.0906 169.107 33.0647 168.858 33.0647C168.596 33.0647 168.333 33.0857 168.068 33.1278C167.803 33.1665 167.591 33.2037 167.432 33.2393V29.5204H171.394V30.3689H168.368V32.2889C168.485 32.276 168.599 32.2663 168.712 32.2599C168.826 32.2534 168.929 32.2502 169.023 32.2502C169.391 32.2502 169.703 32.2809 169.959 32.3423C170.214 32.4037 170.46 32.5233 170.696 32.7011C170.935 32.8821 171.117 33.1084 171.243 33.3799C171.373 33.6514 171.437 34.0054 171.437 34.4417ZM174.036 36.74H172.877V35.3581H174.036V36.74ZM177.44 30.2089C177.265 30.2089 177.091 30.2299 176.916 30.2719C176.742 30.3139 176.57 30.3689 176.402 30.4368C176.247 30.5014 176.111 30.5693 175.995 30.6404C175.882 30.7115 175.78 30.7778 175.69 30.8392H175.631V29.8161C175.842 29.703 176.126 29.6012 176.485 29.5107C176.847 29.4169 177.191 29.3701 177.518 29.3701C177.844 29.3701 178.129 29.404 178.371 29.4719C178.617 29.5365 178.838 29.6384 179.035 29.7774C179.249 29.9325 179.409 30.12 179.515 30.3398C179.625 30.5596 179.68 30.8166 179.68 31.1107C179.68 31.5083 179.549 31.8574 179.287 32.158C179.026 32.4586 178.712 32.6494 178.347 32.7302V32.7981C178.499 32.8271 178.66 32.8772 178.832 32.9484C179.006 33.0195 179.168 33.1245 179.316 33.2635C179.465 33.4025 179.586 33.5819 179.68 33.8017C179.774 34.0183 179.821 34.2833 179.821 34.5969C179.821 34.9234 179.764 35.224 179.651 35.4987C179.541 35.7703 179.384 36.0111 179.181 36.2212C178.971 36.441 178.717 36.6075 178.419 36.7206C178.122 36.8337 177.784 36.8903 177.406 36.8903C177.044 36.8903 176.685 36.8467 176.33 36.7594C175.974 36.6721 175.675 36.5671 175.433 36.4442V35.4212H175.501C175.704 35.5699 175.977 35.7121 176.32 35.8478C176.663 35.9836 177.005 36.0515 177.348 36.0515C177.545 36.0515 177.742 36.0208 177.939 35.9594C178.14 35.8947 178.306 35.7913 178.439 35.649C178.568 35.5068 178.667 35.35 178.735 35.1787C178.802 35.0074 178.836 34.7908 178.836 34.529C178.836 34.2672 178.798 34.0522 178.72 33.8841C178.646 33.7161 178.541 33.5835 178.405 33.4866C178.269 33.3896 178.108 33.3233 177.92 33.2878C177.736 33.249 177.535 33.2296 177.319 33.2296H176.907V32.4247H177.227C177.663 32.4247 178.017 32.3213 178.289 32.1144C178.563 31.9075 178.701 31.6069 178.701 31.2125C178.701 31.0315 178.665 30.8764 178.594 30.7471C178.523 30.6146 178.432 30.5095 178.322 30.4319C178.2 30.3479 178.064 30.2897 177.915 30.2574C177.766 30.225 177.608 30.2089 177.44 30.2089ZM184.315 31.2029C184.315 30.8796 184.207 30.6097 183.991 30.3931C183.774 30.1766 183.473 30.0683 183.089 30.0683C182.736 30.0683 182.447 30.1652 182.221 30.3592C181.998 30.5531 181.886 30.815 181.886 31.1447C181.886 31.3839 181.943 31.5859 182.056 31.7507C182.172 31.9156 182.345 32.0643 182.575 32.1968C182.675 32.2518 182.827 32.3277 183.03 32.4247C183.237 32.5217 183.425 32.5976 183.593 32.6526C183.874 32.436 184.065 32.2146 184.165 31.9883C184.265 31.7588 184.315 31.497 184.315 31.2029ZM184.451 34.8199C184.451 34.5225 184.393 34.2866 184.277 34.112C184.16 33.9375 183.936 33.7597 183.603 33.5787C183.493 33.5173 183.346 33.451 183.161 33.3799C182.98 33.3088 182.775 33.2247 182.546 33.1278C182.277 33.3055 182.072 33.5253 181.93 33.7872C181.788 34.0458 181.717 34.3415 181.717 34.6745C181.717 35.1108 181.847 35.4713 182.109 35.7557C182.374 36.0402 182.706 36.1824 183.103 36.1824C183.511 36.1824 183.837 36.0612 184.083 35.8187C184.328 35.5731 184.451 35.2401 184.451 34.8199ZM183.094 36.9048C182.735 36.9048 182.408 36.8515 182.114 36.7448C181.82 36.6382 181.569 36.4846 181.363 36.2842C181.159 36.0903 181.004 35.8608 180.897 35.5957C180.794 35.3274 180.742 35.0446 180.742 34.7472C180.742 34.3561 180.845 33.9973 181.052 33.6708C181.262 33.3411 181.566 33.0793 181.964 32.8853V32.8562C181.608 32.6494 181.345 32.4231 181.173 32.1774C181.002 31.9318 180.916 31.6247 180.916 31.2562C180.916 30.7131 181.122 30.2606 181.532 29.8986C181.943 29.5365 182.463 29.3555 183.094 29.3555C183.75 29.3555 184.275 29.5285 184.669 29.8743C185.067 30.217 185.266 30.6566 185.266 31.1932C185.266 31.5164 185.17 31.8364 184.98 32.1532C184.792 32.47 184.521 32.7172 184.165 32.895V32.9241C184.585 33.1213 184.904 33.3605 185.12 33.6417C185.337 33.9229 185.445 34.285 185.445 34.7278C185.445 35.3452 185.22 35.8624 184.771 36.2794C184.325 36.6964 183.766 36.9048 183.094 36.9048Z" fill="#A2E2FF"/>
<path d="M214.871 72.7899H212.136V71.9123H214.871V72.7899ZM223.395 75.51H218.939V74.4966C219.259 74.1928 219.561 73.9019 219.846 73.6239C220.13 73.3459 220.408 73.0566 220.68 72.756C221.229 72.1515 221.604 71.6683 221.805 71.3062C222.005 70.941 222.105 70.5644 222.105 70.1765C222.105 69.9761 222.073 69.7999 222.008 69.648C221.947 69.4961 221.861 69.37 221.751 69.2698C221.638 69.1728 221.507 69.1001 221.358 69.0516C221.21 69.0031 221.047 68.9789 220.869 68.9789C220.697 68.9789 220.523 69.0015 220.345 69.0468C220.171 69.0888 220.002 69.1421 219.841 69.2068C219.705 69.2617 219.574 69.328 219.448 69.4056C219.322 69.4832 219.22 69.5494 219.143 69.6044H219.089V68.5765C219.29 68.4763 219.568 68.3793 219.923 68.2855C220.282 68.1886 220.621 68.1401 220.941 68.1401C221.614 68.1401 222.141 68.3195 222.522 68.6783C222.904 69.0339 223.094 69.5171 223.094 70.128C223.094 70.4092 223.06 70.6695 222.992 70.9087C222.928 71.1479 222.837 71.3693 222.721 71.5729C222.601 71.783 222.457 71.9915 222.289 72.1984C222.121 72.4053 221.944 72.6089 221.756 72.8093C221.452 73.139 221.113 73.4817 220.738 73.8372C220.366 74.1928 220.069 74.474 219.846 74.6809H223.395V75.51ZM225.911 75.51H224.753V74.1281H225.911V75.51ZM231.453 75.51H227.933V74.773H229.242V69.9341H227.933V69.2747C228.428 69.2747 228.791 69.2052 229.024 69.0662C229.26 68.9239 229.393 68.6573 229.422 68.2662H230.173V74.773H231.453V75.51Z" fill="#F7931E"/>
<path d="M214.553 88.0266H212.105V90.4751H211.3V88.0266H208.851V87.2508H211.3V84.8022H212.105V87.2508H214.553V88.0266ZM223.033 90.8H219.513V90.063H220.823V85.2241H219.513V84.5646C220.008 84.5646 220.372 84.4951 220.604 84.3562C220.84 84.2139 220.973 83.9473 221.002 83.5561H221.753V90.063H223.033V90.8ZM225.918 90.8H224.76V89.4181H225.918V90.8ZM229.322 84.2689C229.148 84.2689 228.973 84.2899 228.799 84.3319C228.624 84.3739 228.453 84.4289 228.285 84.4968C228.129 84.5614 227.994 84.6293 227.877 84.7004C227.764 84.7715 227.662 84.8378 227.572 84.8992H227.514V83.8761C227.724 83.763 228.008 83.6612 228.367 83.5707C228.729 83.4769 229.073 83.4301 229.4 83.4301C229.726 83.4301 230.011 83.464 230.253 83.5319C230.499 83.5965 230.72 83.6984 230.917 83.8374C231.131 83.9925 231.291 84.18 231.397 84.3998C231.507 84.6196 231.562 84.8766 231.562 85.1707C231.562 85.5683 231.431 85.9174 231.169 86.218C230.908 86.5186 230.594 86.7094 230.229 86.7902V86.858C230.381 86.8871 230.542 86.9372 230.714 87.0084C230.888 87.0795 231.05 87.1845 231.199 87.3235C231.347 87.4625 231.468 87.6419 231.562 87.8617C231.656 88.0783 231.703 88.3433 231.703 88.6569C231.703 88.9834 231.646 89.284 231.533 89.5587C231.423 89.8303 231.266 90.0711 231.063 90.2812C230.853 90.501 230.599 90.6675 230.302 90.7806C230.004 90.8937 229.666 90.9503 229.288 90.9503C228.926 90.9503 228.567 90.9067 228.212 90.8194C227.856 90.7321 227.557 90.6271 227.315 90.5042V89.4812H227.383C227.586 89.6299 227.859 89.7721 228.202 89.9078C228.545 90.0436 228.887 90.1115 229.23 90.1115C229.427 90.1115 229.624 90.0808 229.822 90.0194C230.022 89.9547 230.188 89.8513 230.321 89.709C230.45 89.5668 230.549 89.41 230.617 89.2387C230.685 89.0674 230.719 88.8508 230.719 88.589C230.719 88.3272 230.68 88.1122 230.602 87.9441C230.528 87.7761 230.423 87.6435 230.287 87.5466C230.151 87.4496 229.99 87.3833 229.802 87.3478C229.618 87.309 229.418 87.2896 229.201 87.2896H228.789V86.4847H229.109C229.545 86.4847 229.899 86.3813 230.171 86.1744C230.445 85.9675 230.583 85.6669 230.583 85.2725C230.583 85.0915 230.547 84.9364 230.476 84.8071C230.405 84.6745 230.315 84.5695 230.205 84.4919C230.082 84.4079 229.946 84.3497 229.797 84.3174C229.649 84.285 229.49 84.2689 229.322 84.2689Z" fill="#8C99B2"/>
<path d="M241.87 87.34C241.938 87.343 242.002 87.3716 242.05 87.42L245.05 90.42C245.097 90.4701 245.123 90.5362 245.123 90.605C245.123 90.6737 245.097 90.7399 245.05 90.79C245.026 90.816 244.996 90.8368 244.964 90.851C244.931 90.8652 244.896 90.8725 244.86 90.8725C244.824 90.8725 244.789 90.8652 244.756 90.851C244.724 90.8368 244.694 90.816 244.67 90.79L241.87 88L239 90.81C238.976 90.836 238.946 90.8568 238.914 90.871C238.881 90.8852 238.846 90.8925 238.81 90.8925C238.774 90.8925 238.739 90.8852 238.706 90.871C238.674 90.8568 238.644 90.836 238.62 90.81C238.573 90.7599 238.547 90.6937 238.547 90.625C238.547 90.5562 238.573 90.4901 238.62 90.44L241.62 87.44C241.649 87.4029 241.688 87.3741 241.732 87.3566C241.776 87.339 241.823 87.3333 241.87 87.34Z" fill="#8C99B2"/>
<path d="M241.87 83.8C241.938 83.803 242.002 83.8316 242.05 83.88L245.05 86.88C245.093 86.9318 245.114 86.9976 245.111 87.0645C245.108 87.1315 245.08 87.1948 245.032 87.2422C244.985 87.2896 244.921 87.3177 244.855 87.321C244.788 87.3242 244.722 87.3025 244.67 87.26L241.85 84.43L239 87.27C238.948 87.3125 238.882 87.3342 238.815 87.3309C238.749 87.3277 238.685 87.2996 238.638 87.2522C238.59 87.2048 238.562 87.1415 238.559 87.0745C238.556 87.0076 238.577 86.9418 238.62 86.89L241.62 83.89C241.65 83.8547 241.689 83.8279 241.733 83.8121C241.777 83.7963 241.824 83.7922 241.87 83.8Z" fill="#8C99B2"/>
<path d="M241.16 72.23C241.124 72.2309 241.089 72.2243 241.056 72.2105C241.024 72.1967 240.994 72.1761 240.97 72.15L237.97 69.15C237.927 69.0982 237.906 69.0324 237.909 68.9654C237.912 68.8985 237.94 68.8352 237.988 68.7878C238.035 68.7404 238.099 68.7123 238.165 68.709C238.232 68.7057 238.298 68.7275 238.35 68.77L241.17 71.6L244 68.76C244.05 68.7129 244.116 68.6866 244.185 68.6866C244.254 68.6866 244.32 68.7129 244.37 68.76C244.396 68.7843 244.417 68.8137 244.431 68.8464C244.445 68.8791 244.453 68.9143 244.453 68.95C244.453 68.9856 244.445 69.0209 244.431 69.0536C244.417 69.0862 244.396 69.1157 244.37 69.14L241.37 72.14C241.345 72.1713 241.313 72.1959 241.276 72.2116C241.24 72.2273 241.2 72.2336 241.16 72.23Z" fill="#F7931E"/>
<path d="M241.16 75.78C241.089 75.7775 241.021 75.749 240.97 75.7L237.97 72.7C237.927 72.6482 237.906 72.5824 237.909 72.5154C237.912 72.4485 237.94 72.3852 237.988 72.3378C238.035 72.2904 238.099 72.2623 238.165 72.259C238.232 72.2557 238.298 72.2775 238.35 72.32L241.17 75.15L244 72.31C244.05 72.2629 244.116 72.2366 244.185 72.2366C244.254 72.2366 244.32 72.2629 244.37 72.31C244.396 72.3343 244.417 72.3637 244.431 72.3964C244.445 72.4291 244.453 72.4643 244.453 72.5C244.453 72.5356 244.445 72.5709 244.431 72.6035C244.417 72.6362 244.396 72.6657 244.37 72.69L241.37 75.69C241.344 75.7194 241.311 75.7427 241.275 75.7583C241.239 75.7738 241.199 75.7812 241.16 75.78Z" fill="#F7931E"/>
<path d="M155.218 71.3872C155.414 71.6134 155.567 71.8938 155.675 72.2285C155.784 72.5631 155.838 72.9451 155.838 73.3743C155.838 73.7921 155.785 74.1694 155.679 74.5064C155.572 74.8434 155.419 75.1261 155.218 75.3546C155.008 75.5946 154.762 75.7723 154.481 75.8877C154.201 76.0008 153.893 76.0573 153.556 76.0573C153.208 76.0573 152.894 75.9985 152.615 75.8808C152.336 75.7631 152.096 75.5877 151.895 75.3546C151.696 75.1261 151.544 74.8445 151.438 74.5099C151.332 74.1752 151.278 73.7967 151.278 73.3743C151.278 72.9405 151.332 72.5596 151.438 72.2319C151.546 71.9042 151.7 71.6226 151.898 71.3872C152.097 71.1587 152.336 70.9856 152.615 70.8679C152.896 70.7479 153.21 70.6879 153.556 70.6879C153.907 70.6879 154.223 70.7491 154.505 70.8714C154.787 70.9937 155.024 71.1656 155.218 71.3872ZM155.125 73.3743C155.125 73.0328 155.088 72.7304 155.014 72.4673C154.94 72.2042 154.836 71.9861 154.702 71.813C154.566 71.6353 154.401 71.5026 154.207 71.4149C154.016 71.3249 153.8 71.2799 153.56 71.2799C153.311 71.2799 153.093 71.3237 152.906 71.4114C152.721 71.4968 152.557 71.6307 152.414 71.813C152.278 71.9884 152.173 72.2088 152.099 72.4743C152.027 72.7397 151.992 73.0397 151.992 73.3743C151.992 74.0506 152.134 74.5687 152.417 74.9287C152.701 75.2865 153.082 75.4653 153.56 75.4653C154.038 75.4653 154.417 75.2865 154.699 74.9287C154.983 74.5687 155.125 74.0506 155.125 73.3743ZM159.366 72.6543H158.05V75.95H157.399V72.6543H156.084V72.0831H159.366V72.6543ZM162.962 75.95H162.152L160.826 74.1671H160.501V75.95H159.85V72.0831H160.501V73.7655C160.67 73.7632 160.813 73.7286 160.93 73.6617C161.05 73.5924 161.152 73.4597 161.235 73.2636C161.26 73.2059 161.288 73.1389 161.318 73.0628C161.35 72.9866 161.376 72.9197 161.394 72.862C161.496 72.5781 161.637 72.3773 161.817 72.2596C161.997 72.1419 162.231 72.0831 162.519 72.0831H162.696V72.6439H162.547C162.365 72.6439 162.227 72.682 162.135 72.7581C162.045 72.832 161.969 72.9682 161.907 73.1666C161.842 73.3674 161.766 73.5244 161.678 73.6375C161.59 73.7482 161.493 73.8336 161.387 73.8936L162.962 75.95ZM166.376 75.95H165.725V72.63H164.396C164.389 72.8216 164.382 73.0062 164.375 73.1839C164.368 73.3593 164.361 73.5186 164.354 73.6617C164.34 74.024 164.316 74.3275 164.281 74.5722C164.249 74.8168 164.208 75.013 164.157 75.1607C164.106 75.313 164.049 75.4319 163.987 75.5173C163.927 75.6027 163.859 75.68 163.783 75.7492C163.704 75.8185 163.62 75.8704 163.53 75.905C163.44 75.9396 163.339 75.9569 163.226 75.9569C163.189 75.9569 163.141 75.9558 163.084 75.9535C163.026 75.9512 162.986 75.95 162.962 75.95V75.3823H162.997C163.013 75.3823 163.029 75.3834 163.046 75.3857C163.064 75.388 163.085 75.3892 163.108 75.3892C163.163 75.3892 163.217 75.3811 163.271 75.3649C163.324 75.3488 163.371 75.3188 163.412 75.2749C163.528 75.1618 163.612 74.9645 163.665 74.683C163.718 74.3991 163.756 74.0033 163.779 73.4955C163.789 73.3063 163.797 73.0824 163.804 72.8239C163.813 72.5654 163.821 72.3185 163.828 72.0831H166.376V75.95ZM170.502 74.0183C170.502 74.6691 170.346 75.1722 170.032 75.5277C169.718 75.8808 169.3 76.0573 168.778 76.0573C168.241 76.0573 167.817 75.875 167.508 75.5103C167.201 75.1434 167.048 74.646 167.048 74.0183C167.048 73.372 167.206 72.8701 167.522 72.5123C167.84 72.1546 168.259 71.9757 168.778 71.9757C169.3 71.9757 169.718 72.1546 170.032 72.5123C170.346 72.8678 170.502 73.3697 170.502 74.0183ZM169.831 74.0183C169.831 73.5174 169.74 73.1459 169.557 72.9035C169.375 72.6589 169.115 72.5366 168.778 72.5366C168.439 72.5366 168.177 72.6589 167.993 72.9035C167.81 73.1459 167.719 73.5174 167.719 74.0183C167.719 74.5029 167.81 74.871 167.993 75.1226C168.177 75.3719 168.439 75.4965 168.778 75.4965C169.113 75.4965 169.372 75.3742 169.554 75.1295C169.739 74.8826 169.831 74.5122 169.831 74.0183ZM174.224 75.95H173.573V74.2087H171.821V75.95H171.171V72.0831H171.821V73.6478H173.573V72.0831H174.224V75.95ZM176.845 76.04C176.229 76.04 175.75 75.8669 175.408 75.5207C175.069 75.1722 174.899 74.6783 174.899 74.039C174.899 73.409 175.064 72.9081 175.394 72.5366C175.724 72.1627 176.156 71.9757 176.689 71.9757C176.929 71.9757 177.141 72.0104 177.326 72.0796C177.511 72.1488 177.672 72.2573 177.811 72.405C177.949 72.5527 178.055 72.7339 178.129 72.9485C178.203 73.1609 178.24 73.4217 178.24 73.7309V74.084H175.56C175.56 74.5341 175.673 74.878 175.9 75.1157C176.126 75.3534 176.439 75.4723 176.838 75.4723C176.981 75.4723 177.121 75.4561 177.257 75.4238C177.395 75.3915 177.52 75.3499 177.631 75.2992C177.748 75.2461 177.848 75.1953 177.928 75.1468C178.009 75.0961 178.076 75.0488 178.129 75.0049H178.167V75.7146C178.091 75.7446 177.996 75.7827 177.883 75.8288C177.77 75.8727 177.669 75.9073 177.579 75.9327C177.452 75.9673 177.336 75.9939 177.232 76.0123C177.131 76.0308 177.002 76.04 176.845 76.04ZM177.606 73.5855C177.602 73.4101 177.581 73.259 177.544 73.132C177.507 73.0051 177.454 72.8978 177.385 72.8101C177.309 72.7131 177.211 72.6393 177.091 72.5885C176.973 72.5377 176.826 72.5123 176.651 72.5123C176.478 72.5123 176.33 72.5389 176.208 72.592C176.088 72.6427 175.978 72.7177 175.879 72.817C175.782 72.9185 175.708 73.0316 175.657 73.1562C175.607 73.2786 175.574 73.4217 175.56 73.5855H177.606ZM181.951 75.95H181.3V74.2087H179.548V75.95H178.898V72.0831H179.548V73.6478H181.3V72.0831H181.951V75.95ZM185.946 75.95H185.302V73.0662L183.481 75.95H182.893V72.0831H183.537V74.9218L185.337 72.0831H185.946V75.95ZM188.567 76.04C187.951 76.04 187.472 75.8669 187.13 75.5207C186.791 75.1722 186.621 74.6783 186.621 74.039C186.621 73.409 186.786 72.9081 187.116 72.5366C187.446 72.1627 187.878 71.9757 188.411 71.9757C188.651 71.9757 188.863 72.0104 189.048 72.0796C189.233 72.1488 189.394 72.2573 189.533 72.405C189.671 72.5527 189.777 72.7339 189.851 72.9485C189.925 73.1609 189.962 73.4217 189.962 73.7309V74.084H187.282C187.282 74.5341 187.395 74.878 187.622 75.1157C187.848 75.3534 188.161 75.4723 188.56 75.4723C188.703 75.4723 188.843 75.4561 188.979 75.4238C189.117 75.3915 189.242 75.3499 189.353 75.2992C189.47 75.2461 189.57 75.1953 189.65 75.1468C189.731 75.0961 189.798 75.0488 189.851 75.0049H189.889V75.7146C189.813 75.7446 189.718 75.7827 189.605 75.8288C189.492 75.8727 189.391 75.9073 189.301 75.9327C189.174 75.9673 189.058 75.9939 188.955 76.0123C188.853 76.0308 188.724 76.04 188.567 76.04ZM189.328 73.5855C189.324 73.4101 189.303 73.259 189.266 73.132C189.229 73.0051 189.176 72.8978 189.107 72.8101C189.031 72.7131 188.933 72.6393 188.813 72.5885C188.695 72.5377 188.548 72.5123 188.373 72.5123C188.2 72.5123 188.052 72.5389 187.93 72.592C187.81 72.6427 187.7 72.7177 187.601 72.817C187.504 72.9185 187.43 73.0316 187.379 73.1562C187.329 73.2786 187.296 73.4217 187.282 73.5855H189.328Z" fill="#F7931E"/>
<path d="M155.173 85.4852L153.304 89.8265C153.225 90.0088 153.136 90.1553 153.037 90.2661C152.94 90.3769 152.839 90.46 152.732 90.5154C152.626 90.5731 152.521 90.6112 152.417 90.6296C152.316 90.6481 152.213 90.6573 152.109 90.6573C152.017 90.6573 151.909 90.655 151.784 90.6504C151.659 90.6458 151.58 90.6423 151.545 90.64V89.9996H151.594C151.628 90.0042 151.68 90.0099 151.749 90.0169C151.821 90.0215 151.911 90.0238 152.019 90.0238C152.07 90.0238 152.13 90.0215 152.199 90.0169C152.269 90.0099 152.332 89.9926 152.39 89.9649C152.457 89.9326 152.519 89.8899 152.577 89.8369C152.637 89.7815 152.691 89.6949 152.739 89.5772L152.857 89.3037L151.047 85.4852H151.805L153.203 88.5179L154.467 85.4852H155.173ZM158.594 90.64H157.943V87.32H156.613C156.606 87.5116 156.599 87.6962 156.593 87.8739C156.586 88.0493 156.579 88.2086 156.572 88.3517C156.558 88.714 156.534 89.0175 156.499 89.2622C156.467 89.5068 156.425 89.703 156.374 89.8507C156.324 90.003 156.267 90.1219 156.205 90.2073C156.145 90.2927 156.077 90.37 156.001 90.4392C155.922 90.5085 155.838 90.5604 155.748 90.595C155.658 90.6296 155.556 90.6469 155.443 90.6469C155.406 90.6469 155.359 90.6458 155.301 90.6435C155.244 90.6412 155.203 90.64 155.18 90.64V90.0723H155.215C155.231 90.0723 155.247 90.0734 155.263 90.0757C155.282 90.078 155.302 90.0792 155.325 90.0792C155.381 90.0792 155.435 90.0711 155.488 90.055C155.541 90.0388 155.589 90.0088 155.63 89.9649C155.746 89.8519 155.83 89.6545 155.883 89.373C155.936 89.0891 155.974 88.6933 155.997 88.1855C156.006 87.9963 156.014 87.7724 156.021 87.5139C156.031 87.2554 156.039 87.0085 156.046 86.7731H158.594V90.64ZM162.578 86.7731L160.498 92.0663H159.802L160.494 90.4531L159.089 86.7731H159.791L160.847 89.6361L161.9 86.7731H162.578ZM165.978 90.64H165.327V89.1306C165.124 89.1976 164.927 89.2495 164.735 89.2864C164.543 89.3233 164.354 89.3418 164.167 89.3418C164.003 89.3418 163.843 89.321 163.686 89.2795C163.531 89.2356 163.397 89.1652 163.284 89.0683C163.171 88.9714 163.084 88.8479 163.021 88.6979C162.961 88.5456 162.931 88.3667 162.931 88.1613V86.7731H163.582V87.822C163.582 87.9928 163.589 88.129 163.603 88.2305C163.617 88.3298 163.655 88.4267 163.717 88.5213C163.77 88.6021 163.85 88.6644 163.956 88.7083C164.064 88.7521 164.206 88.774 164.382 88.774C164.534 88.774 164.697 88.759 164.87 88.729C165.045 88.699 165.198 88.6633 165.327 88.6217V86.7731H165.978V90.64ZM171.496 90.64H166.919V86.7731H167.57V90.0896H168.882V86.7731H169.533V90.0896H170.845V86.7731H171.496V90.64ZM174.117 90.73C173.501 90.73 173.022 90.5569 172.68 90.2107C172.341 89.8622 172.171 89.3683 172.171 88.729C172.171 88.099 172.336 87.5981 172.666 87.2266C172.996 86.8527 173.428 86.6657 173.961 86.6657C174.201 86.6657 174.413 86.7004 174.598 86.7696C174.783 86.8388 174.944 86.9473 175.083 87.095C175.221 87.2427 175.327 87.4239 175.401 87.6385C175.475 87.8509 175.512 88.1117 175.512 88.4209V88.774H172.832C172.832 89.2241 172.945 89.568 173.172 89.8057C173.398 90.0434 173.711 90.1623 174.11 90.1623C174.253 90.1623 174.393 90.1461 174.529 90.1138C174.667 90.0815 174.792 90.0399 174.903 89.9892C175.02 89.9361 175.12 89.8853 175.2 89.8369C175.281 89.7861 175.348 89.7388 175.401 89.6949H175.439V90.4046C175.363 90.4346 175.268 90.4727 175.155 90.5188C175.042 90.5627 174.941 90.5973 174.851 90.6227C174.724 90.6573 174.608 90.6839 174.504 90.7023C174.403 90.7208 174.274 90.73 174.117 90.73ZM174.878 88.2755C174.874 88.1001 174.853 87.949 174.816 87.822C174.779 87.6951 174.726 87.5878 174.657 87.5001C174.581 87.4031 174.483 87.3293 174.363 87.2785C174.245 87.2277 174.098 87.2023 173.923 87.2023C173.75 87.2023 173.602 87.2289 173.48 87.282C173.36 87.3327 173.25 87.4077 173.151 87.507C173.054 87.6085 172.98 87.7216 172.929 87.8462C172.879 87.9686 172.846 88.1117 172.832 88.2755H174.878ZM179.223 90.64H178.572V88.8987H176.82V90.64H176.17V86.7731H176.82V88.3378H178.572V86.7731H179.223V90.64ZM183.218 90.64H182.574V87.7562L180.753 90.64H180.165V86.7731H180.809V89.6118L182.609 86.7731H183.218V90.64ZM185.839 90.73C185.223 90.73 184.744 90.5569 184.402 90.2107C184.063 89.8622 183.893 89.3683 183.893 88.729C183.893 88.099 184.058 87.5981 184.388 87.2266C184.718 86.8527 185.15 86.6657 185.683 86.6657C185.923 86.6657 186.135 86.7004 186.32 86.7696C186.505 86.8388 186.666 86.9473 186.805 87.095C186.943 87.2427 187.049 87.4239 187.123 87.6385C187.197 87.8509 187.234 88.1117 187.234 88.4209V88.774H184.554C184.554 89.2241 184.667 89.568 184.894 89.8057C185.12 90.0434 185.433 90.1623 185.832 90.1623C185.975 90.1623 186.115 90.1461 186.251 90.1138C186.389 90.0815 186.514 90.0399 186.625 89.9892C186.742 89.9361 186.842 89.8853 186.922 89.8369C187.003 89.7861 187.07 89.7388 187.123 89.6949H187.161V90.4046C187.085 90.4346 186.99 90.4727 186.877 90.5188C186.764 90.5627 186.663 90.5973 186.573 90.6227C186.446 90.6573 186.33 90.6839 186.227 90.7023C186.125 90.7208 185.996 90.73 185.839 90.73ZM186.6 88.2755C186.596 88.1001 186.575 87.949 186.538 87.822C186.501 87.6951 186.448 87.5878 186.379 87.5001C186.303 87.4031 186.205 87.3293 186.085 87.2785C185.967 87.2277 185.82 87.2023 185.645 87.2023C185.472 87.2023 185.324 87.2289 185.202 87.282C185.082 87.3327 184.972 87.4077 184.873 87.507C184.776 87.6085 184.702 87.7216 184.651 87.8462C184.601 87.9686 184.568 88.1117 184.554 88.2755H186.6Z" fill="#8C99B2"/>
<path d="M49.6 62.2C49.6 63.13 49.6 64.03 49.6 64.92C49.5866 65.0482 49.6002 65.1778 49.6401 65.3004C49.68 65.423 49.7452 65.5358 49.8314 65.6316C49.9177 65.7273 50.0231 65.8039 50.1409 65.8563C50.2586 65.9087 50.3861 65.9358 50.515 65.9358C50.6439 65.9358 50.7714 65.9087 50.8891 65.8563C51.0069 65.8039 51.1123 65.7273 51.1986 65.6316C51.2848 65.5358 51.35 65.423 51.3899 65.3004C51.4298 65.1778 51.4434 65.0482 51.43 64.92C51.43 64.16 51.43 63.4 51.43 62.64V62.2H55.92C56.1187 62.2013 56.3145 62.1532 56.49 62.06C56.6598 61.9627 56.7923 61.8115 56.8666 61.6304C56.9409 61.4493 56.9526 61.2486 56.9 61.06C56.8536 60.8583 56.7384 60.6791 56.5741 60.5531C56.4099 60.4272 56.2068 60.3624 56 60.37H51.44V58.53H54.69C55.7827 58.53 56.8306 58.096 57.6033 57.3233C58.3759 56.5507 58.81 55.5027 58.81 54.41C58.81 53.3173 58.3759 52.2694 57.6033 51.4967C56.8306 50.7241 55.7827 50.29 54.69 50.29H50.69C50.556 50.2795 50.4213 50.2981 50.2952 50.3447C50.1691 50.3912 50.0546 50.4645 49.9595 50.5596C49.8645 50.6546 49.7912 50.7691 49.7446 50.8952C49.6981 51.0213 49.6795 51.156 49.69 51.29V56.7H47.78C47.6518 56.6866 47.5222 56.7003 47.3996 56.7401C47.2771 56.78 47.1642 56.8452 47.0685 56.9315C46.9727 57.0177 46.8961 57.1232 46.8437 57.2409C46.7913 57.3587 46.7642 57.4861 46.7642 57.615C46.7642 57.7439 46.7913 57.8714 46.8437 57.9891C46.8961 58.1069 46.9727 58.2123 47.0685 58.2986C47.1642 58.3849 47.2771 58.45 47.3996 58.4899C47.5222 58.5298 47.6518 58.5434 47.78 58.53H49.58V60.37H47.78C47.658 60.3673 47.5367 60.3892 47.4233 60.4344C47.3099 60.4795 47.2067 60.547 47.12 60.6329C47.0332 60.7187 46.9646 60.8211 46.9182 60.934C46.8718 61.0469 46.8486 61.168 46.85 61.29C46.8552 61.5315 46.9541 61.7614 47.1258 61.9313C47.2975 62.1011 47.5285 62.1975 47.77 62.2H49.6ZM51.45 52.12H53.51C53.9963 52.0949 54.4837 52.0949 54.97 52.12C55.537 52.1586 56.0657 52.42 56.4405 52.8473C56.8153 53.2745 57.0057 53.8328 56.97 54.4C56.9876 54.6788 56.9496 54.9583 56.8583 55.2223C56.767 55.4864 56.6242 55.7296 56.4381 55.938C56.2521 56.1464 56.0265 56.3157 55.7745 56.4362C55.5224 56.5567 55.249 56.626 54.97 56.64C53.81 56.72 52.64 56.64 51.47 56.64L51.45 52.12Z" fill="#8C99B2"/>
<path d="M54.33 43.8C54.4385 43.7124 54.5274 43.6031 54.5911 43.4791C54.6548 43.3551 54.6919 43.2192 54.7 43.08C54.7088 42.9478 54.6912 42.8152 54.6482 42.6899C54.6053 42.5646 54.5379 42.4491 54.45 42.35C54.362 42.2494 54.2547 42.1675 54.1344 42.1091C54.0142 42.0507 53.8835 42.017 53.75 42.01C51.358 41.8673 48.9645 42.2638 46.7462 43.17C44.5279 44.0763 42.5415 45.4692 40.9337 47.246C39.3259 49.0228 38.1377 51.138 37.4568 53.4355C36.7759 55.733 36.6198 58.1541 37 60.52L35.7 60.97C35.5935 61.0082 35.4989 61.0734 35.4253 61.1594C35.3518 61.2453 35.302 61.3489 35.2808 61.46C35.2596 61.5711 35.2677 61.6858 35.3044 61.7928C35.3411 61.8998 35.4051 61.9953 35.49 62.07L39 65.07C39.1174 65.1701 39.2658 65.2266 39.42 65.23C39.4926 65.2443 39.5674 65.2443 39.64 65.23C39.7482 65.1948 39.8447 65.1304 39.9188 65.044C39.9929 64.9575 40.0417 64.8524 40.06 64.74L40.94 60.19C40.9619 60.0773 40.9541 59.9609 40.9173 59.8521C40.8805 59.7434 40.8159 59.6462 40.73 59.57C40.6438 59.4946 40.539 59.4436 40.4264 59.4225C40.3138 59.4014 40.1977 59.4109 40.09 59.45L38.92 59.85C38.6525 57.8037 38.8391 55.7237 39.4665 53.7577C40.0939 51.7916 41.1466 49.988 42.55 48.4749C43.9533 46.9618 45.6727 45.7764 47.586 45.003C49.4992 44.2296 51.5594 43.8871 53.62 44C53.7457 44.0175 53.8737 44.0087 53.9959 43.9743C54.1181 43.9399 54.2319 43.8805 54.33 43.8Z" fill="#8C99B2"/>
<path d="M70.54 56.24L67.46 52.81C67.3854 52.7224 67.2879 52.6573 67.1784 52.622C67.0689 52.5867 66.9517 52.5825 66.84 52.61C66.7257 52.631 66.6194 52.6832 66.5329 52.7609C66.4464 52.8385 66.3831 52.9386 66.35 53.05L64.92 57.43C64.8846 57.5395 64.8789 57.6565 64.9035 57.7689C64.9281 57.8814 64.9821 57.9852 65.06 58.07C65.1198 58.1387 65.1935 58.1938 65.2763 58.2318C65.359 58.2697 65.4489 58.2896 65.54 58.29H65.68L66.88 58.03C66.8827 60.1279 66.4163 62.1999 65.5148 64.0943C64.6133 65.9887 63.2996 67.6575 61.6699 68.9786C60.0401 70.2997 58.1355 71.2395 56.0956 71.7294C54.0556 72.2193 51.932 72.2469 49.88 71.81C49.6213 71.7557 49.3517 71.806 49.13 71.95C48.9631 72.0569 48.8317 72.2109 48.7525 72.3927C48.6733 72.5744 48.6499 72.7755 48.6853 72.9705C48.7207 73.1656 48.8132 73.3457 48.9511 73.488C49.0891 73.6304 49.2662 73.7285 49.46 73.77C51.8397 74.2806 54.3043 74.2433 56.6674 73.6609C59.0305 73.0786 61.2302 71.9665 63.1002 70.4087C64.9701 68.8508 66.4613 66.8882 67.4609 64.6691C68.4605 62.45 68.9424 60.0327 68.87 57.6L70.19 57.32C70.3043 57.299 70.4106 57.2468 70.4971 57.1691C70.5835 57.0914 70.6469 56.9914 70.68 56.88C70.7144 56.7703 70.7196 56.6536 70.695 56.5414C70.6705 56.4291 70.617 56.3252 70.54 56.24Z" fill="#8C99B2"/>
<path d="M52.33 103.19C76.15 103.19 95.46 83.88 95.46 60.06C95.46 36.24 76.15 16.93 52.33 16.93C28.51 16.93 9.2 36.24 9.2 60.06C9.2 83.88 28.51 103.19 52.33 103.19Z" stroke="#8C99B2" stroke-miterlimit="10"/>
<path d="M244.43 50H123.571L122 48.5951V47.4049L123.571 46H244.43L246 47.4049V48.5951L244.43 50Z" fill="#8C99B2"/>
</svg>
