<svg width="324" height="117" viewBox="0 0 324 117" fill="none" xmlns="http://www.w3.org/2000/svg">
<mask id="path-1-inside-1" fill="white">
<path fill-rule="evenodd" clip-rule="evenodd" d="M48 89.1303C62.3335 85.7445 73 72.8679 73 57.5C73 54.9187 72.6991 52.4076 72.1303 50H149V88C149 89.1046 148.105 90 147 90H48L48 89.1303Z"/>
</mask>
<path fill-rule="evenodd" clip-rule="evenodd" d="M48 89.1303C62.3335 85.7445 73 72.8679 73 57.5C73 54.9187 72.6991 52.4076 72.1303 50H149V88C149 89.1046 148.105 90 147 90H48L48 89.1303Z" fill="white" fill-opacity="0.5"/>
<path d="M48 89.1303L47.7701 88.1571L47 88.339V89.1303H48ZM72.1303 50V49H70.8666L71.1571 50.2299L72.1303 50ZM149 50H150V49H149V50ZM48 90H47V91H48V90ZM72 57.5C72 72.3938 61.6625 84.8755 47.7701 88.1571L48.2299 90.1036C63.0045 86.6135 74 73.3421 74 57.5H72ZM71.1571 50.2299C71.7082 52.5627 72 54.9966 72 57.5H74C74 54.8407 73.6899 52.2525 73.1036 49.7701L71.1571 50.2299ZM72.1303 51H149V49H72.1303V51ZM148 50V88H150V50H148ZM148 88C148 88.5523 147.552 89 147 89V91C148.657 91 150 89.6568 150 88H148ZM147 89H48V91H147V89ZM49 90V89.1303H47V90H49Z" fill="#D7E2F2" mask="url(#path-1-inside-1)"/>
<mask id="path-3-inside-2" fill="white">
<path fill-rule="evenodd" clip-rule="evenodd" d="M72.1303 51H149V28C149 26.8954 148.105 26 147 26H48V26.8697C59.9259 29.6868 69.3132 39.0741 72.1303 51Z"/>
</mask>
<path fill-rule="evenodd" clip-rule="evenodd" d="M72.1303 51H149V28C149 26.8954 148.105 26 147 26H48V26.8697C59.9259 29.6868 69.3132 39.0741 72.1303 51Z" fill="white"/>
<path d="M149 51V52H150V51H149ZM72.1303 51L71.1571 51.2299L71.339 52H72.1303V51ZM48 26V25H47V26L48 26ZM48 26.8697H47V27.661L47.7701 27.8429L48 26.8697ZM149 50H72.1303V52H149V50ZM148 28V51H150V28H148ZM147 27C147.552 27 148 27.4477 148 28H150C150 26.3432 148.657 25 147 25V27ZM48 27H147V25H48V27ZM49 26.8697V26L47 26V26.8697H49ZM47.7701 27.8429C59.3275 30.5729 68.4271 39.6725 71.1571 51.2299L73.1036 50.7701C70.1994 38.4757 60.5243 28.8006 48.2299 25.8964L47.7701 27.8429Z" fill="#D7E2F2" mask="url(#path-3-inside-2)"/>
<path d="M82.1929 41V35.23H79.9956V34.4565H85.2603V35.23H83.063V41H82.1929ZM87.9849 41.1143C87.2026 41.1143 86.5947 40.8945 86.1611 40.4551C85.7305 40.0127 85.5151 39.3857 85.5151 38.5742C85.5151 37.7744 85.7246 37.1387 86.1436 36.667C86.5625 36.1924 87.1104 35.9551 87.7871 35.9551C88.0918 35.9551 88.3613 35.999 88.5957 36.0869C88.8301 36.1748 89.0352 36.3125 89.2109 36.5C89.3867 36.6875 89.5215 36.9175 89.6152 37.1899C89.709 37.4595 89.7559 37.7905 89.7559 38.1831V38.6313H86.3545C86.3545 39.2026 86.498 39.6392 86.7852 39.9409C87.0723 40.2427 87.4692 40.3936 87.9761 40.3936C88.1577 40.3936 88.335 40.373 88.5078 40.332C88.6836 40.291 88.8418 40.2383 88.9824 40.1738C89.1318 40.1064 89.2578 40.042 89.3604 39.9805C89.4629 39.916 89.5479 39.856 89.6152 39.8003H89.6636V40.7012C89.5669 40.7393 89.4468 40.7876 89.3032 40.8462C89.1597 40.9019 89.0308 40.9458 88.9165 40.978C88.7554 41.022 88.6089 41.0557 88.4771 41.0791C88.3481 41.1025 88.1841 41.1143 87.9849 41.1143ZM88.9517 37.9985C88.9458 37.7759 88.9194 37.584 88.8726 37.4229C88.8257 37.2617 88.7583 37.1255 88.6704 37.0142C88.5737 36.8911 88.4492 36.7974 88.2969 36.7329C88.1475 36.6685 87.9614 36.6362 87.7388 36.6362C87.519 36.6362 87.3315 36.6699 87.1763 36.7373C87.0239 36.8018 86.8848 36.897 86.7588 37.0229C86.6357 37.1519 86.542 37.2954 86.4775 37.4536C86.4131 37.6089 86.3721 37.7905 86.3545 37.9985H88.9517ZM94.4668 41H93.6406V36.8032H91.417V41H90.5908V36.0913H94.4668V41ZM99.4634 41H98.6372V36.7856H96.9497C96.9409 37.0288 96.9321 37.2632 96.9233 37.4888C96.9146 37.7114 96.9058 37.9136 96.897 38.0952C96.8794 38.5552 96.8486 38.9404 96.8047 39.251C96.7637 39.5615 96.7109 39.8105 96.6465 39.998C96.582 40.1914 96.5103 40.3423 96.4312 40.4507C96.355 40.5591 96.2686 40.6572 96.1719 40.7451C96.0723 40.833 95.9653 40.8989 95.8511 40.9429C95.7368 40.9868 95.6079 41.0088 95.4644 41.0088C95.4175 41.0088 95.3574 41.0073 95.2842 41.0044C95.2109 41.0015 95.1597 41 95.1304 41V40.2793H95.1743C95.1948 40.2793 95.2153 40.2808 95.2358 40.2837C95.2593 40.2866 95.2856 40.2881 95.3149 40.2881C95.3853 40.2881 95.4541 40.2778 95.5215 40.2573C95.5889 40.2368 95.6489 40.1987 95.7017 40.1431C95.8481 39.9995 95.9551 39.749 96.0225 39.3916C96.0898 39.0312 96.1382 38.5288 96.1675 37.8843C96.1792 37.644 96.1895 37.3599 96.1982 37.0317C96.21 36.7036 96.2202 36.3901 96.229 36.0913H99.4634V41ZM104.702 38.5479C104.702 39.374 104.502 40.0127 104.104 40.4639C103.706 40.9121 103.175 41.1362 102.513 41.1362C101.831 41.1362 101.293 40.9048 100.9 40.4419C100.511 39.9761 100.316 39.3447 100.316 38.5479C100.316 37.7275 100.517 37.0903 100.918 36.6362C101.322 36.1821 101.854 35.9551 102.513 35.9551C103.175 35.9551 103.706 36.1821 104.104 36.6362C104.502 37.0874 104.702 37.7246 104.702 38.5479ZM103.849 38.5479C103.849 37.9121 103.733 37.4404 103.502 37.1328C103.271 36.8223 102.941 36.667 102.513 36.667C102.083 36.667 101.75 36.8223 101.516 37.1328C101.284 37.4404 101.168 37.9121 101.168 38.5479C101.168 39.1631 101.284 39.6304 101.516 39.9497C101.75 40.2661 102.083 40.4243 102.513 40.4243C102.938 40.4243 103.266 40.269 103.498 39.9585C103.732 39.645 103.849 39.1748 103.849 38.5479ZM105.137 39.875H105.189C105.254 39.9307 105.333 39.9893 105.427 40.0508C105.523 40.1094 105.636 40.165 105.765 40.2178C105.906 40.2764 106.041 40.3218 106.169 40.354C106.298 40.3862 106.457 40.4023 106.644 40.4023C107.066 40.4023 107.404 40.2603 107.659 39.9761C107.914 39.6919 108.061 39.2803 108.099 38.7412H105.866V38.0776H108.094C108.042 37.6118 107.888 37.2632 107.633 37.0317C107.381 36.8003 107.067 36.6846 106.692 36.6846C106.525 36.6846 106.37 36.7036 106.227 36.7417C106.083 36.7769 105.944 36.8252 105.809 36.8867C105.698 36.9395 105.598 36.9966 105.51 37.0581C105.425 37.1196 105.343 37.1826 105.264 37.2471H105.211V36.3418C105.367 36.2744 105.585 36.1968 105.866 36.1089C106.15 36.021 106.42 35.9771 106.675 35.9771C107.006 35.9771 107.309 36.0269 107.584 36.1265C107.86 36.2261 108.097 36.3784 108.296 36.5835C108.499 36.7944 108.652 37.0508 108.758 37.3525C108.866 37.6514 108.92 38.0161 108.92 38.4468C108.92 39.2671 108.709 39.916 108.288 40.3936C107.869 40.8711 107.302 41.1099 106.587 41.1099C106.32 41.1099 106.06 41.0747 105.805 41.0044C105.553 40.937 105.33 40.8623 105.137 40.7803V39.875ZM113.671 41H112.845V38.7896H110.621V41H109.795V36.0913H110.621V38.0776H112.845V36.0913H113.671V41ZM116.998 41.1143C116.215 41.1143 115.607 40.8945 115.174 40.4551C114.743 40.0127 114.528 39.3857 114.528 38.5742C114.528 37.7744 114.737 37.1387 115.156 36.667C115.575 36.1924 116.123 35.9551 116.8 35.9551C117.104 35.9551 117.374 35.999 117.608 36.0869C117.843 36.1748 118.048 36.3125 118.224 36.5C118.399 36.6875 118.534 36.9175 118.628 37.1899C118.722 37.4595 118.769 37.7905 118.769 38.1831V38.6313H115.367C115.367 39.2026 115.511 39.6392 115.798 39.9409C116.085 40.2427 116.482 40.3936 116.989 40.3936C117.17 40.3936 117.348 40.373 117.521 40.332C117.696 40.291 117.854 40.2383 117.995 40.1738C118.145 40.1064 118.271 40.042 118.373 39.9805C118.476 39.916 118.561 39.856 118.628 39.8003H118.676V40.7012C118.58 40.7393 118.459 40.7876 118.316 40.8462C118.172 40.9019 118.043 40.9458 117.929 40.978C117.768 41.022 117.622 41.0557 117.49 41.0791C117.361 41.1025 117.197 41.1143 116.998 41.1143ZM117.964 37.9985C117.958 37.7759 117.932 37.584 117.885 37.4229C117.838 37.2617 117.771 37.1255 117.683 37.0142C117.586 36.8911 117.462 36.7974 117.31 36.7329C117.16 36.6685 116.974 36.6362 116.751 36.6362C116.532 36.6362 116.344 36.6699 116.189 36.7373C116.037 36.8018 115.897 36.897 115.771 37.0229C115.648 37.1519 115.555 37.2954 115.49 37.4536C115.426 37.6089 115.385 37.7905 115.367 37.9985H117.964ZM123.721 38.416C123.721 39.2334 123.525 39.8853 123.132 40.3716C122.743 40.855 122.249 41.0967 121.651 41.0967C121.408 41.0967 121.193 41.0688 121.005 41.0132C120.818 40.9575 120.626 40.8711 120.43 40.7539V42.8105H119.604V36.0913H120.43V36.6055C120.635 36.4209 120.862 36.2671 121.111 36.144C121.363 36.0181 121.637 35.9551 121.933 35.9551C122.495 35.9551 122.933 36.1777 123.247 36.623C123.563 37.0684 123.721 37.666 123.721 38.416ZM122.869 38.5083C122.869 37.9487 122.779 37.5151 122.601 37.2075C122.422 36.897 122.132 36.7417 121.73 36.7417C121.496 36.7417 121.269 36.7944 121.049 36.8999C120.833 37.0024 120.626 37.1357 120.43 37.2998V40.0815C120.646 40.187 120.831 40.2588 120.983 40.2969C121.139 40.335 121.316 40.354 121.515 40.354C121.943 40.354 122.275 40.1973 122.513 39.8838C122.75 39.5703 122.869 39.1118 122.869 38.5083ZM127.698 36.8164H125.404V41H124.578V36.0913H127.698V36.8164ZM132.189 41H131.372V37.3394L129.061 41H128.313V36.0913H129.131V39.6948L131.416 36.0913H132.189V41ZM136.94 41H136.114V39.0532H135.296L133.842 41H132.879L134.457 38.9785C134.05 38.8584 133.751 38.6797 133.561 38.4424C133.373 38.2051 133.279 37.8872 133.279 37.4888C133.279 37.2456 133.332 37.0332 133.438 36.8516C133.546 36.667 133.691 36.5117 133.873 36.3857C134.019 36.2861 134.204 36.2129 134.426 36.166C134.649 36.1162 134.898 36.0913 135.173 36.0913H136.94V41ZM136.114 38.4028V36.7505H135.217C135.027 36.7505 134.876 36.7607 134.765 36.7812C134.656 36.8018 134.551 36.8413 134.448 36.8999C134.343 36.9644 134.262 37.0522 134.207 37.1636C134.154 37.272 134.127 37.3892 134.127 37.5151C134.127 37.6763 134.145 37.8081 134.18 37.9106C134.218 38.0103 134.286 38.1025 134.382 38.1875C134.485 38.2754 134.609 38.334 134.756 38.3633C134.905 38.3896 135.068 38.4028 135.244 38.4028H136.114Z" fill="#303549"/>
<circle cx="40" cy="58" r="34.5" fill="white" stroke="#D7E2F2"/>
<path d="M48.8582 85.2621C45.9974 86.1916 43.0081 86.6651 40 86.6651" stroke="#F5F8FD" stroke-width="2"/>
<path d="M56.8493 81.1917C54.4157 82.9598 51.719 84.3338 48.8582 85.2633" stroke="#F5F8FD" stroke-width="2"/>
<path d="M63.191 74.85C61.423 77.2836 59.2829 79.4237 56.8493 81.1918" stroke="#F5F8FD" stroke-width="2"/>
<path d="M67.2627 66.8574C66.3331 69.7182 64.9591 72.4149 63.191 74.8485" stroke="#F5F8FD" stroke-width="2"/>
<path d="M68.6657 58C68.6657 61.008 68.1922 63.9974 67.2627 66.8582" stroke="#F5F8FD" stroke-width="2"/>
<path d="M67.2627 49.1426C68.1922 52.0034 68.6657 54.9927 68.6657 58.0008" stroke="#F5F8FD" stroke-width="2"/>
<path d="M63.191 41.1499C64.9591 43.5835 66.3331 46.2802 67.2627 49.141" stroke="#F5F8FD" stroke-width="2"/>
<path d="M56.8493 34.8083C59.2828 36.5764 61.4229 38.7165 63.191 41.1501" stroke="#F5F8FD" stroke-width="2"/>
<path d="M48.8582 30.7379C51.719 31.6675 54.4157 33.0415 56.8493 34.8096" stroke="#F5F8FD" stroke-width="2"/>
<path d="M40 29.3353C43.0081 29.3353 45.9974 29.8087 48.8582 30.7383" stroke="#F5F8FD" stroke-width="2"/>
<path d="M31.1418 30.7379C34.0027 29.8084 36.992 29.3349 40 29.3349" stroke="#F5F8FD" stroke-width="2"/>
<path d="M23.1507 34.8083C25.5843 33.0402 28.281 31.6662 31.1418 30.7367" stroke="#F5F8FD" stroke-width="2"/>
<path d="M16.809 41.1499C18.5771 38.7164 20.7172 36.5763 23.1507 34.8082" stroke="#F5F8FD" stroke-width="2"/>
<path d="M12.7373 49.1426C13.6669 46.2818 15.0409 43.5851 16.809 41.1515" stroke="#F5F8FD" stroke-width="2"/>
<path d="M11.3343 58C11.3343 54.992 11.8078 52.0026 12.7373 49.1418" stroke="#F5F8FD" stroke-width="2"/>
<path d="M12.7373 66.8574C11.8078 63.9966 11.3343 61.0073 11.3343 57.9992" stroke="#F5F8FD" stroke-width="2"/>
<path d="M16.809 74.8501C15.0409 72.4165 13.6669 69.7198 12.7373 66.859" stroke="#F5F8FD" stroke-width="2"/>
<path d="M23.1508 81.1917C20.7172 79.4236 18.5771 77.2835 16.809 74.8499" stroke="#F5F8FD" stroke-width="2"/>
<path d="M31.1419 85.2621C28.281 84.3325 25.5843 82.9585 23.1508 81.1904" stroke="#F5F8FD" stroke-width="2"/>
<path d="M40 86.6647C36.992 86.6647 34.0026 86.1913 31.1418 85.2617" stroke="#F5F8FD" stroke-width="2"/>
<path d="M48.8582 85.2621C46.1786 86.1327 43.3863 86.6033 40.5714 86.6594C40.4912 86.661 40.4111 86.6622 40.3309 86.6632C40.2207 86.6644 40.1103 86.6651 40 86.6651" stroke="#8C99B2" stroke-width="2" stroke-linecap="round"/>
<path d="M56.8493 81.1917C54.5699 82.8478 52.0596 84.1582 49.3998 85.0814C49.3241 85.1077 49.2483 85.1336 49.1723 85.1593C49.0678 85.1946 48.9631 85.2293 48.8582 85.2633" stroke="#8C99B2" stroke-width="2" stroke-linecap="round"/>
<path d="M63.191 74.85C61.5349 77.1295 59.5525 79.1514 57.3082 80.8514C57.2443 80.8998 57.1802 80.9479 57.1159 80.9958C57.0274 81.0616 56.9385 81.127 56.8493 81.1918" stroke="#8C99B2" stroke-width="2" stroke-linecap="round"/>
<path d="M67.2627 66.8574C66.392 69.537 65.1314 72.0726 63.5222 74.3829C63.4764 74.4487 63.4303 74.5142 63.384 74.5796C63.3202 74.6696 63.2558 74.7592 63.191 74.8485" stroke="#8C99B2" stroke-width="2" stroke-linecap="round"/>
<path d="M68.6657 58C68.6657 60.8175 68.2503 63.6186 67.4338 66.313C67.4106 66.3897 67.387 66.4664 67.3631 66.5429C67.3302 66.6481 67.2968 66.7533 67.2627 66.8582" stroke="#8C99B2" stroke-width="2" stroke-linecap="round"/>
<path d="M67.2627 49.1426C68.1333 51.8222 68.6039 54.6146 68.66 57.4295C68.6616 57.5096 68.6628 57.5897 68.6638 57.6699C68.665 57.7802 68.6657 57.8905 68.6657 58.0008" stroke="#8C99B2" stroke-width="2" stroke-linecap="round"/>
<path d="M63.191 41.1499C64.8471 43.4294 66.1575 45.9396 67.0807 48.5994C67.107 48.6751 67.133 48.751 67.1586 48.8269C67.1939 48.9314 67.2286 49.0361 67.2627 49.141" stroke="#8C99B2" stroke-width="2" stroke-linecap="round"/>
<path d="M56.8493 34.8083C59.1287 36.4644 61.1506 38.4469 62.8506 40.6912C62.899 40.7551 62.9471 40.8192 62.995 40.8835C63.0608 40.972 63.1262 41.0609 63.191 41.1501" stroke="#8C99B2" stroke-width="2" stroke-linecap="round"/>
<path d="M48.8582 30.7379C51.5378 31.6086 54.0734 32.8692 56.3837 34.4784C56.4495 34.5242 56.515 34.5703 56.5804 34.6166C56.6704 34.6804 56.76 34.7448 56.8493 34.8096" stroke="#8C99B2" stroke-width="2" stroke-linecap="round"/>
<path d="M40 29.3353C42.8175 29.3353 45.6186 29.7507 48.313 30.5671C48.3897 30.5904 48.4664 30.614 48.5429 30.6378C48.6482 30.6707 48.7533 30.7042 48.8582 30.7383" stroke="#8C99B2" stroke-width="2" stroke-linecap="round"/>
<path d="M31.1418 30.7379C34.0027 29.8084 36.992 29.3349 40 29.3349" stroke="#8C99B2" stroke-width="2"/>
<path d="M23.1507 34.8083C25.4302 33.1522 27.9404 31.8418 30.6002 30.9186C30.6759 30.8923 30.7517 30.8664 30.8277 30.8407C30.9322 30.8054 31.0369 30.7707 31.1418 30.7367" stroke="#8C99B2" stroke-width="2" stroke-linecap="round"/>
<path d="M16.809 41.1499C18.4651 38.8705 20.4476 36.8486 22.6919 35.1486C22.7558 35.1002 22.8198 35.0521 22.8842 35.0042C22.9726 34.9384 23.0615 34.873 23.1507 34.8082" stroke="#8C99B2" stroke-width="2" stroke-linecap="round"/>
<path d="M12.7373 49.1426C13.608 46.463 14.8686 43.9274 16.4778 41.6171C16.5236 41.5513 16.5697 41.4858 16.616 41.4204C16.6798 41.3304 16.7442 41.2408 16.809 41.1515" stroke="#8C99B2" stroke-width="2" stroke-linecap="round"/>
<path d="M11.3343 58C11.3343 55.1825 11.7497 52.3814 12.5662 49.687C12.5894 49.6103 12.613 49.5336 12.6369 49.4571C12.6698 49.3518 12.7032 49.2467 12.7373 49.1418" stroke="#8C99B2" stroke-width="2" stroke-linecap="round"/>
<path d="M12.7373 66.8574C11.8667 64.1778 11.3961 61.3854 11.34 58.5705C11.3384 58.4904 11.3372 58.4103 11.3362 58.3301C11.335 58.2198 11.3343 58.1095 11.3343 57.9992" stroke="#8C99B2" stroke-width="2" stroke-linecap="round"/>
<path d="M16.809 74.8501C15.1529 72.5706 13.8425 70.0604 12.9193 67.4006C12.893 67.3249 12.867 67.249 12.8414 67.1731C12.8061 67.0686 12.7714 66.9639 12.7373 66.859" stroke="#8C99B2" stroke-width="2" stroke-linecap="round"/>
<path d="M23.1508 81.1917C20.8713 79.5356 18.8494 77.5531 17.1494 75.3088C17.1011 75.2449 17.0529 75.1808 17.0051 75.1165C16.9392 75.0281 16.8738 74.9392 16.809 74.8499" stroke="#8C99B2" stroke-width="2" stroke-linecap="round"/>
<path d="M31.1419 85.2621C28.4622 84.3914 25.9266 83.1308 23.6163 81.5216C23.5506 81.4758 23.485 81.4297 23.4196 81.3834C23.3296 81.3196 23.24 81.2552 23.1508 81.1904" stroke="#8C99B2" stroke-width="2" stroke-linecap="round"/>
<path d="M40 86.6647C37.1825 86.6647 34.3814 86.2493 31.687 85.4329C31.6103 85.4096 31.5336 85.386 31.4571 85.3622C31.3518 85.3293 31.2467 85.2958 31.1418 85.2617" stroke="#8C99B2" stroke-width="2" stroke-linecap="round"/>
<path d="M39.9971 68.3516H38.1416V73H37.2236V68.3516H35.3682V67.5459H39.9971V68.3516ZM44.9873 73H44.0693V70.5439H41.5986V73H40.6807V67.5459H41.5986V69.7529H44.0693V67.5459H44.9873V73Z" fill="#8C99B2"/>
<path opacity="0.99" d="M30.9766 55.1484C30.9766 54.3568 30.9036 53.7135 30.7578 53.2188C30.612 52.7188 30.4115 52.3333 30.1562 52.0625C29.9271 51.8125 29.6953 51.6406 29.4609 51.5469C29.2266 51.4531 28.9688 51.4062 28.6875 51.4062C28.0469 51.4062 27.5365 51.6354 27.1562 52.0938C26.776 52.5521 26.5859 53.2161 26.5859 54.0859C26.5859 54.5755 26.6484 54.9792 26.7734 55.2969C26.8984 55.6146 27.1016 55.888 27.3828 56.1172C27.5807 56.2786 27.8047 56.388 28.0547 56.4453C28.3047 56.4974 28.5729 56.5234 28.8594 56.5234C29.1927 56.5234 29.5521 56.4661 29.9375 56.3516C30.3229 56.2318 30.6589 56.0755 30.9453 55.8828C30.9505 55.8047 30.9557 55.7031 30.9609 55.5781C30.9714 55.4479 30.9766 55.3047 30.9766 55.1484ZM25 54.1484C25 53.5495 25.0964 53.0026 25.2891 52.5078C25.487 52.013 25.7552 51.5859 26.0938 51.2266C26.4167 50.8828 26.8099 50.6146 27.2734 50.4219C27.7422 50.2292 28.2161 50.1328 28.6953 50.1328C29.2318 50.1328 29.7161 50.224 30.1484 50.4062C30.5859 50.5833 30.9635 50.8411 31.2812 51.1797C31.6823 51.6068 31.9922 52.1667 32.2109 52.8594C32.4349 53.5521 32.5469 54.4271 32.5469 55.4844C32.5469 56.4479 32.4375 57.362 32.2188 58.2266C32.0052 59.0859 31.6875 59.7995 31.2656 60.3672C30.8177 60.9714 30.2786 61.4323 29.6484 61.75C29.0234 62.0677 28.25 62.2266 27.3281 62.2266C27.1198 62.2266 26.8984 62.2135 26.6641 62.1875C26.4297 62.1667 26.2109 62.125 26.0078 62.0625V60.5703H26.0859C26.2161 60.6432 26.4193 60.7135 26.6953 60.7812C26.9714 60.849 27.2526 60.8828 27.5391 60.8828C28.5599 60.8828 29.362 60.5469 29.9453 59.875C30.5286 59.2031 30.8594 58.2422 30.9375 56.9922C30.5208 57.2734 30.1224 57.4792 29.7422 57.6094C29.3672 57.7396 28.9583 57.8047 28.5156 57.8047C28.0833 57.8047 27.6901 57.7578 27.3359 57.6641C26.9818 57.5703 26.625 57.388 26.2656 57.1172C25.849 56.7995 25.5339 56.3984 25.3203 55.9141C25.1068 55.4245 25 54.8359 25 54.1484ZM39.7109 55.1484C39.7109 54.3568 39.638 53.7135 39.4922 53.2188C39.3464 52.7188 39.1458 52.3333 38.8906 52.0625C38.6615 51.8125 38.4297 51.6406 38.1953 51.5469C37.9609 51.4531 37.7031 51.4062 37.4219 51.4062C36.7812 51.4062 36.2708 51.6354 35.8906 52.0938C35.5104 52.5521 35.3203 53.2161 35.3203 54.0859C35.3203 54.5755 35.3828 54.9792 35.5078 55.2969C35.6328 55.6146 35.8359 55.888 36.1172 56.1172C36.3151 56.2786 36.5391 56.388 36.7891 56.4453C37.0391 56.4974 37.3073 56.5234 37.5938 56.5234C37.9271 56.5234 38.2865 56.4661 38.6719 56.3516C39.0573 56.2318 39.3932 56.0755 39.6797 55.8828C39.6849 55.8047 39.6901 55.7031 39.6953 55.5781C39.7057 55.4479 39.7109 55.3047 39.7109 55.1484ZM33.7344 54.1484C33.7344 53.5495 33.8307 53.0026 34.0234 52.5078C34.2214 52.013 34.4896 51.5859 34.8281 51.2266C35.151 50.8828 35.5443 50.6146 36.0078 50.4219C36.4766 50.2292 36.9505 50.1328 37.4297 50.1328C37.9661 50.1328 38.4505 50.224 38.8828 50.4062C39.3203 50.5833 39.6979 50.8411 40.0156 51.1797C40.4167 51.6068 40.7266 52.1667 40.9453 52.8594C41.1693 53.5521 41.2812 54.4271 41.2812 55.4844C41.2812 56.4479 41.1719 57.362 40.9531 58.2266C40.7396 59.0859 40.4219 59.7995 40 60.3672C39.5521 60.9714 39.013 61.4323 38.3828 61.75C37.7578 62.0677 36.9844 62.2266 36.0625 62.2266C35.8542 62.2266 35.6328 62.2135 35.3984 62.1875C35.1641 62.1667 34.9453 62.125 34.7422 62.0625V60.5703H34.8203C34.9505 60.6432 35.1536 60.7135 35.4297 60.7812C35.7057 60.849 35.987 60.8828 36.2734 60.8828C37.2943 60.8828 38.0964 60.5469 38.6797 59.875C39.263 59.2031 39.5938 58.2422 39.6719 56.9922C39.2552 57.2734 38.8568 57.4792 38.4766 57.6094C38.1016 57.7396 37.6927 57.8047 37.25 57.8047C36.8177 57.8047 36.4245 57.7578 36.0703 57.6641C35.7161 57.5703 35.3594 57.388 35 57.1172C34.5833 56.7995 34.2682 56.3984 34.0547 55.9141C33.8411 55.4245 33.7344 54.8359 33.7344 54.1484ZM45.2969 62H43.4297V59.7734H45.2969V62ZM54.875 56.1797C54.875 58.2682 54.5703 59.8021 53.9609 60.7812C53.3568 61.7552 52.4219 62.2422 51.1562 62.2422C49.875 62.2422 48.9349 61.7448 48.3359 60.75C47.737 59.7552 47.4375 58.237 47.4375 56.1953C47.4375 54.0964 47.7396 52.5625 48.3438 51.5938C48.9531 50.6198 49.8906 50.1328 51.1562 50.1328C52.4375 50.1328 53.3776 50.6354 53.9766 51.6406C54.5755 52.6458 54.875 54.1589 54.875 56.1797ZM52.875 59.7266C53.026 59.3411 53.1328 58.8542 53.1953 58.2656C53.2578 57.6771 53.2891 56.9818 53.2891 56.1797C53.2891 55.3828 53.2578 54.6901 53.1953 54.1016C53.1328 53.513 53.0234 53.0234 52.8672 52.6328C52.7109 52.237 52.4948 51.9375 52.2188 51.7344C51.9479 51.526 51.5938 51.4219 51.1562 51.4219C50.724 51.4219 50.3672 51.526 50.0859 51.7344C49.8099 51.9375 49.5911 52.2422 49.4297 52.6484C49.2734 53.0443 49.1667 53.5443 49.1094 54.1484C49.0521 54.7526 49.0234 55.4349 49.0234 56.1953C49.0234 57.0078 49.0469 57.6875 49.0938 58.2344C49.1458 58.7812 49.2552 59.2708 49.4219 59.7031C49.5729 60.1042 49.7865 60.4141 50.0625 60.6328C50.3438 60.8464 50.7083 60.9531 51.1562 60.9531C51.5885 60.9531 51.9427 60.8516 52.2188 60.6484C52.5 60.4401 52.7188 60.1328 52.875 59.7266Z" fill="#303549"/>
<circle cx="40" cy="43" r="3" fill="#0089FF"/>
<path d="M88.6484 73.3516H86.793V78H85.875V73.3516H84.0195V72.5459H88.6484V73.3516ZM93.6387 78H92.7207V75.5439H90.25V78H89.332V72.5459H90.25V74.7529H92.7207V72.5459H93.6387V78Z" fill="#8C99B2"/>
<path d="M87.6484 67H84.1035V66.2578H85.4219V61.3848H84.1035V60.7207C84.6016 60.7207 84.9678 60.6507 85.2021 60.5107C85.4398 60.3675 85.5732 60.099 85.6025 59.7051H86.3594V66.2578H87.6484V67ZM93.4785 67H88.9912V65.9795C89.3135 65.6735 89.6178 65.3805 89.9043 65.1006C90.1908 64.8206 90.4707 64.5293 90.7441 64.2266C91.2975 63.6178 91.6751 63.1312 91.877 62.7666C92.0788 62.3988 92.1797 62.0195 92.1797 61.6289C92.1797 61.4271 92.1471 61.2497 92.082 61.0967C92.0202 60.9437 91.9339 60.8167 91.8232 60.7158C91.7093 60.6182 91.5775 60.5449 91.4277 60.4961C91.278 60.4473 91.1136 60.4229 90.9346 60.4229C90.762 60.4229 90.5863 60.4456 90.4072 60.4912C90.2314 60.5335 90.0622 60.5872 89.8994 60.6523C89.7627 60.7077 89.6309 60.7744 89.5039 60.8525C89.377 60.9307 89.2744 60.9974 89.1963 61.0527H89.1426V60.0176C89.3444 59.9167 89.6243 59.819 89.9824 59.7246C90.3438 59.627 90.6855 59.5781 91.0078 59.5781C91.6849 59.5781 92.2155 59.7588 92.5996 60.1201C92.9837 60.4782 93.1758 60.9648 93.1758 61.5801C93.1758 61.8633 93.1416 62.1253 93.0732 62.3662C93.0081 62.6071 92.917 62.8301 92.7998 63.0352C92.6794 63.2467 92.5345 63.4567 92.3652 63.665C92.196 63.8734 92.0169 64.0785 91.8281 64.2803C91.5221 64.6123 91.1803 64.9574 90.8027 65.3154C90.4284 65.6735 90.1289 65.9567 89.9043 66.165H93.4785V67ZM99.0156 60.8184L95.8711 67H94.8311L98.1611 60.584H94.4014V59.7295H99.0156V60.8184ZM101.472 67H100.305V65.6084H101.472V67ZM107.614 64.5H106.75V67H105.812V64.5H102.6V63.4746L105.852 59.7295H106.75V63.7188H107.614V64.5ZM105.812 63.7188V60.877L103.361 63.7188H105.812Z" fill="#303549"/>
<path d="M125.049 71.5889H121.704V78H120.737V70.7295H125.049V71.5889ZM130.132 78H128.989L127.119 75.4854H126.66V78H125.742V72.5459H126.66V74.9189C126.898 74.9157 127.1 74.8669 127.266 74.7725C127.435 74.6748 127.578 74.4876 127.695 74.2109C127.731 74.1296 127.77 74.0352 127.812 73.9277C127.858 73.8203 127.894 73.7259 127.92 73.6445C128.063 73.2441 128.262 72.9609 128.516 72.7949C128.77 72.6289 129.1 72.5459 129.507 72.5459H129.756V73.3369H129.546C129.289 73.3369 129.095 73.3906 128.965 73.498C128.838 73.6022 128.73 73.7943 128.643 74.0742C128.551 74.3574 128.444 74.5788 128.32 74.7383C128.197 74.8945 128.06 75.015 127.91 75.0996L130.132 78ZM133.77 76.6572V75.1436C133.551 75.1631 133.275 75.1908 132.939 75.2266C132.607 75.2591 132.339 75.3063 132.134 75.3682C131.89 75.443 131.688 75.5586 131.528 75.7148C131.369 75.8678 131.289 76.0827 131.289 76.3594C131.289 76.6719 131.377 76.9079 131.553 77.0674C131.729 77.2269 131.986 77.3066 132.324 77.3066C132.614 77.3066 132.876 77.2448 133.11 77.1211C133.345 76.9941 133.564 76.8395 133.77 76.6572ZM133.77 77.4189C133.695 77.4743 133.594 77.5524 133.467 77.6533C133.343 77.751 133.223 77.8291 133.105 77.8877C132.943 77.9723 132.785 78.0374 132.632 78.083C132.482 78.1286 132.271 78.1514 131.997 78.1514C131.772 78.1514 131.559 78.109 131.357 78.0244C131.156 77.9398 130.978 77.821 130.825 77.668C130.679 77.5182 130.562 77.3343 130.474 77.1162C130.386 76.8949 130.342 76.6621 130.342 76.418C130.342 76.0404 130.422 75.7197 130.581 75.4561C130.741 75.1891 130.993 74.9775 131.338 74.8213C131.644 74.6813 132.005 74.5853 132.422 74.5332C132.839 74.4779 133.288 74.4372 133.77 74.4111V74.2354C133.77 74.0205 133.737 73.848 133.672 73.7178C133.607 73.5843 133.516 73.4818 133.398 73.4102C133.281 73.3353 133.138 73.2865 132.969 73.2637C132.799 73.2376 132.625 73.2246 132.446 73.2246C132.235 73.2246 131.986 73.2572 131.699 73.3223C131.413 73.3841 131.126 73.4753 130.84 73.5957H130.786V72.6631C130.955 72.6143 131.198 72.5605 131.514 72.502C131.829 72.4434 132.142 72.4141 132.451 72.4141C132.826 72.4141 133.141 72.4434 133.398 72.502C133.656 72.5605 133.887 72.6663 134.092 72.8193C134.29 72.9691 134.438 73.1628 134.536 73.4004C134.634 73.638 134.683 73.9277 134.683 74.2695V78H133.77V77.4189ZM140.2 78H139.282V73.3174H137.407C137.397 73.5876 137.388 73.848 137.378 74.0986C137.368 74.346 137.358 74.5706 137.349 74.7725C137.329 75.2835 137.295 75.7116 137.246 76.0566C137.201 76.4017 137.142 76.6784 137.07 76.8867C136.999 77.1016 136.919 77.2692 136.831 77.3896C136.746 77.5101 136.65 77.6191 136.543 77.7168C136.432 77.8145 136.313 77.8877 136.187 77.9365C136.06 77.9854 135.916 78.0098 135.757 78.0098C135.705 78.0098 135.638 78.0081 135.557 78.0049C135.475 78.0016 135.418 78 135.386 78V77.1992H135.435C135.457 77.1992 135.48 77.2008 135.503 77.2041C135.529 77.2074 135.558 77.209 135.591 77.209C135.669 77.209 135.745 77.1976 135.82 77.1748C135.895 77.152 135.962 77.1097 136.021 77.0479C136.183 76.8883 136.302 76.61 136.377 76.2129C136.452 75.8125 136.506 75.2542 136.538 74.5381C136.551 74.2712 136.562 73.9554 136.572 73.5908C136.585 73.2262 136.597 72.8779 136.606 72.5459H140.2V78Z" fill="#8C99B2"/>
<path d="M122.96 61.4238C122.96 61.0983 122.851 60.8265 122.633 60.6084C122.415 60.3903 122.112 60.2812 121.725 60.2812C121.37 60.2812 121.078 60.3789 120.851 60.5742C120.626 60.7695 120.514 61.0332 120.514 61.3652C120.514 61.6061 120.571 61.8096 120.685 61.9756C120.802 62.1416 120.976 62.2913 121.207 62.4248C121.308 62.4801 121.461 62.5566 121.666 62.6543C121.874 62.752 122.063 62.8285 122.232 62.8838C122.516 62.6657 122.708 62.4427 122.809 62.2148C122.91 61.9837 122.96 61.7201 122.96 61.4238ZM123.097 65.0664C123.097 64.7669 123.038 64.5293 122.921 64.3535C122.804 64.1777 122.577 63.9987 122.242 63.8164C122.132 63.7546 121.983 63.6878 121.798 63.6162C121.616 63.5446 121.409 63.46 121.178 63.3623C120.908 63.5413 120.701 63.7627 120.558 64.0264C120.414 64.2868 120.343 64.5846 120.343 64.9199C120.343 65.3594 120.475 65.7223 120.738 66.0088C121.005 66.2952 121.339 66.4385 121.739 66.4385C122.149 66.4385 122.478 66.3164 122.726 66.0723C122.973 65.8249 123.097 65.4896 123.097 65.0664ZM121.729 67.166C121.368 67.166 121.039 67.1123 120.743 67.0049C120.447 66.8975 120.195 66.7428 119.986 66.541C119.781 66.3457 119.625 66.1146 119.518 65.8477C119.413 65.5775 119.361 65.2926 119.361 64.9932C119.361 64.5993 119.465 64.238 119.674 63.9092C119.885 63.5771 120.191 63.3135 120.592 63.1182V63.0889C120.234 62.8805 119.968 62.6527 119.796 62.4053C119.623 62.1579 119.537 61.8486 119.537 61.4775C119.537 60.9307 119.744 60.4749 120.157 60.1104C120.571 59.7458 121.095 59.5635 121.729 59.5635C122.39 59.5635 122.919 59.7376 123.316 60.0859C123.717 60.431 123.917 60.8737 123.917 61.4141C123.917 61.7396 123.821 62.0618 123.629 62.3809C123.44 62.6999 123.167 62.9489 122.809 63.1279V63.1572C123.232 63.3558 123.552 63.5967 123.771 63.8799C123.989 64.1631 124.098 64.5277 124.098 64.9736C124.098 65.5954 123.871 66.1162 123.419 66.5361C122.97 66.9561 122.407 67.166 121.729 67.166ZM129.557 60.8184L126.412 67H125.372L128.702 60.584H124.942V59.7295H129.557V60.8184ZM132.013 67H130.846V65.6084H132.013V67ZM138.043 60.8184L134.898 67H133.858L137.188 60.584H133.429V59.7295H138.043V60.8184Z" fill="#303549"/>
<mask id="path-54-inside-3" fill="white">
<path fill-rule="evenodd" clip-rule="evenodd" d="M218 89.1303C232.333 85.7445 243 72.8679 243 57.5C243 54.9187 242.699 52.4076 242.13 50H319V88C319 89.1046 318.105 90 317 90H218V89.1303Z"/>
</mask>
<path fill-rule="evenodd" clip-rule="evenodd" d="M218 89.1303C232.333 85.7445 243 72.8679 243 57.5C243 54.9187 242.699 52.4076 242.13 50H319V88C319 89.1046 318.105 90 317 90H218V89.1303Z" fill="white" fill-opacity="0.5"/>
<path d="M218 89.1303L217.77 88.1571L217 88.339V89.1303H218ZM242.13 50V49H240.867L241.157 50.2299L242.13 50ZM319 50H320V49H319V50ZM218 90H217V91H218V90ZM242 57.5C242 72.3938 231.663 84.8755 217.77 88.1571L218.23 90.1036C233.004 86.6135 244 73.3421 244 57.5H242ZM241.157 50.2299C241.708 52.5627 242 54.9966 242 57.5H244C244 54.8407 243.69 52.2525 243.104 49.7701L241.157 50.2299ZM242.13 51H319V49H242.13V51ZM318 50V88H320V50H318ZM318 88C318 88.5523 317.552 89 317 89V91C318.657 91 320 89.6568 320 88H318ZM317 89H218V91H317V89ZM219 90V89.1303H217V90H219Z" fill="#D7E2F2" mask="url(#path-54-inside-3)"/>
<mask id="path-56-inside-4" fill="white">
<path fill-rule="evenodd" clip-rule="evenodd" d="M242.13 51H319V28C319 26.8954 318.105 26 317 26H218V26.8697C229.926 29.6868 239.313 39.0741 242.13 51Z"/>
</mask>
<path fill-rule="evenodd" clip-rule="evenodd" d="M242.13 51H319V28C319 26.8954 318.105 26 317 26H218V26.8697C229.926 29.6868 239.313 39.0741 242.13 51Z" fill="white"/>
<path d="M319 51V52H320V51H319ZM242.13 51L241.157 51.2299L241.339 52H242.13V51ZM218 26V25H217V26H218ZM218 26.8697H217V27.661L217.77 27.8429L218 26.8697ZM319 50H242.13V52H319V50ZM318 28V51H320V28H318ZM317 27C317.552 27 318 27.4477 318 28H320C320 26.3432 318.657 25 317 25V27ZM218 27H317V25H218V27ZM219 26.8697V26H217V26.8697H219ZM217.77 27.8429C229.327 30.5729 238.427 39.6725 241.157 51.2299L243.104 50.7701C240.199 38.4757 230.524 28.8006 218.23 25.8964L217.77 27.8429Z" fill="#D7E2F2" mask="url(#path-56-inside-4)"/>
<path d="M252.193 41V35.23H249.996V34.4565H255.26V35.23H253.063V41H252.193ZM257.985 41.1143C257.203 41.1143 256.595 40.8945 256.161 40.4551C255.73 40.0127 255.515 39.3857 255.515 38.5742C255.515 37.7744 255.725 37.1387 256.144 36.667C256.562 36.1924 257.11 35.9551 257.787 35.9551C258.092 35.9551 258.361 35.999 258.596 36.0869C258.83 36.1748 259.035 36.3125 259.211 36.5C259.387 36.6875 259.521 36.9175 259.615 37.1899C259.709 37.4595 259.756 37.7905 259.756 38.1831V38.6313H256.354C256.354 39.2026 256.498 39.6392 256.785 39.9409C257.072 40.2427 257.469 40.3936 257.976 40.3936C258.158 40.3936 258.335 40.373 258.508 40.332C258.684 40.291 258.842 40.2383 258.982 40.1738C259.132 40.1064 259.258 40.042 259.36 39.9805C259.463 39.916 259.548 39.856 259.615 39.8003H259.664V40.7012C259.567 40.7393 259.447 40.7876 259.303 40.8462C259.16 40.9019 259.031 40.9458 258.917 40.978C258.755 41.022 258.609 41.0557 258.477 41.0791C258.348 41.1025 258.184 41.1143 257.985 41.1143ZM258.952 37.9985C258.946 37.7759 258.919 37.584 258.873 37.4229C258.826 37.2617 258.758 37.1255 258.67 37.0142C258.574 36.8911 258.449 36.7974 258.297 36.7329C258.147 36.6685 257.961 36.6362 257.739 36.6362C257.519 36.6362 257.332 36.6699 257.176 36.7373C257.024 36.8018 256.885 36.897 256.759 37.0229C256.636 37.1519 256.542 37.2954 256.478 37.4536C256.413 37.6089 256.372 37.7905 256.354 37.9985H258.952ZM264.467 41H263.641V36.8032H261.417V41H260.591V36.0913H264.467V41ZM269.463 41H268.637V36.7856H266.95C266.941 37.0288 266.932 37.2632 266.923 37.4888C266.915 37.7114 266.906 37.9136 266.897 38.0952C266.879 38.5552 266.849 38.9404 266.805 39.251C266.764 39.5615 266.711 39.8105 266.646 39.998C266.582 40.1914 266.51 40.3423 266.431 40.4507C266.355 40.5591 266.269 40.6572 266.172 40.7451C266.072 40.833 265.965 40.8989 265.851 40.9429C265.737 40.9868 265.608 41.0088 265.464 41.0088C265.417 41.0088 265.357 41.0073 265.284 41.0044C265.211 41.0015 265.16 41 265.13 41V40.2793H265.174C265.195 40.2793 265.215 40.2808 265.236 40.2837C265.259 40.2866 265.286 40.2881 265.315 40.2881C265.385 40.2881 265.454 40.2778 265.521 40.2573C265.589 40.2368 265.649 40.1987 265.702 40.1431C265.848 39.9995 265.955 39.749 266.022 39.3916C266.09 39.0312 266.138 38.5288 266.167 37.8843C266.179 37.644 266.189 37.3599 266.198 37.0317C266.21 36.7036 266.22 36.3901 266.229 36.0913H269.463V41ZM274.702 38.5479C274.702 39.374 274.502 40.0127 274.104 40.4639C273.706 40.9121 273.175 41.1362 272.513 41.1362C271.831 41.1362 271.293 40.9048 270.9 40.4419C270.511 39.9761 270.316 39.3447 270.316 38.5479C270.316 37.7275 270.517 37.0903 270.918 36.6362C271.322 36.1821 271.854 35.9551 272.513 35.9551C273.175 35.9551 273.706 36.1821 274.104 36.6362C274.502 37.0874 274.702 37.7246 274.702 38.5479ZM273.849 38.5479C273.849 37.9121 273.733 37.4404 273.502 37.1328C273.271 36.8223 272.941 36.667 272.513 36.667C272.083 36.667 271.75 36.8223 271.516 37.1328C271.284 37.4404 271.168 37.9121 271.168 38.5479C271.168 39.1631 271.284 39.6304 271.516 39.9497C271.75 40.2661 272.083 40.4243 272.513 40.4243C272.938 40.4243 273.266 40.269 273.498 39.9585C273.732 39.645 273.849 39.1748 273.849 38.5479ZM275.137 39.875H275.189C275.254 39.9307 275.333 39.9893 275.427 40.0508C275.523 40.1094 275.636 40.165 275.765 40.2178C275.906 40.2764 276.041 40.3218 276.169 40.354C276.298 40.3862 276.457 40.4023 276.644 40.4023C277.066 40.4023 277.404 40.2603 277.659 39.9761C277.914 39.6919 278.061 39.2803 278.099 38.7412H275.866V38.0776H278.094C278.042 37.6118 277.888 37.2632 277.633 37.0317C277.381 36.8003 277.067 36.6846 276.692 36.6846C276.525 36.6846 276.37 36.7036 276.227 36.7417C276.083 36.7769 275.944 36.8252 275.809 36.8867C275.698 36.9395 275.598 36.9966 275.51 37.0581C275.425 37.1196 275.343 37.1826 275.264 37.2471H275.211V36.3418C275.367 36.2744 275.585 36.1968 275.866 36.1089C276.15 36.021 276.42 35.9771 276.675 35.9771C277.006 35.9771 277.309 36.0269 277.584 36.1265C277.86 36.2261 278.097 36.3784 278.296 36.5835C278.499 36.7944 278.652 37.0508 278.758 37.3525C278.866 37.6514 278.92 38.0161 278.92 38.4468C278.92 39.2671 278.709 39.916 278.288 40.3936C277.869 40.8711 277.302 41.1099 276.587 41.1099C276.32 41.1099 276.06 41.0747 275.805 41.0044C275.553 40.937 275.33 40.8623 275.137 40.7803V39.875ZM283.671 41H282.845V38.7896H280.621V41H279.795V36.0913H280.621V38.0776H282.845V36.0913H283.671V41ZM286.998 41.1143C286.215 41.1143 285.607 40.8945 285.174 40.4551C284.743 40.0127 284.528 39.3857 284.528 38.5742C284.528 37.7744 284.737 37.1387 285.156 36.667C285.575 36.1924 286.123 35.9551 286.8 35.9551C287.104 35.9551 287.374 35.999 287.608 36.0869C287.843 36.1748 288.048 36.3125 288.224 36.5C288.399 36.6875 288.534 36.9175 288.628 37.1899C288.722 37.4595 288.769 37.7905 288.769 38.1831V38.6313H285.367C285.367 39.2026 285.511 39.6392 285.798 39.9409C286.085 40.2427 286.482 40.3936 286.989 40.3936C287.17 40.3936 287.348 40.373 287.521 40.332C287.696 40.291 287.854 40.2383 287.995 40.1738C288.145 40.1064 288.271 40.042 288.373 39.9805C288.476 39.916 288.561 39.856 288.628 39.8003H288.676V40.7012C288.58 40.7393 288.459 40.7876 288.316 40.8462C288.172 40.9019 288.043 40.9458 287.929 40.978C287.768 41.022 287.622 41.0557 287.49 41.0791C287.361 41.1025 287.197 41.1143 286.998 41.1143ZM287.964 37.9985C287.958 37.7759 287.932 37.584 287.885 37.4229C287.838 37.2617 287.771 37.1255 287.683 37.0142C287.586 36.8911 287.462 36.7974 287.31 36.7329C287.16 36.6685 286.974 36.6362 286.751 36.6362C286.532 36.6362 286.344 36.6699 286.189 36.7373C286.037 36.8018 285.897 36.897 285.771 37.0229C285.648 37.1519 285.555 37.2954 285.49 37.4536C285.426 37.6089 285.385 37.7905 285.367 37.9985H287.964ZM293.721 38.416C293.721 39.2334 293.525 39.8853 293.132 40.3716C292.743 40.855 292.249 41.0967 291.651 41.0967C291.408 41.0967 291.193 41.0688 291.005 41.0132C290.818 40.9575 290.626 40.8711 290.43 40.7539V42.8105H289.604V36.0913H290.43V36.6055C290.635 36.4209 290.862 36.2671 291.111 36.144C291.363 36.0181 291.637 35.9551 291.933 35.9551C292.495 35.9551 292.933 36.1777 293.247 36.623C293.563 37.0684 293.721 37.666 293.721 38.416ZM292.869 38.5083C292.869 37.9487 292.779 37.5151 292.601 37.2075C292.422 36.897 292.132 36.7417 291.73 36.7417C291.496 36.7417 291.269 36.7944 291.049 36.8999C290.833 37.0024 290.626 37.1357 290.43 37.2998V40.0815C290.646 40.187 290.831 40.2588 290.983 40.2969C291.139 40.335 291.316 40.354 291.515 40.354C291.943 40.354 292.275 40.1973 292.513 39.8838C292.75 39.5703 292.869 39.1118 292.869 38.5083ZM297.698 36.8164H295.404V41H294.578V36.0913H297.698V36.8164ZM302.189 41H301.372V37.3394L299.061 41H298.313V36.0913H299.131V39.6948L301.416 36.0913H302.189V41ZM306.94 41H306.114V39.0532H305.296L303.842 41H302.879L304.457 38.9785C304.05 38.8584 303.751 38.6797 303.561 38.4424C303.373 38.2051 303.279 37.8872 303.279 37.4888C303.279 37.2456 303.332 37.0332 303.438 36.8516C303.546 36.667 303.691 36.5117 303.873 36.3857C304.019 36.2861 304.204 36.2129 304.426 36.166C304.649 36.1162 304.898 36.0913 305.173 36.0913H306.94V41ZM306.114 38.4028V36.7505H305.217C305.027 36.7505 304.876 36.7607 304.765 36.7812C304.656 36.8018 304.551 36.8413 304.448 36.8999C304.343 36.9644 304.262 37.0522 304.207 37.1636C304.154 37.272 304.127 37.3892 304.127 37.5151C304.127 37.6763 304.145 37.8081 304.18 37.9106C304.218 38.0103 304.286 38.1025 304.382 38.1875C304.485 38.2754 304.609 38.334 304.756 38.3633C304.905 38.3896 305.068 38.4028 305.244 38.4028H306.114Z" fill="#303549"/>
<circle cx="210" cy="58" r="34.5" fill="white" stroke="#D7E2F2"/>
<path d="M218.858 85.2621C215.997 86.1916 213.008 86.6651 210 86.6651" stroke="#F5F8FD" stroke-width="2"/>
<path d="M226.849 81.1917C224.416 82.9598 221.719 84.3338 218.858 85.2633" stroke="#F5F8FD" stroke-width="2"/>
<path d="M233.191 74.85C231.423 77.2836 229.283 79.4237 226.849 81.1918" stroke="#F5F8FD" stroke-width="2"/>
<path d="M237.263 66.8574C236.333 69.7182 234.959 72.4149 233.191 74.8485" stroke="#F5F8FD" stroke-width="2"/>
<path d="M238.666 58C238.666 61.008 238.192 63.9974 237.263 66.8582" stroke="#F5F8FD" stroke-width="2"/>
<path d="M237.263 49.1426C238.192 52.0034 238.666 54.9927 238.666 58.0008" stroke="#F5F8FD" stroke-width="2"/>
<path d="M233.191 41.1499C234.959 43.5835 236.333 46.2802 237.263 49.141" stroke="#F5F8FD" stroke-width="2"/>
<path d="M226.849 34.8083C229.283 36.5764 231.423 38.7165 233.191 41.1501" stroke="#F5F8FD" stroke-width="2"/>
<path d="M218.858 30.7379C221.719 31.6675 224.416 33.0415 226.849 34.8096" stroke="#F5F8FD" stroke-width="2"/>
<path d="M210 29.3353C213.008 29.3353 215.997 29.8087 218.858 30.7383" stroke="#F5F8FD" stroke-width="2"/>
<path d="M201.142 30.7379C204.003 29.8084 206.992 29.3349 210 29.3349" stroke="#F5F8FD" stroke-width="2"/>
<path d="M193.151 34.8083C195.584 33.0402 198.281 31.6662 201.142 30.7367" stroke="#F5F8FD" stroke-width="2"/>
<path d="M186.809 41.1499C188.577 38.7164 190.717 36.5763 193.151 34.8082" stroke="#F5F8FD" stroke-width="2"/>
<path d="M182.737 49.1426C183.667 46.2818 185.041 43.5851 186.809 41.1515" stroke="#F5F8FD" stroke-width="2"/>
<path d="M181.334 58C181.334 54.992 181.808 52.0026 182.737 49.1418" stroke="#F5F8FD" stroke-width="2"/>
<path d="M182.737 66.8574C181.808 63.9966 181.334 61.0073 181.334 57.9992" stroke="#F5F8FD" stroke-width="2"/>
<path d="M186.809 74.8501C185.041 72.4165 183.667 69.7198 182.737 66.859" stroke="#F5F8FD" stroke-width="2"/>
<path d="M193.151 81.1917C190.717 79.4236 188.577 77.2835 186.809 74.8499" stroke="#F5F8FD" stroke-width="2"/>
<path d="M201.142 85.2621C198.281 84.3325 195.584 82.9585 193.151 81.1904" stroke="#F5F8FD" stroke-width="2"/>
<path d="M210 86.6647C206.992 86.6647 204.003 86.1913 201.142 85.2617" stroke="#F5F8FD" stroke-width="2"/>
<path d="M218.858 85.2621C216.179 86.1327 213.386 86.6033 210.571 86.6594C210.491 86.661 210.411 86.6622 210.331 86.6632C210.221 86.6644 210.11 86.6651 210 86.6651" stroke="#8C99B2" stroke-width="2" stroke-linecap="round"/>
<path d="M226.849 81.1917C224.57 82.8478 222.06 84.1582 219.4 85.0814C219.324 85.1077 219.248 85.1336 219.172 85.1593C219.068 85.1946 218.963 85.2293 218.858 85.2633" stroke="#8C99B2" stroke-width="2" stroke-linecap="round"/>
<path d="M233.191 74.85C231.535 77.1295 229.552 79.1514 227.308 80.8514C227.244 80.8998 227.18 80.9479 227.116 80.9958C227.027 81.0616 226.939 81.127 226.849 81.1918" stroke="#8C99B2" stroke-width="2" stroke-linecap="round"/>
<path d="M237.263 66.8574C236.392 69.537 235.131 72.0726 233.522 74.3829C233.476 74.4487 233.43 74.5142 233.384 74.5796C233.32 74.6696 233.256 74.7592 233.191 74.8485" stroke="#8C99B2" stroke-width="2" stroke-linecap="round"/>
<path d="M238.666 58C238.666 60.8175 238.25 63.6186 237.434 66.313C237.411 66.3897 237.387 66.4664 237.363 66.5429C237.33 66.6481 237.297 66.7533 237.263 66.8582" stroke="#8C99B2" stroke-width="2" stroke-linecap="round"/>
<path d="M237.263 49.1426C238.133 51.8222 238.604 54.6146 238.66 57.4295C238.662 57.5096 238.663 57.5897 238.664 57.6699C238.665 57.7802 238.666 57.8905 238.666 58.0008" stroke="#8C99B2" stroke-width="2" stroke-linecap="round"/>
<path d="M233.191 41.1499C234.847 43.4294 236.157 45.9396 237.081 48.5994C237.107 48.6751 237.133 48.751 237.159 48.8269C237.194 48.9314 237.229 49.0361 237.263 49.141" stroke="#8C99B2" stroke-width="2" stroke-linecap="round"/>
<path d="M226.849 34.8083C229.129 36.4644 231.151 38.4469 232.851 40.6912C232.899 40.7551 232.947 40.8192 232.995 40.8835C233.061 40.972 233.126 41.0609 233.191 41.1501" stroke="#8C99B2" stroke-width="2" stroke-linecap="round"/>
<path d="M218.858 30.7379C221.538 31.6086 224.073 32.8692 226.384 34.4784C226.449 34.5242 226.515 34.5703 226.58 34.6166C226.67 34.6804 226.76 34.7448 226.849 34.8096" stroke="#8C99B2" stroke-width="2" stroke-linecap="round"/>
<path d="M210 29.3353C212.818 29.3353 215.619 29.7507 218.313 30.5671C218.39 30.5904 218.466 30.614 218.543 30.6378C218.648 30.6707 218.753 30.7042 218.858 30.7383" stroke="#8C99B2" stroke-width="2" stroke-linecap="round"/>
<path d="M201.142 30.7379C204.003 29.8084 206.992 29.3349 210 29.3349" stroke="#8C99B2" stroke-width="2"/>
<path d="M193.151 34.8083C195.43 33.1522 197.94 31.8418 200.6 30.9186C200.676 30.8923 200.752 30.8664 200.828 30.8407C200.932 30.8054 201.037 30.7707 201.142 30.7367" stroke="#8C99B2" stroke-width="2" stroke-linecap="round"/>
<path d="M186.809 41.1499C188.465 38.8705 190.448 36.8486 192.692 35.1486C192.756 35.1002 192.82 35.0521 192.884 35.0042C192.973 34.9384 193.062 34.873 193.151 34.8082" stroke="#8C99B2" stroke-width="2" stroke-linecap="round"/>
<path d="M182.737 49.1426C183.608 46.463 184.869 43.9274 186.478 41.6171C186.524 41.5513 186.57 41.4858 186.616 41.4204C186.68 41.3304 186.744 41.2408 186.809 41.1515" stroke="#8C99B2" stroke-width="2" stroke-linecap="round"/>
<path d="M181.334 58C181.334 55.1825 181.75 52.3814 182.566 49.687C182.589 49.6103 182.613 49.5336 182.637 49.4571C182.67 49.3518 182.703 49.2467 182.737 49.1418" stroke="#8C99B2" stroke-width="2" stroke-linecap="round"/>
<path d="M182.737 66.8574C181.867 64.1778 181.396 61.3854 181.34 58.5705C181.338 58.4904 181.337 58.4103 181.336 58.3301C181.335 58.2198 181.334 58.1095 181.334 57.9992" stroke="#8C99B2" stroke-width="2" stroke-linecap="round"/>
<path d="M186.809 74.8501C185.153 72.5706 183.843 70.0604 182.919 67.4006C182.893 67.3249 182.867 67.249 182.841 67.1731C182.806 67.0686 182.771 66.9639 182.737 66.859" stroke="#8C99B2" stroke-width="2" stroke-linecap="round"/>
<path d="M193.151 81.1917C190.871 79.5356 188.849 77.5531 187.149 75.3088C187.101 75.2449 187.053 75.1808 187.005 75.1165C186.939 75.0281 186.874 74.9392 186.809 74.8499" stroke="#8C99B2" stroke-width="2" stroke-linecap="round"/>
<path d="M201.142 85.2621C198.462 84.3914 195.927 83.1308 193.616 81.5216C193.551 81.4758 193.485 81.4297 193.42 81.3834C193.33 81.3196 193.24 81.2552 193.151 81.1904" stroke="#8C99B2" stroke-width="2" stroke-linecap="round"/>
<path d="M210 86.6647C207.182 86.6647 204.381 86.2493 201.687 85.4329C201.61 85.4096 201.534 85.386 201.457 85.3622C201.352 85.3293 201.247 85.2958 201.142 85.2617" stroke="#8C99B2" stroke-width="2" stroke-linecap="round"/>
<path d="M209.997 68.3516H208.142V73H207.224V68.3516H205.368V67.5459H209.997V68.3516ZM214.987 73H214.069V70.5439H211.599V73H210.681V67.5459H211.599V69.7529H214.069V67.5459H214.987V73Z" fill="#8C99B2"/>
<path opacity="0.99" d="M200.977 55.1484C200.977 54.3568 200.904 53.7135 200.758 53.2188C200.612 52.7188 200.411 52.3333 200.156 52.0625C199.927 51.8125 199.695 51.6406 199.461 51.5469C199.227 51.4531 198.969 51.4062 198.688 51.4062C198.047 51.4062 197.536 51.6354 197.156 52.0938C196.776 52.5521 196.586 53.2161 196.586 54.0859C196.586 54.5755 196.648 54.9792 196.773 55.2969C196.898 55.6146 197.102 55.888 197.383 56.1172C197.581 56.2786 197.805 56.388 198.055 56.4453C198.305 56.4974 198.573 56.5234 198.859 56.5234C199.193 56.5234 199.552 56.4661 199.938 56.3516C200.323 56.2318 200.659 56.0755 200.945 55.8828C200.951 55.8047 200.956 55.7031 200.961 55.5781C200.971 55.4479 200.977 55.3047 200.977 55.1484ZM195 54.1484C195 53.5495 195.096 53.0026 195.289 52.5078C195.487 52.013 195.755 51.5859 196.094 51.2266C196.417 50.8828 196.81 50.6146 197.273 50.4219C197.742 50.2292 198.216 50.1328 198.695 50.1328C199.232 50.1328 199.716 50.224 200.148 50.4062C200.586 50.5833 200.964 50.8411 201.281 51.1797C201.682 51.6068 201.992 52.1667 202.211 52.8594C202.435 53.5521 202.547 54.4271 202.547 55.4844C202.547 56.4479 202.438 57.362 202.219 58.2266C202.005 59.0859 201.688 59.7995 201.266 60.3672C200.818 60.9714 200.279 61.4323 199.648 61.75C199.023 62.0677 198.25 62.2266 197.328 62.2266C197.12 62.2266 196.898 62.2135 196.664 62.1875C196.43 62.1667 196.211 62.125 196.008 62.0625V60.5703H196.086C196.216 60.6432 196.419 60.7135 196.695 60.7812C196.971 60.849 197.253 60.8828 197.539 60.8828C198.56 60.8828 199.362 60.5469 199.945 59.875C200.529 59.2031 200.859 58.2422 200.938 56.9922C200.521 57.2734 200.122 57.4792 199.742 57.6094C199.367 57.7396 198.958 57.8047 198.516 57.8047C198.083 57.8047 197.69 57.7578 197.336 57.6641C196.982 57.5703 196.625 57.388 196.266 57.1172C195.849 56.7995 195.534 56.3984 195.32 55.9141C195.107 55.4245 195 54.8359 195 54.1484ZM209.711 55.1484C209.711 54.3568 209.638 53.7135 209.492 53.2188C209.346 52.7188 209.146 52.3333 208.891 52.0625C208.661 51.8125 208.43 51.6406 208.195 51.5469C207.961 51.4531 207.703 51.4062 207.422 51.4062C206.781 51.4062 206.271 51.6354 205.891 52.0938C205.51 52.5521 205.32 53.2161 205.32 54.0859C205.32 54.5755 205.383 54.9792 205.508 55.2969C205.633 55.6146 205.836 55.888 206.117 56.1172C206.315 56.2786 206.539 56.388 206.789 56.4453C207.039 56.4974 207.307 56.5234 207.594 56.5234C207.927 56.5234 208.286 56.4661 208.672 56.3516C209.057 56.2318 209.393 56.0755 209.68 55.8828C209.685 55.8047 209.69 55.7031 209.695 55.5781C209.706 55.4479 209.711 55.3047 209.711 55.1484ZM203.734 54.1484C203.734 53.5495 203.831 53.0026 204.023 52.5078C204.221 52.013 204.49 51.5859 204.828 51.2266C205.151 50.8828 205.544 50.6146 206.008 50.4219C206.477 50.2292 206.951 50.1328 207.43 50.1328C207.966 50.1328 208.451 50.224 208.883 50.4062C209.32 50.5833 209.698 50.8411 210.016 51.1797C210.417 51.6068 210.727 52.1667 210.945 52.8594C211.169 53.5521 211.281 54.4271 211.281 55.4844C211.281 56.4479 211.172 57.362 210.953 58.2266C210.74 59.0859 210.422 59.7995 210 60.3672C209.552 60.9714 209.013 61.4323 208.383 61.75C207.758 62.0677 206.984 62.2266 206.062 62.2266C205.854 62.2266 205.633 62.2135 205.398 62.1875C205.164 62.1667 204.945 62.125 204.742 62.0625V60.5703H204.82C204.951 60.6432 205.154 60.7135 205.43 60.7812C205.706 60.849 205.987 60.8828 206.273 60.8828C207.294 60.8828 208.096 60.5469 208.68 59.875C209.263 59.2031 209.594 58.2422 209.672 56.9922C209.255 57.2734 208.857 57.4792 208.477 57.6094C208.102 57.7396 207.693 57.8047 207.25 57.8047C206.818 57.8047 206.424 57.7578 206.07 57.6641C205.716 57.5703 205.359 57.388 205 57.1172C204.583 56.7995 204.268 56.3984 204.055 55.9141C203.841 55.4245 203.734 54.8359 203.734 54.1484ZM215.297 62H213.43V59.7734H215.297V62ZM224.875 56.1797C224.875 58.2682 224.57 59.8021 223.961 60.7812C223.357 61.7552 222.422 62.2422 221.156 62.2422C219.875 62.2422 218.935 61.7448 218.336 60.75C217.737 59.7552 217.438 58.237 217.438 56.1953C217.438 54.0964 217.74 52.5625 218.344 51.5938C218.953 50.6198 219.891 50.1328 221.156 50.1328C222.438 50.1328 223.378 50.6354 223.977 51.6406C224.576 52.6458 224.875 54.1589 224.875 56.1797ZM222.875 59.7266C223.026 59.3411 223.133 58.8542 223.195 58.2656C223.258 57.6771 223.289 56.9818 223.289 56.1797C223.289 55.3828 223.258 54.6901 223.195 54.1016C223.133 53.513 223.023 53.0234 222.867 52.6328C222.711 52.237 222.495 51.9375 222.219 51.7344C221.948 51.526 221.594 51.4219 221.156 51.4219C220.724 51.4219 220.367 51.526 220.086 51.7344C219.81 51.9375 219.591 52.2422 219.43 52.6484C219.273 53.0443 219.167 53.5443 219.109 54.1484C219.052 54.7526 219.023 55.4349 219.023 56.1953C219.023 57.0078 219.047 57.6875 219.094 58.2344C219.146 58.7812 219.255 59.2708 219.422 59.7031C219.573 60.1042 219.786 60.4141 220.062 60.6328C220.344 60.8464 220.708 60.9531 221.156 60.9531C221.589 60.9531 221.943 60.8516 222.219 60.6484C222.5 60.4401 222.719 60.1328 222.875 59.7266Z" fill="#303549"/>
<circle cx="210" cy="43" r="3" fill="#0089FF"/>
<path d="M258.648 73.3516H256.793V78H255.875V73.3516H254.02V72.5459H258.648V73.3516ZM263.639 78H262.721V75.5439H260.25V78H259.332V72.5459H260.25V74.7529H262.721V72.5459H263.639V78Z" fill="#8C99B2"/>
<path d="M257.648 67H254.104V66.2578H255.422V61.3848H254.104V60.7207C254.602 60.7207 254.968 60.6507 255.202 60.5107C255.44 60.3675 255.573 60.099 255.603 59.7051H256.359V66.2578H257.648V67ZM263.479 67H258.991V65.9795C259.313 65.6735 259.618 65.3805 259.904 65.1006C260.191 64.8206 260.471 64.5293 260.744 64.2266C261.298 63.6178 261.675 63.1312 261.877 62.7666C262.079 62.3988 262.18 62.0195 262.18 61.6289C262.18 61.4271 262.147 61.2497 262.082 61.0967C262.02 60.9437 261.934 60.8167 261.823 60.7158C261.709 60.6182 261.577 60.5449 261.428 60.4961C261.278 60.4473 261.114 60.4229 260.935 60.4229C260.762 60.4229 260.586 60.4456 260.407 60.4912C260.231 60.5335 260.062 60.5872 259.899 60.6523C259.763 60.7077 259.631 60.7744 259.504 60.8525C259.377 60.9307 259.274 60.9974 259.196 61.0527H259.143V60.0176C259.344 59.9167 259.624 59.819 259.982 59.7246C260.344 59.627 260.686 59.5781 261.008 59.5781C261.685 59.5781 262.215 59.7588 262.6 60.1201C262.984 60.4782 263.176 60.9648 263.176 61.5801C263.176 61.8633 263.142 62.1253 263.073 62.3662C263.008 62.6071 262.917 62.8301 262.8 63.0352C262.679 63.2467 262.535 63.4567 262.365 63.665C262.196 63.8734 262.017 64.0785 261.828 64.2803C261.522 64.6123 261.18 64.9574 260.803 65.3154C260.428 65.6735 260.129 65.9567 259.904 66.165H263.479V67ZM269.016 60.8184L265.871 67H264.831L268.161 60.584H264.401V59.7295H269.016V60.8184ZM271.472 67H270.305V65.6084H271.472V67ZM277.614 64.5H276.75V67H275.812V64.5H272.6V63.4746L275.852 59.7295H276.75V63.7188H277.614V64.5ZM275.812 63.7188V60.877L273.361 63.7188H275.812Z" fill="#303549"/>
<path d="M295.049 71.5889H291.704V78H290.737V70.7295H295.049V71.5889ZM300.132 78H298.989L297.119 75.4854H296.66V78H295.742V72.5459H296.66V74.9189C296.898 74.9157 297.1 74.8669 297.266 74.7725C297.435 74.6748 297.578 74.4876 297.695 74.2109C297.731 74.1296 297.77 74.0352 297.812 73.9277C297.858 73.8203 297.894 73.7259 297.92 73.6445C298.063 73.2441 298.262 72.9609 298.516 72.7949C298.77 72.6289 299.1 72.5459 299.507 72.5459H299.756V73.3369H299.546C299.289 73.3369 299.095 73.3906 298.965 73.498C298.838 73.6022 298.73 73.7943 298.643 74.0742C298.551 74.3574 298.444 74.5788 298.32 74.7383C298.197 74.8945 298.06 75.015 297.91 75.0996L300.132 78ZM303.77 76.6572V75.1436C303.551 75.1631 303.275 75.1908 302.939 75.2266C302.607 75.2591 302.339 75.3063 302.134 75.3682C301.89 75.443 301.688 75.5586 301.528 75.7148C301.369 75.8678 301.289 76.0827 301.289 76.3594C301.289 76.6719 301.377 76.9079 301.553 77.0674C301.729 77.2269 301.986 77.3066 302.324 77.3066C302.614 77.3066 302.876 77.2448 303.11 77.1211C303.345 76.9941 303.564 76.8395 303.77 76.6572ZM303.77 77.4189C303.695 77.4743 303.594 77.5524 303.467 77.6533C303.343 77.751 303.223 77.8291 303.105 77.8877C302.943 77.9723 302.785 78.0374 302.632 78.083C302.482 78.1286 302.271 78.1514 301.997 78.1514C301.772 78.1514 301.559 78.109 301.357 78.0244C301.156 77.9398 300.978 77.821 300.825 77.668C300.679 77.5182 300.562 77.3343 300.474 77.1162C300.386 76.8949 300.342 76.6621 300.342 76.418C300.342 76.0404 300.422 75.7197 300.581 75.4561C300.741 75.1891 300.993 74.9775 301.338 74.8213C301.644 74.6813 302.005 74.5853 302.422 74.5332C302.839 74.4779 303.288 74.4372 303.77 74.4111V74.2354C303.77 74.0205 303.737 73.848 303.672 73.7178C303.607 73.5843 303.516 73.4818 303.398 73.4102C303.281 73.3353 303.138 73.2865 302.969 73.2637C302.799 73.2376 302.625 73.2246 302.446 73.2246C302.235 73.2246 301.986 73.2572 301.699 73.3223C301.413 73.3841 301.126 73.4753 300.84 73.5957H300.786V72.6631C300.955 72.6143 301.198 72.5605 301.514 72.502C301.829 72.4434 302.142 72.4141 302.451 72.4141C302.826 72.4141 303.141 72.4434 303.398 72.502C303.656 72.5605 303.887 72.6663 304.092 72.8193C304.29 72.9691 304.438 73.1628 304.536 73.4004C304.634 73.638 304.683 73.9277 304.683 74.2695V78H303.77V77.4189ZM310.2 78H309.282V73.3174H307.407C307.397 73.5876 307.388 73.848 307.378 74.0986C307.368 74.346 307.358 74.5706 307.349 74.7725C307.329 75.2835 307.295 75.7116 307.246 76.0566C307.201 76.4017 307.142 76.6784 307.07 76.8867C306.999 77.1016 306.919 77.2692 306.831 77.3896C306.746 77.5101 306.65 77.6191 306.543 77.7168C306.432 77.8145 306.313 77.8877 306.187 77.9365C306.06 77.9854 305.916 78.0098 305.757 78.0098C305.705 78.0098 305.638 78.0081 305.557 78.0049C305.475 78.0016 305.418 78 305.386 78V77.1992H305.435C305.457 77.1992 305.48 77.2008 305.503 77.2041C305.529 77.2074 305.558 77.209 305.591 77.209C305.669 77.209 305.745 77.1976 305.82 77.1748C305.895 77.152 305.962 77.1097 306.021 77.0479C306.183 76.8883 306.302 76.61 306.377 76.2129C306.452 75.8125 306.506 75.2542 306.538 74.5381C306.551 74.2712 306.562 73.9554 306.572 73.5908C306.585 73.2262 306.597 72.8779 306.606 72.5459H310.2V78Z" fill="#8C99B2"/>
<path d="M292.96 61.4238C292.96 61.0983 292.851 60.8265 292.633 60.6084C292.415 60.3903 292.112 60.2812 291.725 60.2812C291.37 60.2812 291.078 60.3789 290.851 60.5742C290.626 60.7695 290.514 61.0332 290.514 61.3652C290.514 61.6061 290.571 61.8096 290.685 61.9756C290.802 62.1416 290.976 62.2913 291.207 62.4248C291.308 62.4801 291.461 62.5566 291.666 62.6543C291.874 62.752 292.063 62.8285 292.232 62.8838C292.516 62.6657 292.708 62.4427 292.809 62.2148C292.91 61.9837 292.96 61.7201 292.96 61.4238ZM293.097 65.0664C293.097 64.7669 293.038 64.5293 292.921 64.3535C292.804 64.1777 292.577 63.9987 292.242 63.8164C292.132 63.7546 291.983 63.6878 291.798 63.6162C291.616 63.5446 291.409 63.46 291.178 63.3623C290.908 63.5413 290.701 63.7627 290.558 64.0264C290.414 64.2868 290.343 64.5846 290.343 64.9199C290.343 65.3594 290.475 65.7223 290.738 66.0088C291.005 66.2952 291.339 66.4385 291.739 66.4385C292.149 66.4385 292.478 66.3164 292.726 66.0723C292.973 65.8249 293.097 65.4896 293.097 65.0664ZM291.729 67.166C291.368 67.166 291.039 67.1123 290.743 67.0049C290.447 66.8975 290.195 66.7428 289.986 66.541C289.781 66.3457 289.625 66.1146 289.518 65.8477C289.413 65.5775 289.361 65.2926 289.361 64.9932C289.361 64.5993 289.465 64.238 289.674 63.9092C289.885 63.5771 290.191 63.3135 290.592 63.1182V63.0889C290.234 62.8805 289.968 62.6527 289.796 62.4053C289.623 62.1579 289.537 61.8486 289.537 61.4775C289.537 60.9307 289.744 60.4749 290.157 60.1104C290.571 59.7458 291.095 59.5635 291.729 59.5635C292.39 59.5635 292.919 59.7376 293.316 60.0859C293.717 60.431 293.917 60.8737 293.917 61.4141C293.917 61.7396 293.821 62.0618 293.629 62.3809C293.44 62.6999 293.167 62.9489 292.809 63.1279V63.1572C293.232 63.3558 293.552 63.5967 293.771 63.8799C293.989 64.1631 294.098 64.5277 294.098 64.9736C294.098 65.5954 293.871 66.1162 293.419 66.5361C292.97 66.9561 292.407 67.166 291.729 67.166ZM299.557 60.8184L296.412 67H295.372L298.702 60.584H294.942V59.7295H299.557V60.8184ZM302.013 67H300.846V65.6084H302.013V67ZM308.043 60.8184L304.898 67H303.858L307.188 60.584H303.429V59.7295H308.043V60.8184Z" fill="#303549"/>
</svg>
