<svg width="324" height="117" viewBox="0 0 324 117" fill="none" xmlns="http://www.w3.org/2000/svg">
<mask id="path-1-inside-1" fill="white">
<path fill-rule="evenodd" clip-rule="evenodd" d="M52.5131 108C80.5643 108 103.304 85.8381 103.304 58.5C103.304 49.1726 100.657 40.4477 96.0552 33H288V108H52.5131ZM52 107.998C52.1708 107.999 52.3419 108 52.5131 108H52L52 107.998Z"/>
</mask>
<path fill-rule="evenodd" clip-rule="evenodd" d="M52.5131 108C80.5643 108 103.304 85.8381 103.304 58.5C103.304 49.1726 100.657 40.4477 96.0552 33H288V108H52.5131ZM52 107.998C52.1708 107.999 52.3419 108 52.5131 108H52L52 107.998Z" fill="white" fill-opacity="0.5"/>
<path d="M96.0552 33V32H94.2617L95.2045 33.5257L96.0552 33ZM288 33H289V32H288V33ZM288 108V109H289V108H288ZM52 107.998L52.0096 106.998L51 106.988V107.998H52ZM52 108H51V109H52V108ZM102.304 58.5C102.304 85.2617 80.0365 107 52.5131 107V109C81.0922 109 104.304 86.4145 104.304 58.5H102.304ZM95.2045 33.5257C99.7124 40.821 102.304 49.3648 102.304 58.5H104.304C104.304 48.9804 101.602 40.0744 96.9058 32.4743L95.2045 33.5257ZM288 32H96.0552V34H288V32ZM289 108V33H287V108H289ZM52.5131 109H288V107H52.5131V109ZM52.5131 107C52.3451 107 52.1772 106.999 52.0096 106.998L51.9904 108.997C52.1644 108.999 52.3386 109 52.5131 109V107ZM52 109H52.5131V107H52V109ZM51 107.998V108H53V107.998H51Z" fill="#D7E2F2" mask="url(#path-1-inside-1)"/>
<mask id="path-3-inside-2" fill="white">
<path fill-rule="evenodd" clip-rule="evenodd" d="M52 9.00247C52.1708 9.00083 52.3419 9 52.5131 9C71.4187 9 87.9118 19.0667 96.6568 34H288V9H52.5131H52L52 9.00247Z"/>
</mask>
<path fill-rule="evenodd" clip-rule="evenodd" d="M52 9.00247C52.1708 9.00083 52.3419 9 52.5131 9C71.4187 9 87.9118 19.0667 96.6568 34H288V9H52.5131H52L52 9.00247Z" fill="white"/>
<path d="M52 9.00247H51V10.0122L52.0096 10.0024L52 9.00247ZM96.6568 34L95.7939 34.5053L96.0836 35H96.6568V34ZM288 34V35H289V34H288ZM288 9H289V8H288V9ZM52 9V8H51V9L52 9ZM52.0096 10.0024C52.1773 10.0008 52.3451 10 52.5131 10V8C52.3386 8 52.1644 8.00084 51.9904 8.00252L52.0096 10.0024ZM52.5131 10C71.0578 10 87.2254 19.8733 95.7939 34.5053L97.5197 33.4947C88.5983 18.26 71.7796 8 52.5131 8V10ZM288 33H96.6568V35H288V33ZM287 9V34H289V9H287ZM52.5131 10H288V8H52.5131V10ZM52 10H52.5131V8H52V10ZM53 9.00247V9L51 9V9.00247H53Z" fill="#D7E2F2" mask="url(#path-3-inside-2)"/>
<circle cx="52.5" cy="58.5" r="47" fill="white" fill-opacity="0.5" stroke="#D7E2F2"/>
<path d="M287.5 9.5H317C317.828 9.5 318.5 10.1716 318.5 11V106C318.5 106.828 317.828 107.5 317 107.5H287.5V9.5Z" fill="white" fill-opacity="0.5" stroke="#D7E2F2"/>
<path d="M311.34 20.7969C311.34 21.3828 311.221 21.8177 310.984 22.1016C310.75 22.3828 310.41 22.5234 309.965 22.5234C309.512 22.5234 309.168 22.3802 308.934 22.0938C308.702 21.8073 308.586 21.3763 308.586 20.8008C308.586 20.2174 308.704 19.7839 308.941 19.5C309.178 19.2161 309.52 19.0742 309.965 19.0742C310.418 19.0742 310.76 19.2174 310.992 19.5039C311.224 19.7904 311.34 20.2214 311.34 20.7969ZM313.941 19.1836L310.895 25H310.25L313.297 19.1836H313.941ZM315.598 23.3867C315.598 23.9727 315.479 24.4076 315.242 24.6914C315.008 24.9727 314.668 25.1133 314.223 25.1133C313.77 25.1133 313.426 24.9701 313.191 24.6836C312.96 24.3971 312.844 23.9661 312.844 23.3906C312.844 22.8073 312.962 22.3737 313.199 22.0898C313.436 21.806 313.777 21.6641 314.223 21.6641C314.676 21.6641 315.018 21.8073 315.25 22.0938C315.482 22.3802 315.598 22.8112 315.598 23.3867ZM310.645 20.7969C310.645 20.401 310.598 20.1016 310.504 19.8984C310.413 19.6953 310.233 19.5938 309.965 19.5938C309.697 19.5938 309.516 19.6966 309.422 19.9023C309.328 20.1081 309.281 20.4076 309.281 20.8008C309.281 21.1914 309.326 21.4896 309.414 21.6953C309.503 21.901 309.686 22.0039 309.965 22.0039C310.233 22.0039 310.413 21.901 310.504 21.6953C310.598 21.4896 310.645 21.1901 310.645 20.7969ZM314.902 23.3867C314.902 22.9909 314.855 22.6914 314.762 22.4883C314.671 22.2852 314.491 22.1836 314.223 22.1836C313.954 22.1836 313.773 22.2865 313.68 22.4922C313.586 22.6979 313.539 22.9974 313.539 23.3906C313.539 23.7812 313.583 24.0794 313.672 24.2852C313.76 24.4909 313.944 24.5938 314.223 24.5938C314.491 24.5938 314.671 24.4909 314.762 24.2852C314.855 24.0794 314.902 23.7799 314.902 23.3867Z" fill="#8C99B2"/>
<path d="M289 36H317V105C317 105.552 316.552 106 316 106H289V36Z" fill="#0089FF" fill-opacity="0.2"/>
<rect x="289" y="82" width="28" height="17" fill="#0089FF"/>
<line x1="289" y1="49.5" x2="317" y2="49.5" stroke="#8C99B2" stroke-dasharray="1 1"/>
<line x1="289" y1="99.5" x2="317" y2="99.5" stroke="#8C99B2" stroke-dasharray="1 1"/>
<path d="M39.6557 18.9695C43.8039 17.6217 48.1383 16.9352 52.5 16.9352" stroke="#A2E2FF" stroke-opacity="0.2" stroke-width="3"/>
<path d="M28.0686 24.8737C31.5973 22.31 35.5075 20.3176 39.6557 18.9698" stroke="#A2E2FF" stroke-opacity="0.2" stroke-width="3"/>
<path d="M18.873 34.0679C21.4368 30.5392 24.5399 27.4361 28.0686 24.8724" stroke="#A2E2FF" stroke-opacity="0.2" stroke-width="3"/>
<path d="M12.9691 45.6565C14.317 41.5083 16.3093 37.5981 18.873 34.0694" stroke="#A2E2FF" stroke-opacity="0.2" stroke-width="3"/>
<path d="M10.9348 58.5C10.9348 54.1383 11.6213 49.8038 12.9691 45.6556" stroke="#A2E2FF" stroke-opacity="0.2" stroke-width="3"/>
<path d="M12.9691 71.3435C11.6213 67.1953 10.9348 62.8608 10.9348 58.4991" stroke="#A2E2FF" stroke-opacity="0.2" stroke-width="3"/>
<path d="M18.873 82.9321C16.3093 79.4034 14.317 75.4932 12.9691 71.345" stroke="#0089FF" stroke-width="3" stroke-linecap="round"/>
<path d="M28.0686 92.1263C24.5399 89.5626 21.4368 86.4594 18.8731 82.9307" stroke="#0089FF" stroke-width="3" stroke-linecap="round"/>
<path d="M39.6557 98.0305C35.5075 96.6827 31.5973 94.6903 28.0686 92.1266" stroke="#0089FF" stroke-width="3" stroke-linecap="round"/>
<path d="M52.5 100.066C48.1383 100.066 43.8038 99.3791 39.6556 98.0312" stroke="#0089FF" stroke-width="3" stroke-linecap="round"/>
<path d="M65.3444 98.0305C61.1962 99.3783 56.8617 100.065 52.5 100.065" stroke="#0089FF" stroke-width="3" stroke-linecap="round"/>
<path d="M76.9314 92.1263C73.4028 94.69 69.4926 96.6824 65.3444 98.0302" stroke="#0089FF" stroke-width="3" stroke-linecap="round"/>
<path d="M86.127 82.9321C83.5633 86.4608 80.4601 89.5639 76.9315 92.1276" stroke="#0089FF" stroke-width="3" stroke-linecap="round"/>
<path d="M92.0309 71.3435C90.683 75.4917 88.6907 79.4019 86.127 82.9306" stroke="#0089FF" stroke-width="3" stroke-linecap="round"/>
<path d="M94.0652 58.5C94.0652 62.8617 93.3787 67.1962 92.0309 71.3444" stroke="#0089FF" stroke-width="3" stroke-linecap="round"/>
<path d="M92.0309 45.6565C93.3787 49.8047 94.0652 54.1392 94.0652 58.5009" stroke="#0089FF" stroke-width="3" stroke-linecap="round"/>
<path d="M86.127 34.0679C88.6907 37.5966 90.683 41.5068 92.0309 45.655" stroke="#0089FF" stroke-width="3" stroke-linecap="round"/>
<path d="M76.9314 24.8737C80.4601 27.4374 83.5632 30.5406 86.127 34.0693" stroke="#0089FF" stroke-width="3" stroke-linecap="round"/>
<path d="M65.3444 18.9695C69.4926 20.3174 73.4028 22.3097 76.9314 24.8734" stroke="#0089FF" stroke-width="3" stroke-linecap="round"/>
<path d="M52.5 16.9344C56.8617 16.9344 61.1962 17.6209 65.3444 18.9688" stroke="#0089FF" stroke-width="3" stroke-linecap="round"/>
<rect x="112" y="58" width="3.84615" height="43" rx="1" fill="#EBF1F9"/>
<rect x="112.769" y="79" width="2.30769" height="1" rx="0.5" fill="#0089FF"/>
<rect x="112.769" y="81" width="2.30769" height="1" rx="0.5" fill="#0089FF"/>
<rect x="112.769" y="83" width="2.30769" height="1" rx="0.5" fill="#0089FF"/>
<rect x="112.769" y="85" width="2.30769" height="1" rx="0.5" fill="#0089FF"/>
<rect x="112.769" y="87" width="2.30769" height="1" rx="0.5" fill="#0089FF"/>
<rect x="112.769" y="89" width="2.30769" height="1" rx="0.5" fill="#0089FF"/>
<rect x="112.769" y="91" width="2.30769" height="1" rx="0.5" fill="#0089FF"/>
<rect x="112.769" y="93" width="2.30769" height="1" rx="0.5" fill="#0089FF"/>
<rect x="112.769" y="95" width="2.30769" height="1" rx="0.5" fill="#0089FF"/>
<rect x="112.769" y="97" width="2.30769" height="1" rx="0.5" fill="#0089FF"/>
<rect x="112.769" y="99" width="2.30769" height="1" rx="0.5" fill="#0089FF"/>
<rect x="117.385" y="58" width="3.84615" height="43" rx="1" fill="#EBF1F9"/>
<rect x="118.154" y="79" width="2.30769" height="1" rx="0.5" fill="#0089FF"/>
<rect x="118.154" y="81" width="2.30769" height="1" rx="0.5" fill="#0089FF"/>
<rect x="118.154" y="83" width="2.30769" height="1" rx="0.5" fill="#0089FF"/>
<rect x="118.154" y="85" width="2.30769" height="1" rx="0.5" fill="#0089FF"/>
<rect x="118.154" y="87" width="2.30769" height="1" rx="0.5" fill="#0089FF"/>
<rect x="118.154" y="89" width="2.30769" height="1" rx="0.5" fill="#0089FF"/>
<rect x="118.154" y="91" width="2.30769" height="1" rx="0.5" fill="#0089FF"/>
<rect x="118.154" y="93" width="2.30769" height="1" rx="0.5" fill="#0089FF"/>
<rect x="118.154" y="95" width="2.30769" height="1" rx="0.5" fill="#0089FF"/>
<rect x="118.154" y="97" width="2.30769" height="1" rx="0.5" fill="#0089FF"/>
<rect x="118.154" y="99" width="2.30769" height="1" rx="0.5" fill="#0089FF"/>
<rect x="122.769" y="58" width="3.84615" height="43" rx="1" fill="#EBF1F9"/>
<rect x="123.538" y="75" width="2.30769" height="1" rx="0.5" fill="#0089FF"/>
<rect x="123.538" y="77" width="2.30769" height="1" rx="0.5" fill="#0089FF"/>
<rect x="123.538" y="79" width="2.30769" height="1" rx="0.5" fill="#0089FF"/>
<rect x="123.538" y="81" width="2.30769" height="1" rx="0.5" fill="#0089FF"/>
<rect x="123.538" y="83" width="2.30769" height="1" rx="0.5" fill="#0089FF"/>
<rect x="123.538" y="85" width="2.30769" height="1" rx="0.5" fill="#0089FF"/>
<rect x="123.538" y="87" width="2.30769" height="1" rx="0.5" fill="#0089FF"/>
<rect x="123.538" y="89" width="2.30769" height="1" rx="0.5" fill="#0089FF"/>
<rect x="123.538" y="91" width="2.30769" height="1" rx="0.5" fill="#0089FF"/>
<rect x="123.538" y="93" width="2.30769" height="1" rx="0.5" fill="#0089FF"/>
<rect x="123.538" y="95" width="2.30769" height="1" rx="0.5" fill="#0089FF"/>
<rect x="123.538" y="97" width="2.30769" height="1" rx="0.5" fill="#0089FF"/>
<rect x="123.538" y="99" width="2.30769" height="1" rx="0.5" fill="#0089FF"/>
<rect x="128.154" y="58" width="3.84615" height="43" rx="1" fill="#EBF1F9"/>
<rect x="128.923" y="75" width="2.30769" height="1" rx="0.5" fill="#0089FF"/>
<rect x="128.923" y="77" width="2.30769" height="1" rx="0.5" fill="#0089FF"/>
<rect x="128.923" y="79" width="2.30769" height="1" rx="0.5" fill="#0089FF"/>
<rect x="128.923" y="81" width="2.30769" height="1" rx="0.5" fill="#0089FF"/>
<rect x="128.923" y="83" width="2.30769" height="1" rx="0.5" fill="#0089FF"/>
<rect x="128.923" y="85" width="2.30769" height="1" rx="0.5" fill="#0089FF"/>
<rect x="128.923" y="87" width="2.30769" height="1" rx="0.5" fill="#0089FF"/>
<rect x="128.923" y="89" width="2.30769" height="1" rx="0.5" fill="#0089FF"/>
<rect x="128.923" y="91" width="2.30769" height="1" rx="0.5" fill="#0089FF"/>
<rect x="128.923" y="93" width="2.30769" height="1" rx="0.5" fill="#0089FF"/>
<rect x="128.923" y="95" width="2.30769" height="1" rx="0.5" fill="#0089FF"/>
<rect x="128.923" y="97" width="2.30769" height="1" rx="0.5" fill="#0089FF"/>
<rect x="128.923" y="99" width="2.30769" height="1" rx="0.5" fill="#0089FF"/>
<rect x="133.538" y="58" width="3.84615" height="43" rx="1" fill="#EBF1F9"/>
<rect x="134.308" y="69" width="2.30769" height="1" rx="0.5" fill="#F7931E"/>
<rect x="134.308" y="71" width="2.30769" height="1" rx="0.5" fill="#F7931E"/>
<rect x="134.308" y="73" width="2.30769" height="1" rx="0.5" fill="#F7931E"/>
<rect x="134.308" y="75" width="2.30769" height="1" rx="0.5" fill="#F7931E"/>
<rect x="134.308" y="77" width="2.30769" height="1" rx="0.5" fill="#F7931E"/>
<rect x="134.308" y="79" width="2.30769" height="1" rx="0.5" fill="#8C99B2"/>
<rect x="134.308" y="81" width="2.30769" height="1" rx="0.5" fill="#8C99B2"/>
<rect x="134.308" y="83" width="2.30769" height="1" rx="0.5" fill="#8C99B2"/>
<rect x="134.308" y="85" width="2.30769" height="1" rx="0.5" fill="#8C99B2"/>
<rect x="134.308" y="87" width="2.30769" height="1" rx="0.5" fill="#8C99B2"/>
<rect x="134.308" y="89" width="2.30769" height="1" rx="0.5" fill="#8C99B2"/>
<rect x="134.308" y="91" width="2.30769" height="1" rx="0.5" fill="#8C99B2"/>
<rect x="134.308" y="93" width="2.30769" height="1" rx="0.5" fill="#8C99B2"/>
<rect x="134.308" y="95" width="2.30769" height="1" rx="0.5" fill="#8C99B2"/>
<rect x="134.308" y="97" width="2.30769" height="1" rx="0.5" fill="#8C99B2"/>
<rect x="134.308" y="99" width="2.30769" height="1" rx="0.5" fill="#8C99B2"/>
<rect x="138.923" y="58" width="3.84615" height="43" rx="1" fill="#EBF1F9"/>
<rect x="139.692" y="85" width="2.30769" height="1" rx="0.5" fill="#0089FF"/>
<rect x="139.692" y="87" width="2.30769" height="1" rx="0.5" fill="#0089FF"/>
<rect x="139.692" y="89" width="2.30769" height="1" rx="0.5" fill="#0089FF"/>
<rect x="139.692" y="91" width="2.30769" height="1" rx="0.5" fill="#0089FF"/>
<rect x="139.692" y="93" width="2.30769" height="1" rx="0.5" fill="#0089FF"/>
<rect x="139.692" y="95" width="2.30769" height="1" rx="0.5" fill="#0089FF"/>
<rect x="139.692" y="97" width="2.30769" height="1" rx="0.5" fill="#0089FF"/>
<rect x="139.692" y="99" width="2.30769" height="1" rx="0.5" fill="#0089FF"/>
<rect x="144.308" y="58" width="3.84615" height="43" rx="1" fill="#EBF1F9"/>
<rect x="145.077" y="79" width="2.30769" height="1" rx="0.5" fill="#0089FF"/>
<rect x="145.077" y="81" width="2.30769" height="1" rx="0.5" fill="#0089FF"/>
<rect x="145.077" y="83" width="2.30769" height="1" rx="0.5" fill="#0089FF"/>
<rect x="145.077" y="85" width="2.30769" height="1" rx="0.5" fill="#0089FF"/>
<rect x="145.077" y="87" width="2.30769" height="1" rx="0.5" fill="#0089FF"/>
<rect x="145.077" y="89" width="2.30769" height="1" rx="0.5" fill="#0089FF"/>
<rect x="145.077" y="91" width="2.30769" height="1" rx="0.5" fill="#0089FF"/>
<rect x="145.077" y="93" width="2.30769" height="1" rx="0.5" fill="#0089FF"/>
<rect x="145.077" y="95" width="2.30769" height="1" rx="0.5" fill="#0089FF"/>
<rect x="145.077" y="97" width="2.30769" height="1" rx="0.5" fill="#0089FF"/>
<rect x="145.077" y="99" width="2.30769" height="1" rx="0.5" fill="#0089FF"/>
<rect x="149.692" y="58" width="3.84615" height="43" rx="1" fill="#EBF1F9"/>
<rect x="150.462" y="79" width="2.30769" height="1" rx="0.5" fill="#0089FF"/>
<rect x="150.462" y="81" width="2.30769" height="1" rx="0.5" fill="#0089FF"/>
<rect x="150.462" y="83" width="2.30769" height="1" rx="0.5" fill="#0089FF"/>
<rect x="150.462" y="85" width="2.30769" height="1" rx="0.5" fill="#0089FF"/>
<rect x="150.462" y="87" width="2.30769" height="1" rx="0.5" fill="#0089FF"/>
<rect x="150.462" y="89" width="2.30769" height="1" rx="0.5" fill="#0089FF"/>
<rect x="150.462" y="91" width="2.30769" height="1" rx="0.5" fill="#0089FF"/>
<rect x="150.462" y="93" width="2.30769" height="1" rx="0.5" fill="#0089FF"/>
<rect x="150.462" y="95" width="2.30769" height="1" rx="0.5" fill="#0089FF"/>
<rect x="150.462" y="97" width="2.30769" height="1" rx="0.5" fill="#0089FF"/>
<rect x="150.462" y="99" width="2.30769" height="1" rx="0.5" fill="#0089FF"/>
<rect x="155.077" y="58" width="3.84615" height="43" rx="1" fill="#EBF1F9"/>
<rect x="155.846" y="71" width="2.30769" height="1" rx="0.5" fill="#0089FF"/>
<rect x="155.846" y="73" width="2.30769" height="1" rx="0.5" fill="#0089FF"/>
<rect x="155.846" y="75" width="2.30769" height="1" rx="0.5" fill="#0089FF"/>
<rect x="155.846" y="77" width="2.30769" height="1" rx="0.5" fill="#0089FF"/>
<rect x="155.846" y="79" width="2.30769" height="1" rx="0.5" fill="#0089FF"/>
<rect x="155.846" y="81" width="2.30769" height="1" rx="0.5" fill="#0089FF"/>
<rect x="155.846" y="83" width="2.30769" height="1" rx="0.5" fill="#0089FF"/>
<rect x="155.846" y="85" width="2.30769" height="1" rx="0.5" fill="#0089FF"/>
<rect x="155.846" y="87" width="2.30769" height="1" rx="0.5" fill="#0089FF"/>
<rect x="155.846" y="89" width="2.30769" height="1" rx="0.5" fill="#0089FF"/>
<rect x="155.846" y="91" width="2.30769" height="1" rx="0.5" fill="#0089FF"/>
<rect x="155.846" y="93" width="2.30769" height="1" rx="0.5" fill="#0089FF"/>
<rect x="155.846" y="95" width="2.30769" height="1" rx="0.5" fill="#0089FF"/>
<rect x="155.846" y="97" width="2.30769" height="1" rx="0.5" fill="#0089FF"/>
<rect x="155.846" y="99" width="2.30769" height="1" rx="0.5" fill="#0089FF"/>
<rect x="160.462" y="58" width="3.84615" height="43" rx="1" fill="#EBF1F9"/>
<rect x="161.231" y="65" width="2.30769" height="1" rx="0.5" fill="#FF1D25"/>
<rect x="161.231" y="67" width="2.30769" height="1" rx="0.5" fill="#FF1D25"/>
<rect x="161.231" y="69" width="2.30769" height="1" rx="0.5" fill="#FF1D25"/>
<rect x="161.231" y="71" width="2.30769" height="1" rx="0.5" fill="#FF1D25"/>
<rect x="161.231" y="73" width="2.30769" height="1" rx="0.5" fill="#FF1D25"/>
<rect x="161.231" y="75" width="2.30769" height="1" rx="0.5" fill="#F7931E"/>
<rect x="161.231" y="77" width="2.30769" height="1" rx="0.5" fill="#F7931E"/>
<rect x="161.231" y="79" width="2.30769" height="1" rx="0.5" fill="#F7931E"/>
<rect x="161.231" y="81" width="2.30769" height="1" rx="0.5" fill="#F7931E"/>
<rect x="161.231" y="83" width="2.30769" height="1" rx="0.5" fill="#F7931E"/>
<rect x="161.231" y="85" width="2.30769" height="1" rx="0.5" fill="#F7931E"/>
<rect x="161.231" y="87" width="2.30769" height="1" rx="0.5" fill="#F7931E"/>
<rect x="161.231" y="89" width="2.30769" height="1" rx="0.5" fill="#F7931E"/>
<rect x="161.231" y="91" width="2.30769" height="1" rx="0.5" fill="#F7931E"/>
<rect x="161.231" y="93" width="2.30769" height="1" rx="0.5" fill="#F7931E"/>
<rect x="161.231" y="95" width="2.30769" height="1" rx="0.5" fill="#F7931E"/>
<rect x="161.231" y="97" width="2.30769" height="1" rx="0.5" fill="#F7931E"/>
<rect x="161.231" y="99" width="2.30769" height="1" rx="0.5" fill="#F7931E"/>
<rect x="165.846" y="58" width="3.84615" height="43" rx="1" fill="#EBF1F9"/>
<rect x="166.615" y="77" width="2.30769" height="1" rx="0.5" fill="#0089FF"/>
<rect x="166.615" y="79" width="2.30769" height="1" rx="0.5" fill="#0089FF"/>
<rect x="166.615" y="81" width="2.30769" height="1" rx="0.5" fill="#0089FF"/>
<rect x="166.615" y="83" width="2.30769" height="1" rx="0.5" fill="#0089FF"/>
<rect x="166.615" y="85" width="2.30769" height="1" rx="0.5" fill="#0089FF"/>
<rect x="166.615" y="87" width="2.30769" height="1" rx="0.5" fill="#0089FF"/>
<rect x="166.615" y="89" width="2.30769" height="1" rx="0.5" fill="#0089FF"/>
<rect x="166.615" y="91" width="2.30769" height="1" rx="0.5" fill="#0089FF"/>
<rect x="166.615" y="93" width="2.30769" height="1" rx="0.5" fill="#0089FF"/>
<rect x="166.615" y="95" width="2.30769" height="1" rx="0.5" fill="#0089FF"/>
<rect x="166.615" y="97" width="2.30769" height="1" rx="0.5" fill="#0089FF"/>
<rect x="166.615" y="99" width="2.30769" height="1" rx="0.5" fill="#0089FF"/>
<rect x="171.231" y="58" width="3.84615" height="43" rx="1" fill="#EBF1F9"/>
<rect x="172" y="71" width="2.30769" height="1" rx="0.5" fill="#0089FF"/>
<rect x="172" y="73" width="2.30769" height="1" rx="0.5" fill="#0089FF"/>
<rect x="172" y="75" width="2.30769" height="1" rx="0.5" fill="#0089FF"/>
<rect x="172" y="77" width="2.30769" height="1" rx="0.5" fill="#0089FF"/>
<rect x="172" y="79" width="2.30769" height="1" rx="0.5" fill="#0089FF"/>
<rect x="172" y="81" width="2.30769" height="1" rx="0.5" fill="#0089FF"/>
<rect x="172" y="83" width="2.30769" height="1" rx="0.5" fill="#0089FF"/>
<rect x="172" y="85" width="2.30769" height="1" rx="0.5" fill="#0089FF"/>
<rect x="172" y="87" width="2.30769" height="1" rx="0.5" fill="#0089FF"/>
<rect x="172" y="89" width="2.30769" height="1" rx="0.5" fill="#0089FF"/>
<rect x="172" y="91" width="2.30769" height="1" rx="0.5" fill="#0089FF"/>
<rect x="172" y="93" width="2.30769" height="1" rx="0.5" fill="#0089FF"/>
<rect x="172" y="95" width="2.30769" height="1" rx="0.5" fill="#0089FF"/>
<rect x="172" y="97" width="2.30769" height="1" rx="0.5" fill="#0089FF"/>
<rect x="172" y="99" width="2.30769" height="1" rx="0.5" fill="#0089FF"/>
<rect x="176.615" y="58" width="3.84615" height="43" rx="1" fill="#EBF1F9"/>
<rect x="177.385" y="71" width="2.30769" height="1" rx="0.5" fill="#0089FF"/>
<rect x="177.385" y="73" width="2.30769" height="1" rx="0.5" fill="#0089FF"/>
<rect x="177.385" y="75" width="2.30769" height="1" rx="0.5" fill="#0089FF"/>
<rect x="177.385" y="77" width="2.30769" height="1" rx="0.5" fill="#0089FF"/>
<rect x="177.385" y="79" width="2.30769" height="1" rx="0.5" fill="#0089FF"/>
<rect x="177.385" y="81" width="2.30769" height="1" rx="0.5" fill="#0089FF"/>
<rect x="177.385" y="83" width="2.30769" height="1" rx="0.5" fill="#0089FF"/>
<rect x="177.385" y="85" width="2.30769" height="1" rx="0.5" fill="#0089FF"/>
<rect x="177.385" y="87" width="2.30769" height="1" rx="0.5" fill="#0089FF"/>
<rect x="177.385" y="89" width="2.30769" height="1" rx="0.5" fill="#0089FF"/>
<rect x="177.385" y="91" width="2.30769" height="1" rx="0.5" fill="#0089FF"/>
<rect x="177.385" y="93" width="2.30769" height="1" rx="0.5" fill="#0089FF"/>
<rect x="177.385" y="95" width="2.30769" height="1" rx="0.5" fill="#0089FF"/>
<rect x="177.385" y="97" width="2.30769" height="1" rx="0.5" fill="#0089FF"/>
<rect x="177.385" y="99" width="2.30769" height="1" rx="0.5" fill="#0089FF"/>
<rect x="182" y="58" width="3.84615" height="43" rx="1" fill="#EBF1F9"/>
<rect x="182.769" y="79" width="2.30769" height="1" rx="0.5" fill="#0089FF"/>
<rect x="182.769" y="81" width="2.30769" height="1" rx="0.5" fill="#0089FF"/>
<rect x="182.769" y="83" width="2.30769" height="1" rx="0.5" fill="#0089FF"/>
<rect x="182.769" y="85" width="2.30769" height="1" rx="0.5" fill="#0089FF"/>
<rect x="182.769" y="87" width="2.30769" height="1" rx="0.5" fill="#0089FF"/>
<rect x="182.769" y="89" width="2.30769" height="1" rx="0.5" fill="#0089FF"/>
<rect x="182.769" y="91" width="2.30769" height="1" rx="0.5" fill="#0089FF"/>
<rect x="182.769" y="93" width="2.30769" height="1" rx="0.5" fill="#0089FF"/>
<rect x="182.769" y="95" width="2.30769" height="1" rx="0.5" fill="#0089FF"/>
<rect x="182.769" y="97" width="2.30769" height="1" rx="0.5" fill="#0089FF"/>
<rect x="182.769" y="99" width="2.30769" height="1" rx="0.5" fill="#0089FF"/>
<rect x="187.385" y="58" width="3.84616" height="43" rx="1" fill="#EBF1F9"/>
<rect x="188.154" y="79" width="2.30769" height="1" rx="0.5" fill="#0089FF"/>
<rect x="188.154" y="81" width="2.30769" height="1" rx="0.5" fill="#0089FF"/>
<rect x="188.154" y="83" width="2.30769" height="1" rx="0.5" fill="#0089FF"/>
<rect x="188.154" y="85" width="2.30769" height="1" rx="0.5" fill="#0089FF"/>
<rect x="188.154" y="87" width="2.30769" height="1" rx="0.5" fill="#0089FF"/>
<rect x="188.154" y="89" width="2.30769" height="1" rx="0.5" fill="#0089FF"/>
<rect x="188.154" y="91" width="2.30769" height="1" rx="0.5" fill="#0089FF"/>
<rect x="188.154" y="93" width="2.30769" height="1" rx="0.5" fill="#0089FF"/>
<rect x="188.154" y="95" width="2.30769" height="1" rx="0.5" fill="#0089FF"/>
<rect x="188.154" y="97" width="2.30769" height="1" rx="0.5" fill="#0089FF"/>
<rect x="188.154" y="99" width="2.30769" height="1" rx="0.5" fill="#0089FF"/>
<rect x="192.769" y="58" width="3.84614" height="43" rx="1" fill="#EBF1F9"/>
<rect x="193.538" y="73" width="2.30768" height="1" rx="0.5" fill="#0089FF"/>
<rect x="193.538" y="75" width="2.30768" height="1" rx="0.5" fill="#0089FF"/>
<rect x="193.538" y="77" width="2.30768" height="1" rx="0.5" fill="#0089FF"/>
<rect x="193.538" y="79" width="2.30768" height="1" rx="0.5" fill="#0089FF"/>
<rect x="193.538" y="81" width="2.30768" height="1" rx="0.5" fill="#0089FF"/>
<rect x="193.538" y="83" width="2.30768" height="1" rx="0.5" fill="#0089FF"/>
<rect x="193.538" y="85" width="2.30768" height="1" rx="0.5" fill="#0089FF"/>
<rect x="193.538" y="87" width="2.30768" height="1" rx="0.5" fill="#0089FF"/>
<rect x="193.538" y="89" width="2.30768" height="1" rx="0.5" fill="#0089FF"/>
<rect x="193.538" y="91" width="2.30768" height="1" rx="0.5" fill="#0089FF"/>
<rect x="193.538" y="93" width="2.30768" height="1" rx="0.5" fill="#0089FF"/>
<rect x="193.538" y="95" width="2.30768" height="1" rx="0.5" fill="#0089FF"/>
<rect x="193.538" y="97" width="2.30768" height="1" rx="0.5" fill="#0089FF"/>
<rect x="193.538" y="99" width="2.30768" height="1" rx="0.5" fill="#0089FF"/>
<rect x="198.154" y="58" width="3.84616" height="43" rx="1" fill="#EBF1F9"/>
<rect x="198.923" y="73" width="2.3077" height="1" rx="0.5" fill="#0089FF"/>
<rect x="198.923" y="75" width="2.3077" height="1" rx="0.5" fill="#0089FF"/>
<rect x="198.923" y="77" width="2.3077" height="1" rx="0.5" fill="#0089FF"/>
<rect x="198.923" y="79" width="2.3077" height="1" rx="0.5" fill="#0089FF"/>
<rect x="198.923" y="81" width="2.3077" height="1" rx="0.5" fill="#0089FF"/>
<rect x="198.923" y="83" width="2.3077" height="1" rx="0.5" fill="#0089FF"/>
<rect x="198.923" y="85" width="2.3077" height="1" rx="0.5" fill="#0089FF"/>
<rect x="198.923" y="87" width="2.3077" height="1" rx="0.5" fill="#0089FF"/>
<rect x="198.923" y="89" width="2.3077" height="1" rx="0.5" fill="#0089FF"/>
<rect x="198.923" y="91" width="2.3077" height="1" rx="0.5" fill="#0089FF"/>
<rect x="198.923" y="93" width="2.3077" height="1" rx="0.5" fill="#0089FF"/>
<rect x="198.923" y="95" width="2.3077" height="1" rx="0.5" fill="#0089FF"/>
<rect x="198.923" y="97" width="2.3077" height="1" rx="0.5" fill="#0089FF"/>
<rect x="198.923" y="99" width="2.3077" height="1" rx="0.5" fill="#0089FF"/>
<rect x="203.538" y="58" width="3.84615" height="43" rx="1" fill="#A2E2FF" fill-opacity="0.2"/>
<rect x="204.308" y="79" width="2.30769" height="1" rx="0.5" fill="#0089FF"/>
<rect x="204.308" y="81" width="2.30769" height="1" rx="0.5" fill="#0089FF"/>
<rect x="204.308" y="83" width="2.30769" height="1" rx="0.5" fill="#0089FF"/>
<rect x="204.308" y="85" width="2.30769" height="1" rx="0.5" fill="#0089FF"/>
<rect x="204.308" y="87" width="2.30769" height="1" rx="0.5" fill="#0089FF"/>
<rect x="204.308" y="89" width="2.30769" height="1" rx="0.5" fill="#0089FF"/>
<rect x="204.308" y="91" width="2.30769" height="1" rx="0.5" fill="#0089FF"/>
<rect x="204.308" y="93" width="2.30769" height="1" rx="0.5" fill="#0089FF"/>
<rect x="204.308" y="95" width="2.30769" height="1" rx="0.5" fill="#0089FF"/>
<rect x="204.308" y="97" width="2.30769" height="1" rx="0.5" fill="#0089FF"/>
<rect x="204.308" y="99" width="2.30769" height="1" rx="0.5" fill="#0089FF"/>
<rect x="208.923" y="58" width="3.84616" height="43" rx="1" fill="#EBF1F9"/>
<rect x="214.308" y="58" width="3.84615" height="43" rx="1" fill="#EBF1F9"/>
<rect x="219.692" y="58" width="3.84616" height="43" rx="1" fill="#EBF1F9"/>
<rect x="225.077" y="58" width="3.84615" height="43" rx="1" fill="#EBF1F9"/>
<rect x="230.462" y="58" width="3.84614" height="43" rx="1" fill="#EBF1F9"/>
<rect x="235.846" y="58" width="3.84616" height="43" rx="1" fill="#EBF1F9"/>
<rect x="241.231" y="58" width="3.84614" height="43" rx="1" fill="#EBF1F9"/>
<rect x="246.615" y="58" width="3.84615" height="43" rx="1" fill="#EBF1F9"/>
<rect x="252" y="58" width="3.84615" height="43" rx="1" fill="#EBF1F9"/>
<rect x="257.385" y="58" width="3.84615" height="43" rx="1" fill="#EBF1F9"/>
<rect x="262.769" y="58" width="3.84616" height="43" rx="1" fill="#EBF1F9"/>
<rect x="268.154" y="58" width="3.84613" height="43" rx="1" fill="#EBF1F9"/>
<path d="M119.964 23.8486C119.964 24.3408 119.868 24.7874 119.677 25.1885C119.485 25.5895 119.228 25.9154 118.904 26.166C118.521 26.4668 118.111 26.681 117.674 26.8086C117.236 26.9362 116.671 27 115.979 27H113.032V16.8213H119.232V18.0244H114.386V20.8135H116.02C116.712 20.8135 117.277 20.8545 117.715 20.9365C118.152 21.014 118.565 21.2031 118.952 21.5039C119.299 21.7728 119.554 22.1055 119.718 22.502C119.882 22.8984 119.964 23.3473 119.964 23.8486ZM118.549 23.876C118.549 23.5342 118.492 23.2334 118.378 22.9736C118.269 22.7139 118.093 22.5042 117.852 22.3447C117.601 22.1761 117.312 22.0736 116.983 22.0371C116.655 22.0007 116.193 21.9824 115.596 21.9824H114.386V25.8447H115.562C116.168 25.8447 116.632 25.8151 116.956 25.7559C117.284 25.6966 117.571 25.5827 117.817 25.4141C118.073 25.2363 118.257 25.029 118.371 24.792C118.49 24.5505 118.549 24.2451 118.549 23.876ZM128.816 27H127.094L123.498 22.3379H122.644V27H121.29V16.8213H122.644V21.4082C123.177 21.39 123.598 21.2555 123.908 21.0049C124.223 20.7542 124.478 20.3942 124.674 19.9248C124.756 19.7197 124.829 19.526 124.893 19.3438C124.961 19.1569 125.016 18.9997 125.057 18.8721C125.33 18.0928 125.679 17.5573 126.103 17.2656C126.526 16.9694 127.114 16.8213 127.866 16.8213H128.283V18.0312H127.941C127.385 18.0312 126.996 18.1406 126.772 18.3594C126.549 18.5736 126.344 18.9814 126.157 19.583C125.97 20.1846 125.761 20.6266 125.528 20.9092C125.296 21.1872 125.016 21.4333 124.688 21.6475L128.816 27ZM138.448 27H137.095V18.2295L134.442 24.1973H133.622L130.99 18.2295V27H129.726V16.8213H131.571L134.114 22.4883L136.568 16.8213H138.448V27Z" fill="#303549"/>
<path d="M118.016 49H117.049V45.4404H113.704V49H112.737V41.7295H113.704V44.5811H117.049V41.7295H118.016V49ZM122.469 47.6572V46.1436C122.251 46.1631 121.974 46.1908 121.639 46.2266C121.307 46.2591 121.038 46.3063 120.833 46.3682C120.589 46.443 120.387 46.5586 120.228 46.7148C120.068 46.8678 119.988 47.0827 119.988 47.3594C119.988 47.6719 120.076 47.9079 120.252 48.0674C120.428 48.2269 120.685 48.3066 121.023 48.3066C121.313 48.3066 121.575 48.2448 121.81 48.1211C122.044 47.9941 122.264 47.8395 122.469 47.6572ZM122.469 48.4189C122.394 48.4743 122.293 48.5524 122.166 48.6533C122.042 48.751 121.922 48.8291 121.805 48.8877C121.642 48.9723 121.484 49.0374 121.331 49.083C121.181 49.1286 120.97 49.1514 120.696 49.1514C120.472 49.1514 120.258 49.109 120.057 49.0244C119.855 48.9398 119.677 48.821 119.524 48.668C119.378 48.5182 119.261 48.3343 119.173 48.1162C119.085 47.8949 119.041 47.6621 119.041 47.418C119.041 47.0404 119.121 46.7197 119.28 46.4561C119.44 46.1891 119.692 45.9775 120.037 45.8213C120.343 45.6813 120.704 45.5853 121.121 45.5332C121.538 45.4779 121.987 45.4372 122.469 45.4111V45.2354C122.469 45.0205 122.436 44.848 122.371 44.7178C122.306 44.5843 122.215 44.4818 122.098 44.4102C121.98 44.3353 121.837 44.2865 121.668 44.2637C121.499 44.2376 121.325 44.2246 121.146 44.2246C120.934 44.2246 120.685 44.2572 120.398 44.3223C120.112 44.3841 119.826 44.4753 119.539 44.5957H119.485V43.6631C119.655 43.6143 119.897 43.5605 120.213 43.502C120.529 43.4434 120.841 43.4141 121.15 43.4141C121.525 43.4141 121.84 43.4434 122.098 43.502C122.355 43.5605 122.586 43.6663 122.791 43.8193C122.99 43.9691 123.138 44.1628 123.235 44.4004C123.333 44.638 123.382 44.9277 123.382 45.2695V49H122.469V48.4189ZM129.065 49H127.923L126.053 46.4854H125.594V49H124.676V43.5459H125.594V45.9189C125.831 45.9157 126.033 45.8669 126.199 45.7725C126.368 45.6748 126.512 45.4876 126.629 45.2109C126.665 45.1296 126.704 45.0352 126.746 44.9277C126.792 44.8203 126.827 44.7259 126.854 44.6445C126.997 44.2441 127.195 43.9609 127.449 43.7949C127.703 43.6289 128.034 43.5459 128.44 43.5459H128.689V44.3369H128.479C128.222 44.3369 128.029 44.3906 127.898 44.498C127.771 44.6022 127.664 44.7943 127.576 45.0742C127.485 45.3574 127.378 45.5788 127.254 45.7383C127.13 45.8945 126.993 46.015 126.844 46.0996L129.065 49ZM134.144 46.2754C134.144 47.1934 133.922 47.903 133.479 48.4043C133.037 48.9023 132.448 49.1514 131.712 49.1514C130.953 49.1514 130.356 48.8942 129.92 48.3799C129.487 47.8623 129.271 47.1608 129.271 46.2754C129.271 45.3639 129.493 44.6559 129.939 44.1514C130.389 43.6468 130.979 43.3945 131.712 43.3945C132.448 43.3945 133.037 43.6468 133.479 44.1514C133.922 44.6527 134.144 45.3607 134.144 46.2754ZM133.196 46.2754C133.196 45.569 133.068 45.0449 132.811 44.7031C132.553 44.3581 132.187 44.1855 131.712 44.1855C131.233 44.1855 130.864 44.3581 130.604 44.7031C130.346 45.0449 130.218 45.569 130.218 46.2754C130.218 46.959 130.346 47.4782 130.604 47.833C130.864 48.1846 131.233 48.3604 131.712 48.3604C132.184 48.3604 132.549 48.1878 132.806 47.8428C133.066 47.4945 133.196 46.972 133.196 46.2754ZM139.393 49H138.475V44.3369H136.004V49H135.086V43.5459H139.393V49ZM145.027 49H144.119V44.9326L141.551 49H140.721V43.5459H141.629V47.5498L144.168 43.5459H145.027V49ZM150.34 44.3516H148.484V49H147.566V44.3516H145.711V43.5459H150.34V44.3516ZM153.392 49.127C152.522 49.127 151.847 48.8828 151.365 48.3945C150.887 47.903 150.647 47.2064 150.647 46.3047C150.647 45.416 150.88 44.7096 151.346 44.1855C151.811 43.6582 152.42 43.3945 153.172 43.3945C153.51 43.3945 153.81 43.4434 154.07 43.541C154.331 43.6387 154.559 43.7917 154.754 44C154.949 44.2083 155.099 44.4639 155.203 44.7666C155.307 45.0661 155.359 45.4339 155.359 45.8701V46.3682H151.58C151.58 47.0029 151.74 47.488 152.059 47.8232C152.378 48.1585 152.819 48.3262 153.382 48.3262C153.584 48.3262 153.781 48.3034 153.973 48.2578C154.168 48.2122 154.344 48.1536 154.5 48.082C154.666 48.0072 154.806 47.9355 154.92 47.8672C155.034 47.7956 155.128 47.7288 155.203 47.667H155.257V48.668C155.149 48.7103 155.016 48.764 154.856 48.8291C154.697 48.891 154.554 48.9398 154.427 48.9756C154.248 49.0244 154.085 49.0618 153.938 49.0879C153.795 49.1139 153.613 49.127 153.392 49.127ZM154.466 45.665C154.459 45.4176 154.43 45.2044 154.378 45.0254C154.326 44.8464 154.251 44.695 154.153 44.5713C154.046 44.4346 153.908 44.3304 153.738 44.2588C153.572 44.1872 153.366 44.1514 153.118 44.1514C152.874 44.1514 152.666 44.1888 152.493 44.2637C152.324 44.3353 152.169 44.4411 152.029 44.5811C151.893 44.7243 151.788 44.8838 151.717 45.0596C151.645 45.2321 151.6 45.4339 151.58 45.665H154.466ZM160.511 49H159.593V44.3174H157.718C157.708 44.5876 157.698 44.848 157.688 45.0986C157.679 45.346 157.669 45.5706 157.659 45.7725C157.64 46.2835 157.605 46.7116 157.557 47.0566C157.511 47.4017 157.452 47.6784 157.381 47.8867C157.309 48.1016 157.229 48.2692 157.142 48.3896C157.057 48.5101 156.961 48.6191 156.854 48.7168C156.743 48.8145 156.624 48.8877 156.497 48.9365C156.37 48.9854 156.227 49.0098 156.067 49.0098C156.015 49.0098 155.949 49.0081 155.867 49.0049C155.786 49.0016 155.729 49 155.696 49V48.1992H155.745C155.768 48.1992 155.791 48.2008 155.813 48.2041C155.84 48.2074 155.869 48.209 155.901 48.209C155.979 48.209 156.056 48.1976 156.131 48.1748C156.206 48.152 156.272 48.1097 156.331 48.0479C156.494 47.8883 156.613 47.61 156.688 47.2129C156.762 46.8125 156.816 46.2542 156.849 45.5381C156.862 45.2712 156.873 44.9554 156.883 44.5908C156.896 44.2262 156.907 43.8779 156.917 43.5459H160.511V49ZM165.975 47.3105C165.975 47.5742 165.921 47.8135 165.813 48.0283C165.709 48.2432 165.566 48.4173 165.384 48.5508C165.169 48.7135 164.939 48.8291 164.695 48.8975C164.451 48.9658 164.137 49 163.753 49H161.844V43.5459H162.762V45.6699H163.777C164.188 45.6699 164.505 45.6911 164.729 45.7334C164.957 45.7757 165.184 45.8799 165.408 46.0459C165.597 46.1859 165.739 46.3649 165.833 46.583C165.927 46.8011 165.975 47.0436 165.975 47.3105ZM165.027 47.3252C165.027 47.1592 164.998 47.0143 164.939 46.8906C164.884 46.7637 164.791 46.6611 164.661 46.583C164.524 46.5016 164.368 46.4528 164.192 46.4365C164.02 46.4202 163.771 46.4121 163.445 46.4121H162.762V48.2676H163.426C163.751 48.2676 164.004 48.2546 164.183 48.2285C164.362 48.1992 164.516 48.1455 164.646 48.0674C164.78 47.9827 164.876 47.8835 164.935 47.7695C164.996 47.6523 165.027 47.5042 165.027 47.3252ZM171.16 49H170.242V46.5439H167.771V49H166.854V43.5459H167.771V45.7529H170.242V43.5459H171.16V49ZM176.976 46.2754C176.976 47.1934 176.754 47.903 176.312 48.4043C175.869 48.9023 175.28 49.1514 174.544 49.1514C173.785 49.1514 173.188 48.8942 172.752 48.3799C172.319 47.8623 172.103 47.1608 172.103 46.2754C172.103 45.3639 172.326 44.6559 172.771 44.1514C173.221 43.6468 173.812 43.3945 174.544 43.3945C175.28 43.3945 175.869 43.6468 176.312 44.1514C176.754 44.6527 176.976 45.3607 176.976 46.2754ZM176.028 46.2754C176.028 45.569 175.9 45.0449 175.643 44.7031C175.385 44.3581 175.019 44.1855 174.544 44.1855C174.065 44.1855 173.696 44.3581 173.436 44.7031C173.178 45.0449 173.05 45.569 173.05 46.2754C173.05 46.959 173.178 47.4782 173.436 47.833C173.696 48.1846 174.065 48.3604 174.544 48.3604C175.016 48.3604 175.381 48.1878 175.638 47.8428C175.898 47.4945 176.028 46.972 176.028 46.2754ZM179.607 44.9375H178.44V43.5459H179.607V44.9375ZM179.607 49H178.44V47.6084H179.607V49Z" fill="#8C99B2"/>
<path d="M235.92 27H230.957V25.9609H232.803V19.1387H230.957V18.209C231.654 18.209 232.167 18.111 232.495 17.915C232.828 17.7145 233.015 17.3385 233.056 16.7871H234.115V25.9609H235.92V27ZM243.562 27H238.6V25.9609H240.445V19.1387H238.6V18.209C239.297 18.209 239.81 18.111 240.138 17.915C240.47 17.7145 240.657 17.3385 240.698 16.7871H241.758V25.9609H243.562V27ZM256.1 27H249.817V25.5713C250.269 25.1429 250.695 24.7327 251.096 24.3408C251.497 23.9489 251.889 23.541 252.271 23.1172C253.046 22.265 253.575 21.5837 253.857 21.0732C254.14 20.5583 254.281 20.0273 254.281 19.4805C254.281 19.1979 254.236 18.9495 254.145 18.7354C254.058 18.5212 253.937 18.3434 253.782 18.2021C253.623 18.0654 253.438 17.9629 253.229 17.8945C253.019 17.8262 252.789 17.792 252.538 17.792C252.297 17.792 252.05 17.8239 251.8 17.8877C251.554 17.9469 251.317 18.0221 251.089 18.1133C250.897 18.1908 250.713 18.2842 250.535 18.3936C250.357 18.5029 250.214 18.5964 250.104 18.6738H250.029V17.2246C250.312 17.0833 250.704 16.9466 251.205 16.8145C251.711 16.6777 252.189 16.6094 252.641 16.6094C253.589 16.6094 254.331 16.8623 254.869 17.3682C255.407 17.8695 255.676 18.5508 255.676 19.4121C255.676 19.8086 255.628 20.1755 255.532 20.5127C255.441 20.8499 255.313 21.1621 255.149 21.4492C254.981 21.7454 254.778 22.0394 254.541 22.3311C254.304 22.6227 254.053 22.9098 253.789 23.1924C253.361 23.6572 252.882 24.1403 252.354 24.6416C251.829 25.1429 251.41 25.5394 251.096 25.8311H256.1V27ZM263.79 21.9072C263.79 23.7347 263.523 25.0768 262.99 25.9336C262.462 26.7858 261.644 27.2119 260.536 27.2119C259.415 27.2119 258.592 26.7767 258.068 25.9062C257.544 25.0358 257.282 23.7074 257.282 21.9209C257.282 20.0843 257.547 18.7422 258.075 17.8945C258.608 17.0423 259.429 16.6162 260.536 16.6162C261.657 16.6162 262.48 17.056 263.004 17.9355C263.528 18.8151 263.79 20.139 263.79 21.9072ZM262.04 25.0107C262.172 24.6735 262.266 24.2474 262.32 23.7324C262.375 23.2174 262.402 22.609 262.402 21.9072C262.402 21.21 262.375 20.6038 262.32 20.0889C262.266 19.5739 262.17 19.1455 262.033 18.8037C261.896 18.4574 261.707 18.1953 261.466 18.0176C261.229 17.8353 260.919 17.7441 260.536 17.7441C260.158 17.7441 259.846 17.8353 259.6 18.0176C259.358 18.1953 259.167 18.4619 259.025 18.8174C258.889 19.1637 258.795 19.6012 258.745 20.1299C258.695 20.6585 258.67 21.2555 258.67 21.9209C258.67 22.6318 258.69 23.2266 258.731 23.7051C258.777 24.1836 258.873 24.612 259.019 24.9902C259.151 25.3411 259.338 25.6123 259.579 25.8037C259.825 25.9906 260.144 26.084 260.536 26.084C260.914 26.084 261.224 25.9951 261.466 25.8174C261.712 25.6351 261.903 25.3662 262.04 25.0107ZM269.901 19.1934C269.901 18.7376 269.749 18.3571 269.443 18.0518C269.138 17.7464 268.714 17.5938 268.172 17.5938C267.675 17.5938 267.267 17.7305 266.948 18.0039C266.634 18.2773 266.477 18.6465 266.477 19.1113C266.477 19.4486 266.556 19.7334 266.716 19.9658C266.88 20.1982 267.124 20.4079 267.447 20.5947C267.589 20.6722 267.803 20.7793 268.09 20.916C268.382 21.0527 268.646 21.1598 268.883 21.2373C269.279 20.932 269.548 20.6198 269.689 20.3008C269.831 19.9772 269.901 19.6081 269.901 19.1934ZM270.093 24.293C270.093 23.8737 270.011 23.541 269.847 23.2949C269.683 23.0488 269.366 22.7982 268.896 22.543C268.742 22.4564 268.534 22.363 268.274 22.2627C268.019 22.1624 267.73 22.0439 267.406 21.9072C267.028 22.1579 266.739 22.4678 266.538 22.8369C266.338 23.2015 266.237 23.6185 266.237 24.0879C266.237 24.7031 266.422 25.2113 266.791 25.6123C267.165 26.0133 267.632 26.2139 268.192 26.2139C268.767 26.2139 269.227 26.043 269.573 25.7012C269.92 25.3548 270.093 24.8854 270.093 24.293ZM268.179 27.2324C267.673 27.2324 267.213 27.1572 266.798 27.0068C266.383 26.8564 266.03 26.64 265.738 26.3574C265.451 26.084 265.232 25.7604 265.082 25.3867C264.936 25.0085 264.863 24.6097 264.863 24.1904C264.863 23.639 265.009 23.1331 265.301 22.6729C265.597 22.208 266.025 21.8389 266.586 21.5654V21.5244C266.085 21.2327 265.713 20.9137 265.472 20.5674C265.23 20.221 265.109 19.7881 265.109 19.2686C265.109 18.5029 265.399 17.8649 265.978 17.3545C266.556 16.8441 267.29 16.5889 268.179 16.5889C269.104 16.5889 269.844 16.8327 270.4 17.3203C270.961 17.8034 271.241 18.4232 271.241 19.1797C271.241 19.6354 271.107 20.0866 270.838 20.5332C270.574 20.9798 270.191 21.3285 269.689 21.5791V21.6201C270.282 21.8981 270.731 22.2354 271.036 22.6318C271.341 23.0283 271.494 23.5387 271.494 24.1631C271.494 25.0335 271.177 25.7627 270.544 26.3506C269.915 26.9385 269.127 27.2324 268.179 27.2324Z" fill="#0089FF"/>
<path d="M236.323 47.7598C236.323 48.252 236.243 48.7077 236.084 49.127C235.929 49.5462 235.71 49.9085 235.428 50.2139C235.141 50.5238 234.783 50.7676 234.354 50.9453C233.931 51.123 233.454 51.2119 232.926 51.2119C232.438 51.2119 231.957 51.1572 231.483 51.0479C231.014 50.943 230.606 50.804 230.26 50.6309V49.1885H230.355C230.46 49.266 230.611 49.3548 230.807 49.4551C231.003 49.5508 231.219 49.6419 231.456 49.7285C231.725 49.8242 231.971 49.8994 232.194 49.9541C232.418 50.0042 232.668 50.0293 232.946 50.0293C233.22 50.0293 233.486 49.9814 233.746 49.8857C234.006 49.7855 234.229 49.626 234.416 49.4072C234.585 49.2067 234.712 48.972 234.799 48.7031C234.89 48.4342 234.936 48.1175 234.936 47.7529C234.936 47.3929 234.885 47.0967 234.785 46.8643C234.689 46.6318 234.548 46.4404 234.361 46.29C234.165 46.1169 233.924 45.9961 233.637 45.9277C233.354 45.8548 233.037 45.8184 232.687 45.8184C232.317 45.8184 231.946 45.848 231.572 45.9072C231.199 45.9619 230.9 46.0143 230.677 46.0645V40.8213H236.262V42.0176H231.996V44.7246C232.16 44.7064 232.322 44.6927 232.481 44.6836C232.641 44.6745 232.787 44.6699 232.919 44.6699C233.438 44.6699 233.878 44.7132 234.238 44.7998C234.598 44.8864 234.945 45.055 235.277 45.3057C235.615 45.5609 235.872 45.8799 236.05 46.2627C236.232 46.6455 236.323 47.1445 236.323 47.7598ZM244.349 47.5H243.139V51H241.826V47.5H237.328V46.0645L241.881 40.8213H243.139V46.4062H244.349V47.5ZM241.826 46.4062V42.4277L238.395 46.4062H241.826ZM256.1 51H249.817V49.5713C250.269 49.1429 250.695 48.7327 251.096 48.3408C251.497 47.9489 251.889 47.541 252.271 47.1172C253.046 46.265 253.575 45.5837 253.857 45.0732C254.14 44.5583 254.281 44.0273 254.281 43.4805C254.281 43.1979 254.236 42.9495 254.145 42.7354C254.058 42.5212 253.937 42.3434 253.782 42.2021C253.623 42.0654 253.438 41.9629 253.229 41.8945C253.019 41.8262 252.789 41.792 252.538 41.792C252.297 41.792 252.05 41.8239 251.8 41.8877C251.554 41.9469 251.317 42.0221 251.089 42.1133C250.897 42.1908 250.713 42.2842 250.535 42.3936C250.357 42.5029 250.214 42.5964 250.104 42.6738H250.029V41.2246C250.312 41.0833 250.704 40.9466 251.205 40.8145C251.711 40.6777 252.189 40.6094 252.641 40.6094C253.589 40.6094 254.331 40.8623 254.869 41.3682C255.407 41.8695 255.676 42.5508 255.676 43.4121C255.676 43.8086 255.628 44.1755 255.532 44.5127C255.441 44.8499 255.313 45.1621 255.149 45.4492C254.981 45.7454 254.778 46.0394 254.541 46.3311C254.304 46.6227 254.053 46.9098 253.789 47.1924C253.361 47.6572 252.882 48.1403 252.354 48.6416C251.829 49.1429 251.41 49.5394 251.096 49.8311H256.1V51ZM263.79 45.9072C263.79 47.7347 263.523 49.0768 262.99 49.9336C262.462 50.7858 261.644 51.2119 260.536 51.2119C259.415 51.2119 258.592 50.7767 258.068 49.9062C257.544 49.0358 257.282 47.7074 257.282 45.9209C257.282 44.0843 257.547 42.7422 258.075 41.8945C258.608 41.0423 259.429 40.6162 260.536 40.6162C261.657 40.6162 262.48 41.056 263.004 41.9355C263.528 42.8151 263.79 44.139 263.79 45.9072ZM262.04 49.0107C262.172 48.6735 262.266 48.2474 262.32 47.7324C262.375 47.2174 262.402 46.609 262.402 45.9072C262.402 45.21 262.375 44.6038 262.32 44.0889C262.266 43.5739 262.17 43.1455 262.033 42.8037C261.896 42.4574 261.707 42.1953 261.466 42.0176C261.229 41.8353 260.919 41.7441 260.536 41.7441C260.158 41.7441 259.846 41.8353 259.6 42.0176C259.358 42.1953 259.167 42.4619 259.025 42.8174C258.889 43.1637 258.795 43.6012 258.745 44.1299C258.695 44.6585 258.67 45.2555 258.67 45.9209C258.67 46.6318 258.69 47.2266 258.731 47.7051C258.777 48.1836 258.873 48.612 259.019 48.9902C259.151 49.3411 259.338 49.6123 259.579 49.8037C259.825 49.9906 260.144 50.084 260.536 50.084C260.914 50.084 261.224 49.9951 261.466 49.8174C261.712 49.6351 261.903 49.3662 262.04 49.0107ZM269.901 43.1934C269.901 42.7376 269.749 42.3571 269.443 42.0518C269.138 41.7464 268.714 41.5938 268.172 41.5938C267.675 41.5938 267.267 41.7305 266.948 42.0039C266.634 42.2773 266.477 42.6465 266.477 43.1113C266.477 43.4486 266.556 43.7334 266.716 43.9658C266.88 44.1982 267.124 44.4079 267.447 44.5947C267.589 44.6722 267.803 44.7793 268.09 44.916C268.382 45.0527 268.646 45.1598 268.883 45.2373C269.279 44.932 269.548 44.6198 269.689 44.3008C269.831 43.9772 269.901 43.6081 269.901 43.1934ZM270.093 48.293C270.093 47.8737 270.011 47.541 269.847 47.2949C269.683 47.0488 269.366 46.7982 268.896 46.543C268.742 46.4564 268.534 46.363 268.274 46.2627C268.019 46.1624 267.73 46.0439 267.406 45.9072C267.028 46.1579 266.739 46.4678 266.538 46.8369C266.338 47.2015 266.237 47.6185 266.237 48.0879C266.237 48.7031 266.422 49.2113 266.791 49.6123C267.165 50.0133 267.632 50.2139 268.192 50.2139C268.767 50.2139 269.227 50.043 269.573 49.7012C269.92 49.3548 270.093 48.8854 270.093 48.293ZM268.179 51.2324C267.673 51.2324 267.213 51.1572 266.798 51.0068C266.383 50.8564 266.03 50.64 265.738 50.3574C265.451 50.084 265.232 49.7604 265.082 49.3867C264.936 49.0085 264.863 48.6097 264.863 48.1904C264.863 47.639 265.009 47.1331 265.301 46.6729C265.597 46.208 266.025 45.8389 266.586 45.5654V45.5244C266.085 45.2327 265.713 44.9137 265.472 44.5674C265.23 44.221 265.109 43.7881 265.109 43.2686C265.109 42.5029 265.399 41.8649 265.978 41.3545C266.556 40.8441 267.29 40.5889 268.179 40.5889C269.104 40.5889 269.844 40.8327 270.4 41.3203C270.961 41.8034 271.241 42.4232 271.241 43.1797C271.241 43.6354 271.107 44.0866 270.838 44.5332C270.574 44.9798 270.191 45.3285 269.689 45.5791V45.6201C270.282 45.8981 270.731 46.2354 271.036 46.6318C271.341 47.0283 271.494 47.5387 271.494 48.1631C271.494 49.0335 271.177 49.7627 270.544 50.3506C269.915 50.9385 269.127 51.2324 268.179 51.2324Z" fill="#8C99B2"/>
<path d="M300.922 25H295.537V23.7754C295.924 23.4082 296.289 23.0566 296.633 22.7207C296.977 22.3848 297.312 22.0352 297.641 21.6719C298.305 20.9414 298.758 20.3574 299 19.9199C299.242 19.4785 299.363 19.0234 299.363 18.5547C299.363 18.3125 299.324 18.0996 299.246 17.916C299.172 17.7324 299.068 17.5801 298.936 17.459C298.799 17.3418 298.641 17.2539 298.461 17.1953C298.281 17.1367 298.084 17.1074 297.869 17.1074C297.662 17.1074 297.451 17.1348 297.236 17.1895C297.025 17.2402 296.822 17.3047 296.627 17.3828C296.463 17.4492 296.305 17.5293 296.152 17.623C296 17.7168 295.877 17.7969 295.783 17.8633H295.719V16.6211C295.961 16.5 296.297 16.3828 296.727 16.2695C297.16 16.1523 297.57 16.0938 297.957 16.0938C298.77 16.0938 299.406 16.3105 299.867 16.7441C300.328 17.1738 300.559 17.7578 300.559 18.4961C300.559 18.8359 300.518 19.1504 300.436 19.4395C300.357 19.7285 300.248 19.9961 300.107 20.2422C299.963 20.4961 299.789 20.748 299.586 20.998C299.383 21.248 299.168 21.4941 298.941 21.7363C298.574 22.1348 298.164 22.5488 297.711 22.9785C297.262 23.4082 296.902 23.748 296.633 23.998H300.922V25ZM307.373 22.2227C307.373 22.6445 307.305 23.0352 307.168 23.3945C307.035 23.7539 306.848 24.0645 306.605 24.3262C306.359 24.5918 306.053 24.8008 305.686 24.9531C305.322 25.1055 304.914 25.1816 304.461 25.1816C304.043 25.1816 303.631 25.1348 303.225 25.041C302.822 24.9512 302.473 24.832 302.176 24.6836V23.4473H302.258C302.348 23.5137 302.477 23.5898 302.645 23.6758C302.812 23.7578 302.998 23.8359 303.201 23.9102C303.432 23.9922 303.643 24.0566 303.834 24.1035C304.025 24.1465 304.24 24.168 304.479 24.168C304.713 24.168 304.941 24.127 305.164 24.0449C305.387 23.959 305.578 23.8223 305.738 23.6348C305.883 23.4629 305.992 23.2617 306.066 23.0312C306.145 22.8008 306.184 22.5293 306.184 22.2168C306.184 21.9082 306.141 21.6543 306.055 21.4551C305.973 21.2559 305.852 21.0918 305.691 20.9629C305.523 20.8145 305.316 20.7109 305.07 20.6523C304.828 20.5898 304.557 20.5586 304.256 20.5586C303.939 20.5586 303.621 20.584 303.301 20.6348C302.98 20.6816 302.725 20.7266 302.533 20.7695V16.2754H307.32V17.3008H303.664V19.6211C303.805 19.6055 303.943 19.5938 304.08 19.5859C304.217 19.5781 304.342 19.5742 304.455 19.5742C304.9 19.5742 305.277 19.6113 305.586 19.6855C305.895 19.7598 306.191 19.9043 306.477 20.1191C306.766 20.3379 306.986 20.6113 307.139 20.9395C307.295 21.2676 307.373 21.6953 307.373 22.2227Z" fill="#303549"/>
<line x1="22" y1="62.5" x2="82" y2="62.5" stroke="#D7E2F2" stroke-dasharray="1 1"/>
<path d="M41.9473 53.2227C41.9473 53.6445 41.8789 54.0352 41.7422 54.3945C41.6094 54.7539 41.4219 55.0645 41.1797 55.3262C40.9336 55.5918 40.627 55.8008 40.2598 55.9531C39.8965 56.1055 39.4883 56.1816 39.0352 56.1816C38.6172 56.1816 38.2051 56.1348 37.7988 56.041C37.3965 55.9512 37.0469 55.832 36.75 55.6836V54.4473H36.832C36.9219 54.5137 37.0508 54.5898 37.2188 54.6758C37.3867 54.7578 37.5723 54.8359 37.7754 54.9102C38.0059 54.9922 38.2168 55.0566 38.4082 55.1035C38.5996 55.1465 38.8145 55.168 39.0527 55.168C39.2871 55.168 39.5156 55.127 39.7383 55.0449C39.9609 54.959 40.1523 54.8223 40.3125 54.6348C40.457 54.4629 40.5664 54.2617 40.6406 54.0312C40.7188 53.8008 40.7578 53.5293 40.7578 53.2168C40.7578 52.9082 40.7148 52.6543 40.6289 52.4551C40.5469 52.2559 40.4258 52.0918 40.2656 51.9629C40.0977 51.8145 39.8906 51.7109 39.6445 51.6523C39.4023 51.5898 39.1309 51.5586 38.8301 51.5586C38.5137 51.5586 38.1953 51.584 37.875 51.6348C37.5547 51.6816 37.2988 51.7266 37.1074 51.7695V47.2754H41.8945V48.3008H38.2383V50.6211C38.3789 50.6055 38.5176 50.5938 38.6543 50.5859C38.791 50.5781 38.916 50.5742 39.0293 50.5742C39.4746 50.5742 39.8516 50.6113 40.1602 50.6855C40.4688 50.7598 40.7656 50.9043 41.0508 51.1191C41.3398 51.3379 41.5605 51.6113 41.7129 51.9395C41.8691 52.2676 41.9473 52.6953 41.9473 53.2227ZM52.3477 56H46.9629V54.7754C47.3496 54.4082 47.7148 54.0566 48.0586 53.7207C48.4023 53.3848 48.7383 53.0352 49.0664 52.6719C49.7305 51.9414 50.1836 51.3574 50.4258 50.9199C50.668 50.4785 50.7891 50.0234 50.7891 49.5547C50.7891 49.3125 50.75 49.0996 50.6719 48.916C50.5977 48.7324 50.4941 48.5801 50.3613 48.459C50.2246 48.3418 50.0664 48.2539 49.8867 48.1953C49.707 48.1367 49.5098 48.1074 49.2949 48.1074C49.0879 48.1074 48.877 48.1348 48.6621 48.1895C48.4512 48.2402 48.248 48.3047 48.0527 48.3828C47.8887 48.4492 47.7305 48.5293 47.5781 48.623C47.4258 48.7168 47.3027 48.7969 47.209 48.8633H47.1445V47.6211C47.3867 47.5 47.7227 47.3828 48.1523 47.2695C48.5859 47.1523 48.9961 47.0938 49.3828 47.0938C50.1953 47.0938 50.832 47.3105 51.293 47.7441C51.7539 48.1738 51.9844 48.7578 51.9844 49.4961C51.9844 49.8359 51.9434 50.1504 51.8613 50.4395C51.7832 50.7285 51.6738 50.9961 51.5332 51.2422C51.3887 51.4961 51.2148 51.748 51.0117 51.998C50.8086 52.248 50.5938 52.4941 50.3672 52.7363C50 53.1348 49.5898 53.5488 49.1367 53.9785C48.6875 54.4082 48.3281 54.748 48.0586 54.998H52.3477V56ZM58.9395 51.6348C58.9395 53.2012 58.7109 54.3516 58.2539 55.0859C57.8008 55.8164 57.0996 56.1816 56.1504 56.1816C55.1895 56.1816 54.4844 55.8086 54.0352 55.0625C53.5859 54.3164 53.3613 53.1777 53.3613 51.6465C53.3613 50.0723 53.5879 48.9219 54.041 48.1953C54.498 47.4648 55.2012 47.0996 56.1504 47.0996C57.1113 47.0996 57.8164 47.4766 58.2656 48.2305C58.7148 48.9844 58.9395 50.1191 58.9395 51.6348ZM57.4395 54.2949C57.5527 54.0059 57.6328 53.6406 57.6797 53.1992C57.7266 52.7578 57.75 52.2363 57.75 51.6348C57.75 51.0371 57.7266 50.5176 57.6797 50.0762C57.6328 49.6348 57.5508 49.2676 57.4336 48.9746C57.3164 48.6777 57.1543 48.4531 56.9473 48.3008C56.7441 48.1445 56.4785 48.0664 56.1504 48.0664C55.8262 48.0664 55.5586 48.1445 55.3477 48.3008C55.1406 48.4531 54.9766 48.6816 54.8555 48.9863C54.7383 49.2832 54.6582 49.6582 54.6152 50.1113C54.5723 50.5645 54.5508 51.0762 54.5508 51.6465C54.5508 52.2559 54.5684 52.7656 54.6035 53.1758C54.6426 53.5859 54.7246 53.9531 54.8496 54.2773C54.9629 54.5781 55.123 54.8105 55.3301 54.9746C55.541 55.1348 55.8145 55.2148 56.1504 55.2148C56.4746 55.2148 56.7402 55.1387 56.9473 54.9863C57.1582 54.8301 57.3223 54.5996 57.4395 54.2949ZM64.1777 49.3086C64.1777 48.918 64.0469 48.5918 63.7852 48.3301C63.5234 48.0684 63.1602 47.9375 62.6953 47.9375C62.2695 47.9375 61.9199 48.0547 61.6465 48.2891C61.377 48.5234 61.2422 48.8398 61.2422 49.2383C61.2422 49.5273 61.3105 49.7715 61.4473 49.9707C61.5879 50.1699 61.7969 50.3496 62.0742 50.5098C62.1953 50.5762 62.3789 50.668 62.625 50.7852C62.875 50.9023 63.1016 50.9941 63.3047 51.0605C63.6445 50.7988 63.875 50.5312 63.9961 50.2578C64.1172 49.9805 64.1777 49.6641 64.1777 49.3086ZM64.3418 53.6797C64.3418 53.3203 64.2715 53.0352 64.1309 52.8242C63.9902 52.6133 63.7188 52.3984 63.3164 52.1797C63.1836 52.1055 63.0059 52.0254 62.7832 51.9395C62.5645 51.8535 62.3164 51.752 62.0391 51.6348C61.7148 51.8496 61.4668 52.1152 61.2949 52.4316C61.123 52.7441 61.0371 53.1016 61.0371 53.5039C61.0371 54.0312 61.1953 54.4668 61.5117 54.8105C61.832 55.1543 62.2324 55.3262 62.7129 55.3262C63.2051 55.3262 63.5996 55.1797 63.8965 54.8867C64.1934 54.5898 64.3418 54.1875 64.3418 53.6797ZM62.7012 56.1992C62.2676 56.1992 61.873 56.1348 61.5176 56.0059C61.1621 55.877 60.8594 55.6914 60.6094 55.4492C60.3633 55.2148 60.1758 54.9375 60.0469 54.6172C59.9219 54.293 59.8594 53.9512 59.8594 53.5918C59.8594 53.1191 59.9844 52.6855 60.2344 52.291C60.4883 51.8926 60.8555 51.5762 61.3359 51.3418V51.3066C60.9062 51.0566 60.5879 50.7832 60.3809 50.4863C60.1738 50.1895 60.0703 49.8184 60.0703 49.373C60.0703 48.7168 60.3184 48.1699 60.8145 47.7324C61.3105 47.2949 61.9395 47.0762 62.7012 47.0762C63.4941 47.0762 64.1289 47.2852 64.6055 47.7031C65.0859 48.1172 65.3262 48.6484 65.3262 49.2969C65.3262 49.6875 65.2109 50.0742 64.9805 50.457C64.7539 50.8398 64.4258 51.1387 63.9961 51.3535V51.3887C64.5039 51.627 64.8887 51.916 65.1504 52.2559C65.4121 52.5957 65.543 53.0332 65.543 53.5684C65.543 54.3145 65.2715 54.9395 64.7285 55.4434C64.1895 55.9473 63.5137 56.1992 62.7012 56.1992Z" fill="#303549"/>
<path d="M52.3242 73.3623C52.3242 74.6676 52.1338 75.6263 51.7529 76.2383C51.3753 76.847 50.791 77.1514 50 77.1514C49.1992 77.1514 48.6117 76.8405 48.2373 76.2188C47.863 75.597 47.6758 74.6481 47.6758 73.3721C47.6758 72.0602 47.8646 71.1016 48.2422 70.4961C48.623 69.8874 49.209 69.583 50 69.583C50.8008 69.583 51.3883 69.8971 51.7627 70.5254C52.137 71.1536 52.3242 72.0993 52.3242 73.3623ZM51.0742 75.5791C51.1686 75.3382 51.2354 75.0339 51.2744 74.666C51.3135 74.2982 51.333 73.8636 51.333 73.3623C51.333 72.8643 51.3135 72.4313 51.2744 72.0635C51.2354 71.6956 51.167 71.3896 51.0693 71.1455C50.9717 70.8981 50.8366 70.7109 50.6641 70.584C50.4948 70.4538 50.2734 70.3887 50 70.3887C49.7298 70.3887 49.5068 70.4538 49.3311 70.584C49.1585 70.7109 49.0218 70.9014 48.9209 71.1553C48.8232 71.4027 48.7565 71.7152 48.7207 72.0928C48.6849 72.4704 48.667 72.8968 48.667 73.3721C48.667 73.8799 48.6816 74.3047 48.7109 74.6465C48.7435 74.9883 48.8118 75.2943 48.916 75.5645C49.0104 75.8151 49.1439 76.0088 49.3164 76.1455C49.4922 76.279 49.7201 76.3457 50 76.3457C50.2702 76.3457 50.4915 76.2822 50.6641 76.1553C50.8398 76.0251 50.9766 75.833 51.0742 75.5791Z" fill="#8C99B2"/>
<path d="M50.9971 26.3516H49.1416V31H48.2236V26.3516H46.3682V25.5459H50.9971V26.3516ZM55.9873 31H55.0693V28.5439H52.5986V31H51.6807V25.5459H52.5986V27.7529H55.0693V25.5459H55.9873V31Z" fill="#8C99B2"/>
<path d="M112 78H122V74H132.769V79H138.154V84H143.538V78H154.308V70H159.692V75H165.077V76H170.462V70H181.231V78H192V72H202.769V78H208.154V76H213.538V70H224.308V73H235.077V79H245.846V76H256.615V73H267.385V76H272" stroke="#0089FF" stroke-linecap="round"/>
</svg>
