<svg width="324" height="117" viewBox="0 0 324 117" fill="none" xmlns="http://www.w3.org/2000/svg">
<path d="M317 108H169C167.895 108 167 107.105 167 106V74C167 72.8954 167.895 72 169 72H317C318.105 72 319 72.8954 319 74V106C319 107.105 318.105 108 317 108Z" fill="#D7E2F2"/>
<path d="M221.968 94.001H221.001V87.7364L219.106 91.999H218.521L216.641 87.7364V94.001H215.737V86.7305H217.056L218.872 90.7783L220.625 86.7305H221.968V94.001ZM227.856 91.2764C227.856 92.1944 227.635 92.904 227.192 93.4053C226.75 93.9033 226.16 94.1524 225.425 94.1524C224.666 94.1524 224.069 93.8952 223.633 93.3809C223.2 92.8633 222.983 92.1618 222.983 91.2764C222.983 90.3649 223.206 89.6569 223.652 89.1524C224.102 88.6478 224.692 88.3955 225.425 88.3955C226.16 88.3955 226.75 88.6478 227.192 89.1524C227.635 89.6537 227.856 90.3617 227.856 91.2764ZM226.909 91.2764C226.909 90.57 226.781 90.0459 226.523 89.7041C226.266 89.3591 225.9 89.1865 225.425 89.1865C224.946 89.1865 224.577 89.3591 224.316 89.7041C224.059 90.0459 223.931 90.57 223.931 91.2764C223.931 91.96 224.059 92.4792 224.316 92.834C224.577 93.1856 224.946 93.3614 225.425 93.3614C225.897 93.3614 226.261 93.1888 226.519 92.8438C226.779 92.4955 226.909 91.973 226.909 91.2764ZM233.105 94.001H232.188V91.5449H229.717V94.001H228.799V88.5469H229.717V90.7539H232.188V88.5469H233.105V94.001ZM238.74 94.001H237.832V89.9336L235.264 94.001H234.434V88.5469H235.342V92.5508L237.881 88.5469H238.74V94.001ZM244.053 89.3526H242.197V94.001H241.279V89.3526H239.424V88.5469H244.053V89.3526ZM249.224 91.2764C249.224 92.1944 249.002 92.904 248.56 93.4053C248.117 93.9033 247.528 94.1524 246.792 94.1524C246.034 94.1524 245.436 93.8952 245 93.3809C244.567 92.8633 244.351 92.1618 244.351 91.2764C244.351 90.3649 244.574 89.6569 245.02 89.1524C245.469 88.6478 246.06 88.3955 246.792 88.3955C247.528 88.3955 248.117 88.6478 248.56 89.1524C249.002 89.6537 249.224 90.3617 249.224 91.2764ZM248.276 91.2764C248.276 90.57 248.148 90.0459 247.891 89.7041C247.633 89.3591 247.267 89.1865 246.792 89.1865C246.313 89.1865 245.944 89.3591 245.684 89.7041C245.426 90.0459 245.298 90.57 245.298 91.2764C245.298 91.96 245.426 92.4792 245.684 92.834C245.944 93.1856 246.313 93.3614 246.792 93.3614C247.264 93.3614 247.629 93.1888 247.886 92.8438C248.146 92.4955 248.276 91.973 248.276 91.2764ZM254.741 91.1299C254.741 92.0381 254.523 92.7624 254.087 93.3028C253.654 93.8399 253.105 94.1084 252.441 94.1084C252.171 94.1084 251.932 94.0775 251.724 94.0156C251.515 93.9538 251.302 93.8578 251.084 93.7276V96.0127H250.166V88.5469H251.084V89.1182C251.312 88.9131 251.564 88.7422 251.841 88.6055C252.121 88.4655 252.425 88.3955 252.754 88.3955C253.379 88.3955 253.866 88.6429 254.214 89.1377C254.565 89.6325 254.741 90.2966 254.741 91.1299ZM253.794 91.2324C253.794 90.6107 253.695 90.1289 253.496 89.7871C253.298 89.4421 252.975 89.2696 252.529 89.2696C252.269 89.2696 252.017 89.3281 251.772 89.4453C251.532 89.5593 251.302 89.7074 251.084 89.8897V92.9805C251.325 93.0977 251.53 93.1774 251.699 93.2198C251.872 93.2621 252.069 93.2832 252.29 93.2832C252.765 93.2832 253.135 93.1091 253.398 92.7608C253.662 92.4125 253.794 91.903 253.794 91.2324ZM260 94.001H259.092V89.9336L256.523 94.001H255.693V88.5469H256.602V92.5508L259.141 88.5469H260V94.001ZM265.635 94.001H264.717V91.5449H262.246V94.001H261.328V88.5469H262.246V90.7539H264.717V88.5469H265.635V94.001ZM270.43 89.3526H267.881V94.001H266.963V88.5469H270.43V89.3526Z" fill="#303549"/>
<path d="M155 107.5H7C6.17157 107.5 5.5 106.828 5.5 106V74C5.5 73.1716 6.17157 72.5 7 72.5H155C155.828 72.5 156.5 73.1716 156.5 74V106C156.5 106.828 155.828 107.5 155 107.5Z" fill="#0089FF" fill-opacity="0.2"/>
<path d="M53.5156 94.001H52.5488V87.5899H49.2041V94.001H48.2373V86.7305H53.5156V94.001ZM59.1455 94.001H58.2275V89.3184H56.3525C56.3428 89.5886 56.333 89.849 56.3232 90.0996C56.3135 90.347 56.3037 90.5716 56.2939 90.7735C56.2744 91.2845 56.2402 91.7126 56.1914 92.0576C56.1458 92.4027 56.0872 92.6794 56.0156 92.8877C55.944 93.1026 55.8643 93.2702 55.7764 93.3906C55.6917 93.5111 55.5957 93.6201 55.4883 93.7178C55.3776 93.8155 55.2588 93.8887 55.1318 93.9375C55.0049 93.9864 54.8617 94.0108 54.7021 94.0108C54.6501 94.0108 54.5833 94.0091 54.502 94.0059C54.4206 94.0026 54.3636 94.001 54.3311 94.001V93.2002H54.3799C54.4027 93.2002 54.4255 93.2018 54.4482 93.2051C54.4743 93.2084 54.5036 93.21 54.5361 93.21C54.6143 93.21 54.6908 93.1986 54.7656 93.1758C54.8405 93.153 54.9072 93.1107 54.9658 93.0489C55.1286 92.8893 55.2474 92.611 55.3223 92.2139C55.3971 91.8135 55.4508 91.2552 55.4834 90.5391C55.4964 90.2722 55.5078 89.9564 55.5176 89.5918C55.5306 89.2272 55.542 88.8789 55.5518 88.5469H59.1455V94.001ZM63.5254 92.6582V91.1446C63.3073 91.1641 63.0306 91.1918 62.6953 91.2276C62.3633 91.2601 62.0947 91.3073 61.8896 91.3692C61.6455 91.444 61.4437 91.5596 61.2842 91.7158C61.1247 91.8688 61.0449 92.0837 61.0449 92.3604C61.0449 92.6729 61.1328 92.9089 61.3086 93.0684C61.4844 93.2279 61.7415 93.3076 62.0801 93.3076C62.3698 93.3076 62.6318 93.2458 62.8662 93.1221C63.1006 92.9951 63.3203 92.8405 63.5254 92.6582ZM63.5254 93.4199C63.4505 93.4753 63.3496 93.5534 63.2227 93.6543C63.099 93.752 62.9785 93.8301 62.8613 93.8887C62.6986 93.9733 62.5407 94.0384 62.3877 94.084C62.238 94.1296 62.0264 94.1524 61.7529 94.1524C61.5283 94.1524 61.3151 94.11 61.1133 94.0254C60.9115 93.9408 60.734 93.822 60.5811 93.669C60.4346 93.5192 60.3174 93.3353 60.2295 93.1172C60.1416 92.8959 60.0977 92.6631 60.0977 92.419C60.0977 92.0414 60.1774 91.7207 60.3369 91.4571C60.4964 91.1901 60.7487 90.9785 61.0938 90.8223C61.3997 90.6823 61.7611 90.5863 62.1777 90.5342C62.5944 90.4789 63.0436 90.4382 63.5254 90.4121V90.2364C63.5254 90.0215 63.4928 89.849 63.4277 89.7188C63.3626 89.5853 63.2715 89.4828 63.1543 89.4112C63.0371 89.3363 62.8939 89.2875 62.7246 89.2647C62.5553 89.2386 62.3812 89.2256 62.2021 89.2256C61.9906 89.2256 61.7415 89.2582 61.4551 89.3233C61.1686 89.3851 60.8822 89.4763 60.5957 89.5967H60.542V88.6641C60.7113 88.6153 60.9538 88.5615 61.2695 88.503C61.5853 88.4444 61.8978 88.4151 62.207 88.4151C62.5814 88.4151 62.8971 88.4444 63.1543 88.503C63.4115 88.5615 63.6426 88.6673 63.8477 88.8203C64.0462 88.9701 64.1943 89.1638 64.292 89.4014C64.3896 89.639 64.4385 89.9287 64.4385 90.2705V94.001H63.5254V93.4199ZM70.0391 94.001H69.1211V91.5449H66.6504V94.001H65.7324V88.5469H66.6504V90.7539H69.1211V88.5469H70.0391V94.001ZM75.6738 94.001H74.7656V89.9336L72.1973 94.001H71.3672V88.5469H72.2754V92.5508L74.8145 88.5469H75.6738V94.001ZM81.5771 91.1299C81.5771 92.0381 81.359 92.7624 80.9229 93.3028C80.4899 93.8399 79.9414 94.1084 79.2773 94.1084C79.0072 94.1084 78.7679 94.0775 78.5596 94.0156C78.3512 93.9538 78.138 93.8578 77.9199 93.7276V96.0127H77.002V88.5469H77.9199V89.1182C78.1478 88.9131 78.4001 88.7422 78.6768 88.6055C78.9567 88.4655 79.2611 88.3955 79.5898 88.3955C80.2148 88.3955 80.7015 88.6429 81.0498 89.1377C81.4014 89.6325 81.5771 90.2966 81.5771 91.1299ZM80.6299 91.2324C80.6299 90.6107 80.5306 90.1289 80.332 89.7871C80.1335 89.4421 79.8112 89.2696 79.3652 89.2696C79.1048 89.2696 78.8525 89.3281 78.6084 89.4453C78.3675 89.5593 78.138 89.7074 77.9199 89.8897V92.9805C78.1608 93.0977 78.3659 93.1774 78.5352 93.2198C78.7077 93.2621 78.9046 93.2832 79.126 93.2832C79.6012 93.2832 79.9707 93.1091 80.2344 92.7608C80.498 92.4125 80.6299 91.903 80.6299 91.2324ZM87.0166 91.2764C87.0166 92.1944 86.7952 92.904 86.3525 93.4053C85.9098 93.9033 85.3206 94.1524 84.585 94.1524C83.8265 94.1524 83.2292 93.8952 82.793 93.3809C82.36 92.8633 82.1436 92.1618 82.1436 91.2764C82.1436 90.3649 82.3665 89.6569 82.8125 89.1524C83.2617 88.6478 83.8525 88.3955 84.585 88.3955C85.3206 88.3955 85.9098 88.6478 86.3525 89.1524C86.7952 89.6537 87.0166 90.3617 87.0166 91.2764ZM86.0693 91.2764C86.0693 90.57 85.9408 90.0459 85.6836 89.7041C85.4264 89.3591 85.0602 89.1865 84.585 89.1865C84.1064 89.1865 83.737 89.3591 83.4766 89.7041C83.2194 90.0459 83.0908 90.57 83.0908 91.2764C83.0908 91.96 83.2194 92.4792 83.4766 92.834C83.737 93.1856 84.1064 93.3614 84.585 93.3614C85.057 93.3614 85.4215 93.1888 85.6787 92.8438C85.9391 92.4955 86.0693 91.973 86.0693 91.2764ZM92.2363 92.3506C92.2363 92.6143 92.1859 92.8487 92.085 93.0537C91.984 93.2556 91.8457 93.4248 91.6699 93.5615C91.4486 93.7341 91.2158 93.8513 90.9717 93.9131C90.7308 93.9717 90.4411 94.001 90.1025 94.001H87.959V88.5469H89.9609C90.3613 88.5469 90.6543 88.5599 90.8398 88.586C91.0254 88.6087 91.2093 88.6706 91.3916 88.7715C91.5837 88.8757 91.7253 89.014 91.8164 89.1865C91.9076 89.3591 91.9531 89.5642 91.9531 89.8018C91.9531 90.0622 91.8815 90.2966 91.7383 90.5049C91.5951 90.71 91.4046 90.8695 91.167 90.9834L91.1914 91.0176C91.4876 91.0925 91.735 91.2438 91.9336 91.4717C92.1354 91.6996 92.2363 91.9925 92.2363 92.3506ZM91.0107 89.9434C91.0107 89.8197 90.9896 89.7123 90.9473 89.6211C90.9082 89.53 90.8382 89.4584 90.7373 89.4063C90.6201 89.3444 90.4883 89.3086 90.3418 89.2989C90.1986 89.2858 89.9984 89.2793 89.7412 89.2793H88.8672V90.7735H89.9219C90.1465 90.7735 90.306 90.7637 90.4004 90.7442C90.4948 90.7214 90.599 90.6758 90.7129 90.6074C90.8203 90.5423 90.8968 90.4545 90.9424 90.3438C90.988 90.2331 91.0107 90.0996 91.0107 89.9434ZM91.2891 92.3555C91.2891 92.1699 91.2614 92.0218 91.2061 91.9112C91.154 91.7972 91.0368 91.6963 90.8545 91.6084C90.7406 91.5531 90.6185 91.5189 90.4883 91.5059C90.3581 91.4929 90.1774 91.4864 89.9463 91.4864H88.8672V93.2686H89.6631C89.9919 93.2686 90.2474 93.2556 90.4297 93.2295C90.612 93.2035 90.7682 93.1514 90.8984 93.0733C91.0352 92.9886 91.1344 92.891 91.1963 92.7803C91.2581 92.6696 91.2891 92.528 91.2891 92.3555ZM96.25 92.6582V91.1446C96.0319 91.1641 95.7552 91.1918 95.4199 91.2276C95.0879 91.2601 94.8193 91.3073 94.6143 91.3692C94.3701 91.444 94.1683 91.5596 94.0088 91.7158C93.8493 91.8688 93.7695 92.0837 93.7695 92.3604C93.7695 92.6729 93.8574 92.9089 94.0332 93.0684C94.209 93.2279 94.4661 93.3076 94.8047 93.3076C95.0944 93.3076 95.3564 93.2458 95.5908 93.1221C95.8252 92.9951 96.0449 92.8405 96.25 92.6582ZM96.25 93.4199C96.1751 93.4753 96.0742 93.5534 95.9473 93.6543C95.8236 93.752 95.7031 93.8301 95.5859 93.8887C95.4232 93.9733 95.2653 94.0384 95.1123 94.084C94.9626 94.1296 94.751 94.1524 94.4775 94.1524C94.2529 94.1524 94.0397 94.11 93.8379 94.0254C93.6361 93.9408 93.4587 93.822 93.3057 93.669C93.1592 93.5192 93.042 93.3353 92.9541 93.1172C92.8662 92.8959 92.8223 92.6631 92.8223 92.419C92.8223 92.0414 92.902 91.7207 93.0615 91.4571C93.221 91.1901 93.4733 90.9785 93.8184 90.8223C94.1243 90.6823 94.4857 90.5863 94.9023 90.5342C95.319 90.4789 95.7682 90.4382 96.25 90.4121V90.2364C96.25 90.0215 96.2174 89.849 96.1523 89.7188C96.0872 89.5853 95.9961 89.4828 95.8789 89.4112C95.7617 89.3363 95.6185 89.2875 95.4492 89.2647C95.2799 89.2386 95.1058 89.2256 94.9268 89.2256C94.7152 89.2256 94.4661 89.2582 94.1797 89.3233C93.8932 89.3851 93.6068 89.4763 93.3203 89.5967H93.2666V88.6641C93.4359 88.6153 93.6784 88.5615 93.9941 88.503C94.3099 88.4444 94.6224 88.4151 94.9316 88.4151C95.306 88.4151 95.6217 88.4444 95.8789 88.503C96.1361 88.5615 96.3672 88.6673 96.5723 88.8203C96.7708 88.9701 96.9189 89.1638 97.0166 89.4014C97.1143 89.639 97.1631 89.9287 97.1631 90.2705V94.001H96.25V93.4199ZM102.764 94.001H101.846V91.5449H99.375V94.001H98.457V88.5469H99.375V90.7539H101.846V88.5469H102.764V94.001ZM108.398 94.001H107.49V89.9336L104.922 94.001H104.092V88.5469H105V92.5508L107.539 88.5469H108.398V94.001ZM112.095 94.128C111.226 94.128 110.55 93.8838 110.068 93.3955C109.59 92.904 109.351 92.2074 109.351 91.3057C109.351 90.417 109.583 89.7106 110.049 89.1865C110.514 88.6592 111.123 88.3955 111.875 88.3955C112.214 88.3955 112.513 88.4444 112.773 88.542C113.034 88.6397 113.262 88.7927 113.457 89.001C113.652 89.2093 113.802 89.4649 113.906 89.7676C114.01 90.0671 114.062 90.4349 114.062 90.8711V91.3692H110.283C110.283 92.0039 110.443 92.489 110.762 92.8242C111.081 93.1595 111.522 93.3272 112.085 93.3272C112.287 93.3272 112.484 93.3044 112.676 93.2588C112.871 93.2132 113.047 93.1546 113.203 93.083C113.369 93.0082 113.509 92.9365 113.623 92.8682C113.737 92.7966 113.831 92.7298 113.906 92.668H113.96V93.669C113.853 93.7113 113.719 93.765 113.56 93.8301C113.4 93.892 113.257 93.9408 113.13 93.9766C112.951 94.0254 112.788 94.0628 112.642 94.0889C112.498 94.1149 112.316 94.128 112.095 94.128ZM113.169 90.666C113.162 90.4186 113.133 90.2054 113.081 90.0264C113.029 89.8474 112.954 89.696 112.856 89.5723C112.749 89.4356 112.611 89.3314 112.441 89.2598C112.275 89.1882 112.069 89.1524 111.821 89.1524C111.577 89.1524 111.369 89.1898 111.196 89.2647C111.027 89.3363 110.872 89.4421 110.732 89.5821C110.596 89.7253 110.492 89.8848 110.42 90.0606C110.348 90.2331 110.303 90.4349 110.283 90.666H113.169Z" fill="#303549"/>
<path d="M155 107.5H7C6.17157 107.5 5.5 106.828 5.5 106V74C5.5 73.1716 6.17157 72.5 7 72.5H155C155.828 72.5 156.5 73.1716 156.5 74V106C156.5 106.828 155.828 107.5 155 107.5Z" stroke="#0089FF"/>
<path opacity="0.8" d="M71.3077 24V26.1538H70.2308C68.4555 26.1538 67 27.6094 67 29.3846V48.7692C67 50.5445 68.4555 52 70.2308 52H91.7692C93.5445 52 95 50.5445 95 48.7692V29.3846C95 27.6094 93.5445 26.1538 91.7692 26.1538H90.6923V24H88.5385V26.1538H73.4615V24H71.3077ZM70.2308 28.3077H71.3077V30.4615H73.4615V28.3077H88.5385V30.4615H90.6923V28.3077H91.7692C92.375 28.3077 92.8462 28.7788 92.8462 29.3846V32.6154H69.1538V29.3846C69.1538 28.7788 69.625 28.3077 70.2308 28.3077ZM69.1538 34.7692H92.8462V48.7692C92.8462 49.375 92.375 49.8462 91.7692 49.8462H70.2308C69.625 49.8462 69.1538 49.375 69.1538 48.7692V34.7692ZM71.3077 36.9231V39.0769H73.4615V36.9231H71.3077ZM75.6154 36.9231V39.0769H77.7692V36.9231H75.6154ZM81 36.9231C80.4026 36.9231 79.9231 37.4026 79.9231 38V46.6154C79.9231 47.2127 80.4026 47.6923 81 47.6923H89.6154C90.2127 47.6923 90.6923 47.2127 90.6923 46.6154V38C90.6923 37.4026 90.2127 36.9231 89.6154 36.9231H81ZM82.0769 39.0769H88.5385V45.5385H82.0769V39.0769ZM71.3077 41.2308V43.3846H73.4615V41.2308H71.3077ZM75.6154 41.2308V43.3846H77.7692V41.2308H75.6154ZM71.3077 45.5385V47.6923H73.4615V45.5385H71.3077ZM75.6154 45.5385V47.6923H77.7692V45.5385H75.6154Z" fill="#D7E2F2"/>
<path opacity="0.8" d="M238.923 24V26.1558H229.231C227.456 26.1558 226 27.6126 226 29.3895V42.3242C226 44.1011 227.456 45.5579 229.231 45.5579H238.923V47.9326L230.341 49.8947L230.813 52L240 49.9032L249.188 52L249.659 49.8947L241.077 47.9326V45.5579H250.769C252.544 45.5579 254 44.1011 254 42.3242V29.3895C254 27.6126 252.544 26.1558 250.769 26.1558H241.077V24H238.923ZM229.231 28.3116H250.769C251.375 28.3116 251.846 28.7832 251.846 29.3895V42.3242C251.846 42.9305 251.375 43.4021 250.769 43.4021H229.231C228.625 43.4021 228.154 42.9305 228.154 42.3242V29.3895C228.154 28.7832 228.625 28.3116 229.231 28.3116ZM245.393 30.9558L239.95 36.1937L235.659 32.6484L230.392 37.4905L231.839 39.0737L235.726 35.5032L240.05 39.0737L245.486 33.8526L248.186 36.1432L249.583 34.4926L245.393 30.9558Z" fill="#D7E2F2"/>
</svg>
