<svg width="324" height="117" viewBox="0 0 324 117" fill="none" xmlns="http://www.w3.org/2000/svg">
<path d="M324 0H0V117H324V0Z" fill="#F5F8FD"/>
<path d="M317 67H7C5.89543 67 5 67.8954 5 69V105C5 106.105 5.89543 107 7 107H317C318.105 107 319 106.105 319 105V69C319 67.8954 318.105 67 317 67Z" fill="white" fill-opacity="0.5"/>
<path d="M259 67H317C318.105 67 319 67.8954 319 69V105C319 106.105 318.105 107 317 107H259V67Z" fill="#EBF1F9"/>
<path d="M280.074 91.7637H275.82V90.873H277.402V85.0254H275.82V84.2285C276.418 84.2285 276.857 84.1445 277.139 83.9766C277.424 83.8047 277.584 83.4824 277.619 83.0098H278.527V90.873H280.074V91.7637ZM287.164 84.3457L283.391 91.7637H282.142L286.139 84.0645H281.627V83.0391H287.164V84.3457ZM296.1 85.0723C296.1 84.6816 295.969 84.3555 295.707 84.0938C295.445 83.832 295.082 83.7012 294.617 83.7012C294.191 83.7012 293.842 83.8184 293.568 84.0527C293.299 84.2871 293.164 84.6035 293.164 85.002C293.164 85.291 293.232 85.5352 293.369 85.7344C293.51 85.9336 293.719 86.1133 293.996 86.2734C294.117 86.3398 294.301 86.4316 294.547 86.5488C294.797 86.666 295.023 86.7578 295.226 86.8242C295.566 86.5625 295.797 86.2949 295.918 86.0215C296.039 85.7441 296.1 85.4277 296.1 85.0723ZM296.264 89.4434C296.264 89.084 296.193 88.7988 296.053 88.5879C295.912 88.377 295.641 88.1621 295.238 87.9434C295.105 87.8691 294.928 87.7891 294.705 87.7031C294.486 87.6172 294.238 87.5156 293.961 87.3984C293.637 87.6133 293.389 87.8789 293.217 88.1953C293.045 88.5078 292.959 88.8652 292.959 89.2676C292.959 89.7949 293.117 90.2305 293.434 90.5742C293.754 90.918 294.154 91.0898 294.635 91.0898C295.127 91.0898 295.521 90.9434 295.818 90.6504C296.115 90.3535 296.264 89.9512 296.264 89.4434ZM294.623 91.9629C294.189 91.9629 293.795 91.8984 293.439 91.7695C293.084 91.6406 292.781 91.4551 292.531 91.2129C292.285 90.9785 292.098 90.7012 291.969 90.3809C291.844 90.0566 291.781 89.7148 291.781 89.3555C291.781 88.8828 291.906 88.4492 292.156 88.0547C292.41 87.6562 292.777 87.3398 293.258 87.1055V87.0703C292.828 86.8203 292.51 86.5469 292.303 86.25C292.096 85.9531 291.992 85.582 291.992 85.1367C291.992 84.4805 292.24 83.9336 292.736 83.4961C293.232 83.0586 293.861 82.8398 294.623 82.8398C295.416 82.8398 296.051 83.0488 296.527 83.4668C297.008 83.8809 297.248 84.4121 297.248 85.0605C297.248 85.4512 297.133 85.8379 296.902 86.2207C296.676 86.6035 296.348 86.9023 295.918 87.1172V87.1523C296.426 87.3906 296.81 87.6797 297.072 88.0195C297.334 88.3594 297.465 88.7969 297.465 89.332C297.465 90.0781 297.193 90.7031 296.65 91.207C296.111 91.7109 295.435 91.9629 294.623 91.9629ZM303.822 88.9863C303.822 89.4082 303.754 89.7988 303.617 90.1582C303.484 90.5176 303.297 90.8281 303.055 91.0898C302.809 91.3555 302.502 91.5645 302.135 91.7168C301.771 91.8691 301.363 91.9453 300.91 91.9453C300.492 91.9453 300.08 91.8984 299.674 91.8047C299.271 91.7148 298.922 91.5957 298.625 91.4473V90.2109H298.707C298.797 90.2773 298.926 90.3535 299.094 90.4395C299.262 90.5215 299.447 90.5996 299.65 90.6738C299.881 90.7559 300.092 90.8203 300.283 90.8672C300.475 90.9102 300.689 90.9316 300.928 90.9316C301.162 90.9316 301.391 90.8906 301.613 90.8086C301.836 90.7227 302.027 90.5859 302.187 90.3984C302.332 90.2266 302.441 90.0254 302.516 89.7949C302.594 89.5645 302.633 89.293 302.633 88.9805C302.633 88.6719 302.59 88.418 302.504 88.2188C302.422 88.0195 302.301 87.8555 302.141 87.7266C301.973 87.5781 301.766 87.4746 301.519 87.416C301.277 87.3535 301.006 87.3223 300.705 87.3223C300.389 87.3223 300.07 87.3477 299.75 87.3984C299.43 87.4453 299.174 87.4902 298.982 87.5332V83.0391H303.769V84.0645H300.113V86.3848C300.254 86.3691 300.392 86.3574 300.529 86.3496C300.666 86.3418 300.791 86.3379 300.904 86.3379C301.35 86.3379 301.726 86.375 302.035 86.4492C302.344 86.5234 302.641 86.668 302.926 86.8828C303.215 87.1016 303.435 87.375 303.588 87.7031C303.744 88.0312 303.822 88.459 303.822 88.9863ZM310.607 88.9336C310.607 89.3828 310.533 89.7969 310.385 90.1758C310.236 90.5547 310.037 90.8711 309.787 91.125C309.525 91.3945 309.232 91.5996 308.908 91.7402C308.584 91.877 308.226 91.9453 307.836 91.9453C307.441 91.9453 307.082 91.8789 306.758 91.7461C306.437 91.6133 306.154 91.416 305.908 91.1543C305.607 90.8379 305.371 90.416 305.199 89.8887C305.031 89.3574 304.947 88.7051 304.947 87.9316C304.947 87.1738 305.025 86.4902 305.182 85.8809C305.338 85.2676 305.578 84.7344 305.902 84.2812C306.219 83.8398 306.627 83.4961 307.127 83.25C307.627 83 308.205 82.875 308.861 82.875C309.057 82.875 309.238 82.8848 309.406 82.9043C309.574 82.9238 309.723 82.9551 309.851 82.998V84.1172H309.799C309.693 84.0586 309.541 84.0059 309.342 83.959C309.142 83.9082 308.93 83.8828 308.703 83.8828C307.976 83.8828 307.389 84.1289 306.939 84.6211C306.494 85.1094 306.23 85.8359 306.148 86.8008C306.426 86.6055 306.711 86.4551 307.004 86.3496C307.297 86.2441 307.617 86.1914 307.965 86.1914C308.305 86.1914 308.601 86.2266 308.855 86.2969C309.113 86.3633 309.381 86.5 309.658 86.707C309.978 86.9492 310.217 87.2559 310.373 87.627C310.529 87.998 310.607 88.4336 310.607 88.9336ZM309.418 88.9805C309.418 88.6211 309.371 88.3203 309.277 88.0781C309.184 87.8359 309.031 87.6289 308.82 87.457C308.668 87.332 308.494 87.25 308.299 87.2109C308.107 87.1719 307.91 87.1523 307.707 87.1523C307.434 87.1523 307.168 87.1934 306.91 87.2754C306.652 87.3574 306.398 87.4766 306.148 87.6328C306.141 87.7188 306.135 87.8027 306.131 87.8848C306.127 87.9629 306.125 88.0625 306.125 88.1836C306.125 88.7891 306.184 89.2773 306.301 89.6484C306.422 90.0195 306.57 90.3008 306.746 90.4922C306.914 90.6758 307.086 90.8047 307.262 90.8789C307.441 90.9531 307.635 90.9902 307.842 90.9902C308.31 90.9902 308.689 90.8223 308.978 90.4863C309.271 90.1504 309.418 89.6484 309.418 88.9805Z" fill="#303549"/>
<path d="M59.271 82.0723H58.4009V76.4341L56.6958 80.2705H56.1685L54.4766 76.4341V82.0723H53.6636V75.5288H54.8501L56.4849 79.1719L58.0625 75.5288H59.271V82.0723ZM63.2744 80.8638V79.5015C63.0781 79.519 62.8291 79.5439 62.5273 79.5762C62.2285 79.6055 61.9868 79.6479 61.8022 79.7036C61.5825 79.771 61.4009 79.875 61.2573 80.0156C61.1138 80.1533 61.042 80.3467 61.042 80.5957C61.042 80.877 61.1211 81.0894 61.2793 81.2329C61.4375 81.3765 61.6689 81.4482 61.9736 81.4482C62.2344 81.4482 62.4702 81.3926 62.6812 81.2812C62.8921 81.167 63.0898 81.0278 63.2744 80.8638ZM63.2744 81.5493C63.207 81.5991 63.1162 81.6694 63.002 81.7603C62.8906 81.8481 62.7822 81.9185 62.6768 81.9712C62.5303 82.0474 62.3882 82.106 62.2505 82.147C62.1157 82.188 61.9253 82.2085 61.6792 82.2085C61.4771 82.2085 61.2852 82.1704 61.1035 82.0942C60.9219 82.0181 60.7622 81.9111 60.6245 81.7734C60.4927 81.6387 60.3872 81.4731 60.3081 81.2769C60.229 81.0776 60.1895 80.8682 60.1895 80.6484C60.1895 80.3086 60.2612 80.02 60.4048 79.7827C60.5483 79.5425 60.7754 79.3521 61.0859 79.2114C61.3613 79.0854 61.6865 78.999 62.0615 78.9521C62.4365 78.9023 62.8408 78.8657 63.2744 78.8423V78.6841C63.2744 78.4907 63.2451 78.3354 63.1865 78.2183C63.1279 78.0981 63.0459 78.0059 62.9404 77.9414C62.835 77.874 62.7061 77.8301 62.5537 77.8096C62.4014 77.7861 62.2446 77.7744 62.0835 77.7744C61.8931 77.7744 61.6689 77.8037 61.4111 77.8623C61.1533 77.918 60.8955 78 60.6377 78.1084H60.5894V77.269C60.7417 77.2251 60.96 77.1768 61.2441 77.124C61.5283 77.0713 61.8096 77.0449 62.0879 77.0449C62.4248 77.0449 62.709 77.0713 62.9404 77.124C63.1719 77.1768 63.3799 77.272 63.5645 77.4097C63.7432 77.5444 63.8765 77.7188 63.9644 77.9326C64.0522 78.1465 64.0962 78.4072 64.0962 78.7148V82.0723H63.2744V81.5493ZM67.2119 82.1821C66.875 82.1821 66.5659 82.1309 66.2847 82.0283C66.0034 81.9229 65.7617 81.7646 65.5596 81.5537C65.3574 81.3428 65.2007 81.0776 65.0894 80.7583C64.978 80.436 64.9224 80.0581 64.9224 79.6245C64.9224 79.1938 64.9795 78.8218 65.0938 78.5083C65.2109 78.1948 65.3662 77.9312 65.5596 77.7173C65.7529 77.5034 65.9932 77.3394 66.2803 77.2251C66.5703 77.1079 66.8809 77.0493 67.2119 77.0493C67.4814 77.0493 67.7407 77.0874 67.9897 77.1636C68.2417 77.2397 68.4658 77.3276 68.6621 77.4272V78.3545H68.6138C68.5552 78.3047 68.479 78.2476 68.3853 78.1831C68.2944 78.1187 68.1831 78.0527 68.0513 77.9854C67.937 77.9268 67.8022 77.8755 67.647 77.8315C67.4917 77.7876 67.3423 77.7656 67.1987 77.7656C66.771 77.7656 66.4268 77.9282 66.166 78.2534C65.9082 78.5757 65.7793 79.0327 65.7793 79.6245C65.7793 80.2046 65.9038 80.6572 66.1528 80.9824C66.4048 81.3047 66.7534 81.4658 67.1987 81.4658C67.4683 81.4658 67.7246 81.4102 67.9678 81.2988C68.2109 81.1875 68.4263 81.0439 68.6138 80.8682H68.6621V81.7954C68.5801 81.8335 68.4775 81.8804 68.3545 81.936C68.2314 81.9888 68.1201 82.0283 68.0205 82.0547C67.8799 82.0957 67.7539 82.1265 67.6426 82.147C67.5312 82.1704 67.3877 82.1821 67.2119 82.1821ZM73.2192 82.0723H72.3931V77.8579H70.7056C70.6968 78.1011 70.688 78.3354 70.6792 78.561C70.6704 78.7837 70.6616 78.9858 70.6528 79.1675C70.6353 79.6274 70.6045 80.0127 70.5605 80.3232C70.5195 80.6338 70.4668 80.8828 70.4023 81.0703C70.3379 81.2637 70.2661 81.4146 70.187 81.5229C70.1108 81.6313 70.0244 81.7295 69.9277 81.8174C69.8281 81.9053 69.7212 81.9712 69.6069 82.0151C69.4927 82.0591 69.3638 82.0811 69.2202 82.0811C69.1733 82.0811 69.1133 82.0796 69.04 82.0767C68.9668 82.0737 68.9155 82.0723 68.8862 82.0723V81.3516H68.9302C68.9507 81.3516 68.9712 81.353 68.9917 81.356C69.0151 81.3589 69.0415 81.3604 69.0708 81.3604C69.1411 81.3604 69.21 81.3501 69.2773 81.3296C69.3447 81.3091 69.4048 81.271 69.4575 81.2153C69.604 81.0718 69.7109 80.8213 69.7783 80.4639C69.8457 80.1035 69.894 79.6011 69.9233 78.9565C69.9351 78.7163 69.9453 78.4321 69.9541 78.104C69.9658 77.7759 69.9761 77.4624 69.9849 77.1636H73.2192V82.0723ZM77.9741 82.0723H77.1479V80.1255H76.3306L74.876 82.0723H73.9136L75.4912 80.0508C75.084 79.9307 74.7852 79.752 74.5947 79.5146C74.4072 79.2773 74.3135 78.9595 74.3135 78.561C74.3135 78.3179 74.3662 78.1055 74.4717 77.9238C74.5801 77.7393 74.7251 77.584 74.9067 77.458C75.0532 77.3584 75.2378 77.2852 75.4604 77.2383C75.6831 77.1885 75.9321 77.1636 76.2075 77.1636H77.9741V82.0723ZM77.1479 79.4751V77.8228H76.2515C76.061 77.8228 75.9102 77.833 75.7988 77.8535C75.6904 77.874 75.585 77.9136 75.4824 77.9722C75.377 78.0366 75.2964 78.1245 75.2407 78.2358C75.188 78.3442 75.1616 78.4614 75.1616 78.5874C75.1616 78.7485 75.1792 78.8804 75.2144 78.9829C75.2524 79.0825 75.3198 79.1748 75.4165 79.2598C75.519 79.3477 75.6436 79.4062 75.79 79.4355C75.9395 79.4619 76.1021 79.4751 76.2778 79.4751H77.1479ZM83.0498 82.0723H82.2236V79.8618H80V82.0723H79.1738V77.1636H80V79.1499H82.2236V77.1636H83.0498V82.0723ZM87.8882 80.5518C87.8882 80.7891 87.8398 81.0044 87.7432 81.1978C87.6494 81.3911 87.5205 81.5479 87.3564 81.668C87.1631 81.8145 86.9565 81.9185 86.7368 81.98C86.5171 82.0415 86.2344 82.0723 85.8887 82.0723H84.2451V77.1636H85.0713V79.0752H85.9106C86.2798 79.0752 86.5654 79.0942 86.7676 79.1323C86.9727 79.1704 87.1763 79.2642 87.3784 79.4136C87.5483 79.5396 87.6758 79.7007 87.7607 79.897C87.8457 80.0933 87.8882 80.3115 87.8882 80.5518ZM87.0356 80.5649C87.0356 80.4155 87.0093 80.2852 86.9565 80.1738C86.9067 80.0596 86.8232 79.9673 86.7061 79.897C86.583 79.8237 86.4424 79.7798 86.2842 79.7651C86.1289 79.7505 85.9048 79.7432 85.6118 79.7432H85.0713V81.4131H85.5942C85.8872 81.4131 86.1143 81.4014 86.2754 81.3779C86.4365 81.3516 86.5757 81.3032 86.6929 81.2329C86.813 81.1567 86.8994 81.0674 86.9521 80.9648C87.0078 80.8594 87.0356 80.7261 87.0356 80.5649ZM89.2856 82.0723H88.4595V77.1636H89.2856V82.0723ZM92.6167 82.1865C91.8345 82.1865 91.2266 81.9668 90.793 81.5273C90.3623 81.085 90.147 80.458 90.147 79.6465C90.147 78.8467 90.3564 78.2109 90.7754 77.7393C91.1943 77.2646 91.7422 77.0273 92.4189 77.0273C92.7236 77.0273 92.9932 77.0713 93.2275 77.1592C93.4619 77.2471 93.667 77.3848 93.8428 77.5723C94.0186 77.7598 94.1533 77.9897 94.2471 78.2622C94.3408 78.5317 94.3877 78.8628 94.3877 79.2554V79.7036H90.9863C90.9863 80.2749 91.1299 80.7114 91.417 81.0132C91.7041 81.3149 92.1011 81.4658 92.6079 81.4658C92.7896 81.4658 92.9668 81.4453 93.1396 81.4043C93.3154 81.3633 93.4736 81.3105 93.6143 81.2461C93.7637 81.1787 93.8896 81.1143 93.9922 81.0527C94.0947 80.9883 94.1797 80.9282 94.2471 80.8726H94.2954V81.7734C94.1987 81.8115 94.0786 81.8599 93.9351 81.9185C93.7915 81.9741 93.6626 82.0181 93.5483 82.0503C93.3872 82.0942 93.2407 82.1279 93.1089 82.1514C92.98 82.1748 92.8159 82.1865 92.6167 82.1865ZM93.5835 79.0708C93.5776 78.8481 93.5513 78.6562 93.5044 78.4951C93.4575 78.334 93.3901 78.1978 93.3022 78.0864C93.2056 77.9634 93.0811 77.8696 92.9287 77.8052C92.7793 77.7407 92.5933 77.7085 92.3706 77.7085C92.1509 77.7085 91.9634 77.7422 91.8081 77.8096C91.6558 77.874 91.5166 77.9692 91.3906 78.0952C91.2676 78.2241 91.1738 78.3677 91.1094 78.5259C91.0449 78.6812 91.0039 78.8628 90.9863 79.0708H93.5835ZM102.245 83.25H101.476V82.0591H98.2417V83.25H97.4727V81.3691H97.7979C98.0762 80.9121 98.3032 80.3159 98.479 79.5806C98.6577 78.8423 98.7471 78.0366 98.7471 77.1636H101.757V81.3691H102.245V83.25ZM100.931 81.3691V77.8579H99.5249C99.4868 78.5903 99.3857 79.2598 99.2217 79.8662C99.0605 80.4697 98.8569 80.9707 98.6108 81.3691H100.931ZM106.938 82.0723H106.121V78.4116L103.81 82.0723H103.062V77.1636H103.88V80.7671L106.165 77.1636H106.938V82.0723ZM110.085 82.1821C109.748 82.1821 109.439 82.1309 109.158 82.0283C108.876 81.9229 108.635 81.7646 108.433 81.5537C108.23 81.3428 108.074 81.0776 107.962 80.7583C107.851 80.436 107.795 80.0581 107.795 79.6245C107.795 79.1938 107.853 78.8218 107.967 78.5083C108.084 78.1948 108.239 77.9312 108.433 77.7173C108.626 77.5034 108.866 77.3394 109.153 77.2251C109.443 77.1079 109.754 77.0493 110.085 77.0493C110.354 77.0493 110.614 77.0874 110.863 77.1636C111.115 77.2397 111.339 77.3276 111.535 77.4272V78.3545H111.487C111.428 78.3047 111.352 78.2476 111.258 78.1831C111.167 78.1187 111.056 78.0527 110.924 77.9854C110.81 77.9268 110.675 77.8755 110.52 77.8315C110.365 77.7876 110.215 77.7656 110.072 77.7656C109.644 77.7656 109.3 77.9282 109.039 78.2534C108.781 78.5757 108.652 79.0327 108.652 79.6245C108.652 80.2046 108.777 80.6572 109.026 80.9824C109.278 81.3047 109.626 81.4658 110.072 81.4658C110.341 81.4658 110.598 81.4102 110.841 81.2988C111.084 81.1875 111.299 81.0439 111.487 80.8682H111.535V81.7954C111.453 81.8335 111.351 81.8804 111.228 81.936C111.104 81.9888 110.993 82.0283 110.894 82.0547C110.753 82.0957 110.627 82.1265 110.516 82.147C110.404 82.1704 110.261 82.1821 110.085 82.1821ZM115.877 77.8887H114.207V82.0723H113.381V77.8887H111.711V77.1636H115.877V77.8887ZM120.368 82.0723H119.551V78.4116L117.239 82.0723H116.492V77.1636H117.31V80.7671L119.595 77.1636H120.368V82.0723ZM125.365 82.0723H124.539V77.8579H122.851C122.842 78.1011 122.833 78.3354 122.825 78.561C122.816 78.7837 122.807 78.9858 122.798 79.1675C122.781 79.6274 122.75 80.0127 122.706 80.3232C122.665 80.6338 122.612 80.8828 122.548 81.0703C122.483 81.2637 122.412 81.4146 122.333 81.5229C122.256 81.6313 122.17 81.7295 122.073 81.8174C121.974 81.9053 121.867 81.9712 121.752 82.0151C121.638 82.0591 121.509 82.0811 121.366 82.0811C121.319 82.0811 121.259 82.0796 121.186 82.0767C121.112 82.0737 121.061 82.0723 121.032 82.0723V81.3516H121.076C121.096 81.3516 121.117 81.353 121.137 81.356C121.161 81.3589 121.187 81.3604 121.216 81.3604C121.287 81.3604 121.355 81.3501 121.423 81.3296C121.49 81.3091 121.55 81.271 121.603 81.2153C121.75 81.0718 121.856 80.8213 121.924 80.4639C121.991 80.1035 122.04 79.6011 122.069 78.9565C122.081 78.7163 122.091 78.4321 122.1 78.104C122.111 77.7759 122.122 77.4624 122.13 77.1636H125.365V82.0723ZM130.12 82.0723H129.293V80.1255H128.476L127.021 82.0723H126.059L127.637 80.0508C127.229 79.9307 126.931 79.752 126.74 79.5146C126.553 79.2773 126.459 78.9595 126.459 78.561C126.459 78.3179 126.512 78.1055 126.617 77.9238C126.726 77.7393 126.871 77.584 127.052 77.458C127.199 77.3584 127.383 77.2852 127.606 77.2383C127.829 77.1885 128.078 77.1636 128.353 77.1636H130.12V82.0723ZM129.293 79.4751V77.8228H128.397C128.207 77.8228 128.056 77.833 127.944 77.8535C127.836 77.874 127.73 77.9136 127.628 77.9722C127.522 78.0366 127.442 78.1245 127.386 78.2358C127.333 78.3442 127.307 78.4614 127.307 78.5874C127.307 78.7485 127.325 78.8804 127.36 78.9829C127.398 79.0825 127.465 79.1748 127.562 79.2598C127.665 79.3477 127.789 79.4062 127.936 79.4355C128.085 79.4619 128.248 79.4751 128.423 79.4751H129.293ZM134.905 77.8887H133.235V82.0723H132.409V77.8887H130.739V77.1636H134.905V77.8887ZM139.164 80.5518C139.164 80.7891 139.115 81.0044 139.019 81.1978C138.925 81.3911 138.796 81.5479 138.632 81.668C138.438 81.8145 138.232 81.9185 138.012 81.98C137.792 82.0415 137.51 82.0723 137.164 82.0723H135.521V77.1636H136.347V79.0752H137.186C137.555 79.0752 137.841 79.0942 138.043 79.1323C138.248 79.1704 138.452 79.2642 138.654 79.4136C138.824 79.5396 138.951 79.7007 139.036 79.897C139.121 80.0933 139.164 80.3115 139.164 80.5518ZM138.311 80.5649C138.311 80.4155 138.285 80.2852 138.232 80.1738C138.182 80.0596 138.099 79.9673 137.981 79.897C137.858 79.8237 137.718 79.7798 137.56 79.7651C137.404 79.7505 137.18 79.7432 136.887 79.7432H136.347V81.4131H136.87C137.163 81.4131 137.39 81.4014 137.551 81.3779C137.712 81.3516 137.851 81.3032 137.968 81.2329C138.088 81.1567 138.175 81.0674 138.228 80.9648C138.283 80.8594 138.311 80.7261 138.311 80.5649ZM140.561 82.0723H139.735V77.1636H140.561V82.0723Z" fill="#303549"/>
<path d="M248 92.5H55C54.1716 92.5 53.5 93.1716 53.5 94V98C53.5 98.8284 54.1716 99.5 55 99.5H248C248.828 99.5 249.5 98.8284 249.5 98V94C249.5 93.1716 248.828 92.5 248 92.5Z" stroke="#D7E2F2"/>
<path d="M67.8668 94H55V98H67.8668V94Z" fill="#0089FF"/>
<path d="M80.7336 94H67.8668V98H80.7336V94Z" fill="#0089FF"/>
<path d="M93.6 94H80.7332V98H93.6V94Z" fill="#0089FF"/>
<path d="M106.467 94H93.6V98H106.467V94Z" fill="#0089FF"/>
<path d="M119.333 94H106.466V98H119.333V94Z" fill="#0089FF"/>
<path d="M132.2 94H119.333V98H132.2V94Z" fill="#0089FF"/>
<path d="M145.067 94H132.2V98H145.067V94Z" fill="#0089FF"/>
<path d="M157.934 94H145.067V98H157.934V94Z" fill="#0089FF"/>
<path d="M170.8 94H157.933V98H170.8V94Z" fill="#0089FF"/>
<path d="M183.667 94H170.8V98H183.667V94Z" fill="#0089FF"/>
<path d="M196.534 94H183.667V98H196.534V94Z" fill="#0089FF"/>
<path d="M209.4 94H196.533V98H209.4V94Z" fill="#0089FF"/>
<path d="M222.267 94H209.4V98H222.267V94Z" fill="#0089FF"/>
<path d="M235.133 94H222.266V98H235.133V94Z" fill="#0089FF"/>
<path d="M248 94H235.133V98H248V94Z" fill="#0089FF"/>
<path d="M5.5 69C5.5 68.1715 6.17157 67.5 7 67.5H44.5V106.5H7C6.1715 106.5 5.5 105.829 5.5 105V69Z" fill="#EBF1F9" fill-opacity="0.5" stroke="#D7E2F2"/>
<path d="M25 84.3496V86.8996" stroke="#8C99B2" stroke-width="1.2" stroke-miterlimit="10" stroke-linecap="round" stroke-linejoin="round"/>
<path d="M25 89V89.2" stroke="#8C99B2" stroke-width="1.2" stroke-miterlimit="10" stroke-linecap="round" stroke-linejoin="round"/>
<path d="M32.0003 87.0003L25 80L17.9997 87.0003L25 94.0006L32.0003 87.0003Z" stroke="#8C99B2" stroke-width="1.2" stroke-miterlimit="10" stroke-linecap="round" stroke-linejoin="round"/>
<path d="M317 67.5H7C6.17157 67.5 5.5 68.1716 5.5 69V105C5.5 105.828 6.17157 106.5 7 106.5H317C317.828 106.5 318.5 105.828 318.5 105V69C318.5 68.1716 317.828 67.5 317 67.5Z" stroke="#D7E2F2"/>
<path d="M317 12H7C5.89543 12 5 12.8954 5 14V50C5 51.1046 5.89543 52 7 52H317C318.105 52 319 51.1046 319 50V14C319 12.8954 318.105 12 317 12Z" fill="white" fill-opacity="0.5"/>
<path d="M259 12H317C318.105 12 319 12.8954 319 14V50C319 51.1046 318.105 52 317 52H259V12Z" fill="#EBF1F9"/>
<path d="M280.074 30.7637H275.82V29.873H277.402V24.0254H275.82V23.2285C276.418 23.2285 276.857 23.1445 277.139 22.9766C277.424 22.8047 277.584 22.4824 277.619 22.0098H278.527V29.873H280.074V30.7637ZM287.164 23.3457L283.391 30.7637H282.142L286.139 23.0645H281.627V22.0391H287.164V23.3457ZM297.271 27.9863C297.271 28.4082 297.203 28.7988 297.066 29.1582C296.934 29.5176 296.746 29.8281 296.504 30.0898C296.258 30.3555 295.951 30.5645 295.584 30.7168C295.221 30.8691 294.812 30.9453 294.359 30.9453C293.941 30.9453 293.529 30.8984 293.123 30.8047C292.721 30.7148 292.371 30.5957 292.074 30.4473V29.2109H292.156C292.246 29.2773 292.375 29.3535 292.543 29.4395C292.711 29.5215 292.896 29.5996 293.1 29.6738C293.33 29.7559 293.541 29.8203 293.732 29.8672C293.924 29.9102 294.139 29.9316 294.377 29.9316C294.611 29.9316 294.84 29.8906 295.062 29.8086C295.285 29.7227 295.476 29.5859 295.637 29.3984C295.781 29.2266 295.891 29.0254 295.965 28.7949C296.043 28.5645 296.082 28.293 296.082 27.9805C296.082 27.6719 296.039 27.418 295.953 27.2188C295.871 27.0195 295.75 26.8555 295.59 26.7266C295.422 26.5781 295.215 26.4746 294.969 26.416C294.726 26.3535 294.455 26.3223 294.154 26.3223C293.838 26.3223 293.519 26.3477 293.199 26.3984C292.879 26.4453 292.623 26.4902 292.432 26.5332V22.0391H297.219V23.0645H293.562V25.3848C293.703 25.3691 293.842 25.3574 293.978 25.3496C294.115 25.3418 294.24 25.3379 294.353 25.3379C294.799 25.3379 295.176 25.375 295.484 25.4492C295.793 25.5234 296.09 25.668 296.375 25.8828C296.664 26.1016 296.885 26.375 297.037 26.7031C297.193 27.0312 297.271 27.459 297.271 27.9863ZM302.65 24.0723C302.65 23.6816 302.519 23.3555 302.258 23.0938C301.996 22.832 301.633 22.7012 301.168 22.7012C300.742 22.7012 300.392 22.8184 300.119 23.0527C299.85 23.2871 299.715 23.6035 299.715 24.002C299.715 24.291 299.783 24.5352 299.92 24.7344C300.06 24.9336 300.269 25.1133 300.547 25.2734C300.668 25.3398 300.851 25.4316 301.098 25.5488C301.348 25.666 301.574 25.7578 301.777 25.8242C302.117 25.5625 302.348 25.2949 302.469 25.0215C302.59 24.7441 302.65 24.4277 302.65 24.0723ZM302.814 28.4434C302.814 28.084 302.744 27.7988 302.603 27.5879C302.463 27.377 302.191 27.1621 301.789 26.9434C301.656 26.8691 301.478 26.7891 301.256 26.7031C301.037 26.6172 300.789 26.5156 300.512 26.3984C300.187 26.6133 299.939 26.8789 299.767 27.1953C299.596 27.5078 299.51 27.8652 299.51 28.2676C299.51 28.7949 299.668 29.2305 299.984 29.5742C300.305 29.918 300.705 30.0898 301.185 30.0898C301.678 30.0898 302.072 29.9434 302.369 29.6504C302.666 29.3535 302.814 28.9512 302.814 28.4434ZM301.174 30.9629C300.74 30.9629 300.346 30.8984 299.99 30.7695C299.635 30.6406 299.332 30.4551 299.082 30.2129C298.836 29.9785 298.648 29.7012 298.519 29.3809C298.394 29.0566 298.332 28.7148 298.332 28.3555C298.332 27.8828 298.457 27.4492 298.707 27.0547C298.961 26.6562 299.328 26.3398 299.809 26.1055V26.0703C299.379 25.8203 299.06 25.5469 298.853 25.25C298.646 24.9531 298.543 24.582 298.543 24.1367C298.543 23.4805 298.791 22.9336 299.287 22.4961C299.783 22.0586 300.412 21.8398 301.174 21.8398C301.967 21.8398 302.601 22.0488 303.078 22.4668C303.559 22.8809 303.799 23.4121 303.799 24.0605C303.799 24.4512 303.684 24.8379 303.453 25.2207C303.226 25.6035 302.898 25.9023 302.469 26.1172V26.1523C302.976 26.3906 303.361 26.6797 303.623 27.0195C303.885 27.3594 304.016 27.7969 304.016 28.332C304.016 29.0781 303.744 29.7031 303.201 30.207C302.662 30.7109 301.986 30.9629 301.174 30.9629ZM310.607 27.9336C310.607 28.3828 310.533 28.7969 310.385 29.1758C310.236 29.5547 310.037 29.8711 309.787 30.125C309.525 30.3945 309.232 30.5996 308.908 30.7402C308.584 30.877 308.226 30.9453 307.836 30.9453C307.441 30.9453 307.082 30.8789 306.758 30.7461C306.437 30.6133 306.154 30.416 305.908 30.1543C305.607 29.8379 305.371 29.416 305.199 28.8887C305.031 28.3574 304.947 27.7051 304.947 26.9316C304.947 26.1738 305.025 25.4902 305.182 24.8809C305.338 24.2676 305.578 23.7344 305.902 23.2812C306.219 22.8398 306.627 22.4961 307.127 22.25C307.627 22 308.205 21.875 308.861 21.875C309.057 21.875 309.238 21.8848 309.406 21.9043C309.574 21.9238 309.723 21.9551 309.851 21.998V23.1172H309.799C309.693 23.0586 309.541 23.0059 309.342 22.959C309.142 22.9082 308.93 22.8828 308.703 22.8828C307.976 22.8828 307.389 23.1289 306.939 23.6211C306.494 24.1094 306.23 24.8359 306.148 25.8008C306.426 25.6055 306.711 25.4551 307.004 25.3496C307.297 25.2441 307.617 25.1914 307.965 25.1914C308.305 25.1914 308.601 25.2266 308.855 25.2969C309.113 25.3633 309.381 25.5 309.658 25.707C309.978 25.9492 310.217 26.2559 310.373 26.627C310.529 26.998 310.607 27.4336 310.607 27.9336ZM309.418 27.9805C309.418 27.6211 309.371 27.3203 309.277 27.0781C309.184 26.8359 309.031 26.6289 308.82 26.457C308.668 26.332 308.494 26.25 308.299 26.2109C308.107 26.1719 307.91 26.1523 307.707 26.1523C307.434 26.1523 307.168 26.1934 306.91 26.2754C306.652 26.3574 306.398 26.4766 306.148 26.6328C306.141 26.7188 306.135 26.8027 306.131 26.8848C306.127 26.9629 306.125 27.0625 306.125 27.1836C306.125 27.7891 306.184 28.2773 306.301 28.6484C306.422 29.0195 306.57 29.3008 306.746 29.4922C306.914 29.6758 307.086 29.8047 307.262 29.8789C307.441 29.9531 307.635 29.9902 307.842 29.9902C308.31 29.9902 308.689 29.8223 308.978 29.4863C309.271 29.1504 309.418 28.6484 309.418 27.9805Z" fill="#303549"/>
<path d="M285.228 43.9688H281.684V43.2266H283.002V38.3535H281.684V37.6895C282.182 37.6895 282.548 37.6195 282.782 37.4795C283.02 37.3363 283.153 37.0677 283.183 36.6738H283.939V43.2266H285.228V43.9688ZM290.975 41.6543C290.975 42.0059 290.919 42.3314 290.805 42.6309C290.694 42.9303 290.538 43.1891 290.336 43.4072C290.131 43.6286 289.875 43.8027 289.569 43.9297C289.267 44.0566 288.926 44.1201 288.549 44.1201C288.2 44.1201 287.857 44.0811 287.518 44.0029C287.183 43.9281 286.892 43.8288 286.644 43.7051V42.6748H286.713C286.788 42.7301 286.895 42.7936 287.035 42.8652C287.175 42.9336 287.33 42.9987 287.499 43.0605C287.691 43.1289 287.867 43.1826 288.026 43.2217C288.186 43.2575 288.365 43.2754 288.563 43.2754C288.759 43.2754 288.949 43.2412 289.135 43.1729C289.32 43.1012 289.48 42.9873 289.613 42.8311C289.734 42.6878 289.825 42.5202 289.887 42.3281C289.952 42.1361 289.984 41.9098 289.984 41.6494C289.984 41.3923 289.948 41.1807 289.877 41.0146C289.809 40.8486 289.708 40.7119 289.574 40.6045C289.434 40.4808 289.262 40.3945 289.057 40.3457C288.855 40.2936 288.628 40.2676 288.378 40.2676C288.114 40.2676 287.849 40.2887 287.582 40.3311C287.315 40.3701 287.102 40.4076 286.942 40.4434V36.6982H290.932V37.5527H287.885V39.4863C288.002 39.4733 288.117 39.4635 288.231 39.457C288.345 39.4505 288.449 39.4473 288.544 39.4473C288.915 39.4473 289.229 39.4782 289.486 39.54C289.743 39.6019 289.991 39.7223 290.228 39.9014C290.469 40.0837 290.653 40.3115 290.78 40.585C290.91 40.8584 290.975 41.2148 290.975 41.6543ZM299.642 43.9688H295.155V42.9482C295.477 42.6423 295.782 42.3493 296.068 42.0693C296.355 41.7894 296.635 41.498 296.908 41.1953C297.461 40.5866 297.839 40.0999 298.041 39.7354C298.243 39.3675 298.344 38.9883 298.344 38.5977C298.344 38.3958 298.311 38.2184 298.246 38.0654C298.184 37.9124 298.098 37.7855 297.987 37.6846C297.873 37.5869 297.741 37.5137 297.592 37.4648C297.442 37.416 297.278 37.3916 297.099 37.3916C296.926 37.3916 296.75 37.4144 296.571 37.46C296.395 37.5023 296.226 37.556 296.063 37.6211C295.927 37.6764 295.795 37.7432 295.668 37.8213C295.541 37.8994 295.438 37.9661 295.36 38.0215H295.307V36.9863C295.508 36.8854 295.788 36.7878 296.146 36.6934C296.508 36.5957 296.85 36.5469 297.172 36.5469C297.849 36.5469 298.379 36.7275 298.764 37.0889C299.148 37.4469 299.34 37.9336 299.34 38.5488C299.34 38.832 299.306 39.0941 299.237 39.335C299.172 39.5758 299.081 39.7988 298.964 40.0039C298.843 40.2155 298.698 40.4255 298.529 40.6338C298.36 40.8421 298.181 41.0472 297.992 41.249C297.686 41.5811 297.344 41.9261 296.967 42.2842C296.592 42.6423 296.293 42.9255 296.068 43.1338H299.642V43.9688ZM305.136 40.3311C305.136 41.6364 304.945 42.5951 304.564 43.207C304.187 43.8158 303.602 44.1201 302.811 44.1201C302.011 44.1201 301.423 43.8092 301.049 43.1875C300.674 42.5658 300.487 41.6169 300.487 40.3408C300.487 39.029 300.676 38.0703 301.054 37.4648C301.434 36.8561 302.02 36.5518 302.811 36.5518C303.612 36.5518 304.2 36.8659 304.574 37.4941C304.948 38.1224 305.136 39.068 305.136 40.3311ZM303.886 42.5479C303.98 42.307 304.047 42.0026 304.086 41.6348C304.125 41.2669 304.144 40.8324 304.144 40.3311C304.144 39.833 304.125 39.4001 304.086 39.0322C304.047 38.6644 303.978 38.3584 303.881 38.1143C303.783 37.8669 303.648 37.6797 303.475 37.5527C303.306 37.4225 303.085 37.3574 302.811 37.3574C302.541 37.3574 302.318 37.4225 302.142 37.5527C301.97 37.6797 301.833 37.8701 301.732 38.124C301.635 38.3714 301.568 38.6839 301.532 39.0615C301.496 39.4391 301.478 39.8656 301.478 40.3408C301.478 40.8486 301.493 41.2734 301.522 41.6152C301.555 41.957 301.623 42.263 301.727 42.5332C301.822 42.7839 301.955 42.9775 302.128 43.1143C302.304 43.2477 302.531 43.3145 302.811 43.3145C303.082 43.3145 303.303 43.251 303.475 43.124C303.651 42.9938 303.788 42.8018 303.886 42.5479ZM309.501 38.3926C309.501 38.0671 309.392 37.7952 309.174 37.5771C308.956 37.359 308.653 37.25 308.266 37.25C307.911 37.25 307.619 37.3477 307.392 37.543C307.167 37.7383 307.055 38.002 307.055 38.334C307.055 38.5749 307.112 38.7783 307.225 38.9443C307.343 39.1104 307.517 39.2601 307.748 39.3936C307.849 39.4489 308.002 39.5254 308.207 39.623C308.415 39.7207 308.604 39.7972 308.773 39.8525C309.057 39.6344 309.249 39.4115 309.35 39.1836C309.45 38.9525 309.501 38.6888 309.501 38.3926ZM309.638 42.0352C309.638 41.7357 309.579 41.498 309.462 41.3223C309.345 41.1465 309.118 40.9674 308.783 40.7852C308.672 40.7233 308.524 40.6566 308.339 40.585C308.156 40.5133 307.95 40.4287 307.719 40.3311C307.448 40.5101 307.242 40.7314 307.099 40.9951C306.955 41.2555 306.884 41.5534 306.884 41.8887C306.884 42.3281 307.016 42.6911 307.279 42.9775C307.546 43.264 307.88 43.4072 308.28 43.4072C308.69 43.4072 309.019 43.2852 309.267 43.041C309.514 42.7936 309.638 42.4583 309.638 42.0352ZM308.27 44.1348C307.909 44.1348 307.58 44.0811 307.284 43.9736C306.988 43.8662 306.736 43.7116 306.527 43.5098C306.322 43.3145 306.166 43.0833 306.059 42.8164C305.954 42.5462 305.902 42.2614 305.902 41.9619C305.902 41.568 306.006 41.2067 306.215 40.8779C306.426 40.5459 306.732 40.2822 307.133 40.0869V40.0576C306.775 39.8493 306.509 39.6214 306.337 39.374C306.164 39.1266 306.078 38.8174 306.078 38.4463C306.078 37.8994 306.285 37.4437 306.698 37.0791C307.112 36.7145 307.636 36.5322 308.27 36.5322C308.931 36.5322 309.46 36.7064 309.857 37.0547C310.258 37.3997 310.458 37.8424 310.458 38.3828C310.458 38.7083 310.362 39.0306 310.17 39.3496C309.981 39.6686 309.708 39.9176 309.35 40.0967V40.126C309.773 40.3245 310.093 40.5654 310.311 40.8486C310.53 41.1318 310.639 41.4964 310.639 41.9424C310.639 42.5641 310.412 43.085 309.96 43.5049C309.511 43.9248 308.947 44.1348 308.27 44.1348Z" fill="#0089FF"/>
<path d="M229.687 30.9688H226.143V30.2266H227.461V25.3535H226.143V24.6895C226.641 24.6895 227.007 24.6195 227.241 24.4795C227.479 24.3363 227.612 24.0677 227.642 23.6738H228.398V30.2266H229.687V30.9688ZM238.833 28.4688H237.969V30.9688H237.031V28.4688H233.818V27.4434L237.07 23.6982H237.969V27.6875H238.833V28.4688ZM237.031 27.6875V24.8457L234.58 27.6875H237.031ZM244.018 28.6543C244.018 29.0059 243.962 29.3314 243.848 29.6309C243.737 29.9303 243.581 30.1891 243.379 30.4072C243.174 30.6286 242.918 30.8027 242.612 30.9297C242.31 31.0566 241.969 31.1201 241.592 31.1201C241.243 31.1201 240.9 31.0811 240.561 31.0029C240.226 30.9281 239.935 30.8288 239.687 30.7051V29.6748H239.756C239.831 29.7301 239.938 29.7936 240.078 29.8652C240.218 29.9336 240.373 29.9987 240.542 30.0605C240.734 30.1289 240.91 30.1826 241.069 30.2217C241.229 30.2575 241.408 30.2754 241.606 30.2754C241.802 30.2754 241.992 30.2412 242.178 30.1729C242.363 30.1012 242.523 29.9873 242.656 29.8311C242.777 29.6878 242.868 29.5202 242.93 29.3281C242.995 29.1361 243.027 28.9098 243.027 28.6494C243.027 28.3923 242.991 28.1807 242.92 28.0146C242.852 27.8486 242.751 27.7119 242.617 27.6045C242.477 27.4808 242.305 27.3945 242.1 27.3457C241.898 27.2936 241.671 27.2676 241.421 27.2676C241.157 27.2676 240.892 27.2887 240.625 27.3311C240.358 27.3701 240.145 27.4076 239.985 27.4434V23.6982H243.975V24.5527H240.928V26.4863C241.045 26.4733 241.16 26.4635 241.274 26.457C241.388 26.4505 241.492 26.4473 241.587 26.4473C241.958 26.4473 242.272 26.4782 242.529 26.54C242.786 26.6019 243.034 26.7223 243.271 26.9014C243.512 27.0837 243.696 27.3115 243.823 27.585C243.953 27.8584 244.018 28.2148 244.018 28.6543ZM248.501 25.3926C248.501 25.0671 248.392 24.7952 248.174 24.5771C247.956 24.359 247.653 24.25 247.266 24.25C246.911 24.25 246.619 24.3477 246.392 24.543C246.167 24.7383 246.055 25.002 246.055 25.334C246.055 25.5749 246.112 25.7783 246.226 25.9443C246.343 26.1104 246.517 26.2601 246.748 26.3936C246.849 26.4489 247.002 26.5254 247.207 26.623C247.415 26.7207 247.604 26.7972 247.773 26.8525C248.057 26.6344 248.249 26.4115 248.35 26.1836C248.45 25.9525 248.501 25.6888 248.501 25.3926ZM248.638 29.0352C248.638 28.7357 248.579 28.498 248.462 28.3223C248.345 28.1465 248.118 27.9674 247.783 27.7852C247.672 27.7233 247.524 27.6566 247.339 27.585C247.157 27.5133 246.95 27.4287 246.719 27.3311C246.449 27.5101 246.242 27.7314 246.099 27.9951C245.955 28.2555 245.884 28.5534 245.884 28.8887C245.884 29.3281 246.016 29.6911 246.279 29.9775C246.546 30.264 246.88 30.4072 247.28 30.4072C247.69 30.4072 248.019 30.2852 248.267 30.041C248.514 29.7936 248.638 29.4583 248.638 29.0352ZM247.27 31.1348C246.909 31.1348 246.58 31.0811 246.284 30.9736C245.988 30.8662 245.736 30.7116 245.527 30.5098C245.322 30.3145 245.166 30.0833 245.059 29.8164C244.954 29.5462 244.902 29.2614 244.902 28.9619C244.902 28.568 245.006 28.2067 245.215 27.8779C245.426 27.5459 245.732 27.2822 246.133 27.0869V27.0576C245.775 26.8493 245.509 26.6214 245.337 26.374C245.164 26.1266 245.078 25.8174 245.078 25.4463C245.078 24.8994 245.285 24.4437 245.698 24.0791C246.112 23.7145 246.636 23.5322 247.27 23.5322C247.931 23.5322 248.46 23.7064 248.857 24.0547C249.258 24.3997 249.458 24.8424 249.458 25.3828C249.458 25.7083 249.362 26.0306 249.17 26.3496C248.981 26.6686 248.708 26.9176 248.35 27.0967V27.126C248.773 27.3245 249.093 27.5654 249.311 27.8486C249.53 28.1318 249.639 28.4964 249.639 28.9424C249.639 29.5641 249.412 30.085 248.96 30.5049C248.511 30.9248 247.948 31.1348 247.27 31.1348Z" fill="#F7931E"/>
<path d="M56.2212 29.1909C55.7935 29.1909 55.3994 29.1191 55.0391 28.9756C54.6816 28.832 54.3726 28.6182 54.1118 28.334C53.8511 28.0498 53.6489 27.6953 53.5054 27.2705C53.3618 26.8457 53.29 26.3579 53.29 25.8071C53.29 25.2593 53.3589 24.7817 53.4966 24.3745C53.6372 23.9673 53.8408 23.6128 54.1074 23.311C54.3682 23.0181 54.6772 22.7954 55.0347 22.6431C55.3921 22.4878 55.792 22.4102 56.2344 22.4102C56.4541 22.4102 56.6592 22.4263 56.8496 22.4585C57.043 22.4907 57.2217 22.5317 57.3857 22.5815C57.5264 22.6255 57.6699 22.6812 57.8164 22.7485C57.9658 22.813 58.1123 22.8848 58.2559 22.9639V24.0142H58.1855C58.1094 23.9438 58.0112 23.8589 57.8911 23.7593C57.771 23.6597 57.6245 23.5615 57.4517 23.4648C57.2847 23.374 57.103 23.2993 56.9067 23.2407C56.7104 23.1821 56.4834 23.1528 56.2256 23.1528C55.9473 23.1528 55.6836 23.21 55.4346 23.3242C55.1855 23.4385 54.9673 23.6069 54.7798 23.8296C54.5952 24.0522 54.4517 24.332 54.3491 24.6689C54.2466 25.0059 54.1953 25.3853 54.1953 25.8071C54.1953 26.2554 54.2495 26.6421 54.3579 26.9673C54.4663 27.2896 54.6143 27.562 54.8018 27.7847C54.9834 28.0015 55.1973 28.1655 55.4434 28.2769C55.6895 28.3853 55.9502 28.4395 56.2256 28.4395C56.4775 28.4395 56.7104 28.4087 56.9243 28.3472C57.1382 28.2856 57.3286 28.208 57.4956 28.1143C57.6567 28.0234 57.7959 27.9312 57.9131 27.8374C58.0303 27.7407 58.1226 27.6587 58.1899 27.5913H58.2559V28.6284C58.1123 28.6958 57.9761 28.7603 57.8472 28.8218C57.7212 28.8833 57.5674 28.9434 57.3857 29.002C57.1953 29.0635 57.0181 29.1104 56.854 29.1426C56.6929 29.1748 56.4819 29.1909 56.2212 29.1909ZM63.5557 29.0723H62.7383V25.2139L61.5605 27.7188H60.9453L59.7764 25.2139V29.0723H59.0029V24.1636H60.0005L61.2925 26.8882L62.5405 24.1636H63.5557V29.0723ZM66.8823 29.1865C66.1001 29.1865 65.4922 28.9668 65.0586 28.5273C64.6279 28.085 64.4126 27.458 64.4126 26.6465C64.4126 25.8467 64.6221 25.2109 65.041 24.7393C65.46 24.2646 66.0078 24.0273 66.6846 24.0273C66.9893 24.0273 67.2588 24.0713 67.4932 24.1592C67.7275 24.2471 67.9326 24.3848 68.1084 24.5723C68.2842 24.7598 68.4189 24.9897 68.5127 25.2622C68.6064 25.5317 68.6533 25.8628 68.6533 26.2554V26.7036H65.252C65.252 27.2749 65.3955 27.7114 65.6826 28.0132C65.9697 28.3149 66.3667 28.4658 66.8735 28.4658C67.0552 28.4658 67.2324 28.4453 67.4053 28.4043C67.5811 28.3633 67.7393 28.3105 67.8799 28.2461C68.0293 28.1787 68.1553 28.1143 68.2578 28.0527C68.3604 27.9883 68.4453 27.9282 68.5127 27.8726H68.561V28.7734C68.4644 28.8115 68.3442 28.8599 68.2007 28.9185C68.0571 28.9741 67.9282 29.0181 67.814 29.0503C67.6528 29.0942 67.5063 29.1279 67.3745 29.1514C67.2456 29.1748 67.0815 29.1865 66.8823 29.1865ZM67.8491 26.0708C67.8433 25.8481 67.8169 25.6562 67.77 25.4951C67.7231 25.334 67.6558 25.1978 67.5679 25.0864C67.4712 24.9634 67.3467 24.8696 67.1943 24.8052C67.0449 24.7407 66.8589 24.7085 66.6362 24.7085C66.4165 24.7085 66.229 24.7422 66.0737 24.8096C65.9214 24.874 65.7822 24.9692 65.6562 25.0952C65.5332 25.2241 65.4395 25.3677 65.375 25.5259C65.3105 25.6812 65.2695 25.8628 65.252 26.0708H67.8491ZM71.4395 29.1821C71.1025 29.1821 70.7935 29.1309 70.5122 29.0283C70.231 28.9229 69.9893 28.7646 69.7871 28.5537C69.585 28.3428 69.4282 28.0776 69.3169 27.7583C69.2056 27.436 69.1499 27.0581 69.1499 26.6245C69.1499 26.1938 69.207 25.8218 69.3213 25.5083C69.4385 25.1948 69.5938 24.9312 69.7871 24.7173C69.9805 24.5034 70.2207 24.3394 70.5078 24.2251C70.7979 24.1079 71.1084 24.0493 71.4395 24.0493C71.709 24.0493 71.9683 24.0874 72.2173 24.1636C72.4692 24.2397 72.6934 24.3276 72.8896 24.4272V25.3545H72.8413C72.7827 25.3047 72.7065 25.2476 72.6128 25.1831C72.522 25.1187 72.4106 25.0527 72.2788 24.9854C72.1646 24.9268 72.0298 24.8755 71.8745 24.8315C71.7192 24.7876 71.5698 24.7656 71.4263 24.7656C70.9985 24.7656 70.6543 24.9282 70.3936 25.2534C70.1357 25.5757 70.0068 26.0327 70.0068 26.6245C70.0068 27.2046 70.1313 27.6572 70.3804 27.9824C70.6323 28.3047 70.981 28.4658 71.4263 28.4658C71.6958 28.4658 71.9521 28.4102 72.1953 28.2988C72.4385 28.1875 72.6538 28.0439 72.8413 27.8682H72.8896V28.7954C72.8076 28.8335 72.7051 28.8804 72.582 28.936C72.459 28.9888 72.3477 29.0283 72.248 29.0547C72.1074 29.0957 71.9814 29.1265 71.8701 29.147C71.7588 29.1704 71.6152 29.1821 71.4395 29.1821ZM77.3633 27.5518C77.3633 27.7891 77.3149 28.0044 77.2183 28.1978C77.1245 28.3911 76.9956 28.5479 76.8315 28.668C76.6382 28.8145 76.4316 28.9185 76.2119 28.98C75.9922 29.0415 75.7095 29.0723 75.3638 29.0723H73.6455V24.1636H74.4717V26.0752H75.3857C75.7549 26.0752 76.0405 26.0942 76.2427 26.1323C76.4478 26.1704 76.6514 26.2642 76.8535 26.4136C77.0234 26.5396 77.1509 26.7007 77.2358 26.897C77.3208 27.0933 77.3633 27.3115 77.3633 27.5518ZM76.5107 27.5649C76.5107 27.4155 76.4844 27.2852 76.4316 27.1738C76.3818 27.0596 76.2983 26.9673 76.1812 26.897C76.0581 26.8237 75.9175 26.7798 75.7593 26.7651C75.604 26.7505 75.3799 26.7432 75.0869 26.7432H74.4717V28.4131H75.0693C75.3623 28.4131 75.5894 28.4014 75.7505 28.3779C75.9116 28.3516 76.0508 28.3032 76.168 28.2329C76.2881 28.1567 76.3745 28.0674 76.4272 27.9648C76.4829 27.8594 76.5107 27.7261 76.5107 27.5649ZM84.0869 24.8887H81.793V29.0723H80.9668V24.1636H84.0869V24.8887ZM88.5605 24.1636L85.9194 30.8828H85.0361L85.915 28.835L84.1309 24.1636H85.0229L86.3633 27.7979L87.6992 24.1636H88.5605ZM93.3945 30.25H92.6255V29.0591H89.3911V30.25H88.6221V28.3691H88.9473C89.2256 27.9121 89.4526 27.3159 89.6284 26.5806C89.8071 25.8423 89.8965 25.0366 89.8965 24.1636H92.9067V28.3691H93.3945V30.25ZM92.0806 28.3691V24.8579H90.6743C90.6362 25.5903 90.5352 26.2598 90.3711 26.8662C90.21 27.4697 90.0063 27.9707 89.7603 28.3691H92.0806ZM98.3296 26.4883C98.3296 27.3057 98.1333 27.9575 97.7407 28.4438C97.3511 28.9272 96.8574 29.1689 96.2598 29.1689C96.0166 29.1689 95.8013 29.1411 95.6138 29.0854C95.4263 29.0298 95.2344 28.9434 95.0381 28.8262V30.8828H94.2119V24.1636H95.0381V24.6777C95.2432 24.4932 95.4702 24.3394 95.7192 24.2163C95.9712 24.0903 96.2451 24.0273 96.541 24.0273C97.1035 24.0273 97.5415 24.25 97.855 24.6953C98.1714 25.1406 98.3296 25.7383 98.3296 26.4883ZM97.4771 26.5806C97.4771 26.021 97.3877 25.5874 97.209 25.2798C97.0303 24.9692 96.7402 24.814 96.3389 24.814C96.1045 24.814 95.8774 24.8667 95.6577 24.9722C95.4409 25.0747 95.2344 25.208 95.0381 25.3721V28.1538C95.2549 28.2593 95.4395 28.3311 95.5918 28.3691C95.7471 28.4072 95.9243 28.4263 96.1235 28.4263C96.5513 28.4263 96.8838 28.2695 97.1211 27.9561C97.3584 27.6426 97.4771 27.1841 97.4771 26.5806ZM103.225 26.6201C103.225 27.4463 103.026 28.085 102.627 28.5361C102.229 28.9844 101.699 29.2085 101.037 29.2085C100.354 29.2085 99.8164 28.9771 99.4238 28.5142C99.0342 28.0483 98.8394 27.417 98.8394 26.6201C98.8394 25.7998 99.04 25.1626 99.4414 24.7085C99.8457 24.2544 100.377 24.0273 101.037 24.0273C101.699 24.0273 102.229 24.2544 102.627 24.7085C103.026 25.1597 103.225 25.7969 103.225 26.6201ZM102.373 26.6201C102.373 25.9844 102.257 25.5127 102.025 25.2051C101.794 24.8945 101.464 24.7393 101.037 24.7393C100.606 24.7393 100.273 24.8945 100.039 25.2051C99.8076 25.5127 99.6919 25.9844 99.6919 26.6201C99.6919 27.2354 99.8076 27.7026 100.039 28.022C100.273 28.3384 100.606 28.4966 101.037 28.4966C101.461 28.4966 101.79 28.3413 102.021 28.0308C102.255 27.7173 102.373 27.2471 102.373 26.6201ZM107.949 29.0723H107.123V26.8618H104.899V29.0723H104.073V24.1636H104.899V26.1499H107.123V24.1636H107.949V29.0723ZM111.887 27.8638V26.5015C111.69 26.519 111.441 26.5439 111.14 26.5762C110.841 26.6055 110.599 26.6479 110.415 26.7036C110.195 26.771 110.013 26.875 109.87 27.0156C109.726 27.1533 109.654 27.3467 109.654 27.5957C109.654 27.877 109.733 28.0894 109.892 28.2329C110.05 28.3765 110.281 28.4482 110.586 28.4482C110.847 28.4482 111.083 28.3926 111.293 28.2812C111.504 28.167 111.702 28.0278 111.887 27.8638ZM111.887 28.5493C111.819 28.5991 111.729 28.6694 111.614 28.7603C111.503 28.8481 111.395 28.9185 111.289 28.9712C111.143 29.0474 111 29.106 110.863 29.147C110.728 29.188 110.538 29.2085 110.292 29.2085C110.089 29.2085 109.897 29.1704 109.716 29.0942C109.534 29.0181 109.375 28.9111 109.237 28.7734C109.105 28.6387 109 28.4731 108.92 28.2769C108.841 28.0776 108.802 27.8682 108.802 27.6484C108.802 27.3086 108.874 27.02 109.017 26.7827C109.161 26.5425 109.388 26.3521 109.698 26.2114C109.974 26.0854 110.299 25.999 110.674 25.9521C111.049 25.9023 111.453 25.8657 111.887 25.8423V25.6841C111.887 25.4907 111.857 25.3354 111.799 25.2183C111.74 25.0981 111.658 25.0059 111.553 24.9414C111.447 24.874 111.318 24.8301 111.166 24.8096C111.014 24.7861 110.857 24.7744 110.696 24.7744C110.505 24.7744 110.281 24.8037 110.023 24.8623C109.766 24.918 109.508 25 109.25 25.1084H109.202V24.269C109.354 24.2251 109.572 24.1768 109.856 24.124C110.141 24.0713 110.422 24.0449 110.7 24.0449C111.037 24.0449 111.321 24.0713 111.553 24.124C111.784 24.1768 111.992 24.272 112.177 24.4097C112.355 24.5444 112.489 24.7188 112.577 24.9326C112.665 25.1465 112.708 25.4072 112.708 25.7148V29.0723H111.887V28.5493Z" fill="#303549"/>
<path d="M248 36.5H55C54.1716 36.5 53.5 37.1716 53.5 38V42C53.5 42.8284 54.1716 43.5 55 43.5H248C248.828 43.5 249.5 42.8284 249.5 42V38C249.5 37.1716 248.828 36.5 248 36.5Z" stroke="#D7E2F2"/>
<path d="M67.8668 38H55V42H67.8668V38Z" fill="#8C99B2"/>
<path d="M80.7336 38H67.8668V42H80.7336V38Z" fill="#8C99B2"/>
<path d="M93.6 38H80.7332V42H93.6V38Z" fill="#8C99B2"/>
<path d="M106.467 38H93.6V42H106.467V38Z" fill="#8C99B2"/>
<path d="M119.333 38H106.466V42H119.333V38Z" fill="#8C99B2"/>
<path d="M132.2 38H119.333V42H132.2V38Z" fill="#8C99B2"/>
<path d="M145.067 38H132.2V42H145.067V38Z" fill="#8C99B2"/>
<path d="M157.934 38H145.067V42H157.934V38Z" fill="#8C99B2"/>
<path d="M170.8 38H157.933V42H170.8V38Z" fill="#8C99B2"/>
<path d="M181.867 38H169V42H181.867V38Z" fill="#8C99B2"/>
<path d="M194.734 38H181.867V42H194.734V38Z" fill="#8C99B2"/>
<path d="M207.6 38H194.733V42H207.6V38Z" fill="#8C99B2"/>
<path d="M220.467 38H207.6V42H220.467V38Z" fill="#8C99B2"/>
<path d="M233.333 38H220.466V42H233.333V38Z" fill="#8C99B2"/>
<path d="M248 38H235.133V42H248V38Z" fill="#F7931E"/>
<path d="M5.5 14C5.5 13.1715 6.17157 12.5 7 12.5H44.5V51.5H7C6.17157 51.5 5.5 50.8285 5.5 50V14Z" fill="#EBF1F9" fill-opacity="0.5" stroke="#D7E2F2"/>
<path d="M25 29.3496V31.8996" stroke="#8C99B2" stroke-width="1.2" stroke-miterlimit="10" stroke-linecap="round" stroke-linejoin="round"/>
<path d="M25 34V34.2" stroke="#8C99B2" stroke-width="1.2" stroke-miterlimit="10" stroke-linecap="round" stroke-linejoin="round"/>
<path d="M32.0003 32.0003L25 25L17.9997 32.0003L25 39.0006L32.0003 32.0003Z" stroke="#8C99B2" stroke-width="1.2" stroke-miterlimit="10" stroke-linecap="round" stroke-linejoin="round"/>
<path d="M317 12.5H7C6.17157 12.5 5.5 13.1716 5.5 14V50C5.5 50.8284 6.17157 51.5 7 51.5H317C317.828 51.5 318.5 50.8284 318.5 50V14C318.5 13.1716 317.828 12.5 317 12.5Z" stroke="#D7E2F2"/>
</svg>
