<svg width="324" height="117" viewBox="0 0 324 117" fill="none" xmlns="http://www.w3.org/2000/svg">
<path d="M161 83.5H7C5.89543 83.5 5 84.3954 5 85.5V108.5C5 109.605 5.89543 110.5 7 110.5H161C162.105 110.5 163 109.605 163 108.5V85.5C163 84.3954 162.105 83.5 161 83.5Z" fill="#EBF1F9"/>
<path d="M51.8657 100.5H51V95.3057L48.0425 100.5H47.1636V93.9565H48.0293V99.0674L50.9473 93.9565H51.8657V100.5ZM55.0781 100.61C54.7412 100.61 54.4321 100.559 54.1509 100.456C53.8696 100.351 53.6279 100.192 53.4258 99.9814C53.2236 99.7705 53.0669 99.5054 52.9556 99.186C52.8442 98.8638 52.7886 98.4858 52.7886 98.0522C52.7886 97.6216 52.8457 97.2495 52.96 96.936C53.0771 96.6226 53.2324 96.3589 53.4258 96.145C53.6191 95.9312 53.8594 95.7671 54.1465 95.6528C54.4365 95.5356 54.7471 95.4771 55.0781 95.4771C55.3477 95.4771 55.6069 95.5151 55.856 95.5913C56.1079 95.6675 56.332 95.7554 56.5283 95.855V96.7822H56.48C56.4214 96.7324 56.3452 96.6753 56.2515 96.6108C56.1606 96.5464 56.0493 96.4805 55.9175 96.4131C55.8032 96.3545 55.6685 96.3032 55.5132 96.2593C55.3579 96.2153 55.2085 96.1934 55.0649 96.1934C54.6372 96.1934 54.293 96.356 54.0322 96.6812C53.7744 97.0034 53.6455 97.4604 53.6455 98.0522C53.6455 98.6323 53.77 99.085 54.019 99.4102C54.271 99.7324 54.6196 99.8936 55.0649 99.8936C55.3345 99.8936 55.5908 99.8379 55.834 99.7266C56.0771 99.6152 56.2925 99.4717 56.48 99.2959H56.5283V100.223C56.4463 100.261 56.3438 100.308 56.2207 100.364C56.0977 100.417 55.9863 100.456 55.8867 100.482C55.7461 100.523 55.6201 100.554 55.5088 100.575C55.3975 100.598 55.2539 100.61 55.0781 100.61ZM61.0986 100.5H60.0835L58.8926 98.6455L57.6665 100.5H56.7305L58.4355 98.0654L56.748 95.5913H57.7632L58.9453 97.4282L60.1582 95.5913H61.0986L59.4023 98.0083L61.0986 100.5ZM65.7788 98.0479C65.7788 98.874 65.5796 99.5127 65.1812 99.9639C64.7827 100.412 64.2524 100.636 63.5903 100.636C62.9077 100.636 62.3701 100.405 61.9775 99.9419C61.5879 99.4761 61.3931 98.8447 61.3931 98.0479C61.3931 97.2275 61.5938 96.5903 61.9951 96.1362C62.3994 95.6821 62.9312 95.4551 63.5903 95.4551C64.2524 95.4551 64.7827 95.6821 65.1812 96.1362C65.5796 96.5874 65.7788 97.2246 65.7788 98.0479ZM64.9263 98.0479C64.9263 97.4121 64.8105 96.9404 64.5791 96.6328C64.3477 96.3223 64.0181 96.167 63.5903 96.167C63.1597 96.167 62.8271 96.3223 62.5928 96.6328C62.3613 96.9404 62.2456 97.4121 62.2456 98.0479C62.2456 98.6631 62.3613 99.1304 62.5928 99.4497C62.8271 99.7661 63.1597 99.9243 63.5903 99.9243C64.0151 99.9243 64.3433 99.769 64.5747 99.4585C64.8091 99.145 64.9263 98.6748 64.9263 98.0479ZM70.8369 101.678H70.0679V100.487H66.8335V101.678H66.0645V99.7969H66.3896C66.668 99.3398 66.895 98.7437 67.0708 98.0083C67.2495 97.27 67.3389 96.4644 67.3389 95.5913H70.3491V99.7969H70.8369V101.678ZM69.5229 99.7969V96.2856H68.1167C68.0786 97.0181 67.9775 97.6875 67.8135 98.2939C67.6523 98.8975 67.4487 99.3984 67.2026 99.7969H69.5229ZM75.5303 100.5H74.7041V98.2896H72.4805V100.5H71.6543V95.5913H72.4805V97.5776H74.7041V95.5913H75.5303V100.5ZM80.3687 98.9795C80.3687 99.2168 80.3203 99.4321 80.2236 99.6255C80.1299 99.8188 80.001 99.9756 79.8369 100.096C79.6436 100.242 79.437 100.346 79.2173 100.408C78.9976 100.469 78.7148 100.5 78.3691 100.5H76.7256V95.5913H77.5518V97.5029H78.3911C78.7603 97.5029 79.0459 97.522 79.248 97.5601C79.4531 97.5981 79.6567 97.6919 79.8589 97.8413C80.0288 97.9673 80.1562 98.1284 80.2412 98.3247C80.3262 98.521 80.3687 98.7393 80.3687 98.9795ZM79.5161 98.9927C79.5161 98.8433 79.4897 98.7129 79.437 98.6016C79.3872 98.4873 79.3037 98.395 79.1865 98.3247C79.0635 98.2515 78.9229 98.2075 78.7646 98.1929C78.6094 98.1782 78.3853 98.1709 78.0923 98.1709H77.5518V99.8408H78.0747C78.3677 99.8408 78.5947 99.8291 78.7559 99.8057C78.917 99.7793 79.0562 99.731 79.1733 99.6606C79.2935 99.5845 79.3799 99.4951 79.4326 99.3926C79.4883 99.2871 79.5161 99.1538 79.5161 98.9927ZM81.7661 100.5H80.9399V95.5913H81.7661V100.5ZM85.0972 100.614C84.3149 100.614 83.707 100.395 83.2734 99.9551C82.8428 99.5127 82.6274 98.8857 82.6274 98.0742C82.6274 97.2744 82.8369 96.6387 83.2559 96.167C83.6748 95.6924 84.2227 95.4551 84.8994 95.4551C85.2041 95.4551 85.4736 95.499 85.708 95.5869C85.9424 95.6748 86.1475 95.8125 86.3232 96C86.499 96.1875 86.6338 96.4175 86.7275 96.6899C86.8213 96.9595 86.8682 97.2905 86.8682 97.6831V98.1313H83.4668C83.4668 98.7026 83.6104 99.1392 83.8975 99.4409C84.1846 99.7427 84.5815 99.8936 85.0884 99.8936C85.27 99.8936 85.4473 99.873 85.6201 99.832C85.7959 99.791 85.9541 99.7383 86.0947 99.6738C86.2441 99.6064 86.3701 99.542 86.4727 99.4805C86.5752 99.416 86.6602 99.356 86.7275 99.3003H86.7759V100.201C86.6792 100.239 86.5591 100.288 86.4155 100.346C86.272 100.402 86.1431 100.446 86.0288 100.478C85.8677 100.522 85.7212 100.556 85.5894 100.579C85.4604 100.603 85.2964 100.614 85.0972 100.614ZM86.064 97.4985C86.0581 97.2759 86.0317 97.084 85.9849 96.9229C85.938 96.7617 85.8706 96.6255 85.7827 96.5142C85.686 96.3911 85.5615 96.2974 85.4092 96.2329C85.2598 96.1685 85.0737 96.1362 84.8511 96.1362C84.6313 96.1362 84.4438 96.1699 84.2886 96.2373C84.1362 96.3018 83.9971 96.397 83.8711 96.5229C83.748 96.6519 83.6543 96.7954 83.5898 96.9536C83.5254 97.1089 83.4844 97.2905 83.4668 97.4985H86.064ZM94.7256 101.678H93.9565V100.487H90.7222V101.678H89.9531V99.7969H90.2783C90.5566 99.3398 90.7837 98.7437 90.9595 98.0083C91.1382 97.27 91.2275 96.4644 91.2275 95.5913H94.2378V99.7969H94.7256V101.678ZM93.4116 99.7969V96.2856H92.0054C91.9673 97.0181 91.8662 97.6875 91.7021 98.2939C91.541 98.8975 91.3374 99.3984 91.0913 99.7969H93.4116ZM98.2852 99.2915V97.9292C98.0889 97.9468 97.8398 97.9717 97.5381 98.0039C97.2393 98.0332 96.9976 98.0757 96.813 98.1313C96.5933 98.1987 96.4116 98.3027 96.2681 98.4434C96.1245 98.5811 96.0527 98.7744 96.0527 99.0234C96.0527 99.3047 96.1318 99.5171 96.29 99.6606C96.4482 99.8042 96.6797 99.876 96.9844 99.876C97.2451 99.876 97.481 99.8203 97.6919 99.709C97.9028 99.5947 98.1006 99.4556 98.2852 99.2915ZM98.2852 99.9771C98.2178 100.027 98.127 100.097 98.0127 100.188C97.9014 100.276 97.793 100.346 97.6875 100.399C97.541 100.475 97.3989 100.534 97.2612 100.575C97.1265 100.616 96.936 100.636 96.6899 100.636C96.4878 100.636 96.2959 100.598 96.1143 100.522C95.9326 100.446 95.7729 100.339 95.6353 100.201C95.5034 100.066 95.3979 99.9009 95.3188 99.7046C95.2397 99.5054 95.2002 99.2959 95.2002 99.0762C95.2002 98.7363 95.272 98.4478 95.4155 98.2104C95.5591 97.9702 95.7861 97.7798 96.0967 97.6392C96.3721 97.5132 96.6973 97.4268 97.0723 97.3799C97.4473 97.3301 97.8516 97.2935 98.2852 97.27V97.1118C98.2852 96.9185 98.2559 96.7632 98.1973 96.646C98.1387 96.5259 98.0566 96.4336 97.9512 96.3691C97.8457 96.3018 97.7168 96.2578 97.5645 96.2373C97.4121 96.2139 97.2554 96.2021 97.0942 96.2021C96.9038 96.2021 96.6797 96.2314 96.4219 96.29C96.1641 96.3457 95.9062 96.4277 95.6484 96.5361H95.6001V95.6968C95.7524 95.6528 95.9707 95.6045 96.2549 95.5518C96.5391 95.499 96.8203 95.4727 97.0986 95.4727C97.4355 95.4727 97.7197 95.499 97.9512 95.5518C98.1826 95.6045 98.3906 95.6997 98.5752 95.8374C98.7539 95.9722 98.8872 96.1465 98.9751 96.3604C99.063 96.5742 99.1069 96.835 99.1069 97.1426V100.5H98.2852V99.9771ZM104.147 100.5H103.321V98.2896H101.098V100.5H100.271V95.5913H101.098V97.5776H103.321V95.5913H104.147V100.5ZM109.219 100.5H108.393V98.2896H106.169V100.5H105.343V95.5913H106.169V97.5776H108.393V95.5913H109.219V100.5ZM114.057 98.9795C114.057 99.2168 114.009 99.4321 113.912 99.6255C113.818 99.8188 113.689 99.9756 113.525 100.096C113.332 100.242 113.125 100.346 112.906 100.408C112.686 100.469 112.403 100.5 112.058 100.5H110.414V95.5913H111.24V97.5029H112.08C112.449 97.5029 112.734 97.522 112.937 97.5601C113.142 97.5981 113.345 97.6919 113.547 97.8413C113.717 97.9673 113.845 98.1284 113.93 98.3247C114.015 98.521 114.057 98.7393 114.057 98.9795ZM113.205 98.9927C113.205 98.8433 113.178 98.7129 113.125 98.6016C113.076 98.4873 112.992 98.395 112.875 98.3247C112.752 98.2515 112.611 98.2075 112.453 98.1929C112.298 98.1782 112.074 98.1709 111.781 98.1709H111.24V99.8408H111.763C112.056 99.8408 112.283 99.8291 112.444 99.8057C112.605 99.7793 112.745 99.731 112.862 99.6606C112.982 99.5845 113.068 99.4951 113.121 99.3926C113.177 99.2871 113.205 99.1538 113.205 98.9927ZM115.455 100.5H114.628V95.5913H115.455V100.5ZM118.786 100.614C118.003 100.614 117.396 100.395 116.962 99.9551C116.531 99.5127 116.316 98.8857 116.316 98.0742C116.316 97.2744 116.525 96.6387 116.944 96.167C117.363 95.6924 117.911 95.4551 118.588 95.4551C118.893 95.4551 119.162 95.499 119.396 95.5869C119.631 95.6748 119.836 95.8125 120.012 96C120.188 96.1875 120.322 96.4175 120.416 96.6899C120.51 96.9595 120.557 97.2905 120.557 97.6831V98.1313H117.155C117.155 98.7026 117.299 99.1392 117.586 99.4409C117.873 99.7427 118.27 99.8936 118.777 99.8936C118.958 99.8936 119.136 99.873 119.309 99.832C119.484 99.791 119.643 99.7383 119.783 99.6738C119.933 99.6064 120.059 99.542 120.161 99.4805C120.264 99.416 120.349 99.356 120.416 99.3003H120.464V100.201C120.368 100.239 120.248 100.288 120.104 100.346C119.96 100.402 119.832 100.446 119.717 100.478C119.556 100.522 119.41 100.556 119.278 100.579C119.149 100.603 118.985 100.614 118.786 100.614ZM119.752 97.4985C119.747 97.2759 119.72 97.084 119.673 96.9229C119.626 96.7617 119.559 96.6255 119.471 96.5142C119.375 96.3911 119.25 96.2974 119.098 96.2329C118.948 96.1685 118.762 96.1362 118.54 96.1362C118.32 96.1362 118.132 96.1699 117.977 96.2373C117.825 96.3018 117.686 96.397 117.56 96.5229C117.437 96.6519 117.343 96.7954 117.278 96.9536C117.214 97.1089 117.173 97.2905 117.155 97.4985H119.752Z" fill="#303549"/>
<path d="M317 83.3032H175C173.895 83.3032 173 84.1987 173 85.3032V108.303C173 109.408 173.895 110.303 175 110.303H317C318.105 110.303 319 109.408 319 108.303V85.3032C319 84.1987 318.105 83.3032 317 83.3032Z" fill="#EBF1F9"/>
<path d="M229.794 95.7329C229.794 96.0171 229.743 96.2866 229.641 96.5415C229.541 96.7935 229.402 97.0088 229.223 97.1875C228.998 97.4102 228.732 97.5786 228.428 97.6929C228.123 97.8071 227.738 97.8643 227.272 97.8643H226.534V100.303H225.664V93.7598H227.307C227.694 93.7598 228.023 93.792 228.296 93.8564C228.568 93.9209 228.809 94.0249 229.017 94.1685C229.26 94.3354 229.45 94.5479 229.588 94.8057C229.726 95.0605 229.794 95.3696 229.794 95.7329ZM228.889 95.7549C228.889 95.5293 228.85 95.333 228.771 95.166C228.694 94.999 228.577 94.8628 228.419 94.7573C228.281 94.6665 228.12 94.6021 227.936 94.564C227.754 94.5259 227.527 94.5068 227.254 94.5068H226.534V97.1216H227.127C227.479 97.1216 227.763 97.0938 227.979 97.0381C228.196 96.9795 228.376 96.877 228.52 96.7305C228.649 96.5986 228.743 96.4551 228.801 96.2998C228.86 96.1445 228.889 95.9629 228.889 95.7549ZM233.306 99.0947V97.7324C233.109 97.75 232.86 97.7749 232.559 97.8071C232.26 97.8364 232.018 97.8789 231.833 97.9346C231.614 98.002 231.432 98.106 231.289 98.2466C231.145 98.3843 231.073 98.5776 231.073 98.8267C231.073 99.1079 231.152 99.3203 231.311 99.4639C231.469 99.6074 231.7 99.6792 232.005 99.6792C232.266 99.6792 232.501 99.6235 232.712 99.5122C232.923 99.3979 233.121 99.2588 233.306 99.0947ZM233.306 99.7803C233.238 99.8301 233.147 99.9004 233.033 99.9912C232.922 100.079 232.813 100.149 232.708 100.202C232.562 100.278 232.419 100.337 232.282 100.378C232.147 100.419 231.957 100.439 231.71 100.439C231.508 100.439 231.316 100.401 231.135 100.325C230.953 100.249 230.793 100.142 230.656 100.004C230.524 99.8696 230.418 99.7041 230.339 99.5078C230.26 99.3086 230.221 99.0991 230.221 98.8794C230.221 98.5396 230.292 98.251 230.436 98.0137C230.58 97.7734 230.807 97.583 231.117 97.4424C231.393 97.3164 231.718 97.23 232.093 97.1831C232.468 97.1333 232.872 97.0967 233.306 97.0732V96.915C233.306 96.7217 233.276 96.5664 233.218 96.4492C233.159 96.3291 233.077 96.2368 232.972 96.1724C232.866 96.105 232.737 96.061 232.585 96.0405C232.433 96.0171 232.276 96.0054 232.115 96.0054C231.924 96.0054 231.7 96.0347 231.442 96.0933C231.185 96.1489 230.927 96.231 230.669 96.3394H230.621V95.5C230.773 95.4561 230.991 95.4077 231.275 95.355C231.56 95.3022 231.841 95.2759 232.119 95.2759C232.456 95.2759 232.74 95.3022 232.972 95.355C233.203 95.4077 233.411 95.5029 233.596 95.6406C233.774 95.7754 233.908 95.9497 233.996 96.1636C234.083 96.3774 234.127 96.6382 234.127 96.9458V100.303H233.306V99.7803ZM237.243 100.413C236.906 100.413 236.597 100.362 236.316 100.259C236.035 100.154 235.793 99.9956 235.591 99.7847C235.389 99.5737 235.232 99.3086 235.121 98.9893C235.009 98.667 234.954 98.2891 234.954 97.8555C234.954 97.4248 235.011 97.0527 235.125 96.7393C235.242 96.4258 235.397 96.1621 235.591 95.9482C235.784 95.7344 236.024 95.5703 236.312 95.4561C236.602 95.3389 236.912 95.2803 237.243 95.2803C237.513 95.2803 237.772 95.3184 238.021 95.3945C238.273 95.4707 238.497 95.5586 238.693 95.6582V96.5854H238.645C238.586 96.5356 238.51 96.4785 238.417 96.4141C238.326 96.3496 238.214 96.2837 238.083 96.2163C237.968 96.1577 237.833 96.1064 237.678 96.0625C237.523 96.0186 237.374 95.9966 237.23 95.9966C236.802 95.9966 236.458 96.1592 236.197 96.4844C235.939 96.8066 235.811 97.2637 235.811 97.8555C235.811 98.4355 235.935 98.8882 236.184 99.2134C236.436 99.5356 236.785 99.6968 237.23 99.6968C237.5 99.6968 237.756 99.6411 237.999 99.5298C238.242 99.4185 238.458 99.2749 238.645 99.0991H238.693V100.026C238.611 100.064 238.509 100.111 238.386 100.167C238.263 100.22 238.151 100.259 238.052 100.286C237.911 100.327 237.785 100.357 237.674 100.378C237.562 100.401 237.419 100.413 237.243 100.413ZM243.141 100.303H242.314V98.3872C242.057 98.4722 241.806 98.5381 241.563 98.585C241.32 98.6318 241.08 98.6553 240.842 98.6553C240.634 98.6553 240.431 98.6289 240.231 98.5762C240.035 98.5205 239.865 98.4312 239.722 98.3081C239.578 98.1851 239.467 98.0283 239.388 97.8379C239.312 97.6445 239.273 97.4175 239.273 97.1567V95.3945H240.1V96.7261C240.1 96.9429 240.108 97.1157 240.126 97.2446C240.144 97.3706 240.192 97.4937 240.271 97.6138C240.338 97.7163 240.439 97.7954 240.574 97.8511C240.712 97.9067 240.892 97.9346 241.115 97.9346C241.308 97.9346 241.515 97.9155 241.734 97.8774C241.957 97.8394 242.15 97.7939 242.314 97.7412V95.3945H243.141V100.303ZM248.212 100.303H247.395V96.6426L245.083 100.303H244.336V95.3945H245.153V98.998L247.438 95.3945H248.212V100.303ZM252.993 96.1196H251.323V100.303H250.497V96.1196H248.827V95.3945H252.993V96.1196ZM256.351 99.0947V97.7324C256.154 97.75 255.905 97.7749 255.604 97.8071C255.305 97.8364 255.063 97.8789 254.878 97.9346C254.659 98.002 254.477 98.106 254.333 98.2466C254.19 98.3843 254.118 98.5776 254.118 98.8267C254.118 99.1079 254.197 99.3203 254.355 99.4639C254.514 99.6074 254.745 99.6792 255.05 99.6792C255.311 99.6792 255.546 99.6235 255.757 99.5122C255.968 99.3979 256.166 99.2588 256.351 99.0947ZM256.351 99.7803C256.283 99.8301 256.192 99.9004 256.078 99.9912C255.967 100.079 255.858 100.149 255.753 100.202C255.606 100.278 255.464 100.337 255.327 100.378C255.192 100.419 255.001 100.439 254.755 100.439C254.553 100.439 254.361 100.401 254.18 100.325C253.998 100.249 253.838 100.142 253.701 100.004C253.569 99.8696 253.463 99.7041 253.384 99.5078C253.305 99.3086 253.266 99.0991 253.266 98.8794C253.266 98.5396 253.337 98.251 253.481 98.0137C253.625 97.7734 253.852 97.583 254.162 97.4424C254.438 97.3164 254.763 97.23 255.138 97.1831C255.513 97.1333 255.917 97.0967 256.351 97.0732V96.915C256.351 96.7217 256.321 96.5664 256.263 96.4492C256.204 96.3291 256.122 96.2368 256.017 96.1724C255.911 96.105 255.782 96.061 255.63 96.0405C255.478 96.0171 255.321 96.0054 255.16 96.0054C254.969 96.0054 254.745 96.0347 254.487 96.0933C254.229 96.1489 253.972 96.231 253.714 96.3394H253.666V95.5C253.818 95.4561 254.036 95.4077 254.32 95.355C254.604 95.3022 254.886 95.2759 255.164 95.2759C255.501 95.2759 255.785 95.3022 256.017 95.355C256.248 95.4077 256.456 95.5029 256.641 95.6406C256.819 95.7754 256.953 95.9497 257.041 96.1636C257.128 96.3774 257.172 96.6382 257.172 96.9458V100.303H256.351V99.7803ZM261.923 96.1196H260.253V100.303H259.427V96.1196H257.757V95.3945H261.923V96.1196ZM266.256 98.7827C266.256 99.02 266.208 99.2354 266.111 99.4287C266.017 99.6221 265.888 99.7788 265.724 99.8989C265.531 100.045 265.324 100.149 265.104 100.211C264.885 100.272 264.602 100.303 264.256 100.303H262.538V95.3945H263.364V97.3062H264.278C264.647 97.3062 264.933 97.3252 265.135 97.3633C265.34 97.4014 265.544 97.4951 265.746 97.6445C265.916 97.7705 266.043 97.9316 266.128 98.1279C266.213 98.3242 266.256 98.5425 266.256 98.7827ZM265.403 98.7959C265.403 98.6465 265.377 98.5161 265.324 98.4048C265.274 98.2905 265.191 98.1982 265.074 98.1279C264.951 98.0547 264.81 98.0107 264.652 97.9961C264.497 97.9814 264.272 97.9741 263.979 97.9741H263.364V99.644H263.962C264.255 99.644 264.482 99.6323 264.643 99.6089C264.804 99.5825 264.943 99.5342 265.061 99.4639C265.181 99.3877 265.267 99.2983 265.32 99.1958C265.375 99.0903 265.403 98.957 265.403 98.7959Z" fill="#303549"/>
<path d="M317 37.8032H289C287.895 37.8032 287 38.6987 287 39.8032V67.8032C287 68.9078 287.895 69.8032 289 69.8032H317C318.105 69.8032 319 68.9078 319 67.8032V39.8032C319 38.6987 318.105 37.8032 317 37.8032Z" fill="#EBF1F9"/>
<path d="M300.2 46.8032H296V60.8032H310V56.6032" stroke="#303549" stroke-width="1.2" stroke-miterlimit="10" stroke-linecap="round" stroke-linejoin="round"/>
<path d="M310 46.8032V51.7032" stroke="#303549" stroke-width="1.2" stroke-miterlimit="10" stroke-linecap="round" stroke-linejoin="round"/>
<path d="M305.1 46.8032H310L304.75 52.0532" stroke="#303549" stroke-width="1.2" stroke-miterlimit="10" stroke-linecap="round" stroke-linejoin="round"/>
<path d="M282 38.5H7C6.17157 38.5 5.5 39.1716 5.5 40V68C5.5 68.8284 6.17157 69.5 7 69.5H282C282.828 69.5 283.5 68.8284 283.5 68V40C283.5 39.1716 282.828 38.5 282 38.5Z" stroke="#C4D3E9"/>
<path d="M275 50.3032L268 57.3032L261 50.3032" stroke="#8C99B2" stroke-width="1.2" stroke-miterlimit="10" stroke-linecap="round" stroke-linejoin="round"/>
<path d="M30.4141 57.8032H29.5439V54.5996H26.5337V57.8032H25.6636V51.2598H26.5337V53.8262H29.5439V51.2598H30.4141V57.8032ZM35.626 52.0332H32.6157V57.8032H31.7456V51.2598H35.626V52.0332ZM41.0664 57.8032H40.1963V52.0332H37.186V57.8032H36.3159V51.2598H41.0664V57.8032ZM47.1484 57.8032H46.2783V52.0332H43.2681V57.8032H42.3979V51.2598H47.1484V57.8032ZM52.7998 59.1216H47.7461V58.5503H52.7998V59.1216ZM56.3857 53.9492C56.3857 53.5039 56.3447 53.1421 56.2627 52.8638C56.1807 52.5825 56.0679 52.3657 55.9243 52.2134C55.7954 52.0728 55.665 51.9761 55.5332 51.9233C55.4014 51.8706 55.2563 51.8442 55.0981 51.8442C54.7378 51.8442 54.4507 51.9731 54.2368 52.231C54.0229 52.4888 53.916 52.8623 53.916 53.3516C53.916 53.627 53.9512 53.854 54.0215 54.0327C54.0918 54.2114 54.2061 54.3652 54.3643 54.4941C54.4756 54.585 54.6016 54.6465 54.7422 54.6787C54.8828 54.708 55.0337 54.7227 55.1948 54.7227C55.3823 54.7227 55.5845 54.6904 55.8013 54.626C56.0181 54.5586 56.207 54.4707 56.3682 54.3623C56.3711 54.3184 56.374 54.2612 56.377 54.1909C56.3828 54.1177 56.3857 54.0371 56.3857 53.9492ZM53.0239 53.3867C53.0239 53.0498 53.0781 52.7422 53.1865 52.4639C53.2979 52.1855 53.4487 51.9453 53.6392 51.7432C53.8208 51.5498 54.042 51.3989 54.3027 51.2905C54.5664 51.1821 54.833 51.1279 55.1025 51.1279C55.4043 51.1279 55.6768 51.1792 55.9199 51.2817C56.166 51.3813 56.3784 51.5264 56.5571 51.7168C56.7827 51.957 56.957 52.272 57.0801 52.6616C57.2061 53.0513 57.269 53.5435 57.269 54.1382C57.269 54.6802 57.2075 55.1943 57.0845 55.6807C56.9644 56.1641 56.7856 56.5654 56.5483 56.8848C56.2964 57.2246 55.9932 57.4839 55.6387 57.6626C55.2871 57.8413 54.8521 57.9307 54.3335 57.9307C54.2163 57.9307 54.0918 57.9233 53.96 57.9087C53.8281 57.897 53.7051 57.8735 53.5908 57.8384V56.999H53.6348C53.708 57.04 53.8223 57.0796 53.9775 57.1177C54.1328 57.1558 54.291 57.1748 54.4521 57.1748C55.0264 57.1748 55.4775 56.9858 55.8057 56.6079C56.1338 56.23 56.3198 55.6895 56.3638 54.9863C56.1294 55.1445 55.9053 55.2603 55.6914 55.3335C55.4805 55.4067 55.2505 55.4434 55.0015 55.4434C54.7583 55.4434 54.5371 55.417 54.3379 55.3643C54.1387 55.3115 53.938 55.209 53.7358 55.0566C53.5015 54.8779 53.3242 54.6523 53.2041 54.3799C53.084 54.1045 53.0239 53.7734 53.0239 53.3867ZM61.8262 57.8032H58.6357V57.1353H59.8223V52.7495H58.6357V52.1519C59.084 52.1519 59.4136 52.0889 59.6245 51.9629C59.8384 51.834 59.9585 51.5923 59.9849 51.2378H60.666V57.1353H61.8262V57.8032ZM66.2119 53.9492C66.2119 53.5039 66.1709 53.1421 66.0889 52.8638C66.0068 52.5825 65.894 52.3657 65.7505 52.2134C65.6216 52.0728 65.4912 51.9761 65.3594 51.9233C65.2275 51.8706 65.0825 51.8442 64.9243 51.8442C64.564 51.8442 64.2769 51.9731 64.063 52.231C63.8491 52.4888 63.7422 52.8623 63.7422 53.3516C63.7422 53.627 63.7773 53.854 63.8477 54.0327C63.918 54.2114 64.0322 54.3652 64.1904 54.4941C64.3018 54.585 64.4277 54.6465 64.5684 54.6787C64.709 54.708 64.8599 54.7227 65.021 54.7227C65.2085 54.7227 65.4106 54.6904 65.6274 54.626C65.8442 54.5586 66.0332 54.4707 66.1943 54.3623C66.1973 54.3184 66.2002 54.2612 66.2031 54.1909C66.209 54.1177 66.2119 54.0371 66.2119 53.9492ZM62.8501 53.3867C62.8501 53.0498 62.9043 52.7422 63.0127 52.4639C63.124 52.1855 63.2749 51.9453 63.4653 51.7432C63.647 51.5498 63.8682 51.3989 64.1289 51.2905C64.3926 51.1821 64.6592 51.1279 64.9287 51.1279C65.2305 51.1279 65.5029 51.1792 65.7461 51.2817C65.9922 51.3813 66.2046 51.5264 66.3833 51.7168C66.6089 51.957 66.7832 52.272 66.9062 52.6616C67.0322 53.0513 67.0952 53.5435 67.0952 54.1382C67.0952 54.6802 67.0337 55.1943 66.9106 55.6807C66.7905 56.1641 66.6118 56.5654 66.3745 56.8848C66.1226 57.2246 65.8193 57.4839 65.4648 57.6626C65.1133 57.8413 64.6782 57.9307 64.1597 57.9307C64.0425 57.9307 63.918 57.9233 63.7861 57.9087C63.6543 57.897 63.5312 57.8735 63.417 57.8384V56.999H63.4609C63.5342 57.04 63.6484 57.0796 63.8037 57.1177C63.959 57.1558 64.1172 57.1748 64.2783 57.1748C64.8525 57.1748 65.3037 56.9858 65.6318 56.6079C65.96 56.23 66.146 55.6895 66.1899 54.9863C65.9556 55.1445 65.7314 55.2603 65.5176 55.3335C65.3066 55.4067 65.0767 55.4434 64.8276 55.4434C64.5845 55.4434 64.3633 55.417 64.1641 55.3643C63.9648 55.3115 63.7642 55.209 63.562 55.0566C63.3276 54.8779 63.1504 54.6523 63.0303 54.3799C62.9102 54.1045 62.8501 53.7734 62.8501 53.3867ZM71.9863 57.8032H67.9478V56.8848C68.2378 56.6094 68.5117 56.3457 68.7695 56.0938C69.0273 55.8418 69.2793 55.5796 69.5254 55.3071C70.0234 54.7593 70.3633 54.3213 70.5449 53.9932C70.7266 53.6621 70.8174 53.3208 70.8174 52.9692C70.8174 52.7876 70.7881 52.6279 70.7295 52.4902C70.6738 52.3525 70.5962 52.2383 70.4966 52.1475C70.394 52.0596 70.2754 51.9937 70.1406 51.9497C70.0059 51.9058 69.8579 51.8838 69.6968 51.8838C69.5415 51.8838 69.3833 51.9043 69.2222 51.9453C69.064 51.9834 68.9116 52.0317 68.7651 52.0903C68.6421 52.1401 68.5234 52.2002 68.4092 52.2705C68.2949 52.3408 68.2026 52.4009 68.1323 52.4507H68.084V51.519C68.2656 51.4282 68.5176 51.3403 68.8398 51.2554C69.165 51.1675 69.4727 51.1235 69.7627 51.1235C70.3721 51.1235 70.8496 51.2861 71.1953 51.6113C71.541 51.9336 71.7139 52.3716 71.7139 52.9253C71.7139 53.1802 71.6831 53.416 71.6216 53.6328C71.563 53.8496 71.481 54.0503 71.3755 54.2349C71.2671 54.4253 71.1367 54.6143 70.9844 54.8018C70.832 54.9893 70.6709 55.1738 70.501 55.3555C70.2256 55.6543 69.918 55.9648 69.5781 56.2871C69.2412 56.6094 68.9717 56.8643 68.7695 57.0518H71.9863V57.8032ZM76.9697 52.2397L74.1396 57.8032H73.2036L76.2007 52.0288H72.8169V51.2598H76.9697V52.2397ZM81.9839 55.5532H81.2061V57.8032H80.3623V55.5532H77.4707V54.6304L80.3975 51.2598H81.2061V54.8501H81.9839V55.5532ZM80.3623 54.8501V52.2925L78.1562 54.8501H80.3623ZM86.7959 52.2397L83.9658 57.8032H83.0298L86.0269 52.0288H82.6431V51.2598H86.7959V52.2397ZM92.8076 55.3379H90.3291V54.5425H92.8076V55.3379ZM100.533 57.8032H96.4946V56.8848C96.7847 56.6094 97.0586 56.3457 97.3164 56.0938C97.5742 55.8418 97.8262 55.5796 98.0723 55.3071C98.5703 54.7593 98.9102 54.3213 99.0918 53.9932C99.2734 53.6621 99.3643 53.3208 99.3643 52.9692C99.3643 52.7876 99.335 52.6279 99.2764 52.4902C99.2207 52.3525 99.1431 52.2383 99.0435 52.1475C98.9409 52.0596 98.8223 51.9937 98.6875 51.9497C98.5527 51.9058 98.4048 51.8838 98.2437 51.8838C98.0884 51.8838 97.9302 51.9043 97.769 51.9453C97.6108 51.9834 97.4585 52.0317 97.312 52.0903C97.189 52.1401 97.0703 52.2002 96.9561 52.2705C96.8418 52.3408 96.7495 52.4009 96.6792 52.4507H96.6309V51.519C96.8125 51.4282 97.0645 51.3403 97.3867 51.2554C97.7119 51.1675 98.0195 51.1235 98.3096 51.1235C98.9189 51.1235 99.3965 51.2861 99.7422 51.6113C100.088 51.9336 100.261 52.3716 100.261 52.9253C100.261 53.1802 100.23 53.416 100.168 53.6328C100.11 53.8496 100.028 54.0503 99.9224 54.2349C99.814 54.4253 99.6836 54.6143 99.5312 54.8018C99.3789 54.9893 99.2178 55.1738 99.0479 55.3555C98.7725 55.6543 98.4648 55.9648 98.125 56.2871C97.7881 56.6094 97.5186 56.8643 97.3164 57.0518H100.533V57.8032ZM105.517 52.2397L102.687 57.8032H101.75L104.748 52.0288H101.364V51.2598H105.517V52.2397ZM107.727 57.8032H106.677V56.5508H107.727V57.8032ZM113.115 54.5293C113.115 55.7041 112.943 56.5669 112.601 57.1177C112.261 57.6655 111.735 57.9395 111.023 57.9395C110.302 57.9395 109.773 57.6597 109.437 57.1001C109.1 56.5405 108.931 55.6865 108.931 54.5381C108.931 53.3574 109.101 52.4946 109.441 51.9497C109.784 51.4019 110.311 51.1279 111.023 51.1279C111.744 51.1279 112.272 51.4106 112.609 51.9761C112.946 52.5415 113.115 53.3926 113.115 54.5293ZM111.99 56.5244C112.075 56.3076 112.135 56.0337 112.17 55.7026C112.205 55.3716 112.223 54.9805 112.223 54.5293C112.223 54.0811 112.205 53.6914 112.17 53.3604C112.135 53.0293 112.073 52.7539 111.985 52.5342C111.897 52.3115 111.776 52.1431 111.621 52.0288C111.468 51.9116 111.269 51.853 111.023 51.853C110.78 51.853 110.579 51.9116 110.421 52.0288C110.266 52.1431 110.143 52.3145 110.052 52.543C109.964 52.7656 109.904 53.0469 109.872 53.3867C109.839 53.7266 109.823 54.1104 109.823 54.5381C109.823 54.9951 109.836 55.3774 109.863 55.6851C109.892 55.9927 109.954 56.2681 110.047 56.5112C110.132 56.7368 110.252 56.9111 110.408 57.0342C110.566 57.1543 110.771 57.2144 111.023 57.2144C111.266 57.2144 111.465 57.1572 111.621 57.043C111.779 56.9258 111.902 56.7529 111.99 56.5244ZM117.922 55.7202C117.922 56.0366 117.871 56.3296 117.769 56.5991C117.669 56.8687 117.528 57.1016 117.347 57.2979C117.162 57.4971 116.932 57.6538 116.657 57.7681C116.384 57.8823 116.078 57.9395 115.738 57.9395C115.425 57.9395 115.116 57.9043 114.811 57.834C114.509 57.7666 114.247 57.6772 114.024 57.5659V56.6387H114.086C114.153 56.6885 114.25 56.7456 114.376 56.8101C114.502 56.8716 114.641 56.9302 114.793 56.9858C114.966 57.0474 115.125 57.0957 115.268 57.1309C115.412 57.1631 115.573 57.1792 115.751 57.1792C115.927 57.1792 116.099 57.1484 116.266 57.0869C116.433 57.0225 116.576 56.9199 116.696 56.7793C116.805 56.6504 116.887 56.4995 116.942 56.3267C117.001 56.1538 117.03 55.9502 117.03 55.7158C117.03 55.4844 116.998 55.2939 116.934 55.1445C116.872 54.9951 116.781 54.8721 116.661 54.7754C116.535 54.6641 116.38 54.5864 116.195 54.5425C116.014 54.4956 115.81 54.4722 115.584 54.4722C115.347 54.4722 115.108 54.4912 114.868 54.5293C114.628 54.5645 114.436 54.5981 114.292 54.6304V51.2598H117.883V52.0288H115.141V53.769C115.246 53.7573 115.35 53.7485 115.453 53.7427C115.555 53.7368 115.649 53.7339 115.734 53.7339C116.068 53.7339 116.351 53.7617 116.582 53.8174C116.813 53.873 117.036 53.9814 117.25 54.1426C117.467 54.3066 117.632 54.5117 117.747 54.7578C117.864 55.0039 117.922 55.3247 117.922 55.7202ZM120.278 57.8032H119.228V56.5508H120.278V57.8032ZM125.635 57.8032H121.596V56.8848C121.886 56.6094 122.16 56.3457 122.418 56.0938C122.676 55.8418 122.928 55.5796 123.174 55.3071C123.672 54.7593 124.012 54.3213 124.193 53.9932C124.375 53.6621 124.466 53.3208 124.466 52.9692C124.466 52.7876 124.437 52.6279 124.378 52.4902C124.322 52.3525 124.245 52.2383 124.145 52.1475C124.042 52.0596 123.924 51.9937 123.789 51.9497C123.654 51.9058 123.506 51.8838 123.345 51.8838C123.19 51.8838 123.032 51.9043 122.871 51.9453C122.712 51.9834 122.56 52.0317 122.414 52.0903C122.291 52.1401 122.172 52.2002 122.058 52.2705C121.943 52.3408 121.851 52.4009 121.781 52.4507H121.732V51.519C121.914 51.4282 122.166 51.3403 122.488 51.2554C122.813 51.1675 123.121 51.1235 123.411 51.1235C124.021 51.1235 124.498 51.2861 124.844 51.6113C125.189 51.9336 125.362 52.3716 125.362 52.9253C125.362 53.1802 125.332 53.416 125.27 53.6328C125.211 53.8496 125.129 54.0503 125.024 54.2349C124.916 54.4253 124.785 54.6143 124.633 54.8018C124.48 54.9893 124.319 55.1738 124.149 55.3555C123.874 55.6543 123.566 55.9648 123.227 56.2871C122.89 56.6094 122.62 56.8643 122.418 57.0518H125.635V57.8032ZM130.579 54.5293C130.579 55.7041 130.407 56.5669 130.064 57.1177C129.725 57.6655 129.199 57.9395 128.487 57.9395C127.766 57.9395 127.237 57.6597 126.9 57.1001C126.563 56.5405 126.395 55.6865 126.395 54.5381C126.395 53.3574 126.565 52.4946 126.905 51.9497C127.248 51.4019 127.775 51.1279 128.487 51.1279C129.208 51.1279 129.736 51.4106 130.073 51.9761C130.41 52.5415 130.579 53.3926 130.579 54.5293ZM129.454 56.5244C129.539 56.3076 129.599 56.0337 129.634 55.7026C129.669 55.3716 129.687 54.9805 129.687 54.5293C129.687 54.0811 129.669 53.6914 129.634 53.3604C129.599 53.0293 129.537 52.7539 129.449 52.5342C129.361 52.3115 129.24 52.1431 129.084 52.0288C128.932 51.9116 128.733 51.853 128.487 51.853C128.244 51.853 128.043 51.9116 127.885 52.0288C127.729 52.1431 127.606 52.3145 127.516 52.543C127.428 52.7656 127.368 53.0469 127.335 53.3867C127.303 53.7266 127.287 54.1104 127.287 54.5381C127.287 54.9951 127.3 55.3774 127.327 55.6851C127.356 55.9927 127.417 56.2681 127.511 56.5112C127.596 56.7368 127.716 56.9111 127.872 57.0342C128.03 57.1543 128.235 57.2144 128.487 57.2144C128.73 57.2144 128.929 57.1572 129.084 57.043C129.243 56.9258 129.366 56.7529 129.454 56.5244ZM135.461 57.8032H131.422V56.8848C131.712 56.6094 131.986 56.3457 132.244 56.0938C132.502 55.8418 132.754 55.5796 133 55.3071C133.498 54.7593 133.838 54.3213 134.02 53.9932C134.201 53.6621 134.292 53.3208 134.292 52.9692C134.292 52.7876 134.263 52.6279 134.204 52.4902C134.148 52.3525 134.071 52.2383 133.971 52.1475C133.869 52.0596 133.75 51.9937 133.615 51.9497C133.48 51.9058 133.333 51.8838 133.171 51.8838C133.016 51.8838 132.858 51.9043 132.697 51.9453C132.539 51.9834 132.386 52.0317 132.24 52.0903C132.117 52.1401 131.998 52.2002 131.884 52.2705C131.77 52.3408 131.677 52.4009 131.607 52.4507H131.559V51.519C131.74 51.4282 131.992 51.3403 132.314 51.2554C132.64 51.1675 132.947 51.1235 133.237 51.1235C133.847 51.1235 134.324 51.2861 134.67 51.6113C135.016 51.9336 135.188 52.3716 135.188 52.9253C135.188 53.1802 135.158 53.416 135.096 53.6328C135.038 53.8496 134.956 54.0503 134.85 54.2349C134.742 54.4253 134.611 54.6143 134.459 54.8018C134.307 54.9893 134.146 55.1738 133.976 55.3555C133.7 55.6543 133.393 55.9648 133.053 56.2871C132.716 56.6094 132.446 56.8643 132.244 57.0518H135.461V57.8032ZM140.405 54.5293C140.405 55.7041 140.233 56.5669 139.891 57.1177C139.551 57.6655 139.025 57.9395 138.313 57.9395C137.592 57.9395 137.063 57.6597 136.727 57.1001C136.39 56.5405 136.221 55.6865 136.221 54.5381C136.221 53.3574 136.391 52.4946 136.731 51.9497C137.074 51.4019 137.601 51.1279 138.313 51.1279C139.034 51.1279 139.562 51.4106 139.899 51.9761C140.236 52.5415 140.405 53.3926 140.405 54.5293ZM139.28 56.5244C139.365 56.3076 139.425 56.0337 139.46 55.7026C139.495 55.3716 139.513 54.9805 139.513 54.5293C139.513 54.0811 139.495 53.6914 139.46 53.3604C139.425 53.0293 139.363 52.7539 139.275 52.5342C139.188 52.3115 139.066 52.1431 138.911 52.0288C138.758 51.9116 138.559 51.853 138.313 51.853C138.07 51.853 137.869 51.9116 137.711 52.0288C137.556 52.1431 137.433 52.3145 137.342 52.543C137.254 52.7656 137.194 53.0469 137.162 53.3867C137.129 53.7266 137.113 54.1104 137.113 54.5381C137.113 54.9951 137.126 55.3774 137.153 55.6851C137.182 55.9927 137.244 56.2681 137.337 56.5112C137.422 56.7368 137.542 56.9111 137.698 57.0342C137.856 57.1543 138.061 57.2144 138.313 57.2144C138.556 57.2144 138.755 57.1572 138.911 57.043C139.069 56.9258 139.192 56.7529 139.28 56.5244Z" fill="#303549"/>
<path fill-rule="evenodd" clip-rule="evenodd" d="M15.5 65.8032C14.6716 65.8032 14 65.1316 14 64.3032V43.3032C14 42.4748 14.6716 41.8032 15.5 41.8032C16.3284 41.8032 17 42.4748 17 43.3032V64.3032C17 65.1316 16.3284 65.8032 15.5 65.8032Z" fill="#0089FF"/>
<path d="M22.5454 19.2217H76.5454" stroke="#0089FF" stroke-dasharray="2 2"/>
<path d="M101.727 19.2217H155.727" stroke="#8C99B2" stroke-dasharray="2 2"/>
<path d="M175 19.2217H229" stroke="#8C99B2" stroke-dasharray="2 2"/>
<path d="M248.273 19.2217H302.273" stroke="#8C99B2" stroke-dasharray="2 2"/>
<path d="M11.9091 25.1178C15.1726 25.1178 17.8182 22.5146 17.8182 19.3034C17.8182 16.0922 15.1726 13.489 11.9091 13.489C8.6456 13.489 6.00001 16.0922 6.00001 19.3034C6.00001 22.5146 8.6456 25.1178 11.9091 25.1178Z" stroke="#0089FF"/>
<path d="M9.54541 19.5477L10.9553 20.9547C11.0797 21.0789 11.287 21.0789 11.4529 20.9547L14.2727 18.1406" stroke="#0089FF" stroke-miterlimit="10" stroke-linecap="round" stroke-linejoin="round"/>
<path d="M165.545 25.1176C168.808 25.1176 171.454 22.5144 171.454 19.3032C171.454 16.092 168.808 13.4888 165.545 13.4888C162.281 13.4888 159.636 16.092 159.636 19.3032C159.636 22.5144 162.281 25.1176 165.545 25.1176Z" stroke="#8C99B2"/>
<path d="M238.818 25.1176C242.081 25.1176 244.727 22.5144 244.727 19.3032C244.727 16.092 242.081 13.4888 238.818 13.4888C235.554 13.4888 232.909 16.092 232.909 19.3032C232.909 22.5144 235.554 25.1176 238.818 25.1176Z" stroke="#8C99B2"/>
<path d="M312.091 25.1176C315.355 25.1176 318 22.5144 318 19.3032C318 16.092 315.355 13.4888 312.091 13.4888C308.828 13.4888 306.182 16.092 306.182 19.3032C306.182 22.5144 308.828 25.1176 312.091 25.1176Z" stroke="#8C99B2"/>
<path d="M88.7272 27.4431C93.2961 27.4431 96.9999 23.7987 96.9999 19.303C96.9999 14.8073 93.2961 11.1628 88.7272 11.1628C84.1583 11.1628 80.4545 14.8073 80.4545 19.303C80.4545 23.7987 84.1583 27.4431 88.7272 27.4431Z" stroke="#0089FF"/>
<path d="M88.7273 23.9546C91.3381 23.9546 93.4546 21.872 93.4546 19.3031C93.4546 16.7341 91.3381 14.6516 88.7273 14.6516C86.1165 14.6516 84 16.7341 84 19.3031C84 21.872 86.1165 23.9546 88.7273 23.9546Z" fill="#8C99B2"/>
</svg>
