<svg id="ecb98290-2d13-4918-ae2c-9747fa12d9d0" data-name="1" xmlns="http://www.w3.org/2000/svg" viewBox="0 0 324 116.75"><defs><style>.bbcc5a11-1780-4259-b929-163b1610099c{fill:#5c6581;}.fb60a534-ee15-4a74-a777-21e96affc64c{opacity:0.55;}.ef24f26e-4096-4b3e-9a4b-176130167663{opacity:0.25;}.e8c1594a-c21b-4dae-b19b-8462adb2cf4a{opacity:0.1;}.a735fd0d-81ff-44bf-9559-538fa5cdeeea{fill:#131822;}.a2ac6f4e-eeac-48ea-b2ae-365ffd4cc341{fill:#fff;}.f035a495-b3ef-4371-9b25-f4df96c577f4{fill:#58607f;}.a2cce76e-e853-4762-9577-9d0e074f1e30{fill:#121928;}.ba5d7175-4f49-41d1-8cbe-8b775d2ac3f1{fill:#212636;}.ef00c02c-a64d-4462-b710-c2475db3a0b5{fill:#69aac0;}.a06731d0-b52e-4b38-afee-aeb128199da7{opacity:0.2;}.bed69829-ea29-444d-9d0b-b9cc0aa9f070{fill:#009de2;}.b571c4ee-9121-4f82-aad9-255ed670210f{fill:#ffa300;}.a0fd4b1e-2f90-4eef-926f-b490714f7f3c{opacity:0.5;}.b5a6f55a-e960-43b4-9ce1-c770a13d7844{fill:red;}</style></defs><title>Макеты (5)</title><polygon class="bbcc5a11-1780-4259-b929-163b1610099c" points="228.76 60.21 230.87 56.44 228.76 52.68 231.64 52.68 233.75 56.44 231.64 60.21 228.76 60.21"/><g class="fb60a534-ee15-4a74-a777-21e96affc64c"><polygon class="bbcc5a11-1780-4259-b929-163b1610099c" points="224.24 60.21 226.35 56.44 224.24 52.68 227.12 52.68 229.23 56.44 227.12 60.21 224.24 60.21"/></g><g class="ef24f26e-4096-4b3e-9a4b-176130167663"><polygon class="bbcc5a11-1780-4259-b929-163b1610099c" points="219.72 60.21 221.83 56.44 219.72 52.68 222.6 52.68 224.71 56.44 222.6 60.21 219.72 60.21"/></g><g class="e8c1594a-c21b-4dae-b19b-8462adb2cf4a"><polygon class="bbcc5a11-1780-4259-b929-163b1610099c" points="215.2 60.21 217.31 56.44 215.2 52.68 218.08 52.68 220.19 56.44 218.08 60.21 215.2 60.21"/></g><polygon class="bbcc5a11-1780-4259-b929-163b1610099c" points="111.55 60.21 113.66 56.44 111.55 52.68 114.43 52.68 116.54 56.44 114.43 60.21 111.55 60.21"/><g class="fb60a534-ee15-4a74-a777-21e96affc64c"><polygon class="bbcc5a11-1780-4259-b929-163b1610099c" points="107.03 60.21 109.14 56.44 107.03 52.68 109.91 52.68 112.02 56.44 109.91 60.21 107.03 60.21"/></g><g class="ef24f26e-4096-4b3e-9a4b-176130167663"><polygon class="bbcc5a11-1780-4259-b929-163b1610099c" points="102.51 60.21 104.62 56.44 102.51 52.68 105.39 52.68 107.5 56.44 105.39 60.21 102.51 60.21"/></g><g class="e8c1594a-c21b-4dae-b19b-8462adb2cf4a"><polygon class="bbcc5a11-1780-4259-b929-163b1610099c" points="97.99 60.21 100.1 56.44 97.99 52.68 100.87 52.68 102.98 56.44 100.87 60.21 97.99 60.21"/></g><rect class="a735fd0d-81ff-44bf-9559-538fa5cdeeea" x="282.13" y="24.02" width="1.13" height="9.47"/><path class="a2ac6f4e-eeac-48ea-b2ae-365ffd4cc341" d="M273.77,48.27a1.87,1.87,0,0,1,.36.67,3.22,3.22,0,0,1,0,1.81,1.77,1.77,0,0,1-.36.68,1.57,1.57,0,0,1-.58.42,2.05,2.05,0,0,1-1.49,0,1.69,1.69,0,0,1-.57-.42,1.8,1.8,0,0,1-.36-.67,3.17,3.17,0,0,1-.13-.91,3.07,3.07,0,0,1,.13-.91,2,2,0,0,1,.37-.67,1.45,1.45,0,0,1,.56-.42,2,2,0,0,1,.75-.14,1.79,1.79,0,0,1,.75.15A1.46,1.46,0,0,1,273.77,48.27Zm-.08,1.58a2.64,2.64,0,0,0-.08-.72,1.4,1.4,0,0,0-.25-.52,1,1,0,0,0-.39-.32,1.24,1.24,0,0,0-.52-.11,1.16,1.16,0,0,0-.51.11,1,1,0,0,0-.4.32,1.47,1.47,0,0,0-.24.52,2.63,2.63,0,0,0-.09.72,2,2,0,0,0,.34,1.24,1.09,1.09,0,0,0,.9.43,1.12,1.12,0,0,0,.91-.43A2,2,0,0,0,273.69,49.85Z"/><path class="a2ac6f4e-eeac-48ea-b2ae-365ffd4cc341" d="M277.06,49.28H276V51.9h-.51V49.28h-1.05v-.46h2.61Z"/><path class="a2ac6f4e-eeac-48ea-b2ae-365ffd4cc341" d="M279.39,49.28H278V51.9h-.52V48.82h1.95Z"/><path class="a2ac6f4e-eeac-48ea-b2ae-365ffd4cc341" d="M282.35,50.28a2,2,0,0,1-.37,1.23,1.14,1.14,0,0,1-.93.45,1.25,1.25,0,0,1-.4-.05,1.42,1.42,0,0,1-.36-.16V53h-.52V48.82h.52v.32a2.16,2.16,0,0,1,.43-.29,1.19,1.19,0,0,1,.51-.11,1,1,0,0,1,.82.42A1.88,1.88,0,0,1,282.35,50.28Zm-.54.06a1.71,1.71,0,0,0-.16-.82.61.61,0,0,0-.55-.29.9.9,0,0,0-.42.1,1.62,1.62,0,0,0-.39.25v1.75a2,2,0,0,0,.35.13,1.06,1.06,0,0,0,.33,0,.72.72,0,0,0,.62-.3A1.38,1.38,0,0,0,281.81,50.34Z"/><path class="a2ac6f4e-eeac-48ea-b2ae-365ffd4cc341" d="M285.29,48.82,283.64,53h-.55l.55-1.29-1.11-2.93h.55l.84,2.28.83-2.28Z"/><path class="a2ac6f4e-eeac-48ea-b2ae-365ffd4cc341" d="M287.71,51.05a.78.78,0,0,1-.4.72,1.45,1.45,0,0,1-.38.16,2,2,0,0,1-.43,0,2.62,2.62,0,0,1-.57-.06,2.58,2.58,0,0,1-.53-.19v-.58h0a1.28,1.28,0,0,0,.47.28,1.84,1.84,0,0,0,.56.1l.26,0a.69.69,0,0,0,.23-.08.48.48,0,0,0,.18-.16.44.44,0,0,0,.06-.25.48.48,0,0,0-.06-.26.4.4,0,0,0-.17-.15.61.61,0,0,0-.24-.07h-.65v-.45h.54a.73.73,0,0,0,.25,0,.41.41,0,0,0,.19-.12.43.43,0,0,0,.07-.28.33.33,0,0,0-.06-.21.37.37,0,0,0-.15-.13.48.48,0,0,0-.2-.07l-.21,0a2.09,2.09,0,0,0-.51.07,1.34,1.34,0,0,0-.41.22h0v-.56a4,4,0,0,1,.44-.12,2,2,0,0,1,.48,0,1.72,1.72,0,0,1,.39,0,1.28,1.28,0,0,1,.39.13.87.87,0,0,1,.28.26.65.65,0,0,1,.12.4.72.72,0,0,1-.14.44.66.66,0,0,1-.38.25v0a1,1,0,0,1,.42.27A.71.71,0,0,1,287.71,51.05Z"/><path class="a2ac6f4e-eeac-48ea-b2ae-365ffd4cc341" d="M290.72,51.9h-.64L289,50.48h-.26V51.9h-.51V48.82h.51v1.34a.68.68,0,0,0,.34-.08.59.59,0,0,0,.24-.32,1.26,1.26,0,0,0,.07-.16.64.64,0,0,0,.06-.16.93.93,0,0,1,.34-.48,1,1,0,0,1,.55-.14h.14v.45h-.12a.49.49,0,0,0-.32.09.72.72,0,0,0-.18.33,1.42,1.42,0,0,1-.18.37.64.64,0,0,1-.24.2Z"/><path class="a2ac6f4e-eeac-48ea-b2ae-365ffd4cc341" d="M292.77,51.58l-.17.13-.2.13-.27.11a1.11,1.11,0,0,1-.36,0,.92.92,0,0,1-.36-.07,1.21,1.21,0,0,1-.3-.2,1.16,1.16,0,0,1-.27-.71,1.07,1.07,0,0,1,.14-.55.92.92,0,0,1,.42-.35,2.09,2.09,0,0,1,.61-.17c.24,0,.49,0,.76-.06v-.1a.81.81,0,0,0,0-.3.44.44,0,0,0-.16-.17.57.57,0,0,0-.24-.08,1.42,1.42,0,0,0-.29,0,1.7,1.7,0,0,0-.42,0,2.77,2.77,0,0,0-.49.15h0v-.52l.41-.09a2.38,2.38,0,0,1,.53,0,2,2,0,0,1,.53,0A.88.88,0,0,1,293,49a.72.72,0,0,1,.25.32,1.25,1.25,0,0,1,.08.5v2.1h-.51Zm0-.44v-.85l-.47,0a2.23,2.23,0,0,0-.45.09.75.75,0,0,0-.34.19.49.49,0,0,0-.13.37.52.52,0,0,0,.14.4.64.64,0,0,0,.44.13.92.92,0,0,0,.44-.1A2.33,2.33,0,0,0,292.77,51.14Z"/><path class="a2ac6f4e-eeac-48ea-b2ae-365ffd4cc341" d="M267.58,61.68h-3.46v-.79l.71-.68c.22-.21.43-.44.65-.67a7.34,7.34,0,0,0,.87-1.13,1.83,1.83,0,0,0,.23-.87,1,1,0,0,0-.07-.41.93.93,0,0,0-.2-.3,1,1,0,0,0-.31-.17,1.46,1.46,0,0,0-.38,0,1.37,1.37,0,0,0-.4,0,2.64,2.64,0,0,0-.4.12l-.3.16-.24.15h0V56.3a3.17,3.17,0,0,1,.65-.23,2.83,2.83,0,0,1,.79-.11,1.73,1.73,0,0,1,1.22.41,1.48,1.48,0,0,1,.45,1.13,2.37,2.37,0,0,1-.08.61,2.28,2.28,0,0,1-.21.51,3.61,3.61,0,0,1-.34.49c-.13.16-.26.31-.41.47s-.5.52-.79.8l-.69.65h2.75Z"/><path class="a2ac6f4e-eeac-48ea-b2ae-365ffd4cc341" d="M272.25,56.61a1.48,1.48,0,0,0-.41,0,2.91,2.91,0,0,0-.39.12,3.17,3.17,0,0,0-.32.16l-.24.16h0v-.8a4,4,0,0,1,.66-.24,3.3,3.3,0,0,1,.8-.1A2.7,2.7,0,0,1,273,56a2.17,2.17,0,0,1,.51.24,1.2,1.2,0,0,1,.37.44,1.26,1.26,0,0,1,.13.6,1.16,1.16,0,0,1-.31.81,1.3,1.3,0,0,1-.73.44v.06a2,2,0,0,1,.38.11,1.32,1.32,0,0,1,.38.25,1.24,1.24,0,0,1,.28.41,1.64,1.64,0,0,1,.11.62,1.74,1.74,0,0,1-.5,1.26,1.6,1.6,0,0,1-.59.39,2.15,2.15,0,0,1-.79.13,3.37,3.37,0,0,1-.83-.1,3.78,3.78,0,0,1-.7-.24v-.8h.06a2.44,2.44,0,0,0,.63.33,2.08,2.08,0,0,0,.8.16,1.47,1.47,0,0,0,.46-.07,1,1,0,0,0,.39-.24,1.28,1.28,0,0,0,.23-.37,1.43,1.43,0,0,0,.07-.5,1.22,1.22,0,0,0-.08-.5.76.76,0,0,0-.25-.31.93.93,0,0,0-.37-.15,2.42,2.42,0,0,0-.47,0h-.32v-.62h.25a1.33,1.33,0,0,0,.82-.24.84.84,0,0,0,.32-.7.87.87,0,0,0-.08-.37.83.83,0,0,0-.21-.24.9.9,0,0,0-.32-.13A1.5,1.5,0,0,0,272.25,56.61Z"/><path class="a2ac6f4e-eeac-48ea-b2ae-365ffd4cc341" d="M278.55,59.75h-.67v1.93h-.72V59.75h-2.47V59l2.5-2.89h.69v3.08h.67Zm-1.39-.6V57l-1.89,2.19Z"/><path class="a2ac6f4e-eeac-48ea-b2ae-365ffd4cc341" d="M280.66,56.61a1.37,1.37,0,0,0-.4,0,2.64,2.64,0,0,0-.4.12,3.17,3.17,0,0,0-.32.16l-.23.16h-.05v-.8a4.12,4.12,0,0,1,.67-.24,3.17,3.17,0,0,1,.79-.1,2.65,2.65,0,0,1,.67.07,2,2,0,0,1,.51.24,1.23,1.23,0,0,1,.38.44,1.4,1.4,0,0,1,.12.6,1.2,1.2,0,0,1-.3.81,1.37,1.37,0,0,1-.73.44v.06a2.24,2.24,0,0,1,.38.11,1.27,1.27,0,0,1,.37.25,1.11,1.11,0,0,1,.28.41,1.46,1.46,0,0,1,.11.62,1.79,1.79,0,0,1-.49,1.26,1.73,1.73,0,0,1-.6.39,2.13,2.13,0,0,1-.78.13,3.44,3.44,0,0,1-.84-.1,3.66,3.66,0,0,1-.69-.24v-.8h.05a2.62,2.62,0,0,0,.63.33,2.11,2.11,0,0,0,.8.16,1.43,1.43,0,0,0,.46-.07.86.86,0,0,0,.39-.24,1.1,1.1,0,0,0,.23-.37,1.41,1.41,0,0,0,.08-.5,1.21,1.21,0,0,0-.09-.5.76.76,0,0,0-.25-.31A.88.88,0,0,0,281,59a2.34,2.34,0,0,0-.47,0h-.32v-.62h.25a1.31,1.31,0,0,0,.82-.24.81.81,0,0,0,.32-.7.87.87,0,0,0-.08-.37.83.83,0,0,0-.21-.24.9.9,0,0,0-.32-.13A1.45,1.45,0,0,0,280.66,56.61Z"/><path class="a2ac6f4e-eeac-48ea-b2ae-365ffd4cc341" d="M289.22,61.68h-3.45v-.79l.7-.68c.22-.21.44-.44.65-.67a7.34,7.34,0,0,0,.87-1.13,1.72,1.72,0,0,0,.23-.87,1,1,0,0,0-.07-.41.93.93,0,0,0-.2-.3,1,1,0,0,0-.31-.17,1.46,1.46,0,0,0-.38,0,1.41,1.41,0,0,0-.4,0,2.22,2.22,0,0,0-.39.12l-.31.16-.24.15h0V56.3a3.17,3.17,0,0,1,.65-.23,2.83,2.83,0,0,1,.79-.11,1.77,1.77,0,0,1,1.23.41A1.51,1.51,0,0,1,289,57.5a2.37,2.37,0,0,1-.08.61,2.28,2.28,0,0,1-.21.51,3.51,3.51,0,0,1-.33.49c-.13.16-.27.31-.42.47s-.5.52-.79.8l-.69.65h2.75Z"/><path class="a2ac6f4e-eeac-48ea-b2ae-365ffd4cc341" d="M291.49,56.61a1.4,1.4,0,0,0-.41,0,2.64,2.64,0,0,0-.4.12,2.2,2.2,0,0,0-.31.16l-.24.16h-.05v-.8a4.12,4.12,0,0,1,.67-.24,3.25,3.25,0,0,1,.8-.1,2.62,2.62,0,0,1,.66.07,2,2,0,0,1,.51.24,1.23,1.23,0,0,1,.38.44,1.4,1.4,0,0,1,.12.6,1.2,1.2,0,0,1-.3.81,1.33,1.33,0,0,1-.73.44v.06a2.24,2.24,0,0,1,.38.11,1.27,1.27,0,0,1,.37.25,1.11,1.11,0,0,1,.28.41,1.46,1.46,0,0,1,.11.62,1.79,1.79,0,0,1-.49,1.26,1.69,1.69,0,0,1-.59.39,2.22,2.22,0,0,1-.79.13,3.44,3.44,0,0,1-.84-.1,3.93,3.93,0,0,1-.69-.24v-.8H290a2.53,2.53,0,0,0,.64.33,2,2,0,0,0,.79.16,1.43,1.43,0,0,0,.46-.07.86.86,0,0,0,.39-.24,1.1,1.1,0,0,0,.23-.37,1.41,1.41,0,0,0,.08-.5,1.21,1.21,0,0,0-.09-.5.76.76,0,0,0-.25-.31.88.88,0,0,0-.37-.15,2.26,2.26,0,0,0-.47,0h-.32v-.62h.25a1.36,1.36,0,0,0,.83-.24.83.83,0,0,0,.31-.7.75.75,0,0,0-.08-.37.61.61,0,0,0-.21-.24.9.9,0,0,0-.32-.13A1.37,1.37,0,0,0,291.49,56.61Z"/><path class="a2ac6f4e-eeac-48ea-b2ae-365ffd4cc341" d="M297.78,59.75h-.66v1.93h-.73V59.75h-2.47V59l2.51-2.89h.69v3.08h.66Zm-1.39-.6V57l-1.88,2.19Z"/><path class="f035a495-b3ef-4371-9b25-f4df96c577f4" d="M281.2,76.3a3.57,3.57,0,0,1-3.56-3.56,2.8,2.8,0,0,1,0-.4c.23-3.31,3.31-5.9,3.45-6l.16.2s-3.13,2.63-3.36,5.84c0,.13,0,.25,0,.37a3.3,3.3,0,0,0,6.57.42l.25,0A3.55,3.55,0,0,1,281.2,76.3Z"/><path class="a2cce76e-e853-4762-9577-9d0e074f1e30" d="M279.19,72.91a1.74,1.74,0,0,0,1.73,1.73"/><path class="f035a495-b3ef-4371-9b25-f4df96c577f4" d="M280.92,74.77a1.87,1.87,0,0,1-1.86-1.86h.26a1.6,1.6,0,0,0,1.6,1.6Z"/><polyline class="a2cce76e-e853-4762-9577-9d0e074f1e30" points="284.22 66.52 286.32 68.63 284.22 70.74"/><polygon class="f035a495-b3ef-4371-9b25-f4df96c577f4" points="284.31 70.83 284.13 70.65 286.14 68.63 284.13 66.61 284.31 66.43 286.51 68.63 284.31 70.83"/><rect class="f035a495-b3ef-4371-9b25-f4df96c577f4" x="282.02" y="68.5" width="4.31" height="0.26"/><path class="a2ac6f4e-eeac-48ea-b2ae-365ffd4cc341" d="M147.37,51.9h-.55V48.28h-1.88V51.9h-.54V47.8h3Z"/><path class="a2ac6f4e-eeac-48ea-b2ae-365ffd4cc341" d="M149.87,51.58l-.17.13-.2.13-.27.11a1.11,1.11,0,0,1-.36,0,.92.92,0,0,1-.36-.07,1.21,1.21,0,0,1-.3-.2,1.16,1.16,0,0,1-.27-.71,1.07,1.07,0,0,1,.14-.55.92.92,0,0,1,.42-.35,2.09,2.09,0,0,1,.61-.17c.24,0,.49,0,.76-.06v-.1a.64.64,0,0,0-.06-.3.35.35,0,0,0-.15-.17.62.62,0,0,0-.24-.08,1.42,1.42,0,0,0-.29,0,1.83,1.83,0,0,0-.43,0,3,3,0,0,0-.48.15h0v-.52l.41-.09a2.38,2.38,0,0,1,.53,0,2,2,0,0,1,.53,0,.93.93,0,0,1,.39.18.72.72,0,0,1,.25.32,1.25,1.25,0,0,1,.08.5v2.1h-.51Zm0-.44v-.85l-.47,0a2.09,2.09,0,0,0-.45.09.75.75,0,0,0-.34.19.5.5,0,0,0-.14.37.52.52,0,0,0,.15.4.64.64,0,0,0,.44.13.92.92,0,0,0,.44-.1A2.33,2.33,0,0,0,149.87,51.14Z"/><path class="a2ac6f4e-eeac-48ea-b2ae-365ffd4cc341" d="M152.33,52a1.54,1.54,0,0,1-.58-.1,1.16,1.16,0,0,1-.46-.29,1.43,1.43,0,0,1-.29-.5,2.17,2.17,0,0,1-.1-.71,2.07,2.07,0,0,1,.1-.7,1.61,1.61,0,0,1,.29-.5,1.25,1.25,0,0,1,.46-.31,1.58,1.58,0,0,1,.58-.11,1.55,1.55,0,0,1,.48.07,2,2,0,0,1,.42.17v.58h0l-.14-.11-.21-.12a1.18,1.18,0,0,0-.25-.1,1,1,0,0,0-.28,0,.81.81,0,0,0-.65.3,1.41,1.41,0,0,0-.24.87,1.36,1.36,0,0,0,.24.85.77.77,0,0,0,.65.3,1.12,1.12,0,0,0,.48-.1,1.41,1.41,0,0,0,.4-.27h0v.58l-.19.09-.21.07-.23.06A1.06,1.06,0,0,1,152.33,52Z"/><path class="a2ac6f4e-eeac-48ea-b2ae-365ffd4cc341" d="M156.12,51.9h-.51V49.27h-1.39V51.9h-.52V48.82h2.42Z"/><path class="a2ac6f4e-eeac-48ea-b2ae-365ffd4cc341" d="M159.39,50.36a1.79,1.79,0,0,1-.37,1.21,1.38,1.38,0,0,1-2,0,1.82,1.82,0,0,1-.37-1.19,1.78,1.78,0,0,1,.38-1.2,1.28,1.28,0,0,1,1-.42,1.26,1.26,0,0,1,1,.42A1.78,1.78,0,0,1,159.39,50.36Zm-.53,0a1.46,1.46,0,0,0-.22-.89.8.8,0,0,0-1.23,0,1.89,1.89,0,0,0,0,1.77.71.71,0,0,0,.62.3.72.72,0,0,0,.61-.29A1.46,1.46,0,0,0,158.86,50.36Z"/><path class="a2ac6f4e-eeac-48ea-b2ae-365ffd4cc341" d="M162.5,50.28a1.9,1.9,0,0,1-.37,1.23,1.14,1.14,0,0,1-.93.45,1.25,1.25,0,0,1-.4-.05,1.42,1.42,0,0,1-.36-.16V53h-.52V48.82h.52v.32a2.16,2.16,0,0,1,.43-.29,1.19,1.19,0,0,1,.51-.11.94.94,0,0,1,.82.42A1.88,1.88,0,0,1,162.5,50.28Zm-.54.06a1.71,1.71,0,0,0-.16-.82.6.6,0,0,0-.55-.29.92.92,0,0,0-.42.1,1.62,1.62,0,0,0-.39.25v1.75a2,2,0,0,0,.35.13,1.06,1.06,0,0,0,.33,0,.72.72,0,0,0,.62-.3A1.38,1.38,0,0,0,162,50.34Z"/><path class="a2ac6f4e-eeac-48ea-b2ae-365ffd4cc341" d="M165.27,49.28h-1V51.9h-.52V49.28h-1v-.46h2.6Z"/><path class="a2ac6f4e-eeac-48ea-b2ae-365ffd4cc341" d="M168.08,51.9h-.51V49.61l-1.45,2.29h-.46V48.82h.51v2.26l1.43-2.26h.48Z"/><path class="a2ac6f4e-eeac-48ea-b2ae-365ffd4cc341" d="M170.86,51.05a.87.87,0,0,1-.11.44,1,1,0,0,1-.29.28,1.45,1.45,0,0,1-.38.16,2.18,2.18,0,0,1-.43,0,2.62,2.62,0,0,1-.57-.06,2.9,2.9,0,0,1-.54-.19v-.58h0a1.37,1.37,0,0,0,.47.28,1.89,1.89,0,0,0,.56.1l.26,0a.75.75,0,0,0,.24-.08.73.73,0,0,0,.18-.16.55.55,0,0,0,.05-.25.48.48,0,0,0-.06-.26.35.35,0,0,0-.17-.15.61.61,0,0,0-.24-.07h-.64v-.45h.53a.73.73,0,0,0,.25,0,.37.37,0,0,0,.19-.12.43.43,0,0,0,.08-.28.28.28,0,0,0-.07-.21.37.37,0,0,0-.15-.13.48.48,0,0,0-.2-.07l-.21,0a2.08,2.08,0,0,0-.5.07,1.23,1.23,0,0,0-.41.22h0v-.56a4,4,0,0,1,.44-.12,2,2,0,0,1,.48,0,1.87,1.87,0,0,1,.4,0,1.32,1.32,0,0,1,.38.13,1,1,0,0,1,.29.26.72.72,0,0,1,.11.4.66.66,0,0,1-.14.44.63.63,0,0,1-.37.25v0a1,1,0,0,1,.42.27A.76.76,0,0,1,170.86,51.05Z"/><path class="a2ac6f4e-eeac-48ea-b2ae-365ffd4cc341" d="M173.11,51.58l-.17.13a1.13,1.13,0,0,1-.2.13,1.53,1.53,0,0,1-.27.11,1.08,1.08,0,0,1-.35,0,.86.86,0,0,1-.36-.07.93.93,0,0,1-.3-.2.87.87,0,0,1-.2-.32,1,1,0,0,1-.07-.39,1.07,1.07,0,0,1,.13-.55.9.9,0,0,1,.43-.35,2,2,0,0,1,.61-.17q.34,0,.75-.06v-.1a.81.81,0,0,0-.05-.3.44.44,0,0,0-.16-.17.52.52,0,0,0-.24-.08,1.37,1.37,0,0,0-.29,0,1.7,1.7,0,0,0-.42,0,3,3,0,0,0-.48.15h0v-.52l.4-.09a2.44,2.44,0,0,1,.53,0,2,2,0,0,1,.53,0,.88.88,0,0,1,.39.18.66.66,0,0,1,.25.32,1.24,1.24,0,0,1,.09.5v2.1h-.52Zm0-.44v-.85l-.46,0a2.2,2.2,0,0,0-.46.09.81.81,0,0,0-.34.19.49.49,0,0,0-.13.37.52.52,0,0,0,.15.4.61.61,0,0,0,.43.13.92.92,0,0,0,.44-.1A2,2,0,0,0,173.11,51.14Z"/><path class="a2ac6f4e-eeac-48ea-b2ae-365ffd4cc341" d="M177.06,52.64h-.48V51.9h-2.23V48.82h.52v2.64h1.37V48.82h.51v2.64h.31Z"/><path class="a2ac6f4e-eeac-48ea-b2ae-365ffd4cc341" d="M180,51.9h-.51V49.61L178,51.9h-.46V48.82h.51v2.26l1.42-2.26H180Z"/><path class="a2ac6f4e-eeac-48ea-b2ae-365ffd4cc341" d="M183,51.9h-.52V50.68h-.51L181,51.9h-.6l1-1.27a1,1,0,0,1-.56-.33.93.93,0,0,1-.18-.6.74.74,0,0,1,.1-.4A.94.94,0,0,1,181,49a.86.86,0,0,1,.35-.14,2.16,2.16,0,0,1,.46,0H183Zm-.52-1.63v-1h-.84a.7.7,0,0,0-.2.08.33.33,0,0,0-.15.16.59.59,0,0,0-.05.23.78.78,0,0,0,0,.24.48.48,0,0,0,.36.29l.31,0Z"/><path class="a2ac6f4e-eeac-48ea-b2ae-365ffd4cc341" d="M149.19,61.68h-3.46v-.79l.71-.68c.22-.21.43-.44.64-.67a6.93,6.93,0,0,0,.88-1.13,1.83,1.83,0,0,0,.23-.87,1,1,0,0,0-.07-.41.93.93,0,0,0-.2-.3,1,1,0,0,0-.31-.17,1.46,1.46,0,0,0-.38,0,1.37,1.37,0,0,0-.4,0,2.64,2.64,0,0,0-.4.12l-.3.16-.24.15h0V56.3a3.17,3.17,0,0,1,.65-.23,2.83,2.83,0,0,1,.79-.11,1.73,1.73,0,0,1,1.22.41A1.48,1.48,0,0,1,149,57.5a2.37,2.37,0,0,1-.08.61,2.28,2.28,0,0,1-.21.51,4.81,4.81,0,0,1-.34.49c-.13.16-.27.31-.41.47s-.5.52-.79.8l-.69.65h2.75Z"/><path class="a2ac6f4e-eeac-48ea-b2ae-365ffd4cc341" d="M153.86,56.61a1.44,1.44,0,0,0-.41,0l-.4.12a2.94,2.94,0,0,0-.31.16l-.24.16h0v-.8a4,4,0,0,1,.66-.24,3.3,3.3,0,0,1,.8-.1,2.62,2.62,0,0,1,.66.07,2.07,2.07,0,0,1,.52.24,1.2,1.2,0,0,1,.37.44,1.26,1.26,0,0,1,.13.6,1.16,1.16,0,0,1-.31.81,1.3,1.3,0,0,1-.73.44v.06a2,2,0,0,1,.38.11,1.32,1.32,0,0,1,.38.25,1.24,1.24,0,0,1,.28.41,1.64,1.64,0,0,1,.11.62,1.94,1.94,0,0,1-.13.7,1.76,1.76,0,0,1-.37.56,1.6,1.6,0,0,1-.59.39,2.15,2.15,0,0,1-.79.13,3.31,3.31,0,0,1-.83-.1,3.78,3.78,0,0,1-.7-.24v-.8h.06A2.29,2.29,0,0,0,153,61a2.08,2.08,0,0,0,.8.16,1.47,1.47,0,0,0,.46-.07,1,1,0,0,0,.39-.24,1.07,1.07,0,0,0,.22-.37,1.51,1.51,0,0,0,0-1,.74.74,0,0,0-.24-.31.92.92,0,0,0-.38-.15,2.24,2.24,0,0,0-.46,0h-.32v-.62h.24a1.34,1.34,0,0,0,.83-.24.84.84,0,0,0,.32-.7.87.87,0,0,0-.08-.37.73.73,0,0,0-.22-.24.85.85,0,0,0-.31-.13A1.5,1.5,0,0,0,153.86,56.61Z"/><path class="a2ac6f4e-eeac-48ea-b2ae-365ffd4cc341" d="M160.16,59.75h-.67v1.93h-.72V59.75h-2.48V59l2.51-2.89h.69v3.08h.67Zm-1.39-.6V57l-1.89,2.19Z"/><path class="a2ac6f4e-eeac-48ea-b2ae-365ffd4cc341" d="M162.27,56.61a1.37,1.37,0,0,0-.4,0,2.64,2.64,0,0,0-.4.12,3.17,3.17,0,0,0-.32.16l-.23.16h0v-.8a4,4,0,0,1,.66-.24,3.3,3.3,0,0,1,.8-.1A2.65,2.65,0,0,1,163,56a2,2,0,0,1,.51.24,1.11,1.11,0,0,1,.37.44,1.26,1.26,0,0,1,.13.6,1.2,1.2,0,0,1-.3.81,1.37,1.37,0,0,1-.73.44v.06a2.54,2.54,0,0,1,.38.11,1.42,1.42,0,0,1,.37.25,1.24,1.24,0,0,1,.28.41,1.64,1.64,0,0,1,.11.62,1.74,1.74,0,0,1-.5,1.26,1.6,1.6,0,0,1-.59.39,2.13,2.13,0,0,1-.78.13,3.44,3.44,0,0,1-.84-.1,3.66,3.66,0,0,1-.69-.24v-.8h.05a2.62,2.62,0,0,0,.63.33,2.11,2.11,0,0,0,.8.16,1.47,1.47,0,0,0,.46-.07.86.86,0,0,0,.39-.24,1.28,1.28,0,0,0,.23-.37,1.41,1.41,0,0,0,.08-.5,1.21,1.21,0,0,0-.09-.5.76.76,0,0,0-.25-.31.88.88,0,0,0-.37-.15,2.34,2.34,0,0,0-.47,0h-.32v-.62h.25a1.31,1.31,0,0,0,.82-.24.81.81,0,0,0,.32-.7.87.87,0,0,0-.08-.37.83.83,0,0,0-.21-.24.9.9,0,0,0-.32-.13A1.45,1.45,0,0,0,162.27,56.61Z"/><path class="a2ac6f4e-eeac-48ea-b2ae-365ffd4cc341" d="M170.83,61.68h-3.45v-.79l.7-.68c.22-.21.44-.44.65-.67a7.34,7.34,0,0,0,.87-1.13,1.83,1.83,0,0,0,.23-.87,1,1,0,0,0-.07-.41.93.93,0,0,0-.2-.3,1,1,0,0,0-.31-.17,1.46,1.46,0,0,0-.38,0,1.37,1.37,0,0,0-.4,0,2.64,2.64,0,0,0-.4.12l-.3.16-.24.15h0V56.3a3.17,3.17,0,0,1,.65-.23,2.83,2.83,0,0,1,.79-.11,1.77,1.77,0,0,1,1.23.41,1.51,1.51,0,0,1,.44,1.13,2.37,2.37,0,0,1-.08.61,2.28,2.28,0,0,1-.21.51,3.51,3.51,0,0,1-.33.49l-.42.47c-.23.26-.5.52-.79.8l-.69.65h2.75Z"/><path class="a2ac6f4e-eeac-48ea-b2ae-365ffd4cc341" d="M173.09,56.61a1.37,1.37,0,0,0-.4,0,2.64,2.64,0,0,0-.4.12,3.17,3.17,0,0,0-.32.16l-.23.16h-.05v-.8a4.12,4.12,0,0,1,.67-.24,3.17,3.17,0,0,1,.79-.1,2.65,2.65,0,0,1,.67.07,2,2,0,0,1,.51.24,1.23,1.23,0,0,1,.38.44,1.4,1.4,0,0,1,.12.6,1.2,1.2,0,0,1-.3.81,1.37,1.37,0,0,1-.73.44v.06a2.24,2.24,0,0,1,.38.11,1.27,1.27,0,0,1,.37.25,1.11,1.11,0,0,1,.28.41,1.46,1.46,0,0,1,.11.62,1.75,1.75,0,0,1-.13.7,1.92,1.92,0,0,1-.36.56,1.73,1.73,0,0,1-.6.39,2.13,2.13,0,0,1-.78.13,3.44,3.44,0,0,1-.84-.1,3.66,3.66,0,0,1-.69-.24v-.8h.05a2.62,2.62,0,0,0,.63.33,2.11,2.11,0,0,0,.8.16,1.43,1.43,0,0,0,.46-.07.86.86,0,0,0,.39-.24,1.1,1.1,0,0,0,.23-.37,1.41,1.41,0,0,0,.08-.5,1.21,1.21,0,0,0-.09-.5.76.76,0,0,0-.25-.31.88.88,0,0,0-.37-.15,2.34,2.34,0,0,0-.47,0h-.32v-.62h.25a1.31,1.31,0,0,0,.82-.24.81.81,0,0,0,.32-.7A.87.87,0,0,0,174,57a.83.83,0,0,0-.21-.24.9.9,0,0,0-.32-.13A1.45,1.45,0,0,0,173.09,56.61Z"/><path class="a2ac6f4e-eeac-48ea-b2ae-365ffd4cc341" d="M179.39,59.75h-.66v1.93H178V59.75h-2.47V59l2.5-2.89h.7v3.08h.66Zm-1.39-.6V57l-1.88,2.19Z"/><path class="a2ac6f4e-eeac-48ea-b2ae-365ffd4cc341" d="M34.71,50.64a1.13,1.13,0,0,1-.11.54,1.1,1.1,0,0,1-.31.39,1.41,1.41,0,0,1-.5.26,2.53,2.53,0,0,1-.68.07H31.94V47.8H33l.65,0a1.23,1.23,0,0,1,.42.14.74.74,0,0,1,.32.31.93.93,0,0,1,.1.45.91.91,0,0,1-.15.52,1.06,1.06,0,0,1-.42.36v0a1.05,1.05,0,0,1,.56.36A1,1,0,0,1,34.71,50.64ZM34,48.8a.67.67,0,0,0-.05-.26.44.44,0,0,0-.16-.17.75.75,0,0,0-.3-.09l-.44,0h-.53v1.2h.62a1.9,1.9,0,0,0,.38,0,1.06,1.06,0,0,0,.25-.11.39.39,0,0,0,.17-.21A.76.76,0,0,0,34,48.8Zm.19,1.86a.86.86,0,0,0-.07-.38.53.53,0,0,0-.26-.25.71.71,0,0,0-.28-.09l-.44,0h-.62v1.52h.45a2.86,2.86,0,0,0,.56,0,.72.72,0,0,0,.36-.14.75.75,0,0,0,.23-.24A.88.88,0,0,0,34.15,50.66Z"/><path class="a2ac6f4e-eeac-48ea-b2ae-365ffd4cc341" d="M37.49,51a.87.87,0,0,1-.09.4.8.8,0,0,1-.24.3,1.2,1.2,0,0,1-.39.2,2.5,2.5,0,0,1-.53,0h-1V48.82h.52V50h.52a2.52,2.52,0,0,1,.54,0,.86.86,0,0,1,.38.17.67.67,0,0,1,.24.31A1.07,1.07,0,0,1,37.49,51ZM37,51a.62.62,0,0,0-.05-.25.37.37,0,0,0-.16-.17.47.47,0,0,0-.26-.08l-.42,0h-.34v1.05h.33l.42,0a.88.88,0,0,0,.26-.09.55.55,0,0,0,.17-.17A.62.62,0,0,0,37,51Zm1.4.94h-.51V48.82h.51Z"/><path class="a2ac6f4e-eeac-48ea-b2ae-365ffd4cc341" d="M41.68,50.28a2,2,0,0,1-.36,1.23,1.16,1.16,0,0,1-.93.45,1.22,1.22,0,0,1-.4-.05,1.42,1.42,0,0,1-.36-.16V53h-.52V48.82h.52v.32a2.09,2.09,0,0,1,.42-.29,1.27,1.27,0,0,1,.52-.11,1,1,0,0,1,.82.42A2,2,0,0,1,41.68,50.28Zm-.53.06a1.7,1.7,0,0,0-.17-.82.58.58,0,0,0-.54-.29.87.87,0,0,0-.42.1,1.62,1.62,0,0,0-.39.25v1.75a1.9,1.9,0,0,0,.34.13,1.15,1.15,0,0,0,.33,0,.74.74,0,0,0,.63-.3A1.38,1.38,0,0,0,41.15,50.34Z"/><path class="a2ac6f4e-eeac-48ea-b2ae-365ffd4cc341" d="M43.93,51.58l-.17.13-.2.13a1.53,1.53,0,0,1-.27.11,1.08,1.08,0,0,1-.35,0,.86.86,0,0,1-.36-.07.93.93,0,0,1-.3-.2.87.87,0,0,1-.2-.32A1,1,0,0,1,42,51a1.07,1.07,0,0,1,.14-.55.92.92,0,0,1,.42-.35,2.18,2.18,0,0,1,.61-.17c.24,0,.49,0,.76-.06v-.1a.81.81,0,0,0,0-.3.44.44,0,0,0-.16-.17.52.52,0,0,0-.24-.08,1.37,1.37,0,0,0-.29,0,1.7,1.7,0,0,0-.42,0,3.4,3.4,0,0,0-.49.15h0v-.52l.41-.09a2.44,2.44,0,0,1,.53,0,2,2,0,0,1,.53,0,.88.88,0,0,1,.39.18.72.72,0,0,1,.25.32,1.24,1.24,0,0,1,.09.5v2.1h-.52Zm0-.44v-.85l-.46,0a2.2,2.2,0,0,0-.46.09.75.75,0,0,0-.34.19.49.49,0,0,0-.13.37.52.52,0,0,0,.15.4.6.6,0,0,0,.43.13.92.92,0,0,0,.44-.1A2,2,0,0,0,43.93,51.14Z"/><path class="a2ac6f4e-eeac-48ea-b2ae-365ffd4cc341" d="M47.35,49.28a1.22,1.22,0,0,1,.27.46,1.85,1.85,0,0,1,.1.65,2,2,0,0,1-.11.66,1.62,1.62,0,0,1-.31.51,1.31,1.31,0,0,1-.43.32,1.39,1.39,0,0,1-1.06,0,1.12,1.12,0,0,1-.41-.31,1.84,1.84,0,0,1-.31-.66,3.84,3.84,0,0,1-.11-1c0-.13,0-.27,0-.42a4.33,4.33,0,0,1,.08-.51,2,2,0,0,1,.15-.49,1.28,1.28,0,0,1,.24-.39,1.44,1.44,0,0,1,.51-.32,3.17,3.17,0,0,1,.83-.17l.4,0,.32,0v.47l-.31,0-.37,0a4.41,4.41,0,0,0-.58.1.88.88,0,0,0-.45.24.84.84,0,0,0-.19.34,2.25,2.25,0,0,0-.09.49A2.3,2.3,0,0,1,46,49a1.21,1.21,0,0,1,.5-.1A1.51,1.51,0,0,1,47,49,1.18,1.18,0,0,1,47.35,49.28Zm-.15,1.14a1.16,1.16,0,0,0-.22-.75.77.77,0,0,0-.63-.27,1.26,1.26,0,0,0-.43.08,1.44,1.44,0,0,0-.39.2.76.76,0,0,0,0,.16,1,1,0,0,0,0,.17,3.28,3.28,0,0,0,.08.78,1.34,1.34,0,0,0,.21.48.71.71,0,0,0,.26.21.79.79,0,0,0,.92-.24A1.4,1.4,0,0,0,47.2,50.42Z"/><path class="a2ac6f4e-eeac-48ea-b2ae-365ffd4cc341" d="M50.79,50.36a1.79,1.79,0,0,1-.38,1.21,1.38,1.38,0,0,1-2,0,1.82,1.82,0,0,1-.36-1.19,1.78,1.78,0,0,1,.37-1.2,1.28,1.28,0,0,1,1-.42,1.26,1.26,0,0,1,1,.42A1.78,1.78,0,0,1,50.79,50.36Zm-.54,0a1.54,1.54,0,0,0-.21-.89.74.74,0,0,0-.62-.29.73.73,0,0,0-.62.29,1.89,1.89,0,0,0,0,1.77.71.71,0,0,0,.62.3.72.72,0,0,0,.61-.29A1.46,1.46,0,0,0,50.25,50.36Z"/><path class="a2ac6f4e-eeac-48ea-b2ae-365ffd4cc341" d="M53.56,49.28H52.51V51.9H52V49.28H51v-.46h2.61Z"/><path class="a2ac6f4e-eeac-48ea-b2ae-365ffd4cc341" d="M56.41,51.9h-.64l-1.05-1.42h-.26V51.9h-.52V48.82h.52v1.34a.74.74,0,0,0,.34-.08.71.71,0,0,0,.24-.32l.07-.16.06-.16A1,1,0,0,1,55.5,49a1,1,0,0,1,.56-.14h.14v.45h-.12a.54.54,0,0,0-.33.09.72.72,0,0,0-.18.33,1.16,1.16,0,0,1-.18.37.7.7,0,0,1-.23.2Z"/><path class="a2ac6f4e-eeac-48ea-b2ae-365ffd4cc341" d="M58.45,51.58l-.16.13a1.2,1.2,0,0,1-.21.13,1.83,1.83,0,0,1-.26.11,1.19,1.19,0,0,1-.36,0,.86.86,0,0,1-.36-.07,1,1,0,0,1-.3-.2,1,1,0,0,1-.2-.32,1,1,0,0,1-.07-.39,1.07,1.07,0,0,1,.13-.55.9.9,0,0,1,.43-.35,2,2,0,0,1,.61-.17q.34,0,.75-.06v-.1a.65.65,0,0,0-.05-.3.5.5,0,0,0-.15-.17.61.61,0,0,0-.25-.08,1.37,1.37,0,0,0-.29,0,1.7,1.7,0,0,0-.42,0,3,3,0,0,0-.48.15h0v-.52a3,3,0,0,1,.41-.09,2.29,2.29,0,0,1,.52,0,2.16,2.16,0,0,1,.54,0,1,1,0,0,1,.39.18.8.8,0,0,1,.25.32,1.46,1.46,0,0,1,.08.5v2.1h-.52Zm0-.44v-.85l-.46,0a2.2,2.2,0,0,0-.46.09.81.81,0,0,0-.34.19.49.49,0,0,0-.13.37.52.52,0,0,0,.15.4.61.61,0,0,0,.43.13.92.92,0,0,0,.44-.1A1.68,1.68,0,0,0,58.45,51.14Z"/><path class="a2ac6f4e-eeac-48ea-b2ae-365ffd4cc341" d="M31,61.68H27.5v-.79l.7-.68c.22-.21.44-.44.65-.67a6.24,6.24,0,0,0,.87-1.13,1.73,1.73,0,0,0,.24-.87,1,1,0,0,0-.08-.41.79.79,0,0,0-.2-.3,1.11,1.11,0,0,0-.3-.17,1.58,1.58,0,0,0-.38,0,1.44,1.44,0,0,0-.41,0,2.22,2.22,0,0,0-.39.12l-.31.16-.23.15h-.05V56.3a3.4,3.4,0,0,1,.65-.23,2.83,2.83,0,0,1,.79-.11,1.77,1.77,0,0,1,1.23.41,1.51,1.51,0,0,1,.44,1.13,2.37,2.37,0,0,1-.07.61,2.91,2.91,0,0,1-.22.51,3.51,3.51,0,0,1-.33.49c-.13.16-.27.31-.42.47s-.49.52-.78.8l-.7.65H31Z"/><path class="a2ac6f4e-eeac-48ea-b2ae-365ffd4cc341" d="M35.63,56.61a1.4,1.4,0,0,0-.41,0,2.64,2.64,0,0,0-.4.12,2.94,2.94,0,0,0-.31.16l-.24.16h-.05v-.8a4.12,4.12,0,0,1,.67-.24,3.25,3.25,0,0,1,.8-.1,2.62,2.62,0,0,1,.66.07,2,2,0,0,1,.51.24,1.23,1.23,0,0,1,.38.44,1.4,1.4,0,0,1,.12.6,1.2,1.2,0,0,1-.3.81,1.33,1.33,0,0,1-.73.44v.06a2.24,2.24,0,0,1,.38.11,1.27,1.27,0,0,1,.37.25,1.11,1.11,0,0,1,.28.41,1.46,1.46,0,0,1,.11.62A1.79,1.79,0,0,1,37,61.27a1.69,1.69,0,0,1-.59.39,2.22,2.22,0,0,1-.79.13,3.44,3.44,0,0,1-.84-.1,3.93,3.93,0,0,1-.69-.24v-.8h0a2.53,2.53,0,0,0,.64.33,2,2,0,0,0,.79.16,1.43,1.43,0,0,0,.46-.07.86.86,0,0,0,.39-.24,1.1,1.1,0,0,0,.23-.37,1.41,1.41,0,0,0,.08-.5,1.21,1.21,0,0,0-.09-.5.76.76,0,0,0-.25-.31A.88.88,0,0,0,36,59a2.26,2.26,0,0,0-.47,0h-.32v-.62h.25a1.36,1.36,0,0,0,.83-.24.83.83,0,0,0,.31-.7.75.75,0,0,0-.08-.37.61.61,0,0,0-.21-.24.9.9,0,0,0-.32-.13A1.37,1.37,0,0,0,35.63,56.61Z"/><path class="a2ac6f4e-eeac-48ea-b2ae-365ffd4cc341" d="M41.92,59.75h-.66v1.93h-.72V59.75H38.06V59l2.51-2.89h.69v3.08h.66Zm-1.38-.6V57l-1.89,2.19Z"/><path class="a2ac6f4e-eeac-48ea-b2ae-365ffd4cc341" d="M44,56.61a1.44,1.44,0,0,0-.41,0,3,3,0,0,0-.4.12,2.94,2.94,0,0,0-.31.16l-.24.16h0v-.8a4.5,4.5,0,0,1,.67-.24,3.3,3.3,0,0,1,.8-.1,2.62,2.62,0,0,1,.66.07,2.25,2.25,0,0,1,.52.24,1.2,1.2,0,0,1,.37.44,1.4,1.4,0,0,1,.13.6,1.2,1.2,0,0,1-.31.81,1.3,1.3,0,0,1-.73.44v.06a2,2,0,0,1,.38.11,1.32,1.32,0,0,1,.66.66,1.64,1.64,0,0,1,.11.62,1.94,1.94,0,0,1-.13.7,1.76,1.76,0,0,1-.37.56,1.6,1.6,0,0,1-.59.39,2.15,2.15,0,0,1-.79.13,3.31,3.31,0,0,1-.83-.1,3.78,3.78,0,0,1-.7-.24v-.8h.05a2.53,2.53,0,0,0,.64.33,2,2,0,0,0,.8.16,1.51,1.51,0,0,0,.46-.07.88.88,0,0,0,.38-.24,1.1,1.1,0,0,0,.23-.37,1.51,1.51,0,0,0,0-1,.83.83,0,0,0-.24-.31.92.92,0,0,0-.38-.15,2.26,2.26,0,0,0-.47,0h-.32v-.62h.25a1.34,1.34,0,0,0,.83-.24.84.84,0,0,0,.32-.7.75.75,0,0,0-.09-.37.61.61,0,0,0-.21-.24.85.85,0,0,0-.31-.13A1.5,1.5,0,0,0,44,56.61Z"/><path class="a2ac6f4e-eeac-48ea-b2ae-365ffd4cc341" d="M52.6,61.68H49.14v-.79l.7-.68c.22-.21.44-.44.65-.67a6.24,6.24,0,0,0,.87-1.13,1.73,1.73,0,0,0,.24-.87,1,1,0,0,0-.08-.41.79.79,0,0,0-.2-.3,1.11,1.11,0,0,0-.3-.17,1.52,1.52,0,0,0-.38,0,1.48,1.48,0,0,0-.41,0,2.91,2.91,0,0,0-.39.12,2.11,2.11,0,0,0-.3.16l-.24.15h0V56.3a3,3,0,0,1,.65-.23,2.77,2.77,0,0,1,.78-.11,1.76,1.76,0,0,1,1.23.41,1.47,1.47,0,0,1,.44,1.13,2.37,2.37,0,0,1-.07.61,2.28,2.28,0,0,1-.21.51,4.81,4.81,0,0,1-.34.49c-.13.16-.27.31-.41.47s-.5.52-.79.8l-.7.65H52.6Z"/><path class="a2ac6f4e-eeac-48ea-b2ae-365ffd4cc341" d="M54.86,56.61a1.44,1.44,0,0,0-.41,0,3,3,0,0,0-.4.12,2.94,2.94,0,0,0-.31.16l-.24.16h0v-.8a4,4,0,0,1,.66-.24,3.3,3.3,0,0,1,.8-.1,2.62,2.62,0,0,1,.66.07,2.25,2.25,0,0,1,.52.24,1.2,1.2,0,0,1,.37.44,1.26,1.26,0,0,1,.13.6,1.16,1.16,0,0,1-.31.81,1.3,1.3,0,0,1-.73.44v.06a2,2,0,0,1,.38.11,1.32,1.32,0,0,1,.38.25,1.24,1.24,0,0,1,.28.41,1.64,1.64,0,0,1,.11.62,1.94,1.94,0,0,1-.13.7,1.76,1.76,0,0,1-.37.56,1.6,1.6,0,0,1-.59.39,2.15,2.15,0,0,1-.79.13,3.31,3.31,0,0,1-.83-.1,3.78,3.78,0,0,1-.7-.24v-.8h.05A2.53,2.53,0,0,0,54,61a2.08,2.08,0,0,0,.8.16,1.51,1.51,0,0,0,.46-.07.88.88,0,0,0,.38-.24,1.1,1.1,0,0,0,.23-.37,1.51,1.51,0,0,0,0-1,.74.74,0,0,0-.24-.31.92.92,0,0,0-.38-.15,2.24,2.24,0,0,0-.46,0h-.32v-.62h.24a1.34,1.34,0,0,0,.83-.24.84.84,0,0,0,.32-.7.87.87,0,0,0-.08-.37.73.73,0,0,0-.22-.24.85.85,0,0,0-.31-.13A1.5,1.5,0,0,0,54.86,56.61Z"/><path class="a2ac6f4e-eeac-48ea-b2ae-365ffd4cc341" d="M61.16,59.75h-.67v1.93h-.72V59.75H57.29V59l2.51-2.89h.69v3.08h.67Zm-1.39-.6V57l-1.89,2.19Z"/><path class="a2cce76e-e853-4762-9577-9d0e074f1e30" d="M49.33,70.41a3.92,3.92,0,0,0-2.26-3.3,3.87,3.87,0,0,0-3-.11"/><path class="f035a495-b3ef-4371-9b25-f4df96c577f4" d="M49.2,70.42a3.78,3.78,0,0,0-5.1-3.3L44,66.88a4,4,0,0,1,3.11.11,4.06,4.06,0,0,1,2.34,3.41Z"/><polyline class="a2cce76e-e853-4762-9577-9d0e074f1e30" points="49.98 70.35 49.3 71.03 48.61 70.36"/><polygon class="f035a495-b3ef-4371-9b25-f4df96c577f4" points="49.3 71.22 48.52 70.45 48.7 70.27 49.3 70.85 49.88 70.26 50.07 70.44 49.3 71.22"/><path class="a2cce76e-e853-4762-9577-9d0e074f1e30" d="M41.51,70.91a3.92,3.92,0,0,0,5.23,3.44"/><path class="f035a495-b3ef-4371-9b25-f4df96c577f4" d="M45.42,74.71a4.05,4.05,0,0,1-4-3.79h.25a3.8,3.8,0,0,0,2.19,3.19,3.76,3.76,0,0,0,2.87.13l.08.24A4,4,0,0,1,45.42,74.71Z"/><polyline class="a2cce76e-e853-4762-9577-9d0e074f1e30" points="40.87 70.97 41.55 70.29 42.23 70.97"/><polygon class="f035a495-b3ef-4371-9b25-f4df96c577f4" points="40.96 71.06 40.78 70.88 41.55 70.11 42.32 70.88 42.14 71.06 41.55 70.47 40.96 71.06"/><path class="a2cce76e-e853-4762-9577-9d0e074f1e30" d="M46.86,71.14a4.23,4.23,0,0,0-1.44-2.51A4.23,4.23,0,0,0,44,71.14s0,.11,0,.16a1.45,1.45,0,1,0,2.9,0A.86.86,0,0,0,46.86,71.14Z"/><path class="f035a495-b3ef-4371-9b25-f4df96c577f4" d="M45.42,72.88a1.57,1.57,0,0,1-1.57-1.58,1.09,1.09,0,0,1,0-.18,4.28,4.28,0,0,1,1.48-2.59l.08-.06.08.06A4.28,4.28,0,0,1,47,71.13a1,1,0,0,1,0,.17A1.58,1.58,0,0,1,45.42,72.88Zm0-4.07a4,4,0,0,0-1.31,2.34s0,.1,0,.15a1.32,1.32,0,0,0,2.64,0,.76.76,0,0,0,0-.15h0A3.93,3.93,0,0,0,45.42,68.81Z"/><polyline class="a2cce76e-e853-4762-9577-9d0e074f1e30" points="162.74 74.62 159.17 74.62 159.17 67.9 168.01 67.9 168.01 70.52"/><polygon class="f035a495-b3ef-4371-9b25-f4df96c577f4" points="162.74 74.75 159.04 74.75 159.04 67.77 168.14 67.77 168.14 70.52 167.89 70.52 167.89 68.03 159.3 68.03 159.3 74.49 162.74 74.49 162.74 74.75"/><polyline class="a2cce76e-e853-4762-9577-9d0e074f1e30" points="161.5 69.3 160.57 69.3 160.57 69.99"/><polygon class="f035a495-b3ef-4371-9b25-f4df96c577f4" points="160.69 69.99 160.44 69.99 160.44 69.17 161.5 69.17 161.5 69.42 160.69 69.42 160.69 69.99"/><polyline class="a2cce76e-e853-4762-9577-9d0e074f1e30" points="160.57 72.52 160.57 73.22 161.5 73.22"/><polygon class="f035a495-b3ef-4371-9b25-f4df96c577f4" points="161.5 73.35 160.44 73.35 160.44 72.52 160.69 72.52 160.69 73.09 161.5 73.09 161.5 73.35"/><polyline class="a2cce76e-e853-4762-9577-9d0e074f1e30" points="166.62 69.99 166.62 69.3 165.69 69.3"/><polygon class="f035a495-b3ef-4371-9b25-f4df96c577f4" points="166.75 69.99 166.49 69.99 166.49 69.42 165.69 69.42 165.69 69.17 166.75 69.17 166.75 69.99"/><path class="a2cce76e-e853-4762-9577-9d0e074f1e30" d="M168.13,75.15a5.45,5.45,0,0,0-1.86-3.24,5.45,5.45,0,0,0-1.86,3.24c0,.07,0,.14,0,.21a1.88,1.88,0,0,0,3.75,0A1.49,1.49,0,0,0,168.13,75.15Z"/><path class="f035a495-b3ef-4371-9b25-f4df96c577f4" d="M166.27,77.36a2,2,0,0,1-2-2,1.79,1.79,0,0,1,0-.23,5.53,5.53,0,0,1,1.9-3.32l.08-.07.09.07a5.53,5.53,0,0,1,1.9,3.33,1.55,1.55,0,0,1,0,.22A2,2,0,0,1,166.27,77.36Zm0-5.28a5.23,5.23,0,0,0-1.73,3.08,1.34,1.34,0,0,0,0,.2,1.75,1.75,0,0,0,3.49,0c0-.07,0-.13,0-.2h0A5.23,5.23,0,0,0,166.27,72.08Z"/><path class="ba5d7175-4f49-41d1-8cbe-8b775d2ac3f1" d="M45.16,85.4a27.9,27.9,0,1,1,27.9-27.9A27.93,27.93,0,0,1,45.16,85.4Zm0-54.77A26.87,26.87,0,1,0,72,57.5,26.91,26.91,0,0,0,45.16,30.63Z"/><path class="ef00c02c-a64d-4462-b710-c2475db3a0b5" d="M45.16,85.4v-1a26.87,26.87,0,0,0,0-53.74v-1a27.9,27.9,0,1,1,0,55.79Z"/><g class="a06731d0-b52e-4b38-afee-aeb128199da7"><path class="bed69829-ea29-444d-9d0b-b9cc0aa9f070" d="M45.16,90.38c-.78,0-1.57,0-2.35-.08l.11-1.54a32,32,0,0,0,5.54-.09l.16,1.53A33.12,33.12,0,0,1,45.16,90.38Zm-3.4-.18a32.19,32.19,0,0,1-5.71-1.1l.42-1.48a31.31,31.31,0,0,0,5.44,1Zm7.91-.13-.21-1.53a31.18,31.18,0,0,0,5.41-1.23l.47,1.46A32.15,32.15,0,0,1,49.67,90.07ZM35,88.79a32.71,32.71,0,0,1-5.35-2.28l.72-1.36a31.48,31.48,0,0,0,5.11,2.17Zm21.31-.36L55.82,87a32.24,32.24,0,0,0,5-2.34L61.62,86A33.32,33.32,0,0,1,56.34,88.43ZM28.75,86A32.06,32.06,0,0,1,24,82.65l1-1.18a30.92,30.92,0,0,0,4.54,3.19Zm33.77-.56-.81-1.31a32.53,32.53,0,0,0,4.43-3.34l1,1.15A33.67,33.67,0,0,1,62.52,85.43ZM23.19,82a33.34,33.34,0,0,1-4-4.26l1.22-.94a31.48,31.48,0,0,0,3.78,4Zm44.75-.75L66.88,80.1a32.17,32.17,0,0,0,3.64-4.18l1.25.9A33.29,33.29,0,0,1,67.94,81.21ZM18.59,76.86a32,32,0,0,1-3-5L17,71.2A31.34,31.34,0,0,0,19.83,76ZM72.38,76l-1.28-.87a31.44,31.44,0,0,0,2.7-4.84l1.41.62A33.32,33.32,0,0,1,72.38,76Zm-57.24-5a32.48,32.48,0,0,1-1.89-5.5l1.49-.37a30.34,30.34,0,0,0,1.81,5.24Zm60.48-1-1.42-.58A31.6,31.6,0,0,0,75.82,64l1.51.32A32.88,32.88,0,0,1,75.62,69.9ZM13,64.39a33.83,33.83,0,0,1-.71-5.77l1.54-.06a32.66,32.66,0,0,0,.67,5.51Zm64.52-1.1L76,63a30.79,30.79,0,0,0,.49-5.52v-.11H78v.11A32.89,32.89,0,0,1,77.53,63.29Zm-63.7-5.73H12.29v0a33.51,33.51,0,0,1,.49-5.76L14.3,52a32.23,32.23,0,0,0-.47,5.47Zm62.65-1.17a31.8,31.8,0,0,0-.68-5.51l1.51-.32A33.83,33.83,0,0,1,78,56.33ZM14.49,51,13,50.72a31.83,31.83,0,0,1,1.69-5.56l1.43.58A31.5,31.5,0,0,0,14.49,51ZM75.57,49.9a30.63,30.63,0,0,0-1.81-5.24l1.4-.63a32.55,32.55,0,0,1,1.91,5.5ZM16.51,44.8l-1.41-.62a32.43,32.43,0,0,1,2.82-5.09L19.2,40A30.56,30.56,0,0,0,16.51,44.8Zm56.82-1A31,31,0,0,0,70.46,39l1.25-.91a33.08,33.08,0,0,1,3,5ZM19.77,39.13l-1.24-.91a33.78,33.78,0,0,1,3.81-4.39l1.07,1.11A32.26,32.26,0,0,0,19.77,39.13Zm50.08-.93a31.4,31.4,0,0,0-3.78-4l1-1.15a32.55,32.55,0,0,1,4,4.24Zm-45.7-4-1-1.14a33.05,33.05,0,0,1,4.64-3.51l.81,1.31A31.83,31.83,0,0,0,24.15,34.25Zm41.15-.76a31.8,31.8,0,0,0-4.54-3.17L61.53,29a33.55,33.55,0,0,1,4.76,3.33Zm-35.86-3.1-.78-1.33a32.4,32.4,0,0,1,5.27-2.47L34.46,28A30.61,30.61,0,0,0,29.44,30.39Zm30.44-.56a31.86,31.86,0,0,0-5.11-2.17l.47-1.46a31.92,31.92,0,0,1,5.36,2.27ZM35.41,27.71l-.48-1.46a33.09,33.09,0,0,1,5.67-1.31l.21,1.53A31.09,31.09,0,0,0,35.41,27.71Zm18.39-.34a30.38,30.38,0,0,0-5.44-1l.16-1.54a33.48,33.48,0,0,1,5.71,1.1Zm-12-1-.16-1.53a34.14,34.14,0,0,1,5.81-.11l-.11,1.54A32,32,0,0,0,41.81,26.34Z"/></g><path class="bed69829-ea29-444d-9d0b-b9cc0aa9f070" d="M45.22,90.38c-.79,0-1.58,0-2.36-.08L43,88.76a32.14,32.14,0,0,0,5.55-.09l.16,1.53A33.27,33.27,0,0,1,45.22,90.38Z"/><path class="bed69829-ea29-444d-9d0b-b9cc0aa9f070" d="M41.81,90.2a33.41,33.41,0,0,1-5.72-1.1l.43-1.48a31.31,31.31,0,0,0,5.44,1Z"/><path class="bed69829-ea29-444d-9d0b-b9cc0aa9f070" d="M49.73,90.07l-.21-1.53a31.07,31.07,0,0,0,5.4-1.23l.48,1.46A32.36,32.36,0,0,1,49.73,90.07Z"/><path class="bed69829-ea29-444d-9d0b-b9cc0aa9f070" d="M35.08,88.79a33.6,33.6,0,0,1-5.35-2.28l.72-1.36a31.76,31.76,0,0,0,5.1,2.17Z"/><path class="bed69829-ea29-444d-9d0b-b9cc0aa9f070" d="M56.4,88.43,55.87,87a31.92,31.92,0,0,0,5-2.34L61.67,86A33.21,33.21,0,0,1,56.4,88.43Z"/><path class="bed69829-ea29-444d-9d0b-b9cc0aa9f070" d="M28.8,86A32.82,32.82,0,0,1,24,82.65l1-1.18a31.7,31.7,0,0,0,4.54,3.19Z"/><path class="bed69829-ea29-444d-9d0b-b9cc0aa9f070" d="M62.58,85.43l-.82-1.31a31.34,31.34,0,0,0,4.43-3.34l1,1.15A33.58,33.58,0,0,1,62.58,85.43Z"/><path class="bed69829-ea29-444d-9d0b-b9cc0aa9f070" d="M23.24,82a32.6,32.6,0,0,1-4-4.25l1.22-1a31.57,31.57,0,0,0,3.78,4.06Z"/><path class="bed69829-ea29-444d-9d0b-b9cc0aa9f070" d="M68,81.21,66.93,80.1a31.43,31.43,0,0,0,3.64-4.18l1.25.9A34,34,0,0,1,68,81.21Z"/><path class="b571c4ee-9121-4f82-aad9-255ed670210f" d="M72.43,76l-1.28-.87a31.44,31.44,0,0,0,2.7-4.84l1.41.62A33.32,33.32,0,0,1,72.43,76Z"/><path class="b571c4ee-9121-4f82-aad9-255ed670210f" d="M75.68,69.9l-1.43-.58A31,31,0,0,0,75.87,64l1.51.32A32.85,32.85,0,0,1,75.68,69.9Z"/><path class="bed69829-ea29-444d-9d0b-b9cc0aa9f070" d="M77.58,63.29,76.07,63a31.73,31.73,0,0,0,.48-5.52v-.09h1.54v.09A32.89,32.89,0,0,1,77.58,63.29Z"/><path class="b571c4ee-9121-4f82-aad9-255ed670210f" d="M76.53,56.4a31.56,31.56,0,0,0-.67-5.5l1.5-.33a31.94,31.94,0,0,1,.71,5.78Z"/><path class="bed69829-ea29-444d-9d0b-b9cc0aa9f070" d="M75.63,49.91a32,32,0,0,0-1.81-5.23l1.4-.64a31.66,31.66,0,0,1,1.9,5.5Z"/><path class="bed69829-ea29-444d-9d0b-b9cc0aa9f070" d="M73.39,43.76A31,31,0,0,0,70.52,39l1.25-.91a33.08,33.08,0,0,1,3,5Z"/><path class="bed69829-ea29-444d-9d0b-b9cc0aa9f070" d="M69.92,38.21a33,33,0,0,0-3.79-4.05l1-1.14a32.6,32.6,0,0,1,4,4.25Z"/><path class="bed69829-ea29-444d-9d0b-b9cc0aa9f070" d="M65.37,33.5a31.72,31.72,0,0,0-4.55-3.18L61.59,29a32.62,32.62,0,0,1,4.77,3.33Z"/><path class="bed69829-ea29-444d-9d0b-b9cc0aa9f070" d="M59.94,29.83a30.58,30.58,0,0,0-5.11-2.16l.48-1.47a33.56,33.56,0,0,1,5.35,2.27Z"/><path class="bed69829-ea29-444d-9d0b-b9cc0aa9f070" d="M53.87,27.37a31.29,31.29,0,0,0-5.44-1l.15-1.54a33.48,33.48,0,0,1,5.71,1.1Z"/><g class="a0fd4b1e-2f90-4eef-926f-b490714f7f3c"><g class="ef24f26e-4096-4b3e-9a4b-176130167663"><circle class="ba5d7175-4f49-41d1-8cbe-8b775d2ac3f1" cx="45.16" cy="57.59" r="38.53"/></g></g><path class="ba5d7175-4f49-41d1-8cbe-8b775d2ac3f1" d="M35.34,91.38l-1.26,1a29.18,29.18,0,0,1-11.47-7.22H20.49s-5.25-4.85-6.87-8.65l-1.09.5a38.67,38.67,0,0,0,66.85-.15l-.62-.3c-1.66,3.8-6.85,8.6-6.85,8.6H69.78a29.09,29.09,0,0,1-11.47,7.22l-1.39-1.11a35.6,35.6,0,0,1-21.58.11Z"/><path class="ba5d7175-4f49-41d1-8cbe-8b775d2ac3f1" d="M57.31,23.87l1-.8a29.09,29.09,0,0,1,11.47,7.22h2.13s5.51,5.09,7,8.93l.87-.4a38.66,38.66,0,0,0-67.61-.16l1.33.63c1.47-3.85,7-9,7-9h2.12a29.18,29.18,0,0,1,11.47-7.22l.87.69a35.35,35.35,0,0,1,22.36.11Z"/><path class="ba5d7175-4f49-41d1-8cbe-8b775d2ac3f1" d="M163.52,85a27.9,27.9,0,1,1,27.9-27.9A27.93,27.93,0,0,1,163.52,85Zm0-54.76a26.87,26.87,0,1,0,26.87,26.86A26.89,26.89,0,0,0,163.52,30.28Z"/><path class="b5a6f55a-e960-43b4-9ce1-c770a13d7844" d="M163.52,85V84a26.87,26.87,0,1,0,0-53.73v-1a27.9,27.9,0,1,1,0,55.79Z"/><g class="a06731d0-b52e-4b38-afee-aeb128199da7"><path class="bed69829-ea29-444d-9d0b-b9cc0aa9f070" d="M163.52,90c-.78,0-1.58,0-2.35-.08l.11-1.54a32,32,0,0,0,5.54-.09l.16,1.53A33.12,33.12,0,0,1,163.52,90Zm-3.41-.17a32.56,32.56,0,0,1-5.71-1.11l.43-1.48a31.31,31.31,0,0,0,5.44,1Zm7.92-.14-.21-1.52a31.09,31.09,0,0,0,5.4-1.24l.48,1.46A32.36,32.36,0,0,1,168,89.71Zm-14.64-1.28A33.19,33.19,0,0,1,148,86.15l.73-1.36a30.05,30.05,0,0,0,5.1,2.17Zm21.31-.36-.52-1.45a31.35,31.35,0,0,0,5-2.34l.77,1.33A32.35,32.35,0,0,1,174.7,88.07Zm-27.59-2.43a32.82,32.82,0,0,1-4.76-3.34l1-1.18a31.08,31.08,0,0,0,4.54,3.18Zm33.77-.57-.82-1.31a31.27,31.27,0,0,0,4.43-3.33l1,1.14A32.8,32.8,0,0,1,180.88,85.07ZM141.55,81.6a33.25,33.25,0,0,1-4-4.25l1.22-.95a30.88,30.88,0,0,0,3.78,4.06Zm44.75-.75-1.07-1.11a32.25,32.25,0,0,0,3.65-4.18l1.24.91A33.12,33.12,0,0,1,186.3,80.85ZM136.94,76.5a33.08,33.08,0,0,1-3-5l1.39-.67a31.75,31.75,0,0,0,2.86,4.74Zm53.79-.9-1.27-.87a31.44,31.44,0,0,0,2.7-4.84l1.4.63A32.85,32.85,0,0,1,190.73,75.6Zm-57.23-5a33.42,33.42,0,0,1-1.9-5.5l1.5-.37a30.87,30.87,0,0,0,1.8,5.24Zm60.48-1L192.55,69a30.63,30.63,0,0,0,1.63-5.3l1.51.32A33.71,33.71,0,0,1,194,69.54ZM131.37,64a32.86,32.86,0,0,1-.71-5.77l1.54,0a31.67,31.67,0,0,0,.67,5.5Zm64.52-1.09-1.52-.27a31.85,31.85,0,0,0,.49-5.53V57h1.54v.1A33,33,0,0,1,195.89,62.94ZM132.18,57.2h-1.54v-.06a33.26,33.26,0,0,1,.5-5.73l1.52.26a31.33,31.33,0,0,0-.48,5.47ZM194.84,56a32.68,32.68,0,0,0-.68-5.5l1.5-.33a32.87,32.87,0,0,1,.72,5.77Zm-62-5.35-1.51-.31A32.85,32.85,0,0,1,133,44.8l1.43.58A30.6,30.6,0,0,0,132.85,50.68Zm61.08-1.14a31.14,31.14,0,0,0-1.82-5.23l1.41-.64a31.66,31.66,0,0,1,1.9,5.5Zm-59.07-5.09-1.41-.63a33.32,33.32,0,0,1,2.83-5.09l1.27.87A31.86,31.86,0,0,0,134.86,44.45Zm56.83-1.05a31.4,31.4,0,0,0-2.87-4.75l1.24-.91a32.81,32.81,0,0,1,3,5Zm-53.56-4.63-1.25-.9a32.58,32.58,0,0,1,3.82-4.39l1.07,1.11A31.43,31.43,0,0,0,138.13,38.77Zm50.08-.92a30.92,30.92,0,0,0-3.79-4.05l1-1.15a32.6,32.6,0,0,1,4,4.25Zm-45.7-4-1-1.15a32.8,32.8,0,0,1,4.64-3.5l.82,1.3A31.9,31.9,0,0,0,142.51,33.9Zm41.15-.76A31.63,31.63,0,0,0,179.12,30l.76-1.34A32.91,32.91,0,0,1,184.65,32ZM147.79,30,147,28.7a33.11,33.11,0,0,1,5.26-2.46l.53,1.45A31.35,31.35,0,0,0,147.79,30Zm30.44-.56a30.84,30.84,0,0,0-5.1-2.16l.47-1.47A33.14,33.14,0,0,1,179,28.11Zm-24.46-2.11-.48-1.47A33,33,0,0,1,159,24.58l.22,1.53A30,30,0,0,0,153.77,27.36ZM172.16,27a32.25,32.25,0,0,0-5.44-1l.15-1.53a32.34,32.34,0,0,1,5.71,1.09Zm-12-1L160,24.45a33.27,33.27,0,0,1,5.82-.1l-.11,1.53A32,32,0,0,0,160.17,26Z"/></g><path class="bed69829-ea29-444d-9d0b-b9cc0aa9f070" d="M163.57,90c-.78,0-1.57,0-2.35-.08l.11-1.54a32,32,0,0,0,5.54-.09l.16,1.53A33.12,33.12,0,0,1,163.57,90Z"/><path class="bed69829-ea29-444d-9d0b-b9cc0aa9f070" d="M160.16,89.85a33.5,33.5,0,0,1-5.71-1.11l.43-1.48a31.31,31.31,0,0,0,5.44,1Z"/><path class="bed69829-ea29-444d-9d0b-b9cc0aa9f070" d="M168.08,89.71l-.21-1.52A31.41,31.41,0,0,0,173.28,87l.47,1.46A32.36,32.36,0,0,1,168.08,89.71Z"/><path class="bed69829-ea29-444d-9d0b-b9cc0aa9f070" d="M153.44,88.43a32.81,32.81,0,0,1-5.36-2.28l.73-1.36a31.76,31.76,0,0,0,5.1,2.17Z"/><path class="bed69829-ea29-444d-9d0b-b9cc0aa9f070" d="M174.75,88.07l-.52-1.45a31.35,31.35,0,0,0,5-2.34l.78,1.33A32.45,32.45,0,0,1,174.75,88.07Z"/><path class="bed69829-ea29-444d-9d0b-b9cc0aa9f070" d="M147.16,85.64a33.54,33.54,0,0,1-4.77-3.35l1-1.18a30.4,30.4,0,0,0,4.54,3.19Z"/><path class="bed69829-ea29-444d-9d0b-b9cc0aa9f070" d="M180.93,85.07l-.81-1.31a31.66,31.66,0,0,0,4.43-3.33l1,1.14A32.89,32.89,0,0,1,180.93,85.07Z"/><path class="b5a6f55a-e960-43b4-9ce1-c770a13d7844" d="M141.6,81.6a33.34,33.34,0,0,1-4-4.26l1.22-1a30.26,30.26,0,0,0,3.78,4.06Z"/><path class="bed69829-ea29-444d-9d0b-b9cc0aa9f070" d="M186.35,80.85l-1.07-1.11a31.51,31.51,0,0,0,3.65-4.18l1.25.91A33.2,33.2,0,0,1,186.35,80.85Z"/><path class="bed69829-ea29-444d-9d0b-b9cc0aa9f070" d="M190.79,75.6l-1.28-.87a31.44,31.44,0,0,0,2.7-4.84l1.41.63A33.7,33.7,0,0,1,190.79,75.6Z"/><path class="bed69829-ea29-444d-9d0b-b9cc0aa9f070" d="M194,69.54,192.61,69a31.78,31.78,0,0,0,1.62-5.3l1.51.32A33.06,33.06,0,0,1,194,69.54Z"/><path class="bed69829-ea29-444d-9d0b-b9cc0aa9f070" d="M195.94,62.94l-1.52-.27a30.9,30.9,0,0,0,.49-5.53v-.09h1.54v.09A33,33,0,0,1,195.94,62.94Z"/><path class="bed69829-ea29-444d-9d0b-b9cc0aa9f070" d="M194.89,56a30.75,30.75,0,0,0-.68-5.5l1.51-.32a33.71,33.71,0,0,1,.71,5.77Z"/><path class="bed69829-ea29-444d-9d0b-b9cc0aa9f070" d="M194,49.56a30.05,30.05,0,0,0-1.81-5.24l1.41-.63a33,33,0,0,1,1.9,5.49Z"/><path class="bed69829-ea29-444d-9d0b-b9cc0aa9f070" d="M191.75,43.41a31.4,31.4,0,0,0-2.87-4.75l1.24-.91a32.81,32.81,0,0,1,3,5Z"/><path class="bed69829-ea29-444d-9d0b-b9cc0aa9f070" d="M188.27,37.86a30.84,30.84,0,0,0-3.78-4l1-1.15a32.68,32.68,0,0,1,4,4.25Z"/><path class="bed69829-ea29-444d-9d0b-b9cc0aa9f070" d="M183.72,33.14A32.7,32.7,0,0,0,179.18,30l.77-1.33A32.76,32.76,0,0,1,184.71,32Z"/><path class="bed69829-ea29-444d-9d0b-b9cc0aa9f070" d="M178.3,29.48a31,31,0,0,0-5.11-2.17l.47-1.47A33.28,33.28,0,0,1,179,28.11Z"/><path class="bed69829-ea29-444d-9d0b-b9cc0aa9f070" d="M172.23,27A31.6,31.6,0,0,0,166.78,26l.16-1.53a31.65,31.65,0,0,1,5.71,1.1Z"/><g class="a0fd4b1e-2f90-4eef-926f-b490714f7f3c"><g class="ef24f26e-4096-4b3e-9a4b-176130167663"><circle class="ba5d7175-4f49-41d1-8cbe-8b775d2ac3f1" cx="163.81" cy="57.23" r="38.53"/></g></g><path class="ba5d7175-4f49-41d1-8cbe-8b775d2ac3f1" d="M153,91l-1.25,1a29.09,29.09,0,0,1-11.47-7.22h-2.13s-5.25-4.84-6.87-8.65l-1.08.5A38.66,38.66,0,0,0,197,76.5l-.62-.29c-1.66,3.8-6.85,8.59-6.85,8.59h-2.13A29.09,29.09,0,0,1,176,92l-1.39-1.11A35.6,35.6,0,0,1,153,91Z"/><path class="ba5d7175-4f49-41d1-8cbe-8b775d2ac3f1" d="M175,23.51l1-.8a29.21,29.21,0,0,1,11.47,7.22h2.13s5.51,5.09,7,8.94l.86-.41a38.67,38.67,0,0,0-67.61-.16l1.33.63c1.47-3.85,7-9,7-9h2.13a29.21,29.21,0,0,1,11.47-7.22l.86.69a35.57,35.57,0,0,1,22.37.11Z"/><path class="ba5d7175-4f49-41d1-8cbe-8b775d2ac3f1" d="M281,85a27.9,27.9,0,1,1,27.89-27.9A27.92,27.92,0,0,1,281,85Zm0-54.76a26.87,26.87,0,1,0,26.86,26.86A26.89,26.89,0,0,0,281,30.28Z"/><path class="ef00c02c-a64d-4462-b710-c2475db3a0b5" d="M281,85V84a26.87,26.87,0,0,0,0-53.73v-1A27.9,27.9,0,0,1,281,85Z"/><g class="a06731d0-b52e-4b38-afee-aeb128199da7"><path class="bed69829-ea29-444d-9d0b-b9cc0aa9f070" d="M281,90c-.79,0-1.58,0-2.36-.08l.11-1.54a32.14,32.14,0,0,0,5.55-.09l.16,1.53A33.27,33.27,0,0,1,281,90Zm-3.41-.17a32.56,32.56,0,0,1-5.71-1.11l.42-1.48a31.6,31.6,0,0,0,5.45,1Zm7.92-.14-.21-1.52a31.09,31.09,0,0,0,5.4-1.24l.48,1.46A32.36,32.36,0,0,1,285.52,89.71Zm-14.65-1.28a32.71,32.71,0,0,1-5.35-2.28l.73-1.36a29.71,29.71,0,0,0,5.1,2.17Zm21.32-.36-.53-1.45a31.05,31.05,0,0,0,5-2.34l.77,1.33A32.35,32.35,0,0,1,292.19,88.07Zm-27.6-2.43a33.38,33.38,0,0,1-4.76-3.34l1-1.18a31.54,31.54,0,0,0,4.53,3.18Zm33.78-.57-.82-1.31A31.27,31.27,0,0,0,302,80.43l1,1.14A32.8,32.8,0,0,1,298.37,85.07ZM259,81.6a33.18,33.18,0,0,1-4-4.25l1.21-.95a31.53,31.53,0,0,0,3.78,4Zm44.76-.75-1.07-1.11a31.43,31.43,0,0,0,3.64-4.18l1.25.91A33.87,33.87,0,0,1,303.79,80.85ZM254.43,76.5a32.27,32.27,0,0,1-3-5l1.38-.67a31.75,31.75,0,0,0,2.86,4.74Zm53.79-.9-1.28-.87a31.44,31.44,0,0,0,2.7-4.84l1.41.63A33.7,33.7,0,0,1,308.22,75.6Zm-57.24-5a32.18,32.18,0,0,1-1.89-5.5l1.49-.37a30.9,30.9,0,0,0,1.81,5.24Zm60.49-1L310,69a31.5,31.5,0,0,0,1.62-5.3l1.51.32A32.74,32.74,0,0,1,311.47,69.54ZM248.85,64a32.84,32.84,0,0,1-.7-5.77l1.54,0a30.73,30.73,0,0,0,.67,5.5Zm64.52-1.09-1.51-.27a31.85,31.85,0,0,0,.48-5.53V57h1.54v.1A33,33,0,0,1,313.37,62.94Zm-63.7-5.74h-1.54v-.06a33.26,33.26,0,0,1,.5-5.73l1.51.26a32.32,32.32,0,0,0-.47,5.47ZM312.32,56a30.75,30.75,0,0,0-.68-5.5l1.51-.33a33.83,33.83,0,0,1,.71,5.77Zm-62-5.35-1.51-.31a33.75,33.75,0,0,1,1.69-5.57l1.43.58A30.57,30.57,0,0,0,250.34,50.68Zm61.07-1.14a30.53,30.53,0,0,0-1.81-5.23l1.41-.64a33.42,33.42,0,0,1,1.9,5.5Zm-59.06-5.09-1.41-.63a32.43,32.43,0,0,1,2.82-5.09l1.28.87A31,31,0,0,0,252.35,44.45Zm56.82-1.05a31.34,31.34,0,0,0-2.86-4.75l1.24-.91a33.64,33.64,0,0,1,3,5Zm-53.55-4.63-1.25-.9a33.23,33.23,0,0,1,3.81-4.39l1.07,1.11A31.36,31.36,0,0,0,255.62,38.77Zm50.08-.92a31.61,31.61,0,0,0-3.79-4.05l1-1.15a32.6,32.6,0,0,1,4,4.25ZM260,33.9l-1-1.15a32.8,32.8,0,0,1,4.64-3.5l.82,1.3A31.41,31.41,0,0,0,260,33.9Zm41.16-.76A31.72,31.72,0,0,0,296.6,30l.77-1.34A33.47,33.47,0,0,1,302.14,32ZM265.28,30l-.78-1.33a33.21,33.21,0,0,1,5.27-2.46l.53,1.45A31.35,31.35,0,0,0,265.28,30Zm30.44-.56a30.58,30.58,0,0,0-5.11-2.16l.47-1.47a32.4,32.4,0,0,1,5.36,2.27Zm-24.47-2.11-.48-1.47a33.31,33.31,0,0,1,5.67-1.31l.21,1.53A30.22,30.22,0,0,0,271.25,27.36Zm18.4-.35a32.56,32.56,0,0,0-5.45-1l.16-1.53a32.52,32.52,0,0,1,5.71,1.09Zm-12-1-.16-1.54a33.14,33.14,0,0,1,5.81-.1l-.1,1.53A32.14,32.14,0,0,0,277.65,26Z"/></g><path class="bed69829-ea29-444d-9d0b-b9cc0aa9f070" d="M281.06,90c-.79,0-1.58,0-2.36-.08l.11-1.54a32.14,32.14,0,0,0,5.55-.09l.16,1.53A33.27,33.27,0,0,1,281.06,90Z"/><path class="bed69829-ea29-444d-9d0b-b9cc0aa9f070" d="M277.65,89.85a33.31,33.31,0,0,1-5.71-1.11l.42-1.48a31.42,31.42,0,0,0,5.45,1Z"/><path class="bed69829-ea29-444d-9d0b-b9cc0aa9f070" d="M285.57,89.71l-.21-1.52a31.09,31.09,0,0,0,5.4-1.24l.48,1.46A32.36,32.36,0,0,1,285.57,89.71Z"/><path class="bed69829-ea29-444d-9d0b-b9cc0aa9f070" d="M270.92,88.43a32.71,32.71,0,0,1-5.35-2.28l.73-1.36A31.38,31.38,0,0,0,271.4,87Z"/><path class="bed69829-ea29-444d-9d0b-b9cc0aa9f070" d="M292.24,88.07l-.52-1.45a31.35,31.35,0,0,0,5-2.34l.77,1.33A32.35,32.35,0,0,1,292.24,88.07Z"/><path class="bed69829-ea29-444d-9d0b-b9cc0aa9f070" d="M264.64,85.64a33.44,33.44,0,0,1-4.76-3.35l1-1.18a30.92,30.92,0,0,0,4.54,3.19Z"/><path class="bed69829-ea29-444d-9d0b-b9cc0aa9f070" d="M298.42,85.07l-.82-1.31A30.53,30.53,0,0,0,302,80.43l1,1.14A32.8,32.8,0,0,1,298.42,85.07Z"/><path class="bed69829-ea29-444d-9d0b-b9cc0aa9f070" d="M259.08,81.6a33.26,33.26,0,0,1-4-4.26l1.21-1a31.62,31.62,0,0,0,3.78,4.06Z"/><path class="bed69829-ea29-444d-9d0b-b9cc0aa9f070" d="M303.84,80.85l-1.07-1.11a32.25,32.25,0,0,0,3.65-4.18l1.24.91A33.12,33.12,0,0,1,303.84,80.85Z"/><path class="bed69829-ea29-444d-9d0b-b9cc0aa9f070" d="M308.27,75.6,307,74.73a31.38,31.38,0,0,0,2.69-4.84l1.41.63A33.7,33.7,0,0,1,308.27,75.6Z"/><path class="bed69829-ea29-444d-9d0b-b9cc0aa9f070" d="M311.52,69.54,310.09,69a30.9,30.9,0,0,0,1.63-5.3l1.51.32A34,34,0,0,1,311.52,69.54Z"/><path class="bed69829-ea29-444d-9d0b-b9cc0aa9f070" d="M313.43,62.94l-1.52-.27a31.85,31.85,0,0,0,.48-5.53v-.09h1.55v.09A34,34,0,0,1,313.43,62.94Z"/><path class="bed69829-ea29-444d-9d0b-b9cc0aa9f070" d="M312.38,56a32.68,32.68,0,0,0-.68-5.5l1.5-.32a32.75,32.75,0,0,1,.72,5.77Z"/><path class="bed69829-ea29-444d-9d0b-b9cc0aa9f070" d="M311.47,49.56a30.9,30.9,0,0,0-1.81-5.24l1.4-.63A32.14,32.14,0,0,1,313,49.18Z"/><path class="bed69829-ea29-444d-9d0b-b9cc0aa9f070" d="M309.23,43.41a31.34,31.34,0,0,0-2.86-4.75l1.24-.91a32.81,32.81,0,0,1,3,5Z"/><path class="bed69829-ea29-444d-9d0b-b9cc0aa9f070" d="M305.76,37.86a30.92,30.92,0,0,0-3.79-4l1-1.15a32.6,32.6,0,0,1,4,4.25Z"/><path class="bed69829-ea29-444d-9d0b-b9cc0aa9f070" d="M301.21,33.14A33.31,33.31,0,0,0,296.67,30l.76-1.33A32.85,32.85,0,0,1,302.2,32Z"/><path class="bed69829-ea29-444d-9d0b-b9cc0aa9f070" d="M295.78,29.48a30.88,30.88,0,0,0-5.1-2.17l.47-1.47a34.05,34.05,0,0,1,5.36,2.27Z"/><path class="bed69829-ea29-444d-9d0b-b9cc0aa9f070" d="M289.71,27A31.31,31.31,0,0,0,284.27,26l.15-1.53a31.59,31.59,0,0,1,5.72,1.1Z"/><g class="a0fd4b1e-2f90-4eef-926f-b490714f7f3c"><g class="ef24f26e-4096-4b3e-9a4b-176130167663"><circle class="ba5d7175-4f49-41d1-8cbe-8b775d2ac3f1" cx="281.29" cy="57.23" r="38.53"/></g></g><path class="ba5d7175-4f49-41d1-8cbe-8b775d2ac3f1" d="M270.47,91l-1.26,1a29.09,29.09,0,0,1-11.47-7.22h-2.12s-5.25-4.84-6.88-8.65l-1.08.5a38.67,38.67,0,0,0,66.85-.15l-.63-.29C312.23,80,307,84.8,307,84.8h-2.12A29.09,29.09,0,0,1,293.44,92l-1.39-1.11a35.6,35.6,0,0,1-21.58.11Z"/><path class="ba5d7175-4f49-41d1-8cbe-8b775d2ac3f1" d="M292.44,23.51l1-.8a29.21,29.21,0,0,1,11.47,7.22H307s5.51,5.09,7,8.94l.87-.41a38.67,38.67,0,0,0-67.61-.16l1.33.63c1.47-3.85,7-9,7-9h2.12a29.21,29.21,0,0,1,11.47-7.22l.86.69a35.57,35.57,0,0,1,22.37.11Z"/><circle class="a2ac6f4e-eeac-48ea-b2ae-365ffd4cc341" cx="20.16" cy="77.69" r="1.15"/><circle class="a2ac6f4e-eeac-48ea-b2ae-365ffd4cc341" cx="138.55" cy="77.35" r="1.15"/><circle class="a2ac6f4e-eeac-48ea-b2ae-365ffd4cc341" cx="255.94" cy="77.25" r="1.15"/></svg>