<svg width="324" height="117" viewBox="0 0 324 117" fill="none" xmlns="http://www.w3.org/2000/svg">
<path d="M17.5111 14.8072C17.09 14.8072 16.7021 14.7366 16.3473 14.5953C15.9955 14.4539 15.6912 14.2434 15.4345 13.9636C15.1778 13.6839 14.9788 13.3349 14.8375 12.9167C14.6962 12.4985 14.6255 12.0183 14.6255 11.4761C14.6255 10.9368 14.6933 10.4666 14.8289 10.0658C14.9673 9.66486 15.1677 9.31588 15.4302 9.01882C15.6869 8.73041 15.9912 8.51121 16.343 8.36124C16.6949 8.20838 17.0886 8.13195 17.5241 8.13195C17.7404 8.13195 17.9423 8.14782 18.1297 8.17954C18.3201 8.21127 18.496 8.25164 18.6575 8.30067C18.796 8.34394 18.9373 8.39873 19.0815 8.46507C19.2286 8.52852 19.3728 8.59918 19.5141 8.67705V9.71101H19.4449C19.3699 9.64179 19.2733 9.55815 19.155 9.46009C19.0368 9.36203 18.8926 9.26541 18.7224 9.17023C18.558 9.08083 18.3792 9.00728 18.186 8.9496C17.9927 8.89192 17.7692 8.86308 17.5154 8.86308C17.2414 8.86308 16.9818 8.91932 16.7367 9.0318C16.4915 9.14428 16.2767 9.31011 16.0921 9.52931C15.9104 9.7485 15.7691 10.0239 15.6681 10.3556C15.5672 10.6873 15.5167 11.0608 15.5167 11.4761C15.5167 11.9174 15.5701 12.2981 15.6768 12.6182C15.7835 12.9354 15.9291 13.2037 16.1137 13.4229C16.2925 13.6363 16.5031 13.7978 16.7454 13.9074C16.9876 14.0141 17.2443 14.0675 17.5154 14.0675C17.7634 14.0675 17.9927 14.0372 18.2033 13.9766C18.4138 13.916 18.6013 13.8396 18.7657 13.7473C18.9243 13.6579 19.0613 13.5671 19.1767 13.4748C19.292 13.3796 19.3829 13.2988 19.4492 13.2325H19.5141V14.2535C19.3728 14.3198 19.2387 14.3833 19.1118 14.4438C18.9878 14.5044 18.8363 14.5635 18.6575 14.6212C18.4701 14.6818 18.2956 14.7279 18.1341 14.7596C17.9754 14.7914 17.7678 14.8072 17.5111 14.8072ZM23.7797 10.5719H22.1358V14.6904H21.3224V10.5719H19.6785V9.8581H23.7797V10.5719ZM27.0849 13.5007V12.1596C26.8917 12.1769 26.6465 12.2014 26.3495 12.2332C26.0553 12.262 25.8173 12.3038 25.6356 12.3586C25.4193 12.425 25.2405 12.5273 25.0992 12.6658C24.9579 12.8013 24.8872 12.9917 24.8872 13.2368C24.8872 13.5137 24.9651 13.7228 25.1208 13.8641C25.2766 14.0055 25.5044 14.0761 25.8044 14.0761C26.061 14.0761 26.2932 14.0213 26.5009 13.9117C26.7085 13.7992 26.9032 13.6622 27.0849 13.5007ZM27.0849 14.1756C27.0186 14.2246 26.9292 14.2939 26.8167 14.3833C26.7071 14.4698 26.6004 14.539 26.4965 14.5909C26.3523 14.6659 26.2125 14.7236 26.0769 14.764C25.9442 14.8044 25.7568 14.8245 25.5145 14.8245C25.3155 14.8245 25.1266 14.787 24.9478 14.7121C24.769 14.6371 24.6118 14.5318 24.4762 14.3963C24.3464 14.2636 24.2426 14.1006 24.1647 13.9074C24.0869 13.7113 24.0479 13.5051 24.0479 13.2888C24.0479 12.9542 24.1186 12.6701 24.2599 12.4365C24.4012 12.2 24.6248 12.0125 24.9305 11.8741C25.2016 11.7501 25.5217 11.665 25.8909 11.6188C26.26 11.5698 26.6581 11.5338 27.0849 11.5107V11.355C27.0849 11.1646 27.0561 11.0117 26.9984 10.8964C26.9407 10.7781 26.8599 10.6873 26.7561 10.6238C26.6523 10.5575 26.5254 10.5142 26.3754 10.494C26.2254 10.471 26.0711 10.4594 25.9125 10.4594C25.725 10.4594 25.5044 10.4883 25.2506 10.546C24.9968 10.6008 24.743 10.6815 24.4892 10.7882H24.4416V9.96192C24.5916 9.91866 24.8065 9.87107 25.0862 9.81916C25.366 9.76725 25.6428 9.74129 25.9168 9.74129C26.2485 9.74129 26.5283 9.76725 26.7561 9.81916C26.984 9.87107 27.1887 9.96481 27.3704 10.1004C27.5464 10.233 27.6776 10.4046 27.7641 10.6152C27.8506 10.8257 27.8939 11.0824 27.8939 11.3852V14.6904H27.0849V14.1756ZM32.5705 10.5719H30.9265V14.6904H30.1132V10.5719H28.4693V9.8581H32.5705V10.5719ZM36.9918 14.6904H36.1872V11.0867L33.9116 14.6904H33.1762V9.8581H33.9808V13.4056L36.2304 9.8581H36.9918V14.6904ZM41.8025 14.6904H40.9892V12.8042C40.7354 12.8879 40.4888 12.9528 40.2494 12.9989C40.0101 13.045 39.7736 13.0681 39.54 13.0681C39.3352 13.0681 39.1347 13.0422 38.9386 12.9902C38.7454 12.9354 38.5781 12.8475 38.4368 12.7263C38.2955 12.6052 38.1859 12.4509 38.108 12.2634C38.033 12.0731 37.9955 11.8496 37.9955 11.5929V9.8581H38.8088V11.1689C38.8088 11.3824 38.8175 11.5525 38.8348 11.6794C38.8521 11.8034 38.8997 11.9246 38.9775 12.0428C39.0439 12.1438 39.1434 12.2216 39.2761 12.2764C39.4116 12.3312 39.589 12.3586 39.8082 12.3586C39.9985 12.3586 40.2019 12.3399 40.4182 12.3024C40.6374 12.2649 40.8277 12.2202 40.9892 12.1683V9.8581H41.8025V14.6904ZM45.0775 14.8029C44.3074 14.8029 43.7089 14.5866 43.2821 14.154C42.8581 13.7185 42.6461 13.1013 42.6461 12.3024C42.6461 11.515 42.8524 10.8892 43.2648 10.4248C43.6772 9.9576 44.2165 9.72398 44.8828 9.72398C45.1827 9.72398 45.4481 9.76725 45.6788 9.85377C45.9095 9.94029 46.1114 10.0758 46.2845 10.2604C46.4575 10.445 46.5902 10.6714 46.6825 10.9396C46.7748 11.205 46.8209 11.5309 46.8209 11.9174V12.3586H43.4724C43.4724 12.921 43.6138 13.3508 43.8964 13.6478C44.179 13.9449 44.5698 14.0934 45.0688 14.0934C45.2476 14.0934 45.4221 14.0732 45.5923 14.0329C45.7653 13.9925 45.9211 13.9406 46.0595 13.8771C46.2066 13.8108 46.3306 13.7473 46.4315 13.6868C46.5325 13.6233 46.6161 13.5642 46.6825 13.5094H46.73V14.3963C46.6349 14.4337 46.5166 14.4813 46.3753 14.539C46.234 14.5938 46.1071 14.6371 45.9946 14.6688C45.836 14.7121 45.6918 14.7452 45.562 14.7683C45.4351 14.7914 45.2736 14.8029 45.0775 14.8029ZM46.0292 11.7357C46.0234 11.5165 45.9975 11.3276 45.9513 11.1689C45.9052 11.0103 45.8389 10.8762 45.7523 10.7666C45.6572 10.6455 45.5346 10.5532 45.3846 10.4897C45.2375 10.4263 45.0544 10.3945 44.8352 10.3945C44.6189 10.3945 44.4343 10.4277 44.2814 10.494C44.1315 10.5575 43.9945 10.6512 43.8704 10.7752C43.7493 10.9021 43.657 11.0435 43.5936 11.1992C43.5301 11.3521 43.4897 11.5309 43.4724 11.7357H46.0292ZM49.5637 14.7986C49.232 14.7986 48.9277 14.7481 48.6509 14.6472C48.374 14.5433 48.1361 14.3876 47.9371 14.1799C47.738 13.9723 47.5837 13.7113 47.4742 13.3969C47.3646 13.0797 47.3098 12.7076 47.3098 12.2808C47.3098 11.8568 47.366 11.4905 47.4785 11.1819C47.5938 10.8733 47.7467 10.6137 47.9371 10.4032C48.1274 10.1927 48.3639 10.0311 48.6465 9.91866C48.9321 9.8033 49.2378 9.74562 49.5637 9.74562C49.829 9.74562 50.0843 9.78311 50.3294 9.8581C50.5775 9.93308 50.7981 10.0196 50.9913 10.1177V11.0305H50.9437C50.8861 10.9815 50.8111 10.9252 50.7188 10.8618C50.6294 10.7983 50.5198 10.7334 50.39 10.6671C50.2775 10.6094 50.1448 10.5589 49.992 10.5157C49.8391 10.4724 49.692 10.4508 49.5507 10.4508C49.1296 10.4508 48.7907 10.6108 48.5341 10.931C48.2803 11.2482 48.1534 11.6982 48.1534 12.2808C48.1534 12.8518 48.2759 13.2974 48.5211 13.6175C48.7691 13.9348 49.1123 14.0934 49.5507 14.0934C49.8161 14.0934 50.0684 14.0386 50.3078 13.929C50.5472 13.8194 50.7592 13.6781 50.9437 13.5051H50.9913V14.4179C50.9106 14.4554 50.8096 14.5015 50.6885 14.5563C50.5674 14.6082 50.4578 14.6472 50.3597 14.6731C50.2213 14.7135 50.0973 14.7438 49.9877 14.764C49.8781 14.787 49.7367 14.7986 49.5637 14.7986ZM55.6247 14.6904H54.6123L52.9554 12.4625H52.5487V14.6904H51.7354V9.8581H52.5487V11.9606C52.7593 11.9577 52.9381 11.9145 53.0852 11.8308C53.2352 11.7443 53.3621 11.5785 53.4659 11.3333C53.4976 11.2612 53.5322 11.1776 53.5697 11.0824C53.6101 10.9872 53.6418 10.9036 53.6649 10.8315C53.7918 10.4767 53.9677 10.2258 54.1927 10.0787C54.4177 9.93164 54.7104 9.8581 55.0709 9.8581H55.2915V10.5589H55.1055C54.8777 10.5589 54.7061 10.6065 54.5907 10.7017C54.4782 10.794 54.383 10.9642 54.3052 11.2122C54.2244 11.4631 54.1292 11.6592 54.0196 11.8005C53.91 11.939 53.7889 12.0457 53.6562 12.1207L55.6247 14.6904ZM60.1239 12.2764C60.1239 13.0897 59.9278 13.7185 59.5355 14.1626C59.1433 14.6039 58.6213 14.8245 57.9694 14.8245C57.2974 14.8245 56.7682 14.5967 56.3817 14.141C55.9982 13.6824 55.8064 13.0609 55.8064 12.2764C55.8064 11.4689 56.0039 10.8416 56.399 10.3945C56.797 9.9475 57.3205 9.72398 57.9694 9.72398C58.6213 9.72398 59.1433 9.9475 59.5355 10.3945C59.9278 10.8387 60.1239 11.466 60.1239 12.2764ZM59.2846 12.2764C59.2846 11.6506 59.1707 11.1862 58.9428 10.8834C58.715 10.5777 58.3905 10.4248 57.9694 10.4248C57.5455 10.4248 57.2181 10.5777 56.9874 10.8834C56.7596 11.1862 56.6456 11.6506 56.6456 12.2764C56.6456 12.8821 56.7596 13.3421 56.9874 13.6565C57.2181 13.968 57.5455 14.1237 57.9694 14.1237C58.3876 14.1237 58.7107 13.9708 58.9385 13.6651C59.1692 13.3565 59.2846 12.8936 59.2846 12.2764ZM63.057 14.8029C62.287 14.8029 61.6885 14.5866 61.2617 14.154C60.8377 13.7185 60.6257 13.1013 60.6257 12.3024C60.6257 11.515 60.8319 10.8892 61.2444 10.4248C61.6568 9.9576 62.1961 9.72398 62.8623 9.72398C63.1623 9.72398 63.4276 9.76725 63.6584 9.85377C63.8891 9.94029 64.091 10.0758 64.264 10.2604C64.4371 10.445 64.5697 10.6714 64.662 10.9396C64.7543 11.205 64.8005 11.5309 64.8005 11.9174V12.3586H61.452C61.452 12.921 61.5933 13.3508 61.876 13.6478C62.1586 13.9449 62.5494 14.0934 63.0484 14.0934C63.2272 14.0934 63.4017 14.0732 63.5718 14.0329C63.7449 13.9925 63.9006 13.9406 64.0391 13.8771C64.1862 13.8108 64.3102 13.7473 64.4111 13.6868C64.5121 13.6233 64.5957 13.5642 64.662 13.5094H64.7096V14.3963C64.6144 14.4337 64.4962 14.4813 64.3549 14.539C64.2136 14.5938 64.0866 14.6371 63.9742 14.6688C63.8155 14.7121 63.6713 14.7452 63.5416 14.7683C63.4147 14.7914 63.2531 14.8029 63.057 14.8029ZM64.0088 11.7357C64.003 11.5165 63.9771 11.3276 63.9309 11.1689C63.8848 11.0103 63.8184 10.8762 63.7319 10.7666C63.6367 10.6455 63.5142 10.5532 63.3642 10.4897C63.2171 10.4263 63.0339 10.3945 62.8148 10.3945C62.5984 10.3945 62.4139 10.4277 62.261 10.494C62.111 10.5575 61.974 10.6512 61.85 10.7752C61.7289 10.9021 61.6366 11.0435 61.5731 11.1992C61.5097 11.3521 61.4693 11.5309 61.452 11.7357H64.0088ZM72.3669 12.2764C72.3669 13.0897 72.1708 13.7185 71.7786 14.1626C71.3863 14.6039 70.8643 14.8245 70.2125 14.8245C69.5405 14.8245 69.0113 14.5967 68.6248 14.141C68.2412 13.6824 68.0494 13.0609 68.0494 12.2764C68.0494 11.4689 68.247 10.8416 68.6421 10.3945C69.0401 9.9475 69.5636 9.72398 70.2125 9.72398C70.8643 9.72398 71.3863 9.9475 71.7786 10.3945C72.1708 10.8387 72.3669 11.466 72.3669 12.2764ZM71.5277 12.2764C71.5277 11.6506 71.4137 11.1862 71.1859 10.8834C70.9581 10.5777 70.6336 10.4248 70.2125 10.4248C69.7885 10.4248 69.4612 10.5777 69.2305 10.8834C69.0026 11.1862 68.8887 11.6506 68.8887 12.2764C68.8887 12.8821 69.0026 13.3421 69.2305 13.6565C69.4612 13.968 69.7885 14.1237 70.2125 14.1237C70.6307 14.1237 70.9537 13.9708 71.1816 13.6651C71.4123 13.3565 71.5277 12.8936 71.5277 12.2764ZM76.6282 10.5719C76.8157 10.7623 76.9613 11.0045 77.0652 11.2987C77.169 11.59 77.2209 11.9289 77.2209 12.3154C77.2209 12.6874 77.1618 13.0321 77.0435 13.3493C76.9253 13.6637 76.7652 13.929 76.5633 14.1453C76.3557 14.3703 76.1249 14.5405 75.8711 14.6558C75.6202 14.7683 75.3462 14.8245 75.0492 14.8245C74.7463 14.8245 74.468 14.7726 74.2142 14.6688C73.9633 14.5621 73.7484 14.3991 73.5696 14.1799C73.3475 13.906 73.1803 13.5627 73.0678 13.1503C72.9582 12.7379 72.9034 12.2274 72.9034 11.6188C72.9034 11.4025 72.912 11.1833 72.9293 10.9613C72.9495 10.7363 72.9914 10.4681 73.0548 10.1566C73.1125 9.87973 73.1904 9.62304 73.2884 9.38654C73.3865 9.14716 73.5148 8.94527 73.6734 8.78088C73.8782 8.56745 74.145 8.39729 74.4738 8.27039C74.8055 8.14349 75.2438 8.05552 75.7889 8.00649C75.9822 7.98919 76.1884 7.97333 76.4076 7.95891C76.6297 7.9416 76.7984 7.92862 76.9137 7.91997V8.6684C76.7638 8.67705 76.6037 8.68859 76.4335 8.70301C76.2634 8.71454 76.0687 8.72897 75.8495 8.74627C75.5582 8.76934 75.2539 8.82126 74.9367 8.90201C74.6194 8.97988 74.3801 9.10246 74.2185 9.26974C74.0974 9.39375 74.0008 9.57113 73.9287 9.80186C73.8566 10.0326 73.8061 10.2893 73.7773 10.5719C73.9907 10.4191 74.2185 10.2907 74.4608 10.1869C74.706 10.0802 74.9699 10.0268 75.2525 10.0268C75.515 10.0268 75.7644 10.0715 76.0009 10.1609C76.2374 10.2475 76.4465 10.3844 76.6282 10.5719ZM76.3946 12.3629C76.3946 11.8496 76.2792 11.4559 76.0485 11.1819C75.8178 10.9079 75.489 10.7709 75.0621 10.7709C74.8285 10.7709 74.6021 10.8099 74.3829 10.8877C74.1637 10.9656 73.9575 11.0694 73.7643 11.1992C73.7585 11.2713 73.7528 11.3578 73.747 11.4588C73.7412 11.5568 73.7383 11.6462 73.7383 11.727C73.7383 12.2288 73.7787 12.6369 73.8595 12.9513C73.9402 13.2657 74.0527 13.5123 74.1969 13.6911C74.3267 13.8526 74.4637 13.9651 74.6079 14.0285C74.7521 14.0891 74.9093 14.1194 75.0795 14.1194C75.4948 14.1194 75.8178 13.9622 76.0485 13.6478C76.2792 13.3335 76.3946 12.9052 76.3946 12.3629ZM82.0489 12.2764C82.0489 13.0897 81.8528 13.7185 81.4606 14.1626C81.0683 14.6039 80.5463 14.8245 79.8945 14.8245C79.2225 14.8245 78.6932 14.5967 78.3068 14.141C77.9232 13.6824 77.7314 13.0609 77.7314 12.2764C77.7314 11.4689 77.929 10.8416 78.3241 10.3945C78.7221 9.9475 79.2456 9.72398 79.8945 9.72398C80.5463 9.72398 81.0683 9.9475 81.4606 10.3945C81.8528 10.8387 82.0489 11.466 82.0489 12.2764ZM81.2096 12.2764C81.2096 11.6506 81.0957 11.1862 80.8679 10.8834C80.64 10.5777 80.3156 10.4248 79.8945 10.4248C79.4705 10.4248 79.1432 10.5777 78.9124 10.8834C78.6846 11.1862 78.5707 11.6506 78.5707 12.2764C78.5707 12.8821 78.6846 13.3421 78.9124 13.6565C79.1432 13.968 79.4705 14.1237 79.8945 14.1237C80.3127 14.1237 80.6357 13.9708 80.8635 13.6651C81.0943 13.3565 81.2096 12.8936 81.2096 12.2764ZM86.9375 12.1466C86.9375 12.9513 86.7443 13.593 86.3578 14.0718C85.9742 14.5477 85.4882 14.7856 84.8999 14.7856C84.6605 14.7856 84.4485 14.7582 84.2639 14.7034C84.0793 14.6486 83.8904 14.5635 83.6972 14.4482V16.4728H82.8839V9.8581H83.6972V10.3643C83.8991 10.1826 84.1226 10.0311 84.3677 9.91001C84.6158 9.78599 84.8854 9.72398 85.1767 9.72398C85.7305 9.72398 86.1617 9.94318 86.4703 10.3816C86.7817 10.8199 86.9375 11.4083 86.9375 12.1466ZM86.0982 12.2375C86.0982 11.6866 86.0102 11.2598 85.8343 10.9569C85.6584 10.6512 85.3729 10.4984 84.9777 10.4984C84.747 10.4984 84.5235 10.5503 84.3072 10.6541C84.0938 10.7551 83.8904 10.8863 83.6972 11.0478V13.7863C83.9106 13.8901 84.0923 13.9607 84.2423 13.9982C84.3951 14.0357 84.5696 14.0545 84.7657 14.0545C85.1868 14.0545 85.5142 13.9002 85.7478 13.5916C85.9814 13.283 86.0982 12.8316 86.0982 12.2375ZM91.5795 9.8581L88.9794 16.4728H88.1099L88.9751 14.4568L87.2187 9.8581H88.0969L89.4164 13.4358L90.7315 9.8581H91.5795ZM96.3383 15.8498H95.5812V14.6775H92.3971V15.8498H91.64V13.9982H91.9602C92.2342 13.5483 92.4577 12.9614 92.6307 12.2375C92.8067 11.5107 92.8946 10.7176 92.8946 9.8581H95.8581V13.9982H96.3383V15.8498ZM95.0447 13.9982V10.5416H93.6604C93.6229 11.2627 93.5234 11.9217 93.3619 12.5187C93.2032 13.1128 93.0028 13.606 92.7605 13.9982H95.0447ZM101.119 12.2764C101.119 13.0897 100.923 13.7185 100.53 14.1626C100.138 14.6039 99.6161 14.8245 98.9642 14.8245C98.2922 14.8245 97.763 14.5967 97.3765 14.141C96.993 13.6824 96.8012 13.0609 96.8012 12.2764C96.8012 11.4689 96.9987 10.8416 97.3938 10.3945C97.7919 9.9475 98.3153 9.72398 98.9642 9.72398C99.6161 9.72398 100.138 9.9475 100.53 10.3945C100.923 10.8387 101.119 11.466 101.119 12.2764ZM100.279 12.2764C100.279 11.6506 100.165 11.1862 99.9376 10.8834C99.7098 10.5777 99.3853 10.4248 98.9642 10.4248C98.5403 10.4248 98.2129 10.5777 97.9822 10.8834C97.7544 11.1862 97.6404 11.6506 97.6404 12.2764C97.6404 12.8821 97.7544 13.3421 97.9822 13.6565C98.2129 13.968 98.5403 14.1237 98.9642 14.1237C99.3824 14.1237 99.7055 13.9708 99.9333 13.6651C100.164 13.3565 100.279 12.8936 100.279 12.2764ZM105.743 13.2282C105.743 13.4618 105.699 13.6695 105.609 13.8512C105.52 14.03 105.397 14.1799 105.242 14.3011C105.045 14.4539 104.839 14.5578 104.623 14.6126C104.409 14.6645 104.153 14.6904 103.853 14.6904H101.954V9.8581H103.727C104.082 9.8581 104.342 9.86963 104.506 9.89271C104.67 9.91289 104.833 9.96769 104.995 10.0571C105.165 10.1494 105.291 10.272 105.371 10.4248C105.452 10.5777 105.492 10.7594 105.492 10.9699C105.492 11.2007 105.429 11.4083 105.302 11.5929C105.175 11.7746 105.006 11.9159 104.796 12.0169L104.818 12.0471C105.08 12.1135 105.299 12.2476 105.475 12.4495C105.654 12.6514 105.743 12.9109 105.743 13.2282ZM104.657 11.0954C104.657 10.9858 104.639 10.8906 104.601 10.8099C104.567 10.7291 104.505 10.6656 104.415 10.6195C104.311 10.5647 104.195 10.533 104.065 10.5243C103.938 10.5128 103.761 10.507 103.533 10.507H102.758V11.8308H103.693C103.892 11.8308 104.033 11.8222 104.117 11.8049C104.2 11.7847 104.293 11.7443 104.394 11.6837C104.489 11.6261 104.557 11.5482 104.597 11.4501C104.637 11.3521 104.657 11.2338 104.657 11.0954ZM104.904 13.2325C104.904 13.0681 104.88 12.9369 104.831 12.8388C104.784 12.7379 104.681 12.6485 104.519 12.5706C104.418 12.5216 104.31 12.4913 104.195 12.4798C104.079 12.4682 103.919 12.4625 103.714 12.4625H102.758V14.0415H103.463C103.755 14.0415 103.981 14.03 104.143 14.0069C104.304 13.9838 104.443 13.9377 104.558 13.8685C104.679 13.7935 104.767 13.7069 104.822 13.6089C104.877 13.5108 104.904 13.3854 104.904 13.2325ZM109.299 13.5007V12.1596C109.106 12.1769 108.861 12.2014 108.564 12.2332C108.27 12.262 108.032 12.3038 107.85 12.3586C107.634 12.425 107.455 12.5273 107.314 12.6658C107.172 12.8013 107.102 12.9917 107.102 13.2368C107.102 13.5137 107.18 13.7228 107.335 13.8641C107.491 14.0055 107.719 14.0761 108.019 14.0761C108.276 14.0761 108.508 14.0213 108.715 13.9117C108.923 13.7992 109.118 13.6622 109.299 13.5007ZM109.299 14.1756C109.233 14.2246 109.144 14.2939 109.031 14.3833C108.922 14.4698 108.815 14.539 108.711 14.5909C108.567 14.6659 108.427 14.7236 108.291 14.764C108.159 14.8044 107.971 14.8245 107.729 14.8245C107.53 14.8245 107.341 14.787 107.162 14.7121C106.984 14.6371 106.826 14.5318 106.691 14.3963C106.561 14.2636 106.457 14.1006 106.379 13.9074C106.301 13.7113 106.262 13.5051 106.262 13.2888C106.262 12.9542 106.333 12.6701 106.474 12.4365C106.616 12.2 106.839 12.0125 107.145 11.8741C107.416 11.7501 107.736 11.665 108.105 11.6188C108.475 11.5698 108.873 11.5338 109.299 11.5107V11.355C109.299 11.1646 109.271 11.0117 109.213 10.8964C109.155 10.7781 109.075 10.6873 108.971 10.6238C108.867 10.5575 108.74 10.5142 108.59 10.494C108.44 10.471 108.286 10.4594 108.127 10.4594C107.94 10.4594 107.719 10.4883 107.465 10.546C107.211 10.6008 106.958 10.6815 106.704 10.7882H106.656V9.96192C106.806 9.91866 107.021 9.87107 107.301 9.81916C107.581 9.76725 107.857 9.74129 108.131 9.74129C108.463 9.74129 108.743 9.76725 108.971 9.81916C109.199 9.87107 109.403 9.96481 109.585 10.1004C109.761 10.233 109.892 10.4046 109.979 10.6152C110.065 10.8257 110.108 11.0824 110.108 11.3852V14.6904H109.299V14.1756ZM115.071 14.6904H114.257V12.5144H112.068V14.6904H111.255V9.8581H112.068V11.8135H114.257V9.8581H115.071V14.6904ZM120.063 14.6904H119.258V11.0867L116.983 14.6904H116.247V9.8581H117.052V13.4056L119.302 9.8581H120.063V14.6904ZM123.338 14.8029C122.568 14.8029 121.969 14.5866 121.543 14.154C121.119 13.7185 120.907 13.1013 120.907 12.3024C120.907 11.515 121.113 10.8892 121.525 10.4248C121.938 9.9576 122.477 9.72398 123.143 9.72398C123.443 9.72398 123.709 9.76725 123.939 9.85377C124.17 9.94029 124.372 10.0758 124.545 10.2604C124.718 10.445 124.851 10.6714 124.943 10.9396C125.035 11.205 125.081 11.5309 125.081 11.9174V12.3586H121.733C121.733 12.921 121.874 13.3508 122.157 13.6478C122.439 13.9449 122.83 14.0934 123.329 14.0934C123.508 14.0934 123.683 14.0732 123.853 14.0329C124.026 13.9925 124.181 13.9406 124.32 13.8771C124.467 13.8108 124.591 13.7473 124.692 13.6868C124.793 13.6233 124.877 13.5642 124.943 13.5094H124.99V14.3963C124.895 14.4337 124.777 14.4813 124.636 14.539C124.494 14.5938 124.368 14.6371 124.255 14.6688C124.096 14.7121 123.952 14.7452 123.822 14.7683C123.696 14.7914 123.534 14.8029 123.338 14.8029ZM124.29 11.7357C124.284 11.5165 124.258 11.3276 124.212 11.1689C124.166 11.0103 124.099 10.8762 124.013 10.7666C123.918 10.6455 123.795 10.5532 123.645 10.4897C123.498 10.4263 123.315 10.3945 123.096 10.3945C122.879 10.3945 122.695 10.4277 122.542 10.494C122.392 10.5575 122.255 10.6512 122.131 10.7752C122.01 10.9021 121.917 11.0435 121.854 11.1992C121.791 11.3521 121.75 11.5309 121.733 11.7357H124.29Z" fill="#8C99B2"/>
<path opacity="0.2" d="M43.32 38.7901C37.9828 38.7878 32.7149 39.9987 27.9143 42.331C23.1137 44.6634 18.906 48.0562 15.609 52.2533C12.312 56.4504 10.012 61.3419 8.88278 66.5583C7.75355 71.7746 7.82461 77.1794 9.09061 82.3643C10.3566 87.5492 12.7844 92.3785 16.1906 96.4875C19.5968 100.596 23.8923 103.877 28.7526 106.083C33.6128 108.288 38.9107 109.36 44.246 109.217C49.5813 109.075 54.8144 107.722 59.55 105.26C59.55 105.26 58.8 104.98 58.55 104.89C50.9117 108.658 42.1483 109.463 33.9514 107.15C25.7544 104.836 18.705 99.5683 14.1639 92.3627C9.62276 85.1572 7.91185 76.5248 9.36139 68.1319C10.8109 59.7389 15.3182 52.1805 22.0131 46.9155C28.708 41.6505 37.116 39.0522 45.6141 39.6222C54.1122 40.1921 62.0979 43.8899 68.0298 50.0017C73.9617 56.1135 77.4193 64.2061 77.7351 72.7175C78.0509 81.2288 75.2026 89.5554 69.74 96.09C69.81 96.5 69.91 97.09 69.91 97.09C75.472 90.6837 78.5332 82.484 78.53 74.0001C78.5263 71.4718 78.2548 68.9511 77.72 66.4801L79.92 63.6801C77.2794 54.2353 71.1111 46.166 62.69 41.1401L59.13 42.5601C54.2301 40.0767 48.8133 38.785 43.32 38.7901Z" fill="#8C99B2"/>
<path opacity="0.2" d="M43.18 100.51C57.9205 100.51 69.87 88.5604 69.87 73.8199C69.87 59.0794 57.9205 47.1299 43.18 47.1299C28.4395 47.1299 16.49 59.0794 16.49 73.8199C16.49 88.5604 28.4395 100.51 43.18 100.51Z" fill="#8C99B2"/>
<path d="M43.18 99.5796C57.4069 99.5796 68.94 88.0464 68.94 73.8196C68.94 59.5927 57.4069 48.0596 43.18 48.0596C28.9531 48.0596 17.42 59.5927 17.42 73.8196C17.42 88.0464 28.9531 99.5796 43.18 99.5796Z" fill="#F5F8FD"/>
<path d="M48.7331 72.166C48.7331 74.6723 48.3675 76.5129 47.6362 77.6879C46.9112 78.8566 45.7894 79.441 44.2706 79.441C42.7331 79.441 41.605 78.8441 40.8862 77.6504C40.1675 76.4566 39.8081 74.6348 39.8081 72.1848C39.8081 69.666 40.1706 67.8254 40.8956 66.6629C41.6269 65.4941 42.7519 64.9098 44.2706 64.9098C45.8081 64.9098 46.9362 65.5129 47.655 66.7191C48.3737 67.9254 48.7331 69.741 48.7331 72.166ZM46.3331 76.4223C46.5144 75.9598 46.6425 75.3754 46.7175 74.6691C46.7925 73.9629 46.83 73.1285 46.83 72.166C46.83 71.2098 46.7925 70.3785 46.7175 69.6723C46.6425 68.966 46.5112 68.3785 46.3237 67.9098C46.1362 67.4348 45.8769 67.0754 45.5456 66.8316C45.2206 66.5816 44.7956 66.4566 44.2706 66.4566C43.7519 66.4566 43.3237 66.5816 42.9862 66.8316C42.655 67.0754 42.3925 67.441 42.1987 67.9285C42.0112 68.4035 41.8831 69.0035 41.8144 69.7285C41.7456 70.4535 41.7112 71.2723 41.7112 72.1848C41.7112 73.1598 41.7394 73.9754 41.7956 74.6316C41.8581 75.2879 41.9894 75.8754 42.1894 76.3941C42.3706 76.8754 42.6269 77.2473 42.9581 77.5098C43.2956 77.766 43.7331 77.8941 44.2706 77.8941C44.7894 77.8941 45.2144 77.7723 45.5456 77.5285C45.8831 77.2785 46.1456 76.9098 46.3331 76.4223Z" fill="#8C99B2"/>
<path d="M10.33 20V23.49L12.41 25.58H35.2L48.92 39.32" stroke="#8C99B2" stroke-width="1.07" stroke-miterlimit="10"/>
<path d="M48.85 40.2501C48.6637 40.2501 48.4815 40.1947 48.3267 40.091C48.172 39.9872 48.0515 39.8398 47.9806 39.6675C47.9098 39.4951 47.8918 39.3056 47.9289 39.123C47.9659 38.9404 48.0565 38.7729 48.1889 38.6419C48.3214 38.5108 48.4898 38.4221 48.6728 38.387C48.8558 38.3518 49.0451 38.3719 49.2167 38.4446C49.3883 38.5173 49.5344 38.6393 49.6365 38.7952C49.7385 38.9511 49.792 39.1338 49.79 39.3201C49.7874 39.5677 49.6872 39.8042 49.5112 39.9783C49.3352 40.1525 49.0976 40.2501 48.85 40.2501Z" fill="#F5F8FD"/>
<path d="M48.85 38.9099C48.9315 38.9079 49.0117 38.9302 49.0804 38.9741C49.1492 39.0179 49.2033 39.0812 49.2358 39.1559C49.2684 39.2306 49.278 39.3134 49.2633 39.3936C49.2486 39.4737 49.2104 39.5477 49.1535 39.6061C49.0965 39.6644 49.0235 39.7045 48.9437 39.7211C48.8639 39.7378 48.781 39.7302 48.7055 39.6995C48.63 39.6688 48.5654 39.6163 48.5199 39.5487C48.4743 39.481 48.45 39.4014 48.45 39.3199C48.4487 39.2665 48.458 39.2134 48.4775 39.1637C48.497 39.114 48.5263 39.0688 48.5636 39.0305C48.6008 38.9923 48.6454 38.962 48.6946 38.9413C48.7438 38.9205 48.7966 38.9099 48.85 38.9099ZM48.85 37.8399C48.5569 37.8379 48.2697 37.923 48.0251 38.0844C47.7804 38.2458 47.5891 38.4763 47.4755 38.7465C47.362 39.0168 47.3313 39.3147 47.3872 39.6024C47.4432 39.8902 47.5834 40.1548 47.7899 40.3628C47.9965 40.5708 48.2602 40.7127 48.5476 40.7707C48.8349 40.8286 49.133 40.7999 49.404 40.6881C49.6751 40.5764 49.9068 40.3867 50.0699 40.1431C50.2329 39.8996 50.32 39.613 50.32 39.3199C50.3213 39.126 50.2843 38.9338 50.211 38.7543C50.1377 38.5748 50.0296 38.4115 49.893 38.274C49.7564 38.1364 49.5939 38.0272 49.4149 37.9527C49.2359 37.8782 49.0439 37.8399 48.85 37.8399Z" fill="#8C99B2"/>
<path d="M48.85 39.6301C48.7859 39.6321 48.7227 39.6147 48.6686 39.5803C48.6144 39.5459 48.5719 39.4961 48.5464 39.4372C48.521 39.3784 48.5138 39.3132 48.5258 39.2502C48.5379 39.1872 48.5685 39.1293 48.6139 39.084C48.6592 39.0386 48.7172 39.0079 48.7801 38.9959C48.8431 38.9839 48.9083 38.9911 48.9671 39.0165C49.026 39.042 49.0759 39.0845 49.1103 39.1386C49.1446 39.1928 49.162 39.256 49.16 39.3201C49.16 39.4023 49.1273 39.4811 49.0692 39.5393C49.0111 39.5974 48.9322 39.6301 48.85 39.6301Z" fill="#8C99B2"/>
<path d="M48.85 38.4697C48.6819 38.4697 48.5175 38.5196 48.3778 38.613C48.238 38.7064 48.129 38.8391 48.0647 38.9944C48.0004 39.1498 47.9835 39.3207 48.0163 39.4856C48.0491 39.6504 48.1301 39.8019 48.249 39.9208C48.3678 40.0396 48.5193 40.1206 48.6842 40.1534C48.8491 40.1862 49.02 40.1694 49.1753 40.105C49.3306 40.0407 49.4633 39.9317 49.5567 39.792C49.6501 39.6522 49.7 39.4878 49.7 39.3197C49.7 39.0943 49.6104 38.8781 49.451 38.7187C49.2916 38.5593 49.0754 38.4697 48.85 38.4697Z" fill="#F5F8FD"/>
<path d="M10.33 18.9102C10.1322 18.9102 9.93888 18.9688 9.77443 19.0787C9.60998 19.1886 9.48181 19.3447 9.40612 19.5275C9.33043 19.7102 9.31063 19.9113 9.34921 20.1052C9.3878 20.2992 9.48304 20.4774 9.62289 20.6173C9.76274 20.7571 9.94093 20.8524 10.1349 20.8909C10.3289 20.9295 10.53 20.9097 10.7127 20.834C10.8954 20.7583 11.0516 20.6302 11.1615 20.4657C11.2713 20.3013 11.33 20.1079 11.33 19.9102C11.33 19.6449 11.2246 19.3906 11.0371 19.203C10.8496 19.0155 10.5952 18.9102 10.33 18.9102Z" fill="#8C99B2"/>
<path d="M43.63 41.7305H42.73V49.2905H43.63V41.7305Z" fill="#F5F8FD"/>
<path d="M92.8302 48.2598H91.9173V44.8987H88.7591V48.2598H87.8462V41.3946H88.7591V44.0872H91.9173V41.3946H92.8302V48.2598ZM96.3942 48.3796C95.5735 48.3796 94.9357 48.1491 94.4808 47.6881C94.029 47.2239 93.803 46.5662 93.803 45.7147C93.803 44.8756 94.0228 44.2086 94.4624 43.7138C94.9019 43.2158 95.4767 42.9668 96.1867 42.9668C96.5064 42.9668 96.7891 43.0129 97.035 43.1052C97.2809 43.1974 97.4961 43.3418 97.6805 43.5386C97.8649 43.7353 98.0063 43.9766 98.1047 44.2624C98.2031 44.5452 98.2522 44.8925 98.2522 45.3044V45.7747H94.6837C94.6837 46.374 94.8343 46.832 95.1355 47.1486C95.4367 47.4652 95.8532 47.6235 96.385 47.6235C96.5755 47.6235 96.7615 47.602 96.9428 47.559C97.1273 47.5159 97.2932 47.4606 97.4408 47.393C97.5975 47.3223 97.7297 47.2547 97.8373 47.1901C97.9449 47.1225 98.034 47.0595 98.1047 47.0011H98.1554V47.9462C98.054 47.9862 97.928 48.0369 97.7773 48.0984C97.6267 48.1568 97.4915 48.2029 97.3716 48.2367C97.2026 48.2828 97.0489 48.3182 96.9106 48.3428C96.7753 48.3673 96.6032 48.3796 96.3942 48.3796ZM97.4085 45.1108C97.4024 44.8772 97.3747 44.6758 97.3255 44.5068C97.2763 44.3377 97.2056 44.1948 97.1134 44.078C97.012 43.9489 96.8814 43.8505 96.7215 43.7829C96.5648 43.7153 96.3696 43.6815 96.136 43.6815C95.9055 43.6815 95.7087 43.7168 95.5458 43.7875C95.386 43.8551 95.24 43.955 95.1078 44.0872C94.9787 44.2225 94.8804 44.3731 94.8128 44.539C94.7451 44.7019 94.7021 44.8925 94.6837 45.1108H97.4085ZM106.224 48.2598H105.145L103.379 45.8853H102.946V48.2598H102.079V43.1098H102.946V45.3505C103.17 45.3474 103.361 45.3013 103.517 45.2122C103.677 45.12 103.813 44.9432 103.923 44.682C103.957 44.6051 103.994 44.516 104.034 44.4146C104.077 44.3131 104.111 44.224 104.135 44.1471C104.271 43.7691 104.458 43.5017 104.698 43.3449C104.938 43.1881 105.25 43.1098 105.634 43.1098H105.869V43.8567H105.671C105.428 43.8567 105.245 43.9074 105.122 44.0088C105.002 44.1072 104.901 44.2885 104.818 44.5529C104.732 44.8203 104.63 45.0293 104.513 45.1799C104.397 45.3274 104.267 45.4412 104.126 45.5211L106.224 48.2598ZM111.102 45.5488C111.102 46.4063 110.896 47.0902 110.484 47.6005C110.075 48.1076 109.557 48.3612 108.93 48.3612C108.675 48.3612 108.449 48.332 108.253 48.2736C108.056 48.2152 107.854 48.1245 107.649 48.0016V50.1593H106.782V43.1098H107.649V43.6492C107.864 43.4556 108.102 43.2942 108.363 43.1651C108.628 43.0329 108.915 42.9668 109.225 42.9668C109.816 42.9668 110.275 43.2004 110.604 43.6676C110.936 44.1348 111.102 44.7619 111.102 45.5488ZM110.207 45.6456C110.207 45.0585 110.114 44.6036 109.926 44.2809C109.739 43.955 109.434 43.7921 109.013 43.7921C108.767 43.7921 108.529 43.8475 108.299 43.9581C108.071 44.0657 107.854 44.2055 107.649 44.3777V47.2962C107.876 47.4068 108.07 47.4821 108.229 47.5221C108.392 47.562 108.578 47.582 108.787 47.582C109.236 47.582 109.585 47.4176 109.834 47.0887C110.083 46.7598 110.207 46.2788 110.207 45.6456ZM116.067 48.2598H115.21V44.4192L112.785 48.2598H112.001V43.1098H112.858V46.8904L115.256 43.1098H116.067V48.2598ZM121.084 43.8705H119.332V48.2598H118.465V43.8705H116.713V43.1098H121.084V43.8705ZM125.796 48.2598H124.938V44.4192L122.513 48.2598H121.729V43.1098H122.587V46.8904L124.984 43.1098H125.796V48.2598ZM130.923 48.2598H130.056V46.2496C129.785 46.3387 129.523 46.4079 129.267 46.457C129.012 46.5062 128.76 46.5308 128.511 46.5308C128.293 46.5308 128.079 46.5031 127.87 46.4478C127.665 46.3894 127.486 46.2957 127.336 46.1666C127.185 46.0375 127.068 45.873 126.985 45.6732C126.905 45.4704 126.865 45.2322 126.865 44.9586V43.1098H127.732V44.5068C127.732 44.7342 127.741 44.9156 127.76 45.0508C127.778 45.183 127.829 45.3121 127.912 45.4381C127.983 45.5457 128.089 45.6287 128.23 45.6871C128.375 45.7455 128.564 45.7747 128.797 45.7747C129 45.7747 129.217 45.7547 129.447 45.7147C129.681 45.6748 129.884 45.6271 130.056 45.5718V43.1098H130.923V48.2598ZM136.243 48.2598H135.376V45.9407H133.044V48.2598H132.177V43.1098H133.044V45.1937H135.376V43.1098H136.243V48.2598ZM141.319 46.6645C141.319 46.9135 141.269 47.1394 141.167 47.3423C141.069 47.5451 140.934 47.7096 140.762 47.8356C140.559 47.9893 140.342 48.0984 140.112 48.1629C139.881 48.2275 139.584 48.2598 139.222 48.2598H137.497V43.1098H138.364V45.1154H139.245C139.632 45.1154 139.932 45.1353 140.144 45.1753C140.359 45.2153 140.573 45.3136 140.785 45.4704C140.963 45.6025 141.097 45.7716 141.186 45.9775C141.275 46.1835 141.319 46.4125 141.319 46.6645ZM140.425 46.6783C140.425 46.5216 140.397 46.3848 140.342 46.268C140.29 46.1481 140.202 46.0513 140.079 45.9775C139.95 45.9007 139.803 45.8546 139.637 45.8392C139.474 45.8239 139.239 45.8162 138.931 45.8162H138.364V47.5682H138.913C139.22 47.5682 139.458 47.5559 139.627 47.5313C139.796 47.5036 139.942 47.4529 140.065 47.3791C140.191 47.2992 140.282 47.2055 140.337 47.0979C140.396 46.9873 140.425 46.8474 140.425 46.6783ZM142.786 48.2598H141.919V43.1098H142.786V48.2598ZM146.28 48.3796C145.46 48.3796 144.822 48.1491 144.367 47.6881C143.915 47.2239 143.689 46.5662 143.689 45.7147C143.689 44.8756 143.909 44.2086 144.349 43.7138C144.788 43.2158 145.363 42.9668 146.073 42.9668C146.393 42.9668 146.675 43.0129 146.921 43.1052C147.167 43.1974 147.382 43.3418 147.567 43.5386C147.751 43.7353 147.893 43.9766 147.991 44.2624C148.089 44.5452 148.139 44.8925 148.139 45.3044V45.7747H144.57C144.57 46.374 144.721 46.832 145.022 47.1486C145.323 47.4652 145.739 47.6235 146.271 47.6235C146.462 47.6235 146.648 47.602 146.829 47.559C147.014 47.5159 147.18 47.4606 147.327 47.393C147.484 47.3223 147.616 47.2547 147.724 47.1901C147.831 47.1225 147.92 47.0595 147.991 47.0011H148.042V47.9462C147.94 47.9862 147.814 48.0369 147.664 48.0984C147.513 48.1568 147.378 48.2029 147.258 48.2367C147.089 48.2828 146.935 48.3182 146.797 48.3428C146.662 48.3673 146.489 48.3796 146.28 48.3796ZM147.295 45.1108C147.289 44.8772 147.261 44.6758 147.212 44.5068C147.163 44.3377 147.092 44.1948 147 44.078C146.898 43.9489 146.768 43.8505 146.608 43.7829C146.451 43.7153 146.256 43.6815 146.022 43.6815C145.792 43.6815 145.595 43.7168 145.432 43.7875C145.272 43.8551 145.126 43.955 144.994 44.0872C144.865 44.2225 144.767 44.3731 144.699 44.539C144.631 44.7019 144.588 44.8925 144.57 45.1108H147.295Z" fill="#8C99B2"/>
<path d="M93.1024 81.4102H91.9406L89.5154 78.2658H88.9391V81.4102H88.0262V74.545H88.9391V77.6387C89.2987 77.6264 89.583 77.5357 89.792 77.3667C90.0041 77.1976 90.1763 76.9548 90.3084 76.6382C90.3638 76.4999 90.4129 76.3693 90.456 76.2463C90.5021 76.1203 90.539 76.0143 90.5666 75.9282C90.751 75.4026 90.9862 75.0414 91.272 74.8447C91.5579 74.6449 91.9544 74.545 92.4616 74.545H92.7428V75.3611H92.5123C92.1373 75.3611 91.8745 75.4349 91.7239 75.5824C91.5733 75.7269 91.4349 76.002 91.3089 76.4077C91.1829 76.8134 91.0415 77.1116 90.8847 77.3021C90.728 77.4896 90.539 77.6556 90.3176 77.8001L93.1024 81.4102ZM97.9666 78.6991C97.9666 79.5567 97.7606 80.2406 97.3488 80.7508C96.9399 81.258 96.422 81.5116 95.795 81.5116C95.5399 81.5116 95.314 81.4824 95.1172 81.424C94.9205 81.3656 94.7192 81.2749 94.5133 81.152V83.3097H93.6465V76.2602H94.5133V76.7996C94.7284 76.606 94.9666 76.4446 95.2279 76.3155C95.4922 76.1833 95.7796 76.1172 96.0901 76.1172C96.6802 76.1172 97.1397 76.3508 97.4686 76.818C97.8006 77.2852 97.9666 77.9123 97.9666 78.6991ZM97.0721 78.796C97.0721 78.2089 96.9784 77.754 96.7909 77.4312C96.6034 77.1054 96.2991 76.9425 95.878 76.9425C95.6321 76.9425 95.3939 76.9978 95.1633 77.1085C94.9359 77.2161 94.7192 77.3559 94.5133 77.5281V80.4465C94.7407 80.5572 94.9344 80.6325 95.0942 80.6725C95.2571 80.7124 95.4431 80.7324 95.6521 80.7324C96.1008 80.7324 96.4497 80.568 96.6987 80.2391C96.9476 79.9102 97.0721 79.4292 97.0721 78.796ZM102.932 81.4102H102.075V77.5696L99.6494 81.4102H98.8656V76.2602H99.7232V80.0408L102.121 76.2602H102.932V81.4102ZM107.948 77.0209H106.196V81.4102H105.33V77.0209H103.578V76.2602H107.948V77.0209ZM112.66 81.4102H111.803V77.5696L109.378 81.4102H108.594V76.2602H109.451V80.0408L111.849 76.2602H112.66V81.4102ZM117.787 81.4102H116.921V79.4C116.65 79.4891 116.387 79.5582 116.132 79.6074C115.877 79.6566 115.625 79.6812 115.376 79.6812C115.158 79.6812 114.944 79.6535 114.735 79.5982C114.529 79.5398 114.351 79.4461 114.2 79.317C114.05 79.1879 113.933 79.0234 113.85 78.8236C113.77 78.6208 113.73 78.3826 113.73 78.109V76.2602H114.597V77.6572C114.597 77.8846 114.606 78.066 114.625 78.2012C114.643 78.3334 114.694 78.4625 114.777 78.5885C114.847 78.6961 114.953 78.7791 115.095 78.8375C115.239 78.8959 115.428 78.9251 115.662 78.9251C115.865 78.9251 116.081 78.9051 116.312 78.8651C116.546 78.8252 116.748 78.7775 116.921 78.7222V76.2602H117.787V81.4102ZM123.108 81.4102H122.241V79.091H119.908V81.4102H119.041V76.2602H119.908V78.3441H122.241V76.2602H123.108V81.4102ZM128.184 79.8149C128.184 80.0639 128.133 80.2898 128.032 80.4927C127.934 80.6955 127.798 80.86 127.626 80.986C127.423 81.1397 127.207 81.2488 126.976 81.3133C126.746 81.3779 126.449 81.4102 126.086 81.4102H124.362V76.2602H125.229V78.2658H126.109C126.497 78.2658 126.796 78.2857 127.008 78.3257C127.224 78.3656 127.437 78.464 127.649 78.6208C127.828 78.7529 127.961 78.922 128.05 79.1279C128.14 79.3339 128.184 79.5629 128.184 79.8149ZM127.29 79.8287C127.29 79.672 127.262 79.5352 127.207 79.4184C127.154 79.2985 127.067 79.2017 126.944 79.1279C126.815 79.0511 126.667 79.005 126.501 78.9896C126.338 78.9742 126.103 78.9666 125.796 78.9666H125.229V80.7186H125.777C126.085 80.7186 126.323 80.7063 126.492 80.6817C126.661 80.654 126.807 80.6033 126.93 80.5295C127.056 80.4496 127.147 80.3559 127.202 80.2483C127.261 80.1376 127.29 79.9978 127.29 79.8287ZM129.65 81.4102H128.784V76.2602H129.65V81.4102ZM133.145 81.53C132.324 81.53 131.687 81.2995 131.232 80.8384C130.78 80.3743 130.554 79.7165 130.554 78.8651C130.554 78.026 130.774 77.359 131.213 76.8641C131.653 76.3662 132.228 76.1172 132.938 76.1172C133.257 76.1172 133.54 76.1633 133.786 76.2555C134.032 76.3478 134.247 76.4922 134.431 76.6889C134.616 76.8857 134.757 77.1269 134.856 77.4128C134.954 77.6956 135.003 78.0429 135.003 78.4548V78.9251H131.435C131.435 79.5244 131.585 79.9824 131.886 80.299C132.188 80.6156 132.604 80.7739 133.136 80.7739C133.327 80.7739 133.512 80.7524 133.694 80.7094C133.878 80.6663 134.044 80.611 134.192 80.5434C134.349 80.4727 134.481 80.4051 134.588 80.3405C134.696 80.2729 134.785 80.2099 134.856 80.1515H134.906V81.0966C134.805 81.1366 134.679 81.1873 134.528 81.2488C134.378 81.3072 134.242 81.3533 134.123 81.3871C133.954 81.4332 133.8 81.4686 133.662 81.4931C133.526 81.5177 133.354 81.53 133.145 81.53ZM134.159 78.2611C134.153 78.0275 134.126 77.8262 134.076 77.6572C134.027 77.4881 133.957 77.3452 133.864 77.2284C133.763 77.0993 133.632 77.0009 133.473 76.9333C133.316 76.8657 133.121 76.8319 132.887 76.8319C132.656 76.8319 132.46 76.8672 132.297 76.9379C132.137 77.0055 131.991 77.1054 131.859 77.2376C131.73 77.3728 131.631 77.5235 131.564 77.6894C131.496 77.8523 131.453 78.0429 131.435 78.2611H134.159Z" fill="#8C99B2"/>
<path d="M93.4671 91.8132C93.4671 93.4449 93.2291 94.6432 92.753 95.4082C92.281 96.1691 91.5506 96.5496 90.5619 96.5496C89.5609 96.5496 88.8264 96.161 88.3585 95.3838C87.8906 94.6066 87.6566 93.4205 87.6566 91.8254C87.6566 90.1856 87.8926 88.9873 88.3646 88.2305C88.8407 87.4696 89.5731 87.0891 90.5619 87.0891C91.5628 87.0891 92.2973 87.4818 92.7652 88.2671C93.2332 89.0524 93.4671 90.2345 93.4671 91.8132ZM91.9046 94.5842C92.0226 94.2831 92.1061 93.9027 92.1549 93.4429C92.2037 92.9831 92.2281 92.4399 92.2281 91.8132C92.2281 91.1907 92.2037 90.6495 92.1549 90.1897C92.1061 89.7299 92.0206 89.3474 91.8985 89.0422C91.7765 88.733 91.6076 88.499 91.3919 88.3403C91.1804 88.1776 90.9037 88.0962 90.5619 88.0962C90.2241 88.0962 89.9454 88.1776 89.7257 88.3403C89.51 88.499 89.3391 88.7371 89.213 89.0544C89.0909 89.3637 89.0075 89.7543 88.9627 90.2263C88.918 90.6983 88.8956 91.2314 88.8956 91.8254C88.8956 92.4602 88.9139 92.9912 88.9505 93.4185C88.9912 93.8457 89.0767 94.2282 89.2069 94.5659C89.3249 94.8792 89.4917 95.1213 89.7074 95.2922C89.9271 95.4591 90.2119 95.5425 90.5619 95.5425C90.8996 95.5425 91.1763 95.4631 91.3919 95.3044C91.6117 95.1417 91.7826 94.9016 91.9046 94.5842Z" fill="#8C99B2"/>
<path d="M93.4671 57.8933C93.4671 59.525 93.2291 60.7233 92.753 61.4883C92.281 62.2492 91.5506 62.6296 90.5619 62.6296C89.5609 62.6296 88.8264 62.241 88.3585 61.4639C87.8906 60.6867 87.6566 59.5006 87.6566 57.9055C87.6566 56.2657 87.8926 55.0674 88.3646 54.3105C88.8407 53.5496 89.5731 53.1692 90.5619 53.1692C91.5628 53.1692 92.2973 53.5618 92.7652 54.3472C93.2332 55.1325 93.4671 56.3145 93.4671 57.8933ZM91.9046 60.6643C92.0226 60.3632 92.1061 59.9827 92.1549 59.5229C92.2037 59.0632 92.2281 58.5199 92.2281 57.8933C92.2281 57.2708 92.2037 56.7296 92.1549 56.2698C92.1061 55.81 92.0206 55.4275 91.8985 55.1223C91.7765 54.8131 91.6076 54.5791 91.3919 54.4204C91.1804 54.2576 90.9037 54.1763 90.5619 54.1763C90.2241 54.1763 89.9454 54.2576 89.7257 54.4204C89.51 54.5791 89.3391 54.8171 89.213 55.1345C89.0909 55.4438 89.0075 55.8344 88.9627 56.3064C88.918 56.7784 88.8956 57.3114 88.8956 57.9055C88.8956 58.5403 88.9139 59.0713 88.9505 59.4985C88.9912 59.9258 89.0767 60.3083 89.2069 60.646C89.3249 60.9593 89.4917 61.2014 89.7074 61.3723C89.9271 61.5391 90.2119 61.6226 90.5619 61.6226C90.8996 61.6226 91.1763 61.5432 91.3919 61.3845C91.6117 61.2218 91.7826 60.9817 91.9046 60.6643Z" fill="#8C99B2"/>
<path d="M181.36 16.4336H180.494V14.8614H176.04V16.4336H175.173V14.0684H175.546C175.946 13.4137 176.267 12.5562 176.51 11.4957C176.756 10.4322 176.879 9.2719 176.879 8.01476H180.71V14.0684H181.36V16.4336ZM179.797 14.0684V8.80777H177.736C177.693 9.91738 177.555 10.924 177.322 11.8277C177.088 12.7314 176.79 13.4783 176.427 14.0684H179.797ZM186.238 14.8799H185.381V11.0393L182.956 14.8799H182.172V9.72989H183.029V13.5105L185.427 9.72989H186.238V14.8799ZM191.559 14.8799H190.692V12.5608H188.359V14.8799H187.492V9.72989H188.359V11.8139H190.692V9.72989H191.559V14.8799ZM195.69 13.612V12.1827C195.484 12.2011 195.223 12.2273 194.906 12.2611C194.593 12.2918 194.339 12.3364 194.145 12.3948C193.915 12.4655 193.724 12.5746 193.574 12.7221C193.423 12.8666 193.348 13.0695 193.348 13.3307C193.348 13.6258 193.431 13.8487 193.597 13.9993C193.763 14.1499 194.006 14.2252 194.325 14.2252C194.599 14.2252 194.846 14.1668 195.068 14.05C195.289 13.9301 195.496 13.7841 195.69 13.612ZM195.69 14.3312C195.619 14.3835 195.524 14.4572 195.404 14.5525C195.287 14.6447 195.174 14.7185 195.063 14.7738C194.909 14.8538 194.76 14.9152 194.616 14.9583C194.474 15.0013 194.275 15.0228 194.016 15.0228C193.804 15.0228 193.603 14.9829 193.412 14.9029C193.222 14.823 193.054 14.7108 192.91 14.5664C192.772 14.425 192.661 14.2513 192.578 14.0454C192.495 13.8364 192.453 13.6166 192.453 13.3861C192.453 13.0295 192.529 12.7268 192.679 12.4778C192.83 12.2257 193.068 12.0259 193.394 11.8784C193.683 11.7462 194.024 11.6556 194.417 11.6064C194.811 11.5541 195.235 11.5157 195.69 11.4911V11.3251C195.69 11.1223 195.659 10.9594 195.598 10.8364C195.536 10.7104 195.45 10.6136 195.34 10.546C195.229 10.4753 195.094 10.4292 194.934 10.4076C194.774 10.383 194.61 10.3708 194.441 10.3708C194.241 10.3708 194.006 10.4015 193.735 10.463C193.465 10.5214 193.194 10.6074 192.924 10.7212H192.873V9.84054C193.033 9.79443 193.262 9.74372 193.56 9.68839C193.858 9.63306 194.153 9.6054 194.445 9.6054C194.799 9.6054 195.097 9.63306 195.34 9.68839C195.582 9.74372 195.801 9.84361 195.994 9.98808C196.182 10.1295 196.322 10.3124 196.414 10.5367C196.506 10.7611 196.552 11.0347 196.552 11.3574V14.8799H195.69V14.3312ZM202.551 14.8799H201.693V10.8318L200.457 13.4598H199.812L198.585 10.8318V14.8799H197.774V9.72989H198.821L200.176 12.5884L201.485 9.72989H202.551V14.8799ZM207.871 14.8799H207.014V11.0393L204.588 14.8799H203.805V9.72989H204.662V13.5105L207.06 9.72989H207.871V14.8799ZM212.998 14.8799H212.131V12.8697C211.861 12.9588 211.598 13.028 211.343 13.0772C211.088 13.1263 210.836 13.1509 210.587 13.1509C210.368 13.1509 210.155 13.1233 209.946 13.0679C209.74 13.0095 209.562 12.9158 209.411 12.7867C209.26 12.6576 209.144 12.4931 209.061 12.2934C208.981 12.0905 208.941 11.8523 208.941 11.5787V9.72989H209.808V11.1269C209.808 11.3543 209.817 11.5357 209.835 11.6709C209.854 11.8031 209.904 11.9322 209.987 12.0582C210.058 12.1658 210.164 12.2488 210.305 12.3072C210.45 12.3656 210.639 12.3948 210.873 12.3948C211.075 12.3948 211.292 12.3748 211.523 12.3349C211.756 12.2949 211.959 12.2473 212.131 12.1919V9.72989H212.998V14.8799ZM216.488 14.9998C215.668 14.9998 215.03 14.7692 214.575 14.3082C214.123 13.844 213.897 13.1863 213.897 12.3349C213.897 11.4957 214.117 10.8287 214.556 10.3339C214.996 9.83593 215.571 9.58696 216.281 9.58696C216.6 9.58696 216.883 9.63306 217.129 9.72527C217.375 9.81749 217.59 9.96195 217.775 10.1587C217.959 10.3554 218.1 10.5967 218.199 10.8825C218.297 11.1653 218.346 11.5126 218.346 11.9245V12.3948H214.778C214.778 12.9942 214.928 13.4521 215.23 13.7687C215.531 14.0853 215.947 14.2436 216.479 14.2436C216.67 14.2436 216.856 14.2221 217.037 14.1791C217.221 14.136 217.387 14.0807 217.535 14.0131C217.692 13.9424 217.824 13.8748 217.931 13.8102C218.039 13.7426 218.128 13.6796 218.199 13.6212H218.249V14.5664C218.148 14.6063 218.022 14.657 217.871 14.7185C217.721 14.7769 217.586 14.823 217.466 14.8568C217.297 14.9029 217.143 14.9383 217.005 14.9629C216.869 14.9875 216.697 14.9998 216.488 14.9998ZM217.503 11.7309C217.496 11.4973 217.469 11.2959 217.42 11.1269C217.37 10.9578 217.3 10.8149 217.207 10.6981C217.106 10.569 216.975 10.4706 216.816 10.403C216.659 10.3354 216.464 10.3016 216.23 10.3016C216 10.3016 215.803 10.3369 215.64 10.4076C215.48 10.4753 215.334 10.5752 215.202 10.7073C215.073 10.8426 214.974 10.9932 214.907 11.1592C214.839 11.3221 214.796 11.5126 214.778 11.7309H217.503ZM221.269 14.9951C220.916 14.9951 220.592 14.9414 220.297 14.8338C220.001 14.7231 219.748 14.5571 219.536 14.3358C219.324 14.1145 219.159 13.8364 219.042 13.5013C218.926 13.1632 218.867 12.7667 218.867 12.3118C218.867 11.86 218.927 11.4696 219.047 11.1407C219.17 10.8118 219.333 10.5352 219.536 10.3108C219.739 10.0864 219.991 9.91431 220.292 9.79443C220.596 9.67148 220.922 9.61001 221.269 9.61001C221.552 9.61001 221.824 9.64997 222.085 9.72989C222.35 9.8098 222.585 9.90201 222.791 10.0065V10.9793H222.74C222.679 10.9271 222.599 10.8672 222.5 10.7995C222.405 10.7319 222.288 10.6628 222.15 10.5921C222.03 10.5306 221.889 10.4768 221.726 10.4307C221.563 10.3846 221.406 10.3615 221.256 10.3615C220.807 10.3615 220.446 10.5321 220.172 10.8733C219.902 11.2114 219.766 11.6909 219.766 12.3118C219.766 12.9204 219.897 13.3953 220.158 13.7365C220.423 14.0746 220.788 14.2436 221.256 14.2436C221.538 14.2436 221.807 14.1852 222.062 14.0684C222.318 13.9516 222.543 13.801 222.74 13.6166H222.791V14.5894C222.705 14.6294 222.597 14.6786 222.468 14.737C222.339 14.7923 222.222 14.8338 222.118 14.8614C221.97 14.9045 221.838 14.9367 221.721 14.9583C221.604 14.9829 221.454 14.9951 221.269 14.9951ZM227.729 14.8799H226.65L224.884 12.5054H224.451V14.8799H223.584V9.72989H224.451V11.9706C224.675 11.9675 224.866 11.9214 225.022 11.8323C225.182 11.7401 225.317 11.5634 225.428 11.3021C225.462 11.2252 225.499 11.1361 225.539 11.0347C225.582 10.9332 225.616 10.8441 225.64 10.7673C225.775 10.3892 225.963 10.1218 226.203 9.96502C226.442 9.80826 226.754 9.72989 227.139 9.72989H227.374V10.4768H227.176C226.933 10.4768 226.75 10.5275 226.627 10.6289C226.507 10.7273 226.406 10.9087 226.323 11.173C226.236 11.4404 226.135 11.6494 226.018 11.8C225.901 11.9476 225.772 12.0613 225.631 12.1412L227.729 14.8799ZM232.524 12.3072C232.524 13.174 232.315 13.844 231.897 14.3174C231.479 14.7877 230.922 15.0228 230.228 15.0228C229.512 15.0228 228.948 14.78 228.536 14.2943C228.127 13.8056 227.922 13.1432 227.922 12.3072C227.922 11.4466 228.133 10.778 228.554 10.3016C228.978 9.82517 229.536 9.58696 230.228 9.58696C230.922 9.58696 231.479 9.82517 231.897 10.3016C232.315 10.7749 232.524 11.4435 232.524 12.3072ZM231.629 12.3072C231.629 11.6402 231.508 11.1453 231.265 10.8226C231.022 10.4968 230.676 10.3339 230.228 10.3339C229.776 10.3339 229.427 10.4968 229.181 10.8226C228.938 11.1453 228.817 11.6402 228.817 12.3072C228.817 12.9527 228.938 13.4429 229.181 13.778C229.427 14.1099 229.776 14.2759 230.228 14.2759C230.673 14.2759 231.018 14.113 231.26 13.7872C231.506 13.4583 231.629 12.965 231.629 12.3072ZM235.65 14.9998C234.829 14.9998 234.191 14.7692 233.736 14.3082C233.285 13.844 233.059 13.1863 233.059 12.3349C233.059 11.4957 233.278 10.8287 233.718 10.3339C234.157 9.83593 234.732 9.58696 235.442 9.58696C235.762 9.58696 236.045 9.63306 236.291 9.72527C236.536 9.81749 236.752 9.96195 236.936 10.1587C237.12 10.3554 237.262 10.5967 237.36 10.8825C237.459 11.1653 237.508 11.5126 237.508 11.9245V12.3948H233.939C233.939 12.9942 234.09 13.4521 234.391 13.7687C234.692 14.0853 235.109 14.2436 235.641 14.2436C235.831 14.2436 236.017 14.2221 236.198 14.1791C236.383 14.136 236.549 14.0807 236.696 14.0131C236.853 13.9424 236.985 13.8748 237.093 13.8102C237.2 13.7426 237.29 13.6796 237.36 13.6212H237.411V14.5664C237.31 14.6063 237.184 14.657 237.033 14.7185C236.882 14.7769 236.747 14.823 236.627 14.8568C236.458 14.9029 236.304 14.9383 236.166 14.9629C236.031 14.9875 235.859 14.9998 235.65 14.9998ZM236.664 11.7309C236.658 11.4973 236.63 11.2959 236.581 11.1269C236.532 10.9578 236.461 10.8149 236.369 10.6981C236.268 10.569 236.137 10.4706 235.977 10.403C235.82 10.3354 235.625 10.3016 235.392 10.3016C235.161 10.3016 234.964 10.3369 234.801 10.4076C234.642 10.4753 234.496 10.5752 234.363 10.7073C234.234 10.8426 234.136 10.9932 234.068 11.1592C234.001 11.3221 233.958 11.5126 233.939 11.7309H236.664ZM245.572 12.3072C245.572 13.174 245.363 13.844 244.945 14.3174C244.527 14.7877 243.97 15.0228 243.276 15.0228C242.559 15.0228 241.995 14.78 241.584 14.2943C241.175 13.8056 240.97 13.1432 240.97 12.3072C240.97 11.4466 241.181 10.778 241.602 10.3016C242.026 9.82517 242.584 9.58696 243.276 9.58696C243.97 9.58696 244.527 9.82517 244.945 10.3016C245.363 10.7749 245.572 11.4435 245.572 12.3072ZM244.677 12.3072C244.677 11.6402 244.556 11.1453 244.313 10.8226C244.07 10.4968 243.724 10.3339 243.276 10.3339C242.824 10.3339 242.475 10.4968 242.229 10.8226C241.986 11.1453 241.865 11.6402 241.865 12.3072C241.865 12.9527 241.986 13.4429 242.229 13.778C242.475 14.1099 242.824 14.2759 243.276 14.2759C243.721 14.2759 244.066 14.113 244.308 13.7872C244.554 13.4583 244.677 12.965 244.677 12.3072ZM250.113 10.4906C250.313 10.6935 250.468 10.9517 250.579 11.2652C250.689 11.5756 250.745 11.9368 250.745 12.3487C250.745 12.7452 250.682 13.1125 250.556 13.4506C250.43 13.7856 250.259 14.0684 250.044 14.299C249.823 14.5387 249.577 14.7201 249.306 14.843C249.039 14.9629 248.747 15.0228 248.43 15.0228C248.107 15.0228 247.811 14.9675 247.54 14.8568C247.273 14.7431 247.044 14.5694 246.853 14.3358C246.617 14.0438 246.438 13.6781 246.319 13.2385C246.202 12.799 246.143 12.2549 246.143 11.6064C246.143 11.3759 246.153 11.1423 246.171 10.9056C246.193 10.6658 246.237 10.38 246.305 10.048C246.366 9.75294 246.449 9.47938 246.554 9.22733C246.658 8.97222 246.795 8.75706 246.964 8.58186C247.182 8.3544 247.467 8.17305 247.817 8.03781C248.17 7.90257 248.638 7.80882 249.219 7.75656C249.425 7.73812 249.644 7.72122 249.878 7.70585C250.115 7.68741 250.294 7.67357 250.417 7.66435V8.46198C250.258 8.4712 250.087 8.4835 249.906 8.49887C249.724 8.51116 249.517 8.52653 249.283 8.54497C248.973 8.56956 248.648 8.62489 248.31 8.71095C247.972 8.79394 247.717 8.92457 247.545 9.10285C247.416 9.23502 247.313 9.42405 247.236 9.66995C247.159 9.91584 247.105 10.1894 247.075 10.4906C247.302 10.3277 247.545 10.1909 247.803 10.0803C248.064 9.96656 248.346 9.9097 248.647 9.9097C248.927 9.9097 249.192 9.95734 249.445 10.0526C249.697 10.1448 249.919 10.2908 250.113 10.4906ZM249.864 12.3994C249.864 11.8523 249.741 11.4327 249.495 11.1407C249.249 10.8487 248.899 10.7027 248.444 10.7027C248.195 10.7027 247.954 10.7442 247.72 10.8272C247.487 10.9102 247.267 11.0208 247.061 11.1592C247.055 11.236 247.049 11.3282 247.042 11.4358C247.036 11.5403 247.033 11.6356 247.033 11.7216C247.033 12.2565 247.076 12.6914 247.162 13.0264C247.248 13.3615 247.368 13.6243 247.522 13.8148C247.66 13.987 247.806 14.1068 247.96 14.1745C248.114 14.239 248.281 14.2713 248.462 14.2713C248.905 14.2713 249.249 14.1038 249.495 13.7687C249.741 13.4337 249.864 12.9773 249.864 12.3994ZM255.89 12.3072C255.89 13.174 255.681 13.844 255.263 14.3174C254.845 14.7877 254.289 15.0228 253.594 15.0228C252.878 15.0228 252.314 14.78 251.902 14.2943C251.493 13.8056 251.289 13.1432 251.289 12.3072C251.289 11.4466 251.499 10.778 251.92 10.3016C252.345 9.82517 252.902 9.58696 253.594 9.58696C254.289 9.58696 254.845 9.82517 255.263 10.3016C255.681 10.7749 255.89 11.4435 255.89 12.3072ZM254.996 12.3072C254.996 11.6402 254.874 11.1453 254.631 10.8226C254.389 10.4968 254.043 10.3339 253.594 10.3339C253.142 10.3339 252.793 10.4968 252.547 10.8226C252.305 11.1453 252.183 11.6402 252.183 12.3072C252.183 12.9527 252.305 13.4429 252.547 13.778C252.793 14.1099 253.142 14.2759 253.594 14.2759C254.04 14.2759 254.384 14.113 254.627 13.7872C254.873 13.4583 254.996 12.965 254.996 12.3072ZM261.1 12.1689C261.1 13.0264 260.894 13.7103 260.482 14.2206C260.073 14.7277 259.555 14.9813 258.928 14.9813C258.673 14.9813 258.447 14.9521 258.251 14.8937C258.054 14.8353 257.853 14.7446 257.647 14.6217V16.7794H256.78V9.72989H257.647V10.2693C257.862 10.0757 258.1 9.91431 258.361 9.78521C258.626 9.65304 258.913 9.58696 259.224 9.58696C259.814 9.58696 260.273 9.82056 260.602 10.2878C260.934 10.755 261.1 11.382 261.1 12.1689ZM260.206 12.2657C260.206 11.6786 260.112 11.2237 259.924 10.901C259.737 10.5752 259.433 10.4122 259.011 10.4122C258.766 10.4122 258.527 10.4676 258.297 10.5782C258.069 10.6858 257.853 10.8257 257.647 10.9978V13.9163C257.874 14.0269 258.068 14.1022 258.228 14.1422C258.391 14.1822 258.577 14.2021 258.786 14.2021C259.234 14.2021 259.583 14.0377 259.832 13.7088C260.081 13.3799 260.206 12.8989 260.206 12.2657ZM266.047 9.72989L263.276 16.7794H262.349L263.272 14.6309L261.4 9.72989H262.336L263.742 13.5428L265.143 9.72989H266.047ZM271.119 16.1155H270.312V14.8661H266.919V16.1155H266.112V14.1422H266.453C266.745 13.6627 266.983 13.0372 267.168 12.2657C267.355 11.4911 267.449 10.6459 267.449 9.72989H270.607V14.1422H271.119V16.1155ZM269.74 14.1422V10.4584H268.265C268.225 11.2268 268.119 11.9291 267.947 12.5654C267.778 13.1986 267.564 13.7242 267.306 14.1422H269.74ZM276.213 12.3072C276.213 13.174 276.004 13.844 275.586 14.3174C275.168 14.7877 274.612 15.0228 273.917 15.0228C273.201 15.0228 272.637 14.78 272.225 14.2943C271.817 13.8056 271.612 13.1432 271.612 12.3072C271.612 11.4466 271.823 10.778 272.244 10.3016C272.668 9.82517 273.226 9.58696 273.917 9.58696C274.612 9.58696 275.168 9.82517 275.586 10.3016C276.004 10.7749 276.213 11.4435 276.213 12.3072ZM275.319 12.3072C275.319 11.6402 275.198 11.1453 274.955 10.8226C274.712 10.4968 274.366 10.3339 273.917 10.3339C273.466 10.3339 273.117 10.4968 272.871 10.8226C272.628 11.1453 272.507 11.6402 272.507 12.3072C272.507 12.9527 272.628 13.4429 272.871 13.778C273.117 14.1099 273.466 14.2759 273.917 14.2759C274.363 14.2759 274.707 14.113 274.95 13.7872C275.196 13.4583 275.319 12.965 275.319 12.3072ZM281.142 13.3215C281.142 13.5705 281.094 13.7918 280.999 13.9854C280.904 14.176 280.773 14.3358 280.607 14.4649C280.398 14.6278 280.179 14.7385 279.948 14.7969C279.721 14.8522 279.447 14.8799 279.127 14.8799H277.103V9.72989H278.994C279.372 9.72989 279.648 9.74218 279.824 9.76677C279.999 9.78829 280.172 9.84669 280.345 9.94197C280.526 10.0403 280.66 10.171 280.746 10.3339C280.832 10.4968 280.875 10.6904 280.875 10.9148C280.875 11.1607 280.807 11.382 280.672 11.5787C280.537 11.7724 280.357 11.923 280.132 12.0306L280.155 12.0628C280.435 12.1335 280.669 12.2765 280.856 12.4916C281.047 12.7068 281.142 12.9834 281.142 13.3215ZM279.985 11.0485C279.985 10.9317 279.965 10.8303 279.925 10.7442C279.888 10.6581 279.822 10.5905 279.727 10.5413C279.616 10.4829 279.492 10.4491 279.353 10.4399C279.218 10.4276 279.029 10.4215 278.786 10.4215H277.961V11.8323H278.957C279.169 11.8323 279.319 11.8231 279.409 11.8046C279.498 11.7831 279.596 11.7401 279.704 11.6755C279.805 11.6141 279.877 11.5311 279.92 11.4266C279.963 11.3221 279.985 11.196 279.985 11.0485ZM280.248 13.3261C280.248 13.1509 280.222 13.0111 280.169 12.9066C280.12 12.799 280.009 12.7037 279.837 12.6207C279.73 12.5685 279.615 12.5362 279.492 12.5239C279.369 12.5116 279.198 12.5054 278.98 12.5054H277.961V14.1883H278.712C279.023 14.1883 279.264 14.176 279.436 14.1514C279.608 14.1268 279.756 14.0776 279.879 14.0039C280.008 13.924 280.102 13.8317 280.16 13.7272C280.218 13.6227 280.248 13.489 280.248 13.3261ZM284.932 13.612V12.1827C284.726 12.2011 284.465 12.2273 284.148 12.2611C283.835 12.2918 283.581 12.3364 283.387 12.3948C283.157 12.4655 282.966 12.5746 282.816 12.7221C282.665 12.8666 282.59 13.0695 282.59 13.3307C282.59 13.6258 282.673 13.8487 282.839 13.9993C283.005 14.1499 283.248 14.2252 283.567 14.2252C283.841 14.2252 284.088 14.1668 284.31 14.05C284.531 13.9301 284.738 13.7841 284.932 13.612ZM284.932 14.3312C284.861 14.3835 284.766 14.4572 284.646 14.5525C284.529 14.6447 284.416 14.7185 284.305 14.7738C284.151 14.8538 284.002 14.9152 283.858 14.9583C283.716 15.0013 283.517 15.0228 283.258 15.0228C283.046 15.0228 282.845 14.9829 282.654 14.9029C282.464 14.823 282.296 14.7108 282.152 14.5664C282.014 14.425 281.903 14.2513 281.82 14.0454C281.737 13.8364 281.695 13.6166 281.695 13.3861C281.695 13.0295 281.771 12.7268 281.921 12.4778C282.072 12.2257 282.31 12.0259 282.636 11.8784C282.925 11.7462 283.266 11.6556 283.66 11.6064C284.053 11.5541 284.477 11.5157 284.932 11.4911V11.3251C284.932 11.1223 284.901 10.9594 284.84 10.8364C284.778 10.7104 284.692 10.6136 284.582 10.546C284.471 10.4753 284.336 10.4292 284.176 10.4076C284.016 10.383 283.852 10.3708 283.683 10.3708C283.483 10.3708 283.248 10.4015 282.977 10.463C282.707 10.5214 282.436 10.6074 282.166 10.7212H282.115V9.84054C282.275 9.79443 282.504 9.74372 282.802 9.68839C283.1 9.63306 283.395 9.6054 283.687 9.6054C284.041 9.6054 284.339 9.63306 284.582 9.68839C284.824 9.74372 285.043 9.84361 285.236 9.98808C285.424 10.1295 285.564 10.3124 285.656 10.5367C285.748 10.7611 285.794 11.0347 285.794 11.3574V14.8799H284.932V14.3312ZM291.083 14.8799H290.216V12.5608H287.883V14.8799H287.016V9.72989H287.883V11.8139H290.216V9.72989H291.083V14.8799ZM296.403 14.8799H295.546V11.0393L293.12 14.8799H292.337V9.72989H293.194V13.5105L295.592 9.72989H296.403V14.8799ZM299.893 14.9998C299.073 14.9998 298.435 14.7692 297.98 14.3082C297.528 13.844 297.302 13.1863 297.302 12.3349C297.302 11.4957 297.522 10.8287 297.961 10.3339C298.401 9.83593 298.976 9.58696 299.686 9.58696C300.005 9.58696 300.288 9.63306 300.534 9.72527C300.78 9.81749 300.995 9.96195 301.18 10.1587C301.364 10.3554 301.505 10.5967 301.604 10.8825C301.702 11.1653 301.751 11.5126 301.751 11.9245V12.3948H298.183C298.183 12.9942 298.333 13.4521 298.635 13.7687C298.936 14.0853 299.352 14.2436 299.884 14.2436C300.075 14.2436 300.261 14.2221 300.442 14.1791C300.626 14.136 300.792 14.0807 300.94 14.0131C301.097 13.9424 301.229 13.8748 301.336 13.8102C301.444 13.7426 301.533 13.6796 301.604 13.6212H301.655V14.5664C301.553 14.6063 301.427 14.657 301.276 14.7185C301.126 14.7769 300.991 14.823 300.871 14.8568C300.702 14.9029 300.548 14.9383 300.41 14.9629C300.274 14.9875 300.102 14.9998 299.893 14.9998ZM300.908 11.7309C300.901 11.4973 300.874 11.2959 300.825 11.1269C300.775 10.9578 300.705 10.8149 300.613 10.6981C300.511 10.569 300.38 10.4706 300.221 10.403C300.064 10.3354 299.869 10.3016 299.635 10.3016C299.405 10.3016 299.208 10.3369 299.045 10.4076C298.885 10.4753 298.739 10.5752 298.607 10.7073C298.478 10.8426 298.379 10.9932 298.312 11.1592C298.244 11.3221 298.201 11.5126 298.183 11.7309H300.908Z" fill="#8C99B2"/>
<path d="M209.36 39.5996C204.086 39.5952 198.879 40.7895 194.134 43.0922C189.389 45.3948 185.229 48.7457 181.968 52.8917C178.708 57.0377 176.432 61.8704 175.313 67.0248C174.195 72.1791 174.261 77.5203 175.509 82.645C176.757 87.7697 179.153 92.5438 182.517 96.6068C185.88 100.67 190.122 103.915 194.924 106.098C199.725 108.281 204.96 109.345 210.233 109.208C215.505 109.071 220.678 107.738 225.36 105.31C225.36 105.31 224.61 105.03 224.36 104.94C216.809 108.66 208.148 109.452 200.047 107.162C191.947 104.873 184.982 99.6632 180.496 92.5399C176.011 85.4166 174.323 76.8843 175.758 68.5897C177.194 60.2952 181.651 52.8263 188.27 47.6248C194.888 42.4233 203.199 39.8577 211.598 40.4234C219.996 40.989 227.888 44.6458 233.749 50.6878C239.611 56.7298 243.026 64.7288 243.336 73.141C243.647 81.5531 240.83 89.7821 235.43 96.2396C235.5 96.6496 235.59 97.2396 235.59 97.2396C241.121 90.9048 244.165 82.7789 244.16 74.3696C244.161 71.8709 243.889 69.3795 243.35 66.9396C243.35 66.9396 244.53 65.4596 245.53 64.1796C242.934 54.843 236.848 46.8622 228.53 41.8896L225 43.3196C220.15 40.871 214.793 39.5967 209.36 39.5996Z" fill="#F7931E"/>
<path d="M209.23 103.71C225.506 103.71 238.7 90.5293 238.7 74.2701C238.7 58.0108 225.506 44.8301 209.23 44.8301C192.954 44.8301 179.76 58.0108 179.76 74.2701C179.76 90.5293 192.954 103.71 209.23 103.71Z" stroke="#8C99B2" stroke-miterlimit="10"/>
<path d="M209.23 74.2305V44.2305C215.804 44.2309 222.197 46.391 227.424 50.3786C232.651 54.3662 236.424 59.9605 238.161 66.3012C239.899 72.6419 239.506 79.3778 237.042 85.4732C234.578 91.5686 230.18 96.6858 224.524 100.038C218.869 103.39 212.268 104.792 205.738 104.027C199.209 103.262 193.111 100.373 188.383 95.8052C183.655 91.237 180.558 85.242 179.569 78.7423C178.581 72.2426 179.754 65.5981 182.91 59.8305L209.23 74.2305Z" fill="#F7931E"/>
<path d="M209.35 102.91C224.958 102.91 237.61 90.1363 237.61 74.3796C237.61 58.6229 224.958 45.8496 209.35 45.8496C193.742 45.8496 181.09 58.6229 181.09 74.3796C181.09 90.1363 193.742 102.91 209.35 102.91Z" fill="#F5F8FD"/>
<path d="M214.128 74.7066C214.128 75.3816 214.019 76.0066 213.8 76.5816C213.587 77.1566 213.287 77.6535 212.9 78.0723C212.506 78.4973 212.016 78.8316 211.428 79.0754C210.847 79.3191 210.194 79.441 209.469 79.441C208.8 79.441 208.141 79.366 207.491 79.216C206.847 79.0723 206.287 78.8816 205.812 78.6441V76.666H205.944C206.087 76.7723 206.294 76.8941 206.562 77.0316C206.831 77.1629 207.128 77.2879 207.453 77.4066C207.822 77.5379 208.159 77.641 208.466 77.716C208.772 77.7848 209.116 77.8191 209.497 77.8191C209.872 77.8191 210.237 77.7535 210.594 77.6223C210.95 77.4848 211.256 77.266 211.512 76.966C211.744 76.691 211.919 76.3691 212.037 76.0004C212.162 75.6316 212.225 75.1973 212.225 74.6973C212.225 74.2035 212.156 73.7973 212.019 73.4785C211.887 73.1598 211.694 72.8973 211.437 72.691C211.169 72.4535 210.837 72.2879 210.444 72.1941C210.056 72.0941 209.622 72.0441 209.141 72.0441C208.634 72.0441 208.125 72.0848 207.612 72.166C207.1 72.241 206.691 72.3129 206.384 72.3816V65.191H214.044V66.8316H208.194V70.5441C208.419 70.5191 208.641 70.5004 208.859 70.4879C209.078 70.4754 209.278 70.4691 209.459 70.4691C210.172 70.4691 210.775 70.5285 211.269 70.6473C211.762 70.766 212.237 70.9973 212.694 71.341C213.156 71.691 213.509 72.1285 213.753 72.6535C214.003 73.1785 214.128 73.8629 214.128 74.7066Z" fill="#303549"/>
<path d="M176 20.8301V24.3201L178 26.4101H200.79L214.51 40.1301" stroke="#8C99B2" stroke-width="1.07" stroke-miterlimit="10"/>
<path d="M214.47 41.0704C214.284 41.0704 214.102 41.0153 213.948 40.912C213.793 40.8087 213.673 40.6619 213.602 40.4902C213.53 40.3184 213.512 40.1294 213.548 39.947C213.584 39.7647 213.674 39.5972 213.805 39.4658C213.937 39.3343 214.104 39.2448 214.287 39.2085C214.469 39.1722 214.658 39.1908 214.83 39.262C215.001 39.3331 215.148 39.4536 215.252 39.6082C215.355 39.7628 215.41 39.9445 215.41 40.1304C215.407 40.3789 215.308 40.6165 215.132 40.7922C214.956 40.968 214.718 41.0678 214.47 41.0704Z" fill="#F5F8FD"/>
<path d="M214.47 39.7204C214.529 39.7112 214.588 39.7148 214.645 39.7309C214.702 39.747 214.755 39.7753 214.8 39.8138C214.845 39.8522 214.881 39.9 214.906 39.9538C214.931 40.0076 214.944 40.0662 214.944 40.1254C214.944 40.1847 214.931 40.2432 214.906 40.297C214.881 40.3508 214.845 40.3986 214.8 40.4371C214.755 40.4756 214.702 40.5039 214.645 40.52C214.588 40.5361 214.529 40.5396 214.47 40.5304C214.374 40.5152 214.286 40.4661 214.222 40.3918C214.159 40.3176 214.124 40.2231 214.124 40.1254C214.124 40.0277 214.159 39.9333 214.222 39.859C214.286 39.7848 214.374 39.7356 214.47 39.7204ZM214.47 38.6504C214.18 38.6602 213.899 38.7553 213.662 38.9238C213.425 39.0923 213.243 39.3267 213.139 39.5978C213.034 39.869 213.012 40.1649 213.075 40.4486C213.137 40.7323 213.282 40.9913 213.491 41.1933C213.7 41.3953 213.964 41.5314 214.249 41.5846C214.535 41.6378 214.83 41.6057 215.097 41.4923C215.365 41.379 215.593 41.1894 215.754 40.9472C215.914 40.7051 216 40.421 216 40.1304C216.001 39.9357 215.964 39.7426 215.89 39.5625C215.816 39.3823 215.707 39.2186 215.569 39.0809C215.432 38.9432 215.268 38.8343 215.088 38.7604C214.908 38.6865 214.715 38.6491 214.52 38.6504H214.47Z" fill="#8C99B2"/>
<path d="M214.47 40.4397C214.396 40.4265 214.329 40.3877 214.281 40.3301C214.233 40.2725 214.206 40.1998 214.206 40.1247C214.206 40.0496 214.233 39.9769 214.281 39.9193C214.329 39.8617 214.396 39.8229 214.47 39.8097C214.516 39.8014 214.563 39.8034 214.609 39.8154C214.654 39.8275 214.696 39.8493 214.732 39.8793C214.768 39.9093 214.796 39.9469 214.816 39.9893C214.836 40.0317 214.846 40.0779 214.846 40.1247C214.846 40.1715 214.836 40.2177 214.816 40.2601C214.796 40.3025 214.768 40.34 214.732 40.3701C214.696 40.4001 214.654 40.4219 214.609 40.4339C214.563 40.446 214.516 40.4479 214.47 40.4397Z" fill="#8C99B2"/>
<path d="M214.47 39.2803C214.302 39.2803 214.138 39.3301 213.998 39.4235C213.858 39.5169 213.749 39.6497 213.685 39.805C213.62 39.9603 213.604 40.1312 213.636 40.2961C213.669 40.461 213.75 40.6124 213.869 40.7313C213.988 40.8502 214.139 40.9311 214.304 40.9639C214.469 40.9967 214.64 40.9799 214.795 40.9156C214.951 40.8512 215.083 40.7423 215.177 40.6025C215.27 40.4627 215.32 40.2984 215.32 40.1303C215.32 39.9048 215.23 39.6886 215.071 39.5292C214.912 39.3698 214.695 39.2803 214.47 39.2803Z" fill="#F5F8FD"/>
<path d="M176 19.7197C175.804 19.72 175.613 19.7776 175.45 19.8854C175.287 19.9932 175.159 20.1466 175.082 20.3264C175.005 20.5062 174.982 20.7047 175.017 20.8972C175.052 21.0897 175.142 21.2677 175.277 21.4094C175.412 21.551 175.585 21.65 175.776 21.694C175.967 21.7381 176.166 21.7253 176.349 21.6572C176.533 21.5891 176.692 21.4688 176.808 21.311C176.923 21.1533 176.99 20.9651 177 20.7697C177.007 20.6343 176.986 20.4988 176.939 20.3717C176.892 20.2445 176.819 20.1283 176.725 20.0301C176.632 19.9319 176.519 19.8537 176.395 19.8003C176.27 19.747 176.136 19.7196 176 19.7197Z" fill="#8C99B2"/>
<path d="M209.5 42.54H208.6V50.1H209.5V42.54Z" fill="#F5F8FD"/>
<path d="M188.53 63.5656L188.98 62.7861L182.433 59.0061L181.983 59.7855L188.53 63.5656Z" fill="#F5F8FD"/>
<path d="M258.46 49.0801H257.547V45.719H254.389V49.0801H253.476V42.215H254.389V44.9075H257.547V42.215H258.46V49.0801ZM262.024 49.2C261.203 49.2 260.566 48.9694 260.111 48.5084C259.659 48.0442 259.433 47.3865 259.433 46.535C259.433 45.6959 259.653 45.0289 260.092 44.5341C260.532 44.0361 261.107 43.7872 261.817 43.7872C262.136 43.7872 262.419 43.8333 262.665 43.9255C262.911 44.0177 263.126 44.1621 263.311 44.3589C263.495 44.5556 263.636 44.7969 263.735 45.0827C263.833 45.3655 263.882 45.7128 263.882 46.1247V46.595H260.314C260.314 47.1944 260.464 47.6523 260.765 47.9689C261.067 48.2855 261.483 48.4438 262.015 48.4438C262.206 48.4438 262.391 48.4223 262.573 48.3793C262.757 48.3362 262.923 48.2809 263.071 48.2133C263.228 48.1426 263.36 48.075 263.467 48.0104C263.575 47.9428 263.664 47.8798 263.735 47.8214H263.785V48.7666C263.684 48.8065 263.558 48.8572 263.407 48.9187C263.257 48.9771 263.121 49.0232 263.002 49.057C262.833 49.1031 262.679 49.1385 262.541 49.1631C262.405 49.1877 262.233 49.2 262.024 49.2ZM263.038 45.9311C263.032 45.6975 263.005 45.4961 262.956 45.3271C262.906 45.158 262.836 45.0151 262.743 44.8983C262.642 44.7692 262.511 44.6708 262.352 44.6032C262.195 44.5356 262 44.5018 261.766 44.5018C261.535 44.5018 261.339 44.5371 261.176 44.6078C261.016 44.6755 260.87 44.7754 260.738 44.9075C260.609 45.0428 260.51 45.1934 260.443 45.3594C260.375 45.5223 260.332 45.7128 260.314 45.9311H263.038ZM271.854 49.0801H270.775L269.009 46.7056H268.576V49.0801H267.709V43.9301H268.576V46.1708C268.8 46.1677 268.991 46.1216 269.147 46.0325C269.307 45.9403 269.443 45.7635 269.553 45.5023C269.587 45.4254 269.624 45.3363 269.664 45.2349C269.707 45.1334 269.741 45.0443 269.765 44.9675C269.901 44.5894 270.088 44.322 270.328 44.1652C270.568 44.0085 270.88 43.9301 271.264 43.9301H271.499V44.677H271.301C271.058 44.677 270.875 44.7277 270.752 44.8291C270.632 44.9275 270.531 45.1088 270.448 45.3732C270.362 45.6406 270.26 45.8496 270.143 46.0002C270.027 46.1478 269.897 46.2615 269.756 46.3414L271.854 49.0801ZM276.732 46.3691C276.732 47.2266 276.526 47.9105 276.114 48.4208C275.705 48.9279 275.187 49.1815 274.56 49.1815C274.305 49.1815 274.079 49.1523 273.883 49.0939C273.686 49.0355 273.484 48.9448 273.279 48.8219V50.9796H272.412V43.9301H273.279V44.4695C273.494 44.2759 273.732 44.1145 273.993 43.9854C274.258 43.8532 274.545 43.7872 274.855 43.7872C275.446 43.7872 275.905 44.0208 276.234 44.488C276.566 44.9552 276.732 45.5822 276.732 46.3691ZM275.837 46.4659C275.837 45.8788 275.744 45.4239 275.556 45.1012C275.369 44.7754 275.064 44.6124 274.643 44.6124C274.397 44.6124 274.159 44.6678 273.929 44.7784C273.701 44.886 273.484 45.0259 273.279 45.198V48.1165C273.506 48.2271 273.7 48.3024 273.859 48.3424C274.022 48.3823 274.208 48.4023 274.417 48.4023C274.866 48.4023 275.215 48.2379 275.464 47.909C275.713 47.5801 275.837 47.0991 275.837 46.4659ZM281.697 49.0801H280.84V45.2395L278.415 49.0801H277.631V43.9301H278.488V47.7107L280.886 43.9301H281.697V49.0801ZM286.714 44.6908H284.962V49.0801H284.095V44.6908H282.343V43.9301H286.714V44.6908ZM291.426 49.0801H290.568V45.2395L288.143 49.0801H287.359V43.9301H288.217V47.7107L290.614 43.9301H291.426V49.0801ZM296.553 49.0801H295.686V47.0699C295.415 47.159 295.153 47.2282 294.897 47.2773C294.642 47.3265 294.39 47.3511 294.141 47.3511C293.923 47.3511 293.709 47.3235 293.5 47.2681C293.295 47.2097 293.116 47.116 292.966 46.9869C292.815 46.8578 292.698 46.6933 292.615 46.4936C292.535 46.2907 292.495 46.0525 292.495 45.7789V43.9301H293.362V45.3271C293.362 45.5545 293.371 45.7359 293.39 45.8711C293.408 46.0033 293.459 46.1324 293.542 46.2584C293.613 46.366 293.719 46.449 293.86 46.5074C294.005 46.5658 294.194 46.595 294.427 46.595C294.63 46.595 294.847 46.575 295.077 46.535C295.311 46.4951 295.514 46.4474 295.686 46.3921V43.9301H296.553V49.0801ZM301.873 49.0801H301.006V46.761H298.674V49.0801H297.807V43.9301H298.674V46.0141H301.006V43.9301H301.873V49.0801ZM306.949 47.4848C306.949 47.7338 306.899 47.9597 306.797 48.1626C306.699 48.3654 306.564 48.5299 306.392 48.6559C306.189 48.8096 305.972 48.9187 305.742 48.9833C305.511 49.0478 305.214 49.0801 304.852 49.0801H303.127V43.9301H303.994V45.9357H304.875C305.262 45.9357 305.562 45.9557 305.774 45.9956C305.989 46.0356 306.203 46.1339 306.415 46.2907C306.593 46.4229 306.727 46.5919 306.816 46.7979C306.905 47.0038 306.949 47.2328 306.949 47.4848ZM306.055 47.4987C306.055 47.3419 306.027 47.2051 305.972 47.0883C305.92 46.9684 305.832 46.8716 305.709 46.7979C305.58 46.721 305.433 46.6749 305.267 46.6595C305.104 46.6442 304.869 46.6365 304.561 46.6365H303.994V48.3885H304.543C304.85 48.3885 305.088 48.3762 305.257 48.3516C305.426 48.3239 305.572 48.2732 305.695 48.1995C305.821 48.1195 305.912 48.0258 305.967 47.9182C306.026 47.8076 306.055 47.6677 306.055 47.4987ZM308.416 49.0801H307.549V43.9301H308.416V49.0801ZM311.91 49.2C311.09 49.2 310.452 48.9694 309.997 48.5084C309.545 48.0442 309.319 47.3865 309.319 46.535C309.319 45.6959 309.539 45.0289 309.979 44.5341C310.418 44.0361 310.993 43.7872 311.703 43.7872C312.023 43.7872 312.305 43.8333 312.551 43.9255C312.797 44.0177 313.012 44.1621 313.197 44.3589C313.381 44.5556 313.523 44.7969 313.621 45.0827C313.719 45.3655 313.769 45.7128 313.769 46.1247V46.595H310.2C310.2 47.1944 310.351 47.6523 310.652 47.9689C310.953 48.2855 311.369 48.4438 311.901 48.4438C312.092 48.4438 312.278 48.4223 312.459 48.3793C312.644 48.3362 312.81 48.2809 312.957 48.2133C313.114 48.1426 313.246 48.075 313.354 48.0104C313.461 47.9428 313.55 47.8798 313.621 47.8214H313.672V48.7666C313.57 48.8065 313.444 48.8572 313.294 48.9187C313.143 48.9771 313.008 49.0232 312.888 49.057C312.719 49.1031 312.565 49.1385 312.427 49.1631C312.292 49.1877 312.119 49.2 311.91 49.2ZM312.925 45.9311C312.919 45.6975 312.891 45.4961 312.842 45.3271C312.793 45.158 312.722 45.0151 312.63 44.8983C312.528 44.7692 312.398 44.6708 312.238 44.6032C312.081 44.5356 311.886 44.5018 311.652 44.5018C311.422 44.5018 311.225 44.5371 311.062 44.6078C310.902 44.6755 310.756 44.7754 310.624 44.9075C310.495 45.0428 310.397 45.1934 310.329 45.3594C310.261 45.5223 310.218 45.7128 310.2 45.9311H312.925Z" fill="#303549"/>
<path d="M258.722 82.2197H257.561L255.135 79.0753H254.559V82.2197H253.646V75.3546H254.559V78.4483C254.919 78.436 255.203 78.3453 255.412 78.1763C255.624 78.0072 255.796 77.7644 255.928 77.4478C255.984 77.3095 256.033 77.1788 256.076 77.0559C256.122 76.9299 256.159 76.8238 256.187 76.7378C256.371 76.2122 256.606 75.851 256.892 75.6543C257.178 75.4545 257.574 75.3546 258.082 75.3546H258.363V76.1707H258.132C257.757 76.1707 257.494 76.2444 257.344 76.392C257.193 76.5364 257.055 76.8115 256.929 77.2173C256.803 77.623 256.661 77.9211 256.505 78.1117C256.348 78.2992 256.159 78.4652 255.938 78.6097L258.722 82.2197ZM263.587 79.5087C263.587 80.3663 263.381 81.0502 262.969 81.5604C262.56 82.0676 262.042 82.3212 261.415 82.3212C261.16 82.3212 260.934 82.292 260.737 82.2336C260.541 82.1752 260.339 82.0845 260.133 81.9615V84.1193H259.266V77.0697H260.133V77.6092C260.348 77.4155 260.587 77.2542 260.848 77.1251C261.112 76.9929 261.4 76.9268 261.71 76.9268C262.3 76.9268 262.76 77.1604 263.089 77.6276C263.421 78.0948 263.587 78.7218 263.587 79.5087ZM262.692 79.6055C262.692 79.0185 262.598 78.5636 262.411 78.2408C262.223 77.915 261.919 77.7521 261.498 77.7521C261.252 77.7521 261.014 77.8074 260.783 77.9181C260.556 78.0257 260.339 78.1655 260.133 78.3376V81.2561C260.361 81.3668 260.554 81.4421 260.714 81.482C260.877 81.522 261.063 81.542 261.272 81.542C261.721 81.542 262.07 81.3775 262.319 81.0486C262.568 80.7198 262.692 80.2387 262.692 79.6055ZM268.552 82.2197H267.695V78.3791L265.269 82.2197H264.486V77.0697H265.343V80.8504L267.741 77.0697H268.552V82.2197ZM273.568 77.8305H271.816V82.2197H270.95V77.8305H269.198V77.0697H273.568V77.8305ZM278.28 82.2197H277.423V78.3791L274.998 82.2197H274.214V77.0697H275.071V80.8504L277.469 77.0697H278.28V82.2197ZM283.407 82.2197H282.541V80.2095C282.27 80.2987 282.007 80.3678 281.752 80.417C281.497 80.4662 281.245 80.4908 280.996 80.4908C280.778 80.4908 280.564 80.4631 280.355 80.4078C280.149 80.3494 279.971 80.2556 279.82 80.1265C279.67 79.9974 279.553 79.833 279.47 79.6332C279.39 79.4303 279.35 79.1921 279.35 78.9186V77.0697H280.217V78.4667C280.217 78.6942 280.226 78.8755 280.245 79.0108C280.263 79.1429 280.314 79.272 280.397 79.3981C280.467 79.5056 280.573 79.5886 280.715 79.647C280.859 79.7054 281.048 79.7346 281.282 79.7346C281.485 79.7346 281.701 79.7147 281.932 79.6747C282.166 79.6347 282.368 79.5871 282.541 79.5318V77.0697H283.407V82.2197ZM288.728 82.2197H287.861V79.9006H285.528V82.2197H284.661V77.0697H285.528V79.1537H287.861V77.0697H288.728V82.2197ZM293.804 80.6245C293.804 80.8734 293.753 81.0994 293.652 81.3022C293.554 81.5051 293.418 81.6695 293.246 81.7956C293.043 81.9492 292.827 82.0584 292.596 82.1229C292.366 82.1875 292.069 82.2197 291.706 82.2197H289.982V77.0697H290.849V79.0753H291.729C292.117 79.0753 292.416 79.0953 292.628 79.1353C292.844 79.1752 293.057 79.2736 293.269 79.4303C293.448 79.5625 293.581 79.7316 293.67 79.9375C293.76 80.1434 293.804 80.3724 293.804 80.6245ZM292.91 80.6383C292.91 80.4815 292.882 80.3448 292.827 80.228C292.774 80.1081 292.687 80.0113 292.564 79.9375C292.435 79.8607 292.287 79.8146 292.121 79.7992C291.958 79.7838 291.723 79.7761 291.416 79.7761H290.849V81.5281H291.397C291.705 81.5281 291.943 81.5158 292.112 81.4913C292.281 81.4636 292.427 81.4129 292.55 81.3391C292.676 81.2592 292.767 81.1654 292.822 81.0579C292.881 80.9472 292.91 80.8074 292.91 80.6383ZM295.27 82.2197H294.404V77.0697H295.27V82.2197ZM298.765 82.3396C297.944 82.3396 297.307 82.1091 296.852 81.648C296.4 81.1839 296.174 80.5261 296.174 79.6747C296.174 78.8356 296.394 78.1686 296.833 77.6737C297.273 77.1758 297.848 76.9268 298.558 76.9268C298.877 76.9268 299.16 76.9729 299.406 77.0651C299.652 77.1573 299.867 77.3018 300.051 77.4985C300.236 77.6952 300.377 77.9365 300.476 78.2224C300.574 78.5052 300.623 78.8525 300.623 79.2644V79.7346H297.055C297.055 80.334 297.205 80.792 297.506 81.1086C297.808 81.4252 298.224 81.5835 298.756 81.5835C298.946 81.5835 299.132 81.562 299.314 81.5189C299.498 81.4759 299.664 81.4206 299.812 81.3529C299.969 81.2822 300.101 81.2146 300.208 81.1501C300.316 81.0825 300.405 81.0194 300.476 80.961H300.526V81.9062C300.425 81.9462 300.299 81.9969 300.148 82.0584C299.998 82.1168 299.862 82.1629 299.743 82.1967C299.574 82.2428 299.42 82.2781 299.282 82.3027C299.146 82.3273 298.974 82.3396 298.765 82.3396ZM299.779 79.0707C299.773 78.8371 299.746 78.6358 299.696 78.4667C299.647 78.2977 299.577 78.1547 299.484 78.0379C299.383 77.9089 299.252 77.8105 299.092 77.7429C298.936 77.6752 298.741 77.6414 298.507 77.6414C298.276 77.6414 298.08 77.6768 297.917 77.7475C297.757 77.8151 297.611 77.915 297.479 78.0472C297.35 78.1824 297.251 78.333 297.184 78.499C297.116 78.6619 297.073 78.8525 297.055 79.0707H299.779Z" fill="#F7931E"/>
<path d="M258.591 97.1699H254.159V96.2422H255.807V90.1509H254.159V89.3208C254.782 89.3208 255.24 89.2333 255.533 89.0583C255.83 88.8793 255.997 88.5436 256.033 88.0513H256.979V96.2422H258.591V97.1699Z" fill="#F7931E"/>
<path d="M259.292 60.125H258.212V63.25H257.04V60.125H253.024V58.8433L257.089 54.1619H258.212V59.1484H259.292V60.125ZM257.04 59.1484V55.5962L253.976 59.1484H257.04Z" fill="#303549"/>
</svg>
