<svg width="324" height="117" viewBox="0 0 324 117" fill="none" xmlns="http://www.w3.org/2000/svg">
<path d="M15.2303 89.1504H14.5073L12.3643 84.9686V89.1504H11.7618V84.301H12.677L14.6278 88.1408V84.301H15.2303V89.1504ZM19.6466 84.8579C19.8311 85.0707 19.9744 85.3345 20.0765 85.6493C20.1785 85.9641 20.2296 86.3235 20.2296 86.7273C20.2296 87.1203 20.1796 87.4753 20.0797 87.7923C19.9799 88.1093 19.8355 88.3753 19.6466 88.5902C19.449 88.816 19.2178 88.9832 18.9529 89.0918C18.6902 89.1982 18.4003 89.2514 18.0833 89.2514C17.7554 89.2514 17.4602 89.196 17.1974 89.0853C16.9347 88.9745 16.7089 88.8095 16.52 88.5902C16.3333 88.3753 16.19 88.1104 16.0901 87.7955C15.9902 87.4807 15.9403 87.1246 15.9403 86.7273C15.9403 86.3191 15.9902 85.9609 16.0901 85.6525C16.1922 85.3442 16.3366 85.0793 16.5233 84.8579C16.71 84.6429 16.9347 84.4801 17.1974 84.3694C17.4623 84.2565 17.7576 84.2 18.0833 84.2C18.4133 84.2 18.7108 84.2575 18.9757 84.3726C19.2406 84.4877 19.4642 84.6494 19.6466 84.8579ZM19.5586 86.7273C19.5586 86.406 19.5239 86.1215 19.4544 85.874C19.385 85.6265 19.2872 85.4213 19.1613 85.2585C19.0332 85.0913 18.878 84.9664 18.6956 84.8839C18.5154 84.7993 18.3124 84.7569 18.0866 84.7569C17.8521 84.7569 17.6469 84.7982 17.471 84.8807C17.2973 84.961 17.1432 85.0869 17.0085 85.2585C16.8804 85.4235 16.7817 85.6308 16.7122 85.8805C16.6449 86.1302 16.6112 86.4125 16.6112 86.7273C16.6112 87.3635 16.7447 87.8509 17.0118 88.1896C17.2789 88.5262 17.6371 88.6944 18.0866 88.6944C18.536 88.6944 18.8932 88.5262 19.1581 88.1896C19.4251 87.8509 19.5586 87.3635 19.5586 86.7273Z" fill="#8C99B2"/>
<path d="M22.3819 91.1816H20.6459V90.7868C20.7706 90.6685 20.8883 90.5551 20.9991 90.4468C21.11 90.3385 21.2183 90.2258 21.324 90.1087C21.5381 89.8732 21.6842 89.685 21.7623 89.5439C21.8404 89.4016 21.8794 89.2549 21.8794 89.1038C21.8794 89.0257 21.8668 88.9571 21.8416 88.8979C21.8177 88.8387 21.7843 88.7896 21.7415 88.7505C21.6974 88.7128 21.6464 88.6844 21.5885 88.6655C21.5306 88.6466 21.467 88.6372 21.3977 88.6372C21.331 88.6372 21.263 88.646 21.1937 88.6637C21.1257 88.68 21.0602 88.7008 20.9972 88.726C20.9444 88.7474 20.8934 88.7732 20.8442 88.8034C20.7951 88.8337 20.7555 88.8595 20.7252 88.8809H20.7045V88.4804C20.7825 88.4414 20.8908 88.4036 21.0294 88.3671C21.1691 88.3293 21.3014 88.3104 21.426 88.3104C21.688 88.3104 21.8932 88.3803 22.0418 88.5201C22.1904 88.6586 22.2647 88.8469 22.2647 89.0849C22.2647 89.1944 22.2515 89.2958 22.2251 89.389C22.1999 89.4822 22.1646 89.5685 22.1193 89.6478C22.0727 89.7297 22.0167 89.8109 21.9512 89.8915C21.8857 89.9721 21.8164 90.0514 21.7434 90.1295C21.625 90.2579 21.4928 90.3914 21.3467 90.5299C21.2019 90.6685 21.086 90.778 20.9991 90.8586H22.3819V91.1816Z" fill="#8C99B2"/>
<path d="M57.7503 89.1504H57.0273L54.8843 84.9686V89.1504H54.2818V84.301H55.197L57.1478 88.1408V84.301H57.7503V89.1504ZM62.1666 84.8579C62.3511 85.0707 62.4944 85.3345 62.5965 85.6493C62.6985 85.9641 62.7496 86.3235 62.7496 86.7273C62.7496 87.1203 62.6996 87.4753 62.5997 87.7923C62.4999 88.1093 62.3555 88.3753 62.1666 88.5902C61.969 88.816 61.7378 88.9832 61.4729 89.0918C61.2102 89.1982 60.9203 89.2514 60.6033 89.2514C60.2754 89.2514 59.9802 89.196 59.7174 89.0853C59.4547 88.9745 59.2289 88.8095 59.04 88.5902C58.8533 88.3753 58.71 88.1104 58.6101 87.7955C58.5102 87.4807 58.4603 87.1246 58.4603 86.7273C58.4603 86.3191 58.5102 85.9609 58.6101 85.6525C58.7122 85.3442 58.8566 85.0793 59.0433 84.8579C59.23 84.6429 59.4547 84.4801 59.7174 84.3694C59.9823 84.2565 60.2776 84.2 60.6033 84.2C60.9333 84.2 61.2308 84.2575 61.4957 84.3726C61.7606 84.4877 61.9842 84.6494 62.1666 84.8579ZM62.0786 86.7273C62.0786 86.406 62.0439 86.1215 61.9744 85.874C61.905 85.6265 61.8072 85.4213 61.6813 85.2585C61.5532 85.0913 61.398 84.9664 61.2156 84.8839C61.0354 84.7993 60.8324 84.7569 60.6066 84.7569C60.3721 84.7569 60.1669 84.7982 59.991 84.8807C59.8173 84.961 59.6632 85.0869 59.5285 85.2585C59.4004 85.4235 59.3017 85.6308 59.2322 85.8805C59.1649 86.1302 59.1312 86.4125 59.1312 86.7273C59.1312 87.3635 59.2647 87.8509 59.5318 88.1896C59.7989 88.5262 60.1571 88.6944 60.6066 88.6944C61.056 88.6944 61.4132 88.5262 61.6781 88.1896C61.9451 87.8509 62.0786 87.3635 62.0786 86.7273Z" fill="#8C99B2"/>
<path d="M98.2603 89.1504H97.5373L95.3943 84.9686V89.1504H94.7918V84.301H95.707L97.6578 88.1408V84.301H98.2603V89.1504ZM102.768 89.1504H102.123V86.7762H99.892V89.1504H99.2471V84.301H99.892V86.203H102.123V84.301H102.768V89.1504Z" fill="#F7931E"/>
<path d="M104.215 88.6372C104.147 88.6372 104.079 88.6454 104.011 88.6618C103.943 88.6781 103.877 88.6995 103.811 88.726C103.751 88.7512 103.698 88.7776 103.652 88.8053C103.608 88.833 103.569 88.8588 103.533 88.8828H103.511V88.4842C103.593 88.4401 103.703 88.4005 103.843 88.3652C103.984 88.3287 104.118 88.3104 104.245 88.3104C104.373 88.3104 104.483 88.3236 104.578 88.3501C104.674 88.3753 104.76 88.4149 104.837 88.4691C104.92 88.5295 104.982 88.6026 105.024 88.6882C105.067 88.7738 105.088 88.874 105.088 88.9886C105.088 89.1434 105.037 89.2795 104.935 89.3966C104.833 89.5137 104.711 89.588 104.568 89.6195V89.6459C104.628 89.6572 104.691 89.6768 104.757 89.7045C104.825 89.7322 104.888 89.7731 104.946 89.8273C105.004 89.8814 105.051 89.9513 105.088 90.0369C105.124 90.1213 105.143 90.2246 105.143 90.3467C105.143 90.4739 105.121 90.591 105.077 90.6981C105.034 90.8038 104.973 90.8977 104.893 90.9795C104.812 91.0652 104.713 91.13 104.597 91.1741C104.481 91.2182 104.349 91.2402 104.202 91.2402C104.061 91.2402 103.921 91.2232 103.783 91.1892C103.644 91.1552 103.528 91.1143 103.433 91.0664V90.6678H103.46C103.539 90.7258 103.645 90.7812 103.779 90.8341C103.912 90.887 104.046 90.9134 104.179 90.9134C104.256 90.9134 104.333 90.9014 104.41 90.8775C104.488 90.8523 104.553 90.812 104.604 90.7566C104.655 90.7012 104.693 90.6401 104.72 90.5734C104.746 90.5067 104.759 90.4223 104.759 90.3203C104.759 90.2183 104.744 90.1345 104.714 90.069C104.685 90.0036 104.644 89.9519 104.591 89.9141C104.538 89.8764 104.475 89.8506 104.402 89.8367C104.33 89.8216 104.252 89.814 104.168 89.814H104.007V89.5005H104.132C104.302 89.5005 104.44 89.4602 104.546 89.3796C104.653 89.299 104.706 89.1819 104.706 89.0282C104.706 88.9577 104.693 88.8973 104.665 88.8469C104.637 88.7952 104.602 88.7543 104.559 88.7241C104.511 88.6914 104.458 88.6687 104.4 88.6561C104.342 88.6435 104.281 88.6372 104.215 88.6372Z" fill="#F7931E"/>
<path d="M137.307 89.2383C136.99 89.2383 136.698 89.1851 136.431 89.0787C136.166 88.9724 135.937 88.8139 135.744 88.6032C135.551 88.3926 135.401 88.1299 135.295 87.8151C135.188 87.5003 135.135 87.1388 135.135 86.7306C135.135 86.3245 135.186 85.9706 135.288 85.6688C135.392 85.367 135.543 85.1043 135.741 84.8807C135.934 84.6636 136.163 84.4985 136.428 84.3856C136.693 84.2706 136.989 84.213 137.317 84.213C137.48 84.213 137.632 84.225 137.773 84.2489C137.916 84.2727 138.049 84.3031 138.17 84.34C138.275 84.3726 138.381 84.4139 138.489 84.4638C138.6 84.5116 138.709 84.5648 138.815 84.6234V85.4018H138.763C138.707 85.3497 138.634 85.2867 138.545 85.2129C138.456 85.1391 138.347 85.0663 138.219 84.9947C138.095 84.9274 137.961 84.872 137.815 84.8286C137.67 84.7851 137.502 84.7634 137.311 84.7634C137.104 84.7634 136.909 84.8058 136.724 84.8904C136.54 84.9751 136.378 85.1 136.239 85.265C136.102 85.43 135.996 85.6374 135.92 85.887C135.844 86.1367 135.806 86.4179 135.806 86.7306C135.806 87.0628 135.846 87.3494 135.926 87.5904C136.007 87.8292 136.116 88.0311 136.255 88.1961C136.39 88.3568 136.548 88.4784 136.731 88.5609C136.913 88.6412 137.106 88.6814 137.311 88.6814C137.497 88.6814 137.67 88.6586 137.828 88.613C137.987 88.5674 138.128 88.5099 138.252 88.4404C138.371 88.3731 138.474 88.3047 138.561 88.2352C138.648 88.1636 138.716 88.1028 138.766 88.0528H138.815V88.8215C138.709 88.8714 138.608 88.9192 138.512 88.9648C138.419 89.0103 138.305 89.0549 138.17 89.0983C138.029 89.1439 137.898 89.1786 137.776 89.2025C137.657 89.2264 137.5 89.2383 137.307 89.2383Z" fill="#8C99B2"/>
<path d="M140.905 90.2693C140.905 90.4141 140.881 90.5476 140.834 90.6697C140.786 90.7919 140.721 90.8939 140.641 90.9757C140.556 91.0626 140.462 91.1287 140.358 91.1741C140.253 91.2182 140.138 91.2402 140.012 91.2402C139.885 91.2402 139.769 91.2188 139.664 91.176C139.561 91.1332 139.47 91.0696 139.39 90.9852C139.293 90.8832 139.217 90.7472 139.162 90.5772C139.108 90.4059 139.081 90.1956 139.081 89.9463C139.081 89.702 139.106 89.4816 139.156 89.2851C139.206 89.0874 139.284 88.9155 139.388 88.7694C139.49 88.6271 139.622 88.5163 139.783 88.437C139.944 88.3564 140.131 88.3161 140.342 88.3161C140.405 88.3161 140.464 88.3192 140.518 88.3255C140.572 88.3318 140.62 88.3419 140.662 88.3557V88.7165H140.645C140.611 88.6977 140.562 88.6807 140.497 88.6655C140.433 88.6492 140.364 88.641 140.291 88.641C140.057 88.641 139.868 88.7203 139.723 88.879C139.579 89.0364 139.494 89.2706 139.468 89.5817C139.557 89.5187 139.649 89.4702 139.744 89.4362C139.838 89.4022 139.941 89.3852 140.053 89.3852C140.163 89.3852 140.259 89.3966 140.34 89.4192C140.424 89.4406 140.51 89.4847 140.599 89.5515C140.703 89.6295 140.779 89.7284 140.83 89.848C140.88 89.9677 140.905 90.1081 140.905 90.2693ZM140.522 90.2844C140.522 90.1685 140.507 90.0716 140.477 89.9935C140.446 89.9154 140.397 89.8487 140.329 89.7933C140.28 89.753 140.224 89.7265 140.161 89.7139C140.099 89.7013 140.036 89.695 139.97 89.695C139.882 89.695 139.796 89.7082 139.713 89.7347C139.63 89.7611 139.548 89.7995 139.468 89.8499C139.465 89.8776 139.463 89.9047 139.462 89.9311C139.461 89.9563 139.46 89.9884 139.46 90.0275C139.46 90.2227 139.479 90.3801 139.517 90.4997C139.556 90.6194 139.604 90.71 139.66 90.7717C139.715 90.8309 139.77 90.8725 139.827 90.8964C139.885 90.9203 139.947 90.9323 140.014 90.9323C140.165 90.9323 140.287 90.8781 140.38 90.7698C140.475 90.6615 140.522 90.4997 140.522 90.2844Z" fill="#8C99B2"/>
<path d="M145.062 89.1504H144.418V86.7762H142.187V89.1504H141.542V84.301H142.187V86.203H144.418V84.301H145.062V89.1504Z" fill="#8C99B2"/>
<path d="M147.535 90.2693C147.535 90.4141 147.511 90.5476 147.464 90.6697C147.416 90.7919 147.351 90.8939 147.271 90.9757C147.186 91.0626 147.092 91.1287 146.988 91.1741C146.883 91.2182 146.768 91.2402 146.642 91.2402C146.515 91.2402 146.399 91.2188 146.294 91.176C146.191 91.1332 146.1 91.0696 146.02 90.9852C145.923 90.8832 145.847 90.7472 145.792 90.5772C145.738 90.4059 145.711 90.1956 145.711 89.9463C145.711 89.702 145.736 89.4816 145.786 89.2851C145.836 89.0874 145.914 88.9155 146.018 88.7694C146.12 88.6271 146.252 88.5163 146.413 88.437C146.574 88.3564 146.761 88.3161 146.972 88.3161C147.035 88.3161 147.094 88.3192 147.148 88.3255C147.202 88.3318 147.25 88.3419 147.292 88.3557V88.7165H147.275C147.241 88.6977 147.192 88.6807 147.127 88.6655C147.063 88.6492 146.994 88.641 146.921 88.641C146.687 88.641 146.498 88.7203 146.353 88.879C146.209 89.0364 146.124 89.2706 146.098 89.5817C146.187 89.5187 146.279 89.4702 146.374 89.4362C146.468 89.4022 146.571 89.3852 146.683 89.3852C146.793 89.3852 146.889 89.3966 146.971 89.4192C147.054 89.4406 147.14 89.4847 147.229 89.5515C147.333 89.6295 147.409 89.7284 147.46 89.848C147.51 89.9677 147.535 90.1081 147.535 90.2693ZM147.152 90.2844C147.152 90.1685 147.137 90.0716 147.107 89.9935C147.076 89.9154 147.027 89.8487 146.959 89.7933C146.91 89.753 146.854 89.7265 146.791 89.7139C146.729 89.7013 146.666 89.695 146.6 89.695C146.512 89.695 146.426 89.7082 146.343 89.7347C146.26 89.7611 146.178 89.7995 146.098 89.8499C146.095 89.8776 146.093 89.9047 146.092 89.9311C146.091 89.9563 146.09 89.9884 146.09 90.0275C146.09 90.2227 146.109 90.3801 146.147 90.4997C146.186 90.6194 146.234 90.71 146.29 90.7717C146.345 90.8309 146.4 90.8725 146.457 90.8964C146.515 90.9203 146.577 90.9323 146.644 90.9323C146.795 90.9323 146.917 90.8781 147.01 90.7698C147.105 90.6615 147.152 90.4997 147.152 90.2844Z" fill="#8C99B2"/>
<path d="M174.147 89.2383C173.83 89.2383 173.538 89.1851 173.271 89.0787C173.006 88.9724 172.777 88.8139 172.584 88.6032C172.391 88.3926 172.241 88.1299 172.135 87.8151C172.028 87.5003 171.975 87.1388 171.975 86.7306C171.975 86.3245 172.026 85.9706 172.128 85.6688C172.232 85.367 172.383 85.1043 172.581 84.8807C172.774 84.6636 173.003 84.4985 173.268 84.3856C173.533 84.2706 173.829 84.213 174.157 84.213C174.32 84.213 174.472 84.225 174.613 84.2489C174.756 84.2727 174.889 84.3031 175.01 84.34C175.115 84.3726 175.221 84.4139 175.329 84.4638C175.44 84.5116 175.549 84.5648 175.655 84.6234V85.4018H175.603C175.547 85.3497 175.474 85.2867 175.385 85.2129C175.296 85.1391 175.187 85.0663 175.059 84.9947C174.935 84.9274 174.801 84.872 174.655 84.8286C174.51 84.7851 174.342 84.7634 174.151 84.7634C173.944 84.7634 173.749 84.8058 173.564 84.8904C173.38 84.9751 173.218 85.1 173.079 85.265C172.942 85.43 172.836 85.6374 172.76 85.887C172.684 86.1367 172.646 86.4179 172.646 86.7306C172.646 87.0628 172.686 87.3494 172.766 87.5904C172.847 87.8292 172.956 88.0311 173.095 88.1961C173.23 88.3568 173.388 88.4784 173.571 88.5609C173.753 88.6412 173.946 88.6814 174.151 88.6814C174.337 88.6814 174.51 88.6586 174.668 88.613C174.827 88.5674 174.968 88.5099 175.092 88.4404C175.211 88.3731 175.314 88.3047 175.401 88.2352C175.488 88.1636 175.556 88.1028 175.606 88.0528H175.655V88.8215C175.549 88.8714 175.448 88.9192 175.352 88.9648C175.259 89.0103 175.145 89.0549 175.01 89.0983C174.869 89.1439 174.738 89.1786 174.616 89.2025C174.497 89.2264 174.34 89.2383 174.147 89.2383Z" fill="#8C99B2"/>
<path d="M177.755 90.2693C177.755 90.4141 177.731 90.5476 177.684 90.6697C177.636 90.7919 177.571 90.8939 177.491 90.9757C177.406 91.0626 177.312 91.1287 177.208 91.1741C177.103 91.2182 176.988 91.2402 176.862 91.2402C176.735 91.2402 176.619 91.2188 176.514 91.176C176.411 91.1332 176.32 91.0696 176.24 90.9852C176.143 90.8832 176.067 90.7472 176.012 90.5772C175.958 90.4059 175.931 90.1956 175.931 89.9463C175.931 89.702 175.956 89.4816 176.006 89.2851C176.056 89.0874 176.134 88.9155 176.238 88.7694C176.34 88.6271 176.472 88.5163 176.633 88.437C176.794 88.3564 176.981 88.3161 177.192 88.3161C177.255 88.3161 177.314 88.3192 177.368 88.3255C177.422 88.3318 177.47 88.3419 177.512 88.3557V88.7165H177.495C177.461 88.6977 177.412 88.6807 177.347 88.6655C177.283 88.6492 177.214 88.641 177.141 88.641C176.907 88.641 176.718 88.7203 176.573 88.879C176.429 89.0364 176.344 89.2706 176.318 89.5817C176.407 89.5187 176.499 89.4702 176.594 89.4362C176.688 89.4022 176.791 89.3852 176.903 89.3852C177.013 89.3852 177.109 89.3966 177.191 89.4192C177.274 89.4406 177.36 89.4847 177.449 89.5515C177.553 89.6295 177.629 89.7284 177.68 89.848C177.73 89.9677 177.755 90.1081 177.755 90.2693ZM177.372 90.2844C177.372 90.1685 177.357 90.0716 177.327 89.9935C177.296 89.9154 177.247 89.8487 177.179 89.7933C177.13 89.753 177.074 89.7265 177.011 89.7139C176.949 89.7013 176.886 89.695 176.82 89.695C176.732 89.695 176.646 89.7082 176.563 89.7347C176.48 89.7611 176.398 89.7995 176.318 89.8499C176.315 89.8776 176.313 89.9047 176.312 89.9311C176.311 89.9563 176.31 89.9884 176.31 90.0275C176.31 90.2227 176.329 90.3801 176.367 90.4997C176.406 90.6194 176.454 90.71 176.51 90.7717C176.565 90.8309 176.62 90.8725 176.677 90.8964C176.735 90.9203 176.797 90.9323 176.864 90.9323C177.015 90.9323 177.137 90.8781 177.23 90.7698C177.325 90.6615 177.372 90.4997 177.372 90.2844Z" fill="#8C99B2"/>
<path d="M181.902 89.1504H181.258V86.7762H179.027V89.1504H178.382V84.301H179.027V86.203H181.258V84.301H181.902V89.1504Z" fill="#8C99B2"/>
<path d="M184.31 90.2863C184.31 90.4223 184.288 90.5482 184.244 90.6641C184.201 90.7799 184.14 90.88 184.062 90.9644C183.983 91.05 183.884 91.1174 183.766 91.1665C183.649 91.2156 183.517 91.2402 183.371 91.2402C183.236 91.2402 183.103 91.2251 182.972 91.1949C182.843 91.1659 182.73 91.1275 182.634 91.0796V90.6811H182.661C182.69 90.7025 182.731 90.727 182.785 90.7547C182.839 90.7812 182.899 90.8064 182.965 90.8303C183.039 90.8567 183.107 90.8775 183.169 90.8926C183.231 90.9065 183.3 90.9134 183.377 90.9134C183.452 90.9134 183.526 90.9002 183.598 90.8737C183.669 90.846 183.731 90.802 183.783 90.7415C183.829 90.6861 183.865 90.6212 183.888 90.5469C183.914 90.4726 183.926 90.3851 183.926 90.2844C183.926 90.1849 183.912 90.103 183.885 90.0388C183.858 89.9746 183.819 89.9217 183.768 89.8801C183.713 89.8323 183.647 89.7989 183.567 89.78C183.489 89.7599 183.402 89.7498 183.305 89.7498C183.203 89.7498 183.1 89.758 182.997 89.7744C182.894 89.7895 182.811 89.804 182.749 89.8178V88.369H184.293V88.6995H183.114V89.4476C183.159 89.4425 183.204 89.4388 183.248 89.4362C183.292 89.4337 183.333 89.4325 183.369 89.4325C183.513 89.4325 183.634 89.4444 183.734 89.4683C183.833 89.4923 183.929 89.5389 184.021 89.6081C184.114 89.6787 184.185 89.7668 184.234 89.8726C184.285 89.9784 184.31 90.1163 184.31 90.2863Z" fill="#8C99B2"/>
<path d="M188.441 84.8579C188.626 85.0707 188.769 85.3345 188.871 85.6493C188.973 85.9641 189.024 86.3235 189.024 86.7273C189.024 87.1203 188.974 87.4753 188.874 87.7923C188.775 88.1093 188.63 88.3753 188.441 88.5902C188.244 88.816 188.012 88.9832 187.748 89.0918C187.485 89.1982 187.195 89.2514 186.878 89.2514C186.55 89.2514 186.255 89.196 185.992 89.0853C185.729 88.9745 185.504 88.8095 185.315 88.5902C185.128 88.3753 184.985 88.1104 184.885 87.7955C184.785 87.4807 184.735 87.1246 184.735 86.7273C184.735 86.3191 184.785 85.9609 184.885 85.6525C184.987 85.3442 185.131 85.0793 185.318 84.8579C185.505 84.6429 185.729 84.4801 185.992 84.3694C186.257 84.2565 186.552 84.2 186.878 84.2C187.208 84.2 187.505 84.2575 187.77 84.3726C188.035 84.4877 188.259 84.6494 188.441 84.8579ZM188.353 86.7273C188.353 86.406 188.319 86.1215 188.249 85.874C188.18 85.6265 188.082 85.4213 187.956 85.2585C187.828 85.0913 187.673 84.9664 187.49 84.8839C187.31 84.7993 187.107 84.7569 186.881 84.7569C186.647 84.7569 186.442 84.7982 186.266 84.8807C186.092 84.961 185.938 85.0869 185.803 85.2585C185.675 85.4235 185.576 85.6308 185.507 85.8805C185.44 86.1302 185.406 86.4125 185.406 86.7273C185.406 87.3635 185.539 87.8509 185.806 88.1896C186.074 88.5262 186.432 88.6944 186.881 88.6944C187.331 88.6944 187.688 88.5262 187.953 88.1896C188.22 87.8509 188.353 87.3635 188.353 86.7273ZM193.255 89.1504H192.61V86.7762H190.379V89.1504H189.734V84.301H190.379V86.203H192.61V84.301H193.255V89.1504Z" fill="#8C99B2"/>
<path d="M223.052 89.1504H222.408V86.7762H220.177V89.1504H219.532V84.301H220.177V86.203H222.408V84.301H223.052V89.1504Z" fill="#8C99B2"/>
<path d="M225.482 91.1816H223.746V90.7868C223.871 90.6685 223.988 90.5551 224.099 90.4468C224.21 90.3385 224.318 90.2258 224.424 90.1087C224.638 89.8732 224.784 89.685 224.862 89.5439C224.94 89.4016 224.979 89.2549 224.979 89.1038C224.979 89.0257 224.967 88.9571 224.942 88.8979C224.918 88.8387 224.884 88.7896 224.841 88.7505C224.797 88.7128 224.746 88.6844 224.688 88.6655C224.631 88.6466 224.567 88.6372 224.498 88.6372C224.431 88.6372 224.363 88.646 224.294 88.6637C224.226 88.68 224.16 88.7008 224.097 88.726C224.044 88.7474 223.993 88.7732 223.944 88.8034C223.895 88.8337 223.855 88.8595 223.825 88.8809H223.804V88.4804C223.883 88.4414 223.991 88.4036 224.129 88.3671C224.269 88.3293 224.401 88.3104 224.526 88.3104C224.788 88.3104 224.993 88.3803 225.142 88.5201C225.29 88.6586 225.365 88.8469 225.365 89.0849C225.365 89.1944 225.352 89.2958 225.325 89.389C225.3 89.4822 225.265 89.5685 225.219 89.6478C225.173 89.7297 225.117 89.8109 225.051 89.8915C224.986 89.9721 224.916 90.0514 224.843 90.1295C224.725 90.2579 224.593 90.3914 224.447 90.5299C224.302 90.6685 224.186 90.778 224.099 90.8586H225.482V91.1816Z" fill="#8C99B2"/>
<path d="M227.503 89.2383C227.152 89.2383 226.852 89.2025 226.604 89.1308C226.359 89.057 226.128 88.9669 225.911 88.8605V88.0528H225.956C226.169 88.2526 226.41 88.4078 226.679 88.5186C226.949 88.6271 227.208 88.6814 227.458 88.6814C227.814 88.6814 228.083 88.6076 228.265 88.4599C228.448 88.3101 228.539 88.1136 228.539 87.8705C228.539 87.6772 228.491 87.5198 228.396 87.3982C228.3 87.2766 228.148 87.1865 227.94 87.1279C227.79 87.0845 227.653 87.0486 227.529 87.0204C227.406 86.9922 227.25 86.9542 227.064 86.9064C226.897 86.863 226.747 86.8076 226.614 86.7403C226.482 86.673 226.365 86.5851 226.263 86.4765C226.163 86.3701 226.084 86.2453 226.028 86.102C225.974 85.9565 225.947 85.7893 225.947 85.6004C225.947 85.2074 226.1 84.8785 226.406 84.6136C226.712 84.3466 227.103 84.213 227.578 84.213C227.85 84.213 228.106 84.2402 228.347 84.2944C228.59 84.3487 228.815 84.4258 229.021 84.5257V85.2976H228.972C228.818 85.1564 228.62 85.0337 228.379 84.9295C228.138 84.8231 227.886 84.7699 227.621 84.7699C227.321 84.7699 227.079 84.8405 226.894 84.9816C226.71 85.1206 226.618 85.3041 226.618 85.532C226.618 85.7383 226.672 85.9022 226.78 86.0238C226.889 86.1454 227.046 86.2344 227.253 86.2909C227.389 86.3278 227.557 86.3701 227.754 86.4179C227.952 86.4635 228.116 86.5058 228.246 86.5449C228.58 86.647 228.825 86.8011 228.979 87.0074C229.133 87.2137 229.21 87.4677 229.21 87.7695C229.21 87.9584 229.171 88.1451 229.093 88.3297C229.017 88.5142 228.909 88.6706 228.77 88.7987C228.614 88.9398 228.437 89.0483 228.239 89.1243C228.044 89.2003 227.799 89.2383 227.503 89.2383Z" fill="#8C99B2"/>
<path d="M252.747 89.2383C252.43 89.2383 252.138 89.1851 251.871 89.0787C251.606 88.9724 251.377 88.8139 251.184 88.6032C250.991 88.3926 250.841 88.1299 250.735 87.8151C250.628 87.5003 250.575 87.1388 250.575 86.7306C250.575 86.3245 250.626 85.9706 250.728 85.6688C250.832 85.367 250.983 85.1043 251.181 84.8807C251.374 84.6636 251.603 84.4985 251.868 84.3856C252.133 84.2706 252.429 84.213 252.757 84.213C252.92 84.213 253.072 84.225 253.213 84.2489C253.356 84.2727 253.489 84.3031 253.61 84.34C253.715 84.3726 253.821 84.4139 253.929 84.4638C254.04 84.5116 254.149 84.5648 254.255 84.6234V85.4018H254.203C254.147 85.3497 254.074 85.2867 253.985 85.2129C253.896 85.1391 253.787 85.0663 253.659 84.9947C253.535 84.9274 253.401 84.872 253.255 84.8286C253.11 84.7851 252.942 84.7634 252.751 84.7634C252.544 84.7634 252.349 84.8058 252.164 84.8904C251.98 84.9751 251.818 85.1 251.679 85.265C251.542 85.43 251.436 85.6374 251.36 85.887C251.284 86.1367 251.246 86.4179 251.246 86.7306C251.246 87.0628 251.286 87.3494 251.366 87.5904C251.447 87.8292 251.556 88.0311 251.695 88.1961C251.83 88.3568 251.988 88.4784 252.171 88.5609C252.353 88.6412 252.546 88.6814 252.751 88.6814C252.937 88.6814 253.11 88.6586 253.268 88.613C253.427 88.5674 253.568 88.5099 253.692 88.4404C253.811 88.3731 253.914 88.3047 254.001 88.2352C254.088 88.1636 254.156 88.1028 254.206 88.0528H254.255V88.8215C254.149 88.8714 254.048 88.9192 253.952 88.9648C253.859 89.0103 253.745 89.0549 253.61 89.0983C253.469 89.1439 253.338 89.1786 253.216 89.2025C253.097 89.2264 252.941 89.2383 252.747 89.2383Z" fill="#8C99B2"/>
<path d="M256.345 90.2693C256.345 90.4141 256.321 90.5476 256.274 90.6697C256.226 90.7919 256.161 90.8939 256.081 90.9757C255.996 91.0626 255.902 91.1287 255.798 91.1741C255.693 91.2182 255.578 91.2402 255.452 91.2402C255.325 91.2402 255.209 91.2188 255.104 91.176C255.001 91.1332 254.91 91.0696 254.83 90.9852C254.733 90.8832 254.657 90.7472 254.602 90.5772C254.548 90.4059 254.521 90.1956 254.521 89.9463C254.521 89.702 254.546 89.4816 254.596 89.2851C254.646 89.0874 254.724 88.9155 254.828 88.7694C254.93 88.6271 255.062 88.5163 255.223 88.437C255.384 88.3564 255.571 88.3161 255.782 88.3161C255.845 88.3161 255.904 88.3192 255.958 88.3255C256.012 88.3318 256.06 88.3419 256.102 88.3557V88.7165H256.085C256.051 88.6977 256.002 88.6807 255.937 88.6655C255.873 88.6492 255.804 88.641 255.731 88.641C255.497 88.641 255.308 88.7203 255.163 88.879C255.019 89.0364 254.934 89.2706 254.908 89.5817C254.997 89.5187 255.089 89.4702 255.184 89.4362C255.278 89.4022 255.381 89.3852 255.493 89.3852C255.603 89.3852 255.699 89.3966 255.781 89.4192C255.864 89.4406 255.95 89.4847 256.039 89.5515C256.143 89.6295 256.219 89.7284 256.27 89.848C256.32 89.9677 256.345 90.1081 256.345 90.2693ZM255.962 90.2844C255.962 90.1685 255.947 90.0716 255.917 89.9935C255.886 89.9154 255.837 89.8487 255.769 89.7933C255.72 89.753 255.664 89.7265 255.601 89.7139C255.539 89.7013 255.476 89.695 255.41 89.695C255.322 89.695 255.236 89.7082 255.153 89.7347C255.07 89.7611 254.988 89.7995 254.908 89.8499C254.905 89.8776 254.903 89.9047 254.902 89.9311C254.901 89.9563 254.9 89.9884 254.9 90.0275C254.9 90.2227 254.919 90.3801 254.957 90.4997C254.996 90.6194 255.044 90.71 255.1 90.7717C255.155 90.8309 255.21 90.8725 255.267 90.8964C255.325 90.9203 255.387 90.9323 255.454 90.9323C255.605 90.9323 255.727 90.8781 255.82 90.7698C255.915 90.6615 255.962 90.4997 255.962 90.2844Z" fill="#8C99B2"/>
<path d="M260.502 89.1504H259.858V86.7762H257.627V89.1504H256.982V84.301H257.627V86.203H259.858V84.301H260.502V89.1504Z" fill="#8C99B2"/>
<path d="M263.006 90.2145H262.671V91.1816H262.308V90.2145H261.066V89.8178L262.324 88.369H262.671V89.9123H263.006V90.2145ZM262.308 89.9123V88.8129L261.36 89.9123H262.308Z" fill="#8C99B2"/>
<path d="M265.422 90.4922H264.677C264.299 90.0428 264.001 89.5673 263.784 89.0657C263.569 88.5642 263.462 87.9714 263.462 87.2875C263.462 86.6187 263.568 86.0303 263.781 85.5223C263.996 85.012 264.294 84.5322 264.677 84.0828H265.422V84.1153C265.246 84.2738 265.078 84.4573 264.918 84.6657C264.759 84.872 264.611 85.113 264.475 85.3887C264.344 85.6558 264.238 85.95 264.155 86.2713C264.075 86.5927 264.035 86.9314 264.035 87.2875C264.035 87.6588 264.074 87.9986 264.152 88.3069C264.233 88.6152 264.34 88.9083 264.475 89.1862C264.605 89.4533 264.754 89.6943 264.921 89.9092C265.088 90.1264 265.255 90.3098 265.422 90.4596V90.4922ZM268.051 89.2383C267.734 89.2383 267.442 89.1851 267.175 89.0787C266.91 88.9724 266.681 88.8139 266.487 88.6032C266.294 88.3926 266.144 88.1299 266.038 87.8151C265.931 87.5003 265.878 87.1388 265.878 86.7306C265.878 86.3245 265.929 85.9706 266.031 85.6688C266.136 85.367 266.286 85.1043 266.484 84.8807C266.677 84.6636 266.906 84.4985 267.171 84.3856C267.436 84.2706 267.733 84.213 268.06 84.213C268.223 84.213 268.375 84.225 268.516 84.2489C268.66 84.2727 268.792 84.3031 268.914 84.34C269.018 84.3726 269.124 84.4139 269.233 84.4638C269.344 84.5116 269.452 84.5648 269.559 84.6234V85.4018H269.506C269.45 85.3497 269.377 85.2867 269.288 85.2129C269.199 85.1391 269.091 85.0663 268.963 84.9947C268.839 84.9274 268.704 84.872 268.559 84.8286C268.413 84.7851 268.245 84.7634 268.054 84.7634C267.848 84.7634 267.652 84.8058 267.468 84.8904C267.283 84.9751 267.121 85.1 266.982 85.265C266.846 85.43 266.739 85.6374 266.663 85.887C266.587 86.1367 266.549 86.4179 266.549 86.7306C266.549 87.0628 266.589 87.3494 266.67 87.5904C266.75 87.8292 266.86 88.0311 266.999 88.1961C267.133 88.3568 267.292 88.4784 267.474 88.5609C267.657 88.6412 267.85 88.6814 268.054 88.6814C268.241 88.6814 268.413 88.6586 268.572 88.613C268.73 88.5674 268.871 88.5099 268.995 88.4404C269.115 88.3731 269.218 88.3047 269.304 88.2352C269.391 88.1636 269.46 88.1028 269.51 88.0528H269.559V88.8215C269.452 88.8714 269.351 88.9192 269.256 88.9648C269.162 89.0103 269.048 89.0549 268.914 89.0983C268.773 89.1439 268.641 89.1786 268.52 89.2025C268.4 89.2264 268.244 89.2383 268.051 89.2383ZM273.682 89.1504H273.037V86.7762H270.806V89.1504H270.161V84.301H270.806V86.203H273.037V84.301H273.682V89.1504Z" fill="#8C99B2"/>
<path d="M275.145 88.6372C275.077 88.6372 275.009 88.6454 274.941 88.6618C274.873 88.6781 274.806 88.6995 274.741 88.726C274.681 88.7512 274.628 88.7776 274.582 88.8053C274.538 88.833 274.499 88.8588 274.463 88.8828H274.441V88.4842C274.523 88.4401 274.633 88.4005 274.773 88.3652C274.914 88.3287 275.048 88.3104 275.175 88.3104C275.303 88.3104 275.413 88.3236 275.508 88.3501C275.604 88.3753 275.69 88.4149 275.767 88.4691C275.85 88.5295 275.912 88.6026 275.954 88.6882C275.997 88.7738 276.018 88.874 276.018 88.9886C276.018 89.1434 275.967 89.2795 275.865 89.3966C275.763 89.5137 275.641 89.588 275.498 89.6195V89.6459C275.558 89.6572 275.621 89.6768 275.687 89.7045C275.755 89.7322 275.818 89.7731 275.876 89.8273C275.934 89.8814 275.981 89.9513 276.018 90.0369C276.054 90.1213 276.073 90.2246 276.073 90.3467C276.073 90.4739 276.051 90.591 276.007 90.6981C275.964 90.8038 275.903 90.8977 275.823 90.9795C275.742 91.0652 275.643 91.13 275.527 91.1741C275.411 91.2182 275.279 91.2402 275.132 91.2402C274.991 91.2402 274.851 91.2232 274.713 91.1892C274.574 91.1552 274.458 91.1143 274.363 91.0664V90.6678H274.39C274.469 90.7258 274.575 90.7812 274.709 90.8341C274.842 90.887 274.976 90.9134 275.109 90.9134C275.186 90.9134 275.263 90.9014 275.34 90.8775C275.418 90.8523 275.483 90.812 275.534 90.7566C275.585 90.7012 275.623 90.6401 275.65 90.5734C275.676 90.5067 275.689 90.4223 275.689 90.3203C275.689 90.2183 275.674 90.1345 275.644 90.069C275.615 90.0036 275.574 89.9519 275.521 89.9141C275.468 89.8764 275.405 89.8506 275.332 89.8367C275.26 89.8216 275.182 89.814 275.098 89.814H274.937V89.5005H275.062C275.232 89.5005 275.37 89.4602 275.476 89.3796C275.583 89.299 275.636 89.1819 275.636 89.0282C275.636 88.9577 275.623 88.8973 275.595 88.8469C275.567 88.7952 275.532 88.7543 275.489 88.7241C275.441 88.6914 275.388 88.6687 275.33 88.6561C275.272 88.6435 275.211 88.6372 275.145 88.6372Z" fill="#8C99B2"/>
<path d="M278.502 87.2875C278.502 87.9584 278.394 88.5479 278.179 89.0559C277.964 89.564 277.667 90.0428 277.287 90.4922H276.541V90.4596C276.708 90.3098 276.876 90.1253 277.046 89.906C277.215 89.6889 277.363 89.4489 277.489 89.1862C277.623 88.9061 277.73 88.6108 277.808 88.3004C277.888 87.9877 277.928 87.6501 277.928 87.2875C277.928 86.9292 277.888 86.5905 277.808 86.2713C277.728 85.9522 277.621 85.658 277.489 85.3887C277.356 85.1195 277.206 84.8774 277.039 84.6625C276.872 84.4475 276.706 84.2651 276.541 84.1153V84.0828H277.287C277.665 84.5322 277.961 85.0099 278.176 85.5158C278.393 86.0217 278.502 86.6122 278.502 87.2875Z" fill="#8C99B2"/>
<path d="M280.802 91.1816H279.066V90.7868C279.191 90.6685 279.308 90.5551 279.419 90.4468C279.53 90.3385 279.638 90.2258 279.744 90.1087C279.958 89.8732 280.104 89.685 280.182 89.5439C280.26 89.4016 280.299 89.2549 280.299 89.1038C280.299 89.0257 280.287 88.9571 280.262 88.8979C280.238 88.8387 280.204 88.7896 280.161 88.7505C280.117 88.7128 280.066 88.6844 280.008 88.6655C279.951 88.6466 279.887 88.6372 279.818 88.6372C279.751 88.6372 279.683 88.646 279.614 88.6637C279.546 88.68 279.48 88.7008 279.417 88.726C279.364 88.7474 279.313 88.7732 279.264 88.8034C279.215 88.8337 279.175 88.8595 279.145 88.8809H279.124V88.4804C279.203 88.4414 279.311 88.4036 279.449 88.3671C279.589 88.3293 279.721 88.3104 279.846 88.3104C280.108 88.3104 280.313 88.3803 280.462 88.5201C280.61 88.6586 280.685 88.8469 280.685 89.0849C280.685 89.1944 280.672 89.2958 280.645 89.389C280.62 89.4822 280.585 89.5685 280.539 89.6478C280.493 89.7297 280.437 89.8109 280.371 89.8915C280.306 89.9721 280.236 90.0514 280.163 90.1295C280.045 90.2579 279.913 90.3914 279.767 90.5299C279.622 90.6685 279.506 90.778 279.419 90.8586H280.802V91.1816Z" fill="#8C99B2"/>
<path d="M297.817 89.2383C297.5 89.2383 297.208 89.1851 296.941 89.0787C296.676 88.9724 296.447 88.8139 296.254 88.6032C296.061 88.3926 295.911 88.1299 295.805 87.8151C295.698 87.5003 295.645 87.1388 295.645 86.7306C295.645 86.3245 295.696 85.9706 295.798 85.6688C295.902 85.367 296.053 85.1043 296.251 84.8807C296.444 84.6636 296.673 84.4985 296.938 84.3856C297.203 84.2706 297.499 84.213 297.827 84.213C297.99 84.213 298.142 84.225 298.283 84.2489C298.426 84.2727 298.559 84.3031 298.68 84.34C298.785 84.3726 298.891 84.4139 298.999 84.4638C299.11 84.5116 299.219 84.5648 299.325 84.6234V85.4018H299.273C299.217 85.3497 299.144 85.2867 299.055 85.2129C298.966 85.1391 298.857 85.0663 298.729 84.9947C298.605 84.9274 298.471 84.872 298.325 84.8286C298.18 84.7851 298.012 84.7634 297.821 84.7634C297.614 84.7634 297.419 84.8058 297.234 84.8904C297.05 84.9751 296.888 85.1 296.749 85.265C296.612 85.43 296.506 85.6374 296.43 85.887C296.354 86.1367 296.316 86.4179 296.316 86.7306C296.316 87.0628 296.356 87.3494 296.436 87.5904C296.517 87.8292 296.626 88.0311 296.765 88.1961C296.9 88.3568 297.058 88.4784 297.241 88.5609C297.423 88.6412 297.616 88.6814 297.821 88.6814C298.007 88.6814 298.18 88.6586 298.338 88.613C298.497 88.5674 298.638 88.5099 298.762 88.4404C298.881 88.3731 298.984 88.3047 299.071 88.2352C299.158 88.1636 299.226 88.1028 299.276 88.0528H299.325V88.8215C299.219 88.8714 299.118 88.9192 299.022 88.9648C298.929 89.0103 298.815 89.0549 298.68 89.0983C298.539 89.1439 298.408 89.1786 298.286 89.2025C298.167 89.2264 298.01 89.2383 297.817 89.2383Z" fill="#8C99B2"/>
<path d="M301.425 90.2693C301.425 90.4141 301.401 90.5476 301.354 90.6697C301.306 90.7919 301.241 90.8939 301.161 90.9757C301.076 91.0626 300.982 91.1287 300.878 91.1741C300.773 91.2182 300.658 91.2402 300.532 91.2402C300.405 91.2402 300.289 91.2188 300.184 91.176C300.081 91.1332 299.99 91.0696 299.91 90.9852C299.813 90.8832 299.737 90.7472 299.682 90.5772C299.628 90.4059 299.601 90.1956 299.601 89.9463C299.601 89.702 299.626 89.4816 299.676 89.2851C299.726 89.0874 299.804 88.9155 299.908 88.7694C300.01 88.6271 300.142 88.5163 300.303 88.437C300.464 88.3564 300.651 88.3161 300.862 88.3161C300.925 88.3161 300.984 88.3192 301.038 88.3255C301.092 88.3318 301.14 88.3419 301.182 88.3557V88.7165H301.165C301.131 88.6977 301.082 88.6807 301.017 88.6655C300.953 88.6492 300.884 88.641 300.811 88.641C300.577 88.641 300.388 88.7203 300.243 88.879C300.099 89.0364 300.014 89.2706 299.988 89.5817C300.077 89.5187 300.169 89.4702 300.264 89.4362C300.358 89.4022 300.461 89.3852 300.573 89.3852C300.683 89.3852 300.779 89.3966 300.861 89.4192C300.944 89.4406 301.03 89.4847 301.119 89.5515C301.223 89.6295 301.299 89.7284 301.35 89.848C301.4 89.9677 301.425 90.1081 301.425 90.2693ZM301.042 90.2844C301.042 90.1685 301.027 90.0716 300.997 89.9935C300.966 89.9154 300.917 89.8487 300.849 89.7933C300.8 89.753 300.744 89.7265 300.681 89.7139C300.619 89.7013 300.556 89.695 300.49 89.695C300.402 89.695 300.316 89.7082 300.233 89.7347C300.15 89.7611 300.068 89.7995 299.988 89.8499C299.985 89.8776 299.983 89.9047 299.982 89.9311C299.981 89.9563 299.98 89.9884 299.98 90.0275C299.98 90.2227 299.999 90.3801 300.037 90.4997C300.076 90.6194 300.124 90.71 300.18 90.7717C300.235 90.8309 300.29 90.8725 300.347 90.8964C300.405 90.9203 300.467 90.9323 300.534 90.9323C300.685 90.9323 300.807 90.8781 300.9 90.7698C300.995 90.6615 301.042 90.4997 301.042 90.2844Z" fill="#8C99B2"/>
<path d="M305.572 89.1504H304.928V86.7762H302.697V89.1504H302.052V84.301H302.697V86.203H304.928V84.301H305.572V89.1504Z" fill="#8C99B2"/>
<path d="M307.98 90.2863C307.98 90.4223 307.958 90.5482 307.914 90.6641C307.871 90.7799 307.81 90.88 307.732 90.9644C307.653 91.05 307.554 91.1174 307.436 91.1665C307.319 91.2156 307.187 91.2402 307.041 91.2402C306.906 91.2402 306.773 91.2251 306.642 91.1949C306.513 91.1659 306.4 91.1275 306.304 91.0796V90.6811H306.331C306.36 90.7025 306.401 90.727 306.455 90.7547C306.51 90.7812 306.569 90.8064 306.635 90.8303C306.709 90.8567 306.777 90.8775 306.839 90.8926C306.901 90.9065 306.97 90.9134 307.047 90.9134C307.122 90.9134 307.196 90.9002 307.268 90.8737C307.339 90.846 307.401 90.802 307.453 90.7415C307.499 90.6861 307.535 90.6212 307.559 90.5469C307.584 90.4726 307.596 90.3851 307.596 90.2844C307.596 90.1849 307.582 90.103 307.555 90.0388C307.528 89.9746 307.489 89.9217 307.438 89.8801C307.383 89.8323 307.317 89.7989 307.237 89.78C307.159 89.7599 307.072 89.7498 306.975 89.7498C306.873 89.7498 306.77 89.758 306.667 89.7744C306.564 89.7895 306.481 89.804 306.419 89.8178V88.369H307.963V88.6995H306.784V89.4476C306.829 89.4425 306.874 89.4388 306.918 89.4362C306.962 89.4337 307.003 89.4325 307.039 89.4325C307.183 89.4325 307.304 89.4444 307.404 89.4683C307.503 89.4923 307.599 89.5389 307.691 89.6081C307.784 89.6787 307.855 89.7668 307.904 89.8726C307.955 89.9784 307.98 90.1163 307.98 90.2863Z" fill="#8C99B2"/>
<path d="M310.577 89.2383C310.26 89.2383 309.968 89.1851 309.701 89.0787C309.436 88.9724 309.207 88.8139 309.014 88.6032C308.821 88.3926 308.671 88.1299 308.565 87.8151C308.458 87.5003 308.405 87.1388 308.405 86.7306C308.405 86.3245 308.456 85.9706 308.558 85.6688C308.662 85.367 308.813 85.1043 309.011 84.8807C309.204 84.6636 309.433 84.4985 309.698 84.3856C309.963 84.2706 310.259 84.213 310.587 84.213C310.75 84.213 310.902 84.225 311.043 84.2489C311.186 84.2727 311.319 84.3031 311.44 84.34C311.545 84.3726 311.651 84.4139 311.759 84.4638C311.87 84.5116 311.979 84.5648 312.085 84.6234V85.4018H312.033C311.977 85.3497 311.904 85.2867 311.815 85.2129C311.726 85.1391 311.617 85.0663 311.489 84.9947C311.365 84.9274 311.231 84.872 311.085 84.8286C310.94 84.7851 310.772 84.7634 310.581 84.7634C310.374 84.7634 310.179 84.8058 309.994 84.8904C309.81 84.9751 309.648 85.1 309.509 85.265C309.372 85.43 309.266 85.6374 309.19 85.887C309.114 86.1367 309.076 86.4179 309.076 86.7306C309.076 87.0628 309.116 87.3494 309.196 87.5904C309.277 87.8292 309.386 88.0311 309.525 88.1961C309.66 88.3568 309.818 88.4784 310.001 88.5609C310.183 88.6412 310.376 88.6814 310.581 88.6814C310.767 88.6814 310.94 88.6586 311.098 88.613C311.257 88.5674 311.398 88.5099 311.522 88.4404C311.641 88.3731 311.744 88.3047 311.831 88.2352C311.918 88.1636 311.986 88.1028 312.036 88.0528H312.085V88.8215C311.979 88.8714 311.878 88.9192 311.782 88.9648C311.689 89.0103 311.575 89.0549 311.44 89.0983C311.299 89.1439 311.168 89.1786 311.046 89.2025C310.927 89.2264 310.771 89.2383 310.577 89.2383ZM316.208 89.1504H315.563V86.7762H313.333V89.1504H312.688V84.301H313.333V86.203H315.563V84.301H316.208V89.1504Z" fill="#8C99B2"/>
<path d="M317.665 88.6372C317.597 88.6372 317.529 88.6454 317.461 88.6618C317.393 88.6781 317.327 88.6995 317.261 88.726C317.201 88.7512 317.148 88.7776 317.102 88.8053C317.058 88.833 317.019 88.8588 316.983 88.8828H316.961V88.4842C317.043 88.4401 317.153 88.4005 317.293 88.3652C317.434 88.3287 317.568 88.3104 317.695 88.3104C317.823 88.3104 317.934 88.3236 318.028 88.3501C318.124 88.3753 318.21 88.4149 318.287 88.4691C318.37 88.5295 318.432 88.6026 318.474 88.6882C318.517 88.7738 318.538 88.874 318.538 88.9886C318.538 89.1434 318.487 89.2795 318.385 89.3966C318.283 89.5137 318.161 89.588 318.019 89.6195V89.6459C318.078 89.6572 318.141 89.6768 318.207 89.7045C318.275 89.7322 318.338 89.7731 318.396 89.8273C318.454 89.8814 318.501 89.9513 318.538 90.0369C318.574 90.1213 318.593 90.2246 318.593 90.3467C318.593 90.4739 318.571 90.591 318.527 90.6981C318.484 90.8038 318.423 90.8977 318.343 90.9795C318.262 91.0652 318.163 91.13 318.047 91.1741C317.931 91.2182 317.799 91.2402 317.652 91.2402C317.511 91.2402 317.371 91.2232 317.233 91.1892C317.094 91.1552 316.978 91.1143 316.883 91.0664V90.6678H316.91C316.989 90.7258 317.095 90.7812 317.229 90.8341C317.362 90.887 317.496 90.9134 317.629 90.9134C317.706 90.9134 317.783 90.9014 317.86 90.8775C317.938 90.8523 318.003 90.812 318.054 90.7566C318.105 90.7012 318.143 90.6401 318.17 90.5734C318.196 90.5067 318.209 90.4223 318.209 90.3203C318.209 90.2183 318.194 90.1345 318.164 90.069C318.135 90.0036 318.094 89.9519 318.041 89.9141C317.988 89.8764 317.925 89.8506 317.852 89.8367C317.781 89.8216 317.702 89.814 317.618 89.814H317.457V89.5005H317.582C317.752 89.5005 317.89 89.4602 317.996 89.3796C318.103 89.299 318.156 89.1819 318.156 89.0282C318.156 88.9577 318.143 88.8973 318.115 88.8469C318.087 88.7952 318.052 88.7543 318.009 88.7241C317.961 88.6914 317.908 88.6687 317.85 88.6561C317.792 88.6435 317.731 88.6372 317.665 88.6372Z" fill="#8C99B2"/>
<path opacity="0.2" d="M307.13 71.3999C311.554 71.3999 315.14 67.8137 315.14 63.3899C315.14 58.9661 311.554 55.3799 307.13 55.3799C302.706 55.3799 299.12 58.9661 299.12 63.3899C299.12 67.8137 302.706 71.3999 307.13 71.3999Z" fill="#A2E2FF"/>
<path opacity="0.2" d="M307.13 71.3999C311.554 71.3999 315.14 67.8137 315.14 63.3899C315.14 58.9661 311.554 55.3799 307.13 55.3799C302.706 55.3799 299.12 58.9661 299.12 63.3899C299.12 67.8137 302.706 71.3999 307.13 71.3999Z" stroke="#A2E2FF" stroke-miterlimit="10"/>
<path opacity="0.2" d="M265.67 71.3999C270.094 71.3999 273.68 67.8137 273.68 63.3899C273.68 58.9661 270.094 55.3799 265.67 55.3799C261.246 55.3799 257.66 58.9661 257.66 63.3899C257.66 67.8137 261.246 71.3999 265.67 71.3999Z" fill="#A2E2FF"/>
<path opacity="0.2" d="M265.67 71.3999C270.094 71.3999 273.68 67.8137 273.68 63.3899C273.68 58.9661 270.094 55.3799 265.67 55.3799C261.246 55.3799 257.66 58.9661 257.66 63.3899C257.66 67.8137 261.246 71.3999 265.67 71.3999Z" stroke="#A2E2FF" stroke-miterlimit="10"/>
<path opacity="0.2" d="M224.21 71.3999C228.634 71.3999 232.22 67.8137 232.22 63.3899C232.22 58.9661 228.634 55.3799 224.21 55.3799C219.786 55.3799 216.2 58.9661 216.2 63.3899C216.2 67.8137 219.786 71.3999 224.21 71.3999Z" fill="#A2E2FF"/>
<path opacity="0.2" d="M224.21 71.3999C228.634 71.3999 232.22 67.8137 232.22 63.3899C232.22 58.9661 228.634 55.3799 224.21 55.3799C219.786 55.3799 216.2 58.9661 216.2 63.3899C216.2 67.8137 219.786 71.3999 224.21 71.3999Z" stroke="#A2E2FF" stroke-miterlimit="10"/>
<path opacity="0.2" d="M141.3 71.3999C145.724 71.3999 149.31 67.8137 149.31 63.3899C149.31 58.9661 145.724 55.3799 141.3 55.3799C136.876 55.3799 133.29 58.9661 133.29 63.3899C133.29 67.8137 136.876 71.3999 141.3 71.3999Z" fill="#A2E2FF"/>
<path opacity="0.2" d="M141.3 71.3999C145.724 71.3999 149.31 67.8137 149.31 63.3899C149.31 58.9661 145.724 55.3799 141.3 55.3799C136.876 55.3799 133.29 58.9661 133.29 63.3899C133.29 67.8137 136.876 71.3999 141.3 71.3999Z" stroke="#A2E2FF" stroke-miterlimit="10"/>
<path opacity="0.1" d="M99.84 53.4998C107.213 53.4998 113.19 47.5228 113.19 40.1498C113.19 32.7768 107.213 26.7998 99.84 26.7998C92.467 26.7998 86.49 32.7768 86.49 40.1498C86.49 47.5228 92.467 53.4998 99.84 53.4998Z" fill="#F7931E"/>
<path d="M99.84 53.4998C107.213 53.4998 113.19 47.5228 113.19 40.1498C113.19 32.7768 107.213 26.7998 99.84 26.7998C92.467 26.7998 86.49 32.7768 86.49 40.1498C86.49 47.5228 92.467 53.4998 99.84 53.4998Z" stroke="#F7931E" stroke-miterlimit="10"/>
<path opacity="0.2" d="M58.38 64.5397C64.2784 64.5397 69.06 59.7581 69.06 53.8597C69.06 47.9613 64.2784 43.1797 58.38 43.1797C52.4816 43.1797 47.7 47.9613 47.7 53.8597C47.7 59.7581 52.4816 64.5397 58.38 64.5397Z" fill="#8C99B2" fill-opacity="0.2"/>
<path d="M58.38 64.5397C64.2784 64.5397 69.06 59.7581 69.06 53.8597C69.06 47.9613 64.2784 43.1797 58.38 43.1797C52.4816 43.1797 47.7 47.9613 47.7 53.8597C47.7 59.7581 52.4816 64.5397 58.38 64.5397Z" stroke="#8C99B2" stroke-miterlimit="10"/>
<path opacity="0.2" d="M182.75 59.1998C188.648 59.1998 193.43 54.4182 193.43 48.5198C193.43 42.6214 188.648 37.8398 182.75 37.8398C176.852 37.8398 172.07 42.6214 172.07 48.5198C172.07 54.4182 176.852 59.1998 182.75 59.1998Z" fill="#8C99B2" fill-opacity="0.2"/>
<path d="M182.75 59.1998C188.648 59.1998 193.43 54.4182 193.43 48.5198C193.43 42.6214 188.648 37.8398 182.75 37.8398C176.852 37.8398 172.07 42.6214 172.07 48.5198C172.07 54.4182 176.852 59.1998 182.75 59.1998Z" stroke="#8C99B2" stroke-miterlimit="10"/>
<path opacity="0.2" d="M16.92 47.1598C22.8184 47.1598 27.6 42.3782 27.6 36.4798C27.6 30.5814 22.8184 25.7998 16.92 25.7998C11.0216 25.7998 6.24 30.5814 6.24 36.4798C6.24 42.3782 11.0216 47.1598 16.92 47.1598Z" fill="#8C99B2" fill-opacity="0.2"/>
<path d="M16.92 47.1598C22.8184 47.1598 27.6 42.3782 27.6 36.4798C27.6 30.5814 22.8184 25.7998 16.92 25.7998C11.0216 25.7998 6.24 30.5814 6.24 36.4798C6.24 42.3782 11.0216 47.1598 16.92 47.1598Z" stroke="#8C99B2" stroke-miterlimit="10"/>
</svg>
