<svg width="324" height="117" viewBox="0 0 324 117" fill="none" xmlns="http://www.w3.org/2000/svg">
<g opacity="0.3">
<path opacity="0.3" d="M45.67 9.73L44.4 8.58H9L5.76 11.91V13.34H6.19L9.29 10.13H315L318.21 13.45H318.63V12L315.33 8.56H230.83L229.57 9.71L45.67 9.73ZM10.9 9L10.25 9.71H9.7L10.35 9H10.9ZM11.85 9L11.2 9.71H10.65L11.31 9H11.85ZM312.94 9L313.59 9.71H313L312.39 9H312.94ZM313.89 9L314.54 9.71H314L313.34 9H313.89ZM315.49 9.71H315L314.3 9H314.84L315.49 9.71ZM8.75 9.71L9.4 9H10L9.35 9.71H8.75Z" fill="#8C99B2"/>
<path opacity="0.3" d="M229.53 102.8L230.79 103.94H315.29L318.59 100.51V99.08H318.17L315 102.4H9.29L6.19 99.19H5.76V100.62L9 103.94H44.4L45.67 102.8H229.53ZM10.35 103.53L9.7 102.82H10.25L10.9 103.53H10.35ZM11.35 103.53L10.69 102.82H11.24L11.89 103.53H11.35ZM312.43 103.53L313.08 102.82H313.63L312.98 103.53H312.43ZM313.38 103.53L314.03 102.82H314.58L313.93 103.53H313.38ZM314.88 103.53H314.34L314.99 102.82H315.53L314.88 103.53ZM9.3 102.82L9.95 103.53H9.4L8.75 102.82H9.3Z" fill="#8C99B2"/>
</g>
<g opacity="0.2">
<g opacity="0.2">
<path opacity="0.2" d="M292.27 10.25H6.61V22.12H292.27V10.25Z" fill="#8C99B2"/>
<path opacity="0.2" d="M292.27 22.11H6.61V24.4H292.27V22.11Z" fill="#8C99B2"/>
</g>
</g>
<path d="M15.83 15.59H14.93V17.85H14.49V15.59H13.6V15.2H15.83V15.59Z" fill="#8C99B2"/>
<path d="M18.1 17C18.1047 17.1217 18.0771 17.2424 18.02 17.35C17.9732 17.4475 17.9048 17.533 17.82 17.6C17.7216 17.6768 17.6096 17.7344 17.49 17.77C17.3393 17.8055 17.1848 17.8222 17.03 17.82H16.15V15.2H16.6V16.2H17C17.153 16.1865 17.307 16.1865 17.46 16.2C17.5799 16.2244 17.6927 16.2757 17.79 16.35C17.8785 16.4175 17.9475 16.5072 17.99 16.61C18.0572 16.7294 18.0949 16.8631 18.1 17ZM17.65 17C17.667 16.9277 17.667 16.8524 17.65 16.78C17.6243 16.7171 17.5786 16.6644 17.52 16.63C17.4504 16.5963 17.3763 16.5727 17.3 16.56H16.6V17.46H16.88C16.9997 17.4718 17.1203 17.4718 17.24 17.46C17.317 17.4504 17.3916 17.4267 17.46 17.39C17.5192 17.3534 17.5676 17.3016 17.6 17.24C17.6381 17.166 17.6554 17.0831 17.65 17ZM18.85 17.81H18.41V15.2H18.85V17.81Z" fill="#8C99B2"/>
<path d="M20.53 17.91C20.3591 17.9119 20.1895 17.8813 20.03 17.82C19.884 17.7706 19.7532 17.6845 19.65 17.57C19.5327 17.4476 19.4439 17.3007 19.39 17.14C19.3349 16.9414 19.308 16.7361 19.31 16.53C19.305 16.3263 19.3355 16.1233 19.4 15.93C19.4507 15.77 19.536 15.6232 19.65 15.5C19.752 15.3795 19.8827 15.2866 20.03 15.23C20.1897 15.1695 20.3592 15.139 20.53 15.14C20.6721 15.1402 20.8135 15.1604 20.95 15.2C21.0703 15.2371 21.1873 15.2839 21.3 15.34V15.84L21.18 15.75L21 15.64L20.78 15.56C20.7003 15.5503 20.6197 15.5503 20.54 15.56C20.4333 15.5572 20.3276 15.5803 20.2318 15.6273C20.136 15.6743 20.053 15.7439 19.99 15.83C19.8364 16.0449 19.7622 16.3064 19.78 16.57C19.7676 16.8284 19.8376 17.084 19.98 17.3C20.0462 17.3844 20.1315 17.452 20.2288 17.4972C20.3261 17.5424 20.4328 17.5639 20.54 17.56C20.6815 17.5593 20.8212 17.5286 20.95 17.47C21.0775 17.4112 21.1954 17.3336 21.3 17.24V17.74L21.14 17.81L20.96 17.88L20.76 17.93L20.53 17.91Z" fill="#8C99B2"/>
<path d="M22.39 17.85H21.83V17.17H22.39V17.85Z" fill="#8C99B2"/>
<path d="M26.58 15.59H25.69V17.85H25.25V15.59H24.35V15.2H26.58V15.59Z" fill="#8C99B2"/>
<path d="M29 17.85H28.56V16.66H27.35V17.85H26.91V15.2H27.35V16.27H28.54V15.2H29V17.85Z" fill="#8C99B2"/>
<path d="M30.3 17.85H29.74V17.17H30.3V17.85Z" fill="#8C99B2"/>
<path d="M259.27 17.53H258.8V14.41H257.18V17.53H256.71V14H259.27V17.53Z" fill="#8C99B2"/>
<path d="M262 17.53H261.55V15.25H260.64C260.64 15.39 260.64 15.51 260.64 15.63C260.64 15.75 260.64 15.86 260.64 15.96C260.64 16.06 260.64 16.42 260.59 16.58C260.577 16.7199 260.547 16.8576 260.5 16.99C260.475 17.075 260.438 17.1558 260.39 17.23C260.349 17.2878 260.302 17.3414 260.25 17.39C260.198 17.4335 260.141 17.4705 260.08 17.5C260.01 17.5097 259.94 17.5097 259.87 17.5H259.69V17.11H259.9C259.935 17.0997 259.967 17.0787 259.99 17.05C260.086 16.9324 260.149 16.7906 260.17 16.64C260.17 16.45 260.23 16.17 260.25 15.83C260.25 15.7 260.25 15.54 260.25 15.37C260.25 15.2 260.25 15.02 260.25 14.86H262V17.53Z" fill="#8C99B2"/>
<path d="M264.13 17.25L263.98 17.36C263.931 17.4069 263.873 17.4441 263.81 17.47C263.738 17.514 263.661 17.5477 263.58 17.57C263.477 17.5829 263.373 17.5829 263.27 17.57C263.164 17.5705 263.058 17.5501 262.96 17.51C262.863 17.4713 262.774 17.4135 262.7 17.34C262.624 17.2636 262.566 17.1714 262.53 17.07C262.49 16.961 262.47 16.8459 262.47 16.73C262.462 16.5661 262.5 16.4033 262.58 16.26C262.69 16.1322 262.837 16.0414 263 16C263.17 15.932 263.348 15.885 263.53 15.86L264.18 15.81V15.7C264.187 15.6136 264.169 15.5271 264.13 15.45C264.106 15.3858 264.06 15.3324 264 15.3C263.936 15.2606 263.865 15.2366 263.79 15.23C263.707 15.2201 263.623 15.2201 263.54 15.23C263.421 15.2125 263.299 15.2125 263.18 15.23C263.036 15.2595 262.895 15.303 262.76 15.36V14.91C262.878 14.8747 262.998 14.8479 263.12 14.83C263.27 14.8151 263.42 14.8151 263.57 14.83C263.723 14.8123 263.877 14.8123 264.03 14.83C264.152 14.8583 264.267 14.9092 264.37 14.98C264.464 15.0524 264.537 15.1492 264.58 15.26C264.631 15.3973 264.655 15.5434 264.65 15.69V17.5H264.21L264.13 17.25ZM264.13 16.88V16.14H263.73C263.598 16.1531 263.468 16.1765 263.34 16.21C263.228 16.2422 263.125 16.3005 263.04 16.38C263 16.4205 262.97 16.4693 262.951 16.5228C262.932 16.5764 262.925 16.6334 262.93 16.69C262.926 16.7534 262.934 16.8169 262.955 16.877C262.976 16.9371 263.008 16.9925 263.05 17.04C263.16 17.1193 263.294 17.1581 263.43 17.15C263.562 17.1523 263.693 17.1213 263.81 17.06C263.923 17.012 264.03 16.9516 264.13 16.88Z" fill="#8C99B2"/>
<path d="M267.29 17.53H266.85V16.34H265.65V17.53H265.2V14.88H265.65V16H266.85V14.88H267.29V17.53Z" fill="#8C99B2"/>
<path d="M280.2 15.73C280.205 15.928 280.171 16.1252 280.1 16.31C280.042 16.4684 279.95 16.6119 279.83 16.73C279.694 16.8638 279.53 16.9662 279.35 17.03C279.164 17.0973 278.968 17.1344 278.77 17.14V17.57H278.31V17.14C278.112 17.1335 277.917 17.0964 277.73 17.03C277.55 16.9713 277.386 16.8721 277.25 16.74C277.132 16.6165 277.04 16.4702 276.98 16.31C276.91 16.1249 276.876 15.928 276.88 15.73C276.877 15.5395 276.908 15.35 276.97 15.17C277.036 15.016 277.127 14.874 277.24 14.75C277.367 14.6143 277.525 14.5114 277.7 14.45C277.895 14.3766 278.101 14.3361 278.31 14.33V13.94H278.77V14.33C278.982 14.3369 279.191 14.3774 279.39 14.45C279.564 14.5141 279.721 14.6166 279.85 14.75C279.967 14.8687 280.056 15.0123 280.11 15.17C280.173 15.3498 280.204 15.5395 280.2 15.73ZM278.31 16.78V14.69C278.177 14.6951 278.046 14.7187 277.92 14.76C277.811 14.8017 277.712 14.8665 277.63 14.95C277.541 15.0444 277.472 15.157 277.43 15.28C277.388 15.4195 277.368 15.5645 277.37 15.71C277.365 15.8729 277.389 16.0353 277.44 16.19C277.478 16.3232 277.55 16.444 277.65 16.54C277.733 16.6117 277.828 16.6691 277.93 16.71C278.05 16.76 278.18 16.7838 278.31 16.78ZM279.71 15.71C279.712 15.5645 279.692 15.4195 279.65 15.28C279.608 15.157 279.539 15.0444 279.45 14.95C279.371 14.8634 279.271 14.798 279.16 14.76C279.034 14.7178 278.903 14.6942 278.77 14.69V16.78C278.903 16.7829 279.036 16.7591 279.16 16.71C279.261 16.6739 279.354 16.6159 279.43 16.54C279.529 16.4418 279.604 16.322 279.65 16.19C279.692 16.0336 279.712 15.872 279.71 15.71Z" fill="#0089FF"/>
<path d="M282.16 17.25L282.02 17.36C281.967 17.4073 281.906 17.4446 281.84 17.47C281.768 17.514 281.691 17.5477 281.61 17.57C281.507 17.5829 281.403 17.5829 281.3 17.57C281.194 17.5705 281.088 17.5501 280.99 17.51C280.894 17.4688 280.806 17.4113 280.73 17.34C280.654 17.2636 280.596 17.1714 280.56 17.07C280.52 16.961 280.5 16.8459 280.5 16.73C280.498 16.5667 280.535 16.4053 280.61 16.26C280.712 16.1372 280.847 16.0469 281 16C281.171 15.9332 281.349 15.8863 281.53 15.86L282.18 15.81V15.7C282.187 15.6136 282.169 15.5271 282.13 15.45C282.106 15.3858 282.06 15.3324 282 15.3C281.938 15.2574 281.865 15.2331 281.79 15.23C281.707 15.2195 281.623 15.2195 281.54 15.23C281.421 15.2132 281.299 15.2132 281.18 15.23C281.036 15.2595 280.895 15.303 280.76 15.36V14.91L281.12 14.83C281.27 14.8151 281.42 14.8151 281.57 14.83C281.723 14.8123 281.877 14.8123 282.03 14.83C282.152 14.8583 282.267 14.9092 282.37 14.98C282.467 15.0495 282.54 15.1472 282.58 15.26C282.635 15.3965 282.662 15.5427 282.66 15.69V17.5H282.21L282.16 17.25ZM282.16 16.88V16.14H281.76C281.628 16.1531 281.498 16.1765 281.37 16.21C281.258 16.2422 281.155 16.3005 281.07 16.38C280.994 16.4647 280.954 16.5762 280.96 16.69C280.955 16.7542 280.965 16.8187 280.987 16.8791C281.009 16.9395 281.045 16.9943 281.09 17.04C281.196 17.1193 281.328 17.1583 281.46 17.15C281.592 17.1523 281.723 17.1213 281.84 17.06C281.954 17.0143 282.062 16.9538 282.16 16.88Z" fill="#0089FF"/>
<path d="M285.36 17.53H284.81L283.9 16.31H283.68V17.53H283.23V14.88H283.68V16C283.789 16.0074 283.898 15.978 283.989 15.9163C284.079 15.8547 284.147 15.7644 284.18 15.66L284.24 15.52C284.26 15.4744 284.276 15.4277 284.29 15.38C284.341 15.2164 284.443 15.073 284.58 14.97C284.725 14.8833 284.892 14.8415 285.06 14.85H285.18V15.23H285.08C284.98 15.2241 284.882 15.2523 284.8 15.31C284.723 15.3873 284.667 15.484 284.64 15.59C284.609 15.7066 284.555 15.8156 284.48 15.91C284.43 15.9825 284.365 16.0437 284.29 16.09L285.36 17.53Z" fill="#0089FF"/>
<path d="M287.59 15.27H286.69V17.53H286.24V15.27H285.34V14.88H287.59V15.27Z" fill="#0089FF"/>
<path d="M8.07 27.53H7.85V98.53H8.07V27.53Z" fill="#8C99B2"/>
<path d="M289.71 91.37H7.87V91.59H289.71V91.37Z" fill="#8C99B2"/>
<path d="M289.55 91.05L290.51 91.6L289.55 92.16V91.05Z" fill="#8C99B2"/>
<path d="M290.02 60.99H8.03V61.44H290.02V60.99Z" fill="#0089FF"/>
<g opacity="0.2">
<g opacity="0.2">
<path opacity="0.2" d="M290.59 73.74H7.88V83.9H290.59V73.74Z" fill="#FF1D25"/>
</g>
</g>
<g opacity="0.7">
<path opacity="0.7" d="M316.86 20.17H306.93L301.7 15V11.14H311.64L316.86 16.36V20.17Z" fill="white" fill-opacity="0.5"/>
<path opacity="0.7" d="M317 20.28H304.33L301.6 17.54V11H314.23L317 13.77V20.28ZM304.45 20.07H316.78V13.86L314.17 11.25H301.81V17.45L304.45 20.07Z" fill="#8C99B2"/>
<path opacity="0.7" d="M311.89 18.21H306.76C306.495 18.21 306.24 18.1046 306.053 17.9171C305.865 17.7296 305.76 17.4752 305.76 17.21V14.12C305.76 13.8548 305.865 13.6004 306.053 13.4129C306.24 13.2254 306.495 13.12 306.76 13.12H311.89C312.155 13.12 312.41 13.2254 312.597 13.4129C312.785 13.6004 312.89 13.8548 312.89 14.12V17.17C312.895 17.3046 312.874 17.439 312.826 17.565C312.778 17.691 312.705 17.806 312.612 17.9031C312.518 18.0002 312.406 18.0775 312.282 18.1302C312.158 18.183 312.025 18.2101 311.89 18.21ZM306.76 13.31C306.545 13.31 306.339 13.3953 306.187 13.5472C306.035 13.6991 305.95 13.9052 305.95 14.12V17.17C305.95 17.3848 306.035 17.5908 306.187 17.7428C306.339 17.8947 306.545 17.98 306.76 17.98H311.89C312.105 17.98 312.311 17.8947 312.463 17.7428C312.615 17.5908 312.7 17.3848 312.7 17.17V14.12C312.7 13.9052 312.615 13.6991 312.463 13.5472C312.311 13.3953 312.105 13.31 311.89 13.31H306.76Z" fill="#8C99B2"/>
<path opacity="0.7" d="M312.15 15.25H311.93V14.19C311.93 14.1502 311.914 14.1121 311.886 14.0839C311.858 14.0558 311.82 14.04 311.78 14.04H310.59V13.82H311.78C311.877 13.8225 311.97 13.8623 312.039 13.9312C312.108 14 312.147 14.0927 312.15 14.19V15.25Z" fill="#8C99B2"/>
<path opacity="0.7" d="M308 17.43H306.81C306.762 17.4313 306.714 17.423 306.669 17.4055C306.624 17.388 306.583 17.3617 306.549 17.3282C306.514 17.2946 306.487 17.2545 306.468 17.2101C306.45 17.1658 306.44 17.1181 306.44 17.07V16H306.66V17.06C306.663 17.098 306.679 17.1337 306.707 17.1597C306.735 17.1857 306.772 17.2001 306.81 17.2H308V17.43Z" fill="#8C99B2"/>
</g>
<g opacity="0.5">
<path opacity="0.5" d="M39.67 21H7.51V14.5L10.73 11.28H42.73L39.63 14.41L39.67 21Z" fill="white" fill-opacity="0.5"/>
<path opacity="0.5" d="M39.77 21.13H7.41V14.47L10.66 11.22H43L42.82 11.4L41 13.23L39.76 14.48L39.77 21.13ZM7.62 20.91H39.56V14.39C39.88 14.08 40.33 13.62 40.82 13.12C41.31 12.62 41.95 11.97 42.48 11.45H10.78L7.62 14.56V20.91Z" fill="#8C99B2"/>
</g>
<g opacity="0.1">
<path opacity="0.1" d="M316.54 104H292.48V10.35H316.54L317.66 11.47V102.87L316.54 104Z" fill="#8C99B2"/>
</g>
<path d="M307 80.2H305.87V79.83H307V80.2Z" fill="#FF1D25"/>
<path d="M309.24 80.38C309.243 80.5166 309.219 80.6525 309.17 80.78C309.129 80.8983 309.064 81.0071 308.98 81.1C308.894 81.1953 308.788 81.2704 308.67 81.32C308.536 81.3725 308.394 81.3996 308.25 81.4C308.109 81.3982 307.968 81.3815 307.83 81.35C307.705 81.3252 307.585 81.2849 307.47 81.23V80.8L307.6 80.88L307.79 80.96L308 81C308.073 81.0104 308.147 81.0104 308.22 81C308.299 81.014 308.381 81.014 308.46 81C308.535 80.972 308.601 80.9235 308.65 80.86C308.699 80.7994 308.74 80.7321 308.77 80.66C308.782 80.5637 308.782 80.4663 308.77 80.37C308.787 80.2842 308.787 80.1959 308.77 80.11C308.742 80.0458 308.701 79.988 308.65 79.94C308.589 79.888 308.517 79.8504 308.44 79.83C308.347 79.8197 308.253 79.8197 308.16 79.83C308.05 79.8201 307.94 79.8201 307.83 79.83C307.744 79.8215 307.656 79.8215 307.57 79.83V78.33H309.2V78.68H308V79.48H308.27C308.396 79.4675 308.524 79.4675 308.65 79.48C308.761 79.5117 308.866 79.5625 308.96 79.63C309.052 79.7068 309.127 79.8022 309.18 79.91C309.237 80.0596 309.258 80.2208 309.24 80.38Z" fill="#FF1D25"/>
<path d="M311.56 80.36C311.559 80.507 311.532 80.6527 311.48 80.79C311.436 80.9093 311.368 81.0183 311.28 81.11C311.197 81.2036 311.094 81.2786 310.98 81.33C310.862 81.3752 310.737 81.3989 310.61 81.4C310.487 81.3991 310.365 81.3753 310.25 81.33C310.138 81.2791 310.036 81.2079 309.95 81.12C309.841 80.9951 309.759 80.8486 309.71 80.69C309.603 80.2328 309.603 79.7572 309.71 79.3C309.755 79.1032 309.836 78.9167 309.95 78.75C310.058 78.5998 310.203 78.4795 310.37 78.4C310.553 78.3091 310.756 78.2644 310.96 78.27H311.15H311.3V78.66L311.15 78.6C311.077 78.5896 311.003 78.5896 310.93 78.6C310.818 78.5947 310.706 78.6144 310.602 78.6576C310.498 78.7008 310.405 78.7665 310.33 78.85C310.154 79.0603 310.059 79.326 310.06 79.6C310.149 79.5363 310.247 79.4858 310.35 79.45C310.455 79.409 310.567 79.3887 310.68 79.39C310.779 79.3749 310.881 79.3749 310.98 79.39C311.082 79.418 311.177 79.4656 311.26 79.53C311.367 79.6137 311.45 79.724 311.5 79.85C311.555 80.014 311.576 80.1877 311.56 80.36ZM311.15 80.36C311.172 80.2578 311.172 80.1522 311.15 80.05C311.123 79.977 311.079 79.9116 311.022 79.8593C310.965 79.8071 310.895 79.7696 310.82 79.75H310.62C310.528 79.7501 310.436 79.7671 310.35 79.8C310.257 79.8255 310.17 79.8661 310.09 79.92C310.085 79.9498 310.085 79.9802 310.09 80.01V80.11C310.084 80.2787 310.105 80.4474 310.15 80.61C310.179 80.7191 310.23 80.8211 310.3 80.91C310.352 80.9629 310.413 81.0068 310.48 81.04C310.543 81.0504 310.607 81.0504 310.67 81.04C310.745 81.0423 310.819 81.0273 310.886 80.9961C310.954 80.9648 311.013 80.9182 311.06 80.86C311.143 80.7112 311.175 80.5388 311.15 80.37V80.36Z" fill="#FF1D25"/>
<path d="M305.2 82.1H298.26L301.73 76.1L305.2 82.1ZM299 81.65H304.4L301.73 77L299 81.65Z" fill="#FF1D25"/>
<path d="M51.34 15.28C51.4702 15.4345 51.5657 15.6153 51.62 15.81C51.7531 16.2773 51.7531 16.7726 51.62 17.24C51.5657 17.4347 51.4702 17.6154 51.34 17.77C51.2197 17.9222 51.0609 18.0396 50.88 18.11C50.5073 18.2571 50.0927 18.2571 49.72 18.11C49.5445 18.035 49.39 17.9183 49.27 17.77C49.1398 17.6154 49.0443 17.4347 48.99 17.24C48.9182 17.0103 48.8845 16.7705 48.89 16.53C48.8846 16.2862 48.9184 16.0431 48.99 15.81C49.0487 15.6171 49.1437 15.4372 49.27 15.28C49.3954 15.1398 49.5487 15.0274 49.72 14.95C49.9044 14.8763 50.1014 14.8389 50.3 14.84C50.5031 14.8361 50.7046 14.877 50.89 14.96C51.0644 15.0274 51.2191 15.1374 51.34 15.28ZM51.28 16.53C51.2852 16.3376 51.2616 16.1454 51.21 15.96C51.1755 15.8117 51.1108 15.6722 51.02 15.55C50.9388 15.4424 50.8323 15.3566 50.71 15.3C50.5857 15.2385 50.4486 15.2077 50.31 15.21C50.1692 15.2075 50.0295 15.2347 49.9 15.29C49.779 15.3531 49.6732 15.4418 49.59 15.55C49.5013 15.6734 49.4368 15.8125 49.4 15.96C49.3494 16.1456 49.3258 16.3376 49.33 16.53C49.3043 16.8843 49.3995 17.2368 49.6 17.53C49.6832 17.6379 49.7912 17.7242 49.9147 17.7816C50.0383 17.839 50.1739 17.8659 50.31 17.86C50.4458 17.8635 50.5805 17.8355 50.7037 17.7783C50.8269 17.721 50.9352 17.636 51.02 17.53C51.2128 17.2337 51.3041 16.8827 51.28 16.53Z" fill="#606580"/>
<path d="M53.92 16.08H53.1V18.15H52.69V16.08H51.88V15.72H53.88L53.92 16.08Z" fill="#606580"/>
<path d="M56.16 18.15H55.65L54.83 17H54.62V18.12H54.22V15.72H54.62V16.78C54.7139 16.7759 54.8059 16.752 54.89 16.71C54.9807 16.6515 55.048 16.5631 55.08 16.46C55.08 16.46 55.08 16.38 55.13 16.33V16.21C55.1713 16.0577 55.263 15.9237 55.39 15.83C55.5215 15.7482 55.6754 15.7097 55.83 15.72H56V16.07H55.9C55.8077 16.0608 55.7152 16.0857 55.64 16.14C55.5727 16.2139 55.5247 16.3032 55.5 16.4C55.4693 16.5036 55.422 16.6016 55.36 16.69C55.3078 16.7544 55.2472 16.8115 55.18 16.86L56.16 18.15Z" fill="#606580"/>
<path d="M58.28 18.15H57.88V16.06H57.05C57.05 16.18 57.05 16.3 57.05 16.41C57.05 16.52 57.05 16.62 57.05 16.71C57.05 16.8 57.05 17.13 57.05 17.28C57.0356 17.4057 57.0088 17.5296 56.97 17.65C56.9456 17.7319 56.9084 17.8095 56.86 17.88C56.8255 17.9311 56.7852 17.9781 56.74 18.02C56.6957 18.0659 56.6407 18.1003 56.58 18.12C56.5171 18.1305 56.4529 18.1305 56.39 18.12H56.23V17.76H56.32H56.42C56.4542 17.7471 56.485 17.7266 56.51 17.7C56.5959 17.5945 56.6481 17.4656 56.66 17.33C56.7051 17.0859 56.7285 16.8383 56.73 16.59C56.73 16.47 56.73 16.33 56.73 16.16C56.73 15.99 56.73 15.85 56.73 15.7H58.32L58.28 18.15Z" fill="#606580"/>
<path d="M60.85 16.93C60.8728 17.2731 60.7657 17.6122 60.55 17.88C60.453 17.9906 60.3328 18.0783 60.198 18.1371C60.0631 18.1959 59.917 18.2242 59.77 18.22C59.6205 18.2244 59.472 18.1953 59.3352 18.1347C59.1985 18.0742 59.0771 17.9837 58.98 17.87C58.778 17.5999 58.6787 17.2667 58.7 16.93C58.6859 16.5942 58.7923 16.2643 59 16C59.097 15.8895 59.2172 15.8017 59.352 15.7429C59.4869 15.6841 59.633 15.6558 59.78 15.66C59.927 15.6558 60.0731 15.6841 60.208 15.7429C60.3428 15.8017 60.463 15.8895 60.56 16C60.7682 16.2636 60.8715 16.5948 60.85 16.93ZM60.43 16.93C60.4451 16.6849 60.3858 16.4409 60.26 16.23C60.2032 16.1547 60.1289 16.0944 60.0435 16.0543C59.9581 16.0143 59.8642 15.9956 59.77 16C59.6772 15.9955 59.5847 16.0142 59.5009 16.0543C59.4171 16.0945 59.3446 16.1549 59.29 16.23C59.1718 16.4444 59.1098 16.6852 59.1098 16.93C59.1098 17.1748 59.1718 17.4156 59.29 17.63C59.3433 17.7065 59.4156 17.7679 59.4997 17.8083C59.5838 17.8486 59.6769 17.8664 59.77 17.86C59.8643 17.8653 59.9585 17.847 60.044 17.8069C60.1296 17.7667 60.2038 17.706 60.26 17.63C60.3882 17.4201 60.4477 17.1754 60.43 16.93Z" fill="#606580"/>
<path d="M63.16 18.15H62.76V17.05H61.67V18.15H61.26V15.72H61.67V16.72H62.76V15.72H63.16V18.15Z" fill="#606580"/>
<path d="M64.79 18.21C64.6269 18.2196 64.4636 18.1953 64.3104 18.1384C64.1572 18.0816 64.0174 17.9936 63.9 17.88C63.6757 17.6239 63.5608 17.29 63.58 16.95C63.561 16.6057 63.6716 16.2668 63.89 16C63.9892 15.8836 64.1139 15.7915 64.2543 15.7308C64.3947 15.6702 64.5472 15.6425 64.7 15.65C64.8334 15.6471 64.966 15.6709 65.09 15.72C65.206 15.7589 65.3095 15.8279 65.39 15.92C65.4786 16.0189 65.5466 16.1345 65.59 16.26C65.6412 16.4181 65.6649 16.5839 65.66 16.75V17H64C63.9913 17.1152 64.0053 17.2311 64.0413 17.3409C64.0774 17.4507 64.1347 17.5523 64.21 17.64C64.2868 17.7175 64.379 17.778 64.4806 17.8176C64.5822 17.8572 64.691 17.8751 64.8 17.87C64.8864 17.8798 64.9736 17.8798 65.06 17.87L65.29 17.79L65.48 17.69L65.6 17.6V18L65.43 18.07L65.24 18.14L65.02 18.19L64.79 18.21ZM65.27 16.66C65.277 16.5668 65.277 16.4732 65.27 16.38C65.2449 16.3064 65.2114 16.2359 65.17 16.17C65.1294 16.0993 65.0707 16.0406 65 16C64.9079 15.9783 64.8121 15.9783 64.72 16C64.6315 15.9771 64.5385 15.9771 64.45 16C64.3713 16.0322 64.2999 16.0797 64.2398 16.1398C64.1797 16.1999 64.1322 16.2714 64.1 16.35C64.0684 16.437 64.0482 16.5278 64.04 16.62L65.27 16.66Z" fill="#606580"/>
<path d="M68 18.15H67.59V17.05H66.47V18.15H66.07V15.72H66.47V16.72H67.56V15.72H68V18.15Z" fill="#606580"/>
<path d="M70.45 18.15H70.05V16.34L68.92 18.15H68.55V15.72H69V17.5L70.13 15.72H70.5L70.45 18.15Z" fill="#606580"/>
<path d="M72.78 18.15H72.38V17.15H72L71.28 18.15H70.81L71.59 17.15C71.4184 17.1091 71.2642 17.0145 71.15 16.88C71.052 16.7434 71.0027 16.5779 71.01 16.41C71.0045 16.2978 71.0324 16.1865 71.09 16.09C71.1434 15.9997 71.2149 15.9214 71.3 15.86C71.3829 15.8079 71.4743 15.7707 71.57 15.75C71.6931 15.7388 71.8169 15.7388 71.94 15.75H72.8L72.78 18.15ZM72.38 16.86V16H71.94H71.72C71.6633 16.0094 71.6089 16.0297 71.56 16.06C71.5078 16.0903 71.466 16.1356 71.44 16.19C71.4297 16.2462 71.4297 16.3038 71.44 16.36C71.428 16.4261 71.428 16.4939 71.44 16.56C71.4631 16.6132 71.4971 16.6609 71.54 16.7C71.5917 16.7424 71.6539 16.7701 71.72 16.78C71.7997 16.7896 71.8803 16.7896 71.96 16.78L72.38 16.86Z" fill="#606580"/>
<path d="M76.65 18.15H76.24V16.07H75.15V18.15H74.75V15.72H76.65V18.15Z" fill="#606580"/>
<path d="M79.22 16.93C79.2428 17.2731 79.1357 17.6122 78.92 17.88C78.823 17.9905 78.7028 18.0783 78.568 18.1371C78.4331 18.1959 78.287 18.2242 78.14 18.22C77.9905 18.2244 77.842 18.1953 77.7052 18.1347C77.5685 18.0742 77.4471 17.9837 77.35 17.87C77.1452 17.6008 77.0425 17.2678 77.06 16.93C77.0388 16.5902 77.1459 16.2547 77.36 15.99C77.457 15.8795 77.5772 15.7917 77.712 15.7329C77.8469 15.6741 77.993 15.6458 78.14 15.65C78.287 15.6458 78.4331 15.6741 78.568 15.7329C78.7028 15.7917 78.823 15.8795 78.92 15.99C79.1341 16.2547 79.2412 16.5902 79.22 16.93ZM78.8 16.93C78.8151 16.6849 78.7558 16.4409 78.63 16.23C78.57 16.155 78.494 16.0944 78.4074 16.0528C78.3209 16.0111 78.226 15.9895 78.13 15.9895C78.034 15.9895 77.9391 16.0111 77.8526 16.0528C77.766 16.0944 77.69 16.155 77.63 16.23C77.5186 16.4465 77.4605 16.6865 77.4605 16.93C77.4605 17.1735 77.5186 17.4135 77.63 17.63C77.69 17.705 77.766 17.7656 77.8526 17.8072C77.9391 17.8489 78.034 17.8705 78.13 17.8705C78.226 17.8705 78.3209 17.8489 78.4074 17.8072C78.494 17.7656 78.57 17.705 78.63 17.63C78.7582 17.4201 78.8177 17.1753 78.8 16.93Z" fill="#606580"/>
<path d="M82.9 17.41C82.8982 17.5202 82.8744 17.629 82.83 17.73C82.787 17.8157 82.7255 17.8908 82.65 17.95C82.559 18.0244 82.4534 18.0789 82.34 18.11C82.2139 18.1263 82.0861 18.1263 81.96 18.11H81V15.72H82.27C82.3544 15.7365 82.4355 15.7669 82.51 15.81C82.5909 15.8482 82.6575 15.9113 82.7 15.99C82.7419 16.0772 82.7625 16.1732 82.76 16.27C82.7611 16.3799 82.7298 16.4877 82.67 16.58C82.6038 16.6682 82.5183 16.74 82.42 16.79C82.5522 16.8217 82.6696 16.8973 82.7532 17.0045C82.8368 17.1117 82.8815 17.2441 82.88 17.38L82.9 17.41ZM82.36 16.34C82.3703 16.2939 82.3703 16.2461 82.36 16.2C82.3412 16.1581 82.3097 16.1231 82.27 16.1C82.2134 16.0728 82.1525 16.0558 82.09 16.05H81.44V16.72H82.12L82.26 16.66C82.3037 16.6299 82.3383 16.5884 82.36 16.54C82.374 16.474 82.374 16.4059 82.36 16.34ZM82.48 17.42C82.4984 17.3546 82.4984 17.2854 82.48 17.22C82.4487 17.1566 82.3954 17.1068 82.33 17.08C82.2771 17.0708 82.2229 17.0708 82.17 17.08H81.45V17.87H82.14C82.2124 17.8545 82.2828 17.831 82.35 17.8C82.4033 17.7636 82.4477 17.7158 82.48 17.66C82.5111 17.583 82.5111 17.4969 82.48 17.42Z" fill="#606580"/>
<path d="M85.11 17.4C85.114 17.5058 85.0924 17.611 85.0471 17.7067C85.0019 17.8024 84.9343 17.8859 84.85 17.95C84.7587 18.0157 84.6574 18.0664 84.55 18.1C84.4106 18.1183 84.2694 18.1183 84.13 18.1H83.32V15.72H83.73V16.66H84.14C84.2797 16.6469 84.4203 16.6469 84.56 16.66C84.6686 16.6855 84.7707 16.7331 84.86 16.8C84.944 16.8611 85.0097 16.9441 85.05 17.04C85.0949 17.1545 85.1154 17.2771 85.11 17.4ZM84.69 17.4C84.7061 17.3377 84.7061 17.2723 84.69 17.21C84.6677 17.1507 84.6252 17.1011 84.57 17.07C84.5057 17.0338 84.4337 17.0132 84.36 17.01H83.77V17.83H84C84.1097 17.8419 84.2203 17.8419 84.33 17.83C84.4017 17.825 84.4708 17.8009 84.53 17.76C84.5872 17.7332 84.6332 17.6872 84.66 17.63C84.6925 17.5579 84.7029 17.4779 84.69 17.4ZM85.79 18.15H85.39V15.72H85.79V18.15Z" fill="#606580"/>
<path d="M88.4 16.87C88.4232 17.227 88.3206 17.5808 88.11 17.87C88.0273 17.9829 87.9188 18.0745 87.7936 18.1371C87.6684 18.1997 87.53 18.2316 87.39 18.23C87.2837 18.2416 87.1763 18.2416 87.07 18.23C86.9713 18.1992 86.8772 18.1555 86.79 18.1V19.1H86.38V15.72H86.79V16C86.8892 15.9088 87.0002 15.8315 87.12 15.77C87.2446 15.7096 87.3815 15.6788 87.52 15.68C87.6475 15.6752 87.774 15.7029 87.8878 15.7607C88.0015 15.8184 88.0987 15.9042 88.17 16.01C88.3286 16.2682 88.4085 16.5671 88.4 16.87ZM87.98 16.87C87.9932 16.649 87.9484 16.4283 87.85 16.23C87.8071 16.1552 87.744 16.094 87.668 16.0533C87.592 16.0126 87.506 15.9942 87.42 16C87.3055 16.0027 87.193 16.03 87.09 16.08C86.9806 16.1313 86.8795 16.1987 86.79 16.28V17.65C86.8741 17.6996 86.9651 17.7367 87.06 17.76C87.1463 17.7713 87.2337 17.7713 87.32 17.76C87.4141 17.7635 87.5077 17.7445 87.5929 17.7045C87.6782 17.6645 87.7526 17.6046 87.81 17.53C87.9286 17.3444 87.9943 17.1301 88 16.91L87.98 16.87Z" fill="#606580"/>
<path d="M90.16 17.89L90 18C89.9516 18.0434 89.8978 18.0803 89.84 18.11C89.7737 18.1479 89.7032 18.1781 89.63 18.2C89.5371 18.2132 89.4429 18.2132 89.35 18.2C89.2534 18.2004 89.1579 18.18 89.07 18.14C88.9823 18.1046 88.9037 18.0499 88.84 17.98C88.7699 17.9087 88.7154 17.8236 88.68 17.73C88.6391 17.6319 88.6187 17.5264 88.62 17.42C88.6184 17.2695 88.6563 17.1213 88.73 16.99C88.811 16.8671 88.9255 16.7699 89.06 16.71C89.2143 16.6477 89.3754 16.6041 89.54 16.58L90.13 16.53V16.45C90.1468 16.3743 90.1468 16.2958 90.13 16.22C90.0959 16.171 90.0516 16.1301 90 16.1C89.9417 16.0667 89.8769 16.0462 89.81 16.04H89.58C89.4704 16.0276 89.3597 16.0276 89.25 16.04C89.1195 16.0713 88.9923 16.1149 88.87 16.17V15.75C88.9749 15.7192 89.0818 15.6959 89.19 15.68C89.3263 15.666 89.4637 15.666 89.6 15.68C89.7394 15.6622 89.8806 15.6622 90.02 15.68C90.1329 15.7016 90.2391 15.7496 90.33 15.82C90.4148 15.8888 90.4803 15.9784 90.52 16.08C90.5727 16.203 90.5966 16.3364 90.59 16.47V18.13H90.18L90.16 17.89ZM90.16 17.55V16.88H89.8C89.6782 16.8927 89.5577 16.9161 89.44 16.95C89.3413 16.9754 89.2514 17.0273 89.18 17.1C89.1062 17.1825 89.0654 17.2893 89.0654 17.4C89.0654 17.5107 89.1062 17.6175 89.18 17.7C89.275 17.7791 89.3967 17.8185 89.52 17.81C89.638 17.8098 89.7543 17.7824 89.86 17.73C89.9665 17.6816 90.0672 17.6212 90.16 17.55Z" fill="#606580"/>
<path d="M92.84 16.08C92.9438 16.1784 93.0198 16.3027 93.06 16.44C93.1141 16.6045 93.1411 16.7768 93.14 16.95C93.1418 17.1273 93.1113 17.3036 93.05 17.47C92.999 17.6187 92.9172 17.755 92.81 17.87C92.7168 17.9802 92.6008 18.0689 92.47 18.13C92.3412 18.1886 92.2015 18.2193 92.06 18.22C91.9162 18.2196 91.7738 18.1924 91.64 18.14C91.5174 18.0794 91.4084 17.9943 91.32 17.89C91.2034 17.7347 91.1184 17.558 91.07 17.37C91.0161 17.117 90.9926 16.8585 91 16.6C91 16.49 91 16.38 91 16.27C91.0131 16.1357 91.0331 16.0022 91.06 15.87C91.0879 15.7366 91.1281 15.606 91.18 15.48C91.223 15.3685 91.2876 15.2665 91.37 15.18C91.4804 15.0623 91.6176 14.9731 91.77 14.92C91.9796 14.8467 92.1983 14.8029 92.42 14.79H92.73H92.98V15.17H92.75H92.45C92.298 15.1837 92.1474 15.2105 92 15.25C91.866 15.2765 91.7416 15.3387 91.64 15.43C91.5697 15.5056 91.5214 15.599 91.5 15.7C91.4608 15.8271 91.434 15.9577 91.42 16.09C91.5275 16.0138 91.6412 15.9469 91.76 15.89C91.8872 15.8386 92.0228 15.8115 92.16 15.81C92.2868 15.8081 92.4126 15.8319 92.53 15.88C92.6489 15.9186 92.7558 15.9875 92.84 16.08ZM92.73 16.98C92.7438 16.7649 92.6799 16.552 92.55 16.38C92.4891 16.3114 92.4132 16.2577 92.3282 16.223C92.2433 16.1884 92.1515 16.1736 92.06 16.18C91.944 16.1801 91.829 16.2004 91.72 16.24C91.6152 16.2798 91.5147 16.3301 91.42 16.39C91.4147 16.4331 91.4147 16.4768 91.42 16.52C91.4154 16.5665 91.4154 16.6134 91.42 16.66C91.4149 16.865 91.4351 17.0699 91.48 17.27C91.5094 17.4072 91.5673 17.5366 91.65 17.65C91.7096 17.7184 91.7806 17.776 91.86 17.82C91.9359 17.8351 92.0141 17.8351 92.09 17.82C92.1838 17.8243 92.2772 17.8045 92.3613 17.7625C92.4453 17.7205 92.5171 17.6576 92.57 17.58C92.6816 17.4077 92.7375 17.2052 92.73 17V16.98Z" fill="#606580"/>
<path d="M95.54 16.93C95.5609 17.2712 95.4579 17.6086 95.25 17.88C95.153 17.9905 95.0328 18.0783 94.898 18.1371C94.7631 18.1959 94.617 18.2242 94.47 18.22C94.3205 18.2244 94.172 18.1953 94.0352 18.1347C93.8985 18.0741 93.7771 17.9837 93.68 17.87C93.4752 17.6008 93.3725 17.2678 93.39 16.93C93.3688 16.5902 93.4759 16.2547 93.69 15.99C93.7893 15.8821 93.9099 15.796 94.0441 15.7371C94.1784 15.6782 94.3234 15.6478 94.47 15.6478C94.6166 15.6478 94.7616 15.6782 94.8959 15.7371C95.0301 15.796 95.1507 15.8821 95.25 15.99C95.4564 16.2583 95.5593 16.592 95.54 16.93ZM95.12 16.93C95.1398 16.6845 95.0802 16.4391 94.95 16.23C94.8954 16.1548 94.8229 16.0945 94.7391 16.0543C94.6553 16.0142 94.5628 15.9955 94.47 16C94.3759 15.9964 94.2823 16.0155 94.1971 16.0555C94.1118 16.0955 94.0374 16.1553 93.98 16.23C93.8686 16.4465 93.8105 16.6865 93.8105 16.93C93.8105 17.1735 93.8686 17.4135 93.98 17.63C94.0362 17.7059 94.1104 17.7667 94.196 17.8069C94.2815 17.847 94.3757 17.8653 94.47 17.86C94.5631 17.8664 94.6562 17.8485 94.7403 17.8082C94.8244 17.7679 94.8967 17.7065 94.95 17.63C95.0829 17.422 95.1427 17.1757 95.12 16.93Z" fill="#606580"/>
<path d="M97.72 16.08H96.9V18.15H96.49V16.08H95.67V15.72H97.67L97.72 16.08Z" fill="#606580"/>
<path d="M100 18.15H99.49L98.63 17H98.42V18.12H98V15.72H98.4V16.78C98.4939 16.7759 98.5859 16.752 98.67 16.71C98.7607 16.6515 98.828 16.5631 98.86 16.46C98.86 16.46 98.86 16.38 98.91 16.33V16.21C98.9513 16.0577 99.043 15.9237 99.17 15.83C99.3015 15.7482 99.4554 15.7097 99.61 15.72H99.72V16.07H99.7C99.6077 16.0608 99.5152 16.0857 99.44 16.14C99.3692 16.2113 99.3206 16.3016 99.3 16.4C99.2693 16.5036 99.222 16.6016 99.16 16.69C99.1068 16.7571 99.0426 16.8146 98.97 16.86L100 18.15Z" fill="#606580"/>
<path d="M101.26 18.21C101.097 18.2196 100.934 18.1953 100.78 18.1384C100.627 18.0816 100.487 17.9936 100.37 17.88C100.146 17.6239 100.031 17.29 100.05 16.95C100.031 16.6057 100.142 16.2668 100.36 16C100.458 15.885 100.581 15.7937 100.72 15.7331C100.858 15.6725 101.009 15.644 101.16 15.65C101.297 15.6457 101.433 15.6696 101.56 15.72C101.675 15.7613 101.778 15.8299 101.86 15.92C101.949 16.0189 102.017 16.1345 102.06 16.26C102.111 16.4181 102.135 16.5839 102.13 16.75V17H100.46C100.451 17.1152 100.465 17.2311 100.501 17.3409C100.537 17.4507 100.595 17.5523 100.67 17.64C100.747 17.7175 100.839 17.778 100.941 17.8176C101.042 17.8572 101.151 17.8751 101.26 17.87C101.346 17.8798 101.434 17.8798 101.52 17.87L101.75 17.79L101.94 17.69L102.06 17.6V18L101.89 18.07L101.7 18.14L101.48 18.19L101.26 18.21ZM101.73 16.66C101.742 16.567 101.742 16.473 101.73 16.38C101.705 16.3064 101.671 16.2359 101.63 16.17C101.58 16.1102 101.514 16.0653 101.44 16.04C101.266 15.973 101.074 15.973 100.9 16.04C100.821 16.0722 100.75 16.1197 100.69 16.1798C100.63 16.2399 100.582 16.3114 100.55 16.39C100.518 16.477 100.498 16.5678 100.49 16.66H101.73Z" fill="#606580"/>
<path d="M304.25 61.82C304.246 62.226 304.161 62.6272 304 63C303.882 63.3294 303.694 63.6295 303.45 63.88C303.223 64.1199 302.951 64.3134 302.65 64.45C302.334 64.5855 301.994 64.6536 301.65 64.65C301.307 64.6522 300.968 64.5876 300.65 64.46C300.353 64.3354 300.087 64.1477 299.87 63.91C299.567 63.5711 299.344 63.1675 299.22 62.73C299.046 62.1429 298.965 61.5322 298.98 60.92C298.976 60.2768 299.05 59.6355 299.2 59.01C299.323 58.479 299.547 57.9766 299.86 57.53C300.145 57.1059 300.534 56.7616 300.99 56.53C301.485 56.2904 302.03 56.1705 302.58 56.18C302.746 56.1692 302.913 56.1692 303.08 56.18C303.219 56.1962 303.357 56.2263 303.49 56.27V57.27H303.44C303.31 57.1952 303.168 57.1444 303.02 57.12C302.831 57.0704 302.636 57.0469 302.44 57.05C302.137 57.039 301.835 57.0941 301.555 57.2115C301.275 57.329 301.024 57.5059 300.82 57.73C300.366 58.2999 300.11 59.0018 300.09 59.73C300.333 59.5553 300.599 59.4141 300.88 59.31C301.162 59.2068 301.46 59.1559 301.76 59.16C302.037 59.1538 302.313 59.1875 302.58 59.26C302.849 59.338 303.1 59.467 303.32 59.64C303.61 59.8636 303.834 60.1605 303.97 60.5C304.162 60.9131 304.258 61.3645 304.25 61.82ZM303.15 61.82C303.145 61.5403 303.094 61.2634 303 61C302.909 60.7784 302.765 60.5827 302.58 60.43C302.442 60.3141 302.277 60.235 302.1 60.2C301.919 60.1598 301.735 60.1397 301.55 60.14C301.302 60.14 301.055 60.1805 300.82 60.26C300.575 60.3432 300.34 60.4539 300.12 60.59C300.12 60.67 300.12 60.75 300.12 60.82V61.1C300.105 61.5588 300.159 62.0172 300.28 62.46C300.36 62.7491 300.5 63.0182 300.69 63.25C300.819 63.4026 300.979 63.5254 301.16 63.61C301.333 63.6738 301.516 63.7077 301.7 63.71C301.891 63.7099 302.08 63.6678 302.252 63.5866C302.425 63.5053 302.578 63.387 302.7 63.24C303.01 62.8486 303.17 62.359 303.15 61.86V61.82Z" fill="#8C99B2"/>
<path d="M307.62 64.63C307.249 64.6345 306.88 64.5735 306.53 64.45C306.222 64.3383 305.939 64.1647 305.7 63.94C305.472 63.7208 305.295 63.4546 305.18 63.16C305.068 62.8558 305.01 62.5342 305.01 62.21C305.004 61.7808 305.126 61.3596 305.36 61C305.604 60.6182 305.95 60.3131 306.36 60.12C306.02 59.9309 305.723 59.6718 305.49 59.36C305.297 59.0625 305.196 58.7146 305.2 58.36C305.199 58.0719 305.26 57.7869 305.379 57.5246C305.498 57.2622 305.672 57.0287 305.89 56.84C306.367 56.4221 306.986 56.2037 307.62 56.23C308.256 56.1963 308.88 56.4034 309.37 56.81C309.583 56.9923 309.753 57.2197 309.867 57.4757C309.981 57.7316 310.037 58.0098 310.03 58.29C310.026 58.6713 309.919 59.0444 309.72 59.37C309.504 59.7291 309.187 60.0175 308.81 60.2C309.223 60.3817 309.586 60.6594 309.87 61.01C310.12 61.3666 310.246 61.795 310.23 62.23C310.236 62.5557 310.173 62.879 310.045 63.1788C309.918 63.4786 309.729 63.7482 309.49 63.97C308.977 64.4265 308.306 64.6635 307.62 64.63ZM309.13 62.29C309.143 62.0126 309.074 61.7377 308.93 61.5C308.738 61.2407 308.483 61.0343 308.19 60.9C308.031 60.8177 307.867 60.7443 307.7 60.68L307.01 60.39C306.726 60.5774 306.493 60.8314 306.33 61.13C306.166 61.4375 306.084 61.7817 306.09 62.13C306.076 62.5749 306.233 63.0083 306.53 63.34C306.668 63.4949 306.837 63.6181 307.027 63.701C307.217 63.7838 307.423 63.8245 307.63 63.82C307.83 63.8283 308.029 63.7963 308.217 63.7259C308.404 63.6554 308.575 63.548 308.72 63.41C308.86 63.2603 308.968 63.084 309.039 62.8916C309.109 62.6992 309.14 62.4946 309.13 62.29ZM309 58.23C309.004 58.062 308.974 57.8949 308.912 57.7386C308.85 57.5823 308.758 57.44 308.64 57.32C308.506 57.1964 308.348 57.1009 308.176 57.0391C308.005 56.9772 307.822 56.9504 307.64 56.96C307.276 56.9357 306.918 57.054 306.64 57.29C306.516 57.399 306.418 57.5349 306.354 57.6873C306.289 57.8398 306.261 58.0048 306.27 58.17C306.261 58.4109 306.328 58.6486 306.46 58.85C306.614 59.0534 306.808 59.2235 307.03 59.35C307.14 59.41 307.31 59.5 307.54 59.6C307.741 59.699 307.948 59.7858 308.16 59.86C308.436 59.671 308.657 59.4122 308.8 59.11C308.927 58.8337 308.995 58.534 309 58.23Z" fill="#8C99B2"/>
<path d="M133.29 99.23H121.59V100.16H133.29V99.23Z" fill="#0089FF"/>
<g opacity="0.6">
<path opacity="0.6" d="M290.57 83.53H290V83.31H290.55L290.57 83.53ZM289.47 83.53H288.92V83.31H289.47V83.53ZM288.37 83.53H287.82V83.31H288.37V83.53ZM287.27 83.53H286.72V83.3H287.27V83.53ZM286.17 83.53H285.63V83.3H286.17V83.53ZM285.08 83.53H284.53V83.3H285.08V83.53ZM283.98 83.53H283.43V83.3H284L283.98 83.53ZM282.88 83.53H282.33V83.3H282.88V83.53ZM281.78 83.53H281.23V83.3H281.78V83.53ZM280.68 83.53H280.13V83.3H280.68V83.53ZM279.58 83.53H279V83.3H279.55L279.58 83.53ZM278.48 83.53H277.93V83.3H278.48V83.53ZM277.38 83.53H276.83V83.3H277.38V83.53ZM276.28 83.53H275.74V83.3H276.28V83.53ZM275.19 83.53H274.64V83.3H275.19V83.53ZM274.09 83.53H273.54V83.3H274.09V83.53ZM272.99 83.53H272.44V83.3H273L272.99 83.53ZM271.89 83.53H271.34V83.3H271.89V83.53ZM270.79 83.53H270.24V83.31H270.79V83.53ZM269.69 83.53H269.14V83.31H269.69V83.53ZM268.59 83.53H268V83.31H268.55L268.59 83.53ZM267.49 83.53H266.94V83.31H267.49V83.53ZM266.39 83.53H265.84V83.31H266.39V83.53ZM265.3 83.53H264.75V83.31H265.3V83.53ZM264.2 83.53H263.65V83.31H264.2V83.53ZM263.1 83.53H262.55V83.3H263.1V83.53ZM262 83.53H261.45V83.3H262V83.53ZM260.9 83.53H260.35V83.3H260.9V83.53ZM259.8 83.53H259.25V83.3H259.8V83.53ZM258.7 83.53H258.15V83.31H258.7V83.53ZM257.6 83.53H257.05V83.31H257.6V83.53ZM256.5 83.53H256V83.31H256.55L256.5 83.53ZM255.41 83.53H254.86V83.31H255.41V83.53ZM254.31 83.53H253.76V83.31H254.31V83.53ZM253.21 83.53H252.66V83.31H253.21V83.53ZM252.11 83.53H251.56V83.31H252.11V83.53ZM251.01 83.53H250.46V83.3H251L251.01 83.53ZM249.91 83.53H249.36V83.3H249.91V83.53ZM248.81 83.53H248.26V83.3H248.81V83.53ZM247.71 83.53H247.16V83.3H247.71V83.53ZM246.61 83.53H246.06V83.31H246.61V83.53ZM245.51 83.53H245V83.31H245.54L245.51 83.53ZM244.42 83.53H243.87V83.31H244.42V83.53ZM243.32 83.53H242.77V83.31H243.32V83.53ZM242.22 83.53H241.67V83.31H242.22V83.53ZM241.12 83.53H240.57V83.31H241.12V83.53ZM240.02 83.53H239.47V83.31H240L240.02 83.53ZM238.92 83.53H238.37V83.3H238.92V83.53ZM237.82 83.53H237.27V83.3H237.82V83.53ZM236.72 83.53H236.17V83.3H236.72V83.53ZM235.62 83.53H235.08V83.3H235.62V83.53ZM234.53 83.53H234V83.31H234.55L234.53 83.53ZM233.43 83.53H232.88V83.31H233.43V83.53ZM232.33 83.53H231.78V83.31H232.33V83.53ZM231.23 83.53H230.68V83.31H231.23V83.53ZM230.13 83.53H229.58V83.31H230.13V83.53ZM229.03 83.53H228.48V83.31H229L229.03 83.53ZM227.93 83.53H227.38V83.31H227.93V83.53ZM226.83 83.53H226.28V83.3H226.83V83.53ZM225.73 83.53H225.18V83.3H225.73V83.53ZM224.64 83.53H224.09V83.3H224.64V83.53ZM223.54 83.53H223V83.3H223.55L223.54 83.53ZM222.44 83.53H221.89V83.31H222.44V83.53ZM221.34 83.53H220.79V83.31H221.34V83.53ZM220.24 83.53H219.69V83.31H220.24V83.53ZM219.14 83.53H218.59V83.31H219.14V83.53ZM218.04 83.53H217.49V83.31H218L218.04 83.53ZM216.94 83.53H216.39V83.31H216.94V83.53ZM215.84 83.53H215.29V83.31H215.84V83.53ZM214.75 83.53H214.2V83.3H214.75V83.53ZM213.65 83.53H213.1V83.3H213.65V83.53ZM212.55 83.53H212V83.3H212.55V83.53ZM211.45 83.53H210.9V83.31H211.45V83.53ZM210.35 83.53H209.8V83.31H210.35V83.53ZM209.25 83.53H208.7V83.31H209.25V83.53ZM208.15 83.53H207.6V83.31H208.15V83.53ZM207.05 83.53H206.5V83.31H207.05V83.53ZM205.95 83.53H205.4V83.31H206L205.95 83.53ZM204.86 83.53H204.31V83.31H204.86V83.53ZM203.76 83.53H203.21V83.31H203.76V83.53ZM202.66 83.53H202.11V83.3H202.66V83.53ZM201.56 83.53H201V83.3H201.55L201.56 83.53ZM200.46 83.53H199.91V83.3H200.46V83.53ZM199.36 83.53H198.81V83.31H199.36V83.53ZM198.26 83.53H197.71V83.31H198.26V83.53ZM197.16 83.53H196.61V83.31H197.16V83.53ZM196.06 83.53H195.51V83.31H196.06V83.53ZM194.97 83.53H194.42V83.31H195L194.97 83.53ZM193.87 83.53H193.32V83.31H193.87V83.53ZM192.77 83.53H192.22V83.31H192.77V83.53ZM191.67 83.53H191.12V83.31H191.67V83.53ZM190.57 83.53H190V83.3H190.55L190.57 83.53ZM189.47 83.53H188.92V83.3H189.47V83.53ZM188.37 83.53H187.82V83.3H188.37V83.53ZM187.27 83.53H186.72V83.31H187.27V83.53ZM186.17 83.53H185.62V83.31H186.17V83.53ZM185.07 83.53H184.53V83.31H185.07V83.53ZM183.98 83.53H183.43V83.31H184L183.98 83.53ZM182.88 83.53H182.33V83.31H182.88V83.53ZM181.78 83.53H181.23V83.31H181.78V83.53ZM180.68 83.53H180.13V83.31H180.68V83.53ZM179.58 83.53H179V83.31H179.55L179.58 83.53ZM178.48 83.53H177.93V83.3H178.48V83.53ZM177.38 83.53H176.83V83.3H177.38V83.53ZM176.28 83.53H175.73V83.3H176.28V83.53ZM175.18 83.53H174.64V83.31H175.18V83.53ZM174.09 83.53H173.54V83.31H174.09V83.53ZM172.99 83.53H172.44V83.31H173L172.99 83.53ZM171.89 83.53H171.34V83.31H171.89V83.53ZM170.79 83.53H170.24V83.31H170.79V83.53ZM169.69 83.53H169.14V83.31H169.69V83.53ZM168.59 83.53H168V83.31H168.55L168.59 83.53ZM167.49 83.53H166.94V83.31H167.49V83.53ZM166.39 83.53H165.84V83.2H166.39V83.53ZM165.29 83.53H164.74V83.2H165.29V83.53ZM164.2 83.53H163.65V83.2H164.2V83.53ZM163.1 83.53H162.55V83.2H163.1V83.53ZM162 83.53H161.45V83.2H162V83.53ZM160.9 83.53H160.35V83.2H160.9V83.53ZM159.8 83.53H159.25V83.2H159.8V83.53ZM158.7 83.53H158.15V83.2H158.7V83.53ZM157.6 83.53H157.05V83.2H157.6V83.53ZM156.5 83.53H156V83.2H156.55L156.5 83.53ZM155.4 83.53H154.85V83.2H155.4V83.53ZM154.31 83.53H153.76V83.3H154.31V83.53ZM153.21 83.53H152.66V83.3H153.21V83.53ZM152.11 83.53H151.56V83.3H152.11V83.53ZM151.01 83.53H150.46V83.31H151L151.01 83.53ZM149.91 83.53H149.36V83.31H149.91V83.53ZM148.81 83.53H148.26V83.31H148.81V83.53ZM147.71 83.53H147.16V83.31H147.71V83.53ZM146.61 83.53H146.06V83.31H146.61V83.53ZM145.51 83.53H145V83.31H145.55L145.51 83.53ZM144.41 83.53H143.87V83.31H144.41V83.53ZM143.32 83.53H142.77V83.31H143.32V83.53ZM142.22 83.53H141.67V83.3H142.22V83.53ZM141.12 83.53H140.57V83.3H141.12V83.53ZM140.02 83.53H139.47V83.3H140L140.02 83.53ZM138.92 83.53H138.37V83.31H138.92V83.53ZM137.82 83.53H137.27V83.31H137.82V83.53ZM136.72 83.53H136.17V83.31H136.72V83.53ZM135.62 83.53H135.07V83.31H135.62V83.53ZM134.52 83.53H134V83.31H134.54L134.52 83.53ZM133.43 83.53H132.88V83.31H133.43V83.53ZM132.33 83.53H131.78V83.31H132.33V83.53ZM131.23 83.53H130.68V83.31H131.23V83.53ZM130.13 83.53H129.58V83.3H130.13V83.53ZM129.03 83.53H128.48V83.3H129L129.03 83.53ZM127.93 83.53H127.38V83.3H127.93V83.53ZM126.83 83.53H126.28V83.31H126.83V83.53ZM125.73 83.53H125.18V83.31H125.73V83.53ZM124.63 83.53H124.08V83.31H124.63V83.53ZM123.54 83.53H123V83.31H123.55L123.54 83.53ZM122.44 83.53H121.89V83.31H122.44V83.53ZM121.34 83.53H120.79V83.31H121.34V83.53ZM120.24 83.53H119.69V83.31H120.24V83.53ZM119.14 83.53H118.59V83.31H119.14V83.53ZM118.04 83.53H117.49V83.3H118L118.04 83.53ZM116.94 83.53H116.39V83.3H116.94V83.53ZM115.84 83.53H115.29V83.3H115.84V83.53ZM114.74 83.53H114.19V83.31H114.74V83.53ZM113.64 83.53H113.1V83.31H113.64V83.53ZM112.55 83.53H112V83.31H112.55V83.53ZM111.45 83.53H110.9V83.31H111.45V83.53ZM110.35 83.53H109.8V83.31H110.35V83.53ZM109.25 83.53H108.7V83.31H109.25V83.53ZM108.15 83.53H107.6V83.31H108.15V83.53ZM107.05 83.53H106.5V83.31H107.05V83.53ZM105.95 83.53H105.4V83.3H106L105.95 83.53ZM104.85 83.53H104.3V83.3H104.85V83.53ZM103.75 83.53H103.21V83.3H103.75V83.53ZM102.66 83.53H102.11V83.31H102.66V83.53ZM101.56 83.53H101V83.31H101.55L101.56 83.53ZM100.46 83.53H99.91V83.31H100.46V83.53ZM99.36 83.53H98.81V83.31H99.36V83.53ZM98.26 83.53H97.71V83.31H98.26V83.53ZM97.16 83.53H96.61V83.31H97.16V83.53ZM96.06 83.53H95.51V83.31H96.06V83.53ZM94.96 83.53H94.41V83.31H95L94.96 83.53ZM93.86 83.53H93.31V83.3H93.86V83.53ZM92.77 83.53H92.22V83.3H92.77V83.53ZM91.67 83.53H91.12V83.3H91.67V83.53ZM90.57 83.53H90V83.31H90.55L90.57 83.53ZM89.47 83.53H88.92V83.31H89.47V83.53ZM88.37 83.53H87.82V83.31H88.37V83.53ZM87.27 83.53H86.72V83.31H87.27V83.53ZM86.17 83.53H85.62V83.31H86.17V83.53ZM85.07 83.53H84.52V83.31H85.07V83.53ZM83.97 83.53H83.42V83.31H84L83.97 83.53ZM82.88 83.53H82.33V83.31H82.88V83.53ZM81.78 83.53H81.23V83.3H81.78V83.53ZM80.68 83.53H80.13V83.3H80.68V83.53ZM79.58 83.53H79V83.3H79.55L79.58 83.53ZM78.48 83.53H77.93V83.31H78.48V83.53ZM77.38 83.53H76.83V83.31H77.38V83.53ZM76.28 83.53H75.73V83.31H76.28V83.53ZM75.18 83.53H74.63V83.31H75.18V83.53ZM74.08 83.53H73.53V83.31H74.08V83.53ZM72.98 83.53H72.44V83.31H73L72.98 83.53ZM71.89 83.53H71.34V83.31H71.89V83.53ZM70.79 83.53H70.24V83.31H70.79V83.53ZM69.69 83.53H69.14V83.3H69.69V83.53ZM68.59 83.53H68V83.3H68.55L68.59 83.53ZM67.49 83.53H66.94V83.3H67.49V83.53ZM66.39 83.53H65.84V83.31H66.39V83.53ZM65.29 83.53H64.74V83.31H65.29V83.53ZM64.19 83.53H63.64V83.31H64.19V83.53ZM63.09 83.53H62.54V83.31H63.09V83.53ZM62 83.53H61.45V83.31H62V83.53ZM60.9 83.53H60.35V83.31H60.9V83.53ZM59.8 83.53H59.25V83.31H59.8V83.53ZM58.7 83.53H58.15V83.31H58.7V83.53ZM57.6 83.53H57.05V83.3H57.6V83.53ZM56.5 83.53H56V83.3H56.55L56.5 83.53ZM55.4 83.53H54.85V83.3H55.4V83.53ZM54.3 83.53H53.75V83.31H54.3V83.53ZM53.2 83.53H52.65V83.31H53.2V83.53ZM52.1 83.53H51.56V83.31H52.1V83.53ZM51.01 83.53H50.46V83.31H51L51.01 83.53ZM49.91 83.53H49.36V83.31H49.91V83.53ZM48.81 83.53H48.26V83.31H48.81V83.53ZM47.71 83.53H47.16V83.31H47.71V83.53ZM46.61 83.53H46.06V83.31H46.61V83.53ZM45.51 83.53H45V83.1H45.55L45.51 83.53ZM44.41 83.53H43.86V83.1H44.41V83.53ZM43.31 83.53H42.76V83.1H43.31V83.53ZM42.21 83.53H41.67V83.1H42.21V83.53ZM41.12 83.53H40.57V83.1H41.12V83.53ZM40.02 83.53H39.47V83.1H40L40.02 83.53ZM38.92 83.53H38.37V83.1H38.92V83.53ZM37.82 83.53H37.27V83.1H37.82V83.53ZM36.72 83.53H36.17V83.1H36.72V83.53ZM35.62 83.53H35.07V83.1H35.62V83.53ZM34.52 83.53H34V83.1H34.55L34.52 83.53ZM33.42 83.53H32.87V83.3H33.42V83.53ZM32.32 83.53H31.77V83.3H32.32V83.53ZM31.23 83.53H30.68V83.3H31.23V83.53ZM30.13 83.53H29.58V83.31H30.13V83.53ZM29.03 83.53H28.48V83.31H29L29.03 83.53ZM27.93 83.53H27.38V83.31H27.93V83.53ZM26.83 83.53H26.28V83.31H26.83V83.53ZM25.73 83.53H25.18V83.31H25.73V83.53ZM24.63 83.53H24.08V83.31H24.63V83.53ZM23.53 83.53H23V83.31H23.55L23.53 83.53ZM22.43 83.53H21.88V83.31H22.43V83.53ZM21.34 83.53H20.79V83.3H21.34V83.53ZM20.24 83.53H19.69V83.3H20.24V83.53ZM19.14 83.53H18.59V83.3H19.14V83.53ZM18.04 83.53H17.49V83.31H18L18.04 83.53ZM16.94 83.53H16.39V83.31H16.94V83.53ZM15.84 83.53H15.29V83.31H15.84V83.53ZM14.74 83.53H14.19V83.31H14.74V83.53ZM13.64 83.53H13.09V83.31H13.64V83.53ZM12.54 83.53H12V83.31H12.55L12.54 83.53ZM11.44 83.53H10.9V83.31H11.44V83.53ZM10.35 83.53H9.8V83.31H10.35V83.53ZM9.25 83.53H8.7V83.3H9.25V83.53ZM8.15 83.53H7.87V83.3H8.15V83.53Z" fill="#FF1D25"/>
</g>
<g opacity="0.3">
<path opacity="0.3" d="M290.57 77.73H290V77.5H290.55L290.57 77.73ZM289.47 77.73H288.92V77.5H289.47V77.73ZM288.37 77.73H287.82V77.5H288.37V77.73ZM287.27 77.73H286.72V77.5H287.27V77.73ZM286.17 77.73H285.63V77.5H286.17V77.73ZM285.08 77.73H284.53V77.5H285.08V77.73ZM283.98 77.73H283.43V77.5H284L283.98 77.73ZM282.88 77.73H282.33V77.5H282.88V77.73ZM281.78 77.73H281.23V77.5H281.78V77.73ZM280.68 77.73H280.13V77.5H280.68V77.73ZM279.58 77.73H279V77.5H279.55L279.58 77.73ZM278.48 77.73H277.93V77.51H278.48V77.73ZM277.38 77.73H276.83V77.51H277.38V77.73ZM276.28 77.73H275.74V77.51H276.28V77.73ZM275.19 77.73H274.64V77.51H275.19V77.73ZM274.09 77.73H273.54V77.51H274.09V77.73ZM272.99 77.73H272.44V77.51H273L272.99 77.73ZM271.89 77.73H271.34V77.51H271.89V77.73ZM270.79 77.73H270.24V77.51H270.79V77.73ZM269.69 77.73H269.14V77.5H269.69V77.73ZM268.59 77.73H268V77.5H268.55L268.59 77.73ZM267.49 77.73H266.94V77.5H267.49V77.73ZM266.39 77.73H265.84V77.51H266.39V77.73ZM265.3 77.73H264.75V77.51H265.3V77.73ZM264.2 77.73H263.65V77.51H264.2V77.73ZM263.1 77.73H262.55V77.51H263.1V77.73ZM262 77.73H261.45V77.51H262V77.73ZM260.9 77.73H260.35V77.51H260.9V77.73ZM259.8 77.73H259.25V77.51H259.8V77.73ZM258.7 77.73H258.15V77.51H258.7V77.73ZM257.6 77.73H257.05V77.5H257.6V77.73ZM256.5 77.73H256V77.5H256.55L256.5 77.73ZM255.41 77.73H254.86V77.5H255.41V77.73ZM254.31 77.73H253.76V77.51H254.31V77.73ZM253.21 77.73H252.66V77.51H253.21V77.73ZM252.11 77.73H251.56V77.51H252.11V77.73ZM251.01 77.73H250.46V77.51H251L251.01 77.73ZM249.91 77.73H249.36V77.51H249.91V77.73ZM248.81 77.73H248.26V77.51H248.81V77.73ZM247.71 77.73H247.16V77.51H247.71V77.73ZM246.61 77.73H246.06V77.51H246.61V77.73ZM245.51 77.73H245V77.5H245.54L245.51 77.73ZM244.42 77.73H243.87V77.5H244.42V77.73ZM243.32 77.73H242.77V77.5H243.32V77.73ZM242.22 77.73H241.67V77.51H242.22V77.73ZM241.12 77.73H240.57V77.51H241.12V77.73ZM240.02 77.73H239.47V77.51H240L240.02 77.73ZM238.92 77.73H238.37V77.51H238.92V77.73ZM237.82 77.73H237.27V77.51H237.82V77.73ZM236.72 77.73H236.17V77.51H236.72V77.73ZM235.62 77.73H235.08V77.51H235.62V77.73ZM234.53 77.73H234V77.51H234.55L234.53 77.73ZM233.43 77.73H232.88V77.5H233.43V77.73ZM232.33 77.73H231.78V77.5H232.33V77.73ZM231.23 77.73H230.68V77.5H231.23V77.73ZM230.13 77.73H229.58V77.51H230.13V77.73ZM229.03 77.73H228.48V77.51H229L229.03 77.73ZM227.93 77.73H227.38V77.51H227.93V77.73ZM226.83 77.73H226.28V77.51H226.83V77.73ZM225.73 77.73H225.18V77.51H225.73V77.73ZM224.64 77.73H224.09V77.51H224.64V77.73ZM223.54 77.73H223V77.51H223.55L223.54 77.73ZM222.44 77.73H221.89V77.51H222.44V77.73ZM221.34 77.73H220.79V77.5H221.34V77.73ZM220.24 77.73H219.69V77.5H220.24V77.73ZM219.14 77.73H218.59V77.5H219.14V77.73ZM218.04 77.73H217.49V77.51H218L218.04 77.73ZM216.94 77.73H216.39V77.51H216.94V77.73ZM215.84 77.73H215.29V77.51H215.84V77.73ZM214.75 77.73H214.2V77.51H214.75V77.73ZM213.65 77.73H213.1V77.51H213.65V77.73ZM212.55 77.73H212V77.51H212.55V77.73ZM211.45 77.73H210.9V77.51H211.45V77.73ZM210.35 77.73H209.8V77.51H210.35V77.73ZM209.25 77.73H208.7V77.5H209.25V77.73ZM208.15 77.73H207.6V77.5H208.15V77.73ZM207.05 77.73H206.5V77.5H207.05V77.73ZM205.95 77.73H205.4V77.51H206L205.95 77.73ZM204.86 77.73H204.31V77.51H204.86V77.73ZM203.76 77.73H203.21V77.51H203.76V77.73ZM202.66 77.73H202.11V77.51H202.66V77.73ZM201.56 77.73H201V77.51H201.55L201.56 77.73ZM200.46 77.73H199.91V77.51H200.46V77.73ZM199.36 77.73H198.81V77.51H199.36V77.73ZM198.26 77.73H197.71V77.51H198.26V77.73ZM197.16 77.73H196.61V77.5H197.16V77.73ZM196.06 77.73H195.51V77.5H196.06V77.73ZM194.97 77.73H194.42V77.5H195L194.97 77.73ZM193.87 77.73H193.32V77.51H193.87V77.73ZM192.77 77.73H192.22V77.51H192.77V77.73ZM191.67 77.73H191.12V77.51H191.67V77.73ZM190.57 77.73H190V77.51H190.55L190.57 77.73ZM189.47 77.73H188.92V77.51H189.47V77.73ZM188.37 77.73H187.82V77.51H188.37V77.73ZM187.27 77.73H186.72V77.51H187.27V77.73ZM186.17 77.73H185.62V77.51H186.17V77.73ZM185.07 77.73H184.53V77.5H185.07V77.73ZM183.98 77.73H183.43V77.5H184L183.98 77.73ZM182.88 77.73H182.33V77.5H182.88V77.73ZM181.78 77.73H181.23V77.51H181.78V77.73ZM180.68 77.73H180.13V77.51H180.68V77.73ZM179.58 77.73H179V77.51H179.55L179.58 77.73ZM178.48 77.73H177.93V77.51H178.48V77.73ZM177.38 77.73H176.83V77.51H177.38V77.73ZM176.28 77.73H175.73V77.51H176.28V77.73ZM175.18 77.73H174.64V77.51H175.18V77.73ZM174.09 77.73H173.54V77.51H174.09V77.73ZM172.99 77.73H172.44V77.4H173L172.99 77.73ZM171.89 77.73H171.34V77.4H171.89V77.73ZM170.79 77.73H170.24V77.4H170.79V77.73ZM169.69 77.73H169.14V77.4H169.69V77.73ZM168.59 77.73H168V77.4H168.55L168.59 77.73ZM167.49 77.73H166.94V77.4H167.49V77.73ZM166.39 77.73H165.84V77.4H166.39V77.73ZM165.29 77.73H164.74V77.4H165.29V77.73ZM164.2 77.73H163.65V77.4H164.2V77.73ZM163.1 77.73H162.55V77.4H163.1V77.73ZM162 77.73H161.45V77.4H162V77.73ZM160.9 77.73H160.35V77.5H160.9V77.73ZM159.8 77.73H159.25V77.5H159.8V77.73ZM158.7 77.73H158.15V77.5H158.7V77.73ZM157.6 77.73H157.05V77.51H157.6V77.73ZM156.5 77.73H156V77.51H156.55L156.5 77.73ZM155.4 77.73H154.85V77.51H155.4V77.73ZM154.31 77.73H153.76V77.51H154.31V77.73ZM153.21 77.73H152.66V77.51H153.21V77.73ZM152.11 77.73H151.56V77.51H152.11V77.73ZM151.01 77.73H150.46V77.51H151L151.01 77.73ZM149.91 77.73H149.36V77.51H149.91V77.73ZM148.81 77.73H148.26V77.5H148.81V77.73ZM147.71 77.73H147.16V77.5H147.71V77.73ZM146.61 77.73H146.06V77.5H146.61V77.73ZM145.51 77.73H145V77.51H145.55L145.51 77.73ZM144.41 77.73H143.87V77.51H144.41V77.73ZM143.32 77.73H142.77V77.51H143.32V77.73ZM142.22 77.73H141.67V77.51H142.22V77.73ZM141.12 77.73H140.57V77.51H141.12V77.73ZM140.02 77.73H139.47V77.51H140L140.02 77.73ZM138.92 77.73H138.37V77.51H138.92V77.73ZM137.82 77.73H137.27V77.51H137.82V77.73ZM136.72 77.73H136.17V77.5H136.72V77.73ZM135.62 77.73H135.07V77.5H135.62V77.73ZM134.52 77.73H134V77.5H134.54L134.52 77.73ZM133.43 77.73H132.88V77.51H133.43V77.73ZM132.33 77.73H131.78V77.51H132.33V77.73ZM131.23 77.73H130.68V77.51H131.23V77.73ZM130.13 77.73H129.58V77.51H130.13V77.73ZM129.03 77.73H128.48V77.51H129L129.03 77.73ZM127.93 77.73H127.38V77.51H127.93V77.73ZM126.83 77.73H126.28V77.51H126.83V77.73ZM125.73 77.73H125.18V77.51H125.73V77.73ZM124.63 77.73H124.08V77.5H124.63V77.73ZM123.54 77.73H123V77.5H123.55L123.54 77.73ZM122.44 77.73H121.89V77.5H122.44V77.73ZM121.34 77.73H120.79V77.51H121.34V77.73ZM120.24 77.73H119.69V77.51H120.24V77.73ZM119.14 77.73H118.59V77.51H119.14V77.73ZM118.04 77.73H117.49V77.51H118L118.04 77.73ZM116.94 77.73H116.39V77.51H116.94V77.73ZM115.84 77.73H115.29V77.51H115.84V77.73ZM114.74 77.73H114.19V77.51H114.74V77.73ZM113.64 77.73H113.1V77.51H113.64V77.73ZM112.55 77.73H112V77.5H112.55V77.73ZM111.45 77.73H110.9V77.5H111.45V77.73ZM110.35 77.73H109.8V77.5H110.35V77.73ZM109.25 77.73H108.7V77.51H109.25V77.73ZM108.15 77.73H107.6V77.51H108.15V77.73ZM107.05 77.73H106.5V77.51H107.05V77.73ZM105.95 77.73H105.4V77.51H106L105.95 77.73ZM104.85 77.73H104.3V77.51H104.85V77.73ZM103.75 77.73H103.21V77.51H103.75V77.73ZM102.66 77.73H102.11V77.51H102.66V77.73ZM101.56 77.73H101V77.51H101.55L101.56 77.73ZM100.46 77.73H99.91V77.5H100.46V77.73ZM99.36 77.73H98.81V77.5H99.36V77.73ZM98.26 77.73H97.71V77.5H98.26V77.73ZM97.16 77.73H96.61V77.51H97.16V77.73ZM96.06 77.73H95.51V77.51H96.06V77.73ZM94.96 77.73H94.41V77.51H95L94.96 77.73ZM93.86 77.73H93.31V77.51H93.86V77.73ZM92.77 77.73H92.22V77.51H92.77V77.73ZM91.67 77.73H91.12V77.51H91.67V77.73ZM90.57 77.73H90V77.51H90.55L90.57 77.73ZM89.47 77.73H88.92V77.51H89.47V77.73ZM88.37 77.73H87.82V77.5H88.37V77.73ZM87.27 77.73H86.72V77.5H87.27V77.73ZM86.17 77.73H85.62V77.5H86.17V77.73ZM85.07 77.73H84.52V77.51H85.07V77.73ZM83.97 77.73H83.42V77.51H84L83.97 77.73ZM82.88 77.73H82.33V77.51H82.88V77.73ZM81.78 77.73H81.23V77.51H81.78V77.73ZM80.68 77.73H80.13V77.51H80.68V77.73ZM79.58 77.73H79V77.51H79.55L79.58 77.73ZM78.48 77.73H77.93V77.51H78.48V77.73ZM77.38 77.73H76.83V77.51H77.38V77.73ZM76.28 77.73H75.73V77.5H76.28V77.73ZM75.18 77.73H74.63V77.5H75.18V77.73ZM74.08 77.73H73.53V77.5H74.08V77.73ZM72.98 77.73H72.44V77.51H73L72.98 77.73ZM71.89 77.73H71.34V77.51H71.89V77.73ZM70.79 77.73H70.24V77.51H70.79V77.73ZM69.69 77.73H69.14V77.51H69.69V77.73ZM68.59 77.73H68V77.51H68.55L68.59 77.73ZM67.49 77.73H66.94V77.51H67.49V77.73ZM66.39 77.73H65.84V77.51H66.39V77.73ZM65.29 77.73H64.74V77.51H65.29V77.73ZM64.19 77.73H63.64V77.5H64.19V77.73ZM63.09 77.73H62.54V77.5H63.09V77.73ZM62 77.73H61.45V77.5H62V77.73ZM60.9 77.73H60.35V77.51H60.9V77.73ZM59.8 77.73H59.25V77.51H59.8V77.73ZM58.7 77.73H58.15V77.51H58.7V77.73ZM57.6 77.73H57.05V77.51H57.6V77.73ZM56.5 77.73H56V77.51H56.55L56.5 77.73ZM55.4 77.73H54.85V77.51H55.4V77.73ZM54.3 77.73H53.75V77.51H54.3V77.73ZM53.2 77.73H52.65V77.51H53.2V77.73ZM52.1 77.73H51.56V77.3H52.1V77.73ZM51.01 77.73H50.46V77.3H51L51.01 77.73ZM49.91 77.73H49.36V77.3H49.91V77.73ZM48.81 77.73H48.26V77.3H48.81V77.73ZM47.71 77.73H47.16V77.3H47.71V77.73ZM46.61 77.73H46.06V77.3H46.61V77.73ZM45.51 77.73H45V77.3H45.55L45.51 77.73ZM44.41 77.73H43.86V77.3H44.41V77.73ZM43.31 77.73H42.76V77.3H43.31V77.73ZM42.21 77.73H41.67V77.3H42.21V77.73ZM41.12 77.73H40.57V77.3H41.12V77.73ZM40.02 77.73H39.47V77.5H40L40.02 77.73ZM38.92 77.73H38.37V77.5H38.92V77.73ZM37.82 77.73H37.27V77.5H37.82V77.73ZM36.72 77.73H36.17V77.51H36.72V77.73ZM35.62 77.73H35.07V77.51H35.62V77.73ZM34.52 77.73H34V77.51H34.55L34.52 77.73ZM33.42 77.73H32.87V77.51H33.42V77.73ZM32.32 77.73H31.77V77.51H32.32V77.73ZM31.23 77.73H30.68V77.51H31.23V77.73ZM30.13 77.73H29.58V77.51H30.13V77.73ZM29.03 77.73H28.48V77.51H29L29.03 77.73ZM27.93 77.73H27.38V77.5H27.93V77.73ZM26.83 77.73H26.28V77.5H26.83V77.73ZM25.73 77.73H25.18V77.5H25.73V77.73ZM24.63 77.73H24.08V77.51H24.63V77.73ZM23.53 77.73H23V77.51H23.55L23.53 77.73ZM22.43 77.73H21.88V77.51H22.43V77.73ZM21.34 77.73H20.79V77.51H21.34V77.73ZM20.24 77.73H19.69V77.51H20.24V77.73ZM19.14 77.73H18.59V77.51H19.14V77.73ZM18.04 77.73H17.49V77.51H18L18.04 77.73ZM16.94 77.73H16.39V77.51H16.94V77.73ZM15.84 77.73H15.29V77.5H15.84V77.73ZM14.74 77.73H14.19V77.5H14.74V77.73ZM13.64 77.73H13.09V77.5H13.64V77.73ZM12.54 77.73H12V77.51H12.55L12.54 77.73ZM11.44 77.73H10.9V77.51H11.44V77.73ZM10.35 77.73H9.8V77.51H10.35V77.73ZM9.25 77.73H8.7V77.51H9.25V77.73ZM8.15 77.73H7.87V77.51H8.15V77.73Z" fill="#303549"/>
</g>
<g opacity="0.2">
<g opacity="0.2">
<path opacity="0.2" d="M133.31 24.59H121.7V98.52H133.31V24.59Z" fill="#0089FF"/>
</g>
</g>
<path d="M44.37 96.63H42.8V96.3H43.38V94.12H42.8V93.82C42.9663 93.8339 43.1331 93.7992 43.28 93.72C43.3383 93.6829 43.3858 93.6309 43.4174 93.5694C43.449 93.5079 43.4637 93.4391 43.46 93.37H43.8V96.3H44.37V96.63Z" fill="#606580"/>
<path d="M58.54 96.63H56.54V96.17C56.68 96.04 56.82 95.91 56.94 95.78C57.06 95.65 57.2 95.52 57.32 95.39C57.5103 95.189 57.678 94.9676 57.82 94.73C57.9064 94.5776 57.9512 94.4052 57.95 94.23C57.9659 94.1508 57.9659 94.0692 57.95 93.99C57.924 93.9271 57.8867 93.8695 57.84 93.82C57.7883 93.7735 57.7268 93.7393 57.66 93.72C57.587 93.7096 57.513 93.7096 57.44 93.72H57.21L56.98 93.79C56.9186 93.81 56.8611 93.8404 56.81 93.88L56.67 93.97V93.5L57.04 93.37C57.187 93.3317 57.3381 93.3115 57.49 93.31C57.7488 93.2949 58.0034 93.381 58.2 93.55C58.2852 93.6345 58.3515 93.7362 58.3946 93.8482C58.4377 93.9602 58.4566 94.0801 58.45 94.2C58.4658 94.3195 58.4658 94.4405 58.45 94.56C58.4187 94.6632 58.3785 94.7636 58.33 94.86L58.14 95.14L57.9 95.41C57.76 95.56 57.61 95.72 57.44 95.88L57.04 96.26H58.63L58.54 96.63Z" fill="#606580"/>
<path d="M71.43 93.69H71.19L70.96 93.77L70.78 93.86L70.65 93.95V93.49C70.7703 93.4275 70.8979 93.3805 71.03 93.35C71.1804 93.3117 71.3348 93.2916 71.49 93.29C71.6161 93.2731 71.7439 93.2731 71.87 93.29C71.9771 93.3197 72.0785 93.367 72.17 93.43C72.2611 93.4972 72.3335 93.5868 72.38 93.69C72.4346 93.7949 72.4621 93.9118 72.46 94.03C72.4634 94.2041 72.3988 94.3727 72.28 94.5C72.1745 94.6329 72.026 94.7248 71.86 94.76L72.08 94.83C72.1591 94.8613 72.2307 94.909 72.29 94.97C72.3582 95.0412 72.4155 95.1221 72.46 95.21C72.5019 95.3253 72.5222 95.4474 72.52 95.57C72.5205 95.7106 72.4933 95.8499 72.44 95.98C72.3894 96.1012 72.3183 96.2128 72.23 96.31C72.1374 96.4113 72.0203 96.4871 71.89 96.53C71.7462 96.5841 71.5936 96.6112 71.44 96.61C71.2782 96.6095 71.117 96.5894 70.96 96.55C70.8226 96.5158 70.6887 96.4689 70.56 96.41V96C70.6755 96.0775 70.7997 96.1413 70.93 96.19C71.0761 96.2495 71.2323 96.28 71.39 96.28C71.4761 96.2938 71.5639 96.2938 71.65 96.28C71.7335 96.2517 71.809 96.2036 71.87 96.14C71.9239 96.0772 71.9678 96.0063 72 95.93C72.0178 95.8308 72.0178 95.7292 72 95.63C72.0168 95.5341 72.0168 95.436 72 95.34C71.9681 95.2698 71.9202 95.2082 71.86 95.16C71.793 95.1163 71.7184 95.0858 71.64 95.07H71.37H71.19V94.71H71.33C71.5009 94.7158 71.6691 94.6668 71.81 94.57C71.8698 94.5204 71.9172 94.4575 71.9485 94.3863C71.9797 94.3151 71.9939 94.2377 71.99 94.16C72.0062 94.091 72.0062 94.0191 71.99 93.95C71.9641 93.8929 71.9225 93.8443 71.87 93.81C71.8183 93.7676 71.7561 93.7399 71.69 93.73C71.6064 93.7015 71.5183 93.6879 71.43 93.69Z" fill="#606580"/>
<path d="M86.64 95.51H86.25V96.63H85.84V95.51H84.41V95.05L85.86 93.38H86.25V95.16H86.64V95.51ZM85.84 95.16V93.89L84.75 95.16H85.84Z" fill="#606580"/>
<path d="M100.52 95.59C100.524 95.7397 100.5 95.8888 100.45 96.03C100.405 96.1599 100.333 96.279 100.24 96.38C100.148 96.4843 100.031 96.5634 99.9 96.61C99.758 96.6713 99.6047 96.702 99.45 96.7C99.297 96.7153 99.1429 96.7153 98.99 96.7C98.855 96.6688 98.7241 96.6218 98.6 96.56V96.1L98.75 96.19L98.95 96.27L99.19 96.35H99.42C99.5061 96.3642 99.5939 96.3642 99.68 96.35C99.7617 96.3188 99.834 96.2672 99.89 96.2C99.9416 96.1336 99.9821 96.0593 100.01 95.98C100.026 95.8773 100.026 95.7727 100.01 95.67C100.028 95.5775 100.028 95.4825 100.01 95.39C99.9811 95.3153 99.9327 95.2498 99.87 95.2C99.803 95.1458 99.7242 95.1081 99.64 95.09C99.5403 95.0789 99.4397 95.0789 99.34 95.09C99.2294 95.0504 99.1157 95.0203 99 95H98.72V93.38H100.48V93.76H99.15V94.62H99.45C99.5861 94.6026 99.7239 94.6026 99.86 94.62C99.9804 94.6484 100.093 94.703 100.19 94.78C100.299 94.8593 100.386 94.9663 100.44 95.09C100.501 95.2494 100.528 95.4196 100.52 95.59Z" fill="#606580"/>
<path d="M114.62 95.57C114.622 95.7311 114.592 95.891 114.53 96.04C114.487 96.1732 114.411 96.2935 114.31 96.39C114.222 96.4894 114.112 96.5679 113.99 96.62C113.864 96.6739 113.727 96.7011 113.59 96.7C113.456 96.6997 113.323 96.6725 113.2 96.62C113.078 96.5717 112.969 96.4965 112.88 96.4C112.756 96.267 112.667 96.1056 112.62 95.93C112.555 95.6923 112.525 95.4464 112.53 95.2C112.529 94.9412 112.556 94.6831 112.61 94.43C112.665 94.2192 112.756 94.0195 112.88 93.84C112.998 93.6769 113.152 93.5434 113.33 93.45C113.53 93.3558 113.749 93.3079 113.97 93.31H114.17C114.226 93.2997 114.284 93.2997 114.34 93.31V93.73L114.17 93.67C114.09 93.659 114.01 93.659 113.93 93.67C113.808 93.6652 113.686 93.6878 113.573 93.7363C113.461 93.7847 113.361 93.8577 113.28 93.95C113.099 94.1819 112.997 94.4659 112.99 94.76C113.089 94.6898 113.196 94.6327 113.31 94.59C113.422 94.5493 113.541 94.529 113.66 94.53C113.769 94.5128 113.881 94.5128 113.99 94.53C114.096 94.5677 114.196 94.6181 114.29 94.68C114.403 94.7741 114.493 94.8942 114.55 95.03C114.614 95.2023 114.638 95.387 114.62 95.57ZM114.18 95.57C114.183 95.457 114.163 95.3446 114.12 95.24C114.098 95.1523 114.057 95.0705 114 95C113.939 94.9582 113.872 94.9277 113.8 94.91H113.59C113.491 94.8949 113.389 94.8949 113.29 94.91C113.191 94.9408 113.097 94.9845 113.01 95.04C113.01 95.04 113.01 95.1 113.01 95.13V95.24C113.003 95.4259 113.026 95.6118 113.08 95.79C113.114 95.9054 113.168 96.0138 113.24 96.11C113.296 96.1662 113.36 96.2134 113.43 96.25C113.503 96.2651 113.577 96.2651 113.65 96.25C113.73 96.2527 113.809 96.237 113.882 96.2041C113.955 96.1711 114.019 96.1218 114.07 96.06C114.15 95.9168 114.188 95.7539 114.18 95.59V95.57Z" fill="#606580"/>
<path d="M128.61 93.86L127.21 96.63H126.75L128.23 93.76H126.56V93.38H128.61V93.86Z" fill="#303549"/>
<path d="M141.56 96.7C141.414 96.7035 141.268 96.6798 141.13 96.63C141.005 96.5866 140.889 96.5186 140.79 96.43C140.7 96.3401 140.631 96.2306 140.59 96.11C140.542 95.9891 140.518 95.86 140.52 95.73C140.517 95.5609 140.562 95.3944 140.65 95.25C140.751 95.0943 140.893 94.9697 141.06 94.89C140.92 94.8158 140.801 94.7095 140.71 94.58C140.628 94.4595 140.586 94.3159 140.59 94.17C140.588 94.0539 140.613 93.9389 140.661 93.8333C140.709 93.7278 140.781 93.6344 140.87 93.56C141.06 93.3922 141.307 93.3029 141.56 93.31C141.817 93.298 142.069 93.3798 142.27 93.54C142.355 93.6143 142.423 93.7068 142.468 93.8106C142.513 93.9144 142.534 94.0269 142.53 94.14C142.529 94.2914 142.488 94.4399 142.41 94.57C142.323 94.7172 142.194 94.8355 142.04 94.91C142.205 94.984 142.352 95.0932 142.47 95.23C142.571 95.3727 142.62 95.5455 142.61 95.72C142.613 95.8513 142.588 95.9817 142.536 96.1025C142.484 96.2232 142.407 96.3315 142.31 96.42C142.211 96.5158 142.093 96.5901 141.964 96.6383C141.835 96.6865 141.698 96.7075 141.56 96.7ZM142.17 95.76C142.175 95.6509 142.147 95.5429 142.09 95.45C142.012 95.3462 141.908 95.2637 141.79 95.21L141.6 95.12L141.32 95C141.206 95.0773 141.112 95.1816 141.047 95.3037C140.983 95.4258 140.949 95.5619 140.95 95.7C140.944 95.8806 141.008 96.0565 141.13 96.19C141.184 96.2528 141.252 96.3025 141.328 96.3354C141.404 96.3683 141.487 96.3836 141.57 96.38C141.652 96.3846 141.734 96.3716 141.81 96.3418C141.886 96.312 141.955 96.2661 142.012 96.2073C142.069 96.1485 142.112 96.0781 142.14 96.0009C142.167 95.9237 142.177 95.8415 142.17 95.76ZM142.11 94.13C142.111 93.9965 142.061 93.8676 141.97 93.77C141.915 93.7188 141.851 93.6791 141.78 93.6534C141.71 93.6276 141.635 93.6163 141.56 93.62C141.422 93.6184 141.288 93.6643 141.18 93.75C141.13 93.7953 141.091 93.8511 141.065 93.9133C141.039 93.9755 141.027 94.0427 141.03 94.11C141.024 94.2051 141.049 94.2997 141.1 94.38C141.16 94.4639 141.239 94.5325 141.33 94.58L141.54 94.69L141.79 94.79C141.895 94.7159 141.979 94.6165 142.035 94.5011C142.091 94.3857 142.117 94.2581 142.11 94.13Z" fill="#606580"/>
<path d="M154.51 94.43C154.505 94.2728 154.533 94.1164 154.59 93.97C154.642 93.841 154.716 93.7224 154.81 93.62C154.903 93.5217 155.016 93.4435 155.14 93.39C155.264 93.3396 155.396 93.3125 155.53 93.31C155.667 93.3089 155.804 93.3361 155.93 93.39C156.049 93.4387 156.158 93.51 156.25 93.6C156.366 93.7384 156.454 93.898 156.51 94.07C156.576 94.311 156.606 94.5602 156.6 94.81C156.602 95.066 156.571 95.3213 156.51 95.57C156.463 95.7866 156.371 95.991 156.24 96.17C156.126 96.3328 155.975 96.4665 155.8 96.56C155.597 96.654 155.374 96.6985 155.15 96.69H155C154.941 96.7013 154.879 96.7013 154.82 96.69V96.27L154.99 96.33C155.066 96.3404 155.144 96.3404 155.22 96.33C155.345 96.3343 155.47 96.3115 155.586 96.2632C155.701 96.2149 155.805 96.1422 155.89 96.05C156.065 95.8163 156.16 95.5321 156.16 95.24C156.062 95.3167 155.95 95.3744 155.83 95.41C155.721 95.451 155.606 95.4714 155.49 95.47C155.38 95.4809 155.27 95.4809 155.16 95.47C155.055 95.4342 154.956 95.38 154.87 95.31C154.754 95.2262 154.664 95.1119 154.61 94.98C154.535 94.8066 154.501 94.6185 154.51 94.43ZM156.16 94.71C156.165 94.5281 156.144 94.3464 156.1 94.17C156.072 94.0526 156.017 93.9432 155.94 93.85C155.886 93.7872 155.817 93.739 155.74 93.71C155.671 93.6938 155.599 93.6938 155.53 93.71C155.449 93.7064 155.367 93.7217 155.293 93.7547C155.218 93.7876 155.152 93.8374 155.1 93.9C154.989 94.0647 154.936 94.2618 154.95 94.46C154.944 94.5755 154.961 94.6911 155 94.8C155.035 94.8876 155.094 94.9638 155.17 95.02C155.22 95.0684 155.282 95.1029 155.35 95.12H155.58C155.68 95.1328 155.78 95.1328 155.88 95.12C155.975 95.0888 156.066 95.0451 156.15 94.99V94.78L156.16 94.71Z" fill="#606580"/>
<path d="M169.22 96.63H167.65V96.3H168.23V94.12H167.65V93.82C167.819 93.8325 167.989 93.7979 168.14 93.72C168.195 93.6803 168.239 93.6275 168.269 93.5664C168.299 93.5054 168.313 93.4379 168.31 93.37H168.65V96.3H169.22V96.63Z" fill="#606580"/>
<path d="M171.82 95C171.848 95.4443 171.762 95.8883 171.57 96.29C171.489 96.4223 171.374 96.5303 171.237 96.6025C171.099 96.6746 170.945 96.7083 170.79 96.7C170.634 96.7108 170.477 96.6771 170.339 96.6027C170.201 96.5284 170.087 96.4165 170.01 96.28C169.676 95.4592 169.676 94.5407 170.01 93.72C170.091 93.5876 170.206 93.4797 170.343 93.4075C170.481 93.3353 170.635 93.3016 170.79 93.31C170.946 93.3015 171.101 93.3362 171.239 93.4103C171.377 93.4844 171.491 93.595 171.57 93.73C171.762 94.1243 171.849 94.5621 171.82 95ZM171.26 96C171.316 95.8737 171.346 95.7379 171.35 95.6C171.362 95.4035 171.362 95.2065 171.35 95.01C171.361 94.8168 171.361 94.6231 171.35 94.43C171.345 94.289 171.314 94.1502 171.26 94.02C171.227 93.9204 171.164 93.8332 171.08 93.77C170.997 93.7065 170.894 93.6746 170.79 93.68C170.683 93.6763 170.577 93.708 170.49 93.77C170.412 93.8389 170.351 93.9243 170.31 94.02C170.265 94.1563 170.235 94.2971 170.22 94.44C170.22 94.61 170.22 94.8 170.22 95.02C170.209 95.2098 170.209 95.4001 170.22 95.59C170.228 95.7306 170.258 95.8691 170.31 96C170.343 96.1024 170.406 96.1928 170.49 96.26C170.576 96.3249 170.682 96.3569 170.79 96.35C170.894 96.3553 170.997 96.3234 171.08 96.26C171.166 96.1946 171.229 96.1035 171.26 96Z" fill="#606580"/>
<path d="M183.23 96.63H181.66V96.3H182.24V94.12H181.66V93.82C181.826 93.8339 181.993 93.7992 182.14 93.72C182.198 93.6829 182.246 93.6309 182.277 93.5694C182.309 93.5079 182.324 93.4391 182.32 93.37H182.65V96.3H183.23V96.63Z" fill="#606580"/>
<path d="M185.64 96.63H184.07V96.3H184.66V94.12H184.07V93.82C184.24 93.8336 184.409 93.7989 184.56 93.72C184.618 93.6829 184.666 93.6309 184.697 93.5694C184.729 93.5079 184.744 93.4391 184.74 93.37H185.07V96.3H185.64V96.63Z" fill="#606580"/>
<path d="M197.23 96.63H195.66V96.3H196.25V94.12H195.66V93.82C195.83 93.8336 195.999 93.7989 196.15 93.72C196.206 93.6808 196.252 93.6284 196.284 93.5674C196.315 93.5064 196.331 93.4386 196.33 93.37H196.66V96.3H197.23V96.63Z" fill="#606580"/>
<path d="M199.82 96.63H197.82V96.17C197.96 96.04 198.1 95.91 198.22 95.78C198.34 95.65 198.47 95.52 198.6 95.39C198.79 95.189 198.958 94.9676 199.1 94.73C199.186 94.5776 199.231 94.4052 199.23 94.23C199.246 94.1508 199.246 94.0692 199.23 93.99C199.205 93.9243 199.163 93.866 199.11 93.82C199.062 93.7736 199.004 93.7394 198.94 93.72C198.867 93.7096 198.793 93.7096 198.72 93.72C198.644 93.7103 198.566 93.7103 198.49 93.72L198.26 93.79C198.199 93.81 198.141 93.8404 198.09 93.88C198.039 93.9028 197.992 93.9332 197.95 93.97V93.5C198.07 93.4485 198.194 93.405 198.32 93.37C198.467 93.3317 198.618 93.3115 198.77 93.31C199.029 93.2949 199.283 93.381 199.48 93.55C199.565 93.6345 199.632 93.7362 199.675 93.8482C199.718 93.9602 199.737 94.0801 199.73 94.2C199.746 94.3195 199.746 94.4405 199.73 94.56C199.699 94.6632 199.659 94.7636 199.61 94.86C199.55 94.95 199.49 95.04 199.41 95.14L199.18 95.41C199.04 95.56 198.89 95.72 198.72 95.88L198.32 96.26H199.91L199.82 96.63Z" fill="#606580"/>
<path d="M211.24 96.63H209.67V96.3H210.25V94.12H209.67V93.82C209.839 93.8325 210.009 93.7979 210.16 93.72C210.215 93.6803 210.259 93.6275 210.289 93.5664C210.319 93.5054 210.333 93.4379 210.33 93.37H210.67V96.3H211.24V96.63Z" fill="#303549"/>
<path d="M212.71 93.69H212.47L212.24 93.77L212.06 93.86L211.92 93.95V93.49C212.04 93.4275 212.168 93.3805 212.3 93.35C212.45 93.3111 212.605 93.291 212.76 93.29C212.886 93.2731 213.014 93.2731 213.14 93.29C213.247 93.3197 213.348 93.367 213.44 93.43C213.529 93.4998 213.6 93.5887 213.65 93.69C213.705 93.7949 213.732 93.9118 213.73 94.03C213.733 94.2041 213.669 94.3727 213.55 94.5C213.444 94.6329 213.296 94.7248 213.13 94.76L213.35 94.83C213.428 94.8636 213.499 94.911 213.56 94.97C213.628 95.0412 213.685 95.1221 213.73 95.21C213.772 95.3253 213.792 95.4474 213.79 95.57C213.791 95.7106 213.763 95.8499 213.71 95.98C213.659 96.1012 213.588 96.2128 213.5 96.31C213.406 96.4091 213.289 96.4845 213.16 96.53C213.016 96.5841 212.864 96.6112 212.71 96.61C212.548 96.6095 212.387 96.5894 212.23 96.55C212.093 96.5158 211.959 96.4689 211.83 96.41V96C211.946 96.0775 212.07 96.1413 212.2 96.19C212.343 96.2487 212.496 96.2792 212.65 96.28C212.739 96.2946 212.831 96.2946 212.92 96.28C213.003 96.2517 213.079 96.2036 213.14 96.14C213.194 96.0772 213.238 96.0063 213.27 95.93C213.305 95.8338 213.322 95.7322 213.32 95.63C213.321 95.5312 213.304 95.433 213.27 95.34C213.235 95.2719 213.187 95.2109 213.13 95.16C213.062 95.1182 212.988 95.0878 212.91 95.07H212.64H212.46V94.71H212.6C212.771 94.7138 212.938 94.6649 213.08 94.57C213.14 94.5204 213.187 94.4575 213.218 94.3863C213.25 94.3151 213.264 94.2377 213.26 94.16C213.26 94.087 213.243 94.0151 213.21 93.95C213.184 93.8929 213.142 93.8443 213.09 93.81C213.036 93.7712 212.975 93.744 212.91 93.73C212.845 93.7076 212.778 93.6942 212.71 93.69Z" fill="#303549"/>
<path d="M225.25 96.63H223.68V96.3H224.26V94.12H223.68V93.82C223.849 93.8325 224.019 93.7979 224.17 93.72C224.225 93.6803 224.269 93.6275 224.299 93.5664C224.329 93.5054 224.343 93.4379 224.34 93.37H224.68V96.3H225.25V96.63Z" fill="#303549"/>
<path d="M227.92 95.51H227.53V96.63H227.12V95.51H225.69V95.05L227.13 93.38H227.53V95.16H227.92V95.51ZM227.12 95.16V93.89L226 95.16H227.12Z" fill="#303549"/>
<path d="M239.26 96.63H237.68V96.3H238.27V94.12H237.68V93.82C237.85 93.8353 238.02 93.8006 238.17 93.72C238.228 93.6829 238.276 93.6309 238.307 93.5694C238.339 93.5079 238.354 93.4391 238.35 93.37H238.68V96.3H239.26V96.63Z" fill="#303549"/>
<path d="M241.8 95.59C241.804 95.7397 241.78 95.8888 241.73 96.03C241.685 96.1599 241.613 96.279 241.52 96.38C241.426 96.4821 241.31 96.5609 241.18 96.61C241.038 96.6705 240.885 96.7011 240.73 96.7C240.577 96.7153 240.423 96.7153 240.27 96.7C240.135 96.6688 240.004 96.6218 239.88 96.56V96.1L240.03 96.19L240.23 96.27L240.46 96.35H240.7C240.786 96.3642 240.874 96.3642 240.96 96.35C241.042 96.3188 241.114 96.2672 241.17 96.2C241.222 96.1336 241.262 96.0593 241.29 95.98C241.306 95.8773 241.306 95.7727 241.29 95.67C241.308 95.5775 241.308 95.4825 241.29 95.39C241.261 95.3153 241.213 95.2498 241.15 95.2C241.116 95.1227 241.065 95.0543 241 95C240.9 94.9889 240.8 94.9889 240.7 95C240.584 94.9901 240.466 94.9901 240.35 95H240.06V93.38H241.83V93.76H240.48V94.62H240.77C240.909 94.6022 241.051 94.6022 241.19 94.62C241.31 94.6484 241.423 94.703 241.52 94.78C241.629 94.8593 241.716 94.9663 241.77 95.09C241.814 95.2529 241.824 95.423 241.8 95.59Z" fill="#303549"/>
<path d="M253.26 96.63H251.69V96.3H252.28V94.12H251.69V93.82C251.859 93.8325 252.029 93.7979 252.18 93.72C252.235 93.6796 252.28 93.627 252.311 93.5662C252.343 93.5055 252.359 93.4383 252.36 93.37H252.69V96.3H253.26V96.63Z" fill="#303549"/>
<path d="M255.89 95.57C255.895 95.7305 255.868 95.8903 255.81 96.04C255.762 96.1707 255.687 96.2899 255.59 96.39C255.502 96.4894 255.392 96.5679 255.27 96.62C255.144 96.6739 255.007 96.7011 254.87 96.7C254.733 96.6995 254.597 96.6723 254.47 96.62C254.353 96.5688 254.247 96.4939 254.16 96.4C254.036 96.267 253.947 96.1056 253.9 95.93C253.831 95.6929 253.797 95.4469 253.8 95.2C253.797 94.9406 253.828 94.6818 253.89 94.43C253.945 94.2192 254.036 94.0195 254.16 93.84C254.273 93.6724 254.428 93.5378 254.61 93.45C254.81 93.3548 255.029 93.3069 255.25 93.31H255.45C255.506 93.2997 255.564 93.2997 255.62 93.31V93.73L255.45 93.67C255.37 93.6604 255.29 93.6604 255.21 93.67C255.088 93.6652 254.966 93.6878 254.853 93.7363C254.741 93.7847 254.641 93.8577 254.56 93.95C254.379 94.1819 254.277 94.4659 254.27 94.76C254.367 94.692 254.471 94.635 254.58 94.59C254.695 94.5481 254.817 94.5277 254.94 94.53C255.163 94.5169 255.383 94.5843 255.56 94.72C255.679 94.8108 255.772 94.9316 255.83 95.07C255.885 95.2306 255.905 95.401 255.89 95.57ZM255.46 95.57C255.463 95.457 255.443 95.3446 255.4 95.24C255.373 95.1588 255.326 95.0858 255.263 95.0281C255.2 94.9703 255.123 94.9296 255.04 94.91H254.82C254.724 94.8948 254.626 94.8948 254.53 94.91C254.43 94.9386 254.336 94.9824 254.25 95.04C254.25 95.04 254.25 95.1 254.25 95.13V95.24C254.243 95.4259 254.266 95.6118 254.32 95.79C254.348 95.9074 254.403 96.0168 254.48 96.11C254.534 96.1684 254.598 96.2159 254.67 96.25C254.739 96.2643 254.811 96.2643 254.88 96.25C254.96 96.2544 255.04 96.2394 255.113 96.2063C255.186 96.1732 255.25 96.123 255.3 96.06C255.401 95.9239 255.457 95.7595 255.46 95.59V95.57Z" fill="#303549"/>
<path d="M267.27 96.63H265.7V96.3H266.28V94.12H265.7V93.82C265.869 93.8325 266.039 93.7979 266.19 93.72C266.245 93.6803 266.289 93.6275 266.319 93.5664C266.349 93.5054 266.363 93.4379 266.36 93.37H266.7V96.3H267.27V96.63Z" fill="#303549"/>
<path d="M269.89 93.86L268.49 96.63H268L269.48 93.76H267.81V93.38H269.86L269.89 93.86Z" fill="#303549"/>
<path d="M119.52 59.34H115.52V58.45H119.52V59.34ZM119.52 57.56H115.52V56.67H119.52V57.56ZM119.52 55.78H115.52V54.89H119.52V55.78ZM119.52 54H115.52V53.1H119.52V54ZM119.52 52.21H115.52V51.32H119.52V52.21ZM119.52 50.43H115.52V49.54H119.52V50.43ZM119.52 48.65H115.52V47.75H119.52V48.65ZM119.52 46.86H115.52V46H119.52V46.86ZM119.52 45.08H115.52V44.19H119.52V45.08ZM119.52 43.3H115.52V42.41H119.52V43.3ZM119.52 41.51H115.52V40.62H119.52V41.51ZM119.52 39.73H115.52V38.84H119.52V39.73ZM119.52 37.95H115.52V37.06H119.52V37.95ZM119.52 36.16H115.52V35.27H119.52V36.16ZM119.52 34.38H115.52V33.49H119.52V34.38ZM119.52 32.6H115.52V31.71H119.52V32.6ZM119.52 30.81H115.52V30.55H119.52V30.81Z" fill="#8C99B2"/>
<path d="M104.59 59.34H100.59V58.45H104.59V59.34ZM104.59 57.56H100.59V56.67H104.59V57.56ZM104.59 55.78H100.59V54.89H104.59V55.78ZM104.59 54H100.59V53.1H104.59V54ZM104.59 52.21H100.59V51.32H104.59V52.21ZM104.59 50.43H100.59V49.54H104.59V50.43ZM104.59 48.65H100.59V47.75H104.59V48.65ZM104.59 46.86H100.59V46H104.59V46.86ZM104.59 45.08H100.59V44.19H104.59V45.08ZM104.59 43.3H100.59V42.41H104.59V43.3ZM104.59 41.51H100.59V40.62H104.59V41.51ZM104.59 39.73H100.59V38.84H104.59V39.73ZM104.59 37.95H100.59V37.06H104.59V37.95ZM104.59 36.16H100.59V35.27H104.59V36.16ZM104.59 34.38H100.59V33.49H104.59V34.38ZM104.59 32.6H100.59V31.71H104.59V32.6Z" fill="#8C99B2"/>
<path d="M89.67 59.34H85.67V58.45H89.67V59.34ZM89.67 57.56H85.67V56.67H89.67V57.56ZM89.67 55.78H85.67V54.89H89.67V55.78ZM89.67 54H85.67V53.1H89.67V54ZM89.67 52.21H85.67V51.32H89.67V52.21ZM89.67 50.43H85.67V49.54H89.67V50.43ZM89.67 48.65H85.67V47.75H89.67V48.65Z" fill="#8C99B2"/>
<path d="M89.67 47H85.67V46.11H89.67V47ZM89.67 45.22H85.67V44.33H89.67V45.22ZM89.67 43.43H85.67V42.54H89.67V43.43ZM89.67 41.65H85.67V40.76H89.67V41.65Z" fill="#8C99B2"/>
<path d="M74.74 59.34H70.74V58.45H74.74V59.34ZM74.74 57.56H70.74V56.67H74.74V57.56ZM74.74 55.78H70.74V54.89H74.74V55.78ZM74.74 54H70.74V53.1H74.74V54ZM74.74 52.21H70.74V51.32H74.74V52.21ZM74.74 50.43H70.74V49.54H74.74V50.43ZM74.74 48.65H70.74V47.75H74.74V48.65ZM74.74 46.86H70.74V46H74.74V46.86ZM74.74 45.08H70.74V44.19H74.74V45.08ZM74.74 43.3H70.74V42.41H74.74V43.3ZM74.74 41.51H70.74V40.62H74.74V41.51ZM74.74 39.73H70.74V38.84H74.74V39.73Z" fill="#8C99B2"/>
<path d="M59.81 59.34H55.81V58.45H59.81V59.34ZM59.81 57.56H55.81V56.67H59.81V57.56ZM59.81 55.78H55.81V54.89H59.81V55.78ZM59.81 54H55.81V53.1H59.81V54ZM59.81 52.21H55.81V51.32H59.81V52.21ZM59.81 50.43H55.81V49.54H59.81V50.43ZM59.81 48.65H55.81V47.75H59.81V48.65ZM59.81 46.86H55.81V46H59.81V46.86ZM59.81 45.08H55.81V44.19H59.81V45.08ZM59.81 43.3H55.81V42.41H59.81V43.3ZM59.81 41.51H55.81V40.62H59.81V41.51ZM59.81 39.73H55.81V38.84H59.81V39.73ZM59.81 37.95H55.81V37.06H59.81V37.95ZM59.81 36.16H55.81V35.27H59.81V36.16ZM59.81 34.38H55.81V33.67H59.81V34.38Z" fill="#8C99B2"/>
<g opacity="0.05">
<path opacity="0.05" d="M44.88 59.34H40.88V58.45H44.88V59.34ZM44.88 57.56H40.88V56.67H44.88V57.56ZM44.88 55.78H40.88V54.89H44.88V55.78ZM44.88 54H40.88V53.1H44.88V54ZM44.88 52.21H40.88V51.32H44.88V52.21ZM44.88 50.43H40.88V49.54H44.88V50.43ZM44.88 48.65H40.88V47.75H44.88V48.65ZM44.88 46.86H40.88V46H44.88V46.86ZM44.88 45.08H40.88V44.19H44.88V45.08ZM44.88 43.3H40.88V42.41H44.88V43.3ZM44.88 41.51H40.88V40.62H44.88V41.51ZM44.88 39.73H40.88V38.84H44.88V39.73ZM44.88 37.95H40.88V37.06H44.88V37.95ZM44.88 36.16H40.88V35.27H44.88V36.16ZM44.88 34.38H40.88V33.49H44.88V34.38ZM44.88 32.6H40.88V31.71H44.88V32.6ZM44.88 30.81H40.88V29.92H44.88V30.81ZM44.88 29.03H40.88V28.14H44.88V29.03ZM44.88 27.25H40.88V26.36H44.88V27.25Z" fill="#303549"/>
</g>
<path d="M129.58 89.72H125.58V88.82H129.58V89.72ZM129.58 87.93H125.58V87H129.58V87.93ZM129.58 86.15H125.58V85.26H129.58V86.15ZM129.58 84.37H125.58V83.48H129.58V84.37ZM129.58 82.58H125.58V81.69H129.58V82.58ZM129.58 80.8H125.58V79.91H129.58V80.8ZM129.58 79.02H125.58V78.13H129.58V79.02Z" fill="#FF1D25"/>
<path d="M129.58 77.25H125.58V77.11H129.58V77.25ZM129.58 76.25H125.58V75.36H129.58V76.25ZM129.58 74.47H125.58V73.58H129.58V74.47ZM129.58 72.69H125.58V71.8H129.58V72.69ZM129.58 70.91H125.58V70H129.58V70.91ZM129.58 69.12H125.58V68.23H129.58V69.12ZM129.58 67.34H125.58V66.45H129.58V67.34ZM129.58 65.56H125.58V64.66H129.58V65.56ZM129.58 63.77H125.58V62.88H129.58V63.77Z" fill="#8C99B2"/>
</svg>
