<svg id="a6e7e679-a763-4f54-b1c5-b9abdff230f4" data-name="1" xmlns="http://www.w3.org/2000/svg" viewBox="0 0 324 116.75"><defs><style>.a278706b-25fa-4655-820b-ef0e62fd7c69,.a7edfab5-2adc-4208-b477-976ecd81fa38,.b6c11bed-8b3a-48e9-98f9-32d1902e2feb{fill:none;}.a278706b-25fa-4655-820b-ef0e62fd7c69{stroke:#5b607d;stroke-dasharray:2 3;}.a278706b-25fa-4655-820b-ef0e62fd7c69,.a530a080-ee06-4b8b-8ca9-265d45e7a317,.a7edfab5-2adc-4208-b477-976ecd81fa38,.a846cb5f-9dc5-46bb-9885-0a3b1722aa14,.a8848ad7-ffe3-4880-a19a-adbc8034bea9,.aa4cc4df-5b89-4aaf-8286-756444b7d44d,.b6c11bed-8b3a-48e9-98f9-32d1902e2feb{stroke-miterlimit:10;}.a278706b-25fa-4655-820b-ef0e62fd7c69,.aa4cc4df-5b89-4aaf-8286-756444b7d44d,.e1b7a66b-dc75-40e0-88f0-7bbf94ed41b8,.e5740a1e-d72b-4781-8682-475d67550c2a{opacity:0.5;}.a530a080-ee06-4b8b-8ca9-265d45e7a317{fill:#131822;stroke:#5f6581;}.a530a080-ee06-4b8b-8ca9-265d45e7a317,.a7edfab5-2adc-4208-b477-976ecd81fa38,.a846cb5f-9dc5-46bb-9885-0a3b1722aa14,.a8848ad7-ffe3-4880-a19a-adbc8034bea9,.aa4cc4df-5b89-4aaf-8286-756444b7d44d,.b6c11bed-8b3a-48e9-98f9-32d1902e2feb{stroke-width:0.5px;}.aa4cc4df-5b89-4aaf-8286-756444b7d44d{fill:#1b1e27;}.a846cb5f-9dc5-46bb-9885-0a3b1722aa14,.aa4cc4df-5b89-4aaf-8286-756444b7d44d{stroke:#58607f;}.acc2f57c-86aa-4ab8-a47f-58b8c52eea4d,.e1b7a66b-dc75-40e0-88f0-7bbf94ed41b8{fill:#5c6581;}.a3eb4532-c80b-4dde-9d12-1a3a6723b078,.e195e67c-3857-4cbc-989a-74c2230a601c{isolation:isolate;font-size:5.67px;font-family:Tahoma;}.a3eb4532-c80b-4dde-9d12-1a3a6723b078,.bce849d2-32bf-4827-bb9d-7cc78b3cc61e,.e195e67c-3857-4cbc-989a-74c2230a601c{fill:#fff;}.a846cb5f-9dc5-46bb-9885-0a3b1722aa14{fill:#121928;}.b6c11bed-8b3a-48e9-98f9-32d1902e2feb{stroke:#5c6581;}.a8848ad7-ffe3-4880-a19a-adbc8034bea9,.e2565542-b339-4660-8353-9dd56209ed5c{fill:#ffa300;}.a8848ad7-ffe3-4880-a19a-adbc8034bea9{fill-opacity:0.2;}.a7edfab5-2adc-4208-b477-976ecd81fa38,.a8848ad7-ffe3-4880-a19a-adbc8034bea9{stroke:#ffa300;}.a94b4883-bfb9-4c93-a368-3ccf3b498739{fill:#212636;}.a3eb4532-c80b-4dde-9d12-1a3a6723b078{opacity:0.3;}.f05cda33-57ea-46bf-8cc2-af860ec80c61{font-size:4.13px;}.aa5b3b78-f8e8-436d-b525-2de38ff187d6{fill:#69aac0;}.bc55072e-7872-4eb9-92a5-d74de01d26ef{opacity:0.2;}.a1e582e5-1e39-4185-94e4-ebe579db4a69{fill:#009de2;}.ac914ff6-686b-4259-b2fe-67f0eec6d34e{opacity:0.25;}</style></defs><title>Макеты (5)</title><line class="a278706b-25fa-4655-820b-ef0e62fd7c69" x1="115.69" y1="30.28" x2="97.99" y2="30.28"/><circle class="a530a080-ee06-4b8b-8ca9-265d45e7a317" cx="115.81" cy="30.28" r="1.16"/><polygon class="aa4cc4df-5b89-4aaf-8286-756444b7d44d" points="75.76 18.87 72.94 18.87 65.19 18.87 67.8 21.42 67.8 38.13 65.19 40.68 72.94 40.68 75.76 40.68 78.36 38.13 78.36 21.42 75.76 18.87"/><path class="e1b7a66b-dc75-40e0-88f0-7bbf94ed41b8" d="M71.62,29.19V28.4a.27.27,0,0,1,.17-.31,2.74,2.74,0,0,1,1-.33c.3-.05.61-.06.91-.09h.08v-.23a.14.14,0,0,1,.14-.15c.08,0,.13.06.13.16v.22l.8.08v-.19A.14.14,0,0,1,75,27.4c.08,0,.13.06.14.16v.26a1.82,1.82,0,0,1,.3.11l.38.23a.19.19,0,0,1,.08.18c0,1.23,0,2.47,0,3.71v.08h.08a.14.14,0,1,1,0,.28H70a.14.14,0,0,1,0-.25s0,0,0-.09v-2.3a.2.2,0,0,1,.11-.2,2.24,2.24,0,0,1,.83-.3Zm2.11-1.25c-.28,0-.55,0-.82.08a2.78,2.78,0,0,0-.94.29.14.14,0,0,0-.08.14v3.69h1.84Zm1.85,4.2v-1c0-.92,0-1.85,0-2.77a.14.14,0,0,0,0-.09,1.43,1.43,0,0,0-.45-.21v.17h.07a.15.15,0,0,1,.13.13.14.14,0,0,1-.12.14H74v.68h.79v-.37a.13.13,0,0,1,.17-.13.15.15,0,0,1,.11.14v.37h.08a.13.13,0,0,1,.11.1.2.2,0,0,1,0,.13.17.17,0,0,1-.12,0H74v.68h.79v-.32a.14.14,0,0,1,.14-.14.13.13,0,0,1,.13.14.86.86,0,0,1,0,.16v.17h.07a.14.14,0,0,1,0,.27H74v.68h.79v-.26a.19.19,0,0,1,0-.08.13.13,0,0,1,.26.05c0,.1,0,.2,0,.3h.08a.12.12,0,0,1,.11.12.12.12,0,0,1-.08.14H74v.72h.79v-.41a.15.15,0,0,1,.14-.15.16.16,0,0,1,.14.15v.41Zm-4,0V30.43l-.37,0a2.45,2.45,0,0,0-.88.24.11.11,0,0,0-.06.11v1.34ZM70.3,30.42a3.52,3.52,0,0,1,1.31-.26v-.68c-.2,0-.39,0-.58.06a2,2,0,0,0-.67.21s-.06,0-.06.06Zm4.51-2.14v-.17c0-.05,0-.07,0-.07l-.24,0L74,28v.32Z"/><polygon class="aa4cc4df-5b89-4aaf-8286-756444b7d44d" points="91.36 21.44 88.8 18.87 78.05 18.87 80.62 21.44 80.62 28.83 91.36 28.83 91.36 21.44"/><polygon class="aa4cc4df-5b89-4aaf-8286-756444b7d44d" points="80.62 38.26 78.05 40.83 88.8 40.83 91.36 38.26 91.36 30.87 80.62 30.87 80.62 38.26"/><text class="e195e67c-3857-4cbc-989a-74c2230a601c" transform="translate(44.22 30.63)">БГС</text><polygon class="aa4cc4df-5b89-4aaf-8286-756444b7d44d" points="21.82 40.83 24.64 40.83 32.39 40.83 29.78 38.28 29.78 21.57 32.39 19.02 24.64 19.02 21.82 19.02 19.21 21.57 19.21 38.28 21.82 40.83"/><polygon class="aa4cc4df-5b89-4aaf-8286-756444b7d44d" points="6.21 38.26 8.78 40.83 19.53 40.83 16.96 38.26 16.96 30.87 6.21 30.87 6.21 38.26"/><polygon class="aa4cc4df-5b89-4aaf-8286-756444b7d44d" points="16.96 21.44 19.53 18.87 8.78 18.87 6.21 21.44 6.21 28.83 16.96 28.83 16.96 21.44"/><polyline class="a846cb5f-9dc5-46bb-9885-0a3b1722aa14" points="24.01 31.63 21.96 31.63 21.96 27.77 27.04 27.77 27.04 29.28"/><polyline class="a846cb5f-9dc5-46bb-9885-0a3b1722aa14" points="23.3 28.58 22.76 28.58 22.76 28.98"/><polyline class="a846cb5f-9dc5-46bb-9885-0a3b1722aa14" points="22.76 30.43 22.76 30.83 23.3 30.83"/><polyline class="a846cb5f-9dc5-46bb-9885-0a3b1722aa14" points="26.24 28.98 26.24 28.58 25.7 28.58"/><path class="a846cb5f-9dc5-46bb-9885-0a3b1722aa14" d="M27.11,31.94A3.1,3.1,0,0,0,26,30.08,3.15,3.15,0,0,0,25,31.94v.12a1.08,1.08,0,1,0,2.15,0A.49.49,0,0,0,27.11,31.94Z"/><path class="a846cb5f-9dc5-46bb-9885-0a3b1722aa14" d="M11.08,21.68a4.23,4.23,0,0,0-1.44,2.51.92.92,0,0,0,0,.16,1.45,1.45,0,0,0,2.89.19"/><path class="a846cb5f-9dc5-46bb-9885-0a3b1722aa14" d="M10.23,24.42a.74.74,0,0,0,.73.74"/><polyline class="a846cb5f-9dc5-46bb-9885-0a3b1722aa14" points="12.36 21.72 13.25 22.61 12.36 23.51"/><line class="a846cb5f-9dc5-46bb-9885-0a3b1722aa14" x1="11.43" y1="22.61" x2="13.25" y2="22.61"/><path class="a846cb5f-9dc5-46bb-9885-0a3b1722aa14" d="M14.2,36.06a2.22,2.22,0,0,0-3-1.94"/><polyline class="a846cb5f-9dc5-46bb-9885-0a3b1722aa14" points="14.57 36.02 14.18 36.41 13.8 36.03"/><path class="a846cb5f-9dc5-46bb-9885-0a3b1722aa14" d="M9.78,36.34a2.22,2.22,0,0,0,3,1.95"/><polyline class="a846cb5f-9dc5-46bb-9885-0a3b1722aa14" points="9.41 36.38 9.8 35.99 10.18 36.38"/><path class="a846cb5f-9dc5-46bb-9885-0a3b1722aa14" d="M12.81,36.47A2.41,2.41,0,0,0,12,35.05a2.37,2.37,0,0,0-.81,1.42.28.28,0,0,0,0,.09.82.82,0,0,0,1.64,0Z"/><path class="acc2f57c-86aa-4ab8-a47f-58b8c52eea4d" d="M84.42,26.64a1,1,0,0,1-.73-.31,1,1,0,0,1,0-1.46l2.73-2.73,1.47,1.46-2.73,2.73a1,1,0,0,1-.74.31m2-4.07-2.51,2.52a.73.73,0,0,0,1,1l2.51-2.52Z"/><path class="acc2f57c-86aa-4ab8-a47f-58b8c52eea4d" d="M88,24a.46.46,0,0,1-.31-.13l-1.46-1.46a.45.45,0,0,1,.63-.63l1.46,1.46a.44.44,0,0,1,.13.31A.44.44,0,0,1,88,24M86.53,21.9a.15.15,0,0,0-.1.24l1.45,1.46a.13.13,0,0,0,.2,0,.13.13,0,0,0,0-.1.14.14,0,0,0,0-.1L86.62,22a.12.12,0,0,0-.09-.05"/><path class="acc2f57c-86aa-4ab8-a47f-58b8c52eea4d" d="M88,23.28l-1.22-1.22.49-.48a.32.32,0,0,1,.25-.1h0a.35.35,0,0,1,.25.1l.71.72a.35.35,0,0,1,0,.5Zm-.78-1.22.78.79.27-.27a0,0,0,0,0,0-.07l-.72-.71,0,0s0,0,0,0Z"/><path class="acc2f57c-86aa-4ab8-a47f-58b8c52eea4d" d="M85,24.28l-1,1A.54.54,0,0,0,84,26l0,0a.54.54,0,0,0,.76,0L86.87,24Zm-.14,1.13a.29.29,0,1,1,.41,0,.28.28,0,0,1-.41,0m.27-.68a.21.21,0,0,1,0-.31.22.22,0,0,1,.31.31.21.21,0,0,1-.31,0"/><polyline class="b6c11bed-8b3a-48e9-98f9-32d1902e2feb" points="85.34 38.19 83.99 38.19 83.99 33.03 86.42 33.03 88 34.62 88 35.59 88 34.62 86.42 34.62 86.42 33.03"/><line class="b6c11bed-8b3a-48e9-98f9-32d1902e2feb" x1="85.74" y1="37.74" x2="86.82" y2="37.74"/><polygon class="acc2f57c-86aa-4ab8-a47f-58b8c52eea4d" points="86.6 38.48 87.89 37.74 86.6 36.99 86.6 38.48"/><polygon class="aa4cc4df-5b89-4aaf-8286-756444b7d44d" points="301.82 18.87 299 18.87 291.25 18.87 293.86 21.42 293.86 38.13 291.25 40.68 299 40.68 301.82 40.68 304.42 38.13 304.42 21.42 301.82 18.87"/><path class="e1b7a66b-dc75-40e0-88f0-7bbf94ed41b8" d="M297.68,29.19v-.7a.28.28,0,0,0,0-.09.28.28,0,0,1,.18-.31,2.74,2.74,0,0,1,1-.33c.3-.05.61-.06.91-.09h.08v-.23a.13.13,0,0,1,.13-.15c.09,0,.14.06.14.16v.22l.8.08v-.19a.14.14,0,0,1,.14-.16c.08,0,.13.06.13.16a2.25,2.25,0,0,1,0,.26,1.63,1.63,0,0,1,.31.11l.38.23a.19.19,0,0,1,.08.18c0,1.23,0,2.47,0,3.71v.08H302a.16.16,0,0,1,.17.14.15.15,0,0,1-.17.14h-5.92a.14.14,0,0,1,0-.25c.05,0,.05,0,.05-.09v-2.3a.2.2,0,0,1,.1-.2,2.35,2.35,0,0,1,.84-.3Zm2.11-1.25c-.28,0-.55,0-.82.08a2.78,2.78,0,0,0-.94.29.14.14,0,0,0-.08.14v3.69h1.84Zm1.84,4.2v-1c0-.92,0-1.85,0-2.77a.14.14,0,0,0,0-.09,1.43,1.43,0,0,0-.45-.21v.17h.07a.15.15,0,0,1,.13.13.14.14,0,0,1-.12.14h-1.15v.68h.79v-.37a.14.14,0,1,1,.27,0c0,.12,0,.24,0,.37h.08a.13.13,0,0,1,.12.1.2.2,0,0,1,0,.13.17.17,0,0,1-.12,0h-1.1v.68h.79v-.32a.14.14,0,0,1,.14-.14.13.13,0,0,1,.13.14.86.86,0,0,1,0,.16v.17h.07a.15.15,0,0,1,.14.13.15.15,0,0,1-.12.14h-1.16v.68h.8v-.26a.19.19,0,0,1,0-.08.14.14,0,0,1,.14-.09.14.14,0,0,1,.12.14c0,.1,0,.2,0,.3h.09a.13.13,0,0,1,.11.12.12.12,0,0,1-.08.14h-1.18v.72h.79v-.41a.15.15,0,0,1,.13-.15.15.15,0,0,1,.14.15.85.85,0,0,1,0,.16v.25Zm-4,0V30.43l-.37,0a2.45,2.45,0,0,0-.88.24.1.1,0,0,0-.06.11v1.34Zm-1.31-1.72a3.48,3.48,0,0,1,1.31-.26v-.68c-.2,0-.39,0-.58.06a2,2,0,0,0-.67.21s-.06,0-.06.06Zm4.51-2.14v-.17c0-.05,0-.07-.06-.07a1.6,1.6,0,0,0-.23,0l-.5-.05v.32Z"/><polygon class="aa4cc4df-5b89-4aaf-8286-756444b7d44d" points="317.42 21.44 314.86 18.87 304.11 18.87 306.68 21.44 306.68 28.83 317.42 28.83 317.42 21.44"/><polygon class="aa4cc4df-5b89-4aaf-8286-756444b7d44d" points="306.68 38.26 304.11 40.83 314.86 40.83 317.42 38.26 317.42 30.87 306.68 30.87 306.68 38.26"/><text class="e195e67c-3857-4cbc-989a-74c2230a601c" transform="translate(267.37 30.63)">АИ-95</text><polygon class="a8848ad7-ffe3-4880-a19a-adbc8034bea9" points="247.88 40.83 250.7 40.83 258.44 40.83 255.84 38.28 255.84 21.57 258.44 19.02 250.7 19.02 247.88 19.02 245.27 21.57 245.27 38.28 247.88 40.83"/><polygon class="aa4cc4df-5b89-4aaf-8286-756444b7d44d" points="232.27 38.26 234.84 40.83 245.59 40.83 243.02 38.26 243.02 30.87 232.27 30.87 232.27 38.26"/><polygon class="aa4cc4df-5b89-4aaf-8286-756444b7d44d" points="243.02 21.44 245.59 18.87 234.84 18.87 232.27 21.44 232.27 28.83 243.02 28.83 243.02 21.44"/><polyline class="a7edfab5-2adc-4208-b477-976ecd81fa38" points="250.07 31.63 248.02 31.63 248.02 27.77 253.1 27.77 253.1 29.28"/><polyline class="a7edfab5-2adc-4208-b477-976ecd81fa38" points="249.36 28.58 248.82 28.58 248.82 28.98"/><polyline class="a7edfab5-2adc-4208-b477-976ecd81fa38" points="248.82 30.43 248.82 30.83 249.36 30.83"/><polyline class="a7edfab5-2adc-4208-b477-976ecd81fa38" points="252.3 28.98 252.3 28.58 251.76 28.58"/><path class="a7edfab5-2adc-4208-b477-976ecd81fa38" d="M253.17,31.94a3.1,3.1,0,0,0-1.07-1.86A3.15,3.15,0,0,0,251,31.94s0,.08,0,.12a1.08,1.08,0,0,0,2.16,0S253.17,32,253.17,31.94Z"/><path class="a846cb5f-9dc5-46bb-9885-0a3b1722aa14" d="M237.14,21.68a4.23,4.23,0,0,0-1.44,2.51.92.92,0,0,0,0,.16,1.45,1.45,0,0,0,2.89.19"/><path class="a846cb5f-9dc5-46bb-9885-0a3b1722aa14" d="M236.29,24.42a.74.74,0,0,0,.73.74"/><polyline class="a846cb5f-9dc5-46bb-9885-0a3b1722aa14" points="238.42 21.72 239.31 22.61 238.42 23.51"/><line class="a846cb5f-9dc5-46bb-9885-0a3b1722aa14" x1="237.48" y1="22.61" x2="239.31" y2="22.61"/><path class="a846cb5f-9dc5-46bb-9885-0a3b1722aa14" d="M240.26,36.06a2.22,2.22,0,0,0-3-1.94"/><polyline class="a846cb5f-9dc5-46bb-9885-0a3b1722aa14" points="240.63 36.02 240.24 36.41 239.86 36.03"/><path class="a846cb5f-9dc5-46bb-9885-0a3b1722aa14" d="M235.84,36.34a2.22,2.22,0,0,0,3,1.95"/><polyline class="a846cb5f-9dc5-46bb-9885-0a3b1722aa14" points="235.47 36.38 235.85 35.99 236.24 36.38"/><path class="a846cb5f-9dc5-46bb-9885-0a3b1722aa14" d="M238.86,36.47a2.37,2.37,0,0,0-.81-1.42,2.41,2.41,0,0,0-.82,1.42v.09a.82.82,0,1,0,1.64,0A.28.28,0,0,0,238.86,36.47Z"/><path class="acc2f57c-86aa-4ab8-a47f-58b8c52eea4d" d="M310.48,26.64a1,1,0,0,1-.73-.31,1,1,0,0,1,0-1.46l2.73-2.73L314,23.6l-2.73,2.73a1,1,0,0,1-.74.31m2-4.07L310,25.09a.72.72,0,0,0,0,1,.74.74,0,0,0,1,0l2.51-2.52Z"/><path class="acc2f57c-86aa-4ab8-a47f-58b8c52eea4d" d="M314,24a.46.46,0,0,1-.31-.13l-1.46-1.46a.45.45,0,0,1,.63-.63l1.46,1.46a.44.44,0,0,1,.13.31A.44.44,0,0,1,314,24m-1.46-2.05a.12.12,0,0,0-.09.05.12.12,0,0,0,0,.19l1.45,1.46a.13.13,0,0,0,.2,0,.13.13,0,0,0,0-.1.14.14,0,0,0,0-.1L312.68,22a.12.12,0,0,0-.1-.05"/><path class="acc2f57c-86aa-4ab8-a47f-58b8c52eea4d" d="M314,23.28l-1.22-1.22.48-.48a.35.35,0,0,1,.26-.1h0a.35.35,0,0,1,.25.1l.71.72a.35.35,0,0,1,0,.5Zm-.78-1.22.78.79.27-.27a0,0,0,0,0,0-.07l-.72-.71,0,0s0,0,0,0Z"/><path class="acc2f57c-86aa-4ab8-a47f-58b8c52eea4d" d="M311,24.28l-1,1a.54.54,0,0,0,0,.76l0,0a.54.54,0,0,0,.76,0L312.93,24Zm-.13,1.13a.29.29,0,1,1,.41,0,.28.28,0,0,1-.41,0m.27-.68a.21.21,0,0,1,0-.31.22.22,0,0,1,.3,0,.21.21,0,0,1,0,.31.2.2,0,0,1-.3,0"/><polyline class="b6c11bed-8b3a-48e9-98f9-32d1902e2feb" points="311.39 38.19 310.05 38.19 310.05 33.03 312.48 33.03 314.06 34.62 314.06 35.59 314.06 34.62 312.47 34.62 312.48 33.03"/><line class="b6c11bed-8b3a-48e9-98f9-32d1902e2feb" x1="311.79" y1="37.74" x2="312.88" y2="37.74"/><polygon class="acc2f57c-86aa-4ab8-a47f-58b8c52eea4d" points="312.66 38.48 313.95 37.74 312.66 36.99 312.66 38.48"/><polygon class="aa4cc4df-5b89-4aaf-8286-756444b7d44d" points="188.68 18.87 185.86 18.87 178.11 18.87 180.72 21.42 180.72 38.13 178.11 40.68 185.86 40.68 188.68 40.68 191.28 38.13 191.28 21.42 188.68 18.87"/><path class="e1b7a66b-dc75-40e0-88f0-7bbf94ed41b8" d="M184.54,29.19v-.7a.28.28,0,0,0,0-.09.28.28,0,0,1,.18-.31,2.74,2.74,0,0,1,1-.33c.3-.05.61-.06.91-.09h.08v-.23a.14.14,0,0,1,.14-.15c.08,0,.13.06.13.16v.22l.8.08v-.19a.14.14,0,0,1,.14-.16c.08,0,.13.06.13.16a2.25,2.25,0,0,1,0,.26,1.63,1.63,0,0,1,.31.11l.38.23a.19.19,0,0,1,.08.18c0,1.23,0,2.47,0,3.71v.08h.08a.16.16,0,0,1,.17.14.15.15,0,0,1-.17.14h-5.92a.14.14,0,0,1,0-.25c.05,0,.05,0,.05-.09v-2.3a.2.2,0,0,1,.1-.2,2.35,2.35,0,0,1,.84-.3Zm2.11-1.25c-.28,0-.55,0-.82.08a2.78,2.78,0,0,0-.94.29.14.14,0,0,0-.08.14v3.69h1.84Zm1.85,4.2v-1c0-.92,0-1.85,0-2.77a.14.14,0,0,0,0-.09,1.43,1.43,0,0,0-.45-.21v.17h.07a.15.15,0,0,1,.13.13.14.14,0,0,1-.12.14h-1.15v.68h.79v-.37a.14.14,0,1,1,.27,0c0,.12,0,.24,0,.37h.08a.13.13,0,0,1,.12.1.2.2,0,0,1,0,.13.17.17,0,0,1-.12,0h-1.1v.68h.79v-.32a.14.14,0,0,1,.14-.14.13.13,0,0,1,.13.14.86.86,0,0,1,0,.16v.17h.07a.15.15,0,0,1,.14.13.15.15,0,0,1-.12.14h-1.16v.68h.8v-.26a.19.19,0,0,1,0-.08.14.14,0,0,1,.14-.09.14.14,0,0,1,.12.14c0,.1,0,.2,0,.3h.09a.13.13,0,0,1,.11.12.12.12,0,0,1-.08.14h-1.18v.72h.79v-.41a.15.15,0,0,1,.13-.15.15.15,0,0,1,.14.15.85.85,0,0,1,0,.16v.25Zm-4,0V30.43l-.37,0a2.45,2.45,0,0,0-.88.24.1.1,0,0,0-.06.11v1.34Zm-1.31-1.72a3.48,3.48,0,0,1,1.31-.26v-.68c-.2,0-.39,0-.58.06a2,2,0,0,0-.67.21s-.06,0-.06.06Zm4.51-2.14v-.17c0-.05,0-.07-.06-.07a1.6,1.6,0,0,0-.23,0l-.5-.05v.32Z"/><polygon class="aa4cc4df-5b89-4aaf-8286-756444b7d44d" points="204.28 21.44 201.72 18.87 190.97 18.87 193.53 21.44 193.53 28.83 204.28 28.83 204.28 21.44"/><polygon class="aa4cc4df-5b89-4aaf-8286-756444b7d44d" points="193.53 38.26 190.97 40.83 201.72 40.83 204.28 38.26 204.28 30.87 193.53 30.87 193.53 38.26"/><text class="e195e67c-3857-4cbc-989a-74c2230a601c" transform="translate(154.23 30.63)">АИ-92</text><polygon class="aa4cc4df-5b89-4aaf-8286-756444b7d44d" points="134.74 40.83 137.56 40.83 145.31 40.83 142.7 38.28 142.7 21.57 145.31 19.02 137.56 19.02 134.74 19.02 132.13 21.57 132.13 38.28 134.74 40.83"/><polygon class="aa4cc4df-5b89-4aaf-8286-756444b7d44d" points="119.13 38.26 121.7 40.83 132.45 40.83 129.88 38.26 129.88 30.87 119.13 30.87 119.13 38.26"/><polygon class="aa4cc4df-5b89-4aaf-8286-756444b7d44d" points="129.88 21.44 132.45 18.87 121.7 18.87 119.13 21.44 119.13 28.83 129.88 28.83 129.88 21.44"/><polyline class="a846cb5f-9dc5-46bb-9885-0a3b1722aa14" points="136.93 31.63 134.88 31.63 134.88 27.77 139.96 27.77 139.96 29.28"/><polyline class="a846cb5f-9dc5-46bb-9885-0a3b1722aa14" points="136.22 28.58 135.68 28.58 135.68 28.98"/><polyline class="a846cb5f-9dc5-46bb-9885-0a3b1722aa14" points="135.68 30.43 135.68 30.83 136.22 30.83"/><polyline class="a846cb5f-9dc5-46bb-9885-0a3b1722aa14" points="139.16 28.98 139.16 28.58 138.62 28.58"/><path class="a846cb5f-9dc5-46bb-9885-0a3b1722aa14" d="M140,31.94A3.1,3.1,0,0,0,139,30.08a3.15,3.15,0,0,0-1.07,1.86s0,.08,0,.12a1.08,1.08,0,1,0,2.16,0S140,32,140,31.94Z"/><path class="a846cb5f-9dc5-46bb-9885-0a3b1722aa14" d="M124,21.68a4.23,4.23,0,0,0-1.44,2.51.92.92,0,0,0,0,.16,1.45,1.45,0,0,0,2.89.19"/><path class="a846cb5f-9dc5-46bb-9885-0a3b1722aa14" d="M123.15,24.42a.74.74,0,0,0,.73.74"/><polyline class="a846cb5f-9dc5-46bb-9885-0a3b1722aa14" points="125.28 21.72 126.17 22.61 125.28 23.51"/><line class="a846cb5f-9dc5-46bb-9885-0a3b1722aa14" x1="124.34" y1="22.61" x2="126.17" y2="22.61"/><path class="a846cb5f-9dc5-46bb-9885-0a3b1722aa14" d="M127.12,36.06a2.22,2.22,0,0,0-3-1.94"/><polyline class="a846cb5f-9dc5-46bb-9885-0a3b1722aa14" points="127.49 36.02 127.1 36.41 126.72 36.03"/><path class="a846cb5f-9dc5-46bb-9885-0a3b1722aa14" d="M122.7,36.34a2.22,2.22,0,0,0,3,1.95"/><polyline class="a846cb5f-9dc5-46bb-9885-0a3b1722aa14" points="122.33 36.38 122.72 35.99 123.1 36.38"/><path class="a846cb5f-9dc5-46bb-9885-0a3b1722aa14" d="M125.72,36.47a2.37,2.37,0,0,0-.81-1.42,2.41,2.41,0,0,0-.82,1.42v.09a.82.82,0,0,0,1.64,0A.28.28,0,0,0,125.72,36.47Z"/><path class="acc2f57c-86aa-4ab8-a47f-58b8c52eea4d" d="M197.34,26.64a1,1,0,0,1-.73-.31,1,1,0,0,1,0-1.46l2.73-2.73,1.47,1.46-2.73,2.73a1,1,0,0,1-.74.31m2-4.07-2.51,2.52a.72.72,0,0,0,0,1,.74.74,0,0,0,1,0l2.51-2.52Z"/><path class="acc2f57c-86aa-4ab8-a47f-58b8c52eea4d" d="M200.9,24a.46.46,0,0,1-.31-.13l-1.46-1.46a.45.45,0,0,1,.63-.63l1.46,1.46a.44.44,0,0,1,.13.31.44.44,0,0,1-.45.45m-1.46-2.05a.12.12,0,0,0-.09.05.12.12,0,0,0,0,.19l1.45,1.46a.13.13,0,0,0,.2,0,.13.13,0,0,0,0-.1.14.14,0,0,0,0-.1L199.54,22a.12.12,0,0,0-.1-.05"/><path class="acc2f57c-86aa-4ab8-a47f-58b8c52eea4d" d="M200.88,23.28l-1.22-1.22.49-.48a.32.32,0,0,1,.25-.1h0a.35.35,0,0,1,.25.1l.71.72a.35.35,0,0,1,0,.5Zm-.78-1.22.78.79.27-.27a0,0,0,0,0,0-.07l-.72-.71,0,0s0,0,0,0Z"/><path class="acc2f57c-86aa-4ab8-a47f-58b8c52eea4d" d="M197.86,24.28l-1,1a.54.54,0,0,0,0,.76l0,0a.54.54,0,0,0,.76,0L199.79,24Zm-.13,1.13a.29.29,0,1,1,.41,0,.28.28,0,0,1-.41,0m.27-.68a.21.21,0,0,1,0-.31.22.22,0,0,1,.3,0,.21.21,0,0,1,0,.31.2.2,0,0,1-.3,0"/><polyline class="b6c11bed-8b3a-48e9-98f9-32d1902e2feb" points="198.25 38.19 196.91 38.19 196.91 33.03 199.34 33.03 200.92 34.62 200.92 35.59 200.92 34.62 199.33 34.62 199.34 33.03"/><line class="b6c11bed-8b3a-48e9-98f9-32d1902e2feb" x1="198.65" y1="37.74" x2="199.74" y2="37.74"/><polygon class="acc2f57c-86aa-4ab8-a47f-58b8c52eea4d" points="199.52 38.48 200.81 37.74 199.52 36.99 199.52 38.48"/><circle class="a530a080-ee06-4b8b-8ca9-265d45e7a317" cx="98.65" cy="29.87" r="1.55"/><line class="a278706b-25fa-4655-820b-ef0e62fd7c69" x1="227.43" y1="30.28" x2="209.73" y2="30.28"/><circle class="a530a080-ee06-4b8b-8ca9-265d45e7a317" cx="227.55" cy="30.28" r="1.16"/><circle class="a530a080-ee06-4b8b-8ca9-265d45e7a317" cx="210.38" cy="29.87" r="1.55"/><line class="a278706b-25fa-4655-820b-ef0e62fd7c69" x1="115.69" y1="83.18" x2="97.99" y2="83.18"/><circle class="a530a080-ee06-4b8b-8ca9-265d45e7a317" cx="115.81" cy="83.18" r="1.16"/><polygon class="aa4cc4df-5b89-4aaf-8286-756444b7d44d" points="75.76 71.77 72.94 71.77 65.19 71.77 67.8 74.32 67.8 91.03 65.19 93.58 72.94 93.58 75.76 93.58 78.36 91.03 78.36 74.32 75.76 71.77"/><path class="e1b7a66b-dc75-40e0-88f0-7bbf94ed41b8" d="M71.62,82.09V81.3a.27.27,0,0,1,.17-.31,2.74,2.74,0,0,1,1-.33c.3,0,.61-.06.91-.09h.08v-.23a.14.14,0,0,1,.14-.15c.08,0,.13.06.13.16v.22l.8.08v-.19A.14.14,0,0,1,75,80.3c.08,0,.13.06.14.16v.26a1.82,1.82,0,0,1,.3.11l.38.23a.19.19,0,0,1,.08.18c0,1.23,0,2.47,0,3.71V85h.08a.14.14,0,1,1,0,.28H70a.14.14,0,0,1,0-.25s0,0,0-.09v-2.3a.2.2,0,0,1,.11-.2,2.24,2.24,0,0,1,.83-.3Zm2.11-1.25c-.28,0-.55,0-.82.08a2.78,2.78,0,0,0-.94.29.14.14,0,0,0-.08.14V85h1.84ZM75.58,85v-1c0-.92,0-1.85,0-2.77a.14.14,0,0,0,0-.09,1.43,1.43,0,0,0-.45-.21v.17h.07a.15.15,0,0,1,.13.13.14.14,0,0,1-.12.14H74v.68h.79v-.37a.13.13,0,0,1,.17-.13.15.15,0,0,1,.11.14v.37h.08a.13.13,0,0,1,.11.1.2.2,0,0,1,0,.13.17.17,0,0,1-.12,0H74v.68h.79v-.32a.14.14,0,0,1,.14-.14.13.13,0,0,1,.13.14.86.86,0,0,1,0,.16v.17h.07a.14.14,0,0,1,0,.27H74V84h.79v-.26a.19.19,0,0,1,0-.08.13.13,0,0,1,.26,0c0,.1,0,.2,0,.3h.08a.12.12,0,0,1,.11.12.12.12,0,0,1-.08.14H74V85h.79v-.41a.15.15,0,0,1,.14-.15.16.16,0,0,1,.14.15V85Zm-4,0V83.33l-.37,0a2.45,2.45,0,0,0-.88.24.11.11,0,0,0-.06.11V85ZM70.3,83.32a3.52,3.52,0,0,1,1.31-.26v-.68c-.2,0-.39,0-.58.06a2,2,0,0,0-.67.21s-.06,0-.06.06Zm4.51-2.14V81a.05.05,0,0,0,0-.07,2,2,0,0,0-.24,0l-.5,0v.32Z"/><polygon class="aa4cc4df-5b89-4aaf-8286-756444b7d44d" points="91.36 74.34 88.8 71.77 78.05 71.77 80.62 74.34 80.62 81.73 91.36 81.73 91.36 74.34"/><polygon class="aa4cc4df-5b89-4aaf-8286-756444b7d44d" points="80.62 91.16 78.05 93.73 88.8 93.73 91.36 91.16 91.36 83.77 80.62 83.77 80.62 91.16"/><text class="e195e67c-3857-4cbc-989a-74c2230a601c" transform="translate(43.93 83.53)">ДТЗ</text><path class="a94b4883-bfb9-4c93-a368-3ccf3b498739" d="M47.62,95.3l-.54-.07.21-1.53.48.06Z"/><path class="a94b4883-bfb9-4c93-a368-3ccf3b498739" d="M46.54,95.15,46,95l.34-1.51c.15,0,.31.07.47.09Z"/><path class="a94b4883-bfb9-4c93-a368-3ccf3b498739" d="M45.47,94.91l-.53-.16.46-1.47.47.13Z"/><path class="a94b4883-bfb9-4c93-a368-3ccf3b498739" d="M45.26,71l-.49-1.47.53-.16.42,1.49Z"/><path class="a94b4883-bfb9-4c93-a368-3ccf3b498739" d="M46.19,70.7l-.36-1.5c.17,0,.35-.08.53-.12l.3,1.52Z"/><polygon class="aa4cc4df-5b89-4aaf-8286-756444b7d44d" points="21.82 93.73 24.64 93.73 32.39 93.73 29.78 91.18 29.78 74.47 32.39 71.92 24.64 71.92 21.82 71.92 19.21 74.47 19.21 91.18 21.82 93.73"/><polygon class="aa4cc4df-5b89-4aaf-8286-756444b7d44d" points="6.21 91.16 8.78 93.73 19.53 93.73 16.96 91.16 16.96 83.77 6.21 83.77 6.21 91.16"/><polygon class="aa4cc4df-5b89-4aaf-8286-756444b7d44d" points="16.96 74.34 19.53 71.77 8.78 71.77 6.21 74.34 6.21 81.73 16.96 81.73 16.96 74.34"/><polyline class="a846cb5f-9dc5-46bb-9885-0a3b1722aa14" points="24.01 84.53 21.96 84.53 21.96 80.67 27.04 80.67 27.04 82.18"/><polyline class="a846cb5f-9dc5-46bb-9885-0a3b1722aa14" points="23.3 81.48 22.76 81.48 22.76 81.88"/><polyline class="a846cb5f-9dc5-46bb-9885-0a3b1722aa14" points="22.76 83.33 22.76 83.73 23.3 83.73"/><polyline class="a846cb5f-9dc5-46bb-9885-0a3b1722aa14" points="26.24 81.88 26.24 81.48 25.7 81.48"/><path class="a846cb5f-9dc5-46bb-9885-0a3b1722aa14" d="M27.11,84.84A3.1,3.1,0,0,0,26,83,3.15,3.15,0,0,0,25,84.84V85a1.08,1.08,0,1,0,2.15,0A.49.49,0,0,0,27.11,84.84Z"/><path class="a846cb5f-9dc5-46bb-9885-0a3b1722aa14" d="M11.08,74.58a4.23,4.23,0,0,0-1.44,2.51,1,1,0,0,0,0,.17,1.45,1.45,0,0,0,2.89.18"/><path class="a846cb5f-9dc5-46bb-9885-0a3b1722aa14" d="M10.23,77.32a.74.74,0,0,0,.73.74"/><polyline class="a846cb5f-9dc5-46bb-9885-0a3b1722aa14" points="12.36 74.62 13.25 75.51 12.36 76.41"/><line class="a846cb5f-9dc5-46bb-9885-0a3b1722aa14" x1="11.43" y1="75.51" x2="13.25" y2="75.51"/><path class="a846cb5f-9dc5-46bb-9885-0a3b1722aa14" d="M14.2,89a2.22,2.22,0,0,0-3-1.94"/><polyline class="a846cb5f-9dc5-46bb-9885-0a3b1722aa14" points="14.57 88.92 14.18 89.31 13.8 88.93"/><path class="a846cb5f-9dc5-46bb-9885-0a3b1722aa14" d="M9.78,89.24a2.22,2.22,0,0,0,3,2"/><polyline class="a846cb5f-9dc5-46bb-9885-0a3b1722aa14" points="9.41 89.28 9.8 88.89 10.18 89.28"/><path class="a846cb5f-9dc5-46bb-9885-0a3b1722aa14" d="M12.81,89.37A2.41,2.41,0,0,0,12,88a2.37,2.37,0,0,0-.81,1.42.28.28,0,0,0,0,.09.82.82,0,1,0,1.64,0Z"/><path class="acc2f57c-86aa-4ab8-a47f-58b8c52eea4d" d="M84.42,79.54a1,1,0,0,1-.73-.31,1,1,0,0,1,0-1.46L86.42,75l1.47,1.46-2.73,2.73a1,1,0,0,1-.74.31m2-4.07L83.91,78a.73.73,0,0,0,1,1l2.51-2.52Z"/><path class="acc2f57c-86aa-4ab8-a47f-58b8c52eea4d" d="M88,76.85a.46.46,0,0,1-.31-.13l-1.46-1.46a.45.45,0,0,1,.63-.63l1.46,1.46a.44.44,0,0,1,.13.31.44.44,0,0,1-.45.45m-1.45-2a.15.15,0,0,0-.1.24l1.45,1.46a.13.13,0,0,0,.2,0,.13.13,0,0,0,0-.1.14.14,0,0,0,0-.1l-1.46-1.45a.12.12,0,0,0-.09,0"/><path class="acc2f57c-86aa-4ab8-a47f-58b8c52eea4d" d="M88,76.18,86.74,75l.49-.48a.32.32,0,0,1,.25-.1h0a.35.35,0,0,1,.25.1l.71.72a.35.35,0,0,1,0,.5ZM87.18,75l.78.79.27-.26a.06.06,0,0,0,0-.08l-.72-.71,0,0s0,0,0,0Z"/><path class="acc2f57c-86aa-4ab8-a47f-58b8c52eea4d" d="M85,77.18l-1,1a.54.54,0,0,0,0,.76l0,0a.54.54,0,0,0,.76,0l2.09-2.09Zm-.14,1.13a.29.29,0,1,1,.41,0,.28.28,0,0,1-.41,0m.27-.68a.21.21,0,0,1,0-.31.22.22,0,0,1,.31.31.21.21,0,0,1-.31,0"/><polyline class="b6c11bed-8b3a-48e9-98f9-32d1902e2feb" points="85.34 91.09 83.99 91.09 83.99 85.94 86.42 85.94 88 87.52 88 88.49 88 87.52 86.42 87.52 86.42 85.94"/><line class="b6c11bed-8b3a-48e9-98f9-32d1902e2feb" x1="85.74" y1="90.64" x2="86.82" y2="90.64"/><polygon class="acc2f57c-86aa-4ab8-a47f-58b8c52eea4d" points="86.6 91.39 87.89 90.64 86.6 89.89 86.6 91.39"/><polygon class="aa4cc4df-5b89-4aaf-8286-756444b7d44d" points="302.41 71.77 299.59 71.77 291.84 71.77 294.45 74.32 294.45 91.03 291.84 93.58 299.59 93.58 302.41 93.58 305.02 91.03 305.02 74.32 302.41 71.77"/><path class="e1b7a66b-dc75-40e0-88f0-7bbf94ed41b8" d="M298.27,82.09V81.3a.27.27,0,0,1,.17-.31,2.74,2.74,0,0,1,1-.33c.3,0,.61-.06.91-.09h.08v-.23a.14.14,0,0,1,.14-.15c.08,0,.13.06.13.16v.22l.8.08v-.19a.14.14,0,1,1,.28,0v.26a1.82,1.82,0,0,1,.3.11l.38.23a.19.19,0,0,1,.08.18V85h.07a.14.14,0,1,1,0,.28h-5.91a.13.13,0,0,1-.11-.11.12.12,0,0,1,.07-.14c.05,0,.05,0,.05-.09v-2.3a.21.21,0,0,1,.11-.2,2.29,2.29,0,0,1,.84-.3Zm2.12-1.25c-.29,0-.56,0-.83.08a2.78,2.78,0,0,0-.94.29.14.14,0,0,0-.08.14V85h1.85Zm1.84,4.2V81.3a.11.11,0,0,0,0-.09,1.43,1.43,0,0,0-.45-.21v.17h.07a.14.14,0,0,1,0,.27h-1.15v.68h.79v-.37a.14.14,0,0,1,.17-.13.14.14,0,0,1,.11.14v.37h.08a.12.12,0,0,1,.11.1.2.2,0,0,1,0,.13.16.16,0,0,1-.12,0h-1.1v.68h.79v-.32a.14.14,0,0,1,.28,0v.33h.07a.14.14,0,0,1,0,.27h-1.15V84h.79v-.26s0-.06,0-.08a.15.15,0,0,1,.15-.09.16.16,0,0,1,.12.14v.3h.08a.13.13,0,0,1,.12.12.12.12,0,0,1-.09.14h-1.18V85h.79v-.41a.14.14,0,1,1,.28,0V85Zm-4,0V83.33l-.37,0a2.51,2.51,0,0,0-.88.24.11.11,0,0,0-.06.11V85ZM297,83.32a3.52,3.52,0,0,1,1.31-.26v-.68c-.2,0-.39,0-.57.06a2,2,0,0,0-.68.21s-.06,0-.06.06Zm4.51-2.14V81a.05.05,0,0,0,0-.07l-.24,0-.5,0v.32Z"/><polygon class="aa4cc4df-5b89-4aaf-8286-756444b7d44d" points="318.02 74.34 315.45 71.77 304.7 71.77 307.27 74.34 307.27 81.73 318.02 81.73 318.02 74.34"/><polygon class="aa4cc4df-5b89-4aaf-8286-756444b7d44d" points="307.27 91.16 304.7 93.73 315.45 93.73 318.02 91.16 318.02 83.77 307.27 83.77 307.27 91.16"/><text class="a3eb4532-c80b-4dde-9d12-1a3a6723b078" transform="translate(265.85 83.53)">ДТЛ-ТУ<tspan class="f05cda33-57ea-46bf-8cc2-af860ec80c61"><tspan x="4.19" y="4.95">доп.т.</tspan></tspan></text><polygon class="aa4cc4df-5b89-4aaf-8286-756444b7d44d" points="248.47 93.73 251.29 93.73 259.04 93.73 256.43 91.18 256.43 74.47 259.04 71.92 251.29 71.92 248.47 71.92 245.86 74.47 245.86 91.18 248.47 93.73"/><polygon class="aa4cc4df-5b89-4aaf-8286-756444b7d44d" points="232.86 91.16 235.43 93.73 246.18 93.73 243.61 91.16 243.61 83.77 232.86 83.77 232.86 91.16"/><polygon class="aa4cc4df-5b89-4aaf-8286-756444b7d44d" points="243.61 74.34 246.18 71.77 235.43 71.77 232.86 74.34 232.86 81.73 243.61 81.73 243.61 74.34"/><polyline class="a846cb5f-9dc5-46bb-9885-0a3b1722aa14" points="250.66 84.53 248.61 84.53 248.61 80.67 253.69 80.67 253.69 82.18"/><polyline class="a846cb5f-9dc5-46bb-9885-0a3b1722aa14" points="249.95 81.48 249.41 81.48 249.41 81.88"/><polyline class="a846cb5f-9dc5-46bb-9885-0a3b1722aa14" points="249.41 83.33 249.41 83.73 249.95 83.73"/><polyline class="a846cb5f-9dc5-46bb-9885-0a3b1722aa14" points="252.89 81.88 252.89 81.48 252.36 81.48"/><path class="a846cb5f-9dc5-46bb-9885-0a3b1722aa14" d="M253.76,84.84A3.1,3.1,0,0,0,252.69,83a3.15,3.15,0,0,0-1.07,1.86V85a1.08,1.08,0,1,0,2.15,0A.49.49,0,0,0,253.76,84.84Z"/><path class="a846cb5f-9dc5-46bb-9885-0a3b1722aa14" d="M237.73,74.58a4.23,4.23,0,0,0-1.44,2.51,1,1,0,0,0,0,.17,1.45,1.45,0,0,0,2.89.18"/><path class="a846cb5f-9dc5-46bb-9885-0a3b1722aa14" d="M236.88,77.32a.74.74,0,0,0,.73.74"/><polyline class="a846cb5f-9dc5-46bb-9885-0a3b1722aa14" points="239.01 74.62 239.9 75.51 239.01 76.41"/><line class="a846cb5f-9dc5-46bb-9885-0a3b1722aa14" x1="238.08" y1="75.51" x2="239.9" y2="75.51"/><path class="a846cb5f-9dc5-46bb-9885-0a3b1722aa14" d="M240.86,89a2.23,2.23,0,0,0-1.29-1.87,2.19,2.19,0,0,0-1.7-.07"/><polyline class="a846cb5f-9dc5-46bb-9885-0a3b1722aa14" points="241.22 88.92 240.84 89.31 240.45 88.93"/><path class="a846cb5f-9dc5-46bb-9885-0a3b1722aa14" d="M236.43,89.24a2.22,2.22,0,0,0,3,2"/><polyline class="a846cb5f-9dc5-46bb-9885-0a3b1722aa14" points="236.06 89.28 236.45 88.89 236.83 89.28"/><path class="a846cb5f-9dc5-46bb-9885-0a3b1722aa14" d="M239.46,89.37a2.41,2.41,0,0,0-.82-1.42,2.37,2.37,0,0,0-.81,1.42.28.28,0,0,0,0,.09.82.82,0,0,0,1.64,0Z"/><path class="acc2f57c-86aa-4ab8-a47f-58b8c52eea4d" d="M311.08,79.54a1,1,0,0,1-.73-.31,1,1,0,0,1,0-1.46L313.07,75l1.47,1.46-2.73,2.73a1,1,0,0,1-.73.31m2-4.07L310.56,78a.73.73,0,0,0,1,1l2.52-2.52Z"/><path class="acc2f57c-86aa-4ab8-a47f-58b8c52eea4d" d="M314.63,76.85a.48.48,0,0,1-.31-.13l-1.46-1.46a.45.45,0,1,1,.63-.63L315,76.09a.44.44,0,0,1,.13.31.44.44,0,0,1-.45.45m-1.45-2a.14.14,0,0,0-.1,0,.12.12,0,0,0,0,.19l1.46,1.46a.12.12,0,0,0,.19,0,.13.13,0,0,0,0-.1.14.14,0,0,0,0-.1l-1.45-1.45a.16.16,0,0,0-.1,0"/><path class="acc2f57c-86aa-4ab8-a47f-58b8c52eea4d" d="M314.61,76.18,313.4,75l.48-.48a.32.32,0,0,1,.25-.1h0a.35.35,0,0,1,.25.1l.72.72a.35.35,0,0,1,0,.5ZM313.83,75l.78.79.27-.26a.06.06,0,0,0,0-.08l-.71-.71,0,0s0,0,0,0Z"/><path class="acc2f57c-86aa-4ab8-a47f-58b8c52eea4d" d="M311.6,77.18l-1,1a.54.54,0,0,0,0,.76l0,0a.54.54,0,0,0,.76,0l2.09-2.09Zm-.14,1.13a.29.29,0,1,1,.41,0,.28.28,0,0,1-.41,0m.27-.68a.21.21,0,0,1,0-.31.22.22,0,0,1,.31.31.21.21,0,0,1-.31,0"/><polyline class="b6c11bed-8b3a-48e9-98f9-32d1902e2feb" points="311.99 91.09 310.64 91.09 310.64 85.94 313.07 85.94 314.65 87.52 314.65 88.49 314.65 87.52 313.07 87.52 313.07 85.94"/><line class="b6c11bed-8b3a-48e9-98f9-32d1902e2feb" x1="312.39" y1="90.64" x2="313.47" y2="90.64"/><polygon class="acc2f57c-86aa-4ab8-a47f-58b8c52eea4d" points="313.25 91.39 314.55 90.64 313.25 89.89 313.25 91.39"/><polygon class="aa4cc4df-5b89-4aaf-8286-756444b7d44d" points="188.68 71.77 185.86 71.77 178.11 71.77 180.72 74.32 180.72 91.03 178.11 93.58 185.86 93.58 188.68 93.58 191.28 91.03 191.28 74.32 188.68 71.77"/><path class="e1b7a66b-dc75-40e0-88f0-7bbf94ed41b8" d="M184.54,82.09v-.7a.28.28,0,0,0,0-.09.28.28,0,0,1,.18-.31,2.74,2.74,0,0,1,1-.33c.3,0,.61-.06.91-.09h.08v-.23a.14.14,0,0,1,.14-.15c.08,0,.13.06.13.16v.22l.8.08v-.19a.14.14,0,0,1,.14-.16c.08,0,.13.06.13.16a2.25,2.25,0,0,1,0,.26,1.63,1.63,0,0,1,.31.11l.38.23a.19.19,0,0,1,.08.18c0,1.23,0,2.47,0,3.71V85h.08a.16.16,0,0,1,.17.14.15.15,0,0,1-.17.14h-5.92a.14.14,0,0,1,0-.25c.05,0,.05,0,.05-.09v-2.3a.2.2,0,0,1,.1-.2,2.35,2.35,0,0,1,.84-.3Zm2.11-1.25c-.28,0-.55,0-.82.08a2.78,2.78,0,0,0-.94.29.14.14,0,0,0-.08.14V85h1.84ZM188.5,85v-1c0-.92,0-1.85,0-2.77a.14.14,0,0,0,0-.09A1.43,1.43,0,0,0,188,81v.17h.07a.15.15,0,0,1,.13.13.14.14,0,0,1-.12.14h-1.15v.68h.79v-.37a.14.14,0,1,1,.27,0c0,.12,0,.24,0,.37h.08a.13.13,0,0,1,.12.1.2.2,0,0,1,0,.13.17.17,0,0,1-.12,0h-1.1v.68h.79v-.32a.14.14,0,0,1,.14-.14.13.13,0,0,1,.13.14.86.86,0,0,1,0,.16v.17h.07a.15.15,0,0,1,.14.13.15.15,0,0,1-.12.14h-1.16V84h.8v-.26a.19.19,0,0,1,0-.08.14.14,0,0,1,.14-.09.14.14,0,0,1,.12.14c0,.1,0,.2,0,.3h.09a.13.13,0,0,1,.11.12.12.12,0,0,1-.08.14h-1.18V85h.79v-.41a.15.15,0,0,1,.13-.15.15.15,0,0,1,.14.15.85.85,0,0,1,0,.16V85Zm-4,0V83.33l-.37,0a2.45,2.45,0,0,0-.88.24.1.1,0,0,0-.06.11V85Zm-1.31-1.72a3.48,3.48,0,0,1,1.31-.26v-.68c-.2,0-.39,0-.58.06a2,2,0,0,0-.67.21s-.06,0-.06.06Zm4.51-2.14V81s0-.07-.06-.07a1.6,1.6,0,0,0-.23,0l-.5,0v.32Z"/><polygon class="aa4cc4df-5b89-4aaf-8286-756444b7d44d" points="204.28 74.34 201.72 71.77 190.97 71.77 193.53 74.34 193.53 81.73 204.28 81.73 204.28 74.34"/><polygon class="aa4cc4df-5b89-4aaf-8286-756444b7d44d" points="193.53 91.16 190.97 93.73 201.72 93.73 204.28 91.16 204.28 83.77 193.53 83.77 193.53 91.16"/><text class="e195e67c-3857-4cbc-989a-74c2230a601c" transform="translate(152.12 83.53)">ДТЛ-ТУ</text><polygon class="aa4cc4df-5b89-4aaf-8286-756444b7d44d" points="134.74 93.73 137.56 93.73 145.31 93.73 142.7 91.18 142.7 74.47 145.31 71.92 137.56 71.92 134.74 71.92 132.13 74.47 132.13 91.18 134.74 93.73"/><polygon class="aa4cc4df-5b89-4aaf-8286-756444b7d44d" points="119.13 91.16 121.7 93.73 132.45 93.73 129.88 91.16 129.88 83.77 119.13 83.77 119.13 91.16"/><polygon class="aa4cc4df-5b89-4aaf-8286-756444b7d44d" points="129.88 74.34 132.45 71.77 121.7 71.77 119.13 74.34 119.13 81.73 129.88 81.73 129.88 74.34"/><polyline class="a846cb5f-9dc5-46bb-9885-0a3b1722aa14" points="136.93 84.53 134.88 84.53 134.88 80.67 139.96 80.67 139.96 82.18"/><polyline class="a846cb5f-9dc5-46bb-9885-0a3b1722aa14" points="136.22 81.48 135.68 81.48 135.68 81.88"/><polyline class="a846cb5f-9dc5-46bb-9885-0a3b1722aa14" points="135.68 83.33 135.68 83.73 136.22 83.73"/><polyline class="a846cb5f-9dc5-46bb-9885-0a3b1722aa14" points="139.16 81.88 139.16 81.48 138.62 81.48"/><path class="a846cb5f-9dc5-46bb-9885-0a3b1722aa14" d="M140,84.84A3.1,3.1,0,0,0,139,83a3.15,3.15,0,0,0-1.07,1.86s0,.08,0,.12A1.08,1.08,0,0,0,140,85S140,84.88,140,84.84Z"/><path class="a846cb5f-9dc5-46bb-9885-0a3b1722aa14" d="M124,74.58a4.23,4.23,0,0,0-1.44,2.51,1,1,0,0,0,0,.17,1.45,1.45,0,0,0,2.89.18"/><path class="a846cb5f-9dc5-46bb-9885-0a3b1722aa14" d="M123.15,77.32a.74.74,0,0,0,.73.74"/><polyline class="a846cb5f-9dc5-46bb-9885-0a3b1722aa14" points="125.28 74.62 126.17 75.51 125.28 76.41"/><line class="a846cb5f-9dc5-46bb-9885-0a3b1722aa14" x1="124.34" y1="75.51" x2="126.17" y2="75.51"/><path class="a846cb5f-9dc5-46bb-9885-0a3b1722aa14" d="M127.12,89a2.22,2.22,0,0,0-3-1.94"/><polyline class="a846cb5f-9dc5-46bb-9885-0a3b1722aa14" points="127.49 88.92 127.1 89.31 126.72 88.93"/><path class="a846cb5f-9dc5-46bb-9885-0a3b1722aa14" d="M122.7,89.24a2.22,2.22,0,0,0,3,2"/><polyline class="a846cb5f-9dc5-46bb-9885-0a3b1722aa14" points="122.33 89.28 122.72 88.89 123.1 89.28"/><path class="a846cb5f-9dc5-46bb-9885-0a3b1722aa14" d="M125.72,89.37a2.37,2.37,0,0,0-.81-1.42,2.41,2.41,0,0,0-.82,1.42v.09a.82.82,0,1,0,1.64,0A.28.28,0,0,0,125.72,89.37Z"/><path class="acc2f57c-86aa-4ab8-a47f-58b8c52eea4d" d="M197.34,79.54a1,1,0,0,1-.73-.31,1,1,0,0,1,0-1.46L199.34,75l1.47,1.46-2.73,2.73a1,1,0,0,1-.74.31m2-4.07L196.83,78a.72.72,0,0,0,0,1,.74.74,0,0,0,1,0l2.51-2.52Z"/><path class="acc2f57c-86aa-4ab8-a47f-58b8c52eea4d" d="M200.9,76.85a.46.46,0,0,1-.31-.13l-1.46-1.46a.45.45,0,1,1,.63-.63l1.46,1.46a.44.44,0,0,1,.13.31.44.44,0,0,1-.45.45m-1.46-2a.12.12,0,0,0-.09,0,.12.12,0,0,0,0,.19l1.45,1.46a.13.13,0,0,0,.2,0,.13.13,0,0,0,0-.1.14.14,0,0,0,0-.1l-1.46-1.45a.12.12,0,0,0-.1,0"/><path class="acc2f57c-86aa-4ab8-a47f-58b8c52eea4d" d="M200.88,76.18,199.66,75l.49-.48a.32.32,0,0,1,.25-.1h0a.35.35,0,0,1,.25.1l.71.72a.35.35,0,0,1,0,.5ZM200.1,75l.78.79.27-.26a.06.06,0,0,0,0-.08l-.72-.71,0,0s0,0,0,0Z"/><path class="acc2f57c-86aa-4ab8-a47f-58b8c52eea4d" d="M197.86,77.18l-1,1a.54.54,0,0,0,0,.76l0,0a.54.54,0,0,0,.76,0l2.09-2.09Zm-.13,1.13a.29.29,0,1,1,.41,0,.28.28,0,0,1-.41,0m.27-.68a.21.21,0,0,1,0-.31.22.22,0,0,1,.3,0,.21.21,0,0,1,0,.31.2.2,0,0,1-.3,0"/><polyline class="b6c11bed-8b3a-48e9-98f9-32d1902e2feb" points="198.25 91.09 196.91 91.09 196.91 85.94 199.34 85.94 200.92 87.52 200.92 88.49 200.92 87.52 199.33 87.52 199.34 85.94"/><line class="b6c11bed-8b3a-48e9-98f9-32d1902e2feb" x1="198.65" y1="90.64" x2="199.74" y2="90.64"/><polygon class="acc2f57c-86aa-4ab8-a47f-58b8c52eea4d" points="199.52 91.39 200.81 90.64 199.52 89.89 199.52 91.39"/><circle class="a530a080-ee06-4b8b-8ca9-265d45e7a317" cx="98.65" cy="82.77" r="1.55"/><line class="a278706b-25fa-4655-820b-ef0e62fd7c69" x1="227.43" y1="83.18" x2="209.73" y2="83.18"/><circle class="a530a080-ee06-4b8b-8ca9-265d45e7a317" cx="227.55" cy="83.18" r="1.16"/><circle class="a530a080-ee06-4b8b-8ca9-265d45e7a317" cx="210.38" cy="82.77" r="1.55"/><path class="a94b4883-bfb9-4c93-a368-3ccf3b498739" d="M48.59,42A12.44,12.44,0,1,1,61,29.59,12.45,12.45,0,0,1,48.59,42Zm0-24.41a12,12,0,1,0,12,12A12,12,0,0,0,48.59,17.61Z"/><path class="aa5b3b78-f8e8-436d-b525-2de38ff187d6" d="M48.59,42v-.46a12,12,0,0,0,0-24v-.46a12.44,12.44,0,0,1,0,24.87Z"/><g class="bc55072e-7872-4eb9-92a5-d74de01d26ef"><path class="a1e582e5-1e39-4185-94e4-ebe579db4a69" d="M48.59,44.24c-.35,0-.71,0-1.05,0l0-.68a14.68,14.68,0,0,0,2.48,0l.07.68C49.62,44.21,49.1,44.24,48.59,44.24Zm-1.52-.08a14.72,14.72,0,0,1-2.55-.49l.19-.66a13.38,13.38,0,0,0,2.43.47Zm3.53-.06-.1-.68a13.16,13.16,0,0,0,2.41-.55l.21.65A13.73,13.73,0,0,1,50.6,44.1Zm-6.53-.57a15.15,15.15,0,0,1-2.39-1l.33-.61a13.36,13.36,0,0,0,2.27,1Zm9.5-.16-.23-.64a14.71,14.71,0,0,0,2.24-1l.34.6A14.72,14.72,0,0,1,53.57,43.37Zm-12.3-1.08a15,15,0,0,1-2.12-1.49l.44-.53a14.12,14.12,0,0,0,2,1.42Zm15-.26L56,41.45a12.9,12.9,0,0,0,2-1.49l.46.51A13.69,13.69,0,0,1,56.32,42ZM38.79,40.49A15.15,15.15,0,0,1,37,38.59l.54-.42A14.49,14.49,0,0,0,39.25,40Zm20-.34-.48-.49a13.83,13.83,0,0,0,1.63-1.87l.55.41A14.31,14.31,0,0,1,58.74,40.15Zm-22-1.94A14.23,14.23,0,0,1,35.4,36l.62-.3a14.68,14.68,0,0,0,1.27,2.12Zm24-.4-.57-.38a14.28,14.28,0,0,0,1.2-2.16l.63.28A15.14,15.14,0,0,1,60.72,37.81ZM35.2,35.57a15.41,15.41,0,0,1-.84-2.45L35,33a12.92,12.92,0,0,0,.8,2.34Zm27-.46-.63-.26a13.69,13.69,0,0,0,.72-2.36l.67.14A14.22,14.22,0,0,1,62.16,35.11ZM34.25,32.66a14.9,14.9,0,0,1-.31-2.58l.69,0a13.33,13.33,0,0,0,.29,2.45ZM63,32.17l-.67-.12a14.5,14.5,0,0,0,.21-2.46v-.05h.69v.05A14.91,14.91,0,0,1,63,32.17ZM34.62,29.61h-.69A14.62,14.62,0,0,1,34.15,27l.68.12a14.19,14.19,0,0,0-.21,2.44Zm27.92-.52a13.34,13.34,0,0,0-.3-2.45l.67-.15a14.8,14.8,0,0,1,.32,2.57ZM34.91,26.71l-.67-.15A14.49,14.49,0,0,1,35,24.08l.64.26A13.83,13.83,0,0,0,34.91,26.71Zm27.23-.51a14.09,14.09,0,0,0-.81-2.34l.63-.28A15.45,15.45,0,0,1,62.81,26ZM35.81,23.93l-.63-.28a15.25,15.25,0,0,1,1.26-2.27l.57.38A13.91,13.91,0,0,0,35.81,23.93Zm25.33-.47a13.89,13.89,0,0,0-1.28-2.12l.56-.4a14.23,14.23,0,0,1,1.34,2.22ZM37.27,21.4,36.71,21A15,15,0,0,1,38.41,19l.48.49A13.76,13.76,0,0,0,37.27,21.4ZM59.59,21a14.36,14.36,0,0,0-1.69-1.8l.46-.51a13.76,13.76,0,0,1,1.77,1.89ZM39.22,19.22l-.46-.51a15,15,0,0,1,2.07-1.56l.36.58A14.35,14.35,0,0,0,39.22,19.22Zm18.34-.34a14.06,14.06,0,0,0-2-1.41l.34-.6A14.19,14.19,0,0,1,58,18.36Zm-16-1.38-.35-.59a13.94,13.94,0,0,1,2.35-1.1l.23.64A15.12,15.12,0,0,0,41.58,17.5Zm13.56-.25a13.32,13.32,0,0,0-2.27-1l.21-.66a16.15,16.15,0,0,1,2.39,1Zm-10.9-.94L44,15.65a15.47,15.47,0,0,1,2.53-.58l.09.68A13.27,13.27,0,0,0,44.24,16.31Zm8.2-.15A13.38,13.38,0,0,0,50,15.69l.07-.68a14.7,14.7,0,0,1,2.55.48Zm-5.35-.46L47,15a14.92,14.92,0,0,1,2.59,0l0,.68A13.58,13.58,0,0,0,47.09,15.7Z"/></g><path class="a1e582e5-1e39-4185-94e4-ebe579db4a69" d="M48.61,44.24c-.35,0-.7,0-1,0l0-.68a14.54,14.54,0,0,0,2.47,0l.07.68C49.64,44.21,49.12,44.24,48.61,44.24Z"/><path class="a1e582e5-1e39-4185-94e4-ebe579db4a69" d="M47.09,44.16a14.72,14.72,0,0,1-2.55-.49l.19-.66a13.38,13.38,0,0,0,2.43.47Z"/><path class="a1e582e5-1e39-4185-94e4-ebe579db4a69" d="M50.62,44.1l-.09-.68a13.24,13.24,0,0,0,2.4-.55l.22.65A13.65,13.65,0,0,1,50.62,44.1Z"/><path class="a1e582e5-1e39-4185-94e4-ebe579db4a69" d="M44.09,43.53a15.15,15.15,0,0,1-2.39-1l.33-.61a14.62,14.62,0,0,0,2.27,1Z"/><path class="a1e582e5-1e39-4185-94e4-ebe579db4a69" d="M53.59,43.37l-.23-.64a13.43,13.43,0,0,0,2.24-1l.34.6A14.72,14.72,0,0,1,53.59,43.37Z"/><path class="a1e582e5-1e39-4185-94e4-ebe579db4a69" d="M41.29,42.29a15.82,15.82,0,0,1-2.12-1.49l.44-.53a14.12,14.12,0,0,0,2,1.42Z"/><path class="a1e582e5-1e39-4185-94e4-ebe579db4a69" d="M56.35,42,56,41.45A13,13,0,0,0,58,40l.46.51A14.2,14.2,0,0,1,56.35,42Z"/><path class="a1e582e5-1e39-4185-94e4-ebe579db4a69" d="M38.81,40.49A15.93,15.93,0,0,1,37,38.59l.55-.42A14.36,14.36,0,0,0,39.27,40Z"/><path class="a1e582e5-1e39-4185-94e4-ebe579db4a69" d="M58.76,40.15l-.47-.49a13.76,13.76,0,0,0,1.62-1.87l.56.41A14.39,14.39,0,0,1,58.76,40.15Z"/><path class="e2565542-b339-4660-8353-9dd56209ed5c" d="M60.74,37.81l-.57-.38a14.28,14.28,0,0,0,1.2-2.16l.63.28A14.3,14.3,0,0,1,60.74,37.81Z"/><path class="e2565542-b339-4660-8353-9dd56209ed5c" d="M62.19,35.11l-.64-.26a14,14,0,0,0,.73-2.36l.67.14A15.13,15.13,0,0,1,62.19,35.11Z"/><path class="a1e582e5-1e39-4185-94e4-ebe579db4a69" d="M63,32.17l-.68-.12a14.52,14.52,0,0,0,.22-2.46v-.05h.68v0A14.93,14.93,0,0,1,63,32.17Z"/><path class="e2565542-b339-4660-8353-9dd56209ed5c" d="M62.57,29.09a14.39,14.39,0,0,0-.3-2.45l.67-.14a14.68,14.68,0,0,1,.32,2.57Z"/><path class="a1e582e5-1e39-4185-94e4-ebe579db4a69" d="M62.17,26.2a13.67,13.67,0,0,0-.81-2.33l.62-.28A14.21,14.21,0,0,1,62.83,26Z"/><path class="a1e582e5-1e39-4185-94e4-ebe579db4a69" d="M61.17,23.46a13.33,13.33,0,0,0-1.28-2.11l.55-.41a13.65,13.65,0,0,1,1.34,2.22Z"/><path class="a1e582e5-1e39-4185-94e4-ebe579db4a69" d="M59.62,21a14.49,14.49,0,0,0-1.69-1.81l.46-.51a15.15,15.15,0,0,1,1.77,1.9Z"/><path class="a1e582e5-1e39-4185-94e4-ebe579db4a69" d="M57.59,18.89a14.12,14.12,0,0,0-2-1.42l.34-.59A14.89,14.89,0,0,1,58,18.36Z"/><path class="a1e582e5-1e39-4185-94e4-ebe579db4a69" d="M55.17,17.25a13.67,13.67,0,0,0-2.27-1l.21-.66a15.2,15.2,0,0,1,2.39,1Z"/><path class="a1e582e5-1e39-4185-94e4-ebe579db4a69" d="M52.47,16.16A13.38,13.38,0,0,0,50,15.69l.07-.68a13.84,13.84,0,0,1,2.55.49Z"/><g class="e5740a1e-d72b-4781-8682-475d67550c2a"><g class="ac914ff6-686b-4259-b2fe-67f0eec6d34e"><circle class="a94b4883-bfb9-4c93-a368-3ccf3b498739" cx="48.59" cy="29.63" r="17.17"/></g></g><path class="a94b4883-bfb9-4c93-a368-3ccf3b498739" d="M44.21,44.69l-.56.44a13,13,0,0,1-5.12-3.22h-.94a15.62,15.62,0,0,1-3.07-3.85l-.48.22a17.23,17.23,0,0,0,29.8-.07l-.28-.13a15.49,15.49,0,0,1-3.05,3.83h-.95a12.89,12.89,0,0,1-5.11,3.22l-.62-.49a15.9,15.9,0,0,1-9.62,0Z"/><path class="a94b4883-bfb9-4c93-a368-3ccf3b498739" d="M54,14.59l.45-.35a12.89,12.89,0,0,1,5.11,3.22h.95a14.81,14.81,0,0,1,3.11,4l.39-.18a17.23,17.23,0,0,0-30.14-.07l.59.28a15.07,15.07,0,0,1,3.13-4h.94a13,13,0,0,1,5.12-3.22l.38.3a15.84,15.84,0,0,1,10,.05Z"/><circle class="bce849d2-32bf-4827-bb9d-7cc78b3cc61e" cx="37.44" cy="38.58" r="0.51"/><path class="a94b4883-bfb9-4c93-a368-3ccf3b498739" d="M161.73,42a12.44,12.44,0,1,1,12.44-12.43A12.45,12.45,0,0,1,161.73,42Zm0-24.41a12,12,0,1,0,12,12A12,12,0,0,0,161.73,17.61Z"/><path class="aa5b3b78-f8e8-436d-b525-2de38ff187d6" d="M161.73,42v-.46a12,12,0,1,0,0-24v-.46a12.44,12.44,0,1,1,0,24.87Z"/><g class="bc55072e-7872-4eb9-92a5-d74de01d26ef"><path class="a1e582e5-1e39-4185-94e4-ebe579db4a69" d="M161.73,44.24c-.35,0-.7,0-1,0l0-.68a14.54,14.54,0,0,0,2.47,0l.08.68C162.77,44.21,162.25,44.24,161.73,44.24Zm-1.52-.08a14.61,14.61,0,0,1-2.54-.49l.19-.66a13.27,13.27,0,0,0,2.42.47Zm3.53-.06-.09-.68a13.16,13.16,0,0,0,2.41-.55l.21.65A13.65,13.65,0,0,1,163.74,44.1Zm-6.52-.57a14.76,14.76,0,0,1-2.39-1l.32-.61a13.82,13.82,0,0,0,2.28,1Zm9.5-.16-.24-.64a13.87,13.87,0,0,0,2.24-1l.35.6A14.72,14.72,0,0,1,166.72,43.37Zm-12.3-1.08a15.65,15.65,0,0,1-2.13-1.49l.45-.53a14.12,14.12,0,0,0,2,1.42ZM169.47,42l-.36-.58a12.9,12.9,0,0,0,2-1.49l.46.51A14.2,14.2,0,0,1,169.47,42Zm-17.53-1.54a15.15,15.15,0,0,1-1.77-1.9l.54-.42A14.49,14.49,0,0,0,152.4,40Zm19.95-.34-.48-.49A13.83,13.83,0,0,0,173,37.79l.55.41A15,15,0,0,1,171.89,40.15Zm-22-1.94A14.23,14.23,0,0,1,148.55,36l.62-.3a14.68,14.68,0,0,0,1.27,2.12Zm24-.4-.57-.38a14.34,14.34,0,0,0,1.21-2.16l.63.28A15.2,15.2,0,0,1,173.86,37.81Zm-25.51-2.24a14.47,14.47,0,0,1-.84-2.45l.66-.17a13.78,13.78,0,0,0,.81,2.34Zm27-.46-.64-.26a12.9,12.9,0,0,0,.73-2.36l.67.14A14.22,14.22,0,0,1,175.31,35.11ZM147.4,32.66a14,14,0,0,1-.31-2.58l.68,0a14.27,14.27,0,0,0,.3,2.45Zm28.76-.49-.67-.12a14.5,14.5,0,0,0,.21-2.46v-.05h.69v.05A14.91,14.91,0,0,1,176.16,32.17Zm-28.39-2.56h-.69A14.62,14.62,0,0,1,147.3,27l.68.12a14.19,14.19,0,0,0-.22,2.44Zm27.92-.52a14.27,14.27,0,0,0-.3-2.45l.67-.15a14.8,14.8,0,0,1,.32,2.57Zm-27.63-2.38-.67-.15a14.49,14.49,0,0,1,.76-2.48l.63.26A13.8,13.8,0,0,0,148.06,26.71Zm27.23-.51a14.09,14.09,0,0,0-.81-2.34l.63-.28A14.47,14.47,0,0,1,176,26ZM149,23.93l-.63-.28a14.4,14.4,0,0,1,1.26-2.27l.57.38A13.91,13.91,0,0,0,149,23.93Zm25.33-.47A13.89,13.89,0,0,0,173,21.34l.56-.4a14.23,14.23,0,0,1,1.34,2.22ZM150.42,21.4l-.56-.41a15,15,0,0,1,1.7-1.95l.48.49A13.09,13.09,0,0,0,150.42,21.4ZM172.74,21a15.13,15.13,0,0,0-1.69-1.8l.46-.51a14.4,14.4,0,0,1,1.77,1.89Zm-20.37-1.76-.46-.51A14.87,14.87,0,0,1,154,17.15l.37.58A14.35,14.35,0,0,0,152.37,19.22Zm18.34-.34a14.06,14.06,0,0,0-2-1.41l.34-.6a14.19,14.19,0,0,1,2.12,1.49Zm-16-1.38-.34-.59a13.59,13.59,0,0,1,2.35-1.1l.23.64A15.73,15.73,0,0,0,154.72,17.5Zm13.57-.25a13.67,13.67,0,0,0-2.27-1l.21-.66a15.6,15.6,0,0,1,2.38,1Zm-10.91-.94-.21-.66a15.47,15.47,0,0,1,2.53-.58l.09.68A13.57,13.57,0,0,0,157.38,16.31Zm8.2-.15a13.27,13.27,0,0,0-2.42-.47l.07-.68a14.59,14.59,0,0,1,2.54.48Zm-5.34-.46-.07-.69a14.92,14.92,0,0,1,2.59,0l0,.68A13.58,13.58,0,0,0,160.24,15.7Z"/></g><path class="a1e582e5-1e39-4185-94e4-ebe579db4a69" d="M161.76,44.24c-.35,0-.71,0-1,0l0-.68a14.57,14.57,0,0,0,2.47,0l.07.68C162.79,44.21,162.27,44.24,161.76,44.24Z"/><path class="a1e582e5-1e39-4185-94e4-ebe579db4a69" d="M160.24,44.16a14.72,14.72,0,0,1-2.55-.49l.19-.66a13.38,13.38,0,0,0,2.43.47Z"/><path class="a1e582e5-1e39-4185-94e4-ebe579db4a69" d="M163.77,44.1l-.1-.68a13.16,13.16,0,0,0,2.41-.55l.21.65A13.73,13.73,0,0,1,163.77,44.1Z"/><path class="a1e582e5-1e39-4185-94e4-ebe579db4a69" d="M157.24,43.53a14.76,14.76,0,0,1-2.39-1l.33-.61a14.22,14.22,0,0,0,2.27,1Z"/><path class="a1e582e5-1e39-4185-94e4-ebe579db4a69" d="M166.74,43.37l-.23-.64a13.81,13.81,0,0,0,2.24-1l.34.6A14.72,14.72,0,0,1,166.74,43.37Z"/><path class="a1e582e5-1e39-4185-94e4-ebe579db4a69" d="M154.44,42.29a15.82,15.82,0,0,1-2.12-1.49l.44-.53a14.12,14.12,0,0,0,2,1.42Z"/><path class="a1e582e5-1e39-4185-94e4-ebe579db4a69" d="M169.49,42l-.36-.58a13.5,13.5,0,0,0,2-1.49l.46.51A14.29,14.29,0,0,1,169.49,42Z"/><path class="a1e582e5-1e39-4185-94e4-ebe579db4a69" d="M152,40.49a15.15,15.15,0,0,1-1.77-1.9l.54-.42A15.22,15.22,0,0,0,152.42,40Z"/><path class="a1e582e5-1e39-4185-94e4-ebe579db4a69" d="M171.91,40.15l-.47-.49a13.76,13.76,0,0,0,1.62-1.87l.56.41A15.11,15.11,0,0,1,171.91,40.15Z"/><path class="e2565542-b339-4660-8353-9dd56209ed5c" d="M173.89,37.81l-.57-.38a14.28,14.28,0,0,0,1.2-2.16l.63.28A15.14,15.14,0,0,1,173.89,37.81Z"/><path class="e2565542-b339-4660-8353-9dd56209ed5c" d="M175.33,35.11l-.63-.26a14,14,0,0,0,.72-2.36l.68.14A14.25,14.25,0,0,1,175.33,35.11Z"/><path class="a1e582e5-1e39-4185-94e4-ebe579db4a69" d="M176.19,32.17l-.68-.12a14.52,14.52,0,0,0,.22-2.46v-.05h.69v0A14.93,14.93,0,0,1,176.19,32.17Z"/><path class="e2565542-b339-4660-8353-9dd56209ed5c" d="M175.72,29.09a13.46,13.46,0,0,0-.31-2.45l.68-.14a14.67,14.67,0,0,1,.31,2.57Z"/><path class="a1e582e5-1e39-4185-94e4-ebe579db4a69" d="M175.31,26.2a14.56,14.56,0,0,0-.8-2.33l.62-.28A14.21,14.21,0,0,1,176,26Z"/><path class="a1e582e5-1e39-4185-94e4-ebe579db4a69" d="M174.32,23.46A15,15,0,0,0,173,21.35l.55-.41a15.23,15.23,0,0,1,1.34,2.22Z"/><path class="a1e582e5-1e39-4185-94e4-ebe579db4a69" d="M172.77,21a14.49,14.49,0,0,0-1.69-1.81l.46-.51a15.15,15.15,0,0,1,1.77,1.9Z"/><path class="a1e582e5-1e39-4185-94e4-ebe579db4a69" d="M170.74,18.89a13.67,13.67,0,0,0-2-1.42l.35-.59a15.48,15.48,0,0,1,2.12,1.48Z"/><path class="a1e582e5-1e39-4185-94e4-ebe579db4a69" d="M168.32,17.25a13.42,13.42,0,0,0-2.28-1l.21-.66a14.44,14.44,0,0,1,2.39,1Z"/><path class="a1e582e5-1e39-4185-94e4-ebe579db4a69" d="M165.61,16.16a13.27,13.27,0,0,0-2.42-.47l.07-.68a13.73,13.73,0,0,1,2.54.49Z"/><g class="e5740a1e-d72b-4781-8682-475d67550c2a"><g class="ac914ff6-686b-4259-b2fe-67f0eec6d34e"><circle class="a94b4883-bfb9-4c93-a368-3ccf3b498739" cx="161.73" cy="29.63" r="17.17"/></g></g><path class="a94b4883-bfb9-4c93-a368-3ccf3b498739" d="M157.35,44.69l-.56.44a12.89,12.89,0,0,1-5.11-3.22h-1a15.66,15.66,0,0,1-3.06-3.85l-.48.22A17.22,17.22,0,0,0,177,38.21l-.27-.13a15.45,15.45,0,0,1-3.06,3.83h-.94a13,13,0,0,1-5.12,3.22l-.62-.49a15.9,15.9,0,0,1-9.62,0Z"/><path class="a94b4883-bfb9-4c93-a368-3ccf3b498739" d="M167.15,14.59l.44-.35a13,13,0,0,1,5.12,3.22h.94a14.78,14.78,0,0,1,3.12,4l.38-.18A17.22,17.22,0,0,0,147,21.19l.59.28a15.1,15.1,0,0,1,3.12-4h1a12.89,12.89,0,0,1,5.11-3.22l.39.3a15.84,15.84,0,0,1,10,.05Z"/><circle class="bce849d2-32bf-4827-bb9d-7cc78b3cc61e" cx="150.59" cy="38.58" r="0.51"/><path class="a94b4883-bfb9-4c93-a368-3ccf3b498739" d="M274.16,42a12.44,12.44,0,1,1,12.43-12.43A12.45,12.45,0,0,1,274.16,42Zm0-24.41a12,12,0,1,0,12,12A12,12,0,0,0,274.16,17.61Z"/><path class="aa5b3b78-f8e8-436d-b525-2de38ff187d6" d="M274.16,42v-.46a12,12,0,0,0,0-24v-.46a12.44,12.44,0,0,1,0,24.87Z"/><g class="bc55072e-7872-4eb9-92a5-d74de01d26ef"><path class="a1e582e5-1e39-4185-94e4-ebe579db4a69" d="M274.16,44.24c-.35,0-.71,0-1.05,0l.05-.68a14.56,14.56,0,0,0,2.47,0l.07.68C275.19,44.21,274.67,44.24,274.16,44.24Zm-1.52-.08a14.72,14.72,0,0,1-2.55-.49l.19-.66a13.38,13.38,0,0,0,2.43.47Zm3.53-.06-.1-.68a13.16,13.16,0,0,0,2.41-.55l.21.65A13.73,13.73,0,0,1,276.17,44.1Zm-6.53-.57a15.15,15.15,0,0,1-2.39-1l.33-.61a13.36,13.36,0,0,0,2.27,1Zm9.5-.16-.23-.64a14.71,14.71,0,0,0,2.24-1l.34.6A14.72,14.72,0,0,1,279.14,43.37Zm-12.3-1.08a15,15,0,0,1-2.12-1.49l.44-.53a14.12,14.12,0,0,0,2,1.42ZM281.89,42l-.36-.58a13.5,13.5,0,0,0,2-1.49l.46.51A14.29,14.29,0,0,1,281.89,42Zm-17.53-1.54a15.15,15.15,0,0,1-1.77-1.9l.55-.42A13.7,13.7,0,0,0,264.82,40Zm19.95-.34-.48-.49a13.16,13.16,0,0,0,1.63-1.87l.55.41A14.31,14.31,0,0,1,284.31,40.15Zm-22-1.94A14.23,14.23,0,0,1,261,36l.62-.3a14.68,14.68,0,0,0,1.27,2.12Zm24-.4-.57-.38a14.28,14.28,0,0,0,1.2-2.16l.63.28A15.14,15.14,0,0,1,286.29,37.81Zm-25.52-2.24a15.41,15.41,0,0,1-.84-2.45l.67-.17a12.92,12.92,0,0,0,.8,2.34Zm27-.46-.63-.26a13.69,13.69,0,0,0,.72-2.36l.67.14A13.41,13.41,0,0,1,287.73,35.11Zm-27.91-2.45a14.9,14.9,0,0,1-.31-2.58l.69,0a13.33,13.33,0,0,0,.29,2.45Zm28.76-.49-.67-.12a14.5,14.5,0,0,0,.21-2.46v-.05h.69v.05A14,14,0,0,1,288.58,32.17Zm-28.39-2.56h-.69a15.64,15.64,0,0,1,.22-2.57l.68.12a14.19,14.19,0,0,0-.21,2.44Zm27.93-.52a14.28,14.28,0,0,0-.31-2.45l.67-.15a13.9,13.9,0,0,1,.32,2.57Zm-27.63-2.38-.68-.15a14.49,14.49,0,0,1,.76-2.48l.64.26A13,13,0,0,0,260.49,26.71Zm27.22-.51a14.09,14.09,0,0,0-.81-2.34l.63-.28a15.45,15.45,0,0,1,.85,2.45Zm-26.33-2.27-.63-.28A15.25,15.25,0,0,1,262,21.38l.57.38A14.78,14.78,0,0,0,261.38,23.93Zm25.33-.47a13.89,13.89,0,0,0-1.28-2.12l.56-.4a14.23,14.23,0,0,1,1.34,2.22ZM262.84,21.4l-.56-.41A15,15,0,0,1,264,19l.48.49A13.76,13.76,0,0,0,262.84,21.4ZM285.16,21a13.66,13.66,0,0,0-1.69-1.8l.46-.51a13.76,13.76,0,0,1,1.77,1.89Zm-20.37-1.76-.46-.51a15,15,0,0,1,2.07-1.56l.36.58A14.35,14.35,0,0,0,264.79,19.22Zm18.34-.34a14.06,14.06,0,0,0-2-1.41l.34-.6a14.81,14.81,0,0,1,2.13,1.49Zm-16-1.38-.35-.59a13.94,13.94,0,0,1,2.35-1.1l.23.64A15.12,15.12,0,0,0,267.15,17.5Zm13.56-.25a13.32,13.32,0,0,0-2.27-1l.21-.66a16.15,16.15,0,0,1,2.39,1Zm-10.9-.94-.22-.66a15.47,15.47,0,0,1,2.53-.58l.1.68A13.18,13.18,0,0,0,269.81,16.31Zm8.2-.15a13.38,13.38,0,0,0-2.43-.47l.07-.68a14.7,14.7,0,0,1,2.55.48Zm-5.35-.46-.07-.69a14.92,14.92,0,0,1,2.59,0l-.05.68A13.59,13.59,0,0,0,272.66,15.7Z"/></g><path class="a1e582e5-1e39-4185-94e4-ebe579db4a69" d="M274.18,44.24c-.35,0-.7,0-1.05,0l.05-.68a14.54,14.54,0,0,0,2.47,0l.07.68C275.21,44.21,274.69,44.24,274.18,44.24Z"/><path class="a1e582e5-1e39-4185-94e4-ebe579db4a69" d="M272.66,44.16a14.72,14.72,0,0,1-2.55-.49l.19-.66a13.38,13.38,0,0,0,2.43.47Z"/><path class="a1e582e5-1e39-4185-94e4-ebe579db4a69" d="M276.19,44.1l-.09-.68a13.54,13.54,0,0,0,2.41-.55l.21.65A13.65,13.65,0,0,1,276.19,44.1Z"/><path class="a1e582e5-1e39-4185-94e4-ebe579db4a69" d="M269.66,43.53a14.66,14.66,0,0,1-2.38-1l.32-.61a14.62,14.62,0,0,0,2.27,1Z"/><path class="a1e582e5-1e39-4185-94e4-ebe579db4a69" d="M279.16,43.37l-.23-.64a13.43,13.43,0,0,0,2.24-1l.34.6A14,14,0,0,1,279.16,43.37Z"/><path class="a1e582e5-1e39-4185-94e4-ebe579db4a69" d="M266.86,42.29a15.82,15.82,0,0,1-2.12-1.49l.44-.53a13.67,13.67,0,0,0,2,1.42Z"/><path class="a1e582e5-1e39-4185-94e4-ebe579db4a69" d="M281.92,42l-.37-.58a13,13,0,0,0,2-1.49l.46.51A14.2,14.2,0,0,1,281.92,42Z"/><path class="a1e582e5-1e39-4185-94e4-ebe579db4a69" d="M264.38,40.49a15.07,15.07,0,0,1-1.76-1.9l.54-.42A14.36,14.36,0,0,0,264.84,40Z"/><path class="a1e582e5-1e39-4185-94e4-ebe579db4a69" d="M284.33,40.15l-.47-.49a13.76,13.76,0,0,0,1.62-1.87l.56.41A14.39,14.39,0,0,1,284.33,40.15Z"/><path class="e2565542-b339-4660-8353-9dd56209ed5c" d="M286.31,37.81l-.57-.38a13.46,13.46,0,0,0,1.2-2.16l.63.28A14.3,14.3,0,0,1,286.31,37.81Z"/><path class="e2565542-b339-4660-8353-9dd56209ed5c" d="M287.76,35.11l-.64-.26a14,14,0,0,0,.73-2.36l.67.14A15.13,15.13,0,0,1,287.76,35.11Z"/><path class="a1e582e5-1e39-4185-94e4-ebe579db4a69" d="M288.61,32.17l-.68-.12a13.56,13.56,0,0,0,.22-2.46v-.05h.69v0A14.94,14.94,0,0,1,288.61,32.17Z"/><path class="e2565542-b339-4660-8353-9dd56209ed5c" d="M288.14,29.09a14.39,14.39,0,0,0-.3-2.45l.67-.14a14.68,14.68,0,0,1,.32,2.57Z"/><path class="a1e582e5-1e39-4185-94e4-ebe579db4a69" d="M287.74,26.2a13.67,13.67,0,0,0-.81-2.33l.63-.28A15.07,15.07,0,0,1,288.4,26Z"/><path class="a1e582e5-1e39-4185-94e4-ebe579db4a69" d="M286.74,23.46a13.33,13.33,0,0,0-1.28-2.11l.56-.41a15.23,15.23,0,0,1,1.34,2.22Z"/><path class="a1e582e5-1e39-4185-94e4-ebe579db4a69" d="M285.19,21a13.78,13.78,0,0,0-1.69-1.81l.46-.51a15.15,15.15,0,0,1,1.77,1.9Z"/><path class="a1e582e5-1e39-4185-94e4-ebe579db4a69" d="M283.16,18.89a14.12,14.12,0,0,0-2-1.42l.34-.59a14.89,14.89,0,0,1,2.12,1.48Z"/><path class="a1e582e5-1e39-4185-94e4-ebe579db4a69" d="M280.74,17.25a13.32,13.32,0,0,0-2.27-1l.21-.66a15.2,15.2,0,0,1,2.39,1Z"/><path class="a1e582e5-1e39-4185-94e4-ebe579db4a69" d="M278,16.16a13.38,13.38,0,0,0-2.43-.47l.07-.68a13.84,13.84,0,0,1,2.55.49Z"/><g class="e5740a1e-d72b-4781-8682-475d67550c2a"><g class="ac914ff6-686b-4259-b2fe-67f0eec6d34e"><circle class="a94b4883-bfb9-4c93-a368-3ccf3b498739" cx="274.16" cy="29.63" r="17.17"/></g></g><path class="a94b4883-bfb9-4c93-a368-3ccf3b498739" d="M269.78,44.69l-.56.44a13,13,0,0,1-5.12-3.22h-.94a15.62,15.62,0,0,1-3.07-3.85l-.48.22a17.23,17.23,0,0,0,29.8-.07l-.28-.13a15.49,15.49,0,0,1-3.05,3.83h-.95A12.89,12.89,0,0,1,280,45.13l-.62-.49a15.9,15.9,0,0,1-9.62,0Z"/><path class="a94b4883-bfb9-4c93-a368-3ccf3b498739" d="M279.57,14.59l.45-.35a12.89,12.89,0,0,1,5.11,3.22h.95a14.81,14.81,0,0,1,3.11,4l.39-.18a17.23,17.23,0,0,0-30.14-.07l.59.28a15.07,15.07,0,0,1,3.13-4h.94a13,13,0,0,1,5.12-3.22l.38.3a15.84,15.84,0,0,1,10,.05Z"/><circle class="bce849d2-32bf-4827-bb9d-7cc78b3cc61e" cx="263.01" cy="38.58" r="0.51"/><path class="a94b4883-bfb9-4c93-a368-3ccf3b498739" d="M48.59,96.11A12.44,12.44,0,1,1,61,83.68,12.45,12.45,0,0,1,48.59,96.11Zm0-24.41a12,12,0,1,0,12,12A12,12,0,0,0,48.59,71.7Z"/><path class="aa5b3b78-f8e8-436d-b525-2de38ff187d6" d="M48.59,96.11v-.45a12,12,0,0,0,0-24v-.46a12.44,12.44,0,0,1,0,24.87Z"/><g class="bc55072e-7872-4eb9-92a5-d74de01d26ef"><path class="a1e582e5-1e39-4185-94e4-ebe579db4a69" d="M48.59,98.33c-.35,0-.71,0-1.05,0l0-.69a13.7,13.7,0,0,0,2.48,0l.07.68A13.24,13.24,0,0,1,48.59,98.33Zm-1.52-.07a14.74,14.74,0,0,1-2.55-.5l.19-.66a13.38,13.38,0,0,0,2.43.47Zm3.53-.06-.1-.68A14.06,14.06,0,0,0,52.91,97l.21.66A15.6,15.6,0,0,1,50.6,98.2Zm-6.53-.58a14.27,14.27,0,0,1-2.39-1L42,96a13.36,13.36,0,0,0,2.27,1Zm9.5-.16-.23-.64a13.81,13.81,0,0,0,2.24-1l.34.6A14.72,14.72,0,0,1,53.57,97.46Zm-12.3-1.08a14.19,14.19,0,0,1-2.12-1.49l.44-.53a13.37,13.37,0,0,0,2,1.42Zm15-.25L56,95.54a13.52,13.52,0,0,0,2-1.48l.46.51A14.38,14.38,0,0,1,56.32,96.13ZM38.79,94.58A15.15,15.15,0,0,1,37,92.68l.54-.42a14.49,14.49,0,0,0,1.69,1.81Zm20-.33-.48-.5a14.38,14.38,0,0,0,1.63-1.86l.55.4A14.4,14.4,0,0,1,58.74,94.25Zm-22-1.94a15.23,15.23,0,0,1-1.34-2.22l.62-.3a14.58,14.58,0,0,0,1.27,2.11Zm24-.4-.57-.39a13.81,13.81,0,0,0,1.2-2.16l.63.28A15.25,15.25,0,0,1,60.72,91.91ZM35.2,89.66a15.07,15.07,0,0,1-.84-2.45L35,87a12.92,12.92,0,0,0,.8,2.34Zm27-.46-.63-.26a13.69,13.69,0,0,0,.72-2.36l.67.14A14.22,14.22,0,0,1,62.16,89.2ZM34.25,86.75a14.79,14.79,0,0,1-.31-2.57l.69,0a13.55,13.55,0,0,0,.29,2.46ZM63,86.26l-.67-.12a14.5,14.5,0,0,0,.21-2.46v-.05h.69v.05A14.82,14.82,0,0,1,63,86.26ZM34.62,83.7h-.69a14.62,14.62,0,0,1,.22-2.57l.68.12a14.19,14.19,0,0,0-.21,2.44Zm27.92-.52a13.45,13.45,0,0,0-.3-2.45l.67-.15a14.92,14.92,0,0,1,.32,2.58ZM34.91,80.8l-.67-.14A14.22,14.22,0,0,1,35,78.18l.64.25A14.11,14.11,0,0,0,34.91,80.8Zm27.23-.51A13.67,13.67,0,0,0,61.33,78l.63-.29a15.45,15.45,0,0,1,.85,2.45ZM35.81,78l-.63-.28a15.25,15.25,0,0,1,1.26-2.27l.57.39A13.81,13.81,0,0,0,35.81,78Zm25.33-.47a13.33,13.33,0,0,0-1.28-2.11l.56-.41a14.71,14.71,0,0,1,1.34,2.22ZM37.27,75.49l-.56-.4a15.13,15.13,0,0,1,1.7-2l.48.49A14.39,14.39,0,0,0,37.27,75.49Zm22.32-.41a13.78,13.78,0,0,0-1.69-1.81l.46-.51a14.36,14.36,0,0,1,1.77,1.89ZM39.22,73.32l-.46-.51a15,15,0,0,1,2.07-1.57l.36.59A12.9,12.9,0,0,0,39.22,73.32ZM57.56,73a14.12,14.12,0,0,0-2-1.42l.34-.59A14.89,14.89,0,0,1,58,72.45Zm-16-1.39L41.23,71a15.7,15.7,0,0,1,2.35-1.1l.23.65A14.12,14.12,0,0,0,41.58,71.59Zm13.56-.25a13.32,13.32,0,0,0-2.27-1l.21-.66a15.2,15.2,0,0,1,2.39,1Zm-10.9-.94L44,69.75a14.53,14.53,0,0,1,2.53-.59l.09.68A14.17,14.17,0,0,0,44.24,70.4Zm8.2-.15A14.29,14.29,0,0,0,50,69.78l.07-.68a14.72,14.72,0,0,1,2.55.49Zm-5.35-.46L47,69.11a14.92,14.92,0,0,1,2.59,0l0,.68A14.54,14.54,0,0,0,47.09,69.79Z"/></g><path class="a1e582e5-1e39-4185-94e4-ebe579db4a69" d="M48.61,98.33q-.53,0-1,0l0-.69a13.58,13.58,0,0,0,2.47,0l.07.68A13.24,13.24,0,0,1,48.61,98.33Z"/><path class="a1e582e5-1e39-4185-94e4-ebe579db4a69" d="M47.09,98.26a14.74,14.74,0,0,1-2.55-.5l.19-.66a13.38,13.38,0,0,0,2.43.47Z"/><path class="a1e582e5-1e39-4185-94e4-ebe579db4a69" d="M50.62,98.2l-.09-.68a14.17,14.17,0,0,0,2.4-.56l.22.66A15.47,15.47,0,0,1,50.62,98.2Z"/><path class="a1e582e5-1e39-4185-94e4-ebe579db4a69" d="M44.09,97.62a14.27,14.27,0,0,1-2.39-1L42,96a13.72,13.72,0,0,0,2.27,1Z"/><path class="a1e582e5-1e39-4185-94e4-ebe579db4a69" d="M53.59,97.46l-.23-.64a13.43,13.43,0,0,0,2.24-1l.34.6A14.72,14.72,0,0,1,53.59,97.46Z"/><path class="a1e582e5-1e39-4185-94e4-ebe579db4a69" d="M41.29,96.38a14.19,14.19,0,0,1-2.12-1.49l.44-.53a14.12,14.12,0,0,0,2,1.42Z"/><path class="a1e582e5-1e39-4185-94e4-ebe579db4a69" d="M56.35,96.13,56,95.54a13.61,13.61,0,0,0,2-1.48l.46.51A15,15,0,0,1,56.35,96.13Z"/><path class="a1e582e5-1e39-4185-94e4-ebe579db4a69" d="M38.81,94.58A15.93,15.93,0,0,1,37,92.68l.55-.42a13.7,13.7,0,0,0,1.68,1.81Z"/><path class="a1e582e5-1e39-4185-94e4-ebe579db4a69" d="M58.76,94.25l-.47-.5a14.3,14.3,0,0,0,1.62-1.86l.56.4A14.47,14.47,0,0,1,58.76,94.25Z"/><path class="e2565542-b339-4660-8353-9dd56209ed5c" d="M60.74,91.91l-.57-.39a13.81,13.81,0,0,0,1.2-2.16l.63.28A14.4,14.4,0,0,1,60.74,91.91Z"/><path class="e2565542-b339-4660-8353-9dd56209ed5c" d="M62.19,89.2l-.64-.26a13.72,13.72,0,0,0,.73-2.36l.67.14A15.13,15.13,0,0,1,62.19,89.2Z"/><path class="a1e582e5-1e39-4185-94e4-ebe579db4a69" d="M63,86.26l-.68-.12a14.42,14.42,0,0,0,.22-2.46v0h.68v0A14.81,14.81,0,0,1,63,86.26Z"/><path class="e2565542-b339-4660-8353-9dd56209ed5c" d="M62.57,83.19a14.51,14.51,0,0,0-.3-2.46l.67-.14a14.8,14.8,0,0,1,.32,2.57Z"/><path class="a1e582e5-1e39-4185-94e4-ebe579db4a69" d="M62.17,80.3A13.78,13.78,0,0,0,61.36,78l.62-.28a14.21,14.21,0,0,1,.85,2.45Z"/><path class="a1e582e5-1e39-4185-94e4-ebe579db4a69" d="M61.17,77.56a13.89,13.89,0,0,0-1.28-2.12l.55-.41a13.65,13.65,0,0,1,1.34,2.22Z"/><path class="a1e582e5-1e39-4185-94e4-ebe579db4a69" d="M59.62,75.08a14.4,14.4,0,0,0-1.69-1.8l.46-.52a15.15,15.15,0,0,1,1.77,1.9Z"/><path class="a1e582e5-1e39-4185-94e4-ebe579db4a69" d="M57.59,73a14.12,14.12,0,0,0-2-1.42l.34-.59A14.89,14.89,0,0,1,58,72.45Z"/><path class="a1e582e5-1e39-4185-94e4-ebe579db4a69" d="M55.17,71.34a14.57,14.57,0,0,0-2.27-1l.21-.65a14.27,14.27,0,0,1,2.39,1Z"/><path class="a1e582e5-1e39-4185-94e4-ebe579db4a69" d="M52.47,70.25A14.29,14.29,0,0,0,50,69.78l.07-.68a14.72,14.72,0,0,1,2.55.49Z"/><g class="e5740a1e-d72b-4781-8682-475d67550c2a"><g class="ac914ff6-686b-4259-b2fe-67f0eec6d34e"><circle class="a94b4883-bfb9-4c93-a368-3ccf3b498739" cx="48.59" cy="83.72" r="17.17"/></g></g><path class="a94b4883-bfb9-4c93-a368-3ccf3b498739" d="M44.21,98.78l-.56.45A13.09,13.09,0,0,1,38.53,96h-.94a15.53,15.53,0,0,1-3.07-3.86l-.48.23a17.24,17.24,0,0,0,29.8-.07l-.28-.13A15.71,15.71,0,0,1,60.51,96h-.95a13,13,0,0,1-5.11,3.22l-.62-.5a15.9,15.9,0,0,1-9.62,0Z"/><path class="a94b4883-bfb9-4c93-a368-3ccf3b498739" d="M54,68.69l.45-.36a13,13,0,0,1,5.11,3.22h.95a15,15,0,0,1,3.11,4l.39-.18a17.24,17.24,0,0,0-30.14-.07l.59.28a15.07,15.07,0,0,1,3.13-4h.94a13.09,13.09,0,0,1,5.12-3.22l.38.31a15.84,15.84,0,0,1,10,0Z"/><circle class="bce849d2-32bf-4827-bb9d-7cc78b3cc61e" cx="37.44" cy="92.68" r="0.51"/><path class="a94b4883-bfb9-4c93-a368-3ccf3b498739" d="M161.73,96.11a12.44,12.44,0,1,1,12.44-12.43A12.45,12.45,0,0,1,161.73,96.11Zm0-24.41a12,12,0,1,0,12,12A12,12,0,0,0,161.73,71.7Z"/><path class="aa5b3b78-f8e8-436d-b525-2de38ff187d6" d="M161.73,96.11v-.45a12,12,0,1,0,0-24v-.46a12.44,12.44,0,1,1,0,24.87Z"/><g class="bc55072e-7872-4eb9-92a5-d74de01d26ef"><path class="a1e582e5-1e39-4185-94e4-ebe579db4a69" d="M161.73,98.33q-.53,0-1,0l0-.69a13.58,13.58,0,0,0,2.47,0l.08.68A13.3,13.3,0,0,1,161.73,98.33Zm-1.52-.07a14.63,14.63,0,0,1-2.54-.5l.19-.66a13.27,13.27,0,0,0,2.42.47Zm3.53-.06-.09-.68a14.06,14.06,0,0,0,2.41-.56l.21.66A15.47,15.47,0,0,1,163.74,98.2Zm-6.52-.58a13.92,13.92,0,0,1-2.39-1l.32-.61a13.82,13.82,0,0,0,2.28,1Zm9.5-.16-.24-.64a13.07,13.07,0,0,0,2.24-1l.35.6A14.72,14.72,0,0,1,166.72,97.46Zm-12.3-1.08a14.81,14.81,0,0,1-2.13-1.49l.45-.53a13.37,13.37,0,0,0,2,1.42Zm15.05-.25-.36-.59a13.52,13.52,0,0,0,2-1.48l.46.51A15,15,0,0,1,169.47,96.13Zm-17.53-1.55a15.15,15.15,0,0,1-1.77-1.9l.54-.42a14.49,14.49,0,0,0,1.69,1.81Zm19.95-.33-.48-.5A14.38,14.38,0,0,0,173,91.89l.55.4A15.13,15.13,0,0,1,171.89,94.25Zm-22-1.94a15.23,15.23,0,0,1-1.34-2.22l.62-.3a14.58,14.58,0,0,0,1.27,2.11Zm24-.4-.57-.39a13.87,13.87,0,0,0,1.21-2.16l.63.28A15.3,15.3,0,0,1,173.86,91.91Zm-25.51-2.25a14.17,14.17,0,0,1-.84-2.45l.66-.17a13.78,13.78,0,0,0,.81,2.34Zm27-.46-.64-.26a12.9,12.9,0,0,0,.73-2.36l.67.14A14.22,14.22,0,0,1,175.31,89.2ZM147.4,86.75a13.88,13.88,0,0,1-.31-2.57l.68,0a14.51,14.51,0,0,0,.3,2.46Zm28.76-.49-.67-.12a14.5,14.5,0,0,0,.21-2.46v-.05h.69v.05A14.82,14.82,0,0,1,176.16,86.26ZM147.77,83.7h-.69a14.62,14.62,0,0,1,.22-2.57l.68.12a14.19,14.19,0,0,0-.22,2.44Zm27.92-.52a14.39,14.39,0,0,0-.3-2.45l.67-.15a14.92,14.92,0,0,1,.32,2.58ZM148.06,80.8l-.67-.14a14.22,14.22,0,0,1,.76-2.48l.63.25A14.08,14.08,0,0,0,148.06,80.8Zm27.23-.51a13.67,13.67,0,0,0-.81-2.33l.63-.29a14.47,14.47,0,0,1,.84,2.45ZM149,78l-.63-.28a14.4,14.4,0,0,1,1.26-2.27l.57.39A13.81,13.81,0,0,0,149,78Zm25.33-.47A13.33,13.33,0,0,0,173,75.44l.56-.41a14.71,14.71,0,0,1,1.34,2.22Zm-23.87-2.06-.56-.4a15.13,15.13,0,0,1,1.7-2l.48.49A13.66,13.66,0,0,0,150.42,75.49Zm22.32-.41a14.49,14.49,0,0,0-1.69-1.81l.46-.51a15.06,15.06,0,0,1,1.77,1.89Zm-20.37-1.76-.46-.51A14.94,14.94,0,0,1,154,71.24l.37.59A12.9,12.9,0,0,0,152.37,73.32ZM170.71,73a14.12,14.12,0,0,0-2-1.42L169,71a14.89,14.89,0,0,1,2.12,1.48Zm-16-1.39-.34-.59a15.25,15.25,0,0,1,2.35-1.1l.23.65A14.66,14.66,0,0,0,154.72,71.59Zm13.57-.25a13.67,13.67,0,0,0-2.27-1l.21-.66a14.7,14.7,0,0,1,2.38,1Zm-10.91-.94-.21-.65a14.53,14.53,0,0,1,2.53-.59l.09.68A14.51,14.51,0,0,0,157.38,70.4Zm8.2-.15a14.18,14.18,0,0,0-2.42-.47l.07-.68a14.61,14.61,0,0,1,2.54.49Zm-5.34-.46-.07-.68a14.92,14.92,0,0,1,2.59,0l0,.68A14.54,14.54,0,0,0,160.24,69.79Z"/></g><path class="a1e582e5-1e39-4185-94e4-ebe579db4a69" d="M161.76,98.33c-.35,0-.71,0-1,0l0-.69a13.61,13.61,0,0,0,2.47,0l.07.68A13.24,13.24,0,0,1,161.76,98.33Z"/><path class="a1e582e5-1e39-4185-94e4-ebe579db4a69" d="M160.24,98.26a14.74,14.74,0,0,1-2.55-.5l.19-.66a13.38,13.38,0,0,0,2.43.47Z"/><path class="a1e582e5-1e39-4185-94e4-ebe579db4a69" d="M163.77,98.2l-.1-.68a14.06,14.06,0,0,0,2.41-.56l.21.66A15.6,15.6,0,0,1,163.77,98.2Z"/><path class="a1e582e5-1e39-4185-94e4-ebe579db4a69" d="M157.24,97.62a13.92,13.92,0,0,1-2.39-1l.33-.61a13.36,13.36,0,0,0,2.27,1Z"/><path class="a1e582e5-1e39-4185-94e4-ebe579db4a69" d="M166.74,97.46l-.23-.64a13.81,13.81,0,0,0,2.24-1l.34.6A14.72,14.72,0,0,1,166.74,97.46Z"/><path class="a1e582e5-1e39-4185-94e4-ebe579db4a69" d="M154.44,96.38a14.19,14.19,0,0,1-2.12-1.49l.44-.53a14.12,14.12,0,0,0,2,1.42Z"/><path class="a1e582e5-1e39-4185-94e4-ebe579db4a69" d="M169.49,96.13l-.36-.59a14.17,14.17,0,0,0,2-1.48l.46.51A15.05,15.05,0,0,1,169.49,96.13Z"/><path class="a1e582e5-1e39-4185-94e4-ebe579db4a69" d="M152,94.58a15.15,15.15,0,0,1-1.77-1.9l.54-.42a14.49,14.49,0,0,0,1.69,1.81Z"/><path class="a1e582e5-1e39-4185-94e4-ebe579db4a69" d="M171.91,94.25l-.47-.5a14.3,14.3,0,0,0,1.62-1.86l.56.4A15.2,15.2,0,0,1,171.91,94.25Z"/><path class="e2565542-b339-4660-8353-9dd56209ed5c" d="M173.89,91.91l-.57-.39a13.81,13.81,0,0,0,1.2-2.16l.63.28A15.25,15.25,0,0,1,173.89,91.91Z"/><path class="e2565542-b339-4660-8353-9dd56209ed5c" d="M175.33,89.2l-.63-.26a13.69,13.69,0,0,0,.72-2.36l.68.14A14.25,14.25,0,0,1,175.33,89.2Z"/><path class="a1e582e5-1e39-4185-94e4-ebe579db4a69" d="M176.19,86.26l-.68-.12a14.42,14.42,0,0,0,.22-2.46v0h.69v0A14.81,14.81,0,0,1,176.19,86.26Z"/><path class="e2565542-b339-4660-8353-9dd56209ed5c" d="M175.72,83.19a13.57,13.57,0,0,0-.31-2.46l.68-.14a14.79,14.79,0,0,1,.31,2.57Z"/><path class="a1e582e5-1e39-4185-94e4-ebe579db4a69" d="M175.31,80.3a14.67,14.67,0,0,0-.8-2.34l.62-.28a14.21,14.21,0,0,1,.85,2.45Z"/><path class="a1e582e5-1e39-4185-94e4-ebe579db4a69" d="M174.32,77.56A15.71,15.71,0,0,0,173,75.44l.55-.41a15.23,15.23,0,0,1,1.34,2.22Z"/><path class="a1e582e5-1e39-4185-94e4-ebe579db4a69" d="M172.77,75.08a14.4,14.4,0,0,0-1.69-1.8l.46-.52a15.15,15.15,0,0,1,1.77,1.9Z"/><path class="a1e582e5-1e39-4185-94e4-ebe579db4a69" d="M170.74,73a13.67,13.67,0,0,0-2-1.42l.35-.59a15.48,15.48,0,0,1,2.12,1.48Z"/><path class="a1e582e5-1e39-4185-94e4-ebe579db4a69" d="M168.32,71.34a14.28,14.28,0,0,0-2.28-1l.21-.65a13.6,13.6,0,0,1,2.39,1Z"/><path class="a1e582e5-1e39-4185-94e4-ebe579db4a69" d="M165.61,70.25a14.18,14.18,0,0,0-2.42-.47l.07-.68a14.61,14.61,0,0,1,2.54.49Z"/><g class="e5740a1e-d72b-4781-8682-475d67550c2a"><g class="ac914ff6-686b-4259-b2fe-67f0eec6d34e"><circle class="a94b4883-bfb9-4c93-a368-3ccf3b498739" cx="161.73" cy="83.72" r="17.17"/></g></g><path class="a94b4883-bfb9-4c93-a368-3ccf3b498739" d="M157.35,98.78l-.56.45A13,13,0,0,1,151.68,96h-1a15.58,15.58,0,0,1-3.06-3.86l-.48.23A17.23,17.23,0,0,0,177,92.31l-.27-.13A15.66,15.66,0,0,1,173.65,96h-.94a13.09,13.09,0,0,1-5.12,3.22c-.22-.18-.42-.35-.62-.5a15.9,15.9,0,0,1-9.62,0Z"/><path class="a94b4883-bfb9-4c93-a368-3ccf3b498739" d="M167.15,68.69l.44-.36a13.09,13.09,0,0,1,5.12,3.22h.94a15,15,0,0,1,3.12,4l.38-.18A17.23,17.23,0,0,0,147,75.28l.59.28a15.1,15.1,0,0,1,3.12-4h1a13,13,0,0,1,5.11-3.22l.39.31a15.84,15.84,0,0,1,10,0Z"/><circle class="bce849d2-32bf-4827-bb9d-7cc78b3cc61e" cx="150.59" cy="92.68" r="0.51"/><path class="a94b4883-bfb9-4c93-a368-3ccf3b498739" d="M276.09,96.11a12.44,12.44,0,1,1,12.44-12.43A12.45,12.45,0,0,1,276.09,96.11Zm0-24.41a12,12,0,1,0,12,12A12,12,0,0,0,276.09,71.7Z"/><path class="aa5b3b78-f8e8-436d-b525-2de38ff187d6" d="M276.09,96.11v-.45a12,12,0,1,0,0-24v-.46a12.44,12.44,0,1,1,0,24.87Z"/><g class="bc55072e-7872-4eb9-92a5-d74de01d26ef"><path class="a1e582e5-1e39-4185-94e4-ebe579db4a69" d="M276.09,98.33q-.52,0-1,0l0-.69a13.58,13.58,0,0,0,2.47,0l.08.68A13.3,13.3,0,0,1,276.09,98.33Zm-1.52-.07a14.63,14.63,0,0,1-2.54-.5l.19-.66a13.27,13.27,0,0,0,2.42.47Zm3.53-.06-.09-.68a14.06,14.06,0,0,0,2.41-.56l.21.66A15.47,15.47,0,0,1,278.1,98.2Zm-6.52-.58a13.92,13.92,0,0,1-2.39-1l.32-.61a13.82,13.82,0,0,0,2.28,1Zm9.5-.16-.24-.64a13.07,13.07,0,0,0,2.24-1l.35.6A14.72,14.72,0,0,1,281.08,97.46Zm-12.3-1.08a14.81,14.81,0,0,1-2.13-1.49l.45-.53a13.37,13.37,0,0,0,2,1.42Zm15.05-.25-.36-.59a13.52,13.52,0,0,0,2-1.48l.46.51A15,15,0,0,1,283.83,96.13ZM266.3,94.58a15.15,15.15,0,0,1-1.77-1.9l.54-.42a14.49,14.49,0,0,0,1.69,1.81Zm19.95-.33-.48-.5a14.38,14.38,0,0,0,1.63-1.86l.55.4A15.13,15.13,0,0,1,286.25,94.25Zm-22-1.94a15.23,15.23,0,0,1-1.34-2.22l.62-.3a14.58,14.58,0,0,0,1.27,2.11Zm24-.4-.57-.39a13.87,13.87,0,0,0,1.21-2.16l.62.28A14.4,14.4,0,0,1,288.22,91.91Zm-25.51-2.25a14.17,14.17,0,0,1-.84-2.45l.66-.17a13.78,13.78,0,0,0,.81,2.34Zm27-.46-.64-.26a13.72,13.72,0,0,0,.73-2.36l.67.14A14.22,14.22,0,0,1,289.67,89.2Zm-27.91-2.45a13.88,13.88,0,0,1-.31-2.57l.68,0a14.51,14.51,0,0,0,.3,2.46Zm28.76-.49-.68-.12a13.56,13.56,0,0,0,.22-2.46v-.05h.69v.05A14.82,14.82,0,0,1,290.52,86.26Zm-28.4-2.56h-.68a14.62,14.62,0,0,1,.22-2.57l.68.12a14.19,14.19,0,0,0-.22,2.44Zm27.93-.52a14.39,14.39,0,0,0-.3-2.45l.67-.15a14.92,14.92,0,0,1,.32,2.58ZM262.42,80.8l-.67-.14a14.22,14.22,0,0,1,.76-2.48l.63.25A14.08,14.08,0,0,0,262.42,80.8Zm27.23-.51a13.67,13.67,0,0,0-.81-2.33l.63-.29a14.47,14.47,0,0,1,.84,2.45ZM263.32,78l-.63-.28A14.4,14.4,0,0,1,264,75.47l.57.39A13.81,13.81,0,0,0,263.32,78Zm25.33-.47a13.33,13.33,0,0,0-1.28-2.11l.55-.41a14,14,0,0,1,1.35,2.22Zm-23.87-2.06-.56-.4a15.13,15.13,0,0,1,1.7-2l.48.49A13.66,13.66,0,0,0,264.78,75.49Zm22.32-.41a14.49,14.49,0,0,0-1.69-1.81l.46-.51a15.06,15.06,0,0,1,1.77,1.89Zm-20.37-1.76-.46-.51a14.94,14.94,0,0,1,2.06-1.57l.37.59A12.9,12.9,0,0,0,266.73,73.32ZM285.07,73a13.67,13.67,0,0,0-2-1.42l.35-.59a14.89,14.89,0,0,1,2.12,1.48Zm-16-1.39-.34-.59a15.14,15.14,0,0,1,2.34-1.1l.24.65A14.23,14.23,0,0,0,269.08,71.59Zm13.57-.25a13.42,13.42,0,0,0-2.28-1l.22-.66a14.7,14.7,0,0,1,2.38,1Zm-10.91-.94-.21-.65a14.53,14.53,0,0,1,2.53-.59l.09.68A14.51,14.51,0,0,0,271.74,70.4Zm8.2-.15a14.18,14.18,0,0,0-2.42-.47l.07-.68a14.61,14.61,0,0,1,2.54.49Zm-5.34-.46-.07-.68a14.92,14.92,0,0,1,2.59,0l-.05.68A14.54,14.54,0,0,0,274.6,69.79Z"/></g><path class="a1e582e5-1e39-4185-94e4-ebe579db4a69" d="M276.12,98.33c-.35,0-.71,0-1.05,0l0-.69a13.7,13.7,0,0,0,2.48,0l.07.68A13.24,13.24,0,0,1,276.12,98.33Z"/><path class="a1e582e5-1e39-4185-94e4-ebe579db4a69" d="M274.6,98.26a14.74,14.74,0,0,1-2.55-.5l.19-.66a13.38,13.38,0,0,0,2.43.47Z"/><path class="a1e582e5-1e39-4185-94e4-ebe579db4a69" d="M278.13,98.2l-.1-.68a14.06,14.06,0,0,0,2.41-.56l.21.66A15.6,15.6,0,0,1,278.13,98.2Z"/><path class="a1e582e5-1e39-4185-94e4-ebe579db4a69" d="M271.6,97.62a13.92,13.92,0,0,1-2.39-1l.33-.61a13.36,13.36,0,0,0,2.27,1Z"/><path class="a1e582e5-1e39-4185-94e4-ebe579db4a69" d="M281.1,97.46l-.23-.64a13.81,13.81,0,0,0,2.24-1l.34.6A14.72,14.72,0,0,1,281.1,97.46Z"/><path class="a1e582e5-1e39-4185-94e4-ebe579db4a69" d="M268.8,96.38a14.19,14.19,0,0,1-2.12-1.49l.44-.53a14.12,14.12,0,0,0,2,1.42Z"/><path class="a1e582e5-1e39-4185-94e4-ebe579db4a69" d="M283.85,96.13l-.36-.59a14.17,14.17,0,0,0,2-1.48l.46.51A15.05,15.05,0,0,1,283.85,96.13Z"/><path class="a1e582e5-1e39-4185-94e4-ebe579db4a69" d="M266.32,94.58a15.15,15.15,0,0,1-1.77-1.9l.54-.42a14.49,14.49,0,0,0,1.69,1.81Z"/><path class="a1e582e5-1e39-4185-94e4-ebe579db4a69" d="M286.27,94.25l-.48-.5a13.66,13.66,0,0,0,1.63-1.86l.55.4A14.4,14.4,0,0,1,286.27,94.25Z"/><path class="e2565542-b339-4660-8353-9dd56209ed5c" d="M288.25,91.91l-.57-.39a13.81,13.81,0,0,0,1.2-2.16l.63.28A15.25,15.25,0,0,1,288.25,91.91Z"/><path class="e2565542-b339-4660-8353-9dd56209ed5c" d="M289.69,89.2l-.63-.26a13.69,13.69,0,0,0,.72-2.36l.67.14A13.41,13.41,0,0,1,289.69,89.2Z"/><path class="a1e582e5-1e39-4185-94e4-ebe579db4a69" d="M290.54,86.26l-.67-.12a14.42,14.42,0,0,0,.21-2.46v0h.69v0A13.91,13.91,0,0,1,290.54,86.26Z"/><path class="e2565542-b339-4660-8353-9dd56209ed5c" d="M290.08,83.19a13.57,13.57,0,0,0-.31-2.46l.68-.14a14.79,14.79,0,0,1,.31,2.57Z"/><path class="a1e582e5-1e39-4185-94e4-ebe579db4a69" d="M289.67,80.3a14.67,14.67,0,0,0-.8-2.34l.62-.28a14.21,14.21,0,0,1,.85,2.45Z"/><path class="a1e582e5-1e39-4185-94e4-ebe579db4a69" d="M288.67,77.56a14.68,14.68,0,0,0-1.27-2.12L288,75a15.23,15.23,0,0,1,1.34,2.22Z"/><path class="a1e582e5-1e39-4185-94e4-ebe579db4a69" d="M287.13,75.08a14.4,14.4,0,0,0-1.69-1.8l.46-.52a15.15,15.15,0,0,1,1.77,1.9Z"/><path class="a1e582e5-1e39-4185-94e4-ebe579db4a69" d="M285.1,73a13.67,13.67,0,0,0-2-1.42l.35-.59a15.48,15.48,0,0,1,2.12,1.48Z"/><path class="a1e582e5-1e39-4185-94e4-ebe579db4a69" d="M282.68,71.34a14.28,14.28,0,0,0-2.28-1l.21-.65a13.6,13.6,0,0,1,2.39,1Z"/><path class="a1e582e5-1e39-4185-94e4-ebe579db4a69" d="M280,70.25a14.18,14.18,0,0,0-2.42-.47l.07-.68a14.61,14.61,0,0,1,2.54.49Z"/><g class="e5740a1e-d72b-4781-8682-475d67550c2a"><g class="ac914ff6-686b-4259-b2fe-67f0eec6d34e"><circle class="a94b4883-bfb9-4c93-a368-3ccf3b498739" cx="276.09" cy="83.72" r="17.17"/></g></g><path class="a94b4883-bfb9-4c93-a368-3ccf3b498739" d="M271.71,98.78l-.56.45A13,13,0,0,1,266,96h-1A15.34,15.34,0,0,1,262,92.15l-.48.23a17.23,17.23,0,0,0,29.79-.07l-.27-.13A15.66,15.66,0,0,1,288,96h-.94A13.09,13.09,0,0,1,282,99.23l-.62-.5a15.9,15.9,0,0,1-9.62,0Z"/><path class="a94b4883-bfb9-4c93-a368-3ccf3b498739" d="M281.51,68.69l.44-.36a13.09,13.09,0,0,1,5.12,3.22H288a15,15,0,0,1,3.12,4l.38-.18a17.23,17.23,0,0,0-30.13-.07l.59.28a15.1,15.1,0,0,1,3.12-4h1a13,13,0,0,1,5.11-3.22l.39.31a15.84,15.84,0,0,1,10,0Z"/><circle class="bce849d2-32bf-4827-bb9d-7cc78b3cc61e" cx="264.95" cy="92.68" r="0.51"/></svg>