<svg width="324" height="117" viewBox="0 0 324 117" fill="none" xmlns="http://www.w3.org/2000/svg">
<path d="M45.3072 97.2793H44.1529V90.3535L40.2095 97.2793H39.0377V88.5547H40.192V95.3691L44.0826 88.5547H45.3072V97.2793ZM53.2467 89.5566C53.5787 89.9395 53.8365 90.4141 54.0201 90.9805C54.2037 91.5469 54.2955 92.1934 54.2955 92.9199C54.2955 93.627 54.2056 94.2656 54.0259 94.8359C53.8463 95.4062 53.5865 95.8848 53.2467 96.2715C52.8912 96.6777 52.4752 96.9785 51.9986 97.1738C51.5259 97.3652 51.0045 97.4609 50.4342 97.4609C49.8443 97.4609 49.3131 97.3613 48.8404 97.1621C48.3677 96.9629 47.9615 96.666 47.6217 96.2715C47.2857 95.8848 47.0279 95.4082 46.8482 94.8418C46.6685 94.2754 46.5787 93.6348 46.5787 92.9199C46.5787 92.1855 46.6685 91.541 46.8482 90.9863C47.0318 90.4316 47.2916 89.9551 47.6275 89.5566C47.9634 89.1699 48.3677 88.877 48.8404 88.6777C49.317 88.4746 49.8482 88.373 50.4342 88.373C51.0279 88.373 51.5631 88.4766 52.0396 88.6836C52.5162 88.8906 52.9185 89.1816 53.2467 89.5566ZM53.0884 92.9199C53.0884 92.3418 53.0259 91.8301 52.9009 91.3848C52.7759 90.9395 52.6002 90.5703 52.3736 90.2773C52.1431 89.9766 51.8638 89.752 51.5357 89.6035C51.2115 89.4512 50.8463 89.375 50.44 89.375C50.0181 89.375 49.649 89.4492 49.3326 89.5977C49.0201 89.7422 48.7427 89.9688 48.5006 90.2773C48.2701 90.5742 48.0924 90.9473 47.9674 91.3965C47.8463 91.8457 47.7857 92.3535 47.7857 92.9199C47.7857 94.0645 48.0259 94.9414 48.5064 95.5508C48.9869 96.1562 49.6314 96.459 50.44 96.459C51.2486 96.459 51.8912 96.1562 52.3677 95.5508C52.8482 94.9414 53.0884 94.0645 53.0884 92.9199ZM61.4322 97.2793H60.272V93.5879C59.7955 93.7441 59.3717 93.8613 59.0006 93.9395C58.6295 94.0176 58.2408 94.0566 57.8345 94.0566C57.4595 94.0566 57.1158 94.0117 56.8033 93.9219C56.4908 93.8281 56.2154 93.6797 55.9771 93.4766C55.7427 93.2734 55.5592 93.0117 55.4263 92.6914C55.2974 92.3711 55.233 91.9922 55.233 91.5547V88.5547H56.3931V90.9746C56.3931 91.3418 56.4068 91.6328 56.4342 91.8477C56.4615 92.0586 56.5396 92.2617 56.6685 92.457C56.7818 92.6289 56.9498 92.7617 57.1724 92.8555C57.3951 92.9453 57.692 92.9902 58.0631 92.9902C58.3951 92.9902 58.7701 92.9531 59.1881 92.8789C59.606 92.8008 59.9674 92.7051 60.272 92.5918V88.5547H61.4322V97.2793Z" fill="#606580"/>
<path d="M157.911 97.2793H156.751V89.7617L154.477 94.877H153.774L151.518 89.7617V97.2793H150.434V88.5547H152.016L154.196 93.4121L156.299 88.5547H157.911V97.2793ZM165.85 89.5566C166.182 89.9395 166.44 90.4141 166.624 90.9805C166.807 91.5469 166.899 92.1934 166.899 92.9199C166.899 93.627 166.809 94.2656 166.629 94.8359C166.45 95.4062 166.19 95.8848 165.85 96.2715C165.495 96.6777 165.079 96.9785 164.602 97.1738C164.129 97.3652 163.608 97.4609 163.038 97.4609C162.448 97.4609 161.917 97.3613 161.444 97.1621C160.971 96.9629 160.565 96.666 160.225 96.2715C159.889 95.8848 159.631 95.4082 159.452 94.8418C159.272 94.2754 159.182 93.6348 159.182 92.9199C159.182 92.1855 159.272 91.541 159.452 90.9863C159.635 90.4316 159.895 89.9551 160.231 89.5566C160.567 89.1699 160.971 88.877 161.444 88.6777C161.92 88.4746 162.452 88.373 163.038 88.373C163.631 88.373 164.167 88.4766 164.643 88.6836C165.12 88.8906 165.522 89.1816 165.85 89.5566ZM165.692 92.9199C165.692 92.3418 165.629 91.8301 165.504 91.3848C165.379 90.9395 165.204 90.5703 164.977 90.2773C164.747 89.9766 164.467 89.752 164.139 89.6035C163.815 89.4512 163.45 89.375 163.044 89.375C162.622 89.375 162.253 89.4492 161.936 89.5977C161.624 89.7422 161.346 89.9688 161.104 90.2773C160.874 90.5742 160.696 90.9473 160.571 91.3965C160.45 91.8457 160.389 92.3535 160.389 92.9199C160.389 94.0645 160.629 94.9414 161.11 95.5508C161.59 96.1562 162.235 96.459 163.044 96.459C163.852 96.459 164.495 96.1562 164.971 95.5508C165.452 94.9414 165.692 94.0645 165.692 92.9199ZM174.036 97.2793H172.876V93.5879C172.399 93.7441 171.975 93.8613 171.604 93.9395C171.233 94.0176 170.844 94.0566 170.438 94.0566C170.063 94.0566 169.719 94.0117 169.407 93.9219C169.094 93.8281 168.819 93.6797 168.581 93.4766C168.346 93.2734 168.163 93.0117 168.03 92.6914C167.901 92.3711 167.836 91.9922 167.836 91.5547V88.5547H168.997V90.9746C168.997 91.3418 169.01 91.6328 169.038 91.8477C169.065 92.0586 169.143 92.2617 169.272 92.457C169.385 92.6289 169.553 92.7617 169.776 92.8555C169.999 92.9453 170.295 92.9902 170.667 92.9902C170.999 92.9902 171.374 92.9531 171.792 92.8789C172.21 92.8008 172.571 92.7051 172.876 92.5918V88.5547H174.036V97.2793Z" fill="#606580"/>
<path d="M157.568 64.7774H150.841V63.0001H152.988V57.6202H150.841V55.9591C151.156 55.9591 151.468 55.9386 151.778 55.8975C152.088 55.8565 152.336 55.7905 152.523 55.6993C152.742 55.5899 152.91 55.4441 153.029 55.2618C153.152 55.075 153.222 54.8448 153.241 54.5714H155.469V63.0001H157.568V64.7774ZM166.803 59.6847C166.803 60.5642 166.733 61.3344 166.591 61.9952C166.45 62.656 166.224 63.2074 165.915 63.6495C165.605 64.0916 165.201 64.4265 164.705 64.6544C164.208 64.8777 163.599 64.9893 162.879 64.9893C162.164 64.9893 161.558 64.8777 161.061 64.6544C160.564 64.4265 160.159 64.087 159.844 63.6358C159.534 63.1892 159.309 62.6401 159.167 61.9884C159.026 61.3321 158.956 60.5665 158.956 59.6915C158.956 58.7892 159.024 58.019 159.161 57.3809C159.302 56.7429 159.534 56.1938 159.858 55.7335C160.177 55.2823 160.587 54.9474 161.088 54.7286C161.59 54.5053 162.187 54.3936 162.879 54.3936C163.613 54.3936 164.224 54.5099 164.711 54.7423C165.204 54.9701 165.607 55.3119 165.921 55.7677C166.231 56.2143 166.455 56.7657 166.591 57.422C166.733 58.0782 166.803 58.8324 166.803 59.6847ZM164.24 59.6847C164.24 58.4268 164.135 57.545 163.925 57.0392C163.72 56.5287 163.372 56.2735 162.879 56.2735C162.392 56.2735 162.043 56.5287 161.833 57.0392C161.624 57.545 161.519 58.4314 161.519 59.6983C161.519 60.9379 161.624 61.8175 161.833 62.337C162.043 62.852 162.392 63.1095 162.879 63.1095C163.367 63.1095 163.716 62.852 163.925 62.337C164.135 61.8175 164.24 60.9334 164.24 59.6847ZM175.622 56.6222L171.288 64.7774H168.444L172.99 56.5196H168.136V54.5987H175.622V56.6222Z" fill="#303549"/>
<path d="M263.299 97.4375C262.729 97.4375 262.204 97.3418 261.723 97.1504C261.247 96.959 260.835 96.6738 260.487 96.2949C260.139 95.916 259.87 95.4434 259.678 94.877C259.487 94.3105 259.391 93.6602 259.391 92.9258C259.391 92.1953 259.483 91.5586 259.667 91.0156C259.854 90.4727 260.126 90 260.481 89.5977C260.829 89.207 261.241 88.9102 261.717 88.707C262.194 88.5 262.727 88.3965 263.317 88.3965C263.61 88.3965 263.883 88.418 264.137 88.4609C264.395 88.5039 264.633 88.5586 264.852 88.625C265.04 88.6836 265.231 88.7578 265.426 88.8477C265.626 88.9336 265.821 89.0293 266.012 89.1348V90.5352H265.919C265.817 90.4414 265.686 90.3281 265.526 90.1953C265.366 90.0625 265.17 89.9316 264.94 89.8027C264.717 89.6816 264.475 89.582 264.213 89.5039C263.952 89.4258 263.649 89.3867 263.305 89.3867C262.934 89.3867 262.583 89.4629 262.251 89.6152C261.919 89.7676 261.628 89.9922 261.378 90.2891C261.131 90.5859 260.94 90.959 260.803 91.4082C260.667 91.8574 260.598 92.3633 260.598 92.9258C260.598 93.5234 260.67 94.0391 260.815 94.4727C260.96 94.9023 261.157 95.2656 261.407 95.5625C261.649 95.8516 261.934 96.0703 262.262 96.2188C262.59 96.3633 262.938 96.4355 263.305 96.4355C263.641 96.4355 263.952 96.3945 264.237 96.3125C264.522 96.2305 264.776 96.127 264.999 96.002C265.213 95.8809 265.399 95.7578 265.555 95.6328C265.711 95.5039 265.835 95.3945 265.924 95.3047H266.012V96.6875C265.821 96.7773 265.639 96.8633 265.467 96.9453C265.299 97.0273 265.094 97.1074 264.852 97.1855C264.598 97.2676 264.362 97.3301 264.143 97.373C263.928 97.416 263.647 97.4375 263.299 97.4375ZM269.85 97.4316C268.807 97.4316 267.997 97.1387 267.419 96.5527C266.844 95.9629 266.557 95.127 266.557 94.0449C266.557 92.9785 266.836 92.1309 267.395 91.502C267.954 90.8691 268.684 90.5527 269.586 90.5527C269.993 90.5527 270.352 90.6113 270.665 90.7285C270.977 90.8457 271.251 91.0293 271.485 91.2793C271.719 91.5293 271.899 91.8359 272.024 92.1992C272.149 92.5586 272.211 93 272.211 93.5234V94.1211H267.676C267.676 94.8828 267.868 95.4648 268.251 95.8672C268.633 96.2695 269.163 96.4707 269.838 96.4707C270.081 96.4707 270.317 96.4434 270.547 96.3887C270.782 96.334 270.993 96.2637 271.18 96.1777C271.379 96.0879 271.547 96.002 271.684 95.9199C271.821 95.834 271.934 95.7539 272.024 95.6797H272.088V96.8809C271.96 96.9316 271.799 96.9961 271.608 97.0742C271.417 97.1484 271.245 97.207 271.092 97.25C270.878 97.3086 270.682 97.3535 270.506 97.3848C270.335 97.416 270.116 97.4316 269.85 97.4316ZM271.139 93.2773C271.131 92.9805 271.096 92.7246 271.034 92.5098C270.971 92.2949 270.881 92.1133 270.764 91.9648C270.635 91.8008 270.469 91.6758 270.266 91.5898C270.067 91.5039 269.819 91.4609 269.522 91.4609C269.229 91.4609 268.979 91.5059 268.772 91.5957C268.569 91.6816 268.383 91.8086 268.215 91.9766C268.051 92.1484 267.926 92.3398 267.84 92.5508C267.754 92.7578 267.7 93 267.676 93.2773H271.139ZM278.815 93.834C278.815 94.9238 278.553 95.793 278.03 96.4414C277.51 97.0859 276.852 97.4082 276.055 97.4082C275.731 97.4082 275.444 97.3711 275.194 97.2969C274.944 97.2227 274.688 97.1074 274.426 96.9512V99.6934H273.325V90.7344H274.426V91.4199C274.7 91.1738 275.003 90.9688 275.335 90.8047C275.67 90.6367 276.036 90.5527 276.43 90.5527C277.18 90.5527 277.764 90.8496 278.182 91.4434C278.604 92.0371 278.815 92.834 278.815 93.834ZM277.678 93.957C277.678 93.2109 277.559 92.6328 277.321 92.2227C277.083 91.8086 276.696 91.6016 276.161 91.6016C275.848 91.6016 275.545 91.6719 275.253 91.8125C274.963 91.9492 274.688 92.127 274.426 92.3457V96.0547C274.715 96.1953 274.961 96.291 275.165 96.3418C275.372 96.3926 275.608 96.418 275.874 96.418C276.444 96.418 276.887 96.209 277.204 95.791C277.52 95.373 277.678 94.7617 277.678 93.957ZM283.614 95.668V93.8516C283.352 93.875 283.02 93.9082 282.618 93.9512C282.219 93.9902 281.897 94.0469 281.651 94.1211C281.358 94.2109 281.116 94.3496 280.924 94.5371C280.733 94.7207 280.637 94.9785 280.637 95.3105C280.637 95.6855 280.743 95.9688 280.954 96.1602C281.165 96.3516 281.473 96.4473 281.879 96.4473C282.227 96.4473 282.542 96.373 282.823 96.2246C283.104 96.0723 283.368 95.8867 283.614 95.668ZM283.614 96.582C283.524 96.6484 283.403 96.7422 283.251 96.8633C283.102 96.9805 282.958 97.0742 282.817 97.1445C282.622 97.2461 282.432 97.3242 282.249 97.3789C282.069 97.4336 281.815 97.4609 281.487 97.4609C281.217 97.4609 280.961 97.4102 280.719 97.3086C280.477 97.207 280.264 97.0645 280.081 96.8809C279.905 96.7012 279.764 96.4805 279.659 96.2188C279.553 95.9531 279.501 95.6738 279.501 95.3809C279.501 94.9277 279.596 94.543 279.788 94.2266C279.979 93.9062 280.282 93.6523 280.696 93.4648C281.063 93.2969 281.497 93.1816 281.997 93.1191C282.497 93.0527 283.036 93.0039 283.614 92.9727V92.7617C283.614 92.5039 283.575 92.2969 283.497 92.1406C283.419 91.9805 283.309 91.8574 283.169 91.7715C283.028 91.6816 282.856 91.623 282.653 91.5957C282.45 91.5645 282.241 91.5488 282.026 91.5488C281.772 91.5488 281.473 91.5879 281.129 91.666C280.786 91.7402 280.442 91.8496 280.098 91.9941H280.034V90.875C280.237 90.8164 280.528 90.752 280.907 90.6816C281.286 90.6113 281.661 90.5762 282.032 90.5762C282.481 90.5762 282.86 90.6113 283.169 90.6816C283.477 90.752 283.754 90.8789 284.001 91.0625C284.239 91.2422 284.417 91.4746 284.534 91.7598C284.651 92.0449 284.71 92.3926 284.71 92.8027V97.2793H283.614V96.582Z" fill="#606580"/>
<path d="M267.568 64.7774H260.841V63.0001H262.988V57.6202H260.841V55.9591C261.156 55.9591 261.468 55.9386 261.778 55.8975C262.088 55.8565 262.336 55.7905 262.523 55.6993C262.742 55.5899 262.91 55.4441 263.029 55.2618C263.152 55.075 263.222 54.8448 263.241 54.5714H265.469V63.0001H267.568V64.7774ZM276.803 59.6847C276.803 60.5642 276.733 61.3344 276.591 61.9952C276.45 62.656 276.224 63.2074 275.915 63.6495C275.605 64.0916 275.201 64.4265 274.705 64.6544C274.208 64.8777 273.599 64.9893 272.879 64.9893C272.164 64.9893 271.558 64.8777 271.061 64.6544C270.564 64.4265 270.159 64.087 269.844 63.6358C269.534 63.1892 269.309 62.6401 269.167 61.9884C269.026 61.3321 268.956 60.5665 268.956 59.6915C268.956 58.7892 269.024 58.019 269.161 57.3809C269.302 56.7429 269.534 56.1938 269.858 55.7335C270.177 55.2823 270.587 54.9474 271.088 54.7286C271.59 54.5053 272.187 54.3936 272.879 54.3936C273.613 54.3936 274.224 54.5099 274.711 54.7423C275.204 54.9701 275.607 55.3119 275.921 55.7677C276.231 56.2143 276.455 56.7657 276.591 57.422C276.733 58.0782 276.803 58.8324 276.803 59.6847ZM274.24 59.6847C274.24 58.4268 274.135 57.545 273.925 57.0392C273.72 56.5287 273.372 56.2735 272.879 56.2735C272.392 56.2735 272.043 56.5287 271.833 57.0392C271.624 57.545 271.519 58.4314 271.519 59.6983C271.519 60.9379 271.624 61.8175 271.833 62.337C272.043 62.852 272.392 63.1095 272.879 63.1095C273.367 63.1095 273.716 62.852 273.925 62.337C274.135 61.8175 274.24 60.9334 274.24 59.6847ZM285.622 56.6222L281.288 64.7774H278.444L282.99 56.5196H278.136V54.5987H285.622V56.6222Z" fill="#303549"/>
<path d="M45.5679 64.7774H38.8413V63.0001H40.9878V57.6202H38.8413V55.9591C39.1558 55.9591 39.4679 55.9386 39.7778 55.8975C40.0877 55.8565 40.3361 55.7905 40.5229 55.6993C40.7417 55.5899 40.9103 55.4441 41.0288 55.2618C41.1519 55.075 41.2225 54.8448 41.2407 54.5714H43.4692V63.0001H45.5679V64.7774ZM54.8032 59.6847C54.8032 60.5642 54.7326 61.3344 54.5913 61.9952C54.45 62.656 54.2244 63.2074 53.9146 63.6495C53.6047 64.0916 53.2013 64.4265 52.7046 64.6544C52.2078 64.8777 51.5994 64.9893 50.8794 64.9893C50.1639 64.9893 49.5578 64.8777 49.061 64.6544C48.5643 64.4265 48.1587 64.087 47.8442 63.6358C47.5343 63.1892 47.3088 62.6401 47.1675 61.9884C47.0262 61.3321 46.9556 60.5665 46.9556 59.6915C46.9556 58.7892 47.0239 58.019 47.1606 57.3809C47.3019 56.7429 47.5343 56.1938 47.8579 55.7335C48.1769 55.2823 48.5871 54.9474 49.0884 54.7286C49.5897 54.5053 50.1867 54.3936 50.8794 54.3936C51.6131 54.3936 52.2238 54.5099 52.7114 54.7423C53.2036 54.9701 53.6069 55.3119 53.9214 55.7677C54.2313 56.2143 54.4546 56.7657 54.5913 57.422C54.7326 58.0782 54.8032 58.8324 54.8032 59.6847ZM52.2397 59.6847C52.2397 58.4268 52.1349 57.545 51.9253 57.0392C51.7202 56.5287 51.3716 56.2735 50.8794 56.2735C50.3918 56.2735 50.0431 56.5287 49.8335 57.0392C49.6239 57.545 49.519 58.4314 49.519 59.6983C49.519 60.9379 49.6239 61.8175 49.8335 62.337C50.0431 62.852 50.3918 63.1095 50.8794 63.1095C51.367 63.1095 51.7157 62.852 51.9253 62.337C52.1349 61.8175 52.2397 60.9334 52.2397 59.6847ZM63.6147 61.3321C63.6147 61.8608 63.5236 62.3507 63.3413 62.8018C63.1636 63.253 62.8947 63.6427 62.5347 63.9708C62.1792 64.2944 61.7554 64.545 61.2632 64.7227C60.7756 64.9005 60.174 64.9893 59.4585 64.9893C58.702 64.9848 58.0503 64.9186 57.5034 64.791C56.9611 64.668 56.5122 64.529 56.1567 64.3741V62.1524H56.3892C56.5168 62.2253 56.6603 62.3074 56.8198 62.3985C56.9793 62.4897 57.189 62.5854 57.4487 62.6856C57.6903 62.7813 57.9341 62.8611 58.1802 62.9249C58.4308 62.9841 58.7088 63.0138 59.0142 63.0138C59.2785 63.0138 59.5633 62.9819 59.8687 62.9181C60.174 62.8497 60.4201 62.7289 60.6069 62.5558C60.7437 62.419 60.8507 62.2664 60.9282 62.0977C61.0057 61.9291 61.0444 61.7035 61.0444 61.421C61.0444 61.184 60.9943 60.9812 60.894 60.8126C60.7983 60.6394 60.6707 60.5004 60.5112 60.3956C60.2788 60.2406 59.9985 60.1427 59.6704 60.1017C59.3423 60.0561 59.0597 60.0333 58.8228 60.0333C58.4491 60.0333 58.0845 60.0629 57.729 60.1222C57.3781 60.1814 57.0728 60.2452 56.813 60.3136H56.5942V54.5987H63.3345V56.5196H59.0073V58.2149C59.144 58.2058 59.3058 58.199 59.4927 58.1944C59.6841 58.1853 59.8322 58.1808 59.937 58.1808C60.4246 58.1808 60.8758 58.2309 61.2905 58.3311C61.7052 58.4268 62.0721 58.5772 62.3911 58.7823C62.7785 59.033 63.0793 59.3702 63.2935 59.794C63.5076 60.2133 63.6147 60.726 63.6147 61.3321Z" fill="#303549"/>
<mask id="mask0" mask-type="alpha" maskUnits="userSpaceOnUse" x="5" y="16" width="92" height="92">
<path d="M50.8792 104.258C74.2846 104.258 93.2584 85.2846 93.2584 61.8792C93.2584 38.4738 74.2846 19.5 50.8792 19.5C27.4738 19.5 8.5 38.4738 8.5 61.8792C8.5 85.2846 27.4738 104.258 50.8792 104.258Z" stroke="white" stroke-width="7" stroke-dasharray="90 3"/>
</mask>
<g mask="url(#mask0)">
<path d="M82.5999 28.9039V3.83887C82.5999 1.07744 80.3613 -1.16113 77.5999 -1.16113L24.1316 -1.16113C21.3701 -1.16113 19.1316 1.07744 19.1316 3.83887V28.9039C19.1316 31.6653 21.3701 33.9039 24.1316 33.9039L77.5999 33.9039C80.3613 33.9039 82.5999 31.6653 82.5999 28.9039Z" fill="#0BA4A4"/>
</g>
<mask id="mask1" mask-type="alpha" maskUnits="userSpaceOnUse" x="5" y="16" width="92" height="92">
<path d="M50.8792 104.258C74.2846 104.258 93.2584 85.2846 93.2584 61.8792C93.2584 38.4738 74.2846 19.5 50.8792 19.5C27.4738 19.5 8.5 38.4738 8.5 61.8792C8.5 85.2846 27.4738 104.258 50.8792 104.258Z" stroke="white" stroke-width="7" stroke-dasharray="90 3"/>
</mask>
<g mask="url(#mask1)">
<path d="M93.2493 29.8154H85.3928C80.9745 29.8154 77.3928 33.3971 77.3928 37.8154V85.9035C77.3928 90.3218 80.9745 93.9035 85.3928 93.9035H93.2493C97.6676 93.9035 101.249 90.3218 101.249 85.9035V37.8154C101.249 33.3971 97.6676 29.8154 93.2493 29.8154Z" fill="#FF1D25" fill-opacity="0.2"/>
</g>
<mask id="mask2" mask-type="alpha" maskUnits="userSpaceOnUse" x="5" y="16" width="92" height="92">
<path d="M50.8792 104.258C74.2846 104.258 93.2584 85.2846 93.2584 61.8792C93.2584 38.4738 74.2846 19.5 50.8792 19.5C27.4738 19.5 8.5 38.4738 8.5 61.8792C8.5 85.2846 27.4738 104.258 50.8792 104.258Z" stroke="white" stroke-width="7" stroke-dasharray="90 3"/>
</mask>
<g mask="url(#mask2)">
<path d="M17.0771 29.8643H-5.3606C-8.6743 29.8643 -11.3606 32.5505 -11.3606 35.8643V87.5529C-11.3606 90.8666 -8.6743 93.5529 -5.3606 93.5529H17.0771C20.3908 93.5529 23.0771 90.8666 23.0771 87.5529V35.8643C23.0771 32.5505 20.3908 29.8643 17.0771 29.8643Z" fill="#F7931E" fill-opacity="0.2"/>
</g>
<mask id="mask3" mask-type="alpha" maskUnits="userSpaceOnUse" x="116" y="16" width="93" height="92">
<path d="M162.879 104.258C186.284 104.258 205.258 85.2846 205.258 61.8792C205.258 38.4738 186.284 19.5 162.879 19.5C139.474 19.5 120.5 38.4738 120.5 61.8792C120.5 85.2846 139.474 104.258 162.879 104.258Z" stroke="white" stroke-width="7" stroke-dasharray="90 3"/>
</mask>
<g mask="url(#mask3)">
<path d="M205.25 29.8154H197.393C192.975 29.8154 189.393 33.3971 189.393 37.8154V85.9035C189.393 90.3218 192.975 93.9035 197.393 93.9035H205.25C209.668 93.9035 213.25 90.3218 213.25 85.9035V37.8154C213.25 33.3971 209.668 29.8154 205.25 29.8154Z" fill="#FF1D25"/>
</g>
<mask id="mask4" mask-type="alpha" maskUnits="userSpaceOnUse" x="116" y="16" width="93" height="92">
<path d="M162.879 104.258C186.284 104.258 205.258 85.2846 205.258 61.8792C205.258 38.4738 186.284 19.5 162.879 19.5C139.474 19.5 120.5 38.4738 120.5 61.8792C120.5 85.2846 139.474 104.258 162.879 104.258Z" stroke="white" stroke-width="7" stroke-dasharray="90 3"/>
</mask>
<g mask="url(#mask4)">
<path d="M194.6 28.9039V3.83887C194.6 1.07744 192.361 -1.16113 189.6 -1.16113L136.132 -1.16113C133.37 -1.16113 131.132 1.07744 131.132 3.83887V28.9039C131.132 31.6653 133.37 33.9039 136.132 33.9039L189.6 33.9039C192.361 33.9039 194.6 31.6653 194.6 28.9039Z" fill="#00A73D" fill-opacity="0.2"/>
</g>
<mask id="mask5" mask-type="alpha" maskUnits="userSpaceOnUse" x="116" y="16" width="93" height="92">
<path d="M162.879 104.258C186.284 104.258 205.258 85.2846 205.258 61.8792C205.258 38.4738 186.284 19.5 162.879 19.5C139.474 19.5 120.5 38.4738 120.5 61.8792C120.5 85.2846 139.474 104.258 162.879 104.258Z" stroke="white" stroke-width="7" stroke-dasharray="90 3"/>
</mask>
<g mask="url(#mask5)">
<path d="M129.077 29.8643H106.639C103.325 29.8643 100.639 32.5505 100.639 35.8643V87.5529C100.639 90.8666 103.325 93.5529 106.639 93.5529H129.077C132.39 93.5529 135.077 90.8666 135.077 87.5529V35.8643C135.077 32.5505 132.39 29.8643 129.077 29.8643Z" fill="#F7931E" fill-opacity="0.2"/>
</g>
<mask id="mask6" mask-type="alpha" maskUnits="userSpaceOnUse" x="226" y="16" width="93" height="92">
<path d="M272.879 104.258C296.284 104.258 315.258 85.2846 315.258 61.8792C315.258 38.4738 296.284 19.5 272.879 19.5C249.474 19.5 230.5 38.4738 230.5 61.8792C230.5 85.2846 249.474 104.258 272.879 104.258Z" stroke="white" stroke-width="7" stroke-dasharray="90 3"/>
</mask>
<g mask="url(#mask6)">
<path d="M315.25 29.8154H307.393C302.975 29.8154 299.393 33.3971 299.393 37.8154V85.9035C299.393 90.3218 302.975 93.9035 307.393 93.9035H315.25C319.668 93.9035 323.25 90.3218 323.25 85.9035V37.8154C323.25 33.3971 319.668 29.8154 315.25 29.8154Z" fill="#FF1D25"/>
</g>
<mask id="mask7" mask-type="alpha" maskUnits="userSpaceOnUse" x="226" y="16" width="93" height="92">
<path d="M272.879 104.258C296.284 104.258 315.258 85.2846 315.258 61.8792C315.258 38.4738 296.284 19.5 272.879 19.5C249.474 19.5 230.5 38.4738 230.5 61.8792C230.5 85.2846 249.474 104.258 272.879 104.258Z" stroke="white" stroke-width="7" stroke-dasharray="90 3"/>
</mask>
<g mask="url(#mask7)">
<path d="M304.6 28.9039V3.83887C304.6 1.07744 302.361 -1.16113 299.6 -1.16113L246.132 -1.16113C243.37 -1.16113 241.132 1.07744 241.132 3.83887V28.9039C241.132 31.6653 243.37 33.9039 246.132 33.9039L299.6 33.9039C302.361 33.9039 304.6 31.6653 304.6 28.9039Z" fill="#00A73D" fill-opacity="0.2"/>
</g>
<mask id="mask8" mask-type="alpha" maskUnits="userSpaceOnUse" x="226" y="16" width="93" height="92">
<path d="M272.879 104.258C296.284 104.258 315.258 85.2846 315.258 61.8792C315.258 38.4738 296.284 19.5 272.879 19.5C249.474 19.5 230.5 38.4738 230.5 61.8792C230.5 85.2846 249.474 104.258 272.879 104.258Z" stroke="white" stroke-width="7" stroke-dasharray="90 3"/>
</mask>
<g mask="url(#mask8)">
<path d="M239.077 29.8643H216.639C213.325 29.8643 210.639 32.5505 210.639 35.8643V87.5529C210.639 90.8666 213.325 93.5529 216.639 93.5529H239.077C242.39 93.5529 245.077 90.8666 245.077 87.5529V35.8643C245.077 32.5505 242.39 29.8643 239.077 29.8643Z" fill="#F7931E" fill-opacity="0.2"/>
</g>
</svg>
