<svg width="324" height="117" viewBox="0 0 324 117" fill="none" xmlns="http://www.w3.org/2000/svg">
<path d="M5.57277 42H3.63016V41.5933H4.35262V38.9229H3.63016V38.5589C3.90309 38.5589 4.10377 38.5206 4.23221 38.4439C4.36243 38.3654 4.43557 38.2182 4.45162 38.0024H4.86637V41.5933H5.57277V42ZM8.18701 38.9443C8.18701 38.7659 8.12725 38.6169 8.00773 38.4974C7.88822 38.3779 7.72232 38.3181 7.51004 38.3181C7.3156 38.3181 7.15594 38.3716 7.03107 38.4787C6.90799 38.5857 6.84645 38.7302 6.84645 38.9121C6.84645 39.0442 6.87766 39.1556 6.9401 39.2466C7.00432 39.3376 7.09975 39.4197 7.22641 39.4928C7.28171 39.5231 7.36555 39.565 7.47793 39.6186C7.5921 39.6721 7.69556 39.714 7.78832 39.7443C7.94352 39.6248 8.04876 39.5026 8.10406 39.3777C8.15936 39.2511 8.18701 39.1066 8.18701 38.9443ZM8.26193 40.9404C8.26193 40.7763 8.22982 40.6461 8.16561 40.5497C8.10139 40.4534 7.97741 40.3553 7.79367 40.2554C7.73302 40.2215 7.65186 40.1849 7.55018 40.1457C7.45028 40.1064 7.33701 40.0601 7.21035 40.0065C7.06229 40.1047 6.94902 40.226 6.87053 40.3704C6.79204 40.5132 6.75279 40.6764 6.75279 40.8601C6.75279 41.1009 6.82504 41.2998 6.96953 41.4568C7.11581 41.6138 7.29865 41.6923 7.51807 41.6923C7.74283 41.6923 7.923 41.6254 8.05857 41.4916C8.19415 41.356 8.26193 41.1723 8.26193 40.9404ZM7.51272 42.091C7.31471 42.091 7.13454 42.0615 6.97221 42.0027C6.80988 41.9438 6.67163 41.8591 6.55746 41.7485C6.44508 41.6414 6.35945 41.5148 6.30059 41.3685C6.2435 41.2205 6.21496 41.0644 6.21496 40.9003C6.21496 40.6844 6.27204 40.4864 6.38621 40.3062C6.50216 40.1243 6.66984 39.9798 6.88926 39.8728V39.8567C6.69303 39.7425 6.54765 39.6177 6.45311 39.4821C6.35856 39.3465 6.31129 39.1771 6.31129 38.9737C6.31129 38.674 6.42456 38.4243 6.65111 38.2245C6.87766 38.0247 7.16486 37.9248 7.51272 37.9248C7.87484 37.9248 8.16471 38.0202 8.38234 38.2111C8.60176 38.4002 8.71147 38.6428 8.71147 38.9389C8.71147 39.1173 8.65884 39.2939 8.55359 39.4687C8.45013 39.6435 8.30029 39.78 8.10406 39.8781V39.8942C8.33596 40.003 8.51167 40.135 8.63119 40.2902C8.75071 40.4454 8.81047 40.6452 8.81047 40.8896C8.81047 41.2303 8.68649 41.5157 8.43854 41.7458C8.19236 41.9759 7.88376 42.091 7.51272 42.091ZM11.7779 40.0065C11.7779 40.7219 11.6736 41.2472 11.4648 41.5826C11.2579 41.9162 10.9377 42.0829 10.5042 42.0829C10.0654 42.0829 9.74342 41.9126 9.53828 41.5719C9.33314 41.2312 9.23057 40.7112 9.23057 40.0119C9.23057 39.293 9.33403 38.7677 9.54096 38.4359C9.74967 38.1023 10.0708 37.9355 10.5042 37.9355C10.9431 37.9355 11.2651 38.1076 11.4702 38.4519C11.6753 38.7962 11.7779 39.3144 11.7779 40.0065ZM11.0929 41.2213C11.1446 41.0893 11.1812 40.9226 11.2026 40.721C11.224 40.5194 11.2347 40.2813 11.2347 40.0065C11.2347 39.7336 11.224 39.4964 11.2026 39.2948C11.1812 39.0932 11.1438 38.9255 11.0902 38.7917C11.0367 38.6562 10.9627 38.5536 10.8681 38.484C10.7754 38.4127 10.6541 38.377 10.5042 38.377C10.3562 38.377 10.234 38.4127 10.1377 38.484C10.0431 38.5536 9.96819 38.6579 9.91289 38.7971C9.85938 38.9327 9.82281 39.1039 9.80318 39.3108C9.78356 39.5178 9.77375 39.7515 9.77375 40.0119C9.77375 40.2902 9.78178 40.523 9.79783 40.7103C9.81567 40.8976 9.85313 41.0653 9.91022 41.2133C9.96195 41.3507 10.0351 41.4568 10.1296 41.5317C10.226 41.6049 10.3508 41.6414 10.5042 41.6414C10.6523 41.6414 10.7736 41.6067 10.8681 41.5371C10.9645 41.4657 11.0394 41.3605 11.0929 41.2213Z" fill="#8C99B2"/>
<path d="M8.87201 76.63H8.3984V78H7.88465V76.63H6.12398V76.0681L7.90605 74.0158H8.3984V76.2019H8.87201V76.63ZM7.88465 76.2019V74.6446L6.54141 76.2019H7.88465ZM11.7779 76.0065C11.7779 76.7219 11.6736 77.2472 11.4648 77.5826C11.2579 77.9162 10.9377 78.0829 10.5042 78.0829C10.0654 78.0829 9.74342 77.9126 9.53828 77.5719C9.33314 77.2312 9.23057 76.7112 9.23057 76.0119C9.23057 75.293 9.33403 74.7677 9.54096 74.4359C9.74967 74.1023 10.0708 73.9355 10.5042 73.9355C10.9431 73.9355 11.2651 74.1076 11.4702 74.4519C11.6753 74.7962 11.7779 75.3144 11.7779 76.0065ZM11.0929 77.2213C11.1446 77.0893 11.1812 76.9226 11.2026 76.721C11.224 76.5194 11.2347 76.2813 11.2347 76.0065C11.2347 75.7336 11.224 75.4964 11.2026 75.2948C11.1812 75.0932 11.1437 74.9255 11.0902 74.7917C11.0367 74.6562 10.9627 74.5536 10.8681 74.484C10.7754 74.4127 10.6541 74.377 10.5042 74.377C10.3562 74.377 10.234 74.4127 10.1377 74.484C10.0431 74.5536 9.96819 74.6579 9.91289 74.7971C9.85937 74.9327 9.82281 75.1039 9.80318 75.3108C9.78356 75.5178 9.77375 75.7515 9.77375 76.0119C9.77375 76.2902 9.78178 76.523 9.79783 76.7103C9.81567 76.8976 9.85313 77.0653 9.91021 77.2133C9.96195 77.3507 10.0351 77.4568 10.1296 77.5317C10.226 77.6049 10.3508 77.6414 10.5042 77.6414C10.6523 77.6414 10.7736 77.6067 10.8681 77.5371C10.9645 77.4657 11.0394 77.3605 11.0929 77.2213Z" fill="#8C99B2"/>
<path d="M11.7779 105.007C11.7779 105.722 11.6736 106.247 11.4648 106.583C11.2579 106.916 10.9377 107.083 10.5042 107.083C10.0654 107.083 9.74342 106.913 9.53828 106.572C9.33314 106.231 9.23057 105.711 9.23057 105.012C9.23057 104.293 9.33403 103.768 9.54096 103.436C9.74967 103.102 10.0708 102.935 10.5042 102.935C10.9431 102.935 11.2651 103.108 11.4702 103.452C11.6753 103.796 11.7779 104.314 11.7779 105.007ZM11.0929 106.221C11.1446 106.089 11.1812 105.923 11.2026 105.721C11.224 105.519 11.2347 105.281 11.2347 105.007C11.2347 104.734 11.224 104.496 11.2026 104.295C11.1812 104.093 11.1437 103.926 11.0902 103.792C11.0367 103.656 10.9627 103.554 10.8681 103.484C10.7754 103.413 10.6541 103.377 10.5042 103.377C10.3562 103.377 10.234 103.413 10.1377 103.484C10.0431 103.554 9.96819 103.658 9.91289 103.797C9.85937 103.933 9.82281 104.104 9.80318 104.311C9.78356 104.518 9.77375 104.751 9.77375 105.012C9.77375 105.29 9.78178 105.523 9.79783 105.71C9.81567 105.898 9.85313 106.065 9.91021 106.213C9.96195 106.351 10.0351 106.457 10.1296 106.532C10.226 106.605 10.3508 106.641 10.5042 106.641C10.6523 106.641 10.7736 106.607 10.8681 106.537C10.9645 106.466 11.0394 106.36 11.0929 106.221Z" fill="#8C99B2"/>
<path d="M8.54734 9.45225H7.53055V11.9996H7.0275V9.45225H6.0107V9.01074H8.54734V9.45225ZM11.282 11.9996H10.7789V10.6537H9.425V11.9996H8.92195V9.01074H9.425V10.2202H10.7789V9.01074H11.282V11.9996Z" fill="#8C99B2"/>
<path d="M275 50H263" stroke="#0089FF"/>
<path d="M306 64H294" stroke="#0089FF"/>
<path d="M316 62H310" stroke="#0089FF"/>
<path d="M291 56H278" stroke="#0089FF"/>
<path d="M58.7277 66.1475H46.3879" stroke="#0089FF"/>
<path d="M74.2287 64.582H61.8889" stroke="#0089FF"/>
<path d="M89.7299 64.0605H77.3901" stroke="#0089FF"/>
<path d="M105.231 63.0166H92.8911" stroke="#0089FF"/>
<path d="M120.732 62.4941H108.392" stroke="#0089FF"/>
<path d="M136.233 61.9727H123.893" stroke="#0089FF"/>
<path d="M151.734 61.4512H139.395" stroke="#0089FF"/>
<path d="M167.235 60.4072H154.896" stroke="#0089FF"/>
<path d="M182.737 59.8857H170.397" stroke="#0089FF"/>
<path d="M198.238 59.3643H185.898" stroke="#0089FF"/>
<path d="M213.739 58.8418H201.399" stroke="#0089FF"/>
<path d="M229.24 58.8418H216.9" stroke="#0089FF"/>
<path d="M244.741 57.7979H232.401" stroke="#0089FF"/>
<path d="M260 47H248" stroke="#0089FF"/>
<path d="M43.2266 70.4033H31.0022" stroke="#0089FF"/>
<path d="M27.8404 70.4033H15.616" stroke="#0089FF"/>
<path opacity="0.1" d="M14.045 40.3447L316 40.3447V12.6637L14.045 12.6637V40.3447Z" fill="#A2E2FF"/>
<path opacity="0.1" d="M316 74H14V102H316V74Z" fill="#A2E2FF"/>
<path d="M36.7694 106.007C36.7694 106.722 36.6651 107.247 36.4564 107.583C36.2494 107.916 35.9292 108.083 35.4958 108.083C35.0569 108.083 34.7349 107.913 34.5298 107.572C34.3247 107.231 34.2221 106.711 34.2221 106.012C34.2221 105.293 34.3256 104.768 34.5325 104.436C34.7412 104.102 35.0623 103.935 35.4958 103.935C35.9346 103.935 36.2566 104.108 36.4617 104.452C36.6669 104.796 36.7694 105.314 36.7694 106.007ZM36.0844 107.221C36.1362 107.089 36.1727 106.923 36.1941 106.721C36.2155 106.519 36.2263 106.281 36.2263 106.007C36.2263 105.734 36.2155 105.496 36.1941 105.295C36.1727 105.093 36.1353 104.926 36.0818 104.792C36.0282 104.656 35.9542 104.554 35.8597 104.484C35.7669 104.413 35.6456 104.377 35.4958 104.377C35.3477 104.377 35.2255 104.413 35.1292 104.484C35.0346 104.554 34.9597 104.658 34.9044 104.797C34.8509 104.933 34.8143 105.104 34.7947 105.311C34.7751 105.518 34.7653 105.751 34.7653 106.012C34.7653 106.29 34.7733 106.523 34.7894 106.71C34.8072 106.898 34.8447 107.065 34.9017 107.213C34.9535 107.351 35.0266 107.457 35.1212 107.532C35.2175 107.605 35.3424 107.641 35.4958 107.641C35.6438 107.641 35.7651 107.607 35.8597 107.537C35.956 107.466 36.0309 107.36 36.0844 107.221ZM39.5389 108H37.5963V107.593H38.3187V104.923H37.5963V104.559C37.8692 104.559 38.0699 104.521 38.1983 104.444C38.3285 104.365 38.4017 104.218 38.4177 104.002H38.8325V107.593H39.5389V108Z" fill="#8C99B2"/>
<path d="M19.3673 104.396C19.271 104.396 19.1747 104.407 19.0783 104.431C18.982 104.454 18.8875 104.484 18.7947 104.521C18.7091 104.557 18.6342 104.595 18.5699 104.634C18.5075 104.673 18.4513 104.71 18.4014 104.744H18.3693V104.179C18.4852 104.117 18.6422 104.06 18.8402 104.01C19.04 103.959 19.23 103.933 19.4101 103.933C19.5903 103.933 19.7473 103.952 19.8811 103.989C20.0166 104.025 20.1388 104.081 20.2477 104.158C20.3654 104.243 20.4537 104.347 20.5126 104.468C20.5732 104.589 20.6035 104.731 20.6035 104.893C20.6035 105.113 20.5313 105.305 20.3868 105.471C20.2423 105.637 20.0693 105.743 19.8677 105.787V105.825C19.9515 105.841 20.0407 105.868 20.1353 105.908C20.2316 105.947 20.3208 106.005 20.4029 106.081C20.4849 106.158 20.5518 106.257 20.6035 106.378C20.6553 106.498 20.6811 106.644 20.6811 106.817C20.6811 106.997 20.6499 107.163 20.5875 107.315C20.5268 107.465 20.4403 107.598 20.3279 107.714C20.212 107.835 20.0719 107.927 19.9078 107.989C19.7437 108.052 19.5573 108.083 19.3486 108.083C19.1488 108.083 18.9508 108.059 18.7546 108.011C18.5583 107.963 18.3933 107.905 18.2596 107.837V107.272H18.297C18.4094 107.354 18.5601 107.433 18.7492 107.508C18.9383 107.583 19.1274 107.62 19.3165 107.62C19.4253 107.62 19.5341 107.603 19.6429 107.569C19.7535 107.534 19.8454 107.476 19.9185 107.398C19.9899 107.319 20.0443 107.233 20.0818 107.138C20.1192 107.044 20.1379 106.924 20.1379 106.78C20.1379 106.635 20.1165 106.517 20.0737 106.424C20.0327 106.331 19.9747 106.258 19.8998 106.205C19.8249 106.151 19.7357 106.114 19.6322 106.095C19.5305 106.073 19.4199 106.063 19.3004 106.063H19.073V105.619H19.2496C19.4904 105.619 19.6857 105.561 19.8356 105.447C19.9872 105.333 20.063 105.167 20.063 104.95C20.063 104.85 20.0434 104.764 20.0042 104.693C19.9649 104.62 19.915 104.562 19.8543 104.519C19.7865 104.472 19.7116 104.44 19.6296 104.422C19.5475 104.405 19.4601 104.396 19.3673 104.396ZM23.5389 108H21.5963V107.593H22.3187V104.923H21.5963V104.559C21.8692 104.559 22.0699 104.521 22.1983 104.444C22.3285 104.365 22.4017 104.218 22.4177 104.002H22.8325V107.593H23.5389V108Z" fill="#8C99B2"/>
<path d="M51.7694 106.007C51.7694 106.722 51.6651 107.247 51.4564 107.583C51.2494 107.916 50.9292 108.083 50.4958 108.083C50.0569 108.083 49.7349 107.913 49.5298 107.572C49.3247 107.231 49.2221 106.711 49.2221 106.012C49.2221 105.293 49.3256 104.768 49.5325 104.436C49.7412 104.102 50.0623 103.935 50.4958 103.935C50.9346 103.935 51.2566 104.108 51.4617 104.452C51.6669 104.796 51.7694 105.314 51.7694 106.007ZM51.0844 107.221C51.1362 107.089 51.1727 106.923 51.1941 106.721C51.2155 106.519 51.2263 106.281 51.2263 106.007C51.2263 105.734 51.2155 105.496 51.1941 105.295C51.1727 105.093 51.1353 104.926 51.0818 104.792C51.0282 104.656 50.9542 104.554 50.8597 104.484C50.7669 104.413 50.6456 104.377 50.4958 104.377C50.3477 104.377 50.2255 104.413 50.1292 104.484C50.0346 104.554 49.9597 104.658 49.9044 104.797C49.8509 104.933 49.8143 105.104 49.7947 105.311C49.7751 105.518 49.7653 105.751 49.7653 106.012C49.7653 106.29 49.7733 106.523 49.7894 106.71C49.8072 106.898 49.8447 107.065 49.9017 107.213C49.9535 107.351 50.0266 107.457 50.1212 107.532C50.2175 107.605 50.3424 107.641 50.4958 107.641C50.6438 107.641 50.7651 107.607 50.8597 107.537C50.956 107.466 51.0309 107.36 51.0844 107.221ZM54.7422 108H52.2832V107.441C52.4598 107.273 52.6266 107.113 52.7836 106.959C52.9405 106.806 53.0939 106.646 53.2438 106.48C53.547 106.147 53.754 105.88 53.8646 105.68C53.9752 105.479 54.0305 105.271 54.0305 105.057C54.0305 104.946 54.0126 104.849 53.977 104.765C53.9431 104.681 53.8958 104.612 53.8351 104.556C53.7727 104.503 53.7005 104.463 53.6184 104.436C53.5363 104.409 53.4463 104.396 53.3481 104.396C53.2536 104.396 53.1573 104.408 53.0592 104.433C52.9628 104.456 52.8701 104.486 52.7809 104.521C52.706 104.552 52.6337 104.588 52.5641 104.631C52.4946 104.674 52.4384 104.711 52.3956 104.741H52.3661V104.174C52.4767 104.118 52.6301 104.065 52.8264 104.013C53.0244 103.96 53.2117 103.933 53.3883 103.933C53.7593 103.933 54.0501 104.032 54.2606 104.23C54.4711 104.426 54.5763 104.693 54.5763 105.03C54.5763 105.185 54.5576 105.329 54.5201 105.461C54.4845 105.593 54.4345 105.715 54.3703 105.827C54.3043 105.943 54.2249 106.058 54.1321 106.172C54.0394 106.287 53.9413 106.399 53.8378 106.51C53.6701 106.692 53.4828 106.881 53.2759 107.077C53.0708 107.273 52.9066 107.428 52.7836 107.542H54.7422V108Z" fill="#8C99B2"/>
<path d="M66.7694 106.007C66.7694 106.722 66.6651 107.247 66.4564 107.583C66.2494 107.916 65.9292 108.083 65.4958 108.083C65.0569 108.083 64.7349 107.913 64.5298 107.572C64.3247 107.231 64.2221 106.711 64.2221 106.012C64.2221 105.293 64.3256 104.768 64.5325 104.436C64.7412 104.102 65.0623 103.935 65.4958 103.935C65.9346 103.935 66.2566 104.108 66.4617 104.452C66.6669 104.796 66.7694 105.314 66.7694 106.007ZM66.0844 107.221C66.1362 107.089 66.1727 106.923 66.1941 106.721C66.2155 106.519 66.2263 106.281 66.2263 106.007C66.2263 105.734 66.2155 105.496 66.1941 105.295C66.1727 105.093 66.1353 104.926 66.0818 104.792C66.0282 104.656 65.9542 104.554 65.8597 104.484C65.7669 104.413 65.6456 104.377 65.4958 104.377C65.3477 104.377 65.2255 104.413 65.1292 104.484C65.0346 104.554 64.9597 104.658 64.9044 104.797C64.8509 104.933 64.8143 105.104 64.7947 105.311C64.7751 105.518 64.7653 105.751 64.7653 106.012C64.7653 106.29 64.7733 106.523 64.7894 106.71C64.8072 106.898 64.8447 107.065 64.9017 107.213C64.9535 107.351 65.0266 107.457 65.1212 107.532C65.2175 107.605 65.3424 107.641 65.4958 107.641C65.6438 107.641 65.7651 107.607 65.8597 107.537C65.956 107.466 66.0309 107.36 66.0844 107.221ZM68.3588 104.396C68.2625 104.396 68.1662 104.407 68.0699 104.431C67.9735 104.454 67.879 104.484 67.7862 104.521C67.7006 104.557 67.6257 104.595 67.5615 104.634C67.499 104.673 67.4428 104.71 67.3929 104.744H67.3608V104.179C67.4767 104.117 67.6337 104.06 67.8317 104.01C68.0315 103.959 68.2215 103.933 68.4017 103.933C68.5818 103.933 68.7388 103.952 68.8726 103.989C69.0082 104.025 69.1304 104.081 69.2392 104.158C69.3569 104.243 69.4452 104.347 69.5041 104.468C69.5647 104.589 69.5951 104.731 69.5951 104.893C69.5951 105.113 69.5228 105.305 69.3783 105.471C69.2338 105.637 69.0608 105.743 68.8592 105.787V105.825C68.9431 105.841 69.0323 105.868 69.1268 105.908C69.2231 105.947 69.3123 106.005 69.3944 106.081C69.4764 106.158 69.5433 106.257 69.5951 106.378C69.6468 106.498 69.6727 106.644 69.6727 106.817C69.6727 106.997 69.6414 107.163 69.579 107.315C69.5184 107.465 69.4318 107.598 69.3195 107.714C69.2035 107.835 69.0635 107.927 68.8994 107.989C68.7352 108.052 68.5488 108.083 68.3401 108.083C68.1403 108.083 67.9423 108.059 67.7461 108.011C67.5499 107.963 67.3849 107.905 67.2511 107.837V107.272H67.2885C67.4009 107.354 67.5517 107.433 67.7407 107.508C67.9298 107.583 68.1189 107.62 68.308 107.62C68.4168 107.62 68.5256 107.603 68.6345 107.569C68.7451 107.534 68.8369 107.476 68.9101 107.398C68.9814 107.319 69.0358 107.233 69.0733 107.138C69.1107 107.044 69.1295 106.924 69.1295 106.78C69.1295 106.635 69.1081 106.517 69.0653 106.424C69.0242 106.331 68.9663 106.258 68.8913 106.205C68.8164 106.151 68.7272 106.114 68.6238 106.095C68.5221 106.073 68.4115 106.063 68.292 106.063H68.0645V105.619H68.2411C68.4819 105.619 68.6773 105.561 68.8271 105.447C68.9787 105.333 69.0546 105.167 69.0546 104.95C69.0546 104.85 69.0349 104.764 68.9957 104.693C68.9564 104.62 68.9065 104.562 68.8458 104.519C68.7781 104.472 68.7031 104.44 68.6211 104.422C68.539 104.405 68.4516 104.396 68.3588 104.396Z" fill="#8C99B2"/>
<path d="M82.7694 106.007C82.7694 106.722 82.6651 107.247 82.4564 107.583C82.2494 107.916 81.9292 108.083 81.4958 108.083C81.0569 108.083 80.7349 107.913 80.5298 107.572C80.3247 107.231 80.2221 106.711 80.2221 106.012C80.2221 105.293 80.3256 104.768 80.5325 104.436C80.7412 104.102 81.0623 103.935 81.4958 103.935C81.9346 103.935 82.2566 104.108 82.4617 104.452C82.6669 104.796 82.7694 105.314 82.7694 106.007ZM82.0844 107.221C82.1362 107.089 82.1727 106.923 82.1941 106.721C82.2155 106.519 82.2263 106.281 82.2263 106.007C82.2263 105.734 82.2155 105.496 82.1941 105.295C82.1727 105.093 82.1353 104.926 82.0818 104.792C82.0282 104.656 81.9542 104.554 81.8597 104.484C81.7669 104.413 81.6456 104.377 81.4958 104.377C81.3477 104.377 81.2255 104.413 81.1292 104.484C81.0346 104.554 80.9597 104.658 80.9044 104.797C80.8509 104.933 80.8143 105.104 80.7947 105.311C80.7751 105.518 80.7653 105.751 80.7653 106.012C80.7653 106.29 80.7733 106.523 80.7894 106.71C80.8072 106.898 80.8447 107.065 80.9017 107.213C80.9535 107.351 81.0266 107.457 81.1212 107.532C81.2175 107.605 81.3424 107.641 81.4958 107.641C81.6438 107.641 81.7651 107.607 81.8597 107.537C81.956 107.466 82.0309 107.36 82.0844 107.221ZM85.8466 106.63H85.373V108H84.8592V106.63H83.0986V106.068L84.8806 104.016H85.373V106.202H85.8466V106.63ZM84.8592 106.202V104.645L83.516 106.202H84.8592Z" fill="#8C99B2"/>
<path d="M98.7694 106.007C98.7694 106.722 98.6651 107.247 98.4564 107.583C98.2494 107.916 97.9292 108.083 97.4958 108.083C97.0569 108.083 96.7349 107.913 96.5298 107.572C96.3247 107.231 96.2221 106.711 96.2221 106.012C96.2221 105.293 96.3256 104.768 96.5325 104.436C96.7412 104.102 97.0623 103.935 97.4958 103.935C97.9346 103.935 98.2566 104.108 98.4617 104.452C98.6669 104.796 98.7694 105.314 98.7694 106.007ZM98.0844 107.221C98.1362 107.089 98.1727 106.923 98.1941 106.721C98.2155 106.519 98.2263 106.281 98.2263 106.007C98.2263 105.734 98.2155 105.496 98.1941 105.295C98.1727 105.093 98.1353 104.926 98.0818 104.792C98.0282 104.656 97.9542 104.554 97.8597 104.484C97.7669 104.413 97.6456 104.377 97.4958 104.377C97.3477 104.377 97.2255 104.413 97.1292 104.484C97.0346 104.554 96.9597 104.658 96.9044 104.797C96.8509 104.933 96.8143 105.104 96.7947 105.311C96.7751 105.518 96.7653 105.751 96.7653 106.012C96.7653 106.29 96.7733 106.523 96.7894 106.71C96.8072 106.898 96.8447 107.065 96.9017 107.213C96.9535 107.351 97.0266 107.457 97.1212 107.532C97.2175 107.605 97.3424 107.641 97.4958 107.641C97.6438 107.641 97.7651 107.607 97.8597 107.537C97.956 107.466 98.0309 107.36 98.0844 107.221ZM101.697 106.732C101.697 106.924 101.666 107.103 101.603 107.267C101.542 107.431 101.457 107.573 101.346 107.692C101.234 107.814 101.094 107.909 100.926 107.979C100.76 108.048 100.574 108.083 100.367 108.083C100.176 108.083 99.9878 108.062 99.8023 108.019C99.6185 107.978 99.4589 107.923 99.3233 107.856V107.291H99.3608C99.4018 107.321 99.4607 107.356 99.5374 107.395C99.6141 107.433 99.6988 107.468 99.7916 107.502C99.8968 107.54 99.9932 107.569 100.081 107.591C100.168 107.61 100.266 107.62 100.375 107.62C100.482 107.62 100.586 107.601 100.688 107.564C100.79 107.525 100.877 107.462 100.95 107.377C101.016 107.298 101.066 107.206 101.1 107.101C101.136 106.996 101.154 106.872 101.154 106.729C101.154 106.588 101.134 106.472 101.095 106.381C101.057 106.29 101.002 106.215 100.929 106.156C100.852 106.089 100.758 106.041 100.645 106.015C100.535 105.986 100.411 105.972 100.273 105.972C100.129 105.972 99.9833 105.983 99.8371 106.007C99.6908 106.028 99.574 106.048 99.4865 106.068V104.016H101.673V104.484H100.003V105.544C100.067 105.536 100.131 105.531 100.193 105.528C100.255 105.524 100.312 105.522 100.364 105.522C100.568 105.522 100.74 105.539 100.881 105.573C101.022 105.607 101.157 105.673 101.287 105.771C101.419 105.871 101.52 105.996 101.59 106.146C101.661 106.296 101.697 106.491 101.697 106.732Z" fill="#8C99B2"/>
<path d="M113.769 106.007C113.769 106.722 113.665 107.247 113.456 107.583C113.249 107.916 112.929 108.083 112.496 108.083C112.057 108.083 111.735 107.913 111.53 107.572C111.325 107.231 111.222 106.711 111.222 106.012C111.222 105.293 111.326 104.768 111.532 104.436C111.741 104.102 112.062 103.935 112.496 103.935C112.935 103.935 113.257 104.108 113.462 104.452C113.667 104.796 113.769 105.314 113.769 106.007ZM113.084 107.221C113.136 107.089 113.173 106.923 113.194 106.721C113.216 106.519 113.226 106.281 113.226 106.007C113.226 105.734 113.216 105.496 113.194 105.295C113.173 105.093 113.135 104.926 113.082 104.792C113.028 104.656 112.954 104.554 112.86 104.484C112.767 104.413 112.646 104.377 112.496 104.377C112.348 104.377 112.226 104.413 112.129 104.484C112.035 104.554 111.96 104.658 111.904 104.797C111.851 104.933 111.814 105.104 111.795 105.311C111.775 105.518 111.765 105.751 111.765 106.012C111.765 106.29 111.773 106.523 111.789 106.71C111.807 106.898 111.845 107.065 111.902 107.213C111.953 107.351 112.027 107.457 112.121 107.532C112.217 107.605 112.342 107.641 112.496 107.641C112.644 107.641 112.765 107.607 112.86 107.537C112.956 107.466 113.031 107.36 113.084 107.221ZM116.804 106.708C116.804 106.913 116.77 107.102 116.702 107.275C116.634 107.448 116.543 107.592 116.429 107.708C116.31 107.831 116.176 107.925 116.028 107.989C115.88 108.052 115.717 108.083 115.538 108.083C115.358 108.083 115.194 108.053 115.046 107.992C114.9 107.931 114.77 107.841 114.658 107.722C114.52 107.577 114.413 107.385 114.334 107.144C114.257 106.901 114.219 106.603 114.219 106.25C114.219 105.904 114.255 105.592 114.326 105.314C114.397 105.033 114.507 104.79 114.655 104.583C114.8 104.381 114.986 104.224 115.214 104.112C115.443 103.998 115.707 103.941 116.006 103.941C116.096 103.941 116.179 103.945 116.255 103.954C116.332 103.963 116.4 103.977 116.459 103.997V104.508H116.435C116.386 104.481 116.317 104.457 116.226 104.436C116.135 104.413 116.038 104.401 115.934 104.401C115.602 104.401 115.334 104.513 115.129 104.738C114.925 104.961 114.805 105.293 114.768 105.734C114.894 105.644 115.024 105.576 115.158 105.528C115.292 105.479 115.438 105.455 115.597 105.455C115.752 105.455 115.888 105.471 116.004 105.503C116.121 105.534 116.244 105.596 116.37 105.691C116.517 105.801 116.625 105.941 116.697 106.111C116.768 106.28 116.804 106.479 116.804 106.708ZM116.261 106.729C116.261 106.565 116.239 106.428 116.196 106.317C116.154 106.206 116.084 106.112 115.988 106.033C115.918 105.976 115.839 105.939 115.75 105.921C115.662 105.903 115.572 105.894 115.479 105.894C115.354 105.894 115.233 105.913 115.115 105.95C114.998 105.988 114.882 106.042 114.768 106.114C114.764 106.153 114.761 106.191 114.759 106.229C114.758 106.264 114.757 106.31 114.757 106.365C114.757 106.642 114.784 106.865 114.837 107.034C114.892 107.204 114.96 107.332 115.04 107.419C115.117 107.503 115.196 107.562 115.276 107.596C115.358 107.63 115.446 107.647 115.541 107.647C115.755 107.647 115.928 107.57 116.06 107.417C116.194 107.263 116.261 107.034 116.261 106.729Z" fill="#8C99B2"/>
<path d="M128.769 106.007C128.769 106.722 128.665 107.247 128.456 107.583C128.249 107.916 127.929 108.083 127.496 108.083C127.057 108.083 126.735 107.913 126.53 107.572C126.325 107.231 126.222 106.711 126.222 106.012C126.222 105.293 126.326 104.768 126.532 104.436C126.741 104.102 127.062 103.935 127.496 103.935C127.935 103.935 128.257 104.108 128.462 104.452C128.667 104.796 128.769 105.314 128.769 106.007ZM128.084 107.221C128.136 107.089 128.173 106.923 128.194 106.721C128.216 106.519 128.226 106.281 128.226 106.007C128.226 105.734 128.216 105.496 128.194 105.295C128.173 105.093 128.135 104.926 128.082 104.792C128.028 104.656 127.954 104.554 127.86 104.484C127.767 104.413 127.646 104.377 127.496 104.377C127.348 104.377 127.226 104.413 127.129 104.484C127.035 104.554 126.96 104.658 126.904 104.797C126.851 104.933 126.814 105.104 126.795 105.311C126.775 105.518 126.765 105.751 126.765 106.012C126.765 106.29 126.773 106.523 126.789 106.71C126.807 106.898 126.845 107.065 126.902 107.213C126.953 107.351 127.027 107.457 127.121 107.532C127.217 107.605 127.342 107.641 127.496 107.641C127.644 107.641 127.765 107.607 127.86 107.537C127.956 107.466 128.031 107.36 128.084 107.221ZM131.785 104.612L130.062 108H129.492L131.317 104.484H129.256V104.016H131.785V104.612Z" fill="#8C99B2"/>
<path d="M144.769 106.007C144.769 106.722 144.665 107.247 144.456 107.583C144.249 107.916 143.929 108.083 143.496 108.083C143.057 108.083 142.735 107.913 142.53 107.572C142.325 107.231 142.222 106.711 142.222 106.012C142.222 105.293 142.326 104.768 142.532 104.436C142.741 104.102 143.062 103.935 143.496 103.935C143.935 103.935 144.257 104.108 144.462 104.452C144.667 104.796 144.769 105.314 144.769 106.007ZM144.084 107.221C144.136 107.089 144.173 106.923 144.194 106.721C144.216 106.519 144.226 106.281 144.226 106.007C144.226 105.734 144.216 105.496 144.194 105.295C144.173 105.093 144.135 104.926 144.082 104.792C144.028 104.656 143.954 104.554 143.86 104.484C143.767 104.413 143.646 104.377 143.496 104.377C143.348 104.377 143.226 104.413 143.129 104.484C143.035 104.554 142.96 104.658 142.904 104.797C142.851 104.933 142.814 105.104 142.795 105.311C142.775 105.518 142.765 105.751 142.765 106.012C142.765 106.29 142.773 106.523 142.789 106.71C142.807 106.898 142.845 107.065 142.902 107.213C142.953 107.351 143.027 107.457 143.121 107.532C143.217 107.605 143.342 107.641 143.496 107.641C143.644 107.641 143.765 107.607 143.86 107.537C143.956 107.466 144.031 107.36 144.084 107.221ZM147.162 104.944C147.162 104.766 147.102 104.617 146.982 104.497C146.863 104.378 146.697 104.318 146.485 104.318C146.29 104.318 146.131 104.372 146.006 104.479C145.883 104.586 145.821 104.73 145.821 104.912C145.821 105.044 145.852 105.156 145.915 105.247C145.979 105.338 146.074 105.42 146.201 105.493C146.256 105.523 146.34 105.565 146.453 105.619C146.567 105.672 146.67 105.714 146.763 105.744C146.918 105.625 147.023 105.503 147.079 105.378C147.134 105.251 147.162 105.107 147.162 104.944ZM147.237 106.94C147.237 106.776 147.204 106.646 147.14 106.55C147.076 106.453 146.952 106.355 146.768 106.255C146.708 106.221 146.626 106.185 146.525 106.146C146.425 106.106 146.312 106.06 146.185 106.007C146.037 106.105 145.924 106.226 145.845 106.37C145.767 106.513 145.727 106.676 145.727 106.86C145.727 107.101 145.8 107.3 145.944 107.457C146.09 107.614 146.273 107.692 146.493 107.692C146.717 107.692 146.898 107.625 147.033 107.492C147.169 107.356 147.237 107.172 147.237 106.94ZM146.487 108.091C146.289 108.091 146.109 108.062 145.947 108.003C145.784 107.944 145.646 107.859 145.532 107.748C145.42 107.641 145.334 107.515 145.275 107.369C145.218 107.22 145.19 107.064 145.19 106.9C145.19 106.684 145.247 106.486 145.361 106.306C145.477 106.124 145.644 105.98 145.864 105.873V105.857C145.668 105.743 145.522 105.618 145.428 105.482C145.333 105.347 145.286 105.177 145.286 104.974C145.286 104.674 145.399 104.424 145.626 104.224C145.852 104.025 146.139 103.925 146.487 103.925C146.849 103.925 147.139 104.02 147.357 104.211C147.576 104.4 147.686 104.643 147.686 104.939C147.686 105.117 147.633 105.294 147.528 105.469C147.425 105.644 147.275 105.78 147.079 105.878V105.894C147.311 106.003 147.486 106.135 147.606 106.29C147.725 106.445 147.785 106.645 147.785 106.89C147.785 107.23 147.661 107.516 147.413 107.746C147.167 107.976 146.858 108.091 146.487 108.091Z" fill="#8C99B2"/>
<path d="M160.769 106.007C160.769 106.722 160.665 107.247 160.456 107.583C160.249 107.916 159.929 108.083 159.496 108.083C159.057 108.083 158.735 107.913 158.53 107.572C158.325 107.231 158.222 106.711 158.222 106.012C158.222 105.293 158.326 104.768 158.532 104.436C158.741 104.102 159.062 103.935 159.496 103.935C159.935 103.935 160.257 104.108 160.462 104.452C160.667 104.796 160.769 105.314 160.769 106.007ZM160.084 107.221C160.136 107.089 160.173 106.923 160.194 106.721C160.216 106.519 160.226 106.281 160.226 106.007C160.226 105.734 160.216 105.496 160.194 105.295C160.173 105.093 160.135 104.926 160.082 104.792C160.028 104.656 159.954 104.554 159.86 104.484C159.767 104.413 159.646 104.377 159.496 104.377C159.348 104.377 159.226 104.413 159.129 104.484C159.035 104.554 158.96 104.658 158.904 104.797C158.851 104.933 158.814 105.104 158.795 105.311C158.775 105.518 158.765 105.751 158.765 106.012C158.765 106.29 158.773 106.523 158.789 106.71C158.807 106.898 158.845 107.065 158.902 107.213C158.953 107.351 159.027 107.457 159.121 107.532C159.217 107.605 159.342 107.641 159.496 107.641C159.644 107.641 159.765 107.607 159.86 107.537C159.956 107.466 160.031 107.36 160.084 107.221ZM163.218 105.653C163.218 105.382 163.193 105.162 163.143 104.992C163.093 104.821 163.024 104.689 162.937 104.596C162.858 104.511 162.779 104.452 162.699 104.42C162.618 104.388 162.53 104.372 162.434 104.372C162.214 104.372 162.04 104.45 161.909 104.607C161.779 104.764 161.714 104.992 161.714 105.289C161.714 105.457 161.735 105.595 161.778 105.704C161.821 105.813 161.891 105.907 161.987 105.985C162.055 106.04 162.131 106.078 162.217 106.098C162.303 106.115 162.395 106.124 162.493 106.124C162.607 106.124 162.73 106.105 162.862 106.065C162.994 106.024 163.109 105.971 163.207 105.905C163.209 105.878 163.211 105.843 163.212 105.801C163.216 105.756 163.218 105.707 163.218 105.653ZM161.171 105.311C161.171 105.106 161.204 104.918 161.27 104.749C161.338 104.579 161.429 104.433 161.545 104.31C161.656 104.192 161.791 104.1 161.949 104.034C162.11 103.968 162.272 103.935 162.436 103.935C162.62 103.935 162.786 103.967 162.934 104.029C163.084 104.09 163.213 104.178 163.322 104.294C163.459 104.44 163.566 104.632 163.641 104.869C163.717 105.107 163.756 105.406 163.756 105.768C163.756 106.098 163.718 106.411 163.643 106.708C163.57 107.002 163.461 107.246 163.317 107.441C163.163 107.648 162.979 107.806 162.763 107.914C162.549 108.023 162.284 108.078 161.968 108.078C161.897 108.078 161.821 108.073 161.741 108.064C161.66 108.057 161.586 108.043 161.516 108.021V107.51H161.543C161.587 107.535 161.657 107.559 161.751 107.583C161.846 107.606 161.942 107.617 162.04 107.617C162.39 107.617 162.665 107.502 162.865 107.272C163.064 107.042 163.178 106.713 163.204 106.285C163.062 106.381 162.925 106.452 162.795 106.496C162.667 106.541 162.527 106.563 162.375 106.563C162.227 106.563 162.092 106.547 161.971 106.515C161.85 106.483 161.727 106.42 161.604 106.328C161.462 106.219 161.354 106.081 161.281 105.916C161.207 105.748 161.171 105.546 161.171 105.311Z" fill="#8C99B2"/>
<path d="M175.547 108H173.605V107.593H174.327V104.923H173.605V104.559C173.878 104.559 174.078 104.521 174.207 104.444C174.337 104.365 174.41 104.218 174.426 104.002H174.841V107.593H175.547V108ZM178.761 106.007C178.761 106.722 178.657 107.247 178.448 107.583C178.241 107.916 177.921 108.083 177.487 108.083C177.048 108.083 176.726 107.913 176.521 107.572C176.316 107.231 176.214 106.711 176.214 106.012C176.214 105.293 176.317 104.768 176.524 104.436C176.733 104.102 177.054 103.935 177.487 103.935C177.926 103.935 178.248 104.108 178.453 104.452C178.658 104.796 178.761 105.314 178.761 106.007ZM178.076 107.221C178.128 107.089 178.164 106.923 178.186 106.721C178.207 106.519 178.218 106.281 178.218 106.007C178.218 105.734 178.207 105.496 178.186 105.295C178.164 105.093 178.127 104.926 178.073 104.792C178.02 104.656 177.946 104.554 177.851 104.484C177.758 104.413 177.637 104.377 177.487 104.377C177.339 104.377 177.217 104.413 177.121 104.484C177.026 104.554 176.951 104.658 176.896 104.797C176.842 104.933 176.806 105.104 176.786 105.311C176.767 105.518 176.757 105.751 176.757 106.012C176.757 106.29 176.765 106.523 176.781 106.71C176.799 106.898 176.836 107.065 176.893 107.213C176.945 107.351 177.018 107.457 177.113 107.532C177.209 107.605 177.334 107.641 177.487 107.641C177.635 107.641 177.757 107.607 177.851 107.537C177.948 107.466 178.022 107.36 178.076 107.221Z" fill="#8C99B2"/>
<path d="M190.547 108H188.605V107.593H189.327V104.923H188.605V104.559C188.878 104.559 189.078 104.521 189.207 104.444C189.337 104.365 189.41 104.218 189.426 104.002H189.841V107.593H190.547V108ZM193.539 108H191.596V107.593H192.319V104.923H191.596V104.559C191.869 104.559 192.07 104.521 192.198 104.444C192.329 104.365 192.402 104.218 192.418 104.002H192.832V107.593H193.539V108Z" fill="#8C99B2"/>
<path d="M206.547 108H204.605V107.593H205.327V104.923H204.605V104.559C204.878 104.559 205.078 104.521 205.207 104.444C205.337 104.365 205.41 104.218 205.426 104.002H205.841V107.593H206.547V108ZM209.742 108H207.283V107.441C207.46 107.273 207.627 107.113 207.784 106.959C207.941 106.806 208.094 106.646 208.244 106.48C208.547 106.147 208.754 105.88 208.865 105.68C208.975 105.479 209.03 105.271 209.03 105.057C209.03 104.946 209.013 104.849 208.977 104.765C208.943 104.681 208.896 104.612 208.835 104.556C208.773 104.503 208.7 104.463 208.618 104.436C208.536 104.409 208.446 104.396 208.348 104.396C208.254 104.396 208.157 104.408 208.059 104.433C207.963 104.456 207.87 104.486 207.781 104.521C207.706 104.552 207.634 104.588 207.564 104.631C207.495 104.674 207.438 104.711 207.396 104.741H207.366V104.174C207.477 104.118 207.63 104.065 207.826 104.013C208.024 103.96 208.212 103.933 208.388 103.933C208.759 103.933 209.05 104.032 209.261 104.23C209.471 104.426 209.576 104.693 209.576 105.03C209.576 105.185 209.558 105.329 209.52 105.461C209.484 105.593 209.435 105.715 209.37 105.827C209.304 105.943 209.225 106.058 209.132 106.172C209.039 106.287 208.941 106.399 208.838 106.51C208.67 106.692 208.483 106.881 208.276 107.077C208.071 107.273 207.907 107.428 207.784 107.542H209.742V108Z" fill="#8C99B2"/>
<path d="M221.547 108H219.605V107.593H220.327V104.923H219.605V104.559C219.878 104.559 220.078 104.521 220.207 104.444C220.337 104.365 220.41 104.218 220.426 104.002H220.841V107.593H221.547V108ZM223.359 104.396C223.263 104.396 223.166 104.407 223.07 104.431C222.974 104.454 222.879 104.484 222.786 104.521C222.701 104.557 222.626 104.595 222.561 104.634C222.499 104.673 222.443 104.71 222.393 104.744H222.361V104.179C222.477 104.117 222.634 104.06 222.832 104.01C223.032 103.959 223.221 103.933 223.402 103.933C223.582 103.933 223.739 103.952 223.873 103.989C224.008 104.025 224.13 104.081 224.239 104.158C224.357 104.243 224.445 104.347 224.504 104.468C224.565 104.589 224.595 104.731 224.595 104.893C224.595 105.113 224.523 105.305 224.378 105.471C224.234 105.637 224.061 105.743 223.859 105.787V105.825C223.943 105.841 224.032 105.868 224.127 105.908C224.223 105.947 224.312 106.005 224.394 106.081C224.476 106.158 224.543 106.257 224.595 106.378C224.647 106.498 224.673 106.644 224.673 106.817C224.673 106.997 224.641 107.163 224.579 107.315C224.518 107.465 224.432 107.598 224.319 107.714C224.204 107.835 224.063 107.927 223.899 107.989C223.735 108.052 223.549 108.083 223.34 108.083C223.14 108.083 222.942 108.059 222.746 108.011C222.55 107.963 222.385 107.905 222.251 107.837V107.272H222.289C222.401 107.354 222.552 107.433 222.741 107.508C222.93 107.583 223.119 107.62 223.308 107.62C223.417 107.62 223.526 107.603 223.634 107.569C223.745 107.534 223.837 107.476 223.91 107.398C223.981 107.319 224.036 107.233 224.073 107.138C224.111 107.044 224.129 106.924 224.129 106.78C224.129 106.635 224.108 106.517 224.065 106.424C224.024 106.331 223.966 106.258 223.891 106.205C223.816 106.151 223.727 106.114 223.624 106.095C223.522 106.073 223.411 106.063 223.292 106.063H223.065V105.619H223.241C223.482 105.619 223.677 105.561 223.827 105.447C223.979 105.333 224.055 105.167 224.055 104.95C224.055 104.85 224.035 104.764 223.996 104.693C223.956 104.62 223.906 104.562 223.846 104.519C223.778 104.472 223.703 104.44 223.621 104.422C223.539 104.405 223.452 104.396 223.359 104.396Z" fill="#8C99B2"/>
<path d="M237.547 108H235.605V107.593H236.327V104.923H235.605V104.559C235.878 104.559 236.078 104.521 236.207 104.444C236.337 104.365 236.41 104.218 236.426 104.002H236.841V107.593H237.547V108ZM240.847 106.63H240.373V108H239.859V106.63H238.099V106.068L239.881 104.016H240.373V106.202H240.847V106.63ZM239.859 106.202V104.645L238.516 106.202H239.859Z" fill="#8C99B2"/>
<path d="M252.547 108H250.605V107.593H251.327V104.923H250.605V104.559C250.878 104.559 251.078 104.521 251.207 104.444C251.337 104.365 251.41 104.218 251.426 104.002H251.841V107.593H252.547V108ZM255.697 106.732C255.697 106.924 255.666 107.103 255.603 107.267C255.542 107.431 255.457 107.573 255.346 107.692C255.234 107.814 255.094 107.909 254.926 107.979C254.76 108.048 254.574 108.083 254.367 108.083C254.176 108.083 253.988 108.062 253.802 108.019C253.619 107.978 253.459 107.923 253.323 107.856V107.291H253.361C253.402 107.321 253.461 107.356 253.537 107.395C253.614 107.433 253.699 107.468 253.792 107.502C253.897 107.54 253.993 107.569 254.081 107.591C254.168 107.61 254.266 107.62 254.375 107.62C254.482 107.62 254.586 107.601 254.688 107.564C254.79 107.525 254.877 107.462 254.95 107.377C255.016 107.298 255.066 107.206 255.1 107.101C255.136 106.996 255.154 106.872 255.154 106.729C255.154 106.588 255.134 106.472 255.095 106.381C255.057 106.29 255.002 106.215 254.929 106.156C254.852 106.089 254.758 106.041 254.645 106.015C254.535 105.986 254.411 105.972 254.273 105.972C254.129 105.972 253.983 105.983 253.837 106.007C253.691 106.028 253.574 106.048 253.487 106.068V104.016H255.673V104.484H254.003V105.544C254.067 105.536 254.131 105.531 254.193 105.528C254.255 105.524 254.312 105.522 254.364 105.522C254.568 105.522 254.74 105.539 254.881 105.573C255.022 105.607 255.157 105.673 255.287 105.771C255.419 105.871 255.52 105.996 255.59 106.146C255.661 106.296 255.697 106.491 255.697 106.732Z" fill="#8C99B2"/>
<path d="M268.547 108H266.605V107.593H267.327V104.923H266.605V104.559C266.878 104.559 267.078 104.521 267.207 104.444C267.337 104.365 267.41 104.218 267.426 104.002H267.841V107.593H268.547V108ZM271.804 106.708C271.804 106.913 271.77 107.102 271.702 107.275C271.634 107.448 271.543 107.592 271.429 107.708C271.31 107.831 271.176 107.925 271.028 107.989C270.88 108.052 270.717 108.083 270.538 108.083C270.358 108.083 270.194 108.053 270.046 107.992C269.9 107.931 269.77 107.841 269.658 107.722C269.52 107.577 269.413 107.385 269.334 107.144C269.257 106.901 269.219 106.603 269.219 106.25C269.219 105.904 269.255 105.592 269.326 105.314C269.397 105.033 269.507 104.79 269.655 104.583C269.8 104.381 269.986 104.224 270.214 104.112C270.443 103.998 270.707 103.941 271.006 103.941C271.096 103.941 271.179 103.945 271.255 103.954C271.332 103.963 271.4 103.977 271.459 103.997V104.508H271.435C271.386 104.481 271.317 104.457 271.226 104.436C271.135 104.413 271.038 104.401 270.934 104.401C270.602 104.401 270.334 104.513 270.129 104.738C269.925 104.961 269.805 105.293 269.768 105.734C269.894 105.644 270.024 105.576 270.158 105.528C270.292 105.479 270.438 105.455 270.597 105.455C270.752 105.455 270.888 105.471 271.004 105.503C271.121 105.534 271.244 105.596 271.37 105.691C271.517 105.801 271.625 105.941 271.697 106.111C271.768 106.28 271.804 106.479 271.804 106.708ZM271.261 106.729C271.261 106.565 271.239 106.428 271.196 106.317C271.154 106.206 271.084 106.112 270.988 106.033C270.918 105.976 270.839 105.939 270.75 105.921C270.662 105.903 270.572 105.894 270.479 105.894C270.354 105.894 270.233 105.913 270.115 105.95C269.998 105.988 269.882 106.042 269.768 106.114C269.764 106.153 269.761 106.191 269.759 106.229C269.758 106.264 269.757 106.31 269.757 106.365C269.757 106.642 269.784 106.865 269.837 107.034C269.892 107.204 269.96 107.332 270.04 107.419C270.117 107.503 270.196 107.562 270.276 107.596C270.358 107.63 270.446 107.647 270.541 107.647C270.755 107.647 270.928 107.57 271.06 107.417C271.194 107.263 271.261 107.034 271.261 106.729Z" fill="#8C99B2"/>
<path d="M283.547 108H281.605V107.593H282.327V104.923H281.605V104.559C281.878 104.559 282.078 104.521 282.207 104.444C282.337 104.365 282.41 104.218 282.426 104.002H282.841V107.593H283.547V108ZM286.785 104.612L285.062 108H284.492L286.317 104.484H284.256V104.016H286.785V104.612Z" fill="#8C99B2"/>
<path d="M299.547 108H297.605V107.593H298.327V104.923H297.605V104.559C297.878 104.559 298.078 104.521 298.207 104.444C298.337 104.365 298.41 104.218 298.426 104.002H298.841V107.593H299.547V108ZM302.162 104.944C302.162 104.766 302.102 104.617 301.982 104.497C301.863 104.378 301.697 104.318 301.485 104.318C301.29 104.318 301.131 104.372 301.006 104.479C300.883 104.586 300.821 104.73 300.821 104.912C300.821 105.044 300.852 105.156 300.915 105.247C300.979 105.338 301.074 105.42 301.201 105.493C301.256 105.523 301.34 105.565 301.453 105.619C301.567 105.672 301.67 105.714 301.763 105.744C301.918 105.625 302.023 105.503 302.079 105.378C302.134 105.251 302.162 105.107 302.162 104.944ZM302.237 106.94C302.237 106.776 302.204 106.646 302.14 106.55C302.076 106.453 301.952 106.355 301.768 106.255C301.708 106.221 301.626 106.185 301.525 106.146C301.425 106.106 301.312 106.06 301.185 106.007C301.037 106.105 300.924 106.226 300.845 106.37C300.767 106.513 300.727 106.676 300.727 106.86C300.727 107.101 300.8 107.3 300.944 107.457C301.09 107.614 301.273 107.692 301.493 107.692C301.717 107.692 301.898 107.625 302.033 107.492C302.169 107.356 302.237 107.172 302.237 106.94ZM301.487 108.091C301.289 108.091 301.109 108.062 300.947 108.003C300.784 107.944 300.646 107.859 300.532 107.748C300.42 107.641 300.334 107.515 300.275 107.369C300.218 107.22 300.19 107.064 300.19 106.9C300.19 106.684 300.247 106.486 300.361 106.306C300.477 106.124 300.644 105.98 300.864 105.873V105.857C300.668 105.743 300.522 105.618 300.428 105.482C300.333 105.347 300.286 105.177 300.286 104.974C300.286 104.674 300.399 104.424 300.626 104.224C300.852 104.025 301.139 103.925 301.487 103.925C301.849 103.925 302.139 104.02 302.357 104.211C302.576 104.4 302.686 104.643 302.686 104.939C302.686 105.117 302.633 105.294 302.528 105.469C302.425 105.644 302.275 105.78 302.079 105.878V105.894C302.311 106.003 302.486 106.135 302.606 106.29C302.725 106.445 302.785 106.645 302.785 106.89C302.785 107.23 302.661 107.516 302.413 107.746C302.167 107.976 301.858 108.091 301.487 108.091Z" fill="#8C99B2"/>
<path d="M315.547 108H313.605V107.593H314.327V104.923H313.605V104.559C313.878 104.559 314.078 104.521 314.207 104.444C314.337 104.365 314.41 104.218 314.426 104.002H314.841V107.593H315.547V108ZM318.218 105.653C318.218 105.382 318.193 105.162 318.143 104.992C318.093 104.821 318.024 104.689 317.937 104.596C317.858 104.511 317.779 104.452 317.699 104.42C317.618 104.388 317.53 104.372 317.434 104.372C317.214 104.372 317.04 104.45 316.909 104.607C316.779 104.764 316.714 104.992 316.714 105.289C316.714 105.457 316.735 105.595 316.778 105.704C316.821 105.813 316.891 105.907 316.987 105.985C317.055 106.04 317.131 106.078 317.217 106.098C317.303 106.115 317.395 106.124 317.493 106.124C317.607 106.124 317.73 106.105 317.862 106.065C317.994 106.024 318.109 105.971 318.207 105.905C318.209 105.878 318.211 105.843 318.212 105.801C318.216 105.756 318.218 105.707 318.218 105.653ZM316.171 105.311C316.171 105.106 316.204 104.918 316.27 104.749C316.338 104.579 316.429 104.433 316.545 104.31C316.656 104.192 316.791 104.1 316.949 104.034C317.11 103.968 317.272 103.935 317.436 103.935C317.62 103.935 317.786 103.967 317.934 104.029C318.084 104.09 318.213 104.178 318.322 104.294C318.459 104.44 318.566 104.632 318.641 104.869C318.717 105.107 318.756 105.406 318.756 105.768C318.756 106.098 318.718 106.411 318.643 106.708C318.57 107.002 318.461 107.246 318.317 107.441C318.163 107.648 317.979 107.806 317.763 107.914C317.549 108.023 317.284 108.078 316.968 108.078C316.897 108.078 316.821 108.073 316.741 108.064C316.66 108.057 316.586 108.043 316.516 108.021V107.51H316.543C316.587 107.535 316.657 107.559 316.751 107.583C316.846 107.606 316.942 107.617 317.04 107.617C317.39 107.617 317.665 107.502 317.865 107.272C318.064 107.042 318.178 106.713 318.204 106.285C318.062 106.381 317.925 106.452 317.795 106.496C317.667 106.541 317.527 106.563 317.375 106.563C317.227 106.563 317.092 106.547 316.971 106.515C316.85 106.483 316.727 106.42 316.604 106.328C316.462 106.219 316.354 106.081 316.281 105.916C316.207 105.748 316.171 105.546 316.171 105.311Z" fill="#8C99B2"/>
<path d="M14 13V110" stroke="#8C99B2" stroke-width="0.5"/>
<path d="M316 101H14" stroke="#8C99B2" stroke-width="0.5"/>
<path opacity="0.1" d="M30 13V110" stroke="#8C99B2"/>
<path opacity="0.1" d="M45 13V110" stroke="#8C99B2"/>
<path opacity="0.1" d="M60 13V110" stroke="#8C99B2"/>
<path opacity="0.1" d="M76 13V110" stroke="#8C99B2"/>
<path opacity="0.1" d="M91 13V110" stroke="#8C99B2"/>
<path opacity="0.1" d="M107 13V110" stroke="#8C99B2"/>
<path opacity="0.1" d="M122 13V110" stroke="#8C99B2"/>
<path opacity="0.1" d="M138 13V110" stroke="#8C99B2"/>
<path opacity="0.1" d="M153 13V110" stroke="#8C99B2"/>
<path opacity="0.1" d="M169 13V110" stroke="#8C99B2"/>
<path opacity="0.1" d="M185 13V110" stroke="#8C99B2"/>
<path opacity="0.1" d="M200 13V110" stroke="#8C99B2"/>
<path opacity="0.1" d="M215 13V110" stroke="#8C99B2"/>
<path opacity="0.1" d="M230 13V110" stroke="#8C99B2"/>
<path opacity="0.1" d="M247 13V110" stroke="#8C99B2"/>
<path opacity="0.1" d="M262 13V110" stroke="#8C99B2"/>
<path opacity="0.1" d="M277 13V110" stroke="#8C99B2"/>
<path opacity="0.1" d="M293 13V110" stroke="#8C99B2"/>
<path opacity="0.1" d="M308 13V110" stroke="#8C99B2"/>
</svg>
