<svg width="324" height="117" viewBox="0 0 324 117" fill="none" xmlns="http://www.w3.org/2000/svg">
<path d="M121.17 25.6202H316.79V15.0502C315.43 13.8702 312.95 12.0502 311.6 10.9102H126.39L121.19 15.4302L121.17 25.6202Z" fill="#EBF1F9"/>
<path d="M222 26L222 105" stroke="#D7E2F2" stroke-width="0.5" stroke-miterlimit="10"/>
<path d="M316 26L316 105" stroke="#D7E2F2" stroke-width="0.5" stroke-miterlimit="10"/>
<path d="M121 26L121 105" stroke="#D7E2F2" stroke-width="0.5" stroke-miterlimit="10"/>
<path d="M222.1 38.9004H121.29" stroke="#D7E2F2" stroke-width="0.5" stroke-miterlimit="10"/>
<path d="M222.1 52.1309H121.29" stroke="#D7E2F2" stroke-width="0.5" stroke-miterlimit="10"/>
<path d="M222.1 65.7305H121.29" stroke="#D7E2F2" stroke-width="0.5" stroke-miterlimit="10"/>
<path d="M222.1 78.9609H121.29" stroke="#D7E2F2" stroke-width="0.5" stroke-miterlimit="10"/>
<path d="M222.1 92.1895H121.29" stroke="#D7E2F2" stroke-width="0.5" stroke-miterlimit="10"/>
<path d="M317 105H121" stroke="#D7E2F2" stroke-width="0.5" stroke-miterlimit="10"/>
<path d="M6.00004 26H114V15.2216C112.685 14.0184 110.264 12.1625 108.949 11H11.0907L6.01996 15.6091L6.00004 26Z" fill="#EBF1F9"/>
<path d="M23.6858 19.9004H23.0854V17.6899H21.0083V19.9004H20.4079V15.3854H21.0083V17.1562H23.0854V15.3854H23.6858V19.9004ZM26.4511 19.0665V18.1265C26.3157 18.1387 26.1439 18.1558 25.9357 18.1781C25.7295 18.1983 25.5627 18.2276 25.4354 18.266C25.2837 18.3125 25.1584 18.3843 25.0594 18.4813C24.9603 18.5763 24.9108 18.7097 24.9108 18.8816C24.9108 19.0756 24.9654 19.2222 25.0745 19.3212C25.1837 19.4203 25.3434 19.4698 25.5536 19.4698C25.7335 19.4698 25.8963 19.4314 26.0418 19.3546C26.1873 19.2758 26.3238 19.1797 26.4511 19.0665ZM26.4511 19.5396C26.4047 19.5739 26.342 19.6224 26.2631 19.6851C26.1863 19.7457 26.1115 19.7943 26.0388 19.8306C25.9377 19.8832 25.8396 19.9236 25.7446 19.9519C25.6517 19.9802 25.5203 19.9944 25.3504 19.9944C25.211 19.9944 25.0786 19.9681 24.9532 19.9156C24.8279 19.863 24.7177 19.7892 24.6227 19.6942C24.5317 19.6012 24.459 19.487 24.4044 19.3516C24.3498 19.2141 24.3225 19.0696 24.3225 18.9179C24.3225 18.6835 24.3721 18.4843 24.4711 18.3206C24.5702 18.1548 24.7268 18.0234 24.9411 17.9264C25.1311 17.8395 25.3555 17.7799 25.6143 17.7475C25.873 17.7131 26.152 17.6879 26.4511 17.6717V17.5625C26.4511 17.4291 26.4309 17.322 26.3905 17.2411C26.3501 17.1582 26.2935 17.0946 26.2207 17.0501C26.1479 17.0036 26.059 16.9733 25.9539 16.9591C25.8487 16.943 25.7406 16.9349 25.6294 16.9349C25.498 16.9349 25.3434 16.9551 25.1655 16.9955C24.9876 17.0339 24.8097 17.0905 24.6318 17.1653H24.5985V16.5862C24.7036 16.5558 24.8542 16.5225 25.0503 16.4861C25.2463 16.4497 25.4404 16.4315 25.6324 16.4315C25.8649 16.4315 26.061 16.4497 26.2207 16.4861C26.3804 16.5225 26.5239 16.5882 26.6513 16.6832C26.7746 16.7762 26.8666 16.8965 26.9272 17.044C26.9879 17.1916 27.0182 17.3715 27.0182 17.5838V19.9004H26.4511V19.5396ZM30.4961 19.9004H29.9321V17.3745L28.3372 19.9004H27.8217V16.5134H28.3857V18.9998L29.9625 16.5134H30.4961V19.9004ZM34.4623 19.9004H33.8983V17.2381L33.0857 18.9665H32.6611L31.8546 17.2381V19.9004H31.3209V16.5134H32.0092L32.9007 18.3934L33.7618 16.5134H34.4623V19.9004ZM36.7577 19.9792C36.2179 19.9792 35.7985 19.8276 35.4993 19.5244C35.2022 19.2192 35.0536 18.7866 35.0536 18.2266C35.0536 17.6747 35.1981 17.2361 35.4872 16.9106C35.7763 16.5831 36.1543 16.4194 36.6212 16.4194C36.8315 16.4194 37.0174 16.4497 37.1792 16.5104C37.3409 16.571 37.4824 16.666 37.6037 16.7954C37.725 16.9248 37.818 17.0835 37.8826 17.2715C37.9473 17.4574 37.9797 17.6859 37.9797 17.9567V18.266H35.6327C35.6327 18.6602 35.7318 18.9614 35.9299 19.1696C36.128 19.3778 36.4019 19.4819 36.7516 19.4819C36.877 19.4819 36.9993 19.4678 37.1185 19.4395C37.2398 19.4112 37.349 19.3748 37.446 19.3303C37.5491 19.2838 37.636 19.2394 37.7068 19.1969C37.7775 19.1524 37.8361 19.111 37.8826 19.0726H37.916V19.6942C37.8493 19.7205 37.7664 19.7538 37.6674 19.7943C37.5683 19.8327 37.4794 19.863 37.4005 19.8852C37.2893 19.9156 37.1883 19.9388 37.0973 19.955C37.0083 19.9711 36.8951 19.9792 36.7577 19.9792ZM37.4248 17.8294C37.4207 17.6757 37.4025 17.5433 37.3702 17.4322C37.3379 17.321 37.2914 17.227 37.2307 17.1502C37.164 17.0653 37.0781 17.0006 36.973 16.9561C36.8699 16.9116 36.7415 16.8894 36.5879 16.8894C36.4363 16.8894 36.3069 16.9126 36.1998 16.9591C36.0946 17.0036 35.9986 17.0693 35.9117 17.1562C35.8268 17.2452 35.7621 17.3442 35.7176 17.4534C35.6732 17.5605 35.6449 17.6859 35.6327 17.8294H37.4248ZM41.2302 19.9004H40.6602V18.3752H39.1259V19.9004H38.5558V16.5134H39.1259V17.884H40.6602V16.5134H41.2302V19.9004ZM44.8416 18.2084C44.8416 18.7785 44.7041 19.2192 44.4292 19.5305C44.1543 19.8397 43.7884 19.9944 43.3316 19.9944C42.8605 19.9944 42.4896 19.8347 42.2187 19.5153C41.9499 19.1939 41.8154 18.7583 41.8154 18.2084C41.8154 17.6424 41.9539 17.2027 42.2309 16.8894C42.5098 16.5761 42.8767 16.4194 43.3316 16.4194C43.7884 16.4194 44.1543 16.5761 44.4292 16.8894C44.7041 17.2007 44.8416 17.6404 44.8416 18.2084ZM44.2534 18.2084C44.2534 17.7697 44.1735 17.4443 44.0138 17.232C43.8541 17.0178 43.6267 16.9106 43.3316 16.9106C43.0344 16.9106 42.805 17.0178 42.6432 17.232C42.4835 17.4443 42.4037 17.7697 42.4037 18.2084C42.4037 18.6329 42.4835 18.9553 42.6432 19.1757C42.805 19.394 43.0344 19.5032 43.3316 19.5032C43.6247 19.5032 43.8511 19.396 44.0108 19.1818C44.1725 18.9655 44.2534 18.641 44.2534 18.2084ZM48.0831 18.8755C48.0831 19.0392 48.0517 19.1848 47.9891 19.3121C47.9264 19.4375 47.8405 19.5426 47.7313 19.6275C47.5939 19.7346 47.4493 19.8074 47.2977 19.8458C47.1481 19.8822 46.9682 19.9004 46.758 19.9004H45.4268V16.5134H46.67C46.9187 16.5134 47.1006 16.5215 47.2158 16.5377C47.3311 16.5518 47.4453 16.5902 47.5585 16.6529C47.6777 16.7176 47.7657 16.8035 47.8223 16.9106C47.8789 17.0178 47.9072 17.1451 47.9072 17.2927C47.9072 17.4544 47.8627 17.5999 47.7738 17.7293C47.6848 17.8567 47.5666 17.9557 47.419 18.0265L47.4342 18.0477C47.6181 18.0942 47.7717 18.1882 47.8951 18.3297C48.0204 18.4712 48.0831 18.6531 48.0831 18.8755ZM47.322 17.3806C47.322 17.3038 47.3088 17.2371 47.2825 17.1805C47.2583 17.1239 47.2148 17.0794 47.1522 17.0471C47.0794 17.0087 46.9975 16.9864 46.9065 16.9804C46.8176 16.9723 46.6933 16.9682 46.5336 16.9682H45.9908V17.8961H46.6458C46.7853 17.8961 46.8843 17.89 46.9429 17.8779C47.0016 17.8637 47.0662 17.8354 47.137 17.793C47.2037 17.7526 47.2512 17.698 47.2795 17.6293C47.3078 17.5605 47.322 17.4776 47.322 17.3806ZM47.4948 18.8785C47.4948 18.7633 47.4776 18.6713 47.4433 18.6026C47.4109 18.5318 47.3381 18.4692 47.2249 18.4146C47.1542 18.3802 47.0784 18.359 46.9975 18.3509C46.9167 18.3428 46.8045 18.3388 46.6609 18.3388H45.9908V19.4456H46.4851C46.6892 19.4456 46.8479 19.4375 46.9611 19.4213C47.0743 19.4051 47.1714 19.3728 47.2522 19.3243C47.3371 19.2717 47.3988 19.2111 47.4372 19.1423C47.4756 19.0736 47.4948 18.9857 47.4948 18.8785ZM50.5755 19.0665V18.1265C50.4401 18.1387 50.2683 18.1558 50.0601 18.1781C49.8539 18.1983 49.6871 18.2276 49.5597 18.266C49.4081 18.3125 49.2828 18.3843 49.1837 18.4813C49.0847 18.5763 49.0352 18.7097 49.0352 18.8816C49.0352 19.0756 49.0898 19.2222 49.1989 19.3212C49.3081 19.4203 49.4678 19.4698 49.678 19.4698C49.8579 19.4698 50.0206 19.4314 50.1662 19.3546C50.3117 19.2758 50.4482 19.1797 50.5755 19.0665ZM50.5755 19.5396C50.529 19.5739 50.4664 19.6224 50.3875 19.6851C50.3107 19.7457 50.2359 19.7943 50.1632 19.8306C50.0621 19.8832 49.964 19.9236 49.869 19.9519C49.776 19.9802 49.6446 19.9944 49.4748 19.9944C49.3354 19.9944 49.203 19.9681 49.0776 19.9156C48.9523 19.863 48.8421 19.7892 48.7471 19.6942C48.6561 19.6012 48.5834 19.487 48.5288 19.3516C48.4742 19.2141 48.4469 19.0696 48.4469 18.9179C48.4469 18.6835 48.4964 18.4843 48.5955 18.3206C48.6946 18.1548 48.8512 18.0234 49.0655 17.9264C49.2555 17.8395 49.4799 17.7799 49.7386 17.7475C49.9974 17.7131 50.2764 17.6879 50.5755 17.6717V17.5625C50.5755 17.4291 50.5553 17.322 50.5149 17.2411C50.4745 17.1582 50.4179 17.0946 50.3451 17.0501C50.2723 17.0036 50.1834 16.9733 50.0783 16.9591C49.9731 16.943 49.865 16.9349 49.7538 16.9349C49.6224 16.9349 49.4678 16.9551 49.2899 16.9955C49.112 17.0339 48.9341 17.0905 48.7562 17.1653H48.7229V16.5862C48.828 16.5558 48.9786 16.5225 49.1747 16.4861C49.3707 16.4497 49.5648 16.4315 49.7568 16.4315C49.9893 16.4315 50.1854 16.4497 50.3451 16.4861C50.5048 16.5225 50.6483 16.5882 50.7757 16.6832C50.899 16.7762 50.991 16.8965 51.0516 17.044C51.1122 17.1916 51.1426 17.3715 51.1426 17.5838V19.9004H50.5755V19.5396ZM54.6205 19.9004H54.0505V18.3752H52.5162V19.9004H51.9461V16.5134H52.5162V17.884H54.0505V16.5134H54.6205V19.9004ZM58.1197 19.9004H57.5557V17.3745L55.9608 19.9004H55.4453V16.5134H56.0093V18.9998L57.5861 16.5134H58.1197V19.9004ZM60.4151 19.9792C59.8754 19.9792 59.4559 19.8276 59.1567 19.5244C58.8596 19.2192 58.711 18.7866 58.711 18.2266C58.711 17.6747 58.8555 17.2361 59.1446 16.9106C59.4337 16.5831 59.8117 16.4194 60.2787 16.4194C60.4889 16.4194 60.6749 16.4497 60.8366 16.5104C60.9983 16.571 61.1398 16.666 61.2611 16.7954C61.3824 16.9248 61.4754 17.0835 61.5401 17.2715C61.6048 17.4574 61.6371 17.6859 61.6371 17.9567V18.266H59.2902C59.2902 18.6602 59.3892 18.9614 59.5873 19.1696C59.7854 19.3778 60.0593 19.4819 60.4091 19.4819C60.5344 19.4819 60.6567 19.4678 60.776 19.4395C60.8972 19.4112 61.0064 19.3748 61.1034 19.3303C61.2065 19.2838 61.2935 19.2394 61.3642 19.1969C61.435 19.1524 61.4936 19.111 61.5401 19.0726H61.5734V19.6942C61.5067 19.7205 61.4238 19.7538 61.3248 19.7943C61.2257 19.8327 61.1368 19.863 61.0579 19.8852C60.9468 19.9156 60.8457 19.9388 60.7547 19.955C60.6658 19.9711 60.5526 19.9792 60.4151 19.9792ZM61.0822 17.8294C61.0782 17.6757 61.06 17.5433 61.0276 17.4322C60.9953 17.321 60.9488 17.227 60.8881 17.1502C60.8214 17.0653 60.7355 17.0006 60.6304 16.9561C60.5273 16.9116 60.3989 16.8894 60.2453 16.8894C60.0937 16.8894 59.9643 16.9126 59.8572 16.9591C59.7521 17.0036 59.656 17.0693 59.5691 17.1562C59.4842 17.2452 59.4195 17.3442 59.3751 17.4534C59.3306 17.5605 59.3023 17.6859 59.2902 17.8294H61.0822ZM65.5002 19.9762C65.2677 19.9762 65.0544 19.9408 64.8604 19.8701C64.6663 19.7973 64.4995 19.6881 64.36 19.5426C64.2206 19.397 64.1124 19.2141 64.0356 18.9938C63.9588 18.7714 63.9204 18.5106 63.9204 18.2114C63.9204 17.9143 63.9598 17.6576 64.0386 17.4413C64.1195 17.225 64.2266 17.043 64.36 16.8955C64.4935 16.7479 64.6592 16.6347 64.8573 16.5558C65.0575 16.475 65.2717 16.4346 65.5002 16.4346C65.6861 16.4346 65.865 16.4608 66.0369 16.5134C66.2107 16.566 66.3654 16.6266 66.5008 16.6953V17.3351H66.4674C66.427 17.3008 66.3745 17.2613 66.3098 17.2169C66.2471 17.1724 66.1703 17.1269 66.0793 17.0804C66.0005 17.04 65.9075 17.0046 65.8004 16.9743C65.6932 16.944 65.5901 16.9288 65.4911 16.9288C65.1959 16.9288 64.9584 17.041 64.7785 17.2654C64.6006 17.4877 64.5117 17.8031 64.5117 18.2114C64.5117 18.6117 64.5976 18.924 64.7694 19.1484C64.9432 19.3708 65.1838 19.4819 65.4911 19.4819C65.677 19.4819 65.8539 19.4435 66.0217 19.3667C66.1895 19.2899 66.3381 19.1908 66.4674 19.0696H66.5008V19.7094C66.4442 19.7356 66.3734 19.768 66.2885 19.8064C66.2036 19.8428 66.1268 19.8701 66.0581 19.8883C65.9611 19.9166 65.8741 19.9378 65.7973 19.9519C65.7205 19.9681 65.6215 19.9762 65.5002 19.9762ZM69.6968 19.9004H69.1267V17.0046H67.5924V19.9004H67.0223V16.5134H69.6968V19.9004ZM73.3627 18.1174C73.3627 18.6814 73.2273 19.1312 72.9564 19.4668C72.6875 19.8003 72.3469 19.9671 71.9345 19.9671C71.7668 19.9671 71.6182 19.9479 71.4888 19.9095C71.3594 19.8711 71.227 19.8114 71.0916 19.7306V21.1497H70.5215V16.5134H71.0916V16.8682C71.2331 16.7408 71.3898 16.6347 71.5616 16.5498C71.7354 16.4629 71.9244 16.4194 72.1286 16.4194C72.5167 16.4194 72.8189 16.573 73.0352 16.8803C73.2536 17.1876 73.3627 17.5999 73.3627 18.1174ZM72.7745 18.1811C72.7745 17.795 72.7128 17.4958 72.5895 17.2836C72.4662 17.0693 72.2661 16.9622 71.9891 16.9622C71.8274 16.9622 71.6707 16.9985 71.5191 17.0713C71.3695 17.1421 71.227 17.2341 71.0916 17.3473V19.2667C71.2412 19.3394 71.3685 19.389 71.4736 19.4152C71.5808 19.4415 71.7031 19.4547 71.8405 19.4547C72.1357 19.4547 72.3651 19.3465 72.5289 19.1302C72.6926 18.9139 72.7745 18.5975 72.7745 18.1811ZM75.8461 19.0665V18.1265C75.7107 18.1387 75.5389 18.1558 75.3306 18.1781C75.1244 18.1983 74.9577 18.2276 74.8303 18.266C74.6787 18.3125 74.5534 18.3843 74.4543 18.4813C74.3553 18.5763 74.3057 18.7097 74.3057 18.8816C74.3057 19.0756 74.3603 19.2222 74.4695 19.3212C74.5786 19.4203 74.7383 19.4698 74.9486 19.4698C75.1285 19.4698 75.2912 19.4314 75.4368 19.3546C75.5823 19.2758 75.7188 19.1797 75.8461 19.0665ZM75.8461 19.5396C75.7996 19.5739 75.737 19.6224 75.6581 19.6851C75.5813 19.7457 75.5065 19.7943 75.4337 19.8306C75.3327 19.8832 75.2346 19.9236 75.1396 19.9519C75.0466 19.9802 74.9152 19.9944 74.7454 19.9944C74.6059 19.9944 74.4735 19.9681 74.3482 19.9156C74.2229 19.863 74.1127 19.7892 74.0177 19.6942C73.9267 19.6012 73.8539 19.487 73.7994 19.3516C73.7448 19.2141 73.7175 19.0696 73.7175 18.9179C73.7175 18.6835 73.767 18.4843 73.8661 18.3206C73.9651 18.1548 74.1218 18.0234 74.3361 17.9264C74.5261 17.8395 74.7505 17.7799 75.0092 17.7475C75.268 17.7131 75.5469 17.6879 75.8461 17.6717V17.5625C75.8461 17.4291 75.8259 17.322 75.7855 17.2411C75.745 17.1582 75.6884 17.0946 75.6157 17.0501C75.5429 17.0036 75.454 16.9733 75.3488 16.9591C75.2437 16.943 75.1356 16.9349 75.0244 16.9349C74.893 16.9349 74.7383 16.9551 74.5605 16.9955C74.3826 17.0339 74.2047 17.0905 74.0268 17.1653H73.9934V16.5862C74.0985 16.5558 74.2491 16.5225 74.4452 16.4861C74.6413 16.4497 74.8354 16.4315 75.0274 16.4315C75.2599 16.4315 75.456 16.4497 75.6157 16.4861C75.7754 16.5225 75.9189 16.5882 76.0462 16.6832C76.1696 16.7762 76.2615 16.8965 76.3222 17.044C76.3828 17.1916 76.4131 17.3715 76.4131 17.5838V19.9004H75.8461V19.5396ZM79.8729 18.8755C79.8729 19.0392 79.8416 19.1848 79.7789 19.3121C79.7163 19.4375 79.6303 19.5426 79.5212 19.6275C79.3837 19.7346 79.2392 19.8074 79.0876 19.8458C78.938 19.8822 78.7581 19.9004 78.5478 19.9004H77.2167V16.5134H78.4599C78.7085 16.5134 78.8905 16.5215 79.0057 16.5377C79.1209 16.5518 79.2351 16.5902 79.3483 16.6529C79.4676 16.7176 79.5555 16.8035 79.6121 16.9106C79.6687 17.0178 79.697 17.1451 79.697 17.2927C79.697 17.4544 79.6526 17.5999 79.5636 17.7293C79.4747 17.8567 79.3564 17.9557 79.2089 18.0265L79.224 18.0477C79.408 18.0942 79.5616 18.1882 79.6849 18.3297C79.8102 18.4712 79.8729 18.6531 79.8729 18.8755ZM79.1118 17.3806C79.1118 17.3038 79.0987 17.2371 79.0724 17.1805C79.0481 17.1239 79.0047 17.0794 78.942 17.0471C78.8692 17.0087 78.7874 16.9864 78.6964 16.9804C78.6075 16.9723 78.4831 16.9682 78.3234 16.9682H77.7807V17.8961H78.4356C78.5751 17.8961 78.6742 17.89 78.7328 17.8779C78.7914 17.8637 78.8561 17.8354 78.9269 17.793C78.9936 17.7526 79.0411 17.698 79.0694 17.6293C79.0977 17.5605 79.1118 17.4776 79.1118 17.3806ZM79.2847 18.8785C79.2847 18.7633 79.2675 18.6713 79.2331 18.6026C79.2008 18.5318 79.128 18.4692 79.0148 18.4146C78.944 18.3802 78.8682 18.359 78.7874 18.3509C78.7065 18.3428 78.5943 18.3388 78.4508 18.3388H77.7807V19.4456H78.2749C78.4791 19.4456 78.6378 19.4375 78.751 19.4213C78.8642 19.4051 78.9612 19.3728 79.0421 19.3243C79.127 19.2717 79.1886 19.2111 79.2271 19.1423C79.2655 19.0736 79.2847 18.9857 79.2847 18.8785ZM83.2599 18.2084C83.2599 18.7785 83.1225 19.2192 82.8475 19.5305C82.5726 19.8397 82.2067 19.9944 81.7499 19.9944C81.2789 19.9944 80.9079 19.8347 80.637 19.5153C80.3682 19.1939 80.2338 18.7583 80.2338 18.2084C80.2338 17.6424 80.3722 17.2027 80.6492 16.8894C80.9281 16.5761 81.295 16.4194 81.7499 16.4194C82.2067 16.4194 82.5726 16.5761 82.8475 16.8894C83.1225 17.2007 83.2599 17.6404 83.2599 18.2084ZM82.6717 18.2084C82.6717 17.7697 82.5918 17.4443 82.4321 17.232C82.2724 17.0178 82.045 16.9106 81.7499 16.9106C81.4527 16.9106 81.2233 17.0178 81.0615 17.232C80.9019 17.4443 80.822 17.7697 80.822 18.2084C80.822 18.6329 80.9019 18.9553 81.0615 19.1757C81.2233 19.394 81.4527 19.5032 81.7499 19.5032C82.043 19.5032 82.2694 19.396 82.4291 19.1818C82.5908 18.9655 82.6717 18.641 82.6717 18.2084ZM86.3922 19.9004H85.8221V18.5783C85.6443 18.637 85.4714 18.6824 85.3036 18.7148C85.1359 18.7471 84.9701 18.7633 84.8063 18.7633C84.6628 18.7633 84.5223 18.7451 84.3849 18.7087C84.2494 18.6703 84.1322 18.6087 84.0331 18.5238C83.9341 18.4389 83.8573 18.3307 83.8027 18.1993C83.7501 18.0659 83.7238 17.9092 83.7238 17.7293V16.5134H84.2939V17.4322C84.2939 17.5817 84.3 17.701 84.3121 17.79C84.3242 17.8769 84.3576 17.9618 84.4122 18.0447C84.4587 18.1154 84.5284 18.17 84.6214 18.2084C84.7164 18.2468 84.8407 18.266 84.9943 18.266C85.1278 18.266 85.2703 18.2529 85.4219 18.2266C85.5755 18.2003 85.7089 18.169 85.8221 18.1326V16.5134H86.3922V19.9004ZM89.8914 19.9004H89.3213V18.3752H87.787V19.9004H87.217V16.5134H87.787V17.884H89.3213V16.5134H89.8914V19.9004ZM93.3906 19.9004H92.8266V17.3745L91.2316 19.9004H90.7162V16.5134H91.2802V18.9998L92.8569 16.5134H93.3906V19.9004ZM96.9413 19.9004H96.2318L95.0704 18.3388H94.7854V19.9004H94.2153V16.5134H94.7854V17.9871C94.933 17.985 95.0583 17.9547 95.1614 17.8961C95.2665 17.8354 95.3555 17.7192 95.4282 17.5474C95.4505 17.4968 95.4747 17.4382 95.501 17.3715C95.5293 17.3048 95.5516 17.2462 95.5677 17.1956C95.6567 16.947 95.78 16.7711 95.9377 16.668C96.0953 16.5649 96.3005 16.5134 96.5532 16.5134H96.7078V17.0046H96.5775C96.4178 17.0046 96.2975 17.038 96.2166 17.1047C96.1378 17.1694 96.0711 17.2886 96.0165 17.4625C95.9599 17.6383 95.8932 17.7758 95.8164 17.8749C95.7395 17.9719 95.6546 18.0467 95.5617 18.0992L96.9413 19.9004ZM99.2003 19.0665V18.1265C99.0649 18.1387 98.8931 18.1558 98.6848 18.1781C98.4787 18.1983 98.3119 18.2276 98.1845 18.266C98.0329 18.3125 97.9076 18.3843 97.8085 18.4813C97.7095 18.5763 97.66 18.7097 97.66 18.8816C97.66 19.0756 97.7145 19.2222 97.8237 19.3212C97.9329 19.4203 98.0926 19.4698 98.3028 19.4698C98.4827 19.4698 98.6454 19.4314 98.791 19.3546C98.9365 19.2758 99.073 19.1797 99.2003 19.0665ZM99.2003 19.5396C99.1538 19.5739 99.0912 19.6224 99.0123 19.6851C98.9355 19.7457 98.8607 19.7943 98.7879 19.8306C98.6869 19.8832 98.5888 19.9236 98.4938 19.9519C98.4008 19.9802 98.2694 19.9944 98.0996 19.9944C97.9601 19.9944 97.8277 19.9681 97.7024 19.9156C97.5771 19.863 97.4669 19.7892 97.3719 19.6942C97.2809 19.6012 97.2082 19.487 97.1536 19.3516C97.099 19.2141 97.0717 19.0696 97.0717 18.9179C97.0717 18.6835 97.1212 18.4843 97.2203 18.3206C97.3193 18.1548 97.476 18.0234 97.6903 17.9264C97.8803 17.8395 98.1047 17.7799 98.3634 17.7475C98.6222 17.7131 98.9011 17.6879 99.2003 17.6717V17.5625C99.2003 17.4291 99.1801 17.322 99.1397 17.2411C99.0993 17.1582 99.0426 17.0946 98.9699 17.0501C98.8971 17.0036 98.8082 16.9733 98.703 16.9591C98.5979 16.943 98.4898 16.9349 98.3786 16.9349C98.2472 16.9349 98.0926 16.9551 97.9147 16.9955C97.7368 17.0339 97.5589 17.0905 97.381 17.1653H97.3476V16.5862C97.4528 16.5558 97.6034 16.5225 97.7994 16.4861C97.9955 16.4497 98.1896 16.4315 98.3816 16.4315C98.6141 16.4315 98.8102 16.4497 98.9699 16.4861C99.1296 16.5225 99.2731 16.5882 99.4005 16.6832C99.5238 16.7762 99.6157 16.8965 99.6764 17.044C99.737 17.1916 99.7674 17.3715 99.7674 17.5838V19.9004H99.2003V19.5396Z" fill="#606580"/>
<path d="M131.151 33.8496H130.67V30.9639L129.027 33.8496H128.539V30.2144H129.02V33.0537L130.641 30.2144H131.151V33.8496ZM133.99 33.0244C133.99 33.1562 133.965 33.2734 133.915 33.376C133.864 33.4769 133.795 33.5615 133.707 33.6299C133.596 33.7161 133.48 33.7747 133.358 33.8057C133.238 33.835 133.093 33.8496 132.923 33.8496H131.852V31.1226H132.853C133.053 31.1226 133.199 31.1291 133.292 31.1421C133.385 31.1535 133.477 31.1844 133.568 31.2349C133.664 31.2869 133.735 31.3561 133.78 31.4424C133.826 31.5286 133.849 31.6312 133.849 31.75C133.849 31.8802 133.813 31.9974 133.741 32.1016C133.67 32.2041 133.575 32.2839 133.456 32.3408L133.468 32.3579C133.616 32.3953 133.74 32.471 133.839 32.585C133.94 32.6989 133.99 32.8454 133.99 33.0244ZM133.378 31.8208C133.378 31.759 133.367 31.7052 133.346 31.6597C133.326 31.6141 133.291 31.5783 133.241 31.5522C133.182 31.5213 133.116 31.5034 133.043 31.4985C132.971 31.492 132.871 31.4888 132.743 31.4888H132.306V32.2358H132.833C132.945 32.2358 133.025 32.231 133.072 32.2212C133.12 32.2098 133.172 32.187 133.229 32.1528C133.282 32.1203 133.321 32.0763 133.343 32.021C133.366 31.9657 133.378 31.8989 133.378 31.8208ZM133.517 33.0269C133.517 32.9341 133.503 32.86 133.475 32.8047C133.449 32.7477 133.391 32.6973 133.299 32.6533C133.242 32.6257 133.181 32.6086 133.116 32.6021C133.051 32.5955 132.961 32.5923 132.845 32.5923H132.306V33.4834H132.704C132.868 33.4834 132.996 33.4769 133.087 33.4639C133.178 33.4508 133.256 33.4248 133.321 33.3857C133.39 33.3434 133.439 33.2946 133.47 33.2393C133.501 33.1839 133.517 33.1131 133.517 33.0269ZM135.997 33.1782V32.4214C135.888 32.4312 135.75 32.445 135.582 32.4629C135.416 32.4792 135.282 32.5028 135.179 32.5337C135.057 32.5711 134.956 32.6289 134.877 32.707C134.797 32.7835 134.757 32.891 134.757 33.0293C134.757 33.1855 134.801 33.3035 134.889 33.3833C134.977 33.4631 135.105 33.5029 135.275 33.5029C135.419 33.5029 135.55 33.472 135.668 33.4102C135.785 33.3467 135.895 33.2694 135.997 33.1782ZM135.997 33.5591C135.96 33.5868 135.909 33.6258 135.846 33.6763C135.784 33.7251 135.724 33.7642 135.665 33.7935C135.584 33.8358 135.505 33.8683 135.428 33.8911C135.353 33.9139 135.248 33.9253 135.111 33.9253C134.999 33.9253 134.892 33.9041 134.791 33.8618C134.69 33.8195 134.602 33.7601 134.525 33.6836C134.452 33.6087 134.393 33.5168 134.349 33.4077C134.305 33.297 134.283 33.1807 134.283 33.0586C134.283 32.8698 134.323 32.7095 134.403 32.5776C134.483 32.4442 134.609 32.3384 134.781 32.2603C134.934 32.1903 135.115 32.1423 135.323 32.1162C135.532 32.0885 135.756 32.0682 135.997 32.0552V31.9673C135.997 31.8599 135.981 31.7736 135.948 31.7085C135.916 31.6418 135.87 31.5905 135.812 31.5547C135.753 31.5173 135.681 31.4928 135.597 31.4814C135.512 31.4684 135.425 31.4619 135.336 31.4619C135.23 31.4619 135.105 31.4782 134.962 31.5107C134.819 31.5417 134.676 31.5872 134.532 31.6475H134.506V31.1812C134.59 31.1567 134.711 31.1299 134.869 31.1006C135.027 31.0713 135.183 31.0566 135.338 31.0566C135.525 31.0566 135.683 31.0713 135.812 31.1006C135.94 31.1299 136.056 31.1828 136.158 31.2593C136.258 31.3341 136.332 31.431 136.381 31.5498C136.429 31.6686 136.454 31.8135 136.454 31.9844V33.8496H135.997V33.5591ZM139.254 33.8496H138.795V32.6216H137.56V33.8496H137.101V31.1226H137.56V32.2261H138.795V31.1226H139.254V33.8496ZM142.162 32.4873C142.162 32.9463 142.051 33.3011 141.83 33.5518C141.608 33.8008 141.314 33.9253 140.946 33.9253C140.567 33.9253 140.268 33.7967 140.05 33.5396C139.833 33.2808 139.725 32.93 139.725 32.4873C139.725 32.0316 139.837 31.6776 140.06 31.4253C140.284 31.173 140.58 31.0469 140.946 31.0469C141.314 31.0469 141.608 31.173 141.83 31.4253C142.051 31.6759 142.162 32.0299 142.162 32.4873ZM141.688 32.4873C141.688 32.1341 141.624 31.8721 141.495 31.7012C141.367 31.5286 141.184 31.4424 140.946 31.4424C140.707 31.4424 140.522 31.5286 140.392 31.7012C140.263 31.8721 140.199 32.1341 140.199 32.4873C140.199 32.8291 140.263 33.0887 140.392 33.2661C140.522 33.4419 140.707 33.5298 140.946 33.5298C141.182 33.5298 141.364 33.4435 141.493 33.271C141.623 33.0968 141.688 32.8356 141.688 32.4873ZM144.772 33.0244C144.772 33.1562 144.746 33.2734 144.696 33.376C144.645 33.4769 144.576 33.5615 144.488 33.6299C144.378 33.7161 144.261 33.7747 144.139 33.8057C144.019 33.835 143.874 33.8496 143.705 33.8496H142.633V31.1226H143.634C143.834 31.1226 143.981 31.1291 144.073 31.1421C144.166 31.1535 144.258 31.1844 144.349 31.2349C144.445 31.2869 144.516 31.3561 144.562 31.4424C144.607 31.5286 144.63 31.6312 144.63 31.75C144.63 31.8802 144.594 31.9974 144.523 32.1016C144.451 32.2041 144.356 32.2839 144.237 32.3408L144.249 32.3579C144.397 32.3953 144.521 32.471 144.62 32.585C144.721 32.6989 144.772 32.8454 144.772 33.0244ZM144.159 31.8208C144.159 31.759 144.148 31.7052 144.127 31.6597C144.108 31.6141 144.073 31.5783 144.022 31.5522C143.964 31.5213 143.898 31.5034 143.824 31.4985C143.753 31.492 143.653 31.4888 143.524 31.4888H143.087V32.2358H143.614C143.727 32.2358 143.806 32.231 143.854 32.2212C143.901 32.2098 143.953 32.187 144.01 32.1528C144.064 32.1203 144.102 32.0763 144.125 32.021C144.147 31.9657 144.159 31.8989 144.159 31.8208ZM144.298 33.0269C144.298 32.9341 144.284 32.86 144.256 32.8047C144.23 32.7477 144.172 32.6973 144.081 32.6533C144.024 32.6257 143.963 32.6086 143.898 32.6021C143.832 32.5955 143.742 32.5923 143.627 32.5923H143.087V33.4834H143.485C143.649 33.4834 143.777 33.4769 143.868 33.4639C143.959 33.4508 144.038 33.4248 144.103 33.3857C144.171 33.3434 144.221 33.2946 144.252 33.2393C144.283 33.1839 144.298 33.1131 144.298 33.0269ZM149.466 33.8496H148.985V30.9639L147.342 33.8496H146.854V30.2144H147.335V33.0537L148.956 30.2144H149.466V33.8496ZM152.306 33.0244C152.306 33.1562 152.281 33.2734 152.23 33.376C152.18 33.4769 152.11 33.5615 152.023 33.6299C151.912 33.7161 151.796 33.7747 151.673 33.8057C151.553 33.835 151.408 33.8496 151.239 33.8496H150.167V31.1226H151.168C151.368 31.1226 151.515 31.1291 151.608 31.1421C151.7 31.1535 151.792 31.1844 151.883 31.2349C151.979 31.2869 152.05 31.3561 152.096 31.4424C152.141 31.5286 152.164 31.6312 152.164 31.75C152.164 31.8802 152.128 31.9974 152.057 32.1016C151.985 32.2041 151.89 32.2839 151.771 32.3408L151.783 32.3579C151.931 32.3953 152.055 32.471 152.154 32.585C152.255 32.6989 152.306 32.8454 152.306 33.0244ZM151.693 31.8208C151.693 31.759 151.682 31.7052 151.661 31.6597C151.642 31.6141 151.607 31.5783 151.556 31.5522C151.498 31.5213 151.432 31.5034 151.359 31.4985C151.287 31.492 151.187 31.4888 151.058 31.4888H150.621V32.2358H151.149C151.261 32.2358 151.341 32.231 151.388 32.2212C151.435 32.2098 151.487 32.187 151.544 32.1528C151.598 32.1203 151.636 32.0763 151.659 32.021C151.682 31.9657 151.693 31.8989 151.693 31.8208ZM151.832 33.0269C151.832 32.9341 151.818 32.86 151.791 32.8047C151.765 32.7477 151.706 32.6973 151.615 32.6533C151.558 32.6257 151.497 32.6086 151.432 32.6021C151.367 32.5955 151.276 32.5923 151.161 32.5923H150.621V33.4834H151.019C151.184 33.4834 151.311 33.4769 151.402 33.4639C151.494 33.4508 151.572 33.4248 151.637 33.3857C151.705 33.3434 151.755 33.2946 151.786 33.2393C151.817 33.1839 151.832 33.1131 151.832 33.0269ZM154.313 33.1782V32.4214C154.204 32.4312 154.065 32.445 153.898 32.4629C153.732 32.4792 153.597 32.5028 153.495 32.5337C153.373 32.5711 153.272 32.6289 153.192 32.707C153.112 32.7835 153.072 32.891 153.072 33.0293C153.072 33.1855 153.116 33.3035 153.204 33.3833C153.292 33.4631 153.421 33.5029 153.59 33.5029C153.735 33.5029 153.866 33.472 153.983 33.4102C154.1 33.3467 154.21 33.2694 154.313 33.1782ZM154.313 33.5591C154.275 33.5868 154.225 33.6258 154.161 33.6763C154.099 33.7251 154.039 33.7642 153.981 33.7935C153.899 33.8358 153.82 33.8683 153.744 33.8911C153.669 33.9139 153.563 33.9253 153.426 33.9253C153.314 33.9253 153.207 33.9041 153.107 33.8618C153.006 33.8195 152.917 33.7601 152.84 33.6836C152.767 33.6087 152.709 33.5168 152.665 33.4077C152.621 33.297 152.599 33.1807 152.599 33.0586C152.599 32.8698 152.639 32.7095 152.718 32.5776C152.798 32.4442 152.924 32.3384 153.097 32.2603C153.25 32.1903 153.43 32.1423 153.639 32.1162C153.847 32.0885 154.072 32.0682 154.313 32.0552V31.9673C154.313 31.8599 154.296 31.7736 154.264 31.7085C154.231 31.6418 154.186 31.5905 154.127 31.5547C154.068 31.5173 153.997 31.4928 153.912 31.4814C153.828 31.4684 153.741 31.4619 153.651 31.4619C153.545 31.4619 153.421 31.4782 153.277 31.5107C153.134 31.5417 152.991 31.5872 152.848 31.6475H152.821V31.1812C152.906 31.1567 153.027 31.1299 153.185 31.1006C153.343 31.0713 153.499 31.0566 153.653 31.0566C153.841 31.0566 153.999 31.0713 154.127 31.1006C154.256 31.1299 154.371 31.1828 154.474 31.2593C154.573 31.3341 154.647 31.431 154.696 31.5498C154.745 31.6686 154.769 31.8135 154.769 31.9844V33.8496H154.313V33.5591ZM157.569 33.8496H157.11V32.6216H155.875V33.8496H155.416V31.1226H155.875V32.2261H157.11V31.1226H157.569V33.8496ZM162.445 33.8496H161.964V30.9639L160.321 33.8496H159.833V30.2144H160.314V33.0537L161.935 30.2144H162.445V33.8496ZM165.284 33.0244C165.284 33.1562 165.259 33.2734 165.209 33.376C165.158 33.4769 165.089 33.5615 165.001 33.6299C164.89 33.7161 164.774 33.7747 164.652 33.8057C164.532 33.835 164.387 33.8496 164.217 33.8496H163.146V31.1226H164.147C164.347 31.1226 164.493 31.1291 164.586 31.1421C164.679 31.1535 164.771 31.1844 164.862 31.2349C164.958 31.2869 165.029 31.3561 165.074 31.4424C165.12 31.5286 165.143 31.6312 165.143 31.75C165.143 31.8802 165.107 31.9974 165.035 32.1016C164.964 32.2041 164.868 32.2839 164.75 32.3408L164.762 32.3579C164.91 32.3953 165.034 32.471 165.133 32.585C165.234 32.6989 165.284 32.8454 165.284 33.0244ZM164.672 31.8208C164.672 31.759 164.661 31.7052 164.64 31.6597C164.62 31.6141 164.585 31.5783 164.535 31.5522C164.476 31.5213 164.41 31.5034 164.337 31.4985C164.265 31.492 164.165 31.4888 164.037 31.4888H163.6V32.2358H164.127C164.239 32.2358 164.319 32.231 164.366 32.2212C164.414 32.2098 164.466 32.187 164.523 32.1528C164.576 32.1203 164.615 32.0763 164.637 32.021C164.66 31.9657 164.672 31.8989 164.672 31.8208ZM164.811 33.0269C164.811 32.9341 164.797 32.86 164.769 32.8047C164.743 32.7477 164.685 32.6973 164.593 32.6533C164.536 32.6257 164.475 32.6086 164.41 32.6021C164.345 32.5955 164.255 32.5923 164.139 32.5923H163.6V33.4834H163.998C164.162 33.4834 164.29 33.4769 164.381 33.4639C164.472 33.4508 164.55 33.4248 164.615 33.3857C164.684 33.3434 164.733 33.2946 164.764 33.2393C164.795 33.1839 164.811 33.1131 164.811 33.0269ZM167.291 33.1782V32.4214C167.182 32.4312 167.044 32.445 166.876 32.4629C166.71 32.4792 166.576 32.5028 166.473 32.5337C166.351 32.5711 166.25 32.6289 166.171 32.707C166.091 32.7835 166.051 32.891 166.051 33.0293C166.051 33.1855 166.095 33.3035 166.183 33.3833C166.271 33.4631 166.399 33.5029 166.568 33.5029C166.713 33.5029 166.844 33.472 166.962 33.4102C167.079 33.3467 167.189 33.2694 167.291 33.1782ZM167.291 33.5591C167.254 33.5868 167.203 33.6258 167.14 33.6763C167.078 33.7251 167.018 33.7642 166.959 33.7935C166.878 33.8358 166.799 33.8683 166.722 33.8911C166.647 33.9139 166.542 33.9253 166.405 33.9253C166.293 33.9253 166.186 33.9041 166.085 33.8618C165.984 33.8195 165.895 33.7601 165.819 33.6836C165.746 33.6087 165.687 33.5168 165.643 33.4077C165.599 33.297 165.577 33.1807 165.577 33.0586C165.577 32.8698 165.617 32.7095 165.697 32.5776C165.777 32.4442 165.903 32.3384 166.075 32.2603C166.228 32.1903 166.409 32.1423 166.617 32.1162C166.826 32.0885 167.05 32.0682 167.291 32.0552V31.9673C167.291 31.8599 167.275 31.7736 167.242 31.7085C167.21 31.6418 167.164 31.5905 167.106 31.5547C167.047 31.5173 166.975 31.4928 166.891 31.4814C166.806 31.4684 166.719 31.4619 166.63 31.4619C166.524 31.4619 166.399 31.4782 166.256 31.5107C166.113 31.5417 165.97 31.5872 165.826 31.6475H165.799V31.1812C165.884 31.1567 166.005 31.1299 166.163 31.1006C166.321 31.0713 166.477 31.0566 166.632 31.0566C166.819 31.0566 166.977 31.0713 167.106 31.1006C167.234 31.1299 167.35 31.1828 167.452 31.2593C167.552 31.3341 167.626 31.431 167.674 31.5498C167.723 31.6686 167.748 31.8135 167.748 31.9844V33.8496H167.291V33.5591ZM170.548 33.8496H170.089V32.6216H168.854V33.8496H168.395V31.1226H168.854V32.2261H170.089V31.1226H170.548V33.8496ZM173.456 32.4873C173.456 32.9463 173.345 33.3011 173.124 33.5518C172.902 33.8008 172.608 33.9253 172.24 33.9253C171.861 33.9253 171.562 33.7967 171.344 33.5396C171.127 33.2808 171.019 32.93 171.019 32.4873C171.019 32.0316 171.131 31.6776 171.354 31.4253C171.578 31.173 171.874 31.0469 172.24 31.0469C172.608 31.0469 172.902 31.173 173.124 31.4253C173.345 31.6759 173.456 32.0299 173.456 32.4873ZM172.982 32.4873C172.982 32.1341 172.918 31.8721 172.789 31.7012C172.661 31.5286 172.478 31.4424 172.24 31.4424C172.001 31.4424 171.816 31.5286 171.686 31.7012C171.557 31.8721 171.493 32.1341 171.493 32.4873C171.493 32.8291 171.557 33.0887 171.686 33.2661C171.816 33.4419 172.001 33.5298 172.24 33.5298C172.476 33.5298 172.658 33.4435 172.787 33.271C172.917 33.0968 172.982 32.8356 172.982 32.4873ZM176.066 33.0244C176.066 33.1562 176.04 33.2734 175.99 33.376C175.939 33.4769 175.87 33.5615 175.782 33.6299C175.672 33.7161 175.555 33.7747 175.433 33.8057C175.313 33.835 175.168 33.8496 174.999 33.8496H173.927V31.1226H174.928C175.128 31.1226 175.275 31.1291 175.367 31.1421C175.46 31.1535 175.552 31.1844 175.643 31.2349C175.739 31.2869 175.81 31.3561 175.856 31.4424C175.901 31.5286 175.924 31.6312 175.924 31.75C175.924 31.8802 175.888 31.9974 175.817 32.1016C175.745 32.2041 175.65 32.2839 175.531 32.3408L175.543 32.3579C175.691 32.3953 175.815 32.471 175.914 32.585C176.015 32.6989 176.066 32.8454 176.066 33.0244ZM175.453 31.8208C175.453 31.759 175.442 31.7052 175.421 31.6597C175.401 31.6141 175.367 31.5783 175.316 31.5522C175.257 31.5213 175.192 31.5034 175.118 31.4985C175.047 31.492 174.947 31.4888 174.818 31.4888H174.381V32.2358H174.908C175.021 32.2358 175.1 32.231 175.148 32.2212C175.195 32.2098 175.247 32.187 175.304 32.1528C175.358 32.1203 175.396 32.0763 175.419 32.021C175.441 31.9657 175.453 31.8989 175.453 31.8208ZM175.592 33.0269C175.592 32.9341 175.578 32.86 175.55 32.8047C175.524 32.7477 175.466 32.6973 175.375 32.6533C175.318 32.6257 175.257 32.6086 175.192 32.6021C175.126 32.5955 175.036 32.5923 174.921 32.5923H174.381V33.4834H174.779C174.943 33.4834 175.071 33.4769 175.162 33.4639C175.253 33.4508 175.332 33.4248 175.397 33.3857C175.465 33.3434 175.515 33.2946 175.546 33.2393C175.576 33.1839 175.592 33.1131 175.592 33.0269ZM178.702 33.8496H178.248V31.8159L176.964 33.8496H176.549V31.1226H177.003V33.1245L178.273 31.1226H178.702V33.8496ZM181.417 33.8496H180.958V32.7852C180.815 32.8324 180.676 32.869 180.541 32.895C180.406 32.9211 180.272 32.9341 180.14 32.9341C180.025 32.9341 179.912 32.9194 179.801 32.8901C179.692 32.8592 179.597 32.8096 179.518 32.7412C179.438 32.6729 179.376 32.5858 179.332 32.48C179.29 32.3726 179.269 32.2464 179.269 32.1016V31.1226H179.728V31.8623C179.728 31.9827 179.733 32.0788 179.742 32.1504C179.752 32.2204 179.779 32.2887 179.823 32.3555C179.86 32.4124 179.916 32.4564 179.991 32.4873C180.068 32.5182 180.168 32.5337 180.292 32.5337C180.399 32.5337 180.514 32.5231 180.636 32.502C180.76 32.4808 180.867 32.4556 180.958 32.4263V31.1226H181.417V33.8496Z" fill="#303549"/>
<path d="M113.75 37.75L6.25 37.75L6.25 27.25L113.75 27.25V37.75Z" fill="#0089FF" fill-opacity="0.2" stroke="#0089FF" stroke-width="0.5"/>
<path d="M121.25 39.25L221.75 39.25V51.75L121.25 51.75V39.25Z" fill="#0089FF" fill-opacity="0.2" stroke="#0089FF" stroke-width="0.5"/>
<path d="M131.178 46.6992H130.694V43.4937H129.022V46.6992H128.539V43.064H131.178V46.6992ZM133.065 46.7627C132.631 46.7627 132.293 46.6406 132.052 46.3965C131.813 46.1507 131.693 45.8024 131.693 45.3516C131.693 44.9072 131.809 44.554 132.042 44.292C132.275 44.0283 132.579 43.8965 132.955 43.8965C133.124 43.8965 133.274 43.9209 133.404 43.9697C133.535 44.0186 133.649 44.0951 133.746 44.1992C133.844 44.3034 133.919 44.4312 133.971 44.5825C134.023 44.7323 134.049 44.9162 134.049 45.1343V45.3833H132.159C132.159 45.7007 132.239 45.9432 132.399 46.1108C132.558 46.2785 132.779 46.3623 133.06 46.3623C133.161 46.3623 133.26 46.3509 133.356 46.3281C133.453 46.3053 133.541 46.276 133.619 46.2402C133.702 46.2028 133.772 46.167 133.829 46.1328C133.886 46.097 133.933 46.0636 133.971 46.0327H133.998V46.5332C133.944 46.5544 133.877 46.5812 133.797 46.6138C133.718 46.6447 133.646 46.6691 133.583 46.687C133.493 46.7114 133.412 46.7301 133.339 46.7432C133.267 46.7562 133.176 46.7627 133.065 46.7627ZM133.602 45.0317C133.599 44.908 133.584 44.8014 133.558 44.7119C133.532 44.6224 133.495 44.5467 133.446 44.4849C133.392 44.4165 133.323 44.3644 133.238 44.3286C133.155 44.2928 133.052 44.2749 132.928 44.2749C132.806 44.2749 132.702 44.2936 132.616 44.3311C132.531 44.3669 132.454 44.4198 132.384 44.4897C132.316 44.5614 132.263 44.6411 132.228 44.729C132.192 44.8153 132.169 44.9162 132.159 45.0317H133.602ZM136.505 44.375H135.577V46.6992H135.118V44.375H134.191V43.9722H136.505V44.375ZM139.134 45.2637C139.134 45.7178 139.025 46.0799 138.807 46.3501C138.591 46.6187 138.317 46.7529 137.985 46.7529C137.849 46.7529 137.73 46.7375 137.626 46.7065C137.521 46.6756 137.415 46.6276 137.306 46.5625V47.7051H136.847V43.9722H137.306V44.2578C137.42 44.1553 137.546 44.0698 137.684 44.0015C137.824 43.9315 137.976 43.8965 138.141 43.8965C138.453 43.8965 138.697 44.0202 138.871 44.2676C139.047 44.515 139.134 44.847 139.134 45.2637ZM138.661 45.3149C138.661 45.0041 138.611 44.7632 138.512 44.5923C138.413 44.4198 138.251 44.3335 138.028 44.3335C137.898 44.3335 137.772 44.3628 137.65 44.4214C137.53 44.4784 137.415 44.5524 137.306 44.6436V46.189C137.426 46.2476 137.529 46.2874 137.613 46.3086C137.7 46.3298 137.798 46.3403 137.909 46.3403C138.146 46.3403 138.331 46.2533 138.463 46.0791C138.595 45.9049 138.661 45.6502 138.661 45.3149ZM141.854 45.3369C141.854 45.7959 141.743 46.1507 141.522 46.4014C141.301 46.6504 141.006 46.7749 140.638 46.7749C140.259 46.7749 139.96 46.6463 139.742 46.3892C139.526 46.1304 139.418 45.7796 139.418 45.3369C139.418 44.8812 139.529 44.5272 139.752 44.2749C139.977 44.0226 140.272 43.8965 140.638 43.8965C141.006 43.8965 141.301 44.0226 141.522 44.2749C141.743 44.5256 141.854 44.8796 141.854 45.3369ZM141.381 45.3369C141.381 44.9837 141.316 44.7217 141.188 44.5508C141.059 44.3783 140.876 44.292 140.638 44.292C140.399 44.292 140.214 44.3783 140.084 44.5508C139.956 44.7217 139.891 44.9837 139.891 45.3369C139.891 45.6787 139.956 45.9383 140.084 46.1157C140.214 46.2915 140.399 46.3794 140.638 46.3794C140.874 46.3794 141.057 46.2931 141.185 46.1206C141.315 45.9465 141.381 45.6852 141.381 45.3369ZM144.464 45.874C144.464 46.0059 144.439 46.123 144.388 46.2256C144.338 46.3265 144.269 46.4111 144.181 46.4795C144.07 46.5658 143.954 46.6243 143.832 46.6553C143.711 46.6846 143.566 46.6992 143.397 46.6992H142.325V43.9722H143.326C143.526 43.9722 143.673 43.9787 143.766 43.9917C143.859 44.0031 143.95 44.034 144.042 44.0845C144.138 44.1366 144.208 44.2057 144.254 44.292C144.3 44.3783 144.322 44.4808 144.322 44.5996C144.322 44.7298 144.287 44.847 144.215 44.9512C144.143 45.0537 144.048 45.1335 143.929 45.1904L143.942 45.2075C144.09 45.245 144.213 45.3206 144.313 45.4346C144.414 45.5485 144.464 45.695 144.464 45.874ZM143.851 44.6704C143.851 44.6086 143.841 44.5549 143.819 44.5093C143.8 44.4637 143.765 44.4279 143.714 44.4019C143.656 44.3709 143.59 44.353 143.517 44.3481C143.445 44.3416 143.345 44.3384 143.216 44.3384H142.779V45.0854H143.307C143.419 45.0854 143.499 45.0806 143.546 45.0708C143.593 45.0594 143.645 45.0366 143.702 45.0024C143.756 44.9699 143.794 44.9259 143.817 44.8706C143.84 44.8153 143.851 44.7485 143.851 44.6704ZM143.99 45.8765C143.99 45.7837 143.977 45.7096 143.949 45.6543C143.923 45.5973 143.864 45.5469 143.773 45.5029C143.716 45.4753 143.655 45.4582 143.59 45.4517C143.525 45.4451 143.435 45.4419 143.319 45.4419H142.779V46.333H143.177C143.342 46.333 143.47 46.3265 143.561 46.3135C143.652 46.3005 143.73 46.2744 143.795 46.2354C143.863 46.193 143.913 46.1442 143.944 46.0889C143.975 46.0335 143.99 45.9627 143.99 45.8765ZM149.498 47.522H149.039V46.6895H146.681V47.522H146.222V46.2695H146.42C146.631 45.9229 146.801 45.4688 146.93 44.9072C147.06 44.3441 147.125 43.7297 147.125 43.064H149.154V46.2695H149.498V47.522ZM148.671 46.2695V43.4839H147.579C147.556 44.0715 147.483 44.6045 147.36 45.083C147.236 45.5615 147.078 45.957 146.886 46.2695H148.671ZM152.457 46.6992H152.003V44.5557L151.349 45.9473H151.007L150.358 44.5557V46.6992H149.928V43.9722H150.482L151.2 45.4858L151.893 43.9722H152.457V46.6992ZM155.275 46.6992H154.82V44.6655L153.536 46.6992H153.121V43.9722H153.575V45.9741L154.845 43.9722H155.275V46.6992ZM157.931 44.375H157.003V46.6992H156.544V44.375H155.616V43.9722H157.931V44.375ZM160.56 45.2637C160.56 45.7178 160.451 46.0799 160.233 46.3501C160.017 46.6187 159.742 46.7529 159.41 46.7529C159.275 46.7529 159.156 46.7375 159.051 46.7065C158.947 46.6756 158.841 46.6276 158.732 46.5625V47.7051H158.273V43.9722H158.732V44.2578C158.846 44.1553 158.972 44.0698 159.11 44.0015C159.25 43.9315 159.402 43.8965 159.567 43.8965C159.879 43.8965 160.122 44.0202 160.297 44.2676C160.472 44.515 160.56 44.847 160.56 45.2637ZM160.087 45.3149C160.087 45.0041 160.037 44.7632 159.938 44.5923C159.838 44.4198 159.677 44.3335 159.454 44.3335C159.324 44.3335 159.198 44.3628 159.076 44.4214C158.955 44.4784 158.841 44.5524 158.732 44.6436V46.189C158.852 46.2476 158.955 46.2874 159.039 46.3086C159.125 46.3298 159.224 46.3403 159.335 46.3403C159.572 46.3403 159.757 46.2533 159.889 46.0791C160.021 45.9049 160.087 45.6502 160.087 45.3149ZM163.19 46.6992H162.735V44.6655L161.451 46.6992H161.036V43.9722H161.49V45.9741L162.76 43.9722H163.19V46.6992ZM166.007 46.6992H165.553V44.6655L164.269 46.6992H163.854V43.9722H164.308V45.9741L165.577 43.9722H166.007V46.6992ZM165.802 42.7051C165.802 42.8451 165.785 42.9728 165.751 43.0884C165.716 43.2023 165.668 43.2983 165.604 43.3765C165.531 43.4627 165.448 43.5278 165.355 43.5718C165.262 43.6141 165.144 43.6353 164.999 43.6353C164.865 43.6353 164.748 43.6133 164.647 43.5693C164.548 43.5238 164.464 43.4595 164.396 43.3765C164.329 43.2951 164.278 43.1974 164.244 43.0835C164.21 42.9696 164.193 42.8434 164.193 42.7051H164.589C164.589 42.9248 164.623 43.0835 164.691 43.1812C164.759 43.2772 164.862 43.3252 164.999 43.3252C165.127 43.3252 165.227 43.278 165.299 43.1836C165.371 43.0876 165.406 42.9281 165.406 42.7051H165.802ZM170.958 46.6992H170.343L169.059 45.0342H168.754V46.6992H168.27V43.064H168.754V44.7021C168.944 44.6956 169.095 44.6476 169.205 44.5581C169.318 44.4686 169.409 44.34 169.479 44.1724C169.508 44.0991 169.534 44.0299 169.557 43.9648C169.581 43.8981 169.601 43.842 169.615 43.7964C169.713 43.5181 169.838 43.3268 169.989 43.2227C170.14 43.1169 170.35 43.064 170.619 43.064H170.768V43.4961H170.646C170.447 43.4961 170.308 43.5352 170.228 43.6133C170.148 43.6898 170.075 43.8354 170.008 44.0503C169.942 44.2651 169.867 44.423 169.784 44.5239C169.701 44.6232 169.601 44.7111 169.484 44.7876L170.958 46.6992ZM172.77 46.0278V45.271C172.661 45.2808 172.522 45.2946 172.355 45.3125C172.189 45.3288 172.054 45.3524 171.952 45.3833C171.83 45.4207 171.729 45.4785 171.649 45.5566C171.569 45.6331 171.529 45.7406 171.529 45.8789C171.529 46.0352 171.573 46.1532 171.661 46.2329C171.749 46.3127 171.878 46.3525 172.047 46.3525C172.192 46.3525 172.323 46.3216 172.44 46.2598C172.557 46.1963 172.667 46.119 172.77 46.0278ZM172.77 46.4087C172.732 46.4364 172.682 46.4754 172.618 46.5259C172.556 46.5747 172.496 46.6138 172.438 46.6431C172.356 46.6854 172.277 46.7179 172.201 46.7407C172.126 46.7635 172.02 46.7749 171.883 46.7749C171.771 46.7749 171.665 46.7537 171.564 46.7114C171.463 46.6691 171.374 46.6097 171.297 46.5332C171.224 46.4583 171.166 46.3664 171.122 46.2573C171.078 46.1466 171.056 46.0303 171.056 45.9082C171.056 45.7194 171.096 45.5591 171.175 45.4272C171.255 45.2938 171.381 45.188 171.554 45.1099C171.707 45.0399 171.887 44.9919 172.096 44.9658C172.304 44.9382 172.529 44.9178 172.77 44.9048V44.8169C172.77 44.7095 172.753 44.6232 172.721 44.5581C172.688 44.4914 172.643 44.4401 172.584 44.4043C172.526 44.3669 172.454 44.3424 172.369 44.3311C172.285 44.318 172.198 44.3115 172.108 44.3115C172.002 44.3115 171.878 44.3278 171.735 44.3604C171.591 44.3913 171.448 44.4368 171.305 44.4971H171.278V44.0308C171.363 44.0063 171.484 43.9795 171.642 43.9502C171.8 43.9209 171.956 43.9062 172.11 43.9062C172.298 43.9062 172.456 43.9209 172.584 43.9502C172.713 43.9795 172.828 44.0324 172.931 44.1089C173.03 44.1838 173.104 44.2806 173.153 44.3994C173.202 44.5182 173.226 44.6631 173.226 44.834V46.6992H172.77V46.4087ZM176.161 45.2637C176.161 45.7178 176.052 46.0799 175.834 46.3501C175.617 46.6187 175.343 46.7529 175.011 46.7529C174.876 46.7529 174.756 46.7375 174.652 46.7065C174.548 46.6756 174.441 46.6276 174.332 46.5625V47.7051H173.873V43.9722H174.332V44.2578C174.446 44.1553 174.572 44.0698 174.711 44.0015C174.851 43.9315 175.003 43.8965 175.167 43.8965C175.48 43.8965 175.723 44.0202 175.897 44.2676C176.073 44.515 176.161 44.847 176.161 45.2637ZM175.687 45.3149C175.687 45.0041 175.637 44.7632 175.538 44.5923C175.439 44.4198 175.278 44.3335 175.055 44.3335C174.925 44.3335 174.798 44.3628 174.676 44.4214C174.556 44.4784 174.441 44.5524 174.332 44.6436V46.189C174.453 46.2476 174.555 46.2874 174.64 46.3086C174.726 46.3298 174.825 46.3403 174.935 46.3403C175.173 46.3403 175.358 46.2533 175.489 46.0791C175.621 45.9049 175.687 45.6502 175.687 45.3149ZM178.749 46.6992H178.29V44.3579H177.352C177.347 44.493 177.342 44.6232 177.338 44.7485C177.333 44.8722 177.328 44.9845 177.323 45.0854C177.313 45.341 177.296 45.555 177.272 45.7275C177.249 45.9001 177.22 46.0384 177.184 46.1426C177.148 46.25 177.108 46.3338 177.064 46.394C177.022 46.4543 176.974 46.5088 176.92 46.5576C176.865 46.6064 176.805 46.6431 176.742 46.6675C176.678 46.6919 176.607 46.7041 176.527 46.7041C176.501 46.7041 176.468 46.7033 176.427 46.7017C176.386 46.7 176.358 46.6992 176.341 46.6992V46.2988H176.366C176.377 46.2988 176.389 46.2996 176.4 46.3013C176.413 46.3029 176.428 46.3037 176.444 46.3037C176.483 46.3037 176.521 46.298 176.559 46.2866C176.596 46.2752 176.63 46.2541 176.659 46.2231C176.74 46.1434 176.8 46.0042 176.837 45.8057C176.874 45.6055 176.901 45.3263 176.918 44.9683C176.924 44.8348 176.93 44.6769 176.935 44.4946C176.941 44.3123 176.947 44.1382 176.952 43.9722H178.749V46.6992ZM181.659 45.3369C181.659 45.7959 181.548 46.1507 181.327 46.4014C181.105 46.6504 180.811 46.7749 180.443 46.7749C180.064 46.7749 179.765 46.6463 179.547 46.3892C179.331 46.1304 179.222 45.7796 179.222 45.3369C179.222 44.8812 179.334 44.5272 179.557 44.2749C179.781 44.0226 180.077 43.8965 180.443 43.8965C180.811 43.8965 181.105 44.0226 181.327 44.2749C181.548 44.5256 181.659 44.8796 181.659 45.3369ZM181.185 45.3369C181.185 44.9837 181.121 44.7217 180.992 44.5508C180.864 44.3783 180.681 44.292 180.443 44.292C180.204 44.292 180.019 44.3783 179.889 44.5508C179.76 44.7217 179.696 44.9837 179.696 45.3369C179.696 45.6787 179.76 45.9383 179.889 46.1157C180.019 46.2915 180.204 46.3794 180.443 46.3794C180.679 46.3794 180.861 46.2931 180.99 46.1206C181.12 45.9465 181.185 45.6852 181.185 45.3369ZM184.269 45.874C184.269 46.0059 184.243 46.123 184.193 46.2256C184.143 46.3265 184.073 46.4111 183.985 46.4795C183.875 46.5658 183.758 46.6243 183.636 46.6553C183.516 46.6846 183.371 46.6992 183.202 46.6992H182.13V43.9722H183.131C183.331 43.9722 183.478 43.9787 183.57 43.9917C183.663 44.0031 183.755 44.034 183.846 44.0845C183.942 44.1366 184.013 44.2057 184.059 44.292C184.104 44.3783 184.127 44.4808 184.127 44.5996C184.127 44.7298 184.091 44.847 184.02 44.9512C183.948 45.0537 183.853 45.1335 183.734 45.1904L183.746 45.2075C183.894 45.245 184.018 45.3206 184.117 45.4346C184.218 45.5485 184.269 45.695 184.269 45.874ZM183.656 44.6704C183.656 44.6086 183.645 44.5549 183.624 44.5093C183.605 44.4637 183.57 44.4279 183.519 44.4019C183.461 44.3709 183.395 44.353 183.321 44.3481C183.25 44.3416 183.15 44.3384 183.021 44.3384H182.584V45.0854H183.111C183.224 45.0854 183.304 45.0806 183.351 45.0708C183.398 45.0594 183.45 45.0366 183.507 45.0024C183.561 44.9699 183.599 44.9259 183.622 44.8706C183.644 44.8153 183.656 44.7485 183.656 44.6704ZM183.795 45.8765C183.795 45.7837 183.781 45.7096 183.754 45.6543C183.728 45.5973 183.669 45.5469 183.578 45.5029C183.521 45.4753 183.46 45.4582 183.395 45.4517C183.33 45.4451 183.239 45.4419 183.124 45.4419H182.584V46.333H182.982C183.146 46.333 183.274 46.3265 183.365 46.3135C183.457 46.3005 183.535 46.2744 183.6 46.2354C183.668 46.193 183.718 46.1442 183.749 46.0889C183.78 46.0335 183.795 45.9627 183.795 45.8765ZM186.905 46.6992H186.451V44.6655L185.167 46.6992H184.752V43.9722H185.206V45.9741L186.476 43.9722H186.905V46.6992ZM189.62 46.6992H189.161V45.6348C189.018 45.682 188.879 45.7186 188.744 45.7446C188.609 45.7707 188.475 45.7837 188.343 45.7837C188.228 45.7837 188.115 45.769 188.004 45.7397C187.895 45.7088 187.801 45.6592 187.721 45.5908C187.641 45.5225 187.579 45.4354 187.535 45.3296C187.493 45.2222 187.472 45.096 187.472 44.9512V43.9722H187.931V44.7119C187.931 44.8324 187.936 44.9284 187.945 45C187.955 45.07 187.982 45.1383 188.026 45.2051C188.063 45.262 188.12 45.306 188.194 45.3369C188.271 45.3678 188.371 45.3833 188.495 45.3833C188.602 45.3833 188.717 45.3727 188.839 45.3516C188.963 45.3304 189.07 45.3052 189.161 45.2759V43.9722H189.62V46.6992Z" fill="#303549"/>
<path d="M130.99 19.9998C132.161 19.9998 133.11 19.0506 133.11 17.8798C133.11 16.7089 132.161 15.7598 130.99 15.7598C129.819 15.7598 128.87 16.7089 128.87 17.8798C128.87 19.0506 129.819 19.9998 130.99 19.9998Z" stroke="#0089FF" stroke-width="0.5" stroke-miterlimit="10"/>
<path d="M130.99 19.01C131.614 19.01 132.12 18.5041 132.12 17.88C132.12 17.2559 131.614 16.75 130.99 16.75C130.366 16.75 129.86 17.2559 129.86 17.88C129.86 18.5041 130.366 19.01 130.99 19.01Z" fill="#0089FF"/>
<path d="M171.658 17.5959C171.658 17.8769 171.616 18.1255 171.531 18.3418C171.446 18.5561 171.328 18.737 171.176 18.8846C171.012 19.0463 170.811 19.1716 170.573 19.2606C170.334 19.3475 170.088 19.394 169.833 19.4001V19.9489H169.236V19.4001C168.983 19.392 168.737 19.3465 168.499 19.2636C168.26 19.1807 168.057 19.0564 167.889 18.8907C167.738 18.7431 167.619 18.5601 167.535 18.3418C167.452 18.1235 167.41 17.8749 167.41 17.5959C167.41 17.3331 167.451 17.0976 167.531 16.8894C167.612 16.6792 167.726 16.4982 167.871 16.3466C168.027 16.1849 168.222 16.0575 168.456 15.9646C168.691 15.8716 168.951 15.821 169.236 15.8129V15.3126H169.833V15.8129C170.118 15.819 170.379 15.8696 170.615 15.9646C170.852 16.0575 171.048 16.1839 171.203 16.3436C171.349 16.4932 171.461 16.6721 171.54 16.8803C171.619 17.0885 171.658 17.327 171.658 17.5959ZM171.034 17.5716C171.034 17.3715 171.005 17.1896 170.949 17.0258C170.892 16.8601 170.808 16.7196 170.697 16.6044C170.592 16.4952 170.47 16.4143 170.33 16.3618C170.191 16.3092 170.025 16.2809 169.833 16.2769V18.9452C170.015 18.9412 170.177 18.9119 170.318 18.8573C170.462 18.8007 170.58 18.7259 170.673 18.6329C170.796 18.5116 170.887 18.3641 170.946 18.1902C171.004 18.0164 171.034 17.8102 171.034 17.5716ZM169.236 18.9452V16.2769C169.044 16.2789 168.878 16.3072 168.738 16.3618C168.599 16.4164 168.477 16.4972 168.371 16.6044C168.26 16.7176 168.176 16.8581 168.12 17.0258C168.063 17.1936 168.035 17.3756 168.035 17.5716C168.035 17.8102 168.064 18.0174 168.123 18.1932C168.181 18.3671 168.272 18.5137 168.396 18.6329C168.489 18.7219 168.606 18.7956 168.747 18.8543C168.891 18.9129 169.054 18.9432 169.236 18.9452ZM175.564 19.9004H174.966V16.3163L172.926 19.9004H172.319V15.3854H172.917V18.9119L174.93 15.3854H175.564V19.9004ZM179.673 15.9039C179.844 16.102 179.978 16.3476 180.073 16.6407C180.168 16.9339 180.215 17.2684 180.215 17.6444C180.215 18.0103 180.169 18.3408 180.076 18.636C179.983 18.9311 179.848 19.1787 179.673 19.3788C179.489 19.5891 179.273 19.7447 179.027 19.8458C178.782 19.9449 178.512 19.9944 178.217 19.9944C177.912 19.9944 177.637 19.9428 177.392 19.8397C177.148 19.7367 176.937 19.583 176.762 19.3788C176.588 19.1787 176.454 18.9321 176.361 18.639C176.268 18.3459 176.222 18.0143 176.222 17.6444C176.222 17.2644 176.268 16.9308 176.361 16.6438C176.456 16.3567 176.591 16.1101 176.765 15.9039C176.938 15.7038 177.148 15.5522 177.392 15.4491C177.639 15.344 177.914 15.2914 178.217 15.2914C178.524 15.2914 178.801 15.345 179.048 15.4521C179.294 15.5593 179.503 15.7099 179.673 15.9039ZM179.591 17.6444C179.591 17.3452 179.558 17.0804 179.494 16.85C179.429 16.6195 179.338 16.4285 179.221 16.2769C179.101 16.1212 178.957 16.005 178.787 15.9282C178.619 15.8493 178.43 15.8099 178.22 15.8099C178.002 15.8099 177.811 15.8483 177.647 15.9251C177.485 15.9999 177.342 16.1172 177.216 16.2769C177.097 16.4305 177.005 16.6236 176.94 16.856C176.878 17.0885 176.846 17.3513 176.846 17.6444C176.846 18.2367 176.971 18.6905 177.219 19.0059C177.468 19.3192 177.802 19.4759 178.22 19.4759C178.639 19.4759 178.971 19.3192 179.218 19.0059C179.466 18.6905 179.591 18.2367 179.591 17.6444Z" fill="#303549"/>
<path d="M209.36 46.7797V47.7797H210.36L213.29 44.8497L212.29 43.8497L209.36 46.7797ZM214 44.0897C214.026 44.0663 214.046 44.0377 214.061 44.0059C214.075 43.974 214.082 43.9396 214.082 43.9047C214.082 43.8699 214.075 43.8354 214.061 43.8036C214.046 43.7717 214.026 43.7432 214 43.7197L213.39 43.0997C213.338 43.0519 213.27 43.0254 213.2 43.0254C213.13 43.0254 213.062 43.0519 213.01 43.0997L212.53 43.5797L213.53 44.5797L214 44.0897Z" fill="#303549"/>
<path d="M16.5343 43.3671L15.1948 46.4776C15.1386 46.6083 15.075 46.7133 15.0038 46.7927C14.9344 46.872 14.8616 46.9316 14.7856 46.9713C14.7095 47.0126 14.6343 47.0399 14.5598 47.0531C14.4871 47.0663 14.4135 47.0729 14.3391 47.0729C14.2729 47.0729 14.1952 47.0713 14.1059 47.068C14.0166 47.0647 13.9596 47.0622 13.9348 47.0605V46.6017H13.9695C13.9943 46.605 14.0315 46.6091 14.0811 46.6141C14.1324 46.6174 14.1969 46.619 14.2746 46.619C14.311 46.619 14.354 46.6174 14.4036 46.6141C14.4532 46.6091 14.4987 46.5967 14.54 46.5769C14.588 46.5537 14.6326 46.5231 14.6739 46.4851C14.7169 46.4454 14.7558 46.3834 14.7905 46.299L14.8749 46.1031L13.5776 43.3671H14.1208L15.1229 45.54L16.0283 43.3671H16.5343ZM17.9407 47.1226C17.7505 47.1226 17.5761 47.0936 17.4173 47.0357C17.2586 46.9762 17.1222 46.8869 17.0081 46.7679C16.894 46.6488 16.8055 46.4991 16.7427 46.3189C16.6798 46.137 16.6484 45.9237 16.6484 45.6789C16.6484 45.4358 16.6806 45.2258 16.7451 45.0489C16.8113 44.8719 16.8989 44.7231 17.0081 44.6024C17.1172 44.4817 17.2528 44.3891 17.4149 44.3246C17.5786 44.2584 17.7539 44.2254 17.9407 44.2254C18.0929 44.2254 18.2392 44.2469 18.3798 44.2899C18.522 44.3329 18.6485 44.3825 18.7593 44.4387V44.9621H18.732C18.6989 44.934 18.6559 44.9017 18.603 44.8653C18.5517 44.829 18.4889 44.7917 18.4145 44.7537C18.35 44.7206 18.2739 44.6917 18.1863 44.6669C18.0986 44.6421 18.0143 44.6297 17.9333 44.6297C17.6918 44.6297 17.4975 44.7215 17.3504 44.905C17.2048 45.0869 17.1321 45.3449 17.1321 45.6789C17.1321 46.0063 17.2024 46.2618 17.3429 46.4454C17.4851 46.6273 17.6819 46.7182 17.9333 46.7182C18.0854 46.7182 18.2301 46.6868 18.3674 46.624C18.5046 46.5611 18.6262 46.4801 18.732 46.3809H18.7593V46.9043C18.713 46.9258 18.6551 46.9522 18.5856 46.9837C18.5162 47.0134 18.4533 47.0357 18.3971 47.0506C18.3178 47.0738 18.2466 47.0911 18.1838 47.1027C18.121 47.1159 18.0399 47.1226 17.9407 47.1226ZM21.21 44.6991H20.2674V47.0605H19.8011V44.6991H18.8585V44.2899H21.21V44.6991ZM23.1051 46.3784V45.6095C22.9943 45.6194 22.8537 45.6335 22.6834 45.6516C22.5147 45.6682 22.3783 45.6922 22.2741 45.7236C22.1501 45.7616 22.0475 45.8203 21.9665 45.8997C21.8855 45.9774 21.845 46.0865 21.845 46.2271C21.845 46.3859 21.8896 46.5057 21.9789 46.5868C22.0682 46.6678 22.1989 46.7083 22.3708 46.7083C22.518 46.7083 22.6511 46.6769 22.7702 46.6141C22.8893 46.5496 23.0009 46.471 23.1051 46.3784ZM23.1051 46.7654C23.067 46.7935 23.0158 46.8332 22.9513 46.8844C22.8884 46.934 22.8272 46.9737 22.7677 47.0035C22.685 47.0465 22.6048 47.0796 22.5271 47.1027C22.451 47.1259 22.3436 47.1374 22.2046 47.1374C22.0905 47.1374 21.9822 47.1159 21.8797 47.0729C21.7772 47.03 21.6871 46.9696 21.6093 46.8919C21.5349 46.8158 21.4754 46.7224 21.4307 46.6116C21.3861 46.4991 21.3638 46.3809 21.3638 46.2569C21.3638 46.0651 21.4043 45.9022 21.4853 45.7682C21.5663 45.6326 21.6945 45.5251 21.8698 45.4458C22.0252 45.3747 22.2088 45.3259 22.4204 45.2994C22.6321 45.2713 22.8603 45.2506 23.1051 45.2374V45.1481C23.1051 45.039 23.0885 44.9513 23.0554 44.8852C23.0224 44.8174 22.9761 44.7653 22.9165 44.7289C22.857 44.6909 22.7842 44.6661 22.6983 44.6545C22.6123 44.6413 22.5238 44.6346 22.4328 44.6346C22.3254 44.6346 22.1989 44.6512 22.0533 44.6843C21.9078 44.7157 21.7623 44.762 21.6168 44.8232H21.5895V44.3494C21.6755 44.3246 21.7987 44.2973 21.9591 44.2675C22.1195 44.2378 22.2782 44.2229 22.4353 44.2229C22.6255 44.2229 22.7859 44.2378 22.9165 44.2675C23.0472 44.2973 23.1646 44.351 23.2688 44.4288C23.3696 44.5048 23.4449 44.6032 23.4945 44.7239C23.5441 44.8447 23.5689 44.9918 23.5689 45.1655V47.0605H23.1051V46.7654ZM26.414 47.0605H25.9477V45.8129H24.6926V47.0605H24.2262V44.2899H24.6926V45.411H25.9477V44.2899H26.414V47.0605ZM29.3682 45.6764C29.3682 46.1428 29.2558 46.5033 29.0309 46.7579C28.806 47.0109 28.5067 47.1374 28.133 47.1374C27.7477 47.1374 27.4442 47.0068 27.2226 46.7455C27.0027 46.4826 26.8927 46.1262 26.8927 45.6764C26.8927 45.2134 27.006 44.8538 27.2326 44.5974C27.4608 44.3411 27.7609 44.213 28.133 44.213C28.5067 44.213 28.806 44.3411 29.0309 44.5974C29.2558 44.8521 29.3682 45.2118 29.3682 45.6764ZM28.887 45.6764C28.887 45.3176 28.8217 45.0514 28.6911 44.8777C28.5604 44.7024 28.3744 44.6148 28.133 44.6148C27.8899 44.6148 27.7022 44.7024 27.5699 44.8777C27.4393 45.0514 27.3739 45.3176 27.3739 45.6764C27.3739 46.0237 27.4393 46.2875 27.5699 46.4677C27.7022 46.6463 27.8899 46.7356 28.133 46.7356C28.3727 46.7356 28.558 46.648 28.6886 46.4727C28.8209 46.2957 28.887 46.0303 28.887 45.6764ZM32.0199 46.2221C32.0199 46.3561 31.9942 46.4752 31.943 46.5793C31.8917 46.6819 31.8214 46.7679 31.7321 46.8373C31.6197 46.9249 31.5014 46.9845 31.3774 47.0159C31.255 47.0457 31.1079 47.0605 30.9359 47.0605H29.847V44.2899H30.864C31.0674 44.2899 31.2162 44.2965 31.3104 44.3097C31.4047 44.3213 31.4981 44.3527 31.5907 44.404C31.6883 44.4569 31.7602 44.5272 31.8065 44.6148C31.8528 44.7024 31.876 44.8066 31.876 44.9273C31.876 45.0596 31.8396 45.1787 31.7669 45.2845C31.6941 45.3887 31.5974 45.4697 31.4766 45.5276L31.489 45.545C31.6395 45.583 31.7652 45.6599 31.8661 45.7757C31.9686 45.8914 32.0199 46.0402 32.0199 46.2221ZM31.3973 44.9993C31.3973 44.9364 31.3865 44.8819 31.365 44.8356C31.3452 44.7893 31.3096 44.7529 31.2584 44.7264C31.1988 44.695 31.1319 44.6768 31.0574 44.6719C30.9847 44.6652 30.883 44.6619 30.7523 44.6619H30.3083V45.421H30.8441C30.9582 45.421 31.0392 45.416 31.0872 45.4061C31.1352 45.3945 31.1881 45.3713 31.246 45.3366C31.3005 45.3035 31.3394 45.2589 31.3625 45.2027C31.3857 45.1465 31.3973 45.0787 31.3973 44.9993ZM31.5386 46.2246C31.5386 46.1304 31.5246 46.0551 31.4965 45.9989C31.47 45.941 31.4105 45.8898 31.3179 45.8451C31.26 45.817 31.198 45.7996 31.1319 45.793C31.0657 45.7864 30.9739 45.7831 30.8565 45.7831H30.3083V46.6885H30.7127C30.8797 46.6885 31.0095 46.6819 31.1021 46.6686C31.1947 46.6554 31.2741 46.6289 31.3402 46.5893C31.4097 46.5463 31.4601 46.4967 31.4915 46.4404C31.5229 46.3842 31.5386 46.3123 31.5386 46.2246ZM34.7409 47.0605H34.1605L33.2105 45.7831H32.9773V47.0605H32.511V44.2899H32.9773V45.4954C33.098 45.4937 33.2006 45.4689 33.2849 45.421C33.3709 45.3713 33.4436 45.2763 33.5032 45.1357C33.5214 45.0944 33.5412 45.0464 33.5627 44.9918C33.5859 44.9373 33.6041 44.8893 33.6173 44.848C33.69 44.6446 33.7909 44.5007 33.9199 44.4164C34.0489 44.332 34.2167 44.2899 34.4234 44.2899H34.5499V44.6917H34.4433C34.3126 44.6917 34.2142 44.719 34.1481 44.7736C34.0836 44.8265 34.029 44.924 33.9844 45.0663C33.9381 45.2101 33.8835 45.3226 33.8207 45.4036C33.7578 45.483 33.6884 45.5442 33.6123 45.5871L34.7409 47.0605ZM37.2288 47.0605H36.7675V44.9943L35.4628 47.0605H35.0411V44.2899H35.5024V46.3238L36.7923 44.2899H37.2288V47.0605Z" fill="#303549"/>
<path d="M14.8282 33.7779C14.5868 33.7779 14.3644 33.7374 14.161 33.6564C13.9592 33.5753 13.7848 33.4546 13.6376 33.2942C13.4904 33.1338 13.3763 32.9337 13.2953 32.6939C13.2143 32.4542 13.1738 32.1788 13.1738 31.8679C13.1738 31.5587 13.2126 31.2892 13.2903 31.0593C13.3697 30.8295 13.4847 30.6294 13.6351 30.459C13.7823 30.2937 13.9568 30.168 14.1585 30.082C14.3603 29.9944 14.586 29.9505 14.8357 29.9505C14.9597 29.9505 15.0755 29.9596 15.1829 29.9778C15.2921 29.996 15.393 30.0192 15.4856 30.0473C15.5649 30.0721 15.646 30.1035 15.7286 30.1415C15.813 30.1779 15.8957 30.2184 15.9767 30.2631V30.8559H15.937C15.894 30.8162 15.8386 30.7683 15.7708 30.7121C15.703 30.6558 15.6203 30.6004 15.5228 30.5459C15.4285 30.4946 15.326 30.4524 15.2152 30.4194C15.1044 30.3863 14.9762 30.3697 14.8307 30.3697C14.6736 30.3697 14.5248 30.402 14.3842 30.4665C14.2437 30.531 14.1205 30.6261 14.0146 30.7517C13.9105 30.8774 13.8294 31.0353 13.7716 31.2255C13.7137 31.4157 13.6847 31.6298 13.6847 31.8679C13.6847 32.121 13.7153 32.3392 13.7765 32.5228C13.8377 32.7047 13.9212 32.8585 14.027 32.9842C14.1296 33.1065 14.2503 33.1991 14.3892 33.262C14.5281 33.3232 14.6753 33.3538 14.8307 33.3538C14.9729 33.3538 15.1044 33.3364 15.2251 33.3017C15.3458 33.2669 15.4533 33.2231 15.5476 33.1702C15.6385 33.1189 15.7171 33.0668 15.7832 33.0139C15.8494 32.9594 15.9015 32.9131 15.9395 32.875H15.9767V33.4604C15.8957 33.4984 15.8188 33.5348 15.746 33.5696C15.6749 33.6043 15.5881 33.6382 15.4856 33.6713C15.3781 33.706 15.278 33.7324 15.1854 33.7506C15.0945 33.7688 14.9754 33.7779 14.8282 33.7779ZM18.6779 32.3268C18.6779 32.7932 18.5655 33.1537 18.3406 33.4083C18.1157 33.6613 17.8164 33.7878 17.4427 33.7878C17.0574 33.7878 16.7539 33.6572 16.5323 33.3959C16.3124 33.133 16.2024 32.7766 16.2024 32.3268C16.2024 31.8638 16.3157 31.5041 16.5422 31.2478C16.7704 30.9915 17.0706 30.8634 17.4427 30.8634C17.8164 30.8634 18.1157 30.9915 18.3406 31.2478C18.5655 31.5025 18.6779 31.8622 18.6779 32.3268ZM18.1967 32.3268C18.1967 31.968 18.1314 31.7018 18.0008 31.5281C17.8701 31.3528 17.6841 31.2652 17.4427 31.2652C17.1996 31.2652 17.0119 31.3528 16.8796 31.5281C16.7489 31.7018 16.6836 31.968 16.6836 32.3268C16.6836 32.6741 16.7489 32.9379 16.8796 33.1181C17.0119 33.2967 17.1996 33.386 17.4427 33.386C17.6824 33.386 17.8676 33.2984 17.9983 33.1231C18.1306 32.9461 18.1967 32.6807 18.1967 32.3268ZM21.1807 31.3495H20.2381V33.7109H19.7718V31.3495H18.8292V30.9403H21.1807V31.3495ZM23.8522 32.2524C23.8522 32.7138 23.7414 33.0817 23.5198 33.3562C23.2999 33.6291 23.0212 33.7655 22.6839 33.7655C22.5466 33.7655 22.4251 33.7498 22.3193 33.7184C22.2134 33.687 22.1051 33.6382 21.9943 33.572V34.7329H21.528V30.9403H21.9943V31.2305C22.1101 31.1263 22.2382 31.0395 22.3788 30.97C22.521 30.8989 22.6756 30.8634 22.8426 30.8634C23.1601 30.8634 23.4074 30.989 23.5843 31.2404C23.7629 31.4917 23.8522 31.8291 23.8522 32.2524ZM23.371 32.3045C23.371 31.9887 23.3205 31.7439 23.2197 31.5703C23.1188 31.395 22.9551 31.3074 22.7285 31.3074C22.5962 31.3074 22.4681 31.3371 22.3441 31.3967C22.2217 31.4545 22.1051 31.5298 21.9943 31.6224V33.1925C22.1167 33.2521 22.2209 33.2926 22.3069 33.3141C22.3945 33.3356 22.4945 33.3463 22.607 33.3463C22.8484 33.3463 23.0361 33.2578 23.1701 33.0809C23.304 32.904 23.371 32.6452 23.371 32.3045ZM26.5137 30.9403L25.023 34.7329H24.5244L25.0205 33.577L24.0134 30.9403H24.517L25.2735 32.9916L26.0276 30.9403H26.5137ZM29.2422 34.3757H28.8082V33.7035H26.9825V34.3757H26.5485V33.3141H26.732C26.8891 33.0561 27.0173 32.7196 27.1165 32.3045C27.2174 31.8878 27.2678 31.433 27.2678 30.9403H28.9669V33.3141H29.2422V34.3757ZM28.5006 33.3141V31.3322H27.7068C27.6853 31.7456 27.6283 32.1234 27.5357 32.4657C27.4447 32.8064 27.3298 33.0892 27.1909 33.3141H28.5006ZM31.8914 33.7109H31.4251V32.4633H30.1699V33.7109H29.7036V30.9403H30.1699V32.0614H31.4251V30.9403H31.8914V33.7109ZM34.7538 33.7109H34.2925V31.6447L32.9878 33.7109H32.5661V30.9403H33.0274V32.9742L34.3173 30.9403H34.7538V33.7109ZM37.6585 33.7109H37.078L36.128 32.4335H35.8949V33.7109H35.4285V30.9403H35.8949V32.1458C36.0156 32.1441 36.1181 32.1193 36.2024 32.0713C36.2884 32.0217 36.3612 31.9267 36.4207 31.7861C36.4389 31.7448 36.4588 31.6968 36.4803 31.6422C36.5034 31.5877 36.5216 31.5397 36.5348 31.4984C36.6076 31.295 36.7085 31.1511 36.8374 31.0668C36.9664 30.9824 37.1343 30.9403 37.341 30.9403H37.4675V31.3421H37.3608C37.2302 31.3421 37.1318 31.3694 37.0656 31.4239C37.0011 31.4769 36.9466 31.5744 36.9019 31.7166C36.8556 31.8605 36.8011 31.973 36.7382 32.054C36.6754 32.1334 36.6059 32.1945 36.5299 32.2375L37.6585 33.7109ZM40.1464 33.7109H39.685V31.6447L38.3803 33.7109H37.9586V30.9403H38.42V32.9742L39.7098 30.9403H40.1464V33.7109Z" fill="#303549"/>
<path d="M16.136 60.5605H15.6449V57.3037H13.9457V60.5605H13.4546V56.8671H16.136V60.5605ZM19.1746 59.102C19.1746 59.5634 19.0638 59.9313 18.8422 60.2058C18.6222 60.4787 18.3436 60.6151 18.0063 60.6151C17.869 60.6151 17.7475 60.5994 17.6416 60.568C17.5358 60.5366 17.4275 60.4878 17.3167 60.4216V61.5825H16.8504V57.7899H17.3167V58.0801C17.4325 57.9759 17.5606 57.8891 17.7012 57.8196C17.8434 57.7485 17.998 57.713 18.165 57.713C18.4825 57.713 18.7297 57.8386 18.9067 58.09C19.0853 58.3414 19.1746 58.6787 19.1746 59.102ZM18.6934 59.1541C18.6934 58.8383 18.6429 58.5935 18.542 58.4199C18.4412 58.2446 18.2775 58.157 18.0509 58.157C17.9186 58.157 17.7905 58.1867 17.6664 58.2463C17.5441 58.3041 17.4275 58.3794 17.3167 58.472V60.0421C17.4391 60.1017 17.5432 60.1422 17.6292 60.1637C17.7169 60.1852 17.8169 60.1959 17.9294 60.1959C18.1708 60.1959 18.3585 60.1074 18.4924 59.9305C18.6264 59.7536 18.6934 59.4948 18.6934 59.1541ZM21.9378 59.1764C21.9378 59.6428 21.8254 60.0033 21.6005 60.2579C21.3756 60.5109 21.0763 60.6374 20.7025 60.6374C20.3172 60.6374 20.0138 60.5068 19.7922 60.2455C19.5723 59.9826 19.4623 59.6262 19.4623 59.1764C19.4623 58.7134 19.5756 58.3538 19.8021 58.0974C20.0303 57.8411 20.3305 57.713 20.7025 57.713C21.0763 57.713 21.3756 57.8411 21.6005 58.0974C21.8254 58.3521 21.9378 58.7118 21.9378 59.1764ZM21.4566 59.1764C21.4566 58.8176 21.3913 58.5514 21.2606 58.3777C21.13 58.2024 20.944 58.1148 20.7025 58.1148C20.4594 58.1148 20.2718 58.2024 20.1395 58.3777C20.0088 58.5514 19.9435 58.8176 19.9435 59.1764C19.9435 59.5237 20.0088 59.7875 20.1395 59.9677C20.2718 60.1463 20.4594 60.2356 20.7025 60.2356C20.9423 60.2356 21.1275 60.148 21.2582 59.9727C21.3905 59.7957 21.4566 59.5303 21.4566 59.1764ZM25.785 59.102C25.785 59.3484 25.7544 59.5667 25.6932 59.7569C25.6337 59.9454 25.5543 60.1008 25.4551 60.2232C25.3542 60.3472 25.2401 60.4415 25.1128 60.506C24.9855 60.5688 24.8524 60.6002 24.7135 60.6002C24.6093 60.6002 24.5175 60.5804 24.4381 60.5407C24.3604 60.501 24.2943 60.4671 24.2397 60.439V61.5825H23.7783V60.439C23.6808 60.4903 23.603 60.53 23.5452 60.5581C23.4873 60.5862 23.3922 60.6002 23.2599 60.6002C22.949 60.6002 22.7001 60.4746 22.5133 60.2232C22.3264 59.9702 22.233 59.6238 22.233 59.1839C22.233 58.9524 22.2628 58.7457 22.3223 58.5638C22.3818 58.3819 22.4637 58.2273 22.5678 58.0999C22.6638 57.9825 22.7746 57.8916 22.9002 57.8271C23.0276 57.7609 23.1599 57.7279 23.2971 57.7279C23.3947 57.7279 23.4823 57.7452 23.56 57.7799C23.6394 57.813 23.7122 57.851 23.7783 57.894V56.7009H24.2397V57.894C24.3124 57.8494 24.396 57.8105 24.4902 57.7775C24.5845 57.7444 24.6812 57.7279 24.7804 57.7279C25.0913 57.7279 25.3361 57.8527 25.5146 58.1024C25.6949 58.3504 25.785 58.6837 25.785 59.102ZM25.3063 59.1541C25.3063 58.8383 25.2525 58.5886 25.1451 58.405C25.0392 58.2215 24.8821 58.1297 24.6738 58.1297C24.5878 58.1297 24.5117 58.1413 24.4456 58.1644C24.3811 58.1859 24.3124 58.2099 24.2397 58.2363V60.0843C24.3124 60.119 24.3711 60.1471 24.4158 60.1686C24.4621 60.1901 24.5291 60.2009 24.6167 60.2009C24.8317 60.2009 25.0004 60.1124 25.1227 59.9355C25.2451 59.7585 25.3063 59.4981 25.3063 59.1541ZM23.7783 60.0843V58.2363C23.7188 58.2082 23.6593 58.1834 23.5997 58.1619C23.5402 58.1404 23.474 58.1297 23.4013 58.1297C23.1896 58.1297 23.0218 58.2132 22.8978 58.3802C22.7737 58.5472 22.7117 58.8077 22.7117 59.1616C22.7117 59.484 22.7671 59.7379 22.8779 59.9231C22.9904 60.1083 23.1508 60.2009 23.3591 60.2009C23.4418 60.2009 23.5162 60.1885 23.5824 60.1637C23.6485 60.1389 23.7138 60.1124 23.7783 60.0843ZM27.4792 60.625C27.0377 60.625 26.6945 60.501 26.4498 60.253C26.2067 60.0033 26.0852 59.6494 26.0852 59.1913C26.0852 58.7399 26.2034 58.381 26.4399 58.1148C26.6763 57.8469 26.9856 57.713 27.3676 57.713C27.5395 57.713 27.6917 57.7378 27.824 57.7874C27.9563 57.837 28.072 57.9147 28.1712 58.0205C28.2704 58.1264 28.3465 58.2562 28.3994 58.41C28.4523 58.5621 28.4788 58.749 28.4788 58.9706V59.2236H26.5589C26.5589 59.546 26.64 59.7924 26.802 59.9628C26.9641 60.1331 27.1881 60.2182 27.4742 60.2182C27.5767 60.2182 27.6768 60.2067 27.7744 60.1835C27.8736 60.1604 27.9629 60.1306 28.0422 60.0942C28.1266 60.0562 28.1977 60.0198 28.2556 59.9851C28.3134 59.9487 28.3614 59.9148 28.3994 59.8834H28.4267V60.3919C28.3721 60.4134 28.3043 60.4407 28.2233 60.4737C28.1423 60.5051 28.0695 60.53 28.005 60.5481C27.9141 60.5729 27.8314 60.592 27.757 60.6052C27.6842 60.6184 27.5916 60.625 27.4792 60.625ZM28.0249 58.8664C28.0216 58.7407 28.0067 58.6324 27.9802 58.5414C27.9538 58.4505 27.9157 58.3736 27.8661 58.3108C27.8116 58.2413 27.7413 58.1884 27.6553 58.152C27.571 58.1156 27.4659 58.0974 27.3403 58.0974C27.2162 58.0974 27.1104 58.1165 27.0228 58.1545C26.9368 58.1909 26.8582 58.2446 26.7871 58.3157C26.7177 58.3885 26.6648 58.4695 26.6284 58.5588C26.592 58.6465 26.5688 58.749 26.5589 58.8664H28.0249ZM30.0514 60.6226C29.8613 60.6226 29.6868 60.5936 29.528 60.5357C29.3693 60.4762 29.2329 60.3869 29.1188 60.2679C29.0047 60.1488 28.9162 59.9991 28.8534 59.8189C28.7905 59.637 28.7591 59.4237 28.7591 59.1789C28.7591 58.9358 28.7913 58.7258 28.8558 58.5489C28.922 58.3719 29.0096 58.2231 29.1188 58.1024C29.2279 57.9817 29.3635 57.8891 29.5256 57.8246C29.6893 57.7584 29.8646 57.7254 30.0514 57.7254C30.2036 57.7254 30.3499 57.7469 30.4905 57.7899C30.6327 57.8329 30.7592 57.8825 30.87 57.9387V58.4621H30.8427C30.8096 58.434 30.7666 58.4017 30.7137 58.3653C30.6624 58.329 30.5996 58.2917 30.5252 58.2537C30.4607 58.2206 30.3846 58.1917 30.297 58.1669C30.2093 58.1421 30.125 58.1297 30.044 58.1297C29.8025 58.1297 29.6082 58.2215 29.4611 58.405C29.3155 58.5869 29.2428 58.8449 29.2428 59.1789C29.2428 59.5063 29.3131 59.7618 29.4536 59.9454C29.5958 60.1273 29.7926 60.2182 30.044 60.2182C30.1961 60.2182 30.3408 60.1868 30.4781 60.124C30.6153 60.0611 30.7369 59.9801 30.8427 59.8809H30.87V60.4043C30.8237 60.4258 30.7658 60.4522 30.6963 60.4837C30.6269 60.5134 30.5641 60.5357 30.5078 60.5506C30.4285 60.5738 30.3573 60.5911 30.2945 60.6027C30.2317 60.6159 30.1506 60.6226 30.0514 60.6226ZM32.3979 60.6226C32.2078 60.6226 32.0333 60.5936 31.8746 60.5357C31.7158 60.4762 31.5794 60.3869 31.4653 60.2679C31.3512 60.1488 31.2627 59.9991 31.1999 59.8189C31.137 59.637 31.1056 59.4237 31.1056 59.1789C31.1056 58.9358 31.1379 58.7258 31.2024 58.5489C31.2685 58.3719 31.3561 58.2231 31.4653 58.1024C31.5744 57.9817 31.71 57.8891 31.8721 57.8246C32.0358 57.7584 32.2111 57.7254 32.3979 57.7254C32.5501 57.7254 32.6964 57.7469 32.837 57.7899C32.9792 57.8329 33.1057 57.8825 33.2165 57.9387V58.4621H33.1892C33.1561 58.434 33.1131 58.4017 33.0602 58.3653C33.009 58.329 32.9461 58.2917 32.8717 58.2537C32.8072 58.2206 32.7312 58.1917 32.6435 58.1669C32.5559 58.1421 32.4715 58.1297 32.3905 58.1297C32.1491 58.1297 31.9548 58.2215 31.8076 58.405C31.6621 58.5869 31.5893 58.8449 31.5893 59.1789C31.5893 59.5063 31.6596 59.7618 31.8002 59.9454C31.9424 60.1273 32.1392 60.2182 32.3905 60.2182C32.5426 60.2182 32.6873 60.1868 32.8246 60.124C32.9618 60.0611 33.0834 59.9801 33.1892 59.8809H33.2165V60.4043C33.1702 60.4258 33.1123 60.4522 33.0429 60.4837C32.9734 60.5134 32.9106 60.5357 32.8544 60.5506C32.775 60.5738 32.7039 60.5911 32.641 60.6027C32.5782 60.6159 32.4972 60.6226 32.3979 60.6226ZM35.8309 60.5605H35.3695V58.4943L34.0648 60.5605H33.6431V57.7899H34.1045V59.8238L35.3944 57.7899H35.8309V60.5605ZM38.6934 60.5605H38.232V58.4943L36.9273 60.5605H36.5056V57.7899H36.967V59.8238L38.2568 57.7899H38.6934V60.5605Z" fill="#303549"/>
<path d="M16.0665 72.2307C16.2071 72.3928 16.3162 72.5937 16.394 72.8335C16.4717 73.0733 16.5105 73.347 16.5105 73.6545C16.5105 73.9538 16.4725 74.2242 16.3964 74.4656C16.3204 74.7071 16.2104 74.9096 16.0665 75.0734C15.9161 75.2453 15.7399 75.3727 15.5382 75.4554C15.3381 75.5364 15.1173 75.5769 14.8759 75.5769C14.6262 75.5769 14.4013 75.5347 14.2012 75.4504C14.0011 75.3661 13.8292 75.2404 13.6853 75.0734C13.5431 74.9096 13.4339 74.7079 13.3579 74.4681C13.2818 74.2283 13.2438 73.9571 13.2438 73.6545C13.2438 73.3436 13.2818 73.0708 13.3579 72.836C13.4356 72.6012 13.5456 72.3994 13.6878 72.2307C13.83 72.067 14.0011 71.943 14.2012 71.8587C14.403 71.7727 14.6279 71.7297 14.8759 71.7297C15.1273 71.7297 15.3538 71.7735 15.5556 71.8612C15.7573 71.9488 15.9276 72.072 16.0665 72.2307ZM15.9996 73.6545C15.9996 73.4098 15.9731 73.1932 15.9202 73.0046C15.8673 72.8161 15.7929 72.6599 15.6969 72.5358C15.5994 72.4085 15.4811 72.3134 15.3422 72.2506C15.205 72.1861 15.0504 72.1538 14.8784 72.1538C14.6998 72.1538 14.5435 72.1853 14.4096 72.2481C14.2773 72.3093 14.1599 72.4052 14.0574 72.5358C13.9598 72.6615 13.8846 72.8194 13.8316 73.0096C13.7804 73.1998 13.7547 73.4148 13.7547 73.6545C13.7547 74.139 13.8564 74.5103 14.0598 74.7683C14.2632 75.0246 14.5361 75.1527 14.8784 75.1527C15.2207 75.1527 15.4927 75.0246 15.6945 74.7683C15.8979 74.5103 15.9996 74.139 15.9996 73.6545ZM19.0381 73.1386H18.0956V75.5H17.6292V73.1386H16.6867V72.7293H19.0381V73.1386ZM21.469 75.5H21.0027V74.4185C20.8572 74.4665 20.7158 74.5037 20.5785 74.5301C20.4413 74.5566 20.3057 74.5698 20.1717 74.5698C20.0543 74.5698 19.9394 74.5549 19.8269 74.5252C19.7161 74.4938 19.6202 74.4433 19.5392 74.3739C19.4582 74.3044 19.3953 74.2159 19.3507 74.1085C19.3077 73.9993 19.2862 73.8712 19.2862 73.724V72.7293H19.7525V73.4809C19.7525 73.6033 19.7575 73.7008 19.7674 73.7736C19.7773 73.8447 19.8046 73.9142 19.8493 73.982C19.8873 74.0398 19.9443 74.0845 20.0204 74.1159C20.0981 74.1473 20.1998 74.163 20.3255 74.163C20.4346 74.163 20.5512 74.1523 20.6753 74.1308C20.8009 74.1093 20.9101 74.0837 21.0027 74.0539V72.7293H21.469V75.5ZM23.3467 75.5645C22.9052 75.5645 22.5621 75.4405 22.3173 75.1924C22.0742 74.9427 21.9527 74.5888 21.9527 74.1308C21.9527 73.6793 22.0709 73.3205 22.3074 73.0543C22.5439 72.7864 22.8531 72.6524 23.2351 72.6524C23.4071 72.6524 23.5592 72.6772 23.6915 72.7268C23.8238 72.7764 23.9395 72.8542 24.0388 72.96C24.138 73.0658 24.2141 73.1956 24.267 73.3494C24.3199 73.5016 24.3463 73.6884 24.3463 73.91V74.163H22.4265C22.4265 74.4855 22.5075 74.7319 22.6695 74.9022C22.8316 75.0725 23.0557 75.1577 23.3418 75.1577C23.4443 75.1577 23.5443 75.1461 23.6419 75.123C23.7411 75.0998 23.8304 75.0701 23.9098 75.0337C23.9941 74.9956 24.0652 74.9593 24.1231 74.9245C24.181 74.8882 24.2289 74.8543 24.267 74.8228H24.2943V75.3313C24.2397 75.3528 24.1719 75.3801 24.0909 75.4132C24.0098 75.4446 23.9371 75.4694 23.8726 75.4876C23.7816 75.5124 23.6989 75.5314 23.6245 75.5446C23.5518 75.5579 23.4592 75.5645 23.3467 75.5645ZM23.8924 73.8058C23.8891 73.6802 23.8742 73.5718 23.8478 73.4809C23.8213 73.3899 23.7833 73.3131 23.7337 73.2502C23.6791 73.1808 23.6088 73.1278 23.5228 73.0915C23.4385 73.0551 23.3335 73.0369 23.2078 73.0369C23.0838 73.0369 22.978 73.0559 22.8903 73.0939C22.8043 73.1303 22.7258 73.1841 22.6547 73.2552C22.5852 73.3279 22.5323 73.409 22.4959 73.4983C22.4595 73.5859 22.4364 73.6884 22.4265 73.8058H23.8924ZM26.8417 73.1386H25.8991V75.5H25.4328V73.1386H24.4902V72.7293H26.8417V73.1386ZM29.2453 74.6418C29.2453 74.7757 29.218 74.8972 29.1634 75.0064C29.1105 75.1155 29.0377 75.204 28.9451 75.2718C28.836 75.3545 28.7194 75.4132 28.5954 75.4479C28.4714 75.4826 28.3118 75.5 28.1167 75.5H27.189V72.7293H27.6553V73.8083H28.1291C28.3374 73.8083 28.4986 73.8191 28.6128 73.8406C28.7285 73.8621 28.8434 73.915 28.9575 73.9993C29.0534 74.0704 29.1254 74.1614 29.1733 74.2722C29.2213 74.383 29.2453 74.5062 29.2453 74.6418ZM28.7641 74.6492C28.7641 74.5649 28.7492 74.4913 28.7194 74.4284C28.6913 74.3639 28.6442 74.3119 28.578 74.2722C28.5086 74.2308 28.4292 74.206 28.3399 74.1978C28.2523 74.1895 28.1258 74.1854 27.9604 74.1854H27.6553V75.1279H27.9505C28.1158 75.1279 28.244 75.1213 28.3349 75.1081C28.4259 75.0932 28.5044 75.0659 28.5706 75.0262C28.6384 74.9832 28.6872 74.9328 28.7169 74.8749C28.7483 74.8154 28.7641 74.7401 28.7641 74.6492ZM30.0341 75.5H29.5677V72.7293H30.0341V75.5Z" fill="#303549"/>
<path d="M246.324 20.9223H245.754V19.8883H242.825V20.9223H242.255V19.3667H242.5C242.763 18.9361 242.974 18.3721 243.134 17.6747C243.296 16.9753 243.377 16.2122 243.377 15.3854H245.896V19.3667H246.324V20.9223ZM245.296 19.3667V15.9069H243.941C243.912 16.6367 243.821 17.2987 243.668 17.8931C243.514 18.4874 243.318 18.9786 243.079 19.3667H245.296ZM249.699 18.1174C249.699 18.6814 249.563 19.1312 249.292 19.4668C249.024 19.8003 248.683 19.9671 248.271 19.9671C248.103 19.9671 247.954 19.9479 247.825 19.9095C247.695 19.8711 247.563 19.8114 247.428 19.7306V21.1497H246.858V16.5134H247.428V16.8682C247.569 16.7408 247.726 16.6347 247.898 16.5498C248.071 16.4629 248.26 16.4194 248.465 16.4194C248.853 16.4194 249.155 16.573 249.371 16.8803C249.59 17.1876 249.699 17.5999 249.699 18.1174ZM249.11 18.1811C249.11 17.795 249.049 17.4958 248.926 17.2836C248.802 17.0693 248.602 16.9622 248.325 16.9622C248.163 16.9622 248.007 16.9985 247.855 17.0713C247.706 17.1421 247.563 17.2341 247.428 17.3473V19.2667C247.577 19.3394 247.705 19.389 247.81 19.4152C247.917 19.4415 248.039 19.4547 248.177 19.4547C248.472 19.4547 248.701 19.3465 248.865 19.1302C249.029 18.9139 249.11 18.5975 249.11 18.1811ZM252.952 16.5134L251.13 21.1497H250.52L251.127 19.7367L249.896 16.5134H250.511L251.436 19.021L252.358 16.5134H252.952ZM255.536 17.0137H253.953V19.9004H253.383V16.5134H255.536V17.0137ZM257.852 19.0665V18.1265C257.717 18.1387 257.545 18.1558 257.337 18.1781C257.131 18.1983 256.964 18.2276 256.837 18.266C256.685 18.3125 256.56 18.3843 256.461 18.4813C256.362 18.5763 256.312 18.7097 256.312 18.8816C256.312 19.0756 256.367 19.2222 256.476 19.3212C256.585 19.4203 256.745 19.4698 256.955 19.4698C257.135 19.4698 257.297 19.4314 257.443 19.3546C257.589 19.2758 257.725 19.1797 257.852 19.0665ZM257.852 19.5396C257.806 19.5739 257.743 19.6224 257.664 19.6851C257.588 19.7457 257.513 19.7943 257.44 19.8306C257.339 19.8832 257.241 19.9236 257.146 19.9519C257.053 19.9802 256.922 19.9944 256.752 19.9944C256.612 19.9944 256.48 19.9681 256.354 19.9156C256.229 19.863 256.119 19.7892 256.024 19.6942C255.933 19.6012 255.86 19.487 255.806 19.3516C255.751 19.2141 255.724 19.0696 255.724 18.9179C255.724 18.6835 255.773 18.4843 255.872 18.3206C255.971 18.1548 256.128 18.0234 256.342 17.9264C256.532 17.8395 256.757 17.7799 257.016 17.7475C257.274 17.7131 257.553 17.6879 257.852 17.6717V17.5625C257.852 17.4291 257.832 17.322 257.792 17.2411C257.751 17.1582 257.695 17.0946 257.622 17.0501C257.549 17.0036 257.46 16.9733 257.355 16.9591C257.25 16.943 257.142 16.9349 257.031 16.9349C256.899 16.9349 256.745 16.9551 256.567 16.9955C256.389 17.0339 256.211 17.0905 256.033 17.1653H256V16.5862C256.105 16.5558 256.255 16.5225 256.452 16.4861C256.648 16.4497 256.842 16.4315 257.034 16.4315C257.266 16.4315 257.462 16.4497 257.622 16.4861C257.782 16.5225 257.925 16.5882 258.053 16.6832C258.176 16.7762 258.268 16.8965 258.328 17.044C258.389 17.1916 258.419 17.3715 258.419 17.5838V19.9004H257.852V19.5396ZM261.676 19.9004H261.106V18.5571H260.542L259.538 19.9004H258.874L259.963 18.5056C259.682 18.4227 259.476 18.2994 259.344 18.1356C259.215 17.9719 259.15 17.7526 259.15 17.4776C259.15 17.3099 259.187 17.1633 259.259 17.038C259.334 16.9106 259.434 16.8035 259.56 16.7166C259.661 16.6478 259.788 16.5973 259.942 16.5649C260.095 16.5306 260.267 16.5134 260.457 16.5134H261.676V19.9004ZM261.106 18.1083V16.9682H260.487C260.356 16.9682 260.252 16.9753 260.175 16.9895C260.1 17.0036 260.028 17.0309 259.957 17.0713C259.884 17.1158 259.828 17.1764 259.79 17.2533C259.754 17.3281 259.735 17.4089 259.735 17.4958C259.735 17.607 259.748 17.698 259.772 17.7687C259.798 17.8375 259.845 17.9011 259.911 17.9598C259.982 18.0204 260.068 18.0608 260.169 18.0811C260.272 18.0992 260.384 18.1083 260.506 18.1083H261.106ZM267.119 19.9004H266.555V17.3745L264.96 19.9004H264.444V16.5134H265.008V18.9998L266.585 16.5134H267.119V19.9004ZM270.618 19.9004H270.048V18.3752H268.514V19.9004H267.944V16.5134H268.514V17.884H270.048V16.5134H270.618V19.9004ZM275.561 18.1174C275.561 18.4186 275.523 18.6855 275.448 18.9179C275.376 19.1484 275.279 19.3384 275.157 19.488C275.034 19.6396 274.895 19.7548 274.739 19.8337C274.583 19.9105 274.42 19.9489 274.251 19.9489C274.123 19.9489 274.011 19.9246 273.914 19.8761C273.819 19.8276 273.738 19.7862 273.672 19.7518V21.1497H273.108V19.7518C272.988 19.8145 272.893 19.863 272.822 19.8974C272.752 19.9317 272.636 19.9489 272.474 19.9489C272.094 19.9489 271.79 19.7953 271.561 19.488C271.333 19.1787 271.218 18.7552 271.218 18.2175C271.218 17.9345 271.255 17.6818 271.328 17.4594C271.4 17.2371 271.5 17.0481 271.628 16.8924C271.745 16.7489 271.88 16.6377 272.034 16.5589C272.19 16.478 272.351 16.4376 272.519 16.4376C272.639 16.4376 272.746 16.4588 272.841 16.5013C272.938 16.5417 273.027 16.5882 273.108 16.6407V15.1822H273.672V16.6407C273.76 16.5862 273.863 16.5387 273.978 16.4982C274.093 16.4578 274.211 16.4376 274.333 16.4376C274.713 16.4376 275.012 16.5902 275.23 16.8955C275.45 17.1987 275.561 17.606 275.561 18.1174ZM274.975 18.1811C274.975 17.795 274.91 17.4898 274.778 17.2654C274.649 17.041 274.457 16.9288 274.202 16.9288C274.097 16.9288 274.004 16.943 273.923 16.9713C273.844 16.9975 273.76 17.0269 273.672 17.0592V19.3182C273.76 19.3607 273.832 19.395 273.887 19.4213C273.943 19.4476 274.025 19.4607 274.132 19.4607C274.395 19.4607 274.601 19.3526 274.751 19.1363C274.901 18.92 274.975 18.6016 274.975 18.1811ZM273.108 19.3182V17.0592C273.035 17.0248 272.962 16.9945 272.889 16.9682C272.816 16.9419 272.736 16.9288 272.647 16.9288C272.388 16.9288 272.183 17.0309 272.031 17.2351C271.879 17.4392 271.804 17.7576 271.804 18.1902C271.804 18.5844 271.871 18.8947 272.007 19.1211C272.144 19.3475 272.34 19.4607 272.595 19.4607C272.696 19.4607 272.787 19.4456 272.868 19.4152C272.949 19.3849 273.029 19.3526 273.108 19.3182ZM278.948 18.2084C278.948 18.7785 278.81 19.2192 278.535 19.5305C278.26 19.8397 277.894 19.9944 277.438 19.9944C276.967 19.9944 276.596 19.8347 276.325 19.5153C276.056 19.1939 275.921 18.7583 275.921 18.2084C275.921 17.6424 276.06 17.2027 276.337 16.8894C276.616 16.5761 276.983 16.4194 277.438 16.4194C277.894 16.4194 278.26 16.5761 278.535 16.8894C278.81 17.2007 278.948 17.6404 278.948 18.2084ZM278.359 18.2084C278.359 17.7697 278.279 17.4443 278.12 17.232C277.96 17.0178 277.733 16.9106 277.438 16.9106C277.14 16.9106 276.911 17.0178 276.749 17.232C276.59 17.4443 276.51 17.7697 276.51 18.2084C276.51 18.6329 276.59 18.9553 276.749 19.1757C276.911 19.394 277.14 19.5032 277.438 19.5032C277.731 19.5032 277.957 19.396 278.117 19.1818C278.278 18.9655 278.359 18.641 278.359 18.2084ZM282.374 18.1174C282.374 18.6814 282.239 19.1312 281.968 19.4668C281.699 19.8003 281.358 19.9671 280.946 19.9671C280.778 19.9671 280.629 19.9479 280.5 19.9095C280.371 19.8711 280.238 19.8114 280.103 19.7306V21.1497H279.533V16.5134H280.103V16.8682C280.244 16.7408 280.401 16.6347 280.573 16.5498C280.747 16.4629 280.936 16.4194 281.14 16.4194C281.528 16.4194 281.83 16.573 282.047 16.8803C282.265 17.1876 282.374 17.5999 282.374 18.1174ZM281.786 18.1811C281.786 17.795 281.724 17.4958 281.601 17.2836C281.477 17.0693 281.277 16.9622 281 16.9622C280.839 16.9622 280.682 16.9985 280.53 17.0713C280.381 17.1421 280.238 17.2341 280.103 17.3473V19.2667C280.252 19.3394 280.38 19.389 280.485 19.4152C280.592 19.4415 280.714 19.4547 280.852 19.4547C281.147 19.4547 281.376 19.3465 281.54 19.1302C281.704 18.9139 281.786 18.5975 281.786 18.1811ZM286.107 19.9004H285.543V17.2381L284.73 18.9665H284.306L283.499 17.2381V19.9004H282.965V16.5134H283.654L284.545 18.3934L285.406 16.5134H286.107V19.9004ZM288.824 19.0665V18.1265C288.688 18.1387 288.516 18.1558 288.308 18.1781C288.102 18.1983 287.935 18.2276 287.808 18.266C287.656 18.3125 287.531 18.3843 287.432 18.4813C287.333 18.5763 287.283 18.7097 287.283 18.8816C287.283 19.0756 287.338 19.2222 287.447 19.3212C287.556 19.4203 287.716 19.4698 287.926 19.4698C288.106 19.4698 288.269 19.4314 288.414 19.3546C288.56 19.2758 288.696 19.1797 288.824 19.0665ZM288.824 19.5396C288.777 19.5739 288.714 19.6224 288.636 19.6851C288.559 19.7457 288.484 19.7943 288.411 19.8306C288.31 19.8832 288.212 19.9236 288.117 19.9519C288.024 19.9802 287.893 19.9944 287.723 19.9944C287.583 19.9944 287.451 19.9681 287.326 19.9156C287.2 19.863 287.09 19.7892 286.995 19.6942C286.904 19.6012 286.831 19.487 286.777 19.3516C286.722 19.2141 286.695 19.0696 286.695 18.9179C286.695 18.6835 286.744 18.4843 286.844 18.3206C286.943 18.1548 287.099 18.0234 287.314 17.9264C287.504 17.8395 287.728 17.7799 287.987 17.7475C288.245 17.7131 288.524 17.6879 288.824 17.6717V17.5625C288.824 17.4291 288.803 17.322 288.763 17.2411C288.722 17.1582 288.666 17.0946 288.593 17.0501C288.52 17.0036 288.431 16.9733 288.326 16.9591C288.221 16.943 288.113 16.9349 288.002 16.9349C287.87 16.9349 287.716 16.9551 287.538 16.9955C287.36 17.0339 287.182 17.0905 287.004 17.1653H286.971V16.5862C287.076 16.5558 287.227 16.5225 287.423 16.4861C287.619 16.4497 287.813 16.4315 288.005 16.4315C288.237 16.4315 288.433 16.4497 288.593 16.4861C288.753 16.5225 288.896 16.5882 289.024 16.6832C289.147 16.7762 289.239 16.8965 289.3 17.044C289.36 17.1916 289.391 17.3715 289.391 17.5838V19.9004H288.824V19.5396ZM293.184 20.713H292.653V19.9004H290.194V16.5134H290.764V19.4092H292.277V16.5134H292.847V19.4092H293.184V20.713ZM296.422 19.9004H295.858V17.3745L294.263 19.9004H293.748V16.5134H294.312V18.9998L295.889 16.5134H296.422V19.9004ZM299.7 19.9004H299.13V18.5571H298.566L297.562 19.9004H296.898L297.987 18.5056C297.706 18.4227 297.5 18.2994 297.368 18.1356C297.239 17.9719 297.174 17.7526 297.174 17.4776C297.174 17.3099 297.211 17.1633 297.283 17.038C297.358 16.9106 297.458 16.8035 297.584 16.7166C297.685 16.6478 297.812 16.5973 297.966 16.5649C298.119 16.5306 298.291 16.5134 298.481 16.5134H299.7V19.9004ZM299.13 18.1083V16.9682H298.512C298.38 16.9682 298.276 16.9753 298.199 16.9895C298.124 17.0036 298.052 17.0309 297.981 17.0713C297.908 17.1158 297.853 17.1764 297.814 17.2533C297.778 17.3281 297.76 17.4089 297.76 17.4958C297.76 17.607 297.772 17.698 297.796 17.7687C297.822 17.8375 297.869 17.9011 297.935 17.9598C298.006 18.0204 298.092 18.0608 298.193 18.0811C298.296 18.0992 298.408 18.1083 298.53 18.1083H299.13Z" fill="#606580"/>
<path d="M274.36 75.8207C274.128 75.8204 273.898 75.7798 273.68 75.7007L257.74 69.7007C257.266 69.5168 256.88 69.1592 256.66 68.7007C256.556 68.471 256.497 68.2229 256.489 67.9707C256.48 67.7184 256.521 67.467 256.61 67.2307L264.27 46.7207C264.406 46.3552 264.65 46.0398 264.97 45.8165C265.29 45.5932 265.67 45.4726 266.06 45.4707C266.292 45.471 266.522 45.5116 266.74 45.5907L282.68 51.5907C283.154 51.7746 283.54 52.1322 283.76 52.5907C283.865 52.8204 283.923 53.0685 283.931 53.3207C283.94 53.573 283.899 53.8244 283.81 54.0607L276.15 74.5707C276.014 74.9362 275.77 75.2516 275.45 75.4749C275.13 75.6982 274.75 75.8188 274.36 75.8207ZM266.06 47.1307C265.999 47.1313 265.939 47.1508 265.889 47.1866C265.838 47.2223 265.801 47.2727 265.78 47.3307L258.12 67.8407C258.093 67.9185 258.093 68.0029 258.12 68.0807C258.137 68.1158 258.161 68.1472 258.19 68.173C258.219 68.1988 258.253 68.2184 258.29 68.2307L274.24 74.2307H274.35C274.412 74.2301 274.471 74.2106 274.522 74.1748C274.572 74.1391 274.61 74.0887 274.63 74.0307L282.3 53.5007C282.327 53.4229 282.327 53.3385 282.3 53.2607C282.283 53.2256 282.26 53.1942 282.23 53.1684C282.201 53.1426 282.167 53.123 282.13 53.1107L266.18 47.1107L266.06 47.1307Z" fill="#0089FF"/>
<path d="M276.58 53.2694C276.511 53.447 276.374 53.5904 276.201 53.6688C276.027 53.7473 275.829 53.7547 275.65 53.6894L270.65 51.8094C270.47 51.74 270.325 51.6021 270.246 51.426C270.167 51.2499 270.162 51.0497 270.23 50.8694C270.263 50.7806 270.314 50.6993 270.379 50.6301C270.444 50.5609 270.521 50.5052 270.608 50.4662C270.694 50.4271 270.787 50.4056 270.882 50.4027C270.977 50.3998 271.071 50.4157 271.16 50.4494L276.16 52.3294C276.25 52.3627 276.333 52.4136 276.403 52.4789C276.473 52.5442 276.53 52.6228 276.57 52.7101C276.61 52.7975 276.632 52.8918 276.636 52.9878C276.639 53.0837 276.624 53.1794 276.59 53.2694H276.58Z" fill="#0089FF"/>
<path d="M279 57.4711C278.935 57.6321 278.81 57.7612 278.651 57.8304C278.492 57.8997 278.312 57.9035 278.15 57.8411L266 53.3011C265.918 53.2731 265.842 53.229 265.778 53.1713C265.713 53.1136 265.66 53.0436 265.623 52.9654C265.586 52.8871 265.565 52.8021 265.561 52.7155C265.557 52.6289 265.57 52.5424 265.6 52.4611C265.665 52.3001 265.79 52.171 265.949 52.1017C266.108 52.0325 266.288 52.0287 266.45 52.0911L278.61 56.6311C278.692 56.6591 278.768 56.7032 278.832 56.7609C278.897 56.8185 278.95 56.8885 278.987 56.9668C279.024 57.0451 279.046 57.13 279.05 57.2166C279.053 57.3032 279.04 57.3897 279.01 57.4711H279Z" fill="#0089FF"/>
<path d="M278.16 59.6898C278.095 59.8508 277.97 59.9799 277.811 60.0492C277.652 60.1184 277.472 60.1223 277.31 60.0598L265.15 55.5198C265.068 55.4918 264.992 55.4477 264.928 55.3901C264.863 55.3324 264.81 55.2624 264.773 55.1841C264.736 55.1058 264.715 55.0209 264.711 54.9343C264.707 54.8477 264.72 54.7612 264.75 54.6798C264.815 54.5188 264.94 54.3897 265.099 54.3205C265.258 54.2512 265.438 54.2474 265.6 54.3098L277.76 58.8498C277.842 58.8778 277.918 58.9219 277.982 58.9796C278.047 59.0373 278.1 59.1073 278.137 59.1856C278.174 59.2638 278.196 59.3488 278.199 59.4354C278.203 59.522 278.19 59.6085 278.16 59.6898Z" fill="#0089FF"/>
<path d="M277.4 62.0008C277.369 62.0814 277.322 62.155 277.263 62.2174C277.203 62.2797 277.132 62.3296 277.053 62.364C276.973 62.3985 276.888 62.4168 276.802 62.418C276.716 62.4191 276.63 62.4031 276.55 62.3708L264.39 57.8308C264.228 57.7699 264.095 57.6483 264.02 57.4916C263.946 57.3349 263.935 57.1554 263.99 56.9908C264.057 56.8291 264.184 56.6999 264.345 56.6307C264.505 56.5616 264.687 56.558 264.85 56.6208L277 61.1108C277.082 61.1388 277.158 61.183 277.222 61.2406C277.287 61.2983 277.34 61.3683 277.377 61.4466C277.414 61.5248 277.436 61.6098 277.44 61.6964C277.443 61.783 277.43 61.8695 277.4 61.9508V62.0008Z" fill="#0089FF"/>
<path d="M276.6 64.2606C276.568 64.3415 276.52 64.4154 276.46 64.4778C276.399 64.5403 276.327 64.5901 276.247 64.6245C276.167 64.6589 276.081 64.6771 275.994 64.6782C275.907 64.6792 275.821 64.6631 275.74 64.6306L263.59 60.0906C263.508 60.0625 263.432 60.0184 263.367 59.9609C263.302 59.9035 263.249 59.8337 263.211 59.7557C263.173 59.6777 263.15 59.5929 263.145 59.5062C263.14 59.4195 263.152 59.3327 263.18 59.2506C263.247 59.0889 263.374 58.9596 263.535 58.8905C263.695 58.8213 263.877 58.8178 264.04 58.8806L276.19 63.4206C276.354 63.4796 276.489 63.6004 276.566 63.7573C276.642 63.9142 276.655 64.0948 276.6 64.2606Z" fill="#0089FF"/>
<path d="M284.27 82.6195C284.267 82.9864 284.12 83.3374 283.859 83.596C283.599 83.8545 283.247 83.9995 282.88 83.9995H253.88C253.511 83.9995 253.158 83.8531 252.897 83.5924C252.636 83.3317 252.49 82.9782 252.49 82.6095V64.2195C252.49 63.4095 252.49 61.4295 252.49 59.5195H261.36L263.54 62.8295H282.89C283.073 62.8295 283.253 62.8655 283.422 62.9353C283.591 63.0052 283.744 63.1076 283.873 63.2367C284.002 63.3657 284.104 63.519 284.174 63.6876C284.244 63.8562 284.28 64.037 284.28 64.2195L284.27 82.6195Z" fill="#0089FF"/>
<path d="M282.88 84.5895H253.88C253.35 84.5895 252.841 84.3787 252.466 84.0037C252.091 83.6286 251.88 83.1199 251.88 82.5895V63.8595C251.88 62.9295 251.88 61.1895 251.88 59.5195V58.9395H261.65L263.83 62.2495H282.83C283.36 62.2495 283.869 62.4602 284.244 62.8352C284.619 63.2103 284.83 63.719 284.83 64.2495V82.6495C284.815 83.1609 284.604 83.647 284.242 84.0079C283.879 84.3688 283.392 84.5769 282.88 84.5895ZM253.06 60.0995C253.06 61.5795 253.06 63.0295 253.06 63.8595V82.6195C253.06 82.8343 253.145 83.0403 253.297 83.1922C253.449 83.3441 253.655 83.4295 253.87 83.4295H282.87C283.085 83.4295 283.291 83.3441 283.443 83.1922C283.595 83.0403 283.68 82.8343 283.68 82.6195V64.2195C283.68 64.0046 283.595 63.7986 283.443 63.6467C283.291 63.4948 283.085 63.4095 282.87 63.4095H263.22L261 60.0995H253.06Z" fill="#F5F8FD"/>
<path d="M269.58 67.9993C270.221 67.2703 271.063 66.7474 272 66.4967C272.938 66.2461 273.928 66.2788 274.847 66.5908C275.766 66.9028 276.572 67.4801 277.163 68.2498C277.754 69.0195 278.104 69.9471 278.168 70.9153C278.232 71.8836 278.008 72.8492 277.524 73.6902C277.039 74.5312 276.317 75.2098 275.447 75.6403C274.577 76.0709 273.6 76.2341 272.637 76.1093C271.675 75.9846 270.771 75.5774 270.04 74.9393C269.062 74.0783 268.464 72.8648 268.378 71.5643C268.291 70.2637 268.724 68.982 269.58 67.9993ZM276.12 73.7393C276.612 73.177 276.927 72.4814 277.023 71.7404C277.12 70.9995 276.996 70.2464 276.665 69.5764C276.334 68.9064 275.812 68.3494 275.165 67.976C274.517 67.6025 273.774 67.4293 273.028 67.4781C272.283 67.527 271.568 67.7958 270.975 68.2506C270.382 68.7053 269.937 69.3256 269.697 70.0331C269.456 70.7406 269.431 71.5035 269.623 72.2254C269.816 72.9474 270.219 73.596 270.78 74.0893C271.543 74.741 272.532 75.0647 273.533 74.9897C274.533 74.9148 275.463 74.4474 276.12 73.6893V73.7393Z" fill="white"/>
<path d="M260.66 78.5311L268.08 73.3711C268.326 74.1001 268.786 74.7379 269.4 75.2011L262 80.3611C261.757 80.5388 261.454 80.6128 261.157 80.5669C260.86 80.5209 260.593 80.3588 260.415 80.1161C260.237 79.8734 260.163 79.5701 260.209 79.2729C260.255 78.9756 260.417 78.7088 260.66 78.5311Z" fill="white"/>
</svg>
