<svg xmlns="http://www.w3.org/2000/svg" xmlns:xlink="http://www.w3.org/1999/xlink" viewBox="0 0 324 116.75"><defs><style>.a34bb1da-08ca-4683-946f-886495c87ec6{fill:url(#b4ace2b7-ca71-4d2a-bfdc-e99573282abd);}.bfa7d9ee-9fc4-4966-8486-e4d6d0a4313f{fill:none;}.be8a9066-e2f3-4f4d-81d3-9e819bf5abf4,.e41edf27-40bb-4698-9e73-5af6ed72978e{fill:#41a7f3;}.b140da5f-9ffd-4ab7-abd5-a4a8e8076a9a,.b6b6cabd-a679-46b0-bf33-4aec4d94dadd{font-size:5px;}.ad97da65-03e0-43e4-a99a-5593bac3672a,.b6b6cabd-a679-46b0-bf33-4aec4d94dadd,.bf32a978-0dc9-4ce4-8755-4b152a228dfc{fill:#8b95ad;}.ad97da65-03e0-43e4-a99a-5593bac3672a,.b140da5f-9ffd-4ab7-abd5-a4a8e8076a9a,.b6b6cabd-a679-46b0-bf33-4aec4d94dadd{font-family:Tahoma;}.b826a0b7-5d14-4fcb-bdb2-ba948de7a08e,.ec5e250d-475b-4524-99cf-b983b860fb7c,.f21d298a-3a2c-47ed-8ba0-8f6c35ffc483{opacity:0.2;}.b826a0b7-5d14-4fcb-bdb2-ba948de7a08e{fill:url(#a38443c7-99b2-467d-8d00-65a3c9d4ef97);}.ad97da65-03e0-43e4-a99a-5593bac3672a{font-size:6.11px;}.b98f0fb0-b793-4bd1-a2e1-25c35e78a66a{fill:#14171c;}.a8dad44b-5552-4ab5-abf7-740a72eb1f70,.b98f0fb0-b793-4bd1-a2e1-25c35e78a66a{opacity:0.25;}.e7c9fba9-26c0-4d30-afc0-0867ddb19907{opacity:0.5;}.f0f70d58-3495-4fbe-8c69-3a21a813b103{clip-path:url(#bb694538-193f-4a53-bb26-acdfc49f0c9f);}.bd6439a7-afd7-48d6-89af-fa0f0427c3c4{clip-path:url(#fe8531e5-8a6a-4cf6-a130-e417be1a0955);}.a5862cc9-93f4-475e-a7b9-4970adc813ee{opacity:0.3;}.b34314fe-a2fe-4d5b-b9d2-de9ee274c761{mask:url(#e14c104d-b7ed-42f0-aed1-34db22bd4e1f);}.ff7a0bd8-24b5-46b6-b4a5-2c7e5dc81f1a{fill:url(#a4ea7040-aff2-402b-b9ea-0986dfb0ef0c);}.be8a9066-e2f3-4f4d-81d3-9e819bf5abf4{opacity:0.1;}.a1e36f48-3fe2-41d4-ad82-a696874b5474,.a8dad44b-5552-4ab5-abf7-740a72eb1f70,.b140da5f-9ffd-4ab7-abd5-a4a8e8076a9a,.b67d3533-1515-4962-89b4-1de17afc1ee2,.ec5e250d-475b-4524-99cf-b983b860fb7c{fill:#fff;}.bfb22559-5657-4000-9384-e36d1c6871d7{fill:#fffdff;}.b67d3533-1515-4962-89b4-1de17afc1ee2{opacity:0.15;}.f21d298a-3a2c-47ed-8ba0-8f6c35ffc483{fill:url(#b3179bed-3f42-4d33-abfd-14b2d7187c9c);}</style><linearGradient id="b4ace2b7-ca71-4d2a-bfdc-e99573282abd" x1="-2026.28" y1="4337.72" x2="-2025.95" y2="4337.72" gradientTransform="matrix(0, -13.49, -13.49, 0, 58785.24, -27289.24)" gradientUnits="userSpaceOnUse"><stop offset="0"/><stop offset="1" stop-color="gray"/></linearGradient><linearGradient id="a38443c7-99b2-467d-8d00-65a3c9d4ef97" x1="106.14" y1="1.54" x2="106.14" y2="18.85" gradientUnits="userSpaceOnUse"><stop offset="0" stop-color="#5b607d"/><stop offset="0.84" stop-color="#5b607d"/></linearGradient><clipPath id="bb694538-193f-4a53-bb26-acdfc49f0c9f"><rect class="bfa7d9ee-9fc4-4966-8486-e4d6d0a4313f" x="9.15" y="34.43" width="194.9" height="4.45"/></clipPath><clipPath id="fe8531e5-8a6a-4cf6-a130-e417be1a0955"><rect class="bfa7d9ee-9fc4-4966-8486-e4d6d0a4313f" x="9.15" y="34.43" width="194.9" height="4.45"/></clipPath><mask id="e14c104d-b7ed-42f0-aed1-34db22bd4e1f" x="9.15" y="34.43" width="547.77" height="4.45" maskUnits="userSpaceOnUse"><rect class="a34bb1da-08ca-4683-946f-886495c87ec6" x="9.15" y="34.43" width="547.77" height="4.45"/></mask><linearGradient id="a4ea7040-aff2-402b-b9ea-0986dfb0ef0c" x1="-2026.28" y1="4350.81" x2="-2025.95" y2="4350.81" gradientTransform="matrix(0, -13.49, -13.49, 0, 58785.24, -27289.24)" gradientUnits="userSpaceOnUse"><stop offset="0" stop-color="#191c2a"/><stop offset="1"/></linearGradient><linearGradient id="b3179bed-3f42-4d33-abfd-14b2d7187c9c" x1="262.34" y1="1.54" x2="262.34" y2="18.85" xlink:href="#a38443c7-99b2-467d-8d00-65a3c9d4ef97"/></defs><title>Макеты (4)-41</title><g id="a0834ca0-0644-4ec7-a420-994e9d71c7ad" data-name="Prew"><rect class="e41edf27-40bb-4698-9e73-5af6ed72978e" x="-14.65" y="42.03" width="45.81" height="0.89" transform="translate(50.73 34.21) rotate(90)"/><text class="b6b6cabd-a679-46b0-bf33-4aec4d94dadd" transform="translate(29.69 28.53)">Показатели качества в резервуарах</text><path class="b826a0b7-5d14-4fcb-bdb2-ba948de7a08e" d="M8.11,18.85H204.16l0-12.44c-1.56-1.39-4.41-3.48-6-4.87h-184l-6,5.32Z"/><text class="ad97da65-03e0-43e4-a99a-5593bac3672a" transform="translate(75.22 12.18)">Наименование отчета</text><rect class="b98f0fb0-b793-4bd1-a2e1-25c35e78a66a" x="9.15" y="34.32" width="195.23" height="31.05"/><g class="e7c9fba9-26c0-4d30-afc0-0867ddb19907"><g class="f0f70d58-3495-4fbe-8c69-3a21a813b103"><g class="bd6439a7-afd7-48d6-89af-fa0f0427c3c4"><g class="a5862cc9-93f4-475e-a7b9-4970adc813ee"><g class="f0f70d58-3495-4fbe-8c69-3a21a813b103"><g class="bd6439a7-afd7-48d6-89af-fa0f0427c3c4"><g class="b34314fe-a2fe-4d5b-b9d2-de9ee274c761"><rect class="ff7a0bd8-24b5-46b6-b4a5-2c7e5dc81f1a" x="9.15" y="34.43" width="194.9" height="4.45"/></g></g></g></g></g></g></g><rect class="be8a9066-e2f3-4f4d-81d3-9e819bf5abf4" x="99.04" y="-55.98" width="14.68" height="196.01" transform="translate(64.35 148.4) rotate(-90)"/><text class="b140da5f-9ffd-4ab7-abd5-a4a8e8076a9a" transform="translate(29.69 43.65)">Показатели качества в резервуарах. Версия 1 </text><rect class="bf32a978-0dc9-4ce4-8755-4b152a228dfc" x="17.44" y="25.15" width="0.48" height="4.32" rx="0.23" transform="translate(-14.14 20.5) rotate(-45)"/><rect class="bf32a978-0dc9-4ce4-8755-4b152a228dfc" x="20.2" y="25.15" width="0.48" height="4.32" rx="0.23" transform="translate(25.3 -6.45) rotate(45)"/><text class="b140da5f-9ffd-4ab7-abd5-a4a8e8076a9a" transform="translate(29.69 57.88)">Показатели качества в резервуарах. Версия 2 </text><text class="b6b6cabd-a679-46b0-bf33-4aec4d94dadd" transform="translate(29.69 75.67)">Выработка за смену</text><rect class="bf32a978-0dc9-4ce4-8755-4b152a228dfc" x="18.82" y="71.89" width="0.48" height="4.32" rx="0.23" transform="translate(-19.83 139.89) rotate(-135)"/><rect class="bf32a978-0dc9-4ce4-8755-4b152a228dfc" x="18.82" y="69.13" width="0.48" height="4.32" rx="0.23" transform="translate(-44.83 34.36) rotate(-45)"/><rect class="e41edf27-40bb-4698-9e73-5af6ed72978e" x="182.22" y="35.5" width="13.2" height="13.34" rx="6.29" transform="translate(230.99 -146.64) rotate(90)"/><path class="bfb22559-5657-4000-9384-e36d1c6871d7" d="M187.34,40.93h3.17c0,.06,0,.11,0,.16l-.12,1.13c-.07.68-.15,1.36-.23,2a.39.39,0,0,1,0,.14.18.18,0,0,1-.17.11h-2c-.11,0-.18-.07-.2-.2s0-.26,0-.4c-.05-.5-.11-1-.16-1.51l-.15-1.34Zm1.06,2.92v0c-.05-.41-.09-.81-.14-1.22,0-.23,0-.46-.07-.69s0-.38-.07-.57a.13.13,0,0,0-.14-.12.15.15,0,0,0-.14.18c.06.48.11,1,.16,1.43s.08.68.11,1a.15.15,0,0,0,.29,0ZM190,41.41c0-.11,0-.18-.12-.18a.14.14,0,0,0-.16.14c0,.3-.07.6-.1.9-.06.52-.11,1-.17,1.55a.15.15,0,0,0,.12.18.14.14,0,0,0,.16-.14c0-.22.05-.43.08-.65l.12-1.17C190,41.82,190,41.61,190,41.41Zm-.93,1.21h0V41.38a.14.14,0,0,0-.17-.15.17.17,0,0,0-.12.17v2.42a.13.13,0,0,0,0,.06.15.15,0,0,0,.12.12.14.14,0,0,0,.15-.08.34.34,0,0,0,0-.1Z"/><path class="bfb22559-5657-4000-9384-e36d1c6871d7" d="M188.26,40.21v-.37a.23.23,0,0,1,.26-.26h.8a.23.23,0,0,1,.26.26v.37h.87a.25.25,0,0,1,.24.15.25.25,0,0,1,0,.26.27.27,0,0,1-.23.11h-3.06a.25.25,0,0,1-.25-.18.23.23,0,0,1,.09-.29.33.33,0,0,1,.16,0h.88Zm.36,0h.59v-.26h-.59Z"/><rect class="b67d3533-1515-4962-89b4-1de17afc1ee2" x="183.32" y="36.62" width="11" height="11.12" rx="5.24" transform="translate(230.99 -146.64) rotate(90)"/><rect class="a8dad44b-5552-4ab5-abf7-740a72eb1f70" x="184.42" y="37.73" width="8.8" height="8.89" rx="4.19" transform="translate(230.99 -146.64) rotate(90)"/><rect class="ec5e250d-475b-4524-99cf-b983b860fb7c" x="185.52" y="38.84" width="6.6" height="6.67" rx="3.15" transform="translate(230.99 -146.64) rotate(90)"/><path class="a1e36f48-3fe2-41d4-ad82-a696874b5474" d="M168.8,43.3v1.17H170L173.42,41l-1.18-1.17Zm5.51-3.17a.3.3,0,0,0,0-.44l-.72-.72a.31.31,0,0,0-.44,0l-.57.56,1.16,1.16Z"/><text class="b6b6cabd-a679-46b0-bf33-4aec4d94dadd" transform="translate(29.69 90.79)">Выработка за месяц</text><rect class="bf32a978-0dc9-4ce4-8755-4b152a228dfc" x="18.82" y="87.01" width="0.48" height="4.32" rx="0.23" transform="translate(-30.53 165.71) rotate(-135)"/><rect class="bf32a978-0dc9-4ce4-8755-4b152a228dfc" x="18.82" y="84.25" width="0.48" height="4.32" rx="0.23" transform="translate(-55.52 38.78) rotate(-45)"/><path class="f21d298a-3a2c-47ed-8ba0-8f6c35ffc483" d="M205.59,18.85H319.1l0-12.44C317.49,5,314.6,2.93,313,1.54H211.68l-6.07,5.32Z"/><text class="ad97da65-03e0-43e4-a99a-5593bac3672a" transform="translate(228.97 12.18)">Описание показателей</text><path class="e41edf27-40bb-4698-9e73-5af6ed72978e" d="M252.25,59.45l.64.41a.61.61,0,0,0,.78-.12l1.07-1.18a5.55,5.55,0,0,0,1.79.3l.61,1.46a.58.58,0,0,0,.67.35l.76-.17.77-.16a.54.54,0,0,0,.41-.64l-.09-1.58A7.6,7.6,0,0,0,261.14,57l1.44.59a.58.58,0,0,0,.73-.25l.41-.64.41-.64a.68.68,0,0,0,.07-.44.84.84,0,0,0-.19-.34l-1.18-1.07a5.42,5.42,0,0,0,.32-1.85l1.47-.61a.57.57,0,0,0,.34-.67l-.16-.76-.16-.77a.6.6,0,0,0-.62-.47l-1.62.1a7.14,7.14,0,0,0-1.08-1.47l.59-1.45a.72.72,0,0,0,0-.36.47.47,0,0,0-.26-.36l-.64-.41-.64-.41a.6.6,0,0,0-.78.11l-1.05,1.22a5.84,5.84,0,0,0-1.79-.29l-.61-1.46a.57.57,0,0,0-.67-.35l-.76.16-.77.17a.59.59,0,0,0-.47.61l.1,1.62a7.89,7.89,0,0,0-1.47,1.09l-1.45-.6a.57.57,0,0,0-.72.25l-.41.64-.41.64A.66.66,0,0,0,249,49a.93.93,0,0,0,.2.34l1.22,1a7.53,7.53,0,0,0-.3,1.79l-1.46.61a.56.56,0,0,0-.35.66l.16.77.17.76a.59.59,0,0,0,.61.48l1.58-.09A7.53,7.53,0,0,0,252,56.86l-.59,1.45a.72.72,0,0,0,0,.36.54.54,0,0,0,.26.37Zm5.47-3.85a3.44,3.44,0,1,1,2.2-4.35A3.44,3.44,0,0,1,257.72,55.6Z"/><path class="e41edf27-40bb-4698-9e73-5af6ed72978e" d="M252.69,73.11l.09-1.29a5.16,5.16,0,0,0,1.3-.75l1.14.62a.54.54,0,0,0,.64-.11l.4-.53.4-.53a.59.59,0,0,0,0-.63L255.8,69a5.53,5.53,0,0,0,.4-1.42l1.25-.36a.45.45,0,0,0,.36-.52l-.07-.65-.06-.65a.5.5,0,0,0-.19-.33.51.51,0,0,0-.3-.09l-1.28-.09a5.7,5.7,0,0,0-.77-1.34l.61-1.14a.53.53,0,0,0-.1-.64l-.54-.4-.53-.4a.42.42,0,0,0-.62,0l-1,.88a4.45,4.45,0,0,0-1.41-.4l-.37-1.25a.56.56,0,0,0-.16-.25.48.48,0,0,0-.35-.11l-.66.06-.65.07a.43.43,0,0,0-.44.44l-.06,1.33a5.26,5.26,0,0,0-1.31.75l-1.14-.61a.51.51,0,0,0-.63.1l-.4.54L245,63a.41.41,0,0,0,0,.62l.88,1a4,4,0,0,0-.4,1.41l-1.25.37a.44.44,0,0,0-.36.51l.06.66.06.65a.47.47,0,0,0,.2.33.48.48,0,0,0,.29.09l1.33.07a5.44,5.44,0,0,0,.73,1.25l-.61,1.14a.53.53,0,0,0,.11.64l.53.4.53.4a.42.42,0,0,0,.62,0l.95-.86a5.57,5.57,0,0,0,1.41.4l.37,1.25a.64.64,0,0,0,.15.25.52.52,0,0,0,.36.11l.65-.06.65-.07A.41.41,0,0,0,252.69,73.11Zm-3.38-4a2.81,2.81,0,1,1,3.88-.79A2.79,2.79,0,0,1,249.31,69.11Z"/><path class="e41edf27-40bb-4698-9e73-5af6ed72978e" d="M272.32,76.73l-.11-2a9.59,9.59,0,0,0,1.88-1.38l1.84.75a.72.72,0,0,0,.92-.32l.52-.81.53-.82a.87.87,0,0,0,.09-.57,1.29,1.29,0,0,0-.24-.42l-1.5-1.37a7.09,7.09,0,0,0,.41-2.35l1.86-.78a.72.72,0,0,0,.44-.85l-.21-1-.2-1a.76.76,0,0,0-.79-.6l-2.06.13a9.14,9.14,0,0,0-1.38-1.87l.76-1.84a1.06,1.06,0,0,0,0-.47.6.6,0,0,0-.33-.46l-.81-.52-.81-.52a.77.77,0,0,0-1,.15l-1.34,1.55a7.08,7.08,0,0,0-2.28-.37l-.78-1.87a.72.72,0,0,0-.84-.44l-1,.21-1,.21a.74.74,0,0,0-.6.78l.13,2.06a9.89,9.89,0,0,0-1.88,1.38l-1.84-.75a.72.72,0,0,0-.92.32l-.53.81-.52.82a.81.81,0,0,0-.09.57,1.29,1.29,0,0,0,.24.42l1.56,1.34a9.21,9.21,0,0,0-.38,2.28l-1.86.78a.72.72,0,0,0-.44.85l.2,1,.21,1a.76.76,0,0,0,.78.61l2-.11a9.82,9.82,0,0,0,1.38,1.87L261.64,75a.93.93,0,0,0,0,.47.63.63,0,0,0,.33.46l.81.52.81.52a.77.77,0,0,0,1-.15L266,75.28a7,7,0,0,0,2.27.37l.78,1.86a.74.74,0,0,0,.85.45l1-.21,1-.21A.67.67,0,0,0,272.32,76.73Zm-2.58-5.23A4.39,4.39,0,1,1,272.53,66,4.38,4.38,0,0,1,269.74,71.5Z"/></g></svg>