<svg width="324" height="117" viewBox="0 0 324 117" fill="none" xmlns="http://www.w3.org/2000/svg">
<path opacity="0.5" d="M5.5 33.7729C5.5 32.6684 6.39543 31.7729 7.5 31.7729H287C288.105 31.7729 289 32.6684 289 33.7729V54.7729C289 55.8775 288.105 56.7729 287 56.7729H7.5C6.39543 56.7729 5.5 55.8775 5.5 54.7729V33.7729Z" fill="white" fill-opacity="0.5" stroke="#8C99B2"/>
<path d="M317 31.7729H295C293.895 31.7729 293 32.6683 293 33.7729V54.7729C293 55.8775 293.895 56.7729 295 56.7729H317C318.105 56.7729 319 55.8775 319 54.7729V33.7729C319 32.6683 318.105 31.7729 317 31.7729Z" fill="#EBF1F9"/>
<path opacity="0.5" d="M5 66.7729H319" stroke="#8C99B2"/>
<path fill-rule="evenodd" clip-rule="evenodd" d="M6.49988 99.7729H154.165C155.174 99.7729 156 98.982 156 98.0157V79.1765C156 78.4015 155.344 77.7729 154.534 77.7729H6.86935C5.86019 77.7729 5.0342 78.5639 5.0342 79.531V98.3695C5.0342 99.1444 5.69061 99.7729 6.49988 99.7729Z" fill="#EBF1F9"/>
<path fill-rule="evenodd" clip-rule="evenodd" d="M169.99 100H317.416C318.288 100 319 99.3744 319 98.6096V79.3912C319 78.6264 318.288 78 317.416 78H169.99C168.896 78 168 78.7866 168 79.7479V98.2522C168 99.2178 168.891 100 169.99 100Z" fill="#EBF1F9"/>
<path d="M236.11 88.4453C236.11 88.6663 236.07 88.876 235.99 89.0742C235.913 89.2702 235.805 89.4377 235.666 89.5767C235.49 89.7498 235.284 89.8809 235.047 89.9697C234.81 90.0586 234.51 90.103 234.148 90.103H233.574V92H232.897V86.9106H234.175C234.476 86.9106 234.732 86.9357 234.944 86.9858C235.156 87.036 235.343 87.1169 235.505 87.2285C235.694 87.3584 235.842 87.5236 235.949 87.7241C236.056 87.9224 236.11 88.1628 236.11 88.4453ZM235.406 88.4624C235.406 88.2869 235.375 88.1343 235.313 88.0044C235.254 87.8745 235.163 87.7686 235.04 87.6865C234.933 87.6159 234.808 87.5658 234.664 87.5361C234.523 87.5065 234.346 87.4917 234.134 87.4917H233.574V89.5254H234.035C234.309 89.5254 234.53 89.5037 234.698 89.4604C234.867 89.4149 235.007 89.3351 235.119 89.2212C235.219 89.1187 235.292 89.007 235.337 88.8862C235.383 88.7655 235.406 88.6242 235.406 88.4624ZM238.841 91.0601V90.0005C238.688 90.0142 238.494 90.0335 238.26 90.0586C238.027 90.0814 237.839 90.1144 237.696 90.1577C237.525 90.2101 237.384 90.291 237.272 90.4004C237.16 90.5075 237.104 90.6579 237.104 90.8516C237.104 91.0703 237.166 91.2355 237.289 91.3472C237.412 91.4588 237.592 91.5146 237.829 91.5146C238.032 91.5146 238.215 91.4714 238.379 91.3848C238.543 91.2959 238.697 91.1877 238.841 91.0601ZM238.841 91.5933C238.788 91.632 238.718 91.6867 238.629 91.7573C238.542 91.8257 238.458 91.8804 238.376 91.9214C238.262 91.9806 238.152 92.0262 238.044 92.0581C237.94 92.09 237.792 92.106 237.6 92.106C237.443 92.106 237.294 92.0763 237.152 92.0171C237.011 91.9578 236.887 91.8747 236.78 91.7676C236.677 91.6628 236.595 91.534 236.534 91.3813C236.472 91.2264 236.441 91.0635 236.441 90.8926C236.441 90.6283 236.497 90.4038 236.609 90.2192C236.721 90.0324 236.897 89.8843 237.139 89.7749C237.353 89.6769 237.606 89.6097 237.897 89.5732C238.189 89.5345 238.504 89.506 238.841 89.4878V89.3647C238.841 89.2144 238.818 89.0936 238.772 89.0024C238.727 88.909 238.663 88.8372 238.581 88.7871C238.499 88.7347 238.399 88.7005 238.28 88.6846C238.162 88.6663 238.04 88.6572 237.915 88.6572C237.766 88.6572 237.592 88.68 237.392 88.7256C237.191 88.7689 236.991 88.8327 236.79 88.917H236.752V88.2642C236.871 88.23 237.041 88.1924 237.262 88.1514C237.483 88.1104 237.701 88.0898 237.918 88.0898C238.18 88.0898 238.401 88.1104 238.581 88.1514C238.761 88.1924 238.923 88.2664 239.066 88.3735C239.205 88.4784 239.309 88.6139 239.377 88.7803C239.446 88.9466 239.48 89.1494 239.48 89.3887V92H238.841V91.5933ZM241.903 92.0854C241.641 92.0854 241.401 92.0456 241.182 91.9658C240.963 91.8838 240.775 91.7607 240.618 91.5967C240.461 91.4326 240.339 91.2264 240.252 90.978C240.166 90.7274 240.123 90.4334 240.123 90.0962C240.123 89.7612 240.167 89.4718 240.256 89.228C240.347 88.9842 240.468 88.7791 240.618 88.6128C240.769 88.4465 240.955 88.3188 241.179 88.23C241.404 88.1388 241.646 88.0933 241.903 88.0933C242.113 88.0933 242.315 88.1229 242.508 88.1821C242.704 88.2414 242.879 88.3097 243.031 88.3872V89.1084H242.994C242.948 89.0697 242.889 89.0252 242.816 88.9751C242.745 88.925 242.659 88.8737 242.556 88.8213C242.467 88.7757 242.362 88.7358 242.242 88.7017C242.121 88.6675 242.005 88.6504 241.893 88.6504C241.56 88.6504 241.293 88.7769 241.09 89.0298C240.889 89.2804 240.789 89.6359 240.789 90.0962C240.789 90.5474 240.886 90.8994 241.08 91.1523C241.276 91.403 241.547 91.5283 241.893 91.5283C242.103 91.5283 242.302 91.485 242.491 91.3984C242.68 91.3118 242.848 91.2002 242.994 91.0635H243.031V91.7847C242.967 91.8143 242.888 91.8507 242.792 91.894C242.696 91.9351 242.61 91.9658 242.532 91.9863C242.423 92.0182 242.325 92.0422 242.238 92.0581C242.152 92.0763 242.04 92.0854 241.903 92.0854ZM246.49 92H245.848V90.5098C245.647 90.5758 245.452 90.6271 245.263 90.6636C245.074 90.7 244.887 90.7183 244.703 90.7183C244.541 90.7183 244.382 90.6978 244.228 90.6567C244.075 90.6134 243.943 90.5439 243.831 90.4482C243.719 90.3525 243.633 90.2306 243.571 90.0825C243.512 89.9321 243.482 89.7555 243.482 89.5527V88.1821H244.125V89.2178C244.125 89.3864 244.132 89.5208 244.146 89.6211C244.159 89.7191 244.197 89.8148 244.258 89.9082C244.311 89.988 244.389 90.0495 244.494 90.0928C244.601 90.1361 244.741 90.1577 244.915 90.1577C245.065 90.1577 245.226 90.1429 245.396 90.1133C245.57 90.0837 245.72 90.0483 245.848 90.0073V88.1821H246.49V92ZM250.435 92H249.799V89.1528L248.001 92H247.42V88.1821H248.056V90.9849L249.833 88.1821H250.435V92ZM254.153 88.7461H252.854V92H252.212V88.7461H250.913V88.1821H254.153V88.7461ZM256.765 91.0601V90.0005C256.612 90.0142 256.418 90.0335 256.184 90.0586C255.951 90.0814 255.763 90.1144 255.62 90.1577C255.449 90.2101 255.307 90.291 255.196 90.4004C255.084 90.5075 255.028 90.6579 255.028 90.8516C255.028 91.0703 255.09 91.2355 255.213 91.3472C255.336 91.4588 255.516 91.5146 255.753 91.5146C255.956 91.5146 256.139 91.4714 256.303 91.3848C256.467 91.2959 256.621 91.1877 256.765 91.0601ZM256.765 91.5933C256.712 91.632 256.642 91.6867 256.553 91.7573C256.466 91.8257 256.382 91.8804 256.3 91.9214C256.186 91.9806 256.075 92.0262 255.968 92.0581C255.863 92.09 255.715 92.106 255.524 92.106C255.367 92.106 255.217 92.0763 255.076 92.0171C254.935 91.9578 254.811 91.8747 254.704 91.7676C254.601 91.6628 254.519 91.534 254.458 91.3813C254.396 91.2264 254.365 91.0635 254.365 90.8926C254.365 90.6283 254.421 90.4038 254.533 90.2192C254.644 90.0324 254.821 89.8843 255.062 89.7749C255.277 89.6769 255.53 89.6097 255.821 89.5732C256.113 89.5345 256.427 89.506 256.765 89.4878V89.3647C256.765 89.2144 256.742 89.0936 256.696 89.0024C256.651 88.909 256.587 88.8372 256.505 88.7871C256.423 88.7347 256.323 88.7005 256.204 88.6846C256.086 88.6663 255.964 88.6572 255.838 88.6572C255.69 88.6572 255.516 88.68 255.315 88.7256C255.115 88.7689 254.914 88.8327 254.714 88.917H254.676V88.2642C254.795 88.23 254.965 88.1924 255.186 88.1514C255.407 88.1104 255.625 88.0898 255.842 88.0898C256.104 88.0898 256.325 88.1104 256.505 88.1514C256.685 88.1924 256.847 88.2664 256.99 88.3735C257.129 88.4784 257.233 88.6139 257.301 88.7803C257.37 88.9466 257.404 89.1494 257.404 89.3887V92H256.765V91.5933ZM261.099 88.7461H259.8V92H259.157V88.7461H257.858V88.1821H261.099V88.7461ZM264.469 90.8174C264.469 91.002 264.431 91.1694 264.356 91.3198C264.283 91.4702 264.183 91.5921 264.055 91.6855C263.905 91.7995 263.744 91.8804 263.573 91.9282C263.402 91.9761 263.182 92 262.914 92H261.577V88.1821H262.22V89.6689H262.931C263.218 89.6689 263.44 89.6838 263.597 89.7134C263.757 89.743 263.915 89.8159 264.072 89.9321C264.204 90.0301 264.304 90.1554 264.37 90.3081C264.436 90.4608 264.469 90.6305 264.469 90.8174ZM263.806 90.8276C263.806 90.7114 263.785 90.61 263.744 90.5234C263.705 90.4346 263.64 90.3628 263.549 90.3081C263.454 90.2511 263.344 90.217 263.221 90.2056C263.1 90.1942 262.926 90.1885 262.698 90.1885H262.22V91.4873H262.685C262.912 91.4873 263.089 91.4782 263.214 91.46C263.34 91.4395 263.448 91.4019 263.539 91.3472C263.632 91.2879 263.7 91.2184 263.741 91.1387C263.784 91.0566 263.806 90.953 263.806 90.8276Z" fill="#606580"/>
<path d="M52.2812 92H51.6079V87.96L49.3076 92H48.624V86.9106H49.2974V90.8857L51.5669 86.9106H52.2812V92ZM54.7798 92.0854C54.5177 92.0854 54.2773 92.0456 54.0586 91.9658C53.8398 91.8838 53.6519 91.7607 53.4946 91.5967C53.3374 91.4326 53.2155 91.2264 53.1289 90.978C53.0423 90.7274 52.999 90.4334 52.999 90.0962C52.999 89.7612 53.0435 89.4718 53.1323 89.228C53.2235 88.9842 53.3442 88.7791 53.4946 88.6128C53.645 88.4465 53.8319 88.3188 54.0552 88.23C54.2808 88.1388 54.5223 88.0933 54.7798 88.0933C54.9894 88.0933 55.1911 88.1229 55.3848 88.1821C55.5807 88.2414 55.755 88.3097 55.9077 88.3872V89.1084H55.8701C55.8245 89.0697 55.7653 89.0252 55.6924 88.9751C55.6217 88.925 55.5352 88.8737 55.4326 88.8213C55.3438 88.7757 55.2389 88.7358 55.1182 88.7017C54.9974 88.6675 54.8812 88.6504 54.7695 88.6504C54.4368 88.6504 54.1691 88.7769 53.9663 89.0298C53.7658 89.2804 53.6655 89.6359 53.6655 90.0962C53.6655 90.5474 53.7624 90.8994 53.9561 91.1523C54.152 91.403 54.4232 91.5283 54.7695 91.5283C54.9792 91.5283 55.1785 91.485 55.3677 91.3984C55.5568 91.3118 55.7243 91.2002 55.8701 91.0635H55.9077V91.7847C55.8439 91.8143 55.7642 91.8507 55.6685 91.894C55.5728 91.9351 55.4862 91.9658 55.4087 91.9863C55.2993 92.0182 55.2013 92.0422 55.1147 92.0581C55.0282 92.0763 54.9165 92.0854 54.7798 92.0854ZM59.4624 92H58.6729L57.7466 90.5576L56.793 92H56.0649L57.3911 90.1064L56.0786 88.1821H56.8682L57.7876 89.6108L58.731 88.1821H59.4624L58.1431 90.062L59.4624 92ZM63.1025 90.0928C63.1025 90.7354 62.9476 91.2321 62.6377 91.583C62.3278 91.9316 61.9154 92.106 61.4004 92.106C60.8695 92.106 60.4513 91.9259 60.146 91.5659C59.8429 91.2036 59.6914 90.7126 59.6914 90.0928C59.6914 89.4548 59.8475 88.9591 60.1597 88.606C60.4741 88.2528 60.8877 88.0762 61.4004 88.0762C61.9154 88.0762 62.3278 88.2528 62.6377 88.606C62.9476 88.9569 63.1025 89.4525 63.1025 90.0928ZM62.4395 90.0928C62.4395 89.5983 62.3494 89.2314 62.1694 88.9922C61.9894 88.7507 61.7331 88.6299 61.4004 88.6299C61.0654 88.6299 60.8068 88.7507 60.6245 88.9922C60.4445 89.2314 60.3545 89.5983 60.3545 90.0928C60.3545 90.5713 60.4445 90.9347 60.6245 91.1831C60.8068 91.4292 61.0654 91.5522 61.4004 91.5522C61.7308 91.5522 61.986 91.4315 62.166 91.1899C62.3483 90.9461 62.4395 90.5804 62.4395 90.0928ZM67.0366 92.916H66.4385V91.9897H63.9229V92.916H63.3247V91.4531H63.5776C63.7941 91.0977 63.9707 90.634 64.1074 90.062C64.2464 89.4878 64.3159 88.8612 64.3159 88.1821H66.6572V91.4531H67.0366V92.916ZM66.0146 91.4531V88.7222H64.9209C64.8913 89.2918 64.8127 89.8125 64.6851 90.2842C64.5597 90.7536 64.4014 91.1432 64.21 91.4531H66.0146ZM70.687 92H70.0444V90.2808H68.3149V92H67.6724V88.1821H68.3149V89.7271H70.0444V88.1821H70.687V92ZM74.4502 90.8174C74.4502 91.002 74.4126 91.1694 74.3374 91.3198C74.2645 91.4702 74.1642 91.5921 74.0366 91.6855C73.8862 91.7995 73.7256 91.8804 73.5547 91.9282C73.3838 91.9761 73.1639 92 72.895 92H71.6167V88.1821H72.2593V89.6689H72.9121C73.1992 89.6689 73.4214 89.6838 73.5786 89.7134C73.7381 89.743 73.8965 89.8159 74.0537 89.9321C74.1859 90.0301 74.285 90.1554 74.3511 90.3081C74.4172 90.4608 74.4502 90.6305 74.4502 90.8174ZM73.7871 90.8276C73.7871 90.7114 73.7666 90.61 73.7256 90.5234C73.6868 90.4346 73.6219 90.3628 73.5308 90.3081C73.4351 90.2511 73.3257 90.217 73.2026 90.2056C73.0819 90.1942 72.9076 90.1885 72.6797 90.1885H72.2593V91.4873H72.666C72.8939 91.4873 73.0705 91.4782 73.1958 91.46C73.3211 91.4395 73.4294 91.4019 73.5205 91.3472C73.6139 91.2879 73.6812 91.2184 73.7222 91.1387C73.7655 91.0566 73.7871 90.953 73.7871 90.8276ZM75.5371 92H74.8945V88.1821H75.5371V92ZM78.1279 92.0889C77.5195 92.0889 77.0467 91.918 76.7095 91.5762C76.3745 91.2321 76.207 90.7445 76.207 90.1133C76.207 89.4912 76.37 88.9967 76.6958 88.6299C77.0216 88.2607 77.4478 88.0762 77.9741 88.0762C78.2111 88.0762 78.4207 88.1104 78.603 88.1787C78.7853 88.2471 78.9448 88.3542 79.0815 88.5C79.2183 88.6458 79.3231 88.8247 79.396 89.0366C79.4689 89.2463 79.5054 89.5037 79.5054 89.8091V90.1577H76.8599C76.8599 90.6021 76.9715 90.9416 77.1948 91.1763C77.4181 91.411 77.7269 91.5283 78.1211 91.5283C78.2624 91.5283 78.4002 91.5124 78.5347 91.4805C78.6714 91.4486 78.7944 91.4076 78.9038 91.3574C79.02 91.305 79.118 91.2549 79.1978 91.207C79.2775 91.1569 79.3436 91.1102 79.396 91.0669H79.4336V91.7676C79.3584 91.7972 79.265 91.8348 79.1533 91.8804C79.0417 91.9237 78.9414 91.9578 78.8525 91.9829C78.7272 92.0171 78.6133 92.0433 78.5107 92.0615C78.4105 92.0798 78.2829 92.0889 78.1279 92.0889ZM78.8799 89.6655C78.8753 89.4924 78.8548 89.3431 78.8184 89.2178C78.7819 89.0924 78.7295 88.9865 78.6611 88.8999C78.5859 88.8042 78.4891 88.7313 78.3706 88.6812C78.2544 88.631 78.1097 88.606 77.9365 88.606C77.7656 88.606 77.6198 88.6322 77.499 88.6846C77.3805 88.7347 77.2723 88.8088 77.1743 88.9067C77.0786 89.007 77.0057 89.1187 76.9556 89.2417C76.9054 89.3625 76.8735 89.5037 76.8599 89.6655H78.8799ZM85.6167 92.916H85.0186V91.9897H82.5029V92.916H81.9048V91.4531H82.1577C82.3742 91.0977 82.5508 90.634 82.6875 90.062C82.8265 89.4878 82.896 88.8612 82.896 88.1821H85.2373V91.4531H85.6167V92.916ZM84.5947 91.4531V88.7222H83.501C83.4714 89.2918 83.3927 89.8125 83.2651 90.2842C83.1398 90.7536 82.9814 91.1432 82.79 91.4531H84.5947ZM88.3853 91.0601V90.0005C88.2326 90.0142 88.0389 90.0335 87.8042 90.0586C87.5718 90.0814 87.3838 90.1144 87.2402 90.1577C87.0693 90.2101 86.9281 90.291 86.8164 90.4004C86.7048 90.5075 86.6489 90.6579 86.6489 90.8516C86.6489 91.0703 86.7104 91.2355 86.8335 91.3472C86.9565 91.4588 87.1366 91.5146 87.3735 91.5146C87.5763 91.5146 87.7598 91.4714 87.9238 91.3848C88.0879 91.2959 88.2417 91.1877 88.3853 91.0601ZM88.3853 91.5933C88.3328 91.632 88.2622 91.6867 88.1733 91.7573C88.0868 91.8257 88.0024 91.8804 87.9204 91.9214C87.8065 91.9806 87.696 92.0262 87.5889 92.0581C87.484 92.09 87.3359 92.106 87.1445 92.106C86.9873 92.106 86.8381 92.0763 86.6968 92.0171C86.5555 91.9578 86.4313 91.8747 86.3242 91.7676C86.2217 91.6628 86.1396 91.534 86.0781 91.3813C86.0166 91.2264 85.9858 91.0635 85.9858 90.8926C85.9858 90.6283 86.0417 90.4038 86.1533 90.2192C86.265 90.0324 86.4416 89.8843 86.6831 89.7749C86.8973 89.6769 87.1502 89.6097 87.4419 89.5732C87.7336 89.5345 88.048 89.506 88.3853 89.4878V89.3647C88.3853 89.2144 88.3625 89.0936 88.3169 89.0024C88.2713 88.909 88.2075 88.8372 88.1255 88.7871C88.0435 88.7347 87.9432 88.7005 87.8247 88.6846C87.7062 88.6663 87.5843 88.6572 87.459 88.6572C87.3109 88.6572 87.1366 88.68 86.936 88.7256C86.7355 88.7689 86.535 88.8327 86.3345 88.917H86.2969V88.2642C86.4154 88.23 86.5851 88.1924 86.8062 88.1514C87.0272 88.1104 87.2459 88.0898 87.4624 88.0898C87.7244 88.0898 87.9455 88.1104 88.1255 88.1514C88.3055 88.1924 88.4673 88.2664 88.6108 88.3735C88.7498 88.4784 88.8535 88.6139 88.9219 88.7803C88.9902 88.9466 89.0244 89.1494 89.0244 89.3887V92H88.3853V91.5933ZM92.9448 92H92.3022V90.2808H90.5728V92H89.9302V88.1821H90.5728V89.7271H92.3022V88.1821H92.9448V92ZM96.8892 92H96.2466V90.2808H94.5171V92H93.8745V88.1821H94.5171V89.7271H96.2466V88.1821H96.8892V92ZM100.652 90.8174C100.652 91.002 100.615 91.1694 100.54 91.3198C100.467 91.4702 100.366 91.5921 100.239 91.6855C100.088 91.7995 99.9277 91.8804 99.7568 91.9282C99.5859 91.9761 99.366 92 99.0972 92H97.8188V88.1821H98.4614V89.6689H99.1143C99.4014 89.6689 99.6235 89.6838 99.7808 89.7134C99.9403 89.743 100.099 89.8159 100.256 89.9321C100.388 90.0301 100.487 90.1554 100.553 90.3081C100.619 90.4608 100.652 90.6305 100.652 90.8174ZM99.9893 90.8276C99.9893 90.7114 99.9688 90.61 99.9277 90.5234C99.889 90.4346 99.8241 90.3628 99.7329 90.3081C99.6372 90.2511 99.5278 90.217 99.4048 90.2056C99.284 90.1942 99.1097 90.1885 98.8818 90.1885H98.4614V91.4873H98.8682C99.096 91.4873 99.2726 91.4782 99.3979 91.46C99.5233 91.4395 99.6315 91.4019 99.7227 91.3472C99.8161 91.2879 99.8833 91.2184 99.9243 91.1387C99.9676 91.0566 99.9893 90.953 99.9893 90.8276ZM101.739 92H101.097V88.1821H101.739V92ZM104.33 92.0889C103.722 92.0889 103.249 91.918 102.912 91.5762C102.577 91.2321 102.409 90.7445 102.409 90.1133C102.409 89.4912 102.572 88.9967 102.898 88.6299C103.224 88.2607 103.65 88.0762 104.176 88.0762C104.413 88.0762 104.623 88.1104 104.805 88.1787C104.987 88.2471 105.147 88.3542 105.284 88.5C105.42 88.6458 105.525 88.8247 105.598 89.0366C105.671 89.2463 105.708 89.5037 105.708 89.8091V90.1577H103.062C103.062 90.6021 103.174 90.9416 103.397 91.1763C103.62 91.411 103.929 91.5283 104.323 91.5283C104.465 91.5283 104.602 91.5124 104.737 91.4805C104.874 91.4486 104.997 91.4076 105.106 91.3574C105.222 91.305 105.32 91.2549 105.4 91.207C105.48 91.1569 105.546 91.1102 105.598 91.0669H105.636V91.7676C105.561 91.7972 105.467 91.8348 105.355 91.8804C105.244 91.9237 105.144 91.9578 105.055 91.9829C104.929 92.0171 104.815 92.0433 104.713 92.0615C104.613 92.0798 104.485 92.0889 104.33 92.0889ZM105.082 89.6655C105.077 89.4924 105.057 89.3431 105.021 89.2178C104.984 89.0924 104.932 88.9865 104.863 88.8999C104.788 88.8042 104.691 88.7313 104.573 88.6812C104.457 88.631 104.312 88.606 104.139 88.606C103.968 88.606 103.822 88.6322 103.701 88.6846C103.583 88.7347 103.474 88.8088 103.376 88.9067C103.281 89.007 103.208 89.1187 103.158 89.2417C103.108 89.3625 103.076 89.5037 103.062 89.6655H105.082Z" fill="#606580"/>
<path d="M15.5 17.7729H313.5" stroke="#0089FF" stroke-width="1.56166" stroke-linecap="round" stroke-linejoin="round" stroke-dasharray="0.08 3.12"/>
<path fill-rule="evenodd" clip-rule="evenodd" d="M90.9214 17.4504C90.9214 16.097 92.0177 15 93.3703 15C94.7223 15 95.8193 16.097 95.8193 17.4504C95.8193 18.8039 94.7223 19.9009 93.3703 19.9009C92.0177 19.9009 90.9214 18.8039 90.9214 17.4504Z" fill="#F5F8FD" stroke="#8C99B2" stroke-width="0.644176"/>
<path fill-rule="evenodd" clip-rule="evenodd" d="M160.258 17.4504C160.258 16.097 161.354 15 162.707 15C164.06 15 165.156 16.097 165.156 17.4504C165.156 18.8039 164.06 19.9009 162.707 19.9009C161.354 19.9009 160.258 18.8039 160.258 17.4504Z" fill="#F5F8FD" stroke="#8C99B2" stroke-width="0.644172"/>
<path fill-rule="evenodd" clip-rule="evenodd" d="M229.596 17.4504C229.596 16.097 230.692 15 232.045 15C233.397 15 234.494 16.097 234.494 17.4504C234.494 18.8039 233.397 19.9009 232.045 19.9009C230.692 19.9009 229.596 18.8039 229.596 17.4504Z" fill="#F5F8FD" stroke="#8C99B2" stroke-width="0.644172"/>
<path fill-rule="evenodd" clip-rule="evenodd" d="M314 17.4504C314 16.097 315.096 15 316.449 15C317.802 15 318.898 16.097 318.898 17.4504C318.898 18.8039 317.802 19.9009 316.449 19.9009C315.096 19.9009 314 18.8039 314 17.4504Z" fill="#F5F8FD" stroke="#8C99B2" stroke-width="0.644172"/>
<g opacity="0.2">
<path opacity="0.2" fill-rule="evenodd" clip-rule="evenodd" d="M7.76099 18.2877C7.76099 15.2362 10.2335 12.7622 13.2827 12.7622C16.3326 12.7622 18.8043 15.2362 18.8043 18.2877C18.8043 21.3391 16.3326 23.8124 13.2827 23.8124C10.2335 23.8124 7.76099 21.3391 7.76099 18.2877Z" fill="#0089FF"/>
</g>
<g opacity="0.1">
<path opacity="0.1" fill-rule="evenodd" clip-rule="evenodd" d="M5 18.2878C5 13.7103 8.70802 10 13.2826 10C17.857 10 21.5658 13.7103 21.5658 18.2878C21.5658 22.8646 17.857 26.5749 13.2826 26.5749C8.70802 26.5749 5 22.8646 5 18.2878Z" fill="#0089FF"/>
</g>
<path fill-rule="evenodd" clip-rule="evenodd" d="M10.1611 18.288C10.1611 16.5633 11.5587 15.165 13.2826 15.165C15.0065 15.165 16.404 16.5633 16.404 18.288C16.404 20.0127 15.0065 21.411 13.2826 21.411C11.5587 21.411 10.1611 20.0127 10.1611 18.288Z" fill="#0089FF" stroke="#8C99B2" stroke-width="0.821023"/>
<path d="M32.2109 45.7729H31.5342V43.2812H29.1929V45.7729H28.5161V40.6836H29.1929V42.6797H31.5342V40.6836H32.2109V45.7729ZM36.2646 41.2852H33.9233V45.7729H33.2466V40.6836H36.2646V41.2852ZM40.0142 42.2183C40.0142 42.4393 39.9743 42.6489 39.8945 42.8472C39.8171 43.0431 39.7088 43.2106 39.5698 43.3496C39.3944 43.5228 39.1882 43.6538 38.9512 43.7427C38.7142 43.8315 38.4146 43.876 38.0522 43.876H37.478V45.7729H36.8013V40.6836H38.0796C38.3804 40.6836 38.6367 40.7087 38.8486 40.7588C39.0605 40.8089 39.2474 40.8898 39.4092 41.0015C39.5983 41.1313 39.7464 41.2965 39.8535 41.4971C39.9606 41.6953 40.0142 41.9357 40.0142 42.2183ZM39.3101 42.2354C39.3101 42.0599 39.2793 41.9072 39.2178 41.7773C39.1585 41.6475 39.0674 41.5415 38.9443 41.4595C38.8372 41.3888 38.7119 41.3387 38.5684 41.3091C38.4271 41.2795 38.2505 41.2646 38.0386 41.2646H37.478V43.2983H37.9395C38.2129 43.2983 38.4339 43.2767 38.6025 43.2334C38.7712 43.1878 38.9113 43.1081 39.0229 42.9941C39.1232 42.8916 39.1961 42.7799 39.2417 42.6592C39.2873 42.5384 39.3101 42.3971 39.3101 42.2354ZM44.2183 40.6836L42.3726 44.9697C42.2951 45.1497 42.2074 45.2944 42.1094 45.4038C42.0137 45.5132 41.9134 45.5952 41.8086 45.6499C41.7038 45.7069 41.6001 45.7445 41.4976 45.7627C41.3973 45.7809 41.2959 45.79 41.1934 45.79C41.1022 45.79 40.9951 45.7878 40.8721 45.7832C40.749 45.7786 40.6704 45.7752 40.6362 45.7729V45.1406H40.6841C40.7183 45.1452 40.7695 45.1509 40.8379 45.1577C40.9085 45.1623 40.9974 45.1646 41.1045 45.1646C41.1546 45.1646 41.2139 45.1623 41.2822 45.1577C41.3506 45.1509 41.4132 45.1338 41.4702 45.1064C41.5363 45.0745 41.5978 45.0324 41.6548 44.98C41.714 44.9253 41.7676 44.8398 41.8154 44.7236L41.9316 44.4536L40.144 40.6836H40.8926L42.2734 43.6777L43.521 40.6836H44.2183ZM48.0498 46.7983H44.1191V46.354H48.0498V46.7983ZM51.4746 45.7729H50.8389V42.9258L49.041 45.7729H48.46V41.9551H49.0957V44.7578L50.873 41.9551H51.4746V45.7729ZM57.0767 43.8657C57.0767 44.506 56.9217 45.0016 56.6118 45.3525C56.3042 45.7035 55.8963 45.8789 55.3882 45.8789C54.8892 45.8789 54.4927 45.7148 54.1987 45.3867C53.9071 45.0563 53.7476 44.6063 53.7202 44.0366H53.0469V45.7729H52.4043V41.9551H53.0469V43.5103H53.7339C53.7863 42.9907 53.9595 42.584 54.2534 42.29C54.5474 41.9961 54.9256 41.8491 55.3882 41.8491C55.9237 41.8491 56.3384 42.0314 56.6323 42.396C56.9285 42.7606 57.0767 43.2505 57.0767 43.8657ZM56.4136 43.8657C56.4136 43.3781 56.3236 43.0124 56.1436 42.7686C55.9658 42.5247 55.714 42.4028 55.3882 42.4028C55.0578 42.4028 54.8026 42.5259 54.6226 42.772C54.4448 43.0181 54.356 43.3826 54.356 43.8657C54.356 44.3442 54.446 44.7077 54.626 44.9561C54.806 45.2021 55.0601 45.3252 55.3882 45.3252C55.714 45.3252 55.9658 45.2056 56.1436 44.9663C56.3236 44.7248 56.4136 44.3579 56.4136 43.8657ZM60.751 45.7729H60.1084V44.0537H58.3789V45.7729H57.7363V41.9551H58.3789V43.5H60.1084V41.9551H60.751V45.7729ZM64.5723 44.5903C64.5723 44.7749 64.5347 44.9424 64.4595 45.0928C64.3866 45.2432 64.2863 45.3651 64.1587 45.4585C64.0083 45.5724 63.8477 45.6533 63.6768 45.7012C63.5059 45.749 63.286 45.7729 63.0171 45.7729H61.6807V41.9551H62.3232V43.4419H63.0342C63.3213 43.4419 63.5435 43.4567 63.7007 43.4863C63.8602 43.516 64.0186 43.5889 64.1758 43.7051C64.3079 43.8031 64.4071 43.9284 64.4731 44.0811C64.5392 44.2337 64.5723 44.4035 64.5723 44.5903ZM63.9092 44.6006C63.9092 44.4844 63.8887 44.383 63.8477 44.2964C63.8089 44.2075 63.744 44.1357 63.6528 44.0811C63.5571 44.0241 63.4478 43.9899 63.3247 43.9785C63.2039 43.9671 63.0296 43.9614 62.8018 43.9614H62.3232V45.2603H62.7881C63.016 45.2603 63.1925 45.2511 63.3179 45.2329C63.4432 45.2124 63.5514 45.1748 63.6426 45.1201C63.736 45.0609 63.8032 44.9914 63.8442 44.9116C63.8875 44.8296 63.9092 44.7259 63.9092 44.6006ZM68.5986 46.7983H64.668V46.354H68.5986V46.7983ZM72.0576 45.7729H68.9165V45.0586C69.1421 44.8444 69.3551 44.6393 69.5557 44.4434C69.7562 44.2474 69.9521 44.0435 70.1436 43.8315C70.5309 43.4054 70.7952 43.0648 70.9365 42.8096C71.0778 42.5521 71.1484 42.2866 71.1484 42.0132C71.1484 41.8719 71.1257 41.7477 71.0801 41.6406C71.0368 41.5335 70.9764 41.4447 70.8989 41.374C70.8192 41.3057 70.7269 41.2544 70.6221 41.2202C70.5173 41.186 70.4022 41.1689 70.2769 41.1689C70.1561 41.1689 70.033 41.1849 69.9077 41.2168C69.7847 41.2464 69.6662 41.284 69.5522 41.3296C69.4565 41.3683 69.3643 41.415 69.2754 41.4697C69.1865 41.5244 69.1147 41.5711 69.0601 41.6099H69.0225V40.8853C69.1637 40.8146 69.3597 40.7463 69.6104 40.6802C69.8633 40.6118 70.1025 40.5776 70.3281 40.5776C70.8021 40.5776 71.1735 40.7041 71.4424 40.957C71.7113 41.2077 71.8457 41.5483 71.8457 41.979C71.8457 42.1772 71.8218 42.3607 71.7739 42.5293C71.7284 42.6979 71.6646 42.854 71.5825 42.9976C71.4982 43.1457 71.3968 43.2926 71.2783 43.4385C71.1598 43.5843 71.0345 43.7279 70.9023 43.8691C70.6882 44.1016 70.4489 44.3431 70.1846 44.5938C69.9225 44.8444 69.7129 45.0426 69.5557 45.1885H72.0576V45.7729ZM75.9028 43.2266C75.9028 44.1403 75.7695 44.8114 75.5029 45.2397C75.2386 45.6659 74.8296 45.8789 74.2759 45.8789C73.7153 45.8789 73.304 45.6613 73.042 45.2261C72.7799 44.7909 72.6489 44.1266 72.6489 43.2334C72.6489 42.3151 72.7811 41.644 73.0454 41.2202C73.312 40.7941 73.7222 40.5811 74.2759 40.5811C74.8364 40.5811 75.2477 40.8009 75.5098 41.2407C75.7718 41.6805 75.9028 42.3424 75.9028 43.2266ZM75.0278 44.7783C75.0939 44.6097 75.1406 44.3966 75.168 44.1392C75.1953 43.8817 75.209 43.5775 75.209 43.2266C75.209 42.8779 75.1953 42.5749 75.168 42.3174C75.1406 42.0599 75.0928 41.8457 75.0244 41.6748C74.9561 41.5016 74.8615 41.3706 74.7407 41.2817C74.6222 41.1906 74.4673 41.145 74.2759 41.145C74.0868 41.145 73.9307 41.1906 73.8076 41.2817C73.6868 41.3706 73.5911 41.5039 73.5205 41.6816C73.4521 41.8548 73.4054 42.0736 73.3804 42.3379C73.3553 42.6022 73.3428 42.9007 73.3428 43.2334C73.3428 43.5889 73.353 43.8862 73.3735 44.1255C73.3963 44.3647 73.4442 44.5789 73.5171 44.7681C73.5832 44.9435 73.6766 45.0791 73.7974 45.1748C73.9204 45.2682 74.0799 45.3149 74.2759 45.3149C74.465 45.3149 74.62 45.2705 74.7407 45.1816C74.8638 45.0905 74.9595 44.9561 75.0278 44.7783ZM80.0625 46.7983H76.1318V46.354H80.0625V46.7983ZM84.2871 45.7729H83.4258L81.6279 43.4419H81.2007V45.7729H80.5239V40.6836H81.2007V42.9771C81.4673 42.9679 81.6781 42.9007 81.833 42.7754C81.9902 42.6501 82.1178 42.4701 82.2158 42.2354C82.2568 42.1328 82.2933 42.036 82.3252 41.9448C82.3594 41.8514 82.3867 41.7728 82.4072 41.709C82.5439 41.3193 82.7183 41.0516 82.9302 40.9058C83.1421 40.7576 83.436 40.6836 83.812 40.6836H84.0205V41.2886H83.8496C83.5716 41.2886 83.3768 41.3433 83.2651 41.4526C83.1535 41.5597 83.0509 41.7637 82.9575 42.0645C82.8641 42.3652 82.7593 42.5863 82.6431 42.7275C82.5269 42.8665 82.3867 42.9896 82.2227 43.0967L84.2871 45.7729ZM87.6914 41.9551L85.6372 47.1812H84.9502L85.6338 45.5884L84.2461 41.9551H84.9399L85.9824 44.7817L87.0215 41.9551H87.6914ZM91.1333 45.7729H90.4907V42.4951H89.1782C89.1714 42.6842 89.1646 42.8665 89.1577 43.042C89.1509 43.2152 89.144 43.3724 89.1372 43.5137C89.1235 43.8714 89.0996 44.1711 89.0654 44.4126C89.0335 44.6541 88.9925 44.8478 88.9424 44.9937C88.8923 45.144 88.8364 45.2614 88.7749 45.3457C88.7157 45.43 88.6484 45.5063 88.5732 45.5747C88.4958 45.6431 88.4126 45.6943 88.3237 45.7285C88.2349 45.7627 88.1346 45.7798 88.0229 45.7798C87.9865 45.7798 87.9398 45.7786 87.8828 45.7764C87.8258 45.7741 87.786 45.7729 87.7632 45.7729V45.2124H87.7974C87.8133 45.2124 87.8293 45.2135 87.8452 45.2158C87.8634 45.2181 87.884 45.2192 87.9067 45.2192C87.9614 45.2192 88.015 45.2113 88.0674 45.1953C88.1198 45.1794 88.1665 45.1497 88.2075 45.1064C88.3215 44.9948 88.4046 44.8 88.457 44.522C88.5094 44.2417 88.547 43.8509 88.5698 43.3496C88.5789 43.1628 88.5869 42.9417 88.5938 42.6865C88.6029 42.4313 88.6108 42.1875 88.6177 41.9551H91.1333V45.7729ZM94.8315 45.7729H94.189V44.2588H93.5532L92.4219 45.7729H91.6733L92.9004 44.2007C92.5837 44.1073 92.3512 43.9683 92.2031 43.7837C92.0573 43.5991 91.9844 43.3519 91.9844 43.042C91.9844 42.8529 92.0254 42.6877 92.1074 42.5464C92.1917 42.4028 92.3045 42.2821 92.4458 42.1841C92.5597 42.1066 92.7033 42.0496 92.8765 42.0132C93.0496 41.9744 93.2433 41.9551 93.4575 41.9551H94.8315V45.7729ZM94.189 43.7529V42.4678H93.4917C93.3436 42.4678 93.2262 42.4757 93.1396 42.4917C93.0553 42.5076 92.9733 42.5384 92.8936 42.584C92.8115 42.6341 92.7489 42.7025 92.7056 42.7891C92.6646 42.8734 92.644 42.9645 92.644 43.0625C92.644 43.1878 92.6577 43.2904 92.6851 43.3701C92.7147 43.4476 92.7671 43.5194 92.8423 43.5854C92.922 43.6538 93.0189 43.6994 93.1328 43.7222C93.249 43.7427 93.3755 43.7529 93.5122 43.7529H94.189ZM100.283 45.7729H95.7646V41.9551H96.4072V45.2295H97.7026V41.9551H98.3452V45.2295H99.6406V41.9551H100.283V45.7729ZM104.354 43.8657C104.354 44.5083 104.199 45.005 103.889 45.356C103.579 45.7046 103.167 45.8789 102.652 45.8789C102.121 45.8789 101.703 45.6989 101.397 45.3389C101.094 44.9766 100.943 44.4855 100.943 43.8657C100.943 43.2277 101.099 42.7321 101.411 42.3789C101.726 42.0257 102.139 41.8491 102.652 41.8491C103.167 41.8491 103.579 42.0257 103.889 42.3789C104.199 42.7298 104.354 43.2254 104.354 43.8657ZM103.691 43.8657C103.691 43.3713 103.601 43.0044 103.421 42.7651C103.241 42.5236 102.985 42.4028 102.652 42.4028C102.317 42.4028 102.058 42.5236 101.876 42.7651C101.696 43.0044 101.606 43.3713 101.606 43.8657C101.606 44.3442 101.696 44.7077 101.876 44.9561C102.058 45.2021 102.317 45.3252 102.652 45.3252C102.982 45.3252 103.237 45.2044 103.417 44.9629C103.6 44.7191 103.691 44.3534 103.691 43.8657ZM108.008 44.6177C108.008 44.8022 107.972 44.9663 107.902 45.1099C107.831 45.2511 107.734 45.3696 107.611 45.4653C107.456 45.5861 107.293 45.6681 107.123 45.7114C106.954 45.7524 106.751 45.7729 106.514 45.7729H105.014V41.9551H106.415C106.695 41.9551 106.9 41.9642 107.03 41.9824C107.16 41.9984 107.289 42.0417 107.417 42.1123C107.551 42.1852 107.65 42.2821 107.714 42.4028C107.778 42.5236 107.81 42.6672 107.81 42.8335C107.81 43.0158 107.759 43.1799 107.659 43.3257C107.559 43.4692 107.426 43.5809 107.259 43.6606L107.276 43.6846C107.484 43.737 107.657 43.8429 107.796 44.0024C107.937 44.1619 108.008 44.367 108.008 44.6177ZM107.15 42.9326C107.15 42.846 107.135 42.7708 107.105 42.707C107.078 42.6432 107.029 42.5931 106.958 42.5566C106.876 42.5133 106.784 42.4883 106.682 42.4814C106.581 42.4723 106.441 42.4678 106.261 42.4678H105.649V43.5137H106.388C106.545 43.5137 106.657 43.5068 106.723 43.4932C106.789 43.4772 106.862 43.4453 106.941 43.3975C107.017 43.3519 107.07 43.2904 107.102 43.2129C107.134 43.1354 107.15 43.042 107.15 42.9326ZM107.345 44.6211C107.345 44.4912 107.325 44.3875 107.287 44.3101C107.25 44.2303 107.168 44.1597 107.041 44.0981C106.961 44.0594 106.875 44.0355 106.784 44.0264C106.693 44.0173 106.567 44.0127 106.405 44.0127H105.649V45.2603H106.207C106.437 45.2603 106.616 45.2511 106.743 45.2329C106.871 45.2147 106.98 45.1782 107.071 45.1235C107.167 45.0643 107.236 44.9959 107.28 44.9185C107.323 44.841 107.345 44.7419 107.345 44.6211ZM112.096 46.7983H108.165V46.354H112.096V46.7983ZM115.295 45.7729H112.813V45.2534H113.736V41.8423H112.813V41.3774C113.162 41.3774 113.418 41.3285 113.583 41.2305C113.749 41.1302 113.842 40.9422 113.863 40.6665H114.393V45.2534H115.295V45.7729ZM119.318 44.1528C119.318 44.3989 119.278 44.6268 119.198 44.8364C119.121 45.0461 119.011 45.2272 118.87 45.3799C118.727 45.5348 118.548 45.6567 118.333 45.7456C118.122 45.8345 117.883 45.8789 117.619 45.8789C117.375 45.8789 117.135 45.8516 116.898 45.7969C116.663 45.7445 116.459 45.675 116.286 45.5884V44.8672H116.334C116.386 44.9059 116.462 44.9504 116.56 45.0005C116.658 45.0483 116.766 45.0939 116.884 45.1372C117.019 45.1851 117.142 45.2227 117.253 45.25C117.365 45.2751 117.49 45.2876 117.629 45.2876C117.766 45.2876 117.899 45.2637 118.029 45.2158C118.159 45.1657 118.271 45.0859 118.364 44.9766C118.449 44.8763 118.512 44.759 118.556 44.6245C118.601 44.4901 118.624 44.3317 118.624 44.1494C118.624 43.9694 118.599 43.8213 118.549 43.7051C118.501 43.5889 118.43 43.4932 118.337 43.418C118.239 43.3314 118.118 43.271 117.975 43.2368C117.833 43.2004 117.675 43.1821 117.5 43.1821C117.315 43.1821 117.129 43.1969 116.942 43.2266C116.756 43.2539 116.606 43.2801 116.495 43.3052V40.6836H119.287V41.2817H117.154V42.6353C117.236 42.6261 117.317 42.6193 117.397 42.6147C117.477 42.6102 117.55 42.6079 117.616 42.6079C117.875 42.6079 118.095 42.6296 118.275 42.6729C118.455 42.7161 118.629 42.8005 118.795 42.9258C118.964 43.0534 119.092 43.2129 119.181 43.4043C119.272 43.5957 119.318 43.8452 119.318 44.1528ZM121.15 45.7729H120.333V44.7988H121.15V45.7729ZM125.34 43.2266C125.34 44.1403 125.207 44.8114 124.94 45.2397C124.676 45.6659 124.267 45.8789 123.713 45.8789C123.153 45.8789 122.742 45.6613 122.479 45.2261C122.217 44.7909 122.086 44.1266 122.086 43.2334C122.086 42.3151 122.219 41.644 122.483 41.2202C122.75 40.7941 123.16 40.5811 123.713 40.5811C124.274 40.5811 124.685 40.8009 124.947 41.2407C125.209 41.6805 125.34 42.3424 125.34 43.2266ZM124.465 44.7783C124.531 44.6097 124.578 44.3966 124.605 44.1392C124.633 43.8817 124.646 43.5775 124.646 43.2266C124.646 42.8779 124.633 42.5749 124.605 42.3174C124.578 42.0599 124.53 41.8457 124.462 41.6748C124.394 41.5016 124.299 41.3706 124.178 41.2817C124.06 41.1906 123.905 41.145 123.713 41.145C123.524 41.145 123.368 41.1906 123.245 41.2817C123.124 41.3706 123.029 41.5039 122.958 41.6816C122.89 41.8548 122.843 42.0736 122.818 42.3379C122.793 42.6022 122.78 42.9007 122.78 43.2334C122.78 43.5889 122.791 43.8862 122.811 44.1255C122.834 44.3647 122.882 44.5789 122.955 44.7681C123.021 44.9435 123.114 45.0791 123.235 45.1748C123.358 45.2682 123.517 45.3149 123.713 45.3149C123.903 45.3149 124.057 45.2705 124.178 45.1816C124.301 45.0905 124.397 44.9561 124.465 44.7783ZM129.08 44.1528C129.08 44.3989 129.04 44.6268 128.96 44.8364C128.882 45.0461 128.773 45.2272 128.632 45.3799C128.488 45.5348 128.309 45.6567 128.095 45.7456C127.883 45.8345 127.645 45.8789 127.381 45.8789C127.137 45.8789 126.897 45.8516 126.66 45.7969C126.425 45.7445 126.221 45.675 126.048 45.5884V44.8672H126.096C126.148 44.9059 126.223 44.9504 126.321 45.0005C126.419 45.0483 126.528 45.0939 126.646 45.1372C126.78 45.1851 126.903 45.2227 127.015 45.25C127.127 45.2751 127.252 45.2876 127.391 45.2876C127.528 45.2876 127.661 45.2637 127.791 45.2158C127.921 45.1657 128.033 45.0859 128.126 44.9766C128.21 44.8763 128.274 44.759 128.317 44.6245C128.363 44.4901 128.386 44.3317 128.386 44.1494C128.386 43.9694 128.361 43.8213 128.311 43.7051C128.263 43.5889 128.192 43.4932 128.099 43.418C128.001 43.3314 127.88 43.271 127.736 43.2368C127.595 43.2004 127.437 43.1821 127.261 43.1821C127.077 43.1821 126.891 43.1969 126.704 43.2266C126.517 43.2539 126.368 43.2801 126.256 43.3052V40.6836H129.049V41.2817H126.916V42.6353C126.998 42.6261 127.079 42.6193 127.159 42.6147C127.238 42.6102 127.311 42.6079 127.377 42.6079C127.637 42.6079 127.857 42.6296 128.037 42.6729C128.217 42.7161 128.39 42.8005 128.557 42.9258C128.725 43.0534 128.854 43.2129 128.943 43.4043C129.034 43.5957 129.08 43.8452 129.08 44.1528ZM133.321 46.7983H129.391V46.354H133.321V46.7983ZM136.521 45.7729H134.039V45.2534H134.962V41.8423H134.039V41.3774C134.388 41.3774 134.644 41.3285 134.808 41.2305C134.974 41.1302 135.068 40.9422 135.088 40.6665H135.618V45.2534H136.521V45.7729ZM138.834 41.1689C138.711 41.1689 138.588 41.1838 138.465 41.2134C138.342 41.243 138.222 41.2817 138.103 41.3296C137.994 41.3752 137.898 41.423 137.816 41.4731C137.736 41.5233 137.664 41.57 137.601 41.6133H137.56V40.8921C137.708 40.8123 137.908 40.7406 138.161 40.6768C138.416 40.6107 138.659 40.5776 138.889 40.5776C139.119 40.5776 139.32 40.6016 139.491 40.6494C139.664 40.695 139.82 40.7668 139.959 40.8647C140.109 40.9741 140.222 41.1063 140.297 41.2612C140.375 41.4162 140.414 41.5973 140.414 41.8047C140.414 42.085 140.321 42.3311 140.137 42.543C139.952 42.7549 139.731 42.8893 139.474 42.9463V42.9941C139.581 43.0146 139.695 43.05 139.815 43.1001C139.938 43.1502 140.052 43.2243 140.157 43.3223C140.262 43.4202 140.347 43.5467 140.414 43.7017C140.48 43.8543 140.513 44.0412 140.513 44.2622C140.513 44.4924 140.473 44.7043 140.393 44.8979C140.316 45.0894 140.205 45.2591 140.062 45.4072C139.913 45.5622 139.735 45.6795 139.525 45.7593C139.315 45.839 139.077 45.8789 138.811 45.8789C138.555 45.8789 138.302 45.8481 138.052 45.7866C137.801 45.7251 137.59 45.651 137.419 45.5645V44.8433H137.467C137.611 44.9481 137.803 45.0483 138.045 45.144C138.286 45.2397 138.528 45.2876 138.77 45.2876C138.909 45.2876 139.048 45.266 139.187 45.2227C139.328 45.1771 139.445 45.1042 139.539 45.0039C139.63 44.9036 139.699 44.7931 139.747 44.6724C139.795 44.5516 139.819 44.3989 139.819 44.2144C139.819 44.0298 139.792 43.8783 139.737 43.7598C139.684 43.6413 139.61 43.5479 139.515 43.4795C139.419 43.4111 139.305 43.3644 139.173 43.3394C139.043 43.312 138.902 43.2983 138.749 43.2983H138.458V42.731H138.684C138.992 42.731 139.241 42.658 139.433 42.5122C139.626 42.3664 139.723 42.1545 139.723 41.8765C139.723 41.7489 139.698 41.6395 139.648 41.5483C139.598 41.4549 139.534 41.3809 139.457 41.3262C139.37 41.2669 139.274 41.2259 139.169 41.2031C139.065 41.1803 138.953 41.1689 138.834 41.1689ZM142.375 45.7729H141.559V44.7988H142.375V45.7729ZM146.675 44.0229H146.07V45.7729H145.414V44.0229H143.165V43.3052L145.441 40.6836H146.07V43.4761H146.675V44.0229ZM145.414 43.4761V41.4868L143.698 43.4761H145.414ZM150.497 44.0229H149.892V45.7729H149.235V44.0229H146.986V43.3052L149.263 40.6836H149.892V43.4761H150.497V44.0229ZM149.235 43.4761V41.4868L147.52 43.4761H149.235Z" fill="#303549"/>
<path fill-rule="evenodd" clip-rule="evenodd" d="M274.165 40.9207C274.385 40.7237 274.744 40.7237 274.964 40.9207L279 44.5471L283.036 40.9207C283.256 40.7237 283.616 40.7237 283.835 40.9207C284.055 41.1183 284.055 41.4411 283.835 41.6388L279.4 45.6247C279.18 45.8224 278.82 45.8224 278.601 45.6247L274.165 41.6388C273.945 41.4411 273.945 41.1183 274.165 40.9207Z" fill="#8C99B2"/>
<path d="M9 33.7729C9 33.2206 8.55228 32.7729 8 32.7729C7.44772 32.7729 7 33.2206 7 33.7729V54.7729C7 55.3252 7.44772 55.7729 8 55.7729C8.55228 55.7729 9 55.3252 9 54.7729V33.7729Z" fill="#0089FF"/>
<path fill-rule="evenodd" clip-rule="evenodd" d="M311.004 41.3072L307.614 37.918C307.537 37.8419 307.435 37.7993 307.327 37.7993H302.84C302.198 37.7993 301.677 38.3212 301.677 38.9625V48.8084C301.677 49.4498 302.198 49.9717 302.84 49.9717H305.162C305.387 49.9717 305.568 49.7898 305.568 49.5662C305.568 49.3417 305.387 49.1599 305.162 49.1599H302.84C302.646 49.1599 302.488 49.0024 302.488 48.8084V38.9625C302.488 38.7685 302.646 38.6111 302.84 38.6111H306.676V41.8405C306.676 42.065 306.857 42.246 307.081 42.246H310.311V44.2895C310.311 44.5139 310.492 44.6949 310.717 44.6949C310.94 44.6949 311.122 44.5139 311.122 44.2895V41.594C311.122 41.4868 311.08 41.3833 311.004 41.3072ZM307.486 38.9382L309.983 41.435H307.486V38.9382Z" fill="#8C99B2"/>
<path d="M310.262 46.8881H308.85V45.4761C308.85 45.2516 308.669 45.0698 308.444 45.0698C308.22 45.0698 308.039 45.2516 308.039 45.4761V46.8881H306.627C306.403 46.8881 306.221 47.0691 306.221 47.2935C306.221 47.518 306.403 47.699 306.627 47.699H308.039V49.111C308.039 49.3355 308.22 49.5173 308.444 49.5173C308.669 49.5173 308.85 49.3355 308.85 49.111V47.699H310.262C310.486 47.699 310.668 47.518 310.668 47.2935C310.668 47.0691 310.486 46.8881 310.262 46.8881Z" fill="#8C99B2"/>
</svg>
