<svg width="324" height="117" viewBox="0 0 324 117" fill="none" xmlns="http://www.w3.org/2000/svg">
<path d="M201.741 78.5119C201.741 78.8189 201.694 79.0906 201.602 79.3269C201.509 79.5611 201.38 79.7588 201.214 79.92C201.035 80.0968 200.815 80.2337 200.555 80.3309C200.294 80.4259 200.024 80.4767 199.746 80.4833V81.083H199.093V80.4833C198.817 80.4745 198.549 80.4248 198.288 80.3342C198.028 80.2437 197.806 80.1078 197.622 79.9267C197.457 79.7654 197.327 79.5655 197.235 79.3269C197.144 79.0884 197.099 78.8167 197.099 78.5119C197.099 78.2247 197.143 77.9674 197.231 77.7398C197.32 77.5101 197.443 77.3124 197.602 77.1467C197.772 76.97 197.986 76.8309 198.242 76.7293C198.498 76.6276 198.782 76.5724 199.093 76.5636V76.0169H199.746V76.5636C200.058 76.5702 200.342 76.6254 200.601 76.7293C200.859 76.8309 201.074 76.9689 201.244 77.1434C201.403 77.3069 201.525 77.5024 201.612 77.7299C201.698 77.9574 201.741 78.2181 201.741 78.5119ZM201.058 78.4853C201.058 78.2667 201.027 78.0679 200.965 77.8889C200.904 77.7078 200.812 77.5543 200.69 77.4284C200.576 77.3091 200.442 77.2207 200.289 77.1633C200.137 77.1059 199.956 77.075 199.746 77.0705V79.9863C199.945 79.9819 200.122 79.9499 200.276 79.8902C200.433 79.8284 200.562 79.7466 200.664 79.645C200.799 79.5125 200.898 79.3512 200.962 79.1613C201.026 78.9713 201.058 78.746 201.058 78.4853ZM199.093 79.9863V77.0705C198.883 77.0727 198.702 77.1037 198.55 77.1633C198.398 77.2229 198.264 77.3113 198.149 77.4284C198.028 77.5521 197.936 77.7056 197.874 77.8889C197.812 78.0723 197.781 78.2711 197.781 78.4853C197.781 78.746 197.813 78.9724 197.877 79.1646C197.941 79.3546 198.041 79.5147 198.176 79.645C198.277 79.7422 198.405 79.8229 198.56 79.8869C198.717 79.951 198.895 79.9841 199.093 79.9863ZM204.481 80.1188V79.0917C204.333 79.105 204.145 79.1237 203.918 79.148C203.692 79.1701 203.51 79.2021 203.371 79.2441C203.205 79.2949 203.068 79.3733 202.96 79.4794C202.852 79.5832 202.798 79.729 202.798 79.9167C202.798 80.1288 202.857 80.2889 202.977 80.3972C203.096 80.5054 203.27 80.5595 203.5 80.5595C203.697 80.5595 203.875 80.5176 204.034 80.4336C204.193 80.3475 204.342 80.2425 204.481 80.1188ZM204.481 80.6357C204.43 80.6733 204.362 80.7263 204.275 80.7948C204.192 80.861 204.11 80.9141 204.03 80.9538C203.92 81.0113 203.813 81.0554 203.709 81.0864C203.607 81.1173 203.464 81.1327 203.278 81.1327C203.126 81.1327 202.981 81.104 202.844 81.0466C202.707 80.9892 202.587 80.9085 202.483 80.8047C202.384 80.7031 202.304 80.5783 202.244 80.4303C202.185 80.2801 202.155 80.1222 202.155 79.9565C202.155 79.7003 202.209 79.4827 202.317 79.3038C202.426 79.1226 202.597 78.979 202.831 78.873C203.038 78.778 203.284 78.7129 203.566 78.6775C203.849 78.64 204.154 78.6124 204.481 78.5947V78.4754C204.481 78.3296 204.459 78.2125 204.415 78.1242C204.37 78.0336 204.309 77.964 204.229 77.9154C204.15 77.8646 204.052 77.8315 203.938 77.816C203.823 77.7984 203.704 77.7895 203.583 77.7895C203.439 77.7895 203.27 77.8116 203.076 77.8558C202.882 77.8978 202.687 77.9596 202.493 78.0414H202.456V77.4085C202.571 77.3754 202.736 77.3389 202.95 77.2992C203.164 77.2594 203.376 77.2395 203.586 77.2395C203.84 77.2395 204.055 77.2594 204.229 77.2992C204.404 77.3389 204.56 77.4107 204.7 77.5145C204.834 77.6161 204.935 77.7476 205.001 77.9088C205.067 78.0701 205.101 78.2667 205.101 78.4986V81.03H204.481V80.6357ZM208.957 81.03H208.182L206.913 79.3236H206.601V81.03H205.979V77.329H206.601V78.9393C206.763 78.9371 206.9 78.9039 207.012 78.8399C207.127 78.7736 207.224 78.6466 207.304 78.4588C207.328 78.4036 207.355 78.3396 207.383 78.2667C207.414 78.1938 207.439 78.1297 207.456 78.0745C207.554 77.8028 207.688 77.6106 207.861 77.498C208.033 77.3853 208.257 77.329 208.533 77.329H208.702V77.8657H208.56C208.385 77.8657 208.254 77.9022 208.165 77.9751C208.079 78.0458 208.006 78.1761 207.947 78.3661C207.885 78.5582 207.812 78.7085 207.728 78.8167C207.644 78.9227 207.551 79.0044 207.45 79.0619L208.957 81.03ZM212.062 77.8757H210.803V81.03H210.18V77.8757H208.921V77.329H212.062V77.8757Z" fill="#8C99B2"/>
<path d="M200.962 67.24H200.306V62.8895H198.036V67.24H197.38V62.3064H200.962V67.24ZM204.782 67.24H204.16V64.0625H202.887C202.881 64.2458 202.874 64.4225 202.867 64.5926C202.861 64.7605 202.854 64.9129 202.847 65.0498C202.834 65.3966 202.811 65.6871 202.778 65.9213C202.747 66.1554 202.707 66.3432 202.659 66.4845C202.61 66.6303 202.556 66.7441 202.496 66.8258C202.439 66.9075 202.374 66.9815 202.301 67.0478C202.226 67.1141 202.145 67.1638 202.059 67.1969C201.973 67.2301 201.875 67.2466 201.767 67.2466C201.732 67.2466 201.687 67.2455 201.631 67.2433C201.576 67.2411 201.538 67.24 201.515 67.24V66.6966H201.549C201.564 66.6966 201.579 66.6977 201.595 66.6999C201.613 66.7021 201.633 66.7032 201.655 66.7032C201.708 66.7032 201.76 66.6955 201.81 66.68C201.861 66.6646 201.906 66.6358 201.946 66.5939C202.057 66.4856 202.137 66.2968 202.188 66.0273C202.239 65.7556 202.275 65.3768 202.297 64.8908C202.306 64.7097 202.314 64.4954 202.321 64.248C202.329 64.0006 202.337 63.7642 202.344 63.5389H204.782V67.24ZM207.755 66.3288V65.3017C207.607 65.3149 207.419 65.3337 207.191 65.358C206.966 65.3801 206.784 65.4121 206.645 65.4541C206.479 65.5049 206.342 65.5833 206.234 65.6893C206.125 65.7931 206.071 65.9389 206.071 66.1267C206.071 66.3387 206.131 66.4989 206.25 66.6071C206.37 66.7154 206.544 66.7695 206.774 66.7695C206.97 66.7695 207.148 66.7275 207.307 66.6436C207.466 66.5574 207.615 66.4525 207.755 66.3288ZM207.755 66.8457C207.704 66.8832 207.635 66.9363 207.549 67.0047C207.465 67.071 207.383 67.124 207.304 67.1638C207.193 67.2212 207.086 67.2654 206.983 67.2963C206.881 67.3272 206.737 67.3427 206.552 67.3427C206.399 67.3427 206.255 67.314 206.118 67.2566C205.981 67.1991 205.86 67.1185 205.757 67.0147C205.657 66.9131 205.578 66.7883 205.518 66.6403C205.458 66.4901 205.429 66.3321 205.429 66.1665C205.429 65.9102 205.483 65.6926 205.591 65.5137C205.699 65.3326 205.87 65.189 206.104 65.083C206.312 64.988 206.557 64.9228 206.84 64.8875C207.123 64.8499 207.428 64.8223 207.755 64.8047V64.6854C207.755 64.5396 207.732 64.4225 207.688 64.3342C207.644 64.2436 207.582 64.174 207.503 64.1254C207.423 64.0746 207.326 64.0415 207.211 64.026C207.096 64.0083 206.978 63.9995 206.857 63.9995C206.713 63.9995 206.544 64.0216 206.35 64.0658C206.155 64.1077 205.961 64.1696 205.767 64.2513H205.73V63.6185C205.845 63.5853 206.009 63.5489 206.224 63.5091C206.438 63.4694 206.65 63.4495 206.86 63.4495C207.114 63.4495 207.328 63.4694 207.503 63.5091C207.677 63.5489 207.834 63.6207 207.973 63.7245C208.108 63.8261 208.208 63.9575 208.275 64.1188C208.341 64.28 208.374 64.4766 208.374 64.7086V67.24H207.755V66.8457ZM212.175 67.24H211.552V65.5734H209.875V67.24H209.252V63.5389H209.875V65.0366H211.552V63.5389H212.175V67.24Z" fill="#A2E2FF"/>
<path d="M316.53 51.9299H281.64V53.1599H316.53V51.9299Z" fill="#A2E2FF"/>
<path d="M286.81 63.1087C286.81 64.4441 286.615 65.4248 286.226 66.0508C285.839 66.6736 285.241 66.9849 284.432 66.9849C283.613 66.9849 283.012 66.6669 282.629 66.0309C282.246 65.3948 282.055 64.4241 282.055 63.1187C282.055 61.7767 282.248 60.796 282.634 60.1766C283.024 59.5539 283.623 59.2425 284.432 59.2425C285.251 59.2425 285.853 59.5638 286.236 60.2066C286.618 60.8493 286.81 61.8166 286.81 63.1087ZM285.531 65.3765C285.628 65.1301 285.696 64.8187 285.736 64.4424C285.776 64.0661 285.796 63.6215 285.796 63.1087C285.796 62.5992 285.776 62.1563 285.736 61.78C285.696 61.4037 285.626 61.0907 285.526 60.8409C285.426 60.5878 285.288 60.3964 285.112 60.2665C284.938 60.1333 284.712 60.0667 284.432 60.0667C284.156 60.0667 283.928 60.1333 283.748 60.2665C283.571 60.3964 283.432 60.5912 283.328 60.8509C283.228 61.104 283.16 61.4237 283.124 61.81C283.087 62.1963 283.069 62.6325 283.069 63.1187C283.069 63.6382 283.084 64.0728 283.114 64.4224C283.147 64.7721 283.217 65.0851 283.323 65.3615C283.42 65.6179 283.556 65.8161 283.733 65.9559C283.913 66.0925 284.146 66.1607 284.432 66.1607C284.709 66.1607 284.935 66.0958 285.112 65.9659C285.291 65.8327 285.431 65.6362 285.531 65.3765ZM289.722 65.4065L288.323 68.6783H287.594L288.473 65.4065H289.722ZM295.077 66.8301H291.45V66.0708H292.799V61.0857H291.45V60.4064C291.96 60.4064 292.335 60.3348 292.574 60.1916C292.817 60.045 292.954 59.7703 292.984 59.3674H293.758V66.0708H295.077V66.8301ZM301.236 64.2726H300.352V66.8301H299.393V64.2726H296.106V63.2236L299.433 59.3923H300.352V63.4734H301.236V64.2726ZM299.393 63.4734V60.5662L296.885 63.4734H299.393ZM306.661 63.1087C306.661 64.4441 306.466 65.4248 306.076 66.0508C305.69 66.6736 305.092 66.9849 304.283 66.9849C303.464 66.9849 302.863 66.6669 302.48 66.0309C302.097 65.3948 301.905 64.4241 301.905 63.1187C301.905 61.7767 302.098 60.796 302.485 60.1766C302.874 59.5539 303.474 59.2425 304.283 59.2425C305.102 59.2425 305.703 59.5638 306.086 60.2066C306.469 60.8493 306.661 61.8166 306.661 63.1087ZM305.382 65.3765C305.478 65.1301 305.547 64.8187 305.587 64.4424C305.627 64.0661 305.647 63.6215 305.647 63.1087C305.647 62.5992 305.627 62.1563 305.587 61.78C305.547 61.4037 305.477 61.0907 305.377 60.8409C305.277 60.5878 305.139 60.3964 304.962 60.2665C304.789 60.1333 304.563 60.0667 304.283 60.0667C304.006 60.0667 303.778 60.1333 303.599 60.2665C303.422 60.3964 303.282 60.5912 303.179 60.8509C303.079 61.104 303.011 61.4237 302.974 61.81C302.938 62.1963 302.919 62.6325 302.919 63.1187C302.919 63.6382 302.934 64.0728 302.964 64.4224C302.997 64.7721 303.067 65.0851 303.174 65.3615C303.271 65.6179 303.407 65.8161 303.584 65.9559C303.763 66.0925 303.996 66.1607 304.283 66.1607C304.559 66.1607 304.786 66.0958 304.962 65.9659C305.142 65.8327 305.282 65.6362 305.382 65.3765ZM311.126 61.1257C311.126 60.7926 311.015 60.5146 310.792 60.2915C310.568 60.0684 310.259 59.9568 309.862 59.9568C309.499 59.9568 309.201 60.0567 308.968 60.2565C308.739 60.4563 308.624 60.726 308.624 61.0657C308.624 61.3121 308.682 61.5203 308.798 61.6901C308.918 61.8599 309.097 62.0131 309.333 62.1497C309.436 62.2063 309.593 62.2845 309.802 62.3844C310.016 62.4843 310.209 62.5626 310.382 62.6192C310.672 62.3961 310.868 62.168 310.971 61.9349C311.075 61.6984 311.126 61.4287 311.126 61.1257ZM311.266 64.852C311.266 64.5456 311.206 64.3025 311.086 64.1227C310.966 63.9429 310.735 63.7597 310.392 63.5733C310.279 63.51 310.127 63.4417 309.937 63.3685C309.751 63.2952 309.539 63.2086 309.303 63.1087C309.027 63.2919 308.815 63.5183 308.669 63.7881C308.522 64.0545 308.449 64.3592 308.449 64.7022C308.449 65.1517 308.584 65.523 308.853 65.8161C309.126 66.1091 309.468 66.2556 309.877 66.2556C310.297 66.2556 310.633 66.1308 310.886 65.881C311.14 65.6279 311.266 65.2849 311.266 64.852ZM309.867 66.9999C309.498 66.9999 309.161 66.945 308.858 66.8351C308.555 66.7252 308.297 66.567 308.084 66.3605C307.874 66.1607 307.715 65.9243 307.605 65.6512C307.498 65.3748 307.445 65.0835 307.445 64.7771C307.445 64.3741 307.551 64.0045 307.764 63.6682C307.981 63.3285 308.294 63.0588 308.704 62.859V62.829C308.337 62.6159 308.066 62.3828 307.889 62.1297C307.713 61.8766 307.625 61.5602 307.625 61.1806C307.625 60.6211 307.836 60.1549 308.259 59.782C308.682 59.409 309.218 59.2225 309.867 59.2225C310.543 59.2225 311.085 59.4007 311.491 59.757C311.9 60.11 312.105 60.5629 312.105 61.1157C312.105 61.4487 312.007 61.7783 311.811 62.1047C311.617 62.431 311.338 62.6858 310.971 62.869V62.8989C311.404 63.1021 311.732 63.3485 311.955 63.6382C312.178 63.9279 312.29 64.3009 312.29 64.7571C312.29 65.3931 312.059 65.926 311.596 66.3555C311.136 66.7851 310.56 66.9999 309.867 66.9999Z" fill="#A2E2FF"/>
<path d="M286.81 76.8988C286.81 78.2341 286.615 79.2148 286.226 79.8409C285.839 80.4636 285.241 80.775 284.432 80.775C283.613 80.775 283.012 80.4569 282.629 79.8209C282.246 79.1849 282.055 78.2141 282.055 76.9087C282.055 75.5667 282.248 74.586 282.634 73.9666C283.024 73.3439 283.623 73.0325 284.432 73.0325C285.251 73.0325 285.853 73.3539 286.236 73.9966C286.618 74.6393 286.81 75.6067 286.81 76.8988ZM285.531 79.1665C285.628 78.9201 285.696 78.6088 285.736 78.2325C285.776 77.8562 285.796 77.4116 285.796 76.8988C285.796 76.3893 285.776 75.9464 285.736 75.5701C285.696 75.1938 285.626 74.8807 285.526 74.631C285.426 74.3779 285.288 74.1864 285.112 74.0565C284.938 73.9233 284.712 73.8567 284.432 73.8567C284.156 73.8567 283.928 73.9233 283.748 74.0565C283.571 74.1864 283.432 74.3812 283.328 74.641C283.228 74.894 283.16 75.2137 283.124 75.6C283.087 75.9863 283.069 76.4226 283.069 76.9087C283.069 77.4282 283.084 77.8628 283.114 78.2125C283.147 78.5621 283.217 78.8752 283.323 79.1516C283.42 79.408 283.556 79.6061 283.733 79.746C283.913 79.8825 284.146 79.9508 284.432 79.9508C284.709 79.9508 284.935 79.8858 285.112 79.756C285.291 79.6228 285.431 79.4263 285.531 79.1665ZM289.722 79.1965L288.323 82.4683H287.594L288.473 79.1965H289.722ZM295.077 80.6201H291.45V79.8609H292.799V74.8757H291.45V74.1964C291.96 74.1964 292.335 74.1248 292.574 73.9816C292.817 73.8351 292.954 73.5604 292.984 73.1574H293.758V79.8609H295.077V80.6201ZM298.459 73.8917C298.279 73.8917 298.099 73.9133 297.919 73.9566C297.739 73.9999 297.563 74.0565 297.39 74.1265C297.23 74.1931 297.09 74.263 296.97 74.3363C296.853 74.4095 296.749 74.4778 296.655 74.5411H296.595V73.4871C296.812 73.3705 297.105 73.2656 297.475 73.1724C297.848 73.0758 298.202 73.0275 298.538 73.0275C298.875 73.0275 299.168 73.0625 299.418 73.1324C299.671 73.199 299.899 73.3039 300.102 73.4471C300.322 73.607 300.487 73.8001 300.596 74.0266C300.71 74.253 300.766 74.5177 300.766 74.8208C300.766 75.2304 300.631 75.59 300.362 75.8997C300.092 76.2094 299.769 76.4059 299.393 76.4892V76.5591C299.549 76.5891 299.716 76.6407 299.892 76.7139C300.072 76.7872 300.239 76.8954 300.392 77.0386C300.545 77.1818 300.67 77.3666 300.766 77.5931C300.863 77.8162 300.911 78.0893 300.911 78.4123C300.911 78.7486 300.853 79.0583 300.736 79.3414C300.623 79.6211 300.462 79.8692 300.252 80.0856C300.035 80.3121 299.774 80.4836 299.468 80.6001C299.161 80.7167 298.813 80.775 298.424 80.775C298.051 80.775 297.681 80.73 297.315 80.6401C296.948 80.5502 296.64 80.442 296.391 80.3154V79.2614H296.461C296.67 79.4146 296.952 79.5612 297.305 79.701C297.658 79.8409 298.011 79.9108 298.364 79.9108C298.567 79.9108 298.77 79.8792 298.973 79.8159C299.18 79.7493 299.351 79.6427 299.488 79.4962C299.621 79.3497 299.722 79.1882 299.792 79.0117C299.862 78.8352 299.897 78.6121 299.897 78.3423C299.897 78.0726 299.857 77.8512 299.777 77.678C299.701 77.5048 299.592 77.3683 299.453 77.2684C299.313 77.1685 299.146 77.1002 298.953 77.0636C298.763 77.0236 298.557 77.0037 298.334 77.0037H297.909V76.1745H298.239C298.688 76.1745 299.053 76.0679 299.333 75.8548C299.616 75.6417 299.757 75.332 299.757 74.9257C299.757 74.7392 299.721 74.5794 299.647 74.4462C299.574 74.3096 299.481 74.2014 299.368 74.1215C299.241 74.0349 299.101 73.9749 298.948 73.9416C298.795 73.9083 298.632 73.8917 298.459 73.8917ZM305.647 76.2394C305.647 75.7332 305.6 75.322 305.507 75.0056C305.413 74.6859 305.285 74.4395 305.122 74.2663C304.976 74.1065 304.827 73.9966 304.677 73.9367C304.528 73.8767 304.363 73.8467 304.183 73.8467C303.773 73.8467 303.447 73.9933 303.204 74.2863C302.961 74.5794 302.839 75.0039 302.839 75.5601C302.839 75.8731 302.879 76.1312 302.959 76.3343C303.039 76.5374 303.169 76.7123 303.349 76.8588C303.475 76.962 303.619 77.032 303.778 77.0686C303.938 77.1019 304.11 77.1185 304.293 77.1185C304.506 77.1185 304.736 77.0819 304.982 77.0086C305.229 76.9321 305.443 76.8322 305.627 76.7089C305.63 76.659 305.633 76.5941 305.637 76.5141C305.643 76.4309 305.647 76.3393 305.647 76.2394ZM301.825 75.6C301.825 75.2171 301.887 74.8674 302.01 74.5511C302.137 74.2347 302.308 73.9616 302.525 73.7319C302.731 73.5121 302.982 73.3406 303.279 73.2174C303.579 73.0941 303.882 73.0325 304.188 73.0325C304.531 73.0325 304.841 73.0908 305.117 73.2074C305.397 73.3206 305.638 73.4854 305.841 73.7019C306.098 73.9749 306.296 74.3329 306.436 74.7758C306.579 75.2187 306.651 75.7782 306.651 76.4542C306.651 77.0703 306.581 77.6547 306.441 78.2075C306.304 78.7569 306.101 79.2132 305.831 79.5761C305.545 79.9624 305.2 80.2571 304.797 80.4603C304.398 80.6634 303.903 80.765 303.314 80.765C303.181 80.765 303.039 80.7567 302.889 80.74C302.739 80.7267 302.6 80.7 302.47 80.6601V79.706H302.52C302.603 79.7526 302.733 79.7976 302.909 79.8409C303.086 79.8842 303.266 79.9058 303.449 79.9058C304.101 79.9058 304.614 79.691 304.987 79.2614C305.36 78.8319 305.572 78.2175 305.622 77.4182C305.355 77.5981 305.1 77.7296 304.857 77.8129C304.618 77.8961 304.356 77.9377 304.073 77.9377C303.797 77.9377 303.545 77.9078 303.319 77.8478C303.092 77.7879 302.864 77.6713 302.634 77.4982C302.368 77.295 302.167 77.0386 302.03 76.7289C301.894 76.4159 301.825 76.0396 301.825 75.6ZM311.126 74.9157C311.126 74.5827 311.015 74.3046 310.792 74.0815C310.568 73.8584 310.259 73.7468 309.862 73.7468C309.499 73.7468 309.201 73.8467 308.968 74.0465C308.739 74.2463 308.624 74.5161 308.624 74.8558C308.624 75.1022 308.682 75.3103 308.798 75.4801C308.918 75.65 309.097 75.8032 309.333 75.9397C309.436 75.9963 309.593 76.0746 309.802 76.1745C310.016 76.2744 310.209 76.3526 310.382 76.4092C310.672 76.1861 310.868 75.958 310.971 75.7249C311.075 75.4885 311.126 75.2187 311.126 74.9157ZM311.266 78.6421C311.266 78.3357 311.206 78.0926 311.086 77.9128C310.966 77.7329 310.735 77.5498 310.392 77.3633C310.279 77.3 310.127 77.2318 309.937 77.1585C309.751 77.0852 309.539 76.9987 309.303 76.8988C309.027 77.0819 308.815 77.3084 308.669 77.5781C308.522 77.8445 308.449 78.1492 308.449 78.4922C308.449 78.9418 308.584 79.3131 308.853 79.6061C309.126 79.8992 309.468 80.0457 309.877 80.0457C310.297 80.0457 310.633 79.9208 310.886 79.671C311.14 79.418 311.266 79.075 311.266 78.6421ZM309.867 80.79C309.498 80.79 309.161 80.735 308.858 80.6251C308.555 80.5152 308.297 80.357 308.084 80.1506C307.874 79.9508 307.715 79.7143 307.605 79.4413C307.498 79.1649 307.445 78.8735 307.445 78.5671C307.445 78.1642 307.551 77.7945 307.764 77.4582C307.981 77.1185 308.294 76.8488 308.704 76.649V76.619C308.337 76.4059 308.066 76.1728 307.889 75.9197C307.713 75.6666 307.625 75.3503 307.625 74.9706C307.625 74.4112 307.836 73.945 308.259 73.572C308.682 73.199 309.218 73.0126 309.867 73.0126C310.543 73.0126 311.085 73.1907 311.491 73.547C311.9 73.9 312.105 74.3529 312.105 74.9057C312.105 75.2387 312.007 75.5684 311.811 75.8947C311.617 76.2211 311.338 76.4758 310.971 76.659V76.689C311.404 76.8921 311.732 77.1385 311.955 77.4282C312.178 77.718 312.29 78.0909 312.29 78.5471C312.29 79.1832 312.059 79.716 311.596 80.1456C311.136 80.5752 310.56 80.79 309.867 80.79Z" fill="#8C99B2"/>
<path d="M285.722 48.1599H285.066V43.8094H282.796V48.1599H282.14V43.2263H285.722V48.1599ZM289.781 46.2116C289.781 46.8279 289.633 47.3194 289.337 47.6861C289.043 48.0506 288.671 48.2328 288.22 48.2328C288.037 48.2328 287.875 48.2118 287.733 48.1699C287.592 48.1279 287.447 48.0627 287.299 47.9744V49.525H286.676V44.4589H287.299V44.8465C287.454 44.7074 287.625 44.5914 287.813 44.4986C288.003 44.4036 288.209 44.3561 288.432 44.3561C288.857 44.3561 289.187 44.524 289.423 44.8598C289.662 45.1955 289.781 45.6462 289.781 46.2116ZM289.138 46.2812C289.138 45.8593 289.071 45.5324 288.936 45.3005C288.801 45.0663 288.583 44.9492 288.28 44.9492C288.103 44.9492 287.932 44.989 287.766 45.0685C287.603 45.1458 287.447 45.2463 287.299 45.37V47.4674C287.463 47.5469 287.602 47.6011 287.717 47.6298C287.834 47.6585 287.967 47.6728 288.118 47.6728C288.44 47.6728 288.691 47.5547 288.87 47.3183C289.049 47.082 289.138 46.7363 289.138 46.2812ZM292.143 46.3011H290.275V45.7014H292.143V46.3011ZM295.795 47.04C295.795 47.2189 295.761 47.378 295.692 47.5171C295.624 47.6541 295.53 47.7689 295.41 47.8617C295.26 47.9788 295.102 48.0583 294.937 48.1003C294.773 48.14 294.577 48.1599 294.347 48.1599H292.892V44.4589H294.251C294.522 44.4589 294.721 44.4677 294.847 44.4854C294.973 44.5008 295.098 44.5428 295.222 44.6113C295.352 44.682 295.448 44.7758 295.51 44.8929C295.572 45.01 295.603 45.1491 295.603 45.3104C295.603 45.4871 295.554 45.6462 295.457 45.7875C295.36 45.9267 295.23 46.0349 295.069 46.1122L295.086 46.1354C295.287 46.1862 295.455 46.289 295.589 46.4436C295.726 46.5982 295.795 46.797 295.795 47.04ZM294.963 45.4065C294.963 45.3225 294.949 45.2497 294.92 45.1878C294.894 45.126 294.846 45.0774 294.778 45.042C294.698 45 294.609 44.9757 294.509 44.9691C294.412 44.9603 294.276 44.9559 294.102 44.9559H293.509V45.9698H294.224C294.377 45.9698 294.485 45.9631 294.549 45.9499C294.613 45.9344 294.684 45.9035 294.761 45.8571C294.834 45.8129 294.886 45.7533 294.917 45.6782C294.948 45.6031 294.963 45.5125 294.963 45.4065ZM295.152 47.0433C295.152 46.9174 295.133 46.8169 295.096 46.7418C295.06 46.6645 294.981 46.596 294.857 46.5364C294.78 46.4988 294.697 46.4756 294.609 46.4668C294.52 46.4579 294.398 46.4535 294.241 46.4535H293.509V47.6629H294.049C294.272 47.6629 294.445 47.6541 294.569 47.6364C294.693 47.6187 294.799 47.5834 294.887 47.5304C294.98 47.4729 295.047 47.4067 295.089 47.3316C295.131 47.2565 295.152 47.1604 295.152 47.0433ZM299.496 46.311C299.496 46.934 299.346 47.4155 299.045 47.7557C298.745 48.0936 298.345 48.2626 297.846 48.2626C297.331 48.2626 296.926 48.0881 296.63 47.7391C296.336 47.3879 296.189 46.9119 296.189 46.311C296.189 45.6925 296.34 45.2121 296.643 44.8697C296.948 44.5273 297.349 44.3561 297.846 44.3561C298.345 44.3561 298.745 44.5273 299.045 44.8697C299.346 45.2099 299.496 45.6903 299.496 46.311ZM298.853 46.311C298.853 45.8317 298.766 45.4761 298.591 45.2441C298.417 45.01 298.168 44.8929 297.846 44.8929C297.521 44.8929 297.27 45.01 297.094 45.2441C296.919 45.4761 296.832 45.8317 296.832 46.311C296.832 46.7749 296.919 47.1272 297.094 47.368C297.27 47.6066 297.521 47.7259 297.846 47.7259C298.166 47.7259 298.413 47.6088 298.588 47.3746C298.765 47.1383 298.853 46.7838 298.853 46.311ZM305.211 48.1599H302.166V47.4674C302.385 47.2598 302.592 47.061 302.786 46.871C302.98 46.681 303.17 46.4833 303.356 46.2779C303.731 45.8648 303.988 45.5346 304.125 45.2872C304.262 45.0376 304.33 44.7803 304.33 44.5152C304.33 44.3782 304.308 44.2578 304.264 44.154C304.222 44.0502 304.163 43.9641 304.088 43.8956C304.011 43.8293 303.921 43.7796 303.82 43.7465C303.718 43.7133 303.607 43.6968 303.485 43.6968C303.368 43.6968 303.249 43.7122 303.127 43.7432C303.008 43.7719 302.893 43.8083 302.783 43.8525C302.69 43.8901 302.6 43.9353 302.514 43.9884C302.428 44.0414 302.359 44.0867 302.306 44.1242H302.269V43.4218C302.406 43.3533 302.596 43.287 302.839 43.223C303.084 43.1567 303.316 43.1236 303.535 43.1236C303.994 43.1236 304.354 43.2462 304.615 43.4914C304.876 43.7343 305.006 44.0646 305.006 44.4821C305.006 44.6742 304.983 44.852 304.936 45.0155C304.892 45.179 304.83 45.3303 304.751 45.4694C304.669 45.613 304.571 45.7555 304.456 45.8969C304.341 46.0382 304.22 46.1774 304.092 46.3144C303.884 46.5397 303.652 46.7738 303.396 47.0168C303.142 47.2598 302.938 47.452 302.786 47.5933H305.211V48.1599Z" fill="#A2E2FF"/>
<path d="M259.24 51.9299H224.35V53.1599H259.24V51.9299Z" fill="#A2E2FF"/>
<path d="M229.52 63.1087C229.52 64.4441 229.325 65.4248 228.936 66.0508C228.549 66.6736 227.951 66.9849 227.142 66.9849C226.323 66.9849 225.722 66.6669 225.339 66.0309C224.956 65.3948 224.765 64.4241 224.765 63.1187C224.765 61.7767 224.958 60.796 225.344 60.1766C225.734 59.5539 226.333 59.2425 227.142 59.2425C227.961 59.2425 228.563 59.5638 228.946 60.2066C229.328 60.8493 229.52 61.8166 229.52 63.1087ZM228.241 65.3765C228.338 65.1301 228.406 64.8187 228.446 64.4424C228.486 64.0661 228.506 63.6215 228.506 63.1087C228.506 62.5992 228.486 62.1563 228.446 61.78C228.406 61.4037 228.336 61.0907 228.236 60.8409C228.136 60.5878 227.998 60.3964 227.822 60.2665C227.648 60.1333 227.422 60.0667 227.142 60.0667C226.866 60.0667 226.638 60.1333 226.458 60.2665C226.281 60.3964 226.142 60.5912 226.038 60.8509C225.938 61.104 225.87 61.4237 225.834 61.81C225.797 62.1963 225.779 62.6325 225.779 63.1187C225.779 63.6382 225.794 64.0728 225.824 64.4224C225.857 64.7721 225.927 65.0851 226.033 65.3615C226.13 65.6179 226.266 65.8161 226.443 65.9559C226.623 66.0925 226.856 66.1607 227.142 66.1607C227.419 66.1607 227.645 66.0958 227.822 65.9659C228.001 65.8327 228.141 65.6362 228.241 65.3765ZM232.432 65.4065L231.033 68.6783H230.304L231.183 65.4065H232.432ZM238.201 63.1087C238.201 64.4441 238.007 65.4248 237.617 66.0508C237.231 66.6736 236.633 66.9849 235.824 66.9849C235.005 66.9849 234.404 66.6669 234.021 66.0309C233.638 65.3948 233.446 64.4241 233.446 63.1187C233.446 61.7767 233.639 60.796 234.026 60.1766C234.415 59.5539 235.015 59.2425 235.824 59.2425C236.643 59.2425 237.244 59.5638 237.627 60.2066C238.01 60.8493 238.201 61.8166 238.201 63.1087ZM236.923 65.3765C237.019 65.1301 237.088 64.8187 237.128 64.4424C237.167 64.0661 237.187 63.6215 237.187 63.1087C237.187 62.5992 237.167 62.1563 237.128 61.78C237.088 61.4037 237.018 61.0907 236.918 60.8409C236.818 60.5878 236.68 60.3964 236.503 60.2665C236.33 60.1333 236.104 60.0667 235.824 60.0667C235.547 60.0667 235.319 60.1333 235.139 60.2665C234.963 60.3964 234.823 60.5912 234.72 60.8509C234.62 61.104 234.552 61.4237 234.515 61.81C234.478 62.1963 234.46 62.6325 234.46 63.1187C234.46 63.6382 234.475 64.0728 234.505 64.4224C234.538 64.7721 234.608 65.0851 234.715 65.3615C234.811 65.6179 234.948 65.8161 235.124 65.9559C235.304 66.0925 235.537 66.1607 235.824 66.1607C236.1 66.1607 236.327 66.0958 236.503 65.9659C236.683 65.8327 236.823 65.6362 236.923 65.3765ZM243.751 66.8301H239.161V65.7861C239.49 65.4731 239.802 65.1734 240.095 64.887C240.388 64.6006 240.674 64.3025 240.954 63.9929C241.52 63.3701 241.906 62.8723 242.113 62.4993C242.319 62.123 242.422 61.7351 242.422 61.3354C242.422 61.129 242.389 60.9475 242.322 60.791C242.259 60.6345 242.171 60.5046 242.058 60.4014C241.941 60.3015 241.806 60.2265 241.653 60.1766C241.5 60.1266 241.332 60.1017 241.149 60.1017C240.972 60.1017 240.792 60.125 240.609 60.1716C240.429 60.2149 240.256 60.2698 240.09 60.3364C239.95 60.393 239.815 60.4613 239.685 60.5412C239.555 60.6211 239.45 60.6894 239.37 60.746H239.315V59.6871C239.522 59.5838 239.808 59.4839 240.175 59.3874C240.544 59.2875 240.894 59.2375 241.224 59.2375C241.916 59.2375 242.459 59.4223 242.852 59.792C243.245 60.1583 243.441 60.6561 243.441 61.2855C243.441 61.5752 243.406 61.8433 243.336 62.0897C243.27 62.3361 243.177 62.5642 243.057 62.774C242.934 62.9905 242.785 63.2053 242.612 63.4184C242.439 63.6315 242.256 63.8413 242.063 64.0478C241.75 64.3875 241.4 64.7405 241.014 65.1068C240.631 65.4731 240.324 65.7628 240.095 65.9759H243.751V66.8301ZM248.956 66.8301H245.329V66.0708H246.678V61.0857H245.329V60.4064C245.839 60.4064 246.214 60.3348 246.453 60.1916C246.696 60.045 246.833 59.7703 246.863 59.3674H247.637V66.0708H248.956V66.8301ZM254.835 64.4624C254.835 64.822 254.777 65.155 254.66 65.4614C254.547 65.7678 254.387 66.0325 254.181 66.2556C253.971 66.4821 253.71 66.6602 253.397 66.7901C253.087 66.92 252.739 66.9849 252.353 66.9849C251.996 66.9849 251.645 66.945 251.299 66.865C250.956 66.7885 250.658 66.6869 250.405 66.5603V65.5064H250.474C250.551 65.563 250.661 65.6279 250.804 65.7012C250.947 65.7711 251.106 65.8377 251.279 65.901C251.475 65.9709 251.655 66.0259 251.818 66.0658C251.981 66.1025 252.164 66.1208 252.368 66.1208C252.567 66.1208 252.762 66.0858 252.952 66.0159C253.142 65.9426 253.305 65.8261 253.442 65.6662C253.565 65.5197 253.658 65.3482 253.721 65.1517C253.788 64.9552 253.821 64.7238 253.821 64.4574C253.821 64.1943 253.785 63.9779 253.711 63.808C253.641 63.6382 253.538 63.4983 253.402 63.3884C253.258 63.2619 253.082 63.1737 252.872 63.1237C252.666 63.0704 252.434 63.0438 252.178 63.0438C251.908 63.0438 251.637 63.0654 251.364 63.1087C251.091 63.1487 250.872 63.187 250.709 63.2236V59.3923H254.79V60.2665H251.673V62.2446C251.793 62.2312 251.911 62.2213 252.028 62.2146C252.145 62.2079 252.251 62.2046 252.348 62.2046C252.727 62.2046 253.049 62.2362 253.312 62.2995C253.575 62.3628 253.828 62.486 254.071 62.6691C254.317 62.8556 254.506 63.0887 254.635 63.3685C254.769 63.6482 254.835 64.0128 254.835 64.4624Z" fill="#A2E2FF"/>
<path d="M229.52 76.8988C229.52 78.2341 229.325 79.2148 228.936 79.8409C228.549 80.4636 227.951 80.775 227.142 80.775C226.323 80.775 225.722 80.4569 225.339 79.8209C224.956 79.1849 224.765 78.2141 224.765 76.9087C224.765 75.5667 224.958 74.586 225.344 73.9666C225.734 73.3439 226.333 73.0325 227.142 73.0325C227.961 73.0325 228.563 73.3539 228.946 73.9966C229.328 74.6393 229.52 75.6067 229.52 76.8988ZM228.241 79.1665C228.338 78.9201 228.406 78.6088 228.446 78.2325C228.486 77.8562 228.506 77.4116 228.506 76.8988C228.506 76.3893 228.486 75.9464 228.446 75.5701C228.406 75.1938 228.336 74.8807 228.236 74.631C228.136 74.3779 227.998 74.1864 227.822 74.0565C227.648 73.9233 227.422 73.8567 227.142 73.8567C226.866 73.8567 226.638 73.9233 226.458 74.0565C226.281 74.1864 226.142 74.3812 226.038 74.641C225.938 74.894 225.87 75.2137 225.834 75.6C225.797 75.9863 225.779 76.4226 225.779 76.9087C225.779 77.4282 225.794 77.8628 225.824 78.2125C225.857 78.5621 225.927 78.8752 226.033 79.1516C226.13 79.408 226.266 79.6061 226.443 79.746C226.623 79.8825 226.856 79.9508 227.142 79.9508C227.419 79.9508 227.645 79.8858 227.822 79.756C228.001 79.6228 228.141 79.4263 228.241 79.1665ZM232.432 79.1965L231.033 82.4683H230.304L231.183 79.1965H232.432ZM238.201 76.8988C238.201 78.2341 238.007 79.2148 237.617 79.8409C237.231 80.4636 236.633 80.775 235.824 80.775C235.005 80.775 234.404 80.4569 234.021 79.8209C233.638 79.1849 233.446 78.2141 233.446 76.9087C233.446 75.5667 233.639 74.586 234.026 73.9666C234.415 73.3439 235.015 73.0325 235.824 73.0325C236.643 73.0325 237.244 73.3539 237.627 73.9966C238.01 74.6393 238.201 75.6067 238.201 76.8988ZM236.923 79.1665C237.019 78.9201 237.088 78.6088 237.128 78.2325C237.167 77.8562 237.187 77.4116 237.187 76.8988C237.187 76.3893 237.167 75.9464 237.128 75.5701C237.088 75.1938 237.018 74.8807 236.918 74.631C236.818 74.3779 236.68 74.1864 236.503 74.0565C236.33 73.9233 236.104 73.8567 235.824 73.8567C235.547 73.8567 235.319 73.9233 235.139 74.0565C234.963 74.1864 234.823 74.3812 234.72 74.641C234.62 74.894 234.552 75.2137 234.515 75.6C234.478 75.9863 234.46 76.4226 234.46 76.9087C234.46 77.4282 234.475 77.8628 234.505 78.2125C234.538 78.5621 234.608 78.8752 234.715 79.1516C234.811 79.408 234.948 79.6061 235.124 79.746C235.304 79.8825 235.537 79.9508 235.824 79.9508C236.1 79.9508 236.327 79.8858 236.503 79.756C236.683 79.6228 236.823 79.4263 236.923 79.1665ZM243.751 80.6201H239.161V79.5761C239.49 79.2631 239.802 78.9634 240.095 78.677C240.388 78.3906 240.674 78.0926 240.954 77.7829C241.52 77.1602 241.906 76.6623 242.113 76.2894C242.319 75.9131 242.422 75.5251 242.422 75.1255C242.422 74.919 242.389 74.7375 242.322 74.581C242.259 74.4245 242.171 74.2946 242.058 74.1914C241.941 74.0915 241.806 74.0166 241.653 73.9666C241.5 73.9167 241.332 73.8917 241.149 73.8917C240.972 73.8917 240.792 73.915 240.609 73.9616C240.429 74.0049 240.256 74.0599 240.09 74.1265C239.95 74.1831 239.815 74.2513 239.685 74.3313C239.555 74.4112 239.45 74.4795 239.37 74.5361H239.315V73.4771C239.522 73.3739 239.808 73.274 240.175 73.1774C240.544 73.0775 240.894 73.0275 241.224 73.0275C241.916 73.0275 242.459 73.2124 242.852 73.582C243.245 73.9483 243.441 74.4462 243.441 75.0755C243.441 75.3653 243.406 75.6333 243.336 75.8798C243.27 76.1262 243.177 76.3543 243.057 76.5641C242.934 76.7805 242.785 76.9953 242.612 77.2085C242.439 77.4216 242.256 77.6314 242.063 77.8378C241.75 78.1775 241.4 78.5305 241.014 78.8968C240.631 79.2631 240.324 79.5528 240.095 79.766H243.751V80.6201ZM248.956 80.6201H245.329V79.8609H246.678V74.8757H245.329V74.1964C245.839 74.1964 246.214 74.1248 246.453 73.9816C246.696 73.8351 246.833 73.5604 246.863 73.1574H247.637V79.8609H248.956V80.6201ZM252.338 73.8917C252.158 73.8917 251.978 73.9133 251.798 73.9566C251.618 73.9999 251.442 74.0565 251.269 74.1265C251.109 74.1931 250.969 74.263 250.849 74.3363C250.733 74.4095 250.628 74.4778 250.534 74.5411H250.474V73.4871C250.691 73.3705 250.984 73.2656 251.354 73.1724C251.727 73.0758 252.081 73.0275 252.418 73.0275C252.754 73.0275 253.047 73.0625 253.297 73.1324C253.55 73.199 253.778 73.3039 253.981 73.4471C254.201 73.607 254.366 73.8001 254.476 74.0266C254.589 74.253 254.645 74.5177 254.645 74.8208C254.645 75.2304 254.511 75.59 254.241 75.8997C253.971 76.2094 253.648 76.4059 253.272 76.4892V76.5591C253.428 76.5891 253.595 76.6407 253.771 76.7139C253.951 76.7872 254.118 76.8954 254.271 77.0386C254.424 77.1818 254.549 77.3666 254.645 77.5931C254.742 77.8162 254.79 78.0893 254.79 78.4123C254.79 78.7486 254.732 79.0583 254.615 79.3414C254.502 79.6211 254.341 79.8692 254.131 80.0856C253.914 80.3121 253.653 80.4836 253.347 80.6001C253.04 80.7167 252.692 80.775 252.303 80.775C251.93 80.775 251.56 80.73 251.194 80.6401C250.827 80.5502 250.519 80.442 250.27 80.3154V79.2614H250.34C250.549 79.4146 250.831 79.5612 251.184 79.701C251.537 79.8409 251.89 79.9108 252.243 79.9108C252.446 79.9108 252.649 79.8792 252.852 79.8159C253.059 79.7493 253.23 79.6427 253.367 79.4962C253.5 79.3497 253.601 79.1882 253.671 79.0117C253.741 78.8352 253.776 78.6121 253.776 78.3423C253.776 78.0726 253.736 77.8512 253.656 77.678C253.58 77.5048 253.472 77.3683 253.332 77.2684C253.192 77.1685 253.025 77.1002 252.832 77.0636C252.642 77.0236 252.436 77.0037 252.213 77.0037H251.788V76.1745H252.118C252.567 76.1745 252.932 76.0679 253.212 75.8548C253.495 75.6417 253.636 75.332 253.636 74.9257C253.636 74.7392 253.6 74.5794 253.526 74.4462C253.453 74.3096 253.36 74.2014 253.247 74.1215C253.12 74.0349 252.98 73.9749 252.827 73.9416C252.674 73.9083 252.511 73.8917 252.338 73.8917Z" fill="#8C99B2"/>
<path d="M228.432 48.1599H227.776V43.8094H225.506V48.1599H224.85V43.2263H228.432V48.1599ZM232.491 46.2116C232.491 46.8279 232.343 47.3194 232.047 47.6861C231.753 48.0506 231.381 48.2328 230.93 48.2328C230.747 48.2328 230.585 48.2118 230.443 48.1699C230.302 48.1279 230.157 48.0627 230.009 47.9744V49.525H229.386V44.4589H230.009V44.8465C230.164 44.7074 230.335 44.5914 230.523 44.4986C230.713 44.4036 230.919 44.3561 231.142 44.3561C231.567 44.3561 231.897 44.524 232.133 44.8598C232.372 45.1955 232.491 45.6462 232.491 46.2116ZM231.848 46.2812C231.848 45.8593 231.781 45.5324 231.646 45.3005C231.511 45.0663 231.293 44.9492 230.99 44.9492C230.813 44.9492 230.642 44.989 230.476 45.0685C230.313 45.1458 230.157 45.2463 230.009 45.37V47.4674C230.173 47.5469 230.312 47.6011 230.427 47.6298C230.544 47.6585 230.677 47.6728 230.828 47.6728C231.15 47.6728 231.401 47.5547 231.58 47.3183C231.759 47.082 231.848 46.7363 231.848 46.2812ZM234.853 46.3011H232.985V45.7014H234.853V46.3011ZM238.505 47.04C238.505 47.2189 238.471 47.378 238.402 47.5171C238.334 47.6541 238.24 47.7689 238.12 47.8617C237.97 47.9788 237.812 48.0583 237.647 48.1003C237.483 48.14 237.287 48.1599 237.057 48.1599H235.602V44.4589H236.961C237.232 44.4589 237.431 44.4677 237.557 44.4854C237.683 44.5008 237.808 44.5428 237.932 44.6113C238.062 44.682 238.158 44.7758 238.22 44.8929C238.282 45.01 238.313 45.1491 238.313 45.3104C238.313 45.4871 238.264 45.6462 238.167 45.7875C238.07 45.9267 237.94 46.0349 237.779 46.1122L237.796 46.1354C237.997 46.1862 238.165 46.289 238.299 46.4436C238.436 46.5982 238.505 46.797 238.505 47.04ZM237.673 45.4065C237.673 45.3225 237.659 45.2497 237.63 45.1878C237.604 45.126 237.556 45.0774 237.488 45.042C237.408 45 237.319 44.9757 237.219 44.9691C237.122 44.9603 236.986 44.9559 236.812 44.9559H236.219V45.9698H236.934C237.087 45.9698 237.195 45.9631 237.259 45.9499C237.323 45.9344 237.394 45.9035 237.471 45.8571C237.544 45.8129 237.596 45.7533 237.627 45.6782C237.658 45.6031 237.673 45.5125 237.673 45.4065ZM237.862 47.0433C237.862 46.9174 237.843 46.8169 237.806 46.7418C237.77 46.6645 237.691 46.596 237.567 46.5364C237.49 46.4988 237.407 46.4756 237.319 46.4668C237.23 46.4579 237.108 46.4535 236.951 46.4535H236.219V47.6629H236.759C236.982 47.6629 237.155 47.6541 237.279 47.6364C237.403 47.6187 237.509 47.5834 237.597 47.5304C237.69 47.4729 237.757 47.4067 237.799 47.3316C237.841 47.2565 237.862 47.1604 237.862 47.0433ZM242.206 46.311C242.206 46.934 242.056 47.4155 241.755 47.7557C241.455 48.0936 241.055 48.2626 240.556 48.2626C240.041 48.2626 239.636 48.0881 239.34 47.7391C239.046 47.3879 238.899 46.9119 238.899 46.311C238.899 45.6925 239.05 45.2121 239.353 44.8697C239.658 44.5273 240.059 44.3561 240.556 44.3561C241.055 44.3561 241.455 44.5273 241.755 44.8697C242.056 45.2099 242.206 45.6903 242.206 46.311ZM241.563 46.311C241.563 45.8317 241.476 45.4761 241.301 45.2441C241.127 45.01 240.878 44.8929 240.556 44.8929C240.231 44.8929 239.98 45.01 239.804 45.2441C239.629 45.4761 239.542 45.8317 239.542 46.311C239.542 46.7749 239.629 47.1272 239.804 47.368C239.98 47.6066 240.231 47.7259 240.556 47.7259C240.876 47.7259 241.123 47.6088 241.298 47.3746C241.475 47.1383 241.563 46.7838 241.563 46.311ZM247.67 48.1599H245.264V47.6563H246.159V44.3495H245.264V43.8989C245.602 43.8989 245.851 43.8514 246.01 43.7564C246.171 43.6592 246.261 43.477 246.281 43.2097H246.795V47.6563H247.67V48.1599Z" fill="#A2E2FF"/>
<path d="M11.7938 28.3213C11.7938 27.9275 11.7575 27.6075 11.6849 27.3613C11.6124 27.1126 11.5126 26.9208 11.3856 26.7861C11.2716 26.6617 11.1563 26.5762 11.0397 26.5296C10.9231 26.4829 10.7949 26.4596 10.6549 26.4596C10.3362 26.4596 10.0823 26.5736 9.89315 26.8016C9.70399 27.0296 9.60942 27.36 9.60942 27.7927C9.60942 28.0363 9.64051 28.2371 9.7027 28.3952C9.76488 28.5532 9.86594 28.6893 10.0059 28.8033C10.1043 28.8836 10.2157 28.938 10.3401 28.9665C10.4645 28.9924 10.5979 29.0054 10.7405 29.0054C10.9063 29.0054 11.0851 28.9769 11.2768 28.9199C11.4686 28.8603 11.6357 28.7826 11.7782 28.6867C11.7808 28.6478 11.7834 28.5973 11.786 28.5351C11.7912 28.4703 11.7938 28.3991 11.7938 28.3213ZM8.82041 27.8238C8.82041 27.5258 8.86835 27.2538 8.96422 27.0076C9.06268 26.7615 9.19613 26.549 9.36455 26.3702C9.5252 26.1992 9.72083 26.0657 9.95145 25.9699C10.1846 25.874 10.4204 25.8261 10.6588 25.8261C10.9257 25.8261 11.1667 25.8714 11.3818 25.9621C11.5994 26.0502 11.7873 26.1785 11.9453 26.3469C12.1449 26.5593 12.299 26.8379 12.4079 27.1825C12.5193 27.5271 12.575 27.9625 12.575 28.4885C12.575 28.9678 12.5206 29.4226 12.4117 29.8527C12.3055 30.2802 12.1474 30.6352 11.9376 30.9177C11.7147 31.2182 11.4465 31.4475 11.133 31.6056C10.8221 31.7637 10.4373 31.8427 9.97865 31.8427C9.87501 31.8427 9.76488 31.8362 9.64828 31.8233C9.53168 31.8129 9.42285 31.7922 9.3218 31.7611V31.0187H9.36067C9.42544 31.055 9.5265 31.09 9.66383 31.1237C9.80116 31.1573 9.94108 31.1742 10.0836 31.1742C10.5915 31.1742 10.9905 31.0071 11.2807 30.6728C11.5709 30.3385 11.7355 29.8605 11.7743 29.2386C11.567 29.3785 11.3688 29.4809 11.1796 29.5456C10.9931 29.6104 10.7897 29.6428 10.5694 29.6428C10.3544 29.6428 10.1587 29.6195 9.98254 29.5729C9.80634 29.5262 9.62885 29.4355 9.45006 29.3008C9.24277 29.1427 9.086 28.9432 8.97977 28.7022C8.87353 28.4587 8.82041 28.1659 8.82041 27.8238ZM16.9631 26.8094L14.46 31.73H13.6322L16.2829 26.6228H13.2901V25.9427H16.9631V26.8094ZM20.3873 27.5479C20.3873 28.1309 20.2694 28.5636 20.0336 28.846C19.8004 29.1259 19.4622 29.2658 19.0192 29.2658C18.5683 29.2658 18.2263 29.1233 17.9931 28.8383C17.7625 28.5532 17.6472 28.1244 17.6472 27.5518C17.6472 26.9713 17.765 26.5399 18.0008 26.2575C18.2366 25.975 18.5761 25.8338 19.0192 25.8338C19.47 25.8338 19.8108 25.9763 20.0414 26.2614C20.272 26.5464 20.3873 26.9752 20.3873 27.5479ZM22.9758 25.9427L19.9442 31.73H19.3029L22.3345 25.9427H22.9758ZM24.6238 30.1248C24.6238 30.7078 24.5059 31.1405 24.2701 31.4229C24.0369 31.7028 23.6988 31.8427 23.2557 31.8427C22.8048 31.8427 22.4628 31.7002 22.2296 31.4152C21.999 31.1301 21.8837 30.7013 21.8837 30.1287C21.8837 29.5482 22.0016 29.1168 22.2374 28.8344C22.4732 28.5519 22.8126 28.4107 23.2557 28.4107C23.7065 28.4107 24.0473 28.5532 24.2779 28.8383C24.5085 29.1233 24.6238 29.5521 24.6238 30.1248ZM19.6955 27.5479C19.6955 27.154 19.6488 26.856 19.5555 26.6539C19.4648 26.4518 19.286 26.3508 19.0192 26.3508C18.7523 26.3508 18.5722 26.4531 18.4789 26.6578C18.3856 26.8625 18.339 27.1605 18.339 27.5518C18.339 27.9404 18.383 28.2371 18.4711 28.4418C18.5592 28.6465 18.7419 28.7489 19.0192 28.7489C19.286 28.7489 19.4648 28.6465 19.5555 28.4418C19.6488 28.2371 19.6955 27.9391 19.6955 27.5479ZM23.932 30.1248C23.932 29.7309 23.8853 29.4329 23.7921 29.2308C23.7014 29.0287 23.5226 28.9277 23.2557 28.9277C22.9888 28.9277 22.8087 29.03 22.7154 29.2347C22.6222 29.4394 22.5755 29.7374 22.5755 30.1287C22.5755 30.5173 22.6196 30.814 22.7077 31.0187C22.7958 31.2234 22.9784 31.3258 23.2557 31.3258C23.5226 31.3258 23.7014 31.2234 23.7921 31.0187C23.8853 30.814 23.932 30.516 23.932 30.1248Z" fill="#8C99B2"/>
<path d="M161.28 31.73H158.458V31.1392H159.508V27.2603H158.458V26.7317C158.855 26.7317 159.146 26.676 159.333 26.5645C159.522 26.4505 159.628 26.2368 159.652 25.9232H160.254V31.1392H161.28V31.73ZM165.948 28.8344C165.948 29.8734 165.797 30.6365 165.493 31.1237C165.193 31.6082 164.728 31.8505 164.098 31.8505C163.461 31.8505 162.993 31.603 162.695 31.1081C162.397 30.6132 162.248 29.8579 162.248 28.8421C162.248 27.7979 162.398 27.0348 162.699 26.5529C163.002 26.0683 163.468 25.8261 164.098 25.8261C164.735 25.8261 165.203 26.0761 165.501 26.5762C165.799 27.0763 165.948 27.829 165.948 28.8344ZM164.953 30.5989C165.028 30.4072 165.081 30.1649 165.112 29.8721C165.144 29.5793 165.159 29.2334 165.159 28.8344C165.159 28.4379 165.144 28.0933 165.112 27.8005C165.081 27.5077 165.027 27.2641 164.949 27.0698C164.871 26.8729 164.764 26.7239 164.627 26.6228C164.492 26.5192 164.316 26.4674 164.098 26.4674C163.883 26.4674 163.705 26.5192 163.566 26.6228C163.428 26.7239 163.319 26.8755 163.239 27.0776C163.161 27.2745 163.108 27.5233 163.08 27.8238C163.051 28.1244 163.037 28.4638 163.037 28.8421C163.037 29.2464 163.049 29.5845 163.072 29.8566C163.098 30.1287 163.152 30.3722 163.235 30.5873C163.31 30.7868 163.417 30.941 163.554 31.0498C163.694 31.156 163.875 31.2092 164.098 31.2092C164.313 31.2092 164.489 31.1586 164.627 31.0576C164.767 30.9539 164.875 30.8011 164.953 30.5989ZM168.257 26.4946C168.117 26.4946 167.977 26.5114 167.837 26.5451C167.697 26.5788 167.56 26.6228 167.425 26.6772C167.301 26.7291 167.192 26.7835 167.099 26.8405C167.008 26.8975 166.926 26.9506 166.854 26.9998H166.807V26.1797C166.975 26.0891 167.204 26.0074 167.491 25.9349C167.781 25.8597 168.057 25.8222 168.319 25.8222C168.581 25.8222 168.809 25.8494 169.003 25.9038C169.2 25.9556 169.377 26.0372 169.536 26.1487C169.707 26.273 169.835 26.4233 169.92 26.5995C170.008 26.7757 170.052 26.9817 170.052 27.2175C170.052 27.5362 169.948 27.8161 169.738 28.057C169.528 28.298 169.276 28.4509 168.984 28.5157V28.5701C169.105 28.5934 169.235 28.6336 169.372 28.6906C169.512 28.7476 169.642 28.8318 169.761 28.9432C169.88 29.0546 169.977 29.1984 170.052 29.3746C170.128 29.5482 170.165 29.7607 170.165 30.0121C170.165 30.2738 170.12 30.5147 170.029 30.735C169.941 30.9526 169.815 31.1457 169.652 31.3141C169.484 31.4903 169.28 31.6237 169.042 31.7144C168.804 31.8051 168.533 31.8505 168.23 31.8505C167.939 31.8505 167.652 31.8155 167.367 31.7455C167.082 31.6756 166.842 31.5914 166.648 31.4929V30.6728H166.702C166.865 30.792 167.084 30.906 167.359 31.0148C167.634 31.1237 167.908 31.1781 168.183 31.1781C168.341 31.1781 168.499 31.1535 168.657 31.1042C168.818 31.0524 168.951 30.9695 169.057 30.8555C169.161 30.7415 169.24 30.6158 169.295 30.4785C169.349 30.3411 169.376 30.1675 169.376 29.9576C169.376 29.7478 169.345 29.5754 169.283 29.4407C169.223 29.306 169.139 29.1997 169.03 29.122C168.921 29.0443 168.792 28.9911 168.642 28.9626C168.494 28.9315 168.333 28.916 168.16 28.916H167.829V28.2708H168.086C168.436 28.2708 168.719 28.1879 168.937 28.0221C169.157 27.8562 169.267 27.6152 169.267 27.2991C169.267 27.154 169.239 27.0296 169.182 26.926C169.125 26.8198 169.052 26.7355 168.964 26.6734C168.866 26.606 168.757 26.5593 168.638 26.5334C168.519 26.5075 168.392 26.4946 168.257 26.4946ZM173.753 27.5479C173.753 28.1309 173.635 28.5636 173.399 28.846C173.166 29.1259 172.828 29.2658 172.385 29.2658C171.934 29.2658 171.592 29.1233 171.358 28.8383C171.128 28.5532 171.013 28.1244 171.013 27.5518C171.013 26.9713 171.13 26.5399 171.366 26.2575C171.602 25.975 171.941 25.8338 172.385 25.8338C172.835 25.8338 173.176 25.9763 173.407 26.2614C173.637 26.5464 173.753 26.9752 173.753 27.5479ZM176.341 25.9427L173.31 31.73H172.668L175.7 25.9427H176.341ZM177.989 30.1248C177.989 30.7078 177.871 31.1405 177.635 31.4229C177.402 31.7028 177.064 31.8427 176.621 31.8427C176.17 31.8427 175.828 31.7002 175.595 31.4152C175.364 31.1301 175.249 30.7013 175.249 30.1287C175.249 29.5482 175.367 29.1168 175.603 28.8344C175.839 28.5519 176.178 28.4107 176.621 28.4107C177.072 28.4107 177.413 28.5532 177.643 28.8383C177.874 29.1233 177.989 29.5521 177.989 30.1248ZM173.061 27.5479C173.061 27.154 173.014 26.856 172.921 26.6539C172.83 26.4518 172.651 26.3508 172.385 26.3508C172.118 26.3508 171.938 26.4531 171.844 26.6578C171.751 26.8625 171.704 27.1605 171.704 27.5518C171.704 27.9404 171.748 28.2371 171.836 28.4418C171.925 28.6465 172.107 28.7489 172.385 28.7489C172.651 28.7489 172.83 28.6465 172.921 28.4418C173.014 28.2371 173.061 27.9391 173.061 27.5479ZM177.297 30.1248C177.297 29.7309 177.251 29.4329 177.157 29.2308C177.067 29.0287 176.888 28.9277 176.621 28.9277C176.354 28.9277 176.174 29.03 176.081 29.2347C175.988 29.4394 175.941 29.7374 175.941 30.1287C175.941 30.5173 175.985 30.814 176.073 31.0187C176.161 31.2234 176.344 31.3258 176.621 31.3258C176.888 31.3258 177.067 31.2234 177.157 31.0187C177.251 30.814 177.297 30.516 177.297 30.1248Z" fill="#8C99B2"/>
<path d="M141.64 35.4699C129.813 26.1617 115.605 20.3694 100.641 18.7553C85.6772 17.1412 70.561 19.7704 57.0209 26.3422C43.4807 32.9141 32.0631 43.1634 24.0734 55.9184C16.0836 68.6734 11.8443 83.4192 11.84 98.4699" stroke="#A2E2FF" stroke-width="2" stroke-miterlimit="2.61"/>
<path d="M92 40.21C76.5501 40.2206 61.7366 46.3654 50.8157 57.2939C39.8947 68.2224 33.76 83.0401 33.76 98.49" stroke="#A2E2FF" stroke-width="2" stroke-miterlimit="2.61"/>
<path d="M92 51C85.7684 51.0039 79.5986 52.2356 73.8432 54.6245C68.0877 57.0135 62.8592 60.513 58.4566 64.9231C54.0539 69.3333 50.5632 74.5676 48.1839 80.3271C45.8047 86.0866 44.5834 92.2584 44.59 98.49" stroke="#A2E2FF" stroke-width="2" stroke-miterlimit="2.61"/>
<path d="M122.9 67.7L124.15 66.45" stroke="#8C99B2" stroke-width="1.18" stroke-miterlimit="10"/>
<path d="M126.59 64.0101L149.76 40.8501" stroke="#8C99B2" stroke-width="1.18" stroke-miterlimit="10" stroke-dasharray="3.45 3.45"/>
<path d="M150.98 39.6299L152.23 38.3799" stroke="#303549" stroke-width="1.18" stroke-miterlimit="10"/>
<path d="M61.14 67.7L59.89 66.45" stroke="#8C99B2" stroke-width="1.18" stroke-miterlimit="10"/>
<path d="M57.44 64L34.14 40.7" stroke="#8C99B2" stroke-width="1.18" stroke-miterlimit="10" stroke-dasharray="3.47 3.47"/>
<path d="M32.92 39.48L31.67 38.23" stroke="#303549" stroke-width="1.18" stroke-miterlimit="10"/>
<path d="M122.25 69.7299C123.034 69.7299 123.67 69.0941 123.67 68.3099C123.67 67.5256 123.034 66.8899 122.25 66.8899C121.466 66.8899 120.83 67.5256 120.83 68.3099C120.83 69.0941 121.466 69.7299 122.25 69.7299Z" fill="#F5F8FD" stroke="#8C99B2" stroke-width="1.27" stroke-miterlimit="10"/>
<path d="M62.16 69.7299C62.9442 69.7299 63.58 69.0941 63.58 68.3099C63.58 67.5256 62.9442 66.8899 62.16 66.8899C61.3758 66.8899 60.74 67.5256 60.74 68.3099C60.74 69.0941 61.3758 69.7299 62.16 69.7299Z" fill="#F5F8FD" stroke="#8C99B2" stroke-width="1.27" stroke-miterlimit="10"/>
<path d="M152.23 39.8C153.014 39.8 153.65 39.1642 153.65 38.38C153.65 37.5957 153.014 36.96 152.23 36.96C151.446 36.96 150.81 37.5957 150.81 38.38C150.81 39.1642 151.446 39.8 152.23 39.8Z" fill="#F5F8FD" stroke="#8C99B2" stroke-width="1.27" stroke-miterlimit="10"/>
<path d="M31.67 39.8C32.4542 39.8 33.09 39.1642 33.09 38.38C33.09 37.5957 32.4542 36.96 31.67 36.96C30.8858 36.96 30.25 37.5957 30.25 38.38C30.25 39.1642 30.8858 39.8 31.67 39.8Z" fill="#F5F8FD" stroke="#8C99B2" stroke-width="1.27" stroke-miterlimit="10"/>
<path d="M92.71 53.3801C93.8974 53.3801 94.86 52.4175 94.86 51.2301C94.86 50.0427 93.8974 49.0801 92.71 49.0801C91.5226 49.0801 90.56 50.0427 90.56 51.2301C90.56 52.4175 91.5226 53.3801 92.71 53.3801Z" fill="#F5F8FD" stroke="#A2E2FF" stroke-width="1.27" stroke-miterlimit="10"/>
<path d="M92.71 42.3601C93.8974 42.3601 94.86 41.3975 94.86 40.2101C94.86 39.0226 93.8974 38.0601 92.71 38.0601C91.5226 38.0601 90.56 39.0226 90.56 40.2101C90.56 41.3975 91.5226 42.3601 92.71 42.3601Z" fill="#F5F8FD" stroke="#A2E2FF" stroke-width="1.27" stroke-miterlimit="10"/>
<path d="M92 29.3899C73.6735 29.3899 56.0977 36.6701 43.1389 49.6288C30.1802 62.5876 22.9 80.1634 22.9 98.4899" stroke="#A2E2FF" stroke-width="2" stroke-miterlimit="2.61"/>
<path d="M92.71 31.34C93.8974 31.34 94.86 30.3775 94.86 29.19C94.86 28.0026 93.8974 27.04 92.71 27.04C91.5226 27.04 90.56 28.0026 90.56 29.19C90.56 30.3775 91.5226 31.34 92.71 31.34Z" fill="#F5F8FD" stroke="#A2E2FF" stroke-width="1.27" stroke-miterlimit="10"/>
<path d="M141.64 37.3801C142.827 37.3801 143.79 36.4175 143.79 35.2301C143.79 34.0427 142.827 33.0801 141.64 33.0801C140.453 33.0801 139.49 34.0427 139.49 35.2301C139.49 36.4175 140.453 37.3801 141.64 37.3801Z" fill="#F5F8FD" stroke="#A2E2FF" stroke-width="1.27" stroke-miterlimit="10"/>
<path d="M92.35 84.75H92.7" stroke="#303549" stroke-width="1.25" stroke-linecap="round" stroke-linejoin="round"/>
<path d="M96 85C98.71 85.33 100.56 86 100.56 86.75C100.56 87.83 96.74 88.75 92.03 88.75C87.32 88.75 83.51 87.86 83.51 86.75C83.51 85.99 85.35 85.33 88.06 85" stroke="#303549" stroke-width="1.25" stroke-linecap="round" stroke-linejoin="round"/>
<path d="M92.18 72.2C92.18 72.2 94.75 74.84 91.11 78.72C86.11 84.03 92.21 87.18 92.21 87.18C92.21 87.18 88.71 84.18 92.69 79.69C96.23 75.72 93.81 73.31 92.18 72.2Z" fill="#303549"/>
<path d="M90.65 72.74C90.65 72.74 91.29 74.87 88.78 76.89C85.03 79.89 87.78 82.69 87.78 82.69C87.78 82.69 86.34 80.1 89.49 77.8C92.31 75.75 91.38 73.74 90.65 72.74Z" fill="#303549"/>
<path d="M96.18 75.8401C96.18 75.8401 97.18 77.8401 94.77 79.9401C91.14 83.1401 94.51 85.5401 94.51 85.5401C94.51 85.5401 92.66 83.1901 95.65 80.7401C98.32 78.5601 97.07 76.7301 96.18 75.8401Z" fill="#303549"/>
</svg>
