<svg width="324" height="117" viewBox="0 0 324 117" fill="none" xmlns="http://www.w3.org/2000/svg">
<path d="M165 55H19" stroke="#A2E2FF" stroke-width="0.5"/>
<path d="M317.5 55H164" stroke="#A2E2FF" stroke-width="0.25"/>
<path d="M7.13574 56.9995H5.36328V56.6284H6.02246V54.1919H5.36328V53.8599C5.6123 53.8599 5.79541 53.8249 5.9126 53.7549C6.03141 53.6833 6.09814 53.549 6.11279 53.352H6.49121V56.6284H7.13574V56.9995ZM9.86523 56.9995H8.09277V56.6284H8.75195V54.1919H8.09277V53.8599C8.3418 53.8599 8.5249 53.8249 8.64209 53.7549C8.7609 53.6833 8.82764 53.549 8.84229 53.352H9.2207V56.6284H9.86523V56.9995ZM12.7974 55.1807C12.7974 55.8333 12.7021 56.3127 12.5117 56.6186C12.3229 56.923 12.0308 57.0752 11.6353 57.0752C11.2349 57.0752 10.9411 56.9197 10.7539 56.6089C10.5667 56.298 10.4731 55.8236 10.4731 55.1855C10.4731 54.5296 10.5675 54.0503 10.7563 53.7475C10.9468 53.4432 11.2397 53.291 11.6353 53.291C12.0356 53.291 12.3294 53.4481 12.5166 53.7622C12.7038 54.0763 12.7974 54.5491 12.7974 55.1807ZM12.1724 56.2891C12.2196 56.1686 12.2529 56.0164 12.2725 55.8325C12.292 55.6486 12.3018 55.4313 12.3018 55.1807C12.3018 54.9316 12.292 54.7152 12.2725 54.5312C12.2529 54.3473 12.2188 54.1943 12.1699 54.0723C12.1211 53.9486 12.0535 53.855 11.9673 53.7915C11.8826 53.7264 11.772 53.6938 11.6353 53.6938C11.5002 53.6938 11.3887 53.7264 11.3008 53.7915C11.2145 53.855 11.1462 53.9502 11.0957 54.0771C11.0469 54.2008 11.0135 54.3571 10.9956 54.5459C10.9777 54.7347 10.9688 54.9479 10.9688 55.1855C10.9688 55.4394 10.9761 55.6518 10.9907 55.8227C11.007 55.9936 11.0412 56.1466 11.0933 56.2817C11.1405 56.4071 11.2072 56.5039 11.2935 56.5723C11.3813 56.639 11.4953 56.6724 11.6353 56.6724C11.7703 56.6724 11.881 56.6406 11.9673 56.5771C12.0552 56.512 12.1235 56.416 12.1724 56.2891Z" fill="#606580"/>
<path d="M7.13574 40H5.36328V39.6289H6.02246V37.1924H5.36328V36.8604C5.6123 36.8604 5.79541 36.8254 5.9126 36.7554C6.03141 36.6838 6.09814 36.5495 6.11279 36.3525H6.49121V39.6289H7.13574V40ZM10.0508 40H7.80713V39.4897C7.96826 39.3368 8.12044 39.1903 8.26367 39.0503C8.4069 38.9103 8.54688 38.7646 8.68359 38.6133C8.96029 38.3089 9.14909 38.0656 9.25 37.8833C9.35091 37.6994 9.40137 37.5098 9.40137 37.3145C9.40137 37.2135 9.38509 37.1248 9.35254 37.0483C9.32161 36.9718 9.27848 36.9084 9.22314 36.8579C9.16618 36.8091 9.10026 36.7725 9.02539 36.748C8.95052 36.7236 8.86833 36.7114 8.77881 36.7114C8.69255 36.7114 8.60465 36.7228 8.51514 36.7456C8.42725 36.7668 8.34261 36.7936 8.26123 36.8262C8.19287 36.8538 8.12695 36.8872 8.06348 36.9263C8 36.9653 7.94873 36.9987 7.90967 37.0264H7.88281V36.5088C7.98372 36.4583 8.1237 36.4095 8.30273 36.3623C8.4834 36.3135 8.6543 36.2891 8.81543 36.2891C9.15397 36.2891 9.41927 36.3794 9.61133 36.5601C9.80339 36.7391 9.89941 36.9824 9.89941 37.29C9.89941 37.4316 9.88232 37.5627 9.84814 37.6831C9.81559 37.8035 9.77002 37.915 9.71143 38.0176C9.6512 38.1234 9.57878 38.2284 9.49414 38.3325C9.40951 38.4367 9.31999 38.5392 9.22559 38.6401C9.07259 38.8062 8.90169 38.9787 8.71289 39.1577C8.52572 39.3368 8.37598 39.4784 8.26367 39.5825H10.0508V40ZM12.7974 38.1812C12.7974 38.8338 12.7021 39.3132 12.5117 39.6191C12.3229 39.9235 12.0308 40.0757 11.6353 40.0757C11.2349 40.0757 10.9411 39.9202 10.7539 39.6094C10.5667 39.2985 10.4731 38.8241 10.4731 38.186C10.4731 37.5301 10.5675 37.0508 10.7563 36.748C10.9468 36.4437 11.2397 36.2915 11.6353 36.2915C12.0356 36.2915 12.3294 36.4486 12.5166 36.7627C12.7038 37.0768 12.7974 37.5496 12.7974 38.1812ZM12.1724 39.2896C12.2196 39.1691 12.2529 39.0169 12.2725 38.833C12.292 38.6491 12.3018 38.4318 12.3018 38.1812C12.3018 37.9321 12.292 37.7157 12.2725 37.5317C12.2529 37.3478 12.2188 37.1948 12.1699 37.0728C12.1211 36.9491 12.0535 36.8555 11.9673 36.792C11.8826 36.7269 11.772 36.6943 11.6353 36.6943C11.5002 36.6943 11.3887 36.7269 11.3008 36.792C11.2145 36.8555 11.1462 36.9507 11.0957 37.0776C11.0469 37.2013 11.0135 37.3576 10.9956 37.5464C10.9777 37.7352 10.9688 37.9484 10.9688 38.186C10.9688 38.4399 10.9761 38.6523 10.9907 38.8232C11.007 38.9941 11.0412 39.1471 11.0933 39.2822C11.1405 39.4076 11.2072 39.5044 11.2935 39.5728C11.3813 39.6395 11.4953 39.6729 11.6353 39.6729C11.7703 39.6729 11.881 39.6411 11.9673 39.5776C12.0552 39.5125 12.1235 39.4165 12.1724 39.2896Z" fill="#606580"/>
<path d="M7.13574 24H5.36328V23.6289H6.02246V21.1924H5.36328V20.8604C5.6123 20.8604 5.79541 20.8254 5.9126 20.7554C6.03141 20.6838 6.09814 20.5495 6.11279 20.3525H6.49121V23.6289H7.13574V24ZM8.78857 20.7114C8.70068 20.7114 8.61279 20.722 8.5249 20.7432C8.43701 20.7643 8.35075 20.792 8.26611 20.8262C8.18799 20.8587 8.11963 20.8929 8.06104 20.9287C8.00407 20.9645 7.9528 20.9979 7.90723 21.0288H7.87793V20.5137C7.98372 20.4567 8.12695 20.4054 8.30762 20.3599C8.48991 20.3127 8.66325 20.2891 8.82764 20.2891C8.99202 20.2891 9.13525 20.3062 9.25732 20.3403C9.38102 20.3729 9.49251 20.4242 9.5918 20.4941C9.69922 20.5723 9.77979 20.6667 9.8335 20.7773C9.88883 20.888 9.9165 21.0174 9.9165 21.1655C9.9165 21.3657 9.85059 21.5415 9.71875 21.6929C9.58691 21.8442 9.42904 21.9403 9.24512 21.981V22.0151C9.32161 22.0298 9.40299 22.055 9.48926 22.0908C9.57715 22.1266 9.65853 22.1795 9.7334 22.2495C9.80827 22.3195 9.8693 22.4098 9.9165 22.5205C9.9637 22.6296 9.9873 22.763 9.9873 22.9209C9.9873 23.0853 9.95882 23.2367 9.90186 23.375C9.84652 23.5117 9.76758 23.633 9.66504 23.7388C9.55924 23.8494 9.43148 23.9333 9.28174 23.9902C9.132 24.0472 8.96191 24.0757 8.77148 24.0757C8.58919 24.0757 8.40853 24.0537 8.22949 24.0098C8.05046 23.9658 7.8999 23.9129 7.77783 23.8511V23.3359H7.81201C7.91455 23.4108 8.05208 23.4824 8.22461 23.5508C8.39714 23.6191 8.56966 23.6533 8.74219 23.6533C8.84147 23.6533 8.94076 23.6379 9.04004 23.6069C9.14095 23.5744 9.22477 23.5223 9.2915 23.4507C9.35661 23.3791 9.40625 23.3001 9.44043 23.2139C9.47461 23.1276 9.4917 23.0186 9.4917 22.8867C9.4917 22.7549 9.47217 22.6466 9.43311 22.562C9.39567 22.4774 9.34277 22.4106 9.27441 22.3618C9.20605 22.313 9.12467 22.2796 9.03027 22.2617C8.9375 22.2422 8.83659 22.2324 8.72754 22.2324H8.52002V21.8271H8.68115C8.90088 21.8271 9.0791 21.7751 9.21582 21.6709C9.35417 21.5667 9.42334 21.4154 9.42334 21.2168C9.42334 21.1257 9.40544 21.0475 9.36963 20.9824C9.33382 20.9157 9.28825 20.8628 9.23291 20.8237C9.17106 20.7814 9.1027 20.7521 9.02783 20.7358C8.95296 20.7196 8.87321 20.7114 8.78857 20.7114ZM12.7974 22.1812C12.7974 22.8338 12.7021 23.3132 12.5117 23.6191C12.3229 23.9235 12.0308 24.0757 11.6353 24.0757C11.2349 24.0757 10.9411 23.9202 10.7539 23.6094C10.5667 23.2985 10.4731 22.8241 10.4731 22.186C10.4731 21.5301 10.5675 21.0508 10.7563 20.748C10.9468 20.4437 11.2397 20.2915 11.6353 20.2915C12.0356 20.2915 12.3294 20.4486 12.5166 20.7627C12.7038 21.0768 12.7974 21.5496 12.7974 22.1812ZM12.1724 23.2896C12.2196 23.1691 12.2529 23.0169 12.2725 22.833C12.292 22.6491 12.3018 22.4318 12.3018 22.1812C12.3018 21.9321 12.292 21.7157 12.2725 21.5317C12.2529 21.3478 12.2188 21.1948 12.1699 21.0728C12.1211 20.9491 12.0535 20.8555 11.9673 20.792C11.8826 20.7269 11.772 20.6943 11.6353 20.6943C11.5002 20.6943 11.3887 20.7269 11.3008 20.792C11.2145 20.8555 11.1462 20.9507 11.0957 21.0776C11.0469 21.2013 11.0135 21.3576 10.9956 21.5464C10.9777 21.7352 10.9688 21.9484 10.9688 22.186C10.9688 22.4399 10.9761 22.6523 10.9907 22.8232C11.007 22.9941 11.0412 23.1471 11.0933 23.2822C11.1405 23.4076 11.2072 23.5044 11.2935 23.5728C11.3813 23.6395 11.4953 23.6729 11.6353 23.6729C11.7703 23.6729 11.881 23.6411 11.9673 23.5776C12.0552 23.5125 12.1235 23.4165 12.1724 23.2896Z" fill="#606580"/>
<path d="M7.13574 7.99952H5.36328V7.62843H6.02246V5.1919H5.36328V4.85987C5.6123 4.85987 5.79541 4.82488 5.9126 4.75489C6.03141 4.68328 6.09814 4.549 6.11279 4.35206H6.49121V7.62843H7.13574V7.99952ZM10.146 6.74952H9.71387V7.99952H9.24512V6.74952H7.63867V6.23682L9.26465 4.36427H9.71387V6.3589H10.146V6.74952ZM9.24512 6.3589V4.938L8.01953 6.3589H9.24512ZM12.7974 6.18067C12.7974 6.83334 12.7021 7.31267 12.5117 7.61866C12.3229 7.92302 12.0308 8.0752 11.6353 8.0752C11.2349 8.0752 10.9411 7.91977 10.7539 7.6089C10.5667 7.29802 10.4731 6.82358 10.4731 6.18556C10.4731 5.52963 10.5675 5.0503 10.7563 4.74757C10.9468 4.4432 11.2397 4.29102 11.6353 4.29102C12.0356 4.29102 12.3294 4.44809 12.5166 4.76222C12.7038 5.07634 12.7974 5.54916 12.7974 6.18067ZM12.1724 7.28907C12.2196 7.16863 12.2529 7.01645 12.2725 6.83253C12.292 6.64861 12.3018 6.43132 12.3018 6.18067C12.3018 5.93165 12.292 5.71518 12.2725 5.53126C12.2529 5.34734 12.2188 5.19434 12.1699 5.07227C12.1211 4.94858 12.0535 4.85499 11.9673 4.79151C11.8826 4.72641 11.772 4.69386 11.6353 4.69386C11.5002 4.69386 11.3887 4.72641 11.3008 4.79151C11.2145 4.85499 11.1462 4.9502 11.0957 5.07716C11.0469 5.20085 11.0135 5.3571 10.9956 5.54591C10.9777 5.73471 10.9688 5.94792 10.9688 6.18556C10.9688 6.43946 10.9761 6.65186 10.9907 6.82276C11.007 6.99366 11.0412 7.14666 11.0933 7.28175C11.1405 7.40707 11.2072 7.50391 11.2935 7.57227C11.3813 7.63901 11.4953 7.67237 11.6353 7.67237C11.7703 7.67237 11.881 7.64063 11.9673 7.57716C12.0552 7.51205 12.1235 7.41602 12.1724 7.28907Z" fill="#606580"/>
<path d="M7.13574 72.9995H5.36328V72.6284H6.02246V70.1919H5.36328V69.8599C5.6123 69.8599 5.79541 69.8249 5.9126 69.7549C6.03141 69.6833 6.09814 69.549 6.11279 69.352H6.49121V72.6284H7.13574V72.9995ZM10.0679 71.1807C10.0679 71.8333 9.97266 72.3127 9.78223 72.6186C9.59342 72.923 9.30127 73.0752 8.90576 73.0752C8.50537 73.0752 8.21159 72.9197 8.02441 72.6089C7.83724 72.298 7.74365 71.8236 7.74365 71.1855C7.74365 70.5296 7.83805 70.0503 8.02686 69.7475C8.21729 69.4432 8.51025 69.291 8.90576 69.291C9.30615 69.291 9.59993 69.4481 9.78711 69.7622C9.97428 70.0763 10.0679 70.5491 10.0679 71.1807ZM9.44287 72.2891C9.49007 72.1686 9.52344 72.0164 9.54297 71.8325C9.5625 71.6486 9.57227 71.4313 9.57227 71.1807C9.57227 70.9316 9.5625 70.7152 9.54297 70.5312C9.52344 70.3473 9.48926 70.1943 9.44043 70.0723C9.3916 69.9486 9.32406 69.855 9.23779 69.7915C9.15316 69.7264 9.04248 69.6938 8.90576 69.6938C8.77067 69.6938 8.65918 69.7264 8.57129 69.7915C8.48503 69.855 8.41667 69.9502 8.36621 70.0771C8.31738 70.2008 8.28402 70.3571 8.26611 70.5459C8.24821 70.7347 8.23926 70.9479 8.23926 71.1855C8.23926 71.4394 8.24658 71.6518 8.26123 71.8227C8.27751 71.9936 8.31169 72.1466 8.36377 72.2817C8.41097 72.4071 8.4777 72.5039 8.56396 72.5723C8.65186 72.639 8.76579 72.6724 8.90576 72.6724C9.04085 72.6724 9.15153 72.6406 9.23779 72.5771C9.32568 72.512 9.39404 72.416 9.44287 72.2891ZM12.7974 71.1807C12.7974 71.8333 12.7021 72.3127 12.5117 72.6186C12.3229 72.923 12.0308 73.0752 11.6353 73.0752C11.2349 73.0752 10.9411 72.9197 10.7539 72.6089C10.5667 72.298 10.4731 71.8236 10.4731 71.1855C10.4731 70.5296 10.5675 70.0503 10.7563 69.7475C10.9468 69.4432 11.2397 69.291 11.6353 69.291C12.0356 69.291 12.3294 69.4481 12.5166 69.7622C12.7038 70.0763 12.7974 70.5491 12.7974 71.1807ZM12.1724 72.2891C12.2196 72.1686 12.2529 72.0164 12.2725 71.8325C12.292 71.6486 12.3018 71.4313 12.3018 71.1807C12.3018 70.9316 12.292 70.7152 12.2725 70.5312C12.2529 70.3473 12.2188 70.1943 12.1699 70.0723C12.1211 69.9486 12.0535 69.855 11.9673 69.7915C11.8826 69.7264 11.772 69.6938 11.6353 69.6938C11.5002 69.6938 11.3887 69.7264 11.3008 69.7915C11.2145 69.855 11.1462 69.9502 11.0957 70.0771C11.0469 70.2008 11.0135 70.3571 10.9956 70.5459C10.9777 70.7347 10.9688 70.9479 10.9688 71.1855C10.9688 71.4394 10.9761 71.6518 10.9907 71.8227C11.007 71.9936 11.0412 72.1466 11.0933 72.2817C11.1405 72.4071 11.2072 72.5039 11.2935 72.5723C11.3813 72.639 11.4953 72.6724 11.6353 72.6724C11.7703 72.6724 11.881 72.6406 11.9673 72.5771C12.0552 72.512 12.1235 72.416 12.1724 72.2891Z" fill="#606580"/>
<path d="M9.521 103.211C9.521 103.048 9.46647 102.912 9.35742 102.803C9.24837 102.694 9.09701 102.64 8.90332 102.64C8.72591 102.64 8.58024 102.688 8.46631 102.786C8.354 102.884 8.29785 103.016 8.29785 103.182C8.29785 103.302 8.32633 103.404 8.3833 103.487C8.44189 103.57 8.52897 103.645 8.64453 103.711C8.69499 103.739 8.77148 103.777 8.87402 103.826C8.97819 103.875 9.07259 103.913 9.15723 103.941C9.29883 103.832 9.39486 103.72 9.44531 103.606C9.49577 103.491 9.521 103.359 9.521 103.211ZM9.58936 105.032C9.58936 104.882 9.56006 104.764 9.50146 104.676C9.44287 104.588 9.32975 104.498 9.16211 104.407C9.10677 104.376 9.03271 104.343 8.93994 104.307C8.8488 104.271 8.74544 104.229 8.62988 104.18C8.49479 104.27 8.39144 104.38 8.31982 104.512C8.24821 104.642 8.2124 104.791 8.2124 104.959C8.2124 105.179 8.27832 105.36 8.41016 105.503C8.54362 105.647 8.71045 105.718 8.91064 105.718C9.11572 105.718 9.28011 105.657 9.40381 105.535C9.52751 105.411 9.58936 105.244 9.58936 105.032ZM8.90576 106.082C8.7251 106.082 8.56071 106.055 8.4126 106.001C8.26449 105.948 8.13835 105.87 8.03418 105.77C7.93164 105.672 7.85352 105.556 7.7998 105.423C7.74772 105.288 7.72168 105.145 7.72168 104.996C7.72168 104.799 7.77376 104.618 7.87793 104.454C7.98372 104.288 8.13672 104.156 8.33691 104.058V104.043C8.15788 103.939 8.02523 103.825 7.93896 103.702C7.8527 103.578 7.80957 103.423 7.80957 103.238C7.80957 102.964 7.91292 102.736 8.11963 102.554C8.32633 102.372 8.58838 102.281 8.90576 102.281C9.23617 102.281 9.50065 102.368 9.69922 102.542C9.89941 102.714 9.99951 102.936 9.99951 103.206C9.99951 103.369 9.9515 103.53 9.85547 103.689C9.76107 103.849 9.62435 103.973 9.44531 104.063V104.078C9.6569 104.177 9.81722 104.297 9.92627 104.439C10.0353 104.581 10.0898 104.763 10.0898 104.986C10.0898 105.297 9.97673 105.557 9.75049 105.767C9.52588 105.977 9.2443 106.082 8.90576 106.082ZM12.7974 104.18C12.7974 104.833 12.7021 105.312 12.5117 105.618C12.3229 105.923 12.0308 106.075 11.6353 106.075C11.2349 106.075 10.9411 105.919 10.7539 105.608C10.5667 105.298 10.4731 104.823 10.4731 104.185C10.4731 103.529 10.5675 103.05 10.7563 102.747C10.9468 102.443 11.2397 102.291 11.6353 102.291C12.0356 102.291 12.3294 102.448 12.5166 102.762C12.7038 103.076 12.7974 103.549 12.7974 104.18ZM12.1724 105.289C12.2196 105.168 12.2529 105.016 12.2725 104.832C12.292 104.648 12.3018 104.431 12.3018 104.18C12.3018 103.931 12.292 103.715 12.2725 103.531C12.2529 103.347 12.2188 103.194 12.1699 103.072C12.1211 102.948 12.0535 102.854 11.9673 102.791C11.8826 102.726 11.772 102.693 11.6353 102.693C11.5002 102.693 11.3887 102.726 11.3008 102.791C11.2145 102.854 11.1462 102.95 11.0957 103.077C11.0469 103.2 11.0135 103.357 10.9956 103.545C10.9777 103.734 10.9688 103.947 10.9688 104.185C10.9688 104.439 10.9761 104.651 10.9907 104.822C11.007 104.993 11.0412 105.146 11.0933 105.281C11.1405 105.407 11.2072 105.503 11.2935 105.572C11.3813 105.638 11.4953 105.672 11.6353 105.672C11.7703 105.672 11.881 105.64 11.9673 105.577C12.0552 105.512 12.1235 105.416 12.1724 105.289Z" fill="#606580"/>
<path d="M9.57227 87.8584C9.57227 87.611 9.54948 87.41 9.50391 87.2554C9.45833 87.0991 9.39567 86.9787 9.31592 86.894C9.2443 86.8159 9.17188 86.7622 9.09863 86.7329C9.02539 86.7036 8.94482 86.689 8.85693 86.689C8.65674 86.689 8.49723 86.7606 8.37842 86.9038C8.2596 87.047 8.2002 87.2545 8.2002 87.5264C8.2002 87.6794 8.21973 87.8055 8.25879 87.9048C8.29785 88.0041 8.36133 88.0895 8.44922 88.1611C8.51107 88.2116 8.58105 88.2458 8.65918 88.2637C8.7373 88.2799 8.82113 88.2881 8.91064 88.2881C9.01481 88.2881 9.12712 88.2702 9.24756 88.2344C9.368 88.1969 9.47298 88.1481 9.5625 88.0879C9.56413 88.0635 9.56576 88.0317 9.56738 87.9927C9.57064 87.952 9.57227 87.9072 9.57227 87.8584ZM7.70459 87.5459C7.70459 87.3587 7.7347 87.1878 7.79492 87.0332C7.85677 86.8786 7.94059 86.7451 8.04639 86.6328C8.1473 86.5254 8.27018 86.4416 8.41504 86.3813C8.56152 86.3211 8.70964 86.291 8.85938 86.291C9.02702 86.291 9.17839 86.3195 9.31348 86.3765C9.4502 86.4318 9.5682 86.5124 9.66748 86.6182C9.79281 86.7516 9.88965 86.9266 9.95801 87.1431C10.028 87.3595 10.063 87.633 10.063 87.9634C10.063 88.2645 10.0288 88.5501 9.96045 88.8203C9.89372 89.0889 9.79443 89.3118 9.6626 89.4892C9.52262 89.678 9.35417 89.8221 9.15723 89.9214C8.96191 90.0207 8.72021 90.0703 8.43213 90.0703C8.36702 90.0703 8.29785 90.0662 8.22461 90.0581C8.15137 90.0516 8.08301 90.0386 8.01953 90.019V89.5527H8.04395C8.08464 89.5755 8.14811 89.5975 8.23438 89.6186C8.32064 89.6398 8.40853 89.6504 8.49805 89.6504C8.81706 89.6504 9.06771 89.5454 9.25 89.3354C9.43229 89.1255 9.53564 88.8252 9.56006 88.4346C9.42985 88.5224 9.30534 88.5867 9.18652 88.6274C9.06934 88.6681 8.94157 88.6885 8.80322 88.6885C8.66813 88.6885 8.54525 88.6738 8.43457 88.6445C8.32389 88.6152 8.2124 88.5583 8.1001 88.4736C7.96989 88.3743 7.87142 88.249 7.80469 88.0976C7.73796 87.9446 7.70459 87.7607 7.70459 87.5459ZM12.7974 88.1807C12.7974 88.8333 12.7021 89.3127 12.5117 89.6186C12.3229 89.923 12.0308 90.0752 11.6353 90.0752C11.2349 90.0752 10.9411 89.9197 10.7539 89.6089C10.5667 89.298 10.4731 88.8236 10.4731 88.1855C10.4731 87.5296 10.5675 87.0503 10.7563 86.7475C10.9468 86.4432 11.2397 86.291 11.6353 86.291C12.0356 86.291 12.3294 86.4481 12.5166 86.7622C12.7038 87.0763 12.7974 87.5491 12.7974 88.1807ZM12.1724 89.2891C12.2196 89.1686 12.2529 89.0164 12.2725 88.8325C12.292 88.6486 12.3018 88.4313 12.3018 88.1807C12.3018 87.9316 12.292 87.7152 12.2725 87.5312C12.2529 87.3473 12.2188 87.1943 12.1699 87.0723C12.1211 86.9486 12.0535 86.855 11.9673 86.7915C11.8826 86.7264 11.772 86.6938 11.6353 86.6938C11.5002 86.6938 11.3887 86.7264 11.3008 86.7915C11.2145 86.855 11.1462 86.9502 11.0957 87.0771C11.0469 87.2008 11.0135 87.3571 10.9956 87.5459C10.9777 87.7347 10.9688 87.9479 10.9688 88.1855C10.9688 88.4394 10.9761 88.6518 10.9907 88.8227C11.007 88.9936 11.0412 89.1466 11.0933 89.2817C11.1405 89.4071 11.2072 89.5039 11.2935 89.5723C11.3813 89.639 11.4953 89.6724 11.6353 89.6724C11.7703 89.6724 11.881 89.6406 11.9673 89.5771C12.0552 89.512 12.1235 89.416 12.1724 89.2891Z" fill="#606580"/>
<g opacity="0.25">
<path opacity="0.5" d="M319 5.46875H19.269" stroke="#8C99B2" stroke-width="0.496654"/>
<path opacity="0.25" d="M319 21.9551H19.269" stroke="#8C99B2" stroke-width="0.496654"/>
<path opacity="0.5" d="M319 38.4395H19.269" stroke="#8C99B2" stroke-width="0.496654"/>
<path opacity="0.5" d="M319 71.4121H19.269" stroke="#8C99B2" stroke-width="0.496654"/>
<path opacity="0.25" d="M319 87.8984H19.269" stroke="#8C99B2" stroke-width="0.496654"/>
<path opacity="0.5" d="M319 104.385H19.269" stroke="#8C99B2" stroke-width="0.496654"/>
</g>
<g opacity="0.05">
<path opacity="0.05" d="M19.269 5.46875V104.384" stroke="#8C99B2" stroke-width="0.508784"/>
<path opacity="0.05" d="M39.251 5.46875V104.384" stroke="#8C99B2" stroke-width="0.508784"/>
<path opacity="0.05" d="M59.2329 5.46875V104.384" stroke="#8C99B2" stroke-width="0.508784"/>
<path opacity="0.05" d="M79.2151 5.46875V104.384" stroke="#8C99B2" stroke-width="0.508784"/>
<path opacity="0.05" d="M99.1975 5.46875V104.384" stroke="#8C99B2" stroke-width="0.508784"/>
<path opacity="0.05" d="M119.179 5.46875V104.384" stroke="#8C99B2" stroke-width="0.508784"/>
<path opacity="0.05" d="M139.161 5.46875V104.384" stroke="#8C99B2" stroke-width="0.508784"/>
<path opacity="0.05" d="M159.144 5.46875V104.384" stroke="#8C99B2" stroke-width="0.508784"/>
<path opacity="0.05" d="M179.125 5.46875V104.384" stroke="#8C99B2" stroke-width="0.508784"/>
<path opacity="0.05" d="M199.108 5.46875V104.384" stroke="#8C99B2" stroke-width="0.508784"/>
<path opacity="0.05" d="M219.09 5.46875V104.384" stroke="#8C99B2" stroke-width="0.508784"/>
<path opacity="0.05" d="M239.072 5.46875V104.384" stroke="#8C99B2" stroke-width="0.508784"/>
<path opacity="0.05" d="M259.054 5.46875V104.384" stroke="#8C99B2" stroke-width="0.508784"/>
<path opacity="0.05" d="M279.036 5.46875V104.384" stroke="#8C99B2" stroke-width="0.508784"/>
<path opacity="0.05" d="M299.018 5.46875V104.384" stroke="#8C99B2" stroke-width="0.508784"/>
<path opacity="0.05" d="M319 5.46875V104.384" stroke="#8C99B2" stroke-width="0.508784"/>
<path opacity="0.5" d="M29.26 5.46875V104.384" stroke="#8C99B2" stroke-width="0.508784"/>
<path opacity="0.5" d="M49.2419 5.46875V104.384" stroke="#8C99B2" stroke-width="0.508784"/>
<path opacity="0.5" d="M69.2239 5.46875V104.384" stroke="#8C99B2" stroke-width="0.508784"/>
<path opacity="0.5" d="M89.2065 5.46875V104.384" stroke="#8C99B2" stroke-width="0.508784"/>
<path opacity="0.5" d="M109.188 5.46875V104.384" stroke="#8C99B2" stroke-width="0.508784"/>
<path opacity="0.5" d="M129.17 5.46875V104.384" stroke="#8C99B2" stroke-width="0.508784"/>
<path opacity="0.5" d="M149.152 5.46875V104.384" stroke="#8C99B2" stroke-width="0.508784"/>
<path opacity="0.5" d="M169.135 5.46875V104.384" stroke="#8C99B2" stroke-width="0.508784"/>
<path opacity="0.5" d="M189.117 5.46875V104.384" stroke="#8C99B2" stroke-width="0.508784"/>
<path opacity="0.5" d="M209.099 5.46875V104.384" stroke="#8C99B2" stroke-width="0.508784"/>
<path opacity="0.5" d="M229.081 5.46875V104.384" stroke="#8C99B2" stroke-width="0.508784"/>
<path opacity="0.5" d="M249.063 5.46875V104.384" stroke="#8C99B2" stroke-width="0.508784"/>
<path opacity="0.5" d="M269.045 5.46875V104.384" stroke="#8C99B2" stroke-width="0.508784"/>
<path opacity="0.5" d="M289.027 5.46875V104.384" stroke="#8C99B2" stroke-width="0.508784"/>
<path opacity="0.5" d="M309.009 5.46875V104.384" stroke="#8C99B2" stroke-width="0.508784"/>
</g>
<path d="M19.9595 111.001H18.187V110.63H18.8462V108.193H18.187V107.861C18.436 107.861 18.6191 107.826 18.7363 107.756C18.8551 107.685 18.9219 107.55 18.9365 107.354H19.3149V110.63H19.9595V111.001Z" fill="#8C99B2"/>
<path d="M30.5098 111H28.2661V110.49C28.4272 110.337 28.5794 110.19 28.7227 110.05C28.8659 109.91 29.0059 109.765 29.1426 109.613C29.4193 109.309 29.6081 109.066 29.709 108.883C29.8099 108.699 29.8604 108.51 29.8604 108.314C29.8604 108.214 29.8441 108.125 29.8115 108.048C29.7806 107.972 29.7375 107.908 29.6821 107.858C29.6252 107.809 29.5592 107.772 29.4844 107.748C29.4095 107.724 29.3273 107.711 29.2378 107.711C29.1515 107.711 29.0636 107.723 28.9741 107.746C28.8862 107.767 28.8016 107.794 28.7202 107.826C28.6519 107.854 28.5859 107.887 28.5225 107.926C28.459 107.965 28.4077 107.999 28.3687 108.026H28.3418V107.509C28.4427 107.458 28.5827 107.41 28.7617 107.362C28.9424 107.313 29.1133 107.289 29.2744 107.289C29.613 107.289 29.8783 107.379 30.0703 107.56C30.2624 107.739 30.3584 107.982 30.3584 108.29C30.3584 108.432 30.3413 108.563 30.3071 108.683C30.2746 108.804 30.229 108.915 30.1704 109.018C30.1102 109.123 30.0378 109.228 29.9531 109.333C29.8685 109.437 29.779 109.539 29.6846 109.64C29.5316 109.806 29.3607 109.979 29.1719 110.158C28.9847 110.337 28.835 110.478 28.7227 110.583H30.5098V111Z" fill="#8C99B2"/>
<path d="M39.2476 107.711C39.1597 107.711 39.0718 107.722 38.9839 107.743C38.896 107.764 38.8097 107.792 38.7251 107.826C38.647 107.859 38.5786 107.893 38.52 107.929C38.4631 107.965 38.4118 107.998 38.3662 108.029H38.3369V107.514C38.4427 107.457 38.5859 107.405 38.7666 107.36C38.9489 107.313 39.1222 107.289 39.2866 107.289C39.451 107.289 39.5942 107.306 39.7163 107.34C39.84 107.373 39.9515 107.424 40.0508 107.494C40.1582 107.572 40.2388 107.667 40.2925 107.777C40.3478 107.888 40.3755 108.017 40.3755 108.166C40.3755 108.366 40.3096 108.542 40.1777 108.693C40.0459 108.844 39.888 108.94 39.7041 108.981V109.015C39.7806 109.03 39.862 109.055 39.9482 109.091C40.0361 109.127 40.1175 109.18 40.1924 109.25C40.2673 109.319 40.3283 109.41 40.3755 109.521C40.4227 109.63 40.4463 109.763 40.4463 109.921C40.4463 110.085 40.4178 110.237 40.3608 110.375C40.3055 110.512 40.2266 110.633 40.124 110.739C40.0182 110.849 39.8905 110.933 39.7407 110.99C39.591 111.047 39.4209 111.076 39.2305 111.076C39.0482 111.076 38.8675 111.054 38.6885 111.01C38.5094 110.966 38.3589 110.913 38.2368 110.851V110.336H38.271C38.3735 110.411 38.5111 110.482 38.6836 110.551C38.8561 110.619 39.0286 110.653 39.2012 110.653C39.3005 110.653 39.3997 110.638 39.499 110.607C39.5999 110.574 39.6838 110.522 39.7505 110.451C39.8156 110.379 39.8652 110.3 39.8994 110.214C39.9336 110.128 39.9507 110.019 39.9507 109.887C39.9507 109.755 39.9312 109.647 39.8921 109.562C39.8547 109.477 39.8018 109.411 39.7334 109.362C39.665 109.313 39.5837 109.28 39.4893 109.262C39.3965 109.242 39.2956 109.232 39.1865 109.232H38.979V108.827H39.1401C39.3599 108.827 39.5381 108.775 39.6748 108.671C39.8132 108.567 39.8823 108.415 39.8823 108.217C39.8823 108.126 39.8644 108.048 39.8286 107.982C39.7928 107.916 39.7472 107.863 39.6919 107.824C39.63 107.781 39.5617 107.752 39.4868 107.736C39.4119 107.72 39.3322 107.711 39.2476 107.711Z" fill="#8C99B2"/>
<path d="M50.605 109.75H50.1729V111H49.7041V109.75H48.0977V109.237L49.7236 107.365H50.1729V109.359H50.605V109.75ZM49.7041 109.359V107.938L48.4785 109.359H49.7041Z" fill="#8C99B2"/>
<path d="M60.4683 109.843C60.4683 110.019 60.4398 110.181 60.3828 110.331C60.3275 110.481 60.2493 110.61 60.1484 110.719C60.0459 110.83 59.9181 110.917 59.7651 110.98C59.6138 111.044 59.4437 111.076 59.2549 111.076C59.0807 111.076 58.909 111.056 58.7397 111.017C58.5721 110.98 58.4264 110.93 58.3027 110.868V110.353H58.3369C58.3743 110.381 58.4281 110.412 58.498 110.448C58.568 110.482 58.6453 110.515 58.73 110.546C58.826 110.58 58.9139 110.607 58.9937 110.626C59.0734 110.644 59.1629 110.653 59.2622 110.653C59.3599 110.653 59.4551 110.636 59.5479 110.602C59.6406 110.566 59.7204 110.509 59.7871 110.431C59.8473 110.36 59.8929 110.276 59.9238 110.18C59.9564 110.084 59.9727 109.971 59.9727 109.84C59.9727 109.712 59.9548 109.606 59.9189 109.523C59.8848 109.44 59.8343 109.372 59.7676 109.318C59.6976 109.256 59.6113 109.213 59.5088 109.188C59.4079 109.162 59.2948 109.149 59.1694 109.149C59.0376 109.149 58.9049 109.16 58.7715 109.181C58.638 109.201 58.5314 109.219 58.4517 109.237V107.365H60.4463V107.792H58.9229V108.759C58.9814 108.752 59.0392 108.747 59.0962 108.744C59.1532 108.741 59.2052 108.739 59.2524 108.739C59.438 108.739 59.5951 108.755 59.7236 108.786C59.8522 108.817 59.9759 108.877 60.0947 108.966C60.2152 109.057 60.3071 109.171 60.3706 109.308C60.4357 109.445 60.4683 109.623 60.4683 109.843Z" fill="#8C99B2"/>
<path d="M70.5659 109.822C70.5659 110.009 70.535 110.182 70.4731 110.339C70.4113 110.497 70.3283 110.629 70.2241 110.735C70.1151 110.847 69.993 110.933 69.8579 110.991C69.7228 111.048 69.5739 111.077 69.4111 111.077C69.2467 111.077 69.097 111.049 68.9619 110.994C68.8285 110.938 68.7104 110.856 68.6079 110.747C68.4826 110.615 68.3841 110.439 68.3125 110.22C68.2425 109.998 68.2075 109.727 68.2075 109.404C68.2075 109.089 68.2401 108.804 68.3052 108.55C68.3703 108.294 68.4704 108.072 68.6055 107.883C68.7373 107.699 68.9074 107.556 69.1157 107.454C69.3241 107.349 69.5649 107.297 69.8384 107.297C69.9198 107.297 69.9954 107.301 70.0654 107.31C70.1354 107.318 70.1973 107.331 70.251 107.349V107.815H70.229C70.1851 107.791 70.1216 107.769 70.0386 107.749C69.9556 107.728 69.8669 107.717 69.7725 107.717C69.4697 107.717 69.2248 107.82 69.0376 108.025C68.8521 108.228 68.7422 108.531 68.708 108.933C68.8236 108.852 68.9424 108.789 69.0645 108.745C69.1865 108.701 69.32 108.679 69.4648 108.679C69.6064 108.679 69.7301 108.694 69.8359 108.723C69.9434 108.751 70.0549 108.808 70.1704 108.894C70.3039 108.995 70.4032 109.123 70.4683 109.277C70.5334 109.432 70.5659 109.613 70.5659 109.822ZM70.0703 109.841C70.0703 109.692 70.0508 109.566 70.0117 109.465C69.9727 109.364 69.9092 109.278 69.8213 109.207C69.7578 109.154 69.6854 109.12 69.604 109.104C69.5243 109.088 69.4421 109.08 69.3574 109.08C69.2435 109.08 69.1328 109.097 69.0254 109.131C68.918 109.165 68.8122 109.215 68.708 109.28C68.7048 109.316 68.7023 109.351 68.7007 109.385C68.6991 109.417 68.6982 109.459 68.6982 109.509C68.6982 109.762 68.7227 109.965 68.7715 110.12C68.8219 110.274 68.8838 110.391 68.957 110.471C69.027 110.548 69.0986 110.601 69.1719 110.632C69.2467 110.663 69.3273 110.679 69.4136 110.679C69.6089 110.679 69.7668 110.609 69.8872 110.469C70.0093 110.329 70.0703 110.12 70.0703 109.841Z" fill="#8C99B2"/>
<path d="M80.5488 107.909L78.9766 111H78.4565L80.1216 107.792H78.2417V107.365H80.5488V107.909Z" fill="#8C99B2"/>
<path d="M89.98 108.211C89.98 108.048 89.9255 107.912 89.8164 107.803C89.7074 107.694 89.556 107.64 89.3623 107.64C89.1849 107.64 89.0392 107.688 88.9253 107.786C88.813 107.884 88.7568 108.016 88.7568 108.182C88.7568 108.302 88.7853 108.404 88.8423 108.487C88.9009 108.57 88.988 108.645 89.1035 108.711C89.154 108.739 89.2305 108.777 89.333 108.826C89.4372 108.875 89.5316 108.913 89.6162 108.941C89.7578 108.832 89.8538 108.72 89.9043 108.606C89.9548 108.491 89.98 108.359 89.98 108.211ZM90.0483 110.032C90.0483 109.882 90.019 109.764 89.9604 109.676C89.9019 109.588 89.7887 109.498 89.6211 109.407C89.5658 109.376 89.4917 109.343 89.3989 109.307C89.3078 109.271 89.2044 109.229 89.0889 109.18C88.9538 109.27 88.8504 109.38 88.7788 109.512C88.7072 109.642 88.6714 109.791 88.6714 109.959C88.6714 110.179 88.7373 110.36 88.8691 110.503C89.0026 110.647 89.1694 110.718 89.3696 110.718C89.5747 110.718 89.7391 110.657 89.8628 110.535C89.9865 110.411 90.0483 110.244 90.0483 110.032ZM89.3647 111.082C89.1841 111.082 89.0197 111.055 88.8716 111.001C88.7235 110.948 88.5973 110.87 88.4932 110.77C88.3906 110.672 88.3125 110.556 88.2588 110.423C88.2067 110.288 88.1807 110.145 88.1807 109.996C88.1807 109.799 88.2327 109.618 88.3369 109.454C88.4427 109.288 88.5957 109.156 88.7959 109.058V109.043C88.6169 108.939 88.4842 108.825 88.3979 108.702C88.3117 108.578 88.2686 108.423 88.2686 108.238C88.2686 107.964 88.3719 107.736 88.5786 107.554C88.7853 107.372 89.0474 107.281 89.3647 107.281C89.6951 107.281 89.9596 107.368 90.1582 107.542C90.3584 107.714 90.4585 107.936 90.4585 108.206C90.4585 108.369 90.4105 108.53 90.3145 108.689C90.2201 108.849 90.0833 108.973 89.9043 109.063V109.078C90.1159 109.177 90.2762 109.297 90.3853 109.439C90.4943 109.581 90.5488 109.763 90.5488 109.986C90.5488 110.297 90.4357 110.557 90.2095 110.767C89.9849 110.977 89.7033 111.082 89.3647 111.082Z" fill="#8C99B2"/>
<path d="M101.031 108.86C101.031 108.612 101.008 108.411 100.963 108.257C100.917 108.101 100.855 107.98 100.775 107.896C100.703 107.817 100.631 107.764 100.558 107.734C100.484 107.705 100.404 107.69 100.316 107.69C100.116 107.69 99.9562 107.762 99.8374 107.905C99.7186 108.049 99.6592 108.256 99.6592 108.528C99.6592 108.681 99.6787 108.807 99.7178 108.906C99.7568 109.006 99.8203 109.091 99.9082 109.163C99.9701 109.213 100.04 109.247 100.118 109.265C100.196 109.281 100.28 109.29 100.37 109.29C100.474 109.29 100.586 109.272 100.707 109.236C100.827 109.198 100.932 109.15 101.021 109.089C101.023 109.065 101.025 109.033 101.026 108.994C101.03 108.953 101.031 108.909 101.031 108.86ZM99.1636 108.547C99.1636 108.36 99.1937 108.189 99.2539 108.035C99.3158 107.88 99.3996 107.747 99.5054 107.634C99.6063 107.527 99.7292 107.443 99.874 107.383C100.021 107.323 100.169 107.293 100.318 107.293C100.486 107.293 100.637 107.321 100.772 107.378C100.909 107.433 101.027 107.514 101.126 107.62C101.252 107.753 101.349 107.928 101.417 108.145C101.487 108.361 101.522 108.634 101.522 108.965C101.522 109.266 101.488 109.552 101.419 109.822C101.353 110.09 101.253 110.313 101.122 110.491C100.982 110.68 100.813 110.824 100.616 110.923C100.421 111.022 100.179 111.072 99.8911 111.072C99.826 111.072 99.7568 111.068 99.6836 111.06C99.6104 111.053 99.542 111.04 99.4785 111.021V110.554H99.5029C99.5436 110.577 99.6071 110.599 99.6934 110.62C99.7796 110.641 99.8675 110.652 99.957 110.652C100.276 110.652 100.527 110.547 100.709 110.337C100.891 110.127 100.995 109.827 101.019 109.436C100.889 109.524 100.764 109.588 100.646 109.629C100.528 109.67 100.401 109.69 100.262 109.69C100.127 109.69 100.004 109.675 99.8936 109.646C99.7829 109.617 99.6714 109.56 99.5591 109.475C99.4289 109.376 99.3304 109.251 99.2637 109.099C99.1969 108.946 99.1636 108.762 99.1636 108.547Z" fill="#8C99B2"/>
<path d="M107.595 111.001H105.822V110.63H106.481V108.193H105.822V107.861C106.071 107.861 106.254 107.826 106.372 107.756C106.49 107.685 106.557 107.55 106.572 107.354H106.95V110.63H107.595V111.001ZM110.527 109.182C110.527 109.835 110.432 110.314 110.241 110.62C110.052 110.925 109.76 111.077 109.365 111.077C108.964 111.077 108.671 110.921 108.483 110.61C108.296 110.3 108.203 109.825 108.203 109.187C108.203 108.531 108.297 108.052 108.486 107.749C108.676 107.445 108.969 107.293 109.365 107.293C109.765 107.293 110.059 107.45 110.246 107.764C110.433 108.078 110.527 108.551 110.527 109.182ZM109.902 110.291C109.949 110.17 109.982 110.018 110.002 109.834C110.021 109.65 110.031 109.433 110.031 109.182C110.031 108.933 110.021 108.717 110.002 108.533C109.982 108.349 109.948 108.196 109.899 108.074C109.851 107.95 109.783 107.856 109.697 107.793C109.612 107.728 109.501 107.695 109.365 107.695C109.23 107.695 109.118 107.728 109.03 107.793C108.944 107.856 108.876 107.952 108.825 108.079C108.776 108.202 108.743 108.359 108.725 108.547C108.707 108.736 108.698 108.949 108.698 109.187C108.698 109.441 108.706 109.653 108.72 109.824C108.736 109.995 108.771 110.148 108.823 110.283C108.87 110.409 108.937 110.505 109.023 110.574C109.111 110.64 109.225 110.674 109.365 110.674C109.5 110.674 109.611 110.642 109.697 110.579C109.785 110.514 109.853 110.418 109.902 110.291Z" fill="#8C99B2"/>
<path d="M117.595 111.001H115.822V110.63H116.481V108.193H115.822V107.861C116.071 107.861 116.254 107.826 116.372 107.756C116.49 107.685 116.557 107.55 116.572 107.354H116.95V110.63H117.595V111.001ZM120.324 111.001H118.552V110.63H119.211V108.193H118.552V107.861C118.801 107.861 118.984 107.826 119.101 107.756C119.22 107.685 119.287 107.55 119.301 107.354H119.68V110.63H120.324V111.001Z" fill="#8C99B2"/>
<path d="M127.595 111H125.822V110.629H126.481V108.192H125.822V107.86C126.071 107.86 126.254 107.825 126.372 107.755C126.49 107.684 126.557 107.549 126.572 107.353H126.95V110.629H127.595V111ZM130.51 111H128.266V110.49C128.427 110.337 128.579 110.19 128.723 110.05C128.866 109.91 129.006 109.765 129.143 109.613C129.419 109.309 129.608 109.066 129.709 108.883C129.81 108.699 129.86 108.51 129.86 108.314C129.86 108.214 129.844 108.125 129.812 108.048C129.781 107.972 129.737 107.908 129.682 107.858C129.625 107.809 129.559 107.772 129.484 107.748C129.41 107.724 129.327 107.711 129.238 107.711C129.152 107.711 129.064 107.723 128.974 107.746C128.886 107.767 128.802 107.794 128.72 107.826C128.652 107.854 128.586 107.887 128.522 107.926C128.459 107.965 128.408 107.999 128.369 108.026H128.342V107.509C128.443 107.458 128.583 107.41 128.762 107.362C128.942 107.313 129.113 107.289 129.274 107.289C129.613 107.289 129.878 107.379 130.07 107.56C130.262 107.739 130.358 107.982 130.358 108.29C130.358 108.432 130.341 108.563 130.307 108.683C130.275 108.804 130.229 108.915 130.17 109.018C130.11 109.123 130.038 109.228 129.953 109.333C129.868 109.437 129.779 109.539 129.685 109.64C129.532 109.806 129.361 109.979 129.172 110.158C128.985 110.337 128.835 110.478 128.723 110.583H130.51V111Z" fill="#8C99B2"/>
<path d="M139.595 111H137.822V110.629H138.481V108.192H137.822V107.86C138.071 107.86 138.254 107.825 138.372 107.755C138.49 107.684 138.557 107.549 138.572 107.353H138.95V110.629H139.595V111ZM141.248 107.711C141.16 107.711 141.072 107.722 140.984 107.743C140.896 107.764 140.81 107.792 140.725 107.826C140.647 107.859 140.579 107.893 140.52 107.929C140.463 107.965 140.412 107.998 140.366 108.029H140.337V107.514C140.443 107.457 140.586 107.405 140.767 107.36C140.949 107.313 141.122 107.289 141.287 107.289C141.451 107.289 141.594 107.306 141.716 107.34C141.84 107.373 141.951 107.424 142.051 107.494C142.158 107.572 142.239 107.667 142.292 107.777C142.348 107.888 142.375 108.017 142.375 108.166C142.375 108.366 142.31 108.542 142.178 108.693C142.046 108.844 141.888 108.94 141.704 108.981V109.015C141.781 109.03 141.862 109.055 141.948 109.091C142.036 109.127 142.118 109.18 142.192 109.25C142.267 109.319 142.328 109.41 142.375 109.521C142.423 109.63 142.446 109.763 142.446 109.921C142.446 110.085 142.418 110.237 142.361 110.375C142.306 110.512 142.227 110.633 142.124 110.739C142.018 110.849 141.89 110.933 141.741 110.99C141.591 111.047 141.421 111.076 141.23 111.076C141.048 111.076 140.868 111.054 140.688 111.01C140.509 110.966 140.359 110.913 140.237 110.851V110.336H140.271C140.374 110.411 140.511 110.482 140.684 110.551C140.856 110.619 141.029 110.653 141.201 110.653C141.3 110.653 141.4 110.638 141.499 110.607C141.6 110.574 141.684 110.522 141.75 110.451C141.816 110.379 141.865 110.3 141.899 110.214C141.934 110.128 141.951 110.019 141.951 109.887C141.951 109.755 141.931 109.647 141.892 109.562C141.855 109.477 141.802 109.411 141.733 109.362C141.665 109.313 141.584 109.28 141.489 109.262C141.396 109.242 141.296 109.232 141.187 109.232H140.979V108.827H141.14C141.36 108.827 141.538 108.775 141.675 108.671C141.813 108.567 141.882 108.415 141.882 108.217C141.882 108.126 141.864 108.048 141.829 107.982C141.793 107.916 141.747 107.863 141.692 107.824C141.63 107.781 141.562 107.752 141.487 107.736C141.412 107.72 141.332 107.711 141.248 107.711Z" fill="#8C99B2"/>
<path d="M148.095 111.001H146.322V110.63H146.981V108.193H146.322V107.861C146.571 107.861 146.754 107.826 146.872 107.756C146.99 107.685 147.057 107.55 147.072 107.354H147.45V110.63H148.095V111.001ZM151.105 109.751H150.673V111.001H150.204V109.751H148.598V109.238L150.224 107.366H150.673V109.36H151.105V109.751ZM150.204 109.36V107.939L148.979 109.36H150.204Z" fill="#8C99B2"/>
<path d="M159.095 111.001H157.322V110.63H157.981V108.193H157.322V107.861C157.571 107.861 157.754 107.826 157.872 107.756C157.99 107.685 158.057 107.55 158.072 107.354H158.45V110.63H159.095V111.001ZM161.968 109.844C161.968 110.02 161.94 110.182 161.883 110.332C161.827 110.482 161.749 110.611 161.648 110.72C161.546 110.831 161.418 110.918 161.265 110.981C161.114 111.045 160.944 111.077 160.755 111.077C160.581 111.077 160.409 111.057 160.24 111.018C160.072 110.981 159.926 110.931 159.803 110.869V110.354H159.837C159.874 110.382 159.928 110.413 159.998 110.449C160.068 110.483 160.145 110.516 160.23 110.547C160.326 110.581 160.414 110.608 160.494 110.627C160.573 110.645 160.663 110.654 160.762 110.654C160.86 110.654 160.955 110.637 161.048 110.603C161.141 110.567 161.22 110.51 161.287 110.432C161.347 110.361 161.393 110.277 161.424 110.181C161.456 110.085 161.473 109.972 161.473 109.841C161.473 109.713 161.455 109.607 161.419 109.524C161.385 109.441 161.334 109.373 161.268 109.319C161.198 109.257 161.111 109.214 161.009 109.189C160.908 109.163 160.795 109.15 160.669 109.15C160.538 109.15 160.405 109.161 160.271 109.182C160.138 109.202 160.031 109.22 159.952 109.238V107.366H161.946V107.793H160.423V108.76C160.481 108.753 160.539 108.748 160.596 108.745C160.653 108.742 160.705 108.74 160.752 108.74C160.938 108.74 161.095 108.756 161.224 108.787C161.352 108.818 161.476 108.878 161.595 108.967C161.715 109.058 161.807 109.172 161.871 109.309C161.936 109.446 161.968 109.624 161.968 109.844Z" fill="#8C99B2"/>
<path d="M169.095 111.001H167.322V110.63H167.981V108.193H167.322V107.861C167.571 107.861 167.754 107.826 167.872 107.756C167.99 107.685 168.057 107.55 168.072 107.354H168.45V110.63H169.095V111.001ZM172.066 109.822C172.066 110.009 172.035 110.182 171.973 110.339C171.911 110.497 171.828 110.629 171.724 110.735C171.615 110.847 171.493 110.933 171.358 110.991C171.223 111.048 171.074 111.077 170.911 111.077C170.747 111.077 170.597 111.049 170.462 110.994C170.328 110.938 170.21 110.856 170.108 110.747C169.983 110.615 169.884 110.439 169.812 110.22C169.743 109.998 169.708 109.727 169.708 109.404C169.708 109.089 169.74 108.804 169.805 108.55C169.87 108.294 169.97 108.072 170.105 107.883C170.237 107.699 170.407 107.556 170.616 107.454C170.824 107.349 171.065 107.297 171.338 107.297C171.42 107.297 171.495 107.301 171.565 107.31C171.635 107.318 171.697 107.331 171.751 107.349V107.815H171.729C171.685 107.791 171.622 107.769 171.539 107.749C171.456 107.728 171.367 107.717 171.272 107.717C170.97 107.717 170.725 107.82 170.538 108.025C170.352 108.228 170.242 108.531 170.208 108.933C170.324 108.852 170.442 108.789 170.564 108.745C170.687 108.701 170.82 108.679 170.965 108.679C171.106 108.679 171.23 108.694 171.336 108.723C171.443 108.751 171.555 108.808 171.67 108.894C171.804 108.995 171.903 109.123 171.968 109.277C172.033 109.432 172.066 109.613 172.066 109.822ZM171.57 109.841C171.57 109.692 171.551 109.566 171.512 109.465C171.473 109.364 171.409 109.278 171.321 109.207C171.258 109.154 171.185 109.12 171.104 109.104C171.024 109.088 170.942 109.08 170.857 109.08C170.743 109.08 170.633 109.097 170.525 109.131C170.418 109.165 170.312 109.215 170.208 109.28C170.205 109.316 170.202 109.351 170.201 109.385C170.199 109.417 170.198 109.459 170.198 109.509C170.198 109.762 170.223 109.965 170.271 110.12C170.322 110.274 170.384 110.391 170.457 110.471C170.527 110.548 170.599 110.601 170.672 110.632C170.747 110.663 170.827 110.679 170.914 110.679C171.109 110.679 171.267 110.609 171.387 110.469C171.509 110.329 171.57 110.12 171.57 109.841Z" fill="#8C99B2"/>
<path d="M179.095 111.001H177.322V110.63H177.981V108.193H177.322V107.861C177.571 107.861 177.754 107.826 177.872 107.756C177.99 107.685 178.057 107.55 178.072 107.354H178.45V110.63H179.095V111.001ZM182.049 107.91L180.477 111.001H179.957L181.622 107.793H179.742V107.366H182.049V107.91Z" fill="#8C99B2"/>
<path d="M188.595 110.999H186.822V110.628H187.481V108.191H186.822V107.859C187.071 107.859 187.254 107.824 187.372 107.754C187.49 107.683 187.557 107.548 187.572 107.352H187.95V110.628H188.595V110.999ZM190.98 108.211C190.98 108.048 190.925 107.912 190.816 107.803C190.707 107.694 190.556 107.64 190.362 107.64C190.185 107.64 190.039 107.688 189.925 107.786C189.813 107.884 189.757 108.016 189.757 108.182C189.757 108.302 189.785 108.404 189.842 108.487C189.901 108.57 189.988 108.645 190.104 108.711C190.154 108.739 190.23 108.777 190.333 108.826C190.437 108.875 190.532 108.913 190.616 108.941C190.758 108.832 190.854 108.72 190.904 108.606C190.955 108.491 190.98 108.359 190.98 108.211ZM191.048 110.032C191.048 109.882 191.019 109.764 190.96 109.676C190.902 109.588 190.789 109.498 190.621 109.407C190.566 109.376 190.492 109.343 190.399 109.307C190.308 109.271 190.204 109.229 190.089 109.18C189.954 109.27 189.85 109.38 189.779 109.512C189.707 109.642 189.671 109.791 189.671 109.959C189.671 110.179 189.737 110.36 189.869 110.503C190.003 110.647 190.169 110.718 190.37 110.718C190.575 110.718 190.739 110.657 190.863 110.535C190.986 110.411 191.048 110.244 191.048 110.032ZM190.365 111.082C190.184 111.082 190.02 111.055 189.872 111.001C189.723 110.948 189.597 110.87 189.493 110.77C189.391 110.672 189.312 110.556 189.259 110.423C189.207 110.288 189.181 110.145 189.181 109.996C189.181 109.799 189.233 109.618 189.337 109.454C189.443 109.288 189.596 109.156 189.796 109.058V109.043C189.617 108.939 189.484 108.825 189.398 108.702C189.312 108.578 189.269 108.423 189.269 108.238C189.269 107.964 189.372 107.736 189.579 107.554C189.785 107.372 190.047 107.281 190.365 107.281C190.695 107.281 190.96 107.368 191.158 107.542C191.358 107.714 191.458 107.936 191.458 108.206C191.458 108.369 191.41 108.53 191.314 108.689C191.22 108.849 191.083 108.973 190.904 109.063V109.078C191.116 109.177 191.276 109.297 191.385 109.439C191.494 109.581 191.549 109.763 191.549 109.986C191.549 110.297 191.436 110.557 191.209 110.767C190.985 110.977 190.703 111.082 190.365 111.082Z" fill="#8C99B2"/>
<path d="M198.095 111.001H196.322V110.63H196.981V108.193H196.322V107.861C196.571 107.861 196.754 107.826 196.872 107.756C196.99 107.685 197.057 107.55 197.072 107.354H197.45V110.63H198.095V111.001ZM200.531 108.86C200.531 108.612 200.508 108.411 200.463 108.257C200.417 108.101 200.355 107.98 200.275 107.896C200.203 107.817 200.131 107.764 200.058 107.734C199.984 107.705 199.904 107.69 199.816 107.69C199.616 107.69 199.456 107.762 199.337 107.905C199.219 108.049 199.159 108.256 199.159 108.528C199.159 108.681 199.179 108.807 199.218 108.906C199.257 109.006 199.32 109.091 199.408 109.163C199.47 109.213 199.54 109.247 199.618 109.265C199.696 109.281 199.78 109.29 199.87 109.29C199.974 109.29 200.086 109.272 200.207 109.236C200.327 109.198 200.432 109.15 200.521 109.089C200.523 109.065 200.525 109.033 200.526 108.994C200.53 108.953 200.531 108.909 200.531 108.86ZM198.664 108.547C198.664 108.36 198.694 108.189 198.754 108.035C198.816 107.88 198.9 107.747 199.005 107.634C199.106 107.527 199.229 107.443 199.374 107.383C199.521 107.323 199.669 107.293 199.818 107.293C199.986 107.293 200.137 107.321 200.272 107.378C200.409 107.433 200.527 107.514 200.626 107.62C200.752 107.753 200.849 107.928 200.917 108.145C200.987 108.361 201.022 108.634 201.022 108.965C201.022 109.266 200.988 109.552 200.919 109.822C200.853 110.09 200.753 110.313 200.622 110.491C200.482 110.68 200.313 110.824 200.116 110.923C199.921 111.022 199.679 111.072 199.391 111.072C199.326 111.072 199.257 111.068 199.184 111.06C199.11 111.053 199.042 111.04 198.979 111.021V110.554H199.003C199.044 110.577 199.107 110.599 199.193 110.62C199.28 110.641 199.368 110.652 199.457 110.652C199.776 110.652 200.027 110.547 200.209 110.337C200.391 110.127 200.495 109.827 200.519 109.436C200.389 109.524 200.264 109.588 200.146 109.629C200.028 109.67 199.901 109.69 199.762 109.69C199.627 109.69 199.504 109.675 199.394 109.646C199.283 109.617 199.171 109.56 199.059 109.475C198.929 109.376 198.83 109.251 198.764 109.099C198.697 108.946 198.664 108.762 198.664 108.547Z" fill="#8C99B2"/>
<path d="M208.78 111H206.537V110.49C206.698 110.337 206.85 110.19 206.993 110.05C207.136 109.91 207.276 109.765 207.413 109.613C207.69 109.309 207.879 109.066 207.979 108.883C208.08 108.699 208.131 108.51 208.131 108.314C208.131 108.214 208.115 108.125 208.082 108.048C208.051 107.972 208.008 107.908 207.953 107.858C207.896 107.809 207.83 107.772 207.755 107.748C207.68 107.724 207.598 107.711 207.508 107.711C207.422 107.711 207.334 107.723 207.245 107.746C207.157 107.767 207.072 107.794 206.991 107.826C206.922 107.854 206.856 107.887 206.793 107.926C206.729 107.965 206.678 107.999 206.639 108.026H206.612V107.509C206.713 107.458 206.853 107.41 207.032 107.362C207.213 107.313 207.384 107.289 207.545 107.289C207.883 107.289 208.149 107.379 208.341 107.56C208.533 107.739 208.629 107.982 208.629 108.29C208.629 108.432 208.612 108.563 208.578 108.683C208.545 108.804 208.5 108.915 208.441 109.018C208.381 109.123 208.308 109.228 208.224 109.333C208.139 109.437 208.049 109.539 207.955 109.64C207.802 109.806 207.631 109.979 207.442 110.158C207.255 110.337 207.105 110.478 206.993 110.583H208.78V111ZM211.527 109.181C211.527 109.834 211.432 110.313 211.241 110.619C211.052 110.924 210.76 111.076 210.365 111.076C209.964 111.076 209.671 110.92 209.483 110.609C209.296 110.299 209.203 109.824 209.203 109.186C209.203 108.53 209.297 108.051 209.486 107.748C209.676 107.444 209.969 107.292 210.365 107.292C210.765 107.292 211.059 107.449 211.246 107.763C211.433 108.077 211.527 108.55 211.527 109.181ZM210.902 110.29C210.949 110.169 210.982 110.017 211.002 109.833C211.021 109.649 211.031 109.432 211.031 109.181C211.031 108.932 211.021 108.716 211.002 108.532C210.982 108.348 210.948 108.195 210.899 108.073C210.851 107.949 210.783 107.855 210.697 107.792C210.612 107.727 210.501 107.694 210.365 107.694C210.23 107.694 210.118 107.727 210.03 107.792C209.944 107.855 209.876 107.951 209.825 108.078C209.776 108.201 209.743 108.358 209.725 108.546C209.707 108.735 209.698 108.948 209.698 109.186C209.698 109.44 209.706 109.652 209.72 109.823C209.736 109.994 209.771 110.147 209.823 110.282C209.87 110.408 209.937 110.504 210.023 110.573C210.111 110.639 210.225 110.673 210.365 110.673C210.5 110.673 210.611 110.641 210.697 110.578C210.785 110.513 210.853 110.417 210.902 110.29Z" fill="#8C99B2"/>
<path d="M218.78 111H216.537V110.49C216.698 110.337 216.85 110.19 216.993 110.05C217.136 109.91 217.276 109.765 217.413 109.613C217.69 109.309 217.879 109.066 217.979 108.883C218.08 108.699 218.131 108.51 218.131 108.314C218.131 108.214 218.115 108.125 218.082 108.048C218.051 107.972 218.008 107.908 217.953 107.858C217.896 107.809 217.83 107.772 217.755 107.748C217.68 107.724 217.598 107.711 217.508 107.711C217.422 107.711 217.334 107.723 217.245 107.746C217.157 107.767 217.072 107.794 216.991 107.826C216.922 107.854 216.856 107.887 216.793 107.926C216.729 107.965 216.678 107.999 216.639 108.026H216.612V107.509C216.713 107.458 216.853 107.41 217.032 107.362C217.213 107.313 217.384 107.289 217.545 107.289C217.883 107.289 218.149 107.379 218.341 107.56C218.533 107.739 218.629 107.982 218.629 108.29C218.629 108.432 218.612 108.563 218.578 108.683C218.545 108.804 218.5 108.915 218.441 109.018C218.381 109.123 218.308 109.228 218.224 109.333C218.139 109.437 218.049 109.539 217.955 109.64C217.802 109.806 217.631 109.979 217.442 110.158C217.255 110.337 217.105 110.478 216.993 110.583H218.78V111ZM221.324 111H219.552V110.629H220.211V108.192H219.552V107.86C219.801 107.86 219.984 107.825 220.101 107.755C220.22 107.684 220.287 107.549 220.301 107.353H220.68V110.629H221.324V111Z" fill="#8C99B2"/>
<path d="M238.78 111H236.537V110.49C236.698 110.337 236.85 110.19 236.993 110.05C237.136 109.91 237.276 109.765 237.413 109.613C237.69 109.309 237.879 109.066 237.979 108.883C238.08 108.699 238.131 108.51 238.131 108.314C238.131 108.214 238.115 108.125 238.082 108.048C238.051 107.972 238.008 107.908 237.953 107.858C237.896 107.809 237.83 107.772 237.755 107.748C237.68 107.724 237.598 107.711 237.508 107.711C237.422 107.711 237.334 107.723 237.245 107.746C237.157 107.767 237.072 107.794 236.991 107.826C236.922 107.854 236.856 107.887 236.793 107.926C236.729 107.965 236.678 107.999 236.639 108.026H236.612V107.509C236.713 107.458 236.853 107.41 237.032 107.362C237.213 107.313 237.384 107.289 237.545 107.289C237.883 107.289 238.149 107.379 238.341 107.56C238.533 107.739 238.629 107.982 238.629 108.29C238.629 108.432 238.612 108.563 238.578 108.683C238.545 108.804 238.5 108.915 238.441 109.018C238.381 109.123 238.308 109.228 238.224 109.333C238.139 109.437 238.049 109.539 237.955 109.64C237.802 109.806 237.631 109.979 237.442 110.158C237.255 110.337 237.105 110.478 236.993 110.583H238.78V111ZM240.248 107.711C240.16 107.711 240.072 107.722 239.984 107.743C239.896 107.764 239.81 107.792 239.725 107.826C239.647 107.859 239.579 107.893 239.52 107.929C239.463 107.965 239.412 107.998 239.366 108.029H239.337V107.514C239.443 107.457 239.586 107.405 239.767 107.36C239.949 107.313 240.122 107.289 240.287 107.289C240.451 107.289 240.594 107.306 240.716 107.34C240.84 107.373 240.951 107.424 241.051 107.494C241.158 107.572 241.239 107.667 241.292 107.777C241.348 107.888 241.375 108.017 241.375 108.166C241.375 108.366 241.31 108.542 241.178 108.693C241.046 108.844 240.888 108.94 240.704 108.981V109.015C240.781 109.03 240.862 109.055 240.948 109.091C241.036 109.127 241.118 109.18 241.192 109.25C241.267 109.319 241.328 109.41 241.375 109.521C241.423 109.63 241.446 109.763 241.446 109.921C241.446 110.085 241.418 110.237 241.361 110.375C241.306 110.512 241.227 110.633 241.124 110.739C241.018 110.849 240.89 110.933 240.741 110.99C240.591 111.047 240.421 111.076 240.23 111.076C240.048 111.076 239.868 111.054 239.688 111.01C239.509 110.966 239.359 110.913 239.237 110.851V110.336H239.271C239.374 110.411 239.511 110.482 239.684 110.551C239.856 110.619 240.029 110.653 240.201 110.653C240.3 110.653 240.4 110.638 240.499 110.607C240.6 110.574 240.684 110.522 240.75 110.451C240.816 110.379 240.865 110.3 240.899 110.214C240.934 110.128 240.951 110.019 240.951 109.887C240.951 109.755 240.931 109.647 240.892 109.562C240.855 109.477 240.802 109.411 240.733 109.362C240.665 109.313 240.584 109.28 240.489 109.262C240.396 109.242 240.296 109.232 240.187 109.232H239.979V108.827H240.14C240.36 108.827 240.538 108.775 240.675 108.671C240.813 108.567 240.882 108.415 240.882 108.217C240.882 108.126 240.864 108.048 240.829 107.982C240.793 107.916 240.747 107.863 240.692 107.824C240.63 107.781 240.562 107.752 240.487 107.736C240.412 107.72 240.332 107.711 240.248 107.711Z" fill="#12151E"/>
<path d="M248.28 111H246.037V110.49C246.198 110.337 246.35 110.19 246.493 110.05C246.636 109.91 246.776 109.765 246.913 109.613C247.19 109.309 247.379 109.066 247.479 108.883C247.58 108.699 247.631 108.51 247.631 108.314C247.631 108.214 247.615 108.125 247.582 108.048C247.551 107.972 247.508 107.908 247.453 107.858C247.396 107.809 247.33 107.772 247.255 107.748C247.18 107.724 247.098 107.711 247.008 107.711C246.922 107.711 246.834 107.723 246.745 107.746C246.657 107.767 246.572 107.794 246.491 107.826C246.422 107.854 246.356 107.887 246.293 107.926C246.229 107.965 246.178 107.999 246.139 108.026H246.112V107.509C246.213 107.458 246.353 107.41 246.532 107.362C246.713 107.313 246.884 107.289 247.045 107.289C247.383 107.289 247.649 107.379 247.841 107.56C248.033 107.739 248.129 107.982 248.129 108.29C248.129 108.432 248.112 108.563 248.078 108.683C248.045 108.804 248 108.915 247.941 109.018C247.881 109.123 247.808 109.228 247.724 109.333C247.639 109.437 247.549 109.539 247.455 109.64C247.302 109.806 247.131 109.979 246.942 110.158C246.755 110.337 246.605 110.478 246.493 110.583H248.28V111ZM251.105 109.75H250.673V111H250.204V109.75H248.598V109.237L250.224 107.365H250.673V109.359H251.105V109.75ZM250.204 109.359V107.938L248.979 109.359H250.204Z" fill="#606580"/>
<path d="M258.78 111H256.537V110.49C256.698 110.337 256.85 110.19 256.993 110.05C257.136 109.91 257.276 109.765 257.413 109.613C257.69 109.309 257.879 109.066 257.979 108.883C258.08 108.699 258.131 108.51 258.131 108.314C258.131 108.214 258.115 108.125 258.082 108.048C258.051 107.972 258.008 107.908 257.953 107.858C257.896 107.809 257.83 107.772 257.755 107.748C257.68 107.724 257.598 107.711 257.508 107.711C257.422 107.711 257.334 107.723 257.245 107.746C257.157 107.767 257.072 107.794 256.991 107.826C256.922 107.854 256.856 107.887 256.793 107.926C256.729 107.965 256.678 107.999 256.639 108.026H256.612V107.509C256.713 107.458 256.853 107.41 257.032 107.362C257.213 107.313 257.384 107.289 257.545 107.289C257.883 107.289 258.149 107.379 258.341 107.56C258.533 107.739 258.629 107.982 258.629 108.29C258.629 108.432 258.612 108.563 258.578 108.683C258.545 108.804 258.5 108.915 258.441 109.018C258.381 109.123 258.308 109.228 258.224 109.333C258.139 109.437 258.049 109.539 257.955 109.64C257.802 109.806 257.631 109.979 257.442 110.158C257.255 110.337 257.105 110.478 256.993 110.583H258.78V111ZM261.468 109.843C261.468 110.019 261.44 110.181 261.383 110.331C261.327 110.481 261.249 110.61 261.148 110.719C261.046 110.83 260.918 110.917 260.765 110.98C260.614 111.044 260.444 111.076 260.255 111.076C260.081 111.076 259.909 111.056 259.74 111.017C259.572 110.98 259.426 110.93 259.303 110.868V110.353H259.337C259.374 110.381 259.428 110.412 259.498 110.448C259.568 110.482 259.645 110.515 259.73 110.546C259.826 110.58 259.914 110.607 259.994 110.626C260.073 110.644 260.163 110.653 260.262 110.653C260.36 110.653 260.455 110.636 260.548 110.602C260.641 110.566 260.72 110.509 260.787 110.431C260.847 110.36 260.893 110.276 260.924 110.18C260.956 110.084 260.973 109.971 260.973 109.84C260.973 109.712 260.955 109.606 260.919 109.523C260.885 109.44 260.834 109.372 260.768 109.318C260.698 109.256 260.611 109.213 260.509 109.188C260.408 109.162 260.295 109.149 260.169 109.149C260.038 109.149 259.905 109.16 259.771 109.181C259.638 109.201 259.531 109.219 259.452 109.237V107.365H261.446V107.792H259.923V108.759C259.981 108.752 260.039 108.747 260.096 108.744C260.153 108.741 260.205 108.739 260.252 108.739C260.438 108.739 260.595 108.755 260.724 108.786C260.852 108.817 260.976 108.877 261.095 108.966C261.215 109.057 261.307 109.171 261.371 109.308C261.436 109.445 261.468 109.623 261.468 109.843Z" fill="#606580"/>
<path d="M267.28 111H265.037V110.49C265.198 110.337 265.35 110.19 265.493 110.05C265.636 109.91 265.776 109.765 265.913 109.613C266.19 109.309 266.379 109.066 266.479 108.883C266.58 108.699 266.631 108.51 266.631 108.314C266.631 108.214 266.615 108.125 266.582 108.048C266.551 107.972 266.508 107.908 266.453 107.858C266.396 107.809 266.33 107.772 266.255 107.748C266.18 107.724 266.098 107.711 266.008 107.711C265.922 107.711 265.834 107.723 265.745 107.746C265.657 107.767 265.572 107.794 265.491 107.826C265.422 107.854 265.356 107.887 265.293 107.926C265.229 107.965 265.178 107.999 265.139 108.026H265.112V107.509C265.213 107.458 265.353 107.41 265.532 107.362C265.713 107.313 265.884 107.289 266.045 107.289C266.383 107.289 266.649 107.379 266.841 107.56C267.033 107.739 267.129 107.982 267.129 108.29C267.129 108.432 267.112 108.563 267.078 108.683C267.045 108.804 267 108.915 266.941 109.018C266.881 109.123 266.808 109.228 266.724 109.333C266.639 109.437 266.549 109.539 266.455 109.64C266.302 109.806 266.131 109.979 265.942 110.158C265.755 110.337 265.605 110.478 265.493 110.583H267.28V111ZM270.066 109.821C270.066 110.008 270.035 110.181 269.973 110.338C269.911 110.496 269.828 110.628 269.724 110.734C269.615 110.846 269.493 110.932 269.358 110.99C269.223 111.047 269.074 111.076 268.911 111.076C268.747 111.076 268.597 111.048 268.462 110.993C268.328 110.937 268.21 110.855 268.108 110.746C267.983 110.614 267.884 110.438 267.812 110.219C267.743 109.997 267.708 109.726 267.708 109.403C267.708 109.088 267.74 108.803 267.805 108.549C267.87 108.293 267.97 108.071 268.105 107.882C268.237 107.698 268.407 107.555 268.616 107.453C268.824 107.348 269.065 107.296 269.338 107.296C269.42 107.296 269.495 107.3 269.565 107.309C269.635 107.317 269.697 107.33 269.751 107.348V107.814H269.729C269.685 107.79 269.622 107.768 269.539 107.748C269.456 107.727 269.367 107.716 269.272 107.716C268.97 107.716 268.725 107.819 268.538 108.024C268.352 108.227 268.242 108.53 268.208 108.932C268.324 108.851 268.442 108.788 268.564 108.744C268.687 108.7 268.82 108.678 268.965 108.678C269.106 108.678 269.23 108.693 269.336 108.722C269.443 108.75 269.555 108.807 269.67 108.893C269.804 108.994 269.903 109.122 269.968 109.276C270.033 109.431 270.066 109.612 270.066 109.821ZM269.57 109.84C269.57 109.691 269.551 109.565 269.512 109.464C269.473 109.363 269.409 109.277 269.321 109.206C269.258 109.153 269.185 109.119 269.104 109.103C269.024 109.087 268.942 109.079 268.857 109.079C268.743 109.079 268.633 109.096 268.525 109.13C268.418 109.164 268.312 109.214 268.208 109.279C268.205 109.315 268.202 109.35 268.201 109.384C268.199 109.416 268.198 109.458 268.198 109.508C268.198 109.761 268.223 109.964 268.271 110.119C268.322 110.273 268.384 110.39 268.457 110.47C268.527 110.547 268.599 110.6 268.672 110.631C268.747 110.662 268.827 110.678 268.914 110.678C269.109 110.678 269.267 110.608 269.387 110.468C269.509 110.328 269.57 110.119 269.57 109.84Z" fill="#606580"/>
<path d="M279.28 111H277.037V110.49C277.198 110.337 277.35 110.19 277.493 110.05C277.636 109.91 277.776 109.765 277.913 109.613C278.19 109.309 278.379 109.066 278.479 108.883C278.58 108.699 278.631 108.51 278.631 108.314C278.631 108.214 278.615 108.125 278.582 108.048C278.551 107.972 278.508 107.908 278.453 107.858C278.396 107.809 278.33 107.772 278.255 107.748C278.18 107.724 278.098 107.711 278.008 107.711C277.922 107.711 277.834 107.723 277.745 107.746C277.657 107.767 277.572 107.794 277.491 107.826C277.422 107.854 277.356 107.887 277.293 107.926C277.229 107.965 277.178 107.999 277.139 108.026H277.112V107.509C277.213 107.458 277.353 107.41 277.532 107.362C277.713 107.313 277.884 107.289 278.045 107.289C278.383 107.289 278.649 107.379 278.841 107.56C279.033 107.739 279.129 107.982 279.129 108.29C279.129 108.432 279.112 108.563 279.078 108.683C279.045 108.804 279 108.915 278.941 109.018C278.881 109.123 278.808 109.228 278.724 109.333C278.639 109.437 278.549 109.539 278.455 109.64C278.302 109.806 278.131 109.979 277.942 110.158C277.755 110.337 277.605 110.478 277.493 110.583H279.28V111ZM282.049 107.909L280.477 111H279.957L281.622 107.792H279.742V107.365H282.049V107.909Z" fill="#606580"/>
<path d="M289.28 110.999H287.037V110.489C287.198 110.336 287.35 110.189 287.493 110.049C287.636 109.909 287.776 109.764 287.913 109.612C288.19 109.308 288.379 109.065 288.479 108.882C288.58 108.698 288.631 108.509 288.631 108.313C288.631 108.213 288.615 108.124 288.582 108.047C288.551 107.971 288.508 107.907 288.453 107.857C288.396 107.808 288.33 107.771 288.255 107.747C288.18 107.723 288.098 107.71 288.008 107.71C287.922 107.71 287.834 107.722 287.745 107.745C287.657 107.766 287.572 107.793 287.491 107.825C287.422 107.853 287.356 107.886 287.293 107.925C287.229 107.964 287.178 107.998 287.139 108.025H287.112V107.508C287.213 107.457 287.353 107.409 287.532 107.361C287.713 107.312 287.884 107.288 288.045 107.288C288.383 107.288 288.649 107.378 288.841 107.559C289.033 107.738 289.129 107.981 289.129 108.289C289.129 108.431 289.112 108.562 289.078 108.682C289.045 108.803 289 108.914 288.941 109.017C288.881 109.122 288.808 109.227 288.724 109.332C288.639 109.436 288.549 109.538 288.455 109.639C288.302 109.805 288.131 109.978 287.942 110.157C287.755 110.336 287.605 110.477 287.493 110.582H289.28V110.999ZM291.48 108.211C291.48 108.048 291.425 107.912 291.316 107.803C291.207 107.694 291.056 107.64 290.862 107.64C290.685 107.64 290.539 107.688 290.425 107.786C290.313 107.884 290.257 108.016 290.257 108.182C290.257 108.302 290.285 108.404 290.342 108.487C290.401 108.57 290.488 108.645 290.604 108.711C290.654 108.739 290.73 108.777 290.833 108.826C290.937 108.875 291.032 108.913 291.116 108.941C291.258 108.832 291.354 108.72 291.404 108.606C291.455 108.491 291.48 108.359 291.48 108.211ZM291.548 110.032C291.548 109.882 291.519 109.764 291.46 109.676C291.402 109.588 291.289 109.498 291.121 109.407C291.066 109.376 290.992 109.343 290.899 109.307C290.808 109.271 290.704 109.229 290.589 109.18C290.454 109.27 290.35 109.38 290.279 109.512C290.207 109.642 290.171 109.791 290.171 109.959C290.171 110.179 290.237 110.36 290.369 110.503C290.503 110.647 290.669 110.718 290.87 110.718C291.075 110.718 291.239 110.657 291.363 110.535C291.486 110.411 291.548 110.244 291.548 110.032ZM290.865 111.082C290.684 111.082 290.52 111.055 290.372 111.001C290.223 110.948 290.097 110.87 289.993 110.77C289.891 110.672 289.812 110.556 289.759 110.423C289.707 110.288 289.681 110.145 289.681 109.996C289.681 109.799 289.733 109.618 289.837 109.454C289.943 109.288 290.096 109.156 290.296 109.058V109.043C290.117 108.939 289.984 108.825 289.898 108.702C289.812 108.578 289.769 108.423 289.769 108.238C289.769 107.964 289.872 107.736 290.079 107.554C290.285 107.372 290.547 107.281 290.865 107.281C291.195 107.281 291.46 107.368 291.658 107.542C291.858 107.714 291.958 107.936 291.958 108.206C291.958 108.369 291.91 108.53 291.814 108.689C291.72 108.849 291.583 108.973 291.404 109.063V109.078C291.616 109.177 291.776 109.297 291.885 109.439C291.994 109.581 292.049 109.763 292.049 109.986C292.049 110.297 291.936 110.557 291.709 110.767C291.485 110.977 291.203 111.082 290.865 111.082Z" fill="#606580"/>
<path d="M299.28 111H297.037V110.49C297.198 110.337 297.35 110.19 297.493 110.05C297.636 109.91 297.776 109.765 297.913 109.613C298.19 109.309 298.379 109.066 298.479 108.883C298.58 108.699 298.631 108.51 298.631 108.314C298.631 108.214 298.615 108.125 298.582 108.048C298.551 107.972 298.508 107.908 298.453 107.858C298.396 107.809 298.33 107.772 298.255 107.748C298.18 107.724 298.098 107.711 298.008 107.711C297.922 107.711 297.834 107.723 297.745 107.746C297.657 107.767 297.572 107.794 297.491 107.826C297.422 107.854 297.356 107.887 297.293 107.926C297.229 107.965 297.178 107.999 297.139 108.026H297.112V107.509C297.213 107.458 297.353 107.41 297.532 107.362C297.713 107.313 297.884 107.289 298.045 107.289C298.383 107.289 298.649 107.379 298.841 107.56C299.033 107.739 299.129 107.982 299.129 108.29C299.129 108.432 299.112 108.563 299.078 108.683C299.045 108.804 299 108.915 298.941 109.018C298.881 109.123 298.808 109.228 298.724 109.333C298.639 109.437 298.549 109.539 298.455 109.64C298.302 109.806 298.131 109.979 297.942 110.158C297.755 110.337 297.605 110.478 297.493 110.583H299.28V111ZM301.531 108.859C301.531 108.611 301.508 108.41 301.463 108.256C301.417 108.1 301.355 107.979 301.275 107.895C301.203 107.816 301.131 107.763 301.058 107.733C300.984 107.704 300.904 107.689 300.816 107.689C300.616 107.689 300.456 107.761 300.337 107.904C300.219 108.048 300.159 108.255 300.159 108.527C300.159 108.68 300.179 108.806 300.218 108.905C300.257 109.005 300.32 109.09 300.408 109.162C300.47 109.212 300.54 109.246 300.618 109.264C300.696 109.28 300.78 109.289 300.87 109.289C300.974 109.289 301.086 109.271 301.207 109.235C301.327 109.197 301.432 109.149 301.521 109.088C301.523 109.064 301.525 109.032 301.526 108.993C301.53 108.952 301.531 108.908 301.531 108.859ZM299.664 108.546C299.664 108.359 299.694 108.188 299.754 108.034C299.816 107.879 299.9 107.746 300.005 107.633C300.106 107.526 300.229 107.442 300.374 107.382C300.521 107.322 300.669 107.292 300.818 107.292C300.986 107.292 301.137 107.32 301.272 107.377C301.409 107.432 301.527 107.513 301.626 107.619C301.752 107.752 301.849 107.927 301.917 108.144C301.987 108.36 302.022 108.633 302.022 108.964C302.022 109.265 301.988 109.551 301.919 109.821C301.853 110.089 301.753 110.312 301.622 110.49C301.482 110.679 301.313 110.823 301.116 110.922C300.921 111.021 300.679 111.071 300.391 111.071C300.326 111.071 300.257 111.067 300.184 111.059C300.11 111.052 300.042 111.039 299.979 111.02V110.553H300.003C300.044 110.576 300.107 110.598 300.193 110.619C300.28 110.64 300.368 110.651 300.457 110.651C300.776 110.651 301.027 110.546 301.209 110.336C301.391 110.126 301.495 109.826 301.519 109.435C301.389 109.523 301.264 109.587 301.146 109.628C301.028 109.669 300.901 109.689 300.762 109.689C300.627 109.689 300.504 109.674 300.394 109.645C300.283 109.616 300.171 109.559 300.059 109.474C299.929 109.375 299.83 109.25 299.764 109.098C299.697 108.945 299.664 108.761 299.664 108.546Z" fill="#606580"/>
<path d="M307.018 107.711C306.93 107.711 306.842 107.722 306.754 107.743C306.667 107.764 306.58 107.792 306.496 107.826C306.417 107.859 306.349 107.893 306.291 107.929C306.234 107.965 306.182 107.998 306.137 108.029H306.107V107.514C306.213 107.457 306.356 107.405 306.537 107.36C306.719 107.313 306.893 107.289 307.057 107.289C307.222 107.289 307.365 107.306 307.487 107.34C307.611 107.373 307.722 107.424 307.821 107.494C307.929 107.572 308.009 107.667 308.063 107.777C308.118 107.888 308.146 108.017 308.146 108.166C308.146 108.366 308.08 108.542 307.948 108.693C307.816 108.844 307.659 108.94 307.475 108.981V109.015C307.551 109.03 307.632 109.055 307.719 109.091C307.807 109.127 307.888 109.18 307.963 109.25C308.038 109.319 308.099 109.41 308.146 109.521C308.193 109.63 308.217 109.763 308.217 109.921C308.217 110.085 308.188 110.237 308.131 110.375C308.076 110.512 307.997 110.633 307.895 110.739C307.789 110.849 307.661 110.933 307.511 110.99C307.361 111.047 307.191 111.076 307.001 111.076C306.819 111.076 306.638 111.054 306.459 111.01C306.28 110.966 306.129 110.913 306.007 110.851V110.336H306.042C306.144 110.411 306.282 110.482 306.454 110.551C306.627 110.619 306.799 110.653 306.972 110.653C307.071 110.653 307.17 110.638 307.27 110.607C307.37 110.574 307.454 110.522 307.521 110.451C307.586 110.379 307.636 110.3 307.67 110.214C307.704 110.128 307.721 110.019 307.721 109.887C307.721 109.755 307.702 109.647 307.663 109.562C307.625 109.477 307.572 109.411 307.504 109.362C307.436 109.313 307.354 109.28 307.26 109.262C307.167 109.242 307.066 109.232 306.957 109.232H306.75V108.827H306.911C307.13 108.827 307.309 108.775 307.445 108.671C307.584 108.567 307.653 108.415 307.653 108.217C307.653 108.126 307.635 108.048 307.599 107.982C307.563 107.916 307.518 107.863 307.462 107.824C307.401 107.781 307.332 107.752 307.257 107.736C307.182 107.72 307.103 107.711 307.018 107.711ZM311.027 109.181C311.027 109.834 310.932 110.313 310.741 110.619C310.552 110.924 310.26 111.076 309.865 111.076C309.464 111.076 309.171 110.92 308.983 110.609C308.796 110.299 308.703 109.824 308.703 109.186C308.703 108.53 308.797 108.051 308.986 107.748C309.176 107.444 309.469 107.292 309.865 107.292C310.265 107.292 310.559 107.449 310.746 107.763C310.933 108.077 311.027 108.55 311.027 109.181ZM310.402 110.29C310.449 110.169 310.482 110.017 310.502 109.833C310.521 109.649 310.531 109.432 310.531 109.181C310.531 108.932 310.521 108.716 310.502 108.532C310.482 108.348 310.448 108.195 310.399 108.073C310.351 107.949 310.283 107.855 310.197 107.792C310.112 107.727 310.001 107.694 309.865 107.694C309.73 107.694 309.618 107.727 309.53 107.792C309.444 107.855 309.376 107.951 309.325 108.078C309.276 108.201 309.243 108.358 309.225 108.546C309.207 108.735 309.198 108.948 309.198 109.186C309.198 109.44 309.206 109.652 309.22 109.823C309.236 109.994 309.271 110.147 309.323 110.282C309.37 110.408 309.437 110.504 309.523 110.573C309.611 110.639 309.725 110.673 309.865 110.673C310 110.673 310.111 110.641 310.197 110.578C310.285 110.513 310.353 110.417 310.402 110.29Z" fill="#606580"/>
<path d="M316.018 107.711C315.93 107.711 315.842 107.722 315.754 107.743C315.667 107.764 315.58 107.792 315.496 107.826C315.417 107.859 315.349 107.893 315.291 107.929C315.234 107.965 315.182 107.998 315.137 108.029H315.107V107.514C315.213 107.457 315.356 107.405 315.537 107.36C315.719 107.313 315.893 107.289 316.057 107.289C316.222 107.289 316.365 107.306 316.487 107.34C316.611 107.373 316.722 107.424 316.821 107.494C316.929 107.572 317.009 107.667 317.063 107.777C317.118 107.888 317.146 108.017 317.146 108.166C317.146 108.366 317.08 108.542 316.948 108.693C316.816 108.844 316.659 108.94 316.475 108.981V109.015C316.551 109.03 316.632 109.055 316.719 109.091C316.807 109.127 316.888 109.18 316.963 109.25C317.038 109.319 317.099 109.41 317.146 109.521C317.193 109.63 317.217 109.763 317.217 109.921C317.217 110.085 317.188 110.237 317.131 110.375C317.076 110.512 316.997 110.633 316.895 110.739C316.789 110.849 316.661 110.933 316.511 110.99C316.361 111.047 316.191 111.076 316.001 111.076C315.819 111.076 315.638 111.054 315.459 111.01C315.28 110.966 315.129 110.913 315.007 110.851V110.336H315.042C315.144 110.411 315.282 110.482 315.454 110.551C315.627 110.619 315.799 110.653 315.972 110.653C316.071 110.653 316.17 110.638 316.27 110.607C316.37 110.574 316.454 110.522 316.521 110.451C316.586 110.379 316.636 110.3 316.67 110.214C316.704 110.128 316.721 110.019 316.721 109.887C316.721 109.755 316.702 109.647 316.663 109.562C316.625 109.477 316.572 109.411 316.504 109.362C316.436 109.313 316.354 109.28 316.26 109.262C316.167 109.242 316.066 109.232 315.957 109.232H315.75V108.827H315.911C316.13 108.827 316.309 108.775 316.445 108.671C316.584 108.567 316.653 108.415 316.653 108.217C316.653 108.126 316.635 108.048 316.599 107.982C316.563 107.916 316.518 107.863 316.462 107.824C316.401 107.781 316.332 107.752 316.257 107.736C316.182 107.72 316.103 107.711 316.018 107.711ZM319.824 111H318.052V110.629H318.711V108.192H318.052V107.86C318.301 107.86 318.484 107.825 318.601 107.755C318.72 107.684 318.787 107.549 318.801 107.353H319.18V110.629H319.824V111Z" fill="#606580"/>
<path d="M229.28 111H227.037V110.49C227.198 110.337 227.35 110.19 227.493 110.05C227.636 109.91 227.776 109.765 227.913 109.613C228.19 109.309 228.379 109.066 228.479 108.883C228.58 108.699 228.631 108.51 228.631 108.314C228.631 108.214 228.615 108.125 228.582 108.048C228.551 107.972 228.508 107.908 228.453 107.858C228.396 107.809 228.33 107.772 228.255 107.748C228.18 107.724 228.098 107.711 228.008 107.711C227.922 107.711 227.834 107.723 227.745 107.746C227.657 107.767 227.572 107.794 227.491 107.826C227.422 107.854 227.356 107.887 227.293 107.926C227.229 107.965 227.178 107.999 227.139 108.026H227.112V107.509C227.213 107.458 227.353 107.41 227.532 107.362C227.713 107.313 227.884 107.289 228.045 107.289C228.383 107.289 228.649 107.379 228.841 107.56C229.033 107.739 229.129 107.982 229.129 108.29C229.129 108.432 229.112 108.563 229.078 108.683C229.045 108.804 229 108.915 228.941 109.018C228.881 109.123 228.808 109.228 228.724 109.333C228.639 109.437 228.549 109.539 228.455 109.64C228.302 109.806 228.131 109.979 227.942 110.158C227.755 110.337 227.605 110.478 227.493 110.583H229.28V111ZM232.01 111H229.766V110.49C229.927 110.337 230.079 110.19 230.223 110.05C230.366 109.91 230.506 109.765 230.643 109.613C230.919 109.309 231.108 109.066 231.209 108.883C231.31 108.699 231.36 108.51 231.36 108.314C231.36 108.214 231.344 108.125 231.312 108.048C231.281 107.972 231.237 107.908 231.182 107.858C231.125 107.809 231.059 107.772 230.984 107.748C230.91 107.724 230.827 107.711 230.738 107.711C230.652 107.711 230.564 107.723 230.474 107.746C230.386 107.767 230.302 107.794 230.22 107.826C230.152 107.854 230.086 107.887 230.022 107.926C229.959 107.965 229.908 107.999 229.869 108.026H229.842V107.509C229.943 107.458 230.083 107.41 230.262 107.362C230.442 107.313 230.613 107.289 230.774 107.289C231.113 107.289 231.378 107.379 231.57 107.56C231.762 107.739 231.858 107.982 231.858 108.29C231.858 108.432 231.841 108.563 231.807 108.683C231.775 108.804 231.729 108.915 231.67 109.018C231.61 109.123 231.538 109.228 231.453 109.333C231.368 109.437 231.279 109.539 231.185 109.64C231.032 109.806 230.861 109.979 230.672 110.158C230.485 110.337 230.335 110.478 230.223 110.583H232.01V111Z" fill="#8C99B2"/>
<path d="M19 76.9519C21.1686 79.3886 24.0199 85.2646 25.636 88.0661C27.3407 91.0201 28.7979 99.386 32.2726 99.9771C34.463 100.35 37.6773 96.0804 38.9089 94.3095C41.7295 90.2531 44.0915 80.5571 45.5455 75.8892C47.4809 69.6758 50.2068 56.9468 52.1818 50.7446C53.6151 46.2436 54.0723 34.2725 58.8181 33.0271C60.9784 32.4601 64.0189 37.1392 65.4544 38.7834C67.4651 41.0863 68.9847 48.5422 72.091 48.9675C74.2932 49.2691 76.9863 44.624 78.7273 43.2999C80.3168 42.0906 84.0357 40.2866 85.3636 38.8166C87.7627 36.161 90.6895 29.5744 91.9999 26.2967C93.4194 22.7465 95.2895 14.5329 98.6364 12.4816C100.033 11.6256 103.664 12.0948 105.273 12.4816C106.97 12.8894 110.592 13.5053 111.909 14.607C114.743 16.9782 116.873 24.3103 118.546 27.5364C120.192 30.7112 123.303 37.1562 125.182 40.2104C126.673 42.6344 129.622 47.628 131.818 49.4989C133.218 50.6912 136.94 51.78 138.455 52.836C140.333 54.1458 143.453 57.4864 145.091 59.0632C146.772 60.6811 149.79 64.2864 151.727 65.6166C153.22 66.641 156.704 67.8807 158.364 68.6339C160.022 69.3862 163.167 71.7335 165 71.6384" stroke="#8C99B2" stroke-width="0.5"/>
<path d="M19 55V77V55Z" fill="#8C99B2"/>
<path d="M19 55V77" stroke="#8C99B2" stroke-width="0.25413"/>
<path d="M26 55V88V55Z" fill="#8C99B2"/>
<path d="M26 55V88" stroke="#8C99B2" stroke-width="0.25413"/>
<path d="M32 55V100V55Z" fill="#8C99B2"/>
<path d="M32 55V100" stroke="#8C99B2" stroke-width="0.25413"/>
<path d="M39 55V94V55Z" fill="#8C99B2"/>
<path d="M39 55V94" stroke="#8C99B2" stroke-width="0.25413"/>
<path d="M46 55V76V55Z" fill="#8C99B2"/>
<path d="M46 55V76" stroke="#8C99B2" stroke-width="0.25413"/>
<path d="M52 55V50V55Z" fill="#8C99B2"/>
<path d="M52 55V50" stroke="#8C99B2" stroke-width="0.25413"/>
<path d="M59 55V33V55Z" fill="#8C99B2"/>
<path d="M59 55V33" stroke="#8C99B2" stroke-width="0.25413"/>
<path d="M65 55V38V55Z" fill="#8C99B2"/>
<path d="M65 55V38" stroke="#8C99B2" stroke-width="0.25413"/>
<path d="M72 55V49V55Z" fill="#8C99B2"/>
<path d="M72 55V49" stroke="#8C99B2" stroke-width="0.25413"/>
<path d="M79 55V43V55Z" fill="#8C99B2"/>
<path d="M79 55V43" stroke="#8C99B2" stroke-width="0.25413"/>
<path d="M85 55V38V55Z" fill="#8C99B2"/>
<path d="M85 55V38" stroke="#8C99B2" stroke-width="0.25413"/>
<path d="M92 55V26V55Z" fill="#8C99B2"/>
<path d="M92 55V26" stroke="#8C99B2" stroke-width="0.25413"/>
<path d="M98 55V12V55Z" fill="#8C99B2"/>
<path d="M98 55V12" stroke="#8C99B2" stroke-width="0.25413"/>
<path d="M105 55V12V55Z" fill="#8C99B2"/>
<path d="M105 55V12" stroke="#8C99B2" stroke-width="0.25413"/>
<path d="M112 55V14V55Z" fill="#8C99B2"/>
<path d="M112 55V14" stroke="#8C99B2" stroke-width="0.25413"/>
<path d="M118 55V27V55Z" fill="#8C99B2"/>
<path d="M118 55V27" stroke="#8C99B2" stroke-width="0.25413"/>
<path d="M125 55V40V55Z" fill="#8C99B2"/>
<path d="M125 55V40" stroke="#8C99B2" stroke-width="0.25413"/>
<path d="M132 55V49V55Z" fill="#8C99B2"/>
<path d="M132 55V49" stroke="#8C99B2" stroke-width="0.25413"/>
<path d="M138 55V52V55Z" fill="#8C99B2"/>
<path d="M138 55V52" stroke="#8C99B2" stroke-width="0.25413"/>
<path d="M145 55V59V55Z" fill="#8C99B2"/>
<path d="M145 55V59" stroke="#8C99B2" stroke-width="0.25413"/>
<path d="M151 55V65V55Z" fill="#8C99B2"/>
<path d="M151 55V65" stroke="#8C99B2" stroke-width="0.25413"/>
<path d="M158 55V68V55Z" fill="#8C99B2"/>
<path d="M158 55V68" stroke="#8C99B2" stroke-width="0.25413"/>
<path d="M165 55V71" stroke="#303549" stroke-width="0.25413"/>
<path d="M52.5 51C52.7761 51 53 50.7761 53 50.5C53 50.2239 52.7761 50 52.5 50C52.2239 50 52 50.2239 52 50.5C52 50.7761 52.2239 51 52.5 51Z" fill="#F7931E"/>
<path d="M58.5 33C58.7761 33 59 32.7761 59 32.5C59 32.2239 58.7761 32 58.5 32C58.2239 32 58 32.2239 58 32.5C58 32.7761 58.2239 33 58.5 33Z" fill="#F7931E"/>
<path d="M65.5 39C65.7761 39 66 38.7761 66 38.5C66 38.2239 65.7761 38 65.5 38C65.2239 38 65 38.2239 65 38.5C65 38.7761 65.2239 39 65.5 39Z" fill="#F7931E"/>
<path d="M72.5 49C72.7761 49 73 48.7761 73 48.5C73 48.2239 72.7761 48 72.5 48C72.2239 48 72 48.2239 72 48.5C72 48.7761 72.2239 49 72.5 49Z" fill="#F7931E"/>
<path d="M78.5 43C78.7761 43 79 42.7761 79 42.5C79 42.2239 78.7761 42 78.5 42C78.2239 42 78 42.2239 78 42.5C78 42.7761 78.2239 43 78.5 43Z" fill="#F7931E"/>
<path d="M85.5 39C85.7761 39 86 38.7761 86 38.5C86 38.2239 85.7761 38 85.5 38C85.2239 38 85 38.2239 85 38.5C85 38.7761 85.2239 39 85.5 39Z" fill="#F7931E"/>
<path d="M91.5 26C91.7761 26 92 25.7761 92 25.5C92 25.2239 91.7761 25 91.5 25C91.2239 25 91 25.2239 91 25.5C91 25.7761 91.2239 26 91.5 26Z" fill="#F7931E"/>
<path d="M98.5 12C98.7761 12 99 11.7761 99 11.5C99 11.2239 98.7761 11 98.5 11C98.2239 11 98 11.2239 98 11.5C98 11.7761 98.2239 12 98.5 12Z" fill="#F7931E"/>
<path d="M105.5 12C105.776 12 106 11.7761 106 11.5C106 11.2239 105.776 11 105.5 11C105.224 11 105 11.2239 105 11.5C105 11.7761 105.224 12 105.5 12Z" fill="#F7931E"/>
<path d="M111.5 15C111.776 15 112 14.7761 112 14.5C112 14.2239 111.776 14 111.5 14C111.224 14 111 14.2239 111 14.5C111 14.7761 111.224 15 111.5 15Z" fill="#F7931E"/>
<path d="M118.5 27C118.776 27 119 26.7761 119 26.5C119 26.2239 118.776 26 118.5 26C118.224 26 118 26.2239 118 26.5C118 26.7761 118.224 27 118.5 27Z" fill="#F7931E"/>
<path d="M124.5 40C124.776 40 125 39.7761 125 39.5C125 39.2239 124.776 39 124.5 39C124.224 39 124 39.2239 124 39.5C124 39.7761 124.224 40 124.5 40Z" fill="#F7931E"/>
<path d="M131.5 50C131.776 50 132 49.7761 132 49.5C132 49.2239 131.776 49 131.5 49C131.224 49 131 49.2239 131 49.5C131 49.7761 131.224 50 131.5 50Z" fill="#F7931E"/>
<path d="M138.5 53C138.776 53 139 52.7761 139 52.5C139 52.2239 138.776 52 138.5 52C138.224 52 138 52.2239 138 52.5C138 52.7761 138.224 53 138.5 53Z" fill="#F7931E"/>
<path d="M19.3221 77.6779C19.9133 77.6779 20.3925 77.2004 20.3925 76.6114C20.3925 76.0224 19.9133 75.5449 19.3221 75.5449C18.7309 75.5449 18.2517 76.0224 18.2517 76.6114C18.2517 77.2004 18.7309 77.6779 19.3221 77.6779Z" stroke="#A2E2FF" stroke-width="0.4"/>
<path d="M19.3573 76.6114C19.3573 76.6279 19.3432 76.6446 19.3221 76.6446C19.3009 76.6446 19.2869 76.628 19.2869 76.6114C19.2869 76.5947 19.301 76.5781 19.3221 76.5781C19.3432 76.5781 19.3573 76.5948 19.3573 76.6114Z" fill="#8C99B2" stroke="#8C99B2"/>
<path d="M25.9232 88.965C26.5143 88.965 26.9936 88.4875 26.9936 87.8985C26.9936 87.3095 26.5143 86.832 25.9232 86.832C25.332 86.832 24.8528 87.3095 24.8528 87.8985C24.8528 88.4875 25.332 88.965 25.9232 88.965Z" stroke="#A2E2FF" stroke-width="0.4"/>
<path d="M25.9231 88.4317C26.2187 88.4317 26.4583 88.193 26.4583 87.8985C26.4583 87.604 26.2187 87.3652 25.9231 87.3652C25.6276 87.3652 25.3879 87.604 25.3879 87.8985C25.3879 88.193 25.6276 88.4317 25.9231 88.4317Z" fill="#8C99B2"/>
<path d="M32.5242 100.94C33.1154 100.94 33.5946 100.462 33.5946 99.8731C33.5946 99.2841 33.1154 98.8066 32.5242 98.8066C31.9331 98.8066 31.4539 99.2841 31.4539 99.8731C31.4539 100.462 31.9331 100.94 32.5242 100.94Z" stroke="#A2E2FF" stroke-width="0.4"/>
<path d="M32.5594 99.8731C32.5594 99.8895 32.546 99.906 32.5242 99.906C32.5024 99.906 32.489 99.8895 32.489 99.8731C32.489 99.8564 32.5031 99.8398 32.5242 99.8398C32.5453 99.8398 32.5594 99.8564 32.5594 99.8731Z" fill="#8C99B2" stroke="#8C99B2"/>
<path d="M39.1253 95.1682C39.7165 95.1682 40.1957 94.6907 40.1957 94.1017C40.1957 93.5127 39.7165 93.0352 39.1253 93.0352C38.5342 93.0352 38.0549 93.5127 38.0549 94.1017C38.0549 94.6907 38.5342 95.1682 39.1253 95.1682Z" stroke="#A2E2FF" stroke-width="0.4"/>
<path d="M39.1255 94.6349C39.4211 94.6349 39.6607 94.3962 39.6607 94.1017C39.6607 93.8072 39.4211 93.5684 39.1255 93.5684C38.8299 93.5684 38.5903 93.8072 38.5903 94.1017C38.5903 94.3962 38.8299 94.6349 39.1255 94.6349Z" fill="#8C99B2"/>
<path d="M45.7264 76.9553C46.3176 76.9553 46.7968 76.4778 46.7968 75.8888C46.7968 75.2998 46.3176 74.8223 45.7264 74.8223C45.1352 74.8223 44.656 75.2998 44.656 75.8888C44.656 76.4778 45.1352 76.9553 45.7264 76.9553Z" stroke="#A2E2FF" stroke-width="0.4"/>
<path d="M45.7615 75.8888C45.7615 75.9054 45.7475 75.922 45.7264 75.922C45.7052 75.922 45.6912 75.9054 45.6912 75.8888C45.6912 75.8721 45.7053 75.8555 45.7264 75.8555C45.7473 75.8555 45.7615 75.872 45.7615 75.8888Z" fill="#8C99B2" stroke="#8C99B2"/>
<path d="M144.717 59.7267C145.309 59.7267 145.788 59.2491 145.788 58.6601C145.788 58.0711 145.309 57.5938 144.717 57.5938C144.126 57.5938 143.647 58.0711 143.647 58.6601C143.647 59.2491 144.126 59.7267 144.717 59.7267Z" stroke="#A2E2FF" stroke-width="0.5"/>
<path d="M144.753 58.6602C144.753 58.676 144.739 58.6934 144.717 58.6934C144.696 58.6934 144.682 58.6766 144.682 58.6602C144.682 58.6437 144.696 58.627 144.717 58.627C144.739 58.627 144.753 58.6443 144.753 58.6602Z" fill="#8C99B2" stroke="#8C99B2"/>
<path d="M151.32 66.3615C151.911 66.3615 152.39 65.884 152.39 65.295C152.39 64.706 151.911 64.2285 151.32 64.2285C150.729 64.2285 150.25 64.706 150.25 65.295C150.25 65.884 150.729 66.3615 151.32 66.3615Z" stroke="#A2E2FF" stroke-width="0.5"/>
<path d="M151.355 65.2949C151.355 65.3121 151.341 65.3282 151.32 65.3282C151.299 65.3282 151.285 65.3115 151.285 65.2949C151.285 65.2785 151.299 65.2617 151.32 65.2617C151.341 65.2617 151.355 65.2778 151.355 65.2949Z" fill="#8C99B2" stroke="#8C99B2"/>
<path d="M157.923 69.4884C158.514 69.4884 158.993 69.011 158.993 68.422C158.993 67.833 158.514 67.3555 157.923 67.3555C157.332 67.3555 156.852 67.833 156.852 68.422C156.852 69.011 157.332 69.4884 157.923 69.4884Z" stroke="#A2E2FF" stroke-width="0.5"/>
<path d="M157.958 68.4219C157.958 68.4385 157.944 68.4552 157.923 68.4552C157.901 68.4552 157.887 68.4378 157.887 68.4219C157.887 68.406 157.901 68.3887 157.923 68.3887C157.944 68.3887 157.958 68.4054 157.958 68.4219Z" fill="#8C99B2" stroke="#8C99B2"/>
<path d="M144.742 55.7267C145.185 55.7267 145.545 55.3686 145.545 54.9268C145.545 54.4851 145.185 54.127 144.742 54.127C144.298 54.127 143.939 54.4851 143.939 54.9268C143.939 55.3686 144.298 55.7267 144.742 55.7267Z" stroke="#A2E2FF" stroke-width="0.5"/>
<path d="M144.742 55.3252C144.963 55.3252 145.143 55.1462 145.143 54.9253C145.143 54.7044 144.963 54.5254 144.742 54.5254C144.52 54.5254 144.34 54.7044 144.34 54.9253C144.34 55.1462 144.52 55.3252 144.742 55.3252Z" fill="#A2E2FF"/>
<path d="M151.343 55.7267C151.786 55.7267 152.146 55.3686 152.146 54.9268C152.146 54.4851 151.786 54.127 151.343 54.127C150.899 54.127 150.54 54.4851 150.54 54.9268C150.54 55.3686 150.899 55.7267 151.343 55.7267Z" stroke="#A2E2FF" stroke-width="0.5"/>
<path d="M151.343 55.3252C151.564 55.3252 151.744 55.1462 151.744 54.9253C151.744 54.7044 151.564 54.5254 151.343 54.5254C151.121 54.5254 150.941 54.7044 150.941 54.9253C150.941 55.1462 151.121 55.3252 151.343 55.3252Z" fill="#A2E2FF"/>
<path d="M157.944 55.7267C158.387 55.7267 158.747 55.3686 158.747 54.9268C158.747 54.4851 158.387 54.127 157.944 54.127C157.501 54.127 157.141 54.4851 157.141 54.9268C157.141 55.3686 157.501 55.7267 157.944 55.7267Z" stroke="#A2E2FF" stroke-width="0.5"/>
<path d="M157.944 55.3252C158.166 55.3252 158.345 55.1462 158.345 54.9253C158.345 54.7044 158.166 54.5254 157.944 54.5254C157.722 54.5254 157.542 54.7044 157.542 54.9253C157.542 55.1462 157.722 55.3252 157.944 55.3252Z" fill="#A2E2FF"/>
<path d="M164.545 55.7267C164.988 55.7267 165.348 55.3686 165.348 54.9268C165.348 54.4851 164.988 54.127 164.545 54.127C164.102 54.127 163.742 54.4851 163.742 54.9268C163.742 55.3686 164.102 55.7267 164.545 55.7267Z" stroke="#A2E2FF" stroke-width="0.5"/>
<path d="M164.545 55.3252C164.767 55.3252 164.946 55.1462 164.946 54.9253C164.946 54.7044 164.767 54.5254 164.545 54.5254C164.323 54.5254 164.144 54.7044 164.144 54.9253C164.144 55.1462 164.323 55.3252 164.545 55.3252Z" fill="#A2E2FF"/>
<path d="M165 7C165.552 7 166 6.55228 166 6C166 5.44772 165.552 5 165 5C164.448 5 164 5.44772 164 6C164 6.55228 164.448 7 165 7Z" fill="#8C99B2"/>
<path d="M165 105C165.552 105 166 104.552 166 104C166 103.448 165.552 103 165 103C164.448 103 164 103.448 164 104C164 104.552 164.448 105 165 105Z" fill="#8C99B2"/>
<path d="M52.3272 55.7267C52.7706 55.7267 53.13 55.3686 53.13 54.9268C53.13 54.4851 52.7706 54.127 52.3272 54.127C51.8838 54.127 51.5244 54.4851 51.5244 54.9268C51.5244 55.3686 51.8838 55.7267 52.3272 55.7267Z" stroke="#A2E2FF" stroke-width="0.4"/>
<path d="M52.3272 55.3252C52.5489 55.3252 52.7286 55.1462 52.7286 54.9253C52.7286 54.7044 52.5489 54.5254 52.3272 54.5254C52.1055 54.5254 51.9258 54.7044 51.9258 54.9253C51.9258 55.1462 52.1055 55.3252 52.3272 55.3252Z" fill="#A2E2FF"/>
<path d="M58.9283 55.7267C59.3716 55.7267 59.7311 55.3686 59.7311 54.9268C59.7311 54.4851 59.3716 54.127 58.9283 54.127C58.4849 54.127 58.1255 54.4851 58.1255 54.9268C58.1255 55.3686 58.4849 55.7267 58.9283 55.7267Z" stroke="#A2E2FF" stroke-width="0.4"/>
<path d="M58.9283 55.3252C59.1499 55.3252 59.3296 55.1462 59.3296 54.9253C59.3296 54.7044 59.1499 54.5254 58.9283 54.5254C58.7066 54.5254 58.5269 54.7044 58.5269 54.9253C58.5269 55.1462 58.7066 55.3252 58.9283 55.3252Z" fill="#A2E2FF"/>
<path d="M65.5293 55.7267C65.9727 55.7267 66.3321 55.3686 66.3321 54.9268C66.3321 54.4851 65.9727 54.127 65.5293 54.127C65.086 54.127 64.7266 54.4851 64.7266 54.9268C64.7266 55.3686 65.086 55.7267 65.5293 55.7267Z" stroke="#A2E2FF" stroke-width="0.4"/>
<path d="M65.5293 55.3252C65.751 55.3252 65.9307 55.1462 65.9307 54.9253C65.9307 54.7044 65.751 54.5254 65.5293 54.5254C65.3076 54.5254 65.1279 54.7044 65.1279 54.9253C65.1279 55.1462 65.3076 55.3252 65.5293 55.3252Z" fill="#A2E2FF"/>
<path d="M72.1304 55.7267C72.5738 55.7267 72.9332 55.3686 72.9332 54.9268C72.9332 54.4851 72.5738 54.127 72.1304 54.127C71.6871 54.127 71.3276 54.4851 71.3276 54.9268C71.3276 55.3686 71.6871 55.7267 72.1304 55.7267Z" stroke="#A2E2FF" stroke-width="0.4"/>
<path d="M72.1304 55.3252C72.3521 55.3252 72.5318 55.1462 72.5318 54.9253C72.5318 54.7044 72.3521 54.5254 72.1304 54.5254C71.9087 54.5254 71.729 54.7044 71.729 54.9253C71.729 55.1462 71.9087 55.3252 72.1304 55.3252Z" fill="#A2E2FF"/>
<path d="M78.7313 55.7267C79.1746 55.7267 79.534 55.3686 79.534 54.9268C79.534 54.4851 79.1746 54.127 78.7313 54.127C78.2879 54.127 77.9285 54.4851 77.9285 54.9268C77.9285 55.3686 78.2879 55.7267 78.7313 55.7267Z" stroke="#A2E2FF" stroke-width="0.4"/>
<path d="M78.7312 55.3252C78.9529 55.3252 79.1326 55.1462 79.1326 54.9253C79.1326 54.7044 78.9529 54.5254 78.7312 54.5254C78.5095 54.5254 78.3298 54.7044 78.3298 54.9253C78.3298 55.1462 78.5095 55.3252 78.7312 55.3252Z" fill="#A2E2FF"/>
<path d="M85.3323 55.7267C85.7757 55.7267 86.1351 55.3686 86.1351 54.9268C86.1351 54.4851 85.7757 54.127 85.3323 54.127C84.889 54.127 84.5295 54.4851 84.5295 54.9268C84.5295 55.3686 84.889 55.7267 85.3323 55.7267Z" stroke="#A2E2FF" stroke-width="0.4"/>
<path d="M85.3323 55.3252C85.554 55.3252 85.7337 55.1462 85.7337 54.9253C85.7337 54.7044 85.554 54.5254 85.3323 54.5254C85.1106 54.5254 84.9309 54.7044 84.9309 54.9253C84.9309 55.1462 85.1106 55.3252 85.3323 55.3252Z" fill="#A2E2FF"/>
<path d="M91.9334 55.7267C92.3768 55.7267 92.7362 55.3686 92.7362 54.9268C92.7362 54.4851 92.3768 54.127 91.9334 54.127C91.49 54.127 91.1306 54.4851 91.1306 54.9268C91.1306 55.3686 91.49 55.7267 91.9334 55.7267Z" stroke="#A2E2FF" stroke-width="0.4"/>
<path d="M91.9334 55.3252C92.1551 55.3252 92.3348 55.1462 92.3348 54.9253C92.3348 54.7044 92.1551 54.5254 91.9334 54.5254C91.7117 54.5254 91.532 54.7044 91.532 54.9253C91.532 55.1462 91.7117 55.3252 91.9334 55.3252Z" fill="#A2E2FF"/>
<path d="M98.5345 55.7267C98.9779 55.7267 99.3373 55.3686 99.3373 54.9268C99.3373 54.4851 98.9779 54.127 98.5345 54.127C98.0911 54.127 97.7317 54.4851 97.7317 54.9268C97.7317 55.3686 98.0911 55.7267 98.5345 55.7267Z" stroke="#A2E2FF" stroke-width="0.4"/>
<path d="M98.5344 55.3252C98.7561 55.3252 98.9358 55.1462 98.9358 54.9253C98.9358 54.7044 98.7561 54.5254 98.5344 54.5254C98.3128 54.5254 98.1331 54.7044 98.1331 54.9253C98.1331 55.1462 98.3128 55.3252 98.5344 55.3252Z" fill="#A2E2FF"/>
<path d="M105.136 55.7267C105.579 55.7267 105.938 55.3686 105.938 54.9268C105.938 54.4851 105.579 54.127 105.136 54.127C104.692 54.127 104.333 54.4851 104.333 54.9268C104.333 55.3686 104.692 55.7267 105.136 55.7267Z" stroke="#A2E2FF" stroke-width="0.4"/>
<path d="M105.136 55.3252C105.357 55.3252 105.537 55.1462 105.537 54.9253C105.537 54.7044 105.357 54.5254 105.136 54.5254C104.914 54.5254 104.734 54.7044 104.734 54.9253C104.734 55.1462 104.914 55.3252 105.136 55.3252Z" fill="#A2E2FF"/>
<path d="M111.737 55.7267C112.18 55.7267 112.539 55.3686 112.539 54.9268C112.539 54.4851 112.18 54.127 111.737 54.127C111.293 54.127 110.934 54.4851 110.934 54.9268C110.934 55.3686 111.293 55.7267 111.737 55.7267Z" stroke="#A2E2FF" stroke-width="0.4"/>
<path d="M111.737 55.3252C111.958 55.3252 112.138 55.1462 112.138 54.9253C112.138 54.7044 111.958 54.5254 111.737 54.5254C111.515 54.5254 111.335 54.7044 111.335 54.9253C111.335 55.1462 111.515 55.3252 111.737 55.3252Z" fill="#A2E2FF"/>
<path d="M118.337 55.7267C118.781 55.7267 119.14 55.3686 119.14 54.9268C119.14 54.4851 118.781 54.127 118.337 54.127C117.894 54.127 117.535 54.4851 117.535 54.9268C117.535 55.3686 117.894 55.7267 118.337 55.7267Z" stroke="#A2E2FF" stroke-width="0.4"/>
<path d="M118.337 55.3252C118.559 55.3252 118.739 55.1462 118.739 54.9253C118.739 54.7044 118.559 54.5254 118.337 54.5254C118.116 54.5254 117.936 54.7044 117.936 54.9253C117.936 55.1462 118.116 55.3252 118.337 55.3252Z" fill="#A2E2FF"/>
<path d="M124.939 55.7267C125.382 55.7267 125.741 55.3686 125.741 54.9268C125.741 54.4851 125.382 54.127 124.939 54.127C124.495 54.127 124.136 54.4851 124.136 54.9268C124.136 55.3686 124.495 55.7267 124.939 55.7267Z" stroke="#A2E2FF" stroke-width="0.4"/>
<path d="M124.938 55.3252C125.16 55.3252 125.34 55.1462 125.34 54.9253C125.34 54.7044 125.16 54.5254 124.938 54.5254C124.717 54.5254 124.537 54.7044 124.537 54.9253C124.537 55.1462 124.717 55.3252 124.938 55.3252Z" fill="#A2E2FF"/>
<path d="M131.54 55.7267C131.983 55.7267 132.342 55.3686 132.342 54.9268C132.342 54.4851 131.983 54.127 131.54 54.127C131.096 54.127 130.737 54.4851 130.737 54.9268C130.737 55.3686 131.096 55.7267 131.54 55.7267Z" stroke="#A2E2FF" stroke-width="0.4"/>
<path d="M131.54 55.3252C131.761 55.3252 131.941 55.1462 131.941 54.9253C131.941 54.7044 131.761 54.5254 131.54 54.5254C131.318 54.5254 131.138 54.7044 131.138 54.9253C131.138 55.1462 131.318 55.3252 131.54 55.3252Z" fill="#A2E2FF"/>
<path d="M138.141 55.7267C138.584 55.7267 138.943 55.3686 138.943 54.9268C138.943 54.4851 138.584 54.127 138.141 54.127C137.697 54.127 137.338 54.4851 137.338 54.9268C137.338 55.3686 137.697 55.7267 138.141 55.7267Z" stroke="#A2E2FF" stroke-width="0.4"/>
<path d="M138.141 55.3252C138.362 55.3252 138.542 55.1462 138.542 54.9253C138.542 54.7044 138.362 54.5254 138.141 54.5254C137.919 54.5254 137.739 54.7044 137.739 54.9253C137.739 55.1462 137.919 55.3252 138.141 55.3252Z" fill="#A2E2FF"/>
<path d="M19.3221 55.7267C19.7654 55.7267 20.1249 55.3686 20.1249 54.9268C20.1249 54.4851 19.7654 54.127 19.3221 54.127C18.8787 54.127 18.5193 54.4851 18.5193 54.9268C18.5193 55.3686 18.8787 55.7267 19.3221 55.7267Z" stroke="#A2E2FF" stroke-width="0.4"/>
<path d="M19.322 55.3252C19.5437 55.3252 19.7234 55.1462 19.7234 54.9253C19.7234 54.7044 19.5437 54.5254 19.322 54.5254C19.1004 54.5254 18.9207 54.7044 18.9207 54.9253C18.9207 55.1462 19.1004 55.3252 19.322 55.3252Z" fill="#A2E2FF"/>
<path d="M25.9232 55.7267C26.3665 55.7267 26.7259 55.3686 26.7259 54.9268C26.7259 54.4851 26.3665 54.127 25.9232 54.127C25.4798 54.127 25.1204 54.4851 25.1204 54.9268C25.1204 55.3686 25.4798 55.7267 25.9232 55.7267Z" stroke="#A2E2FF" stroke-width="0.4"/>
<path d="M25.9231 55.3252C26.1448 55.3252 26.3245 55.1462 26.3245 54.9253C26.3245 54.7044 26.1448 54.5254 25.9231 54.5254C25.7014 54.5254 25.5217 54.7044 25.5217 54.9253C25.5217 55.1462 25.7014 55.3252 25.9231 55.3252Z" fill="#A2E2FF"/>
<path d="M32.5242 55.7267C32.9676 55.7267 33.327 55.3686 33.327 54.9268C33.327 54.4851 32.9676 54.127 32.5242 54.127C32.0809 54.127 31.7214 54.4851 31.7214 54.9268C31.7214 55.3686 32.0809 55.7267 32.5242 55.7267Z" stroke="#A2E2FF" stroke-width="0.4"/>
<path d="M32.5242 55.3252C32.7459 55.3252 32.9256 55.1462 32.9256 54.9253C32.9256 54.7044 32.7459 54.5254 32.5242 54.5254C32.3025 54.5254 32.1228 54.7044 32.1228 54.9253C32.1228 55.1462 32.3025 55.3252 32.5242 55.3252Z" fill="#A2E2FF"/>
<path d="M39.1248 55.7267C39.5682 55.7267 39.9276 55.3686 39.9276 54.9268C39.9276 54.4851 39.5682 54.127 39.1248 54.127C38.6814 54.127 38.322 54.4851 38.322 54.9268C38.322 55.3686 38.6814 55.7267 39.1248 55.7267Z" stroke="#A2E2FF" stroke-width="0.4"/>
<path d="M39.1248 55.3252C39.3465 55.3252 39.5262 55.1462 39.5262 54.9253C39.5262 54.7044 39.3465 54.5254 39.1248 54.5254C38.9031 54.5254 38.7234 54.7044 38.7234 54.9253C38.7234 55.1462 38.9031 55.3252 39.1248 55.3252Z" fill="#A2E2FF"/>
<path d="M45.7261 55.7267C46.1695 55.7267 46.5289 55.3686 46.5289 54.9268C46.5289 54.4851 46.1695 54.127 45.7261 54.127C45.2828 54.127 44.9233 54.4851 44.9233 54.9268C44.9233 55.3686 45.2828 55.7267 45.7261 55.7267Z" stroke="#A2E2FF" stroke-width="0.4"/>
<path d="M45.7261 55.3252C45.9478 55.3252 46.1275 55.1462 46.1275 54.9253C46.1275 54.7044 45.9478 54.5254 45.7261 54.5254C45.5044 54.5254 45.3247 54.7044 45.3247 54.9253C45.3247 55.1462 45.5044 55.3252 45.7261 55.3252Z" fill="#A2E2FF"/>
<path d="M54 52H51V49H54V52Z" stroke="#F7931E" stroke-width="0.419417"/>
<path d="M60 31H57V34H60V31Z" stroke="#F7931E" stroke-width="0.419417"/>
<path d="M67 37H64V40H67V37Z" stroke="#F7931E" stroke-width="0.419417"/>
<path d="M74 47H71V50H74V47Z" stroke="#F7931E" stroke-width="0.419417"/>
<path d="M80 41H77V44H80V41Z" stroke="#F7931E" stroke-width="0.419417"/>
<path d="M87 37H84V40H87V37Z" stroke="#F7931E" stroke-width="0.419417"/>
<path d="M93 24H90V27H93V24Z" stroke="#F7931E" stroke-width="0.419417"/>
<path d="M100 10H97V13H100V10Z" stroke="#F7931E" stroke-width="0.419417"/>
<path d="M107 10H104V13H107V10Z" stroke="#F7931E" stroke-width="0.419417"/>
<path d="M113 13H110V16H113V13Z" stroke="#F7931E" stroke-width="0.419417"/>
<path d="M120 25H117V28H120V25Z" stroke="#F7931E" stroke-width="0.419417"/>
<path d="M126 38H123V41H126V38Z" stroke="#F7931E" stroke-width="0.419417"/>
<path d="M133 48H130V51H133V48Z" stroke="#F7931E" stroke-width="0.419417"/>
<path d="M140 51H137V54H140V51Z" stroke="#F7931E" stroke-width="0.419417"/>
<path d="M164.525 71.9845C164.842 71.9845 165.099 71.7282 165.099 71.4122C165.099 71.0961 164.842 70.8398 164.525 70.8398C164.208 70.8398 163.951 71.0961 163.951 71.4122C163.951 71.7282 164.208 71.9845 164.525 71.9845Z" fill="#8C99B2"/>
<path opacity="0.2" d="M164.525 72.8421C165.318 72.8421 165.961 72.2015 165.961 71.4113C165.961 70.6211 165.318 69.9805 164.525 69.9805C163.732 69.9805 163.089 70.6211 163.089 71.4113C163.089 72.2015 163.732 72.8421 164.525 72.8421Z" fill="#8C99B2"/>
<path opacity="0.2" d="M164.525 74.0557C165.99 74.0557 167.178 72.8723 167.178 71.4126C167.178 69.9529 165.99 68.7695 164.525 68.7695C163.06 68.7695 161.872 69.9529 161.872 71.4126C161.872 72.8723 163.06 74.0557 164.525 74.0557Z" fill="#8C99B2"/>
<path opacity="0.05" d="M164.525 75.6017C166.847 75.6017 168.73 73.7259 168.73 71.4122C168.73 69.0984 166.847 67.2227 164.525 67.2227C162.203 67.2227 160.32 69.0984 160.32 71.4122C160.32 73.7259 162.203 75.6017 164.525 75.6017Z" fill="#8C99B2"/>
<path opacity="0.5" d="M164.525 72.8421C165.318 72.8421 165.961 72.2015 165.961 71.4113C165.961 70.6211 165.318 69.9805 164.525 69.9805C163.732 69.9805 163.089 70.6211 163.089 71.4113C163.089 72.2015 163.732 72.8421 164.525 72.8421Z" stroke="#8C99B2"/>
<path d="M165 5V104" stroke="#8C99B2" stroke-width="0.25"/>
</svg>
