<svg id="e95de94e-6c2a-4134-8e27-ffd353605bc5" data-name="1" xmlns="http://www.w3.org/2000/svg" viewBox="0 0 324 118"><defs><style>.ad1338a5-a108-48b1-80e1-fb2e5264951a{font-size:7.11px;fill:#5b607d;}.ad1338a5-a108-48b1-80e1-fb2e5264951a,.e3a406fd-1dc5-4dad-8c02-4816054117a1{font-family:Tahoma;}.e3a406fd-1dc5-4dad-8c02-4816054117a1{font-size:8.99px;fill:#8c99b2;}.aef2be61-ed74-42d4-b7d1-c5a3b047d9ec{fill:none;stroke:#60647f;stroke-miterlimit:10;stroke-width:0.38px;stroke-dasharray:1.52;}.ab2520f3-92fb-4b50-aac2-d1626bbdf089{fill:#0d1014;}.aa3bca7c-822a-4a6b-b2ce-a7340cc08954{fill:#60647f;}</style></defs><title>Проект1</title><text class="ad1338a5-a108-48b1-80e1-fb2e5264951a" transform="translate(10.43 11.9)">Дата</text><text class="ad1338a5-a108-48b1-80e1-fb2e5264951a" transform="translate(82.23 11.9)">Установка</text><text class="ad1338a5-a108-48b1-80e1-fb2e5264951a" transform="translate(145.36 11.9)">Длительность простоя</text><text class="ad1338a5-a108-48b1-80e1-fb2e5264951a" transform="translate(234.39 11.9)">Причина сопутствующая</text><text class="e3a406fd-1dc5-4dad-8c02-4816054117a1" transform="translate(10.83 40.42)">01.02.2019</text><text class="e3a406fd-1dc5-4dad-8c02-4816054117a1" transform="translate(83.09 40.42)">КПА-200</text><text class="e3a406fd-1dc5-4dad-8c02-4816054117a1" transform="translate(145.36 40.42)">0.2 д.</text><text class="e3a406fd-1dc5-4dad-8c02-4816054117a1" transform="translate(236.49 40.42)">Технологическая</text><text class="e3a406fd-1dc5-4dad-8c02-4816054117a1" transform="translate(10.83 63.1)">01.02.2019</text><text class="e3a406fd-1dc5-4dad-8c02-4816054117a1" transform="translate(83.09 63.1)">КПА-200</text><text class="e3a406fd-1dc5-4dad-8c02-4816054117a1" transform="translate(145.36 63.1)">0.2 д.</text><text class="e3a406fd-1dc5-4dad-8c02-4816054117a1" transform="translate(236.49 63.1)">Технологическая</text><text class="e3a406fd-1dc5-4dad-8c02-4816054117a1" transform="translate(10.83 85.79)">01.02.2019</text><text class="e3a406fd-1dc5-4dad-8c02-4816054117a1" transform="translate(83.09 85.79)">КПА-200</text><text class="e3a406fd-1dc5-4dad-8c02-4816054117a1" transform="translate(145.36 85.79)">0.2 д.</text><text class="e3a406fd-1dc5-4dad-8c02-4816054117a1" transform="translate(236.49 108.48)">Технологическая</text><text class="e3a406fd-1dc5-4dad-8c02-4816054117a1" transform="translate(10.83 108.48)">01.02.2019</text><text class="e3a406fd-1dc5-4dad-8c02-4816054117a1" transform="translate(83.09 108.48)">КПА-200</text><text class="e3a406fd-1dc5-4dad-8c02-4816054117a1" transform="translate(145.36 108.48)">0.2 д.</text><text class="e3a406fd-1dc5-4dad-8c02-4816054117a1" transform="translate(236.49 85.79)">Технологическая</text><line class="aef2be61-ed74-42d4-b7d1-c5a3b047d9ec" x1="319" y1="23.6" x2="5.78" y2="23.6"/><path class="ab2520f3-92fb-4b50-aac2-d1626bbdf089" d="M5.94,24.34a.61.61,0,1,1,.6-.6A.6.6,0,0,1,5.94,24.34Z"/><path class="aa3bca7c-822a-4a6b-b2ce-a7340cc08954" d="M5.94,23.47a.27.27,0,1,1-.27.27.27.27,0,0,1,.27-.27m0-.67a.94.94,0,1,0,.94.94.94.94,0,0,0-.94-.94Z"/><path class="ab2520f3-92fb-4b50-aac2-d1626bbdf089" d="M318.06,24.18a.61.61,0,1,1,.61-.6A.6.6,0,0,1,318.06,24.18Z"/><path class="aa3bca7c-822a-4a6b-b2ce-a7340cc08954" d="M318.06,23.31a.27.27,0,1,1-.27.27.27.27,0,0,1,.27-.27m0-.67a.94.94,0,1,0,.94.94.94.94,0,0,0-.94-.94Z"/></svg>