<svg width="324" height="117" viewBox="0 0 324 117" fill="none" xmlns="http://www.w3.org/2000/svg">
<path d="M144.786 28.6974C144.433 28.6974 144.108 28.6383 143.811 28.5199C143.516 28.4015 143.262 28.2252 143.047 27.9909C142.832 27.7566 142.665 27.4644 142.547 27.1142C142.428 26.7639 142.369 26.3618 142.369 25.9077C142.369 25.456 142.426 25.0623 142.539 24.7266C142.655 24.3908 142.823 24.0986 143.043 23.8498C143.258 23.6083 143.513 23.4247 143.807 23.2991C144.102 23.1711 144.432 23.1071 144.797 23.1071C144.978 23.1071 145.147 23.1204 145.304 23.1469C145.463 23.1735 145.611 23.2073 145.746 23.2484C145.862 23.2846 145.98 23.3305 146.101 23.386C146.224 23.4392 146.345 23.4984 146.463 23.5636V24.4295H146.405C146.342 24.3715 146.261 24.3015 146.162 24.2193C146.063 24.1372 145.943 24.0563 145.8 23.9766C145.662 23.9017 145.513 23.8401 145.351 23.7918C145.189 23.7435 145.002 23.7194 144.789 23.7194C144.56 23.7194 144.342 23.7665 144.137 23.8607C143.932 23.9549 143.752 24.0937 143.597 24.2773C143.445 24.4609 143.327 24.6915 143.242 24.9693C143.158 25.2471 143.115 25.5599 143.115 25.9077C143.115 26.2772 143.16 26.5961 143.25 26.8642C143.339 27.1299 143.461 27.3545 143.615 27.5381C143.765 27.7168 143.942 27.8521 144.144 27.9438C144.347 28.0332 144.562 28.0779 144.789 28.0779C144.997 28.0779 145.189 28.0525 145.365 28.0018C145.542 27.9511 145.699 27.8871 145.836 27.8098C145.969 27.7349 146.084 27.6588 146.181 27.5815C146.277 27.5018 146.353 27.4342 146.409 27.3786H146.463V28.2337C146.345 28.2892 146.233 28.3424 146.126 28.3931C146.022 28.4438 145.896 28.4933 145.746 28.5416C145.589 28.5924 145.443 28.631 145.307 28.6576C145.175 28.6841 145.001 28.6974 144.786 28.6974ZM149.949 25.1505C150.106 25.3099 150.228 25.5128 150.314 25.7591C150.401 26.0031 150.445 26.2869 150.445 26.6106C150.445 26.9221 150.395 27.2108 150.296 27.4765C150.197 27.7397 150.063 27.962 149.894 28.1431C149.72 28.3315 149.527 28.474 149.315 28.5706C149.104 28.6648 148.875 28.7119 148.626 28.7119C148.373 28.7119 148.139 28.6684 147.927 28.5815C147.717 28.4921 147.537 28.3557 147.387 28.1721C147.201 27.9426 147.061 27.6552 146.967 27.3098C146.875 26.9644 146.829 26.5369 146.829 26.0272C146.829 25.8461 146.836 25.6625 146.851 25.4765C146.868 25.2881 146.903 25.0635 146.956 24.8027C147.004 24.5708 147.069 24.3558 147.152 24.1578C147.234 23.9573 147.341 23.7882 147.474 23.6505C147.645 23.4718 147.869 23.3293 148.144 23.223C148.422 23.1167 148.789 23.0431 149.246 23.002C149.407 22.9875 149.58 22.9742 149.764 22.9621C149.95 22.9477 150.091 22.9368 150.188 22.9295V23.5563C150.062 23.5636 149.928 23.5732 149.786 23.5853C149.643 23.595 149.48 23.6071 149.296 23.6215C149.052 23.6409 148.798 23.6843 148.532 23.752C148.266 23.8172 148.066 23.9198 147.931 24.0599C147.829 24.1638 147.748 24.3123 147.688 24.5056C147.627 24.6988 147.585 24.9138 147.561 25.1505C147.74 25.0225 147.931 24.915 148.133 24.828C148.339 24.7386 148.56 24.694 148.796 24.694C149.016 24.694 149.225 24.7314 149.423 24.8063C149.621 24.8787 149.796 24.9935 149.949 25.1505ZM149.753 26.6504C149.753 26.2205 149.656 25.8908 149.463 25.6613C149.27 25.4319 148.994 25.3171 148.637 25.3171C148.441 25.3171 148.252 25.3497 148.068 25.415C147.885 25.4802 147.712 25.5671 147.55 25.6758C147.545 25.7362 147.54 25.8087 147.536 25.8932C147.531 25.9753 147.528 26.0502 147.528 26.1178C147.528 26.5381 147.562 26.8799 147.63 27.1431C147.697 27.4064 147.792 27.6129 147.912 27.7627C148.021 27.8979 148.136 27.9921 148.257 28.0453C148.377 28.096 148.509 28.1214 148.651 28.1214C148.999 28.1214 149.27 27.9897 149.463 27.7265C149.656 27.4632 149.753 27.1045 149.753 26.6504ZM154.553 26.4693C154.553 27.1431 154.392 27.6806 154.068 28.0815C153.747 28.48 153.34 28.6793 152.847 28.6793C152.647 28.6793 152.469 28.6564 152.314 28.6105C152.16 28.5646 152.002 28.4933 151.84 28.3967V30.0923H151.159V24.5527H151.84V24.9766C152.009 24.8244 152.196 24.6976 152.401 24.5961C152.609 24.4923 152.835 24.4404 153.079 24.4404C153.543 24.4404 153.904 24.6239 154.162 24.9911C154.423 25.3582 154.553 25.8509 154.553 26.4693ZM153.851 26.5453C153.851 26.084 153.777 25.7265 153.63 25.4729C153.482 25.2169 153.243 25.0889 152.912 25.0889C152.719 25.0889 152.532 25.1324 152.351 25.2193C152.172 25.3038 152.002 25.4137 151.84 25.549V27.8424C152.019 27.9293 152.171 27.9885 152.296 28.0199C152.424 28.0513 152.57 28.067 152.735 28.067C153.087 28.067 153.361 27.9378 153.557 27.6794C153.753 27.4209 153.851 27.0429 153.851 26.5453ZM158.59 26.5779C158.59 27.2591 158.425 27.7856 158.097 28.1576C157.768 28.5271 157.331 28.7119 156.785 28.7119C156.222 28.7119 155.779 28.5211 155.456 28.1395C155.134 27.7554 154.974 27.2349 154.974 26.5779C154.974 25.9016 155.139 25.3763 155.47 25.0019C155.803 24.6275 156.242 24.4404 156.785 24.4404C157.331 24.4404 157.768 24.6275 158.097 25.0019C158.425 25.3739 158.59 25.8992 158.59 26.5779ZM157.887 26.5779C157.887 26.0538 157.791 25.6649 157.6 25.4113C157.41 25.1553 157.138 25.0273 156.785 25.0273C156.43 25.0273 156.156 25.1553 155.963 25.4113C155.772 25.6649 155.677 26.0538 155.677 26.5779C155.677 27.0852 155.772 27.4704 155.963 27.7337C156.156 27.9946 156.43 28.125 156.785 28.125C157.135 28.125 157.406 27.997 157.597 27.7409C157.79 27.4825 157.887 27.0948 157.887 26.5779ZM160.897 28.6902C160.62 28.6902 160.365 28.6479 160.133 28.5634C159.901 28.4764 159.702 28.346 159.535 28.1721C159.368 27.9982 159.239 27.7796 159.147 27.5163C159.056 27.2506 159.01 26.939 159.01 26.5816C159.01 26.2265 159.057 25.9198 159.151 25.6613C159.248 25.4029 159.376 25.1855 159.535 25.0092C159.695 24.8328 159.893 24.6976 160.129 24.6034C160.368 24.5068 160.624 24.4585 160.897 24.4585C161.12 24.4585 161.333 24.4899 161.539 24.5527C161.746 24.6155 161.931 24.6879 162.093 24.77V25.5345H162.053C162.005 25.4935 161.942 25.4464 161.865 25.3932C161.79 25.3401 161.698 25.2857 161.589 25.2302C161.495 25.1819 161.384 25.1396 161.256 25.1034C161.128 25.0671 161.005 25.049 160.887 25.049C160.534 25.049 160.25 25.1831 160.035 25.4512C159.823 25.7169 159.716 26.0937 159.716 26.5816C159.716 27.0598 159.819 27.433 160.024 27.7011C160.232 27.9668 160.519 28.0996 160.887 28.0996C161.109 28.0996 161.32 28.0537 161.521 27.962C161.721 27.8702 161.899 27.7518 162.053 27.6069H162.093V28.3714C162.025 28.4028 161.941 28.4414 161.839 28.4873C161.738 28.5308 161.646 28.5634 161.564 28.5851C161.448 28.6189 161.344 28.6443 161.252 28.6612C161.161 28.6805 161.042 28.6902 160.897 28.6902ZM168.23 28.5996H167.549V25.1396H165.716V28.5996H165.035V24.5527H168.23V28.5996ZM172.611 26.4693C172.611 27.1431 172.449 27.6806 172.125 28.0815C171.804 28.48 171.397 28.6793 170.904 28.6793C170.704 28.6793 170.526 28.6564 170.372 28.6105C170.217 28.5646 170.059 28.4933 169.897 28.3967V30.0923H169.216V24.5527H169.897V24.9766C170.066 24.8244 170.253 24.6976 170.459 24.5961C170.666 24.4923 170.892 24.4404 171.136 24.4404C171.6 24.4404 171.961 24.6239 172.219 24.9911C172.48 25.3582 172.611 25.8509 172.611 26.4693ZM171.908 26.5453C171.908 26.084 171.834 25.7265 171.687 25.4729C171.539 25.2169 171.3 25.0889 170.969 25.0889C170.776 25.0889 170.589 25.1324 170.408 25.2193C170.229 25.3038 170.059 25.4137 169.897 25.549V27.8424C170.076 27.9293 170.228 27.9885 170.354 28.0199C170.482 28.0513 170.628 28.067 170.792 28.067C171.145 28.067 171.419 27.9378 171.614 27.6794C171.81 27.4209 171.908 27.0429 171.908 26.5453ZM176.647 26.5779C176.647 27.2591 176.483 27.7856 176.154 28.1576C175.826 28.5271 175.388 28.7119 174.842 28.7119C174.28 28.7119 173.836 28.5211 173.513 28.1395C173.192 27.7554 173.031 27.2349 173.031 26.5779C173.031 25.9016 173.196 25.3763 173.527 25.0019C173.861 24.6275 174.299 24.4404 174.842 24.4404C175.388 24.4404 175.826 24.6275 176.154 25.0019C176.483 25.3739 176.647 25.8992 176.647 26.5779ZM175.944 26.5779C175.944 26.0538 175.848 25.6649 175.658 25.4113C175.467 25.1553 175.195 25.0273 174.842 25.0273C174.487 25.0273 174.213 25.1553 174.02 25.4113C173.829 25.6649 173.734 26.0538 173.734 26.5779C173.734 27.0852 173.829 27.4704 174.02 27.7337C174.213 27.9946 174.487 28.125 174.842 28.125C175.193 28.125 175.463 27.997 175.654 27.7409C175.847 27.4825 175.944 27.0948 175.944 26.5779ZM180.542 28.5996H179.868V25.5816L177.962 28.5996H177.346V24.5527H178.02V27.5236L179.904 24.5527H180.542V28.5996ZM184.208 27.4801C184.208 27.7071 184.159 27.8992 184.06 28.0562C183.96 28.2132 183.834 28.3375 183.679 28.4293C183.532 28.5187 183.364 28.5851 183.176 28.6286C182.987 28.6721 182.799 28.6938 182.61 28.6938C182.345 28.6938 182.093 28.6672 181.857 28.6141C181.62 28.5634 181.385 28.4813 181.15 28.3677V27.6141H181.194C181.358 27.7663 181.563 27.8871 181.81 27.9764C182.058 28.0634 182.306 28.1069 182.552 28.1069C182.659 28.1069 182.772 28.096 182.893 28.0743C183.016 28.0501 183.12 28.0139 183.204 27.9656C183.316 27.8979 183.394 27.8255 183.44 27.7482C183.488 27.6709 183.512 27.5646 183.512 27.4294C183.512 27.2844 183.485 27.1685 183.429 27.0816C183.376 26.9922 183.302 26.9258 183.208 26.8823C183.114 26.8388 183.008 26.8122 182.889 26.8026C182.773 26.7905 182.65 26.7845 182.52 26.7845H182.041V26.1975H182.407C182.499 26.1975 182.614 26.1951 182.752 26.1903C182.889 26.183 182.999 26.1637 183.081 26.1323C183.185 26.0937 183.268 26.0393 183.331 25.9693C183.394 25.8968 183.425 25.776 183.425 25.607C183.425 25.4886 183.399 25.3932 183.346 25.3208C183.293 25.2483 183.226 25.1915 183.147 25.1505C183.064 25.107 182.975 25.078 182.878 25.0635C182.782 25.0466 182.689 25.0382 182.599 25.0382C182.37 25.0382 182.149 25.0708 181.936 25.136C181.726 25.1988 181.545 25.293 181.393 25.4186H181.349V24.6831C181.523 24.6227 181.715 24.5696 181.926 24.5237C182.138 24.4778 182.351 24.4548 182.563 24.4548C182.735 24.4548 182.909 24.473 183.085 24.5092C183.264 24.543 183.433 24.6022 183.592 24.6867C183.742 24.7688 183.868 24.8824 183.969 25.0273C184.07 25.1698 184.121 25.3449 184.121 25.5526C184.121 25.7724 184.058 25.9657 183.933 26.1323C183.81 26.2966 183.645 26.4053 183.44 26.4584V26.4837C183.665 26.561 183.848 26.6794 183.991 26.8388C184.136 26.9982 184.208 27.212 184.208 27.4801ZM188.255 26.5779C188.255 27.2591 188.091 27.7856 187.762 28.1576C187.434 28.5271 186.997 28.7119 186.451 28.7119C185.888 28.7119 185.445 28.5211 185.121 28.1395C184.8 27.7554 184.639 27.2349 184.639 26.5779C184.639 25.9016 184.805 25.3763 185.136 25.0019C185.469 24.6275 185.907 24.4404 186.451 24.4404C186.997 24.4404 187.434 24.6275 187.762 25.0019C188.091 25.3739 188.255 25.8992 188.255 26.5779ZM187.552 26.5779C187.552 26.0538 187.457 25.6649 187.266 25.4113C187.075 25.1553 186.803 25.0273 186.451 25.0273C186.096 25.0273 185.822 25.1553 185.628 25.4113C185.437 25.6649 185.342 26.0538 185.342 26.5779C185.342 27.0852 185.437 27.4704 185.628 27.7337C185.822 27.9946 186.096 28.125 186.451 28.125C186.801 28.125 187.071 27.997 187.262 27.7409C187.456 27.4825 187.552 27.0948 187.552 26.5779ZM192.15 28.5996H191.476V25.5816L189.57 28.5996H188.954V24.5527H189.628V27.5236L191.512 24.5527H192.15V28.5996ZM191.845 22.6723C191.845 22.88 191.82 23.0696 191.769 23.2411C191.719 23.4102 191.646 23.5527 191.552 23.6686C191.443 23.7967 191.32 23.8933 191.182 23.9585C191.045 24.0213 190.868 24.0527 190.653 24.0527C190.455 24.0527 190.282 24.0201 190.132 23.9549C189.984 23.8872 189.86 23.7918 189.759 23.6686C189.66 23.5479 189.585 23.403 189.534 23.2339C189.483 23.0648 189.458 22.8776 189.458 22.6723H190.045C190.045 22.9984 190.096 23.2339 190.197 23.3788C190.298 23.5213 190.451 23.5926 190.653 23.5926C190.844 23.5926 190.993 23.5225 191.099 23.3824C191.205 23.2399 191.259 23.0032 191.259 22.6723H191.845ZM196.606 29.5706H195.972V28.5887H193.306V29.5706H192.672V28.0199H192.94C193.169 27.6431 193.356 27.1516 193.501 26.5453C193.649 25.9367 193.722 25.2724 193.722 24.5527H196.204V28.0199H196.606V29.5706ZM195.523 28.0199V25.1251H194.363C194.332 25.7289 194.249 26.2809 194.113 26.7808C193.981 27.2784 193.813 27.6914 193.61 28.0199H195.523ZM199.037 28.6938C198.392 28.6938 197.891 28.5127 197.534 28.1504C197.179 27.7856 197.001 27.2687 197.001 26.5997C197.001 25.9403 197.174 25.4162 197.519 25.0273C197.865 24.636 198.316 24.4404 198.874 24.4404C199.125 24.4404 199.348 24.4766 199.541 24.549C199.734 24.6215 199.903 24.735 200.048 24.8896C200.193 25.0442 200.304 25.2338 200.381 25.4584C200.459 25.6806 200.497 25.9536 200.497 26.2772V26.6468H197.693C197.693 27.1178 197.811 27.4777 198.048 27.7265C198.285 27.9752 198.612 28.0996 199.03 28.0996C199.18 28.0996 199.326 28.0827 199.468 28.0489C199.613 28.0151 199.744 27.9716 199.86 27.9185C199.983 27.8629 200.087 27.8098 200.171 27.7591C200.256 27.7059 200.326 27.6564 200.381 27.6105H200.421V28.3532C200.341 28.3846 200.242 28.4245 200.124 28.4728C200.006 28.5187 199.899 28.5549 199.805 28.5815C199.672 28.6177 199.552 28.6455 199.443 28.6648C199.337 28.6841 199.201 28.6938 199.037 28.6938ZM199.834 26.1251C199.829 25.9415 199.808 25.7833 199.769 25.6504C199.73 25.5176 199.675 25.4053 199.602 25.3135C199.523 25.2121 199.42 25.1348 199.294 25.0816C199.171 25.0285 199.018 25.0019 198.834 25.0019C198.653 25.0019 198.499 25.0297 198.371 25.0853C198.245 25.1384 198.13 25.2169 198.026 25.3208C197.925 25.427 197.848 25.5454 197.794 25.6758C197.741 25.8038 197.708 25.9536 197.693 26.1251H199.834ZM204.142 25.1505H202.765V28.5996H202.084V25.1505H200.707V24.5527H204.142V25.1505ZM210.011 28.5996H209.33V27.02C209.118 27.09 208.911 27.1444 208.711 27.183C208.51 27.2216 208.312 27.241 208.117 27.241C207.945 27.241 207.777 27.2192 207.613 27.1758C207.451 27.1299 207.311 27.0562 207.193 26.9547C207.074 26.8533 206.983 26.7241 206.917 26.5671C206.855 26.4077 206.823 26.2205 206.823 26.0055V24.5527H207.504V25.6504C207.504 25.8292 207.512 25.9717 207.526 26.078C207.54 26.1818 207.58 26.2833 207.646 26.3823C207.701 26.4668 207.784 26.5321 207.896 26.5779C208.009 26.6238 208.158 26.6468 208.341 26.6468C208.501 26.6468 208.671 26.6311 208.852 26.5997C209.036 26.5683 209.195 26.5308 209.33 26.4874V24.5527H210.011V28.5996ZM212.754 28.6938C212.109 28.6938 211.608 28.5127 211.25 28.1504C210.895 27.7856 210.718 27.2687 210.718 26.5997C210.718 25.9403 210.891 25.4162 211.236 25.0273C211.581 24.636 212.033 24.4404 212.591 24.4404C212.842 24.4404 213.064 24.4766 213.258 24.549C213.451 24.6215 213.62 24.735 213.765 24.8896C213.91 25.0442 214.021 25.2338 214.098 25.4584C214.175 25.6806 214.214 25.9536 214.214 26.2772V26.6468H211.41C211.41 27.1178 211.528 27.4777 211.765 27.7265C212.002 27.9752 212.329 28.0996 212.747 28.0996C212.897 28.0996 213.043 28.0827 213.185 28.0489C213.33 28.0151 213.461 27.9716 213.576 27.9185C213.7 27.8629 213.804 27.8098 213.888 27.7591C213.973 27.7059 214.043 27.6564 214.098 27.6105H214.138V28.3532C214.058 28.3846 213.959 28.4245 213.841 28.4728C213.723 28.5187 213.616 28.5549 213.522 28.5815C213.389 28.6177 213.269 28.6455 213.16 28.6648C213.054 28.6841 212.918 28.6938 212.754 28.6938ZM213.551 26.1251C213.546 25.9415 213.525 25.7833 213.486 25.6504C213.447 25.5176 213.392 25.4053 213.319 25.3135C213.24 25.2121 213.137 25.1348 213.011 25.0816C212.888 25.0285 212.735 25.0019 212.551 25.0019C212.37 25.0019 212.215 25.0297 212.087 25.0853C211.962 25.1384 211.847 25.2169 211.743 25.3208C211.642 25.427 211.564 25.5454 211.511 25.6758C211.458 25.8038 211.424 25.9536 211.41 26.1251H213.551ZM218.297 26.4693C218.297 27.1431 218.135 27.6806 217.812 28.0815C217.491 28.48 217.084 28.6793 216.591 28.6793C216.39 28.6793 216.213 28.6564 216.058 28.6105C215.904 28.5646 215.745 28.4933 215.584 28.3967V30.0923H214.903V24.5527H215.584V24.9766C215.753 24.8244 215.94 24.6976 216.145 24.5961C216.353 24.4923 216.579 24.4404 216.823 24.4404C217.286 24.4404 217.648 24.6239 217.906 24.9911C218.167 25.3582 218.297 25.8509 218.297 26.4693ZM217.594 26.5453C217.594 26.084 217.521 25.7265 217.373 25.4729C217.226 25.2169 216.987 25.0889 216.656 25.0889C216.463 25.0889 216.276 25.1324 216.095 25.2193C215.916 25.3038 215.745 25.4137 215.584 25.549V27.8424C215.762 27.9293 215.915 27.9885 216.04 28.0199C216.168 28.0513 216.314 28.067 216.479 28.067C216.831 28.067 217.105 27.9378 217.301 27.6794C217.497 27.4209 217.594 27.0429 217.594 26.5453ZM220.761 28.6938C220.116 28.6938 219.615 28.5127 219.257 28.1504C218.902 27.7856 218.725 27.2687 218.725 26.5997C218.725 25.9403 218.898 25.4162 219.243 25.0273C219.588 24.636 220.04 24.4404 220.598 24.4404C220.849 24.4404 221.071 24.4766 221.265 24.549C221.458 24.6215 221.627 24.735 221.772 24.8896C221.917 25.0442 222.028 25.2338 222.105 25.4584C222.182 25.6806 222.221 25.9536 222.221 26.2772V26.6468H219.417C219.417 27.1178 219.535 27.4777 219.772 27.7265C220.009 27.9752 220.336 28.0996 220.754 28.0996C220.903 28.0996 221.05 28.0827 221.192 28.0489C221.337 28.0151 221.467 27.9716 221.583 27.9185C221.707 27.8629 221.81 27.8098 221.895 27.7591C221.98 27.7059 222.05 27.6564 222.105 27.6105H222.145V28.3532C222.065 28.3846 221.966 28.4245 221.848 28.4728C221.73 28.5187 221.623 28.5549 221.529 28.5815C221.396 28.6177 221.275 28.6455 221.167 28.6648C221.06 28.6841 220.925 28.6938 220.761 28.6938ZM221.558 26.1251C221.553 25.9415 221.531 25.7833 221.493 25.6504C221.454 25.5176 221.399 25.4053 221.326 25.3135C221.246 25.2121 221.144 25.1348 221.018 25.0816C220.895 25.0285 220.742 25.0019 220.558 25.0019C220.377 25.0019 220.222 25.0297 220.094 25.0853C219.969 25.1384 219.854 25.2169 219.75 25.3208C219.649 25.427 219.571 25.5454 219.518 25.6758C219.465 25.8038 219.431 25.9536 219.417 26.1251H221.558ZM225.591 27.4801C225.591 27.7071 225.541 27.8992 225.442 28.0562C225.343 28.2132 225.216 28.3375 225.062 28.4293C224.914 28.5187 224.746 28.5851 224.558 28.6286C224.37 28.6721 224.181 28.6938 223.993 28.6938C223.727 28.6938 223.476 28.6672 223.239 28.6141C223.002 28.5634 222.767 28.4813 222.533 28.3677V27.6141H222.576C222.74 27.7663 222.946 27.8871 223.192 27.9764C223.441 28.0634 223.688 28.1069 223.935 28.1069C224.041 28.1069 224.155 28.096 224.275 28.0743C224.399 28.0501 224.502 28.0139 224.587 27.9656C224.698 27.8979 224.777 27.8255 224.822 27.7482C224.871 27.6709 224.895 27.5646 224.895 27.4294C224.895 27.2844 224.867 27.1685 224.812 27.0816C224.758 26.9922 224.685 26.9258 224.591 26.8823C224.496 26.8388 224.39 26.8122 224.272 26.8026C224.156 26.7905 224.033 26.7845 223.902 26.7845H223.424V26.1975H223.79C223.882 26.1975 223.996 26.1951 224.134 26.1903C224.272 26.183 224.382 26.1637 224.464 26.1323C224.568 26.0937 224.651 26.0393 224.714 25.9693C224.777 25.8968 224.808 25.776 224.808 25.607C224.808 25.4886 224.781 25.3932 224.728 25.3208C224.675 25.2483 224.609 25.1915 224.529 25.1505C224.447 25.107 224.357 25.078 224.261 25.0635C224.164 25.0466 224.071 25.0382 223.982 25.0382C223.752 25.0382 223.531 25.0708 223.319 25.136C223.109 25.1988 222.928 25.293 222.775 25.4186H222.732V24.6831C222.906 24.6227 223.098 24.5696 223.308 24.5237C223.521 24.4778 223.733 24.4548 223.946 24.4548C224.117 24.4548 224.291 24.473 224.467 24.5092C224.646 24.543 224.815 24.6022 224.975 24.6867C225.124 24.7688 225.25 24.8824 225.351 25.0273C225.453 25.1698 225.504 25.3449 225.504 25.5526C225.504 25.7724 225.441 25.9657 225.315 26.1323C225.192 26.2966 225.028 26.4053 224.822 26.4584V26.4837C225.047 26.561 225.231 26.6794 225.373 26.8388C225.518 26.9982 225.591 27.212 225.591 27.4801ZM227.561 25.5852H226.696V24.5527H227.561V25.5852ZM227.561 28.5996H226.696V27.567H227.561V28.5996Z" fill="#8C99B2"/>
<path d="M248.256 24.4363C248.257 26.3734 247.976 27.7962 247.411 28.7048C246.851 29.6085 245.985 30.0608 244.811 30.0616C243.622 30.0625 242.75 29.6017 242.194 28.6795C241.638 27.7572 241.359 26.3492 241.358 24.4556C241.356 22.5088 241.636 21.0859 242.195 20.187C242.76 19.2833 243.629 18.831 244.803 18.8302C245.991 18.8294 246.864 19.2949 247.42 20.2269C247.976 21.1588 248.255 22.5619 248.256 24.4363ZM246.403 27.7273C246.543 27.3697 246.642 26.918 246.699 26.3721C246.757 25.8261 246.786 25.1812 246.785 24.4373C246.785 23.6982 246.755 23.0557 246.697 22.5099C246.638 21.9641 246.537 21.51 246.392 21.1478C246.246 20.7808 246.046 20.5032 245.789 20.315C245.538 20.1219 245.21 20.0255 244.804 20.0258C244.403 20.0261 244.072 20.1229 243.811 20.3163C243.555 20.5049 243.353 20.7877 243.203 21.1646C243.059 21.5318 242.96 21.9956 242.907 22.556C242.854 23.1164 242.828 23.7493 242.829 24.4545C242.829 25.2081 242.851 25.8385 242.895 26.3457C242.944 26.8529 243.046 27.3069 243.201 27.7078C243.341 28.0797 243.539 28.3669 243.795 28.5697C244.056 28.7675 244.395 28.8663 244.81 28.866C245.211 28.8658 245.539 28.7713 245.795 28.5828C246.056 28.3893 246.259 28.1042 246.403 27.7273ZM256.31 29.829L249.651 29.8336L249.65 28.3192C250.128 27.8648 250.579 27.4297 251.004 27.014C251.429 26.5982 251.844 26.1656 252.25 25.716C253.07 24.8121 253.63 24.0895 253.929 23.5483C254.228 23.0022 254.378 22.4393 254.377 21.8596C254.377 21.5601 254.328 21.2969 254.232 21.0699C254.14 20.8429 254.012 20.6546 253.847 20.505C253.678 20.3602 253.482 20.2516 253.26 20.1793C253.038 20.107 252.794 20.0709 252.528 20.0711C252.272 20.0713 252.011 20.1053 251.746 20.1731C251.485 20.2361 251.234 20.316 250.992 20.4128C250.789 20.495 250.594 20.5942 250.406 20.7103C250.217 20.8263 250.065 20.9255 249.949 21.0077L249.87 21.0077L249.868 19.4716C250.168 19.3216 250.583 19.1764 251.114 19.0359C251.651 18.8906 252.158 18.8178 252.636 18.8175C253.641 18.8168 254.428 19.0843 254.999 19.6202C255.569 20.1511 255.855 20.8731 255.855 21.7861C255.856 22.2064 255.805 22.5953 255.704 22.9529C255.608 23.3104 255.473 23.6414 255.299 23.9459C255.12 24.26 254.906 24.5717 254.655 24.8811C254.404 25.1904 254.138 25.4949 253.858 25.7946C253.404 26.2877 252.898 26.8001 252.338 27.3319C251.782 27.8636 251.338 28.2842 251.005 28.5936L256.309 28.5899L256.31 29.829ZM265.088 23.7941L263.356 23.7953L263.355 21.7302L265.087 21.729L265.088 23.7941ZM265.092 29.8229L263.361 29.8241L263.359 27.7589L265.091 27.7577L265.092 29.8229ZM278.933 29.8132L272.273 29.8178L272.272 28.3034C272.75 27.849 273.202 27.4139 273.626 26.9982C274.051 26.5824 274.466 26.1498 274.872 25.7002C275.692 24.7963 276.252 24.0737 276.551 23.5325C276.851 22.9864 277 22.4235 276.999 21.8438C276.999 21.5443 276.951 21.2811 276.854 21.0541C276.762 20.8271 276.634 20.6388 276.47 20.4892C276.3 20.3444 276.105 20.2358 275.882 20.1635C275.66 20.0912 275.416 20.0552 275.15 20.0553C274.894 20.0555 274.634 20.0895 274.368 20.1573C274.107 20.2203 273.856 20.3002 273.615 20.397C273.412 20.4792 273.216 20.5784 273.028 20.6945C272.84 20.8105 272.687 20.9097 272.572 20.9919L272.492 20.9919L272.491 19.4558C272.79 19.3058 273.205 19.1606 273.737 19.0201C274.273 18.8748 274.78 18.802 275.258 18.8017C276.263 18.801 277.051 19.0685 277.621 19.6044C278.191 20.1353 278.477 20.8573 278.478 21.7703C278.478 22.1906 278.427 22.5795 278.326 22.9371C278.23 23.2946 278.095 23.6256 277.921 23.9301C277.743 24.2442 277.528 24.5559 277.277 24.8653C277.026 25.1746 276.76 25.4791 276.481 25.7788C276.027 26.2719 275.52 26.7843 274.96 27.3161C274.405 27.8478 273.961 28.2684 273.628 28.5778L278.932 28.5741L278.933 29.8132ZM283.281 20.0497C283.02 20.0498 282.759 20.0814 282.498 20.1444C282.237 20.2074 281.981 20.2897 281.73 20.3913C281.498 20.4881 281.296 20.5897 281.122 20.6961C280.953 20.8025 280.801 20.9016 280.665 20.9935L280.578 20.9935L280.577 19.4646C280.891 19.2953 281.316 19.1429 281.852 19.0072C282.393 18.8668 282.908 18.7964 283.396 18.796C283.884 18.7957 284.309 18.8461 284.671 18.9473C285.038 19.0436 285.369 19.1956 285.664 19.4031C285.983 19.6348 286.222 19.9148 286.382 20.2431C286.547 20.5715 286.629 20.9555 286.629 21.3951C286.63 21.9893 286.434 22.5111 286.043 22.9607C285.652 23.4102 285.184 23.6955 284.638 23.8167L284.638 23.9181C284.865 23.9614 285.107 24.0362 285.363 24.1423C285.624 24.2483 285.866 24.4052 286.088 24.6127C286.31 24.8203 286.492 25.0883 286.632 25.4167C286.772 25.7402 286.843 26.1363 286.843 26.6049C286.843 27.0928 286.759 27.5421 286.59 27.9528C286.426 28.3587 286.192 28.7188 285.888 29.033C285.574 29.3617 285.195 29.6108 284.751 29.7801C284.307 29.9495 283.802 30.0344 283.237 30.0348C282.696 30.0352 282.16 29.9704 281.628 29.8403C281.097 29.7102 280.65 29.5535 280.287 29.3702L280.286 27.8413L280.388 27.8412C280.692 28.0632 281.1 28.2755 281.613 28.478C282.125 28.6806 282.637 28.7817 283.149 28.7813C283.444 28.7811 283.738 28.735 284.033 28.643C284.332 28.5462 284.581 28.3914 284.779 28.1787C284.972 27.9661 285.119 27.7317 285.22 27.4756C285.322 27.2195 285.372 26.8958 285.372 26.5045C285.372 26.1132 285.314 25.792 285.197 25.5409C285.086 25.2897 284.929 25.0918 284.726 24.947C284.523 24.8022 284.281 24.7034 284.001 24.6504C283.726 24.5927 283.426 24.5639 283.103 24.5641L282.487 24.5645L282.486 23.3617L282.964 23.3614C283.616 23.3609 284.145 23.2059 284.551 22.8965C284.961 22.587 285.166 22.1376 285.166 21.5483C285.165 21.2778 285.112 21.0459 285.006 20.8528C284.899 20.6548 284.764 20.4979 284.6 20.3821C284.416 20.2566 284.213 20.1698 283.991 20.1216C283.769 20.0735 283.532 20.0495 283.281 20.0497ZM295.812 23.7727L294.08 23.7739L294.078 21.7087L295.81 21.7075L295.812 23.7727ZM295.816 29.8014L294.084 29.8026L294.083 27.7375L295.814 27.7363L295.816 29.8014ZM309.105 29.7921L303.845 29.7958L303.844 28.6944L305.8 28.693L305.795 21.4614L303.839 21.4628L303.838 20.4773C304.577 20.4768 305.121 20.3726 305.468 20.1646C305.821 19.9518 306.019 19.5531 306.062 18.9686L307.185 18.9678L307.192 28.6921L309.104 28.6907L309.105 29.7921ZM317.921 26.2861C317.922 26.8416 317.83 27.3538 317.647 27.8225C317.464 28.2912 317.218 28.6826 316.909 28.9969C316.585 29.3304 316.223 29.5843 315.822 29.7585C315.422 29.9278 314.98 30.0127 314.496 30.013C314.009 30.0133 313.564 29.9315 313.163 29.7676C312.767 29.6036 312.416 29.3599 312.112 29.0364C311.74 28.6454 311.447 28.1239 311.234 27.4719C311.026 26.8151 310.921 26.0084 310.921 25.0519C310.92 24.1148 311.016 23.2693 311.209 22.5156C311.401 21.757 311.698 21.0974 312.099 20.5368C312.49 19.9906 312.994 19.5652 313.612 19.2604C314.23 18.9508 314.945 18.7957 315.757 18.7952C315.998 18.795 316.223 18.8069 316.431 18.8309C316.638 18.8549 316.822 18.8934 316.981 18.9465L316.982 20.3305L316.917 20.3305C316.787 20.2581 316.598 20.1931 316.352 20.1353C316.105 20.0726 315.842 20.0414 315.562 20.0416C314.663 20.0422 313.937 20.3471 313.382 20.9562C312.831 21.5604 312.506 22.4591 312.405 23.6524C312.748 23.4106 313.101 23.2244 313.463 23.0937C313.825 22.963 314.221 22.8975 314.651 22.8972C315.071 22.8969 315.438 22.9401 315.752 23.0269C316.071 23.1088 316.402 23.2776 316.746 23.5334C317.142 23.8326 317.437 24.2116 317.63 24.6704C317.824 25.1292 317.921 25.6678 317.921 26.2861ZM316.45 26.3451C316.45 25.9007 316.392 25.5288 316.276 25.2293C316.16 24.9299 315.971 24.674 315.71 24.4616C315.521 24.3072 315.306 24.2059 315.065 24.1577C314.828 24.1096 314.584 24.0856 314.333 24.0858C313.995 24.086 313.666 24.137 313.348 24.2387C313.029 24.3403 312.715 24.4879 312.406 24.6813C312.396 24.7876 312.389 24.8915 312.384 24.9929C312.38 25.0895 312.377 25.2127 312.377 25.3625C312.378 26.1112 312.451 26.715 312.596 27.1738C312.746 27.6327 312.93 27.9803 313.147 28.2169C313.355 28.4438 313.568 28.6031 313.785 28.6947C314.008 28.7863 314.247 28.8321 314.503 28.8319C315.083 28.8315 315.551 28.6234 315.908 28.2077C316.27 27.792 316.451 27.1712 316.45 26.3451Z" fill="#303549"/>
<path d="M317.16 46.5H7.63L5.91 44.78V38.73L7.63 37H317.16L318.88 38.72V44.77L317.16 46.5Z" fill="white" fill-opacity="0.5" stroke="#8C99B2" stroke-width="0.34" stroke-miterlimit="10"/>
<path d="M85.18 46.5H83.66V50.11H85.18V46.5Z" fill="#8C99B2"/>
<path d="M162.93 46.5H161.41V50.11H162.93V46.5Z" fill="#8C99B2"/>
<path d="M240.6 46.5H239.23V50.11H240.6V46.5Z" fill="#8C99B2"/>
<path opacity="0.3" d="M314.54 39.4902H160.73V43.8402H314.54V39.4902Z" fill="#A2E2FF"/>
<path d="M161.2 44.0002H8.26L6.54 42.2902V41.2102L8.26 39.4902H161.2L162.92 41.2102V42.2902L161.2 44.0002Z" fill="#A2E2FF"/>
<path d="M11.119 29.8675C10.6955 29.8675 10.3054 29.7964 9.94867 29.6543C9.59482 29.5122 9.28883 29.3004 9.0307 29.0191C8.77256 28.7378 8.57244 28.3868 8.43032 27.9663C8.2882 27.5457 8.21714 27.0628 8.21714 26.5175C8.21714 25.9751 8.2853 25.5024 8.42162 25.0992C8.56084 24.6961 8.76241 24.3451 9.02635 24.0464C9.28448 23.7563 9.59047 23.5359 9.94432 23.3851C10.2982 23.2314 10.6941 23.1545 11.132 23.1545C11.3496 23.1545 11.5526 23.1705 11.7411 23.2024C11.9325 23.2343 12.1095 23.2749 12.2719 23.3242C12.4111 23.3677 12.5532 23.4228 12.6982 23.4895C12.8462 23.5533 12.9912 23.6244 13.1333 23.7027V24.7425H13.0637C12.9883 24.6729 12.8911 24.5888 12.7722 24.4901C12.6533 24.3915 12.5083 24.2944 12.3371 24.1987C12.1718 24.1087 11.992 24.0348 11.7977 23.9768C11.6033 23.9188 11.3786 23.8898 11.1233 23.8898C10.8478 23.8898 10.5868 23.9463 10.3402 24.0594C10.0937 24.1725 9.87761 24.3393 9.69199 24.5598C9.50926 24.7802 9.36714 25.0572 9.26563 25.3907C9.16412 25.7243 9.11336 26.0999 9.11336 26.5175C9.11336 26.9613 9.16702 27.3441 9.27433 27.6661C9.38165 27.9851 9.52812 28.2548 9.71374 28.4753C9.89356 28.6899 10.1053 28.8523 10.3489 28.9625C10.5926 29.0699 10.8507 29.1235 11.1233 29.1235C11.3728 29.1235 11.6033 29.0931 11.8151 29.0322C12.0268 28.9712 12.2153 28.8944 12.3806 28.8016C12.5402 28.7117 12.6779 28.6203 12.794 28.5275C12.91 28.4318 13.0013 28.3506 13.068 28.2839H13.1333V29.3106C12.9912 29.3773 12.8563 29.4411 12.7287 29.502C12.604 29.5629 12.4517 29.6224 12.2719 29.6804C12.0834 29.7413 11.9079 29.7877 11.7455 29.8196C11.5859 29.8515 11.3771 29.8675 11.119 29.8675ZM17.3186 25.6082C17.5071 25.7997 17.6536 26.0433 17.758 26.3391C17.8624 26.6321 17.9146 26.9729 17.9146 27.3615C17.9146 27.7357 17.8551 28.0823 17.7362 28.4013C17.6173 28.7175 17.4563 28.9843 17.2533 29.2018C17.0445 29.4281 16.8124 29.5992 16.5572 29.7152C16.3049 29.8283 16.0293 29.8849 15.7306 29.8849C15.4261 29.8849 15.1462 29.8327 14.8909 29.7282C14.6386 29.6209 14.4225 29.4571 14.2427 29.2366C14.0194 28.9611 13.8511 28.6159 13.738 28.2012C13.6278 27.7864 13.5727 27.2731 13.5727 26.6611C13.5727 26.4436 13.5814 26.2231 13.5988 25.9998C13.6191 25.7736 13.6612 25.5038 13.725 25.1906C13.783 24.9121 13.8613 24.654 13.9599 24.4162C14.0585 24.1754 14.1876 23.9724 14.3471 23.8071C14.553 23.5925 14.8213 23.4213 15.152 23.2937C15.4855 23.1661 15.9264 23.0777 16.4746 23.0283C16.6689 23.0109 16.8763 22.995 17.0967 22.9805C17.32 22.9631 17.4897 22.95 17.6057 22.9413V23.694C17.4549 23.7027 17.2939 23.7143 17.1228 23.7288C16.9517 23.7404 16.7559 23.7549 16.5355 23.7723C16.2425 23.7955 15.9365 23.8477 15.6175 23.9289C15.2984 24.0072 15.0577 24.1305 14.8953 24.2987C14.7735 24.4234 14.6763 24.6018 14.6038 24.8338C14.5313 25.0659 14.4805 25.324 14.4515 25.6082C14.6662 25.4545 14.8953 25.3255 15.1389 25.221C15.3855 25.1137 15.6508 25.0601 15.9351 25.0601C16.199 25.0601 16.4499 25.105 16.6877 25.1949C16.9256 25.2819 17.1358 25.4197 17.3186 25.6082ZM17.0836 27.4094C17.0836 26.8931 16.9676 26.4972 16.7356 26.2217C16.5036 25.9461 16.1729 25.8084 15.7437 25.8084C15.5087 25.8084 15.281 25.8475 15.0606 25.9258C14.8402 26.0041 14.6328 26.1086 14.4385 26.2391C14.4327 26.3116 14.4269 26.3986 14.4211 26.5001C14.4153 26.5987 14.4124 26.6886 14.4124 26.7698C14.4124 27.2745 14.453 27.6849 14.5342 28.0011C14.6154 28.3172 14.7285 28.5652 14.8735 28.745C15.0041 28.9074 15.1418 29.0206 15.2868 29.0844C15.4319 29.1453 15.5899 29.1757 15.7611 29.1757C16.1787 29.1757 16.5036 29.0177 16.7356 28.7015C16.9676 28.3854 17.0836 27.9547 17.0836 27.4094ZM22.8482 27.1919C22.8482 28.0011 22.6538 28.6464 22.2652 29.1279C21.8794 29.6064 21.3907 29.8457 20.799 29.8457C20.5583 29.8457 20.3451 29.8182 20.1595 29.7631C19.9739 29.7079 19.7839 29.6224 19.5896 29.5064V31.5424H18.7717V24.8904H19.5896V25.3994C19.7926 25.2167 20.0174 25.0644 20.2639 24.9426C20.5133 24.8179 20.7845 24.7555 21.0775 24.7555C21.6343 24.7555 22.068 24.976 22.3783 25.4168C22.6915 25.8577 22.8482 26.4494 22.8482 27.1919ZM22.0041 27.2832C22.0041 26.7292 21.9157 26.3 21.7388 25.9954C21.5618 25.688 21.2747 25.5343 20.8773 25.5343C20.6453 25.5343 20.4205 25.5865 20.203 25.6909C19.9884 25.7924 19.7839 25.9244 19.5896 26.0868V28.8407C19.8042 28.9451 19.9869 29.0162 20.1377 29.0539C20.2915 29.0916 20.4669 29.1105 20.6642 29.1105C21.0876 29.1105 21.4168 28.9553 21.6517 28.645C21.8867 28.3346 22.0041 27.8807 22.0041 27.2832ZM27.6947 27.3224C27.6947 28.1403 27.4975 28.7726 27.103 29.2192C26.7086 29.663 26.1836 29.8849 25.5281 29.8849C24.8523 29.8849 24.3201 29.6557 23.9315 29.1975C23.5457 28.7363 23.3528 28.1113 23.3528 27.3224C23.3528 26.5103 23.5515 25.8794 23.9489 25.4299C24.3491 24.9803 24.8755 24.7555 25.5281 24.7555C26.1836 24.7555 26.7086 24.9803 27.103 25.4299C27.4975 25.8765 27.6947 26.5074 27.6947 27.3224ZM26.8507 27.3224C26.8507 26.693 26.7361 26.226 26.507 25.9215C26.2779 25.614 25.9516 25.4603 25.5281 25.4603C25.1018 25.4603 24.7726 25.614 24.5405 25.9215C24.3114 26.226 24.1968 26.693 24.1968 27.3224C24.1968 27.9315 24.3114 28.3941 24.5405 28.7102C24.7726 29.0235 25.1018 29.1801 25.5281 29.1801C25.9487 29.1801 26.2735 29.0264 26.5027 28.7189C26.7347 28.4086 26.8507 27.9431 26.8507 27.3224ZM30.466 29.8588C30.1325 29.8588 29.8265 29.808 29.5481 29.7065C29.2696 29.6021 29.0303 29.4455 28.8302 29.2366C28.6301 29.0278 28.4749 28.7653 28.3647 28.4492C28.2545 28.1301 28.1994 27.756 28.1994 27.3267C28.1994 26.9004 28.2559 26.532 28.3691 26.2217C28.4851 25.9113 28.6388 25.6503 28.8302 25.4386C29.0216 25.2268 29.2595 25.0644 29.5437 24.9513C29.8308 24.8353 30.1383 24.7773 30.466 24.7773C30.7329 24.7773 30.9896 24.815 31.2361 24.8904C31.4855 24.9658 31.7074 25.0528 31.9017 25.1514V26.0694H31.8539C31.7959 26.0201 31.7205 25.9635 31.6276 25.8997C31.5377 25.8359 31.4275 25.7707 31.297 25.704C31.1839 25.6459 31.0505 25.5952 30.8967 25.5517C30.743 25.5082 30.5951 25.4864 30.453 25.4864C30.0295 25.4864 29.6887 25.6474 29.4306 25.9693C29.1754 26.2884 29.0477 26.7408 29.0477 27.3267C29.0477 27.901 29.171 28.3491 29.4175 28.6711C29.667 28.9901 30.0121 29.1496 30.453 29.1496C30.7198 29.1496 30.9736 29.0945 31.2143 28.9843C31.4551 28.8741 31.6682 28.732 31.8539 28.5579H31.9017V29.4759C31.8205 29.5136 31.719 29.56 31.5972 29.6151C31.4754 29.6673 31.3652 29.7065 31.2665 29.7326C31.1273 29.7732 31.0026 29.8037 30.8924 29.824C30.7822 29.8472 30.6401 29.8588 30.466 29.8588ZM39.2716 29.75H38.4537V27.5617H36.2523V29.75H35.4344V24.8904H36.2523V26.8569H38.4537V24.8904H39.2716V29.75ZM43.1697 28.5536V27.2049C42.9754 27.2223 42.7289 27.247 42.4301 27.2789C42.1343 27.3079 41.895 27.3499 41.7123 27.405C41.4948 27.4717 41.3149 27.5747 41.1728 27.7139C41.0307 27.8502 40.9596 28.0417 40.9596 28.2882C40.9596 28.5666 41.038 28.7769 41.1946 28.919C41.3512 29.0612 41.5803 29.1322 41.882 29.1322C42.1401 29.1322 42.3736 29.0771 42.5824 28.9669C42.7912 28.8538 42.987 28.716 43.1697 28.5536ZM43.1697 29.2323C43.103 29.2816 43.0131 29.3512 42.9 29.4411C42.7898 29.5281 42.6825 29.5977 42.5781 29.6499C42.433 29.7253 42.2924 29.7834 42.1561 29.824C42.0226 29.8646 41.8341 29.8849 41.5905 29.8849C41.3904 29.8849 41.2004 29.8472 41.0206 29.7718C40.8407 29.6963 40.6827 29.5905 40.5463 29.4542C40.4158 29.3207 40.3114 29.1569 40.2331 28.9625C40.1548 28.7653 40.1156 28.5579 40.1156 28.3404C40.1156 28.004 40.1867 27.7183 40.3288 27.4833C40.4709 27.2455 40.6957 27.057 41.0032 26.9178C41.2758 26.7931 41.5977 26.7075 41.969 26.6611C42.3402 26.6118 42.7405 26.5755 43.1697 26.5523V26.3957C43.1697 26.2043 43.1407 26.0506 43.0827 25.9345C43.0247 25.8156 42.9435 25.7243 42.8391 25.6604C42.7347 25.5937 42.6071 25.5502 42.4562 25.5299C42.3054 25.5067 42.1503 25.4951 41.9907 25.4951C41.8022 25.4951 41.5803 25.5241 41.3251 25.5821C41.0699 25.6372 40.8146 25.7185 40.5594 25.8258H40.5115V24.9948C40.6624 24.9513 40.8784 24.9034 41.1598 24.8512C41.4411 24.799 41.7196 24.7729 41.9951 24.7729C42.3286 24.7729 42.61 24.799 42.8391 24.8512C43.0682 24.9034 43.2742 24.9977 43.4569 25.134C43.6338 25.2674 43.7658 25.44 43.8528 25.6517C43.9398 25.8635 43.9833 26.1216 43.9833 26.4262V29.75H43.1697V29.2323ZM53.8287 27.1919C53.8287 27.624 53.775 28.0069 53.6677 28.3404C53.5633 28.6711 53.4241 28.9437 53.2501 29.1583C53.0731 29.3758 52.873 29.5412 52.6497 29.6543C52.4263 29.7645 52.1929 29.8196 51.9492 29.8196C51.7665 29.8196 51.6055 29.7848 51.4663 29.7152C51.33 29.6456 51.214 29.5861 51.1183 29.5368V31.5424H50.3091V29.5368C50.1379 29.6267 50.0016 29.6963 49.9001 29.7456C49.7986 29.795 49.6318 29.8196 49.3998 29.8196C48.8545 29.8196 48.418 29.5992 48.0903 29.1583C47.7625 28.7146 47.5986 28.1069 47.5986 27.3354C47.5986 26.9294 47.6509 26.5668 47.7553 26.2478C47.8597 25.9287 48.0032 25.6575 48.186 25.4342C48.3542 25.2283 48.5485 25.0688 48.769 24.9557C48.9923 24.8396 49.2243 24.7816 49.465 24.7816C49.6362 24.7816 49.7899 24.8121 49.9262 24.873C50.0654 24.931 50.193 24.9977 50.3091 25.0731V22.9805H51.1183V25.0731C51.2459 24.9948 51.3924 24.9267 51.5577 24.8686C51.723 24.8106 51.8927 24.7816 52.0667 24.7816C52.612 24.7816 53.0412 25.0006 53.3545 25.4386C53.6706 25.8736 53.8287 26.4581 53.8287 27.1919ZM52.989 27.2832C52.989 26.7292 52.8948 26.2913 52.7062 25.9693C52.5206 25.6474 52.2451 25.4864 51.8796 25.4864C51.7288 25.4864 51.5954 25.5067 51.4794 25.5473C51.3663 25.585 51.2459 25.6271 51.1183 25.6735V28.9147C51.2459 28.9756 51.3488 29.0249 51.4272 29.0626C51.5084 29.1003 51.6258 29.1192 51.7796 29.1192C52.1566 29.1192 52.4524 28.964 52.6671 28.6537C52.8817 28.3433 52.989 27.8865 52.989 27.2832ZM50.3091 28.9147V25.6735C50.2046 25.6242 50.1002 25.5807 49.9958 25.543C49.8914 25.5053 49.7754 25.4864 49.6478 25.4864C49.2765 25.4864 48.9821 25.6329 48.7646 25.9258C48.5471 26.2188 48.4383 26.6756 48.4383 27.2963C48.4383 27.8618 48.5355 28.3071 48.7298 28.6319C48.927 28.9567 49.2084 29.1192 49.5738 29.1192C49.7188 29.1192 49.8493 29.0974 49.9654 29.0539C50.0814 29.0104 50.1959 28.964 50.3091 28.9147ZM57.4049 28.5536V27.2049C57.2105 27.2223 56.964 27.247 56.6653 27.2789C56.3694 27.3079 56.1301 27.3499 55.9474 27.405C55.7299 27.4717 55.5501 27.5747 55.4079 27.7139C55.2658 27.8502 55.1948 28.0417 55.1948 28.2882C55.1948 28.5666 55.2731 28.7769 55.4297 28.919C55.5863 29.0612 55.8155 29.1322 56.1171 29.1322C56.3752 29.1322 56.6087 29.0771 56.8175 28.9669C57.0264 28.8538 57.2221 28.716 57.4049 28.5536ZM57.4049 29.2323C57.3382 29.2816 57.2482 29.3512 57.1351 29.4411C57.0249 29.5281 56.9176 29.5977 56.8132 29.6499C56.6682 29.7253 56.5275 29.7834 56.3912 29.824C56.2578 29.8646 56.0692 29.8849 55.8256 29.8849C55.6255 29.8849 55.4355 29.8472 55.2557 29.7718C55.0759 29.6963 54.9178 29.5905 54.7815 29.4542C54.6509 29.3207 54.5465 29.1569 54.4682 28.9625C54.3899 28.7653 54.3508 28.5579 54.3508 28.3404C54.3508 28.004 54.4218 27.7183 54.5639 27.4833C54.7061 27.2455 54.9308 27.057 55.2383 26.9178C55.5109 26.7931 55.8329 26.7075 56.2041 26.6611C56.5754 26.6118 56.9756 26.5755 57.4049 26.5523V26.3957C57.4049 26.2043 57.3759 26.0506 57.3179 25.9345C57.2598 25.8156 57.1786 25.7243 57.0742 25.6604C56.9698 25.5937 56.8422 25.5502 56.6914 25.5299C56.5405 25.5067 56.3854 25.4951 56.2259 25.4951C56.0373 25.4951 55.8155 25.5241 55.5602 25.5821C55.305 25.6372 55.0497 25.7185 54.7945 25.8258H54.7467V24.9948C54.8975 24.9513 55.1136 24.9034 55.3949 24.8512C55.6762 24.799 55.9547 24.7729 56.2302 24.7729C56.5638 24.7729 56.8451 24.799 57.0742 24.8512C57.3034 24.9034 57.5093 24.9977 57.692 25.134C57.8689 25.2674 58.0009 25.44 58.0879 25.6517C58.1749 25.8635 58.2184 26.1216 58.2184 26.4262V29.75H57.4049V29.2323ZM63.2825 29.75H62.2645L60.5982 27.5094H60.1892V29.75H59.3713V24.8904H60.1892V27.0048C60.401 27.0019 60.5808 26.9584 60.7287 26.8743C60.8795 26.7873 61.0071 26.6205 61.1116 26.3739C61.1435 26.3014 61.1783 26.2173 61.216 26.1216C61.2566 26.0259 61.2885 25.9418 61.3117 25.8693C61.4393 25.5125 61.6162 25.2602 61.8425 25.1123C62.0687 24.9644 62.3631 24.8904 62.7256 24.8904H62.9475V25.5952H62.7604C62.5313 25.5952 62.3587 25.643 62.2427 25.7388C62.1296 25.8316 62.0339 26.0027 61.9556 26.2521C61.8744 26.5045 61.7787 26.7017 61.6684 26.8438C61.5582 26.983 61.4364 27.0903 61.303 27.1658L63.2825 29.75ZM65.919 29.8631C65.1446 29.8631 64.5427 29.6456 64.1135 29.2105C63.6871 28.7726 63.4739 28.1519 63.4739 27.3485C63.4739 26.5567 63.6813 25.9273 64.0961 25.4603C64.5108 24.9905 65.0532 24.7555 65.7232 24.7555C66.0248 24.7555 66.2917 24.799 66.5237 24.886C66.7557 24.9731 66.9588 25.1094 67.1328 25.295C67.3068 25.4806 67.4402 25.7083 67.533 25.978C67.6258 26.2449 67.6722 26.5726 67.6722 26.9613V27.405H64.3049C64.3049 27.9706 64.447 28.4028 64.7313 28.7015C65.0155 29.0002 65.4085 29.1496 65.9103 29.1496C66.0901 29.1496 66.2656 29.1293 66.4367 29.0887C66.6107 29.0481 66.7673 28.9959 66.9065 28.9321C67.0545 28.8654 67.1792 28.8016 67.2807 28.7407C67.3822 28.6769 67.4663 28.6174 67.533 28.5623H67.5809V29.4542C67.4852 29.4919 67.3663 29.5397 67.2241 29.5977C67.082 29.6528 66.9544 29.6963 66.8413 29.7282C66.6818 29.7718 66.5367 29.8051 66.4062 29.8283C66.2786 29.8515 66.1162 29.8631 65.919 29.8631ZM66.8761 26.7785C66.8703 26.5581 66.8442 26.3681 66.7978 26.2086C66.7514 26.0491 66.6847 25.9142 66.5977 25.804C66.5019 25.6822 66.3787 25.5894 66.2279 25.5256C66.0799 25.4618 65.8958 25.4299 65.6753 25.4299C65.4578 25.4299 65.2722 25.4632 65.1185 25.5299C64.9676 25.5937 64.8299 25.688 64.7051 25.8127C64.5833 25.9403 64.4905 26.0825 64.4267 26.2391C64.3629 26.3928 64.3223 26.5726 64.3049 26.7785H66.8761ZM72.2621 29.75H71.4442V25.5778H69.7736C69.7649 25.8185 69.7562 26.0506 69.7475 26.2739C69.7388 26.4943 69.7301 26.6944 69.7214 26.8743C69.704 27.3296 69.6735 27.711 69.63 28.0185C69.5894 28.3259 69.5372 28.5724 69.4734 28.7581C69.4096 28.9495 69.3385 29.0989 69.2602 29.2062C69.1848 29.3135 69.0992 29.4107 69.0035 29.4977C68.9049 29.5847 68.799 29.6499 68.6859 29.6934C68.5728 29.7369 68.4452 29.7587 68.3031 29.7587C68.2567 29.7587 68.1972 29.7573 68.1247 29.7544C68.0522 29.7515 68.0014 29.75 67.9724 29.75V29.0365H68.0159C68.0362 29.0365 68.0565 29.038 68.0768 29.0409C68.1001 29.0438 68.1262 29.0452 68.1552 29.0452C68.2248 29.0452 68.2929 29.0351 68.3596 29.0148C68.4263 28.9944 68.4858 28.9567 68.538 28.9016C68.683 28.7595 68.7889 28.5115 68.8556 28.1577C68.9223 27.8009 68.9702 27.3035 68.9992 26.6654C69.0108 26.4276 69.0209 26.1463 69.0296 25.8214C69.0412 25.4966 69.0514 25.1862 69.0601 24.8904H72.2621V29.75Z" fill="#606580"/>
<path d="M144.786 75.2082C144.433 75.2082 144.108 75.149 143.811 75.0306C143.516 74.9123 143.262 74.736 143.047 74.5017C142.832 74.2674 142.665 73.9751 142.547 73.6249C142.428 73.2747 142.369 72.8725 142.369 72.4184C142.369 71.9668 142.426 71.5731 142.539 71.2373C142.655 70.9016 142.823 70.6093 143.043 70.3605C143.258 70.119 143.513 69.9354 143.807 69.8098C144.102 69.6818 144.432 69.6178 144.797 69.6178C144.978 69.6178 145.147 69.6311 145.304 69.6577C145.463 69.6842 145.611 69.7181 145.746 69.7591C145.862 69.7953 145.98 69.8412 146.101 69.8968C146.224 69.9499 146.345 70.0091 146.463 70.0743V70.9402H146.405C146.342 70.8823 146.261 70.8122 146.162 70.7301C146.063 70.648 145.943 70.5671 145.8 70.4873C145.662 70.4125 145.513 70.3509 145.351 70.3026C145.189 70.2543 145.002 70.2301 144.789 70.2301C144.56 70.2301 144.342 70.2772 144.137 70.3714C143.932 70.4656 143.752 70.6045 143.597 70.7881C143.445 70.9716 143.327 71.2023 143.242 71.4801C143.158 71.7578 143.115 72.0706 143.115 72.4184C143.115 72.788 143.16 73.1068 143.25 73.3749C143.339 73.6406 143.461 73.8652 143.615 74.0488C143.765 74.2275 143.942 74.3628 144.144 74.4546C144.347 74.5439 144.562 74.5886 144.789 74.5886C144.997 74.5886 145.189 74.5633 145.365 74.5125C145.542 74.4618 145.699 74.3978 145.836 74.3205C145.969 74.2457 146.084 74.1696 146.181 74.0923C146.277 74.0126 146.353 73.9449 146.409 73.8894H146.463V74.7444C146.345 74.8 146.233 74.8531 146.126 74.9038C146.022 74.9546 145.896 75.0041 145.746 75.0524C145.589 75.1031 145.443 75.1418 145.307 75.1683C145.175 75.1949 145.001 75.2082 144.786 75.2082ZM149.949 71.6612C150.106 71.8206 150.228 72.0235 150.314 72.2699C150.401 72.5138 150.445 72.7976 150.445 73.1213C150.445 73.4329 150.395 73.7215 150.296 73.9872C150.197 74.2505 150.063 74.4727 149.894 74.6538C149.72 74.8422 149.527 74.9848 149.315 75.0814C149.104 75.1756 148.875 75.2227 148.626 75.2227C148.373 75.2227 148.139 75.1792 147.927 75.0922C147.717 75.0029 147.537 74.8664 147.387 74.6828C147.201 74.4534 147.061 74.1659 146.967 73.8205C146.875 73.4751 146.829 73.0476 146.829 72.538C146.829 72.3568 146.836 72.1733 146.851 71.9873C146.868 71.7989 146.903 71.5743 146.956 71.3134C147.004 71.0815 147.069 70.8666 147.152 70.6685C147.234 70.468 147.341 70.2989 147.474 70.1613C147.645 69.9825 147.869 69.84 148.144 69.7337C148.422 69.6275 148.789 69.5538 149.246 69.5127C149.407 69.4983 149.58 69.485 149.764 69.4729C149.95 69.4584 150.091 69.4475 150.188 69.4403V70.0671C150.062 70.0743 149.928 70.084 149.786 70.0961C149.643 70.1057 149.48 70.1178 149.296 70.1323C149.052 70.1516 148.798 70.1951 148.532 70.2627C148.266 70.3279 148.066 70.4306 147.931 70.5707C147.829 70.6745 147.748 70.8231 147.688 71.0163C147.627 71.2095 147.585 71.4245 147.561 71.6612C147.74 71.5332 147.931 71.4257 148.133 71.3388C148.339 71.2494 148.56 71.2047 148.796 71.2047C149.016 71.2047 149.225 71.2421 149.423 71.317C149.621 71.3895 149.796 71.5042 149.949 71.6612ZM149.753 73.1612C149.753 72.7312 149.656 72.4015 149.463 72.1721C149.27 71.9426 148.994 71.8279 148.637 71.8279C148.441 71.8279 148.252 71.8605 148.068 71.9257C147.885 71.9909 147.712 72.0779 147.55 72.1866C147.545 72.2469 147.54 72.3194 147.536 72.4039C147.531 72.4861 147.528 72.5609 147.528 72.6286C147.528 73.0488 147.562 73.3906 147.63 73.6539C147.697 73.9172 147.792 74.1237 147.912 74.2734C148.021 74.4087 148.136 74.5029 148.257 74.556C148.377 74.6067 148.509 74.6321 148.651 74.6321C148.999 74.6321 149.27 74.5005 149.463 74.2372C149.656 73.9739 149.753 73.6152 149.753 73.1612ZM154.553 72.98C154.553 73.6539 154.392 74.1913 154.068 74.5923C153.747 74.9908 153.34 75.1901 152.847 75.1901C152.647 75.1901 152.469 75.1671 152.314 75.1212C152.16 75.0753 152.002 75.0041 151.84 74.9075V76.603H151.159V71.0634H151.84V71.4873C152.009 71.3351 152.196 71.2083 152.401 71.1069C152.609 71.003 152.835 70.9511 153.079 70.9511C153.543 70.9511 153.904 71.1347 154.162 71.5018C154.423 71.8689 154.553 72.3617 154.553 72.98ZM153.851 73.0561C153.851 72.5947 153.777 72.2373 153.63 71.9837C153.482 71.7276 153.243 71.5996 152.912 71.5996C152.719 71.5996 152.532 71.6431 152.351 71.73C152.172 71.8146 152.002 71.9245 151.84 72.0597V74.3531C152.019 74.4401 152.171 74.4993 152.296 74.5307C152.424 74.5621 152.57 74.5778 152.735 74.5778C153.087 74.5778 153.361 74.4485 153.557 74.1901C153.753 73.9317 153.851 73.5536 153.851 73.0561ZM158.59 73.0887C158.59 73.7698 158.425 74.2964 158.097 74.6683C157.768 75.0379 157.331 75.2227 156.785 75.2227C156.222 75.2227 155.779 75.0319 155.456 74.6502C155.134 74.2662 154.974 73.7457 154.974 73.0887C154.974 72.4124 155.139 71.887 155.47 71.5127C155.803 71.1383 156.242 70.9511 156.785 70.9511C157.331 70.9511 157.768 71.1383 158.097 71.5127C158.425 71.8846 158.59 72.41 158.59 73.0887ZM157.887 73.0887C157.887 72.5646 157.791 72.1757 157.6 71.9221C157.41 71.666 157.138 71.538 156.785 71.538C156.43 71.538 156.156 71.666 155.963 71.9221C155.772 72.1757 155.677 72.5646 155.677 73.0887C155.677 73.5959 155.772 73.9812 155.963 74.2444C156.156 74.5053 156.43 74.6357 156.785 74.6357C157.135 74.6357 157.406 74.5077 157.597 74.2517C157.79 73.9932 157.887 73.6056 157.887 73.0887ZM160.897 75.2009C160.62 75.2009 160.365 75.1587 160.133 75.0741C159.901 74.9872 159.702 74.8567 159.535 74.6828C159.368 74.5089 159.239 74.2903 159.147 74.0271C159.056 73.7614 159.01 73.4498 159.01 73.0923C159.01 72.7373 159.057 72.4305 159.151 72.1721C159.248 71.9136 159.376 71.6962 159.535 71.5199C159.695 71.3436 159.893 71.2083 160.129 71.1141C160.368 71.0175 160.624 70.9692 160.897 70.9692C161.12 70.9692 161.333 71.0006 161.539 71.0634C161.746 71.1262 161.931 71.1987 162.093 71.2808V72.0453H162.053C162.005 72.0042 161.942 71.9571 161.865 71.904C161.79 71.8508 161.698 71.7965 161.589 71.7409C161.495 71.6926 161.384 71.6503 161.256 71.6141C161.128 71.5779 161.005 71.5598 160.887 71.5598C160.534 71.5598 160.25 71.6938 160.035 71.9619C159.823 72.2276 159.716 72.6044 159.716 73.0923C159.716 73.5706 159.819 73.9437 160.024 74.2118C160.232 74.4775 160.519 74.6104 160.887 74.6104C161.109 74.6104 161.32 74.5645 161.521 74.4727C161.721 74.3809 161.899 74.2626 162.053 74.1176H162.093V74.8821C162.025 74.9135 161.941 74.9521 161.839 74.998C161.738 75.0415 161.646 75.0741 161.564 75.0959C161.448 75.1297 161.344 75.155 161.252 75.1719C161.161 75.1913 161.042 75.2009 160.897 75.2009ZM168.23 75.1104H167.549V71.6503H165.716V75.1104H165.035V71.0634H168.23V75.1104ZM172.611 72.98C172.611 73.6539 172.449 74.1913 172.125 74.5923C171.804 74.9908 171.397 75.1901 170.904 75.1901C170.704 75.1901 170.526 75.1671 170.372 75.1212C170.217 75.0753 170.059 75.0041 169.897 74.9075V76.603H169.216V71.0634H169.897V71.4873C170.066 71.3351 170.253 71.2083 170.459 71.1069C170.666 71.003 170.892 70.9511 171.136 70.9511C171.6 70.9511 171.961 71.1347 172.219 71.5018C172.48 71.8689 172.611 72.3617 172.611 72.98ZM171.908 73.0561C171.908 72.5947 171.834 72.2373 171.687 71.9837C171.539 71.7276 171.3 71.5996 170.969 71.5996C170.776 71.5996 170.589 71.6431 170.408 71.73C170.229 71.8146 170.059 71.9245 169.897 72.0597V74.3531C170.076 74.4401 170.228 74.4993 170.354 74.5307C170.482 74.5621 170.628 74.5778 170.792 74.5778C171.145 74.5778 171.419 74.4485 171.614 74.1901C171.81 73.9317 171.908 73.5536 171.908 73.0561ZM176.647 73.0887C176.647 73.7698 176.483 74.2964 176.154 74.6683C175.826 75.0379 175.388 75.2227 174.842 75.2227C174.28 75.2227 173.836 75.0319 173.513 74.6502C173.192 74.2662 173.031 73.7457 173.031 73.0887C173.031 72.4124 173.196 71.887 173.527 71.5127C173.861 71.1383 174.299 70.9511 174.842 70.9511C175.388 70.9511 175.826 71.1383 176.154 71.5127C176.483 71.8846 176.647 72.41 176.647 73.0887ZM175.944 73.0887C175.944 72.5646 175.848 72.1757 175.658 71.9221C175.467 71.666 175.195 71.538 174.842 71.538C174.487 71.538 174.213 71.666 174.02 71.9221C173.829 72.1757 173.734 72.5646 173.734 73.0887C173.734 73.5959 173.829 73.9812 174.02 74.2444C174.213 74.5053 174.487 74.6357 174.842 74.6357C175.193 74.6357 175.463 74.5077 175.654 74.2517C175.847 73.9932 175.944 73.6056 175.944 73.0887ZM180.542 75.1104H179.868V72.0924L177.962 75.1104H177.346V71.0634H178.02V74.0343L179.904 71.0634H180.542V75.1104ZM184.208 73.9908C184.208 74.2179 184.159 74.4099 184.06 74.5669C183.96 74.7239 183.834 74.8483 183.679 74.9401C183.532 75.0294 183.364 75.0959 183.176 75.1393C182.987 75.1828 182.799 75.2046 182.61 75.2046C182.345 75.2046 182.093 75.178 181.857 75.1248C181.62 75.0741 181.385 74.992 181.15 74.8785V74.1249H181.194C181.358 74.2771 181.563 74.3978 181.81 74.4872C182.058 74.5741 182.306 74.6176 182.552 74.6176C182.659 74.6176 182.772 74.6067 182.893 74.585C183.016 74.5609 183.12 74.5246 183.204 74.4763C183.316 74.4087 183.394 74.3362 183.44 74.2589C183.488 74.1816 183.512 74.0754 183.512 73.9401C183.512 73.7952 183.485 73.6792 183.429 73.5923C183.376 73.5029 183.302 73.4365 183.208 73.393C183.114 73.3496 183.008 73.323 182.889 73.3133C182.773 73.3012 182.65 73.2952 182.52 73.2952H182.041V72.7083H182.407C182.499 72.7083 182.614 72.7059 182.752 72.701C182.889 72.6938 182.999 72.6745 183.081 72.6431C183.185 72.6044 183.268 72.5501 183.331 72.48C183.394 72.4076 183.425 72.2868 183.425 72.1177C183.425 71.9994 183.399 71.904 183.346 71.8315C183.293 71.759 183.226 71.7023 183.147 71.6612C183.064 71.6177 182.975 71.5887 182.878 71.5743C182.782 71.5574 182.689 71.5489 182.599 71.5489C182.37 71.5489 182.149 71.5815 181.936 71.6467C181.726 71.7095 181.545 71.8037 181.393 71.9293H181.349V71.1938C181.523 71.1335 181.715 71.0803 181.926 71.0344C182.138 70.9885 182.351 70.9656 182.563 70.9656C182.735 70.9656 182.909 70.9837 183.085 71.0199C183.264 71.0537 183.433 71.1129 183.592 71.1975C183.742 71.2796 183.868 71.3931 183.969 71.538C184.07 71.6805 184.121 71.8556 184.121 72.0634C184.121 72.2832 184.058 72.4764 183.933 72.6431C183.81 72.8073 183.645 72.916 183.44 72.9691V72.9945C183.665 73.0718 183.848 73.1901 183.991 73.3496C184.136 73.509 184.208 73.7227 184.208 73.9908ZM188.255 73.0887C188.255 73.7698 188.091 74.2964 187.762 74.6683C187.434 75.0379 186.997 75.2227 186.451 75.2227C185.888 75.2227 185.445 75.0319 185.121 74.6502C184.8 74.2662 184.639 73.7457 184.639 73.0887C184.639 72.4124 184.805 71.887 185.136 71.5127C185.469 71.1383 185.907 70.9511 186.451 70.9511C186.997 70.9511 187.434 71.1383 187.762 71.5127C188.091 71.8846 188.255 72.41 188.255 73.0887ZM187.552 73.0887C187.552 72.5646 187.457 72.1757 187.266 71.9221C187.075 71.666 186.803 71.538 186.451 71.538C186.096 71.538 185.822 71.666 185.628 71.9221C185.437 72.1757 185.342 72.5646 185.342 73.0887C185.342 73.5959 185.437 73.9812 185.628 74.2444C185.822 74.5053 186.096 74.6357 186.451 74.6357C186.801 74.6357 187.071 74.5077 187.262 74.2517C187.456 73.9932 187.552 73.6056 187.552 73.0887ZM192.15 75.1104H191.476V72.0924L189.57 75.1104H188.954V71.0634H189.628V74.0343L191.512 71.0634H192.15V75.1104ZM191.845 69.183C191.845 69.3908 191.82 69.5804 191.769 69.7519C191.719 69.9209 191.646 70.0634 191.552 70.1794C191.443 70.3074 191.32 70.404 191.182 70.4692C191.045 70.532 190.868 70.5634 190.653 70.5634C190.455 70.5634 190.282 70.5308 190.132 70.4656C189.984 70.398 189.86 70.3026 189.759 70.1794C189.66 70.0586 189.585 69.9137 189.534 69.7446C189.483 69.5755 189.458 69.3884 189.458 69.183H190.045C190.045 69.5091 190.096 69.7446 190.197 69.8895C190.298 70.032 190.451 70.1033 190.653 70.1033C190.844 70.1033 190.993 70.0333 191.099 69.8932C191.205 69.7507 191.259 69.514 191.259 69.183H191.845ZM196.606 76.0813H195.972V75.0995H193.306V76.0813H192.672V74.5307H192.94C193.169 74.1539 193.356 73.6623 193.501 73.0561C193.649 72.4474 193.722 71.7832 193.722 71.0634H196.204V74.5307H196.606V76.0813ZM195.523 74.5307V71.6358H194.363C194.332 72.2397 194.249 72.7916 194.113 73.2916C193.981 73.7891 193.813 74.2022 193.61 74.5307H195.523ZM199.037 75.2046C198.392 75.2046 197.891 75.0234 197.534 74.6611C197.179 74.2964 197.001 73.7795 197.001 73.1104C197.001 72.451 197.174 71.9269 197.519 71.538C197.865 71.1467 198.316 70.9511 198.874 70.9511C199.125 70.9511 199.348 70.9873 199.541 71.0598C199.734 71.1322 199.903 71.2458 200.048 71.4004C200.193 71.5549 200.304 71.7445 200.381 71.9692C200.459 72.1914 200.497 72.4643 200.497 72.788V73.1575H197.693C197.693 73.6285 197.811 73.9884 198.048 74.2372C198.285 74.486 198.612 74.6104 199.03 74.6104C199.18 74.6104 199.326 74.5935 199.468 74.5596C199.613 74.5258 199.744 74.4824 199.86 74.4292C199.983 74.3737 200.087 74.3205 200.171 74.2698C200.256 74.2167 200.326 74.1672 200.381 74.1213H200.421V74.864C200.341 74.8954 200.242 74.9352 200.124 74.9835C200.006 75.0294 199.899 75.0657 199.805 75.0922C199.672 75.1285 199.552 75.1562 199.443 75.1756C199.337 75.1949 199.201 75.2046 199.037 75.2046ZM199.834 72.6358C199.829 72.4522 199.808 72.294 199.769 72.1612C199.73 72.0283 199.675 71.916 199.602 71.8242C199.523 71.7228 199.42 71.6455 199.294 71.5924C199.171 71.5392 199.018 71.5127 198.834 71.5127C198.653 71.5127 198.499 71.5404 198.371 71.596C198.245 71.6491 198.13 71.7276 198.026 71.8315C197.925 71.9378 197.848 72.0561 197.794 72.1866C197.741 72.3146 197.708 72.4643 197.693 72.6358H199.834ZM204.142 71.6612H202.765V75.1104H202.084V71.6612H200.707V71.0634H204.142V71.6612ZM210.011 75.1104H209.33V73.5307C209.118 73.6007 208.911 73.6551 208.711 73.6937C208.51 73.7324 208.312 73.7517 208.117 73.7517C207.945 73.7517 207.777 73.73 207.613 73.6865C207.451 73.6406 207.311 73.5669 207.193 73.4655C207.074 73.364 206.983 73.2348 206.917 73.0778C206.855 72.9184 206.823 72.7312 206.823 72.5162V71.0634H207.504V72.1612C207.504 72.3399 207.512 72.4824 207.526 72.5887C207.54 72.6926 207.58 72.794 207.646 72.893C207.701 72.9776 207.784 73.0428 207.896 73.0887C208.009 73.1346 208.158 73.1575 208.341 73.1575C208.501 73.1575 208.671 73.1418 208.852 73.1104C209.036 73.079 209.195 73.0416 209.33 72.9981V71.0634H210.011V75.1104ZM212.754 75.2046C212.109 75.2046 211.608 75.0234 211.25 74.6611C210.895 74.2964 210.718 73.7795 210.718 73.1104C210.718 72.451 210.891 71.9269 211.236 71.538C211.581 71.1467 212.033 70.9511 212.591 70.9511C212.842 70.9511 213.064 70.9873 213.258 71.0598C213.451 71.1322 213.62 71.2458 213.765 71.4004C213.91 71.5549 214.021 71.7445 214.098 71.9692C214.175 72.1914 214.214 72.4643 214.214 72.788V73.1575H211.41C211.41 73.6285 211.528 73.9884 211.765 74.2372C212.002 74.486 212.329 74.6104 212.747 74.6104C212.897 74.6104 213.043 74.5935 213.185 74.5596C213.33 74.5258 213.461 74.4824 213.576 74.4292C213.7 74.3737 213.804 74.3205 213.888 74.2698C213.973 74.2167 214.043 74.1672 214.098 74.1213H214.138V74.864C214.058 74.8954 213.959 74.9352 213.841 74.9835C213.723 75.0294 213.616 75.0657 213.522 75.0922C213.389 75.1285 213.269 75.1562 213.16 75.1756C213.054 75.1949 212.918 75.2046 212.754 75.2046ZM213.551 72.6358C213.546 72.4522 213.525 72.294 213.486 72.1612C213.447 72.0283 213.392 71.916 213.319 71.8242C213.24 71.7228 213.137 71.6455 213.011 71.5924C212.888 71.5392 212.735 71.5127 212.551 71.5127C212.37 71.5127 212.215 71.5404 212.087 71.596C211.962 71.6491 211.847 71.7276 211.743 71.8315C211.642 71.9378 211.564 72.0561 211.511 72.1866C211.458 72.3146 211.424 72.4643 211.41 72.6358H213.551ZM218.297 72.98C218.297 73.6539 218.135 74.1913 217.812 74.5923C217.491 74.9908 217.084 75.1901 216.591 75.1901C216.39 75.1901 216.213 75.1671 216.058 75.1212C215.904 75.0753 215.745 75.0041 215.584 74.9075V76.603H214.903V71.0634H215.584V71.4873C215.753 71.3351 215.94 71.2083 216.145 71.1069C216.353 71.003 216.579 70.9511 216.823 70.9511C217.286 70.9511 217.648 71.1347 217.906 71.5018C218.167 71.8689 218.297 72.3617 218.297 72.98ZM217.594 73.0561C217.594 72.5947 217.521 72.2373 217.373 71.9837C217.226 71.7276 216.987 71.5996 216.656 71.5996C216.463 71.5996 216.276 71.6431 216.095 71.73C215.916 71.8146 215.745 71.9245 215.584 72.0597V74.3531C215.762 74.4401 215.915 74.4993 216.04 74.5307C216.168 74.5621 216.314 74.5778 216.479 74.5778C216.831 74.5778 217.105 74.4485 217.301 74.1901C217.497 73.9317 217.594 73.5536 217.594 73.0561ZM220.761 75.2046C220.116 75.2046 219.615 75.0234 219.257 74.6611C218.902 74.2964 218.725 73.7795 218.725 73.1104C218.725 72.451 218.898 71.9269 219.243 71.538C219.588 71.1467 220.04 70.9511 220.598 70.9511C220.849 70.9511 221.071 70.9873 221.265 71.0598C221.458 71.1322 221.627 71.2458 221.772 71.4004C221.917 71.5549 222.028 71.7445 222.105 71.9692C222.182 72.1914 222.221 72.4643 222.221 72.788V73.1575H219.417C219.417 73.6285 219.535 73.9884 219.772 74.2372C220.009 74.486 220.336 74.6104 220.754 74.6104C220.903 74.6104 221.05 74.5935 221.192 74.5596C221.337 74.5258 221.467 74.4824 221.583 74.4292C221.707 74.3737 221.81 74.3205 221.895 74.2698C221.98 74.2167 222.05 74.1672 222.105 74.1213H222.145V74.864C222.065 74.8954 221.966 74.9352 221.848 74.9835C221.73 75.0294 221.623 75.0657 221.529 75.0922C221.396 75.1285 221.275 75.1562 221.167 75.1756C221.06 75.1949 220.925 75.2046 220.761 75.2046ZM221.558 72.6358C221.553 72.4522 221.531 72.294 221.493 72.1612C221.454 72.0283 221.399 71.916 221.326 71.8242C221.246 71.7228 221.144 71.6455 221.018 71.5924C220.895 71.5392 220.742 71.5127 220.558 71.5127C220.377 71.5127 220.222 71.5404 220.094 71.596C219.969 71.6491 219.854 71.7276 219.75 71.8315C219.649 71.9378 219.571 72.0561 219.518 72.1866C219.465 72.3146 219.431 72.4643 219.417 72.6358H221.558ZM225.591 73.9908C225.591 74.2179 225.541 74.4099 225.442 74.5669C225.343 74.7239 225.216 74.8483 225.062 74.9401C224.914 75.0294 224.746 75.0959 224.558 75.1393C224.37 75.1828 224.181 75.2046 223.993 75.2046C223.727 75.2046 223.476 75.178 223.239 75.1248C223.002 75.0741 222.767 74.992 222.533 74.8785V74.1249H222.576C222.74 74.2771 222.946 74.3978 223.192 74.4872C223.441 74.5741 223.688 74.6176 223.935 74.6176C224.041 74.6176 224.155 74.6067 224.275 74.585C224.399 74.5609 224.502 74.5246 224.587 74.4763C224.698 74.4087 224.777 74.3362 224.822 74.2589C224.871 74.1816 224.895 74.0754 224.895 73.9401C224.895 73.7952 224.867 73.6792 224.812 73.5923C224.758 73.5029 224.685 73.4365 224.591 73.393C224.496 73.3496 224.39 73.323 224.272 73.3133C224.156 73.3012 224.033 73.2952 223.902 73.2952H223.424V72.7083H223.79C223.882 72.7083 223.996 72.7059 224.134 72.701C224.272 72.6938 224.382 72.6745 224.464 72.6431C224.568 72.6044 224.651 72.5501 224.714 72.48C224.777 72.4076 224.808 72.2868 224.808 72.1177C224.808 71.9994 224.781 71.904 224.728 71.8315C224.675 71.759 224.609 71.7023 224.529 71.6612C224.447 71.6177 224.357 71.5887 224.261 71.5743C224.164 71.5574 224.071 71.5489 223.982 71.5489C223.752 71.5489 223.531 71.5815 223.319 71.6467C223.109 71.7095 222.928 71.8037 222.775 71.9293H222.732V71.1938C222.906 71.1335 223.098 71.0803 223.308 71.0344C223.521 70.9885 223.733 70.9656 223.946 70.9656C224.117 70.9656 224.291 70.9837 224.467 71.0199C224.646 71.0537 224.815 71.1129 224.975 71.1975C225.124 71.2796 225.25 71.3931 225.351 71.538C225.453 71.6805 225.504 71.8556 225.504 72.0634C225.504 72.2832 225.441 72.4764 225.315 72.6431C225.192 72.8073 225.028 72.916 224.822 72.9691V72.9945C225.047 73.0718 225.231 73.1901 225.373 73.3496C225.518 73.509 225.591 73.7227 225.591 73.9908ZM227.561 72.096H226.696V71.0634H227.561V72.096ZM227.561 75.1104H226.696V74.0778H227.561V75.1104Z" fill="#8C99B2"/>
<path d="M248.256 70.9363C248.257 72.8734 247.976 74.2962 247.411 75.2048C246.851 76.1085 245.985 76.5608 244.811 76.5616C243.622 76.5625 242.75 76.1017 242.194 75.1795C241.638 74.2572 241.359 72.8492 241.358 70.9556C241.356 69.0088 241.636 67.5859 242.195 66.687C242.76 65.7833 243.629 65.331 244.803 65.3302C245.991 65.3294 246.864 65.7949 247.42 66.7269C247.976 67.6588 248.255 69.0619 248.256 70.9363ZM246.403 74.2273C246.543 73.8697 246.642 73.418 246.699 72.8721C246.757 72.3261 246.786 71.6812 246.785 70.9373C246.785 70.1982 246.755 69.5557 246.697 69.0099C246.638 68.4641 246.537 68.01 246.392 67.6478C246.246 67.2808 246.046 67.0032 245.789 66.815C245.538 66.6219 245.21 66.5255 244.804 66.5258C244.403 66.5261 244.072 66.6229 243.811 66.8163C243.555 67.0049 243.353 67.2877 243.203 67.6646C243.059 68.0318 242.96 68.4956 242.907 69.056C242.854 69.6164 242.828 70.2493 242.829 70.9545C242.829 71.7081 242.851 72.3385 242.895 72.8457C242.944 73.3529 243.046 73.8069 243.201 74.2078C243.341 74.5797 243.539 74.8669 243.795 75.0697C244.056 75.2675 244.395 75.3663 244.81 75.366C245.211 75.3658 245.539 75.2713 245.795 75.0828C246.056 74.8893 246.259 74.6042 246.403 74.2273ZM256.357 70.9306C256.359 72.8677 256.077 74.2906 255.512 75.1992C254.953 76.1029 254.086 76.5552 252.912 76.556C251.724 76.5568 250.851 76.0961 250.295 75.1738C249.739 74.2515 249.46 72.8436 249.459 70.9499C249.458 69.0031 249.737 67.5803 250.296 66.6814C250.861 65.7776 251.73 65.3254 252.904 65.3245C254.092 65.3237 254.965 65.7893 255.521 66.7212C256.077 67.6532 256.356 69.0563 256.357 70.9306ZM254.504 74.2216C254.644 73.8641 254.743 73.4123 254.801 72.8664C254.858 72.3205 254.887 71.6756 254.886 70.9316C254.886 70.1925 254.856 69.5501 254.798 69.0042C254.74 68.4584 254.638 68.0044 254.493 67.6422C254.347 67.2752 254.147 66.9975 253.891 66.8093C253.639 66.6162 253.311 66.5199 252.905 66.5201C252.504 66.5204 252.173 66.6173 251.912 66.8107C251.657 66.9993 251.454 67.282 251.304 67.6589C251.16 68.0261 251.061 68.49 251.008 69.0504C250.955 69.6108 250.929 70.2436 250.93 70.9489C250.93 71.7025 250.953 72.3329 250.996 72.8401C251.045 73.3473 251.147 73.8013 251.302 74.2021C251.442 74.574 251.64 74.8613 251.896 75.064C252.157 75.2619 252.496 75.3607 252.911 75.3604C253.312 75.3601 253.64 75.2657 253.896 75.0771C254.157 74.8837 254.36 74.5985 254.504 74.2216ZM265.088 70.2941L263.356 70.2953L263.355 68.2302L265.087 68.229L265.088 70.2941ZM265.092 76.3229L263.361 76.3241L263.359 74.2589L265.091 74.2577L265.092 76.3229ZM278.382 76.3136L273.121 76.3172L273.12 75.2158L275.077 75.2145L275.072 67.9829L273.115 67.9842L273.115 66.9988C273.854 66.9983 274.397 66.894 274.745 66.6861C275.097 66.4733 275.295 66.0746 275.338 65.49L276.461 65.4892L276.468 75.2135L278.381 75.2122L278.382 76.3136ZM287.034 76.3075L280.374 76.3122L280.373 74.7978C280.851 74.3433 281.303 73.9082 281.728 73.4925C282.152 73.0768 282.567 72.6441 282.973 72.1946C283.794 71.2907 284.353 70.5681 284.653 70.0268C284.952 69.4808 285.101 68.9179 285.101 68.3382C285.1 68.0387 285.052 67.7754 284.955 67.5485C284.863 67.3215 284.735 67.1332 284.571 66.9835C284.402 66.8387 284.206 66.7302 283.984 66.6579C283.761 66.5856 283.517 66.5495 283.252 66.5497C282.996 66.5499 282.735 66.5839 282.469 66.6517C282.208 66.7147 281.957 66.7945 281.716 66.8913C281.513 66.9736 281.317 67.0728 281.129 67.1888C280.941 67.3049 280.789 67.404 280.673 67.4862L280.593 67.4863L280.592 65.9501C280.891 65.8002 281.307 65.6549 281.838 65.5145C282.374 65.3692 282.881 65.2964 283.359 65.296C284.364 65.2953 285.152 65.5629 285.722 66.0987C286.293 66.6297 286.578 67.3517 286.579 68.2647C286.579 68.685 286.529 69.0739 286.427 69.4314C286.331 69.789 286.196 70.12 286.022 70.4244C285.844 70.7385 285.629 71.0503 285.378 71.3596C285.127 71.6689 284.862 71.9735 284.582 72.2732C284.128 72.7662 283.621 73.2786 283.061 73.8104C282.506 74.3422 282.062 74.7628 281.729 75.0722L287.033 75.0685L287.034 76.3075ZM295.812 70.2727L294.08 70.2739L294.078 68.2087L295.81 68.2075L295.812 70.2727ZM295.816 76.3014L294.084 76.3026L294.083 74.2375L295.814 74.2363L295.816 76.3014ZM309.105 76.2921L303.845 76.2958L303.844 75.1944L305.8 75.193L305.795 67.9614L303.839 67.9628L303.838 66.9773C304.577 66.9768 305.121 66.8726 305.468 66.6646C305.821 66.4518 306.019 66.0531 306.062 65.4686L307.185 65.4678L307.192 75.1921L309.104 75.1907L309.105 76.2921ZM317.921 72.7861C317.922 73.3416 317.83 73.8538 317.647 74.3225C317.464 74.7912 317.218 75.1826 316.909 75.4969C316.585 75.8304 316.223 76.0843 315.822 76.2585C315.422 76.4278 314.98 76.5127 314.496 76.513C314.009 76.5133 313.564 76.4315 313.163 76.2676C312.767 76.1036 312.416 75.8599 312.112 75.5364C311.74 75.1454 311.447 74.6239 311.234 73.9719C311.026 73.3151 310.921 72.5084 310.921 71.5519C310.92 70.6148 311.016 69.7693 311.209 69.0156C311.401 68.257 311.698 67.5974 312.099 67.0368C312.49 66.4906 312.994 66.0652 313.612 65.7604C314.23 65.4508 314.945 65.2957 315.757 65.2952C315.998 65.295 316.223 65.3069 316.431 65.3309C316.638 65.3549 316.822 65.3934 316.981 65.4465L316.982 66.8305L316.917 66.8305C316.787 66.7581 316.598 66.6931 316.352 66.6353C316.105 66.5726 315.842 66.5414 315.562 66.5416C314.663 66.5422 313.937 66.8471 313.382 67.4562C312.831 68.0604 312.506 68.9591 312.405 70.1524C312.748 69.9106 313.101 69.7244 313.463 69.5937C313.825 69.463 314.221 69.3975 314.651 69.3972C315.071 69.3969 315.438 69.4401 315.752 69.5269C316.071 69.6088 316.402 69.7776 316.746 70.0334C317.142 70.3326 317.437 70.7116 317.63 71.1704C317.824 71.6292 317.921 72.1678 317.921 72.7861ZM316.45 72.8451C316.45 72.4007 316.392 72.0288 316.276 71.7293C316.16 71.4299 315.971 71.174 315.71 70.9616C315.521 70.8072 315.306 70.7059 315.065 70.6577C314.828 70.6096 314.584 70.5856 314.333 70.5858C313.995 70.586 313.666 70.637 313.348 70.7387C313.029 70.8403 312.715 70.9879 312.406 71.1813C312.396 71.2876 312.389 71.3915 312.384 71.4929C312.38 71.5895 312.377 71.7127 312.377 71.8625C312.378 72.6112 312.451 73.215 312.596 73.6738C312.746 74.1327 312.93 74.4803 313.147 74.7169C313.355 74.9438 313.568 75.1031 313.785 75.1947C314.008 75.2863 314.247 75.3321 314.503 75.3319C315.083 75.3315 315.551 75.1234 315.908 74.7077C316.27 74.292 316.451 73.6712 316.45 72.8451Z" fill="#303549"/>
<path d="M317.16 92.9996H7.63L5.91 91.2796V85.2796L7.63 83.5596H317.16L318.88 85.2796V91.2796L317.16 92.9996Z" fill="white" fill-opacity="0.5" stroke="#8C99B2" stroke-width="0.34" stroke-miterlimit="10"/>
<path d="M85.18 93.0098H83.66V96.6198H85.18V93.0098Z" fill="#8C99B2"/>
<path d="M162.93 93.0098H161.41V96.6198H162.93V93.0098Z" fill="#8C99B2"/>
<path d="M240.6 93.0098H239.23V96.6198H240.6V93.0098Z" fill="#8C99B2"/>
<path opacity="0.3" d="M314.54 86H160.73V90.35H314.54V86Z" fill="#A2E2FF"/>
<path d="M283.47 90.52H8.37L6.54 88.7V87.82L8.37 86H283.47L285.29 87.82V88.7L283.47 90.52Z" fill="#A2E2FF"/>
<path d="M11.119 76.3772C10.6955 76.3772 10.3054 76.3062 9.94867 76.1641C9.59482 76.0219 9.28883 75.8102 9.0307 75.5289C8.77256 75.2475 8.57244 74.8966 8.43032 74.476C8.2882 74.0555 8.21714 73.5726 8.21714 73.0273C8.21714 72.4849 8.2853 72.0121 8.42162 71.609C8.56084 71.2058 8.76241 70.8549 9.02635 70.5561C9.28448 70.2661 9.59047 70.0457 9.94432 69.8949C10.2982 69.7411 10.6941 69.6643 11.132 69.6643C11.3496 69.6643 11.5526 69.6802 11.7411 69.7121C11.9325 69.744 12.1095 69.7846 12.2719 69.834C12.4111 69.8775 12.5532 69.9326 12.6982 69.9993C12.8462 70.0631 12.9912 70.1341 13.1333 70.2125V71.2522H13.0637C12.9883 71.1826 12.8911 71.0985 12.7722 70.9999C12.6533 70.9013 12.5083 70.8041 12.3371 70.7084C12.1718 70.6185 11.992 70.5445 11.7977 70.4865C11.6033 70.4285 11.3786 70.3995 11.1233 70.3995C10.8478 70.3995 10.5868 70.4561 10.3402 70.5692C10.0937 70.6823 9.87761 70.8491 9.69199 71.0695C9.50926 71.2899 9.36714 71.5669 9.26563 71.9005C9.16412 72.234 9.11336 72.6096 9.11336 73.0273C9.11336 73.471 9.16702 73.8539 9.27433 74.1758C9.38165 74.4949 9.52812 74.7646 9.71374 74.985C9.89356 75.1997 10.1053 75.3621 10.3489 75.4723C10.5926 75.5796 10.8507 75.6333 11.1233 75.6333C11.3728 75.6333 11.6033 75.6028 11.8151 75.5419C12.0268 75.481 12.2153 75.4042 12.3806 75.3113C12.5402 75.2214 12.6779 75.1301 12.794 75.0373C12.91 74.9415 13.0013 74.8603 13.068 74.7936H13.1333V75.8204C12.9912 75.8871 12.8563 75.9509 12.7287 76.0118C12.604 76.0727 12.4517 76.1321 12.2719 76.1902C12.0834 76.2511 11.9079 76.2975 11.7455 76.3294C11.5859 76.3613 11.3771 76.3772 11.119 76.3772ZM17.423 72.118H15.7698V76.2598H14.9518V72.118H13.2986V71.4002H17.423V72.118ZM22.0302 73.8321C22.0302 74.65 21.833 75.2823 21.4386 75.729C21.0441 76.1728 20.5191 76.3946 19.8637 76.3946C19.1879 76.3946 18.6556 76.1655 18.267 75.7072C17.8812 75.2461 17.6884 74.621 17.6884 73.8321C17.6884 73.02 17.887 72.3892 18.2844 71.9396C18.6846 71.4901 19.2111 71.2653 19.8637 71.2653C20.5191 71.2653 21.0441 71.4901 21.4386 71.9396C21.833 72.3863 22.0302 73.0171 22.0302 73.8321ZM21.1862 73.8321C21.1862 73.2028 21.0717 72.7358 20.8425 72.4313C20.6134 72.1238 20.2871 71.9701 19.8637 71.9701C19.4373 71.9701 19.1081 72.1238 18.8761 72.4313C18.6469 72.7358 18.5324 73.2028 18.5324 73.8321C18.5324 74.4412 18.6469 74.9038 18.8761 75.22C19.1081 75.5332 19.4373 75.6898 19.8637 75.6898C20.2842 75.6898 20.6091 75.5361 20.8382 75.2287C21.0702 74.9183 21.1862 74.4528 21.1862 73.8321ZM26.5244 76.2598H25.7065V74.3629C25.4513 74.447 25.2033 74.5123 24.9625 74.5587C24.7218 74.6051 24.484 74.6283 24.249 74.6283C24.0431 74.6283 23.8415 74.6022 23.6443 74.55C23.45 74.4949 23.2818 74.4064 23.1396 74.2846C22.9975 74.1628 22.8873 74.0076 22.809 73.8191C22.7336 73.6277 22.6959 73.4029 22.6959 73.1447V71.4002H23.5138V72.7184C23.5138 72.933 23.5225 73.1041 23.5399 73.2318C23.5573 73.3565 23.6052 73.4783 23.6835 73.5972C23.7502 73.6987 23.8502 73.777 23.9837 73.8321C24.12 73.8872 24.2984 73.9148 24.5188 73.9148C24.7102 73.9148 24.9147 73.8959 25.1322 73.8582C25.3526 73.8205 25.5441 73.7756 25.7065 73.7234V71.4002H26.5244V76.2598ZM31.545 76.2598H30.7271V74.0714H28.5257V76.2598H27.7078V71.4002H28.5257V73.3666H30.7271V71.4002H31.545V76.2598ZM36.335 74.7545C36.335 74.9894 36.2871 75.2026 36.1914 75.394C36.0986 75.5854 35.971 75.7406 35.8086 75.8595C35.6171 76.0045 35.4127 76.1075 35.1951 76.1684C34.9776 76.2293 34.6977 76.2598 34.3555 76.2598H32.7283V71.4002H33.5462V73.2927H34.3772C34.7427 73.2927 35.0254 73.3115 35.2256 73.3492C35.4286 73.3869 35.6302 73.4797 35.8303 73.6277C35.9985 73.7524 36.1247 73.9119 36.2088 74.1062C36.2929 74.3006 36.335 74.5166 36.335 74.7545ZM35.491 74.7675C35.491 74.6196 35.4649 74.4905 35.4127 74.3803C35.3633 74.2672 35.2807 74.1758 35.1647 74.1062C35.0429 74.0337 34.9036 73.9902 34.747 73.9757C34.5933 73.9612 34.3714 73.954 34.0814 73.954H33.5462V75.6072H34.064C34.354 75.6072 34.5788 75.5956 34.7383 75.5724C34.8978 75.5463 35.0356 75.4984 35.1516 75.4288C35.2705 75.3534 35.3561 75.2649 35.4083 75.1634C35.4634 75.059 35.491 74.927 35.491 74.7675ZM37.7185 76.2598H36.9006V71.4002H37.7185V76.2598ZM41.0162 76.3729C40.2418 76.3729 39.64 76.1554 39.2107 75.7203C38.7844 75.2823 38.5712 74.6617 38.5712 73.8582C38.5712 73.0664 38.7786 72.4371 39.1933 71.9701C39.6081 71.5002 40.1504 71.2653 40.8204 71.2653C41.1221 71.2653 41.3889 71.3088 41.6209 71.3958C41.853 71.4828 42.056 71.6191 42.23 71.8048C42.404 71.9904 42.5375 72.2181 42.6303 72.4878C42.7231 72.7546 42.7695 73.0824 42.7695 73.471V73.9148H39.4021C39.4021 74.4804 39.5443 74.9125 39.8285 75.2113C40.1127 75.51 40.5057 75.6594 41.0075 75.6594C41.1873 75.6594 41.3628 75.6391 41.5339 75.5985C41.7079 75.5579 41.8646 75.5057 42.0038 75.4419C42.1517 75.3751 42.2764 75.3113 42.3779 75.2504C42.4795 75.1866 42.5636 75.1272 42.6303 75.0721H42.6781V75.9639C42.5824 76.0016 42.4635 76.0495 42.3214 76.1075C42.1793 76.1626 42.0516 76.2061 41.9385 76.238C41.779 76.2815 41.634 76.3149 41.5035 76.3381C41.3759 76.3613 41.2134 76.3729 41.0162 76.3729ZM41.9733 73.2883C41.9675 73.0679 41.9414 72.8779 41.895 72.7184C41.8486 72.5589 41.7819 72.424 41.6949 72.3138C41.5992 72.192 41.4759 72.0992 41.3251 72.0353C41.1772 71.9715 40.993 71.9396 40.7726 71.9396C40.555 71.9396 40.3694 71.973 40.2157 72.0397C40.0649 72.1035 39.9271 72.1978 39.8024 72.3225C39.6806 72.4501 39.5878 72.5922 39.524 72.7488C39.4601 72.9026 39.4195 73.0824 39.4021 73.2883H41.9733ZM50.1916 74.7893C50.1916 75.0242 50.1466 75.233 50.0567 75.4158C49.9668 75.5956 49.8435 75.7464 49.6869 75.8682C49.4897 76.0219 49.2823 76.1263 49.0648 76.1815C48.8502 76.2337 48.592 76.2598 48.2904 76.2598H46.3805V71.4002H48.1642C48.521 71.4002 48.782 71.4118 48.9473 71.435C49.1126 71.4553 49.2765 71.5104 49.4389 71.6003C49.6101 71.6931 49.7362 71.8164 49.8174 71.9701C49.8987 72.1238 49.9393 72.3065 49.9393 72.5183C49.9393 72.7503 49.8754 72.9591 49.7478 73.1447C49.6202 73.3275 49.4505 73.4696 49.2388 73.5711L49.2606 73.6016C49.5245 73.6683 49.7449 73.8031 49.9219 74.0062C50.1017 74.2092 50.1916 74.4702 50.1916 74.7893ZM49.0996 72.6444C49.0996 72.5342 49.0807 72.4385 49.043 72.3573C49.0082 72.2761 48.9459 72.2123 48.856 72.1659C48.7515 72.1108 48.6341 72.0789 48.5036 72.0702C48.3759 72.0585 48.1976 72.0527 47.9684 72.0527H47.1897V73.384H48.1294C48.3295 73.384 48.4717 73.3753 48.5558 73.3579C48.6399 73.3376 48.7327 73.297 48.8342 73.2361C48.9299 73.1781 48.9981 73.0998 49.0387 73.0012C49.0793 72.9026 49.0996 72.7836 49.0996 72.6444ZM49.3476 74.7936C49.3476 74.6283 49.3229 74.4963 49.2736 74.3977C49.2272 74.2962 49.1228 74.2063 48.9604 74.128C48.8589 74.0787 48.7501 74.0482 48.6341 74.0366C48.5181 74.025 48.3571 74.0192 48.1512 74.0192H47.1897V75.6072H47.8988C48.1918 75.6072 48.4195 75.5956 48.5819 75.5724C48.7443 75.5492 48.8835 75.5028 48.9995 75.4332C49.1213 75.3577 49.2098 75.2707 49.2649 75.1721C49.32 75.0735 49.3476 74.9473 49.3476 74.7936ZM55.0512 73.8321C55.0512 74.65 54.854 75.2823 54.4595 75.729C54.0651 76.1728 53.5401 76.3946 52.8846 76.3946C52.2088 76.3946 51.6766 76.1655 51.2879 75.7072C50.9022 75.2461 50.7093 74.621 50.7093 73.8321C50.7093 73.02 50.908 72.3892 51.3053 71.9396C51.7056 71.4901 52.232 71.2653 52.8846 71.2653C53.5401 71.2653 54.0651 71.4901 54.4595 71.9396C54.854 72.3863 55.0512 73.0171 55.0512 73.8321ZM54.2072 73.8321C54.2072 73.2028 54.0926 72.7358 53.8635 72.4313C53.6344 72.1238 53.3081 71.9701 52.8846 71.9701C52.4582 71.9701 52.1291 72.1238 51.897 72.4313C51.6679 72.7358 51.5533 73.2028 51.5533 73.8321C51.5533 74.4412 51.6679 74.9038 51.897 75.22C52.1291 75.5332 52.4582 75.6898 52.8846 75.6898C53.3052 75.6898 53.63 75.5361 53.8591 75.2287C54.0912 74.9183 54.2072 74.4528 54.2072 73.8321ZM60.0587 77.4257H59.2974V76.2467H56.0953V77.4257H55.334V75.5637H55.6559C55.9315 75.1112 56.1562 74.521 56.3303 73.793C56.5072 73.0621 56.5957 72.2645 56.5957 71.4002H59.5758V75.5637H60.0587V77.4257ZM58.7579 75.5637V72.0876H57.3657C57.328 72.8127 57.2279 73.4754 57.0655 74.0758C56.906 74.6733 56.7044 75.1692 56.4608 75.5637H58.7579ZM64.4746 74.7545C64.4746 74.9894 64.4267 75.2026 64.331 75.394C64.2382 75.5854 64.1106 75.7406 63.9481 75.8595C63.7567 76.0045 63.5522 76.1075 63.3347 76.1684C63.1172 76.2293 62.8373 76.2598 62.495 76.2598H60.8679V71.4002H61.6858V73.2927H62.5168C62.8822 73.2927 63.165 73.3115 63.3652 73.3492C63.5682 73.3869 63.7698 73.4797 63.9699 73.6277C64.1381 73.7524 64.2643 73.9119 64.3484 74.1062C64.4325 74.3006 64.4746 74.5166 64.4746 74.7545ZM63.6306 74.7675C63.6306 74.6196 63.6044 74.4905 63.5522 74.3803C63.5029 74.2672 63.4203 74.1758 63.3043 74.1062C63.1824 74.0337 63.0432 73.9902 62.8866 73.9757C62.7329 73.9612 62.511 73.954 62.221 73.954H61.6858V75.6072H62.2036C62.4936 75.6072 62.7184 75.5956 62.8779 75.5724C63.0374 75.5463 63.1752 75.4984 63.2912 75.4288C63.4101 75.3534 63.4957 75.2649 63.5479 75.1634C63.603 75.059 63.6306 74.927 63.6306 74.7675ZM65.8581 76.2598H65.0401V71.4002H65.8581V76.2598Z" fill="#606580"/>
</svg>
