<svg width="324" height="118" viewBox="0 0 324 118" fill="none" xmlns="http://www.w3.org/2000/svg">
<path d="M9.57093 30.0549L7.49847 34.8676C7.41147 35.0698 7.31297 35.2322 7.20295 35.355C7.09549 35.4779 6.98291 35.57 6.86521 35.6314C6.74752 35.6953 6.6311 35.7375 6.51597 35.758C6.40339 35.7785 6.28953 35.7887 6.17439 35.7887C6.07205 35.7887 5.9518 35.7862 5.81363 35.781C5.67547 35.7759 5.5872 35.7721 5.54882 35.7695V35.0595H5.60255C5.64093 35.0646 5.6985 35.071 5.77525 35.0787C5.85457 35.0838 5.95436 35.0864 6.07461 35.0864C6.1309 35.0864 6.19742 35.0838 6.27418 35.0787C6.35094 35.071 6.4213 35.0518 6.48526 35.0211C6.55946 34.9853 6.62854 34.938 6.69251 34.8791C6.75903 34.8177 6.81916 34.7218 6.87289 34.5913L7.00338 34.2881L4.99616 30.0549H5.83666L7.38717 33.4169L8.788 30.0549H9.57093ZM11.747 35.8655C11.4528 35.8655 11.1828 35.8207 10.9372 35.7312C10.6916 35.639 10.4805 35.5009 10.304 35.3167C10.1274 35.1324 9.99054 34.9009 9.89331 34.622C9.79608 34.3406 9.74747 34.0105 9.74747 33.6318C9.74747 33.2557 9.79736 32.9308 9.89715 32.657C9.99949 32.3832 10.1351 32.153 10.304 31.9662C10.4728 31.7794 10.6826 31.6361 10.9334 31.5363C11.1867 31.434 11.4579 31.3828 11.747 31.3828C11.9824 31.3828 12.2088 31.4161 12.4263 31.4826C12.6464 31.5491 12.8421 31.6259 13.0135 31.7129V32.5227H12.9713C12.9201 32.4792 12.8536 32.4293 12.7717 32.373C12.6924 32.3167 12.5952 32.2591 12.48 32.2003C12.3803 32.1491 12.2626 32.1043 12.127 32.066C11.9914 32.0276 11.8609 32.0084 11.7355 32.0084C11.3619 32.0084 11.0613 32.1504 10.8336 32.4344C10.6084 32.7158 10.4959 33.115 10.4959 33.6318C10.4959 34.1384 10.6046 34.5337 10.8221 34.8177C11.0421 35.0992 11.3466 35.2399 11.7355 35.2399C11.9709 35.2399 12.1948 35.1913 12.4071 35.0941C12.6195 34.9968 12.8075 34.8715 12.9713 34.7179H13.0135V35.5277C12.9419 35.561 12.8523 35.6019 12.7449 35.6506C12.6374 35.6966 12.5402 35.7312 12.4532 35.7542C12.3304 35.79 12.2204 35.8169 12.1231 35.8348C12.0259 35.8552 11.9005 35.8655 11.747 35.8655ZM16.8054 32.1159H15.347V35.7695H14.6254V32.1159H13.167V31.4826H16.8054V32.1159ZM19.7375 34.7141V33.5244C19.5661 33.5397 19.3486 33.5615 19.0851 33.5896C18.8241 33.6152 18.613 33.6523 18.4518 33.7009C18.2599 33.7598 18.1013 33.8506 17.9759 33.9734C17.8505 34.0937 17.7879 34.2625 17.7879 34.48C17.7879 34.7256 17.8569 34.9111 17.9951 35.0365C18.1333 35.1619 18.3354 35.2246 18.6015 35.2246C18.8292 35.2246 19.0352 35.1759 19.2194 35.0787C19.4036 34.9789 19.5763 34.8574 19.7375 34.7141ZM19.7375 35.3128C19.6787 35.3563 19.5993 35.4177 19.4996 35.497C19.4023 35.5738 19.3077 35.6352 19.2155 35.6813C19.0876 35.7478 18.9635 35.799 18.8433 35.8348C18.7256 35.8706 18.5593 35.8885 18.3443 35.8885C18.1678 35.8885 18.0002 35.8552 17.8416 35.7887C17.6829 35.7222 17.5435 35.6288 17.4233 35.5086C17.3081 35.3909 17.216 35.2463 17.1469 35.0749C17.0778 34.9009 17.0433 34.7179 17.0433 34.5261C17.0433 34.2293 17.106 33.9772 17.2314 33.77C17.3567 33.5602 17.555 33.3939 17.8262 33.2711C18.0667 33.161 18.3507 33.0856 18.6782 33.0446C19.0057 33.0011 19.3588 32.9692 19.7375 32.9487V32.8105C19.7375 32.6417 19.7119 32.506 19.6607 32.4037C19.6096 32.2988 19.5379 32.2182 19.4458 32.1619C19.3537 32.1031 19.2411 32.0647 19.1081 32.0468C18.975 32.0263 18.8382 32.0161 18.6974 32.0161C18.5311 32.0161 18.3354 32.0417 18.1102 32.0928C17.8851 32.1414 17.6599 32.2131 17.4348 32.3078H17.3925V31.5747C17.5256 31.5363 17.7162 31.4941 17.9644 31.4481C18.2126 31.402 18.4582 31.379 18.7013 31.379C18.9955 31.379 19.2437 31.402 19.4458 31.4481C19.6479 31.4941 19.8296 31.5773 19.9908 31.6975C20.1469 31.8152 20.2633 31.9675 20.34 32.1542C20.4168 32.341 20.4552 32.5687 20.4552 32.8374V35.7695H19.7375V35.3128ZM24.8572 35.7695H24.1357V33.8391H22.1938V35.7695H21.4722V31.4826H22.1938V33.2173H24.1357V31.4826H24.8572V35.7695ZM29.4282 33.628C29.4282 34.3495 29.2542 34.9073 28.9062 35.3013C28.5583 35.6928 28.0951 35.8885 27.5169 35.8885C26.9208 35.8885 26.4513 35.6864 26.1084 35.2821C25.7681 34.8753 25.598 34.3239 25.598 33.628C25.598 32.9116 25.7732 32.3551 26.1238 31.9585C26.4768 31.5619 26.9412 31.3636 27.5169 31.3636C28.0951 31.3636 28.5583 31.5619 28.9062 31.9585C29.2542 32.3525 29.4282 32.909 29.4282 33.628ZM28.6836 33.628C28.6836 33.0728 28.5826 32.6608 28.3804 32.3922C28.1783 32.121 27.8905 31.9854 27.5169 31.9854C27.1408 31.9854 26.8504 32.121 26.6457 32.3922C26.4436 32.6608 26.3425 33.0728 26.3425 33.628C26.3425 34.1653 26.4436 34.5734 26.6457 34.8523C26.8504 35.1286 27.1408 35.2668 27.5169 35.2668C27.8879 35.2668 28.1745 35.1312 28.3766 34.86C28.5813 34.5862 28.6836 34.1755 28.6836 33.628ZM33.5309 34.4723C33.5309 34.6796 33.4912 34.8638 33.4119 35.025C33.3326 35.1836 33.2238 35.3167 33.0857 35.4241C32.9117 35.5597 32.7288 35.6518 32.5369 35.7004C32.3475 35.7465 32.1198 35.7695 31.8537 35.7695H30.1689V31.4826H31.7424C32.0571 31.4826 32.2874 31.4928 32.4332 31.5133C32.5791 31.5312 32.7236 31.5798 32.8669 31.6592C33.0179 31.741 33.1292 31.8498 33.2008 31.9854C33.2725 32.121 33.3083 32.2822 33.3083 32.4689C33.3083 32.6736 33.252 32.8579 33.1394 33.0216C33.0268 33.1828 32.8772 33.3082 32.6904 33.3977L32.7096 33.4246C32.9424 33.4834 33.1369 33.6024 33.2929 33.7815C33.4516 33.9606 33.5309 34.1909 33.5309 34.4723ZM32.5676 32.5802C32.5676 32.483 32.5509 32.3986 32.5177 32.3269C32.487 32.2553 32.432 32.199 32.3526 32.1581C32.2605 32.1095 32.1569 32.0813 32.0418 32.0736C31.9292 32.0634 31.7718 32.0583 31.5697 32.0583H30.8827V33.2327H31.7117C31.8883 33.2327 32.0136 33.225 32.0878 33.2097C32.162 33.1917 32.2439 33.1559 32.3335 33.1022C32.4179 33.051 32.478 32.9819 32.5138 32.895C32.5497 32.808 32.5676 32.7031 32.5676 32.5802ZM32.7863 34.4762C32.7863 34.3303 32.7646 34.2139 32.7211 34.1269C32.6801 34.0374 32.588 33.958 32.4448 33.889C32.3552 33.8455 32.2593 33.8186 32.1569 33.8084C32.0546 33.7981 31.9126 33.793 31.7309 33.793H30.8827V35.1938H31.5083C31.7667 35.1938 31.9676 35.1836 32.1109 35.1631C32.2541 35.1427 32.377 35.1017 32.4793 35.0403C32.5868 34.9738 32.6648 34.8971 32.7134 34.8101C32.762 34.7231 32.7863 34.6118 32.7863 34.4762ZM37.741 35.7695H36.843L35.3731 33.793H35.0123V35.7695H34.2908V31.4826H35.0123V33.3478C35.1991 33.3453 35.3577 33.3069 35.4882 33.2327C35.6213 33.1559 35.7338 33.0088 35.8259 32.7913C35.8541 32.7274 35.8848 32.6532 35.918 32.5687C35.9539 32.4843 35.982 32.4101 36.0025 32.3461C36.1151 32.0314 36.2711 31.8088 36.4707 31.6783C36.6703 31.5479 36.93 31.4826 37.2498 31.4826H37.4455V32.1043H37.2805C37.0784 32.1043 36.9261 32.1466 36.8238 32.231C36.724 32.3129 36.6396 32.4638 36.5705 32.6839C36.4988 32.9065 36.4144 33.0804 36.3172 33.2058C36.22 33.3286 36.1125 33.4233 35.9948 33.4898L37.741 35.7695ZM41.5905 35.7695H40.8766V32.5726L38.8579 35.7695H38.2054V31.4826H38.9193V34.6297L40.915 31.4826H41.5905V35.7695Z" fill="#0089FF"/>
<path d="M312.363 59.3604H309.112V58.6798H310.321V54.2112H309.112V53.6022C309.569 53.6022 309.904 53.5381 310.119 53.4097C310.337 53.2784 310.46 53.0321 310.487 52.6709H311.181V58.6798H312.363V59.3604ZM317.369 59.3604H314.118V58.6798H315.327V54.2112H314.118V53.6022C314.575 53.6022 314.91 53.5381 315.125 53.4097C315.343 53.2784 315.466 53.0321 315.492 52.6709H316.186V58.6798H317.369V59.3604Z" fill="#303549"/>
<path d="M286.508 56.8485H283.983V56.038H286.508V56.8485Z" fill="#303549"/>
<path d="M256.993 59.3604H252.878V58.4245C253.174 58.144 253.453 57.8753 253.715 57.6186C253.978 57.3619 254.235 57.0947 254.485 56.8171C254.993 56.2589 255.339 55.8126 255.524 55.4783C255.709 55.141 255.802 54.7933 255.802 54.4351C255.802 54.25 255.772 54.0873 255.712 53.947C255.656 53.8067 255.577 53.6903 255.475 53.5978C255.371 53.5082 255.25 53.441 255.112 53.3963C254.975 53.3515 254.824 53.3291 254.66 53.3291C254.502 53.3291 254.341 53.35 254.177 53.3918C254.015 53.4306 253.86 53.4799 253.711 53.5396C253.586 53.5903 253.465 53.6515 253.348 53.7231C253.232 53.7948 253.138 53.856 253.066 53.9067H253.017V52.9575C253.202 52.8649 253.459 52.7754 253.787 52.6888C254.118 52.5993 254.432 52.5545 254.727 52.5545C255.348 52.5545 255.835 52.7202 256.187 53.0515C256.539 53.3799 256.715 53.8261 256.715 54.3903C256.715 54.65 256.684 54.8903 256.621 55.1112C256.562 55.3321 256.478 55.5365 256.371 55.7246C256.26 55.9186 256.127 56.1112 255.972 56.3022C255.817 56.4932 255.653 56.6813 255.48 56.8664C255.199 57.1708 254.885 57.4872 254.539 57.8156C254.196 58.144 253.921 58.4037 253.715 58.5947H256.993V59.3604ZM262.173 57.0679H261.381V59.3604H260.521V57.0679H257.575V56.1276L260.557 52.6933H261.381V56.3514H262.173V57.0679ZM260.521 56.3514V53.7455L258.273 56.3514H260.521Z" fill="#303549"/>
<path d="M230.808 56.8485H228.283V56.038H230.808V56.8485Z" fill="#303549"/>
<path d="M202.948 56.8485H200.423V56.038H202.948V56.8485Z" fill="#303549"/>
<path d="M175.098 56.8485H172.573V56.038H175.098V56.8485Z" fill="#303549"/>
<path d="M148.083 59.3604H143.968V58.4245C144.264 58.144 144.543 57.8753 144.805 57.6186C145.068 57.3619 145.325 57.0947 145.575 56.8171C146.083 56.2589 146.429 55.8126 146.614 55.4783C146.799 55.141 146.892 54.7933 146.892 54.4351C146.892 54.25 146.862 54.0873 146.802 53.947C146.746 53.8067 146.667 53.6903 146.565 53.5978C146.461 53.5082 146.34 53.441 146.202 53.3963C146.065 53.3515 145.914 53.3291 145.75 53.3291C145.592 53.3291 145.431 53.35 145.267 53.3918C145.105 53.4306 144.95 53.4799 144.801 53.5396C144.675 53.5903 144.555 53.6515 144.438 53.7231C144.322 53.7948 144.228 53.856 144.156 53.9067H144.107V52.9575C144.292 52.8649 144.549 52.7754 144.877 52.6888C145.208 52.5993 145.522 52.5545 145.817 52.5545C146.438 52.5545 146.925 52.7202 147.277 53.0515C147.629 53.3799 147.805 53.8261 147.805 54.3903C147.805 54.65 147.774 54.8903 147.711 55.1112C147.652 55.3321 147.568 55.5365 147.461 55.7246C147.35 55.9186 147.217 56.1112 147.062 56.3022C146.907 56.4932 146.743 56.6813 146.569 56.8664C146.289 57.1708 145.975 57.4872 145.629 57.8156C145.286 58.144 145.011 58.4037 144.805 58.5947H148.083V59.3604Z" fill="#303549"/>
<path d="M314.368 96.658H311.843V95.8476H314.368V96.658Z" fill="#303549"/>
<path d="M286.508 96.658H283.983V95.8476H286.508V96.658Z" fill="#303549"/>
<path d="M258.658 96.658H256.133V95.8476H258.658V96.658Z" fill="#303549"/>
<path d="M230.808 96.658H228.283V95.8476H230.808V96.658Z" fill="#303549"/>
<path d="M202.948 96.658H200.423V95.8476H202.948V96.658Z" fill="#303549"/>
<path d="M175.098 96.658H172.573V95.8476H175.098V96.658Z" fill="#303549"/>
<path d="M147.238 96.658H144.713V95.8476H147.238V96.658Z" fill="#303549"/>
<path d="M314.368 76.7479H311.843V75.9374H314.368V76.7479Z" fill="#303549"/>
<path d="M286.508 76.7479H283.983V75.9374H286.508V76.7479Z" fill="#303549"/>
<path d="M258.658 76.7479H256.133V75.9374H258.658V76.7479Z" fill="#303549"/>
<path d="M230.808 76.7479H228.283V75.9374H230.808V76.7479Z" fill="#303549"/>
<path d="M202.948 76.7479H200.423V75.9374H202.948V76.7479Z" fill="#303549"/>
<path d="M175.098 76.7479H172.573V75.9374H175.098V76.7479Z" fill="#303549"/>
<path d="M147.238 76.7479H144.713V75.9374H147.238V76.7479Z" fill="#303549"/>
<path d="M10.2029 76.9915C10.2029 78.0511 9.92231 78.8959 9.36112 79.5257C8.80292 80.1556 8.07159 80.4705 7.16713 80.4705C6.78505 80.4705 6.42386 80.4317 6.08356 80.3541C5.74626 80.2795 5.44925 80.1824 5.19253 80.063V79.0825H5.2597C5.47462 79.2765 5.74775 79.4317 6.07909 79.5481C6.41042 79.6616 6.76415 79.7183 7.14026 79.7183C7.78204 79.7183 8.30442 79.484 8.7074 79.0153C9.11038 78.5467 9.31187 77.9288 9.31187 77.1616H6.06118V76.387H9.26709C9.19844 75.7422 8.97456 75.2363 8.59546 74.8691C8.21935 74.499 7.73428 74.3139 7.14026 74.3139C6.77311 74.3139 6.42983 74.3706 6.11043 74.484C5.79103 74.5975 5.51342 74.7557 5.27761 74.9587H5.21044V73.9736C5.44925 73.8631 5.74178 73.7676 6.08804 73.687C6.43729 73.6035 6.79997 73.5617 7.17608 73.5617C8.13726 73.5617 8.88203 73.8602 9.41038 74.4572C9.93873 75.0512 10.2029 75.896 10.2029 76.9915ZM16.0371 80.3496H15.1506V74.4706H12.9029C12.8939 74.8079 12.882 75.1378 12.867 75.4601C12.8521 75.7795 12.8402 76.0661 12.8312 76.3198C12.8073 76.9497 12.7685 77.4706 12.7148 77.8825C12.6641 78.2944 12.5969 78.6392 12.5133 78.9168C12.4327 79.1884 12.3372 79.4078 12.2267 79.575C12.1193 79.7422 12.0014 79.8825 11.873 79.9959C11.7387 80.1183 11.5939 80.2108 11.4387 80.2735C11.2865 80.3332 11.1089 80.363 10.9059 80.363C10.8432 80.363 10.779 80.3601 10.7133 80.3541C10.6507 80.3511 10.6014 80.3496 10.5656 80.3496V79.4899H10.6283C10.6581 79.4929 10.6835 79.4959 10.7044 79.4989C10.7253 79.5019 10.7566 79.5034 10.7984 79.5034C10.9059 79.5034 11.0059 79.4869 11.0984 79.4541C11.1909 79.4213 11.27 79.3705 11.3357 79.3019C11.5387 79.1019 11.6865 78.7467 11.779 78.2362C11.8745 77.7228 11.9417 77.0332 11.9805 76.1676C11.9954 75.8751 12.0103 75.4885 12.0253 75.0079C12.0402 74.5273 12.0536 74.0855 12.0656 73.6826H16.0371V80.3496ZM22.1042 74.4482C22.3579 74.7407 22.5549 75.1034 22.6952 75.5363C22.8355 75.9691 22.9057 76.4631 22.9057 77.0183C22.9057 77.5586 22.837 78.0467 22.6997 78.4825C22.5624 78.9183 22.3639 79.284 22.1042 79.5795C21.8326 79.8899 21.5147 80.1198 21.1505 80.269C20.7893 80.4153 20.3908 80.4884 19.955 80.4884C19.5042 80.4884 19.0983 80.4123 18.7371 80.2601C18.3759 80.1078 18.0655 79.881 17.8058 79.5795C17.549 79.284 17.352 78.9198 17.2147 78.487C17.0774 78.0541 17.0088 77.5646 17.0088 77.0183C17.0088 76.4571 17.0774 75.9646 17.2147 75.5407C17.355 75.1169 17.5535 74.7527 17.8102 74.4482C18.067 74.1527 18.3759 73.9288 18.7371 73.7766C19.1013 73.6214 19.5072 73.5437 19.955 73.5437C20.4087 73.5437 20.8177 73.6229 21.1818 73.7811C21.546 73.9393 21.8535 74.1617 22.1042 74.4482ZM21.9833 77.0183C21.9833 76.5765 21.9355 76.1855 21.84 75.8452C21.7445 75.5049 21.6102 75.2228 21.437 74.999C21.2609 74.7691 21.0475 74.5975 20.7968 74.484C20.549 74.3676 20.2699 74.3094 19.9595 74.3094C19.6371 74.3094 19.355 74.3661 19.1132 74.4796C18.8744 74.59 18.6625 74.7631 18.4774 74.999C18.3013 75.2258 18.1655 75.5109 18.0699 75.8542C17.9774 76.1974 17.9311 76.5855 17.9311 77.0183C17.9311 77.8929 18.1147 78.5631 18.4819 79.0287C18.849 79.4914 19.3416 79.7228 19.9595 79.7228C20.5774 79.7228 21.0684 79.4914 21.4326 79.0287C21.7997 78.5631 21.9833 77.8929 21.9833 77.0183ZM28.5384 73.6826L26.1206 79.2974C26.0191 79.5332 25.9041 79.7228 25.7758 79.866C25.6504 80.0093 25.5191 80.1168 25.3818 80.1884C25.2444 80.263 25.1086 80.3123 24.9743 80.3362C24.843 80.3601 24.7101 80.372 24.5758 80.372C24.4564 80.372 24.3161 80.369 24.1549 80.363C23.9937 80.3571 23.8907 80.3526 23.846 80.3496V79.5213H23.9086C23.9534 79.5272 24.0206 79.5347 24.1101 79.5437C24.2027 79.5496 24.3191 79.5526 24.4594 79.5526C24.5251 79.5526 24.6027 79.5496 24.6922 79.5437C24.7818 79.5347 24.8639 79.5123 24.9385 79.4765C25.025 79.4347 25.1056 79.3795 25.1803 79.3108C25.2579 79.2392 25.328 79.1272 25.3907 78.975L25.5429 78.6213L23.2012 73.6826H24.1818L25.9907 77.6049L27.625 73.6826H28.5384ZM31.4085 77.8377H28.8832V77.0273H31.4085V77.8377ZM36.4144 80.3496H32.2996V79.4138C32.5951 79.1332 32.8742 78.8646 33.1369 78.6078C33.3995 78.3511 33.6563 78.084 33.907 77.8064C34.4144 77.2482 34.7607 76.8019 34.9458 76.4676C35.1309 76.1303 35.2234 75.7825 35.2234 75.4243C35.2234 75.2392 35.1935 75.0766 35.1338 74.9363C35.0771 74.796 34.998 74.6796 34.8965 74.587C34.7921 74.4975 34.6712 74.4303 34.5338 74.3855C34.3965 74.3408 34.2458 74.3184 34.0816 74.3184C33.9234 74.3184 33.7622 74.3393 33.598 74.381C33.4369 74.4199 33.2816 74.4691 33.1324 74.5288C33.007 74.5796 32.8861 74.6407 32.7697 74.7124C32.6533 74.784 32.5593 74.8452 32.4876 74.896H32.4384V73.9467C32.6234 73.8542 32.8801 73.7646 33.2085 73.6781C33.5398 73.5885 33.8533 73.5437 34.1488 73.5437C34.7697 73.5437 35.2562 73.7094 35.6085 74.0408C35.9607 74.3691 36.1368 74.8154 36.1368 75.3795C36.1368 75.6392 36.1055 75.8795 36.0428 76.1004C35.9831 76.3213 35.8995 76.5258 35.792 76.7138C35.6816 76.9079 35.5488 77.1004 35.3935 77.2915C35.2383 77.4825 35.0741 77.6705 34.901 77.8556C34.6204 78.1601 34.307 78.4765 33.9607 78.8049C33.6174 79.1332 33.3428 79.3929 33.1369 79.584H36.4144V80.3496Z" fill="#303549"/>
<path d="M10.2029 57.1321C10.2029 58.1918 9.92231 59.0365 9.36112 59.6664C8.80292 60.2962 8.07159 60.6111 7.16713 60.6111C6.78505 60.6111 6.42386 60.5723 6.08356 60.4947C5.74626 60.4201 5.44925 60.3231 5.19253 60.2037V59.2231H5.2597C5.47462 59.4171 5.74775 59.5723 6.07909 59.6888C6.41042 59.8022 6.76415 59.8589 7.14026 59.8589C7.78204 59.8589 8.30442 59.6246 8.7074 59.1559C9.11038 58.6873 9.31187 58.0694 9.31187 57.3022H6.06118V56.5276H9.26709C9.19844 55.8828 8.97456 55.3769 8.59546 55.0097C8.21935 54.6396 7.73428 54.4545 7.14026 54.4545C6.77311 54.4545 6.42983 54.5112 6.11043 54.6247C5.79103 54.7381 5.51342 54.8963 5.27761 55.0993H5.21044V54.1142C5.44925 54.0038 5.74178 53.9083 6.08804 53.8277C6.43729 53.7441 6.79997 53.7023 7.17608 53.7023C8.13726 53.7023 8.88203 54.0008 9.41038 54.5978C9.93873 55.1918 10.2029 56.0366 10.2029 57.1321ZM16.0371 60.4902H15.1506V54.6112H12.9029C12.8939 54.9485 12.882 55.2784 12.867 55.6008C12.8521 55.9202 12.8402 56.2067 12.8312 56.4604C12.8073 57.0903 12.7685 57.6112 12.7148 58.0231C12.6641 58.435 12.5969 58.7798 12.5133 59.0574C12.4327 59.3291 12.3372 59.5485 12.2267 59.7156C12.1193 59.8828 12.0014 60.0231 11.873 60.1365C11.7387 60.2589 11.5939 60.3514 11.4387 60.4141C11.2865 60.4738 11.1089 60.5037 10.9059 60.5037C10.8432 60.5037 10.779 60.5007 10.7133 60.4947C10.6507 60.4917 10.6014 60.4902 10.5656 60.4902V59.6305H10.6283C10.6581 59.6335 10.6835 59.6365 10.7044 59.6395C10.7253 59.6425 10.7566 59.644 10.7984 59.644C10.9059 59.644 11.0059 59.6276 11.0984 59.5947C11.1909 59.5619 11.27 59.5111 11.3357 59.4425C11.5387 59.2425 11.6865 58.8873 11.779 58.3768C11.8745 57.8634 11.9417 57.1739 11.9805 56.3082C11.9954 56.0157 12.0103 55.6291 12.0253 55.1485C12.0402 54.6679 12.0536 54.2262 12.0656 53.8232H16.0371V60.4902ZM22.1042 54.5888C22.3579 54.8814 22.5549 55.2441 22.6952 55.6769C22.8355 56.1097 22.9057 56.6037 22.9057 57.1589C22.9057 57.6992 22.837 58.1873 22.6997 58.6231C22.5624 59.0589 22.3639 59.4246 22.1042 59.7201C21.8326 60.0305 21.5147 60.2604 21.1505 60.4096C20.7893 60.5559 20.3908 60.629 19.955 60.629C19.5042 60.629 19.0983 60.5529 18.7371 60.4007C18.3759 60.2484 18.0655 60.0216 17.8058 59.7201C17.549 59.4246 17.352 59.0604 17.2147 58.6276C17.0774 58.1947 17.0088 57.7052 17.0088 57.1589C17.0088 56.5978 17.0774 56.1052 17.2147 55.6814C17.355 55.2575 17.5535 54.8933 17.8102 54.5888C18.067 54.2933 18.3759 54.0694 18.7371 53.9172C19.1013 53.762 19.5072 53.6844 19.955 53.6844C20.4087 53.6844 20.8177 53.7635 21.1818 53.9217C21.546 54.0799 21.8535 54.3023 22.1042 54.5888ZM21.9833 57.1589C21.9833 56.7172 21.9355 56.3261 21.84 55.9858C21.7445 55.6455 21.6102 55.3635 21.437 55.1396C21.2609 54.9097 21.0475 54.7381 20.7968 54.6247C20.549 54.5082 20.2699 54.45 19.9595 54.45C19.6371 54.45 19.355 54.5067 19.1132 54.6202C18.8744 54.7306 18.6625 54.9038 18.4774 55.1396C18.3013 55.3664 18.1655 55.6515 18.0699 55.9948C17.9774 56.3381 17.9311 56.7261 17.9311 57.1589C17.9311 58.0336 18.1147 58.7037 18.4819 59.1694C18.849 59.632 19.3416 59.8634 19.9595 59.8634C20.5774 59.8634 21.0684 59.632 21.4326 59.1694C21.7997 58.7037 21.9833 58.0336 21.9833 57.1589ZM28.5384 53.8232L26.1206 59.438C26.0191 59.6738 25.9041 59.8634 25.7758 60.0067C25.6504 60.1499 25.5191 60.2574 25.3818 60.329C25.2444 60.4037 25.1086 60.4529 24.9743 60.4768C24.843 60.5007 24.7101 60.5126 24.5758 60.5126C24.4564 60.5126 24.3161 60.5096 24.1549 60.5037C23.9937 60.4977 23.8907 60.4932 23.846 60.4902V59.6619H23.9086C23.9534 59.6679 24.0206 59.6753 24.1101 59.6843C24.2027 59.6902 24.3191 59.6932 24.4594 59.6932C24.5251 59.6932 24.6027 59.6902 24.6922 59.6843C24.7818 59.6753 24.8639 59.6529 24.9385 59.6171C25.025 59.5753 25.1056 59.5201 25.1803 59.4514C25.2579 59.3798 25.328 59.2679 25.3907 59.1156L25.5429 58.7619L23.2012 53.8232H24.1818L25.9907 57.7455L27.625 53.8232H28.5384ZM31.4085 57.9783H28.8832V57.1679H31.4085V57.9783ZM31.7667 60.4902L34.0145 53.8232H35.107L37.3547 60.4902H36.4189L35.8144 58.6276H33.2667L32.6622 60.4902H31.7667ZM35.5682 57.8709L34.5383 54.7276L33.513 57.8709H35.5682ZM42.5083 58.444C42.5083 58.7753 42.4457 59.0679 42.3203 59.3216C42.1949 59.5753 42.0263 59.7843 41.8143 59.9485C41.5636 60.1455 41.2949 60.2858 41.0084 60.3693C40.7218 60.4499 40.3517 60.4902 39.8979 60.4902H37.986V53.8232H39.7547C40.2293 53.8232 40.5845 53.8396 40.8203 53.8724C41.0591 53.9023 41.2875 53.9754 41.5054 54.0918C41.7442 54.2202 41.9188 54.3888 42.0292 54.5978C42.1397 54.8038 42.1949 55.047 42.1949 55.3276C42.1949 55.6411 42.1113 55.9217 41.9442 56.1694C41.78 56.4172 41.5516 56.6112 41.2591 56.7515V56.7873C41.6561 56.8948 41.9636 57.0918 42.1815 57.3783C42.3994 57.6619 42.5083 58.0171 42.5083 58.444ZM41.2725 55.453C41.2725 55.2918 41.2457 55.153 41.1919 55.0366C41.1382 54.9172 41.0517 54.8232 40.9323 54.7545C40.789 54.6739 40.6293 54.6247 40.4532 54.6067C40.277 54.5888 40.0338 54.5799 39.7233 54.5799H38.8726V56.5321H39.88C40.1576 56.5321 40.3621 56.5187 40.4935 56.4918C40.6248 56.4619 40.7606 56.4022 40.9009 56.3127C41.0352 56.2261 41.1308 56.1127 41.1875 55.9724C41.2442 55.8321 41.2725 55.659 41.2725 55.453ZM41.586 58.4798C41.586 58.2291 41.5502 58.0231 41.4785 57.8619C41.4069 57.6977 41.2621 57.5589 41.0442 57.4455C40.9039 57.3709 40.7502 57.3231 40.583 57.3022C40.4188 57.2813 40.1845 57.2709 39.88 57.2709H38.8726V59.7335H39.5935C39.9815 59.7335 40.2875 59.7156 40.5114 59.6798C40.7352 59.644 40.9323 59.5679 41.1024 59.4514C41.2696 59.335 41.3919 59.2037 41.4696 59.0574C41.5472 58.9082 41.586 58.7156 41.586 58.4798ZM44.9531 60.4902V54.6112H42.7143V53.8232H48.0784V54.6112H45.8396V60.4902H44.9531ZM51.0022 57.9783H48.4769V57.1679H51.0022V57.9783ZM56.1111 58.3276C56.1111 58.6709 56.0544 58.9873 55.941 59.2768C55.8275 59.5664 55.6753 59.8082 55.4843 60.0022C55.2843 60.2081 55.0604 60.3649 54.8126 60.4723C54.5649 60.5768 54.2917 60.629 53.9932 60.629C53.6917 60.629 53.4171 60.5783 53.1694 60.4768C52.9246 60.3753 52.7082 60.2246 52.5201 60.0246C52.2903 59.7828 52.1097 59.4604 51.9783 59.0574C51.85 58.6515 51.7858 58.153 51.7858 57.5619C51.7858 56.9828 51.8455 56.4604 51.9649 55.9948C52.0843 55.5261 52.2679 55.1187 52.5156 54.7724C52.7574 54.4351 53.0694 54.1724 53.4515 53.9844C53.8335 53.7933 54.2753 53.6978 54.7768 53.6978C54.9261 53.6978 55.0649 53.7053 55.1932 53.7202C55.3216 53.7351 55.435 53.759 55.5335 53.7918V54.647H55.4932C55.4126 54.6023 55.2962 54.562 55.144 54.5262C54.9917 54.4873 54.829 54.4679 54.6559 54.4679C54.1007 54.4679 53.6514 54.656 53.3082 55.0321C52.9679 55.4052 52.7664 55.9605 52.7037 56.6978C52.9156 56.5485 53.1335 56.4336 53.3574 56.353C53.5813 56.2724 53.8261 56.2321 54.0917 56.2321C54.3514 56.2321 54.5783 56.259 54.7723 56.3127C54.9693 56.3634 55.1738 56.4679 55.3857 56.6261C55.6305 56.8112 55.8126 57.0455 55.932 57.3291C56.0514 57.6127 56.1111 57.9455 56.1111 58.3276ZM55.2022 58.3634C55.2022 58.0888 55.1663 57.8589 55.0947 57.6739C55.0231 57.4888 54.9067 57.3306 54.7455 57.1992C54.629 57.1037 54.4962 57.041 54.347 57.0112C54.2007 56.9813 54.0499 56.9664 53.8947 56.9664C53.6858 56.9664 53.4828 56.9978 53.2858 57.0604C53.0888 57.1231 52.8947 57.2142 52.7037 57.3336C52.6977 57.3992 52.6933 57.4634 52.6903 57.5261C52.6873 57.5858 52.6858 57.6619 52.6858 57.7545C52.6858 58.2171 52.7306 58.5903 52.8201 58.8738C52.9127 59.1574 53.0261 59.3723 53.1604 59.5186C53.2888 59.6589 53.4201 59.7574 53.5544 59.8141C53.6917 59.8708 53.8395 59.8992 53.9977 59.8992C54.3559 59.8992 54.6455 59.7708 54.8664 59.5141C55.0902 59.2574 55.2022 58.8738 55.2022 58.3634Z" fill="#303549"/>
<path d="M8.28204 100.341C7.84622 100.341 7.44474 100.267 7.07758 100.121C6.7134 99.975 6.39848 99.757 6.13282 99.4675C5.86715 99.178 5.66118 98.8168 5.51492 98.3839C5.36865 97.9511 5.29552 97.4541 5.29552 96.8929C5.29552 96.3347 5.36567 95.8482 5.50596 95.4332C5.64924 95.0183 5.8567 94.6571 6.12834 94.3497C6.39401 94.0512 6.70893 93.8243 7.0731 93.6691C7.43727 93.5109 7.84473 93.4318 8.29547 93.4318C8.51935 93.4318 8.7283 93.4482 8.92232 93.481C9.11934 93.5139 9.30142 93.5557 9.46858 93.6064C9.61187 93.6512 9.75813 93.7079 9.90738 93.7765C10.0596 93.8422 10.2089 93.9154 10.3551 93.9959V95.0661H10.2835C10.2059 94.9944 10.1059 94.9079 9.9835 94.8064C9.86111 94.7049 9.71186 94.6049 9.53575 94.5064C9.3656 94.4139 9.18053 94.3377 8.98053 94.278C8.78054 94.2183 8.5492 94.1885 8.28651 94.1885C8.00294 94.1885 7.73428 94.2467 7.48056 94.3631C7.22683 94.4795 7.00445 94.6512 6.8134 94.878C6.62535 95.1049 6.47908 95.39 6.3746 95.7332C6.27013 96.0765 6.21789 96.4631 6.21789 96.8929C6.21789 97.3496 6.27311 97.7436 6.38356 98.075C6.49401 98.4033 6.64475 98.6809 6.83579 98.9078C7.02086 99.1287 7.23877 99.2959 7.48951 99.4093C7.74025 99.5197 8.00592 99.575 8.28651 99.575C8.54323 99.575 8.78054 99.5436 8.99844 99.4809C9.21635 99.4182 9.41038 99.3391 9.58052 99.2436C9.7447 99.1511 9.88649 99.0571 10.0059 98.9615C10.1253 98.863 10.2193 98.7795 10.288 98.7108H10.3551V99.7675C10.2089 99.8362 10.0701 99.9018 9.93873 99.9645C9.81037 100.027 9.65366 100.088 9.46858 100.148C9.27456 100.211 9.09396 100.259 8.9268 100.291C8.76263 100.324 8.5477 100.341 8.28204 100.341ZM12.4282 100.22H11.3581V98.9436H12.4282V100.22ZM17.5461 100.22H14.2954V99.5391H15.5043V95.0706H14.2954V94.4616C14.7521 94.4616 15.0879 94.3974 15.3028 94.2691C15.5207 94.1377 15.6431 93.8915 15.67 93.5303H16.364V99.5391H17.5461V100.22ZM22.9236 96.884C22.9236 98.081 22.749 98.96 22.3997 99.5212C22.0535 100.079 21.5176 100.359 20.7923 100.359C20.058 100.359 19.5192 100.073 19.1759 99.5033C18.8326 98.9332 18.661 98.063 18.661 96.8929C18.661 95.6899 18.8341 94.8109 19.1804 94.2556C19.5296 93.6974 20.0669 93.4183 20.7923 93.4183C21.5266 93.4183 22.0654 93.7064 22.4087 94.2825C22.752 94.8586 22.9236 95.7258 22.9236 96.884ZM21.7773 98.9168C21.8639 98.6959 21.9251 98.4168 21.9609 98.0795C21.9967 97.7422 22.0146 97.3437 22.0146 96.884C22.0146 96.4273 21.9967 96.0302 21.9609 95.6929C21.9251 95.3556 21.8624 95.075 21.7729 94.8512C21.6833 94.6243 21.5594 94.4527 21.4012 94.3362C21.246 94.2168 21.043 94.1571 20.7923 94.1571C20.5445 94.1571 20.34 94.2168 20.1789 94.3362C20.0207 94.4527 19.8953 94.6273 19.8027 94.8601C19.7132 95.087 19.652 95.3735 19.6192 95.7198C19.5863 96.0661 19.5699 96.4571 19.5699 96.8929C19.5699 97.3586 19.5833 97.7481 19.6102 98.0616C19.6401 98.375 19.7027 98.6556 19.7983 98.9033C19.8848 99.1332 20.0072 99.3108 20.1654 99.4362C20.3266 99.5585 20.5356 99.6197 20.7923 99.6197C21.04 99.6197 21.243 99.5615 21.4012 99.4451C21.5624 99.3257 21.6878 99.1496 21.7773 98.9168ZM27.9295 96.884C27.9295 98.081 27.7549 98.96 27.4056 99.5212C27.0593 100.079 26.5235 100.359 25.7982 100.359C25.0639 100.359 24.5251 100.073 24.1818 99.5033C23.8385 98.9332 23.6669 98.063 23.6669 96.8929C23.6669 95.6899 23.84 94.8109 24.1863 94.2556C24.5355 93.6974 25.0728 93.4183 25.7982 93.4183C26.5325 93.4183 27.0713 93.7064 27.4146 94.2825C27.7578 94.8586 27.9295 95.7258 27.9295 96.884ZM26.7832 98.9168C26.8698 98.6959 26.931 98.4168 26.9668 98.0795C27.0026 97.7422 27.0205 97.3437 27.0205 96.884C27.0205 96.4273 27.0026 96.0302 26.9668 95.6929C26.931 95.3556 26.8683 95.075 26.7788 94.8512C26.6892 94.6243 26.5653 94.4527 26.4071 94.3362C26.2519 94.2168 26.0489 94.1571 25.7982 94.1571C25.5504 94.1571 25.3459 94.2168 25.1847 94.3362C25.0265 94.4527 24.9012 94.6273 24.8086 94.8601C24.7191 95.087 24.6579 95.3735 24.6251 95.7198C24.5922 96.0661 24.5758 96.4571 24.5758 96.8929C24.5758 97.3586 24.5892 97.7481 24.6161 98.0616C24.6459 98.375 24.7086 98.6556 24.8042 98.9033C24.8907 99.1332 25.0131 99.3108 25.1713 99.4362C25.3325 99.5585 25.5415 99.6197 25.7982 99.6197C26.0459 99.6197 26.2489 99.5615 26.4071 99.4451C26.5683 99.3257 26.6937 99.1496 26.7832 98.9168ZM36.3696 96.8616C36.3696 97.9213 36.089 98.766 35.5279 99.3959C34.9697 100.026 34.2383 100.341 33.3339 100.341C32.9518 100.341 32.5906 100.302 32.2503 100.224C31.913 100.15 31.616 100.053 31.3593 99.9332V98.9526H31.4264C31.6414 99.1466 31.9145 99.3018 32.2458 99.4182C32.5772 99.5317 32.9309 99.5884 33.307 99.5884C33.9488 99.5884 34.4712 99.3541 34.8741 98.8854C35.2771 98.4168 35.4786 97.7989 35.4786 97.0317H32.2279V96.2571H35.4338C35.3652 95.6123 35.1413 95.1064 34.7622 94.7392C34.3861 94.3691 33.901 94.184 33.307 94.184C32.9398 94.184 32.5966 94.2407 32.2772 94.3542C31.9578 94.4676 31.6802 94.6258 31.4443 94.8288H31.3772V93.8437C31.616 93.7333 31.9085 93.6377 32.2548 93.5571C32.604 93.4736 32.9667 93.4318 33.3428 93.4318C34.304 93.4318 35.0488 93.7303 35.5771 94.3273C36.1055 94.9213 36.3696 95.7661 36.3696 96.8616ZM42.2039 100.22H41.3173V94.3407H39.0696C39.0606 94.678 39.0487 95.0079 39.0338 95.3303C39.0189 95.6497 39.0069 95.9362 38.998 96.1899C38.9741 96.8198 38.9353 97.3407 38.8815 97.7526C38.8308 98.1645 38.7636 98.5093 38.68 98.7869C38.5995 99.0586 38.5039 99.278 38.3935 99.4451C38.286 99.6123 38.1681 99.7526 38.0398 99.866C37.9054 99.9884 37.7607 100.081 37.6054 100.144C37.4532 100.203 37.2756 100.233 37.0726 100.233C37.0099 100.233 36.9457 100.23 36.8801 100.224C36.8174 100.221 36.7681 100.22 36.7323 100.22V99.36H36.795C36.8249 99.363 36.8502 99.366 36.8711 99.369C36.892 99.372 36.9234 99.3735 36.9652 99.3735C37.0726 99.3735 37.1726 99.3571 37.2651 99.3242C37.3577 99.2914 37.4368 99.2406 37.5025 99.172C37.7054 98.972 37.8532 98.6168 37.9457 98.1063C38.0413 97.5929 38.1084 96.9034 38.1472 96.0377C38.1621 95.7452 38.1771 95.3586 38.192 94.878C38.2069 94.3974 38.2204 93.9556 38.2323 93.5527H42.2039V100.22ZM48.2709 94.3183C48.5247 94.6109 48.7217 94.9735 48.862 95.4064C49.0023 95.8392 49.0724 96.3332 49.0724 96.8884C49.0724 97.4287 49.0038 97.9168 48.8665 98.3526C48.7291 98.7884 48.5306 99.1541 48.2709 99.4496C47.9993 99.76 47.6814 99.9899 47.3172 100.139C46.956 100.285 46.5575 100.359 46.1217 100.359C45.671 100.359 45.265 100.282 44.9038 100.13C44.5426 99.9779 44.2322 99.7511 43.9725 99.4496C43.7158 99.1541 43.5188 98.7899 43.3815 98.3571C43.2442 97.9242 43.1755 97.4347 43.1755 96.8884C43.1755 96.3273 43.2442 95.8347 43.3815 95.4108C43.5218 94.987 43.7203 94.6228 43.977 94.3183C44.2337 94.0228 44.5426 93.7989 44.9038 93.6467C45.268 93.4915 45.674 93.4139 46.1217 93.4139C46.5754 93.4139 46.9844 93.493 47.3486 93.6512C47.7127 93.8094 48.0202 94.0318 48.2709 94.3183ZM48.15 96.8884C48.15 96.4467 48.1023 96.0556 48.0068 95.7153C47.9112 95.375 47.7769 95.0929 47.6038 94.8691C47.4277 94.6392 47.2142 94.4676 46.9635 94.3542C46.7157 94.2377 46.4366 94.1795 46.1262 94.1795C45.8038 94.1795 45.5217 94.2362 45.2799 94.3497C45.0411 94.4601 44.8292 94.6333 44.6441 94.8691C44.468 95.0959 44.3322 95.381 44.2367 95.7243C44.1441 96.0676 44.0979 96.4556 44.0979 96.8884C44.0979 97.7631 44.2815 98.4332 44.6486 98.8989C45.0158 99.3615 45.5083 99.5929 46.1262 99.5929C46.7441 99.5929 47.2351 99.3615 47.5993 98.8989C47.9665 98.4332 48.15 97.7631 48.15 96.8884ZM54.7052 93.5527L52.2873 99.1675C52.1858 99.4033 52.0709 99.5929 51.9425 99.7362C51.8171 99.8794 51.6858 99.9869 51.5485 100.059C51.4112 100.133 51.2754 100.182 51.141 100.206C51.0097 100.23 50.8769 100.242 50.7425 100.242C50.6231 100.242 50.4828 100.239 50.3217 100.233C50.1605 100.227 50.0575 100.223 50.0127 100.22V99.3914H50.0754C50.1202 99.3974 50.1873 99.4048 50.2769 99.4138C50.3694 99.4197 50.4858 99.4227 50.6261 99.4227C50.6918 99.4227 50.7694 99.4197 50.859 99.4138C50.9485 99.4048 51.0306 99.3824 51.1052 99.3466C51.1918 99.3048 51.2724 99.2496 51.347 99.1809C51.4246 99.1093 51.4948 98.9974 51.5575 98.8451L51.7097 98.4914L49.3679 93.5527H50.3485L52.1574 97.475L53.7917 93.5527H54.7052ZM57.5753 97.7078H55.0499V96.8974H57.5753V97.7078ZM57.9335 100.22L60.1812 93.5527H61.2737L63.5214 100.22H62.5856L61.9812 98.3571H59.4334L58.829 100.22H57.9335ZM61.7349 97.6004L60.7051 94.4571L59.6797 97.6004H61.7349ZM68.6751 98.1735C68.6751 98.5048 68.6124 98.7974 68.487 99.0511C68.3617 99.3048 68.193 99.5138 67.9811 99.6779C67.7303 99.875 67.4617 100.015 67.1751 100.099C66.8885 100.179 66.5184 100.22 66.0647 100.22H64.1528V93.5527H65.9214C66.396 93.5527 66.7512 93.5691 66.9871 93.6019C67.2259 93.6318 67.4542 93.7049 67.6721 93.8213C67.9109 93.9497 68.0855 94.1183 68.196 94.3273C68.3064 94.5333 68.3617 94.7765 68.3617 95.0571C68.3617 95.3706 68.2781 95.6511 68.1109 95.8989C67.9467 96.1467 67.7184 96.3407 67.4259 96.481V96.5168C67.8229 96.6243 68.1303 96.8213 68.3482 97.1078C68.5661 97.3914 68.6751 97.7466 68.6751 98.1735ZM67.4393 95.1825C67.4393 95.0213 67.4124 94.8825 67.3587 94.7661C67.305 94.6467 67.2184 94.5527 67.099 94.484C66.9557 94.4034 66.796 94.3542 66.6199 94.3362C66.4438 94.3183 66.2005 94.3094 65.8901 94.3094H65.0393V96.2616H66.0468C66.3244 96.2616 66.5289 96.2481 66.6602 96.2213C66.7915 96.1914 66.9274 96.1317 67.0676 96.0422C67.202 95.9556 67.2975 95.8422 67.3542 95.7019C67.4109 95.5616 67.4393 95.3885 67.4393 95.1825ZM67.7527 98.2093C67.7527 97.9586 67.7169 97.7526 67.6453 97.5914C67.5736 97.4272 67.4288 97.2884 67.2109 97.175C67.0706 97.1004 66.9169 97.0526 66.7497 97.0317C66.5856 97.0108 66.3512 97.0004 66.0468 97.0004H65.0393V99.463H65.7602C66.1483 99.463 66.4542 99.4451 66.6781 99.4093C66.902 99.3735 67.099 99.2974 67.2691 99.1809C67.4363 99.0645 67.5587 98.9332 67.6363 98.7869C67.7139 98.6377 67.7527 98.4451 67.7527 98.2093ZM71.1198 100.22V94.3407H68.8811V93.5527H74.2451V94.3407H72.0064V100.22H71.1198ZM77.169 97.7078H74.6436V96.8974H77.169V97.7078ZM82.2778 98.0571C82.2778 98.4004 82.2211 98.7168 82.1077 99.0063C81.9943 99.2959 81.842 99.5376 81.651 99.7317C81.451 99.9376 81.2271 100.094 80.9794 100.202C80.7316 100.306 80.4585 100.359 80.16 100.359C79.8585 100.359 79.5839 100.308 79.3361 100.206C79.0913 100.105 78.8749 99.9541 78.6869 99.7541C78.457 99.5123 78.2764 99.1899 78.1451 98.7869C78.0167 98.381 77.9525 97.8825 77.9525 97.2914C77.9525 96.7123 78.0122 96.1899 78.1316 95.7243C78.251 95.2556 78.4346 94.8482 78.6824 94.5019C78.9242 94.1646 79.2361 93.9019 79.6182 93.7139C80.0003 93.5228 80.4421 93.4273 80.9435 93.4273C81.0928 93.4273 81.2316 93.4348 81.36 93.4497C81.4883 93.4646 81.6017 93.4885 81.7002 93.5213V94.3765H81.6599C81.5794 94.3318 81.4629 94.2915 81.3107 94.2556C81.1585 94.2168 80.9958 94.1974 80.8226 94.1974C80.2674 94.1974 79.8182 94.3855 79.4749 94.7616C79.1346 95.1347 78.9331 95.6899 78.8704 96.4273C79.0824 96.278 79.3003 96.1631 79.5242 96.0825C79.748 96.0019 79.9928 95.9616 80.2585 95.9616C80.5182 95.9616 80.745 95.9885 80.9391 96.0422C81.1361 96.0929 81.3405 96.1974 81.5525 96.3556C81.7973 96.5407 81.9793 96.775 82.0987 97.0586C82.2181 97.3422 82.2778 97.675 82.2778 98.0571ZM81.3689 98.0929C81.3689 97.8183 81.3331 97.5884 81.2614 97.4034C81.1898 97.2183 81.0734 97.0601 80.9122 96.9287C80.7958 96.8332 80.6629 96.7705 80.5137 96.7407C80.3674 96.7108 80.2167 96.6959 80.0615 96.6959C79.8525 96.6959 79.6495 96.7272 79.4525 96.7899C79.2555 96.8526 79.0615 96.9437 78.8704 97.0631C78.8645 97.1287 78.86 97.1929 78.857 97.2556C78.854 97.3153 78.8525 97.3914 78.8525 97.484C78.8525 97.9466 78.8973 98.3198 78.9869 98.6033C79.0794 98.8869 79.1928 99.1018 79.3271 99.2481C79.4555 99.3884 79.5868 99.4869 79.7212 99.5436C79.8585 99.6003 80.0062 99.6287 80.1644 99.6287C80.5227 99.6287 80.8122 99.5003 81.0331 99.2436C81.257 98.9869 81.3689 98.6033 81.3689 98.0929Z" fill="#303549"/>
<path d="M28 21.8203H27.23V20.9403C27.3843 20.8223 27.5102 20.6712 27.5985 20.4982C27.6868 20.3251 27.7351 20.1345 27.74 19.9403V17.7003C27.7417 17.3933 27.6339 17.0958 27.436 16.8612C27.238 16.6266 26.9629 16.4702 26.66 16.4203V15.5603C26.66 15.5318 26.6543 15.5037 26.6431 15.4775C26.6319 15.4514 26.6156 15.4278 26.595 15.4081C26.5744 15.3885 26.5501 15.3732 26.5234 15.3633C26.4968 15.3534 26.4684 15.3489 26.44 15.3503H24.37C24.2155 15.349 24.0623 15.3782 23.9192 15.4365C23.7761 15.4947 23.6459 15.5806 23.5362 15.6894C23.4265 15.7982 23.3394 15.9276 23.28 16.0702C23.2206 16.2128 23.19 16.3658 23.19 16.5203V18.1903H22.56C22.4998 18.1927 22.4426 18.2177 22.4 18.2603L21.6 19.1903H21.38V14.0003C21.38 13.9718 21.3743 13.9437 21.3631 13.9175C21.3519 13.8914 21.3356 13.8678 21.315 13.8481C21.2944 13.8285 21.2701 13.8132 21.2434 13.8033C21.2168 13.7934 21.1884 13.7889 21.16 13.7903H20C19.9716 13.7889 19.9432 13.7934 19.9166 13.8033C19.8899 13.8132 19.8656 13.8285 19.845 13.8481C19.8244 13.8678 19.8081 13.8914 19.7969 13.9175C19.7857 13.9437 19.78 13.9718 19.78 14.0003V19.2103H19.38C19.3217 19.2103 19.2657 19.2335 19.2244 19.2747C19.1832 19.316 19.16 19.3719 19.16 19.4303V21.8403H18.9C18.8433 21.8402 18.7888 21.862 18.7479 21.9011C18.7069 21.9403 18.6826 21.9937 18.68 22.0503V24.0503C18.6826 24.1069 18.7069 24.1603 18.7479 24.1994C18.7888 24.2385 18.8433 24.2603 18.9 24.2603H28C28.0567 24.2603 28.1111 24.2385 28.1521 24.1994C28.1931 24.1603 28.2174 24.1069 28.22 24.0503V22.0003C28.2105 21.9491 28.1833 21.9029 28.143 21.87C28.1027 21.837 28.052 21.8194 28 21.8203ZM23.61 16.5203C23.61 16.4223 23.6295 16.3252 23.6673 16.2348C23.7051 16.1443 23.7605 16.0623 23.8303 15.9935C23.9 15.9246 23.9828 15.8703 24.0737 15.8337C24.1647 15.7971 24.262 15.779 24.36 15.7803H26.23V16.4203C25.9253 16.4681 25.6478 16.6235 25.4478 16.8583C25.2479 17.0931 25.1387 17.3918 25.14 17.7003V19.9103C25.1449 20.1045 25.1932 20.2951 25.2815 20.4682C25.3698 20.6412 25.4957 20.7923 25.65 20.9103V21.7903H24.4V18.4003C24.4 18.3446 24.3779 18.2912 24.3385 18.2518C24.2991 18.2124 24.2457 18.1903 24.19 18.1903H23.62L23.61 16.5203ZM20.23 14.2003H21V19.2003H20.28L20.23 14.2003ZM19.61 19.6203H21.7C21.7302 19.6215 21.7603 19.6158 21.788 19.6037C21.8158 19.5915 21.8404 19.5733 21.86 19.5503L22.66 18.6203H24V19.6203H23.24C23.2116 19.6202 23.1834 19.626 23.1573 19.6372C23.1311 19.6483 23.1075 19.6647 23.0879 19.6853C23.0682 19.7058 23.053 19.7302 23.043 19.7568C23.0331 19.7835 23.0286 19.8119 23.03 19.8403C23.03 19.896 23.0521 19.9494 23.0915 19.9888C23.1309 20.0282 23.1843 20.0503 23.24 20.0503H24V21.8003H22.8V20.8703C22.8001 20.8136 22.7783 20.7591 22.7391 20.7181C22.7 20.6772 22.6466 20.6529 22.59 20.6503H21C20.9417 20.6503 20.8857 20.6735 20.8444 20.7147C20.8032 20.756 20.78 20.8119 20.78 20.8703V21.8003H19.61V19.6203ZM22.37 21.1003V21.8203H21.21V21.1003H22.37ZM26.09 21.8203V21.1503C26.2065 21.1864 26.3281 21.2033 26.45 21.2003C26.572 21.2057 26.6941 21.1888 26.81 21.1503V21.8203H26.09ZM26.45 20.7703C26.3362 20.7716 26.2233 20.7503 26.1178 20.7077C26.0123 20.6651 25.9163 20.6019 25.8354 20.522C25.7545 20.442 25.6902 20.3467 25.6464 20.2417C25.6026 20.1367 25.58 20.0241 25.58 19.9103V17.7003C25.58 17.4695 25.6717 17.2483 25.8348 17.0851C25.998 16.9219 26.2193 16.8303 26.45 16.8303C26.6807 16.8303 26.902 16.9219 27.0652 17.0851C27.2283 17.2483 27.32 17.4695 27.32 17.7003V19.9103C27.32 20.0241 27.2974 20.1367 27.2536 20.2417C27.2098 20.3467 27.1455 20.442 27.0646 20.522C26.9837 20.6019 26.8877 20.6651 26.7822 20.7077C26.6767 20.7503 26.5638 20.7716 26.45 20.7703Z" fill="#0089FF"/>
<path opacity="0.5" d="M5 42.1904H318.93" stroke="#0089FF" stroke-width="0.42" stroke-miterlimit="10"/>
<path d="M150.68 30.0905C150.587 30.0855 150.493 30.0855 150.4 30.0905C150.4 29.9105 150.4 29.7405 150.4 29.5805C150.415 29.481 150.415 29.3799 150.4 29.2805C150.1 28.2805 149.8 27.2805 149.49 26.2805C149.304 25.7923 149.216 25.2726 149.23 24.7505C149.23 24.5505 149.16 24.4805 148.96 24.4805H146.91C146.69 24.4805 146.62 24.5405 146.62 24.7705V25.2305C146.37 25.2305 146.3 25.3105 146.29 25.4305C146.28 25.5505 146.29 25.6205 146.55 25.6905C146.42 26.0805 146.3 26.4705 146.18 26.8705C146.18 26.8705 146.18 26.8205 146.18 26.8005C146.18 26.5605 146.18 26.3205 146.18 26.0805C146.18 25.8405 146.11 25.8105 145.91 25.8105H144.3C144.14 25.8105 144.06 25.8905 144.06 26.0605V26.2605C144.078 26.5318 144.041 26.8041 143.95 27.0605C143.83 27.3905 143.73 27.7405 143.63 28.0605C143.63 28.0605 143.63 28.0005 143.63 27.9605V27.7005C143.63 27.4905 143.57 27.4305 143.36 27.4305H142.49C142.28 27.4305 142.21 27.4905 142.22 27.7105C142.23 27.9177 142.2 28.125 142.13 28.3205L141.77 29.4805C141.729 29.6349 141.699 29.792 141.68 29.9505C141.68 30.0105 141.68 30.0305 141.6 30.0305C141.487 30.0205 141.373 30.0205 141.26 30.0305C141.212 30.0352 141.168 30.057 141.135 30.0919C141.102 30.1268 141.082 30.1725 141.08 30.2205C141.074 30.2692 141.085 30.3185 141.113 30.3591C141.141 30.3996 141.182 30.4286 141.23 30.4405H150.71C150.87 30.4405 150.96 30.3605 150.96 30.2305C150.96 30.1005 150.83 30.0905 150.68 30.0905ZM143.32 29.0905C143.301 29.1652 143.278 29.2386 143.25 29.3105C143.166 29.5161 143.135 29.7397 143.16 29.9605C143.16 30.0405 143.16 30.0705 143.05 30.0705C142.94 30.0705 142.76 30.0705 142.61 30.0705H142.16C142.1 30.0705 142.07 30.0705 142.08 29.9905C142.074 29.9373 142.074 29.8837 142.08 29.8305C142.23 29.3305 142.39 28.8305 142.54 28.3305C142.566 28.2289 142.583 28.1251 142.59 28.0205C142.59 27.9505 142.59 27.9205 142.68 27.9205H143.05C143.05 27.9205 143.12 27.9205 143.12 27.9705C143.18 28.2805 143.24 28.5805 143.29 28.8905C143.311 28.955 143.321 29.0226 143.32 29.0905ZM145.48 29.0905C145.479 29.1046 145.475 29.1184 145.468 29.1308C145.461 29.1432 145.452 29.154 145.44 29.1626C145.429 29.1711 145.416 29.1771 145.402 29.1802C145.388 29.1832 145.374 29.1834 145.36 29.1805C145.15 29.1805 145.05 29.2505 145.05 29.4005C145.05 29.5505 145.14 29.6105 145.35 29.6205V30.0005C145.35 30.0805 145.29 30.0605 145.25 30.0605H143.77C143.57 30.0605 143.58 30.0605 143.57 29.8605C143.579 29.6202 143.63 29.3834 143.72 29.1605C143.95 28.4105 144.19 27.6605 144.41 26.9005C144.435 26.7381 144.435 26.5728 144.41 26.4105C144.41 26.3105 144.41 26.2805 144.54 26.2805C144.85 26.2805 145.16 26.2805 145.48 26.2805C145.53 26.2805 145.59 26.2805 145.58 26.3605C145.59 26.8355 145.65 27.3082 145.76 27.7705C145.775 27.8194 145.775 27.8716 145.76 27.9205C145.72 28.3205 145.59 28.7005 145.48 29.0905ZM149.79 30.0905H146C145.87 30.0905 145.87 30.0905 145.87 29.9605V29.6405H148.58C148.634 29.6487 148.689 29.6384 148.736 29.6111C148.784 29.5839 148.82 29.5413 148.84 29.4905C148.849 29.4571 148.851 29.4219 148.844 29.3878C148.838 29.3537 148.823 29.3217 148.801 29.2944C148.78 29.2671 148.752 29.2452 148.721 29.2306C148.689 29.2161 148.655 29.2091 148.62 29.2105C148.26 29.2105 147.91 29.2105 147.55 29.2105H145.95C145.947 29.1738 145.947 29.1371 145.95 29.1005C146.28 28.0105 146.62 26.9205 146.95 25.8405C146.955 25.8104 146.971 25.7834 146.995 25.7648C147.019 25.7462 147.05 25.7375 147.08 25.7405H148C148.17 25.7405 148.26 25.6605 148.26 25.5305C148.26 25.4005 148.16 25.3105 148 25.3105H147V25.0005H148.74C148.745 25.0937 148.745 25.1872 148.74 25.2805C148.732 25.4737 148.759 25.6668 148.82 25.8505C149.19 27.0305 149.56 28.2105 149.91 29.4005C149.935 29.5796 149.935 29.7614 149.91 29.9405C150 30.1005 150 30.0705 149.79 30.0705V30.0905Z" fill="#0089FF"/>
<path d="M143.28 23.7995C143.594 23.8821 143.925 23.8691 144.232 23.7622C144.538 23.6554 144.806 23.4594 145 23.1995L145.07 23.1195C145.278 23.2866 145.529 23.392 145.794 23.4238C146.059 23.4556 146.328 23.4126 146.57 23.2995C146.586 23.3477 146.606 23.3945 146.63 23.4395C146.766 23.7239 146.994 23.9542 147.277 24.0938C147.56 24.2334 147.881 24.2741 148.19 24.2095C148.492 24.1455 148.763 23.9831 148.962 23.7477C149.162 23.5124 149.277 23.2175 149.29 22.9095C149.307 22.6135 149.228 22.3198 149.063 22.0728C148.899 21.8258 148.66 21.6386 148.38 21.5395C148.351 21.5316 148.324 21.5149 148.305 21.4917C148.285 21.4685 148.273 21.4398 148.27 21.4095C148.222 21.2023 148.128 21.0087 147.994 20.8437C147.86 20.6788 147.689 20.5468 147.496 20.4579C147.303 20.369 147.092 20.3257 146.879 20.3312C146.667 20.3366 146.458 20.3908 146.27 20.4895C146.18 20.4895 146.14 20.4895 146.07 20.4895C145.941 20.354 145.786 20.2461 145.614 20.1723C145.442 20.0986 145.257 20.0605 145.07 20.0605C144.883 20.0605 144.698 20.0986 144.526 20.1723C144.354 20.2461 144.199 20.354 144.07 20.4895C144.037 20.5286 143.996 20.5591 143.949 20.5783C143.902 20.5975 143.851 20.6048 143.8 20.5995C143.551 20.578 143.301 20.6135 143.067 20.7035C142.834 20.7935 142.625 20.9356 142.455 21.1189C142.285 21.3022 142.16 21.5219 142.088 21.7612C142.016 22.0005 141.999 22.253 142.04 22.4995C142.1 22.8124 142.249 23.1013 142.469 23.3318C142.689 23.5623 142.97 23.7247 143.28 23.7995ZM143.71 20.9795C143.909 20.981 144.105 21.032 144.28 21.1281C144.454 21.2241 144.602 21.3621 144.71 21.5295C144.75 21.5861 144.801 21.6338 144.86 21.6695C144.902 21.6851 144.948 21.6868 144.992 21.6742C145.035 21.6615 145.073 21.6354 145.1 21.5995C145.126 21.5613 145.14 21.516 145.14 21.4695C145.14 21.4231 145.126 21.3778 145.1 21.3395C144.957 21.1047 144.757 20.9089 144.52 20.7695L144.44 20.7195C144.535 20.6301 144.648 20.5618 144.772 20.519C144.895 20.4763 145.027 20.46 145.157 20.4714C145.287 20.4827 145.413 20.5213 145.528 20.5848C145.642 20.6482 145.742 20.735 145.82 20.8395C145.665 21.0188 145.562 21.2364 145.52 21.4695C145.52 21.5695 145.52 21.6795 145.52 21.7895C145.513 21.8217 145.513 21.8549 145.521 21.8869C145.528 21.9188 145.543 21.9487 145.564 21.9743C145.584 21.9999 145.61 22.0205 145.64 22.0347C145.67 22.0488 145.702 22.0562 145.735 22.0562C145.768 22.0562 145.8 22.0488 145.83 22.0347C145.86 22.0205 145.886 21.9999 145.906 21.9743C145.927 21.9487 145.942 21.9188 145.949 21.8869C145.957 21.8549 145.957 21.8217 145.95 21.7895C145.949 21.5392 146.042 21.2976 146.21 21.1124C146.379 20.9273 146.611 20.8121 146.86 20.7895C147.077 20.7775 147.292 20.8364 147.472 20.9572C147.653 21.0781 147.789 21.2544 147.86 21.4595H147.63C147.423 21.4997 147.23 21.5927 147.07 21.7295C147.043 21.7501 147.021 21.7765 147.006 21.8069C146.991 21.8373 146.983 21.8707 146.983 21.9045C146.983 21.9384 146.991 21.9718 147.006 22.0022C147.021 22.0325 147.043 22.059 147.07 22.0795C147.16 22.1895 147.29 22.1695 147.41 22.0795C147.492 22.0059 147.589 21.9501 147.694 21.9157C147.799 21.8813 147.91 21.869 148.02 21.8795C148.248 21.8983 148.463 21.995 148.629 22.1534C148.795 22.3117 148.901 22.5222 148.93 22.7495C148.916 22.9594 148.835 23.1593 148.701 23.3209C148.566 23.4825 148.384 23.5975 148.18 23.6495C147.976 23.7016 147.761 23.6881 147.565 23.6109C147.37 23.5337 147.203 23.3967 147.09 23.2195C147.052 23.1269 147.029 23.0292 147.02 22.9295C147.02 22.7995 146.95 22.7195 146.85 22.6895C146.75 22.6595 146.69 22.6895 146.59 22.8095C146.482 22.8957 146.355 22.9541 146.22 22.9795C146.032 23.0249 145.835 23.0107 145.656 22.939C145.477 22.8674 145.325 22.7417 145.22 22.5795C145.2 22.544 145.177 22.5105 145.15 22.4795C145.12 22.4385 145.076 22.4099 145.026 22.3988C144.977 22.3878 144.925 22.3952 144.88 22.4195C144.855 22.4303 144.833 22.446 144.815 22.4655C144.796 22.485 144.782 22.5081 144.773 22.5333C144.763 22.5585 144.759 22.5853 144.76 22.6122C144.762 22.639 144.768 22.6653 144.78 22.6895C144.797 22.7146 144.806 22.7442 144.806 22.7745C144.806 22.8049 144.797 22.8345 144.78 22.8595C144.633 23.0863 144.415 23.2582 144.16 23.3486C143.905 23.4389 143.627 23.4428 143.37 23.3595C143.092 23.2691 142.856 23.0818 142.704 22.8318C142.552 22.5817 142.496 22.2855 142.544 21.9971C142.593 21.7088 142.743 21.4474 142.968 21.2606C143.193 21.0738 143.478 20.9741 143.77 20.9795H143.71Z" fill="#0089FF"/>
<path d="M148 27C147.796 27 147.6 27.0811 147.456 27.2255C147.311 27.3699 147.23 27.5658 147.23 27.77C147.23 27.9742 147.311 28.1701 147.456 28.3145C147.6 28.4589 147.796 28.54 148 28.54C148.101 28.5413 148.201 28.5226 148.294 28.485C148.387 28.4474 148.472 28.3917 148.544 28.321C148.616 28.2503 148.672 28.166 148.711 28.0732C148.75 27.9803 148.77 27.8807 148.77 27.78C148.771 27.678 148.752 27.5768 148.714 27.4823C148.676 27.3877 148.62 27.3016 148.548 27.2291C148.476 27.1565 148.391 27.0989 148.297 27.0596C148.203 27.0202 148.102 27 148 27ZM148 28.11C147.91 28.11 147.823 28.0742 147.76 28.0104C147.696 27.9467 147.66 27.8602 147.66 27.77C147.652 27.7212 147.654 27.6711 147.667 27.6232C147.68 27.5754 147.703 27.5309 147.735 27.493C147.767 27.4551 147.807 27.4246 147.852 27.4037C147.896 27.3827 147.945 27.3719 147.995 27.3719C148.045 27.3719 148.094 27.3827 148.138 27.4037C148.183 27.4246 148.223 27.4551 148.255 27.493C148.287 27.5309 148.31 27.5754 148.323 27.6232C148.336 27.6711 148.338 27.7212 148.33 27.77C148.327 27.8567 148.292 27.9392 148.231 28.0006C148.169 28.0619 148.087 28.0975 148 28.1V28.11Z" fill="#0089FF"/>
<path d="M143.7 23.1695C143.88 23.1695 143.98 23.0995 143.98 22.9595C143.98 22.8195 143.9 22.7395 143.71 22.7395C143.572 22.7354 143.44 22.6815 143.339 22.5877C143.238 22.494 143.174 22.3667 143.16 22.2295C143.159 22.2001 143.152 22.1712 143.139 22.1447C143.126 22.1183 143.107 22.0949 143.085 22.076C143.062 22.0572 143.036 22.0433 143.007 22.0353C142.979 22.0272 142.949 22.0253 142.92 22.0295C142.89 22.0331 142.861 22.0428 142.835 22.0581C142.809 22.0733 142.786 22.0938 142.768 22.1182C142.751 22.1426 142.738 22.1704 142.731 22.1998C142.725 22.2293 142.724 22.2599 142.73 22.2895C142.759 22.5283 142.873 22.7488 143.051 22.9104C143.229 23.072 143.46 23.164 143.7 23.1695Z" fill="#0089FF"/>
<path d="M261.36 27.5704C261.151 27.5727 260.948 27.6405 260.779 27.7642C260.61 27.888 260.485 28.0616 260.42 28.2604H258.42C258.352 28.0639 258.224 27.8935 258.055 27.7729C257.886 27.6523 257.683 27.5875 257.475 27.5875C257.267 27.5875 257.064 27.6523 256.895 27.7729C256.726 27.8935 256.598 28.0639 256.53 28.2604H254.53C254.457 28.0333 254.306 27.8397 254.103 27.7144C253.9 27.5892 253.659 27.5406 253.423 27.5774C253.188 27.6142 252.973 27.734 252.818 27.9152C252.663 28.0963 252.578 28.327 252.578 28.5654C252.578 28.8039 252.663 29.0345 252.818 29.2157C252.973 29.3968 253.188 29.5166 253.423 29.5534C253.659 29.5903 253.9 29.5417 254.103 29.4164C254.306 29.2912 254.457 29.0975 254.53 28.8704H256.53C256.598 29.0669 256.726 29.2373 256.895 29.3579C257.064 29.4785 257.267 29.5434 257.475 29.5434C257.683 29.5434 257.886 29.4785 258.055 29.3579C258.224 29.2373 258.352 29.0669 258.42 28.8704H260.42C260.499 29.0887 260.651 29.2728 260.85 29.3913C261.05 29.5097 261.284 29.5551 261.514 29.5196C261.743 29.4842 261.953 29.3701 262.107 29.1969C262.262 29.0237 262.351 28.8023 262.36 28.5704C262.36 28.3052 262.255 28.0509 262.067 27.8633C261.88 27.6758 261.625 27.5704 261.36 27.5704ZM257.45 28.7704C257.423 28.7718 257.396 28.7676 257.37 28.7582C257.345 28.7487 257.322 28.7342 257.302 28.7155C257.282 28.6968 257.267 28.6743 257.256 28.6493C257.245 28.6244 257.24 28.5976 257.24 28.5704C257.24 28.5147 257.262 28.4613 257.302 28.4219C257.341 28.3826 257.394 28.3604 257.45 28.3604C257.481 28.3536 257.513 28.3538 257.543 28.3609C257.574 28.368 257.602 28.3819 257.627 28.4016C257.651 28.4213 257.671 28.4462 257.685 28.4746C257.698 28.5029 257.706 28.534 257.706 28.5654C257.706 28.5969 257.698 28.6279 257.685 28.6563C257.671 28.6846 257.651 28.7096 257.627 28.7292C257.602 28.7489 257.574 28.7628 257.543 28.77C257.513 28.7771 257.481 28.7773 257.45 28.7704ZM253.53 28.9604C253.45 28.9624 253.371 28.9404 253.304 28.8972C253.237 28.854 253.184 28.7917 253.152 28.7182C253.121 28.6447 253.112 28.5635 253.127 28.4849C253.142 28.4064 253.181 28.3342 253.237 28.2777C253.294 28.2212 253.366 28.1829 253.445 28.1678C253.523 28.1527 253.604 28.1614 253.678 28.1929C253.751 28.2244 253.814 28.2772 253.857 28.3445C253.9 28.4118 253.922 28.4905 253.92 28.5704C253.926 28.6249 253.92 28.68 253.903 28.732C253.886 28.784 253.858 28.8319 253.821 28.8724C253.784 28.913 253.739 28.9454 253.689 28.9674C253.639 28.9895 253.585 29.0007 253.53 29.0004V28.9604ZM261.36 28.9604C261.266 28.9454 261.181 28.8974 261.119 28.825C261.057 28.7526 261.023 28.6606 261.023 28.5654C261.023 28.4703 261.057 28.3782 261.119 28.3058C261.181 28.2334 261.266 28.1854 261.36 28.1704C261.417 28.1613 261.476 28.1647 261.531 28.1804C261.587 28.196 261.639 28.2236 261.683 28.2611C261.727 28.2987 261.762 28.3453 261.786 28.3979C261.81 28.4504 261.823 28.5076 261.823 28.5654C261.823 28.6233 261.81 28.6805 261.786 28.733C261.762 28.7855 261.727 28.8322 261.683 28.8697C261.639 28.9073 261.587 28.9349 261.531 28.9505C261.476 28.9662 261.417 28.9696 261.36 28.9604Z" fill="#0089FF"/>
<path d="M257.45 28.1299C257.333 28.1299 257.221 28.1762 257.139 28.2588C257.056 28.3413 257.01 28.4532 257.01 28.5699C257.013 28.6848 257.06 28.7942 257.142 28.8746C257.225 28.9549 257.335 28.9999 257.45 28.9999C257.564 28.9999 257.673 28.9546 257.754 28.8739C257.835 28.7933 257.88 28.6839 257.88 28.5699C257.88 28.4549 257.835 28.3445 257.755 28.2622C257.674 28.18 257.565 28.1325 257.45 28.1299Z" fill="#0089FF"/>
<path d="M282.43 28.7004C281.882 28.1532 281.446 27.5033 281.149 26.7877C280.853 26.0722 280.7 25.3051 280.7 24.5304C280.7 23.7556 280.853 22.9885 281.149 22.273C281.446 21.5574 281.882 20.9075 282.43 20.3604" stroke="#0089FF" stroke-width="0.75" stroke-linecap="round" stroke-linejoin="round"/>
<path d="M290.77 20.3604C291.873 21.468 292.492 22.9673 292.492 24.5304C292.492 26.0934 291.873 27.5928 290.77 28.7004" stroke="#0089FF" stroke-width="0.75" stroke-linecap="round" stroke-linejoin="round"/>
<path d="M283.91 27.2196C283.199 26.5071 282.799 25.5414 282.799 24.5346C282.799 23.5278 283.199 22.5621 283.91 21.8496" stroke="#0089FF" stroke-width="0.75" stroke-linecap="round" stroke-linejoin="round"/>
<path d="M289.29 21.8496C290.001 22.5621 290.401 23.5278 290.401 24.5346C290.401 25.5414 290.001 26.5071 289.29 27.2196" stroke="#0089FF" stroke-width="0.75" stroke-linecap="round" stroke-linejoin="round"/>
<path d="M287.77 22.3799V25.9999C287.767 26.3058 287.644 26.5983 287.427 26.8137C287.209 27.0291 286.916 27.1499 286.61 27.1499C286.306 27.1473 286.015 27.0253 285.8 26.8102C285.585 26.5951 285.463 26.3041 285.46 25.9999V22.3799" stroke="#0089FF" stroke-width="0.75" stroke-miterlimit="10" stroke-linecap="round"/>
<path d="M286.61 27.0996V30.1896" stroke="#0089FF" stroke-width="0.75" stroke-miterlimit="10" stroke-linecap="round"/>
<path d="M287.34 30.1904H285.89" stroke="#0089FF" stroke-width="0.75" stroke-miterlimit="10" stroke-linecap="round"/>
<path d="M310.9 20.54C310.552 20.9744 310.352 21.509 310.331 22.0653C310.309 22.6215 310.467 23.17 310.78 23.63C311.09 24.0685 311.236 24.6015 311.194 25.1366C311.152 25.6717 310.924 26.1752 310.55 26.56" stroke="#0089FF" stroke-width="0.75" stroke-linecap="round" stroke-linejoin="round"/>
<path d="M315.59 20.54C315.243 20.9751 315.045 21.5095 315.023 22.0654C315.002 22.6212 315.158 23.1694 315.47 23.63C315.78 24.0685 315.926 24.6015 315.884 25.1366C315.842 25.6717 315.614 26.1752 315.24 26.56" stroke="#0089FF" stroke-width="0.75" stroke-linecap="round" stroke-linejoin="round"/>
<path d="M317.94 20.54C317.593 20.9751 317.395 21.5095 317.373 22.0654C317.352 22.6212 317.508 23.1694 317.82 23.63C318.13 24.0685 318.276 24.6015 318.234 25.1366C318.192 25.6717 317.964 26.1752 317.59 26.56" stroke="#0089FF" stroke-width="0.75" stroke-linecap="round" stroke-linejoin="round"/>
<path d="M308.55 20.54C308.203 20.9751 308.005 21.5095 307.983 22.0654C307.962 22.6212 308.118 23.1694 308.43 23.63C308.74 24.0685 308.886 24.6015 308.844 25.1366C308.802 25.6717 308.574 26.1752 308.2 26.56" stroke="#0089FF" stroke-width="0.75" stroke-linecap="round" stroke-linejoin="round"/>
<path d="M313.24 20.54C312.893 20.9755 312.696 21.5107 312.676 22.0669C312.656 22.6231 312.815 23.171 313.13 23.63C313.44 24.0689 313.586 24.603 313.542 25.1386C313.498 25.6743 313.267 26.1775 312.89 26.56" stroke="#0089FF" stroke-width="0.75" stroke-linecap="round" stroke-linejoin="round"/>
<path d="M307.21 30.0105V28.4805H319V30.0105" stroke="#0089FF" stroke-width="0.75" stroke-linecap="round" stroke-linejoin="round"/>
<path d="M174.8 26.8703L170.25 31.4203C170.189 31.4826 170.115 31.532 170.035 31.5658C169.954 31.5995 169.867 31.6169 169.78 31.6169C169.693 31.6169 169.606 31.5995 169.525 31.5658C169.445 31.532 169.371 31.4826 169.31 31.4203L169.16 31.2603C169.098 31.1997 169.049 31.1274 169.015 31.0475C168.981 30.9677 168.964 30.8819 168.964 30.7953C168.964 30.7086 168.981 30.6229 169.015 30.543C169.049 30.4631 169.098 30.3908 169.16 30.3303L173.71 25.7803" stroke="#0089FF" stroke-width="0.75" stroke-linecap="round" stroke-linejoin="round"/>
<path d="M173.06 25.1896L172.3 25.8396C172.195 25.9331 172.06 25.9848 171.92 25.9848C171.78 25.9848 171.644 25.9331 171.54 25.8396V25.8396C171.448 25.7384 171.397 25.6065 171.397 25.4696C171.397 25.3328 171.448 25.2009 171.54 25.0996L172.24 24.3896" stroke="#0089FF" stroke-width="0.75" stroke-linecap="round" stroke-linejoin="round"/>
<path d="M173.94 22.5099L176.36 20.0099C176.36 20.0099 177.45 18.7499 177.99 19.0099C177.99 19.0099 179.77 19.3599 179.99 23.0099L179.78 23.2499L177.42 20.8899L174.82 23.4299" stroke="#0089FF" stroke-width="0.75" stroke-linecap="round" stroke-linejoin="round"/>
<path d="M173.3 22.5896C173.329 22.5606 173.363 22.5376 173.401 22.5219C173.439 22.5061 173.479 22.498 173.52 22.498C173.561 22.498 173.601 22.5061 173.639 22.5219C173.677 22.5376 173.711 22.5606 173.74 22.5896L175.5 24.3496C175.5 24.3496 175.84 24.6796 175.4 25.1196C175.329 25.2075 175.296 25.3197 175.307 25.4319C175.318 25.5442 175.373 25.6475 175.46 25.7196L175.88 26.1296C175.937 26.1907 175.969 26.2711 175.969 26.3546C175.969 26.4382 175.937 26.5186 175.88 26.5796L175.5 26.9496C175.471 26.9787 175.437 27.0017 175.399 27.0174C175.361 27.0331 175.321 27.0412 175.28 27.0412C175.239 27.0412 175.199 27.0331 175.161 27.0174C175.123 27.0017 175.089 26.9787 175.06 26.9496L172.23 24.1196C172.174 24.0602 172.142 23.9815 172.142 23.8996C172.142 23.8178 172.174 23.7391 172.23 23.6796C172.44 23.4496 172.83 23.0496 173.3 22.5896Z" stroke="#0089FF" stroke-width="0.66" stroke-linecap="round" stroke-linejoin="round"/>
<path d="M175.71 25.9602L177.22 24.4502" stroke="#0089FF" stroke-width="0.75" stroke-linecap="round" stroke-linejoin="round"/>
<path d="M170.143 30.6162C170.245 30.5147 170.286 30.3912 170.235 30.3404C170.185 30.2897 170.061 30.3308 169.96 30.4324C169.858 30.5339 169.817 30.6574 169.868 30.7081C169.918 30.7589 170.042 30.7177 170.143 30.6162Z" stroke="#0089FF" stroke-width="0.4" stroke-linecap="round" stroke-linejoin="round"/>
<path d="M175.788 22.9278L177.74 24.8794C177.861 25.0005 178.057 25.0005 178.178 24.8794L178.277 24.7804C178.398 24.6594 178.398 24.4631 178.277 24.342L176.326 22.3904C176.205 22.2694 176.008 22.2694 175.887 22.3904L175.788 22.4894C175.667 22.6105 175.667 22.8068 175.788 22.9278Z" fill="#0089FF"/>
<path d="M200.55 26.7901L200.15 26.5901L199.95 26.4901C199.592 26.2927 199.316 25.9727 199.175 25.5887C199.034 25.2048 199.035 24.7828 199.18 24.4001C199.287 24.0457 199.446 23.7089 199.65 23.4001C199.952 22.9323 200.194 22.4283 200.37 21.9001C200.389 21.8221 200.412 21.7453 200.44 21.6701L200.52 21.3301L200.72 21.4601L200.8 21.5101L200.94 21.6601C201.41 22.0923 201.839 22.5677 202.22 23.0801C202.558 23.5498 202.775 24.0961 202.85 24.6701C202.919 25.0151 202.884 25.3726 202.751 25.6981C202.617 26.0235 202.391 26.3025 202.1 26.5001C201.996 26.5654 201.886 26.6191 201.77 26.6601L201.63 26.7301L201.47 26.8001L201.35 26.5201L201.42 26.4401L201.51 26.3201C201.578 26.2539 201.639 26.1801 201.69 26.1001C201.876 25.8144 201.975 25.4809 201.975 25.1401C201.975 24.7992 201.876 24.4657 201.69 24.1801C201.596 24.0224 201.485 23.8749 201.36 23.7401C201.343 24.2147 201.22 24.6794 201 25.1001L200.78 25.5101L200.68 25.0601C200.653 24.8911 200.595 24.7285 200.51 24.5801C200.41 24.8101 200.32 25.0301 200.23 25.2601C200.16 25.4277 200.141 25.6125 200.177 25.7907C200.212 25.969 200.301 26.1324 200.43 26.2601C200.484 26.3021 200.519 26.3628 200.53 26.4301L200.55 26.7901ZM200.98 22.9201L201.29 23.1901C201.577 23.4112 201.818 23.6864 202 24.0001C202.198 24.3073 202.312 24.6607 202.331 25.0255C202.35 25.3903 202.274 25.7538 202.11 26.0801C202.294 25.9039 202.43 25.6839 202.505 25.4407C202.58 25.1975 202.592 24.9392 202.54 24.6901C202.475 24.1725 202.279 23.6802 201.97 23.2601C201.606 22.77 201.198 22.3147 200.75 21.9001V21.9901C200.57 22.5441 200.318 23.072 200 23.5601C199.812 23.845 199.664 24.1546 199.56 24.4801C199.467 24.7333 199.448 25.0076 199.505 25.2713C199.562 25.5349 199.692 25.7772 199.88 25.9701C199.798 25.6895 199.815 25.389 199.93 25.1201L200.22 24.4101L200.33 24.1501L200.5 24.0801L200.59 24.1501C200.719 24.2627 200.822 24.4028 200.89 24.5601C201.046 24.1663 201.111 23.7424 201.08 23.3201L200.98 22.9201Z" fill="#0089FF"/>
<path d="M201 28.7097C200.078 28.7097 199.177 28.4363 198.411 27.9243C197.645 27.4123 197.047 26.6845 196.695 25.833C196.342 24.9815 196.25 24.0445 196.43 23.1405C196.609 22.2366 197.053 21.4062 197.705 20.7545C198.357 20.1028 199.187 19.659 200.091 19.4792C200.995 19.2994 201.932 19.3917 202.783 19.7444C203.635 20.0971 204.363 20.6944 204.875 21.4607C205.387 22.227 205.66 23.128 205.66 24.0497C205.66 25.2856 205.169 26.4708 204.295 27.3448C203.421 28.2187 202.236 28.7097 201 28.7097ZM201 19.9997C200.191 19.9858 199.397 20.2131 198.718 20.6527C198.039 21.0922 197.507 21.7241 197.188 22.4676C196.87 23.2112 196.781 24.0327 196.931 24.8273C197.082 25.6219 197.466 26.3536 198.034 26.929C198.603 27.5045 199.33 27.8975 200.122 28.0581C200.915 28.2186 201.737 28.1393 202.485 27.8304C203.232 27.5214 203.871 26.9968 204.319 26.3234C204.767 25.65 205.004 24.8584 205 24.0497C204.995 22.9857 204.573 21.966 203.826 21.2091C203.078 20.4521 202.064 20.0179 201 19.9997Z" fill="#0089FF"/>
<path d="M203.41 31.1604H198.55C198.261 31.1604 197.984 31.0455 197.779 30.8411C197.575 30.6367 197.46 30.3594 197.46 30.0704V29.2004C197.46 28.9113 197.575 28.634 197.779 28.4296C197.984 28.2252 198.261 28.1104 198.55 28.1104H203.41C203.699 28.1104 203.976 28.2252 204.181 28.4296C204.385 28.634 204.5 28.9113 204.5 29.2004V30.0704C204.5 30.3594 204.385 30.6367 204.181 30.8411C203.976 31.0455 203.699 31.1604 203.41 31.1604ZM198.55 28.7104C198.485 28.709 198.42 28.7207 198.359 28.7447C198.299 28.7688 198.244 28.8047 198.197 28.8503C198.15 28.8959 198.113 28.9504 198.088 29.0105C198.063 29.0706 198.05 29.1352 198.05 29.2004V30.0704C198.05 30.203 198.103 30.3301 198.196 30.4239C198.29 30.5177 198.417 30.5704 198.55 30.5704H203.41C203.543 30.5704 203.67 30.5177 203.764 30.4239C203.857 30.3301 203.91 30.203 203.91 30.0704V29.2004C203.91 29.1352 203.897 29.0706 203.872 29.0105C203.847 28.9504 203.81 28.8959 203.763 28.8503C203.716 28.8047 203.661 28.7688 203.601 28.7447C203.54 28.7207 203.475 28.709 203.41 28.7104H198.55Z" fill="#0089FF"/>
<path d="M205.1 29.9304H204.41V29.3404H205.1C205.63 29.3404 206.139 29.1297 206.514 28.7546C206.889 28.3796 207.1 27.8709 207.1 27.3404V23.9404H207.69V27.3804C207.689 27.7183 207.621 28.0526 207.489 28.364C207.358 28.6754 207.167 28.9578 206.926 29.1948C206.685 29.4319 206.4 29.6189 206.087 29.7452C205.773 29.8714 205.438 29.9344 205.1 29.9304Z" fill="#0089FF"/>
<path d="M207.36 24.6904C207.774 24.6904 208.11 24.3546 208.11 23.9404C208.11 23.5262 207.774 23.1904 207.36 23.1904C206.946 23.1904 206.61 23.5262 206.61 23.9404C206.61 24.3546 206.946 24.6904 207.36 24.6904Z" fill="#0089FF"/>
<path d="M227 27.6402C226.689 27.3299 226.442 26.9613 226.274 26.5555C226.105 26.1496 226.018 25.7145 226.018 25.2752C226.018 24.8358 226.105 24.4007 226.274 23.9949C226.442 23.589 226.689 23.2204 227 22.9102" stroke="#0089FF" stroke-width="0.75" stroke-linecap="round" stroke-linejoin="round"/>
<path d="M231.7 22.9102C232.321 23.5406 232.669 24.3901 232.669 25.2752C232.669 26.1602 232.321 27.0097 231.7 27.6402" stroke="#0089FF" stroke-width="0.75" stroke-linecap="round" stroke-linejoin="round"/>
<path d="M227.81 26.8C227.609 26.6014 227.45 26.3646 227.342 26.1036C227.233 25.8426 227.178 25.5626 227.18 25.28C227.179 24.9961 227.235 24.7148 227.343 24.4523C227.451 24.1898 227.61 23.9511 227.81 23.75" stroke="#0089FF" stroke-width="0.75" stroke-linecap="round" stroke-linejoin="round"/>
<path d="M230.86 23.75C231.261 24.1586 231.487 24.7075 231.49 25.28C231.489 25.8499 231.262 26.3963 230.86 26.8" stroke="#0089FF" stroke-width="0.75" stroke-linecap="round" stroke-linejoin="round"/>
<path d="M234.11 26.2699V21.0599C230.11 21.0599 229.33 19.3799 229.33 19.3799C229.33 19.3799 228.5 21.0599 224.55 21.0599V26.2699C224.55 26.2699 224.23 28.7699 229.33 31.1699C234.44 28.7699 234.11 26.2699 234.11 26.2699Z" stroke="#0089FF" stroke-width="0.75" stroke-linecap="round" stroke-linejoin="round"/>
<path d="M229.33 25.9801C229.717 25.9801 230.03 25.6667 230.03 25.2801C230.03 24.8935 229.717 24.5801 229.33 24.5801C228.943 24.5801 228.63 24.8935 228.63 25.2801C228.63 25.6667 228.943 25.9801 229.33 25.9801Z" fill="#0089FF"/>
</svg>
