<svg width="324" height="117" viewBox="0 0 324 117" fill="none" xmlns="http://www.w3.org/2000/svg">
<path opacity="0.2" d="M30.6795 94H29.8316V88.3774H26.8982V94H26.0504V87.6238H30.6795V94ZM35.8481 91.6105C35.8481 92.4156 35.654 93.0379 35.2657 93.4776C34.8775 93.9144 34.3607 94.1327 33.7156 94.1327C33.0504 94.1327 32.5265 93.9072 32.144 93.4562C31.7643 93.0022 31.5744 92.387 31.5744 91.6105C31.5744 90.8112 31.77 90.1902 32.1611 89.7477C32.5551 89.3053 33.0732 89.084 33.7156 89.084C34.3607 89.084 34.8775 89.3053 35.2657 89.7477C35.654 90.1874 35.8481 90.8083 35.8481 91.6105ZM35.0173 91.6105C35.0173 90.991 34.9046 90.5314 34.6791 90.2316C34.4535 89.929 34.1324 89.7777 33.7156 89.7777C33.2959 89.7777 32.9719 89.929 32.7435 90.2316C32.518 90.5314 32.4052 90.991 32.4052 91.6105C32.4052 92.21 32.518 92.6654 32.7435 92.9765C32.9719 93.2849 33.2959 93.439 33.7156 93.439C34.1295 93.439 34.4492 93.2877 34.6748 92.9851C34.9032 92.6796 35.0173 92.2214 35.0173 91.6105ZM42.4813 94H41.5092L40.0061 91.7989H39.6935V94H38.897V91.7989H38.5844L37.0557 94H36.1264L37.9293 91.4949C37.7894 91.4207 37.6652 91.3136 37.5567 91.1737C37.4482 91.031 37.3512 90.8254 37.2655 90.5571C37.1884 90.3144 37.0971 90.146 36.9915 90.0518C36.8858 89.9576 36.7131 89.9105 36.4733 89.9105H36.2892V89.2168H36.5076C36.8587 89.2168 37.147 89.2881 37.3726 89.4309C37.601 89.5736 37.7794 89.8234 37.9079 90.1803C37.9335 90.2545 37.9649 90.3401 38.0021 90.4372C38.042 90.5314 38.0763 90.6113 38.1048 90.677C38.199 90.894 38.309 91.051 38.4346 91.148C38.5602 91.2451 38.7143 91.2993 38.897 91.3108V89.2168H39.6935V91.3108C39.8762 91.2965 40.0318 91.2408 40.1603 91.1438C40.2916 91.0467 40.403 90.8911 40.4943 90.677C40.5257 90.6056 40.56 90.5228 40.5971 90.4286C40.6371 90.3344 40.6685 90.2516 40.6913 90.1803C40.8169 89.8291 40.9911 89.5807 41.2137 89.4351C41.4364 89.2896 41.7262 89.2168 42.083 89.2168H42.3014V89.9105H42.1173C41.8918 89.9105 41.7219 89.9576 41.6077 90.0518C41.4964 90.1431 41.4021 90.3116 41.3251 90.5571C41.2451 90.8055 41.1509 91.001 41.0424 91.1438C40.934 91.2865 40.8141 91.395 40.6827 91.4692L42.4813 94ZM45.7529 92.8224V91.4949C45.5616 91.512 45.319 91.5363 45.0249 91.5677C44.7337 91.5962 44.4982 91.6376 44.3183 91.6919C44.1042 91.7575 43.9272 91.8589 43.7873 91.9959C43.6475 92.1301 43.5775 92.3185 43.5775 92.5612C43.5775 92.8352 43.6546 93.0422 43.8088 93.1821C43.9629 93.322 44.1885 93.3919 44.4854 93.3919C44.7394 93.3919 44.9692 93.3377 45.1748 93.2292C45.3803 93.1179 45.573 92.9823 45.7529 92.8224ZM45.7529 93.4904C45.6872 93.5389 45.5987 93.6075 45.4874 93.696C45.3789 93.7816 45.2733 93.8501 45.1705 93.9015C45.0278 93.9757 44.8893 94.0328 44.7551 94.0728C44.6238 94.1128 44.4382 94.1327 44.1984 94.1327C44.0015 94.1327 43.8145 94.0956 43.6375 94.0214C43.4605 93.9472 43.3049 93.843 43.1707 93.7088C43.0422 93.5775 42.9395 93.4162 42.8624 93.2249C42.7853 93.0308 42.7468 92.8267 42.7468 92.6126C42.7468 92.2814 42.8167 92.0002 42.9566 91.769C43.0965 91.5349 43.3177 91.3493 43.6203 91.2123C43.8887 91.0895 44.2056 91.0053 44.571 90.9596C44.9364 90.9111 45.3304 90.8754 45.7529 90.8526V90.6984C45.7529 90.51 45.7243 90.3587 45.6672 90.2445C45.6102 90.1274 45.5302 90.0375 45.4274 89.9747C45.3247 89.909 45.1991 89.8662 45.0506 89.8462C44.9022 89.8234 44.7494 89.812 44.5924 89.812C44.4068 89.812 44.1885 89.8405 43.9372 89.8976C43.686 89.9519 43.4348 90.0318 43.1836 90.1374H43.1365V89.3195C43.2849 89.2767 43.4976 89.2296 43.7745 89.1782C44.0514 89.1268 44.3255 89.1011 44.5967 89.1011C44.925 89.1011 45.2019 89.1268 45.4274 89.1782C45.653 89.2296 45.8557 89.3224 46.0355 89.4566C46.2097 89.5879 46.3396 89.7577 46.4252 89.9661C46.5108 90.1745 46.5537 90.4286 46.5537 90.7284V94H45.7529V93.4904ZM51.7009 91.4821C51.7009 92.2785 51.5096 92.9137 51.1271 93.3876C50.7474 93.8587 50.2664 94.0942 49.684 94.0942C49.447 94.0942 49.2372 94.0671 49.0545 94.0128C48.8718 93.9586 48.6848 93.8744 48.4935 93.7602V95.7643H47.6885V89.2168H48.4935V89.7178C48.6934 89.5379 48.9146 89.388 49.1573 89.2681C49.4028 89.1454 49.6697 89.084 49.958 89.084C50.5062 89.084 50.933 89.301 51.2384 89.7349C51.5467 90.1688 51.7009 90.7512 51.7009 91.4821ZM50.8702 91.572C50.8702 91.0267 50.7831 90.6042 50.6089 90.3044C50.4348 90.0018 50.1522 89.8505 49.7611 89.8505C49.5327 89.8505 49.3114 89.9019 49.0973 90.0047C48.8861 90.1046 48.6848 90.2345 48.4935 90.3944V93.105C48.7048 93.2078 48.8846 93.2777 49.0331 93.3148C49.1844 93.352 49.3571 93.3705 49.5512 93.3705C49.968 93.3705 50.2921 93.2178 50.5233 92.9123C50.7545 92.6068 50.8702 92.1601 50.8702 91.572ZM56.3129 94H55.5078V91.846H53.341V94H52.5359V89.2168H53.341V91.1523H55.5078V89.2168H56.3129V94ZM60.1497 92.8224V91.4949C59.9585 91.512 59.7158 91.5363 59.4218 91.5677C59.1306 91.5962 58.895 91.6376 58.7152 91.6919C58.5011 91.7575 58.3241 91.8589 58.1842 91.9959C58.0443 92.1301 57.9744 92.3185 57.9744 92.5612C57.9744 92.8352 58.0514 93.0422 58.2056 93.1821C58.3598 93.322 58.5853 93.3919 58.8822 93.3919C59.1363 93.3919 59.3661 93.3377 59.5716 93.2292C59.7772 93.1179 59.9699 92.9823 60.1497 92.8224ZM60.1497 93.4904C60.0841 93.5389 59.9956 93.6075 59.8842 93.696C59.7758 93.7816 59.6701 93.8501 59.5674 93.9015C59.4246 93.9757 59.2862 94.0328 59.152 94.0728C59.0207 94.1128 58.8351 94.1327 58.5953 94.1327C58.3983 94.1327 58.2113 94.0956 58.0343 94.0214C57.8573 93.9472 57.7017 93.843 57.5676 93.7088C57.4391 93.5775 57.3363 93.4162 57.2592 93.2249C57.1822 93.0308 57.1436 92.8267 57.1436 92.6126C57.1436 92.2814 57.2136 92.0002 57.3534 91.769C57.4933 91.5349 57.7146 91.3493 58.0172 91.2123C58.2855 91.0895 58.6024 91.0053 58.9678 90.9596C59.3333 90.9111 59.7272 90.8754 60.1497 90.8526V90.6984C60.1497 90.51 60.1212 90.3587 60.0641 90.2445C60.007 90.1274 59.9271 90.0375 59.8243 89.9747C59.7215 89.909 59.5959 89.8662 59.4475 89.8462C59.299 89.8234 59.1463 89.812 58.9893 89.812C58.8037 89.812 58.5853 89.8405 58.3341 89.8976C58.0828 89.9519 57.8316 90.0318 57.5804 90.1374H57.5333V89.3195C57.6817 89.2767 57.8944 89.2296 58.1713 89.1782C58.4483 89.1268 58.7223 89.1011 58.9935 89.1011C59.3218 89.1011 59.5988 89.1268 59.8243 89.1782C60.0498 89.2296 60.2525 89.3224 60.4324 89.4566C60.6065 89.5879 60.7364 89.7577 60.822 89.9661C60.9077 90.1745 60.9505 90.4286 60.9505 90.7284V94H60.1497V93.4904ZM65.5496 94H64.7446V92.103H63.9481L62.5307 94H61.5928L63.1302 92.0302C62.7333 91.9131 62.4422 91.739 62.2566 91.5077C62.0739 91.2765 61.9825 90.9668 61.9825 90.5785C61.9825 90.3416 62.0339 90.1346 62.1367 89.9576C62.2423 89.7777 62.3836 89.6264 62.5606 89.5037C62.7034 89.4066 62.8832 89.3352 63.1002 89.2896C63.3172 89.241 63.5598 89.2168 63.8282 89.2168H65.5496V94ZM64.7446 91.4692V89.8591H63.871C63.6854 89.8591 63.5384 89.8691 63.4299 89.8891C63.3243 89.909 63.2215 89.9476 63.1216 90.0047C63.0188 90.0675 62.9403 90.1531 62.8861 90.2616C62.8347 90.3672 62.809 90.4814 62.809 90.6042C62.809 90.7612 62.8261 90.8897 62.8604 90.9896C62.8975 91.0867 62.9632 91.1766 63.0574 91.2594C63.1573 91.345 63.2786 91.4021 63.4214 91.4307C63.567 91.4564 63.7254 91.4692 63.8967 91.4692H64.7446ZM20.6462 105.107C20.3179 105.107 20.0167 105.057 19.7426 104.957C19.4686 104.854 19.2331 104.7 19.0361 104.495C18.8391 104.289 18.6864 104.031 18.5779 103.72C18.4694 103.406 18.4152 103.037 18.4152 102.615C18.4152 102.195 18.4708 101.833 18.5822 101.527C18.6964 101.222 18.8477 100.965 19.0361 100.756C19.2245 100.548 19.4586 100.388 19.7384 100.277C20.021 100.163 20.3236 100.105 20.6462 100.105C20.9088 100.105 21.1615 100.143 21.4041 100.217C21.6497 100.291 21.8681 100.377 22.0593 100.474V101.377H22.0122C21.9551 101.329 21.8809 101.273 21.7896 101.21C21.7011 101.147 21.5926 101.083 21.4641 101.018C21.3528 100.96 21.2214 100.91 21.0701 100.868C20.9188 100.825 20.7732 100.803 20.6333 100.803C20.2165 100.803 19.8811 100.962 19.627 101.279C19.3758 101.593 19.2502 102.038 19.2502 102.615C19.2502 103.18 19.3715 103.621 19.6142 103.938C19.8597 104.252 20.1994 104.409 20.6333 104.409C20.896 104.409 21.1458 104.355 21.3827 104.246C21.6197 104.138 21.8295 103.998 22.0122 103.827H22.0593V104.73C21.9794 104.767 21.8795 104.813 21.7596 104.867C21.6397 104.919 21.5312 104.957 21.4341 104.983C21.2971 105.023 21.1743 105.053 21.0659 105.073C20.9574 105.096 20.8175 105.107 20.6462 105.107ZM26.5728 105H25.7763V101.433L23.5239 105H22.7959V100.217H23.5924V103.728L25.8191 100.217H26.5728V105ZM30.7779 100.923H28.5426V105H27.7376V100.217H30.7779V100.923ZM35.1544 105H34.3493V102.846H32.1825V105H31.3775V100.217H32.1825V102.152H34.3493V100.217H35.1544V105ZM38.9913 103.822V102.495C38.8 102.512 38.5573 102.536 38.2633 102.568C37.9721 102.596 37.7366 102.638 37.5567 102.692C37.3426 102.758 37.1656 102.859 37.0257 102.996C36.8858 103.13 36.8159 103.319 36.8159 103.561C36.8159 103.835 36.893 104.042 37.0471 104.182C37.2013 104.322 37.4268 104.392 37.7237 104.392C37.9778 104.392 38.2076 104.338 38.4132 104.229C38.6187 104.118 38.8114 103.982 38.9913 103.822ZM38.9913 104.49C38.9256 104.539 38.8371 104.607 38.7258 104.696C38.6173 104.782 38.5116 104.85 38.4089 104.902C38.2661 104.976 38.1277 105.033 37.9935 105.073C37.8622 105.113 37.6766 105.133 37.4368 105.133C37.2398 105.133 37.0528 105.096 36.8758 105.021C36.6988 104.947 36.5432 104.843 36.4091 104.709C36.2806 104.577 36.1778 104.416 36.1008 104.225C36.0237 104.031 35.9851 103.827 35.9851 103.613C35.9851 103.281 36.0551 103 36.195 102.769C36.3348 102.535 36.5561 102.349 36.8587 102.212C37.1271 102.09 37.4439 102.005 37.8094 101.96C38.1748 101.911 38.5687 101.875 38.9913 101.853V101.698C38.9913 101.51 38.9627 101.359 38.9056 101.244C38.8485 101.127 38.7686 101.038 38.6658 100.975C38.563 100.909 38.4374 100.866 38.289 100.846C38.1405 100.823 37.9878 100.812 37.8308 100.812C37.6452 100.812 37.4268 100.841 37.1756 100.898C36.9244 100.952 36.6731 101.032 36.4219 101.137H36.3748V100.32C36.5233 100.277 36.7359 100.23 37.0129 100.178C37.2898 100.127 37.5638 100.101 37.8351 100.101C38.1634 100.101 38.4403 100.127 38.6658 100.178C38.8913 100.23 39.094 100.322 39.2739 100.457C39.448 100.588 39.5779 100.758 39.6636 100.966C39.7492 101.175 39.792 101.429 39.792 101.728V105H38.9913V104.49ZM44.6309 105H43.8259V100.893H42.1815C42.1729 101.13 42.1644 101.359 42.1558 101.579C42.1473 101.795 42.1387 101.992 42.1301 102.169C42.113 102.618 42.083 102.993 42.0402 103.296C42.0002 103.598 41.9488 103.841 41.886 104.024C41.8232 104.212 41.7533 104.359 41.6762 104.465C41.602 104.57 41.5178 104.666 41.4236 104.752C41.3265 104.837 41.2223 104.902 41.111 104.944C40.9996 104.987 40.874 105.009 40.7341 105.009C40.6884 105.009 40.6299 105.007 40.5585 105.004C40.4872 105.001 40.4372 105 40.4087 105V104.298H40.4515C40.4715 104.298 40.4915 104.299 40.5114 104.302C40.5343 104.305 40.56 104.306 40.5885 104.306C40.657 104.306 40.7241 104.296 40.7898 104.276C40.8555 104.256 40.914 104.219 40.9654 104.165C41.1081 104.025 41.2123 103.781 41.278 103.433C41.3436 103.082 41.3907 102.592 41.4193 101.964C41.4307 101.73 41.4407 101.453 41.4493 101.133C41.4607 100.813 41.4707 100.508 41.4792 100.217H44.6309V105ZM49.5769 105H48.7804V101.433L46.528 105H45.8V100.217H46.5965V103.728L48.8232 100.217H49.5769V105ZM53.9105 103.677C53.9105 103.945 53.852 104.172 53.735 104.358C53.6179 104.543 53.468 104.69 53.2853 104.799C53.1112 104.904 52.9128 104.983 52.6901 105.034C52.4674 105.086 52.2447 105.111 52.0221 105.111C51.708 105.111 51.4111 105.08 51.1314 105.017C50.8516 104.957 50.5733 104.86 50.2963 104.726V103.835H50.3477C50.5418 104.015 50.7845 104.158 51.0757 104.263C51.3697 104.366 51.6624 104.418 51.9536 104.418C52.0792 104.418 52.2133 104.405 52.3561 104.379C52.5017 104.351 52.6244 104.308 52.7244 104.251C52.8557 104.171 52.9485 104.085 53.0027 103.994C53.0598 103.902 53.0883 103.777 53.0883 103.617C53.0883 103.446 53.0555 103.309 52.9899 103.206C52.927 103.1 52.84 103.022 52.7286 102.97C52.6173 102.919 52.4917 102.887 52.3518 102.876C52.2148 102.862 52.0692 102.855 51.915 102.855H51.3498V102.161H51.7823C51.8907 102.161 52.0264 102.158 52.1891 102.152C52.3518 102.144 52.4817 102.121 52.5788 102.084C52.7015 102.038 52.8 101.974 52.8742 101.891C52.9485 101.805 52.9856 101.663 52.9856 101.463C52.9856 101.323 52.9542 101.21 52.8914 101.125C52.8286 101.039 52.75 100.972 52.6558 100.923C52.5588 100.872 52.4531 100.838 52.339 100.821C52.2248 100.801 52.1149 100.791 52.0092 100.791C51.738 100.791 51.4768 100.829 51.2256 100.906C50.9772 100.98 50.7631 101.092 50.5832 101.24H50.5319V100.371C50.7374 100.3 50.9644 100.237 51.2127 100.182C51.464 100.128 51.7152 100.101 51.9664 100.101C52.1691 100.101 52.3746 100.123 52.583 100.165C52.7943 100.205 52.9941 100.275 53.1826 100.375C53.3596 100.472 53.508 100.606 53.6279 100.778C53.7478 100.946 53.8078 101.153 53.8078 101.399C53.8078 101.658 53.7335 101.887 53.5851 102.084C53.4395 102.278 53.2454 102.406 53.0027 102.469V102.499C53.2682 102.591 53.4852 102.73 53.6536 102.919C53.8249 103.107 53.9105 103.36 53.9105 103.677ZM57.4305 103.822V102.495C57.2393 102.512 56.9966 102.536 56.7025 102.568C56.4114 102.596 56.1758 102.638 55.996 102.692C55.7819 102.758 55.6049 102.859 55.465 102.996C55.3251 103.13 55.2552 103.319 55.2552 103.561C55.2552 103.835 55.3322 104.042 55.4864 104.182C55.6406 104.322 55.8661 104.392 56.163 104.392C56.4171 104.392 56.6469 104.338 56.8524 104.229C57.058 104.118 57.2507 103.982 57.4305 103.822ZM57.4305 104.49C57.3649 104.539 57.2764 104.607 57.165 104.696C57.0565 104.782 56.9509 104.85 56.8481 104.902C56.7054 104.976 56.5669 105.033 56.4328 105.073C56.3014 105.113 56.1159 105.133 55.8761 105.133C55.6791 105.133 55.4921 105.096 55.3151 105.021C55.1381 104.947 54.9825 104.843 54.8483 104.709C54.7199 104.577 54.6171 104.416 54.54 104.225C54.4629 104.031 54.4244 103.827 54.4244 103.613C54.4244 103.281 54.4943 103 54.6342 102.769C54.7741 102.535 54.9954 102.349 55.298 102.212C55.5663 102.09 55.8832 102.005 56.2486 101.96C56.614 101.911 57.008 101.875 57.4305 101.853V101.698C57.4305 101.51 57.402 101.359 57.3449 101.244C57.2878 101.127 57.2078 101.038 57.1051 100.975C57.0023 100.909 56.8767 100.866 56.7282 100.846C56.5798 100.823 56.4271 100.812 56.27 100.812C56.0845 100.812 55.8661 100.841 55.6149 100.898C55.3636 100.952 55.1124 101.032 54.8612 101.137H54.8141V100.32C54.9625 100.277 55.1752 100.23 55.4521 100.178C55.7291 100.127 56.0031 100.101 56.2743 100.101C56.6026 100.101 56.8795 100.127 57.1051 100.178C57.3306 100.23 57.5333 100.322 57.7132 100.457C57.8873 100.588 58.0172 100.758 58.1028 100.966C58.1885 101.175 58.2313 101.429 58.2313 101.728V105H57.4305V104.49ZM63.5884 106.148H62.839V105H59.3661V100.217H60.1711V104.306H62.308V100.217H63.113V104.306H63.5884V106.148ZM68.1618 105H67.3653V101.433L65.1128 105H64.3849V100.217H65.1814V103.728L67.4081 100.217H68.1618V105ZM72.7909 105H71.9858V103.103H71.1893L69.7719 105H68.8341L70.3714 103.03C69.9746 102.913 69.6834 102.739 69.4978 102.508C69.3151 102.277 69.2238 101.967 69.2238 101.579C69.2238 101.342 69.2752 101.135 69.3779 100.958C69.4836 100.778 69.6249 100.626 69.8019 100.504C69.9446 100.407 70.1245 100.335 70.3414 100.29C70.5584 100.241 70.8011 100.217 71.0694 100.217H72.7909V105ZM71.9858 102.469V100.859H71.1122C70.9267 100.859 70.7796 100.869 70.6712 100.889C70.5655 100.909 70.4628 100.948 70.3628 101.005C70.2601 101.067 70.1816 101.153 70.1273 101.262C70.0759 101.367 70.0502 101.481 70.0502 101.604C70.0502 101.761 70.0674 101.89 70.1016 101.99C70.1387 102.087 70.2044 102.177 70.2986 102.259C70.3985 102.345 70.5199 102.402 70.6626 102.431C70.8082 102.456 70.9666 102.469 71.1379 102.469H71.9858Z" fill="#8C99B2"/>
<g opacity="0.2">
<path opacity="0.2" d="M47.8697 74.8045C47.8697 76.256 47.658 77.3221 47.2345 78.0026C46.8146 78.6795 46.1648 79.0179 45.2852 79.0179C44.3947 79.0179 43.7414 78.6722 43.3251 77.9809C42.9088 77.2895 42.7007 76.2343 42.7007 74.8154C42.7007 73.3566 42.9106 72.2905 43.3305 71.6173C43.754 70.9404 44.4056 70.6019 45.2852 70.6019C46.1757 70.6019 46.829 70.9512 47.2453 71.6498C47.6616 72.3485 47.8697 73.4 47.8697 74.8045ZM46.4797 77.2696C46.5847 77.0017 46.6589 76.6633 46.7023 76.2542C46.7458 75.8452 46.7675 75.3619 46.7675 74.8045C46.7675 74.2507 46.7458 73.7692 46.7023 73.3602C46.6589 72.9512 46.5829 72.6109 46.4743 72.3394C46.3657 72.0643 46.2155 71.8562 46.0236 71.715C45.8354 71.5702 45.5893 71.4978 45.2852 71.4978C44.9848 71.4978 44.7368 71.5702 44.5413 71.715C44.3495 71.8562 44.1974 72.0679 44.0852 72.3503C43.9766 72.6254 43.9024 72.9729 43.8626 73.3928C43.8228 73.8127 43.8029 74.2869 43.8029 74.8154C43.8029 75.38 43.8192 75.8524 43.8518 76.2325C43.888 76.6126 43.964 76.9528 44.0798 77.2533C44.1848 77.532 44.3332 77.7474 44.525 77.8994C44.7205 78.0478 44.9739 78.122 45.2852 78.122C45.5856 78.122 45.8318 78.0514 46.0236 77.9103C46.2191 77.7655 46.3711 77.5519 46.4797 77.2696Z" fill="#8C99B2"/>
</g>
<path opacity="0.2" fill-rule="evenodd" clip-rule="evenodd" d="M45.31 48.6291L17.81 76.1791C12.3537 70.7316 8.63783 63.7866 7.13355 56.2246C5.62926 48.6626 6.40431 40.8242 9.36042 33.7033C12.3165 26.5823 17.3206 20.4995 23.7381 16.2261C30.1556 11.9527 37.6975 9.68106 45.4076 9.69933C53.1178 9.71759 60.6489 12.0249 67.046 16.3287C73.4432 20.6325 78.4184 26.7389 81.3407 33.8738C84.2631 41.0087 85.001 48.8506 83.4609 56.4054C81.9208 63.9602 78.1721 70.8875 72.69 76.3091L45.31 48.6291Z" fill="#8C99B2"/>
<path fill-rule="evenodd" clip-rule="evenodd" d="M45.31 48.6295L25.14 77.8495C18.9905 73.6022 14.3378 67.523 11.8445 60.4774C9.35128 53.4319 9.14455 45.7793 11.2538 38.6094C13.363 31.4395 17.6807 25.1179 23.592 20.5448C29.5032 15.9717 36.7067 13.3803 44.1765 13.1395C51.6463 12.8988 59.0016 15.021 65.1951 19.204C71.3885 23.387 76.1043 29.4175 78.6708 36.4367C81.2373 43.4559 81.5237 51.1059 79.4893 58.2974C77.4549 65.4889 73.2033 71.8551 67.34 76.4895L45.31 48.6295Z" fill="white"/>
<path opacity="0.2" fill-rule="evenodd" clip-rule="evenodd" d="M39.9 57C38.7331 55.7791 37.7556 54.3904 37 52.88C36.2933 51.2004 36.1018 49.3486 36.45 47.56C36.8065 45.7597 37.5921 44.072 38.74 42.64C38.7053 43.275 38.799 43.9104 39.0155 44.5084C39.232 45.1063 39.5668 45.6544 40 46.12C39.7838 44.9064 39.8412 43.6598 40.1682 42.4713C40.4952 41.2828 41.0834 40.1822 41.89 39.25C43.5299 37.4101 45.6224 36.0311 47.96 35.25C47.4094 35.8949 47.0368 36.6723 46.879 37.5054C46.7211 38.3385 46.7835 39.1984 47.06 40C47.6162 41.5655 48.3689 43.0541 49.3 44.43C50.2381 45.7882 50.8224 47.359 51 49C51.4931 48.1632 51.9082 47.2828 52.24 46.37C52.5791 45.4451 52.6484 44.4428 52.44 43.48C53.2867 44.4875 53.8493 45.7026 54.07 47C54.1799 47.631 54.2401 48.2696 54.25 48.91V49.33C54.25 49.97 54.19 50.6 54.12 51.23C53.9766 52.7925 53.4845 54.3029 52.68 55.65C51.64 57.1842 50.1153 58.3251 48.35 58.89C47.4297 59.0549 46.4945 59.122 45.56 59.09C48.86 58.9 51.44 54.97 49.56 51.83C49.56 51.78 49.56 51.78 49.56 51.73C49.76 53.73 49.26 55.26 48.31 56.1C48.5068 55.4744 48.5693 54.8144 48.4934 54.163C48.4176 53.5117 48.2052 52.8836 47.87 52.32C47.27 51.18 46.42 50.13 45.78 49.04C45.0385 47.9474 44.7351 46.616 44.93 45.31C43.7133 46.2198 42.8508 47.5243 42.49 49C42.1609 50.4757 42.3407 52.0194 43 53.38C42.6155 53.1044 42.295 52.7491 42.0603 52.3384C41.8256 51.9277 41.6823 51.4712 41.64 51C41.1033 51.5917 40.7217 52.3074 40.5295 53.0828C40.3373 53.8582 40.3404 54.6692 40.5386 55.4431C40.7368 56.217 41.1239 56.9297 41.6651 57.5173C42.2064 58.1049 42.8849 58.5491 43.64 58.81L44.13 58.97C42.5672 58.7098 41.1049 58.0287 39.9 57Z" fill="#8C99B2"/>
<path d="M143.171 92.0259C143.171 92.3342 143.111 92.614 142.991 92.8652C142.871 93.1164 142.71 93.3206 142.507 93.4776C142.267 93.666 142.011 93.8002 141.737 93.8801C141.462 93.96 141.108 94 140.675 94H138.829V87.6238H142.713V88.3774H139.677V90.1246H140.7C141.134 90.1246 141.488 90.1503 141.762 90.2017C142.036 90.2502 142.295 90.3687 142.537 90.5571C142.754 90.7255 142.914 90.9339 143.017 91.1823C143.12 91.4307 143.171 91.7119 143.171 92.0259ZM142.285 92.043C142.285 91.8289 142.249 91.6405 142.178 91.4778C142.109 91.315 141.999 91.1837 141.848 91.0838C141.691 90.9782 141.51 90.9139 141.304 90.8911C141.098 90.8683 140.809 90.8568 140.435 90.8568H139.677V93.2763H140.413C140.793 93.2763 141.084 93.2577 141.287 93.2206C141.492 93.1835 141.672 93.1122 141.826 93.0065C141.986 92.8952 142.102 92.7653 142.173 92.6168C142.248 92.4655 142.285 92.2743 142.285 92.043ZM147.642 94H146.837V89.8933H145.192C145.184 90.1303 145.175 90.3587 145.167 90.5785C145.158 90.7955 145.149 90.9924 145.141 91.1694C145.124 91.6177 145.094 91.9931 145.051 92.2957C145.011 92.5983 144.96 92.8409 144.897 93.0237C144.834 93.2121 144.764 93.3591 144.687 93.4647C144.613 93.5703 144.529 93.666 144.434 93.7516C144.337 93.8373 144.233 93.9015 144.122 93.9443C144.01 93.9872 143.885 94.0086 143.745 94.0086C143.699 94.0086 143.641 94.0071 143.569 94.0043C143.498 94.0014 143.448 94 143.419 94V93.2977H143.462C143.482 93.2977 143.502 93.2991 143.522 93.302C143.545 93.3049 143.571 93.3063 143.599 93.3063C143.668 93.3063 143.735 93.2963 143.801 93.2763C143.866 93.2563 143.925 93.2192 143.976 93.165C144.119 93.0251 144.223 92.781 144.289 92.4327C144.354 92.0816 144.401 91.592 144.43 90.9639C144.441 90.7298 144.451 90.4529 144.46 90.1331C144.471 89.8134 144.481 89.5079 144.49 89.2168H147.642V94ZM152.746 91.6105C152.746 92.4156 152.552 93.0379 152.164 93.4776C151.775 93.9144 151.259 94.1327 150.614 94.1327C149.948 94.1327 149.425 93.9072 149.042 93.4562C148.662 93.0022 148.472 92.387 148.472 91.6105C148.472 90.8112 148.668 90.1902 149.059 89.7477C149.453 89.3053 149.971 89.084 150.614 89.084C151.259 89.084 151.775 89.3053 152.164 89.7477C152.552 90.1874 152.746 90.8083 152.746 91.6105ZM151.915 91.6105C151.915 90.991 151.803 90.5314 151.577 90.2316C151.352 89.929 151.03 89.7777 150.614 89.7777C150.194 89.7777 149.87 89.929 149.641 90.2316C149.416 90.5314 149.303 90.991 149.303 91.6105C149.303 92.21 149.416 92.6654 149.641 92.9765C149.87 93.2849 150.194 93.439 150.614 93.439C151.028 93.439 151.347 93.2877 151.573 92.9851C151.801 92.6796 151.915 92.2214 151.915 91.6105ZM157.422 94H156.42L154.78 91.7947H154.378V94H153.573V89.2168H154.378V91.2979C154.586 91.2951 154.763 91.2522 154.909 91.1694C155.057 91.0838 155.183 90.9197 155.285 90.677C155.317 90.6056 155.351 90.5228 155.388 90.4286C155.428 90.3344 155.46 90.2516 155.482 90.1803C155.608 89.8291 155.782 89.5807 156.005 89.4351C156.228 89.2896 156.517 89.2168 156.874 89.2168H157.093V89.9105H156.908C156.683 89.9105 156.513 89.9576 156.399 90.0518C156.288 90.1431 156.193 90.3116 156.116 90.5571C156.036 90.8055 155.942 90.9996 155.834 91.1395C155.725 91.2765 155.605 91.3821 155.474 91.4564L157.422 94ZM161.717 94H160.921V90.4329L158.668 94H157.94V89.2168H158.737V92.7282L160.964 89.2168H161.717V94ZM166.895 91.4821C166.895 92.2785 166.703 92.9137 166.321 93.3876C165.941 93.8587 165.46 94.0942 164.878 94.0942C164.641 94.0942 164.431 94.0671 164.248 94.0128C164.065 93.9586 163.878 93.8744 163.687 93.7602V95.7643H162.882V89.2168H163.687V89.7178C163.887 89.5379 164.108 89.388 164.351 89.2681C164.596 89.1454 164.863 89.084 165.152 89.084C165.7 89.084 166.127 89.301 166.432 89.7349C166.74 90.1688 166.895 90.7512 166.895 91.4821ZM166.064 91.572C166.064 91.0267 165.977 90.6042 165.803 90.3044C165.628 90.0018 165.346 89.8505 164.955 89.8505C164.726 89.8505 164.505 89.9019 164.291 90.0047C164.08 90.1046 163.878 90.2345 163.687 90.3944V93.105C163.898 93.2078 164.078 93.2777 164.227 93.3148C164.378 93.352 164.551 93.3705 164.745 93.3705C165.162 93.3705 165.486 93.2178 165.717 92.9123C165.948 92.6068 166.064 92.1601 166.064 91.572ZM171.665 91.6105C171.665 92.4156 171.471 93.0379 171.083 93.4776C170.694 93.9144 170.178 94.1327 169.532 94.1327C168.867 94.1327 168.343 93.9072 167.961 93.4562C167.581 93.0022 167.391 92.387 167.391 91.6105C167.391 90.8112 167.587 90.1902 167.978 89.7477C168.372 89.3053 168.89 89.084 169.532 89.084C170.178 89.084 170.694 89.3053 171.083 89.7477C171.471 90.1874 171.665 90.8083 171.665 91.6105ZM170.834 91.6105C170.834 90.991 170.721 90.5314 170.496 90.2316C170.27 89.929 169.949 89.7777 169.532 89.7777C169.113 89.7777 168.789 89.929 168.56 90.2316C168.335 90.5314 168.222 90.991 168.222 91.6105C168.222 92.21 168.335 92.6654 168.56 92.9765C168.789 93.2849 169.113 93.439 169.532 93.439C169.946 93.439 170.266 93.2877 170.492 92.9851C170.72 92.6796 170.834 92.2214 170.834 91.6105ZM176.243 92.5526C176.243 92.7838 176.198 92.9894 176.11 93.1692C176.021 93.3462 175.9 93.4947 175.746 93.6146C175.552 93.7659 175.348 93.8687 175.134 93.9229C174.922 93.9743 174.668 94 174.371 94H172.491V89.2168H174.247C174.598 89.2168 174.855 89.2282 175.018 89.251C175.181 89.271 175.342 89.3252 175.502 89.4137C175.67 89.5051 175.794 89.6264 175.874 89.7777C175.954 89.929 175.994 90.1089 175.994 90.3173C175.994 90.5457 175.932 90.7512 175.806 90.9339C175.68 91.1138 175.513 91.2537 175.305 91.3536L175.326 91.3836C175.586 91.4492 175.803 91.582 175.977 91.7818C176.154 91.9816 176.243 92.2386 176.243 92.5526ZM175.168 90.4415C175.168 90.333 175.149 90.2388 175.112 90.1588C175.078 90.0789 175.017 90.0161 174.928 89.9704C174.825 89.9162 174.71 89.8848 174.581 89.8762C174.456 89.8648 174.28 89.8591 174.054 89.8591H173.288V91.1694H174.213C174.41 91.1694 174.55 91.1609 174.633 91.1438C174.715 91.1238 174.807 91.0838 174.907 91.0239C175.001 90.9668 175.068 90.8897 175.108 90.7926C175.148 90.6955 175.168 90.5785 175.168 90.4415ZM175.412 92.5569C175.412 92.3942 175.388 92.2643 175.339 92.1672C175.293 92.0673 175.191 91.9788 175.031 91.9017C174.931 91.8532 174.824 91.8232 174.71 91.8118C174.595 91.8004 174.437 91.7947 174.234 91.7947H173.288V93.3577H173.986C174.274 93.3577 174.498 93.3462 174.658 93.3234C174.818 93.3006 174.955 93.2549 175.069 93.1864C175.189 93.1122 175.276 93.0265 175.331 92.9294C175.385 92.8324 175.412 92.7082 175.412 92.5569ZM180.94 94H179.938L178.298 91.7947H177.896V94H177.091V89.2168H177.896V91.2979C178.104 91.2951 178.281 91.2522 178.427 91.1694C178.575 91.0838 178.701 90.9197 178.803 90.677C178.835 90.6056 178.869 90.5228 178.906 90.4286C178.946 90.3344 178.978 90.2516 179 90.1803C179.126 89.8291 179.3 89.5807 179.523 89.4351C179.746 89.2896 180.035 89.2168 180.392 89.2168H180.611V89.9105H180.426C180.201 89.9105 180.031 89.9576 179.917 90.0518C179.805 90.1431 179.711 90.3116 179.634 90.5571C179.554 90.8055 179.46 90.9996 179.352 91.1395C179.243 91.2765 179.123 91.3821 178.992 91.4564L180.94 94ZM185.235 94H184.439V90.4329L182.186 94H181.458V89.2168H182.255V92.7282L184.482 89.2168H185.235V94ZM134.756 105H133.96V101.433L131.708 105H130.98V100.217H131.776V103.728L134.003 100.217H134.756V105ZM140.563 105.107C140.235 105.107 139.934 105.057 139.66 104.957C139.386 104.854 139.15 104.7 138.953 104.495C138.756 104.289 138.603 104.031 138.495 103.72C138.386 103.406 138.332 103.037 138.332 102.615C138.332 102.195 138.388 101.833 138.499 101.527C138.613 101.222 138.765 100.965 138.953 100.756C139.141 100.548 139.376 100.388 139.655 100.277C139.938 100.163 140.241 100.105 140.563 100.105C140.826 100.105 141.078 100.143 141.321 100.217C141.567 100.291 141.785 100.377 141.976 100.474V101.377H141.929C141.872 101.329 141.798 101.273 141.707 101.21C141.618 101.147 141.51 101.083 141.381 101.018C141.27 100.96 141.138 100.91 140.987 100.868C140.836 100.825 140.69 100.803 140.55 100.803C140.134 100.803 139.798 100.962 139.544 101.279C139.293 101.593 139.167 102.038 139.167 102.615C139.167 103.18 139.288 103.621 139.531 103.938C139.777 104.252 140.116 104.409 140.55 104.409C140.813 104.409 141.063 104.355 141.3 104.246C141.537 104.138 141.746 103.998 141.929 103.827H141.976V104.73C141.896 104.767 141.796 104.813 141.677 104.867C141.557 104.919 141.448 104.957 141.351 104.983C141.214 105.023 141.091 105.053 140.983 105.073C140.874 105.096 140.734 105.107 140.563 105.107ZM146.49 105H145.693V101.433L143.441 105H142.713V100.217H143.509V103.728L145.736 100.217H146.49V105ZM150.695 100.923H148.46V105H147.655V100.217H150.695V100.923ZM155.071 105H154.266V102.846H152.099V105H151.294V100.217H152.099V102.152H154.266V100.217H155.071V105ZM158.908 103.822V102.495C158.717 102.512 158.474 102.536 158.18 102.568C157.889 102.596 157.654 102.638 157.474 102.692C157.26 102.758 157.083 102.859 156.943 102.996C156.803 103.13 156.733 103.319 156.733 103.561C156.733 103.835 156.81 104.042 156.964 104.182C157.118 104.322 157.344 104.392 157.641 104.392C157.895 104.392 158.125 104.338 158.33 104.229C158.536 104.118 158.728 103.982 158.908 103.822ZM158.908 104.49C158.843 104.539 158.754 104.607 158.643 104.696C158.534 104.782 158.429 104.85 158.326 104.902C158.183 104.976 158.045 105.033 157.91 105.073C157.779 105.113 157.594 105.133 157.354 105.133C157.157 105.133 156.97 105.096 156.793 105.021C156.616 104.947 156.46 104.843 156.326 104.709C156.198 104.577 156.095 104.416 156.018 104.225C155.941 104.031 155.902 103.827 155.902 103.613C155.902 103.281 155.972 103 156.112 102.769C156.252 102.535 156.473 102.349 156.776 102.212C157.044 102.09 157.361 102.005 157.726 101.96C158.092 101.911 158.486 101.875 158.908 101.853V101.698C158.908 101.51 158.88 101.359 158.823 101.244C158.765 101.127 158.686 101.038 158.583 100.975C158.48 100.909 158.354 100.866 158.206 100.846C158.057 100.823 157.905 100.812 157.748 100.812C157.562 100.812 157.344 100.841 157.093 100.898C156.841 100.952 156.59 101.032 156.339 101.137H156.292V100.32C156.44 100.277 156.653 100.23 156.93 100.178C157.207 100.127 157.481 100.101 157.752 100.101C158.08 100.101 158.357 100.127 158.583 100.178C158.808 100.23 159.011 100.322 159.191 100.457C159.365 100.588 159.495 100.758 159.581 100.966C159.666 101.175 159.709 101.429 159.709 101.728V105H158.908V104.49ZM164.548 105H163.743V100.893H162.098C162.09 101.13 162.081 101.359 162.073 101.579C162.064 101.795 162.056 101.992 162.047 102.169C162.03 102.618 162 102.993 161.957 103.296C161.917 103.598 161.866 103.841 161.803 104.024C161.74 104.212 161.67 104.359 161.593 104.465C161.519 104.57 161.435 104.666 161.341 104.752C161.243 104.837 161.139 104.902 161.028 104.944C160.917 104.987 160.791 105.009 160.651 105.009C160.605 105.009 160.547 105.007 160.476 105.004C160.404 105.001 160.354 105 160.326 105V104.298H160.368C160.388 104.298 160.408 104.299 160.428 104.302C160.451 104.305 160.477 104.306 160.506 104.306C160.574 104.306 160.641 104.296 160.707 104.276C160.772 104.256 160.831 104.219 160.882 104.165C161.025 104.025 161.129 103.781 161.195 103.433C161.261 103.082 161.308 102.592 161.336 101.964C161.348 101.73 161.358 101.453 161.366 101.133C161.378 100.813 161.388 100.508 161.396 100.217H164.548V105ZM169.494 105H168.697V101.433L166.445 105H165.717V100.217H166.513V103.728L168.74 100.217H169.494V105ZM173.828 103.677C173.828 103.945 173.769 104.172 173.652 104.358C173.535 104.543 173.385 104.69 173.202 104.799C173.028 104.904 172.83 104.983 172.607 105.034C172.384 105.086 172.162 105.111 171.939 105.111C171.625 105.111 171.328 105.08 171.048 105.017C170.769 104.957 170.49 104.86 170.213 104.726V103.835H170.265C170.459 104.015 170.701 104.158 170.993 104.263C171.287 104.366 171.579 104.418 171.871 104.418C171.996 104.418 172.13 104.405 172.273 104.379C172.419 104.351 172.541 104.308 172.641 104.251C172.773 104.171 172.865 104.085 172.92 103.994C172.977 103.902 173.005 103.777 173.005 103.617C173.005 103.446 172.972 103.309 172.907 103.206C172.844 103.1 172.757 103.022 172.646 102.97C172.534 102.919 172.409 102.887 172.269 102.876C172.132 102.862 171.986 102.855 171.832 102.855H171.267V102.161H171.699C171.808 102.161 171.943 102.158 172.106 102.152C172.269 102.144 172.399 102.121 172.496 102.084C172.618 102.038 172.717 101.974 172.791 101.891C172.865 101.805 172.903 101.663 172.903 101.463C172.903 101.323 172.871 101.21 172.808 101.125C172.746 101.039 172.667 100.972 172.573 100.923C172.476 100.872 172.37 100.838 172.256 100.821C172.142 100.801 172.032 100.791 171.926 100.791C171.655 100.791 171.394 100.829 171.143 100.906C170.894 100.98 170.68 101.092 170.5 101.24H170.449V100.371C170.654 100.3 170.881 100.237 171.13 100.182C171.381 100.128 171.632 100.101 171.883 100.101C172.086 100.101 172.292 100.123 172.5 100.165C172.711 100.205 172.911 100.275 173.1 100.375C173.277 100.472 173.425 100.606 173.545 100.778C173.665 100.946 173.725 101.153 173.725 101.399C173.725 101.658 173.651 101.887 173.502 102.084C173.356 102.278 173.162 102.406 172.92 102.469V102.499C173.185 102.591 173.402 102.73 173.571 102.919C173.742 103.107 173.828 103.36 173.828 103.677ZM177.348 103.822V102.495C177.156 102.512 176.914 102.536 176.62 102.568C176.328 102.596 176.093 102.638 175.913 102.692C175.699 102.758 175.522 102.859 175.382 102.996C175.242 103.13 175.172 103.319 175.172 103.561C175.172 103.835 175.249 104.042 175.403 104.182C175.558 104.322 175.783 104.392 176.08 104.392C176.334 104.392 176.564 104.338 176.769 104.229C176.975 104.118 177.168 103.982 177.348 103.822ZM177.348 104.49C177.282 104.539 177.193 104.607 177.082 104.696C176.974 104.782 176.868 104.85 176.765 104.902C176.622 104.976 176.484 105.033 176.35 105.073C176.218 105.113 176.033 105.133 175.793 105.133C175.596 105.133 175.409 105.096 175.232 105.021C175.055 104.947 174.899 104.843 174.765 104.709C174.637 104.577 174.534 104.416 174.457 104.225C174.38 104.031 174.341 103.827 174.341 103.613C174.341 103.281 174.411 103 174.551 102.769C174.691 102.535 174.912 102.349 175.215 102.212C175.483 102.09 175.8 102.005 176.166 101.96C176.531 101.911 176.925 101.875 177.348 101.853V101.698C177.348 101.51 177.319 101.359 177.262 101.244C177.205 101.127 177.125 101.038 177.022 100.975C176.919 100.909 176.794 100.866 176.645 100.846C176.497 100.823 176.344 100.812 176.187 100.812C176.001 100.812 175.783 100.841 175.532 100.898C175.281 100.952 175.029 101.032 174.778 101.137H174.731V100.32C174.88 100.277 175.092 100.23 175.369 100.178C175.646 100.127 175.92 100.101 176.191 100.101C176.52 100.101 176.797 100.127 177.022 100.178C177.248 100.23 177.45 100.322 177.63 100.457C177.804 100.588 177.934 100.758 178.02 100.966C178.105 101.175 178.148 101.429 178.148 101.728V105H177.348V104.49ZM183.505 106.148H182.756V105H179.283V100.217H180.088V104.306H182.225V100.217H183.03V104.306H183.505V106.148ZM188.079 105H187.282V101.433L185.03 105H184.302V100.217H185.098V103.728L187.325 100.217H188.079V105ZM193.02 105H192.224V101.433L189.972 105H189.244V100.217H190.04V103.728L192.267 100.217H193.02V105Z" fill="#303549"/>
<path d="M163.599 78.8496H159.657V78.0243H161.123V72.6055H159.657V71.867C160.211 71.867 160.618 71.7892 160.879 71.6336C161.143 71.4743 161.291 71.1757 161.324 70.7377H162.166V78.0243H163.599V78.8496Z" fill="#303549"/>
<path fill-rule="evenodd" clip-rule="evenodd" d="M161.49 48.6295L135 76.1795C127.916 68.7596 123.974 58.8882 124 48.6295C124 27.2695 140.9 9.68945 161.43 9.68945C181.96 9.68945 198.87 27.2695 198.87 48.6295C198.915 58.9066 194.972 68.8006 187.87 76.2295L161.49 48.6295Z" fill="#F7931E"/>
<path fill-rule="evenodd" clip-rule="evenodd" d="M161.49 48.6295L135 76.1795C127.916 68.7596 123.974 58.8882 124 48.6295C124 27.2695 140.9 9.68945 161.43 9.68945C181.96 9.68945 198.87 27.2695 198.87 48.6295C198.874 55.0676 197.33 61.4124 194.37 67.1295L161.49 48.6295Z" fill="#8C99B2"/>
<path fill-rule="evenodd" clip-rule="evenodd" d="M161.49 48.6295L138.16 75.3995C132.698 70.6413 128.822 64.3269 127.051 57.3032C125.279 50.2794 125.698 42.882 128.25 36.1029C130.802 29.3237 135.366 23.4869 141.33 19.3751C147.293 15.2632 154.371 13.0729 161.615 13.0979C168.858 13.1228 175.921 15.3618 181.856 19.5146C187.791 23.6674 192.315 29.5355 194.82 36.3321C197.326 43.1286 197.693 50.5287 195.874 57.5401C194.054 64.5515 190.134 70.839 184.64 75.5595L161.49 48.6295Z" fill="white"/>
<path d="M161.45 37.1593C161.652 37.1593 161.845 37.0792 161.987 36.9367C162.13 36.7942 162.21 36.6009 162.21 36.3993V33.5393C162.21 33.3377 162.13 33.1444 161.987 33.0019C161.845 32.8594 161.652 32.7793 161.45 32.7793C161.248 32.7793 161.055 32.8594 160.913 33.0019C160.77 33.1444 160.69 33.3377 160.69 33.5393V36.3993C160.69 36.6009 160.77 36.7942 160.913 36.9367C161.055 37.0792 161.248 37.1593 161.45 37.1593Z" fill="#F7931E"/>
<path d="M165.36 37.9998C165.528 38.0914 165.724 38.1166 165.909 38.0703C166.094 38.0239 166.255 37.9095 166.36 37.7498L167.84 35.3098C167.943 35.1358 167.974 34.928 167.925 34.7315C167.877 34.535 167.753 34.3655 167.58 34.2598C167.412 34.1667 167.214 34.1418 167.028 34.1902C166.842 34.2385 166.682 34.3566 166.58 34.5198L165.11 36.9998C165.016 37.1669 164.989 37.3636 165.036 37.5496C165.082 37.7355 165.198 37.8967 165.36 37.9998Z" fill="#F7931E"/>
<path d="M172 38.4502C171.94 38.3696 171.864 38.3018 171.778 38.2506C171.692 38.1994 171.596 38.1658 171.496 38.1519C171.397 38.1379 171.296 38.1439 171.198 38.1693C171.101 38.1948 171.01 38.2392 170.93 38.3002L168.64 40.0002C168.478 40.1208 168.371 40.3008 168.342 40.5005C168.313 40.7003 168.364 40.9034 168.485 41.0652C168.606 41.2269 168.786 41.3342 168.985 41.3632C169.185 41.3923 169.388 41.3408 169.55 41.2202L171.83 39.5002C171.91 39.4426 171.978 39.3696 172.031 39.2856C172.083 39.2016 172.118 39.1081 172.133 39.0105C172.149 38.9129 172.145 38.8132 172.123 38.717C172.1 38.6209 172.058 38.5302 172 38.4502Z" fill="#F7931E"/>
<path d="M156.5 37.7792C156.605 37.9516 156.774 38.0753 156.97 38.1231C157.166 38.171 157.373 38.139 157.545 38.0342C157.717 37.9294 157.841 37.7605 157.889 37.5645C157.937 37.3685 157.905 37.1616 157.8 36.9892L156.32 34.5492C156.268 34.4638 156.2 34.3895 156.119 34.3305C156.039 34.2715 155.947 34.229 155.85 34.2053C155.753 34.1816 155.653 34.1773 155.554 34.1925C155.455 34.2078 155.36 34.2423 155.275 34.2942C155.19 34.3461 155.115 34.4143 155.056 34.4948C154.997 34.5754 154.955 34.6669 154.931 34.7639C154.907 34.8609 154.903 34.9617 154.918 35.0604C154.934 35.1591 154.968 35.2538 155.02 35.3392L156.5 37.7792Z" fill="#F7931E"/>
<path d="M154.42 41.0796C154.54 40.9172 154.592 40.714 154.564 40.5138C154.536 40.3136 154.43 40.1325 154.27 40.0095L152 38.2995C151.84 38.1775 151.637 38.1243 151.437 38.1515C151.238 38.1787 151.057 38.2841 150.935 38.4446C150.813 38.605 150.76 38.8074 150.787 39.0071C150.814 39.2068 150.92 39.3875 151.08 39.5095L153.36 41.2295C153.521 41.3494 153.722 41.401 153.921 41.3729C154.119 41.3448 154.299 41.2393 154.42 41.0796Z" fill="#F7931E"/>
<path d="M169.8 52.489C169.364 52.2359 168.863 52.1176 168.36 52.149C168.36 51.959 168.36 47.379 168.36 47.059C168.515 45.5471 168.288 44.0206 167.7 42.619C167.145 41.4351 166.265 40.4337 165.161 39.7323C164.058 39.0308 162.777 38.6582 161.47 38.6582C160.163 38.6582 158.882 39.0308 157.779 39.7323C156.675 40.4337 155.795 41.4351 155.24 42.619C154.65 44.0306 154.423 45.5673 154.58 47.089C154.58 47.409 154.58 51.959 154.58 52.149C154.076 52.1113 153.573 52.23 153.14 52.489C152.77 52.6953 152.468 53.0045 152.27 53.379C152.018 53.8254 151.913 54.3397 151.97 54.849V56.619H170.97V54.849C171.021 54.34 170.916 53.8274 170.67 53.379C170.466 53.009 170.165 52.7013 169.8 52.489ZM155.93 45.559C155.932 44.2613 156.391 43.0057 157.225 42.0119C158.06 41.0181 159.217 40.3495 160.495 40.123C161.773 39.8965 163.089 40.1267 164.215 40.7731C165.34 41.4195 166.202 42.4411 166.65 43.659C167 44.9855 167.115 46.3629 166.99 47.729C166.99 48.069 166.99 51.919 166.99 52.149H155.99C155.9 51.919 155.92 45.999 155.93 45.559ZM169.61 55.259H153.32C153.2 54.659 153.32 53.729 154.03 53.539C154.849 53.4881 155.671 53.4881 156.49 53.539H166.42C167.233 53.4879 168.047 53.4879 168.86 53.539C169.009 53.5777 169.147 53.6502 169.263 53.7508C169.379 53.8514 169.47 53.9774 169.53 54.119C169.629 54.4904 169.657 54.8774 169.61 55.259Z" fill="#F7931E"/>
<path d="M161.6 42.3598C162.432 42.3625 163.229 42.6941 163.817 43.2824C164.406 43.8707 164.737 44.6679 164.74 45.4998C164.74 45.7014 164.82 45.8947 164.963 46.0372C165.105 46.1798 165.298 46.2598 165.5 46.2598C165.702 46.2598 165.895 46.1798 166.037 46.0372C166.18 45.8947 166.26 45.7014 166.26 45.4998C166.26 44.2639 165.769 43.0786 164.895 42.2047C164.021 41.3308 162.836 40.8398 161.6 40.8398H161.52C161.325 40.8527 161.142 40.9415 161.011 41.0873C160.88 41.233 160.812 41.4242 160.82 41.6198C160.83 41.8197 160.917 42.008 161.062 42.1457C161.207 42.2834 161.4 42.3601 161.6 42.3598Z" fill="#F7931E"/>
<path opacity="0.2" d="M250.206 100H249.358V94.3774H246.424V100H245.577V93.6238H250.206V100ZM256.085 100H255.242V94.9384L252.36 100H251.503V93.6238H252.347V98.604L255.19 93.6238H256.085V100ZM262.556 101.443H261.751V99.9829H257.614V101.443H256.809V99.2463H257.156C257.527 98.6383 257.825 97.8418 258.051 96.8568C258.279 95.8691 258.393 94.7914 258.393 93.6238H261.952V99.2463H262.556V101.443ZM261.104 99.2463V94.3603H259.19C259.15 95.3909 259.021 96.3258 258.804 97.1652C258.587 98.0045 258.31 98.6982 257.974 99.2463H261.104ZM265.527 97.5977H263.112V96.8226H265.527V97.5977ZM270.508 97.4821C270.508 98.2785 270.316 98.9137 269.934 99.3876C269.554 99.8587 269.073 100.094 268.491 100.094C268.254 100.094 268.044 100.067 267.861 100.013C267.679 99.9586 267.492 99.8744 267.3 99.7602V101.764H266.495V95.2168H267.3V95.7178C267.5 95.5379 267.721 95.388 267.964 95.2681C268.21 95.1454 268.476 95.084 268.765 95.084C269.313 95.084 269.74 95.301 270.045 95.7349C270.354 96.1688 270.508 96.7512 270.508 97.4821ZM269.677 97.572C269.677 97.0267 269.59 96.6042 269.416 96.3044C269.242 96.0018 268.959 95.8505 268.568 95.8505C268.339 95.8505 268.118 95.9019 267.904 96.0047C267.693 96.1046 267.492 96.2345 267.3 96.3944V99.105C267.512 99.2078 267.691 99.2777 267.84 99.3148C267.991 99.352 268.164 99.3705 268.358 99.3705C268.775 99.3705 269.099 99.2178 269.33 98.9123C269.561 98.6068 269.677 98.1601 269.677 97.572ZM273.42 100.111C272.657 100.111 272.065 99.8972 271.642 99.469C271.223 99.0379 271.013 98.427 271.013 97.6362C271.013 96.8568 271.217 96.2374 271.625 95.7777C272.034 95.3152 272.567 95.084 273.227 95.084C273.524 95.084 273.786 95.1268 274.015 95.2125C274.243 95.2981 274.443 95.4323 274.614 95.615C274.786 95.7977 274.917 96.0218 275.008 96.2873C275.1 96.55 275.145 96.8725 275.145 97.2551V97.6919H271.831C271.831 98.2486 271.971 98.6739 272.251 98.968C272.53 99.262 272.917 99.4091 273.411 99.4091C273.588 99.4091 273.761 99.3891 273.929 99.3491C274.1 99.3091 274.255 99.2577 274.392 99.1949C274.537 99.1293 274.66 99.0665 274.76 99.0065C274.86 98.9437 274.943 98.8852 275.008 98.831H275.055V99.7088C274.961 99.7459 274.844 99.793 274.704 99.8501C274.564 99.9044 274.439 99.9472 274.327 99.9786C274.17 100.021 274.028 100.054 273.899 100.077C273.774 100.1 273.614 100.111 273.42 100.111ZM274.362 97.0752C274.356 96.8583 274.33 96.6713 274.285 96.5143C274.239 96.3573 274.173 96.2245 274.088 96.116C273.993 95.9961 273.872 95.9048 273.724 95.842C273.578 95.7792 273.397 95.7477 273.18 95.7477C272.966 95.7477 272.783 95.7806 272.632 95.8462C272.483 95.909 272.348 96.0018 272.225 96.1246C272.105 96.2502 272.014 96.3901 271.951 96.5442C271.888 96.6955 271.848 96.8725 271.831 97.0752H274.362ZM278.999 95.9233H276.764V100H275.959V95.2168H278.999V95.9233ZM283.359 95.2168L280.785 101.764H279.924L280.781 99.7688L279.042 95.2168H279.911L281.218 98.7582L282.519 95.2168H283.359ZM287.671 100H286.866V95.8933H285.221C285.213 96.1303 285.204 96.3587 285.196 96.5785C285.187 96.7955 285.179 96.9924 285.17 97.1694C285.153 97.6177 285.123 97.9931 285.08 98.2957C285.04 98.5983 284.989 98.8409 284.926 99.0237C284.863 99.2121 284.793 99.3591 284.716 99.4647C284.642 99.5703 284.558 99.666 284.463 99.7516C284.366 99.8373 284.262 99.9015 284.151 99.9443C284.04 99.9872 283.914 100.009 283.774 100.009C283.728 100.009 283.67 100.007 283.598 100.004C283.527 100.001 283.477 100 283.449 100V99.2977H283.491C283.511 99.2977 283.531 99.2991 283.551 99.302C283.574 99.3049 283.6 99.3063 283.628 99.3063C283.697 99.3063 283.764 99.2963 283.83 99.2763C283.895 99.2563 283.954 99.2192 284.005 99.165C284.148 99.0251 284.252 98.781 284.318 98.4327C284.384 98.0816 284.431 97.592 284.459 96.9639C284.471 96.7298 284.481 96.4529 284.489 96.1331C284.501 95.8134 284.511 95.5079 284.519 95.2168H287.671V100ZM292.304 100H291.499V98.103H290.703L289.285 100H288.347L289.885 98.0302C289.488 97.9131 289.197 97.739 289.011 97.5077C288.828 97.2765 288.737 96.9668 288.737 96.5785C288.737 96.3416 288.788 96.1346 288.891 95.9576C288.997 95.7777 289.138 95.6264 289.315 95.5037C289.458 95.4066 289.638 95.3352 289.855 95.2896C290.072 95.241 290.314 95.2168 290.583 95.2168H292.304V100ZM291.499 97.4692V95.8591H290.626C290.44 95.8591 290.293 95.8691 290.185 95.8891C290.079 95.909 289.976 95.9476 289.876 96.0047C289.773 96.0675 289.695 96.1531 289.641 96.2616C289.589 96.3672 289.564 96.4814 289.564 96.6042C289.564 96.7612 289.581 96.8897 289.615 96.9896C289.652 97.0867 289.718 97.1766 289.812 97.2594C289.912 97.345 290.033 97.4021 290.176 97.4307C290.322 97.4564 290.48 97.4692 290.651 97.4692H291.499ZM296.968 95.9233H295.34V100H294.535V95.9233H292.908V95.2168H296.968V95.9233ZM301.502 97.6105C301.502 98.4156 301.308 99.0379 300.92 99.4776C300.532 99.9144 300.015 100.133 299.37 100.133C298.705 100.133 298.181 99.9072 297.798 99.4562C297.419 99.0022 297.229 98.387 297.229 97.6105C297.229 96.8112 297.424 96.1902 297.815 95.7477C298.209 95.3053 298.728 95.084 299.37 95.084C300.015 95.084 300.532 95.3053 300.92 95.7477C301.308 96.1874 301.502 96.8083 301.502 97.6105ZM300.672 97.6105C300.672 96.991 300.559 96.5314 300.333 96.2316C300.108 95.929 299.787 95.7777 299.37 95.7777C298.95 95.7777 298.626 95.929 298.398 96.2316C298.172 96.5314 298.06 96.991 298.06 97.6105C298.06 98.21 298.172 98.6654 298.398 98.9765C298.626 99.2849 298.95 99.439 299.37 99.439C299.784 99.439 300.104 99.2877 300.329 98.9851C300.557 98.6796 300.672 98.2214 300.672 97.6105ZM306.341 97.4821C306.341 98.2785 306.15 98.9137 305.768 99.3876C305.388 99.8587 304.907 100.094 304.324 100.094C304.087 100.094 303.878 100.067 303.695 100.013C303.512 99.9586 303.325 99.8744 303.134 99.7602V101.764H302.329V95.2168H303.134V95.7178C303.334 95.5379 303.555 95.388 303.798 95.2681C304.043 95.1454 304.31 95.084 304.598 95.084C305.147 95.084 305.573 95.301 305.879 95.7349C306.187 96.1688 306.341 96.7512 306.341 97.4821ZM305.511 97.572C305.511 97.0267 305.424 96.6042 305.249 96.3044C305.075 96.0018 304.793 95.8505 304.401 95.8505C304.173 95.8505 303.952 95.9019 303.738 96.0047C303.526 96.1046 303.325 96.2345 303.134 96.3944V99.105C303.345 99.2078 303.525 99.2777 303.674 99.3148C303.825 99.352 303.998 99.3705 304.192 99.3705C304.608 99.3705 304.932 99.2178 305.164 98.9123C305.395 98.6068 305.511 98.1601 305.511 97.572ZM310.726 98.5183C310.726 98.7496 310.679 98.9594 310.585 99.1478C310.494 99.3363 310.368 99.489 310.208 99.606C310.02 99.7488 309.819 99.8501 309.604 99.9101C309.39 99.97 309.115 100 308.778 100H307.176V95.2168H307.981V97.0795H308.799C309.159 97.0795 309.437 97.0981 309.634 97.1352C309.834 97.1723 310.033 97.2637 310.23 97.4093C310.395 97.532 310.519 97.689 310.602 97.8803C310.685 98.0716 310.726 98.2843 310.726 98.5183ZM309.896 98.5312C309.896 98.3856 309.87 98.2586 309.819 98.1501C309.77 98.0387 309.689 97.9488 309.574 97.8803C309.455 97.8089 309.317 97.7661 309.163 97.7518C309.012 97.7376 308.794 97.7304 308.508 97.7304H307.981V99.3577H308.491C308.777 99.3577 308.998 99.3462 309.155 99.3234C309.312 99.2977 309.447 99.2506 309.562 99.1821C309.679 99.1079 309.763 99.0208 309.814 98.9209C309.868 98.8181 309.896 98.6882 309.896 98.5312ZM312.088 100H311.283V95.2168H312.088V100Z" fill="#8C99B2"/>
<g opacity="0.2">
<path opacity="0.2" d="M281.24 74.8045C281.24 76.256 281.028 77.3221 280.604 78.0026C280.185 78.6795 279.535 79.0179 278.655 79.0179C277.765 79.0179 277.111 78.6722 276.695 77.9809C276.279 77.2895 276.071 76.2343 276.071 74.8154C276.071 73.3566 276.281 72.2905 276.701 71.6173C277.124 70.9404 277.776 70.6019 278.655 70.6019C279.546 70.6019 280.199 70.9512 280.615 71.6498C281.032 72.3485 281.24 73.4 281.24 74.8045ZM279.85 77.2696C279.955 77.0017 280.029 76.6633 280.072 76.2542C280.116 75.8452 280.137 75.3619 280.137 74.8045C280.137 74.2507 280.116 73.7692 280.072 73.3602C280.029 72.9512 279.953 72.6109 279.844 72.3394C279.736 72.0643 279.585 71.8562 279.394 71.715C279.205 71.5702 278.959 71.4978 278.655 71.4978C278.355 71.4978 278.107 71.5702 277.911 71.715C277.719 71.8562 277.567 72.0679 277.455 72.3503C277.347 72.6254 277.272 72.9729 277.233 73.3928C277.193 73.8127 277.173 74.2869 277.173 74.8154C277.173 75.38 277.189 75.8524 277.222 76.2325C277.258 76.6126 277.334 76.9528 277.45 77.2533C277.555 77.532 277.703 77.7474 277.895 77.8994C278.091 78.0478 278.344 78.122 278.655 78.122C278.956 78.122 279.202 78.0514 279.394 77.9103C279.589 77.7655 279.741 77.5519 279.85 77.2696Z" fill="#8C99B2"/>
</g>
<path opacity="0.2" fill-rule="evenodd" clip-rule="evenodd" d="M278.69 48.63L251.18 76.18C245.725 70.7319 242.011 63.7869 240.507 56.2253C239.004 48.6637 239.78 40.826 242.737 33.7059C245.693 26.5858 250.697 20.5038 257.115 16.231C263.532 11.9582 271.073 9.68693 278.783 9.70519C286.492 9.72345 294.023 12.0304 300.42 16.3335C306.816 20.6367 311.792 26.7423 314.714 33.8764C317.637 41.0104 318.376 48.8517 316.837 56.4061C315.298 63.9605 311.551 70.8878 306.07 76.31L278.69 48.63Z" fill="#8C99B2"/>
<path fill-rule="evenodd" clip-rule="evenodd" d="M278.69 48.6309L262.05 80.0009C255.167 76.3516 249.674 70.5399 246.42 63.4613C243.165 56.3828 242.329 48.4303 244.04 40.8296C245.75 33.2288 249.913 26.4017 255.887 21.4002C261.861 16.3988 269.313 13.5007 277.096 13.1527C284.88 12.8046 292.561 15.0258 298.957 19.474C305.354 23.9223 310.109 30.3506 312.492 37.7682C314.874 45.1859 314.751 53.1813 312.141 60.5221C309.532 67.8629 304.58 74.1417 298.05 78.3909L278.69 48.6309Z" fill="white"/>
<path opacity="0.2" d="M271.47 38.1998V45.7098C271.471 45.8534 271.514 45.9935 271.594 46.1127C271.674 46.2318 271.787 46.3248 271.92 46.3798L278.37 49.1498C278.461 49.1897 278.56 49.2101 278.66 49.2098C278.755 49.2078 278.85 49.1909 278.94 49.1598L285.45 46.3898C285.582 46.3326 285.695 46.2374 285.773 46.1164C285.851 45.9954 285.892 45.8539 285.89 45.7098V38.1798C285.892 38.0692 285.868 37.9596 285.82 37.8598L285.76 37.7898C285.724 37.7224 285.672 37.6643 285.61 37.6198H285.55H285.49L278.83 34.8098C278.644 34.7353 278.436 34.7353 278.25 34.8098L271.95 37.6198H271.89H271.84C271.782 37.6655 271.732 37.7194 271.69 37.7798L271.63 37.8698C271.592 37.9587 271.568 38.0533 271.56 38.1498L271.47 38.1998ZM275.47 37.5398L280.12 39.5398L278.7 40.1398L274.09 38.1998L275.47 37.5398ZM272.98 39.2798L277.98 41.3798V47.3798L272.98 45.2398V39.2798ZM284.47 45.2298L279.47 47.3698V41.3698L281.36 40.5798V41.6998C281.36 41.7957 281.379 41.8906 281.416 41.9792C281.452 42.0677 281.506 42.1482 281.574 42.216C281.642 42.2838 281.722 42.3376 281.811 42.3743C281.899 42.4109 281.994 42.4298 282.09 42.4298C282.186 42.4298 282.281 42.4109 282.369 42.3743C282.458 42.3376 282.538 42.2838 282.606 42.216C282.674 42.1482 282.728 42.0677 282.764 41.9792C282.801 41.8906 282.82 41.7957 282.82 41.6998V39.9998L284.51 39.2998L284.47 45.2298ZM278.56 36.1698L283.31 38.1698L282.01 38.7098L277.3 36.7098L278.56 36.1698Z" fill="#8C99B2"/>
<path opacity="0.2" d="M288.18 49.9308C287.67 49.9322 287.173 50.0957 286.761 50.3976C286.35 50.6995 286.045 51.1243 285.89 51.6108H281C280.844 51.1246 280.538 50.7004 280.125 50.3995C279.713 50.0985 279.216 49.9364 278.705 49.9364C278.194 49.9364 277.697 50.0985 277.285 50.3995C276.872 50.7004 276.566 51.1246 276.41 51.6108H271.5C271.325 51.0607 270.958 50.5914 270.467 50.2877C269.976 49.984 269.393 49.8658 268.822 49.9545C268.252 50.0433 267.732 50.3331 267.356 50.7716C266.981 51.2101 266.774 51.7684 266.774 52.3458C266.774 52.9232 266.981 53.4815 267.356 53.92C267.732 54.3585 268.252 54.6483 268.822 54.737C269.393 54.8258 269.976 54.7076 270.467 54.4039C270.958 54.1002 271.325 53.6309 271.5 53.0808H276.41C276.566 53.567 276.872 53.9912 277.285 54.2921C277.697 54.593 278.194 54.7552 278.705 54.7552C279.216 54.7552 279.713 54.593 280.125 54.2921C280.538 53.9912 280.844 53.567 281 53.0808H285.91C286.047 53.5041 286.298 53.8814 286.635 54.1708C286.973 54.4603 287.384 54.6506 287.824 54.7207C288.263 54.7908 288.713 54.7379 289.124 54.568C289.535 54.3981 289.891 54.1177 290.153 53.7579C290.414 53.3981 290.571 52.973 290.606 52.5295C290.641 52.086 290.552 51.6416 290.35 51.2454C290.148 50.8492 289.84 50.5166 289.461 50.2846C289.081 50.0526 288.645 49.9301 288.2 49.9308H288.18ZM278.68 52.8508C278.579 52.8508 278.48 52.8206 278.396 52.7641C278.312 52.7076 278.246 52.6273 278.208 52.5336C278.17 52.4398 278.16 52.3367 278.181 52.2376C278.201 52.1384 278.251 52.0475 278.323 51.9766C278.395 51.9057 278.487 51.8579 278.587 51.8394C278.686 51.8209 278.789 51.8324 278.882 51.8725C278.975 51.9127 279.054 51.9796 279.109 52.0648C279.164 52.1499 279.192 52.2495 279.19 52.3508C279.187 52.4843 279.133 52.6115 279.037 52.705C278.942 52.7985 278.814 52.8508 278.68 52.8508ZM269.19 53.3008C268.988 53.3106 268.788 53.2592 268.616 53.1532C268.445 53.0473 268.309 52.8917 268.227 52.7071C268.145 52.5225 268.121 52.3174 268.158 52.1189C268.195 51.9203 268.291 51.7377 268.434 51.5949C268.577 51.4521 268.76 51.3559 268.958 51.3189C269.157 51.2819 269.362 51.3059 269.546 51.3877C269.731 51.4695 269.886 51.6053 269.992 51.7772C270.098 51.9491 270.15 52.1491 270.14 52.3508C270.128 52.5988 270.024 52.8335 269.848 53.0091C269.673 53.1847 269.438 53.2887 269.19 53.3008ZM288.19 53.3008C287.99 53.3005 287.795 53.2404 287.63 53.1282C287.464 53.0159 287.336 52.8567 287.262 52.671C287.188 52.4854 287.172 52.2818 287.214 52.0866C287.257 51.8914 287.358 51.7134 287.503 51.5758C287.647 51.4381 287.83 51.3471 288.027 51.3143C288.225 51.2816 288.427 51.3086 288.609 51.392C288.79 51.4755 288.943 51.6114 289.046 51.7823C289.15 51.9532 289.2 52.1512 289.19 52.3508C289.177 52.609 289.065 52.8521 288.876 53.0293C288.688 53.2064 288.438 53.3037 288.18 53.3008H288.19Z" fill="#8C99B2"/>
<path opacity="0.2" d="M278.69 51.2902C278.543 51.2758 278.394 51.2924 278.254 51.3389C278.114 51.3854 277.984 51.4607 277.875 51.5601C277.765 51.6595 277.678 51.7806 277.618 51.9158C277.558 52.051 277.527 52.1973 277.527 52.3452C277.527 52.493 277.558 52.6393 277.618 52.7745C277.678 52.9097 277.765 53.0308 277.875 53.1302C277.984 53.2296 278.114 53.3049 278.254 53.3514C278.394 53.3979 278.543 53.4145 278.69 53.4002C278.952 53.3746 279.195 53.2524 279.372 53.0574C279.549 52.8624 279.647 52.6085 279.647 52.3452C279.647 52.0818 279.549 51.8279 279.372 51.6329C279.195 51.4379 278.952 51.3157 278.69 51.2902Z" fill="#8C99B2"/>
</svg>
