<svg width="324" height="117" viewBox="0 0 324 117" fill="none" xmlns="http://www.w3.org/2000/svg">
<path d="M45.8071 93.7793H44.6528V86.8535L40.7094 93.7793H39.5376V85.0547H40.6919V91.8691L44.5825 85.0547H45.8071V93.7793ZM53.7466 86.0566C54.0786 86.4395 54.3364 86.9141 54.52 87.4805C54.7036 88.0469 54.7954 88.6934 54.7954 89.4199C54.7954 90.127 54.7055 90.7656 54.5258 91.3359C54.3462 91.9062 54.0864 92.3848 53.7466 92.7715C53.3911 93.1777 52.9751 93.4785 52.4985 93.6738C52.0258 93.8652 51.5044 93.9609 50.9341 93.9609C50.3442 93.9609 49.813 93.8613 49.3403 93.6621C48.8676 93.4629 48.4614 93.166 48.1216 92.7715C47.7856 92.3848 47.5278 91.9082 47.3481 91.3418C47.1684 90.7754 47.0786 90.1348 47.0786 89.4199C47.0786 88.6855 47.1684 88.041 47.3481 87.4863C47.5317 86.9316 47.7915 86.4551 48.1274 86.0566C48.4633 85.6699 48.8676 85.377 49.3403 85.1777C49.8169 84.9746 50.3481 84.873 50.9341 84.873C51.5278 84.873 52.063 84.9766 52.5395 85.1836C53.0161 85.3906 53.4184 85.6816 53.7466 86.0566ZM53.5883 89.4199C53.5883 88.8418 53.5258 88.3301 53.4008 87.8848C53.2758 87.4395 53.1001 87.0703 52.8735 86.7773C52.643 86.4766 52.3637 86.252 52.0356 86.1035C51.7114 85.9512 51.3462 85.875 50.9399 85.875C50.518 85.875 50.1489 85.9492 49.8325 86.0977C49.52 86.2422 49.2426 86.4688 49.0005 86.7773C48.77 87.0742 48.5923 87.4473 48.4673 87.8965C48.3462 88.3457 48.2856 88.8535 48.2856 89.4199C48.2856 90.5645 48.5258 91.4414 49.0063 92.0508C49.4868 92.6562 50.1313 92.959 50.9399 92.959C51.7485 92.959 52.3911 92.6562 52.8676 92.0508C53.3481 91.4414 53.5883 90.5645 53.5883 89.4199ZM61.9321 93.7793H60.7719V90.0879C60.2954 90.2441 59.8716 90.3613 59.5005 90.4395C59.1294 90.5176 58.7407 90.5566 58.3344 90.5566C57.9594 90.5566 57.6157 90.5117 57.3032 90.4219C56.9907 90.3281 56.7153 90.1797 56.477 89.9766C56.2426 89.7734 56.0591 89.5117 55.9262 89.1914C55.7973 88.8711 55.7329 88.4922 55.7329 88.0547V85.0547H56.893V87.4746C56.893 87.8418 56.9067 88.1328 56.9341 88.3477C56.9614 88.5586 57.0395 88.7617 57.1684 88.957C57.2817 89.1289 57.4497 89.2617 57.6723 89.3555C57.895 89.4453 58.1919 89.4902 58.563 89.4902C58.895 89.4902 59.27 89.4531 59.688 89.3789C60.1059 89.3008 60.4673 89.2051 60.7719 89.0918V85.0547H61.9321V93.7793Z" fill="#606580"/>
<path d="M158.411 93.7793H157.251V86.2617L154.977 91.377H154.274L152.018 86.2617V93.7793H150.934V85.0547H152.516L154.696 89.9121L156.799 85.0547H158.411V93.7793ZM166.35 86.0566C166.682 86.4395 166.94 86.9141 167.124 87.4805C167.307 88.0469 167.399 88.6934 167.399 89.4199C167.399 90.127 167.309 90.7656 167.129 91.3359C166.95 91.9062 166.69 92.3848 166.35 92.7715C165.995 93.1777 165.579 93.4785 165.102 93.6738C164.629 93.8652 164.108 93.9609 163.538 93.9609C162.948 93.9609 162.417 93.8613 161.944 93.6621C161.471 93.4629 161.065 93.166 160.725 92.7715C160.389 92.3848 160.131 91.9082 159.952 91.3418C159.772 90.7754 159.682 90.1348 159.682 89.4199C159.682 88.6855 159.772 88.041 159.952 87.4863C160.135 86.9316 160.395 86.4551 160.731 86.0566C161.067 85.6699 161.471 85.377 161.944 85.1777C162.42 84.9746 162.952 84.873 163.538 84.873C164.131 84.873 164.667 84.9766 165.143 85.1836C165.62 85.3906 166.022 85.6816 166.35 86.0566ZM166.192 89.4199C166.192 88.8418 166.129 88.3301 166.004 87.8848C165.879 87.4395 165.704 87.0703 165.477 86.7773C165.247 86.4766 164.967 86.252 164.639 86.1035C164.315 85.9512 163.95 85.875 163.544 85.875C163.122 85.875 162.753 85.9492 162.436 86.0977C162.124 86.2422 161.846 86.4688 161.604 86.7773C161.374 87.0742 161.196 87.4473 161.071 87.8965C160.95 88.3457 160.889 88.8535 160.889 89.4199C160.889 90.5645 161.129 91.4414 161.61 92.0508C162.09 92.6562 162.735 92.959 163.544 92.959C164.352 92.959 164.995 92.6562 165.471 92.0508C165.952 91.4414 166.192 90.5645 166.192 89.4199ZM174.536 93.7793H173.376V90.0879C172.899 90.2441 172.475 90.3613 172.104 90.4395C171.733 90.5176 171.344 90.5566 170.938 90.5566C170.563 90.5566 170.219 90.5117 169.907 90.4219C169.594 90.3281 169.319 90.1797 169.081 89.9766C168.846 89.7734 168.663 89.5117 168.53 89.1914C168.401 88.8711 168.336 88.4922 168.336 88.0547V85.0547H169.497V87.4746C169.497 87.8418 169.51 88.1328 169.538 88.3477C169.565 88.5586 169.643 88.7617 169.772 88.957C169.885 89.1289 170.053 89.2617 170.276 89.3555C170.499 89.4453 170.795 89.4902 171.167 89.4902C171.499 89.4902 171.874 89.4531 172.292 89.3789C172.71 89.3008 173.071 89.2051 173.376 89.0918V85.0547H174.536V93.7793Z" fill="#606580"/>
<path d="M158.068 61.2783H151.341V59.501H153.488V54.1211H151.341V52.46C151.656 52.46 151.968 52.4395 152.278 52.3984C152.588 52.3574 152.836 52.2914 153.023 52.2002C153.242 52.0908 153.41 51.945 153.529 51.7627C153.652 51.5759 153.722 51.3457 153.741 51.0723H155.969V59.501H158.068V61.2783ZM167.303 56.1856C167.303 57.0651 167.233 57.8353 167.091 58.4961C166.95 59.1569 166.724 59.7083 166.415 60.1504C166.105 60.5925 165.701 60.9274 165.205 61.1553C164.708 61.3786 164.099 61.4902 163.379 61.4902C162.664 61.4902 162.058 61.3786 161.561 61.1553C161.064 60.9274 160.659 60.5879 160.344 60.1367C160.034 59.6901 159.809 59.141 159.667 58.4893C159.526 57.833 159.456 57.0674 159.456 56.1924C159.456 55.2901 159.524 54.5199 159.661 53.8818C159.802 53.2438 160.034 52.6947 160.358 52.2344C160.677 51.7832 161.087 51.4483 161.588 51.2295C162.09 51.0062 162.687 50.8945 163.379 50.8945C164.113 50.8945 164.724 51.0108 165.211 51.2432C165.704 51.471 166.107 51.8128 166.421 52.2686C166.731 52.7152 166.955 53.2666 167.091 53.9229C167.233 54.5791 167.303 55.3333 167.303 56.1856ZM164.74 56.1856C164.74 54.9277 164.635 54.0459 164.425 53.5401C164.22 53.0296 163.872 52.7744 163.379 52.7744C162.892 52.7744 162.543 53.0296 162.333 53.5401C162.124 54.0459 162.019 54.9323 162.019 56.1992C162.019 57.4388 162.124 58.3184 162.333 58.8379C162.543 59.3529 162.892 59.6104 163.379 59.6104C163.867 59.6104 164.216 59.3529 164.425 58.8379C164.635 58.3184 164.74 57.4343 164.74 56.1856ZM176.122 53.1231L171.788 61.2783H168.944L173.49 53.0205H168.636V51.0996H176.122V53.1231Z" fill="#303549"/>
<path d="M263.799 93.9375C263.229 93.9375 262.704 93.8418 262.223 93.6504C261.747 93.459 261.335 93.1738 260.987 92.7949C260.639 92.416 260.37 91.9434 260.178 91.377C259.987 90.8105 259.891 90.1602 259.891 89.4258C259.891 88.6953 259.983 88.0586 260.167 87.5156C260.354 86.9727 260.626 86.5 260.981 86.0977C261.329 85.707 261.741 85.4102 262.217 85.207C262.694 85 263.227 84.8965 263.817 84.8965C264.11 84.8965 264.383 84.918 264.637 84.9609C264.895 85.0039 265.133 85.0586 265.352 85.125C265.54 85.1836 265.731 85.2578 265.926 85.3477C266.126 85.4336 266.321 85.5293 266.512 85.6348V87.0352H266.419C266.317 86.9414 266.186 86.8281 266.026 86.6953C265.866 86.5625 265.67 86.4316 265.44 86.3027C265.217 86.1816 264.975 86.082 264.713 86.0039C264.452 85.9258 264.149 85.8867 263.805 85.8867C263.434 85.8867 263.083 85.9629 262.751 86.1152C262.419 86.2676 262.128 86.4922 261.878 86.7891C261.631 87.0859 261.44 87.459 261.303 87.9082C261.167 88.3574 261.098 88.8633 261.098 89.4258C261.098 90.0234 261.17 90.5391 261.315 90.9727C261.46 91.4023 261.657 91.7656 261.907 92.0625C262.149 92.3516 262.434 92.5703 262.762 92.7188C263.09 92.8633 263.438 92.9355 263.805 92.9355C264.141 92.9355 264.452 92.8945 264.737 92.8125C265.022 92.7305 265.276 92.627 265.499 92.502C265.713 92.3809 265.899 92.2578 266.055 92.1328C266.211 92.0039 266.335 91.8945 266.424 91.8047H266.512V93.1875C266.321 93.2773 266.139 93.3633 265.967 93.4453C265.799 93.5273 265.594 93.6074 265.352 93.6855C265.098 93.7676 264.862 93.8301 264.643 93.873C264.428 93.916 264.147 93.9375 263.799 93.9375ZM270.35 93.9316C269.307 93.9316 268.497 93.6387 267.919 93.0527C267.344 92.4629 267.057 91.627 267.057 90.5449C267.057 89.4785 267.336 88.6309 267.895 88.002C268.454 87.3691 269.184 87.0527 270.086 87.0527C270.493 87.0527 270.852 87.1113 271.165 87.2285C271.477 87.3457 271.751 87.5293 271.985 87.7793C272.219 88.0293 272.399 88.3359 272.524 88.6992C272.649 89.0586 272.711 89.5 272.711 90.0234V90.6211H268.176C268.176 91.3828 268.368 91.9648 268.751 92.3672C269.133 92.7695 269.663 92.9707 270.338 92.9707C270.581 92.9707 270.817 92.9434 271.047 92.8887C271.282 92.834 271.493 92.7637 271.68 92.6777C271.879 92.5879 272.047 92.502 272.184 92.4199C272.321 92.334 272.434 92.2539 272.524 92.1797H272.588V93.3809C272.46 93.4316 272.299 93.4961 272.108 93.5742C271.917 93.6484 271.745 93.707 271.592 93.75C271.378 93.8086 271.182 93.8535 271.006 93.8848C270.835 93.916 270.616 93.9316 270.35 93.9316ZM271.639 89.7773C271.631 89.4805 271.596 89.2246 271.534 89.0098C271.471 88.7949 271.381 88.6133 271.264 88.4648C271.135 88.3008 270.969 88.1758 270.766 88.0898C270.567 88.0039 270.319 87.9609 270.022 87.9609C269.729 87.9609 269.479 88.0059 269.272 88.0957C269.069 88.1816 268.883 88.3086 268.715 88.4766C268.551 88.6484 268.426 88.8398 268.34 89.0508C268.254 89.2578 268.2 89.5 268.176 89.7773H271.639ZM279.315 90.334C279.315 91.4238 279.053 92.293 278.53 92.9414C278.01 93.5859 277.352 93.9082 276.555 93.9082C276.231 93.9082 275.944 93.8711 275.694 93.7969C275.444 93.7227 275.188 93.6074 274.926 93.4512V96.1934H273.825V87.2344H274.926V87.9199C275.2 87.6738 275.503 87.4688 275.835 87.3047C276.17 87.1367 276.536 87.0527 276.93 87.0527C277.68 87.0527 278.264 87.3496 278.682 87.9434C279.104 88.5371 279.315 89.334 279.315 90.334ZM278.178 90.457C278.178 89.7109 278.059 89.1328 277.821 88.7227C277.583 88.3086 277.196 88.1016 276.661 88.1016C276.348 88.1016 276.045 88.1719 275.753 88.3125C275.463 88.4492 275.188 88.627 274.926 88.8457V92.5547C275.215 92.6953 275.461 92.791 275.665 92.8418C275.872 92.8926 276.108 92.918 276.374 92.918C276.944 92.918 277.387 92.709 277.704 92.291C278.02 91.873 278.178 91.2617 278.178 90.457ZM284.114 92.168V90.3516C283.852 90.375 283.52 90.4082 283.118 90.4512C282.719 90.4902 282.397 90.5469 282.151 90.6211C281.858 90.7109 281.616 90.8496 281.424 91.0371C281.233 91.2207 281.137 91.4785 281.137 91.8105C281.137 92.1855 281.243 92.4688 281.454 92.6602C281.665 92.8516 281.973 92.9473 282.379 92.9473C282.727 92.9473 283.042 92.873 283.323 92.7246C283.604 92.5723 283.868 92.3867 284.114 92.168ZM284.114 93.082C284.024 93.1484 283.903 93.2422 283.751 93.3633C283.602 93.4805 283.458 93.5742 283.317 93.6445C283.122 93.7461 282.932 93.8242 282.749 93.8789C282.569 93.9336 282.315 93.9609 281.987 93.9609C281.717 93.9609 281.461 93.9102 281.219 93.8086C280.977 93.707 280.764 93.5645 280.581 93.3809C280.405 93.2012 280.264 92.9805 280.159 92.7188C280.053 92.4531 280.001 92.1738 280.001 91.8809C280.001 91.4277 280.096 91.043 280.288 90.7266C280.479 90.4062 280.782 90.1523 281.196 89.9648C281.563 89.7969 281.997 89.6816 282.497 89.6191C282.997 89.5527 283.536 89.5039 284.114 89.4727V89.2617C284.114 89.0039 284.075 88.7969 283.997 88.6406C283.919 88.4805 283.809 88.3574 283.669 88.2715C283.528 88.1816 283.356 88.123 283.153 88.0957C282.95 88.0645 282.741 88.0488 282.526 88.0488C282.272 88.0488 281.973 88.0879 281.629 88.166C281.286 88.2402 280.942 88.3496 280.598 88.4941H280.534V87.375C280.737 87.3164 281.028 87.252 281.407 87.1816C281.786 87.1113 282.161 87.0762 282.532 87.0762C282.981 87.0762 283.36 87.1113 283.669 87.1816C283.977 87.252 284.254 87.3789 284.501 87.5625C284.739 87.7422 284.917 87.9746 285.034 88.2598C285.151 88.5449 285.21 88.8926 285.21 89.3027V93.7793H284.114V93.082Z" fill="#606580"/>
<path d="M268.068 61.2783H261.341V59.501H263.488V54.1211H261.341V52.46C261.656 52.46 261.968 52.4395 262.278 52.3984C262.588 52.3574 262.836 52.2914 263.023 52.2002C263.242 52.0908 263.41 51.945 263.529 51.7627C263.652 51.5759 263.722 51.3457 263.741 51.0723H265.969V59.501H268.068V61.2783ZM277.303 56.1856C277.303 57.0651 277.233 57.8353 277.091 58.4961C276.95 59.1569 276.724 59.7083 276.415 60.1504C276.105 60.5925 275.701 60.9274 275.205 61.1553C274.708 61.3786 274.099 61.4902 273.379 61.4902C272.664 61.4902 272.058 61.3786 271.561 61.1553C271.064 60.9274 270.659 60.5879 270.344 60.1367C270.034 59.6901 269.809 59.141 269.667 58.4893C269.526 57.833 269.456 57.0674 269.456 56.1924C269.456 55.2901 269.524 54.5199 269.661 53.8818C269.802 53.2438 270.034 52.6947 270.358 52.2344C270.677 51.7832 271.087 51.4483 271.588 51.2295C272.09 51.0062 272.687 50.8945 273.379 50.8945C274.113 50.8945 274.724 51.0108 275.211 51.2432C275.704 51.471 276.107 51.8128 276.421 52.2686C276.731 52.7152 276.955 53.2666 277.091 53.9229C277.233 54.5791 277.303 55.3333 277.303 56.1856ZM274.74 56.1856C274.74 54.9277 274.635 54.0459 274.425 53.5401C274.22 53.0296 273.872 52.7744 273.379 52.7744C272.892 52.7744 272.543 53.0296 272.333 53.5401C272.124 54.0459 272.019 54.9323 272.019 56.1992C272.019 57.4388 272.124 58.3184 272.333 58.8379C272.543 59.3529 272.892 59.6104 273.379 59.6104C273.867 59.6104 274.216 59.3529 274.425 58.8379C274.635 58.3184 274.74 57.4343 274.74 56.1856ZM286.122 53.1231L281.788 61.2783H278.944L283.49 53.0205H278.636V51.0996H286.122V53.1231Z" fill="#303549"/>
<path d="M46.0679 61.2783H39.3413V59.501H41.4878V54.1211H39.3413V52.46C39.6558 52.46 39.9679 52.4395 40.2778 52.3984C40.5877 52.3574 40.8361 52.2914 41.0229 52.2002C41.2417 52.0908 41.4103 51.945 41.5288 51.7627C41.6519 51.5759 41.7225 51.3457 41.7407 51.0723H43.9692V59.501H46.0679V61.2783ZM55.3032 56.1856C55.3032 57.0651 55.2326 57.8353 55.0913 58.4961C54.95 59.1569 54.7244 59.7083 54.4146 60.1504C54.1047 60.5925 53.7013 60.9274 53.2046 61.1553C52.7078 61.3786 52.0994 61.4902 51.3794 61.4902C50.6639 61.4902 50.0578 61.3786 49.561 61.1553C49.0643 60.9274 48.6587 60.5879 48.3442 60.1367C48.0343 59.6901 47.8088 59.141 47.6675 58.4893C47.5262 57.833 47.4556 57.0674 47.4556 56.1924C47.4556 55.2901 47.5239 54.5199 47.6606 53.8818C47.8019 53.2438 48.0343 52.6947 48.3579 52.2344C48.6769 51.7832 49.0871 51.4483 49.5884 51.2295C50.0897 51.0062 50.6867 50.8945 51.3794 50.8945C52.1131 50.8945 52.7238 51.0108 53.2114 51.2432C53.7036 51.471 54.1069 51.8128 54.4214 52.2686C54.7313 52.7152 54.9546 53.2666 55.0913 53.9229C55.2326 54.5791 55.3032 55.3333 55.3032 56.1856ZM52.7397 56.1856C52.7397 54.9277 52.6349 54.0459 52.4253 53.5401C52.2202 53.0296 51.8716 52.7744 51.3794 52.7744C50.8918 52.7744 50.5431 53.0296 50.3335 53.5401C50.1239 54.0459 50.019 54.9323 50.019 56.1992C50.019 57.4388 50.1239 58.3184 50.3335 58.8379C50.5431 59.3529 50.8918 59.6104 51.3794 59.6104C51.867 59.6104 52.2157 59.3529 52.4253 58.8379C52.6349 58.3184 52.7397 57.4343 52.7397 56.1856ZM64.1147 57.833C64.1147 58.3617 64.0236 58.8516 63.8413 59.3027C63.6636 59.7539 63.3947 60.1436 63.0347 60.4717C62.6792 60.7953 62.2554 61.0459 61.7632 61.2236C61.2756 61.4014 60.674 61.4902 59.9585 61.4902C59.202 61.4857 58.5503 61.4196 58.0034 61.292C57.4611 61.169 57.0122 61.03 56.6567 60.875V58.6533H56.8892C57.0168 58.7262 57.1603 58.8083 57.3198 58.8994C57.4793 58.9906 57.689 59.0863 57.9487 59.1865C58.1903 59.2822 58.4341 59.362 58.6802 59.4258C58.9308 59.485 59.2088 59.5147 59.5142 59.5147C59.7785 59.5147 60.0633 59.4828 60.3687 59.419C60.674 59.3506 60.9201 59.2298 61.1069 59.0567C61.2437 58.9199 61.3507 58.7673 61.4282 58.5986C61.5057 58.43 61.5444 58.2044 61.5444 57.9219C61.5444 57.6849 61.4943 57.4821 61.394 57.3135C61.2983 57.1403 61.1707 57.0013 61.0112 56.8965C60.7788 56.7415 60.4985 56.6436 60.1704 56.6026C59.8423 56.557 59.5597 56.5342 59.3228 56.5342C58.9491 56.5342 58.5845 56.5638 58.229 56.6231C57.8781 56.6823 57.5728 56.7461 57.313 56.8145H57.0942V51.0996H63.8345V53.0205H59.5073V54.7158C59.644 54.7067 59.8058 54.6999 59.9927 54.6953C60.1841 54.6862 60.3322 54.6817 60.437 54.6817C60.9246 54.6817 61.3758 54.7318 61.7905 54.832C62.2052 54.9277 62.5721 55.0781 62.8911 55.2832C63.2785 55.5339 63.5793 55.8711 63.7935 56.2949C64.0076 56.7142 64.1147 57.2269 64.1147 57.833Z" fill="#303549"/>
<mask id="mask0" mask-type="alpha" maskUnits="userSpaceOnUse" x="5" y="12" width="93" height="93">
<path d="M51.3792 100.758C74.7846 100.758 93.7584 81.7846 93.7584 58.3792C93.7584 34.9738 74.7846 16 51.3792 16C27.9738 16 9 34.9738 9 58.3792C9 81.7846 27.9738 100.758 51.3792 100.758Z" stroke="white" stroke-width="7" stroke-dasharray="90 3"/>
</mask>
<g mask="url(#mask0)">
<path d="M83.0999 25.4048V0.339844C83.0999 -2.42158 80.8613 -4.66016 78.0999 -4.66016L24.6316 -4.66016C21.8701 -4.66016 19.6316 -2.42158 19.6316 0.339844V25.4048C19.6316 28.1663 21.8701 30.4048 24.6316 30.4048L78.0999 30.4048C80.8613 30.4048 83.0999 28.1663 83.0999 25.4048Z" fill="#0BA4A4"/>
</g>
<mask id="mask1" mask-type="alpha" maskUnits="userSpaceOnUse" x="5" y="12" width="93" height="93">
<path d="M51.3792 100.758C74.7846 100.758 93.7584 81.7846 93.7584 58.3792C93.7584 34.9738 74.7846 16 51.3792 16C27.9738 16 9 34.9738 9 58.3792C9 81.7846 27.9738 100.758 51.3792 100.758Z" stroke="white" stroke-width="7" stroke-dasharray="90 3"/>
</mask>
<g mask="url(#mask1)">
<path d="M93.7493 26.3164H85.8928C81.4745 26.3164 77.8928 29.8981 77.8928 34.3164V82.4045C77.8928 86.8228 81.4745 90.4045 85.8928 90.4045H93.7493C98.1676 90.4045 101.749 86.8228 101.749 82.4045V34.3164C101.749 29.8981 98.1676 26.3164 93.7493 26.3164Z" fill="#FF1D25" fill-opacity="0.2"/>
</g>
<mask id="mask2" mask-type="alpha" maskUnits="userSpaceOnUse" x="5" y="12" width="93" height="93">
<path d="M51.3792 100.758C74.7846 100.758 93.7584 81.7846 93.7584 58.3792C93.7584 34.9738 74.7846 16 51.3792 16C27.9738 16 9 34.9738 9 58.3792C9 81.7846 27.9738 100.758 51.3792 100.758Z" stroke="white" stroke-width="7" stroke-dasharray="90 3"/>
</mask>
<g mask="url(#mask2)">
<path d="M17.5771 26.3633H-4.8606C-8.1743 26.3633 -10.8606 29.0496 -10.8606 32.3633V84.0519C-10.8606 87.3656 -8.1743 90.0519 -4.8606 90.0519H17.5771C20.8908 90.0519 23.5771 87.3656 23.5771 84.0519V32.3633C23.5771 29.0496 20.8908 26.3633 17.5771 26.3633Z" fill="#F7931E" fill-opacity="0.2"/>
</g>
<mask id="mask3" mask-type="alpha" maskUnits="userSpaceOnUse" x="117" y="12" width="93" height="93">
<path d="M163.379 100.758C186.784 100.758 205.758 81.7846 205.758 58.3792C205.758 34.9738 186.784 16 163.379 16C139.974 16 121 34.9738 121 58.3792C121 81.7846 139.974 100.758 163.379 100.758Z" stroke="white" stroke-width="7" stroke-dasharray="90 3"/>
</mask>
<g mask="url(#mask3)">
<path d="M205.75 26.3164H197.893C193.475 26.3164 189.893 29.8981 189.893 34.3164V82.4045C189.893 86.8228 193.475 90.4045 197.893 90.4045H205.75C210.168 90.4045 213.75 86.8228 213.75 82.4045V34.3164C213.75 29.8981 210.168 26.3164 205.75 26.3164Z" fill="#FF1D25"/>
</g>
<mask id="mask4" mask-type="alpha" maskUnits="userSpaceOnUse" x="117" y="12" width="93" height="93">
<path d="M163.379 100.758C186.784 100.758 205.758 81.7846 205.758 58.3792C205.758 34.9738 186.784 16 163.379 16C139.974 16 121 34.9738 121 58.3792C121 81.7846 139.974 100.758 163.379 100.758Z" stroke="white" stroke-width="7" stroke-dasharray="90 3"/>
</mask>
<g mask="url(#mask4)">
<path d="M195.1 25.4048V0.339844C195.1 -2.42158 192.861 -4.66016 190.1 -4.66016L136.632 -4.66016C133.87 -4.66016 131.632 -2.42158 131.632 0.339844V25.4048C131.632 28.1663 133.87 30.4048 136.632 30.4048L190.1 30.4048C192.861 30.4048 195.1 28.1663 195.1 25.4048Z" fill="#00A73D" fill-opacity="0.2"/>
</g>
<mask id="mask5" mask-type="alpha" maskUnits="userSpaceOnUse" x="117" y="12" width="93" height="93">
<path d="M163.379 100.758C186.784 100.758 205.758 81.7846 205.758 58.3792C205.758 34.9738 186.784 16 163.379 16C139.974 16 121 34.9738 121 58.3792C121 81.7846 139.974 100.758 163.379 100.758Z" stroke="white" stroke-width="7" stroke-dasharray="90 3"/>
</mask>
<g mask="url(#mask5)">
<path d="M129.577 26.3633H107.139C103.825 26.3633 101.139 29.0496 101.139 32.3633V84.0519C101.139 87.3656 103.825 90.0519 107.139 90.0519H129.577C132.89 90.0519 135.577 87.3656 135.577 84.0519V32.3633C135.577 29.0496 132.89 26.3633 129.577 26.3633Z" fill="#F7931E" fill-opacity="0.2"/>
</g>
<mask id="mask6" mask-type="alpha" maskUnits="userSpaceOnUse" x="227" y="12" width="93" height="93">
<path d="M273.379 100.758C296.784 100.758 315.758 81.7846 315.758 58.3792C315.758 34.9738 296.784 16 273.379 16C249.974 16 231 34.9738 231 58.3792C231 81.7846 249.974 100.758 273.379 100.758Z" stroke="white" stroke-width="7" stroke-dasharray="90 3"/>
</mask>
<g mask="url(#mask6)">
<path d="M315.75 26.3164H307.893C303.475 26.3164 299.893 29.8981 299.893 34.3164V82.4045C299.893 86.8228 303.475 90.4045 307.893 90.4045H315.75C320.168 90.4045 323.75 86.8228 323.75 82.4045V34.3164C323.75 29.8981 320.168 26.3164 315.75 26.3164Z" fill="#FF1D25"/>
</g>
<mask id="mask7" mask-type="alpha" maskUnits="userSpaceOnUse" x="227" y="12" width="93" height="93">
<path d="M273.379 100.758C296.784 100.758 315.758 81.7846 315.758 58.3792C315.758 34.9738 296.784 16 273.379 16C249.974 16 231 34.9738 231 58.3792C231 81.7846 249.974 100.758 273.379 100.758Z" stroke="white" stroke-width="7" stroke-dasharray="90 3"/>
</mask>
<g mask="url(#mask7)">
<path d="M305.1 25.4048V0.339844C305.1 -2.42158 302.861 -4.66016 300.1 -4.66016L246.632 -4.66016C243.87 -4.66016 241.632 -2.42158 241.632 0.339844V25.4048C241.632 28.1663 243.87 30.4048 246.632 30.4048L300.1 30.4048C302.861 30.4048 305.1 28.1663 305.1 25.4048Z" fill="#00A73D" fill-opacity="0.2"/>
</g>
<mask id="mask8" mask-type="alpha" maskUnits="userSpaceOnUse" x="227" y="12" width="93" height="93">
<path d="M273.379 100.758C296.784 100.758 315.758 81.7846 315.758 58.3792C315.758 34.9738 296.784 16 273.379 16C249.974 16 231 34.9738 231 58.3792C231 81.7846 249.974 100.758 273.379 100.758Z" stroke="white" stroke-width="7" stroke-dasharray="90 3"/>
</mask>
<g mask="url(#mask8)">
<path d="M239.577 26.3633H217.139C213.825 26.3633 211.139 29.0496 211.139 32.3633V84.0519C211.139 87.3656 213.825 90.0519 217.139 90.0519H239.577C242.89 90.0519 245.577 87.3656 245.577 84.0519V32.3633C245.577 29.0496 242.89 26.3633 239.577 26.3633Z" fill="#F7931E" fill-opacity="0.2"/>
</g>
</svg>
