<svg width="324" height="117" viewBox="0 0 324 117" fill="none" xmlns="http://www.w3.org/2000/svg">
<g opacity="0.2">
<path opacity="0.2" d="M11.5254 83.3773H8.07034V90H7.07164V82.4896H11.5254V83.3773ZM16.8771 87.1855C16.8771 88.1337 16.6484 88.8668 16.1911 89.3846C15.7338 89.8991 15.1251 90.1564 14.3652 90.1564C13.5817 90.1564 12.9646 89.8907 12.5141 89.3594C12.0668 88.8248 11.8432 88.1001 11.8432 87.1855C11.8432 86.2439 12.0735 85.5126 12.5342 84.9914C12.9983 84.4702 13.6086 84.2096 14.3652 84.2096C15.1251 84.2096 15.7338 84.4702 16.1911 84.9914C16.6484 85.5092 16.8771 86.2406 16.8771 87.1855ZM15.8985 87.1855C15.8985 86.4558 15.7657 85.9144 15.5001 85.5613C15.2344 85.2049 14.8561 85.0267 14.3652 85.0267C13.8709 85.0267 13.4892 85.2049 13.2202 85.5613C12.9546 85.9144 12.8217 86.4558 12.8217 87.1855C12.8217 87.8916 12.9546 88.428 13.2202 88.7945C13.4892 89.1577 13.8709 89.3392 14.3652 89.3392C14.8528 89.3392 15.2294 89.161 15.495 88.8046C15.764 88.4448 15.8985 87.9051 15.8985 87.1855ZM22.2136 90H21.2653V85.1629H19.3284C19.3183 85.442 19.3082 85.711 19.2982 85.9699C19.2881 86.2254 19.278 86.4575 19.2679 86.666C19.2477 87.1939 19.2124 87.6361 19.162 87.9925C19.1149 88.3489 19.0544 88.6348 18.9804 88.85C18.9064 89.0719 18.824 89.2451 18.7332 89.3695C18.6458 89.4939 18.5466 89.6066 18.4356 89.7075C18.3213 89.8083 18.1986 89.884 18.0674 89.9344C17.9363 89.9849 17.7883 90.0101 17.6236 90.0101C17.5698 90.0101 17.5008 90.0084 17.4168 90.005C17.3327 90.0017 17.2739 90 17.2402 90V89.1728H17.2907C17.3142 89.1728 17.3377 89.1745 17.3613 89.1778C17.3882 89.1812 17.4185 89.1829 17.4521 89.1829C17.5328 89.1829 17.6118 89.1711 17.6891 89.1476C17.7665 89.124 17.8354 89.0803 17.8959 89.0164C18.0641 88.8517 18.1868 88.5642 18.2642 88.1539C18.3415 87.7403 18.397 87.1636 18.4306 86.4238C18.4441 86.1481 18.4558 85.8219 18.4659 85.4453C18.4794 85.0687 18.4911 84.7089 18.5012 84.3659H22.2136V90ZM28.2259 87.1855C28.2259 88.1337 27.9973 88.8668 27.54 89.3846C27.0826 89.8991 26.474 90.1564 25.7141 90.1564C24.9306 90.1564 24.3135 89.8907 23.8629 89.3594C23.4157 88.8248 23.1921 88.1001 23.1921 87.1855C23.1921 86.2439 23.4224 85.5126 23.8831 84.9914C24.3471 84.4702 24.9575 84.2096 25.7141 84.2096C26.474 84.2096 27.0826 84.4702 27.54 84.9914C27.9973 85.5092 28.2259 86.2406 28.2259 87.1855ZM27.2474 87.1855C27.2474 86.4558 27.1146 85.9144 26.8489 85.5613C26.5833 85.2049 26.205 85.0267 25.7141 85.0267C25.2198 85.0267 24.8381 85.2049 24.5691 85.5613C24.3034 85.9144 24.1706 86.4558 24.1706 87.1855C24.1706 87.8916 24.3034 88.428 24.5691 88.7945C24.8381 89.1577 25.2198 89.3392 25.7141 89.3392C26.2016 89.3392 26.5783 89.161 26.8439 88.8046C27.1129 88.4448 27.2474 87.9051 27.2474 87.1855ZM33.6179 88.2951C33.6179 88.5675 33.5658 88.8096 33.4616 89.0215C33.3573 89.23 33.2144 89.4048 33.0328 89.546C32.8042 89.7243 32.5637 89.8453 32.3115 89.9092C32.0627 89.9697 31.7634 90 31.4137 90H29.1994V84.3659H31.2674C31.681 84.3659 31.9837 84.3794 32.1754 84.4063C32.367 84.4298 32.557 84.4937 32.7453 84.5979C32.9437 84.7055 33.09 84.8485 33.1841 85.0267C33.2783 85.2049 33.3254 85.4167 33.3254 85.6622C33.3254 85.9312 33.2514 86.1733 33.1034 86.3885C32.9555 86.6004 32.7588 86.7651 32.5133 86.8828L32.5385 86.9181C32.8445 86.9955 33.1001 87.1519 33.3052 87.3872C33.5137 87.6226 33.6179 87.9253 33.6179 88.2951ZM32.3519 85.8085C32.3519 85.6807 32.33 85.5697 32.2863 85.4756C32.246 85.3814 32.1737 85.3074 32.0694 85.2536C31.9484 85.1898 31.8122 85.1528 31.6609 85.1427C31.5129 85.1292 31.3061 85.1225 31.0405 85.1225H30.1376V86.666H31.2271C31.4591 86.666 31.6239 86.6559 31.7214 86.6357C31.8189 86.6122 31.9265 86.5651 32.0442 86.4945C32.1552 86.4272 32.2342 86.3364 32.2813 86.2221C32.3284 86.1078 32.3519 85.9699 32.3519 85.8085ZM32.6394 88.3002C32.6394 88.1085 32.6108 87.9555 32.5536 87.8412C32.4998 87.7235 32.3788 87.6193 32.1905 87.5285C32.0728 87.4713 31.9467 87.436 31.8122 87.4225C31.6777 87.4091 31.4911 87.4024 31.2523 87.4024H30.1376V89.2434H30.9598C31.2994 89.2434 31.5634 89.23 31.7517 89.2031C31.94 89.1762 32.1014 89.1224 32.2359 89.0417C32.3771 88.9542 32.4797 88.8533 32.5436 88.739C32.6075 88.6247 32.6394 88.4784 32.6394 88.3002ZM39.0654 90H38.1171V87.4629H35.5649V90H34.6166V84.3659H35.5649V86.6458H38.1171V84.3659H39.0654V90ZM43.5848 88.6129V87.0493C43.3595 87.0695 43.0736 87.0981 42.7273 87.135C42.3843 87.1687 42.1069 87.2174 41.895 87.2813C41.6428 87.3587 41.4344 87.478 41.2696 87.6394C41.1048 87.7975 41.0224 88.0194 41.0224 88.3052C41.0224 88.628 41.1132 88.8718 41.2948 89.0366C41.4764 89.2014 41.742 89.2838 42.0917 89.2838C42.391 89.2838 42.6617 89.2199 42.9038 89.0921C43.1459 88.9609 43.3729 88.8012 43.5848 88.6129ZM43.5848 89.3998C43.5074 89.4569 43.4032 89.5376 43.272 89.6419C43.1443 89.7428 43.0198 89.8235 42.8988 89.884C42.7306 89.9714 42.5676 90.0387 42.4095 90.0857C42.2548 90.1328 42.0363 90.1564 41.7538 90.1564C41.5218 90.1564 41.3015 90.1126 41.093 90.0252C40.8846 89.9378 40.7013 89.8151 40.5433 89.657C40.3919 89.5023 40.2709 89.3123 40.1801 89.087C40.0893 88.8584 40.0439 88.618 40.0439 88.3658C40.0439 87.9757 40.1263 87.6445 40.2911 87.3721C40.4558 87.0964 40.7164 86.8778 41.0729 86.7164C41.389 86.5718 41.7622 86.4726 42.1926 86.4188C42.623 86.3616 43.0871 86.3196 43.5848 86.2927V86.1111C43.5848 85.8892 43.5511 85.711 43.4839 85.5765C43.4166 85.4386 43.3225 85.3327 43.2014 85.2587C43.0804 85.1814 42.9324 85.1309 42.7575 85.1074C42.5827 85.0805 42.4028 85.067 42.2178 85.067C41.9993 85.067 41.742 85.1006 41.4461 85.1679C41.1502 85.2318 40.8543 85.3259 40.5584 85.4504H40.5029V84.487C40.6778 84.4365 40.9283 84.381 41.2545 84.3205C41.5806 84.26 41.9034 84.2297 42.2229 84.2297C42.6096 84.2297 42.9358 84.26 43.2014 84.3205C43.4671 84.381 43.7058 84.4903 43.9177 84.6484C44.1228 84.8031 44.2758 85.0031 44.3767 85.2486C44.4775 85.4941 44.528 85.7933 44.528 86.1464V90H43.5848V89.3998ZM49.9452 90H48.9969V87.7655H48.0587L46.3892 90H45.2846L47.0953 87.6798C46.6279 87.5419 46.285 87.3368 46.0664 87.0644C45.8512 86.7921 45.7436 86.4272 45.7436 85.9699C45.7436 85.6908 45.8041 85.447 45.9251 85.2385C46.0496 85.0267 46.216 84.8485 46.4245 84.7039C46.5926 84.5895 46.8045 84.5055 47.06 84.4517C47.3156 84.3945 47.6014 84.3659 47.9175 84.3659H49.9452V90ZM48.9969 87.019V85.1225H47.9679C47.7494 85.1225 47.5762 85.1343 47.4484 85.1578C47.324 85.1814 47.2029 85.2267 47.0853 85.294C46.9642 85.368 46.8717 85.4689 46.8078 85.5966C46.7473 85.7211 46.717 85.8556 46.717 86.0002C46.717 86.1851 46.7372 86.3364 46.7776 86.4541C46.8213 86.5684 46.8986 86.6744 47.0096 86.7719C47.1273 86.8728 47.2702 86.94 47.4383 86.9736C47.6098 87.0039 47.7965 87.019 47.9982 87.019H48.9969ZM61.4 87.0342C61.4 87.5352 61.3378 87.9791 61.2133 88.3658C61.0923 88.7491 60.9309 89.0652 60.7291 89.314C60.524 89.5662 60.292 89.7579 60.0331 89.889C59.7741 90.0168 59.5034 90.0807 59.221 90.0807C59.0091 90.0807 58.8225 90.0404 58.6611 89.9596C58.5031 89.8789 58.3686 89.81 58.2576 89.7528V92.0781H57.3194V89.7528C57.121 89.8571 56.963 89.9378 56.8453 89.995C56.7276 90.0521 56.5342 90.0807 56.2652 90.0807C55.6331 90.0807 55.127 89.8251 54.747 89.314C54.367 88.7995 54.177 88.0951 54.177 87.2006C54.177 86.7298 54.2376 86.3095 54.3586 85.9396C54.4797 85.5697 54.6461 85.2553 54.858 84.9964C55.053 84.7577 55.2783 84.5727 55.5339 84.4416C55.7928 84.3071 56.0618 84.2398 56.3409 84.2398C56.5393 84.2398 56.7175 84.2751 56.8756 84.3457C57.037 84.413 57.1849 84.4903 57.3194 84.5778V82.1516H58.2576V84.5778C58.4056 84.487 58.5754 84.4079 58.767 84.3407C58.9587 84.2734 59.1554 84.2398 59.3572 84.2398C59.9893 84.2398 60.487 84.4937 60.8502 85.0015C61.2167 85.5058 61.4 86.1834 61.4 87.0342ZM60.4265 87.1401C60.4265 86.4978 60.3172 85.9901 60.0986 85.6168C59.8834 85.2436 59.564 85.0569 59.1403 85.0569C58.9654 85.0569 58.8107 85.0805 58.6762 85.1275C58.5451 85.1713 58.4056 85.22 58.2576 85.2738V89.0316C58.4056 89.1022 58.5249 89.1593 58.6157 89.2031C58.7099 89.2468 58.8461 89.2686 59.0243 89.2686C59.4614 89.2686 59.8044 89.0887 60.0532 88.7289C60.3021 88.3691 60.4265 87.8395 60.4265 87.1401ZM57.3194 89.0316V85.2738C57.1984 85.2167 57.0773 85.1662 56.9563 85.1225C56.8352 85.0788 56.7007 85.0569 56.5527 85.0569C56.1223 85.0569 55.781 85.2267 55.5288 85.5664C55.2766 85.906 55.1505 86.4356 55.1505 87.1552C55.1505 87.8109 55.2632 88.3271 55.4885 88.7037C55.7171 89.0803 56.0433 89.2686 56.467 89.2686C56.6351 89.2686 56.7864 89.2434 56.9209 89.193C57.0555 89.1425 57.1883 89.0887 57.3194 89.0316ZM67.1248 87.0342C67.1248 87.9723 66.8996 88.7205 66.449 89.2787C66.0017 89.8335 65.4351 90.111 64.7492 90.111C64.4701 90.111 64.2229 90.079 64.0077 90.0151C63.7925 89.9512 63.5722 89.852 63.3469 89.7175V92.0781H62.3987V84.3659H63.3469V84.9561C63.5823 84.7442 63.8429 84.5677 64.1287 84.4264C64.4179 84.2818 64.7323 84.2096 65.072 84.2096C65.7176 84.2096 66.2203 84.4651 66.5801 84.9762C66.9433 85.4874 67.1248 86.1733 67.1248 87.0342ZM66.1463 87.1401C66.1463 86.4978 66.0438 86.0002 65.8386 85.6471C65.6335 85.2906 65.3006 85.1124 64.8399 85.1124C64.5709 85.1124 64.3103 85.1729 64.0581 85.294C63.8093 85.4117 63.5722 85.5647 63.3469 85.753V88.9458C63.5958 89.0669 63.8076 89.1493 63.9825 89.193C64.1607 89.2367 64.3641 89.2585 64.5928 89.2585C65.0837 89.2585 65.4654 89.0786 65.7378 88.7188C66.0101 88.359 66.1463 87.8328 66.1463 87.1401ZM71.2558 88.6129V87.0493C71.0305 87.0695 70.7447 87.0981 70.3984 87.135C70.0554 87.1687 69.778 87.2174 69.5661 87.2813C69.3139 87.3587 69.1054 87.478 68.9407 87.6394C68.7759 87.7975 68.6935 88.0194 68.6935 88.3052C68.6935 88.628 68.7843 88.8718 68.9659 89.0366C69.1475 89.2014 69.4131 89.2838 69.7628 89.2838C70.0621 89.2838 70.3328 89.2199 70.5749 89.0921C70.817 88.9609 71.044 88.8012 71.2558 88.6129ZM71.2558 89.3998C71.1785 89.4569 71.0743 89.5376 70.9431 89.6419C70.8153 89.7428 70.6909 89.8235 70.5699 89.884C70.4017 89.9714 70.2386 90.0387 70.0806 90.0857C69.9259 90.1328 69.7074 90.1564 69.4249 90.1564C69.1929 90.1564 68.9726 90.1126 68.7641 90.0252C68.5556 89.9378 68.3724 89.8151 68.2143 89.657C68.063 89.5023 67.942 89.3123 67.8512 89.087C67.7604 88.8584 67.715 88.618 67.715 88.3658C67.715 87.9757 67.7974 87.6445 67.9621 87.3721C68.1269 87.0964 68.3875 86.8778 68.744 86.7164C69.06 86.5718 69.4333 86.4726 69.8637 86.4188C70.2941 86.3616 70.7582 86.3196 71.2558 86.2927V86.1111C71.2558 85.8892 71.2222 85.711 71.155 85.5765C71.0877 85.4386 70.9936 85.3327 70.8725 85.2587C70.7514 85.1814 70.6035 85.1309 70.4286 85.1074C70.2538 85.0805 70.0739 85.067 69.8889 85.067C69.6704 85.067 69.4131 85.1006 69.1172 85.1679C68.8213 85.2318 68.5254 85.3259 68.2295 85.4504H68.174V84.487C68.3488 84.4365 68.5994 84.381 68.9255 84.3205C69.2517 84.26 69.5745 84.2297 69.894 84.2297C70.2807 84.2297 70.6069 84.26 70.8725 84.3205C71.1381 84.381 71.3769 84.4903 71.5887 84.6484C71.7939 84.8031 71.9469 85.0031 72.0477 85.2486C72.1486 85.4941 72.1991 85.7933 72.1991 86.1464V90H71.2558V89.3998ZM78.0702 90H76.8899L74.9581 87.4024H74.484V90H73.5357V84.3659H74.484V86.8173C74.7294 86.8139 74.9379 86.7635 75.1094 86.666C75.2843 86.5651 75.4322 86.3717 75.5533 86.0859C75.5903 86.0018 75.6306 85.9043 75.6743 85.7933C75.7214 85.6824 75.7584 85.5849 75.7853 85.5008C75.9333 85.0872 76.1384 84.7946 76.4007 84.6232C76.663 84.4517 77.0043 84.3659 77.4246 84.3659H77.6818V85.183H77.4649C77.1993 85.183 76.9992 85.2385 76.8647 85.3495C76.7336 85.4571 76.6226 85.6555 76.5318 85.9447C76.4377 86.2372 76.3267 86.4659 76.1989 86.6306C76.0711 86.7921 75.9299 86.9165 75.7752 87.0039L78.0702 90ZM83.6539 91.3518H82.7712V90H78.6805V84.3659H79.6288V89.1829H82.1457V84.3659H83.094V89.1829H83.6539V91.3518ZM89.0408 90H88.1026V85.7984L85.4495 90H84.592V84.3659H85.5302V88.5019L88.1531 84.3659H89.0408V90ZM94.4933 90H93.545V87.7655H92.6069L90.9373 90H89.8327L91.6435 87.6798C91.1761 87.5419 90.8331 87.3368 90.6145 87.0644C90.3993 86.7921 90.2917 86.4272 90.2917 85.9699C90.2917 85.6908 90.3522 85.447 90.4733 85.2385C90.5977 85.0267 90.7641 84.8485 90.9726 84.7039C91.1408 84.5895 91.3526 84.5055 91.6082 84.4517C91.8637 84.3945 92.1495 84.3659 92.4656 84.3659H94.4933V90ZM93.545 87.019V85.1225H92.5161C92.2975 85.1225 92.1243 85.1343 91.9965 85.1578C91.8721 85.1814 91.7511 85.2267 91.6334 85.294C91.5123 85.368 91.4198 85.4689 91.356 85.5966C91.2954 85.7211 91.2652 85.8556 91.2652 86.0002C91.2652 86.1851 91.2853 86.3364 91.3257 86.4541C91.3694 86.5684 91.4468 86.6744 91.5577 86.7719C91.6754 86.8728 91.8183 86.94 91.9865 86.9736C92.1579 87.0039 92.3446 87.019 92.5463 87.019H93.545Z" fill="#8C99B2"/>
</g>
<path opacity="0.2" d="M56.1404 70.7088C56.1404 71.1717 56.0467 71.5153 55.8595 71.7395C55.6744 71.9617 55.4059 72.0728 55.0541 72.0728C54.6961 72.0728 54.4246 71.9597 54.2394 71.7334C54.0563 71.5071 53.9648 71.1666 53.9648 70.7119C53.9648 70.2511 54.0584 69.9085 54.2456 69.6843C54.4328 69.4601 54.7023 69.3479 55.0541 69.3479C55.4121 69.3479 55.6826 69.4611 55.8657 69.6874C56.0488 69.9137 56.1404 70.2542 56.1404 70.7088ZM58.1956 69.4343L55.7886 74.0293H55.2794L57.6864 69.4343H58.1956ZM59.504 72.7548C59.504 73.2177 59.4104 73.5613 59.2232 73.7855C59.038 74.0077 58.7696 74.1188 58.4178 74.1188C58.0598 74.1188 57.7882 74.0056 57.6031 73.7793C57.42 73.553 57.3284 73.2126 57.3284 72.7579C57.3284 72.2971 57.422 71.9545 57.6093 71.7303C57.7965 71.506 58.066 71.3939 58.4178 71.3939C58.7757 71.3939 59.0463 71.5071 59.2294 71.7334C59.4125 71.9597 59.504 72.3001 59.504 72.7548ZM55.5911 70.7088C55.5911 70.3961 55.554 70.1595 55.48 69.9991C55.408 69.8386 55.266 69.7584 55.0541 69.7584C54.8422 69.7584 54.6992 69.8396 54.6252 70.0021C54.5511 70.1647 54.5141 70.4013 54.5141 70.7119C54.5141 71.0205 54.549 71.2561 54.619 71.4186C54.6889 71.5811 54.834 71.6624 55.0541 71.6624C55.266 71.6624 55.408 71.5811 55.48 71.4186C55.554 71.2561 55.5911 71.0195 55.5911 70.7088ZM58.9547 72.7548C58.9547 72.4421 58.9177 72.2055 58.8436 72.045C58.7716 71.8846 58.6297 71.8043 58.4178 71.8043C58.2059 71.8043 58.0629 71.8856 57.9888 72.0481C57.9148 72.2107 57.8777 72.4472 57.8777 72.7579C57.8777 73.0665 57.9127 73.302 57.9827 73.4646C58.0526 73.6271 58.1976 73.7084 58.4178 73.7084C58.6297 73.7084 58.7716 73.6271 58.8436 73.4646C58.9177 73.302 58.9547 73.0655 58.9547 72.7548Z" fill="#8C99B2"/>
<g opacity="0.2">
<path opacity="0.2" d="M29.73 73.3392C25.9793 69.4854 23.448 64.6113 22.4526 59.3265C21.4572 54.0417 22.0419 48.5808 24.1335 43.6265C26.2251 38.6722 29.7309 34.4445 34.2124 31.472C38.6939 28.4994 43.9523 26.9141 49.33 26.9141C54.7077 26.9141 59.9661 28.4994 64.4476 31.472C68.9291 34.4445 72.4349 38.6722 74.5265 43.6265C76.6181 48.5808 77.2028 54.0417 76.2074 59.3265C75.212 64.6113 72.6807 69.4854 68.93 73.3392" stroke="#8C99B2" stroke-width="2" stroke-miterlimit="10"/>
</g>
<g opacity="0.2">
<path opacity="0.2" d="M44.8655 56.9297H39.9806V55.907H41.7973V49.1919H39.9806V48.2768C40.667 48.2768 41.1716 48.1804 41.4946 47.9875C41.822 47.7901 42.0059 47.4201 42.0463 46.8773H43.0892V55.907H44.8655V56.9297ZM52.9465 51.9169C52.9465 53.7157 52.6841 55.0367 52.1593 55.88C51.6389 56.7189 50.8337 57.1383 49.7437 57.1383C48.6402 57.1383 47.8306 56.7099 47.3147 55.8531C46.7989 54.9964 46.5409 53.6888 46.5409 51.9304C46.5409 50.1227 46.8011 48.8016 47.3215 47.9673C47.8463 47.1285 48.6537 46.7091 49.7437 46.7091C50.8472 46.7091 51.6569 47.1419 52.1727 48.0077C52.6886 48.8734 52.9465 50.1765 52.9465 51.9169ZM51.224 54.9717C51.3541 54.6397 51.446 54.2203 51.4999 53.7135C51.5537 53.2066 51.5806 52.6077 51.5806 51.9169C51.5806 51.2306 51.5537 50.634 51.4999 50.1272C51.446 49.6203 51.3518 49.1986 51.2173 48.8622C51.0827 48.5213 50.8965 48.2634 50.6588 48.0884C50.4255 47.909 50.1205 47.8193 49.7437 47.8193C49.3714 47.8193 49.0641 47.909 48.8219 48.0884C48.5842 48.2634 48.3958 48.5258 48.2567 48.8757C48.1221 49.2166 48.0302 49.6472 47.9808 50.1675C47.9315 50.6879 47.9068 51.2755 47.9068 51.9304C47.9068 52.6302 47.927 53.2155 47.9674 53.6865C48.0122 54.1575 48.1064 54.5792 48.25 54.9515C48.3801 55.2969 48.564 55.5638 48.8017 55.7522C49.044 55.9361 49.358 56.0281 49.7437 56.0281C50.116 56.0281 50.4211 55.9406 50.6588 55.7657C50.901 55.5862 51.0894 55.3216 51.224 54.9717ZM60.469 51.9169C60.469 53.7157 60.2066 55.0367 59.6817 55.88C59.1614 56.7189 58.3562 57.1383 57.2662 57.1383C56.1627 57.1383 55.3531 56.7099 54.8372 55.8531C54.3214 54.9964 54.0634 53.6888 54.0634 51.9304C54.0634 50.1227 54.3236 48.8016 54.8439 47.9673C55.3688 47.1285 56.1762 46.7091 57.2662 46.7091C58.3697 46.7091 59.1793 47.1419 59.6952 48.0077C60.211 48.8734 60.469 50.1765 60.469 51.9169ZM58.7465 54.9717C58.8766 54.6397 58.9685 54.2203 59.0223 53.7135C59.0762 53.2066 59.1031 52.6077 59.1031 51.9169C59.1031 51.2306 59.0762 50.634 59.0223 50.1272C58.9685 49.6203 58.8743 49.1986 58.7397 48.8622C58.6052 48.5213 58.419 48.2634 58.1813 48.0884C57.948 47.909 57.643 47.8193 57.2662 47.8193C56.8939 47.8193 56.5866 47.909 56.3444 48.0884C56.1067 48.2634 55.9183 48.5258 55.7792 48.8757C55.6446 49.2166 55.5527 49.6472 55.5033 50.1675C55.454 50.6879 55.4293 51.2755 55.4293 51.9304C55.4293 52.6302 55.4495 53.2155 55.4899 53.6865C55.5347 54.1575 55.6289 54.5792 55.7725 54.9515C55.9026 55.2969 56.0865 55.5638 56.3242 55.7522C56.5664 55.9361 56.8804 56.0281 57.2662 56.0281C57.6385 56.0281 57.9435 55.9406 58.1813 55.7657C58.4235 55.5862 58.6119 55.3216 58.7465 54.9717Z" fill="#8C99B2"/>
</g>
<path d="M132.096 71.6747C132.096 72.0379 132.026 72.3674 131.884 72.6634C131.743 72.9593 131.553 73.1997 131.314 73.3846C131.032 73.6066 130.729 73.7646 130.406 73.8588C130.084 73.9529 129.667 74 129.156 74H126.982V66.4896H131.556V67.3773H127.98V69.4352H129.186C129.697 69.4352 130.114 69.4655 130.437 69.526C130.76 69.5832 131.064 69.7227 131.35 69.9447C131.605 70.1431 131.794 70.3885 131.915 70.6811C132.036 70.9736 132.096 71.3049 132.096 71.6747ZM131.052 71.6949C131.052 71.4427 131.01 71.2208 130.926 71.0291C130.845 70.8374 130.716 70.6828 130.538 70.5651C130.353 70.4407 130.139 70.365 129.897 70.3381C129.655 70.3112 129.314 70.2977 128.873 70.2977H127.98V73.1476H128.848C129.295 73.1476 129.638 73.1257 129.877 73.082C130.119 73.0383 130.331 72.9542 130.512 72.8298C130.701 72.6987 130.837 72.5457 130.921 72.3708C131.008 72.1926 131.052 71.9673 131.052 71.6949ZM135.445 74.1311C134.548 74.1311 133.85 73.8789 133.352 73.3746C132.858 72.8668 132.611 72.1472 132.611 71.2157C132.611 70.2977 132.851 69.5681 133.332 69.0267C133.813 68.4819 134.442 68.2096 135.218 68.2096C135.568 68.2096 135.877 68.26 136.146 68.3609C136.415 68.4617 136.651 68.6198 136.853 68.835C137.054 69.0502 137.209 69.3142 137.317 69.6269C137.424 69.9363 137.478 70.3162 137.478 70.7668V71.2813H133.574C133.574 71.937 133.739 72.4381 134.068 72.7844C134.398 73.1308 134.854 73.3039 135.435 73.3039C135.644 73.3039 135.847 73.2804 136.046 73.2333C136.247 73.1862 136.429 73.1257 136.59 73.0517C136.762 72.9744 136.906 72.9004 137.024 72.8298C137.142 72.7558 137.239 72.6869 137.317 72.623H137.372V73.657C137.261 73.7007 137.123 73.7562 136.959 73.8235C136.794 73.8874 136.646 73.9378 136.515 73.9748C136.33 74.0252 136.162 74.0639 136.01 74.0908C135.862 74.1177 135.674 74.1311 135.445 74.1311ZM136.555 70.555C136.548 70.2994 136.518 70.0792 136.464 69.8942C136.41 69.7093 136.333 69.5529 136.232 69.4251C136.121 69.2839 135.978 69.1763 135.803 69.1023C135.632 69.0284 135.418 68.9914 135.163 68.9914C134.911 68.9914 134.696 69.03 134.517 69.1074C134.342 69.1814 134.183 69.2906 134.038 69.4352C133.897 69.5832 133.789 69.748 133.715 69.9295C133.641 70.1078 133.594 70.3162 133.574 70.555H136.555ZM142.885 74H141.937V71.4629H139.385V74H138.436V68.3659H139.385V70.6458H141.937V68.3659H142.885V74ZM147.99 72.4414C147.99 72.7575 147.921 73.0248 147.783 73.2434C147.645 73.462 147.468 73.6352 147.253 73.7629C147.048 73.8874 146.814 73.9798 146.552 74.0404C146.29 74.1009 146.028 74.1311 145.765 74.1311C145.395 74.1311 145.046 74.0942 144.716 74.0202C144.387 73.9496 144.059 73.8352 143.733 73.6772V72.628H143.793C144.022 72.8399 144.308 73.008 144.651 73.1324C144.997 73.2535 145.342 73.314 145.685 73.314C145.833 73.314 145.991 73.2989 146.159 73.2686C146.33 73.235 146.475 73.1846 146.592 73.1173C146.747 73.0232 146.856 72.9223 146.92 72.8147C146.988 72.7071 147.021 72.5591 147.021 72.3708C147.021 72.169 146.983 72.0076 146.905 71.8866C146.831 71.7622 146.729 71.6697 146.598 71.6092C146.466 71.5486 146.318 71.5117 146.154 71.4982C145.992 71.4814 145.821 71.473 145.639 71.473H144.973V70.6559H145.483C145.611 70.6559 145.77 70.6525 145.962 70.6458C146.154 70.6357 146.307 70.6088 146.421 70.5651C146.566 70.5113 146.682 70.4356 146.769 70.3381C146.856 70.2372 146.9 70.0691 146.9 69.8337C146.9 69.6689 146.863 69.5361 146.789 69.4352C146.715 69.3344 146.623 69.2553 146.512 69.1982C146.397 69.1376 146.273 69.0973 146.139 69.0771C146.004 69.0536 145.875 69.0418 145.75 69.0418C145.431 69.0418 145.123 69.0872 144.827 69.178C144.535 69.2654 144.282 69.3966 144.071 69.5714H144.01V68.5475C144.252 68.4634 144.519 68.3895 144.812 68.3256C145.108 68.2617 145.404 68.2297 145.7 68.2297C145.938 68.2297 146.181 68.2549 146.426 68.3054C146.675 68.3525 146.91 68.4348 147.132 68.5525C147.341 68.6669 147.516 68.8249 147.657 69.0267C147.798 69.2251 147.869 69.4689 147.869 69.758C147.869 70.064 147.781 70.3331 147.606 70.5651C147.435 70.7937 147.206 70.9451 146.92 71.019V71.0543C147.233 71.1619 147.489 71.3267 147.687 71.5486C147.889 71.7706 147.99 72.0682 147.99 72.4414ZM153.437 74H152.499V69.7984L149.846 74H148.988V68.3659H149.927V72.5019L152.549 68.3659H153.437V74ZM159.258 74H158.31V71.4629H155.757V74H154.809V68.3659H155.757V70.6458H158.31V68.3659H159.258V74ZM168.387 67.3773H164.932V74H163.934V66.4896H168.387V67.3773ZM175.817 70.1666C175.817 70.634 175.747 71.0476 175.605 71.4074C175.464 71.7639 175.267 72.0648 175.015 72.3103C174.743 72.5793 174.408 72.7878 174.011 72.9357C173.615 73.0803 173.204 73.1577 172.781 73.1677V74.0807H171.787V73.1677C171.367 73.1543 170.958 73.0786 170.561 72.9408C170.165 72.8029 169.827 72.5961 169.547 72.3204C169.295 72.0749 169.099 71.7706 168.957 71.4074C168.819 71.0442 168.751 70.6306 168.751 70.1666C168.751 69.7295 168.818 69.3377 168.952 68.9914C169.087 68.6416 169.275 68.3407 169.517 68.0885C169.776 67.8195 170.101 67.6076 170.491 67.453C170.881 67.2983 171.313 67.2142 171.787 67.2008V66.3685H172.781V67.2008C173.255 67.2108 173.689 67.2949 174.082 67.453C174.475 67.6076 174.802 67.8178 175.061 68.0835C175.303 68.3323 175.489 68.6299 175.62 68.9762C175.752 69.3226 175.817 69.7194 175.817 70.1666ZM174.778 70.1263C174.778 69.7933 174.731 69.4907 174.637 69.2183C174.543 68.9426 174.403 68.7089 174.218 68.5172C174.043 68.3356 173.84 68.2011 173.608 68.1137C173.376 68.0263 173.1 67.9792 172.781 67.9725V72.4112C173.083 72.4044 173.352 72.3557 173.588 72.2649C173.826 72.1707 174.023 72.0463 174.178 71.8916C174.383 71.6899 174.534 71.4444 174.632 71.1552C174.729 70.866 174.778 70.523 174.778 70.1263ZM171.787 72.4112V67.9725C171.468 67.9758 171.192 68.0229 170.96 68.1137C170.728 68.2045 170.524 68.339 170.349 68.5172C170.165 68.7055 170.025 68.9392 169.931 69.2183C169.837 69.4974 169.79 69.8001 169.79 70.1263C169.79 70.523 169.838 70.8677 169.936 71.1603C170.033 71.4494 170.185 71.6932 170.39 71.8916C170.545 72.0396 170.74 72.1623 170.975 72.2598C171.214 72.3574 171.484 72.4078 171.787 72.4112ZM182.162 66.4896L179.439 72.8147C179.324 73.0803 179.195 73.2938 179.05 73.4553C178.909 73.6167 178.761 73.7377 178.606 73.8184C178.452 73.9025 178.299 73.958 178.147 73.9849C177.999 74.0118 177.85 74.0252 177.699 74.0252C177.564 74.0252 177.406 74.0219 177.224 74.0151C177.043 74.0084 176.927 74.0034 176.876 74V73.0669H176.947C176.997 73.0736 177.073 73.082 177.174 73.0921C177.278 73.0988 177.409 73.1022 177.567 73.1022C177.641 73.1022 177.729 73.0988 177.83 73.0921C177.931 73.082 178.023 73.0568 178.107 73.0164C178.205 72.9694 178.295 72.9071 178.379 72.8298C178.467 72.7491 178.546 72.623 178.617 72.4515L178.788 72.053L176.15 66.4896H177.255L179.292 70.9081L181.133 66.4896H182.162ZM185.396 71.1703H182.551V70.2574H185.396V71.1703ZM191.035 74H186.399V72.9458C186.732 72.6297 187.047 72.3271 187.343 72.0379C187.638 71.7487 187.928 71.4478 188.21 71.135C188.782 70.5062 189.172 70.0035 189.38 69.6269C189.589 69.2469 189.693 68.8552 189.693 68.4517C189.693 68.2432 189.659 68.0599 189.592 67.9019C189.528 67.7438 189.439 67.6127 189.325 67.5084C189.207 67.4076 189.071 67.3319 188.916 67.2815C188.762 67.231 188.592 67.2058 188.407 67.2058C188.229 67.2058 188.047 67.2293 187.862 67.2764C187.68 67.3201 187.506 67.3756 187.337 67.4429C187.196 67.5 187.06 67.569 186.929 67.6497C186.798 67.7304 186.692 67.7993 186.611 67.8565H186.556V66.7872C186.764 66.6829 187.053 66.582 187.423 66.4845C187.796 66.3836 188.15 66.3332 188.482 66.3332C189.182 66.3332 189.73 66.5198 190.127 66.8931C190.524 67.263 190.722 67.7657 190.722 68.4012C190.722 68.6938 190.687 68.9645 190.616 69.2133C190.549 69.4621 190.455 69.6925 190.334 69.9043C190.209 70.1229 190.06 70.3398 189.885 70.555C189.71 70.7702 189.525 70.982 189.33 71.1905C189.014 71.5335 188.661 71.8899 188.271 72.2598C187.884 72.6297 187.575 72.9223 187.343 73.1375H191.035V74Z" fill="#606580"/>
<path d="M165.68 54.7088C165.68 55.1717 165.587 55.5153 165.4 55.7395C165.214 55.9617 164.946 56.0728 164.594 56.0728C164.236 56.0728 163.965 55.9597 163.779 55.7334C163.596 55.5071 163.505 55.1666 163.505 54.7119C163.505 54.2511 163.598 53.9085 163.786 53.6843C163.973 53.4601 164.242 53.3479 164.594 53.3479C164.952 53.3479 165.223 53.4611 165.406 53.6874C165.589 53.9137 165.68 54.2542 165.68 54.7088ZM167.736 53.4343L165.329 58.0293H164.819L167.226 53.4343H167.736ZM169.044 56.7548C169.044 57.2177 168.95 57.5613 168.763 57.7855C168.578 58.0077 168.31 58.1188 167.958 58.1188C167.6 58.1188 167.328 58.0056 167.143 57.7793C166.96 57.553 166.868 57.2126 166.868 56.7579C166.868 56.2971 166.962 55.9545 167.149 55.7303C167.336 55.506 167.606 55.3939 167.958 55.3939C168.316 55.3939 168.586 55.5071 168.769 55.7334C168.952 55.9597 169.044 56.3001 169.044 56.7548ZM165.131 54.7088C165.131 54.3961 165.094 54.1595 165.02 53.9991C164.948 53.8386 164.806 53.7584 164.594 53.7584C164.382 53.7584 164.239 53.8396 164.165 54.0021C164.091 54.1647 164.054 54.4013 164.054 54.7119C164.054 55.0205 164.089 55.2561 164.159 55.4186C164.229 55.5811 164.374 55.6624 164.594 55.6624C164.806 55.6624 164.948 55.5811 165.02 55.4186C165.094 55.2561 165.131 55.0195 165.131 54.7088ZM168.495 56.7548C168.495 56.4421 168.458 56.2055 168.384 56.045C168.312 55.8846 168.17 55.8043 167.958 55.8043C167.746 55.8043 167.603 55.8856 167.529 56.0481C167.455 56.2107 167.418 56.4472 167.418 56.7579C167.418 57.0665 167.453 57.302 167.523 57.4646C167.593 57.6271 167.738 57.7084 167.958 57.7084C168.17 57.7084 168.312 57.6271 168.384 57.4646C168.458 57.302 168.495 57.0655 168.495 56.7548Z" fill="#A2E2FF"/>
<path d="M139.27 57.3395C135.516 53.4899 132.98 48.6191 131.979 43.336C130.978 38.0529 131.556 32.5919 133.642 27.6358C135.728 22.6797 139.228 18.4483 143.705 15.4707C148.183 12.4931 153.439 10.9014 158.816 10.8946C164.193 10.8877 169.453 12.466 173.938 15.4322C178.423 18.3983 181.934 22.6207 184.032 27.5715C186.131 32.5223 186.723 37.9818 185.735 43.2674C184.748 48.5531 182.224 53.4304 178.48 57.2895" stroke="#A2E2FF" stroke-width="2" stroke-miterlimit="10"/>
<path d="M153.976 40.9297H149.091V39.907H150.907V33.1919H149.091V32.2768C149.777 32.2768 150.282 32.1804 150.605 31.9875C150.932 31.7901 151.116 31.4201 151.156 30.8773H152.199V39.907H153.976V40.9297ZM162.057 35.9169C162.057 37.7157 161.794 39.0367 161.269 39.88C160.749 40.7189 159.944 41.1383 158.854 41.1383C157.75 41.1383 156.941 40.7099 156.425 39.8531C155.909 38.9964 155.651 37.6888 155.651 35.9304C155.651 34.1227 155.911 32.8016 156.431 31.9673C156.956 31.1285 157.764 30.7091 158.854 30.7091C159.957 30.7091 160.767 31.1419 161.283 32.0077C161.799 32.8734 162.057 34.1765 162.057 35.9169ZM160.334 38.9717C160.464 38.6397 160.556 38.2203 160.61 37.7135C160.664 37.2066 160.691 36.6077 160.691 35.9169C160.691 35.2306 160.664 34.634 160.61 34.1272C160.556 33.6203 160.462 33.1986 160.327 32.8622C160.193 32.5213 160.007 32.2634 159.769 32.0884C159.536 31.909 159.231 31.8193 158.854 31.8193C158.481 31.8193 158.174 31.909 157.932 32.0884C157.694 32.2634 157.506 32.5258 157.367 32.8757C157.232 33.2166 157.14 33.6472 157.091 34.1675C157.042 34.6879 157.017 35.2755 157.017 35.9304C157.017 36.6302 157.037 37.2155 157.077 37.6865C157.122 38.1575 157.216 38.5792 157.36 38.9515C157.49 39.2969 157.674 39.5638 157.912 39.7522C158.154 39.9361 158.468 40.0281 158.854 40.0281C159.226 40.0281 159.531 39.9406 159.769 39.7657C160.011 39.5862 160.199 39.3216 160.334 38.9717ZM169.579 35.9169C169.579 37.7157 169.317 39.0367 168.792 39.88C168.271 40.7189 167.466 41.1383 166.376 41.1383C165.273 41.1383 164.463 40.7099 163.947 39.8531C163.431 38.9964 163.173 37.6888 163.173 35.9304C163.173 34.1227 163.434 32.8016 163.954 31.9673C164.479 31.1285 165.286 30.7091 166.376 30.7091C167.48 30.7091 168.289 31.1419 168.805 32.0077C169.321 32.8734 169.579 34.1765 169.579 35.9169ZM167.856 38.9717C167.987 38.6397 168.079 38.2203 168.132 37.7135C168.186 37.2066 168.213 36.6077 168.213 35.9169C168.213 35.2306 168.186 34.634 168.132 34.1272C168.079 33.6203 167.984 33.1986 167.85 32.8622C167.715 32.5213 167.529 32.2634 167.291 32.0884C167.058 31.909 166.753 31.8193 166.376 31.8193C166.004 31.8193 165.697 31.909 165.454 32.0884C165.217 32.2634 165.028 32.5258 164.889 32.8757C164.755 33.2166 164.663 33.6472 164.613 34.1675C164.564 34.6879 164.539 35.2755 164.539 35.9304C164.539 36.6302 164.56 37.2155 164.6 37.6865C164.645 38.1575 164.739 38.5792 164.882 38.9515C165.013 39.2969 165.196 39.5638 165.434 39.7522C165.676 39.9361 165.99 40.0281 166.376 40.0281C166.749 40.0281 167.054 39.9406 167.291 39.7657C167.534 39.5862 167.722 39.3216 167.856 38.9717Z" fill="#303549"/>
<g opacity="0.2">
<path opacity="0.2" d="M253.836 99.4346C253.836 99.9356 253.773 100.379 253.649 100.766C253.528 101.149 253.367 101.466 253.165 101.714C252.96 101.967 252.728 102.158 252.469 102.289C252.21 102.417 251.939 102.481 251.657 102.481C251.445 102.481 251.258 102.441 251.097 102.36C250.939 102.279 250.804 102.21 250.693 102.153V104.478H249.755V102.153C249.557 102.257 249.399 102.338 249.281 102.395C249.163 102.453 248.97 102.481 248.701 102.481C248.069 102.481 247.563 102.226 247.183 101.714C246.803 101.2 246.613 100.495 246.613 99.601C246.613 99.1302 246.673 98.7099 246.794 98.34C246.915 97.9701 247.082 97.6557 247.294 97.3968C247.489 97.1581 247.714 96.9731 247.97 96.842C248.228 96.7075 248.497 96.6402 248.777 96.6402C248.975 96.6402 249.153 96.6755 249.311 96.7461C249.473 96.8134 249.621 96.8907 249.755 96.9781V94.552H250.693V96.9781C250.841 96.8874 251.011 96.8083 251.203 96.7411C251.394 96.6738 251.591 96.6402 251.793 96.6402C252.425 96.6402 252.923 96.8941 253.286 97.4018C253.652 97.9062 253.836 98.5838 253.836 99.4346ZM252.862 99.5405C252.862 98.8982 252.753 98.3905 252.534 98.0172C252.319 97.644 252 97.4573 251.576 97.4573C251.401 97.4573 251.246 97.4809 251.112 97.5279C250.981 97.5717 250.841 97.6204 250.693 97.6742V101.432C250.841 101.503 250.961 101.56 251.051 101.603C251.146 101.647 251.282 101.669 251.46 101.669C251.897 101.669 252.24 101.489 252.489 101.129C252.738 100.77 252.862 100.24 252.862 99.5405ZM249.755 101.432V97.6742C249.634 97.617 249.513 97.5666 249.392 97.5229C249.271 97.4792 249.136 97.4573 248.988 97.4573C248.558 97.4573 248.217 97.6271 247.965 97.9668C247.712 98.3064 247.586 98.836 247.586 99.5556C247.586 100.211 247.699 100.727 247.924 101.104C248.153 101.481 248.479 101.669 248.903 101.669C249.071 101.669 249.222 101.644 249.357 101.593C249.491 101.543 249.624 101.489 249.755 101.432ZM259.561 99.4346C259.561 100.373 259.335 101.121 258.885 101.679C258.437 102.234 257.871 102.511 257.185 102.511C256.906 102.511 256.659 102.479 256.443 102.416C256.228 102.352 256.008 102.252 255.783 102.118V104.478H254.834V96.7663H255.783V97.3564C256.018 97.1446 256.279 96.9681 256.564 96.8268C256.854 96.6822 257.168 96.6099 257.508 96.6099C258.153 96.6099 258.656 96.8655 259.016 97.3766C259.379 97.8877 259.561 98.5737 259.561 99.4346ZM258.582 99.5405C258.582 98.8982 258.479 98.4005 258.274 98.0475C258.069 97.691 257.736 97.5128 257.276 97.5128C257.007 97.5128 256.746 97.5733 256.494 97.6944C256.245 97.8121 256.008 97.9651 255.783 98.1534V101.346C256.031 101.467 256.243 101.55 256.418 101.593C256.596 101.637 256.8 101.659 257.028 101.659C257.519 101.659 257.901 101.479 258.173 101.119C258.446 100.759 258.582 100.233 258.582 99.5405ZM263.692 101.013V99.4497C263.466 99.4699 263.18 99.4984 262.834 99.5354C262.491 99.5691 262.214 99.6178 262.002 99.6817C261.75 99.759 261.541 99.8784 261.376 100.04C261.212 100.198 261.129 100.42 261.129 100.706C261.129 101.028 261.22 101.272 261.402 101.437C261.583 101.602 261.849 101.684 262.199 101.684C262.498 101.684 262.768 101.62 263.011 101.492C263.253 101.361 263.48 101.202 263.692 101.013ZM263.692 101.8C263.614 101.857 263.51 101.938 263.379 102.042C263.251 102.143 263.127 102.224 263.006 102.284C262.837 102.372 262.674 102.439 262.516 102.486C262.362 102.533 262.143 102.557 261.861 102.557C261.629 102.557 261.408 102.513 261.2 102.426C260.991 102.338 260.808 102.215 260.65 102.057C260.499 101.903 260.378 101.713 260.287 101.487C260.196 101.259 260.151 101.018 260.151 100.766C260.151 100.376 260.233 100.045 260.398 99.7725C260.563 99.4968 260.823 99.2782 261.18 99.1168C261.496 98.9722 261.869 98.873 262.299 98.8192C262.73 98.762 263.194 98.72 263.692 98.6931V98.5115C263.692 98.2896 263.658 98.1114 263.591 97.9769C263.523 97.839 263.429 97.7331 263.308 97.6591C263.187 97.5817 263.039 97.5313 262.864 97.5078C262.689 97.4809 262.51 97.4674 262.325 97.4674C262.106 97.4674 261.849 97.501 261.553 97.5683C261.257 97.6322 260.961 97.7263 260.665 97.8508H260.61V96.8874C260.785 96.8369 261.035 96.7814 261.361 96.7209C261.687 96.6604 262.01 96.6301 262.33 96.6301C262.716 96.6301 263.043 96.6604 263.308 96.7209C263.574 96.7814 263.813 96.8907 264.024 97.0488C264.23 97.2034 264.383 97.4035 264.483 97.649C264.584 97.8945 264.635 98.1937 264.635 98.5468V102.4H263.692V101.8ZM270.506 102.4H269.326L267.394 99.8028H266.92V102.4H265.971V96.7663H266.92V99.2177C267.165 99.2143 267.374 99.1639 267.545 99.0663C267.72 98.9655 267.868 98.7721 267.989 98.4863C268.026 98.4022 268.066 98.3047 268.11 98.1937C268.157 98.0828 268.194 97.9853 268.221 97.9012C268.369 97.4876 268.574 97.195 268.836 97.0235C269.099 96.8521 269.44 96.7663 269.86 96.7663H270.118V97.5834H269.901C269.635 97.5834 269.435 97.6389 269.3 97.7499C269.169 97.8575 269.058 98.0559 268.967 98.3451C268.873 98.6376 268.762 98.8663 268.635 99.031C268.507 99.1924 268.366 99.3169 268.211 99.4043L270.506 102.4ZM276.09 103.752H275.207V102.4H271.116V96.7663H272.064V101.583H274.581V96.7663H275.53V101.583H276.09V103.752ZM281.476 102.4H280.538V98.1988L277.885 102.4H277.028V96.7663H277.966V100.902L280.589 96.7663H281.476V102.4ZM286.929 102.4H285.981V100.166H285.043L283.373 102.4H282.268L284.079 100.08C283.612 99.9423 283.269 99.7372 283.05 99.4648C282.835 99.1924 282.727 98.8276 282.727 98.3703C282.727 98.0912 282.788 97.8474 282.909 97.6389C283.033 97.4271 283.2 97.2488 283.408 97.1042C283.576 96.9899 283.788 96.9059 284.044 96.8521C284.299 96.7949 284.585 96.7663 284.901 96.7663H286.929V102.4ZM285.981 99.4194V97.5229H284.952C284.733 97.5229 284.56 97.5347 284.432 97.5582C284.308 97.5817 284.187 97.6271 284.069 97.6944C283.948 97.7684 283.856 97.8692 283.792 97.997C283.731 98.1214 283.701 98.2559 283.701 98.4005C283.701 98.5855 283.721 98.7368 283.761 98.8545C283.805 98.9688 283.882 99.0747 283.993 99.1723C284.111 99.2731 284.254 99.3404 284.422 99.374C284.594 99.4043 284.78 99.4194 284.982 99.4194H285.981Z" fill="#8C99B2"/>
</g>
<path opacity="0.2" d="M274.03 70.7088C274.03 71.1717 273.937 71.5153 273.75 71.7395C273.564 71.9617 273.296 72.0728 272.944 72.0728C272.586 72.0728 272.315 71.9597 272.129 71.7334C271.946 71.5071 271.855 71.1666 271.855 70.7119C271.855 70.2511 271.948 69.9085 272.136 69.6843C272.323 69.4601 272.592 69.3479 272.944 69.3479C273.302 69.3479 273.573 69.4611 273.756 69.6874C273.939 69.9137 274.03 70.2542 274.03 70.7088ZM276.086 69.4343L273.679 74.0293H273.169L275.576 69.4343H276.086ZM277.394 72.7548C277.394 73.2177 277.3 73.5613 277.113 73.7855C276.928 74.0077 276.66 74.1188 276.308 74.1188C275.95 74.1188 275.678 74.0056 275.493 73.7793C275.31 73.553 275.218 73.2126 275.218 72.7579C275.218 72.2971 275.312 71.9545 275.499 71.7303C275.686 71.506 275.956 71.3939 276.308 71.3939C276.666 71.3939 276.936 71.5071 277.119 71.7334C277.302 71.9597 277.394 72.3001 277.394 72.7548ZM273.481 70.7088C273.481 70.3961 273.444 70.1595 273.37 69.9991C273.298 69.8386 273.156 69.7584 272.944 69.7584C272.732 69.7584 272.589 69.8396 272.515 70.0021C272.441 70.1647 272.404 70.4013 272.404 70.7119C272.404 71.0205 272.439 71.2561 272.509 71.4186C272.579 71.5811 272.724 71.6624 272.944 71.6624C273.156 71.6624 273.298 71.5811 273.37 71.4186C273.444 71.2561 273.481 71.0195 273.481 70.7088ZM276.845 72.7548C276.845 72.4421 276.808 72.2055 276.734 72.045C276.662 71.8846 276.52 71.8043 276.308 71.8043C276.096 71.8043 275.953 71.8856 275.879 72.0481C275.805 72.2107 275.768 72.4472 275.768 72.7579C275.768 73.0665 275.803 73.302 275.873 73.4646C275.943 73.6271 276.088 73.7084 276.308 73.7084C276.52 73.7084 276.662 73.6271 276.734 73.4646C276.808 73.302 276.845 73.0655 276.845 72.7548Z" fill="#8C99B2"/>
<g opacity="0.2">
<path opacity="0.2" d="M247.63 73.3401C244.091 69.7138 241.628 65.1756 240.518 60.2316C239.407 55.2877 239.692 50.1323 241.34 45.3407C242.988 40.549 245.935 36.3095 249.852 33.0949C253.769 29.8803 258.502 27.8171 263.523 27.1354C268.544 26.4537 273.656 27.1803 278.288 29.2341C282.921 31.288 286.891 34.5884 289.757 38.7671C292.623 42.9459 294.272 47.8387 294.52 52.8998C294.768 57.961 293.604 62.9914 291.16 67.4301" stroke="#8C99B2" stroke-width="2" stroke-miterlimit="10"/>
</g>
<g opacity="0.2">
<path opacity="0.2" d="M265.247 50.7158C265.247 50.0231 265.184 49.4603 265.056 49.0273C264.928 48.5898 264.753 48.2526 264.53 48.0156C264.329 47.7969 264.126 47.6465 263.921 47.5645C263.716 47.4824 263.491 47.4414 263.245 47.4414C262.684 47.4414 262.237 47.6419 261.905 48.043C261.572 48.444 261.406 49.0251 261.406 49.7861C261.406 50.2145 261.46 50.5677 261.57 50.8457C261.679 51.1237 261.857 51.363 262.103 51.5635C262.276 51.7048 262.472 51.8005 262.691 51.8506C262.91 51.8962 263.144 51.9189 263.395 51.9189C263.687 51.9189 264.001 51.8688 264.338 51.7686C264.676 51.6637 264.97 51.527 265.22 51.3584C265.225 51.29 265.229 51.2012 265.234 51.0918C265.243 50.9779 265.247 50.8525 265.247 50.7158ZM260.018 49.8408C260.018 49.3167 260.102 48.8382 260.271 48.4053C260.444 47.9723 260.679 47.5986 260.975 47.2842C261.258 46.9834 261.602 46.7487 262.007 46.5801C262.417 46.4115 262.832 46.3271 263.251 46.3271C263.721 46.3271 264.145 46.4069 264.523 46.5664C264.906 46.7214 265.236 46.9469 265.514 47.2432C265.865 47.6169 266.136 48.1068 266.328 48.7129C266.524 49.319 266.622 50.0846 266.622 51.0098C266.622 51.8529 266.526 52.6527 266.334 53.4092C266.148 54.1611 265.87 54.7855 265.5 55.2822C265.109 55.8109 264.637 56.2142 264.085 56.4922C263.539 56.7702 262.862 56.9092 262.055 56.9092C261.873 56.9092 261.679 56.8978 261.474 56.875C261.269 56.8568 261.078 56.8203 260.9 56.7656V55.46H260.968C261.082 55.5238 261.26 55.5853 261.501 55.6445C261.743 55.7038 261.989 55.7334 262.24 55.7334C263.133 55.7334 263.835 55.4395 264.345 54.8516C264.856 54.2637 265.145 53.4229 265.213 52.3291C264.849 52.5752 264.5 52.7552 264.167 52.8691C263.839 52.9831 263.482 53.04 263.094 53.04C262.716 53.04 262.372 52.999 262.062 52.917C261.752 52.835 261.44 52.6755 261.125 52.4385C260.761 52.1605 260.485 51.8096 260.298 51.3857C260.111 50.9574 260.018 50.4424 260.018 49.8408ZM274.497 53.2109H273.287V56.7109H271.974V53.2109H267.476V51.7754L272.029 46.5322H273.287V52.1172H274.497V53.2109ZM271.974 52.1172V48.1387L268.542 52.1172H271.974Z" fill="#8C99B2"/>
</g>
</svg>
