<svg width="324" height="117" viewBox="0 0 324 117" fill="none" xmlns="http://www.w3.org/2000/svg">
<path d="M15.7 4.59998H308.1C313.6 4.59998 318.1 9.09998 318.1 14.6V102.3C318.1 107.8 313.6 112.3 308.1 112.3H15.7C10.2 112.3 5.7 107.8 5.7 102.3V14.6C5.7 9.09998 10.2 4.59998 15.7 4.59998Z" fill="#EBF1F9"/>
<path d="M80.3 78.5C87.9215 78.5 94.1 72.3215 94.1 64.7C94.1 57.0785 87.9215 50.9 80.3 50.9C72.6785 50.9 66.5 57.0785 66.5 64.7C66.5 72.3215 72.6785 78.5 80.3 78.5Z" fill="#0BA4A4"/>
<path d="M80.3 75.9C86.4856 75.9 91.5 70.8856 91.5 64.7C91.5 58.5144 86.4856 53.5 80.3 53.5C74.1144 53.5 69.1 58.5144 69.1 64.7C69.1 70.8856 74.1144 75.9 80.3 75.9Z" stroke="white" stroke-width="0.5" stroke-miterlimit="10"/>
<path opacity="0.25" d="M237.8 81.6C246.968 81.6 254.4 74.1679 254.4 65C254.4 55.8321 246.968 48.4 237.8 48.4C228.632 48.4 221.2 55.8321 221.2 65C221.2 74.1679 228.632 81.6 237.8 81.6Z" fill="#0089FF"/>
<path d="M237.8 78.8C245.422 78.8 251.6 72.6215 251.6 65C251.6 57.3784 245.422 51.2 237.8 51.2C230.178 51.2 224 57.3784 224 65C224 72.6215 230.178 78.8 237.8 78.8Z" fill="#0089FF"/>
<path d="M237.8 76.2C243.986 76.2 249 71.1856 249 65C249 58.8145 243.986 53.8 237.8 53.8C231.614 53.8 226.6 58.8145 226.6 65C226.6 71.1856 231.614 76.2 237.8 76.2Z" stroke="white" stroke-width="0.5" stroke-miterlimit="10"/>
<path d="M91.3 65H220.4" stroke="#8C99B2" stroke-width="0.5" stroke-miterlimit="10"/>
<path d="M220.159 63.999C220.794 64.4044 221.462 64.7516 222.153 65.0408C221.47 65.3627 220.796 65.7264 220.15 66.1325L220.474 65.1581L220.53 64.9902L220.468 64.8244L220.159 63.999Z" stroke="#8C99B2"/>
<path d="M17.6 3.5H306.2C312.8 3.5 318.1 8.8 318.1 15.4C318.1 22 312.8 27.3 306.2 27.3H17.6C11 27.3 5.7 22 5.7 15.4C5.7 8.8 11 3.5 17.6 3.5Z" fill="#D7E2F2"/>
<path d="M26.0785 12.7423C26.2968 12.994 26.4663 13.3061 26.587 13.6785C26.7077 14.0509 26.7681 14.4759 26.7681 14.9537C26.7681 15.4185 26.709 15.8385 26.5908 16.2134C26.4727 16.5884 26.3019 16.903 26.0785 17.1573C25.8447 17.4244 25.5712 17.6222 25.2579 17.7506C24.9471 17.8765 24.6042 17.9394 24.2292 17.9394C23.8414 17.9394 23.4921 17.8739 23.1814 17.7429C22.8706 17.6119 22.6035 17.4167 22.38 17.1573C22.1591 16.903 21.9896 16.5897 21.8715 16.2173C21.7533 15.8449 21.6943 15.4237 21.6943 14.9537C21.6943 14.4708 21.7533 14.047 21.8715 13.6823C21.9922 13.3176 22.163 13.0043 22.3839 12.7423C22.6048 12.488 22.8706 12.2954 23.1814 12.1644C23.4947 12.0309 23.844 11.9641 24.2292 11.9641C24.6196 11.9641 24.9715 12.0321 25.2848 12.1683C25.5982 12.3044 25.8627 12.4957 26.0785 12.7423ZM25.9744 14.9537C25.9744 14.5735 25.9333 14.2371 25.8512 13.9443C25.769 13.6515 25.6534 13.4088 25.5044 13.2162C25.3529 13.0184 25.1693 12.8707 24.9535 12.7731C24.7403 12.673 24.5002 12.6229 24.2331 12.6229C23.9557 12.6229 23.713 12.6717 23.505 12.7693C23.2995 12.8643 23.1171 13.0133 22.9579 13.2162C22.8064 13.4114 22.6895 13.6566 22.6073 13.952C22.5277 14.2474 22.4879 14.5812 22.4879 14.9537C22.4879 15.7062 22.6458 16.2828 22.9618 16.6834C23.2777 17.0815 23.7014 17.2806 24.2331 17.2806C24.7647 17.2806 25.1872 17.0815 25.5006 16.6834C25.8165 16.2828 25.9744 15.7062 25.9744 14.9537ZM30.9481 17.8199H30.2238V14.1408H28.2744V17.8199H27.5501V13.5167H30.9481V17.8199ZM35.5364 15.6702C35.5364 16.3945 35.3618 16.9544 35.0125 17.3499C34.6632 17.7429 34.1983 17.9394 33.6179 17.9394C33.0194 17.9394 32.5482 17.7365 32.204 17.3307C31.8624 16.9223 31.6916 16.3688 31.6916 15.6702C31.6916 14.9511 31.8675 14.3925 32.2194 13.9944C32.5738 13.5963 33.04 13.3972 33.6179 13.3972C34.1983 13.3972 34.6632 13.5963 35.0125 13.9944C35.3618 14.3899 35.5364 14.9485 35.5364 15.6702ZM34.789 15.6702C34.789 15.1129 34.6876 14.6994 34.4847 14.4297C34.2818 14.1575 33.9929 14.0213 33.6179 14.0213C33.2403 14.0213 32.9488 14.1575 32.7434 14.4297C32.5405 14.6994 32.439 15.1129 32.439 15.6702C32.439 16.2096 32.5405 16.6192 32.7434 16.8992C32.9488 17.1766 33.2403 17.3153 33.6179 17.3153C33.9903 17.3153 34.2779 17.1791 34.4808 16.9069C34.6863 16.6321 34.789 16.2199 34.789 15.6702ZM39.6548 16.5178C39.6548 16.7258 39.615 16.9107 39.5354 17.0726C39.4558 17.2318 39.3466 17.3653 39.2079 17.4732C39.0333 17.6093 38.8496 17.7018 38.657 17.7506C38.4669 17.7968 38.2384 17.8199 37.9712 17.8199H36.28V13.5167H37.8595C38.1754 13.5167 38.4066 13.5269 38.553 13.5475C38.6994 13.5655 38.8445 13.6143 38.9883 13.6939C39.1399 13.7761 39.2516 13.8852 39.3235 14.0213C39.3954 14.1575 39.4314 14.3193 39.4314 14.5068C39.4314 14.7122 39.3749 14.8972 39.2618 15.0615C39.1488 15.2233 38.9986 15.3492 38.8111 15.4391L38.8304 15.466C39.0641 15.5251 39.2593 15.6445 39.4159 15.8243C39.5752 16.0041 39.6548 16.2353 39.6548 16.5178ZM38.6878 14.6185C38.6878 14.5209 38.6711 14.4361 38.6377 14.3642C38.6069 14.2923 38.5517 14.2358 38.4721 14.1947C38.3796 14.1459 38.2756 14.1177 38.16 14.11C38.047 14.0997 37.8891 14.0945 37.6862 14.0945H36.9966V15.2734H37.8287C38.0059 15.2734 38.1318 15.2657 38.2063 15.2503C38.2807 15.2323 38.3629 15.1964 38.4528 15.1424C38.5376 15.0911 38.5979 15.0217 38.6339 14.9344C38.6698 14.8471 38.6878 14.7418 38.6878 14.6185ZM38.9074 16.5216C38.9074 16.3752 38.8856 16.2584 38.8419 16.1711C38.8008 16.0812 38.7084 16.0015 38.5645 15.9322C38.4746 15.8885 38.3783 15.8616 38.2756 15.8513C38.1729 15.841 38.0303 15.8359 37.848 15.8359H36.9966V17.2421H37.6245C37.8839 17.2421 38.0855 17.2318 38.2294 17.2112C38.3732 17.1907 38.4965 17.1496 38.5992 17.088C38.7071 17.0212 38.7854 16.9441 38.8342 16.8568C38.883 16.7695 38.9074 16.6578 38.9074 16.5216ZM42.2861 17.9201C41.6003 17.9201 41.0674 17.7275 40.6873 17.3422C40.3097 16.9544 40.121 16.4048 40.121 15.6933C40.121 14.9922 40.3046 14.4348 40.6719 14.0213C41.0392 13.6053 41.5194 13.3972 42.1127 13.3972C42.3798 13.3972 42.6161 13.4358 42.8216 13.5128C43.0271 13.5899 43.2068 13.7106 43.3609 13.8749C43.5151 14.0393 43.6332 14.2409 43.7154 14.4798C43.7976 14.7161 43.8387 15.0063 43.8387 15.3505V15.7434H40.8568C40.8568 16.2443 40.9826 16.6269 41.2343 16.8915C41.486 17.156 41.8341 17.2883 42.2784 17.2883C42.4376 17.2883 42.593 17.2703 42.7445 17.2344C42.8986 17.1984 43.0373 17.1522 43.1606 17.0957C43.2916 17.0366 43.402 16.9801 43.4919 16.9262C43.5818 16.8697 43.6563 16.817 43.7154 16.7682H43.7578V17.558C43.673 17.5914 43.5677 17.6337 43.4419 17.6851C43.316 17.7339 43.203 17.7724 43.1028 17.8007C42.9616 17.8392 42.8332 17.8687 42.7176 17.8893C42.6046 17.9098 42.4607 17.9201 42.2861 17.9201ZM43.1336 15.1887C43.1285 14.9935 43.1054 14.8252 43.0643 14.684C43.0232 14.5427 42.9641 14.4233 42.8871 14.3257C42.8023 14.2178 42.6932 14.1356 42.5596 14.0791C42.4286 14.0226 42.2655 13.9944 42.0703 13.9944C41.8777 13.9944 41.7133 14.0239 41.5772 14.083C41.4437 14.1395 41.3217 14.223 41.2112 14.3334C41.1034 14.4464 41.0212 14.5723 40.9647 14.7109C40.9082 14.8471 40.8722 15.0063 40.8568 15.1887H43.1336ZM50.0913 18.8524H49.4171V17.8199H44.5706V13.5167H45.2949V17.2074H46.755V13.5167H47.4793V17.2074H48.9394V13.5167H49.6637V17.2074H50.0913V18.8524ZM52.6725 17.9201C51.9868 17.9201 51.4538 17.7275 51.0737 17.3422C50.6962 16.9544 50.5074 16.4048 50.5074 15.6933C50.5074 14.9922 50.691 14.4348 51.0583 14.0213C51.4256 13.6053 51.9059 13.3972 52.4992 13.3972C52.7663 13.3972 53.0026 13.4358 53.208 13.5128C53.4135 13.5899 53.5933 13.7106 53.7474 13.8749C53.9015 14.0393 54.0196 14.2409 54.1018 14.4798C54.184 14.7161 54.2251 15.0063 54.2251 15.3505V15.7434H51.2432C51.2432 16.2443 51.3691 16.6269 51.6208 16.8915C51.8725 17.156 52.2205 17.2883 52.6648 17.2883C52.8241 17.2883 52.9795 17.2703 53.131 17.2344C53.2851 17.1984 53.4238 17.1522 53.5471 17.0957C53.678 17.0366 53.7885 16.9801 53.8784 16.9262C53.9683 16.8697 54.0428 16.817 54.1018 16.7682H54.1442V17.558C54.0595 17.5914 53.9541 17.6337 53.8283 17.6851C53.7024 17.7339 53.5894 17.7724 53.4893 17.8007C53.348 17.8392 53.2196 17.8687 53.104 17.8893C52.991 17.9098 52.8472 17.9201 52.6725 17.9201ZM53.5201 15.1887C53.515 14.9935 53.4918 14.8252 53.4507 14.684C53.4097 14.5427 53.3506 14.4233 53.2735 14.3257C53.1888 14.2178 53.0796 14.1356 52.9461 14.0791C52.8151 14.0226 52.652 13.9944 52.4568 13.9944C52.2642 13.9944 52.0998 14.0239 51.9637 14.083C51.8301 14.1395 51.7081 14.223 51.5977 14.3334C51.4898 14.4464 51.4076 14.5723 51.3511 14.7109C51.2946 14.8471 51.2587 15.0063 51.2432 15.1887H53.5201ZM58.355 17.8199H57.6308V15.8821H55.6814V17.8199H54.9571V13.5167H55.6814V15.258H57.6308V13.5167H58.355V17.8199ZM62.8009 17.8199H62.0843V14.6108L60.0579 17.8199H59.4029V13.5167H60.1195V16.6757L62.1228 13.5167H62.8009V17.8199ZM65.7172 17.9201C65.0315 17.9201 64.4985 17.7275 64.1184 17.3422C63.7409 16.9544 63.5521 16.4048 63.5521 15.6933C63.5521 14.9922 63.7357 14.4348 64.103 14.0213C64.4703 13.6053 64.9506 13.3972 65.5439 13.3972C65.811 13.3972 66.0473 13.4358 66.2527 13.5128C66.4582 13.5899 66.638 13.7106 66.7921 13.8749C66.9462 14.0393 67.0643 14.2409 67.1465 14.4798C67.2287 14.7161 67.2698 15.0063 67.2698 15.3505V15.7434H64.2879C64.2879 16.2443 64.4138 16.6269 64.6655 16.8915C64.9172 17.156 65.2652 17.2883 65.7095 17.2883C65.8688 17.2883 66.0242 17.2703 66.1757 17.2344C66.3298 17.1984 66.4685 17.1522 66.5918 17.0957C66.7227 17.0366 66.8332 16.9801 66.9231 16.9262C67.013 16.8697 67.0875 16.817 67.1465 16.7682H67.1889V17.558C67.1041 17.5914 66.9988 17.6337 66.873 17.6851C66.7471 17.7339 66.6341 17.7724 66.534 17.8007C66.3927 17.8392 66.2643 17.8687 66.1487 17.8893C66.0357 17.9098 65.8919 17.9201 65.7172 17.9201ZM66.5648 15.1887C66.5597 14.9935 66.5365 14.8252 66.4954 14.684C66.4544 14.5427 66.3953 14.4233 66.3182 14.3257C66.2335 14.2178 66.1243 14.1356 65.9908 14.0791C65.8598 14.0226 65.6967 13.9944 65.5015 13.9944C65.3089 13.9944 65.1445 14.0239 65.0084 14.083C64.8748 14.1395 64.7528 14.223 64.6424 14.3334C64.5345 14.4464 64.4523 14.5723 64.3958 14.7109C64.3393 14.8471 64.3034 15.0063 64.2879 15.1887H66.5648ZM72.1779 17.9163C71.8826 17.9163 71.6116 17.8713 71.3651 17.7814C71.1185 17.689 70.9066 17.5503 70.7294 17.3653C70.5522 17.1804 70.4148 16.948 70.3172 16.668C70.2196 16.3855 70.1708 16.0542 70.1708 15.6741C70.1708 15.2965 70.2208 14.9704 70.321 14.6955C70.4237 14.4207 70.5599 14.1896 70.7294 14.0021C70.8989 13.8146 71.1095 13.6708 71.3612 13.5706C71.6155 13.4679 71.8877 13.4165 72.1779 13.4165C72.4142 13.4165 72.6415 13.4499 72.8598 13.5167C73.0807 13.5834 73.2772 13.6605 73.4493 13.7478V14.5607H73.4069C73.3555 14.517 73.2888 14.467 73.2066 14.4104C73.1269 14.3539 73.0293 14.2962 72.9138 14.2371C72.8136 14.1857 72.6955 14.1408 72.5593 14.1022C72.4232 14.0637 72.2922 14.0445 72.1664 14.0445C71.7914 14.0445 71.4896 14.187 71.261 14.4721C71.035 14.7546 70.922 15.1553 70.922 15.6741C70.922 16.1826 71.0312 16.5794 71.2495 16.8645C71.4704 17.147 71.776 17.2883 72.1664 17.2883C72.4027 17.2883 72.6274 17.2395 72.8406 17.1419C73.0537 17.0443 73.2425 16.9185 73.4069 16.7644H73.4493V17.5772C73.3774 17.6106 73.2875 17.6517 73.1796 17.7005C73.0717 17.7467 72.9741 17.7814 72.8868 17.8045C72.7635 17.8405 72.6531 17.8675 72.5555 17.8854C72.4579 17.906 72.332 17.9163 72.1779 17.9163ZM77.6524 15.6702C77.6524 16.3945 77.4778 16.9544 77.1285 17.3499C76.7792 17.7429 76.3143 17.9394 75.7338 17.9394C75.1354 17.9394 74.6641 17.7365 74.32 17.3307C73.9784 16.9223 73.8076 16.3688 73.8076 15.6702C73.8076 14.9511 73.9835 14.3925 74.3354 13.9944C74.6898 13.5963 75.156 13.3972 75.7338 13.3972C76.3143 13.3972 76.7792 13.5963 77.1285 13.9944C77.4778 14.3899 77.6524 14.9485 77.6524 15.6702ZM76.905 15.6702C76.905 15.1129 76.8036 14.6994 76.6007 14.4297C76.3978 14.1575 76.1088 14.0213 75.7338 14.0213C75.3563 14.0213 75.0648 14.1575 74.8593 14.4297C74.6564 14.6994 74.555 15.1129 74.555 15.6702C74.555 16.2096 74.6564 16.6192 74.8593 16.8992C75.0648 17.1766 75.3563 17.3153 75.7338 17.3153C76.1062 17.3153 76.3939 17.1791 76.5968 16.9069C76.8023 16.6321 76.905 16.2199 76.905 15.6702ZM81.5396 14.1523H80.0756V17.8199H79.3514V14.1523H77.8874V13.5167H81.5396V14.1523ZM85.6888 15.5547C85.6888 16.2712 85.5167 16.8427 85.1726 17.269C84.831 17.6928 84.3982 17.9047 83.8742 17.9047C83.6611 17.9047 83.4723 17.8803 83.3079 17.8315C83.1435 17.7827 82.9753 17.7069 82.8032 17.6042V19.4072H82.079V13.5167H82.8032V13.9674C82.983 13.8056 83.1821 13.6708 83.4004 13.5629C83.6213 13.4525 83.8614 13.3972 84.1208 13.3972C84.6139 13.3972 84.9979 13.5924 85.2727 13.9828C85.5501 14.3732 85.6888 14.8972 85.6888 15.5547ZM84.9414 15.6356C84.9414 15.145 84.8631 14.7649 84.7064 14.4952C84.5497 14.223 84.2955 14.0868 83.9436 14.0868C83.7381 14.0868 83.5391 14.1331 83.3465 14.2255C83.1564 14.3154 82.9753 14.4323 82.8032 14.5761V17.0148C82.9933 17.1072 83.1551 17.1702 83.2887 17.2035C83.4248 17.2369 83.5802 17.2536 83.7548 17.2536C84.1298 17.2536 84.4213 17.1162 84.6293 16.8414C84.8374 16.5666 84.9414 16.1646 84.9414 15.6356ZM89.8226 13.5167L87.5072 19.4072H86.7328L87.5033 17.6119L85.9392 13.5167H86.7213L87.8963 16.7027L89.0675 13.5167H89.8226ZM94.0604 18.8524H93.3862V17.8084H90.5507V18.8524H89.8765V17.2035H90.1616C90.4056 16.8029 90.6046 16.2802 90.7587 15.6356C90.9154 14.9883 90.9937 14.282 90.9937 13.5167H93.6327V17.2035H94.0604V18.8524ZM92.9085 17.2035V14.1254H91.6756C91.6423 14.7675 91.5536 15.3543 91.4098 15.886C91.2686 16.4151 91.0901 16.8542 90.8743 17.2035H92.9085ZM98.1749 17.8199H97.4506V15.8821H95.5012V17.8199H94.7769V13.5167H95.5012V15.258H97.4506V13.5167H98.1749V17.8199ZM102.621 17.8199H101.904V14.6108L99.8777 17.8199H99.2228V13.5167H99.9393V16.6757L101.943 13.5167H102.621V17.8199ZM107.132 17.8199H106.231L104.755 15.8359H104.393V17.8199H103.669V13.5167H104.393V15.389C104.58 15.3864 104.74 15.3479 104.871 15.2734C105.004 15.1964 105.117 15.0487 105.21 14.8304C105.238 14.7662 105.269 14.6917 105.302 14.6069C105.338 14.5222 105.366 14.4477 105.387 14.3835C105.5 14.0676 105.657 13.8441 105.857 13.7131C106.057 13.5822 106.318 13.5167 106.639 13.5167H106.835V14.1408H106.67C106.467 14.1408 106.314 14.1831 106.211 14.2679C106.111 14.3501 106.026 14.5016 105.957 14.7225C105.885 14.946 105.8 15.1206 105.703 15.2465C105.605 15.3697 105.497 15.4648 105.379 15.5315L107.132 17.8199ZM111.139 15.6702C111.139 16.3945 110.964 16.9544 110.615 17.3499C110.265 17.7429 109.801 17.9394 109.22 17.9394C108.622 17.9394 108.15 17.7365 107.806 17.3307C107.465 16.9223 107.294 16.3688 107.294 15.6702C107.294 14.9511 107.47 14.3925 107.822 13.9944C108.176 13.5963 108.642 13.3972 109.22 13.3972C109.801 13.3972 110.265 13.5963 110.615 13.9944C110.964 14.3899 111.139 14.9485 111.139 15.6702ZM110.391 15.6702C110.391 15.1129 110.29 14.6994 110.087 14.4297C109.884 14.1575 109.595 14.0213 109.22 14.0213C108.843 14.0213 108.551 14.1575 108.346 14.4297C108.143 14.6994 108.041 15.1129 108.041 15.6702C108.041 16.2096 108.143 16.6192 108.346 16.8992C108.551 17.1766 108.843 17.3153 109.22 17.3153C109.593 17.3153 109.88 17.1791 110.083 16.9069C110.289 16.6321 110.391 16.2199 110.391 15.6702ZM115.257 16.5178C115.257 16.7258 115.217 16.9107 115.138 17.0726C115.058 17.2318 114.949 17.3653 114.81 17.4732C114.635 17.6093 114.452 17.7018 114.259 17.7506C114.069 17.7968 113.841 17.8199 113.573 17.8199H111.882V13.5167H113.462C113.778 13.5167 114.009 13.5269 114.155 13.5475C114.302 13.5655 114.447 13.6143 114.591 13.6939C114.742 13.7761 114.854 13.8852 114.926 14.0213C114.998 14.1575 115.034 14.3193 115.034 14.5068C115.034 14.7122 114.977 14.8972 114.864 15.0615C114.751 15.2233 114.601 15.3492 114.413 15.4391L114.433 15.466C114.666 15.5251 114.862 15.6445 115.018 15.8243C115.177 16.0041 115.257 16.2353 115.257 16.5178ZM114.29 14.6185C114.29 14.5209 114.273 14.4361 114.24 14.3642C114.209 14.2923 114.154 14.2358 114.074 14.1947C113.982 14.1459 113.878 14.1177 113.762 14.11C113.649 14.0997 113.491 14.0945 113.288 14.0945H112.599V15.2734H113.431C113.608 15.2734 113.734 15.2657 113.808 15.2503C113.883 15.2323 113.965 15.1964 114.055 15.1424C114.14 15.0911 114.2 15.0217 114.236 14.9344C114.272 14.8471 114.29 14.7418 114.29 14.6185ZM114.51 16.5216C114.51 16.3752 114.488 16.2584 114.444 16.1711C114.403 16.0812 114.311 16.0015 114.167 15.9322C114.077 15.8885 113.981 15.8616 113.878 15.8513C113.775 15.841 113.633 15.8359 113.45 15.8359H112.599V17.2421H113.227C113.486 17.2421 113.688 17.2318 113.832 17.2112C113.975 17.1907 114.099 17.1496 114.201 17.088C114.309 17.0212 114.388 16.9441 114.436 16.8568C114.485 16.7695 114.51 16.6578 114.51 16.5216ZM121.883 17.8199H121.159V14.1408H119.21V17.8199H118.485V13.5167H121.883V17.8199ZM126.541 15.5547C126.541 16.2712 126.369 16.8427 126.025 17.269C125.683 17.6928 125.251 17.9047 124.727 17.9047C124.513 17.9047 124.325 17.8803 124.16 17.8315C123.996 17.7827 123.828 17.7069 123.656 17.6042V19.4072H122.931V13.5167H123.656V13.9674C123.835 13.8056 124.034 13.6708 124.253 13.5629C124.474 13.4525 124.714 13.3972 124.973 13.3972C125.466 13.3972 125.85 13.5924 126.125 13.9828C126.402 14.3732 126.541 14.8972 126.541 15.5547ZM125.794 15.6356C125.794 15.145 125.715 14.7649 125.559 14.4952C125.402 14.223 125.148 14.0868 124.796 14.0868C124.59 14.0868 124.391 14.1331 124.199 14.2255C124.009 14.3154 123.828 14.4323 123.656 14.5761V17.0148C123.846 17.1072 124.007 17.1702 124.141 17.2035C124.277 17.2369 124.432 17.2536 124.607 17.2536C124.982 17.2536 125.274 17.1162 125.482 16.8414C125.69 16.5666 125.794 16.1646 125.794 15.6356ZM130.69 17.8199H129.974V14.6108L127.947 17.8199H127.292V13.5167H128.009V16.6757L130.012 13.5167H130.69V17.8199ZM137.579 16.5178C137.579 16.7258 137.539 16.9107 137.459 17.0726C137.38 17.2318 137.27 17.3653 137.132 17.4732C136.957 17.6093 136.773 17.7018 136.581 17.7506C136.391 17.7968 136.162 17.8199 135.895 17.8199H134.204V13.5167H135.783C136.099 13.5167 136.33 13.5269 136.477 13.5475C136.623 13.5655 136.768 13.6143 136.912 13.6939C137.064 13.7761 137.175 13.8852 137.247 14.0213C137.319 14.1575 137.355 14.3193 137.355 14.5068C137.355 14.7122 137.299 14.8972 137.186 15.0615C137.073 15.2233 136.922 15.3492 136.735 15.4391L136.754 15.466C136.988 15.5251 137.183 15.6445 137.34 15.8243C137.499 16.0041 137.579 16.2353 137.579 16.5178ZM136.612 14.6185C136.612 14.5209 136.595 14.4361 136.562 14.3642C136.531 14.2923 136.476 14.2358 136.396 14.1947C136.303 14.1459 136.199 14.1177 136.084 14.11C135.971 14.0997 135.813 14.0945 135.61 14.0945H134.92V15.2734H135.753C135.93 15.2734 136.056 15.2657 136.13 15.2503C136.205 15.2323 136.287 15.1964 136.377 15.1424C136.461 15.0911 136.522 15.0217 136.558 14.9344C136.594 14.8471 136.612 14.7418 136.612 14.6185ZM136.831 16.5216C136.831 16.3752 136.809 16.2584 136.766 16.1711C136.725 16.0812 136.632 16.0015 136.488 15.9322C136.398 15.8885 136.302 15.8616 136.199 15.8513C136.097 15.841 135.954 15.8359 135.772 15.8359H134.92V17.2421H135.548C135.808 17.2421 136.009 17.2318 136.153 17.2112C136.297 17.1907 136.42 17.1496 136.523 17.088C136.631 17.0212 136.709 16.9441 136.758 16.8568C136.807 16.7695 136.831 16.6578 136.831 16.5216ZM141.535 16.487C141.535 16.695 141.493 16.8838 141.408 17.0533C141.326 17.2228 141.213 17.3602 141.069 17.4655C140.9 17.5939 140.718 17.6851 140.526 17.739C140.333 17.793 140.085 17.8199 139.782 17.8199H138.341V13.5167H139.066V15.1925H139.802C140.125 15.1925 140.376 15.2092 140.553 15.2426C140.733 15.276 140.911 15.3582 141.088 15.4892C141.237 15.5996 141.349 15.7409 141.423 15.9129C141.498 16.085 141.535 16.2764 141.535 16.487ZM140.788 16.4985C140.788 16.3675 140.765 16.2532 140.718 16.1556C140.675 16.0555 140.602 15.9746 140.499 15.9129C140.391 15.8487 140.268 15.8102 140.129 15.7974C139.993 15.7845 139.796 15.7781 139.54 15.7781H139.066V17.2421H139.524C139.781 17.2421 139.98 17.2318 140.121 17.2112C140.263 17.1881 140.385 17.1458 140.487 17.0841C140.593 17.0173 140.668 16.939 140.715 16.8491C140.763 16.7566 140.788 16.6398 140.788 16.4985ZM142.76 17.8199H142.036V13.5167H142.76V17.8199ZM147.21 17.8199H146.486V14.1408H144.536V17.8199H143.812V13.5167H147.21V17.8199ZM151.798 15.6702C151.798 16.3945 151.624 16.9544 151.274 17.3499C150.925 17.7429 150.46 17.9394 149.88 17.9394C149.281 17.9394 148.81 17.7365 148.466 17.3307C148.124 16.9223 147.954 16.3688 147.954 15.6702C147.954 14.9511 148.129 14.3925 148.481 13.9944C148.836 13.5963 149.302 13.3972 149.88 13.3972C150.46 13.3972 150.925 13.5963 151.274 13.9944C151.624 14.3899 151.798 14.9485 151.798 15.6702ZM151.051 15.6702C151.051 15.1129 150.95 14.6994 150.747 14.4297C150.544 14.1575 150.255 14.0213 149.88 14.0213C149.502 14.0213 149.211 14.1575 149.005 14.4297C148.802 14.6994 148.701 15.1129 148.701 15.6702C148.701 16.2096 148.802 16.6192 149.005 16.8992C149.211 17.1766 149.502 17.3153 149.88 17.3153C150.252 17.3153 150.54 17.1791 150.743 16.9069C150.948 16.6321 151.051 16.2199 151.051 15.6702ZM155.874 17.8199H155.15V14.1254H153.671C153.663 14.3385 153.655 14.544 153.648 14.7418C153.64 14.937 153.632 15.1142 153.624 15.2734C153.609 15.6767 153.582 16.0144 153.544 16.2866C153.508 16.5589 153.461 16.7772 153.405 16.9416C153.348 17.1111 153.285 17.2433 153.216 17.3384C153.149 17.4334 153.074 17.5194 152.989 17.5965C152.901 17.6735 152.808 17.7313 152.708 17.7699C152.607 17.8084 152.494 17.8277 152.369 17.8277C152.327 17.8277 152.275 17.8264 152.211 17.8238C152.146 17.8212 152.101 17.8199 152.076 17.8199V17.1881H152.114C152.132 17.1881 152.15 17.1894 152.168 17.192C152.189 17.1946 152.212 17.1958 152.238 17.1958C152.299 17.1958 152.36 17.1868 152.419 17.1689C152.478 17.1509 152.53 17.1175 152.577 17.0687C152.705 16.9429 152.799 16.7233 152.858 16.4099C152.917 16.094 152.959 15.6535 152.985 15.0885C152.995 14.8779 153.004 14.6288 153.012 14.3411C153.022 14.0534 153.031 13.7786 153.039 13.5167H155.874V17.8199ZM160.324 17.8199H159.6V15.8821H157.65V17.8199H156.926V13.5167H157.65V15.258H159.6V13.5167H160.324V17.8199ZM163.24 17.9201C162.555 17.9201 162.022 17.7275 161.642 17.3422C161.264 16.9544 161.075 16.4048 161.075 15.6933C161.075 14.9922 161.259 14.4348 161.626 14.0213C161.993 13.6053 162.474 13.3972 163.067 13.3972C163.334 13.3972 163.57 13.4358 163.776 13.5128C163.981 13.5899 164.161 13.7106 164.315 13.8749C164.469 14.0393 164.588 14.2409 164.67 14.4798C164.752 14.7161 164.793 15.0063 164.793 15.3505V15.7434H161.811C161.811 16.2443 161.937 16.6269 162.189 16.8915C162.44 17.156 162.788 17.2883 163.233 17.2883C163.392 17.2883 163.547 17.2703 163.699 17.2344C163.853 17.1984 163.992 17.1522 164.115 17.0957C164.246 17.0366 164.356 16.9801 164.446 16.9262C164.536 16.8697 164.611 16.817 164.67 16.7682H164.712V17.558C164.627 17.5914 164.522 17.6337 164.396 17.6851C164.27 17.7339 164.157 17.7724 164.057 17.8007C163.916 17.8392 163.787 17.8687 163.672 17.8893C163.559 17.9098 163.415 17.9201 163.24 17.9201ZM164.088 15.1887C164.083 14.9935 164.06 14.8252 164.019 14.684C163.978 14.5427 163.918 14.4233 163.841 14.3257C163.757 14.2178 163.647 14.1356 163.514 14.0791C163.383 14.0226 163.22 13.9944 163.025 13.9944C162.832 13.9944 162.668 14.0239 162.532 14.083C162.398 14.1395 162.276 14.223 162.166 14.3334C162.058 14.4464 161.975 14.5723 161.919 14.7109C161.862 14.8471 161.827 15.0063 161.811 15.1887H164.088ZM168.923 17.8199H168.199V15.8821H166.249V17.8199H165.525V13.5167H166.249V15.258H168.199V13.5167H168.923V17.8199ZM173.369 17.8199H172.644V15.8821H170.695V17.8199H169.971V13.5167H170.695V15.258H172.644V13.5167H173.369V17.8199ZM177.957 15.6702C177.957 16.3945 177.782 16.9544 177.433 17.3499C177.084 17.7429 176.619 17.9394 176.039 17.9394C175.44 17.9394 174.969 17.7365 174.625 17.3307C174.283 16.9223 174.112 16.3688 174.112 15.6702C174.112 14.9511 174.288 14.3925 174.64 13.9944C174.994 13.5963 175.461 13.3972 176.039 13.3972C176.619 13.3972 177.084 13.5963 177.433 13.9944C177.782 14.3899 177.957 14.9485 177.957 15.6702ZM177.21 15.6702C177.21 15.1129 177.108 14.6994 176.905 14.4297C176.702 14.1575 176.414 14.0213 176.039 14.0213C175.661 14.0213 175.369 14.1575 175.164 14.4297C174.961 14.6994 174.86 15.1129 174.86 15.6702C174.86 16.2096 174.961 16.6192 175.164 16.8992C175.369 17.1766 175.661 17.3153 176.039 17.3153C176.411 17.3153 176.699 17.1791 176.902 16.9069C177.107 16.6321 177.21 16.2199 177.21 15.6702ZM182.692 17.8199H181.975V14.4374L180.943 16.6334H180.403L179.379 14.4374V17.8199H178.701V13.5167H179.575L180.708 15.9052L181.802 13.5167H182.692V17.8199ZM189.896 18.8524H189.222V17.8084H186.386V18.8524H185.712V17.2035H185.997C186.241 16.8029 186.44 16.2802 186.594 15.6356C186.751 14.9883 186.829 14.282 186.829 13.5167H189.468V17.2035H189.896V18.8524ZM188.744 17.2035V14.1254H187.511C187.478 14.7675 187.389 15.3543 187.246 15.886C187.104 16.4151 186.926 16.8542 186.71 17.2035H188.744ZM192.481 17.9201C191.795 17.9201 191.262 17.7275 190.882 17.3422C190.505 16.9544 190.316 16.4048 190.316 15.6933C190.316 14.9922 190.5 14.4348 190.867 14.0213C191.234 13.6053 191.715 13.3972 192.308 13.3972C192.575 13.3972 192.811 13.4358 193.017 13.5128C193.222 13.5899 193.402 13.7106 193.556 13.8749C193.71 14.0393 193.828 14.2409 193.91 14.4798C193.993 14.7161 194.034 15.0063 194.034 15.3505V15.7434H191.052C191.052 16.2443 191.178 16.6269 191.429 16.8915C191.681 17.156 192.029 17.2883 192.473 17.2883C192.633 17.2883 192.788 17.2703 192.94 17.2344C193.094 17.1984 193.232 17.1522 193.356 17.0957C193.487 17.0366 193.597 16.9801 193.687 16.9262C193.777 16.8697 193.851 16.817 193.91 16.7682H193.953V17.558C193.868 17.5914 193.763 17.6337 193.637 17.6851C193.511 17.7339 193.398 17.7724 193.298 17.8007C193.157 17.8392 193.028 17.8687 192.913 17.8893C192.8 17.9098 192.656 17.9201 192.481 17.9201ZM193.329 15.1887C193.324 14.9935 193.3 14.8252 193.259 14.684C193.218 14.5427 193.159 14.4233 193.082 14.3257C192.997 14.2178 192.888 14.1356 192.755 14.0791C192.624 14.0226 192.461 13.9944 192.265 13.9944C192.073 13.9944 191.908 14.0239 191.772 14.083C191.639 14.1395 191.517 14.223 191.406 14.3334C191.298 14.4464 191.216 14.5723 191.16 14.7109C191.103 14.8471 191.067 15.0063 191.052 15.1887H193.329ZM198.164 17.8199H197.447V14.6108L195.421 17.8199H194.766V13.5167H195.482V16.6757L197.486 13.5167H198.164V17.8199ZM197.84 11.5172C197.84 11.7381 197.813 11.9397 197.759 12.122C197.705 12.3018 197.628 12.4534 197.528 12.5766C197.412 12.7128 197.281 12.8155 197.135 12.8848C196.989 12.9516 196.801 12.985 196.573 12.985C196.362 12.985 196.177 12.9503 196.018 12.881C195.861 12.8091 195.729 12.7076 195.621 12.5766C195.516 12.4482 195.436 12.2941 195.382 12.1143C195.328 11.9346 195.301 11.7355 195.301 11.5172H195.925C195.925 11.8639 195.979 12.1143 196.087 12.2684C196.195 12.42 196.357 12.4957 196.573 12.4957C196.775 12.4957 196.933 12.4213 197.046 12.2723C197.159 12.1208 197.216 11.8691 197.216 11.5172H197.84ZM200.922 17.9163C200.627 17.9163 200.356 17.8713 200.109 17.7814C199.863 17.689 199.651 17.5503 199.474 17.3653C199.296 17.1804 199.159 16.948 199.061 16.668C198.964 16.3855 198.915 16.0542 198.915 15.6741C198.915 15.2965 198.965 14.9704 199.065 14.6955C199.168 14.4207 199.304 14.1896 199.474 14.0021C199.643 13.8146 199.854 13.6708 200.105 13.5706C200.36 13.4679 200.632 13.4165 200.922 13.4165C201.158 13.4165 201.386 13.4499 201.604 13.5167C201.825 13.5834 202.021 13.6605 202.193 13.7478V14.5607H202.151C202.1 14.517 202.033 14.467 201.951 14.4104C201.871 14.3539 201.774 14.2962 201.658 14.2371C201.558 14.1857 201.44 14.1408 201.303 14.1022C201.167 14.0637 201.036 14.0445 200.911 14.0445C200.536 14.0445 200.234 14.187 200.005 14.4721C199.779 14.7546 199.666 15.1553 199.666 15.6741C199.666 16.1826 199.775 16.5794 199.994 16.8645C200.215 17.147 200.52 17.2883 200.911 17.2883C201.147 17.2883 201.372 17.2395 201.585 17.1419C201.798 17.0443 201.987 16.9185 202.151 16.7644H202.193V17.5772C202.122 17.6106 202.032 17.6517 201.924 17.7005C201.816 17.7467 201.718 17.7814 201.631 17.8045C201.508 17.8405 201.397 17.8675 201.3 17.8854C201.202 17.906 201.076 17.9163 200.922 17.9163ZM206 14.1523H204.536V17.8199H203.811V14.1523H202.348V13.5167H206V14.1523ZM209.914 16.5178C209.914 16.7258 209.874 16.9107 209.794 17.0726C209.715 17.2318 209.606 17.3653 209.467 17.4732C209.292 17.6093 209.109 17.7018 208.916 17.7506C208.726 17.7968 208.497 17.8199 208.23 17.8199H206.539V13.5167H208.119C208.435 13.5167 208.666 13.5269 208.812 13.5475C208.958 13.5655 209.104 13.6143 209.247 13.6939C209.399 13.7761 209.511 13.8852 209.583 14.0213C209.655 14.1575 209.69 14.3193 209.69 14.5068C209.69 14.7122 209.634 14.8972 209.521 15.0615C209.408 15.2233 209.258 15.3492 209.07 15.4391L209.089 15.466C209.323 15.5251 209.518 15.6445 209.675 15.8243C209.834 16.0041 209.914 16.2353 209.914 16.5178ZM208.947 14.6185C208.947 14.5209 208.93 14.4361 208.897 14.3642C208.866 14.2923 208.811 14.2358 208.731 14.1947C208.639 14.1459 208.535 14.1177 208.419 14.11C208.306 14.0997 208.148 14.0945 207.945 14.0945H207.256V15.2734H208.088C208.265 15.2734 208.391 15.2657 208.465 15.2503C208.54 15.2323 208.622 15.1964 208.712 15.1424C208.797 15.0911 208.857 15.0217 208.893 14.9344C208.929 14.8471 208.947 14.7418 208.947 14.6185ZM209.167 16.5216C209.167 16.3752 209.145 16.2584 209.101 16.1711C209.06 16.0812 208.967 16.0015 208.824 15.9322C208.734 15.8885 208.637 15.8616 208.535 15.8513C208.432 15.841 208.289 15.8359 208.107 15.8359H207.256V17.2421H207.884C208.143 17.2421 208.345 17.2318 208.488 17.2112C208.632 17.1907 208.756 17.1496 208.858 17.088C208.966 17.0212 209.045 16.9441 209.093 16.8568C209.142 16.7695 209.167 16.6578 209.167 16.5216ZM214.075 17.8199H213.358V14.6108L211.332 17.8199H210.677V13.5167H211.393V16.6757L213.397 13.5167H214.075V17.8199ZM218.52 17.8199H217.804V14.6108L215.777 17.8199H215.123V13.5167H215.839V16.6757L217.842 13.5167H218.52V17.8199Z" fill="#303549"/>
<path d="M275.639 17.4091C275.318 17.4091 275.022 17.3552 274.752 17.2473C274.483 17.1395 274.251 16.9789 274.055 16.7654C273.859 16.552 273.707 16.2857 273.6 15.9666C273.492 15.6476 273.438 15.2812 273.438 14.8675C273.438 14.456 273.49 14.0973 273.593 13.7914C273.699 13.4855 273.852 13.2193 274.052 12.9926C274.248 12.7726 274.48 12.6053 274.748 12.4909C275.017 12.3743 275.317 12.316 275.649 12.316C275.814 12.316 275.968 12.3281 276.111 12.3523C276.257 12.3765 276.391 12.4073 276.514 12.4447C276.62 12.4777 276.728 12.5195 276.838 12.5701C276.95 12.6185 277.06 12.6724 277.168 12.7319V13.5207H277.115C277.058 13.4679 276.984 13.4041 276.894 13.3293C276.804 13.2545 276.694 13.1808 276.564 13.1081C276.438 13.0399 276.302 12.9838 276.154 12.9398C276.007 12.8958 275.836 12.8738 275.643 12.8738C275.434 12.8738 275.236 12.9167 275.049 13.0025C274.862 13.0883 274.698 13.2149 274.557 13.3821C274.418 13.5494 274.31 13.7595 274.233 14.0126C274.156 14.2656 274.118 14.5506 274.118 14.8675C274.118 15.2041 274.159 15.4946 274.24 15.7389C274.321 15.9809 274.432 16.1856 274.573 16.3528C274.71 16.5157 274.87 16.6389 275.055 16.7225C275.24 16.8039 275.436 16.8446 275.643 16.8446C275.832 16.8446 276.007 16.8215 276.168 16.7753C276.328 16.7291 276.471 16.6708 276.597 16.6004C276.718 16.5322 276.822 16.4628 276.91 16.3924C276.998 16.3198 277.068 16.2582 277.118 16.2076H277.168V16.9866C277.06 17.0372 276.958 17.0856 276.861 17.1318C276.766 17.178 276.651 17.2231 276.514 17.2671C276.371 17.3133 276.238 17.3486 276.115 17.3728C275.994 17.397 275.835 17.4091 275.639 17.4091ZM280.762 15.4781C280.762 16.0987 280.613 16.5784 280.313 16.9173C280.014 17.2539 279.616 17.4223 279.118 17.4223C278.606 17.4223 278.202 17.2484 277.907 16.9007C277.614 16.5509 277.468 16.0767 277.468 15.4781C277.468 14.862 277.619 14.3834 277.92 14.0423C278.224 13.7012 278.623 13.5306 279.118 13.5306C279.616 13.5306 280.014 13.7012 280.313 14.0423C280.613 14.3812 280.762 14.8598 280.762 15.4781ZM280.122 15.4781C280.122 15.0006 280.035 14.6463 279.861 14.4153C279.687 14.182 279.44 14.0654 279.118 14.0654C278.795 14.0654 278.545 14.182 278.369 14.4153C278.195 14.6463 278.108 15.0006 278.108 15.4781C278.108 15.9402 278.195 16.2912 278.369 16.5311C278.545 16.7687 278.795 16.8875 279.118 16.8875C279.438 16.8875 279.684 16.7709 279.858 16.5377C280.034 16.3022 280.122 15.949 280.122 15.4781ZM284.264 17.3199H283.502L282.607 15.927L281.686 17.3199H280.983L282.264 15.4913L280.997 13.633H281.759L282.647 15.0127L283.558 13.633H284.264L282.99 15.4484L284.264 17.3199ZM287.839 15.3791C287.839 15.993 287.692 16.4826 287.397 16.8479C287.104 17.211 286.733 17.3926 286.284 17.3926C286.102 17.3926 285.94 17.3717 285.799 17.3298C285.658 17.288 285.514 17.2231 285.367 17.1351V18.6799H284.746V13.633H285.367V14.0192C285.521 13.8805 285.691 13.765 285.878 13.6726C286.068 13.578 286.273 13.5306 286.496 13.5306C286.918 13.5306 287.247 13.6979 287.483 14.0324C287.72 14.3668 287.839 14.8158 287.839 15.3791ZM287.199 15.4484C287.199 15.0281 287.132 14.7024 286.997 14.4714C286.863 14.2381 286.645 14.1215 286.344 14.1215C286.168 14.1215 285.997 14.1611 285.832 14.2403C285.669 14.3173 285.514 14.4175 285.367 14.5407V16.6301C285.53 16.7093 285.668 16.7632 285.783 16.7918C285.899 16.8204 286.033 16.8347 286.182 16.8347C286.503 16.8347 286.753 16.717 286.931 16.4815C287.11 16.2461 287.199 15.9017 287.199 15.4484ZM290.542 16.4122V15.389C290.395 15.4022 290.208 15.4209 289.981 15.4451C289.757 15.4671 289.575 15.499 289.437 15.5408C289.272 15.5914 289.135 15.6696 289.027 15.7752C288.92 15.8786 288.866 16.0238 288.866 16.2109C288.866 16.4221 288.925 16.5817 289.044 16.6895C289.163 16.7973 289.337 16.8512 289.565 16.8512C289.761 16.8512 289.938 16.8094 290.097 16.7258C290.255 16.64 290.404 16.5355 290.542 16.4122ZM290.542 16.9272C290.492 16.9646 290.424 17.0174 290.338 17.0856C290.254 17.1516 290.173 17.2044 290.094 17.244C289.984 17.3012 289.877 17.3453 289.773 17.3761C289.672 17.4069 289.529 17.4223 289.344 17.4223C289.192 17.4223 289.048 17.3937 288.912 17.3365C288.775 17.2792 288.656 17.1989 288.552 17.0955C288.453 16.9943 288.374 16.8699 288.314 16.7225C288.255 16.5729 288.225 16.4155 288.225 16.2505C288.225 15.9952 288.279 15.7785 288.387 15.6002C288.495 15.4198 288.665 15.2768 288.899 15.1711C289.106 15.0765 289.35 15.0116 289.631 14.9764C289.913 14.939 290.217 14.9115 290.542 14.8939V14.775C290.542 14.6298 290.52 14.5132 290.476 14.4252C290.432 14.3349 290.371 14.2656 290.292 14.2172C290.212 14.1666 290.116 14.1336 290.001 14.1182C289.887 14.1006 289.769 14.0918 289.648 14.0918C289.505 14.0918 289.337 14.1138 289.143 14.1578C288.949 14.1996 288.756 14.2612 288.562 14.3426H288.526V13.7122C288.64 13.6792 288.804 13.6429 289.018 13.6033C289.231 13.5637 289.442 13.5439 289.651 13.5439C289.904 13.5439 290.118 13.5637 290.292 13.6033C290.465 13.6429 290.622 13.7144 290.76 13.8178C290.895 13.919 290.995 14.05 291.061 14.2106C291.127 14.3712 291.16 14.5671 291.16 14.7981V17.3199H290.542V16.9272ZM294.946 17.3199H294.325V15.6597H292.655V17.3199H292.034V13.633H292.655V15.1249H294.325V13.633H294.946V17.3199ZM298.755 17.3199H298.141V14.5704L296.405 17.3199H295.844V13.633H296.457V16.3396L298.174 13.633H298.755V17.3199ZM302.346 14.1776H301.092V17.3199H300.471V14.1776H299.217V13.633H302.346V14.1776ZM305.601 16.1779C305.601 16.3561 305.564 16.5179 305.492 16.6631C305.421 16.8083 305.324 16.9261 305.201 17.0163C305.056 17.1263 304.901 17.2044 304.736 17.2506C304.571 17.2968 304.358 17.3199 304.099 17.3199H302.808V13.633H303.429V15.0688H304.115C304.393 15.0688 304.607 15.0831 304.759 15.1117C304.913 15.1403 305.066 15.2107 305.218 15.323C305.345 15.4176 305.441 15.5386 305.505 15.6861C305.569 15.8335 305.601 15.9974 305.601 16.1779ZM304.96 16.1878C304.96 16.0756 304.94 15.9776 304.901 15.894C304.863 15.8082 304.801 15.7389 304.713 15.6861C304.62 15.631 304.515 15.598 304.396 15.587C304.279 15.576 304.111 15.5705 303.891 15.5705H303.429V16.8248H303.878C304.098 16.8248 304.268 16.816 304.389 16.7984C304.51 16.7786 304.615 16.7423 304.703 16.6895C304.793 16.6323 304.858 16.5652 304.898 16.4881C304.939 16.4089 304.96 16.3088 304.96 16.1878Z" fill="#303549"/>
<path d="M243.1 66.3001C242.7 66.1001 242.4 65.9 242 65.7C241.7 65.6 241.7 65.5001 241.7 65.4001V65.3001C242 65.3001 242.4 65.2 242.7 65C242.2 64.8 242.1 64.1 242.1 63.5C242.1 62.9 241.7 62.5 241.1 62.5C240.9 62.5 240.7 62.5 240.5 62.6C240.5 62.8 240.5 63.1 240.4 63.3V63.4001C240.6 63.7001 240.6 64.1001 240.5 64.4001C240.4 64.7001 240.3 65 240 65.2C240 65.2 240 65.2001 240 65.3001L240.4 65.4001V65.5C240.4 65.6 240.4 65.7001 240.1 65.8001L239.7 66V66.3001L239.9 66.4001C240.6 66.7001 241.2 67.0001 241.8 67.4001L241.9 67.5C242.3 67.5 242.7 67.4001 243.1 67.3001C243.2 67.3001 243.2 67.3 243.2 67.2C243.4 66.9 243.3 66.6001 243.1 66.3001ZM234.7 67.3001C235.3 66.9001 236 66.6001 236.7 66.3001L236.9 66.2V65.9001L236.6 65.7C236.3 65.6 236.3 65.5001 236.3 65.4001V65.1C236.4 65 236.4 64.9001 236.4 64.9001C236.3 64.7001 236.2 64.6001 236.2 64.4001C236.1 64.1001 236.2 63.7001 236.3 63.4001C236.3 63.2001 236.3 62.9 236.2 62.6C236 62.5 235.8 62.4 235.6 62.5C235.3 62.5 235 62.6001 234.8 62.7001C234.6 62.9001 234.6 63.1 234.6 63.3C234.6 63.5 234.6 63.7001 234.7 63.9001C234.6 63.9001 234.6 64.1001 234.6 64.3001C234.6 64.5001 234.8 64.7 234.9 64.6C234.9 64.8 235 65 235.1 65.1V65.4001C235.1 65.5001 235.1 65.6 234.8 65.7C234.4 65.8 234 66.0001 233.7 66.3001C233.5 66.6001 233.4 66.8 233.4 67.1C233.4 67.1 233.4 67.2 233.5 67.2C233.9 67.3 234.3 67.4001 234.7 67.4001V67.3001ZM239.8 66.7C239.4 66.5 239.3 66.4 239.3 66.2V65.7C239.5 65.4 239.6 65.1001 239.6 64.9001C239.7 64.9001 240 64.7001 240.1 64.3001C240.2 63.9001 240.1 63.6 239.9 63.6C239.7 63.6 240 62.8 240 62.5C240 62 239.8 61.6 239.3 61.6C239.2 61.4 238.9 61.3 238.4 61.3C237.9 61.3 237.5 61.6 236.9 61.6C236.6 61.6 236.6 62 236.6 62.5C236.6 63 236.7 63.7001 236.7 63.7001C236.7 63.7001 236.4 64.1001 236.5 64.4001C236.6 64.8001 236.8 65 237 65C237 65.3 237.1 65.6001 237.3 65.8001V66.3001C237.3 66.5001 237.3 66.6001 236.8 66.8001C236.2 67.0001 235.6 67.4 235 67.7C234.7 68.1 234.6 68.6 234.5 69.1C234.5 69.2 234.5 69.2001 234.6 69.3001C235.8 69.6001 237 69.7 238.2 69.6C239.4 69.6 240.7 69.5001 241.9 69.3001C242 69.3001 242 69.2 242 69.1C242 68.6 241.8 68.1 241.6 67.7C241.1 67.3 240.5 67 239.8 66.7Z" fill="white"/>
<path d="M262.2 15.2C262.2 10.1 266.4 5.90002 271.5 5.90002H305.6C310.7 5.90002 314.9 10.1 314.9 15.2C314.9 20.3 310.7 24.5 305.6 24.5H271.5C266.3 24.5 262.2 20.4 262.2 15.2Z" stroke="#303549" stroke-width="0.5" stroke-miterlimit="10"/>
<path d="M91.3 65.6C91.6314 65.6 91.9 65.3314 91.9 65C91.9 64.6687 91.6314 64.4 91.3 64.4C90.9686 64.4 90.7 64.6687 90.7 65C90.7 65.3314 90.9686 65.6 91.3 65.6Z" fill="#8C99B2"/>
<path d="M85.5 63V61.9L84.2 61.5C84.1 61.3 84 61 83.9 60.8L84.6 59.6L83.8 58.8L82.5 59.5C82.3 59.4 82 59.3 81.8 59.2L81.4 57.9H80.3L79.9 59.2C79.7 59.3 79.4 59.4 79.2 59.5L78 58.9L77.2 59.7L77.9 60.9C77.8 61.1 77.7 61.4 77.6 61.6L76.3 62V63L77.6 63.4C77.7 63.6 77.8 63.9 77.9 64.1L77.2 65.3L78 66.1L79.3 65.5C79.5 65.6 79.8 65.7 80 65.8L80.4 67.1H81.5L81.9 65.8C82.2 65.7 82.4 65.6 82.6 65.5L83.8 66.2L84.6 65.4L83.9 64.1C84 63.9 84.1 63.6 84.2 63.4L85.5 63ZM82.5 62.4C82.5 63.3 81.8 64.1 80.8 64.1C79.9 64.1 79.1 63.4 79.1 62.4C79.1 61.5 79.8 60.7 80.8 60.7C81.8 60.8 82.5 61.5 82.5 62.4C82.5 62.5 82.5 62.5 82.5 62.4Z" fill="white"/>
<path d="M79.3 68.5V68L78.6 67.8C78.6 67.7 78.5 67.6 78.4 67.5L78.7 66.9L78.3 66.5L77.7 66.8C77.6 66.7 77.5 66.7 77.4 66.6L77.2 65.9H76.7L76.5 66.6C76.4 66.6 76.3 66.7 76.1 66.8L75.5 66.5L75.1 66.9L75.4 67.5C75.3 67.6 75.3 67.7 75.2 67.8L74.5 68V68.6L75.2 68.8C75.2 68.9 75.3 69 75.4 69.1L75.1 69.7L75.5 70.1L76.1 69.8C76.2 69.9 76.3 69.9 76.5 70L76.7 70.7H77.3L77.5 70C77.6 70 77.7 69.9 77.8 69.8L78.4 70.1L78.8 69.7L78.5 69C78.6 68.9 78.6 68.8 78.7 68.7L79.3 68.5ZM77.8 68.3C77.8 68.8 77.4 69.1 77 69.1C76.5 69.1 76.2 68.7 76.2 68.3C76.1 67.8 76.5 67.4 77 67.4C77.5 67.4 77.9 67.7 77.9 68.2C77.8 68.1 77.8 68.2 77.8 68.3Z" fill="white"/>
</svg>
