<svg xmlns="http://www.w3.org/2000/svg" viewBox="0 0 11.17 13.19"><defs><style>.cls-1,.cls-2,.cls-3,.cls-4{fill:#fff;}.cls-2{opacity:0.75;}.cls-3{opacity:0.5;}.cls-4{opacity:0.25;}</style></defs><title>up-icon</title><g id="Слой_2" data-name="Слой 2"><g id="Layer_1" data-name="Layer 1"><path class="cls-1" d="M11,7.3l-.19-.18a.42.42,0,0,0-.62,0L5.58,11.76.94,7.12a.42.42,0,0,0-.62,0L.13,7.3a.45.45,0,0,0,0,.63l5.14,5.13a.42.42,0,0,0,.31.13.44.44,0,0,0,.32-.13L11,7.93A.45.45,0,0,0,11,7.3Z"/><path class="cls-2" d="M9.25,5.77l-.12-.12a.29.29,0,0,0-.42,0L5.61,8.74,2.52,5.65a.29.29,0,0,0-.42,0L2,5.77a.29.29,0,0,0,0,.42L5.4,9.61a.3.3,0,0,0,.21.09.31.31,0,0,0,.22-.09L9.25,6.19A.31.31,0,0,0,9.25,5.77Z"/><path class="cls-3" d="M3.83,4.15A1.76,1.76,0,1,1,5.58,5.9,1.75,1.75,0,0,1,3.83,4.15Z"/><path class="cls-4" d="M4.71.88a.88.88,0,1,1,.87.87A.87.87,0,0,1,4.71.88Z"/></g></g></svg>