<svg xmlns="http://www.w3.org/2000/svg" viewBox="0 0 11.17 13.19"><defs><style>.cls-1,.cls-2,.cls-3,.cls-4{fill:#fff;}.cls-1{opacity:0.25;}.cls-2{opacity:0.5;}.cls-3{opacity:0.75;}</style></defs><title>down-icon</title><g id="Слой_2" data-name="Слой 2"><g id="Layer_1" data-name="Layer 1"><path class="cls-1" d="M.13,5.89l.18.18a.43.43,0,0,0,.63,0L5.58,1.43l4.65,4.64a.42.42,0,0,0,.62,0L11,5.89a.45.45,0,0,0,0-.63L5.9.13A.42.42,0,0,0,5.58,0a.42.42,0,0,0-.31.13L.13,5.26A.45.45,0,0,0,.13,5.89Z"/><path class="cls-2" d="M1.92,7.42,2,7.54a.29.29,0,0,0,.42,0l3.09-3.1,3.1,3.1a.29.29,0,0,0,.42,0l.12-.12a.29.29,0,0,0,0-.42L5.77,3.58a.31.31,0,0,0-.22-.09.3.3,0,0,0-.21.09L1.92,7A.29.29,0,0,0,1.92,7.42Z"/><path class="cls-3" d="M7.34,9A1.76,1.76,0,1,1,5.58,7.29,1.75,1.75,0,0,1,7.34,9Z"/><path class="cls-4" d="M6.46,12.31a.88.88,0,1,1-.88-.87A.87.87,0,0,1,6.46,12.31Z"/></g></g></svg>