<svg xmlns="http://www.w3.org/2000/svg" viewBox="0 0 23.42 23.42">
  <title>download</title>
  <circle cx="11.71" cy="11.71" r="11.46" style="fill:none;stroke-miterlimit:10;stroke-width:0.5px"/>
  <circle cx="11.71" cy="11.71" r="10.21" style="opacity:0.1"/>
  <circle cx="11.71" cy="11.71" r="9.08" style="opacity:0.1"/>
  <circle cx="11.71" cy="11.71" r="7.94" style="opacity:0.1"/>
  <circle cx="11.71" cy="11.71" r="6.81" style="opacity:0.1"/>
  <polygon points="12.31 11.65 10.55 11.65 10.55 13.11 9.75 13.11 11.47 14.75 13.17 13.11 12.31 13.11 12.31 11.65" />
  <path d="M16.46,10.58a2.4,2.4,0,0,0-1-.7,3.43,3.43,0,0,0-6.38-1H9A2.19,2.19,0,0,0,6.86,10.8a2,2,0,0,0,.66,3.95H9.76L11,16A.68.68,0,0,0,12,16l1.24-1.2h1.65a2.52,2.52,0,0,0,1.61-4.16ZM14.7,14.07H12.93l-1.44,1.39L10,14.07H7.52a1.35,1.35,0,1,1,0-2.7h0a1.65,1.65,0,0,1,0-.32A1.51,1.51,0,0,1,9,9.55a1.43,1.43,0,0,1,.46.07,2.75,2.75,0,0,1,5.35.79,1.84,1.84,0,0,1-.14,3.66Z" />
</svg>