<svg xmlns="http://www.w3.org/2000/svg" viewBox="0 0 21.17 20.94">
  <rect x="0.12" y="-0.12" width="20.94" height="21.17" rx="10.47" ry="10.47" transform="translate(21.05 -0.12) rotate(90)" style="fill:#da070e"/>
  <path d="M8.24,8.5h5c0,.09,0,.17,0,.25-.06.6-.13,1.19-.19,1.79-.12,1.08-.24,2.16-.37,3.23a.54.54,0,0,1,0,.22.28.28,0,0,1-.28.19H9.13c-.17,0-.28-.11-.31-.31s-.05-.42-.08-.63c-.08-.8-.17-1.61-.26-2.41S8.32,9.4,8.25,8.69A1.15,1.15,0,0,1,8.24,8.5Zm1.69,4.63v0c-.07-.64-.15-1.29-.22-1.93l-.12-1.09c0-.3-.06-.61-.1-.91A.21.21,0,0,0,9.26,9c-.15,0-.23.12-.21.29l.24,2.26c.06.54.12,1.09.19,1.63a.23.23,0,0,0,.24.22A.23.23,0,0,0,9.93,13.13Zm2.53-3.87c0-.18-.08-.28-.2-.29A.24.24,0,0,0,12,9.2l-.15,1.42-.27,2.46a.24.24,0,0,0,.19.29c.14,0,.24-.07.26-.23,0-.35.08-.69.11-1,.07-.62.13-1.24.2-1.85C12.38,9.91,12.42,9.57,12.46,9.26ZM11,11.18h0v-2A.23.23,0,0,0,10.7,9a.24.24,0,0,0-.18.26v3.94a.26.26,0,0,0,.19.2.23.23,0,0,0,.24-.13.45.45,0,0,0,0-.16Z" style="fill:#fdfcff"/>
  <path d="M9.71,7.35V6.76a.37.37,0,0,1,.41-.41h1.27a.38.38,0,0,1,.41.41v.55s0,0,0,0H13.2a.38.38,0,0,1,.37.23.4.4,0,0,1,0,.43.43.43,0,0,1-.37.16H8.31a.42.42,0,0,1-.4-.27.4.4,0,0,1,.14-.47.84.84,0,0,1,.27-.08H9.71Zm.57,0h.94v-.4h-.94Z" style="fill:#fdfcff"/>
  <rect x="1.86" y="1.65" width="17.45" height="17.64" rx="8.72" ry="8.72" transform="translate(21.05 -0.12) rotate(90)" style="fill:#fff;opacity:0.15"/>
  <rect x="3.61" y="3.41" width="13.96" height="14.11" rx="6.98" ry="6.98" transform="translate(21.05 -0.12) rotate(90)" style="fill:#fff;opacity:0.25"/>
  <rect x="5.35" y="5.18" width="10.47" height="10.59" rx="5.23" ry="5.23" transform="translate(21.05 -0.12) rotate(90)" style="fill:#fff;opacity:0.2"/>
</svg>