<svg xmlns="http://www.w3.org/2000/svg" viewBox="0 0 23.42 23.42">
  <title>uploud</title>
  <circle cx="11.71" cy="11.71" r="11.46" style="fill:none;stroke-miterlimit:10;stroke-width:0.5px"/>
  <circle cx="11.71" cy="11.71" r="10.21" style="opacity:0.1"/>
  <circle cx="11.71" cy="11.71" r="9.08" style="opacity:0.1"/>
  <circle cx="11.71" cy="11.71" r="7.94" style="opacity:0.1"/>
  <circle cx="11.71" cy="11.71" r="6.81" style="opacity:0.1"/>
  <polygon points="11.15 17.11 12.78 17.11 12.78 15.77 13.52 15.77 11.93 14.26 10.37 15.77 11.15 15.77 11.15 17.11" style="fill:#fff"/>
  <path d="M14.89,14.59H15a2.31,2.31,0,0,0,2.06-2.31,2.29,2.29,0,0,0-.57-1.52,2.38,2.38,0,0,0-.92-.65h0a3.17,3.17,0,0,0-3.11-2.57A3.16,3.16,0,0,0,9.71,9.17h0a2,2,0,0,0-2,1.78h0a1.87,1.87,0,0,0,.65,3.64h2.27l1.35-1.3,1.32,1.3M14.88,14H13.26l-1.09-1.1a.33.33,0,0,0-.47,0L10.59,14H8.31A1.26,1.26,0,0,1,7,12.64a1.24,1.24,0,0,1,1.24-1.16h0a1.36,1.36,0,0,1,0-.29A1.39,1.39,0,0,1,9.67,9.8a1.23,1.23,0,0,1,.42.07h0A2.53,2.53,0,0,1,15,10.6h0A1.69,1.69,0,0,1,14.88,14Z" style="fill:#fff"/>
</svg>