<svg xmlns="http://www.w3.org/2000/svg" viewBox="0 0 337.06 280.39"><title>upload-icon</title><polygon points="147.36 280.39 205.66 280.39 205.66 232.5 231.95 232.5 175.26 178.43 119.22 232.5 147.36 232.5 147.36 280.39" style="fill:#6ba4ef;opacity:0.1"/><path d="M285.6,87.45a0,0,0,0,1,0,0A90.61,90.61,0,0,0,109.29,61.23a.06.06,0,0,1-.07,0,49.63,49.63,0,0,0-64.69,47.28A50.48,50.48,0,0,0,45.65,119c-.37,0-.74,0-1.12,0A44.53,44.53,0,0,0,.09,160.67c-1.65,26,19.33,47.4,45.42,47.4h81.81l0,0,39.48-39.11a12,12,0,0,1,16.89.05l39,39.06,0,0H281l0-.17A60.66,60.66,0,0,0,285.6,87.45Z" style="fill:#6ba4ef;opacity:0.1"/></svg>