<svg xmlns="http://www.w3.org/2000/svg" viewBox="0 0 23.53 15.59">
  <title>Загрузить</title>
  <path d="M18.7,15.59a1,1,0,0,0,.3,0,5.13,5.13,0,0,0,1.25-9.87h0a7,7,0,0,0-2-3.72,7,7,0,0,0-11,1.67h-.1A4.45,4.45,0,0,0,2.77,7.56h0A4.14,4.14,0,0,0,0,11.48a4.18,4.18,0,0,0,4.2,4.11h5m0-1.39h-5a2.74,2.74,0,1,1-.06-5.48H4.2a2.81,2.81,0,0,1-.07-.65A3.06,3.06,0,0,1,7.18,5a3.12,3.12,0,0,1,.93.15h0A5.58,5.58,0,0,1,19,6.77h0a3.74,3.74,0,0,1-.29,7.42H15.11"/>
  <path d="M15.55,8l-2-2.54a.39.39,0,0,0-.61,0L10.88,8a.39.39,0,0,0,.31.64h.88v3.06a.37.37,0,0,0,.37.37H14a.37.37,0,0,0,.37-.37V8.65h.88A.39.39,0,0,0,15.55,8Z"/>
</svg>
