<svg xmlns="http://www.w3.org/2000/svg" viewBox="0 0 66.05 66.27"><defs><style>.cls-1{opacity:0.5;}.cls-2,.cls-3{fill:#272a38;}.cls-2{opacity:0.25;}</style></defs><title>Ресурс 1</title><g id="Слой_2" data-name="Слой 2"><g id="Layer_1" data-name="Layer 1"><g class="cls-1"><circle class="cls-2" cx="33.02" cy="33.21" r="33.02"/></g><path class="cls-3" d="M23.75,62.17,22.67,63a24.94,24.94,0,0,1-9.83-6.19H11s-4.5-4.15-5.89-7.42l-.93.44a33.14,33.14,0,0,0,57.29-.14L61,49.47c-1.42,3.26-5.87,7.37-5.87,7.37H53.27A25,25,0,0,1,43.44,63l-1.2-1a30.51,30.51,0,0,1-18.49.09Z"/><path class="cls-3" d="M42.58,4.3l.86-.68a25,25,0,0,1,9.83,6.19h1.82s4.72,4.36,6,7.66l.74-.35A33.15,33.15,0,0,0,3.87,17L5,17.52c1.26-3.3,6-7.71,6-7.71h1.82a24.94,24.94,0,0,1,9.83-6.19l.74.59a30.51,30.51,0,0,1,19.17.09Z"/></g></g></svg>