<svg width="13" height="14" viewBox="0 0 13 14" fill="none" xmlns="http://www.w3.org/2000/svg">
<path d="M6.5 0C6.22282 0 5.89062 0.0927711 5.78906 0.236145C5.71924 0.333133 5.58594 4.31807 5.58594 4.31807H4.63802C4.53646 4.31807 4.43278 4.36446 4.38411 4.45301C4.33545 4.54157 4.34391 4.65542 4.40104 4.73976C5.13525 5.82349 6.28206 6.87771 6.33073 6.91566C6.3794 6.95361 6.43864 6.96627 6.5 6.96627C6.55925 6.96627 6.61849 6.95572 6.66927 6.91566C6.71794 6.87771 7.86263 5.82349 8.59896 4.73976C8.65609 4.65542 8.66455 4.54157 8.61589 4.45301C8.56722 4.36446 8.48047 4.31807 8.37891 4.31807H7.41406C7.41406 4.31807 7.24691 0.333133 7.17708 0.236145C7.07552 0.0927711 6.77718 0 6.5 0ZM8.10807 1.24819C8.13135 1.55392 8.14616 1.93133 8.17578 2.39518C10.3424 3.10151 11.9167 5.12982 11.9167 7.52289C11.9167 10.5 9.48763 12.9205 6.5 12.9205C3.51237 12.9205 1.08333 10.5 1.08333 7.52289C1.08333 5.13193 2.65967 3.10151 4.82422 2.39518C4.84749 1.93343 4.85596 1.56867 4.875 1.26506C2.07357 1.98614 0 4.50994 0 7.52289C0 11.0946 2.91569 14 6.5 14C10.0843 14 13 11.0946 13 7.52289C13 4.50361 10.918 1.96295 8.10807 1.24819Z" fill="#606580"/>
</svg>
