<svg width="13" height="14" viewBox="0 0 13 14" fill="none" xmlns="http://www.w3.org/2000/svg">
<path d="M6.5 0C2.91579 0 0 2.89854 0 6.46154C0 8.89861 1.36737 11.019 3.37695 12.1185C3.30166 11.9484 3.25 11.7706 3.25 11.5822C3.25 11.3598 3.30567 11.1383 3.41292 10.9407C3.42159 10.9245 3.43545 10.9126 3.44466 10.8965C2.02116 9.92671 1.08333 8.30308 1.08333 6.46154C1.08333 3.49246 3.51325 1.07692 6.5 1.07692C9.48675 1.07692 11.9167 3.49246 11.9167 6.46154C11.9167 8.30308 10.9778 9.92566 9.55428 10.8954C9.56403 10.9121 9.57893 10.9255 9.58813 10.9428C9.6943 11.1388 9.75 11.3598 9.75 11.5822C9.75 11.7701 9.6978 11.9479 9.62305 12.1175C11.6321 11.0179 13 8.89861 13 6.46154C13 2.89854 10.0842 0 6.5 0ZM6.50106 5.92308C6.2221 5.92308 5.92689 6.02066 5.82397 6.16496C5.75356 6.26242 5.55208 11.3077 5.55208 11.3077H4.61051C4.50814 11.3077 4.41488 11.364 4.36613 11.4528C4.31792 11.5422 4.32301 11.6507 4.37988 11.7347C5.12142 12.8229 6.27826 13.9029 6.32756 13.9411C6.37847 13.981 6.43933 14 6.5 14C6.56121 14 6.62261 13.9799 6.67244 13.9411C6.72119 13.9023 7.87858 12.8229 8.62012 11.7347C8.67753 11.6501 8.68208 11.5417 8.63387 11.4528C8.58566 11.3634 8.49134 11.3077 8.38843 11.3077H7.44792C7.44792 11.3077 7.28822 6.26296 7.21834 6.16496C7.11488 6.02066 6.78056 5.92308 6.50106 5.92308Z" fill="#606580"/>
</svg>
