<svg xmlns="http://www.w3.org/2000/svg" viewBox="0 0 16 16" fill="inherit">
    <g id="Слой_2" data-name="Слой 2">
        <g id="Слой_1-2" data-name="Слой 1">
            <path
                  d="M15.47,16H.53A.53.53,0,0,1,0,15.47V.53a.54.54,0,0,1,1.07,0v14.4h14.4a.54.54,0,0,1,0,1.07Z"/>
            <path d="M2.16,8.21H.86a.54.54,0,1,1,0-1.07h1.3a.54.54,0,0,1,0,1.07Z"/>
            <path d="M2.16,4H.86a.54.54,0,1,1,0-1.07h1.3A.54.54,0,0,1,2.16,4Z"/>
            <path d="M2.16,12.43H.86a.54.54,0,1,1,0-1.07h1.3a.54.54,0,0,1,0,1.07Z"/>
            <path
                  d="M11.76,11.47c-.61,0-1.46-.39-2.12-2.24l-1.39-4c-.36-1-.8-1.51-1.08-1.51s-.72.47-1.09,1.51L4.77,9a.53.53,0,0,1-1-.35L5.08,4.89c.64-1.84,1.49-2.22,2.09-2.22s1.45.38,2.09,2.22l1.39,4c.37,1,.82,1.53,1.11,1.53s.73-.48,1.1-1.53l.94-2.67a.53.53,0,1,1,1,.35l-.94,2.67C13.22,11.08,12.36,11.47,11.76,11.47Z"/>
        </g>
    </g>
</svg>
