<svg width="28" height="28" viewBox="0 0 28 28" fill="none" xmlns="http://www.w3.org/2000/svg">
<path d="M4.80151 21.2608V15.182H10.1292L12.7147 12.5322H16.2404V21.2608" stroke="#606580" stroke-miterlimit="10" stroke-linecap="round" stroke-linejoin="round"/>
<path d="M25.0155 21.2609H3.078V24.7679H25.0155V21.2609Z" stroke="#606580" stroke-miterlimit="10" stroke-linecap="round" stroke-linejoin="round"/>
<path d="M9.26748 2.94641H6.60364V15.182H9.26748V2.94641Z" stroke="#606580" stroke-miterlimit="10" stroke-linecap="round" stroke-linejoin="round"/>
<path d="M14.517 12.5322V5.59607H21.49V8.16788" stroke="#606580" stroke-miterlimit="10" stroke-linecap="round" stroke-linejoin="round"/>
<path d="M22.1166 17.7538H20.9413C19.8445 17.7538 18.9043 16.8186 18.9043 15.7275V10.1942C18.9043 9.10317 19.8445 8.16797 20.9413 8.16797H22.1166C23.2134 8.16797 24.1536 9.10317 24.1536 10.1942V15.7275C24.1536 16.8965 23.2134 17.7538 22.1166 17.7538Z" stroke="#606580" stroke-miterlimit="10" stroke-linecap="round" stroke-linejoin="round"/>
<path d="M19.7661 21.2608V17.7538" stroke="#606580" stroke-miterlimit="10" stroke-linecap="round" stroke-linejoin="round"/>
<path d="M23.2919 17.7538V21.2608" stroke="#606580" stroke-miterlimit="10" stroke-linecap="round" stroke-linejoin="round"/>
</svg>
