<?xml version="1.0" encoding="utf-8"?>
<!-- Generator: Adobe Illustrator 19.0.0, SVG Export Plug-In . SVG Version: 6.00 Build 0)  -->
<svg version="1.1" id="Слой_1" xmlns="http://www.w3.org/2000/svg" xmlns:xlink="http://www.w3.org/1999/xlink" x="0px" y="0px"
	 viewBox="0 0 595.3 841.9" style="enable-background:new 0 0 595.3 841.9;" xml:space="preserve">
<style type="text/css">
	.st0{fill:#A2E2FF;}
</style>
<g id="XMLID_142_">
	<path id="XMLID_92_" class="st0" d="M91.7,236.1l-6.6-5.7c-1,1.1-1.9,2.2-2.9,3.3l6.6,5.6C89.8,238.2,90.7,237.2,91.7,236.1z"/>
	<path id="XMLID_91_" class="st0" d="M103.3,223.6l-6.2-6.1c-1,1-2.1,2.1-3.1,3.2l6.3,6C101.3,225.6,102.3,224.6,103.3,223.6z"/>
	<path id="XMLID_90_" class="st0" d="M97.4,229.8l-6.4-5.9c-1,1.1-2,2.2-3,3.3l6.5,5.8C95.5,231.8,96.4,230.8,97.4,229.8z"/>
	<path id="XMLID_89_" class="st0" d="M75.6,256.2l-7.1-5.1c-0.9,1.2-3,4.2-3.9,5.4l8.5,3.1C74,258.5,74.8,257.3,75.6,256.2z"/>
	<path id="XMLID_88_" class="st0" d="M86.1,242.6l-6.7-5.5c-0.9,1.1-1.9,2.3-2.8,3.4l6.8,5.4C84.3,244.8,85.2,243.7,86.1,242.6z"/>
	<path id="XMLID_87_" class="st0" d="M80.8,249.3l-6.9-5.3c-0.9,1.2-1.8,2.3-2.7,3.5l7,5.2C79,251.6,79.9,250.4,80.8,249.3z"/>
	<path id="XMLID_86_" class="st0" d="M128.9,200.8l-5.4-6.8c-1.2,0.9-2.3,1.8-3.5,2.8l5.5,6.7C126.7,202.6,127.8,201.7,128.9,200.8z
		"/>
	<path id="XMLID_85_" class="st0" d="M127,191.3l5.3,6.9c1.1-0.9,6.4-4.8,7.5-5.6l-9.3-3.9C129.4,189.5,128.2,190.4,127,191.3z"/>
	<path id="XMLID_84_" class="st0" d="M109.5,217.6l-6-6.3c-1.1,1-2.1,2-3.2,3.1l6.1,6.2C107.4,219.6,108.4,218.6,109.5,217.6z"/>
	<path id="XMLID_83_" class="st0" d="M122.3,206.2l-5.6-6.7c-1.1,0.9-2.3,1.9-3.4,2.9l5.7,6.6C120.1,208,121.2,207.1,122.3,206.2z"
		/>
	<path id="XMLID_82_" class="st0" d="M115.8,211.8l-5.8-6.5c-1.1,1-2.2,2-3.3,3l5.9,6.4C113.7,213.7,114.7,212.7,115.8,211.8z"/>
	<path id="XMLID_81_" class="st0" d="M501.3,232.3l6.4-5.9c-1-1.1-2-2.2-3-3.2l-6.3,6C499.3,230.2,500.3,231.3,501.3,232.3z"/>
	<path id="XMLID_80_" class="st0" d="M495.4,226.1l6.2-6.1c-1-1-2.1-2.1-3.1-3.1l-6.1,6.2C493.3,224.1,494.4,225.1,495.4,226.1z"/>
	<path id="XMLID_79_" class="st0" d="M507,238.7l6.6-5.7c-1-1.1-1.9-2.2-2.9-3.3l-6.5,5.8C505.1,236.5,506.1,237.6,507,238.7z"/>
	<path id="XMLID_78_" class="st0" d="M489.2,220.1l6-6.3c-1.1-1-2.1-2-3.2-3l-5.9,6.4C487.2,218.2,488.2,219.1,489.2,220.1z"/>
	<path id="XMLID_77_" class="st0" d="M517.9,251.9l6.9-5.3c-0.9-1.2-1.8-2.3-2.7-3.5l-6.8,5.4C516.1,249.6,517,250.8,517.9,251.9z"
		/>
	<path id="XMLID_76_" class="st0" d="M512.6,245.2l6.7-5.5c-0.9-1.1-1.9-2.3-2.8-3.4l-6.7,5.6C510.7,243,511.6,244.1,512.6,245.2z"
		/>
	<path id="XMLID_75_" class="st0" d="M482.9,214.3l5.8-6.5c-1.1-1-2.2-2-3.3-2.9l-5.7,6.6C480.8,212.4,481.9,213.4,482.9,214.3z"/>
	<path id="XMLID_74_" class="st0" d="M468.2,191.1c-1.2-0.9-2.4-1.7-3.6-2.6l-9.1,4.1c1.2,0.8,6.3,4.6,7.5,5.4L468.2,191.1z"/>
	<path id="XMLID_73_" class="st0" d="M520.5,255.3c0.9,1.1,1.7,2.3,2.5,3.5l8.8-2.8c-0.9-1.2-3.4-4.7-4.3-5.9L520.5,255.3z"/>
	<path id="XMLID_72_" class="st0" d="M476.5,208.7l5.6-6.6c-1.1-0.9-2.3-1.9-3.4-2.8l-5.5,6.7C474.3,206.9,475.4,207.8,476.5,208.7z
		"/>
	<path id="XMLID_71_" class="st0" d="M469.8,203.3l5.4-6.8c-1.2-0.9-2.3-1.8-3.5-2.7l-5.3,6.9C467.6,201.5,468.7,202.4,469.8,203.3z
		"/>
	<path id="XMLID_70_" class="st0" d="M100.3,613.5l-6.3,6c1,1.1,2,2.1,3.1,3.2l6.2-6.1C102.3,615.5,101.3,614.5,100.3,613.5z"/>
	<path id="XMLID_69_" class="st0" d="M106.4,619.6l-6.1,6.2c1.1,1,2.1,2.1,3.2,3.1l6-6.3C108.4,621.5,107.4,620.6,106.4,619.6z"/>
	<path id="XMLID_68_" class="st0" d="M83.4,594.2l-6.8,5.4c0.9,1.1,1.8,2.3,2.8,3.4l6.7-5.5C85.2,596.4,84.3,595.3,83.4,594.2z"/>
	<path id="XMLID_67_" class="st0" d="M112.6,625.5l-5.9,6.4c1.1,1,2.2,2,3.3,3l5.8-6.5C114.7,627.4,113.7,626.4,112.6,625.5z"/>
	<path id="XMLID_66_" class="st0" d="M88.9,600.8l-6.6,5.6c1,1.1,1.9,2.2,2.9,3.3l6.6-5.7C90.7,603,89.8,601.9,88.9,600.8z"/>
	<path id="XMLID_65_" class="st0" d="M94.5,607.2L88,613c1,1.1,2,2.2,3,3.3l6.4-5.9C96.4,609.3,95.5,608.3,94.5,607.2z"/>
	<path id="XMLID_64_" class="st0" d="M78.2,587.4l-7,5.2c0.9,1.2,1.8,2.4,2.7,3.5l6.9-5.3C79.9,589.7,79,588.5,78.2,587.4z"/>
	<path id="XMLID_63_" class="st0" d="M119,631.2l-5.7,6.6c1.1,1,2.2,1.9,3.4,2.9l5.6-6.7C121.2,633,120.1,632.1,119,631.2z"/>
	<path id="XMLID_62_" class="st0" d="M73.1,580.5l-8.3,3.3c0.8,1.2,2.9,4.1,3.8,5.3l7.1-5.1C74.8,582.8,74,581.6,73.1,580.5z"/>
	<path id="XMLID_61_" class="st0" d="M125.6,636.6l-5.5,6.7c1.1,0.9,2.3,1.8,3.5,2.8l5.4-6.8C127.8,638.4,126.7,637.5,125.6,636.6z"
		/>
	<path id="XMLID_60_" class="st0" d="M127,648.9c1.2,0.9,2.4,1.8,3.5,2.6l9.3-3.9c-1.2-0.8-6.4-4.8-7.5-5.6L127,648.9z"/>
	<path id="XMLID_59_" class="st0" d="M486.1,622.9l5.9,6.4c1.1-1,2.2-2,3.2-3l-6-6.3C488.2,621,487.2,622,486.1,622.9z"/>
	<path id="XMLID_58_" class="st0" d="M509.8,598.2l6.7,5.6c0.9-1.1,1.9-2.3,2.8-3.4l-6.7-5.5C511.6,596,510.7,597.1,509.8,598.2z"/>
	<path id="XMLID_57_" class="st0" d="M498.4,610.9l6.3,6c1-1.1,2-2.1,3-3.2l-6.4-5.9C500.3,608.9,499.3,609.9,498.4,610.9z"/>
	<path id="XMLID_56_" class="st0" d="M504.2,604.7l6.5,5.8c1-1.1,2-2.2,2.9-3.3l-6.6-5.7C506.1,602.5,505.1,603.6,504.2,604.7z"/>
	<path id="XMLID_55_" class="st0" d="M520.5,584.8l7,5.2c0.9-1.2,3.2-4.3,4-5.5l-8.5-3.1C522.2,582.5,521.3,583.7,520.5,584.8z"/>
	<path id="XMLID_54_" class="st0" d="M515.2,591.6l6.8,5.4c0.9-1.2,1.8-2.3,2.7-3.5l-6.9-5.3C517,589.4,516.1,590.5,515.2,591.6z"/>
	<path id="XMLID_53_" class="st0" d="M473.2,634.2l5.5,6.7c1.1-0.9,2.3-1.9,3.4-2.8l-5.6-6.6C475.4,632.3,474.3,633.3,473.2,634.2z"
		/>
	<path id="XMLID_52_" class="st0" d="M466.5,639.5l5.3,6.9c1.2-0.9,2.3-1.8,3.5-2.7l-5.4-6.8C468.7,637.7,467.6,638.6,466.5,639.5z"
		/>
	<path id="XMLID_51_" class="st0" d="M492.3,617l6.1,6.2c1.1-1,2.1-2.1,3.1-3.1l-6.2-6.1C494.4,615,493.3,616,492.3,617z"/>
	<path id="XMLID_50_" class="st0" d="M455.4,647.6l9.3,4c1.2-0.9,2.4-1.7,3.6-2.6l-5.2-7C461.9,642.9,456.5,646.8,455.4,647.6z"/>
	<path id="XMLID_49_" class="st0" d="M479.7,628.6l5.7,6.6c1.1-1,2.2-1.9,3.3-2.9l-5.8-6.5C481.9,626.8,480.8,627.7,479.7,628.6z"/>
	<path id="XMLID_143_" class="st0" d="M582.3,338l-4.8-1.3c-8.9-29.6-22.4-57.2-39.7-82c4-1.6,10.1-3.6,14-4.8
		c-29.1-44.2-69.5-80.4-117.1-104.4l-11.3,7.8h-4.7c-36.8-16.8-77.7-26.3-120.8-26.3c-43.1,0-84,9.4-120.8,26.3h0l-16.5-7.5
		c-47.4,24-87.6,60.1-116.7,104.2c3.9,1.3,10,3.3,14,4.8c-17.3,24.8-30.8,52.4-39.7,82l-5,1.4c-7.6,26.1-11.7,53.7-11.7,82.3
		c0,28.5,4.1,56.2,11.7,82.3l5,1.4c8.9,29.5,22.4,57.1,39.6,81.9c-4,1.6-10.1,3.6-14,4.8C73,635,113.4,671.1,161,695.2l11.3-7.8h4.7
		c36.8,16.8,77.7,26.3,120.8,26.3c43.1,0,84-9.4,120.8-26.3h0l16.5,7.5c47.4-24,87.6-60.1,116.7-104.2c-3.9-1.3-10-3.3-14-4.8
		c17.3-24.8,30.7-52.4,39.6-82l4.8-1.3c7.6-26.1,11.7-53.7,11.7-82.3C594,391.7,589.9,364.1,582.3,338z M567.4,506.7l5.2-1.5
		c-18.9,60.5-57.3,112.6-108,148.6l-11.6-4.9c-28.7,19.9-61.4,34.4-96.7,42.1l-9.3-7.7h-99.5l-9,7.5c-34.9-7.8-67.2-22.2-95.7-41.9
		l-11.6,4.8c-50.6-36-89.1-88-108-148.6l5,1.4c-8.8-27.3-13.6-56.3-13.6-86.5c0-30.2,4.8-59.2,13.6-86.5l-5,1.4
		c18.9-60.5,57.4-112.5,108-148.6l11.6,4.8c28.7-19.9,61.4-34.4,96.7-42.1l9.3,7.7h99.5l9-7.5c34.9,7.8,67.2,22.2,95.7,41.9
		l11.6-4.8c50.6,36.1,89.1,88.1,108,148.6l-5.2-1.5c8.8,27.3,13.6,56.3,13.6,86.5C581,450.4,576.2,479.5,567.4,506.7z"/>
</g>
<g id="XMLID_94_">
	<path id="XMLID_46_" class="st0" d="M91.7,236.1l-6.6-5.7c-1,1.1-1.9,2.2-2.9,3.3l6.6,5.6C89.8,238.2,90.7,237.2,91.7,236.1z"/>
	<path id="XMLID_45_" class="st0" d="M103.3,223.6l-6.2-6.1c-1,1-2.1,2.1-3.1,3.2l6.3,6C101.3,225.6,102.3,224.6,103.3,223.6z"/>
	<path id="XMLID_44_" class="st0" d="M97.4,229.8l-6.4-5.9c-1,1.1-2,2.2-3,3.3l6.5,5.8C95.5,231.8,96.4,230.8,97.4,229.8z"/>
	<path id="XMLID_43_" class="st0" d="M75.6,256.2l-7.1-5.1c-0.9,1.2-3,4.2-3.9,5.4l8.5,3.1C74,258.5,74.8,257.3,75.6,256.2z"/>
	<path id="XMLID_42_" class="st0" d="M86.1,242.6l-6.7-5.5c-0.9,1.1-1.9,2.3-2.8,3.4l6.8,5.4C84.3,244.8,85.2,243.7,86.1,242.6z"/>
	<path id="XMLID_41_" class="st0" d="M80.8,249.3l-6.9-5.3c-0.9,1.2-1.8,2.3-2.7,3.5l7,5.2C79,251.6,79.9,250.4,80.8,249.3z"/>
	<path id="XMLID_40_" class="st0" d="M128.9,200.8l-5.4-6.8c-1.2,0.9-2.3,1.8-3.5,2.8l5.5,6.7C126.7,202.6,127.8,201.7,128.9,200.8z
		"/>
	<path id="XMLID_39_" class="st0" d="M127,191.3l5.3,6.9c1.1-0.9,6.4-4.8,7.5-5.6l-9.3-3.9C129.4,189.5,128.2,190.4,127,191.3z"/>
	<path id="XMLID_38_" class="st0" d="M109.5,217.6l-6-6.3c-1.1,1-2.1,2-3.2,3.1l6.1,6.2C107.4,219.6,108.4,218.6,109.5,217.6z"/>
	<path id="XMLID_37_" class="st0" d="M122.3,206.2l-5.6-6.7c-1.1,0.9-2.3,1.9-3.4,2.9l5.7,6.6C120.1,208,121.2,207.1,122.3,206.2z"
		/>
	<path id="XMLID_36_" class="st0" d="M115.8,211.8l-5.8-6.5c-1.1,1-2.2,2-3.3,3l5.9,6.4C113.7,213.7,114.7,212.7,115.8,211.8z"/>
	<path id="XMLID_35_" class="st0" d="M501.3,232.3l6.4-5.9c-1-1.1-2-2.2-3-3.2l-6.3,6C499.3,230.2,500.3,231.3,501.3,232.3z"/>
	<path id="XMLID_34_" class="st0" d="M495.4,226.1l6.2-6.1c-1-1-2.1-2.1-3.1-3.1l-6.1,6.2C493.3,224.1,494.4,225.1,495.4,226.1z"/>
	<path id="XMLID_33_" class="st0" d="M507,238.7l6.6-5.7c-1-1.1-1.9-2.2-2.9-3.3l-6.5,5.8C505.1,236.5,506.1,237.6,507,238.7z"/>
	<path id="XMLID_32_" class="st0" d="M489.2,220.1l6-6.3c-1.1-1-2.1-2-3.2-3l-5.9,6.4C487.2,218.2,488.2,219.1,489.2,220.1z"/>
	<path id="XMLID_31_" class="st0" d="M517.9,251.9l6.9-5.3c-0.9-1.2-1.8-2.3-2.7-3.5l-6.8,5.4C516.1,249.6,517,250.8,517.9,251.9z"
		/>
	<path id="XMLID_30_" class="st0" d="M512.6,245.2l6.7-5.5c-0.9-1.1-1.9-2.3-2.8-3.4l-6.7,5.6C510.7,243,511.6,244.1,512.6,245.2z"
		/>
	<path id="XMLID_29_" class="st0" d="M482.9,214.3l5.8-6.5c-1.1-1-2.2-2-3.3-2.9l-5.7,6.6C480.8,212.4,481.9,213.4,482.9,214.3z"/>
	<path id="XMLID_28_" class="st0" d="M468.2,191.1c-1.2-0.9-2.4-1.7-3.6-2.6l-9.1,4.1c1.2,0.8,6.3,4.6,7.5,5.4L468.2,191.1z"/>
	<path id="XMLID_27_" class="st0" d="M520.5,255.3c0.9,1.1,1.7,2.3,2.5,3.5l8.8-2.8c-0.9-1.2-3.4-4.7-4.3-5.9L520.5,255.3z"/>
	<path id="XMLID_26_" class="st0" d="M476.5,208.7l5.6-6.6c-1.1-0.9-2.3-1.9-3.4-2.8l-5.5,6.7C474.3,206.9,475.4,207.8,476.5,208.7z
		"/>
	<path id="XMLID_25_" class="st0" d="M469.8,203.3l5.4-6.8c-1.2-0.9-2.3-1.8-3.5-2.7l-5.3,6.9C467.6,201.5,468.7,202.4,469.8,203.3z
		"/>
	<path id="XMLID_24_" class="st0" d="M100.3,613.5l-6.3,6c1,1.1,2,2.1,3.1,3.2l6.2-6.1C102.3,615.5,101.3,614.5,100.3,613.5z"/>
	<path id="XMLID_23_" class="st0" d="M106.4,619.6l-6.1,6.2c1.1,1,2.1,2.1,3.2,3.1l6-6.3C108.4,621.5,107.4,620.6,106.4,619.6z"/>
	<path id="XMLID_22_" class="st0" d="M83.4,594.2l-6.8,5.4c0.9,1.1,1.8,2.3,2.8,3.4l6.7-5.5C85.2,596.4,84.3,595.3,83.4,594.2z"/>
	<path id="XMLID_21_" class="st0" d="M112.6,625.5l-5.9,6.4c1.1,1,2.2,2,3.3,3l5.8-6.5C114.7,627.4,113.7,626.4,112.6,625.5z"/>
	<path id="XMLID_20_" class="st0" d="M88.9,600.8l-6.6,5.6c1,1.1,1.9,2.2,2.9,3.3l6.6-5.7C90.7,603,89.8,601.9,88.9,600.8z"/>
	<path id="XMLID_19_" class="st0" d="M94.5,607.2L88,613c1,1.1,2,2.2,3,3.3l6.4-5.9C96.4,609.3,95.5,608.3,94.5,607.2z"/>
	<path id="XMLID_18_" class="st0" d="M78.2,587.4l-7,5.2c0.9,1.2,1.8,2.4,2.7,3.5l6.9-5.3C79.9,589.7,79,588.5,78.2,587.4z"/>
	<path id="XMLID_17_" class="st0" d="M119,631.2l-5.7,6.6c1.1,1,2.2,1.9,3.4,2.9l5.6-6.7C121.2,633,120.1,632.1,119,631.2z"/>
	<path id="XMLID_16_" class="st0" d="M73.1,580.5l-8.3,3.3c0.8,1.2,2.9,4.1,3.8,5.3l7.1-5.1C74.8,582.8,74,581.6,73.1,580.5z"/>
	<path id="XMLID_15_" class="st0" d="M125.6,636.6l-5.5,6.7c1.1,0.9,2.3,1.8,3.5,2.8l5.4-6.8C127.8,638.4,126.7,637.5,125.6,636.6z"
		/>
	<path id="XMLID_14_" class="st0" d="M127,648.9c1.2,0.9,2.4,1.8,3.5,2.6l9.3-3.9c-1.2-0.8-6.4-4.8-7.5-5.6L127,648.9z"/>
	<path id="XMLID_13_" class="st0" d="M486.1,622.9l5.9,6.4c1.1-1,2.2-2,3.2-3l-6-6.3C488.2,621,487.2,622,486.1,622.9z"/>
	<path id="XMLID_12_" class="st0" d="M509.8,598.2l6.7,5.6c0.9-1.1,1.9-2.3,2.8-3.4l-6.7-5.5C511.6,596,510.7,597.1,509.8,598.2z"/>
	<path id="XMLID_11_" class="st0" d="M498.4,610.9l6.3,6c1-1.1,2-2.1,3-3.2l-6.4-5.9C500.3,608.9,499.3,609.9,498.4,610.9z"/>
	<path id="XMLID_10_" class="st0" d="M504.2,604.7l6.5,5.8c1-1.1,2-2.2,2.9-3.3l-6.6-5.7C506.1,602.5,505.1,603.6,504.2,604.7z"/>
	<path id="XMLID_9_" class="st0" d="M520.5,584.8l7,5.2c0.9-1.2,3.2-4.3,4-5.5l-8.5-3.1C522.2,582.5,521.3,583.7,520.5,584.8z"/>
	<path id="XMLID_8_" class="st0" d="M515.2,591.6l6.8,5.4c0.9-1.2,1.8-2.3,2.7-3.5l-6.9-5.3C517,589.4,516.1,590.5,515.2,591.6z"/>
	<path id="XMLID_7_" class="st0" d="M473.2,634.2l5.5,6.7c1.1-0.9,2.3-1.9,3.4-2.8l-5.6-6.6C475.4,632.3,474.3,633.3,473.2,634.2z"
		/>
	<path id="XMLID_6_" class="st0" d="M466.5,639.5l5.3,6.9c1.2-0.9,2.3-1.8,3.5-2.7l-5.4-6.8C468.7,637.7,467.6,638.6,466.5,639.5z"
		/>
	<path id="XMLID_5_" class="st0" d="M492.3,617l6.1,6.2c1.1-1,2.1-2.1,3.1-3.1l-6.2-6.1C494.4,615,493.3,616,492.3,617z"/>
	<path id="XMLID_4_" class="st0" d="M455.4,647.6l9.3,4c1.2-0.9,2.4-1.7,3.6-2.6l-5.2-7C461.9,642.9,456.5,646.8,455.4,647.6z"/>
	<path id="XMLID_3_" class="st0" d="M479.7,628.6l5.7,6.6c1.1-1,2.2-1.9,3.3-2.9l-5.8-6.5C481.9,626.8,480.8,627.7,479.7,628.6z"/>
	<path id="XMLID_95_" class="st0" d="M582.3,338l-4.8-1.3c-8.9-29.6-22.4-57.2-39.7-82c4-1.6,10.1-3.6,14-4.8
		c-29.1-44.2-69.5-80.4-117.1-104.4l-11.3,7.8h-4.7c-36.8-16.8-77.7-26.3-120.8-26.3c-43.1,0-84,9.4-120.8,26.3h0l-16.5-7.5
		c-47.4,24-87.6,60.1-116.7,104.2c3.9,1.3,10,3.3,14,4.8c-17.3,24.8-30.8,52.4-39.7,82l-5,1.4c-7.6,26.1-11.7,53.7-11.7,82.3
		c0,28.5,4.1,56.2,11.7,82.3l5,1.4c8.9,29.5,22.4,57.1,39.6,81.9c-4,1.6-10.1,3.6-14,4.8C73,635,113.4,671.1,161,695.2l11.3-7.8h4.7
		c36.8,16.8,77.7,26.3,120.8,26.3c43.1,0,84-9.4,120.8-26.3h0l16.5,7.5c47.4-24,87.6-60.1,116.7-104.2c-3.9-1.3-10-3.3-14-4.8
		c17.3-24.8,30.7-52.4,39.6-82l4.8-1.3c7.6-26.1,11.7-53.7,11.7-82.3C594,391.7,589.9,364.1,582.3,338z M567.4,506.7l5.2-1.5
		c-18.9,60.5-57.3,112.6-108,148.6l-11.6-4.9c-28.7,19.9-61.4,34.4-96.7,42.1l-9.3-7.7h-99.5l-9,7.5c-34.9-7.8-67.2-22.2-95.7-41.9
		l-11.6,4.8c-50.6-36-89.1-88-108-148.6l5,1.4c-8.8-27.3-13.6-56.3-13.6-86.5c0-30.2,4.8-59.2,13.6-86.5l-5,1.4
		c18.9-60.5,57.4-112.5,108-148.6l11.6,4.8c28.7-19.9,61.4-34.4,96.7-42.1l9.3,7.7h99.5l9-7.5c34.9,7.8,67.2,22.2,95.7,41.9
		l11.6-4.8c50.6,36.1,89.1,88.1,108,148.6l-5.2-1.5c8.8,27.3,13.6,56.3,13.6,86.5C581,450.4,576.2,479.5,567.4,506.7z"/>
</g>
</svg>
