<?xml version="1.0" encoding="utf-8"?>
<!-- Generator: Adobe Illustrator 19.0.0, SVG Export Plug-In . SVG Version: 6.00 Build 0)  -->
<svg version="1.1" id="Слой_1" xmlns="http://www.w3.org/2000/svg" xmlns:xlink="http://www.w3.org/1999/xlink" x="0px" y="0px"
	 viewBox="0 0 595.3 841.9" style="enable-background:new 0 0 595.3 841.9;" xml:space="preserve">
<style type="text/css">
	.st0{fill-rule:evenodd;clip-rule:evenodd;fill:#A7DCF8;stroke:#A7DCF8;stroke-width:15;stroke-miterlimit:10;}
	.st1{fill:#0E1014;}
	.st2{fill:#A7DCF8;}
</style>
<rect id="XMLID_1_" x="289" y="305.7" class="st0" width="17.3" height="163.8"/>
<g id="XMLID_5_">
	<path id="XMLID_24_" class="st1" d="M297.6,339.9c-18.8,0-34.2-15.3-34.2-34.2s15.3-34.2,34.2-34.2s34.2,15.3,34.2,34.2
		S316.5,339.9,297.6,339.9z"/>
	<path id="XMLID_21_" class="st2" d="M297.6,271.9c18.7,0,33.8,15.2,33.8,33.8s-15.2,33.8-33.8,33.8s-33.8-15.2-33.8-33.8
		S279,271.9,297.6,271.9 M297.6,271.2c-19.1,0-34.5,15.4-34.5,34.5s15.4,34.5,34.5,34.5c19.1,0,34.5-15.4,34.5-34.5
		S316.7,271.2,297.6,271.2L297.6,271.2z"/>
</g>
<g id="XMLID_4_">
	<path id="XMLID_28_" class="st1" d="M297.6,498.8c-18.8,0-34.2-15.3-34.2-34.2s15.3-34.2,34.2-34.2s34.2,15.3,34.2,34.2
		S316.5,498.8,297.6,498.8z"/>
	<path id="XMLID_25_" class="st2" d="M297.6,430.8c18.7,0,33.8,15.2,33.8,33.8s-15.2,33.8-33.8,33.8s-33.8-15.2-33.8-33.8
		S279,430.8,297.6,430.8 M297.6,430.1c-19.1,0-34.5,15.4-34.5,34.5s15.4,34.5,34.5,34.5c19.1,0,34.5-15.4,34.5-34.5
		S316.7,430.1,297.6,430.1L297.6,430.1z"/>
</g>
<g id="XMLID_3_">
	<path id="XMLID_39_" class="st1" d="M297.6,338.2c-17.9,0-32.5-14.6-32.5-32.5s14.6-32.5,32.5-32.5s32.5,14.6,32.5,32.5
		S315.6,338.2,297.6,338.2z"/>
	<path id="XMLID_32_" class="st2" d="M297.6,275.2c16.8,0,30.5,13.7,30.5,30.5s-13.7,30.5-30.5,30.5s-30.5-13.7-30.5-30.5
		S280.8,275.2,297.6,275.2 M297.6,271.2c-19.1,0-34.5,15.4-34.5,34.5s15.4,34.5,34.5,34.5c19.1,0,34.5-15.4,34.5-34.5
		S316.7,271.2,297.6,271.2L297.6,271.2z"/>
</g>
<g id="XMLID_2_">
	<path id="XMLID_38_" class="st1" d="M297.6,497.1c-17.9,0-32.5-14.6-32.5-32.5s14.6-32.5,32.5-32.5s32.5,14.6,32.5,32.5
		S315.6,497.1,297.6,497.1z"/>
	<path id="XMLID_33_" class="st2" d="M297.6,434.1c16.8,0,30.5,13.7,30.5,30.5s-13.7,30.5-30.5,30.5s-30.5-13.7-30.5-30.5
		S280.8,434.1,297.6,434.1 M297.6,430.1c-19.1,0-34.5,15.4-34.5,34.5c0,19.1,15.4,34.5,34.5,34.5c19.1,0,34.5-15.4,34.5-34.5
		C332.1,445.6,316.7,430.1,297.6,430.1L297.6,430.1z"/>
</g>
</svg>
