<svg xmlns="http://www.w3.org/2000/svg" viewBox="0 0 10.31 7.09"><defs><style>.clsAc-1{fill:#3fa9f5;}</style></defs><title>Подтвердить</title><g id="Слой_2" data-name="Слой 2"><g id="Layer_1" data-name="Layer 1"><path class="clsAc-1" d="M4.17,6.88h0a.51.51,0,0,1-.74,0L.15,3.56a.56.56,0,0,1,0-.76h0a.53.53,0,0,1,.75,0L4.17,6.13A.53.53,0,0,1,4.17,6.88Z"/><path class="clsAc-1" d="M3.48,6.94h0a.54.54,0,0,1,0-.76l5.93-6a.53.53,0,0,1,.75,0h0a.54.54,0,0,1,0,.75l-5.94,6A.51.51,0,0,1,3.48,6.94Z"/></g></g></svg>