<?xml version="1.0" encoding="utf-8"?>
<!-- Generator: Adobe Illustrator 19.0.0, SVG Export Plug-In . SVG Version: 6.00 Build 0)  -->
<svg version="1.1" id="Слой_1" xmlns="http://www.w3.org/2000/svg" xmlns:xlink="http://www.w3.org/1999/xlink" x="0px" y="0px"
	 viewBox="0 0 595.3 841.9" style="enable-background:new 0 0 595.3 841.9;" xml:space="preserve">
<style type="text/css">
	.st0{display:none;fill:none;stroke:#A2E2FF;stroke-width:4;stroke-linecap:round;stroke-miterlimit:10;}
	.st1{fill:none;stroke:#FFFFFF;stroke-width:5;stroke-linecap:round;stroke-miterlimit:10;}
	.st2{fill:#0D1014;fill-opacity:0.1;stroke:#FFFFFF;stroke-width:2;stroke-miterlimit:10;}
</style>
<path class="st0" d="M142,395.9h-10.5c-2.3-2.3-3.7-3.7-6-6v-61.5c2.3-2.3,3.7-3.7,6-6H142"/>
<path class="st1" d="M368.7,312.7H386c3.9,3.7,6.1,5.8,10,9.6v98.1c-3.9,3.7-6.1,5.8-10,9.6h-17.4"/>
<path class="st1" d="M34.3,429.9H16.9c-3.9-3.7-6.1-5.8-10-9.6v-98.1c3.9-3.7,6.1-5.8,10-9.6h17.4"/>
<path class="st2" d="M390,429.3H12.9c-2.3-2.3-3.7-3.7-6-6V318.1c2.3-2.3,3.7-3.7,6-6H390c2.3,2.3,3.7,3.7,6,6v105.2
	C393.7,425.7,392.3,427,390,429.3z"/>
</svg>
