<svg width="32" height="28" viewBox="0 0 32 28" fill="none" xmlns="http://www.w3.org/2000/svg">
<path d="M15.9982 0C14.8386 0 13.679 0.555621 13.02 1.66687L0.464742 22.8394C-0.870038 25.0788 0.840148 28 3.43462 28H28.5535C31.1563 28 32.8665 25.0788 31.54 22.8394L18.9764 1.66687C18.3174 0.555621 17.1578 0 15.9982 0ZM15.9982 2.12147C16.4404 2.12147 16.8825 2.34035 17.1495 2.77811L29.7047 23.9423C30.2303 24.8262 29.6463 25.8449 28.5535 25.8449H3.43462C2.35012 25.8449 1.76615 24.8262 2.29172 23.9423L14.847 2.77811C15.1139 2.34035 15.5561 2.12147 15.9982 2.12147ZM14.9137 8.60373V19.3794H17.0494V8.60373H14.9137ZM14.9137 21.5346V23.6897H17.0494V21.5346H14.9137Z" fill="#F28B4A"/>
</svg>
