<svg width="28" height="28" viewBox="0 0 28 28" fill="none" xmlns="http://www.w3.org/2000/svg">
<path d="M13.8125 0C6.20068 0 0 6.20068 0 13.8125C0 21.4243 6.20068 27.625 13.8125 27.625C21.4243 27.625 27.625 21.4243 27.625 13.8125C27.625 6.20068 21.4243 0 13.8125 0ZM13.8125 2.125C20.2788 2.125 25.5 7.34619 25.5 13.8125C25.5 20.2788 20.2788 25.5 13.8125 25.5C7.34619 25.5 2.125 20.2788 2.125 13.8125C2.125 7.34619 7.34619 2.125 13.8125 2.125Z" fill="#0089FF"/>
<path fill-rule="evenodd" clip-rule="evenodd" d="M8 17.4871V20.0004H10.5133L17.9014 12.6132L15.3872 10.0989L8 17.4871ZM19.8252 10.6891C20.0866 10.4267 20.0866 10.0116 19.8252 9.74922L18.2728 8.19679C18.0103 7.9344 17.5951 7.9344 17.3328 8.19679L16.1087 9.39906L18.601 11.8914L19.8252 10.6891Z" fill="#0089FF"/>
</svg>
