<svg width="32" height="24" viewBox="0 0 32 24" fill="none" xmlns="http://www.w3.org/2000/svg">
<path d="M15.8641 24C9.32136 24 3.99902 18.6164 3.99902 12C3.99902 5.38364 9.31901 0 15.8641 0C22.4093 0 27.723 5.38284 27.723 12C27.723 18.6172 22.4038 24 15.8641 24ZM15.8641 1.79428C13.1876 1.79428 10.6207 2.86961 8.72817 4.7837C6.83559 6.69779 5.77235 9.29386 5.77235 12.0008C5.77235 14.7077 6.83559 17.3038 8.72817 19.2179C10.6207 21.132 13.1876 22.2073 15.8641 22.2073C21.4276 22.2073 25.9544 17.6283 25.9544 12.0016C25.9544 6.3749 21.4252 1.79428 15.8641 1.79428Z" fill="white"/>
<path d="M5.61289 22.8861C5.25295 23.2298 4.67296 23.2061 4.3476 22.8296C-3.63844 13.586 1.34996 5.05022 3.83304 1.83781C4.43231 1.06252 5.54399 1.07466 6.2184 1.78554L5.60426 1.13741C5.94513 1.49625 5.9405 2.06039 5.61722 2.43515C3.63579 4.73219 -2.01605 12.6958 5.65657 21.6138C5.97533 21.9843 5.96639 22.5486 5.61289 22.8861Z" fill="white"/>
<path d="M27.6512 22.8307C27.3263 23.2067 26.7472 23.2305 26.3876 22.8876C26.0342 22.5506 26.025 21.9868 26.3434 21.6165C34.02 12.6896 28.3586 4.72564 26.3797 2.43394C26.0579 2.06124 26.053 1.50003 26.3919 1.1428C26.7331 0.783203 27.2857 0.771326 27.6078 1.14812C29.73 3.63083 36.3045 12.815 27.6512 22.8307Z" fill="white"/>
<path d="M17.8761 18.0556C17.8762 18.4181 17.7701 18.7725 17.571 19.0739C17.372 19.3754 17.0891 19.6104 16.758 19.7492C16.4269 19.888 16.0625 19.9243 15.711 19.8536C15.3594 19.7829 15.0365 19.6084 14.7831 19.3521C14.5297 19.0958 14.3571 18.7692 14.2872 18.4137C14.2173 18.0582 14.2533 17.6897 14.3905 17.3548C14.5277 17.0199 14.7601 16.7338 15.0582 16.5325C15.3562 16.3312 15.7066 16.2238 16.065 16.224C16.3029 16.224 16.5384 16.2714 16.7581 16.3634C16.9778 16.4555 17.1775 16.5904 17.3456 16.7605C17.5138 16.9305 17.6472 17.1325 17.7382 17.3547C17.8292 17.5769 17.8761 17.8151 17.8761 18.0556Z" fill="white"/>
<path d="M17.876 13.0087C17.876 14.2423 17.0608 15.2518 16.065 15.2518C15.0692 15.2518 14.2532 14.2423 14.2532 13.0087V6.35425C14.2532 5.11994 15.0684 4.1112 16.065 4.1112C17.0616 4.1112 17.876 5.12073 17.876 6.35425V13.0087Z" fill="white"/>
</svg>
