<svg width="29" height="28" viewBox="0 0 29 28" fill="none" xmlns="http://www.w3.org/2000/svg">
<path d="M2.78432 22.5528C3.05731 22.5649 3.33272 22.6012 3.59001 22.6981V22.6945L3.62867 22.709L7.02299 19.3908L7.1462 19.5567C7.32256 19.7989 7.50858 20.0169 7.70668 20.2349L7.77916 20.3172C7.8311 20.3693 7.87217 20.4214 7.92411 20.4747L8.3179 20.8683L8.41091 20.953L8.49547 21.0257C10.0686 22.3675 12.0536 23.1271 14.1184 23.1777C15.8189 23.221 17.4972 22.7846 18.9623 21.9182L19.2232 22.1895C19.5252 22.5116 19.8356 22.835 20.1364 23.1583C18.3314 24.3193 16.22 24.91 14.0762 24.8537C11.6577 24.7947 9.3309 23.9138 7.47717 22.3554L7.48925 22.336L5.31133 24.488C5.42481 24.8625 5.45635 25.2572 5.40379 25.6451C5.35124 26.033 5.21583 26.4049 5.00681 26.7356C4.79778 27.0662 4.52007 27.3477 4.19261 27.5609C3.86516 27.7742 3.49568 27.914 3.10938 27.971C2.72309 28.028 2.32908 28.0008 1.95424 27.8912C1.57941 27.7815 1.23258 27.5921 0.937414 27.3359C0.642252 27.0796 0.405711 26.7626 0.243936 26.4063C0.0821601 26.05 -0.0010414 25.663 9.83886e-06 25.2715C9.83886e-06 24.5501 0.285847 23.8583 0.794641 23.3482C1.30343 22.8381 1.99351 22.5516 2.71305 22.5516H2.78311L2.78432 22.5528ZM23.5307 8.51952C24.5963 10.2788 25.1332 12.3089 25.0769 14.3663C25.0168 16.8787 24.072 19.2887 22.4098 21.1698L22.4218 21.1819L23.759 22.6061C24.2978 22.5334 24.8365 22.7199 25.211 23.1147C25.5169 23.4393 25.6821 23.8723 25.6703 24.3187C25.6586 24.7652 25.4708 25.1888 25.1482 25.4968C24.8244 25.8035 24.3925 25.9691 23.9472 25.9573C23.5018 25.9455 23.0793 25.7573 22.7721 25.4338C22.5887 25.2395 22.4544 25.0039 22.3804 24.7469C22.3064 24.4898 22.295 24.2188 22.3469 23.9564C21.5653 23.1174 20.7801 22.2818 19.9915 21.4495L19.8586 21.3042L20.0132 21.1795C20.4179 20.8574 20.7911 20.5037 21.1342 20.1077C22.5526 18.5116 23.3577 16.4611 23.4051 14.3239C23.4507 12.712 23.064 11.1173 22.2853 9.70631L23.5295 8.51952H23.5307ZM4.62401 2.16047C5.10115 2.1532 5.54809 2.34212 5.88027 2.68363C6.25474 3.07842 6.41177 3.63064 6.30668 4.16107L8.87839 6.86406L8.72377 6.99C8.31784 7.31172 7.94258 7.6705 7.6028 8.06175C6.35934 9.46378 5.57992 11.2177 5.37181 13.0822C5.16371 14.9467 5.53716 16.83 6.44076 18.4729L5.20624 19.679C4.12694 17.9141 3.58612 15.8712 3.65041 13.802C3.70356 11.2976 4.67716 8.87798 6.31272 6.99364L4.8958 5.51256C4.63072 5.54898 4.36081 5.52187 4.10821 5.43346C3.85561 5.34504 3.62751 5.19784 3.44265 5.00393C3.13691 4.67896 2.9719 4.24587 2.98367 3.7993C2.99544 3.35274 3.18303 2.92899 3.50546 2.62065C3.76758 2.37361 4.10581 2.21496 4.46457 2.17258C4.51771 2.16531 4.57328 2.1641 4.62522 2.16047H4.62401ZM26.2764 1.22975e-05C26.6699 -0.00117344 27.059 0.0834016 27.4167 0.247881C27.7743 0.412361 28.0921 0.652815 28.3479 0.952594C28.6037 1.25237 28.7915 1.60431 28.8982 1.98404C29.0049 2.36378 29.0281 2.76223 28.966 3.1518C28.9039 3.54138 28.7581 3.91278 28.5387 4.24028C28.3193 4.56778 28.0315 4.84356 27.6953 5.04852C27.359 5.25348 26.9824 5.38272 26.5914 5.4273C26.2004 5.47188 25.8044 5.43072 25.4308 5.30669L25.4284 5.30911L25.3885 5.29458L21.7043 8.80047L21.5811 8.63335C21.3812 8.36812 21.1662 8.1146 20.9373 7.87405L20.8962 7.82197L20.5749 7.49984L20.4299 7.37511L20.3369 7.29034L20.2645 7.22978L20.1714 7.14501C18.6057 5.82259 16.6374 5.07427 14.5907 5.02331C12.8922 4.97603 11.2151 5.41275 9.75415 6.28277L8.57036 5.04511C10.3748 3.88261 12.4865 3.29181 14.6306 3.34969C17.0514 3.4067 19.38 4.29114 21.2308 5.85649H21.2513L23.6914 3.53497C23.5642 3.12758 23.5345 2.69591 23.6045 2.27486C23.6745 1.8538 23.8424 1.45516 24.0945 1.11117C24.3466 0.76717 24.6759 0.487461 25.0558 0.294645C25.4356 0.101828 25.8554 0.00131331 26.2812 0.0012233L26.2764 1.22975e-05ZM14.447 6.07447C14.7538 6.07447 15.0594 6.09869 15.365 6.13503C19.7426 6.68604 22.8446 10.6909 22.3059 15.0808C22.0407 17.1889 20.9524 19.1055 19.2796 20.4102C17.6068 21.715 15.4862 22.3013 13.3828 22.0405C11.2798 21.775 9.36779 20.684 8.06613 19.007C6.76447 17.3299 6.1795 15.2037 6.43955 13.0947C6.96138 9.02209 10.375 6.08901 14.4458 6.07447H14.447ZM14.3262 9.51376C12.5554 9.65424 11.2725 10.9985 11.2266 12.7835C11.2592 14.0587 11.9091 15.1329 13.0446 15.7202L12.4261 18.6267H16.5609L15.9449 15.7202C17.0743 15.1062 17.7447 14.0902 17.7628 12.7859C17.7386 10.9428 16.3157 9.55494 14.4941 9.50892L14.325 9.51376H14.3262ZM14.389 9.49439H14.3769H14.389Z" fill="#0089FF"/>
</svg>
