<svg width="16" height="17" viewBox="0 0 16 17" fill="none" xmlns="http://www.w3.org/2000/svg">
<path d="M2.90582 12.9109V9.28951H5.91826L7.38018 7.71094H9.37371V12.9109" stroke="#606580" stroke-miterlimit="10" stroke-linecap="round" stroke-linejoin="round"/>
<path d="M14.3354 12.9102H1.93127V14.9994H14.3354V12.9102Z" stroke="#606580" stroke-miterlimit="10" stroke-linecap="round" stroke-linejoin="round"/>
<path d="M5.43096 2H3.92474V9.28929H5.43096V2Z" stroke="#606580" stroke-miterlimit="10" stroke-linecap="round" stroke-linejoin="round"/>
<path d="M8.39923 7.71027V3.57812H12.342V5.11027" stroke="#606580" stroke-miterlimit="10" stroke-linecap="round" stroke-linejoin="round"/>
<path d="M12.6963 10.822H12.0318C11.4116 10.822 10.8799 10.2649 10.8799 9.6149V6.31847C10.8799 5.66847 11.4116 5.11133 12.0318 5.11133H12.6963C13.3165 5.11133 13.8481 5.66847 13.8481 6.31847V9.6149C13.8481 10.3113 13.3165 10.822 12.6963 10.822Z" stroke="#606580" stroke-miterlimit="10" stroke-linecap="round" stroke-linejoin="round"/>
<path d="M11.3673 12.9116V10.8223" stroke="#606580" stroke-miterlimit="10" stroke-linecap="round" stroke-linejoin="round"/>
<path d="M13.3608 10.8223V12.9116" stroke="#606580" stroke-miterlimit="10" stroke-linecap="round" stroke-linejoin="round"/>
</svg>
