<svg width="14" height="15" viewBox="0 0 14 15" fill="white" xmlns="http://www.w3.org/2000/svg">
<defs><style>.cls-1{fill: #3fa9f5}</style></defs>
<path class="cls-1" d="M4.54436 4.9085V7.7085L0.34436 4.2085L4.54436 0.708496V3.5085H8.04436C9.52957 3.5085 10.954 4.09849 12.0042 5.1487C13.0544 6.1989 13.6444 7.62328 13.6444 9.1085C13.6444 10.5937 13.0544 12.0181 12.0042 13.0683C10.954 14.1185 9.52957 14.7085 8.04436 14.7085H1.74436V13.3085H8.04436C9.15827 13.3085 10.2266 12.866 11.0142 12.0783C11.8019 11.2907 12.2444 10.2224 12.2444 9.1085C12.2444 7.99459 11.8019 6.9263 11.0142 6.13865C10.2266 5.35099 9.15827 4.9085 8.04436 4.9085H4.54436Z"/>
</svg>
