<svg xmlns="http://www.w3.org/2000/svg" fill="currentColor" width="13.928" height="15" viewBox="0 0 13.928 15">
    <defs>
        <style>.a {
            fill-rule: evenodd;
        }</style>
    </defs>
    <path class="a"
          d="M1889.682,25.87a1.029,1.029,0,0,0-.753-.318h-1.071v-.8a1.344,1.344,0,0,0-1.34-1.339h-.536a1.344,1.344,0,0,0-1.339,1.339v.8h-3.214v-.8a1.342,1.342,0,0,0-1.339-1.339h-.536a1.342,1.342,0,0,0-1.339,1.339v.8h-1.072a1.086,1.086,0,0,0-1.071,1.071V37.338a1.086,1.086,0,0,0,1.071,1.071h11.786A1.086,1.086,0,0,0,1890,37.338V26.623a1.027,1.027,0,0,0-.318-.753Zm-3.968-1.122a.264.264,0,0,1,.076-.193.26.26,0,0,1,.192-.075h.536a.257.257,0,0,1,.268.268v2.411a.257.257,0,0,1-.268.267h-.536a.258.258,0,0,1-.268-.267V24.748Zm-6.428,0a.258.258,0,0,1,.268-.268h.536a.26.26,0,0,1,.192.075.264.264,0,0,1,.075.193v2.411a.257.257,0,0,1-.267.267h-.536a.26.26,0,0,1-.192-.075.257.257,0,0,1-.076-.192V24.748Zm9.643,12.589h-11.786V28.766h11.786Z"
          transform="translate(-1876.072 -23.409)"/>
</svg>
