<svg width="13" height="14" viewBox="0 0 13 14" fill="none" xmlns="http://www.w3.org/2000/svg">
<path d="M3.07031 3.922L1.07031 1.922C1.02344 1.86471 1 1.80481 1 1.74231C1 1.67981 1.02344 1.61991 1.07031 1.56262C1.1224 1.51575 1.18229 1.49231 1.25 1.49231C1.31771 1.49231 1.3776 1.51575 1.42969 1.56262L3.42969 3.56262C3.47656 3.61471 3.5 3.6746 3.5 3.74231C3.5 3.81002 3.47656 3.86991 3.42969 3.922C3.3776 3.96887 3.31771 3.99231 3.25 3.99231C3.18229 3.99231 3.1224 3.96887 3.07031 3.922ZM2.75 5.24231L0.250001 5.24231C0.177084 5.24231 0.117188 5.21887 0.0703132 5.172C0.0234383 5.12512 7.53786e-07 5.06523 7.56973e-07 4.99231C7.6016e-07 4.91939 0.0234383 4.8595 0.0703133 4.81262C0.117188 4.76575 0.177084 4.74231 0.250001 4.74231L2.75 4.74231C2.82292 4.74231 2.88281 4.76575 2.92969 4.81262C2.97656 4.8595 3 4.91939 3 4.99231C3 5.06523 2.97656 5.12512 2.92969 5.172C2.88281 5.21887 2.82292 5.24231 2.75 5.24231ZM4.5 3.49231C4.42708 3.49231 4.36719 3.46887 4.32031 3.422C4.27344 3.37512 4.25 3.31523 4.25 3.24231L4.25 0.742309C4.25 0.669393 4.27344 0.609497 4.32031 0.562622C4.36719 0.515747 4.42708 0.492309 4.5 0.492309C4.57292 0.492309 4.63281 0.515747 4.67969 0.562622C4.72656 0.609497 4.75 0.669393 4.75 0.742309L4.75 3.24231C4.75 3.31523 4.72656 3.37512 4.67969 3.422C4.63281 3.46887 4.57292 3.49231 4.5 3.49231ZM3.5 13.3673C2.875 13.3673 2.34635 13.146 1.91406 12.7032L0.773438 11.5548C0.341146 11.1225 0.125001 10.5939 0.125001 9.96887C0.125001 9.33866 0.346354 8.80741 0.789063 8.37512L3.40625 5.76575C3.51563 5.65637 3.66146 5.547 3.84375 5.43762L3.98438 7.30481L1.84375 9.43762C1.70313 9.57825 1.63151 9.75533 1.62891 9.96887C1.6263 10.1824 1.69531 10.3595 1.83594 10.5001L2.97656 11.6486C3.1224 11.7944 3.29688 11.8673 3.5 11.8673C3.70833 11.8673 3.88542 11.7944 4.03125 11.6486L6.17969 9.50794L8.04688 9.64856C7.9375 9.83085 7.82813 9.97669 7.71875 10.0861L5.09375 12.7111C4.64583 13.1486 4.11458 13.3673 3.5 13.3673ZM9.15625 8.547L9.01562 6.67981L11.1562 4.547C11.3021 4.40116 11.375 4.22408 11.375 4.01575C11.375 3.81262 11.3047 3.63554 11.1641 3.4845L10.0234 2.33606C9.8776 2.19023 9.70313 2.11731 9.5 2.11731C9.29167 2.11731 9.11458 2.19023 8.96875 2.33606L6.82813 4.47668L4.95313 4.33606C5.0625 4.15377 5.17188 4.00793 5.28125 3.89856L7.90625 1.27356C8.35417 0.836059 8.88542 0.617309 9.5 0.617309C10.125 0.617309 10.6536 0.838664 11.0859 1.28137L12.2266 2.42981C12.6589 2.8621 12.875 3.39075 12.875 4.01575C12.875 4.64596 12.6536 5.17721 12.2109 5.6095L9.59375 8.21887C9.48437 8.32825 9.33854 8.43762 9.15625 8.547ZM8.5 13.4923C8.42708 13.4923 8.36719 13.4689 8.32031 13.422C8.27344 13.3751 8.25 13.3152 8.25 13.2423L8.25 10.7423C8.25 10.6694 8.27344 10.6095 8.32031 10.5626C8.36719 10.5157 8.42708 10.4923 8.5 10.4923C8.57292 10.4923 8.63281 10.5157 8.67969 10.5626C8.72656 10.6095 8.75 10.6694 8.75 10.7423L8.75 13.2423C8.75 13.3152 8.72656 13.3751 8.67969 13.422C8.63281 13.4689 8.57292 13.4923 8.5 13.4923ZM12.75 9.24231L10.25 9.24231C10.1771 9.24231 10.1172 9.21887 10.0703 9.172C10.0234 9.12512 10 9.06523 10 8.99231C10 8.91939 10.0234 8.8595 10.0703 8.81262C10.1172 8.76575 10.1771 8.74231 10.25 8.74231L12.75 8.74231C12.8229 8.74231 12.8828 8.76575 12.9297 8.81262C12.9766 8.8595 13 8.91939 13 8.99231C13 9.06523 12.9766 9.12512 12.9297 9.172C12.8828 9.21887 12.8229 9.24231 12.75 9.24231ZM11.5703 12.422L9.57031 10.422C9.52344 10.3647 9.5 10.3048 9.5 10.2423C9.5 10.1798 9.52344 10.1199 9.57031 10.0626C9.6224 10.0157 9.68229 9.99231 9.75 9.99231C9.81771 9.99231 9.8776 10.0157 9.92969 10.0626L11.9297 12.0626C11.9766 12.1147 12 12.1746 12 12.2423C12 12.31 11.9766 12.3699 11.9297 12.422C11.8776 12.4689 11.8177 12.4923 11.75 12.4923C11.6823 12.4923 11.6224 12.4689 11.5703 12.422Z" fill="#8C99B2"/>
</svg>
