<svg width="51" height="53" viewBox="0 0 51 53" fill="none" xmlns="http://www.w3.org/2000/svg">
<path opacity="0.5" fill-rule="evenodd" clip-rule="evenodd" d="M38.9932 5.5486C45.8422 9.99893 50.3727 17.7172 50.3727 26.493C50.3727 30.119 49.5985 33.5639 48.2086 36.6731L49.1466 38.2923C44.7999 47.0105 35.7964 53 25.3934 53C24.2572 53 23.1395 52.9284 22.041 52.7894L21.7516 51.9608C16.6979 51.2642 12.0686 49.0917 8.3575 45.8617C8.38082 45.63 8.46653 45.1216 8.51316 44.8604C3.55886 40.2991 0.453258 33.7591 0.453258 26.493C0.453258 25.1434 0.561601 23.8163 0.768002 22.5243C0.540344 22.3586 0.150172 22.0707 0 21.9443C0.955202 16.5713 3.57258 11.774 7.30287 8.10169C7.53259 8.14382 8.03316 8.26879 8.28962 8.33479C10.7966 5.96988 13.7932 4.11755 17.112 2.94772L17.5571 1.19087C20.0483 0.417087 22.6958 0 25.4414 0C30.3985 0 35.0373 1.35943 39.0056 3.72575L38.9932 5.5486ZM25.4132 1.99136C11.8806 1.99136 0.911166 12.9621 0.911166 26.493C0.911166 40.0253 11.8806 50.996 25.4132 50.996C38.9451 50.996 49.9145 40.0253 49.9145 26.493C49.9145 12.9621 38.9451 1.99136 25.4132 1.99136Z" fill="#606580"/>
</svg>
