<svg width="16" height="16" viewBox="0 0 16 16" fill="none" xmlns="http://www.w3.org/2000/svg">
<path d="M15.331 9.7181C15.0851 10.7548 14.6205 11.7316 13.9638 12.5809C13.0905 13.7104 11.9136 14.5679 10.5707 15.0529C9.22786 15.538 7.77463 15.6306 6.38107 15.3198C4.98751 15.0091 3.71127 14.3079 2.70168 13.2983C1.69209 12.2887 0.990907 11.0125 0.680177 9.61893C0.369447 8.22537 0.462024 6.77214 0.947074 5.42928C1.43213 4.08642 2.28959 2.90947 3.41913 2.03615C4.26844 1.3795 5.24516 0.914922 6.2819 0.668973C5.73267 1.75603 5.48518 2.97863 5.5768 4.20729C5.69677 5.81606 6.39019 7.32834 7.53092 8.46908C8.67166 9.60982 10.1839 10.3032 11.7927 10.4232C13.0214 10.5148 14.244 10.2673 15.331 9.7181Z" stroke="currentColor" stroke-linecap="round" stroke-linejoin="round"/>
</svg>
