<svg xmlns="http://www.w3.org/2000/svg" width="13.447" height="14" viewBox="0 0 13.447 14"><defs><style>.a{fill:#8c99b2;}</style></defs><g transform="translate(-20 -23)"><path class="a" d="M31.476,37H21.97a1.966,1.966,0,0,1-1.437-3.307L24.8,29.119V25.938h-.484a.961.961,0,0,1-.959-.96V23.959A.96.96,0,0,1,24.318,23h4.81a.96.96,0,0,1,.959.959v1.019a.961.961,0,0,1-.959.96h-.483v3.181l4.269,4.574A1.966,1.966,0,0,1,31.476,37ZM24.318,23.957l0,1.021,1.443,0V29.5l-4.527,4.849a1.01,1.01,0,0,0,.738,1.7h9.506a1.009,1.009,0,0,0,.738-1.7L27.688,29.5V24.981h1.44l0-1.022Z"/></g></svg>