<svg width="16" height="15" viewBox="0 0 16 15" fill="none" xmlns="http://www.w3.org/2000/svg">
<path fill-rule="evenodd" clip-rule="evenodd" d="M15.2956 0.704403C14.7924 0.301887 14.1887 0 13.5849 0H2.41509C1.71069 0 1.1069 0.301887 0.704384 0.704403C0.301868 1.10692 0 1.81132 0 2.41509V12.1761C0 12.8805 0.301868 13.4843 0.704384 13.8868C1.1069 14.2893 1.81132 14.5912 2.41509 14.5912H13.5849C14.2893 14.5912 14.8931 14.2893 15.2956 13.8868C15.6981 13.4843 16 12.7799 16 12.1761V2.41509C16 1.81132 15.7987 1.20755 15.2956 0.704403ZM15.2956 11.9748C15.2956 12.478 15.0943 12.9811 14.6918 13.3837C14.3899 13.7862 13.8868 13.9874 13.283 13.9874H2.61633C2.11318 13.9874 1.61005 13.7862 1.20753 13.3837C0.905642 12.9811 0.603749 12.5786 0.603749 11.9748V4.12579C0.603749 3.62264 0.805013 3.1195 1.20753 2.71698C1.50942 2.31447 2.01255 2.11321 2.61633 2.11321H13.3836C13.8868 2.11321 14.3899 2.31447 14.7924 2.71698C15.0943 3.1195 15.3962 3.52201 15.3962 4.12579V11.9748H15.2956Z" fill="currentColor"/>
<path fill-rule="evenodd" clip-rule="evenodd" d="M5.73575 11.774H2.51565V8.55384C2.51565 8.35258 2.415 8.25195 2.21374 8.25195C2.01248 8.25195 1.91187 8.35258 1.91187 8.55384V12.0759C1.91187 12.2771 2.01248 12.3777 2.21374 12.3777H5.73575C5.93701 12.3777 6.03766 12.2771 6.03766 12.0759C6.13829 11.9752 5.93701 11.774 5.73575 11.774Z" fill="currentColor"/>
<path fill-rule="evenodd" clip-rule="evenodd" d="M13.5849 3.32129H10.0629C9.86163 3.32129 9.76099 3.42192 9.76099 3.62318C9.76099 3.82443 9.86163 3.92506 10.0629 3.92506H13.283V7.14519C13.283 7.34645 13.3836 7.44708 13.5849 7.44708C13.7862 7.44708 13.8868 7.34645 13.8868 7.14519V3.62318C13.8868 3.52255 13.7862 3.32129 13.5849 3.32129Z" fill="currentColor"/>
</svg>
