<svg width="15" height="15" viewBox="0 0 15 15" fill="none" xmlns="http://www.w3.org/2000/svg">
<path d="M10.8125 0.125C8.69434 0.125 6.96728 1.81689 6.88818 3.91309C6.67285 3.86475 6.51904 3.81641 6.28613 3.76367C5.78076 3.65381 5.32812 3.55713 5.32812 3.55713L5.31055 3.55273H5.30176C4.2207 3.37695 3.1792 3.86914 2.44971 4.59863L1.20605 5.84668C-0.125488 7.17383 -0.195801 9.30518 0.986328 10.7334L0.801758 10.918C-0.0859378 11.8013 -0.0947263 13.2471 0.810547 14.082C1.70264 14.9565 3.14404 14.9697 3.9834 14.0645L4.47998 13.5635C4.87109 13.5898 5.29736 13.5063 5.6665 13.2339C6.27295 12.7769 7.20459 12.0913 8.03516 11.4717C8.44824 11.1641 8.83057 10.8696 9.14258 10.6323C9.35791 10.4653 9.47656 10.3599 9.6084 10.25H9.64356L9.80615 10.083C10.3291 9.56445 10.3555 8.7251 9.89844 8.1582L10.1621 7.9165C10.373 7.95166 10.5884 8 10.8125 8C12.979 8 14.75 6.229 14.75 4.0625C14.75 3.45166 14.6006 2.88037 14.3589 2.375L14.0117 1.6543L11.397 4.27344L10.6016 3.47803L13.2207 0.863281L12.5 0.520508C11.9946 0.274415 11.4233 0.125 10.8125 0.125ZM10.8125 1.25C10.9355 1.25 11.0366 1.31592 11.1597 1.3291L9.01074 3.47803L11.397 5.86426L13.5415 3.71973C13.5591 3.83398 13.625 3.93945 13.625 4.0625C13.625 5.62256 12.3726 6.875 10.8125 6.875C10.5664 6.875 10.3335 6.84424 10.1094 6.78711L9.80615 6.70801L9.15137 7.31885L7.61328 5.60938L8.17139 5.09082L8.08789 4.76562C8.03076 4.5415 8 4.3042 8 4.0625C8 2.50244 9.24805 1.25 10.8125 1.25ZM4.64258 4.66455C4.80518 4.64258 4.96777 4.63818 5.11719 4.66455H5.12158C5.14355 4.66895 5.55664 4.75244 6.04443 4.86231C6.28174 4.91504 6.40039 4.9502 6.62012 5.00293L6.44434 5.16992L6.03125 5.55664L6.40918 5.95215L6.44434 5.99609L8.99756 8.82617L9.00635 8.83496C9.13818 8.9668 9.13818 9.16016 9.01074 9.2876C8.98877 9.30957 8.75146 9.51172 8.45264 9.74023C8.15381 9.97314 7.77148 10.2632 7.3584 10.5708C6.53662 11.186 5.60059 11.8716 4.98975 12.3286C4.84473 12.4385 4.67334 12.4692 4.48437 12.4429C4.29541 12.4165 4.10205 12.3066 4.03613 12.2407L1.99268 10.1973C1.0127 9.21729 1.02148 7.61768 1.99707 6.6377L3.24512 5.39404C3.63184 5.00732 4.15039 4.73486 4.64258 4.66455ZM1.75977 11.5508L3.24512 13.0405C3.27148 13.0669 3.31103 13.0845 3.3418 13.1108L3.16602 13.291L3.15723 13.2998C2.75293 13.7393 2.06299 13.748 1.59277 13.2822L1.5752 13.2646C1.13574 12.8647 1.12695 12.1836 1.59277 11.7178L1.75977 11.5508Z" fill="#8C99B2"/>
</svg>
