<svg width="64" height="64" viewBox="0 0 64 64" fill="none" xmlns="http://www.w3.org/2000/svg">
<path fill-rule="evenodd" clip-rule="evenodd" d="M41.9731 34.5506L34.9731 21.4906C34.8964 21.3263 34.7729 21.1884 34.6181 21.0942C34.4633 20.9999 34.2842 20.9534 34.1031 20.9606C33.9208 20.954 33.7404 21.0006 33.5842 21.0947C33.4279 21.1888 33.3025 21.3264 33.2231 21.4906L26.2231 34.5506C26.1278 34.6999 26.0772 34.8734 26.0772 35.0506C26.0772 35.2277 26.1278 35.4012 26.2231 35.5506C26.3124 35.7013 26.4398 35.8259 26.5925 35.9119C26.7452 35.9979 26.9178 36.0423 27.0931 36.0406H41.0931C41.2666 36.0405 41.4372 35.9953 41.588 35.9094C41.7387 35.8235 41.8646 35.6998 41.9531 35.5506C42.0507 35.4021 42.1027 35.2283 42.1027 35.0506C42.1027 34.8729 42.0507 34.699 41.9531 34.5506H41.9731ZM27.133 35.0206L34.133 21.9606L41.133 35.0206H27.133ZM33.133 27.0206C33.1272 26.8859 33.1511 26.7516 33.2029 26.6272C33.2548 26.5028 33.3334 26.3913 33.433 26.3006C33.6204 26.1143 33.8738 26.0098 34.138 26.0098C34.4022 26.0098 34.6557 26.1143 34.8431 26.3006C34.9428 26.3913 35.0212 26.5028 35.0731 26.6272C35.1249 26.7516 35.1488 26.8859 35.143 27.0206V30.0206C35.1425 30.1529 35.1156 30.2837 35.0641 30.4056C35.0127 30.5275 34.9376 30.6379 34.8431 30.7306C34.6557 30.9168 34.4022 31.0214 34.138 31.0214C33.8738 31.0214 33.6204 30.9168 33.433 30.7306C33.3386 30.6379 33.2633 30.5275 33.2119 30.4056C33.1604 30.2837 33.1335 30.1529 33.133 30.0206V27.0206ZM33.433 32.3106C33.5984 32.1485 33.8148 32.0489 34.0455 32.0286C34.2761 32.0084 34.5066 32.0688 34.6977 32.1996C34.8888 32.3304 35.0286 32.5234 35.0932 32.7457C35.1578 32.968 35.1433 33.2059 35.0521 33.4187C34.9609 33.6315 34.7986 33.8061 34.5931 33.9126C34.3875 34.0192 34.1513 34.0511 33.9249 34.0029C33.6984 33.9548 33.4957 33.8295 33.3513 33.6485C33.2068 33.4675 33.1297 33.2421 33.133 33.0106C33.1296 32.8756 33.1535 32.7414 33.2033 32.6159C33.2531 32.4904 33.3279 32.3764 33.423 32.2806L33.433 32.3106Z" fill="#616580"/>
<path d="M56 30.5001C56 42.6504 46.1503 52.5001 34 52.5001C21.8497 52.5001 12 42.6504 12 30.5001C12 18.3499 21.8497 8.50012 34 8.50012" stroke="#191C2A" stroke-width="3" stroke-linecap="round"/>
<g filter="url(#filter0_d)">
<path d="M34 8.50012C21.8497 8.50012 12 18.3499 12 30.5001C12 42.6504 21.8497 52.5001 34 52.5001C41.2316 52.5001 47.6483 49.0109 51.6584 43.6242" stroke="white" stroke-width="3" stroke-linecap="round"/>
</g>
<circle cx="48.0601" cy="16.5001" r="9" fill="#DA2329"/>
<path d="M50.2671 18.1857C50.2671 18.5372 50.2101 18.8628 50.0962 19.1622C49.9855 19.4617 49.8293 19.7205 49.6274 19.9386C49.4224 20.16 49.1668 20.3341 48.8608 20.4611C48.5581 20.588 48.2179 20.6515 47.8403 20.6515C47.492 20.6515 47.1486 20.6124 46.8101 20.5343C46.4748 20.4594 46.1834 20.3601 45.936 20.2365V19.2062H46.0044C46.0793 19.2615 46.1867 19.325 46.3267 19.3966C46.4666 19.465 46.6213 19.5301 46.7905 19.5919C46.9826 19.6603 47.1584 19.714 47.3179 19.7531C47.4774 19.7889 47.6564 19.8068 47.855 19.8068C48.0503 19.8068 48.2407 19.7726 48.4263 19.7042C48.6118 19.6326 48.7713 19.5187 48.9048 19.3624C49.0252 19.2192 49.1164 19.0516 49.1782 18.8595C49.2433 18.6674 49.2759 18.4412 49.2759 18.1808C49.2759 17.9236 49.2401 17.712 49.1685 17.546C49.1001 17.38 48.9992 17.2433 48.8657 17.1359C48.7257 17.0122 48.5532 16.9259 48.3481 16.8771C48.1463 16.825 47.9201 16.799 47.6694 16.799C47.4058 16.799 47.1405 16.8201 46.8735 16.8624C46.6066 16.9015 46.3934 16.9389 46.2339 16.9747V13.2296H50.2231V14.0841H47.1763V16.0177C47.2935 16.0047 47.409 15.9949 47.5229 15.9884C47.6369 15.9819 47.741 15.9786 47.8354 15.9786C48.2065 15.9786 48.5207 16.0096 48.7778 16.0714C49.035 16.1333 49.2824 16.2537 49.52 16.4327C49.7609 16.615 49.9448 16.8429 50.0718 17.1163C50.202 17.3898 50.2671 17.7462 50.2671 18.1857Z" fill="white"/>
<defs>
<filter id="filter0_d" x="0.5" y="-2.99988" width="62.6585" height="67" filterUnits="userSpaceOnUse" color-interpolation-filters="sRGB">
<feFlood flood-opacity="0" result="BackgroundImageFix"/>
<feColorMatrix in="SourceAlpha" type="matrix" values="0 0 0 0 0 0 0 0 0 0 0 0 0 0 0 0 0 0 127 0"/>
<feOffset/>
<feGaussianBlur stdDeviation="5"/>
<feColorMatrix type="matrix" values="0 0 0 0 0.3625 0 0 0 0 0.847 0 0 0 0 1 0 0 0 0.5 0"/>
<feBlend mode="normal" in2="BackgroundImageFix" result="effect1_dropShadow"/>
<feBlend mode="normal" in="SourceGraphic" in2="effect1_dropShadow" result="shape"/>
</filter>
</defs>
</svg>
