<svg width="64" height="64" viewBox="0 0 64 64" fill="none" xmlns="http://www.w3.org/2000/svg">
    <path fill-rule="evenodd" clip-rule="evenodd"
          d="M41.9731 34.5506L34.9731 21.4906C34.8964 21.3263 34.7729 21.1884 34.6181 21.0942C34.4633 20.9999 34.2842 20.9534 34.1031 20.9606C33.9208 20.954 33.7404 21.0006 33.5842 21.0947C33.4279 21.1888 33.3025 21.3264 33.2231 21.4906L26.2231 34.5506C26.1278 34.6999 26.0772 34.8734 26.0772 35.0506C26.0772 35.2277 26.1278 35.4012 26.2231 35.5506C26.3124 35.7013 26.4398 35.8259 26.5925 35.9119C26.7452 35.9979 26.9178 36.0423 27.0931 36.0406H41.0931C41.2666 36.0405 41.4372 35.9953 41.588 35.9094C41.7387 35.8235 41.8646 35.6998 41.9531 35.5506C42.0507 35.4021 42.1027 35.2283 42.1027 35.0506C42.1027 34.8729 42.0507 34.699 41.9531 34.5506H41.9731ZM27.133 35.0206L34.133 21.9606L41.133 35.0206H27.133ZM33.133 27.0206C33.1272 26.8859 33.1511 26.7516 33.2029 26.6272C33.2548 26.5028 33.3334 26.3913 33.433 26.3006C33.6204 26.1143 33.8738 26.0098 34.138 26.0098C34.4022 26.0098 34.6557 26.1143 34.8431 26.3006C34.9428 26.3913 35.0212 26.5028 35.0731 26.6272C35.1249 26.7516 35.1488 26.8859 35.143 27.0206V30.0206C35.1425 30.1529 35.1156 30.2837 35.0641 30.4056C35.0127 30.5275 34.9376 30.6379 34.8431 30.7306C34.6557 30.9168 34.4022 31.0214 34.138 31.0214C33.8738 31.0214 33.6204 30.9168 33.433 30.7306C33.3386 30.6379 33.2633 30.5275 33.2119 30.4056C33.1604 30.2837 33.1335 30.1529 33.133 30.0206V27.0206ZM33.433 32.3106C33.5984 32.1485 33.8148 32.0489 34.0455 32.0286C34.2761 32.0084 34.5066 32.0688 34.6977 32.1996C34.8888 32.3304 35.0286 32.5234 35.0932 32.7457C35.1578 32.968 35.1433 33.2059 35.0521 33.4187C34.9609 33.6315 34.7986 33.8061 34.5931 33.9126C34.3875 34.0192 34.1513 34.0511 33.9249 34.0029C33.6984 33.9548 33.4957 33.8295 33.3513 33.6485C33.2068 33.4675 33.1297 33.2421 33.133 33.0106C33.1296 32.8756 33.1535 32.7414 33.2033 32.6159C33.2531 32.4904 33.3279 32.3764 33.423 32.2806L33.433 32.3106Z"
          fill="#616580"/>
    <path d="M56 30.5001C56 42.6504 46.1503 52.5001 34 52.5001C21.8497 52.5001 12 42.6504 12 30.5001C12 18.3499 21.8497 8.50012 34 8.50012"
          stroke="#191C2A" stroke-width="3" stroke-linecap="round"/>
    <g filter="url(#filter0_d)">
        <path d="M34 8.50012C21.8497 8.50012 12 18.3499 12 30.5001C12 42.6504 21.8497 52.5001 34 52.5001C41.2316 52.5001 47.6483 49.0109 51.6584 43.6242"
              stroke="white" stroke-width="3" stroke-linecap="round"/>
    </g>
    <defs>
        <filter id="filter0_d" x="0.5" y="-2.99988" width="62.6585" height="67"
                filterUnits="userSpaceOnUse" color-interpolation-filters="sRGB">
            <feFlood flood-opacity="0" result="BackgroundImageFix"/>
            <feColorMatrix in="SourceAlpha" type="matrix"
                           values="0 0 0 0 0 0 0 0 0 0 0 0 0 0 0 0 0 0 127 0"/>
            <feOffset/>
            <feGaussianBlur stdDeviation="5"/>
            <feColorMatrix type="matrix"
                           values="0 0 0 0 0.3625 0 0 0 0 0.847 0 0 0 0 1 0 0 0 0.5 0"/>
            <feBlend mode="normal" in2="BackgroundImageFix" result="effect1_dropShadow"/>
            <feBlend mode="normal" in="SourceGraphic" in2="effect1_dropShadow" result="shape"/>
        </filter>
    </defs>
</svg>
