<svg width="74" height="36" viewBox="0 0 74 36" fill="none" xmlns="http://www.w3.org/2000/svg">
<path d="M60.1076 21.7481C60.0419 21.7507 59.9764 21.7404 59.9147 21.7178C59.853 21.6951 59.7964 21.6605 59.7481 21.6159C59.6998 21.5713 59.6607 21.5176 59.6332 21.4579C59.6057 21.3983 59.5902 21.3337 59.5876 21.2681V13.0381C59.6186 12.9294 59.6842 12.8338 59.7744 12.7657C59.8647 12.6977 59.9746 12.6609 60.0876 12.6609C60.2006 12.6609 60.3105 12.6977 60.4007 12.7657C60.491 12.8338 60.5566 12.9294 60.5876 13.0381V21.2681C60.5863 21.3333 60.572 21.3976 60.5456 21.4572C60.5191 21.5168 60.481 21.5706 60.4335 21.6153C60.386 21.66 60.3301 21.6948 60.2689 21.7176C60.2078 21.7404 60.1428 21.7507 60.0776 21.7481H60.1076ZM61.0676 11.1281H59.1376C57.5076 11.1281 57.4076 12.4481 57.4076 13.2981V21.1281C57.4076 21.9881 57.5076 23.2981 59.1376 23.2981H61.0676C62.7076 23.2981 62.8076 21.9881 62.8076 21.1281V13.3281C62.8076 12.4781 62.7076 11.1581 61.0676 11.1581" fill="white"/>
<path d="M24.6976 11.108H29.1476V12.618H27.0276V23.258H24.6976V11.108Z" fill="white"/>
<path d="M29.4875 23.2481H31.7775L31.9875 20.0281H33.0975L33.3075 23.2481H35.5975L34.3775 11.1281H30.6675L29.4875 23.2481ZM32.0775 18.6881L32.4776 12.6181H32.6075L33.0075 18.6881H32.0775Z" fill="white"/>
<path d="M38.9377 18.998V21.288C38.9336 21.3383 38.9398 21.3888 38.9559 21.4365C38.972 21.4843 38.9977 21.5282 39.0314 21.5657C39.0651 21.6031 39.1061 21.6333 39.1519 21.6543C39.1977 21.6754 39.2473 21.6868 39.2977 21.688C39.3484 21.6868 39.3985 21.6753 39.4447 21.6544C39.491 21.6335 39.5327 21.6035 39.5671 21.5662C39.6016 21.5289 39.6283 21.4851 39.6456 21.4373C39.6628 21.3895 39.6703 21.3388 39.6677 21.288V18.458C39.6677 18.078 39.5977 17.668 38.7277 17.668H37.7877V16.328H38.7877C39.4477 16.328 39.6877 16.168 39.6877 15.428V13.018C39.6903 12.9673 39.6828 12.9166 39.6656 12.8688C39.6483 12.821 39.6216 12.7772 39.5871 12.7399C39.5527 12.7026 39.511 12.6726 39.4647 12.6517C39.4185 12.6307 39.3684 12.6193 39.3177 12.618C39.2673 12.6192 39.2177 12.6307 39.1719 12.6517C39.1261 12.6728 39.0851 12.703 39.0514 12.7404C39.0177 12.7779 38.992 12.8218 38.9759 12.8695C38.9598 12.9173 38.9536 12.9678 38.9577 13.018V15.018H36.5977V13.278C36.5977 12.428 36.6977 11.108 38.3377 11.108H40.2677C41.8977 11.108 41.9977 12.428 41.9977 13.278V15.278C42.0255 15.4948 42.0043 15.7151 41.9356 15.9226C41.867 16.1301 41.7526 16.3196 41.601 16.477C41.4493 16.6344 41.2643 16.7557 41.0595 16.8321C40.8547 16.9084 40.6353 16.9378 40.4177 16.918V17.038C40.6376 17.0119 40.8606 17.0373 41.0691 17.112C41.2776 17.1868 41.4659 17.3091 41.6191 17.469C41.7723 17.629 41.8862 17.8224 41.9519 18.034C42.0176 18.2455 42.0333 18.4694 41.9977 18.688V21.128C41.9977 21.988 41.8977 23.298 40.2677 23.298H38.3377C36.6977 23.298 36.5977 21.988 36.5977 21.128V18.998H38.9377Z" fill="white"/>
<path d="M43.5376 11.108H48.9376V23.258H46.7576V12.618H45.7076V23.258H43.5376V11.108Z" fill="white"/>
<path d="M50.6676 23.248H52.9976V19.128H54.3276C55.9676 19.128 56.2276 17.808 56.2276 16.958V13.278C56.2276 12.428 55.9676 11.108 54.3276 11.108H50.6676V23.248ZM52.9976 17.788V12.618H53.6076C53.8676 12.618 54.0476 12.848 54.0476 13.218V17.218C54.0476 17.598 53.8676 17.828 53.6076 17.828L52.9976 17.788Z" fill="white"/>
<path d="M70.2476 11.108H73.2876V23.258H70.9476V15.638H70.8676L69.6676 23.258H67.7976L66.5976 15.638H66.5176V23.258H64.1876V11.108H67.2176L68.7276 19.648L70.2476 11.108Z" fill="white"/>
<path d="M19.7176 12.348C19.7027 13.457 19.5822 14.562 19.3576 15.648C19.4021 14.0713 19.268 12.4946 18.9576 10.948C18.559 9.18201 17.9268 7.47699 17.0776 5.87804C16.2406 7.47579 15.6185 9.1772 15.2276 10.938C14.9285 12.5068 14.7845 14.1011 14.7976 15.698C14.551 14.1878 14.4472 12.6577 14.4876 11.128C14.5702 9.71577 14.7947 8.31539 15.1576 6.94804C15.6278 5.35242 16.2717 3.81321 17.0776 2.35804C17.902 3.78208 18.5532 5.2995 19.0176 6.87804C19.5097 8.67249 19.7454 10.5275 19.7176 12.388V12.348ZM17.0976 21.808C16.4467 20.5748 16.1036 19.2025 16.0976 17.808C16.0963 16.4286 16.4401 15.0707 17.0976 13.858C17.7012 15.0306 18.0424 16.3204 18.0976 17.638C18.1187 19.0867 17.7748 20.5173 17.0976 21.798V21.808ZM19.9276 6.89804C19.3478 4.65917 18.3908 2.53545 17.0976 0.618042C15.9658 2.32165 15.0803 4.17666 14.4676 6.12804C13.7178 8.69349 13.4934 11.3838 13.8076 14.038C14.0481 15.7791 14.4981 17.4848 15.1476 19.118C15.6811 20.3559 16.352 21.5299 17.1476 22.618C18.8544 20.1658 19.9609 17.3466 20.3776 14.388C20.7497 11.896 20.6102 9.35436 19.9676 6.91804" fill="white"/>
<path d="M12.5676 23.2481V27.0681C13.2113 26.4336 14.0788 26.0779 14.9826 26.0779C15.8864 26.0779 16.7539 26.4336 17.3976 27.0681C17.7163 27.3833 17.9693 27.7587 18.1419 28.1723C18.3146 28.586 18.4035 29.0298 18.4035 29.4781C18.4035 29.9263 18.3146 30.3702 18.1419 30.7838C17.9693 31.1975 17.7163 31.5728 17.3976 31.8881C16.2005 33.0892 14.5989 33.8012 12.9053 33.8853C11.2116 33.9693 9.54738 33.4195 8.23723 32.3429C6.92708 31.2663 6.065 29.7402 5.81916 28.0624C5.57333 26.3845 5.96138 24.6753 6.9076 23.2681C7.15396 22.9079 7.43533 22.5729 7.7476 22.2681C8.38159 21.6335 9.13455 21.1301 9.96336 20.7869C10.7922 20.4437 11.6805 20.2674 12.5776 20.2681V11.1681C10.5703 11.1737 8.59584 11.6781 6.83186 12.6361C5.06787 13.5941 3.56969 14.9755 2.47206 16.6562C1.37443 18.3368 0.71179 20.2639 0.543738 22.2642C0.375685 24.2645 0.707495 26.2752 1.50932 28.1154C2.31114 29.9556 3.55783 31.5677 5.13725 32.8065C6.71666 34.0454 8.57927 34.8722 10.5575 35.2126C12.5358 35.553 14.5676 35.3964 16.4703 34.7567C18.373 34.117 20.0868 33.0144 21.4576 31.5481V23.2481H12.5676Z" fill="white"/>
<path d="M71.1076 32.528C71.1076 33.678 70.5776 33.878 69.2376 33.878H68.0076V28.608H69.2376V30.608H69.4476C70.6576 30.608 71.1076 30.888 71.1076 31.938V32.528ZM60.8276 29.608H59.8976V33.888H58.7176V29.608H57.7176V28.608H60.8276V29.608ZM51.3476 31.998C51.3476 33.068 50.8076 33.358 49.5876 33.358V33.878H48.3976V33.358C47.1776 33.358 46.6276 33.068 46.6276 31.998V30.358C46.6276 29.278 47.1576 29.008 48.3976 29.008V28.608H49.5876V29.008C50.8276 29.008 51.3476 29.278 51.3476 30.358V31.998ZM40.1876 29.608H38.4976V30.608H40.0076V31.608H38.4976V32.848H40.1876V33.848H37.1876V28.608H40.1876V29.608ZM29.9676 33.878H28.7376V31.578H28.1076V33.878H26.8776V28.608H28.1076V30.608H28.7376V28.608H29.9676V33.878ZM73.2876 27.298H24.6676V35.388H73.2876V27.298ZM47.8276 30.298V31.988C47.8276 32.298 47.9276 32.368 48.1976 32.368H48.3976V29.928H48.1976C47.9276 29.928 47.8276 30.008 47.8276 30.318V30.298ZM69.5176 31.578H69.2376V32.948H69.5176C69.7876 32.948 69.8776 32.878 69.8776 32.578V31.948C69.8776 31.648 69.7876 31.578 69.5176 31.578ZM49.7776 29.928H49.5876V32.388H49.7776C50.0576 32.388 50.1576 32.308 50.1576 31.998V30.308C50.1576 29.998 50.0576 29.928 49.7776 29.928Z" fill="white"/>
</svg>
