<svg width="16" height="16" viewBox="0 0 16 16" fill="none" xmlns="http://www.w3.org/2000/svg">
<path opacity="0.05" d="M7.99998 16C12.4183 16 16 12.4183 16 8C16 3.58172 12.4183 0 7.99998 0C3.58171 0 0 3.58172 0 8C0 12.4183 3.58171 16 7.99998 16Z" fill="#0089FF"/>
<path opacity="0.1" d="M7.99999 14C11.3137 14 14 11.3137 14 8C14 4.68629 11.3137 2 7.99999 2C4.68628 2 2 4.68629 2 8C2 11.3137 4.68628 14 7.99999 14Z" fill="#0089FF"/>
<path opacity="0.1" d="M7.99999 12C10.2091 12 12 10.2091 12 8C12 5.79086 10.2091 4 7.99999 4C5.79085 4 4 5.79086 4 8C4 10.2091 5.79085 12 7.99999 12Z" fill="#0089FF"/>
<path d="M8 10C9.10456 10 10 9.10457 10 8C10 6.89543 9.10456 6 8 6C6.89543 6 6 6.89543 6 8C6 9.10457 6.89543 10 8 10Z" fill="#0089FF"/>
</svg>
