<svg width="8" height="11" viewBox="0 0 8 11" xmlns="http://www.w3.org/2000/svg">
<path fill-rule="evenodd" clip-rule="evenodd" d="M7.11906 2.87622H0.47188C0.47188 2.90516 0.471157 2.93323 0.47045 2.96064C0.468936 3.0194 0.467498 3.07518 0.473425 3.13024C0.529923 3.64645 0.58735 4.1622 0.644783 4.67799L0.644783 4.67799L0.644784 4.678C0.692016 5.10218 0.739251 5.52639 0.785975 5.95091C0.842367 6.46509 0.898396 6.97925 0.954414 7.49331L0.954444 7.49359L0.954448 7.49362C1.01394 8.03952 1.07341 8.5853 1.13329 9.13088C1.14132 9.20528 1.1489 9.27969 1.15647 9.35406L1.15647 9.35408L1.15647 9.3541L1.15647 9.35411C1.17732 9.55893 1.19815 9.76351 1.22833 9.96721C1.26793 10.2339 1.42286 10.3834 1.64442 10.3834C2.35732 10.3842 3.07041 10.3842 3.78349 10.3842C4.49658 10.3842 5.20967 10.3842 5.92256 10.3849C6.10221 10.3858 6.22256 10.2979 6.28978 10.1437C6.32861 10.0535 6.34677 9.9506 6.35855 9.85169C6.52081 8.42745 6.68153 7.00253 6.83974 5.57674C6.91851 4.87359 6.99316 4.16922 7.06776 3.46525L7.06777 3.46515L7.0953 3.20538C7.10303 3.13042 7.10771 3.05507 7.11255 2.97714V2.97713C7.11461 2.94402 7.1167 2.91044 7.11906 2.87622ZM2.70182 8.98615L2.70243 8.99721C2.69992 9.17126 2.58132 9.3057 2.42871 9.31758C2.26007 9.33111 2.12157 9.21714 2.10109 9.03517C2.0188 8.31435 1.93806 7.59277 1.85886 6.87118C1.80391 6.37353 1.74954 5.87591 1.69517 5.37829L1.69516 5.37823L1.69515 5.37816C1.64077 4.88047 1.58639 4.38277 1.53144 3.88506C1.5069 3.65953 1.62068 3.49814 1.8123 3.49263C1.96742 3.4879 2.10109 3.58835 2.1208 3.74897C2.15429 4.01852 2.18281 4.28847 2.21134 4.55852C2.22526 4.69032 2.23919 4.82215 2.2537 4.95397C2.28037 5.19431 2.30737 5.43463 2.33438 5.67494L2.33442 5.67526L2.33442 5.67532C2.3612 5.91358 2.38798 6.15184 2.41442 6.39009C2.48013 6.97681 2.54521 7.56389 2.61027 8.15087L2.69915 8.95211C2.70085 8.96442 2.7014 8.97673 2.70182 8.98612L2.70182 8.98614V8.98615ZM6.04599 3.88038C6.05082 3.64143 5.944 3.50689 5.77865 3.49423C5.59745 3.48004 5.46532 3.6027 5.44388 3.80128C5.39997 4.20955 5.3554 4.61753 5.31081 5.02563L5.31066 5.02698L5.23989 5.6757L5.13424 6.64154L5.13419 6.64201C5.05047 7.40701 4.96674 8.17205 4.88369 8.93709C4.86089 9.14205 4.96289 9.29629 5.13307 9.31687C5.31504 9.33985 5.45586 9.22115 5.48039 9.00992C5.52168 8.65743 5.55968 8.30447 5.59769 7.95141L5.59772 7.95114L5.6299 7.6529C5.66001 7.37294 5.68982 7.09298 5.71964 6.81302L5.71964 6.81294C5.77686 6.27562 5.83408 5.73828 5.89339 5.20089C5.92793 4.88452 5.96516 4.56848 6.00052 4.26836L6.00054 4.26818C6.01619 4.13534 6.03147 4.00563 6.04599 3.88038ZM4.09015 6.42102H4.08861C4.08861 6.63034 4.08866 6.83965 4.08871 7.04894C4.08885 7.67676 4.089 8.30443 4.08784 8.93166C4.08706 9.00361 4.08223 9.08117 4.05693 9.14685C4.00786 9.27029 3.8711 9.33596 3.73974 9.31616C3.61631 9.29801 3.50775 9.18877 3.48804 9.05664C3.48377 9.02583 3.48422 8.99412 3.48467 8.9622C3.48481 8.95229 3.48495 8.94236 3.48495 8.93243V5.9946C3.48495 5.27775 3.48495 4.56166 3.48573 3.84481C3.48573 3.65966 3.57342 3.53149 3.71907 3.4999C3.9192 3.4548 4.08455 3.59321 4.08784 3.81554C4.09084 4.09125 4.09057 4.36649 4.09031 4.64162C4.09023 4.72022 4.09015 4.79881 4.09015 4.8774C4.09067 5.22083 4.0905 5.56391 4.09033 5.90686C4.09024 6.07827 4.09015 6.24965 4.09015 6.42102Z"/>
<path fill-rule="evenodd" clip-rule="evenodd" d="M2.40781 1.08544C2.4079 1.17409 2.40799 1.26431 2.40799 1.35691H2.23781C2.07644 1.35714 1.91499 1.35676 1.7535 1.35638C1.35845 1.35546 0.963197 1.35453 0.568429 1.36242C0.451368 1.36483 0.320785 1.40434 0.221882 1.46683C0.0200187 1.59422 -0.0456591 1.84583 0.0312226 2.07773C0.103855 2.29611 0.308808 2.4377 0.565145 2.4377C1.05943 2.43816 1.55371 2.43779 2.04782 2.43742C2.37711 2.43717 2.70632 2.43693 3.03541 2.43693C3.36438 2.43693 3.69334 2.43688 4.0223 2.43683C5.00915 2.43669 5.99594 2.43654 6.98284 2.4377C7.17833 2.43847 7.34832 2.38545 7.46712 2.22483C7.59442 2.05155 7.61509 1.85935 7.52236 1.66463C7.42443 1.45813 7.25192 1.35527 7.02476 1.3545C6.62542 1.35278 6.22609 1.35312 5.82676 1.35345C5.66513 1.35359 5.50349 1.35373 5.34186 1.35373C5.30131 1.35373 5.2613 1.35061 5.22407 1.34771C5.21182 1.34675 5.19986 1.34582 5.18829 1.34503C5.18541 1.33743 5.1829 1.3314 5.18082 1.32641C5.17661 1.3163 5.17419 1.31048 5.17419 1.30466C5.17245 1.06098 5.17168 0.817292 5.1709 0.573608C5.17013 0.224646 4.98333 0.0355319 4.63524 0.0347592C4.07428 0.0339865 3.51331 0.0339865 2.95157 0.0347592C2.59227 0.0355319 2.40876 0.219913 2.40799 0.579113C2.40748 0.745899 2.40764 0.912686 2.40781 1.08544ZM4.40652 1.33078H3.16752V0.795116H4.40652V1.33078Z"/>
</svg>
