<svg width="30" height="30" viewBox="0 0 30 30" fill="none" xmlns="http://www.w3.org/2000/svg">
<path d="M15.1927 29.3854C23.0311 29.3854 29.3854 23.0311 29.3854 15.1927C29.3854 7.35428 23.0311 1 15.1927 1C7.35428 1 1 7.35428 1 15.1927C1 23.0311 7.35428 29.3854 15.1927 29.3854Z" stroke="#606580" stroke-width="0.5"/>
<path opacity="0.1" d="M15.1921 27.8397C22.1768 27.8397 27.8391 22.1774 27.8391 15.1927C27.8391 8.20801 22.1768 2.54578 15.1921 2.54578C8.2074 2.54578 2.54517 8.20801 2.54517 15.1927C2.54517 22.1774 8.2074 27.8397 15.1921 27.8397Z" fill="#606580"/>
<path opacity="0.1" d="M15.1927 26.4347C21.4013 26.4347 26.4344 21.4017 26.4344 15.193C26.4344 8.98439 21.4013 3.95129 15.1927 3.95129C8.98402 3.95129 3.95093 8.98439 3.95093 15.193C3.95093 21.4017 8.98402 26.4347 15.1927 26.4347Z" fill="#606580"/>
<path opacity="0.1" d="M15.1922 25.0295C20.6248 25.0295 25.0287 20.6255 25.0287 15.193C25.0287 9.7604 20.6248 5.35645 15.1922 5.35645C9.75967 5.35645 5.35571 9.7604 5.35571 15.193C5.35571 20.6255 9.75967 25.0295 15.1922 25.0295Z" fill="#606580"/>
<path opacity="0.1" d="M15.1928 23.6242C19.8492 23.6242 23.6241 19.8494 23.6241 15.1929C23.6241 10.5364 19.8492 6.7616 15.1928 6.7616C10.5363 6.7616 6.76147 10.5364 6.76147 15.1929C6.76147 19.8494 10.5363 23.6242 15.1928 23.6242Z" fill="#606580"/>
<path d="M15.7178 18.5796C18.1973 18.5796 20.2074 16.5695 20.2074 14.09C20.2074 11.6105 18.1973 9.60046 15.7178 9.60046C13.2383 9.60046 11.2283 11.6105 11.2283 14.09C11.2283 16.5695 13.2383 18.5796 15.7178 18.5796Z" stroke="#606580"/>
<path d="M9.65346 20.7079C9.52812 20.8332 9.32491 20.8332 9.19957 20.7079L9.09019 20.5985C8.96485 20.4731 8.96485 20.2699 9.09019 20.1446L12.2714 16.9634C12.3967 16.8381 12.5999 16.8381 12.7252 16.9634L12.8346 17.0728C12.96 17.1982 12.96 17.4014 12.8346 17.5267L9.65346 20.7079Z" fill="#606580"/>
</svg>
