<svg width="16" height="17" fill="currentColor" viewBox="0 0 16 17" xmlns="http://www.w3.org/2000/svg">
<path fill-rule="evenodd" clip-rule="evenodd" d="M6.00488 2.80272L6.19189 1.70274C6.27002 1.23472 6.6731 0.893781 7.14795 0.900739H8.5271C9.00195 0.900739 9.40405 1.24071 9.48291 1.70872L9.66602 2.8098C10.033 2.92076 10.3899 3.07176 10.7339 3.25169L11.644 2.60374C12.031 2.32872 12.5581 2.37376 12.8921 2.70775L13.8679 3.6837C14.051 3.86778 14.1531 4.10972 14.1531 4.36778C14.1531 4.57176 14.0911 4.7678 13.9729 4.93175L13.324 5.83873C13.5049 6.17869 13.6521 6.53575 13.7659 6.90574L14.8669 7.09276C15.335 7.17174 15.676 7.57481 15.676 8.04881V9.43175C15.676 9.90574 15.335 10.3087 14.8669 10.3867L13.7659 10.5708C13.655 10.9277 13.5139 11.2748 13.3411 11.6047L13.9961 12.5257C14.114 12.6898 14.176 12.8828 14.176 13.0858C14.176 13.3447 14.074 13.5868 13.8909 13.7698L12.915 14.7457C12.5811 15.0827 12.054 15.1257 11.667 14.8507L10.77 14.2058C10.429 14.3888 10.073 14.5398 9.70605 14.6538L9.51587 15.7678C9.43701 16.2357 9.03394 16.5758 8.56006 16.5758H7.18091C6.70605 16.5758 6.30298 16.2357 6.22388 15.7678L6.04102 14.6808C5.6709 14.5687 5.31396 14.4248 4.96997 14.2447L4.05005 14.8998C3.66406 15.1748 3.13599 15.1288 2.802 14.7948L1.82593 13.8158C1.64307 13.6357 1.54102 13.3898 1.54102 13.1317C1.54102 12.9287 1.604 12.7318 1.72095 12.5687L2.36987 11.6677C2.18604 11.3268 2.03589 10.9697 1.9209 10.6037L0.808105 10.4138C0.338867 10.3347 -0.000976562 9.93175 -0.000976562 9.45677V8.07872C-0.000976562 7.60374 0.338867 7.20079 0.808105 7.12279L1.89502 6.9387C2.01001 6.55577 2.16406 6.18577 2.3501 5.83177L1.7019 4.92174C1.58398 4.75779 1.52197 4.5648 1.52197 4.3618C1.52197 4.10277 1.62305 3.8607 1.80688 3.67772L2.78296 2.70176C3.11694 2.36375 3.64404 2.32176 4.03003 2.59678L4.93799 3.24473C5.27808 3.0648 5.63501 2.91771 6.00488 2.80272ZM8.5271 1.77769V1.77476H7.14795C7.10596 1.77476 7.06909 1.80369 7.06299 1.84678L6.83008 3.22276C6.80396 3.3928 6.67603 3.5327 6.5061 3.57579C6.0249 3.70079 5.56299 3.88975 5.13403 4.14573C4.98291 4.23472 4.79297 4.22777 4.6521 4.12572L3.51587 3.31676C3.47998 3.29381 3.43408 3.29771 3.40503 3.32676L2.42896 4.30272C2.40601 4.32579 2.40308 4.35179 2.40308 4.36473C2.40308 4.3817 2.40894 4.39781 2.41895 4.4138L3.23096 5.54381C3.33301 5.68773 3.34009 5.87474 3.25098 6.02476C2.99194 6.46373 2.79907 6.93577 2.67505 7.42979C2.63208 7.60069 2.49097 7.72777 2.31787 7.75779L0.951904 7.9868C0.908936 7.99278 0.879883 8.02977 0.879883 8.07176V9.45079C0.879883 9.49376 0.908936 9.52977 0.951904 9.53575L2.33691 9.77171C2.50806 9.80076 2.64502 9.92869 2.69092 10.0958C2.81494 10.5768 3.01196 11.0388 3.26709 11.4647C3.35596 11.6157 3.34888 11.8048 3.24805 11.9498L2.44189 13.0787C2.43188 13.0918 2.42603 13.1087 2.42603 13.1278C2.42603 13.1448 2.42896 13.1677 2.4519 13.1898L3.42798 14.1658C3.45703 14.1958 3.5061 14.1987 3.53906 14.1758L4.68506 13.3607C4.82593 13.2588 5.01294 13.2497 5.16406 13.3378C5.59204 13.5897 6.05811 13.7767 6.53906 13.8978C6.70898 13.9408 6.83691 14.0808 6.86597 14.2547L7.09497 15.6207C7.10205 15.6627 7.13794 15.6927 7.18091 15.6927H8.56006C8.60205 15.6927 8.63794 15.6627 8.64502 15.6207L8.87988 14.2347C8.90991 14.0648 9.03809 13.9267 9.2041 13.8817C9.68604 13.7567 10.1479 13.5608 10.573 13.3048C10.7239 13.2168 10.9141 13.2237 11.0581 13.3248L12.188 14.1307C12.2239 14.1538 12.27 14.1498 12.2991 14.1207L13.2749 13.1448C13.2981 13.1218 13.302 13.0958 13.302 13.0827C13.302 13.0658 13.2949 13.0498 13.2849 13.0338L12.47 11.8878C12.4141 11.8118 12.3879 11.7197 12.3879 11.6317C12.3879 11.5558 12.407 11.4778 12.447 11.4088C12.689 10.9868 12.876 10.5348 12.9971 10.0668C13.0391 9.89879 13.177 9.77171 13.3511 9.7418L14.7261 9.5128C14.769 9.5067 14.7981 9.47081 14.7981 9.42772V8.04881C14.7981 8.0067 14.769 7.97081 14.7261 7.96373L13.3511 7.73179C13.1799 7.70579 13.0391 7.57774 12.9971 7.4077C12.873 6.92576 12.6819 6.46373 12.427 6.03575C12.3389 5.88475 12.345 5.69481 12.447 5.55369L13.2561 4.41771C13.2649 4.40477 13.272 4.3878 13.272 4.36778C13.272 4.35179 13.269 4.32872 13.2461 4.30577L12.27 3.32969C12.241 3.30076 12.1909 3.29771 12.1589 3.32078L11.019 4.12974C10.875 4.2307 10.688 4.2368 10.5381 4.14879C10.1089 3.89378 9.64697 3.70372 9.16504 3.57969C8.99805 3.53673 8.87109 3.39879 8.84106 3.22569L8.61206 1.84971C8.60498 1.80772 8.56909 1.77769 8.5271 1.77769Z"/>
<path fill-rule="evenodd" clip-rule="evenodd" d="M7.83753 12.1207C5.97059 12.1207 4.45448 10.6047 4.45448 8.73877C4.45448 6.87183 5.97059 5.35571 7.83753 5.35571C9.7035 5.35571 11.2206 6.87183 11.2206 8.73877C11.2206 10.6047 9.7035 12.1207 7.83753 12.1207ZM7.83753 11.2368C9.21546 11.2368 10.3356 10.1168 10.3356 8.73877C10.3356 7.35974 9.21546 6.23975 7.83753 6.23975C6.45863 6.23975 5.33851 7.35974 5.33851 8.73877C5.33851 10.1168 6.45863 11.2368 7.83753 11.2368Z"/>
</svg>
