<svg width="13" height="13" viewBox="0 0 13 13" fill="none" xmlns="http://www.w3.org/2000/svg">
<path d="M12.2883 12.4155L12.4149 12.289C12.738 11.9658 12.738 11.4419 12.4148 11.1187L1.882 0.585862C1.55883 0.262689 1.03487 0.26268 0.711697 0.585854L0.585173 0.712377C0.262 1.03555 0.262008 1.55951 0.585182 1.88269L11.118 12.4155C11.4412 12.7387 11.9652 12.7387 12.2883 12.4155Z" fill="#616580"/>
<path d="M0.585177 12.2883L0.711701 12.4148C1.03487 12.738 1.55886 12.738 1.88203 12.4148L12.4149 1.882C12.738 1.55883 12.738 1.03485 12.4149 0.711673L12.2883 0.585149C11.9652 0.261976 11.4412 0.261984 11.118 0.585157L0.585185 11.118C0.262011 11.4412 0.262004 11.9651 0.585177 12.2883Z" fill="#616580"/>
</svg>
