<svg width="19" height="19" viewBox="0 0 19 19" fill="none" xmlns="http://www.w3.org/2000/svg">
<path fill-rule="evenodd" clip-rule="evenodd" d="M3.85791 5.27384C4.15105 5.27384 4.4442 5.21685 4.72784 5.1095C5.32769 6.02431 6.36319 6.62005 7.49912 6.62005C8.63234 6.62005 9.65834 6.04585 10.2623 5.12308C10.4876 5.23043 10.7278 5.30498 10.9775 5.34574C11.3778 6.33212 12.3428 7.03256 13.4705 7.03256C14.9553 7.03256 16.1631 5.82485 16.1631 4.34014C16.1631 3.00188 15.1806 1.89854 13.9021 1.6908C13.495 0.685198 12.5111 0 11.4118 0C10.7183 0 10.0641 0.267055 9.57012 0.731253C8.98655 0.263079 8.26184 0 7.49912 0C6.7052 0 5.94926 0.286272 5.35484 0.793876L5.16077 0.664987C4.36005 0.170968 3.36391 0.167986 2.56048 0.656703C1.38655 1.36907 1.01198 2.90414 1.72584 4.07673C2.19405 4.84741 3.01648 5.27384 3.85791 5.27384ZM2.66479 2.49426C2.74215 2.17684 2.93893 1.90813 3.21851 1.73849C3.61207 1.49827 4.102 1.49959 4.47657 1.7302L4.95022 2.0463C5.03165 2.10196 5.12258 2.12913 5.21486 2.14271C5.46322 2.25007 5.76043 2.19838 5.945 1.98268C6.3345 1.52676 6.90043 1.266 7.49893 1.266C8.10693 1.266 8.67829 1.53472 9.06915 2.00157C9.19401 2.15232 9.37451 2.22952 9.55501 2.22952C9.64322 2.22952 9.73008 2.20534 9.81286 2.16723C9.97572 2.13874 10.1264 2.04762 10.2254 1.89852C10.4914 1.50225 10.9352 1.266 11.4116 1.266C12.0399 1.266 12.6018 1.6868 12.7796 2.28916C12.8013 2.36139 12.8352 2.42634 12.8786 2.48465C12.9641 2.73315 13.1935 2.91373 13.4704 2.91373C14.2561 2.91373 14.8967 3.55287 14.8967 4.34012C14.8967 5.12571 14.2561 5.76485 13.4704 5.76485C12.6846 5.76485 12.044 5.12571 12.044 4.34012C12.044 3.9899 11.7604 3.70628 11.4116 3.70628C11.1876 3.70628 11.0004 3.82953 10.8877 4.00481C10.5552 3.87161 10.2729 3.62609 10.1169 3.29078C9.96893 2.97469 9.593 2.83619 9.27543 2.9843C8.95786 3.13075 8.82079 3.50814 8.96872 3.82556C9.05151 4.00348 9.15736 4.16484 9.27408 4.31825C8.91443 4.95342 8.24265 5.35367 7.49893 5.35367C6.55029 5.35367 5.71157 4.68338 5.50529 3.75896C5.42793 3.41835 5.09136 3.20265 4.748 3.28018C4.44129 3.34777 4.24858 3.6314 4.26622 3.93556C3.73015 4.1284 3.11401 3.9233 2.80729 3.41967C2.63765 3.14036 2.58743 2.81168 2.66479 2.49426Z" fill="#606580"/>
<path fill-rule="evenodd" clip-rule="evenodd" d="M18.3662 17.1581H17.7229V16.1415C17.7229 16.0723 17.7121 16.0044 17.6904 15.9394L15.9166 10.6735V9.12653C15.9166 8.77764 15.6329 8.49402 15.2828 8.49402H11.6674C11.3186 8.49402 11.0349 8.77764 11.0349 9.12653V10.6735L9.56514 15.0329C9.5 15.132 9.4525 15.2446 9.45114 15.3722L9.26114 15.9394C9.23807 16.0044 9.22721 16.0723 9.22721 16.1415V17.1581H5.928V16.622L7.29057 12.579C7.31229 12.5141 7.32314 12.4448 7.32314 12.3769V11.7348H9.481C9.82979 11.7348 10.1134 11.4528 10.1134 11.1026C10.1134 10.7524 9.82979 10.4688 9.481 10.4688H6.68936C6.34057 10.4688 6.05693 10.7524 6.05693 11.1026V12.2722L4.69436 16.3152C4.67264 16.3804 4.66043 16.4483 4.66043 16.5176V17.1581H2.63014V17.0156L3.56114 14.2539C3.58286 14.1873 3.59371 14.1194 3.59371 14.0515V13.8033H4.33065C4.68079 13.8033 4.96443 13.5197 4.96443 13.1708C4.96443 12.8206 4.68079 12.537 4.33065 12.537H2.96128C2.61114 12.537 2.3275 12.8206 2.3275 13.1708V13.9471L1.3965 16.7088C1.37479 16.774 1.36393 16.8433 1.36393 16.9112V17.1581H0.632428C0.283642 17.1581 0 17.4417 0 17.7919C0 18.1421 0.283642 18.4257 0.632428 18.4257H1.99636H5.29422H5.852H9.861H10.8761H17.0905H18.3662C18.7164 18.4257 19 18.1421 19 17.7919C19 17.4417 18.7164 17.1581 18.3662 17.1581ZM16.4567 17.1582H10.8761H10.4934V16.2447L10.5735 16.0101H12.9566C13.3067 16.0101 13.5904 15.7265 13.5904 15.3762C13.5904 15.0274 13.3067 14.7437 12.9566 14.7437H10.9996L11.8655 12.1762H12.9566C13.3067 12.1762 13.5904 11.8926 13.5904 11.5424C13.5904 11.1922 13.3067 10.9085 12.9566 10.9085H12.2794C12.2889 10.8651 12.3011 10.8217 12.3011 10.7783V9.76047H14.649V10.7783C14.649 10.8463 14.6598 10.9152 14.6829 10.9804L16.4567 16.2447V17.1582Z" fill="#606580"/>
</svg>
