<svg width="19" height="14" viewBox="0 0 19 14" fill="none" xmlns="http://www.w3.org/2000/svg">
<path fill-rule="evenodd" clip-rule="evenodd" d="M1.77409 1.71891C2.06876 1.43799 2.46908 1.26667 2.91333 1.26667H16.0867C16.5309 1.26667 16.9312 1.43796 17.2258 1.71884L9.49993 8.52909L1.77409 1.71891ZM1.26667 2.96015V10.45C1.26667 10.462 1.26679 10.474 1.26704 10.486L3.54151 8.74382C3.81919 8.53112 4.21672 8.58381 4.42941 8.86149C4.6421 9.13917 4.58942 9.5367 4.31174 9.7494L1.80279 11.6711C2.09451 11.9362 2.48335 12.0967 2.91333 12.0967H16.0867C16.5144 12.0967 16.9014 11.9378 17.1926 11.6753L14.63 9.75328C14.3501 9.54341 14.2934 9.14643 14.5033 8.86661C14.7132 8.58679 15.1101 8.53008 15.39 8.73994L17.7327 10.497C17.7331 10.4814 17.7333 10.4657 17.7333 10.45V2.96003L9.91873 9.84846C9.67938 10.0594 9.32048 10.0594 9.08114 9.84846L1.26667 2.96015ZM2.91333 0C1.29689 0 0 1.29689 0 2.91333V10.45C0 12.0664 1.29689 13.3633 2.91333 13.3633H16.0867C17.7031 13.3633 19 12.0664 19 10.45V2.91333C19 1.29689 17.7031 0 16.0867 0H2.91333Z" fill="#606580"/>
</svg>
