<svg width="16" height="16" viewBox="0 0 16 16" fill="none" xmlns="http://www.w3.org/2000/svg">
<path d="M10.4515 0C7.39314 0 4.90307 2.48932 4.90307 5.54679C4.90307 6.85164 5.37508 8.04093 6.13606 8.98947L0 15.1237L0.866948 16L7.00783 9.86097C7.95665 10.6217 9.1463 11.0936 10.4515 11.0936C13.5099 11.0936 16 8.60427 16 5.54679C16 2.48932 13.5099 0 10.4515 0ZM10.4515 1.23262C12.8405 1.23262 14.767 3.15859 14.767 5.54679C14.767 7.935 12.8405 9.86097 10.4515 9.86097C8.06261 9.86097 6.13606 7.935 6.13606 5.54679C6.13606 3.15859 8.06261 1.23262 10.4515 1.23262Z" fill="#616580"/>
</svg>
