<svg width="28" height="28" viewBox="0 0 28 28" fill="none" xmlns="http://www.w3.org/2000/svg">
<path d="M14 27.5C21.4558 27.5 27.5 21.4558 27.5 14C27.5 6.54416 21.4558 0.5 14 0.5C6.54416 0.5 0.5 6.54416 0.5 14C0.5 21.4558 6.54416 27.5 14 27.5Z" stroke="#8C99B2" stroke-miterlimit="10"/>
<path opacity="0.1" d="M14 26.03C20.644 26.03 26.03 20.644 26.03 14C26.03 7.35598 20.644 1.96997 14 1.96997C7.35598 1.96997 1.96997 7.35598 1.96997 14C1.96997 20.644 7.35598 26.03 14 26.03Z" fill="#8C99B2"/>
<path opacity="0.1" d="M14.0001 24.6901C19.904 24.6901 24.6901 19.904 24.6901 14.0001C24.6901 8.09614 19.904 3.31006 14.0001 3.31006C8.09614 3.31006 3.31006 8.09614 3.31006 14.0001C3.31006 19.904 8.09614 24.6901 14.0001 24.6901Z" fill="#8C99B2"/>
<path opacity="0.1" d="M13.9999 23.3599C19.1693 23.3599 23.3599 19.1693 23.3599 13.9999C23.3599 8.83051 19.1693 4.63989 13.9999 4.63989C8.83051 4.63989 4.63989 8.83051 4.63989 13.9999C4.63989 19.1693 8.83051 23.3599 13.9999 23.3599Z" fill="#8C99B2"/>
<path opacity="0.1" d="M14 22.02C18.4293 22.02 22.02 18.4293 22.02 14C22.02 9.57066 18.4293 5.97998 14 5.97998C9.57066 5.97998 5.97998 9.57066 5.97998 14C5.97998 18.4293 9.57066 22.02 14 22.02Z" fill="#8C99B2"/>
<path d="M15.89 8.38989H11.06C9.93336 8.38989 9.02002 9.30323 9.02002 10.4299V16.9499C9.02002 18.0766 9.93336 18.9899 11.06 18.9899H15.89C17.0167 18.9899 17.93 18.0766 17.93 16.9499V10.4299C17.93 9.30323 17.0167 8.38989 15.89 8.38989Z" stroke="#8C95AD" stroke-miterlimit="10" stroke-linecap="round"/>
<path d="M16.05 16.4099H10.9C10.8448 16.4099 10.8 16.4547 10.8 16.5099V16.5199C10.8 16.5751 10.8448 16.6199 10.9 16.6199H16.05C16.1053 16.6199 16.15 16.5751 16.15 16.5199V16.5099C16.15 16.4547 16.1053 16.4099 16.05 16.4099Z" stroke="#8C95AD" stroke-miterlimit="10" stroke-linecap="round"/>
<path d="M16.03 14.6101H10.92C10.8538 14.6101 10.8 14.6638 10.8 14.7301C10.8 14.7964 10.8538 14.8501 10.92 14.8501H16.03C16.0963 14.8501 16.15 14.7964 16.15 14.7301C16.15 14.6638 16.0963 14.6101 16.03 14.6101Z" stroke="#8C95AD" stroke-miterlimit="10" stroke-linecap="round"/>
<path d="M19.25 10.8C19.425 10.8 19.5929 10.8696 19.7167 10.9934C19.8405 11.1171 19.91 11.285 19.91 11.46V11.46C19.91 11.6351 19.8405 11.803 19.7167 11.9267C19.5929 12.0505 19.425 12.12 19.25 12.12V10.8Z" stroke="#8C95AD" stroke-miterlimit="10" stroke-linecap="round"/>
<path d="M19.25 12.78C19.425 12.78 19.5929 12.8496 19.7167 12.9733C19.8405 13.0971 19.91 13.265 19.91 13.44V13.44C19.91 13.6151 19.8405 13.7829 19.7167 13.9067C19.5929 14.0305 19.425 14.1 19.25 14.1V14.1V12.78Z" stroke="#8C95AD" stroke-miterlimit="10" stroke-linecap="round"/>
<path d="M19.25 14.75C19.425 14.75 19.5929 14.8195 19.7167 14.9433C19.8405 15.0671 19.91 15.235 19.91 15.41V15.41C19.91 15.585 19.8405 15.7529 19.7167 15.8767C19.5929 16.0005 19.425 16.07 19.25 16.07V14.75Z" stroke="#8C95AD" stroke-miterlimit="10" stroke-linecap="round"/>
</svg>
