<svg width="22" height="13" viewBox="0 0 22 13" fill="none" xmlns="http://www.w3.org/2000/svg">
<path d="M11.6511 4.00591C11.1686 2.6357 10.2052 1.48714 8.93989 0.773551C7.67455 0.0599612 6.19324 -0.170164 4.77105 0.125913C2.48105 0.585913 0.621054 2.41591 0.141054 4.70591C-0.0524639 5.58301 -0.0467926 6.49235 0.15765 7.36697C0.362093 8.24159 0.7601 9.05922 1.32237 9.75965C1.88464 10.4601 2.59684 11.0255 3.40656 11.4142C4.21627 11.803 5.10286 12.0052 6.00105 12.0059C7.241 12.006 8.4504 11.6212 9.4624 10.9047C10.4744 10.1883 11.2391 9.17543 11.6511 8.00591H16.0011V10.0059C16.0011 11.1059 16.9011 12.0059 18.0011 12.0059C19.1011 12.0059 20.0011 11.1059 20.0011 10.0059V8.00591C21.1011 8.00591 22.0011 7.10591 22.0011 6.00591C22.0011 4.90591 21.1011 4.00591 20.0011 4.00591H11.6511ZM6.00105 8.00591C4.90105 8.00591 4.00105 7.10591 4.00105 6.00591C4.00105 4.90591 4.90105 4.00591 6.00105 4.00591C7.10105 4.00591 8.00105 4.90591 8.00105 6.00591C8.00105 7.10591 7.10105 8.00591 6.00105 8.00591Z" fill="currentColor"/>
</svg>
