<svg width="126" height="60" viewBox="0 0 126 60" fill="none" xmlns="http://www.w3.org/2000/svg">
<path fill-rule="evenodd" clip-rule="evenodd" d="M102.935 36.4833C102.442 36.4833 102.04 36.1126 102.04 35.6522L102.045 35.6195V21.5889V21.5268L102.049 21.4682C102.095 21.0544 102.471 20.7286 102.93 20.7286C103.39 20.7286 103.771 21.0544 103.816 21.4682L103.821 21.5268V21.5889V35.6195L103.824 35.6522C103.824 36.1126 103.424 36.4833 102.935 36.4833ZM104.599 18.1374H101.268C98.4505 18.1374 98.2815 20.4115 98.2815 21.877V35.33C98.2815 36.7972 98.4505 39.0713 101.268 39.0713H104.599C107.416 39.0713 107.588 36.7972 107.588 35.33V21.877C107.588 20.4115 107.416 18.1374 104.599 18.1374Z" fill="currentColor"/>
<path d="M41.8867 18.1374H49.5625V20.7372H45.9091V39.072H41.8867V18.1374Z" fill="currentColor"/>
<path fill-rule="evenodd" clip-rule="evenodd" d="M50.1571 39.0713H54.0897L54.4673 33.5059H56.3655L56.7379 39.0713H60.6775L58.5758 18.1374H52.257L50.1571 39.0713ZM54.6105 31.2058L55.3036 20.7319H55.5277L56.219 31.2058H54.6105Z" fill="currentColor"/>
<path d="M66.4377 31.7421V35.6816C66.4377 36.2196 66.8343 36.3713 67.067 36.3713C67.4394 36.3713 67.698 36.042 67.698 35.6816V30.8128C67.698 30.1594 67.586 29.4422 66.0843 29.4422H64.455V27.1388H66.1429C67.2929 27.1388 67.698 26.8647 67.698 25.5854V21.4217C67.698 21.0631 67.4394 20.7373 67.067 20.7373C66.8343 20.7373 66.4377 20.8838 66.4377 21.4217V24.8354H62.412V21.8786C62.412 20.4114 62.5861 18.1391 65.3998 18.1391H68.7342C71.5514 18.1391 71.722 20.4114 71.722 21.8786V25.2285C71.722 27.4974 70.198 28.1215 68.9911 28.0629V28.275C71.6893 28.2112 71.722 30.368 71.722 31.118V35.3299C71.722 36.7971 71.5514 39.0712 68.7342 39.0712H65.3998C62.5861 39.0712 62.412 36.7971 62.412 35.3299V31.7421H66.4377Z" fill="currentColor"/>
<path d="M74.3701 18.1374H83.6809V39.072H79.9263V20.7372H78.1202V39.072H74.3701V18.1374Z" fill="currentColor"/>
<path fill-rule="evenodd" clip-rule="evenodd" d="M86.594 39.0712H90.6163V31.9542H92.9145C95.7299 31.9542 96.1816 29.6835 96.1816 28.2129V21.8786C96.1816 20.4114 95.7299 18.1391 92.9145 18.1391H86.594V39.0712ZM90.6163 29.6474V20.7373H91.6714C92.1076 20.7373 92.4248 21.127 92.4248 21.7787V28.6026C92.4248 29.2612 92.1076 29.6474 91.6714 29.6474H90.6163Z" fill="currentColor"/>
<path d="M120.426 18.1374H125.66V39.072H121.635V25.9433H121.491L119.417 39.072H116.204L114.134 25.9433H113.993V39.072H109.967V18.1374H115.192L117.804 32.8489L120.426 18.1374Z" fill="currentColor"/>
<path fill-rule="evenodd" clip-rule="evenodd" d="M33.3074 20.265C33.2609 22.3874 33.0057 24.627 32.6833 25.9631C32.7988 23.6615 32.5195 20.4047 31.9885 17.8634C31.4592 15.3221 29.9523 11.0843 28.7541 9.11708C27.6507 10.9843 26.2818 14.6531 25.5663 17.8444C24.849 21.0288 24.8284 24.8856 24.8284 26.0424C24.6353 25.058 24.1594 21.5891 24.2956 18.0978C24.4094 15.2134 25.0818 12.2566 25.4508 10.8912C26.8593 6.34648 28.4576 3.43967 28.7541 2.97589C29.0541 3.43967 31.0644 7.01887 32.1057 10.7774C33.1436 14.5411 33.3488 18.1427 33.3074 20.265ZM28.78 36.5092C28.1558 35.3351 27.1817 33.0973 27.0903 29.6388C27.0645 26.2923 28.4075 23.4252 28.7989 22.8252C29.1506 23.4252 30.3006 25.9216 30.4368 29.337C30.5351 32.6783 29.4265 35.3093 28.78 36.5092ZM33.6746 10.8255C32.404 5.26363 29.2144 0.737909 28.7799 0C28.0834 1.03962 25.5421 5.03088 24.2525 9.46178C22.8405 14.403 22.6336 18.7856 23.1181 23.1062C23.6042 27.4199 25.43 31.8525 25.43 31.8525C26.4007 34.1783 27.8541 36.6696 28.7989 37.8937C30.1834 36.092 33.3764 30.7232 34.366 23.7062C34.9194 19.8028 34.9401 16.3874 33.6746 10.8255Z" fill="currentColor"/>
<path d="M20.9769 39.0677V45.6485C20.9856 45.6382 20.9959 45.6313 21.008 45.6209C23.3062 43.3314 27.0406 43.3314 29.3422 45.6209C31.6456 47.9088 31.6456 51.6328 29.3422 53.9224L29.3146 53.95V53.9517C29.2991 53.9621 29.2905 53.9724 29.2819 53.9828C26.9802 56.2499 23.9786 57.3895 20.9769 57.3895C17.9701 57.3895 14.9495 56.2396 12.6513 53.9569C8.60146 49.9191 8.11699 43.6779 11.2083 39.1177C11.6238 38.5039 12.1031 37.9195 12.6513 37.3764C14.9495 35.0851 17.9701 33.9454 20.9769 33.9454V18.2494C9.39971 18.2494 0 27.5956 0 39.1177C0 50.6535 9.39971 59.9998 20.9769 59.9998C27.0233 59.9998 32.4611 57.4516 36.2868 53.3897V39.0677H20.9769Z" fill="currentColor"/>
<path fill-rule="evenodd" clip-rule="evenodd" d="M121.9 55.0554C121.9 57.0432 120.995 57.3984 118.686 57.3984H116.564V48.3073H118.686V51.8158H119.043C121.129 51.8158 121.9 52.3037 121.9 54.1209V55.0554ZM104.181 50.0263H102.573V57.4054H100.552V50.0263H98.8281V48.3022H104.181V50.0263ZM87.8422 54.1571C87.8422 56.0002 86.9026 56.4984 84.813 56.4984V57.3984H82.7475V56.4984C80.651 56.4984 79.7011 56.0002 79.7011 54.1571V51.3176C79.7011 49.4624 80.6131 48.99 82.7475 48.99V48.3073H84.813V48.99C86.9353 48.99 87.8422 49.4624 87.8422 51.3176V54.1571ZM68.5928 50.0263H65.6877V51.8159H68.2876V53.5383H65.6877V55.6796H68.5928V57.4054H63.4981V48.3022H68.5928V50.0263ZM50.983 57.3984H48.8572V53.4209H47.7676V57.3984H45.6418V48.3073H47.7676V51.8158H48.8572V48.3073H50.983V57.3984ZM125.66 46.0435H41.8867V60H125.66V46.0435ZM81.7648 51.2606V54.1709C81.7648 54.7036 81.9355 54.8243 82.4045 54.8243H82.7476V50.5899H82.4045C81.9355 50.5899 81.7648 50.7261 81.7648 51.2606ZM119.159 53.4211H118.686V55.7934H119.159C119.636 55.7934 119.777 55.6693 119.777 55.1538V54.059C119.777 53.5383 119.636 53.4211 119.159 53.4211ZM85.1389 50.5899H84.813V54.8243H85.1389C85.613 54.8243 85.7837 54.6915 85.7837 54.1571V51.233C85.7837 50.6986 85.613 50.5899 85.1389 50.5899Z" fill="currentColor"/>
</svg>
