<svg xmlns="http://www.w3.org/2000/svg" xmlns:xlink="http://www.w3.org/1999/xlink" viewBox="0 0 643.37 24.49"><defs><clipPath id="a" transform="translate(0)"><rect x="336.52" width="158.81" height="24.48" style="fill:none"/></clipPath><clipPath id="b" transform="translate(0)"><rect x="490.18" width="153.19" height="24.49" style="fill:none"/></clipPath><clipPath id="c" transform="translate(0)"><rect x="182.85" width="158.82" height="24.48" style="fill:none"/></clipPath><clipPath id="d" transform="translate(0)"><polygon points="0 24.48 66.05 24.48 188.01 24.48 188.01 0 0 0 0 24.48" style="fill:none"/></clipPath></defs><title>btn-group-right</title><g style="opacity:0.5"><g style="clip-path:url(#a)"><path d="M494.75,24.09l-150,.15-8-8V.24H486.81l.07,16.06c2.61,2.61,4.63,4.55,7.87,7.79" transform="translate(0)" style="fill:#1a1f2d"/><path d="M494.75,24.09l-150,.15-8-8V.24H486.81l.07,16.06C489.49,18.91,491.51,20.85,494.75,24.09Z" transform="translate(0)" style="fill:none;stroke:#5a607f;stroke-miterlimit:10;stroke-width:0.48500001430511475px"/></g></g><g style="opacity:0.5"><g style="clip-path:url(#b)"><path d="M643.12,24.25H498.42l-8-8V.24h152.7c0,4.6,0,24,0,24" transform="translate(0)" style="fill:#1a1f2d"/><path d="M643.12,24.25H498.42l-8-8V.24h152.7C643.13,4.84,643.12,24.25,643.12,24.25Z" transform="translate(0)" style="fill:none;stroke:#5a607f;stroke-miterlimit:10;stroke-width:0.48500001430511475px"/></g></g><g style="opacity:0.5"><g style="clip-path:url(#c)"><path d="M341.09,24.09l-150,.15-8-8V.24h150l.06,16.06c2.61,2.61,4.63,4.55,7.88,7.79" transform="translate(0)" style="fill:#1a1f2d"/><path d="M341.09,24.09l-150,.15-8-8V.24h150l.06,16.06C335.82,18.91,337.84,20.85,341.09,24.09Z" transform="translate(0)" style="fill:none;stroke:#5a607f;stroke-miterlimit:10;stroke-width:0.48500001430511475px"/></g></g><g style="opacity:0.5"><g style="clip-path:url(#d)"><path d="M187.42,24.09,8.25,24.24l-8-8V.24H179.48l.07,16.06c2.61,2.61,4.63,4.55,7.87,7.79" transform="translate(0)" style="fill:#1a1f2d"/><path d="M187.42,24.09,8.25,24.24l-8-8V.24H179.48l.07,16.06C182.16,18.91,184.18,20.85,187.42,24.09Z" transform="translate(0)" style="fill:none;stroke:#5a607f;stroke-miterlimit:10;stroke-width:0.48500001430511475px"/></g></g></svg>