<svg width="13" height="17" viewBox="0 0 13 17" xmlns="http://www.w3.org/2000/svg">
<path fill-rule="evenodd" clip-rule="evenodd" d="M12.3689 4.64079L7.91284 0.185791C7.81287 0.0857849 7.67786 0.0297852 7.53589 0.0297852H1.63782C0.794922 0.0297852 0.108887 0.71579 0.108887 1.55879V14.5008C0.108887 15.3438 0.794922 16.0298 1.63782 16.0298H4.69092C4.98584 16.0298 5.22388 15.7908 5.22388 15.4968C5.22388 15.2018 4.98584 14.9628 4.69092 14.9628H1.63782C1.38293 14.9628 1.17493 14.7558 1.17493 14.5008V1.55879C1.17493 1.30379 1.38293 1.09679 1.63782 1.09679H6.67993V5.34178C6.67993 5.63678 6.91785 5.87479 7.21289 5.87479H11.4579V8.56079C11.4579 8.85579 11.6969 9.09378 11.9918 9.09378C12.2859 9.09378 12.5249 8.85579 12.5249 8.56079V5.01779C12.5249 4.87679 12.4689 4.74078 12.3689 4.64079ZM7.74585 1.52678L11.0278 4.80879H7.74585V1.52678Z"/>
<path d="M11.3938 11.9769H9.53772V10.1209C9.53772 9.82591 9.2998 9.58691 9.00476 9.58691C8.70972 9.58691 8.4718 9.82591 8.4718 10.1209V11.9769H6.61572C6.3208 11.9769 6.08179 12.2149 6.08179 12.5099C6.08179 12.8049 6.3208 13.0429 6.61572 13.0429H8.4718V14.8989C8.4718 15.1939 8.70972 15.4329 9.00476 15.4329C9.2998 15.4329 9.53772 15.1939 9.53772 14.8989V13.0429H11.3938C11.6887 13.0429 11.9277 12.8049 11.9277 12.5099C11.9277 12.2149 11.6887 11.9769 11.3938 11.9769Z"/>
</svg>
