<svg width="17" height="11" viewBox="0 0 17 11" fill="none" xmlns="http://www.w3.org/2000/svg">
<path fill-rule="evenodd" clip-rule="evenodd" d="M8.50391 0.523926L8.47791 0.524933L8.47192 0.523926L8.46094 0.52594C4.68188 0.545929 1.5199 3.20093 0.710938 6.74194C0.690918 6.77594 0.66687 6.80594 0.653931 6.84393C0.628906 6.92493 0.62793 7.00595 0.640869 7.08493C0.554932 7.55194 0.503906 8.03195 0.503906 8.52393C0.503906 9.14694 0.577881 9.77493 0.724854 10.39C0.78186 10.6299 0.996826 10.799 1.24292 10.799H6.01782C6.30994 10.799 6.54785 10.5649 6.55188 10.2729C6.56091 9.56393 6.95691 8.94995 7.53186 8.61493C7.56287 8.67194 7.60083 8.72693 7.65186 8.76993L8.41187 9.41394C8.50891 9.49594 8.63086 9.53995 8.75684 9.53995C8.77893 9.53995 8.80188 9.53894 8.82483 9.53595C8.97388 9.51694 9.10791 9.43594 9.19287 9.31293L9.62085 8.70294C10.1158 9.05295 10.4469 9.62494 10.4559 10.2729C10.4598 10.5649 10.6979 10.799 10.9889 10.799H15.7639C16.0109 10.799 16.2258 10.6299 16.2828 10.39C16.4288 9.77493 16.5039 9.14694 16.5039 8.52393C16.5039 4.11194 12.9149 0.523926 8.50391 0.523926ZM15.3298 9.73294H11.4689C11.3188 8.94995 10.8569 8.27994 10.2279 7.83594L12.2949 4.88394C12.4529 4.65793 12.4128 4.34894 12.2029 4.17093C11.9918 3.99295 11.6809 4.00394 11.4849 4.19693L8.3269 7.29294C6.94385 7.37494 5.7959 8.39594 5.53882 9.73294H1.67688C1.60693 9.33194 1.57092 8.92593 1.57092 8.52393C1.57092 8.24792 1.59082 7.97693 1.62292 7.70993L2.8999 8.11493C2.95386 8.13193 3.00793 8.13995 3.06091 8.13995C3.28784 8.13995 3.49792 7.99493 3.56982 7.76694C3.65894 7.48694 3.50293 7.18695 3.22192 7.09793L1.83289 6.65793C2.15784 5.49792 2.77087 4.45694 3.59985 3.62793L4.45984 4.63095C4.56482 4.75394 4.71484 4.81693 4.86487 4.81693C4.98792 4.81693 5.11084 4.77493 5.21191 4.68893C5.43591 4.49695 5.46191 4.16095 5.2699 3.93695L4.41284 2.93793C5.41785 2.19995 6.62585 1.72595 7.93787 1.61893V2.76495C7.93787 3.05994 8.17688 3.29895 8.47192 3.29895C8.76587 3.29895 9.00488 3.05994 9.00488 2.76495V1.61594C11.9519 1.82794 14.3899 3.88495 15.1699 6.63895L13.7219 7.09793C13.4409 7.18695 13.2849 7.48694 13.3739 7.76794C13.4459 7.99493 13.6559 8.13995 13.8829 8.13995C13.9359 8.13995 13.9899 8.13193 14.0428 8.11493L15.3818 7.69095C15.4149 7.96393 15.4369 8.24094 15.4369 8.52393C15.4369 8.92593 15.4009 9.33194 15.3298 9.73294Z" fill="#5B607D"/>
</svg>
