<svg width="12" height="16" viewBox="0 0 12 16" fill="none" xmlns="http://www.w3.org/2000/svg">
<path d="M7.45178 3.03284C6.4917 1.90384 5.68372 1.23584 5.68372 1.23584C5.68372 1.23584 1.13074 5.00384 0.790771 9.75684C0.770752 9.93784 0.757812 10.1218 0.757812 10.3098C0.757812 13.0298 2.96375 15.2358 5.68372 15.2358C8.40479 15.2358 10.6097 13.0298 10.6097 10.3098C10.6097 10.1218 10.5978 9.93784 10.5768 9.75684C10.5508 9.39184 10.4998 9.03284 10.4277 8.68084" stroke="#0089FF" stroke-linecap="round" stroke-linejoin="round"/>
<path d="M2.7937 10.5439C2.7937 11.9219 3.91174 13.0389 5.28979 13.0389" stroke="#0089FF" stroke-linecap="round" stroke-linejoin="round"/>
<path d="M5.70972 5.43279L7.2998 7.0228C7.52771 7.25079 7.89771 7.25079 8.12573 7.0228L11.4318 3.7168" stroke="#0089FF" stroke-linecap="round" stroke-linejoin="round"/>
</svg>
