<svg width="17" height="17" viewBox="0 0 17 17" fill="none" xmlns="http://www.w3.org/2000/svg">
<path d="M8.50403 9.0657C8.20898 9.0657 7.97095 8.82669 7.97095 8.53268V5.81769C7.97095 5.52271 8.20898 5.28369 8.50403 5.28369C8.79797 5.28369 9.03699 5.52271 9.03699 5.81769V8.53268C9.03699 8.82669 8.79797 9.0657 8.50403 9.0657Z" fill="#5B607D"/>
<path d="M8.50403 11.5457C8.20898 11.5457 7.97095 11.3067 7.97095 11.0127V10.7757C7.97095 10.4807 8.20898 10.2417 8.50403 10.2417C8.79797 10.2417 9.03699 10.4807 9.03699 10.7757V11.0127C9.03699 11.3067 8.79797 11.5457 8.50403 11.5457Z" fill="#5B607D"/>
<path fill-rule="evenodd" clip-rule="evenodd" d="M8.50391 16.6555C8.36682 16.6555 8.23083 16.6025 8.12683 16.4985L0.659912 9.03252C0.451904 8.82354 0.451904 8.48653 0.659912 8.27755L8.12683 0.811546C8.33484 0.602531 8.67285 0.602531 8.88086 0.811546L16.3479 8.27755C16.5559 8.48653 16.5559 8.82354 16.3479 9.03252L8.88086 16.4985C8.77686 16.6025 8.63989 16.6555 8.50391 16.6555ZM1.79089 8.65554L8.50391 15.3675L15.2158 8.65554L8.50391 1.94253L1.79089 8.65554Z" fill="#5B607D"/>
</svg>
