<svg width="14" height="15" viewBox="0 0 14 15" fill="none" xmlns="http://www.w3.org/2000/svg">
<path d="M7.58333 0C6.78125 0 6.10677 0.54988 5.90169 1.28005C5.70117 1.19892 5.47787 1.15385 5.25 1.15385C4.28841 1.15385 3.5 1.93359 3.5 2.88462V8.65385L2.26953 8.15805L2.24219 8.14904C1.31706 7.88311 0.33724 8.41046 0.0729167 9.32091C0.0227862 9.48317 0 9.64543 0 9.80769C0 10.5334 0.469401 11.1373 1.10287 11.543L1.05729 11.5114L3.57292 13.4991C4.52995 14.3104 5.63737 15 7 15H9.33333C11.8854 15 14 12.9402 14 10.4072V4.03846C14 3.08744 13.2116 2.30769 12.25 2.30769C12.0449 2.30769 11.849 2.35277 11.6667 2.41587V2.30769C11.6667 1.35667 10.8783 0.576923 9.91667 0.576923C9.58398 0.576923 9.27409 0.676082 9.00977 0.838342C8.76367 0.51833 8.40365 0.27494 7.98437 0.16226C7.875 0.0631015 7.73372 0.00450692 7.58333 0ZM7.58333 1.15385C7.91146 1.15385 8.16667 1.40625 8.16667 1.73077V6.92308H9.33333V2.30769C9.33333 1.98317 9.58854 1.73077 9.91667 1.73077C10.2448 1.73077 10.5 1.98317 10.5 2.30769V6.92308H11.6667V4.03846C11.6667 3.71394 11.9219 3.46154 12.25 3.46154C12.5781 3.46154 12.8333 3.71394 12.8333 4.03846V10.4072C12.8333 12.3047 11.2565 13.8462 9.33333 13.8462H7C6.03385 13.8462 5.20443 13.3594 4.33854 12.6202L4.32943 12.6157L1.76823 10.5919L1.74089 10.5784C1.28516 10.2855 1.16667 10.0826 1.16667 9.80769C1.16667 9.75811 1.17578 9.69952 1.18945 9.64543C1.2806 9.33444 1.59505 9.16767 1.90951 9.25781L4.66667 10.3846V2.88462C4.66667 2.5601 4.92188 2.30769 5.25 2.30769C5.57812 2.30769 5.83333 2.5601 5.83333 2.88462V6.92308H7V1.73077C7 1.40625 7.25521 1.15385 7.58333 1.15385Z" fill="white"/>
</svg>
