<svg width="24" height="24" viewBox="0 0 24 24" fill="none" stroke="currentColor" xmlns="http://www.w3.org/2000/svg">
<path d="M17.0324 5.10754H6.87744V7.98754H17.0324V5.10754Z" stroke-linecap="round" stroke-linejoin="round"/>
<path d="M4.72504 10.0576H1.66504V18.8926H4.72504V10.0576Z" stroke-linecap="round" stroke-linejoin="round"/>
<path d="M22.3349 10.0576H19.2749V18.8926H22.3349V10.0576Z" stroke-linecap="round" stroke-linejoin="round"/>
<path d="M19.2746 11.8201H14.9396C14.5121 11.3527 13.9801 10.9929 13.3871 10.7701V7.99512H10.4996V10.8001C9.92855 11.0216 9.41554 11.3705 8.99961 11.8201H4.72461" stroke-linecap="round" stroke-linejoin="round"/>
<path d="M4.72461 17.1299H9.05961C9.43153 17.5403 9.88527 17.8683 10.3916 18.0928C10.898 18.3173 11.4457 18.4333 11.9996 18.4333C12.5535 18.4333 13.1012 18.3173 13.6076 18.0928C14.1139 17.8683 14.5677 17.5403 14.9396 17.1299H19.2746" stroke-linecap="round" stroke-linejoin="round"/>
<path d="M11.955 15.7424C12.655 15.7424 13.2225 15.1749 13.2225 14.4749C13.2225 13.7749 12.655 13.2074 11.955 13.2074C11.255 13.2074 10.6875 13.7749 10.6875 14.4749C10.6875 15.1749 11.255 15.7424 11.955 15.7424Z" stroke-linecap="round" stroke-linejoin="round"/>
</svg>
