<svg width="25" height="17" viewBox="0 0 25 17" fill="none" stroke="currentColor" xmlns="http://www.w3.org/2000/svg">
<path d="M18.8875 9.82336H6.37439C4.12844 9.82336 2.36377 8.05868 2.36377 5.81274V5.01062C2.36377 2.76467 4.12844 1 6.37439 1H18.8875C21.1334 1 22.8981 2.76467 22.8981 5.01062V5.81274C22.8981 8.05868 21.1334 9.82336 18.8875 9.82336Z" stroke-miterlimit="10" stroke-linecap="round" stroke-linejoin="round"/>
<path d="M2.5239 15.9999C3.3213 15.9999 3.96772 15.3535 3.96772 14.5561C3.96772 13.7587 3.3213 13.1123 2.5239 13.1123C1.7265 13.1123 1.08008 13.7587 1.08008 14.5561C1.08008 15.3535 1.7265 15.9999 2.5239 15.9999Z" stroke-miterlimit="10" stroke-linecap="round" stroke-linejoin="round"/>
<path d="M6.13327 15.9999C6.93068 15.9999 7.5771 15.3535 7.5771 14.5561C7.5771 13.7587 6.93068 13.1123 6.13327 13.1123C5.33587 13.1123 4.68945 13.7587 4.68945 14.5561C4.68945 15.3535 5.33587 15.9999 6.13327 15.9999Z" stroke-miterlimit="10" stroke-linecap="round" stroke-linejoin="round"/>
<path d="M19.1279 15.9999C19.9253 15.9999 20.5717 15.3535 20.5717 14.5561C20.5717 13.7587 19.9253 13.1123 19.1279 13.1123C18.3305 13.1123 17.6841 13.7587 17.6841 14.5561C17.6841 15.3535 18.3305 15.9999 19.1279 15.9999Z" stroke-miterlimit="10" stroke-linecap="round" stroke-linejoin="round"/>
<path d="M22.7373 15.9999C23.5347 15.9999 24.1811 15.3535 24.1811 14.5561C24.1811 13.7587 23.5347 13.1123 22.7373 13.1123C21.9399 13.1123 21.2935 13.7587 21.2935 14.5561C21.2935 15.3535 21.9399 15.9999 22.7373 15.9999Z" stroke-miterlimit="10" stroke-linecap="round" stroke-linejoin="round"/>
<path d="M15.5983 13.3531H9.6626" stroke-miterlimit="10" stroke-linecap="round" stroke-linejoin="round"/>
<path d="M24.2616 9.82336H1" stroke-miterlimit="10" stroke-linecap="round" stroke-linejoin="round"/>
<path d="M7.41699 1V6.05338" stroke-miterlimit="10" stroke-linecap="round" stroke-linejoin="round"/>
<path d="M17.8447 1V6.05338" stroke-miterlimit="10" stroke-linecap="round" stroke-linejoin="round"/>
</svg>
