<svg width="14" height="12" viewBox="0 0 14 12" fill="none" xmlns="http://www.w3.org/2000/svg">
<path d="M3.48047 0.0234375L0 3.5L3.48047 6.97656L4.18359 6.27344L1.91406 4H9.45703C11.3828 4 12.957 5.59375 12.957 7.51953C12.957 9.44531 11.3867 11 9.45703 11H7.95703V12H9.45703C11.75 12 13.5938 10.2461 13.8555 8.01953H13.957V7.51953C13.957 5.04688 11.9336 3 9.45703 3H1.91406L4.18359 0.726562L3.48047 0.0234375ZM1.95703 11V12H2.95703V11H1.95703ZM3.95703 11V12H4.95703V11H3.95703ZM5.95703 11V12H6.95703V11H5.95703Z" fill="#606580"/>
</svg>
