<svg width="26" height="17" viewBox="0 0 26 17" fill="none" xmlns="http://www.w3.org/2000/svg">
<path d="M19.455 10.1035H6.54467C4.22743 10.1035 2.40674 8.28276 2.40674 5.96552V5.13793C2.40674 2.82069 4.22743 1 6.54467 1H19.455C21.7723 1 23.5929 2.82069 23.5929 5.13793V5.96552C23.5929 8.28276 21.7723 10.1035 19.455 10.1035Z" stroke="#606580" stroke-miterlimit="10" stroke-linecap="round" stroke-linejoin="round"/>
<path d="M2.57266 16.4761C3.39538 16.4761 4.06232 15.8092 4.06232 14.9865C4.06232 14.1638 3.39538 13.4968 2.57266 13.4968C1.74995 13.4968 1.08301 14.1638 1.08301 14.9865C1.08301 15.8092 1.74995 16.4761 2.57266 16.4761Z" stroke="#606580" stroke-miterlimit="10" stroke-linecap="round" stroke-linejoin="round"/>
<path d="M6.2963 16.4761C7.11901 16.4761 7.78595 15.8092 7.78595 14.9865C7.78595 14.1638 7.11901 13.4968 6.2963 13.4968C5.47358 13.4968 4.80664 14.1638 4.80664 14.9865C4.80664 15.8092 5.47358 16.4761 6.2963 16.4761Z" stroke="#606580" stroke-miterlimit="10" stroke-linecap="round" stroke-linejoin="round"/>
<path d="M19.7035 16.4761C20.5262 16.4761 21.1932 15.8092 21.1932 14.9865C21.1932 14.1638 20.5262 13.4968 19.7035 13.4968C18.8808 13.4968 18.2139 14.1638 18.2139 14.9865C18.2139 15.8092 18.8808 16.4761 19.7035 16.4761Z" stroke="#606580" stroke-miterlimit="10" stroke-linecap="round" stroke-linejoin="round"/>
<path d="M23.4276 16.4761C24.2504 16.4761 24.9173 15.8092 24.9173 14.9865C24.9173 14.1638 24.2504 13.4968 23.4276 13.4968C22.6049 13.4968 21.938 14.1638 21.938 14.9865C21.938 15.8092 22.6049 16.4761 23.4276 16.4761Z" stroke="#606580" stroke-miterlimit="10" stroke-linecap="round" stroke-linejoin="round"/>
<path d="M16.0626 13.7453H9.93848" stroke="#606580" stroke-miterlimit="10" stroke-linecap="round" stroke-linejoin="round"/>
<path d="M25 10.1035H1" stroke="#606580" stroke-miterlimit="10" stroke-linecap="round" stroke-linejoin="round"/>
<path d="M7.62061 1V6.21379" stroke="#606580" stroke-miterlimit="10" stroke-linecap="round" stroke-linejoin="round"/>
<path d="M18.3789 1V6.21379" stroke="#606580" stroke-miterlimit="10" stroke-linecap="round" stroke-linejoin="round"/>
</svg>
