<svg width="25" height="15" viewBox="0 0 25 15" fill="none" xmlns="http://www.w3.org/2000/svg">
<path d="M12.6587 8.13798H3.37933C2.03104 8.13798 1 7.02763 1 5.75865V3.37933C1 2.03104 2.11035 1 3.37933 1H12.6587C14.007 1 15.038 2.11035 15.038 3.37933V5.75865C15.1173 7.10694 14.007 8.13798 12.6587 8.13798Z" stroke="#606580" stroke-miterlimit="10" stroke-linecap="round" stroke-linejoin="round"/>
<path d="M3.69664 14.1656C4.48508 14.1656 5.12423 13.5264 5.12423 12.738C5.12423 11.9495 4.48508 11.3104 3.69664 11.3104C2.9082 11.3104 2.26904 11.9495 2.26904 12.738C2.26904 13.5264 2.9082 14.1656 3.69664 14.1656Z" stroke="#606580" stroke-miterlimit="10" stroke-linecap="round" stroke-linejoin="round"/>
<path d="M7.34508 14.1656C8.13352 14.1656 8.77267 13.5264 8.77267 12.738C8.77267 11.9495 8.13352 11.3104 7.34508 11.3104C6.55664 11.3104 5.91748 11.9495 5.91748 12.738C5.91748 13.5264 6.55664 14.1656 7.34508 14.1656Z" stroke="#606580" stroke-miterlimit="10" stroke-linecap="round" stroke-linejoin="round"/>
<path d="M19.7171 14.1656C20.5056 14.1656 21.1447 13.5264 21.1447 12.738C21.1447 11.9495 20.5056 11.3104 19.7171 11.3104C18.9287 11.3104 18.2896 11.9495 18.2896 12.738C18.2896 13.5264 18.9287 14.1656 19.7171 14.1656Z" stroke="#606580" stroke-miterlimit="10" stroke-linecap="round" stroke-linejoin="round"/>
<path d="M15.9897 11.5485H10.9932" stroke="#606580" stroke-miterlimit="10" stroke-linecap="round" stroke-linejoin="round"/>
<path d="M23.3656 11.0725L24.0001 9.64489V6.31383C24.0001 5.67934 23.9208 5.04485 23.6828 4.41037L22.8104 1.87242C22.6518 1.31724 22.1759 1 21.6208 1H18.2104V8.21729H3.61719" stroke="#606580" stroke-miterlimit="10" stroke-linecap="round" stroke-linejoin="round"/>
</svg>
