<svg width="18" height="16" viewBox="0 0 18 16" fill="none" xmlns="http://www.w3.org/2000/svg">
<path d="M9.29004 11.772C9.40063 11.7735 9.5105 11.775 9.61965 11.7765" stroke="#8C99B2" stroke-width="0.45036" stroke-linecap="round" stroke-linejoin="round"/>
<path d="M12.7244 11.9834C15.2674 12.2929 17 12.9102 17 13.6207C17 14.6422 13.4183 15.4697 8.99964 15.4697C4.58094 15.4697 1 14.6422 1 13.6207C1 12.9102 2.73192 12.2929 5.27341 11.9834" stroke="#8C99B2" stroke-width="0.45036" stroke-linecap="round" stroke-linejoin="round"/>
<path d="M9.13097 0C9.13097 0 11.5416 2.47075 8.12767 6.11096C3.4538 11.0954 9.1606 14.0605 9.1606 14.0605C9.1606 14.0605 5.87748 11.2167 9.60804 7.03022C12.9302 3.3012 10.6634 1.03628 9.13097 0Z" fill="#606580"/>
<path d="M7.69062 0.501953C7.69062 0.501953 8.29419 2.50195 5.94353 4.39389C2.42475 7.22732 5.02119 9.84309 5.02119 9.84309C5.02119 9.84309 3.67093 7.41083 6.62299 5.24955C9.25051 3.32499 8.37587 1.44498 7.69062 0.501953Z" fill="#606580"/>
<path d="M12.8805 3.41211C12.8805 3.41211 13.8223 5.26257 11.5627 7.25814C8.15528 10.2662 11.3155 12.5134 11.3155 12.5134C11.3155 12.5134 9.57782 10.3151 12.3875 8.01306C14.8907 5.96282 13.724 4.24997 12.8805 3.41211Z" fill="#606580"/>
</svg>
