<svg width="16" height="16" viewBox="0 0 16 16" fill="none" xmlns="http://www.w3.org/2000/svg">
<path d="M8.1 8.35H2.25C1.4 8.35 0.75 7.65 0.75 6.85V5.34999C0.75 4.49999 1.45 3.84999 2.25 3.84999H8.1C8.95 3.84999 9.6 4.54999 9.6 5.34999V6.85C9.65 7.7 8.95 8.35 8.1 8.35Z" stroke="#606580" stroke-width="1.2" stroke-miterlimit="10" stroke-linecap="round" stroke-linejoin="round"/>
<path d="M2.45017 12.15C2.94723 12.15 3.35017 11.7471 3.35017 11.25C3.35017 10.7529 2.94723 10.35 2.45017 10.35C1.95311 10.35 1.55017 10.7529 1.55017 11.25C1.55017 11.7471 1.95311 12.15 2.45017 12.15Z" stroke="#606580" stroke-width="1.2" stroke-miterlimit="10" stroke-linecap="round" stroke-linejoin="round"/>
<path d="M4.74985 12.15C5.24691 12.15 5.64985 11.7471 5.64985 11.25C5.64985 10.7529 5.24691 10.35 4.74985 10.35C4.2528 10.35 3.84985 10.7529 3.84985 11.25C3.84985 11.7471 4.2528 12.15 4.74985 12.15Z" stroke="#606580" stroke-width="1.2" stroke-miterlimit="10" stroke-linecap="round" stroke-linejoin="round"/>
<path d="M12.5501 12.15C13.0472 12.15 13.4501 11.7471 13.4501 11.25C13.4501 10.7529 13.0472 10.35 12.5501 10.35C12.0531 10.35 11.6501 10.7529 11.6501 11.25C11.6501 11.7471 12.0531 12.15 12.5501 12.15Z" stroke="#606580" stroke-width="1.2" stroke-miterlimit="10" stroke-linecap="round" stroke-linejoin="round"/>
<path d="M10.2002 10.5H7.05017" stroke="#606580" stroke-width="1.2" stroke-miterlimit="10" stroke-linecap="round" stroke-linejoin="round"/>
<path d="M14.8501 10.2L15.2501 9.29999V7.19999C15.2501 6.79999 15.2001 6.39999 15.0501 5.99999L14.5001 4.39999C14.4001 4.04999 14.1001 3.84999 13.7501 3.84999H11.6001V8.39999H2.40015" stroke="#606580" stroke-width="1.2" stroke-miterlimit="10" stroke-linecap="round" stroke-linejoin="round"/>
</svg>
