<svg width="16" height="16" viewBox="0 0 16 16" fill="none" xmlns="http://www.w3.org/2000/svg">
<path d="M11.8999 8.85H4.09985C2.69985 8.85 1.59985 7.75 1.59985 6.35V5.84999C1.59985 4.44999 2.69985 3.34999 4.09985 3.34999H11.8999C13.2999 3.34999 14.3999 4.44999 14.3999 5.84999V6.35C14.3999 7.75 13.2999 8.85 11.8999 8.85Z" stroke="#606580" stroke-width="1.2" stroke-miterlimit="10" stroke-linecap="round" stroke-linejoin="round"/>
<path d="M1.70017 12.7C2.19723 12.7 2.60017 12.2971 2.60017 11.8C2.60017 11.3029 2.19723 10.9 1.70017 10.9C1.20311 10.9 0.800171 11.3029 0.800171 11.8C0.800171 12.2971 1.20311 12.7 1.70017 12.7Z" stroke="#606580" stroke-width="1.2" stroke-miterlimit="10" stroke-linecap="round" stroke-linejoin="round"/>
<path d="M3.95017 12.7C4.44723 12.7 4.85017 12.2971 4.85017 11.8C4.85017 11.3029 4.44723 10.9 3.95017 10.9C3.45311 10.9 3.05017 11.3029 3.05017 11.8C3.05017 12.2971 3.45311 12.7 3.95017 12.7Z" stroke="#606580" stroke-width="1.2" stroke-miterlimit="10" stroke-linecap="round" stroke-linejoin="round"/>
<path d="M12.05 12.7C12.5471 12.7 12.95 12.2971 12.95 11.8C12.95 11.3029 12.5471 10.9 12.05 10.9C11.553 10.9 11.15 11.3029 11.15 11.8C11.15 12.2971 11.553 12.7 12.05 12.7Z" stroke="#606580" stroke-width="1.2" stroke-miterlimit="10" stroke-linecap="round" stroke-linejoin="round"/>
<path d="M14.3 12.7C14.7971 12.7 15.2 12.2971 15.2 11.8C15.2 11.3029 14.7971 10.9 14.3 10.9C13.803 10.9 13.4 11.3029 13.4 11.8C13.4 12.2971 13.803 12.7 14.3 12.7Z" stroke="#606580" stroke-width="1.2" stroke-miterlimit="10" stroke-linecap="round" stroke-linejoin="round"/>
<path d="M9.85002 11.05H6.15002" stroke="#606580" stroke-width="1.2" stroke-miterlimit="10" stroke-linecap="round" stroke-linejoin="round"/>
<path d="M15.25 8.84999H0.75" stroke="#606580" stroke-width="1.2" stroke-miterlimit="10" stroke-linecap="round" stroke-linejoin="round"/>
<path d="M4.75 3.34999V6.49999" stroke="#606580" stroke-width="1.2" stroke-miterlimit="10" stroke-linecap="round" stroke-linejoin="round"/>
<path d="M11.25 3.34999V6.49999" stroke="#606580" stroke-width="1.2" stroke-miterlimit="10" stroke-linecap="round" stroke-linejoin="round"/>
</svg>
