<svg xmlns="http://www.w3.org/2000/svg" viewBox="0 0 21.87 13"><defs><style>.cls-1{fill:white;}</style></defs><title>Ресурс 18</title><g id="Слой_2" data-name="Слой 2"><g id="Layer_1" data-name="Layer 1"><path class="cls-1" d="M1.73,9.91H.33a.35.35,0,0,1-.26-.13A.35.35,0,0,1,0,9.5L1,5.28A.33.33,0,0,1,1.33,5H4.56L4.88.31A.35.35,0,0,1,5.22,0h4.87a.33.33,0,0,1,.32.26l.93,3.91,2.52,1.09A.34.34,0,0,1,14,5.7a.33.33,0,0,1-.44.17L10.92,4.72a.33.33,0,0,1-.19-.23L9.82.67H5.53L5.2,5.38a.34.34,0,0,1-.33.31H1.6L.76,9.24h1a.34.34,0,0,1,0,.67Z"/><path class="cls-1" d="M4.5,11.63A1.68,1.68,0,1,1,6.18,10,1.68,1.68,0,0,1,4.5,11.63Zm0-2.69a1,1,0,1,0,1,1A1,1,0,0,0,4.5,8.94Z"/><path class="cls-1" d="M12.63,10H7.25a.34.34,0,1,1,0-.67h5.38a.34.34,0,0,1,0,.67Z"/><path class="cls-1" d="M13.4,6.29V5.52a.31.31,0,0,1,.33-.27.31.31,0,0,1,.34.27v.77a.31.31,0,0,1-.34.27A.31.31,0,0,1,13.4,6.29Z"/><path class="cls-1" d="M11.06,4.74H5a.34.34,0,0,1,0-.67h6.07a.34.34,0,0,1,0,.67Z"/><rect class="cls-1" x="6.7" y="0.39" width="0.67" height="3.98"/><path class="cls-1" d="M4.5,13a3,3,0,1,1,3-3.05A3.06,3.06,0,0,1,4.5,13Zm0-5.42A2.38,2.38,0,1,0,6.88,10,2.38,2.38,0,0,0,4.5,7.58Z"/><path class="cls-1" d="M17.76,13A4.11,4.11,0,0,1,14,10.51a.36.36,0,1,1,.66-.29,3.38,3.38,0,1,0,.71-3.77.36.36,0,0,1-.51,0,.37.37,0,0,1,0-.52,4.11,4.11,0,1,1,2.89,7Z"/><path class="cls-1" d="M18,10.69H12.75a.36.36,0,0,1-.37-.37V7.4A.37.37,0,0,1,12.75,7H18a1.83,1.83,0,0,1,0,3.66ZM13.11,10H18a1.1,1.1,0,0,0,0-2.2H13.11Z"/><circle class="cls-1" cx="17.62" cy="8.85" r="0.2"/><path class="cls-1" d="M17.62,9.41a.56.56,0,1,1,0-1.12.56.56,0,1,1,0,1.12Zm0-.73a.17.17,0,0,0-.17.17c0,.18.33.18.33,0A.17.17,0,0,0,17.62,8.68Z"/></g></g></svg>