<svg xmlns="http://www.w3.org/2000/svg" viewBox="0 0 15.99 16"><defs><style>.cls-1{fill:#5f6580;}</style></defs><title>Ресурс 16</title><g id="Слой_2" data-name="Слой 2"><g id="Layer_1" data-name="Layer 1"><path class="cls-1" d="M14.91,9.3V3.25A1.67,1.67,0,0,0,16,1.69a1.68,1.68,0,0,0-3.26-.6h-6a1.68,1.68,0,0,0-3.25.6,1.62,1.62,0,0,0,.15.69l-.83.82a.6.6,0,0,0-.15.54,1.67,1.67,0,0,0-.93-.28,1.68,1.68,0,0,0-.6,3.25v6a1.68,1.68,0,1,0,2.17,2.17h6a1.68,1.68,0,0,0,3.26-.6,1.71,1.71,0,0,0-.31-1l.15,0a.63.63,0,0,0,.42-.17l.8-.81a1.62,1.62,0,0,0,.69.16,1.69,1.69,0,0,0,.61-3.26Zm-3.45,1V6.71a1.67,1.67,0,0,0,1.09-1.57,1.75,1.75,0,0,0-.28-.93l.09,0a.63.63,0,0,0,.43-.17l.83-.84.09,0v6a1.66,1.66,0,0,0-1,1Zm-1.19,2.48a1.67,1.67,0,0,0-1,1H3.25A1.47,1.47,0,0,0,3,13.32a.58.58,0,0,0,.18,0,.58.58,0,0,0,.42-.18l.79-.78a1.63,1.63,0,0,0,.7.16,1.68,1.68,0,0,0,1.57-1.1h3.57Zm-7-7H4.54V9.3a1.67,1.67,0,0,0-1.09,1.57,1.64,1.64,0,0,0,.14.67l-.79.8a.57.57,0,0,0-.14.6,1.85,1.85,0,0,0-.37-.19v-6A1.71,1.71,0,0,0,3.26,5.74Zm1.38,5.13a.49.49,0,1,1,.49.49A.49.49,0,0,1,4.64,10.87Zm2.06-.6a1.66,1.66,0,0,0-1-1V5.74H9.29a1.7,1.7,0,0,0,1,1v3.56Zm-1-7a1.67,1.67,0,0,0,1-1h6l0,.09-.83.83a.56.56,0,0,0-.15.52,1.74,1.74,0,0,0-.93-.27A1.67,1.67,0,0,0,9.3,4.54H5.73Zm5.13,2.38a.49.49,0,1,1,.49-.49A.49.49,0,0,1,10.86,5.63ZM14.3,1.2a.49.49,0,1,1-.48.49A.49.49,0,0,1,14.3,1.2Zm-9.17,0a.49.49,0,1,1-.49.49A.49.49,0,0,1,5.13,1.2ZM3.62,4.05l.83-.83.09,0V4.54H3.25a1.54,1.54,0,0,0-.17-.34l.12,0A.59.59,0,0,0,3.62,4.05Zm-1.93.6a.49.49,0,1,1-.49.49A.49.49,0,0,1,1.69,4.65Zm0,10.15a.49.49,0,1,1,.48-.49A.49.49,0,0,1,1.69,14.8Zm9.17,0a.49.49,0,1,1,.49-.49A.49.49,0,0,1,10.86,14.8ZM12,12.36a.6.6,0,0,0-.14.57,1.55,1.55,0,0,0-.36-.19V11.46h1.27a.63.63,0,0,1,0,.09Zm2.34-1a.49.49,0,1,1,.49-.49A.49.49,0,0,1,14.3,11.36Z"/></g></g></svg>