<svg xmlns="http://www.w3.org/2000/svg" viewBox="0 0 12.43 18"><defs><style>.cls-1{fill:white;}</style></defs><title>Ресурс 17</title><g id="Слой_2" data-name="Слой 2"><g id="Layer_1" data-name="Layer 1"><path class="cls-1" d="M4.82,18l-1.31-.66L2.84,17C.37,15.56-.53,13.12.3,10.14A14.16,14.16,0,0,1,1.84,6.88l.06-.11A22.29,22.29,0,0,0,4.25,1.85c.08-.25.15-.5.22-.76L4.76,0l.63.41a1.2,1.2,0,0,1,.26.18l.47.47A33.47,33.47,0,0,1,10.3,5.74a11.12,11.12,0,0,1,2.08,5.19c.29,2.72-.52,4.68-2.45,6a7.43,7.43,0,0,1-1.09.55l-.46.2-.51.24L7.48,17l.2-.25c.1-.13.21-.25.32-.38a6,6,0,0,0,.57-.73,5.76,5.76,0,0,0,0-6.3A7.9,7.9,0,0,0,7.47,7.89,10.47,10.47,0,0,1,6.1,12.46l-.72,1.31-.3-1.46a4.43,4.43,0,0,0-.58-1.56c-.3.73-.6,1.47-.89,2.21a2.9,2.9,0,0,0,.65,3.34,1.17,1.17,0,0,1,.31.57ZM6.22,5.31l1,.86A9.5,9.5,0,0,1,9.5,8.79a6.84,6.84,0,0,1,.35,6.8,4.9,4.9,0,0,0,1.43-4.54A10.08,10.08,0,0,0,9.4,6.36a33.41,33.41,0,0,0-4-4.47c0,.09,0,.19-.08.28A24.49,24.49,0,0,1,2.86,7.33l-.06.1a12.89,12.89,0,0,0-1.44,3,4.67,4.67,0,0,0,1.05,4.88,4.05,4.05,0,0,1,.17-2.75c.31-.79.63-1.57.95-2.36l.35-.83.57-.22.29.2a3.94,3.94,0,0,1,1,1.34,8.76,8.76,0,0,0,.61-4ZM4.81,10v0Z"/></g></g></svg>