<svg xmlns="http://www.w3.org/2000/svg" viewBox="0 0 22.97 12"><defs><style>.cls-1{fill:white;}</style></defs><title>Ресурс 19</title><g id="Слой_2" data-name="Слой 2"><g id="Layer_1" data-name="Layer 1"><path class="cls-1" d="M22.91,6.64a.46.46,0,0,0-.42-.25H9.07V2.63a.49.49,0,0,0-.48-.5H4.9V.51a.48.48,0,1,0-1,0V2.13H3.34a.49.49,0,0,0-.48.5V3.78H1.49a.49.49,0,0,0-.48.5V6.39H.48a.47.47,0,0,0-.41.24.52.52,0,0,0,0,.44A7.33,7.33,0,0,0,6.87,12H20.56a.47.47,0,0,0,.43-.3C22.11,9,22.43,8.3,22.51,8.06h0l.41-1A.53.53,0,0,0,22.91,6.64Zm-2.11,3H18.22l.05-.73h2.85Zm.6-1.41H18.27a.7.7,0,0,0-.71.68v.72a.7.7,0,0,0,.71.68h2.25l-.28.66H6.89A6.4,6.4,0,0,1,1.21,7.4H21.76ZM8.11,6.39H2V4.79H8.11ZM3.82,3.78V3.14H8.11v.64Z"/></g></g></svg>