<svg width="8" height="10" viewBox="0 0 8 10" fill="none" xmlns="http://www.w3.org/2000/svg">
<path d="M3.25213 0.492022C3.12228 0.489317 3.00089 0.556925 2.93596 0.662393C2.8682 0.770565 2.8682 0.90578 2.93596 1.01395C3.00089 1.11942 3.12228 1.18703 3.25213 1.18432H3.61348V1.89285C1.59219 2.07133 0 3.70203 0 5.68428C0 7.78282 1.78416 9.49194 3.97483 9.49194C6.16551 9.49194 7.94966 7.78282 7.94966 5.68428C7.94966 3.70203 6.35747 2.07133 4.33618 1.89285V1.18432H4.69753C4.82739 1.18703 4.94878 1.11942 5.01371 1.01395C5.08146 0.90578 5.08146 0.770565 5.01371 0.662393C4.94878 0.556925 4.82739 0.489317 4.69753 0.492022H3.25213ZM6.86279 1.87122C6.71317 1.87392 6.58049 1.95775 6.52685 2.09027C6.47039 2.22007 6.50427 2.36881 6.60872 2.46616L7.37659 3.20173C7.46975 3.29368 7.60243 3.32884 7.72947 3.29909C7.8565 3.26664 7.95531 3.17199 7.98919 3.05029C8.02024 2.9286 7.98354 2.8015 7.89038 2.71496L7.12251 1.97939C7.05194 1.91178 6.95878 1.87122 6.86279 1.87122ZM3.97483 2.56893C5.77593 2.56893 7.22697 3.95894 7.22697 5.68428C7.22697 7.40963 5.77593 8.79964 3.97483 8.79964C2.17374 8.79964 0.722697 7.40963 0.722697 5.68428C0.722697 3.95894 2.17374 2.56893 3.97483 2.56893ZM2.52379 3.94812C2.37699 3.95083 2.24431 4.03466 2.19067 4.16717C2.13421 4.29698 2.16809 4.44571 2.27537 4.54307L3.72076 5.92767C3.8111 6.01962 3.94378 6.05477 4.07081 6.02503C4.19785 5.99258 4.29666 5.89792 4.33053 5.77623C4.36159 5.65454 4.32489 5.52744 4.2289 5.4409L2.78351 4.05629C2.71576 3.98869 2.6226 3.94812 2.52379 3.94812Z" fill="#8C99B2"/>
</svg>
