<svg width="14" height="16" viewBox="0 0 14 16" fill="none" xmlns="http://www.w3.org/2000/svg">
<path fill-rule="evenodd" clip-rule="evenodd" d="M13.615 2.92094C13.5186 2.81972 13.402 2.73983 13.2728 2.68643C13.1436 2.63304 13.0047 2.60732 12.865 2.61093H11.785V1.80094C11.7878 1.62591 11.7546 1.45219 11.6875 1.29051C11.6204 1.12883 11.5208 0.982624 11.395 0.860935C11.2662 0.727198 11.1104 0.622374 10.938 0.553413C10.7656 0.484452 10.5805 0.452929 10.395 0.460935H9.86499C9.67955 0.453566 9.4947 0.485382 9.32239 0.554306C9.15008 0.623229 8.99419 0.727711 8.86499 0.860935C8.73916 0.982624 8.63971 1.12883 8.57263 1.29051C8.50555 1.45219 8.47225 1.62591 8.47498 1.80094V2.64094H5.38501V1.83094C5.38773 1.65591 5.35456 1.48219 5.28748 1.32051C5.2204 1.15883 5.12082 1.01262 4.995 0.890936C4.87344 0.76424 4.72747 0.663481 4.56592 0.594734C4.40436 0.525987 4.23063 0.490677 4.05505 0.490936H3.51501C3.33793 0.490477 3.1626 0.525654 2.99939 0.594373C2.83618 0.663092 2.68849 0.763947 2.56506 0.890936C2.43924 1.01262 2.33966 1.15883 2.27258 1.32051C2.2055 1.48219 2.17233 1.65591 2.17505 1.83094V2.64094H1.10498C0.822006 2.64354 0.55142 2.75711 0.351318 2.95721C0.151217 3.15732 0.0376424 3.42796 0.0350342 3.71094V14.3909C0.0376424 14.6739 0.151217 14.9446 0.351318 15.1447C0.55142 15.3448 0.822006 15.4583 1.10498 15.4609H12.885C13.0264 15.466 13.1673 15.4409 13.2983 15.3875C13.4294 15.3341 13.5475 15.2534 13.645 15.1509C13.746 15.0517 13.8262 14.9335 13.8811 14.803C13.936 14.6725 13.9645 14.5325 13.965 14.3909V3.64094C13.9645 3.49939 13.936 3.35933 13.8811 3.22887C13.8262 3.09841 13.746 2.98015 13.645 2.88094L13.615 2.92094ZM9.61499 1.80094C9.61467 1.76548 9.62162 1.73034 9.63538 1.69767C9.64913 1.66499 9.66948 1.63548 9.69507 1.61093C9.72011 1.58666 9.74987 1.56789 9.78259 1.55584C9.81531 1.54378 9.85021 1.53871 9.88501 1.54094H10.415C10.4514 1.53851 10.4878 1.54347 10.5222 1.5555C10.5566 1.56753 10.5881 1.58638 10.615 1.61093C10.6393 1.63597 10.6581 1.66581 10.6702 1.69853C10.6822 1.73125 10.6873 1.76613 10.6851 1.80094V4.21094C10.69 4.24756 10.6864 4.28483 10.6746 4.31984C10.6627 4.35486 10.643 4.38667 10.6168 4.41281C10.5907 4.43894 10.5589 4.45868 10.5239 4.4705C10.4889 4.48232 10.4517 4.48589 10.415 4.48094H9.88501C9.85021 4.48316 9.81531 4.47809 9.78259 4.46603C9.74987 4.45398 9.72011 4.43521 9.69507 4.41094C9.66919 4.38453 9.64874 4.35326 9.63501 4.31894C9.62128 4.28461 9.61446 4.2479 9.61499 4.21094V1.80094ZM3.18506 1.80094C3.18474 1.76548 3.19156 1.73034 3.20532 1.69767C3.21908 1.66499 3.23943 1.63548 3.26501 1.61093C3.29005 1.58666 3.31994 1.56789 3.35266 1.55584C3.38538 1.54378 3.42016 1.53871 3.45496 1.54094H3.995C4.02974 1.5393 4.06441 1.54466 4.09705 1.55668C4.12968 1.5687 4.15968 1.58715 4.18506 1.61093C4.20933 1.63597 4.22806 1.66581 4.24011 1.69853C4.25217 1.73125 4.25723 1.76613 4.255 1.80094V4.21094C4.25743 4.24727 4.25251 4.28372 4.24048 4.31809C4.22845 4.35246 4.20961 4.38404 4.18506 4.41094C4.15968 4.43472 4.12968 4.45317 4.09705 4.46519C4.06441 4.47722 4.02974 4.48257 3.995 4.48094H3.45496C3.42016 4.48316 3.38538 4.47809 3.35266 4.46603C3.31994 4.45398 3.29005 4.43521 3.26501 4.41094C3.23914 4.38453 3.21869 4.35326 3.20496 4.31894C3.19123 4.28461 3.18453 4.2479 3.18506 4.21094V1.80094ZM12.825 14.3909H1.04504V5.82094H12.825V14.3909Z" fill="#616580"/>
</svg>
