<svg width="17" height="18" viewBox="0 0 17 18" fill="none" xmlns="http://www.w3.org/2000/svg">
<path fill-rule="evenodd" clip-rule="evenodd" d="M9.86818 2.43448L14.5667 7.133L5.67094 16.0288L5.66993 16.0298C4.36843 17.3244 2.26953 17.3259 0.972418 16.0288C-0.324139 14.7322 -0.324139 12.6268 0.972418 11.3302L9.86818 2.43448ZM9.86818 3.96769L1.73902 12.0968C0.865852 12.97 0.865852 14.389 1.73902 15.2622C2.61149 16.1346 4.02514 16.1362 4.90488 15.2616C4.90504 15.2615 4.90473 15.2618 4.90488 15.2616L13.0335 7.133L9.86818 3.96769Z" fill="#5C6585"/>
<path fill-rule="evenodd" clip-rule="evenodd" d="M10.3942 1.81179C10.2931 1.71389 10.1409 1.71934 10.0507 1.80952L9.82342 2.03685C9.72552 2.13797 9.73097 2.29016 9.82114 2.38034L14.6176 7.17684C14.7074 7.26831 14.855 7.27353 14.9553 7.17326L15.1826 6.94593C15.2805 6.84481 15.2751 6.69262 15.1849 6.60244L10.3942 1.81179ZM9.28414 1.04291C9.80201 0.525041 10.6362 0.530142 11.155 1.03935L11.1586 1.04289L15.9515 5.83583C16.4694 6.3537 16.4643 7.18786 15.9551 7.70667L15.9515 7.71028L15.7219 7.93987C15.2029 8.45885 14.3647 8.46471 13.8459 7.93831L9.05454 3.14694C8.53667 2.62907 8.54177 1.79492 9.05097 1.27611L9.05452 1.2725L9.28414 1.04291Z" fill="#5C6585"/>
<path fill-rule="evenodd" clip-rule="evenodd" d="M12.5729 0.50374C12.9568 0.119847 13.5755 0.119847 13.9594 0.50374L16.4965 3.04083C16.8804 3.42473 16.8804 4.04347 16.4965 4.42736L14.7528 6.17105L10.8292 2.24743L12.5729 0.50374ZM13.2662 1.34369L12.3624 2.24743L14.7528 4.63784L15.6566 3.7341L13.2662 1.34369Z" fill="#5C6585"/>
<path d="M4.76548 10.8399L3.04348 12.5619C2.67037 12.935 2.66463 13.5262 3.02626 13.8936L3.10088 13.9682C3.4625 14.3298 4.05946 14.3241 4.43256 13.951L8.15784 10.2257L4.76548 10.8399Z" fill="#5C6585"/>
<path fill-rule="evenodd" clip-rule="evenodd" d="M9.76658 9.38344L4.81585 14.3342C4.23971 14.9103 3.29942 14.9333 2.71755 14.3514L2.63992 14.2737C2.06375 13.6884 2.08232 12.7563 2.66015 12.1785L4.50205 10.3366L9.76658 9.38344ZM5.02888 11.343L3.42676 12.9451C3.25884 13.113 3.26543 13.3624 3.41137 13.512L3.48416 13.5848C3.62554 13.7262 3.87918 13.7376 4.04924 13.5676L6.54907 11.0677L5.02888 11.343Z" fill="#5C6585"/>
</svg>
