<svg width="13" height="13" viewBox="0 0 13 13" fill="none" xmlns="http://www.w3.org/2000/svg">
<path d="M12.2883 12.4155L12.4148 12.289C12.738 11.9658 12.738 11.4419 12.4148 11.1187L1.88197 0.585862C1.5588 0.262689 1.03484 0.26268 0.711666 0.585854L0.585143 0.712377C0.261969 1.03555 0.261978 1.55951 0.585151 1.88269L11.118 12.4155C11.4412 12.7387 11.9651 12.7387 12.2883 12.4155Z" fill="#616580"/>
<path d="M0.585147 12.2883L0.71167 12.4148C1.03484 12.738 1.55883 12.738 1.882 12.4148L12.4148 1.882C12.738 1.55883 12.738 1.03485 12.4148 0.711673L12.2883 0.585149C11.9651 0.261976 11.4412 0.261984 11.118 0.585157L0.585155 11.118C0.261981 11.4412 0.261973 11.9651 0.585147 12.2883Z" fill="#616580"/>
</svg>
