<svg xmlns="http://www.w3.org/2000/svg" viewBox="0 0 12 12"><defs><style>.cls-4{fill:#3fa9f5;}</style></defs><title>Ресурс 1</title><g id="Слой_2" data-name="Слой 2"><g id="Слой_1-2" data-name="Слой 1"><path class="cls-4" d="M11.73,10.15h-1V9a1.63,1.63,0,0,0,.64-1.29V5A1.63,1.63,0,0,0,10,3.34V2.26A.28.28,0,0,0,9.76,2H7.13A1.48,1.48,0,0,0,5.65,3.47v2.1H4.86a.27.27,0,0,0-.21.09l-1,1.18H3.37V.27A.27.27,0,0,0,3.1,0H1.65a.27.27,0,0,0-.27.27V6.84H.87a.27.27,0,0,0-.27.27v3H.27a.27.27,0,0,0-.27.27v1.31A.27.27,0,0,0,.27,12H11.73a.27.27,0,0,0,.27-.27V10.42a.27.27,0,0,0-.27-.27m-1.51,0H9.31V9.31a1.74,1.74,0,0,0,.45.06,1.76,1.76,0,0,0,.46-.06ZM10.86,5V7.74a1.1,1.1,0,0,1-2.19,0V5a1.1,1.1,0,0,1,2.19,0M6.2,3.47a.94.94,0,0,1,.93-.94H9.49v.81A1.63,1.63,0,0,0,8.13,5V7.74A1.63,1.63,0,0,0,8.77,9v1.12H7.18V5.84a.27.27,0,0,0-.27-.27H6.2ZM1.92.54h.91v6.3H1.92ZM1.14,7.38H3.77A.28.28,0,0,0,4,7.28L5,6.11H6.64V7.4h-1a.27.27,0,0,0-.27.27A.28.28,0,0,0,5.68,8h1v2.2H5.16V9a.27.27,0,0,0-.27-.27h-2A.27.27,0,0,0,2.62,9v1.18H1.14Zm3.48,2.77H3.16V9.24H4.62Zm6.84,1.31H.54v-.77H11.46Z"/></g></g></svg>