<svg width="24" height="60" viewBox="0 0 24 60" fill="none" xmlns="http://www.w3.org/2000/svg">
<g>
<line x1="12.311" y1="0.000122048" x2="12.311" y2="21.9068" stroke="currentColor"/>
<line x1="12.311" y1="38.0934" x2="12.311" y2="60" stroke="currentColor"/>
<path d="M12 38.0001C16.4183 38.0001 20 34.4184 20 30.0001C20 25.5818 16.4183 22.0001 12 22.0001C7.58172 22.0001 4 25.5818 4 30.0001C4 34.4184 7.58172 38.0001 12 38.0001Z" stroke="currentColor" stroke-miterlimit="10"/>
<path fill-rule="evenodd" clip-rule="evenodd" d="M10.6101 33.4802C10.5377 33.401 10.4976 33.2975 10.4976 33.1902C10.4976 33.0829 10.5377 32.9794 10.6101 32.9002L13.5201 30.0002L10.6101 27.1002C10.5384 27.0226 10.4986 26.9208 10.4986 26.8152C10.4986 26.7096 10.5384 26.6078 10.6101 26.5302C10.6481 26.4921 10.6934 26.4619 10.7431 26.4413C10.7929 26.4206 10.8462 26.41 10.9001 26.41C10.9539 26.41 11.0073 26.4206 11.057 26.4413C11.1068 26.4619 11.152 26.4921 11.1901 26.5302L14.3801 29.7102C14.4182 29.7483 14.4484 29.7935 14.469 29.8433C14.4896 29.893 14.5002 29.9463 14.5002 30.0002C14.5002 30.0541 14.4896 30.1074 14.469 30.1572C14.4484 30.2069 14.4182 30.2521 14.3801 30.2902L11.1901 33.4802C11.152 33.5183 11.1068 33.5485 11.057 33.5691C11.0073 33.5898 10.9539 33.6004 10.9001 33.6004C10.8462 33.6004 10.7929 33.5898 10.7431 33.5691C10.6934 33.5485 10.6481 33.5183 10.6101 33.4802Z" fill="currentColor"/>
</g>
</svg>
