<svg width="3" height="14" viewBox="0 0 3 14" fill="none" xmlns="http://www.w3.org/2000/svg">
<path fill-rule="evenodd" clip-rule="evenodd" d="M1.3 2.8002C2 2.8002 2.6 2.20019 2.6 1.50019C2.6 0.800195 2 0.200195 1.3 0.200195C0.6 0.200195 0 0.800195 0 1.50019C0 2.20019 0.6 2.8002 1.3 2.8002Z" fill="currentColor"/>
<path fill-rule="evenodd" clip-rule="evenodd" d="M1.3 8.3002C2 8.3002 2.6 7.70019 2.6 7.00019C2.6 6.30019 2 5.7002 1.3 5.7002C0.6 5.7002 0 6.30019 0 7.00019C0 7.70019 0.6 8.3002 1.3 8.3002Z" fill="currentColor"/>
<path fill-rule="evenodd" clip-rule="evenodd" d="M1.3 13.8002C2 13.8002 2.6 13.2002 2.6 12.5002C2.6 11.8002 2 11.2002 1.3 11.2002C0.6 11.2002 0 11.8002 0 12.5002C0 13.2002 0.6 13.8002 1.3 13.8002Z" fill="currentColor"/>
</svg>
