<svg width="17" height="17" viewBox="0 0 17 17" fill="none" xmlns="http://www.w3.org/2000/svg">
<path fill-rule="evenodd" clip-rule="evenodd" d="M15.973 14.5507L8.97302 1.49068C8.89634 1.32647 8.77282 1.18856 8.61804 1.09427C8.46326 0.999983 8.28412 0.953508 8.10303 0.960682C7.92074 0.954117 7.74036 1.00073 7.58411 1.09484C7.42785 1.18895 7.30246 1.32648 7.22302 1.49068L0.223022 14.5507C0.127777 14.7001 0.0771484 14.8735 0.0771484 15.0507C0.0771484 15.2278 0.127777 15.4013 0.223022 15.5507C0.312388 15.7014 0.439717 15.826 0.592407 15.912C0.745098 15.998 0.917783 16.0424 1.09302 16.0407H15.093C15.2666 16.0406 15.4371 15.9955 15.5879 15.9095C15.7387 15.8236 15.8645 15.7 15.953 15.5507C16.0506 15.4022 16.1027 15.2284 16.1027 15.0507C16.1027 14.873 16.0506 14.6992 15.953 14.5507H15.973ZM1.13293 15.0207L8.13293 1.96068L15.1329 15.0207H1.13293ZM7.13293 7.02068C7.12714 6.88602 7.15104 6.75173 7.20288 6.62732C7.25472 6.5029 7.33329 6.39139 7.43298 6.30068C7.62035 6.11443 7.87375 6.00989 8.13794 6.00989C8.40213 6.00989 8.65565 6.11443 8.84302 6.30068C8.94271 6.39139 9.02116 6.5029 9.073 6.62732C9.12484 6.75173 9.14873 6.88602 9.14294 7.02068V10.0207C9.1424 10.153 9.11558 10.2839 9.06409 10.4057C9.01259 10.5276 8.93751 10.6381 8.84302 10.7307C8.65565 10.9169 8.40213 11.0215 8.13794 11.0215C7.87375 11.0215 7.62035 10.9169 7.43298 10.7307C7.3385 10.6381 7.26329 10.5276 7.21179 10.4057C7.1603 10.2839 7.13348 10.153 7.13293 10.0207V7.02068ZM7.43298 12.3107C7.59835 12.1486 7.81476 12.049 8.04541 12.0288C8.27606 12.0085 8.50657 12.0689 8.69763 12.1997C8.88869 12.3305 9.02852 12.5235 9.09314 12.7458C9.15776 12.9682 9.14321 13.206 9.052 13.4188C8.9608 13.6317 8.79858 13.8062 8.59302 13.9128C8.38745 14.0193 8.15127 14.0512 7.9248 14.003C7.69834 13.9549 7.49561 13.8296 7.3512 13.6486C7.20679 13.4677 7.12964 13.2422 7.13293 13.0107C7.1295 12.8757 7.15341 12.7415 7.20325 12.616C7.25309 12.4906 7.32786 12.3765 7.42297 12.2807L7.43298 12.3107Z" fill="currentColor"/>
</svg>
