<svg xmlns="http://www.w3.org/2000/svg" width="48.48" height="68.78" viewBox="0 0 48.48 68.78"><title>4</title><path d="M30.14,12.63,28.27,27.35l13.89.36L12.29,68.78l6.8-28.07-11.91.84L31.74,0l-1.6,12.63Zm-2.61-.33L12,38.57l10.49-.74L18,56.48,37.08,30.21l-11.78-.3Z" transform="translate(-0.02)" style="fill:#606580;fill-rule:evenodd;opacity:0.2"/><path d="M5.87,28.61H3.53v5.87H2.37V28.61H0v-1H5.87Z" transform="translate(-0.02)" style="fill:#5b607d"/><path d="M9.73,34.64a3.42,3.42,0,0,1-2.56-.93,3.6,3.6,0,0,1-.91-2.64,3.9,3.9,0,0,1,.88-2.68,3,3,0,0,1,2.31-1,3.27,3.27,0,0,1,1.13.18,2.3,2.3,0,0,1,.87.58,2.72,2.72,0,0,1,.56,1,4,4,0,0,1,.2,1.39v.63H7.44A2.58,2.58,0,0,0,8,33a2.22,2.22,0,0,0,1.67.64,3.08,3.08,0,0,0,.75-.09,3.76,3.76,0,0,0,.67-.22c.21-.1.38-.19.53-.28a2.93,2.93,0,0,0,.35-.25h.07v1.27l-.5.2c-.2.08-.39.14-.55.19l-.61.14A4.25,4.25,0,0,1,9.73,34.64Zm1.35-4.38a2.66,2.66,0,0,0-.11-.8,1.65,1.65,0,0,0-.28-.58,1.35,1.35,0,0,0-.52-.39,2,2,0,0,0-.79-.14,2.07,2.07,0,0,0-.79.14,1.88,1.88,0,0,0-.58.4,2,2,0,0,0-.4.61,2.43,2.43,0,0,0-.17.76Z" transform="translate(-0.02)" style="fill:#5b607d"/><path d="M18.93,34.48H17.49L15.12,31.3h-.58v3.18H13.38V27.59h1.16v3a1.54,1.54,0,0,0,.77-.18,1.43,1.43,0,0,0,.54-.71,3.28,3.28,0,0,0,.15-.36,2.28,2.28,0,0,0,.13-.36,2.13,2.13,0,0,1,.76-1.07,2.25,2.25,0,0,1,1.25-.31h.31v1h-.26a1.08,1.08,0,0,0-.73.2,1.42,1.42,0,0,0-.41.73,2.67,2.67,0,0,1-.41.83,1.71,1.71,0,0,1-.52.46Z" transform="translate(-0.02)" style="fill:#5b607d"/><path d="M25.09,27.59,21.38,37H20.14l1.24-2.88-2.51-6.55h1.26L22,32.69l1.87-5.1Z" transform="translate(-0.02)" style="fill:#5b607d"/><path d="M34.81,36.13H33.73V34.48H26V27.59h1.16V33.5h2.33V27.59h1.16V33.5H33V27.59h1.16V33.5h.69Z" transform="translate(-0.02)" style="fill:#5b607d"/><path d="M41.39,34.48H40.24V29.34L37,34.48H36V27.59h1.14v5.05l3.21-5.05h1.09Z" transform="translate(-0.02)" style="fill:#5b607d"/><path d="M48.5,34.48H47.36V29.34l-3.25,5.14h-1V27.59h1.15v5.05l3.21-5.05H48.5ZM48,24.39a3.59,3.59,0,0,1-.13,1,2.18,2.18,0,0,1-.37.73,1.93,1.93,0,0,1-.63.49,2.16,2.16,0,0,1-.9.17,2.21,2.21,0,0,1-.89-.17,1.92,1.92,0,0,1-.64-.49,2.07,2.07,0,0,1-.38-.74,3.16,3.16,0,0,1-.13-.95h1a2.18,2.18,0,0,0,.26,1.2,1,1,0,0,0,1.53,0,2,2,0,0,0,.28-1.2Z" transform="translate(-0.02)" style="fill:#5b607d"/><path d="M13,46.73a3,3,0,0,1-1-.18,2.19,2.19,0,0,1-.81-.53,2.45,2.45,0,0,1-.53-.89,4.06,4.06,0,0,1-.19-1.28,3.6,3.6,0,0,1,.2-1.25,2.68,2.68,0,0,1,.52-.89,2.2,2.2,0,0,1,.81-.55,2.75,2.75,0,0,1,1-.2,3.17,3.17,0,0,1,.88.13,5.32,5.32,0,0,1,.75.3v1h0a2.21,2.21,0,0,0-.26-.19,2.29,2.29,0,0,0-.83-.4,1.77,1.77,0,0,0-.5-.07,1.42,1.42,0,0,0-1.16.54,2.43,2.43,0,0,0-.43,1.54,2.46,2.46,0,0,0,.42,1.53,1.4,1.4,0,0,0,1.17.54,2,2,0,0,0,.86-.19,2.44,2.44,0,0,0,.73-.48h0v1l-.34.16a2.87,2.87,0,0,1-.38.13l-.42.11A3.11,3.11,0,0,1,13,46.73Z" transform="translate(-0.02)" style="fill:#5b607d"/><path d="M19.48,41.91H17.61V46.6h-.93V41.91H14.8v-.82h4.68Z" transform="translate(-0.02)" style="fill:#5b607d"/><path d="M23.25,46l-.3.23a2.31,2.31,0,0,1-.37.24,2.45,2.45,0,0,1-.48.2,2.52,2.52,0,0,1-.64.07,1.79,1.79,0,0,1-.65-.13,1.77,1.77,0,0,1-.53-.36,1.69,1.69,0,0,1-.36-.56A2,2,0,0,1,20,44a1.68,1.68,0,0,1,.76-.64,3.76,3.76,0,0,1,1.1-.29A13.5,13.5,0,0,1,23.25,43V42.8a1.17,1.17,0,0,0-.1-.53.74.74,0,0,0-.27-.31,1.34,1.34,0,0,0-.44-.15,4.41,4.41,0,0,0-.52,0,3.79,3.79,0,0,0-.76.09,5.86,5.86,0,0,0-.87.28h-.05v-.94c.17-.05.41-.1.73-.16a5.17,5.17,0,0,1,1-.09,4.35,4.35,0,0,1,1,.09,1.79,1.79,0,0,1,.7.32A1.34,1.34,0,0,1,24,42a2.27,2.27,0,0,1,.14.87V46.6h-.92Zm0-.77V43.72l-.83.08a4.44,4.44,0,0,0-.82.14,1.58,1.58,0,0,0-.61.35,1.06,1.06,0,0,0,0,1.37,1.14,1.14,0,0,0,.78.24,1.66,1.66,0,0,0,.8-.19A3.57,3.57,0,0,0,23.25,45.25Z" transform="translate(-0.02)" style="fill:#5b607d"/><path d="M29.5,41.91H27.63V46.6H26.7V41.91H24.83v-.82H29.5Z" transform="translate(-0.02)" style="fill:#5b607d"/><path d="M34.53,41.09l-3,7.55h-1l1-2.3-2-5.25h1l1.51,4.08,1.5-4.08Z" transform="translate(-0.02)" style="fill:#5b607d"/><path d="M37.42,46.73a2.87,2.87,0,0,1-1-.18,2.15,2.15,0,0,1-.82-.53,2.44,2.44,0,0,1-.52-.89,3.79,3.79,0,0,1-.19-1.28A3.61,3.61,0,0,1,35,42.6a2.86,2.86,0,0,1,.52-.89,2.16,2.16,0,0,1,.82-.55,2.75,2.75,0,0,1,1-.2,3.16,3.16,0,0,1,.87.13,5,5,0,0,1,.76.3v1H39a2,2,0,0,0-.25-.19,3.17,3.17,0,0,0-.38-.23,3.28,3.28,0,0,0-.45-.17,1.89,1.89,0,0,0-.51-.07,1.4,1.4,0,0,0-1.15.54,2.43,2.43,0,0,0-.44,1.54,2.46,2.46,0,0,0,.42,1.53,1.4,1.4,0,0,0,1.17.54,2,2,0,0,0,.87-.19,2.52,2.52,0,0,0,.72-.48h.06v1l-.35.16a2.78,2.78,0,0,1-.37.13l-.43.11A2.87,2.87,0,0,1,37.42,46.73Z" transform="translate(-0.02)" style="fill:#5b607d"/></svg>