<?xml version="1.0" encoding="utf-8"?>
<!-- Generator: Adobe Illustrator 19.0.0, SVG Export Plug-In . SVG Version: 6.00 Build 0)  -->
<svg version="1.1" id="Слой_1" xmlns="http://www.w3.org/2000/svg" xmlns:xlink="http://www.w3.org/1999/xlink" x="0px" y="0px"
	 viewBox="-475 274.9 7.8 12.1" style="enable-background:new -475 274.9 7.8 12.1;" xml:space="preserve">
<style type="text/css">
	.st0{fill:none;stroke:#8C99B2;stroke-width:0.4504;stroke-linecap:round;stroke-linejoin:round;}
	.st1{fill:none;stroke:#8C99B2;stroke-width:1.201;stroke-linecap:round;stroke-linejoin:round;}
	.st2{fill:#8C99B2;}
</style>
<title>3</title>
<path class="st0" d="M-474.3,276h6.4c0.3,0,0.5,0.2,0.5,0.5v9.8c0,0.3-0.2,0.5-0.5,0.5h-6.4c-0.3,0-0.5-0.2-0.5-0.5v-9.8
	C-474.8,276.2-474.5,276-474.3,276z"/>
<line class="st1" x1="-473.1" y1="275.5" x2="-472.5" y2="275.5"/>
<path class="st2" d="M-471.6,284.5l-0.4-0.2l-0.3-0.1c-0.8-0.5-1.2-1.5-0.9-2.4c0.1-0.4,0.3-0.8,0.5-1.1l0,0
	c0.3-0.6,0.6-1.1,0.8-1.8c0-0.1,0.1-0.2,0.1-0.3l0.1-0.4l0.2,0.1l0.1,0.1l0.2,0.2c0.5,0.5,1,1,1.5,1.6c0.4,0.5,0.6,1.2,0.7,1.8
	c0.2,0.8-0.2,1.6-0.9,2.1c-0.1,0.1-0.2,0.1-0.4,0.2l-0.2,0.1l-0.2,0.1l-0.1-0.3l0.1-0.1c0,0,0.1-0.1,0.1-0.1
	c0.1-0.1,0.1-0.2,0.2-0.3c0.4-0.7,0.4-1.5,0-2.2c-0.1-0.2-0.2-0.4-0.4-0.5c0,0.6-0.2,1.1-0.5,1.6l-0.3,0.5l-0.1-0.5
	c0-0.2-0.1-0.4-0.2-0.6l-0.3,0.8c-0.2,0.4-0.1,0.9,0.2,1.2c0.1,0.1,0.1,0.1,0.1,0.2L-471.6,284.5z M-471.1,280.1l0.4,0.3
	c0.3,0.3,0.6,0.6,0.8,0.9c0.5,0.7,0.5,1.6,0.1,2.4c0.4-0.4,0.6-1,0.5-1.6c-0.1-0.6-0.3-1.2-0.7-1.6c-0.4-0.6-0.9-1.1-1.4-1.6v0.1
	c-0.2,0.6-0.5,1.2-0.9,1.8l0,0c-0.2,0.3-0.4,0.6-0.5,1c-0.2,0.6-0.1,1.3,0.4,1.7c-0.1-0.3-0.1-0.7,0.1-1l0.3-0.7l0.1-0.3l0.2-0.1
	l0.1,0.1c0.1,0.1,0.3,0.3,0.3,0.5c0.2-0.4,0.3-0.9,0.2-1.4L-471.1,280.1z M-471.6,281.7L-471.6,281.7z"/>
</svg>
