<?xml version="1.0" encoding="utf-8"?>
<!-- Generator: Adobe Illustrator 19.0.0, SVG Export Plug-In . SVG Version: 6.00 Build 0)  -->
<svg version="1.1" id="Слой_1" xmlns="http://www.w3.org/2000/svg" xmlns:xlink="http://www.w3.org/1999/xlink" x="0px" y="0px"
	 viewBox="-473 275.3 11.3 10.7" style="enable-background:new -473 275.3 11.3 10.7;" xml:space="preserve">
<style type="text/css">
	.st0{fill:none;stroke:#F4A321;stroke-width:0.4504;stroke-linecap:round;stroke-linejoin:round;}
	.st1{fill:#F4A321;}
</style>
<title>1</title>
<path class="st0" d="M-467.2,283.3h0.2"/>
<path class="st0" d="M-464.9,283.4c1.7,0.2,2.9,0.6,2.9,1.1c0,0.7-2.4,1.3-5.4,1.3c-3,0-5.4-0.6-5.4-1.3c0-0.5,1.2-0.9,2.9-1.1"/>
<path class="st1" d="M-468.3,275.7c0.2,1-0.3,2.1-1.2,2.7c-2.4,1.9-0.6,3.7-0.6,3.7s-0.9-1.7,1.1-3.1
	C-467.2,277.6-467.8,276.3-468.3,275.7z"/>
<path class="st1" d="M-467.3,275.3c0,0,1.6,1.7-0.7,4.1c-3.2,3.4,0.7,5.4,0.7,5.4s-2.2-1.9,0.3-4.8
	C-464.7,277.6-466.3,276-467.3,275.3z"/>
<path class="st1" d="M-464.8,277.6c0,0,0.6,1.3-0.9,2.6c-2.3,2-0.2,3.6-0.2,3.6s-1.2-1.5,0.7-3
	C-463.4,279.3-464.2,278.2-464.8,277.6z"/>
</svg>
