<svg xmlns="http://www.w3.org/2000/svg" width="11.26" height="10.68" viewBox="0 0 11.26 10.68"><title>1</title><path d="M5.83,8h.22" style="fill:none;stroke:#8c99b2;stroke-linecap:round;stroke-linejoin:round;stroke-width:0.450359525002715px"/><path d="M8.15,8.1C9.86,8.3,11,8.72,11,9.2c0,.69-2.42,1.25-5.4,1.25S.23,9.89.23,9.2c0-.48,1.17-.9,2.88-1.1" style="fill:none;stroke:#8c99b2;stroke-linecap:round;stroke-linejoin:round;stroke-width:0.450359525002715px"/><path d="M5.72,0S7.35,1.67,5,4.13c-3.16,3.37.7,5.37.7,5.37S3.52,7.58,6,4.75C8.28,2.23,6.75.7,5.72,0Z" style="fill:#8c99b2"/><path d="M4.74.34A2.58,2.58,0,0,1,3.56,3c-2.37,1.91-.62,3.68-.62,3.68S2,5,4,3.55C5.8,2.25,5.21,1,4.74.34Z" style="fill:#8c99b2"/><path d="M8.25,2.31s.64,1.25-.89,2.59c-2.3,2-.17,3.55-.17,3.55S6,7,7.92,5.41C9.61,4,8.82,2.87,8.25,2.31Z" style="fill:#8c99b2"/></svg>