<svg width="11" height="18" viewBox="0 0 11 18" fill="none" xmlns="http://www.w3.org/2000/svg">
<path d="M4.72412 8.72364C4.33175 8.85477 4.20745 8.81365 4.02978 8.5025C3.75355 8.02035 3.3436 7.67832 2.89096 7.37106C2.44586 7.06763 1.98317 6.77704 1.58703 6.41575C0.30382 5.24573 -0.00756584 3.78776 0.427496 2.14329C0.481486 1.94016 0.473325 1.782 0.360322 1.59817C-0.0188661 0.983597 -0.0471169 0.795848 0.0426577 0H10.1985C10.1935 0.520716 10.3171 1.04916 9.9298 1.49788C9.74648 1.71258 9.74774 1.9453 9.81679 2.22432C10.3002 4.16832 9.69626 5.73432 8.02821 6.91849C7.61575 7.21163 7.18508 7.48033 6.79145 7.79662C6.57298 7.97276 6.39531 8.21191 6.23648 8.44721C5.98285 8.8162 5.96904 8.83676 5.49192 8.74679C5.61371 8.33535 5.83909 7.98822 6.11029 7.66679C6.55352 7.14219 7.15432 6.82464 7.70426 6.4389C9.28819 5.32931 9.76783 3.96001 9.1959 2.02244C9.15447 1.88358 9.08541 1.84116 8.94416 1.84116C6.38652 1.84501 3.82952 1.84501 1.27188 1.84116C1.12184 1.84116 1.07161 1.90288 1.02767 2.03143C0.450724 3.74276 0.908387 5.23934 2.35734 6.31291C2.79052 6.63434 3.25069 6.91849 3.68261 7.24248C4.09444 7.55104 4.3939 7.95993 4.61614 8.42277C4.6626 8.51792 4.68959 8.62335 4.72412 8.72364Z" fill="#00A99D"/>
<path d="M5.46554 9.24553C5.964 9.16196 5.97217 9.1658 6.20194 9.55668C6.47063 10.0118 6.8605 10.3423 7.2987 10.6225C7.56865 10.7948 7.84111 10.9646 8.10353 11.1484C9.70315 12.2721 10.3008 13.8703 9.81615 15.7744C9.7471 16.0496 9.74961 16.2797 9.90216 16.5137C10.1966 16.965 10.2726 17.4587 10.179 18H0.0282049C0.0445276 17.6207 -0.0722423 17.2325 0.148741 16.875C0.42246 16.4353 0.468917 16.0033 0.354658 15.4723C-0.0377135 13.662 0.619588 12.231 2.10307 11.1612C2.41069 10.9401 2.73714 10.7434 3.05355 10.5351C3.50619 10.2368 3.88035 9.86654 4.1208 9.37666C4.27461 9.06551 4.53326 9.28281 4.73353 9.20951L4.78375 9.2648C4.67828 9.4795 4.58599 9.70194 4.46483 9.90766C4.1208 10.503 3.58027 10.8874 3.02153 11.2615C2.56889 11.5663 2.11123 11.8812 1.72513 12.2618C0.813576 13.1631 0.645327 14.283 0.904606 15.4954C1.04774 16.1576 1.049 16.1576 1.72262 16.1576C4.0938 16.1576 6.46436 16.1524 8.83679 16.164C9.08226 16.1653 9.19275 16.0868 9.22728 15.8606C9.29194 15.453 9.39427 15.048 9.41499 14.6391C9.48217 13.3431 8.84181 12.4033 7.83609 11.673C7.51591 11.4403 7.17125 11.2397 6.84229 11.0185C6.14669 10.548 5.63002 9.88196 5.46554 9.24553Z" fill="#00A99D"/>
<path d="M8.4974 15.7424H1.73291C1.9451 15.3065 2.19371 14.9324 2.52519 14.6174C2.77065 14.3846 3.02554 14.1648 3.2798 13.9424C4.05763 13.2635 4.64023 12.4484 4.99368 11.4751C5.02569 11.3889 5.06085 11.3028 5.10919 11.1755C5.1569 11.2899 5.19331 11.3671 5.22157 11.4481C5.5838 12.4664 6.19967 13.3072 7.01894 14.0067C7.48665 14.4065 7.96252 14.8012 8.27767 15.3464C8.34422 15.4621 8.40762 15.5804 8.4974 15.7424Z" fill="#00A99D"/>
<path d="M5.11633 8.43659C4.64423 7.33215 3.85509 6.61469 2.84937 6.00915C4.38683 5.57715 5.83892 5.5784 7.37514 6.00785C6.37757 6.61858 5.57776 7.32316 5.11633 8.43659Z" fill="#00A99D"/>
</svg>
