<?xml version="1.0" encoding="utf-8"?>
<!-- Generator: Adobe Illustrator 23.0.3, SVG Export Plug-In . SVG Version: 6.00 Build 0)  -->
<svg version="1.1" id="Слой_1" xmlns="http://www.w3.org/2000/svg" xmlns:xlink="http://www.w3.org/1999/xlink" x="0px" y="0px"
	 viewBox="0 0 28.3 28.3" style="enable-background:new 0 0 28.3 28.3;" xml:space="preserve">
<style type="text/css">
	.st0-tank-info{display:none;fill:none;stroke:#EB5757;stroke-width:0.5;stroke-miterlimit:10;}
	.st1-tank-info{fill:#EB5757;}
</style>
<title>В ремонте</title>
<g id="Слой_1-2">
	<path class="st0-tank-info" d="M-2.6,12.1c1-11.1,10.9-19.3,22-18.3s19.3,10.9,18.3,22c-0.9,9.6-8.4,17.2-17.9,18.2"/>
	<path class="st1-tank-info" d="M19.5,15.7c3.2,0,5.7-2.6,5.7-5.7c0,0,0,0,0,0c0-0.9-0.2-1.8-0.6-2.6l-4.2,4.2l-2.1-0.8l-0.9-2l4.1-4.1
		c-0.7-0.3-1.4-0.4-2.1-0.4c-3.2,0-5.7,2.6-5.7,5.7C13.7,13.2,16.3,15.7,19.5,15.7z"/>
	<path class="st1-tank-info" d="M14.3,15.2c-0.4-0.4-0.8-0.9-1.1-1.5l-8.1,6.4c0.4,0.9,0.9,1.8,1.6,2.5c0.7,0.6,1.6,1.1,2.5,1.5l6.5-8
		C15.3,15.9,14.8,15.6,14.3,15.2z M9.7,21c0,0.7-0.6,1.2-1.2,1.2c-0.7,0-1.2-0.6-1.2-1.2c0-0.7,0.6-1.2,1.2-1.2S9.7,20.3,9.7,21
		L9.7,21z"/>
</g>
</svg>
