<svg width="18" height="17" viewBox="0 0 18 17" fill="none" xmlns="http://www.w3.org/2000/svg">
<g opacity="0.3">
<g opacity="0.65">
<path opacity="0.65" d="M0.489306 8.02463C0.583104 8.02704 0.674109 8.05705 0.750938 8.11091C0.827767 8.16477 0.887006 8.2401 0.921247 8.32745C0.955487 8.41481 0.963207 8.51033 0.94344 8.60205C0.923674 8.69377 0.8773 8.77763 0.810118 8.84313C0.742937 8.90863 0.657932 8.95287 0.565738 8.97031C0.473544 8.98775 0.378255 8.97761 0.291791 8.94117C0.205328 8.90473 0.13153 8.8436 0.0796296 8.76544C0.027729 8.68727 3.08754e-05 8.59553 2.57883e-08 8.5017C-2.09156e-05 8.43801 0.0127124 8.37496 0.0374489 8.31627C0.0621854 8.25757 0.0984239 8.20443 0.144028 8.15996C0.189632 8.1155 0.243679 8.08062 0.302979 8.05737C0.36228 8.03413 0.425634 8.023 0.489306 8.02463Z" fill="white"/>
</g>
<path opacity="0.75" d="M3.64519 2.87466C3.60722 3.00758 3.52699 3.12451 3.41663 3.20776C3.30627 3.29101 3.1718 3.33604 3.03356 3.33604C2.89532 3.33604 2.76085 3.29101 2.65049 3.20776C2.54013 3.12451 2.4599 3.00758 2.42193 2.87466C2.39488 2.77999 2.39019 2.68034 2.4082 2.58355C2.42621 2.48676 2.46645 2.39547 2.52574 2.31687C2.58503 2.23827 2.66176 2.17451 2.74988 2.1306C2.838 2.0867 2.93511 2.06384 3.03356 2.06384C3.13201 2.06384 3.22912 2.0867 3.31724 2.1306C3.40536 2.17451 3.48209 2.23827 3.54138 2.31687C3.60067 2.39547 3.6409 2.48676 3.65892 2.58355C3.67693 2.68034 3.67223 2.77999 3.64519 2.87466Z" fill="white"/>
<path opacity="0.8" d="M5.73726 2.0918C6.1764 2.0918 6.53238 1.73581 6.53238 1.29668C6.53238 0.857545 6.1764 0.501556 5.73726 0.501556C5.29813 0.501556 4.94214 0.857545 4.94214 1.29668C4.94214 1.73581 5.29813 2.0918 5.73726 2.0918Z" fill="white"/>
<path opacity="0.7" d="M1.6392 5.41906C1.6392 5.54559 1.58894 5.66693 1.49947 5.7564C1.41 5.84587 1.28866 5.89613 1.16213 5.89613C1.0356 5.89613 0.914259 5.84587 0.82479 5.7564C0.735321 5.66693 0.685059 5.54559 0.685059 5.41906C0.685059 5.29253 0.735321 5.17119 0.82479 5.08172C0.914259 4.99225 1.0356 4.94199 1.16213 4.94199C1.28866 4.94199 1.41 4.99225 1.49947 5.08172C1.58894 5.17119 1.6392 5.29253 1.6392 5.41906Z" fill="white"/>
<path opacity="0.85" d="M8.86872 1.93276C9.40244 1.93276 9.8351 1.5001 9.8351 0.966379C9.8351 0.432663 9.40244 0 8.86872 0C8.33501 0 7.90234 0.432663 7.90234 0.966379C7.90234 1.5001 8.33501 1.93276 8.86872 1.93276Z" fill="white"/>
<path opacity="0.9" d="M12.9788 1.94501C12.9788 2.1676 12.9128 2.38518 12.7892 2.57026C12.6655 2.75533 12.4897 2.89957 12.2841 2.98475C12.0785 3.06993 11.8522 3.09222 11.6339 3.04879C11.4156 3.00537 11.215 2.89819 11.0577 2.7408C10.9003 2.5834 10.7931 2.38288 10.7497 2.16457C10.7062 1.94626 10.7285 1.71998 10.8137 1.51434C10.8989 1.3087 11.0431 1.13294 11.2282 1.00928C11.4133 0.885614 11.6308 0.819611 11.8534 0.819611C12.0012 0.819611 12.1476 0.84872 12.2841 0.905277C12.4206 0.961834 12.5447 1.04473 12.6492 1.14923C12.7537 1.25374 12.8366 1.3778 12.8932 1.51434C12.9497 1.65088 12.9788 1.79722 12.9788 1.94501Z" fill="white"/>
<path d="M15.4498 4.30588C15.3816 4.63031 15.1874 4.91438 14.9098 5.09561C14.6323 5.27684 14.2941 5.34038 13.9696 5.27225C13.6452 5.20412 13.3611 5.0099 13.1799 4.73232C12.9987 4.45474 12.9351 4.11653 13.0032 3.7921C13.037 3.63146 13.102 3.47904 13.1947 3.34353C13.2873 3.20803 13.4057 3.0921 13.5432 3.00236C13.6806 2.91263 13.8344 2.85084 13.9957 2.82053C14.157 2.79022 14.3228 2.79199 14.4834 2.82572C14.644 2.85946 14.7965 2.9245 14.932 3.01715C15.0675 3.10979 15.1834 3.22821 15.2731 3.36566C15.3629 3.5031 15.4247 3.65687 15.455 3.8182C15.4853 3.97952 15.4835 4.14523 15.4498 4.30588Z" fill="white"/>
<path d="M16.8322 6.76465C16.8346 7.05116 16.7517 7.33191 16.594 7.57115C16.4363 7.81039 16.211 7.9973 15.9468 8.10806C15.6825 8.21883 15.3913 8.24844 15.1102 8.19314C14.829 8.13783 14.5707 8.00011 14.3681 7.7975C14.1655 7.5949 14.0278 7.33658 13.9725 7.05544C13.9172 6.77431 13.9468 6.48307 14.0575 6.21882C14.1683 5.95457 14.3552 5.72926 14.5944 5.57159C14.8337 5.41391 15.1144 5.33101 15.4009 5.33343C15.5889 5.33343 15.775 5.37045 15.9487 5.44237C16.1223 5.5143 16.2801 5.61972 16.413 5.75262C16.5459 5.88552 16.6513 6.0433 16.7232 6.21694C16.7951 6.39058 16.8322 6.5767 16.8322 6.76465Z" fill="white"/>
<path d="M17.0768 10.0675C17.0865 10.3863 17.0009 10.7008 16.8308 10.9707C16.6608 11.2406 16.414 11.4536 16.1222 11.5824C15.8304 11.7112 15.5067 11.75 15.1927 11.6938C14.8787 11.6376 14.5886 11.489 14.3596 11.2669C14.1306 11.0449 13.973 10.7596 13.9071 10.4475C13.8412 10.1353 13.87 9.81067 13.9897 9.51499C14.1094 9.21932 14.3146 8.9661 14.5791 8.78776C14.8436 8.60941 15.1553 8.51406 15.4743 8.51392C15.8909 8.51372 16.2913 8.67582 16.5905 8.96584C16.8896 9.25586 17.064 9.651 17.0768 10.0675Z" fill="white"/>
<path opacity="0.1" d="M14.6794 12.9422C14.6818 13.0399 14.6549 13.1362 14.602 13.2185C14.5492 13.3008 14.4729 13.3654 14.3831 13.404C14.2932 13.4425 14.1938 13.4532 14.0977 13.4347C14.0017 13.4162 13.9134 13.3694 13.8442 13.3002C13.7751 13.2311 13.7282 13.1428 13.7097 13.0467C13.6913 12.9507 13.702 12.8513 13.7405 12.7614C13.7791 12.6715 13.8437 12.5953 13.926 12.5424C14.0083 12.4896 14.1045 12.4627 14.2023 12.4651C14.3288 12.4651 14.4502 12.5153 14.5397 12.6048C14.6291 12.6943 14.6794 12.8156 14.6794 12.9422Z" fill="white"/>
<path opacity="0.2" d="M12.3426 15.0462C12.3538 15.116 12.3496 15.1875 12.3305 15.2557C12.3113 15.3238 12.2776 15.387 12.2317 15.4408C12.1857 15.4947 12.1287 15.5379 12.0644 15.5676C12.0001 15.5972 11.9302 15.6126 11.8594 15.6126C11.7886 15.6126 11.7187 15.5972 11.6544 15.5676C11.5902 15.5379 11.5331 15.4947 11.4872 15.4408C11.4412 15.387 11.4075 15.3238 11.3884 15.2557C11.3692 15.1875 11.3651 15.116 11.3762 15.0462C11.3946 14.9312 11.4533 14.8266 11.5419 14.751C11.6304 14.6755 11.743 14.634 11.8594 14.634C11.9758 14.634 12.0884 14.6755 12.177 14.751C12.2655 14.8266 12.3243 14.9312 12.3426 15.0462Z" fill="white"/>
<path opacity="0.3" d="M9.34577 16.0248C9.32743 16.1397 9.2687 16.2444 9.18014 16.3199C9.09158 16.3955 8.97899 16.437 8.86258 16.437C8.74618 16.437 8.63359 16.3955 8.54503 16.3199C8.45647 16.2444 8.39774 16.1397 8.37939 16.0248C8.39774 15.9098 8.45647 15.8052 8.54503 15.7297C8.63359 15.6541 8.74618 15.6126 8.86258 15.6126C8.97899 15.6126 9.09158 15.6541 9.18014 15.7297C9.2687 15.8052 9.32743 15.9098 9.34577 16.0248Z" fill="white"/>
<path opacity="0.4" d="M6.21416 15.6945C6.21416 15.7888 6.18618 15.8811 6.13376 15.9595C6.08133 16.038 6.00682 16.0991 5.91965 16.1352C5.83248 16.1713 5.73655 16.1808 5.64401 16.1624C5.55147 16.144 5.46646 16.0985 5.39974 16.0318C5.33302 15.9651 5.28758 15.8801 5.26918 15.7875C5.25077 15.695 5.26022 15.5991 5.29632 15.5119C5.33243 15.4247 5.39358 15.3502 5.47204 15.2978C5.55049 15.2454 5.64273 15.2174 5.73708 15.2174C5.80019 15.2157 5.86298 15.2269 5.92163 15.2503C5.98027 15.2737 6.03353 15.3087 6.07817 15.3534C6.12281 15.398 6.15789 15.4513 6.18127 15.5099C6.20465 15.5686 6.21584 15.6314 6.21416 15.6945Z" fill="white"/>
<path opacity="0.55" d="M3.53545 14.1165C3.53545 14.2108 3.50747 14.3031 3.45504 14.3815C3.40262 14.46 3.32811 14.5211 3.24094 14.5572C3.15377 14.5933 3.05784 14.6028 2.9653 14.5844C2.87276 14.566 2.78775 14.5205 2.72103 14.4538C2.65431 14.3871 2.60887 14.3021 2.59047 14.2096C2.57206 14.117 2.58151 14.0211 2.61761 13.9339C2.65372 13.8467 2.71487 13.7722 2.79333 13.7198C2.87178 13.6674 2.96402 13.6394 3.05837 13.6394C3.1849 13.6394 3.30625 13.6897 3.39571 13.7791C3.48518 13.8686 3.53545 13.9899 3.53545 14.1165Z" fill="white"/>
<path opacity="0.6" d="M1.63921 11.5721C1.63921 11.6664 1.61123 11.7587 1.5588 11.8371C1.50638 11.9156 1.43187 11.9767 1.3447 12.0128C1.25753 12.049 1.1616 12.0584 1.06906 12.04C0.976517 12.0216 0.89151 11.9761 0.82479 11.9094C0.758071 11.8427 0.712634 11.7577 0.694226 11.6652C0.675818 11.5726 0.685265 11.4767 0.721374 11.3895C0.757483 11.3023 0.81863 11.2278 0.897084 11.1754C0.975539 11.123 1.06778 11.095 1.16213 11.095C1.22524 11.0933 1.28803 11.1045 1.34667 11.1279C1.40532 11.1513 1.45858 11.1864 1.50322 11.231C1.54786 11.2756 1.58294 11.3289 1.60632 11.3875C1.6297 11.4462 1.64089 11.509 1.63921 11.5721Z" fill="white"/>
<path opacity="0.75" d="M11.7435 5.56583C11.7451 5.6295 11.734 5.69286 11.7107 5.75216C11.6875 5.81146 11.6526 5.86551 11.6081 5.91111C11.5637 5.95671 11.5105 5.99295 11.4518 6.01769C11.3932 6.04242 11.3301 6.05516 11.2664 6.05514C11.1366 6.05514 11.0122 6.00359 10.9204 5.91182C10.8287 5.82006 10.7771 5.6956 10.7771 5.56583C10.7771 5.50214 10.7898 5.43909 10.8145 5.38039C10.8393 5.3217 10.8755 5.26855 10.9211 5.22409C10.9667 5.17963 11.0208 5.14474 11.0801 5.1215C11.1394 5.09826 11.2027 5.08712 11.2664 5.08876C11.3295 5.08707 11.3923 5.09826 11.4509 5.12164C11.5096 5.14502 11.5629 5.1801 11.6075 5.22474C11.6521 5.26938 11.6872 5.32265 11.7106 5.38129C11.734 5.43993 11.7452 5.50272 11.7435 5.56583Z" fill="white"/>
<path opacity="0.85" d="M12.6976 7.21726C12.6992 7.28093 12.6881 7.34429 12.6648 7.40359C12.6416 7.46289 12.6067 7.51693 12.5622 7.56254C12.5178 7.60814 12.4646 7.64438 12.4059 7.66912C12.3473 7.69385 12.2842 7.70659 12.2205 7.70657C12.0907 7.70657 11.9663 7.65501 11.8745 7.56325C11.7828 7.47149 11.7312 7.34703 11.7312 7.21726C11.7312 7.15357 11.7439 7.09051 11.7686 7.03182C11.7934 6.97313 11.8296 6.91998 11.8752 6.87552C11.9208 6.83105 11.9749 6.79617 12.0342 6.77293C12.0935 6.74969 12.1568 6.73855 12.2205 6.74019C12.2836 6.7385 12.3464 6.74969 12.405 6.77307C12.4637 6.79645 12.517 6.83153 12.5616 6.87617C12.6062 6.92081 12.6413 6.97408 12.6647 7.03272C12.6881 7.09136 12.6993 7.15415 12.6976 7.21726Z" fill="white"/>
<path opacity="0.7" d="M10.202 4.45269C10.2037 4.51579 10.1925 4.57858 10.1691 4.63723C10.1457 4.69587 10.1106 4.74913 10.066 4.79378C10.0214 4.83842 9.96809 4.87349 9.90944 4.89687C9.8508 4.92025 9.78801 4.93144 9.7249 4.92976C9.66123 4.93139 9.59788 4.92026 9.53857 4.89702C9.47927 4.87377 9.42523 4.83889 9.37962 4.79443C9.33402 4.74996 9.29778 4.69682 9.27304 4.63812C9.24831 4.57943 9.23557 4.51638 9.2356 4.45269C9.2356 4.32291 9.28715 4.19846 9.37891 4.10669C9.47067 4.01493 9.59513 3.96338 9.7249 3.96338C9.7886 3.96336 9.85165 3.97609 9.91034 4.00083C9.96903 4.02556 10.0222 4.0618 10.0666 4.10741C10.1111 4.15301 10.146 4.20706 10.1692 4.26636C10.1925 4.32566 10.2036 4.38901 10.202 4.45269Z" fill="white"/>
<path d="M12.9057 9.11333C12.9081 9.21059 12.8815 9.30637 12.8293 9.38843C12.777 9.47049 12.7014 9.5351 12.6123 9.57402C12.5231 9.61294 12.4244 9.62439 12.3287 9.60691C12.233 9.58944 12.1446 9.54383 12.075 9.47591C12.0053 9.40799 11.9575 9.32085 11.9376 9.22561C11.9177 9.13038 11.9266 9.03138 11.9633 8.94125C11.9999 8.85113 12.0626 8.77398 12.1433 8.71965C12.224 8.66532 12.3191 8.63629 12.4164 8.63626C12.5441 8.63622 12.6667 8.68609 12.7581 8.77522C12.8496 8.86436 12.9025 8.98569 12.9057 9.11333Z" fill="white"/>
<path opacity="0.05" d="M12.3182 10.9604C12.3182 11.0902 12.2667 11.2147 12.1749 11.3064C12.0831 11.3982 11.9587 11.4497 11.8289 11.4497C11.6991 11.4497 11.5747 11.3982 11.4829 11.3064C11.3912 11.2147 11.3396 11.0902 11.3396 10.9604C11.3396 10.8307 11.3912 10.7062 11.4829 10.6144C11.5747 10.5227 11.6991 10.4711 11.8289 10.4711C11.9587 10.4711 12.0831 10.5227 12.1749 10.6144C12.2667 10.7062 12.3182 10.8307 12.3182 10.9604Z" fill="white"/>
<path opacity="0.1" d="M11.034 12.355C11.0157 12.47 10.9569 12.5746 10.8684 12.6501C10.7798 12.7257 10.6672 12.7672 10.5508 12.7672C10.4344 12.7672 10.3218 12.7257 10.2333 12.6501C10.1447 12.5746 10.086 12.47 10.0676 12.355C10.0565 12.2851 10.0606 12.2136 10.0798 12.1455C10.0989 12.0773 10.1326 12.0142 10.1786 11.9603C10.2245 11.9065 10.2816 11.8632 10.3458 11.8336C10.4101 11.8039 10.48 11.7886 10.5508 11.7886C10.6216 11.7886 10.6915 11.8039 10.7558 11.8336C10.8201 11.8632 10.8772 11.9065 10.9231 11.9603C10.969 12.0142 11.0027 12.0773 11.0219 12.1455C11.041 12.2136 11.0452 12.2851 11.034 12.355Z" fill="white"/>
<path opacity="0.15" d="M9.29697 13.1256C9.29697 13.2224 9.26827 13.317 9.21451 13.3975C9.16074 13.4779 9.08432 13.5407 8.99492 13.5777C8.90551 13.6147 8.80712 13.6244 8.71221 13.6055C8.61729 13.5867 8.5301 13.54 8.46167 13.4716C8.39324 13.4032 8.34664 13.316 8.32776 13.2211C8.30888 13.1262 8.31857 13.0278 8.35561 12.9384C8.39264 12.849 8.45536 12.7725 8.53582 12.7188C8.61629 12.665 8.71089 12.6363 8.80767 12.6363C8.87192 12.6363 8.93555 12.649 8.99492 12.6736C9.05428 12.6982 9.10822 12.7342 9.15366 12.7796C9.19909 12.8251 9.23514 12.879 9.25973 12.9384C9.28432 12.9977 9.29697 13.0614 9.29697 13.1256Z" fill="white"/>
<path opacity="0.2" d="M7.38852 13.1256C7.38852 13.2554 7.33697 13.3799 7.24521 13.4716C7.15345 13.5634 7.02899 13.6149 6.89922 13.6149C6.76945 13.6149 6.64499 13.5634 6.55323 13.4716C6.46146 13.3799 6.40991 13.2554 6.40991 13.1256C6.40991 12.9959 6.46146 12.8714 6.55323 12.7796C6.64499 12.6879 6.76945 12.6363 6.89922 12.6363C7.02899 12.6363 7.15345 12.6879 7.24521 12.7796C7.33697 12.8714 7.38852 12.9959 7.38852 13.1256Z" fill="white"/>
<path opacity="0.25" d="M5.63923 12.355C5.64091 12.4181 5.62973 12.4809 5.60635 12.5395C5.58297 12.5982 5.54789 12.6514 5.50325 12.6961C5.45861 12.7407 5.40534 12.7758 5.3467 12.7992C5.28806 12.8226 5.22527 12.8338 5.16216 12.8321C5.09849 12.8337 5.03513 12.8226 4.97583 12.7993C4.91653 12.7761 4.86248 12.7412 4.81688 12.6967C4.77128 12.6523 4.73504 12.5991 4.7103 12.5404C4.68556 12.4817 4.67283 12.4187 4.67285 12.355C4.67285 12.2252 4.7244 12.1008 4.81617 12.009C4.90793 11.9172 5.03239 11.8657 5.16216 11.8657C5.22585 11.8657 5.2889 11.8784 5.3476 11.9031C5.40629 11.9279 5.45943 11.9641 5.5039 12.0097C5.54836 12.0553 5.58325 12.1094 5.60649 12.1687C5.62973 12.228 5.64086 12.2913 5.63923 12.355Z" fill="white"/>
<path opacity="0.3" d="M4.36703 10.9604C4.34868 11.0754 4.28995 11.18 4.20139 11.2556C4.11283 11.3311 4.00024 11.3726 3.88384 11.3726C3.76743 11.3726 3.65484 11.3311 3.56628 11.2556C3.47772 11.18 3.419 11.0754 3.40065 10.9604C3.38949 10.8905 3.39363 10.8191 3.41278 10.7509C3.43193 10.6828 3.46564 10.6196 3.51157 10.5658C3.55751 10.5119 3.61458 10.4687 3.67885 10.439C3.74312 10.4094 3.81306 10.394 3.88384 10.394C3.95462 10.394 4.02455 10.4094 4.08882 10.439C4.15309 10.4687 4.21016 10.5119 4.2561 10.5658C4.30203 10.6196 4.33574 10.6828 4.35489 10.7509C4.37404 10.8191 4.37818 10.8905 4.36703 10.9604Z" fill="white"/>
<path opacity="0.35" d="M3.77991 9.11333C3.77991 9.17759 3.76725 9.24122 3.74266 9.30058C3.71807 9.35995 3.68203 9.41389 3.63659 9.45933C3.59115 9.50476 3.53721 9.5408 3.47785 9.56539C3.41848 9.58998 3.35486 9.60264 3.2906 9.60264C3.17565 9.58429 3.07101 9.52557 2.99546 9.43701C2.91992 9.34845 2.87842 9.23585 2.87842 9.11945C2.87842 9.00305 2.91992 8.89045 2.99546 8.80189C3.07101 8.71333 3.17565 8.65461 3.2906 8.63626C3.41828 8.63622 3.54092 8.68609 3.63234 8.77522C3.72376 8.86436 3.77671 8.98569 3.77991 9.11333Z" fill="white"/>
<path opacity="0.45" d="M3.97567 7.21727C3.98683 7.28716 3.98269 7.35864 3.96353 7.42678C3.94438 7.49492 3.91068 7.5581 3.86474 7.61195C3.81881 7.6658 3.76174 7.70904 3.69747 7.73869C3.6332 7.76834 3.56326 7.7837 3.49248 7.7837C3.4217 7.7837 3.35176 7.76834 3.28749 7.73869C3.22322 7.70904 3.16615 7.6658 3.12022 7.61195C3.07428 7.5581 3.04058 7.49492 3.02143 7.42678C3.00227 7.35864 2.99813 7.28716 3.00929 7.21727C3.02764 7.10232 3.08636 6.99767 3.17492 6.92213C3.26348 6.84658 3.37608 6.80508 3.49248 6.80508C3.60888 6.80508 3.72148 6.84658 3.81004 6.92213C3.8986 6.99767 3.95732 7.10232 3.97567 7.21727Z" fill="white"/>
<path opacity="0.55" d="M4.92977 5.56584C4.94093 5.63573 4.93679 5.70722 4.91764 5.77536C4.89848 5.84349 4.86478 5.90667 4.81884 5.96052C4.77291 6.01437 4.71584 6.05761 4.65157 6.08726C4.5873 6.11691 4.51736 6.13227 4.44658 6.13227C4.3758 6.13227 4.30586 6.11691 4.24159 6.08726C4.17733 6.05761 4.12025 6.01437 4.07432 5.96052C4.02838 5.90667 3.99468 5.84349 3.97553 5.77536C3.95638 5.70722 3.95224 5.63573 3.96339 5.56584C3.98174 5.45089 4.04047 5.34624 4.12903 5.2707C4.21759 5.19515 4.33018 5.15366 4.44658 5.15366C4.56299 5.15366 4.67558 5.19515 4.76414 5.2707C4.8527 5.34624 4.91142 5.45089 4.92977 5.56584Z" fill="white"/>
<path opacity="0.6" d="M6.47102 4.45269C6.4727 4.51579 6.46151 4.57858 6.43813 4.63723C6.41475 4.69587 6.37968 4.74913 6.33503 4.79378C6.29039 4.83842 6.23713 4.87349 6.17849 4.89687C6.11984 4.92025 6.05705 4.93144 5.99395 4.92976C5.93027 4.93139 5.86692 4.92026 5.80762 4.89702C5.74832 4.87377 5.69427 4.83889 5.64867 4.79443C5.60306 4.74996 5.56682 4.69682 5.54209 4.63812C5.51735 4.57943 5.50462 4.51638 5.50464 4.45269C5.50464 4.32291 5.55619 4.19846 5.64795 4.10669C5.73972 4.01493 5.86417 3.96338 5.99395 3.96338C6.05764 3.96336 6.12069 3.97609 6.17938 4.00083C6.23808 4.02556 6.29122 4.0618 6.33569 4.10741C6.38015 4.15301 6.41503 4.20706 6.43828 4.26636C6.46152 4.32566 6.47265 4.38901 6.47102 4.45269Z" fill="white"/>
<path opacity="0.65" d="M8.34263 4.03676C8.34263 4.10102 8.32997 4.16465 8.30538 4.22401C8.28079 4.28338 8.24475 4.33732 8.19931 4.38275C8.15387 4.42819 8.09993 4.46423 8.04057 4.48882C7.9812 4.51341 7.91758 4.52607 7.85332 4.52607C7.72355 4.52607 7.59909 4.47452 7.50733 4.38275C7.41557 4.29099 7.36401 4.16653 7.36401 4.03676C7.36401 3.90699 7.41557 3.78253 7.50733 3.69077C7.59909 3.59901 7.72355 3.54745 7.85332 3.54745C7.91758 3.54745 7.9812 3.56011 8.04057 3.5847C8.09993 3.60929 8.15387 3.64533 8.19931 3.69077C8.24475 3.73621 8.28079 3.79015 8.30538 3.84951C8.32997 3.90888 8.34263 3.9725 8.34263 4.03676Z" fill="white"/>
</g>
</svg>
