<svg width="21" height="21" viewBox="0 0 21 21" xmlns="http://www.w3.org/2000/svg">
    <path d="M2.53129 6.29242C2.15497 6.29242 1.86719 6.06963 1.86719 5.77828V4.92137C1.86719 4.63002 2.15497 4.40723 2.53129 4.40723C2.90761 4.40723 3.19539 4.63002 3.19539 4.92137V5.77828C3.19539 6.06963 2.90761 6.29242 2.53129 6.29242ZM2.53129 9.72005C2.15497 9.72005 1.86719 9.49725 1.86719 9.2059V8.349C1.86719 8.05765 2.15497 7.83485 2.53129 7.83485C2.90761 7.83485 3.19539 8.05765 3.19539 8.349V9.2059C3.19539 9.49725 2.90761 9.72005 2.53129 9.72005Z"
    />
    <path d="M3.85214 20.3459C3.72536 20.3459 3.59858 20.3459 3.48765 20.3301C1.91876 20.1562 0.682661 18.8912 0.555882 17.3258C0.413256 15.9186 1.18978 14.622 2.42587 14.0211V11.3331C2.42587 11.0643 2.63189 10.8587 2.9013 10.8587C3.1707 10.8587 3.37672 11.0643 3.37672 11.3331V14.3374C3.37672 14.5429 3.24994 14.7169 3.05977 14.7801C2.04554 15.1438 1.39579 16.1399 1.49088 17.231C1.58596 18.3378 2.48926 19.2549 3.58273 19.3814C4.26417 19.4605 4.92976 19.2549 5.43688 18.7964C5.94399 18.3536 6.22925 17.7053 6.22925 17.0254C6.22925 16.0293 5.59535 15.128 4.64451 14.7959C4.45434 14.7327 4.32756 14.5429 4.32756 14.3532V1.84593C4.32756 1.57712 4.12154 1.37157 3.85214 1.37157C3.58273 1.37157 3.37672 1.57712 3.37672 1.84593V2.63653C3.37672 2.90533 3.1707 3.11089 2.9013 3.11089C2.63189 3.11089 2.42587 2.90533 2.42587 2.63653V1.84593C2.42587 1.05533 3.05977 0.422852 3.85214 0.422852C4.64451 0.422852 5.2784 1.05533 5.2784 1.84593V14.0211C6.43526 14.5587 7.18009 15.7288 7.18009 17.0254C7.18009 17.9741 6.76806 18.8754 6.07077 19.5079C5.45272 20.0455 4.66035 20.3459 3.85214 20.3459Z"
    />
    <path d="M19.8857 1.84619C19.8857 1.84619 20.3703 3.45186 18.4831 4.97078C15.6581 7.24556 17.7426 9.3456 17.7426 9.3456C17.7426 9.3456 16.6586 7.39289 19.0286 5.65773C21.1381 4.11263 20.4359 2.60329 19.8857 1.84619Z"
    />
    <path d="M12.8274 3.85205C12.8274 3.85205 13.5836 5.33767 11.7695 6.93979C9.03388 9.35479 11.571 11.1589 11.571 11.1589C11.571 11.1589 10.176 9.39404 12.4317 7.54586C14.4413 5.89986 13.5047 4.52471 12.8274 3.85205Z"
    />
    <path d="M19.8857 8.96143C19.8857 8.96143 20.3703 10.5671 18.4831 12.086C15.6581 14.3608 17.7426 16.4608 17.7426 16.4608C17.7426 16.4608 16.6586 14.5081 19.0286 12.773C21.1381 11.2279 20.4359 9.71853 19.8857 8.96143Z"
    />
    <path d="M12.8274 10.9673C12.8274 10.9673 13.5836 12.4529 11.7695 14.055C9.03388 16.47 11.571 18.2742 11.571 18.2742C11.571 18.2742 10.176 16.5093 12.4317 14.6611C14.4413 13.0151 13.5047 11.6399 12.8274 10.9673Z"
    />
</svg>
