<svg width="23" height="20" viewBox="0 0 23 20" xmlns="http://www.w3.org/2000/svg">
    <path d="M20.5128 9.45234C20.3031 6.26315 18.4052 3.28128 15.3002 1.83952C13.0184 0.781582 10.5223 0.757883 8.33887 1.57532"
    />
    <path d="M22.0004 9.31543L20.4333 10.8905L18.8584 9.32344"/>
    <path d="M2.48633 10.6128C2.69371 13.8044 4.59511 16.7838 7.70016 18.2244C9.93924 19.2646 12.3856 19.3061 14.5382 18.5372"
    />
    <path d="M1 10.7492L2.56706 9.17432L4.13939 10.7413"/>
    <path d="M12.1369 5.00203C9.38168 4.92392 7.08015 7.10521 7.00203 9.86036C6.92392 12.6155 9.10525 14.92 11.8605 14.9981C14.6157 15.0732 16.9202 12.8949 16.9983 10.1368C17.0134 9.55991 16.9262 9.00407 16.758 8.48429L16.124 9.08219C16.1991 9.41569 16.2382 9.76121 16.2292 10.1188C16.1631 12.4503 14.2131 14.292 11.8815 14.229C9.54993 14.1629 7.70511 12.2129 7.76821 9.88139C7.83431 7.54988 9.78429 5.7051 12.1159 5.76819C12.879 5.79223 13.5881 6.01757 14.198 6.39313L14.7749 5.84631C14.0178 5.34155 13.1164 5.02908 12.1369 5.00203ZM15.8446 6.41417L11.2295 11.0291L9.96156 9.76422L9.69115 9.49081L9.14732 10.0346L9.42074 10.305L11.2295 12.1168L16.3884 6.95799L15.8446 6.41417Z"
    />
</svg>
