<?xml version="1.0" encoding="utf-8"?>
<!-- Generator: Adobe Illustrator 19.0.0, SVG Export Plug-In . SVG Version: 6.00 Build 0)  -->
<svg version="1.1" id="Слой_1" xmlns="http://www.w3.org/2000/svg" xmlns:xlink="http://www.w3.org/1999/xlink" x="0px" y="0px"
	 viewBox="0 0 595.3 841.9" style="enable-background:new 0 0 595.3 841.9;" xml:space="preserve">
<style type="text/css">
	.st0{fill-rule:evenodd;clip-rule:evenodd;fill:none;stroke:#636680;stroke-width:2;stroke-linecap:round;stroke-miterlimit:10;}
	.st1{enable-background:new    ;}
	.st2{clip-path:url(#XMLID_3_);}
	.st3{opacity:0.2;fill:#5F6681;}
	.st4{fill:#61ABDB;}
	.st5{fill-rule:evenodd;clip-rule:evenodd;fill:none;stroke:#636680;stroke-width:5;stroke-linecap:round;stroke-miterlimit:10;}
</style>
<path id="XMLID_227_" class="st0" d="M8.2,107v-29c12.4-12.4,19.4-19.4,31.9-31.9h514.2c12.4,12.4,19.4,19.4,31.9,31.9v29"/>
<g id="XMLID_14_">
	<g id="XMLID_20_">
		<g id="XMLID_511_">
			<g id="XMLID_538_" class="st1">
				<defs>
					<polygon id="XMLID_579_" class="st1" points="-90.2,533.3 300,306.5 677.1,524.2 286.9,751 					"/>
				</defs>
				<clipPath id="XMLID_3_">
					<use xlink:href="#XMLID_579_"  style="overflow:visible;"/>
				</clipPath>
				<g id="XMLID_540_" class="st2">
					<g id="XMLID_541_">
						<g id="XMLID_542_">
							<g id="XMLID_543_">
								<path id="XMLID_578_" class="st3" d="M457.5,426.3c-91.4-52.8-239.7-52.8-330.5,0c-90.8,52.8-90.3,138.7,1.1,191.4
									c26.6,15.4,59.4,26.9,95,33.4c0,0-2.2-2.8-3.2-3.9c-32.9-6.5-63.2-17.4-88-31.7c-89.3-51.6-89.8-135.5-1.1-187
									c88.7-51.6,233.6-51.6,322.9,0s89.8,135.5,1.1,187c-37.8,22-87.8,35.5-141.1,38.2c-1.6,1.3-4.1,3.3-4.1,3.3
									c56.3-2.2,109.2-16.2,149-39.3c12.1-7,22.5-14.6,31.3-22.7c0,0,12.6-0.8,23.4-1.6c32.2-33.1,40.3-72,24.4-108.1
									c-8.8-2.2-23.4-5.9-23.4-5.9C503.2,460,484.2,441.7,457.5,426.3"/>
								<path id="XMLID_577_" class="st3" d="M488.4,415.2C446.6,391.1,391,374.8,328,371c-42.4-2.6-85.7,0.8-125,9.8
									c0,0,5.5,1.6,7.6,2.1c37-7.9,77.2-10.8,116.8-8.4c61.5,3.7,115.9,19.7,156.7,43.2c53.7,31,83.8,75.2,75.6,122.1
									c-14.4,82.5-142.1,142.6-284.6,134c-61.5-3.7-115.9-19.7-156.7-43.2c-53.7-31-83.8-75.2-75.6-122.1
									c6.1-35.2,33.4-67.9,77-92.4c-0.2-1.8-0.5-4.7-0.5-4.7c-46.8,25.3-76.2,59.7-82.7,96.7c-2,11.2-1.7,22.3,0.4,33.1
									c0,0-10.1,6-18.7,11.2c10.2,34.7,39.1,66.1,81,90.3c9.7,5.6,20.2,10.9,31.3,15.7c10.5-1.7,27.9-4.5,27.9-4.5
									c33.9,12.6,73.2,21,115.9,23.6c145.9,8.8,276.6-52.7,291.3-137.2C574.2,492.2,543.3,447,488.4,415.2"/>
								<polyline id="XMLID_576_" class="st4" points="428.1,443.6 427.9,443.5 417.5,449.5 417.7,449.7 428.1,443.6 								"/>
								<polyline id="XMLID_575_" class="st4" points="170.3,593.4 170.1,593.3 159.7,599.4 159.9,599.5 170.3,593.4 								"/>
								<polyline id="XMLID_565_" class="st4" points="458.5,466.4 445.7,470.7 445.8,470.8 458.6,466.6 458.5,466.4 								"/>
								<polyline id="XMLID_564_" class="st4" points="142,572.2 129.2,576.4 129.4,576.6 142.2,572.3 142,572.2 								"/>
								<polyline id="XMLID_563_" class="st4" points="477.5,492.9 463.3,495.1 463.4,495.3 477.6,493.1 477.5,492.9 								"/>
								<polyline id="XMLID_562_" class="st4" points="124.5,547.7 110.2,549.9 110.3,550.1 124.6,547.9 124.5,547.7 								"/>
								<polyline id="XMLID_561_" class="st4" points="484.2,522 469.4,522 469.4,522.1 484.2,522.2 484.2,522 								"/>
								<polyline id="XMLID_560_" class="st4" points="118.4,520.9 103.6,520.8 103.6,521 118.4,521 118.4,520.9 								"/>
								<polyline id="XMLID_559_" class="st4" points="477.8,550.3 463.5,548 463.4,548.2 477.7,550.4 477.8,550.3 								"/>
								<polyline id="XMLID_558_" class="st4" points="124.4,494.8 110.1,492.6 110.1,492.7 124.3,495 124.4,494.8 								"/>
								<polyline id="XMLID_557_" class="st4" points="459,576.6 446.2,572.3 446.1,572.5 458.9,576.8 459,576.6 								"/>
								<polyline id="XMLID_556_" class="st4" points="141.8,470.5 129,466.2 128.8,466.4 141.6,470.6 141.8,470.5 								"/>
								<polyline id="XMLID_555_" class="st4" points="418.3,593.5 418.1,593.6 428.5,599.7 428.7,599.6 418.3,593.5 								"/>
								<polyline id="XMLID_554_" class="st4" points="159.3,443.3 159.1,443.4 169.6,449.5 169.8,449.4 159.3,443.3 								"/>
								<polyline id="XMLID_553_" class="st4" points="382.5,609.4 382.3,609.5 389.7,616.9 389.9,616.8 382.5,609.4 								"/>
								<polyline id="XMLID_552_" class="st4" points="198.2,426.1 197.9,426.2 205.3,433.6 205.6,433.5 198.2,426.1 								"/>
								<polyline id="XMLID_551_" class="st4" points="340.2,619.7 339.9,619.7 343.8,628 344.1,627.9 340.2,619.7 								"/>
								<polyline id="XMLID_550_" class="st4" points="244,415 243.8,415.1 247.6,423.3 247.9,423.3 244,415 								"/>
								<polyline id="XMLID_549_" class="st4" points="293.2,623.2 292.9,623.2 292.9,631.7 293.2,631.7 293.2,623.2 								"/>
								<polyline id="XMLID_548_" class="st4" points="295,411.3 294.7,411.3 294.6,419.8 294.9,419.8 295,411.3 								"/>
								<polyline id="XMLID_547_" class="st4" points="248.2,619.6 247.9,619.5 244.1,627.8 244.4,627.8 248.2,619.6 								"/>
								<polyline id="XMLID_546_" class="st4" points="343.8,415.2 343.5,415.2 339.6,423.4 339.9,423.5 343.8,415.2 								"/>
								<polyline id="XMLID_545_" class="st4" points="206.4,609.4 206.1,609.4 198.7,616.8 199,616.8 206.4,609.4 								"/>
								<polyline id="XMLID_544_" class="st4" points="389.1,426.2 388.9,426.2 381.5,433.6 381.7,433.6 389.1,426.2 								"/>
							</g>
						</g>
					</g>
				</g>
			</g>
		</g>
	</g>
</g>
<path id="XMLID_10_" class="st5" d="M499.2,46.2h55.1c12.4,12.4,19.4,19.4,31.9,31.9v55.5"/>
<path id="XMLID_9_" class="st0" d="M587.1,710.3v29c-12.4,12.4-19.4,19.4-31.9,31.9H41c-12.4-12.4-19.4-19.4-31.9-31.9v-29"/>
<path id="XMLID_8_" class="st5" d="M95.1,771.1H40.1c-12.4-12.4-19.4-19.4-31.9-31.9v-55.5"/>
<path id="XMLID_7_" class="st5" d="M587.1,683.9V739c-12.4,12.4-19.4,19.4-31.9,31.9h-55.5"/>
<path id="XMLID_6_" class="st5" d="M9.3,133.4V78.3c12.4-12.4,19.4-19.4,31.9-31.9h55.5"/>
</svg>
