<?xml version="1.0" encoding="utf-8"?>
<!-- Generator: Adobe Illustrator 19.0.0, SVG Export Plug-In . SVG Version: 6.00 Build 0)  -->
<svg version="1.1" id="Слой_1" xmlns="http://www.w3.org/2000/svg" xmlns:xlink="http://www.w3.org/1999/xlink" x="0px" y="0px"
	 viewBox="0 0 595.3 841.9" style="enable-background:new 0 0 595.3 841.9;" xml:space="preserve">
<style type="text/css">
	.st0{opacity:0.8;fill-rule:evenodd;clip-rule:evenodd;fill:url(#XMLID_58_);}
	.st1{opacity:0.8;fill-rule:evenodd;clip-rule:evenodd;fill:url(#XMLID_59_);}
	.st2{opacity:0.8;fill-rule:evenodd;clip-rule:evenodd;fill:url(#XMLID_60_);}
	.st3{opacity:0.8;fill-rule:evenodd;clip-rule:evenodd;fill:url(#XMLID_61_);}
	.st4{opacity:0.8;fill-rule:evenodd;clip-rule:evenodd;fill:url(#XMLID_62_);}
	.st5{fill:none;stroke:#636680;stroke-miterlimit:10;}
	.st6{fill:#636680;}
	.st7{fill-rule:evenodd;clip-rule:evenodd;fill:none;stroke:#636680;stroke-miterlimit:10;}
	.st8{fill:url(#XMLID_63_);}
</style>
<linearGradient id="XMLID_58_" gradientUnits="userSpaceOnUse" x1="255.7981" y1="348.0933" x2="386.2957" y2="348.0933">
	<stop  offset="0" style="stop-color:#22252F;stop-opacity:0"/>
	<stop  offset="1" style="stop-color:#22252F"/>
</linearGradient>
<path id="XMLID_53_" class="st0" d="M270.2,350c0,25.7-4.6,50.3-12.9,73.1h116.2c8.4-22.8,12.9-47.4,12.9-73.1
	c0-27.1-5.1-53-14.4-76.9H255.8C265.1,296.9,270.2,322.8,270.2,350z"/>
<linearGradient id="XMLID_59_" gradientUnits="userSpaceOnUse" x1="172.5898" y1="505.0829" x2="340.6963" y2="505.0829">
	<stop  offset="0" style="stop-color:#22252F;stop-opacity:0"/>
	<stop  offset="1" style="stop-color:#22252F"/>
</linearGradient>
<path id="XMLID_52_" class="st1" d="M224.5,481.5c-14.6,18.5-32.1,34.4-52,47.2h116.2c19.8-12.8,37.4-28.7,51.9-47.2H224.5z"/>
<linearGradient id="XMLID_60_" gradientUnits="userSpaceOnUse" x1="228.3255" y1="452.5002" x2="371.3204" y2="452.5002">
	<stop  offset="0" style="stop-color:#22252F;stop-opacity:0"/>
	<stop  offset="1" style="stop-color:#22252F"/>
</linearGradient>
<path id="XMLID_51_" class="st2" d="M371.3,428.4H255.2c-6.9,17.3-15.9,33.4-26.8,48.1h116.1C355.4,461.9,364.5,445.7,371.3,428.4z"
	/>
<linearGradient id="XMLID_61_" gradientUnits="userSpaceOnUse" x1="225.4826" y1="243.6863" x2="369.7895" y2="243.6863">
	<stop  offset="0" style="stop-color:#22252F;stop-opacity:0"/>
	<stop  offset="1" style="stop-color:#22252F"/>
</linearGradient>
<path id="XMLID_50_" class="st3" d="M341.6,219.6H225.5c11.4,14.6,20.9,30.8,28.2,48.1h116.1C362.5,250.4,353,234.3,341.6,219.6z"/>
<linearGradient id="XMLID_62_" gradientUnits="userSpaceOnUse" x1="166.5592" y1="191.1036" x2="337.6733" y2="191.1036">
	<stop  offset="0" style="stop-color:#22252F;stop-opacity:0"/>
	<stop  offset="1" style="stop-color:#22252F"/>
</linearGradient>
<path id="XMLID_49_" class="st4" d="M221.5,214.7h116.2c-15.5-18.7-34.1-34.7-55-47.2H166.6C187.5,180,206.1,196,221.5,214.7z"/>
<path id="XMLID_48_" class="st5" d="M210,425.4H15.7c-2.8-3.1-4.3-4.8-7.1-7.9V278.3c2.8-3.1,4.3-4.8,7.1-7.9H210"/>
<g id="XMLID_56_">
	<g id="XMLID_397_">
		<path id="XMLID_444_" class="st6" d="M151.9,295l-1.9-1.6c-0.3,0.3-0.5,0.6-0.8,1l1.9,1.6C151.4,295.6,151.7,295.3,151.9,295z"/>
		<path id="XMLID_443_" class="st6" d="M155.3,291.4l-1.8-1.7c-0.3,0.3-0.6,0.6-0.9,0.9l1.8,1.7C154.7,292,155,291.7,155.3,291.4z"
			/>
		<path id="XMLID_442_" class="st6" d="M153.6,293.1l-1.8-1.7c-0.3,0.3-0.6,0.6-0.9,0.9l1.8,1.7C153,293.7,153.3,293.4,153.6,293.1z
			"/>
		<path id="XMLID_441_" class="st6" d="M147.4,300.7l-2-1.5c-0.2,0.3-0.9,1.2-1.1,1.6l2.4,0.9C146.9,301.3,147.1,301,147.4,300.7z"
			/>
		<path id="XMLID_440_" class="st6" d="M150.4,296.8l-1.9-1.6c-0.3,0.3-0.5,0.6-0.8,1l1.9,1.5C149.8,297.4,150.1,297.1,150.4,296.8z
			"/>
		<path id="XMLID_439_" class="st6" d="M148.8,298.7l-2-1.5c-0.3,0.3-0.5,0.7-0.8,1l2,1.5C148.3,299.4,148.6,299,148.8,298.7z"/>
		<path id="XMLID_438_" class="st6" d="M162.5,284.9l-1.5-1.9c-0.3,0.3-0.7,0.5-1,0.8l1.6,1.9C161.9,285.4,162.2,285.1,162.5,284.9z
			"/>
		<path id="XMLID_437_" class="st6" d="M162,282.2l1.5,2c0.3-0.2,1.8-1.4,2.1-1.6l-2.6-1.1C162.7,281.7,162.3,281.9,162,282.2z"/>
		<path id="XMLID_436_" class="st6" d="M157,289.7l-1.7-1.8c-0.3,0.3-0.6,0.6-0.9,0.9l1.7,1.8C156.4,290.2,156.7,290,157,289.7z"/>
		<path id="XMLID_435_" class="st6" d="M160.7,286.4l-1.6-1.9c-0.3,0.3-0.6,0.5-1,0.8l1.6,1.9C160,286.9,160.3,286.7,160.7,286.4z"
			/>
		<path id="XMLID_434_" class="st6" d="M158.8,288l-1.7-1.8c-0.3,0.3-0.6,0.6-0.9,0.8l1.7,1.8C158.2,288.6,158.5,288.3,158.8,288z"
			/>
		<path id="XMLID_433_" class="st6" d="M268.5,293.9l1.8-1.7c-0.3-0.3-0.6-0.6-0.9-0.9l-1.8,1.7C268,293.3,268.2,293.6,268.5,293.9z
			"/>
		<path id="XMLID_432_" class="st6" d="M266.8,292.1l1.8-1.7c-0.3-0.3-0.6-0.6-0.9-0.9l-1.7,1.8
			C266.3,291.5,266.5,291.8,266.8,292.1z"/>
		<path id="XMLID_431_" class="st6" d="M270.1,295.7l1.9-1.6c-0.3-0.3-0.6-0.6-0.8-0.9l-1.8,1.7
			C269.6,295.1,269.9,295.4,270.1,295.7z"/>
		<path id="XMLID_430_" class="st6" d="M265.1,290.4l1.7-1.8c-0.3-0.3-0.6-0.6-0.9-0.9l-1.7,1.8
			C264.5,289.8,264.8,290.1,265.1,290.4z"/>
		<path id="XMLID_429_" class="st6" d="M273.2,299.5l2-1.5c-0.3-0.3-0.5-0.7-0.8-1l-1.9,1.5C272.7,298.8,273,299.1,273.2,299.5z"/>
		<path id="XMLID_428_" class="st6" d="M271.7,297.6l1.9-1.6c-0.3-0.3-0.5-0.6-0.8-1l-1.9,1.6C271.2,296.9,271.5,297.2,271.7,297.6z
			"/>
		<path id="XMLID_427_" class="st6" d="M263.3,288.7l1.7-1.8c-0.3-0.3-0.6-0.6-0.9-0.8l-1.6,1.9C262.7,288.2,263,288.5,263.3,288.7z
			"/>
		<path id="XMLID_426_" class="st6" d="M259.1,282.1c-0.3-0.3-0.7-0.5-1-0.7l-2.6,1.2c0.3,0.2,1.8,1.3,2.1,1.6L259.1,282.1z"/>
		<path id="XMLID_425_" class="st6" d="M274,300.4c0.2,0.3,0.5,0.7,0.7,1l2.5-0.8c-0.2-0.3-1-1.3-1.2-1.7L274,300.4z"/>
		<path id="XMLID_424_" class="st6" d="M261.5,287.1l1.6-1.9c-0.3-0.3-0.6-0.5-1-0.8l-1.6,1.9C260.8,286.6,261.1,286.9,261.5,287.1z
			"/>
		<path id="XMLID_423_" class="st6" d="M259.6,285.6l1.5-1.9c-0.3-0.3-0.7-0.5-1-0.8l-1.5,2C258.9,285.1,259.2,285.3,259.6,285.6z"
			/>
		<path id="XMLID_422_" class="st6" d="M154.4,402.6l-1.8,1.7c0.3,0.3,0.6,0.6,0.9,0.9l1.8-1.7C155,403.2,154.7,402.9,154.4,402.6z"
			/>
		<path id="XMLID_421_" class="st6" d="M156.1,404.4l-1.7,1.8c0.3,0.3,0.6,0.6,0.9,0.9l1.7-1.8C156.7,404.9,156.4,404.6,156.1,404.4
			z"/>
		<path id="XMLID_420_" class="st6" d="M149.6,397.1l-1.9,1.5c0.3,0.3,0.5,0.7,0.8,1l1.9-1.6C150.1,397.8,149.8,397.4,149.6,397.1z"
			/>
		<path id="XMLID_419_" class="st6" d="M157.9,406l-1.7,1.8c0.3,0.3,0.6,0.6,0.9,0.8l1.7-1.8C158.5,406.6,158.2,406.3,157.9,406z"/>
		<path id="XMLID_418_" class="st6" d="M151.1,399l-1.9,1.6c0.3,0.3,0.5,0.6,0.8,1l1.9-1.6C151.7,399.6,151.4,399.3,151.1,399z"/>
		<path id="XMLID_417_" class="st6" d="M152.8,400.8l-1.8,1.7c0.3,0.3,0.6,0.6,0.9,0.9l1.8-1.7C153.3,401.4,153,401.1,152.8,400.8z"
			/>
		<path id="XMLID_416_" class="st6" d="M148.1,395.2l-2,1.5c0.3,0.3,0.5,0.7,0.8,1l2-1.5C148.6,395.8,148.3,395.5,148.1,395.2z"/>
		<path id="XMLID_415_" class="st6" d="M159.7,407.7l-1.6,1.9c0.3,0.3,0.6,0.5,1,0.8l1.6-1.9C160.3,408.2,160,407.9,159.7,407.7z"/>
		<path id="XMLID_414_" class="st6" d="M146.7,393.2l-2.4,0.9c0.2,0.3,0.8,1.2,1.1,1.5l2-1.5C147.1,393.9,146.9,393.5,146.7,393.2z"
			/>
		<path id="XMLID_413_" class="st6" d="M161.6,409.2l-1.6,1.9c0.3,0.3,0.7,0.5,1,0.8l1.5-1.9C162.2,409.7,161.9,409.5,161.6,409.2z"
			/>
		<path id="XMLID_412_" class="st6" d="M162,412.7c0.3,0.3,0.7,0.5,1,0.8l2.6-1.1c-0.3-0.2-1.8-1.4-2.1-1.6L162,412.7z"/>
		<path id="XMLID_411_" class="st6" d="M264.2,405.3l1.7,1.8c0.3-0.3,0.6-0.6,0.9-0.9l-1.7-1.8C264.8,404.8,264.5,405,264.2,405.3z"
			/>
		<path id="XMLID_410_" class="st6" d="M270.9,398.3l1.9,1.6c0.3-0.3,0.5-0.6,0.8-1l-1.9-1.6C271.5,397.6,271.2,398,270.9,398.3z"/>
		<path id="XMLID_409_" class="st6" d="M267.7,401.9l1.8,1.7c0.3-0.3,0.6-0.6,0.9-0.9l-1.8-1.7C268.2,401.3,268,401.6,267.7,401.9z"
			/>
		<path id="XMLID_408_" class="st6" d="M269.3,400.1l1.8,1.7c0.3-0.3,0.6-0.6,0.8-0.9l-1.9-1.6C269.9,399.5,269.6,399.8,269.3,400.1
			z"/>
		<path id="XMLID_407_" class="st6" d="M274,394.4l2,1.5c0.3-0.3,0.9-1.2,1.1-1.6l-2.4-0.9C274.5,393.8,274.2,394.1,274,394.4z"/>
		<path id="XMLID_406_" class="st6" d="M272.5,396.4l1.9,1.5c0.3-0.3,0.5-0.7,0.8-1l-2-1.5C273,395.7,272.7,396.1,272.5,396.4z"/>
		<path id="XMLID_405_" class="st6" d="M260.5,408.5l1.6,1.9c0.3-0.3,0.6-0.5,1-0.8l-1.6-1.9C261.1,408,260.8,408.3,260.5,408.5z"/>
		<path id="XMLID_404_" class="st6" d="M258.6,410l1.5,2c0.3-0.3,0.7-0.5,1-0.8l-1.5-1.9C259.2,409.5,258.9,409.8,258.6,410z"/>
		<path id="XMLID_403_" class="st6" d="M266,403.6l1.7,1.8c0.3-0.3,0.6-0.6,0.9-0.9l-1.8-1.7C266.5,403.1,266.3,403.4,266,403.6z"/>
		<path id="XMLID_402_" class="st6" d="M255.4,412.4l2.6,1.1c0.3-0.2,0.7-0.5,1-0.7l-1.5-2C257.3,411,255.8,412.1,255.4,412.4z"/>
		<path id="XMLID_401_" class="st6" d="M262.4,407l1.6,1.9c0.3-0.3,0.6-0.6,0.9-0.8l-1.7-1.8C263,406.4,262.7,406.7,262.4,407z"/>
		<path id="XMLID_398_" class="st6" d="M291.6,324l-1.4-0.4c-2.5-8.4-6.4-16.3-11.3-23.4c1.1-0.4,2.9-1,4-1.4
			c-8.3-12.6-19.8-22.9-33.3-29.8l-3.2,2.2H245c-10.5-4.8-22.1-7.5-34.4-7.5c-12.3,0-23.9,2.7-34.4,7.5h0l-4.7-2.1
			c-13.5,6.9-24.9,17.1-33.2,29.7c1.1,0.4,2.8,0.9,4,1.4c-4.9,7.1-8.8,14.9-11.3,23.4l-1.4,0.4c-2.2,7.5-3.3,15.3-3.3,23.5
			c0,8.1,1.2,16,3.3,23.5l1.4,0.4c2.5,8.4,6.4,16.3,11.3,23.4c-1.1,0.4-2.9,1-4,1.4c8.3,12.6,19.8,22.9,33.3,29.8l3.2-2.2h1.3
			c10.5,4.8,22.1,7.5,34.4,7.5c12.3,0,23.9-2.7,34.4-7.5h0l4.7,2.1c13.5-6.9,24.9-17.1,33.2-29.7c-1.1-0.4-2.8-0.9-4-1.4
			c4.9-7.1,8.7-15,11.3-23.4l1.4-0.4c2.2-7.5,3.3-15.3,3.3-23.5C294.9,339.4,293.7,331.5,291.6,324z M287.3,372.2l1.5-0.4
			c-5.4,17.3-16.3,32.1-30.7,42.4l-3.3-1.4c-8.2,5.7-17.5,9.8-27.5,12l-2.6-2.2h-28.3l-2.6,2.1c-9.9-2.2-19.1-6.3-27.2-12l-3.3,1.4
			c-14.4-10.3-25.4-25.1-30.7-42.4l1.4,0.4c-2.5-7.8-3.9-16.1-3.9-24.7c0-8.6,1.4-16.9,3.9-24.7l-1.4,0.4
			c5.4-17.3,16.3-32.1,30.7-42.4l3.3,1.4c8.2-5.7,17.5-9.8,27.5-12l2.6,2.2H225l2.6-2.1c9.9,2.2,19.1,6.3,27.2,12l3.3-1.4
			c14.4,10.3,25.4,25.1,30.7,42.4l-1.5-0.4c2.5,7.8,3.9,16.1,3.9,24.7C291.2,356.1,289.8,364.4,287.3,372.2z"/>
	</g>
</g>
<path id="XMLID_2_" class="st7" d="M256.6,422h117.3c8.4-22.8,12.9-47.4,12.9-73.1c0-27.1-5.1-53-14.4-76.9H255.2"/>
<g id="XMLID_54_">
	<linearGradient id="XMLID_63_" gradientUnits="userSpaceOnUse" x1="580" y1="347.0239" x2="316.933" y2="347.0239">
		<stop  offset="0" style="stop-color:#22252F;stop-opacity:0"/>
		<stop  offset="1" style="stop-color:#22252F"/>
	</linearGradient>
	<path id="XMLID_55_" class="st8" d="M564.7,166H316.9c53,42.8,86.8,108.3,86.8,181.8c0,72.5-33,137.4-84.9,180.2h245.8
		c6-6,9.3-9.3,15.3-15.3V181.3C574,175.4,570.7,172,564.7,166z"/>
</g>
</svg>
