<svg width="16" height="16" viewBox="0 0 16 16" stroke="currentColor" fill="currentColor" xmlns="http://www.w3.org/2000/svg">
<path d="M15 15H1V1" fill="none"  stroke-miterlimit="10" stroke-linecap="round" stroke-linejoin="round"/>
<path d="M1.30005 7.7002H2.50005" fill="none"  stroke-miterlimit="10" stroke-linecap="round" stroke-linejoin="round"/>
<path d="M1.30005 3.75H2.50005" fill="none"  stroke-miterlimit="10" stroke-linecap="round" stroke-linejoin="round"/>
<path d="M1.30005 11.6499H2.50005" fill="none"  stroke-miterlimit="10" stroke-linecap="round" stroke-linejoin="round"/>
<path d="M14.1 3.5498C14.4 3.5498 14.7 3.7998 14.7 4.1498C14.7 4.4998 14.45 4.7498 14.1 4.7498C13.75 4.7498 13.5 4.4498 13.5 4.1498C13.5 3.8498 13.8 3.5498 14.1 3.5498ZM14.1 2.5498C13.2 2.5498 12.5 3.2498 12.5 4.1498C12.5 5.0498 13.2 5.7498 14.1 5.7498C15 5.7498 15.7 5.0498 15.7 4.1498C15.7 3.2498 15 2.5498 14.1 2.5498Z" stroke="none" />
<path d="M11.5001 7.59961C11.8001 7.59961 12.1001 7.84961 12.1001 8.19961C12.1001 8.54961 11.8501 8.79961 11.5001 8.79961C11.1501 8.79961 10.9001 8.54961 10.9001 8.19961C10.9001 7.84961 11.2001 7.59961 11.5001 7.59961ZM11.5001 6.59961C10.6001 6.59961 9.90015 7.29961 9.90015 8.19961C9.90015 9.09961 10.6001 9.79961 11.5001 9.79961C12.4001 9.79961 13.1001 9.09961 13.1001 8.19961C13.1001 7.29961 12.4001 6.59961 11.5001 6.59961Z" stroke="none" />
<path d="M8.85 4.84961C9.15 4.84961 9.45 5.09961 9.45 5.44961C9.45 5.79961 9.15 5.99961 8.85 5.99961C8.55 5.99961 8.25 5.74961 8.25 5.39961C8.25 5.04961 8.5 4.84961 8.85 4.84961ZM8.85 3.84961C7.95 3.84961 7.25 4.54961 7.25 5.44961C7.25 6.34961 7.95 7.04961 8.85 7.04961C9.75 7.04961 10.45 6.34961 10.45 5.44961C10.45 4.54961 9.7 3.84961 8.85 3.84961Z" stroke="none" />
<path d="M5.90005 8.6499C6.20005 8.6499 6.50005 8.8999 6.50005 9.2499C6.50005 9.5999 6.25005 9.8499 5.90005 9.8499C5.55005 9.8499 5.30005 9.5999 5.30005 9.2499C5.30005 8.8999 5.55005 8.6499 5.90005 8.6499ZM5.90005 7.6499C5.00005 7.6499 4.30005 8.3499 4.30005 9.2499C4.30005 10.1499 5.00005 10.8499 5.90005 10.8499C6.80005 10.8499 7.50005 10.1499 7.50005 9.2499C7.45005 8.3499 6.75005 7.6499 5.90005 7.6499Z" stroke="none" />
<path d="M13.65 5.09961L11.95 7.49961" fill="none" stroke-miterlimit="10" stroke-linejoin="round"/>
<path d="M9.6001 6.25L10.9001 7.5" fill="none" stroke-miterlimit="10" stroke-linejoin="round"/>
<path d="M8.19995 6.25L6.44995 8.3" fill="none" stroke-miterlimit="10" stroke-linejoin="round"/>
</svg>
