<svg width="20" height="20" viewBox="0 0 20 20" xmlns="http://www.w3.org/2000/svg">
<path d="M9.33333 0V2.69792C5.82292 3.02083 3.02083 5.82292 2.69792 9.33333H0V10.6667H2.69792C3.02083 14.1771 5.82292 16.9792 9.33333 17.2969V20H10.6667V17.2969C14.1771 16.9792 16.9792 14.1771 17.2969 10.6667H20V9.33333H17.2969C16.9792 5.82292 14.1771 3.02083 10.6667 2.69792V0H9.33333ZM9.33333 4.06771V5.33333H10.6667V4.06771C13.4479 4.375 15.625 6.55208 15.9323 9.33333H14.6667V10.6667H15.9323C15.625 13.4479 13.4479 15.625 10.6667 15.9323V14.6667H9.33333V15.9323C6.55208 15.625 4.375 13.4479 4.06771 10.6667H5.33333V9.33333H4.06771C4.375 6.55208 6.55208 4.375 9.33333 4.06771Z"/>
</svg>
