<svg width="16" height="25" viewBox="0 0 16 25" fill="none" xmlns="http://www.w3.org/2000/svg">
<path fill-rule="evenodd" clip-rule="evenodd" d="M7.23483 19.6024L6.33988 19.1529L6.28201 19.1248L6.282 19.1248C6.14901 19.0605 6.01578 18.9961 5.8905 18.9213C4.20891 17.9426 3.59422 16.2849 4.16235 14.2594C4.39037 13.4442 4.80649 12.7301 5.20931 12.0414L5.25017 11.9713C5.91901 10.8253 6.50139 9.78426 6.84721 8.62662C6.90041 8.45727 6.94507 8.28614 6.99162 8.10706L7.19018 7.36768L7.61961 7.64402C7.69181 7.68488 7.74216 7.71599 7.79537 7.76848L8.11838 8.08758C9.10834 9.06637 10.1316 10.0781 10.9571 11.2649C11.7799 12.4499 12.2426 13.6037 12.3689 14.7964C12.5656 16.6448 12.0212 17.9797 10.7016 18.8727C10.4641 19.0322 10.2095 19.1412 9.96244 19.2463C9.93264 19.2593 9.90259 19.2721 9.87247 19.285L9.87246 19.285C9.79889 19.3164 9.72485 19.348 9.65272 19.3824L9.3031 19.5499L9.03614 18.9194L9.17485 18.7482C9.23412 18.6717 9.29686 18.5995 9.3601 18.5266L9.39241 18.4894C9.53872 18.3202 9.67648 18.1586 9.78193 17.9894C10.6237 16.6254 10.6161 15.2245 9.76008 13.7068C9.56722 13.3663 9.3278 13.0453 9.03044 12.7281C8.98008 13.7769 8.67417 14.8023 8.10603 15.8374L7.61581 16.7286L7.41154 15.7323C7.32034 15.2907 7.19398 14.9463 7.01632 14.6719C6.81016 15.1739 6.6059 15.674 6.40733 16.1779C6.06721 17.0379 6.21352 17.7792 6.85101 18.4466C6.92892 18.5244 7.02297 18.6412 7.06572 18.8338L7.23483 19.6024ZM8.1841 10.973L8.87859 11.5606C9.56548 12.1385 10.0538 12.7047 10.412 13.339C11.3145 14.9403 11.3962 16.493 10.6533 17.9659C11.4608 17.2479 11.7706 16.2518 11.6242 14.8761C11.5112 13.8118 11.0932 12.7709 10.3417 11.6929C9.56548 10.5741 8.57742 9.59545 7.61976 8.64979C7.60266 8.71404 7.58461 8.77828 7.56561 8.84241C7.19414 10.078 6.59085 11.1617 5.89826 12.3486L5.85741 12.4187L5.85279 12.4266C5.45738 13.1027 5.08423 13.7407 4.88265 14.4597C4.60239 15.4618 4.53968 16.781 5.59424 17.7772C5.41373 17.1857 5.45269 16.5553 5.7111 15.9016C5.91765 15.3817 6.13053 14.862 6.34268 14.344L6.35904 14.304L6.59085 13.7359L6.98038 13.5841L7.17989 13.7204C7.46205 13.9714 7.68057 14.2671 7.84968 14.6349C8.21355 13.7223 8.34941 12.8155 8.2639 11.8797L8.1841 10.973Z" fill="#606580"/>
<path d="M1 3.47022C1 3.1938 1.22408 2.96973 1.50049 2.96973H14.8649C15.1414 2.96973 15.3655 3.19388 15.3655 3.47038V23.4997C15.3655 23.7761 15.1414 24.0002 14.8649 24.0002H1.50067C1.22416 24.0002 1 23.7761 1 23.4996V3.47022Z" stroke="#606580" stroke-linecap="round" stroke-linejoin="round"/>
<path d="M4.21484 1H5.3832" stroke="#606580" stroke-width="1.20096" stroke-linecap="round" stroke-linejoin="round"/>
</svg>
