<svg width="24" height="25" viewBox="0 0 24 25" fill="none" xmlns="http://www.w3.org/2000/svg">
<path fill-rule="evenodd" clip-rule="evenodd" d="M19.2498 5.50029C18.7498 5.10029 18.1498 4.80029 17.5498 4.80029H6.4498C5.7498 4.80029 5.14979 5.10029 4.74979 5.50029C4.34979 5.90029 4.0498 6.60029 4.0498 7.20029V16.9003C4.0498 17.6003 4.34979 18.2003 4.74979 18.6003C5.14979 19.0003 5.8498 19.3003 6.4498 19.3003H17.5498C18.2498 19.3003 18.8498 19.0003 19.2498 18.6003C19.6498 18.2003 19.9498 17.5003 19.9498 16.9003V7.20029C19.9498 6.60029 19.7498 6.00029 19.2498 5.50029ZM19.2498 16.7003C19.2498 17.2003 19.0498 17.7003 18.6498 18.1003C18.3498 18.5003 17.8498 18.7003 17.2498 18.7003H6.64978C6.14978 18.7003 5.64979 18.5003 5.24979 18.1003C4.94979 17.7003 4.64978 17.3003 4.64978 16.7003V8.90029C4.64978 8.40029 4.84979 7.90029 5.24979 7.50029C5.54979 7.10029 6.04978 6.90029 6.64978 6.90029H17.3498C17.8498 6.90029 18.3498 7.10029 18.7498 7.50029C19.0498 7.90029 19.3498 8.30029 19.3498 8.90029V16.7003H19.2498Z" fill="#616580"/>
<path fill-rule="evenodd" clip-rule="evenodd" d="M9.75018 16.5005H6.5502V13.3005C6.5502 13.1005 6.45018 13.0005 6.25018 13.0005C6.05018 13.0005 5.9502 13.1005 5.9502 13.3005V16.8005C5.9502 17.0005 6.05018 17.1005 6.25018 17.1005H9.75018C9.95018 17.1005 10.0502 17.0005 10.0502 16.8005C10.1502 16.7005 9.95018 16.5005 9.75018 16.5005Z" fill="#616580"/>
<path fill-rule="evenodd" clip-rule="evenodd" d="M17.55 8.1001H14.05C13.85 8.1001 13.75 8.2001 13.75 8.4001C13.75 8.6001 13.85 8.7001 14.05 8.7001H17.25V11.9001C17.25 12.1001 17.35 12.2001 17.55 12.2001C17.75 12.2001 17.85 12.1001 17.85 11.9001V8.4001C17.85 8.3001 17.75 8.1001 17.55 8.1001Z" fill="#616580"/>
</svg>
