<svg width="22" height="22" viewBox="0 0 22 22" fill="none" xmlns="http://www.w3.org/2000/svg">
<path d="M10.1538 0V1.69383H2.53846C1.14363 1.69383 0 2.8385 0 4.23459V14.3976C0 15.7937 1.14363 16.9383 2.53846 16.9383H10.1538V18.8042L3.41106 20.3459L3.78125 22L11 20.3525L18.2188 22L18.5889 20.3459L11.8462 18.8042V16.9383H19.4615C20.8564 16.9383 22 15.7937 22 14.3976V4.23459C22 2.8385 20.8564 1.69383 19.4615 1.69383H11.8462V0H10.1538ZM2.53846 3.38767H19.4615C19.9375 3.38767 20.3077 3.7582 20.3077 4.23459V14.3976C20.3077 14.874 19.9375 15.2445 19.4615 15.2445H2.53846C2.0625 15.2445 1.69231 14.874 1.69231 14.3976V4.23459C1.69231 3.7582 2.0625 3.38767 2.53846 3.38767ZM15.2374 5.46526L10.9603 9.58075L7.58894 6.79519L3.45072 10.5997L4.58774 11.8436L7.64183 9.0382L11.0397 11.8436L15.3101 7.74135L17.4321 9.54105L18.5294 8.24421L15.2374 5.46526Z" fill="#8C99B2"/>
</svg>
