<svg width="24" height="24" viewBox="0 0 24 24" fill="none" xmlns="http://www.w3.org/2000/svg">
<path fill-rule="evenodd" clip-rule="evenodd" d="M18.8125 4.80625H15.4125V3.6375C15.4125 3.31875 15.0938 3 14.775 3H9.56875C9.25 3 8.93125 3.31875 8.93125 3.6375V6.93125C8.93125 7.25 9.25 7.56875 9.56875 7.56875H13.3938C13.7125 7.56875 14.0312 7.25 14.0312 6.93125C14.0312 6.6125 13.7125 6.29375 13.3938 6.29375H10.2063V4.275H14.1375V5.44375C14.1375 5.7625 14.4563 6.08125 14.775 6.08125H18.0688V18.725H6.275V6.08125H7.23125C7.55 6.08125 7.86875 5.7625 7.86875 5.44375C7.86875 5.125 7.55 4.80625 7.23125 4.80625H5.6375C5.31875 4.80625 5 5.125 5 5.44375V19.3625C5 19.6812 5.31875 20 5.6375 20H18.8125C19.1313 20 19.45 19.6812 19.45 19.3625V5.44375C19.3438 5.125 19.1313 4.80625 18.8125 4.80625Z" fill="#606580"/>
<path fill-rule="evenodd" clip-rule="evenodd" d="M7.4436 9.69346V10.2247C7.4436 10.6497 7.76235 10.9685 8.18735 10.9685H8.82485C9.24985 10.9685 9.5686 10.6497 9.5686 10.2247V9.69346C9.5686 9.26846 9.24985 8.94971 8.82485 8.94971H8.18735C7.76235 8.94971 7.4436 9.26846 7.4436 9.69346Z" fill="#606580"/>
<path fill-rule="evenodd" clip-rule="evenodd" d="M9.5686 12.6688C9.5686 12.2438 9.24985 11.925 8.82485 11.925H8.18735C7.76235 11.925 7.4436 12.2438 7.4436 12.6688V13.2C7.4436 13.625 7.76235 13.9438 8.18735 13.9438H8.82485C9.24985 13.9438 9.5686 13.625 9.5686 13.2V12.6688Z" fill="#606580"/>
<path d="M16.5814 9.48096H10.5251V10.5435H16.5814V9.48096Z" fill="#606580"/>
<path d="M16.6876 12.4563H10.6313V13.5188H16.6876V12.4563Z" fill="#606580"/>
<path fill-rule="evenodd" clip-rule="evenodd" d="M8.82485 15.2188H8.18735C7.76235 15.2188 7.4436 15.5375 7.4436 15.9625V16.4937C7.4436 16.9187 7.76235 17.2375 8.18735 17.2375H8.82485C9.24985 17.2375 9.5686 16.9187 9.5686 16.4937V15.9625C9.5686 15.5375 9.24985 15.2188 8.82485 15.2188Z" fill="#606580"/>
<path d="M13.7126 15.6438H10.6313V16.7063H13.7126V15.6438Z" fill="#606580"/>
</svg>
