<svg xmlns="http://www.w3.org/2000/svg" xmlns:xlink="http://www.w3.org/1999/xlink" viewBox="0 0 228.77 69.28"><defs><style>.cls-1,.cls-3,.cls-4{fill:none;}.cls-2{clip-path:url(#clip-path);}.cls-3{stroke:#3fa9f5;}.cls-3,.cls-4,.cls-6,.cls-9{stroke-miterlimit:10;stroke-width:0.5px;}.cls-4{stroke:#fff;}.cls-5{fill:url(#Безымянный_градиент_78);}.cls-6{fill:#fff;}.cls-6,.cls-9{stroke:#1b1e27;}.cls-7{fill:#3fa9f5;}.cls-8{fill:url(#Безымянный_градиент_15);}.cls-9{fill:#f28b4a;}.cls-10{fill:#1b1e27;}</style><clipPath id="clip-path" transform="translate(0 -1.08)"><rect class="cls-1" x="10.43" width="194.98" height="66.07" rx="5.77"/></clipPath><linearGradient id="Безымянный_градиент_78" x1="114.26" y1="12.11" x2="114.26" y2="70.36" gradientUnits="userSpaceOnUse"><stop offset="0.05" stop-color="#fff" stop-opacity="0.5"/><stop offset="0.25" stop-color="#b7b8ba" stop-opacity="0.34"/><stop offset="0.47" stop-color="#73757b" stop-opacity="0.19"/><stop offset="0.68" stop-color="#43454d" stop-opacity="0.09"/><stop offset="0.86" stop-color="#252831" stop-opacity="0.02"/><stop offset="1" stop-color="#1b1e27" stop-opacity="0"/></linearGradient><linearGradient id="Безымянный_градиент_15" x1="114.29" y1="1.95" x2="114.29" y2="56.73" gradientUnits="userSpaceOnUse"><stop offset="0.06" stop-color="#3fa9f5"/><stop offset="0.18" stop-color="#388dcb" stop-opacity="0.8"/><stop offset="0.35" stop-color="#2f6b9a" stop-opacity="0.56"/><stop offset="0.5" stop-color="#285071" stop-opacity="0.36"/><stop offset="0.65" stop-color="#223a51" stop-opacity="0.2"/><stop offset="0.79" stop-color="#1e2b3a" stop-opacity="0.09"/><stop offset="0.91" stop-color="#1c212c" stop-opacity="0.02"/><stop offset="1" stop-color="#1b1e27" stop-opacity="0"/></linearGradient></defs><title>Ресурс 23</title><g id="Слой_2" data-name="Слой 2"><g id="Layer_1" data-name="Layer 1"><g class="cls-2"><polyline class="cls-3" points="0.99 0.99 0.99 0.99 10.16 5.95 20.08 14.63 30.73 46.35 40.4 20.33 50.32 31.98 60.48 34.95 70.39 14.63 80.06 32.72 89.97 32.72 99.89 39.16 109.8 23.05 119.47 5.95 128.64 14.63 139.04 14.63 148.96 14.63 158.63 24.04 168.54 24.04 178.45 14.63 188.37 34.95 198.03 14.63 207.95 25.53 217.86 18.84 227.78 14.63"/><path class="cls-4" d="M1,15.71a49.06,49.06,0,0,1,9.17,5,68.54,68.54,0,0,1,9.92,8.67c7.47,7.6,8.17,10.34,10.66,10.16,3.3-.24,3.17-5.17,9.66-10.16,2.44-1.87,5.76-4.43,9.92-4.21s4.8,3,10.16,4.21c5.6,1.25,6.83-1.4,9.91,0,6.19,2.81,2.93,14.2,9.67,18.09,3.18,1.84,7.3,1.26,9.91,0,4.3-2.06,5.14-6.24,9.92-18.09,6.28-15.59,8.3-17,9.91-17.1s4.38,2.72,9.67,8.43c5.71,6.16,6.33,7.69,9.17,8.67,1.23.43,1.71.34,10.41,0s9.15-.3,9.91,0c5.13,2,4.32,7,9.67,9.42,4.47,2,9.13.29,9.91,0,2.2-.81,4.14-2.17,9.91-9.42,7-8.74,7.65-11.15,9.92-11.15,2,0,3.06,1.8,9.66,11.15,6.47,9.16,7.8,10.8,9.92,10.91,3,.14,4.06-3,9.91-6.7a35,35,0,0,1,9.92-4.21" transform="translate(0 -1.08)"/><path class="cls-5" d="M227.65,29.22a34.38,34.38,0,0,0-9.91,4.21c-5.85,3.67-6.89,6.84-9.92,6.69-2.11-.1-3.44-1.75-9.91-10.9-6.6-9.35-7.71-11.16-9.67-11.16-2.26,0-2.94,2.41-9.91,11.16-5.78,7.25-7.72,8.61-9.91,9.41-.79.29-5.44,2-9.92,0-5.34-2.37-4.53-7.39-9.66-9.41-.77-.3-1.18-.35-9.92,0s-9.18.42-10.41,0c-2.84-1-3.46-2.51-9.17-8.68-5.28-5.7-8-8.56-9.66-8.42s-3.64,1.51-9.92,17.1c-4.78,11.85-5.62,16-9.91,18.09-2.62,1.25-6.73,1.83-9.92,0C73.19,43.42,76.45,32,70.27,29.22c-3.09-1.4-4.31,1.25-9.92,0-5.35-1.2-6-4-10.16-4.22s-7.48,2.34-9.91,4.22c-6.49,5-6.37,9.92-9.67,10.16-2.48.18-3.18-2.57-10.66-10.16A68.49,68.49,0,0,0,10,20.54a50.27,50.27,0,0,0-9.17-5V70.36H227.65Z" transform="translate(0 -1.08)"/><circle class="cls-6" cx="207.95" cy="39.16" r="0.74"/><circle class="cls-6" cx="198.03" cy="28.26" r="0.74"/><circle class="cls-6" cx="188.37" cy="17.1" r="0.74"/><circle class="cls-6" cx="178.45" cy="28.26" r="0.74"/><circle class="cls-6" cx="168.54" cy="37.68" r="0.74"/><circle class="cls-6" cx="158.63" cy="37.68" r="0.74"/><circle class="cls-6" cx="148.96" cy="28.26" r="0.74"/><circle class="cls-6" cx="139.05" cy="28.26" r="0.74"/><circle class="cls-6" cx="129.38" cy="28.26" r="0.74"/><circle class="cls-6" cx="119.47" cy="19.58" r="0.74"/><circle class="cls-6" cx="109.8" cy="11.16" r="0.74"/><circle class="cls-6" cx="99.89" cy="28.26" r="0.74"/><circle class="cls-6" cx="89.97" cy="46.35" r="0.74"/><circle class="cls-6" cx="80.06" cy="46.35" r="0.74"/><circle class="cls-6" cx="70.39" cy="28.26" r="0.74"/><circle class="cls-6" cx="60.48" cy="28.26" r="0.74"/><circle class="cls-6" cx="50.32" cy="24.04" r="0.74"/><circle class="cls-6" cx="40.4" cy="28.26" r="0.74"/><circle class="cls-6" cx="30.74" cy="38.42" r="0.74"/><circle class="cls-7" cx="20.82" cy="29" r="0.74"/><circle class="cls-6" cx="10.91" cy="20.33" r="0.74"/><circle class="cls-6" cx="0.99" cy="14.63" r="0.74"/><circle class="cls-6" cx="227.78" cy="28.26" r="0.74"/><circle class="cls-6" cx="217.86" cy="32.47" r="0.74"/><path class="cls-8" d="M227.68,15.58l-9.92,4.22-9.91,6.69-9.92-10.91L188.27,36.9l-9.92-21.32L168.44,25h-9.91l-9.67-9.42H128.54l-9.17-8.67L109.7,24l-9.91,17.1-9.92-7.43H80l-9.67-18.1L60.38,35.91l-10.16-3L40.05,21.53l-9.41,26L20,15.58,10.06,6.91.89,2h0V56.73H227.68Z" transform="translate(0 -1.08)"/><circle class="cls-7" cx="217.86" cy="18.84" r="0.74"/><circle class="cls-7" cx="207.95" cy="25.53" r="0.74"/><circle class="cls-7" cx="198.03" cy="14.63" r="0.74"/><circle class="cls-7" cx="188.37" cy="34.95" r="0.74"/><circle class="cls-7" cx="178.45" cy="14.63" r="0.74"/><circle class="cls-7" cx="168.54" cy="24.04" r="0.74"/><circle class="cls-7" cx="158.63" cy="24.04" r="0.74"/><circle class="cls-7" cx="148.96" cy="14.63" r="0.74"/><circle class="cls-7" cx="139.05" cy="14.63" r="0.74"/><circle class="cls-7" cx="129.38" cy="14.63" r="0.74"/><circle class="cls-7" cx="119.47" cy="5.95" r="0.74"/><circle class="cls-7" cx="109.8" cy="23.05" r="0.74"/><circle class="cls-7" cx="99.89" cy="39.16" r="0.74"/><circle class="cls-7" cx="89.97" cy="32.72" r="0.74"/><circle class="cls-7" cx="80.06" cy="32.72" r="0.74"/><circle class="cls-7" cx="70.39" cy="14.63" r="0.74"/><circle class="cls-7" cx="60.48" cy="34.95" r="0.74"/><circle class="cls-7" cx="50.32" cy="31.97" r="0.74"/><circle class="cls-7" cx="40.4" cy="20.33" r="0.74"/><circle class="cls-7" cx="30.74" cy="46.35" r="0.74"/><circle class="cls-7" cx="20.08" cy="14.63" r="0.74"/><circle class="cls-7" cx="227.78" cy="14.63" r="0.74"/><circle class="cls-9" cx="10.91" cy="6.69" r="0.74"/><circle class="cls-9" cx="0.99" cy="0.99" r="0.74"/><circle class="cls-10" cx="0.99" cy="0.99" r="0.37"/><circle class="cls-10" cx="10.91" cy="6.69" r="0.37"/><circle class="cls-10" cx="20.08" cy="14.63" r="0.37"/><circle class="cls-10" cx="30.74" cy="46.35" r="0.37"/><circle class="cls-10" cx="40.4" cy="20.33" r="0.37"/><circle class="cls-10" cx="50.32" cy="31.97" r="0.37"/><circle class="cls-10" cx="60.48" cy="34.95" r="0.37"/><circle class="cls-10" cx="70.39" cy="14.63" r="0.37"/><circle class="cls-10" cx="80.06" cy="32.72" r="0.37"/><circle class="cls-10" cx="89.97" cy="32.72" r="0.37"/><circle class="cls-10" cx="99.89" cy="39.16" r="0.37"/><circle class="cls-10" cx="109.8" cy="23.05" r="0.37"/><circle class="cls-10" cx="129.38" cy="14.63" r="0.37"/><circle class="cls-10" cx="119.47" cy="5.95" r="0.37"/><circle class="cls-10" cx="139.05" cy="14.63" r="0.37"/><circle class="cls-10" cx="148.96" cy="14.63" r="0.37"/><circle class="cls-10" cx="158.63" cy="24.04" r="0.37"/><circle class="cls-10" cx="168.54" cy="24.04" r="0.37"/><circle class="cls-10" cx="178.45" cy="14.63" r="0.37"/><circle class="cls-10" cx="188.37" cy="34.95" r="0.37"/><circle class="cls-10" cx="198.03" cy="14.63" r="0.37"/><circle class="cls-10" cx="207.95" cy="25.53" r="0.37"/><circle class="cls-10" cx="217.86" cy="18.84" r="0.37"/><circle class="cls-10" cx="227.78" cy="14.63" r="0.37"/><circle class="cls-7" cx="10.91" cy="20.33" r="0.74"/><circle class="cls-9" cx="0.99" cy="14.63" r="0.74"/><circle class="cls-10" cx="0.99" cy="14.63" r="0.37"/><circle class="cls-10" cx="10.91" cy="20.33" r="0.37"/><circle class="cls-10" cx="20.82" cy="29" r="0.37"/><circle class="cls-10" cx="30.74" cy="38.42" r="0.37"/><circle class="cls-10" cx="40.4" cy="28.26" r="0.37"/><circle class="cls-10" cx="50.32" cy="24.04" r="0.37"/><circle class="cls-10" cx="60.48" cy="28.26" r="0.37"/><circle class="cls-10" cx="70.39" cy="28.26" r="0.37"/><circle class="cls-10" cx="80.06" cy="46.35" r="0.37"/><circle class="cls-10" cx="89.97" cy="46.35" r="0.37"/><circle class="cls-10" cx="99.89" cy="28.26" r="0.37"/><circle class="cls-10" cx="109.8" cy="11.16" r="0.37"/><circle class="cls-10" cx="129.38" cy="28.26" r="0.37"/><circle class="cls-10" cx="119.47" cy="19.58" r="0.37"/><circle class="cls-10" cx="139.05" cy="28.26" r="0.37"/><circle class="cls-10" cx="148.96" cy="28.26" r="0.37"/><circle class="cls-10" cx="158.63" cy="37.68" r="0.37"/><circle class="cls-10" cx="168.54" cy="37.68" r="0.37"/><circle class="cls-10" cx="178.45" cy="28.26" r="0.37"/><circle class="cls-10" cx="188.37" cy="17.1" r="0.37"/><circle class="cls-10" cx="198.03" cy="28.26" r="0.37"/><circle class="cls-10" cx="207.95" cy="39.16" r="0.37"/><circle class="cls-10" cx="217.86" cy="32.47" r="0.37"/><circle class="cls-10" cx="227.78" cy="28.26" r="0.37"/></g></g></g></svg>