<svg width="208" height="71" viewBox="0 0 208 71" fill="none" xmlns="http://www.w3.org/2000/svg">
<mask id="mask0" mask-type="alpha" maskUnits="userSpaceOnUse" x="0" y="0" width="208" height="71">
<rect width="207.382" height="70.269" rx="5.7704" fill="white"/>
</mask>
<g mask="url(#mask0)">
<rect width="207.382" height="70.269" rx="5.7704" stroke="#61647F"/>
<path d="M72.0374 50.738H36.0857V35.7451" stroke="#61647F" stroke-miterlimit="10"/>
<path d="M104.291 22.3898C104.291 13.483 97.0711 6.2627 88.1644 6.2627C79.2577 6.2627 72.0374 13.483 72.0374 22.3898V49C72.0374 57.9067 79.2577 65.127 88.1644 65.127C97.0711 65.127 104.291 57.9067 104.291 49V22.3898Z" stroke="#5A5F80" stroke-miterlimit="10"/>
<path d="M20.572 30.5253C26.4107 30.5253 31.144 25.7921 31.144 19.9533C31.144 14.1146 26.4107 9.38135 20.572 9.38135C14.7333 9.38135 10 14.1146 10 19.9533C10 25.7921 14.7333 30.5253 20.572 30.5253Z" stroke="#5A5F80" stroke-miterlimit="10"/>
<path d="M13.738 19.8147L17.0942 16.4585L24.0901 23.4544L27.4116 20.1329" stroke="#BEBDDF" stroke-miterlimit="10"/>
<path d="M176.166 23.4717H109.841" stroke="#61647F" stroke-miterlimit="10"/>
<path d="M110.263 22.0308L107.763 23.4716L110.263 24.9125V22.0308Z" fill="#61647F"/>
<path d="M20.572 30.5313V35.7449H51.4142V25.5491" stroke="#61647F" stroke-miterlimit="10"/>
<path d="M20.572 9.38148V4H51.4142V15.0407" stroke="#61647F" stroke-miterlimit="10"/>
<path d="M164.182 57.9537V95.271C164.182 102.935 170.395 109.147 178.058 109.147H178.064C185.728 109.147 191.94 102.935 191.94 95.271V57.9537C191.94 50.2901 185.728 44.0776 178.064 44.0776H178.058C170.395 44.0776 164.182 50.2901 164.182 57.9537Z" stroke="#5A5F80" stroke-miterlimit="10"/>
<path d="M104.292 51H158.517" stroke="#61647F" stroke-miterlimit="10"/>
<path d="M158.094 52.3875L160.594 50.9408L158.094 49.5V52.3875Z" fill="#61647F"/>
<path d="M61.095 14.6992H41.739C40.8186 14.6992 40.0725 15.4453 40.0725 16.3657V23.541C40.0725 24.4614 40.8186 25.2076 41.739 25.2076H61.095C62.0154 25.2076 62.7615 24.4614 62.7615 23.541V16.3657C62.7615 15.4453 62.0154 14.6992 61.095 14.6992Z" fill="#191C2B" stroke="#5A5F80" stroke-miterlimit="10"/>
<path d="M47.8381 17.4883C47.1843 17.4883 46.5573 17.748 46.0951 18.2103C45.6328 18.6726 45.373 19.2996 45.373 19.9533C45.373 20.6071 45.6328 21.2341 46.0951 21.6964C46.5573 22.1587 47.1843 22.4184 47.8381 22.4184C49.2037 22.4184 51.4142 19.9533 51.4142 19.9533C51.4142 19.9533 49.2037 17.4883 47.8381 17.4883Z" fill="#191C2B" stroke="#5A5F80" stroke-miterlimit="10"/>
<path d="M54.9904 17.4883C53.6248 17.4883 51.4143 19.9533 51.4143 19.9533C51.4143 19.9533 53.6248 22.4184 54.9904 22.4184C55.6442 22.4184 56.2711 22.1587 56.7334 21.6964C57.1957 21.2341 57.4554 20.6071 57.4554 19.9533C57.4554 19.2996 57.1957 18.6726 56.7334 18.2103C56.2711 17.748 55.6442 17.4883 54.9904 17.4883Z" fill="#191C2B" stroke="#5A5F80" stroke-miterlimit="10"/>
<circle cx="36.3286" cy="50.8594" r="9.91575" fill="#191C2B" stroke="#0089FF"/>
<path d="M31.6587 50.6002H29.5317V50.1549H30.3227V47.2311H29.5317V46.8326C29.8305 46.8326 30.0503 46.7906 30.1909 46.7067C30.3335 46.6207 30.4136 46.4596 30.4311 46.2233H30.8852V50.1549H31.6587V50.6002ZM34.9341 50.6002H32.8071V50.1549H33.5981V47.2311H32.8071V46.8326C33.1059 46.8326 33.3257 46.7906 33.4663 46.7067C33.6089 46.6207 33.6889 46.4596 33.7065 46.2233H34.1606V50.1549H34.9341V50.6002ZM38.5464 49.1002H38.0278V50.6002H37.4653V49.1002H35.5376V48.485L37.4888 46.2379H38.0278V48.6315H38.5464V49.1002ZM37.4653 48.6315V46.9264L35.9946 48.6315H37.4653ZM39.9526 50.6002H39.2524V49.7653H39.9526V50.6002ZM42.9497 48.0309C42.9497 47.734 42.9223 47.4928 42.8677 47.3073C42.813 47.1198 42.7378 46.9752 42.6421 46.8737C42.5561 46.7799 42.4692 46.7155 42.3813 46.6803C42.2934 46.6451 42.1968 46.6276 42.0913 46.6276C41.8511 46.6276 41.6596 46.7135 41.5171 46.8854C41.3745 47.0573 41.3032 47.3063 41.3032 47.6324C41.3032 47.816 41.3266 47.9674 41.3735 48.0865C41.4204 48.2057 41.4966 48.3082 41.602 48.3942C41.6763 48.4547 41.7602 48.4957 41.854 48.5172C41.9477 48.5367 42.0483 48.5465 42.1557 48.5465C42.2807 48.5465 42.4155 48.525 42.56 48.4821C42.7046 48.4371 42.8305 48.3785 42.938 48.3063C42.9399 48.277 42.9419 48.2389 42.9438 48.192C42.9477 48.1432 42.9497 48.0895 42.9497 48.0309ZM40.7085 47.6559C40.7085 47.4313 40.7446 47.2262 40.8169 47.0406C40.8911 46.8551 40.9917 46.6949 41.1186 46.5602C41.2397 46.4313 41.3872 46.3307 41.561 46.2584C41.7368 46.1862 41.9145 46.15 42.0942 46.15C42.2954 46.15 42.477 46.1842 42.6391 46.2526C42.8032 46.319 42.9448 46.4156 43.0639 46.5426C43.2143 46.7028 43.3305 46.9127 43.4126 47.1725C43.4966 47.4323 43.5386 47.7604 43.5386 48.1569C43.5386 48.5182 43.4975 48.861 43.4155 49.1852C43.3354 49.5074 43.2163 49.775 43.0581 49.9879C42.8901 50.2145 42.688 50.3873 42.4516 50.5065C42.2173 50.6256 41.9272 50.6852 41.5815 50.6852C41.5034 50.6852 41.4204 50.6803 41.3325 50.6705C41.2446 50.6627 41.1626 50.6471 41.0864 50.6237V50.0641H41.1157C41.1645 50.0914 41.2407 50.1178 41.3442 50.1432C41.4477 50.1686 41.5532 50.1813 41.6606 50.1813C42.0434 50.1813 42.3442 50.0553 42.563 49.8033C42.7817 49.5514 42.9057 49.191 42.935 48.7223C42.7788 48.8278 42.6294 48.9049 42.4868 48.9537C42.3462 49.0026 42.1929 49.027 42.0268 49.027C41.8647 49.027 41.7173 49.0094 41.5845 48.9742C41.4516 48.9391 41.3179 48.8707 41.1831 48.7692C41.0268 48.65 40.9087 48.4996 40.8286 48.318C40.7485 48.1344 40.7085 47.9137 40.7085 47.6559Z" fill="#D7E2F2"/>
<path d="M33.5893 56.4436H33.0444V53.8713L32.2593 55.5413H31.8491L31.0698 53.8713V56.4436H30.5542V53.1711H31.2192L32.0805 54.9875L32.9126 53.1711H33.5893V56.4436ZM36.4399 54.0178C36.4399 54.1565 36.4106 54.2815 36.352 54.3928C36.2934 54.5022 36.2173 54.5891 36.1235 54.6536C36.02 54.7258 35.9077 54.7776 35.7866 54.8088C35.6675 54.8401 35.5307 54.8557 35.3764 54.8557C35.2163 54.8557 35.0659 54.8411 34.9253 54.8118C34.7866 54.7825 34.6538 54.7405 34.5268 54.6858V54.1731H34.5766C34.6489 54.2415 34.7602 54.3049 34.9106 54.3635C35.061 54.4202 35.2134 54.4485 35.3677 54.4485C35.5317 54.4485 35.6675 54.4133 35.7749 54.343C35.8823 54.2708 35.936 54.1643 35.936 54.0237C35.936 53.8831 35.893 53.7786 35.8071 53.7102C35.7231 53.6418 35.5796 53.6077 35.3764 53.6077H34.9663V53.2004H35.3325C35.5024 53.2004 35.6333 53.1633 35.7251 53.0891C35.8188 53.0149 35.8657 52.9133 35.8657 52.7844C35.8657 52.6672 35.8257 52.5745 35.7456 52.5061C35.6655 52.4358 35.5405 52.4006 35.3706 52.4006C35.2417 52.4006 35.102 52.4309 34.9516 52.4915C34.8032 52.552 34.6929 52.6165 34.6206 52.6848H34.5708V52.1721C34.6958 52.1194 34.8315 52.0764 34.978 52.0432C35.1245 52.01 35.2749 51.9934 35.4292 51.9934C35.7261 51.9934 35.9575 52.0618 36.1235 52.1985C36.2895 52.3352 36.3725 52.4993 36.3725 52.6907C36.3725 52.8606 36.3247 53.0012 36.229 53.1125C36.1352 53.2219 36.0132 53.302 35.8628 53.3528V53.3762C36.019 53.4075 36.1538 53.4768 36.2671 53.5842C36.3823 53.6897 36.4399 53.8342 36.4399 54.0178ZM39.0796 51.885L37.3716 57.3928H36.8764L38.5757 51.885H39.0796ZM42.103 56.4436H41.5522V55.1663C41.3804 55.2229 41.2134 55.2668 41.0513 55.2981C40.8891 55.3293 40.729 55.345 40.5708 55.345C40.4321 55.345 40.2964 55.3274 40.1636 55.2922C40.0327 55.2551 39.9194 55.1956 39.8237 55.1135C39.728 55.0315 39.6538 54.927 39.6011 54.8C39.5503 54.6711 39.5249 54.5198 39.5249 54.3459V53.1711H40.0757V54.0588C40.0757 54.2034 40.0815 54.3186 40.0932 54.4045C40.105 54.4885 40.1372 54.5706 40.1899 54.6506C40.2348 54.719 40.3022 54.7717 40.3921 54.8088C40.4839 54.8459 40.604 54.8645 40.7524 54.8645C40.8813 54.8645 41.019 54.8518 41.1655 54.8264C41.3139 54.801 41.4429 54.7708 41.5522 54.7356V53.1711H42.103V56.4436Z" fill="#5B607D"/>
<circle cx="182.817" cy="24.2414" r="9.91575" fill="#191C2B" stroke="#0089FF"/>
<path d="M178.185 23H176.058V22.5547H176.849V19.6309H176.058V19.2324C176.357 19.2324 176.577 19.1904 176.717 19.1064C176.86 19.0205 176.94 18.8594 176.958 18.623H177.412V22.5547H178.185V23ZM181.633 21.6113C181.633 21.8223 181.599 22.0176 181.531 22.1973C181.464 22.377 181.371 22.5322 181.249 22.6631C181.126 22.7959 180.973 22.9004 180.79 22.9766C180.608 23.0527 180.404 23.0908 180.177 23.0908C179.968 23.0908 179.762 23.0674 179.559 23.0205C179.358 22.9756 179.183 22.916 179.035 22.8418V22.2236H179.076C179.121 22.2568 179.185 22.2949 179.269 22.3379C179.353 22.3789 179.446 22.418 179.547 22.4551C179.663 22.4961 179.768 22.5283 179.864 22.5518C179.959 22.5732 180.067 22.584 180.186 22.584C180.303 22.584 180.417 22.5635 180.529 22.5225C180.64 22.4795 180.736 22.4111 180.816 22.3174C180.888 22.2314 180.943 22.1309 180.98 22.0156C181.019 21.9004 181.039 21.7646 181.039 21.6084C181.039 21.4541 181.017 21.3271 180.974 21.2275C180.933 21.1279 180.873 21.0459 180.792 20.9814C180.708 20.9072 180.605 20.8555 180.482 20.8262C180.361 20.7949 180.225 20.7793 180.075 20.7793C179.916 20.7793 179.757 20.792 179.597 20.8174C179.437 20.8408 179.309 20.8633 179.213 20.8848V18.6377H181.607V19.1504H179.779V20.3105C179.849 20.3027 179.918 20.2969 179.987 20.293C180.055 20.2891 180.118 20.2871 180.174 20.2871C180.397 20.2871 180.585 20.3057 180.74 20.3428C180.894 20.3799 181.042 20.4521 181.185 20.5596C181.33 20.6689 181.44 20.8057 181.516 20.9697C181.594 21.1338 181.633 21.3477 181.633 21.6113ZM184.979 20.8174C184.979 21.6006 184.865 22.1758 184.636 22.543C184.41 22.9082 184.059 23.0908 183.584 23.0908C183.104 23.0908 182.751 22.9043 182.527 22.5312C182.302 22.1582 182.19 21.5889 182.19 20.8232C182.19 20.0361 182.303 19.4609 182.53 19.0977C182.758 18.7324 183.11 18.5498 183.584 18.5498C184.065 18.5498 184.417 18.7383 184.642 19.1152C184.867 19.4922 184.979 20.0596 184.979 20.8174ZM184.229 22.1475C184.286 22.0029 184.326 21.8203 184.349 21.5996C184.373 21.3789 184.384 21.1182 184.384 20.8174C184.384 20.5186 184.373 20.2588 184.349 20.0381C184.326 19.8174 184.285 19.6338 184.226 19.4873C184.167 19.3389 184.086 19.2266 183.983 19.1504C183.881 19.0723 183.749 19.0332 183.584 19.0332C183.422 19.0332 183.289 19.0723 183.183 19.1504C183.08 19.2266 182.998 19.3408 182.937 19.4932C182.878 19.6416 182.838 19.8291 182.817 20.0557C182.795 20.2822 182.785 20.5381 182.785 20.8232C182.785 21.1279 182.793 21.3828 182.811 21.5879C182.831 21.793 182.872 21.9766 182.934 22.1387C182.991 22.2891 183.071 22.4053 183.174 22.4873C183.28 22.5674 183.416 22.6074 183.584 22.6074C183.747 22.6074 183.879 22.5693 183.983 22.4932C184.088 22.415 184.17 22.2998 184.229 22.1475ZM186.479 23H185.779V22.165H186.479V23ZM189.476 20.4307C189.476 20.1338 189.449 19.8926 189.394 19.707C189.339 19.5195 189.264 19.375 189.168 19.2734C189.083 19.1797 188.996 19.1152 188.908 19.0801C188.82 19.0449 188.723 19.0273 188.618 19.0273C188.377 19.0273 188.186 19.1133 188.043 19.2852C187.901 19.457 187.83 19.7061 187.83 20.0322C187.83 20.2158 187.853 20.3672 187.9 20.4863C187.947 20.6055 188.023 20.708 188.128 20.7939C188.203 20.8545 188.287 20.8955 188.38 20.917C188.474 20.9365 188.575 20.9463 188.682 20.9463C188.807 20.9463 188.942 20.9248 189.086 20.8818C189.231 20.8369 189.357 20.7783 189.464 20.7061C189.466 20.6768 189.468 20.6387 189.47 20.5918C189.474 20.543 189.476 20.4893 189.476 20.4307ZM187.235 20.0557C187.235 19.8311 187.271 19.626 187.343 19.4404C187.417 19.2549 187.518 19.0947 187.645 18.96C187.766 18.8311 187.914 18.7305 188.087 18.6582C188.263 18.5859 188.441 18.5498 188.621 18.5498C188.822 18.5498 189.003 18.584 189.166 18.6523C189.33 18.7188 189.471 18.8154 189.59 18.9424C189.741 19.1025 189.857 19.3125 189.939 19.5723C190.023 19.832 190.065 20.1602 190.065 20.5566C190.065 20.918 190.024 21.2607 189.942 21.585C189.862 21.9072 189.743 22.1748 189.584 22.3877C189.416 22.6143 189.214 22.7871 188.978 22.9062C188.744 23.0254 188.454 23.085 188.108 23.085C188.03 23.085 187.947 23.0801 187.859 23.0703C187.771 23.0625 187.689 23.0469 187.613 23.0234V22.4639H187.642C187.691 22.4912 187.767 22.5176 187.871 22.543C187.974 22.5684 188.08 22.5811 188.187 22.5811C188.57 22.5811 188.871 22.4551 189.089 22.2031C189.308 21.9512 189.432 21.5908 189.461 21.1221C189.305 21.2275 189.156 21.3047 189.013 21.3535C188.873 21.4023 188.719 21.4268 188.553 21.4268C188.391 21.4268 188.244 21.4092 188.111 21.374C187.978 21.3389 187.844 21.2705 187.709 21.1689C187.553 21.0498 187.435 20.8994 187.355 20.7178C187.275 20.5342 187.235 20.3135 187.235 20.0557Z" fill="#D7E2F2"/>
<path d="M180.116 29H179.571V26.4277L178.786 28.0977H178.375L177.596 26.4277V29H177.081V25.7275H177.746L178.607 27.5439L179.439 25.7275H180.116V29ZM182.966 26.5742C182.966 26.7129 182.937 26.8379 182.878 26.9492C182.82 27.0586 182.744 27.1455 182.65 27.21C182.546 27.2822 182.434 27.334 182.313 27.3652C182.194 27.3965 182.057 27.4121 181.903 27.4121C181.743 27.4121 181.592 27.3975 181.452 27.3682C181.313 27.3389 181.18 27.2969 181.053 27.2422V26.7295H181.103C181.175 26.7979 181.287 26.8613 181.437 26.9199C181.587 26.9766 181.74 27.0049 181.894 27.0049C182.058 27.0049 182.194 26.9697 182.301 26.8994C182.409 26.8271 182.462 26.7207 182.462 26.5801C182.462 26.4395 182.419 26.335 182.333 26.2666C182.249 26.1982 182.106 26.1641 181.903 26.1641H181.493V25.7568H181.859C182.029 25.7568 182.16 25.7197 182.251 25.6455C182.345 25.5713 182.392 25.4697 182.392 25.3408C182.392 25.2236 182.352 25.1309 182.272 25.0625C182.192 24.9922 182.067 24.957 181.897 24.957C181.768 24.957 181.628 24.9873 181.478 25.0479C181.33 25.1084 181.219 25.1729 181.147 25.2412H181.097V24.7285C181.222 24.6758 181.358 24.6328 181.504 24.5996C181.651 24.5664 181.801 24.5498 181.956 24.5498C182.252 24.5498 182.484 24.6182 182.65 24.7549C182.816 24.8916 182.899 25.0557 182.899 25.2471C182.899 25.417 182.851 25.5576 182.755 25.6689C182.662 25.7783 182.54 25.8584 182.389 25.9092V25.9326C182.545 25.9639 182.68 26.0332 182.793 26.1406C182.909 26.2461 182.966 26.3906 182.966 26.5742ZM185.606 24.4414L183.898 29.9492H183.403L185.102 24.4414H185.606ZM188.629 29H188.079V27.7227C187.907 27.7793 187.74 27.8232 187.578 27.8545C187.416 27.8857 187.255 27.9014 187.097 27.9014C186.958 27.9014 186.823 27.8838 186.69 27.8486C186.559 27.8115 186.446 27.752 186.35 27.6699C186.254 27.5879 186.18 27.4834 186.127 27.3564C186.077 27.2275 186.051 27.0762 186.051 26.9023V25.7275H186.602V26.6152C186.602 26.7598 186.608 26.875 186.62 26.9609C186.631 27.0449 186.664 27.127 186.716 27.207C186.761 27.2754 186.829 27.3281 186.918 27.3652C187.01 27.4023 187.13 27.4209 187.279 27.4209C187.408 27.4209 187.545 27.4082 187.692 27.3828C187.84 27.3574 187.969 27.3271 188.079 27.292V25.7275H188.629V29Z" fill="#5B607D"/>
<circle cx="150.902" cy="23.084" r="9.91575" fill="#191C2B" stroke="#0089FF"/>
<path d="M148.043 21.6113C148.043 21.8223 148.009 22.0176 147.94 22.1973C147.874 22.377 147.78 22.5322 147.659 22.6631C147.536 22.7959 147.383 22.9004 147.199 22.9766C147.017 23.0527 146.813 23.0908 146.587 23.0908C146.378 23.0908 146.172 23.0674 145.968 23.0205C145.767 22.9756 145.593 22.916 145.444 22.8418V22.2236H145.485C145.53 22.2568 145.594 22.2949 145.678 22.3379C145.762 22.3789 145.855 22.418 145.957 22.4551C146.072 22.4961 146.177 22.5283 146.273 22.5518C146.369 22.5732 146.476 22.584 146.595 22.584C146.713 22.584 146.827 22.5635 146.938 22.5225C147.05 22.4795 147.145 22.4111 147.225 22.3174C147.298 22.2314 147.352 22.1309 147.389 22.0156C147.428 21.9004 147.448 21.7646 147.448 21.6084C147.448 21.4541 147.426 21.3271 147.384 21.2275C147.343 21.1279 147.282 21.0459 147.202 20.9814C147.118 20.9072 147.014 20.8555 146.891 20.8262C146.77 20.7949 146.635 20.7793 146.484 20.7793C146.326 20.7793 146.167 20.792 146.007 20.8174C145.846 20.8408 145.718 20.8633 145.623 20.8848V18.6377H148.016V19.1504H146.188V20.3105C146.259 20.3027 146.328 20.2969 146.396 20.293C146.465 20.2891 146.527 20.2871 146.584 20.2871C146.806 20.2871 146.995 20.3057 147.149 20.3428C147.303 20.3799 147.452 20.4521 147.594 20.5596C147.739 20.6689 147.849 20.8057 147.926 20.9697C148.004 21.1338 148.043 21.3477 148.043 21.6113ZM151.435 21.585C151.435 21.8096 151.398 22.0166 151.324 22.2061C151.25 22.3955 151.15 22.5537 151.025 22.6807C150.894 22.8154 150.748 22.918 150.586 22.9883C150.424 23.0566 150.245 23.0908 150.05 23.0908C149.852 23.0908 149.673 23.0576 149.51 22.9912C149.35 22.9248 149.209 22.8262 149.086 22.6953C148.935 22.5371 148.817 22.3262 148.731 22.0625C148.647 21.7969 148.605 21.4707 148.605 21.084C148.605 20.7051 148.644 20.3633 148.722 20.0586C148.801 19.752 148.921 19.4854 149.083 19.2588C149.241 19.0381 149.445 18.8662 149.695 18.7432C149.945 18.6182 150.234 18.5557 150.562 18.5557C150.66 18.5557 150.751 18.5605 150.835 18.5703C150.919 18.5801 150.993 18.5957 151.057 18.6172V19.1768H151.031C150.978 19.1475 150.902 19.1211 150.802 19.0977C150.703 19.0723 150.596 19.0596 150.483 19.0596C150.12 19.0596 149.826 19.1826 149.601 19.4287C149.379 19.6729 149.247 20.0361 149.206 20.5186C149.344 20.4209 149.487 20.3457 149.634 20.293C149.78 20.2402 149.94 20.2139 150.114 20.2139C150.284 20.2139 150.432 20.2314 150.559 20.2666C150.688 20.2998 150.822 20.3682 150.961 20.4717C151.121 20.5928 151.24 20.7461 151.318 20.9316C151.396 21.1172 151.435 21.335 151.435 21.585ZM150.841 21.6084C150.841 21.4287 150.817 21.2783 150.77 21.1572C150.723 21.0361 150.647 20.9326 150.542 20.8467C150.466 20.7842 150.379 20.7432 150.281 20.7236C150.185 20.7041 150.087 20.6943 149.985 20.6943C149.848 20.6943 149.716 20.7148 149.587 20.7559C149.458 20.7969 149.331 20.8564 149.206 20.9346C149.202 20.9775 149.199 21.0195 149.197 21.0605C149.195 21.0996 149.194 21.1494 149.194 21.21C149.194 21.5127 149.223 21.7568 149.282 21.9424C149.343 22.1279 149.417 22.2686 149.505 22.3643C149.589 22.4561 149.675 22.5205 149.762 22.5576C149.852 22.5947 149.949 22.6133 150.052 22.6133C150.287 22.6133 150.476 22.5293 150.621 22.3613C150.767 22.1934 150.841 21.9424 150.841 21.6084ZM152.888 23H152.188V22.165H152.888V23ZM154.945 19.0537C154.84 19.0537 154.734 19.0664 154.629 19.0918C154.523 19.1172 154.42 19.1504 154.318 19.1914C154.224 19.2305 154.142 19.2715 154.072 19.3145C154.004 19.3574 153.942 19.3975 153.887 19.4346H153.852V18.8164C153.979 18.748 154.151 18.6865 154.368 18.6318C154.587 18.5752 154.795 18.5469 154.992 18.5469C155.189 18.5469 155.361 18.5674 155.508 18.6084C155.656 18.6475 155.79 18.709 155.909 18.793C156.038 18.8867 156.135 19 156.199 19.1328C156.265 19.2656 156.299 19.4209 156.299 19.5986C156.299 19.8389 156.219 20.0498 156.061 20.2314C155.903 20.4131 155.714 20.5283 155.493 20.5771V20.6182C155.585 20.6357 155.682 20.666 155.786 20.709C155.891 20.752 155.989 20.8154 156.079 20.8994C156.169 20.9834 156.242 21.0918 156.299 21.2246C156.355 21.3555 156.384 21.5156 156.384 21.7051C156.384 21.9023 156.349 22.084 156.281 22.25C156.215 22.4141 156.12 22.5596 155.997 22.6865C155.87 22.8193 155.717 22.9199 155.537 22.9883C155.357 23.0566 155.153 23.0908 154.925 23.0908C154.706 23.0908 154.489 23.0645 154.274 23.0117C154.059 22.959 153.879 22.8955 153.732 22.8213V22.2031H153.773C153.896 22.293 154.061 22.3789 154.268 22.4609C154.475 22.543 154.682 22.584 154.889 22.584C155.009 22.584 155.128 22.5654 155.247 22.5283C155.368 22.4893 155.468 22.4268 155.549 22.3408C155.627 22.2549 155.686 22.1602 155.727 22.0566C155.768 21.9531 155.789 21.8223 155.789 21.6641C155.789 21.5059 155.765 21.376 155.718 21.2744C155.674 21.1729 155.61 21.0928 155.528 21.0342C155.446 20.9756 155.348 20.9355 155.235 20.9141C155.124 20.8906 155.003 20.8789 154.872 20.8789H154.623V20.3926H154.816C155.08 20.3926 155.294 20.3301 155.458 20.2051C155.624 20.0801 155.707 19.8984 155.707 19.6602C155.707 19.5508 155.685 19.457 155.642 19.3789C155.599 19.2988 155.545 19.2354 155.478 19.1885C155.404 19.1377 155.322 19.1025 155.232 19.083C155.142 19.0635 155.047 19.0537 154.945 19.0537Z" fill="#D7E2F2"/>
<path d="M149.668 25.6748C149.668 25.9873 149.56 26.251 149.345 26.4658C149.131 26.6807 148.866 26.7881 148.551 26.7881C148.241 26.7881 147.977 26.6816 147.76 26.4688C147.544 26.2559 147.435 25.9912 147.435 25.6748C147.435 25.3623 147.543 25.0986 147.758 24.8838C147.972 24.6689 148.237 24.5615 148.551 24.5615C148.866 24.5615 149.131 24.6689 149.345 24.8838C149.56 25.0986 149.668 25.3623 149.668 25.6748ZM149.208 25.6748C149.208 25.4873 149.145 25.3291 149.02 25.2002C148.895 25.0713 148.739 25.0068 148.551 25.0068C148.364 25.0068 148.208 25.0713 148.083 25.2002C147.958 25.3291 147.895 25.4873 147.895 25.6748C147.895 25.8662 147.959 26.0254 148.086 26.1523C148.215 26.2793 148.37 26.3428 148.551 26.3428C148.739 26.3428 148.895 26.2783 149.02 26.1494C149.145 26.0186 149.208 25.8604 149.208 25.6748ZM152.111 29.0791C151.826 29.0791 151.563 29.0312 151.323 28.9355C151.085 28.8398 150.879 28.6973 150.705 28.5078C150.531 28.3184 150.396 28.082 150.301 27.7988C150.205 27.5156 150.157 27.1904 150.157 26.8232C150.157 26.458 150.203 26.1396 150.295 25.8682C150.388 25.5967 150.524 25.3604 150.702 25.1592C150.876 24.9639 151.082 24.8154 151.32 24.7139C151.558 24.6104 151.825 24.5586 152.12 24.5586C152.266 24.5586 152.403 24.5693 152.53 24.5908C152.659 24.6123 152.778 24.6396 152.887 24.6729C152.981 24.7021 153.077 24.7393 153.175 24.7842C153.274 24.8271 153.372 24.875 153.468 24.9277V25.6279H153.421C153.37 25.5811 153.304 25.5244 153.224 25.458C153.144 25.3916 153.047 25.3262 152.931 25.2617C152.82 25.2012 152.699 25.1514 152.568 25.1123C152.437 25.0732 152.286 25.0537 152.114 25.0537C151.928 25.0537 151.753 25.0918 151.587 25.168C151.421 25.2441 151.275 25.3564 151.15 25.5049C151.027 25.6533 150.931 25.8398 150.863 26.0645C150.795 26.2891 150.76 26.542 150.76 26.8232C150.76 27.1221 150.797 27.3799 150.869 27.5967C150.941 27.8115 151.04 27.9932 151.165 28.1416C151.286 28.2861 151.428 28.3955 151.593 28.4697C151.757 28.542 151.93 28.5781 152.114 28.5781C152.282 28.5781 152.437 28.5576 152.58 28.5166C152.722 28.4756 152.849 28.4238 152.961 28.3613C153.068 28.3008 153.161 28.2393 153.239 28.1768C153.317 28.1123 153.379 28.0576 153.424 28.0127H153.468V28.7041C153.372 28.749 153.281 28.792 153.195 28.833C153.111 28.874 153.009 28.9141 152.887 28.9531C152.76 28.9941 152.642 29.0254 152.533 29.0469C152.426 29.0684 152.285 29.0791 152.111 29.0791Z" fill="#5B607D"/>
</g>
</svg>
