<svg width="14" height="14" viewBox="0 0 14 14" fill="none" xmlns="http://www.w3.org/2000/svg">
<path d="M3.99561 11.6136C4.20394 11.6136 4.38102 11.5407 4.52686 11.3949L6.15186 9.7699C6.29769 9.62406 6.37061 9.44698 6.37061 9.23865C6.37061 9.0199 6.28727 8.8324 6.12061 8.67615C6.10498 8.69177 6.0568 8.74125 5.97607 8.82459C5.89535 8.90792 5.83936 8.96391 5.80811 8.99255C5.77686 9.0212 5.72738 9.06026 5.65967 9.10974C5.59196 9.15922 5.52555 9.19308 5.46045 9.2113C5.39535 9.22953 5.32373 9.23865 5.24561 9.23865C5.03727 9.23865 4.86019 9.16573 4.71436 9.0199C4.56852 8.87406 4.49561 8.69698 4.49561 8.48865C4.49561 8.41052 4.50472 8.33891 4.52295 8.2738C4.54118 8.2087 4.57503 8.14229 4.62451 8.07459C4.67399 8.00688 4.71305 7.9574 4.7417 7.92615C4.77035 7.8949 4.82633 7.83891 4.90967 7.75818C4.993 7.67745 5.04248 7.62927 5.05811 7.61365C4.89665 7.44177 4.70654 7.35584 4.48779 7.35584C4.27946 7.35584 4.10238 7.42875 3.95654 7.57459L2.33936 9.18396C2.19873 9.32459 2.12842 9.50167 2.12842 9.71521C2.12842 9.92354 2.19613 10.1006 2.33154 10.2465L3.47217 11.3949C3.618 11.5407 3.79248 11.6136 3.99561 11.6136ZM9.50342 6.12146C9.71175 6.12146 9.88883 6.04854 10.0347 5.90271L11.6519 4.29334C11.7977 4.1475 11.8706 3.97042 11.8706 3.76209C11.8706 3.55896 11.8003 3.38188 11.6597 3.23084L10.519 2.0824C10.3732 1.93656 10.1987 1.86365 9.99561 1.86365C9.78727 1.86365 9.61019 1.93656 9.46436 2.0824L7.83936 3.7074C7.69873 3.84802 7.62842 4.02511 7.62842 4.23865C7.62842 4.4574 7.70915 4.6449 7.87061 4.80115C7.88623 4.78552 7.93441 4.73604 8.01514 4.65271C8.09587 4.56938 8.15186 4.51339 8.18311 4.48474C8.21436 4.4561 8.26383 4.41703 8.33154 4.36755C8.39925 4.31807 8.46566 4.28422 8.53076 4.26599C8.59587 4.24776 8.66748 4.23865 8.74561 4.23865C8.95394 4.23865 9.13102 4.31156 9.27686 4.4574C9.42269 4.60323 9.49561 4.78031 9.49561 4.98865C9.49561 5.06677 9.48649 5.13839 9.46826 5.20349C9.45003 5.2686 9.41618 5.335 9.3667 5.40271C9.31722 5.47042 9.27816 5.5199 9.24951 5.55115C9.22087 5.5824 9.16488 5.63839 9.08154 5.71912C8.99821 5.79985 8.94873 5.84802 8.93311 5.86365C9.09456 6.03552 9.28467 6.12146 9.50342 6.12146ZM3.99561 13.1136C3.37061 13.1136 2.84196 12.8923 2.40967 12.4496L1.26904 11.3011C0.836752 10.8689 0.620606 10.3402 0.620606 9.71521C0.620606 9.085 0.84196 8.55375 1.28467 8.12146L2.90186 6.51209C3.33415 6.07979 3.86279 5.86365 4.48779 5.86365C5.12842 5.86365 5.67269 6.09281 6.12061 6.55115L6.80811 5.86365C6.34977 5.41573 6.12061 4.87406 6.12061 4.23865C6.12061 3.61365 6.33936 3.0824 6.77686 2.6449L8.40186 1.0199C8.83936 0.582397 9.37061 0.363647 9.99561 0.363647C10.6206 0.363647 11.1493 0.585002 11.5815 1.02771L12.7222 2.17615C13.1545 2.60844 13.3706 3.13709 13.3706 3.76209C13.3706 4.39229 13.1493 4.92354 12.7065 5.35584L11.0894 6.96521C10.6571 7.3975 10.1284 7.61365 9.50342 7.61365C8.86279 7.61365 8.31852 7.38448 7.87061 6.92615L7.18311 7.61365C7.64144 8.06156 7.87061 8.60323 7.87061 9.23865C7.87061 9.86365 7.65186 10.3949 7.21436 10.8324L5.58936 12.4574C5.15186 12.8949 4.62061 13.1136 3.99561 13.1136Z" fill="#8C99B2"/>
</svg>
