<svg xmlns="http://www.w3.org/2000/svg" width="17.43" height="11.86" viewBox="0 0 17.43 11.86"><title>4</title><path d="M16.44,4.88H16a1,1,0,0,0-1,1v.06H11.22a3.86,3.86,0,0,0-.93-.67v-1h.14a1,1,0,0,0,1-1V2.87a1,1,0,0,0-.34-.74L13.15.87l0,0,.07-.07,0-.07a.3.3,0,0,0,0-.08.29.29,0,0,0,0-.09s0,0,0-.06h0s0,0,0,0a.2.2,0,0,0,0-.07.31.31,0,0,0,0-.12h0A.43.43,0,0,0,13.18.1h0A.48.48,0,0,0,12.9,0H4.5L4.39,0h0L4.24.09l0,0L4.12.2l0,0a0,0,0,0,0,0,0,.36.36,0,0,0,0,.09S4,.41,4,.44s0,0,0,0,0,0,0,.06a.29.29,0,0,0,0,.09L4.1.7a.25.25,0,0,0,0,.07l.07.07,0,0L6.31,2.13A1,1,0,0,0,6,2.87v.44a1,1,0,0,0,1,1h.14v1a3.64,3.64,0,0,0-.89.65H2.43V5.87a1,1,0,0,0-1-1H1a1,1,0,0,0-1,1v5a1,1,0,0,0,1,1h.45a1,1,0,0,0,1-1v-.06H6.22a3.48,3.48,0,0,0,5,0H15v.06a1,1,0,0,0,1,1h.45a1,1,0,0,0,1-1v-5A1,1,0,0,0,16.44,4.88ZM1.5,6.39v4.48H.93V5.81h.51a.06.06,0,0,1,.06.06ZM6.14.94h5.12l-1.52.93H7.66ZM7,3.37V2.8h3.46a.08.08,0,0,1,.07.07v.5H7Zm2.4.93v.58H8V4.3ZM5.58,9.88H2.43v-3H5.58a3.43,3.43,0,0,0,0,3Zm3.14,1a2.56,2.56,0,1,1,2.56-2.56A2.56,2.56,0,0,1,8.72,10.93Zm6.28-1H11.85a3.35,3.35,0,0,0,0-3H15Zm1.5,1h-.57v-5A.06.06,0,0,1,16,5.81h.51Z" style="fill:#8c99b2"/></svg>