<svg xmlns="http://www.w3.org/2000/svg" width="16.75" height="11.24" viewBox="0 0 16.75 11.24"><title>5</title><path d="M12,9.38a.53.53,0,1,1,0,1.06.53.53,0,0,1,0-1.06Zm4.72-5A3.5,3.5,0,0,0,15,1.61a3.42,3.42,0,0,0-1.22-.43c-.11,0-1.66,0-1.77-.05,0-.22,0-.58,0-.78a.47.47,0,0,0-.14-.26A.64.64,0,0,0,11.58,0H9.69A.45.45,0,0,0,9.2.49v.64H3.49a3.5,3.5,0,0,0-1.69.42,2.26,2.26,0,0,0-.26.16,3.13,3.13,0,0,0-.87.83A3.43,3.43,0,0,0,0,4.42,3.32,3.32,0,0,0,.48,6.34a3.08,3.08,0,0,0,.46.6,2.13,2.13,0,0,0,.26.26c.07.06.26.19.3.24h-1a.46.46,0,0,0-.38.12A.41.41,0,0,0,0,7.91V9.77a.4.4,0,0,0,.42.42H2.06c0,.08,0,.15.08.22a1.32,1.32,0,0,0,2.09.5,1.24,1.24,0,0,0,.37-.51c0-.1,0-.21.12-.21h6c.09,0,.09.1.12.18a.67.67,0,0,0,.09.21,1.32,1.32,0,0,0,2.26,0,1.18,1.18,0,0,0,.11-.19,1.69,1.69,0,0,1,.08-.24h3a.4.4,0,0,0,.34-.42V7.91c0-.32-.18-.46-.49-.47s-.66,0-1,0a1.72,1.72,0,0,1,.28-.23,3.57,3.57,0,0,0,.28-.27,3.33,3.33,0,0,0,.46-.59,3.56,3.56,0,0,0,.48-1.53V4.37Zm-13.41,5a.53.53,0,1,1,0,1.06A.52.52,0,0,1,3,9.56a.47.47,0,0,1,.36-.18ZM15.13,8.25h.78V9.41h-.78V8.25Zm-13,1.16c.12,0,.08-.25.45-.53a1.25,1.25,0,0,1,1-.28,1.28,1.28,0,0,1,.94.53c.12.17.13.28.21.28h6.14c.08,0,.09-.11.21-.28a1.14,1.14,0,0,1,.24-.25,1.25,1.25,0,0,1,.95-.28,1.28,1.28,0,0,1,.94.53c.23.32.23.28,1.22.28V8.25H.83V9.41ZM3.73,4.22h1v.59h-1V4.22Zm9.26,3c-.9,0-9.34,0-9.93,0a2.52,2.52,0,0,1-1.41-.67A2.66,2.66,0,0,1,.79,4.62,2.74,2.74,0,0,1,1.2,3.16l.28-.35a2.54,2.54,0,0,1,1.66-.87V5.18c0,.52-.09.84.37.84a.32.32,0,0,0,.22-.22V5.43h1a.94.94,0,0,0,.07.48c.1.14.55.26.55-.33V1.94l4.78,0c.14,0,.22,0,.39,0,1.21,0,3.91-.24,4.86,1a2.64,2.64,0,0,1-1.18,4.08,2.26,2.26,0,0,1-.57.15,4.83,4.83,0,0,1-.67,0ZM3.73,3h1v.59h-1V3Zm0-1c0-.06,0-.07.08-.07h.95v.49h-1V2ZM10,.81h1.25v.32H10Z" style="fill:#8c99b2;fill-rule:evenodd"/></svg>