<svg width="17" height="16" viewBox="0 0 17 16" fill="none" xmlns="http://www.w3.org/2000/svg">
<path fill-rule="evenodd" clip-rule="evenodd" d="M4.11778 4.57574C4.36478 4.57574 4.61178 4.52777 4.85078 4.43774C5.35578 5.20776 6.22778 5.70975 7.18378 5.70975C8.13878 5.70975 9.00178 5.22577 9.51078 4.44876C9.70078 4.53876 9.90278 4.60275 10.1138 4.63675C10.4498 5.46774 11.2628 6.05676 12.2128 6.05676C13.4628 6.05676 14.4798 5.03976 14.4798 3.78976C14.4798 2.66376 13.6528 1.73376 12.5758 1.55875C12.2338 0.712769 11.4048 0.134766 10.4788 0.134766C9.89478 0.134766 9.34378 0.359741 8.92778 0.750763C8.43778 0.355743 7.82578 0.134766 7.18378 0.134766C6.51578 0.134766 5.87978 0.37677 5.37878 0.803741L5.21578 0.693756C4.54178 0.278748 3.70278 0.275757 3.02578 0.687744C2.03678 1.28775 1.72178 2.57974 2.32278 3.56876C2.71678 4.21677 3.40878 4.57574 4.11778 4.57574ZM3.11378 2.23474C3.17878 1.96774 3.34378 1.74176 3.57978 1.59875C3.91178 1.39676 4.32378 1.39777 4.63878 1.59177L5.03778 1.85876C5.10678 1.90475 5.18378 1.92776 5.26078 1.93875C5.46978 2.02975 5.71978 1.98676 5.87578 1.80374C6.20378 1.42075 6.68078 1.20175 7.18378 1.20175C7.69578 1.20175 8.17778 1.42676 8.50678 1.82077C8.61178 1.94675 8.76378 2.01276 8.91578 2.01276C8.99078 2.01276 9.06278 1.99176 9.13278 1.95975C9.26978 1.93576 9.39678 1.85876 9.48078 1.73376C9.70478 1.40076 10.0778 1.20175 10.4788 1.20175C11.0078 1.20175 11.4818 1.55475 11.6308 2.06177C11.6488 2.12375 11.6788 2.17874 11.7148 2.22775C11.7868 2.43677 11.9798 2.58875 12.2128 2.58875C12.8748 2.58875 13.4138 3.12677 13.4138 3.78976C13.4138 4.45175 12.8748 4.98975 12.2128 4.98975C11.5508 4.98975 11.0118 4.45175 11.0118 3.78976C11.0118 3.49475 10.7738 3.25577 10.4788 3.25577C10.2908 3.25577 10.1328 3.35974 10.0378 3.50674C9.75878 3.39474 9.51978 3.18875 9.38878 2.90677C9.26478 2.63977 8.94778 2.52374 8.68078 2.64777C8.41378 2.77176 8.29778 3.08875 8.42178 3.35574C8.49078 3.50577 8.58078 3.64276 8.67878 3.77075C8.37578 4.30576 7.81078 4.64276 7.18378 4.64276C6.38478 4.64276 5.67878 4.07877 5.50478 3.30075C5.44078 3.01276 5.15678 2.83176 4.86778 2.89676C4.60878 2.95474 4.44678 3.19275 4.46178 3.44876C4.01078 3.61075 3.49178 3.43875 3.23378 3.01477C3.09078 2.77875 3.04778 2.50275 3.11378 2.23474Z" fill="#5B607D"/>
<path fill-rule="evenodd" clip-rule="evenodd" d="M16.3349 14.321H15.7939V13.4639C15.7939 13.4059 15.7849 13.3489 15.7659 13.2939L14.2719 8.85992V7.55695C14.2719 7.26294 14.0329 7.02393 13.7389 7.02393H10.6949C10.3999 7.02393 10.1609 7.26294 10.1609 7.55695V8.85992L8.9239 12.5309C8.8689 12.614 8.8289 12.709 8.8279 12.8159L8.6669 13.2939C8.6489 13.3489 8.6399 13.4059 8.6399 13.4639V14.321H5.8609V13.868L7.0079 10.4639C7.0269 10.4089 7.0359 10.351 7.0359 10.2929V9.75394H8.8529C9.1469 9.75394 9.3859 9.51495 9.3859 9.22095C9.3859 8.92593 9.1469 8.68695 8.8529 8.68695H6.5029C6.2079 8.68695 5.9689 8.92593 5.9689 9.22095V10.2059L4.8219 13.6099C4.8039 13.6649 4.7939 13.7229 4.7939 13.7809V14.321H3.0839V14.2L3.8679 11.8739C3.8859 11.8189 3.8959 11.7609 3.8959 11.7039V11.4959H4.5159C4.8099 11.4959 5.0489 11.2569 5.0489 10.9619C5.0489 10.6679 4.8099 10.4289 4.5159 10.4289H3.3619C3.0679 10.4289 2.8289 10.6679 2.8289 10.9619V11.6159L2.0449 13.9419C2.0269 13.9969 2.0169 14.0549 2.0169 14.1119V14.321H1.4019C1.1079 14.321 0.868896 14.5589 0.868896 14.8539C0.868896 15.1479 1.1079 15.3869 1.4019 15.3869H2.5509H5.3279H5.7979H9.1729H10.0279H15.2609H16.3349C16.6299 15.3869 16.8689 15.1479 16.8689 14.8539C16.8689 14.5589 16.6299 14.321 16.3349 14.321ZM14.7269 14.321H10.0279H9.7059V13.5519L9.7729 13.3529H11.7799C12.0749 13.3529 12.3139 13.1149 12.3139 12.8199C12.3139 12.5249 12.0749 12.2869 11.7799 12.2869H10.1319L10.8609 10.1239H11.7799C12.0749 10.1239 12.3139 9.88495 12.3139 9.59094C12.3139 9.29593 12.0749 9.05695 11.7799 9.05695H11.2099C11.2179 9.02094 11.2279 8.98492 11.2279 8.94693V8.09094H13.2049V8.94693C13.2049 9.00494 13.2149 9.06195 13.2329 9.11694L14.7269 13.5519V14.321Z" fill="#5B607D"/>
</svg>
