<svg width="12" height="16" viewBox="0 0 12 16" fill="none" xmlns="http://www.w3.org/2000/svg">
<path d="M7.51492 2.98462C6.55392 1.85559 5.74692 1.18652 5.74692 1.18652C5.74692 1.18652 1.19394 4.95557 0.853912 9.70752C0.832916 9.88953 0.820923 10.0736 0.820923 10.2606C0.820923 12.9816 3.02594 15.1865 5.74692 15.1865C8.46692 15.1865 10.6729 12.9816 10.6729 10.2606C10.6729 10.0736 10.6599 9.88953 10.6399 9.70752C10.6129 9.34253 10.5619 8.98352 10.4909 8.63159" stroke="#5B607D" stroke-linecap="round" stroke-linejoin="round"/>
<path d="M2.85693 10.4946C2.85693 11.8737 3.97394 12.9907 5.35294 12.9907" stroke="#5B607D" stroke-linecap="round" stroke-linejoin="round"/>
<path d="M5.77295 5.3844L7.36197 6.97339C7.58997 7.20239 7.95996 7.20239 8.18896 6.97339L11.494 3.66748" stroke="#5B607D" stroke-linecap="round" stroke-linejoin="round"/>
</svg>
