<svg width="15" height="15" viewBox="0 0 15 15" fill="none" xmlns="http://www.w3.org/2000/svg">
<path d="M10.9589 10.9218H8.46193C8.20393 10.9218 7.99493 10.7128 7.99493 10.4558C7.99493 10.1978 8.20393 9.98877 8.46193 9.98877H10.9589C11.2169 9.98877 11.4259 10.1978 11.4259 10.4558C11.4259 10.7128 11.2169 10.9218 10.9589 10.9218Z" fill="#5B607D"/>
<path d="M13.4229 8.16394H5.43392C5.17592 8.16394 4.96692 7.95496 4.96692 7.69788C4.96692 7.43994 5.17592 7.23096 5.43392 7.23096H13.4229C13.6809 7.23096 13.8899 7.43994 13.8899 7.69788C13.8899 7.95496 13.6809 8.16394 13.4229 8.16394Z" fill="#5B607D"/>
<path d="M10.4589 5.40564H5.4659C5.2079 5.40564 4.9989 5.19666 4.9989 4.9397C4.9989 4.68164 5.2079 4.47266 5.4659 4.47266H10.4589C10.7169 4.47266 10.9259 4.68164 10.9259 4.9397C10.9259 5.19666 10.7169 5.40564 10.4589 5.40564Z" fill="#5B607D"/>
<path d="M13.4229 2.64783H10.9269C10.6689 2.64783 10.4599 2.43884 10.4599 2.18079C10.4599 1.92383 10.6689 1.71484 10.9269 1.71484H13.4229C13.6809 1.71484 13.8899 1.92383 13.8899 2.18079C13.8899 2.43884 13.6809 2.64783 13.4229 2.64783Z" fill="#5B607D"/>
<path d="M13.7069 14.8628H0.640888C0.382889 14.8628 0.173889 14.6538 0.173889 14.3958V1.32886C0.173889 1.07178 0.382889 0.862793 0.640888 0.862793C0.898888 0.862793 1.10689 1.07178 1.10689 1.32886V13.9288H13.7069C13.9649 13.9288 14.1739 14.1378 14.1739 14.3958C14.1739 14.6538 13.9649 14.8628 13.7069 14.8628Z" fill="#5B607D"/>
<path d="M2.06088 8.0448H0.924885C0.666885 8.0448 0.457886 7.83582 0.457886 7.57886C0.457886 7.3208 0.666885 7.11182 0.924885 7.11182H2.06088C2.31889 7.11182 2.52789 7.3208 2.52789 7.57886C2.52789 7.83582 2.31889 8.0448 2.06088 8.0448Z" fill="#5B607D"/>
<path d="M2.06088 4.35291H0.924885C0.666885 4.35291 0.457886 4.14392 0.457886 3.88599C0.457886 3.62793 0.666885 3.41895 0.924885 3.41895H2.06088C2.31889 3.41895 2.52789 3.62793 2.52789 3.88599C2.52789 4.14392 2.31889 4.35291 2.06088 4.35291Z" fill="#5B607D"/>
<path d="M2.06088 11.7377H0.924885C0.666885 11.7377 0.457886 11.5287 0.457886 11.2706C0.457886 11.0137 0.666885 10.8047 0.924885 10.8047H2.06088C2.31889 10.8047 2.52789 11.0137 2.52789 11.2706C2.52789 11.5287 2.31889 11.7377 2.06088 11.7377Z" fill="#5B607D"/>
</svg>
