<svg width="21" height="16" viewBox="0 0 21 16" fill="none" xmlns="http://www.w3.org/2000/svg">
<path d="M6.44789 15.755H1.16814C0.799604 15.755 0.5 15.4566 0.5 15.0869C0.5 14.7185 0.799604 14.4189 1.16814 14.4189H6.44789C6.81765 14.4189 7.11725 14.7185 7.11725 15.0869C7.11725 15.4566 6.81765 15.755 6.44789 15.755Z" fill="#4B5169"/>
<path d="M9.80852 11.1165H1.16814C0.799604 11.1165 0.5 10.8169 0.5 10.4481C0.5 10.0784 0.799604 9.77884 1.16814 9.77884H9.80852C10.177 9.77884 10.4766 10.0784 10.4766 10.4481C10.4766 10.8169 10.177 11.1165 9.80852 11.1165Z" fill="#4B5169"/>
<path d="M15.0882 6.47596H1.16814C0.799604 6.47596 0.5 6.17636 0.5 5.80668C0.5 5.43821 0.799604 5.13861 1.16814 5.13861H15.0882C15.4568 5.13861 15.7564 5.43821 15.7564 5.80668C15.7564 6.17636 15.4568 6.47596 15.0882 6.47596Z" fill="#4B5169"/>
<path d="M19.8879 1.83613H1.16814C0.799604 1.83613 0.5 1.53652 0.5 1.16806C0.5 0.798074 0.799604 0.5 1.16814 0.5H19.8879C20.2577 0.5 20.556 0.798074 20.556 1.16806C20.556 1.53652 20.2577 1.83613 19.8879 1.83613Z" fill="#4B5169"/>
</svg>
