<svg width="15" height="17" viewBox="0 0 15 17" fill="none" xmlns="http://www.w3.org/2000/svg">
<path fill-rule="evenodd" clip-rule="evenodd" d="M11.1291 14.2815C10.9871 14.2815 10.8512 14.2255 10.7511 14.1255L8.65013 12.0235C7.28313 10.6565 7.28313 8.43353 8.65013 7.06551C10.0161 5.69952 12.2401 5.69952 13.6071 7.06551C14.2701 7.72851 14.6341 8.60851 14.6341 9.54452C14.6341 10.4815 14.2701 11.3615 13.6071 12.0235L11.5061 14.1255C11.4061 14.2255 11.2701 14.2815 11.1291 14.2815ZM11.1291 7.10751C10.5041 7.10751 9.87914 7.34451 9.40413 7.82052C8.45314 8.77151 8.45314 10.3185 9.40413 11.2695L11.1291 12.9935L12.8531 11.2695C13.3141 10.8085 13.5671 10.1965 13.5671 9.54452C13.5671 8.89352 13.3141 8.28051 12.8531 7.82052C12.3781 7.34451 11.7531 7.10751 11.1291 7.10751Z" fill="#5B607D"/>
<path fill-rule="evenodd" clip-rule="evenodd" d="M11.1288 11.0148C10.7519 11.0148 10.3748 10.8718 10.0879 10.5847C9.80984 10.3068 9.65686 9.93676 9.65686 9.54375C9.65686 9.15075 9.80984 8.78176 10.0879 8.50375C10.6618 7.92974 11.5959 7.92974 12.1689 8.50375C12.7429 9.07674 12.7429 10.0107 12.1689 10.5847C11.8818 10.8718 11.5049 11.0148 11.1288 11.0148ZM11.7918 10.2078H11.7968H11.7918ZM11.1288 9.13976C11.0198 9.13976 10.9189 9.18176 10.8419 9.25774C10.7658 9.33474 10.7238 9.43575 10.7238 9.54375C10.7238 9.65176 10.7658 9.75375 10.8419 9.83074C10.9998 9.98775 11.2568 9.98775 11.4149 9.83074C11.5718 9.67175 11.5718 9.41573 11.4149 9.25774C11.3379 9.18176 11.2368 9.13976 11.1288 9.13976Z" fill="#5B607D"/>
<path fill-rule="evenodd" clip-rule="evenodd" d="M5.08984 8.2422C4.94885 8.2422 4.81284 8.1862 4.71286 8.0862L2.61084 5.98421C1.94885 5.32219 1.58386 4.44218 1.58386 3.50621C1.58386 2.5692 1.94885 1.68919 2.61084 1.02721C3.97784 -0.339798 6.20184 -0.339798 7.56885 1.02721C8.23083 1.68919 8.59586 2.5692 8.59586 3.50621C8.59586 4.44218 8.23083 5.32219 7.56885 5.98421L5.46686 8.0862C5.36685 8.1862 5.23083 8.2422 5.08984 8.2422ZM5.08984 1.06819C4.46484 1.06819 3.84085 1.3062 3.36584 1.7812C2.90485 2.2422 2.65085 2.8542 2.65085 3.50621C2.65085 4.15721 2.90485 4.76921 3.36584 5.23021L5.08984 6.95518L6.81384 5.23021C7.27484 4.76921 7.52884 4.15721 7.52884 3.50621C7.52884 2.8542 7.27484 2.2422 6.81384 1.7812C6.33884 1.3062 5.71484 1.06819 5.08984 1.06819Z" fill="#5B607D"/>
<path fill-rule="evenodd" clip-rule="evenodd" d="M5.09036 4.9757C4.71338 4.9757 4.33737 4.8327 4.05035 4.54568C3.47638 3.97167 3.47638 3.03869 4.05035 2.46468C4.62335 1.89068 5.55737 1.89068 6.13037 2.46468C6.70438 3.03869 6.70438 3.97167 6.13138 4.54568H6.13037C5.84335 4.8327 5.46738 4.9757 5.09036 4.9757ZM5.75336 4.16869H5.75937H5.75336ZM5.09036 3.1007C4.98236 3.1007 4.88037 3.14269 4.80435 3.21969C4.72736 3.29568 4.68536 3.3977 4.68536 3.5057C4.68536 3.6137 4.72736 3.71468 4.80435 3.79168C4.96237 3.94869 5.21835 3.94869 5.37637 3.79168C5.53436 3.63369 5.53436 3.3767 5.37637 3.21969C5.30035 3.14269 5.19836 3.1007 5.09036 3.1007Z" fill="#5B607D"/>
<path d="M10.7542 16.0022H7.34116C7.20316 16.0022 7.07117 15.9492 6.97214 15.8542L0.933169 10.0782C0.776156 9.92719 0.726169 9.6962 0.807162 9.49417C0.888156 9.29117 1.08417 9.15918 1.30216 9.15918H4.71515C5.01017 9.15918 5.24915 9.39819 5.24915 9.69217C5.24915 9.98718 5.01017 10.2262 4.71515 10.2262H2.63117L7.55515 14.9352H10.7542C11.0482 14.9352 11.2871 15.1742 11.2871 15.4682C11.2871 15.7632 11.0482 16.0022 10.7542 16.0022Z" fill="#5B607D"/>
</svg>
