<svg width="17" height="14" viewBox="0 0 17 14" fill="none" xmlns="http://www.w3.org/2000/svg">
<path fill-rule="evenodd" clip-rule="evenodd" d="M5.00902 5.4802C5.00902 4.88919 5.00902 4.2852 5.00902 3.68019C5.00902 3.60019 5.02102 3.51819 5.00701 3.4402C4.93801 3.0502 5.12704 2.82519 5.45101 2.64119C6.22802 2.19819 7.06103 1.90919 7.93801 1.78019C8.71703 1.6642 9.50802 1.62419 10.294 1.5512C10.354 1.54619 10.415 1.5502 10.495 1.5502C10.495 1.3442 10.493 1.15419 10.496 0.965191C10.499 0.731197 10.645 0.574192 10.851 0.576191C11.058 0.577198 11.198 0.733196 11.201 0.970196C11.204 1.16619 11.202 1.36119 11.202 1.54719L13.271 1.75319C13.271 1.5932 13.27 1.4242 13.271 1.25419C13.274 1.00519 13.416 0.842197 13.625 0.844196C13.833 0.845196 13.976 1.0112 13.978 1.2582C13.98 1.4802 13.979 1.7022 13.979 1.93219C14.241 2.0262 14.513 2.0942 14.756 2.2192C15.099 2.39519 15.425 2.6062 15.748 2.8182C15.902 2.91819 15.944 3.08419 15.944 3.2722C15.94 6.47219 15.941 9.67219 15.941 12.8732V13.0722C16.01 13.0762 16.069 13.0812 16.128 13.0822C16.388 13.0872 16.562 13.2292 16.565 13.4372C16.567 13.6482 16.396 13.7912 16.133 13.7912C14.762 13.7922 13.39 13.7932 12.019 13.7932C8.36202 13.7932 4.70403 13.7922 1.04702 13.7922C0.979026 13.7922 0.909019 13.7952 0.844016 13.7812C0.689017 13.7462 0.59603 13.6392 0.571036 13.4882C0.545035 13.3352 0.602012 13.1922 0.746024 13.1342C0.874015 13.0822 0.882011 13.0032 0.882011 12.8922C0.881034 10.9152 0.884025 8.9382 0.877036 6.96119C0.876029 6.7192 0.946036 6.55919 1.15703 6.4282C1.82503 6.0132 2.55901 5.7872 3.32503 5.66919C3.87301 5.58419 4.42803 5.54319 5.00902 5.4802ZM10.486 2.24119C9.75503 2.30919 9.04601 2.35119 8.34502 2.44819C7.49801 2.5642 6.68304 2.80519 5.92403 3.21519C5.77303 3.29619 5.71102 3.39019 5.71102 3.57219C5.71801 6.6782 5.71603 9.78419 5.71603 12.8902C5.71603 12.9562 5.71603 13.0232 5.71603 13.0952H10.486V2.24119ZM15.246 13.0992C15.246 13.0292 15.246 12.9682 15.246 12.9082C15.246 12.1362 15.246 11.3642 15.246 10.5922C15.246 8.20819 15.247 5.82319 15.243 3.4392C15.243 3.3582 15.214 3.2442 15.157 3.20019C14.81 2.9382 14.41 2.7852 13.991 2.66819V3.09019C14.057 3.0942 14.111 3.0952 14.166 3.10019C14.35 3.11819 14.491 3.2622 14.498 3.4382C14.504 3.6082 14.368 3.7712 14.189 3.8012C14.135 3.81019 14.078 3.80619 14.023 3.80619C13.152 3.80719 12.281 3.80619 11.41 3.80619C11.345 3.80619 11.28 3.80619 11.214 3.80619V5.5662H13.271C13.271 5.24019 13.267 4.9262 13.272 4.61219C13.276 4.36519 13.478 4.2032 13.704 4.25519C13.865 4.29219 13.975 4.43519 13.977 4.62619C13.981 4.9392 13.978 5.25219 13.978 5.57019C14.063 5.57619 14.124 5.5772 14.184 5.58419C14.336 5.60219 14.456 5.6902 14.472 5.8312C14.484 5.94419 14.447 6.0932 14.375 6.1762C14.311 6.25019 14.168 6.28319 14.06 6.28419C13.176 6.29319 12.293 6.2892 11.41 6.2902C11.345 6.2902 11.279 6.2902 11.215 6.2902V8.04819H13.271C13.271 7.7632 13.268 7.49219 13.272 7.2212C13.276 7.00419 13.431 6.84719 13.627 6.85019C13.814 6.85219 13.968 7.0072 13.977 7.21119C13.983 7.34719 13.978 7.4832 13.978 7.6192C13.979 7.76419 13.979 7.90919 13.979 8.0542C14.06 8.05819 14.11 8.05919 14.159 8.0632C14.346 8.0822 14.488 8.2212 14.498 8.39519C14.508 8.5642 14.376 8.72819 14.196 8.7632C14.142 8.7742 14.085 8.7712 14.03 8.7712C13.159 8.7722 12.288 8.7712 11.417 8.7712C11.351 8.7712 11.285 8.7712 11.213 8.7712V10.5312H13.271C13.271 10.2912 13.269 10.0642 13.272 9.83719C13.273 9.77019 13.276 9.69919 13.299 9.6382C13.355 9.48819 13.523 9.39319 13.668 9.41719C13.841 9.44519 13.973 9.5942 13.977 9.78119C13.982 10.0312 13.978 10.2812 13.978 10.5342C14.069 10.5402 14.13 10.5402 14.191 10.5502C14.365 10.5772 14.47 10.6862 14.493 10.8542C14.517 11.0282 14.427 11.1552 14.27 11.2192C14.198 11.2482 14.113 11.2522 14.034 11.2522C13.175 11.2542 12.317 11.2532 11.458 11.2532C11.38 11.2532 11.301 11.2532 11.214 11.2532V13.0972H13.271C13.271 12.7392 13.269 12.3952 13.272 12.0502C13.274 11.8282 13.419 11.6722 13.616 11.6692C13.818 11.6652 13.972 11.8272 13.978 12.0552C13.981 12.1912 13.979 12.3272 13.979 12.4632C13.979 12.6762 13.979 12.8882 13.979 13.0992H15.246ZM4.99401 13.1002V8.6792C4.66302 8.70019 4.34902 8.70919 4.03603 8.74219C3.24703 8.82319 2.48101 8.9972 1.76702 9.36319C1.64901 9.4242 1.60104 9.4952 1.60201 9.6342C1.60802 10.7262 1.60601 11.8192 1.60601 12.9112C1.60601 12.9712 1.61202 13.0312 1.61602 13.1002H4.99401ZM1.60702 8.65919C2.70101 8.15619 3.84603 8.02919 4.99401 7.99019V6.2192C4.48601 6.27019 3.99303 6.3022 3.50701 6.3742C2.89501 6.4662 2.30401 6.6382 1.75603 6.93419C1.69701 6.9662 1.61404 7.02919 1.61303 7.0792C1.60302 7.5952 1.60702 8.11119 1.60702 8.65919ZM13.271 3.13019C13.271 2.9672 13.265 2.82519 13.273 2.68419C13.279 2.57119 13.248 2.51719 13.125 2.50619C12.923 2.48619 12.723 2.4382 12.521 2.41719C12.088 2.3722 11.654 2.33619 11.217 2.29519V3.13019H13.271Z" fill="#60647F"/>
</svg>
