<svg width="28" height="36" viewBox="0 0 28 36" xmlns="http://www.w3.org/2000/svg">
    <path d="M14 0C6.42274 0 0 5.22656 0 12C0 16.1484 1.94444 18.5391 3.54861 20.2031C5.15278 21.8672 6.22222 22.7051 6.22222 25.0312C6.22222 25.4883 6.4349 25.916 6.80556 26.2031C6.82379 26.2031 6.83594 26.2031 6.85417 26.2031C6.86632 26.2324 6.88455 26.2676 6.90278 26.2969C6.93316 26.3145 6.96962 26.332 7 26.3438C7.01823 26.3613 7.03038 26.373 7.04861 26.3906C7.29774 26.5781 7.61372 26.6602 7.92361 26.625L20.3681 25.125C20.52 25.1074 20.6719 25.0605 20.8056 24.9844C21.4132 24.7441 21.8021 24.1641 21.7778 23.5312C21.7778 22.7402 21.9783 22.3652 22.4097 21.8438C22.8411 21.3223 23.5764 20.7539 24.4028 20.0156C26.0616 18.5391 28 16.1484 28 12C28 5.22656 21.5773 0 14 0ZM14 3C20.1128 3 24.8889 7.07227 24.8889 12C24.8889 15.3516 23.7161 16.5176 22.2639 17.8125C21.5347 18.4629 20.7144 19.0781 19.9792 19.9688C19.329 20.7598 18.8247 21.8203 18.7153 23.0625L15.2153 23.4375C15.3915 22.5996 15.5556 21.3926 15.5556 19.5C15.5556 13.7988 11.6849 14.0918 13.7083 8.39062C13.2405 12.8906 16.625 13.7988 16.625 18.75C16.625 18.75 20.0764 17.9824 20.0764 13.7812C20.2344 10.4824 14.7899 7.95117 14.6319 5.25C9.96528 7.79883 7.77778 10.8164 7.77778 14.7188C7.77778 21.6211 14 18.2988 14 20.25C14 21.9551 13.6597 23.0449 13.2708 23.7188L9.28472 24.1875C8.9809 21.3281 7.15799 19.6113 5.78472 18.1875C4.27778 16.623 3.11111 15.3516 3.11111 12C3.11111 7.07227 7.88715 3 14 3ZM20.0764 26.0156L7.63194 27.5156C6.98785 27.5918 6.53212 28.1602 6.61111 28.7812C6.6901 29.4023 7.27951 29.8418 7.92361 29.7656L20.3681 28.2656C21.0122 28.1895 21.4679 27.6211 21.3889 27C21.3099 26.3789 20.7205 25.9395 20.0764 26.0156ZM20.1736 29.1562C20.1432 29.168 20.1068 29.1855 20.0764 29.2031L7.63194 30.7031C7.17014 30.6855 6.74479 30.9375 6.54427 31.3359C6.33767 31.7402 6.40452 32.2148 6.70226 32.5547C7 32.8945 7.48004 33.0352 7.92361 32.9062L20.3681 31.4062C21.0122 31.3535 21.4922 30.8086 21.4375 30.1875C21.3828 29.5664 20.8177 29.1035 20.1736 29.1562ZM17.1111 33L11.0347 33.8906C11.1927 35.0918 12.7543 36 14 36C15.7135 36 17.1111 34.6523 17.1111 33Z"
    />
</svg>
