<svg width="20" height="20" viewBox="0 0 20 20" fill="none" xmlns="http://www.w3.org/2000/svg">
<path d="M3.84615 0C1.73427 0 0 1.73427 0 3.84615V13.0769C0 15.1888 1.73427 16.9231 3.84615 16.9231H13.0769C15.1888 16.9231 16.9231 15.1888 16.9231 13.0769V3.84615C16.9231 1.73427 15.1888 0 13.0769 0H3.84615ZM3.84615 1.53846H13.0769C14.3497 1.53846 15.3846 2.57343 15.3846 3.84615V13.0769C15.3846 14.3497 14.3497 15.3846 13.0769 15.3846H3.84615C2.57343 15.3846 1.53846 14.3497 1.53846 13.0769V3.84615C1.53846 2.57343 2.57343 1.53846 3.84615 1.53846ZM18.4615 3.86569V16.1538C18.4615 17.4262 17.4262 18.4615 16.1538 18.4615H3.86569C4.56799 19.39 5.67154 20 6.92308 20H16.1538C18.2746 20 20 18.2746 20 16.1538V6.92308C20 5.67154 19.39 4.56799 18.4615 3.86569Z" fill="currentColor"/>
</svg>
