<svg width="20" height="20" viewBox="0 0 20 20" fill="none" xmlns="http://www.w3.org/2000/svg">
<path d="M3.84615 0C1.73427 0 0 1.73427 0 3.84615V13.0769C0 15.1888 1.73427 16.9231 3.84615 16.9231H13.0769C15.1888 16.9231 16.9231 15.1888 16.9231 13.0769V3.84615C16.9231 1.73427 15.1888 0 13.0769 0H3.84615ZM3.84615 1.53846H13.0769C14.3497 1.53846 15.3846 2.57343 15.3846 3.84615V13.0769C15.3846 14.3497 14.3497 15.3846 13.0769 15.3846H3.84615C2.57343 15.3846 1.53846 14.3497 1.53846 13.0769V3.84615C1.53846 2.57343 2.57343 1.53846 3.84615 1.53846ZM18.4615 3.86569V16.1538C18.4615 17.4262 17.4262 18.4615 16.1538 18.4615H3.86569C4.56799 19.39 5.67154 20 6.92308 20H16.1538C18.2746 20 20 18.2746 20 16.1538V6.92308C20 5.67154 19.39 4.56799 18.4615 3.86569ZM11.6722 4.61989C11.5753 4.63758 11.4862 4.69334 11.4258 4.78065L7.7479 10.2359L6.08624 8.57422C5.93624 8.42422 5.69237 8.42422 5.54237 8.57422L4.72807 9.39002C4.57806 9.54002 4.57806 9.78389 4.72807 9.93389L7.20403 12.4114C7.38557 12.5921 7.63077 12.6923 7.88462 12.6923C7.91308 12.6923 7.94179 12.6909 7.97025 12.6878C8.2541 12.6616 8.51334 12.5123 8.67488 12.2776L13.0078 5.8729C13.1286 5.69828 13.0848 5.45881 12.9102 5.33804L11.9606 4.68299C11.8729 4.62261 11.769 4.6022 11.6722 4.61989Z" fill="#0089FF"/>
</svg>
