<svg xmlns="http://www.w3.org/2000/svg" xmlns:xlink="http://www.w3.org/1999/xlink" viewBox="0 0 1880.9 670.4"><defs><style>.cls-1,.cls-4{fill:#1b1f2c;stroke:#5b607d;opacity:0.5;}.cls-1,.cls-4,.cls-6{stroke-miterlimit:10;stroke-width:0.5px;}.cls-2{font-size:10px;font-family:Tahoma;}.cls-2,.cls-8{fill:#5b607d;}.cls-3,.cls-5,.cls-7{opacity:0.2;}.cls-3{fill:url(#Безымянный_градиент_40);}.cls-4{fill-rule:evenodd;}.cls-5{fill:url(#Безымянный_градиент_40-2);}.cls-6{fill:none;stroke:#616580;stroke-dasharray:2;}.cls-7{fill:url(#Безымянный_градиент_40-3);}</style><linearGradient id="Безымянный_градиент_40" x1="387.65" y1="-78.87" x2="387.65" y2="-63.04" gradientTransform="translate(-198.79 79.18)" gradientUnits="userSpaceOnUse"><stop offset="0" stop-color="#5b607d"/><stop offset="0.84" stop-color="#5b607d" stop-opacity="0"/></linearGradient><linearGradient id="Безымянный_градиент_40-2" x1="1943.92" y1="-78.87" x2="1943.92" y2="-63.04" gradientTransform="matrix(-1, 0, 0, 1, 3731.22, 79.18)" xlink:href="#Безымянный_градиент_40"/><linearGradient id="Безымянный_градиент_40-3" x1="1232.6" y1="-78.87" x2="1232.6" y2="-63.04" xlink:href="#Безымянный_градиент_40"/></defs><title>Ресурс 4</title><g id="Слой_2" data-name="Слой 2"><g id="Layer_1" data-name="Layer 1"><path class="cls-1" d="M12.25.25H373.8a142.72,142.72,0,0,0-13,12.4V657.38l12,12H12.25l-12-12V12.25Z"/><text class="cls-2" transform="translate(30.68 15.83)">Группы продуктов</text><path class="cls-3" d="M3.91,16.14h357V12.65c3-3,8.46-7.86,12.94-12.35H11.91l-8,8Z"/><path class="cls-4" d="M1707.41,658.17c-4.4,4.39-7.91,7.88-12,12H1868.5l12-12V614.28l.15-.16V8.65l-8-8H1695.39c5.32,5.32,7.8,7.85,11.95,12V614.12Z"/><text class="cls-2" transform="translate(1757.68 15.83)">Выполнение ГО</text><path class="cls-5" d="M1880.65,16.14H1706.87V12.65c-3-3-8.45-7.86-12.94-12.35h178.72l8,8Z"/><path class="cls-6" d="M1675.14.65H391.78c-4.49,4.49-7,7.44-12,12.4l1,644.73,12,12H1675.14l12-12V12.65Z"/><path class="cls-7" d="M385.47,16.14H1682.14V8.3l-8-8H393.47l-8,8Z"/><path class="cls-8" d="M555.57,17.61a2.41,2.41,0,0,1-1.7-4.11l6.35-6.35,3.41,3.4-6.35,6.35A2.42,2.42,0,0,1,555.57,17.61Zm4.65-9.46L554.37,14a1.7,1.7,0,1,0,2.4,2.4l5.85-5.85Z"/><path class="cls-8" d="M563.85,11.35a1,1,0,0,1-.73-.3l-3.39-3.39a1,1,0,0,1,1.46-1.47l3.39,3.39a1,1,0,0,1-.73,1.77ZM560.46,6.6a.33.33,0,0,0-.23.09.32.32,0,0,0,0,.46l3.39,3.39a.32.32,0,0,0,.46,0,.33.33,0,0,0,.1-.23.37.37,0,0,0-.1-.23l-3.39-3.39A.33.33,0,0,0,560.46,6.6Z"/><path class="cls-8" d="M563.8,9.81,561,7l1.12-1.12a.78.78,0,0,1,.58-.24h0a.78.78,0,0,1,.58.24l1.66,1.66a.83.83,0,0,1,0,1.18ZM562,7,563.8,8.8l.62-.62a.11.11,0,0,0,0-.17l-1.66-1.66a.11.11,0,0,0-.08,0s-.06,0-.09,0Z"/><path class="cls-8" d="M556.78,12.13l-2.25,2.25a1.24,1.24,0,0,0,0,1.76l.1.1a1.24,1.24,0,0,0,1.76,0l4.87-4.86Zm-.32,2.63a.7.7,0,0,1,0-1,.69.69,0,0,1,1,1A.7.7,0,0,1,556.46,14.76Zm.63-1.58a.51.51,0,0,1,.72-.72.53.53,0,0,1,0,.72A.51.51,0,0,1,557.09,13.18Z"/><path class="cls-8" d="M481.75,6.59h-5.88a4.32,4.32,0,0,0-4.28,4.21,4.25,4.25,0,0,0,.93,2.74,5.78,5.78,0,0,0-2,2,1.54,1.54,0,0,0,0,.43c0,.37.29.62.74.62h2.56l.07-.06a3.45,3.45,0,0,1,1.94-.78,3.35,3.35,0,0,1,2,.78l.07.05h2.57c.46,0,.74-.23.75-.61a2.06,2.06,0,0,0,0-.43v-.05a5.62,5.62,0,0,0-2-2,4.24,4.24,0,0,0,.92-2.36h1.61a.76.76,0,0,0,.75-.75V7.35A.76.76,0,0,0,481.75,6.59Zm-5.88.47h.46a3.82,3.82,0,0,1,3.36,3.78V11a3.74,3.74,0,0,1-1,2.47h0l-.11.12-.12.11a3.79,3.79,0,0,1-5.37-.15l-.05-.05a3.82,3.82,0,0,1,2.82-6.39Zm4.87,8.59a1.61,1.61,0,0,1,0,.31v0s0,.15-.28.15H478a3.86,3.86,0,0,0-2.21-.82,3.79,3.79,0,0,0-2.18.83h-2.39c-.28,0-.28-.11-.28-.19a.9.9,0,0,1,0-.28,5.78,5.78,0,0,1,1.86-1.79,4.24,4.24,0,0,0,3,1.27h.09a4.24,4.24,0,0,0,3-1.19.46.46,0,0,1,.07-.07A5.8,5.8,0,0,1,480.74,15.65Zm1.3-5.21a.29.29,0,0,1-.29.29h-1.6a.28.28,0,0,0,0-.09,3,3,0,0,0,0-.43s0-.07,0-.11a4,4,0,0,0-.33-1l0-.05a4.28,4.28,0,0,0-1-1.32h0a4.46,4.46,0,0,0-.92-.64h3.93a.29.29,0,0,1,.29.29Z"/><path class="cls-8" d="M475.83,13.15h0a2.27,2.27,0,0,0,1.58-.63,2.25,2.25,0,0,0,.7-1.6v-.05a2.29,2.29,0,0,0-2.27-2.28h0a2.3,2.3,0,0,0-2.28,2.24,2.27,2.27,0,0,0,.64,1.62A2.25,2.25,0,0,0,475.83,13.15Zm0-4.09h0a1.84,1.84,0,0,1,1.81,1.81h.23l-.23,0a1.78,1.78,0,0,1-.56,1.27,1.85,1.85,0,0,1-1.29.51,1.82,1.82,0,0,1,0-3.63Z"/><path class="cls-8" d="M400.88,10.33V9a1.08,1.08,0,0,0,0-.18.54.54,0,0,1,.33-.6,5.41,5.41,0,0,1,1.87-.65c.58-.08,1.17-.11,1.76-.17H405V6.94a.28.28,0,0,1,.27-.29.26.26,0,0,1,.26.3c0,.14,0,.29,0,.43l1.56.15c0-.12,0-.24,0-.37s.1-.31.26-.31.26.13.27.31v.51a5.71,5.71,0,0,1,.58.21,7,7,0,0,1,.74.45.37.37,0,0,1,.15.34V16h.14a.3.3,0,0,1,.33.27c0,.15-.13.26-.33.26H397.76a.24.24,0,0,1-.21-.22.22.22,0,0,1,.13-.26c.1,0,.1-.1.1-.18,0-1.49,0-3,0-4.45A.41.41,0,0,1,398,11a4.29,4.29,0,0,1,1.63-.57C400,10.41,400.44,10.38,400.88,10.33ZM405,7.9c-.55,0-1.08.08-1.61.15a5.26,5.26,0,0,0-1.81.58.25.25,0,0,0-.16.27V16H405ZM408.56,16V14.16c0-1.79,0-3.57,0-5.36a.26.26,0,0,0-.06-.18,2.55,2.55,0,0,0-.87-.4v.32h.13a.28.28,0,0,1,.25.26.29.29,0,0,1-.24.27h-2.23v1.32h1.55c0-.24,0-.48,0-.71a.26.26,0,0,1,.32-.27.28.28,0,0,1,.21.28v.71h.15a.24.24,0,0,1,.22.18.34.34,0,0,1-.08.26.3.3,0,0,1-.23.08h-2.14v1.31h1.55c0-.21,0-.41,0-.62a.25.25,0,0,1,.26-.27.28.28,0,0,1,.27.27v.63h.13a.27.27,0,0,1,.26.24.3.3,0,0,1-.23.28h-2.24v1.32h1.55c0-.18,0-.35,0-.52a.36.36,0,0,1,0-.15.25.25,0,0,1,.27-.17.29.29,0,0,1,.24.27v.57h.16a.25.25,0,0,1,.22.23.24.24,0,0,1-.17.27.47.47,0,0,1-.17,0h-2.12V16h1.55c0-.27,0-.53,0-.78a.27.27,0,0,1,.25-.29.28.28,0,0,1,.28.29V16Zm-7.69,0V12.73l-.72,0a5,5,0,0,0-1.7.47.2.2,0,0,0-.13.2c0,.82,0,1.64,0,2.46V16Zm-2.54-3.33a6.43,6.43,0,0,1,2.54-.5V10.88c-.38,0-.75.06-1.12.12a4,4,0,0,0-1.31.42s-.11.07-.11.11C398.32,11.91,398.33,12.3,398.33,12.71Zm8.75-4.14c0-.13,0-.23,0-.34s0-.12-.11-.13L406.51,8l-1-.09v.63Z"/><text class="cls-2" transform="translate(418.56 15.83)">Запасы</text><text class="cls-2" transform="translate(492.53 15.83)">Отгрузка</text><text class="cls-2" transform="translate(574.89 15.83)">Качество</text></g></g></svg>