<svg xmlns="http://www.w3.org/2000/svg" viewBox="0 0 26.67 19.8"><defs><style>.cls-1{fill:#453927; stroke: #F4A321;stroke-miterlimit:10;stroke-width:0.5px;}.cls-1,.cls-2{}.cls-3{fill:orange;}</style></defs><title>Ресурс 6</title><g id="Слой_2" data-name="Слой 2"><g id="Layer_1" data-name="Layer 1"><polygon class="cls-1" points="5.58 14.57 0.6 19.55 21.44 19.55 26.42 14.57 26.42 0.25 5.58 0.25 5.58 14.57"/><g class="cls-2"><path class="cls-3" d="M11.94,15.9a2.44,2.44,0,0,1-1.7-.7,2.41,2.41,0,0,1,0-3.41l6.35-6.35L20,8.84,13.65,15.2A2.45,2.45,0,0,1,11.94,15.9Zm4.65-9.46-5.84,5.85a1.69,1.69,0,0,0,2.39,2.4L19,8.84Z"/><path class="cls-3" d="M20.22,9.64a1,1,0,0,1-.73-.3L16.1,6a1,1,0,1,1,1.46-1.47L21,7.87a1,1,0,0,1,0,1.47A1,1,0,0,1,20.22,9.64ZM16.83,4.89a.3.3,0,0,0-.23.1.31.31,0,0,0,0,.45L20,8.84a.34.34,0,0,0,.46,0,.37.37,0,0,0,.1-.23.33.33,0,0,0-.1-.23L17.06,5A.3.3,0,0,0,16.83,4.89Z"/><path class="cls-3" d="M20.17,8.1,17.34,5.26l1.12-1.12a.81.81,0,0,1,.59-.24h0a.78.78,0,0,1,.58.24L21.3,5.8A.85.85,0,0,1,21.3,7ZM18.34,5.26l1.83,1.83.62-.62a.1.1,0,0,0,0-.16L19.13,4.64a.11.11,0,0,0-.08,0s-.06,0-.09,0Z"/><path class="cls-3" d="M13.15,10.42,10.9,12.67a1.26,1.26,0,0,0,0,1.76l.1.11a1.26,1.26,0,0,0,1.76,0l4.87-4.87Zm-.32,2.63a.69.69,0,0,1,1-1,.68.68,0,0,1,0,1A.7.7,0,0,1,12.83,13.05Zm.63-1.58a.51.51,0,0,1,0-.72.53.53,0,0,1,.72,0,.51.51,0,0,1-.72.72Z"/></g></g></g></svg>