<svg xmlns="http://www.w3.org/2000/svg" viewBox="0 0 26.67 19.8"><defs><style>.cls-1{fill:#453927; stroke: #F4A321;stroke-miterlimit:10;stroke-width:0.5px;}.cls-1,.cls-2{}.cls-3{fill:orange;}</style></defs><title>Ресурс 5</title><g id="Слой_2" data-name="Слой 2"><g id="Layer_1" data-name="Layer 1"><polygon class="cls-1" points="26.42 5.23 21.44 0.25 0.6 0.25 5.58 5.23 5.58 19.55 26.42 19.55 26.42 5.23"/><g class="cls-2"><path class="cls-3" d="M21,5.4H15.17a4.31,4.31,0,0,0-4.29,4.2,4.25,4.25,0,0,0,.93,2.74,6,6,0,0,0-2,2,1.54,1.54,0,0,0,0,.43c0,.38.29.62.74.62h2.56l.07-.05a3.39,3.39,0,0,1,1.94-.79,3.41,3.41,0,0,1,2,.78l.06.05h2.57c.46,0,.75-.23.75-.61a1.55,1.55,0,0,0,0-.43v0a5.62,5.62,0,0,0-2-2A4.21,4.21,0,0,0,19.43,10H21a.74.74,0,0,0,.75-.75V6.15A.74.74,0,0,0,21,5.4Zm-5.87.46h.46A3.83,3.83,0,0,1,19,9.68v.08a3.8,3.8,0,0,1-1,2.47h0l-.12.11-.12.11a3.79,3.79,0,0,1-5.37-.15l-.05-.05a3.79,3.79,0,0,1-1-2.64A3.84,3.84,0,0,1,15.17,5.86ZM20,14.45a1.71,1.71,0,0,1,0,.32v0s0,.15-.29.15h-2.4a3.89,3.89,0,0,0-2.22-.82A3.8,3.8,0,0,0,13,15h-2.4c-.28,0-.28-.11-.28-.18s0-.22,0-.28a5.72,5.72,0,0,1,1.86-1.8,4.24,4.24,0,0,0,3,1.27h.09a4.24,4.24,0,0,0,3-1.19.46.46,0,0,0,.07-.07A5.7,5.7,0,0,1,20,14.45Zm1.3-5.21a.29.29,0,0,1-.29.29H19.45a.28.28,0,0,1,0-.09c0-.15,0-.29-.05-.43s0-.07,0-.11a4,4,0,0,0-.34-1l0,0A4.21,4.21,0,0,0,18,6.5h0a4.41,4.41,0,0,0-.92-.63H21a.29.29,0,0,1,.29.29Z"/><path class="cls-3" d="M15.12,12h.05a2.29,2.29,0,0,0,2.27-2.24v0A2.28,2.28,0,0,0,15.17,7.4h0a2.28,2.28,0,0,0-2.28,2.23,2.21,2.21,0,0,0,.63,1.62A2.3,2.3,0,0,0,15.12,12Zm0-4.1h0A1.83,1.83,0,0,1,17,9.68h.23l-.23,0A1.78,1.78,0,0,1,16.42,11a1.8,1.8,0,0,1-1.29.51,1.83,1.83,0,0,1-1.78-1.85A1.83,1.83,0,0,1,15.16,7.86Z"/></g></g></g></svg>