<svg xmlns="http://www.w3.org/2000/svg" viewBox="0 0 26.4 42.78"><defs><style>.cls-1{fill:#453927; stroke: #F4A321;stroke-miterlimit:10;stroke-width:0.5px;}.cls-1,.cls-2{}.cls-2{fill:orange;}</style></defs><title>Ресурс 8</title><g id="Слой_2" data-name="Слой 2"><g id="Layer_1" data-name="Layer 1"><polygon class="cls-1" points="21.1 0.25 15.63 0.25 0.61 0.25 5.67 5.2 5.67 37.58 0.61 42.52 15.63 42.52 21.1 42.52 26.15 37.58 26.15 5.2 21.1 0.25"/><path class="cls-2" d="M13.07,20.26V18.91a1.08,1.08,0,0,0,0-.18.53.53,0,0,1,.33-.6,5.21,5.21,0,0,1,1.87-.65c.58-.09,1.17-.12,1.76-.17h.15v-.44a.27.27,0,0,1,.27-.29.26.26,0,0,1,.26.29v.44l1.56.15c0-.12,0-.25,0-.37s.1-.31.26-.31.26.12.27.31v.51a5.71,5.71,0,0,1,.58.21,7,7,0,0,1,.74.45.37.37,0,0,1,.15.34V26h.14a.3.3,0,0,1,.33.26c0,.16-.13.27-.33.27H10a.24.24,0,0,1-.21-.22A.22.22,0,0,1,9.87,26c.1,0,.1-.1.1-.18,0-1.49,0-3,0-4.45a.41.41,0,0,1,.21-.4,4.29,4.29,0,0,1,1.63-.57C12.22,20.33,12.63,20.3,13.07,20.26Zm4.11-2.43c-.55.05-1.08.08-1.61.15a5.38,5.38,0,0,0-1.82.58.26.26,0,0,0-.15.27V26h3.58ZM20.75,26V24.09c0-1.79,0-3.58,0-5.36a.24.24,0,0,0-.06-.18,2.38,2.38,0,0,0-.87-.4v.31h.13a.29.29,0,0,1,.25.25A.3.3,0,0,1,20,19H17.72v1.32h1.55c0-.24,0-.48,0-.71a.26.26,0,0,1,.32-.27.28.28,0,0,1,.21.28v.7H20a.25.25,0,0,1,.22.19.35.35,0,0,1-.08.26.34.34,0,0,1-.23.08c-.67,0-1.33,0-2,0h-.15v1.32h1.55c0-.21,0-.41,0-.62a.27.27,0,0,1,.26-.28.28.28,0,0,1,.26.28c0,.1,0,.2,0,.3v.33h.13a.29.29,0,0,1,.26.25.3.3,0,0,1-.23.28H17.72V24h1.55c0-.18,0-.35,0-.52a.39.39,0,0,1,0-.15.25.25,0,0,1,.27-.16.27.27,0,0,1,.23.27c0,.19,0,.38,0,.57H20a.25.25,0,0,1,.23.23.24.24,0,0,1-.17.27.47.47,0,0,1-.17,0H17.72V26h1.55c0-.27,0-.53,0-.79a.26.26,0,0,1,.25-.28.28.28,0,0,1,.28.29V26Zm-7.69,0V22.66l-.72,0a4.59,4.59,0,0,0-1.7.47.2.2,0,0,0-.13.2c0,.82,0,1.64,0,2.46V26Zm-2.54-3.33a6.43,6.43,0,0,1,2.54-.5V20.81c-.38,0-.75.06-1.12.12a4,4,0,0,0-1.31.42c-.05,0-.11.07-.11.11C10.51,21.84,10.52,22.23,10.52,22.64Zm8.75-4.15c0-.12,0-.22,0-.33s0-.13-.11-.13L18.7,18l-1-.09v.62Z"/></g></g></svg>