<svg xmlns="http://www.w3.org/2000/svg" viewBox="0 0 12 10.02"><title>Ресурс 8</title><path d="M11.25,0H5.37A4.29,4.29,0,0,0,1.09,4.2,4.2,4.2,0,0,0,2,6.94,5.85,5.85,0,0,0,0,9,1.2,1.2,0,0,0,0,9.4c0,.38.3.62.75.62H3.32l.06,0a3.37,3.37,0,0,1,2-.78,3.41,3.41,0,0,1,2,.77l.07,0H10c.46,0,.74-.23.75-.6a3.08,3.08,0,0,0,0-.43V8.93a5.73,5.73,0,0,0-2-2A4.18,4.18,0,0,0,9.64,4.6h1.61A.76.76,0,0,0,12,3.85V.75A.76.76,0,0,0,11.25,0ZM5.37.47h.46A3.82,3.82,0,0,1,9.19,4.28v.08a3.81,3.81,0,0,1-1,2.47h0l-.11.11L8,7.06a3.83,3.83,0,0,1-2.72,1A3.78,3.78,0,0,1,2.6,6.9l-.05-.05a3.79,3.79,0,0,1-1-2.64A3.84,3.84,0,0,1,5.37.47Zm4.87,8.58a1.15,1.15,0,0,1,0,.32v0s0,.16-.28.16H7.54a3.87,3.87,0,0,0-2.21-.83,3.87,3.87,0,0,0-2.18.84H.76c-.28,0-.28-.11-.28-.19a.92.92,0,0,1,0-.28A5.58,5.58,0,0,1,2.33,7.3a4.27,4.27,0,0,0,3,1.27h.08a4.21,4.21,0,0,0,3-1.2l.06-.06A5.58,5.58,0,0,1,10.24,9.05Zm1.29-5.2a.28.28,0,0,1-.28.28H9.65s0-.06,0-.09,0-.28,0-.43,0-.07,0-.1a4.51,4.51,0,0,0-.33-1l0,0a4.28,4.28,0,0,0-1-1.32h0A4,4,0,0,0,7.31.47h3.94a.27.27,0,0,1,.28.28Z" style="fill:#5b607d"/><path d="M5.32,6.56h0A2.28,2.28,0,0,0,7,5.92a2.23,2.23,0,0,0,.7-1.6v0A2.29,2.29,0,0,0,5.38,2h0A2.28,2.28,0,0,0,3.73,5.86,2.25,2.25,0,0,0,5.32,6.56Zm0-4.09h0A1.81,1.81,0,0,1,7.18,4.28h.24l-.24,0a1.81,1.81,0,0,1-.55,1.27,1.84,1.84,0,0,1-2.57,0A1.82,1.82,0,0,1,5.37,2.47Z" style="fill:#5b607d"/></svg>