<svg xmlns="http://www.w3.org/2000/svg" viewBox="0 0 12 9.91"><title>Ресурс 7</title><path d="M3.33,3.68V2.33a1.08,1.08,0,0,0,0-.18.54.54,0,0,1,.33-.6A5.48,5.48,0,0,1,5.53.9C6.11.82,6.71.79,7.3.73h.15V.29A.27.27,0,1,1,8,.3V.73L9.53.88V.51A.27.27,0,0,1,9.8.2a.28.28,0,0,1,.26.31V1a5,5,0,0,1,.58.21,7.09,7.09,0,0,1,.75.45.38.38,0,0,1,.14.34V9.37h.14c.2,0,.33.11.33.27s-.13.26-.32.26H.21A.24.24,0,0,1,0,9.68a.24.24,0,0,1,.14-.26.16.16,0,0,0,.1-.18c0-1.49,0-3,0-4.45a.43.43,0,0,1,.21-.4,4.41,4.41,0,0,1,1.63-.57C2.48,3.76,2.9,3.73,3.33,3.68ZM7.44,1.25c-.55.05-1.08.08-1.6.15A5.31,5.31,0,0,0,4,2a.27.27,0,0,0-.16.27V9.39H7.44ZM11,9.39V2.15A.23.23,0,0,0,10.94,2a2.55,2.55,0,0,0-.87-.4v.32h.13a.27.27,0,0,1,.25.26.29.29,0,0,1-.23.27.56.56,0,0,1-.13,0H8V3.74H9.53V3a.26.26,0,0,1,.32-.27.26.26,0,0,1,.21.28v.71h.15a.22.22,0,0,1,.22.18.38.38,0,0,1-.07.26.33.33,0,0,1-.24.08H8V5.6H9.53V5a.26.26,0,0,1,.27-.27.27.27,0,0,1,.26.27v.63h.14a.26.26,0,0,1,.25.24.28.28,0,0,1-.23.28H8V7.47H9.53V7a.36.36,0,0,1,0-.15.26.26,0,0,1,.28-.17.27.27,0,0,1,.23.27v.57h.16a.26.26,0,0,1,.23.23.25.25,0,0,1-.17.27.52.52,0,0,1-.18,0H8V9.39H9.53V8.61a.27.27,0,0,1,.26-.29.27.27,0,0,1,.27.29v.78Zm-7.69,0V6.08l-.72,0a5.07,5.07,0,0,0-1.7.47.2.2,0,0,0-.12.2V9.25c0,.05,0,.09,0,.14ZM.78,6.06a6.61,6.61,0,0,1,2.54-.5V4.23c-.38,0-.75.06-1.11.12a4.08,4.08,0,0,0-1.32.42s-.1.07-.1.11C.78,5.26.78,5.65.78,6.06ZM9.53,1.92V1.58c0-.08,0-.12-.11-.13L9,1.38,8,1.29v.63Z" style="fill:#5b607d"/></svg>