<svg xmlns="http://www.w3.org/2000/svg" viewBox="0 0 12 12"><title>Ресурс 9</title><path d="M2.41,12A2.41,2.41,0,0,1,.7,11.3a2.43,2.43,0,0,1,0-3.41L7.06,1.54,10.46,5,4.11,11.3A2.4,2.4,0,0,1,2.41,12ZM7.06,2.55,1.21,8.4a1.69,1.69,0,0,0,2.4,2.39L9.45,5Z" style="fill:#5b607d"/><path d="M10.68,5.75A1,1,0,0,1,10,5.44L6.56,2.05a1,1,0,0,1,0-1.47A1.05,1.05,0,0,1,8,.58L11.42,4a1.07,1.07,0,0,1,.3.74,1,1,0,0,1-.3.73A1.07,1.07,0,0,1,10.68,5.75ZM7.29,1a.32.32,0,0,0-.23.1.34.34,0,0,0,0,.46l3.39,3.39a.32.32,0,0,0,.46,0,.31.31,0,0,0,0-.46L7.52,1.09A.29.29,0,0,0,7.29,1Z" style="fill:#5b607d"/><path d="M10.64,4.2,7.8,1.36,8.92.24A.87.87,0,0,1,9.51,0h0a.87.87,0,0,1,.59.24l1.66,1.67a.83.83,0,0,1,0,1.17ZM8.81,1.36l1.83,1.83.61-.61a.11.11,0,0,0,0-.17L9.59.75a.12.12,0,0,0-.08,0s0,0-.08,0Z" style="fill:#5b607d"/><path d="M3.62,6.52,1.36,8.78a1.26,1.26,0,0,0,0,1.76l.11.1a1.24,1.24,0,0,0,1.75,0L8.09,5.77ZM3.3,9.15a.68.68,0,1,1,1,0A.67.67,0,0,1,3.3,9.15Zm.62-1.58a.51.51,0,0,1,0-.71.51.51,0,0,1,.72,0,.5.5,0,0,1,0,.71A.51.51,0,0,1,3.92,7.57Z" style="fill:#5b607d"/></svg>