<svg xmlns="http://www.w3.org/2000/svg" xmlns:xlink="http://www.w3.org/1999/xlink" viewBox="0 0 1880.9 670.42"><defs><style>.cls-1,.cls-8{fill:none;}.cls-2{clip-path:url(#clip-path);}.cls-3,.cls-6{fill:#1b1f2c;stroke:#5b607d;opacity:0.5;}.cls-3,.cls-6,.cls-8{stroke-miterlimit:10;stroke-width:0.5px;}.cls-3,.cls-4,.cls-5,.cls-6,.cls-7,.cls-9{isolation:isolate;}.cls-4{font-size:10px;font-family:Tahoma;}.cls-10,.cls-4{fill:#5b607d;}.cls-5,.cls-7,.cls-9{opacity:0.2;}.cls-5{fill:url(#Безымянный_градиент_3);}.cls-6{fill-rule:evenodd;}.cls-7{fill:url(#Безымянный_градиент_3-2);}.cls-8{stroke:#616580;stroke-dasharray:2;}.cls-9{fill:url(#Безымянный_градиент_3-3);}</style><clipPath id="clip-path"><rect class="cls-1" width="1880.9" height="21.87"/></clipPath><linearGradient id="Безымянный_градиент_3" x1="387.67" y1="750.88" x2="387.67" y2="735.04" gradientTransform="matrix(1, 0, 0, -1, -198.79, 751.18)" gradientUnits="userSpaceOnUse"><stop offset="0" stop-color="#5b607d"/><stop offset="0.84" stop-color="#5b607d" stop-opacity="0"/></linearGradient><linearGradient id="Безымянный_градиент_3-2" x1="3211.93" y1="750.88" x2="3211.93" y2="735.04" gradientTransform="translate(4999.22 751.18) rotate(180)" xlink:href="#Безымянный_градиент_3"/><linearGradient id="Безымянный_градиент_3-3" x1="1232.6" y1="750.88" x2="1232.6" y2="735.04" xlink:href="#Безымянный_градиент_3"/></defs><title>Ресурс 2</title><g id="Слой_2" data-name="Слой 2"><g id="Слой_1-2" data-name="Слой 1"><g class="cls-2"><path class="cls-3" d="M12.25.25H373.8a143.65,143.65,0,0,0-13,12.4V657.38l12,12H12.25l-12-12V12.25Z"/><text class="cls-4" transform="translate(30.68 15.83)">Группы продуктов</text><path class="cls-5" d="M3.91,16.14h357V12.65c3-3,8.46-7.86,12.94-12.35H11.91l-8,8Z"/><path class="cls-6" d="M1707.41,658.17c-4.4,4.39-7.91,7.88-12,12H1868.5l12-12V614.28l.15-.16V8.65l-8-8H1695.39c5.32,5.32,7.8,7.85,11.95,12V614.12Z"/><text class="cls-4" transform="translate(1757.68 15.83)">Выполнение ГО</text><path class="cls-7" d="M1880.65,16.14H1706.87V12.65c-3-3-8.45-7.86-12.94-12.35h178.72l8,8Z"/><path class="cls-8" d="M1675.14.65H391.78c-4.49,4.49-7,7.44-12,12.4l1,644.73,12,12H1675.14l12-12V12.65Z"/><path class="cls-9" d="M385.47,16.14H1682.14V8.3l-8-8H393.47l-8,8Z"/><path class="cls-10" d="M555.57,17.61a2.41,2.41,0,0,1-1.7-4.11l6.35-6.35,3.41,3.4-6.35,6.35A2.43,2.43,0,0,1,555.57,17.61Zm4.65-9.46L554.37,14a1.7,1.7,0,0,0,2.26,2.54.93.93,0,0,0,.14-.14l5.85-5.85Z"/><path class="cls-10" d="M563.85,11.35a1,1,0,0,1-.73-.3l-3.39-3.39a1,1,0,1,1,1.46-1.47h0l3.39,3.39a1,1,0,0,1-.73,1.77ZM560.46,6.6a.32.32,0,0,0-.24.54h0l3.39,3.39a.32.32,0,0,0,.45,0h0a.33.33,0,0,0,.1-.23.37.37,0,0,0-.1-.23l-3.39-3.39A.32.32,0,0,0,560.46,6.6Z"/><path class="cls-10" d="M563.8,9.81,561,7l1.12-1.12a.78.78,0,0,1,.58-.24h0a.78.78,0,0,1,.58.24l1.66,1.66a.82.82,0,0,1,0,1.17h0ZM562,7l1.8,1.8.62-.62a.11.11,0,0,0,0-.15l0,0-1.66-1.66h-.17Z"/><path class="cls-10" d="M556.78,12.13l-2.25,2.25a1.23,1.23,0,0,0,0,1.75h0l.1.1a1.23,1.23,0,0,0,1.75,0h0l4.87-4.86Zm-.32,2.63a.7.7,0,0,1,0-1h0a.71.71,0,1,1,0,1Zm.63-1.58a.51.51,0,0,1,0-.72.52.52,0,0,1,.68,0,.53.53,0,0,1,0,.72A.51.51,0,0,1,557.09,13.18Z"/><path class="cls-10" d="M481.75,6.59h-5.88a4.32,4.32,0,0,0-4.28,4.21,4.27,4.27,0,0,0,.93,2.74,5.8,5.8,0,0,0-2,2,1.55,1.55,0,0,0,0,.43c0,.37.29.62.74.62h2.56l.07-.06a3.46,3.46,0,0,1,1.94-.78,3.35,3.35,0,0,1,2,.78l.07,0h2.57c.46,0,.74-.23.75-.61a1.55,1.55,0,0,0,0-.43v0a5.64,5.64,0,0,0-2-2,4.24,4.24,0,0,0,.92-2.36h1.61a.77.77,0,0,0,.75-.75v-3A.76.76,0,0,0,481.75,6.59Zm-5.88.47h.46a3.82,3.82,0,0,1,3.36,3.78V11a3.71,3.71,0,0,1-1,2.47h0l-.11.12-.12.11a3.79,3.79,0,0,1-5.36-.14h0l0-.05a3.82,3.82,0,0,1,2.82-6.39Zm4.87,8.59a1.61,1.61,0,0,1,0,.31h0s0,.15-.28.15H478a3.87,3.87,0,0,0-2.21-.82,3.76,3.76,0,0,0-2.18.83h-2.39c-.28,0-.28-.11-.28-.19a1.31,1.31,0,0,1,0-.28,5.78,5.78,0,0,1,1.86-1.79,4.23,4.23,0,0,0,3,1.27h.09a4.23,4.23,0,0,0,3-1.19l.07-.07A5.81,5.81,0,0,1,480.74,15.65Zm1.3-5.21a.29.29,0,0,1-.29.29h-1.6v-.09a3.09,3.09,0,0,0,0-.43V10.1a4.35,4.35,0,0,0-.33-1v0a4.16,4.16,0,0,0-1-1.32h0a4.46,4.46,0,0,0-.92-.64h3.93a.29.29,0,0,1,.29.29h0Z"/><path class="cls-10" d="M475.83,13.15h0a2.27,2.27,0,0,0,1.58-.63,2.25,2.25,0,0,0,.7-1.6v-.05a2.3,2.3,0,0,0-2.27-2.28h0a2.3,2.3,0,0,0-2.28,2.24,2.27,2.27,0,0,0,.64,1.62A2.22,2.22,0,0,0,475.83,13.15Zm0-4.09h0a1.85,1.85,0,0,1,1.81,1.81h0a1.8,1.8,0,0,1-.56,1.27,1.87,1.87,0,0,1-1.29.51,1.82,1.82,0,0,1,0-3.63Z"/><path class="cls-10" d="M400.88,10.33V9a.54.54,0,0,0,0-.18.54.54,0,0,1,.33-.6,5.41,5.41,0,0,1,1.87-.65c.58-.08,1.17-.11,1.76-.17H405V6.94a.29.29,0,0,1,.27-.29h0a.26.26,0,0,1,.26.26v.47l1.56.15V7.16c0-.13.1-.31.26-.31s.26.13.27.31v.51a5.71,5.71,0,0,1,.58.21,5.62,5.62,0,0,1,.74.45.38.38,0,0,1,.15.34V16h.14a.3.3,0,0,1,.33.27h0c0,.15-.13.26-.33.26H397.76a.24.24,0,0,1-.21-.22.22.22,0,0,1,.13-.26c.1,0,.1-.1.1-.18V11.42A.41.41,0,0,1,398,11a4.29,4.29,0,0,1,1.63-.57C400,10.41,400.44,10.38,400.88,10.33ZM405,7.9a12.19,12.19,0,0,0-1.61.15,5.26,5.26,0,0,0-1.81.58.24.24,0,0,0-.16.27V16H405Zm3.56,8.1V8.8a.28.28,0,0,0-.06-.18,2.55,2.55,0,0,0-.87-.4v.32h.13a.27.27,0,0,1,.25.26.3.3,0,0,1-.24.27h-2.23v1.32h1.55V9.68a.27.27,0,0,1,.24-.28h.08a.28.28,0,0,1,.21.28v.71h.15a.26.26,0,0,1,.22.18.35.35,0,0,1-.08.26.29.29,0,0,1-.23.08h-2.14v1.31h1.55v-.62a.25.25,0,0,1,.23-.27h0a.28.28,0,0,1,.27.27v.63h.13a.27.27,0,0,1,.26.24.31.31,0,0,1-.23.28h-2.24v1.32h1.55v-.52a.38.38,0,0,1,0-.15.25.25,0,0,1,.27-.17.3.3,0,0,1,.24.27v.57h.16a.25.25,0,0,1,.22.23.24.24,0,0,1-.17.27h-2.29V16h1.55v-.78a.27.27,0,0,1,.25-.29h0a.29.29,0,0,1,.28.28h0V16Zm-7.69,0V12.73h-.72a4.79,4.79,0,0,0-1.7.47.2.2,0,0,0-.13.2V16Zm-2.54-3.33a6.33,6.33,0,0,1,2.54-.5V10.88a7,7,0,0,0-1.12.12,4,4,0,0,0-1.31.42s-.11.07-.11.11c0,.38,0,.77,0,1.18Zm8.75-4.14V8.19c0-.11,0-.12-.11-.13L406.51,8l-1-.09v.63Z"/><text class="cls-4" transform="translate(418.56 15.83)">Запасы</text><text class="cls-4" transform="translate(492.53 15.83)">Отгрузка</text><text class="cls-4" transform="translate(574.89 15.83)">Качество</text></g></g></g></svg>