<svg width="16" height="16" viewBox="0 0 16 16" fill="none" xmlns="http://www.w3.org/2000/svg">
<path d="M9.8999 2.54999H5.8999" stroke="currentColor" stroke-miterlimit="10" stroke-linecap="round" stroke-linejoin="round"/>
<path d="M3.95 2.54999H2.65C1.9 2.54999 1.25 3.19999 1.25 3.94999V13.6C1.25 14.35 1.9 15 2.65 15H13.35C14.1 15 14.75 14.35 14.75 13.6V3.94999C14.75 3.19999 14.1 2.54999 13.35 2.54999H12.05" stroke="currentColor" stroke-miterlimit="10" stroke-linecap="round" stroke-linejoin="round"/>
<path d="M4.9501 1C4.4501 1 4.1001 1.4 4.1001 1.85V3.8C4.1001 4.3 4.5001 4.65 4.9501 4.65C5.4501 4.65 5.8001 4.25 5.8001 3.8V1.85C5.8001 1.4 5.4501 1 4.9501 1Z" stroke="currentColor" stroke-miterlimit="10" stroke-linecap="round" stroke-linejoin="round"/>
<path d="M11.0502 1C10.5502 1 10.2002 1.4 10.2002 1.85V3.8C10.2002 4.3 10.6002 4.65 11.0502 4.65C11.5502 4.65 11.9002 4.25 11.9002 3.8V1.85C11.9002 1.4 11.5502 1 11.0502 1Z" stroke="currentColor" stroke-miterlimit="10" stroke-linecap="round" stroke-linejoin="round"/>
<path d="M1.4502 6.85001H14.2502" stroke="currentColor" stroke-miterlimit="10" stroke-linecap="round" stroke-linejoin="round"/>
</svg>
