<svg width="16" height="16" viewBox="0 0 16 16" fill="none" xmlns="http://www.w3.org/2000/svg">
<g clip-path="url(#clip0)">
<path fill-rule="evenodd" clip-rule="evenodd" d="M1.99829 14.7972C2.0871 14.1258 2.21033 13.4594 2.36752 12.8006C2.47692 12.322 2.47692 12.2126 2.73675 11.9254C3.24274 11.3647 3.89915 10.4895 4.39145 9.92881L5.10256 9.12197C5.67692 8.42453 6.66154 7.33052 7.15385 6.66043L7.98803 5.67581C8.41197 5.11513 9.68376 3.72026 9.86154 3.3647L10.8325 4.10316L11.2974 4.4724C11.4597 4.58029 11.6108 4.70397 11.7487 4.84163L7.26325 10.3117L6.97607 10.6399L6.70256 10.9408L4.45983 13.6758C3.92966 13.9944 3.37658 14.2733 2.80513 14.51C2.54226 14.622 2.27281 14.7179 1.99829 14.7972ZM11.6256 1.36812L10.5726 2.54419C11.2017 3.06385 11.8444 3.54248 12.5145 3.99376C12.6405 3.7879 12.7871 3.59545 12.9521 3.4194L13.4308 2.73564C13.1904 2.56938 12.962 2.3866 12.747 2.18863L11.6256 1.36812ZM14.6752 2.95445C14.7328 2.84149 14.7532 2.71324 14.7335 2.588C14.7139 2.46275 14.6552 2.34691 14.5658 2.25701C14.4888 2.17725 14.4014 2.10825 14.306 2.05188L12.241 0.356156C11.3795 -0.272904 11.4205 0.0142752 10.8735 0.643335L10.2171 1.36812L10.0256 1.62795L7.49573 4.65017C6.72991 5.63479 5.64957 6.83821 4.97949 7.7271L4.17265 8.72539L3.91282 8.98522L1.60171 11.7203C1.46235 12.2448 1.3663 12.78 1.31453 13.3203C1.13417 14.0923 1.02884 14.8801 1 15.6724C1.01849 15.7325 1.04898 15.7882 1.08962 15.8362C1.13027 15.8842 1.18023 15.9235 1.23648 15.9516C1.29273 15.9797 1.35409 15.9961 1.41687 15.9999C1.47965 16.0036 1.54253 15.9945 1.60171 15.9733L4.87009 14.6057L7.48205 11.5835C7.64615 11.4057 7.74188 11.2963 7.89231 11.1049C8.80855 9.96983 9.97094 8.68436 10.8735 7.54932C11.0103 7.37154 11.1197 7.24846 11.2838 7.07069L14.6752 2.95445Z" fill="currentColor"/>
</g>
<defs>
<clipPath id="clip0">
<rect width="13.6752" height="16" fill="currentColor" transform="translate(1)"/>
</clipPath>
</defs>
</svg>
