<svg width="78" height="23" viewBox="0 0 78 23" fill="currentColor" xmlns="http://www.w3.org/2000/svg">
<path d="M52.1182 5.64623L53.2709 4.7526C58.2749 6.41118 62.8078 9.19612 66.5024 12.8818H68.9557C68.9557 12.8818 75.3103 18.6471 77.0148 22.9327L78 22.4715C74.1527 15.6786 68.5126 10.013 61.6643 6.06181C54.8161 2.11064 47.009 0.0177563 39.0522 0.000112488C31.0954 -0.0175313 23.2786 2.0407 16.412 5.96147C9.5454 9.88223 3.87894 15.5228 0 22.2985L1.5271 23C3.22168 18.676 9.61577 12.8818 9.61577 12.8818H12.069C15.7636 9.19612 20.2966 6.41118 25.3005 4.7526L26.2857 5.53093C34.6741 2.85267 43.7258 2.89312 52.0887 5.64623H52.1182Z"/>
</svg>
