<svg width="1360" height="640" viewBox="0 0 1360 640" fill="none" xmlns="http://www.w3.org/2000/svg">
<rect width="0.999999" height="67" transform="matrix(-1 -8.74228e-08 -8.74228e-08 1 658 88)" fill="#4B5169"/>
<rect width="0.999999" height="67" transform="matrix(-1 -8.74228e-08 -8.74228e-08 1 857 88)" fill="#4B5169"/>
<rect width="1" height="33" transform="matrix(-4.37114e-08 -1 -1 4.37114e-08 857 156)" fill="#4B5169"/>
<rect width="1" height="32" transform="matrix(-4.37114e-08 -1 -1 4.37114e-08 689 156)" fill="#4B5169"/>
<rect x="162.5" y="0.5" width="354" height="349" rx="1.5" stroke="#4B5169" stroke-dasharray="4 4"/>
<rect x="685.133" y="267.009" width="145.267" height="0.7566" fill="#272A38" stroke="#272A38" stroke-width="0.7566"/>
<rect x="685.89" y="305.596" width="144.511" height="0.7566" fill="#272A38" stroke="#272A38" stroke-width="0.7566"/>
<rect x="684.378" y="297.273" width="28.7508" height="0.756601" transform="rotate(-90 684.378 297.273)" fill="#272A38" stroke="#272A38" stroke-width="0.756601"/>
<path d="M695.908 267.229L684.661 278.477" stroke="#272A38" stroke-width="2" stroke-miterlimit="10"/>
<path d="M704.51 267.229L685.323 287.078" stroke="#272A38" stroke-width="2" stroke-miterlimit="10"/>
<path d="M747.513 267.23L710.464 305.602" stroke="#272A38" stroke-width="2" stroke-miterlimit="10"/>
<path d="M756.117 267.229L717.082 306.264" stroke="#272A38" stroke-width="2" stroke-miterlimit="10"/>
<path d="M764.716 267.229L725.682 305.602" stroke="#272A38" stroke-width="2" stroke-miterlimit="10"/>
<path d="M714.434 267.229L685.323 296.34" stroke="#272A38" stroke-width="2" stroke-miterlimit="10"/>
<path d="M739.575 267.229L701.202 305.602" stroke="#272A38" stroke-width="2" stroke-miterlimit="10"/>
<path d="M731.636 267.229L693.263 305.602" stroke="#272A38" stroke-width="2" stroke-miterlimit="10"/>
<path d="M723.034 267.229L685.323 304.941" stroke="#272A38" stroke-width="2" stroke-miterlimit="10"/>
<path d="M797.794 267.23L760.083 305.602" stroke="#272A38" stroke-width="2" stroke-miterlimit="10"/>
<path d="M805.736 267.229L766.701 306.264" stroke="#272A38" stroke-width="2" stroke-miterlimit="10"/>
<path d="M814.335 267.229L775.301 305.602" stroke="#272A38" stroke-width="2" stroke-miterlimit="10"/>
<path d="M822.938 267.229L783.903 306.264" stroke="#272A38" stroke-width="2" stroke-miterlimit="10"/>
<path d="M830.876 267.229L792.503 305.602" stroke="#272A38" stroke-width="2" stroke-miterlimit="10"/>
<path d="M830.214 275.83L800.442 305.602" stroke="#272A38" stroke-width="2" stroke-miterlimit="10"/>
<path d="M830.877 283.769L809.044 305.601" stroke="#272A38" stroke-width="2" stroke-miterlimit="10"/>
<path d="M830.876 291.708L816.32 305.602" stroke="#272A38" stroke-width="2" stroke-miterlimit="10"/>
<path d="M789.195 267.229L750.823 305.602" stroke="#272A38" stroke-width="2" stroke-miterlimit="10"/>
<path d="M781.257 267.229L742.884 305.602" stroke="#272A38" stroke-width="2" stroke-miterlimit="10"/>
<path d="M772.654 267.229L734.281 304.941" stroke="#272A38" stroke-width="2" stroke-miterlimit="10"/>
<path d="M801.786 230.01V230.355L802 230.627L830.537 266.951V391.61C830.537 393.324 829.895 394.956 828.77 396.15C827.647 397.343 826.137 398 824.576 398H690.961C689.4 398 687.89 397.343 686.767 396.15C685.642 394.956 685 393.324 685 391.61V266.936L712.04 230.607L712.238 230.341V230.01V149.965L725.589 135.909H789.343L801.786 149.945V230.01Z" stroke="#606580" stroke-width="2" stroke-miterlimit="10"/>
<circle cx="757.768" cy="186.844" r="3.80041" fill="#272A38" stroke="#272A38"/>
<line x1="744.849" y1="198.294" x2="770.938" y2="175.804" stroke="#272A38"/>
<rect x="741.126" y="123.45" width="0.899616" height="9.52466" rx="0.449808" fill="#272A38" stroke="#272A38" stroke-width="0.899616"/>
<rect x="744.725" y="126.708" width="0.899616" height="6.26707" rx="0.449808" fill="#272A38" stroke="#272A38" stroke-width="0.899616"/>
<rect x="748.324" y="123.45" width="0.899616" height="9.52466" rx="0.449808" fill="#272A38" stroke="#272A38" stroke-width="0.899616"/>
<rect x="751.92" y="126.708" width="0.899616" height="6.26707" rx="0.449808" fill="#272A38" stroke="#272A38" stroke-width="0.899616"/>
<rect x="755.522" y="123.45" width="0.899616" height="9.52466" rx="0.449808" fill="#272A38" stroke="#272A38" stroke-width="0.899616"/>
<rect x="759.118" y="126.708" width="0.899616" height="6.26707" rx="0.449808" fill="#272A38" stroke="#272A38" stroke-width="0.899616"/>
<rect x="762.718" y="123.45" width="0.899616" height="9.52466" rx="0.449808" fill="#272A38" stroke="#272A38" stroke-width="0.899616"/>
<rect x="766.316" y="126.708" width="0.899616" height="6.26707" rx="0.449808" fill="#272A38" stroke="#272A38" stroke-width="0.899616"/>
<rect x="769.913" y="123.45" width="0.899616" height="9.52466" rx="0.449808" fill="#272A38" stroke="#272A38" stroke-width="0.899616"/>
<rect x="773.513" y="126.708" width="0.899616" height="6.26707" rx="0.449808" fill="#272A38" stroke="#272A38" stroke-width="0.899616"/>
<rect x="777.111" y="123.45" width="0.899616" height="9.52466" rx="0.449808" fill="#272A38" stroke="#272A38" stroke-width="0.899616"/>
<rect x="780.71" y="126.708" width="0.899616" height="6.26707" rx="0.449808" fill="#272A38" stroke="#272A38" stroke-width="0.899616"/>
<rect x="733.927" y="123.45" width="0.899616" height="9.52466" rx="0.449808" fill="#272A38" stroke="#272A38" stroke-width="0.899616"/>
<rect x="737.529" y="126.708" width="0.899616" height="6.26707" rx="0.449808" fill="#272A38" stroke="#272A38" stroke-width="0.899616"/>
<path d="M715.625 374.188C716.187 372.687 716 371.187 715.062 369.5C714.781 369.031 714.5 368.656 714.125 368.187C714.031 369.594 713.656 370.906 712.906 372.312L712.25 373.531L711.969 372.219C711.875 371.656 711.687 371.187 711.406 370.812C711.125 371.469 710.844 372.125 710.562 372.781C710.281 373.437 710.281 374.094 710.469 374.656L711.312 376.906L710.562 376.625C710.375 376.531 710.187 376.438 710 376.344C707.75 375.031 706.906 372.875 707.656 370.156C707.937 369.031 708.5 368.094 709.062 367.25L709.156 367.156C710 365.656 710.844 364.25 711.312 362.75C711.406 362.562 711.406 362.281 711.5 362.094L711.781 361.062L712.344 361.438C712.437 361.531 712.531 361.531 712.531 361.625L713 362.094C714.312 363.406 715.719 364.719 716.75 366.312C717.875 367.906 718.437 369.406 718.625 371C718.906 373.438 718.156 375.219 716.375 376.437C716.094 376.625 715.719 376.812 715.344 376.906C715.25 377 715.062 377 714.969 377.094" stroke="#606580" stroke-miterlimit="10" stroke-linecap="round" stroke-linejoin="round"/>
<path d="M722.656 384.594H703.344C701.656 384.594 700.344 383.281 700.344 381.594V360.406C700.344 358.719 701.656 357.406 703.344 357.406H722.563C724.25 357.406 725.562 358.719 725.562 360.406V381.5C725.656 383.281 724.344 384.594 722.656 384.594Z" stroke="#606580" stroke-miterlimit="10" stroke-linecap="round" stroke-linejoin="round"/>
<path d="M705.031 379.906H720.969" stroke="#606580" stroke-miterlimit="10" stroke-linecap="round" stroke-linejoin="round"/>
<path d="M760.625 374.188C761.187 372.687 761 371.187 760.062 369.5C759.781 369.031 759.5 368.656 759.125 368.187C759.031 369.594 758.656 370.906 757.906 372.312L757.25 373.531L756.969 372.219C756.875 371.656 756.687 371.187 756.406 370.812C756.125 371.469 755.844 372.125 755.562 372.781C755.281 373.437 755.281 374.094 755.469 374.656L756.312 376.906L755.562 376.625C755.375 376.531 755.187 376.438 755 376.344C752.75 375.031 751.906 372.875 752.656 370.156C752.937 369.031 753.5 368.094 754.062 367.25L754.156 367.156C755 365.656 755.844 364.25 756.312 362.75C756.406 362.562 756.406 362.281 756.5 362.094L756.781 361.062L757.344 361.438C757.437 361.531 757.531 361.531 757.531 361.625L758 362.094C759.312 363.406 760.719 364.719 761.75 366.312C762.875 367.906 763.437 369.406 763.625 371C763.906 373.438 763.156 375.219 761.375 376.437C761.094 376.625 760.719 376.812 760.344 376.906C760.25 377 760.062 377 759.969 377.094" stroke="#606580" stroke-miterlimit="10" stroke-linecap="round" stroke-linejoin="round"/>
<path d="M767.656 384.594H748.344C746.656 384.594 745.344 383.281 745.344 381.594V360.406C745.344 358.719 746.656 357.406 748.344 357.406H767.563C769.25 357.406 770.562 358.719 770.562 360.406V381.5C770.656 383.281 769.344 384.594 767.656 384.594Z" stroke="#606580" stroke-miterlimit="10" stroke-linecap="round" stroke-linejoin="round"/>
<path d="M750.031 379.906H765.969" stroke="#606580" stroke-miterlimit="10" stroke-linecap="round" stroke-linejoin="round"/>
<path d="M805.625 374.188C806.187 372.687 806 371.187 805.062 369.5C804.781 369.031 804.5 368.656 804.125 368.187C804.031 369.594 803.656 370.906 802.906 372.312L802.25 373.531L801.969 372.219C801.875 371.656 801.687 371.187 801.406 370.812C801.125 371.469 800.844 372.125 800.562 372.781C800.281 373.437 800.281 374.094 800.469 374.656L801.312 376.906L800.562 376.625C800.375 376.531 800.187 376.438 800 376.344C797.75 375.031 796.906 372.875 797.656 370.156C797.937 369.031 798.5 368.094 799.062 367.25L799.156 367.156C800 365.656 800.844 364.25 801.312 362.75C801.406 362.562 801.406 362.281 801.5 362.094L801.781 361.062L802.344 361.438C802.437 361.531 802.531 361.531 802.531 361.625L803 362.094C804.312 363.406 805.719 364.719 806.75 366.312C807.875 367.906 808.437 369.406 808.625 371C808.906 373.438 808.156 375.219 806.375 376.437C806.094 376.625 805.719 376.812 805.344 376.906C805.25 377 805.062 377 804.969 377.094" stroke="#606580" stroke-miterlimit="10" stroke-linecap="round" stroke-linejoin="round"/>
<path d="M812.656 384.594H793.344C791.656 384.594 790.344 383.281 790.344 381.594V360.406C790.344 358.719 791.656 357.406 793.344 357.406H812.563C814.25 357.406 815.562 358.719 815.562 360.406V381.5C815.656 383.281 814.344 384.594 812.656 384.594Z" stroke="#606580" stroke-miterlimit="10" stroke-linecap="round" stroke-linejoin="round"/>
<path d="M795.031 379.906H810.969" stroke="#606580" stroke-miterlimit="10" stroke-linecap="round" stroke-linejoin="round"/>
<rect x="1001.5" y="0.5" width="282" height="349" rx="1.5" stroke="#4B5169" stroke-dasharray="4 4"/>
<rect x="162.5" y="428.5" width="354" height="211" rx="1.5" stroke="#4B5169" stroke-dasharray="4 4"/>
<rect x="584.5" y="450.5" width="354" height="189" rx="1.5" stroke="#4B5169" stroke-dasharray="4 4"/>
<line x1="674" y1="230.5" x2="517" y2="230.5" stroke="#4B5169" stroke-dasharray="4 4"/>
<path d="M1355.02 233.98L1359.33 231.48L1355 229L1355.02 233.98Z" fill="#4B5169"/>
<line x1="1357" y1="231.5" x2="1285" y2="231.5" stroke="#4B5169" stroke-dasharray="4 4"/>
<path d="M672.02 332.98L676.33 330.48L672 328L672.02 332.98Z" fill="#4B5169"/>
<line x1="674" y1="330.5" x2="546" y2="330.5" stroke="#4B5169" stroke-dasharray="4 4"/>
<path d="M761.98 415.31L759.48 411L757 415.33L761.98 415.31Z" fill="#4B5169"/>
<line x1="759.5" y1="415" x2="759.5" y2="451" stroke="#4B5169" stroke-dasharray="4 4"/>
<line x1="546" y1="531.5" x2="523" y2="531.5" stroke="#4B5169" stroke-dasharray="4 4"/>
<line x1="545.5" y1="531" x2="545.5" y2="331" stroke="#4B5169" stroke-dasharray="4 4"/>
<circle cx="692" cy="155" r="2.5" fill="#1C1F2B" stroke="#4B5169"/>
<circle cx="822" cy="155" r="2.5" fill="#1C1F2B" stroke="#4B5169"/>
<circle cx="517" cy="230" r="2.5" fill="#1C1F2B" stroke="#4B5169"/>
<circle cx="517" cy="532" r="2.5" fill="#1C1F2B" stroke="#4B5169"/>
<circle cx="759.5" cy="450" r="2.5" fill="#1C1F2B" stroke="#4B5169"/>
<circle cx="1283" cy="231" r="2.5" fill="#1C1F2B" stroke="#4B5169"/>
<circle cx="840" cy="230" r="2.5" fill="#1C1F2B" stroke="#4B5169"/>
<circle cx="3" cy="230" r="2.5" fill="#1C1F2B" stroke="#4B5169"/>
<circle cx="3" cy="534" r="2.5" fill="#1C1F2B" stroke="#4B5169"/>
<path d="M1001 230H843" stroke="#4B5169" stroke-dasharray="4 4"/>
<path d="M164 230H6" stroke="#4B5169" stroke-dasharray="4 4"/>
<path d="M164 534H6" stroke="#4B5169" stroke-dasharray="4 4"/>
<path d="M676.02 232.98L680.33 230.48L676 228L676.02 232.98Z" fill="#4B5169"/>
</svg>
