<svg width="13" height="13" viewBox="0 0 13 13" fill="none" xmlns="http://www.w3.org/2000/svg">
<path fill-rule="evenodd" clip-rule="evenodd" d="M12.4223 12.0621L9.44332 9.08406C11.2773 6.85213 10.9533 3.55599 8.72134 1.722C6.48934 -0.111981 3.19332 0.211017 1.35934 2.44319C-0.473668 4.67611 -0.15067 7.972 2.08132 9.80599C4.00732 11.388 6.78234 11.3912 8.71234 9.81307L11.6913 12.7901C11.7873 12.888 11.9173 12.9442 12.0543 12.9451H12.0613C12.3433 12.9432 12.5713 12.7161 12.5753 12.4332V12.4261C12.5743 12.2891 12.5193 12.159 12.4223 12.0621ZM5.40533 9.95613C3.09533 9.95613 1.22332 8.08406 1.22332 5.77401C1.22332 3.46419 3.09533 1.59212 5.40533 1.59212C7.71432 1.59114 9.58734 3.46419 9.58734 5.77401C9.58233 8.08113 7.71234 9.95003 5.40432 9.95296L5.40533 9.95613Z" fill="#606580"/>
</svg>
