<svg width="324" height="117" viewBox="0 0 324 117" fill="none" xmlns="http://www.w3.org/2000/svg">
<rect x="5.31753" y="5.31753" width="313.365" height="24.3649" stroke="#0089FF" stroke-width="0.635066"/>
<path d="M32.1663 21V15.2999H29.9957V14.5358H35.1965V15.2999H33.0259V21H32.1663ZM37.8881 21.1129C37.1153 21.1129 36.5148 20.8958 36.0865 20.4617C35.661 20.0247 35.4483 19.4053 35.4483 18.6036C35.4483 17.8135 35.6552 17.1855 36.0691 16.7195C36.483 16.2506 37.0242 16.0162 37.6927 16.0162C37.9937 16.0162 38.26 16.0596 38.4915 16.1465C38.7231 16.2333 38.9257 16.3693 39.0993 16.5545C39.273 16.7398 39.4061 16.967 39.4987 17.2361C39.5913 17.5024 39.6376 17.8294 39.6376 18.2172V18.6601H36.2775C36.2775 19.2244 36.4193 19.6557 36.7029 19.9538C36.9866 20.2519 37.3787 20.4009 37.8794 20.4009C38.0589 20.4009 38.2339 20.3806 38.4047 20.3401C38.5784 20.2996 38.7346 20.2475 38.8736 20.1838C39.0212 20.1173 39.1456 20.0536 39.2469 19.9928C39.3482 19.9292 39.4321 19.8698 39.4987 19.8148H39.5465V20.7048C39.451 20.7424 39.3323 20.7902 39.1905 20.8481C39.0487 20.903 38.9213 20.9465 38.8084 20.9783C38.6493 21.0217 38.5046 21.055 38.3743 21.0781C38.247 21.1013 38.0849 21.1129 37.8881 21.1129ZM38.8432 18.0349C38.8374 17.815 38.8113 17.6254 38.765 17.4662C38.7187 17.307 38.6522 17.1724 38.5653 17.0625C38.4698 16.9409 38.3468 16.8483 38.1963 16.7846C38.0487 16.721 37.8649 16.6891 37.645 16.6891C37.4279 16.6891 37.2427 16.7224 37.0893 16.789C36.9388 16.8526 36.8013 16.9467 36.6769 17.0711C36.5553 17.1985 36.4627 17.3403 36.399 17.4966C36.3354 17.65 36.2948 17.8294 36.2775 18.0349H38.8432ZM44.2307 21H43.2279L42.0514 19.168L40.8402 21H39.9155L41.5999 18.5949L39.9328 16.1508H40.9357L42.1035 17.9654L43.3017 16.1508H44.2307L42.555 18.5385L44.2307 21ZM48.6935 21H47.8774V18.8163H45.6807V21H44.8645V16.1508H45.6807V18.1131H47.8774V16.1508H48.6935V21ZM53.864 18.5776C53.864 19.3937 53.6672 20.0247 53.2736 20.4704C52.88 20.9132 52.3561 21.1346 51.702 21.1346C51.0277 21.1346 50.4966 20.9059 50.1088 20.4487C49.7239 19.9885 49.5314 19.3648 49.5314 18.5776C49.5314 17.7672 49.7296 17.1377 50.1261 16.6891C50.5255 16.2405 51.0508 16.0162 51.702 16.0162C52.3561 16.0162 52.88 16.2405 53.2736 16.6891C53.6672 17.1348 53.864 17.7643 53.864 18.5776ZM53.0218 18.5776C53.0218 17.9495 52.9075 17.4836 52.6788 17.1797C52.4502 16.8729 52.1246 16.7195 51.702 16.7195C51.2766 16.7195 50.9481 16.8729 50.7166 17.1797C50.4879 17.4836 50.3736 17.9495 50.3736 18.5776C50.3736 19.1853 50.4879 19.647 50.7166 19.9624C50.9481 20.275 51.2766 20.4313 51.702 20.4313C52.1217 20.4313 52.4458 20.2779 52.6745 19.9711C52.906 19.6614 53.0218 19.1969 53.0218 18.5776ZM58.457 21H57.6409V16.8367H55.9738C55.9652 17.0769 55.9565 17.3085 55.9478 17.5313C55.9391 17.7513 55.9304 17.951 55.9217 18.1304C55.9044 18.5848 55.874 18.9654 55.8306 19.2722C55.7901 19.579 55.738 19.825 55.6743 20.0102C55.6106 20.2012 55.5397 20.3503 55.4616 20.4573C55.3863 20.5644 55.3009 20.6614 55.2054 20.7482C55.107 20.835 55.0014 20.9002 54.8885 20.9436C54.7756 20.987 54.6483 21.0087 54.5065 21.0087C54.4602 21.0087 54.4009 21.0072 54.3285 21.0043C54.2561 21.0014 54.2055 21 54.1766 21V20.288H54.22C54.2402 20.288 54.2605 20.2895 54.2807 20.2924C54.3039 20.2953 54.3299 20.2967 54.3589 20.2967C54.4283 20.2967 54.4964 20.2866 54.5629 20.2663C54.6295 20.2461 54.6888 20.2084 54.7409 20.1535C54.8856 20.0116 54.9913 19.7642 55.0578 19.4111C55.1244 19.0551 55.1722 18.5588 55.2011 17.922C55.2127 17.6847 55.2228 17.404 55.2315 17.0798C55.2431 16.7557 55.2532 16.446 55.2619 16.1508H58.457V21ZM63.6318 18.5776C63.6318 19.3937 63.435 20.0247 63.0414 20.4704C62.6478 20.9132 62.124 21.1346 61.4699 21.1346C60.7955 21.1346 60.2645 20.9059 59.8766 20.4487C59.4917 19.9885 59.2993 19.3648 59.2993 18.5776C59.2993 17.7672 59.4975 17.1377 59.894 16.6891C60.2934 16.2405 60.8187 16.0162 61.4699 16.0162C62.124 16.0162 62.6478 16.2405 63.0414 16.6891C63.435 17.1348 63.6318 17.7643 63.6318 18.5776ZM62.7896 18.5776C62.7896 17.9495 62.6753 17.4836 62.4467 17.1797C62.218 16.8729 61.8924 16.7195 61.4699 16.7195C61.0444 16.7195 60.716 16.8729 60.4844 17.1797C60.2558 17.4836 60.1415 17.9495 60.1415 18.5776C60.1415 19.1853 60.2558 19.647 60.4844 19.9624C60.716 20.275 61.0444 20.4313 61.4699 20.4313C61.8895 20.4313 62.2137 20.2779 62.4423 19.9711C62.6739 19.6614 62.7896 19.1969 62.7896 18.5776ZM67.552 16.8671H65.2859V21H64.4697V16.1508H67.552V16.8671ZM71.9888 21H71.1813V17.3837L68.8978 21H68.1598V16.1508H68.9673V19.7106L71.2247 16.1508H71.9888V21ZM76.8163 21H76.0001V19.1072C75.7454 19.1911 75.498 19.2563 75.2578 19.3026C75.0176 19.3489 74.7802 19.372 74.5458 19.372C74.3403 19.372 74.1392 19.346 73.9424 19.2939C73.7485 19.2389 73.5806 19.1506 73.4388 19.0291C73.297 18.9075 73.187 18.7527 73.1088 18.5645C73.0336 18.3735 72.996 18.1492 72.996 17.8916V16.1508H73.8121V17.4662C73.8121 17.6804 73.8208 17.8511 73.8382 17.9785C73.8555 18.1029 73.9033 18.2245 73.9814 18.3431C74.048 18.4444 74.1479 18.5226 74.281 18.5776C74.417 18.6326 74.595 18.6601 74.815 18.6601C75.006 18.6601 75.21 18.6412 75.4271 18.6036C75.647 18.566 75.8381 18.5211 76.0001 18.469V16.1508H76.8163V21ZM80.1026 21.1129C79.3299 21.1129 78.7293 20.8958 78.301 20.4617C77.8756 20.0247 77.6628 19.4053 77.6628 18.6036C77.6628 17.8135 77.8698 17.1855 78.2836 16.7195C78.6975 16.2506 79.2387 16.0162 79.9073 16.0162C80.2083 16.0162 80.4745 16.0596 80.7061 16.1465C80.9376 16.2333 81.1402 16.3693 81.3139 16.5545C81.4875 16.7398 81.6206 16.967 81.7133 17.2361C81.8059 17.5024 81.8522 17.8294 81.8522 18.2172V18.6601H78.492C78.492 19.2244 78.6338 19.6557 78.9175 19.9538C79.2011 20.2519 79.5933 20.4009 80.094 20.4009C80.2734 20.4009 80.4485 20.3806 80.6193 20.3401C80.7929 20.2996 80.9492 20.2475 81.0881 20.1838C81.2357 20.1173 81.3602 20.0536 81.4615 19.9928C81.5628 19.9292 81.6467 19.8698 81.7133 19.8148H81.761V20.7048C81.6655 20.7424 81.5468 20.7902 81.405 20.8481C81.2632 20.903 81.1359 20.9465 81.023 20.9783C80.8638 21.0217 80.7191 21.055 80.5889 21.0781C80.4615 21.1013 80.2994 21.1129 80.1026 21.1129ZM81.0577 18.0349C81.0519 17.815 81.0259 17.6254 80.9796 17.4662C80.9333 17.307 80.8667 17.1724 80.7799 17.0625C80.6844 16.9409 80.5614 16.8483 80.4109 16.7846C80.2633 16.721 80.0795 16.6891 79.8595 16.6891C79.6425 16.6891 79.4572 16.7224 79.3038 16.789C79.1533 16.8526 79.0159 16.9467 78.8914 17.0711C78.7699 17.1985 78.6773 17.3403 78.6136 17.4966C78.5499 17.65 78.5094 17.8294 78.492 18.0349H81.0577ZM84.6045 21.1085C84.2717 21.1085 83.9664 21.0579 83.6885 20.9566C83.4107 20.8524 83.1719 20.6961 82.9722 20.4877C82.7725 20.2793 82.6177 20.0174 82.5077 19.702C82.3977 19.3836 82.3427 19.0102 82.3427 18.5819C82.3427 18.1565 82.3992 17.7889 82.512 17.4792C82.6278 17.1695 82.7812 16.9091 82.9722 16.6978C83.1632 16.4865 83.4006 16.3244 83.6842 16.2116C83.9707 16.0958 84.2775 16.0379 84.6045 16.0379C84.8708 16.0379 85.1269 16.0755 85.3729 16.1508C85.6218 16.226 85.8432 16.3129 86.0372 16.4113V17.3273H85.9894C85.9315 17.2781 85.8563 17.2216 85.7637 17.158C85.6739 17.0943 85.564 17.0292 85.4337 16.9626C85.3209 16.9047 85.1877 16.8541 85.0343 16.8107C84.8809 16.7673 84.7333 16.7456 84.5915 16.7456C84.169 16.7456 83.8289 16.9062 83.5713 17.2274C83.3166 17.5458 83.1893 17.9973 83.1893 18.5819C83.1893 19.155 83.3123 19.6021 83.5583 19.9234C83.8072 20.2417 84.1516 20.4009 84.5915 20.4009C84.8578 20.4009 85.111 20.3459 85.3512 20.2359C85.5915 20.126 85.8042 19.9841 85.9894 19.8105H86.0372V20.7265C85.9561 20.7641 85.8548 20.8104 85.7333 20.8654C85.6117 20.9175 85.5017 20.9566 85.4033 20.9826C85.2644 21.0232 85.14 21.0535 85.03 21.0738C84.92 21.097 84.7782 21.1085 84.6045 21.1085ZM90.6867 21H89.6708L88.0081 18.7642H87.6V21H86.7839V16.1508H87.6V18.2607C87.8113 18.2578 87.9907 18.2143 88.1383 18.1304C88.2888 18.0436 88.4162 17.8772 88.5204 17.6312C88.5522 17.5588 88.5869 17.4749 88.6246 17.3794C88.6651 17.2839 88.6969 17.1999 88.7201 17.1276C88.8474 16.7716 89.024 16.5198 89.2497 16.3722C89.4754 16.2246 89.7692 16.1508 90.131 16.1508H90.3524V16.8541H90.1657C89.9371 16.8541 89.7649 16.9018 89.6491 16.9973C89.5362 17.09 89.4407 17.2607 89.3626 17.5096C89.2815 17.7614 89.186 17.9582 89.076 18.1C88.9661 18.239 88.8445 18.346 88.7114 18.4213L90.6867 21ZM93.9209 19.8061V18.4604C93.727 18.4777 93.481 18.5023 93.1829 18.5342C92.8877 18.5631 92.6489 18.6051 92.4666 18.6601C92.2495 18.7266 92.0701 18.8294 91.9283 18.9683C91.7865 19.1043 91.7155 19.2953 91.7155 19.5413C91.7155 19.8192 91.7937 20.029 91.95 20.1708C92.1063 20.3126 92.3349 20.3835 92.6359 20.3835C92.8935 20.3835 93.1265 20.3285 93.3348 20.2186C93.5432 20.1057 93.7386 19.9682 93.9209 19.8061ZM93.9209 20.4834C93.8543 20.5326 93.7646 20.602 93.6518 20.6918C93.5418 20.7786 93.4347 20.8481 93.3305 20.9002C93.1858 20.9754 93.0454 21.0333 92.9094 21.0738C92.7763 21.1143 92.5881 21.1346 92.345 21.1346C92.1453 21.1346 91.9558 21.097 91.7763 21.0217C91.5969 20.9465 91.4392 20.8408 91.3031 20.7048C91.1729 20.5717 91.0687 20.4081 90.9906 20.2142C90.9124 20.0174 90.8733 19.8105 90.8733 19.5934C90.8733 19.2577 90.9442 18.9726 91.0861 18.7382C91.2279 18.5009 91.4522 18.3128 91.759 18.1738C92.031 18.0494 92.3523 17.964 92.7227 17.9177C93.0932 17.8685 93.4926 17.8323 93.9209 17.8092V17.6529C93.9209 17.4619 93.892 17.3085 93.8341 17.1927C93.7762 17.074 93.6952 16.9829 93.591 16.9192C93.4868 16.8526 93.3594 16.8092 93.2089 16.789C93.0584 16.7658 92.9036 16.7542 92.7444 16.7542C92.5563 16.7542 92.3349 16.7832 92.0802 16.8411C91.8255 16.896 91.5708 16.9771 91.3161 17.0842H91.2684V16.255C91.4189 16.2116 91.6345 16.1638 91.9152 16.1117C92.196 16.0596 92.4738 16.0336 92.7488 16.0336C93.0816 16.0336 93.3623 16.0596 93.591 16.1117C93.8196 16.1638 94.0251 16.2579 94.2074 16.3939C94.384 16.527 94.5157 16.6992 94.6025 16.9105C94.6893 17.1218 94.7327 17.3794 94.7327 17.6833V21H93.9209V20.4834ZM99.3953 21H98.5791V19.0768H97.7716L96.3347 21H95.3839L96.9424 19.003C96.5401 18.8844 96.2449 18.7078 96.0568 18.4734C95.8716 18.239 95.779 17.9249 95.779 17.5313C95.779 17.2911 95.8311 17.0813 95.9353 16.9018C96.0423 16.7195 96.1856 16.5661 96.365 16.4417C96.5098 16.3433 96.6921 16.2709 96.9121 16.2246C97.132 16.1754 97.378 16.1508 97.6501 16.1508H99.3953V21ZM98.5791 18.4343V16.802H97.6935C97.5054 16.802 97.3563 16.8121 97.2463 16.8324C97.1392 16.8526 97.0351 16.8917 96.9338 16.9496C96.8296 17.0133 96.75 17.1001 96.695 17.2101C96.6429 17.3172 96.6168 17.4329 96.6168 17.5574C96.6168 17.7166 96.6342 17.8468 96.6689 17.9481C96.7066 18.0465 96.7731 18.1377 96.8686 18.2216C96.9699 18.3084 97.0929 18.3663 97.2376 18.3952C97.3852 18.4213 97.5459 18.4343 97.7195 18.4343H98.5791ZM107.17 16.1508L104.561 22.7886H103.689L104.557 20.7656L102.794 16.1508H103.676L105 19.741L106.32 16.1508H107.17ZM109.714 21.1085C109.382 21.1085 109.076 21.0579 108.798 20.9566C108.521 20.8524 108.282 20.6961 108.082 20.4877C107.882 20.2793 107.728 20.0174 107.618 19.702C107.508 19.3836 107.453 19.0102 107.453 18.5819C107.453 18.1565 107.509 17.7889 107.622 17.4792C107.738 17.1695 107.891 16.9091 108.082 16.6978C108.273 16.4865 108.51 16.3244 108.794 16.2116C109.081 16.0958 109.387 16.0379 109.714 16.0379C109.981 16.0379 110.237 16.0755 110.483 16.1508C110.732 16.226 110.953 16.3129 111.147 16.4113V17.3273H111.099C111.041 17.2781 110.966 17.2216 110.874 17.158C110.784 17.0943 110.674 17.0292 110.544 16.9626C110.431 16.9047 110.298 16.8541 110.144 16.8107C109.991 16.7673 109.843 16.7456 109.701 16.7456C109.279 16.7456 108.939 16.9062 108.681 17.2274C108.427 17.5458 108.299 17.9973 108.299 18.5819C108.299 19.155 108.422 19.6021 108.668 19.9234C108.917 20.2417 109.262 20.4009 109.701 20.4009C109.968 20.4009 110.221 20.3459 110.461 20.2359C110.701 20.126 110.914 19.9841 111.099 19.8105H111.147V20.7265C111.066 20.7641 110.965 20.8104 110.843 20.8654C110.722 20.9175 110.612 20.9566 110.513 20.9826C110.374 21.0232 110.25 21.0535 110.14 21.0738C110.03 21.097 109.888 21.1085 109.714 21.1085ZM115.436 16.8671H113.787V21H112.97V16.8671H111.321V16.1508H115.436V16.8671ZM118.753 19.8061V18.4604C118.559 18.4777 118.313 18.5023 118.015 18.5342C117.72 18.5631 117.481 18.6051 117.299 18.6601C117.082 18.7266 116.902 18.8294 116.76 18.9683C116.619 19.1043 116.548 19.2953 116.548 19.5413C116.548 19.8192 116.626 20.029 116.782 20.1708C116.938 20.3126 117.167 20.3835 117.468 20.3835C117.726 20.3835 117.959 20.3285 118.167 20.2186C118.375 20.1057 118.571 19.9682 118.753 19.8061ZM118.753 20.4834C118.686 20.5326 118.597 20.602 118.484 20.6918C118.374 20.7786 118.267 20.8481 118.163 20.9002C118.018 20.9754 117.878 21.0333 117.741 21.0738C117.608 21.1143 117.42 21.1346 117.177 21.1346C116.977 21.1346 116.788 21.097 116.608 21.0217C116.429 20.9465 116.271 20.8408 116.135 20.7048C116.005 20.5717 115.901 20.4081 115.823 20.2142C115.744 20.0174 115.705 19.8105 115.705 19.5934C115.705 19.2577 115.776 18.9726 115.918 18.7382C116.06 18.5009 116.284 18.3128 116.591 18.1738C116.863 18.0494 117.184 17.964 117.555 17.9177C117.925 17.8685 118.325 17.8323 118.753 17.8092V17.6529C118.753 17.4619 118.724 17.3085 118.666 17.1927C118.608 17.074 118.527 16.9829 118.423 16.9192C118.319 16.8526 118.192 16.8092 118.041 16.789C117.891 16.7658 117.736 16.7542 117.577 16.7542C117.388 16.7542 117.167 16.7832 116.912 16.8411C116.658 16.896 116.403 16.9771 116.148 17.0842H116.1V16.255C116.251 16.2116 116.467 16.1638 116.747 16.1117C117.028 16.0596 117.306 16.0336 117.581 16.0336C117.914 16.0336 118.194 16.0596 118.423 16.1117C118.652 16.1638 118.857 16.2579 119.04 16.3939C119.216 16.527 119.348 16.6992 119.435 16.9105C119.521 17.1218 119.565 17.3794 119.565 17.6833V21H118.753V20.4834ZM124.544 21H123.728V18.8163H121.531V21H120.715V16.1508H121.531V18.1131H123.728V16.1508H124.544V21ZM129.715 18.5776C129.715 19.3937 129.518 20.0247 129.124 20.4704C128.731 20.9132 128.207 21.1346 127.553 21.1346C126.878 21.1346 126.347 20.9059 125.96 20.4487C125.575 19.9885 125.382 19.3648 125.382 18.5776C125.382 17.7672 125.58 17.1377 125.977 16.6891C126.376 16.2405 126.902 16.0162 127.553 16.0162C128.207 16.0162 128.731 16.2405 129.124 16.6891C129.518 17.1348 129.715 17.7643 129.715 18.5776ZM128.873 18.5776C128.873 17.9495 128.758 17.4836 128.53 17.1797C128.301 16.8729 127.975 16.7195 127.553 16.7195C127.127 16.7195 126.799 16.8729 126.567 17.1797C126.339 17.4836 126.224 17.9495 126.224 18.5776C126.224 19.1853 126.339 19.647 126.567 19.9624C126.799 20.275 127.127 20.4313 127.553 20.4313C127.972 20.4313 128.297 20.2779 128.525 19.9711C128.757 19.6614 128.873 19.1969 128.873 18.5776ZM134.356 19.5326C134.356 19.7671 134.311 19.9755 134.221 20.1578C134.131 20.3372 134.008 20.4877 133.852 20.6093C133.655 20.7627 133.448 20.8669 133.231 20.9219C133.017 20.974 132.759 21 132.458 21H130.553V16.1508H132.333C132.688 16.1508 132.949 16.1624 133.114 16.1855C133.279 16.2058 133.442 16.2608 133.604 16.3505C133.775 16.4431 133.901 16.5661 133.982 16.7195C134.063 16.8729 134.104 17.0552 134.104 17.2665C134.104 17.498 134.04 17.7064 133.913 17.8916C133.785 18.074 133.616 18.2158 133.405 18.3171L133.427 18.3475C133.69 18.414 133.91 18.5486 134.086 18.7512C134.266 18.9538 134.356 19.2143 134.356 19.5326ZM133.266 17.3924C133.266 17.2824 133.247 17.1869 133.209 17.1059C133.175 17.0248 133.112 16.9612 133.023 16.9149C132.919 16.8599 132.801 16.828 132.671 16.8194C132.544 16.8078 132.366 16.802 132.137 16.802H131.36V18.1304H132.298C132.497 18.1304 132.639 18.1217 132.723 18.1044C132.807 18.0841 132.9 18.0436 133.001 17.9828C133.097 17.9249 133.165 17.8468 133.205 17.7484C133.246 17.65 133.266 17.5313 133.266 17.3924ZM133.513 19.537C133.513 19.372 133.489 19.2403 133.44 19.1419C133.393 19.0406 133.289 18.9509 133.127 18.8728C133.026 18.8236 132.917 18.7932 132.801 18.7816C132.686 18.77 132.525 18.7642 132.319 18.7642H131.36V20.3488H132.068C132.36 20.3488 132.587 20.3372 132.749 20.3141C132.911 20.2909 133.05 20.2446 133.166 20.1752C133.288 20.0999 133.376 20.0131 133.431 19.9147C133.486 19.8163 133.513 19.6904 133.513 19.537ZM139.118 21H138.102L136.439 18.7642H136.031V21H135.215V16.1508H136.031V18.2607C136.243 18.2578 136.422 18.2143 136.57 18.1304C136.72 18.0436 136.847 17.8772 136.952 17.6312C136.983 17.5588 137.018 17.4749 137.056 17.3794C137.096 17.2839 137.128 17.1999 137.151 17.1276C137.279 16.7716 137.455 16.5198 137.681 16.3722C137.907 16.2246 138.2 16.1508 138.562 16.1508H138.784V16.8541H138.597C138.368 16.8541 138.196 16.9018 138.08 16.9973C137.967 17.09 137.872 17.2607 137.794 17.5096C137.713 17.7614 137.617 17.9582 137.507 18.1C137.397 18.239 137.276 18.346 137.143 18.4213L139.118 21ZM142.352 19.8061V18.4604C142.158 18.4777 141.912 18.5023 141.614 18.5342C141.319 18.5631 141.08 18.6051 140.898 18.6601C140.681 18.7266 140.501 18.8294 140.36 18.9683C140.218 19.1043 140.147 19.2953 140.147 19.5413C140.147 19.8192 140.225 20.029 140.381 20.1708C140.538 20.3126 140.766 20.3835 141.067 20.3835C141.325 20.3835 141.558 20.3285 141.766 20.2186C141.974 20.1057 142.17 19.9682 142.352 19.8061ZM142.352 20.4834C142.286 20.5326 142.196 20.602 142.083 20.6918C141.973 20.7786 141.866 20.8481 141.762 20.9002C141.617 20.9754 141.477 21.0333 141.341 21.0738C141.208 21.1143 141.019 21.1346 140.776 21.1346C140.577 21.1346 140.387 21.097 140.208 21.0217C140.028 20.9465 139.87 20.8408 139.734 20.7048C139.604 20.5717 139.5 20.4081 139.422 20.2142C139.344 20.0174 139.305 19.8105 139.305 19.5934C139.305 19.2577 139.375 18.9726 139.517 18.7382C139.659 18.5009 139.883 18.3128 140.19 18.1738C140.462 18.0494 140.784 17.964 141.154 17.9177C141.524 17.8685 141.924 17.8323 142.352 17.8092V17.6529C142.352 17.4619 142.323 17.3085 142.265 17.1927C142.207 17.074 142.126 16.9829 142.022 16.9192C141.918 16.8526 141.791 16.8092 141.64 16.789C141.49 16.7658 141.335 16.7542 141.176 16.7542C140.988 16.7542 140.766 16.7832 140.511 16.8411C140.257 16.896 140.002 16.9771 139.747 17.0842H139.7V16.255C139.85 16.2116 140.066 16.1638 140.346 16.1117C140.627 16.0596 140.905 16.0336 141.18 16.0336C141.513 16.0336 141.794 16.0596 142.022 16.1117C142.251 16.1638 142.456 16.2579 142.639 16.3939C142.815 16.527 142.947 16.6992 143.034 16.9105C143.121 17.1218 143.164 17.3794 143.164 17.6833V21H142.352V20.4834Z" fill="#D7E2F2"/>
<line x1="17.6825" y1="100" x2="17.6825" y2="30" stroke="#0089FF" stroke-width="0.635066" stroke-dasharray="0.64 0.64"/>
<rect x="26" y="36" width="293" height="25" fill="#5C6585" fill-opacity="0.1"/>
<path d="M43.0111 52.1172C42.5885 52.1172 42.1993 52.0463 41.8433 51.9045C41.4902 51.7627 41.1848 51.5514 40.9273 51.2707C40.6697 50.9899 40.47 50.6397 40.3282 50.2201C40.1863 49.8004 40.1154 49.3185 40.1154 48.7744C40.1154 48.2332 40.1835 47.7615 40.3195 47.3592C40.4584 46.9569 40.6595 46.6067 40.9229 46.3086C41.1805 46.0192 41.4858 45.7992 41.8389 45.6487C42.192 45.4953 42.5871 45.4186 43.0241 45.4186C43.2412 45.4186 43.4438 45.4345 43.6319 45.4664C43.8229 45.4982 43.9994 45.5387 44.1615 45.5879C44.3004 45.6314 44.4422 45.6863 44.587 45.7529C44.7346 45.8166 44.8793 45.8875 45.0211 45.9656V47.0032H44.9516C44.8764 46.9337 44.7794 46.8498 44.6608 46.7514C44.5421 46.653 44.3974 46.556 44.2266 46.4605C44.0617 46.3708 43.8822 46.297 43.6883 46.2391C43.4944 46.1812 43.2701 46.1523 43.0154 46.1523C42.7405 46.1523 42.48 46.2087 42.234 46.3216C41.988 46.4345 41.7724 46.6009 41.5871 46.8209C41.4048 47.0408 41.263 47.3172 41.1617 47.65C41.0604 47.9829 41.0097 48.3577 41.0097 48.7744C41.0097 49.2172 41.0633 49.5993 41.1704 49.9205C41.2775 50.2389 41.4236 50.508 41.6088 50.728C41.7883 50.9422 41.9996 51.1043 42.2427 51.2142C42.4858 51.3213 42.7434 51.3749 43.0154 51.3749C43.2643 51.3749 43.4944 51.3445 43.7057 51.2837C43.917 51.2229 44.1051 51.1462 44.27 51.0536C44.4292 50.9639 44.5667 50.8727 44.6825 50.7801C44.7982 50.6846 44.8894 50.6036 44.956 50.537H45.0211V51.5615C44.8793 51.6281 44.7447 51.6918 44.6173 51.7525C44.4929 51.8133 44.3409 51.8727 44.1615 51.9305C43.9734 51.9913 43.7983 52.0376 43.6362 52.0695C43.477 52.1013 43.2687 52.1172 43.0111 52.1172ZM49.5881 52H48.7719V47.8541H46.5753V52H45.7591V47.1508H49.5881V52ZM54.8367 49.4473C54.8367 50.2548 54.6428 50.8988 54.255 51.3792C53.87 51.8567 53.3824 52.0955 52.792 52.0955C52.5517 52.0955 52.339 52.068 52.1538 52.013C51.9686 51.958 51.779 51.8727 51.5851 51.7569V53.7886H50.7689V47.1508H51.5851V47.6587C51.7877 47.4764 52.012 47.3244 52.258 47.2029C52.5069 47.0784 52.7775 47.0162 53.0698 47.0162C53.6255 47.0162 54.0582 47.2362 54.3678 47.6761C54.6804 48.116 54.8367 48.7064 54.8367 49.4473ZM53.9945 49.5385C53.9945 48.9857 53.9062 48.5574 53.7297 48.2535C53.5531 47.9467 53.2666 47.7933 52.8701 47.7933C52.6386 47.7933 52.4143 47.8454 52.1972 47.9496C51.983 48.0509 51.779 48.1826 51.5851 48.3446V51.0927C51.7993 51.1969 51.9816 51.2678 52.1321 51.3054C52.2855 51.343 52.4606 51.3618 52.6574 51.3618C53.0799 51.3618 53.4084 51.207 53.6429 50.8973C53.8773 50.5876 53.9945 50.1347 53.9945 49.5385ZM58.3922 50.8061V49.4604C58.1983 49.4777 57.9523 49.5023 57.6542 49.5342C57.359 49.5631 57.1202 49.6051 56.9379 49.6601C56.7208 49.7266 56.5414 49.8294 56.3996 49.9683C56.2577 50.1043 56.1868 50.2953 56.1868 50.5413C56.1868 50.8192 56.265 51.029 56.4213 51.1708C56.5776 51.3126 56.8062 51.3835 57.1072 51.3835C57.3648 51.3835 57.5978 51.3285 57.8061 51.2186C58.0145 51.1057 58.2099 50.9682 58.3922 50.8061ZM58.3922 51.4834C58.3256 51.5326 58.2359 51.602 58.123 51.6918C58.0131 51.7786 57.906 51.8481 57.8018 51.9002C57.6571 51.9754 57.5167 52.0333 57.3807 52.0738C57.2476 52.1143 57.0594 52.1346 56.8163 52.1346C56.6166 52.1346 56.4271 52.097 56.2476 52.0217C56.0682 51.9465 55.9104 51.8408 55.7744 51.7048C55.6442 51.5717 55.54 51.4081 55.4618 51.2142C55.3837 51.0174 55.3446 50.8105 55.3446 50.5934C55.3446 50.2577 55.4155 49.9726 55.5574 49.7382C55.6992 49.5009 55.9235 49.3128 56.2303 49.1738C56.5023 49.0494 56.8236 48.964 57.194 48.9177C57.5645 48.8685 57.9639 48.8323 58.3922 48.8092V48.6529C58.3922 48.4619 58.3633 48.3085 58.3054 48.1927C58.2475 48.074 58.1665 47.9829 58.0623 47.9192C57.9581 47.8526 57.8307 47.8092 57.6802 47.789C57.5297 47.7658 57.3749 47.7542 57.2157 47.7542C57.0276 47.7542 56.8062 47.7832 56.5515 47.8411C56.2968 47.896 56.0421 47.9771 55.7874 48.0842H55.7397V47.255C55.8902 47.2116 56.1058 47.1638 56.3865 47.1117C56.6673 47.0596 56.9451 47.0336 57.2201 47.0336C57.5529 47.0336 57.8336 47.0596 58.0623 47.1117C58.2909 47.1638 58.4964 47.2579 58.6787 47.3939C58.8553 47.527 58.987 47.6992 59.0738 47.9105C59.1606 48.1218 59.204 48.3794 59.204 48.6833V52H58.3922V51.4834ZM64.1574 50.5326C64.1574 50.7671 64.1126 50.9755 64.0228 51.1578C63.9331 51.3372 63.8101 51.4877 63.6538 51.6093C63.457 51.7627 63.2501 51.8669 63.033 51.9219C62.8189 51.974 62.5613 52 62.2603 52H60.3545V47.1508H62.1344C62.4904 47.1508 62.7508 47.1624 62.9158 47.1855C63.0808 47.2058 63.2443 47.2608 63.4064 47.3505C63.5771 47.4431 63.703 47.5661 63.7841 47.7195C63.8651 47.8729 63.9056 48.0552 63.9056 48.2665C63.9056 48.498 63.8419 48.7064 63.7146 48.8916C63.5873 49.074 63.418 49.2158 63.2067 49.3171L63.2284 49.3475C63.4918 49.414 63.7117 49.5486 63.8883 49.7512C64.0677 49.9538 64.1574 50.2143 64.1574 50.5326ZM63.0678 48.3924C63.0678 48.2824 63.0489 48.1869 63.0113 48.1059C62.9766 48.0248 62.9144 47.9612 62.8246 47.9149C62.7205 47.8599 62.6032 47.828 62.473 47.8194C62.3457 47.8078 62.1677 47.802 61.939 47.802H61.1619V49.1304H62.0997C62.2993 49.1304 62.4412 49.1217 62.5251 49.1044C62.609 49.0841 62.7016 49.0436 62.8029 48.9828C62.8984 48.9249 62.9665 48.8468 63.007 48.7484C63.0475 48.65 63.0678 48.5313 63.0678 48.3924ZM63.3152 50.537C63.3152 50.372 63.2906 50.2403 63.2414 50.1419C63.1951 50.0406 63.0909 49.9509 62.9288 49.8728C62.8275 49.8236 62.719 49.7932 62.6032 49.7816C62.4875 49.77 62.3268 49.7642 62.1214 49.7642H61.1619V51.3488H61.8696C62.1619 51.3488 62.3891 51.3372 62.5511 51.3141C62.7132 51.2909 62.8521 51.2446 62.9679 51.1752C63.0895 51.0999 63.1777 51.0131 63.2327 50.9147C63.2877 50.8163 63.3152 50.6904 63.3152 50.537ZM69.0066 49.5776C69.0066 50.3937 68.8098 51.0247 68.4162 51.4704C68.0226 51.9132 67.4987 52.1346 66.8447 52.1346C66.1703 52.1346 65.6392 51.9059 65.2514 51.4487C64.8665 50.9885 64.674 50.3648 64.674 49.5776C64.674 48.7672 64.8723 48.1377 65.2688 47.6891C65.6682 47.2405 66.1935 47.0162 66.8447 47.0162C67.4987 47.0162 68.0226 47.2405 68.4162 47.6891C68.8098 48.1348 69.0066 48.7643 69.0066 49.5776ZM68.1644 49.5776C68.1644 48.9495 68.0501 48.4836 67.8215 48.1797C67.5928 47.8729 67.2672 47.7195 66.8447 47.7195C66.4192 47.7195 66.0907 47.8729 65.8592 48.1797C65.6306 48.4836 65.5162 48.9495 65.5162 49.5776C65.5162 50.1853 65.6306 50.647 65.8592 50.9624C66.0907 51.275 66.4192 51.4313 66.8447 51.4313C67.2643 51.4313 67.5885 51.2779 67.8171 50.9711C68.0486 50.6614 68.1644 50.1969 68.1644 49.5776ZM73.4912 52H72.675V50.1072C72.4203 50.1911 72.1729 50.2563 71.9326 50.3026C71.6924 50.3489 71.4551 50.372 71.2207 50.372C71.0152 50.372 70.814 50.346 70.6172 50.2939C70.4233 50.2389 70.2555 50.1506 70.1136 50.0291C69.9718 49.9075 69.8618 49.7527 69.7837 49.5645C69.7085 49.3735 69.6708 49.1492 69.6708 48.8916V47.1508H70.487V48.4662C70.487 48.6804 70.4957 48.8511 70.513 48.9785C70.5304 49.1029 70.5782 49.2245 70.6563 49.3431C70.7229 49.4444 70.8227 49.5226 70.9558 49.5776C71.0919 49.6326 71.2699 49.6601 71.4898 49.6601C71.6808 49.6601 71.8849 49.6412 72.1019 49.6036C72.3219 49.566 72.5129 49.5211 72.675 49.469V47.1508H73.4912V52ZM78.501 52H77.6848V49.8163H75.4881V52H74.672V47.1508H75.4881V49.1131H77.6848V47.1508H78.501V52ZM83.5108 52H82.7033V48.3837L80.4198 52H79.6818V47.1508H80.4893V50.7106L82.7467 47.1508H83.5108V52ZM88.5944 52H87.5786L85.9159 49.7642H85.5078V52H84.6916V47.1508H85.5078V49.2607C85.7191 49.2578 85.8985 49.2143 86.0461 49.1304C86.1966 49.0436 86.324 48.8772 86.4281 48.6312C86.46 48.5588 86.4947 48.4749 86.5323 48.3794C86.5729 48.2839 86.6047 48.1999 86.6278 48.1276C86.7552 47.7716 86.9317 47.5198 87.1575 47.3722C87.3832 47.2246 87.677 47.1508 88.0388 47.1508H88.2602V47.8541H88.0735C87.8449 47.8541 87.6726 47.9018 87.5569 47.9973C87.444 48.09 87.3485 48.2607 87.2704 48.5096C87.1893 48.7614 87.0938 48.9582 86.9838 49.1C86.8739 49.239 86.7523 49.346 86.6192 49.4213L88.5944 52Z" fill="#8C99B2"/>
<rect x="26.5" y="36.5" width="292" height="24" stroke="#5C6585" stroke-opacity="0.25"/>
<line x1="25.7393" y1="48.8125" x2="17.7013" y2="48.8125" stroke="#0089FF" stroke-width="0.635066" stroke-dasharray="0.64 0.64"/>
<rect width="0.949895" height="24.7595" transform="translate(25.7393 36.1152)" fill="#4B5169"/>
<g clip-path="url(#clip0)">
<path d="M17.7013 21.8888C15.2563 21.8888 13.2559 19.8883 13.2559 17.4433C13.2559 14.9983 15.2563 12.9979 17.7013 12.9979C20.1463 12.9979 22.1468 14.9983 22.1468 17.4433C22.1468 19.8883 20.1463 21.8888 17.7013 21.8888Z" stroke="#0089FF" stroke-width="0.76208" stroke-miterlimit="10" stroke-linecap="round" stroke-linejoin="round"/>
<path d="M17.7013 15.4111V19.4756" stroke="#0089FF" stroke-width="0.76208" stroke-miterlimit="10" stroke-linecap="round" stroke-linejoin="round"/>
<path d="M15.6692 17.4434H19.7336" stroke="#0089FF" stroke-width="0.76208" stroke-miterlimit="10" stroke-linecap="round" stroke-linejoin="round"/>
</g>
<rect width="2" height="25" transform="translate(5 5)" fill="#0089FF"/>
<path opacity="0.2" fill-rule="evenodd" clip-rule="evenodd" d="M7 30V5H67V7.70979V27.1154V30H7Z" fill="url(#paint0_linear)"/>
<rect x="26" y="88" width="293" height="25" fill="#5C6585" fill-opacity="0.1"/>
<path d="M45.7331 105.463H44.9169V103.983H40.7232V105.463H39.9071V103.236H40.2587C40.6349 102.619 40.9374 101.812 41.166 100.814C41.3976 99.8121 41.5133 98.7196 41.5133 97.5358H45.1209V103.236H45.7331V105.463ZM44.2614 103.236V98.2825H42.3208C42.2803 99.3273 42.1501 100.275 41.9301 101.126C41.7101 101.977 41.4294 102.68 41.0879 103.236H44.2614ZM50.3261 104H49.5186V100.384L47.2351 104H46.4971V99.1508H47.3046V102.711L49.5621 99.1508H50.3261V104ZM54.2159 102.806V101.46C54.022 101.478 53.776 101.502 53.4779 101.534C53.1827 101.563 52.9439 101.605 52.7616 101.66C52.5445 101.727 52.3651 101.829 52.2233 101.968C52.0814 102.104 52.0105 102.295 52.0105 102.541C52.0105 102.819 52.0887 103.029 52.245 103.171C52.4012 103.313 52.6299 103.384 52.9309 103.384C53.1885 103.384 53.4214 103.329 53.6298 103.219C53.8382 103.106 54.0336 102.968 54.2159 102.806ZM54.2159 103.483C54.1493 103.533 54.0596 103.602 53.9467 103.692C53.8368 103.779 53.7297 103.848 53.6255 103.9C53.4808 103.975 53.3404 104.033 53.2044 104.074C53.0712 104.114 52.8831 104.135 52.64 104.135C52.4403 104.135 52.2507 104.097 52.0713 104.022C51.8919 103.946 51.7341 103.841 51.5981 103.705C51.4679 103.572 51.3637 103.408 51.2855 103.214C51.2074 103.017 51.1683 102.81 51.1683 102.593C51.1683 102.258 51.2392 101.973 51.381 101.738C51.5229 101.501 51.7472 101.313 52.0539 101.174C52.326 101.049 52.6473 100.964 53.0177 100.918C53.3882 100.868 53.7876 100.832 54.2159 100.809V100.653C54.2159 100.462 54.187 100.308 54.1291 100.193C54.0712 100.074 53.9902 99.9829 53.886 99.9192C53.7818 99.8526 53.6544 99.8092 53.5039 99.789C53.3534 99.7658 53.1986 99.7542 53.0394 99.7542C52.8513 99.7542 52.6299 99.7832 52.3752 99.8411C52.1205 99.896 51.8658 99.9771 51.6111 100.084H51.5634V99.255C51.7139 99.2116 51.9295 99.1638 52.2102 99.1117C52.491 99.0596 52.7688 99.0336 53.0438 99.0336C53.3766 99.0336 53.6573 99.0596 53.886 99.1117C54.1146 99.1638 54.3201 99.2579 54.5024 99.3939C54.679 99.527 54.8107 99.6992 54.8975 99.9105C54.9843 100.122 55.0277 100.379 55.0277 100.683V104H54.2159V103.483ZM60.0072 104H59.191V99.8541H56.9943V104H56.1782V99.1508H60.0072V104ZM63.8969 102.806V101.46C63.703 101.478 63.457 101.502 63.1589 101.534C62.8637 101.563 62.6249 101.605 62.4426 101.66C62.2255 101.727 62.0461 101.829 61.9043 101.968C61.7625 102.104 61.6916 102.295 61.6916 102.541C61.6916 102.819 61.7697 103.029 61.926 103.171C62.0823 103.313 62.3109 103.384 62.6119 103.384C62.8695 103.384 63.1025 103.329 63.3109 103.219C63.5192 103.106 63.7146 102.968 63.8969 102.806ZM63.8969 103.483C63.8304 103.533 63.7407 103.602 63.6278 103.692C63.5178 103.779 63.4107 103.848 63.3065 103.9C63.1618 103.975 63.0214 104.033 62.8854 104.074C62.7523 104.114 62.5642 104.135 62.3211 104.135C62.1214 104.135 61.9318 104.097 61.7523 104.022C61.5729 103.946 61.4152 103.841 61.2792 103.705C61.1489 103.572 61.0447 103.408 60.9666 103.214C60.8884 103.017 60.8494 102.81 60.8494 102.593C60.8494 102.258 60.9203 101.973 61.0621 101.738C61.2039 101.501 61.4282 101.313 61.735 101.174C62.007 101.049 62.3283 100.964 62.6987 100.918C63.0692 100.868 63.4686 100.832 63.8969 100.809V100.653C63.8969 100.462 63.868 100.308 63.8101 100.193C63.7522 100.074 63.6712 99.9829 63.567 99.9192C63.4628 99.8526 63.3355 99.8092 63.185 99.789C63.0345 99.7658 62.8796 99.7542 62.7205 99.7542C62.5323 99.7542 62.3109 99.7832 62.0562 99.8411C61.8016 99.896 61.5469 99.9771 61.2922 100.084H61.2444V99.255C61.3949 99.2116 61.6105 99.1638 61.8913 99.1117C62.172 99.0596 62.4498 99.0336 62.7248 99.0336C63.0576 99.0336 63.3384 99.0596 63.567 99.1117C63.7956 99.1638 64.0011 99.2579 64.1835 99.3939C64.36 99.527 64.4917 99.6992 64.5785 99.9105C64.6653 100.122 64.7088 100.379 64.7088 100.683V104H63.8969V103.483ZM69.0717 102.659C69.0717 102.931 69.0124 103.161 68.8937 103.349C68.7751 103.537 68.6231 103.686 68.4379 103.796C68.2614 103.903 68.0602 103.983 67.8345 104.035C67.6087 104.087 67.383 104.113 67.1572 104.113C66.8389 104.113 66.5379 104.081 66.2543 104.017C65.9706 103.957 65.6884 103.858 65.4077 103.722V102.819H65.4598C65.6566 103.002 65.9026 103.146 66.1978 103.253C66.4959 103.357 66.7926 103.41 67.0878 103.41C67.2151 103.41 67.3511 103.397 67.4959 103.371C67.6435 103.342 67.7679 103.298 67.8692 103.24C68.0023 103.159 68.0964 103.072 68.1514 102.98C68.2093 102.887 68.2382 102.76 68.2382 102.598C68.2382 102.424 68.2049 102.285 68.1384 102.181C68.0747 102.074 67.9864 101.994 67.8735 101.942C67.7607 101.89 67.6333 101.858 67.4915 101.847C67.3526 101.832 67.205 101.825 67.0487 101.825H66.4757V101.122H66.9141C67.0241 101.122 67.1616 101.119 67.3265 101.113C67.4915 101.104 67.6232 101.081 67.7216 101.044C67.8461 100.997 67.9459 100.932 68.0211 100.848C68.0964 100.761 68.134 100.617 68.134 100.414C68.134 100.272 68.1022 100.158 68.0385 100.071C67.9748 99.9843 67.8953 99.9163 67.7997 99.8671C67.7013 99.815 67.5943 99.7803 67.4785 99.7629C67.3627 99.7427 67.2513 99.7325 67.1442 99.7325C66.8693 99.7325 66.6044 99.7716 66.3498 99.8497C66.098 99.925 65.8809 100.038 65.6986 100.188H65.6465V99.3071C65.8549 99.2347 66.0849 99.1711 66.3367 99.1161C66.5914 99.0611 66.8461 99.0336 67.1008 99.0336C67.3063 99.0336 67.5147 99.0553 67.7259 99.0987C67.9401 99.1392 68.1427 99.2101 68.3337 99.3114C68.5132 99.4098 68.6637 99.5459 68.7852 99.7195C68.9068 99.8903 68.9675 100.1 68.9675 100.349C68.9675 100.612 68.8923 100.844 68.7418 101.044C68.5942 101.24 68.3974 101.371 68.1514 101.434V101.465C68.4205 101.557 68.6405 101.699 68.8113 101.89C68.9849 102.081 69.0717 102.337 69.0717 102.659ZM73.9209 101.578C73.9209 102.394 73.7241 103.025 73.3305 103.47C72.9369 103.913 72.4131 104.135 71.759 104.135C71.0846 104.135 70.5536 103.906 70.1657 103.449C69.7808 102.988 69.5883 102.365 69.5883 101.578C69.5883 100.767 69.7866 100.138 70.1831 99.6891C70.5825 99.2405 71.1078 99.0162 71.759 99.0162C72.4131 99.0162 72.9369 99.2405 73.3305 99.6891C73.7241 100.135 73.9209 100.764 73.9209 101.578ZM73.0787 101.578C73.0787 100.95 72.9644 100.484 72.7358 100.18C72.5071 99.8729 72.1815 99.7195 71.759 99.7195C71.3335 99.7195 71.0051 99.8729 70.7735 100.18C70.5449 100.484 70.4306 100.95 70.4306 101.578C70.4306 102.185 70.5449 102.647 70.7735 102.962C71.0051 103.275 71.3335 103.431 71.759 103.431C72.1786 103.431 72.5028 103.278 72.7314 102.971C72.963 102.661 73.0787 102.197 73.0787 101.578ZM78.5878 104H77.7716V101.816H75.575V104H74.7588V99.1508H75.575V101.113H77.7716V99.1508H78.5878V104ZM86.3761 104H85.5599V99.8541H83.3632V104H82.547V99.1508H86.3761V104ZM91.6247 101.447C91.6247 102.255 91.4307 102.899 91.0429 103.379C90.658 103.857 90.1703 104.096 89.5799 104.096C89.3397 104.096 89.127 104.068 88.9417 104.013C88.7565 103.958 88.5669 103.873 88.373 103.757V105.789H87.5569V99.1508H88.373V99.6587C88.5756 99.4764 88.7999 99.3244 89.0459 99.2029C89.2948 99.0784 89.5654 99.0162 89.8578 99.0162C90.4134 99.0162 90.8461 99.2362 91.1558 99.6761C91.4684 100.116 91.6247 100.706 91.6247 101.447ZM90.7824 101.538C90.7824 100.986 90.6942 100.557 90.5176 100.253C90.3411 99.9467 90.0546 99.7933 89.6581 99.7933C89.4265 99.7933 89.2022 99.8454 88.9852 99.9496C88.771 100.051 88.5669 100.183 88.373 100.345V103.093C88.5872 103.197 88.7695 103.268 88.92 103.305C89.0734 103.343 89.2485 103.362 89.4453 103.362C89.8679 103.362 90.1964 103.207 90.4308 102.897C90.6652 102.588 90.7824 102.135 90.7824 101.538ZM96.4608 101.578C96.4608 102.394 96.264 103.025 95.8704 103.47C95.4768 103.913 94.953 104.135 94.2989 104.135C93.6245 104.135 93.0934 103.906 92.7056 103.449C92.3207 102.988 92.1282 102.365 92.1282 101.578C92.1282 100.767 92.3265 100.138 92.723 99.6891C93.1224 99.2405 93.6477 99.0162 94.2989 99.0162C94.953 99.0162 95.4768 99.2405 95.8704 99.6891C96.264 100.135 96.4608 100.764 96.4608 101.578ZM95.6186 101.578C95.6186 100.95 95.5043 100.484 95.2757 100.18C95.047 99.8729 94.7214 99.7195 94.2989 99.7195C93.8734 99.7195 93.5449 99.8729 93.3134 100.18C93.0848 100.484 92.9704 100.95 92.9704 101.578C92.9704 102.185 93.0848 102.647 93.3134 102.962C93.5449 103.275 93.8734 103.431 94.2989 103.431C94.7185 103.431 95.0427 103.278 95.2713 102.971C95.5029 102.661 95.6186 102.197 95.6186 101.578ZM101.128 104H100.32V100.384L98.0367 104H97.2987V99.1508H98.1062V102.711L100.364 99.1508H101.128V104ZM105.521 102.659C105.521 102.931 105.462 103.161 105.343 103.349C105.224 103.537 105.072 103.686 104.887 103.796C104.711 103.903 104.51 103.983 104.284 104.035C104.058 104.087 103.832 104.113 103.607 104.113C103.288 104.113 102.987 104.081 102.704 104.017C102.42 103.957 102.138 103.858 101.857 103.722V102.819H101.909C102.106 103.002 102.352 103.146 102.647 103.253C102.945 103.357 103.242 103.41 103.537 103.41C103.664 103.41 103.8 103.397 103.945 103.371C104.093 103.342 104.217 103.298 104.319 103.24C104.452 103.159 104.546 103.072 104.601 102.98C104.659 102.887 104.688 102.76 104.688 102.598C104.688 102.424 104.654 102.285 104.588 102.181C104.524 102.074 104.436 101.994 104.323 101.942C104.21 101.89 104.083 101.858 103.941 101.847C103.802 101.832 103.654 101.825 103.498 101.825H102.925V101.122H103.363C103.473 101.122 103.611 101.119 103.776 101.113C103.941 101.104 104.073 101.081 104.171 101.044C104.295 100.997 104.395 100.932 104.47 100.848C104.546 100.761 104.583 100.617 104.583 100.414C104.583 100.272 104.552 100.158 104.488 100.071C104.424 99.9843 104.345 99.9163 104.249 99.8671C104.151 99.815 104.044 99.7803 103.928 99.7629C103.812 99.7427 103.701 99.7325 103.594 99.7325C103.319 99.7325 103.054 99.7716 102.799 99.8497C102.547 99.925 102.33 100.038 102.148 100.188H102.096V99.3071C102.304 99.2347 102.534 99.1711 102.786 99.1161C103.041 99.0611 103.295 99.0336 103.55 99.0336C103.756 99.0336 103.964 99.0553 104.175 99.0987C104.389 99.1392 104.592 99.2101 104.783 99.3114C104.962 99.4098 105.113 99.5459 105.235 99.7195C105.356 99.8903 105.417 100.1 105.417 100.349C105.417 100.612 105.342 100.844 105.191 101.044C105.044 101.24 104.847 101.371 104.601 101.434V101.465C104.87 101.557 105.09 101.699 105.261 101.89C105.434 102.081 105.521 102.337 105.521 102.659ZM110.184 102.533C110.184 102.767 110.139 102.975 110.049 103.158C109.959 103.337 109.836 103.488 109.68 103.609C109.483 103.763 109.276 103.867 109.059 103.922C108.845 103.974 108.587 104 108.286 104H106.381V99.1508H108.161C108.517 99.1508 108.777 99.1624 108.942 99.1855C109.107 99.2058 109.27 99.2608 109.433 99.3505C109.603 99.4431 109.729 99.5661 109.81 99.7195C109.891 99.8729 109.932 100.055 109.932 100.267C109.932 100.498 109.868 100.706 109.741 100.892C109.613 101.074 109.444 101.216 109.233 101.317L109.255 101.347C109.518 101.414 109.738 101.549 109.914 101.751C110.094 101.954 110.184 102.214 110.184 102.533ZM109.094 100.392C109.094 100.282 109.075 100.187 109.038 100.106C109.003 100.025 108.941 99.9612 108.851 99.9149C108.747 99.8599 108.629 99.828 108.499 99.8194C108.372 99.8078 108.194 99.802 107.965 99.802H107.188V101.13H108.126C108.326 101.13 108.467 101.122 108.551 101.104C108.635 101.084 108.728 101.044 108.829 100.983C108.925 100.925 108.993 100.847 109.033 100.748C109.074 100.65 109.094 100.531 109.094 100.392ZM109.341 102.537C109.341 102.372 109.317 102.24 109.268 102.142C109.221 102.041 109.117 101.951 108.955 101.873C108.854 101.824 108.745 101.793 108.629 101.782C108.514 101.77 108.353 101.764 108.148 101.764H107.188V103.349H107.896C108.188 103.349 108.415 103.337 108.577 103.314C108.739 103.291 108.878 103.245 108.994 103.175C109.116 103.1 109.204 103.013 109.259 102.915C109.314 102.816 109.341 102.69 109.341 102.537ZM115.033 101.578C115.033 102.394 114.836 103.025 114.442 103.47C114.049 103.913 113.525 104.135 112.871 104.135C112.197 104.135 111.665 103.906 111.278 103.449C110.893 102.988 110.7 102.365 110.7 101.578C110.7 100.767 110.898 100.138 111.295 99.6891C111.694 99.2405 112.22 99.0162 112.871 99.0162C113.525 99.0162 114.049 99.2405 114.442 99.6891C114.836 100.135 115.033 100.764 115.033 101.578ZM114.191 101.578C114.191 100.95 114.076 100.484 113.848 100.18C113.619 99.8729 113.293 99.7195 112.871 99.7195C112.445 99.7195 112.117 99.8729 111.885 100.18C111.657 100.484 111.542 100.95 111.542 101.578C111.542 102.185 111.657 102.647 111.885 102.962C112.117 103.275 112.445 103.431 112.871 103.431C113.291 103.431 113.615 103.278 113.843 102.971C114.075 102.661 114.191 102.197 114.191 101.578ZM120.03 105.163H119.27V103.987H116.075V105.163H115.315V103.305H115.636C115.911 102.854 116.135 102.265 116.309 101.538C116.486 100.809 116.574 100.013 116.574 99.1508H119.548V103.305H120.03V105.163ZM118.732 103.305V99.8367H117.342C117.305 100.56 117.205 101.222 117.043 101.821C116.884 102.417 116.682 102.912 116.439 103.305H118.732ZM124.666 104H123.859V100.384L121.575 104H120.837V99.1508H121.645V102.711L123.902 99.1508H124.666V104ZM129.389 99.8671H127.74V104H126.924V99.8671H125.274V99.1508H129.389V99.8671ZM132.103 104.113C131.33 104.113 130.729 103.896 130.301 103.462C129.876 103.025 129.663 102.405 129.663 101.604C129.663 100.814 129.87 100.185 130.284 99.7195C130.698 99.2506 131.239 99.0162 131.907 99.0162C132.208 99.0162 132.475 99.0596 132.706 99.1465C132.938 99.2333 133.14 99.3693 133.314 99.5545C133.488 99.7398 133.621 99.967 133.713 100.236C133.806 100.502 133.852 100.829 133.852 101.217V101.66H130.492C130.492 102.224 130.634 102.656 130.918 102.954C131.201 103.252 131.593 103.401 132.094 103.401C132.273 103.401 132.449 103.381 132.619 103.34C132.793 103.3 132.949 103.248 133.088 103.184C133.236 103.117 133.36 103.054 133.462 102.993C133.563 102.929 133.647 102.87 133.713 102.815H133.761V103.705C133.666 103.742 133.547 103.79 133.405 103.848C133.263 103.903 133.136 103.946 133.023 103.978C132.864 104.022 132.719 104.055 132.589 104.078C132.462 104.101 132.299 104.113 132.103 104.113ZM133.058 101.035C133.052 100.815 133.026 100.625 132.98 100.466C132.933 100.307 132.867 100.172 132.78 100.062C132.684 99.9409 132.561 99.8483 132.411 99.7846C132.263 99.721 132.08 99.6891 131.86 99.6891C131.643 99.6891 131.457 99.7224 131.304 99.789C131.153 99.8526 131.016 99.9467 130.891 100.071C130.77 100.198 130.677 100.34 130.614 100.497C130.55 100.65 130.509 100.829 130.492 101.035H133.058ZM138.432 104H137.616V99.8367H135.949C135.94 100.077 135.932 100.308 135.923 100.531C135.914 100.751 135.906 100.951 135.897 101.13C135.88 101.585 135.849 101.965 135.806 102.272C135.765 102.579 135.713 102.825 135.65 103.01C135.586 103.201 135.515 103.35 135.437 103.457C135.362 103.564 135.276 103.661 135.181 103.748C135.082 103.835 134.977 103.9 134.864 103.944C134.751 103.987 134.624 104.009 134.482 104.009C134.435 104.009 134.376 104.007 134.304 104.004C134.231 104.001 134.181 104 134.152 104V103.288H134.195C134.215 103.288 134.236 103.289 134.256 103.292C134.279 103.295 134.305 103.297 134.334 103.297C134.404 103.297 134.472 103.287 134.538 103.266C134.605 103.246 134.664 103.208 134.716 103.153C134.861 103.012 134.966 102.764 135.033 102.411C135.1 102.055 135.147 101.559 135.176 100.922C135.188 100.685 135.198 100.404 135.207 100.08C135.218 99.7557 135.228 99.446 135.237 99.1508H138.432V104ZM143.29 102.498C143.29 102.732 143.242 102.945 143.147 103.136C143.054 103.327 142.927 103.482 142.765 103.601C142.574 103.745 142.37 103.848 142.153 103.909C141.936 103.97 141.656 104 141.315 104H139.617V99.1508H140.434V101.039H141.337C141.701 101.039 141.983 101.058 142.183 101.096C142.386 101.133 142.587 101.226 142.787 101.374C142.954 101.498 143.08 101.657 143.164 101.851C143.248 102.045 143.29 102.261 143.29 102.498ZM142.448 102.511C142.448 102.363 142.422 102.235 142.37 102.125C142.321 102.012 142.238 101.921 142.122 101.851C142.001 101.779 141.862 101.735 141.706 101.721C141.552 101.706 141.331 101.699 141.041 101.699H140.434V103.349H141.024C141.313 103.349 141.538 103.337 141.697 103.314C141.856 103.288 141.994 103.24 142.109 103.171C142.228 103.096 142.313 103.007 142.365 102.906C142.42 102.802 142.448 102.67 142.448 102.511ZM147.901 104H147.084V101.816H144.888V104H144.072V99.1508H144.888V101.113H147.084V99.1508H147.901V104ZM153.071 101.578C153.071 102.394 152.874 103.025 152.481 103.47C152.087 103.913 151.563 104.135 150.909 104.135C150.235 104.135 149.704 103.906 149.316 103.449C148.931 102.988 148.738 102.365 148.738 101.578C148.738 100.767 148.937 100.138 149.333 99.6891C149.733 99.2405 150.258 99.0162 150.909 99.0162C151.563 99.0162 152.087 99.2405 152.481 99.6891C152.874 100.135 153.071 100.764 153.071 101.578ZM152.229 101.578C152.229 100.95 152.115 100.484 151.886 100.18C151.657 99.8729 151.332 99.7195 150.909 99.7195C150.484 99.7195 150.155 99.8729 149.924 100.18C149.695 100.484 149.581 100.95 149.581 101.578C149.581 102.185 149.695 102.647 149.924 102.962C150.155 103.275 150.484 103.431 150.909 103.431C151.329 103.431 151.653 103.278 151.882 102.971C152.113 102.661 152.229 102.197 152.229 101.578ZM155.836 104.109C155.504 104.109 155.198 104.058 154.92 103.957C154.643 103.852 154.404 103.696 154.204 103.488C154.004 103.279 153.85 103.017 153.74 102.702C153.63 102.384 153.575 102.01 153.575 101.582C153.575 101.156 153.631 100.789 153.744 100.479C153.86 100.17 154.013 99.9091 154.204 99.6978C154.395 99.4865 154.632 99.3244 154.916 99.2116C155.203 99.0958 155.509 99.0379 155.836 99.0379C156.103 99.0379 156.359 99.0755 156.605 99.1508C156.854 99.226 157.075 99.3129 157.269 99.4113V100.327H157.221C157.163 100.278 157.088 100.222 156.996 100.158C156.906 100.094 156.796 100.029 156.666 99.9626C156.553 99.9047 156.42 99.8541 156.266 99.8107C156.113 99.7673 155.965 99.7456 155.823 99.7456C155.401 99.7456 155.061 99.9062 154.803 100.227C154.549 100.546 154.421 100.997 154.421 101.582C154.421 102.155 154.544 102.602 154.79 102.923C155.039 103.242 155.383 103.401 155.823 103.401C156.09 103.401 156.343 103.346 156.583 103.236C156.823 103.126 157.036 102.984 157.221 102.81H157.269V103.726C157.188 103.764 157.087 103.81 156.965 103.865C156.844 103.918 156.734 103.957 156.635 103.983C156.496 104.023 156.372 104.054 156.262 104.074C156.152 104.097 156.01 104.109 155.836 104.109ZM161.558 99.8671H159.909V104H159.092V99.8671H157.443V99.1508H161.558V99.8671ZM165.995 104H165.188V100.384L162.904 104H162.166V99.1508H162.973V102.711L165.231 99.1508H165.995V104ZM173.783 104H172.967V99.8541H170.77V104H169.954V99.1508H173.783V104ZM178.954 101.578C178.954 102.394 178.757 103.025 178.363 103.47C177.97 103.913 177.446 104.135 176.792 104.135C176.117 104.135 175.586 103.906 175.199 103.449C174.814 102.988 174.621 102.365 174.621 101.578C174.621 100.767 174.819 100.138 175.216 99.6891C175.615 99.2405 176.141 99.0162 176.792 99.0162C177.446 99.0162 177.97 99.2405 178.363 99.6891C178.757 100.135 178.954 100.764 178.954 101.578ZM178.112 101.578C178.112 100.95 177.997 100.484 177.769 100.18C177.54 99.8729 177.214 99.7195 176.792 99.7195C176.366 99.7195 176.038 99.8729 175.806 100.18C175.578 100.484 175.463 100.95 175.463 101.578C175.463 102.185 175.578 102.647 175.806 102.962C176.038 103.275 176.366 103.431 176.792 103.431C177.211 103.431 177.536 103.278 177.764 102.971C177.996 102.661 178.112 102.197 178.112 101.578ZM186.638 101.447C186.638 102.255 186.444 102.899 186.056 103.379C185.671 103.857 185.183 104.096 184.593 104.096C184.353 104.096 184.14 104.068 183.955 104.013C183.77 103.958 183.58 103.873 183.386 103.757V105.789H182.57V99.1508H183.386V99.6587C183.589 99.4764 183.813 99.3244 184.059 99.2029C184.308 99.0784 184.579 99.0162 184.871 99.0162C185.427 99.0162 185.859 99.2362 186.169 99.6761C186.481 100.116 186.638 100.706 186.638 101.447ZM185.796 101.538C185.796 100.986 185.707 100.557 185.531 100.253C185.354 99.9467 185.068 99.7933 184.671 99.7933C184.44 99.7933 184.215 99.8454 183.998 99.9496C183.784 100.051 183.58 100.183 183.386 100.345V103.093C183.6 103.197 183.783 103.268 183.933 103.305C184.087 103.343 184.262 103.362 184.458 103.362C184.881 103.362 185.209 103.207 185.444 102.897C185.678 102.588 185.796 102.135 185.796 101.538ZM189.59 104.113C188.817 104.113 188.217 103.896 187.788 103.462C187.363 103.025 187.15 102.405 187.15 101.604C187.15 100.814 187.357 100.185 187.771 99.7195C188.185 99.2506 188.726 99.0162 189.394 99.0162C189.695 99.0162 189.962 99.0596 190.193 99.1465C190.425 99.2333 190.627 99.3693 190.801 99.5545C190.975 99.7398 191.108 99.967 191.2 100.236C191.293 100.502 191.339 100.829 191.339 101.217V101.66H187.979C187.979 102.224 188.121 102.656 188.405 102.954C188.688 103.252 189.08 103.401 189.581 103.401C189.761 103.401 189.936 103.381 190.106 103.34C190.28 103.3 190.436 103.248 190.575 103.184C190.723 103.117 190.847 103.054 190.949 102.993C191.05 102.929 191.134 102.87 191.2 102.815H191.248V103.705C191.153 103.742 191.034 103.79 190.892 103.848C190.75 103.903 190.623 103.946 190.51 103.978C190.351 104.022 190.206 104.055 190.076 104.078C189.949 104.101 189.787 104.113 189.59 104.113ZM190.545 101.035C190.539 100.815 190.513 100.625 190.467 100.466C190.42 100.307 190.354 100.172 190.267 100.062C190.172 99.9409 190.049 99.8483 189.898 99.7846C189.75 99.721 189.567 99.6891 189.347 99.6891C189.13 99.6891 188.944 99.7224 188.791 99.789C188.641 99.8526 188.503 99.9467 188.379 100.071C188.257 100.198 188.164 100.34 188.101 100.497C188.037 100.65 187.997 100.829 187.979 101.035H190.545ZM195.247 99.8671H192.98V104H192.164V99.1508H195.247V99.8671ZM199.609 104H198.793V99.8367H197.126C197.118 100.077 197.109 100.308 197.1 100.531C197.092 100.751 197.083 100.951 197.074 101.13C197.057 101.585 197.026 101.965 196.983 102.272C196.942 102.579 196.89 102.825 196.827 103.01C196.763 103.201 196.692 103.35 196.614 103.457C196.539 103.564 196.453 103.661 196.358 103.748C196.259 103.835 196.154 103.9 196.041 103.944C195.928 103.987 195.801 104.009 195.659 104.009C195.613 104.009 195.553 104.007 195.481 104.004C195.409 104.001 195.358 104 195.329 104V103.288H195.372C195.393 103.288 195.413 103.289 195.433 103.292C195.456 103.295 195.482 103.297 195.511 103.297C195.581 103.297 195.649 103.287 195.715 103.266C195.782 103.246 195.841 103.208 195.893 103.153C196.038 103.012 196.144 102.764 196.21 102.411C196.277 102.055 196.325 101.559 196.354 100.922C196.365 100.685 196.375 100.404 196.384 100.08C196.395 99.7557 196.406 99.446 196.414 99.1508H199.609V104ZM203.504 102.806V101.46C203.31 101.478 203.064 101.502 202.766 101.534C202.47 101.563 202.232 101.605 202.049 101.66C201.832 101.727 201.653 101.829 201.511 101.968C201.369 102.104 201.298 102.295 201.298 102.541C201.298 102.819 201.376 103.029 201.533 103.171C201.689 103.313 201.918 103.384 202.219 103.384C202.476 103.384 202.709 103.329 202.918 103.219C203.126 103.106 203.321 102.968 203.504 102.806ZM203.504 103.483C203.437 103.533 203.347 103.602 203.234 103.692C203.124 103.779 203.017 103.848 202.913 103.9C202.768 103.975 202.628 104.033 202.492 104.074C202.359 104.114 202.171 104.135 201.928 104.135C201.728 104.135 201.538 104.097 201.359 104.022C201.18 103.946 201.022 103.841 200.886 103.705C200.756 103.572 200.651 103.408 200.573 103.214C200.495 103.017 200.456 102.81 200.456 102.593C200.456 102.258 200.527 101.973 200.669 101.738C200.811 101.501 201.035 101.313 201.342 101.174C201.614 101.049 201.935 100.964 202.305 100.918C202.676 100.868 203.075 100.832 203.504 100.809V100.653C203.504 100.462 203.475 100.308 203.417 100.193C203.359 100.074 203.278 99.9829 203.174 99.9192C203.069 99.8526 202.942 99.8092 202.792 99.789C202.641 99.7658 202.486 99.7542 202.327 99.7542C202.139 99.7542 201.918 99.7832 201.663 99.8411C201.408 99.896 201.154 99.9771 200.899 100.084H200.851V99.255C201.002 99.2116 201.217 99.1638 201.498 99.1117C201.779 99.0596 202.057 99.0336 202.331 99.0336C202.664 99.0336 202.945 99.0596 203.174 99.1117C203.402 99.1638 203.608 99.2579 203.79 99.3939C203.967 99.527 204.098 99.6992 204.185 99.9105C204.272 100.122 204.315 100.379 204.315 100.683V104H203.504V103.483ZM209.963 104H209.156V100.188L207.992 102.663H207.385L206.23 100.188V104H205.466V99.1508H206.451L207.728 101.842L208.961 99.1508H209.963V104ZM213.25 104.113C212.477 104.113 211.876 103.896 211.448 103.462C211.023 103.025 210.81 102.405 210.81 101.604C210.81 100.814 211.017 100.185 211.431 99.7195C211.845 99.2506 212.386 99.0162 213.054 99.0162C213.355 99.0162 213.622 99.0596 213.853 99.1465C214.085 99.2333 214.287 99.3693 214.461 99.5545C214.635 99.7398 214.768 99.967 214.86 100.236C214.953 100.502 214.999 100.829 214.999 101.217V101.66H211.639C211.639 102.224 211.781 102.656 212.065 102.954C212.348 103.252 212.74 103.401 213.241 103.401C213.421 103.401 213.596 103.381 213.766 103.34C213.94 103.3 214.096 103.248 214.235 103.184C214.383 103.117 214.507 103.054 214.609 102.993C214.71 102.929 214.794 102.87 214.86 102.815H214.908V103.705C214.813 103.742 214.694 103.79 214.552 103.848C214.41 103.903 214.283 103.946 214.17 103.978C214.011 104.022 213.866 104.055 213.736 104.078C213.609 104.101 213.447 104.113 213.25 104.113ZM214.205 101.035C214.199 100.815 214.173 100.625 214.127 100.466C214.08 100.307 214.014 100.172 213.927 100.062C213.832 99.9409 213.709 99.8483 213.558 99.7846C213.41 99.721 213.227 99.6891 213.007 99.6891C212.79 99.6891 212.604 99.7224 212.451 99.789C212.3 99.8526 212.163 99.9467 212.039 100.071C211.917 100.198 211.824 100.34 211.761 100.497C211.697 100.65 211.657 100.829 211.639 101.035H214.205ZM219.653 104H218.837V101.816H216.64V104H215.824V99.1508H216.64V101.113H218.837V99.1508H219.653V104ZM224.376 99.8671H222.727V104H221.911V99.8671H220.261V99.1508H224.376V99.8671ZM228.796 99.1508L226.187 105.789H225.314L226.182 103.766L224.42 99.1508H225.301L226.625 102.741L227.945 99.1508H228.796Z" fill="#8C99B2"/>
<rect x="26.5" y="88.5" width="292" height="24" stroke="#5C6585" stroke-opacity="0.25"/>
<line x1="25.7393" y1="100.808" x2="17.7013" y2="100.808" stroke="#0089FF" stroke-width="0.635066" stroke-dasharray="0.64 0.64"/>
<rect width="0.949895" height="24.7595" transform="translate(25.7393 88.1104)" fill="#4B5169"/>
<rect x="26" y="62" width="293" height="25" fill="#5C6585" fill-opacity="0.1"/>
<path d="M43.0111 78.1172C42.5885 78.1172 42.1993 78.0463 41.8433 77.9045C41.4902 77.7627 41.1848 77.5514 40.9273 77.2707C40.6697 76.9899 40.47 76.6397 40.3282 76.2201C40.1863 75.8004 40.1154 75.3185 40.1154 74.7744C40.1154 74.2332 40.1835 73.7615 40.3195 73.3592C40.4584 72.9569 40.6595 72.6067 40.9229 72.3086C41.1805 72.0192 41.4858 71.7992 41.8389 71.6487C42.192 71.4953 42.5871 71.4186 43.0241 71.4186C43.2412 71.4186 43.4438 71.4345 43.6319 71.4664C43.8229 71.4982 43.9994 71.5387 44.1615 71.5879C44.3004 71.6314 44.4422 71.6863 44.587 71.7529C44.7346 71.8166 44.8793 71.8875 45.0211 71.9656V73.0032H44.9516C44.8764 72.9337 44.7794 72.8498 44.6608 72.7514C44.5421 72.653 44.3974 72.556 44.2266 72.4605C44.0617 72.3708 43.8822 72.297 43.6883 72.2391C43.4944 72.1812 43.2701 72.1523 43.0154 72.1523C42.7405 72.1523 42.48 72.2087 42.234 72.3216C41.988 72.4345 41.7724 72.6009 41.5871 72.8209C41.4048 73.0408 41.263 73.3172 41.1617 73.65C41.0604 73.9829 41.0097 74.3577 41.0097 74.7744C41.0097 75.2172 41.0633 75.5993 41.1704 75.9205C41.2775 76.2389 41.4236 76.508 41.6088 76.728C41.7883 76.9422 41.9996 77.1043 42.2427 77.2142C42.4858 77.3213 42.7434 77.3749 43.0154 77.3749C43.2643 77.3749 43.4944 77.3445 43.7057 77.2837C43.917 77.2229 44.1051 77.1462 44.27 77.0536C44.4292 76.9639 44.5667 76.8727 44.6825 76.7801C44.7982 76.6846 44.8894 76.6036 44.956 76.537H45.0211V77.5615C44.8793 77.6281 44.7447 77.6918 44.6173 77.7525C44.4929 77.8133 44.3409 77.8727 44.1615 77.9305C43.9734 77.9913 43.7983 78.0376 43.6362 78.0695C43.477 78.1013 43.2687 78.1172 43.0111 78.1172ZM49.6619 78H48.646L46.9833 75.7642H46.5753V78H45.7591V73.1508H46.5753V75.2607C46.7865 75.2578 46.966 75.2143 47.1136 75.1304C47.2641 75.0436 47.3914 74.8772 47.4956 74.6312C47.5274 74.5588 47.5622 74.4749 47.5998 74.3794C47.6403 74.2839 47.6722 74.1999 47.6953 74.1276C47.8227 73.7716 47.9992 73.5198 48.2249 73.3722C48.4507 73.2246 48.7444 73.1508 49.1062 73.1508H49.3276V73.8541H49.141C48.9123 73.8541 48.7401 73.9018 48.6243 73.9973C48.5115 74.09 48.416 74.2607 48.3378 74.5096C48.2568 74.7614 48.1613 74.9582 48.0513 75.1C47.9413 75.239 47.8198 75.346 47.6866 75.4213L49.6619 78ZM54.1768 75.5776C54.1768 76.3937 53.98 77.0247 53.5864 77.4704C53.1928 77.9132 52.669 78.1346 52.0149 78.1346C51.3405 78.1346 50.8094 77.9059 50.4216 77.4487C50.0367 76.9885 49.8442 76.3648 49.8442 75.5776C49.8442 74.7672 50.0425 74.1377 50.439 73.6891C50.8384 73.2405 51.3637 73.0162 52.0149 73.0162C52.669 73.0162 53.1928 73.2405 53.5864 73.6891C53.98 74.1348 54.1768 74.7643 54.1768 75.5776ZM53.3346 75.5776C53.3346 74.9495 53.2203 74.4836 52.9917 74.1797C52.763 73.8729 52.4374 73.7195 52.0149 73.7195C51.5894 73.7195 51.2609 73.8729 51.0294 74.1797C50.8008 74.4836 50.6864 74.9495 50.6864 75.5776C50.6864 76.1853 50.8008 76.647 51.0294 76.9624C51.2609 77.275 51.5894 77.4313 52.0149 77.4313C52.4345 77.4313 52.7587 77.2779 52.9873 76.9711C53.2189 76.6614 53.3346 76.1969 53.3346 75.5776ZM59.0825 75.4473C59.0825 76.2548 58.8886 76.8988 58.5007 77.3792C58.1158 77.8567 57.6281 78.0955 57.0377 78.0955C56.7975 78.0955 56.5848 78.068 56.3996 78.013C56.2143 77.958 56.0248 77.8727 55.8309 77.7569V79.7886H55.0147V73.1508H55.8309V73.6587C56.0334 73.4764 56.2577 73.3244 56.5038 73.2029C56.7526 73.0784 57.0233 73.0162 57.3156 73.0162C57.8713 73.0162 58.3039 73.2362 58.6136 73.6761C58.9262 74.116 59.0825 74.7064 59.0825 75.4473ZM58.2403 75.5385C58.2403 74.9857 58.152 74.5574 57.9754 74.2535C57.7989 73.9467 57.5124 73.7933 57.1159 73.7933C56.8843 73.7933 56.66 73.8454 56.443 73.9496C56.2288 74.0509 56.0248 74.1826 55.8309 74.3446V77.0927C56.045 77.1969 56.2274 77.2678 56.3779 77.3054C56.5312 77.343 56.7063 77.3618 56.9031 77.3618C57.3257 77.3618 57.6542 77.207 57.8886 76.8973C58.123 76.5876 58.2403 76.1347 58.2403 75.5385ZM63.9186 75.5776C63.9186 76.3937 63.7218 77.0247 63.3282 77.4704C62.9346 77.9132 62.4108 78.1346 61.7567 78.1346C61.0823 78.1346 60.5513 77.9059 60.1634 77.4487C59.7785 76.9885 59.5861 76.3648 59.5861 75.5776C59.5861 74.7672 59.7843 74.1377 60.1808 73.6891C60.5802 73.2405 61.1055 73.0162 61.7567 73.0162C62.4108 73.0162 62.9346 73.2405 63.3282 73.6891C63.7218 74.1348 63.9186 74.7643 63.9186 75.5776ZM63.0764 75.5776C63.0764 74.9495 62.9621 74.4836 62.7335 74.1797C62.5048 73.8729 62.1792 73.7195 61.7567 73.7195C61.3312 73.7195 61.0028 73.8729 60.7712 74.1797C60.5426 74.4836 60.4283 74.9495 60.4283 75.5776C60.4283 76.1853 60.5426 76.647 60.7712 76.9624C61.0028 77.275 61.3312 77.4313 61.7567 77.4313C62.1763 77.4313 62.5005 77.2779 62.7291 76.9711C62.9607 76.6614 63.0764 76.1969 63.0764 75.5776ZM66.684 78.1085C66.3512 78.1085 66.0459 78.0579 65.768 77.9566C65.4902 77.8524 65.2514 77.6961 65.0517 77.4877C64.852 77.2793 64.6972 77.0174 64.5872 76.702C64.4772 76.3836 64.4222 76.0102 64.4222 75.5819C64.4222 75.1565 64.4787 74.7889 64.5915 74.4792C64.7073 74.1695 64.8607 73.9091 65.0517 73.6978C65.2427 73.4865 65.4801 73.3244 65.7637 73.2116C66.0502 73.0958 66.357 73.0379 66.684 73.0379C66.9503 73.0379 67.2064 73.0755 67.4524 73.1508C67.7013 73.226 67.9227 73.3129 68.1167 73.4113V74.3273H68.0689C68.011 74.2781 67.9358 74.2216 67.8432 74.158C67.7534 74.0943 67.6435 74.0292 67.5132 73.9626C67.4003 73.9047 67.2672 73.8541 67.1138 73.8107C66.9604 73.7673 66.8128 73.7456 66.671 73.7456C66.2485 73.7456 65.9084 73.9062 65.6508 74.2274C65.3961 74.5458 65.2688 74.9973 65.2688 75.5819C65.2688 76.155 65.3918 76.6021 65.6378 76.9234C65.8867 77.2417 66.2311 77.4009 66.671 77.4009C66.9373 77.4009 67.1905 77.3459 67.4307 77.2359C67.671 77.126 67.8837 76.9841 68.0689 76.8105H68.1167V77.7265C68.0356 77.7641 67.9343 77.8104 67.8128 77.8654C67.6912 77.9175 67.5812 77.9566 67.4828 77.9826C67.3439 78.0232 67.2195 78.0535 67.1095 78.0738C66.9995 78.097 66.8577 78.1085 66.684 78.1085ZM72.4058 73.8671H70.7562V78H69.94V73.8671H68.2903V73.1508H72.4058V73.8671ZM76.6863 76.4979C76.6863 76.7323 76.6386 76.9451 76.5431 77.1361C76.4505 77.3271 76.3231 77.4819 76.161 77.6006C75.97 77.7453 75.766 77.8481 75.5489 77.9088C75.3319 77.9696 75.0526 78 74.7111 78H73.0136V73.1508H73.8298V75.0393H74.7328C75.0974 75.0393 75.3796 75.0581 75.5793 75.0957C75.7819 75.1333 75.983 75.2259 76.1827 75.3735C76.3506 75.498 76.4765 75.6572 76.5604 75.8511C76.6444 76.045 76.6863 76.2606 76.6863 76.4979ZM75.8441 76.5109C75.8441 76.3633 75.8181 76.2345 75.766 76.1246C75.7168 76.0117 75.6343 75.9205 75.5185 75.8511C75.397 75.7787 75.2581 75.7353 75.1018 75.7208C74.9484 75.7064 74.727 75.6991 74.4376 75.6991H73.8298V77.3488H74.4202C74.7096 77.3488 74.9339 77.3372 75.0931 77.3141C75.2523 77.288 75.3897 77.2403 75.5055 77.1708C75.6242 77.0956 75.7095 77.0073 75.7616 76.906C75.8166 76.8018 75.8441 76.6701 75.8441 76.5109ZM84.0752 78H83.2677V74.3837L80.9842 78H80.2462V73.1508H81.0537V76.7106L83.3111 73.1508H84.0752V78ZM88.4685 76.6585C88.4685 76.9306 88.4092 77.1607 88.2906 77.3488C88.1719 77.5369 88.0199 77.686 87.8347 77.796C87.6582 77.903 87.457 77.9826 87.2313 78.0347C87.0055 78.0868 86.7798 78.1129 86.554 78.1129C86.2357 78.1129 85.9347 78.081 85.6511 78.0174C85.3674 77.9566 85.0852 77.8582 84.8045 77.7222V76.8192H84.8566C85.0534 77.0015 85.2994 77.1462 85.5946 77.2533C85.8927 77.3575 86.1894 77.4096 86.4846 77.4096C86.6119 77.4096 86.748 77.3966 86.8927 77.3705C87.0403 77.3416 87.1647 77.2982 87.266 77.2403C87.3991 77.1592 87.4932 77.0724 87.5482 76.9798C87.6061 76.8872 87.635 76.7598 87.635 76.5978C87.635 76.4241 87.6017 76.2852 87.5352 76.181C87.4715 76.0739 87.3832 75.9943 87.2704 75.9422C87.1575 75.8901 87.0301 75.8583 86.8883 75.8467C86.7494 75.8323 86.6018 75.825 86.4455 75.825H85.8725V75.1217H86.3109C86.4209 75.1217 86.5584 75.1188 86.7234 75.1131C86.8883 75.1044 87.02 75.0812 87.1184 75.0436C87.2429 74.9973 87.3427 74.9322 87.418 74.8482C87.4932 74.7614 87.5308 74.6167 87.5308 74.4141C87.5308 74.2723 87.499 74.158 87.4353 74.0711C87.3717 73.9843 87.2921 73.9163 87.1966 73.8671C87.0982 73.815 86.9911 73.7803 86.8753 73.7629C86.7595 73.7427 86.6481 73.7325 86.541 73.7325C86.2661 73.7325 86.0013 73.7716 85.7466 73.8497C85.4948 73.925 85.2777 74.0379 85.0954 74.1884H85.0433V73.3071C85.2517 73.2347 85.4818 73.1711 85.7335 73.1161C85.9882 73.0611 86.2429 73.0336 86.4976 73.0336C86.7031 73.0336 86.9115 73.0553 87.1228 73.0987C87.3369 73.1392 87.5395 73.2101 87.7305 73.3114C87.91 73.4098 88.0605 73.5459 88.182 73.7195C88.3036 73.8903 88.3644 74.1001 88.3644 74.349C88.3644 74.6124 88.2891 74.8439 88.1386 75.0436C87.991 75.2404 87.7942 75.3706 87.5482 75.4343V75.4647C87.8174 75.5573 88.0373 75.6991 88.2081 75.8901C88.3817 76.0812 88.4685 76.3373 88.4685 76.6585ZM93.8257 78H93.0182V74.1884L91.8547 76.6629H91.247L90.0922 74.1884V78H89.3281V73.1508H90.3136L91.5899 75.8424L92.8228 73.1508H93.8257V78ZM97.112 78.1129C96.3393 78.1129 95.7387 77.8958 95.3104 77.4617C94.8849 77.0247 94.6722 76.4053 94.6722 75.6036C94.6722 74.8135 94.8792 74.1855 95.293 73.7195C95.7069 73.2506 96.2481 73.0162 96.9167 73.0162C97.2177 73.0162 97.4839 73.0596 97.7155 73.1465C97.947 73.2333 98.1496 73.3693 98.3232 73.5545C98.4969 73.7398 98.63 73.967 98.7226 74.2361C98.8152 74.5024 98.8616 74.8294 98.8616 75.2172V75.6601H95.5014C95.5014 76.2244 95.6432 76.6557 95.9269 76.9538C96.2105 77.2519 96.6026 77.4009 97.1033 77.4009C97.2828 77.4009 97.4579 77.3806 97.6286 77.3401C97.8023 77.2996 97.9586 77.2475 98.0975 77.1838C98.2451 77.1173 98.3695 77.0536 98.4708 76.9928C98.5721 76.9292 98.6561 76.8698 98.7226 76.8148H98.7704V77.7048C98.6749 77.7424 98.5562 77.7902 98.4144 77.8481C98.2726 77.903 98.1452 77.9465 98.0324 77.9783C97.8732 78.0217 97.7285 78.055 97.5982 78.0781C97.4709 78.1013 97.3088 78.1129 97.112 78.1129ZM98.0671 75.0349C98.0613 74.815 98.0353 74.6254 97.989 74.4662C97.9427 74.307 97.8761 74.1724 97.7893 74.0625C97.6938 73.9409 97.5708 73.8483 97.4203 73.7846C97.2726 73.721 97.0889 73.6891 96.8689 73.6891C96.6518 73.6891 96.4666 73.7224 96.3132 73.789C96.1627 73.8526 96.0253 73.9467 95.9008 74.0711C95.7793 74.1985 95.6866 74.3403 95.623 74.4966C95.5593 74.65 95.5188 74.8294 95.5014 75.0349H98.0671ZM103.515 78H102.699V75.8163H100.503V78H99.6864V73.1508H100.503V75.1131H102.699V73.1508H103.515V78ZM106.802 78.1129C106.029 78.1129 105.428 77.8958 105 77.4617C104.575 77.0247 104.362 76.4053 104.362 75.6036C104.362 74.8135 104.569 74.1855 104.983 73.7195C105.397 73.2506 105.938 73.0162 106.606 73.0162C106.907 73.0162 107.174 73.0596 107.405 73.1465C107.637 73.2333 107.839 73.3693 108.013 73.5545C108.187 73.7398 108.32 73.967 108.412 74.2361C108.505 74.5024 108.551 74.8294 108.551 75.2172V75.6601H105.191C105.191 76.2244 105.333 76.6557 105.617 76.9538C105.9 77.2519 106.292 77.4009 106.793 77.4009C106.972 77.4009 107.148 77.3806 107.318 77.3401C107.492 77.2996 107.648 77.2475 107.787 77.1838C107.935 77.1173 108.059 77.0536 108.161 76.9928C108.262 76.9292 108.346 76.8698 108.412 76.8148H108.46V77.7048C108.365 77.7424 108.246 77.7902 108.104 77.8481C107.962 77.903 107.835 77.9465 107.722 77.9783C107.563 78.0217 107.418 78.055 107.288 78.0781C107.161 78.1013 106.999 78.1129 106.802 78.1129ZM107.757 75.0349C107.751 74.815 107.725 74.6254 107.679 74.4662C107.632 74.307 107.566 74.1724 107.479 74.0625C107.383 73.9409 107.26 73.8483 107.11 73.7846C106.962 73.721 106.779 73.6891 106.559 73.6891C106.342 73.6891 106.156 73.7224 106.003 73.789C105.852 73.8526 105.715 73.9467 105.591 74.0711C105.469 74.1985 105.376 74.3403 105.313 74.4966C105.249 74.65 105.208 74.8294 105.191 75.0349H107.757ZM113.205 78H112.389V75.8163H110.192V78H109.376V73.1508H110.192V75.1131H112.389V73.1508H113.205V78ZM118.215 78H117.407V74.3837L115.124 78H114.386V73.1508H115.193V76.7106L117.451 73.1508H118.215V78ZM122.908 78H122.092V76.0768H121.284L119.847 78H118.897L120.455 76.003C120.053 75.8844 119.758 75.7078 119.569 75.4734C119.384 75.239 119.292 74.9249 119.292 74.5313C119.292 74.2911 119.344 74.0813 119.448 73.9018C119.555 73.7195 119.698 73.5661 119.878 73.4417C120.022 73.3433 120.205 73.2709 120.425 73.2246C120.645 73.1754 120.891 73.1508 121.163 73.1508H122.908V78ZM122.092 75.4343V73.802H121.206C121.018 73.802 120.869 73.8121 120.759 73.8324C120.652 73.8526 120.548 73.8917 120.446 73.9496C120.342 74.0133 120.263 74.1001 120.208 74.2101C120.156 74.3172 120.129 74.4329 120.129 74.5574C120.129 74.7166 120.147 74.8468 120.182 74.9481C120.219 75.0465 120.286 75.1377 120.381 75.2216C120.483 75.3084 120.606 75.3663 120.75 75.3952C120.898 75.4213 121.058 75.4343 121.232 75.4343H122.092ZM130.084 76.6585C130.084 76.9306 130.025 77.1607 129.906 77.3488C129.787 77.5369 129.635 77.686 129.45 77.796C129.274 77.903 129.072 77.9826 128.847 78.0347C128.621 78.0868 128.395 78.1129 128.169 78.1129C127.851 78.1129 127.55 78.081 127.267 78.0174C126.983 77.9566 126.701 77.8582 126.42 77.7222V76.8192H126.472C126.669 77.0015 126.915 77.1462 127.21 77.2533C127.508 77.3575 127.805 77.4096 128.1 77.4096C128.227 77.4096 128.363 77.3966 128.508 77.3705C128.656 77.3416 128.78 77.2982 128.881 77.2403C129.015 77.1592 129.109 77.0724 129.164 76.9798C129.222 76.8872 129.25 76.7598 129.25 76.5978C129.25 76.4241 129.217 76.2852 129.151 76.181C129.087 76.0739 128.999 75.9943 128.886 75.9422C128.773 75.8901 128.646 75.8583 128.504 75.8467C128.365 75.8323 128.217 75.825 128.061 75.825H127.488V75.1217H127.926C128.036 75.1217 128.174 75.1188 128.339 75.1131C128.504 75.1044 128.635 75.0812 128.734 75.0436C128.858 74.9973 128.958 74.9322 129.033 74.8482C129.109 74.7614 129.146 74.6167 129.146 74.4141C129.146 74.2723 129.114 74.158 129.051 74.0711C128.987 73.9843 128.908 73.9163 128.812 73.8671C128.714 73.815 128.607 73.7803 128.491 73.7629C128.375 73.7427 128.264 73.7325 128.156 73.7325C127.882 73.7325 127.617 73.7716 127.362 73.8497C127.11 73.925 126.893 74.0379 126.711 74.1884H126.659V73.3071C126.867 73.2347 127.097 73.1711 127.349 73.1161C127.604 73.0611 127.858 73.0336 128.113 73.0336C128.319 73.0336 128.527 73.0553 128.738 73.0987C128.952 73.1392 129.155 73.2101 129.346 73.3114C129.525 73.4098 129.676 73.5459 129.797 73.7195C129.919 73.8903 129.98 74.1001 129.98 74.349C129.98 74.6124 129.905 74.8439 129.754 75.0436C129.606 75.2404 129.41 75.3706 129.164 75.4343V75.4647C129.433 75.5573 129.653 75.6991 129.824 75.8901C129.997 76.0812 130.084 76.3373 130.084 76.6585ZM133.653 76.8061V75.4604C133.459 75.4777 133.213 75.5023 132.915 75.5342C132.619 75.5631 132.381 75.6051 132.198 75.6601C131.981 75.7266 131.802 75.8294 131.66 75.9683C131.518 76.1043 131.447 76.2953 131.447 76.5413C131.447 76.8192 131.525 77.029 131.682 77.1708C131.838 77.3126 132.067 77.3835 132.368 77.3835C132.625 77.3835 132.858 77.3285 133.066 77.2186C133.275 77.1057 133.47 76.9682 133.653 76.8061ZM133.653 77.4834C133.586 77.5326 133.496 77.602 133.383 77.6918C133.273 77.7786 133.166 77.8481 133.062 77.9002C132.917 77.9754 132.777 78.0333 132.641 78.0738C132.508 78.1143 132.32 78.1346 132.077 78.1346C131.877 78.1346 131.687 78.097 131.508 78.0217C131.328 77.9465 131.171 77.8408 131.035 77.7048C130.904 77.5717 130.8 77.4081 130.722 77.2142C130.644 77.0174 130.605 76.8105 130.605 76.5934C130.605 76.2577 130.676 75.9726 130.818 75.7382C130.959 75.5009 131.184 75.3128 131.491 75.1738C131.763 75.0494 132.084 74.964 132.454 74.9177C132.825 74.8685 133.224 74.8323 133.653 74.8092V74.6529C133.653 74.4619 133.624 74.3085 133.566 74.1927C133.508 74.074 133.427 73.9829 133.323 73.9192C133.218 73.8526 133.091 73.8092 132.941 73.789C132.79 73.7658 132.635 73.7542 132.476 73.7542C132.288 73.7542 132.067 73.7832 131.812 73.8411C131.557 73.896 131.302 73.9771 131.048 74.0842H131V73.255C131.151 73.2116 131.366 73.1638 131.647 73.1117C131.928 73.0596 132.205 73.0336 132.48 73.0336C132.813 73.0336 133.094 73.0596 133.323 73.1117C133.551 73.1638 133.757 73.2579 133.939 73.3939C134.116 73.527 134.247 73.6992 134.334 73.9105C134.421 74.1218 134.464 74.3794 134.464 74.6833V78H133.653V77.4834ZM138.697 73.8671H136.431V78H135.615V73.1508H138.697V73.8671ZM143.373 75.4473C143.373 76.2548 143.179 76.8988 142.791 77.3792C142.406 77.8567 141.918 78.0955 141.328 78.0955C141.088 78.0955 140.875 78.068 140.69 78.013C140.504 77.958 140.315 77.8727 140.121 77.7569V79.7886H139.305V73.1508H140.121V73.6587C140.324 73.4764 140.548 73.3244 140.794 73.2029C141.043 73.0784 141.313 73.0162 141.606 73.0162C142.161 73.0162 142.594 73.2362 142.904 73.6761C143.216 74.116 143.373 74.7064 143.373 75.4473ZM142.53 75.5385C142.53 74.9857 142.442 74.5574 142.266 74.2535C142.089 73.9467 141.803 73.7933 141.406 73.7933C141.175 73.7933 140.95 73.8454 140.733 73.9496C140.519 74.0509 140.315 74.1826 140.121 74.3446V77.0927C140.335 77.1969 140.518 77.2678 140.668 77.3054C140.821 77.343 140.997 77.3618 141.193 77.3618C141.616 77.3618 141.944 77.207 142.179 76.8973C142.413 76.5876 142.53 76.1347 142.53 75.5385ZM148.031 73.1508L145.422 79.7886H144.549L145.417 77.7656L143.655 73.1508H144.536L145.86 76.741L147.18 73.1508H148.031ZM151.86 76.6585C151.86 76.9306 151.8 77.1607 151.682 77.3488C151.563 77.5369 151.411 77.686 151.226 77.796C151.049 77.903 150.848 77.9826 150.623 78.0347C150.397 78.0868 150.171 78.1129 149.945 78.1129C149.627 78.1129 149.326 78.081 149.042 78.0174C148.759 77.9566 148.477 77.8582 148.196 77.7222V76.8192H148.248C148.445 77.0015 148.691 77.1462 148.986 77.2533C149.284 77.3575 149.581 77.4096 149.876 77.4096C150.003 77.4096 150.139 77.3966 150.284 77.3705C150.432 77.3416 150.556 77.2982 150.657 77.2403C150.79 77.1592 150.884 77.0724 150.939 76.9798C150.997 76.8872 151.026 76.7598 151.026 76.5978C151.026 76.4241 150.993 76.2852 150.926 76.181C150.863 76.0739 150.775 75.9943 150.662 75.9422C150.549 75.8901 150.421 75.8583 150.28 75.8467C150.141 75.8323 149.993 75.825 149.837 75.825H149.264V75.1217H149.702C149.812 75.1217 149.95 75.1188 150.115 75.1131C150.28 75.1044 150.411 75.0812 150.51 75.0436C150.634 74.9973 150.734 74.9322 150.809 74.8482C150.884 74.7614 150.922 74.6167 150.922 74.4141C150.922 74.2723 150.89 74.158 150.827 74.0711C150.763 73.9843 150.683 73.9163 150.588 73.8671C150.489 73.815 150.382 73.7803 150.267 73.7629C150.151 73.7427 150.039 73.7325 149.932 73.7325C149.657 73.7325 149.393 73.7716 149.138 73.8497C148.886 73.925 148.669 74.0379 148.487 74.1884H148.435V73.3071C148.643 73.2347 148.873 73.1711 149.125 73.1161C149.38 73.0611 149.634 73.0336 149.889 73.0336C150.094 73.0336 150.303 73.0553 150.514 73.0987C150.728 73.1392 150.931 73.2101 151.122 73.3114C151.301 73.4098 151.452 73.5459 151.573 73.7195C151.695 73.8903 151.756 74.1001 151.756 74.349C151.756 74.6124 151.68 74.8439 151.53 75.0436C151.382 75.2404 151.185 75.3706 150.939 75.4343V75.4647C151.209 75.5573 151.429 75.6991 151.599 75.8901C151.773 76.0812 151.86 76.3373 151.86 76.6585ZM156.622 78H155.606L153.944 75.7642H153.536V78H152.719V73.1508H153.536V75.2607C153.747 75.2578 153.926 75.2143 154.074 75.1304C154.224 75.0436 154.352 74.8772 154.456 74.6312C154.488 74.5588 154.522 74.4749 154.56 74.3794C154.601 74.2839 154.632 74.1999 154.656 74.1276C154.783 73.7716 154.959 73.5198 155.185 73.3722C155.411 73.2246 155.705 73.1508 156.067 73.1508H156.288V73.8541H156.101C155.873 73.8541 155.7 73.9018 155.585 73.9973C155.472 74.09 155.376 74.2607 155.298 74.5096C155.217 74.7614 155.122 74.9582 155.012 75.1C154.902 75.239 154.78 75.346 154.647 75.4213L156.622 78ZM160.976 78H160.169V74.3837L157.886 78H157.147V73.1508H157.955V76.7106L160.212 73.1508H160.976V78Z" fill="#8C99B2"/>
<rect x="26.5" y="62.5" width="292" height="24" stroke="#5C6585" stroke-opacity="0.25"/>
<line x1="25.7393" y1="74.8106" x2="17.7013" y2="74.8106" stroke="#0089FF" stroke-width="0.635066" stroke-dasharray="0.64 0.64"/>
<rect width="0.949895" height="24.7595" transform="translate(25.7393 62.1133)" fill="#4B5169"/>
<defs>
<linearGradient id="paint0_linear" x1="7" y1="17.5" x2="67" y2="17.5" gradientUnits="userSpaceOnUse">
<stop stop-color="#0487FD"/>
<stop offset="0.84" stop-color="#0487FD" stop-opacity="0"/>
</linearGradient>
<clipPath id="clip0">
<rect width="10.1611" height="10.1611" fill="white" transform="translate(12.6208 12.3628)"/>
</clipPath>
</defs>
</svg>
