<svg width="324" height="117" viewBox="0 0 324 117" fill="none" xmlns="http://www.w3.org/2000/svg">
<rect x="276.731" y="53.6427" width="42.2692" height="42.2692" rx="1.72527" fill="#5E6582" fill-opacity="0.1"/>
<path d="M302.825 74.404C303.113 74.57 303.113 74.985 302.825 75.151L294.415 80.0069C294.127 80.173 293.768 79.9654 293.768 79.6334L293.768 69.9216C293.768 69.5895 294.127 69.382 294.415 69.548L302.825 74.404Z" stroke="#5B607D" stroke-width="0.862637"/>
<g opacity="0.3">
<path d="M5 21.7253C5 20.7724 5.77243 20 6.72527 20H93.2747C94.2276 20 95 20.7724 95 21.7253V39.2747C95 40.2276 94.2276 41 93.2747 41H6.72527C5.77243 41 5 40.2276 5 39.2747V21.7253Z" fill="#12151E"/>
<path d="M6.72527 20.8626H93.2747V19.1374H6.72527V20.8626ZM94.1374 21.7253V39.2747H95.8626V21.7253H94.1374ZM93.2747 40.1374H6.72527V41.8626H93.2747V40.1374ZM5.86264 39.2747V21.7253H4.13736V39.2747H5.86264ZM6.72527 40.1374C6.24885 40.1374 5.86264 39.7511 5.86264 39.2747H4.13736C4.13736 40.704 5.29601 41.8626 6.72527 41.8626V40.1374ZM94.1374 39.2747C94.1374 39.7511 93.7511 40.1374 93.2747 40.1374V41.8626C94.704 41.8626 95.8626 40.704 95.8626 39.2747H94.1374ZM93.2747 20.8626C93.7511 20.8626 94.1374 21.2489 94.1374 21.7253H95.8626C95.8626 20.296 94.704 19.1374 93.2747 19.1374V20.8626ZM6.72527 19.1374C5.29601 19.1374 4.13736 20.296 4.13736 21.7253H5.86264C5.86264 21.2489 6.24885 20.8626 6.72527 20.8626V19.1374Z" fill="#4B5169"/>
<path d="M86.3736 27.4121L81.1978 32.5879L76.022 27.4121" stroke="#8C99B2" stroke-width="0.862637" stroke-miterlimit="10" stroke-linecap="round" stroke-linejoin="round"/>
<path d="M18.4939 25.882C18.8042 26.2397 19.0451 26.6833 19.2167 27.2126C19.3882 27.7419 19.474 28.3461 19.474 29.0251C19.474 29.6858 19.3901 30.2827 19.2221 30.8156C19.0542 31.3486 18.8115 31.7958 18.4939 32.1572C18.1617 32.5368 17.7729 32.8179 17.3275 33.0004C16.8858 33.1793 16.3985 33.2687 15.8655 33.2687C15.3143 33.2687 14.8178 33.1757 14.3761 32.9895C13.9344 32.8033 13.5548 32.5259 13.2372 32.1572C12.9232 31.7958 12.6823 31.3504 12.5144 30.8211C12.3465 30.2918 12.2625 29.6931 12.2625 29.0251C12.2625 28.3388 12.3465 27.7364 12.5144 27.2181C12.6859 26.6997 12.9287 26.2543 13.2426 25.882C13.5566 25.5206 13.9344 25.2468 14.3761 25.0606C14.8215 24.8708 15.3179 24.7759 15.8655 24.7759C16.4204 24.7759 16.9205 24.8726 17.3659 25.0661C17.8112 25.2596 18.1872 25.5315 18.4939 25.882ZM18.346 29.0251C18.346 28.4848 18.2876 28.0066 18.1708 27.5904C18.054 27.1743 17.8897 26.8293 17.678 26.5555C17.4626 26.2744 17.2016 26.0645 16.895 25.9258C16.592 25.7834 16.2506 25.7122 15.871 25.7122C15.4767 25.7122 15.1318 25.7816 14.8361 25.9203C14.544 26.0554 14.2849 26.2671 14.0585 26.5555C13.8431 26.8329 13.6771 27.1816 13.5602 27.6014C13.4471 28.0212 13.3905 28.4957 13.3905 29.0251C13.3905 30.0947 13.615 30.9142 14.064 31.4837C14.513 32.0495 15.1153 32.3324 15.871 32.3324C16.6266 32.3324 17.2271 32.0495 17.6725 31.4837C18.1215 30.9142 18.346 30.0947 18.346 29.0251ZM26.587 33.099H25.5028V29.1072H21.7519V33.099H20.6677V24.9456H21.7519V28.1435H25.5028V24.9456H26.587V33.099ZM34.1654 33.099H33.0812V25.9094H29.3303V33.099H28.2461V24.9456H34.1654V33.099ZM40.0408 29.1674C40.2234 29.3244 40.373 29.5215 40.4899 29.7588C40.6103 29.9924 40.6706 30.2954 40.6706 30.6678C40.6706 31.0328 40.5975 31.3723 40.4515 31.6863C40.3055 31.9966 40.1047 32.2685 39.8492 32.5021C39.5864 32.7431 39.2615 32.9274 38.8745 33.0552C38.4876 33.183 38.0568 33.2468 37.5822 33.2468C37.0748 33.2468 36.6094 33.1976 36.1859 33.099C35.7625 32.9968 35.423 32.8909 35.1674 32.7814V31.5658H35.2441C35.5361 31.7593 35.8902 31.9308 36.3064 32.0805C36.7262 32.2265 37.146 32.2995 37.5658 32.2995C37.8323 32.2995 38.097 32.2649 38.3598 32.1955C38.6263 32.1225 38.849 32.0057 39.0278 31.8451C39.2067 31.6844 39.3381 31.511 39.4221 31.3249C39.506 31.135 39.548 30.8978 39.548 30.613C39.548 30.3356 39.4969 30.102 39.3947 29.9121C39.2961 29.7223 39.1556 29.569 38.9731 29.4522C38.7942 29.3354 38.5788 29.2532 38.3269 29.2058C38.0787 29.1547 37.8122 29.1291 37.5275 29.1291H36.6733V28.2201H37.418C37.9947 28.2201 38.4584 28.1051 38.8088 27.8752C39.1593 27.6452 39.3345 27.3093 39.3345 26.8676C39.3345 26.6668 39.2907 26.4953 39.2031 26.3529C39.1191 26.2069 38.9986 26.0882 38.8417 25.997C38.6701 25.8984 38.4894 25.8327 38.2996 25.7999C38.1134 25.7634 37.909 25.7451 37.6863 25.7451C37.4526 25.7451 37.2227 25.7725 36.9963 25.8272C36.77 25.8783 36.5565 25.9422 36.3557 26.0189C36.1659 26.0955 35.9998 26.1759 35.8574 26.2598C35.715 26.3438 35.5982 26.4131 35.5069 26.4679H35.4358V25.2687C35.684 25.1519 36.0217 25.0442 36.4488 24.9456C36.8759 24.8471 37.2975 24.7978 37.7137 24.7978C38.1335 24.7978 38.4949 24.8343 38.7979 24.9073C39.1008 24.9767 39.3783 25.0917 39.6302 25.2523C39.9039 25.4312 40.1084 25.6429 40.2434 25.8875C40.3822 26.1284 40.4515 26.4168 40.4515 26.7526C40.4515 27.1943 40.3037 27.5795 40.008 27.908C39.7159 28.2366 39.3326 28.4519 38.8581 28.5541V28.6363C39.0406 28.6691 39.2377 28.7275 39.4495 28.8115C39.6648 28.8955 39.862 29.0141 40.0408 29.1674Z" fill="#D7E2F2"/>
</g>
<g opacity="0.3" clip-path="url(#clip0)">
<path d="M106.791 30.3517C106.791 27.0305 109.509 24.3132 112.83 24.3132C116.151 24.3132 118.868 27.0305 118.868 30.3517C118.868 33.6728 116.151 36.3902 112.83 36.3902C109.509 36.3902 106.791 33.6728 106.791 30.3517Z" stroke="#606580" stroke-width="0.862637" stroke-miterlimit="10" stroke-linecap="round" stroke-linejoin="round"/>
<path d="M112.14 28.2382L114.253 30.3516L112.14 32.4651" stroke="#606580" stroke-width="0.862637" stroke-miterlimit="10" stroke-linecap="round" stroke-linejoin="round"/>
</g>
<g opacity="0.3">
<path d="M131.808 21.7253C131.808 20.7724 132.58 20 133.533 20H317.275C318.227 20 319 20.7724 319 21.7253V38.978C319 39.9309 318.227 40.7033 317.275 40.7033H133.533C132.58 40.7033 131.808 39.9309 131.808 38.978V21.7253Z" fill="#12151E"/>
<path d="M133.533 20.8626H317.275V19.1374H133.533V20.8626ZM318.137 21.7253V38.978H319.863V21.7253H318.137ZM317.275 39.8407H133.533V41.5659H317.275V39.8407ZM132.67 38.978V21.7253H130.945V38.978H132.67ZM133.533 39.8407C133.056 39.8407 132.67 39.4544 132.67 38.978H130.945C130.945 40.4073 132.104 41.5659 133.533 41.5659V39.8407ZM318.137 38.978C318.137 39.4544 317.751 39.8407 317.275 39.8407V41.5659C318.704 41.5659 319.863 40.4073 319.863 38.978H318.137ZM317.275 20.8626C317.751 20.8626 318.137 21.2489 318.137 21.7253H319.863C319.863 20.296 318.704 19.1374 317.275 19.1374V20.8626ZM133.533 19.1374C132.104 19.1374 130.945 20.296 130.945 21.7253H132.67C132.67 21.2489 133.056 20.8626 133.533 20.8626V19.1374Z" fill="#4B5169"/>
<path d="M310.374 27.7638L305.198 32.9396L300.022 27.7638" stroke="#8C99B2" stroke-width="0.862637" stroke-miterlimit="10" stroke-linecap="round" stroke-linejoin="round"/>
<path d="M150.631 34.4506H149.547V27.2609H145.796V34.4506H144.712V26.2972H150.631V34.4506ZM156.944 34.4506H155.915V29.1993H153.812C153.801 29.5023 153.79 29.7944 153.779 30.0755C153.768 30.3529 153.757 30.6048 153.746 30.8311C153.725 31.4042 153.686 31.8843 153.631 32.2712C153.58 32.6582 153.515 32.9685 153.434 33.2021C153.354 33.443 153.265 33.631 153.166 33.7661C153.071 33.9012 152.963 34.0235 152.843 34.133C152.719 34.2425 152.586 34.3246 152.443 34.3794C152.301 34.4341 152.14 34.4615 151.961 34.4615C151.903 34.4615 151.828 34.4597 151.737 34.456C151.646 34.4524 151.582 34.4506 151.545 34.4506V33.5525H151.6C151.626 33.5525 151.651 33.5544 151.677 33.558C151.706 33.5617 151.739 33.5635 151.775 33.5635C151.863 33.5635 151.949 33.5507 152.033 33.5252C152.117 33.4996 152.191 33.4522 152.257 33.3828C152.44 33.2039 152.573 32.8918 152.657 32.4464C152.741 31.9974 152.801 31.3714 152.838 30.5683C152.852 30.2689 152.865 29.9148 152.876 29.506C152.89 29.0971 152.903 28.7065 152.914 28.3342H156.944V34.4506ZM161.856 32.9447V31.2473C161.611 31.2692 161.301 31.3002 160.925 31.3403C160.553 31.3769 160.252 31.4298 160.022 31.4991C159.748 31.5831 159.522 31.7127 159.343 31.8879C159.164 32.0595 159.074 32.3004 159.074 32.6107C159.074 32.9612 159.173 33.2258 159.37 33.4047C159.567 33.5836 159.856 33.673 160.235 33.673C160.56 33.673 160.854 33.6036 161.117 33.4649C161.38 33.3226 161.626 33.1492 161.856 32.9447ZM161.856 33.799C161.772 33.861 161.659 33.9486 161.517 34.0618C161.378 34.1713 161.243 34.2589 161.111 34.3246C160.929 34.4195 160.752 34.4925 160.58 34.5436C160.412 34.5948 160.175 34.6203 159.868 34.6203C159.616 34.6203 159.377 34.5729 159.151 34.4779C158.925 34.383 158.726 34.2498 158.554 34.0782C158.39 33.9103 158.258 33.704 158.16 33.4595C158.061 33.2112 158.012 32.9502 158.012 32.6764C158.012 32.253 158.102 31.8934 158.28 31.5977C158.459 31.2984 158.742 31.0611 159.129 30.8859C159.472 30.7289 159.877 30.6212 160.345 30.5628C160.812 30.5007 161.316 30.4551 161.856 30.4259V30.2288C161.856 29.9878 161.82 29.7944 161.747 29.6484C161.674 29.4987 161.571 29.3837 161.44 29.3034C161.308 29.2194 161.148 29.1647 160.958 29.1391C160.768 29.1099 160.573 29.0953 160.372 29.0953C160.135 29.0953 159.856 29.1318 159.534 29.2048C159.213 29.2742 158.892 29.3764 158.571 29.5115H158.51V28.4656C158.7 28.4108 158.972 28.3506 159.326 28.2849C159.68 28.2192 160.031 28.1863 160.378 28.1863C160.797 28.1863 161.151 28.2192 161.44 28.2849C161.728 28.3506 161.987 28.4692 162.217 28.6408C162.44 28.8087 162.606 29.0259 162.716 29.2924C162.825 29.5589 162.88 29.8838 162.88 30.2671V34.4506H161.856V33.799ZM169.161 34.4506H168.131V31.6963H165.36V34.4506H164.331V28.3342H165.36V30.8092H168.131V28.3342H169.161V34.4506ZM178.984 34.4506H177.955V29.2212H175.184V34.4506H174.155V28.3342H178.984V34.4506ZM185.604 31.2308C185.604 32.2493 185.36 33.0616 184.871 33.6675C184.385 34.2699 183.77 34.571 183.025 34.571C182.722 34.571 182.454 34.5363 182.22 34.467C181.987 34.3976 181.748 34.2899 181.503 34.1439V36.7066H180.474V28.3342H181.503V28.9748C181.758 28.7449 182.041 28.5532 182.352 28.3999C182.666 28.2429 183.007 28.1644 183.376 28.1644C184.077 28.1644 184.622 28.4419 185.013 28.9967C185.407 29.5516 185.604 30.2963 185.604 31.2308ZM184.542 31.3458C184.542 30.6486 184.431 30.1083 184.208 29.725C183.985 29.3381 183.624 29.1446 183.124 29.1446C182.832 29.1446 182.549 29.2103 182.275 29.3417C182.005 29.4695 181.748 29.6356 181.503 29.84V33.3061C181.773 33.4376 182.003 33.527 182.193 33.5744C182.386 33.6219 182.607 33.6456 182.855 33.6456C183.388 33.6456 183.803 33.4503 184.098 33.0597C184.394 32.6691 184.542 32.0978 184.542 31.3458ZM191.704 31.3951C191.704 32.4245 191.456 33.2203 190.96 33.7825C190.463 34.341 189.802 34.6203 188.977 34.6203C188.127 34.6203 187.457 34.3319 186.968 33.7551C186.482 33.1747 186.239 32.388 186.239 31.3951C186.239 30.373 186.489 29.579 186.99 29.0132C187.493 28.4473 188.156 28.1644 188.977 28.1644C189.802 28.1644 190.463 28.4473 190.96 29.0132C191.456 29.5753 191.704 30.3693 191.704 31.3951ZM190.642 31.3951C190.642 30.603 190.498 30.0152 190.209 29.6319C189.921 29.245 189.51 29.0515 188.977 29.0515C188.441 29.0515 188.026 29.245 187.734 29.6319C187.446 30.0152 187.302 30.603 187.302 31.3951C187.302 32.1617 187.446 32.744 187.734 33.1419C188.026 33.5361 188.441 33.7332 188.977 33.7332C189.507 33.7332 189.915 33.5398 190.204 33.1528C190.496 32.7622 190.642 32.1763 190.642 31.3951ZM197.591 34.4506H196.572V29.8893L193.692 34.4506H192.761V28.3342H193.78V32.8243L196.627 28.3342H197.591V34.4506ZM203.132 32.7586C203.132 33.1017 203.057 33.3919 202.908 33.6292C202.758 33.8665 202.566 34.0545 202.333 34.1932C202.11 34.3283 201.856 34.4287 201.571 34.4944C201.287 34.5601 201.002 34.5929 200.717 34.5929C200.316 34.5929 199.936 34.5528 199.578 34.4725C199.221 34.3958 198.865 34.2717 198.511 34.1001V32.9612H198.576C198.824 33.1911 199.135 33.3737 199.507 33.5087C199.883 33.6402 200.257 33.7059 200.63 33.7059C200.79 33.7059 200.962 33.6894 201.144 33.6566C201.331 33.6201 201.488 33.5653 201.615 33.4923C201.783 33.3901 201.902 33.2806 201.971 33.1638C202.044 33.047 202.081 32.8863 202.081 32.6819C202.081 32.4629 202.039 32.2877 201.955 32.1562C201.874 32.0212 201.763 31.9208 201.621 31.8551C201.478 31.7894 201.318 31.7492 201.139 31.7346C200.964 31.7163 200.777 31.7072 200.58 31.7072H199.858V30.8202H200.411C200.549 30.8202 200.723 30.8165 200.931 30.8092C201.139 30.7983 201.305 30.769 201.429 30.7216C201.586 30.6632 201.712 30.581 201.807 30.4752C201.902 30.3657 201.949 30.1831 201.949 29.9276C201.949 29.7487 201.909 29.6045 201.829 29.495C201.749 29.3855 201.648 29.2997 201.528 29.2377C201.404 29.172 201.268 29.1282 201.122 29.1063C200.976 29.0807 200.836 29.0679 200.701 29.0679C200.354 29.0679 200.02 29.1172 199.699 29.2158C199.381 29.3107 199.107 29.453 198.877 29.6429H198.812V28.5313C199.075 28.44 199.365 28.3597 199.682 28.2904C200.004 28.221 200.325 28.1863 200.646 28.1863C200.905 28.1863 201.168 28.2137 201.435 28.2685C201.705 28.3196 201.96 28.409 202.201 28.5368C202.428 28.6609 202.617 28.8325 202.771 29.0515C202.924 29.2669 203.001 29.5315 203.001 29.8455C203.001 30.1777 202.906 30.4697 202.716 30.7216C202.53 30.9698 202.281 31.1341 201.971 31.2144V31.2527C202.311 31.3696 202.588 31.5484 202.804 31.7894C203.023 32.0303 203.132 32.3534 203.132 32.7586ZM209.013 32.5998C209.013 32.8955 208.956 33.1583 208.843 33.3883C208.73 33.6146 208.575 33.8044 208.378 33.9577C208.13 34.1512 207.869 34.2826 207.595 34.352C207.325 34.4177 207 34.4506 206.62 34.4506H204.216V28.3342H206.461C206.91 28.3342 207.239 28.3488 207.447 28.378C207.655 28.4035 207.861 28.4729 208.066 28.5861C208.281 28.7029 208.44 28.858 208.542 29.0515C208.644 29.245 208.695 29.475 208.695 29.7414C208.695 30.0335 208.615 30.2963 208.454 30.5299C208.294 30.7599 208.08 30.9388 207.814 31.0666L207.841 31.1049C208.173 31.1889 208.451 31.3586 208.673 31.6141C208.9 31.8697 209.013 32.1982 209.013 32.5998ZM207.639 29.9002C207.639 29.7615 207.615 29.641 207.567 29.5388C207.524 29.4366 207.445 29.3563 207.332 29.2979C207.201 29.2285 207.053 29.1884 206.888 29.1774C206.728 29.1628 206.503 29.1555 206.215 29.1555H205.235V30.8311H206.417C206.669 30.8311 206.848 30.8202 206.954 30.7983C207.06 30.7727 207.177 30.7216 207.305 30.6449C207.425 30.5719 207.511 30.4734 207.562 30.3492C207.613 30.2251 207.639 30.0755 207.639 29.9002ZM207.951 32.6052C207.951 32.3972 207.92 32.2311 207.858 32.107C207.799 31.9792 207.668 31.866 207.463 31.7675C207.336 31.7054 207.199 31.6671 207.053 31.6525C206.907 31.6379 206.704 31.6306 206.445 31.6306H205.235V33.6292H206.127C206.496 33.6292 206.783 33.6146 206.987 33.5854C207.191 33.5562 207.367 33.4978 207.513 33.4102C207.666 33.3153 207.777 33.2057 207.847 33.0816C207.916 32.9575 207.951 32.7987 207.951 32.6052ZM215.129 31.3951C215.129 32.4245 214.881 33.2203 214.385 33.7825C213.888 34.341 213.227 34.6203 212.402 34.6203C211.552 34.6203 210.882 34.3319 210.393 33.7551C209.907 33.1747 209.665 32.388 209.665 31.3951C209.665 30.373 209.915 29.579 210.415 29.0132C210.919 28.4473 211.581 28.1644 212.402 28.1644C213.227 28.1644 213.888 28.4473 214.385 29.0132C214.881 29.5753 215.129 30.3693 215.129 31.3951ZM214.067 31.3951C214.067 30.603 213.923 30.0152 213.634 29.6319C213.346 29.245 212.935 29.0515 212.402 29.0515C211.866 29.0515 211.451 29.245 211.159 29.6319C210.871 30.0152 210.727 30.603 210.727 31.3951C210.727 32.1617 210.871 32.744 211.159 33.1419C211.451 33.5361 211.866 33.7332 212.402 33.7332C212.932 33.7332 213.341 33.5398 213.629 33.1528C213.921 32.7622 214.067 32.1763 214.067 31.3951ZM221.432 35.9181H220.474V34.4341H216.444V35.9181H215.485V33.5744H215.89C216.237 33.005 216.52 32.2621 216.739 31.3458C216.962 30.4259 217.073 29.422 217.073 28.3342H220.824V33.5744H221.432V35.9181ZM219.795 33.5744V29.1993H218.042C217.995 30.112 217.869 30.9461 217.665 31.7017C217.464 32.4537 217.21 33.078 216.904 33.5744H219.795ZM224.882 34.5875C224.462 34.5875 224.077 34.5236 223.726 34.3958C223.376 34.2644 223.075 34.0673 222.823 33.8044C222.571 33.5416 222.376 33.2112 222.237 32.8133C222.098 32.4118 222.029 31.9409 222.029 31.4006C222.029 30.864 222.1 30.4004 222.242 30.0097C222.388 29.6191 222.582 29.2906 222.823 29.0241C223.064 28.7576 223.363 28.5532 223.721 28.4108C224.082 28.2648 224.469 28.1918 224.882 28.1918C225.217 28.1918 225.541 28.2393 225.851 28.3342C226.165 28.4291 226.444 28.5386 226.689 28.6627V29.8181H226.628C226.555 29.756 226.46 29.6849 226.344 29.6045C226.23 29.5242 226.092 29.4421 225.927 29.3581C225.785 29.2851 225.617 29.2212 225.424 29.1665C225.23 29.1117 225.044 29.0844 224.865 29.0844C224.332 29.0844 223.903 29.287 223.578 29.6922C223.257 30.0937 223.097 30.6632 223.097 31.4006C223.097 32.1234 223.252 32.6874 223.562 33.0926C223.876 33.4941 224.31 33.6949 224.865 33.6949C225.201 33.6949 225.52 33.6256 225.823 33.4868C226.126 33.3481 226.395 33.1692 226.628 32.9502H226.689V34.1056C226.586 34.153 226.459 34.2115 226.305 34.2808C226.152 34.3465 226.013 34.3958 225.889 34.4287C225.714 34.4798 225.557 34.5181 225.418 34.5436C225.28 34.5729 225.101 34.5875 224.882 34.5875ZM232.099 29.2377H230.018V34.4506H228.988V29.2377H226.908V28.3342H232.099V29.2377ZM237.662 32.5998C237.662 32.8955 237.605 33.1583 237.492 33.3883C237.379 33.6146 237.224 33.8044 237.027 33.9577C236.779 34.1512 236.518 34.2826 236.244 34.352C235.974 34.4177 235.649 34.4506 235.269 34.4506H232.865V28.3342H235.11C235.559 28.3342 235.888 28.3488 236.096 28.378C236.304 28.4035 236.51 28.4729 236.715 28.5861C236.93 28.7029 237.089 28.858 237.191 29.0515C237.293 29.245 237.344 29.475 237.344 29.7414C237.344 30.0335 237.264 30.2963 237.103 30.5299C236.943 30.7599 236.729 30.9388 236.463 31.0666L236.49 31.1049C236.822 31.1889 237.1 31.3586 237.322 31.6141C237.549 31.8697 237.662 32.1982 237.662 32.5998ZM236.288 29.9002C236.288 29.7615 236.264 29.641 236.216 29.5388C236.173 29.4366 236.094 29.3563 235.981 29.2979C235.85 29.2285 235.702 29.1884 235.537 29.1774C235.377 29.1628 235.152 29.1555 234.864 29.1555H233.884V30.8311H235.066C235.318 30.8311 235.497 30.8202 235.603 30.7983C235.709 30.7727 235.826 30.7216 235.954 30.6449C236.074 30.5719 236.16 30.4734 236.211 30.3492C236.262 30.2251 236.288 30.0755 236.288 29.9002ZM236.6 32.6052C236.6 32.3972 236.569 32.2311 236.507 32.107C236.448 31.9792 236.317 31.866 236.112 31.7675C235.985 31.7054 235.848 31.6671 235.702 31.6525C235.556 31.6379 235.353 31.6306 235.094 31.6306H233.884V33.6292H234.776C235.145 33.6292 235.432 33.6146 235.636 33.5854C235.84 33.5562 236.016 33.4978 236.162 33.4102C236.315 33.3153 236.426 33.2057 236.496 33.0816C236.565 32.9575 236.6 32.7987 236.6 32.6052ZM242.163 32.9447V31.2473C241.918 31.2692 241.608 31.3002 241.232 31.3403C240.86 31.3769 240.559 31.4298 240.329 31.4991C240.055 31.5831 239.829 31.7127 239.65 31.8879C239.471 32.0595 239.381 32.3004 239.381 32.6107C239.381 32.9612 239.48 33.2258 239.677 33.4047C239.874 33.5836 240.163 33.673 240.542 33.673C240.867 33.673 241.161 33.6036 241.424 33.4649C241.687 33.3226 241.933 33.1492 242.163 32.9447ZM242.163 33.799C242.079 33.861 241.966 33.9486 241.824 34.0618C241.685 34.1713 241.55 34.2589 241.418 34.3246C241.236 34.4195 241.059 34.4925 240.887 34.5436C240.719 34.5948 240.482 34.6203 240.175 34.6203C239.923 34.6203 239.684 34.5729 239.458 34.4779C239.232 34.383 239.033 34.2498 238.861 34.0782C238.697 33.9103 238.565 33.704 238.467 33.4595C238.368 33.2112 238.319 32.9502 238.319 32.6764C238.319 32.253 238.408 31.8934 238.587 31.5977C238.766 31.2984 239.049 31.0611 239.436 30.8859C239.779 30.7289 240.184 30.6212 240.652 30.5628C241.119 30.5007 241.623 30.4551 242.163 30.4259V30.2288C242.163 29.9878 242.127 29.7944 242.054 29.6484C241.98 29.4987 241.878 29.3837 241.747 29.3034C241.615 29.2194 241.455 29.1647 241.265 29.1391C241.075 29.1099 240.88 29.0953 240.679 29.0953C240.442 29.0953 240.163 29.1318 239.841 29.2048C239.52 29.2742 239.199 29.3764 238.878 29.5115H238.817V28.4656C239.007 28.4108 239.279 28.3506 239.633 28.2849C239.987 28.2192 240.338 28.1863 240.685 28.1863C241.104 28.1863 241.458 28.2192 241.747 28.2849C242.035 28.3506 242.294 28.4692 242.524 28.6408C242.747 28.8087 242.913 29.0259 243.023 29.2924C243.132 29.5589 243.187 29.8838 243.187 30.2671V34.4506H242.163V33.799Z" fill="#D7E2F2"/>
</g>
<path d="M5.43132 55.368C5.43132 54.6533 6.01064 54.074 6.72527 54.074H268.104C268.819 54.074 269.398 54.6533 269.398 55.368V94.1867C269.398 94.9013 268.819 95.4806 268.104 95.4806H6.72528C6.01064 95.4806 5.43132 94.9013 5.43132 94.1867V55.368Z" fill="#181C2A"/>
<g clip-path="url(#clip1)">
<path d="M253.44 72.1895L247.401 78.2279L241.363 72.1895" stroke="#606580" stroke-width="1.03516" stroke-miterlimit="10" stroke-linecap="round" stroke-linejoin="round"/>
</g>
<path d="M5.43132 55.368C5.43132 54.6533 6.01064 54.074 6.72527 54.074H268.104C268.819 54.074 269.398 54.6533 269.398 55.368V94.1867C269.398 94.9013 268.819 95.4806 268.104 95.4806H6.72528C6.01064 95.4806 5.43132 94.9013 5.43132 94.1867V55.368Z" stroke="#383D53" stroke-width="0.862637"/>
<path d="M27.0745 79.4451H25.9069V75.1462H21.8675V79.4451H20.6999V70.6645H21.8675V74.1083H25.9069V70.6645H27.0745V79.4451ZM34.0683 71.7024H30.0289V79.4451H28.8613V70.6645H34.0683V71.7024ZM40.5372 73.3123C40.5372 73.6936 40.4684 74.0553 40.3308 74.3973C40.1971 74.7354 40.0104 75.0243 39.7706 75.2641C39.4679 75.5629 39.1121 75.789 38.7033 75.9423C38.2944 76.0956 37.7774 76.1723 37.1524 76.1723H36.1617V79.4451H34.9941V70.6645H37.1995C37.7185 70.6645 38.1607 70.7078 38.5263 70.7943C38.892 70.8808 39.2143 71.0203 39.4934 71.2129C39.8197 71.437 40.0753 71.7221 40.26 72.068C40.4448 72.41 40.5372 72.8248 40.5372 73.3123ZM39.3224 73.3417C39.3224 73.039 39.2694 72.7756 39.1632 72.5516C39.061 72.3275 38.9038 72.1447 38.6915 72.0031C38.5067 71.8813 38.2905 71.7948 38.0428 71.7437C37.7991 71.6926 37.4944 71.667 37.1288 71.667H36.1617V75.1757H36.9578C37.4295 75.1757 37.8109 75.1383 38.1018 75.0636C38.3927 74.985 38.6345 74.8474 38.8271 74.6509C39.0001 74.474 39.1259 74.2813 39.2045 74.073C39.2831 73.8646 39.3224 73.6209 39.3224 73.3417ZM47.7904 70.6645L44.6061 78.0593C44.4724 78.3699 44.3211 78.6195 44.152 78.8082C43.9869 78.9969 43.8139 79.1384 43.6331 79.2328C43.4523 79.3311 43.2734 79.3959 43.0965 79.4274C42.9235 79.4588 42.7486 79.4746 42.5716 79.4746C42.4144 79.4746 42.2296 79.4706 42.0173 79.4628C41.805 79.4549 41.6694 79.449 41.6104 79.4451V78.3541H41.693C41.752 78.362 41.8404 78.3718 41.9584 78.3836C42.0802 78.3915 42.2336 78.3954 42.4183 78.3954C42.5048 78.3954 42.607 78.3915 42.725 78.3836C42.8429 78.3718 42.951 78.3423 43.0493 78.2952C43.1633 78.2401 43.2694 78.1674 43.3677 78.077C43.4699 77.9826 43.5623 77.8352 43.6449 77.6347L43.8454 77.1689L40.7613 70.6645H42.0527L44.4351 75.8302L46.5875 70.6645H47.7904ZM54.4009 81.2141H47.6194V80.4475H54.4009V81.2141ZM60.3096 79.4451H59.2128V74.5329L56.111 79.4451H55.1085V72.8582H56.2054V77.6937L59.2718 72.8582H60.3096V79.4451ZM69.9747 76.1546C69.9747 77.2593 69.7074 78.1143 69.1727 78.7197C68.642 79.3252 67.9383 79.6279 67.0616 79.6279C66.2007 79.6279 65.5166 79.3448 65.0095 78.7787C64.5063 78.2087 64.2311 77.4322 64.1839 76.4494H63.0222V79.4451H61.9136V72.8582H63.0222V75.5413H64.2075C64.2979 74.645 64.5967 73.9432 65.1038 73.4361C65.611 72.929 66.2636 72.6754 67.0616 72.6754C67.9855 72.6754 68.701 72.9899 69.2081 73.6189C69.7192 74.2479 69.9747 75.0931 69.9747 76.1546ZM68.8307 76.1546C68.8307 75.3133 68.6754 74.6823 68.3648 74.2617C68.0582 73.841 67.6238 73.6307 67.0616 73.6307C66.4916 73.6307 66.0513 73.843 65.7407 74.2676C65.4341 74.6921 65.2807 75.3211 65.2807 76.1546C65.2807 76.9801 65.436 77.6072 65.7466 78.0357C66.0572 78.4603 66.4955 78.6726 67.0616 78.6726C67.6238 78.6726 68.0582 78.4662 68.3648 78.0534C68.6754 77.6367 68.8307 77.0037 68.8307 76.1546ZM76.3139 79.4451H75.2053V76.4789H72.2214V79.4451H71.1128V72.8582H72.2214V75.5236H75.2053V72.8582H76.3139V79.4451ZM82.9067 77.4047C82.9067 77.7232 82.8418 78.0121 82.7121 78.2716C82.5863 78.531 82.4133 78.7414 82.1931 78.9026C81.9337 79.0991 81.6565 79.2387 81.3617 79.3212C81.0668 79.4038 80.6875 79.4451 80.2236 79.4451H77.9179V72.8582H79.0265V75.4234H80.2531C80.7484 75.4234 81.1317 75.4489 81.403 75.5C81.6781 75.5511 81.9514 75.6769 82.2226 75.8774C82.4506 76.0465 82.6217 76.2627 82.7357 76.5261C82.8497 76.7895 82.9067 77.0824 82.9067 77.4047ZM81.7627 77.4224C81.7627 77.2219 81.7273 77.047 81.6565 76.8976C81.5897 76.7443 81.4777 76.6204 81.3204 76.5261C81.1553 76.4278 80.9666 76.3688 80.7543 76.3492C80.5459 76.3295 80.2452 76.3197 79.8521 76.3197H79.0265V78.5605H79.8285C80.2216 78.5605 80.5263 78.5448 80.7425 78.5134C80.9587 78.478 81.1455 78.4131 81.3027 78.3188C81.4639 78.2165 81.5799 78.0966 81.6506 77.959C81.7253 77.8175 81.7627 77.6386 81.7627 77.4224ZM89.8533 81.2141H83.0718V80.4475H89.8533V81.2141ZM95.821 79.4451H90.4017V78.2126C90.7909 77.8431 91.1585 77.4893 91.5044 77.1512C91.8504 76.8131 92.1884 76.4612 92.5187 76.0956C93.187 75.3605 93.643 74.7727 93.8868 74.3324C94.1305 73.8882 94.2524 73.4302 94.2524 72.9584C94.2524 72.7147 94.2131 72.5004 94.1344 72.3157C94.0597 72.1309 93.9556 71.9776 93.8219 71.8557C93.6843 71.7378 93.5251 71.6493 93.3442 71.5904C93.1634 71.5314 92.9649 71.5019 92.7487 71.5019C92.5403 71.5019 92.328 71.5294 92.1118 71.5845C91.8995 71.6356 91.6951 71.7004 91.4985 71.7791C91.3334 71.8459 91.1742 71.9265 91.0209 72.0208C90.8675 72.1152 90.7437 72.1958 90.6493 72.2626H90.5845V71.0125C90.8282 70.8906 91.1663 70.7726 91.5988 70.6586C92.0351 70.5407 92.4479 70.4817 92.8371 70.4817C93.6548 70.4817 94.2956 70.6999 94.7595 71.1363C95.2234 71.5687 95.4553 72.1565 95.4553 72.8995C95.4553 73.2415 95.4141 73.558 95.3315 73.8489C95.2529 74.1398 95.1428 74.4091 95.0013 74.6568C94.8558 74.9123 94.6809 75.1659 94.4765 75.4175C94.272 75.6691 94.0558 75.9167 93.8278 76.1605C93.4583 76.5615 93.0455 76.9782 92.5894 77.4106C92.1373 77.8431 91.7757 78.1851 91.5044 78.4367H95.821V79.4451ZM102.455 75.0519C102.455 76.6283 102.225 77.7861 101.765 78.5251C101.309 79.2603 100.603 79.6279 99.6481 79.6279C98.681 79.6279 97.9714 79.2524 97.5193 78.5016C97.0672 77.7507 96.8411 76.6047 96.8411 75.0636C96.8411 73.4793 97.0691 72.3216 97.5252 71.5904C97.9851 70.8552 98.6928 70.4876 99.6481 70.4876C100.615 70.4876 101.325 70.867 101.777 71.6257C102.229 72.3845 102.455 73.5265 102.455 75.0519ZM100.945 77.7291C101.059 77.4381 101.14 77.0706 101.187 76.6263C101.234 76.1821 101.258 75.6573 101.258 75.0519C101.258 74.4504 101.234 73.9275 101.187 73.4833C101.14 73.039 101.057 72.6695 100.939 72.3746C100.822 72.0759 100.658 71.8498 100.45 71.6965C100.246 71.5392 99.9783 71.4606 99.6481 71.4606C99.3218 71.4606 99.0525 71.5392 98.8402 71.6965C98.6318 71.8498 98.4667 72.0798 98.3448 72.3864C98.2269 72.6852 98.1463 73.0626 98.1031 73.5186C98.0598 73.9747 98.0382 74.4897 98.0382 75.0636C98.0382 75.6769 98.0559 76.19 98.0913 76.6027C98.1306 77.0155 98.2132 77.3851 98.339 77.7114C98.453 78.0141 98.6141 78.248 98.8225 78.4131C99.0348 78.5743 99.31 78.6549 99.6481 78.6549C99.9744 78.6549 100.242 78.5782 100.45 78.4249C100.662 78.2676 100.827 78.0357 100.945 77.7291ZM109.632 81.2141H102.85V80.4475H109.632V81.2141ZM115.151 79.4451H110.87V78.5487H112.462V72.6636H110.87V71.8616C111.471 71.8616 111.914 71.7771 112.197 71.608C112.484 71.4351 112.645 71.1107 112.68 70.635H113.594V78.5487H115.151V79.4451ZM122.092 76.6499C122.092 77.0745 122.023 77.4676 121.885 77.8293C121.752 78.191 121.563 78.5035 121.319 78.7669C121.072 79.0342 120.763 79.2446 120.393 79.3979C120.028 79.5512 119.617 79.6279 119.161 79.6279C118.74 79.6279 118.326 79.5807 117.917 79.4863C117.512 79.3959 117.16 79.276 116.861 79.1266V77.8824H116.944C117.034 77.9492 117.164 78.0259 117.333 78.1124C117.502 78.1949 117.689 78.2735 117.893 78.3482C118.125 78.4308 118.337 78.4957 118.53 78.5428C118.723 78.5861 118.939 78.6077 119.179 78.6077C119.415 78.6077 119.645 78.5664 119.869 78.4839C120.093 78.3974 120.285 78.2598 120.447 78.0711C120.592 77.8981 120.702 77.6956 120.777 77.4637C120.855 77.2318 120.895 76.9585 120.895 76.644C120.895 76.3335 120.851 76.0779 120.765 75.8774C120.682 75.6769 120.561 75.5118 120.399 75.3821C120.23 75.2327 120.022 75.1285 119.774 75.0695C119.531 75.0066 119.257 74.9752 118.955 74.9752C118.636 74.9752 118.316 75.0007 117.993 75.0519C117.671 75.099 117.414 75.1442 117.221 75.1875V70.6645H122.039V71.6965H118.359V74.0317C118.501 74.016 118.64 74.0042 118.778 73.9963C118.915 73.9884 119.041 73.9845 119.155 73.9845C119.603 73.9845 119.983 74.0219 120.293 74.0965C120.604 74.1712 120.903 74.3167 121.19 74.5329C121.48 74.7531 121.703 75.0283 121.856 75.3585C122.013 75.6887 122.092 76.1192 122.092 76.6499ZM125.253 79.4451H123.843V77.7644H125.253V79.4451ZM132.482 75.0519C132.482 76.6283 132.252 77.7861 131.792 78.5251C131.336 79.2603 130.631 79.6279 129.675 79.6279C128.708 79.6279 127.999 79.2524 127.546 78.5016C127.094 77.7507 126.868 76.6047 126.868 75.0636C126.868 73.4793 127.096 72.3216 127.552 71.5904C128.012 70.8552 128.72 70.4876 129.675 70.4876C130.642 70.4876 131.352 70.867 131.804 71.6257C132.256 72.3845 132.482 73.5265 132.482 75.0519ZM130.973 77.7291C131.087 77.4381 131.167 77.0706 131.214 76.6263C131.262 76.1821 131.285 75.6573 131.285 75.0519C131.285 74.4504 131.262 73.9275 131.214 73.4833C131.167 73.039 131.085 72.6695 130.967 72.3746C130.849 72.0759 130.686 71.8498 130.477 71.6965C130.273 71.5392 130.005 71.4606 129.675 71.4606C129.349 71.4606 129.08 71.5392 128.867 71.6965C128.659 71.8498 128.494 72.0798 128.372 72.3864C128.254 72.6852 128.174 73.0626 128.13 73.5186C128.087 73.9747 128.065 74.4897 128.065 75.0636C128.065 75.6769 128.083 76.19 128.118 76.6027C128.158 77.0155 128.24 77.3851 128.366 77.7114C128.48 78.0141 128.641 78.248 128.85 78.4131C129.062 78.5743 129.337 78.6549 129.675 78.6549C130.002 78.6549 130.269 78.5782 130.477 78.4249C130.69 78.2676 130.855 78.0357 130.973 77.7291ZM138.933 76.6499C138.933 77.0745 138.865 77.4676 138.727 77.8293C138.593 78.191 138.405 78.5035 138.161 78.7669C137.913 79.0342 137.605 79.2446 137.235 79.3979C136.87 79.5512 136.459 79.6279 136.003 79.6279C135.582 79.6279 135.167 79.5807 134.758 79.4863C134.353 79.3959 134.002 79.276 133.703 79.1266V77.8824H133.785C133.876 77.9492 134.006 78.0259 134.175 78.1124C134.344 78.1949 134.53 78.2735 134.735 78.3482C134.967 78.4308 135.179 78.4957 135.372 78.5428C135.564 78.5861 135.781 78.6077 136.02 78.6077C136.256 78.6077 136.486 78.5664 136.71 78.4839C136.934 78.3974 137.127 78.2598 137.288 78.0711C137.434 77.8981 137.544 77.6956 137.618 77.4637C137.697 77.2318 137.736 76.9585 137.736 76.644C137.736 76.3335 137.693 76.0779 137.607 75.8774C137.524 75.6769 137.402 75.5118 137.241 75.3821C137.072 75.2327 136.864 75.1285 136.616 75.0695C136.372 75.0066 136.099 74.9752 135.796 74.9752C135.478 74.9752 135.157 75.0007 134.835 75.0519C134.513 75.099 134.255 75.1442 134.063 75.1875V70.6645H138.88V71.6965H135.201V74.0317C135.342 74.016 135.482 74.0042 135.619 73.9963C135.757 73.9884 135.883 73.9845 135.997 73.9845C136.445 73.9845 136.824 74.0219 137.135 74.0965C137.445 74.1712 137.744 74.3167 138.031 74.5329C138.322 74.7531 138.544 75.0283 138.698 75.3585C138.855 75.6887 138.933 76.1192 138.933 76.6499ZM146.252 81.2141H139.47V80.4475H146.252V81.2141ZM151.771 79.4451H147.49V78.5487H149.082V72.6636H147.49V71.8616C148.091 71.8616 148.534 71.7771 148.817 71.608C149.104 71.4351 149.265 71.1107 149.3 70.635H150.214V78.5487H151.771V79.4451ZM155.763 71.5019C155.551 71.5019 155.339 71.5275 155.126 71.5786C154.914 71.6297 154.706 71.6965 154.501 71.7791C154.313 71.8577 154.148 71.9402 154.006 72.0267C153.868 72.1132 153.745 72.1938 153.635 72.2685H153.564V71.0242C153.819 70.8867 154.165 70.7628 154.602 70.6527C155.042 70.5387 155.461 70.4817 155.858 70.4817C156.255 70.4817 156.601 70.523 156.896 70.6056C157.194 70.6842 157.464 70.808 157.703 70.9771C157.963 71.1658 158.157 71.3938 158.287 71.6611C158.421 71.9284 158.488 72.241 158.488 72.5987C158.488 73.0823 158.328 73.5069 158.01 73.8725C157.692 74.2381 157.31 74.47 156.866 74.5683V74.6509C157.051 74.6862 157.247 74.7472 157.456 74.8337C157.668 74.9202 157.865 75.0479 158.045 75.217C158.226 75.386 158.374 75.6042 158.488 75.8715C158.602 76.1349 158.659 76.4573 158.659 76.8386C158.659 77.2357 158.59 77.6013 158.452 77.9355C158.319 78.2657 158.128 78.5586 157.88 78.8141C157.625 79.0814 157.316 79.2839 156.954 79.4215C156.593 79.5591 156.182 79.6279 155.722 79.6279C155.282 79.6279 154.845 79.5748 154.413 79.4687C153.98 79.3625 153.617 79.2347 153.322 79.0854V77.8411H153.405C153.652 78.0219 153.984 78.1949 154.401 78.36C154.818 78.5251 155.235 78.6077 155.651 78.6077C155.891 78.6077 156.131 78.5704 156.371 78.4957C156.614 78.417 156.817 78.2912 156.978 78.1183C157.135 77.9453 157.255 77.7546 157.338 77.5463C157.42 77.3379 157.462 77.0745 157.462 76.7561C157.462 76.4376 157.414 76.1762 157.32 75.9718C157.23 75.7673 157.102 75.6062 156.937 75.4882C156.772 75.3703 156.575 75.2897 156.347 75.2465C156.123 75.1993 155.879 75.1757 155.616 75.1757H155.115V74.1968H155.504C156.035 74.1968 156.465 74.071 156.795 73.8194C157.129 73.5678 157.297 73.2022 157.297 72.7226C157.297 72.5024 157.253 72.3137 157.167 72.1565C157.08 71.9953 156.97 71.8675 156.837 71.7732C156.687 71.6709 156.522 71.6002 156.341 71.5609C156.16 71.5216 155.968 71.5019 155.763 71.5019ZM161.873 79.4451H160.463V77.7644H161.873V79.4451ZM169.291 76.4258H168.247V79.4451H167.115V76.4258H163.235V75.1875L167.162 70.6645H168.247V75.4823H169.291V76.4258ZM167.115 75.4823V72.0503L164.155 75.4823H167.115ZM175.884 76.4258H174.84V79.4451H173.708V76.4258H169.827V75.1875L173.755 70.6645H174.84V75.4823H175.884V76.4258ZM173.708 75.4823V72.0503L170.747 75.4823H173.708Z" fill="#D7E2F2"/>
<path fill-rule="evenodd" clip-rule="evenodd" d="M12.6184 88.1483C12.0173 88.1483 11.5301 87.661 11.5301 87.06L11.5301 60.7696C11.5301 60.1685 12.0173 59.6813 12.6184 59.6813C13.2195 59.6813 13.7068 60.1685 13.7068 60.7696L13.7068 87.06C13.7068 87.661 13.2195 88.1483 12.6184 88.1483Z" fill="#0089FF"/>
<defs>
<clipPath id="clip0">
<rect width="13.8022" height="13.8022" fill="white" transform="translate(105.929 23.4506)"/>
</clipPath>
<clipPath id="clip1">
<rect width="13.8022" height="13.8022" fill="white" transform="translate(240.5 68.3075)"/>
</clipPath>
</defs>
</svg>
