<svg width="324" height="117" viewBox="0 0 324 117" fill="none" xmlns="http://www.w3.org/2000/svg">
<path d="M159.794 24.6125L158.07 28H157.5L159.325 24.484H157.265V24.0158H159.794V24.6125ZM162.804 26.7076C162.804 26.9127 162.77 27.1018 162.702 27.2749C162.634 27.4479 162.543 27.5924 162.429 27.7083C162.31 27.8314 162.176 27.9251 162.028 27.9893C161.88 28.0517 161.717 28.0829 161.538 28.0829C161.358 28.0829 161.194 28.0526 161.046 27.992C160.9 27.9313 160.77 27.8412 160.658 27.7217C160.52 27.5772 160.413 27.3846 160.334 27.1437C160.257 26.9011 160.219 26.6032 160.219 26.25C160.219 25.904 160.255 25.5918 160.326 25.3135C160.397 25.0335 160.507 24.79 160.655 24.583C160.8 24.3815 160.986 24.2245 161.214 24.1121C161.443 23.9979 161.707 23.9408 162.006 23.9408C162.096 23.9408 162.179 23.9453 162.255 23.9542C162.332 23.9631 162.4 23.9774 162.459 23.997V24.5081H162.435C162.386 24.4813 162.317 24.4573 162.226 24.4359C162.135 24.4127 162.038 24.4011 161.934 24.4011C161.602 24.4011 161.334 24.5135 161.129 24.7382C160.925 24.9612 160.805 25.293 160.768 25.7336C160.894 25.6444 161.024 25.5757 161.158 25.5276C161.292 25.4794 161.438 25.4553 161.597 25.4553C161.752 25.4553 161.888 25.4714 162.004 25.5035C162.121 25.5338 162.244 25.5963 162.37 25.6908C162.517 25.8014 162.625 25.9414 162.697 26.1109C162.768 26.2804 162.804 26.4793 162.804 26.7076ZM162.261 26.729C162.261 26.5649 162.239 26.4275 162.196 26.3169C162.154 26.2063 162.084 26.1118 161.988 26.0333C161.918 25.9762 161.839 25.9388 161.75 25.9209C161.662 25.9031 161.572 25.8942 161.479 25.8942C161.354 25.8942 161.233 25.9129 161.115 25.9504C160.998 25.9878 160.882 26.0422 160.768 26.1136C160.764 26.1528 160.761 26.1912 160.759 26.2286C160.758 26.2643 160.757 26.3098 160.757 26.3651C160.757 26.6416 160.784 26.8646 160.837 27.034C160.892 27.2035 160.96 27.3319 161.04 27.4194C161.117 27.5032 161.196 27.5621 161.276 27.596C161.358 27.6299 161.446 27.6468 161.541 27.6468C161.755 27.6468 161.928 27.5701 162.06 27.4167C162.194 27.2633 162.261 27.034 162.261 26.729ZM165.752 26.0065C165.752 26.7219 165.648 27.2472 165.439 27.5826C165.232 27.9162 164.912 28.0829 164.479 28.0829C164.04 28.0829 163.718 27.9126 163.513 27.5719C163.308 27.2312 163.205 26.7112 163.205 26.0119C163.205 25.293 163.309 24.7677 163.516 24.4359C163.724 24.1023 164.045 23.9355 164.479 23.9355C164.918 23.9355 165.24 24.1076 165.445 24.4519C165.65 24.7962 165.752 25.3144 165.752 26.0065ZM165.067 27.2213C165.119 27.0893 165.156 26.9226 165.177 26.721C165.199 26.5194 165.209 26.2813 165.209 26.0065C165.209 25.7336 165.199 25.4964 165.177 25.2948C165.156 25.0932 165.118 24.9255 165.065 24.7917C165.011 24.6562 164.937 24.5536 164.843 24.484C164.75 24.4127 164.629 24.377 164.479 24.377C164.331 24.377 164.209 24.4127 164.112 24.484C164.018 24.5536 163.943 24.6579 163.887 24.7971C163.834 24.9327 163.797 25.1039 163.778 25.3108C163.758 25.5178 163.748 25.7515 163.748 26.0119C163.748 26.2902 163.756 26.523 163.772 26.7103C163.79 26.8976 163.828 27.0653 163.885 27.2133C163.937 27.3507 164.01 27.4568 164.104 27.5317C164.201 27.6049 164.325 27.6414 164.479 27.6414C164.627 27.6414 164.748 27.6067 164.843 27.5371C164.939 27.4657 165.014 27.3605 165.067 27.2213Z" fill="white"/>
<path d="M155.547 16H153.605V15.5933H154.327V12.9229H153.605V12.5589C153.878 12.5589 154.078 12.5206 154.207 12.4439C154.337 12.3654 154.41 12.2182 154.426 12.0024H154.841V15.5933H155.547V16ZM157.359 12.3957C157.263 12.3957 157.166 12.4073 157.07 12.4305C156.974 12.4537 156.879 12.484 156.786 12.5215C156.701 12.5572 156.626 12.5946 156.561 12.6339C156.499 12.6731 156.443 12.7097 156.393 12.7436H156.361V12.179C156.477 12.1165 156.634 12.0604 156.832 12.0104C157.032 11.9587 157.221 11.9328 157.402 11.9328C157.582 11.9328 157.739 11.9515 157.873 11.989C158.008 12.0247 158.13 12.0809 158.239 12.1576C158.357 12.2432 158.445 12.3467 158.504 12.468C158.565 12.5893 158.595 12.7311 158.595 12.8934C158.595 13.1128 158.523 13.3055 158.378 13.4714C158.234 13.6373 158.061 13.7425 157.859 13.7871V13.8246C157.943 13.8406 158.032 13.8683 158.127 13.9075C158.223 13.9468 158.312 14.0048 158.394 14.0815C158.476 14.1582 158.543 14.2572 158.595 14.3785C158.647 14.498 158.673 14.6443 158.673 14.8173C158.673 14.9975 158.641 15.1634 158.579 15.315C158.518 15.4648 158.432 15.5977 158.319 15.7137C158.204 15.835 158.063 15.9269 157.899 15.9893C157.735 16.0517 157.549 16.0829 157.34 16.0829C157.14 16.0829 156.942 16.0589 156.746 16.0107C156.55 15.9625 156.385 15.9046 156.251 15.8368V15.2722H156.289C156.401 15.3542 156.552 15.4327 156.741 15.5077C156.93 15.5826 157.119 15.62 157.308 15.62C157.417 15.62 157.526 15.6031 157.634 15.5692C157.745 15.5335 157.837 15.4764 157.91 15.3979C157.981 15.3195 158.036 15.2329 158.073 15.1384C158.111 15.0439 158.129 14.9243 158.129 14.7798C158.129 14.6354 158.108 14.5167 158.065 14.424C158.024 14.3312 157.966 14.2581 157.891 14.2046C157.816 14.151 157.727 14.1145 157.624 14.0948C157.522 14.0734 157.411 14.0627 157.292 14.0627H157.065V13.6186H157.241C157.482 13.6186 157.677 13.5615 157.827 13.4473C157.979 13.3331 158.055 13.1672 158.055 12.9496C158.055 12.8497 158.035 12.7641 157.996 12.6927C157.956 12.6196 157.906 12.5616 157.846 12.5188C157.778 12.4724 157.703 12.4403 157.621 12.4225C157.539 12.4046 157.452 12.3957 157.359 12.3957ZM160.131 16H159.491V15.2374H160.131V16ZM163.411 14.0065C163.411 14.7219 163.307 15.2472 163.098 15.5826C162.891 15.9162 162.571 16.0829 162.138 16.0829C161.699 16.0829 161.377 15.9126 161.172 15.5719C160.967 15.2312 160.864 14.7112 160.864 14.0119C160.864 13.293 160.968 12.7677 161.175 12.4359C161.383 12.1023 161.704 11.9355 162.138 11.9355C162.577 11.9355 162.899 12.1076 163.104 12.4519C163.309 12.7962 163.411 13.3144 163.411 14.0065ZM162.726 15.2213C162.778 15.0893 162.815 14.9226 162.836 14.721C162.858 14.5194 162.868 14.2813 162.868 14.0065C162.868 13.7336 162.858 13.4964 162.836 13.2948C162.815 13.0932 162.777 12.9255 162.724 12.7917C162.67 12.6562 162.596 12.5536 162.502 12.484C162.409 12.4127 162.288 12.377 162.138 12.377C161.99 12.377 161.868 12.4127 161.771 12.484C161.677 12.5536 161.602 12.6579 161.546 12.7971C161.493 12.9327 161.456 13.1039 161.437 13.3108C161.417 13.5178 161.407 13.7515 161.407 14.0119C161.407 14.2902 161.415 14.523 161.431 14.7103C161.449 14.8976 161.487 15.0653 161.544 15.2133C161.596 15.3507 161.669 15.4568 161.763 15.5317C161.86 15.6049 161.984 15.6414 162.138 15.6414C162.286 15.6414 162.407 15.6067 162.502 15.5371C162.598 15.4657 162.673 15.3605 162.726 15.2213ZM166.384 16H163.925V15.4408C164.102 15.2731 164.269 15.1125 164.426 14.9591C164.583 14.8057 164.736 14.6461 164.886 14.4802C165.189 14.1466 165.396 13.8799 165.507 13.6801C165.617 13.4785 165.672 13.2707 165.672 13.0566C165.672 12.946 165.655 12.8488 165.619 12.765C165.585 12.6811 165.538 12.6116 165.477 12.5563C165.415 12.5028 165.342 12.4626 165.26 12.4359C165.178 12.4091 165.088 12.3957 164.99 12.3957C164.896 12.3957 164.799 12.4082 164.701 12.4332C164.605 12.4564 164.512 12.4858 164.423 12.5215C164.348 12.5518 164.276 12.5884 164.206 12.6312C164.137 12.674 164.08 12.7106 164.038 12.7409H164.008V12.1736C164.119 12.1183 164.272 12.0648 164.468 12.0131C164.666 11.9596 164.854 11.9328 165.03 11.9328C165.401 11.9328 165.692 12.0318 165.903 12.2298C166.113 12.426 166.218 12.6927 166.218 13.0299C166.218 13.1851 166.2 13.3287 166.162 13.4607C166.126 13.5927 166.077 13.7149 166.012 13.8273C165.946 13.9432 165.867 14.0583 165.774 14.1724C165.681 14.2866 165.583 14.399 165.48 14.5096C165.312 14.6915 165.125 14.8806 164.918 15.0769C164.713 15.2731 164.549 15.4283 164.426 15.5424H166.384V16ZM167.773 16H167.133V15.2374H167.773V16ZM171.035 16H168.576V15.4408C168.752 15.2731 168.919 15.1125 169.076 14.9591C169.233 14.8057 169.386 14.6461 169.536 14.4802C169.84 14.1466 170.047 13.8799 170.157 13.6801C170.268 13.4785 170.323 13.2707 170.323 13.0566C170.323 12.946 170.305 12.8488 170.269 12.765C170.236 12.6811 170.188 12.6116 170.128 12.5563C170.065 12.5028 169.993 12.4626 169.911 12.4359C169.829 12.4091 169.739 12.3957 169.641 12.3957C169.546 12.3957 169.45 12.4082 169.352 12.4332C169.255 12.4564 169.163 12.4858 169.073 12.5215C168.998 12.5518 168.926 12.5884 168.857 12.6312C168.787 12.674 168.731 12.7106 168.688 12.7409H168.659V12.1736C168.769 12.1183 168.923 12.0648 169.119 12.0131C169.317 11.9596 169.504 11.9328 169.681 11.9328C170.052 11.9328 170.343 12.0318 170.553 12.2298C170.764 12.426 170.869 12.6927 170.869 13.0299C170.869 13.1851 170.85 13.3287 170.813 13.4607C170.777 13.5927 170.727 13.7149 170.663 13.8273C170.597 13.9432 170.517 14.0583 170.425 14.1724C170.332 14.2866 170.234 14.399 170.13 14.5096C169.963 14.6915 169.775 14.8806 169.568 15.0769C169.363 15.2731 169.199 15.4283 169.076 15.5424H171.035V16ZM174.045 14.0065C174.045 14.7219 173.941 15.2472 173.732 15.5826C173.525 15.9162 173.205 16.0829 172.771 16.0829C172.333 16.0829 172.011 15.9126 171.805 15.5719C171.6 15.2312 171.498 14.7112 171.498 14.0119C171.498 13.293 171.601 12.7677 171.808 12.4359C172.017 12.1023 172.338 11.9355 172.771 11.9355C173.21 11.9355 173.532 12.1076 173.737 12.4519C173.942 12.7962 174.045 13.3144 174.045 14.0065ZM173.36 15.2213C173.412 15.0893 173.448 14.9226 173.47 14.721C173.491 14.5194 173.502 14.2813 173.502 14.0065C173.502 13.7336 173.491 13.4964 173.47 13.2948C173.448 13.0932 173.411 12.9255 173.357 12.7917C173.304 12.6562 173.23 12.5536 173.135 12.484C173.042 12.4127 172.921 12.377 172.771 12.377C172.623 12.377 172.501 12.4127 172.405 12.484C172.31 12.5536 172.235 12.6579 172.18 12.7971C172.126 12.9327 172.09 13.1039 172.07 13.3108C172.051 13.5178 172.041 13.7515 172.041 14.0119C172.041 14.2902 172.049 14.523 172.065 14.7103C172.083 14.8976 172.12 15.0653 172.177 15.2133C172.229 15.3507 172.302 15.4568 172.397 15.5317C172.493 15.6049 172.618 15.6414 172.771 15.6414C172.919 15.6414 173.041 15.6067 173.135 15.5371C173.232 15.4657 173.307 15.3605 173.36 15.2213ZM177.018 16H174.559V15.4408C174.735 15.2731 174.902 15.1125 175.059 14.9591C175.216 14.8057 175.37 14.6461 175.519 14.4802C175.823 14.1466 176.03 13.8799 176.14 13.6801C176.251 13.4785 176.306 13.2707 176.306 13.0566C176.306 12.946 176.288 12.8488 176.253 12.765C176.219 12.6811 176.171 12.6116 176.111 12.5563C176.048 12.5028 175.976 12.4626 175.894 12.4359C175.812 12.4091 175.722 12.3957 175.624 12.3957C175.529 12.3957 175.433 12.4082 175.335 12.4332C175.238 12.4564 175.146 12.4858 175.056 12.5215C174.982 12.5518 174.909 12.5884 174.84 12.6312C174.77 12.674 174.714 12.7106 174.671 12.7409H174.642V12.1736C174.752 12.1183 174.906 12.0648 175.102 12.0131C175.3 11.9596 175.487 11.9328 175.664 11.9328C176.035 11.9328 176.326 12.0318 176.536 12.2298C176.747 12.426 176.852 12.6927 176.852 13.0299C176.852 13.1851 176.833 13.3287 176.796 13.4607C176.76 13.5927 176.71 13.7149 176.646 13.8273C176.58 13.9432 176.5 14.0583 176.408 14.1724C176.315 14.2866 176.217 14.399 176.113 14.5096C175.946 14.6915 175.758 14.8806 175.551 15.0769C175.346 15.2731 175.182 15.4283 175.059 15.5424H177.018V16ZM180.028 14.0065C180.028 14.7219 179.924 15.2472 179.715 15.5826C179.508 15.9162 179.188 16.0829 178.754 16.0829C178.316 16.0829 177.994 15.9126 177.788 15.5719C177.583 15.2312 177.481 14.7112 177.481 14.0119C177.481 13.293 177.584 12.7677 177.791 12.4359C178 12.1023 178.321 11.9355 178.754 11.9355C179.193 11.9355 179.515 12.1076 179.72 12.4519C179.925 12.7962 180.028 13.3144 180.028 14.0065ZM179.343 15.2213C179.395 15.0893 179.431 14.9226 179.453 14.721C179.474 14.5194 179.485 14.2813 179.485 14.0065C179.485 13.7336 179.474 13.4964 179.453 13.2948C179.431 13.0932 179.394 12.9255 179.34 12.7917C179.287 12.6562 179.213 12.5536 179.118 12.484C179.026 12.4127 178.904 12.377 178.754 12.377C178.606 12.377 178.484 12.4127 178.388 12.484C178.293 12.5536 178.218 12.6579 178.163 12.7971C178.11 12.9327 178.073 13.1039 178.053 13.3108C178.034 13.5178 178.024 13.7515 178.024 14.0119C178.024 14.2902 178.032 14.523 178.048 14.7103C178.066 14.8976 178.103 15.0653 178.16 15.2133C178.212 15.3507 178.285 15.4568 178.38 15.5317C178.476 15.6049 178.601 15.6414 178.754 15.6414C178.902 15.6414 179.024 15.6067 179.118 15.5371C179.215 15.4657 179.29 15.3605 179.343 15.2213ZM183.234 17.0489H182.787V11.8365H183.234V17.0489ZM188.32 16H186.378V15.5933H187.1V12.9229H186.378V12.5589C186.651 12.5589 186.851 12.5206 186.98 12.4439C187.11 12.3654 187.183 12.2182 187.199 12.0024H187.614V15.5933H188.32V16ZM191.577 14.7076C191.577 14.9127 191.543 15.1018 191.475 15.2749C191.407 15.4479 191.316 15.5924 191.202 15.7083C191.083 15.8314 190.949 15.9251 190.801 15.9893C190.653 16.0517 190.489 16.0829 190.311 16.0829C190.131 16.0829 189.967 16.0526 189.819 15.992C189.672 15.9313 189.543 15.8412 189.431 15.7217C189.293 15.5772 189.185 15.3846 189.107 15.1437C189.03 14.9011 188.992 14.6032 188.992 14.25C188.992 13.904 189.028 13.5918 189.099 13.3135C189.17 13.0335 189.28 12.79 189.428 12.583C189.573 12.3815 189.759 12.2245 189.987 12.1121C190.216 11.9979 190.48 11.9408 190.779 11.9408C190.869 11.9408 190.951 11.9453 191.028 11.9542C191.105 11.9631 191.173 11.9774 191.232 11.997V12.5081H191.207C191.159 12.4813 191.09 12.4573 190.999 12.4359C190.908 12.4127 190.811 12.4011 190.707 12.4011C190.375 12.4011 190.107 12.5135 189.902 12.7382C189.698 12.9612 189.578 13.293 189.54 13.7336C189.667 13.6444 189.797 13.5757 189.931 13.5276C190.065 13.4794 190.211 13.4553 190.37 13.4553C190.525 13.4553 190.661 13.4714 190.777 13.5035C190.894 13.5338 191.017 13.5963 191.143 13.6908C191.29 13.8014 191.398 13.9414 191.47 14.1109C191.541 14.2804 191.577 14.4793 191.577 14.7076ZM191.034 14.729C191.034 14.5649 191.012 14.4275 190.969 14.3169C190.927 14.2063 190.857 14.1118 190.761 14.0333C190.691 13.9762 190.612 13.9388 190.522 13.9209C190.435 13.9031 190.345 13.8942 190.252 13.8942C190.127 13.8942 190.006 13.9129 189.888 13.9504C189.771 13.9878 189.655 14.0422 189.54 14.1136C189.537 14.1528 189.534 14.1912 189.532 14.2286C189.531 14.2643 189.53 14.3098 189.53 14.3651C189.53 14.6416 189.557 14.8646 189.61 15.034C189.665 15.2035 189.733 15.3319 189.813 15.4194C189.89 15.5032 189.969 15.5621 190.049 15.596C190.131 15.6299 190.219 15.6468 190.314 15.6468C190.528 15.6468 190.701 15.5701 190.833 15.4167C190.967 15.2633 191.034 15.034 191.034 14.729ZM193.046 13.7737H192.406V13.0112H193.046V13.7737ZM193.046 16H192.406V15.2374H193.046V16ZM196.463 14.0065C196.463 14.7219 196.358 15.2472 196.15 15.5826C195.943 15.9162 195.623 16.0829 195.189 16.0829C194.75 16.0829 194.428 15.9126 194.223 15.5719C194.018 15.2312 193.915 14.7112 193.915 14.0119C193.915 13.293 194.019 12.7677 194.226 12.4359C194.434 12.1023 194.756 11.9355 195.189 11.9355C195.628 11.9355 195.95 12.1076 196.155 12.4519C196.36 12.7962 196.463 13.3144 196.463 14.0065ZM195.778 15.2213C195.829 15.0893 195.866 14.9226 195.887 14.721C195.909 14.5194 195.92 14.2813 195.92 14.0065C195.92 13.7336 195.909 13.4964 195.887 13.2948C195.866 13.0932 195.829 12.9255 195.775 12.7917C195.722 12.6562 195.647 12.5536 195.553 12.484C195.46 12.4127 195.339 12.377 195.189 12.377C195.041 12.377 194.919 12.4127 194.822 12.484C194.728 12.5536 194.653 12.6579 194.598 12.7971C194.544 12.9327 194.508 13.1039 194.488 13.3108C194.468 13.5178 194.459 13.7515 194.459 14.0119C194.459 14.2902 194.467 14.523 194.483 14.7103C194.5 14.8976 194.538 15.0653 194.595 15.2133C194.647 15.3507 194.72 15.4568 194.814 15.5317C194.911 15.6049 195.036 15.6414 195.189 15.6414C195.337 15.6414 195.458 15.6067 195.553 15.5371C195.649 15.4657 195.724 15.3605 195.778 15.2213ZM199.454 14.0065C199.454 14.7219 199.35 15.2472 199.141 15.5826C198.934 15.9162 198.614 16.0829 198.181 16.0829C197.742 16.0829 197.42 15.9126 197.215 15.5719C197.009 15.2312 196.907 14.7112 196.907 14.0119C196.907 13.293 197.01 12.7677 197.217 12.4359C197.426 12.1023 197.747 11.9355 198.181 11.9355C198.619 11.9355 198.941 12.1076 199.147 12.4519C199.352 12.7962 199.454 13.3144 199.454 14.0065ZM198.769 15.2213C198.821 15.0893 198.858 14.9226 198.879 14.721C198.9 14.5194 198.911 14.2813 198.911 14.0065C198.911 13.7336 198.9 13.4964 198.879 13.2948C198.858 13.0932 198.82 12.9255 198.767 12.7917C198.713 12.6562 198.639 12.5536 198.544 12.484C198.452 12.4127 198.33 12.377 198.181 12.377C198.033 12.377 197.91 12.4127 197.814 12.484C197.719 12.5536 197.645 12.6579 197.589 12.7971C197.536 12.9327 197.499 13.1039 197.48 13.3108C197.46 13.5178 197.45 13.7515 197.45 14.0119C197.45 14.2902 197.458 14.523 197.474 14.7103C197.492 14.8976 197.529 15.0653 197.587 15.2133C197.638 15.3507 197.711 15.4568 197.806 15.5317C197.902 15.6049 198.027 15.6414 198.181 15.6414C198.329 15.6414 198.45 15.6067 198.544 15.5371C198.641 15.4657 198.716 15.3605 198.769 15.2213ZM200.966 13.7737H200.327V13.0112H200.966V13.7737ZM200.966 16H200.327V15.2374H200.966V16ZM204.364 16H201.905V15.4408C202.082 15.2731 202.249 15.1125 202.406 14.9591C202.563 14.8057 202.716 14.6461 202.866 14.4802C203.169 14.1466 203.376 13.8799 203.487 13.6801C203.597 13.4785 203.653 13.2707 203.653 13.0566C203.653 12.946 203.635 12.8488 203.599 12.765C203.565 12.6811 203.518 12.6116 203.457 12.5563C203.395 12.5028 203.323 12.4626 203.24 12.4359C203.158 12.4091 203.068 12.3957 202.97 12.3957C202.876 12.3957 202.779 12.4082 202.681 12.4332C202.585 12.4564 202.492 12.4858 202.403 12.5215C202.328 12.5518 202.256 12.5884 202.186 12.6312C202.117 12.674 202.06 12.7106 202.018 12.7409H201.988V12.1736C202.099 12.1183 202.252 12.0648 202.448 12.0131C202.646 11.9596 202.834 11.9328 203.01 11.9328C203.381 11.9328 203.672 12.0318 203.883 12.2298C204.093 12.426 204.198 12.6927 204.198 13.0299C204.198 13.1851 204.18 13.3287 204.142 13.4607C204.107 13.5927 204.057 13.7149 203.992 13.8273C203.926 13.9432 203.847 14.0583 203.754 14.1724C203.661 14.2866 203.563 14.399 203.46 14.5096C203.292 14.6915 203.105 14.8806 202.898 15.0769C202.693 15.2731 202.529 15.4283 202.406 15.5424H204.364V16ZM205.972 12.3957C205.876 12.3957 205.78 12.4073 205.683 12.4305C205.587 12.4537 205.493 12.484 205.4 12.5215C205.314 12.5572 205.239 12.5946 205.175 12.6339C205.113 12.6731 205.056 12.7097 205.006 12.7436H204.974V12.179C205.09 12.1165 205.247 12.0604 205.445 12.0104C205.645 11.9587 205.835 11.9328 206.015 11.9328C206.195 11.9328 206.352 11.9515 206.486 11.989C206.622 12.0247 206.744 12.0809 206.853 12.1576C206.971 12.2432 207.059 12.3467 207.118 12.468C207.178 12.5893 207.209 12.7311 207.209 12.8934C207.209 13.1128 207.136 13.3055 206.992 13.4714C206.847 13.6373 206.674 13.7425 206.473 13.7871V13.8246C206.557 13.8406 206.646 13.8683 206.74 13.9075C206.837 13.9468 206.926 14.0048 207.008 14.0815C207.09 14.1582 207.157 14.2572 207.209 14.3785C207.26 14.498 207.286 14.6443 207.286 14.8173C207.286 14.9975 207.255 15.1634 207.193 15.315C207.132 15.4648 207.045 15.5977 206.933 15.7137C206.817 15.835 206.677 15.9269 206.513 15.9893C206.349 16.0517 206.162 16.0829 205.954 16.0829C205.754 16.0829 205.556 16.0589 205.36 16.0107C205.163 15.9625 204.998 15.9046 204.865 15.8368V15.2722H204.902C205.015 15.3542 205.165 15.4327 205.354 15.5077C205.543 15.5826 205.733 15.62 205.922 15.62C206.03 15.62 206.139 15.6031 206.248 15.5692C206.359 15.5335 206.451 15.4764 206.524 15.3979C206.595 15.3195 206.649 15.2329 206.687 15.1384C206.724 15.0439 206.743 14.9243 206.743 14.7798C206.743 14.6354 206.722 14.5167 206.679 14.424C206.638 14.3312 206.58 14.2581 206.505 14.2046C206.43 14.151 206.341 14.1145 206.237 14.0948C206.136 14.0734 206.025 14.0627 205.906 14.0627H205.678V13.6186H205.855C206.096 13.6186 206.291 13.5615 206.441 13.4473C206.592 13.3331 206.668 13.1672 206.668 12.9496C206.668 12.8497 206.649 12.7641 206.609 12.6927C206.57 12.6196 206.52 12.5616 206.459 12.5188C206.392 12.4724 206.317 12.4403 206.235 12.4225C206.153 12.4046 206.065 12.3957 205.972 12.3957Z" fill="white"/>
<path d="M196.812 25.7076C196.812 25.9127 196.778 26.1018 196.711 26.2749C196.643 26.4479 196.552 26.5924 196.438 26.7083C196.318 26.8314 196.184 26.9251 196.036 26.9893C195.888 27.0517 195.725 27.0829 195.547 27.0829C195.366 27.0829 195.202 27.0526 195.054 26.992C194.908 26.9313 194.779 26.8412 194.666 26.7217C194.529 26.5772 194.421 26.3846 194.343 26.1437C194.266 25.9011 194.227 25.6032 194.227 25.25C194.227 24.904 194.263 24.5918 194.334 24.3135C194.406 24.0335 194.516 23.79 194.664 23.583C194.808 23.3815 194.994 23.2245 195.223 23.1121C195.451 22.9979 195.715 22.9408 196.015 22.9408C196.104 22.9408 196.187 22.9453 196.264 22.9542C196.34 22.9631 196.408 22.9774 196.467 22.997V23.5081H196.443C196.395 23.4813 196.325 23.4573 196.234 23.4359C196.143 23.4127 196.046 23.4011 195.943 23.4011C195.611 23.4011 195.342 23.5135 195.137 23.7382C194.934 23.9612 194.813 24.293 194.776 24.7336C194.903 24.6444 195.033 24.5757 195.167 24.5276C195.3 24.4794 195.447 24.4553 195.605 24.4553C195.761 24.4553 195.896 24.4714 196.012 24.5035C196.13 24.5338 196.252 24.5963 196.379 24.6908C196.525 24.8014 196.634 24.9414 196.705 25.1109C196.777 25.2804 196.812 25.4793 196.812 25.7076ZM196.269 25.729C196.269 25.5649 196.248 25.4275 196.205 25.3169C196.162 25.2063 196.092 25.1118 195.996 25.0333C195.927 24.9762 195.847 24.9388 195.758 24.9209C195.671 24.9031 195.58 24.8942 195.488 24.8942C195.363 24.8942 195.242 24.9129 195.124 24.9504C195.006 24.9878 194.89 25.0422 194.776 25.1136C194.772 25.1528 194.77 25.1912 194.768 25.2286C194.766 25.2643 194.765 25.3098 194.765 25.3651C194.765 25.6416 194.792 25.8646 194.846 26.034C194.901 26.2035 194.969 26.3319 195.049 26.4194C195.126 26.5032 195.204 26.5621 195.284 26.596C195.366 26.6299 195.455 26.6468 195.549 26.6468C195.763 26.6468 195.936 26.5701 196.068 26.4167C196.202 26.2633 196.269 26.034 196.269 25.729ZM199.761 25.0065C199.761 25.7219 199.657 26.2472 199.448 26.5826C199.241 26.9162 198.921 27.0829 198.487 27.0829C198.048 27.0829 197.726 26.9126 197.521 26.5719C197.316 26.2312 197.214 25.7112 197.214 25.0119C197.214 24.293 197.317 23.7677 197.524 23.4359C197.733 23.1023 198.054 22.9355 198.487 22.9355C198.926 22.9355 199.248 23.1076 199.453 23.4519C199.658 23.7962 199.761 24.3144 199.761 25.0065ZM199.076 26.2213C199.128 26.0893 199.164 25.9226 199.186 25.721C199.207 25.5194 199.218 25.2813 199.218 25.0065C199.218 24.7336 199.207 24.4964 199.186 24.2948C199.164 24.0932 199.127 23.9255 199.073 23.7917C199.02 23.6562 198.946 23.5536 198.851 23.484C198.758 23.4127 198.637 23.377 198.487 23.377C198.339 23.377 198.217 23.4127 198.121 23.484C198.026 23.5536 197.951 23.6579 197.896 23.7971C197.842 23.9327 197.806 24.1039 197.786 24.3108C197.767 24.5178 197.757 24.7515 197.757 25.0119C197.757 25.2902 197.765 25.523 197.781 25.7103C197.799 25.8976 197.836 26.0653 197.893 26.2133C197.945 26.3507 198.018 26.4568 198.113 26.5317C198.209 26.6049 198.334 26.6414 198.487 26.6414C198.635 26.6414 198.757 26.6067 198.851 26.5371C198.948 26.4657 199.022 26.3605 199.076 26.2213Z" fill="#F7931E"/>
<g opacity="0.3">
<path opacity="0.3" d="M107.245 25.6498V18.1548" stroke="url(#paint0_linear)" stroke-width="0.25" stroke-miterlimit="10"/>
<path opacity="0.3" d="M123 25.6449V18.1499" stroke="url(#paint1_linear)" stroke-width="0.25" stroke-miterlimit="10"/>
<path opacity="0.3" d="M138.75 25.6449V18.1499" stroke="url(#paint2_linear)" stroke-width="0.25" stroke-miterlimit="10"/>
</g>
<path d="M210.5 29H150.5L149 27.5V22.5L150.5 21H210.5L212 22.5V27.5L210.5 29Z" stroke="url(#paint3_linear)" stroke-width="0.5" stroke-miterlimit="10"/>
<path d="M180 27C181.105 27 182 26.1046 182 25C182 23.8954 181.105 23 180 23C178.895 23 178 23.8954 178 25C178 26.1046 178.895 27 180 27Z" fill="#F7931E"/>
<path opacity="0.6" d="M180 28C181.657 28 183 26.6569 183 25C183 23.3431 181.657 22 180 22C178.343 22 177 23.3431 177 25C177 26.6569 178.343 28 180 28Z" fill="#F7931E"/>
<path opacity="0.3" d="M180 29C182.209 29 184 27.2091 184 25C184 22.7909 182.209 21 180 21C177.791 21 176 22.7909 176 25C176 27.2091 177.791 29 180 29Z" fill="#F7931E"/>
<path d="M164 60L151.989 80L137.492 70.3482H123" stroke="#3FA9F5" stroke-width="0.75" stroke-miterlimit="10"/>
<path d="M223.5 45C223.776 45 224 44.7761 224 44.5C224 44.2239 223.776 44 223.5 44C223.224 44 223 44.2239 223 44.5C223 44.7761 223.224 45 223.5 45Z" fill="#1B1E27"/>
<path d="M237.5 58C237.776 58 238 57.7761 238 57.5C238 57.2239 237.776 57 237.5 57C237.224 57 237 57.2239 237 57.5C237 57.7761 237.224 58 237.5 58Z" fill="#1B1E27"/>
<path d="M251.5 58C251.776 58 252 57.7761 252 57.5C252 57.2239 251.776 57 251.5 57C251.224 57 251 57.2239 251 57.5C251 57.7761 251.224 58 251.5 58Z" fill="#1B1E27"/>
<path d="M319 96L8 96" stroke="#3FA9F5" stroke-width="0.5" stroke-miterlimit="10"/>
<path d="M309 97C309.552 97 310 96.5523 310 96C310 95.4477 309.552 95 309 95C308.448 95 308 95.4477 308 96C308 96.5523 308.448 97 309 97Z" fill="#3FA9F5"/>
<path d="M295 97C295.552 97 296 96.5523 296 96C296 95.4477 295.552 95 295 95C294.448 95 294 95.4477 294 96C294 96.5523 294.448 97 295 97Z" fill="#3FA9F5"/>
<path d="M281 97C281.552 97 282 96.5523 282 96C282 95.4477 281.552 95 281 95C280.448 95 280 95.4477 280 96C280 96.5523 280.448 97 281 97Z" fill="#3FA9F5"/>
<path d="M266 97C266.552 97 267 96.5523 267 96C267 95.4477 266.552 95 266 95C265.448 95 265 95.4477 265 96C265 96.5523 265.448 97 266 97Z" fill="#3FA9F5"/>
<path d="M252 97C252.552 97 253 96.5523 253 96C253 95.4477 252.552 95 252 95C251.448 95 251 95.4477 251 96C251 96.5523 251.448 97 252 97Z" fill="#3FA9F5"/>
<path d="M237 97C237.552 97 238 96.5523 238 96C238 95.4477 237.552 95 237 95C236.448 95 236 95.4477 236 96C236 96.5523 236.448 97 237 97Z" fill="#3FA9F5"/>
<path d="M223 97C223.552 97 224 96.5523 224 96C224 95.4477 223.552 95 223 95C222.448 95 222 95.4477 222 96C222 96.5523 222.448 97 223 97Z" fill="#3FA9F5"/>
<path d="M209 97C209.552 97 210 96.5523 210 96C210 95.4477 209.552 95 209 95C208.448 95 208 95.4477 208 96C208 96.5523 208.448 97 209 97Z" fill="#3FA9F5"/>
<path d="M195 97C195.552 97 196 96.5523 196 96C196 95.4477 195.552 95 195 95C194.448 95 194 95.4477 194 96C194 96.5523 194.448 97 195 97Z" fill="#3FA9F5"/>
<path d="M166 97C166.552 97 167 96.5523 167 96C167 95.4477 166.552 95 166 95C165.448 95 165 95.4477 165 96C165 96.5523 165.448 97 166 97Z" fill="#3FA9F5"/>
<path d="M152 97C152.552 97 153 96.5523 153 96C153 95.4477 152.552 95 152 95C151.448 95 151 95.4477 151 96C151 96.5523 151.448 97 152 97Z" fill="#3FA9F5"/>
<path d="M138 97C138.552 97 139 96.5523 139 96C139 95.4477 138.552 95 138 95C137.448 95 137 95.4477 137 96C137 96.5523 137.448 97 138 97Z" fill="#3FA9F5"/>
<path d="M123 97C123.552 97 124 96.5523 124 96C124 95.4477 123.552 95 123 95C122.448 95 122 95.4477 122 96C122 96.5523 122.448 97 123 97Z" fill="#3FA9F5"/>
<path d="M109 97C109.552 97 110 96.5523 110 96C110 95.4477 109.552 95 109 95C108.448 95 108 95.4477 108 96C108 96.5523 108.448 97 109 97Z" fill="#3FA9F5"/>
<path d="M95 97C95.5523 97 96 96.5523 96 96C96 95.4477 95.5523 95 95 95C94.4477 95 94 95.4477 94 96C94 96.5523 94.4477 97 95 97Z" fill="#3FA9F5"/>
<path d="M80 97C80.5523 97 81 96.5523 81 96C81 95.4477 80.5523 95 80 95C79.4477 95 79 95.4477 79 96C79 96.5523 79.4477 97 80 97Z" fill="#3FA9F5"/>
<path d="M66 97C66.5523 97 67 96.5523 67 96C67 95.4477 66.5523 95 66 95C65.4477 95 65 95.4477 65 96C65 96.5523 65.4477 97 66 97Z" fill="#3FA9F5"/>
<path d="M52 97C52.5523 97 53 96.5523 53 96C53 95.4477 52.5523 95 52 95C51.4477 95 51 95.4477 51 96C51 96.5523 51.4477 97 52 97Z" fill="#3FA9F5"/>
<path d="M37 97C37.5523 97 38 96.5523 38 96C38 95.4477 37.5523 95 37 95C36.4477 95 36 95.4477 36 96C36 96.5523 36.4477 97 37 97Z" fill="#3FA9F5"/>
<path d="M23 97C23.5523 97 24 96.5523 24 96C24 95.4477 23.5523 95 23 95C22.4477 95 22 95.4477 22 96C22 96.5523 22.4477 97 23 97Z" fill="#3FA9F5"/>
<path d="M9 97C9.55228 97 10 96.5523 10 96C10 95.4477 9.55228 95 9 95C8.44772 95 8 95.4477 8 96C8 96.5523 8.44772 97 9 97Z" fill="#3FA9F5"/>
<path d="M180 98C180.828 98 181.5 97.3284 181.5 96.5C181.5 95.6716 180.828 95 180 95C179.172 95 178.5 95.6716 178.5 96.5C178.5 97.3284 179.172 98 180 98Z" fill="#F7931E"/>
<path d="M9.76943 105.007C9.76943 105.722 9.66508 106.247 9.45637 106.583C9.24944 106.916 8.92924 107.083 8.49576 107.083C8.05693 107.083 7.73495 106.913 7.5298 106.572C7.32466 106.231 7.22209 105.711 7.22209 105.012C7.22209 104.293 7.32555 103.768 7.53248 103.436C7.74119 103.102 8.06229 102.935 8.49576 102.935C8.93459 102.935 9.25658 103.108 9.46172 103.452C9.66686 103.796 9.76943 104.314 9.76943 105.007ZM9.08443 106.221C9.13617 106.089 9.17273 105.923 9.19414 105.721C9.21555 105.519 9.22625 105.281 9.22625 105.007C9.22625 104.734 9.21555 104.496 9.19414 104.295C9.17273 104.093 9.13527 103.926 9.08176 103.792C9.02824 103.656 8.95421 103.554 8.85967 103.484C8.76691 103.413 8.64561 103.377 8.49576 103.377C8.3477 103.377 8.22551 103.413 8.12918 103.484C8.03464 103.554 7.95971 103.658 7.90441 103.797C7.8509 103.933 7.81433 104.104 7.79471 104.311C7.77508 104.518 7.76527 104.751 7.76527 105.012C7.76527 105.29 7.7733 105.523 7.78936 105.71C7.80719 105.898 7.84465 106.065 7.90174 106.213C7.95347 106.351 8.02661 106.457 8.12115 106.532C8.21748 106.605 8.34235 106.641 8.49576 106.641C8.64382 106.641 8.76512 106.607 8.85967 106.537C8.956 106.466 9.03092 106.36 9.08443 106.221Z" fill="#8C99B2"/>
<path d="M24.5473 107H22.6047V106.593H23.3272V103.923H22.6047V103.559C22.8777 103.559 23.0783 103.521 23.2068 103.444C23.337 103.365 23.4101 103.218 23.4262 103.002H23.8409V106.593H24.5473V107Z" fill="#8C99B2"/>
<path d="M38.7507 107H36.2917V106.441C36.4683 106.273 36.6351 106.113 36.792 105.959C36.949 105.806 37.1024 105.646 37.2523 105.48C37.5555 105.147 37.7624 104.88 37.873 104.68C37.9836 104.479 38.0389 104.271 38.0389 104.057C38.0389 103.946 38.0211 103.849 37.9854 103.765C37.9515 103.681 37.9043 103.612 37.8436 103.556C37.7812 103.503 37.7089 103.463 37.6269 103.436C37.5448 103.409 37.4547 103.396 37.3566 103.396C37.2621 103.396 37.1657 103.408 37.0676 103.433C36.9713 103.456 36.8785 103.486 36.7894 103.521C36.7144 103.552 36.6422 103.588 36.5726 103.631C36.503 103.674 36.4469 103.711 36.404 103.741H36.3746V103.174C36.4852 103.118 36.6386 103.065 36.8348 103.013C37.0329 102.96 37.2202 102.933 37.3968 102.933C37.7678 102.933 38.0586 103.032 38.2691 103.23C38.4796 103.426 38.5848 103.693 38.5848 104.03C38.5848 104.185 38.5661 104.329 38.5286 104.461C38.4929 104.593 38.443 104.715 38.3788 104.827C38.3128 104.943 38.2334 105.058 38.1406 105.172C38.0479 105.287 37.9498 105.399 37.8463 105.51C37.6786 105.692 37.4913 105.881 37.2844 106.077C37.0792 106.273 36.9151 106.428 36.792 106.542H38.7507V107Z" fill="#8C99B2"/>
<path d="M51.3673 103.396C51.271 103.396 51.1747 103.407 51.0783 103.431C50.982 103.454 50.8875 103.484 50.7947 103.521C50.7091 103.557 50.6342 103.595 50.5699 103.634C50.5075 103.673 50.4513 103.71 50.4014 103.744H50.3693V103.179C50.4852 103.117 50.6422 103.06 50.8402 103.01C51.04 102.959 51.23 102.933 51.4101 102.933C51.5903 102.933 51.7473 102.952 51.8811 102.989C52.0166 103.025 52.1388 103.081 52.2477 103.158C52.3654 103.243 52.4537 103.347 52.5126 103.468C52.5732 103.589 52.6035 103.731 52.6035 103.893C52.6035 104.113 52.5313 104.305 52.3868 104.471C52.2423 104.637 52.0693 104.743 51.8677 104.787V104.825C51.9515 104.841 52.0407 104.868 52.1353 104.908C52.2316 104.947 52.3208 105.005 52.4029 105.081C52.4849 105.158 52.5518 105.257 52.6035 105.378C52.6553 105.498 52.6811 105.644 52.6811 105.817C52.6811 105.997 52.6499 106.163 52.5875 106.315C52.5268 106.465 52.4403 106.598 52.3279 106.714C52.212 106.835 52.0719 106.927 51.9078 106.989C51.7437 107.052 51.5573 107.083 51.3486 107.083C51.1488 107.083 50.9508 107.059 50.7546 107.011C50.5583 106.963 50.3933 106.905 50.2596 106.837V106.272H50.297C50.4094 106.354 50.5601 106.433 50.7492 106.508C50.9383 106.583 51.1274 106.62 51.3165 106.62C51.4253 106.62 51.5341 106.603 51.6429 106.569C51.7535 106.534 51.8454 106.476 51.9185 106.398C51.9899 106.319 52.0443 106.233 52.0818 106.138C52.1192 106.044 52.1379 105.924 52.1379 105.78C52.1379 105.635 52.1165 105.517 52.0737 105.424C52.0327 105.331 51.9747 105.258 51.8998 105.205C51.8249 105.151 51.7357 105.114 51.6322 105.095C51.5305 105.073 51.4199 105.063 51.3004 105.063H51.073V104.619H51.2496C51.4904 104.619 51.6857 104.561 51.8356 104.447C51.9872 104.333 52.063 104.167 52.063 103.95C52.063 103.85 52.0434 103.764 52.0042 103.693C51.9649 103.62 51.915 103.562 51.8543 103.519C51.7865 103.472 51.7116 103.44 51.6296 103.422C51.5475 103.405 51.4601 103.396 51.3673 103.396Z" fill="#8C99B2"/>
<path d="M66.8551 105.63H66.3814V107H65.8677V105.63H64.107V105.068L65.8891 103.016H66.3814V105.202H66.8551V105.63ZM65.8677 105.202V103.645L64.5245 105.202H65.8677Z" fill="#8C99B2"/>
<path d="M81.7052 105.732C81.7052 105.924 81.674 106.103 81.6116 106.267C81.5509 106.431 81.4653 106.573 81.3547 106.692C81.2423 106.814 81.1023 106.909 80.9346 106.979C80.7687 107.048 80.5823 107.083 80.3754 107.083C80.1845 107.083 79.9963 107.062 79.8108 107.019C79.627 106.978 79.4674 106.923 79.3318 106.856V106.291H79.3693C79.4103 106.321 79.4692 106.356 79.5459 106.395C79.6226 106.433 79.7073 106.468 79.8001 106.502C79.9053 106.54 80.0016 106.569 80.089 106.591C80.1765 106.61 80.2746 106.62 80.3834 106.62C80.4904 106.62 80.5948 106.601 80.6964 106.564C80.7981 106.525 80.8855 106.462 80.9587 106.377C81.0247 106.298 81.0746 106.206 81.1085 106.101C81.1442 105.996 81.162 105.872 81.162 105.729C81.162 105.588 81.1424 105.472 81.1032 105.381C81.0657 105.29 81.0104 105.215 80.9373 105.156C80.8606 105.089 80.766 105.041 80.6536 105.015C80.543 104.986 80.4191 104.972 80.2817 104.972C80.1372 104.972 79.9918 104.983 79.8455 105.007C79.6993 105.028 79.5824 105.048 79.495 105.068V103.016H81.6811V103.484H80.0114V104.544C80.0757 104.536 80.139 104.531 80.2014 104.528C80.2639 104.524 80.3209 104.522 80.3727 104.522C80.576 104.522 80.7482 104.539 80.8891 104.573C81.03 104.607 81.1656 104.673 81.2958 104.771C81.4278 104.871 81.5286 104.996 81.5982 105.146C81.6695 105.296 81.7052 105.491 81.7052 105.732Z" fill="#8C99B2"/>
<path d="M95.8122 105.708C95.8122 105.913 95.7784 106.102 95.7106 106.275C95.6428 106.448 95.5518 106.592 95.4376 106.708C95.3181 106.831 95.1843 106.925 95.0363 106.989C94.8882 107.052 94.725 107.083 94.5466 107.083C94.3664 107.083 94.2023 107.053 94.0543 106.992C93.908 106.931 93.7787 106.841 93.6663 106.722C93.5289 106.577 93.421 106.385 93.3425 106.144C93.2658 105.901 93.2274 105.603 93.2274 105.25C93.2274 104.904 93.2631 104.592 93.3345 104.314C93.4058 104.033 93.5155 103.79 93.6636 103.583C93.8081 103.381 93.9945 103.224 94.2228 103.112C94.4512 102.998 94.7152 102.941 95.0149 102.941C95.1041 102.941 95.187 102.945 95.2637 102.954C95.3404 102.963 95.4082 102.977 95.4671 102.997V103.508H95.443C95.3948 103.481 95.3253 103.457 95.2343 103.436C95.1433 103.413 95.0461 103.401 94.9426 103.401C94.6108 103.401 94.3424 103.513 94.1372 103.738C93.9338 103.961 93.8134 104.293 93.776 104.734C93.9026 104.644 94.0329 104.576 94.1666 104.528C94.3004 104.479 94.4467 104.455 94.6055 104.455C94.7607 104.455 94.8962 104.471 95.0122 104.503C95.1299 104.534 95.2521 104.596 95.3788 104.691C95.525 104.801 95.6339 104.941 95.7052 105.111C95.7766 105.28 95.8122 105.479 95.8122 105.708ZM95.2691 105.729C95.2691 105.565 95.2477 105.428 95.2048 105.317C95.162 105.206 95.0925 105.112 94.9961 105.033C94.9266 104.976 94.8472 104.939 94.758 104.921C94.6706 104.903 94.5805 104.894 94.4877 104.894C94.3629 104.894 94.2416 104.913 94.1238 104.95C94.0061 104.988 93.8901 105.042 93.776 105.114C93.7724 105.153 93.7697 105.191 93.7679 105.229C93.7662 105.264 93.7653 105.31 93.7653 105.365C93.7653 105.642 93.792 105.865 93.8455 106.034C93.9008 106.204 93.9686 106.332 94.0489 106.419C94.1256 106.503 94.2041 106.562 94.2844 106.596C94.3664 106.63 94.4547 106.647 94.5493 106.647C94.7633 106.647 94.9364 106.57 95.0684 106.417C95.2022 106.263 95.2691 106.034 95.2691 105.729Z" fill="#8C99B2"/>
<path d="M124.17 103.944C124.17 103.766 124.11 103.617 123.991 103.497C123.871 103.378 123.705 103.318 123.493 103.318C123.299 103.318 123.139 103.372 123.014 103.479C122.891 103.586 122.829 103.73 122.829 103.912C122.829 104.044 122.861 104.156 122.923 104.247C122.987 104.338 123.083 104.42 123.209 104.493C123.265 104.523 123.349 104.565 123.461 104.619C123.575 104.672 123.679 104.714 123.771 104.744C123.927 104.625 124.032 104.503 124.087 104.378C124.142 104.251 124.17 104.107 124.17 103.944ZM124.245 105.94C124.245 105.776 124.213 105.646 124.149 105.55C124.084 105.453 123.96 105.355 123.777 105.255C123.716 105.221 123.635 105.185 123.533 105.146C123.433 105.106 123.32 105.06 123.193 105.007C123.045 105.105 122.932 105.226 122.854 105.37C122.775 105.513 122.736 105.676 122.736 105.86C122.736 106.101 122.808 106.3 122.953 106.457C123.099 106.614 123.282 106.692 123.501 106.692C123.726 106.692 123.906 106.625 124.042 106.492C124.177 106.356 124.245 106.172 124.245 105.94ZM123.496 107.091C123.298 107.091 123.118 107.062 122.955 107.003C122.793 106.944 122.655 106.859 122.541 106.748C122.428 106.641 122.343 106.515 122.284 106.369C122.227 106.22 122.198 106.064 122.198 105.9C122.198 105.684 122.255 105.486 122.369 105.306C122.485 105.124 122.653 104.98 122.872 104.873V104.857C122.676 104.743 122.531 104.618 122.436 104.482C122.342 104.347 122.294 104.177 122.294 103.974C122.294 103.674 122.408 103.424 122.634 103.224C122.861 103.025 123.148 102.925 123.496 102.925C123.858 102.925 124.148 103.02 124.365 103.211C124.585 103.4 124.695 103.643 124.695 103.939C124.695 104.117 124.642 104.294 124.537 104.469C124.433 104.644 124.283 104.78 124.087 104.878V104.894C124.319 105.003 124.495 105.135 124.614 105.29C124.734 105.445 124.794 105.645 124.794 105.89C124.794 106.23 124.67 106.516 124.422 106.746C124.175 106.976 123.867 107.091 123.496 107.091Z" fill="#8C99B2"/>
<path d="M138.226 104.653C138.226 104.382 138.201 104.162 138.151 103.992C138.101 103.821 138.033 103.689 137.945 103.596C137.867 103.511 137.787 103.452 137.707 103.42C137.627 103.388 137.539 103.372 137.442 103.372C137.223 103.372 137.048 103.45 136.918 103.607C136.788 103.764 136.722 103.992 136.722 104.289C136.722 104.457 136.744 104.595 136.787 104.704C136.829 104.813 136.899 104.907 136.995 104.985C137.063 105.04 137.14 105.078 137.226 105.098C137.311 105.115 137.403 105.124 137.501 105.124C137.615 105.124 137.738 105.105 137.87 105.065C138.002 105.024 138.117 104.971 138.216 104.905C138.217 104.878 138.219 104.843 138.221 104.801C138.224 104.756 138.226 104.707 138.226 104.653ZM136.179 104.311C136.179 104.106 136.212 103.918 136.278 103.749C136.346 103.579 136.438 103.433 136.554 103.31C136.664 103.192 136.799 103.1 136.958 103.034C137.118 102.968 137.281 102.935 137.445 102.935C137.629 102.935 137.795 102.967 137.943 103.029C138.092 103.09 138.222 103.178 138.331 103.294C138.468 103.44 138.574 103.632 138.649 103.869C138.726 104.107 138.764 104.406 138.764 104.768C138.764 105.098 138.727 105.411 138.652 105.708C138.579 106.002 138.47 106.246 138.325 106.441C138.172 106.648 137.987 106.806 137.771 106.914C137.557 107.023 137.292 107.078 136.977 107.078C136.905 107.078 136.829 107.073 136.749 107.064C136.669 107.057 136.594 107.043 136.524 107.021V106.51H136.551C136.596 106.535 136.665 106.559 136.76 106.583C136.854 106.606 136.951 106.617 137.049 106.617C137.399 106.617 137.673 106.502 137.873 106.272C138.073 106.042 138.186 105.713 138.213 105.285C138.07 105.381 137.934 105.452 137.803 105.496C137.675 105.541 137.535 105.563 137.383 105.563C137.235 105.563 137.101 105.547 136.979 105.515C136.858 105.483 136.736 105.42 136.613 105.328C136.47 105.219 136.362 105.081 136.289 104.916C136.216 104.748 136.179 104.546 136.179 104.311Z" fill="#8C99B2"/>
<path d="M151.547 107H149.605V106.593H150.327V103.923H149.605V103.559C149.878 103.559 150.078 103.521 150.207 103.444C150.337 103.365 150.41 103.218 150.426 103.002H150.841V106.593H151.547V107ZM154.761 105.007C154.761 105.722 154.657 106.247 154.448 106.583C154.241 106.916 153.921 107.083 153.487 107.083C153.048 107.083 152.726 106.913 152.521 106.572C152.316 106.231 152.214 105.711 152.214 105.012C152.214 104.293 152.317 103.768 152.524 103.436C152.733 103.102 153.054 102.935 153.487 102.935C153.926 102.935 154.248 103.108 154.453 103.452C154.658 103.796 154.761 104.314 154.761 105.007ZM154.076 106.221C154.128 106.089 154.164 105.923 154.186 105.721C154.207 105.519 154.218 105.281 154.218 105.007C154.218 104.734 154.207 104.496 154.186 104.295C154.164 104.093 154.127 103.926 154.073 103.792C154.02 103.656 153.946 103.554 153.851 103.484C153.758 103.413 153.637 103.377 153.487 103.377C153.339 103.377 153.217 103.413 153.121 103.484C153.026 103.554 152.951 103.658 152.896 103.797C152.842 103.933 152.806 104.104 152.786 104.311C152.767 104.518 152.757 104.751 152.757 105.012C152.757 105.29 152.765 105.523 152.781 105.71C152.799 105.898 152.836 106.065 152.893 106.213C152.945 106.351 153.018 106.457 153.113 106.532C153.209 106.605 153.334 106.641 153.487 106.641C153.635 106.641 153.757 106.607 153.851 106.537C153.948 106.466 154.022 106.36 154.076 106.221Z" fill="#8C99B2"/>
<path d="M165.547 107H163.605V106.593H164.327V103.923H163.605V103.559C163.878 103.559 164.078 103.521 164.207 103.444C164.337 103.365 164.41 103.218 164.426 103.002H164.841V106.593H165.547V107ZM168.539 107H166.596V106.593H167.319V103.923H166.596V103.559C166.869 103.559 167.07 103.521 167.198 103.444C167.329 103.365 167.402 103.218 167.418 103.002H167.832V106.593H168.539V107Z" fill="#8C99B2"/>
<path d="M179.547 107H177.605V106.593H178.327V103.923H177.605V103.559C177.878 103.559 178.078 103.521 178.207 103.444C178.337 103.365 178.41 103.218 178.426 103.002H178.841V106.593H179.547V107ZM182.742 107H180.283V106.441C180.46 106.273 180.627 106.113 180.784 105.959C180.941 105.806 181.094 105.646 181.244 105.48C181.547 105.147 181.754 104.88 181.865 104.68C181.975 104.479 182.03 104.271 182.03 104.057C182.03 103.946 182.013 103.849 181.977 103.765C181.943 103.681 181.896 103.612 181.835 103.556C181.773 103.503 181.7 103.463 181.618 103.436C181.536 103.409 181.446 103.396 181.348 103.396C181.254 103.396 181.157 103.408 181.059 103.433C180.963 103.456 180.87 103.486 180.781 103.521C180.706 103.552 180.634 103.588 180.564 103.631C180.495 103.674 180.438 103.711 180.396 103.741H180.366V103.174C180.477 103.118 180.63 103.065 180.826 103.013C181.024 102.96 181.212 102.933 181.388 102.933C181.759 102.933 182.05 103.032 182.261 103.23C182.471 103.426 182.576 103.693 182.576 104.03C182.576 104.185 182.558 104.329 182.52 104.461C182.484 104.593 182.435 104.715 182.37 104.827C182.304 104.943 182.225 105.058 182.132 105.172C182.039 105.287 181.941 105.399 181.838 105.51C181.67 105.692 181.483 105.881 181.276 106.077C181.071 106.273 180.907 106.428 180.784 106.542H182.742V107Z" fill="#8C99B2"/>
<path d="M208.547 107H206.605V106.593H207.327V103.923H206.605V103.559C206.878 103.559 207.078 103.521 207.207 103.444C207.337 103.365 207.41 103.218 207.426 103.002H207.841V106.593H208.547V107ZM211.847 105.63H211.373V107H210.859V105.63H209.099V105.068L210.881 103.016H211.373V105.202H211.847V105.63ZM210.859 105.202V103.645L209.516 105.202H210.859Z" fill="#8C99B2"/>
<path d="M222.547 107H220.605V106.593H221.327V103.923H220.605V103.559C220.878 103.559 221.078 103.521 221.207 103.444C221.337 103.365 221.41 103.218 221.426 103.002H221.841V106.593H222.547V107ZM225.697 105.732C225.697 105.924 225.666 106.103 225.603 106.267C225.542 106.431 225.457 106.573 225.346 106.692C225.234 106.814 225.094 106.909 224.926 106.979C224.76 107.048 224.574 107.083 224.367 107.083C224.176 107.083 223.988 107.062 223.802 107.019C223.619 106.978 223.459 106.923 223.323 106.856V106.291H223.361C223.402 106.321 223.461 106.356 223.537 106.395C223.614 106.433 223.699 106.468 223.792 106.502C223.897 106.54 223.993 106.569 224.081 106.591C224.168 106.61 224.266 106.62 224.375 106.62C224.482 106.62 224.586 106.601 224.688 106.564C224.79 106.525 224.877 106.462 224.95 106.377C225.016 106.298 225.066 106.206 225.1 106.101C225.136 105.996 225.154 105.872 225.154 105.729C225.154 105.588 225.134 105.472 225.095 105.381C225.057 105.29 225.002 105.215 224.929 105.156C224.852 105.089 224.758 105.041 224.645 105.015C224.535 104.986 224.411 104.972 224.273 104.972C224.129 104.972 223.983 104.983 223.837 105.007C223.691 105.028 223.574 105.048 223.487 105.068V103.016H225.673V103.484H224.003V104.544C224.067 104.536 224.131 104.531 224.193 104.528C224.255 104.524 224.312 104.522 224.364 104.522C224.568 104.522 224.74 104.539 224.881 104.573C225.022 104.607 225.157 104.673 225.287 104.771C225.419 104.871 225.52 104.996 225.59 105.146C225.661 105.296 225.697 105.491 225.697 105.732Z" fill="#8C99B2"/>
<path d="M236.547 107H234.605V106.593H235.327V103.923H234.605V103.559C234.878 103.559 235.078 103.521 235.207 103.444C235.337 103.365 235.41 103.218 235.426 103.002H235.841V106.593H236.547V107ZM239.804 105.708C239.804 105.913 239.77 106.102 239.702 106.275C239.634 106.448 239.543 106.592 239.429 106.708C239.31 106.831 239.176 106.925 239.028 106.989C238.88 107.052 238.717 107.083 238.538 107.083C238.358 107.083 238.194 107.053 238.046 106.992C237.9 106.931 237.77 106.841 237.658 106.722C237.52 106.577 237.413 106.385 237.334 106.144C237.257 105.901 237.219 105.603 237.219 105.25C237.219 104.904 237.255 104.592 237.326 104.314C237.397 104.033 237.507 103.79 237.655 103.583C237.8 103.381 237.986 103.224 238.214 103.112C238.443 102.998 238.707 102.941 239.006 102.941C239.096 102.941 239.179 102.945 239.255 102.954C239.332 102.963 239.4 102.977 239.459 102.997V103.508H239.435C239.386 103.481 239.317 103.457 239.226 103.436C239.135 103.413 239.038 103.401 238.934 103.401C238.602 103.401 238.334 103.513 238.129 103.738C237.925 103.961 237.805 104.293 237.768 104.734C237.894 104.644 238.024 104.576 238.158 104.528C238.292 104.479 238.438 104.455 238.597 104.455C238.752 104.455 238.888 104.471 239.004 104.503C239.121 104.534 239.244 104.596 239.37 104.691C239.517 104.801 239.625 104.941 239.697 105.111C239.768 105.28 239.804 105.479 239.804 105.708ZM239.261 105.729C239.261 105.565 239.239 105.428 239.196 105.317C239.154 105.206 239.084 105.112 238.988 105.033C238.918 104.976 238.839 104.939 238.75 104.921C238.662 104.903 238.572 104.894 238.479 104.894C238.354 104.894 238.233 104.913 238.115 104.95C237.998 104.988 237.882 105.042 237.768 105.114C237.764 105.153 237.761 105.191 237.759 105.229C237.758 105.264 237.757 105.31 237.757 105.365C237.757 105.642 237.784 105.865 237.837 106.034C237.892 106.204 237.96 106.332 238.04 106.419C238.117 106.503 238.196 106.562 238.276 106.596C238.358 106.63 238.446 106.647 238.541 106.647C238.755 106.647 238.928 106.57 239.06 106.417C239.194 106.263 239.261 106.034 239.261 105.729Z" fill="#8C99B2"/>
<path d="M251.547 107H249.605V106.593H250.327V103.923H249.605V103.559C249.878 103.559 250.078 103.521 250.207 103.444C250.337 103.365 250.41 103.218 250.426 103.002H250.841V106.593H251.547V107ZM254.785 103.612L253.062 107H252.492L254.317 103.484H252.256V103.016H254.785V103.612Z" fill="#8C99B2"/>
<path d="M265.547 107H263.605V106.593H264.327V103.923H263.605V103.559C263.878 103.559 264.078 103.521 264.207 103.444C264.337 103.365 264.41 103.218 264.426 103.002H264.841V106.593H265.547V107ZM268.162 103.944C268.162 103.766 268.102 103.617 267.982 103.497C267.863 103.378 267.697 103.318 267.485 103.318C267.29 103.318 267.131 103.372 267.006 103.479C266.883 103.586 266.821 103.73 266.821 103.912C266.821 104.044 266.852 104.156 266.915 104.247C266.979 104.338 267.074 104.42 267.201 104.493C267.256 104.523 267.34 104.565 267.453 104.619C267.567 104.672 267.67 104.714 267.763 104.744C267.918 104.625 268.023 104.503 268.079 104.378C268.134 104.251 268.162 104.107 268.162 103.944ZM268.237 105.94C268.237 105.776 268.204 105.646 268.14 105.55C268.076 105.453 267.952 105.355 267.768 105.255C267.708 105.221 267.626 105.185 267.525 105.146C267.425 105.106 267.312 105.06 267.185 105.007C267.037 105.105 266.924 105.226 266.845 105.37C266.767 105.513 266.727 105.676 266.727 105.86C266.727 106.101 266.8 106.3 266.944 106.457C267.09 106.614 267.273 106.692 267.493 106.692C267.717 106.692 267.898 106.625 268.033 106.492C268.169 106.356 268.237 106.172 268.237 105.94ZM267.487 107.091C267.289 107.091 267.109 107.062 266.947 107.003C266.784 106.944 266.646 106.859 266.532 106.748C266.42 106.641 266.334 106.515 266.275 106.369C266.218 106.22 266.19 106.064 266.19 105.9C266.19 105.684 266.247 105.486 266.361 105.306C266.477 105.124 266.644 104.98 266.864 104.873V104.857C266.668 104.743 266.522 104.618 266.428 104.482C266.333 104.347 266.286 104.177 266.286 103.974C266.286 103.674 266.399 103.424 266.626 103.224C266.852 103.025 267.139 102.925 267.487 102.925C267.849 102.925 268.139 103.02 268.357 103.211C268.576 103.4 268.686 103.643 268.686 103.939C268.686 104.117 268.633 104.294 268.528 104.469C268.425 104.644 268.275 104.78 268.079 104.878V104.894C268.311 105.003 268.486 105.135 268.606 105.29C268.725 105.445 268.785 105.645 268.785 105.89C268.785 106.23 268.661 106.516 268.413 106.746C268.167 106.976 267.858 107.091 267.487 107.091Z" fill="#8C99B2"/>
<path d="M280.547 107H278.605V106.593H279.327V103.923H278.605V103.559C278.878 103.559 279.078 103.521 279.207 103.444C279.337 103.365 279.41 103.218 279.426 103.002H279.841V106.593H280.547V107ZM283.218 104.653C283.218 104.382 283.193 104.162 283.143 103.992C283.093 103.821 283.024 103.689 282.937 103.596C282.858 103.511 282.779 103.452 282.699 103.42C282.618 103.388 282.53 103.372 282.434 103.372C282.214 103.372 282.04 103.45 281.909 103.607C281.779 103.764 281.714 103.992 281.714 104.289C281.714 104.457 281.735 104.595 281.778 104.704C281.821 104.813 281.891 104.907 281.987 104.985C282.055 105.04 282.131 105.078 282.217 105.098C282.303 105.115 282.395 105.124 282.493 105.124C282.607 105.124 282.73 105.105 282.862 105.065C282.994 105.024 283.109 104.971 283.207 104.905C283.209 104.878 283.211 104.843 283.212 104.801C283.216 104.756 283.218 104.707 283.218 104.653ZM281.171 104.311C281.171 104.106 281.204 103.918 281.27 103.749C281.338 103.579 281.429 103.433 281.545 103.31C281.656 103.192 281.791 103.1 281.949 103.034C282.11 102.968 282.272 102.935 282.436 102.935C282.62 102.935 282.786 102.967 282.934 103.029C283.084 103.09 283.213 103.178 283.322 103.294C283.459 103.44 283.566 103.632 283.641 103.869C283.717 104.107 283.756 104.406 283.756 104.768C283.756 105.098 283.718 105.411 283.643 105.708C283.57 106.002 283.461 106.246 283.317 106.441C283.163 106.648 282.979 106.806 282.763 106.914C282.549 107.023 282.284 107.078 281.968 107.078C281.897 107.078 281.821 107.073 281.741 107.064C281.66 107.057 281.586 107.043 281.516 107.021V106.51H281.543C281.587 106.535 281.657 106.559 281.751 106.583C281.846 106.606 281.942 106.617 282.04 106.617C282.39 106.617 282.665 106.502 282.865 106.272C283.064 106.042 283.178 105.713 283.204 105.285C283.062 105.381 282.925 105.452 282.795 105.496C282.667 105.541 282.527 105.563 282.375 105.563C282.227 105.563 282.092 105.547 281.971 105.515C281.85 105.483 281.727 105.42 281.604 105.328C281.462 105.219 281.354 105.081 281.281 104.916C281.207 104.748 281.171 104.546 281.171 104.311Z" fill="#8C99B2"/>
<path d="M294.751 107H292.292V106.441C292.468 106.273 292.635 106.113 292.792 105.959C292.949 105.806 293.102 105.646 293.252 105.48C293.556 105.147 293.762 104.88 293.873 104.68C293.984 104.479 294.039 104.271 294.039 104.057C294.039 103.946 294.021 103.849 293.985 103.765C293.952 103.681 293.904 103.612 293.844 103.556C293.781 103.503 293.709 103.463 293.627 103.436C293.545 103.409 293.455 103.396 293.357 103.396C293.262 103.396 293.166 103.408 293.068 103.433C292.971 103.456 292.879 103.486 292.789 103.521C292.714 103.552 292.642 103.588 292.573 103.631C292.503 103.674 292.447 103.711 292.404 103.741H292.375V103.174C292.485 103.118 292.639 103.065 292.835 103.013C293.033 102.96 293.22 102.933 293.397 102.933C293.768 102.933 294.059 103.032 294.269 103.23C294.48 103.426 294.585 103.693 294.585 104.03C294.585 104.185 294.566 104.329 294.529 104.461C294.493 104.593 294.443 104.715 294.379 104.827C294.313 104.943 294.233 105.058 294.141 105.172C294.048 105.287 293.95 105.399 293.846 105.51C293.679 105.692 293.491 105.881 293.284 106.077C293.079 106.273 292.915 106.428 292.792 106.542H294.751V107ZM297.761 105.007C297.761 105.722 297.657 106.247 297.448 106.583C297.241 106.916 296.921 107.083 296.487 107.083C296.048 107.083 295.726 106.913 295.521 106.572C295.316 106.231 295.214 105.711 295.214 105.012C295.214 104.293 295.317 103.768 295.524 103.436C295.733 103.102 296.054 102.935 296.487 102.935C296.926 102.935 297.248 103.108 297.453 103.452C297.658 103.796 297.761 104.314 297.761 105.007ZM297.076 106.221C297.128 106.089 297.164 105.923 297.186 105.721C297.207 105.519 297.218 105.281 297.218 105.007C297.218 104.734 297.207 104.496 297.186 104.295C297.164 104.093 297.127 103.926 297.073 103.792C297.02 103.656 296.946 103.554 296.851 103.484C296.758 103.413 296.637 103.377 296.487 103.377C296.339 103.377 296.217 103.413 296.121 103.484C296.026 103.554 295.951 103.658 295.896 103.797C295.842 103.933 295.806 104.104 295.786 104.311C295.767 104.518 295.757 104.751 295.757 105.012C295.757 105.29 295.765 105.523 295.781 105.71C295.799 105.898 295.836 106.065 295.893 106.213C295.945 106.351 296.018 106.457 296.113 106.532C296.209 106.605 296.334 106.641 296.487 106.641C296.635 106.641 296.757 106.607 296.851 106.537C296.948 106.466 297.022 106.36 297.076 106.221Z" fill="#8C99B2"/>
<path d="M308.751 107H306.292V106.441C306.468 106.273 306.635 106.113 306.792 105.959C306.949 105.806 307.102 105.646 307.252 105.48C307.556 105.147 307.762 104.88 307.873 104.68C307.984 104.479 308.039 104.271 308.039 104.057C308.039 103.946 308.021 103.849 307.985 103.765C307.952 103.681 307.904 103.612 307.844 103.556C307.781 103.503 307.709 103.463 307.627 103.436C307.545 103.409 307.455 103.396 307.357 103.396C307.262 103.396 307.166 103.408 307.068 103.433C306.971 103.456 306.879 103.486 306.789 103.521C306.714 103.552 306.642 103.588 306.573 103.631C306.503 103.674 306.447 103.711 306.404 103.741H306.375V103.174C306.485 103.118 306.639 103.065 306.835 103.013C307.033 102.96 307.22 102.933 307.397 102.933C307.768 102.933 308.059 103.032 308.269 103.23C308.48 103.426 308.585 103.693 308.585 104.03C308.585 104.185 308.566 104.329 308.529 104.461C308.493 104.593 308.443 104.715 308.379 104.827C308.313 104.943 308.233 105.058 308.141 105.172C308.048 105.287 307.95 105.399 307.846 105.51C307.679 105.692 307.491 105.881 307.284 106.077C307.079 106.273 306.915 106.428 306.792 106.542H308.751V107ZM311.539 107H309.596V106.593H310.319V103.923H309.596V103.559C309.869 103.559 310.07 103.521 310.198 103.444C310.329 103.365 310.402 103.218 310.418 103.002H310.832V106.593H311.539V107Z" fill="#8C99B2"/>
<path d="M194.547 107H192.605V106.593H193.327V103.923H192.605V103.559C192.878 103.559 193.078 103.521 193.207 103.444C193.337 103.365 193.41 103.218 193.426 103.002H193.841V106.593H194.547V107ZM196.359 103.396C196.263 103.396 196.166 103.407 196.07 103.431C195.974 103.454 195.879 103.484 195.786 103.521C195.701 103.557 195.626 103.595 195.561 103.634C195.499 103.673 195.443 103.71 195.393 103.744H195.361V103.179C195.477 103.117 195.634 103.06 195.832 103.01C196.032 102.959 196.221 102.933 196.402 102.933C196.582 102.933 196.739 102.952 196.873 102.989C197.008 103.025 197.13 103.081 197.239 103.158C197.357 103.243 197.445 103.347 197.504 103.468C197.565 103.589 197.595 103.731 197.595 103.893C197.595 104.113 197.523 104.305 197.378 104.471C197.234 104.637 197.061 104.743 196.859 104.787V104.825C196.943 104.841 197.032 104.868 197.127 104.908C197.223 104.947 197.312 105.005 197.394 105.081C197.476 105.158 197.543 105.257 197.595 105.378C197.647 105.498 197.673 105.644 197.673 105.817C197.673 105.997 197.641 106.163 197.579 106.315C197.518 106.465 197.432 106.598 197.319 106.714C197.204 106.835 197.063 106.927 196.899 106.989C196.735 107.052 196.549 107.083 196.34 107.083C196.14 107.083 195.942 107.059 195.746 107.011C195.55 106.963 195.385 106.905 195.251 106.837V106.272H195.289C195.401 106.354 195.552 106.433 195.741 106.508C195.93 106.583 196.119 106.62 196.308 106.62C196.417 106.62 196.526 106.603 196.634 106.569C196.745 106.534 196.837 106.476 196.91 106.398C196.981 106.319 197.036 106.233 197.073 106.138C197.111 106.044 197.129 105.924 197.129 105.78C197.129 105.635 197.108 105.517 197.065 105.424C197.024 105.331 196.966 105.258 196.891 105.205C196.816 105.151 196.727 105.114 196.624 105.095C196.522 105.073 196.411 105.063 196.292 105.063H196.065V104.619H196.241C196.482 104.619 196.677 104.561 196.827 104.447C196.979 104.333 197.055 104.167 197.055 103.95C197.055 103.85 197.035 103.764 196.996 103.693C196.956 103.62 196.906 103.562 196.846 103.519C196.778 103.472 196.703 103.44 196.621 103.422C196.539 103.405 196.452 103.396 196.359 103.396Z" fill="#8C99B2"/>
<path d="M62 60L51.2274 90L36 60.005" stroke="#3FA9F5" stroke-width="0.75" stroke-miterlimit="10"/>
<path opacity="0.5" d="M8 50H237.31L251.908 38L319 38" stroke="white" stroke-width="0.5" stroke-miterlimit="10" stroke-dasharray="2 4"/>
<path d="M8.92537 19.9664C8.92537 20.2144 8.88791 20.4338 8.81299 20.6246C8.73807 20.8137 8.63371 20.9734 8.49992 21.1036C8.35543 21.2463 8.17794 21.3569 7.96744 21.4354C7.75695 21.5121 7.53932 21.5531 7.31455 21.5585V22.0428H6.78742V21.5585C6.56444 21.5514 6.3477 21.5112 6.13721 21.4381C5.92671 21.3649 5.74743 21.2552 5.59938 21.109C5.46559 20.9787 5.36123 20.8173 5.28631 20.6246C5.21317 20.432 5.1766 20.2126 5.1766 19.9664C5.1766 19.7345 5.21228 19.5267 5.28363 19.3429C5.35499 19.1574 5.45488 18.9978 5.58332 18.864C5.72068 18.7213 5.89282 18.6089 6.09975 18.5268C6.30667 18.4448 6.5359 18.4002 6.78742 18.393V17.9515H7.31455V18.393C7.56607 18.3984 7.79619 18.443 8.0049 18.5268C8.21361 18.6089 8.38665 18.7204 8.524 18.8613C8.65244 18.9933 8.75145 19.1512 8.82102 19.3349C8.89059 19.5187 8.92537 19.7292 8.92537 19.9664ZM8.37416 19.945C8.37416 19.7684 8.34919 19.6079 8.29924 19.4634C8.24929 19.3171 8.17526 19.1931 8.07715 19.0914C7.98439 18.9951 7.87646 18.9237 7.75338 18.8774C7.63029 18.831 7.48402 18.806 7.31455 18.8024V21.1571C7.4751 21.1536 7.61781 21.1277 7.74268 21.0795C7.86933 21.0296 7.97368 20.9636 8.05574 20.8815C8.16456 20.7745 8.24483 20.6443 8.29656 20.4909C8.34829 20.3374 8.37416 20.1555 8.37416 19.945ZM6.78742 21.1571V18.8024C6.61796 18.8042 6.47168 18.8292 6.34859 18.8774C6.22551 18.9255 6.11758 18.9969 6.02482 19.0914C5.92671 19.1913 5.85268 19.3153 5.80273 19.4634C5.75279 19.6114 5.72781 19.772 5.72781 19.945C5.72781 20.1555 5.75368 20.3383 5.80541 20.4935C5.85714 20.6469 5.93742 20.7763 6.04623 20.8815C6.12829 20.96 6.23175 21.0251 6.35662 21.0769C6.48327 21.1286 6.62688 21.1553 6.78742 21.1571ZM11.1382 21.2642V20.4347C11.0187 20.4454 10.8671 20.4605 10.6834 20.4802C10.5014 20.498 10.3542 20.5239 10.2419 20.5578C10.1081 20.5988 9.99747 20.6621 9.91006 20.7477C9.82265 20.8316 9.77895 20.9493 9.77895 21.1009C9.77895 21.2722 9.82711 21.4015 9.92344 21.4889C10.0198 21.5763 10.1607 21.62 10.3462 21.62C10.505 21.62 10.6486 21.5861 10.777 21.5184C10.9054 21.4488 11.0259 21.3641 11.1382 21.2642ZM11.1382 21.6816C11.0972 21.7119 11.0419 21.7547 10.9723 21.81C10.9046 21.8635 10.8386 21.9063 10.7743 21.9385C10.6851 21.9848 10.5986 22.0205 10.5148 22.0455C10.4327 22.0705 10.3168 22.0829 10.1669 22.0829C10.0438 22.0829 9.92701 22.0598 9.81641 22.0134C9.70581 21.967 9.60859 21.9019 9.52475 21.818C9.44447 21.736 9.38025 21.6352 9.33209 21.5157C9.28393 21.3944 9.25984 21.2668 9.25984 21.133C9.25984 20.9261 9.30355 20.7504 9.39096 20.6059C9.47837 20.4596 9.61661 20.3437 9.8057 20.2581C9.97339 20.1814 10.1714 20.1287 10.3997 20.1002C10.6281 20.0699 10.8742 20.0476 11.1382 20.0333V19.937C11.1382 19.8192 11.1204 19.7247 11.0847 19.6533C11.049 19.5802 10.9991 19.524 10.9349 19.4848C10.8707 19.4437 10.7922 19.417 10.6994 19.4045C10.6067 19.3902 10.5112 19.3831 10.4131 19.3831C10.2972 19.3831 10.1607 19.4009 10.0037 19.4366C9.84673 19.4705 9.68975 19.5204 9.53277 19.5864H9.50334V19.0754C9.5961 19.0486 9.729 19.0192 9.90203 18.9871C10.0751 18.955 10.2463 18.9389 10.4158 18.9389C10.6209 18.9389 10.794 18.955 10.9349 18.9871C11.0758 19.0192 11.2025 19.0772 11.3148 19.161C11.4237 19.2431 11.5048 19.3492 11.5583 19.4794C11.6119 19.6096 11.6386 19.7684 11.6386 19.9557V22H11.1382V21.6816ZM14.7532 22H14.1271L13.1023 20.622H12.8507V22H12.3477V19.0112H12.8507V20.3116C12.981 20.3098 13.0916 20.283 13.1825 20.2313C13.2753 20.1778 13.3538 20.0752 13.418 19.9236C13.4376 19.879 13.459 19.8273 13.4822 19.7684C13.5072 19.7095 13.5268 19.6578 13.5411 19.6132C13.6196 19.3938 13.7284 19.2386 13.8675 19.1476C14.0067 19.0566 14.1877 19.0112 14.4107 19.0112H14.5472V19.4446H14.4321C14.2912 19.4446 14.1851 19.4741 14.1137 19.5329C14.0441 19.59 13.9853 19.6953 13.9371 19.8487C13.8872 20.0039 13.8283 20.1252 13.7605 20.2126C13.6927 20.2982 13.6178 20.3642 13.5357 20.4106L14.7532 22ZM17.2604 19.4527H16.2436V22H15.7406V19.4527H14.7238V19.0112H17.2604V19.4527ZM19.9951 22H19.4974V19.7711L18.0899 22H17.635V19.0112H18.1327V21.2053L19.5241 19.0112H19.9951V22ZM22.9705 22H22.4675V20.8334C22.3105 20.8851 22.158 20.9252 22.0099 20.9538C21.8619 20.9823 21.7156 20.9966 21.5711 20.9966C21.4445 20.9966 21.3205 20.9805 21.1992 20.9484C21.0797 20.9145 20.9762 20.8601 20.8888 20.7852C20.8014 20.7103 20.7336 20.6148 20.6854 20.4989C20.639 20.3812 20.6159 20.2429 20.6159 20.0841V19.0112H21.1189V19.8219C21.1189 19.9539 21.1243 20.0592 21.135 20.1377C21.1457 20.2144 21.1751 20.2893 21.2233 20.3624C21.2643 20.4249 21.3258 20.473 21.4079 20.5069C21.4917 20.5408 21.6014 20.5578 21.737 20.5578C21.8547 20.5578 21.9805 20.5462 22.1143 20.523C22.2499 20.4998 22.3676 20.4721 22.4675 20.44V19.0112H22.9705V22ZM24.9961 22.0696C24.5198 22.0696 24.1497 21.9358 23.8857 21.6682C23.6234 21.3988 23.4923 21.0171 23.4923 20.523C23.4923 20.036 23.6199 19.6489 23.875 19.3617C24.1301 19.0727 24.4636 18.9282 24.8757 18.9282C25.0612 18.9282 25.2253 18.955 25.368 19.0085C25.5108 19.062 25.6356 19.1458 25.7427 19.26C25.8497 19.3742 25.9317 19.5142 25.9888 19.6801C26.0459 19.8442 26.0745 20.0458 26.0745 20.2848V20.5578H24.0034C24.0034 20.9056 24.0908 21.1714 24.2656 21.3551C24.4404 21.5389 24.6822 21.6307 24.9908 21.6307C25.1014 21.6307 25.2093 21.6183 25.3145 21.5933C25.4216 21.5683 25.5179 21.5362 25.6035 21.497C25.6945 21.4559 25.7712 21.4167 25.8336 21.3792C25.8961 21.34 25.9478 21.3034 25.9888 21.2695H26.0183V21.818C25.9594 21.8412 25.8863 21.8707 25.7988 21.9063C25.7114 21.9402 25.6329 21.967 25.5634 21.9866C25.4653 22.0134 25.3761 22.0339 25.2958 22.0482C25.2173 22.0624 25.1174 22.0696 24.9961 22.0696ZM25.5848 20.1724C25.5812 20.0369 25.5652 19.92 25.5366 19.8219C25.5081 19.7238 25.4671 19.6409 25.4135 19.5731C25.3547 19.4981 25.2789 19.4411 25.1861 19.4018C25.0951 19.3626 24.9818 19.3429 24.8463 19.3429C24.7125 19.3429 24.5983 19.3635 24.5038 19.4045C24.411 19.4437 24.3263 19.5017 24.2496 19.5784C24.1746 19.6569 24.1176 19.7443 24.0783 19.8406C24.0391 19.9352 24.0141 20.0458 24.0034 20.1724H25.5848ZM27.7709 22.0669C27.5658 22.0669 27.3776 22.0357 27.2063 21.9732C27.0351 21.909 26.8879 21.8127 26.7648 21.6843C26.6417 21.5558 26.5463 21.3944 26.4785 21.1999C26.4107 21.0037 26.3768 20.7736 26.3768 20.5096C26.3768 20.2474 26.4116 20.0208 26.4812 19.8299C26.5525 19.6391 26.6471 19.4785 26.7648 19.3483C26.8825 19.2181 27.0288 19.1182 27.2036 19.0486C27.3802 18.9773 27.5693 18.9416 27.7709 18.9416C27.935 18.9416 28.0929 18.9648 28.2445 19.0112C28.3979 19.0575 28.5344 19.111 28.6539 19.1717V19.7363H28.6245C28.5888 19.706 28.5424 19.6712 28.4853 19.6319C28.43 19.5927 28.3622 19.5526 28.282 19.5115C28.2124 19.4758 28.1303 19.4446 28.0358 19.4179C27.9413 19.3911 27.8503 19.3777 27.7629 19.3777C27.5024 19.3777 27.2928 19.4767 27.1341 19.6747C26.9771 19.871 26.8986 20.1493 26.8986 20.5096C26.8986 20.8628 26.9744 21.1384 27.126 21.3364C27.2794 21.5326 27.4917 21.6307 27.7629 21.6307C27.927 21.6307 28.0831 21.5968 28.2311 21.5291C28.3792 21.4613 28.5103 21.3739 28.6245 21.2668H28.6539V21.8314C28.604 21.8546 28.5415 21.8832 28.4666 21.9171C28.3917 21.9492 28.3239 21.9732 28.2632 21.9893C28.1776 22.0143 28.1009 22.033 28.0331 22.0455C27.9653 22.0598 27.8779 22.0669 27.7709 22.0669ZM31.5197 22H30.8935L29.8687 20.622H29.6172V22H29.1141V19.0112H29.6172V20.3116C29.7474 20.3098 29.858 20.283 29.949 20.2313C30.0417 20.1778 30.1202 20.0752 30.1845 19.9236C30.2041 19.879 30.2255 19.8273 30.2487 19.7684C30.2736 19.7095 30.2933 19.6578 30.3075 19.6132C30.386 19.3938 30.4948 19.2386 30.634 19.1476C30.7731 19.0566 30.9542 19.0112 31.1772 19.0112H31.3136V19.4446H31.1986C31.0576 19.4446 30.9515 19.4741 30.8802 19.5329C30.8106 19.59 30.7517 19.6953 30.7036 19.8487C30.6536 20.0039 30.5947 20.1252 30.527 20.2126C30.4592 20.2982 30.3842 20.3642 30.3022 20.4106L31.5197 22ZM34.3025 20.5069C34.3025 21.01 34.1812 21.3988 33.9386 21.6736C33.696 21.9465 33.3731 22.0829 32.9699 22.0829C32.5543 22.0829 32.227 21.942 31.9879 21.6602C31.7507 21.3765 31.6321 20.9921 31.6321 20.5069C31.6321 20.0074 31.7542 19.6194 31.9986 19.3429C32.2448 19.0665 32.5686 18.9282 32.9699 18.9282C33.3731 18.9282 33.696 19.0665 33.9386 19.3429C34.1812 19.6177 34.3025 20.0057 34.3025 20.5069ZM33.7834 20.5069C33.7834 20.1198 33.7129 19.8326 33.572 19.6453C33.4311 19.4562 33.2304 19.3617 32.9699 19.3617C32.7077 19.3617 32.5052 19.4562 32.3625 19.6453C32.2216 19.8326 32.1512 20.1198 32.1512 20.5069C32.1512 20.8815 32.2216 21.166 32.3625 21.3605C32.5052 21.5531 32.7077 21.6495 32.9699 21.6495C33.2286 21.6495 33.4284 21.5549 33.5693 21.3658C33.712 21.175 33.7834 20.8887 33.7834 20.5069ZM36.1167 22.0696C35.6404 22.0696 35.2702 21.9358 35.0062 21.6682C34.744 21.3988 34.6129 21.0171 34.6129 20.523C34.6129 20.036 34.7404 19.6489 34.9955 19.3617C35.2506 19.0727 35.5842 18.9282 35.9962 18.9282C36.1818 18.9282 36.3459 18.955 36.4886 19.0085C36.6313 19.062 36.7562 19.1458 36.8632 19.26C36.9702 19.3742 37.0523 19.5142 37.1094 19.6801C37.1665 19.8442 37.195 20.0458 37.195 20.2848V20.5578H35.1239C35.1239 20.9056 35.2114 21.1714 35.3862 21.3551C35.561 21.5389 35.8027 21.6307 36.1113 21.6307C36.2219 21.6307 36.3298 21.6183 36.4351 21.5933C36.5421 21.5683 36.6384 21.5362 36.7241 21.497C36.815 21.4559 36.8917 21.4167 36.9542 21.3792C37.0166 21.34 37.0683 21.3034 37.1094 21.2695H37.1388V21.818C37.0799 21.8412 37.0068 21.8707 36.9194 21.9063C36.832 21.9402 36.7535 21.967 36.6839 21.9866C36.5858 22.0134 36.4966 22.0339 36.4163 22.0482C36.3379 22.0624 36.238 22.0696 36.1167 22.0696ZM36.7053 20.1724C36.7018 20.0369 36.6857 19.92 36.6572 19.8219C36.6286 19.7238 36.5876 19.6409 36.5341 19.5731C36.4752 19.4981 36.3994 19.4411 36.3066 19.4018C36.2157 19.3626 36.1024 19.3429 35.9668 19.3429C35.833 19.3429 35.7189 19.3635 35.6243 19.4045C35.5316 19.4437 35.4468 19.5017 35.3701 19.5784C35.2952 19.6569 35.2381 19.7443 35.1989 19.8406C35.1596 19.9352 35.1346 20.0458 35.1239 20.1724H36.7053Z" fill="#3FA9F5"/>
<path d="M297.297 22H296.767V18.4867H294.934V22H294.404V18.0158H297.297V22ZM300.382 22H299.879V19.4339H298.851C298.846 19.582 298.84 19.7247 298.835 19.8621C298.83 19.9976 298.824 20.1207 298.819 20.2313C298.808 20.5114 298.79 20.746 298.763 20.935C298.738 21.1241 298.706 21.2758 298.667 21.3899C298.627 21.5077 298.584 21.5995 298.535 21.6655C298.489 21.7315 298.436 21.7913 298.378 21.8448C298.317 21.8983 298.252 21.9385 298.182 21.9652C298.113 21.992 298.034 22.0054 297.947 22.0054C297.918 22.0054 297.882 22.0045 297.837 22.0027C297.792 22.0009 297.761 22 297.743 22V21.5612H297.77C297.783 21.5612 297.795 21.5621 297.808 21.5638C297.822 21.5656 297.838 21.5665 297.856 21.5665C297.899 21.5665 297.941 21.5603 297.982 21.5478C298.023 21.5353 298.059 21.5121 298.091 21.4782C298.18 21.3908 298.246 21.2383 298.287 21.0207C298.328 20.8012 298.357 20.4953 298.375 20.1029C298.382 19.9566 298.388 19.7836 298.394 19.5838C298.401 19.384 298.407 19.1931 298.412 19.0112H300.382V22ZM302.782 21.2642V20.4347C302.662 20.4454 302.511 20.4605 302.327 20.4802C302.145 20.498 301.998 20.5239 301.886 20.5578C301.752 20.5988 301.641 20.6621 301.554 20.7477C301.466 20.8316 301.423 20.9493 301.423 21.1009C301.423 21.2722 301.471 21.4015 301.567 21.4889C301.663 21.5763 301.804 21.62 301.99 21.62C302.149 21.62 302.292 21.5861 302.421 21.5184C302.549 21.4488 302.67 21.3641 302.782 21.2642ZM302.782 21.6816C302.741 21.7119 302.686 21.7547 302.616 21.81C302.548 21.8635 302.482 21.9063 302.418 21.9385C302.329 21.9848 302.242 22.0205 302.158 22.0455C302.076 22.0705 301.96 22.0829 301.811 22.0829C301.688 22.0829 301.571 22.0598 301.46 22.0134C301.349 21.967 301.252 21.9019 301.168 21.818C301.088 21.736 301.024 21.6352 300.976 21.5157C300.928 21.3944 300.904 21.2668 300.904 21.133C300.904 20.9261 300.947 20.7504 301.035 20.6059C301.122 20.4596 301.26 20.3437 301.449 20.2581C301.617 20.1814 301.815 20.1287 302.043 20.1002C302.272 20.0699 302.518 20.0476 302.782 20.0333V19.937C302.782 19.8192 302.764 19.7247 302.728 19.6533C302.693 19.5802 302.643 19.524 302.579 19.4848C302.514 19.4437 302.436 19.417 302.343 19.4045C302.25 19.3902 302.155 19.3831 302.057 19.3831C301.941 19.3831 301.804 19.4009 301.647 19.4366C301.49 19.4705 301.333 19.5204 301.176 19.5864H301.147V19.0754C301.24 19.0486 301.373 19.0192 301.546 18.9871C301.719 18.955 301.89 18.9389 302.059 18.9389C302.265 18.9389 302.438 18.955 302.579 18.9871C302.719 19.0192 302.846 19.0772 302.959 19.161C303.067 19.2431 303.148 19.3492 303.202 19.4794C303.256 19.6096 303.282 19.7684 303.282 19.9557V22H302.782V21.6816ZM306.351 22H305.848V20.6541H304.494V22H303.991V19.0112H304.494V20.2206H305.848V19.0112H306.351V22ZM309.538 20.5069C309.538 21.01 309.417 21.3988 309.174 21.6736C308.932 21.9465 308.609 22.0829 308.206 22.0829C307.79 22.0829 307.463 21.942 307.224 21.6602C306.986 21.3765 306.868 20.9921 306.868 20.5069C306.868 20.0074 306.99 19.6194 307.234 19.3429C307.481 19.0665 307.804 18.9282 308.206 18.9282C308.609 18.9282 308.932 19.0665 309.174 19.3429C309.417 19.6177 309.538 20.0057 309.538 20.5069ZM309.019 20.5069C309.019 20.1198 308.949 19.8326 308.808 19.6453C308.667 19.4562 308.466 19.3617 308.206 19.3617C307.943 19.3617 307.741 19.4562 307.598 19.6453C307.457 19.8326 307.387 20.1198 307.387 20.5069C307.387 20.8815 307.457 21.166 307.598 21.3605C307.741 21.5531 307.943 21.6495 308.206 21.6495C308.464 21.6495 308.664 21.5549 308.805 21.3658C308.948 21.175 309.019 20.8887 309.019 20.5069ZM312.399 21.0956C312.399 21.2401 312.371 21.3685 312.316 21.4809C312.26 21.5915 312.185 21.6843 312.088 21.7592C311.967 21.8537 311.839 21.9179 311.706 21.9518C311.574 21.9839 311.415 22 311.229 22H310.055V19.0112H311.152C311.371 19.0112 311.532 19.0183 311.633 19.0326C311.735 19.045 311.836 19.0789 311.936 19.1342C312.041 19.1913 312.119 19.2671 312.169 19.3617C312.219 19.4562 312.243 19.5686 312.243 19.6988C312.243 19.8415 312.204 19.97 312.126 20.0841C312.047 20.1965 311.943 20.2839 311.813 20.3464L311.826 20.3651C311.988 20.4061 312.124 20.4891 312.233 20.6139C312.343 20.7388 312.399 20.8994 312.399 21.0956ZM311.727 19.7764C311.727 19.7086 311.715 19.6498 311.692 19.5998C311.671 19.5499 311.633 19.5106 311.577 19.4821C311.513 19.4482 311.441 19.4286 311.36 19.4232C311.282 19.4161 311.172 19.4125 311.031 19.4125H310.552V20.2313H311.13C311.253 20.2313 311.341 20.226 311.393 20.2153C311.444 20.2028 311.501 20.1778 311.564 20.1403C311.623 20.1047 311.665 20.0565 311.69 19.9958C311.715 19.9352 311.727 19.8621 311.727 19.7764ZM311.88 21.0983C311.88 20.9966 311.864 20.9154 311.834 20.8548C311.806 20.7923 311.741 20.737 311.641 20.6889C311.579 20.6585 311.512 20.6398 311.441 20.6327C311.369 20.6255 311.27 20.622 311.144 20.622H310.552V21.5986H310.989C311.169 21.5986 311.309 21.5915 311.409 21.5772C311.509 21.563 311.594 21.5344 311.666 21.4916C311.74 21.4452 311.795 21.3917 311.829 21.3311C311.863 21.2704 311.88 21.1928 311.88 21.0983ZM315.388 20.5069C315.388 21.01 315.266 21.3988 315.024 21.6736C314.781 21.9465 314.458 22.0829 314.055 22.0829C313.639 22.0829 313.312 21.942 313.073 21.6602C312.836 21.3765 312.717 20.9921 312.717 20.5069C312.717 20.0074 312.839 19.6194 313.084 19.3429C313.33 19.0665 313.654 18.9282 314.055 18.9282C314.458 18.9282 314.781 19.0665 315.024 19.3429C315.266 19.6177 315.388 20.0057 315.388 20.5069ZM314.868 20.5069C314.868 20.1198 314.798 19.8326 314.657 19.6453C314.516 19.4562 314.315 19.3617 314.055 19.3617C313.793 19.3617 313.59 19.4562 313.448 19.6453C313.307 19.8326 313.236 20.1198 313.236 20.5069C313.236 20.8815 313.307 21.166 313.448 21.3605C313.59 21.5531 313.793 21.6495 314.055 21.6495C314.314 21.6495 314.513 21.5549 314.654 21.3658C314.797 21.175 314.868 20.8887 314.868 20.5069ZM317.202 22.0696C316.725 22.0696 316.355 21.9358 316.091 21.6682C315.829 21.3988 315.698 21.0171 315.698 20.523C315.698 20.036 315.825 19.6489 316.081 19.3617C316.336 19.0727 316.669 18.9282 317.081 18.9282C317.267 18.9282 317.431 18.955 317.574 19.0085C317.716 19.062 317.841 19.1458 317.948 19.26C318.055 19.3742 318.137 19.5142 318.194 19.6801C318.251 19.8442 318.28 20.0458 318.28 20.2848V20.5578H316.209C316.209 20.9056 316.296 21.1714 316.471 21.3551C316.646 21.5389 316.888 21.6307 317.196 21.6307C317.307 21.6307 317.415 21.6183 317.52 21.5933C317.627 21.5683 317.723 21.5362 317.809 21.497C317.9 21.4559 317.977 21.4167 318.039 21.3792C318.102 21.34 318.153 21.3034 318.194 21.2695H318.224V21.818C318.165 21.8412 318.092 21.8707 318.004 21.9063C317.917 21.9402 317.839 21.967 317.769 21.9866C317.671 22.0134 317.582 22.0339 317.501 22.0482C317.423 22.0624 317.323 22.0696 317.202 22.0696ZM317.79 20.1724C317.787 20.0369 317.771 19.92 317.742 19.8219C317.714 19.7238 317.673 19.6409 317.619 19.5731C317.56 19.4981 317.484 19.4411 317.392 19.4018C317.301 19.3626 317.187 19.3429 317.052 19.3429C316.918 19.3429 316.804 19.3635 316.709 19.4045C316.617 19.4437 316.532 19.5017 316.455 19.5784C316.38 19.6569 316.323 19.7443 316.284 19.8406C316.245 19.9352 316.22 20.0458 316.209 20.1724H317.79Z" fill="white"/>
<path opacity="0.5" d="M319 48H251.885L237.285 60H8" stroke="white" stroke-width="0.5" stroke-miterlimit="10" stroke-dasharray="2 4"/>
<path d="M25 50L22.921 48.4883L8 47" stroke="#3FA9F5" stroke-width="0.75" stroke-miterlimit="10"/>
<path d="M25 50L36 60" stroke="#3FA9F5" stroke-width="0.75" stroke-miterlimit="10"/>
<path d="M62 60L66.359 50L72 59.75" stroke="#3FA9F5" stroke-width="0.75" stroke-miterlimit="10"/>
<path d="M116 49.7726L109.326 32L103 50" stroke="#3FA9F5" stroke-width="0.75" stroke-miterlimit="10"/>
<path d="M99 60L103 50" stroke="#3FA9F5" stroke-width="0.75" stroke-miterlimit="10"/>
<path d="M99 60.259L94.2242 74L79.5996 69.5301L72 60" stroke="#3FA9F5" stroke-width="0.75" stroke-miterlimit="10"/>
<path d="M123 70L119 60" stroke="#3FA9F5" stroke-width="0.75" stroke-miterlimit="10"/>
<path d="M116 50L120 61" stroke="#3FA9F5" stroke-width="0.75" stroke-miterlimit="10"/>
<path d="M201 61L180.203 52L164 60.7046" stroke="#3FA9F5" stroke-width="0.75" stroke-miterlimit="10"/>
<path d="M208 67L201 61" stroke="#3FA9F5" stroke-width="0.75" stroke-miterlimit="10"/>
<path d="M8 55H237.814L252.445 42L319 42" stroke="white" stroke-width="0.5" stroke-miterlimit="10"/>
<path d="M180 25.5V96.5" stroke="#F7931E" stroke-width="0.5" stroke-miterlimit="10"/>
<path opacity="0.1" d="M180 31C183.314 31 186 28.3137 186 25C186 21.6863 183.314 19 180 19C176.686 19 174 21.6863 174 25C174 28.3137 176.686 31 180 31Z" fill="#F7931E"/>
<path d="M180 53C180.552 53 181 52.5523 181 52C181 51.4477 180.552 51 180 51C179.448 51 179 51.4477 179 52C179 52.5523 179.448 53 180 53Z" fill="#F7931E"/>
<path d="M109.794 103.612L108.07 107H107.5L109.325 103.484H107.265V103.016H109.794V103.612Z" fill="#8C99B2"/>
<defs>
<linearGradient id="paint0_linear" x1="-nan" y1="-nan" x2="-nan" y2="-nan" gradientUnits="userSpaceOnUse">
<stop stop-color="white" stop-opacity="0"/>
<stop offset="0.05" stop-color="white" stop-opacity="0.07"/>
<stop offset="0.15" stop-color="white" stop-opacity="0.25"/>
<stop offset="0.3" stop-color="white" stop-opacity="0.53"/>
<stop offset="0.48" stop-color="white" stop-opacity="0.92"/>
<stop offset="0.51" stop-color="white"/>
<stop offset="0.61" stop-color="white" stop-opacity="0.76"/>
<stop offset="0.75" stop-color="white" stop-opacity="0.44"/>
<stop offset="0.87" stop-color="white" stop-opacity="0.2"/>
<stop offset="0.95" stop-color="white" stop-opacity="0.06"/>
<stop offset="1" stop-color="white" stop-opacity="0"/>
</linearGradient>
<linearGradient id="paint1_linear" x1="-nan" y1="-nan" x2="-nan" y2="-nan" gradientUnits="userSpaceOnUse">
<stop stop-color="white" stop-opacity="0"/>
<stop offset="0.05" stop-color="white" stop-opacity="0.07"/>
<stop offset="0.15" stop-color="white" stop-opacity="0.25"/>
<stop offset="0.3" stop-color="white" stop-opacity="0.53"/>
<stop offset="0.48" stop-color="white" stop-opacity="0.92"/>
<stop offset="0.51" stop-color="white"/>
<stop offset="0.61" stop-color="white" stop-opacity="0.76"/>
<stop offset="0.75" stop-color="white" stop-opacity="0.44"/>
<stop offset="0.87" stop-color="white" stop-opacity="0.2"/>
<stop offset="0.95" stop-color="white" stop-opacity="0.06"/>
<stop offset="1" stop-color="white" stop-opacity="0"/>
</linearGradient>
<linearGradient id="paint2_linear" x1="-nan" y1="-nan" x2="-nan" y2="-nan" gradientUnits="userSpaceOnUse">
<stop stop-color="white" stop-opacity="0"/>
<stop offset="0.05" stop-color="white" stop-opacity="0.07"/>
<stop offset="0.15" stop-color="white" stop-opacity="0.25"/>
<stop offset="0.3" stop-color="white" stop-opacity="0.53"/>
<stop offset="0.48" stop-color="white" stop-opacity="0.92"/>
<stop offset="0.51" stop-color="white"/>
<stop offset="0.61" stop-color="white" stop-opacity="0.76"/>
<stop offset="0.75" stop-color="white" stop-opacity="0.44"/>
<stop offset="0.87" stop-color="white" stop-opacity="0.2"/>
<stop offset="0.95" stop-color="white" stop-opacity="0.06"/>
<stop offset="1" stop-color="white" stop-opacity="0"/>
</linearGradient>
<linearGradient id="paint3_linear" x1="148.875" y1="25" x2="212.125" y2="25" gradientUnits="userSpaceOnUse">
<stop stop-color="#F7931E"/>
<stop offset="0.01" stop-color="#EF8E1D" stop-opacity="0.97"/>
<stop offset="0.07" stop-color="#B86D16" stop-opacity="0.74"/>
<stop offset="0.13" stop-color="#875010" stop-opacity="0.54"/>
<stop offset="0.19" stop-color="#5D370B" stop-opacity="0.38"/>
<stop offset="0.26" stop-color="#3B2307" stop-opacity="0.24"/>
<stop offset="0.32" stop-color="#211404" stop-opacity="0.13"/>
<stop offset="0.39" stop-color="#0F0902" stop-opacity="0.06"/>
<stop offset="0.46" stop-color="#040200" stop-opacity="0.01"/>
<stop offset="0.54" stop-opacity="0"/>
<stop offset="0.65" stop-color="#020100" stop-opacity="0.01"/>
<stop offset="0.72" stop-color="#0A0601" stop-opacity="0.04"/>
<stop offset="0.77" stop-color="#180E03" stop-opacity="0.1"/>
<stop offset="0.82" stop-color="#2B1A05" stop-opacity="0.17"/>
<stop offset="0.85" stop-color="#442908" stop-opacity="0.28"/>
<stop offset="0.89" stop-color="#633B0C" stop-opacity="0.4"/>
<stop offset="0.93" stop-color="#885111" stop-opacity="0.55"/>
<stop offset="0.96" stop-color="#B36A16" stop-opacity="0.72"/>
<stop offset="0.99" stop-color="#E1861B" stop-opacity="0.91"/>
<stop offset="1" stop-color="#F7931E"/>
</linearGradient>
</defs>
</svg>
