<svg width="324" height="117" viewBox="0 0 324 117" fill="none" xmlns="http://www.w3.org/2000/svg">
<path d="M10.6689 19.7686C10.6689 20.1299 10.6006 20.4489 10.4639 20.7256C10.3271 21.0023 10.1432 21.2301 9.91211 21.4092C9.63867 21.624 9.3457 21.777 9.0332 21.8682C8.7207 21.9561 8.31706 22 7.82227 22H5.7373V14.7295H7.66602C8.18359 14.7295 8.57096 14.7474 8.82812 14.7832C9.08854 14.8158 9.33757 14.8955 9.5752 15.0225C9.83561 15.1624 10.026 15.3464 10.1465 15.5742C10.2669 15.7988 10.3271 16.0641 10.3271 16.3701C10.3271 16.7119 10.236 17.0179 10.0537 17.2881C9.87467 17.5583 9.62565 17.7699 9.30664 17.9229V17.9619C9.73958 18.0791 10.0749 18.2939 10.3125 18.6064C10.5501 18.9157 10.6689 19.3031 10.6689 19.7686ZM9.32129 16.5068C9.32129 16.3311 9.29199 16.1797 9.2334 16.0527C9.1748 15.9225 9.0804 15.82 8.9502 15.7451C8.79395 15.6572 8.61979 15.6035 8.42773 15.584C8.23568 15.5645 7.97038 15.5547 7.63184 15.5547H6.7041V17.6836H7.80273C8.10547 17.6836 8.32845 17.6689 8.47168 17.6396C8.61491 17.6071 8.76302 17.542 8.91602 17.4443C9.0625 17.3499 9.16667 17.2262 9.22852 17.0732C9.29036 16.9202 9.32129 16.7314 9.32129 16.5068ZM9.66309 19.8076C9.66309 19.5342 9.62402 19.3096 9.5459 19.1338C9.46777 18.9548 9.3099 18.8034 9.07227 18.6797C8.91927 18.5983 8.75163 18.5462 8.56934 18.5234C8.3903 18.5007 8.13477 18.4893 7.80273 18.4893H6.7041V21.1748H7.49023C7.91341 21.1748 8.24707 21.1553 8.49121 21.1162C8.73535 21.0771 8.9502 20.9941 9.13574 20.8672C9.31803 20.7402 9.4515 20.597 9.53613 20.4375C9.62077 20.2747 9.66309 20.0648 9.66309 19.8076ZM15.6104 20.3105C15.6104 20.5742 15.5566 20.8135 15.4492 21.0283C15.3451 21.2432 15.2018 21.4173 15.0195 21.5508C14.8047 21.7135 14.5752 21.8291 14.3311 21.8975C14.0869 21.9658 13.7728 22 13.3887 22H11.5625V16.5459H12.4805V18.6699H13.4131C13.8232 18.6699 14.1406 18.6911 14.3652 18.7334C14.5931 18.7757 14.8193 18.8799 15.0439 19.0459C15.2327 19.1859 15.3743 19.3649 15.4688 19.583C15.5632 19.8011 15.6104 20.0436 15.6104 20.3105ZM14.6631 20.3252C14.6631 20.1592 14.6338 20.0143 14.5752 19.8906C14.5199 19.7637 14.4271 19.6611 14.2969 19.583C14.1602 19.5016 14.0039 19.4528 13.8281 19.4365C13.6556 19.4202 13.4066 19.4121 13.0811 19.4121H12.4805V21.2676H13.0615C13.387 21.2676 13.6393 21.2546 13.8184 21.2285C13.9974 21.1992 14.152 21.1455 14.2822 21.0674C14.4157 20.9827 14.5117 20.8835 14.5703 20.7695C14.6322 20.6523 14.6631 20.5042 14.6631 20.3252ZM17.1631 22H16.2451V16.5459H17.1631V22ZM22.3633 17.3516C22.5749 17.5664 22.7393 17.8398 22.8564 18.1719C22.9736 18.5007 23.0322 18.8831 23.0322 19.3193C23.0322 19.7393 22.9655 20.1283 22.832 20.4863C22.6986 20.8411 22.5179 21.1406 22.29 21.3848C22.0557 21.6387 21.7952 21.8307 21.5088 21.9609C21.2256 22.0879 20.9163 22.1514 20.5811 22.1514C20.2393 22.1514 19.9251 22.0928 19.6387 21.9756C19.3555 21.8551 19.113 21.6712 18.9111 21.4238C18.6605 21.1146 18.4717 20.7272 18.3447 20.2617C18.221 19.7962 18.1592 19.2201 18.1592 18.5332C18.1592 18.2891 18.1689 18.0417 18.1885 17.791C18.2113 17.5371 18.2585 17.2344 18.3301 16.8828C18.3952 16.5703 18.4831 16.2806 18.5938 16.0137C18.7044 15.7435 18.8493 15.5156 19.0283 15.3301C19.2594 15.0892 19.5605 14.8971 19.9316 14.7539C20.306 14.6107 20.8008 14.5114 21.416 14.4561C21.6341 14.4365 21.8669 14.4186 22.1143 14.4023C22.3649 14.3828 22.5553 14.3682 22.6855 14.3584V15.2031C22.5163 15.2129 22.3356 15.2259 22.1436 15.2422C21.9515 15.2552 21.7318 15.2715 21.4844 15.291C21.1556 15.3171 20.8122 15.3757 20.4541 15.4668C20.096 15.5547 19.8258 15.693 19.6436 15.8818C19.5068 16.0218 19.3978 16.222 19.3164 16.4824C19.235 16.7428 19.1781 17.0326 19.1455 17.3516C19.3864 17.179 19.6436 17.0342 19.917 16.917C20.1937 16.7965 20.4915 16.7363 20.8105 16.7363C21.1068 16.7363 21.3883 16.7868 21.6553 16.8877C21.9222 16.9854 22.1582 17.14 22.3633 17.3516ZM22.0996 19.373C22.0996 18.7936 21.9694 18.3493 21.709 18.04C21.4486 17.7308 21.0775 17.5762 20.5957 17.5762C20.332 17.5762 20.0765 17.6201 19.8291 17.708C19.5817 17.7959 19.349 17.9131 19.1309 18.0596C19.1243 18.141 19.1178 18.2386 19.1113 18.3525C19.1048 18.4632 19.1016 18.5641 19.1016 18.6553C19.1016 19.2217 19.1471 19.6823 19.2383 20.0371C19.3294 20.3919 19.4564 20.6702 19.6191 20.8721C19.7656 21.0544 19.9202 21.1813 20.083 21.2529C20.2458 21.3213 20.4232 21.3555 20.6152 21.3555C21.084 21.3555 21.4486 21.1781 21.709 20.8232C21.9694 20.4684 22.0996 19.985 22.0996 19.373ZM28.4814 19.2754C28.4814 20.1934 28.2601 20.903 27.8174 21.4043C27.3747 21.9023 26.7855 22.1514 26.0498 22.1514C25.2913 22.1514 24.694 21.8942 24.2578 21.3799C23.8249 20.8623 23.6084 20.1608 23.6084 19.2754C23.6084 18.3639 23.8314 17.6559 24.2773 17.1514C24.7266 16.6468 25.3174 16.3945 26.0498 16.3945C26.7855 16.3945 27.3747 16.6468 27.8174 17.1514C28.2601 17.6527 28.4814 18.3607 28.4814 19.2754ZM27.5342 19.2754C27.5342 18.569 27.4056 18.0449 27.1484 17.7031C26.8913 17.3581 26.5251 17.1855 26.0498 17.1855C25.5713 17.1855 25.2018 17.3581 24.9414 17.7031C24.6842 18.0449 24.5557 18.569 24.5557 19.2754C24.5557 19.959 24.6842 20.4782 24.9414 20.833C25.2018 21.1846 25.5713 21.3604 26.0498 21.3604C26.5218 21.3604 26.8864 21.1878 27.1436 20.8428C27.404 20.4945 27.5342 19.972 27.5342 19.2754ZM33.999 19.1289C33.999 20.0371 33.7809 20.7614 33.3447 21.3018C32.9118 21.8389 32.3633 22.1074 31.6992 22.1074C31.429 22.1074 31.1898 22.0765 30.9814 22.0146C30.7731 21.9528 30.5599 21.8568 30.3418 21.7266V24.0117H29.4238V16.5459H30.3418V17.1172C30.5697 16.9121 30.8219 16.7412 31.0986 16.6045C31.3786 16.4645 31.6829 16.3945 32.0117 16.3945C32.6367 16.3945 33.1234 16.6419 33.4717 17.1367C33.8232 17.6315 33.999 18.2956 33.999 19.1289ZM33.0518 19.2314C33.0518 18.6097 32.9525 18.1279 32.7539 17.7861C32.5553 17.4411 32.2331 17.2686 31.7871 17.2686C31.5267 17.2686 31.2744 17.3271 31.0303 17.4443C30.7894 17.5583 30.5599 17.7064 30.3418 17.8887V20.9795C30.5827 21.0967 30.7878 21.1764 30.957 21.2188C31.1296 21.2611 31.3265 21.2822 31.5479 21.2822C32.0231 21.2822 32.3926 21.1081 32.6562 20.7598C32.9199 20.4115 33.0518 19.902 33.0518 19.2314ZM42.3828 22H41.4648V17.3369H38.9941V22H38.0762V16.5459H42.3828V22ZM48.2861 19.1289C48.2861 20.0371 48.068 20.7614 47.6318 21.3018C47.1989 21.8389 46.6504 22.1074 45.9863 22.1074C45.7161 22.1074 45.4769 22.0765 45.2686 22.0146C45.0602 21.9528 44.847 21.8568 44.6289 21.7266V24.0117H43.7109V16.5459H44.6289V17.1172C44.8568 16.9121 45.109 16.7412 45.3857 16.6045C45.6657 16.4645 45.9701 16.3945 46.2988 16.3945C46.9238 16.3945 47.4105 16.6419 47.7588 17.1367C48.1104 17.6315 48.2861 18.2956 48.2861 19.1289ZM47.3389 19.2314C47.3389 18.6097 47.2396 18.1279 47.041 17.7861C46.8424 17.4411 46.5202 17.2686 46.0742 17.2686C45.8138 17.2686 45.5615 17.3271 45.3174 17.4443C45.0765 17.5583 44.847 17.7064 44.6289 17.8887V20.9795C44.8698 21.0967 45.0749 21.1764 45.2441 21.2188C45.4167 21.2611 45.6136 21.2822 45.835 21.2822C46.3102 21.2822 46.6797 21.1081 46.9434 20.7598C47.207 20.4115 47.3389 19.902 47.3389 19.2314ZM53.7256 19.2754C53.7256 20.1934 53.5042 20.903 53.0615 21.4043C52.6188 21.9023 52.0296 22.1514 51.2939 22.1514C50.5355 22.1514 49.9382 21.8942 49.502 21.3799C49.069 20.8623 48.8525 20.1608 48.8525 19.2754C48.8525 18.3639 49.0755 17.6559 49.5215 17.1514C49.9707 16.6468 50.5615 16.3945 51.2939 16.3945C52.0296 16.3945 52.6188 16.6468 53.0615 17.1514C53.5042 17.6527 53.7256 18.3607 53.7256 19.2754ZM52.7783 19.2754C52.7783 18.569 52.6497 18.0449 52.3926 17.7031C52.1354 17.3581 51.7692 17.1855 51.2939 17.1855C50.8154 17.1855 50.446 17.3581 50.1855 17.7031C49.9284 18.0449 49.7998 18.569 49.7998 19.2754C49.7998 19.959 49.9284 20.4782 50.1855 20.833C50.446 21.1846 50.8154 21.3604 51.2939 21.3604C51.766 21.3604 52.1305 21.1878 52.3877 20.8428C52.6481 20.4945 52.7783 19.972 52.7783 19.2754ZM58.9746 22H58.0664V17.9326L55.498 22H54.668V16.5459H55.5762V20.5498L58.1152 16.5459H58.9746V22ZM63.916 20.4912C63.916 20.7972 63.8493 21.056 63.7158 21.2676C63.5824 21.4792 63.4115 21.6468 63.2031 21.7705C63.0046 21.891 62.7783 21.9805 62.5244 22.0391C62.2705 22.0977 62.0166 22.127 61.7627 22.127C61.4046 22.127 61.0661 22.0911 60.7471 22.0195C60.4281 21.9512 60.1107 21.8405 59.7949 21.6875V20.6719H59.8535C60.0749 20.877 60.3516 21.0397 60.6836 21.1602C61.0189 21.2773 61.3525 21.3359 61.6846 21.3359C61.8278 21.3359 61.9808 21.3213 62.1436 21.292C62.3096 21.2594 62.4495 21.2106 62.5635 21.1455C62.7132 21.0544 62.819 20.9567 62.8809 20.8525C62.946 20.7484 62.9785 20.6051 62.9785 20.4229C62.9785 20.2275 62.9411 20.0713 62.8662 19.9541C62.7946 19.8337 62.6953 19.7441 62.5684 19.6855C62.4414 19.627 62.2982 19.5911 62.1387 19.5781C61.9824 19.5618 61.8164 19.5537 61.6406 19.5537H60.9961V18.7627H61.4893C61.613 18.7627 61.7676 18.7594 61.9531 18.7529C62.1387 18.7432 62.2868 18.7171 62.3975 18.6748C62.5374 18.6227 62.6497 18.5495 62.7344 18.4551C62.819 18.3574 62.8613 18.1947 62.8613 17.9668C62.8613 17.8073 62.8255 17.6787 62.7539 17.5811C62.6823 17.4834 62.5928 17.4069 62.4854 17.3516C62.3747 17.293 62.2542 17.2539 62.124 17.2344C61.9938 17.2116 61.8685 17.2002 61.748 17.2002C61.4388 17.2002 61.141 17.2441 60.8545 17.332C60.5713 17.4167 60.3271 17.5436 60.1221 17.7129H60.0635V16.7217C60.2979 16.6403 60.5566 16.5687 60.8398 16.5068C61.1263 16.445 61.4128 16.4141 61.6992 16.4141C61.9303 16.4141 62.1647 16.4385 62.4023 16.4873C62.6432 16.5329 62.8711 16.6126 63.0859 16.7266C63.2878 16.8372 63.457 16.9902 63.5938 17.1855C63.7305 17.3776 63.7988 17.6136 63.7988 17.8936C63.7988 18.1898 63.7142 18.4502 63.5449 18.6748C63.3789 18.8962 63.1576 19.0426 62.8809 19.1143V19.1484C63.1836 19.2526 63.431 19.4121 63.623 19.627C63.8184 19.8418 63.916 20.1299 63.916 20.4912ZM69.1602 20.3496C69.1602 20.6133 69.1097 20.8477 69.0088 21.0527C68.9079 21.2546 68.7695 21.4238 68.5938 21.5605C68.3724 21.7331 68.1396 21.8503 67.8955 21.9121C67.6546 21.9707 67.3649 22 67.0264 22H64.8828V16.5459H66.8848C67.2852 16.5459 67.5781 16.5589 67.7637 16.585C67.9492 16.6077 68.1331 16.6696 68.3154 16.7705C68.5075 16.8747 68.6491 17.013 68.7402 17.1855C68.8314 17.3581 68.877 17.5632 68.877 17.8008C68.877 18.0612 68.8053 18.2956 68.6621 18.5039C68.5189 18.709 68.3285 18.8685 68.0908 18.9824L68.1152 19.0166C68.4115 19.0915 68.6589 19.2428 68.8574 19.4707C69.0592 19.6986 69.1602 19.9915 69.1602 20.3496ZM67.9346 17.9424C67.9346 17.8187 67.9134 17.7113 67.8711 17.6201C67.832 17.529 67.762 17.4574 67.6611 17.4053C67.5439 17.3434 67.4121 17.3076 67.2656 17.2979C67.1224 17.2848 66.9222 17.2783 66.665 17.2783H65.791V18.7725H66.8457C67.0703 18.7725 67.2298 18.7627 67.3242 18.7432C67.4186 18.7204 67.5228 18.6748 67.6367 18.6064C67.7441 18.5413 67.8206 18.4535 67.8662 18.3428C67.9118 18.2321 67.9346 18.0986 67.9346 17.9424ZM68.2129 20.3545C68.2129 20.1689 68.1852 20.0208 68.1299 19.9102C68.0778 19.7962 67.9606 19.6953 67.7783 19.6074C67.6644 19.5521 67.5423 19.5179 67.4121 19.5049C67.2819 19.4919 67.1012 19.4854 66.8701 19.4854H65.791V21.2676H66.5869C66.9157 21.2676 67.1712 21.2546 67.3535 21.2285C67.5358 21.2025 67.6921 21.1504 67.8223 21.0723C67.959 20.9876 68.0583 20.89 68.1201 20.7793C68.182 20.6686 68.2129 20.527 68.2129 20.3545ZM74.6143 19.2754C74.6143 20.1934 74.3929 20.903 73.9502 21.4043C73.5075 21.9023 72.9183 22.1514 72.1826 22.1514C71.4242 22.1514 70.8268 21.8942 70.3906 21.3799C69.9577 20.8623 69.7412 20.1608 69.7412 19.2754C69.7412 18.3639 69.9642 17.6559 70.4102 17.1514C70.8594 16.6468 71.4502 16.3945 72.1826 16.3945C72.9183 16.3945 73.5075 16.6468 73.9502 17.1514C74.3929 17.6527 74.6143 18.3607 74.6143 19.2754ZM73.667 19.2754C73.667 18.569 73.5384 18.0449 73.2812 17.7031C73.0241 17.3581 72.6579 17.1855 72.1826 17.1855C71.7041 17.1855 71.3346 17.3581 71.0742 17.7031C70.8171 18.0449 70.6885 18.569 70.6885 19.2754C70.6885 19.959 70.8171 20.4782 71.0742 20.833C71.3346 21.1846 71.7041 21.3604 72.1826 21.3604C72.6546 21.3604 73.0192 21.1878 73.2764 20.8428C73.5368 20.4945 73.667 19.972 73.667 19.2754ZM80.2344 23.3086H79.3799V21.9854H75.7861V23.3086H74.9316V21.2188H75.293C75.6022 20.7109 75.8545 20.0485 76.0498 19.2314C76.2484 18.4111 76.3477 17.516 76.3477 16.5459H79.6924V21.2188H80.2344V23.3086ZM78.7744 21.2188V17.3174H77.2119C77.1696 18.1312 77.0573 18.875 76.875 19.5488C76.696 20.2194 76.4697 20.776 76.1963 21.2188H78.7744ZM83.3105 22.1221C82.9362 22.1221 82.5928 22.0651 82.2803 21.9512C81.9678 21.834 81.6992 21.6582 81.4746 21.4238C81.25 21.1895 81.0758 20.8949 80.9521 20.54C80.8285 20.182 80.7666 19.762 80.7666 19.2803C80.7666 18.8018 80.8301 18.3883 80.957 18.04C81.0872 17.6917 81.2598 17.3988 81.4746 17.1611C81.6895 16.9235 81.9564 16.7412 82.2754 16.6143C82.5977 16.484 82.9427 16.4189 83.3105 16.4189C83.61 16.4189 83.8981 16.4613 84.1748 16.5459C84.4548 16.6305 84.7038 16.7282 84.9219 16.8389V17.8691H84.8682C84.8031 17.8138 84.7184 17.7503 84.6143 17.6787C84.5133 17.6071 84.3896 17.5339 84.2432 17.459C84.1162 17.3939 83.9665 17.3369 83.7939 17.2881C83.6214 17.2393 83.4554 17.2148 83.2959 17.2148C82.8206 17.2148 82.4382 17.3955 82.1484 17.7568C81.862 18.1149 81.7188 18.6227 81.7188 19.2803C81.7188 19.9248 81.8571 20.4277 82.1338 20.7891C82.4137 21.1471 82.8011 21.3262 83.2959 21.3262C83.5954 21.3262 83.8802 21.2643 84.1504 21.1406C84.4206 21.0169 84.6598 20.8574 84.8682 20.6621H84.9219V21.6924C84.8307 21.7347 84.7168 21.7868 84.5801 21.8486C84.4434 21.9072 84.3197 21.9512 84.209 21.9805C84.0527 22.026 83.9128 22.0602 83.7891 22.083C83.6654 22.109 83.5059 22.1221 83.3105 22.1221ZM89.7461 17.3516H87.8906V22H86.9727V17.3516H85.1172V16.5459H89.7461V17.3516ZM94.707 20.3496C94.707 20.6133 94.6566 20.8477 94.5557 21.0527C94.4548 21.2546 94.3164 21.4238 94.1406 21.5605C93.9193 21.7331 93.6865 21.8503 93.4424 21.9121C93.2015 21.9707 92.9118 22 92.5732 22H90.4297V16.5459H92.4316C92.832 16.5459 93.125 16.5589 93.3105 16.585C93.4961 16.6077 93.68 16.6696 93.8623 16.7705C94.0544 16.8747 94.196 17.013 94.2871 17.1855C94.3783 17.3581 94.4238 17.5632 94.4238 17.8008C94.4238 18.0612 94.3522 18.2956 94.209 18.5039C94.0658 18.709 93.8753 18.8685 93.6377 18.9824L93.6621 19.0166C93.9583 19.0915 94.2057 19.2428 94.4043 19.4707C94.6061 19.6986 94.707 19.9915 94.707 20.3496ZM93.4814 17.9424C93.4814 17.8187 93.4603 17.7113 93.418 17.6201C93.3789 17.529 93.3089 17.4574 93.208 17.4053C93.0908 17.3434 92.959 17.3076 92.8125 17.2979C92.6693 17.2848 92.4691 17.2783 92.2119 17.2783H91.3379V18.7725H92.3926C92.6172 18.7725 92.7767 18.7627 92.8711 18.7432C92.9655 18.7204 93.0697 18.6748 93.1836 18.6064C93.291 18.5413 93.3675 18.4535 93.4131 18.3428C93.4587 18.2321 93.4814 18.0986 93.4814 17.9424ZM93.7598 20.3545C93.7598 20.1689 93.7321 20.0208 93.6768 19.9102C93.6247 19.7962 93.5075 19.6953 93.3252 19.6074C93.2113 19.5521 93.0892 19.5179 92.959 19.5049C92.8288 19.4919 92.6481 19.4854 92.417 19.4854H91.3379V21.2676H92.1338C92.4626 21.2676 92.7181 21.2546 92.9004 21.2285C93.0827 21.2025 93.2389 21.1504 93.3691 21.0723C93.5059 20.9876 93.6051 20.89 93.667 20.7793C93.7288 20.6686 93.7598 20.527 93.7598 20.3545ZM98.7207 20.6572V19.1436C98.5026 19.1631 98.2259 19.1908 97.8906 19.2266C97.5586 19.2591 97.29 19.3063 97.085 19.3682C96.8408 19.443 96.639 19.5586 96.4795 19.7148C96.32 19.8678 96.2402 20.0827 96.2402 20.3594C96.2402 20.6719 96.3281 20.9079 96.5039 21.0674C96.6797 21.2269 96.9368 21.3066 97.2754 21.3066C97.5651 21.3066 97.8271 21.2448 98.0615 21.1211C98.2959 20.9941 98.5156 20.8395 98.7207 20.6572ZM98.7207 21.4189C98.6458 21.4743 98.5449 21.5524 98.418 21.6533C98.2943 21.751 98.1738 21.8291 98.0566 21.8877C97.8939 21.9723 97.736 22.0374 97.583 22.083C97.4333 22.1286 97.2217 22.1514 96.9482 22.1514C96.7236 22.1514 96.5104 22.109 96.3086 22.0244C96.1068 21.9398 95.9294 21.821 95.7764 21.668C95.6299 21.5182 95.5127 21.3343 95.4248 21.1162C95.3369 20.8949 95.293 20.6621 95.293 20.418C95.293 20.0404 95.3727 19.7197 95.5322 19.4561C95.6917 19.1891 95.944 18.9775 96.2891 18.8213C96.5951 18.6813 96.9564 18.5853 97.373 18.5332C97.7897 18.4779 98.2389 18.4372 98.7207 18.4111V18.2354C98.7207 18.0205 98.6882 17.848 98.623 17.7178C98.5579 17.5843 98.4668 17.4818 98.3496 17.4102C98.2324 17.3353 98.0892 17.2865 97.9199 17.2637C97.7507 17.2376 97.5765 17.2246 97.3975 17.2246C97.1859 17.2246 96.9368 17.2572 96.6504 17.3223C96.3639 17.3841 96.0775 17.4753 95.791 17.5957H95.7373V16.6631C95.9066 16.6143 96.1491 16.5605 96.4648 16.502C96.7806 16.4434 97.0931 16.4141 97.4023 16.4141C97.7767 16.4141 98.0924 16.4434 98.3496 16.502C98.6068 16.5605 98.8379 16.6663 99.043 16.8193C99.2415 16.9691 99.3896 17.1628 99.4873 17.4004C99.585 17.638 99.6338 17.9277 99.6338 18.2695V22H98.7207V21.4189Z" fill="#8A98B3"/>
<rect x="5" y="30" width="314" height="23" rx="2" fill="#0B1325" fill-opacity="0.25"/>
<rect x="5.5" y="30.5" width="313" height="22" rx="1.5" stroke="#5C6585" stroke-opacity="0.25"/>
<path d="M23.0156 45H22.0488V38.5889H18.7041V45H17.7373V37.7295H23.0156V45ZM28.9971 42.1289C28.9971 43.0371 28.779 43.7614 28.3428 44.3018C27.9098 44.8389 27.3613 45.1074 26.6973 45.1074C26.4271 45.1074 26.1878 45.0765 25.9795 45.0146C25.7712 44.9528 25.5579 44.8568 25.3398 44.7266V47.0117H24.4219V39.5459H25.3398V40.1172C25.5677 39.9121 25.82 39.7412 26.0967 39.6045C26.3766 39.4645 26.681 39.3945 27.0098 39.3945C27.6348 39.3945 28.1214 39.6419 28.4697 40.1367C28.8213 40.6315 28.9971 41.2956 28.9971 42.1289ZM28.0498 42.2314C28.0498 41.6097 27.9505 41.1279 27.752 40.7861C27.5534 40.4411 27.2311 40.2686 26.7852 40.2686C26.5247 40.2686 26.2725 40.3271 26.0283 40.4443C25.7874 40.5583 25.5579 40.7064 25.3398 40.8887V43.9795C25.5807 44.0967 25.7858 44.1764 25.9551 44.2188C26.1276 44.2611 26.3245 44.2822 26.5459 44.2822C27.0212 44.2822 27.3906 44.1081 27.6543 43.7598C27.918 43.4115 28.0498 42.902 28.0498 42.2314ZM34.4365 42.2754C34.4365 43.1934 34.2152 43.903 33.7725 44.4043C33.3298 44.9023 32.7406 45.1514 32.0049 45.1514C31.2464 45.1514 30.6491 44.8942 30.2129 44.3799C29.7799 43.8623 29.5635 43.1608 29.5635 42.2754C29.5635 41.3639 29.7865 40.6559 30.2324 40.1514C30.6816 39.6468 31.2725 39.3945 32.0049 39.3945C32.7406 39.3945 33.3298 39.6468 33.7725 40.1514C34.2152 40.6527 34.4365 41.3607 34.4365 42.2754ZM33.4893 42.2754C33.4893 41.569 33.3607 41.0449 33.1035 40.7031C32.8464 40.3581 32.4801 40.1855 32.0049 40.1855C31.5264 40.1855 31.1569 40.3581 30.8965 40.7031C30.6393 41.0449 30.5107 41.569 30.5107 42.2754C30.5107 42.959 30.6393 43.4782 30.8965 43.833C31.1569 44.1846 31.5264 44.3604 32.0049 44.3604C32.4769 44.3604 32.8415 44.1878 33.0986 43.8428C33.359 43.4945 33.4893 42.972 33.4893 42.2754ZM39.6855 45H38.7773V40.9326L36.209 45H35.3789V39.5459H36.2871V43.5498L38.8262 39.5459H39.6855V45ZM44.627 43.4912C44.627 43.7972 44.5602 44.056 44.4268 44.2676C44.2933 44.4792 44.1224 44.6468 43.9141 44.7705C43.7155 44.891 43.4893 44.9805 43.2354 45.0391C42.9814 45.0977 42.7275 45.127 42.4736 45.127C42.1156 45.127 41.777 45.0911 41.458 45.0195C41.139 44.9512 40.8216 44.8405 40.5059 44.6875V43.6719H40.5645C40.7858 43.877 41.0625 44.0397 41.3945 44.1602C41.7298 44.2773 42.0635 44.3359 42.3955 44.3359C42.5387 44.3359 42.6917 44.3213 42.8545 44.292C43.0205 44.2594 43.1605 44.2106 43.2744 44.1455C43.4242 44.0544 43.5299 43.9567 43.5918 43.8525C43.6569 43.7484 43.6895 43.6051 43.6895 43.4229C43.6895 43.2275 43.652 43.0713 43.5771 42.9541C43.5055 42.8337 43.4062 42.7441 43.2793 42.6855C43.1523 42.627 43.0091 42.5911 42.8496 42.5781C42.6934 42.5618 42.5273 42.5537 42.3516 42.5537H41.707V41.7627H42.2002C42.3239 41.7627 42.4785 41.7594 42.6641 41.7529C42.8496 41.7432 42.9977 41.7171 43.1084 41.6748C43.2484 41.6227 43.3607 41.5495 43.4453 41.4551C43.5299 41.3574 43.5723 41.1947 43.5723 40.9668C43.5723 40.8073 43.5365 40.6787 43.4648 40.5811C43.3932 40.4834 43.3037 40.4069 43.1963 40.3516C43.0856 40.293 42.9652 40.2539 42.835 40.2344C42.7048 40.2116 42.5794 40.2002 42.459 40.2002C42.1497 40.2002 41.8519 40.2441 41.5654 40.332C41.2822 40.4167 41.0381 40.5436 40.833 40.7129H40.7744V39.7217C41.0088 39.6403 41.2676 39.5687 41.5508 39.5068C41.8372 39.445 42.1237 39.4141 42.4102 39.4141C42.6413 39.4141 42.8757 39.4385 43.1133 39.4873C43.3542 39.5329 43.582 39.6126 43.7969 39.7266C43.9987 39.8372 44.168 39.9902 44.3047 40.1855C44.4414 40.3776 44.5098 40.6136 44.5098 40.8936C44.5098 41.1898 44.4251 41.4502 44.2559 41.6748C44.0898 41.8962 43.8685 42.0426 43.5918 42.1143V42.1484C43.8945 42.2526 44.1419 42.4121 44.334 42.627C44.5293 42.8418 44.627 43.1299 44.627 43.4912ZM49.8711 43.3496C49.8711 43.6133 49.8206 43.8477 49.7197 44.0527C49.6188 44.2546 49.4805 44.4238 49.3047 44.5605C49.0833 44.7331 48.8506 44.8503 48.6064 44.9121C48.3656 44.9707 48.0758 45 47.7373 45H45.5938V39.5459H47.5957C47.9961 39.5459 48.2891 39.5589 48.4746 39.585C48.6602 39.6077 48.8441 39.6696 49.0264 39.7705C49.2184 39.8747 49.36 40.013 49.4512 40.1855C49.5423 40.3581 49.5879 40.5632 49.5879 40.8008C49.5879 41.0612 49.5163 41.2956 49.373 41.5039C49.2298 41.709 49.0394 41.8685 48.8018 41.9824L48.8262 42.0166C49.1224 42.0915 49.3698 42.2428 49.5684 42.4707C49.7702 42.6986 49.8711 42.9915 49.8711 43.3496ZM48.6455 40.9424C48.6455 40.8187 48.6243 40.7113 48.582 40.6201C48.543 40.529 48.473 40.4574 48.3721 40.4053C48.2549 40.3434 48.123 40.3076 47.9766 40.2979C47.8333 40.2848 47.6331 40.2783 47.376 40.2783H46.502V41.7725H47.5566C47.7812 41.7725 47.9408 41.7627 48.0352 41.7432C48.1296 41.7204 48.2337 41.6748 48.3477 41.6064C48.4551 41.5413 48.5316 41.4535 48.5771 41.3428C48.6227 41.2321 48.6455 41.0986 48.6455 40.9424ZM48.9238 43.3545C48.9238 43.1689 48.8962 43.0208 48.8408 42.9102C48.7887 42.7962 48.6715 42.6953 48.4893 42.6074C48.3753 42.5521 48.2533 42.5179 48.123 42.5049C47.9928 42.4919 47.8122 42.4854 47.5811 42.4854H46.502V44.2676H47.2979C47.6266 44.2676 47.8822 44.2546 48.0645 44.2285C48.2467 44.2025 48.403 44.1504 48.5332 44.0723C48.6699 43.9876 48.7692 43.89 48.8311 43.7793C48.8929 43.6686 48.9238 43.527 48.9238 43.3545ZM55.3252 42.2754C55.3252 43.1934 55.1038 43.903 54.6611 44.4043C54.2184 44.9023 53.6292 45.1514 52.8936 45.1514C52.1351 45.1514 51.5378 44.8942 51.1016 44.3799C50.6686 43.8623 50.4521 43.1608 50.4521 42.2754C50.4521 41.3639 50.6751 40.6559 51.1211 40.1514C51.5703 39.6468 52.1611 39.3945 52.8936 39.3945C53.6292 39.3945 54.2184 39.6468 54.6611 40.1514C55.1038 40.6527 55.3252 41.3607 55.3252 42.2754ZM54.3779 42.2754C54.3779 41.569 54.2493 41.0449 53.9922 40.7031C53.735 40.3581 53.3688 40.1855 52.8936 40.1855C52.415 40.1855 52.0456 40.3581 51.7852 40.7031C51.528 41.0449 51.3994 41.569 51.3994 42.2754C51.3994 42.959 51.528 43.4782 51.7852 43.833C52.0456 44.1846 52.415 44.3604 52.8936 44.3604C53.3656 44.3604 53.7301 44.1878 53.9873 43.8428C54.2477 43.4945 54.3779 42.972 54.3779 42.2754ZM60.9453 46.3086H60.0908V44.9854H56.4971V46.3086H55.6426V44.2188H56.0039C56.3132 43.7109 56.5654 43.0485 56.7607 42.2314C56.9593 41.4111 57.0586 40.516 57.0586 39.5459H60.4033V44.2188H60.9453V46.3086ZM59.4854 44.2188V40.3174H57.9229C57.8805 41.1312 57.7682 41.875 57.5859 42.5488C57.4069 43.2194 57.1807 43.776 56.9072 44.2188H59.4854ZM64.0215 45.1221C63.6471 45.1221 63.3037 45.0651 62.9912 44.9512C62.6787 44.834 62.4102 44.6582 62.1855 44.4238C61.9609 44.1895 61.7868 43.8949 61.6631 43.54C61.5394 43.182 61.4775 42.762 61.4775 42.2803C61.4775 41.8018 61.541 41.3883 61.668 41.04C61.7982 40.6917 61.9707 40.3988 62.1855 40.1611C62.4004 39.9235 62.6673 39.7412 62.9863 39.6143C63.3086 39.484 63.6536 39.4189 64.0215 39.4189C64.321 39.4189 64.609 39.4613 64.8857 39.5459C65.1657 39.6305 65.4147 39.7282 65.6328 39.8389V40.8691H65.5791C65.514 40.8138 65.4294 40.7503 65.3252 40.6787C65.2243 40.6071 65.1006 40.5339 64.9541 40.459C64.8271 40.3939 64.6774 40.3369 64.5049 40.2881C64.3324 40.2393 64.1663 40.2148 64.0068 40.2148C63.5316 40.2148 63.1491 40.3955 62.8594 40.7568C62.5729 41.1149 62.4297 41.6227 62.4297 42.2803C62.4297 42.9248 62.568 43.4277 62.8447 43.7891C63.1247 44.1471 63.512 44.3262 64.0068 44.3262C64.3063 44.3262 64.5911 44.2643 64.8613 44.1406C65.1315 44.0169 65.3708 43.8574 65.5791 43.6621H65.6328V44.6924C65.5417 44.7347 65.4277 44.7868 65.291 44.8486C65.1543 44.9072 65.0306 44.9512 64.9199 44.9805C64.7637 45.026 64.6237 45.0602 64.5 45.083C64.3763 45.109 64.2168 45.1221 64.0215 45.1221ZM70.457 40.3516H68.6016V45H67.6836V40.3516H65.8281V39.5459H70.457V40.3516ZM75.418 43.3496C75.418 43.6133 75.3675 43.8477 75.2666 44.0527C75.1657 44.2546 75.0273 44.4238 74.8516 44.5605C74.6302 44.7331 74.3975 44.8503 74.1533 44.9121C73.9124 44.9707 73.6227 45 73.2842 45H71.1406V39.5459H73.1426C73.543 39.5459 73.8359 39.5589 74.0215 39.585C74.207 39.6077 74.391 39.6696 74.5732 39.7705C74.7653 39.8747 74.9069 40.013 74.998 40.1855C75.0892 40.3581 75.1348 40.5632 75.1348 40.8008C75.1348 41.0612 75.0632 41.2956 74.9199 41.5039C74.7767 41.709 74.5863 41.8685 74.3486 41.9824L74.373 42.0166C74.6693 42.0915 74.9167 42.2428 75.1152 42.4707C75.3171 42.6986 75.418 42.9915 75.418 43.3496ZM74.1924 40.9424C74.1924 40.8187 74.1712 40.7113 74.1289 40.6201C74.0898 40.529 74.0199 40.4574 73.9189 40.4053C73.8018 40.3434 73.6699 40.3076 73.5234 40.2979C73.3802 40.2848 73.18 40.2783 72.9229 40.2783H72.0488V41.7725H73.1035C73.3281 41.7725 73.4876 41.7627 73.582 41.7432C73.6764 41.7204 73.7806 41.6748 73.8945 41.6064C74.002 41.5413 74.0785 41.4535 74.124 41.3428C74.1696 41.2321 74.1924 41.0986 74.1924 40.9424ZM74.4707 43.3545C74.4707 43.1689 74.443 43.0208 74.3877 42.9102C74.3356 42.7962 74.2184 42.6953 74.0361 42.6074C73.9222 42.5521 73.8001 42.5179 73.6699 42.5049C73.5397 42.4919 73.359 42.4854 73.1279 42.4854H72.0488V44.2676H72.8447C73.1735 44.2676 73.429 44.2546 73.6113 44.2285C73.7936 44.2025 73.9499 44.1504 74.0801 44.0723C74.2168 43.9876 74.3161 43.89 74.3779 43.7793C74.4398 43.6686 74.4707 43.527 74.4707 43.3545ZM80.8721 42.2754C80.8721 43.1934 80.6507 43.903 80.208 44.4043C79.7653 44.9023 79.1761 45.1514 78.4404 45.1514C77.682 45.1514 77.0846 44.8942 76.6484 44.3799C76.2155 43.8623 75.999 43.1608 75.999 42.2754C75.999 41.3639 76.222 40.6559 76.668 40.1514C77.1172 39.6468 77.708 39.3945 78.4404 39.3945C79.1761 39.3945 79.7653 39.6468 80.208 40.1514C80.6507 40.6527 80.8721 41.3607 80.8721 42.2754ZM79.9248 42.2754C79.9248 41.569 79.7962 41.0449 79.5391 40.7031C79.2819 40.3581 78.9157 40.1855 78.4404 40.1855C77.9619 40.1855 77.5924 40.3581 77.332 40.7031C77.0749 41.0449 76.9463 41.569 76.9463 42.2754C76.9463 42.959 77.0749 43.4782 77.332 43.833C77.5924 44.1846 77.9619 44.3604 78.4404 44.3604C78.9124 44.3604 79.277 44.1878 79.5342 43.8428C79.7946 43.4945 79.9248 42.972 79.9248 42.2754ZM88.9238 45H85.3789V44.2578H86.6973V39.3848H85.3789V38.7207C85.877 38.7207 86.2432 38.6507 86.4775 38.5107C86.7152 38.3675 86.8486 38.099 86.8779 37.7051H87.6348V44.2578H88.9238V45Z" fill="#D7E2F2"/>
<path fill-rule="evenodd" clip-rule="evenodd" d="M306.147 39.8872C306.107 39.8449 306.058 39.8112 306.005 39.7881C305.951 39.7651 305.893 39.7532 305.835 39.7532C305.776 39.7532 305.718 39.7651 305.665 39.7881C305.611 39.8112 305.562 39.8449 305.522 39.8872L302.497 42.9122L299.472 39.8872C299.432 39.8449 299.383 39.8112 299.33 39.7881C299.276 39.7651 299.218 39.7532 299.16 39.7532C299.101 39.7532 299.043 39.7651 298.99 39.7881C298.936 39.8112 298.887 39.8449 298.847 39.8872C298.805 39.9275 298.771 39.976 298.748 40.0297C298.725 40.0834 298.713 40.1413 298.713 40.1997C298.713 40.2582 298.725 40.316 298.748 40.3698C298.771 40.4235 298.805 40.472 298.847 40.5122L302.222 43.8122C302.261 43.8563 302.31 43.8915 302.363 43.9156C302.417 43.9398 302.476 43.9522 302.535 43.9522C302.594 43.9522 302.652 43.9398 302.706 43.9156C302.76 43.8915 302.808 43.8563 302.847 43.8122L306.172 40.4872C306.211 40.4466 306.241 40.3986 306.26 40.3462C306.28 40.2937 306.289 40.2379 306.286 40.182C306.284 40.126 306.271 40.0711 306.247 40.0205C306.223 39.9699 306.189 39.9246 306.147 39.8872Z" fill="#616580"/>
<path d="M10.6689 66.7686C10.6689 67.1299 10.6006 67.4489 10.4639 67.7256C10.3271 68.0023 10.1432 68.2301 9.91211 68.4092C9.63867 68.624 9.3457 68.777 9.0332 68.8682C8.7207 68.9561 8.31706 69 7.82227 69H5.7373V61.7295H7.66602C8.18359 61.7295 8.57096 61.7474 8.82812 61.7832C9.08854 61.8158 9.33757 61.8955 9.5752 62.0225C9.83561 62.1624 10.026 62.3464 10.1465 62.5742C10.2669 62.7988 10.3271 63.0641 10.3271 63.3701C10.3271 63.7119 10.236 64.0179 10.0537 64.2881C9.87467 64.5583 9.62565 64.7699 9.30664 64.9229V64.9619C9.73958 65.0791 10.0749 65.2939 10.3125 65.6064C10.5501 65.9157 10.6689 66.3031 10.6689 66.7686ZM9.32129 63.5068C9.32129 63.3311 9.29199 63.1797 9.2334 63.0527C9.1748 62.9225 9.0804 62.82 8.9502 62.7451C8.79395 62.6572 8.61979 62.6035 8.42773 62.584C8.23568 62.5645 7.97038 62.5547 7.63184 62.5547H6.7041V64.6836H7.80273C8.10547 64.6836 8.32845 64.6689 8.47168 64.6396C8.61491 64.6071 8.76302 64.542 8.91602 64.4443C9.0625 64.3499 9.16667 64.2262 9.22852 64.0732C9.29036 63.9202 9.32129 63.7314 9.32129 63.5068ZM9.66309 66.8076C9.66309 66.5342 9.62402 66.3096 9.5459 66.1338C9.46777 65.9548 9.3099 65.8034 9.07227 65.6797C8.91927 65.5983 8.75163 65.5462 8.56934 65.5234C8.3903 65.5007 8.13477 65.4893 7.80273 65.4893H6.7041V68.1748H7.49023C7.91341 68.1748 8.24707 68.1553 8.49121 68.1162C8.73535 68.0771 8.9502 67.9941 9.13574 67.8672C9.31803 67.7402 9.4515 67.597 9.53613 67.4375C9.62077 67.2747 9.66309 67.0648 9.66309 66.8076ZM15.6104 67.3105C15.6104 67.5742 15.5566 67.8135 15.4492 68.0283C15.3451 68.2432 15.2018 68.4173 15.0195 68.5508C14.8047 68.7135 14.5752 68.8291 14.3311 68.8975C14.0869 68.9658 13.7728 69 13.3887 69H11.5625V63.5459H12.4805V65.6699H13.4131C13.8232 65.6699 14.1406 65.6911 14.3652 65.7334C14.5931 65.7757 14.8193 65.8799 15.0439 66.0459C15.2327 66.1859 15.3743 66.3649 15.4688 66.583C15.5632 66.8011 15.6104 67.0436 15.6104 67.3105ZM14.6631 67.3252C14.6631 67.1592 14.6338 67.0143 14.5752 66.8906C14.5199 66.7637 14.4271 66.6611 14.2969 66.583C14.1602 66.5016 14.0039 66.4528 13.8281 66.4365C13.6556 66.4202 13.4066 66.4121 13.0811 66.4121H12.4805V68.2676H13.0615C13.387 68.2676 13.6393 68.2546 13.8184 68.2285C13.9974 68.1992 14.152 68.1455 14.2822 68.0674C14.4157 67.9827 14.5117 67.8835 14.5703 67.7695C14.6322 67.6523 14.6631 67.5042 14.6631 67.3252ZM17.1631 69H16.2451V63.5459H17.1631V69ZM22.3633 64.3516C22.5749 64.5664 22.7393 64.8398 22.8564 65.1719C22.9736 65.5007 23.0322 65.8831 23.0322 66.3193C23.0322 66.7393 22.9655 67.1283 22.832 67.4863C22.6986 67.8411 22.5179 68.1406 22.29 68.3848C22.0557 68.6387 21.7952 68.8307 21.5088 68.9609C21.2256 69.0879 20.9163 69.1514 20.5811 69.1514C20.2393 69.1514 19.9251 69.0928 19.6387 68.9756C19.3555 68.8551 19.113 68.6712 18.9111 68.4238C18.6605 68.1146 18.4717 67.7272 18.3447 67.2617C18.221 66.7962 18.1592 66.2201 18.1592 65.5332C18.1592 65.2891 18.1689 65.0417 18.1885 64.791C18.2113 64.5371 18.2585 64.2344 18.3301 63.8828C18.3952 63.5703 18.4831 63.2806 18.5938 63.0137C18.7044 62.7435 18.8493 62.5156 19.0283 62.3301C19.2594 62.0892 19.5605 61.8971 19.9316 61.7539C20.306 61.6107 20.8008 61.5114 21.416 61.4561C21.6341 61.4365 21.8669 61.4186 22.1143 61.4023C22.3649 61.3828 22.5553 61.3682 22.6855 61.3584V62.2031C22.5163 62.2129 22.3356 62.2259 22.1436 62.2422C21.9515 62.2552 21.7318 62.2715 21.4844 62.291C21.1556 62.3171 20.8122 62.3757 20.4541 62.4668C20.096 62.5547 19.8258 62.693 19.6436 62.8818C19.5068 63.0218 19.3978 63.222 19.3164 63.4824C19.235 63.7428 19.1781 64.0326 19.1455 64.3516C19.3864 64.179 19.6436 64.0342 19.917 63.917C20.1937 63.7965 20.4915 63.7363 20.8105 63.7363C21.1068 63.7363 21.3883 63.7868 21.6553 63.8877C21.9222 63.9854 22.1582 64.14 22.3633 64.3516ZM22.0996 66.373C22.0996 65.7936 21.9694 65.3493 21.709 65.04C21.4486 64.7308 21.0775 64.5762 20.5957 64.5762C20.332 64.5762 20.0765 64.6201 19.8291 64.708C19.5817 64.7959 19.349 64.9131 19.1309 65.0596C19.1243 65.141 19.1178 65.2386 19.1113 65.3525C19.1048 65.4632 19.1016 65.5641 19.1016 65.6553C19.1016 66.2217 19.1471 66.6823 19.2383 67.0371C19.3294 67.3919 19.4564 67.6702 19.6191 67.8721C19.7656 68.0544 19.9202 68.1813 20.083 68.2529C20.2458 68.3213 20.4232 68.3555 20.6152 68.3555C21.084 68.3555 21.4486 68.1781 21.709 67.8232C21.9694 67.4684 22.0996 66.985 22.0996 66.373ZM28.4814 66.2754C28.4814 67.1934 28.2601 67.903 27.8174 68.4043C27.3747 68.9023 26.7855 69.1514 26.0498 69.1514C25.2913 69.1514 24.694 68.8942 24.2578 68.3799C23.8249 67.8623 23.6084 67.1608 23.6084 66.2754C23.6084 65.3639 23.8314 64.6559 24.2773 64.1514C24.7266 63.6468 25.3174 63.3945 26.0498 63.3945C26.7855 63.3945 27.3747 63.6468 27.8174 64.1514C28.2601 64.6527 28.4814 65.3607 28.4814 66.2754ZM27.5342 66.2754C27.5342 65.569 27.4056 65.0449 27.1484 64.7031C26.8913 64.3581 26.5251 64.1855 26.0498 64.1855C25.5713 64.1855 25.2018 64.3581 24.9414 64.7031C24.6842 65.0449 24.5557 65.569 24.5557 66.2754C24.5557 66.959 24.6842 67.4782 24.9414 67.833C25.2018 68.1846 25.5713 68.3604 26.0498 68.3604C26.5218 68.3604 26.8864 68.1878 27.1436 67.8428C27.404 67.4945 27.5342 66.972 27.5342 66.2754ZM33.999 66.1289C33.999 67.0371 33.7809 67.7614 33.3447 68.3018C32.9118 68.8389 32.3633 69.1074 31.6992 69.1074C31.429 69.1074 31.1898 69.0765 30.9814 69.0146C30.7731 68.9528 30.5599 68.8568 30.3418 68.7266V71.0117H29.4238V63.5459H30.3418V64.1172C30.5697 63.9121 30.8219 63.7412 31.0986 63.6045C31.3786 63.4645 31.6829 63.3945 32.0117 63.3945C32.6367 63.3945 33.1234 63.6419 33.4717 64.1367C33.8232 64.6315 33.999 65.2956 33.999 66.1289ZM33.0518 66.2314C33.0518 65.6097 32.9525 65.1279 32.7539 64.7861C32.5553 64.4411 32.2331 64.2686 31.7871 64.2686C31.5267 64.2686 31.2744 64.3271 31.0303 64.4443C30.7894 64.5583 30.5599 64.7064 30.3418 64.8887V67.9795C30.5827 68.0967 30.7878 68.1764 30.957 68.2188C31.1296 68.2611 31.3265 68.2822 31.5479 68.2822C32.0231 68.2822 32.3926 68.1081 32.6562 67.7598C32.9199 67.4115 33.0518 66.902 33.0518 66.2314ZM42.3633 63.5459L39.4287 71.0117H38.4473L39.4238 68.7363L37.4414 63.5459H38.4326L39.9219 67.584L41.4062 63.5459H42.3633ZM45.2246 69.1221C44.8503 69.1221 44.5068 69.0651 44.1943 68.9512C43.8818 68.834 43.6133 68.6582 43.3887 68.4238C43.1641 68.1895 42.9899 67.8949 42.8662 67.54C42.7425 67.182 42.6807 66.762 42.6807 66.2803C42.6807 65.8018 42.7441 65.3883 42.8711 65.04C43.0013 64.6917 43.1738 64.3988 43.3887 64.1611C43.6035 63.9235 43.8704 63.7412 44.1895 63.6143C44.5117 63.484 44.8568 63.4189 45.2246 63.4189C45.5241 63.4189 45.8122 63.4613 46.0889 63.5459C46.3688 63.6305 46.6178 63.7282 46.8359 63.8389V64.8691H46.7822C46.7171 64.8138 46.6325 64.7503 46.5283 64.6787C46.4274 64.6071 46.3037 64.5339 46.1572 64.459C46.0303 64.3939 45.8805 64.3369 45.708 64.2881C45.5355 64.2393 45.3695 64.2148 45.21 64.2148C44.7347 64.2148 44.3522 64.3955 44.0625 64.7568C43.776 65.1149 43.6328 65.6227 43.6328 66.2803C43.6328 66.9248 43.7712 67.4277 44.0479 67.7891C44.3278 68.1471 44.7152 68.3262 45.21 68.3262C45.5094 68.3262 45.7943 68.2643 46.0645 68.1406C46.3346 68.0169 46.5739 67.8574 46.7822 67.6621H46.8359V68.6924C46.7448 68.7347 46.6309 68.7868 46.4941 68.8486C46.3574 68.9072 46.2337 68.9512 46.123 68.9805C45.9668 69.026 45.8268 69.0602 45.7031 69.083C45.5794 69.109 45.4199 69.1221 45.2246 69.1221ZM51.6602 64.3516H49.8047V69H48.8867V64.3516H47.0312V63.5459H51.6602V64.3516ZM55.3906 67.6572V66.1436C55.1725 66.1631 54.8958 66.1908 54.5605 66.2266C54.2285 66.2591 53.96 66.3063 53.7549 66.3682C53.5107 66.443 53.3089 66.5586 53.1494 66.7148C52.9899 66.8678 52.9102 67.0827 52.9102 67.3594C52.9102 67.6719 52.998 67.9079 53.1738 68.0674C53.3496 68.2269 53.6068 68.3066 53.9453 68.3066C54.235 68.3066 54.4971 68.2448 54.7314 68.1211C54.9658 67.9941 55.1855 67.8395 55.3906 67.6572ZM55.3906 68.4189C55.3158 68.4743 55.2148 68.5524 55.0879 68.6533C54.9642 68.751 54.8438 68.8291 54.7266 68.8877C54.5638 68.9723 54.4059 69.0374 54.2529 69.083C54.1032 69.1286 53.8916 69.1514 53.6182 69.1514C53.3936 69.1514 53.1803 69.109 52.9785 69.0244C52.7767 68.9398 52.5993 68.821 52.4463 68.668C52.2998 68.5182 52.1826 68.3343 52.0947 68.1162C52.0068 67.8949 51.9629 67.6621 51.9629 67.418C51.9629 67.0404 52.0426 66.7197 52.2021 66.4561C52.3617 66.1891 52.6139 65.9775 52.959 65.8213C53.265 65.6813 53.6263 65.5853 54.043 65.5332C54.4596 65.4779 54.9089 65.4372 55.3906 65.4111V65.2354C55.3906 65.0205 55.3581 64.848 55.293 64.7178C55.2279 64.5843 55.1367 64.4818 55.0195 64.4102C54.9023 64.3353 54.7591 64.2865 54.5898 64.2637C54.4206 64.2376 54.2464 64.2246 54.0674 64.2246C53.8558 64.2246 53.6068 64.2572 53.3203 64.3223C53.0339 64.3841 52.7474 64.4753 52.4609 64.5957H52.4072V63.6631C52.5765 63.6143 52.819 63.5605 53.1348 63.502C53.4505 63.4434 53.763 63.4141 54.0723 63.4141C54.4466 63.4141 54.7624 63.4434 55.0195 63.502C55.2767 63.5605 55.5078 63.6663 55.7129 63.8193C55.9115 63.9691 56.0596 64.1628 56.1572 64.4004C56.2549 64.638 56.3037 64.9277 56.3037 65.2695V69H55.3906V68.4189ZM61.9043 69H60.9863V66.5439H58.5156V69H57.5977V63.5459H58.5156V65.7529H60.9863V63.5459H61.9043V69ZM67.7197 66.2754C67.7197 67.1934 67.4984 67.903 67.0557 68.4043C66.613 68.9023 66.0238 69.1514 65.2881 69.1514C64.5296 69.1514 63.9323 68.8942 63.4961 68.3799C63.0632 67.8623 62.8467 67.1608 62.8467 66.2754C62.8467 65.3639 63.0697 64.6559 63.5156 64.1514C63.9648 63.6468 64.5557 63.3945 65.2881 63.3945C66.0238 63.3945 66.613 63.6468 67.0557 64.1514C67.4984 64.6527 67.7197 65.3607 67.7197 66.2754ZM66.7725 66.2754C66.7725 65.569 66.6439 65.0449 66.3867 64.7031C66.1296 64.3581 65.7633 64.1855 65.2881 64.1855C64.8096 64.1855 64.4401 64.3581 64.1797 64.7031C63.9225 65.0449 63.7939 65.569 63.7939 66.2754C63.7939 66.959 63.9225 67.4782 64.1797 67.833C64.4401 68.1846 64.8096 68.3604 65.2881 68.3604C65.7601 68.3604 66.1247 68.1878 66.3818 67.8428C66.6423 67.4945 66.7725 66.972 66.7725 66.2754ZM72.9395 67.3496C72.9395 67.6133 72.889 67.8477 72.7881 68.0527C72.6872 68.2546 72.5488 68.4238 72.373 68.5605C72.1517 68.7331 71.9189 68.8503 71.6748 68.9121C71.4339 68.9707 71.1442 69 70.8057 69H68.6621V63.5459H70.6641C71.0645 63.5459 71.3574 63.5589 71.543 63.585C71.7285 63.6077 71.9124 63.6696 72.0947 63.7705C72.2868 63.8747 72.4284 64.013 72.5195 64.1855C72.6107 64.3581 72.6562 64.5632 72.6562 64.8008C72.6562 65.0612 72.5846 65.2956 72.4414 65.5039C72.2982 65.709 72.1077 65.8685 71.8701 65.9824L71.8945 66.0166C72.1908 66.0915 72.4382 66.2428 72.6367 66.4707C72.8385 66.6986 72.9395 66.9915 72.9395 67.3496ZM71.7139 64.9424C71.7139 64.8187 71.6927 64.7113 71.6504 64.6201C71.6113 64.529 71.5413 64.4574 71.4404 64.4053C71.3232 64.3434 71.1914 64.3076 71.0449 64.2979C70.9017 64.2848 70.7015 64.2783 70.4443 64.2783H69.5703V65.7725H70.625C70.8496 65.7725 71.0091 65.7627 71.1035 65.7432C71.1979 65.7204 71.3021 65.6748 71.416 65.6064C71.5234 65.5413 71.5999 65.4535 71.6455 65.3428C71.6911 65.2321 71.7139 65.0986 71.7139 64.9424ZM71.9922 67.3545C71.9922 67.1689 71.9645 67.0208 71.9092 66.9102C71.8571 66.7962 71.7399 66.6953 71.5576 66.6074C71.4437 66.5521 71.3216 66.5179 71.1914 66.5049C71.0612 66.4919 70.8805 66.4854 70.6494 66.4854H69.5703V68.2676H70.3662C70.695 68.2676 70.9505 68.2546 71.1328 68.2285C71.3151 68.2025 71.4714 68.1504 71.6016 68.0723C71.7383 67.9876 71.8376 67.89 71.8994 67.7793C71.9613 67.6686 71.9922 67.527 71.9922 67.3545ZM78.2959 69H77.1533L75.2832 66.4854H74.8242V69H73.9062V63.5459H74.8242V65.9189C75.0618 65.9157 75.2637 65.8669 75.4297 65.7725C75.599 65.6748 75.7422 65.4876 75.8594 65.2109C75.8952 65.1296 75.9342 65.0352 75.9766 64.9277C76.0221 64.8203 76.0579 64.7259 76.084 64.6445C76.2272 64.2441 76.4258 63.9609 76.6797 63.7949C76.9336 63.6289 77.264 63.5459 77.6709 63.5459H77.9199V64.3369H77.71C77.4528 64.3369 77.2591 64.3906 77.1289 64.498C77.002 64.6022 76.8945 64.7943 76.8066 65.0742C76.7155 65.3574 76.6081 65.5788 76.4844 65.7383C76.3607 65.8945 76.224 66.015 76.0742 66.0996L78.2959 69ZM83.1934 69H82.2852V64.9326L79.7168 69H78.8867V63.5459H79.7949V67.5498L82.334 63.5459H83.1934V69Z" fill="#8A98B3"/>
<rect x="5" y="77" width="314" height="22" rx="2" fill="#0B1325" fill-opacity="0.25"/>
<rect x="5.5" y="77.5" width="313" height="21" rx="1.5" stroke="#5C6585" stroke-opacity="0.25"/>
<path d="M16.9512 92L19.4023 84.7295H20.5938L23.0449 92H22.0244L21.3652 89.9688H18.5869L17.9277 92H16.9512ZM21.0967 89.1436L19.9736 85.7158L18.8555 89.1436H21.0967ZM28.665 89.7686C28.665 90.1299 28.5967 90.4489 28.46 90.7256C28.3232 91.0023 28.1393 91.2301 27.9082 91.4092C27.6348 91.624 27.3418 91.777 27.0293 91.8682C26.7168 91.9561 26.3132 92 25.8184 92H23.7334V84.7295H25.6621C26.1797 84.7295 26.5671 84.7474 26.8242 84.7832C27.0846 84.8158 27.3337 84.8955 27.5713 85.0225C27.8317 85.1624 28.0221 85.3464 28.1426 85.5742C28.263 85.7988 28.3232 86.0641 28.3232 86.3701C28.3232 86.7119 28.2321 87.0179 28.0498 87.2881C27.8708 87.5583 27.6217 87.7699 27.3027 87.9229V87.9619C27.7357 88.0791 28.071 88.2939 28.3086 88.6064C28.5462 88.9157 28.665 89.3031 28.665 89.7686ZM27.3174 86.5068C27.3174 86.3311 27.2881 86.1797 27.2295 86.0527C27.1709 85.9225 27.0765 85.82 26.9463 85.7451C26.79 85.6572 26.6159 85.6035 26.4238 85.584C26.2318 85.5645 25.9665 85.5547 25.6279 85.5547H24.7002V87.6836H25.7988C26.1016 87.6836 26.3245 87.6689 26.4678 87.6396C26.611 87.6071 26.7591 87.542 26.9121 87.4443C27.0586 87.3499 27.1628 87.2262 27.2246 87.0732C27.2865 86.9202 27.3174 86.7314 27.3174 86.5068ZM27.6592 89.8076C27.6592 89.5342 27.6201 89.3096 27.542 89.1338C27.4639 88.9548 27.306 88.8034 27.0684 88.6797C26.9154 88.5983 26.7477 88.5462 26.5654 88.5234C26.3864 88.5007 26.1309 88.4893 25.7988 88.4893H24.7002V91.1748H25.4863C25.9095 91.1748 26.2432 91.1553 26.4873 91.1162C26.7314 91.0771 26.9463 90.9941 27.1318 90.8672C27.3141 90.7402 27.4476 90.597 27.5322 90.4375C27.6169 90.2747 27.6592 90.0648 27.6592 89.8076ZM31.3311 92V85.5889H28.8896V84.7295H34.7393V85.5889H32.2979V92H31.3311ZM37.9277 89.2607H35.1738V88.377H37.9277V89.2607ZM43.0156 92H39.4707V91.2578H40.7891V86.3848H39.4707V85.7207C39.9688 85.7207 40.335 85.6507 40.5693 85.5107C40.807 85.3675 40.9404 85.099 40.9697 84.7051H41.7266V91.2578H43.0156V92ZM48.8799 88.3623C48.8799 89.6676 48.6895 90.6263 48.3086 91.2383C47.931 91.847 47.3467 92.1514 46.5557 92.1514C45.7549 92.1514 45.1673 91.8405 44.793 91.2188C44.4186 90.597 44.2314 89.6481 44.2314 88.3721C44.2314 87.0602 44.4202 86.1016 44.7979 85.4961C45.1787 84.8874 45.7646 84.583 46.5557 84.583C47.3564 84.583 47.944 84.8971 48.3184 85.5254C48.6927 86.1536 48.8799 87.0993 48.8799 88.3623ZM47.6299 90.5791C47.7243 90.3382 47.791 90.0339 47.8301 89.666C47.8691 89.2982 47.8887 88.8636 47.8887 88.3623C47.8887 87.8643 47.8691 87.4313 47.8301 87.0635C47.791 86.6956 47.7227 86.3896 47.625 86.1455C47.5273 85.8981 47.3923 85.7109 47.2197 85.584C47.0505 85.4538 46.8291 85.3887 46.5557 85.3887C46.2855 85.3887 46.0625 85.4538 45.8867 85.584C45.7142 85.7109 45.5775 85.9014 45.4766 86.1553C45.3789 86.4027 45.3122 86.7152 45.2764 87.0928C45.2406 87.4704 45.2227 87.8968 45.2227 88.3721C45.2227 88.8799 45.2373 89.3047 45.2666 89.6465C45.2992 89.9883 45.3675 90.2943 45.4717 90.5645C45.5661 90.8151 45.6995 91.0088 45.8721 91.1455C46.0479 91.279 46.2757 91.3457 46.5557 91.3457C46.8258 91.3457 47.0472 91.2822 47.2197 91.1553C47.3955 91.0251 47.5322 90.833 47.6299 90.5791Z" fill="#D7E2F2"/>
<path fill-rule="evenodd" clip-rule="evenodd" d="M306.147 86.8872C306.107 86.8449 306.058 86.8112 306.005 86.7881C305.951 86.7651 305.893 86.7532 305.835 86.7532C305.776 86.7532 305.718 86.7651 305.665 86.7881C305.611 86.8112 305.562 86.8449 305.522 86.8872L302.497 89.9122L299.472 86.8872C299.432 86.8449 299.383 86.8112 299.33 86.7881C299.276 86.7651 299.218 86.7532 299.16 86.7532C299.101 86.7532 299.043 86.7651 298.99 86.7881C298.936 86.8112 298.887 86.8449 298.847 86.8872C298.805 86.9275 298.771 86.976 298.748 87.0297C298.725 87.0834 298.713 87.1413 298.713 87.1997C298.713 87.2582 298.725 87.316 298.748 87.3698C298.771 87.4235 298.805 87.472 298.847 87.5122L302.222 90.8122C302.261 90.8563 302.31 90.8915 302.363 90.9156C302.417 90.9398 302.476 90.9522 302.535 90.9522C302.594 90.9522 302.652 90.9398 302.706 90.9156C302.76 90.8915 302.808 90.8563 302.847 90.8122L306.172 87.4872C306.211 87.4466 306.241 87.3986 306.26 87.3462C306.28 87.2937 306.289 87.2379 306.286 87.182C306.284 87.126 306.271 87.0711 306.247 87.0205C306.223 86.9699 306.189 86.9246 306.147 86.8872Z" fill="#616580"/>
</svg>
