<svg width="324" height="117" viewBox="0 0 324 117" fill="none" xmlns="http://www.w3.org/2000/svg">
<path d="M253.359 67.2805C253.359 65.025 251.531 63.1965 249.275 63.1965C247.02 63.1965 245.191 65.025 245.191 67.2805C245.191 69.5361 247.02 71.3645 249.275 71.3645C251.531 71.3645 253.359 69.5361 253.359 67.2805Z" fill="#0089FF"/>
<path d="M162.44 93.8334C181.398 93.8334 196.773 78.4617 196.773 59.5002C196.773 40.5387 181.398 25.167 162.44 25.167C143.481 25.167 128.106 40.5387 128.106 59.5002C128.106 78.4617 143.481 93.8334 162.44 93.8334Z" stroke="#0089FF" stroke-width="1.77941" stroke-miterlimit="10"/>
<path d="M157.828 76.3433H156.507V79.6519H155.854V76.3433H154.533V75.7698H157.828V76.3433ZM161.509 77.7126C161.509 78.366 161.351 78.871 161.036 79.2279C160.721 79.5823 160.301 79.7596 159.778 79.7596C159.238 79.7596 158.813 79.5766 158.502 79.2105C158.194 78.8421 158.04 78.3428 158.04 77.7126C158.04 77.0638 158.199 76.5599 158.516 76.2008C158.836 75.8417 159.257 75.6621 159.778 75.6621C160.301 75.6621 160.721 75.8417 161.036 76.2008C161.351 76.5576 161.509 77.0615 161.509 77.7126ZM160.834 77.7126C160.834 77.2098 160.743 76.8368 160.56 76.5935C160.377 76.3479 160.116 76.2251 159.778 76.2251C159.437 76.2251 159.174 76.3479 158.989 76.5935C158.806 76.8368 158.714 77.2098 158.714 77.7126C158.714 78.1991 158.806 78.5687 158.989 78.8212C159.174 79.0715 159.437 79.1966 159.778 79.1966C160.114 79.1966 160.373 79.0738 160.556 78.8282C160.742 78.5803 160.834 78.2084 160.834 77.7126ZM165.245 79.6519H164.591V77.9037H162.833V79.6519H162.179V75.7698H162.833V77.3407H164.591V75.7698H165.245V79.6519ZM169.255 79.6519H168.602V77.9037H166.843V79.6519H166.19V75.7698H166.843V77.3407H168.602V75.7698H169.255V79.6519Z" fill="#8C99B2"/>
<path d="M114.279 52.9013C117.627 26.8568 141.908 8.69177 168.503 12.3235C195.104 15.9546 213.953 40.0085 210.602 66.0523C207.251 92.0961 182.978 110.263 156.376 106.63C129.781 102.997 110.927 78.9444 114.279 52.9013ZM211.509 66.1704C212.511 58.0918 211.467 49.8902 208.467 42.3163C205.466 34.7424 200.598 28.0365 194.321 22.8116L194.795 19.3069C188.979 14.7907 182.291 11.5153 175.143 9.68606C168.002 7.8561 160.551 7.51139 153.266 8.67322L151.954 11.9294C145.232 13.2698 138.873 15.9944 133.277 19.9277C132.788 19.7313 131.838 19.3577 131.397 19.2128C122.998 25.3701 116.774 34.0104 113.616 43.897C113.881 44.1779 114.577 44.8343 114.983 45.2202C114.245 47.6915 113.71 50.2178 113.382 52.7749C112.534 59.4644 113.101 66.2555 115.046 72.715C116.991 79.1737 120.273 85.158 124.68 90.284C124.525 90.7763 124.229 91.7294 124.124 92.1682C130.756 99.5299 139.368 104.852 148.947 107.503L149.311 109.172C151.46 109.741 153.643 110.177 155.855 110.478C165.461 111.845 175.267 110.515 184.159 106.64C193.051 102.765 200.68 96.4983 206.18 88.5453L204.738 85.18C208.343 79.4003 210.65 72.9168 211.509 66.1704Z" fill="#272A38"/>
<path d="M162.44 100.7C185.196 100.7 203.64 82.2541 203.64 59.5001C203.64 36.7462 185.196 18.3003 162.44 18.3003C139.684 18.3003 121.24 36.7462 121.24 59.5001C121.24 82.2541 139.684 100.7 162.44 100.7Z" stroke="#F7931E" stroke-width="1.77941" stroke-miterlimit="10"/>
<path d="M162.44 100.7C185.196 100.7 203.64 82.2541 203.64 59.5001C203.64 36.7462 185.196 18.3003 162.44 18.3003" stroke="white" stroke-width="1.77941" stroke-miterlimit="10" stroke-linecap="round"/>
<path d="M162.44 100.7C139.684 100.7 121.24 82.2537 121.24 59.4998C121.24 45.715 128.01 33.5109 138.407 26.0317" stroke="white" stroke-width="1.77941" stroke-miterlimit="10" stroke-linecap="round"/>
<path d="M155.342 58.9226H151.095V57.5597H155.342V58.9226ZM162.285 56.5431C162.285 55.7801 162.214 55.1601 162.074 54.6832C161.933 54.2013 161.74 53.8298 161.494 53.5687C161.273 53.3278 161.05 53.1621 160.824 53.0718C160.598 52.9814 160.35 52.9362 160.078 52.9362C159.461 52.9362 158.969 53.1571 158.603 53.5989C158.236 54.0406 158.053 54.6807 158.053 55.519C158.053 55.9909 158.113 56.38 158.234 56.6862C158.354 56.9924 158.55 57.256 158.821 57.4768C159.012 57.6325 159.228 57.7379 159.468 57.7931C159.709 57.8433 159.968 57.8684 160.244 57.8684C160.565 57.8684 160.912 57.8132 161.283 57.7027C161.655 57.5873 161.979 57.4367 162.255 57.2509C162.26 57.1756 162.265 57.0778 162.27 56.9573C162.28 56.8318 162.285 56.6937 162.285 56.5431ZM156.524 55.5793C156.524 55.002 156.617 54.4749 156.803 53.998C156.994 53.5211 157.252 53.1094 157.578 52.763C157.89 52.4317 158.269 52.1732 158.715 51.9874C159.167 51.8017 159.624 51.7088 160.086 51.7088C160.603 51.7088 161.07 51.7967 161.487 51.9724C161.908 52.1431 162.272 52.3916 162.578 52.7179C162.965 53.1295 163.264 53.6692 163.474 54.3368C163.69 55.0045 163.798 55.8478 163.798 56.8669C163.798 57.7956 163.693 58.6766 163.482 59.51C163.276 60.3383 162.97 61.026 162.563 61.5732C162.132 62.1555 161.612 62.5998 161.005 62.906C160.402 63.2122 159.657 63.3653 158.768 63.3653C158.567 63.3653 158.354 63.3528 158.128 63.3277C157.902 63.3076 157.691 63.2675 157.496 63.2072V61.769H157.571C157.696 61.8393 157.892 61.907 158.158 61.9723C158.424 62.0375 158.695 62.0702 158.972 62.0702C159.955 62.0702 160.729 61.7464 161.291 61.0988C161.853 60.4512 162.172 59.525 162.247 58.3202C161.845 58.5913 161.461 58.7896 161.095 58.9151C160.734 59.0406 160.339 59.1033 159.913 59.1033C159.496 59.1033 159.117 59.0582 158.776 58.9678C158.434 58.8774 158.09 58.7017 157.744 58.4407C157.343 58.1345 157.039 57.7479 156.833 57.2811C156.627 56.8092 156.524 56.2419 156.524 55.5793ZM172.051 59.5777C172.051 60.1199 171.963 60.6219 171.788 61.0837C171.617 61.5456 171.376 61.9447 171.065 62.281C170.748 62.6224 170.354 62.891 169.883 63.0867C169.416 63.2825 168.891 63.3804 168.309 63.3804C167.772 63.3804 167.242 63.3202 166.72 63.1997C166.203 63.0842 165.754 62.9311 165.372 62.7403V61.1515H165.477C165.593 61.2369 165.759 61.3347 165.974 61.4452C166.19 61.5506 166.429 61.651 166.69 61.7464C166.986 61.8518 167.257 61.9346 167.503 61.9949C167.749 62.0501 168.025 62.0777 168.331 62.0777C168.633 62.0777 168.926 62.025 169.212 61.9196C169.499 61.8091 169.744 61.6334 169.95 61.3925C170.136 61.1716 170.277 60.9131 170.372 60.6169C170.472 60.3207 170.523 59.9718 170.523 59.5702C170.523 59.1736 170.467 58.8473 170.357 58.5913C170.252 58.3353 170.096 58.1244 169.89 57.9588C169.674 57.768 169.408 57.635 169.092 57.5597C168.781 57.4794 168.432 57.4392 168.045 57.4392C167.639 57.4392 167.229 57.4718 166.818 57.5371C166.406 57.5973 166.077 57.6551 165.831 57.7103V51.9347H171.983V53.2525H167.285V56.2344C167.465 56.2143 167.644 56.1992 167.819 56.1892C167.995 56.1792 168.156 56.1741 168.301 56.1741C168.874 56.1741 169.358 56.2218 169.755 56.3172C170.151 56.4126 170.533 56.5983 170.899 56.8744C171.271 57.1556 171.554 57.507 171.75 57.9286C171.951 58.3503 172.051 58.9 172.051 59.5777Z" fill="#F7931E"/>
<path d="M13.168 64.9319C13.168 62.6764 11.3395 60.8479 9.08399 60.8479C6.82847 60.8479 5 62.6764 5 64.9319C5 67.1874 6.82847 69.0159 9.08399 69.0159C11.3395 69.0159 13.168 67.1874 13.168 64.9319Z" fill="white"/>
<path d="M13.2126 46.7454C13.2126 47.2641 13.1342 47.7232 12.9774 48.1225C12.8207 48.5181 12.6024 48.8522 12.3224 49.1246C12.0201 49.4232 11.6488 49.6546 11.2084 49.8188C10.768 49.9793 10.3127 50.0651 9.84244 50.0763V51.0896H8.7396V50.0763C8.27308 50.0614 7.81963 49.9774 7.37923 49.8244C6.93884 49.6714 6.56376 49.4418 6.254 49.1358C5.97409 48.8634 5.75576 48.5256 5.59901 48.1225C5.44599 47.7195 5.36948 47.2604 5.36948 46.7454C5.36948 46.2602 5.44412 45.8254 5.59341 45.441C5.74269 45.0528 5.95169 44.7188 6.22041 44.4389C6.50778 44.1403 6.86793 43.9052 7.30086 43.7335C7.73379 43.5619 8.21337 43.4686 8.7396 43.4536V42.5299H9.84244V43.4536C10.3687 43.4648 10.8501 43.5581 11.2868 43.7335C11.7234 43.9052 12.0855 44.1385 12.3728 44.4333C12.6415 44.7095 12.8487 45.0398 12.9942 45.4242C13.1398 45.8086 13.2126 46.249 13.2126 46.7454ZM12.0593 46.7006C12.0593 46.3311 12.0071 45.9952 11.9026 45.6929C11.7981 45.3869 11.6432 45.1275 11.4379 44.9148C11.2439 44.7132 11.0181 44.5639 10.7605 44.4669C10.503 44.3699 10.197 44.3176 9.84244 44.3102V49.2366C10.1783 49.2291 10.4769 49.175 10.7382 49.0742C11.0031 48.9697 11.2215 48.8316 11.3931 48.66C11.6208 48.436 11.7887 48.1636 11.897 47.8426C12.0052 47.5217 12.0593 47.141 12.0593 46.7006ZM8.7396 49.2366V44.3102C8.38504 44.3139 8.07901 44.3661 7.82149 44.4669C7.56397 44.5677 7.33818 44.717 7.14411 44.9148C6.93884 45.1238 6.78396 45.3831 6.67946 45.6929C6.57496 46.0027 6.52271 46.3386 6.52271 46.7006C6.52271 47.141 6.57683 47.5235 6.68506 47.8482C6.79329 48.1692 6.96124 48.4398 7.1889 48.66C7.36057 48.8242 7.57704 48.9604 7.83829 49.0686C8.10327 49.1769 8.4037 49.2328 8.7396 49.2366ZM17.8423 49.4605V47.7251C17.5922 47.7474 17.275 47.7792 16.8906 47.8202C16.5099 47.8575 16.202 47.9117 15.9669 47.9826C15.687 48.0684 15.4556 48.2009 15.2727 48.38C15.0898 48.5555 14.9984 48.8018 14.9984 49.119C14.9984 49.4773 15.0992 49.7479 15.3007 49.9307C15.5022 50.1136 15.7971 50.2051 16.1852 50.2051C16.5174 50.2051 16.8178 50.1341 17.0865 49.9923C17.3552 49.8468 17.6071 49.6695 17.8423 49.4605ZM17.8423 50.3338C17.7564 50.3973 17.6407 50.4868 17.4952 50.6025C17.3534 50.7145 17.2153 50.8041 17.0809 50.8712C16.8943 50.9683 16.7133 51.0429 16.5379 51.0952C16.3662 51.1474 16.1236 51.1735 15.8101 51.1735C15.5526 51.1735 15.3081 51.125 15.0768 51.028C14.8454 50.931 14.642 50.7947 14.4666 50.6193C14.2986 50.4476 14.1643 50.2368 14.0635 49.9867C13.9627 49.7329 13.9123 49.4661 13.9123 49.1862C13.9123 48.7533 14.0038 48.3856 14.1866 48.0833C14.3695 47.7773 14.6588 47.5347 15.0544 47.3556C15.4052 47.1951 15.8195 47.085 16.2972 47.0253C16.7749 46.9618 17.2899 46.9152 17.8423 46.8853V46.6838C17.8423 46.4375 17.8049 46.2397 17.7303 46.0904C17.6557 45.9374 17.5512 45.8198 17.4168 45.7377C17.2824 45.6519 17.1182 45.5959 16.9242 45.5697C16.7301 45.5399 16.5304 45.525 16.3252 45.525C16.0826 45.525 15.7971 45.5623 15.4686 45.6369C15.1402 45.7078 14.8118 45.8123 14.4833 45.9504H14.4218V44.8812C14.6158 44.8252 14.8939 44.7636 15.2559 44.6964C15.6179 44.6292 15.9762 44.5957 16.3308 44.5957C16.7599 44.5957 17.122 44.6292 17.4168 44.6964C17.7116 44.7636 17.9766 44.8849 18.2117 45.0603C18.4394 45.232 18.6092 45.4541 18.7212 45.7265C18.8331 45.9989 18.8891 46.3311 18.8891 46.723V51H17.8423V50.3338ZM25.4054 51H24.0955L21.9513 48.1169H21.4251V51H20.3727V44.7468H21.4251V47.4675C21.6976 47.4638 21.929 47.4078 22.1193 47.2996C22.3134 47.1876 22.4776 46.973 22.6119 46.6558C22.653 46.5625 22.6978 46.4543 22.7463 46.3311C22.7985 46.2079 22.8396 46.0997 22.8695 46.0064C23.0337 45.5474 23.2613 45.2227 23.5524 45.0323C23.8435 44.842 24.2223 44.7468 24.6889 44.7468H24.9744V45.6537H24.7337C24.4388 45.6537 24.2167 45.7153 24.0675 45.8385C23.9219 45.9579 23.7988 46.1781 23.698 46.499C23.5935 46.8237 23.4703 47.0775 23.3285 47.2604C23.1867 47.4395 23.0299 47.5776 22.8583 47.6747L25.4054 51ZM30.6509 45.6705H28.5236V51H27.4712V45.6705H25.3439V44.7468H30.6509V45.6705Z" fill="#8C99B2"/>
<path d="M26.2042 69.521H22.1399V68.6701H23.6515V63.0831H22.1399V62.3217C22.711 62.3217 23.1308 62.2415 23.3995 62.081C23.672 61.9168 23.825 61.6089 23.8586 61.1573H24.7263V68.6701H26.2042V69.521ZM36.6897 66.6547H35.6988V69.521H34.6239V66.6547H30.9403V65.4791L34.6687 61.1853H35.6988V65.759H36.6897V66.6547ZM34.6239 65.759V62.5009L31.8136 65.759H34.6239ZM42.3047 69.521H38.2404V68.6701H39.7519V63.0831H38.2404V62.3217C38.8114 62.3217 39.2312 62.2415 39.5 62.081C39.7724 61.9168 39.9254 61.6089 39.959 61.1573H40.8267V68.6701H42.3047V69.521ZM49.0281 65.3503C49.0281 66.8469 48.8098 67.946 48.3731 68.6477C47.9402 69.3456 47.2703 69.6945 46.3634 69.6945C45.4452 69.6945 44.7716 69.3381 44.3424 68.6253C43.9132 67.9124 43.6986 66.8245 43.6986 65.3615C43.6986 63.8575 43.9151 62.7584 44.348 62.0642C44.7847 61.3663 45.4564 61.0173 46.3634 61.0173C47.2815 61.0173 47.9551 61.3775 48.3843 62.0978C48.8135 62.8181 49.0281 63.9023 49.0281 65.3503ZM47.595 67.8919C47.7032 67.6157 47.7797 67.2668 47.8245 66.8451C47.8693 66.4233 47.8917 65.9251 47.8917 65.3503C47.8917 64.7793 47.8693 64.2829 47.8245 63.8612C47.7797 63.4395 47.7013 63.0887 47.5894 62.8088C47.4774 62.5251 47.3225 62.3105 47.1247 62.165C46.9306 62.0157 46.6769 61.941 46.3634 61.941C46.0536 61.941 45.7979 62.0157 45.5964 62.165C45.3986 62.3105 45.2418 62.5288 45.1262 62.82C45.0142 63.1036 44.9377 63.4619 44.8966 63.8948C44.8556 64.3277 44.835 64.8166 44.835 65.3615C44.835 65.9437 44.8518 66.4308 44.8854 66.8227C44.9228 67.2145 45.0011 67.5654 45.1206 67.8751C45.2288 68.1625 45.3818 68.3846 45.5796 68.5413C45.7811 68.6943 46.0424 68.7708 46.3634 68.7708C46.6731 68.7708 46.9269 68.6981 47.1247 68.5525C47.3262 68.4032 47.483 68.183 47.595 67.8919Z" fill="#D7E2F2"/>
<path d="M58.4051 64.1915H56.2778V69.521H55.2253V64.1915H53.098V63.2678H58.4051V64.1915ZM64.3336 66.3972C64.3336 67.4497 64.0798 68.2633 63.5722 68.838C63.0646 69.409 62.3891 69.6945 61.5457 69.6945C60.6761 69.6945 59.9912 69.3997 59.4911 68.81C58.9948 68.2166 58.7466 67.4123 58.7466 66.3972C58.7466 65.3522 59.0022 64.5405 59.5135 63.962C60.0286 63.3835 60.7059 63.0943 61.5457 63.0943C62.3891 63.0943 63.0646 63.3835 63.5722 63.962C64.0798 64.5367 64.3336 65.3485 64.3336 66.3972ZM63.2475 66.3972C63.2475 65.5873 63.1001 64.9865 62.8053 64.5946C62.5104 64.199 62.0906 64.0012 61.5457 64.0012C60.997 64.0012 60.5734 64.199 60.2749 64.5946C59.98 64.9865 59.8326 65.5873 59.8326 66.3972C59.8326 67.1809 59.98 67.7762 60.2749 68.183C60.5734 68.5861 60.997 68.7876 61.5457 68.7876C62.0868 68.7876 62.5048 68.5898 62.7997 68.1942C63.0982 67.7949 63.2475 67.1959 63.2475 66.3972ZM70.3516 69.521H69.2992V66.7051H66.4665V69.521H65.414V63.2678H66.4665V65.7982H69.2992V63.2678H70.3516V69.521ZM76.812 69.521H75.7595V66.7051H72.9268V69.521H71.8743V63.2678H72.9268V65.7982H75.7595V63.2678H76.812V69.521Z" fill="#606580"/>
<path d="M266.983 71.8892H262.918V71.0382H264.43V65.4512H262.918V64.6899C263.489 64.6899 263.909 64.6096 264.178 64.4492C264.45 64.2849 264.604 63.977 264.637 63.5255H265.505V71.0382H266.983V71.8892ZM277.155 69.2356C277.155 69.6387 277.089 70.0119 276.959 70.3553C276.832 70.6986 276.653 70.9953 276.421 71.2454C276.186 71.4992 275.893 71.6988 275.542 71.8444C275.195 71.9899 274.805 72.0627 274.372 72.0627C273.973 72.0627 273.579 72.0179 273.191 71.9283C272.807 71.8425 272.473 71.7287 272.189 71.5869V70.4056H272.267C272.353 70.4691 272.476 70.5419 272.637 70.624C272.797 70.7023 272.975 70.777 273.169 70.8479C273.389 70.9263 273.59 70.9879 273.773 71.0326C273.956 71.0737 274.162 71.0942 274.389 71.0942C274.613 71.0942 274.831 71.055 275.044 70.9767C275.257 70.8945 275.44 70.7639 275.593 70.5848C275.731 70.4206 275.835 70.2284 275.906 70.0082C275.981 69.788 276.018 69.5286 276.018 69.23C276.018 68.9352 275.977 68.6926 275.895 68.5022C275.817 68.3119 275.701 68.1552 275.548 68.032C275.388 67.8902 275.19 67.7913 274.955 67.7353C274.723 67.6756 274.464 67.6457 274.176 67.6457C273.874 67.6457 273.57 67.67 273.264 67.7185C272.958 67.7633 272.713 67.8062 272.531 67.8473V63.5534H277.104V64.5331H273.611V66.75C273.745 66.7351 273.878 66.7239 274.008 66.7164C274.139 66.709 274.259 66.7052 274.367 66.7052C274.792 66.7052 275.152 66.7407 275.447 66.8116C275.742 66.8825 276.026 67.0206 276.298 67.2259C276.574 67.4349 276.785 67.6961 276.931 68.0096C277.08 68.3231 277.155 68.7318 277.155 69.2356ZM283.548 67.7185C283.548 69.2151 283.329 70.3142 282.893 71.0158C282.46 71.7137 281.79 72.0627 280.883 72.0627C279.965 72.0627 279.291 71.7063 278.862 70.9934C278.433 70.2806 278.218 69.1927 278.218 67.7297C278.218 66.2256 278.435 65.1265 278.868 64.4324C279.304 63.7345 279.976 63.3855 280.883 63.3855C281.801 63.3855 282.475 63.7456 282.904 64.4659C283.333 65.1863 283.548 66.2704 283.548 67.7185ZM282.115 70.2601C282.223 69.9839 282.299 69.635 282.344 69.2132C282.389 68.7915 282.411 68.2933 282.411 67.7185C282.411 67.1475 282.389 66.6511 282.344 66.2294C282.299 65.8077 282.221 65.4568 282.109 65.1769C281.997 64.8933 281.842 64.6787 281.644 64.5331C281.45 64.3838 281.197 64.3092 280.883 64.3092C280.573 64.3092 280.318 64.3838 280.116 64.5331C279.918 64.6787 279.762 64.897 279.646 65.1881C279.534 65.4718 279.457 65.83 279.416 66.263C279.375 66.6959 279.355 67.1848 279.355 67.7297C279.355 68.3119 279.372 68.799 279.405 69.1908C279.442 69.5827 279.521 69.9335 279.64 70.2433C279.749 70.5307 279.902 70.7527 280.099 70.9095C280.301 71.0625 280.562 71.139 280.883 71.139C281.193 71.139 281.447 71.0662 281.644 70.9207C281.846 70.7714 282.003 70.5512 282.115 70.2601ZM289.672 69.2356C289.672 69.6387 289.607 70.0119 289.476 70.3553C289.349 70.6986 289.17 70.9953 288.939 71.2454C288.704 71.4992 288.411 71.6988 288.06 71.8444C287.713 71.9899 287.323 72.0627 286.89 72.0627C286.491 72.0627 286.097 72.0179 285.709 71.9283C285.324 71.8425 284.99 71.7287 284.707 71.5869V70.4056H284.785C284.871 70.4691 284.994 70.5419 285.154 70.624C285.315 70.7023 285.492 70.777 285.686 70.8479C285.907 70.9263 286.108 70.9879 286.291 71.0326C286.474 71.0737 286.679 71.0942 286.907 71.0942C287.131 71.0942 287.349 71.055 287.562 70.9767C287.774 70.8945 287.957 70.7639 288.11 70.5848C288.248 70.4206 288.353 70.2284 288.424 70.0082C288.498 69.788 288.536 69.5286 288.536 69.23C288.536 68.9352 288.495 68.6926 288.413 68.5022C288.334 68.3119 288.219 68.1552 288.066 68.032C287.905 67.8902 287.707 67.7913 287.472 67.7353C287.241 67.6756 286.981 67.6457 286.694 67.6457C286.392 67.6457 286.088 67.67 285.781 67.7185C285.475 67.7633 285.231 67.8062 285.048 67.8473V63.5534H289.622V64.5331H286.129V66.75C286.263 66.7351 286.395 66.7239 286.526 66.7164C286.657 66.709 286.776 66.7052 286.884 66.7052C287.31 66.7052 287.67 66.7407 287.965 66.8116C288.26 66.8825 288.543 67.0206 288.816 67.2259C289.092 67.4349 289.303 67.6961 289.448 68.0096C289.598 68.3231 289.672 68.7318 289.672 69.2356Z" fill="#D7E2F2"/>
<path d="M299.184 66.5597H297.056V71.8892H296.004V66.5597H293.876V65.636H299.184V66.5597ZM305.112 68.7654C305.112 69.8178 304.858 70.6314 304.351 71.2062C303.843 71.7772 303.168 72.0627 302.324 72.0627C301.455 72.0627 300.77 71.7679 300.27 71.1782C299.773 70.5848 299.525 69.7805 299.525 68.7654C299.525 67.7204 299.781 66.9086 300.292 66.3301C300.807 65.7517 301.484 65.4624 302.324 65.4624C303.168 65.4624 303.843 65.7517 304.351 66.3301C304.858 66.9049 305.112 67.7166 305.112 68.7654ZM304.026 68.7654C304.026 67.9555 303.879 67.3546 303.584 66.9627C303.289 66.5671 302.869 66.3693 302.324 66.3693C301.776 66.3693 301.352 66.5671 301.053 66.9627C300.759 67.3546 300.611 67.9555 300.611 68.7654C300.611 69.5491 300.759 70.1444 301.053 70.5512C301.352 70.9543 301.776 71.1558 302.324 71.1558C302.865 71.1558 303.283 70.958 303.578 70.5624C303.877 70.163 304.026 69.564 304.026 68.7654ZM311.13 71.8892H310.078V69.0733H307.245V71.8892H306.193V65.636H307.245V68.1664H310.078V65.636H311.13V71.8892ZM317.59 71.8892H316.538V69.0733H313.705V71.8892H312.653V65.636H313.705V68.1664H316.538V65.636H317.59V71.8892Z" fill="#606580"/>
<path d="M252.675 52.4868H251.567V45.1364H247.732V52.4868H246.624V44.1511H252.675V52.4868ZM259.13 52.4868H258.078V47.1181H255.928C255.917 47.4279 255.906 47.7265 255.894 48.0139C255.883 48.2975 255.872 48.555 255.861 48.7864C255.838 49.3724 255.799 49.8631 255.743 50.2587C255.691 50.6543 255.624 50.9716 255.542 51.2104C255.46 51.4567 255.368 51.649 255.267 51.787C255.17 51.9251 255.06 52.0502 254.937 52.1621C254.81 52.2741 254.674 52.3581 254.528 52.414C254.383 52.47 254.219 52.498 254.036 52.498C253.976 52.498 253.9 52.4961 253.806 52.4924C253.713 52.4887 253.648 52.4868 253.61 52.4868V51.5687H253.666C253.692 51.5687 253.719 51.5706 253.745 51.5743C253.775 51.578 253.808 51.5799 253.846 51.5799C253.935 51.5799 254.023 51.5668 254.109 51.5407C254.194 51.5146 254.271 51.4661 254.338 51.3952C254.525 51.2123 254.661 50.8932 254.747 50.4379C254.833 49.9788 254.894 49.3388 254.932 48.5177C254.946 48.2117 254.96 47.8496 254.971 47.4316C254.986 47.0136 254.999 46.6143 255.01 46.2336H259.13V52.4868ZM264.152 50.9473V49.2119C263.902 49.2343 263.585 49.266 263.2 49.307C262.819 49.3444 262.512 49.3985 262.276 49.4694C261.996 49.5552 261.765 49.6877 261.582 49.8669C261.399 50.0423 261.308 50.2886 261.308 50.6058C261.308 50.9641 261.409 51.2347 261.61 51.4176C261.812 51.6004 262.107 51.6919 262.495 51.6919C262.827 51.6919 263.127 51.621 263.396 51.4791C263.665 51.3336 263.917 51.1563 264.152 50.9473ZM264.152 51.8206C264.066 51.8841 263.95 51.9736 263.805 52.0893C263.663 52.2013 263.525 52.2909 263.39 52.3581C263.204 52.4551 263.023 52.5297 262.847 52.582C262.676 52.6342 262.433 52.6604 262.12 52.6604C261.862 52.6604 261.618 52.6118 261.386 52.5148C261.155 52.4178 260.951 52.2815 260.776 52.1061C260.608 51.9345 260.474 51.7236 260.373 51.4735C260.272 51.2198 260.222 50.9529 260.222 50.673C260.222 50.2401 260.313 49.8725 260.496 49.5702C260.679 49.2641 260.968 49.0215 261.364 48.8424C261.715 48.6819 262.129 48.5718 262.607 48.5121C263.084 48.4486 263.599 48.402 264.152 48.3721V48.1706C264.152 47.9243 264.114 47.7265 264.04 47.5772C263.965 47.4242 263.861 47.3066 263.726 47.2245C263.592 47.1387 263.428 47.0827 263.234 47.0566C263.04 47.0267 262.84 47.0118 262.635 47.0118C262.392 47.0118 262.107 47.0491 261.778 47.1237C261.45 47.1947 261.121 47.2992 260.793 47.4372H260.731V46.368C260.925 46.312 261.203 46.2504 261.565 46.1832C261.927 46.1161 262.286 46.0825 262.64 46.0825C263.069 46.0825 263.431 46.1161 263.726 46.1832C264.021 46.2504 264.286 46.3717 264.521 46.5471C264.749 46.7188 264.919 46.9409 265.031 47.2133C265.143 47.4858 265.199 47.8179 265.199 48.2098V52.4868H264.152V51.8206ZM271.62 52.4868H270.567V49.6709H267.735V52.4868H266.682V46.2336H267.735V48.764H270.567V46.2336H271.62V52.4868Z" fill="#8C99B2"/>
</svg>
