<svg id="ee8b4d5b-9ea7-4bf8-a53b-c99f85511e0d" data-name="1" xmlns="http://www.w3.org/2000/svg" xmlns:xlink="http://www.w3.org/1999/xlink" viewBox="0 0 324 116.75"><defs><style>.a284247d-6b6b-4d50-a99c-4c138577e495,.a3d3ec1f-54c1-417e-b534-0c53306e5b08{font-size:6.82px;}.a18746ee-6341-487d-a8c4-366e3b3df008,.a3d3ec1f-54c1-417e-b534-0c53306e5b08,.f943834a-75c3-49c0-95b0-02a9abb3de07{fill:#a2e2ff;}.a18746ee-6341-487d-a8c4-366e3b3df008,.a284247d-6b6b-4d50-a99c-4c138577e495,.a3d3ec1f-54c1-417e-b534-0c53306e5b08,.a85f66cf-c68f-4aaf-a4c6-669bbff7b8a7,.b9ce4629-43a1-4b96-997b-58436b24ca5c,.ba870dc4-c170-44f2-829b-578194187e15,.bb5a2d5a-66ce-430b-923e-1b87442bcbb3,.e04415c6-e246-4fa8-8d59-a9a1d7ca376c,.e8b3b06e-7b11-49fe-85bb-4f3bd3aec2bd{font-family:Tahoma;}.a3cbb245-b01d-4b27-805c-e517558a2de2{font-size:4.55px;}.a8449177-c60a-4387-8879-67d7fa34871c,.b808f56f-d57e-47b0-9be6-812c1b0bcc1a{fill:#0d1014;}.a8449177-c60a-4387-8879-67d7fa34871c{fill-opacity:0.6;opacity:0.6;}.faa9af89-93a3-432b-9f78-f28963feccad{fill:#606580;}.a85f66cf-c68f-4aaf-a4c6-669bbff7b8a7,.b9ce4629-43a1-4b96-997b-58436b24ca5c,.bde11b40-8e6f-468b-8f6d-e618024fb3d2,.e8b3b06e-7b11-49fe-85bb-4f3bd3aec2bd,.fcfcbc06-fac0-4faf-ad9d-6a7eaef63e8d{fill:#f4a321;}.bde11b40-8e6f-468b-8f6d-e618024fb3d2{opacity:0.8;}.a284247d-6b6b-4d50-a99c-4c138577e495,.ba870dc4-c170-44f2-829b-578194187e15,.bb5a2d5a-66ce-430b-923e-1b87442bcbb3,.be38856a-4c80-4e6a-aab8-f5f47e3a541a,.e04415c6-e246-4fa8-8d59-a9a1d7ca376c{fill:#fff;}.a18746ee-6341-487d-a8c4-366e3b3df008,.a85f66cf-c68f-4aaf-a4c6-669bbff7b8a7,.ba870dc4-c170-44f2-829b-578194187e15{font-size:7.96px;}.b9ce4629-43a1-4b96-997b-58436b24ca5c,.e04415c6-e246-4fa8-8d59-a9a1d7ca376c{font-size:5.68px;}.bb5a2d5a-66ce-430b-923e-1b87442bcbb3,.e8b3b06e-7b11-49fe-85bb-4f3bd3aec2bd{font-size:9.1px;}.f65440f9-243f-4046-b080-675cbf9dab3a{opacity:0.1;fill:url(#a6d480cd-fdea-4b75-8157-b83d1f3ae09e);}.a332566d-1281-4d59-b583-8ad0dd53a08a,.b29c3d08-b628-4215-a5aa-508142ccf643{fill:none;stroke-miterlimit:10;stroke-width:0.5px;}.b29c3d08-b628-4215-a5aa-508142ccf643{stroke:#3fa9f5;}.a332566d-1281-4d59-b583-8ad0dd53a08a{stroke:#8c99b2;}</style><linearGradient id="a6d480cd-fdea-4b75-8157-b83d1f3ae09e" x1="40.44" y1="46.26" x2="40.44" y2="74.66" gradientUnits="userSpaceOnUse"><stop offset="0" stop-color="#3fa9f5"/><stop offset="1" stop-color="#3fa9f5" stop-opacity="0"/></linearGradient></defs><title>Prew</title><text class="a3d3ec1f-54c1-417e-b534-0c53306e5b08" transform="translate(142.79 15.47)">100<tspan class="a3cbb245-b01d-4b27-805c-e517558a2de2" x="11.17" y="0">%</tspan></text><path class="a8449177-c60a-4387-8879-67d7fa34871c" d="M171.27,28.31H23.65l-2.87-2.87v-1l2.87-2.87H171.27l2.87,2.87v1Z"/><rect class="faa9af89-93a3-432b-9f78-f28963feccad" x="21.98" y="28.31" width="0.42" height="2.56"/><rect class="faa9af89-93a3-432b-9f78-f28963feccad" x="77.14" y="28.31" width="0.42" height="2.56"/><path class="bde11b40-8e6f-468b-8f6d-e618024fb3d2" d="M147.88,26.73H120.49l.07-3.57h27.32l1.69,1.49v.59Z"/><path class="be38856a-4c80-4e6a-aab8-f5f47e3a541a" d="M120.47,26.73H22.52L21,25.17v-.45l1.57-1.56h98L122,24.72v.45Z"/><path class="be38856a-4c80-4e6a-aab8-f5f47e3a541a" d="M126.76,25.84h-5.17V24.05h5.16l.18.75v.29Z"/><rect class="f943834a-75c3-49c0-95b0-02a9abb3de07" x="149.36" y="21.37" width="0.57" height="9.44"/><path class="b808f56f-d57e-47b0-9be6-812c1b0bcc1a" d="M149.64,31.44a.8.8,0,1,1,.81-.8A.8.8,0,0,1,149.64,31.44Z"/><path class="f943834a-75c3-49c0-95b0-02a9abb3de07" d="M149.64,30.17a.47.47,0,1,1-.47.47.47.47,0,0,1,.47-.47m0-.67a1.14,1.14,0,1,0,1.14,1.14,1.14,1.14,0,0,0-1.14-1.14Z"/><text class="a3d3ec1f-54c1-417e-b534-0c53306e5b08" transform="translate(121.61 15.47)">97<tspan class="a3cbb245-b01d-4b27-805c-e517558a2de2" x="7.45" y="0">%</tspan></text><rect class="f943834a-75c3-49c0-95b0-02a9abb3de07" x="128.18" y="21.37" width="0.57" height="9.44"/><path class="b808f56f-d57e-47b0-9be6-812c1b0bcc1a" d="M128.47,31.44a.8.8,0,1,1,.8-.8A.8.8,0,0,1,128.47,31.44Z"/><path class="f943834a-75c3-49c0-95b0-02a9abb3de07" d="M128.47,30.17a.47.47,0,1,1-.47.47.47.47,0,0,1,.47-.47m0-.67a1.14,1.14,0,1,0,1.13,1.14,1.14,1.14,0,0,0-1.13-1.14Z"/><path class="b808f56f-d57e-47b0-9be6-812c1b0bcc1a" d="M149.64,19.89a.81.81,0,1,1,.81-.8A.8.8,0,0,1,149.64,19.89Z"/><path class="fcfcbc06-fac0-4faf-ad9d-6a7eaef63e8d" d="M149.64,18.62a.47.47,0,1,1-.47.47.47.47,0,0,1,.47-.47m0-.67a1.14,1.14,0,1,0,1.14,1.14A1.14,1.14,0,0,0,149.64,18Z"/><path class="b808f56f-d57e-47b0-9be6-812c1b0bcc1a" d="M126.94,19.89a.81.81,0,1,1,.81-.8A.8.8,0,0,1,126.94,19.89Z"/><path class="be38856a-4c80-4e6a-aab8-f5f47e3a541a" d="M126.94,18.62a.47.47,0,0,1,0,.94.47.47,0,0,1,0-.94m0-.67a1.14,1.14,0,1,0,1.14,1.14A1.14,1.14,0,0,0,126.94,18Z"/><text class="a3d3ec1f-54c1-417e-b534-0c53306e5b08" transform="translate(20.41 15.9)">План</text><text class="a18746ee-6341-487d-a8c4-366e3b3df008" transform="translate(41.39 15.9)">648</text><text class="a85f66cf-c68f-4aaf-a4c6-669bbff7b8a7" transform="translate(262.27 15.4)">- 9.5</text><text class="ba870dc4-c170-44f2-829b-578194187e15" transform="translate(259.38 27.66)">+ 1.8</text><path class="be38856a-4c80-4e6a-aab8-f5f47e3a541a" d="M286.45,25a.25.25,0,0,1,.16.06L289,27.42a.22.22,0,0,1,0,.3.2.2,0,0,1-.3,0l-2.27-2.26-2.26,2.26a.21.21,0,1,1-.3-.3L286.3,25A.24.24,0,0,1,286.45,25Z"/><path class="be38856a-4c80-4e6a-aab8-f5f47e3a541a" d="M286.45,22.1a.21.21,0,0,1,.16.07L289,24.58a.22.22,0,0,1,0,.3.2.2,0,0,1-.3,0l-2.27-2.26-2.26,2.26a.21.21,0,1,1-.3-.3l2.41-2.41A.21.21,0,0,1,286.45,22.1Z"/><path class="fcfcbc06-fac0-4faf-ad9d-6a7eaef63e8d" d="M285.89,12.83a.22.22,0,0,1-.15-.06l-2.42-2.42a.22.22,0,0,1,0-.3.23.23,0,0,1,.31,0l2.26,2.26,2.27-2.26a.21.21,0,1,1,.3.3L286,12.77A.2.2,0,0,1,285.89,12.83Z"/><path class="fcfcbc06-fac0-4faf-ad9d-6a7eaef63e8d" d="M285.89,15.67a.22.22,0,0,1-.15-.06l-2.42-2.42a.22.22,0,0,1,0-.3.23.23,0,0,1,.31,0l2.26,2.27,2.27-2.27a.21.21,0,1,1,.3.3L286,15.61A.2.2,0,0,1,285.89,15.67Z"/><text class="b9ce4629-43a1-4b96-997b-58436b24ca5c" transform="translate(213.64 15.88)">Отклонение</text><text class="e04415c6-e246-4fa8-8d59-a9a1d7ca376c" transform="translate(213.64 27.66)">Улучшение</text><path class="be38856a-4c80-4e6a-aab8-f5f47e3a541a" d="M13.64,100.8a.26.26,0,0,1-.16-.07l-2.41-2.41a.22.22,0,0,1,0-.3.2.2,0,0,1,.3,0l2.27,2.26L15.9,98a.2.2,0,0,1,.3,0,.22.22,0,0,1,0,.3l-2.41,2.41A.26.26,0,0,1,13.64,100.8Z"/><path class="be38856a-4c80-4e6a-aab8-f5f47e3a541a" d="M13.64,103.64a.25.25,0,0,1-.16-.06l-2.41-2.42a.22.22,0,0,1,0-.3.2.2,0,0,1,.3,0l2.27,2.26,2.26-2.26a.2.2,0,0,1,.3,0,.22.22,0,0,1,0,.3l-2.41,2.42A.24.24,0,0,1,13.64,103.64Z"/><text class="a3d3ec1f-54c1-417e-b534-0c53306e5b08" transform="translate(10.7 91.68)">Судовое топливо</text><text class="bb5a2d5a-66ce-430b-923e-1b87442bcbb3" transform="translate(49.96 104.48)">- 0.4</text><path class="fcfcbc06-fac0-4faf-ad9d-6a7eaef63e8d" d="M13.64,65.17a.25.25,0,0,1-.16-.06l-2.41-2.42a.21.21,0,1,1,.3-.3l2.27,2.26,2.26-2.26a.21.21,0,1,1,.3.3l-2.41,2.42A.24.24,0,0,1,13.64,65.17Z"/><path class="fcfcbc06-fac0-4faf-ad9d-6a7eaef63e8d" d="M13.64,68a.25.25,0,0,1-.16-.06l-2.41-2.42a.21.21,0,1,1,.3-.3l2.27,2.27,2.26-2.27a.21.21,0,1,1,.3.3L13.79,68A.24.24,0,0,1,13.64,68Z"/><text class="a284247d-6b6b-4d50-a99c-4c138577e495" transform="translate(10.7 56.05)">Бензины</text><text class="e8b3b06e-7b11-49fe-85bb-4f3bd3aec2bd" transform="translate(49.96 68.86)">- 0.4</text><path class="f65440f9-243f-4046-b080-675cbf9dab3a" d="M70.2,74.66H10.69l-6-6V52.26l6-6H70.2l6,6v16.4Z"/><path class="b29c3d08-b628-4215-a5aa-508142ccf643" d="M70.2,74.66H10.69l-6-6V52.26l6-6H70.2l6,6v16.4Z"/><path class="a332566d-1281-4d59-b583-8ad0dd53a08a" d="M70.2,110.32H10.69l-6-6V87.92l6-6H70.2l6,6v16.4Z"/><path class="be38856a-4c80-4e6a-aab8-f5f47e3a541a" d="M134.55,65.17a.2.2,0,0,1,.15.06l2.42,2.42a.21.21,0,1,1-.3.3l-2.27-2.27L132.29,68a.22.22,0,0,1-.3,0,.2.2,0,0,1,0-.3l2.41-2.42A.22.22,0,0,1,134.55,65.17Z"/><path class="be38856a-4c80-4e6a-aab8-f5f47e3a541a" d="M134.55,62.33a.2.2,0,0,1,.15.06l2.42,2.42a.21.21,0,1,1-.3.3l-2.27-2.27-2.26,2.27a.22.22,0,0,1-.3,0,.2.2,0,0,1,0-.3l2.41-2.42A.22.22,0,0,1,134.55,62.33Z"/><text class="a3d3ec1f-54c1-417e-b534-0c53306e5b08" transform="translate(131.62 56.05)">Керосины</text><text class="bb5a2d5a-66ce-430b-923e-1b87442bcbb3" transform="translate(170.31 68.86)">+ 11</text><text class="bb5a2d5a-66ce-430b-923e-1b87442bcbb3" transform="translate(170.57 104.48)">- 0.4</text><path class="be38856a-4c80-4e6a-aab8-f5f47e3a541a" d="M134.55,100.8a.23.23,0,0,1-.15-.07L132,98.32a.21.21,0,1,1,.3-.3l2.26,2.26L136.82,98a.2.2,0,0,1,.3,0,.22.22,0,0,1,0,.3l-2.42,2.41A.21.21,0,0,1,134.55,100.8Z"/><path class="be38856a-4c80-4e6a-aab8-f5f47e3a541a" d="M134.55,103.64a.22.22,0,0,1-.15-.06L132,101.16a.21.21,0,1,1,.3-.3l2.26,2.26,2.27-2.26a.2.2,0,0,1,.3,0,.22.22,0,0,1,0,.3l-2.42,2.42A.2.2,0,0,1,134.55,103.64Z"/><text class="a3d3ec1f-54c1-417e-b534-0c53306e5b08" transform="translate(131.62 91.68)">Битумы</text><path class="a332566d-1281-4d59-b583-8ad0dd53a08a" d="M191.05,74.66H131.53l-6-6V52.26l6-6h59.52l6,6v16.4Z"/><path class="a332566d-1281-4d59-b583-8ad0dd53a08a" d="M191.05,110.32H131.53l-6-6V87.92l6-6h59.52l6,6v16.4Z"/><path class="be38856a-4c80-4e6a-aab8-f5f47e3a541a" d="M255.76,65.17a.22.22,0,0,1,.15.06l2.41,2.42a.2.2,0,0,1,0,.3.22.22,0,0,1-.3,0l-2.26-2.27L253.49,68a.21.21,0,1,1-.3-.3l2.42-2.42A.2.2,0,0,1,255.76,65.17Z"/><path class="be38856a-4c80-4e6a-aab8-f5f47e3a541a" d="M255.76,62.33a.22.22,0,0,1,.15.06l2.41,2.42a.2.2,0,0,1,0,.3.22.22,0,0,1-.3,0l-2.26-2.27-2.27,2.27a.21.21,0,1,1-.3-.3l2.42-2.42A.2.2,0,0,1,255.76,62.33Z"/><text class="a3d3ec1f-54c1-417e-b534-0c53306e5b08" transform="translate(252.82 56.05)">Дизели</text><text class="bb5a2d5a-66ce-430b-923e-1b87442bcbb3" transform="translate(296.48 68.86)">+ 6</text><path class="be38856a-4c80-4e6a-aab8-f5f47e3a541a" d="M255.76,100.8a.21.21,0,0,1-.15-.07l-2.42-2.41a.22.22,0,0,1,0-.3.2.2,0,0,1,.3,0l2.27,2.26L258,98a.21.21,0,0,1,.3.3l-2.41,2.41A.23.23,0,0,1,255.76,100.8Z"/><path class="be38856a-4c80-4e6a-aab8-f5f47e3a541a" d="M255.76,103.64a.2.2,0,0,1-.15-.06l-2.42-2.42a.22.22,0,0,1,0-.3.2.2,0,0,1,.3,0l2.27,2.26,2.26-2.26a.21.21,0,0,1,.3.3l-2.41,2.42A.22.22,0,0,1,255.76,103.64Z"/><text class="a3d3ec1f-54c1-417e-b534-0c53306e5b08" transform="translate(252.82 91.68)">Мазуты</text><text class="bb5a2d5a-66ce-430b-923e-1b87442bcbb3" transform="translate(292.08 104.48)">- 0.4</text><path class="a332566d-1281-4d59-b583-8ad0dd53a08a" d="M312.18,74.66H252.66l-6-6V52.26l6-6h59.52l6,6v16.4Z"/><path class="a332566d-1281-4d59-b583-8ad0dd53a08a" d="M312.18,110.32H252.66l-6-6V87.92l6-6h59.52l6,6v16.4Z"/></svg>