<svg id="b537b708-1d78-4727-b46a-f34a9b2cbc57" data-name="1" xmlns="http://www.w3.org/2000/svg" viewBox="0 0 324 116.75"><defs><style>.a4ec4bca-b9b8-402d-8d25-4f2f28d47b6a{opacity:0.2;}.a0d8d2a8-f0eb-4929-9a9d-5c5b8cbda85b,.b9fe361a-d52f-4d38-82f8-474e77236038,.e6855966-067e-4835-b155-735c9ea23d7c{font-size:7.91px;}.b3270f77-7afe-48fc-b765-e1a384a993e3,.b505dbd9-b75d-4a52-a142-63ca142a5800,.e18cb184-35c7-4d37-ad2b-4f114244545d,.e6855966-067e-4835-b155-735c9ea23d7c{fill:#5e6581;}.a0d8d2a8-f0eb-4929-9a9d-5c5b8cbda85b,.b3270f77-7afe-48fc-b765-e1a384a993e3,.b505dbd9-b75d-4a52-a142-63ca142a5800,.b9fe361a-d52f-4d38-82f8-474e77236038,.bc88b93d-ac5d-48e5-980c-f442466e472b,.e6855966-067e-4835-b155-735c9ea23d7c,.edfea5fb-ec04-4fc2-bb0f-08fe5f4d083d{font-family:Tahoma;}.a0d8d2a8-f0eb-4929-9a9d-5c5b8cbda85b{fill:#f9f9f9;}.b505dbd9-b75d-4a52-a142-63ca142a5800,.bc88b93d-ac5d-48e5-980c-f442466e472b,.edfea5fb-ec04-4fc2-bb0f-08fe5f4d083d{font-size:10.55px;}.b22b6d4c-73aa-4cb1-a669-b574f74cc7e5,.edfea5fb-ec04-4fc2-bb0f-08fe5f4d083d{fill:#fff;}.b3270f77-7afe-48fc-b765-e1a384a993e3{font-size:11.87px;}.a2521ae7-ed4a-4c70-be5f-a968eb37a437,.b9fe361a-d52f-4d38-82f8-474e77236038,.bc88b93d-ac5d-48e5-980c-f442466e472b{fill:#3fa9f5;}.b7d3779b-3ad9-4bd2-a52e-802bc9b3ab77,.e2d4db87-7863-4765-bcdc-4fab0706d2ac{fill:none;}.e2d4db87-7863-4765-bcdc-4fab0706d2ac{stroke:#0d1014;stroke-miterlimit:10;stroke-opacity:0.2;stroke-width:11.35px;}.b7d3779b-3ad9-4bd2-a52e-802bc9b3ab77{stroke:#fff;stroke-linejoin:round;stroke-width:5.67px;}.a8627b19-acf4-46c4-b4fb-eff0af219a7f{fill:#1b1e27;}.b22b6d4c-73aa-4cb1-a669-b574f74cc7e5{font-size:17.24px;font-family:Tahoma-Bold, Tahoma;font-weight:700;}</style></defs><title>Prew</title><g class="a4ec4bca-b9b8-402d-8d25-4f2f28d47b6a"><text class="e6855966-067e-4835-b155-735c9ea23d7c" transform="translate(168.09 39.02)">Не квитировано</text></g><text class="a0d8d2a8-f0eb-4929-9a9d-5c5b8cbda85b" transform="translate(168.09 68.73)">Квитировано</text><g class="a4ec4bca-b9b8-402d-8d25-4f2f28d47b6a"><text class="e6855966-067e-4835-b155-735c9ea23d7c" transform="translate(244.39 39.02)">Диагностика</text></g><text class="edfea5fb-ec04-4fc2-bb0f-08fe5f4d083d" transform="translate(168.09 82.96)">16</text><g class="a4ec4bca-b9b8-402d-8d25-4f2f28d47b6a"><text class="b3270f77-7afe-48fc-b765-e1a384a993e3" transform="translate(168.09 54.39)">0</text></g><g class="a4ec4bca-b9b8-402d-8d25-4f2f28d47b6a"><text class="b505dbd9-b75d-4a52-a142-63ca142a5800" transform="translate(244.39 53.25)">0</text></g><text class="b9fe361a-d52f-4d38-82f8-474e77236038" transform="translate(244.39 68.73)">Прогноз</text><text class="bc88b93d-ac5d-48e5-980c-f442466e472b" transform="translate(244.39 84.1)">2</text><circle class="e2d4db87-7863-4765-bcdc-4fab0706d2ac" cx="83.4" cy="58.52" r="35.83"/><circle class="b7d3779b-3ad9-4bd2-a52e-802bc9b3ab77" cx="83.4" cy="58.52" r="35.83"/><path class="a2521ae7-ed4a-4c70-be5f-a968eb37a437" d="M76.68,26v6.11L74,26.66c.44-.13.88-.24,1.33-.34s.9-.2,1.35-.29m5.92-6.47a38.25,38.25,0,0,0-16.77,3.89L82.62,57.74l0-38.18Z"/><circle class="a8627b19-acf4-46c4-b4fb-eff0af219a7f" cx="83.4" cy="58.52" r="35.92"/><text class="b22b6d4c-73aa-4cb1-a669-b574f74cc7e5" transform="translate(72.47 65.63)">18</text><rect class="a8627b19-acf4-46c4-b4fb-eff0af219a7f" x="82.34" y="16.78" width="1.41" height="11.81"/><rect class="a8627b19-acf4-46c4-b4fb-eff0af219a7f" x="66.87" y="20.21" width="1.41" height="11.81" transform="translate(-4.6 32.38) rotate(-26.09)"/><g class="a4ec4bca-b9b8-402d-8d25-4f2f28d47b6a"><path class="e18cb184-35c7-4d37-ad2b-4f114244545d" d="M48.78,28.43l-1.08-.95-.48.55,1.1.94Z"/><path class="e18cb184-35c7-4d37-ad2b-4f114244545d" d="M50.72,26.35l-1-1-.51.52,1,1Z"/><path class="e18cb184-35c7-4d37-ad2b-4f114244545d" d="M49.74,27.38l-1.06-1-.49.54,1.07,1C49.41,27.72,49.57,27.55,49.74,27.38Z"/><path class="e18cb184-35c7-4d37-ad2b-4f114244545d" d="M46.13,31.76,45,30.91l-.64.91,1.4.52Z"/><path class="e18cb184-35c7-4d37-ad2b-4f114244545d" d="M47.86,29.51l-1.11-.91c-.15.18-.31.37-.46.57l1.13.89Z"/><path class="e18cb184-35c7-4d37-ad2b-4f114244545d" d="M47,30.62l-1.14-.88-.44.58,1.15.87Z"/><path class="e18cb184-35c7-4d37-ad2b-4f114244545d" d="M55,22.57l-.89-1.13-.57.46L54.4,23Z"/><path class="e18cb184-35c7-4d37-ad2b-4f114244545d" d="M54.64,21l.88,1.15c.18-.15,1-.8,1.24-.94l-1.53-.65Z"/><path class="e18cb184-35c7-4d37-ad2b-4f114244545d" d="M51.73,25.36l-1-1.05-.53.51,1,1Z"/><path class="e18cb184-35c7-4d37-ad2b-4f114244545d" d="M53.85,23.47l-.92-1.11-.56.48.94,1.09Z"/><path class="e18cb184-35c7-4d37-ad2b-4f114244545d" d="M52.78,24.4l-1-1.08-.54.49,1,1.06Z"/><path class="e18cb184-35c7-4d37-ad2b-4f114244545d" d="M116.6,27.8l1.06-1c-.17-.18-.33-.36-.5-.53l-1,1Z"/><path class="e18cb184-35c7-4d37-ad2b-4f114244545d" d="M115.62,26.77l1-1-.52-.52-1,1Z"/><path class="e18cb184-35c7-4d37-ad2b-4f114244545d" d="M117.55,28.86l1.09-.95c-.16-.19-.32-.37-.49-.55l-1.07,1Z"/><path class="e18cb184-35c7-4d37-ad2b-4f114244545d" d="M114.61,25.78l1-1.05-.53-.5-1,1.06Z"/><path class="e18cb184-35c7-4d37-ad2b-4f114244545d" d="M119.35,31.05l1.14-.88q-.21-.29-.45-.57l-1.13.89Z"/><path class="e18cb184-35c7-4d37-ad2b-4f114244545d" d="M118.47,29.94l1.11-.91-.46-.57-1.11.93Z"/><path class="e18cb184-35c7-4d37-ad2b-4f114244545d" d="M113.57,24.81l1-1.07-.55-.49-1,1.09Z"/><path class="e18cb184-35c7-4d37-ad2b-4f114244545d" d="M111.13,21l-.59-.43-1.51.69,1.24.9Z"/><path class="e18cb184-35c7-4d37-ad2b-4f114244545d" d="M119.78,31.62l.42.57,1.45-.45-.71-1Z"/><path class="e18cb184-35c7-4d37-ad2b-4f114244545d" d="M112.49,23.88l.93-1.1-.56-.47L112,23.43Z"/><path class="e18cb184-35c7-4d37-ad2b-4f114244545d" d="M111.4,23l.89-1.13-.58-.45-.87,1.15Z"/><path class="e18cb184-35c7-4d37-ad2b-4f114244545d" d="M50.22,91.07l-1,1,.51.52,1-1Z"/><path class="e18cb184-35c7-4d37-ad2b-4f114244545d" d="M51.22,92.08l-1,1,.53.51,1-1.05Z"/><path class="e18cb184-35c7-4d37-ad2b-4f114244545d" d="M47.42,87.86l-1.13.9.46.57,1.11-.91Z"/><path class="e18cb184-35c7-4d37-ad2b-4f114244545d" d="M52.25,93.05l-1,1.07.54.49,1-1.08Z"/><path class="e18cb184-35c7-4d37-ad2b-4f114244545d" d="M48.32,89l-1.1.93.48.56,1.08-1Z"/><path class="e18cb184-35c7-4d37-ad2b-4f114244545d" d="M49.26,90l-1.07,1,.49.54,1.06-1C49.57,90.38,49.41,90.2,49.26,90Z"/><path class="e18cb184-35c7-4d37-ad2b-4f114244545d" d="M46.55,86.74l-1.15.86c.14.2.29.39.44.59L47,87.3Z"/><path class="e18cb184-35c7-4d37-ad2b-4f114244545d" d="M53.31,94l-.94,1.09.56.48.92-1.11Z"/><path class="e18cb184-35c7-4d37-ad2b-4f114244545d" d="M45.72,85.59l-1.39.54L45,87l1.17-.84Z"/><path class="e18cb184-35c7-4d37-ad2b-4f114244545d" d="M54.4,94.91,53.49,96l.57.46L55,95.36Z"/><path class="e18cb184-35c7-4d37-ad2b-4f114244545d" d="M54.64,96.94l.59.44,1.53-.65c-.19-.14-1.06-.79-1.24-.94Z"/><path class="e18cb184-35c7-4d37-ad2b-4f114244545d" d="M114.09,92.64l1,1.06.53-.51-1-1Z"/><path class="e18cb184-35c7-4d37-ad2b-4f114244545d" d="M118,88.53l1.11.93.46-.56L118.47,88Z"/><path class="e18cb184-35c7-4d37-ad2b-4f114244545d" d="M116.12,90.64l1,1c.17-.17.33-.35.5-.53l-1.06-1Z"/><path class="e18cb184-35c7-4d37-ad2b-4f114244545d" d="M117.08,89.6l1.07,1c.17-.18.33-.37.49-.55l-1.09-1C117.4,89.25,117.24,89.43,117.08,89.6Z"/><path class="e18cb184-35c7-4d37-ad2b-4f114244545d" d="M119.78,86.31l1.16.86.66-.91-1.4-.52Z"/><path class="e18cb184-35c7-4d37-ad2b-4f114244545d" d="M118.91,87.44l1.13.89c.16-.19.31-.38.45-.58l-1.14-.87Z"/><path class="e18cb184-35c7-4d37-ad2b-4f114244545d" d="M112,94.5l.91,1.12.56-.47-.93-1.1Z"/><path class="e18cb184-35c7-4d37-ad2b-4f114244545d" d="M110.84,95.38l.87,1.15.58-.45L111.4,95Z"/><path class="e18cb184-35c7-4d37-ad2b-4f114244545d" d="M115.12,91.66l1,1,.52-.52-1-1C115.45,91.32,115.29,91.49,115.12,91.66Z"/><path class="e18cb184-35c7-4d37-ad2b-4f114244545d" d="M109,96.74l1.54.66.59-.43-.86-1.16Z"/><path class="e18cb184-35c7-4d37-ad2b-4f114244545d" d="M113,93.59l1,1.08.55-.48-1-1.08Z"/><path class="e18cb184-35c7-4d37-ad2b-4f114244545d" d="M130,45.34l-.79-.22a48.29,48.29,0,0,0-6.57-13.61c.67-.26,1.67-.59,2.32-.8a50.56,50.56,0,0,0-19.39-17.34l-1.88,1.29h-.78a48.05,48.05,0,0,0-40,0h0l-2.73-1.25a50.57,50.57,0,0,0-19.32,17.3c.66.21,1.66.54,2.33.8a48.1,48.1,0,0,0-6.57,13.6l-.82.23a49.06,49.06,0,0,0,0,27.32l.83.23a47.94,47.94,0,0,0,6.56,13.6c-.67.26-1.67.59-2.32.8a50.56,50.56,0,0,0,19.39,17.34l1.88-1.29h.78a48.05,48.05,0,0,0,40,0h0l2.74,1.25A50.54,50.54,0,0,0,125,87.29c-.65-.21-1.65-.54-2.32-.8a48,48,0,0,0,6.56-13.61l.8-.22a49.06,49.06,0,0,0,0-27.32Zm-2.48,28,.86-.24a47.82,47.82,0,0,1-17.87,24.67L108.6,97a44.65,44.65,0,0,1-16,7l-1.54-1.28H74.59l-1.5,1.25a44.9,44.9,0,0,1-15.84-7l-1.92.81A47.91,47.91,0,0,1,37.45,73.12l.83.23a47.08,47.08,0,0,1,0-28.7l-.83.23A47.91,47.91,0,0,1,55.33,20.22l1.92.81a44.72,44.72,0,0,1,16-7l1.54,1.28H91.27l1.5-1.25a44.85,44.85,0,0,1,15.83,7l1.93-.81a47.89,47.89,0,0,1,17.88,24.67l-.87-.24a46.89,46.89,0,0,1,0,28.7Z"/></g></svg>