<svg xmlns="http://www.w3.org/2000/svg" viewBox="0 0 324 116.75"><defs><style>.bb8a9495-a3c8-45cd-9e13-9f9b593697b9{font-size:6.97px;fill:#5b607d;}.a2052ae3-f289-40af-b811-bca4a2d5b8f8,.a8e5623e-2954-4ef3-9253-cf5e62a6bee6,.aca5d855-9bb9-42d8-beeb-da9cf2987086,.b776f3a7-fda7-46c0-a91d-c008284da954,.bb8a9495-a3c8-45cd-9e13-9f9b593697b9{font-family:Tahoma;}.a2052ae3-f289-40af-b811-bca4a2d5b8f8,.a8e5623e-2954-4ef3-9253-cf5e62a6bee6,.aca5d855-9bb9-42d8-beeb-da9cf2987086,.b776f3a7-fda7-46c0-a91d-c008284da954{font-size:8.69px;}.b776f3a7-fda7-46c0-a91d-c008284da954,.bf520fd1-87af-4f2d-83e1-3a5c2bce33d4,.f285ac42-79a8-47d2-9da9-0d23c2f82484{fill:#8c99b2;}.a2c15b19-412f-4ddd-8393-f1764bbb2568,.aca5d855-9bb9-42d8-beeb-da9cf2987086,.f45baa23-102b-4cf1-9553-3ab5b43de3be{fill:#606580;}.a6827728-292e-4b02-a405-80b9f7fd24ae,.a8e5623e-2954-4ef3-9253-cf5e62a6bee6,.bfae4482-d6f7-44d8-ad98-17c30c356e91{fill:#a2e2ff;}.a2052ae3-f289-40af-b811-bca4a2d5b8f8,.a790f814-8602-42fd-b0e5-ca42fa6bc830{fill:#fff;}.bd43e161-a3ed-4165-bcdf-e986a4a769d9,.e8d00c92-fabf-4953-aaf8-daf7f464740e,.e908ebb8-8388-47e3-af34-d20618a0b5d8{fill:none;stroke-miterlimit:22.93;}.bd43e161-a3ed-4165-bcdf-e986a4a769d9,.e8d00c92-fabf-4953-aaf8-daf7f464740e{stroke:#272a38;}.bd43e161-a3ed-4165-bcdf-e986a4a769d9{stroke-width:0.84px;}.e8d00c92-fabf-4953-aaf8-daf7f464740e{stroke-width:0.89px;}.e908ebb8-8388-47e3-af34-d20618a0b5d8{stroke:#616580;stroke-width:0.89px;}.f5b515d0-045f-4031-9268-74315bd5df3d{fill:#616580;}.ff411a25-187e-4eb8-802e-639665e3ba0c{fill:#f4a321;}.bfae4482-d6f7-44d8-ad98-17c30c356e91,.f285ac42-79a8-47d2-9da9-0d23c2f82484,.f45baa23-102b-4cf1-9553-3ab5b43de3be{fill-rule:evenodd;}</style></defs><title>Prew</title><g id="a6c08c53-e5e8-44a0-a76c-358203d78676" data-name="Prew"><text class="bb8a9495-a3c8-45cd-9e13-9f9b593697b9" transform="translate(21.83 93.15) rotate(-90) scale(0.99 1)">количество отклонений</text><text class="b776f3a7-fda7-46c0-a91d-c008284da954" transform="translate(40.16 16.06)">5</text><text class="b776f3a7-fda7-46c0-a91d-c008284da954" transform="translate(65.71 16.06)">14</text><text class="aca5d855-9bb9-42d8-beeb-da9cf2987086" transform="translate(95.98 16.06)">0</text><text class="b776f3a7-fda7-46c0-a91d-c008284da954" transform="translate(121.54 16.06)">13</text><text class="b776f3a7-fda7-46c0-a91d-c008284da954" transform="translate(149.45 16.06)">23</text><text class="b776f3a7-fda7-46c0-a91d-c008284da954" transform="translate(177.37 16.06)">20</text><text class="b776f3a7-fda7-46c0-a91d-c008284da954" transform="translate(207.64 16.06)">6</text><text class="b776f3a7-fda7-46c0-a91d-c008284da954" transform="translate(233.19 16.06)">17</text><text class="aca5d855-9bb9-42d8-beeb-da9cf2987086" transform="translate(263.47 16.06)">0</text><text class="b776f3a7-fda7-46c0-a91d-c008284da954" transform="translate(291.38 16.06)">5</text><text class="a8e5623e-2954-4ef3-9253-cf5e62a6bee6" transform="translate(177.35 48.03)">20</text><text class="a2052ae3-f289-40af-b811-bca4a2d5b8f8" transform="translate(149.31 32.71)">20</text><text class="a2052ae3-f289-40af-b811-bca4a2d5b8f8" transform="translate(65.69 45.01)">12</text><text class="a2052ae3-f289-40af-b811-bca4a2d5b8f8" transform="translate(121.52 49.51)">10</text><line class="bd43e161-a3ed-4165-bcdf-e986a4a769d9" x1="28.56" y1="20.46" x2="307.7" y2="20.46"/><line class="bd43e161-a3ed-4165-bcdf-e986a4a769d9" x1="28.56" y1="37.45" x2="307.7" y2="37.45"/><line class="bd43e161-a3ed-4165-bcdf-e986a4a769d9" x1="28.56" y1="64.06" x2="307.7" y2="64.06"/><line class="e8d00c92-fabf-4953-aaf8-daf7f464740e" x1="279.79" y1="90.91" x2="279.79" y2="21.39"/><line class="e8d00c92-fabf-4953-aaf8-daf7f464740e" x1="251.87" y1="90.91" x2="251.87" y2="21.39"/><line class="e8d00c92-fabf-4953-aaf8-daf7f464740e" x1="223.96" y1="90.91" x2="223.96" y2="21.39"/><line class="e8d00c92-fabf-4953-aaf8-daf7f464740e" x1="196.04" y1="90.91" x2="196.04" y2="21.39"/><line class="e8d00c92-fabf-4953-aaf8-daf7f464740e" x1="168.13" y1="90.91" x2="168.13" y2="21.39"/><line class="e8d00c92-fabf-4953-aaf8-daf7f464740e" x1="140.21" y1="90.91" x2="140.21" y2="21.39"/><line class="e8d00c92-fabf-4953-aaf8-daf7f464740e" x1="112.3" y1="90.91" x2="112.3" y2="21.39"/><line class="e8d00c92-fabf-4953-aaf8-daf7f464740e" x1="84.39" y1="90.91" x2="84.39" y2="21.39"/><line class="e8d00c92-fabf-4953-aaf8-daf7f464740e" x1="56.47" y1="90.91" x2="56.47" y2="21.39"/><line class="e8d00c92-fabf-4953-aaf8-daf7f464740e" x1="307.7" y1="90.91" x2="307.7" y2="21.39"/><line class="e908ebb8-8388-47e3-af34-d20618a0b5d8" x1="28.56" y1="90.93" x2="28.56" y2="10.47"/><polygon class="f5b515d0-045f-4031-9268-74315bd5df3d" points="30.79 11.12 28.56 7.26 26.33 11.12 30.79 11.12"/><rect class="ff411a25-187e-4eb8-802e-639665e3ba0c" x="66.81" y="51.01" width="7.24" height="4.2"/><rect class="ff411a25-187e-4eb8-802e-639665e3ba0c" x="122.64" y="63.25" width="7.24" height="2.89"/><rect class="ff411a25-187e-4eb8-802e-639665e3ba0c" x="234.3" y="41.3" width="7.24" height="10.56"/><rect class="a790f814-8602-42fd-b0e5-ca42fa6bc830" x="66.81" y="55.21" width="7.24" height="35.16"/><rect class="a790f814-8602-42fd-b0e5-ca42fa6bc830" x="122.64" y="66.14" width="7.24" height="24.23"/><rect class="a6827728-292e-4b02-a405-80b9f7fd24ae" x="178.47" y="52.17" width="7.24" height="38.2"/><rect class="a790f814-8602-42fd-b0e5-ca42fa6bc830" x="234.3" y="51.86" width="7.24" height="38.51"/><rect class="a6827728-292e-4b02-a405-80b9f7fd24ae" x="290.13" y="75.8" width="7.24" height="14.57"/><line class="e908ebb8-8388-47e3-af34-d20618a0b5d8" x1="28.58" y1="90.67" x2="303.74" y2="90.67"/><polygon class="f5b515d0-045f-4031-9268-74315bd5df3d" points="303.09 92.9 306.95 90.67 303.09 88.44 303.09 92.9"/><path class="bf520fd1-87af-4f2d-83e1-3a5c2bce33d4" d="M206.2,106.14h9.5v.62H205.56V96.63h.64v1.9h.64v.63h-.64v1.27h.64v.63h-.64v1.28h.64V103h-.64v1.28h.64v.62h-.64Zm1.26-2.85a1,1,0,0,1,.95-1,.92.92,0,0,1,.29,0l.82-1.1a1,1,0,0,1-.16-.53,1,1,0,0,1,1.91,0,.87.87,0,0,1-.05.28l1.1.83a1,1,0,0,1,.53-.16H213l1.1-2.21a.94.94,0,0,1-.27-.65.95.95,0,1,1,.95,1h-.12l-1.1,2.2a.92.92,0,0,1,.27.66.95.95,0,0,1-1.9,0,1,1,0,0,1,0-.29l-1.1-.82a1,1,0,0,1-.54.16.81.81,0,0,1-.27,0l-.83,1.1a1,1,0,0,1,.15.54.95.95,0,0,1-1.9,0Zm7-4.44a.31.31,0,0,0,.32.31.31.31,0,0,0,.32-.31.33.33,0,0,0-.32-.32.32.32,0,0,0-.32.32Zm-1.9,3.8a.31.31,0,0,0,.32.31.31.31,0,0,0,.32-.31.32.32,0,0,0-.32-.31.31.31,0,0,0-.32.31Zm-2.53-1.9a.31.31,0,0,0,.31.31.32.32,0,0,0,.33-.31.33.33,0,0,0-.33-.32.32.32,0,0,0-.31.32Zm-1.9,2.54a.31.31,0,0,0,.31.31.32.32,0,0,0,.33-.31.33.33,0,0,0-.33-.33.32.32,0,0,0-.31.33Z"/><path class="a2c15b19-412f-4ddd-8393-f1764bbb2568" d="M96.68,102.38a1.1,1.1,0,0,0-.86-.25h-.08A2.3,2.3,0,0,1,93.51,99a.31.31,0,0,1,.22-.18.29.29,0,0,1,.26.08l1.06,1a.5.5,0,0,0,.68,0,.47.47,0,0,0,0-.68l-1.06-1.06a.3.3,0,0,1-.08-.27.31.31,0,0,1,.18-.21,2.29,2.29,0,0,1,3.16,2.21v.1a1.1,1.1,0,0,0,.25.86l-.43.4a1.65,1.65,0,0,1-.41-1.3l.3,0-.3,0a1.71,1.71,0,0,0-1.88-1.77l.68.69a1.05,1.05,0,0,1,0,1.51,1.09,1.09,0,0,1-1.52,0l-.69-.69a1.69,1.69,0,0,0,.5,1.39,1.74,1.74,0,0,0,1.27.5h.07a1.61,1.61,0,0,1,1.3.41Z"/><path class="a2c15b19-412f-4ddd-8393-f1764bbb2568" d="M100.64,105.86h-.13a1.37,1.37,0,0,1-.78-.42l-.88-.88.42-.41.88.87a.81.81,0,0,0,.43.25.41.41,0,0,0,.36-.14c.3-.29.06-.62-.11-.79l-.91-.9.42-.42.9.9a1.1,1.1,0,0,1,.12,1.63A1,1,0,0,1,100.64,105.86Z"/><polygon class="a2c15b19-412f-4ddd-8393-f1764bbb2568" points="100.51 101.61 100.1 101.19 101.69 99.59 102.15 99.65 102.73 98.7 102.5 98.47 101.56 99.05 101.61 99.51 100.38 100.73 99.97 100.31 100.99 99.29 100.93 98.74 102.59 97.73 103.48 98.61 102.46 100.28 101.91 100.21 100.51 101.61"/><path class="a2c15b19-412f-4ddd-8393-f1764bbb2568" d="M96.66,104.84a.29.29,0,0,1-.21-.09.28.28,0,0,1,0-.41l2.73-2.73a.28.28,0,0,1,.41,0,.29.29,0,0,1,0,.42l-2.72,2.72A.3.3,0,0,1,96.66,104.84Z"/><path class="a2c15b19-412f-4ddd-8393-f1764bbb2568" d="M96.67,105.86a.94.94,0,0,1-.66-.27l-.39-.4a.92.92,0,0,1,0-1.32l3.09-3.09a1,1,0,0,1,1.33,0l.39.4a.94.94,0,0,1,0,1.32l-3.1,3.1h0A.94.94,0,0,1,96.67,105.86Zm2.7-4.77a.35.35,0,0,0-.24.1l-3.1,3.1a.36.36,0,0,0,0,.49l.4.39a.34.34,0,0,0,.48,0h0l3.1-3.1a.34.34,0,0,0,0-.48l-.39-.4A.37.37,0,0,0,99.37,101.09Z"/><text class="a2052ae3-f289-40af-b811-bca4a2d5b8f8" transform="translate(233.17 39.23)">15</text><text class="a8e5623e-2954-4ef3-9253-cf5e62a6bee6" transform="translate(291.37 65.89)">5</text><text class="aca5d855-9bb9-42d8-beeb-da9cf2987086" transform="translate(263.82 87)">0</text><text class="aca5d855-9bb9-42d8-beeb-da9cf2987086" transform="translate(96.48 87)">0</text><rect class="ff411a25-187e-4eb8-802e-639665e3ba0c" x="206.38" y="63.25" width="7.24" height="2.89"/><rect class="ff411a25-187e-4eb8-802e-639665e3ba0c" x="150.55" y="36.89" width="7.24" height="53.47"/><rect class="a790f814-8602-42fd-b0e5-ca42fa6bc830" x="206.38" y="66.14" width="7.24" height="24.23"/><rect class="a790f814-8602-42fd-b0e5-ca42fa6bc830" x="150.55" y="54.71" width="7.24" height="35.66"/><path class="bf520fd1-87af-4f2d-83e1-3a5c2bce33d4" d="M157.61,106.76h-6.88a1.42,1.42,0,0,1-1-2.39l3.09-3.31V98.75h-.35a.69.69,0,0,1-.69-.69v-.74a.69.69,0,0,1,.69-.69h3.48a.69.69,0,0,1,.7.69v.74a.69.69,0,0,1-.7.69h-.35v2.31l3.09,3.31a1.39,1.39,0,0,1,.27,1.54A1.41,1.41,0,0,1,157.61,106.76Zm-5.18-9.44v.74h1v3.27l-3.27,3.51a.7.7,0,0,0-.14.79.72.72,0,0,0,.67.44h6.88a.73.73,0,0,0,.54-1.23l-3.28-3.51V98.06h1v-.74Z"/><path class="bf520fd1-87af-4f2d-83e1-3a5c2bce33d4" d="M157.37,105.08,156,103.6a2.28,2.28,0,0,0-1.76,0c-1.3.44-1.87,0-1.87,0L151,105.08a.15.15,0,0,0,.11.25h6.17A.15.15,0,0,0,157.37,105.08Z"/><path class="f285ac42-79a8-47d2-9da9-0d23c2f82484" d="M131.55,105.77,126.86,97a.63.63,0,0,0-.59-.36.62.62,0,0,0-.59.36L121,105.77a.61.61,0,0,0,0,.66.64.64,0,0,0,.58.33H131a.65.65,0,0,0,.58-.33.63.63,0,0,0,0-.66Zm-10,.32,4.71-8.79,4.69,8.79Zm4-5.39a.63.63,0,0,1,.2-.48.66.66,0,0,1,.48-.19.64.64,0,0,1,.47.19.59.59,0,0,1,.2.48v2a.61.61,0,0,1-.2.47.62.62,0,0,1-.47.21.7.7,0,0,1-.68-.68v-2Zm.2,3.56a.67.67,0,0,1,.48-.2.65.65,0,0,1,.47.2.61.61,0,0,1,.2.47.62.62,0,0,1-.2.48.65.65,0,0,1-.47.2.67.67,0,0,1-.48-.2.66.66,0,0,1,0-.95Z"/><path class="f45baa23-102b-4cf1-9553-3ab5b43de3be" d="M267.23,98l-.35,2.48,2.62.06-5.65,6.92,1.29-4.73-2.25.14,4.64-7-.3,2.13Zm-.5-.06-2.93,4.43,2-.13-.85,3.14,3.61-4.42-2.23,0Z"/><path class="bf520fd1-87af-4f2d-83e1-3a5c2bce33d4" d="M241.93,97.14c-.36,0-.36,0-.36-.39v0a.33.33,0,0,0,0-.27.35.35,0,0,0-.28-.1h-1.58c-.29,0-.44,0-.54.11s-.1.28-.09.54,0,.14,0,.14,0,0-.16,0h-4.92a.27.27,0,0,0-.31.31v0a.38.38,0,0,0,.07.26.32.32,0,0,0,.26.07c.12,0,.16,0,.17,0a.41.41,0,0,1,0,.2v1c0,.9,0,1.81,0,2.71v.11c0,1.41,0,2.87,0,4.3,0,.14,0,.17,0,.17H234a.31.31,0,0,0-.29,0,.4.4,0,0,0-.11.3.33.33,0,0,0,.09.25.3.3,0,0,0,.28.08h7.81A.26.26,0,0,0,242,107a.34.34,0,0,0,.09-.27.3.3,0,0,0-.41-.34h-.05a.35.35,0,0,1,0-.06v-6.1c0-.67,0-1.34,0-2a.23.23,0,0,1,.32-.33.27.27,0,0,0,.21-.08.33.33,0,0,0,.07-.26v0A.27.27,0,0,0,241.93,97.14ZM239.68,97a.11.11,0,0,1,.08,0h1.14v.06a.35.35,0,0,0,0,.07h-1.22s0,0,0-.08A.1.1,0,0,1,239.68,97Zm1.27,5.2v.85c0,1.06,0,2.12,0,3.18a.28.28,0,0,1,0,.1s0,0-.09,0h-6s-.07,0-.07,0a.24.24,0,0,1,0-.09q0-4.17,0-8.34c0-.07,0-.09,0-.09h.1c2,0,4,0,5.95,0h.1a.32.32,0,0,1,0,.11c0,.91,0,1.83,0,2.74v1.54Z"/><path class="bf520fd1-87af-4f2d-83e1-3a5c2bce33d4" d="M238.09,99.79l-.1-.14-.1.13a11,11,0,0,0-1.13,1.66,2.81,2.81,0,0,0-.41,1.23,1.47,1.47,0,0,0,1.18,1.57l.37,0a1.46,1.46,0,0,0,1.45-1,2.1,2.1,0,0,0-.15-1.47A9.86,9.86,0,0,0,238.09,99.79Zm.41,3.57a1,1,0,0,1-1,.17.86.86,0,0,1-.53-.88,2.25,2.25,0,0,1,.42-1c.07-.12.14-.24.2-.36a4.65,4.65,0,0,1,.29-.43l0-.06c0,.07.07.14.11.2a5.61,5.61,0,0,1,.65,1.51A.84.84,0,0,1,238.5,103.36Z"/><path class="bf520fd1-87af-4f2d-83e1-3a5c2bce33d4" d="M237.65,102.68a.33.33,0,0,0-.11-.18.28.28,0,0,0-.17,0s-.18.07-.13.3h0a1.17,1.17,0,0,0,.33.53.19.19,0,0,0,.19.05.15.15,0,0,0,.11-.08.27.27,0,0,0-.05-.35A.5.5,0,0,1,237.65,102.68Z"/><path class="bf520fd1-87af-4f2d-83e1-3a5c2bce33d4" d="M74.35,101.82a26.89,26.89,0,0,0-2.08-3.94c-.23-.36-.47-.73-.71-1.08l-.33-.48,0,0h-.34l0,0-.06.06a.88.88,0,0,0-.12.15,33.87,33.87,0,0,0-2.81,5v0a4.67,4.67,0,0,0-.52,1.86,3.58,3.58,0,0,0,2.09,3.37,4.23,4.23,0,0,0,.85.28l.39.11h.76l.07,0,.08,0a3.68,3.68,0,0,0,2.81-5.26Zm-.83,3.08a2.87,2.87,0,0,1-2,1.38,2.9,2.9,0,0,1-3.43-2.78,2.8,2.8,0,0,1,.2-1,21.55,21.55,0,0,1,2-3.92l0-.09c.16-.27.33-.54.52-.83l.17-.28.46.77c.39.67.77,1.31,1.13,2a14.05,14.05,0,0,1,1.2,2.63A2.65,2.65,0,0,1,73.52,104.9Z"/><path class="bf520fd1-87af-4f2d-83e1-3a5c2bce33d4" d="M70.91,105.16a2.14,2.14,0,0,1-.44-.08,1.74,1.74,0,0,1-1.21-1.59.54.54,0,0,0-.16-.39.34.34,0,0,0-.28-.09c-.25,0-.36.19-.35.52A2.54,2.54,0,0,0,70.86,106h.08c.17,0,.44,0,.46-.35S71.05,105.17,70.91,105.16Z"/><path class="bfae4482-d6f7-44d8-ad98-17c30c356e91" d="M184.45,96.44v4a.54.54,0,1,0,1.07,0v-4a.54.54,0,1,0-1.07,0Z"/><path class="bfae4482-d6f7-44d8-ad98-17c30c356e91" d="M179.88,100.49v-4a.54.54,0,1,0-1.07,0v4a.54.54,0,1,0,1.07,0Z"/><path class="bfae4482-d6f7-44d8-ad98-17c30c356e91" d="M182.5,107.35l3.76-3.77a.48.48,0,0,0,0-.68.5.5,0,0,0-.68,0l-2.89,2.89v-8a.54.54,0,0,0-1.07,0v8l-2.89-2.89a.48.48,0,1,0-.68.68l3.77,3.77A.5.5,0,0,0,182.5,107.35Z"/><path class="f285ac42-79a8-47d2-9da9-0d23c2f82484" d="M42.24,97.46a6.46,6.46,0,0,0-6.25,8,.49.49,0,0,0,.59.35.5.5,0,0,0,.35-.59c0-.08,0-.16,0-.24a.48.48,0,0,0-.07-1h0s0-.09,0-.14a5.43,5.43,0,0,1,1-3.1.49.49,0,0,0,.78-.38.48.48,0,0,0-.17-.36,5.45,5.45,0,0,1,3.42-1.61.48.48,0,0,0,.48.45.47.47,0,0,0,.48-.45,5.4,5.4,0,0,1,3.44,1.63.44.44,0,0,0-.14.34.47.47,0,0,0,.48.48.51.51,0,0,0,.27-.09,5.48,5.48,0,0,1,.95,3.09s0,.09,0,.14a.47.47,0,0,0-.47.48.48.48,0,0,0,.36.46c0,.11,0,.22-.06.33a.48.48,0,0,0,.34.59l.13,0a.48.48,0,0,0,.46-.36,6.2,6.2,0,0,0,.22-1.66A6.46,6.46,0,0,0,42.24,97.46Z"/><path class="f285ac42-79a8-47d2-9da9-0d23c2f82484" d="M44.91,101.36l-2.65,2.5a.9.9,0,0,0-.72.29.93.93,0,1,0,1.37,1.26.91.91,0,0,0,.25-.67l2.3-2.87a.38.38,0,1,0-.55-.51Z"/><path class="a6827728-292e-4b02-a405-80b9f7fd24ae" d="M299.72,101h-.31a.7.7,0,0,0-.7.7v0H296a2.51,2.51,0,0,0-.65-.47v-.69h.09a.7.7,0,0,0,.71-.69v-.32A.71.71,0,0,0,296,99l1.45-.89,0,0,.05,0,0,0,0-.06s0,0,0-.06v0h0v0a.11.11,0,0,0,0,0,.11.11,0,0,0,0-.08h0a.3.3,0,0,0-.08-.08h0a.33.33,0,0,0-.19-.06h-6l-.1,0h0l-.06.07,0,0v0s0,0,0,.07a.13.13,0,0,0,0,.06s0,0,0,0v0s0,0,0,.06l0,.06,0,0,0,0,0,0,1.45.89a.7.7,0,0,0-.23.52v.32a.69.69,0,0,0,.7.69h.1v.7a2.43,2.43,0,0,0-.63.46h-2.68v0a.7.7,0,0,0-.7-.7h-.31a.7.7,0,0,0-.7.7v3.53a.7.7,0,0,0,.7.7h.31a.7.7,0,0,0,.7-.7v0h2.68a2.45,2.45,0,0,0,3.53,0h2.67v0a.7.7,0,0,0,.7.7h.31a.7.7,0,0,0,.7-.7v-3.53A.7.7,0,0,0,299.72,101ZM289.17,102v3.16h-.39v-3.57h.35a0,0,0,0,1,0,0Zm3.29-3.85h3.61l-1.08.66h-1.46Zm.57,1.72v-.41h2.44a.06.06,0,0,1,0,0v.36H293Zm1.7.65V101h-.94v-.41Zm-2.67,3.94h-2.23v-2.13h2.23a2.39,2.39,0,0,0,0,2.13Zm2.21.75a1.81,1.81,0,1,1,1.81-1.81A1.81,1.81,0,0,1,294.27,105.23Zm4.44-.75h-2.22a2.39,2.39,0,0,0,0-2.13h2.22Zm1.06.7h-.4v-3.53a0,0,0,0,1,0,0h.36Z"/><text class="a2052ae3-f289-40af-b811-bca4a2d5b8f8" transform="translate(40.14 65.89)">4</text><rect class="ff411a25-187e-4eb8-802e-639665e3ba0c" x="38.9" y="69.82" width="7.24" height="5.98"/><rect class="a790f814-8602-42fd-b0e5-ca42fa6bc830" x="38.9" y="71.98" width="7.24" height="18.39"/></g></svg>