<svg id="f810c85d-0aba-414d-b058-1d1d15de7cd6" data-name="1" xmlns="http://www.w3.org/2000/svg" viewBox="0 0 324 118"><defs><style>.fb2c2883-d455-43d4-82d0-16040a088acf{fill:#3fa9f5;}.bd3cd58d-8a4f-4de5-9053-8b315a1d7f42{opacity:0.9;}.b26642fb-5672-44b2-860a-25f72468735d{opacity:0.8;}.a6957565-9050-4d53-816a-3f6ba9fec49f{opacity:0.7;}.bd37046f-946a-44f9-b9ba-dbdce9c66563{opacity:0.6;}.b1fe186b-5f9a-4adb-b970-90678272cacf{opacity:0.5;}.a47d5d00-d056-4477-aa5f-a6d5f2aa1fa5{opacity:0.4;}.f237ef26-a316-43e9-aea0-f1f99e847508{opacity:0.3;}.acf62916-e0d5-4e5a-8349-72089a75fd63{opacity:0.2;}.b9e34562-4ddc-4b6f-8273-024571d5f110{opacity:0.1;}.aaaff917-71fd-4023-b0bf-85651d9aa56c{font-size:9.8px;fill:#5b607d;font-family:Tahoma;}</style></defs><title>Проект1</title><path class="fb2c2883-d455-43d4-82d0-16040a088acf" d="M115.4,72.82a3.52,3.52,0,1,1,5,.44A3.52,3.52,0,0,1,115.4,72.82Z"/><g class="bd3cd58d-8a4f-4de5-9053-8b315a1d7f42"><path class="fb2c2883-d455-43d4-82d0-16040a088acf" d="M120.77,63.5a3.52,3.52,0,1,1,5,.44A3.52,3.52,0,0,1,120.77,63.5Z"/></g><g class="b26642fb-5672-44b2-860a-25f72468735d"><path class="fb2c2883-d455-43d4-82d0-16040a088acf" d="M119,53.05a3.52,3.52,0,1,1,5,.44A3.52,3.52,0,0,1,119,53.05Z"/></g><g class="a6957565-9050-4d53-816a-3f6ba9fec49f"><path class="fb2c2883-d455-43d4-82d0-16040a088acf" d="M110.6,46.05a3.52,3.52,0,1,1,5,.43A3.52,3.52,0,0,1,110.6,46.05Z"/></g><g class="bd37046f-946a-44f9-b9ba-dbdce9c66563"><path class="fb2c2883-d455-43d4-82d0-16040a088acf" d="M100.06,46a3.52,3.52,0,1,1,5,.44A3.53,3.53,0,0,1,100.06,46Z"/></g><g class="b1fe186b-5f9a-4adb-b970-90678272cacf"><path class="fb2c2883-d455-43d4-82d0-16040a088acf" d="M91.68,53.07a3.52,3.52,0,1,1,5,.43A3.52,3.52,0,0,1,91.68,53.07Z"/></g><g class="a47d5d00-d056-4477-aa5f-a6d5f2aa1fa5"><path class="fb2c2883-d455-43d4-82d0-16040a088acf" d="M89.86,63.45a3.52,3.52,0,1,1,5,.44A3.52,3.52,0,0,1,89.86,63.45Z"/></g><g class="f237ef26-a316-43e9-aea0-f1f99e847508"><path class="fb2c2883-d455-43d4-82d0-16040a088acf" d="M95.31,72.89a3.52,3.52,0,1,1,5,.43A3.52,3.52,0,0,1,95.31,72.89Z"/></g><g class="acf62916-e0d5-4e5a-8349-72089a75fd63"><path class="fb2c2883-d455-43d4-82d0-16040a088acf" d="M105.29,76.49a3.52,3.52,0,1,1,5,.44A3.52,3.52,0,0,1,105.29,76.49Z"/></g><g class="b9e34562-4ddc-4b6f-8273-024571d5f110"><path class="fb2c2883-d455-43d4-82d0-16040a088acf" d="M115.4,72.82a3.52,3.52,0,1,1,5,.44A3.52,3.52,0,0,1,115.4,72.82Z"/></g><text class="aaaff917-71fd-4023-b0bf-85651d9aa56c" transform="translate(140.96 54.33)">Информация о <tspan x="0" y="11.77">виджете отсутствует</tspan></text></svg>