<svg xmlns="http://www.w3.org/2000/svg" xmlns:xlink="http://www.w3.org/1999/xlink" viewBox="0 0 324 118"><defs><style>.a18f7b61-6952-49ed-a783-41e0eee9d323{fill:none;}.b9b91863-7974-4360-8d58-d1e570461d14,.e56707e9-0fda-4324-8246-82a283eaea5e{fill:#3fa9f5;}.e56707e9-0fda-4324-8246-82a283eaea5e{fill-opacity:0.2;}.ad204a20-c26e-4d97-977c-72fb2b3a3f95{fill:#8c99b2;fill-opacity:0.05;}.ab04da17-6e5c-488f-ba4c-ce4d12d5a418{fill:#1b1e27;}.a97739d8-93a2-4ccb-94d1-28f10647990d,.fc7c9d7a-7d49-4454-8a17-76a94f2f5a16{font-size:7.34px;}.b42bd589-2c42-44e8-850e-76fa819fd271,.fc1d95c1-7a93-45e9-8155-2c6610322472,.fc7c9d7a-7d49-4454-8a17-76a94f2f5a16{fill:#fff;}.a97739d8-93a2-4ccb-94d1-28f10647990d,.b93a57ae-c840-4b54-8ba2-08722db65b35,.f200f077-b340-4b79-9f19-dbba8984b17d,.fc7c9d7a-7d49-4454-8a17-76a94f2f5a16{font-family:Tahoma;}.a97739d8-93a2-4ccb-94d1-28f10647990d{fill:#a1e1ff;}.a5640fa2-4f47-4839-8551-07273fbd3dee,.acac4a56-4936-458c-b717-31d02a694532,.b0189b17-a5f2-46a3-bb92-e6370a182d63,.b680cf51-9719-4fa6-8194-91903526cd5b,.bab7dc8a-0574-4f53-ad9b-e3fa7d04281f,.bbfb39b0-8caf-47ad-83af-e68e0f5e73df,.be905992-7349-43c1-b735-0bda1ef16b2f,.e64fa0ea-3c50-4b8c-ae95-09fc9b83642b{fill-rule:evenodd;opacity:0.8;}.e64fa0ea-3c50-4b8c-ae95-09fc9b83642b{fill:url(#e64700fd-dec6-45c8-8eb4-ae06a996c933);}.bbfb39b0-8caf-47ad-83af-e68e0f5e73df{fill:url(#ee336700-5a4d-4b59-9e75-6c021d0ddc25);}.b0189b17-a5f2-46a3-bb92-e6370a182d63{fill:url(#e496140f-f7e8-4e77-bf79-83a3ecb38e18);}.bab7dc8a-0574-4f53-ad9b-e3fa7d04281f{fill:url(#a38fb4bd-9266-4901-97f4-8abcd21c350c);}.b42bd589-2c42-44e8-850e-76fa819fd271,.f200f077-b340-4b79-9f19-dbba8984b17d{font-size:5.82px;}.b42bd589-2c42-44e8-850e-76fa819fd271{font-family:Tahoma-Bold, Tahoma;font-weight:700;}.f200f077-b340-4b79-9f19-dbba8984b17d{fill:#60647f;}.be905992-7349-43c1-b735-0bda1ef16b2f{fill:url(#b58a05be-1619-4320-b3f7-70b6f84c9f88);}.acac4a56-4936-458c-b717-31d02a694532{fill:url(#bad0a200-129f-4d79-82d5-7df6da1729b0);}.b680cf51-9719-4fa6-8194-91903526cd5b{fill:url(#e6e6f78f-e9f0-4921-b428-82d48e7ebad0);}.a5640fa2-4f47-4839-8551-07273fbd3dee{fill:url(#a87fcecd-209d-40d3-b00c-a23a59c58154);}.b93a57ae-c840-4b54-8ba2-08722db65b35{font-size:6.86px;}.b93a57ae-c840-4b54-8ba2-08722db65b35,.ea16ce39-f989-40a6-a167-8b4344896c00{fill:#a2e2ff;}.b2a76283-6d56-4f03-b3fb-3ca385e3eac0{opacity:0.18;}.af0d90e0-58e4-4327-9438-6846d0e80923{clip-path:url(#e23aca2c-28c3-464e-a567-b5381b5d0e7a);}.ad101261-0db9-48ed-94a7-bef4441915b8{isolation:isolate;}.ad6366ee-b17f-4ee3-b8ad-2774bef6ef6a{clip-path:url(#a2576b2f-eeca-4c6e-8b80-59d36064b340);}.ea16ce39-f989-40a6-a167-8b4344896c00{opacity:0.05;}.fc1d95c1-7a93-45e9-8155-2c6610322472{opacity:0.5;}.bc834607-093b-4b8b-91d0-4f1b448bfe15{fill:#fbfeff;opacity:0.53;}</style><linearGradient id="e64700fd-dec6-45c8-8eb4-ae06a996c933" x1="-2067.82" y1="97.86" x2="-2014.29" y2="97.86" gradientTransform="matrix(-1, 0, 0, 1, -2003.28, 0)" gradientUnits="userSpaceOnUse"><stop offset="0" stop-color="#22252e" stop-opacity="0.5"/><stop offset="1" stop-color="#22252e"/></linearGradient><linearGradient id="ee336700-5a4d-4b59-9e75-6c021d0ddc25" x1="-2068.88" y1="19.35" x2="-2014.86" y2="19.35" xlink:href="#e64700fd-dec6-45c8-8eb4-ae06a996c933"/><linearGradient id="e496140f-f7e8-4e77-bf79-83a3ecb38e18" x1="-2057.07" y1="44.2" x2="-2009.05" y2="44.2" xlink:href="#e64700fd-dec6-45c8-8eb4-ae06a996c933"/><linearGradient id="a38fb4bd-9266-4901-97f4-8abcd21c350c" x1="-2056.54" y1="73.01" x2="-2009.03" y2="73.01" xlink:href="#e64700fd-dec6-45c8-8eb4-ae06a996c933"/><linearGradient id="b58a05be-1619-4320-b3f7-70b6f84c9f88" x1="45.48" y1="73.01" x2="103.63" y2="73.01" gradientTransform="matrix(1, 0, 0, 1, 0, 0)" xlink:href="#e64700fd-dec6-45c8-8eb4-ae06a996c933"/><linearGradient id="bad0a200-129f-4d79-82d5-7df6da1729b0" x1="45.5" y1="44.2" x2="104.04" y2="44.2" gradientTransform="matrix(1, 0, 0, 1, 0, 0)" xlink:href="#e64700fd-dec6-45c8-8eb4-ae06a996c933"/><linearGradient id="e6e6f78f-e9f0-4921-b428-82d48e7ebad0" x1="51.37" y1="19.35" x2="119.47" y2="19.35" gradientTransform="matrix(1, 0, 0, 1, 0, 0)" xlink:href="#e64700fd-dec6-45c8-8eb4-ae06a996c933"/><linearGradient id="a87fcecd-209d-40d3-b00c-a23a59c58154" x1="50.79" y1="97.86" x2="118.5" y2="97.86" gradientTransform="matrix(1, 0, 0, 1, 0, 0)" xlink:href="#e64700fd-dec6-45c8-8eb4-ae06a996c933"/><clipPath id="e23aca2c-28c3-464e-a567-b5381b5d0e7a"><ellipse class="a18f7b61-6952-49ed-a783-41e0eee9d323" cx="161.93" cy="59.03" rx="39.81" ry="39.98"/></clipPath><clipPath id="a2576b2f-eeca-4c6e-8b80-59d36064b340"><polygon class="a18f7b61-6952-49ed-a783-41e0eee9d323" points="7.6 53.33 159.43 -34.9 374.29 89.15 222.46 177.38 7.6 53.33"/></clipPath></defs><title>Проект1</title><g id="f76bc1bf-d498-46cb-baac-99d70a2e6579" data-name="Prew"><path class="e56707e9-0fda-4324-8246-82a283eaea5e" d="M310.16,11.15H166.86c-3.4,3.42-15.15,6.2.24,6.2a41.44,41.44,0,0,1,36,20.9H316.45A151.32,151.32,0,0,0,310.16,11.15Z"/><path class="ad204a20-c26e-4d97-977c-72fb2b3a3f95" d="M209,59a41.79,41.79,0,0,1-2.24,13.54H317.65q.59-6.69.59-13.54t-.59-13.55H206.74A41.81,41.81,0,0,1,209,59Z"/><path class="ad204a20-c26e-4d97-977c-72fb2b3a3f95" d="M316.83,79.8H203.47a41.4,41.4,0,0,1-36,20.9c-4.58,0-10.07-.34-7.2,2.54a12.39,12.39,0,0,1,7.33,3.66H310.55A150.45,150.45,0,0,0,316.83,79.8Z"/><path class="ab04da17-6e5c-488f-ba4c-ce4d12d5a418" d="M161.76,10.31A48.72,48.72,0,1,0,210.27,59,48.61,48.61,0,0,0,161.76,10.31Z"/><path class="b9b91863-7974-4360-8d58-d1e570461d14" d="M192.61,24.44l.95-1.1c-.18-.17-.37-.33-.56-.49L192.06,24Z"/><path class="b9b91863-7974-4360-8d58-d1e570461d14" d="M194.7,26.4l1-1-.53-.52-1,1.06Z"/><path class="b9b91863-7974-4360-8d58-d1e570461d14" d="M193.67,25.4l1-1.07-.54-.5-1,1.08Z"/><path class="b9b91863-7974-4360-8d58-d1e570461d14" d="M189.24,21.75l.86-1.19-.91-.65-.53,1.42Z"/><path class="b9b91863-7974-4360-8d58-d1e570461d14" d="M191.51,23.51l.93-1.13c-.19-.16-.38-.32-.58-.47l-.9,1.14Z"/><path class="b9b91863-7974-4360-8d58-d1e570461d14" d="M190.39,22.61l.89-1.16-.59-.45-.87,1.17Z"/><path class="b9b91863-7974-4360-8d58-d1e570461d14" d="M198.52,30.69l1.14-.9c-.15-.2-.31-.39-.46-.58l-1.13.92Z"/><path class="b9b91863-7974-4360-8d58-d1e570461d14" d="M200.11,30.37l-1.15.89.94,1.26.66-1.55Z"/><path class="b9b91863-7974-4360-8d58-d1e570461d14" d="M195.7,27.43l1.06-1-.51-.53-1,1C195.37,27.08,195.54,27.25,195.7,27.43Z"/><path class="b9b91863-7974-4360-8d58-d1e570461d14" d="M197.61,29.57l1.12-.94-.48-.56-1.1,1Z"/><path class="b9b91863-7974-4360-8d58-d1e570461d14" d="M196.68,28.49l1.08-1-.5-.55-1.07,1Z"/><path class="b9b91863-7974-4360-8d58-d1e570461d14" d="M193.24,93.17l1,1.07.54-.51-1-1.06Z"/><path class="b9b91863-7974-4360-8d58-d1e570461d14" d="M194.28,92.17l1,1,.52-.52-1-1Z"/><path class="b9b91863-7974-4360-8d58-d1e570461d14" d="M192.17,94.13l1,1.1.55-.49-1-1.09Z"/><path class="b9b91863-7974-4360-8d58-d1e570461d14" d="M195.28,91.15l1.06,1,.5-.54-1.07-1Z"/><path class="b9b91863-7974-4360-8d58-d1e570461d14" d="M190,96l.89,1.16.58-.46-.91-1.14Z"/><path class="b9b91863-7974-4360-8d58-d1e570461d14" d="M191.08,95.06l.92,1.13.57-.48-.94-1.11Z"/><path class="b9b91863-7974-4360-8d58-d1e570461d14" d="M196.25,90.09l1.09,1,.49-.56-1.1-1Z"/><path class="b9b91863-7974-4360-8d58-d1e570461d14" d="M200.14,87.62l.44-.6-.7-1.52L199,86.75Z"/><path class="b9b91863-7974-4360-8d58-d1e570461d14" d="M189.39,96.39l-.58.42.46,1.47,1-.72Z"/><path class="b9b91863-7974-4360-8d58-d1e570461d14" d="M197.2,89l1.11,1,.47-.58-1.13-.92Z"/><path class="b9b91863-7974-4360-8d58-d1e570461d14" d="M198.1,87.89l1.14.91.46-.59-1.16-.89Z"/><path class="b9b91863-7974-4360-8d58-d1e570461d14" d="M129.4,25.9l-1-1.06-.53.52,1,1Z"/><path class="b9b91863-7974-4360-8d58-d1e570461d14" d="M128.38,26.91l-1-1-.51.53,1,1Z"/><path class="b9b91863-7974-4360-8d58-d1e570461d14" d="M132.63,23.05l-.9-1.14c-.2.15-.39.31-.58.47l.93,1.13Z"/><path class="b9b91863-7974-4360-8d58-d1e570461d14" d="M127.39,28l-1.07-1-.49.55,1.08,1Z"/><path class="b9b91863-7974-4360-8d58-d1e570461d14" d="M131.53,24l-.95-1.12-.55.49.95,1.1C131.16,24.28,131.34,24.12,131.53,24Z"/><path class="b9b91863-7974-4360-8d58-d1e570461d14" d="M130.45,24.91l-1-1.08-.54.5,1,1.07Z"/><path class="b9b91863-7974-4360-8d58-d1e570461d14" d="M133.77,22.17,132.9,21l-.59.45.89,1.16Z"/><path class="b9b91863-7974-4360-8d58-d1e570461d14" d="M126.44,29l-1.1-1-.48.56,1.12.94Z"/><path class="b9b91863-7974-4360-8d58-d1e570461d14" d="M134.93,21.33l-.55-1.4-.89.63.85,1.19Z"/><path class="b9b91863-7974-4360-8d58-d1e570461d14" d="M125.52,30.13l-1.13-.92c-.16.19-.31.38-.46.58l1.14.9Z"/><path class="b9b91863-7974-4360-8d58-d1e570461d14" d="M123.48,30.37,123,31l.66,1.55.94-1.26Z"/><path class="b9b91863-7974-4360-8d58-d1e570461d14" d="M127.82,90.62l-1.07,1c.17.19.33.37.5.54l1.06-1Z"/><path class="b9b91863-7974-4360-8d58-d1e570461d14" d="M132,94.6,131,95.71l.56.48.93-1.13Z"/><path class="b9b91863-7974-4360-8d58-d1e570461d14" d="M129.83,92.67l-1,1.06.54.51,1-1.07Z"/><path class="b9b91863-7974-4360-8d58-d1e570461d14" d="M130.88,93.65l-1,1.09.56.49.95-1.1Z"/><path class="b9b91863-7974-4360-8d58-d1e570461d14" d="M134.2,96.39l-.87,1.17.92.68.53-1.43Z"/><path class="b9b91863-7974-4360-8d58-d1e570461d14" d="M133.07,95.51l-.91,1.14.58.46.89-1.16Z"/><path class="b9b91863-7974-4360-8d58-d1e570461d14" d="M125.94,88.45l-1.13.92c.15.2.31.39.47.58l1.11-1Z"/><path class="b9b91863-7974-4360-8d58-d1e570461d14" d="M125.05,87.32l-1.16.89.46.59,1.14-.91Z"/><path class="b9b91863-7974-4360-8d58-d1e570461d14" d="M128.8,91.66l-1,1,.52.52,1-1Z"/><path class="b9b91863-7974-4360-8d58-d1e570461d14" d="M123.68,85.46,123,87l.44.6,1.17-.87Z"/><path class="b9b91863-7974-4360-8d58-d1e570461d14" d="M126.86,89.55l-1.1,1,.49.56,1.08-1Z"/><path class="b9b91863-7974-4360-8d58-d1e570461d14" d="M175.54,106.76l.22-.8A48.34,48.34,0,0,0,189.5,99.3c.26.68.59,1.7.81,2.36A51.19,51.19,0,0,0,207.8,82l-1.3-1.9v-.79a48.89,48.89,0,0,0,0-40.54h0L207.76,36a51.17,51.17,0,0,0-17.45-19.58c-.22.66-.55,1.68-.81,2.35a48.65,48.65,0,0,0-13.73-6.65l-.23-.83a49.18,49.18,0,0,0-27.56,0l-.24.84A48.44,48.44,0,0,0,134,18.77c-.26-.67-.6-1.69-.81-2.35a51.11,51.11,0,0,0-17.49,19.66L117,38v.79a48.89,48.89,0,0,0,0,40.54h0l-1.26,2.77a51.09,51.09,0,0,0,17.45,19.58c.21-.66.55-1.68.81-2.35A48.79,48.79,0,0,0,147.75,106l.23.8a49.18,49.18,0,0,0,27.56,0Zm-28.26-2.51.24.88A48.26,48.26,0,0,1,122.63,87l.81-2a45.58,45.58,0,0,1-7-16.22l1.29-1.57V50.59l-1.26-1.52a45.58,45.58,0,0,1,7-16l-.81-2A48.24,48.24,0,0,1,147.51,13l-.23.85a47.12,47.12,0,0,1,29,0L176,13a48.26,48.26,0,0,1,24.89,18.12l-.82,2a45.42,45.42,0,0,1,7.06,16.22l-1.3,1.57V67.49L207.09,69a45.58,45.58,0,0,1-7,16l.82,2A48.26,48.26,0,0,1,176,105.13l.24-.88a47.12,47.12,0,0,1-29,0Z"/><text class="fc7c9d7a-7d49-4454-8a17-76a94f2f5a16" transform="translate(228.8 22.87)">Мониторинг<tspan x="0" y="8.91">загазованности</tspan></text><text class="a97739d8-93a2-4ccb-94d1-28f10647990d" transform="translate(228.8 57.19)">Производственные<tspan x="0" y="8.91">показатели</tspan></text><text class="a97739d8-93a2-4ccb-94d1-28f10647990d" transform="translate(228.8 91.23)">Вспомогательные<tspan x="0" y="8.91">ресурсы</tspan></text><path class="e64fa0ea-3c50-4b8c-ae95-09fc9b83642b" d="M11,88.82H54.49A79.58,79.58,0,0,0,64.54,106.9H21.06A79.58,79.58,0,0,1,11,88.82Z"/><path class="bbfb39b0-8caf-47ad-83af-e68e0f5e73df" d="M22.13,10.31H65.6A80.1,80.1,0,0,0,55.06,28.39H11.58A80.14,80.14,0,0,1,22.13,10.31Z"/><path class="b0189b17-a5f2-46a3-bb92-e6370a182d63" d="M5.77,58A80,80,0,0,1,11.13,30.4H53.8A80,80,0,0,0,48.44,58Z"/><path class="bab7dc8a-0574-4f53-ad9b-e3fa7d04281f" d="M48.43,59.2v.11a80,80,0,0,0,4.84,27.5H10.6a80,80,0,0,1-4.84-27.5V59.2Z"/><text class="b42bd589-2c42-44e8-850e-76fa819fd271" transform="translate(26.65 97.52)">753.5</text><text class="b42bd589-2c42-44e8-850e-76fa819fd271" transform="translate(17.26 70.02)">11.10 </text><text class="b42bd589-2c42-44e8-850e-76fa819fd271" transform="translate(29.37 17.85)">4.3</text><text class="b42bd589-2c42-44e8-850e-76fa819fd271" transform="translate(20.85 43.14)">322</text><text class="f200f077-b340-4b79-9f19-dbba8984b17d" transform="translate(23.84 103.82)">мм.рт.ст</text><text class="f200f077-b340-4b79-9f19-dbba8984b17d" transform="translate(23.72 74.87) scale(0.58 0.58)">0</text><text class="f200f077-b340-4b79-9f19-dbba8984b17d" transform="translate(25.57 76.8)">C</text><text class="f200f077-b340-4b79-9f19-dbba8984b17d" transform="translate(29.67 24.15)">м/с</text><text class="f200f077-b340-4b79-9f19-dbba8984b17d" transform="translate(20.53 49.44)">град.</text><path class="be905992-7349-43c1-b735-0bda1ef16b2f" d="M97.39,59.2H45.48v.11a80,80,0,0,0,4.84,27.5h53.31A64.58,64.58,0,0,1,97.39,59.2Z"/><path class="acac4a56-4936-458c-b717-31d02a694532" d="M104,30.4H50.85A80,80,0,0,0,45.5,58H97.41A64.65,64.65,0,0,1,104,30.4Z"/><path class="b680cf51-9719-4fa6-8194-91903526cd5b" d="M119.47,10.31H61.91A79.73,79.73,0,0,0,51.37,28.39h53.69A64.91,64.91,0,0,1,119.47,10.31Z"/><path class="a5640fa2-4f47-4839-8551-07273fbd3dee" d="M104.63,88.82H50.79A80,80,0,0,0,60.84,106.9H118.5A64.78,64.78,0,0,1,104.63,88.82Z"/><text class="b93a57ae-c840-4b54-8ba2-08722db65b35" transform="translate(83 22.22) scale(0.99 1)">Ветер</text><text class="b93a57ae-c840-4b54-8ba2-08722db65b35" transform="translate(70.72 100.45) scale(0.99 1)">Давление</text><text class="b93a57ae-c840-4b54-8ba2-08722db65b35" transform="translate(52.8 46.29) scale(0.99 1)">Направление</text><text class="b93a57ae-c840-4b54-8ba2-08722db65b35" transform="translate(53.76 74.37) scale(0.99 1)">Температура</text><g class="b2a76283-6d56-4f03-b3fb-3ca385e3eac0"><g class="af0d90e0-58e4-4327-9438-6846d0e80923"><g class="ad101261-0db9-48ed-94a7-bef4441915b8"><g class="ad6366ee-b17f-4ee3-b8ad-2774bef6ef6a"><polyline class="ea16ce39-f989-40a6-a167-8b4344896c00" points="200.49 -10.9 199.94 -11.22 159.86 -5.53 175.59 3.54 200.49 -10.9"/><path class="fc1d95c1-7a93-45e9-8155-2c6610322472" d="M200.67-10.9,175.6,3.65l-16-9.22L200-11.3l.69.4m.18,0-.83-.48L159.59-5.63l-.22,0,16.14,9.3.09,0,25.16-14.6.09-.05"/><path class="bc834607-093b-4b8b-91d0-4f1b448bfe15" d="M159.86-5.53l40.08-5.69.55.32L175.59,3.54,159.86-5.53m40.81-5.37-.69-.4L159.61-5.57l16,9.22L200.67-10.9"/><polyline class="ea16ce39-f989-40a6-a167-8b4344896c00" points="223.23 2.2 201.31 -10.43 155.54 16.12 177.46 28.76 223.23 2.2"/><path class="fc1d95c1-7a93-45e9-8155-2c6610322472" d="M155.37,16.12l45.94-26.66L223.41,2.2,177.46,28.86,155.37,16.12M223.59,2.2,201.4-10.59l-.09-.05-46,26.71-.09.05,22.18,12.79.09.06,46-26.71.09-.06"/><path class="bc834607-093b-4b8b-91d0-4f1b448bfe15" d="M155.54,16.12l45.77-26.55L223.23,2.2,177.46,28.76,155.54,16.12M223.41,2.2l-22.1-12.74L155.37,16.12l22.09,12.74L223.41,2.2"/><polyline class="ea16ce39-f989-40a6-a167-8b4344896c00" points="237.25 10.29 224.59 2.99 201.85 16.19 214.51 23.48 237.25 10.29"/><path class="fc1d95c1-7a93-45e9-8155-2c6610322472" d="M201.67,16.19l22.92-13.3,12.84,7.39L214.51,23.59l-12.84-7.4m35.94-5.91L224.68,2.83l-.09-.05-23,13.36-.09.05,12.93,7.45.08.05,23-13.35.09-.06"/><path class="bc834607-093b-4b8b-91d0-4f1b448bfe15" d="M201.85,16.19,224.59,3l12.66,7.29L214.51,23.49l-12.66-7.3m35.58-5.91L224.59,2.89l-22.92,13.3,12.84,7.4,22.92-13.31"/><polyline class="ea16ce39-f989-40a6-a167-8b4344896c00" points="252.3 18.95 238.68 11.11 215.94 24.31 229.55 32.15 252.3 18.95"/><path class="fc1d95c1-7a93-45e9-8155-2c6610322472" d="M215.76,24.31,238.68,11l13.79,8-22.92,13.3-13.79-7.94M252.65,19l-13.88-8-.09,0-23,13.36-.09,0,13.88,8,.09,0,23-13.36.09-.05"/><path class="bc834607-093b-4b8b-91d0-4f1b448bfe15" d="M215.94,24.31l22.74-13.2L252.3,19l-22.75,13.2-13.61-7.84M252.47,19,238.68,11,215.76,24.31l13.79,7.94L252.47,19"/><polyline class="ea16ce39-f989-40a6-a167-8b4344896c00" points="267.41 27.66 253.75 19.78 231 32.99 244.67 40.86 267.41 27.66"/><path class="fc1d95c1-7a93-45e9-8155-2c6610322472" d="M230.82,33l22.93-13.31,13.84,8L244.66,41l-13.84-8m36.94-5.34-13.93-8-.09-.05-23,13.36-.09.05,13.93,8,.09.05,23-13.35.09-.06"/><path class="bc834607-093b-4b8b-91d0-4f1b448bfe15" d="M231,33l22.75-13.21,13.66,7.88-22.74,13.2L231,33m36.59-5.33-13.84-8L230.82,33l13.84,8,22.93-13.3"/><polyline class="ea16ce39-f989-40a6-a167-8b4344896c00" points="282.48 36.36 268.83 28.49 246.08 41.7 259.74 49.56 282.48 36.36"/><path class="fc1d95c1-7a93-45e9-8155-2c6610322472" d="M245.9,41.69l22.93-13.3,13.83,8-22.92,13.3-13.84-8m36.93-5.33-13.92-8-.08-.06-23,13.36-.09,0,13.93,8,.09,0,23-13.35.09,0"/><path class="bc834607-093b-4b8b-91d0-4f1b448bfe15" d="M246.08,41.69l22.75-13.2,13.65,7.87-22.74,13.2-13.66-7.87m36.58-5.33-13.83-8L245.9,41.69l13.84,8,22.92-13.3"/><polyline class="ea16ce39-f989-40a6-a167-8b4344896c00" points="297.3 44.9 283.71 37.07 237.94 63.62 274.48 84.69 297.3 44.9"/><path class="fc1d95c1-7a93-45e9-8155-2c6610322472" d="M237.76,63.62,283.71,37l13.73,7.91-22.9,39.94-36.78-21.2m59.83-18.76-13.88-8-46,26.72-.09,0,36.86,21.25.14.09,23-40,0,0"/><path class="bc834607-093b-4b8b-91d0-4f1b448bfe15" d="M237.94,63.62l45.77-26.55L297.3,44.9,274.48,84.69,237.94,63.62m59.5-18.74L283.71,37,237.76,63.62l36.78,21.2,22.9-39.94"/><polyline class="ea16ce39-f989-40a6-a167-8b4344896c00" points="213.18 24.23 200.48 16.92 190.28 22.84 202.98 30.15 213.18 24.23"/><path class="fc1d95c1-7a93-45e9-8155-2c6610322472" d="M190.1,22.83l10.38-6,12.87,7.42-10.37,6L190.1,22.83m23.43,1.4-13.05-7.52-10.55,6.12,13,7.53,10.55-6.13"/><path class="bc834607-093b-4b8b-91d0-4f1b448bfe15" d="M190.28,22.84l10.2-5.92,12.7,7.31L203,30.15l-12.7-7.31m23.07,1.39-12.87-7.42-10.38,6L203,30.26l10.37-6"/><polyline class="ea16ce39-f989-40a6-a167-8b4344896c00" points="228.27 32.93 214.61 25.06 204.41 30.98 218.07 38.85 228.27 32.93"/><path class="fc1d95c1-7a93-45e9-8155-2c6610322472" d="M204.23,31l10.38-6,13.83,8-10.37,6-13.84-8m24.39,2-14-8.08L204.06,31l14,8.08,10.56-6.12"/><path class="bc834607-093b-4b8b-91d0-4f1b448bfe15" d="M204.41,31l10.2-5.92,13.66,7.87-10.2,5.92L204.41,31m24,2-13.83-8-10.38,6,13.84,8,10.37-6"/><polyline class="ea16ce39-f989-40a6-a167-8b4344896c00" points="243.36 41.64 229.71 33.76 219.5 39.68 233.16 47.55 243.36 41.64"/><path class="fc1d95c1-7a93-45e9-8155-2c6610322472" d="M219.33,39.68l10.37-6,13.83,8-10.37,6-13.83-8m24.38,2-14-8.07-10.55,6.12,14,8.07,10.55-6.12"/><path class="bc834607-093b-4b8b-91d0-4f1b448bfe15" d="M219.51,39.68l10.2-5.92,13.65,7.88-10.2,5.91-13.65-7.87m24,2-13.83-8-10.37,6,13.83,8,10.37-6"/><polyline class="ea16ce39-f989-40a6-a167-8b4344896c00" points="258.44 50.33 244.8 42.46 234.59 48.38 248.24 56.25 258.44 50.33"/><path class="fc1d95c1-7a93-45e9-8155-2c6610322472" d="M234.41,48.38l10.38-6,13.83,8-10.37,6-13.84-8m24.39,1.95-14-8.07-10.55,6.12,14,8.07,10.55-6.12"/><path class="bc834607-093b-4b8b-91d0-4f1b448bfe15" d="M234.59,48.38l10.21-5.92,13.64,7.87-10.2,5.92-13.65-7.87m24,1.95-13.83-8-10.38,6,13.84,8,10.37-6"/><polyline class="ea16ce39-f989-40a6-a167-8b4344896c00" points="201.67 30.91 188.97 23.6 178.76 29.51 191.47 36.83 201.67 30.91"/><path class="fc1d95c1-7a93-45e9-8155-2c6610322472" d="M178.59,29.51l10.38-6,12.87,7.43-10.38,6-12.87-7.42M202,30.92,189,23.39l-10.56,6.13L191.46,37,202,30.92"/><path class="bc834607-093b-4b8b-91d0-4f1b448bfe15" d="M178.76,29.51,189,23.6l12.7,7.31-10.2,5.92-12.71-7.32m23.08,1.41L189,23.49l-10.38,6,12.87,7.42,10.38-6"/><polyline class="ea16ce39-f989-40a6-a167-8b4344896c00" points="216.75 39.61 203.11 31.74 192.9 37.66 206.56 45.53 216.75 39.61"/><path class="fc1d95c1-7a93-45e9-8155-2c6610322472" d="M192.73,37.66l10.38-6,13.82,8-10.37,6-13.83-8m24.38,2-14-8.07-10.55,6.12,14,8.08,10.55-6.13"/><path class="bc834607-093b-4b8b-91d0-4f1b448bfe15" d="M192.9,37.66l10.21-5.92,13.64,7.87-10.19,5.92L192.9,37.66m24,2-13.82-8-10.38,6,13.83,8,10.37-6"/><polyline class="ea16ce39-f989-40a6-a167-8b4344896c00" points="231.84 48.31 218.19 40.44 207.99 46.36 221.64 54.23 231.84 48.31"/><path class="fc1d95c1-7a93-45e9-8155-2c6610322472" d="M207.81,46.36l10.38-6,13.83,8-10.38,6-13.83-8m24.39,2-14-8.07-10.55,6.12,14,8.07,10.55-6.12"/><path class="bc834607-093b-4b8b-91d0-4f1b448bfe15" d="M208,46.36l10.2-5.92,13.65,7.87-10.2,5.92L208,46.36m24,2-13.83-8-10.38,6,13.83,8,10.38-6"/><polyline class="ea16ce39-f989-40a6-a167-8b4344896c00" points="246.94 57.01 233.28 49.14 223.09 55.06 236.73 62.93 246.94 57.01"/><path class="fc1d95c1-7a93-45e9-8155-2c6610322472" d="M222.91,55.06l10.37-6,13.83,8-10.38,6-13.82-8M247.29,57l-14-8.08-10.55,6.13,14,8.07L247.29,57"/><path class="bc834607-093b-4b8b-91d0-4f1b448bfe15" d="M223.09,55.06l10.19-5.92L246.94,57l-10.21,5.92-13.64-7.87m24,1.95-13.83-8-10.37,6,13.82,8,10.38-6"/><polyline class="ea16ce39-f989-40a6-a167-8b4344896c00" points="174.2 4.24 157.92 -5.15 134.63 -2.73 160.5 12.18 174.2 4.24"/><path class="fc1d95c1-7a93-45e9-8155-2c6610322472" d="M174.38,4.24l-13.88,8L134.37-2.78,158-5.23l16.42,9.47m.18,0L158.05-5.28l0,0-23.9,2.48,26.3,15.16.09.05,14-8.1.09,0"/><path class="bc834607-093b-4b8b-91d0-4f1b448bfe15" d="M134.63-2.73l23.29-2.42L174.2,4.24l-13.7,7.94L134.63-2.73m39.75,7L158-5.23,134.37-2.78,160.5,12.29l13.88-8"/><polyline class="ea16ce39-f989-40a6-a167-8b4344896c00" points="173.64 28.41 153.94 17.05 139.49 25.43 159.19 36.79 173.64 28.41"/><path class="fc1d95c1-7a93-45e9-8155-2c6610322472" d="M139.32,25.44,153.94,17,173.81,28.4l-14.62,8.49L139.32,25.44m34.67,3L154,16.89l-.09-.05-14.71,8.55-.09.05,20,11.5.09.06,14.71-8.55.09-.05"/><path class="bc834607-093b-4b8b-91d0-4f1b448bfe15" d="M139.49,25.44l14.45-8.39,19.7,11.36-14.45,8.38-19.7-11.35m34.32,3L153.94,17l-14.62,8.49,19.87,11.45,14.62-8.49"/><polyline class="ea16ce39-f989-40a6-a167-8b4344896c00" points="159.03 13.04 144.55 4.68 124.08 16.55 138.57 24.91 159.03 13.04"/><path class="fc1d95c1-7a93-45e9-8155-2c6610322472" d="M123.9,16.56l20.64-12L159.21,13,138.57,25,123.9,16.56M159.39,13l-14.76-8.5-.09,0-20.73,12-.08.05,14.75,8.51.09.05,20.73-12,.09-.06"/><path class="bc834607-093b-4b8b-91d0-4f1b448bfe15" d="M124.08,16.56,144.55,4.68,159,13,138.57,24.9l-14.49-8.34M159.21,13,144.54,4.58l-20.64,12L138.57,25l20.64-12"/><polyline class="ea16ce39-f989-40a6-a167-8b4344896c00" points="190.31 38.01 174.89 29.12 160.44 37.51 175.85 46.4 190.31 38.01"/><path class="fc1d95c1-7a93-45e9-8155-2c6610322472" d="M160.26,37.51,174.88,29l15.6,9L175.86,46.5l-15.6-9m30.4.5L175,29l-.09,0-14.71,8.54-.09,0,15.69,9,.09.05,14.71-8.54.09-.05"/><path class="bc834607-093b-4b8b-91d0-4f1b448bfe15" d="M160.44,37.51l14.45-8.39L190.3,38l-14.44,8.38-15.42-8.88m30,.5-15.6-9-14.62,8.49,15.6,9L190.48,38"/><polyline class="ea16ce39-f989-40a6-a167-8b4344896c00" points="217.7 53.8 191.21 38.53 176.76 46.92 203.25 62.19 217.7 53.8"/><path class="fc1d95c1-7a93-45e9-8155-2c6610322472" d="M176.58,46.92l14.62-8.49L217.88,53.8l-14.63,8.49L176.58,46.92M218,53.8,191.29,38.38l-.08-.05-14.72,8.54-.08.05,26.75,15.42.08,0L218,53.85l.08-.05"/><path class="bc834607-093b-4b8b-91d0-4f1b448bfe15" d="M176.76,46.92l14.45-8.39L217.7,53.8l-14.45,8.39L176.76,46.92m41.12,6.88L191.2,38.43l-14.62,8.49,26.67,15.37,14.63-8.49"/><polyline class="ea16ce39-f989-40a6-a167-8b4344896c00" points="239.27 66.24 218.22 54.1 203.77 62.49 224.81 74.62 239.27 66.24"/><path class="fc1d95c1-7a93-45e9-8155-2c6610322472" d="M203.59,62.49,218.22,54l21.23,12.24-14.63,8.48L203.59,62.49m36,3.75L218.31,54l-.09-.05-14.71,8.54-.09.05,21.31,12.28.09.06,14.72-8.54.08-.05"/><path class="bc834607-093b-4b8b-91d0-4f1b448bfe15" d="M203.77,62.49l14.45-8.39,21.05,12.14-14.46,8.38-21-12.13m35.68,3.75L218.22,54l-14.63,8.49,21.23,12.23,14.63-8.48"/><polyline class="ea16ce39-f989-40a6-a167-8b4344896c00" points="273.62 86.04 240.03 66.68 225.57 75.06 266.73 98.79 273.62 86.04"/><path class="fc1d95c1-7a93-45e9-8155-2c6610322472" d="M225.4,75.06,240,66.57,273.76,86l-7,12.9L225.4,75.06M273.9,86,240.12,66.52l-.09,0L225.31,75l-.09,0L266.7,99l.15.09,7-13v0"/><path class="bc834607-093b-4b8b-91d0-4f1b448bfe15" d="M225.57,75.06,240,66.68,273.62,86l-6.89,12.75L225.57,75.06m48.19,11L240,66.57,225.4,75.06l41.39,23.86,7-12.9"/><polyline class="ea16ce39-f989-40a6-a167-8b4344896c00" points="143.4 3.75 132.73 -2.41 100.36 -0.3 97.34 1.44 122.44 15.91 143.4 3.75"/><path class="fc1d95c1-7a93-45e9-8155-2c6610322472" d="M143.58,3.75,122.44,16,97.17,1.44,100.3-.37l32.47-2.12,10.81,6.24m.18,0L132.82-2.56,100.29-.45h-.05L97,1.44l25.36,14.62.09.05L143.67,3.8l.09,0"/><path class="bc834607-093b-4b8b-91d0-4f1b448bfe15" d="M97.35,1.44l3-1.74,32.37-2.11L143.4,3.75l-21,12.16L97.35,1.44m46.23,2.31L132.77-2.49,100.3-.37,97.17,1.44,122.44,16,143.58,3.75"/><polyline class="ea16ce39-f989-40a6-a167-8b4344896c00" points="137.81 25.34 122.94 16.77 89.46 36.2 104.33 44.77 137.81 25.34"/><path class="fc1d95c1-7a93-45e9-8155-2c6610322472" d="M89.28,36.2l33.66-19.53L138,25.34,104.34,44.87,89.28,36.2m48.89-10.86L123,16.61l-.09-.05L89.19,36.14l-.09.06,15.15,8.72.09.06,33.74-19.59.09-.05"/><path class="bc834607-093b-4b8b-91d0-4f1b448bfe15" d="M89.46,36.2l33.48-19.43,14.87,8.57L104.33,44.77,89.46,36.2M138,25.34l-15.05-8.67L89.28,36.2l15.06,8.67L138,25.34"/><polyline class="ea16ce39-f989-40a6-a167-8b4344896c00" points="150.37 32.58 138.74 25.87 105.25 45.3 116.88 52.01 150.37 32.58"/><path class="fc1d95c1-7a93-45e9-8155-2c6610322472" d="M105.08,45.3l33.65-19.53,11.81,6.81L116.88,52.11l-11.8-6.81m45.64-12.72-12-6.91L105,45.25l-.09,0,12,6.91,33.75-19.58.09-.05"/><path class="bc834607-093b-4b8b-91d0-4f1b448bfe15" d="M105.25,45.3l33.49-19.43,11.63,6.71L116.88,52,105.25,45.3m45.29-12.72-11.81-6.81L105.08,45.3l11.8,6.81,33.66-19.53"/><polyline class="ea16ce39-f989-40a6-a167-8b4344896c00" points="171.75 44.91 151.46 33.21 117.98 52.64 138.27 64.33 171.75 44.91"/><path class="fc1d95c1-7a93-45e9-8155-2c6610322472" d="M117.8,52.64l33.66-19.53,20.47,11.8L138.27,64.44,117.8,52.64m54.3-7.73L151.55,33.05l-.09,0L117.71,52.59l-.09,0,20.56,11.85.09.05L172,45l.08-.05"/><path class="bc834607-093b-4b8b-91d0-4f1b448bfe15" d="M118,52.64l33.48-19.43,20.29,11.7L138.27,64.33,118,52.64m54-7.73-20.47-11.8L117.8,52.64l20.47,11.8,33.66-19.53"/><polyline class="ea16ce39-f989-40a6-a167-8b4344896c00" points="121.92 16.2 96.83 1.74 63.37 21.16 88.46 35.62 121.92 16.2"/><path class="fc1d95c1-7a93-45e9-8155-2c6610322472" d="M63.19,21.16,96.83,1.64,122.1,16.21,88.46,35.72,63.19,21.16m59.09-4.95L96.92,1.59l-.09-.06L63.1,21.1l-.09.06L88.37,35.78l.09,0,33.73-19.57.09-.05"/><path class="bc834607-093b-4b8b-91d0-4f1b448bfe15" d="M63.37,21.16,96.83,1.74l25.09,14.47L88.46,35.62,63.37,21.16m58.73-4.95L96.83,1.64,63.19,21.16,88.46,35.72,122.1,16.21"/><polyline class="ea16ce39-f989-40a6-a167-8b4344896c00" points="175.73 55.99 165.15 49.89 139.26 64.91 149.84 71.01 175.73 55.99"/><path class="fc1d95c1-7a93-45e9-8155-2c6610322472" d="M139.09,64.91l26-15.12L175.91,56,149.84,71.11l-10.75-6.2m37-8.92-11-6.31L139,64.86l-.09,0,10.94,6.3L176,56l.09,0"/><path class="bc834607-093b-4b8b-91d0-4f1b448bfe15" d="M139.27,64.91l25.88-15L175.73,56,149.84,71l-10.57-6.1M175.91,56l-10.77-6.2-26,15.12,10.75,6.2L175.91,56"/><polyline class="ea16ce39-f989-40a6-a167-8b4344896c00" points="205.67 73.25 176.86 56.64 150.97 71.66 179.78 88.26 205.67 73.25"/><path class="fc1d95c1-7a93-45e9-8155-2c6610322472" d="M150.79,71.66l26.07-15.12,29,16.71L179.78,88.37l-29-16.71M206,73.25,177,56.48l-.09,0L150.71,71.61l-.09,0,29.07,16.76.09,0L205.93,73.3l.09,0"/><path class="bc834607-093b-4b8b-91d0-4f1b448bfe15" d="M151,71.66l25.89-15,28.81,16.61-25.89,15L151,71.66m54.88,1.59-29-16.71L150.79,71.66l29,16.71,26.07-15.12"/><polyline class="ea16ce39-f989-40a6-a167-8b4344896c00" points="229.73 87.12 206.79 73.9 180.91 88.92 203.83 102.13 229.73 87.12"/><path class="fc1d95c1-7a93-45e9-8155-2c6610322472" d="M180.73,88.92l26.06-15.13L229.9,87.12l-26.07,15.12-23.1-13.32m49.35-1.81-23.2-13.37-.09,0L180.64,88.86l-.08.06,23.19,13.37.09,0L230,87.16l.09,0"/><path class="bc834607-093b-4b8b-91d0-4f1b448bfe15" d="M180.91,88.92l25.88-15,22.94,13.22-25.9,15L180.91,88.92m49-1.8L206.79,73.79,180.73,88.92l23.1,13.32L229.9,87.12"/><polyline class="ea16ce39-f989-40a6-a167-8b4344896c00" points="261.78 105.59 230.88 87.78 216.86 95.92 247.76 113.72 261.78 105.59"/><path class="fc1d95c1-7a93-45e9-8155-2c6610322472" d="M216.69,95.92l14.19-8.24L262,105.59l-14.19,8.24L216.69,95.92m45.44,9.67L231,87.63l-.08,0L216.6,95.87l-.09,0,31.16,18,.09.05L262,105.64l.09,0"/><path class="bc834607-093b-4b8b-91d0-4f1b448bfe15" d="M216.86,95.92l14-8.14,30.9,17.81-14,8.13-30.9-17.8M262,105.59,230.88,87.68l-14.19,8.24,31.07,17.91L262,105.59"/><polyline class="ea16ce39-f989-40a6-a167-8b4344896c00" points="246.02 114.58 215.26 96.85 205 102.81 235.75 120.53 246.02 114.58"/><path class="fc1d95c1-7a93-45e9-8155-2c6610322472" d="M204.82,102.8l10.44-6.06,30.94,17.84-10.45,6.06L204.82,102.8m41.56,11.78-31-17.89-.09,0-10.62,6.15,31,17.89.09,0,10.63-6.16"/><path class="bc834607-093b-4b8b-91d0-4f1b448bfe15" d="M205,102.8l10.27-6L246,114.58l-10.27,6L205,102.8m41.21,11.78L215.26,96.74l-10.44,6.06,30.93,17.84,10.45-6.06"/><polyline class="ea16ce39-f989-40a6-a167-8b4344896c00" points="275.79 125.17 252.82 111.93 236.87 121.18 259.85 134.42 275.79 125.17"/><path class="fc1d95c1-7a93-45e9-8155-2c6610322472" d="M236.69,121.18l16.12-9.35L276,125.17l-16.12,9.35-23.15-13.34m39.45,4L252.9,111.78l-.09,0-16.2,9.4-.09.05,23.23,13.39.09.05,16.21-9.4.09,0"/><path class="bc834607-093b-4b8b-91d0-4f1b448bfe15" d="M236.87,121.18l15.95-9.25,23,13.24-16,9.25-23-13.24m39.09,4-23.15-13.34-16.12,9.35,23.15,13.34L276,125.17"/><polyline class="ea16ce39-f989-40a6-a167-8b4344896c00" points="93.1 63.37 73.24 51.92 59.81 59.72 79.66 71.16 93.1 63.37"/><path class="fc1d95c1-7a93-45e9-8155-2c6610322472" d="M59.64,59.72l13.6-7.9,20,11.55-13.62,7.9-20-11.55m33.82,3.65L73.32,51.77l-.08-.05-13.69,8-.09,0,20.12,11.6.09.05,13.7-8,.09-.05"/><path class="bc834607-093b-4b8b-91d0-4f1b448bfe15" d="M59.81,59.72l13.43-7.8L93.1,63.37,79.66,71.16,59.81,59.72m33.47,3.65-20-11.55-13.6,7.9,20,11.55,13.62-7.9"/><polyline class="ea16ce39-f989-40a6-a167-8b4344896c00" points="134.29 63.67 115.38 52.78 98.42 62.62 117.32 73.52 134.29 63.67"/><path class="fc1d95c1-7a93-45e9-8155-2c6610322472" d="M98.24,62.62l17.14-9.94,19.08,11-17.14,9.94-19.08-11m36.4,1.06L115.47,52.62l-.09,0-17.23,10-.09,0,19.17,11.05.09,0,17.23-10,.09,0"/><path class="bc834607-093b-4b8b-91d0-4f1b448bfe15" d="M98.41,62.62l17-9.84,18.91,10.89-17,9.85L98.41,62.62m36.05,1.06-19.08-11L98.24,62.62l19.08,11,17.14-9.94"/><polyline class="ea16ce39-f989-40a6-a167-8b4344896c00" points="116.67 74.57 97.77 63.67 82.26 72.66 101.17 83.56 116.67 74.57"/><path class="fc1d95c1-7a93-45e9-8155-2c6610322472" d="M82.09,72.66l15.67-9.09,19.09,11-15.68,9.09-19.08-11M117,74.57,97.85,63.51l-.08,0L82,72.61l-.09,0,19.17,11,.08.06,15.77-9.15.09-.05"/><path class="bc834607-093b-4b8b-91d0-4f1b448bfe15" d="M82.26,72.66l15.51-9,18.9,10.9-15.5,9L82.26,72.66m34.59,1.91-19.09-11L82.09,72.66l19.08,11,15.68-9.09"/><polyline class="ea16ce39-f989-40a6-a167-8b4344896c00" points="132.6 83.75 118.11 75.4 102.62 84.39 117.1 92.74 132.6 83.75"/><path class="fc1d95c1-7a93-45e9-8155-2c6610322472" d="M102.44,84.39l15.67-9.09,14.67,8.45-15.68,9.1-14.66-8.46M133,83.75l-14.76-8.5-.09,0-15.76,9.14-.09,0L117,92.9l.08,0,15.77-9.15.09,0"/><path class="bc834607-093b-4b8b-91d0-4f1b448bfe15" d="M102.62,84.39l15.49-9,14.49,8.35-15.5,9-14.48-8.35m30.16-.64L118.11,75.3l-15.67,9.09,14.66,8.46,15.68-9.1"/><polyline class="ea16ce39-f989-40a6-a167-8b4344896c00" points="158.64 98.77 134.04 84.58 126.38 89.03 150.98 103.21 158.64 98.77"/><path class="fc1d95c1-7a93-45e9-8155-2c6610322472" d="M126.21,89,134,84.48l24.78,14.29L151,103.31,126.21,89M159,98.76,134.13,84.43l-.09-.05L126,89l24.86,14.33.09,0,8-4.65"/><path class="bc834607-093b-4b8b-91d0-4f1b448bfe15" d="M126.38,89,134,84.58l24.6,14.19L151,103.21,126.38,89m32.44,9.74L134,84.48,126.21,89,151,103.31l7.85-4.54"/><polyline class="ea16ce39-f989-40a6-a167-8b4344896c00" points="183.27 112.96 160.16 99.64 135.31 114.06 158.42 127.38 183.27 112.96"/><path class="fc1d95c1-7a93-45e9-8155-2c6610322472" d="M135.13,114.06l25-14.52L183.45,113l-25,14.52-23.29-13.42m48.49-1.1L160.24,99.48l-.08,0L135,114l-.09.06,23.38,13.47.09,0L183.54,113l.08-.05"/><path class="bc834607-093b-4b8b-91d0-4f1b448bfe15" d="M135.31,114.06l24.85-14.42L183.27,113l-24.85,14.42-23.11-13.32m48.14-1.1L160.16,99.54l-25,14.52,23.29,13.42,25-14.52"/><polyline class="ea16ce39-f989-40a6-a167-8b4344896c00" points="174.35 138.11 133.78 114.72 124.35 120.2 164.92 143.59 174.35 138.11"/><path class="fc1d95c1-7a93-45e9-8155-2c6610322472" d="M124.17,120.2l9.61-5.58,40.75,23.49-9.61,5.58L124.17,120.2m50.54,17.91-40.84-23.54-.09,0L124,120.2l40.84,23.54.09,0,9.79-5.68"/><path class="bc834607-093b-4b8b-91d0-4f1b448bfe15" d="M124.35,120.2l9.43-5.48,40.57,23.39-9.43,5.48L124.35,120.2m50.18,17.91-40.75-23.49-9.61,5.58,40.75,23.49,9.61-5.58"/><polyline class="ea16ce39-f989-40a6-a167-8b4344896c00" points="216.14 131.91 184.44 113.64 159.58 128.06 191.29 146.33 216.14 131.91"/><path class="fc1d95c1-7a93-45e9-8155-2c6610322472" d="M159.41,128.05l25-14.52,31.88,18.38-25,14.53-31.88-18.39m57.09,3.86-32-18.43-.08,0L159.32,128l-.09.05,32,18.44.09,0L216.41,132l.09-.05"/><path class="bc834607-093b-4b8b-91d0-4f1b448bfe15" d="M159.58,128.06l24.86-14.42,31.7,18.27-24.85,14.42-31.71-18.27m56.74,3.85-31.88-18.38-25,14.52,31.88,18.39,25-14.53"/><polyline class="ea16ce39-f989-40a6-a167-8b4344896c00" points="149.91 103.82 125.32 89.65 118.64 93.52 143.24 107.7 149.91 103.82"/><path class="fc1d95c1-7a93-45e9-8155-2c6610322472" d="M118.47,93.52l6.85-4,24.77,14.28-6.85,4L118.47,93.52m31.79,10.31L125.41,89.49l-.09,0-7,4.08,24.87,14.33.08.05,7-4.07"/><path class="bc834607-093b-4b8b-91d0-4f1b448bfe15" d="M118.64,93.52l6.68-3.87,24.59,14.17-6.67,3.88-24.6-14.18m31.45,10.3L125.32,89.54l-6.85,4,24.77,14.28,6.85-4"/><polyline class="ea16ce39-f989-40a6-a167-8b4344896c00" points="141.8 108.54 80.92 73.44 61.91 84.48 122.78 119.57 141.8 108.54"/><path class="fc1d95c1-7a93-45e9-8155-2c6610322472" d="M61.73,84.48,80.92,73.34,142,108.54l-19.19,11.13-61-35.19m80.42,24.06L81,73.29l-.09-.05L61.64,84.43l-.09,0,61.14,35.25.09,0,19.28-11.19.09,0"/><path class="bc834607-093b-4b8b-91d0-4f1b448bfe15" d="M61.91,84.48l19-11,60.88,35.1-19,11L61.91,84.48M142,108.54l-61-35.2L61.73,84.48l61.05,35.19L142,108.54"/><polyline class="ea16ce39-f989-40a6-a167-8b4344896c00" points="176.35 87.92 136.06 64.69 119.08 74.54 159.38 97.77 176.35 87.92"/><path class="fc1d95c1-7a93-45e9-8155-2c6610322472" d="M118.9,74.54l17.16-10,40.46,23.33-17.14,10L118.9,74.54m57.8,13.38L136.14,64.54l-.08-.05-17.24,10-.08.05,40.55,23.38.09,0,17.23-10,.09-.06"/><path class="bc834607-093b-4b8b-91d0-4f1b448bfe15" d="M119.08,74.54l17-9.85,40.29,23.23-17,9.85-40.3-23.23m57.44,13.38L136.06,64.59l-17.16,10,40.48,23.33,17.14-10"/><polyline class="ea16ce39-f989-40a6-a167-8b4344896c00" points="200.81 102.02 177.7 88.7 160.73 98.54 183.84 111.87 200.81 102.02"/><path class="fc1d95c1-7a93-45e9-8155-2c6610322472" d="M160.55,98.54l17.15-10L201,102l-17.14,10L160.55,98.54M201.16,102,177.79,88.54l-.09-.05-17.24,10-.08.05L183.75,112l.09,0,17.23-10,.09-.06"/><path class="bc834607-093b-4b8b-91d0-4f1b448bfe15" d="M160.73,98.54l17-9.84L200.81,102l-17,9.85L160.73,98.54M201,102,177.7,88.59l-17.15,10L183.84,112,201,102"/><polyline class="ea16ce39-f989-40a6-a167-8b4344896c00" points="234.1 121.64 202.4 103.36 185.43 113.21 217.14 131.49 234.1 121.64"/><path class="fc1d95c1-7a93-45e9-8155-2c6610322472" d="M185.26,113.21l17.15-9.94,31.87,18.38-17.14,9.94-31.88-18.38m49.2,8.44-32-18.43-.09,0-17.23,10-.09,0,32,18.43.09.05,17.23-10,.09,0"/><path class="bc834607-093b-4b8b-91d0-4f1b448bfe15" d="M185.43,113.21l17-9.84,31.7,18.28-17,9.84-31.71-18.28m48.85,8.44-31.87-18.38-17.15,9.94,31.88,18.38,17.14-9.94"/><polyline class="ea16ce39-f989-40a6-a167-8b4344896c00" points="84.63 35.05 61.96 21.98 28.25 41.53 50.93 54.59 84.63 35.05"/><path class="fc1d95c1-7a93-45e9-8155-2c6610322472" d="M28.08,41.53,62,21.87,84.81,35.05,50.93,54.7,28.08,41.53M85,35.05,62,21.82,62,21.77,28,41.48l-.08.05L50.84,54.75l.09,0,34-19.71.08,0"/><path class="bc834607-093b-4b8b-91d0-4f1b448bfe15" d="M28.25,41.53,62,22,84.63,35.05,50.93,54.59,28.25,41.53m56.56-6.48L62,21.87,28.08,41.53,50.93,54.7,84.81,35.05"/><polyline class="ea16ce39-f989-40a6-a167-8b4344896c00" points="113.36 51.62 86.47 36.11 52.77 55.66 57.35 58.3 72.05 49.77 72.14 49.82 94.37 62.63 113.36 51.62"/><path class="fc1d95c1-7a93-45e9-8155-2c6610322472" d="M52.6,55.66,86.47,36l27.07,15.6L94.37,62.73,72.05,49.87,57.35,58.4,52.6,55.66m61.12-4L86.56,36l-.09-.06-34,19.71-.09,0,4.93,2.84L72.05,50,94.29,62.78l.09.06,19.25-11.17.09-.06"/><path class="bc834607-093b-4b8b-91d0-4f1b448bfe15" d="M52.77,55.66l33.7-19.55,26.9,15.5-19,11L72.14,49.82l-.09-.06-14.7,8.53-4.58-2.63m60.77-4L86.47,36,52.6,55.66l4.75,2.74,14.7-8.53L94.37,62.73l19.17-11.12"/></g></g></g></g><path class="b9b91863-7974-4360-8d58-d1e570461d14" d="M170.94,66.73h-.53c0-.34,0-.66,0-1a1.88,1.88,0,0,0-.06-.58c-.57-1.89-1.14-3.78-1.74-5.67a7.42,7.42,0,0,1-.5-3c0-.39-.13-.52-.51-.52h-3.94c-.42,0-.55.13-.55.55v.9c-.49.07-.61.14-.64.38s.08.37.49.51l-.69,2.26a.17.17,0,0,1-.08-.13c0-.46,0-.92,0-1.38s-.13-.53-.53-.54h-2.91a.42.42,0,0,0-.46.47c0,.13,0,.26,0,.39A4,4,0,0,1,158,61c-.23.65-.41,1.32-.61,2h-.06c0-.06,0-.13,0-.19s0-.34,0-.51c0-.4-.13-.52-.52-.52h-1.67c-.4,0-.53.12-.52.53a3.34,3.34,0,0,1-.17,1.18c-.24.75-.47,1.49-.69,2.25a8.43,8.43,0,0,0-.18.9c0,.11-.06.14-.16.14s-.43,0-.65,0a.41.41,0,0,0-.05.79,1,1,0,0,0,.24,0h17.94c.3,0,.47-.16.47-.41S171.24,66.73,170.94,66.73Zm-14.11-1.92a3.06,3.06,0,0,1-.13.43,2.78,2.78,0,0,0-.18,1.24c0,.16,0,.23-.2.22s-.57,0-.85,0h0c-.28,0-.57,0-.86,0-.12,0-.18,0-.16-.16a2.84,2.84,0,0,1,.06-.31c.29-1,.59-1.92.88-2.89a3.84,3.84,0,0,0,.11-.59c0-.12,0-.19.17-.19h.71a.22.22,0,0,1,.13.12c.12.58.23,1.17.33,1.75A1.15,1.15,0,0,1,156.83,64.81Zm4.14,0c0,.12-.09.17-.22.17-.4,0-.59.14-.6.41s.18.41.58.44l.08,0v.73c0,.15-.11.12-.2.12h-2.83c-.39,0-.37,0-.39-.39a3.49,3.49,0,0,1,.3-1.35c.43-1.45.89-2.89,1.31-4.35a3.33,3.33,0,0,0,.08-.95c0-.19,0-.25.24-.25h1.81c.1,0,.2,0,.19.14a12.34,12.34,0,0,0,.34,2.71.57.57,0,0,1,0,.29C161.43,63.32,161.19,64.07,161,64.82Zm8.27,1.89H161.9c-.26,0-.26,0-.26-.26v-.62h5.21a.44.44,0,0,0,.48-.29.41.41,0,0,0-.42-.54c-.68,0-1.36,0-2,0h-3.06c0-.09,0-.15.05-.21l1.92-6.28c0-.14.1-.19.24-.18h1.7c.31,0,.49-.16.48-.42s-.18-.41-.49-.41H164v-.64h3.32c0,.18,0,.36,0,.53a3.21,3.21,0,0,0,.16,1.11q1.06,3.41,2.09,6.83a4.45,4.45,0,0,1,.06,1C169.59,66.77,169.63,66.71,169.24,66.71Z"/><path class="b9b91863-7974-4360-8d58-d1e570461d14" d="M156.75,54.63a3.15,3.15,0,0,0,3.31-1.15,2.09,2.09,0,0,1,.14-.17,2.71,2.71,0,0,0,2.86.36c.05.1.08.19.12.27a2.68,2.68,0,0,0,5.1-1,2.66,2.66,0,0,0-1.74-2.64.31.31,0,0,1-.22-.25,2.66,2.66,0,0,0-3.83-1.77.26.26,0,0,1-.38-.06,2.64,2.64,0,0,0-3.8,0,.55.55,0,0,1-.52.2A3.17,3.17,0,0,0,154.41,52,3.22,3.22,0,0,0,156.75,54.63Zm.83-5.43a2.29,2.29,0,0,1,1.92,1.06.77.77,0,0,0,.28.26.38.38,0,0,0,.46-.13.42.42,0,0,0,0-.5,3.22,3.22,0,0,0-1.11-1.09l-.16-.1a1.78,1.78,0,0,1,2.65.22,2.63,2.63,0,0,0-.56,1.22,4.07,4.07,0,0,0-.05.61.41.41,0,0,0,.44.46c.25,0,.4-.2.4-.5a1.84,1.84,0,0,1,3.59-.64l-.44.07a2.47,2.47,0,0,0-1.07.51.45.45,0,0,0-.09.69c.18.2.43.17.66,0a1.49,1.49,0,0,1,1.16-.38,1.83,1.83,0,0,1,1.76,1.68,1.85,1.85,0,0,1-3.54.9,2,2,0,0,1-.13-.55c0-.27-.12-.4-.33-.46s-.29,0-.5.22a1.55,1.55,0,0,1-.71.33,1.77,1.77,0,0,1-1.85-.77l-.13-.2a.41.41,0,0,0-.71.41.27.27,0,0,1,0,.32,2.32,2.32,0,0,1-2.7,1,2.36,2.36,0,0,1-1.6-2.39A2.33,2.33,0,0,1,157.58,49.2Z"/><path class="b9b91863-7974-4360-8d58-d1e570461d14" d="M165.71,60.78a1.48,1.48,0,1,0,1.46,1.49A1.47,1.47,0,0,0,165.71,60.78Zm0,2.12a.65.65,0,0,1-.64-.65.64.64,0,1,1,1.28,0A.65.65,0,0,1,165.7,62.9Z"/><path class="b9b91863-7974-4360-8d58-d1e570461d14" d="M157.56,53.42c.34,0,.53-.14.54-.41s-.15-.42-.52-.43a1.08,1.08,0,0,1-1.05-1,.42.42,0,0,0-.47-.4.43.43,0,0,0-.35.51A1.91,1.91,0,0,0,157.56,53.42Z"/></g></svg>