<svg id="ea853be8-70b4-40ec-b6a1-a828b62e35c0" data-name="1" xmlns="http://www.w3.org/2000/svg" xmlns:xlink="http://www.w3.org/1999/xlink" viewBox="0 0 324 116.75"><defs><style>.bfc3088a-7ff3-46c7-8c7b-3caa5d2def14{font-size:6px;}.af3c6a1e-feea-42d0-970f-7793a5a33ea3,.bb9e0b5c-24a9-4d8f-9b79-c8a8d7410574,.bfc3088a-7ff3-46c7-8c7b-3caa5d2def14{fill:#8099b5;}.bb9e0b5c-24a9-4d8f-9b79-c8a8d7410574,.bfc3088a-7ff3-46c7-8c7b-3caa5d2def14{font-family:Tahoma-Bold, Tahoma;font-weight:700;}.a729770f-a571-4242-a3bb-29abc4f787c9,.ac102e1a-b65f-42d1-b034-1b2c343ed814,.bc4b9139-dbd5-46fc-a4db-e5e6b257db3b,.bc4d5cf0-c00b-4ab1-869d-6a2c72d32ac9,.f5577208-76e3-4ee9-b279-c41d428825cb,.f6d727a0-cf52-43b5-81a4-a2b179791500,.fd4124b6-548d-4dde-ac0b-b43d3e928b93{opacity:0.2;}.fd4124b6-548d-4dde-ac0b-b43d3e928b93{fill:url(#ee8a0c62-40d7-41bf-8fc5-75897b0864aa);}.f6d727a0-cf52-43b5-81a4-a2b179791500{fill:url(#f5e68211-8e59-4d64-a002-8cd079110177);}.af3c6a1e-feea-42d0-970f-7793a5a33ea3{font-size:6.63px;}.af3c6a1e-feea-42d0-970f-7793a5a33ea3,.b9892dd2-462a-41e0-b2c2-64483acef665,.e31cfcc3-1192-4c66-aaf0-bf87197be8cb{font-family:Tahoma;}.bc4d5cf0-c00b-4ab1-869d-6a2c72d32ac9{fill:url(#f3c31c2d-2669-43f7-b6a2-38a5b975b495);}.bc4b9139-dbd5-46fc-a4db-e5e6b257db3b{fill:url(#a373b818-b22d-4a71-9c88-21161d19e11a);}.b9892dd2-462a-41e0-b2c2-64483acef665{font-size:7.95px;}.b8ed1706-f477-49c9-9ab1-77a56f06ecdd,.b9892dd2-462a-41e0-b2c2-64483acef665,.bf824d1c-a0cb-4658-8ea5-17cc875a55be,.bfcafd2f-0f56-4586-883f-5747dc95d188,.e31cfcc3-1192-4c66-aaf0-bf87197be8cb{fill:#fff;}.f5577208-76e3-4ee9-b279-c41d428825cb{fill:url(#a25cdf34-711d-418b-a461-c41e18e0e577);}.b3be63f8-3ad9-468a-afde-e056fe10f009{fill:none;stroke:#fff;stroke-miterlimit:10;stroke-width:0.5px;}.ac102e1a-b65f-42d1-b034-1b2c343ed814{fill:url(#bc6211fb-7a59-41a4-a1b2-5e1325dcba2c);}.b8ed1706-f477-49c9-9ab1-77a56f06ecdd{opacity:0.1;}.bfcafd2f-0f56-4586-883f-5747dc95d188{fill-rule:evenodd;}.a729770f-a571-4242-a3bb-29abc4f787c9{fill:url(#fdc2c2f1-a2b2-4557-b2ac-d6018a7d2eab);}.bb9e0b5c-24a9-4d8f-9b79-c8a8d7410574{font-size:5.67px;}.a00769af-a755-4458-9b06-b9aa1f2cd057{fill:#121928;}.e31cfcc3-1192-4c66-aaf0-bf87197be8cb{font-size:5.16px;}</style><linearGradient id="ee8a0c62-40d7-41bf-8fc5-75897b0864aa" x1="5.06" y1="96.34" x2="78.62" y2="96.34" gradientUnits="userSpaceOnUse"><stop offset="0" stop-color="#5b607d"/><stop offset="0.84" stop-color="#5b607d"/></linearGradient><linearGradient id="f5e68211-8e59-4d64-a002-8cd079110177" x1="79.63" y1="96.34" x2="152.86" y2="96.34" xlink:href="#ee8a0c62-40d7-41bf-8fc5-75897b0864aa"/><linearGradient id="f3c31c2d-2669-43f7-b6a2-38a5b975b495" x1="153.94" y1="96.34" x2="221.09" y2="96.34" xlink:href="#ee8a0c62-40d7-41bf-8fc5-75897b0864aa"/><linearGradient id="a373b818-b22d-4a71-9c88-21161d19e11a" x1="221.86" y1="96.34" x2="319.65" y2="96.34" xlink:href="#ee8a0c62-40d7-41bf-8fc5-75897b0864aa"/><linearGradient id="a25cdf34-711d-418b-a461-c41e18e0e577" x1="63.88" y1="90.06" x2="75.32" y2="90.06" xlink:href="#ee8a0c62-40d7-41bf-8fc5-75897b0864aa"/><linearGradient id="bc6211fb-7a59-41a4-a1b2-5e1325dcba2c" x1="63.88" y1="103.93" x2="75.32" y2="103.93" xlink:href="#ee8a0c62-40d7-41bf-8fc5-75897b0864aa"/><linearGradient id="fdc2c2f1-a2b2-4557-b2ac-d6018a7d2eab" x1="5.2" y1="12.25" x2="318.62" y2="12.25" xlink:href="#ee8a0c62-40d7-41bf-8fc5-75897b0864aa"/></defs><title>1</title><text class="bfc3088a-7ff3-46c7-8c7b-3caa5d2def14" transform="translate(31.69 75.83)">Формирование нового имени файла</text><path class="fd4124b6-548d-4dde-ac0b-b43d3e928b93" d="M21,80.4H78.62a0,0,0,0,1,0,0v31.89a0,0,0,0,1,0,0H21A15.94,15.94,0,0,1,5.06,96.34v0A15.94,15.94,0,0,1,21,80.4Z"/><rect class="f6d727a0-cf52-43b5-81a4-a2b179791500" x="79.63" y="80.4" width="73.22" height="31.89"/><text class="af3c6a1e-feea-42d0-970f-7793a5a33ea3" transform="translate(27.26 92.01)">Паспорт</text><text class="af3c6a1e-feea-42d0-970f-7793a5a33ea3" transform="translate(88.57 92.01)">Продукт</text><rect class="bc4d5cf0-c00b-4ab1-869d-6a2c72d32ac9" x="153.94" y="80.4" width="67.15" height="31.89"/><text class="af3c6a1e-feea-42d0-970f-7793a5a33ea3" transform="translate(159.17 92.01)">Резервуар</text><path class="bc4b9139-dbd5-46fc-a4db-e5e6b257db3b" d="M221.86,80.4h81.85a15.94,15.94,0,0,1,15.94,15.94v0a15.94,15.94,0,0,1-15.94,15.94H221.86a0,0,0,0,1,0,0V80.4A0,0,0,0,1,221.86,80.4Z"/><text class="af3c6a1e-feea-42d0-970f-7793a5a33ea3" transform="translate(231.41 92.01)">Дата</text><text class="b9892dd2-462a-41e0-b2c2-64483acef665" transform="translate(27.29 104.56)">34</text><text class="b9892dd2-462a-41e0-b2c2-64483acef665" transform="translate(88.08 104.56)">003839293929</text><text class="b9892dd2-462a-41e0-b2c2-64483acef665" transform="translate(159.33 104.56)">546</text><text class="b9892dd2-462a-41e0-b2c2-64483acef665" transform="translate(231.71 104.56)">25.06.2020</text><circle class="f5577208-76e3-4ee9-b279-c41d428825cb" cx="69.6" cy="90.06" r="5.72"/><circle class="b3be63f8-3ad9-468a-afde-e056fe10f009" cx="69.4" cy="89.96" r="5.72"/><circle class="ac102e1a-b65f-42d1-b034-1b2c343ed814" cx="69.6" cy="103.93" r="5.72"/><circle class="b3be63f8-3ad9-468a-afde-e056fe10f009" cx="69.4" cy="103.83" r="5.72"/><rect class="bf824d1c-a0cb-4658-8ea5-17cc875a55be" x="70.36" y="87.37" width="0.67" height="4.28" rx="0.34" transform="translate(183.98 102.81) rotate(135)"/><rect class="bf824d1c-a0cb-4658-8ea5-17cc875a55be" x="67.81" y="87.38" width="0.67" height="4.28" rx="0.34" transform="translate(53.04 201.01) rotate(-135)"/><rect class="bf824d1c-a0cb-4658-8ea5-17cc875a55be" x="67.81" y="101.51" width="0.67" height="4.28" rx="0.34" transform="translate(-53.33 78.55) rotate(-45)"/><rect class="bf824d1c-a0cb-4658-8ea5-17cc875a55be" x="70.36" y="101.5" width="0.67" height="4.28" rx="0.34" transform="translate(93.99 -19.64) rotate(45)"/><circle class="b3be63f8-3ad9-468a-afde-e056fe10f009" cx="295.52" cy="96.82" r="7.95"/><circle class="b8ed1706-f477-49c9-9ab1-77a56f06ecdd" cx="295.52" cy="96.82" r="7.09"/><circle class="b8ed1706-f477-49c9-9ab1-77a56f06ecdd" cx="295.52" cy="96.82" r="6.3"/><circle class="b8ed1706-f477-49c9-9ab1-77a56f06ecdd" cx="295.52" cy="96.82" r="5.51"/><circle class="b8ed1706-f477-49c9-9ab1-77a56f06ecdd" cx="295.52" cy="96.82" r="4.72"/><path class="bfcafd2f-0f56-4586-883f-5747dc95d188" d="M293.67,98.46h.41v.41h-.41Zm0,.82h.41a.41.41,0,0,0,.41-.41v-.41a.41.41,0,0,0-.41-.41h-.41a.41.41,0,0,0-.41.41v.41A.41.41,0,0,0,293.67,99.28Zm1.64-2.46h.41v.41h-.41Zm0,.82h.41a.41.41,0,0,0,.41-.41v-.41a.41.41,0,0,0-.41-.42h-.41a.41.41,0,0,0-.41.42v.41A.41.41,0,0,0,295.31,97.64Zm0,.82h.41v.41h-.41Zm0,.82h.41a.41.41,0,0,0,.41-.41v-.41a.41.41,0,0,0-.41-.41h-.41a.41.41,0,0,0-.41.41v.41A.41.41,0,0,0,295.31,99.28Zm2.88-4.11h-5.34v-.41a.41.41,0,0,1,.41-.41h.82v.21a.2.2,0,0,0,.2.2.2.2,0,0,0,.21-.2v-.21h2.05v.21a.21.21,0,0,0,.21.2.2.2,0,0,0,.2-.2v-.21h.83a.41.41,0,0,1,.41.41Zm0,4.11a.41.41,0,0,1-.41.41h-4.52a.41.41,0,0,1-.41-.41v-3.7h5.34Zm-.41-5.34H297v-.21a.2.2,0,0,0-.2-.2.21.21,0,0,0-.21.2v.21h-2.05v-.21a.2.2,0,0,0-.21-.2.2.2,0,0,0-.2.2v.21h-.82a.83.83,0,0,0-.83.82v4.52a.82.82,0,0,0,.83.82h4.52a.82.82,0,0,0,.82-.82V94.76A.82.82,0,0,0,297.78,93.94ZM297,96.82h.41v.41H297Zm0,.82h.41a.42.42,0,0,0,.42-.41v-.41a.42.42,0,0,0-.42-.42H297a.42.42,0,0,0-.41.42v.41A.42.42,0,0,0,297,97.64Zm0,.82h.41v.41H297Zm0,.82h.41a.41.41,0,0,0,.42-.41v-.41a.41.41,0,0,0-.42-.41H297a.41.41,0,0,0-.41.41v.41A.41.41,0,0,0,297,99.28Zm-3.28-2.46h.41v.41h-.41Zm0,.82h.41a.42.42,0,0,0,.41-.41v-.41a.42.42,0,0,0-.41-.42h-.41a.41.41,0,0,0-.41.42v.41A.41.41,0,0,0,293.67,97.64Z"/><path class="a729770f-a571-4242-a3bb-29abc4f787c9" d="M14.22,4.87H309.6a9,9,0,0,1,9,9v5.75a0,0,0,0,1,0,0H5.2a0,0,0,0,1,0,0V13.89a9,9,0,0,1,9-9Z"/><text class="bb9e0b5c-24a9-4d8f-9b79-c8a8d7410574" transform="translate(194.65 14.13)">Продукт</text><text class="bb9e0b5c-24a9-4d8f-9b79-c8a8d7410574" transform="translate(64.39 14.13)">SAP</text><path class="a00769af-a755-4458-9b06-b9aa1f2cd057" d="M5.26,20.54h313a0,0,0,0,1,0,0V55.66a11,11,0,0,1-11,11h-291a11,11,0,0,1-11-11V20.54a0,0,0,0,1,0,0Z"/><text class="e31cfcc3-1192-4c66-aaf0-bf87197be8cb" transform="translate(126.65 33.14)">ДТ ЕВРО сорт F, вид III(ДТ-Е-K5) ДТ ЕВРО сорт F, вид III(ДТ-Е-K5)</text><text class="e31cfcc3-1192-4c66-aaf0-bf87197be8cb" transform="translate(50.88 32.83)">44244434323234</text><text class="e31cfcc3-1192-4c66-aaf0-bf87197be8cb" transform="translate(50.88 56.25)">44244434323234</text><text class="e31cfcc3-1192-4c66-aaf0-bf87197be8cb" transform="translate(126.65 57.28)">ДТ ЕВРО сорт F, вид III(ДТ-Е-K5) ДТ ЕВРО сорт F, вид III(ДТ-Е-K5)</text></svg>