<svg width="324" height="117" viewBox="0 0 324 117" fill="none" xmlns="http://www.w3.org/2000/svg">
<path d="M109.487 105.152L109.487 10.5948" stroke="#8C99B2" stroke-width="0.5"/>
<path d="M110.708 103.708C110.708 104.359 110.181 104.886 109.53 104.886C108.88 104.886 108.353 104.359 108.353 103.708C108.353 103.058 108.88 102.531 109.53 102.531C110.181 102.531 110.708 103.058 110.708 103.708Z" fill="#0D1014" stroke="#60647F" stroke-width="0.705198"/>
<path d="M110.708 11.5302C110.708 12.1806 110.181 12.7078 109.53 12.7078C108.88 12.7078 108.353 12.1806 108.353 11.5302C108.353 10.8798 108.88 10.3526 109.53 10.3526C110.181 10.3526 110.708 10.8798 110.708 11.5302Z" fill="#0D1014" stroke="#60647F" stroke-width="0.705198"/>
<path d="M140.151 89.269H139.043L136.732 86.272H136.183V89.269H135.312V82.7256H136.183V85.6743C136.525 85.6626 136.796 85.5762 136.996 85.415C137.198 85.2539 137.362 85.0225 137.488 84.7207C137.54 84.5889 137.587 84.4644 137.628 84.3472C137.672 84.2271 137.707 84.126 137.734 84.0439C137.91 83.543 138.134 83.1987 138.406 83.0112C138.679 82.8208 139.057 82.7256 139.54 82.7256H139.808V83.5034H139.588C139.231 83.5034 138.98 83.5737 138.837 83.7144C138.693 83.8521 138.561 84.1143 138.441 84.501C138.321 84.8877 138.186 85.1719 138.037 85.3535C137.888 85.5322 137.707 85.6904 137.497 85.8281L140.151 89.269ZM145.486 89.269H144.616V83.499H141.605V89.269H140.735V82.7256H145.486V89.269ZM151.26 85.9731C151.26 87.0132 150.985 87.8423 150.434 88.4604C149.886 89.0786 149.168 89.3877 148.281 89.3877C147.906 89.3877 147.551 89.3496 147.217 89.2734C146.886 89.2002 146.595 89.105 146.343 88.9878V88.0254H146.409C146.62 88.2158 146.888 88.3682 147.213 88.4824C147.538 88.5938 147.885 88.6494 148.254 88.6494C148.884 88.6494 149.397 88.4194 149.792 87.9595C150.188 87.4995 150.386 86.8931 150.386 86.1401H147.195V85.3799H150.342C150.274 84.7471 150.055 84.2505 149.683 83.8901C149.313 83.5269 148.837 83.3452 148.254 83.3452C147.894 83.3452 147.557 83.4009 147.244 83.5122C146.93 83.6235 146.658 83.7788 146.426 83.978H146.36V83.0112C146.595 82.9028 146.882 82.8091 147.222 82.73C147.564 82.6479 147.92 82.6069 148.289 82.6069C149.233 82.6069 149.964 82.8999 150.482 83.4858C151.001 84.0688 151.26 84.8979 151.26 85.9731ZM158.836 89.269H158.01V85.0723H155.787V89.269H154.96V84.3604H158.836V89.269ZM164.07 86.8169C164.07 87.6431 163.871 88.2817 163.473 88.7329C163.074 89.1812 162.544 89.4053 161.882 89.4053C161.199 89.4053 160.662 89.1738 160.269 88.7109C159.879 88.2451 159.684 87.6138 159.684 86.8169C159.684 85.9966 159.885 85.3594 160.287 84.9053C160.691 84.4512 161.223 84.2241 161.882 84.2241C162.544 84.2241 163.074 84.4512 163.473 84.9053C163.871 85.3564 164.07 85.9937 164.07 86.8169ZM163.218 86.8169C163.218 86.1812 163.102 85.7095 162.871 85.4019C162.639 85.0913 162.309 84.936 161.882 84.936C161.451 84.936 161.119 85.0913 160.884 85.4019C160.653 85.7095 160.537 86.1812 160.537 86.8169C160.537 87.4321 160.653 87.8994 160.884 88.2188C161.119 88.5352 161.451 88.6934 161.882 88.6934C162.307 88.6934 162.635 88.5381 162.866 88.2275C163.101 87.9141 163.218 87.4438 163.218 86.8169ZM124.761 97.269H123.944V93.6084L121.632 97.269H120.885V92.3604H121.703V95.9639L123.988 92.3604H124.761V97.269ZM127.908 97.3789C127.571 97.3789 127.262 97.3276 126.98 97.2251C126.699 97.1196 126.457 96.9614 126.255 96.7505C126.053 96.5396 125.896 96.2744 125.785 95.9551C125.674 95.6328 125.618 95.2549 125.618 94.8213C125.618 94.3906 125.675 94.0186 125.789 93.7051C125.907 93.3916 126.062 93.1279 126.255 92.9141C126.449 92.7002 126.689 92.5361 126.976 92.4219C127.266 92.3047 127.577 92.2461 127.908 92.2461C128.177 92.2461 128.436 92.2842 128.685 92.3604C128.937 92.4365 129.162 92.5244 129.358 92.624V93.5513H129.309C129.251 93.5015 129.175 93.4443 129.081 93.3799C128.99 93.3154 128.879 93.2495 128.747 93.1821C128.633 93.1235 128.498 93.0723 128.343 93.0283C128.187 92.9844 128.038 92.9624 127.894 92.9624C127.467 92.9624 127.122 93.125 126.862 93.4502C126.604 93.7725 126.475 94.2295 126.475 94.8213C126.475 95.4014 126.6 95.854 126.849 96.1792C127.101 96.5015 127.449 96.6626 127.894 96.6626C128.164 96.6626 128.42 96.6069 128.663 96.4956C128.907 96.3843 129.122 96.2407 129.309 96.0649H129.358V96.9922C129.276 97.0303 129.173 97.0771 129.05 97.1328C128.927 97.1855 128.816 97.2251 128.716 97.2515C128.576 97.2925 128.45 97.3232 128.338 97.3438C128.227 97.3672 128.083 97.3789 127.908 97.3789ZM133.99 97.269H133.163V93.0723H130.94V97.269H130.114V92.3604H133.99V97.269ZM139.224 94.8169C139.224 95.6431 139.024 96.2817 138.626 96.7329C138.227 97.1812 137.697 97.4053 137.035 97.4053C136.352 97.4053 135.815 97.1738 135.422 96.7109C135.033 96.2451 134.838 95.6138 134.838 94.8169C134.838 93.9966 135.038 93.3594 135.44 92.9053C135.844 92.4512 136.376 92.2241 137.035 92.2241C137.697 92.2241 138.227 92.4512 138.626 92.9053C139.024 93.3564 139.224 93.9937 139.224 94.8169ZM138.371 94.8169C138.371 94.1812 138.255 93.7095 138.024 93.4019C137.792 93.0913 137.463 92.936 137.035 92.936C136.604 92.936 136.272 93.0913 136.038 93.4019C135.806 93.7095 135.69 94.1812 135.69 94.8169C135.69 95.4321 135.806 95.8994 136.038 96.2188C136.272 96.5352 136.604 96.6934 137.035 96.6934C137.46 96.6934 137.788 96.5381 138.019 96.2275C138.254 95.9141 138.371 95.4438 138.371 94.8169ZM143.873 97.269H143.047V93.0547H141.359C141.351 93.2979 141.342 93.5322 141.333 93.7578C141.324 93.9805 141.315 94.1826 141.307 94.3643C141.289 94.8242 141.258 95.2095 141.214 95.52C141.173 95.8306 141.121 96.0796 141.056 96.2671C140.992 96.4604 140.92 96.6113 140.841 96.7197C140.765 96.8281 140.678 96.9263 140.581 97.0142C140.482 97.1021 140.375 97.168 140.261 97.2119C140.146 97.2559 140.018 97.2778 139.874 97.2778C139.827 97.2778 139.767 97.2764 139.694 97.2734C139.621 97.2705 139.569 97.269 139.54 97.269V96.5483H139.584C139.604 96.5483 139.625 96.5498 139.645 96.5527C139.669 96.5557 139.695 96.5571 139.725 96.5571C139.795 96.5571 139.864 96.5469 139.931 96.5264C139.998 96.5059 140.059 96.4678 140.111 96.4121C140.258 96.2686 140.365 96.0181 140.432 95.6606C140.499 95.3003 140.548 94.7979 140.577 94.1533C140.589 93.9131 140.599 93.6289 140.608 93.3008C140.62 92.9727 140.63 92.6592 140.639 92.3604H143.873V97.269ZM148.949 97.269H148.122V95.0586H145.899V97.269H145.073V92.3604H145.899V94.3467H148.122V92.3604H148.949V97.269ZM154.02 97.269H153.203V93.6084L150.891 97.269H150.144V92.3604H150.961V95.9639L153.247 92.3604H154.02V97.269ZM159.768 97.269H158.951V93.4106L157.773 95.9155H157.158L155.989 93.4106V97.269H155.215V92.3604H156.213L157.505 95.085L158.753 92.3604H159.768V97.269ZM165.002 94.8169C165.002 95.6431 164.803 96.2817 164.404 96.7329C164.006 97.1812 163.476 97.4053 162.813 97.4053C162.131 97.4053 161.593 97.1738 161.201 96.7109C160.811 96.2451 160.616 95.6138 160.616 94.8169C160.616 93.9966 160.817 93.3594 161.218 92.9053C161.622 92.4512 162.154 92.2241 162.813 92.2241C163.476 92.2241 164.006 92.4512 164.404 92.9053C164.803 93.3564 165.002 93.9937 165.002 94.8169ZM164.149 94.8169C164.149 94.1812 164.034 93.7095 163.802 93.4019C163.571 93.0913 163.241 92.936 162.813 92.936C162.383 92.936 162.05 93.0913 161.816 93.4019C161.584 93.7095 161.469 94.1812 161.469 94.8169C161.469 95.4321 161.584 95.8994 161.816 96.2188C162.05 96.5352 162.383 96.6934 162.813 96.6934C163.238 96.6934 163.566 96.5381 163.798 96.2275C164.032 95.9141 164.149 95.4438 164.149 94.8169ZM167.801 97.3789C167.464 97.3789 167.155 97.3276 166.874 97.2251C166.593 97.1196 166.351 96.9614 166.149 96.7505C165.947 96.5396 165.79 96.2744 165.679 95.9551C165.567 95.6328 165.512 95.2549 165.512 94.8213C165.512 94.3906 165.569 94.0186 165.683 93.7051C165.8 93.3916 165.955 93.1279 166.149 92.9141C166.342 92.7002 166.582 92.5361 166.87 92.4219C167.16 92.3047 167.47 92.2461 167.801 92.2461C168.071 92.2461 168.33 92.2842 168.579 92.3604C168.831 92.4365 169.055 92.5244 169.251 92.624V93.5513H169.203C169.144 93.5015 169.068 93.4443 168.975 93.3799C168.884 93.3154 168.772 93.2495 168.641 93.1821C168.526 93.1235 168.392 93.0723 168.236 93.0283C168.081 92.9844 167.932 92.9624 167.788 92.9624C167.36 92.9624 167.016 93.125 166.755 93.4502C166.497 93.7725 166.369 94.2295 166.369 94.8213C166.369 95.4014 166.493 95.854 166.742 96.1792C166.994 96.5015 167.343 96.6626 167.788 96.6626C168.058 96.6626 168.314 96.6069 168.557 96.4956C168.8 96.3843 169.016 96.2407 169.203 96.0649H169.251V96.9922C169.169 97.0303 169.067 97.0771 168.944 97.1328C168.821 97.1855 168.709 97.2251 168.61 97.2515C168.469 97.2925 168.343 97.3232 168.232 97.3438C168.121 97.3672 167.977 97.3789 167.801 97.3789ZM173.593 93.0854H171.923V97.269H171.097V93.0854H169.427V92.3604H173.593V93.0854ZM178.084 97.269H177.267V93.6084L174.955 97.269H174.208V92.3604H175.026V95.9639L177.311 92.3604H178.084V97.269Z" fill="#D7E2F2"/>
<path d="M142.453 78.6023H139.263V77.9343H140.45V73.5486H139.263V72.9509C139.711 72.9509 140.041 72.8879 140.252 72.762C140.466 72.6331 140.586 72.3914 140.612 72.0369H141.293V77.9343H142.453V78.6023ZM147.731 75.3284C147.731 76.5032 147.56 77.366 147.217 77.9167C146.877 78.4646 146.351 78.7385 145.64 78.7385C144.919 78.7385 144.39 78.4587 144.053 77.8992C143.716 77.3396 143.548 76.4856 143.548 75.3372C143.548 74.1565 143.718 73.2937 144.057 72.7488C144.4 72.2009 144.928 71.927 145.64 71.927C146.36 71.927 146.889 72.2097 147.226 72.7751C147.563 73.3406 147.731 74.1917 147.731 75.3284ZM146.606 77.3235C146.691 77.1067 146.751 76.8328 146.786 76.5017C146.822 76.1707 146.839 75.7795 146.839 75.3284C146.839 74.8801 146.822 74.4905 146.786 74.1594C146.751 73.8284 146.69 73.553 146.602 73.3333C146.514 73.1106 146.392 72.9421 146.237 72.8279C146.085 72.7107 145.886 72.6521 145.64 72.6521C145.396 72.6521 145.196 72.7107 145.037 72.8279C144.882 72.9421 144.759 73.1135 144.668 73.342C144.58 73.5647 144.52 73.8459 144.488 74.1858C144.456 74.5256 144.44 74.9094 144.44 75.3372C144.44 75.7942 144.453 76.1765 144.479 76.4841C144.509 76.7917 144.57 77.0671 144.664 77.3103C144.749 77.5359 144.869 77.7102 145.024 77.8333C145.182 77.9534 145.388 78.0134 145.64 78.0134C145.883 78.0134 146.082 77.9563 146.237 77.842C146.395 77.7249 146.518 77.552 146.606 77.3235ZM152.644 75.3284C152.644 76.5032 152.473 77.366 152.13 77.9167C151.79 78.4646 151.265 78.7385 150.553 78.7385C149.832 78.7385 149.303 78.4587 148.966 77.8992C148.629 77.3396 148.461 76.4856 148.461 75.3372C148.461 74.1565 148.631 73.2937 148.971 72.7488C149.313 72.2009 149.841 71.927 150.553 71.927C151.273 71.927 151.802 72.2097 152.139 72.7751C152.476 73.3406 152.644 74.1917 152.644 75.3284ZM151.519 77.3235C151.604 77.1067 151.664 76.8328 151.7 76.5017C151.735 76.1707 151.752 75.7795 151.752 75.3284C151.752 74.8801 151.735 74.4905 151.7 74.1594C151.664 73.8284 151.603 73.553 151.515 73.3333C151.427 73.1106 151.306 72.9421 151.15 72.8279C150.998 72.7107 150.799 72.6521 150.553 72.6521C150.309 72.6521 150.109 72.7107 149.951 72.8279C149.795 72.9421 149.672 73.1135 149.581 73.342C149.494 73.5647 149.433 73.8459 149.401 74.1858C149.369 74.5256 149.353 74.9094 149.353 75.3372C149.353 75.7942 149.366 76.1765 149.392 76.4841C149.422 76.7917 149.483 77.0671 149.577 77.3103C149.662 77.5359 149.782 77.7102 149.937 77.8333C150.096 77.9534 150.301 78.0134 150.553 78.0134C150.796 78.0134 150.995 77.9563 151.15 77.842C151.308 77.7249 151.432 77.552 151.519 77.3235ZM156.556 73.8738C156.556 74.533 156.422 75.0222 156.156 75.3416C155.892 75.658 155.51 75.8162 155.009 75.8162C154.499 75.8162 154.112 75.655 153.849 75.3328C153.588 75.0105 153.457 74.5256 153.457 73.8782C153.457 73.2219 153.591 72.7341 153.857 72.4148C154.124 72.0955 154.508 71.9358 155.009 71.9358C155.518 71.9358 155.904 72.0969 156.164 72.4192C156.425 72.7415 156.556 73.2263 156.556 73.8738ZM159.482 72.0588L156.055 78.6023H155.329L158.757 72.0588H159.482ZM161.346 76.7874C161.346 77.4465 161.212 77.9358 160.946 78.2551C160.682 78.5715 160.3 78.7297 159.799 78.7297C159.289 78.7297 158.902 78.5686 158.639 78.2463C158.378 77.9241 158.247 77.4392 158.247 76.7917C158.247 76.1355 158.381 75.6477 158.647 75.3284C158.914 75.009 159.298 74.8494 159.799 74.8494C160.308 74.8494 160.694 75.0105 160.954 75.3328C161.215 75.655 161.346 76.1399 161.346 76.7874ZM155.773 73.8738C155.773 73.4285 155.721 73.0916 155.615 72.863C155.513 72.6345 155.31 72.5203 155.009 72.5203C154.707 72.5203 154.503 72.636 154.398 72.8674C154.292 73.0989 154.24 73.4358 154.24 73.8782C154.24 74.3176 154.289 74.6531 154.389 74.8845C154.489 75.116 154.695 75.2317 155.009 75.2317C155.31 75.2317 155.513 75.116 155.615 74.8845C155.721 74.6531 155.773 74.3162 155.773 73.8738ZM160.563 76.7874C160.563 76.342 160.511 76.0051 160.405 75.7766C160.303 75.5481 160.1 75.4338 159.799 75.4338C159.497 75.4338 159.293 75.5496 159.188 75.781C159.082 76.0125 159.03 76.3494 159.03 76.7917C159.03 77.2312 159.079 77.5667 159.179 77.7981C159.279 78.0295 159.485 78.1453 159.799 78.1453C160.1 78.1453 160.303 78.0295 160.405 77.7981C160.511 77.5667 160.563 77.2297 160.563 76.7874Z" fill="#606580"/>
<path d="M148.17 62.269H143.139L145.178 56.4526H146.131L148.17 62.269ZM147.124 61.5972L145.635 57.2222L144.151 61.5972H147.124ZM154.674 59.3589C154.674 60.4032 154.522 61.1701 154.217 61.6597C153.915 62.1466 153.448 62.3901 152.815 62.3901C152.174 62.3901 151.704 62.1414 151.405 61.644C151.105 61.1466 150.956 60.3875 150.956 59.3667C150.956 58.3172 151.107 57.5503 151.409 57.0659C151.713 56.5789 152.182 56.3354 152.815 56.3354C153.456 56.3354 153.926 56.5868 154.225 57.0894C154.525 57.592 154.674 58.3485 154.674 59.3589ZM153.674 61.1323C153.75 60.9396 153.803 60.6961 153.835 60.4019C153.866 60.1076 153.881 59.7599 153.881 59.3589C153.881 58.9604 153.866 58.6141 153.835 58.3198C153.803 58.0256 153.749 57.7808 153.67 57.5854C153.592 57.3875 153.484 57.2378 153.346 57.1362C153.211 57.0321 153.034 56.98 152.815 56.98C152.599 56.98 152.42 57.0321 152.28 57.1362C152.142 57.2378 152.032 57.3901 151.952 57.5933C151.874 57.7912 151.82 58.0412 151.792 58.3433C151.763 58.6453 151.749 58.9865 151.749 59.3667C151.749 59.7729 151.76 60.1128 151.784 60.3862C151.81 60.6597 151.864 60.9045 151.948 61.1206C152.023 61.3211 152.13 61.4761 152.268 61.5854C152.409 61.6922 152.591 61.7456 152.815 61.7456C153.031 61.7456 153.208 61.6948 153.346 61.5933C153.487 61.4891 153.596 61.3354 153.674 61.1323Z" fill="#606580"/>
<path d="M134.532 71.4524C129.143 67.0914 125.697 60.4235 125.697 52.9507C125.697 39.813 136.347 29.1628 149.485 29.1628C162.622 29.1628 173.273 39.813 173.273 52.9507C173.273 60.4235 169.827 67.0914 164.438 71.4524" stroke="#12151E" stroke-width="14"/>
<path d="M134.532 71.4524C129.143 67.0914 125.697 60.4235 125.697 52.9507C125.697 39.813 136.347 29.1628 149.485 29.1628C162.622 29.1628 173.273 39.813 173.273 52.9507C173.273 60.4235 169.827 67.0914 164.438 71.4524" stroke="#0089FF" stroke-width="4" stroke-dasharray="1 1"/>
<path d="M167.123 74.6829L161.803 68.2271" stroke="#0089FF" stroke-width="2"/>
<path d="M131.985 74.7418L137.308 68.2273" stroke="#0089FF" stroke-width="2"/>
<path d="M142.79 48.6045C142.79 48.2087 142.753 47.887 142.68 47.6396C142.607 47.3896 142.507 47.1969 142.379 47.0615C142.265 46.9365 142.149 46.8506 142.032 46.8037C141.915 46.7568 141.786 46.7334 141.645 46.7334C141.325 46.7334 141.069 46.848 140.879 47.0771C140.689 47.3063 140.594 47.6383 140.594 48.0732C140.594 48.318 140.625 48.5199 140.688 48.6787C140.75 48.8376 140.852 48.9743 140.993 49.0889C141.092 49.1696 141.204 49.2243 141.329 49.2529C141.454 49.279 141.588 49.292 141.731 49.292C141.898 49.292 142.077 49.2633 142.27 49.2061C142.463 49.1462 142.631 49.068 142.774 48.9717C142.777 48.9326 142.779 48.8818 142.782 48.8193C142.787 48.7542 142.79 48.6826 142.79 48.6045ZM139.801 48.1045C139.801 47.805 139.849 47.5316 139.946 47.2842C140.045 47.0368 140.179 46.8232 140.348 46.6436C140.51 46.4717 140.706 46.3376 140.938 46.2412C141.172 46.1449 141.409 46.0967 141.649 46.0967C141.917 46.0967 142.159 46.1423 142.375 46.2334C142.594 46.3219 142.783 46.4508 142.942 46.6201C143.142 46.8337 143.297 47.1136 143.407 47.46C143.519 47.8063 143.575 48.2438 143.575 48.7725C143.575 49.2542 143.52 49.7113 143.411 50.1436C143.304 50.5732 143.145 50.93 142.934 51.2139C142.71 51.516 142.441 51.7464 142.125 51.9053C141.813 52.0641 141.426 52.1436 140.965 52.1436C140.861 52.1436 140.75 52.137 140.633 52.124C140.516 52.1136 140.407 52.0928 140.305 52.0615V51.3154H140.344C140.409 51.3519 140.511 51.387 140.649 51.4209C140.787 51.4548 140.928 51.4717 141.071 51.4717C141.581 51.4717 141.982 51.3037 142.274 50.9678C142.566 50.6318 142.731 50.1514 142.77 49.5264C142.562 49.667 142.362 49.7699 142.172 49.835C141.985 49.9001 141.78 49.9326 141.559 49.9326C141.343 49.9326 141.146 49.9092 140.969 49.8623C140.792 49.8154 140.614 49.7243 140.434 49.5889C140.226 49.43 140.068 49.2295 139.961 48.9873C139.855 48.7425 139.801 48.4482 139.801 48.1045ZM147.157 48.6045C147.157 48.2087 147.12 47.887 147.047 47.6396C146.974 47.3896 146.874 47.1969 146.747 47.0615C146.632 46.9365 146.516 46.8506 146.399 46.8037C146.282 46.7568 146.153 46.7334 146.012 46.7334C145.692 46.7334 145.437 46.848 145.247 47.0771C145.056 47.3063 144.961 47.6383 144.961 48.0732C144.961 48.318 144.993 48.5199 145.055 48.6787C145.118 48.8376 145.219 48.9743 145.36 49.0889C145.459 49.1696 145.571 49.2243 145.696 49.2529C145.821 49.279 145.955 49.292 146.098 49.292C146.265 49.292 146.444 49.2633 146.637 49.2061C146.83 49.1462 146.998 49.068 147.141 48.9717C147.144 48.9326 147.146 48.8818 147.149 48.8193C147.154 48.7542 147.157 48.6826 147.157 48.6045ZM144.168 48.1045C144.168 47.805 144.217 47.5316 144.313 47.2842C144.412 47.0368 144.546 46.8232 144.715 46.6436C144.877 46.4717 145.073 46.3376 145.305 46.2412C145.54 46.1449 145.777 46.0967 146.016 46.0967C146.284 46.0967 146.527 46.1423 146.743 46.2334C146.961 46.3219 147.15 46.4508 147.309 46.6201C147.51 46.8337 147.665 47.1136 147.774 47.46C147.886 47.8063 147.942 48.2438 147.942 48.7725C147.942 49.2542 147.887 49.7113 147.778 50.1436C147.671 50.5732 147.512 50.93 147.301 51.2139C147.077 51.516 146.808 51.7464 146.493 51.9053C146.18 52.0641 145.793 52.1436 145.333 52.1436C145.228 52.1436 145.118 52.137 145 52.124C144.883 52.1136 144.774 52.0928 144.672 52.0615V51.3154H144.711C144.777 51.3519 144.878 51.387 145.016 51.4209C145.154 51.4548 145.295 51.4717 145.438 51.4717C145.948 51.4717 146.349 51.3037 146.641 50.9678C146.933 50.6318 147.098 50.1514 147.137 49.5264C146.929 49.667 146.73 49.7699 146.54 49.835C146.352 49.9001 146.148 49.9326 145.926 49.9326C145.71 49.9326 145.514 49.9092 145.336 49.8623C145.159 49.8154 144.981 49.7243 144.801 49.5889C144.593 49.43 144.435 49.2295 144.329 48.9873C144.222 48.7425 144.168 48.4482 144.168 48.1045ZM149.95 52.0303H149.016V50.917H149.95V52.0303ZM154.739 49.1201C154.739 50.1644 154.586 50.9313 154.282 51.4209C153.98 51.9079 153.512 52.1514 152.879 52.1514C152.239 52.1514 151.769 51.9027 151.469 51.4053C151.17 50.9079 151.02 50.1488 151.02 49.1279C151.02 48.0785 151.171 47.3115 151.473 46.8271C151.778 46.3402 152.247 46.0967 152.879 46.0967C153.52 46.0967 153.99 46.348 154.29 46.8506C154.589 47.3532 154.739 48.1097 154.739 49.1201ZM153.739 50.8936C153.814 50.7008 153.868 50.4574 153.899 50.1631C153.93 49.8688 153.946 49.5212 153.946 49.1201C153.946 48.7217 153.93 48.3753 153.899 48.0811C153.868 47.7868 153.813 47.542 153.735 47.3467C153.657 47.1488 153.549 46.999 153.411 46.8975C153.275 46.7933 153.098 46.7412 152.879 46.7412C152.663 46.7412 152.485 46.7933 152.344 46.8975C152.206 46.999 152.097 47.1514 152.016 47.3545C151.938 47.5524 151.885 47.8024 151.856 48.1045C151.827 48.4066 151.813 48.7477 151.813 49.1279C151.813 49.5342 151.825 49.874 151.848 50.1475C151.874 50.4209 151.929 50.6657 152.012 50.8818C152.088 51.0824 152.194 51.2373 152.333 51.3467C152.473 51.4535 152.655 51.5068 152.879 51.5068C153.096 51.5068 153.273 51.4561 153.411 51.3545C153.551 51.2503 153.661 51.0967 153.739 50.8936ZM159.106 49.1201C159.106 50.1644 158.954 50.9313 158.649 51.4209C158.347 51.9079 157.879 52.1514 157.247 52.1514C156.606 52.1514 156.136 51.9027 155.836 51.4053C155.537 50.9079 155.387 50.1488 155.387 49.1279C155.387 48.0785 155.538 47.3115 155.84 46.8271C156.145 46.3402 156.614 46.0967 157.247 46.0967C157.887 46.0967 158.357 46.348 158.657 46.8506C158.956 47.3532 159.106 48.1097 159.106 49.1201ZM158.106 50.8936C158.181 50.7008 158.235 50.4574 158.266 50.1631C158.297 49.8688 158.313 49.5212 158.313 49.1201C158.313 48.7217 158.297 48.3753 158.266 48.0811C158.235 47.7868 158.18 47.542 158.102 47.3467C158.024 47.1488 157.916 46.999 157.778 46.8975C157.642 46.7933 157.465 46.7412 157.247 46.7412C157.03 46.7412 156.852 46.7933 156.711 46.8975C156.573 46.999 156.464 47.1514 156.383 47.3545C156.305 47.5524 156.252 47.8024 156.223 48.1045C156.194 48.4066 156.18 48.7477 156.18 49.1279C156.18 49.5342 156.192 49.874 156.215 50.1475C156.241 50.4209 156.296 50.6657 156.379 50.8818C156.455 51.0824 156.562 51.2373 156.7 51.3467C156.84 51.4535 157.023 51.5068 157.247 51.5068C157.463 51.5068 157.64 51.4561 157.778 51.3545C157.918 51.2503 158.028 51.0967 158.106 50.8936Z" fill="#D7E2F2"/>
<line x1="158.405" y1="54.9849" x2="140.564" y2="54.9849" stroke="#8C99B2" stroke-width="0.5"/>
<path d="M148.89 32.731C159.73 32.731 168.518 41.5186 168.518 52.3586C168.518 58.526 165.669 64.0306 161.23 67.6232L156.74 62.0756C159.578 59.7798 161.381 56.2812 161.381 52.3586C161.381 45.4599 155.789 39.8673 148.89 39.8673V32.731Z" fill="url(#paint0_linear)"/>
<path d="M148.89 32.731C159.73 32.731 168.518 41.5186 168.518 52.3586C168.518 58.526 165.669 64.0306 161.23 67.6232L156.74 62.0756C159.578 59.7798 161.381 56.2812 161.381 52.3586C161.381 45.4599 155.789 39.8673 148.89 39.8673V32.731Z" fill="url(#paint1_linear)"/>
<path d="M161.375 67.8182L156.321 62.4659L156.915 61.8711L161.375 67.8182Z" fill="white"/>
<path d="M32.6475 94.208C32.8965 94.4951 33.0898 94.8511 33.2275 95.2759C33.3652 95.7007 33.4341 96.1855 33.4341 96.7305C33.4341 97.2607 33.3667 97.7397 33.2319 98.1675C33.0972 98.5952 32.9023 98.9541 32.6475 99.2441C32.3809 99.5488 32.0688 99.7744 31.7114 99.9209C31.3569 100.064 30.9658 100.136 30.5381 100.136C30.0957 100.136 29.6973 100.062 29.3428 99.9121C28.9883 99.7627 28.6836 99.54 28.4287 99.2441C28.1768 98.9541 27.9834 98.5967 27.8486 98.1719C27.7139 97.7471 27.6465 97.2666 27.6465 96.7305C27.6465 96.1797 27.7139 95.6963 27.8486 95.2803C27.9863 94.8643 28.1812 94.5068 28.4331 94.208C28.6851 93.918 28.9883 93.6982 29.3428 93.5488C29.7002 93.3965 30.0986 93.3203 30.5381 93.3203C30.9834 93.3203 31.3848 93.3979 31.7422 93.5532C32.0996 93.7085 32.4014 93.9268 32.6475 94.208ZM32.5288 96.7305C32.5288 96.2969 32.4819 95.9131 32.3882 95.5791C32.2944 95.2451 32.1626 94.9683 31.9927 94.7485C31.8198 94.5229 31.6104 94.3545 31.3643 94.2432C31.1211 94.1289 30.8472 94.0718 30.5425 94.0718C30.2261 94.0718 29.9492 94.1274 29.7119 94.2388C29.4775 94.3472 29.2695 94.5171 29.0879 94.7485C28.915 94.9712 28.7817 95.251 28.688 95.5879C28.5972 95.9248 28.5518 96.3057 28.5518 96.7305C28.5518 97.5889 28.7319 98.2466 29.0923 98.7036C29.4526 99.1577 29.936 99.3848 30.5425 99.3848C31.1489 99.3848 31.6309 99.1577 31.9883 98.7036C32.3486 98.2466 32.5288 97.5889 32.5288 96.7305ZM37.8066 95.8164C37.9971 96.0098 38.145 96.2559 38.2505 96.5547C38.356 96.8506 38.4087 97.1948 38.4087 97.5874C38.4087 97.9653 38.3486 98.3154 38.2285 98.6377C38.1084 98.957 37.9458 99.2266 37.7407 99.4463C37.5298 99.6748 37.2954 99.8477 37.0376 99.9648C36.7827 100.079 36.5044 100.136 36.2026 100.136C35.895 100.136 35.6123 100.083 35.3545 99.978C35.0996 99.8696 34.8813 99.7041 34.6997 99.4814C34.4741 99.2031 34.3042 98.8545 34.1899 98.4355C34.0786 98.0166 34.0229 97.498 34.0229 96.8799C34.0229 96.6602 34.0317 96.4375 34.0493 96.2119C34.0698 95.9834 34.1123 95.7109 34.1768 95.3945C34.2354 95.1133 34.3145 94.8525 34.4141 94.6123C34.5137 94.3691 34.644 94.1641 34.8052 93.9971C35.0132 93.7803 35.2842 93.6074 35.6182 93.4785C35.9551 93.3496 36.4004 93.2603 36.9541 93.2104C37.1504 93.1929 37.3599 93.1768 37.5825 93.1621C37.8081 93.1445 37.9795 93.1313 38.0967 93.1226V93.8828C37.9443 93.8916 37.7817 93.9033 37.6089 93.918C37.436 93.9297 37.2383 93.9443 37.0156 93.9619C36.7197 93.9854 36.4106 94.0381 36.0884 94.1201C35.7661 94.1992 35.5229 94.3237 35.3589 94.4937C35.2358 94.6196 35.1377 94.7998 35.0645 95.0342C34.9912 95.2686 34.9399 95.5293 34.9106 95.8164C35.1274 95.6611 35.3589 95.5308 35.605 95.4253C35.854 95.3169 36.1221 95.2627 36.4092 95.2627C36.6758 95.2627 36.9292 95.3081 37.1694 95.3989C37.4097 95.4868 37.6221 95.626 37.8066 95.8164ZM37.5693 97.6357C37.5693 97.1143 37.4521 96.7144 37.2178 96.436C36.9834 96.1577 36.6494 96.0186 36.2158 96.0186C35.9785 96.0186 35.7485 96.0581 35.5259 96.1372C35.3032 96.2163 35.0938 96.3218 34.8975 96.4536C34.8916 96.5269 34.8857 96.6147 34.8799 96.7173C34.874 96.8169 34.8711 96.9077 34.8711 96.9897C34.8711 97.4995 34.9121 97.9141 34.9941 98.2334C35.0762 98.5527 35.1904 98.8032 35.3369 98.9849C35.4688 99.1489 35.6079 99.2632 35.7544 99.3276C35.9009 99.3892 36.0605 99.4199 36.2334 99.4199C36.6553 99.4199 36.9834 99.2603 37.2178 98.9409C37.4521 98.6216 37.5693 98.1865 37.5693 97.6357ZM45.5718 101.178H44.8027V100H39.2744V95.0913H40.1006V99.3013H41.7661V95.0913H42.5923V99.3013H44.2578V95.0913H45.084V99.3013H45.5718V101.178ZM50.2607 100H49.4434V96.3394L47.1318 100H46.3848V95.0913H47.2021V98.6948L49.4873 95.0913H50.2607V100ZM55.332 100H54.5146V96.3394L52.2031 100H51.4561V95.0913H52.2734V98.6948L54.5586 95.0913H55.332V100ZM54.9629 92.8105C54.9629 93.0625 54.9321 93.2925 54.8706 93.5005C54.8091 93.7056 54.7212 93.8784 54.6069 94.019C54.4751 94.1743 54.3257 94.2915 54.1587 94.3706C53.9917 94.4468 53.7778 94.4849 53.5171 94.4849C53.2769 94.4849 53.0659 94.4453 52.8843 94.3662C52.7056 94.2842 52.5547 94.1685 52.4316 94.019C52.3115 93.8726 52.2207 93.6968 52.1592 93.4917C52.0977 93.2866 52.0669 93.0596 52.0669 92.8105H52.7788C52.7788 93.2061 52.8403 93.4917 52.9634 93.6675C53.0864 93.8403 53.271 93.9268 53.5171 93.9268C53.7485 93.9268 53.9287 93.8418 54.0576 93.6719C54.1865 93.499 54.251 93.2119 54.251 92.8105H54.9629ZM64.2441 100H63.1367L60.8252 97.0029H60.2759V100H59.4058V93.4565H60.2759V96.4053C60.6187 96.3936 60.8896 96.3071 61.0889 96.146C61.291 95.9849 61.4551 95.7534 61.5811 95.4517C61.6338 95.3198 61.6807 95.1953 61.7217 95.0781C61.7656 94.958 61.8008 94.8569 61.8271 94.7749C62.0029 94.2739 62.2271 93.9297 62.4995 93.7422C62.772 93.5518 63.1499 93.4565 63.6333 93.4565H63.9014V94.2344H63.6816C63.3242 94.2344 63.0737 94.3047 62.9302 94.4453C62.7866 94.583 62.6548 94.8452 62.5347 95.2319C62.4146 95.6187 62.2798 95.9028 62.1304 96.0845C61.981 96.2632 61.8008 96.4214 61.5898 96.5591L64.2441 100ZM69.5791 100H68.709V94.23H65.6987V100H64.8286V93.4565H69.5791V100ZM75.3535 96.7041C75.3535 97.7441 75.0781 98.5732 74.5273 99.1914C73.9795 99.8096 73.2617 100.119 72.374 100.119C71.999 100.119 71.6445 100.081 71.3105 100.004C70.9795 99.9312 70.688 99.8359 70.436 99.7188V98.7563H70.502C70.7129 98.9468 70.981 99.0991 71.3062 99.2134C71.6313 99.3247 71.9785 99.3804 72.3477 99.3804C72.9775 99.3804 73.4902 99.1504 73.8857 98.6904C74.2812 98.2305 74.479 97.624 74.479 96.8711H71.2886V96.1108H74.4351C74.3677 95.478 74.1479 94.9814 73.7759 94.6211C73.4067 94.2578 72.9307 94.0762 72.3477 94.0762C71.9873 94.0762 71.6504 94.1318 71.3369 94.2432C71.0234 94.3545 70.751 94.5098 70.5195 94.709H70.4536V93.7422C70.688 93.6338 70.9751 93.54 71.3149 93.4609C71.6577 93.3789 72.0137 93.3379 72.3828 93.3379C73.3262 93.3379 74.0571 93.6309 74.5757 94.2168C75.0942 94.7998 75.3535 95.6289 75.3535 96.7041Z" fill="#D7E2F2"/>
<path d="M210.622 89.269H209.515L207.204 86.272H206.654V89.269H205.784V82.7256H206.654V85.6743C206.997 85.6626 207.268 85.5762 207.467 85.415C207.669 85.2539 207.833 85.0225 207.959 84.7207C208.012 84.5889 208.059 84.4644 208.1 84.3472C208.144 84.2271 208.179 84.126 208.205 84.0439C208.381 83.543 208.605 83.1987 208.878 83.0112C209.15 82.8208 209.528 82.7256 210.012 82.7256H210.28V83.5034H210.06C209.703 83.5034 209.452 83.5737 209.308 83.7144C209.165 83.8521 209.033 84.1143 208.913 84.501C208.793 84.8877 208.658 85.1719 208.509 85.3535C208.359 85.5322 208.179 85.6904 207.968 85.8281L210.622 89.269ZM215.957 89.269H215.087V83.499H212.077V89.269H211.207V82.7256H215.957V89.269ZM221.732 85.9731C221.732 87.0132 221.456 87.8423 220.906 88.4604C220.358 89.0786 219.64 89.3877 218.752 89.3877C218.377 89.3877 218.023 89.3496 217.689 89.2734C217.358 89.2002 217.066 89.105 216.814 88.9878V88.0254H216.88C217.091 88.2158 217.359 88.3682 217.684 88.4824C218.01 88.5938 218.357 88.6494 218.726 88.6494C219.356 88.6494 219.869 88.4194 220.264 87.9595C220.66 87.4995 220.857 86.8931 220.857 86.1401H217.667V85.3799H220.813C220.746 84.7471 220.526 84.2505 220.154 83.8901C219.785 83.5269 219.309 83.3452 218.726 83.3452C218.366 83.3452 218.029 83.4009 217.715 83.5122C217.402 83.6235 217.129 83.7788 216.898 83.978H216.832V83.0112C217.066 82.9028 217.353 82.8091 217.693 82.73C218.036 82.6479 218.392 82.6069 218.761 82.6069C219.704 82.6069 220.435 82.8999 220.954 83.4858C221.473 84.0688 221.732 84.8979 221.732 85.9731ZM229.308 89.269H228.482V85.0723H226.258V89.269H225.432V84.3604H229.308V89.269ZM234.542 86.8169C234.542 87.6431 234.343 88.2817 233.944 88.7329C233.546 89.1812 233.016 89.4053 232.353 89.4053C231.671 89.4053 231.133 89.1738 230.741 88.7109C230.351 88.2451 230.156 87.6138 230.156 86.8169C230.156 85.9966 230.357 85.3594 230.758 84.9053C231.162 84.4512 231.694 84.2241 232.353 84.2241C233.016 84.2241 233.546 84.4512 233.944 84.9053C234.343 85.3564 234.542 85.9937 234.542 86.8169ZM233.689 86.8169C233.689 86.1812 233.574 85.7095 233.342 85.4019C233.111 85.0913 232.781 84.936 232.353 84.936C231.923 84.936 231.59 85.0913 231.356 85.4019C231.124 85.7095 231.009 86.1812 231.009 86.8169C231.009 87.4321 231.124 87.8994 231.356 88.2188C231.59 88.5352 231.923 88.6934 232.353 88.6934C232.778 88.6934 233.106 88.5381 233.338 88.2275C233.572 87.9141 233.689 87.4438 233.689 86.8169ZM206.307 97.269H205.279L203.596 95.0059H203.183V97.269H202.356V92.3604H203.183V94.4961C203.396 94.4932 203.578 94.4492 203.727 94.3643C203.88 94.2764 204.009 94.1079 204.114 93.8589C204.146 93.7856 204.182 93.7007 204.22 93.604C204.261 93.5073 204.293 93.4224 204.316 93.3491C204.445 92.9888 204.624 92.7339 204.852 92.5845C205.081 92.4351 205.378 92.3604 205.745 92.3604H205.969V93.0723H205.78C205.548 93.0723 205.374 93.1206 205.257 93.2173C205.142 93.311 205.046 93.4839 204.967 93.7358C204.885 93.9907 204.788 94.1899 204.677 94.3335C204.565 94.4741 204.442 94.5825 204.308 94.6587L206.307 97.269ZM209.581 96.0605V94.6982C209.385 94.7158 209.136 94.7407 208.834 94.7729C208.535 94.8022 208.293 94.8447 208.109 94.9004C207.889 94.9678 207.707 95.0718 207.564 95.2124C207.42 95.3501 207.349 95.5435 207.349 95.7925C207.349 96.0737 207.428 96.2861 207.586 96.4297C207.744 96.5732 207.975 96.645 208.28 96.645C208.541 96.645 208.777 96.5894 208.988 96.478C209.199 96.3638 209.396 96.2246 209.581 96.0605ZM209.581 96.7461C209.514 96.7959 209.423 96.8662 209.308 96.957C209.197 97.0449 209.089 97.1152 208.983 97.168C208.837 97.2441 208.695 97.3027 208.557 97.3438C208.422 97.3848 208.232 97.4053 207.986 97.4053C207.784 97.4053 207.592 97.3672 207.41 97.291C207.228 97.2148 207.069 97.1079 206.931 96.9702C206.799 96.8354 206.694 96.6699 206.615 96.4736C206.536 96.2744 206.496 96.0649 206.496 95.8452C206.496 95.5054 206.568 95.2168 206.711 94.9795C206.855 94.7393 207.082 94.5488 207.392 94.4082C207.668 94.2822 207.993 94.1958 208.368 94.1489C208.743 94.0991 209.147 94.0625 209.581 94.0391V93.8809C209.581 93.6875 209.552 93.5322 209.493 93.415C209.434 93.2949 209.352 93.2026 209.247 93.1382C209.141 93.0708 209.013 93.0269 208.86 93.0063C208.708 92.9829 208.551 92.9712 208.39 92.9712C208.2 92.9712 207.975 93.0005 207.718 93.0591C207.46 93.1147 207.202 93.1968 206.944 93.3052H206.896V92.4658C207.048 92.4219 207.266 92.3735 207.551 92.3208C207.835 92.2681 208.116 92.2417 208.394 92.2417C208.731 92.2417 209.016 92.2681 209.247 92.3208C209.478 92.3735 209.686 92.4688 209.871 92.6064C210.05 92.7412 210.183 92.9155 210.271 93.1294C210.359 93.3433 210.403 93.604 210.403 93.9116V97.269H209.581V96.7461ZM215.259 97.269H214.433V95.353C214.175 95.438 213.924 95.5039 213.681 95.5508C213.438 95.5977 213.198 95.6211 212.96 95.6211C212.752 95.6211 212.549 95.5947 212.35 95.542C212.153 95.4863 211.983 95.397 211.84 95.2739C211.696 95.1509 211.585 94.9941 211.506 94.8037C211.43 94.6104 211.391 94.3833 211.391 94.1226V92.3604H212.218V93.6919C212.218 93.9087 212.226 94.0815 212.244 94.2104C212.262 94.3364 212.31 94.4595 212.389 94.5796C212.456 94.6821 212.558 94.7612 212.692 94.8169C212.83 94.8726 213.01 94.9004 213.233 94.9004C213.426 94.9004 213.633 94.8813 213.852 94.8433C214.075 94.8052 214.268 94.7598 214.433 94.707V92.3604H215.259V97.269ZM218.585 97.3833C217.803 97.3833 217.195 97.1636 216.762 96.7241C216.331 96.2817 216.116 95.6548 216.116 94.8433C216.116 94.0435 216.325 93.4077 216.744 92.936C217.163 92.4614 217.711 92.2241 218.388 92.2241C218.692 92.2241 218.962 92.2681 219.196 92.356C219.431 92.4438 219.636 92.5815 219.811 92.769C219.987 92.9565 220.122 93.1865 220.216 93.459C220.309 93.7285 220.356 94.0596 220.356 94.4521V94.9004H216.955C216.955 95.4717 217.099 95.9082 217.386 96.21C217.673 96.5117 218.07 96.6626 218.577 96.6626C218.758 96.6626 218.935 96.6421 219.108 96.6011C219.284 96.5601 219.442 96.5073 219.583 96.4429C219.732 96.3755 219.858 96.311 219.961 96.2495C220.063 96.1851 220.148 96.125 220.216 96.0693H220.264V96.9702C220.167 97.0083 220.047 97.0566 219.904 97.1152C219.76 97.1709 219.631 97.2148 219.517 97.2471C219.356 97.291 219.209 97.3247 219.078 97.3481C218.949 97.3716 218.785 97.3833 218.585 97.3833ZM219.552 94.2676C219.546 94.0449 219.52 93.853 219.473 93.6919C219.426 93.5308 219.359 93.3945 219.271 93.2832C219.174 93.1602 219.05 93.0664 218.897 93.002C218.748 92.9375 218.562 92.9053 218.339 92.9053C218.12 92.9053 217.932 92.939 217.777 93.0063C217.624 93.0708 217.485 93.166 217.359 93.292C217.236 93.4209 217.142 93.5645 217.078 93.7227C217.014 93.8779 216.973 94.0596 216.955 94.2676H219.552ZM223.142 97.3789C222.806 97.3789 222.496 97.3276 222.215 97.2251C221.934 97.1196 221.692 96.9614 221.49 96.7505C221.288 96.5396 221.131 96.2744 221.02 95.9551C220.909 95.6328 220.853 95.2549 220.853 94.8213C220.853 94.3906 220.91 94.0186 221.024 93.7051C221.141 93.3916 221.297 93.1279 221.49 92.9141C221.683 92.7002 221.924 92.5361 222.211 92.4219C222.501 92.3047 222.811 92.2461 223.142 92.2461C223.412 92.2461 223.671 92.2842 223.92 92.3604C224.172 92.4365 224.396 92.5244 224.593 92.624V93.5513H224.544C224.486 93.5015 224.41 93.4443 224.316 93.3799C224.225 93.3154 224.114 93.2495 223.982 93.1821C223.868 93.1235 223.733 93.0723 223.578 93.0283C223.422 92.9844 223.273 92.9624 223.129 92.9624C222.702 92.9624 222.357 93.125 222.097 93.4502C221.839 93.7725 221.71 94.2295 221.71 94.8213C221.71 95.4014 221.834 95.854 222.083 96.1792C222.335 96.5015 222.684 96.6626 223.129 96.6626C223.399 96.6626 223.655 96.6069 223.898 96.4956C224.141 96.3843 224.357 96.2407 224.544 96.0649H224.593V96.9922C224.511 97.0303 224.408 97.0771 224.285 97.1328C224.162 97.1855 224.051 97.2251 223.951 97.2515C223.81 97.2925 223.684 97.3232 223.573 97.3438C223.462 97.3672 223.318 97.3789 223.142 97.3789ZM228.934 93.0854H227.265V97.269H226.438V93.0854H224.768V92.3604H228.934V93.0854ZM233.399 95.7837C233.399 96.021 233.354 96.2319 233.263 96.4165C233.172 96.5981 233.048 96.7505 232.89 96.8735C232.69 97.0288 232.481 97.1343 232.261 97.1899C232.044 97.2427 231.784 97.269 231.479 97.269H229.55V92.3604H231.351C231.712 92.3604 231.975 92.3721 232.142 92.3955C232.309 92.416 232.475 92.4717 232.639 92.5625C232.812 92.6562 232.939 92.7808 233.021 92.936C233.103 93.0913 233.144 93.2759 233.144 93.4897C233.144 93.7241 233.08 93.9351 232.951 94.1226C232.822 94.3071 232.651 94.4507 232.437 94.5532L232.459 94.584C232.725 94.6514 232.948 94.7876 233.127 94.9927C233.308 95.1978 233.399 95.4614 233.399 95.7837ZM232.296 93.6172C232.296 93.5059 232.277 93.4092 232.239 93.3271C232.204 93.2451 232.141 93.1807 232.05 93.1338C231.945 93.0781 231.826 93.0459 231.694 93.0371C231.565 93.0254 231.385 93.0195 231.154 93.0195H230.367V94.3643H231.316C231.518 94.3643 231.662 94.3555 231.747 94.3379C231.832 94.3174 231.926 94.2764 232.028 94.2148C232.125 94.1562 232.194 94.0771 232.235 93.9775C232.276 93.8779 232.296 93.7578 232.296 93.6172ZM232.547 95.7881C232.547 95.6211 232.522 95.4878 232.472 95.3882C232.425 95.2856 232.32 95.1948 232.156 95.1157C232.053 95.0659 231.943 95.0352 231.826 95.0234C231.709 95.0117 231.546 95.0059 231.338 95.0059H230.367V96.6099H231.083C231.379 96.6099 231.609 96.5981 231.773 96.5747C231.937 96.5513 232.078 96.5044 232.195 96.4341C232.318 96.3579 232.408 96.27 232.463 96.1704C232.519 96.0708 232.547 95.9434 232.547 95.7881ZM238.128 92.3604L235.487 99.0796H234.603L235.482 97.0317L233.698 92.3604H234.59L235.931 95.9946L237.266 92.3604H238.128Z" fill="#D7E2F2"/>
<path d="M213.222 78.6023H210.032V77.9343H211.219V73.5486H210.032V72.9509C210.48 72.9509 210.81 72.8879 211.021 72.762C211.235 72.6331 211.355 72.3914 211.381 72.0369H212.062V77.9343H213.222V78.6023ZM218.5 75.3284C218.5 76.5032 218.329 77.366 217.986 77.9167C217.646 78.4646 217.12 78.7385 216.408 78.7385C215.688 78.7385 215.159 78.4587 214.822 77.8992C214.485 77.3396 214.317 76.4856 214.317 75.3372C214.317 74.1565 214.487 73.2937 214.826 72.7488C215.169 72.2009 215.697 71.927 216.408 71.927C217.129 71.927 217.658 72.2097 217.995 72.7751C218.332 73.3406 218.5 74.1917 218.5 75.3284ZM217.375 77.3235C217.46 77.1067 217.52 76.8328 217.555 76.5017C217.591 76.1707 217.608 75.7795 217.608 75.3284C217.608 74.8801 217.591 74.4905 217.555 74.1594C217.52 73.8284 217.459 73.553 217.371 73.3333C217.283 73.1106 217.161 72.9421 217.006 72.8279C216.854 72.7107 216.655 72.6521 216.408 72.6521C216.165 72.6521 215.965 72.7107 215.806 72.8279C215.651 72.9421 215.528 73.1135 215.437 73.342C215.349 73.5647 215.289 73.8459 215.257 74.1858C215.225 74.5256 215.209 74.9094 215.209 75.3372C215.209 75.7942 215.222 76.1765 215.248 76.4841C215.278 76.7917 215.339 77.0671 215.433 77.3103C215.518 77.5359 215.638 77.7102 215.793 77.8333C215.951 77.9534 216.156 78.0134 216.408 78.0134C216.652 78.0134 216.851 77.9563 217.006 77.842C217.164 77.7249 217.287 77.552 217.375 77.3235ZM223.413 75.3284C223.413 76.5032 223.242 77.366 222.899 77.9167C222.559 78.4646 222.033 78.7385 221.322 78.7385C220.601 78.7385 220.072 78.4587 219.735 77.8992C219.398 77.3396 219.23 76.4856 219.23 75.3372C219.23 74.1565 219.4 73.2937 219.74 72.7488C220.082 72.2009 220.61 71.927 221.322 71.927C222.042 71.927 222.571 72.2097 222.908 72.7751C223.245 73.3406 223.413 74.1917 223.413 75.3284ZM222.288 77.3235C222.373 77.1067 222.433 76.8328 222.469 76.5017C222.504 76.1707 222.521 75.7795 222.521 75.3284C222.521 74.8801 222.504 74.4905 222.469 74.1594C222.433 73.8284 222.372 73.553 222.284 73.3333C222.196 73.1106 222.074 72.9421 221.919 72.8279C221.767 72.7107 221.568 72.6521 221.322 72.6521C221.078 72.6521 220.878 72.7107 220.719 72.8279C220.564 72.9421 220.441 73.1135 220.35 73.342C220.262 73.5647 220.202 73.8459 220.17 74.1858C220.138 74.5256 220.122 74.9094 220.122 75.3372C220.122 75.7942 220.135 76.1765 220.161 76.4841C220.191 76.7917 220.252 77.0671 220.346 77.3103C220.431 77.5359 220.551 77.7102 220.706 77.8333C220.865 77.9534 221.07 78.0134 221.322 78.0134C221.565 78.0134 221.764 77.9563 221.919 77.842C222.077 77.7249 222.2 77.552 222.288 77.3235ZM227.324 73.8738C227.324 74.533 227.191 75.0222 226.925 75.3416C226.661 75.658 226.279 75.8162 225.778 75.8162C225.268 75.8162 224.881 75.655 224.617 75.3328C224.357 75.0105 224.226 74.5256 224.226 73.8782C224.226 73.2219 224.36 72.7341 224.626 72.4148C224.893 72.0955 225.277 71.9358 225.778 71.9358C226.287 71.9358 226.673 72.0969 226.933 72.4192C227.194 72.7415 227.324 73.2263 227.324 73.8738ZM230.251 72.0588L226.823 78.6023H226.098L229.526 72.0588H230.251ZM232.115 76.7874C232.115 77.4465 231.981 77.9358 231.715 78.2551C231.451 78.5715 231.069 78.7297 230.568 78.7297C230.058 78.7297 229.671 78.5686 229.407 78.2463C229.147 77.9241 229.016 77.4392 229.016 76.7917C229.016 76.1355 229.15 75.6477 229.416 75.3284C229.683 75.009 230.067 74.8494 230.568 74.8494C231.077 74.8494 231.463 75.0105 231.723 75.3328C231.984 75.655 232.115 76.1399 232.115 76.7874ZM226.542 73.8738C226.542 73.4285 226.49 73.0916 226.384 72.863C226.281 72.6345 226.079 72.5203 225.778 72.5203C225.476 72.5203 225.272 72.636 225.167 72.8674C225.061 73.0989 225.009 73.4358 225.009 73.8782C225.009 74.3176 225.058 74.6531 225.158 74.8845C225.258 75.116 225.464 75.2317 225.778 75.2317C226.079 75.2317 226.281 75.116 226.384 74.8845C226.49 74.6531 226.542 74.3162 226.542 73.8738ZM231.332 76.7874C231.332 76.342 231.28 76.0051 231.174 75.7766C231.072 75.5481 230.869 75.4338 230.568 75.4338C230.266 75.4338 230.062 75.5496 229.957 75.781C229.851 76.0125 229.799 76.3494 229.799 76.7917C229.799 77.2312 229.848 77.5667 229.948 77.7981C230.048 78.0295 230.254 78.1453 230.568 78.1453C230.869 78.1453 231.072 78.0295 231.174 77.7981C231.28 77.5667 231.332 77.2297 231.332 76.7874Z" fill="#606580"/>
<path d="M218.939 62.269H213.908L215.947 56.4526H216.9L218.939 62.269ZM217.892 61.5972L216.404 57.2222L214.92 61.5972H217.892ZM225.443 59.3589C225.443 60.4032 225.291 61.1701 224.986 61.6597C224.684 62.1466 224.217 62.3901 223.584 62.3901C222.943 62.3901 222.473 62.1414 222.174 61.644C221.874 61.1466 221.725 60.3875 221.725 59.3667C221.725 58.3172 221.876 57.5503 222.178 57.0659C222.482 56.5789 222.951 56.3354 223.584 56.3354C224.225 56.3354 224.695 56.5868 224.994 57.0894C225.294 57.592 225.443 58.3485 225.443 59.3589ZM224.443 61.1323C224.519 60.9396 224.572 60.6961 224.603 60.4019C224.635 60.1076 224.65 59.7599 224.65 59.3589C224.65 58.9604 224.635 58.6141 224.603 58.3198C224.572 58.0256 224.517 57.7808 224.439 57.5854C224.361 57.3875 224.253 57.2378 224.115 57.1362C223.98 57.0321 223.803 56.98 223.584 56.98C223.368 56.98 223.189 57.0321 223.049 57.1362C222.911 57.2378 222.801 57.3901 222.721 57.5933C222.642 57.7912 222.589 58.0412 222.56 58.3433C222.532 58.6453 222.517 58.9865 222.517 59.3667C222.517 59.7729 222.529 60.1128 222.553 60.3862C222.579 60.6597 222.633 60.9045 222.717 61.1206C222.792 61.3211 222.899 61.4761 223.037 61.5854C223.178 61.6922 223.36 61.7456 223.584 61.7456C223.8 61.7456 223.977 61.6948 224.115 61.5933C224.256 61.4891 224.365 61.3354 224.443 61.1323Z" fill="#606580"/>
<path d="M205.301 71.4524C199.912 67.0914 196.466 60.4235 196.466 52.9507C196.466 39.813 207.116 29.1628 220.254 29.1628C233.391 29.1628 244.042 39.813 244.042 52.9507C244.042 60.4235 240.596 67.0914 235.207 71.4524" stroke="#12151E" stroke-width="14"/>
<path d="M205.301 71.4524C199.912 67.0914 196.466 60.4235 196.466 52.9507C196.466 39.813 207.116 29.1628 220.254 29.1628C233.391 29.1628 244.042 39.813 244.042 52.9507C244.042 60.4235 240.596 67.0914 235.207 71.4524" stroke="#0089FF" stroke-width="4" stroke-dasharray="1 1"/>
<path d="M237.892 74.6829L232.572 68.2271" stroke="#0089FF" stroke-width="2"/>
<path d="M202.754 74.7418L208.077 68.2273" stroke="#0089FF" stroke-width="2"/>
<path d="M213.558 48.6045C213.558 48.2087 213.522 47.887 213.449 47.6396C213.376 47.3896 213.276 47.1969 213.148 47.0615C213.034 46.9365 212.918 46.8506 212.801 46.8037C212.683 46.7568 212.555 46.7334 212.414 46.7334C212.094 46.7334 211.838 46.848 211.648 47.0771C211.458 47.3063 211.363 47.6383 211.363 48.0732C211.363 48.318 211.394 48.5199 211.457 48.6787C211.519 48.8376 211.621 48.9743 211.762 49.0889C211.861 49.1696 211.973 49.2243 212.098 49.2529C212.223 49.279 212.357 49.292 212.5 49.292C212.667 49.292 212.846 49.2633 213.039 49.2061C213.232 49.1462 213.4 49.068 213.543 48.9717C213.545 48.9326 213.548 48.8818 213.551 48.8193C213.556 48.7542 213.558 48.6826 213.558 48.6045ZM210.57 48.1045C210.57 47.805 210.618 47.5316 210.715 47.2842C210.814 47.0368 210.948 46.8232 211.117 46.6436C211.279 46.4717 211.475 46.3376 211.707 46.2412C211.941 46.1449 212.178 46.0967 212.418 46.0967C212.686 46.0967 212.928 46.1423 213.144 46.2334C213.363 46.3219 213.552 46.4508 213.711 46.6201C213.911 46.8337 214.066 47.1136 214.176 47.46C214.288 47.8063 214.344 48.2438 214.344 48.7725C214.344 49.2542 214.289 49.7113 214.18 50.1436C214.073 50.5732 213.914 50.93 213.703 51.2139C213.479 51.516 213.21 51.7464 212.894 51.9053C212.582 52.0641 212.195 52.1436 211.734 52.1436C211.63 52.1436 211.519 52.137 211.402 52.124C211.285 52.1136 211.176 52.0928 211.074 52.0615V51.3154H211.113C211.178 51.3519 211.28 51.387 211.418 51.4209C211.556 51.4548 211.696 51.4717 211.84 51.4717C212.35 51.4717 212.751 51.3037 213.043 50.9678C213.335 50.6318 213.5 50.1514 213.539 49.5264C213.331 49.667 213.131 49.7699 212.941 49.835C212.754 49.9001 212.549 49.9326 212.328 49.9326C212.112 49.9326 211.915 49.9092 211.738 49.8623C211.561 49.8154 211.383 49.7243 211.203 49.5889C210.995 49.43 210.837 49.2295 210.73 48.9873C210.624 48.7425 210.57 48.4482 210.57 48.1045ZM217.926 48.6045C217.926 48.2087 217.889 47.887 217.816 47.6396C217.743 47.3896 217.643 47.1969 217.515 47.0615C217.401 46.9365 217.285 46.8506 217.168 46.8037C217.051 46.7568 216.922 46.7334 216.781 46.7334C216.461 46.7334 216.206 46.848 216.015 47.0771C215.825 47.3063 215.73 47.6383 215.73 48.0732C215.73 48.318 215.762 48.5199 215.824 48.6787C215.887 48.8376 215.988 48.9743 216.129 49.0889C216.228 49.1696 216.34 49.2243 216.465 49.2529C216.59 49.279 216.724 49.292 216.867 49.292C217.034 49.292 217.213 49.2633 217.406 49.2061C217.599 49.1462 217.767 49.068 217.91 48.9717C217.913 48.9326 217.915 48.8818 217.918 48.8193C217.923 48.7542 217.926 48.6826 217.926 48.6045ZM214.937 48.1045C214.937 47.805 214.986 47.5316 215.082 47.2842C215.181 47.0368 215.315 46.8232 215.484 46.6436C215.646 46.4717 215.842 46.3376 216.074 46.2412C216.308 46.1449 216.545 46.0967 216.785 46.0967C217.053 46.0967 217.295 46.1423 217.512 46.2334C217.73 46.3219 217.919 46.4508 218.078 46.6201C218.279 46.8337 218.433 47.1136 218.543 47.46C218.655 47.8063 218.711 48.2438 218.711 48.7725C218.711 49.2542 218.656 49.7113 218.547 50.1436C218.44 50.5732 218.281 50.93 218.07 51.2139C217.846 51.516 217.577 51.7464 217.262 51.9053C216.949 52.0641 216.562 52.1436 216.101 52.1436C215.997 52.1436 215.887 52.137 215.769 52.124C215.652 52.1136 215.543 52.0928 215.441 52.0615V51.3154H215.48C215.545 51.3519 215.647 51.387 215.785 51.4209C215.923 51.4548 216.064 51.4717 216.207 51.4717C216.717 51.4717 217.118 51.3037 217.41 50.9678C217.702 50.6318 217.867 50.1514 217.906 49.5264C217.698 49.667 217.499 49.7699 217.308 49.835C217.121 49.9001 216.917 49.9326 216.695 49.9326C216.479 49.9326 216.282 49.9092 216.105 49.8623C215.928 49.8154 215.75 49.7243 215.57 49.5889C215.362 49.43 215.204 49.2295 215.098 48.9873C214.991 48.7425 214.937 48.4482 214.937 48.1045ZM220.719 52.0303H219.785V50.917H220.719V52.0303ZM225.508 49.1201C225.508 50.1644 225.355 50.9313 225.051 51.4209C224.749 51.9079 224.281 52.1514 223.648 52.1514C223.008 52.1514 222.538 51.9027 222.238 51.4053C221.939 50.9079 221.789 50.1488 221.789 49.1279C221.789 48.0785 221.94 47.3115 222.242 46.8271C222.547 46.3402 223.015 46.0967 223.648 46.0967C224.289 46.0967 224.759 46.348 225.058 46.8506C225.358 47.3532 225.508 48.1097 225.508 49.1201ZM224.508 50.8936C224.583 50.7008 224.637 50.4574 224.668 50.1631C224.699 49.8688 224.715 49.5212 224.715 49.1201C224.715 48.7217 224.699 48.3753 224.668 48.0811C224.637 47.7868 224.582 47.542 224.504 47.3467C224.426 47.1488 224.318 46.999 224.18 46.8975C224.044 46.7933 223.867 46.7412 223.648 46.7412C223.432 46.7412 223.254 46.7933 223.113 46.8975C222.975 46.999 222.866 47.1514 222.785 47.3545C222.707 47.5524 222.654 47.8024 222.625 48.1045C222.596 48.4066 222.582 48.7477 222.582 49.1279C222.582 49.5342 222.594 49.874 222.617 50.1475C222.643 50.4209 222.698 50.6657 222.781 50.8818C222.857 51.0824 222.963 51.2373 223.101 51.3467C223.242 51.4535 223.424 51.5068 223.648 51.5068C223.864 51.5068 224.042 51.4561 224.18 51.3545C224.32 51.2503 224.43 51.0967 224.508 50.8936ZM229.875 49.1201C229.875 50.1644 229.723 50.9313 229.418 51.4209C229.116 51.9079 228.648 52.1514 228.015 52.1514C227.375 52.1514 226.905 51.9027 226.605 51.4053C226.306 50.9079 226.156 50.1488 226.156 49.1279C226.156 48.0785 226.307 47.3115 226.609 46.8271C226.914 46.3402 227.383 46.0967 228.015 46.0967C228.656 46.0967 229.126 46.348 229.426 46.8506C229.725 47.3532 229.875 48.1097 229.875 49.1201ZM228.875 50.8936C228.95 50.7008 229.004 50.4574 229.035 50.1631C229.066 49.8688 229.082 49.5212 229.082 49.1201C229.082 48.7217 229.066 48.3753 229.035 48.0811C229.004 47.7868 228.949 47.542 228.871 47.3467C228.793 47.1488 228.685 46.999 228.547 46.8975C228.411 46.7933 228.234 46.7412 228.015 46.7412C227.799 46.7412 227.621 46.7933 227.48 46.8975C227.342 46.999 227.233 47.1514 227.152 47.3545C227.074 47.5524 227.021 47.8024 226.992 48.1045C226.963 48.4066 226.949 48.7477 226.949 49.1279C226.949 49.5342 226.961 49.874 226.984 50.1475C227.01 50.4209 227.065 50.6657 227.148 50.8818C227.224 51.0824 227.331 51.2373 227.469 51.3467C227.609 51.4535 227.792 51.5068 228.015 51.5068C228.232 51.5068 228.409 51.4561 228.547 51.3545C228.687 51.2503 228.797 51.0967 228.875 50.8936Z" fill="#D7E2F2"/>
<line x1="229.174" y1="54.9849" x2="211.333" y2="54.9849" stroke="#8C99B2" stroke-width="0.5"/>
<path d="M219.659 32.731C230.499 32.731 239.287 41.5186 239.287 52.3586C239.287 58.526 236.438 64.0306 231.998 67.6232L227.509 62.0756C230.347 59.7798 232.15 56.2812 232.15 52.3586C232.15 45.4599 226.558 39.8673 219.659 39.8673V32.731Z" fill="url(#paint2_linear)"/>
<path d="M219.659 32.731C230.499 32.731 239.287 41.5186 239.287 52.3586C239.287 58.526 236.438 64.0306 231.998 67.6232L227.509 62.0756C230.347 59.7798 232.15 56.2812 232.15 52.3586C232.15 45.4599 226.558 39.8673 219.659 39.8673V32.731Z" fill="url(#paint3_linear)"/>
<path d="M232.144 67.8182L227.09 62.4659L227.684 61.8711L232.144 67.8182Z" fill="white"/>
<path d="M278.715 89.269H277.608L275.296 86.272H274.747V89.269H273.877V82.7256H274.747V85.6743C275.09 85.6626 275.361 85.5762 275.56 85.415C275.762 85.2539 275.926 85.0225 276.052 84.7207C276.105 84.5889 276.152 84.4644 276.193 84.3472C276.237 84.2271 276.272 84.126 276.298 84.0439C276.474 83.543 276.698 83.1987 276.971 83.0112C277.243 82.8208 277.621 82.7256 278.104 82.7256H278.373V83.5034H278.153C277.795 83.5034 277.545 83.5737 277.401 83.7144C277.258 83.8521 277.126 84.1143 277.006 84.501C276.886 84.8877 276.751 85.1719 276.602 85.3535C276.452 85.5322 276.272 85.6904 276.061 85.8281L278.715 89.269ZM284.05 89.269H283.18V83.499H280.17V89.269H279.3V82.7256H284.05V89.269ZM289.825 85.9731C289.825 87.0132 289.549 87.8423 288.999 88.4604C288.451 89.0786 287.733 89.3877 286.845 89.3877C286.47 89.3877 286.116 89.3496 285.782 89.2734C285.451 89.2002 285.159 89.105 284.907 88.9878V88.0254H284.973C285.184 88.2158 285.452 88.3682 285.777 88.4824C286.103 88.5938 286.45 88.6494 286.819 88.6494C287.449 88.6494 287.961 88.4194 288.357 87.9595C288.752 87.4995 288.95 86.8931 288.95 86.1401H285.76V85.3799H288.906C288.839 84.7471 288.619 84.2505 288.247 83.8901C287.878 83.5269 287.402 83.3452 286.819 83.3452C286.459 83.3452 286.122 83.4009 285.808 83.5122C285.495 83.6235 285.222 83.7788 284.991 83.978H284.925V83.0112C285.159 82.9028 285.446 82.8091 285.786 82.73C286.129 82.6479 286.485 82.6069 286.854 82.6069C287.797 82.6069 288.528 82.8999 289.047 83.4858C289.565 84.0688 289.825 84.8979 289.825 85.9731ZM297.401 89.269H296.575V85.0723H294.351V89.269H293.525V84.3604H297.401V89.269ZM302.635 86.8169C302.635 87.6431 302.436 88.2817 302.037 88.7329C301.639 89.1812 301.108 89.4053 300.446 89.4053C299.764 89.4053 299.226 89.1738 298.834 88.7109C298.444 88.2451 298.249 87.6138 298.249 86.8169C298.249 85.9966 298.45 85.3594 298.851 84.9053C299.255 84.4512 299.787 84.2241 300.446 84.2241C301.108 84.2241 301.639 84.4512 302.037 84.9053C302.436 85.3564 302.635 85.9937 302.635 86.8169ZM301.782 86.8169C301.782 86.1812 301.667 85.7095 301.435 85.4019C301.204 85.0913 300.874 84.936 300.446 84.936C300.016 84.936 299.683 85.0913 299.449 85.4019C299.217 85.7095 299.102 86.1812 299.102 86.8169C299.102 87.4321 299.217 87.8994 299.449 88.2188C299.683 88.5352 300.016 88.6934 300.446 88.6934C300.871 88.6934 301.199 88.5381 301.431 88.2275C301.665 87.9141 301.782 87.4438 301.782 86.8169ZM265.237 96.144H265.29C265.354 96.1997 265.434 96.2583 265.527 96.3198C265.624 96.3784 265.737 96.4341 265.866 96.4868C266.006 96.5454 266.141 96.5908 266.27 96.623C266.399 96.6553 266.557 96.6714 266.745 96.6714C267.167 96.6714 267.505 96.5293 267.76 96.2451C268.015 95.9609 268.161 95.5493 268.199 95.0103H265.967V94.3467H268.195C268.142 93.8809 267.988 93.5322 267.733 93.3008C267.481 93.0693 267.168 92.9536 266.793 92.9536C266.626 92.9536 266.471 92.9727 266.327 93.0107C266.184 93.0459 266.044 93.0942 265.91 93.1558C265.798 93.2085 265.699 93.2656 265.611 93.3271C265.526 93.3887 265.444 93.4517 265.365 93.5161H265.312V92.6108C265.467 92.5435 265.686 92.4658 265.967 92.3779C266.251 92.29 266.521 92.2461 266.775 92.2461C267.106 92.2461 267.41 92.2959 267.685 92.3955C267.96 92.4951 268.198 92.6475 268.397 92.8525C268.599 93.0635 268.753 93.3198 268.858 93.6216C268.967 93.9204 269.021 94.2852 269.021 94.7158C269.021 95.5361 268.81 96.1851 268.388 96.6626C267.969 97.1401 267.402 97.3789 266.688 97.3789C266.421 97.3789 266.16 97.3438 265.905 97.2734C265.653 97.2061 265.431 97.1313 265.237 97.0493V96.144ZM273.771 97.269H272.945V95.0586H270.722V97.269H269.896V92.3604H270.722V94.3467H272.945V92.3604H273.771V97.269ZM277.098 97.3833C276.316 97.3833 275.708 97.1636 275.274 96.7241C274.844 96.2817 274.628 95.6548 274.628 94.8433C274.628 94.0435 274.838 93.4077 275.257 92.936C275.676 92.4614 276.224 92.2241 276.9 92.2241C277.205 92.2241 277.475 92.2681 277.709 92.356C277.943 92.4438 278.148 92.5815 278.324 92.769C278.5 92.9565 278.635 93.1865 278.729 93.459C278.822 93.7285 278.869 94.0596 278.869 94.4521V94.9004H275.468C275.468 95.4717 275.611 95.9082 275.898 96.21C276.186 96.5117 276.583 96.6626 277.089 96.6626C277.271 96.6626 277.448 96.6421 277.621 96.6011C277.797 96.5601 277.955 96.5073 278.096 96.4429C278.245 96.3755 278.371 96.311 278.474 96.2495C278.576 96.1851 278.661 96.125 278.729 96.0693H278.777V96.9702C278.68 97.0083 278.56 97.0566 278.417 97.1152C278.273 97.1709 278.144 97.2148 278.03 97.2471C277.869 97.291 277.722 97.3247 277.59 97.3481C277.461 97.3716 277.297 97.3833 277.098 97.3833ZM278.065 94.2676C278.059 94.0449 278.033 93.853 277.986 93.6919C277.939 93.5308 277.872 93.3945 277.784 93.2832C277.687 93.1602 277.563 93.0664 277.41 93.002C277.261 92.9375 277.075 92.9053 276.852 92.9053C276.632 92.9053 276.445 92.939 276.29 93.0063C276.137 93.0708 275.998 93.166 275.872 93.292C275.749 93.4209 275.655 93.5645 275.591 93.7227C275.526 93.8779 275.485 94.0596 275.468 94.2676H278.065ZM283.822 94.6851C283.822 95.5024 283.625 96.1543 283.233 96.6406C282.843 97.124 282.35 97.3657 281.752 97.3657C281.509 97.3657 281.293 97.3379 281.106 97.2822C280.918 97.2266 280.727 97.1401 280.53 97.0229V99.0796H279.704V92.3604H280.53V92.8745C280.735 92.6899 280.962 92.5361 281.211 92.4131C281.463 92.2871 281.737 92.2241 282.033 92.2241C282.596 92.2241 283.034 92.4468 283.347 92.8921C283.664 93.3374 283.822 93.9351 283.822 94.6851ZM282.969 94.7773C282.969 94.2178 282.88 93.7842 282.701 93.4766C282.522 93.166 282.232 93.0107 281.831 93.0107C281.597 93.0107 281.37 93.0635 281.15 93.1689C280.933 93.2715 280.727 93.4048 280.53 93.5688V96.3506C280.747 96.4561 280.932 96.5278 281.084 96.5659C281.239 96.604 281.417 96.623 281.616 96.623C282.043 96.623 282.376 96.4663 282.613 96.1528C282.851 95.8394 282.969 95.3809 282.969 94.7773ZM287.799 93.0854H285.505V97.269H284.679V92.3604H287.799V93.0854ZM290.545 97.3833C289.763 97.3833 289.155 97.1636 288.722 96.7241C288.291 96.2817 288.076 95.6548 288.076 94.8433C288.076 94.0435 288.285 93.4077 288.704 92.936C289.123 92.4614 289.671 92.2241 290.348 92.2241C290.652 92.2241 290.922 92.2681 291.156 92.356C291.391 92.4438 291.596 92.5815 291.771 92.769C291.947 92.9565 292.082 93.1865 292.176 93.459C292.27 93.7285 292.316 94.0596 292.316 94.4521V94.9004H288.915C288.915 95.4717 289.059 95.9082 289.346 96.21C289.633 96.5117 290.03 96.6626 290.537 96.6626C290.718 96.6626 290.896 96.6421 291.068 96.6011C291.244 96.5601 291.402 96.5073 291.543 96.4429C291.692 96.3755 291.818 96.311 291.921 96.2495C292.023 96.1851 292.108 96.125 292.176 96.0693H292.224V96.9702C292.127 97.0083 292.007 97.0566 291.864 97.1152C291.72 97.1709 291.591 97.2148 291.477 97.2471C291.316 97.291 291.169 97.3247 291.038 97.3481C290.909 97.3716 290.745 97.3833 290.545 97.3833ZM291.512 94.2676C291.506 94.0449 291.48 93.853 291.433 93.6919C291.386 93.5308 291.319 93.3945 291.231 93.2832C291.134 93.1602 291.01 93.0664 290.857 93.002C290.708 92.9375 290.522 92.9053 290.299 92.9053C290.08 92.9053 289.892 92.939 289.737 93.0063C289.584 93.0708 289.445 93.166 289.319 93.292C289.196 93.4209 289.103 93.5645 289.038 93.7227C288.974 93.8779 288.933 94.0596 288.915 94.2676H291.512ZM296.737 93.0854H295.067V97.269H294.241V93.0854H292.571V92.3604H296.737V93.0854ZM301.229 97.269H300.411V93.6084L298.1 97.269H297.353V92.3604H298.17V95.9639L300.455 92.3604H301.229V97.269ZM306.375 97.269H305.346L303.663 95.0059H303.25V97.269H302.424V92.3604H303.25V94.4961C303.464 94.4932 303.646 94.4492 303.795 94.3643C303.947 94.2764 304.076 94.1079 304.182 93.8589C304.214 93.7856 304.249 93.7007 304.287 93.604C304.328 93.5073 304.36 93.4224 304.384 93.3491C304.513 92.9888 304.691 92.7339 304.92 92.5845C305.148 92.4351 305.446 92.3604 305.812 92.3604H306.036V93.0723H305.847C305.616 93.0723 305.441 93.1206 305.324 93.2173C305.21 93.311 305.113 93.4839 305.034 93.7358C304.952 93.9907 304.855 94.1899 304.744 94.3335C304.633 94.4741 304.51 94.5825 304.375 94.6587L306.375 97.269ZM309.038 97.3833C308.255 97.3833 307.647 97.1636 307.214 96.7241C306.783 96.2817 306.568 95.6548 306.568 94.8433C306.568 94.0435 306.777 93.4077 307.196 92.936C307.615 92.4614 308.163 92.2241 308.84 92.2241C309.145 92.2241 309.414 92.2681 309.648 92.356C309.883 92.4438 310.088 92.5815 310.264 92.769C310.439 92.9565 310.574 93.1865 310.668 93.459C310.762 93.7285 310.809 94.0596 310.809 94.4521V94.9004H307.407C307.407 95.4717 307.551 95.9082 307.838 96.21C308.125 96.5117 308.522 96.6626 309.029 96.6626C309.21 96.6626 309.388 96.6421 309.561 96.6011C309.736 96.5601 309.895 96.5073 310.035 96.4429C310.185 96.3755 310.311 96.311 310.413 96.2495C310.516 96.1851 310.601 96.125 310.668 96.0693H310.716V96.9702C310.62 97.0083 310.5 97.0566 310.356 97.1152C310.212 97.1709 310.084 97.2148 309.969 97.2471C309.808 97.291 309.662 97.3247 309.53 97.3481C309.401 97.3716 309.237 97.3833 309.038 97.3833ZM310.004 94.2676C309.999 94.0449 309.972 93.853 309.925 93.6919C309.878 93.5308 309.811 93.3945 309.723 93.2832C309.626 93.1602 309.502 93.0664 309.35 93.002C309.2 92.9375 309.014 92.9053 308.792 92.9053C308.572 92.9053 308.384 92.939 308.229 93.0063C308.077 93.0708 307.938 93.166 307.812 93.292C307.688 93.4209 307.595 93.5645 307.53 93.7227C307.466 93.8779 307.425 94.0596 307.407 94.2676H310.004Z" fill="#D7E2F2"/>
<path d="M281.018 78.6023H277.828V77.9343H279.014V73.5486H277.828V72.9509C278.276 72.9509 278.605 72.8879 278.816 72.762C279.03 72.6331 279.15 72.3914 279.177 72.0369H279.858V77.9343H281.018V78.6023ZM286.296 75.3284C286.296 76.5032 286.124 77.366 285.782 77.9167C285.442 78.4646 284.916 78.7385 284.204 78.7385C283.483 78.7385 282.954 78.4587 282.618 77.8992C282.281 77.3396 282.112 76.4856 282.112 75.3372C282.112 74.1565 282.282 73.2937 282.622 72.7488C282.965 72.2009 283.492 71.927 284.204 71.927C284.925 71.927 285.453 72.2097 285.79 72.7751C286.127 73.3406 286.296 74.1917 286.296 75.3284ZM285.171 77.3235C285.256 77.1067 285.316 76.8328 285.351 76.5017C285.386 76.1707 285.404 75.7795 285.404 75.3284C285.404 74.8801 285.386 74.4905 285.351 74.1594C285.316 73.8284 285.254 73.553 285.166 73.3333C285.078 73.1106 284.957 72.9421 284.802 72.8279C284.649 72.7107 284.45 72.6521 284.204 72.6521C283.961 72.6521 283.76 72.7107 283.602 72.8279C283.447 72.9421 283.324 73.1135 283.233 73.342C283.145 73.5647 283.085 73.8459 283.053 74.1858C283.02 74.5256 283.004 74.9094 283.004 75.3372C283.004 75.7942 283.017 76.1765 283.044 76.4841C283.073 76.7917 283.135 77.0671 283.228 77.3103C283.313 77.5359 283.433 77.7102 283.589 77.8333C283.747 77.9534 283.952 78.0134 284.204 78.0134C284.447 78.0134 284.646 77.9563 284.802 77.842C284.96 77.7249 285.083 77.552 285.171 77.3235ZM291.209 75.3284C291.209 76.5032 291.037 77.366 290.695 77.9167C290.355 78.4646 289.829 78.7385 289.117 78.7385C288.396 78.7385 287.868 78.4587 287.531 77.8992C287.194 77.3396 287.025 76.4856 287.025 75.3372C287.025 74.1565 287.195 73.2937 287.535 72.7488C287.878 72.2009 288.405 71.927 289.117 71.927C289.838 71.927 290.367 72.2097 290.703 72.7751C291.04 73.3406 291.209 74.1917 291.209 75.3284ZM290.084 77.3235C290.169 77.1067 290.229 76.8328 290.264 76.5017C290.299 76.1707 290.317 75.7795 290.317 75.3284C290.317 74.8801 290.299 74.4905 290.264 74.1594C290.229 73.8284 290.167 73.553 290.079 73.3333C289.992 73.1106 289.87 72.9421 289.715 72.8279C289.562 72.7107 289.363 72.6521 289.117 72.6521C288.874 72.6521 288.673 72.7107 288.515 72.8279C288.36 72.9421 288.237 73.1135 288.146 73.342C288.058 73.5647 287.998 73.8459 287.966 74.1858C287.933 74.5256 287.917 74.9094 287.917 75.3372C287.917 75.7942 287.931 76.1765 287.957 76.4841C287.986 76.7917 288.048 77.0671 288.141 77.3103C288.226 77.5359 288.347 77.7102 288.502 77.8333C288.66 77.9534 288.865 78.0134 289.117 78.0134C289.36 78.0134 289.559 77.9563 289.715 77.842C289.873 77.7249 289.996 77.552 290.084 77.3235ZM295.12 73.8738C295.12 74.533 294.987 75.0222 294.72 75.3416C294.456 75.658 294.074 75.8162 293.573 75.8162C293.063 75.8162 292.677 75.655 292.413 75.3328C292.152 75.0105 292.022 74.5256 292.022 73.8782C292.022 73.2219 292.155 72.7341 292.422 72.4148C292.688 72.0955 293.072 71.9358 293.573 71.9358C294.083 71.9358 294.468 72.0969 294.729 72.4192C294.99 72.7415 295.12 73.2263 295.12 73.8738ZM298.047 72.0588L294.619 78.6023H293.894L297.322 72.0588H298.047ZM299.91 76.7874C299.91 77.4465 299.777 77.9358 299.51 78.2551C299.246 78.5715 298.864 78.7297 298.363 78.7297C297.853 78.7297 297.467 78.5686 297.203 78.2463C296.942 77.9241 296.812 77.4392 296.812 76.7917C296.812 76.1355 296.945 75.6477 297.212 75.3284C297.478 75.009 297.862 74.8494 298.363 74.8494C298.873 74.8494 299.258 75.0105 299.519 75.3328C299.78 75.655 299.91 76.1399 299.91 76.7874ZM294.338 73.8738C294.338 73.4285 294.285 73.0916 294.18 72.863C294.077 72.6345 293.875 72.5203 293.573 72.5203C293.271 72.5203 293.068 72.636 292.962 72.8674C292.857 73.0989 292.804 73.4358 292.804 73.8782C292.804 74.3176 292.854 74.6531 292.953 74.8845C293.053 75.116 293.26 75.2317 293.573 75.2317C293.875 75.2317 294.077 75.116 294.18 74.8845C294.285 74.6531 294.338 74.3162 294.338 73.8738ZM299.128 76.7874C299.128 76.342 299.075 76.0051 298.97 75.7766C298.867 75.5481 298.665 75.4338 298.363 75.4338C298.061 75.4338 297.858 75.5496 297.752 75.781C297.647 76.0125 297.594 76.3494 297.594 76.7917C297.594 77.2312 297.644 77.5667 297.744 77.7981C297.843 78.0295 298.05 78.1453 298.363 78.1453C298.665 78.1453 298.867 78.0295 298.97 77.7981C299.075 77.5667 299.128 77.2297 299.128 76.7874Z" fill="#606580"/>
<path d="M286.735 62.269H281.704L283.743 56.4526H284.696L286.735 62.269ZM285.688 61.5972L284.2 57.2222L282.715 61.5972H285.688ZM293.239 59.3589C293.239 60.4032 293.086 61.1701 292.782 61.6597C292.48 62.1466 292.012 62.3901 291.379 62.3901C290.739 62.3901 290.269 62.1414 289.969 61.644C289.67 61.1466 289.52 60.3875 289.52 59.3667C289.52 58.3172 289.671 57.5503 289.973 57.0659C290.278 56.5789 290.747 56.3354 291.379 56.3354C292.02 56.3354 292.49 56.5868 292.79 57.0894C293.089 57.592 293.239 58.3485 293.239 59.3589ZM292.239 61.1323C292.314 60.9396 292.368 60.6961 292.399 60.4019C292.43 60.1076 292.446 59.7599 292.446 59.3589C292.446 58.9604 292.43 58.6141 292.399 58.3198C292.368 58.0256 292.313 57.7808 292.235 57.5854C292.157 57.3875 292.049 57.2378 291.911 57.1362C291.775 57.0321 291.598 56.98 291.379 56.98C291.163 56.98 290.985 57.0321 290.844 57.1362C290.706 57.2378 290.597 57.3901 290.516 57.5933C290.438 57.7912 290.385 58.0412 290.356 58.3433C290.327 58.6453 290.313 58.9865 290.313 59.3667C290.313 59.7729 290.325 60.1128 290.348 60.3862C290.374 60.6597 290.429 60.9045 290.512 61.1206C290.588 61.3211 290.695 61.4761 290.833 61.5854C290.973 61.6922 291.155 61.7456 291.379 61.7456C291.596 61.7456 291.773 61.6948 291.911 61.5933C292.051 61.4891 292.161 61.3354 292.239 61.1323Z" fill="#606580"/>
<path d="M273.096 71.4524C267.707 67.0914 264.261 60.4235 264.261 52.9507C264.261 39.813 274.912 29.1628 288.049 29.1628C301.187 29.1628 311.837 39.813 311.837 52.9507C311.837 60.4235 308.391 67.0914 303.002 71.4524" stroke="#12151E" stroke-width="14"/>
<path d="M273.096 71.4524C267.707 67.0914 264.261 60.4235 264.261 52.9507C264.261 39.813 274.912 29.1628 288.049 29.1628C301.187 29.1628 311.837 39.813 311.837 52.9507C311.837 60.4235 308.391 67.0914 303.002 71.4524" stroke="#0089FF" stroke-width="4" stroke-dasharray="1 1"/>
<path d="M305.687 74.6829L300.367 68.2271" stroke="#0089FF" stroke-width="2"/>
<path d="M270.549 74.7418L275.873 68.2273" stroke="#0089FF" stroke-width="2"/>
<path d="M281.354 48.6045C281.354 48.2087 281.318 47.887 281.245 47.6396C281.172 47.3896 281.071 47.1969 280.944 47.0615C280.829 46.9365 280.713 46.8506 280.596 46.8037C280.479 46.7568 280.35 46.7334 280.209 46.7334C279.889 46.7334 279.634 46.848 279.444 47.0771C279.254 47.3063 279.159 47.6383 279.159 48.0732C279.159 48.318 279.19 48.5199 279.252 48.6787C279.315 48.8376 279.417 48.9743 279.557 49.0889C279.656 49.1696 279.768 49.2243 279.893 49.2529C280.018 49.279 280.152 49.292 280.295 49.292C280.462 49.292 280.642 49.2633 280.834 49.2061C281.027 49.1462 281.195 49.068 281.338 48.9717C281.341 48.9326 281.344 48.8818 281.346 48.8193C281.351 48.7542 281.354 48.6826 281.354 48.6045ZM278.366 48.1045C278.366 47.805 278.414 47.5316 278.51 47.2842C278.609 47.0368 278.743 46.8232 278.913 46.6436C279.074 46.4717 279.271 46.3376 279.502 46.2412C279.737 46.1449 279.974 46.0967 280.213 46.0967C280.482 46.0967 280.724 46.1423 280.94 46.2334C281.159 46.3219 281.347 46.4508 281.506 46.6201C281.707 46.8337 281.862 47.1136 281.971 47.46C282.083 47.8063 282.139 48.2438 282.139 48.7725C282.139 49.2542 282.084 49.7113 281.975 50.1436C281.868 50.5732 281.709 50.93 281.499 51.2139C281.275 51.516 281.005 51.7464 280.69 51.9053C280.377 52.0641 279.991 52.1436 279.53 52.1436C279.426 52.1436 279.315 52.137 279.198 52.124C279.081 52.1136 278.971 52.0928 278.87 52.0615V51.3154H278.909C278.974 51.3519 279.075 51.387 279.213 51.4209C279.351 51.4548 279.492 51.4717 279.635 51.4717C280.146 51.4717 280.547 51.3037 280.838 50.9678C281.13 50.6318 281.295 50.1514 281.334 49.5264C281.126 49.667 280.927 49.7699 280.737 49.835C280.549 49.9001 280.345 49.9326 280.124 49.9326C279.907 49.9326 279.711 49.9092 279.534 49.8623C279.357 49.8154 279.178 49.7243 278.999 49.5889C278.79 49.43 278.633 49.2295 278.526 48.9873C278.419 48.7425 278.366 48.4482 278.366 48.1045ZM285.721 48.6045C285.721 48.2087 285.685 47.887 285.612 47.6396C285.539 47.3896 285.439 47.1969 285.311 47.0615C285.196 46.9365 285.081 46.8506 284.963 46.8037C284.846 46.7568 284.717 46.7334 284.577 46.7334C284.256 46.7334 284.001 46.848 283.811 47.0771C283.621 47.3063 283.526 47.6383 283.526 48.0732C283.526 48.318 283.557 48.5199 283.62 48.6787C283.682 48.8376 283.784 48.9743 283.924 49.0889C284.023 49.1696 284.135 49.2243 284.26 49.2529C284.385 49.279 284.519 49.292 284.663 49.292C284.829 49.292 285.009 49.2633 285.202 49.2061C285.394 49.1462 285.562 49.068 285.706 48.9717C285.708 48.9326 285.711 48.8818 285.713 48.8193C285.719 48.7542 285.721 48.6826 285.721 48.6045ZM282.733 48.1045C282.733 47.805 282.781 47.5316 282.877 47.2842C282.976 47.0368 283.111 46.8232 283.28 46.6436C283.441 46.4717 283.638 46.3376 283.87 46.2412C284.104 46.1449 284.341 46.0967 284.581 46.0967C284.849 46.0967 285.091 46.1423 285.307 46.2334C285.526 46.3219 285.715 46.4508 285.874 46.6201C286.074 46.8337 286.229 47.1136 286.338 47.46C286.45 47.8063 286.506 48.2438 286.506 48.7725C286.506 49.2542 286.452 49.7113 286.342 50.1436C286.236 50.5732 286.077 50.93 285.866 51.2139C285.642 51.516 285.372 51.7464 285.057 51.9053C284.745 52.0641 284.358 52.1436 283.897 52.1436C283.793 52.1436 283.682 52.137 283.565 52.124C283.448 52.1136 283.338 52.0928 283.237 52.0615V51.3154H283.276C283.341 51.3519 283.443 51.387 283.581 51.4209C283.719 51.4548 283.859 51.4717 284.002 51.4717C284.513 51.4717 284.914 51.3037 285.206 50.9678C285.497 50.6318 285.663 50.1514 285.702 49.5264C285.493 49.667 285.294 49.7699 285.104 49.835C284.917 49.9001 284.712 49.9326 284.491 49.9326C284.275 49.9326 284.078 49.9092 283.901 49.8623C283.724 49.8154 283.545 49.7243 283.366 49.5889C283.157 49.43 283 49.2295 282.893 48.9873C282.786 48.7425 282.733 48.4482 282.733 48.1045ZM288.514 52.0303H287.581V50.917H288.514V52.0303ZM293.303 49.1201C293.303 50.1644 293.151 50.9313 292.846 51.4209C292.544 51.9079 292.077 52.1514 291.444 52.1514C290.803 52.1514 290.333 51.9027 290.034 51.4053C289.734 50.9079 289.584 50.1488 289.584 49.1279C289.584 48.0785 289.736 47.3115 290.038 46.8271C290.342 46.3402 290.811 46.0967 291.444 46.0967C292.084 46.0967 292.555 46.348 292.854 46.8506C293.153 47.3532 293.303 48.1097 293.303 49.1201ZM292.303 50.8936C292.379 50.7008 292.432 50.4574 292.463 50.1631C292.495 49.8688 292.51 49.5212 292.51 49.1201C292.51 48.7217 292.495 48.3753 292.463 48.0811C292.432 47.7868 292.377 47.542 292.299 47.3467C292.221 47.1488 292.113 46.999 291.975 46.8975C291.84 46.7933 291.663 46.7412 291.444 46.7412C291.228 46.7412 291.049 46.7933 290.909 46.8975C290.771 46.999 290.661 47.1514 290.581 47.3545C290.502 47.5524 290.449 47.8024 290.42 48.1045C290.392 48.4066 290.377 48.7477 290.377 49.1279C290.377 49.5342 290.389 49.874 290.413 50.1475C290.439 50.4209 290.493 50.6657 290.577 50.8818C290.652 51.0824 290.759 51.2373 290.897 51.3467C291.038 51.4535 291.22 51.5068 291.444 51.5068C291.66 51.5068 291.837 51.4561 291.975 51.3545C292.116 51.2503 292.225 51.0967 292.303 50.8936ZM297.67 49.1201C297.67 50.1644 297.518 50.9313 297.213 51.4209C296.911 51.9079 296.444 52.1514 295.811 52.1514C295.17 52.1514 294.7 51.9027 294.401 51.4053C294.101 50.9079 293.952 50.1488 293.952 49.1279C293.952 48.0785 294.103 47.3115 294.405 46.8271C294.709 46.3402 295.178 46.0967 295.811 46.0967C296.452 46.0967 296.922 46.348 297.221 46.8506C297.521 47.3532 297.67 48.1097 297.67 49.1201ZM296.67 50.8936C296.746 50.7008 296.799 50.4574 296.831 50.1631C296.862 49.8688 296.877 49.5212 296.877 49.1201C296.877 48.7217 296.862 48.3753 296.831 48.0811C296.799 47.7868 296.745 47.542 296.667 47.3467C296.588 47.1488 296.48 46.999 296.342 46.8975C296.207 46.7933 296.03 46.7412 295.811 46.7412C295.595 46.7412 295.417 46.7933 295.276 46.8975C295.138 46.999 295.028 47.1514 294.948 47.3545C294.87 47.5524 294.816 47.8024 294.788 48.1045C294.759 48.4066 294.745 48.7477 294.745 49.1279C294.745 49.5342 294.756 49.874 294.78 50.1475C294.806 50.4209 294.861 50.6657 294.944 50.8818C295.019 51.0824 295.126 51.2373 295.264 51.3467C295.405 51.4535 295.587 51.5068 295.811 51.5068C296.027 51.5068 296.204 51.4561 296.342 51.3545C296.483 51.2503 296.592 51.0967 296.67 50.8936Z" fill="#D7E2F2"/>
<line x1="296.97" y1="54.9849" x2="279.129" y2="54.9849" stroke="#8C99B2" stroke-width="0.5"/>
<path d="M287.455 32.731C298.295 32.731 307.082 41.5186 307.082 52.3586C307.082 58.526 304.234 64.0306 299.794 67.6232L295.305 62.0756C298.142 59.7798 299.946 56.2812 299.946 52.3586C299.946 45.4599 294.353 39.8673 287.455 39.8673V32.731Z" fill="url(#paint4_linear)"/>
<path d="M287.455 32.731C298.295 32.731 307.082 41.5186 307.082 52.3586C307.082 58.526 304.234 64.0306 299.794 67.6232L295.305 62.0756C298.142 59.7798 299.946 56.2812 299.946 52.3586C299.946 45.4599 294.353 39.8673 287.455 39.8673V32.731Z" fill="url(#paint5_linear)"/>
<path d="M299.94 67.8182L294.885 62.4659L295.48 61.8711L299.94 67.8182Z" fill="white"/>
<path d="M44.7324 53.8613C44.7324 53.2676 44.6777 52.7852 44.5684 52.4141C44.459 52.0391 44.3086 51.75 44.1172 51.5469C43.9453 51.3594 43.7715 51.2305 43.5957 51.1602C43.4199 51.0898 43.2266 51.0547 43.0156 51.0547C42.5352 51.0547 42.1523 51.2266 41.8672 51.5703C41.582 51.9141 41.4395 52.4121 41.4395 53.0645C41.4395 53.4316 41.4863 53.7344 41.5801 53.9727C41.6738 54.2109 41.8262 54.416 42.0371 54.5879C42.1855 54.709 42.3535 54.791 42.541 54.834C42.7285 54.873 42.9297 54.8926 43.1445 54.8926C43.3945 54.8926 43.6641 54.8496 43.9531 54.7637C44.2422 54.6738 44.4941 54.5566 44.709 54.4121C44.7129 54.3535 44.7168 54.2773 44.7207 54.1836C44.7285 54.0859 44.7324 53.9785 44.7324 53.8613ZM40.25 53.1113C40.25 52.6621 40.3223 52.252 40.4668 51.8809C40.6152 51.5098 40.8164 51.1895 41.0703 50.9199C41.3125 50.6621 41.6074 50.4609 41.9551 50.3164C42.3066 50.1719 42.6621 50.0996 43.0215 50.0996C43.4238 50.0996 43.7871 50.168 44.1113 50.3047C44.4395 50.4375 44.7227 50.6309 44.9609 50.8848C45.2617 51.2051 45.4941 51.625 45.6582 52.1445C45.8262 52.6641 45.9102 53.3203 45.9102 54.1133C45.9102 54.8359 45.8281 55.5215 45.6641 56.1699C45.5039 56.8145 45.2656 57.3496 44.9492 57.7754C44.6133 58.2285 44.209 58.5742 43.7363 58.8125C43.2676 59.0508 42.6875 59.1699 41.9961 59.1699C41.8398 59.1699 41.6738 59.1602 41.498 59.1406C41.3223 59.125 41.1582 59.0938 41.0059 59.0469V57.9277H41.0645C41.1621 57.9824 41.3145 58.0352 41.5215 58.0859C41.7285 58.1367 41.9395 58.1621 42.1543 58.1621C42.9199 58.1621 43.5215 57.9102 43.959 57.4062C44.3965 56.9023 44.6445 56.1816 44.7031 55.2441C44.3906 55.4551 44.0918 55.6094 43.8066 55.707C43.5254 55.8047 43.2188 55.8535 42.8867 55.8535C42.5625 55.8535 42.2676 55.8184 42.002 55.748C41.7363 55.6777 41.4688 55.541 41.1992 55.3379C40.8867 55.0996 40.6504 54.7988 40.4902 54.4355C40.3301 54.0684 40.25 53.627 40.25 53.1113ZM51.2832 53.8613C51.2832 53.2676 51.2285 52.7852 51.1191 52.4141C51.0098 52.0391 50.8594 51.75 50.668 51.5469C50.4961 51.3594 50.3223 51.2305 50.1465 51.1602C49.9707 51.0898 49.7773 51.0547 49.5664 51.0547C49.0859 51.0547 48.7031 51.2266 48.418 51.5703C48.1328 51.9141 47.9902 52.4121 47.9902 53.0645C47.9902 53.4316 48.0371 53.7344 48.1309 53.9727C48.2246 54.2109 48.377 54.416 48.5879 54.5879C48.7363 54.709 48.9043 54.791 49.0918 54.834C49.2793 54.873 49.4805 54.8926 49.6953 54.8926C49.9453 54.8926 50.2148 54.8496 50.5039 54.7637C50.793 54.6738 51.0449 54.5566 51.2598 54.4121C51.2637 54.3535 51.2676 54.2773 51.2715 54.1836C51.2793 54.0859 51.2832 53.9785 51.2832 53.8613ZM46.8008 53.1113C46.8008 52.6621 46.873 52.252 47.0176 51.8809C47.166 51.5098 47.3672 51.1895 47.6211 50.9199C47.8633 50.6621 48.1582 50.4609 48.5059 50.3164C48.8574 50.1719 49.2129 50.0996 49.5723 50.0996C49.9746 50.0996 50.3379 50.168 50.6621 50.3047C50.9902 50.4375 51.2734 50.6309 51.5117 50.8848C51.8125 51.2051 52.0449 51.625 52.209 52.1445C52.377 52.6641 52.4609 53.3203 52.4609 54.1133C52.4609 54.8359 52.3789 55.5215 52.2148 56.1699C52.0547 56.8145 51.8164 57.3496 51.5 57.7754C51.1641 58.2285 50.7598 58.5742 50.2871 58.8125C49.8184 59.0508 49.2383 59.1699 48.5469 59.1699C48.3906 59.1699 48.2246 59.1602 48.0488 59.1406C47.873 59.125 47.709 59.0938 47.5566 59.0469V57.9277H47.6152C47.7129 57.9824 47.8652 58.0352 48.0723 58.0859C48.2793 58.1367 48.4902 58.1621 48.7051 58.1621C49.4707 58.1621 50.0723 57.9102 50.5098 57.4062C50.9473 56.9023 51.1953 56.1816 51.2539 55.2441C50.9414 55.4551 50.6426 55.6094 50.3574 55.707C50.0762 55.8047 49.7695 55.8535 49.4375 55.8535C49.1133 55.8535 48.8184 55.8184 48.5527 55.748C48.2871 55.6777 48.0195 55.541 47.75 55.3379C47.4375 55.0996 47.2012 54.7988 47.041 54.4355C46.8809 54.0684 46.8008 53.627 46.8008 53.1113ZM55.4727 59H54.0723V57.3301H55.4727V59ZM62.6562 54.6348C62.6562 56.2012 62.4277 57.3516 61.9707 58.0859C61.5176 58.8164 60.8164 59.1816 59.8672 59.1816C58.9062 59.1816 58.2012 58.8086 57.752 58.0625C57.3027 57.3164 57.0781 56.1777 57.0781 54.6465C57.0781 53.0723 57.3047 51.9219 57.7578 51.1953C58.2148 50.4648 58.918 50.0996 59.8672 50.0996C60.8281 50.0996 61.5332 50.4766 61.9824 51.2305C62.4316 51.9844 62.6562 53.1191 62.6562 54.6348ZM61.1562 57.2949C61.2695 57.0059 61.3496 56.6406 61.3965 56.1992C61.4434 55.7578 61.4668 55.2363 61.4668 54.6348C61.4668 54.0371 61.4434 53.5176 61.3965 53.0762C61.3496 52.6348 61.2676 52.2676 61.1504 51.9746C61.0332 51.6777 60.8711 51.4531 60.6641 51.3008C60.4609 51.1445 60.1953 51.0664 59.8672 51.0664C59.543 51.0664 59.2754 51.1445 59.0645 51.3008C58.8574 51.4531 58.6934 51.6816 58.5723 51.9863C58.4551 52.2832 58.375 52.6582 58.332 53.1113C58.2891 53.5645 58.2676 54.0762 58.2676 54.6465C58.2676 55.2559 58.2852 55.7656 58.3203 56.1758C58.3594 56.5859 58.4414 56.9531 58.5664 57.2773C58.6797 57.5781 58.8398 57.8105 59.0469 57.9746C59.2578 58.1348 59.5312 58.2148 59.8672 58.2148C60.1914 58.2148 60.457 58.1387 60.6641 57.9863C60.875 57.8301 61.0391 57.5996 61.1562 57.2949Z" fill="#D7E2F2"/>
<path d="M76.4983 82C83.5786 75.3526 88 65.9141 88 55.4445C88 35.3168 71.6584 19 51.5 19C31.3416 19 15 35.3168 15 55.4445C15 65.9141 19.4215 75.3526 26.5017 82" stroke="#12151E" stroke-width="20"/>
<path d="M76.4983 82C83.5786 75.3526 88 65.9141 88 55.4445C88 35.3168 71.6584 19 51.5 19C31.3416 19 15 35.3168 15 55.4445C15 65.9141 19.4215 75.3526 26.5017 82" stroke="#0089FF" stroke-width="6" stroke-dasharray="1 1"/>
<path d="M31.6686 77.6286L22.3161 87.0323" stroke="#0089FF" stroke-width="3"/>
<path d="M71.6601 77.6286L81.0126 87.0323" stroke="#0089FF" stroke-width="3"/>
<path d="M51.6565 26.3901C67.7927 26.3901 80.8736 39.4542 80.8736 55.5696C80.8736 63.9517 77.3262 71.5168 71.6678 76.8304L62.5801 67.1781C65.6833 64.2639 67.6073 60.1464 67.6073 55.5696C67.6073 46.7716 60.4659 39.6393 51.6565 39.6393V26.3901Z" fill="url(#paint6_linear)"/>
<path d="M71.671 76.8263L62.2318 67.4702L63.1405 66.6237L71.671 76.8263Z" fill="white"/>
<defs>
<linearGradient id="paint0_linear" x1="161.079" y1="67.8181" x2="150.464" y2="48.4133" gradientUnits="userSpaceOnUse">
<stop stop-color="#D7E2F2"/>
<stop offset="0.0001" stop-color="#D7E2F2" stop-opacity="0.35"/>
<stop offset="0.188025" stop-color="#D7E2F2" stop-opacity="0.239205"/>
<stop offset="0.59375" stop-color="#D7E2F2" stop-opacity="0"/>
</linearGradient>
<linearGradient id="paint1_linear" x1="161.079" y1="67.8181" x2="150.464" y2="48.4133" gradientUnits="userSpaceOnUse">
<stop stop-color="#D7E2F2"/>
<stop offset="0.0001" stop-color="#D7E2F2" stop-opacity="0.35"/>
<stop offset="0.188025" stop-color="#D7E2F2" stop-opacity="0.239205"/>
<stop offset="0.59375" stop-color="#D7E2F2" stop-opacity="0"/>
</linearGradient>
<linearGradient id="paint2_linear" x1="231.847" y1="67.8181" x2="221.233" y2="48.4133" gradientUnits="userSpaceOnUse">
<stop stop-color="#D7E2F2"/>
<stop offset="0.0001" stop-color="#D7E2F2" stop-opacity="0.35"/>
<stop offset="0.188025" stop-color="#D7E2F2" stop-opacity="0.239205"/>
<stop offset="0.59375" stop-color="#D7E2F2" stop-opacity="0"/>
</linearGradient>
<linearGradient id="paint3_linear" x1="231.847" y1="67.8181" x2="221.233" y2="48.4133" gradientUnits="userSpaceOnUse">
<stop stop-color="#D7E2F2"/>
<stop offset="0.0001" stop-color="#D7E2F2" stop-opacity="0.35"/>
<stop offset="0.188025" stop-color="#D7E2F2" stop-opacity="0.239205"/>
<stop offset="0.59375" stop-color="#D7E2F2" stop-opacity="0"/>
</linearGradient>
<linearGradient id="paint4_linear" x1="299.643" y1="67.8181" x2="289.028" y2="48.4133" gradientUnits="userSpaceOnUse">
<stop stop-color="#D7E2F2"/>
<stop offset="0.0001" stop-color="#D7E2F2" stop-opacity="0.35"/>
<stop offset="0.188025" stop-color="#D7E2F2" stop-opacity="0.239205"/>
<stop offset="0.59375" stop-color="#D7E2F2" stop-opacity="0"/>
</linearGradient>
<linearGradient id="paint5_linear" x1="299.643" y1="67.8181" x2="289.028" y2="48.4133" gradientUnits="userSpaceOnUse">
<stop stop-color="#D7E2F2"/>
<stop offset="0.0001" stop-color="#D7E2F2" stop-opacity="0.35"/>
<stop offset="0.188025" stop-color="#D7E2F2" stop-opacity="0.239205"/>
<stop offset="0.59375" stop-color="#D7E2F2" stop-opacity="0"/>
</linearGradient>
<linearGradient id="paint6_linear" x1="71.0453" y1="79.5867" x2="54.5435" y2="52.8192" gradientUnits="userSpaceOnUse">
<stop stop-color="#D7E2F2"/>
<stop offset="0.0001" stop-color="#D7E2F2" stop-opacity="0.35"/>
<stop offset="0.838" stop-color="#D7E2F2" stop-opacity="0"/>
</linearGradient>
</defs>
</svg>
