<svg id="aacbcb3c-16f1-4ef5-ad55-26a1eac9e9eb" data-name="1" xmlns="http://www.w3.org/2000/svg" xmlns:xlink="http://www.w3.org/1999/xlink" viewBox="0 0 324 118"><defs><style>.ab8a20df-e073-4d93-b083-f953d26f0e42,.be37f33f-20cd-48f6-8977-2d12cc6e0590,.e0b2d8bf-ef9c-4369-8f07-23d22f9cf2b2{fill:none;stroke-miterlimit:10;}.e0b2d8bf-ef9c-4369-8f07-23d22f9cf2b2{stroke:#fff;stroke-width:0.4px;stroke-dasharray:1.61;}.ab534c90-a037-4071-800d-27233e5698d6{fill:#0d1014;}.a0c7ecc0-cfab-4e3f-b064-3031f936740b,.a7535547-a048-466d-a514-a875268b787b,.aed4e3fd-35d0-444e-b626-3cd2837730c2,.b5c202eb-5d63-4e1b-baa1-246a8b3f2c57,.bce01a6e-a610-4caa-a3aa-1d2be2f87a56,.e9a0bb6b-9703-4446-a518-ca689cfd45d3{fill:#fff;}.e9a0bb6b-9703-4446-a518-ca689cfd45d3{font-size:5.38px;}.a1765692-f354-45df-9171-9c5fe5e2de04,.a7535547-a048-466d-a514-a875268b787b,.aed4e3fd-35d0-444e-b626-3cd2837730c2,.af03a0a0-1d50-4f8c-ba79-134770bc8e4e,.b2a50278-e890-4b50-bfb8-60a2225639df,.bce01a6e-a610-4caa-a3aa-1d2be2f87a56,.e9a0bb6b-9703-4446-a518-ca689cfd45d3{font-family:Tahoma;}.a1765692-f354-45df-9171-9c5fe5e2de04,.aed4e3fd-35d0-444e-b626-3cd2837730c2{font-size:7.54px;}.b0bf6c6f-3d64-4c22-8c65-8564019098c9{opacity:0.2;fill:url(#e7c507b8-0770-4be6-a005-14a3ba3731a1);}.ab8a20df-e073-4d93-b083-f953d26f0e42,.be37f33f-20cd-48f6-8977-2d12cc6e0590{stroke:#3fa9f5;}.be37f33f-20cd-48f6-8977-2d12cc6e0590{stroke-width:0.48px;stroke-dasharray:1.9;}.af03a0a0-1d50-4f8c-ba79-134770bc8e4e,.b2a50278-e890-4b50-bfb8-60a2225639df,.b4a10e4b-146e-437f-977b-85cbd0f039f5,.e4ebcf2f-37ff-44eb-8719-99609f8bedb2{fill:#3fa9f5;}.a1765692-f354-45df-9171-9c5fe5e2de04{fill:#8c99b2;}.a0c7ecc0-cfab-4e3f-b064-3031f936740b,.e4ebcf2f-37ff-44eb-8719-99609f8bedb2{fill-rule:evenodd;}.a7535547-a048-466d-a514-a875268b787b{font-size:5.46px;}.aba11217-ef51-4594-a443-cd2a11ca5227{letter-spacing:-0.07em;}.bdff15eb-dc55-4dea-a056-8f9eebaac7a4{letter-spacing:0em;}.ab61e158-ada3-472b-a7ec-839bc8085da4{letter-spacing:-0.02em;}.af03a0a0-1d50-4f8c-ba79-134770bc8e4e,.b2a50278-e890-4b50-bfb8-60a2225639df{font-size:4.68px;}.af03a0a0-1d50-4f8c-ba79-134770bc8e4e{opacity:0.9;}.bce01a6e-a610-4caa-a3aa-1d2be2f87a56{font-size:3.9px;}.ab8a20df-e073-4d93-b083-f953d26f0e42{stroke-width:0.38px;stroke-dasharray:1.52;}</style><linearGradient id="e7c507b8-0770-4be6-a005-14a3ba3731a1" x1="4120.4" y1="-288.8" x2="4148.66" y2="-288.8" gradientTransform="translate(-4093.34 316.86)" gradientUnits="userSpaceOnUse"><stop offset="0" stop-color="#3fa9f5"/><stop offset="1" stop-color="#3fa9f5" stop-opacity="0"/></linearGradient></defs><title>Проект1</title><line class="e0b2d8bf-ef9c-4369-8f07-23d22f9cf2b2" x1="86.38" y1="13.88" x2="156.49" y2="13.88"/><path class="ab534c90-a037-4071-800d-27233e5698d6" d="M86.38,14.72a.79.79,0,1,1,.78-.79A.79.79,0,0,1,86.38,14.72Z"/><path class="b5c202eb-5d63-4e1b-baa1-246a8b3f2c57" d="M86.38,13.5a.43.43,0,1,1-.44.43.43.43,0,0,1,.44-.43m0-.71a1.14,1.14,0,1,0,1.13,1.14,1.14,1.14,0,0,0-1.13-1.14Z"/><path class="ab534c90-a037-4071-800d-27233e5698d6" d="M156.6,14.66a.79.79,0,1,1,.78-.78A.78.78,0,0,1,156.6,14.66Z"/><path class="b5c202eb-5d63-4e1b-baa1-246a8b3f2c57" d="M156.6,13.44a.44.44,0,0,1,.43.44.43.43,0,0,1-.43.43.44.44,0,0,1-.44-.43.44.44,0,0,1,.44-.44m0-.7a1.14,1.14,0,1,0,1.14,1.14,1.14,1.14,0,0,0-1.14-1.14Z"/><line class="e0b2d8bf-ef9c-4369-8f07-23d22f9cf2b2" x1="86.38" y1="41.99" x2="156.49" y2="41.99"/><circle class="ab534c90-a037-4071-800d-27233e5698d6" cx="86.38" cy="42.04" r="0.79"/><path class="b5c202eb-5d63-4e1b-baa1-246a8b3f2c57" d="M86.38,41.61a.43.43,0,1,1-.44.43.43.43,0,0,1,.44-.43m0-.71A1.14,1.14,0,1,0,87.51,42a1.14,1.14,0,0,0-1.13-1.14Z"/><path class="ab534c90-a037-4071-800d-27233e5698d6" d="M156.6,42.77a.79.79,0,1,1,.78-.78A.78.78,0,0,1,156.6,42.77Z"/><path class="b5c202eb-5d63-4e1b-baa1-246a8b3f2c57" d="M156.6,41.55a.44.44,0,0,1,0,.87.44.44,0,1,1,0-.87m0-.7A1.14,1.14,0,1,0,157.74,42a1.14,1.14,0,0,0-1.14-1.14Z"/><text class="e9a0bb6b-9703-4446-a518-ca689cfd45d3" transform="translate(90.39 21.7)">Безопасность</text><text class="aed4e3fd-35d0-444e-b626-3cd2837730c2" transform="translate(136.59 36.6)">2 / 3</text><line class="e0b2d8bf-ef9c-4369-8f07-23d22f9cf2b2" x1="166.61" y1="13.88" x2="236.73" y2="13.88"/><path class="ab534c90-a037-4071-800d-27233e5698d6" d="M166.61,14.72a.79.79,0,1,1,.79-.79A.79.79,0,0,1,166.61,14.72Z"/><path class="b5c202eb-5d63-4e1b-baa1-246a8b3f2c57" d="M166.61,13.5a.43.43,0,1,1,0,.86.43.43,0,1,1,0-.86m0-.71a1.14,1.14,0,1,0,1.14,1.14,1.14,1.14,0,0,0-1.14-1.14Z"/><path class="ab534c90-a037-4071-800d-27233e5698d6" d="M236.83,14.66a.79.79,0,1,1,.79-.78A.78.78,0,0,1,236.83,14.66Z"/><path class="b5c202eb-5d63-4e1b-baa1-246a8b3f2c57" d="M236.83,13.44a.44.44,0,0,1,.44.44.44.44,0,0,1-.87,0,.44.44,0,0,1,.43-.44m0-.7A1.14,1.14,0,1,0,238,13.88a1.14,1.14,0,0,0-1.14-1.14Z"/><line class="e0b2d8bf-ef9c-4369-8f07-23d22f9cf2b2" x1="166.61" y1="41.99" x2="236.73" y2="41.99"/><path class="ab534c90-a037-4071-800d-27233e5698d6" d="M166.61,42.83a.79.79,0,1,1,.79-.79A.79.79,0,0,1,166.61,42.83Z"/><path class="b5c202eb-5d63-4e1b-baa1-246a8b3f2c57" d="M166.61,41.61a.43.43,0,1,1,0,.86.43.43,0,1,1,0-.86m0-.71A1.14,1.14,0,1,0,167.75,42a1.14,1.14,0,0,0-1.14-1.14Z"/><path class="ab534c90-a037-4071-800d-27233e5698d6" d="M236.83,42.77a.79.79,0,1,1,.79-.78A.78.78,0,0,1,236.83,42.77Z"/><path class="b5c202eb-5d63-4e1b-baa1-246a8b3f2c57" d="M236.83,41.55a.44.44,0,1,1-.43.44.44.44,0,0,1,.43-.44m0-.7A1.14,1.14,0,1,0,238,42a1.14,1.14,0,0,0-1.14-1.14Z"/><text class="e9a0bb6b-9703-4446-a518-ca689cfd45d3" transform="translate(170.63 21.7)">Производственные<tspan x="0" y="5.92">задания и рапоряжения</tspan></text><text class="aed4e3fd-35d0-444e-b626-3cd2837730c2" transform="translate(216.83 36.6)">5 / 5</text><line class="e0b2d8bf-ef9c-4369-8f07-23d22f9cf2b2" x1="246.85" y1="13.88" x2="316.96" y2="13.88"/><path class="ab534c90-a037-4071-800d-27233e5698d6" d="M246.85,14.72a.79.79,0,1,1,.79-.79A.8.8,0,0,1,246.85,14.72Z"/><path class="b5c202eb-5d63-4e1b-baa1-246a8b3f2c57" d="M246.85,13.5a.43.43,0,1,1-.43.43.43.43,0,0,1,.43-.43m0-.71A1.14,1.14,0,1,0,248,13.93a1.14,1.14,0,0,0-1.14-1.14Z"/><path class="ab534c90-a037-4071-800d-27233e5698d6" d="M317.07,14.66a.79.79,0,1,1,.79-.78A.79.79,0,0,1,317.07,14.66Z"/><path class="b5c202eb-5d63-4e1b-baa1-246a8b3f2c57" d="M317.07,13.44a.44.44,0,0,1,.44.44.44.44,0,0,1-.44.43.43.43,0,0,1-.43-.43.44.44,0,0,1,.43-.44m0-.7a1.14,1.14,0,1,0,1.14,1.14,1.14,1.14,0,0,0-1.14-1.14Z"/><line class="e0b2d8bf-ef9c-4369-8f07-23d22f9cf2b2" x1="246.85" y1="41.98" x2="316.96" y2="41.98"/><path class="ab534c90-a037-4071-800d-27233e5698d6" d="M246.85,42.83a.79.79,0,1,1,.79-.79A.8.8,0,0,1,246.85,42.83Z"/><path class="b5c202eb-5d63-4e1b-baa1-246a8b3f2c57" d="M246.85,41.6a.44.44,0,0,1,.43.44.43.43,0,1,1-.86,0,.44.44,0,0,1,.43-.44m0-.7A1.14,1.14,0,1,0,248,42a1.14,1.14,0,0,0-1.14-1.14Z"/><path class="ab534c90-a037-4071-800d-27233e5698d6" d="M317.07,42.77a.79.79,0,1,1,.79-.78A.79.79,0,0,1,317.07,42.77Z"/><path class="b5c202eb-5d63-4e1b-baa1-246a8b3f2c57" d="M317.07,41.55a.44.44,0,1,1,0,.87.44.44,0,0,1,0-.87m0-.7A1.14,1.14,0,1,0,318.21,42a1.14,1.14,0,0,0-1.14-1.14Z"/><path class="b5c202eb-5d63-4e1b-baa1-246a8b3f2c57" d="M253.25,34.43a.68.68,0,0,0-.55-.16h0a1.42,1.42,0,0,1-1.09-.43,1.45,1.45,0,0,1-.33-1.58.21.21,0,0,1,.14-.12.21.21,0,0,1,.17,0l.67.68a.31.31,0,0,0,.53-.23.27.27,0,0,0-.09-.21l-.67-.67a.23.23,0,0,1,0-.18.16.16,0,0,1,.11-.13,1.47,1.47,0,0,1,2,1.41v.06a.69.69,0,0,0,.16.55l-.28.26a1.06,1.06,0,0,1-.26-.83l.19,0h-.19a1.06,1.06,0,0,0-.32-.81,1.08,1.08,0,0,0-.88-.32l.44.44a.69.69,0,0,1,0,1,.7.7,0,0,1-1,0l-.44-.44a1.13,1.13,0,0,0,.31.89,1.17,1.17,0,0,0,.81.32h.05a1.11,1.11,0,0,1,.83.27Z"/><path class="b5c202eb-5d63-4e1b-baa1-246a8b3f2c57" d="M255.78,36.65h-.09a.85.85,0,0,1-.49-.26l-.56-.56.27-.27.55.56a.51.51,0,0,0,.28.16.27.27,0,0,0,.23-.09c.19-.19,0-.4-.07-.5l-.58-.58.27-.27.57.58a.7.7,0,0,1,.08,1A.65.65,0,0,1,255.78,36.65Z"/><polygon class="b5c202eb-5d63-4e1b-baa1-246a8b3f2c57" points="255.7 33.94 255.43 33.67 256.45 32.66 256.74 32.69 257.11 32.09 256.97 31.94 256.36 32.31 256.39 32.6 255.62 33.38 255.35 33.12 256 32.46 255.96 32.11 257.02 31.46 257.59 32.03 256.94 33.09 256.59 33.05 255.7 33.94"/><path class="b5c202eb-5d63-4e1b-baa1-246a8b3f2c57" d="M253.24,36a.16.16,0,0,1-.13-.06.17.17,0,0,1,0-.26l1.74-1.74a.19.19,0,0,1,.26,0,.18.18,0,0,1,0,.27l-1.74,1.73A.16.16,0,0,1,253.24,36Z"/><path class="b5c202eb-5d63-4e1b-baa1-246a8b3f2c57" d="M253.25,36.65a.59.59,0,0,1-.42-.17l-.25-.25a.59.59,0,0,1,0-.85l2-2a.6.6,0,0,1,.84,0l.25.25a.56.56,0,0,1,.18.42.6.6,0,0,1-.18.42l-2,2h0A.59.59,0,0,1,253.25,36.65Zm1.72-3a.18.18,0,0,0-.15.07l-2,2a.23.23,0,0,0,0,.31l.25.25a.23.23,0,0,0,.31,0h0l2-2a.25.25,0,0,0,.06-.16.2.2,0,0,0-.06-.15l-.25-.25A.2.2,0,0,0,255,33.61Z"/><text class="e9a0bb6b-9703-4446-a518-ca689cfd45d3" transform="translate(250.87 21.08)">Состояние оборудования<tspan x="0" y="6.46">отказы</tspan></text><text class="aed4e3fd-35d0-444e-b626-3cd2837730c2" transform="translate(297.06 35.98)">0 / 0</text><rect class="b0bf6c6f-3d64-4c22-8c65-8564019098c9" x="27.06" y="-7" width="28.26" height="70.12" transform="translate(69.26 -13.13) rotate(90)"/><line class="be37f33f-20cd-48f6-8977-2d12cc6e0590" x1="6.14" y1="13.88" x2="76.25" y2="13.88"/><path class="ab534c90-a037-4071-800d-27233e5698d6" d="M6.14,14.72a.79.79,0,1,1,.79-.79A.79.79,0,0,1,6.14,14.72Z"/><path class="b4a10e4b-146e-437f-977b-85cbd0f039f5" d="M6.14,13.5a.43.43,0,0,1,0,.86.43.43,0,1,1,0-.86m0-.71a1.14,1.14,0,1,0,1.14,1.14,1.14,1.14,0,0,0-1.14-1.14Z"/><path class="ab534c90-a037-4071-800d-27233e5698d6" d="M76.36,14.66a.79.79,0,1,1,.79-.78A.79.79,0,0,1,76.36,14.66Z"/><path class="b4a10e4b-146e-437f-977b-85cbd0f039f5" d="M76.36,13.44a.44.44,0,0,1,.43.44.43.43,0,0,1-.86,0,.44.44,0,0,1,.43-.44m0-.7a1.14,1.14,0,1,0,1.14,1.14,1.14,1.14,0,0,0-1.14-1.14Z"/><line class="be37f33f-20cd-48f6-8977-2d12cc6e0590" x1="6.14" y1="41.99" x2="76.25" y2="41.99"/><path class="ab534c90-a037-4071-800d-27233e5698d6" d="M6.14,42.83A.79.79,0,1,1,6.93,42,.79.79,0,0,1,6.14,42.83Z"/><path class="b4a10e4b-146e-437f-977b-85cbd0f039f5" d="M6.14,41.61a.43.43,0,1,1,0,.86.43.43,0,1,1,0-.86m0-.71A1.14,1.14,0,1,0,7.28,42,1.14,1.14,0,0,0,6.14,40.9Z"/><path class="ab534c90-a037-4071-800d-27233e5698d6" d="M76.36,42.77a.79.79,0,1,1,.79-.78A.79.79,0,0,1,76.36,42.77Z"/><path class="b4a10e4b-146e-437f-977b-85cbd0f039f5" d="M76.36,41.55a.44.44,0,1,1-.43.44.44.44,0,0,1,.43-.44m0-.7A1.14,1.14,0,1,0,77.5,42a1.14,1.14,0,0,0-1.14-1.14Z"/><text class="e9a0bb6b-9703-4446-a518-ca689cfd45d3" transform="translate(10.16 21.7)">СМОТР</text><text class="a1765692-f354-45df-9171-9c5fe5e2de04" transform="translate(56.35 36.6)">3<tspan class="b5c202eb-5d63-4e1b-baa1-246a8b3f2c57" x="4.11" y="0" xml:space="preserve"> / 4</tspan></text><path class="e4ebcf2f-37ff-44eb-8719-99609f8bedb2" d="M12.48,31l-.08.46a3.38,3.38,0,0,0-.44.18l-.37-.27a.41.41,0,0,0-.52,0l-.4.4a.38.38,0,0,0,0,.51l.27.38a2.25,2.25,0,0,0-.19.45l-.45.08a.4.4,0,0,0-.33.39v.57a.39.39,0,0,0,.33.39l.46.08a3.38,3.38,0,0,0,.18.44l-.26.37a.39.39,0,0,0,0,.52l.4.4a.4.4,0,0,0,.52,0l.38-.27a1.7,1.7,0,0,0,.44.18l.07.45a.41.41,0,0,0,.4.33h.57a.4.4,0,0,0,.39-.33l.08-.46a3.38,3.38,0,0,0,.44-.18l.37.26a.38.38,0,0,0,.51,0l.4-.4a.39.39,0,0,0,.12-.28.48.48,0,0,0-.07-.24l-.27-.37a2.26,2.26,0,0,0,.17-.43l.45-.08a.39.39,0,0,0,.34-.39V33.6a.39.39,0,0,0-.34-.39l-.45-.08a3.38,3.38,0,0,0-.18-.44l.27-.37a.48.48,0,0,0,.07-.24.39.39,0,0,0-.12-.28l-.4-.4a.38.38,0,0,0-.51,0l-.38.26a3.38,3.38,0,0,0-.44-.18L13.84,31a.41.41,0,0,0-.4-.34h-.57A.4.4,0,0,0,12.48,31Zm1,0h0s0,0,0,0l.09.56a.2.2,0,0,0,.13.15,2.35,2.35,0,0,1,.57.23.17.17,0,0,0,.2,0l.47-.33a0,0,0,0,1,0,0l.41.4v0a0,0,0,0,1,0,0l-.33.47a.18.18,0,0,0,0,.2,2.35,2.35,0,0,1,.23.57.18.18,0,0,0,.15.13l.57.1a0,0,0,0,1,0,0v.57a0,0,0,0,1,0,0l-.57.1a.18.18,0,0,0-.15.13,2.18,2.18,0,0,1-.22.55.19.19,0,0,0,0,.1.14.14,0,0,0,0,.1l.33.47a0,0,0,0,1,0,0,0,0,0,0,1,0,0l-.4.4s0,0-.05,0l-.46-.34a.18.18,0,0,0-.2,0,2.35,2.35,0,0,1-.57.23.18.18,0,0,0-.13.15l-.1.57a0,0,0,0,1,0,0h-.57s0,0,0,0l-.09-.56a.19.19,0,0,0-.14-.15,2.13,2.13,0,0,1-.56-.23.18.18,0,0,0-.2,0l-.47.34h-.05l-.4-.4a0,0,0,0,1,0,0v0l.34-.46a.18.18,0,0,0,0-.2,2.35,2.35,0,0,1-.23-.57.18.18,0,0,0-.15-.13l-.57-.1a0,0,0,0,1,0,0v-.57s0,0,0,0l.56-.09a.18.18,0,0,0,.15-.13,2,2,0,0,1,.24-.58.2.2,0,0,0,0-.2l-.34-.47v0l.4-.41h.05l.47.33A.15.15,0,0,0,12,32a2.35,2.35,0,0,1,.57-.23.18.18,0,0,0,.13-.15l.1-.57,0,0Z"/><path class="e4ebcf2f-37ff-44eb-8719-99609f8bedb2" d="M11.76,33.88a1.4,1.4,0,1,0,2.79,0,1.4,1.4,0,0,0-2.79,0Zm2.43,0a1,1,0,1,1-1-1A1,1,0,0,1,14.19,33.88Z"/><path class="a0c7ecc0-cfab-4e3f-b064-3031f936740b" d="M170.54,36.71h5.81v.38h-6.19V30.9h.38v1.16h.39v.39h-.39v.77h.39v.39h-.39v.77h.39v.39h-.39v.77h.39v.39h-.39v.78Zm.78-1.75a.58.58,0,1,0,1.06-.32l.51-.67.17,0a.57.57,0,0,0,.32-.09l.68.5a.57.57,0,0,0,0,.18.58.58,0,0,0,1.16,0,.6.6,0,0,0-.16-.41l.67-1.34h.07a.58.58,0,1,0-.58-.58.53.53,0,0,0,.17.4L174.68,34h-.07a.58.58,0,0,0-.32.1l-.68-.5a.57.57,0,0,0,0-.18.58.58,0,0,0-1.16,0,.64.64,0,0,0,.1.33l-.51.67a.47.47,0,0,0-.17,0,.58.58,0,0,0-.58.58Zm4.26-2.71a.2.2,0,1,0,.19-.19.2.2,0,0,0-.19.19Zm-1.16,2.33a.19.19,0,1,0,.38,0,.19.19,0,1,0-.38,0Zm-1.55-1.17a.19.19,0,0,0,.19.2.2.2,0,1,0,0-.39.19.19,0,0,0-.19.19ZM171.71,35a.19.19,0,1,0,.38,0,.19.19,0,0,0-.38,0Z"/><path class="a0c7ecc0-cfab-4e3f-b064-3031f936740b" d="M90.44,33.53a.55.55,0,0,0-.59.51v2.55a.55.55,0,0,0,.59.5H94a.55.55,0,0,0,.59-.5V34a.56.56,0,0,0-.59-.51Zm1.41,2a.69.69,0,0,1-.36-.62.72.72,0,1,1,1.44,0,.71.71,0,0,1-.36.62V36a.36.36,0,0,1-.36.36.36.36,0,0,1-.36-.36v-.46Zm2.11-2v-.88a1.76,1.76,0,0,0-3.51,0v.88ZM91,32.65a1.18,1.18,0,0,1,2.35,0v.88H91Z"/><text class="a7535547-a048-466d-a514-a875268b787b" transform="translate(9.57 92.31) scale(0.93 1)">Неисправность расходомера FIRCАH<tspan class="aba11217-ef51-4594-a443-cd2a11ca5227" x="92.06" y="0">L</tspan><tspan class="bdff15eb-dc55-4dea-a056-8f9eebaac7a4" x="94.37" y="0">-1008 «Расход МЭА в колонну К-2» в 8:20. </tspan><tspan x="0" y="7.02">Переход на ручное управление клапаном 12F</tspan><tspan class="ab61e158-ada3-472b-a7ec-839bc8085da4" x="115.6" y="7.02">V</tspan><tspan x="118.73" y="7.02">-1008 в 8:22</tspan></text><text class="af03a0a0-1d50-4f8c-ba79-134770bc8e4e" transform="translate(284.36 95.11) scale(0.93 1)">В работе</text><path class="e4ebcf2f-37ff-44eb-8719-99609f8bedb2" d="M310.38,90.14l-.07.43a1.84,1.84,0,0,0-.38.17l-.33-.25a.34.34,0,0,0-.46,0l-.35.38a.35.35,0,0,0-.1.26.4.4,0,0,0,.06.22l.24.36a2.26,2.26,0,0,0-.17.43l-.39.07a.38.38,0,0,0-.3.37v.54a.37.37,0,0,0,.3.37l.4.08A2.9,2.9,0,0,0,309,94l-.23.35a.44.44,0,0,0-.07.22.39.39,0,0,0,.11.27l.35.38a.33.33,0,0,0,.45,0l.34-.25a2.3,2.3,0,0,0,.39.17l.06.42a.37.37,0,0,0,.35.32h.5a.37.37,0,0,0,.35-.32l.07-.43A2.64,2.64,0,0,0,312,95l.33.25a.32.32,0,0,0,.45,0l.36-.38a.4.4,0,0,0,.1-.26.34.34,0,0,0-.07-.22L313,94a3.25,3.25,0,0,0,.15-.4l.4-.08a.36.36,0,0,0,.29-.37v-.54a.37.37,0,0,0-.29-.37l-.4-.07a1.92,1.92,0,0,0-.16-.42l.24-.35a.42.42,0,0,0,0-.49l-.36-.38a.33.33,0,0,0-.45,0l-.33.25a1.71,1.71,0,0,0-.39-.17l-.06-.43a.37.37,0,0,0-.35-.32h-.5A.36.36,0,0,0,310.38,90.14Zm.85,0h0l0,0,.08.54a.17.17,0,0,0,.12.14,1.86,1.86,0,0,1,.5.22.14.14,0,0,0,.17,0l.42-.31h0l.35.38a0,0,0,0,1,0,0v0l-.3.44a.18.18,0,0,0,0,.19,1.87,1.87,0,0,1,.2.53.17.17,0,0,0,.13.13l.5.09a0,0,0,0,1,0,0v.54a0,0,0,0,1,0,0l-.5.09a.17.17,0,0,0-.13.13,1.93,1.93,0,0,1-.2.52.29.29,0,0,0,0,.09.19.19,0,0,0,0,.1l.3.45h0a0,0,0,0,1,0,0l-.35.38h0l-.41-.31a.17.17,0,0,0-.18,0,1.75,1.75,0,0,1-.5.23.15.15,0,0,0-.11.13l-.09.54a0,0,0,0,1,0,0h-.5a0,0,0,0,1,0,0l-.08-.53a.17.17,0,0,0-.12-.14,1.5,1.5,0,0,1-.5-.22.17.17,0,0,0-.18,0l-.41.32a0,0,0,0,1,0,0l-.36-.38a0,0,0,0,1,0,0,0,0,0,0,0,0,0l.29-.44a.18.18,0,0,0,0-.19,2.25,2.25,0,0,1-.21-.53.21.21,0,0,0-.13-.13l-.5-.09a0,0,0,0,1,0,0v-.54a0,0,0,0,1,0,0l.49-.09a.15.15,0,0,0,.13-.13,2.6,2.6,0,0,1,.21-.55.17.17,0,0,0,0-.18l-.3-.45h0v0l.36-.38h0l.41.31a.17.17,0,0,0,.18,0,1.73,1.73,0,0,1,.5-.22.16.16,0,0,0,.11-.14l.09-.54s0,0,0,0Z"/><path class="e4ebcf2f-37ff-44eb-8719-99609f8bedb2" d="M309.75,92.88A1.23,1.23,0,1,0,311,91.56,1.28,1.28,0,0,0,309.75,92.88Zm2.14,0a.91.91,0,1,1-.91-1A.95.95,0,0,1,311.89,92.88Z"/><text class="bce01a6e-a610-4caa-a3aa-1d2be2f87a56" transform="translate(17.3 81.81) scale(0.93 1)">Отклонение</text><text class="b2a50278-e890-4b50-bfb8-60a2225639df" transform="translate(283.95 81.7) scale(0.92 1)">16.10.2019 08:00 </text><line class="ab8a20df-e073-4d93-b083-f953d26f0e42" x1="41.46" y1="80.49" x2="276.56" y2="80.64"/><text class="a7535547-a048-466d-a514-a875268b787b" transform="translate(5.94 82.2) scale(0.93 1)">141</text><path class="ab534c90-a037-4071-800d-27233e5698d6" d="M276.18,81.42a.79.79,0,1,1,.78-.78A.78.78,0,0,1,276.18,81.42Z"/><path class="b4a10e4b-146e-437f-977b-85cbd0f039f5" d="M276.18,80.2a.44.44,0,0,1,.43.44.43.43,0,0,1-.43.43.44.44,0,0,1-.44-.43.44.44,0,0,1,.44-.44m0-.7a1.14,1.14,0,1,0,1.14,1.14,1.14,1.14,0,0,0-1.14-1.14Z"/><path class="ab534c90-a037-4071-800d-27233e5698d6" d="M41.52,81.42a.79.79,0,1,1,.78-.78A.78.78,0,0,1,41.52,81.42Z"/><path class="b4a10e4b-146e-437f-977b-85cbd0f039f5" d="M41.51,80.2a.44.44,0,0,1,.44.44.44.44,0,0,1-.87,0,.44.44,0,0,1,.43-.44m0-.7a1.14,1.14,0,1,0,1.14,1.14,1.14,1.14,0,0,0-1.14-1.14Z"/><path class="b4a10e4b-146e-437f-977b-85cbd0f039f5" d="M167.17,54.29H156.83A1.84,1.84,0,0,0,155,56.12v7.76a1.83,1.83,0,0,0,1.83,1.83h10.34A1.83,1.83,0,0,0,169,63.88V56.12A1.84,1.84,0,0,0,167.17,54.29Zm-10.34,1.07h10.34a.75.75,0,0,1,.71.52L162,60l-5.88-4.11A.76.76,0,0,1,156.83,55.36Zm10.34,9.28H156.83a.76.76,0,0,1-.76-.76V57.15l5.62,3.94a.56.56,0,0,0,.31.09.59.59,0,0,0,.31-.09l5.62-3.94v6.73A.76.76,0,0,1,167.17,64.64Z"/></svg>