<svg width="324" height="117" viewBox="0 0 324 117" fill="none" xmlns="http://www.w3.org/2000/svg">
<rect x="5.31753" y="5.31753" width="313.365" height="24.3649" fill="#272A38"/>
<path d="M200.878 20.8909H200.142V18.1782H197.593V20.8909H196.856V15.3502H197.593V17.5233H200.142V15.3502H200.878V20.8909ZM203.755 20.9876C203.092 20.9876 202.578 20.8016 202.211 20.4295C201.846 20.0549 201.664 19.524 201.664 18.8368C201.664 18.1596 201.841 17.6213 202.196 17.2219C202.55 16.82 203.014 16.6191 203.587 16.6191C203.845 16.6191 204.074 16.6563 204.272 16.7307C204.47 16.8051 204.644 16.9217 204.793 17.0805C204.942 17.2392 205.056 17.434 205.135 17.6647C205.215 17.8929 205.254 18.1732 205.254 18.5056V18.8852H202.374C202.374 19.3689 202.496 19.7386 202.739 19.9941C202.982 20.2496 203.318 20.3774 203.747 20.3774C203.901 20.3774 204.051 20.36 204.198 20.3253C204.346 20.2905 204.48 20.2459 204.599 20.1913C204.726 20.1342 204.833 20.0797 204.919 20.0276C205.006 19.973 205.078 19.9221 205.135 19.875H205.176V20.6378C205.094 20.6701 204.993 20.711 204.871 20.7606C204.75 20.8078 204.64 20.845 204.544 20.8723C204.407 20.9095 204.283 20.938 204.172 20.9578C204.062 20.9777 203.923 20.9876 203.755 20.9876ZM204.573 18.3494C204.568 18.1608 204.546 17.9983 204.506 17.8619C204.467 17.7255 204.41 17.6101 204.335 17.5158C204.253 17.4116 204.148 17.3323 204.019 17.2777C203.892 17.2231 203.735 17.1958 203.546 17.1958C203.36 17.1958 203.202 17.2244 203.07 17.2814C202.941 17.336 202.823 17.4166 202.717 17.5233C202.612 17.6324 202.533 17.754 202.478 17.8879C202.424 18.0194 202.389 18.1732 202.374 18.3494H204.573ZM209.307 20.8909H208.436L207.011 18.9745H206.661V20.8909H205.961V16.7344H206.661V18.5429C206.842 18.5404 206.996 18.5032 207.122 18.4312C207.251 18.3568 207.36 18.2142 207.45 18.0033C207.477 17.9413 207.507 17.8693 207.539 17.7875C207.574 17.7056 207.601 17.6337 207.621 17.5717C207.73 17.2665 207.881 17.0507 208.075 16.9242C208.268 16.7977 208.52 16.7344 208.83 16.7344H209.02V17.3372H208.86C208.664 17.3372 208.517 17.3782 208.417 17.46C208.321 17.5394 208.239 17.6858 208.172 17.8991C208.102 18.1149 208.02 18.2836 207.926 18.4052C207.832 18.5243 207.728 18.616 207.614 18.6805L209.307 20.8909ZM213.244 18.7029C213.244 19.395 213.077 19.947 212.745 20.3588C212.415 20.7681 211.997 20.9727 211.491 20.9727C211.285 20.9727 211.103 20.9492 210.944 20.902C210.785 20.8549 210.623 20.7817 210.456 20.6825V22.424H209.757V16.7344H210.456V17.1698C210.63 17.0135 210.822 16.8833 211.033 16.7791C211.247 16.6724 211.479 16.6191 211.729 16.6191C212.205 16.6191 212.576 16.8076 212.842 17.1847C213.11 17.5617 213.244 18.0678 213.244 18.7029ZM212.522 18.781C212.522 18.3072 212.446 17.94 212.295 17.6796C212.143 17.4166 211.898 17.2851 211.558 17.2851C211.359 17.2851 211.167 17.3298 210.981 17.4191C210.798 17.5059 210.623 17.6188 210.456 17.7577V20.1132C210.64 20.2025 210.796 20.2632 210.925 20.2955C211.057 20.3277 211.207 20.3439 211.376 20.3439C211.738 20.3439 212.019 20.2111 212.22 19.9457C212.421 19.6803 212.522 19.292 212.522 18.781ZM217.251 20.8909H216.559V17.7912L214.602 20.8909H213.969V16.7344H214.661V19.7857L216.596 16.7344H217.251V20.8909ZM221.3 17.3484H219.886V20.8909H219.186V17.3484H217.772V16.7344H221.3V17.3484ZM225.103 20.8909H224.411V17.7912L222.453 20.8909H221.821V16.7344H222.513V19.7857L224.448 16.7344H225.103V20.8909ZM229.241 20.8909H228.541V19.2685C228.323 19.3404 228.111 19.3962 227.905 19.4359C227.699 19.4756 227.495 19.4955 227.294 19.4955C227.118 19.4955 226.946 19.4731 226.777 19.4285C226.611 19.3813 226.467 19.3057 226.346 19.2015C226.224 19.0973 226.13 18.9646 226.063 18.8033C225.998 18.6396 225.966 18.4474 225.966 18.2266V16.7344H226.666V17.8619C226.666 18.0455 226.673 18.1918 226.688 18.301C226.703 18.4077 226.744 18.5119 226.811 18.6136C226.868 18.7004 226.953 18.7674 227.067 18.8145C227.184 18.8616 227.337 18.8852 227.525 18.8852C227.689 18.8852 227.864 18.8691 228.05 18.8368C228.238 18.8046 228.402 18.7661 228.541 18.7215V16.7344H229.241V20.8909ZM233.535 20.8909H232.835V19.0192H230.952V20.8909H230.253V16.7344H230.952V18.4163H232.835V16.7344H233.535V20.8909ZM237.632 19.6034C237.632 19.8043 237.591 19.9866 237.509 20.1504C237.429 20.3141 237.32 20.4468 237.181 20.5485C237.018 20.6726 236.843 20.7606 236.657 20.8127C236.471 20.8648 236.231 20.8909 235.938 20.8909H234.547V16.7344H235.246V18.3531H235.957C236.27 18.3531 236.512 18.3692 236.683 18.4015C236.856 18.4337 237.029 18.5131 237.2 18.6396C237.344 18.7463 237.452 18.8827 237.524 19.0489C237.596 19.2151 237.632 19.4 237.632 19.6034ZM236.91 19.6145C236.91 19.488 236.887 19.3776 236.843 19.2834C236.801 19.1866 236.73 19.1085 236.631 19.0489C236.526 18.9869 236.407 18.9497 236.273 18.9373C236.142 18.9249 235.952 18.9187 235.704 18.9187H235.246V20.3327H235.689C235.937 20.3327 236.129 20.3228 236.266 20.3029C236.402 20.2806 236.52 20.2397 236.619 20.1801C236.721 20.1156 236.794 20.04 236.839 19.9532C236.886 19.8638 236.91 19.751 236.91 19.6145ZM238.815 20.8909H238.115V16.7344H238.815V20.8909ZM241.635 20.9876C240.973 20.9876 240.458 20.8016 240.091 20.4295C239.727 20.0549 239.544 19.524 239.544 18.8368C239.544 18.1596 239.722 17.6213 240.076 17.2219C240.431 16.82 240.895 16.6191 241.468 16.6191C241.726 16.6191 241.954 16.6563 242.153 16.7307C242.351 16.8051 242.525 16.9217 242.674 17.0805C242.822 17.2392 242.937 17.434 243.016 17.6647C243.095 17.8929 243.135 18.1732 243.135 18.5056V18.8852H240.255C240.255 19.3689 240.376 19.7386 240.62 19.9941C240.863 20.2496 241.199 20.3774 241.628 20.3774C241.782 20.3774 241.932 20.36 242.078 20.3253C242.227 20.2905 242.361 20.2459 242.48 20.1913C242.607 20.1342 242.713 20.0797 242.8 20.0276C242.887 19.973 242.959 19.9221 243.016 19.875H243.057V20.6378C242.975 20.6701 242.873 20.711 242.752 20.7606C242.63 20.8078 242.521 20.845 242.424 20.8723C242.288 20.9095 242.164 20.938 242.052 20.9578C241.943 20.9777 241.804 20.9876 241.635 20.9876ZM242.454 18.3494C242.449 18.1608 242.427 17.9983 242.387 17.8619C242.347 17.7255 242.29 17.6101 242.216 17.5158C242.134 17.4116 242.029 17.3323 241.9 17.2777C241.773 17.2231 241.616 17.1958 241.427 17.1958C241.241 17.1958 241.082 17.2244 240.951 17.2814C240.822 17.336 240.704 17.4166 240.597 17.5233C240.493 17.6324 240.414 17.754 240.359 17.8879C240.305 18.0194 240.27 18.1732 240.255 18.3494H242.454Z" fill="#606580"/>
<path d="M250.133 20.8909H246.981V20.231H248.153V15.8984H246.981V15.308C247.424 15.308 247.75 15.2458 247.958 15.1213C248.169 14.994 248.288 14.7552 248.314 14.405H248.987V20.231H250.133V20.8909Z" fill="#F7931E"/>
<path d="M131.601 16.0958C131.811 16.339 131.975 16.6404 132.092 17.0001C132.208 17.3598 132.267 17.7703 132.267 18.2318C132.267 18.6808 132.21 19.0864 132.095 19.4485C131.981 19.8107 131.816 20.1146 131.601 20.3602C131.375 20.6182 131.111 20.8092 130.808 20.9333C130.508 21.0548 130.177 21.1156 129.814 21.1156C129.44 21.1156 129.102 21.0523 128.802 20.9258C128.502 20.7993 128.244 20.6108 128.028 20.3602C127.815 20.1146 127.651 19.812 127.537 19.4523C127.423 19.0926 127.366 18.6857 127.366 18.2318C127.366 17.7654 127.423 17.3561 127.537 17.0038C127.654 16.6515 127.819 16.3489 128.032 16.0958C128.245 15.8503 128.502 15.6642 128.802 15.5377C129.105 15.4087 129.442 15.3442 129.814 15.3442C130.191 15.3442 130.531 15.4099 130.834 15.5414C131.137 15.6729 131.392 15.8577 131.601 16.0958ZM131.5 18.2318C131.5 17.8646 131.46 17.5396 131.381 17.2568C131.302 16.974 131.19 16.7396 131.046 16.5535C130.9 16.3625 130.722 16.2199 130.514 16.1256C130.308 16.0289 130.076 15.9805 129.818 15.9805C129.55 15.9805 129.316 16.0276 129.115 16.1219C128.916 16.2137 128.74 16.3576 128.586 16.5535C128.44 16.7421 128.327 16.979 128.248 17.2643C128.171 17.5496 128.132 17.872 128.132 18.2318C128.132 18.9586 128.285 19.5155 128.59 19.9025C128.895 20.287 129.305 20.4793 129.818 20.4793C130.332 20.4793 130.74 20.287 131.042 19.9025C131.347 19.5155 131.5 18.9586 131.5 18.2318ZM136.058 17.4578H134.644V21.0002H133.945V17.4578H132.531V16.8438H136.058V17.4578ZM139.925 21.0002H139.054L137.629 19.0839H137.279V21.0002H136.579V16.8438H137.279V18.6522C137.46 18.6498 137.614 18.6125 137.74 18.5406C137.869 18.4662 137.978 18.3235 138.068 18.1127C138.095 18.0507 138.125 17.9787 138.157 17.8969C138.192 17.815 138.219 17.743 138.239 17.681C138.348 17.3759 138.499 17.1601 138.693 17.0336C138.886 16.907 139.138 16.8438 139.448 16.8438H139.638V17.4466H139.478C139.282 17.4466 139.134 17.4875 139.035 17.5694C138.939 17.6488 138.857 17.7951 138.79 18.0085C138.72 18.2243 138.638 18.393 138.544 18.5146C138.45 18.6336 138.346 18.7254 138.231 18.7899L139.925 21.0002ZM143.594 21.0002H142.894V17.4317H141.465C141.458 17.6376 141.45 17.8361 141.443 18.0271C141.435 18.2156 141.428 18.3868 141.42 18.5406C141.406 18.9301 141.38 19.2563 141.342 19.5192C141.308 19.7822 141.263 19.9931 141.208 20.1518C141.154 20.3156 141.093 20.4433 141.026 20.5351C140.962 20.6269 140.888 20.71 140.806 20.7844C140.722 20.8588 140.632 20.9147 140.535 20.9519C140.438 20.9891 140.329 21.0077 140.207 21.0077C140.168 21.0077 140.117 21.0064 140.055 21.004C139.993 21.0015 139.949 21.0002 139.925 21.0002V20.39H139.962C139.979 20.39 139.997 20.3912 140.014 20.3937C140.034 20.3962 140.056 20.3974 140.081 20.3974C140.14 20.3974 140.199 20.3887 140.256 20.3714C140.313 20.354 140.364 20.3218 140.408 20.2746C140.532 20.1531 140.623 19.941 140.68 19.6383C140.737 19.3332 140.778 18.9078 140.803 18.362C140.813 18.1586 140.821 17.9179 140.829 17.6401C140.839 17.3623 140.847 17.0968 140.855 16.8438H143.594V21.0002ZM148.029 18.9239C148.029 19.6234 147.86 20.1642 147.523 20.5463C147.186 20.9258 146.737 21.1156 146.176 21.1156C145.598 21.1156 145.143 20.9196 144.81 20.5277C144.48 20.1332 144.315 19.5986 144.315 18.9239C144.315 18.2293 144.485 17.6897 144.825 17.3052C145.168 16.9207 145.618 16.7284 146.176 16.7284C146.737 16.7284 147.186 16.9207 147.523 17.3052C147.86 17.6872 148.029 18.2268 148.029 18.9239ZM147.307 18.9239C147.307 18.3856 147.209 17.9862 147.013 17.7257C146.817 17.4627 146.538 17.3312 146.176 17.3312C145.811 17.3312 145.53 17.4627 145.331 17.7257C145.135 17.9862 145.037 18.3856 145.037 18.9239C145.037 19.4448 145.135 19.8405 145.331 20.1109C145.53 20.3788 145.811 20.5128 146.176 20.5128C146.536 20.5128 146.814 20.3813 147.01 20.1183C147.208 19.8529 147.307 19.4548 147.307 18.9239ZM152.029 21.0002H151.33V19.1285H149.447V21.0002H148.747V16.8438H149.447V18.5257H151.33V16.8438H152.029V21.0002ZM154.846 21.097C154.184 21.097 153.669 20.9109 153.302 20.5388C152.937 20.1642 152.755 19.6334 152.755 18.9462C152.755 18.269 152.932 17.7306 153.287 17.3312C153.642 16.9294 154.106 16.7284 154.679 16.7284C154.937 16.7284 155.165 16.7656 155.363 16.8401C155.562 16.9145 155.736 17.0311 155.884 17.1898C156.033 17.3486 156.147 17.5434 156.227 17.7741C156.306 18.0023 156.346 18.2826 156.346 18.615V18.9946H153.466C153.466 19.4783 153.587 19.8479 153.83 20.1035C154.073 20.359 154.41 20.4867 154.839 20.4867C154.993 20.4867 155.143 20.4694 155.289 20.4346C155.438 20.3999 155.572 20.3553 155.691 20.3007C155.817 20.2436 155.924 20.189 156.011 20.137C156.098 20.0824 156.17 20.0315 156.227 19.9844H156.268V20.7472C156.186 20.7795 156.084 20.8204 155.962 20.87C155.841 20.9171 155.732 20.9544 155.635 20.9816C155.499 21.0188 155.375 21.0474 155.263 21.0672C155.154 21.0871 155.015 21.097 154.846 21.097ZM155.665 18.4587C155.66 18.2702 155.638 18.1077 155.598 17.9713C155.558 17.8348 155.501 17.7195 155.427 17.6252C155.345 17.521 155.239 17.4416 155.11 17.3871C154.984 17.3325 154.826 17.3052 154.638 17.3052C154.452 17.3052 154.293 17.3337 154.161 17.3908C154.032 17.4454 153.915 17.526 153.808 17.6327C153.704 17.7418 153.624 17.8634 153.57 17.9973C153.515 18.1288 153.481 18.2826 153.466 18.4587H155.665ZM160.335 21.0002H159.635V19.1285H157.752V21.0002H157.053V16.8438H157.752V18.5257H159.635V16.8438H160.335V21.0002ZM164.629 21.0002H163.937V17.9006L161.98 21.0002H161.347V16.8438H162.039V19.8951L163.974 16.8438H164.629V21.0002ZM168.923 21.0002H168.231V17.9006L166.274 21.0002H165.641V16.8438H166.333V19.8951L168.268 16.8438H168.923V21.0002ZM168.61 14.9125C168.61 15.1259 168.584 15.3206 168.532 15.4967C168.48 15.6704 168.406 15.8168 168.309 15.9358C168.197 16.0673 168.071 16.1665 167.93 16.2335C167.788 16.298 167.607 16.3303 167.386 16.3303C167.183 16.3303 167.004 16.2968 166.85 16.2298C166.699 16.1603 166.571 16.0624 166.467 15.9358C166.365 15.8118 166.289 15.663 166.236 15.4893C166.184 15.3157 166.158 15.1234 166.158 14.9125H166.761C166.761 15.2474 166.813 15.4893 166.917 15.6382C167.022 15.7845 167.178 15.8577 167.386 15.8577C167.582 15.8577 167.735 15.7858 167.844 15.6419C167.953 15.4955 168.008 15.2524 168.008 14.9125H168.61Z" fill="#606580"/>
<path d="M177.133 21H173.981V20.3401H175.153V16.0075H173.981V15.4171C174.424 15.4171 174.75 15.3549 174.958 15.2304C175.169 15.1031 175.288 14.8643 175.314 14.5141H175.987V20.3401H177.133V21Z" fill="#D7E2F2"/>
<path d="M265.69 21H264.752L262.795 18.4622H262.33V21H261.593V15.4593H262.33V17.9561C262.62 17.9462 262.849 17.873 263.018 17.7366C263.189 17.6002 263.328 17.4042 263.435 17.1487C263.479 17.037 263.519 16.9316 263.554 16.8324C263.591 16.7307 263.621 16.6451 263.643 16.5756C263.792 16.1514 263.982 15.8599 264.213 15.7012C264.443 15.5399 264.763 15.4593 265.173 15.4593H265.4V16.1179H265.214C264.911 16.1179 264.699 16.1775 264.577 16.2965C264.456 16.4131 264.344 16.6352 264.242 16.9626C264.141 17.2901 264.026 17.5307 263.9 17.6845C263.773 17.8358 263.621 17.9698 263.442 18.0864L265.69 21ZM269.616 18.812C269.616 19.5041 269.449 20.0561 269.117 20.4679C268.787 20.8772 268.369 21.0819 267.863 21.0819C267.657 21.0819 267.475 21.0583 267.316 21.0112C267.157 20.964 266.995 20.8908 266.828 20.7916V22.5331H266.129V16.8435H266.828V17.2789C267.002 17.1226 267.194 16.9924 267.405 16.8882C267.619 16.7815 267.851 16.7282 268.101 16.7282C268.577 16.7282 268.948 16.9167 269.214 17.2938C269.482 17.6709 269.616 18.1769 269.616 18.812ZM268.894 18.8901C268.894 18.4163 268.818 18.0492 268.667 17.7887C268.515 17.5257 268.27 17.3943 267.93 17.3943C267.731 17.3943 267.539 17.4389 267.353 17.5282C267.17 17.615 266.995 17.7279 266.828 17.8668V20.2223C267.012 20.3116 267.168 20.3724 267.297 20.4046C267.429 20.4369 267.579 20.453 267.748 20.453C268.11 20.453 268.391 20.3203 268.592 20.0548C268.793 19.7894 268.894 19.4012 268.894 18.8901ZM273.623 21H272.931V17.9003L270.974 21H270.341V16.8435H271.033V19.8948L272.968 16.8435H273.623V21ZM277.672 17.4575H276.258V21H275.558V17.4575H274.144V16.8435H277.672V17.4575ZM281.475 21H280.783V17.9003L278.825 21H278.193V16.8435H278.885V19.8948L280.82 16.8435H281.475V21ZM285.613 21H284.913V19.3776C284.695 19.4495 284.483 19.5054 284.277 19.5451C284.071 19.5847 283.867 19.6046 283.666 19.6046C283.49 19.6046 283.318 19.5823 283.149 19.5376C282.983 19.4905 282.839 19.4148 282.718 19.3106C282.596 19.2064 282.502 19.0737 282.435 18.9125C282.37 18.7487 282.338 18.5565 282.338 18.3357V16.8435H283.038V17.971C283.038 18.1546 283.045 18.301 283.06 18.4101C283.075 18.5168 283.116 18.621 283.183 18.7227C283.24 18.8095 283.325 18.8765 283.439 18.9236C283.556 18.9708 283.709 18.9943 283.897 18.9943C284.061 18.9943 284.236 18.9782 284.422 18.946C284.61 18.9137 284.774 18.8753 284.913 18.8306V16.8435H285.613V21ZM289.907 21H289.207V19.1283H287.324V21H286.625V16.8435H287.324V18.5255H289.207V16.8435H289.907V21ZM294.004 19.7125C294.004 19.9134 293.963 20.0958 293.881 20.2595C293.801 20.4232 293.692 20.5559 293.553 20.6577C293.39 20.7817 293.215 20.8698 293.029 20.9219C292.843 20.974 292.603 21 292.311 21H290.919V16.8435H291.618V18.4622H292.329C292.642 18.4622 292.884 18.4783 293.055 18.5106C293.228 18.5428 293.401 18.6222 293.572 18.7487C293.716 18.8554 293.824 18.9919 293.896 19.1581C293.968 19.3243 294.004 19.5091 294.004 19.7125ZM293.282 19.7237C293.282 19.5971 293.259 19.4868 293.215 19.3925C293.173 19.2957 293.102 19.2176 293.003 19.1581C292.898 19.096 292.779 19.0588 292.645 19.0464C292.514 19.034 292.324 19.0278 292.076 19.0278H291.618V20.4418H292.061C292.309 20.4418 292.502 20.4319 292.638 20.4121C292.774 20.3897 292.892 20.3488 292.991 20.2893C293.093 20.2248 293.166 20.1491 293.211 20.0623C293.258 19.973 293.282 19.8601 293.282 19.7237ZM295.187 21H294.487V16.8435H295.187V21ZM298.007 21.0967C297.345 21.0967 296.83 20.9107 296.463 20.5386C296.099 20.164 295.916 19.6331 295.916 18.946C295.916 18.2687 296.094 17.7304 296.448 17.331C296.803 16.9291 297.267 16.7282 297.84 16.7282C298.098 16.7282 298.326 16.7654 298.525 16.8398C298.723 16.9142 298.897 17.0308 299.046 17.1896C299.195 17.3484 299.309 17.5431 299.388 17.7738C299.467 18.002 299.507 18.2824 299.507 18.6148V18.9943H296.627C296.627 19.4781 296.749 19.8477 296.992 20.1032C297.235 20.3587 297.571 20.4865 298 20.4865C298.154 20.4865 298.304 20.4691 298.45 20.4344C298.599 20.3997 298.733 20.355 298.852 20.3004C298.979 20.2434 299.085 20.1888 299.172 20.1367C299.259 20.0821 299.331 20.0313 299.388 19.9841H299.429V20.747C299.347 20.7792 299.245 20.8201 299.124 20.8698C299.002 20.9169 298.893 20.9541 298.796 20.9814C298.66 21.0186 298.536 21.0471 298.424 21.067C298.315 21.0868 298.176 21.0967 298.007 21.0967ZM298.826 18.4585C298.821 18.27 298.799 18.1075 298.759 17.971C298.719 17.8346 298.662 17.7192 298.588 17.625C298.506 17.5208 298.401 17.4414 298.272 17.3868C298.145 17.3322 297.988 17.305 297.799 17.305C297.613 17.305 297.454 17.3335 297.323 17.3905C297.194 17.4451 297.076 17.5257 296.969 17.6324C296.865 17.7416 296.786 17.8631 296.731 17.9971C296.677 18.1286 296.642 18.2824 296.627 18.4585H298.826Z" fill="#606580"/>
<path d="M308.232 18.4008C308.232 19.5613 308.063 20.4137 307.724 20.9578C307.389 21.499 306.869 21.7696 306.166 21.7696C305.454 21.7696 304.931 21.4932 304.599 20.9404C304.266 20.3876 304.099 19.544 304.099 18.4094C304.099 17.2431 304.267 16.3908 304.603 15.8524C304.942 15.3112 305.462 15.0406 306.166 15.0406C306.878 15.0406 307.4 15.3199 307.733 15.8785C308.066 16.4371 308.232 17.2778 308.232 18.4008ZM307.121 20.3717C307.205 20.1575 307.264 19.8869 307.299 19.5599C307.334 19.2328 307.351 18.8465 307.351 18.4008C307.351 17.958 307.334 17.573 307.299 17.246C307.264 16.9189 307.203 16.6469 307.117 16.4298C307.03 16.2099 306.91 16.0434 306.756 15.9306C306.606 15.8148 306.409 15.7569 306.166 15.7569C305.926 15.7569 305.727 15.8148 305.571 15.9306C305.418 16.0434 305.296 16.2128 305.206 16.4385C305.12 16.6585 305.06 16.9363 305.028 17.272C304.997 17.6078 304.981 17.9869 304.981 18.4094C304.981 18.8609 304.994 19.2386 305.02 19.5425C305.049 19.8464 305.109 20.1185 305.202 20.3587C305.286 20.5815 305.405 20.7537 305.558 20.8753C305.714 20.9939 305.917 21.0533 306.166 21.0533C306.406 21.0533 306.603 20.9968 306.756 20.884C306.912 20.7682 307.034 20.5974 307.121 20.3717Z" fill="#606580"/>
<rect x="5.31753" y="5.31753" width="313.365" height="24.3649" stroke="#0089FF" stroke-width="0.635066"/>
<path d="M35.0466 22.2559H34.0828L31.2262 16.6817V22.2559H30.4231V15.7917H31.643L34.2434 20.9101V15.7917H35.0466V22.2559ZM39.8393 22.2559H36.6876V21.596H37.8597V17.2634H36.6876V16.673C37.1304 16.673 37.456 16.6108 37.6644 16.4863C37.8756 16.359 37.9943 16.1202 38.0203 15.77H38.6932V21.596H39.8393V22.2559ZM43.3992 19.8204H40.9507V19.0346H43.3992V19.8204ZM49.1383 22.2559H48.2788V16.5558H45.305V22.2559H44.4454V15.7917H49.1383V22.2559ZM55.1467 22.2559H54.2871V16.5558H51.3133V22.2559H50.4537V15.7917H55.1467V22.2559ZM61.155 22.2559H60.2954V16.5558H57.3216V22.2559H56.4621V15.7917H61.155V22.2559ZM67.1633 22.2559H66.3037V19.0911H63.33V22.2559H62.4704V15.7917H63.33V18.327H66.3037V15.7917H67.1633V22.2559ZM72.8808 20.2545C72.8808 20.5671 72.82 20.8507 72.6984 21.1054C72.5769 21.3601 72.4134 21.567 72.2079 21.7262C71.9648 21.9172 71.7043 22.0533 71.4264 22.1343C71.1486 22.2153 70.7897 22.2559 70.3498 22.2559H68.4787V15.7917H72.4162V16.5558H69.3383V18.327H70.3759C70.8158 18.327 71.1746 18.3531 71.4525 18.4051C71.7303 18.4544 71.9923 18.5745 72.2383 18.7655C72.4582 18.9362 72.6203 19.1475 72.7245 19.3993C72.8287 19.6511 72.8808 19.9362 72.8808 20.2545ZM71.9821 20.2719C71.9821 20.0548 71.9459 19.8638 71.8736 19.6988C71.8041 19.5339 71.6927 19.4007 71.5393 19.2995C71.3801 19.1924 71.1964 19.1272 70.988 19.1041C70.7796 19.0809 70.4858 19.0694 70.1067 19.0694H69.3383V21.5222H70.085C70.4699 21.5222 70.7651 21.5034 70.9706 21.4657C71.179 21.4281 71.3613 21.3558 71.5176 21.2487C71.6797 21.1358 71.7969 21.0041 71.8692 20.8536C71.9445 20.7002 71.9821 20.5063 71.9821 20.2719ZM78.5027 22.2559H77.4087L75.1252 19.2951H74.5825V22.2559H73.723V15.7917H74.5825V18.7047C74.9212 18.6931 75.1889 18.6077 75.3857 18.4486C75.5854 18.2894 75.7475 18.0607 75.8719 17.7626C75.924 17.6324 75.9703 17.5094 76.0108 17.3936C76.0542 17.275 76.089 17.1751 76.115 17.0941C76.2887 16.5992 76.5101 16.2591 76.7792 16.0739C77.0484 15.8858 77.4217 15.7917 77.8993 15.7917H78.1641V16.5601H77.947C77.5939 16.5601 77.3465 16.6296 77.2047 16.7685C77.0629 16.9045 76.9326 17.1635 76.814 17.5456C76.6953 17.9276 76.5622 18.2083 76.4146 18.3878C76.267 18.5643 76.089 18.7206 75.8806 18.8566L78.5027 22.2559Z" fill="#8C99B2"/>
<line x1="17.6825" y1="100" x2="17.6825" y2="30" stroke="#0089FF" stroke-width="0.635066" stroke-dasharray="0.64 0.64"/>
<line x1="25.7393" y1="48.8125" x2="17.7013" y2="48.8125" stroke="#0089FF" stroke-width="0.635066" stroke-dasharray="0.64 0.64"/>
<rect width="0.949895" height="24.7595" transform="translate(25.7393 36.1152)" fill="#4B5169"/>
<rect width="143.415" height="24.7595" transform="translate(26.5854 36.1152)" fill="#272A38"/>
<path d="M33.3109 52.5431L35.4902 46.0789H36.5495L38.7288 52.5431H37.8214L37.2354 50.7371H34.7652L34.1791 52.5431H33.3109ZM36.9966 50.0034L35.9981 46.9559L35.004 50.0034H36.9966ZM43.7256 50.5591C43.7256 50.8804 43.6648 51.164 43.5432 51.41C43.4217 51.656 43.2582 51.8586 43.0527 52.0178C42.8096 52.2088 42.5491 52.3448 42.2713 52.4259C41.9934 52.504 41.6345 52.5431 41.1946 52.5431H39.3409V46.0789H41.0557C41.5159 46.0789 41.8603 46.0949 42.0889 46.1267C42.3205 46.1556 42.5419 46.2265 42.7531 46.3394C42.9847 46.4639 43.154 46.6274 43.2611 46.83C43.3681 47.0297 43.4217 47.2655 43.4217 47.5376C43.4217 47.8415 43.3407 48.1135 43.1786 48.3538C43.0194 48.594 42.798 48.7821 42.5144 48.9181V48.9529C42.8993 49.057 43.1974 49.2481 43.4087 49.5259C43.6199 49.8009 43.7256 50.1453 43.7256 50.5591ZM42.5274 47.6592C42.5274 47.5029 42.5013 47.3683 42.4492 47.2554C42.3972 47.1397 42.3132 47.0485 42.1975 46.9819C42.0585 46.9038 41.9037 46.856 41.7329 46.8387C41.5622 46.8213 41.3263 46.8126 41.0253 46.8126H40.2005V48.7054H41.1773C41.4464 48.7054 41.6447 48.6924 41.772 48.6663C41.8994 48.6374 42.031 48.5795 42.1671 48.4927C42.2973 48.4088 42.3899 48.2988 42.4449 48.1627C42.4999 48.0267 42.5274 47.8589 42.5274 47.6592ZM42.8313 50.5939C42.8313 50.3507 42.7965 50.151 42.7271 49.9948C42.6576 49.8356 42.5173 49.701 42.306 49.591C42.17 49.5187 42.0209 49.4724 41.8588 49.4521C41.6997 49.4318 41.4725 49.4217 41.1773 49.4217H40.2005V51.8094H40.8994C41.2757 51.8094 41.5723 51.7921 41.7894 51.7573C42.0064 51.7226 42.1975 51.6488 42.3624 51.5359C42.5245 51.423 42.6432 51.2957 42.7184 51.1539C42.7937 51.0092 42.8313 50.8225 42.8313 50.5939ZM46.0959 52.5431V46.843H43.9253V46.0789H49.1261V46.843H46.9555V52.5431H46.0959ZM51.961 50.1076H49.5125V49.3219H51.961V50.1076ZM56.9144 50.4463C56.9144 50.7791 56.8594 51.0859 56.7494 51.3666C56.6394 51.6473 56.4918 51.8818 56.3066 52.0699C56.1127 52.2696 55.8956 52.4215 55.6554 52.5257C55.4152 52.627 55.1504 52.6777 54.8609 52.6777C54.5686 52.6777 54.3024 52.6285 54.0622 52.5301C53.8248 52.4317 53.615 52.2855 53.4327 52.0916C53.2098 51.8572 53.0347 51.5446 52.9074 51.1539C52.7829 50.7603 52.7207 50.2769 52.7207 49.7039C52.7207 49.1424 52.7786 48.6359 52.8944 48.1845C53.0101 47.7301 53.1881 47.335 53.4283 46.9993C53.6628 46.6722 53.9652 46.4176 54.3357 46.2352C54.7061 46.05 55.1344 45.9574 55.6207 45.9574C55.7654 45.9574 55.9 45.9646 56.0244 45.9791C56.1489 45.9936 56.2588 46.0167 56.3543 46.0485V46.8777H56.3153C56.2371 46.8343 56.1243 46.7952 55.9767 46.7605C55.8291 46.7229 55.6713 46.7041 55.5035 46.7041C54.9651 46.7041 54.5296 46.8864 54.1967 47.2511C53.8668 47.6129 53.6714 48.1512 53.6107 48.866C53.8161 48.7213 54.0274 48.6099 54.2445 48.5318C54.4616 48.4536 54.6989 48.4145 54.9565 48.4145C55.2083 48.4145 55.4282 48.4406 55.6163 48.4927C55.8073 48.5419 56.0056 48.6432 56.2111 48.7966C56.4484 48.976 56.625 49.2032 56.7407 49.4782C56.8565 49.7531 56.9144 50.0758 56.9144 50.4463ZM56.0331 50.481C56.0331 50.2147 55.9984 49.9919 55.9289 49.8124C55.8594 49.633 55.7466 49.4796 55.5903 49.3523C55.4774 49.2596 55.3486 49.1989 55.2039 49.1699C55.0621 49.141 54.9159 49.1265 54.7654 49.1265C54.5628 49.1265 54.366 49.1569 54.175 49.2177C53.984 49.2785 53.7959 49.3667 53.6107 49.4825C53.6049 49.5462 53.6005 49.6084 53.5976 49.6692C53.5947 49.7271 53.5933 49.8009 53.5933 49.8906C53.5933 50.3392 53.6367 50.7009 53.7235 50.9759C53.8133 51.2508 53.9232 51.4592 54.0535 51.601C54.1779 51.7371 54.3053 51.8326 54.4355 51.8876C54.5686 51.9425 54.7119 51.97 54.8653 51.97C55.2126 51.97 55.4933 51.8456 55.7075 51.5967C55.9246 51.3478 56.0331 50.9759 56.0331 50.481Z" fill="#8C99B2"/>
<line x1="25.7393" y1="74.8106" x2="17.7013" y2="74.8106" stroke="#0089FF" stroke-width="0.635066" stroke-dasharray="0.64 0.64"/>
<rect width="0.949895" height="24.7595" transform="translate(25.7393 62.1133)" fill="#4B5169"/>
<rect width="143.415" height="24.7595" transform="translate(26.5854 62.1128)" fill="#272A38"/>
<path d="M33.3109 78.5406L35.4902 72.0765H36.5495L38.7288 78.5406H37.8214L37.2354 76.7347H34.7652L34.1791 78.5406H33.3109ZM36.9966 76.001L35.9981 72.9534L35.004 76.001H36.9966ZM43.7256 76.5567C43.7256 76.8779 43.6648 77.1616 43.5432 77.4076C43.4217 77.6536 43.2582 77.8562 43.0527 78.0154C42.8096 78.2064 42.5491 78.3424 42.2713 78.4234C41.9934 78.5016 41.6345 78.5406 41.1946 78.5406H39.3409V72.0765H41.0557C41.5159 72.0765 41.8603 72.0924 42.0889 72.1242C42.3205 72.1532 42.5419 72.2241 42.7531 72.337C42.9847 72.4614 43.154 72.6249 43.2611 72.8275C43.3681 73.0272 43.4217 73.2631 43.4217 73.5352C43.4217 73.8391 43.3407 74.1111 43.1786 74.3513C43.0194 74.5915 42.798 74.7797 42.5144 74.9157V74.9504C42.8993 75.0546 43.1974 75.2456 43.4087 75.5235C43.6199 75.7984 43.7256 76.1428 43.7256 76.5567ZM42.5274 73.6567C42.5274 73.5004 42.5013 73.3659 42.4492 73.253C42.3972 73.1372 42.3132 73.046 42.1975 72.9795C42.0585 72.9013 41.9037 72.8536 41.7329 72.8362C41.5622 72.8189 41.3263 72.8102 41.0253 72.8102H40.2005V74.703H41.1773C41.4464 74.703 41.6447 74.6899 41.772 74.6639C41.8994 74.635 42.031 74.5771 42.1671 74.4902C42.2973 74.4063 42.3899 74.2963 42.4449 74.1603C42.4999 74.0243 42.5274 73.8564 42.5274 73.6567ZM42.8313 76.5914C42.8313 76.3483 42.7965 76.1486 42.7271 75.9923C42.6576 75.8331 42.5173 75.6986 42.306 75.5886C42.17 75.5162 42.0209 75.4699 41.8588 75.4497C41.6997 75.4294 41.4725 75.4193 41.1773 75.4193H40.2005V77.807H40.8994C41.2757 77.807 41.5723 77.7896 41.7894 77.7549C42.0064 77.7201 42.1975 77.6463 42.3624 77.5335C42.5245 77.4206 42.6432 77.2933 42.7184 77.1514C42.7937 77.0067 42.8313 76.8201 42.8313 76.5914ZM46.0959 78.5406V72.8406H43.9253V72.0765H49.1261V72.8406H46.9555V78.5406H46.0959ZM51.961 76.1052H49.5125V75.3194H51.961V76.1052ZM56.884 73.0446L54.0882 78.5406H53.1635L56.1243 72.8362H52.7815V72.0765H56.884V73.0446Z" fill="#8C99B2"/>
<line x1="25.7393" y1="100.808" x2="17.7013" y2="100.808" stroke="#0089FF" stroke-width="0.635066" stroke-dasharray="0.64 0.64"/>
<rect width="0.949895" height="24.7595" transform="translate(25.7393 88.1104)" fill="#4B5169"/>
<rect width="143.415" height="24.7595" transform="translate(26.5854 88.1104)" fill="#272A38"/>
<path d="M33.3109 104.538L35.4902 98.0741H36.5495L38.7288 104.538H37.8214L37.2354 102.732H34.7652L34.1791 104.538H33.3109ZM36.9966 101.999L35.9981 98.951L35.004 101.999H36.9966ZM43.7256 102.554C43.7256 102.876 43.6648 103.159 43.5432 103.405C43.4217 103.651 43.2582 103.854 43.0527 104.013C42.8096 104.204 42.5491 104.34 42.2713 104.421C41.9934 104.499 41.6345 104.538 41.1946 104.538H39.3409V98.0741H41.0557C41.5159 98.0741 41.8603 98.09 42.0889 98.1218C42.3205 98.1507 42.5419 98.2217 42.7531 98.3345C42.9847 98.459 43.154 98.6225 43.2611 98.8251C43.3681 99.0248 43.4217 99.2607 43.4217 99.5327C43.4217 99.8366 43.3407 100.109 43.1786 100.349C43.0194 100.589 42.798 100.777 42.5144 100.913V100.948C42.8993 101.052 43.1974 101.243 43.4087 101.521C43.6199 101.796 43.7256 102.14 43.7256 102.554ZM42.5274 99.6543C42.5274 99.498 42.5013 99.3634 42.4492 99.2505C42.3972 99.1348 42.3132 99.0436 42.1975 98.977C42.0585 98.8989 41.9037 98.8511 41.7329 98.8338C41.5622 98.8164 41.3263 98.8077 41.0253 98.8077H40.2005V100.701H41.1773C41.4464 100.701 41.6447 100.687 41.772 100.661C41.8994 100.633 42.031 100.575 42.1671 100.488C42.2973 100.404 42.3899 100.294 42.4449 100.158C42.4999 100.022 42.5274 99.854 42.5274 99.6543ZM42.8313 102.589C42.8313 102.346 42.7965 102.146 42.7271 101.99C42.6576 101.831 42.5173 101.696 42.306 101.586C42.17 101.514 42.0209 101.467 41.8588 101.447C41.6997 101.427 41.4725 101.417 41.1773 101.417H40.2005V103.805H40.8994C41.2757 103.805 41.5723 103.787 41.7894 103.752C42.0064 103.718 42.1975 103.644 42.3624 103.531C42.5245 103.418 42.6432 103.291 42.7184 103.149C42.7937 103.004 42.8313 102.818 42.8313 102.589ZM46.0959 104.538V98.8381H43.9253V98.0741H49.1261V98.8381H46.9555V104.538H46.0959ZM51.961 102.103H49.5125V101.317H51.961V102.103ZM55.8725 99.5805C55.8725 99.2911 55.7755 99.0494 55.5816 98.8555C55.3877 98.6616 55.1185 98.5646 54.7741 98.5646C54.4587 98.5646 54.1996 98.6514 53.997 98.8251C53.7973 98.9987 53.6975 99.2332 53.6975 99.5284C53.6975 99.7425 53.7481 99.9234 53.8494 100.071C53.9536 100.219 54.1085 100.352 54.3139 100.47C54.4037 100.52 54.5397 100.588 54.722 100.674C54.9073 100.761 55.0751 100.829 55.2256 100.879C55.4774 100.685 55.6482 100.486 55.7379 100.284C55.8276 100.078 55.8725 99.8438 55.8725 99.5805ZM55.994 102.819C55.994 102.553 55.9419 102.342 55.8377 102.185C55.7335 102.029 55.5324 101.87 55.2343 101.708C55.1359 101.653 55.0042 101.593 54.8392 101.53C54.6772 101.466 54.4934 101.391 54.2879 101.304C54.0477 101.463 53.8639 101.66 53.7366 101.894C53.6092 102.126 53.5455 102.391 53.5455 102.689C53.5455 103.08 53.6628 103.402 53.8972 103.657C54.1345 103.912 54.4312 104.039 54.7871 104.039C55.1518 104.039 55.4441 103.93 55.6641 103.713C55.884 103.493 55.994 103.195 55.994 102.819ZM54.7785 104.686C54.4572 104.686 54.1649 104.638 53.9015 104.543C53.6382 104.447 53.4139 104.31 53.2286 104.13C53.0463 103.956 52.9074 103.751 52.8119 103.514C52.7193 103.273 52.6729 103.02 52.6729 102.754C52.6729 102.404 52.7656 102.082 52.9508 101.79C53.1389 101.495 53.411 101.261 53.7669 101.087V101.061C53.4486 100.876 53.2127 100.673 53.0593 100.453C52.9059 100.233 52.8292 99.9582 52.8292 99.6282C52.8292 99.142 53.013 98.7368 53.3806 98.4127C53.7481 98.0885 54.2141 97.9264 54.7785 97.9264C55.366 97.9264 55.8363 98.0813 56.1894 98.391C56.5454 98.6977 56.7234 99.0914 56.7234 99.5718C56.7234 99.8612 56.638 100.148 56.4672 100.431C56.2994 100.715 56.0562 100.936 55.7379 101.096V101.122C56.1141 101.298 56.3992 101.512 56.5931 101.764C56.787 102.016 56.884 102.34 56.884 102.737C56.884 103.289 56.6828 103.752 56.2805 104.126C55.8811 104.499 55.3805 104.686 54.7785 104.686Z" fill="#8C99B2"/>
<rect width="47" height="25" transform="translate(168 62)" fill="#272A38"/>
<path d="M183.126 78.2844H179.137V77.3771C179.423 77.105 179.694 76.8446 179.949 76.5957C180.203 76.3468 180.452 76.0877 180.695 75.8186C181.187 75.2774 181.523 74.8447 181.702 74.5205C181.882 74.1935 181.972 73.8563 181.972 73.509C181.972 73.3296 181.943 73.1719 181.885 73.0358C181.83 72.8998 181.753 72.7869 181.655 72.6972C181.553 72.6104 181.436 72.5453 181.303 72.5018C181.17 72.4584 181.024 72.4367 180.865 72.4367C180.711 72.4367 180.555 72.457 180.396 72.4975C180.239 72.5351 180.089 72.5829 179.944 72.6408C179.823 72.69 179.705 72.7493 179.593 72.8188C179.48 72.8882 179.389 72.9476 179.319 72.9968H179.271V72.0764C179.451 71.9867 179.7 71.8999 180.018 71.8159C180.339 71.7291 180.643 71.6857 180.93 71.6857C181.532 71.6857 182.003 71.8463 182.345 72.1676C182.686 72.4859 182.857 72.9186 182.857 73.4656C182.857 73.7174 182.827 73.9504 182.766 74.1646C182.708 74.3787 182.627 74.577 182.523 74.7593C182.416 74.9474 182.287 75.1341 182.137 75.3193C181.986 75.5046 181.827 75.6869 181.659 75.8663C181.387 76.1615 181.083 76.4683 180.747 76.7867C180.415 77.105 180.148 77.3568 179.949 77.5421H183.126V78.2844ZM190.758 78.2844H186.769V77.3771C187.055 77.105 187.326 76.8446 187.581 76.5957C187.835 76.3468 188.084 76.0877 188.327 75.8186C188.819 75.2774 189.155 74.8447 189.334 74.5205C189.514 74.1935 189.604 73.8563 189.604 73.509C189.604 73.3296 189.575 73.1719 189.517 73.0358C189.462 72.8998 189.385 72.7869 189.287 72.6972C189.185 72.6104 189.068 72.5453 188.935 72.5018C188.802 72.4584 188.656 72.4367 188.497 72.4367C188.343 72.4367 188.187 72.457 188.028 72.4975C187.871 72.5351 187.721 72.5829 187.576 72.6408C187.455 72.69 187.337 72.7493 187.225 72.8188C187.112 72.8882 187.021 72.9476 186.951 72.9968H186.903V72.0764C187.083 71.9867 187.332 71.8999 187.65 71.8159C187.971 71.7291 188.275 71.6857 188.562 71.6857C189.164 71.6857 189.635 71.8463 189.977 72.1676C190.318 72.4859 190.489 72.9186 190.489 73.4656C190.489 73.7174 190.459 73.9504 190.398 74.1646C190.34 74.3787 190.259 74.577 190.155 74.7593C190.048 74.9474 189.919 75.1341 189.769 75.3193C189.618 75.5046 189.459 75.6869 189.291 75.8663C189.019 76.1615 188.715 76.4683 188.379 76.7867C188.047 77.105 187.78 77.3568 187.581 77.5421H190.758V78.2844ZM195.681 72.7884L192.886 78.2844H191.961L194.922 72.58H191.579V71.8203H195.681V72.7884ZM200.535 72.7884L197.739 78.2844H196.814L199.775 72.58H196.432V71.8203H200.535V72.7884ZM202.067 78.2844H201.03V77.0472H202.067V78.2844ZM207.212 72.7884L204.416 78.2844H203.491L206.452 72.58H203.109V71.8203H207.212V72.7884Z" fill="#8C99B2"/>
<rect width="47" height="25" transform="translate(168 36)" fill="#272A38"/>
<path d="M183.126 52.2844H179.137V51.3771C179.423 51.105 179.694 50.8446 179.949 50.5957C180.203 50.3468 180.452 50.0877 180.695 49.8186C181.187 49.2774 181.523 48.8447 181.702 48.5205C181.882 48.1935 181.972 47.8563 181.972 47.509C181.972 47.3296 181.943 47.1719 181.885 47.0358C181.83 46.8998 181.753 46.7869 181.655 46.6972C181.553 46.6104 181.436 46.5453 181.303 46.5018C181.17 46.4584 181.024 46.4367 180.865 46.4367C180.711 46.4367 180.555 46.457 180.396 46.4975C180.239 46.5351 180.089 46.5829 179.944 46.6408C179.823 46.69 179.705 46.7493 179.593 46.8188C179.48 46.8882 179.389 46.9476 179.319 46.9968H179.271V46.0764C179.451 45.9867 179.7 45.8999 180.018 45.8159C180.339 45.7291 180.643 45.6857 180.93 45.6857C181.532 45.6857 182.003 45.8463 182.345 46.1676C182.686 46.4859 182.857 46.9186 182.857 47.4656C182.857 47.7174 182.827 47.9504 182.766 48.1646C182.708 48.3787 182.627 48.577 182.523 48.7593C182.416 48.9474 182.287 49.1341 182.137 49.3193C181.986 49.5046 181.827 49.6869 181.659 49.8663C181.387 50.1615 181.083 50.4683 180.747 50.7867C180.415 51.105 180.148 51.3568 179.949 51.5421H183.126V52.2844ZM190.758 52.2844H186.769V51.3771C187.055 51.105 187.326 50.8446 187.581 50.5957C187.835 50.3468 188.084 50.0877 188.327 49.8186C188.819 49.2774 189.155 48.8447 189.334 48.5205C189.514 48.1935 189.604 47.8563 189.604 47.509C189.604 47.3296 189.575 47.1719 189.517 47.0358C189.462 46.8998 189.385 46.7869 189.287 46.6972C189.185 46.6104 189.068 46.5453 188.935 46.5018C188.802 46.4584 188.656 46.4367 188.497 46.4367C188.343 46.4367 188.187 46.457 188.028 46.4975C187.871 46.5351 187.721 46.5829 187.576 46.6408C187.455 46.69 187.337 46.7493 187.225 46.8188C187.112 46.8882 187.021 46.9476 186.951 46.9968H186.903V46.0764C187.083 45.9867 187.332 45.8999 187.65 45.8159C187.971 45.7291 188.275 45.6857 188.562 45.6857C189.164 45.6857 189.635 45.8463 189.977 46.1676C190.318 46.4859 190.489 46.9186 190.489 47.4656C190.489 47.7174 190.459 47.9504 190.398 48.1646C190.34 48.3787 190.259 48.577 190.155 48.7593C190.048 48.9474 189.919 49.1341 189.769 49.3193C189.618 49.5046 189.459 49.6869 189.291 49.8663C189.019 50.1615 188.715 50.4683 188.379 50.7867C188.047 51.105 187.78 51.3568 187.581 51.5421H190.758V52.2844ZM195.681 46.7884L192.886 52.2844H191.961L194.922 46.58H191.579V45.8203H195.681V46.7884ZM200.535 46.7884L197.739 52.2844H196.814L199.775 46.58H196.432V45.8203H200.535V46.7884ZM202.067 52.2844H201.03V51.0472H202.067V52.2844ZM207.212 46.7884L204.416 52.2844H203.491L206.452 46.58H203.109V45.8203H207.212V46.7884Z" fill="#8C99B2"/>
<rect width="47" height="25" transform="translate(168 88)" fill="#272A38"/>
<path d="M182.796 104.284H179.645V103.625H180.817V99.292H179.645V98.7015C180.088 98.7015 180.413 98.6393 180.621 98.5149C180.833 98.3875 180.951 98.1488 180.977 97.7986H181.65V103.625H182.796V104.284ZM187.038 99.3267C187.038 99.0373 186.941 98.7956 186.747 98.6017C186.553 98.4078 186.284 98.3108 185.94 98.3108C185.624 98.3108 185.365 98.3977 185.162 98.5713C184.963 98.745 184.863 98.9794 184.863 99.2746C184.863 99.4888 184.914 99.6697 185.015 99.8173C185.119 99.9649 185.274 100.098 185.479 100.217C185.569 100.266 185.705 100.334 185.887 100.421C186.073 100.508 186.241 100.576 186.391 100.625C186.643 100.431 186.814 100.233 186.903 100.03C186.993 99.8245 187.038 99.5901 187.038 99.3267ZM187.159 102.565C187.159 102.299 187.107 102.088 187.003 101.931C186.899 101.775 186.698 101.616 186.4 101.454C186.301 101.399 186.17 101.34 186.005 101.276C185.843 101.212 185.659 101.137 185.453 101.05C185.213 101.209 185.029 101.406 184.902 101.641C184.775 101.872 184.711 102.137 184.711 102.435C184.711 102.826 184.828 103.148 185.063 103.403C185.3 103.658 185.597 103.785 185.953 103.785C186.317 103.785 186.61 103.677 186.83 103.46C187.049 103.24 187.159 102.942 187.159 102.565ZM185.944 104.432C185.623 104.432 185.33 104.384 185.067 104.289C184.804 104.193 184.579 104.056 184.394 103.876C184.212 103.703 184.073 103.497 183.977 103.26C183.885 103.02 183.838 102.766 183.838 102.5C183.838 102.15 183.931 101.829 184.116 101.536C184.304 101.241 184.576 101.007 184.932 100.833V100.807C184.614 100.622 184.378 100.419 184.225 100.199C184.071 99.9793 183.995 99.7044 183.995 99.3744C183.995 98.8882 184.178 98.483 184.546 98.1589C184.914 97.8347 185.38 97.6727 185.944 97.6727C186.531 97.6727 187.002 97.8275 187.355 98.1372C187.711 98.444 187.889 98.8376 187.889 99.318C187.889 99.6074 187.803 99.8939 187.633 100.178C187.465 100.461 187.222 100.683 186.903 100.842V100.868C187.28 101.044 187.565 101.259 187.759 101.51C187.952 101.762 188.049 102.086 188.049 102.483C188.049 103.036 187.848 103.499 187.446 103.872C187.047 104.245 186.546 104.432 185.944 104.432ZM190.233 104.284H189.196V103.047H190.233V104.284ZM195.195 104.284H192.043V103.625H193.216V99.292H192.043V98.7015C192.486 98.7015 192.812 98.6393 193.02 98.5149C193.231 98.3875 193.35 98.1488 193.376 97.7986H194.049V103.625H195.195V104.284Z" fill="#8C99B2"/>
<rect width="52" height="25" transform="translate(215 62)" fill="#272A38"/>
<path d="M232.126 78.2844H228.137V77.3771C228.423 77.105 228.694 76.8446 228.949 76.5957C229.203 76.3468 229.452 76.0877 229.695 75.8186C230.187 75.2774 230.523 74.8447 230.703 74.5205C230.882 74.1935 230.972 73.8563 230.972 73.509C230.972 73.3296 230.943 73.1719 230.885 73.0358C230.83 72.8998 230.753 72.7869 230.655 72.6972C230.553 72.6104 230.436 72.5453 230.303 72.5018C230.17 72.4584 230.024 72.4367 229.865 72.4367C229.711 72.4367 229.555 72.457 229.396 72.4975C229.24 72.5351 229.089 72.5829 228.944 72.6408C228.823 72.69 228.706 72.7493 228.593 72.8188C228.48 72.8882 228.389 72.9476 228.319 72.9968H228.271V72.0764C228.451 71.9867 228.7 71.8999 229.018 71.8159C229.339 71.7291 229.643 71.6857 229.93 71.6857C230.532 71.6857 231.004 71.8463 231.345 72.1676C231.687 72.4859 231.857 72.9186 231.857 73.4656C231.857 73.7174 231.827 73.9504 231.766 74.1646C231.708 74.3787 231.627 74.577 231.523 74.7593C231.416 74.9474 231.287 75.1341 231.137 75.3193C230.986 75.5046 230.827 75.6869 230.659 75.8663C230.387 76.1615 230.083 76.4683 229.747 76.7867C229.415 77.105 229.148 77.3568 228.949 77.5421H232.126V78.2844ZM239.758 78.2844H235.769V77.3771C236.055 77.105 236.326 76.8446 236.581 76.5957C236.835 76.3468 237.084 76.0877 237.327 75.8186C237.819 75.2774 238.155 74.8447 238.334 74.5205C238.514 74.1935 238.604 73.8563 238.604 73.509C238.604 73.3296 238.575 73.1719 238.517 73.0358C238.462 72.8998 238.385 72.7869 238.287 72.6972C238.185 72.6104 238.068 72.5453 237.935 72.5018C237.802 72.4584 237.656 72.4367 237.497 72.4367C237.343 72.4367 237.187 72.457 237.028 72.4975C236.871 72.5351 236.721 72.5829 236.576 72.6408C236.455 72.69 236.337 72.7493 236.225 72.8188C236.112 72.8882 236.021 72.9476 235.951 72.9968H235.903V72.0764C236.083 71.9867 236.332 71.8999 236.65 71.8159C236.971 71.7291 237.275 71.6857 237.562 71.6857C238.164 71.6857 238.635 71.8463 238.977 72.1676C239.319 72.4859 239.489 72.9186 239.489 73.4656C239.489 73.7174 239.459 73.9504 239.398 74.1646C239.34 74.3787 239.259 74.577 239.155 74.7593C239.048 74.9474 238.919 75.1341 238.769 75.3193C238.618 75.5046 238.459 75.6869 238.291 75.8663C238.019 76.1615 237.715 76.4683 237.379 76.7867C237.047 77.105 236.78 77.3568 236.581 77.5421H239.758V78.2844ZM244.681 72.7884L241.886 78.2844H240.961L243.922 72.58H240.579V71.8203H244.681V72.7884ZM249.535 72.7884L246.739 78.2844H245.814L248.775 72.58H245.432V71.8203H249.535V72.7884ZM251.067 78.2844H250.03V77.0472H251.067V78.2844ZM256.212 72.7884L253.416 78.2844H252.491L255.452 72.58H252.109V71.8203H256.212V72.7884Z" fill="#8C99B2"/>
<rect width="52" height="25" transform="translate(215 36)" fill="#272A38"/>
<path d="M232.126 52.2844H228.137V51.3771C228.423 51.105 228.694 50.8446 228.949 50.5957C229.203 50.3468 229.452 50.0877 229.695 49.8186C230.187 49.2774 230.523 48.8447 230.703 48.5205C230.882 48.1935 230.972 47.8563 230.972 47.509C230.972 47.3296 230.943 47.1719 230.885 47.0358C230.83 46.8998 230.753 46.7869 230.655 46.6972C230.553 46.6104 230.436 46.5453 230.303 46.5018C230.17 46.4584 230.024 46.4367 229.865 46.4367C229.711 46.4367 229.555 46.457 229.396 46.4975C229.24 46.5351 229.089 46.5829 228.944 46.6408C228.823 46.69 228.706 46.7493 228.593 46.8188C228.48 46.8882 228.389 46.9476 228.319 46.9968H228.271V46.0764C228.451 45.9867 228.7 45.8999 229.018 45.8159C229.339 45.7291 229.643 45.6857 229.93 45.6857C230.532 45.6857 231.004 45.8463 231.345 46.1676C231.687 46.4859 231.857 46.9186 231.857 47.4656C231.857 47.7174 231.827 47.9504 231.766 48.1646C231.708 48.3787 231.627 48.577 231.523 48.7593C231.416 48.9474 231.287 49.1341 231.137 49.3193C230.986 49.5046 230.827 49.6869 230.659 49.8663C230.387 50.1615 230.083 50.4683 229.747 50.7867C229.415 51.105 229.148 51.3568 228.949 51.5421H232.126V52.2844ZM239.758 52.2844H235.769V51.3771C236.055 51.105 236.326 50.8446 236.581 50.5957C236.835 50.3468 237.084 50.0877 237.327 49.8186C237.819 49.2774 238.155 48.8447 238.334 48.5205C238.514 48.1935 238.604 47.8563 238.604 47.509C238.604 47.3296 238.575 47.1719 238.517 47.0358C238.462 46.8998 238.385 46.7869 238.287 46.6972C238.185 46.6104 238.068 46.5453 237.935 46.5018C237.802 46.4584 237.656 46.4367 237.497 46.4367C237.343 46.4367 237.187 46.457 237.028 46.4975C236.871 46.5351 236.721 46.5829 236.576 46.6408C236.455 46.69 236.337 46.7493 236.225 46.8188C236.112 46.8882 236.021 46.9476 235.951 46.9968H235.903V46.0764C236.083 45.9867 236.332 45.8999 236.65 45.8159C236.971 45.7291 237.275 45.6857 237.562 45.6857C238.164 45.6857 238.635 45.8463 238.977 46.1676C239.319 46.4859 239.489 46.9186 239.489 47.4656C239.489 47.7174 239.459 47.9504 239.398 48.1646C239.34 48.3787 239.259 48.577 239.155 48.7593C239.048 48.9474 238.919 49.1341 238.769 49.3193C238.618 49.5046 238.459 49.6869 238.291 49.8663C238.019 50.1615 237.715 50.4683 237.379 50.7867C237.047 51.105 236.78 51.3568 236.581 51.5421H239.758V52.2844ZM244.681 46.7884L241.886 52.2844H240.961L243.922 46.58H240.579V45.8203H244.681V46.7884ZM249.535 46.7884L246.739 52.2844H245.814L248.775 46.58H245.432V45.8203H249.535V46.7884ZM251.067 52.2844H250.03V51.0472H251.067V52.2844ZM256.212 46.7884L253.416 52.2844H252.491L255.452 46.58H252.109V45.8203H256.212V46.7884Z" fill="#8C99B2"/>
<rect width="52" height="25" transform="translate(215 88)" fill="#272A38"/>
<path d="M231.797 104.284H228.645V103.625H229.817V99.292H228.645V98.7015C229.088 98.7015 229.413 98.6393 229.622 98.5149C229.833 98.3875 229.951 98.1488 229.978 97.7986H230.65V103.625H231.797V104.284ZM236.038 99.3267C236.038 99.0373 235.941 98.7956 235.747 98.6017C235.553 98.4078 235.284 98.3108 234.94 98.3108C234.624 98.3108 234.365 98.3977 234.163 98.5713C233.963 98.745 233.863 98.9794 233.863 99.2746C233.863 99.4888 233.914 99.6697 234.015 99.8173C234.119 99.9649 234.274 100.098 234.479 100.217C234.569 100.266 234.705 100.334 234.888 100.421C235.073 100.508 235.241 100.576 235.391 100.625C235.643 100.431 235.814 100.233 235.903 100.03C235.993 99.8245 236.038 99.5901 236.038 99.3267ZM236.16 102.565C236.16 102.299 236.107 102.088 236.003 101.931C235.899 101.775 235.698 101.616 235.4 101.454C235.301 101.399 235.17 101.34 235.005 101.276C234.843 101.212 234.659 101.137 234.453 101.05C234.213 101.209 234.029 101.406 233.902 101.641C233.775 101.872 233.711 102.137 233.711 102.435C233.711 102.826 233.828 103.148 234.063 103.403C234.3 103.658 234.597 103.785 234.953 103.785C235.317 103.785 235.61 103.677 235.83 103.46C236.05 103.24 236.16 102.942 236.16 102.565ZM234.944 104.432C234.623 104.432 234.33 104.384 234.067 104.289C233.804 104.193 233.579 104.056 233.394 103.876C233.212 103.703 233.073 103.497 232.977 103.26C232.885 103.02 232.838 102.766 232.838 102.5C232.838 102.15 232.931 101.829 233.116 101.536C233.304 101.241 233.576 101.007 233.932 100.833V100.807C233.614 100.622 233.378 100.419 233.225 100.199C233.071 99.9793 232.995 99.7044 232.995 99.3744C232.995 98.8882 233.178 98.483 233.546 98.1589C233.914 97.8347 234.38 97.6727 234.944 97.6727C235.531 97.6727 236.002 97.8275 236.355 98.1372C236.711 98.444 236.889 98.8376 236.889 99.318C236.889 99.6074 236.803 99.8939 236.633 100.178C236.465 100.461 236.222 100.683 235.903 100.842V100.868C236.28 101.044 236.565 101.259 236.759 101.51C236.953 101.762 237.049 102.086 237.049 102.483C237.049 103.036 236.848 103.499 236.446 103.872C236.047 104.245 235.546 104.432 234.944 104.432ZM239.233 104.284H238.196V103.047H239.233V104.284ZM244.195 104.284H241.043V103.625H242.216V99.292H241.043V98.7015C241.486 98.7015 241.812 98.6393 242.02 98.5149C242.232 98.3875 242.35 98.1488 242.376 97.7986H243.049V103.625H244.195V104.284Z" fill="#8C99B2"/>
<rect width="52" height="25" transform="translate(267 62)" fill="#272A38"/>
<path d="M283.276 74.4771C283.276 74.0372 283.235 73.6798 283.154 73.4048C283.073 73.127 282.962 72.9128 282.82 72.7623C282.692 72.6234 282.564 72.5279 282.433 72.4758C282.303 72.4237 282.16 72.3977 282.004 72.3977C281.648 72.3977 281.364 72.525 281.153 72.7797C280.941 73.0344 280.836 73.4034 280.836 73.8867C280.836 74.1588 280.871 74.3831 280.94 74.5596C281.009 74.7362 281.122 74.8881 281.279 75.0154C281.389 75.1052 281.513 75.1659 281.652 75.1978C281.791 75.2267 281.94 75.2412 282.099 75.2412C282.284 75.2412 282.484 75.2094 282.698 75.1457C282.912 75.0791 283.099 74.9923 283.258 74.8852C283.261 74.8418 283.264 74.7854 283.267 74.7159C283.273 74.6435 283.276 74.564 283.276 74.4771ZM279.955 73.9214C279.955 73.5886 280.008 73.2847 280.115 73.0098C280.225 72.7348 280.374 72.4975 280.562 72.2978C280.742 72.1068 280.96 71.9577 281.218 71.8507C281.478 71.7436 281.742 71.69 282.008 71.69C282.306 71.69 282.575 71.7407 282.815 71.842C283.059 71.9404 283.268 72.0836 283.445 72.2718C283.668 72.5091 283.84 72.8202 283.961 73.2051C284.086 73.5901 284.148 74.0763 284.148 74.6638C284.148 75.1992 284.087 75.7072 283.966 76.1876C283.847 76.6651 283.671 77.0616 283.436 77.3771C283.187 77.7128 282.888 77.969 282.538 78.1455C282.19 78.322 281.76 78.4103 281.248 78.4103C281.132 78.4103 281.009 78.4031 280.879 78.3886C280.749 78.377 280.627 78.3539 280.515 78.3192V77.49H280.558C280.63 77.5305 280.743 77.5696 280.897 77.6072C281.05 77.6448 281.206 77.6636 281.365 77.6636C281.933 77.6636 282.378 77.4769 282.703 77.1036C283.027 76.7302 283.21 76.1963 283.254 75.5017C283.022 75.658 282.801 75.7723 282.59 75.8446C282.381 75.917 282.154 75.9532 281.908 75.9532C281.668 75.9532 281.449 75.9271 281.253 75.875C281.056 75.8229 280.857 75.7216 280.658 75.5711C280.426 75.3946 280.251 75.1717 280.132 74.9026C280.014 74.6305 279.955 74.3035 279.955 73.9214ZM289.149 76.0617H288.381V78.2844H287.547V76.0617H284.691V75.15L287.582 71.8203H288.381V75.3671H289.149V76.0617ZM287.547 75.3671V72.8405L285.368 75.3671H287.547ZM291.146 78.2844H290.109V77.0472H291.146V78.2844ZM296.608 76.0617H295.839V78.2844H295.006V76.0617H292.149V75.15L295.04 71.8203H295.839V75.3671H296.608V76.0617ZM295.006 75.3671V72.8405L292.826 75.3671H295.006Z" fill="#8C99B2"/>
<rect width="52" height="25" transform="translate(267 36)" fill="#272A38"/>
<path d="M283.276 48.4771C283.276 48.0372 283.235 47.6798 283.154 47.4048C283.073 47.127 282.962 46.9128 282.82 46.7623C282.692 46.6234 282.564 46.5279 282.433 46.4758C282.303 46.4237 282.16 46.3977 282.004 46.3977C281.648 46.3977 281.364 46.525 281.153 46.7797C280.941 47.0344 280.836 47.4034 280.836 47.8867C280.836 48.1588 280.871 48.3831 280.94 48.5596C281.009 48.7362 281.122 48.8881 281.279 49.0154C281.389 49.1052 281.513 49.1659 281.652 49.1978C281.791 49.2267 281.94 49.2412 282.099 49.2412C282.284 49.2412 282.484 49.2094 282.698 49.1457C282.912 49.0791 283.099 48.9923 283.258 48.8852C283.261 48.8418 283.264 48.7854 283.267 48.7159C283.273 48.6435 283.276 48.564 283.276 48.4771ZM279.955 47.9214C279.955 47.5886 280.008 47.2847 280.115 47.0098C280.225 46.7348 280.374 46.4975 280.562 46.2978C280.742 46.1068 280.96 45.9577 281.218 45.8507C281.478 45.7436 281.742 45.69 282.008 45.69C282.306 45.69 282.575 45.7407 282.815 45.842C283.059 45.9404 283.268 46.0836 283.445 46.2718C283.668 46.5091 283.84 46.8202 283.961 47.2051C284.086 47.5901 284.148 48.0763 284.148 48.6638C284.148 49.1992 284.087 49.7072 283.966 50.1876C283.847 50.6651 283.671 51.0616 283.436 51.3771C283.187 51.7128 282.888 51.969 282.538 52.1455C282.19 52.322 281.76 52.4103 281.248 52.4103C281.132 52.4103 281.009 52.4031 280.879 52.3886C280.749 52.377 280.627 52.3539 280.515 52.3192V51.49H280.558C280.63 51.5305 280.743 51.5696 280.897 51.6072C281.05 51.6448 281.206 51.6636 281.365 51.6636C281.933 51.6636 282.378 51.4769 282.703 51.1036C283.027 50.7302 283.21 50.1963 283.254 49.5017C283.022 49.658 282.801 49.7723 282.59 49.8446C282.381 49.917 282.154 49.9532 281.908 49.9532C281.668 49.9532 281.449 49.9271 281.253 49.875C281.056 49.8229 280.857 49.7216 280.658 49.5711C280.426 49.3946 280.251 49.1717 280.132 48.9026C280.014 48.6305 279.955 48.3035 279.955 47.9214ZM289.149 50.0617H288.381V52.2844H287.547V50.0617H284.691V49.15L287.582 45.8203H288.381V49.3671H289.149V50.0617ZM287.547 49.3671V46.8405L285.368 49.3671H287.547ZM291.146 52.2844H290.109V51.0472H291.146V52.2844ZM296.608 50.0617H295.839V52.2844H295.006V50.0617H292.149V49.15L295.04 45.8203H295.839V49.3671H296.608V50.0617ZM295.006 49.3671V46.8405L292.826 49.3671H295.006Z" fill="#8C99B2"/>
<rect width="52" height="25" transform="translate(267 88)" fill="#272A38"/>
<path d="M284.157 101.05C284.157 102.211 283.988 103.063 283.649 103.607C283.313 104.148 282.794 104.419 282.09 104.419C281.378 104.419 280.856 104.143 280.523 103.59C280.19 103.037 280.024 102.193 280.024 101.059C280.024 99.8925 280.192 99.0402 280.528 98.5018C280.866 97.9606 281.387 97.69 282.09 97.69C282.802 97.69 283.325 97.9693 283.658 98.5279C283.99 99.0865 284.157 99.9272 284.157 101.05ZM283.045 103.021C283.129 102.807 283.189 102.536 283.223 102.209C283.258 101.882 283.276 101.496 283.276 101.05C283.276 100.607 283.258 100.222 283.223 99.8954C283.189 99.5684 283.128 99.2963 283.041 99.0792C282.954 98.8593 282.834 98.6929 282.681 98.58C282.53 98.4642 282.334 98.4063 282.09 98.4063C281.85 98.4063 281.652 98.4642 281.496 98.58C281.342 98.6929 281.221 98.8622 281.131 99.0879C281.044 99.3079 280.985 99.5857 280.953 99.9214C280.921 100.257 280.905 100.636 280.905 101.059C280.905 101.51 280.918 101.888 280.944 102.192C280.973 102.496 281.034 102.768 281.127 103.008C281.211 103.231 281.329 103.403 281.483 103.525C281.639 103.643 281.842 103.703 282.09 103.703C282.331 103.703 282.527 103.646 282.681 103.533C282.837 103.418 282.959 103.247 283.045 103.021ZM286.38 104.284H285.342V103.047H286.38V104.284ZM289.427 98.4367C289.271 98.4367 289.115 98.4555 288.958 98.4932C288.802 98.5308 288.649 98.58 288.498 98.6408C288.359 98.6987 288.238 98.7594 288.133 98.8231C288.032 98.8868 287.941 98.9461 287.86 99.0011H287.808V98.0851C287.996 97.9838 288.251 97.8926 288.572 97.8116C288.896 97.7277 289.204 97.6857 289.497 97.6857C289.789 97.6857 290.044 97.7161 290.261 97.7769C290.481 97.8347 290.679 97.9259 290.855 98.0504C291.046 98.1893 291.19 98.3571 291.285 98.5539C291.384 98.7507 291.433 98.9808 291.433 99.2442C291.433 99.6002 291.316 99.9128 291.081 100.182C290.847 100.451 290.566 100.622 290.239 100.694V100.755C290.375 100.781 290.52 100.826 290.673 100.89C290.829 100.953 290.974 101.047 291.107 101.172C291.24 101.296 291.349 101.457 291.433 101.654C291.517 101.848 291.559 102.085 291.559 102.366C291.559 102.658 291.508 102.927 291.407 103.173C291.308 103.416 291.168 103.632 290.986 103.82C290.798 104.017 290.57 104.166 290.304 104.267C290.038 104.368 289.735 104.419 289.397 104.419C289.073 104.419 288.751 104.38 288.433 104.302C288.115 104.224 287.847 104.13 287.63 104.02V103.104H287.691C287.873 103.237 288.118 103.364 288.424 103.486C288.731 103.607 289.038 103.668 289.345 103.668C289.521 103.668 289.698 103.64 289.874 103.585C290.054 103.528 290.203 103.435 290.321 103.308C290.437 103.18 290.526 103.04 290.586 102.887C290.647 102.733 290.677 102.539 290.677 102.305C290.677 102.07 290.643 101.878 290.573 101.727C290.507 101.577 290.413 101.458 290.291 101.371C290.17 101.285 290.025 101.225 289.857 101.193C289.692 101.159 289.513 101.141 289.319 101.141H288.95V100.421H289.236C289.627 100.421 289.944 100.328 290.187 100.143C290.433 99.9576 290.556 99.6885 290.556 99.3354C290.556 99.1733 290.524 99.0344 290.46 98.9186C290.397 98.7999 290.316 98.7059 290.217 98.6364C290.107 98.5612 289.986 98.5091 289.853 98.4801C289.719 98.4512 289.578 98.4367 289.427 98.4367Z" fill="#8C99B2"/>
<g clip-path="url(#clip0)">
<path d="M17.7013 21.8889C15.2563 21.8889 13.2559 19.8884 13.2559 17.4434C13.2559 14.9984 15.2563 12.9979 17.7013 12.9979C20.1463 12.9979 22.1468 14.9984 22.1468 17.4434C22.1468 19.8884 20.1463 21.8889 17.7013 21.8889Z" stroke="#0089FF" stroke-width="0.76208" stroke-miterlimit="10" stroke-linecap="round" stroke-linejoin="round"/>
<path d="M17.7013 15.4111V19.4756" stroke="#0089FF" stroke-width="0.76208" stroke-miterlimit="10" stroke-linecap="round" stroke-linejoin="round"/>
<path d="M15.6692 17.4434H19.7336" stroke="#0089FF" stroke-width="0.76208" stroke-miterlimit="10" stroke-linecap="round" stroke-linejoin="round"/>
</g>
<rect width="2" height="25" transform="translate(5 5)" fill="#0089FF"/>
<defs>
<clipPath id="clip0">
<rect width="10.1611" height="10.1611" fill="white" transform="translate(12.6208 12.3628)"/>
</clipPath>
</defs>
</svg>
