<svg xmlns="http://www.w3.org/2000/svg" viewBox="0 0 324 116.75"><defs><style>.a79b3ba0-1788-40a2-94e8-99c696228004{fill:#1b1e27;stroke:#3fa9f5;stroke-miterlimit:10;stroke-width:0.5px;stroke-dasharray:1.52;}.bb705e67-e515-403c-9104-0c1c16ab8f41,.bf5a40d0-421c-486c-8559-8fcdda278f5b{fill:#f4a321;}.aea32d04-999a-4766-bec6-5d159338cb67,.bb705e67-e515-403c-9104-0c1c16ab8f41{fill-rule:evenodd;}.abc65446-e97c-41b0-a3cd-2855c9a542ef,.aea32d04-999a-4766-bec6-5d159338cb67{fill:#3fa9f5;}.bcca4e9d-0ba1-46f4-8ac2-a5bf6e636e46{fill:#22252e;}.a06fe22c-bd31-4306-a2ca-14b5a15e83e6{fill:#a2e2ff;opacity:0.25;}</style></defs><title>line-diagram</title><g id="b6b61b26-e4b3-4b69-9f09-24ed3aa9913e" data-name="1"><path class="a79b3ba0-1788-40a2-94e8-99c696228004" d="M34.86,28.79a28.95,28.95,0,1,0,29,29A28.95,28.95,0,0,0,34.86,28.79Z"/><path class="bb705e67-e515-403c-9104-0c1c16ab8f41" d="M34.52,49.7l-.65,5.07,4.79.13L28.37,69.05l2.34-9.67-4.1.28,8.46-14.32-.55,4.36Zm-.9-.12-5.35,9.06,3.61-.26-1.56,6.43,6.59-9.05-4.06-.11Z"/><path class="aea32d04-999a-4766-bec6-5d159338cb67" d="M42.6,48.42l-.31,2.39,2.26.06L39.7,57.53,40.8,53l-1.93.13,4-6.74-.26,2.05Zm-.43-.06-2.52,4.27,1.71-.12-.74,3,3.1-4.27-1.91-.05Z"/></g><g id="ab1fa563-e007-48ea-a934-8cf6353a4ab7" data-name="Prew"><path class="a79b3ba0-1788-40a2-94e8-99c696228004" d="M100.81,28.75a28.95,28.95,0,1,0,28.94,29A28.95,28.95,0,0,0,100.81,28.75Z"/><path class="abc65446-e97c-41b0-a3cd-2855c9a542ef" d="M108.34,65.11h-.47v-.87a2.31,2.31,0,0,0-.06-.52c-.51-1.69-1-3.38-1.55-5.06a6.75,6.75,0,0,1-.45-2.63c0-.35-.11-.47-.45-.47h-3.52c-.37,0-.49.12-.49.5v.8c-.43.06-.55.13-.57.34s.07.33.43.45c-.2.67-.41,1.34-.61,2a.15.15,0,0,1-.07-.12c0-.41,0-.82,0-1.23s-.12-.48-.47-.48h-2.6a.38.38,0,0,0-.41.42v.35A3.38,3.38,0,0,1,96.82,60c-.2.58-.36,1.17-.54,1.76h0a1,1,0,0,1,0-.17v-.46c0-.35-.11-.46-.46-.46H94.26c-.36,0-.47.11-.46.48a3.11,3.11,0,0,1-.15,1c-.22.66-.42,1.33-.62,2a7.25,7.25,0,0,0-.16.81c0,.1-.05.12-.14.12h-.58a.34.34,0,0,0-.3.34.35.35,0,0,0,.26.37l.2,0h16c.26,0,.42-.14.42-.37S108.6,65.12,108.34,65.11ZM95.74,63.4a1.94,1.94,0,0,1-.12.39,2.56,2.56,0,0,0-.15,1.1c0,.14,0,.2-.18.2s-.51,0-.76,0h-.77c-.11,0-.16,0-.14-.15a2.56,2.56,0,0,1,0-.27c.26-.86.53-1.72.79-2.58a3.09,3.09,0,0,0,.09-.53c0-.11,0-.17.16-.16h.63a.2.2,0,0,1,.12.1c.1.53.2,1,.29,1.57A.92.92,0,0,1,95.74,63.4Zm3.7,0a.17.17,0,0,1-.2.15c-.36,0-.52.13-.53.37s.16.36.52.39l.07,0V65c0,.13-.1.1-.18.1H96.59c-.35,0-.33,0-.35-.34a3.38,3.38,0,0,1,.27-1.21c.38-1.29.8-2.58,1.17-3.88a3,3,0,0,0,.07-.85c0-.16,0-.22.21-.22h1.62c.09,0,.18,0,.17.13a10.51,10.51,0,0,0,.31,2.43.77.77,0,0,1,0,.26C99.85,62.07,99.64,62.74,99.44,63.41Zm7.38,1.69h-6.55c-.23,0-.23,0-.23-.23v-.56h4.65a.4.4,0,0,0,.43-.26.37.37,0,0,0-.38-.48h-4.55a.9.9,0,0,1,0-.19c.57-1.87,1.15-3.73,1.71-5.6a.2.2,0,0,1,.23-.17h1.51c.27,0,.43-.14.43-.37s-.17-.37-.44-.37H102.1v-.56h3c0,.16,0,.32,0,.47a2.8,2.8,0,0,0,.15,1c.62,2,1.25,4.06,1.86,6.09a3.59,3.59,0,0,1,0,.93C107.14,65.15,107.17,65.1,106.82,65.1Z"/><path class="abc65446-e97c-41b0-a3cd-2855c9a542ef" d="M95.67,54.31a2.83,2.83,0,0,0,3-1l.12-.16a2.43,2.43,0,0,0,2.56.33l.1.24A2.42,2.42,0,0,0,104.09,55a2.4,2.4,0,0,0,.32-4.59.24.24,0,0,1-.19-.22,2.38,2.38,0,0,0-3.43-1.58.23.23,0,0,1-.33,0,2.37,2.37,0,0,0-3.4,0,.5.5,0,0,1-.46.19,2.84,2.84,0,0,0-.93,5.57Zm.74-4.85a2,2,0,0,1,1.72.95.61.61,0,0,0,.25.23.32.32,0,0,0,.41-.11.36.36,0,0,0,0-.45,2.87,2.87,0,0,0-1-1L97.68,49a1.57,1.57,0,0,1,2.35.2,2.42,2.42,0,0,0-.49,1.08,3.41,3.41,0,0,0-.05.55.38.38,0,0,0,.4.41c.22,0,.35-.18.35-.44a1.66,1.66,0,0,1,1.54-1.73,1.64,1.64,0,0,1,1.67,1.15l-.4.07a2.26,2.26,0,0,0-1,.45.41.41,0,0,0-.08.62c.16.17.38.15.59,0a1.4,1.4,0,0,1,1-.34,1.66,1.66,0,1,1-1.6,2.31,2.8,2.8,0,0,1-.12-.5c0-.23-.1-.36-.29-.41s-.26,0-.44.2a1.47,1.47,0,0,1-.63.3,1.59,1.59,0,0,1-1.65-.69L98.8,52a.36.36,0,0,0-.47-.1.34.34,0,0,0-.16.46.27.27,0,0,1,0,.29,2.09,2.09,0,1,1-1.73-3.23Z"/><path class="abc65446-e97c-41b0-a3cd-2855c9a542ef" d="M103.67,59.8A1.32,1.32,0,1,0,105,61.13,1.32,1.32,0,0,0,103.67,59.8Zm0,1.9a.58.58,0,0,1-.57-.59.57.57,0,0,1,.56-.57.58.58,0,0,1,0,1.16Z"/><path class="abc65446-e97c-41b0-a3cd-2855c9a542ef" d="M96.39,53.23c.31,0,.48-.12.49-.36s-.14-.38-.47-.39a1,1,0,0,1-.93-.86.39.39,0,0,0-.42-.36.4.4,0,0,0-.32.46A1.71,1.71,0,0,0,96.39,53.23Z"/><rect class="bcca4e9d-0ba1-46f4-8ac2-a5bf6e636e46" x="144.14" y="17.91" width="173.23" height="20.09" rx="10.04"/><rect class="a06fe22c-bd31-4306-a2ca-14b5a15e83e6" x="188.78" y="26.31" width="102.25" height="3.19" rx="1.59"/><rect class="abc65446-e97c-41b0-a3cd-2855c9a542ef" x="171.73" y="26.31" width="102.25" height="3.19" rx="1.59"/><rect class="bcca4e9d-0ba1-46f4-8ac2-a5bf6e636e46" x="144.58" y="46.69" width="172.79" height="20.09" rx="10.04"/><rect class="a06fe22c-bd31-4306-a2ca-14b5a15e83e6" x="188.78" y="55.09" width="102.25" height="3.19" rx="1.59"/><rect class="bf5a40d0-421c-486c-8559-8fcdda278f5b" x="171.73" y="55.09" width="75" height="3.19" rx="1.59"/><rect class="bcca4e9d-0ba1-46f4-8ac2-a5bf6e636e46" x="143.27" y="77.14" width="174.11" height="20.09" rx="10.04"/><rect class="a06fe22c-bd31-4306-a2ca-14b5a15e83e6" x="188.78" y="85.55" width="102.25" height="3.19" rx="1.59"/><rect class="abc65446-e97c-41b0-a3cd-2855c9a542ef" x="171.73" y="85.55" width="51.98" height="3.19" rx="1.59"/></g></svg>