<svg id="a81cd6da-4716-4a9f-ae9c-80db1ab2e6cf" data-name="1" xmlns="http://www.w3.org/2000/svg" viewBox="0 0 324 116.75"><defs><style>.b6affa6e-e072-463b-9517-eb5369352fa0{fill:#1a1d26;stroke:#fff;stroke-miterlimit:10;stroke-width:0.75px;}.b6b8a7ae-f6d7-48dc-b675-a2a1f8cc14d6,.e1a1781f-a52d-43ba-a192-1c19dc88e21e,.e64be10f-2908-41dc-a15c-04546c0b1d1a{fill:#fff;}.a65f43df-3bfc-432f-884d-157ab9799758{fill:#3fa9f5;}.f40665ca-fe11-47da-8684-d9beb2eff46a{fill:#22252e;}.b6b8a7ae-f6d7-48dc-b675-a2a1f8cc14d6{font-size:7.52px;font-family:Tahoma;}.e64be10f-2908-41dc-a15c-04546c0b1d1a{font-size:7px;font-family:Arial-ItalicMT, Arial;font-style:italic;}</style></defs><title>Prew</title><circle class="b6affa6e-e072-463b-9517-eb5369352fa0" cx="162.38" cy="59" r="46.5"/><path class="e1a1781f-a52d-43ba-a192-1c19dc88e21e" d="M181.09,48.75l-8-8a2.43,2.43,0,0,0-3.43,0L144.35,66a2.44,2.44,0,0,0,0,3.44l8,8a2.44,2.44,0,0,0,3.44,0l25.27-25.28A2.42,2.42,0,0,0,181.09,48.75Zm-.58,2.85L155.23,76.88a1.59,1.59,0,0,1-1.13.47,1.63,1.63,0,0,1-1.14-.47l-8-8a1.59,1.59,0,0,1,0-2.26L170.21,41.3a1.55,1.55,0,0,1,1.13-.47,1.59,1.59,0,0,1,1.14.47l8,8A1.6,1.6,0,0,1,180.51,51.6Z"/><rect class="e1a1781f-a52d-43ba-a192-1c19dc88e21e" x="147.73" y="65.59" width="2.2" height="2.34" rx="0.42" transform="translate(-3.61 124.79) rotate(-45)"/><rect class="e1a1781f-a52d-43ba-a192-1c19dc88e21e" x="149.7" y="63.62" width="2.2" height="2.34" rx="0.42" transform="translate(-1.65 125.61) rotate(-45)"/><path class="a65f43df-3bfc-432f-884d-157ab9799758" d="M156.61,65.71h0m-3.89-4.32a.39.39,0,0,0-.3.13l-1,1a.42.42,0,0,0,0,.59l1.07,1.07a.42.42,0,0,0,.29.12.42.42,0,0,0,.3-.12l1-1a.42.42,0,0,0,0-.59L153,61.52a.39.39,0,0,0-.29-.13Z"/><rect class="e1a1781f-a52d-43ba-a192-1c19dc88e21e" x="153.63" y="59.69" width="2.2" height="2.34" rx="0.42" transform="translate(2.28 127.24) rotate(-45)"/><rect class="e1a1781f-a52d-43ba-a192-1c19dc88e21e" x="155.6" y="57.72" width="2.2" height="2.34" rx="0.42" transform="translate(4.25 128.05) rotate(-45)"/><rect class="e1a1781f-a52d-43ba-a192-1c19dc88e21e" x="157.56" y="55.76" width="2.2" height="2.34" rx="0.42" transform="translate(6.22 128.87) rotate(-45)"/><rect class="e1a1781f-a52d-43ba-a192-1c19dc88e21e" x="159.53" y="53.79" width="2.2" height="2.34" rx="0.42" transform="translate(8.18 129.68) rotate(-45)"/><rect class="e1a1781f-a52d-43ba-a192-1c19dc88e21e" x="161.5" y="51.83" width="2.2" height="2.34" rx="0.42" transform="translate(10.15 130.49) rotate(-45)"/><rect class="e1a1781f-a52d-43ba-a192-1c19dc88e21e" x="163.46" y="49.86" width="2.2" height="2.34" rx="0.42" transform="translate(12.12 131.31) rotate(-45)"/><rect class="e1a1781f-a52d-43ba-a192-1c19dc88e21e" x="165.43" y="47.89" width="2.2" height="2.34" rx="0.42" transform="translate(14.08 132.13) rotate(-45)"/><rect class="e1a1781f-a52d-43ba-a192-1c19dc88e21e" x="167.39" y="45.93" width="2.2" height="2.34" rx="0.42" transform="translate(16.05 132.94) rotate(-45)"/><rect class="e1a1781f-a52d-43ba-a192-1c19dc88e21e" x="169.36" y="43.96" width="2.2" height="2.34" rx="0.42" transform="translate(18.01 133.75) rotate(-45)"/><rect class="e1a1781f-a52d-43ba-a192-1c19dc88e21e" x="148.85" y="68.74" width="2.2" height="2.34" rx="0.42" transform="translate(-5.51 126.51) rotate(-45)"/><rect class="e1a1781f-a52d-43ba-a192-1c19dc88e21e" x="150.81" y="66.77" width="2.2" height="2.34" rx="0.42" transform="translate(-3.55 127.32) rotate(-45)"/><path class="a65f43df-3bfc-432f-884d-157ab9799758" d="M157.73,68.85h0m-3.9-4.31a.4.4,0,0,0-.29.12l-1,1a.42.42,0,0,0,0,.59l1.06,1.07a.44.44,0,0,0,.3.12.42.42,0,0,0,.29-.12l1-1a.42.42,0,0,0,0-.59l-1.07-1.07a.4.4,0,0,0-.29-.12Z"/><path class="a65f43df-3bfc-432f-884d-157ab9799758" d="M155.8,62.58a.42.42,0,0,0-.3.12l-1,1a.41.41,0,0,0,0,.58l1.07,1.07a.42.42,0,0,0,.29.12.42.42,0,0,0,.3-.12l1-1a.42.42,0,0,0,0-.59l-1.07-1.06a.42.42,0,0,0-.29-.12Z"/><rect class="e1a1781f-a52d-43ba-a192-1c19dc88e21e" x="156.71" y="60.87" width="2.2" height="2.34" rx="0.42" transform="translate(2.35 129.76) rotate(-45)"/><rect class="e1a1781f-a52d-43ba-a192-1c19dc88e21e" x="158.68" y="58.91" width="2.2" height="2.34" rx="0.42" transform="translate(4.32 130.58) rotate(-45)"/><rect class="e1a1781f-a52d-43ba-a192-1c19dc88e21e" x="160.64" y="56.94" width="2.2" height="2.34" rx="0.42" transform="translate(6.28 131.39) rotate(-45)"/><rect class="e1a1781f-a52d-43ba-a192-1c19dc88e21e" x="162.61" y="54.98" width="2.2" height="2.34" rx="0.42" transform="translate(8.25 132.2) rotate(-45)"/><rect class="e1a1781f-a52d-43ba-a192-1c19dc88e21e" x="164.58" y="53.01" width="2.2" height="2.34" rx="0.42" transform="translate(10.22 133.02) rotate(-45)"/><rect class="e1a1781f-a52d-43ba-a192-1c19dc88e21e" x="166.54" y="51.04" width="2.2" height="2.34" rx="0.42" transform="translate(12.18 133.84) rotate(-45)"/><rect class="e1a1781f-a52d-43ba-a192-1c19dc88e21e" x="168.51" y="49.08" width="2.2" height="2.34" rx="0.42" transform="translate(14.15 134.65) rotate(-45)"/><path class="a65f43df-3bfc-432f-884d-157ab9799758" d="M175.42,51.16h0m-3.89-4.31a.42.42,0,0,0-.3.12l-1,1a.41.41,0,0,0,0,.58l1.07,1.07a.42.42,0,0,0,.29.12.42.42,0,0,0,.3-.12l1-1a.42.42,0,0,0,0-.59L171.82,47a.42.42,0,0,0-.29-.12Z"/><rect class="e1a1781f-a52d-43ba-a192-1c19dc88e21e" x="172.44" y="45.14" width="2.2" height="2.34" rx="0.42" transform="translate(18.08 136.28) rotate(-45)"/><rect class="e1a1781f-a52d-43ba-a192-1c19dc88e21e" x="150.85" y="70.74" width="2.2" height="2.34" rx="0.42" transform="translate(-6.34 128.51) rotate(-45)"/><rect class="e1a1781f-a52d-43ba-a192-1c19dc88e21e" x="152.82" y="68.78" width="2.2" height="2.34" rx="0.42" transform="translate(-4.38 129.32) rotate(-45)"/><rect class="e1a1781f-a52d-43ba-a192-1c19dc88e21e" x="154.78" y="66.81" width="2.2" height="2.34" rx="0.42" transform="translate(-2.41 130.14) rotate(-45)"/><rect class="e1a1781f-a52d-43ba-a192-1c19dc88e21e" x="156.75" y="64.84" width="2.2" height="2.34" rx="0.42" transform="translate(-0.44 130.95) rotate(-45)"/><rect class="e1a1781f-a52d-43ba-a192-1c19dc88e21e" x="158.71" y="62.88" width="2.2" height="2.34" rx="0.42" transform="translate(1.52 131.76) rotate(-45)"/><rect class="e1a1781f-a52d-43ba-a192-1c19dc88e21e" x="160.68" y="60.91" width="2.2" height="2.34" rx="0.42" transform="translate(3.49 132.58) rotate(-45)"/><rect class="e1a1781f-a52d-43ba-a192-1c19dc88e21e" x="162.65" y="58.94" width="2.2" height="2.34" rx="0.42" transform="translate(5.45 133.39) rotate(-45)"/><rect class="e1a1781f-a52d-43ba-a192-1c19dc88e21e" x="164.61" y="56.98" width="2.2" height="2.34" rx="0.42" transform="translate(7.42 134.21) rotate(-45)"/><rect class="e1a1781f-a52d-43ba-a192-1c19dc88e21e" x="166.58" y="55.01" width="2.2" height="2.34" rx="0.42" transform="translate(9.39 135.02) rotate(-45)"/><rect class="e1a1781f-a52d-43ba-a192-1c19dc88e21e" x="168.55" y="53.05" width="2.2" height="2.34" rx="0.42" transform="translate(11.35 135.84) rotate(-45)"/><rect class="e1a1781f-a52d-43ba-a192-1c19dc88e21e" x="170.51" y="51.08" width="2.2" height="2.34" rx="0.42" transform="translate(13.32 136.65) rotate(-45)"/><rect class="e1a1781f-a52d-43ba-a192-1c19dc88e21e" x="172.48" y="49.11" width="2.2" height="2.34" rx="0.42" transform="translate(15.29 137.47) rotate(-45)"/><rect class="e1a1781f-a52d-43ba-a192-1c19dc88e21e" x="174.44" y="47.15" width="2.2" height="2.34" rx="0.42" transform="translate(17.25 138.28) rotate(-45)"/><rect class="e1a1781f-a52d-43ba-a192-1c19dc88e21e" x="154.9" y="70.86" width="2.2" height="2.34" rx="0.42" transform="translate(-5.24 131.41) rotate(-45)"/><rect class="e1a1781f-a52d-43ba-a192-1c19dc88e21e" x="156.86" y="68.89" width="2.2" height="2.34" rx="0.42" transform="translate(-3.27 132.22) rotate(-45)"/><rect class="e1a1781f-a52d-43ba-a192-1c19dc88e21e" x="158.83" y="66.93" width="2.2" height="2.34" rx="0.42" transform="translate(-1.31 133.03) rotate(-45)"/><path class="a65f43df-3bfc-432f-884d-157ab9799758" d="M173.55,61.2h0m-3.89-4.31a.44.44,0,0,0-.3.12l-8.61,8.61a.42.42,0,0,0,0,.59l1.07,1.07a.42.42,0,0,0,.29.12.4.4,0,0,0,.29-.12L171,58.66a.41.41,0,0,0,0-.58L170,57a.42.42,0,0,0-.29-.12Z"/><rect class="e1a1781f-a52d-43ba-a192-1c19dc88e21e" x="170.63" y="55.13" width="2.2" height="2.34" rx="0.42" transform="translate(10.49 137.92) rotate(-45)"/><rect class="e1a1781f-a52d-43ba-a192-1c19dc88e21e" x="172.59" y="53.16" width="2.2" height="2.34" rx="0.42" transform="translate(12.46 138.73) rotate(-45)"/><rect class="e1a1781f-a52d-43ba-a192-1c19dc88e21e" x="174.56" y="51.2" width="2.2" height="2.34" rx="0.42" transform="translate(14.42 139.55) rotate(-45)"/><path class="e1a1781f-a52d-43ba-a192-1c19dc88e21e" d="M150.15,48.76l5.56,4.64.88-.87-5.66-4.72c-1-.85-2.15-2-1.9-3.12a2.22,2.22,0,0,1,2.18-1.46h0a6.83,6.83,0,0,1,3.12,1.06,4.33,4.33,0,0,0,2.81.77,3.51,3.51,0,0,0,1.62-.89,7.26,7.26,0,0,0,2.3-4.37.61.61,0,0,0-1.21-.17A6,6,0,0,1,158,43.25a2.18,2.18,0,0,1-1,.6,3.3,3.3,0,0,1-2-.64,7.91,7.91,0,0,0-3.71-1.2h0a3.43,3.43,0,0,0-3.38,2.42C147.44,46.23,148.86,47.69,150.15,48.76Z"/><path class="f40665ca-fe11-47da-8684-d9beb2eff46a" d="M110,62.34H21a10,10,0,0,0,0,20.09H115.4A52.2,52.2,0,0,1,110,62.34Z"/><path class="f40665ca-fe11-47da-8684-d9beb2eff46a" d="M303,62.34H214.77a52.2,52.2,0,0,1-5.4,20.09H303a10,10,0,0,0,0-20.09Z"/><path class="f40665ca-fe11-47da-8684-d9beb2eff46a" d="M115.4,35.57H21a10,10,0,0,0,0,20.09h89A52.2,52.2,0,0,1,115.4,35.57Z"/><path class="f40665ca-fe11-47da-8684-d9beb2eff46a" d="M303,35.57H209.37a52.2,52.2,0,0,1,5.4,20.09H303a10,10,0,0,0,0-20.09Z"/><text class="b6b8a7ae-f6d7-48dc-b675-a2a1f8cc14d6" transform="translate(36.43 47.29)">Верхний предел </text><text class="b6b8a7ae-f6d7-48dc-b675-a2a1f8cc14d6" transform="translate(36.43 74.06)">Нижний предел </text><text class="e64be10f-2908-41dc-a15c-04546c0b1d1a" transform="translate(227.03 47.29)">Введите значение</text><text class="e64be10f-2908-41dc-a15c-04546c0b1d1a" transform="translate(227.03 74.06)">Введите значение</text></svg>