<svg width="324" height="117" viewBox="0 0 324 117" fill="none" xmlns="http://www.w3.org/2000/svg">
<g opacity="0.62">
<path opacity="0.62" d="M131.713 75.9453L131.968 75.3706L132.095 75.0979L132.242 74.8252L132.525 74.3187C132.633 74.1531 132.73 73.9973 132.838 73.8512C133.017 73.5702 133.213 73.3003 133.425 73.0428C133.601 72.7993 133.796 72.5947 133.943 72.4194L134.285 72.0298L134.422 71.8934L130.667 70.9194L130.511 71.0655L130.12 71.5136C129.914 71.7331 129.722 71.964 129.543 72.2051C129.337 72.4778 129.083 72.7798 128.868 73.1207L128.516 73.6564L128.203 74.231L128.037 74.533L127.89 74.8447L127.607 75.4875C127.256 76.4059 127.022 77.3648 126.912 78.3413C126.836 79.2812 126.879 80.227 127.039 81.1562C127.201 81.9919 127.46 82.8058 127.812 83.5815L128.037 84.0782L128.291 84.5263L128.506 84.9159C128.571 85.0305 128.643 85.1411 128.721 85.247L129.024 85.7048L129.132 85.8704L133.043 85.1302L132.946 84.9841L132.682 84.575L132.486 84.2828L132.3 83.9321L132.075 83.5425L131.88 83.0945C131.565 82.4107 131.335 81.6911 131.195 80.9517C131.052 80.1286 131.013 79.291 131.078 78.4582C131.189 77.5985 131.403 76.7549 131.713 75.9453Z" fill="#0089FF"/>
<path opacity="0.62" d="M141.727 90.8768C141.58 90.8087 141.375 90.7113 141.15 90.5846L140.358 90.1658L139.468 89.6593C138.901 89.3087 138.343 88.9483 137.972 88.6853L137.512 88.3249L137.346 88.1983L131.479 90.1463L131.303 90.01L130.736 89.5619L130.198 89.0847C130.022 88.9191 129.817 88.7632 129.65 88.5879L129.112 88.0814L128.848 87.8185L128.604 87.536L128.105 86.9711L127.655 86.3867L127.421 86.1334L127.215 85.8315L126.805 85.1594L126.453 84.5166L126.277 84.1854L126.13 83.8543C126.032 83.6302 125.925 83.416 125.837 83.1919C125.664 82.7471 125.52 82.2916 125.406 81.8283C125.406 81.6043 125.279 81.3706 125.25 81.1465L125.142 80.455C125.04 79.5344 125.059 78.6043 125.201 77.6888C125.272 77.2522 125.367 76.8198 125.485 76.3934C125.543 76.1694 125.641 75.9454 125.71 75.7311C125.778 75.5121 125.86 75.2975 125.954 75.0882C126.687 73.4291 127.714 71.9148 128.985 70.6175C129.891 69.6935 130.872 68.8464 131.919 68.0851L135.429 69.3221L135.664 69.1565L136.3 68.7085L137.277 68.0949L138.421 67.4228C138.842 67.2085 139.243 66.9748 139.634 66.78L140.739 66.2443L141.863 65.7475L141.345 65.4261C143.047 64.7082 144.791 64.0935 146.567 63.5852L146.997 63.4586L147.447 63.3417L148.347 63.0982L149.324 62.8742L150.302 62.6599L151.28 62.4651L151.769 62.3677L152.268 62.2801L153.245 62.1048C153.578 62.0463 153.92 62.0073 154.223 61.9586C155.573 61.7541 156.961 61.608 158.33 61.4911L160.384 61.3548H161.361H162.339C164.75 61.311 167.162 61.3891 169.566 61.5885C170.094 61.5885 170.592 61.6762 171.062 61.7346L172.401 61.8905C172.822 61.8905 173.203 62.0073 173.565 62.056L174.543 62.2022L175.902 62.4457L176.371 62.5431L176.802 61.9684L176.313 61.871L174.914 61.6275L173.936 61.4619C173.565 61.4619 173.164 61.345 172.734 61.2963L171.355 61.1307C170.866 61.0723 170.377 61.0333 169.8 60.9846C167.316 60.7755 164.822 60.6975 162.33 60.7509C161.987 60.7509 161.635 60.7509 161.293 60.7509H160.247L158.047 60.8775C156.629 61.0041 155.191 61.1405 153.783 61.3548L152.737 61.5106L151.7 61.6957L151.202 61.7833L150.693 61.8807L149.715 62.0853L148.738 62.3093C148.415 62.3872 148.082 62.4554 147.76 62.5431L146.831 62.7866L146.361 62.9034L145.912 63.0398C144.08 63.566 142.28 64.2002 140.524 64.9391L137.59 63.108L136.192 63.7313L134.882 64.3742C134.403 64.6079 133.904 64.8807 133.434 65.1436C132.965 65.4066 132.506 65.6891 132.066 65.9423L130.941 66.6533C130.618 66.8676 130.374 67.0624 130.188 67.1891L129.905 67.3936L130.882 67.7345C129.817 68.5207 128.82 69.3938 127.9 70.3448C126.596 71.6818 125.546 73.2426 124.8 74.9519C124.698 75.1667 124.61 75.388 124.536 75.6142C124.468 75.8382 124.37 76.0622 124.311 76.2863C124.185 76.744 124.087 77.2092 124.018 77.6791C123.866 78.6198 123.847 79.577 123.959 80.5232L124.067 81.2439C124.067 81.4777 124.174 81.7115 124.223 81.9452C124.344 82.4216 124.494 82.8901 124.673 83.3478C124.761 83.5815 124.869 83.8056 124.976 84.0393L125.123 84.3705L125.309 84.7114C125.436 84.9257 125.553 85.1497 125.67 85.364L126.101 86.0068L126.306 86.3282C126.384 86.4256 126.463 86.5328 126.551 86.6302L127.01 87.2438L127.528 87.8185L127.734 88.0814L128.008 88.3542L128.545 88.8996C128.721 89.0749 128.927 89.2405 129.112 89.4061C129.298 89.5717 129.474 89.747 129.67 89.9028L130.247 90.3606L130.433 90.5067L129.455 90.8476L129.689 91.0035L130.296 91.4418C130.785 91.8119 131.508 92.2794 132.251 92.7372L133.366 93.3898L134.344 93.9449C134.637 94.1105 134.911 94.2372 135.087 94.3248L135.38 94.4612L136.28 93.9742L137.033 93.5748L141.922 90.945L141.727 90.8768Z" fill="#0089FF"/>
<path opacity="0.62" d="M205.961 85.6854L205.755 86.0458L205.08 87.0198C204.317 88.0662 203.463 89.0439 202.528 89.9418L199.947 89.2307C199.175 89.9452 198.366 90.6182 197.522 91.2469C197.18 91.4904 196.857 91.7339 196.544 91.958L195.635 92.5521C195.371 92.7274 195.116 92.8638 194.95 92.9612L194.696 93.117L196.906 94.091C196.495 94.3248 196.075 94.5683 195.635 94.802C194.979 95.1624 194.266 95.5131 193.542 95.8637C193.18 96.039 192.799 96.1949 192.418 96.3702L191.85 96.6234L191.254 96.8572C189.689 97.5195 187.968 98.1039 186.208 98.6494L184.869 99.039L183.5 99.4091L182.815 99.5844L182.121 99.75L180.723 100.062C179.745 100.256 178.855 100.451 177.906 100.607C176.958 100.763 176.019 100.909 175.09 101.045C171.634 101.507 168.153 101.754 164.667 101.786C162.134 101.786 159.953 101.717 158.262 101.61L158.408 101.036C159.171 101.036 159.934 101.123 160.716 101.143H161.528H162.339C162.877 101.143 163.415 101.143 163.953 101.143C165.019 101.143 166.075 101.143 167.092 101.075C168.109 101.006 169.047 100.977 170.025 100.919C170.494 100.919 170.934 100.841 171.374 100.802L172.616 100.685C173.418 100.588 174.152 100.51 174.787 100.422L176.44 100.179L177.858 99.935L176.625 98.289C179.18 97.834 181.704 97.2257 184.184 96.4676C185.651 96.0001 187.118 95.4936 188.516 94.8897C188.878 94.7533 189.21 94.5878 189.552 94.4417C189.895 94.2956 190.247 94.1397 190.53 93.9741L191.508 93.4871L192.486 92.9709C193.682 92.323 194.832 91.5941 195.928 90.7892L196.319 90.5067L196.681 90.2145C196.916 90.0197 197.17 89.8346 197.395 89.6398C197.835 89.2405 198.285 88.8606 198.666 88.4613C199.382 87.7416 200.037 86.9629 200.622 86.1334C201.107 85.4456 201.529 84.7153 201.883 83.9516L202.118 83.4549C202.196 83.2893 202.235 83.1237 202.294 82.9679C202.406 82.6719 202.501 82.3694 202.577 82.0621C202.646 81.7796 202.724 81.5166 202.763 81.2634C202.802 81.0101 202.841 80.7959 202.871 80.5913C202.888 80.4067 202.888 80.2208 202.871 80.0361C202.871 79.8803 202.871 79.7439 202.871 79.6368L203.027 79.3154H202.049C202.049 79.3154 202.049 78.994 202.049 78.4388C202.049 78.1563 201.961 77.8154 201.912 77.4648C201.912 77.27 201.815 77.0654 201.766 76.8512C201.72 76.6199 201.657 76.3921 201.58 76.1693C201.218 75.0449 200.694 73.9786 200.025 73.0038C199.159 71.7331 198.13 70.5805 196.964 69.5753C195.656 68.4218 194.238 67.3975 192.73 66.517C191.263 65.6529 189.741 64.885 188.174 64.2183L187.118 63.7313H186.942L187.509 63.3515C187.509 63.3515 187.206 63.2248 186.727 63.0593C186.247 62.8937 185.631 62.6502 184.966 62.4456C184.644 62.3385 184.321 62.2216 183.989 62.134L183.128 61.8807L182.522 61.6957L182.287 61.6372L179.451 64.3352C179.518 64.3456 179.583 64.3619 179.647 64.3839L180.165 64.5397L180.889 64.754L181.71 65.017C182.268 65.1923 182.796 65.3969 183.197 65.543C183.597 65.6891 183.861 65.7865 183.861 65.7865L185.426 64.7053L185.602 64.7735C185.905 64.9001 186.247 65.0267 186.58 65.1728C188.047 65.7933 189.471 66.5091 190.843 67.3157C192.233 68.1442 193.542 69.0996 194.755 70.1695C195.822 71.1137 196.771 72.1831 197.58 73.3545C198.196 74.2575 198.683 75.2408 199.028 76.2765C199.097 76.4876 199.156 76.7022 199.204 76.9193C199.253 77.1239 199.311 77.3089 199.341 77.494C199.341 77.8544 199.448 78.1758 199.468 78.468V79.2959H201.707V79.6271V80.0167C201.707 80.1725 201.707 80.3478 201.707 80.5524C201.707 80.7569 201.639 80.9712 201.609 81.205C201.58 81.4387 201.482 81.7017 201.423 81.9842C201.347 82.2786 201.252 82.5681 201.14 82.851C201.096 83.0139 201.041 83.1734 200.974 83.3283C200.895 83.4841 200.827 83.6497 200.749 83.8153C200.402 84.5532 199.993 85.2603 199.526 85.9289C198.94 86.7361 198.286 87.492 197.571 88.1886C197.199 88.5684 196.759 88.9385 196.339 89.3184C196.124 89.5132 195.879 89.6983 195.644 89.8833L195.292 90.1658C195.175 90.2632 195.038 90.3508 194.911 90.4385C193.849 91.2173 192.735 91.9234 191.577 92.5521L190.657 93.0488L189.68 93.5261L188.702 93.9839L187.724 94.4124C186.365 94.9871 184.937 95.4838 183.519 95.9416C181.116 96.6788 178.67 97.2708 176.195 97.7143L174.875 95.7663L173.751 95.9514L172.44 96.1462L170.729 96.3507L169.751 96.4481C169.409 96.4481 169.057 96.5163 168.685 96.5358C167.952 96.5358 167.18 96.6429 166.368 96.6624C165.556 96.6819 164.725 96.6624 163.865 96.7208H161.958H161.313C158.209 96.622 155.118 96.2964 152.062 95.7468L150.419 95.4157L149.178 95.1235L148.395 94.9287L148.122 94.8507L144.024 98.7955L144.376 98.8929L145.354 99.1461L146.919 99.5065L148.962 99.9156L147.701 101.717C146.205 101.435 144.445 101.065 142.538 100.558C139.38 99.7455 136.293 98.6804 133.307 97.3734C130.314 96.0951 127.487 94.4599 124.888 92.5034L124.008 91.8021L123.187 91.0034L122.786 90.643L122.414 90.2729C122.17 90.0197 121.916 89.7762 121.691 89.5327C121.251 89.0262 120.791 88.5587 120.429 88.0327C120.051 87.5514 119.699 87.0507 119.373 86.5328C118.294 84.8324 117.587 82.9238 117.3 80.9322C117.135 79.5899 117.175 78.2304 117.418 76.8998C117.535 76.4128 117.633 76.033 117.691 75.7798C117.718 75.6773 117.751 75.5765 117.789 75.4778V75.3804L116.606 75.283V75.3804C116.606 75.4486 116.537 75.5557 116.508 75.6823C116.44 75.9551 116.342 76.3447 116.225 76.8414C115.972 78.2037 115.932 79.5968 116.107 80.9712C116.402 83.0153 117.129 84.9739 118.239 86.7178C118.567 87.2509 118.927 87.7648 119.315 88.2567C119.686 88.773 120.155 89.2307 120.605 89.7957C120.84 90.0489 121.104 90.3022 121.348 90.5554L121.73 90.9353L122.15 91.3054C122.424 91.5489 122.698 91.8021 122.991 92.0456L123.891 92.7664C126.555 94.7897 129.454 96.4869 132.525 97.8215C135.586 99.1632 138.752 100.254 141.991 101.084C143.946 101.601 145.755 101.98 147.29 102.273L146.254 103.665L147.955 103.958C148.21 103.958 148.483 104.055 148.777 104.094L149.706 104.23C150.351 104.328 151.035 104.435 151.74 104.513L153.793 104.747L155.592 104.912C156.12 104.912 156.57 104.98 156.873 105H157.362L158.056 102.185C159.787 102.292 162.026 102.39 164.627 102.36C168.225 102.325 171.818 102.068 175.384 101.591C176.361 101.454 177.339 101.318 178.317 101.143C179.295 100.967 180.273 100.782 181.251 100.588C181.74 100.49 182.228 100.373 182.688 100.266L183.402 100.101L184.106 99.9156L185.514 99.5454L186.893 99.1364C188.692 98.5812 190.462 97.9773 192.075 97.3052L192.682 97.052L193.268 96.789L194.422 96.2728C195.155 95.9124 195.899 95.5618 196.573 95.1917C198.897 93.9721 201.067 92.4811 203.037 90.7502C204.249 89.6901 205.341 88.5013 206.293 87.2048L206.987 86.1626L207.202 85.7925L205.961 85.6854Z" fill="#0089FF"/>
<path opacity="0.62" d="M119.275 83.3086L119.422 83.7372L119.5 83.9515L119.588 84.156L119.96 84.9742C120.087 85.2372 120.244 85.4904 120.38 85.7534L120.586 86.1235L120.82 86.4936C121.925 88.1775 123.265 89.696 124.8 91.0033L125.221 91.3734L125.602 91.6851L126.218 92.1721C126.384 92.3084 126.531 92.4058 126.619 92.474L126.766 92.5714L128.643 91.8994L128.516 91.802C128.383 91.716 128.256 91.6217 128.135 91.5195L127.548 91.052L127.176 90.7598L126.785 90.4091C125.329 89.1706 124.058 87.7307 123.011 86.1333C122.933 86.0261 122.854 85.9092 122.786 85.7924L122.581 85.432C122.453 85.1885 122.307 84.945 122.18 84.6917C122.053 84.4385 121.955 84.1853 121.867 83.9125L121.779 83.7177L121.71 83.5132L121.564 83.1138C121.159 82.0034 120.931 80.8367 120.889 79.6561C120.851 78.4056 121.009 77.1567 121.358 75.9549C121.771 74.6349 122.374 73.3816 123.148 72.2342C124.009 70.9507 125.02 69.7736 126.159 68.7278C127.405 67.5903 128.754 66.5698 130.188 65.6792C131.67 64.7333 133.212 63.8842 134.804 63.137C136.407 62.3968 138.011 61.7539 139.566 61.189C142.177 60.2807 144.846 59.5453 147.554 58.9878H147.672L148.21 59.6793L148.865 59.5429C149.07 59.5429 149.334 59.4455 149.647 59.3968L150.723 59.2118C152.326 58.9391 154.634 58.5884 157.568 58.3644C160.874 58.1233 164.191 58.0778 167.502 58.228C167.952 58.228 168.412 58.228 168.871 58.2962L170.25 58.3936C171.228 58.4813 172.118 58.5592 173.037 58.6761C173.956 58.793 174.905 58.9196 175.834 59.0559C176.303 59.1241 176.753 59.2118 177.212 59.2897L177.907 59.4066L178.581 59.5429C180.41 59.8838 182.15 60.3319 183.832 60.7994L185.074 61.1598L186.267 61.5494L186.854 61.7442L187.421 61.9487L188.545 62.3578C191.04 63.3096 193.443 64.4865 195.723 65.874C197.14 66.7233 198.476 67.7014 199.712 68.796C200.152 69.1661 200.436 69.4778 200.69 69.6823L201.003 70.0037L206.929 68.5233L206.557 68.1531C206.313 67.9096 205.97 67.559 205.472 67.1207C204.022 65.8543 202.461 64.7199 200.807 63.7312C198.165 62.1223 195.38 60.7594 192.486 59.6598L191.186 59.1826L190.53 58.9488L189.846 58.7248C189.386 58.5689 188.927 58.4131 188.457 58.2767L187.02 57.8482C185.064 57.3027 183.05 56.7962 180.938 56.3969L180.146 56.2411L179.344 56.095C178.816 56.0073 178.288 55.9099 177.74 55.832C176.665 55.6664 175.589 55.5106 174.504 55.3937C173.418 55.2768 172.343 55.1599 171.267 55.0625C170.759 54.9651 170.201 54.9651 169.663 54.9651C169.126 54.9651 168.607 54.8872 168.079 54.8775C164.251 54.6758 160.414 54.7051 156.59 54.9651C153.236 55.2184 150.517 55.6177 148.65 55.9391L147.398 56.1534L146.498 56.3287L145.736 56.4846L146.811 57.8871H146.694C143.837 58.4759 141.021 59.2503 138.265 60.2053C136.632 60.7799 134.94 61.4617 133.259 62.2409C131.574 63.0274 129.941 63.9188 128.369 64.9097C126.864 65.8663 125.447 66.955 124.135 68.1629C122.947 69.2691 121.891 70.5077 120.987 71.8544C120.171 73.0547 119.535 74.3672 119.099 75.7504C118.731 77.0153 118.563 78.3298 118.601 79.6464C118.63 80.895 118.858 82.131 119.275 83.3086Z" fill="#0089FF"/>
</g>
<g opacity="0.15">
<path d="M183.884 66.1243C174.906 60.5506 158.577 59.9607 148.439 65.5398C142.569 68.7769 139.488 73.9202 142.598 79.1263C146.533 85.7172 157.39 88.2889 165.422 88.3608C172.06 88.4148 180.062 86.8683 185.306 82.9568C191.884 78.0666 191.813 71.0934 183.884 66.1243Z" fill="#0089FF"/>
</g>
<g opacity="0.15">
<path d="M183.884 64.1648C174.906 58.5912 158.577 58.0012 148.439 63.5803C142.569 66.8175 139.488 71.9607 142.598 77.1668C146.533 83.7578 157.39 86.3295 165.422 86.4013C172.06 86.4553 180.062 84.9088 185.306 80.9973C191.884 76.1071 191.813 69.1339 183.884 64.1648Z" fill="#0089FF"/>
</g>
<g opacity="0.15">
<path d="M183.884 62.2053C174.906 56.6317 158.577 56.0418 148.439 61.6209C142.569 64.858 139.488 70.0012 142.598 75.2074C146.533 81.7983 157.39 84.37 165.422 84.4418C172.06 84.4958 180.062 82.9493 185.306 79.0378C191.884 74.1477 191.813 67.1744 183.884 62.2053Z" fill="#0089FF"/>
</g>
<g opacity="0.15">
<path d="M183.884 60.2451C174.906 54.6715 158.577 54.0816 148.439 59.6607C142.569 62.8978 139.488 68.041 142.598 73.2472C146.533 79.8381 157.39 82.4098 165.422 82.4816C172.06 82.5356 180.062 80.9891 185.306 77.0776C191.884 72.1875 191.813 65.2142 183.884 60.2451Z" fill="#0089FF"/>
</g>
<g opacity="0.15">
<path d="M183.884 58.2861C174.906 52.7125 158.577 52.1226 148.439 57.7017C142.569 60.9388 139.488 66.082 142.598 71.2882C146.533 77.8791 157.39 80.4508 165.422 80.5227C172.06 80.5766 180.062 79.0301 185.306 75.1187C191.884 70.2285 191.813 63.2553 183.884 58.2861Z" fill="#0089FF"/>
</g>
<g opacity="0.15">
<path d="M183.884 56.3259C174.906 50.7523 158.577 50.1624 148.439 55.7415C142.569 58.9786 139.488 64.1218 142.598 69.328C146.533 75.9189 157.39 78.4906 165.422 78.5624C172.06 78.6164 180.062 77.0699 185.306 73.1585C191.884 68.2683 191.813 61.295 183.884 56.3259Z" fill="#0089FF"/>
</g>
<g opacity="0.15">
<path d="M183.884 54.3664C174.906 48.7928 158.577 48.2029 148.439 53.782C142.569 57.0191 139.488 62.1624 142.598 67.3685C146.533 73.9594 157.39 76.5311 165.422 76.603C172.06 76.657 180.062 75.1104 185.306 71.199C191.884 66.3088 191.813 59.3356 183.884 54.3664Z" fill="#0089FF"/>
</g>
<g opacity="0.15">
<path d="M183.884 52.4067C174.906 46.8331 158.577 46.2432 148.439 51.8223C142.569 55.0594 139.488 60.2026 142.598 65.4088C146.533 71.9997 157.39 74.5714 165.422 74.6433C172.06 74.6972 180.062 73.1507 185.306 69.2393C191.884 64.3491 191.813 57.3759 183.884 52.4067Z" fill="#0089FF"/>
</g>
<g opacity="0.15">
<path d="M183.884 50.4473C174.906 44.8736 158.577 44.2837 148.439 49.8628C142.569 53.0999 139.488 58.2432 142.598 63.4493C146.533 70.0402 157.39 72.6119 165.422 72.6838C172.06 72.7378 180.062 71.1913 185.306 67.2798C191.884 62.3896 191.813 55.4164 183.884 50.4473Z" fill="#0089FF"/>
</g>
<g opacity="0.15">
<path d="M183.884 48.4875C174.906 42.9139 158.577 42.324 148.439 47.9031C142.569 51.1402 139.488 56.2834 142.598 61.4896C146.533 68.0805 157.39 70.6522 165.422 70.7241C172.06 70.778 180.062 69.2315 185.306 65.3201C191.884 60.4299 191.813 53.4567 183.884 48.4875Z" fill="#0089FF"/>
</g>
<g opacity="0.15">
<path d="M183.884 46.5276C174.906 40.9539 158.577 40.364 148.439 45.9431C142.569 49.1803 139.488 54.3235 142.598 59.5296C146.533 66.1206 157.39 68.6923 165.422 68.7641C172.06 68.8181 180.062 67.2716 185.306 63.3601C191.884 58.4699 191.813 51.4967 183.884 46.5276Z" fill="#0089FF"/>
</g>
<g opacity="0.15">
<path d="M183.884 44.5679C174.906 38.9942 158.577 38.4043 148.439 43.9834C142.569 47.2205 139.488 52.3638 142.598 57.5699C146.533 64.1608 157.39 66.7326 165.422 66.8044C172.06 66.8584 180.062 65.3119 185.306 61.4004C191.884 56.5102 191.813 49.537 183.884 44.5679Z" fill="#0089FF"/>
</g>
<g opacity="0.15">
<path d="M183.884 66.1243C174.906 60.5506 158.577 59.9607 148.439 65.5398C142.569 68.7769 139.488 73.9202 142.598 79.1263C146.533 85.7172 157.39 88.2889 165.422 88.3608C172.06 88.4148 180.062 86.8683 185.306 82.9568C191.884 78.0666 191.813 71.0934 183.884 66.1243Z" fill="#0089FF"/>
</g>
<g opacity="0.15">
<path d="M183.884 64.1648C174.906 58.5912 158.577 58.0012 148.439 63.5803C142.569 66.8175 139.488 71.9607 142.598 77.1668C146.533 83.7578 157.39 86.3295 165.422 86.4013C172.06 86.4553 180.062 84.9088 185.306 80.9973C191.884 76.1071 191.813 69.1339 183.884 64.1648Z" fill="#0089FF"/>
</g>
<g opacity="0.15">
<path d="M183.884 62.2053C174.906 56.6317 158.577 56.0418 148.439 61.6209C142.569 64.858 139.488 70.0012 142.598 75.2074C146.533 81.7983 157.39 84.37 165.422 84.4418C172.06 84.4958 180.062 82.9493 185.306 79.0378C191.884 74.1477 191.813 67.1744 183.884 62.2053Z" fill="#0089FF"/>
</g>
<g opacity="0.15">
<path d="M183.884 60.2451C174.906 54.6715 158.577 54.0816 148.439 59.6607C142.569 62.8978 139.488 68.041 142.598 73.2472C146.533 79.8381 157.39 82.4098 165.422 82.4816C172.06 82.5356 180.062 80.9891 185.306 77.0776C191.884 72.1875 191.813 65.2142 183.884 60.2451Z" fill="#0089FF"/>
</g>
<g opacity="0.15">
<path d="M183.884 58.2861C174.906 52.7125 158.577 52.1226 148.439 57.7017C142.569 60.9388 139.488 66.082 142.598 71.2882C146.533 77.8791 157.39 80.4508 165.422 80.5227C172.06 80.5766 180.062 79.0301 185.306 75.1187C191.884 70.2285 191.813 63.2553 183.884 58.2861Z" fill="#0089FF"/>
</g>
<g opacity="0.15">
<path d="M183.884 56.3259C174.906 50.7523 158.577 50.1624 148.439 55.7415C142.569 58.9786 139.488 64.1218 142.598 69.328C146.533 75.9189 157.39 78.4906 165.422 78.5624C172.06 78.6164 180.062 77.0699 185.306 73.1585C191.884 68.2683 191.813 61.295 183.884 56.3259Z" fill="#0089FF"/>
</g>
<g opacity="0.15">
<path d="M183.884 54.3664C174.906 48.7928 158.577 48.2029 148.439 53.782C142.569 57.0191 139.488 62.1624 142.598 67.3685C146.533 73.9594 157.39 76.5311 165.422 76.603C172.06 76.657 180.062 75.1104 185.306 71.199C191.884 66.3088 191.813 59.3356 183.884 54.3664Z" fill="#0089FF"/>
</g>
<g opacity="0.15">
<path d="M183.884 52.4067C174.906 46.8331 158.577 46.2432 148.439 51.8223C142.569 55.0594 139.488 60.2026 142.598 65.4088C146.533 71.9997 157.39 74.5714 165.422 74.6433C172.06 74.6972 180.062 73.1507 185.306 69.2393C191.884 64.3491 191.813 57.3759 183.884 52.4067Z" fill="#0089FF"/>
</g>
<g opacity="0.15">
<path d="M183.884 50.4473C174.906 44.8736 158.577 44.2837 148.439 49.8628C142.569 53.0999 139.488 58.2432 142.598 63.4493C146.533 70.0402 157.39 72.6119 165.422 72.6838C172.06 72.7378 180.062 71.1913 185.306 67.2798C191.884 62.3896 191.813 55.4164 183.884 50.4473Z" fill="#0089FF"/>
</g>
<g opacity="0.15">
<path d="M183.884 48.4875C174.906 42.9139 158.577 42.324 148.439 47.9031C142.569 51.1402 139.488 56.2834 142.598 61.4896C146.533 68.0805 157.39 70.6522 165.422 70.7241C172.06 70.778 180.062 69.2315 185.306 65.3201C191.884 60.4299 191.813 53.4567 183.884 48.4875Z" fill="#0089FF"/>
</g>
<g opacity="0.15">
<path d="M183.884 46.5276C174.906 40.9539 158.577 40.364 148.439 45.9431C142.569 49.1803 139.488 54.3235 142.598 59.5296C146.533 66.1206 157.39 68.6923 165.422 68.7641C172.06 68.8181 180.062 67.2716 185.306 63.3601C191.884 58.4699 191.813 51.4967 183.884 46.5276Z" fill="#0089FF"/>
</g>
<mask id="path-28-inside-1" fill="white">
<path fill-rule="evenodd" clip-rule="evenodd" d="M139.602 32.3628H139.768C139.859 36.0692 142.409 39.76 147.418 42.5882C157.623 48.3492 174.168 48.3492 184.372 42.5882C188.689 40.1508 191.18 37.0726 191.844 33.8959V74.4706C192.04 78.4729 189.492 82.5117 184.201 85.5663C173.997 91.4579 157.452 91.4579 147.248 85.5663C141.984 82.5275 139.436 78.5147 139.602 74.5326V32.3628Z"/>
</mask>
<path d="M139.768 32.3628L140.267 32.3505L140.256 31.8628H139.768V32.3628ZM139.602 32.3628V31.8628H139.102V32.3628H139.602ZM147.418 42.5882L147.173 43.0236L147.418 42.5882ZM184.372 42.5882L184.618 43.0236L184.372 42.5882ZM191.844 33.8959H192.344L191.355 33.7936L191.844 33.8959ZM191.844 74.4706H191.344V74.4828L191.345 74.495L191.844 74.4706ZM184.201 85.5663L183.951 85.1333L184.201 85.5663ZM147.248 85.5663L147.498 85.1333L147.248 85.5663ZM139.602 74.5326L140.102 74.5535L140.102 74.5431V74.5326H139.602ZM139.768 31.8628H139.602V32.8628H139.768V31.8628ZM147.664 42.1528C142.742 39.3738 140.353 35.8165 140.267 32.3505L139.268 32.3751C139.365 36.322 142.076 40.1463 147.173 43.0236L147.664 42.1528ZM184.126 42.1528C179.117 44.9808 172.52 46.409 165.895 46.409C159.271 46.409 152.673 44.9808 147.664 42.1528L147.173 43.0236C152.368 45.9566 159.145 47.409 165.895 47.409C172.645 47.409 179.423 45.9566 184.618 43.0236L184.126 42.1528ZM191.355 33.7936C190.73 36.7826 188.367 39.7586 184.126 42.1528L184.618 43.0236C189.012 40.5429 191.63 37.3627 192.334 33.9983L191.355 33.7936ZM192.344 74.4706V33.8959H191.344V74.4706H192.344ZM191.345 74.495C191.528 78.243 189.148 82.1331 183.951 85.1333L184.451 85.9994C189.837 82.8902 192.552 78.7029 192.344 74.4462L191.345 74.495ZM183.951 85.1333C178.943 88.0249 172.347 89.485 165.725 89.485C159.102 89.485 152.506 88.0249 147.498 85.1333L146.998 85.9994C152.194 88.9993 158.973 90.485 165.725 90.485C172.476 90.485 179.255 88.9993 184.451 85.9994L183.951 85.1333ZM147.498 85.1333C142.328 82.1486 139.946 78.283 140.102 74.5535L139.103 74.5118C138.926 78.7463 141.64 82.9063 146.998 85.9994L147.498 85.1333ZM139.102 32.3628V74.5326H140.102V32.3628H139.102Z" fill="#FEFBF2" mask="url(#path-28-inside-1)"/>
<path opacity="0.86" d="M139.826 70.5627C140.69 75.0625 142.169 76.3503 144.021 77.8693C146.468 79.8771 149.312 81.1981 151.3 81.7885C157.613 83.6629 159.212 83.919 165.627 84.1606C172.743 84.1606 176.509 83.2129 182.283 80.9127C186.155 78.9322 186.311 78.7388 188.113 77.1941C190.757 74.6838 191.497 73.0981 191.497 70.5627" stroke="#FEFBF2" stroke-width="0.25"/>
<circle r="21.0851" transform="matrix(0.866025 -0.5 0.866025 0.5 165.587 32.3352)" stroke="#D7E2F2" stroke-width="0.5"/>
<path d="M139.826 70.7251C140.69 75.2248 142.169 76.5126 144.021 78.0316C146.468 80.0395 149.312 81.3604 151.3 81.9509C157.613 83.8252 159.212 84.0814 165.627 84.323C172.743 84.323 176.509 83.3752 182.283 81.0751C186.154 79.0946 186.311 78.9012 188.113 77.3564C190.757 74.8461 191.497 73.2604 191.497 70.7251V75.7957C191.364 76.4256 191.239 77.0058 191.06 77.5565C189.826 81.355 186.466 84.0891 182.154 86.1884C176.676 88.6286 172.401 89.4976 165.737 89.5824C158.423 89.5824 152.58 87.9247 149.395 86.2948C146.209 84.6649 144.91 83.862 143.181 82.1033C141.225 80.1135 139.856 77.9015 139.801 74.9979L139.826 71.5738V70.7251Z" fill="#FEFBF2"/>
<path fill-rule="evenodd" clip-rule="evenodd" d="M188.523 48.9931C201.114 41.7235 201.114 29.9373 188.523 22.6678C175.932 15.3982 155.518 15.3982 142.926 22.6678C130.335 29.9373 130.335 41.7235 142.926 48.9931C155.518 56.2626 175.932 56.2626 188.523 48.9931ZM188.956 49.2431C201.786 41.8355 201.786 29.8254 188.956 22.4178C176.126 15.0102 155.324 15.0102 142.493 22.4178C129.663 29.8254 129.663 41.8355 142.493 49.2431C155.324 56.6507 176.126 56.6507 188.956 49.2431ZM188.523 52.9029C201.114 45.6333 201.114 33.8471 188.523 26.5776C175.932 19.308 155.518 19.308 142.926 26.5776C130.335 33.8471 130.335 45.6333 142.926 52.9029C155.518 60.1724 175.932 60.1724 188.523 52.9029ZM188.956 53.1529C201.786 45.7453 201.786 33.7352 188.956 26.3276C176.126 18.92 155.324 18.92 142.493 26.3276C129.663 33.7352 129.663 45.7453 142.493 53.1529C155.324 60.5605 176.126 60.5605 188.956 53.1529ZM188.523 56.6417C201.114 49.3722 201.114 37.586 188.523 30.3164C175.932 23.0469 155.518 23.0469 142.926 30.3164C130.335 37.586 130.335 49.3722 142.926 56.6417C155.518 63.9113 175.932 63.9113 188.523 56.6417ZM188.956 56.8917C201.786 49.4841 201.786 37.474 188.956 30.0664C176.126 22.6588 155.324 22.6588 142.493 30.0664C129.663 37.474 129.663 49.4841 142.493 56.8917C155.324 64.2993 176.126 64.2993 188.956 56.8917ZM188.523 59.9979C201.114 52.7284 201.114 40.9422 188.523 33.6726C175.932 26.4031 155.518 26.4031 142.926 33.6726C130.335 40.9422 130.335 52.7284 142.926 59.9979C155.518 67.2675 175.932 67.2675 188.523 59.9979ZM188.956 60.2479C201.786 52.8403 201.786 40.8302 188.956 33.4226C176.126 26.015 155.324 26.015 142.493 33.4226C129.663 40.8302 129.663 52.8403 142.493 60.2479C155.324 67.6555 176.126 67.6555 188.956 60.2479ZM188.523 63.7836C201.114 56.5141 201.114 44.7279 188.523 37.4583C175.932 30.1888 155.518 30.1888 142.926 37.4583C130.335 44.7279 130.335 56.5141 142.926 63.7836C155.518 71.0532 175.932 71.0532 188.523 63.7836ZM188.956 64.0336C201.786 56.626 201.786 44.6159 188.956 37.2083C176.126 29.8007 155.324 29.8007 142.493 37.2083C129.663 44.6159 129.663 56.626 142.493 64.0336C155.324 71.4412 176.126 71.4412 188.956 64.0336ZM188.523 67.2991C201.114 60.0296 201.114 48.2433 188.523 40.9738C175.932 33.7043 155.518 33.7043 142.926 40.9738C130.335 48.2433 130.335 60.0296 142.926 67.2991C155.518 74.5686 175.932 74.5686 188.523 67.2991ZM188.956 67.5491C201.786 60.1415 201.786 48.1314 188.956 40.7238C176.126 33.3162 155.324 33.3162 142.493 40.7238C129.663 48.1314 129.663 60.1415 142.493 67.5491C155.324 74.9567 176.126 74.9567 188.956 67.5491ZM188.523 70.6904C201.114 63.4209 201.114 51.6347 188.523 44.3651C175.932 37.0956 155.518 37.0956 142.926 44.3651C130.335 51.6347 130.335 63.4209 142.926 70.6904C155.518 77.96 175.932 77.96 188.523 70.6904ZM188.956 70.9404C201.786 63.5328 201.786 51.5227 188.956 44.1151C176.126 36.7075 155.324 36.7075 142.493 44.1151C129.663 51.5227 129.663 63.5328 142.493 70.9404C155.324 78.348 176.126 78.348 188.956 70.9404ZM188.523 73.583C201.114 66.3134 201.114 54.5272 188.523 47.2577C175.932 39.9882 155.518 39.9882 142.926 47.2577C130.335 54.5272 130.335 66.3134 142.926 73.583C155.518 80.8525 175.932 80.8525 188.523 73.583ZM188.956 73.833C201.786 66.4254 201.786 54.4153 188.956 47.0077C176.126 39.6001 155.324 39.6001 142.493 47.0077C129.663 54.4153 129.663 66.4254 142.493 73.833C155.324 81.2406 176.126 81.2406 188.956 73.833ZM188.523 77.098C201.114 69.8284 201.114 58.0422 188.523 50.7727C175.932 43.5031 155.518 43.5031 142.926 50.7727C130.335 58.0422 130.335 69.8284 142.926 77.098C155.518 84.3675 175.932 84.3675 188.523 77.098ZM188.956 77.348C201.786 69.9404 201.786 57.9303 188.956 50.5227C176.126 43.1151 155.324 43.1151 142.493 50.5227C129.663 57.9303 129.663 69.9404 142.493 77.348C155.324 84.7556 176.126 84.7556 188.956 77.348ZM188.523 80.3685C201.114 73.0989 201.114 61.3127 188.523 54.0432C175.932 46.7737 155.518 46.7737 142.926 54.0432C130.335 61.3127 130.335 73.0989 142.926 80.3685C155.518 87.638 175.932 87.638 188.523 80.3685ZM188.956 80.6185C201.786 73.2109 201.786 61.2008 188.956 53.7932C176.126 46.3856 155.324 46.3856 142.493 53.7932C129.663 61.2008 129.663 73.2109 142.493 80.6185C155.324 88.0261 176.126 88.0261 188.956 80.6185ZM188.523 83.4783C201.114 76.2088 201.114 64.4226 188.523 57.153C175.932 49.8835 155.518 49.8835 142.926 57.153C130.335 64.4226 130.335 76.2088 142.926 83.4783C155.518 90.7479 175.932 90.7479 188.523 83.4783ZM188.956 83.7283C201.786 76.3207 201.786 64.3106 188.956 56.903C176.126 49.4954 155.324 49.4954 142.493 56.903C129.663 64.3106 129.663 76.3207 142.493 83.7283C155.324 91.1359 176.126 91.1359 188.956 83.7283ZM188.523 86.8233C201.114 79.5538 201.114 67.7675 188.523 60.498C175.932 53.2285 155.518 53.2285 142.926 60.498C130.335 67.7675 130.335 79.5538 142.926 86.8233C155.518 94.0928 175.932 94.0928 188.523 86.8233ZM188.956 87.0733C201.786 79.6657 201.786 67.6556 188.956 60.248C176.126 52.8404 155.324 52.8404 142.493 60.248C129.663 67.6556 129.663 79.6657 142.493 87.0733C155.324 94.4809 176.126 94.4809 188.956 87.0733Z" fill="#0089FF" fill-opacity="0.45"/>
<path d="M185.237 22.0128C175.601 15.7565 158.075 15.0944 147.194 21.3568C140.894 24.9904 137.586 30.7636 140.925 36.6075C145.148 44.0057 156.802 46.8923 165.422 46.973C172.546 47.0337 181.136 45.2977 186.764 40.9071C193.823 35.4181 193.748 27.5907 185.237 22.0128Z" fill="#E8E6DD"/>
<path d="M169.89 28.2573L174.959 31.3864L179.397 28.6962V28.0079L174.328 24.8789L169.89 27.5691V28.2573Z" fill="#999792"/>
<path d="M169.89 27.5691L174.959 30.6981L179.397 28.0079L174.328 24.8789L169.89 27.5691Z" fill="#E4E1D8"/>
<path d="M177.706 28.0006L174.324 25.9138L171.582 27.576L174.963 29.6628L177.706 28.0006Z" fill="#999792"/>
<path d="M176.856 28.5135L174.321 26.9487L172.428 28.098L174.964 29.6627L176.856 28.5135Z" fill="#717171"/>
<path d="M169.89 27.5688V28.257L174.959 31.3861V30.6978L169.89 27.5688Z" fill="#CCC9C3"/>
<path d="M159.258 27.9848C157.612 26.9761 154.95 26.9761 153.315 27.9848C151.68 28.9933 151.69 30.6287 153.336 31.6372C154.982 32.6459 157.642 32.6464 159.277 31.6379C160.912 30.6294 160.904 28.993 159.258 27.9848Z" fill="url(#paint0_linear)"/>
<path d="M159.04 29.485C159.081 28.0665 156.759 27.1423 154.717 27.6657C153.818 27.896 152.759 28.5101 152.813 29.4932C152.811 29.4701 152.808 29.4471 152.808 29.424C152.807 29.9372 152.793 30.0417 152.853 30.2573C153.074 31.0486 153.996 31.5233 154.76 31.7137L154.763 31.7144C156.662 32.1865 158.824 31.416 159.026 30.1301C159.046 30.0014 159.041 29.9452 159.042 29.4435C159.042 29.4574 159.041 29.4712 159.04 29.485Z" fill="#999792"/>
<path d="M159.794 28.2263C159.845 26.4649 156.962 25.317 154.425 25.9669C153.309 26.2529 151.994 27.0157 152.061 28.2363C152.059 28.2078 152.055 28.1792 152.055 28.1506C152.053 28.788 152.036 28.9177 152.111 29.1856C152.385 30.1683 153.53 30.7578 154.479 30.9943L154.482 30.9949C156.841 31.5814 159.526 30.6245 159.777 29.0276C159.802 28.8676 159.795 28.798 159.797 28.1749C159.797 28.1921 159.795 28.2091 159.794 28.2263Z" fill="#78797B"/>
<path d="M158.442 26.4681C157.044 25.6112 154.783 25.6112 153.394 26.4681C152.005 27.3247 152.013 28.7139 153.412 29.5708C154.81 30.4276 157.07 30.4281 158.459 29.5712C159.848 28.7146 159.841 27.3247 158.442 26.4681Z" fill="url(#paint1_linear)"/>
<path d="M158.248 30.068C156.189 31.0176 152.902 30.4908 152.177 28.7465C152.093 28.5457 152.054 28.3365 152.055 28.1504V28.1506V28.1504C152.053 28.7162 152.045 28.8236 152.068 28.9837C152.217 30.0631 153.448 30.7372 154.479 30.994L154.482 30.9947C156.999 31.6205 159.79 30.4906 159.795 28.8009L159.796 28.1746C159.795 28.7699 159.416 29.5299 158.248 30.068Z" fill="url(#paint2_linear)"/>
<path fill-rule="evenodd" clip-rule="evenodd" d="M158.816 26.5832C158.99 26.7047 159.147 26.8375 159.284 26.9849C160.049 27.8043 159.951 28.8241 159.043 29.5796C158.209 30.2757 156.936 30.5511 155.88 30.5416C154.603 30.5287 152.876 30.0711 152.25 28.8976C151.755 27.9709 152.245 27.0554 153.179 26.4792C154.315 25.7797 155.948 25.6212 157.316 25.946C157.878 26.0773 158.397 26.2917 158.816 26.5832ZM158.925 29.2152C159.567 28.6061 159.713 27.7833 159.12 27.0495C158.349 26.0941 156.799 25.7706 155.606 25.8341C152.714 25.9875 151.365 28.0693 153.182 29.4149C154.726 30.5582 157.622 30.4505 158.925 29.2152Z" fill="url(#paint3_linear)"/>
<path d="M191.572 26.7089C191.085 21.7769 186.713 17.4353 179.569 14.7958C179.468 14.7593 179.366 14.7228 179.269 14.6924C175.212 13.2296 170.527 12.4607 165.713 12.4607C154.814 12.4607 145.25 16.3154 141.353 22.2699C140.069 24.2784 139.549 26.3843 139.769 28.4658C139.846 29.283 140.037 30.0854 140.337 30.8497C141.081 32.8156 142.501 34.7044 144.569 36.4025C149.501 40.3992 157.194 42.6917 165.668 42.6917C166.277 42.6917 166.885 42.6775 167.494 42.6511C167.662 42.6511 167.829 42.641 167.993 42.6268C170.731 42.4964 173.449 42.0947 176.108 41.4278V40.9246C174.057 41.5333 170.643 42.0121 167.993 42.1561H167.89H167.744C167.661 42.1659 167.577 42.1707 167.494 42.1703C166.885 42.196 166.277 42.2095 165.668 42.2109C160.209 42.2109 155.015 41.229 150.641 39.3706C150.539 39.3366 150.441 39.296 150.345 39.2489C148.034 38.2487 142.471 35.4104 140.736 30.5251C140.497 29.8626 140.337 29.1741 140.259 28.474C140.17 27.6763 140.197 26.8698 140.341 26.08C140.544 24.971 140.942 23.9069 141.517 22.9374C144.019 18.6769 149.087 16.3032 151.88 15.2665C155.822 13.7591 160.704 12.9375 165.632 12.9375C172.475 12.9375 178.892 14.4672 183.702 17.2608C186.195 18.7094 190.194 21.6694 190.967 26.0475C191.063 26.549 191.111 27.0585 191.109 27.5691C191.109 27.8716 191.091 28.1737 191.054 28.474C190.984 29.0952 190.848 29.7073 190.649 30.2999C190.519 30.6923 190.364 31.0759 190.184 31.4482C189.131 33.6595 187.187 35.7086 184.503 37.3844C184.355 37.4798 184.205 37.5711 184.051 37.6603L184.004 37.6887C183.905 37.7516 183.801 37.8105 183.692 37.8754C182.435 38.6002 181.123 39.2243 179.768 39.7419C179.6 39.8048 179.431 39.8737 179.263 39.9265V40.4499C179.431 40.387 179.6 40.3262 179.768 40.2592C181.213 39.7198 182.611 39.0636 183.95 38.2974L184.004 38.2608L184.027 38.2426C184.071 38.2225 184.113 38.1995 184.154 38.1736C184.272 38.1067 184.392 38.0336 184.503 37.9707C187.074 36.3903 188.991 34.5563 190.184 32.566C190.369 32.2613 190.536 31.9464 190.685 31.6226C190.78 31.4198 190.866 31.2169 190.947 31.014C191.496 29.6466 191.708 28.1673 191.566 26.7008L191.572 26.7089Z" fill="#FEFBF2"/>
<path d="M191.568 28.5477C191.57 28.5404 191.57 28.5326 191.568 28.5254C191.482 27.6787 191.283 26.8475 190.975 26.0543C189.498 22.1671 185.483 18.8196 179.571 16.6387C179.472 16.5981 179.369 16.5595 179.271 16.5271C175.214 15.0684 170.529 14.2954 165.715 14.2954C154.816 14.2954 145.25 18.1501 141.353 24.1046C140.949 24.7279 140.609 25.3906 140.339 26.0827C140.04 26.8451 139.846 27.6442 139.76 28.4584C139.395 31.8911 141.039 35.3462 144.561 38.2392C149.495 42.238 157.188 44.5285 165.672 44.5285C169.019 44.5392 172.356 44.1565 175.613 43.3883L175.733 43.3599L176.043 43.2868L176.118 43.2666V42.7553C176.074 42.7695 176.029 42.7837 175.985 42.7938C175.885 42.8257 175.784 42.8521 175.682 42.873C175.658 42.873 175.64 42.8872 175.613 42.8912C175.557 42.9085 175.499 42.9227 175.441 42.9338C172.239 43.6849 168.961 44.0607 165.672 44.0537C160.207 44.0537 155.017 43.0758 150.645 41.2236C150.548 41.185 150.442 41.1424 150.349 41.0957C148.038 40.1016 142.473 37.2573 140.738 32.3719C140.559 31.8769 140.423 31.367 140.333 30.8483C140.198 30.0663 140.175 29.2692 140.264 28.4807C140.418 27.1749 140.845 25.9161 141.517 24.7863C144.021 20.5258 149.089 18.1481 151.882 17.1175C155.824 15.6121 160.708 14.7823 165.632 14.7823C172.477 14.7823 178.896 16.3201 183.706 19.1057C186.303 20.6192 190.551 23.7841 191.054 28.4807C191.092 28.7924 191.11 29.1061 191.109 29.4201C191.108 29.9595 191.055 30.4976 190.951 31.0269C190.332 34.2202 187.894 37.2532 184.023 39.5478L183.706 39.7365C182.45 40.4617 181.137 41.0838 179.78 41.5969C179.612 41.6679 179.444 41.7287 179.275 41.7835V42.3049C179.444 42.244 179.612 42.1832 179.78 42.1183C181.227 41.579 182.625 40.9201 183.962 40.1483L184.041 40.1016C184.084 40.0802 184.126 40.0551 184.165 40.0266C189.364 36.9448 191.998 32.8649 191.568 28.5477Z" fill="#FEFBF2"/>
<path d="M165.666 16.7625C165.634 16.7631 165.601 16.7571 165.571 16.745C165.541 16.7329 165.513 16.7149 165.49 16.6921C165.467 16.6692 165.448 16.642 165.436 16.6119C165.423 16.5819 165.417 16.5496 165.417 16.5171V12.4595H165.916V16.5171C165.915 16.5496 165.909 16.5817 165.896 16.6116C165.883 16.6416 165.865 16.6687 165.842 16.6915C165.819 16.7143 165.791 16.7323 165.761 16.7445C165.731 16.7567 165.699 16.7628 165.666 16.7625Z" fill="#FEFBF2"/>
<path d="M167.995 42.1531V46.2857C167.995 46.318 167.988 46.3498 167.976 46.3794C167.963 46.409 167.944 46.4357 167.921 46.4581C167.898 46.4804 167.87 46.4978 167.84 46.5093C167.81 46.5208 167.778 46.5262 167.746 46.5251C167.681 46.5257 167.619 46.501 167.572 46.4562C167.526 46.4115 167.498 46.3503 167.496 46.2857V42.1754C167.58 42.1757 167.663 42.171 167.746 42.1612H167.892L167.995 42.1531Z" fill="#FEFBF2"/>
<path d="M176.114 40.9175V44.9264C176.114 44.9931 176.088 45.0571 176.041 45.1043C175.993 45.1514 175.93 45.1779 175.863 45.1779C175.796 45.1779 175.732 45.1514 175.685 45.1043C175.638 45.0571 175.611 44.9931 175.611 44.9264V41.0575C175.719 41.0311 175.942 40.9702 176.114 40.9175Z" fill="#FEFBF2"/>
<path d="M184.516 37.3979V41.6584C184.514 41.7244 184.487 41.7872 184.439 41.8331C184.392 41.879 184.328 41.9044 184.262 41.9039C184.197 41.9034 184.135 41.8773 184.089 41.8314C184.043 41.7855 184.017 41.7234 184.017 41.6584V37.7023C184.017 37.7023 184.289 37.544 184.516 37.3979Z" fill="#FEFBF2"/>
<path d="M179.781 39.7532V43.8108C179.775 43.8738 179.746 43.9325 179.699 43.9753C179.652 44.018 179.591 44.0417 179.528 44.0417C179.465 44.0417 179.404 44.018 179.357 43.9753C179.31 43.9325 179.281 43.8738 179.275 43.8108V39.9419C179.444 39.885 179.612 39.8181 179.781 39.7532Z" fill="#FEFBF2"/>
<path d="M190.684 30.317V35.5757C190.682 35.641 190.655 35.703 190.608 35.7482C190.56 35.7934 190.497 35.8182 190.432 35.8171C190.4 35.8179 190.368 35.8123 190.337 35.8005C190.307 35.7888 190.28 35.7712 190.257 35.7487C190.233 35.7262 190.215 35.6993 190.202 35.6696C190.189 35.6399 190.183 35.608 190.182 35.5757V31.4613C190.362 31.089 190.517 30.7054 190.647 30.313L190.684 30.317Z" fill="#FEFBF2"/>
<path d="M189.344 25.9329C189.279 25.9334 189.216 25.9082 189.169 25.8626C189.122 25.817 189.095 25.7547 189.094 25.6894V21.0618L189.273 21.2788C189.376 21.4087 189.476 21.5466 189.577 21.6846L189.593 21.7069V25.6894C189.593 25.7219 189.587 25.7541 189.574 25.784C189.562 25.814 189.543 25.8411 189.52 25.8638C189.497 25.8865 189.469 25.9043 189.439 25.9161C189.409 25.928 189.376 25.9337 189.344 25.9329Z" fill="#FEFBF2"/>
<path d="M185.165 21.8732C185.133 21.8738 185.101 21.8679 185.071 21.8559C185.041 21.8439 185.013 21.826 184.99 21.8034C184.967 21.7807 184.949 21.7537 184.937 21.7239C184.924 21.6941 184.918 21.6621 184.918 21.6298V17.4302L185.07 17.5276C185.175 17.5945 185.273 17.6615 185.376 17.7304L185.409 17.7568V21.6237C185.409 21.6562 185.404 21.6885 185.392 21.7187C185.38 21.749 185.362 21.7765 185.339 21.7998C185.317 21.823 185.29 21.8415 185.26 21.8541C185.23 21.8667 185.198 21.8732 185.165 21.8732Z" fill="#FEFBF2"/>
<path d="M179.381 19.0189C179.315 19.0195 179.253 18.9942 179.206 18.9486C179.159 18.903 179.132 18.8408 179.131 18.7755V14.6428L179.263 14.6875C179.365 14.7199 179.466 14.7585 179.567 14.797L179.63 14.8214V18.7714C179.63 18.8041 179.624 18.8364 179.611 18.8666C179.599 18.8968 179.58 18.9241 179.557 18.9472C179.534 18.9702 179.506 18.9884 179.476 19.0007C179.446 19.013 179.413 19.0192 179.381 19.0189Z" fill="#FEFBF2"/>
<path d="M172.522 17.3515C172.489 17.3518 172.457 17.3457 172.427 17.3335C172.397 17.3213 172.369 17.3033 172.346 17.2805C172.323 17.2577 172.304 17.2306 172.292 17.2006C172.279 17.1707 172.272 17.1386 172.272 17.1061V12.9531L172.386 12.9694C172.491 12.9836 172.589 12.9978 172.692 13.016L172.771 13.0322V17.0898C172.773 17.1238 172.769 17.1578 172.757 17.1897C172.745 17.2217 172.727 17.2509 172.704 17.2755C172.68 17.3001 172.652 17.3196 172.621 17.3327C172.589 17.3458 172.556 17.3522 172.522 17.3515Z" fill="#FEFBF2"/>
<path d="M158.107 17.3512C158.075 17.3517 158.042 17.3458 158.012 17.3337C157.982 17.3216 157.954 17.3036 157.931 17.2807C157.908 17.2579 157.889 17.2307 157.877 17.2006C157.864 17.1706 157.858 17.1383 157.858 17.1057V13.1536L158.357 13.0603V17.0976C158.357 17.1308 158.352 17.1638 158.339 17.1947C158.327 17.2255 158.309 17.2536 158.286 17.2773C158.262 17.301 158.235 17.3197 158.204 17.3324C158.173 17.3451 158.14 17.3515 158.107 17.3512Z" fill="#FEFBF2"/>
<path d="M151.998 19.0187C151.933 19.0188 151.87 18.9933 151.824 18.9478C151.777 18.9023 151.75 18.8404 151.749 18.7753V14.809L151.807 14.7847C151.909 14.7402 152.013 14.7023 152.12 14.671L152.248 14.6345V18.7712C152.248 18.8039 152.241 18.8363 152.229 18.8664C152.216 18.8966 152.198 18.924 152.174 18.947C152.151 18.97 152.124 18.9882 152.093 19.0005C152.063 19.0128 152.031 19.019 151.998 19.0187Z" fill="#FEFBF2"/>
<path d="M146.405 21.8734C146.373 21.8737 146.341 21.8676 146.311 21.8555C146.281 21.8434 146.254 21.8256 146.231 21.803C146.208 21.7804 146.189 21.7534 146.177 21.7238C146.164 21.6941 146.157 21.6622 146.157 21.63V17.5947L146.198 17.5683L146.5 17.3654L146.654 17.2681V21.6279C146.655 21.6606 146.648 21.693 146.636 21.7232C146.623 21.7533 146.605 21.7807 146.582 21.8036C146.558 21.8265 146.531 21.8445 146.5 21.8565C146.47 21.8685 146.437 21.8742 146.405 21.8734Z" fill="#FEFBF2"/>
<path d="M141.586 26.4525C141.554 26.4527 141.522 26.4466 141.492 26.4344C141.461 26.4222 141.434 26.4042 141.411 26.3814C141.388 26.3586 141.369 26.3315 141.357 26.3015C141.344 26.2716 141.337 26.2395 141.337 26.207V22.2894L141.351 22.2671C141.455 22.1088 141.554 21.9607 141.653 21.8167L141.834 21.561V26.207C141.834 26.2395 141.828 26.2717 141.816 26.3017C141.803 26.3318 141.785 26.359 141.762 26.3819C141.739 26.4048 141.711 26.4228 141.681 26.4349C141.651 26.447 141.619 26.453 141.586 26.4525Z" fill="#FEFBF2"/>
<path d="M140.495 34.6425C140.43 34.6431 140.367 34.6178 140.32 34.5722C140.274 34.5266 140.247 34.4644 140.246 34.3991V29.5239L140.448 29.5056C140.527 29.8496 140.626 30.1884 140.747 30.52V34.3889C140.747 34.4222 140.741 34.4553 140.729 34.4861C140.716 34.517 140.698 34.5451 140.674 34.5687C140.651 34.5924 140.623 34.6111 140.592 34.6237C140.561 34.6364 140.528 34.6428 140.495 34.6425Z" fill="#FEFBF2"/>
<path d="M144.481 40.0452C144.415 40.0463 144.352 40.0214 144.304 39.9758C144.256 39.9303 144.228 39.8677 144.226 39.8017V35.4561L144.394 35.6082C144.492 35.6955 144.597 35.7786 144.697 35.8638L144.729 35.8902V39.8017C144.729 39.834 144.722 39.8658 144.71 39.8955C144.697 39.9252 144.679 39.9521 144.656 39.9747C144.633 39.9973 144.605 40.0152 144.576 40.0273C144.546 40.0394 144.514 40.0454 144.481 40.0452Z" fill="#FEFBF2"/>
<path d="M150.458 43.6727C150.426 43.6735 150.393 43.6678 150.363 43.6559C150.333 43.6441 150.305 43.6263 150.282 43.6036C150.259 43.5809 150.24 43.5538 150.228 43.5238C150.215 43.4939 150.209 43.4617 150.209 43.4292V39.1931L150.353 39.2601C150.447 39.3063 150.544 39.3476 150.643 39.3838L150.708 39.4082V43.4292C150.707 43.4945 150.68 43.5567 150.633 43.6023C150.586 43.6479 150.523 43.6732 150.458 43.6727Z" fill="#FEFBF2"/>
<path d="M158.107 45.7542C158.075 45.7548 158.042 45.7488 158.012 45.7367C157.982 45.7246 157.954 45.7066 157.931 45.6838C157.908 45.6609 157.889 45.6337 157.877 45.6036C157.864 45.5736 157.858 45.5413 157.858 45.5088V41.51L158.357 41.6033V45.5148C158.355 45.5794 158.327 45.6406 158.281 45.6854C158.234 45.7301 158.172 45.7548 158.107 45.7542Z" fill="#FEFBF2"/>
<path d="M177.078 42.6602V81.2579C177.073 81.321 177.043 81.3797 176.997 81.4224C176.95 81.4652 176.889 81.4889 176.826 81.4889C176.762 81.4889 176.701 81.4652 176.654 81.4224C176.608 81.3797 176.579 81.321 176.573 81.2579V42.7961L176.646 42.7778C176.745 42.7555 176.849 42.7291 176.946 42.7007L177.078 42.6602Z" fill="#FEFBF2"/>
<path d="M180.742 44.1411V44.6727L180.239 44.8309L177.078 45.8534L176.573 46.0117V45.4862L177.078 45.3259L180.239 44.3054L180.742 44.1411Z" fill="#FEFBF2"/>
<path d="M180.742 46.8582V47.3897L180.239 47.5479L177.078 48.5705L176.573 48.7287V48.2012L177.078 48.043L180.239 47.0205L180.742 46.8582Z" fill="#FEFBF2"/>
<path d="M180.742 49.5723V50.1038L180.239 50.2621L177.078 51.2846L176.573 51.4428V50.9174L177.078 50.7571L180.239 49.7366L180.742 49.5723Z" fill="#FEFBF2"/>
<path d="M180.742 52.2891V52.8206L180.239 52.9789L177.078 54.0014L176.573 54.1596V53.6321L177.078 53.4739L180.239 52.4514L180.742 52.2891Z" fill="#FEFBF2"/>
<path d="M180.742 55.0037V55.5352L180.239 55.6955L177.078 56.716L176.573 56.8762V56.3488L177.078 56.1905L180.239 55.168L180.742 55.0037Z" fill="#FEFBF2"/>
<path d="M180.742 57.7202V58.2518L180.239 58.41L177.078 59.4325L176.573 59.5908V59.0653L177.078 58.905L180.239 57.8845L180.742 57.7202Z" fill="#FEFBF2"/>
<path d="M180.742 60.4365V60.9681L180.239 61.1263L177.078 62.1488L176.573 62.3071V61.7796L177.078 61.6213L180.239 60.5988L180.742 60.4365Z" fill="#FEFBF2"/>
<path d="M180.742 63.1511V63.6827L180.239 63.8409L177.078 64.8634L176.573 65.0217V64.4962L177.078 64.3359L180.239 63.3155L180.742 63.1511Z" fill="#FEFBF2"/>
<path d="M180.742 65.8677V66.3992L180.239 66.5575L177.078 67.58L176.573 67.7382V67.2107L177.078 67.0525L180.239 66.03L180.742 65.8677Z" fill="#FEFBF2"/>
<path d="M180.742 68.5823V69.1138L180.239 69.2741L177.078 70.2946L176.573 70.4549V69.9274L177.078 69.7691L180.239 68.7466L180.742 68.5823Z" fill="#FEFBF2"/>
<path d="M180.742 71.2986V71.8301L180.239 71.9884L177.078 73.0109L176.573 73.1691V72.6437L177.078 72.4834L180.239 71.4609L180.742 71.2986Z" fill="#FEFBF2"/>
<path d="M180.742 74.0151V74.5447L180.239 74.7049L177.078 75.7254L176.573 75.8857V75.3582L177.078 75.2L180.239 74.1774L180.742 74.0151Z" fill="#FEFBF2"/>
<path d="M180.742 76.7302V77.2618L180.239 77.42L177.078 78.4425L176.573 78.6008V78.0753L177.078 77.915L180.239 76.8946L180.742 76.7302Z" fill="#FEFBF2"/>
<path d="M180.742 41.4937C180.742 41.798 180.724 42.2728 180.602 42.2931C180.48 42.3134 180.33 41.9279 180.239 41.6844C180.273 41.1387 180.182 40.6457 179.78 40.2643C179.766 40.1975 179.758 40.1296 179.756 40.0614C179.755 39.9567 179.763 39.8521 179.78 39.749C180.511 39.5948 180.762 40.6964 180.742 41.4937Z" fill="#FEFBF2"/>
<path d="M176.573 40.9904C176.999 41.244 177.09 42.0981 177.078 42.6134C177.078 42.9177 177.06 43.3904 176.938 43.4107C176.816 43.431 176.666 43.0475 176.575 42.8021C176.609 42.2583 176.518 41.7633 176.116 41.3819C176.102 41.3152 176.094 41.2473 176.092 41.179C176.089 41.0905 176.098 41.0019 176.116 40.9153C176.205 40.8951 176.297 40.8951 176.386 40.9153C176.451 40.9317 176.514 40.957 176.573 40.9904Z" fill="#FEFBF2"/>
<path d="M180.742 41.4941V80.1548C180.742 80.2215 180.715 80.2855 180.668 80.3327C180.621 80.3799 180.557 80.4064 180.49 80.4064C180.424 80.4064 180.36 80.3799 180.312 80.3327C180.265 80.2855 180.239 80.2215 180.239 80.1548V41.6848C180.407 41.6301 180.576 41.5631 180.742 41.4941Z" fill="#FEFBF2"/>
<path d="M232 80.2505L239.171 84.2781L246.341 80.2505L246.341 85.7293L239.171 89.7569L232 85.7293L232 80.2505Z" fill="#0089FF"/>
<path opacity="0.55" d="M232 71.6453L239.171 75.6729L246.341 71.6453L246.341 77.124L239.171 81.1516L232 77.124L232 71.6453Z" fill="#0089FF"/>
<path opacity="0.25" d="M232 63.04L239.17 67.0676L246.341 63.04L246.341 68.5188L239.17 72.5464L232 68.5188L232 63.04Z" fill="#0089FF"/>
<g opacity="0.08">
<path d="M246.341 39.5063L239.171 35.4787L232 39.5063L232 34.0275L239.171 29.9999L246.341 34.0275L246.341 39.5063Z" fill="#0089FF"/>
<path opacity="0.55" d="M246.341 48.1116L239.171 44.0839L232 48.1116L232 42.6329L239.171 38.6052L246.341 42.6329L246.341 48.1116Z" fill="#0089FF"/>
<path opacity="0.25" d="M246.341 56.7168L239.171 52.6893L232 56.7168L232 51.2381L239.171 47.2105L246.341 51.2381L246.341 56.7168Z" fill="#0089FF"/>
</g>
<circle cx="86" cy="58" r="18" fill="#0089FF"/>
<path d="M90.4219 63H89.0684V54.0244H84.3857V63H83.0322V52.8213H90.4219V63Z" fill="#D7E2F2"/>
<path d="M5 21H51.7901V108.089C51.7901 109.746 50.447 111.089 48.7901 111.089H8C6.34315 111.089 5 109.746 5 108.089V21Z" fill="#303549" fill-opacity="0.25"/>
<rect x="7.87097" y="27.0327" width="0.688055" height="68.9427" rx="0.344028" fill="#E8E6DD"/>
<path d="M7.87097 55.0728H8.55903V106.488C8.55903 106.678 8.405 106.832 8.215 106.832C8.025 106.832 7.87097 106.678 7.87097 106.488V55.0728Z" fill="#0089FF"/>
<path opacity="0.2" d="M8.55908 93.9639L8.55908 55.0728L49.5495 55.0728L49.5495 93.9639L8.55908 93.9639Z" fill="#0089FF"/>
<path d="M8.55908 93.9639L8.55908 106.832L49.5495 106.832L49.5495 93.9639L8.55908 93.9639Z" fill="#0C5395"/>
<rect x="8.21497" y="93.9639" width="0.520033" height="2.08789" rx="0.260017" transform="rotate(-90 8.21497 93.9639)" fill="#0089FF"/>
<rect x="8.21497" y="88.0605" width="0.520033" height="2.08789" rx="0.260017" transform="rotate(-90 8.21497 88.0605)" fill="#0089FF"/>
<rect x="8.21497" y="82.1575" width="0.520033" height="2.08789" rx="0.260017" transform="rotate(-90 8.21497 82.1575)" fill="#0089FF"/>
<rect x="8.21497" y="76.2539" width="0.520033" height="2.08789" rx="0.260017" transform="rotate(-90 8.21497 76.2539)" fill="#0089FF"/>
<rect x="8.21497" y="70.3511" width="0.520033" height="2.08789" rx="0.260017" transform="rotate(-90 8.21497 70.3511)" fill="#0089FF"/>
<rect x="8.21497" y="64.4475" width="0.520033" height="2.08789" rx="0.260017" transform="rotate(-90 8.21497 64.4475)" fill="#0089FF"/>
<rect x="8.21497" y="58.5444" width="0.520033" height="2.08789" rx="0.260017" transform="rotate(-90 8.21497 58.5444)" fill="#0089FF"/>
<rect x="8.21497" y="91.0122" width="0.520033" height="2.08789" rx="0.260017" transform="rotate(-90 8.21497 91.0122)" fill="#0089FF"/>
<rect x="8.21497" y="85.1086" width="0.520033" height="2.08789" rx="0.260017" transform="rotate(-90 8.21497 85.1086)" fill="#0089FF"/>
<rect x="8.21497" y="79.2058" width="0.520033" height="2.08789" rx="0.260017" transform="rotate(-90 8.21497 79.2058)" fill="#0089FF"/>
<rect x="8.21497" y="73.3022" width="0.520033" height="2.08789" rx="0.260017" transform="rotate(-90 8.21497 73.3022)" fill="#0089FF"/>
<rect x="8.21497" y="67.3992" width="0.520033" height="2.08789" rx="0.260017" transform="rotate(-90 8.21497 67.3992)" fill="#0089FF"/>
<rect x="8.21497" y="61.4958" width="0.520033" height="2.08789" rx="0.260017" transform="rotate(-90 8.21497 61.4958)" fill="#0089FF"/>
<rect x="8.21497" y="92.488" width="0.520033" height="2.08789" rx="0.260017" transform="rotate(-90 8.21497 92.488)" fill="#0089FF"/>
<rect x="8.21497" y="98.3911" width="0.520033" height="2.08789" rx="0.260017" transform="rotate(-90 8.21497 98.3911)" fill="#0089FF"/>
<rect x="8.21497" y="95.4399" width="0.520033" height="2.08789" rx="0.260017" transform="rotate(-90 8.21497 95.4399)" fill="#0089FF"/>
<rect x="8.21497" y="96.915" width="0.520033" height="2.08789" rx="0.260017" transform="rotate(-90 8.21497 96.915)" fill="#0089FF"/>
<rect x="8.21497" y="103.13" width="0.520033" height="2.08789" rx="0.260017" transform="rotate(-90 8.21497 103.13)" fill="#0089FF"/>
<rect x="8.21497" y="104.86" width="0.520033" height="2.08789" rx="0.260017" transform="rotate(-90 8.21497 104.86)" fill="#0089FF"/>
<rect x="8.21497" y="106.832" width="0.520033" height="2.08789" rx="0.260017" transform="rotate(-90 8.21497 106.832)" fill="#0089FF"/>
<rect x="8.21497" y="99.8669" width="0.520033" height="2.08789" rx="0.260017" transform="rotate(-90 8.21497 99.8669)" fill="#0089FF"/>
<rect x="8.21497" y="101.343" width="0.520033" height="2.08789" rx="0.260017" transform="rotate(-90 8.21497 101.343)" fill="#0089FF"/>
<rect x="8.21497" y="86.5845" width="0.520033" height="2.08789" rx="0.260017" transform="rotate(-90 8.21497 86.5845)" fill="#0089FF"/>
<rect x="8.21497" y="80.6816" width="0.520033" height="2.08789" rx="0.260017" transform="rotate(-90 8.21497 80.6816)" fill="#0089FF"/>
<rect x="8.21497" y="74.7781" width="0.520033" height="2.08789" rx="0.260017" transform="rotate(-90 8.21497 74.7781)" fill="#0089FF"/>
<rect x="8.21497" y="68.8752" width="0.520033" height="2.08789" rx="0.260017" transform="rotate(-90 8.21497 68.8752)" fill="#0089FF"/>
<rect x="8.21497" y="62.9717" width="0.520033" height="2.08789" rx="0.260017" transform="rotate(-90 8.21497 62.9717)" fill="#0089FF"/>
<rect x="8.21497" y="57.0686" width="0.520033" height="2.08789" rx="0.260017" transform="rotate(-90 8.21497 57.0686)" fill="#0089FF"/>
<rect x="8.21497" y="89.5364" width="0.520033" height="2.08789" rx="0.260017" transform="rotate(-90 8.21497 89.5364)" fill="#0089FF"/>
<rect x="8.21497" y="83.6333" width="0.520033" height="2.08789" rx="0.260017" transform="rotate(-90 8.21497 83.6333)" fill="#0089FF"/>
<rect x="8.21497" y="77.7297" width="0.520033" height="2.08789" rx="0.260017" transform="rotate(-90 8.21497 77.7297)" fill="#0089FF"/>
<rect x="8.21497" y="71.8269" width="0.520033" height="2.08789" rx="0.260017" transform="rotate(-90 8.21497 71.8269)" fill="#0089FF"/>
<rect x="8.21497" y="65.9233" width="0.520033" height="2.08789" rx="0.260017" transform="rotate(-90 8.21497 65.9233)" fill="#0089FF"/>
<rect x="8.21497" y="60.0205" width="0.520033" height="2.08789" rx="0.260017" transform="rotate(-90 8.21497 60.0205)" fill="#0089FF"/>
<rect x="8.21497" y="52.6411" width="0.520033" height="2.08789" rx="0.260017" transform="rotate(-90 8.21497 52.6411)" fill="#E8E6DD"/>
<rect x="8.21497" y="46.738" width="0.520033" height="2.08789" rx="0.260017" transform="rotate(-90 8.21497 46.738)" fill="#E8E6DD"/>
<rect x="8.21497" y="55.5928" width="0.520033" height="2.08789" rx="0.260017" transform="rotate(-90 8.21497 55.5928)" fill="#0089FF"/>
<rect x="8.21497" y="49.6892" width="0.520033" height="2.08789" rx="0.260017" transform="rotate(-90 8.21497 49.6892)" fill="#E8E6DD"/>
<rect x="8.21497" y="51.165" width="0.520033" height="2.08789" rx="0.260017" transform="rotate(-90 8.21497 51.165)" fill="#E8E6DD"/>
<rect x="8.21497" y="45.2622" width="0.520033" height="2.08789" rx="0.260017" transform="rotate(-90 8.21497 45.2622)" fill="#E8E6DD"/>
<rect x="8.21497" y="54.1169" width="0.520033" height="2.08789" rx="0.260017" transform="rotate(-90 8.21497 54.1169)" fill="#E8E6DD"/>
<rect x="8.21497" y="48.2139" width="0.520033" height="2.08789" rx="0.260017" transform="rotate(-90 8.21497 48.2139)" fill="#E8E6DD"/>
<rect x="8.21497" y="39.3591" width="0.520033" height="2.08789" rx="0.260017" transform="rotate(-90 8.21497 39.3591)" fill="#E8E6DD"/>
<rect x="8.21497" y="42.3103" width="0.520033" height="2.08789" rx="0.260017" transform="rotate(-90 8.21497 42.3103)" fill="#E8E6DD"/>
<rect x="8.21497" y="43.7864" width="0.520033" height="2.08789" rx="0.260017" transform="rotate(-90 8.21497 43.7864)" fill="#E8E6DD"/>
<rect x="8.21497" y="40.8345" width="0.520033" height="2.08789" rx="0.260017" transform="rotate(-90 8.21497 40.8345)" fill="#E8E6DD"/>
<rect x="8.21497" y="37.8833" width="0.520033" height="2.08789" rx="0.260017" transform="rotate(-90 8.21497 37.8833)" fill="#E8E6DD"/>
<rect x="8.21497" y="31.9805" width="0.520033" height="2.08789" rx="0.260017" transform="rotate(-90 8.21497 31.9805)" fill="#E8E6DD"/>
<rect x="8.21497" y="34.9321" width="0.520033" height="2.08789" rx="0.260017" transform="rotate(-90 8.21497 34.9321)" fill="#E8E6DD"/>
<rect x="8.21497" y="36.4075" width="0.520033" height="2.08789" rx="0.260017" transform="rotate(-90 8.21497 36.4075)" fill="#E8E6DD"/>
<rect x="8.21497" y="33.4563" width="0.520033" height="2.08789" rx="0.260017" transform="rotate(-90 8.21497 33.4563)" fill="#E8E6DD"/>
<rect x="8.21497" y="27.5527" width="0.520033" height="2.08789" rx="0.260017" transform="rotate(-90 8.21497 27.5527)" fill="#E8E6DD"/>
<rect x="8.21497" y="30.5044" width="0.520033" height="2.08789" rx="0.260017" transform="rotate(-90 8.21497 30.5044)" fill="#E8E6DD"/>
<rect x="8.21497" y="29.0286" width="0.520033" height="2.08789" rx="0.260017" transform="rotate(-90 8.21497 29.0286)" fill="#E8E6DD"/>
<path d="M19.3403 68.6545H16.1499V67.9866H17.3364V63.6008H16.1499V63.0032C16.5981 63.0032 16.9277 62.9402 17.1387 62.8142C17.3525 62.6853 17.4727 62.4436 17.499 62.0891H18.1802V67.9866H19.3403V68.6545ZM22.3154 62.7351C22.1572 62.7351 21.999 62.7542 21.8408 62.7922C21.6826 62.8303 21.5273 62.8801 21.375 62.9417C21.2344 63.0002 21.1113 63.0618 21.0059 63.1262C20.9033 63.1907 20.811 63.2507 20.729 63.3064H20.6763V62.3792C20.8667 62.2766 21.1245 62.1843 21.4497 62.1023C21.7778 62.0173 22.0898 61.9749 22.3857 61.9749C22.6816 61.9749 22.9395 62.0056 23.1592 62.0671C23.3818 62.1257 23.5825 62.218 23.7612 62.344C23.9546 62.4846 24.0996 62.6545 24.1963 62.8538C24.2959 63.053 24.3457 63.2859 24.3457 63.5525C24.3457 63.9128 24.2271 64.2292 23.9897 64.5017C23.7524 64.7742 23.4683 64.947 23.1372 65.0203V65.0818C23.2749 65.1082 23.4214 65.1536 23.5767 65.218C23.7349 65.2825 23.8813 65.3777 24.0161 65.5037C24.1509 65.6296 24.2607 65.7922 24.3457 65.9915C24.4307 66.1877 24.4731 66.428 24.4731 66.7122C24.4731 67.0081 24.4219 67.2805 24.3193 67.5295C24.2197 67.7756 24.0776 67.9939 23.8931 68.1843C23.7026 68.3835 23.4727 68.5344 23.2031 68.637C22.9336 68.7395 22.6274 68.7908 22.2847 68.7908C21.9565 68.7908 21.6313 68.7512 21.3091 68.6721C20.9868 68.593 20.7158 68.4978 20.4961 68.3865V67.4592H20.5576C20.7422 67.594 20.9897 67.7229 21.3003 67.8459C21.6108 67.969 21.9214 68.0305 22.2319 68.0305C22.4106 68.0305 22.5894 68.0027 22.7681 67.947C22.9497 67.8884 23.1006 67.7947 23.2207 67.6658C23.3379 67.5369 23.4272 67.3948 23.4888 67.2395C23.5503 67.0842 23.5811 66.8879 23.5811 66.6506C23.5811 66.4133 23.5459 66.2185 23.4756 66.0662C23.4082 65.9138 23.313 65.7937 23.1899 65.7058C23.0669 65.6179 22.9204 65.5579 22.7505 65.5256C22.5835 65.4905 22.4019 65.4729 22.2056 65.4729H21.832V64.7434H22.1221C22.5176 64.7434 22.8384 64.6497 23.0845 64.4622C23.3335 64.2747 23.458 64.0022 23.458 63.6448C23.458 63.4807 23.4258 63.3401 23.3613 63.2229C23.2969 63.1028 23.2148 63.0076 23.1152 62.9373C23.0039 62.8611 22.8809 62.8083 22.7461 62.7791C22.6113 62.7498 22.4678 62.7351 22.3154 62.7351ZM29.1665 68.6545H25.9761V67.9866H27.1626V63.6008H25.9761V63.0032C26.4243 63.0032 26.7539 62.9402 26.9648 62.8142C27.1787 62.6853 27.2988 62.4436 27.3252 62.0891H28.0063V67.9866H29.1665V68.6545ZM31.7812 68.6545H30.731V67.4021H31.7812V68.6545ZM36.8042 68.6545H33.6138V67.9866H34.8003V63.6008H33.6138V63.0032C34.062 63.0032 34.3916 62.9402 34.6025 62.8142C34.8164 62.6853 34.9365 62.4436 34.9629 62.0891H35.644V67.9866H36.8042V68.6545Z" fill="white"/>
<path d="M5 8C5 6.89543 5.89543 6 7 6H49.7901C50.8947 6 51.7901 6.89543 51.7901 8V20.678H5V8Z" fill="#303549"/>
<path d="M39.3248 17.6541C38.8971 17.6541 38.5031 17.5823 38.1427 17.4387C37.7853 17.2952 37.4762 17.0813 37.2155 16.7971C36.9547 16.5129 36.7526 16.1584 36.609 15.7336C36.4655 15.3088 36.3937 14.821 36.3937 14.2703C36.3937 13.7224 36.4625 13.2449 36.6002 12.8376C36.7408 12.4304 36.9445 12.0759 37.2111 11.7742C37.4718 11.4812 37.7809 11.2585 38.1383 11.1062C38.4957 10.9509 38.8956 10.8733 39.338 10.8733C39.5577 10.8733 39.7628 10.8894 39.9532 10.9216C40.1466 10.9539 40.3253 10.9949 40.4894 11.0447C40.63 11.0886 40.7736 11.1443 40.92 11.2117C41.0695 11.2761 41.2159 11.3479 41.3595 11.427V12.4773H41.2892C41.213 12.407 41.1149 12.322 40.9948 12.2224C40.8746 12.1228 40.7281 12.0247 40.5553 11.928C40.3883 11.8372 40.2067 11.7625 40.0104 11.7039C39.8141 11.6453 39.587 11.616 39.3292 11.616C39.0509 11.616 38.7872 11.6731 38.5382 11.7874C38.2892 11.9016 38.0709 12.0701 37.8834 12.2927C37.6989 12.5154 37.5553 12.7952 37.4528 13.1321C37.3502 13.469 37.299 13.8484 37.299 14.2703C37.299 14.7185 37.3531 15.1052 37.4615 15.4304C37.5699 15.7527 37.7179 16.0251 37.9054 16.2478C38.087 16.4646 38.3009 16.6287 38.547 16.74C38.7931 16.8484 39.0538 16.9026 39.3292 16.9026C39.5812 16.9026 39.8141 16.8718 40.028 16.8103C40.2418 16.7488 40.4323 16.6711 40.5992 16.5774C40.7604 16.4866 40.8995 16.3943 41.0167 16.3005C41.1339 16.2039 41.2262 16.1218 41.2936 16.0544H41.3595V17.0916C41.2159 17.1589 41.0797 17.2234 40.9508 17.2849C40.8248 17.3464 40.671 17.4065 40.4894 17.4651C40.299 17.5266 40.1217 17.5735 39.9576 17.6057C39.7965 17.6379 39.5856 17.6541 39.3248 17.6541ZM47.7799 17.5354H46.9098V11.8972L45.2047 15.7336H44.6774L42.9855 11.8972V17.5354H42.1725V10.9919H43.359L44.9938 14.635L46.5714 10.9919H47.7799V17.5354Z" fill="#8C99B2"/>
<path d="M14.8313 15.5271C14.8313 15.8523 14.7698 16.1394 14.6467 16.3884C14.5237 16.6375 14.3582 16.8425 14.1501 17.0037C13.9041 17.197 13.6404 17.3347 13.3591 17.4167C13.0779 17.4958 12.7146 17.5354 12.2693 17.5354H10.3928V10.9919H12.1287C12.5945 10.9919 12.9431 11.0081 13.1746 11.0403C13.4089 11.0696 13.6331 11.1414 13.8469 11.2556C14.0813 11.3816 14.2527 11.5471 14.3611 11.7522C14.4695 11.9543 14.5237 12.1931 14.5237 12.4685C14.5237 12.7761 14.4417 13.0515 14.2776 13.2947C14.1165 13.5378 13.8923 13.7283 13.6052 13.866V13.9011C13.9949 14.0066 14.2966 14.2 14.5105 14.4812C14.7244 14.7595 14.8313 15.1082 14.8313 15.5271ZM13.6184 12.5916C13.6184 12.4333 13.592 12.2971 13.5393 12.1829C13.4866 12.0657 13.4016 11.9734 13.2844 11.906C13.1438 11.8269 12.9871 11.7786 12.8142 11.761C12.6414 11.7434 12.4026 11.7346 12.0979 11.7346H11.2629V13.6506H12.2517C12.5242 13.6506 12.7249 13.6375 12.8538 13.6111C12.9827 13.5818 13.116 13.5232 13.2537 13.4353C13.3855 13.3503 13.4792 13.239 13.5349 13.1013C13.5906 12.9636 13.6184 12.7937 13.6184 12.5916ZM13.926 15.5623C13.926 15.3162 13.8909 15.114 13.8206 14.9558C13.7502 14.7947 13.6082 14.6584 13.3943 14.5471C13.2566 14.4739 13.1057 14.427 12.9417 14.4065C12.7805 14.386 12.5505 14.3757 12.2517 14.3757H11.2629V16.7927H11.9705C12.3513 16.7927 12.6516 16.7751 12.8713 16.74C13.0911 16.7048 13.2844 16.6301 13.4514 16.5159C13.6155 16.4016 13.7356 16.2727 13.8118 16.1292C13.8879 15.9827 13.926 15.7937 13.926 15.5623ZM18.8875 16.1775C18.8875 16.4529 18.8274 16.6858 18.7073 16.8762C18.5872 17.0667 18.4333 17.2175 18.2458 17.3289C18.0671 17.4373 17.8635 17.5178 17.635 17.5706C17.4065 17.6233 17.178 17.6497 16.9495 17.6497C16.6272 17.6497 16.3225 17.6174 16.0354 17.553C15.7483 17.4915 15.4626 17.3918 15.1785 17.2542V16.3401H15.2312C15.4304 16.5247 15.6794 16.6711 15.9783 16.7795C16.28 16.885 16.5803 16.9377 16.8792 16.9377C17.0081 16.9377 17.1458 16.9246 17.2922 16.8982C17.4417 16.8689 17.5676 16.825 17.6702 16.7664C17.8049 16.6843 17.9001 16.5964 17.9558 16.5027C18.0144 16.4089 18.0437 16.28 18.0437 16.116C18.0437 15.9402 18.01 15.7996 17.9426 15.6941C17.8782 15.5857 17.7888 15.5051 17.6746 15.4524C17.5603 15.3997 17.4314 15.3674 17.2878 15.3557C17.1472 15.3411 16.9978 15.3337 16.8396 15.3337H16.2595V14.6218H16.7034C16.8147 14.6218 16.9539 14.6189 17.1208 14.613C17.2878 14.6042 17.4211 14.5808 17.5208 14.5427C17.6467 14.4958 17.7478 14.4299 17.824 14.345C17.9001 14.2571 17.9382 14.1106 17.9382 13.9055C17.9382 13.762 17.906 13.6462 17.8416 13.5583C17.7771 13.4705 17.6965 13.4016 17.5999 13.3518C17.5002 13.2991 17.3918 13.2639 17.2747 13.2463C17.1575 13.2258 17.0447 13.2156 16.9363 13.2156C16.658 13.2156 16.3899 13.2551 16.1321 13.3342C15.8772 13.4104 15.6575 13.5247 15.4729 13.677H15.4202V12.7849C15.6311 12.7117 15.864 12.6472 16.1189 12.5916C16.3767 12.5359 16.6345 12.5081 16.8923 12.5081C17.1003 12.5081 17.3113 12.53 17.5251 12.574C17.7419 12.615 17.947 12.6868 18.1404 12.7893C18.322 12.8889 18.4744 13.0266 18.5974 13.2024C18.7205 13.3752 18.782 13.5876 18.782 13.8396C18.782 14.1062 18.7058 14.3406 18.5535 14.5427C18.4041 14.7419 18.2048 14.8738 17.9558 14.9382V14.969C18.2283 15.0627 18.4509 15.2063 18.6238 15.3997C18.7996 15.593 18.8875 15.8523 18.8875 16.1775ZM23.5588 17.5354H22.7327V13.321H21.0452C21.0364 13.5642 21.0276 13.7986 21.0188 14.0242C21.01 14.2468 21.0012 14.449 20.9924 14.6306C20.9749 15.0906 20.9441 15.4758 20.9001 15.7864C20.8591 16.0969 20.8064 16.3459 20.7419 16.5334C20.6775 16.7268 20.6057 16.8777 20.5266 16.9861C20.4504 17.0945 20.364 17.1926 20.2673 17.2805C20.1677 17.3684 20.0608 17.4343 19.9465 17.4783C19.8323 17.5222 19.7034 17.5442 19.5598 17.5442C19.5129 17.5442 19.4529 17.5427 19.3796 17.5398C19.3064 17.5369 19.2551 17.5354 19.2258 17.5354V16.8147H19.2698C19.2903 16.8147 19.3108 16.8162 19.3313 16.8191C19.3547 16.822 19.3811 16.8235 19.4104 16.8235C19.4807 16.8235 19.5496 16.8132 19.6169 16.7927C19.6843 16.7722 19.7444 16.7341 19.7971 16.6785C19.9436 16.5349 20.0505 16.2844 20.1179 15.927C20.1853 15.5667 20.2336 15.0642 20.2629 14.4197C20.2747 14.1794 20.2849 13.8953 20.2937 13.5671C20.3054 13.239 20.3157 12.9255 20.3245 12.6267H23.5588V17.5354ZM28.6345 17.5354H27.8171V13.8748L25.5056 17.5354H24.7585V12.6267H25.5759V16.2302L27.8611 12.6267H28.6345V17.5354ZM33.6794 16.05C33.6794 16.2874 33.634 16.4983 33.5432 16.6829C33.4524 16.8645 33.3279 17.0168 33.1697 17.1399C32.9705 17.2952 32.761 17.4006 32.5413 17.4563C32.3245 17.509 32.0637 17.5354 31.759 17.5354H29.8298V12.6267H31.6316C31.9919 12.6267 32.2556 12.6384 32.4226 12.6619C32.5896 12.6824 32.7551 12.738 32.9192 12.8289C33.092 12.9226 33.2195 13.0471 33.3015 13.2024C33.3835 13.3577 33.4246 13.5422 33.4246 13.7561C33.4246 13.9905 33.3601 14.2014 33.2312 14.3889C33.1023 14.5735 32.9309 14.717 32.717 14.8196L32.739 14.8503C33.0056 14.9177 33.2283 15.054 33.407 15.259C33.5886 15.4641 33.6794 15.7278 33.6794 16.05ZM32.5764 13.8835C32.5764 13.7722 32.5574 13.6755 32.5193 13.5935C32.4841 13.5115 32.4211 13.447 32.3303 13.4001C32.2249 13.3445 32.1062 13.3123 31.9744 13.3035C31.8455 13.2917 31.6653 13.2859 31.4338 13.2859H30.6472V14.6306H31.5964C31.7986 14.6306 31.9421 14.6218 32.0271 14.6042C32.1121 14.5837 32.2058 14.5427 32.3083 14.4812C32.405 14.4226 32.4739 14.3435 32.5149 14.2439C32.5559 14.1443 32.5764 14.0242 32.5764 13.8835ZM32.8269 16.0544C32.8269 15.8875 32.802 15.7542 32.7522 15.6545C32.7053 15.552 32.5999 15.4612 32.4358 15.3821C32.3333 15.3323 32.2234 15.3015 32.1062 15.2898C31.989 15.2781 31.8264 15.2722 31.6184 15.2722H30.6472V16.8762H31.3635C31.6594 16.8762 31.8894 16.8645 32.0535 16.8411C32.2175 16.8176 32.3582 16.7708 32.4753 16.7004C32.5984 16.6243 32.6877 16.5364 32.7434 16.4368C32.7991 16.3372 32.8269 16.2097 32.8269 16.0544ZM36.1492 16.283L34.9187 19.1614H34.2771L35.0505 16.283H36.1492Z" fill="#8C99B2"/>
<path d="M19.3345 31.8794H16.144V31.2114H17.3306V26.8257H16.144V26.228C16.5923 26.228 16.9219 26.165 17.1328 26.0391C17.3467 25.9102 17.4668 25.6685 17.4932 25.314H18.1743V31.2114H19.3345V31.8794ZM23.6279 26.8608C23.6279 26.5679 23.5298 26.3232 23.3335 26.127C23.1372 25.9307 22.8647 25.8325 22.5161 25.8325C22.1968 25.8325 21.9346 25.9204 21.7295 26.0962C21.5273 26.272 21.4263 26.5093 21.4263 26.8081C21.4263 27.0249 21.4775 27.208 21.5801 27.3574C21.6855 27.5068 21.8423 27.6416 22.0503 27.7617C22.1411 27.8115 22.2788 27.8804 22.4634 27.9683C22.6509 28.0562 22.8208 28.125 22.9731 28.1748C23.228 27.9785 23.4009 27.7778 23.4917 27.5728C23.5825 27.3647 23.6279 27.1274 23.6279 26.8608ZM23.751 30.1392C23.751 29.8696 23.6982 29.6558 23.5928 29.4976C23.4873 29.3394 23.2837 29.1782 22.9819 29.0142C22.8823 28.9585 22.749 28.8984 22.582 28.834C22.418 28.7695 22.2319 28.6934 22.0239 28.6055C21.7808 28.7666 21.5947 28.9658 21.4658 29.2031C21.3369 29.4375 21.2725 29.7056 21.2725 30.0073C21.2725 30.4028 21.3911 30.7295 21.6284 30.9873C21.8687 31.2451 22.1689 31.374 22.5293 31.374C22.8984 31.374 23.1943 31.2642 23.417 31.0444C23.6396 30.8218 23.751 30.52 23.751 30.1392ZM22.5205 32.0288C22.1953 32.0288 21.8994 31.9805 21.6328 31.8838C21.3662 31.7871 21.1392 31.6479 20.9517 31.4663C20.7671 31.2905 20.6265 31.0825 20.5298 30.8423C20.436 30.5991 20.3892 30.3428 20.3892 30.0732C20.3892 29.7188 20.4829 29.3936 20.6704 29.0977C20.8608 28.7988 21.1362 28.5615 21.4966 28.3857V28.3594C21.1743 28.1719 20.9355 27.9668 20.7803 27.7441C20.625 27.5215 20.5474 27.2432 20.5474 26.9092C20.5474 26.417 20.7334 26.0068 21.1055 25.6787C21.4775 25.3506 21.9492 25.1865 22.5205 25.1865C23.1152 25.1865 23.5913 25.3433 23.9487 25.6567C24.3091 25.9673 24.4893 26.3657 24.4893 26.8521C24.4893 27.145 24.4028 27.4351 24.23 27.7222C24.0601 28.0093 23.814 28.2334 23.4917 28.3945V28.4209C23.8726 28.5996 24.1611 28.8164 24.3574 29.0713C24.5537 29.3262 24.6519 29.6543 24.6519 30.0557C24.6519 30.6152 24.4482 31.084 24.041 31.4619C23.6367 31.8398 23.1299 32.0288 22.5205 32.0288ZM29.5254 28.6055C29.5254 29.7803 29.354 30.6431 29.0112 31.1938C28.6714 31.7417 28.1455 32.0156 27.4336 32.0156C26.7129 32.0156 26.1841 31.7358 25.8472 31.1763C25.5103 30.6167 25.3418 29.7627 25.3418 28.6143C25.3418 27.4336 25.5117 26.5708 25.8516 26.0259C26.1943 25.478 26.7217 25.2041 27.4336 25.2041C28.1543 25.2041 28.6831 25.4868 29.02 26.0522C29.3569 26.6177 29.5254 27.4688 29.5254 28.6055ZM28.4004 30.6006C28.4854 30.3838 28.5454 30.1099 28.5806 29.7788C28.6157 29.4478 28.6333 29.0566 28.6333 28.6055C28.6333 28.1572 28.6157 27.7676 28.5806 27.4365C28.5454 27.1055 28.4839 26.8301 28.396 26.6104C28.3081 26.3877 28.1865 26.2192 28.0312 26.105C27.8789 25.9878 27.6797 25.9292 27.4336 25.9292C27.1904 25.9292 26.9897 25.9878 26.8315 26.105C26.6763 26.2192 26.5532 26.3906 26.4624 26.6191C26.3745 26.8418 26.3145 27.123 26.2822 27.4629C26.25 27.8027 26.2339 28.1865 26.2339 28.6143C26.2339 29.0713 26.2471 29.4536 26.2734 29.7612C26.3027 30.0688 26.3643 30.3442 26.458 30.5874C26.543 30.813 26.6631 30.9873 26.8184 31.1104C26.9766 31.2305 27.1816 31.2905 27.4336 31.2905C27.6768 31.2905 27.876 31.2334 28.0312 31.1191C28.1895 31.002 28.3125 30.8291 28.4004 30.6006Z" fill="#D7E2F2"/>
<path d="M19.6685 102.173H15.6299V101.255C15.9199 100.979 16.1938 100.716 16.4517 100.464C16.7095 100.212 16.9614 99.9495 17.2075 99.677C17.7056 99.1292 18.0454 98.6912 18.2271 98.363C18.4087 98.032 18.4995 97.6907 18.4995 97.3391C18.4995 97.1575 18.4702 96.9978 18.4116 96.8601C18.356 96.7224 18.2783 96.6082 18.1787 96.5173C18.0762 96.4294 17.9575 96.3635 17.8228 96.3196C17.688 96.2756 17.54 96.2537 17.3789 96.2537C17.2236 96.2537 17.0654 96.2742 16.9043 96.3152C16.7461 96.3533 16.5938 96.4016 16.4473 96.4602C16.3242 96.51 16.2056 96.5701 16.0913 96.6404C15.9771 96.7107 15.8848 96.7708 15.8145 96.8206H15.7661V95.8889C15.9478 95.7981 16.1997 95.7102 16.522 95.6252C16.8472 95.5374 17.1548 95.4934 17.4448 95.4934C18.0542 95.4934 18.5317 95.656 18.8774 95.9812C19.2231 96.3035 19.396 96.7415 19.396 97.2952C19.396 97.55 19.3652 97.7859 19.3037 98.0027C19.2451 98.2195 19.1631 98.4202 19.0576 98.6047C18.9492 98.7952 18.8188 98.9841 18.6665 99.1716C18.5142 99.3591 18.353 99.5437 18.1831 99.7253C17.9077 100.024 17.6001 100.335 17.2603 100.657C16.9233 100.979 16.6538 101.234 16.4517 101.422H19.6685V102.173ZM24.6123 98.8992C24.6123 100.074 24.4409 100.937 24.0981 101.488C23.7583 102.035 23.2324 102.309 22.5205 102.309C21.7998 102.309 21.271 102.03 20.9341 101.47C20.5972 100.91 20.4287 100.056 20.4287 98.908C20.4287 97.7273 20.5986 96.8645 20.9385 96.3196C21.2812 95.7717 21.8086 95.4978 22.5205 95.4978C23.2412 95.4978 23.77 95.7805 24.1069 96.3459C24.4438 96.9114 24.6123 97.7625 24.6123 98.8992ZM23.4873 100.894C23.5723 100.677 23.6323 100.404 23.6675 100.073C23.7026 99.7415 23.7202 99.3503 23.7202 98.8992C23.7202 98.4509 23.7026 98.0613 23.6675 97.7302C23.6323 97.3992 23.5708 97.1238 23.4829 96.9041C23.395 96.6814 23.2734 96.5129 23.1182 96.3987C22.9658 96.2815 22.7666 96.2229 22.5205 96.2229C22.2773 96.2229 22.0767 96.2815 21.9185 96.3987C21.7632 96.5129 21.6401 96.6843 21.5493 96.9128C21.4614 97.1355 21.4014 97.4167 21.3691 97.7566C21.3369 98.0964 21.3208 98.4802 21.3208 98.908C21.3208 99.365 21.334 99.7473 21.3604 100.055C21.3896 100.363 21.4512 100.638 21.5449 100.881C21.6299 101.107 21.75 101.281 21.9053 101.404C22.0635 101.524 22.2686 101.584 22.5205 101.584C22.7637 101.584 22.9629 101.527 23.1182 101.413C23.2764 101.296 23.3994 101.123 23.4873 100.894Z" fill="#D7E2F2"/>
<path d="M283.108 20.696H318.906V108C318.906 109.657 317.563 111 315.906 111H286.108C284.451 111 283.108 109.657 283.108 108V20.696Z" fill="#303549" fill-opacity="0.25"/>
<rect x="299.72" y="26.739" width="2.81507" height="60.6561" rx="1.40754" stroke="#292D3F"/>
<rect x="297.494" y="84.145" width="7.26685" height="7.26685" rx="3.63343" fill="#222634" stroke="#292D3F"/>
<rect x="299.941" y="80.5635" width="2.30748" height="4.81131" fill="#222634"/>
<circle cx="301.128" cy="87.8948" r="1.6795" fill="#00A99D"/>
<rect x="300.525" y="40.2197" width="1.20088" height="47.6756" rx="0.60044" fill="url(#paint4_linear)"/>
<path d="M283 8C283 6.89543 283.895 6 285 6H316.906C318.01 6 318.906 6.89543 318.906 8V20.6962H283V8Z" fill="#303549"/>
<path d="M309.792 12.0122C309.792 12.481 309.631 12.8765 309.309 13.1987C308.987 13.521 308.59 13.6821 308.118 13.6821C307.652 13.6821 307.257 13.5225 306.932 13.2031C306.606 12.8838 306.444 12.4868 306.444 12.0122C306.444 11.5435 306.605 11.1479 306.927 10.8257C307.25 10.5034 307.646 10.3423 308.118 10.3423C308.59 10.3423 308.987 10.5034 309.309 10.8257C309.631 11.1479 309.792 11.5435 309.792 12.0122ZM309.103 12.0122C309.103 11.731 309.009 11.4937 308.821 11.3003C308.634 11.1069 308.399 11.0103 308.118 11.0103C307.837 11.0103 307.603 11.1069 307.415 11.3003C307.228 11.4937 307.134 11.731 307.134 12.0122C307.134 12.2993 307.229 12.5381 307.419 12.7285C307.613 12.9189 307.846 13.0142 308.118 13.0142C308.399 13.0142 308.634 12.9175 308.821 12.7241C309.009 12.5278 309.103 12.2905 309.103 12.0122ZM313.458 17.1187C313.03 17.1187 312.636 17.0469 312.275 16.9033C311.918 16.7598 311.609 16.5459 311.348 16.2617C311.087 15.9775 310.885 15.623 310.742 15.1982C310.598 14.7734 310.526 14.2856 310.526 13.7349C310.526 13.187 310.595 12.7095 310.733 12.3022C310.874 11.895 311.077 11.5405 311.344 11.2388C311.604 10.9458 311.914 10.7231 312.271 10.5708C312.628 10.4155 313.028 10.3379 313.471 10.3379C313.69 10.3379 313.896 10.354 314.086 10.3862C314.279 10.4185 314.458 10.4595 314.622 10.5093C314.763 10.5532 314.906 10.6089 315.053 10.6763C315.202 10.7407 315.349 10.8125 315.492 10.8916V11.9419H315.422C315.346 11.8716 315.248 11.7866 315.127 11.687C315.007 11.5874 314.861 11.4893 314.688 11.3926C314.521 11.3018 314.339 11.2271 314.143 11.1685C313.947 11.1099 313.72 11.0806 313.462 11.0806C313.184 11.0806 312.92 11.1377 312.671 11.252C312.422 11.3662 312.204 11.5347 312.016 11.7573C311.832 11.98 311.688 12.2598 311.585 12.5967C311.483 12.9336 311.432 13.313 311.432 13.7349C311.432 14.1831 311.486 14.5698 311.594 14.895C311.703 15.2173 311.851 15.4897 312.038 15.7124C312.22 15.9292 312.434 16.0933 312.68 16.2046C312.926 16.313 313.187 16.3672 313.462 16.3672C313.714 16.3672 313.947 16.3364 314.161 16.2749C314.375 16.2134 314.565 16.1357 314.732 16.042C314.893 15.9512 315.032 15.8589 315.149 15.7651C315.267 15.6685 315.359 15.5864 315.426 15.519H315.492V16.5562C315.349 16.6235 315.212 16.688 315.083 16.7495C314.958 16.811 314.804 16.8711 314.622 16.9297C314.432 16.9912 314.254 17.0381 314.09 17.0703C313.929 17.1025 313.718 17.1187 313.458 17.1187Z" fill="#8C99B2"/>
<path d="M289.193 17V11.23H286.996V10.4565H292.26V11.23H290.063V17H289.193ZM294.985 17.1143C294.203 17.1143 293.595 16.8945 293.161 16.4551C292.73 16.0127 292.515 15.3857 292.515 14.5742C292.515 13.7744 292.725 13.1387 293.144 12.667C293.562 12.1924 294.11 11.9551 294.787 11.9551C295.092 11.9551 295.361 11.999 295.596 12.0869C295.83 12.1748 296.035 12.3125 296.211 12.5C296.387 12.6875 296.521 12.9175 296.615 13.1899C296.709 13.4595 296.756 13.7905 296.756 14.1831V14.6313H293.354C293.354 15.2026 293.498 15.6392 293.785 15.9409C294.072 16.2427 294.469 16.3936 294.976 16.3936C295.158 16.3936 295.335 16.373 295.508 16.332C295.684 16.291 295.842 16.2383 295.982 16.1738C296.132 16.1064 296.258 16.042 296.36 15.9805C296.463 15.916 296.548 15.856 296.615 15.8003H296.664V16.7012C296.567 16.7393 296.447 16.7876 296.303 16.8462C296.16 16.9019 296.031 16.9458 295.917 16.978C295.755 17.022 295.609 17.0557 295.477 17.0791C295.348 17.1025 295.184 17.1143 294.985 17.1143ZM295.952 13.9985C295.946 13.7759 295.919 13.584 295.873 13.4229C295.826 13.2617 295.758 13.1255 295.67 13.0142C295.574 12.8911 295.449 12.7974 295.297 12.7329C295.147 12.6685 294.961 12.6362 294.739 12.6362C294.519 12.6362 294.332 12.6699 294.176 12.7373C294.024 12.8018 293.885 12.897 293.759 13.0229C293.636 13.1519 293.542 13.2954 293.478 13.4536C293.413 13.6089 293.372 13.7905 293.354 13.9985H295.952ZM302.144 17H301.326V13.1416L300.148 15.6465H299.533L298.364 13.1416V17H297.591V12.0913H298.588L299.88 14.8159L301.128 12.0913H302.144V17ZM304.626 17H303.576V15.7476H304.626V17Z" fill="#8C99B2"/>
<path d="M296.984 96.3523L294.154 101.916H293.218L296.215 96.1414H292.831V95.3723H296.984V96.3523ZM299.555 95.9963C299.396 95.9963 299.238 96.0154 299.08 96.0535C298.922 96.0916 298.766 96.1414 298.614 96.2029C298.473 96.2615 298.35 96.323 298.245 96.3875C298.142 96.4519 298.05 96.512 297.968 96.5676H297.915V95.6404C298.106 95.5378 298.364 95.4456 298.689 95.3635C299.017 95.2786 299.329 95.2361 299.625 95.2361C299.921 95.2361 300.179 95.2668 300.398 95.3284C300.621 95.387 300.822 95.4792 301 95.6052C301.194 95.7458 301.339 95.9158 301.435 96.115C301.535 96.3142 301.585 96.5471 301.585 96.8137C301.585 97.1741 301.466 97.4905 301.229 97.7629C300.992 98.0354 300.707 98.2083 300.376 98.2815V98.343C300.514 98.3694 300.66 98.4148 300.816 98.4792C300.974 98.5437 301.12 98.6389 301.255 98.7649C301.39 98.8909 301.5 99.0535 301.585 99.2527C301.67 99.449 301.712 99.6892 301.712 99.9734C301.712 100.269 301.661 100.542 301.558 100.791C301.459 101.037 301.317 101.255 301.132 101.446C300.942 101.645 300.712 101.796 300.442 101.898C300.173 102.001 299.867 102.052 299.524 102.052C299.196 102.052 298.87 102.012 298.548 101.933C298.226 101.854 297.955 101.759 297.735 101.648V100.72H297.797C297.981 100.855 298.229 100.984 298.539 101.107C298.85 101.23 299.16 101.292 299.471 101.292C299.65 101.292 299.828 101.264 300.007 101.208C300.189 101.15 300.34 101.056 300.46 100.927C300.577 100.798 300.666 100.656 300.728 100.501C300.789 100.345 300.82 100.149 300.82 99.9119C300.82 99.6746 300.785 99.4797 300.715 99.3274C300.647 99.175 300.552 99.0549 300.429 98.967C300.306 98.8792 300.16 98.8191 299.99 98.7869C299.823 98.7517 299.641 98.7341 299.445 98.7341H299.071V98.0046H299.361C299.757 98.0046 300.077 97.9109 300.324 97.7234C300.573 97.5359 300.697 97.2634 300.697 96.906C300.697 96.7419 300.665 96.6013 300.6 96.4841C300.536 96.364 300.454 96.2688 300.354 96.1985C300.243 96.1223 300.12 96.0696 299.985 96.0403C299.85 96.011 299.707 95.9963 299.555 95.9963ZM304.419 100.663L303.189 103.542H302.547L303.321 100.663H304.419ZM309.39 99.8328C309.39 100.149 309.338 100.442 309.236 100.712C309.136 100.981 308.995 101.214 308.814 101.41C308.629 101.61 308.399 101.766 308.124 101.881C307.851 101.995 307.545 102.052 307.205 102.052C306.892 102.052 306.583 102.017 306.278 101.947C305.976 101.879 305.714 101.79 305.492 101.678V100.751H305.553C305.62 100.801 305.717 100.858 305.843 100.923C305.969 100.984 306.108 101.043 306.261 101.098C306.433 101.16 306.592 101.208 306.735 101.243C306.879 101.276 307.04 101.292 307.219 101.292C307.394 101.292 307.566 101.261 307.733 101.199C307.9 101.135 308.043 101.032 308.163 100.892C308.272 100.763 308.354 100.612 308.41 100.439C308.468 100.266 308.497 100.063 308.497 99.8284C308.497 99.5969 308.465 99.4065 308.401 99.2571C308.339 99.1077 308.248 98.9846 308.128 98.8879C308.002 98.7766 307.847 98.699 307.662 98.655C307.481 98.6082 307.277 98.5847 307.052 98.5847C306.814 98.5847 306.576 98.6038 306.335 98.6418C306.095 98.677 305.903 98.7107 305.76 98.7429V95.3723H309.35V96.1414H306.608V97.8816C306.713 97.8699 306.817 97.8611 306.92 97.8552C307.022 97.8494 307.116 97.8464 307.201 97.8464C307.535 97.8464 307.818 97.8743 308.049 97.9299C308.281 97.9856 308.503 98.094 308.717 98.2551C308.934 98.4192 309.099 98.6243 309.214 98.8704C309.331 99.1165 309.39 99.4373 309.39 99.8328Z" fill="#D7E2F2"/>
<defs>
<linearGradient id="paint0_linear" x1="164.304" y1="21.1437" x2="142.557" y2="29.0474" gradientUnits="userSpaceOnUse">
<stop stop-color="#F2F0E7"/>
<stop offset="0.00760102" stop-color="#F0EEE5"/>
<stop offset="0.283885" stop-color="#CCC9C3"/>
<stop offset="0.548226" stop-color="#DBD8D1"/>
<stop offset="1" stop-color="#F2F0E7"/>
</linearGradient>
<linearGradient id="paint1_linear" x1="153.923" y1="20.1614" x2="151.381" y2="29.1422" gradientUnits="userSpaceOnUse">
<stop stop-color="#F2F0E7"/>
<stop offset="0.00760102" stop-color="#F0EEE5"/>
<stop offset="0.283885" stop-color="#CCC9C3"/>
<stop offset="0.548226" stop-color="#DBD8D1"/>
<stop offset="1" stop-color="#F2F0E7"/>
</linearGradient>
<linearGradient id="paint2_linear" x1="153.84" y1="31.9467" x2="157.591" y2="26.6579" gradientUnits="userSpaceOnUse">
<stop stop-color="#E4E1D8"/>
<stop offset="1" stop-color="#999792"/>
</linearGradient>
<linearGradient id="paint3_linear" x1="159.043" y1="33.2531" x2="163.388" y2="23.8019" gradientUnits="userSpaceOnUse">
<stop stop-color="#E4E1D8"/>
<stop offset="1" stop-color="#999792"/>
</linearGradient>
<linearGradient id="paint4_linear" x1="301.125" y1="40.2197" x2="301.125" y2="87.8953" gradientUnits="userSpaceOnUse">
<stop offset="0.0520833" stop-color="#FF0000"/>
<stop offset="0.463542" stop-color="#F4A321"/>
<stop offset="1" stop-color="#00A99D"/>
</linearGradient>
</defs>
</svg>
