<svg id="bbce2c4f-b58f-4459-8c0c-82a43f6b97c4" data-name="1" xmlns="http://www.w3.org/2000/svg" viewBox="0 0 324 116.75"><defs><style>.f84b63a4-21d0-4efe-b379-8a8b0b3bb62d{font-size:8.51px;}.acb16dc9-8135-48bd-a775-6b190555e69d,.f84b63a4-21d0-4efe-b379-8a8b0b3bb62d,.fe5a387c-cba8-4771-96dc-db4593217698{fill:#a2e2ff;}.a731e53c-80fb-4cdc-8ece-a4035b3097fa,.a9a67049-2ca2-4ca3-89fb-18a70e563a81,.ac00ac73-82fa-4d65-9732-62772b0b7507,.acb16dc9-8135-48bd-a775-6b190555e69d,.b7ec073a-bdf6-4afd-995f-1f2900e390df,.f84b63a4-21d0-4efe-b379-8a8b0b3bb62d{font-family:Tahoma;}.b0014587-51f3-43aa-9d5d-8579e457c2c2{font-size:5.67px;}.a1a0e4e1-2a10-447b-a260-e745d11e55cd,.a25d85d0-38f2-43fe-9737-82554c775a88{fill:#0d1014;}.a1a0e4e1-2a10-447b-a260-e745d11e55cd{fill-opacity:0.6;opacity:0.6;}.b7833000-97d4-49cb-a77c-d3193334e576{fill:#606580;}.ac00ac73-82fa-4d65-9732-62772b0b7507,.b7ec073a-bdf6-4afd-995f-1f2900e390df,.edbe2299-5eb3-49f4-b48c-d39f66931dbf,.fd3148f1-f412-4d37-8c11-db01bb419b11{fill:#fff;}.a731e53c-80fb-4cdc-8ece-a4035b3097fa,.a9a67049-2ca2-4ca3-89fb-18a70e563a81,.ba463cd4-b2a9-48ec-821a-8d0c3eef8992,.f5847dbf-85d0-4a3d-8ee0-75c30ef6eebd{fill:#f4a321;}.ba463cd4-b2a9-48ec-821a-8d0c3eef8992{opacity:0.8;}.a9a67049-2ca2-4ca3-89fb-18a70e563a81,.acb16dc9-8135-48bd-a775-6b190555e69d,.b7ec073a-bdf6-4afd-995f-1f2900e390df{font-size:9.93px;}.a731e53c-80fb-4cdc-8ece-a4035b3097fa,.ac00ac73-82fa-4d65-9732-62772b0b7507{font-size:7.09px;}.edbe2299-5eb3-49f4-b48c-d39f66931dbf{stroke:#1a1d26;}.edbe2299-5eb3-49f4-b48c-d39f66931dbf,.f6f7cdbb-27db-4df8-b3f7-9dbf5ccee083{stroke-miterlimit:10;}.f6f7cdbb-27db-4df8-b3f7-9dbf5ccee083{fill:none;stroke:#fff;stroke-width:0.5px;}</style></defs><title>Prew</title><text class="f84b63a4-21d0-4efe-b379-8a8b0b3bb62d" transform="translate(273.65 36.13)">100<tspan class="b0014587-51f3-43aa-9d5d-8579e457c2c2" x="13.94" y="0">%</tspan></text><path class="a1a0e4e1-2a10-447b-a260-e745d11e55cd" d="M309.89,52.15H124.33l-2.87-2.87V46.63l2.87-2.87H309.89l2.87,2.87v2.65Z"/><rect class="b7833000-97d4-49cb-a77c-d3193334e576" x="122.96" y="52.15" width="0.53" height="3.19"/><rect class="b7833000-97d4-49cb-a77c-d3193334e576" x="191.77" y="52.15" width="0.53" height="3.19"/><path class="fd3148f1-f412-4d37-8c11-db01bb419b11" d="M244.07,50.19H123.25l-1.57-1.57V47.29l1.57-1.57H244.07l1.57,1.57v1.33Z"/><path class="ba463cd4-b2a9-48ec-821a-8d0c3eef8992" d="M277.06,50.19H245.12l0-4.47h31.89l1.11,1.87v.74Z"/><path class="fd3148f1-f412-4d37-8c11-db01bb419b11" d="M261.75,49.22H245.12l0-2.52h16.61l.58,1v.42Z"/><rect class="fe5a387c-cba8-4771-96dc-db4593217698" x="281.85" y="43.76" width="0.71" height="11.5"/><path class="a25d85d0-38f2-43fe-9737-82554c775a88" d="M282.2,56.15a1.09,1.09,0,1,1,1.09-1.09A1.08,1.08,0,0,1,282.2,56.15Z"/><path class="fe5a387c-cba8-4771-96dc-db4593217698" d="M282.2,54.31a.75.75,0,1,1-.75.75.75.75,0,0,1,.75-.75m0-.67a1.42,1.42,0,1,0,1.42,1.42,1.43,1.43,0,0,0-1.42-1.42Z"/><text class="f84b63a4-21d0-4efe-b379-8a8b0b3bb62d" transform="translate(247.24 36.13)">97<tspan class="b0014587-51f3-43aa-9d5d-8579e457c2c2" x="9.29" y="0">%</tspan></text><rect class="fe5a387c-cba8-4771-96dc-db4593217698" x="255.43" y="43.76" width="0.71" height="11.5"/><path class="a25d85d0-38f2-43fe-9737-82554c775a88" d="M255.79,56.15a1.09,1.09,0,1,1,1.08-1.09A1.09,1.09,0,0,1,255.79,56.15Z"/><path class="fe5a387c-cba8-4771-96dc-db4593217698" d="M255.79,54.31a.75.75,0,1,1-.76.75.76.76,0,0,1,.76-.75m0-.67a1.42,1.42,0,1,0,1.41,1.42,1.42,1.42,0,0,0-1.41-1.42Z"/><path class="a25d85d0-38f2-43fe-9737-82554c775a88" d="M277.55,41.74a1.09,1.09,0,1,1,1.09-1.09A1.08,1.08,0,0,1,277.55,41.74Z"/><path class="f5847dbf-85d0-4a3d-8ee0-75c30ef6eebd" d="M277.55,39.9a.75.75,0,1,1-.75.75.75.75,0,0,1,.75-.75m0-.67A1.42,1.42,0,1,0,279,40.65a1.43,1.43,0,0,0-1.42-1.42Z"/><path class="a25d85d0-38f2-43fe-9737-82554c775a88" d="M261.93,41.74A1.09,1.09,0,1,1,263,40.65,1.09,1.09,0,0,1,261.93,41.74Z"/><path class="fd3148f1-f412-4d37-8c11-db01bb419b11" d="M261.93,39.9a.75.75,0,0,1,0,1.5.75.75,0,0,1,0-1.5m0-.67a1.42,1.42,0,1,0,1.41,1.42,1.42,1.42,0,0,0-1.41-1.42Z"/><text class="f84b63a4-21d0-4efe-b379-8a8b0b3bb62d" transform="translate(121 36.67)">План</text><text class="acb16dc9-8135-48bd-a775-6b190555e69d" transform="translate(147.17 36.67)">1 105.38</text><text class="a9a67049-2ca2-4ca3-89fb-18a70e563a81" transform="translate(211.7 75.44)">- 2.1</text><text class="b7ec073a-bdf6-4afd-995f-1f2900e390df" transform="translate(208.09 90.73)">+ 1.3</text><path class="fd3148f1-f412-4d37-8c11-db01bb419b11" d="M241.87,87.34a.27.27,0,0,1,.18.08l3,3a.27.27,0,0,1,0,.37.26.26,0,0,1-.38,0L241.87,88,239,90.81a.26.26,0,0,1-.38,0,.27.27,0,0,1,0-.37l3-3A.27.27,0,0,1,241.87,87.34Z"/><path class="fd3148f1-f412-4d37-8c11-db01bb419b11" d="M241.87,83.8a.27.27,0,0,1,.18.08l3,3a.27.27,0,0,1-.38.38l-2.82-2.83L239,87.27a.27.27,0,0,1-.38-.38l3-3A.27.27,0,0,1,241.87,83.8Z"/><path class="f5847dbf-85d0-4a3d-8ee0-75c30ef6eebd" d="M241.16,72.23a.25.25,0,0,1-.19-.08l-3-3a.27.27,0,0,1,.38-.38l2.82,2.83L244,68.76a.27.27,0,0,1,.37,0,.26.26,0,0,1,0,.38l-3,3A.24.24,0,0,1,241.16,72.23Z"/><path class="f5847dbf-85d0-4a3d-8ee0-75c30ef6eebd" d="M241.16,75.78a.29.29,0,0,1-.19-.08l-3-3a.27.27,0,0,1,.38-.38l2.82,2.83L244,72.31a.27.27,0,0,1,.37,0,.26.26,0,0,1,0,.38l-3,3A.27.27,0,0,1,241.16,75.78Z"/><text class="a731e53c-80fb-4cdc-8ece-a4035b3097fa" transform="translate(151.05 76.04)">Отклонение</text><text class="ac00ac73-82fa-4d65-9732-62772b0b7507" transform="translate(151.05 90.73)">Улучшение</text><path class="edbe2299-5eb3-49f4-b48c-d39f66931dbf" d="M49.6,62.2c0,.93,0,1.83,0,2.72a.92.92,0,1,0,1.83,0c0-.76,0-1.52,0-2.28V62.2h4.49a1.2,1.2,0,0,0,.57-.14.88.88,0,0,0,.41-1,.89.89,0,0,0-.9-.69H51.44V58.53h3.25a4.12,4.12,0,0,0,0-8.24h-4a.93.93,0,0,0-1,1V56.7H47.78a.92.92,0,1,0,0,1.83h1.8v1.84H47.78a.91.91,0,0,0-.93.92.93.93,0,0,0,.92.91H49.6Zm1.85-10.08h2.06a14.17,14.17,0,0,1,1.46,0,2.15,2.15,0,0,1,2,2.28,2.11,2.11,0,0,1-2,2.24c-1.16.08-2.33,0-3.5,0Z"/><path class="edbe2299-5eb3-49f4-b48c-d39f66931dbf" d="M54.33,43.8a1,1,0,0,0,.37-.72,1,1,0,0,0-.25-.73,1,1,0,0,0-.7-.34A16,16,0,0,0,37,60.52l-1.3.45a.65.65,0,0,0-.21,1.1l3.51,3a.67.67,0,0,0,.42.16.57.57,0,0,0,.22,0,.62.62,0,0,0,.42-.49l.88-4.55a.66.66,0,0,0-.21-.62.64.64,0,0,0-.64-.12l-1.17.4A14.05,14.05,0,0,1,53.62,44,.92.92,0,0,0,54.33,43.8Z"/><path class="edbe2299-5eb3-49f4-b48c-d39f66931dbf" d="M70.54,56.24l-3.08-3.43a.62.62,0,0,0-.62-.2.63.63,0,0,0-.49.44l-1.43,4.38a.65.65,0,0,0,.14.64.64.64,0,0,0,.48.22h.14l1.2-.26a14.07,14.07,0,0,1-17,13.78,1,1,0,0,0-.75.14,1,1,0,0,0,.33,1.82A16.05,16.05,0,0,0,68.87,57.6l1.32-.28a.63.63,0,0,0,.49-.44A.66.66,0,0,0,70.54,56.24Z"/><circle class="f6f7cdbb-27db-4df8-b3f7-9dbf5ccee083" cx="52.33" cy="60.06" r="43.13"/></svg>