<svg width="324" height="117" viewBox="0 0 324 117" fill="none" xmlns="http://www.w3.org/2000/svg">
<path d="M257 15H315.8C316.905 15 317.8 15.8954 317.8 17V51C317.8 52.1046 316.905 53 315.8 53H257V15Z" fill="#272A38"/>
<path d="M272.969 39H267.584V37.7754C267.971 37.4082 268.336 37.0566 268.68 36.7207C269.023 36.3848 269.359 36.0352 269.688 35.6719C270.352 34.9414 270.805 34.3574 271.047 33.9199C271.289 33.4785 271.41 33.0234 271.41 32.5547C271.41 32.3125 271.371 32.0996 271.293 31.916C271.219 31.7324 271.115 31.5801 270.982 31.459C270.846 31.3418 270.688 31.2539 270.508 31.1953C270.328 31.1367 270.131 31.1074 269.916 31.1074C269.709 31.1074 269.498 31.1348 269.283 31.1895C269.072 31.2402 268.869 31.3047 268.674 31.3828C268.51 31.4492 268.352 31.5293 268.199 31.623C268.047 31.7168 267.924 31.7969 267.83 31.8633H267.766V30.6211C268.008 30.5 268.344 30.3828 268.773 30.2695C269.207 30.1523 269.617 30.0938 270.004 30.0938C270.816 30.0938 271.453 30.3105 271.914 30.7441C272.375 31.1738 272.605 31.7578 272.605 32.4961C272.605 32.8359 272.564 33.1504 272.482 33.4395C272.404 33.7285 272.295 33.9961 272.154 34.2422C272.01 34.4961 271.836 34.748 271.633 34.998C271.43 35.248 271.215 35.4941 270.988 35.7363C270.621 36.1348 270.211 36.5488 269.758 36.9785C269.309 37.4082 268.949 37.748 268.68 37.998H272.969V39ZM279.748 36H278.711V39H277.586V36H273.73V34.7695L277.633 30.2754H278.711V35.0625H279.748V36ZM277.586 35.0625V31.6523L274.645 35.0625H277.586ZM284.799 32.3086C284.799 31.918 284.668 31.5918 284.406 31.3301C284.145 31.0684 283.781 30.9375 283.316 30.9375C282.891 30.9375 282.541 31.0547 282.268 31.2891C281.998 31.5234 281.863 31.8398 281.863 32.2383C281.863 32.5273 281.932 32.7715 282.068 32.9707C282.209 33.1699 282.418 33.3496 282.695 33.5098C282.816 33.5762 283 33.668 283.246 33.7852C283.496 33.9023 283.723 33.9941 283.926 34.0605C284.266 33.7988 284.496 33.5312 284.617 33.2578C284.738 32.9805 284.799 32.6641 284.799 32.3086ZM284.963 36.6797C284.963 36.3203 284.893 36.0352 284.752 35.8242C284.611 35.6133 284.34 35.3984 283.938 35.1797C283.805 35.1055 283.627 35.0254 283.404 34.9395C283.186 34.8535 282.938 34.752 282.66 34.6348C282.336 34.8496 282.088 35.1152 281.916 35.4316C281.744 35.7441 281.658 36.1016 281.658 36.5039C281.658 37.0312 281.816 37.4668 282.133 37.8105C282.453 38.1543 282.854 38.3262 283.334 38.3262C283.826 38.3262 284.221 38.1797 284.518 37.8867C284.814 37.5898 284.963 37.1875 284.963 36.6797ZM283.322 39.1992C282.889 39.1992 282.494 39.1348 282.139 39.0059C281.783 38.877 281.48 38.6914 281.23 38.4492C280.984 38.2148 280.797 37.9375 280.668 37.6172C280.543 37.293 280.48 36.9512 280.48 36.5918C280.48 36.1191 280.605 35.6855 280.855 35.291C281.109 34.8926 281.477 34.5762 281.957 34.3418V34.3066C281.527 34.0566 281.209 33.7832 281.002 33.4863C280.795 33.1895 280.691 32.8184 280.691 32.373C280.691 31.7168 280.939 31.1699 281.436 30.7324C281.932 30.2949 282.561 30.0762 283.322 30.0762C284.115 30.0762 284.75 30.2852 285.227 30.7031C285.707 31.1172 285.947 31.6484 285.947 32.2969C285.947 32.6875 285.832 33.0742 285.602 33.457C285.375 33.8398 285.047 34.1387 284.617 34.3535V34.3887C285.125 34.627 285.51 34.916 285.771 35.2559C286.033 35.5957 286.164 36.0332 286.164 36.5684C286.164 37.3145 285.893 37.9395 285.35 38.4434C284.811 38.9473 284.135 39.1992 283.322 39.1992ZM296.412 34.6348C296.412 36.2012 296.184 37.3516 295.727 38.0859C295.273 38.8164 294.572 39.1816 293.623 39.1816C292.662 39.1816 291.957 38.8086 291.508 38.0625C291.059 37.3164 290.834 36.1777 290.834 34.6465C290.834 33.0723 291.061 31.9219 291.514 31.1953C291.971 30.4648 292.674 30.0996 293.623 30.0996C294.584 30.0996 295.289 30.4766 295.738 31.2305C296.188 31.9844 296.412 33.1191 296.412 34.6348ZM294.912 37.2949C295.025 37.0059 295.105 36.6406 295.152 36.1992C295.199 35.7578 295.223 35.2363 295.223 34.6348C295.223 34.0371 295.199 33.5176 295.152 33.0762C295.105 32.6348 295.023 32.2676 294.906 31.9746C294.789 31.6777 294.627 31.4531 294.42 31.3008C294.217 31.1445 293.951 31.0664 293.623 31.0664C293.299 31.0664 293.031 31.1445 292.82 31.3008C292.613 31.4531 292.449 31.6816 292.328 31.9863C292.211 32.2832 292.131 32.6582 292.088 33.1113C292.045 33.5645 292.023 34.0762 292.023 34.6465C292.023 35.2559 292.041 35.7656 292.076 36.1758C292.115 36.5859 292.197 36.9531 292.322 37.2773C292.436 37.5781 292.596 37.8105 292.803 37.9746C293.014 38.1348 293.287 38.2148 293.623 38.2148C293.947 38.2148 294.213 38.1387 294.42 37.9863C294.631 37.8301 294.795 37.5996 294.912 37.2949ZM303.15 36H302.113V39H300.988V36H297.133V34.7695L301.035 30.2754H302.113V35.0625H303.15V36ZM300.988 35.0625V31.6523L298.047 35.0625H300.988ZM309.373 36.2227C309.373 36.6445 309.305 37.0352 309.168 37.3945C309.035 37.7539 308.848 38.0645 308.605 38.3262C308.359 38.5918 308.053 38.8008 307.686 38.9531C307.322 39.1055 306.914 39.1816 306.461 39.1816C306.043 39.1816 305.631 39.1348 305.225 39.041C304.822 38.9512 304.473 38.832 304.176 38.6836V37.4473H304.258C304.348 37.5137 304.477 37.5898 304.645 37.6758C304.812 37.7578 304.998 37.8359 305.201 37.9102C305.432 37.9922 305.643 38.0566 305.834 38.1035C306.025 38.1465 306.24 38.168 306.479 38.168C306.713 38.168 306.941 38.127 307.164 38.0449C307.387 37.959 307.578 37.8223 307.738 37.6348C307.883 37.4629 307.992 37.2617 308.066 37.0312C308.145 36.8008 308.184 36.5293 308.184 36.2168C308.184 35.9082 308.141 35.6543 308.055 35.4551C307.973 35.2559 307.852 35.0918 307.691 34.9629C307.523 34.8145 307.316 34.7109 307.07 34.6523C306.828 34.5898 306.557 34.5586 306.256 34.5586C305.939 34.5586 305.621 34.584 305.301 34.6348C304.98 34.6816 304.725 34.7266 304.533 34.7695V30.2754H309.32V31.3008H305.664V33.6211C305.805 33.6055 305.943 33.5938 306.08 33.5859C306.217 33.5781 306.342 33.5742 306.455 33.5742C306.9 33.5742 307.277 33.6113 307.586 33.6855C307.895 33.7598 308.191 33.9043 308.477 34.1191C308.766 34.3379 308.986 34.6113 309.139 34.9395C309.295 35.2676 309.373 35.6953 309.373 36.2227Z" fill="#D7E2F2"/>
<path d="M19.1133 32H17.8828L15.3145 28.6699H14.7041V32H13.7373V24.7295H14.7041V28.0059C15.085 27.9928 15.3861 27.8968 15.6074 27.7178C15.832 27.5387 16.0143 27.2816 16.1543 26.9463C16.2129 26.7998 16.265 26.6615 16.3105 26.5312C16.3594 26.3978 16.3984 26.2855 16.4277 26.1943C16.623 25.6377 16.8721 25.2552 17.1748 25.0469C17.4775 24.8353 17.8975 24.7295 18.4346 24.7295H18.7324V25.5938H18.4883C18.0911 25.5938 17.8128 25.6719 17.6533 25.8281C17.4938 25.9811 17.3473 26.2725 17.2139 26.7021C17.0804 27.1318 16.9307 27.4476 16.7646 27.6494C16.5986 27.848 16.3984 28.0238 16.1641 28.1768L19.1133 32ZM24.1768 29.2754C24.1768 30.1934 23.9554 30.903 23.5127 31.4043C23.07 31.9023 22.4808 32.1514 21.7451 32.1514C20.9867 32.1514 20.3893 31.8942 19.9531 31.3799C19.5202 30.8623 19.3037 30.1608 19.3037 29.2754C19.3037 28.3639 19.5267 27.6559 19.9727 27.1514C20.4219 26.6468 21.0127 26.3945 21.7451 26.3945C22.4808 26.3945 23.07 26.6468 23.5127 27.1514C23.9554 27.6527 24.1768 28.3607 24.1768 29.2754ZM23.2295 29.2754C23.2295 28.569 23.1009 28.0449 22.8438 27.7031C22.5866 27.3581 22.2204 27.1855 21.7451 27.1855C21.2666 27.1855 20.8971 27.3581 20.6367 27.7031C20.3796 28.0449 20.251 28.569 20.251 29.2754C20.251 29.959 20.3796 30.4782 20.6367 30.833C20.8971 31.1846 21.2666 31.3604 21.7451 31.3604C22.2171 31.3604 22.5817 31.1878 22.8389 30.8428C23.0993 30.4945 23.2295 29.972 23.2295 29.2754ZM30.1777 32H29.2695V27.7129L27.9609 30.4961H27.2773L25.9785 27.7129V32H25.1191V26.5459H26.2275L27.6631 29.5732L29.0498 26.5459H30.1777V32ZM35.8125 32H34.8945V27.3369H32.4238V32H31.5059V26.5459H35.8125V32ZM41.6279 29.2754C41.6279 30.1934 41.4066 30.903 40.9639 31.4043C40.5212 31.9023 39.932 32.1514 39.1963 32.1514C38.4378 32.1514 37.8405 31.8942 37.4043 31.3799C36.9714 30.8623 36.7549 30.1608 36.7549 29.2754C36.7549 28.3639 36.9779 27.6559 37.4238 27.1514C37.873 26.6468 38.4639 26.3945 39.1963 26.3945C39.932 26.3945 40.5212 26.6468 40.9639 27.1514C41.4066 27.6527 41.6279 28.3607 41.6279 29.2754ZM40.6807 29.2754C40.6807 28.569 40.5521 28.0449 40.2949 27.7031C40.0378 27.3581 39.6715 27.1855 39.1963 27.1855C38.7178 27.1855 38.3483 27.3581 38.0879 27.7031C37.8307 28.0449 37.7021 28.569 37.7021 29.2754C37.7021 29.959 37.8307 30.4782 38.0879 30.833C38.3483 31.1846 38.7178 31.3604 39.1963 31.3604C39.6683 31.3604 40.0329 31.1878 40.29 30.8428C40.5505 30.4945 40.6807 29.972 40.6807 29.2754ZM46.877 32H45.959V29.5439H43.4883V32H42.5703V26.5459H43.4883V28.7529H45.959V26.5459H46.877V32ZM50.5732 32.127C49.7041 32.127 49.0286 31.8828 48.5469 31.3945C48.0684 30.903 47.8291 30.2064 47.8291 29.3047C47.8291 28.416 48.0618 27.7096 48.5273 27.1855C48.9928 26.6582 49.6016 26.3945 50.3535 26.3945C50.6921 26.3945 50.9915 26.4434 51.252 26.541C51.5124 26.6387 51.7402 26.7917 51.9355 27C52.1309 27.2083 52.2806 27.4639 52.3848 27.7666C52.4889 28.0661 52.541 28.4339 52.541 28.8701V29.3682H48.7617C48.7617 30.0029 48.9212 30.488 49.2402 30.8232C49.5592 31.1585 50.0003 31.3262 50.5635 31.3262C50.7653 31.3262 50.9622 31.3034 51.1543 31.2578C51.3496 31.2122 51.5254 31.1536 51.6816 31.082C51.8477 31.0072 51.9876 30.9355 52.1016 30.8672C52.2155 30.7956 52.3099 30.7288 52.3848 30.667H52.4385V31.668C52.3311 31.7103 52.1976 31.764 52.0381 31.8291C51.8786 31.891 51.7354 31.9398 51.6084 31.9756C51.4294 32.0244 51.2666 32.0618 51.1201 32.0879C50.9769 32.1139 50.7946 32.127 50.5732 32.127ZM51.6475 28.665C51.641 28.4176 51.6117 28.2044 51.5596 28.0254C51.5075 27.8464 51.4326 27.695 51.335 27.5713C51.2275 27.4346 51.0892 27.3304 50.9199 27.2588C50.7539 27.1872 50.5472 27.1514 50.2998 27.1514C50.0557 27.1514 49.8473 27.1888 49.6748 27.2637C49.5055 27.3353 49.3509 27.4411 49.2109 27.5811C49.0742 27.7243 48.9701 27.8838 48.8984 28.0596C48.8268 28.2321 48.7812 28.4339 48.7617 28.665H51.6475ZM57.7754 32H56.8574V29.5439H54.3867V32H53.4688V26.5459H54.3867V28.7529H56.8574V26.5459H57.7754V32ZM63.0879 27.3516H61.2324V32H60.3145V27.3516H58.459V26.5459H63.0879V27.3516ZM67.8193 30.3105C67.8193 30.5742 67.7656 30.8135 67.6582 31.0283C67.554 31.2432 67.4108 31.4173 67.2285 31.5508C67.0137 31.7135 66.7842 31.8291 66.54 31.8975C66.2959 31.9658 65.9818 32 65.5977 32H63.7715V26.5459H64.6895V28.6699H65.6221C66.0322 28.6699 66.3496 28.6911 66.5742 28.7334C66.8021 28.7757 67.0283 28.8799 67.2529 29.0459C67.4417 29.1859 67.5833 29.3649 67.6777 29.583C67.7721 29.8011 67.8193 30.0436 67.8193 30.3105ZM66.8721 30.3252C66.8721 30.1592 66.8428 30.0143 66.7842 29.8906C66.7288 29.7637 66.6361 29.6611 66.5059 29.583C66.3691 29.5016 66.2129 29.4528 66.0371 29.4365C65.8646 29.4202 65.6156 29.4121 65.29 29.4121H64.6895V31.2676H65.2705C65.596 31.2676 65.8483 31.2546 66.0273 31.2285C66.2064 31.1992 66.361 31.1455 66.4912 31.0674C66.6247 30.9827 66.7207 30.8835 66.7793 30.7695C66.8411 30.6523 66.8721 30.5042 66.8721 30.3252ZM69.3721 32H68.4541V26.5459H69.3721V32ZM75.6025 32V25.5889H73.1611V24.7295H79.0107V25.5889H76.5693V32H75.6025ZM85.4756 28.3721C85.4756 29.0361 85.3405 29.6351 85.0703 30.1689C84.8034 30.7028 84.4437 31.1195 83.9912 31.4189C83.6234 31.6501 83.249 31.8047 82.8682 31.8828C82.4906 31.9609 82.0072 32 81.418 32H79.7432V24.7295H81.3984C82.082 24.7295 82.6175 24.7816 83.0049 24.8857C83.3955 24.9867 83.7275 25.1266 84.001 25.3057C84.4697 25.6149 84.8327 26.0267 85.0898 26.541C85.347 27.0521 85.4756 27.6624 85.4756 28.3721ZM84.4697 28.3574C84.4697 27.7975 84.377 27.3206 84.1914 26.9268C84.0059 26.5296 83.7308 26.2204 83.3662 25.999C83.109 25.8428 82.834 25.7305 82.541 25.6621C82.248 25.5938 81.8835 25.5596 81.4473 25.5596H80.71V31.1699H81.4473C81.877 31.1699 82.2529 31.1357 82.5752 31.0674C82.8975 30.999 83.1921 30.8721 83.459 30.6865C83.7943 30.4587 84.0465 30.1559 84.2158 29.7783C84.3851 29.3975 84.4697 28.9238 84.4697 28.3574ZM85.7441 32L88.1953 24.7295H89.3867L91.8379 32H90.8174L90.1582 29.9688H87.3799L86.7207 32H85.7441ZM89.8896 29.1436L88.7666 25.7158L87.6484 29.1436H89.8896ZM92.5264 32V24.7295H97.0723V25.5889H93.4932V27.5811H96.8281V28.4404H93.4932V31.1406H97.0723V32H92.5264ZM103.996 34.0117H102.878C102.312 33.3379 101.866 32.625 101.54 31.873C101.218 31.1211 101.057 30.2324 101.057 29.207C101.057 28.2044 101.216 27.3223 101.535 26.5605C101.857 25.7956 102.305 25.0762 102.878 24.4023H103.996V24.4512C103.732 24.6888 103.48 24.9639 103.239 25.2764C103.002 25.5856 102.78 25.9469 102.575 26.3604C102.38 26.7607 102.22 27.2018 102.097 27.6836C101.976 28.1654 101.916 28.6732 101.916 29.207C101.916 29.7637 101.975 30.2731 102.092 30.7354C102.212 31.1976 102.373 31.637 102.575 32.0537C102.771 32.4541 102.993 32.8154 103.244 33.1377C103.495 33.4632 103.745 33.7383 103.996 33.9629V34.0117ZM109.006 32H105.461V31.2578H106.779V26.3848H105.461V25.7207C105.959 25.7207 106.325 25.6507 106.56 25.5107C106.797 25.3675 106.931 25.099 106.96 24.7051H107.717V31.2578H109.006V32ZM112.648 32.1221C112.274 32.1221 111.931 32.0651 111.618 31.9512C111.306 31.834 111.037 31.6582 110.812 31.4238C110.588 31.1895 110.414 30.8949 110.29 30.54C110.166 30.182 110.104 29.762 110.104 29.2803C110.104 28.8018 110.168 28.3883 110.295 28.04C110.425 27.6917 110.598 27.3988 110.812 27.1611C111.027 26.9235 111.294 26.7412 111.613 26.6143C111.936 26.484 112.281 26.4189 112.648 26.4189C112.948 26.4189 113.236 26.4613 113.513 26.5459C113.793 26.6305 114.042 26.7282 114.26 26.8389V27.8691H114.206C114.141 27.8138 114.056 27.7503 113.952 27.6787C113.851 27.6071 113.728 27.5339 113.581 27.459C113.454 27.3939 113.304 27.3369 113.132 27.2881C112.959 27.2393 112.793 27.2148 112.634 27.2148C112.159 27.2148 111.776 27.3955 111.486 27.7568C111.2 28.1149 111.057 28.6227 111.057 29.2803C111.057 29.9248 111.195 30.4277 111.472 30.7891C111.752 31.1471 112.139 31.3262 112.634 31.3262C112.933 31.3262 113.218 31.2643 113.488 31.1406C113.758 31.0169 113.998 30.8574 114.206 30.6621H114.26V31.6924C114.169 31.7347 114.055 31.7868 113.918 31.8486C113.781 31.9072 113.658 31.9512 113.547 31.9805C113.391 32.026 113.251 32.0602 113.127 32.083C113.003 32.109 112.844 32.1221 112.648 32.1221ZM119.084 27.3516H117.229V32H116.311V27.3516H114.455V26.5459H119.084V27.3516ZM124.055 26.5459L121.12 34.0117H120.139L121.115 31.7363L119.133 26.5459H120.124L121.613 30.584L123.098 26.5459H124.055ZM129.055 32H128.137V27.3369H125.666V32H124.748V26.5459H129.055V32ZM132.751 32.127C131.882 32.127 131.206 31.8828 130.725 31.3945C130.246 30.903 130.007 30.2064 130.007 29.3047C130.007 28.416 130.24 27.7096 130.705 27.1855C131.171 26.6582 131.779 26.3945 132.531 26.3945C132.87 26.3945 133.169 26.4434 133.43 26.541C133.69 26.6387 133.918 26.7917 134.113 27C134.309 27.2083 134.458 27.4639 134.562 27.7666C134.667 28.0661 134.719 28.4339 134.719 28.8701V29.3682H130.939C130.939 30.0029 131.099 30.488 131.418 30.8232C131.737 31.1585 132.178 31.3262 132.741 31.3262C132.943 31.3262 133.14 31.3034 133.332 31.2578C133.527 31.2122 133.703 31.1536 133.859 31.082C134.025 31.0072 134.165 30.9355 134.279 30.8672C134.393 30.7956 134.488 30.7288 134.562 30.667H134.616V31.668C134.509 31.7103 134.375 31.764 134.216 31.8291C134.056 31.891 133.913 31.9398 133.786 31.9756C133.607 32.0244 133.444 32.0618 133.298 32.0879C133.155 32.1139 132.972 32.127 132.751 32.127ZM133.825 28.665C133.819 28.4176 133.789 28.2044 133.737 28.0254C133.685 27.8464 133.61 27.695 133.513 27.5713C133.405 27.4346 133.267 27.3304 133.098 27.2588C132.932 27.1872 132.725 27.1514 132.478 27.1514C132.233 27.1514 132.025 27.1888 131.853 27.2637C131.683 27.3353 131.529 27.4411 131.389 27.5811C131.252 27.7243 131.148 27.8838 131.076 28.0596C131.005 28.2321 130.959 28.4339 130.939 28.665H133.825ZM139.953 32H139.035V29.5439H136.564V32H135.646V26.5459H136.564V28.7529H139.035V26.5459H139.953V32ZM145.412 30.3105C145.412 30.5742 145.358 30.8135 145.251 31.0283C145.147 31.2432 145.004 31.4173 144.821 31.5508C144.606 31.7135 144.377 31.8291 144.133 31.8975C143.889 31.9658 143.575 32 143.19 32H141.281V26.5459H142.199V28.6699H143.215C143.625 28.6699 143.942 28.6911 144.167 28.7334C144.395 28.7757 144.621 28.8799 144.846 29.0459C145.035 29.1859 145.176 29.3649 145.271 29.583C145.365 29.8011 145.412 30.0436 145.412 30.3105ZM144.465 30.3252C144.465 30.1592 144.436 30.0143 144.377 29.8906C144.322 29.7637 144.229 29.6611 144.099 29.583C143.962 29.5016 143.806 29.4528 143.63 29.4365C143.457 29.4202 143.208 29.4121 142.883 29.4121H142.199V31.2676H142.863C143.189 31.2676 143.441 31.2546 143.62 31.2285C143.799 31.1992 143.954 31.1455 144.084 31.0674C144.217 30.9827 144.313 30.8835 144.372 30.7695C144.434 30.6523 144.465 30.5042 144.465 30.3252ZM148.928 29.207C148.928 30.2129 148.767 31.0967 148.444 31.8584C148.122 32.6201 147.676 33.3379 147.106 34.0117H145.988V33.9629C146.239 33.7383 146.491 33.4616 146.745 33.1328C146.999 32.8073 147.22 32.4476 147.409 32.0537C147.611 31.6338 147.771 31.1911 147.888 30.7256C148.008 30.2568 148.068 29.7507 148.068 29.207C148.068 28.6699 148.008 28.1621 147.888 27.6836C147.767 27.2051 147.608 26.764 147.409 26.3604C147.211 25.9567 146.986 25.5938 146.735 25.2715C146.485 24.9492 146.236 24.6758 145.988 24.4512V24.4023H147.106C147.673 25.0762 148.117 25.7923 148.439 26.5508C148.765 27.3092 148.928 28.1947 148.928 29.207Z" fill="#D7E2F2"/>
<rect x="13.5" y="38.5" width="235" height="7" rx="1.5" stroke="#606580" stroke-opacity="0.25"/>
<g clip-path="url(#clip0)">
<rect width="15.4669" height="4" transform="translate(15 40)" fill="#0089FF"/>
<rect width="15.4669" height="4" transform="translate(30.4668 40)" fill="#0089FF"/>
<rect width="15.4669" height="4" transform="translate(45.9331 40)" fill="#0089FF"/>
<rect width="15.4669" height="4" transform="translate(61.4 40)" fill="#0089FF"/>
<rect width="15.4669" height="4" transform="translate(76.8662 40)" fill="#0089FF"/>
<rect width="15.4669" height="4" transform="translate(92.333 40)" fill="#0089FF"/>
<rect width="15.4669" height="4" transform="translate(107.8 40)" fill="#0089FF"/>
<rect width="15.4669" height="4" transform="translate(123.267 40)" fill="#0089FF"/>
<rect width="15.4669" height="4" transform="translate(138.733 40)" fill="#0089FF"/>
<rect width="15.4669" height="4" transform="translate(154.2 40)" fill="#0089FF"/>
<rect width="15.4669" height="4" transform="translate(169.667 40)" fill="#0089FF"/>
<rect width="15.4669" height="4" transform="translate(185.133 40)" fill="#0089FF"/>
<rect width="15.4669" height="4" transform="translate(200.6 40)" fill="#0089FF"/>
<rect width="15.4669" height="4" transform="translate(216.066 40)" fill="#0089FF"/>
<rect width="15.4669" height="4" transform="translate(231.533 40)" fill="#0089FF"/>
</g>
<rect x="5.5" y="14.5" width="313" height="39" rx="1.5" stroke="#606580" stroke-opacity="0.25"/>
<rect x="5.5" y="14.5" width="313" height="39" rx="1.5" stroke="#606580" stroke-opacity="0.25"/>
<path d="M257 63H315.8C316.905 63 317.8 63.8954 317.8 65V99C317.8 100.105 316.905 101 315.8 101H257V63Z" fill="#272A38"/>
<path d="M272.969 87H267.584V85.7754C267.971 85.4082 268.336 85.0566 268.68 84.7207C269.023 84.3848 269.359 84.0352 269.688 83.6719C270.352 82.9414 270.805 82.3574 271.047 81.9199C271.289 81.4785 271.41 81.0234 271.41 80.5547C271.41 80.3125 271.371 80.0996 271.293 79.916C271.219 79.7324 271.115 79.5801 270.982 79.459C270.846 79.3418 270.688 79.2539 270.508 79.1953C270.328 79.1367 270.131 79.1074 269.916 79.1074C269.709 79.1074 269.498 79.1348 269.283 79.1895C269.072 79.2402 268.869 79.3047 268.674 79.3828C268.51 79.4492 268.352 79.5293 268.199 79.623C268.047 79.7168 267.924 79.7969 267.83 79.8633H267.766V78.6211C268.008 78.5 268.344 78.3828 268.773 78.2695C269.207 78.1523 269.617 78.0938 270.004 78.0938C270.816 78.0938 271.453 78.3105 271.914 78.7441C272.375 79.1738 272.605 79.7578 272.605 80.4961C272.605 80.8359 272.564 81.1504 272.482 81.4395C272.404 81.7285 272.295 81.9961 272.154 82.2422C272.01 82.4961 271.836 82.748 271.633 82.998C271.43 83.248 271.215 83.4941 270.988 83.7363C270.621 84.1348 270.211 84.5488 269.758 84.9785C269.309 85.4082 268.949 85.748 268.68 85.998H272.969V87ZM279.748 84H278.711V87H277.586V84H273.73V82.7695L277.633 78.2754H278.711V83.0625H279.748V84ZM277.586 83.0625V79.6523L274.645 83.0625H277.586ZM284.799 80.3086C284.799 79.918 284.668 79.5918 284.406 79.3301C284.145 79.0684 283.781 78.9375 283.316 78.9375C282.891 78.9375 282.541 79.0547 282.268 79.2891C281.998 79.5234 281.863 79.8398 281.863 80.2383C281.863 80.5273 281.932 80.7715 282.068 80.9707C282.209 81.1699 282.418 81.3496 282.695 81.5098C282.816 81.5762 283 81.668 283.246 81.7852C283.496 81.9023 283.723 81.9941 283.926 82.0605C284.266 81.7988 284.496 81.5312 284.617 81.2578C284.738 80.9805 284.799 80.6641 284.799 80.3086ZM284.963 84.6797C284.963 84.3203 284.893 84.0352 284.752 83.8242C284.611 83.6133 284.34 83.3984 283.938 83.1797C283.805 83.1055 283.627 83.0254 283.404 82.9395C283.186 82.8535 282.938 82.752 282.66 82.6348C282.336 82.8496 282.088 83.1152 281.916 83.4316C281.744 83.7441 281.658 84.1016 281.658 84.5039C281.658 85.0312 281.816 85.4668 282.133 85.8105C282.453 86.1543 282.854 86.3262 283.334 86.3262C283.826 86.3262 284.221 86.1797 284.518 85.8867C284.814 85.5898 284.963 85.1875 284.963 84.6797ZM283.322 87.1992C282.889 87.1992 282.494 87.1348 282.139 87.0059C281.783 86.877 281.48 86.6914 281.23 86.4492C280.984 86.2148 280.797 85.9375 280.668 85.6172C280.543 85.293 280.48 84.9512 280.48 84.5918C280.48 84.1191 280.605 83.6855 280.855 83.291C281.109 82.8926 281.477 82.5762 281.957 82.3418V82.3066C281.527 82.0566 281.209 81.7832 281.002 81.4863C280.795 81.1895 280.691 80.8184 280.691 80.373C280.691 79.7168 280.939 79.1699 281.436 78.7324C281.932 78.2949 282.561 78.0762 283.322 78.0762C284.115 78.0762 284.75 78.2852 285.227 78.7031C285.707 79.1172 285.947 79.6484 285.947 80.2969C285.947 80.6875 285.832 81.0742 285.602 81.457C285.375 81.8398 285.047 82.1387 284.617 82.3535V82.3887C285.125 82.627 285.51 82.916 285.771 83.2559C286.033 83.5957 286.164 84.0332 286.164 84.5684C286.164 85.3145 285.893 85.9395 285.35 86.4434C284.811 86.9473 284.135 87.1992 283.322 87.1992ZM296.412 82.6348C296.412 84.2012 296.184 85.3516 295.727 86.0859C295.273 86.8164 294.572 87.1816 293.623 87.1816C292.662 87.1816 291.957 86.8086 291.508 86.0625C291.059 85.3164 290.834 84.1777 290.834 82.6465C290.834 81.0723 291.061 79.9219 291.514 79.1953C291.971 78.4648 292.674 78.0996 293.623 78.0996C294.584 78.0996 295.289 78.4766 295.738 79.2305C296.188 79.9844 296.412 81.1191 296.412 82.6348ZM294.912 85.2949C295.025 85.0059 295.105 84.6406 295.152 84.1992C295.199 83.7578 295.223 83.2363 295.223 82.6348C295.223 82.0371 295.199 81.5176 295.152 81.0762C295.105 80.6348 295.023 80.2676 294.906 79.9746C294.789 79.6777 294.627 79.4531 294.42 79.3008C294.217 79.1445 293.951 79.0664 293.623 79.0664C293.299 79.0664 293.031 79.1445 292.82 79.3008C292.613 79.4531 292.449 79.6816 292.328 79.9863C292.211 80.2832 292.131 80.6582 292.088 81.1113C292.045 81.5645 292.023 82.0762 292.023 82.6465C292.023 83.2559 292.041 83.7656 292.076 84.1758C292.115 84.5859 292.197 84.9531 292.322 85.2773C292.436 85.5781 292.596 85.8105 292.803 85.9746C293.014 86.1348 293.287 86.2148 293.623 86.2148C293.947 86.2148 294.213 86.1387 294.42 85.9863C294.631 85.8301 294.795 85.5996 294.912 85.2949ZM303.15 84H302.113V87H300.988V84H297.133V82.7695L301.035 78.2754H302.113V83.0625H303.15V84ZM300.988 83.0625V79.6523L298.047 83.0625H300.988ZM309.373 84.2227C309.373 84.6445 309.305 85.0352 309.168 85.3945C309.035 85.7539 308.848 86.0645 308.605 86.3262C308.359 86.5918 308.053 86.8008 307.686 86.9531C307.322 87.1055 306.914 87.1816 306.461 87.1816C306.043 87.1816 305.631 87.1348 305.225 87.041C304.822 86.9512 304.473 86.832 304.176 86.6836V85.4473H304.258C304.348 85.5137 304.477 85.5898 304.645 85.6758C304.812 85.7578 304.998 85.8359 305.201 85.9102C305.432 85.9922 305.643 86.0566 305.834 86.1035C306.025 86.1465 306.24 86.168 306.479 86.168C306.713 86.168 306.941 86.127 307.164 86.0449C307.387 85.959 307.578 85.8223 307.738 85.6348C307.883 85.4629 307.992 85.2617 308.066 85.0312C308.145 84.8008 308.184 84.5293 308.184 84.2168C308.184 83.9082 308.141 83.6543 308.055 83.4551C307.973 83.2559 307.852 83.0918 307.691 82.9629C307.523 82.8145 307.316 82.7109 307.07 82.6523C306.828 82.5898 306.557 82.5586 306.256 82.5586C305.939 82.5586 305.621 82.584 305.301 82.6348C304.98 82.6816 304.725 82.7266 304.533 82.7695V78.2754H309.32V79.3008H305.664V81.6211C305.805 81.6055 305.943 81.5938 306.08 81.5859C306.217 81.5781 306.342 81.5742 306.455 81.5742C306.9 81.5742 307.277 81.6113 307.586 81.6855C307.895 81.7598 308.191 81.9043 308.477 82.1191C308.766 82.3379 308.986 82.6113 309.139 82.9395C309.295 83.2676 309.373 83.6953 309.373 84.2227Z" fill="#D7E2F2"/>
<path d="M19.6406 81.6455H18.7227V79.9805H14.0059V81.6455H13.0879V79.1406H13.4834C13.9066 78.4473 14.2467 77.5391 14.5039 76.416C14.7643 75.2897 14.8945 74.0609 14.8945 72.7295H18.9521V79.1406H19.6406V81.6455ZM17.9854 79.1406V73.5693H15.8027C15.7572 74.7445 15.6107 75.8105 15.3633 76.7676C15.1159 77.7246 14.8001 78.5156 14.416 79.1406H17.9854ZM20.5732 80V72.7295H25.1191V73.5889H21.54V75.5811H24.875V76.4404H21.54V79.1406H25.1191V80H20.5732ZM25.4023 80L27.8535 72.7295H29.0449L31.4961 80H30.4756L29.8164 77.9688H27.0381L26.3789 80H25.4023ZM29.5479 77.1436L28.4248 73.7158L27.3066 77.1436H29.5479ZM35.0264 80.1318C34.5511 80.1318 34.1133 80.0521 33.7129 79.8926C33.3158 79.7331 32.9723 79.4954 32.6826 79.1797C32.3929 78.8639 32.1683 78.4701 32.0088 77.998C31.8493 77.526 31.7695 76.984 31.7695 76.3721C31.7695 75.7633 31.846 75.2327 31.999 74.7803C32.1553 74.3278 32.3815 73.9339 32.6777 73.5986C32.9674 73.2731 33.3109 73.0257 33.708 72.8564C34.1051 72.6839 34.5495 72.5977 35.041 72.5977C35.2852 72.5977 35.513 72.6156 35.7246 72.6514C35.9395 72.6872 36.138 72.7327 36.3203 72.7881C36.4766 72.8369 36.6361 72.8988 36.7988 72.9736C36.9648 73.0452 37.1276 73.125 37.2871 73.2129V74.3799H37.209C37.1243 74.3018 37.0153 74.2074 36.8818 74.0967C36.7484 73.986 36.5856 73.877 36.3936 73.7695C36.208 73.6686 36.0062 73.5856 35.7881 73.5205C35.57 73.4554 35.3177 73.4229 35.0312 73.4229C34.722 73.4229 34.429 73.4863 34.1523 73.6133C33.8757 73.7402 33.6331 73.9274 33.4248 74.1748C33.2197 74.4222 33.0602 74.7331 32.9463 75.1074C32.8324 75.4818 32.7754 75.9033 32.7754 76.3721C32.7754 76.8701 32.8356 77.2998 32.9561 77.6611C33.0765 78.0192 33.2409 78.3219 33.4492 78.5693C33.651 78.8102 33.8887 78.9925 34.1621 79.1162C34.4355 79.2367 34.7253 79.2969 35.0312 79.2969C35.3112 79.2969 35.57 79.2627 35.8076 79.1943C36.0452 79.126 36.2568 79.0397 36.4424 78.9355C36.6214 78.8346 36.776 78.7321 36.9062 78.6279C37.0365 78.5205 37.139 78.4294 37.2139 78.3545H37.2871V79.5068C37.1276 79.5817 36.9762 79.6533 36.833 79.7217C36.693 79.79 36.5221 79.8568 36.3203 79.9219C36.1087 79.9902 35.9118 80.0423 35.7295 80.0781C35.5505 80.1139 35.3161 80.1318 35.0264 80.1318ZM44.6162 76.2891C44.6162 76.7415 44.5479 77.1419 44.4111 77.4902C44.2744 77.8353 44.084 78.1266 43.8398 78.3643C43.5762 78.6247 43.2523 78.8265 42.8682 78.9697C42.484 79.1097 42.0869 79.1846 41.6768 79.1943V80.0781H40.7148V79.1943C40.3079 79.1813 39.9124 79.1081 39.5283 78.9746C39.1442 78.8411 38.8171 78.641 38.5469 78.374C38.3027 78.1364 38.1123 77.8418 37.9756 77.4902C37.8421 77.1387 37.7754 76.7383 37.7754 76.2891C37.7754 75.8659 37.8405 75.4867 37.9707 75.1514C38.1009 74.8128 38.2832 74.5215 38.5176 74.2773C38.7682 74.0169 39.0824 73.8118 39.46 73.6621C39.8376 73.5124 40.2559 73.431 40.7148 73.418V72.6123H41.6768V73.418C42.1357 73.4277 42.5557 73.5091 42.9365 73.6621C43.3174 73.8118 43.6331 74.0153 43.8838 74.2725C44.1182 74.5133 44.2988 74.8014 44.4258 75.1367C44.5527 75.472 44.6162 75.8561 44.6162 76.2891ZM43.6104 76.25C43.6104 75.9277 43.5648 75.6348 43.4736 75.3711C43.3825 75.1042 43.2474 74.8779 43.0684 74.6924C42.8991 74.5166 42.7021 74.3864 42.4775 74.3018C42.2529 74.2171 41.986 74.1715 41.6768 74.165V78.4619C41.9697 78.4554 42.2301 78.4082 42.458 78.3203C42.6891 78.2292 42.8796 78.1087 43.0293 77.959C43.2279 77.7637 43.3743 77.526 43.4688 77.2461C43.5632 76.9661 43.6104 76.6341 43.6104 76.25ZM40.7148 78.4619V74.165C40.4056 74.1683 40.1387 74.2139 39.9141 74.3018C39.6895 74.3896 39.4925 74.5199 39.3232 74.6924C39.1442 74.8747 39.0091 75.1009 38.918 75.3711C38.8268 75.6413 38.7812 75.9342 38.7812 76.25C38.7812 76.6341 38.8285 76.9678 38.9229 77.251C39.0173 77.5309 39.1637 77.7669 39.3623 77.959C39.512 78.1022 39.7008 78.221 39.9287 78.3154C40.1598 78.4098 40.4219 78.4587 40.7148 78.4619ZM47.0381 80H45.8711V78.6084H47.0381V80ZM55.7441 80H52.1992V79.2578H53.5176V74.3848H52.1992V73.7207C52.6973 73.7207 53.0635 73.6507 53.2979 73.5107C53.5355 73.3675 53.6689 73.099 53.6982 72.7051H54.4551V79.2578H55.7441V80ZM63.2588 80.1318C62.7835 80.1318 62.3457 80.0521 61.9453 79.8926C61.5482 79.7331 61.2048 79.4954 60.915 79.1797C60.6253 78.8639 60.4007 78.4701 60.2412 77.998C60.0817 77.526 60.002 76.984 60.002 76.3721C60.002 75.7633 60.0785 75.2327 60.2314 74.7803C60.3877 74.3278 60.6139 73.9339 60.9102 73.5986C61.1999 73.2731 61.5433 73.0257 61.9404 72.8564C62.3376 72.6839 62.7819 72.5977 63.2734 72.5977C63.5176 72.5977 63.7454 72.6156 63.957 72.6514C64.1719 72.6872 64.3704 72.7327 64.5527 72.7881C64.709 72.8369 64.8685 72.8988 65.0312 72.9736C65.1973 73.0452 65.36 73.125 65.5195 73.2129V74.3799H65.4414C65.3568 74.3018 65.2477 74.2074 65.1143 74.0967C64.9808 73.986 64.818 73.877 64.626 73.7695C64.4404 73.6686 64.2386 73.5856 64.0205 73.5205C63.8024 73.4554 63.5501 73.4229 63.2637 73.4229C62.9544 73.4229 62.6615 73.4863 62.3848 73.6133C62.1081 73.7402 61.8656 73.9274 61.6572 74.1748C61.4521 74.4222 61.2926 74.7331 61.1787 75.1074C61.0648 75.4818 61.0078 75.9033 61.0078 76.3721C61.0078 76.8701 61.068 77.2998 61.1885 77.6611C61.3089 78.0192 61.4733 78.3219 61.6816 78.5693C61.8835 78.8102 62.1211 78.9925 62.3945 79.1162C62.668 79.2367 62.9577 79.2969 63.2637 79.2969C63.5436 79.2969 63.8024 79.2627 64.04 79.1943C64.2777 79.126 64.4893 79.0397 64.6748 78.9355C64.8538 78.8346 65.0085 78.7321 65.1387 78.6279C65.2689 78.5205 65.3714 78.4294 65.4463 78.3545H65.5195V79.5068C65.36 79.5817 65.2087 79.6533 65.0654 79.7217C64.9255 79.79 64.7546 79.8568 64.5527 79.9219C64.3411 79.9902 64.1442 80.0423 63.9619 80.0781C63.7829 80.1139 63.5485 80.1318 63.2588 80.1318ZM68.1221 80V73.5889H65.6807V72.7295H71.5303V73.5889H69.0889V80H68.1221ZM77.3408 72.7295L74.7041 78.8525C74.5934 79.1097 74.4681 79.3164 74.3281 79.4727C74.1914 79.6289 74.0482 79.7461 73.8984 79.8242C73.7487 79.9056 73.6006 79.9593 73.4541 79.9854C73.3109 80.0114 73.166 80.0244 73.0195 80.0244C72.8893 80.0244 72.7363 80.0212 72.5605 80.0146C72.3848 80.0081 72.2725 80.0033 72.2236 80V79.0967H72.292C72.3408 79.1032 72.4141 79.1113 72.5117 79.1211C72.6126 79.1276 72.7396 79.1309 72.8926 79.1309C72.9642 79.1309 73.0488 79.1276 73.1465 79.1211C73.2441 79.1113 73.3337 79.0869 73.415 79.0479C73.5094 79.0023 73.5973 78.9421 73.6787 78.8672C73.7633 78.7891 73.8398 78.667 73.9082 78.501L74.0742 78.1152L71.5205 72.7295H72.5898L74.5625 77.0068L76.3447 72.7295H77.3408ZM83.293 80H82.3262V73.5889H78.9814V80H78.0146V72.7295H83.293V80ZM84.7725 80V72.7295H89.3184V73.5889H85.7393V75.5811H89.0742V76.4404H85.7393V79.1406H89.3184V80H84.7725ZM95.666 80H94.6992V76.4404H91.3545V80H90.3877V72.7295H91.3545V75.5811H94.6992V72.7295H95.666V80ZM102.37 80H101.408V74.2285L98.1221 80H97.1455V72.7295H98.1074V78.4082L101.35 72.7295H102.37V80Z" fill="#D7E2F2"/>
<rect x="13.5" y="86.5" width="235" height="7" rx="1.5" stroke="#606580" stroke-opacity="0.25"/>
<g clip-path="url(#clip1)">
<rect width="15.4669" height="4" transform="translate(15 88)" fill="#0089FF"/>
<rect width="15.4669" height="4" transform="translate(30.4668 88)" fill="#0089FF"/>
<rect width="15.4669" height="4" transform="translate(45.9331 88)" fill="#0089FF"/>
<rect width="15.4669" height="4" transform="translate(61.4 88)" fill="#0089FF"/>
<rect width="15.4669" height="4" transform="translate(76.8662 88)" fill="#0089FF"/>
<rect width="15.4669" height="4" transform="translate(92.333 88)" fill="#0089FF"/>
<rect width="15.4669" height="4" transform="translate(107.8 88)" fill="#0089FF"/>
<rect width="15.4669" height="4" transform="translate(123.267 88)" fill="#0089FF"/>
<rect width="15.4669" height="4" transform="translate(138.733 88)" fill="#0089FF"/>
<rect width="15.4669" height="4" transform="translate(154.2 88)" fill="#0089FF"/>
<rect width="15.4669" height="4" transform="translate(169.667 88)" fill="#0089FF"/>
<rect width="15.4669" height="4" transform="translate(185.133 88)" fill="#0089FF"/>
<rect width="15.4669" height="4" transform="translate(200.6 88)" fill="#0089FF"/>
<rect width="15.4669" height="4" transform="translate(216.066 88)" fill="#0089FF"/>
</g>
<rect x="5.5" y="62.5" width="313" height="39" rx="1.5" stroke="#606580" stroke-opacity="0.25"/>
<rect x="5.5" y="62.5" width="313" height="39" rx="1.5" stroke="#606580" stroke-opacity="0.25"/>
<defs>
<clipPath id="clip0">
<rect x="15" y="40" width="232" height="4" rx="1" fill="white"/>
</clipPath>
<clipPath id="clip1">
<rect x="15" y="88" width="232" height="4" rx="1" fill="white"/>
</clipPath>
</defs>
</svg>
