<svg width="324" height="117" viewBox="0 0 324 117" fill="none" xmlns="http://www.w3.org/2000/svg">
<path d="M259 73H317C318.105 73 319 73.8954 319 75V111C319 112.105 318.105 113 317 113H259V73Z" fill="#272A38"/>
<path d="M281.207 89.582L277.434 97H276.186L280.182 89.3008H275.67V88.2754H281.207V89.582ZM287.799 94.1699C287.799 94.6191 287.725 95.0332 287.576 95.4121C287.428 95.791 287.229 96.1074 286.979 96.3613C286.717 96.6309 286.424 96.8359 286.1 96.9766C285.775 97.1133 285.418 97.1816 285.027 97.1816C284.633 97.1816 284.273 97.1152 283.949 96.9824C283.629 96.8496 283.346 96.6523 283.1 96.3906C282.799 96.0742 282.562 95.6523 282.391 95.125C282.223 94.5938 282.139 93.9414 282.139 93.168C282.139 92.4102 282.217 91.7266 282.373 91.1172C282.529 90.5039 282.77 89.9707 283.094 89.5176C283.41 89.0762 283.818 88.7324 284.318 88.4863C284.818 88.2363 285.396 88.1113 286.053 88.1113C286.248 88.1113 286.43 88.1211 286.598 88.1406C286.766 88.1602 286.914 88.1914 287.043 88.2344V89.3535H286.99C286.885 89.2949 286.732 89.2422 286.533 89.1953C286.334 89.1445 286.121 89.1191 285.895 89.1191C285.168 89.1191 284.58 89.3652 284.131 89.8574C283.686 90.3457 283.422 91.0723 283.34 92.0371C283.617 91.8418 283.902 91.6914 284.195 91.5859C284.488 91.4805 284.809 91.4277 285.156 91.4277C285.496 91.4277 285.793 91.4629 286.047 91.5332C286.305 91.5996 286.572 91.7363 286.85 91.9434C287.17 92.1855 287.408 92.4922 287.564 92.8633C287.721 93.2344 287.799 93.6699 287.799 94.1699ZM286.609 94.2168C286.609 93.8574 286.562 93.5566 286.469 93.3145C286.375 93.0723 286.223 92.8652 286.012 92.6934C285.859 92.5684 285.686 92.4863 285.49 92.4473C285.299 92.4082 285.102 92.3887 284.898 92.3887C284.625 92.3887 284.359 92.4297 284.102 92.5117C283.844 92.5938 283.59 92.7129 283.34 92.8691C283.332 92.9551 283.326 93.0391 283.322 93.1211C283.318 93.1992 283.316 93.2988 283.316 93.4199C283.316 94.0254 283.375 94.5137 283.492 94.8848C283.613 95.2559 283.762 95.5371 283.938 95.7285C284.105 95.9121 284.277 96.041 284.453 96.1152C284.633 96.1895 284.826 96.2266 285.033 96.2266C285.502 96.2266 285.881 96.0586 286.17 95.7227C286.463 95.3867 286.609 94.8848 286.609 94.2168ZM292.92 90.6953C292.92 91.5742 292.742 92.2266 292.387 92.6523C292.035 93.0742 291.525 93.2852 290.857 93.2852C290.178 93.2852 289.662 93.0703 289.311 92.6406C288.963 92.2109 288.789 91.5645 288.789 90.7012C288.789 89.8262 288.967 89.1758 289.322 88.75C289.678 88.3242 290.189 88.1113 290.857 88.1113C291.537 88.1113 292.051 88.3262 292.398 88.7559C292.746 89.1855 292.92 89.832 292.92 90.6953ZM296.822 88.2754L292.252 97H291.285L295.855 88.2754H296.822ZM299.307 94.5801C299.307 95.459 299.129 96.1113 298.773 96.5371C298.422 96.959 297.912 97.1699 297.244 97.1699C296.564 97.1699 296.049 96.9551 295.697 96.5254C295.35 96.0957 295.176 95.4492 295.176 94.5859C295.176 93.7109 295.354 93.0605 295.709 92.6348C296.064 92.209 296.576 91.9961 297.244 91.9961C297.924 91.9961 298.438 92.2109 298.785 92.6406C299.133 93.0703 299.307 93.7168 299.307 94.5801ZM291.877 90.6953C291.877 90.1016 291.807 89.6523 291.666 89.3477C291.529 89.043 291.26 88.8906 290.857 88.8906C290.455 88.8906 290.184 89.0449 290.043 89.3535C289.902 89.6621 289.832 90.1113 289.832 90.7012C289.832 91.2871 289.898 91.7344 290.031 92.043C290.164 92.3516 290.439 92.5059 290.857 92.5059C291.26 92.5059 291.529 92.3516 291.666 92.043C291.807 91.7344 291.877 91.2852 291.877 90.6953ZM298.264 94.5801C298.264 93.9863 298.193 93.5371 298.053 93.2324C297.916 92.9277 297.646 92.7754 297.244 92.7754C296.842 92.7754 296.57 92.9297 296.43 93.2383C296.289 93.5469 296.219 93.9961 296.219 94.5859C296.219 95.1719 296.285 95.6191 296.418 95.9277C296.551 96.2363 296.826 96.3906 297.244 96.3906C297.646 96.3906 297.916 96.2363 298.053 95.9277C298.193 95.6191 298.264 95.1699 298.264 94.5801Z" fill="#D7E2F2"/>
<path d="M56.5791 89.1318C56.1038 89.1318 55.666 89.0521 55.2656 88.8926C54.8685 88.7331 54.5251 88.4954 54.2354 88.1797C53.9456 87.8639 53.721 87.4701 53.5615 86.998C53.402 86.526 53.3223 85.984 53.3223 85.3721C53.3223 84.7633 53.3988 84.2327 53.5518 83.7803C53.708 83.3278 53.9342 82.9339 54.2305 82.5986C54.5202 82.2731 54.8636 82.0257 55.2607 81.8564C55.6579 81.6839 56.1022 81.5977 56.5938 81.5977C56.8379 81.5977 57.0658 81.6156 57.2773 81.6514C57.4922 81.6872 57.6908 81.7327 57.873 81.7881C58.0293 81.8369 58.1888 81.8988 58.3516 81.9736C58.5176 82.0452 58.6803 82.125 58.8398 82.2129V83.3799H58.7617C58.6771 83.3018 58.568 83.2074 58.4346 83.0967C58.3011 82.986 58.1383 82.877 57.9463 82.7695C57.7607 82.6686 57.5589 82.5856 57.3408 82.5205C57.1227 82.4554 56.8704 82.4229 56.584 82.4229C56.2747 82.4229 55.9818 82.4863 55.7051 82.6133C55.4284 82.7402 55.1859 82.9274 54.9775 83.1748C54.7725 83.4222 54.613 83.7331 54.499 84.1074C54.3851 84.4818 54.3281 84.9033 54.3281 85.3721C54.3281 85.8701 54.3883 86.2998 54.5088 86.6611C54.6292 87.0192 54.7936 87.3219 55.002 87.5693C55.2038 87.8102 55.4414 87.9925 55.7148 88.1162C55.9883 88.2367 56.278 88.2969 56.584 88.2969C56.8639 88.2969 57.1227 88.2627 57.3604 88.1943C57.598 88.126 57.8096 88.0397 57.9951 87.9355C58.1742 87.8346 58.3288 87.7321 58.459 87.6279C58.5892 87.5205 58.6917 87.4294 58.7666 87.3545H58.8398V88.5068C58.6803 88.5817 58.529 88.6533 58.3857 88.7217C58.2458 88.79 58.0749 88.8568 57.873 88.9219C57.6615 88.9902 57.4645 89.0423 57.2822 89.0781C57.1032 89.1139 56.8688 89.1318 56.5791 89.1318ZM64.0596 89H62.917L61.0469 86.4854H60.5879V89H59.6699V83.5459H60.5879V85.9189C60.8255 85.9157 61.0273 85.8669 61.1934 85.7725C61.3626 85.6748 61.5059 85.4876 61.623 85.2109C61.6589 85.1296 61.6979 85.0352 61.7402 84.9277C61.7858 84.8203 61.8216 84.7259 61.8477 84.6445C61.9909 84.2441 62.1895 83.9609 62.4434 83.7949C62.6973 83.6289 63.0277 83.5459 63.4346 83.5459H63.6836V84.3369H63.4736C63.2165 84.3369 63.0228 84.3906 62.8926 84.498C62.7656 84.6022 62.6582 84.7943 62.5703 85.0742C62.4792 85.3574 62.3717 85.5788 62.248 85.7383C62.1243 85.8945 61.9876 86.015 61.8379 86.0996L64.0596 89ZM68.874 89H67.9561V84.3174H66.0811C66.0713 84.5876 66.0615 84.848 66.0518 85.0986C66.042 85.346 66.0322 85.5706 66.0225 85.7725C66.0029 86.2835 65.9688 86.7116 65.9199 87.0566C65.8743 87.4017 65.8158 87.6784 65.7441 87.8867C65.6725 88.1016 65.5928 88.2692 65.5049 88.3896C65.4202 88.5101 65.3242 88.6191 65.2168 88.7168C65.1061 88.8145 64.9873 88.8877 64.8604 88.9365C64.7334 88.9854 64.5902 89.0098 64.4307 89.0098C64.3786 89.0098 64.3118 89.0081 64.2305 89.0049C64.1491 89.0016 64.0921 89 64.0596 89V88.1992H64.1084C64.1312 88.1992 64.154 88.2008 64.1768 88.2041C64.2028 88.2074 64.2321 88.209 64.2646 88.209C64.3428 88.209 64.4193 88.1976 64.4941 88.1748C64.569 88.152 64.6357 88.1097 64.6943 88.0479C64.8571 87.8883 64.9759 87.61 65.0508 87.2129C65.1257 86.8125 65.1794 86.2542 65.2119 85.5381C65.2249 85.2712 65.2363 84.9554 65.2461 84.5908C65.2591 84.2262 65.2705 83.8779 65.2803 83.5459H68.874V89ZM73.2539 87.6572V86.1436C73.0358 86.1631 72.7591 86.1908 72.4238 86.2266C72.0918 86.2591 71.8232 86.3063 71.6182 86.3682C71.374 86.443 71.1722 86.5586 71.0127 86.7148C70.8532 86.8678 70.7734 87.0827 70.7734 87.3594C70.7734 87.6719 70.8613 87.9079 71.0371 88.0674C71.2129 88.2269 71.4701 88.3066 71.8086 88.3066C72.0983 88.3066 72.3604 88.2448 72.5947 88.1211C72.8291 87.9941 73.0488 87.8395 73.2539 87.6572ZM73.2539 88.4189C73.179 88.4743 73.0781 88.5524 72.9512 88.6533C72.8275 88.751 72.707 88.8291 72.5898 88.8877C72.4271 88.9723 72.2692 89.0374 72.1162 89.083C71.9665 89.1286 71.7549 89.1514 71.4814 89.1514C71.2568 89.1514 71.0436 89.109 70.8418 89.0244C70.64 88.9398 70.4626 88.821 70.3096 88.668C70.1631 88.5182 70.0459 88.3343 69.958 88.1162C69.8701 87.8949 69.8262 87.6621 69.8262 87.418C69.8262 87.0404 69.9059 86.7197 70.0654 86.4561C70.2249 86.1891 70.4772 85.9775 70.8223 85.8213C71.1283 85.6813 71.4896 85.5853 71.9062 85.5332C72.3229 85.4779 72.7721 85.4372 73.2539 85.4111V85.2354C73.2539 85.0205 73.2214 84.848 73.1562 84.7178C73.0911 84.5843 73 84.4818 72.8828 84.4102C72.7656 84.3353 72.6224 84.2865 72.4531 84.2637C72.2839 84.2376 72.1097 84.2246 71.9307 84.2246C71.7191 84.2246 71.4701 84.2572 71.1836 84.3223C70.8971 84.3841 70.6107 84.4753 70.3242 84.5957H70.2705V83.6631C70.4398 83.6143 70.6823 83.5605 70.998 83.502C71.3138 83.4434 71.6263 83.4141 71.9355 83.4141C72.3099 83.4141 72.6257 83.4434 72.8828 83.502C73.14 83.5605 73.3711 83.6663 73.5762 83.8193C73.7747 83.9691 73.9229 84.1628 74.0205 84.4004C74.1182 84.638 74.167 84.9277 74.167 85.2695V89H73.2539V88.4189ZM80.1387 90.3086H79.2842V88.9854H75.6904V90.3086H74.8359V88.2188H75.1973C75.5065 87.7109 75.7588 87.0485 75.9541 86.2314C76.1527 85.4111 76.252 84.516 76.252 83.5459H79.5967V88.2188H80.1387V90.3086ZM78.6787 88.2188V84.3174H77.1162C77.0739 85.1312 76.9616 85.875 76.7793 86.5488C76.6003 87.2194 76.374 87.776 76.1006 88.2188H78.6787ZM83.2148 89.1221C82.8405 89.1221 82.4971 89.0651 82.1846 88.9512C81.8721 88.834 81.6035 88.6582 81.3789 88.4238C81.1543 88.1895 80.9801 87.8949 80.8564 87.54C80.7327 87.182 80.6709 86.762 80.6709 86.2803C80.6709 85.8018 80.7344 85.3883 80.8613 85.04C80.9915 84.6917 81.1641 84.3988 81.3789 84.1611C81.5938 83.9235 81.8607 83.7412 82.1797 83.6143C82.502 83.484 82.847 83.4189 83.2148 83.4189C83.5143 83.4189 83.8024 83.4613 84.0791 83.5459C84.359 83.6305 84.6081 83.7282 84.8262 83.8389V84.8691H84.7725C84.7074 84.8138 84.6227 84.7503 84.5186 84.6787C84.4176 84.6071 84.2939 84.5339 84.1475 84.459C84.0205 84.3939 83.8708 84.3369 83.6982 84.2881C83.5257 84.2393 83.3597 84.2148 83.2002 84.2148C82.7249 84.2148 82.3424 84.3955 82.0527 84.7568C81.7663 85.1149 81.623 85.6227 81.623 86.2803C81.623 86.9248 81.7614 87.4277 82.0381 87.7891C82.318 88.1471 82.7054 88.3262 83.2002 88.3262C83.4997 88.3262 83.7845 88.2643 84.0547 88.1406C84.3249 88.0169 84.5641 87.8574 84.7725 87.6621H84.8262V88.6924C84.735 88.7347 84.6211 88.7868 84.4844 88.8486C84.3477 88.9072 84.224 88.9512 84.1133 88.9805C83.957 89.026 83.8171 89.0602 83.6934 89.083C83.5697 89.109 83.4102 89.1221 83.2148 89.1221ZM90.0557 89H88.9131L87.043 86.4854H86.584V89H85.666V83.5459H86.584V85.9189C86.8216 85.9157 87.0234 85.8669 87.1895 85.7725C87.3587 85.6748 87.502 85.4876 87.6191 85.2109C87.6549 85.1296 87.694 85.0352 87.7363 84.9277C87.7819 84.8203 87.8177 84.7259 87.8438 84.6445C87.987 84.2441 88.1855 83.9609 88.4395 83.7949C88.6934 83.6289 89.0238 83.5459 89.4307 83.5459H89.6797V84.3369H89.4697C89.2126 84.3369 89.0189 84.3906 88.8887 84.498C88.7617 84.6022 88.6543 84.7943 88.5664 85.0742C88.4753 85.3574 88.3678 85.5788 88.2441 85.7383C88.1204 85.8945 87.9837 86.015 87.834 86.0996L90.0557 89ZM94.9531 89H94.0449V84.9326L91.4766 89H90.6465V83.5459H91.5547V87.5498L94.0938 83.5459H94.9531V89ZM98.6494 89.127C97.7803 89.127 97.1048 88.8828 96.623 88.3945C96.1445 87.903 95.9053 87.2064 95.9053 86.3047C95.9053 85.416 96.138 84.7096 96.6035 84.1855C97.069 83.6582 97.6777 83.3945 98.4297 83.3945C98.7682 83.3945 99.0677 83.4434 99.3281 83.541C99.5885 83.6387 99.8164 83.7917 100.012 84C100.207 84.2083 100.357 84.4639 100.461 84.7666C100.565 85.0661 100.617 85.4339 100.617 85.8701V86.3682H96.8379C96.8379 87.0029 96.9974 87.488 97.3164 87.8232C97.6354 88.1585 98.0765 88.3262 98.6396 88.3262C98.8415 88.3262 99.0384 88.3034 99.2305 88.2578C99.4258 88.2122 99.6016 88.1536 99.7578 88.082C99.9238 88.0072 100.064 87.9355 100.178 87.8672C100.292 87.7956 100.386 87.7288 100.461 87.667H100.515V88.668C100.407 88.7103 100.274 88.764 100.114 88.8291C99.9548 88.891 99.8115 88.9398 99.6846 88.9756C99.5055 89.0244 99.3428 89.0618 99.1963 89.0879C99.0531 89.1139 98.8708 89.127 98.6494 89.127ZM99.7236 85.665C99.7171 85.4176 99.6878 85.2044 99.6357 85.0254C99.5837 84.8464 99.5088 84.695 99.4111 84.5713C99.3037 84.4346 99.1654 84.3304 98.9961 84.2588C98.8301 84.1872 98.6234 84.1514 98.376 84.1514C98.1318 84.1514 97.9235 84.1888 97.751 84.2637C97.5817 84.3353 97.4271 84.4411 97.2871 84.5811C97.1504 84.7243 97.0462 84.8838 96.9746 85.0596C96.903 85.2321 96.8574 85.4339 96.8379 85.665H99.7236ZM108.977 89H108.059V84.3369H105.588V89H104.67V83.5459H108.977V89ZM114.792 86.2754C114.792 87.1934 114.571 87.903 114.128 88.4043C113.685 88.9023 113.096 89.1514 112.36 89.1514C111.602 89.1514 111.005 88.8942 110.568 88.3799C110.135 87.8623 109.919 87.1608 109.919 86.2754C109.919 85.3639 110.142 84.6559 110.588 84.1514C111.037 83.6468 111.628 83.3945 112.36 83.3945C113.096 83.3945 113.685 83.6468 114.128 84.1514C114.571 84.6527 114.792 85.3607 114.792 86.2754ZM113.845 86.2754C113.845 85.569 113.716 85.0449 113.459 84.7031C113.202 84.3581 112.836 84.1855 112.36 84.1855C111.882 84.1855 111.512 84.3581 111.252 84.7031C110.995 85.0449 110.866 85.569 110.866 86.2754C110.866 86.959 110.995 87.4782 111.252 87.833C111.512 88.1846 111.882 88.3604 112.36 88.3604C112.832 88.3604 113.197 88.1878 113.454 87.8428C113.715 87.4945 113.845 86.972 113.845 86.2754ZM120.793 89H119.885V84.7129L118.576 87.4961H117.893L116.594 84.7129V89H115.734V83.5459H116.843L118.278 86.5732L119.665 83.5459H120.793V89ZM124.489 89.127C123.62 89.127 122.945 88.8828 122.463 88.3945C121.984 87.903 121.745 87.2064 121.745 86.3047C121.745 85.416 121.978 84.7096 122.443 84.1855C122.909 83.6582 123.518 83.3945 124.27 83.3945C124.608 83.3945 124.908 83.4434 125.168 83.541C125.428 83.6387 125.656 83.7917 125.852 84C126.047 84.2083 126.197 84.4639 126.301 84.7666C126.405 85.0661 126.457 85.4339 126.457 85.8701V86.3682H122.678C122.678 87.0029 122.837 87.488 123.156 87.8232C123.475 88.1585 123.916 88.3262 124.479 88.3262C124.681 88.3262 124.878 88.3034 125.07 88.2578C125.266 88.2122 125.441 88.1536 125.598 88.082C125.764 88.0072 125.904 87.9355 126.018 87.8672C126.132 87.7956 126.226 87.7288 126.301 87.667H126.354V88.668C126.247 88.7103 126.114 88.764 125.954 88.8291C125.795 88.891 125.651 88.9398 125.524 88.9756C125.345 89.0244 125.183 89.0618 125.036 89.0879C124.893 89.1139 124.711 89.127 124.489 89.127ZM125.563 85.665C125.557 85.4176 125.528 85.2044 125.476 85.0254C125.424 84.8464 125.349 84.695 125.251 84.5713C125.144 84.4346 125.005 84.3304 124.836 84.2588C124.67 84.1872 124.463 84.1514 124.216 84.1514C123.972 84.1514 123.763 84.1888 123.591 84.2637C123.422 84.3353 123.267 84.4411 123.127 84.5811C122.99 84.7243 122.886 84.8838 122.814 85.0596C122.743 85.2321 122.697 85.4339 122.678 85.665H125.563ZM134.382 90.3086H133.527V89H127.385V83.5459H128.303V88.2236H130.153V83.5459H131.071V88.2236H132.922V83.5459H133.84V88.2236H134.382V90.3086ZM137.653 89.127C136.784 89.127 136.109 88.8828 135.627 88.3945C135.148 87.903 134.909 87.2064 134.909 86.3047C134.909 85.416 135.142 84.7096 135.607 84.1855C136.073 83.6582 136.682 83.3945 137.434 83.3945C137.772 83.3945 138.072 83.4434 138.332 83.541C138.592 83.6387 138.82 83.7917 139.016 84C139.211 84.2083 139.361 84.4639 139.465 84.7666C139.569 85.0661 139.621 85.4339 139.621 85.8701V86.3682H135.842C135.842 87.0029 136.001 87.488 136.32 87.8232C136.639 88.1585 137.08 88.3262 137.644 88.3262C137.845 88.3262 138.042 88.3034 138.234 88.2578C138.43 88.2122 138.605 88.1536 138.762 88.082C138.928 88.0072 139.068 87.9355 139.182 87.8672C139.296 87.7956 139.39 87.7288 139.465 87.667H139.519V88.668C139.411 88.7103 139.278 88.764 139.118 88.8291C138.959 88.891 138.815 88.9398 138.688 88.9756C138.509 89.0244 138.347 89.0618 138.2 89.0879C138.057 89.1139 137.875 89.127 137.653 89.127ZM138.728 85.665C138.721 85.4176 138.692 85.2044 138.64 85.0254C138.588 84.8464 138.513 84.695 138.415 84.5713C138.308 84.4346 138.169 84.3304 138 84.2588C137.834 84.1872 137.627 84.1514 137.38 84.1514C137.136 84.1514 136.927 84.1888 136.755 84.2637C136.586 84.3353 136.431 84.4411 136.291 84.5811C136.154 84.7243 136.05 84.8838 135.979 85.0596C135.907 85.2321 135.861 85.4339 135.842 85.665H138.728ZM144.855 89H143.938V86.5439H141.467V89H140.549V83.5459H141.467V85.7529H143.938V83.5459H144.855V89ZM150.49 89H149.582V84.9326L147.014 89H146.184V83.5459H147.092V87.5498L149.631 83.5459H150.49V89ZM155.769 89H154.851V86.8369H153.942L152.326 89H151.257L153.01 86.7539C152.557 86.6204 152.225 86.4219 152.014 86.1582C151.805 85.8945 151.701 85.5413 151.701 85.0986C151.701 84.8285 151.76 84.5924 151.877 84.3906C151.997 84.1855 152.159 84.013 152.36 83.873C152.523 83.7624 152.728 83.681 152.976 83.6289C153.223 83.5736 153.5 83.5459 153.806 83.5459H155.769V89ZM154.851 86.1143V84.2783H153.854C153.643 84.2783 153.475 84.2897 153.352 84.3125C153.231 84.3353 153.114 84.3792 153 84.4443C152.883 84.516 152.793 84.6136 152.731 84.7373C152.673 84.8577 152.644 84.988 152.644 85.1279C152.644 85.307 152.663 85.4535 152.702 85.5674C152.744 85.6781 152.819 85.7806 152.927 85.875C153.041 85.9727 153.179 86.0378 153.342 86.0703C153.508 86.0996 153.688 86.1143 153.884 86.1143H154.851Z" fill="#D7E2F2"/>
<rect x="53.5" y="98.5" width="16" height="7" rx="1.5" stroke="#606580" stroke-opacity="0.25"/>
<g clip-path="url(#clip0)">
<rect width="0.866678" height="4" transform="translate(55 100)" fill="#0089FF"/>
<rect width="0.866679" height="4" transform="translate(55.8667 100)" fill="#0089FF"/>
<rect width="0.866678" height="4" transform="translate(56.7333 100)" fill="#0089FF"/>
<rect width="0.866679" height="4" transform="translate(57.6001 100)" fill="#0089FF"/>
<rect width="0.866681" height="4" transform="translate(58.4668 100)" fill="#0089FF"/>
<rect width="0.866679" height="4" transform="translate(59.3334 100)" fill="#0089FF"/>
<rect width="0.866678" height="4" transform="translate(60.1998 100)" fill="#0089FF"/>
<rect width="0.866679" height="4" transform="translate(61.0664 100)" fill="#0089FF"/>
<rect width="0.866673" height="4" transform="translate(61.9336 100)" fill="#0089FF"/>
<rect width="0.866683" height="4" transform="translate(62.8002 100)" fill="#0089FF"/>
<rect width="0.86668" height="4" transform="translate(63.6665 100)" fill="#0089FF"/>
<rect width="0.866678" height="4" transform="translate(64.5332 100)" fill="#0089FF"/>
<rect width="0.866678" height="4" transform="translate(65.3999 100)" fill="#0089FF"/>
<rect width="0.86668" height="4" transform="translate(66.267 100)" fill="#0089FF"/>
<rect width="0.866679" height="4" transform="translate(67.1333 100)" fill="#0089FF"/>
</g>
<rect x="73.4602" y="98.5" width="16" height="7" rx="1.5" stroke="#606580" stroke-opacity="0.25"/>
<g clip-path="url(#clip1)">
<rect width="0.866678" height="4" transform="translate(74.9602 100)" fill="#0089FF"/>
<rect width="0.866679" height="4" transform="translate(75.8269 100)" fill="#0089FF"/>
<rect width="0.866678" height="4" transform="translate(76.6935 100)" fill="#0089FF"/>
<rect width="0.866679" height="4" transform="translate(77.5603 100)" fill="#0089FF"/>
<rect width="0.866681" height="4" transform="translate(78.427 100)" fill="#0089FF"/>
<rect width="0.866679" height="4" transform="translate(79.2936 100)" fill="#0089FF"/>
<rect width="0.866678" height="4" transform="translate(80.16 100)" fill="#0089FF"/>
<rect width="0.866679" height="4" transform="translate(81.0266 100)" fill="#0089FF"/>
<rect width="0.866673" height="4" transform="translate(81.8938 100)" fill="#0089FF"/>
<rect width="0.866683" height="4" transform="translate(82.7604 100)" fill="#0089FF"/>
<rect width="0.86668" height="4" transform="translate(83.6267 100)" fill="#0089FF"/>
<rect width="0.866678" height="4" transform="translate(84.4934 100)" fill="#0089FF"/>
<rect width="0.866678" height="4" transform="translate(85.3601 100)" fill="#0089FF"/>
<rect width="0.86668" height="4" transform="translate(86.2272 100)" fill="#0089FF"/>
<rect width="0.866679" height="4" transform="translate(87.0935 100)" fill="#0089FF"/>
</g>
<rect x="93.4208" y="98.5" width="16" height="7" rx="1.5" stroke="#606580" stroke-opacity="0.25"/>
<g clip-path="url(#clip2)">
<rect width="0.866678" height="4" transform="translate(94.9208 100)" fill="#0089FF"/>
<rect width="0.866679" height="4" transform="translate(95.7875 100)" fill="#0089FF"/>
<rect width="0.866678" height="4" transform="translate(96.6541 100)" fill="#0089FF"/>
<rect width="0.866679" height="4" transform="translate(97.5209 100)" fill="#0089FF"/>
<rect width="0.866681" height="4" transform="translate(98.3876 100)" fill="#0089FF"/>
<rect width="0.866679" height="4" transform="translate(99.2542 100)" fill="#0089FF"/>
<rect width="0.866678" height="4" transform="translate(100.121 100)" fill="#0089FF"/>
<rect width="0.866679" height="4" transform="translate(100.987 100)" fill="#0089FF"/>
<rect width="0.866673" height="4" transform="translate(101.854 100)" fill="#0089FF"/>
<rect width="0.866683" height="4" transform="translate(102.721 100)" fill="#0089FF"/>
<rect width="0.86668" height="4" transform="translate(103.587 100)" fill="#0089FF"/>
<rect width="0.866678" height="4" transform="translate(104.454 100)" fill="#0089FF"/>
<rect width="0.866678" height="4" transform="translate(105.321 100)" fill="#0089FF"/>
<rect width="0.86668" height="4" transform="translate(106.188 100)" fill="#0089FF"/>
<rect width="0.866679" height="4" transform="translate(107.054 100)" fill="#0089FF"/>
</g>
<rect x="113.381" y="98.5" width="16" height="7" rx="1.5" stroke="#606580" stroke-opacity="0.25"/>
<g clip-path="url(#clip3)">
<rect width="0.866678" height="4" transform="translate(114.881 100)" fill="#0089FF"/>
<rect width="0.866679" height="4" transform="translate(115.748 100)" fill="#0089FF"/>
<rect width="0.866678" height="4" transform="translate(116.614 100)" fill="#0089FF"/>
<rect width="0.866679" height="4" transform="translate(117.481 100)" fill="#0089FF"/>
<rect width="0.866681" height="4" transform="translate(118.348 100)" fill="#0089FF"/>
<rect width="0.866679" height="4" transform="translate(119.214 100)" fill="#0089FF"/>
<rect width="0.866678" height="4" transform="translate(120.081 100)" fill="#0089FF"/>
<rect width="0.866679" height="4" transform="translate(120.948 100)" fill="#0089FF"/>
<rect width="0.866673" height="4" transform="translate(121.815 100)" fill="#0089FF"/>
<rect width="0.866683" height="4" transform="translate(122.681 100)" fill="#0089FF"/>
<rect width="0.86668" height="4" transform="translate(123.548 100)" fill="#0089FF"/>
<rect width="0.866678" height="4" transform="translate(124.414 100)" fill="#0089FF"/>
<rect width="0.866678" height="4" transform="translate(125.281 100)" fill="#0089FF"/>
<rect width="0.86668" height="4" transform="translate(126.148 100)" fill="#0089FF"/>
<rect width="0.866679" height="4" transform="translate(127.014 100)" fill="#0089FF"/>
</g>
<rect x="133.341" y="98.5" width="16" height="7" rx="1.5" stroke="#606580" stroke-opacity="0.25"/>
<g clip-path="url(#clip4)">
<rect width="0.866678" height="4" transform="translate(134.841 100)" fill="#0089FF"/>
<rect width="0.866679" height="4" transform="translate(135.708 100)" fill="#0089FF"/>
<rect width="0.866678" height="4" transform="translate(136.575 100)" fill="#0089FF"/>
<rect width="0.866679" height="4" transform="translate(137.441 100)" fill="#0089FF"/>
<rect width="0.866681" height="4" transform="translate(138.308 100)" fill="#0089FF"/>
<rect width="0.866679" height="4" transform="translate(139.175 100)" fill="#0089FF"/>
<rect width="0.866678" height="4" transform="translate(140.041 100)" fill="#0089FF"/>
<rect width="0.866679" height="4" transform="translate(140.908 100)" fill="#0089FF"/>
<rect width="0.866673" height="4" transform="translate(141.775 100)" fill="#0089FF"/>
<rect width="0.866683" height="4" transform="translate(142.641 100)" fill="#0089FF"/>
<rect width="0.86668" height="4" transform="translate(143.508 100)" fill="#0089FF"/>
<rect width="0.866678" height="4" transform="translate(144.375 100)" fill="#0089FF"/>
<rect width="0.866678" height="4" transform="translate(145.241 100)" fill="#0089FF"/>
<rect width="0.86668" height="4" transform="translate(146.108 100)" fill="#0089FF"/>
<rect width="0.866679" height="4" transform="translate(146.975 100)" fill="#0089FF"/>
</g>
<rect x="153.302" y="98.5" width="16" height="7" rx="1.5" stroke="#606580" stroke-opacity="0.25"/>
<g clip-path="url(#clip5)">
<rect width="0.866678" height="4" transform="translate(154.802 100)" fill="#0089FF"/>
<rect width="0.866679" height="4" transform="translate(155.668 100)" fill="#0089FF"/>
<rect width="0.866678" height="4" transform="translate(156.535 100)" fill="#0089FF"/>
<rect width="0.866679" height="4" transform="translate(157.402 100)" fill="#0089FF"/>
<rect width="0.866681" height="4" transform="translate(158.268 100)" fill="#0089FF"/>
<rect width="0.866679" height="4" transform="translate(159.135 100)" fill="#0089FF"/>
<rect width="0.866678" height="4" transform="translate(160.001 100)" fill="#0089FF"/>
<rect width="0.866679" height="4" transform="translate(160.868 100)" fill="#0089FF"/>
<rect width="0.866673" height="4" transform="translate(161.735 100)" fill="#0089FF"/>
<rect width="0.866685" height="4" transform="translate(162.602 100)" fill="#0089FF"/>
<rect width="0.86668" height="4" transform="translate(163.468 100)" fill="#0089FF"/>
<rect width="0.86668" height="4" transform="translate(164.335 100)" fill="#0089FF"/>
<rect width="0.866678" height="4" transform="translate(165.201 100)" fill="#0089FF"/>
<rect width="0.86668" height="4" transform="translate(166.068 100)" fill="#0089FF"/>
<rect width="0.866679" height="4" transform="translate(166.935 100)" fill="#0089FF"/>
</g>
<rect x="173.262" y="98.5" width="16" height="7" rx="1.5" stroke="#606580" stroke-opacity="0.25"/>
<g clip-path="url(#clip6)">
<rect width="0.866678" height="4" transform="translate(174.762 100)" fill="#0089FF"/>
<rect width="0.866678" height="4" transform="translate(175.629 100)" fill="#0089FF"/>
<rect width="0.866678" height="4" transform="translate(176.495 100)" fill="#0089FF"/>
<rect width="0.86668" height="4" transform="translate(177.362 100)" fill="#0089FF"/>
<rect width="0.86668" height="4" transform="translate(178.229 100)" fill="#0089FF"/>
<rect width="0.866679" height="4" transform="translate(179.095 100)" fill="#0089FF"/>
<rect width="0.866678" height="4" transform="translate(179.962 100)" fill="#0089FF"/>
<rect width="0.866678" height="4" transform="translate(180.828 100)" fill="#0089FF"/>
<rect width="0.866673" height="4" transform="translate(181.696 100)" fill="#0089FF"/>
<rect width="0.866686" height="4" transform="translate(182.562 100)" fill="#0089FF"/>
<rect width="0.86668" height="4" transform="translate(183.429 100)" fill="#0089FF"/>
<rect width="0.866679" height="4" transform="translate(184.295 100)" fill="#0089FF"/>
<rect width="0.866678" height="4" transform="translate(185.162 100)" fill="#0089FF"/>
<rect width="0.866679" height="4" transform="translate(186.029 100)" fill="#0089FF"/>
<rect width="0.866679" height="4" transform="translate(186.895 100)" fill="#0089FF"/>
</g>
<rect x="193.222" y="98.5" width="16" height="7" rx="1.5" stroke="#606580" stroke-opacity="0.25"/>
<g clip-path="url(#clip7)">
<rect width="0.866678" height="4" transform="translate(194.722 100)" fill="#0089FF"/>
<rect width="0.866678" height="4" transform="translate(195.589 100)" fill="#0089FF"/>
<rect width="0.866677" height="4" transform="translate(196.456 100)" fill="#0089FF"/>
<rect width="0.866679" height="4" transform="translate(197.322 100)" fill="#0089FF"/>
<rect width="0.86668" height="4" transform="translate(198.189 100)" fill="#0089FF"/>
<rect width="0.866679" height="4" transform="translate(199.056 100)" fill="#0089FF"/>
<rect width="0.866678" height="4" transform="translate(199.922 100)" fill="#0089FF"/>
<rect width="0.866678" height="4" transform="translate(200.789 100)" fill="#0089FF"/>
<rect width="0.866673" height="4" transform="translate(201.656 100)" fill="#0089FF"/>
<rect width="0.866686" height="4" transform="translate(202.522 100)" fill="#0089FF"/>
<rect width="0.86668" height="4" transform="translate(203.389 100)" fill="#0089FF"/>
<rect width="0.866679" height="4" transform="translate(204.255 100)" fill="#0089FF"/>
<rect width="0.866678" height="4" transform="translate(205.122 100)" fill="#0089FF"/>
<rect width="0.866679" height="4" transform="translate(205.989 100)" fill="#0089FF"/>
<rect width="0.866679" height="4" transform="translate(206.856 100)" fill="#0089FF"/>
</g>
<rect x="213.183" y="98.5" width="16" height="7" rx="1.5" stroke="#606580" stroke-opacity="0.25"/>
<g clip-path="url(#clip8)">
<rect width="0.866678" height="4" transform="translate(214.683 100)" fill="#0089FF"/>
<rect width="0.866678" height="4" transform="translate(215.549 100)" fill="#0089FF"/>
<rect width="0.866677" height="4" transform="translate(216.416 100)" fill="#0089FF"/>
<rect width="0.866679" height="4" transform="translate(217.283 100)" fill="#0089FF"/>
<rect width="0.86668" height="4" transform="translate(218.149 100)" fill="#0089FF"/>
<rect width="0.866679" height="4" transform="translate(219.016 100)" fill="#0089FF"/>
<rect width="0.866678" height="4" transform="translate(219.882 100)" fill="#0089FF"/>
<rect width="0.866678" height="4" transform="translate(220.749 100)" fill="#0089FF"/>
<rect width="0.866673" height="4" transform="translate(221.616 100)" fill="#0089FF"/>
<rect width="0.866686" height="4" transform="translate(222.483 100)" fill="#0089FF"/>
<rect width="0.86668" height="4" transform="translate(223.349 100)" fill="#0089FF"/>
<rect width="0.866679" height="4" transform="translate(224.216 100)" fill="#0089FF"/>
<rect width="0.866677" height="4" transform="translate(225.083 100)" fill="#0089FF"/>
<rect width="0.866679" height="4" transform="translate(225.95 100)" fill="#0089FF"/>
<rect width="0.866679" height="4" transform="translate(226.816 100)" fill="#0089FF"/>
</g>
<rect x="233.143" y="98.5" width="16" height="7" rx="1.5" stroke="#606580" stroke-opacity="0.25"/>
<g clip-path="url(#clip9)">
<rect width="0.866677" height="4" transform="translate(234.643 100)" fill="#0089FF"/>
<rect width="0.866679" height="4" transform="translate(235.51 100)" fill="#0089FF"/>
<rect width="0.866678" height="4" transform="translate(236.376 100)" fill="#0089FF"/>
<rect width="0.866678" height="4" transform="translate(237.243 100)" fill="#0089FF"/>
<rect width="0.866682" height="4" transform="translate(238.11 100)" fill="#0089FF"/>
<rect width="0.866678" height="4" transform="translate(238.976 100)" fill="#0089FF"/>
<rect width="0.866678" height="4" transform="translate(239.843 100)" fill="#0089FF"/>
<rect width="0.866679" height="4" transform="translate(240.71 100)" fill="#0089FF"/>
<rect width="0.866672" height="4" transform="translate(241.577 100)" fill="#0089FF"/>
<rect width="0.866686" height="4" transform="translate(242.443 100)" fill="#0089FF"/>
<rect width="0.86668" height="4" transform="translate(243.31 100)" fill="#0089FF"/>
<rect width="0.86668" height="4" transform="translate(244.176 100)" fill="#0089FF"/>
<rect width="0.866678" height="4" transform="translate(245.043 100)" fill="#0089FF"/>
<rect width="0.86668" height="4" transform="translate(245.91 100)" fill="#0089FF"/>
<rect width="0.86668" height="4" transform="translate(246.777 100)" fill="#0089FF"/>
</g>
<path d="M5.5 75C5.5 74.1716 6.17157 73.5 7 73.5H44.5V112.5H7C6.17157 112.5 5.5 111.828 5.5 111V75Z" stroke="#606580" stroke-opacity="0.25"/>
<path d="M25.0001 89.1001C24.6501 89.1001 24.3001 89.1001 23.9501 89.1501C23.1501 89.2001 22.4001 89.3501 21.7501 89.5501C20.4501 89.9501 19.6501 90.5501 19.6501 91.2501V97.6501H30.3001V91.2501C30.3501 90.0501 27.9501 89.1001 25.0001 89.1001Z" stroke="#606580" stroke-width="1.2" stroke-miterlimit="10" stroke-linecap="round" stroke-linejoin="round"/>
<path d="M21.7501 93.6001C20.5001 93.8001 19.6501 94.1001 19.6501 94.4501" stroke="#606580" stroke-width="1.2" stroke-miterlimit="10" stroke-linecap="round" stroke-linejoin="round"/>
<path d="M30.3501 94.4499C30.3501 93.8499 27.9501 93.3999 25.0001 93.3999C24.6501 93.3999 24.2501 93.3999 23.9001 93.3999" stroke="#606580" stroke-width="1.2" stroke-miterlimit="10" stroke-linecap="round" stroke-linejoin="round"/>
<path d="M21.8499 97.55V88.8" stroke="#606580" stroke-width="1.2" stroke-miterlimit="10" stroke-linecap="round" stroke-linejoin="round"/>
<path d="M23.9001 88.3501V97.5501" stroke="#606580" stroke-width="1.2" stroke-miterlimit="10" stroke-linecap="round" stroke-linejoin="round"/>
<path d="M17.75 97.6499H32.25" stroke="#606580" stroke-width="1.2" stroke-miterlimit="10" stroke-linecap="round" stroke-linejoin="round"/>
<rect x="5.5" y="73.5" width="313" height="39" rx="1.5" stroke="#606580" stroke-opacity="0.25"/>
<mask id="path-42-inside-1" fill="white">
<path fill-rule="evenodd" clip-rule="evenodd" d="M68 44.9231V66.6154C68 67.72 68.8954 68.6154 70 68.6154H126C127.105 68.6154 128 67.72 128 66.6154V44.9231C128 47.1322 126.209 48.9231 124 48.9231H72C69.7909 48.9231 68 47.1322 68 44.9231Z"/>
</mask>
<path fill-rule="evenodd" clip-rule="evenodd" d="M68 44.9231V66.6154C68 67.72 68.8954 68.6154 70 68.6154H126C127.105 68.6154 128 67.72 128 66.6154V44.9231C128 47.1322 126.209 48.9231 124 48.9231H72C69.7909 48.9231 68 47.1322 68 44.9231Z" fill="#272A38"/>
<path d="M69 66.6154V44.9231H67V66.6154H69ZM70 67.6154C69.4477 67.6154 69 67.1677 69 66.6154H67C67 68.2723 68.3431 69.6154 70 69.6154V67.6154ZM126 67.6154H70V69.6154H126V67.6154ZM127 66.6154C127 67.1677 126.552 67.6154 126 67.6154V69.6154C127.657 69.6154 129 68.2723 129 66.6154H127ZM127 44.9231V66.6154H129V44.9231H127ZM127 44.9231C127 46.58 125.657 47.9231 124 47.9231V49.9231C126.761 49.9231 129 47.6845 129 44.9231H127ZM124 47.9231H72V49.9231H124V47.9231ZM72 47.9231C70.3431 47.9231 69 46.5799 69 44.9231H67C67 47.6845 69.2386 49.9231 72 49.9231V47.9231Z" fill="#303549" mask="url(#path-42-inside-1)"/>
<rect x="68.5" y="4.5" width="59" height="43.3077" rx="3.5" fill="#1C1F2B" stroke="#303549"/>
<path d="M69.6666 42.1538H126.333V45.0769C126.333 46.1815 125.438 47.0769 124.333 47.0769H71.6666C70.5621 47.0769 69.6666 46.1815 69.6666 45.0769V42.1538Z" fill="#0089FF" fill-opacity="0.2"/>
<path d="M70 20H126V42H70V20Z" fill="#0089FF"/>
<path d="M86.4547 32.6924H83.2643V32.0244H84.4508V27.6387H83.2643V27.041C83.7125 27.041 84.0421 26.978 84.2531 26.8521C84.4669 26.7231 84.587 26.4814 84.6134 26.127H85.2946V32.0244H86.4547V32.6924ZM91.8732 30.4424H91.0953V32.6924H90.2516V30.4424H87.36V29.5195L90.2867 26.1489H91.0953V29.7393H91.8732V30.4424ZM90.2516 29.7393V27.1816L88.0455 29.7393H90.2516ZM96.6456 29.4185C96.6456 30.5933 96.4742 31.4561 96.1315 32.0068C95.7916 32.5547 95.2657 32.8286 94.5538 32.8286C93.8331 32.8286 93.3043 32.5488 92.9674 31.9893C92.6305 31.4297 92.462 30.5757 92.462 29.4272C92.462 28.2466 92.632 27.3838 92.9718 26.8389C93.3146 26.291 93.8419 26.0171 94.5538 26.0171C95.2745 26.0171 95.8033 26.2998 96.1403 26.8652C96.4772 27.4307 96.6456 28.2817 96.6456 29.4185ZM95.5206 31.4136C95.6056 31.1968 95.6656 30.9229 95.7008 30.5918C95.736 30.2607 95.7535 29.8696 95.7535 29.4185C95.7535 28.9702 95.736 28.5806 95.7008 28.2495C95.6656 27.9185 95.6041 27.6431 95.5162 27.4233C95.4283 27.2007 95.3068 27.0322 95.1515 26.918C94.9991 26.8008 94.7999 26.7422 94.5538 26.7422C94.3107 26.7422 94.11 26.8008 93.9518 26.918C93.7965 27.0322 93.6735 27.2036 93.5826 27.4321C93.4948 27.6548 93.4347 27.936 93.4025 28.2759C93.3702 28.6157 93.3541 28.9995 93.3541 29.4272C93.3541 29.8843 93.3673 30.2666 93.3937 30.5742C93.423 30.8818 93.4845 31.1572 93.5782 31.4004C93.6632 31.626 93.7833 31.8003 93.9386 31.9233C94.0968 32.0435 94.3019 32.1035 94.5538 32.1035C94.797 32.1035 94.9962 32.0464 95.1515 31.9321C95.3097 31.8149 95.4327 31.6421 95.5206 31.4136ZM104.34 32.6924H100.302V31.7739C100.592 31.4985 100.866 31.2349 101.124 30.9829C101.381 30.731 101.633 30.4688 101.88 30.1963C102.378 29.6484 102.717 29.2104 102.899 28.8823C103.081 28.5513 103.172 28.21 103.172 27.8584C103.172 27.6768 103.142 27.5171 103.084 27.3794C103.028 27.2417 102.95 27.1274 102.851 27.0366C102.748 26.9487 102.63 26.8828 102.495 26.8389C102.36 26.7949 102.212 26.7729 102.051 26.7729C101.896 26.7729 101.737 26.7935 101.576 26.8345C101.418 26.8726 101.266 26.9209 101.119 26.9795C100.996 27.0293 100.878 27.0894 100.763 27.1597C100.649 27.23 100.557 27.29 100.486 27.3398H100.438V26.4082C100.62 26.3174 100.872 26.2295 101.194 26.1445C101.519 26.0566 101.827 26.0127 102.117 26.0127C102.726 26.0127 103.204 26.1753 103.549 26.5005C103.895 26.8228 104.068 27.2607 104.068 27.8145C104.068 28.0693 104.037 28.3052 103.976 28.522C103.917 28.7388 103.835 28.9395 103.73 29.124C103.621 29.3145 103.491 29.5034 103.339 29.6909C103.186 29.8784 103.025 30.063 102.855 30.2446C102.58 30.5435 102.272 30.854 101.932 31.1763C101.595 31.4985 101.326 31.7534 101.124 31.9409H104.34V32.6924ZM109.284 29.4185C109.284 30.5933 109.113 31.4561 108.77 32.0068C108.43 32.5547 107.904 32.8286 107.193 32.8286C106.472 32.8286 105.943 32.5488 105.606 31.9893C105.269 31.4297 105.101 30.5757 105.101 29.4272C105.101 28.2466 105.271 27.3838 105.61 26.8389C105.953 26.291 106.481 26.0171 107.193 26.0171C107.913 26.0171 108.442 26.2998 108.779 26.8652C109.116 27.4307 109.284 28.2817 109.284 29.4185ZM108.159 31.4136C108.244 31.1968 108.304 30.9229 108.339 30.5918C108.375 30.2607 108.392 29.8696 108.392 29.4185C108.392 28.9702 108.375 28.5806 108.339 28.2495C108.304 27.9185 108.243 27.6431 108.155 27.4233C108.067 27.2007 107.945 27.0322 107.79 26.918C107.638 26.8008 107.439 26.7422 107.193 26.7422C106.949 26.7422 106.749 26.8008 106.59 26.918C106.435 27.0322 106.312 27.2036 106.221 27.4321C106.133 27.6548 106.073 27.936 106.041 28.2759C106.009 28.6157 105.993 28.9995 105.993 29.4272C105.993 29.8843 106.006 30.2666 106.032 30.5742C106.062 30.8818 106.123 31.1572 106.217 31.4004C106.302 31.626 106.422 31.8003 106.577 31.9233C106.735 32.0435 106.941 32.1035 107.193 32.1035C107.436 32.1035 107.635 32.0464 107.79 31.9321C107.948 31.8149 108.071 31.6421 108.159 31.4136ZM114.197 29.4185C114.197 30.5933 114.026 31.4561 113.683 32.0068C113.343 32.5547 112.818 32.8286 112.106 32.8286C111.385 32.8286 110.856 32.5488 110.519 31.9893C110.182 31.4297 110.014 30.5757 110.014 29.4272C110.014 28.2466 110.184 27.3838 110.524 26.8389C110.866 26.291 111.394 26.0171 112.106 26.0171C112.826 26.0171 113.355 26.2998 113.692 26.8652C114.029 27.4307 114.197 28.2817 114.197 29.4185ZM113.072 31.4136C113.157 31.1968 113.217 30.9229 113.253 30.5918C113.288 30.2607 113.305 29.8696 113.305 29.4185C113.305 28.9702 113.288 28.5806 113.253 28.2495C113.217 27.9185 113.156 27.6431 113.068 27.4233C112.98 27.2007 112.859 27.0322 112.703 26.918C112.551 26.8008 112.352 26.7422 112.106 26.7422C111.862 26.7422 111.662 26.8008 111.504 26.918C111.348 27.0322 111.225 27.2036 111.134 27.4321C111.047 27.6548 110.986 27.936 110.954 28.2759C110.922 28.6157 110.906 28.9995 110.906 29.4272C110.906 29.8843 110.919 30.2666 110.945 30.5742C110.975 30.8818 111.036 31.1572 111.13 31.4004C111.215 31.626 111.335 31.8003 111.49 31.9233C111.649 32.0435 111.854 32.1035 112.106 32.1035C112.349 32.1035 112.548 32.0464 112.703 31.9321C112.861 31.8149 112.984 31.6421 113.072 31.4136Z" fill="white"/>
<path d="M86.0195 62.3164H85.2852V60.9844H81.5117V62.3164H80.7773V60.3125H81.0938C81.4323 59.7578 81.7044 59.0312 81.9102 58.1328C82.1185 57.2318 82.2227 56.2487 82.2227 55.1836H85.4688V60.3125H86.0195V62.3164ZM84.6953 60.3125V55.8555H82.9492C82.9128 56.7956 82.7956 57.6484 82.5977 58.4141C82.3997 59.1797 82.1471 59.8125 81.8398 60.3125H84.6953ZM90.2969 58.8203C90.2969 59.5547 90.1198 60.1224 89.7656 60.5234C89.4115 60.9219 88.9401 61.1211 88.3516 61.1211C87.7448 61.1211 87.2669 60.9154 86.918 60.5039C86.5716 60.0898 86.3984 59.5286 86.3984 58.8203C86.3984 58.0911 86.5768 57.5247 86.9336 57.1211C87.293 56.7174 87.7656 56.5156 88.3516 56.5156C88.9401 56.5156 89.4115 56.7174 89.7656 57.1211C90.1198 57.5221 90.2969 58.0885 90.2969 58.8203ZM89.5391 58.8203C89.5391 58.2552 89.4362 57.8359 89.2305 57.5625C89.0247 57.2865 88.7318 57.1484 88.3516 57.1484C87.9688 57.1484 87.6732 57.2865 87.4648 57.5625C87.2591 57.8359 87.1562 58.2552 87.1562 58.8203C87.1562 59.3672 87.2591 59.7826 87.4648 60.0664C87.6732 60.3477 87.9688 60.4883 88.3516 60.4883C88.7292 60.4883 89.0208 60.3503 89.2266 60.0742C89.4349 59.7956 89.5391 59.3776 89.5391 58.8203ZM92.7852 61.0977C92.4857 61.0977 92.2109 61.0521 91.9609 60.9609C91.7109 60.8672 91.4961 60.7266 91.3164 60.5391C91.1367 60.3516 90.9974 60.1159 90.8984 59.832C90.7995 59.5456 90.75 59.2096 90.75 58.8242C90.75 58.4414 90.8008 58.1107 90.9023 57.832C91.0065 57.5534 91.1445 57.319 91.3164 57.1289C91.4883 56.9388 91.7018 56.793 91.957 56.6914C92.2148 56.5872 92.4909 56.5352 92.7852 56.5352C93.0247 56.5352 93.2552 56.569 93.4766 56.6367C93.7005 56.7044 93.8997 56.7826 94.0742 56.8711V57.6953H94.0312C93.9792 57.651 93.9115 57.6003 93.8281 57.543C93.7474 57.4857 93.6484 57.4271 93.5312 57.3672C93.4297 57.3151 93.3099 57.2695 93.1719 57.2305C93.0339 57.1914 92.901 57.1719 92.7734 57.1719C92.3932 57.1719 92.0872 57.3164 91.8555 57.6055C91.6263 57.8919 91.5117 58.2982 91.5117 58.8242C91.5117 59.3398 91.6224 59.7422 91.8438 60.0312C92.0677 60.3177 92.3776 60.4609 92.7734 60.4609C93.013 60.4609 93.2409 60.4115 93.457 60.3125C93.6732 60.2135 93.8646 60.0859 94.0312 59.9297H94.0742V60.7539C94.0013 60.7878 93.9102 60.8294 93.8008 60.8789C93.6914 60.9258 93.5924 60.9609 93.5039 60.9844C93.3789 61.0208 93.2669 61.0482 93.168 61.0664C93.069 61.0872 92.9414 61.0977 92.7852 61.0977ZM97.9336 57.2812H96.4492V61H95.7148V57.2812H94.2305V56.6367H97.9336V57.2812ZM101.91 56.6367L99.5625 62.6094H98.7773L99.5586 60.7891L97.9727 56.6367H98.7656L99.957 59.8672L101.145 56.6367H101.91ZM105.91 61H105.176V57.2695H103.199V61H102.465V56.6367H105.91V61ZM110.418 61H109.684V59.0352H107.707V61H106.973V56.6367H107.707V58.4023H109.684V56.6367H110.418V61ZM115.07 58.8203C115.07 59.5547 114.893 60.1224 114.539 60.5234C114.185 60.9219 113.714 61.1211 113.125 61.1211C112.518 61.1211 112.04 60.9154 111.691 60.5039C111.345 60.0898 111.172 59.5286 111.172 58.8203C111.172 58.0911 111.35 57.5247 111.707 57.1211C112.066 56.7174 112.539 56.5156 113.125 56.5156C113.714 56.5156 114.185 56.7174 114.539 57.1211C114.893 57.5221 115.07 58.0885 115.07 58.8203ZM114.312 58.8203C114.312 58.2552 114.21 57.8359 114.004 57.5625C113.798 57.2865 113.505 57.1484 113.125 57.1484C112.742 57.1484 112.447 57.2865 112.238 57.5625C112.033 57.8359 111.93 58.2552 111.93 58.8203C111.93 59.3672 112.033 59.7826 112.238 60.0664C112.447 60.3477 112.742 60.4883 113.125 60.4883C113.503 60.4883 113.794 60.3503 114 60.0742C114.208 59.7956 114.312 59.3776 114.312 58.8203Z" fill="#00A73D"/>
<line x1="126.333" y1="11.2693" x2="69.6667" y2="11.2693" stroke="#4B5169" stroke-dasharray="2 2"/>
<mask id="path-50-inside-2" fill="white">
<path fill-rule="evenodd" clip-rule="evenodd" d="M131 44.9231V66.6154C131 67.72 131.895 68.6154 133 68.6154H189C190.105 68.6154 191 67.72 191 66.6154V44.9231C191 47.1322 189.209 48.9231 187 48.9231H135C132.791 48.9231 131 47.1322 131 44.9231Z"/>
</mask>
<path fill-rule="evenodd" clip-rule="evenodd" d="M131 44.9231V66.6154C131 67.72 131.895 68.6154 133 68.6154H189C190.105 68.6154 191 67.72 191 66.6154V44.9231C191 47.1322 189.209 48.9231 187 48.9231H135C132.791 48.9231 131 47.1322 131 44.9231Z" fill="#272A38"/>
<path d="M132 66.6154V44.9231H130V66.6154H132ZM133 67.6154C132.448 67.6154 132 67.1677 132 66.6154H130C130 68.2723 131.343 69.6154 133 69.6154V67.6154ZM189 67.6154H133V69.6154H189V67.6154ZM190 66.6154C190 67.1677 189.552 67.6154 189 67.6154V69.6154C190.657 69.6154 192 68.2723 192 66.6154H190ZM190 44.9231V66.6154H192V44.9231H190ZM190 44.9231C190 46.58 188.657 47.9231 187 47.9231V49.9231C189.761 49.9231 192 47.6845 192 44.9231H190ZM187 47.9231H135V49.9231H187V47.9231ZM135 47.9231C133.343 47.9231 132 46.5799 132 44.9231H130C130 47.6845 132.239 49.9231 135 49.9231V47.9231Z" fill="#303549" mask="url(#path-50-inside-2)"/>
<rect x="131.5" y="4.5" width="59" height="43.3077" rx="3.5" fill="#1C1F2B" stroke="#303549"/>
<path d="M132.667 42.1538H189.333V45.0769C189.333 46.1815 188.438 47.0769 187.333 47.0769H134.667C133.562 47.0769 132.667 46.1815 132.667 45.0769V42.1538Z" fill="#0089FF" fill-opacity="0.2"/>
<path d="M133 24H189V42H133V24Z" fill="#0089FF"/>
<path d="M149.455 36H146.264V35.332H147.451V30.9463H146.264V30.3486C146.713 30.3486 147.042 30.2856 147.253 30.1597C147.467 30.0308 147.587 29.7891 147.613 29.4346H148.295V35.332H149.455V36ZM154.702 36H150.663V35.0815C150.953 34.8062 151.227 34.5425 151.485 34.2905C151.743 34.0386 151.995 33.7764 152.241 33.5039C152.739 32.9561 153.079 32.5181 153.26 32.1899C153.442 31.8589 153.533 31.5176 153.533 31.166C153.533 30.9844 153.504 30.8247 153.445 30.687C153.389 30.5493 153.312 30.4351 153.212 30.3442C153.109 30.2563 152.991 30.1904 152.856 30.1465C152.721 30.1025 152.573 30.0806 152.412 30.0806C152.257 30.0806 152.099 30.1011 151.938 30.1421C151.779 30.1802 151.627 30.2285 151.481 30.2871C151.358 30.3369 151.239 30.397 151.125 30.4673C151.01 30.5376 150.918 30.5977 150.848 30.6475H150.799V29.7158C150.981 29.625 151.233 29.5371 151.555 29.4521C151.88 29.3643 152.188 29.3203 152.478 29.3203C153.088 29.3203 153.565 29.4829 153.911 29.8081C154.256 30.1304 154.429 30.5684 154.429 31.1221C154.429 31.377 154.399 31.6128 154.337 31.8296C154.278 32.0464 154.196 32.2471 154.091 32.4316C153.983 32.6221 153.852 32.811 153.7 32.9985C153.547 33.186 153.386 33.3706 153.216 33.5522C152.941 33.8511 152.633 34.1616 152.294 34.4839C151.957 34.8062 151.687 35.061 151.485 35.2485H154.702V36ZM157.343 30.0806C157.185 30.0806 157.026 30.0996 156.868 30.1377C156.71 30.1758 156.555 30.2256 156.402 30.2871C156.262 30.3457 156.139 30.4072 156.033 30.4717C155.931 30.5361 155.839 30.5962 155.756 30.6519H155.704V29.7246C155.894 29.6221 156.152 29.5298 156.477 29.4478C156.805 29.3628 157.117 29.3203 157.413 29.3203C157.709 29.3203 157.967 29.3511 158.187 29.4126C158.409 29.4712 158.61 29.5635 158.789 29.6895C158.982 29.8301 159.127 30 159.224 30.1992C159.323 30.3984 159.373 30.6313 159.373 30.8979C159.373 31.2583 159.255 31.5747 159.017 31.8472C158.78 32.1196 158.496 32.2925 158.165 32.3657V32.4272C158.302 32.4536 158.449 32.499 158.604 32.5635C158.762 32.6279 158.909 32.7231 159.044 32.8491C159.178 32.9751 159.288 33.1377 159.373 33.3369C159.458 33.5332 159.501 33.7734 159.501 34.0576C159.501 34.3535 159.449 34.626 159.347 34.875C159.247 35.1211 159.105 35.3394 158.921 35.5298C158.73 35.729 158.5 35.8799 158.231 35.9824C157.961 36.085 157.655 36.1362 157.312 36.1362C156.984 36.1362 156.659 36.0967 156.337 36.0176C156.014 35.9385 155.743 35.8433 155.524 35.7319V34.8047H155.585C155.77 34.9395 156.017 35.0684 156.328 35.1914C156.638 35.3145 156.949 35.376 157.259 35.376C157.438 35.376 157.617 35.3481 157.796 35.2925C157.977 35.2339 158.128 35.1401 158.248 35.0112C158.365 34.8823 158.455 34.7402 158.516 34.585C158.578 34.4297 158.609 34.2334 158.609 33.9961C158.609 33.7588 158.573 33.564 158.503 33.4116C158.436 33.2593 158.34 33.1392 158.217 33.0513C158.094 32.9634 157.948 32.9033 157.778 32.8711C157.611 32.8359 157.429 32.8184 157.233 32.8184H156.859V32.0889H157.15C157.545 32.0889 157.866 31.9951 158.112 31.8076C158.361 31.6201 158.485 31.3477 158.485 30.9902C158.485 30.8262 158.453 30.6855 158.389 30.5684C158.324 30.4482 158.242 30.353 158.143 30.2827C158.031 30.2065 157.908 30.1538 157.774 30.1245C157.639 30.0952 157.495 30.0806 157.343 30.0806ZM167.34 36H163.302V35.0815C163.592 34.8062 163.866 34.5425 164.124 34.2905C164.381 34.0386 164.633 33.7764 164.88 33.5039C165.378 32.9561 165.717 32.5181 165.899 32.1899C166.081 31.8589 166.172 31.5176 166.172 31.166C166.172 30.9844 166.142 30.8247 166.084 30.687C166.028 30.5493 165.95 30.4351 165.851 30.3442C165.748 30.2563 165.63 30.1904 165.495 30.1465C165.36 30.1025 165.212 30.0806 165.051 30.0806C164.896 30.0806 164.737 30.1011 164.576 30.1421C164.418 30.1802 164.266 30.2285 164.119 30.2871C163.996 30.3369 163.878 30.397 163.763 30.4673C163.649 30.5376 163.557 30.5977 163.486 30.6475H163.438V29.7158C163.62 29.625 163.872 29.5371 164.194 29.4521C164.519 29.3643 164.827 29.3203 165.117 29.3203C165.726 29.3203 166.204 29.4829 166.549 29.8081C166.895 30.1304 167.068 30.5684 167.068 31.1221C167.068 31.377 167.037 31.6128 166.976 31.8296C166.917 32.0464 166.835 32.2471 166.73 32.4316C166.621 32.6221 166.491 32.811 166.339 32.9985C166.186 33.186 166.025 33.3706 165.855 33.5522C165.58 33.8511 165.272 34.1616 164.932 34.4839C164.595 34.8062 164.326 35.061 164.124 35.2485H167.34V36ZM172.284 32.7261C172.284 33.9009 172.113 34.7637 171.77 35.3145C171.43 35.8623 170.904 36.1362 170.193 36.1362C169.472 36.1362 168.943 35.8564 168.606 35.2969C168.269 34.7373 168.101 33.8833 168.101 32.7349C168.101 31.5542 168.271 30.6914 168.61 30.1465C168.953 29.5986 169.481 29.3247 170.193 29.3247C170.913 29.3247 171.442 29.6074 171.779 30.1729C172.116 30.7383 172.284 31.5894 172.284 32.7261ZM171.159 34.7212C171.244 34.5044 171.304 34.2305 171.339 33.8994C171.375 33.5684 171.392 33.1772 171.392 32.7261C171.392 32.2778 171.375 31.8882 171.339 31.5571C171.304 31.2261 171.243 30.9507 171.155 30.731C171.067 30.5083 170.945 30.3398 170.79 30.2256C170.638 30.1084 170.439 30.0498 170.193 30.0498C169.949 30.0498 169.749 30.1084 169.59 30.2256C169.435 30.3398 169.312 30.5112 169.221 30.7397C169.133 30.9624 169.073 31.2437 169.041 31.5835C169.009 31.9233 168.993 32.3071 168.993 32.7349C168.993 33.1919 169.006 33.5742 169.032 33.8818C169.062 34.1895 169.123 34.4648 169.217 34.708C169.302 34.9336 169.422 35.1079 169.577 35.231C169.735 35.3511 169.941 35.4111 170.193 35.4111C170.436 35.4111 170.635 35.354 170.79 35.2397C170.948 35.1226 171.071 34.9497 171.159 34.7212ZM177.197 32.7261C177.197 33.9009 177.026 34.7637 176.683 35.3145C176.343 35.8623 175.818 36.1362 175.106 36.1362C174.385 36.1362 173.856 35.8564 173.519 35.2969C173.182 34.7373 173.014 33.8833 173.014 32.7349C173.014 31.5542 173.184 30.6914 173.524 30.1465C173.866 29.5986 174.394 29.3247 175.106 29.3247C175.826 29.3247 176.355 29.6074 176.692 30.1729C177.029 30.7383 177.197 31.5894 177.197 32.7261ZM176.072 34.7212C176.157 34.5044 176.217 34.2305 176.253 33.8994C176.288 33.5684 176.305 33.1772 176.305 32.7261C176.305 32.2778 176.288 31.8882 176.253 31.5571C176.217 31.2261 176.156 30.9507 176.068 30.731C175.98 30.5083 175.859 30.3398 175.703 30.2256C175.551 30.1084 175.352 30.0498 175.106 30.0498C174.862 30.0498 174.662 30.1084 174.504 30.2256C174.348 30.3398 174.225 30.5112 174.134 30.7397C174.047 30.9624 173.986 31.2437 173.954 31.5835C173.922 31.9233 173.906 32.3071 173.906 32.7349C173.906 33.1919 173.919 33.5742 173.945 33.8818C173.975 34.1895 174.036 34.4648 174.13 34.708C174.215 34.9336 174.335 35.1079 174.49 35.231C174.649 35.3511 174.854 35.4111 175.106 35.4111C175.349 35.4111 175.548 35.354 175.703 35.2397C175.861 35.1226 175.984 34.9497 176.072 34.7212Z" fill="white"/>
<path d="M149.02 62.3164H148.285V60.9844H144.512V62.3164H143.777V60.3125H144.094C144.432 59.7578 144.704 59.0312 144.91 58.1328C145.118 57.2318 145.223 56.2487 145.223 55.1836H148.469V60.3125H149.02V62.3164ZM147.695 60.3125V55.8555H145.949C145.913 56.7956 145.796 57.6484 145.598 58.4141C145.4 59.1797 145.147 59.8125 144.84 60.3125H147.695ZM153.297 58.8203C153.297 59.5547 153.12 60.1224 152.766 60.5234C152.411 60.9219 151.94 61.1211 151.352 61.1211C150.745 61.1211 150.267 60.9154 149.918 60.5039C149.572 60.0898 149.398 59.5286 149.398 58.8203C149.398 58.0911 149.577 57.5247 149.934 57.1211C150.293 56.7174 150.766 56.5156 151.352 56.5156C151.94 56.5156 152.411 56.7174 152.766 57.1211C153.12 57.5221 153.297 58.0885 153.297 58.8203ZM152.539 58.8203C152.539 58.2552 152.436 57.8359 152.23 57.5625C152.025 57.2865 151.732 57.1484 151.352 57.1484C150.969 57.1484 150.673 57.2865 150.465 57.5625C150.259 57.8359 150.156 58.2552 150.156 58.8203C150.156 59.3672 150.259 59.7826 150.465 60.0664C150.673 60.3477 150.969 60.4883 151.352 60.4883C151.729 60.4883 152.021 60.3503 152.227 60.0742C152.435 59.7956 152.539 59.3776 152.539 58.8203ZM155.785 61.0977C155.486 61.0977 155.211 61.0521 154.961 60.9609C154.711 60.8672 154.496 60.7266 154.316 60.5391C154.137 60.3516 153.997 60.1159 153.898 59.832C153.799 59.5456 153.75 59.2096 153.75 58.8242C153.75 58.4414 153.801 58.1107 153.902 57.832C154.007 57.5534 154.145 57.319 154.316 57.1289C154.488 56.9388 154.702 56.793 154.957 56.6914C155.215 56.5872 155.491 56.5352 155.785 56.5352C156.025 56.5352 156.255 56.569 156.477 56.6367C156.701 56.7044 156.9 56.7826 157.074 56.8711V57.6953H157.031C156.979 57.651 156.911 57.6003 156.828 57.543C156.747 57.4857 156.648 57.4271 156.531 57.3672C156.43 57.3151 156.31 57.2695 156.172 57.2305C156.034 57.1914 155.901 57.1719 155.773 57.1719C155.393 57.1719 155.087 57.3164 154.855 57.6055C154.626 57.8919 154.512 58.2982 154.512 58.8242C154.512 59.3398 154.622 59.7422 154.844 60.0312C155.068 60.3177 155.378 60.4609 155.773 60.4609C156.013 60.4609 156.241 60.4115 156.457 60.3125C156.673 60.2135 156.865 60.0859 157.031 59.9297H157.074V60.7539C157.001 60.7878 156.91 60.8294 156.801 60.8789C156.691 60.9258 156.592 60.9609 156.504 60.9844C156.379 61.0208 156.267 61.0482 156.168 61.0664C156.069 61.0872 155.941 61.0977 155.785 61.0977ZM160.934 57.2812H159.449V61H158.715V57.2812H157.23V56.6367H160.934V57.2812ZM164.91 56.6367L162.562 62.6094H161.777L162.559 60.7891L160.973 56.6367H161.766L162.957 59.8672L164.145 56.6367H164.91ZM168.91 61H168.176V57.2695H166.199V61H165.465V56.6367H168.91V61ZM173.418 61H172.684V59.0352H170.707V61H169.973V56.6367H170.707V58.4023H172.684V56.6367H173.418V61ZM178.07 58.8203C178.07 59.5547 177.893 60.1224 177.539 60.5234C177.185 60.9219 176.714 61.1211 176.125 61.1211C175.518 61.1211 175.04 60.9154 174.691 60.5039C174.345 60.0898 174.172 59.5286 174.172 58.8203C174.172 58.0911 174.35 57.5247 174.707 57.1211C175.066 56.7174 175.539 56.5156 176.125 56.5156C176.714 56.5156 177.185 56.7174 177.539 57.1211C177.893 57.5221 178.07 58.0885 178.07 58.8203ZM177.312 58.8203C177.312 58.2552 177.21 57.8359 177.004 57.5625C176.798 57.2865 176.505 57.1484 176.125 57.1484C175.742 57.1484 175.447 57.2865 175.238 57.5625C175.033 57.8359 174.93 58.2552 174.93 58.8203C174.93 59.3672 175.033 59.7826 175.238 60.0664C175.447 60.3477 175.742 60.4883 176.125 60.4883C176.503 60.4883 176.794 60.3503 177 60.0742C177.208 59.7956 177.312 59.3776 177.312 58.8203Z" fill="#00A73D"/>
<line x1="189.333" y1="11.2693" x2="132.667" y2="11.2693" stroke="#4B5169" stroke-dasharray="2 2"/>
<mask id="path-58-inside-3" fill="white">
<path fill-rule="evenodd" clip-rule="evenodd" d="M195 44.9231V66.6154C195 67.72 195.895 68.6154 197 68.6154H253C254.105 68.6154 255 67.72 255 66.6154V44.9231C255 47.1322 253.209 48.9231 251 48.9231H199C196.791 48.9231 195 47.1322 195 44.9231Z"/>
</mask>
<path fill-rule="evenodd" clip-rule="evenodd" d="M195 44.9231V66.6154C195 67.72 195.895 68.6154 197 68.6154H253C254.105 68.6154 255 67.72 255 66.6154V44.9231C255 47.1322 253.209 48.9231 251 48.9231H199C196.791 48.9231 195 47.1322 195 44.9231Z" fill="#272A38"/>
<path d="M196 66.6154V44.9231H194V66.6154H196ZM197 67.6154C196.448 67.6154 196 67.1677 196 66.6154H194C194 68.2723 195.343 69.6154 197 69.6154V67.6154ZM253 67.6154H197V69.6154H253V67.6154ZM254 66.6154C254 67.1677 253.552 67.6154 253 67.6154V69.6154C254.657 69.6154 256 68.2723 256 66.6154H254ZM254 44.9231V66.6154H256V44.9231H254ZM254 44.9231C254 46.58 252.657 47.9231 251 47.9231V49.9231C253.761 49.9231 256 47.6845 256 44.9231H254ZM251 47.9231H199V49.9231H251V47.9231ZM199 47.9231C197.343 47.9231 196 46.5799 196 44.9231H194C194 47.6845 196.239 49.9231 199 49.9231V47.9231Z" fill="#303549" mask="url(#path-58-inside-3)"/>
<rect x="195.5" y="4.5" width="59" height="43.3077" rx="3.5" fill="#1C1F2B" stroke="#303549"/>
<path d="M196.667 42.1538H253.333V45.0769C253.333 46.1815 252.438 47.0769 251.333 47.0769H198.667C197.562 47.0769 196.667 46.1815 196.667 45.0769V42.1538Z" fill="#0089FF" fill-opacity="0.2"/>
<path d="M196.667 16.9231H253.333V41.5385H196.667V16.9231Z" fill="#0089FF"/>
<path d="M213.455 32.6924H210.264V32.0244H211.451V27.6387H210.264V27.041C210.713 27.041 211.042 26.978 211.253 26.8521C211.467 26.7231 211.587 26.4814 211.613 26.127H212.295V32.0244H213.455V32.6924ZM218.627 30.6094C218.627 30.9258 218.576 31.2188 218.473 31.4883C218.374 31.7578 218.233 31.9907 218.051 32.187C217.867 32.3862 217.637 32.543 217.361 32.6572C217.089 32.7715 216.783 32.8286 216.443 32.8286C216.13 32.8286 215.82 32.7935 215.516 32.7231C215.214 32.6558 214.952 32.5664 214.729 32.4551V31.5278H214.791C214.858 31.5776 214.955 31.6348 215.081 31.6992C215.207 31.7607 215.346 31.8193 215.498 31.875C215.671 31.9365 215.829 31.9849 215.973 32.02C216.116 32.0522 216.277 32.0684 216.456 32.0684C216.632 32.0684 216.803 32.0376 216.97 31.9761C217.137 31.9116 217.281 31.8091 217.401 31.6685C217.509 31.5396 217.591 31.3887 217.647 31.2158C217.706 31.043 217.735 30.8394 217.735 30.605C217.735 30.3735 217.703 30.1831 217.638 30.0337C217.577 29.8843 217.486 29.7612 217.366 29.6646C217.24 29.5532 217.085 29.4756 216.9 29.4316C216.718 29.3848 216.515 29.3613 216.289 29.3613C216.052 29.3613 215.813 29.3804 215.573 29.4185C215.333 29.4536 215.141 29.4873 214.997 29.5195V26.1489H218.588V26.918H215.845V28.6582C215.951 28.6465 216.055 28.6377 216.157 28.6318C216.26 28.626 216.354 28.623 216.439 28.623C216.773 28.623 217.055 28.6509 217.287 28.7065C217.518 28.7622 217.741 28.8706 217.955 29.0317C218.172 29.1958 218.337 29.4009 218.451 29.647C218.568 29.8931 218.627 30.2139 218.627 30.6094ZM223.646 29.4185C223.646 30.5933 223.474 31.4561 223.131 32.0068C222.792 32.5547 222.266 32.8286 221.554 32.8286C220.833 32.8286 220.304 32.5488 219.967 31.9893C219.63 31.4297 219.462 30.5757 219.462 29.4272C219.462 28.2466 219.632 27.3838 219.972 26.8389C220.315 26.291 220.842 26.0171 221.554 26.0171C222.275 26.0171 222.803 26.2998 223.14 26.8652C223.477 27.4307 223.646 28.2817 223.646 29.4185ZM222.521 31.4136C222.606 31.1968 222.666 30.9229 222.701 30.5918C222.736 30.2607 222.754 29.8696 222.754 29.4185C222.754 28.9702 222.736 28.5806 222.701 28.2495C222.666 27.9185 222.604 27.6431 222.516 27.4233C222.428 27.2007 222.307 27.0322 222.151 26.918C221.999 26.8008 221.8 26.7422 221.554 26.7422C221.311 26.7422 221.11 26.8008 220.952 26.918C220.797 27.0322 220.673 27.2036 220.583 27.4321C220.495 27.6548 220.435 27.936 220.402 28.2759C220.37 28.6157 220.354 28.9995 220.354 29.4272C220.354 29.8843 220.367 30.2666 220.394 30.5742C220.423 30.8818 220.484 31.1572 220.578 31.4004C220.663 31.626 220.783 31.8003 220.939 31.9233C221.097 32.0435 221.302 32.1035 221.554 32.1035C221.797 32.1035 221.996 32.0464 222.151 31.9321C222.31 31.8149 222.433 31.6421 222.521 31.4136ZM231.34 32.6924H227.302V31.7739C227.592 31.4985 227.866 31.2349 228.124 30.9829C228.381 30.731 228.633 30.4688 228.88 30.1963C229.378 29.6484 229.717 29.2104 229.899 28.8823C230.081 28.5513 230.172 28.21 230.172 27.8584C230.172 27.6768 230.142 27.5171 230.084 27.3794C230.028 27.2417 229.95 27.1274 229.851 27.0366C229.748 26.9487 229.63 26.8828 229.495 26.8389C229.36 26.7949 229.212 26.7729 229.051 26.7729C228.896 26.7729 228.737 26.7935 228.576 26.8345C228.418 26.8726 228.266 26.9209 228.119 26.9795C227.996 27.0293 227.878 27.0894 227.763 27.1597C227.649 27.23 227.557 27.29 227.486 27.3398H227.438V26.4082C227.62 26.3174 227.872 26.2295 228.194 26.1445C228.519 26.0566 228.827 26.0127 229.117 26.0127C229.726 26.0127 230.204 26.1753 230.549 26.5005C230.895 26.8228 231.068 27.2607 231.068 27.8145C231.068 28.0693 231.037 28.3052 230.976 28.522C230.917 28.7388 230.835 28.9395 230.73 29.124C230.621 29.3145 230.491 29.5034 230.339 29.6909C230.186 29.8784 230.025 30.063 229.855 30.2446C229.58 30.5435 229.272 30.854 228.932 31.1763C228.595 31.4985 228.326 31.7534 228.124 31.9409H231.34V32.6924ZM236.284 29.4185C236.284 30.5933 236.113 31.4561 235.77 32.0068C235.43 32.5547 234.904 32.8286 234.193 32.8286C233.472 32.8286 232.943 32.5488 232.606 31.9893C232.269 31.4297 232.101 30.5757 232.101 29.4272C232.101 28.2466 232.271 27.3838 232.61 26.8389C232.953 26.291 233.481 26.0171 234.193 26.0171C234.913 26.0171 235.442 26.2998 235.779 26.8652C236.116 27.4307 236.284 28.2817 236.284 29.4185ZM235.159 31.4136C235.244 31.1968 235.304 30.9229 235.339 30.5918C235.375 30.2607 235.392 29.8696 235.392 29.4185C235.392 28.9702 235.375 28.5806 235.339 28.2495C235.304 27.9185 235.243 27.6431 235.155 27.4233C235.067 27.2007 234.945 27.0322 234.79 26.918C234.638 26.8008 234.439 26.7422 234.193 26.7422C233.949 26.7422 233.749 26.8008 233.59 26.918C233.435 27.0322 233.312 27.2036 233.221 27.4321C233.133 27.6548 233.073 27.936 233.041 28.2759C233.009 28.6157 232.993 28.9995 232.993 29.4272C232.993 29.8843 233.006 30.2666 233.032 30.5742C233.062 30.8818 233.123 31.1572 233.217 31.4004C233.302 31.626 233.422 31.8003 233.577 31.9233C233.735 32.0435 233.941 32.1035 234.193 32.1035C234.436 32.1035 234.635 32.0464 234.79 31.9321C234.948 31.8149 235.071 31.6421 235.159 31.4136ZM241.197 29.4185C241.197 30.5933 241.026 31.4561 240.683 32.0068C240.343 32.5547 239.818 32.8286 239.106 32.8286C238.385 32.8286 237.856 32.5488 237.519 31.9893C237.182 31.4297 237.014 30.5757 237.014 29.4272C237.014 28.2466 237.184 27.3838 237.524 26.8389C237.866 26.291 238.394 26.0171 239.106 26.0171C239.826 26.0171 240.355 26.2998 240.692 26.8652C241.029 27.4307 241.197 28.2817 241.197 29.4185ZM240.072 31.4136C240.157 31.1968 240.217 30.9229 240.253 30.5918C240.288 30.2607 240.305 29.8696 240.305 29.4185C240.305 28.9702 240.288 28.5806 240.253 28.2495C240.217 27.9185 240.156 27.6431 240.068 27.4233C239.98 27.2007 239.859 27.0322 239.703 26.918C239.551 26.8008 239.352 26.7422 239.106 26.7422C238.862 26.7422 238.662 26.8008 238.504 26.918C238.348 27.0322 238.225 27.2036 238.134 27.4321C238.047 27.6548 237.986 27.936 237.954 28.2759C237.922 28.6157 237.906 28.9995 237.906 29.4272C237.906 29.8843 237.919 30.2666 237.945 30.5742C237.975 30.8818 238.036 31.1572 238.13 31.4004C238.215 31.626 238.335 31.8003 238.49 31.9233C238.649 32.0435 238.854 32.1035 239.106 32.1035C239.349 32.1035 239.548 32.0464 239.703 31.9321C239.861 31.8149 239.984 31.6421 240.072 31.4136Z" fill="white"/>
<path d="M213.02 62.3164H212.285V60.9844H208.512V62.3164H207.777V60.3125H208.094C208.432 59.7578 208.704 59.0312 208.91 58.1328C209.118 57.2318 209.223 56.2487 209.223 55.1836H212.469V60.3125H213.02V62.3164ZM211.695 60.3125V55.8555H209.949C209.913 56.7956 209.796 57.6484 209.598 58.4141C209.4 59.1797 209.147 59.8125 208.84 60.3125H211.695ZM217.297 58.8203C217.297 59.5547 217.12 60.1224 216.766 60.5234C216.411 60.9219 215.94 61.1211 215.352 61.1211C214.745 61.1211 214.267 60.9154 213.918 60.5039C213.572 60.0898 213.398 59.5286 213.398 58.8203C213.398 58.0911 213.577 57.5247 213.934 57.1211C214.293 56.7174 214.766 56.5156 215.352 56.5156C215.94 56.5156 216.411 56.7174 216.766 57.1211C217.12 57.5221 217.297 58.0885 217.297 58.8203ZM216.539 58.8203C216.539 58.2552 216.436 57.8359 216.23 57.5625C216.025 57.2865 215.732 57.1484 215.352 57.1484C214.969 57.1484 214.673 57.2865 214.465 57.5625C214.259 57.8359 214.156 58.2552 214.156 58.8203C214.156 59.3672 214.259 59.7826 214.465 60.0664C214.673 60.3477 214.969 60.4883 215.352 60.4883C215.729 60.4883 216.021 60.3503 216.227 60.0742C216.435 59.7956 216.539 59.3776 216.539 58.8203ZM219.785 61.0977C219.486 61.0977 219.211 61.0521 218.961 60.9609C218.711 60.8672 218.496 60.7266 218.316 60.5391C218.137 60.3516 217.997 60.1159 217.898 59.832C217.799 59.5456 217.75 59.2096 217.75 58.8242C217.75 58.4414 217.801 58.1107 217.902 57.832C218.007 57.5534 218.145 57.319 218.316 57.1289C218.488 56.9388 218.702 56.793 218.957 56.6914C219.215 56.5872 219.491 56.5352 219.785 56.5352C220.025 56.5352 220.255 56.569 220.477 56.6367C220.701 56.7044 220.9 56.7826 221.074 56.8711V57.6953H221.031C220.979 57.651 220.911 57.6003 220.828 57.543C220.747 57.4857 220.648 57.4271 220.531 57.3672C220.43 57.3151 220.31 57.2695 220.172 57.2305C220.034 57.1914 219.901 57.1719 219.773 57.1719C219.393 57.1719 219.087 57.3164 218.855 57.6055C218.626 57.8919 218.512 58.2982 218.512 58.8242C218.512 59.3398 218.622 59.7422 218.844 60.0312C219.068 60.3177 219.378 60.4609 219.773 60.4609C220.013 60.4609 220.241 60.4115 220.457 60.3125C220.673 60.2135 220.865 60.0859 221.031 59.9297H221.074V60.7539C221.001 60.7878 220.91 60.8294 220.801 60.8789C220.691 60.9258 220.592 60.9609 220.504 60.9844C220.379 61.0208 220.267 61.0482 220.168 61.0664C220.069 61.0872 219.941 61.0977 219.785 61.0977ZM224.934 57.2812H223.449V61H222.715V57.2812H221.23V56.6367H224.934V57.2812ZM228.91 56.6367L226.562 62.6094H225.777L226.559 60.7891L224.973 56.6367H225.766L226.957 59.8672L228.145 56.6367H228.91ZM232.91 61H232.176V57.2695H230.199V61H229.465V56.6367H232.91V61ZM237.418 61H236.684V59.0352H234.707V61H233.973V56.6367H234.707V58.4023H236.684V56.6367H237.418V61ZM242.07 58.8203C242.07 59.5547 241.893 60.1224 241.539 60.5234C241.185 60.9219 240.714 61.1211 240.125 61.1211C239.518 61.1211 239.04 60.9154 238.691 60.5039C238.345 60.0898 238.172 59.5286 238.172 58.8203C238.172 58.0911 238.35 57.5247 238.707 57.1211C239.066 56.7174 239.539 56.5156 240.125 56.5156C240.714 56.5156 241.185 56.7174 241.539 57.1211C241.893 57.5221 242.07 58.0885 242.07 58.8203ZM241.312 58.8203C241.312 58.2552 241.21 57.8359 241.004 57.5625C240.798 57.2865 240.505 57.1484 240.125 57.1484C239.742 57.1484 239.447 57.2865 239.238 57.5625C239.033 57.8359 238.93 58.2552 238.93 58.8203C238.93 59.3672 239.033 59.7826 239.238 60.0664C239.447 60.3477 239.742 60.4883 240.125 60.4883C240.503 60.4883 240.794 60.3503 241 60.0742C241.208 59.7956 241.312 59.3776 241.312 58.8203Z" fill="#00A73D"/>
<line x1="253.333" y1="11.2693" x2="196.667" y2="11.2693" stroke="#4B5169" stroke-dasharray="2 2"/>
<mask id="path-66-inside-4" fill="white">
<path fill-rule="evenodd" clip-rule="evenodd" d="M259 44.9231V66.6154C259 67.72 259.895 68.6154 261 68.6154H317C318.105 68.6154 319 67.72 319 66.6154V44.9231C319 47.1322 317.209 48.9231 315 48.9231H263C260.791 48.9231 259 47.1322 259 44.9231Z"/>
</mask>
<path fill-rule="evenodd" clip-rule="evenodd" d="M259 44.9231V66.6154C259 67.72 259.895 68.6154 261 68.6154H317C318.105 68.6154 319 67.72 319 66.6154V44.9231C319 47.1322 317.209 48.9231 315 48.9231H263C260.791 48.9231 259 47.1322 259 44.9231Z" fill="#272A38"/>
<path d="M260 66.6154V44.9231H258V66.6154H260ZM261 67.6154C260.448 67.6154 260 67.1677 260 66.6154H258C258 68.2723 259.343 69.6154 261 69.6154V67.6154ZM317 67.6154H261V69.6154H317V67.6154ZM318 66.6154C318 67.1677 317.552 67.6154 317 67.6154V69.6154C318.657 69.6154 320 68.2723 320 66.6154H318ZM318 44.9231V66.6154H320V44.9231H318ZM318 44.9231C318 46.58 316.657 47.9231 315 47.9231V49.9231C317.761 49.9231 320 47.6845 320 44.9231H318ZM315 47.9231H263V49.9231H315V47.9231ZM263 47.9231C261.343 47.9231 260 46.5799 260 44.9231H258C258 47.6845 260.239 49.9231 263 49.9231V47.9231Z" fill="#303549" mask="url(#path-66-inside-4)"/>
<rect x="259.5" y="4.5" width="59" height="43.3077" rx="3.5" fill="#1C1F2B" stroke="#303549"/>
<path d="M260.667 42.1538H317.333V45.0769C317.333 46.1815 316.438 47.0769 315.333 47.0769H262.667C261.562 47.0769 260.667 46.1815 260.667 45.0769V42.1538Z" fill="#0089FF" fill-opacity="0.2"/>
<path d="M260.667 16.9231H317.333V41.5385H260.667V16.9231Z" fill="#0089FF"/>
<path d="M277.455 32.6924H274.264V32.0244H275.451V27.6387H274.264V27.041C274.713 27.041 275.042 26.978 275.253 26.8521C275.467 26.7231 275.587 26.4814 275.613 26.127H276.295V32.0244H277.455V32.6924ZM282.627 30.6094C282.627 30.9258 282.576 31.2188 282.473 31.4883C282.374 31.7578 282.233 31.9907 282.051 32.187C281.867 32.3862 281.637 32.543 281.361 32.6572C281.089 32.7715 280.783 32.8286 280.443 32.8286C280.13 32.8286 279.82 32.7935 279.516 32.7231C279.214 32.6558 278.952 32.5664 278.729 32.4551V31.5278H278.791C278.858 31.5776 278.955 31.6348 279.081 31.6992C279.207 31.7607 279.346 31.8193 279.498 31.875C279.671 31.9365 279.829 31.9849 279.973 32.02C280.116 32.0522 280.277 32.0684 280.456 32.0684C280.632 32.0684 280.803 32.0376 280.97 31.9761C281.137 31.9116 281.281 31.8091 281.401 31.6685C281.509 31.5396 281.591 31.3887 281.647 31.2158C281.706 31.043 281.735 30.8394 281.735 30.605C281.735 30.3735 281.703 30.1831 281.638 30.0337C281.577 29.8843 281.486 29.7612 281.366 29.6646C281.24 29.5532 281.085 29.4756 280.9 29.4316C280.718 29.3848 280.515 29.3613 280.289 29.3613C280.052 29.3613 279.813 29.3804 279.573 29.4185C279.333 29.4536 279.141 29.4873 278.997 29.5195V26.1489H282.588V26.918H279.845V28.6582C279.951 28.6465 280.055 28.6377 280.157 28.6318C280.26 28.626 280.354 28.623 280.439 28.623C280.773 28.623 281.055 28.6509 281.287 28.7065C281.518 28.7622 281.741 28.8706 281.955 29.0317C282.172 29.1958 282.337 29.4009 282.451 29.647C282.568 29.8931 282.627 30.2139 282.627 30.6094ZM287.646 29.4185C287.646 30.5933 287.474 31.4561 287.131 32.0068C286.792 32.5547 286.266 32.8286 285.554 32.8286C284.833 32.8286 284.304 32.5488 283.967 31.9893C283.63 31.4297 283.462 30.5757 283.462 29.4272C283.462 28.2466 283.632 27.3838 283.972 26.8389C284.315 26.291 284.842 26.0171 285.554 26.0171C286.275 26.0171 286.803 26.2998 287.14 26.8652C287.477 27.4307 287.646 28.2817 287.646 29.4185ZM286.521 31.4136C286.606 31.1968 286.666 30.9229 286.701 30.5918C286.736 30.2607 286.754 29.8696 286.754 29.4185C286.754 28.9702 286.736 28.5806 286.701 28.2495C286.666 27.9185 286.604 27.6431 286.516 27.4233C286.428 27.2007 286.307 27.0322 286.151 26.918C285.999 26.8008 285.8 26.7422 285.554 26.7422C285.311 26.7422 285.11 26.8008 284.952 26.918C284.797 27.0322 284.673 27.2036 284.583 27.4321C284.495 27.6548 284.435 27.936 284.402 28.2759C284.37 28.6157 284.354 28.9995 284.354 29.4272C284.354 29.8843 284.367 30.2666 284.394 30.5742C284.423 30.8818 284.484 31.1572 284.578 31.4004C284.663 31.626 284.783 31.8003 284.939 31.9233C285.097 32.0435 285.302 32.1035 285.554 32.1035C285.797 32.1035 285.996 32.0464 286.151 31.9321C286.31 31.8149 286.433 31.6421 286.521 31.4136ZM295.34 32.6924H291.302V31.7739C291.592 31.4985 291.866 31.2349 292.124 30.9829C292.381 30.731 292.633 30.4688 292.88 30.1963C293.378 29.6484 293.717 29.2104 293.899 28.8823C294.081 28.5513 294.172 28.21 294.172 27.8584C294.172 27.6768 294.142 27.5171 294.084 27.3794C294.028 27.2417 293.95 27.1274 293.851 27.0366C293.748 26.9487 293.63 26.8828 293.495 26.8389C293.36 26.7949 293.212 26.7729 293.051 26.7729C292.896 26.7729 292.737 26.7935 292.576 26.8345C292.418 26.8726 292.266 26.9209 292.119 26.9795C291.996 27.0293 291.878 27.0894 291.763 27.1597C291.649 27.23 291.557 27.29 291.486 27.3398H291.438V26.4082C291.62 26.3174 291.872 26.2295 292.194 26.1445C292.519 26.0566 292.827 26.0127 293.117 26.0127C293.726 26.0127 294.204 26.1753 294.549 26.5005C294.895 26.8228 295.068 27.2607 295.068 27.8145C295.068 28.0693 295.037 28.3052 294.976 28.522C294.917 28.7388 294.835 28.9395 294.73 29.124C294.621 29.3145 294.491 29.5034 294.339 29.6909C294.186 29.8784 294.025 30.063 293.855 30.2446C293.58 30.5435 293.272 30.854 292.932 31.1763C292.595 31.4985 292.326 31.7534 292.124 31.9409H295.34V32.6924ZM300.284 29.4185C300.284 30.5933 300.113 31.4561 299.77 32.0068C299.43 32.5547 298.904 32.8286 298.193 32.8286C297.472 32.8286 296.943 32.5488 296.606 31.9893C296.269 31.4297 296.101 30.5757 296.101 29.4272C296.101 28.2466 296.271 27.3838 296.61 26.8389C296.953 26.291 297.481 26.0171 298.193 26.0171C298.913 26.0171 299.442 26.2998 299.779 26.8652C300.116 27.4307 300.284 28.2817 300.284 29.4185ZM299.159 31.4136C299.244 31.1968 299.304 30.9229 299.339 30.5918C299.375 30.2607 299.392 29.8696 299.392 29.4185C299.392 28.9702 299.375 28.5806 299.339 28.2495C299.304 27.9185 299.243 27.6431 299.155 27.4233C299.067 27.2007 298.945 27.0322 298.79 26.918C298.638 26.8008 298.439 26.7422 298.193 26.7422C297.949 26.7422 297.749 26.8008 297.59 26.918C297.435 27.0322 297.312 27.2036 297.221 27.4321C297.133 27.6548 297.073 27.936 297.041 28.2759C297.009 28.6157 296.993 28.9995 296.993 29.4272C296.993 29.8843 297.006 30.2666 297.032 30.5742C297.062 30.8818 297.123 31.1572 297.217 31.4004C297.302 31.626 297.422 31.8003 297.577 31.9233C297.735 32.0435 297.941 32.1035 298.193 32.1035C298.436 32.1035 298.635 32.0464 298.79 31.9321C298.948 31.8149 299.071 31.6421 299.159 31.4136ZM305.197 29.4185C305.197 30.5933 305.026 31.4561 304.683 32.0068C304.343 32.5547 303.818 32.8286 303.106 32.8286C302.385 32.8286 301.856 32.5488 301.519 31.9893C301.182 31.4297 301.014 30.5757 301.014 29.4272C301.014 28.2466 301.184 27.3838 301.524 26.8389C301.866 26.291 302.394 26.0171 303.106 26.0171C303.826 26.0171 304.355 26.2998 304.692 26.8652C305.029 27.4307 305.197 28.2817 305.197 29.4185ZM304.072 31.4136C304.157 31.1968 304.217 30.9229 304.253 30.5918C304.288 30.2607 304.305 29.8696 304.305 29.4185C304.305 28.9702 304.288 28.5806 304.253 28.2495C304.217 27.9185 304.156 27.6431 304.068 27.4233C303.98 27.2007 303.859 27.0322 303.703 26.918C303.551 26.8008 303.352 26.7422 303.106 26.7422C302.862 26.7422 302.662 26.8008 302.504 26.918C302.348 27.0322 302.225 27.2036 302.134 27.4321C302.047 27.6548 301.986 27.936 301.954 28.2759C301.922 28.6157 301.906 28.9995 301.906 29.4272C301.906 29.8843 301.919 30.2666 301.945 30.5742C301.975 30.8818 302.036 31.1572 302.13 31.4004C302.215 31.626 302.335 31.8003 302.49 31.9233C302.649 32.0435 302.854 32.1035 303.106 32.1035C303.349 32.1035 303.548 32.0464 303.703 31.9321C303.861 31.8149 303.984 31.6421 304.072 31.4136Z" fill="white"/>
<path d="M277.02 62.3164H276.285V60.9844H272.512V62.3164H271.777V60.3125H272.094C272.432 59.7578 272.704 59.0312 272.91 58.1328C273.118 57.2318 273.223 56.2487 273.223 55.1836H276.469V60.3125H277.02V62.3164ZM275.695 60.3125V55.8555H273.949C273.913 56.7956 273.796 57.6484 273.598 58.4141C273.4 59.1797 273.147 59.8125 272.84 60.3125H275.695ZM281.297 58.8203C281.297 59.5547 281.12 60.1224 280.766 60.5234C280.411 60.9219 279.94 61.1211 279.352 61.1211C278.745 61.1211 278.267 60.9154 277.918 60.5039C277.572 60.0898 277.398 59.5286 277.398 58.8203C277.398 58.0911 277.577 57.5247 277.934 57.1211C278.293 56.7174 278.766 56.5156 279.352 56.5156C279.94 56.5156 280.411 56.7174 280.766 57.1211C281.12 57.5221 281.297 58.0885 281.297 58.8203ZM280.539 58.8203C280.539 58.2552 280.436 57.8359 280.23 57.5625C280.025 57.2865 279.732 57.1484 279.352 57.1484C278.969 57.1484 278.673 57.2865 278.465 57.5625C278.259 57.8359 278.156 58.2552 278.156 58.8203C278.156 59.3672 278.259 59.7826 278.465 60.0664C278.673 60.3477 278.969 60.4883 279.352 60.4883C279.729 60.4883 280.021 60.3503 280.227 60.0742C280.435 59.7956 280.539 59.3776 280.539 58.8203ZM283.785 61.0977C283.486 61.0977 283.211 61.0521 282.961 60.9609C282.711 60.8672 282.496 60.7266 282.316 60.5391C282.137 60.3516 281.997 60.1159 281.898 59.832C281.799 59.5456 281.75 59.2096 281.75 58.8242C281.75 58.4414 281.801 58.1107 281.902 57.832C282.007 57.5534 282.145 57.319 282.316 57.1289C282.488 56.9388 282.702 56.793 282.957 56.6914C283.215 56.5872 283.491 56.5352 283.785 56.5352C284.025 56.5352 284.255 56.569 284.477 56.6367C284.701 56.7044 284.9 56.7826 285.074 56.8711V57.6953H285.031C284.979 57.651 284.911 57.6003 284.828 57.543C284.747 57.4857 284.648 57.4271 284.531 57.3672C284.43 57.3151 284.31 57.2695 284.172 57.2305C284.034 57.1914 283.901 57.1719 283.773 57.1719C283.393 57.1719 283.087 57.3164 282.855 57.6055C282.626 57.8919 282.512 58.2982 282.512 58.8242C282.512 59.3398 282.622 59.7422 282.844 60.0312C283.068 60.3177 283.378 60.4609 283.773 60.4609C284.013 60.4609 284.241 60.4115 284.457 60.3125C284.673 60.2135 284.865 60.0859 285.031 59.9297H285.074V60.7539C285.001 60.7878 284.91 60.8294 284.801 60.8789C284.691 60.9258 284.592 60.9609 284.504 60.9844C284.379 61.0208 284.267 61.0482 284.168 61.0664C284.069 61.0872 283.941 61.0977 283.785 61.0977ZM288.934 57.2812H287.449V61H286.715V57.2812H285.23V56.6367H288.934V57.2812ZM292.91 56.6367L290.562 62.6094H289.777L290.559 60.7891L288.973 56.6367H289.766L290.957 59.8672L292.145 56.6367H292.91ZM296.91 61H296.176V57.2695H294.199V61H293.465V56.6367H296.91V61ZM301.418 61H300.684V59.0352H298.707V61H297.973V56.6367H298.707V58.4023H300.684V56.6367H301.418V61ZM306.07 58.8203C306.07 59.5547 305.893 60.1224 305.539 60.5234C305.185 60.9219 304.714 61.1211 304.125 61.1211C303.518 61.1211 303.04 60.9154 302.691 60.5039C302.345 60.0898 302.172 59.5286 302.172 58.8203C302.172 58.0911 302.35 57.5247 302.707 57.1211C303.066 56.7174 303.539 56.5156 304.125 56.5156C304.714 56.5156 305.185 56.7174 305.539 57.1211C305.893 57.5221 306.07 58.0885 306.07 58.8203ZM305.312 58.8203C305.312 58.2552 305.21 57.8359 305.004 57.5625C304.798 57.2865 304.505 57.1484 304.125 57.1484C303.742 57.1484 303.447 57.2865 303.238 57.5625C303.033 57.8359 302.93 58.2552 302.93 58.8203C302.93 59.3672 303.033 59.7826 303.238 60.0664C303.447 60.3477 303.742 60.4883 304.125 60.4883C304.503 60.4883 304.794 60.3503 305 60.0742C305.208 59.7956 305.312 59.3776 305.312 58.8203Z" fill="#00A73D"/>
<line x1="317.333" y1="11.2693" x2="260.667" y2="11.2693" stroke="#4B5169" stroke-dasharray="2 2"/>
<mask id="path-74-inside-5" fill="white">
<path fill-rule="evenodd" clip-rule="evenodd" d="M5 44.9231V66.6154C5 67.72 5.89543 68.6154 7 68.6154H63C64.1046 68.6154 65 67.72 65 66.6154V44.9231C65 47.1322 63.2091 48.9231 61 48.9231H9C6.79086 48.9231 5 47.1322 5 44.9231Z"/>
</mask>
<path fill-rule="evenodd" clip-rule="evenodd" d="M5 44.9231V66.6154C5 67.72 5.89543 68.6154 7 68.6154H63C64.1046 68.6154 65 67.72 65 66.6154V44.9231C65 47.1322 63.2091 48.9231 61 48.9231H9C6.79086 48.9231 5 47.1322 5 44.9231Z" fill="#272A38"/>
<path d="M6 66.6154V44.9231H4V66.6154H6ZM7 67.6154C6.44772 67.6154 6 67.1677 6 66.6154H4C4 68.2723 5.34315 69.6154 7 69.6154V67.6154ZM63 67.6154H7V69.6154H63V67.6154ZM64 66.6154C64 67.1677 63.5523 67.6154 63 67.6154V69.6154C64.6569 69.6154 66 68.2723 66 66.6154H64ZM64 44.9231V66.6154H66V44.9231H64ZM64 44.9231C64 46.58 62.6569 47.9231 61 47.9231V49.9231C63.7614 49.9231 66 47.6845 66 44.9231H64ZM61 47.9231H9V49.9231H61V47.9231ZM9 47.9231C7.34315 47.9231 6 46.5799 6 44.9231H4C4 47.6845 6.23858 49.9231 9 49.9231V47.9231Z" fill="#303549" mask="url(#path-74-inside-5)"/>
<rect x="5.5" y="4.5" width="59" height="43.3077" rx="3.5" fill="#1C1F2B" stroke="#303549"/>
<path d="M6.66663 42.1538H63.3333V45.0769C63.3333 46.1815 62.4379 47.0769 61.3333 47.0769H8.66663C7.56206 47.0769 6.66663 46.1815 6.66663 45.0769V42.1538Z" fill="#0089FF" fill-opacity="0.2"/>
<path d="M6.66663 16.9231H63.3333V41.5385H6.66663V16.9231Z" fill="#0089FF"/>
<path d="M23.4547 32.6924H20.2643V32.0244H21.4508V27.6387H20.2643V27.041C20.7125 27.041 21.0421 26.978 21.2531 26.8521C21.4669 26.7231 21.587 26.4814 21.6134 26.127H22.2946V32.0244H23.4547V32.6924ZM28.6271 30.6094C28.6271 30.9258 28.5758 31.2188 28.4733 31.4883C28.3737 31.7578 28.233 31.9907 28.0514 32.187C27.8668 32.3862 27.6368 32.543 27.3615 32.6572C27.089 32.7715 26.7828 32.8286 26.443 32.8286C26.1295 32.8286 25.8204 32.7935 25.5157 32.7231C25.214 32.6558 24.9518 32.5664 24.7291 32.4551V31.5278H24.7906C24.858 31.5776 24.9547 31.6348 25.0807 31.6992C25.2067 31.7607 25.3458 31.8193 25.4982 31.875C25.671 31.9365 25.8292 31.9849 25.9728 32.02C26.1163 32.0522 26.2775 32.0684 26.4562 32.0684C26.632 32.0684 26.8033 32.0376 26.9703 31.9761C27.1373 31.9116 27.2809 31.8091 27.401 31.6685C27.5094 31.5396 27.5914 31.3887 27.6471 31.2158C27.7057 31.043 27.735 30.8394 27.735 30.605C27.735 30.3735 27.7028 30.1831 27.6383 30.0337C27.5768 29.8843 27.486 29.7612 27.3658 29.6646C27.2399 29.5532 27.0846 29.4756 26.9 29.4316C26.7184 29.3848 26.5148 29.3613 26.2892 29.3613C26.0519 29.3613 25.8131 29.3804 25.5729 29.4185C25.3326 29.4536 25.1407 29.4873 24.9972 29.5195V26.1489H28.5875V26.918H25.8453V28.6582C25.9508 28.6465 26.0548 28.6377 26.1573 28.6318C26.2599 28.626 26.3536 28.623 26.4386 28.623C26.7726 28.623 27.0553 28.6509 27.2867 28.7065C27.5182 28.7622 27.7408 28.8706 27.9547 29.0317C28.1715 29.1958 28.337 29.4009 28.4513 29.647C28.5685 29.8931 28.6271 30.2139 28.6271 30.6094ZM33.6456 29.4185C33.6456 30.5933 33.4742 31.4561 33.1315 32.0068C32.7916 32.5547 32.2657 32.8286 31.5538 32.8286C30.8331 32.8286 30.3043 32.5488 29.9674 31.9893C29.6305 31.4297 29.462 30.5757 29.462 29.4272C29.462 28.2466 29.632 27.3838 29.9718 26.8389C30.3146 26.291 30.8419 26.0171 31.5538 26.0171C32.2745 26.0171 32.8033 26.2998 33.1403 26.8652C33.4772 27.4307 33.6456 28.2817 33.6456 29.4185ZM32.5206 31.4136C32.6056 31.1968 32.6656 30.9229 32.7008 30.5918C32.736 30.2607 32.7535 29.8696 32.7535 29.4185C32.7535 28.9702 32.736 28.5806 32.7008 28.2495C32.6656 27.9185 32.6041 27.6431 32.5162 27.4233C32.4283 27.2007 32.3068 27.0322 32.1515 26.918C31.9991 26.8008 31.7999 26.7422 31.5538 26.7422C31.3107 26.7422 31.11 26.8008 30.9518 26.918C30.7965 27.0322 30.6735 27.2036 30.5826 27.4321C30.4948 27.6548 30.4347 27.936 30.4025 28.2759C30.3702 28.6157 30.3541 28.9995 30.3541 29.4272C30.3541 29.8843 30.3673 30.2666 30.3937 30.5742C30.423 30.8818 30.4845 31.1572 30.5782 31.4004C30.6632 31.626 30.7833 31.8003 30.9386 31.9233C31.0968 32.0435 31.3019 32.1035 31.5538 32.1035C31.797 32.1035 31.9962 32.0464 32.1515 31.9321C32.3097 31.8149 32.4327 31.6421 32.5206 31.4136ZM41.3405 32.6924H37.3019V31.7739C37.5919 31.4985 37.8658 31.2349 38.1237 30.9829C38.3815 30.731 38.6334 30.4688 38.8795 30.1963C39.3776 29.6484 39.7174 29.2104 39.899 28.8823C40.0807 28.5513 40.1715 28.21 40.1715 27.8584C40.1715 27.6768 40.1422 27.5171 40.0836 27.3794C40.028 27.2417 39.9503 27.1274 39.8507 27.0366C39.7482 26.9487 39.6295 26.8828 39.4948 26.8389C39.36 26.7949 39.212 26.7729 39.0509 26.7729C38.8956 26.7729 38.7374 26.7935 38.5763 26.8345C38.4181 26.8726 38.2657 26.9209 38.1193 26.9795C37.9962 27.0293 37.8776 27.0894 37.7633 27.1597C37.649 27.23 37.5568 27.29 37.4865 27.3398H37.4381V26.4082C37.6198 26.3174 37.8717 26.2295 38.194 26.1445C38.5192 26.0566 38.8268 26.0127 39.1168 26.0127C39.7262 26.0127 40.2037 26.1753 40.5494 26.5005C40.8951 26.8228 41.068 27.2607 41.068 27.8145C41.068 28.0693 41.0372 28.3052 40.9757 28.522C40.9171 28.7388 40.8351 28.9395 40.7296 29.124C40.6212 29.3145 40.4908 29.5034 40.3385 29.6909C40.1862 29.8784 40.025 30.063 39.8551 30.2446C39.5797 30.5435 39.2721 30.854 38.9323 31.1763C38.5953 31.4985 38.3258 31.7534 38.1237 31.9409H41.3405V32.6924ZM46.2843 29.4185C46.2843 30.5933 46.1129 31.4561 45.7701 32.0068C45.4303 32.5547 44.9044 32.8286 44.1925 32.8286C43.4718 32.8286 42.943 32.5488 42.6061 31.9893C42.2692 31.4297 42.1007 30.5757 42.1007 29.4272C42.1007 28.2466 42.2706 27.3838 42.6105 26.8389C42.9532 26.291 43.4806 26.0171 44.1925 26.0171C44.9132 26.0171 45.442 26.2998 45.7789 26.8652C46.1158 27.4307 46.2843 28.2817 46.2843 29.4185ZM45.1593 31.4136C45.2443 31.1968 45.3043 30.9229 45.3395 30.5918C45.3746 30.2607 45.3922 29.8696 45.3922 29.4185C45.3922 28.9702 45.3746 28.5806 45.3395 28.2495C45.3043 27.9185 45.2428 27.6431 45.1549 27.4233C45.067 27.2007 44.9454 27.0322 44.7902 26.918C44.6378 26.8008 44.4386 26.7422 44.1925 26.7422C43.9493 26.7422 43.7487 26.8008 43.5905 26.918C43.4352 27.0322 43.3121 27.2036 43.2213 27.4321C43.1334 27.6548 43.0734 27.936 43.0411 28.2759C43.0089 28.6157 42.9928 28.9995 42.9928 29.4272C42.9928 29.8843 43.006 30.2666 43.0323 30.5742C43.0616 30.8818 43.1232 31.1572 43.2169 31.4004C43.3019 31.626 43.422 31.8003 43.5773 31.9233C43.7355 32.0435 43.9406 32.1035 44.1925 32.1035C44.4357 32.1035 44.6349 32.0464 44.7902 31.9321C44.9484 31.8149 45.0714 31.6421 45.1593 31.4136ZM51.1974 29.4185C51.1974 30.5933 51.026 31.4561 50.6832 32.0068C50.3434 32.5547 49.8175 32.8286 49.1056 32.8286C48.3849 32.8286 47.8561 32.5488 47.5192 31.9893C47.1823 31.4297 47.0138 30.5757 47.0138 29.4272C47.0138 28.2466 47.1837 27.3838 47.5236 26.8389C47.8663 26.291 48.3937 26.0171 49.1056 26.0171C49.8263 26.0171 50.3551 26.2998 50.692 26.8652C51.0289 27.4307 51.1974 28.2817 51.1974 29.4185ZM50.0724 31.4136C50.1573 31.1968 50.2174 30.9229 50.2526 30.5918C50.2877 30.2607 50.3053 29.8696 50.3053 29.4185C50.3053 28.9702 50.2877 28.5806 50.2526 28.2495C50.2174 27.9185 50.1559 27.6431 50.068 27.4233C49.9801 27.2007 49.8585 27.0322 49.7032 26.918C49.5509 26.8008 49.3517 26.7422 49.1056 26.7422C48.8624 26.7422 48.6617 26.8008 48.5035 26.918C48.3483 27.0322 48.2252 27.2036 48.1344 27.4321C48.0465 27.6548 47.9865 27.936 47.9542 28.2759C47.922 28.6157 47.9059 28.9995 47.9059 29.4272C47.9059 29.8843 47.9191 30.2666 47.9454 30.5742C47.9747 30.8818 48.0363 31.1572 48.13 31.4004C48.215 31.626 48.3351 31.8003 48.4904 31.9233C48.6486 32.0435 48.8536 32.1035 49.1056 32.1035C49.3488 32.1035 49.548 32.0464 49.7032 31.9321C49.8615 31.8149 49.9845 31.6421 50.0724 31.4136Z" fill="white"/>
<path d="M23.0195 62.3164H22.2852V60.9844H18.5117V62.3164H17.7773V60.3125H18.0938C18.4323 59.7578 18.7044 59.0312 18.9102 58.1328C19.1185 57.2318 19.2227 56.2487 19.2227 55.1836H22.4688V60.3125H23.0195V62.3164ZM21.6953 60.3125V55.8555H19.9492C19.9128 56.7956 19.7956 57.6484 19.5977 58.4141C19.3997 59.1797 19.1471 59.8125 18.8398 60.3125H21.6953ZM27.2969 58.8203C27.2969 59.5547 27.1198 60.1224 26.7656 60.5234C26.4115 60.9219 25.9401 61.1211 25.3516 61.1211C24.7448 61.1211 24.2669 60.9154 23.918 60.5039C23.5716 60.0898 23.3984 59.5286 23.3984 58.8203C23.3984 58.0911 23.5768 57.5247 23.9336 57.1211C24.293 56.7174 24.7656 56.5156 25.3516 56.5156C25.9401 56.5156 26.4115 56.7174 26.7656 57.1211C27.1198 57.5221 27.2969 58.0885 27.2969 58.8203ZM26.5391 58.8203C26.5391 58.2552 26.4362 57.8359 26.2305 57.5625C26.0247 57.2865 25.7318 57.1484 25.3516 57.1484C24.9688 57.1484 24.6732 57.2865 24.4648 57.5625C24.2591 57.8359 24.1562 58.2552 24.1562 58.8203C24.1562 59.3672 24.2591 59.7826 24.4648 60.0664C24.6732 60.3477 24.9688 60.4883 25.3516 60.4883C25.7292 60.4883 26.0208 60.3503 26.2266 60.0742C26.4349 59.7956 26.5391 59.3776 26.5391 58.8203ZM29.7852 61.0977C29.4857 61.0977 29.2109 61.0521 28.9609 60.9609C28.7109 60.8672 28.4961 60.7266 28.3164 60.5391C28.1367 60.3516 27.9974 60.1159 27.8984 59.832C27.7995 59.5456 27.75 59.2096 27.75 58.8242C27.75 58.4414 27.8008 58.1107 27.9023 57.832C28.0065 57.5534 28.1445 57.319 28.3164 57.1289C28.4883 56.9388 28.7018 56.793 28.957 56.6914C29.2148 56.5872 29.4909 56.5352 29.7852 56.5352C30.0247 56.5352 30.2552 56.569 30.4766 56.6367C30.7005 56.7044 30.8997 56.7826 31.0742 56.8711V57.6953H31.0312C30.9792 57.651 30.9115 57.6003 30.8281 57.543C30.7474 57.4857 30.6484 57.4271 30.5312 57.3672C30.4297 57.3151 30.3099 57.2695 30.1719 57.2305C30.0339 57.1914 29.901 57.1719 29.7734 57.1719C29.3932 57.1719 29.0872 57.3164 28.8555 57.6055C28.6263 57.8919 28.5117 58.2982 28.5117 58.8242C28.5117 59.3398 28.6224 59.7422 28.8438 60.0312C29.0677 60.3177 29.3776 60.4609 29.7734 60.4609C30.013 60.4609 30.2409 60.4115 30.457 60.3125C30.6732 60.2135 30.8646 60.0859 31.0312 59.9297H31.0742V60.7539C31.0013 60.7878 30.9102 60.8294 30.8008 60.8789C30.6914 60.9258 30.5924 60.9609 30.5039 60.9844C30.3789 61.0208 30.2669 61.0482 30.168 61.0664C30.069 61.0872 29.9414 61.0977 29.7852 61.0977ZM34.9336 57.2812H33.4492V61H32.7148V57.2812H31.2305V56.6367H34.9336V57.2812ZM38.9102 56.6367L36.5625 62.6094H35.7773L36.5586 60.7891L34.9727 56.6367H35.7656L36.957 59.8672L38.1445 56.6367H38.9102ZM42.9102 61H42.1758V57.2695H40.1992V61H39.4648V56.6367H42.9102V61ZM47.418 61H46.6836V59.0352H44.707V61H43.9727V56.6367H44.707V58.4023H46.6836V56.6367H47.418V61ZM52.0703 58.8203C52.0703 59.5547 51.8932 60.1224 51.5391 60.5234C51.1849 60.9219 50.7135 61.1211 50.125 61.1211C49.5182 61.1211 49.0404 60.9154 48.6914 60.5039C48.3451 60.0898 48.1719 59.5286 48.1719 58.8203C48.1719 58.0911 48.3503 57.5247 48.707 57.1211C49.0664 56.7174 49.5391 56.5156 50.125 56.5156C50.7135 56.5156 51.1849 56.7174 51.5391 57.1211C51.8932 57.5221 52.0703 58.0885 52.0703 58.8203ZM51.3125 58.8203C51.3125 58.2552 51.2096 57.8359 51.0039 57.5625C50.7982 57.2865 50.5052 57.1484 50.125 57.1484C49.7422 57.1484 49.4466 57.2865 49.2383 57.5625C49.0326 57.8359 48.9297 58.2552 48.9297 58.8203C48.9297 59.3672 49.0326 59.7826 49.2383 60.0664C49.4466 60.3477 49.7422 60.4883 50.125 60.4883C50.5026 60.4883 50.7943 60.3503 51 60.0742C51.2083 59.7956 51.3125 59.3776 51.3125 58.8203Z" fill="#00A73D"/>
<line x1="63.3334" y1="11.2693" x2="6.66671" y2="11.2693" stroke="#4B5169" stroke-dasharray="2 2"/>
<defs>
<clipPath id="clip0">
<rect x="55" y="100" width="13" height="4" rx="1" fill="white"/>
</clipPath>
<clipPath id="clip1">
<rect x="74.9602" y="100" width="13" height="4" rx="1" fill="white"/>
</clipPath>
<clipPath id="clip2">
<rect x="94.9208" y="100" width="13" height="4" rx="1" fill="white"/>
</clipPath>
<clipPath id="clip3">
<rect x="114.881" y="100" width="13" height="4" rx="1" fill="white"/>
</clipPath>
<clipPath id="clip4">
<rect x="134.841" y="100" width="13" height="4" rx="1" fill="white"/>
</clipPath>
<clipPath id="clip5">
<rect x="154.802" y="100" width="13" height="4" rx="1" fill="white"/>
</clipPath>
<clipPath id="clip6">
<rect x="174.762" y="100" width="13" height="4" rx="1" fill="white"/>
</clipPath>
<clipPath id="clip7">
<rect x="194.722" y="100" width="13" height="4" rx="1" fill="white"/>
</clipPath>
<clipPath id="clip8">
<rect x="214.683" y="100" width="13" height="4" rx="1" fill="white"/>
</clipPath>
<clipPath id="clip9">
<rect x="234.643" y="100" width="13" height="4" rx="1" fill="white"/>
</clipPath>
</defs>
</svg>
