<svg width="324" height="117" viewBox="0 0 324 117" fill="none" xmlns="http://www.w3.org/2000/svg">
<rect width="152" height="36" rx="2" transform="matrix(1 0 0 -1 167 108)" fill="#303549"/>
<path d="M221.968 94H221.001V87.7354L219.106 91.998H218.521L216.641 87.7354V94H215.737V86.7295H217.056L218.872 90.7773L220.625 86.7295H221.968V94ZM227.856 91.2754C227.856 92.1934 227.635 92.903 227.192 93.4043C226.75 93.9023 226.16 94.1514 225.425 94.1514C224.666 94.1514 224.069 93.8942 223.633 93.3799C223.2 92.8623 222.983 92.1608 222.983 91.2754C222.983 90.3639 223.206 89.6559 223.652 89.1514C224.102 88.6468 224.692 88.3945 225.425 88.3945C226.16 88.3945 226.75 88.6468 227.192 89.1514C227.635 89.6527 227.856 90.3607 227.856 91.2754ZM226.909 91.2754C226.909 90.569 226.781 90.0449 226.523 89.7031C226.266 89.3581 225.9 89.1855 225.425 89.1855C224.946 89.1855 224.577 89.3581 224.316 89.7031C224.059 90.0449 223.931 90.569 223.931 91.2754C223.931 91.959 224.059 92.4782 224.316 92.833C224.577 93.1846 224.946 93.3604 225.425 93.3604C225.897 93.3604 226.261 93.1878 226.519 92.8428C226.779 92.4945 226.909 91.972 226.909 91.2754ZM233.105 94H232.188V91.5439H229.717V94H228.799V88.5459H229.717V90.7529H232.188V88.5459H233.105V94ZM238.74 94H237.832V89.9326L235.264 94H234.434V88.5459H235.342V92.5498L237.881 88.5459H238.74V94ZM244.053 89.3516H242.197V94H241.279V89.3516H239.424V88.5459H244.053V89.3516ZM249.224 91.2754C249.224 92.1934 249.002 92.903 248.56 93.4043C248.117 93.9023 247.528 94.1514 246.792 94.1514C246.034 94.1514 245.436 93.8942 245 93.3799C244.567 92.8623 244.351 92.1608 244.351 91.2754C244.351 90.3639 244.574 89.6559 245.02 89.1514C245.469 88.6468 246.06 88.3945 246.792 88.3945C247.528 88.3945 248.117 88.6468 248.56 89.1514C249.002 89.6527 249.224 90.3607 249.224 91.2754ZM248.276 91.2754C248.276 90.569 248.148 90.0449 247.891 89.7031C247.633 89.3581 247.267 89.1855 246.792 89.1855C246.313 89.1855 245.944 89.3581 245.684 89.7031C245.426 90.0449 245.298 90.569 245.298 91.2754C245.298 91.959 245.426 92.4782 245.684 92.833C245.944 93.1846 246.313 93.3604 246.792 93.3604C247.264 93.3604 247.629 93.1878 247.886 92.8428C248.146 92.4945 248.276 91.972 248.276 91.2754ZM254.741 91.1289C254.741 92.0371 254.523 92.7614 254.087 93.3018C253.654 93.8389 253.105 94.1074 252.441 94.1074C252.171 94.1074 251.932 94.0765 251.724 94.0146C251.515 93.9528 251.302 93.8568 251.084 93.7266V96.0117H250.166V88.5459H251.084V89.1172C251.312 88.9121 251.564 88.7412 251.841 88.6045C252.121 88.4645 252.425 88.3945 252.754 88.3945C253.379 88.3945 253.866 88.6419 254.214 89.1367C254.565 89.6315 254.741 90.2956 254.741 91.1289ZM253.794 91.2314C253.794 90.6097 253.695 90.1279 253.496 89.7861C253.298 89.4411 252.975 89.2686 252.529 89.2686C252.269 89.2686 252.017 89.3271 251.772 89.4443C251.532 89.5583 251.302 89.7064 251.084 89.8887V92.9795C251.325 93.0967 251.53 93.1764 251.699 93.2188C251.872 93.2611 252.069 93.2822 252.29 93.2822C252.765 93.2822 253.135 93.1081 253.398 92.7598C253.662 92.4115 253.794 91.902 253.794 91.2314ZM260 94H259.092V89.9326L256.523 94H255.693V88.5459H256.602V92.5498L259.141 88.5459H260V94ZM265.635 94H264.717V91.5439H262.246V94H261.328V88.5459H262.246V90.7529H264.717V88.5459H265.635V94ZM270.43 89.3516H267.881V94H266.963V88.5459H270.43V89.3516Z" fill="#D7E2F2"/>
<rect x="0.5" y="-0.5" width="151" height="35" rx="1.5" transform="matrix(1 0 0 -1 5 107)" fill="#0089FF" fill-opacity="0.2"/>
<path d="M53.5156 94H52.5488V87.5889H49.2041V94H48.2373V86.7295H53.5156V94ZM59.1455 94H58.2275V89.3174H56.3525C56.3428 89.5876 56.333 89.848 56.3232 90.0986C56.3135 90.346 56.3037 90.5706 56.2939 90.7725C56.2744 91.2835 56.2402 91.7116 56.1914 92.0566C56.1458 92.4017 56.0872 92.6784 56.0156 92.8867C55.944 93.1016 55.8643 93.2692 55.7764 93.3896C55.6917 93.5101 55.5957 93.6191 55.4883 93.7168C55.3776 93.8145 55.2588 93.8877 55.1318 93.9365C55.0049 93.9854 54.8617 94.0098 54.7021 94.0098C54.6501 94.0098 54.5833 94.0081 54.502 94.0049C54.4206 94.0016 54.3636 94 54.3311 94V93.1992H54.3799C54.4027 93.1992 54.4255 93.2008 54.4482 93.2041C54.4743 93.2074 54.5036 93.209 54.5361 93.209C54.6143 93.209 54.6908 93.1976 54.7656 93.1748C54.8405 93.152 54.9072 93.1097 54.9658 93.0479C55.1286 92.8883 55.2474 92.61 55.3223 92.2129C55.3971 91.8125 55.4508 91.2542 55.4834 90.5381C55.4964 90.2712 55.5078 89.9554 55.5176 89.5908C55.5306 89.2262 55.542 88.8779 55.5518 88.5459H59.1455V94ZM63.5254 92.6572V91.1436C63.3073 91.1631 63.0306 91.1908 62.6953 91.2266C62.3633 91.2591 62.0947 91.3063 61.8896 91.3682C61.6455 91.443 61.4437 91.5586 61.2842 91.7148C61.1247 91.8678 61.0449 92.0827 61.0449 92.3594C61.0449 92.6719 61.1328 92.9079 61.3086 93.0674C61.4844 93.2269 61.7415 93.3066 62.0801 93.3066C62.3698 93.3066 62.6318 93.2448 62.8662 93.1211C63.1006 92.9941 63.3203 92.8395 63.5254 92.6572ZM63.5254 93.4189C63.4505 93.4743 63.3496 93.5524 63.2227 93.6533C63.099 93.751 62.9785 93.8291 62.8613 93.8877C62.6986 93.9723 62.5407 94.0374 62.3877 94.083C62.238 94.1286 62.0264 94.1514 61.7529 94.1514C61.5283 94.1514 61.3151 94.109 61.1133 94.0244C60.9115 93.9398 60.734 93.821 60.5811 93.668C60.4346 93.5182 60.3174 93.3343 60.2295 93.1162C60.1416 92.8949 60.0977 92.6621 60.0977 92.418C60.0977 92.0404 60.1774 91.7197 60.3369 91.4561C60.4964 91.1891 60.7487 90.9775 61.0938 90.8213C61.3997 90.6813 61.7611 90.5853 62.1777 90.5332C62.5944 90.4779 63.0436 90.4372 63.5254 90.4111V90.2354C63.5254 90.0205 63.4928 89.848 63.4277 89.7178C63.3626 89.5843 63.2715 89.4818 63.1543 89.4102C63.0371 89.3353 62.8939 89.2865 62.7246 89.2637C62.5553 89.2376 62.3812 89.2246 62.2021 89.2246C61.9906 89.2246 61.7415 89.2572 61.4551 89.3223C61.1686 89.3841 60.8822 89.4753 60.5957 89.5957H60.542V88.6631C60.7113 88.6143 60.9538 88.5605 61.2695 88.502C61.5853 88.4434 61.8978 88.4141 62.207 88.4141C62.5814 88.4141 62.8971 88.4434 63.1543 88.502C63.4115 88.5605 63.6426 88.6663 63.8477 88.8193C64.0462 88.9691 64.1943 89.1628 64.292 89.4004C64.3896 89.638 64.4385 89.9277 64.4385 90.2695V94H63.5254V93.4189ZM70.0391 94H69.1211V91.5439H66.6504V94H65.7324V88.5459H66.6504V90.7529H69.1211V88.5459H70.0391V94ZM75.6738 94H74.7656V89.9326L72.1973 94H71.3672V88.5459H72.2754V92.5498L74.8145 88.5459H75.6738V94ZM81.5771 91.1289C81.5771 92.0371 81.359 92.7614 80.9229 93.3018C80.4899 93.8389 79.9414 94.1074 79.2773 94.1074C79.0072 94.1074 78.7679 94.0765 78.5596 94.0146C78.3512 93.9528 78.138 93.8568 77.9199 93.7266V96.0117H77.002V88.5459H77.9199V89.1172C78.1478 88.9121 78.4001 88.7412 78.6768 88.6045C78.9567 88.4645 79.2611 88.3945 79.5898 88.3945C80.2148 88.3945 80.7015 88.6419 81.0498 89.1367C81.4014 89.6315 81.5771 90.2956 81.5771 91.1289ZM80.6299 91.2314C80.6299 90.6097 80.5306 90.1279 80.332 89.7861C80.1335 89.4411 79.8112 89.2686 79.3652 89.2686C79.1048 89.2686 78.8525 89.3271 78.6084 89.4443C78.3675 89.5583 78.138 89.7064 77.9199 89.8887V92.9795C78.1608 93.0967 78.3659 93.1764 78.5352 93.2188C78.7077 93.2611 78.9046 93.2822 79.126 93.2822C79.6012 93.2822 79.9707 93.1081 80.2344 92.7598C80.498 92.4115 80.6299 91.902 80.6299 91.2314ZM87.0166 91.2754C87.0166 92.1934 86.7952 92.903 86.3525 93.4043C85.9098 93.9023 85.3206 94.1514 84.585 94.1514C83.8265 94.1514 83.2292 93.8942 82.793 93.3799C82.36 92.8623 82.1436 92.1608 82.1436 91.2754C82.1436 90.3639 82.3665 89.6559 82.8125 89.1514C83.2617 88.6468 83.8525 88.3945 84.585 88.3945C85.3206 88.3945 85.9098 88.6468 86.3525 89.1514C86.7952 89.6527 87.0166 90.3607 87.0166 91.2754ZM86.0693 91.2754C86.0693 90.569 85.9408 90.0449 85.6836 89.7031C85.4264 89.3581 85.0602 89.1855 84.585 89.1855C84.1064 89.1855 83.737 89.3581 83.4766 89.7031C83.2194 90.0449 83.0908 90.569 83.0908 91.2754C83.0908 91.959 83.2194 92.4782 83.4766 92.833C83.737 93.1846 84.1064 93.3604 84.585 93.3604C85.057 93.3604 85.4215 93.1878 85.6787 92.8428C85.9391 92.4945 86.0693 91.972 86.0693 91.2754ZM92.2363 92.3496C92.2363 92.6133 92.1859 92.8477 92.085 93.0527C91.984 93.2546 91.8457 93.4238 91.6699 93.5605C91.4486 93.7331 91.2158 93.8503 90.9717 93.9121C90.7308 93.9707 90.4411 94 90.1025 94H87.959V88.5459H89.9609C90.3613 88.5459 90.6543 88.5589 90.8398 88.585C91.0254 88.6077 91.2093 88.6696 91.3916 88.7705C91.5837 88.8747 91.7253 89.013 91.8164 89.1855C91.9076 89.3581 91.9531 89.5632 91.9531 89.8008C91.9531 90.0612 91.8815 90.2956 91.7383 90.5039C91.5951 90.709 91.4046 90.8685 91.167 90.9824L91.1914 91.0166C91.4876 91.0915 91.735 91.2428 91.9336 91.4707C92.1354 91.6986 92.2363 91.9915 92.2363 92.3496ZM91.0107 89.9424C91.0107 89.8187 90.9896 89.7113 90.9473 89.6201C90.9082 89.529 90.8382 89.4574 90.7373 89.4053C90.6201 89.3434 90.4883 89.3076 90.3418 89.2979C90.1986 89.2848 89.9984 89.2783 89.7412 89.2783H88.8672V90.7725H89.9219C90.1465 90.7725 90.306 90.7627 90.4004 90.7432C90.4948 90.7204 90.599 90.6748 90.7129 90.6064C90.8203 90.5413 90.8968 90.4535 90.9424 90.3428C90.988 90.2321 91.0107 90.0986 91.0107 89.9424ZM91.2891 92.3545C91.2891 92.1689 91.2614 92.0208 91.2061 91.9102C91.154 91.7962 91.0368 91.6953 90.8545 91.6074C90.7406 91.5521 90.6185 91.5179 90.4883 91.5049C90.3581 91.4919 90.1774 91.4854 89.9463 91.4854H88.8672V93.2676H89.6631C89.9919 93.2676 90.2474 93.2546 90.4297 93.2285C90.612 93.2025 90.7682 93.1504 90.8984 93.0723C91.0352 92.9876 91.1344 92.89 91.1963 92.7793C91.2581 92.6686 91.2891 92.527 91.2891 92.3545ZM96.25 92.6572V91.1436C96.0319 91.1631 95.7552 91.1908 95.4199 91.2266C95.0879 91.2591 94.8193 91.3063 94.6143 91.3682C94.3701 91.443 94.1683 91.5586 94.0088 91.7148C93.8493 91.8678 93.7695 92.0827 93.7695 92.3594C93.7695 92.6719 93.8574 92.9079 94.0332 93.0674C94.209 93.2269 94.4661 93.3066 94.8047 93.3066C95.0944 93.3066 95.3564 93.2448 95.5908 93.1211C95.8252 92.9941 96.0449 92.8395 96.25 92.6572ZM96.25 93.4189C96.1751 93.4743 96.0742 93.5524 95.9473 93.6533C95.8236 93.751 95.7031 93.8291 95.5859 93.8877C95.4232 93.9723 95.2653 94.0374 95.1123 94.083C94.9626 94.1286 94.751 94.1514 94.4775 94.1514C94.2529 94.1514 94.0397 94.109 93.8379 94.0244C93.6361 93.9398 93.4587 93.821 93.3057 93.668C93.1592 93.5182 93.042 93.3343 92.9541 93.1162C92.8662 92.8949 92.8223 92.6621 92.8223 92.418C92.8223 92.0404 92.902 91.7197 93.0615 91.4561C93.221 91.1891 93.4733 90.9775 93.8184 90.8213C94.1243 90.6813 94.4857 90.5853 94.9023 90.5332C95.319 90.4779 95.7682 90.4372 96.25 90.4111V90.2354C96.25 90.0205 96.2174 89.848 96.1523 89.7178C96.0872 89.5843 95.9961 89.4818 95.8789 89.4102C95.7617 89.3353 95.6185 89.2865 95.4492 89.2637C95.2799 89.2376 95.1058 89.2246 94.9268 89.2246C94.7152 89.2246 94.4661 89.2572 94.1797 89.3223C93.8932 89.3841 93.6068 89.4753 93.3203 89.5957H93.2666V88.6631C93.4359 88.6143 93.6784 88.5605 93.9941 88.502C94.3099 88.4434 94.6224 88.4141 94.9316 88.4141C95.306 88.4141 95.6217 88.4434 95.8789 88.502C96.1361 88.5605 96.3672 88.6663 96.5723 88.8193C96.7708 88.9691 96.9189 89.1628 97.0166 89.4004C97.1143 89.638 97.1631 89.9277 97.1631 90.2695V94H96.25V93.4189ZM102.764 94H101.846V91.5439H99.375V94H98.457V88.5459H99.375V90.7529H101.846V88.5459H102.764V94ZM108.398 94H107.49V89.9326L104.922 94H104.092V88.5459H105V92.5498L107.539 88.5459H108.398V94ZM112.095 94.127C111.226 94.127 110.55 93.8828 110.068 93.3945C109.59 92.903 109.351 92.2064 109.351 91.3047C109.351 90.416 109.583 89.7096 110.049 89.1855C110.514 88.6582 111.123 88.3945 111.875 88.3945C112.214 88.3945 112.513 88.4434 112.773 88.541C113.034 88.6387 113.262 88.7917 113.457 89C113.652 89.2083 113.802 89.4639 113.906 89.7666C114.01 90.0661 114.062 90.4339 114.062 90.8701V91.3682H110.283C110.283 92.0029 110.443 92.488 110.762 92.8232C111.081 93.1585 111.522 93.3262 112.085 93.3262C112.287 93.3262 112.484 93.3034 112.676 93.2578C112.871 93.2122 113.047 93.1536 113.203 93.082C113.369 93.0072 113.509 92.9355 113.623 92.8672C113.737 92.7956 113.831 92.7288 113.906 92.667H113.96V93.668C113.853 93.7103 113.719 93.764 113.56 93.8291C113.4 93.891 113.257 93.9398 113.13 93.9756C112.951 94.0244 112.788 94.0618 112.642 94.0879C112.498 94.1139 112.316 94.127 112.095 94.127ZM113.169 90.665C113.162 90.4176 113.133 90.2044 113.081 90.0254C113.029 89.8464 112.954 89.695 112.856 89.5713C112.749 89.4346 112.611 89.3304 112.441 89.2588C112.275 89.1872 112.069 89.1514 111.821 89.1514C111.577 89.1514 111.369 89.1888 111.196 89.2637C111.027 89.3353 110.872 89.4411 110.732 89.5811C110.596 89.7243 110.492 89.8838 110.42 90.0596C110.348 90.2321 110.303 90.4339 110.283 90.665H113.169Z" fill="white"/>
<rect x="0.5" y="-0.5" width="151" height="35" rx="1.5" transform="matrix(1 0 0 -1 5 107)" stroke="#0089FF"/>
<path opacity="0.8" d="M71.3077 24V26.1538H70.2308C68.4555 26.1538 67 27.6094 67 29.3846V48.7692C67 50.5445 68.4555 52 70.2308 52H91.7692C93.5445 52 95 50.5445 95 48.7692V29.3846C95 27.6094 93.5445 26.1538 91.7692 26.1538H90.6923V24H88.5385V26.1538H73.4615V24H71.3077ZM70.2308 28.3077H71.3077V30.4615H73.4615V28.3077H88.5385V30.4615H90.6923V28.3077H91.7692C92.375 28.3077 92.8462 28.7788 92.8462 29.3846V32.6154H69.1538V29.3846C69.1538 28.7788 69.625 28.3077 70.2308 28.3077ZM69.1538 34.7692H92.8462V48.7692C92.8462 49.375 92.375 49.8462 91.7692 49.8462H70.2308C69.625 49.8462 69.1538 49.375 69.1538 48.7692V34.7692ZM71.3077 36.9231V39.0769H73.4615V36.9231H71.3077ZM75.6154 36.9231V39.0769H77.7692V36.9231H75.6154ZM81 36.9231C80.4026 36.9231 79.9231 37.4026 79.9231 38V46.6154C79.9231 47.2127 80.4026 47.6923 81 47.6923H89.6154C90.2127 47.6923 90.6923 47.2127 90.6923 46.6154V38C90.6923 37.4026 90.2127 36.9231 89.6154 36.9231H81ZM82.0769 39.0769H88.5385V45.5385H82.0769V39.0769ZM71.3077 41.2308V43.3846H73.4615V41.2308H71.3077ZM75.6154 41.2308V43.3846H77.7692V41.2308H75.6154ZM71.3077 45.5385V47.6923H73.4615V45.5385H71.3077ZM75.6154 45.5385V47.6923H77.7692V45.5385H75.6154Z" fill="#303549"/>
<path opacity="0.8" d="M238.923 24V26.1558H229.231C227.456 26.1558 226 27.6126 226 29.3895V42.3242C226 44.1011 227.456 45.5579 229.231 45.5579H238.923V47.9326L230.341 49.8947L230.813 52L240 49.9032L249.188 52L249.659 49.8947L241.077 47.9326V45.5579H250.769C252.544 45.5579 254 44.1011 254 42.3242V29.3895C254 27.6126 252.544 26.1558 250.769 26.1558H241.077V24H238.923ZM229.231 28.3116H250.769C251.375 28.3116 251.846 28.7832 251.846 29.3895V42.3242C251.846 42.9305 251.375 43.4021 250.769 43.4021H229.231C228.625 43.4021 228.154 42.9305 228.154 42.3242V29.3895C228.154 28.7832 228.625 28.3116 229.231 28.3116ZM245.393 30.9558L239.95 36.1937L235.659 32.6484L230.392 37.4905L231.839 39.0737L235.726 35.5032L240.05 39.0737L245.486 33.8526L248.186 36.1432L249.583 34.4926L245.393 30.9558Z" fill="#303549"/>
</svg>
