<svg width="324" height="117" viewBox="0 0 324 117" fill="none" xmlns="http://www.w3.org/2000/svg">
<path d="M56.5 109C84.9427 109 108 85.9427 108 57.5C108 29.0573 84.9427 6 56.5 6C28.0573 6 5 29.0573 5 57.5C5 85.9427 28.0573 109 56.5 109Z" fill="#12151E" fill-opacity="0.5"/>
<path d="M107.5 57.5C107.5 85.6665 84.6665 108.5 56.5 108.5C28.3335 108.5 5.5 85.6665 5.5 57.5C5.5 29.3335 28.3335 6.5 56.5 6.5C84.6665 6.5 107.5 29.3335 107.5 57.5Z" stroke="#606580" stroke-opacity="0.25" stroke-miterlimit="10"/>
<path fill-rule="evenodd" clip-rule="evenodd" d="M17.9907 27.9186C22.6072 21.9177 28.5949 17.0265 35.485 13.7136L36.559 14.6802C42.6142 11.8452 49.3722 10.2614 56.5 10.2614C63.6279 10.2614 70.3858 11.8452 76.4411 14.6802L77.5151 13.7136C84.4052 17.0265 90.3929 21.9177 95.0094 27.9186H98.6621C93.841 21.0598 87.3888 15.4307 79.8691 11.595C79.2138 11.2608 78.5504 10.9401 77.8793 10.6335C71.3674 7.6581 64.1273 6 56.5 6C48.8727 6 41.6327 7.6581 35.1207 10.6335C34.4496 10.9401 33.7863 11.2608 33.131 11.595C25.6113 15.4307 19.1591 21.0598 14.338 27.9186H17.9907Z" fill="#606580" fill-opacity="0.25"/>
<path fill-rule="evenodd" clip-rule="evenodd" d="M95.0093 87.0814C90.3928 93.0823 84.4051 97.9735 77.515 101.286L76.441 100.32C70.3858 103.155 63.6278 104.739 56.4999 104.739C49.3721 104.739 42.6142 103.155 36.5589 100.32L35.4849 101.286C28.5948 97.9735 22.6071 93.0823 17.9906 87.0814L14.3379 87.0814C19.159 93.9402 25.6112 99.5693 33.1309 103.405C33.7862 103.739 34.4495 104.06 35.1206 104.366C41.6326 107.342 48.8727 109 56.4999 109C64.1273 109 71.3673 107.342 77.8793 104.366C78.5504 104.06 79.2137 103.739 79.869 103.405C87.3887 99.5693 93.8409 93.9402 98.662 87.0814L95.0093 87.0814Z" fill="#606580" fill-opacity="0.25"/>
<path d="M55.0792 15.6699C52.5685 15.7598 50.0709 16.0724 47.6157 16.6042" stroke="#606580" stroke-opacity="0.25"/>
<path d="M46.3093 16.9085C43.8723 17.5177 41.4944 18.3421 39.2037 19.372" stroke="#606580" stroke-opacity="0.25"/>
<path d="M37.9977 19.937C35.7405 21.0383 33.586 22.338 31.5596 23.8205" stroke="#606580" stroke-opacity="0.25"/>
<path d="M30.5051 24.6185C28.526 26.1635 26.6885 27.8813 25.0144 29.7514" stroke="#606580" stroke-opacity="0.25"/>
<path d="M24.1347 30.7665C22.5209 32.6888 21.0815 34.7506 19.8337 36.9276" stroke="#606580" stroke-opacity="0.25"/>
<path d="M19.1898 38.0923C18.0111 40.3074 17.0321 42.6228 16.2645 45.0111" stroke="#606580" stroke-opacity="0.25"/>
<path d="M15.869 46.3129C15.1787 48.7246 14.7046 51.1928 14.4524 53.6884" stroke="#606580" stroke-opacity="0.25"/>
<path d="M14.3395 55.0136C14.1661 57.5159 14.216 60.0286 14.4885 62.5221" stroke="#606580" stroke-opacity="0.25"/>
<path d="M14.6492 63.8084C14.9982 66.2923 15.5679 68.7403 16.3514 71.1235" stroke="#606580" stroke-opacity="0.25"/>
<path d="M16.7867 72.3807C17.6449 74.7381 18.7115 77.0145 19.9738 79.1832" stroke="#606580" stroke-opacity="0.25"/>
<path d="M20.6562 80.3142C21.9858 82.4424 23.5023 84.4483 25.1879 86.3082" stroke="#606580" stroke-opacity="0.25"/>
<path d="M26.1059 87.2897C27.8497 89.0952 29.751 90.7423 31.7873 92.2114" stroke="#606580" stroke-opacity="0.25"/>
<path d="M32.8792 92.9734C34.9607 94.3779 37.1633 95.5946 39.4608 96.6093" stroke="#F7931E"/>
<path d="M31.6713 94.8505C30.5711 94.3646 30.0752 93.0811 30.5609 91.985C31.0465 90.8889 32.3312 90.3918 33.4315 90.8777C34.5317 91.3637 35.0276 92.6471 34.5419 93.7432C34.0563 94.8394 32.7716 95.3364 31.6713 94.8505Z" fill="white" stroke="#F7931E" stroke-width="2"/>
<path d="M40.7157 97.1392C43.0447 98.0796 45.4529 98.8112 47.9118 99.3255" stroke="#0089FF"/>
<path d="M49.2197 99.5779C51.6935 100.015 54.2014 100.231 56.7136 100.224" stroke="#0089FF"/>
<path d="M58.0458 100.2C60.5565 100.114 63.0547 99.8057 65.5107 99.2779" stroke="#0089FF"/>
<path d="M66.7753 98.9848C69.2139 98.382 71.594 97.5638 73.8874 96.5399" stroke="#0089FF"/>
<path d="M75.0948 95.9778C77.3548 94.8824 79.5127 93.5884 81.543 92.1112" stroke="#0089FF"/>
<path d="M82.5997 91.3167C84.5828 89.7768 86.4248 88.0639 88.1038 86.1981" stroke="#0089FF"/>
<path d="M88.9867 85.1857C90.6056 83.2676 92.0503 81.2095 93.3039 79.0358" stroke="#0089FF"/>
<path d="M93.9504 77.8728C95.1349 75.6609 96.1199 73.348 96.8938 70.9618" stroke="#F7931E"/>
<path d="M97.2926 69.6607C97.9893 67.2508 98.4698 64.7838 98.7285 62.2889" stroke="#F7931E"/>
<path d="M98.8449 60.9641C99.0249 58.4623 98.9817 55.9494 98.7156 53.4553" stroke="#F7931E"/>
<path d="M98.5583 52.1684C98.2158 49.6836 97.6526 47.2341 96.8753 44.8489" stroke="#0089FF"/>
<path d="M96.4434 43.5905C95.5913 41.2309 94.5307 38.9517 93.2741 36.7797" stroke="#0089FF"/>
<path d="M92.5946 35.6467C91.2706 33.515 89.7594 31.5051 88.0787 29.6408" stroke="#F7931E"/>
<path d="M87.1633 28.6573C85.4241 26.8472 83.5271 25.1952 81.4948 23.7208" stroke="#0089FF"/>
<path d="M80.3786 22.9383C78.2998 21.53 76.0995 20.3091 73.8039 19.2901" stroke="#0089FF"/>
<path d="M72.5793 18.7696C70.2528 17.8231 67.8465 17.0852 65.389 16.5645" stroke="#0089FF"/>
<path d="M64.0818 16.3089C61.6091 15.8656 59.1017 15.6429 56.5895 15.6432" stroke="#0089FF"/>
<path d="M45.1927 22.6991C48.8445 21.5125 52.6603 20.9082 56.5001 20.9082" stroke="#F7931E" stroke-opacity="0.2"/>
<path d="M34.992 27.8968C38.0984 25.6399 41.5407 23.8859 45.1926 22.6994" stroke="#F7931E" stroke-opacity="0.2"/>
<path d="M26.8968 35.9918C29.1538 32.8853 31.8856 30.1535 34.992 27.8965" stroke="#F7931E" stroke-opacity="0.2"/>
<path d="M21.6994 46.1927C22.886 42.5408 24.6399 39.0985 26.8969 35.9921" stroke="#F7931E" stroke-opacity="0.2"/>
<path d="M19.9084 57.5C19.9084 53.6602 20.5128 49.8444 21.6993 46.1926" stroke="#F7931E" stroke-opacity="0.2"/>
<path d="M21.6994 68.8073C20.5129 65.1555 19.9085 61.3397 19.9085 57.4999" stroke="#F7931E" stroke-opacity="0.2"/>
<path d="M26.8968 79.0078C24.6399 75.9013 22.8859 72.459 21.6994 68.8072" stroke="#F7931E" stroke-opacity="0.2"/>
<path d="M34.9921 87.1032C31.8857 84.8462 29.1539 82.1144 26.8969 79.008" stroke="#F7931E" stroke-opacity="0.2"/>
<path d="M45.1927 92.3004C41.5408 91.1139 38.0985 89.3599 34.9921 87.103" stroke="#F7931E" stroke-opacity="0.2"/>
<path d="M56.5 94.0917C52.6602 94.0917 48.8444 93.4873 45.1926 92.3008" stroke="#F7931E" stroke-opacity="0.2"/>
<path d="M67.8076 92.3004C64.1557 93.487 60.3399 94.0914 56.5001 94.0914" stroke="#F7931E" stroke-linecap="round"/>
<path d="M78.0081 87.1032C75.0985 89.2172 71.8941 90.8899 68.4989 92.0684C68.4023 92.1019 68.3055 92.135 68.2085 92.1678C68.0751 92.2128 67.9414 92.2571 67.8075 92.3006" stroke="white" stroke-linecap="round"/>
<path d="M86.1033 79.0078C83.9893 81.9174 81.4587 84.4984 78.5938 86.6684C78.5123 86.7302 78.4305 86.7916 78.3484 86.8527C78.2354 86.9368 78.122 87.0202 78.0081 87.103" stroke="white" stroke-linecap="round"/>
<path d="M91.3007 68.8073C90.1893 72.2279 88.5801 75.4646 86.526 78.4136C86.4676 78.4976 86.4087 78.5813 86.3495 78.6648C86.2681 78.7796 86.186 78.894 86.1032 79.0079" stroke="white" stroke-linecap="round"/>
<path d="M93.0917 57.5C93.0917 61.0965 92.5615 64.6721 91.5192 68.1116C91.4896 68.2095 91.4595 68.3073 91.429 68.405C91.387 68.5393 91.3443 68.6735 91.3008 68.8074" stroke="white" stroke-linecap="round"/>
<path d="M91.3007 46.1927C92.4121 49.6132 93.0127 53.1776 93.0843 56.7708C93.0864 56.8731 93.088 56.9754 93.0892 57.0777C93.0908 57.2185 93.0916 57.3593 93.0916 57.5001" stroke="white" stroke-linecap="round"/>
<path d="M86.1033 35.9918C88.2173 38.9014 89.89 42.1058 91.0685 45.501C91.102 45.5976 91.1352 45.6944 91.1679 45.7914C91.213 45.9247 91.2573 46.0585 91.3008 46.1923" stroke="white" stroke-linecap="round"/>
<path d="M78.0081 27.8968C80.9178 30.0108 83.4988 32.5414 85.6688 35.4063C85.7306 35.4878 85.792 35.5697 85.8531 35.6518C85.9371 35.7647 86.0206 35.8782 86.1033 35.992" stroke="white" stroke-linecap="round"/>
<path d="M67.8075 22.6991C71.228 23.8105 74.4647 25.4197 77.4137 27.4737C77.4977 27.5322 77.5814 27.591 77.6649 27.6502C77.7797 27.7317 77.8941 27.8138 78.008 27.8965" stroke="white" stroke-linecap="round"/>
<path d="M56.5 20.9083C60.0966 20.9083 63.6721 21.4385 67.1116 22.4808C67.2095 22.5104 67.3073 22.5405 67.405 22.571C67.5393 22.613 67.6736 22.6557 67.8074 22.6992" stroke="white" stroke-linecap="round"/>
<path d="M46.0414 84.2607H43.2875V83.377H46.0414V84.2607ZM51.5004 87H47.0131V85.9795C47.3353 85.6735 47.6397 85.3805 47.9261 85.1006C48.2126 84.8206 48.4926 84.5293 48.766 84.2266C49.3194 83.6178 49.697 83.1312 49.8988 82.7666C50.1006 82.3988 50.2015 82.0195 50.2015 81.6289C50.2015 81.4271 50.169 81.2497 50.1039 81.0967C50.042 80.9437 49.9558 80.8167 49.8451 80.7158C49.7312 80.6182 49.5993 80.5449 49.4496 80.4961C49.2998 80.4473 49.1355 80.4229 48.9564 80.4229C48.7839 80.4229 48.6081 80.4456 48.4291 80.4912C48.2533 80.5335 48.084 80.5872 47.9213 80.6523C47.7845 80.7077 47.6527 80.7744 47.5258 80.8525C47.3988 80.9307 47.2963 80.9974 47.2181 81.0527H47.1644V80.0176C47.3663 79.9167 47.6462 79.819 48.0043 79.7246C48.3656 79.627 48.7074 79.5781 49.0297 79.5781C49.7067 79.5781 50.2373 79.7588 50.6215 80.1201C51.0056 80.4782 51.1976 80.9648 51.1976 81.5801C51.1976 81.8633 51.1635 82.1253 51.0951 82.3662C51.03 82.6071 50.9388 82.8301 50.8217 83.0352C50.7012 83.2467 50.5564 83.4567 50.3871 83.665C50.2178 83.8734 50.0388 84.0785 49.85 84.2803C49.544 84.6123 49.2022 84.9574 48.8246 85.3154C48.4502 85.6735 48.1508 85.9567 47.9261 86.165H51.5004V87ZM59.7133 87H56.1683V86.2578H57.4867V81.3848H56.1683V80.7207C56.6664 80.7207 57.0326 80.6507 57.267 80.5107C57.5046 80.3675 57.6381 80.099 57.6674 79.7051H58.4242V86.2578H59.7133V87ZM65.1722 87H61.6273V86.2578H62.9457V81.3848H61.6273V80.7207C62.1254 80.7207 62.4916 80.6507 62.726 80.5107C62.9636 80.3675 63.097 80.099 63.1263 79.7051H63.8832V86.2578H65.1722V87ZM71.0023 87H66.515V85.9795C66.8373 85.6735 67.1416 85.3805 67.4281 85.1006C67.7146 84.8206 67.9945 84.5293 68.2679 84.2266C68.8213 83.6178 69.1989 83.1312 69.4008 82.7666C69.6026 82.3988 69.7035 82.0195 69.7035 81.6289C69.7035 81.4271 69.6709 81.2497 69.6058 81.0967C69.544 80.9437 69.4577 80.8167 69.347 80.7158C69.2331 80.6182 69.1013 80.5449 68.9515 80.4961C68.8018 80.4473 68.6374 80.4229 68.4584 80.4229C68.2858 80.4229 68.1101 80.4456 67.931 80.4912C67.7552 80.5335 67.586 80.5872 67.4232 80.6523C67.2865 80.7077 67.1547 80.7744 67.0277 80.8525C66.9008 80.9307 66.7982 80.9974 66.7201 81.0527H66.6664V80.0176C66.8682 79.9167 67.1482 79.819 67.5062 79.7246C67.8676 79.627 68.2094 79.5781 68.5316 79.5781C69.2087 79.5781 69.7393 79.7588 70.1234 80.1201C70.5075 80.4782 70.6996 80.9648 70.6996 81.5801C70.6996 81.8633 70.6654 82.1253 70.597 82.3662C70.5319 82.6071 70.4408 82.8301 70.3236 83.0352C70.2032 83.2467 70.0583 83.4567 69.889 83.665C69.7198 83.8734 69.5407 84.0785 69.3519 84.2803C69.0459 84.6123 68.7041 84.9574 68.3265 85.3154C67.9522 85.6735 67.6527 85.9567 67.4281 86.165H71.0023V87Z" fill="#F7931E"/>
<path d="M46.921 33.1177L44.2843 39.2407C44.1736 39.4979 44.0483 39.7046 43.9083 39.8608C43.7716 40.0171 43.6284 40.1343 43.4786 40.2124C43.3289 40.2938 43.1808 40.3475 43.0343 40.3735C42.8911 40.3996 42.7462 40.4126 42.5997 40.4126C42.4695 40.4126 42.3165 40.4093 42.1407 40.4028C41.965 40.3963 41.8527 40.3914 41.8038 40.3882V39.4849H41.8722C41.921 39.4914 41.9943 39.4995 42.0919 39.5093C42.1928 39.5158 42.3198 39.519 42.4728 39.519C42.5444 39.519 42.629 39.5158 42.7267 39.5093C42.8243 39.4995 42.9139 39.4751 42.9952 39.436C43.0896 39.3905 43.1775 39.3302 43.2589 39.2554C43.3435 39.1772 43.42 39.0552 43.4884 38.8892L43.6544 38.5034L41.1007 33.1177H42.17L44.1427 37.395L45.9249 33.1177H46.921ZM49.6896 40.5103C49.3152 40.5103 48.9718 40.4533 48.6593 40.3394C48.3468 40.2222 48.0782 40.0464 47.8536 39.812C47.629 39.5776 47.4549 39.283 47.3312 38.9282C47.2075 38.5701 47.1456 38.1502 47.1456 37.6685C47.1456 37.1899 47.2091 36.7765 47.3361 36.4282C47.4663 36.0799 47.6388 35.7869 47.8536 35.5493C48.0685 35.3117 48.3354 35.1294 48.6544 35.0024C48.9767 34.8722 49.3217 34.8071 49.6896 34.8071C49.9891 34.8071 50.2771 34.8494 50.5538 34.9341C50.8338 35.0187 51.0828 35.1164 51.3009 35.2271V36.2573H51.2472C51.1821 36.202 51.0975 36.1385 50.9933 36.0669C50.8924 35.9953 50.7687 35.922 50.6222 35.8472C50.4952 35.7821 50.3455 35.7251 50.173 35.6763C50.0004 35.6274 49.8344 35.603 49.6749 35.603C49.1997 35.603 48.8172 35.7837 48.5275 36.145C48.241 36.5031 48.0978 37.0109 48.0978 37.6685C48.0978 38.313 48.2361 38.8159 48.5128 39.1772C48.7928 39.5353 49.1801 39.7144 49.6749 39.7144C49.9744 39.7144 50.2592 39.6525 50.5294 39.5288C50.7996 39.4051 51.0389 39.2456 51.2472 39.0503H51.3009V40.0806C51.2098 40.1229 51.0958 40.175 50.9591 40.2368C50.8224 40.2954 50.6987 40.3394 50.588 40.3687C50.4318 40.4142 50.2918 40.4484 50.1681 40.4712C50.0444 40.4972 49.8849 40.5103 49.6896 40.5103ZM56.1251 35.7397H54.2697V40.3882H53.3517V35.7397H51.4962V34.9341H56.1251V35.7397ZM58.2394 40.3882H57.0724V38.9966H58.2394V40.3882ZM64.7921 33.811C64.6163 33.811 64.4406 33.8322 64.2648 33.8745C64.089 33.9168 63.9165 33.9722 63.7472 34.0405C63.5909 34.1056 63.4542 34.174 63.337 34.2456C63.2231 34.3172 63.1206 34.384 63.0294 34.4458H62.9708V33.4155C63.1824 33.3016 63.4689 33.1991 63.8302 33.1079C64.1948 33.0135 64.5415 32.9663 64.8702 32.9663C65.199 32.9663 65.4855 33.0005 65.7296 33.0688C65.977 33.134 66.2 33.2365 66.3986 33.3765C66.6134 33.5327 66.7745 33.7215 66.882 33.9429C66.9926 34.1642 67.048 34.423 67.048 34.7192C67.048 35.1196 66.9161 35.4712 66.6525 35.7739C66.3888 36.0767 66.073 36.2687 65.7052 36.3501V36.4185C65.8582 36.4478 66.021 36.4982 66.1935 36.5698C66.3693 36.6414 66.532 36.7472 66.6818 36.8872C66.8315 37.0272 66.9536 37.2078 67.048 37.4292C67.1424 37.6473 67.1896 37.9142 67.1896 38.23C67.1896 38.5588 67.1326 38.8615 67.0187 39.1382C66.908 39.4116 66.7501 39.6541 66.545 39.8657C66.3335 40.0871 66.0779 40.2547 65.7784 40.3687C65.479 40.4826 65.1388 40.5396 64.7579 40.5396C64.3934 40.5396 64.032 40.4956 63.674 40.4077C63.3159 40.3198 63.0148 40.214 62.7706 40.0903V39.0601H62.839C63.0441 39.2098 63.3191 39.353 63.6642 39.4897C64.0092 39.6265 64.3543 39.6948 64.6993 39.6948C64.8979 39.6948 65.0965 39.6639 65.295 39.6021C65.4969 39.5369 65.6645 39.4328 65.798 39.2896C65.9282 39.1463 66.0275 38.9884 66.0958 38.8159C66.1642 38.6434 66.1984 38.4253 66.1984 38.1616C66.1984 37.8979 66.1593 37.6815 66.0812 37.5122C66.0063 37.3429 65.9005 37.2095 65.7638 37.1118C65.6271 37.0142 65.4643 36.9474 65.2755 36.9116C65.09 36.8726 64.8881 36.853 64.67 36.853H64.255V36.0425H64.5773C65.0167 36.0425 65.3732 35.9383 65.6466 35.73C65.9233 35.5216 66.0616 35.2189 66.0616 34.8218C66.0616 34.6395 66.0258 34.4832 65.9542 34.353C65.8826 34.2196 65.7915 34.1138 65.6808 34.0356C65.5571 33.951 65.4204 33.8924 65.2706 33.8599C65.1209 33.8273 64.9614 33.811 64.7921 33.811ZM72.8878 38.0298C72.8878 38.4041 72.826 38.7492 72.7023 39.0649C72.5786 39.3807 72.4126 39.6444 72.2042 39.856C71.9861 40.0806 71.742 40.2515 71.4718 40.3687C71.2016 40.4826 70.9038 40.5396 70.5782 40.5396C70.2495 40.5396 69.95 40.4842 69.6798 40.3735C69.4129 40.2629 69.1769 40.0985 68.9718 39.8804C68.7212 39.6167 68.5242 39.2651 68.381 38.8257C68.241 38.383 68.171 37.8394 68.171 37.1948C68.171 36.5633 68.2361 35.9937 68.3663 35.4858C68.4965 34.9748 68.6967 34.5304 68.9669 34.1528C69.2306 33.785 69.5708 33.4985 69.9874 33.2935C70.4041 33.0851 70.8859 32.981 71.4327 32.981C71.5955 32.981 71.7469 32.9891 71.8868 33.0054C72.0268 33.0216 72.1505 33.0477 72.2579 33.0835V34.0161H72.214C72.1261 33.9673 71.9991 33.9233 71.8331 33.8843C71.6671 33.842 71.4897 33.8208 71.3009 33.8208C70.6954 33.8208 70.2055 34.0259 69.8312 34.436C69.4601 34.8429 69.2404 35.4484 69.172 36.2524C69.4031 36.0897 69.6407 35.9644 69.8849 35.8765C70.129 35.7886 70.396 35.7446 70.6857 35.7446C70.9689 35.7446 71.2163 35.7739 71.4279 35.8325C71.6427 35.8879 71.8657 36.0018 72.0968 36.1743C72.3637 36.3761 72.5623 36.6317 72.6925 36.9409C72.8227 37.2502 72.8878 37.6131 72.8878 38.0298ZM71.8966 38.0688C71.8966 37.7694 71.8575 37.5187 71.7794 37.3169C71.7013 37.1151 71.5743 36.9425 71.3986 36.7993C71.2716 36.6951 71.1267 36.6268 70.964 36.5942C70.8045 36.5617 70.6401 36.5454 70.4708 36.5454C70.243 36.5454 70.0216 36.5796 69.8068 36.6479C69.5919 36.7163 69.3803 36.8156 69.172 36.9458C69.1655 37.0174 69.1606 37.0874 69.1573 37.1558C69.1541 37.2209 69.1525 37.3039 69.1525 37.4048C69.1525 37.9093 69.2013 38.3162 69.299 38.6255C69.3999 38.9347 69.5236 39.1691 69.67 39.3286C69.81 39.4816 69.9532 39.589 70.0997 39.6509C70.2495 39.7127 70.4106 39.7437 70.5831 39.7437C70.9738 39.7437 71.2895 39.6037 71.5304 39.3237C71.7745 39.0438 71.8966 38.6255 71.8966 38.0688Z" fill="#D7E2F2"/>
<path d="M41.5568 57.6108C41.5568 58.0327 41.4884 58.4233 41.3517 58.7827C41.2189 59.1421 41.0314 59.4526 40.7892 59.7144C40.5431 59.98 40.2365 60.189 39.8693 60.3413C39.506 60.4937 39.0978 60.5698 38.6447 60.5698C38.2267 60.5698 37.8146 60.5229 37.4083 60.4292C37.006 60.3394 36.6564 60.2202 36.3595 60.0718V58.8354H36.4415C36.5314 58.9019 36.6603 58.978 36.8282 59.064C36.9962 59.146 37.1818 59.2241 37.3849 59.2983C37.6154 59.3804 37.8263 59.4448 38.0177 59.4917C38.2091 59.5347 38.424 59.5562 38.6622 59.5562C38.8966 59.5562 39.1251 59.5151 39.3478 59.4331C39.5704 59.3472 39.7618 59.2104 39.922 59.0229C40.0665 58.8511 40.1759 58.6499 40.2501 58.4194C40.3282 58.189 40.3673 57.9175 40.3673 57.605C40.3673 57.2964 40.3243 57.0425 40.2384 56.8433C40.1564 56.644 40.0353 56.48 39.8751 56.3511C39.7072 56.2026 39.5001 56.0991 39.254 56.0405C39.0118 55.978 38.7404 55.9468 38.4396 55.9468C38.1232 55.9468 37.8048 55.9722 37.4845 56.0229C37.1642 56.0698 36.9083 56.1147 36.7169 56.1577V51.6636H41.504V52.689H37.8478V55.0093C37.9884 54.9937 38.1271 54.9819 38.2638 54.9741C38.4005 54.9663 38.5255 54.9624 38.6388 54.9624C39.0841 54.9624 39.4611 54.9995 39.7697 55.0737C40.0782 55.1479 40.3751 55.2925 40.6603 55.5073C40.9493 55.7261 41.17 55.9995 41.3224 56.3276C41.4786 56.6558 41.5568 57.0835 41.5568 57.6108ZM48.4357 57.3882H47.3986V60.3882H46.2736V57.3882H42.4181V56.1577L46.3204 51.6636H47.3986V56.4507H48.4357V57.3882ZM46.2736 56.4507V53.0405L43.3322 56.4507H46.2736ZM53.4865 53.6968C53.4865 53.3062 53.3556 52.98 53.0939 52.7183C52.8322 52.4565 52.4689 52.3257 52.004 52.3257C51.5782 52.3257 51.2286 52.4429 50.9552 52.6772C50.6857 52.9116 50.5509 53.228 50.5509 53.6265C50.5509 53.9155 50.6193 54.1597 50.756 54.3589C50.8966 54.5581 51.1056 54.7378 51.3829 54.8979C51.504 54.9644 51.6876 55.0562 51.9337 55.1733C52.1837 55.2905 52.4103 55.3823 52.6134 55.4487C52.9532 55.187 53.1837 54.9194 53.3048 54.646C53.4259 54.3687 53.4865 54.0522 53.4865 53.6968ZM53.6505 58.0679C53.6505 57.7085 53.5802 57.4233 53.4396 57.2124C53.299 57.0015 53.0275 56.7866 52.6251 56.5679C52.4923 56.4937 52.3146 56.4136 52.0919 56.3276C51.8732 56.2417 51.6251 56.1401 51.3478 56.0229C51.0236 56.2378 50.7755 56.5034 50.6036 56.8198C50.4318 57.1323 50.3458 57.4897 50.3458 57.8921C50.3458 58.4194 50.504 58.855 50.8204 59.1987C51.1407 59.5425 51.5411 59.7144 52.0216 59.7144C52.5138 59.7144 52.9083 59.5679 53.2052 59.2749C53.5021 58.978 53.6505 58.5757 53.6505 58.0679ZM52.0099 60.5874C51.5763 60.5874 51.1818 60.5229 50.8263 60.394C50.4708 60.2651 50.1681 60.0796 49.9181 59.8374C49.672 59.603 49.4845 59.3257 49.3556 59.0054C49.2306 58.6812 49.1681 58.3394 49.1681 57.98C49.1681 57.5073 49.2931 57.0737 49.5431 56.6792C49.797 56.2808 50.1642 55.9644 50.6447 55.73V55.6948C50.215 55.4448 49.8966 55.1714 49.6896 54.8745C49.4825 54.5776 49.379 54.2065 49.379 53.7612C49.379 53.105 49.6271 52.5581 50.1232 52.1206C50.6193 51.6831 51.2482 51.4644 52.0099 51.4644C52.8029 51.4644 53.4376 51.6733 53.9142 52.0913C54.3947 52.5054 54.6349 53.0366 54.6349 53.6851C54.6349 54.0757 54.5197 54.4624 54.2892 54.8452C54.0626 55.228 53.7345 55.5269 53.3048 55.7417V55.7769C53.8126 56.0151 54.1974 56.3042 54.4591 56.644C54.7208 56.9839 54.8517 57.4214 54.8517 57.9565C54.8517 58.7026 54.5802 59.3276 54.0372 59.8315C53.4982 60.3354 52.8224 60.5874 52.0099 60.5874ZM63.9103 55.2495C63.9103 54.6558 63.8556 54.1733 63.7462 53.8022C63.6368 53.4272 63.4865 53.1382 63.295 52.9351C63.1232 52.7476 62.9493 52.6187 62.7736 52.5483C62.5978 52.478 62.4044 52.4429 62.1935 52.4429C61.713 52.4429 61.3302 52.6147 61.045 52.9585C60.7599 53.3022 60.6173 53.8003 60.6173 54.4526C60.6173 54.8198 60.6642 55.1226 60.7579 55.3608C60.8517 55.5991 61.004 55.8042 61.215 55.9761C61.3634 56.0972 61.5314 56.1792 61.7189 56.2222C61.9064 56.2612 62.1075 56.2808 62.3224 56.2808C62.5724 56.2808 62.8419 56.2378 63.131 56.1519C63.42 56.062 63.672 55.9448 63.8868 55.8003C63.8907 55.7417 63.8947 55.6655 63.8986 55.5718C63.9064 55.4741 63.9103 55.3667 63.9103 55.2495ZM59.4279 54.4995C59.4279 54.0503 59.5001 53.6401 59.6447 53.269C59.7931 52.8979 59.9943 52.5776 60.2482 52.3081C60.4904 52.0503 60.7853 51.8491 61.1329 51.7046C61.4845 51.5601 61.84 51.4878 62.1993 51.4878C62.6017 51.4878 62.965 51.5562 63.2892 51.6929C63.6173 51.8257 63.9005 52.019 64.1388 52.2729C64.4396 52.5933 64.672 53.0132 64.8361 53.5327C65.004 54.0522 65.088 54.7085 65.088 55.5015C65.088 56.2241 65.006 56.9097 64.8419 57.5581C64.6818 58.2026 64.4435 58.7378 64.1271 59.1636C63.7911 59.6167 63.3868 59.9624 62.9142 60.2007C62.4454 60.439 61.8654 60.5581 61.174 60.5581C61.0177 60.5581 60.8517 60.5483 60.6759 60.5288C60.5001 60.5132 60.3361 60.4819 60.1837 60.4351V59.3159H60.2423C60.34 59.3706 60.4923 59.4233 60.6993 59.4741C60.9064 59.5249 61.1173 59.5503 61.3322 59.5503C62.0978 59.5503 62.6993 59.2983 63.1368 58.7944C63.5743 58.2905 63.8224 57.5698 63.881 56.6323C63.5685 56.8433 63.2697 56.9976 62.9845 57.0952C62.7032 57.1929 62.3966 57.2417 62.0646 57.2417C61.7404 57.2417 61.4454 57.2065 61.1798 57.1362C60.9142 57.0659 60.6466 56.9292 60.3771 56.7261C60.0646 56.4878 59.8282 56.187 59.6681 55.8237C59.5079 55.4565 59.4279 55.0151 59.4279 54.4995ZM71.7443 57.5581C71.7443 58.0073 71.67 58.4214 71.5216 58.8003C71.3732 59.1792 71.174 59.4956 70.924 59.7495C70.6622 60.019 70.3693 60.2241 70.045 60.3647C69.7208 60.5015 69.3634 60.5698 68.9728 60.5698C68.5782 60.5698 68.2189 60.5034 67.8947 60.3706C67.5743 60.2378 67.2911 60.0405 67.045 59.7788C66.7443 59.4624 66.5079 59.0405 66.3361 58.5132C66.1681 57.9819 66.0841 57.3296 66.0841 56.5562C66.0841 55.7983 66.1622 55.1147 66.3185 54.5054C66.4747 53.8921 66.715 53.3589 67.0392 52.9058C67.3556 52.4644 67.7638 52.1206 68.2638 51.8745C68.7638 51.6245 69.3419 51.4995 69.9982 51.4995C70.1935 51.4995 70.3751 51.5093 70.5431 51.5288C70.7111 51.5483 70.8595 51.5796 70.9884 51.6226V52.7417H70.9357C70.8302 52.6831 70.6779 52.6304 70.4786 52.5835C70.2794 52.5327 70.0665 52.5073 69.84 52.5073C69.1134 52.5073 68.5255 52.7534 68.0763 53.2456C67.631 53.7339 67.3673 54.4604 67.2853 55.4253C67.5626 55.23 67.8478 55.0796 68.1407 54.9741C68.4337 54.8687 68.754 54.8159 69.1017 54.8159C69.4415 54.8159 69.7384 54.8511 69.9923 54.9214C70.2501 54.9878 70.5177 55.1245 70.795 55.3315C71.1154 55.5737 71.3536 55.8804 71.5099 56.2515C71.6661 56.6226 71.7443 57.0581 71.7443 57.5581ZM70.5548 57.605C70.5548 57.2456 70.5079 56.9448 70.4142 56.7026C70.3204 56.4604 70.1681 56.2534 69.9572 56.0815C69.8048 55.9565 69.631 55.8745 69.4357 55.8354C69.2443 55.7964 69.047 55.7769 68.8439 55.7769C68.5704 55.7769 68.3048 55.8179 68.047 55.8999C67.7892 55.9819 67.5353 56.1011 67.2853 56.2573C67.2775 56.3433 67.2716 56.4272 67.2677 56.5093C67.2638 56.5874 67.2618 56.687 67.2618 56.8081C67.2618 57.4136 67.3204 57.9019 67.4376 58.2729C67.5587 58.644 67.7072 58.9253 67.8829 59.1167C68.0509 59.3003 68.2228 59.4292 68.3986 59.5034C68.5782 59.5776 68.7716 59.6147 68.9786 59.6147C69.4474 59.6147 69.8263 59.4468 70.1154 59.1108C70.4083 58.7749 70.5548 58.2729 70.5548 57.605ZM78.0607 57.6108C78.0607 58.0327 77.9923 58.4233 77.8556 58.7827C77.7228 59.1421 77.5353 59.4526 77.2931 59.7144C77.047 59.98 76.7404 60.189 76.3732 60.3413C76.0099 60.4937 75.6017 60.5698 75.1486 60.5698C74.7306 60.5698 74.3185 60.5229 73.9122 60.4292C73.5099 60.3394 73.1603 60.2202 72.8634 60.0718V58.8354H72.9454C73.0353 58.9019 73.1642 58.978 73.3322 59.064C73.5001 59.146 73.6857 59.2241 73.8888 59.2983C74.1193 59.3804 74.3302 59.4448 74.5216 59.4917C74.713 59.5347 74.9279 59.5562 75.1661 59.5562C75.4005 59.5562 75.629 59.5151 75.8517 59.4331C76.0743 59.3472 76.2657 59.2104 76.4259 59.0229C76.5704 58.8511 76.6798 58.6499 76.754 58.4194C76.8322 58.189 76.8712 57.9175 76.8712 57.605C76.8712 57.2964 76.8282 57.0425 76.7423 56.8433C76.6603 56.644 76.5392 56.48 76.379 56.3511C76.2111 56.2026 76.004 56.0991 75.7579 56.0405C75.5157 55.978 75.2443 55.9468 74.9435 55.9468C74.6271 55.9468 74.3087 55.9722 73.9884 56.0229C73.6681 56.0698 73.4122 56.1147 73.2208 56.1577V51.6636H78.0079V52.689H74.3517V55.0093C74.4923 54.9937 74.631 54.9819 74.7677 54.9741C74.9044 54.9663 75.0294 54.9624 75.1427 54.9624C75.588 54.9624 75.965 54.9995 76.2736 55.0737C76.5822 55.1479 76.879 55.2925 77.1642 55.5073C77.4532 55.7261 77.674 55.9995 77.8263 56.3276C77.9825 56.6558 78.0607 57.0835 78.0607 57.6108Z" fill="#D7E2F2"/>
<path d="M43.2833 71.106C43.2833 70.6112 43.2378 70.2091 43.1466 69.8999C43.0555 69.5874 42.9301 69.3465 42.7706 69.1772C42.6274 69.021 42.4825 68.9136 42.3361 68.855C42.1896 68.7964 42.0284 68.7671 41.8527 68.7671C41.4523 68.7671 41.1333 68.9103 40.8956 69.1968C40.658 69.4832 40.5392 69.8983 40.5392 70.4419C40.5392 70.7479 40.5782 71.0002 40.6564 71.1987C40.7345 71.3973 40.8615 71.5682 41.0372 71.7114C41.1609 71.8123 41.3009 71.8807 41.4572 71.9165C41.6134 71.9491 41.781 71.9653 41.9601 71.9653C42.1684 71.9653 42.393 71.9295 42.6339 71.8579C42.8748 71.783 43.0848 71.6854 43.2638 71.5649C43.267 71.5161 43.2703 71.4526 43.2736 71.3745C43.2801 71.2931 43.2833 71.2036 43.2833 71.106ZM39.548 70.481C39.548 70.1066 39.6082 69.7648 39.7286 69.4556C39.8523 69.1463 40.02 68.8794 40.2316 68.6548C40.4334 68.4399 40.6792 68.2723 40.9689 68.1519C41.2618 68.0314 41.5581 67.9712 41.8575 67.9712C42.1928 67.9712 42.4956 68.0282 42.7657 68.1421C43.0392 68.2528 43.2752 68.4139 43.4738 68.6255C43.7244 68.8924 43.9181 69.2424 44.0548 69.6753C44.1948 70.1082 44.2648 70.6551 44.2648 71.3159C44.2648 71.9181 44.1964 72.4894 44.0597 73.0298C43.9262 73.5669 43.7277 74.0129 43.464 74.3677C43.184 74.7453 42.8471 75.0334 42.4532 75.2319C42.0626 75.4305 41.5792 75.5298 41.0031 75.5298C40.8728 75.5298 40.7345 75.5216 40.588 75.5054C40.4415 75.4924 40.3048 75.4663 40.1779 75.4272V74.4946H40.2267C40.3081 74.5402 40.435 74.5841 40.6075 74.6265C40.7801 74.6688 40.9559 74.6899 41.1349 74.6899C41.7729 74.6899 42.2742 74.48 42.6388 74.0601C43.0034 73.6401 43.2101 73.0396 43.2589 72.2583C42.9985 72.4341 42.7495 72.5627 42.5118 72.644C42.2775 72.7254 42.0219 72.7661 41.7452 72.7661C41.4751 72.7661 41.2293 72.7368 41.0079 72.6782C40.7866 72.6196 40.5636 72.5057 40.339 72.3364C40.0786 72.1379 39.8816 71.8872 39.7482 71.5845C39.6147 71.2785 39.548 70.9106 39.548 70.481ZM48.6398 69.812C48.6398 69.4865 48.5307 69.2147 48.3126 68.9966C48.0945 68.7785 47.7918 68.6694 47.4044 68.6694C47.0496 68.6694 46.7583 68.7671 46.5304 68.9624C46.3058 69.1577 46.1935 69.4214 46.1935 69.7534C46.1935 69.9943 46.2504 70.1978 46.3644 70.3638C46.4816 70.5298 46.6557 70.6795 46.8868 70.813C46.9878 70.8683 47.1407 70.9448 47.3458 71.0425C47.5542 71.1401 47.743 71.2166 47.9122 71.272C48.1954 71.0539 48.3875 70.8309 48.4884 70.603C48.5893 70.3719 48.6398 70.1082 48.6398 69.812ZM48.7765 73.4546C48.7765 73.1551 48.7179 72.9175 48.6007 72.7417C48.4835 72.5659 48.2573 72.3869 47.922 72.2046C47.8113 72.1427 47.6632 72.076 47.4777 72.0044C47.2954 71.9328 47.0887 71.8481 46.8575 71.7505C46.5874 71.9295 46.3807 72.1509 46.2374 72.4146C46.0942 72.675 46.0226 72.9728 46.0226 73.3081C46.0226 73.7476 46.1544 74.1105 46.4181 74.397C46.685 74.6834 47.0187 74.8267 47.4191 74.8267C47.8292 74.8267 48.158 74.7046 48.4054 74.4604C48.6528 74.2131 48.7765 73.8778 48.7765 73.4546ZM47.4093 75.5542C47.048 75.5542 46.7192 75.5005 46.423 75.3931C46.1267 75.2856 45.8745 75.131 45.6661 74.9292C45.4611 74.7339 45.3048 74.5028 45.1974 74.2358C45.0932 73.9657 45.0411 73.6808 45.0411 73.3813C45.0411 72.9875 45.1453 72.6261 45.3536 72.2974C45.5652 71.9653 45.8712 71.7017 46.2716 71.5063V71.4771C45.9135 71.2687 45.6482 71.0409 45.4757 70.7935C45.3032 70.5461 45.2169 70.2368 45.2169 69.8657C45.2169 69.3188 45.4236 68.8631 45.837 68.4985C46.2504 68.134 46.7745 67.9517 47.4093 67.9517C48.0701 67.9517 48.5991 68.1258 48.9962 68.4741C49.3966 68.8192 49.5968 69.2619 49.5968 69.8022C49.5968 70.1278 49.5008 70.45 49.3087 70.769C49.1199 71.0881 48.8465 71.3371 48.4884 71.5161V71.5454C48.9116 71.744 49.2322 71.9849 49.4503 72.2681C49.6684 72.5513 49.7775 72.9159 49.7775 73.3618C49.7775 73.9836 49.5512 74.5044 49.0988 74.9243C48.6495 75.3442 48.0864 75.5542 47.4093 75.5542ZM55.2706 73.0298C55.2706 73.4041 55.2088 73.7492 55.0851 74.0649C54.9614 74.3807 54.7954 74.6444 54.587 74.856C54.3689 75.0806 54.1248 75.2515 53.8546 75.3687C53.5844 75.4826 53.2866 75.5396 52.9611 75.5396C52.6323 75.5396 52.3328 75.4842 52.0626 75.3735C51.7957 75.2629 51.5597 75.0985 51.3546 74.8804C51.104 74.6167 50.907 74.2651 50.7638 73.8257C50.6238 73.383 50.5538 72.8394 50.5538 72.1948C50.5538 71.5633 50.6189 70.9937 50.7491 70.4858C50.8794 69.9748 51.0795 69.5304 51.3497 69.1528C51.6134 68.785 51.9536 68.4985 52.3702 68.2935C52.7869 68.0851 53.2687 67.981 53.8156 67.981C53.9783 67.981 54.1297 67.9891 54.2697 68.0054C54.4096 68.0216 54.5333 68.0477 54.6407 68.0835V69.0161H54.5968C54.5089 68.9673 54.382 68.9233 54.2159 68.8843C54.0499 68.842 53.8725 68.8208 53.6837 68.8208C53.0782 68.8208 52.5883 69.0259 52.214 69.436C51.8429 69.8429 51.6232 70.4484 51.5548 71.2524C51.7859 71.0897 52.0236 70.9644 52.2677 70.8765C52.5118 70.7886 52.7788 70.7446 53.0685 70.7446C53.3517 70.7446 53.5991 70.7739 53.8107 70.8325C54.0255 70.8879 54.2485 71.0018 54.4796 71.1743C54.7465 71.3761 54.9451 71.6317 55.0753 71.9409C55.2055 72.2502 55.2706 72.6131 55.2706 73.0298ZM54.2794 73.0688C54.2794 72.7694 54.2404 72.5187 54.1622 72.3169C54.0841 72.1151 53.9572 71.9425 53.7814 71.7993C53.6544 71.6951 53.5096 71.6268 53.3468 71.5942C53.1873 71.5617 53.0229 71.5454 52.8536 71.5454C52.6258 71.5454 52.4044 71.5796 52.1896 71.6479C51.9747 71.7163 51.7631 71.8156 51.5548 71.9458C51.5483 72.0174 51.5434 72.0874 51.5402 72.1558C51.5369 72.2209 51.5353 72.3039 51.5353 72.4048C51.5353 72.9093 51.5841 73.3162 51.6818 73.6255C51.7827 73.9347 51.9064 74.1691 52.0529 74.3286C52.1928 74.4816 52.3361 74.589 52.4825 74.6509C52.6323 74.7127 52.7934 74.7437 52.9659 74.7437C53.3566 74.7437 53.6723 74.6037 53.9132 74.3237C54.1573 74.0438 54.2794 73.6255 54.2794 73.0688ZM62.7853 71.106C62.7853 70.6112 62.7397 70.2091 62.6486 69.8999C62.5574 69.5874 62.4321 69.3465 62.2726 69.1772C62.1294 69.021 61.9845 68.9136 61.838 68.855C61.6915 68.7964 61.5304 68.7671 61.3546 68.7671C60.9542 68.7671 60.6352 68.9103 60.3976 69.1968C60.16 69.4832 60.0411 69.8983 60.0411 70.4419C60.0411 70.7479 60.0802 71.0002 60.1583 71.1987C60.2365 71.3973 60.3634 71.5682 60.5392 71.7114C60.6629 71.8123 60.8029 71.8807 60.9591 71.9165C61.1154 71.9491 61.283 71.9653 61.462 71.9653C61.6704 71.9653 61.895 71.9295 62.1359 71.8579C62.3767 71.783 62.5867 71.6854 62.7657 71.5649C62.769 71.5161 62.7723 71.4526 62.7755 71.3745C62.782 71.2931 62.7853 71.2036 62.7853 71.106ZM59.0499 70.481C59.0499 70.1066 59.1101 69.7648 59.2306 69.4556C59.3543 69.1463 59.5219 68.8794 59.7335 68.6548C59.9353 68.4399 60.1811 68.2723 60.4708 68.1519C60.7638 68.0314 61.06 67.9712 61.3595 67.9712C61.6948 67.9712 61.9975 68.0282 62.2677 68.1421C62.5411 68.2528 62.7771 68.4139 62.9757 68.6255C63.2264 68.8924 63.42 69.2424 63.5568 69.6753C63.6967 70.1082 63.7667 70.6551 63.7667 71.3159C63.7667 71.9181 63.6984 72.4894 63.5616 73.0298C63.4282 73.5669 63.2296 74.0129 62.9659 74.3677C62.686 74.7453 62.3491 75.0334 61.9552 75.2319C61.5646 75.4305 61.0812 75.5298 60.505 75.5298C60.3748 75.5298 60.2365 75.5216 60.09 75.5054C59.9435 75.4924 59.8068 75.4663 59.6798 75.4272V74.4946H59.7286C59.81 74.5402 59.937 74.5841 60.1095 74.6265C60.282 74.6688 60.4578 74.6899 60.6368 74.6899C61.2749 74.6899 61.7762 74.48 62.1407 74.0601C62.5053 73.6401 62.712 73.0396 62.7609 72.2583C62.5004 72.4341 62.2514 72.5627 62.0138 72.644C61.7794 72.7254 61.5239 72.7661 61.2472 72.7661C60.977 72.7661 60.7312 72.7368 60.5099 72.6782C60.2885 72.6196 60.0656 72.5057 59.8409 72.3364C59.5805 72.1379 59.3836 71.8872 59.2501 71.5845C59.1167 71.2785 59.0499 70.9106 59.0499 70.481ZM69.3136 73.0298C69.3136 73.4041 69.2517 73.7492 69.1281 74.0649C69.0044 74.3807 68.8383 74.6444 68.63 74.856C68.4119 75.0806 68.1678 75.2515 67.8976 75.3687C67.6274 75.4826 67.3295 75.5396 67.004 75.5396C66.6753 75.5396 66.3758 75.4842 66.1056 75.3735C65.8387 75.2629 65.6027 75.0985 65.3976 74.8804C65.1469 74.6167 64.95 74.2651 64.8068 73.8257C64.6668 73.383 64.5968 72.8394 64.5968 72.1948C64.5968 71.5633 64.6619 70.9937 64.7921 70.4858C64.9223 69.9748 65.1225 69.5304 65.3927 69.1528C65.6564 68.785 65.9965 68.4985 66.4132 68.2935C66.8299 68.0851 67.3116 67.981 67.8585 67.981C68.0213 67.981 68.1726 67.9891 68.3126 68.0054C68.4526 68.0216 68.5763 68.0477 68.6837 68.0835V69.0161H68.6398C68.5519 68.9673 68.4249 68.9233 68.2589 68.8843C68.0929 68.842 67.9155 68.8208 67.7267 68.8208C67.1212 68.8208 66.6313 69.0259 66.257 69.436C65.8859 69.8429 65.6661 70.4484 65.5978 71.2524C65.8289 71.0897 66.0665 70.9644 66.3107 70.8765C66.5548 70.7886 66.8217 70.7446 67.1115 70.7446C67.3947 70.7446 67.642 70.7739 67.8536 70.8325C68.0685 70.8879 68.2915 71.0018 68.5226 71.1743C68.7895 71.3761 68.9881 71.6317 69.1183 71.9409C69.2485 72.2502 69.3136 72.6131 69.3136 73.0298ZM68.3224 73.0688C68.3224 72.7694 68.2833 72.5187 68.2052 72.3169C68.1271 72.1151 68.0001 71.9425 67.8243 71.7993C67.6974 71.6951 67.5525 71.6268 67.3898 71.5942C67.2303 71.5617 67.0659 71.5454 66.8966 71.5454C66.6687 71.5454 66.4474 71.5796 66.2325 71.6479C66.0177 71.7163 65.8061 71.8156 65.5978 71.9458C65.5913 72.0174 65.5864 72.0874 65.5831 72.1558C65.5799 72.2209 65.5782 72.3039 65.5782 72.4048C65.5782 72.9093 65.6271 73.3162 65.7247 73.6255C65.8256 73.9347 65.9493 74.1691 66.0958 74.3286C66.2358 74.4816 66.379 74.589 66.5255 74.6509C66.6753 74.7127 66.8364 74.7437 67.0089 74.7437C67.3995 74.7437 67.7153 74.6037 67.9562 74.3237C68.2003 74.0438 68.3224 73.6255 68.3224 73.0688ZM74.5773 73.0737C74.5773 73.4253 74.5203 73.7508 74.4064 74.0503C74.2957 74.3498 74.1394 74.6086 73.9376 74.8267C73.7325 75.048 73.477 75.2222 73.171 75.3491C72.8683 75.4761 72.5281 75.5396 72.1505 75.5396C71.8022 75.5396 71.4588 75.5005 71.1202 75.4224C70.785 75.3475 70.4936 75.2482 70.2462 75.1245V74.0942H70.3146C70.3894 74.1496 70.4969 74.2131 70.6368 74.2847C70.7768 74.353 70.9314 74.4181 71.1007 74.48C71.2928 74.5483 71.4685 74.6021 71.6281 74.6411C71.7876 74.6769 71.9666 74.6948 72.1652 74.6948C72.3605 74.6948 72.5509 74.6606 72.7365 74.5923C72.922 74.5207 73.0815 74.4067 73.215 74.2505C73.3354 74.1073 73.4266 73.9396 73.4884 73.7476C73.5535 73.5555 73.5861 73.3293 73.5861 73.0688C73.5861 72.8117 73.5503 72.6001 73.4786 72.4341C73.4103 72.2681 73.3094 72.1313 73.1759 72.0239C73.0359 71.9002 72.8634 71.814 72.6583 71.7651C72.4565 71.7131 72.2303 71.687 71.9796 71.687C71.7159 71.687 71.4506 71.7082 71.1837 71.7505C70.9168 71.7896 70.7036 71.827 70.5441 71.8628V68.1177H74.5333V68.9722H71.4865V70.9058C71.6036 70.8927 71.7192 70.883 71.8331 70.8765C71.9471 70.87 72.0512 70.8667 72.1456 70.8667C72.5167 70.8667 72.8309 70.8976 73.088 70.9595C73.3452 71.0213 73.5926 71.1418 73.8302 71.3208C74.0711 71.5031 74.255 71.731 74.382 72.0044C74.5122 72.2778 74.5773 72.6343 74.5773 73.0737Z" fill="#0089FF"/>
<mask id="path-60-inside-1" fill="white">
<path fill-rule="evenodd" clip-rule="evenodd" d="M213.521 74C208.585 78.3565 202.101 81 195 81C179.536 81 167 68.464 167 53C167 37.536 179.536 25 195 25C203.131 25 210.452 28.4655 215.567 34H317C318.105 34 319 34.8954 319 36V72C319 73.1046 318.105 74 317 74H213.521Z"/>
</mask>
<path fill-rule="evenodd" clip-rule="evenodd" d="M213.521 74C208.585 78.3565 202.101 81 195 81C179.536 81 167 68.464 167 53C167 37.536 179.536 25 195 25C203.131 25 210.452 28.4655 215.567 34H317C318.105 34 319 34.8954 319 36V72C319 73.1046 318.105 74 317 74H213.521Z" fill="#12151E" fill-opacity="0.5"/>
<path d="M213.521 74V73H213.143L212.859 73.2503L213.521 74ZM215.567 34L214.833 34.6787L215.13 35H215.567V34ZM212.859 73.2503C208.099 77.4517 201.848 80 195 80V82C202.354 82 209.071 79.2613 214.183 74.7497L212.859 73.2503ZM195 80C180.088 80 168 67.9117 168 53H166C166 69.0163 178.984 82 195 82V80ZM168 53C168 38.0883 180.088 26 195 26V24C178.984 24 166 36.9837 166 53H168ZM195 26C202.84 26 209.899 29.3405 214.833 34.6787L216.302 33.3213C211.005 27.5906 203.421 24 195 24V26ZM215.567 35H317V33H215.567V35ZM317 35C317.552 35 318 35.4477 318 36H320C320 34.3431 318.657 33 317 33V35ZM318 36V72H320V36H318ZM318 72C318 72.5523 317.552 73 317 73V75C318.657 75 320 73.6569 320 72H318ZM317 73H213.521V75H317V73Z" fill="#606580" fill-opacity="0.25" mask="url(#path-60-inside-1)"/>
<path d="M205.335 21.1938C208.672 22.2782 211.818 23.8813 214.657 25.944" stroke="#606580" stroke-opacity="0.25" stroke-width="8"/>
<path d="M195 19.5565C198.509 19.5565 201.997 20.1089 205.335 21.1934" stroke="#606580" stroke-opacity="0.25" stroke-width="8"/>
<path d="M184.665 21.1938C188.003 20.1093 191.491 19.5569 195 19.5569" stroke="#606580" stroke-opacity="0.25" stroke-width="8"/>
<path d="M175.343 25.9438C178.182 23.8811 181.328 22.278 184.666 21.1936" stroke="#606580" stroke-opacity="0.25" stroke-width="8"/>
<path d="M167.944 33.3426C170.007 30.5034 172.503 28.0066 175.343 25.9439" stroke="#606580" stroke-opacity="0.25" stroke-width="8"/>
<path d="M163.194 42.6656C164.278 39.3279 165.881 36.1818 167.944 33.3427" stroke="white" stroke-width="6" stroke-dasharray="1 1"/>
<path d="M161.557 53C161.557 49.4906 162.109 46.0031 163.194 42.6655" stroke="white" stroke-width="6" stroke-dasharray="1 1"/>
<path d="M163.194 63.3344C162.109 59.9968 161.557 56.5093 161.557 52.9999" stroke="white" stroke-width="6" stroke-dasharray="1 1"/>
<path d="M167.944 72.6574C165.881 69.8183 164.278 66.6721 163.194 63.3345" stroke="white" stroke-width="6" stroke-dasharray="1 1"/>
<path d="M175.343 80.0562C172.503 77.9934 170.007 75.4966 167.944 72.6574" stroke="white" stroke-width="6" stroke-dasharray="1 1"/>
<path d="M184.665 84.8062C181.328 83.7218 178.182 82.1187 175.343 80.056" stroke="white" stroke-width="6" stroke-dasharray="1 1"/>
<path d="M195 86.4435C191.491 86.4435 188.003 85.8911 184.665 84.8066" stroke="white" stroke-width="6" stroke-dasharray="1 1"/>
<path d="M214.657 25.9441C214.553 25.8685 214.449 25.7934 214.344 25.719C214.268 25.6649 214.191 25.6111 214.114 25.5577" stroke="#303549" stroke-width="8"/>
<path d="M167.944 33.3424C167.868 33.4465 167.793 33.5511 167.719 33.656C167.665 33.7323 167.611 33.8088 167.557 33.8856" stroke="white" stroke-width="8"/>
<path d="M195 86.4431C194.756 86.4431 194.511 86.4404 194.267 86.4351" stroke="#303549" stroke-width="8"/>
<path d="M202.382 75.7189C200.149 76.4444 197.822 76.8365 195.476 76.8833C195.409 76.8846 195.343 76.8857 195.276 76.8864C195.184 76.8875 195.092 76.888 195 76.888" stroke="white" stroke-width="2" stroke-linecap="round"/>
<path d="M209.041 72.3258C207.142 73.7058 205.05 74.7978 202.833 75.5672C202.77 75.5891 202.707 75.6107 202.644 75.6321C202.557 75.6615 202.469 75.6904 202.382 75.7188" stroke="white" stroke-width="2" stroke-linecap="round"/>
<path d="M214.326 67.0412C212.946 68.9407 211.294 70.6257 209.423 72.0423C209.37 72.0826 209.317 72.1228 209.263 72.1626C209.19 72.2175 209.115 72.272 209.041 72.326" stroke="white" stroke-width="2" stroke-linecap="round"/>
<path d="M217.719 60.3818C216.993 62.6148 215.943 64.7278 214.602 66.6531C214.564 66.7079 214.525 66.7625 214.487 66.817C214.433 66.892 214.38 66.9667 214.326 67.041" stroke="white" stroke-width="2" stroke-linecap="round"/>
<path d="M218.888 53C218.888 55.3479 218.542 57.6822 217.861 59.9275C217.842 59.9914 217.822 60.0553 217.803 60.1191C217.775 60.2068 217.747 60.2944 217.719 60.3818" stroke="white" stroke-width="2" stroke-linecap="round"/>
<path d="M217.719 45.6182C218.444 47.8512 218.837 50.1782 218.883 52.5239C218.885 52.5907 218.886 52.6575 218.886 52.7243C218.888 52.8162 218.888 52.9081 218.888 53" stroke="white" stroke-width="2" stroke-linecap="round"/>
<path d="M214.326 38.9588C215.706 40.8583 216.798 42.9502 217.567 45.1667C217.589 45.2298 217.611 45.293 217.632 45.3562C217.662 45.4433 217.691 45.5306 217.719 45.618" stroke="white" stroke-width="2" stroke-linecap="round"/>
<path d="M209.041 33.6742C210.941 35.0543 212.626 36.7064 214.042 38.5766C214.083 38.6299 214.123 38.6833 214.163 38.7369C214.217 38.8106 214.272 38.8847 214.326 38.959" stroke="white" stroke-width="2" stroke-linecap="round"/>
<path d="M202.382 30.2811C204.615 31.0067 206.728 32.0572 208.653 33.3982C208.708 33.4363 208.763 33.4747 208.817 33.5134C208.892 33.5665 208.967 33.6202 209.041 33.6742" stroke="white" stroke-width="2" stroke-linecap="round"/>
<path d="M195 29.1121C197.348 29.1121 199.682 29.4582 201.928 30.1386C201.991 30.158 202.055 30.1776 202.119 30.1976C202.207 30.2249 202.294 30.2529 202.382 30.2812" stroke="white" stroke-width="2" stroke-linecap="round"/>
<path d="M187.618 30.2811C190.002 29.5065 192.493 29.112 195 29.112" stroke="#0089FF" stroke-opacity="0.2" stroke-width="2"/>
<path d="M180.959 33.6742C182.987 32.2008 185.234 31.0558 187.618 30.2812" stroke="#0089FF" stroke-opacity="0.2" stroke-width="2"/>
<path d="M175.674 38.9588C177.148 36.9308 178.931 35.1474 180.959 33.674" stroke="#0089FF" stroke-opacity="0.2" stroke-width="2"/>
<path d="M172.281 45.6182C173.056 43.2342 174.201 40.9869 175.674 38.959" stroke="#0089FF" stroke-opacity="0.2" stroke-width="2"/>
<path d="M171.112 53C171.112 50.4933 171.507 48.0022 172.281 45.6182" stroke="#0089FF" stroke-opacity="0.2" stroke-width="2"/>
<path d="M172.281 60.3818C171.507 57.9978 171.112 55.5067 171.112 53" stroke="#0089FF" stroke-opacity="0.2" stroke-width="2"/>
<path d="M175.674 67.0412C174.201 65.0133 173.056 62.766 172.281 60.382" stroke="#0089FF" stroke-opacity="0.2" stroke-width="2"/>
<path d="M180.959 72.3258C178.931 70.8524 177.148 69.0689 175.674 67.041" stroke="#0089FF" stroke-opacity="0.2" stroke-width="2"/>
<path d="M187.618 75.7189C185.234 74.9443 182.987 73.7992 180.959 72.3258" stroke="#0089FF" stroke-opacity="0.2" stroke-width="2"/>
<path d="M195 76.8879C192.493 76.8879 190.002 76.4934 187.618 75.7188" stroke="#F7931E" stroke-width="2" stroke-linecap="round"/>
<path d="M190.754 58H189.453L185.85 50.4766V58H184.766V49.2754H186.412L189.67 56.1836V49.2754H190.754V58ZM196.783 51.9648C196.783 52.8516 196.555 53.5527 196.098 54.0684C195.641 54.5801 195.049 54.8359 194.322 54.8359C193.568 54.8359 192.969 54.5801 192.523 54.0684C192.078 53.5527 191.855 52.8516 191.855 51.9648C191.855 51.0547 192.084 50.3496 192.541 49.8496C192.998 49.3457 193.592 49.0938 194.322 49.0938C195.053 49.0938 195.645 49.3457 196.098 49.8496C196.555 50.3496 196.783 51.0547 196.783 51.9648ZM196.016 56.9688H192.629V56.0195H196.016V56.9688ZM195.729 51.9648C195.729 51.2812 195.602 50.7793 195.348 50.459C195.098 50.1348 194.756 49.9727 194.322 49.9727C193.889 49.9727 193.545 50.1348 193.291 50.459C193.037 50.7793 192.91 51.2812 192.91 51.9648C192.91 52.625 193.035 53.123 193.285 53.459C193.535 53.791 193.881 53.957 194.322 53.957C194.764 53.957 195.107 53.791 195.354 53.459C195.604 53.123 195.729 52.625 195.729 51.9648ZM203.82 55H202.783V58H201.658V55H197.803V53.7695L201.705 49.2754H202.783V54.0625H203.82V55ZM201.658 54.0625V50.6523L198.717 54.0625H201.658Z" fill="#D7E2F2"/>
<path d="M236.566 81.582L232.793 89H231.545L235.541 81.3008H231.029V80.2754H236.566V81.582ZM243.064 84.6348C243.064 86.2012 242.836 87.3516 242.379 88.0859C241.926 88.8164 241.225 89.1816 240.275 89.1816C239.314 89.1816 238.609 88.8086 238.16 88.0625C237.711 87.3164 237.486 86.1777 237.486 84.6465C237.486 83.0723 237.713 81.9219 238.166 81.1953C238.623 80.4648 239.326 80.0996 240.275 80.0996C241.236 80.0996 241.941 80.4766 242.391 81.2305C242.84 81.9844 243.064 83.1191 243.064 84.6348ZM241.564 87.2949C241.678 87.0059 241.758 86.6406 241.805 86.1992C241.852 85.7578 241.875 85.2363 241.875 84.6348C241.875 84.0371 241.852 83.5176 241.805 83.0762C241.758 82.6348 241.676 82.2676 241.559 81.9746C241.441 81.6777 241.279 81.4531 241.072 81.3008C240.869 81.1445 240.604 81.0664 240.275 81.0664C239.951 81.0664 239.684 81.1445 239.473 81.3008C239.266 81.4531 239.102 81.6816 238.98 81.9863C238.863 82.2832 238.783 82.6582 238.74 83.1113C238.697 83.5645 238.676 84.0762 238.676 84.6465C238.676 85.2559 238.693 85.7656 238.729 86.1758C238.768 86.5859 238.85 86.9531 238.975 87.2773C239.088 87.5781 239.248 87.8105 239.455 87.9746C239.666 88.1348 239.939 88.2148 240.275 88.2148C240.6 88.2148 240.865 88.1387 241.072 87.9863C241.283 87.8301 241.447 87.5996 241.564 87.2949Z" fill="white"/>
<path d="M249.058 83.7461C249.058 84.4785 248.91 85.0221 248.613 85.377C248.32 85.7285 247.896 85.9043 247.339 85.9043C246.772 85.9043 246.343 85.7253 246.05 85.3672C245.76 85.0091 245.615 84.4704 245.615 83.751C245.615 83.0218 245.763 82.4798 246.06 82.125C246.356 81.7702 246.782 81.5928 247.339 81.5928C247.905 81.5928 248.333 81.7718 248.623 82.1299C248.913 82.488 249.058 83.0267 249.058 83.7461ZM252.31 81.7295L248.501 89H247.695L251.504 81.7295H252.31ZM254.38 86.9834C254.38 87.7158 254.232 88.2594 253.936 88.6143C253.643 88.9658 253.218 89.1416 252.661 89.1416C252.095 89.1416 251.665 88.9626 251.372 88.6045C251.082 88.2464 250.938 87.7077 250.938 86.9883C250.938 86.2591 251.086 85.7171 251.382 85.3623C251.678 85.0075 252.104 84.8301 252.661 84.8301C253.228 84.8301 253.656 85.0091 253.945 85.3672C254.235 85.7253 254.38 86.264 254.38 86.9834ZM248.188 83.7461C248.188 83.2513 248.13 82.877 248.013 82.623C247.899 82.3691 247.674 82.2422 247.339 82.2422C247.004 82.2422 246.777 82.3708 246.66 82.6279C246.543 82.8851 246.484 83.2594 246.484 83.751C246.484 84.2393 246.54 84.612 246.65 84.8691C246.761 85.1263 246.991 85.2549 247.339 85.2549C247.674 85.2549 247.899 85.1263 248.013 84.8691C248.13 84.612 248.188 84.2376 248.188 83.7461ZM253.511 86.9834C253.511 86.4886 253.452 86.1143 253.335 85.8604C253.221 85.6064 252.996 85.4795 252.661 85.4795C252.326 85.4795 252.1 85.6081 251.982 85.8652C251.865 86.1224 251.807 86.4967 251.807 86.9883C251.807 87.4766 251.862 87.8493 251.973 88.1064C252.083 88.3636 252.313 88.4922 252.661 88.4922C252.996 88.4922 253.221 88.3636 253.335 88.1064C253.452 87.8493 253.511 87.4749 253.511 86.9834Z" fill="#606580"/>
<path d="M268.168 81.1074C267.957 81.1074 267.746 81.1328 267.535 81.1836C267.324 81.2344 267.117 81.3008 266.914 81.3828C266.727 81.4609 266.562 81.543 266.422 81.6289C266.285 81.7148 266.162 81.7949 266.053 81.8691H265.982V80.6328C266.236 80.4961 266.58 80.373 267.014 80.2637C267.451 80.1504 267.867 80.0938 268.262 80.0938C268.656 80.0938 269 80.1348 269.293 80.2168C269.59 80.2949 269.857 80.418 270.096 80.5859C270.354 80.7734 270.547 81 270.676 81.2656C270.809 81.5312 270.875 81.8418 270.875 82.1973C270.875 82.6777 270.717 83.0996 270.4 83.4629C270.084 83.8262 269.705 84.0566 269.264 84.1543V84.2363C269.447 84.2715 269.643 84.332 269.85 84.418C270.061 84.5039 270.256 84.6309 270.436 84.7988C270.615 84.9668 270.762 85.1836 270.875 85.4492C270.988 85.7109 271.045 86.0312 271.045 86.4102C271.045 86.8047 270.977 87.168 270.84 87.5C270.707 87.8281 270.518 88.1191 270.271 88.373C270.018 88.6387 269.711 88.8398 269.352 88.9766C268.992 89.1133 268.584 89.1816 268.127 89.1816C267.689 89.1816 267.256 89.1289 266.826 89.0234C266.396 88.918 266.035 88.791 265.742 88.6426V87.4062H265.824C266.07 87.5859 266.4 87.7578 266.814 87.9219C267.229 88.0859 267.643 88.168 268.057 88.168C268.295 88.168 268.533 88.1309 268.771 88.0566C269.014 87.9785 269.215 87.8535 269.375 87.6816C269.531 87.5098 269.65 87.3203 269.732 87.1133C269.814 86.9062 269.855 86.6445 269.855 86.3281C269.855 86.0117 269.809 85.752 269.715 85.5488C269.625 85.3457 269.498 85.1855 269.334 85.0684C269.17 84.9512 268.975 84.8711 268.748 84.8281C268.525 84.7812 268.283 84.7578 268.021 84.7578H267.523V83.7852H267.91C268.438 83.7852 268.865 83.6602 269.193 83.4102C269.525 83.1602 269.691 82.7969 269.691 82.3203C269.691 82.1016 269.648 81.9141 269.562 81.7578C269.477 81.5977 269.367 81.4707 269.234 81.377C269.086 81.2754 268.922 81.2051 268.742 81.166C268.562 81.127 268.371 81.1074 268.168 81.1074ZM277.883 86.1699C277.883 86.6191 277.809 87.0332 277.66 87.4121C277.512 87.791 277.312 88.1074 277.062 88.3613C276.801 88.6309 276.508 88.8359 276.184 88.9766C275.859 89.1133 275.502 89.1816 275.111 89.1816C274.717 89.1816 274.357 89.1152 274.033 88.9824C273.713 88.8496 273.43 88.6523 273.184 88.3906C272.883 88.0742 272.646 87.6523 272.475 87.125C272.307 86.5938 272.223 85.9414 272.223 85.168C272.223 84.4102 272.301 83.7266 272.457 83.1172C272.613 82.5039 272.854 81.9707 273.178 81.5176C273.494 81.0762 273.902 80.7324 274.402 80.4863C274.902 80.2363 275.48 80.1113 276.137 80.1113C276.332 80.1113 276.514 80.1211 276.682 80.1406C276.85 80.1602 276.998 80.1914 277.127 80.2344V81.3535H277.074C276.969 81.2949 276.816 81.2422 276.617 81.1953C276.418 81.1445 276.205 81.1191 275.979 81.1191C275.252 81.1191 274.664 81.3652 274.215 81.8574C273.77 82.3457 273.506 83.0723 273.424 84.0371C273.701 83.8418 273.986 83.6914 274.279 83.5859C274.572 83.4805 274.893 83.4277 275.24 83.4277C275.58 83.4277 275.877 83.4629 276.131 83.5332C276.389 83.5996 276.656 83.7363 276.934 83.9434C277.254 84.1855 277.492 84.4922 277.648 84.8633C277.805 85.2344 277.883 85.6699 277.883 86.1699ZM276.693 86.2168C276.693 85.8574 276.646 85.5566 276.553 85.3145C276.459 85.0723 276.307 84.8652 276.096 84.6934C275.943 84.5684 275.77 84.4863 275.574 84.4473C275.383 84.4082 275.186 84.3887 274.982 84.3887C274.709 84.3887 274.443 84.4297 274.186 84.5117C273.928 84.5938 273.674 84.7129 273.424 84.8691C273.416 84.9551 273.41 85.0391 273.406 85.1211C273.402 85.1992 273.4 85.2988 273.4 85.4199C273.4 86.0254 273.459 86.5137 273.576 86.8848C273.697 87.2559 273.846 87.5371 274.021 87.7285C274.189 87.9121 274.361 88.041 274.537 88.1152C274.717 88.1895 274.91 88.2266 275.117 88.2266C275.586 88.2266 275.965 88.0586 276.254 87.7227C276.547 87.3867 276.693 86.8848 276.693 86.2168ZM284.299 89H278.914V87.7754C279.301 87.4082 279.666 87.0566 280.01 86.7207C280.354 86.3848 280.689 86.0352 281.018 85.6719C281.682 84.9414 282.135 84.3574 282.377 83.9199C282.619 83.4785 282.74 83.0234 282.74 82.5547C282.74 82.3125 282.701 82.0996 282.623 81.916C282.549 81.7324 282.445 81.5801 282.312 81.459C282.176 81.3418 282.018 81.2539 281.838 81.1953C281.658 81.1367 281.461 81.1074 281.246 81.1074C281.039 81.1074 280.828 81.1348 280.613 81.1895C280.402 81.2402 280.199 81.3047 280.004 81.3828C279.84 81.4492 279.682 81.5293 279.529 81.623C279.377 81.7168 279.254 81.7969 279.16 81.8633H279.096V80.6211C279.338 80.5 279.674 80.3828 280.104 80.2695C280.537 80.1523 280.947 80.0938 281.334 80.0938C282.146 80.0938 282.783 80.3105 283.244 80.7441C283.705 81.1738 283.936 81.7578 283.936 82.4961C283.936 82.8359 283.895 83.1504 283.812 83.4395C283.734 83.7285 283.625 83.9961 283.484 84.2422C283.34 84.4961 283.166 84.748 282.963 84.998C282.76 85.248 282.545 85.4941 282.318 85.7363C281.951 86.1348 281.541 86.5488 281.088 86.9785C280.639 87.4082 280.279 87.748 280.01 87.998H284.299V89Z" fill="white"/>
<path d="M290.997 84.3516H289.142V89H288.224V84.3516H286.368V83.5459H290.997V84.3516ZM295.987 89H295.069V86.5439H292.599V89H291.681V83.5459H292.599V85.7529H295.069V83.5459H295.987V89Z" fill="#606580"/>
<path d="M235.92 59H230.957V57.9609H232.803V51.1387H230.957V50.209C231.654 50.209 232.167 50.111 232.495 49.915C232.828 49.7145 233.015 49.3385 233.056 48.7871H234.115V57.9609H235.92V59ZM243.966 55.7598C243.966 56.252 243.886 56.7077 243.727 57.127C243.572 57.5462 243.353 57.9085 243.07 58.2139C242.783 58.5238 242.425 58.7676 241.997 58.9453C241.573 59.123 241.097 59.2119 240.568 59.2119C240.081 59.2119 239.6 59.1572 239.126 59.0479C238.657 58.943 238.249 58.804 237.902 58.6309V57.1885H237.998C238.103 57.266 238.253 57.3548 238.449 57.4551C238.645 57.5508 238.862 57.6419 239.099 57.7285C239.368 57.8242 239.614 57.8994 239.837 57.9541C240.06 58.0042 240.311 58.0293 240.589 58.0293C240.862 58.0293 241.129 57.9814 241.389 57.8857C241.648 57.7855 241.872 57.626 242.059 57.4072C242.227 57.2067 242.355 56.972 242.441 56.7031C242.533 56.4342 242.578 56.1175 242.578 55.7529C242.578 55.3929 242.528 55.0967 242.428 54.8643C242.332 54.6318 242.191 54.4404 242.004 54.29C241.808 54.1169 241.566 53.9961 241.279 53.9277C240.997 53.8548 240.68 53.8184 240.329 53.8184C239.96 53.8184 239.589 53.848 239.215 53.9072C238.841 53.9619 238.543 54.0143 238.319 54.0645V48.8213H243.904V50.0176H239.639V52.7246C239.803 52.7064 239.965 52.6927 240.124 52.6836C240.284 52.6745 240.429 52.6699 240.562 52.6699C241.081 52.6699 241.521 52.7132 241.881 52.7998C242.241 52.8864 242.587 53.055 242.92 53.3057C243.257 53.5609 243.515 53.8799 243.692 54.2627C243.875 54.6455 243.966 55.1445 243.966 55.7598ZM256.1 59H249.817V57.5713C250.269 57.1429 250.695 56.7327 251.096 56.3408C251.497 55.9489 251.889 55.541 252.271 55.1172C253.046 54.265 253.575 53.5837 253.857 53.0732C254.14 52.5583 254.281 52.0273 254.281 51.4805C254.281 51.1979 254.236 50.9495 254.145 50.7354C254.058 50.5212 253.937 50.3434 253.782 50.2021C253.623 50.0654 253.438 49.9629 253.229 49.8945C253.019 49.8262 252.789 49.792 252.538 49.792C252.297 49.792 252.05 49.8239 251.8 49.8877C251.554 49.9469 251.317 50.0221 251.089 50.1133C250.897 50.1908 250.713 50.2842 250.535 50.3936C250.357 50.5029 250.214 50.5964 250.104 50.6738H250.029V49.2246C250.312 49.0833 250.704 48.9466 251.205 48.8145C251.711 48.6777 252.189 48.6094 252.641 48.6094C253.589 48.6094 254.331 48.8623 254.869 49.3682C255.407 49.8695 255.676 50.5508 255.676 51.4121C255.676 51.8086 255.628 52.1755 255.532 52.5127C255.441 52.8499 255.313 53.1621 255.149 53.4492C254.981 53.7454 254.778 54.0394 254.541 54.3311C254.304 54.6227 254.053 54.9098 253.789 55.1924C253.361 55.6572 252.882 56.1403 252.354 56.6416C251.829 57.1429 251.41 57.5394 251.096 57.8311H256.1V59ZM263.79 53.9072C263.79 55.7347 263.523 57.0768 262.99 57.9336C262.462 58.7858 261.644 59.2119 260.536 59.2119C259.415 59.2119 258.592 58.7767 258.068 57.9062C257.544 57.0358 257.282 55.7074 257.282 53.9209C257.282 52.0843 257.547 50.7422 258.075 49.8945C258.608 49.0423 259.429 48.6162 260.536 48.6162C261.657 48.6162 262.48 49.056 263.004 49.9355C263.528 50.8151 263.79 52.139 263.79 53.9072ZM262.04 57.0107C262.172 56.6735 262.266 56.2474 262.32 55.7324C262.375 55.2174 262.402 54.609 262.402 53.9072C262.402 53.21 262.375 52.6038 262.32 52.0889C262.266 51.5739 262.17 51.1455 262.033 50.8037C261.896 50.4574 261.707 50.1953 261.466 50.0176C261.229 49.8353 260.919 49.7441 260.536 49.7441C260.158 49.7441 259.846 49.8353 259.6 50.0176C259.358 50.1953 259.167 50.4619 259.025 50.8174C258.889 51.1637 258.795 51.6012 258.745 52.1299C258.695 52.6585 258.67 53.2555 258.67 53.9209C258.67 54.6318 258.69 55.2266 258.731 55.7051C258.777 56.1836 258.873 56.612 259.019 56.9902C259.151 57.3411 259.338 57.6123 259.579 57.8037C259.825 57.9906 260.144 58.084 260.536 58.084C260.914 58.084 261.224 57.9951 261.466 57.8174C261.712 57.6351 261.903 57.3662 262.04 57.0107ZM269.901 51.1934C269.901 50.7376 269.749 50.3571 269.443 50.0518C269.138 49.7464 268.714 49.5938 268.172 49.5938C267.675 49.5938 267.267 49.7305 266.948 50.0039C266.634 50.2773 266.477 50.6465 266.477 51.1113C266.477 51.4486 266.556 51.7334 266.716 51.9658C266.88 52.1982 267.124 52.4079 267.447 52.5947C267.589 52.6722 267.803 52.7793 268.09 52.916C268.382 53.0527 268.646 53.1598 268.883 53.2373C269.279 52.932 269.548 52.6198 269.689 52.3008C269.831 51.9772 269.901 51.6081 269.901 51.1934ZM270.093 56.293C270.093 55.8737 270.011 55.541 269.847 55.2949C269.683 55.0488 269.366 54.7982 268.896 54.543C268.742 54.4564 268.534 54.363 268.274 54.2627C268.019 54.1624 267.73 54.0439 267.406 53.9072C267.028 54.1579 266.739 54.4678 266.538 54.8369C266.338 55.2015 266.237 55.6185 266.237 56.0879C266.237 56.7031 266.422 57.2113 266.791 57.6123C267.165 58.0133 267.632 58.2139 268.192 58.2139C268.767 58.2139 269.227 58.043 269.573 57.7012C269.92 57.3548 270.093 56.8854 270.093 56.293ZM268.179 59.2324C267.673 59.2324 267.213 59.1572 266.798 59.0068C266.383 58.8564 266.03 58.64 265.738 58.3574C265.451 58.084 265.232 57.7604 265.082 57.3867C264.936 57.0085 264.863 56.6097 264.863 56.1904C264.863 55.639 265.009 55.1331 265.301 54.6729C265.597 54.208 266.025 53.8389 266.586 53.5654V53.5244C266.085 53.2327 265.713 52.9137 265.472 52.5674C265.23 52.221 265.109 51.7881 265.109 51.2686C265.109 50.5029 265.399 49.8649 265.978 49.3545C266.556 48.8441 267.29 48.5889 268.179 48.5889C269.104 48.5889 269.844 48.8327 270.4 49.3203C270.961 49.8034 271.241 50.4232 271.241 51.1797C271.241 51.6354 271.107 52.0866 270.838 52.5332C270.574 52.9798 270.191 53.3285 269.689 53.5791V53.6201C270.282 53.8981 270.731 54.2354 271.036 54.6318C271.341 55.0283 271.494 55.5387 271.494 56.1631C271.494 57.0335 271.177 57.7627 270.544 58.3506C269.915 58.9385 269.127 59.2324 268.179 59.2324Z" fill="white"/>
<path d="M281.6 55.2607H278.846V54.377H281.6V55.2607ZM287.059 58H282.571V56.9795C282.894 56.6735 283.198 56.3805 283.484 56.1006C283.771 55.8206 284.051 55.5293 284.324 55.2266C284.878 54.6178 285.255 54.1312 285.457 53.7666C285.659 53.3988 285.76 53.0195 285.76 52.6289C285.76 52.4271 285.727 52.2497 285.662 52.0967C285.6 51.9437 285.514 51.8167 285.403 51.7158C285.289 51.6182 285.158 51.5449 285.008 51.4961C284.858 51.4473 284.694 51.4229 284.515 51.4229C284.342 51.4229 284.166 51.4456 283.987 51.4912C283.812 51.5335 283.642 51.5872 283.479 51.6523C283.343 51.7077 283.211 51.7744 283.084 51.8525C282.957 51.9307 282.854 51.9974 282.776 52.0527H282.723V51.0176C282.924 50.9167 283.204 50.819 283.562 50.7246C283.924 50.627 284.266 50.5781 284.588 50.5781C285.265 50.5781 285.796 50.7588 286.18 51.1201C286.564 51.4782 286.756 51.9648 286.756 52.5801C286.756 52.8633 286.722 53.1253 286.653 53.3662C286.588 53.6071 286.497 53.8301 286.38 54.0352C286.259 54.2467 286.115 54.4567 285.945 54.665C285.776 54.8734 285.597 55.0785 285.408 55.2803C285.102 55.6123 284.76 55.9574 284.383 56.3154C284.008 56.6735 283.709 56.9567 283.484 57.165H287.059V58ZM295.271 58H291.727V57.2578H293.045V52.3848H291.727V51.7207C292.225 51.7207 292.591 51.6507 292.825 51.5107C293.063 51.3675 293.196 51.099 293.226 50.7051H293.982V57.2578H295.271V58ZM300.73 58H297.186V57.2578H298.504V52.3848H297.186V51.7207C297.684 51.7207 298.05 51.6507 298.284 51.5107C298.522 51.3675 298.655 51.099 298.685 50.7051H299.441V57.2578H300.73V58ZM306.561 58H302.073V56.9795C302.396 56.6735 302.7 56.3805 302.986 56.1006C303.273 55.8206 303.553 55.5293 303.826 55.2266C304.38 54.6178 304.757 54.1312 304.959 53.7666C305.161 53.3988 305.262 53.0195 305.262 52.6289C305.262 52.4271 305.229 52.2497 305.164 52.0967C305.102 51.9437 305.016 51.8167 304.905 51.7158C304.791 51.6182 304.66 51.5449 304.51 51.4961C304.36 51.4473 304.196 51.4229 304.017 51.4229C303.844 51.4229 303.668 51.4456 303.489 51.4912C303.313 51.5335 303.144 51.5872 302.981 51.6523C302.845 51.7077 302.713 51.7744 302.586 51.8525C302.459 51.9307 302.356 51.9974 302.278 52.0527H302.225V51.0176C302.426 50.9167 302.706 50.819 303.064 50.7246C303.426 50.627 303.768 50.5781 304.09 50.5781C304.767 50.5781 305.298 50.7588 305.682 51.1201C306.066 51.4782 306.258 51.9648 306.258 52.5801C306.258 52.8633 306.224 53.1253 306.155 53.3662C306.09 53.6071 305.999 53.8301 305.882 54.0352C305.761 54.2467 305.617 54.4567 305.447 54.665C305.278 54.8734 305.099 55.0785 304.91 55.2803C304.604 55.6123 304.262 55.9574 303.885 56.3154C303.51 56.6735 303.211 56.9567 302.986 57.165H306.561V58Z" fill="#F7931E"/>
<circle cx="125.494" cy="56.4939" r="2.9939" stroke="#606580"/>
<circle cx="145.293" cy="56.4939" r="2.9939" stroke="#606580"/>
<path d="M128.988 56.4941H142.963" stroke="#606580"/>
</svg>
