<svg id="a7426524-2ca2-4852-856b-c6086edac275" data-name="1" xmlns="http://www.w3.org/2000/svg" xmlns:xlink="http://www.w3.org/1999/xlink" viewBox="0 0 324 116.75"><defs><style>.e6b8db74-a754-4234-9b22-95def042a7f5{fill:url(#fc6c27a6-2e83-4fd0-90ba-4983109c46df);}.a7f53e0d-9be8-4c8c-8280-a3b84a756225,.b6bdcf52-99fa-4545-a6b8-40346fb194c2{fill:#009de2;}.ba5935a9-70c9-4466-b6dc-5f299439d54d{fill:url(#eb0355a2-895e-4300-a564-6b1601c3c9c6);}.e267e9a7-8885-4f6b-bf9f-604f35543a46{fill:#5b6481;}.bfdb2785-13f4-49cc-a29c-dc64721a579b{fill:url(#bf80c941-a640-49f5-a0dd-4bc20e341b70);}.a6efc9e7-9adf-4b0d-b445-f40fed9754c2{fill:url(#a554ae54-62f5-4ece-84ea-44a82ca86df1);}.f9d01f92-9557-40bc-ac47-5d1cebc62d80{fill:url(#a0f9c751-81a6-4b28-a228-886710af281c);}.aadec4a1-5e1c-497a-a91d-c8ce83525d75,.b26ff40a-2009-4998-b41a-b73f335c9807{font-size:8.17px;}.aa9bcbe3-729b-48a4-8f3a-ae1d7ae9c13d,.ac4f3dc4-847b-49d7-a7a0-58ea156fa277,.b26ff40a-2009-4998-b41a-b73f335c9807{fill:#fcfcff;}.a798e33d-5d9c-43dc-82cc-75a8105d0534,.a7f53e0d-9be8-4c8c-8280-a3b84a756225,.aa9bcbe3-729b-48a4-8f3a-ae1d7ae9c13d,.aadec4a1-5e1c-497a-a91d-c8ce83525d75,.ac4f3dc4-847b-49d7-a7a0-58ea156fa277,.b26ff40a-2009-4998-b41a-b73f335c9807{font-family:Tahoma;}.a798e33d-5d9c-43dc-82cc-75a8105d0534,.aadec4a1-5e1c-497a-a91d-c8ce83525d75{fill:#5c6581;}.a68d7971-c5e9-4e98-a118-1d8ff6c62f92{opacity:0.1;}.b86d2154-fe70-4bea-9a24-f7d575c19998{opacity:0.2;}.a798e33d-5d9c-43dc-82cc-75a8105d0534,.ac4f3dc4-847b-49d7-a7a0-58ea156fa277{font-size:5px;}.aa9bcbe3-729b-48a4-8f3a-ae1d7ae9c13d{font-size:6px;}.a73c7bf0-f9c6-448d-98b4-2df5a695af70{fill:#ffa300;fill-rule:evenodd;}.a7f53e0d-9be8-4c8c-8280-a3b84a756225{font-size:3.89px;}</style><linearGradient id="fc6c27a6-2e83-4fd0-90ba-4983109c46df" x1="-6693.23" y1="592.84" x2="-6693.23" y2="614.83" gradientTransform="translate(6729.58 -587.84)" gradientUnits="userSpaceOnUse"><stop offset="0" stop-color="#00a8f5"/><stop offset="0" stop-color="#00a8f5" stop-opacity="0.99"/><stop offset="0.04" stop-color="#00a8f5" stop-opacity="0.81"/><stop offset="0.09" stop-color="#00a8f5" stop-opacity="0.64"/><stop offset="0.13" stop-color="#00a8f5" stop-opacity="0.49"/><stop offset="0.19" stop-color="#00a8f5" stop-opacity="0.35"/><stop offset="0.25" stop-color="#00a8f5" stop-opacity="0.24"/><stop offset="0.31" stop-color="#00a8f5" stop-opacity="0.15"/><stop offset="0.39" stop-color="#00a8f5" stop-opacity="0.08"/><stop offset="0.49" stop-color="#00a8f5" stop-opacity="0.04"/><stop offset="0.62" stop-color="#00a8f5" stop-opacity="0.01"/><stop offset="1" stop-color="#00a8f5" stop-opacity="0"/></linearGradient><linearGradient id="eb0355a2-895e-4300-a564-6b1601c3c9c6" x1="-6755.83" y1="592.84" x2="-6755.83" y2="614.83" gradientTransform="translate(6854.78 -587.84)" gradientUnits="userSpaceOnUse"><stop offset="0" stop-color="#5b6481"/><stop offset="0.02" stop-color="#555e79" stop-opacity="0.92"/><stop offset="0.08" stop-color="#434b64" stop-opacity="0.67"/><stop offset="0.14" stop-color="#343c51" stop-opacity="0.46"/><stop offset="0.22" stop-color="#272f42" stop-opacity="0.29"/><stop offset="0.31" stop-color="#1e2536" stop-opacity="0.16"/><stop offset="0.42" stop-color="#171e2e" stop-opacity="0.07"/><stop offset="0.57" stop-color="#131a29" stop-opacity="0.01"/><stop offset="1" stop-color="#121928" stop-opacity="0"/></linearGradient><linearGradient id="bf80c941-a640-49f5-a0dd-4bc20e341b70" x1="-6819.68" y1="592.84" x2="-6819.68" y2="614.83" gradientTransform="translate(6982.49 -587.84)" xlink:href="#eb0355a2-895e-4300-a564-6b1601c3c9c6"/><linearGradient id="a554ae54-62f5-4ece-84ea-44a82ca86df1" x1="-6882.29" y1="592.84" x2="-6882.29" y2="614.83" gradientTransform="translate(7107.69 -587.84)" xlink:href="#eb0355a2-895e-4300-a564-6b1601c3c9c6"/><linearGradient id="a0f9c751-81a6-4b28-a228-886710af281c" x1="-6944.89" y1="592.84" x2="-6944.89" y2="614.83" gradientTransform="translate(7232.9 -587.84)" xlink:href="#eb0355a2-895e-4300-a564-6b1601c3c9c6"/></defs><title>Макеты (5)</title><rect class="e6b8db74-a754-4234-9b22-95def042a7f5" x="5.87" y="5" width="60.96" height="22" transform="translate(72.7 31.99) rotate(180)"/><polygon class="b6bdcf52-99fa-4545-a6b8-40346fb194c2" points="66.83 28.52 5.87 28.52 5.87 30.21 66.83 30.21 66.83 28.52 66.83 28.52"/><rect class="ba5935a9-70c9-4466-b6dc-5f299439d54d" x="68.47" y="5" width="60.96" height="22" transform="translate(197.9 31.99) rotate(180)"/><polygon class="e267e9a7-8885-4f6b-bf9f-604f35543a46" points="129.43 28.52 68.47 28.52 68.47 30.21 129.43 30.21 129.43 28.52 129.43 28.52"/><rect class="bfdb2785-13f4-49cc-a29c-dc64721a579b" x="132.32" y="5" width="60.96" height="22" transform="translate(325.61 31.99) rotate(180)"/><polygon class="e267e9a7-8885-4f6b-bf9f-604f35543a46" points="193.29 28.52 132.32 28.52 132.32 30.21 193.29 30.21 193.29 28.52 193.29 28.52"/><rect class="a6efc9e7-9adf-4b0d-b445-f40fed9754c2" x="194.93" y="5" width="60.96" height="22" transform="translate(450.81 31.99) rotate(180)"/><polygon class="e267e9a7-8885-4f6b-bf9f-604f35543a46" points="255.89 28.52 194.93 28.52 194.93 30.21 255.89 30.21 255.89 28.52 255.89 28.52"/><rect class="f9d01f92-9557-40bc-ac47-5d1cebc62d80" x="257.53" y="5" width="60.96" height="22" transform="translate(576.02 31.99) rotate(180)"/><polygon class="e267e9a7-8885-4f6b-bf9f-604f35543a46" points="318.49 28.52 257.53 28.52 257.53 30.21 318.49 30.21 318.49 28.52 318.49 28.52"/><text class="b26ff40a-2009-4998-b41a-b73f335c9807" transform="translate(13.5 22.48) scale(0.93 1)">Всего</text><text class="aadec4a1-5e1c-497a-a91d-c8ce83525d75" transform="translate(75.02 22.48) scale(0.93 1)">Новые</text><text class="aadec4a1-5e1c-497a-a91d-c8ce83525d75" transform="translate(138.3 22.48) scale(0.93 1)">В работе</text><text class="aadec4a1-5e1c-497a-a91d-c8ce83525d75" transform="translate(199.41 22.48) scale(0.93 1)">Отложено</text><text class="aadec4a1-5e1c-497a-a91d-c8ce83525d75" transform="translate(265.83 22.48) scale(0.93 1)">Закрыто</text><text class="b26ff40a-2009-4998-b41a-b73f335c9807" transform="translate(48.41 22.48) scale(0.93 1)">13</text><text class="aadec4a1-5e1c-497a-a91d-c8ce83525d75" transform="translate(114.97 22.48) scale(0.93 1)">3</text><text class="aadec4a1-5e1c-497a-a91d-c8ce83525d75" transform="translate(180.46 22.48) scale(0.93 1)">2</text><text class="aadec4a1-5e1c-497a-a91d-c8ce83525d75" transform="translate(241.09 22.48) scale(0.93 1)">5</text><text class="aadec4a1-5e1c-497a-a91d-c8ce83525d75" transform="translate(306.66 22.48) scale(0.93 1)">3</text><g class="a68d7971-c5e9-4e98-a118-1d8ff6c62f92"><rect class="e267e9a7-8885-4f6b-bf9f-604f35543a46" x="5.2" y="37.85" width="153.91" height="34.71" rx="6"/></g><g class="b86d2154-fe70-4bea-9a24-f7d575c19998"><path class="b6bdcf52-99fa-4545-a6b8-40346fb194c2" d="M155.88,71.35H7.52A.55.55,0,0,0,7,71.9V72a.55.55,0,0,0,.55.56H155.88a.56.56,0,0,0,.55-.56V71.9a.55.55,0,0,0-.55-.55Z"/></g><path class="b6bdcf52-99fa-4545-a6b8-40346fb194c2" d="M60,71.26H7.22a.58.58,0,0,0-.59.59V72a.59.59,0,0,0,.59.6H60a.59.59,0,0,0,.59-.6v-.13a.58.58,0,0,0-.59-.59Z"/><text class="ac4f3dc4-847b-49d7-a7a0-58ea156fa277" transform="translate(17.96 46.38) scale(0.93 1)">АИ-92</text><text class="a798e33d-5d9c-43dc-82cc-75a8105d0534" transform="translate(34.69 46.38) scale(0.93 1)">05.20.2020</text><text class="aa9bcbe3-729b-48a4-8f3a-ae1d7ae9c13d" transform="translate(25.85 61.46) scale(0.93 1)">Дефицит полезной вместимости</text><path class="a73c7bf0-f9c6-448d-98b4-2df5a695af70" d="M20.25,61.64l-2.62-4.9a.37.37,0,0,0-.66,0l-2.62,4.9a.33.33,0,0,0,0,.37.36.36,0,0,0,.33.19h5.24a.34.34,0,0,0,.32-.19.33.33,0,0,0,0-.37Zm-5.57.18,2.62-4.9,2.62,4.9Zm2.25-3a.34.34,0,0,1,.11-.28.35.35,0,0,1,.26-.1.36.36,0,0,1,.38.38V60a.36.36,0,0,1-.11.26.35.35,0,0,1-.27.11.38.38,0,0,1-.37-.37V58.82Zm.11,2a.36.36,0,0,1,.26-.11.38.38,0,0,1,.38.38.36.36,0,0,1-.11.26.35.35,0,0,1-.27.11.38.38,0,0,1-.37-.37A.35.35,0,0,1,17,60.8Z"/><text class="a7f53e0d-9be8-4c8c-8280-a3b84a756225" transform="translate(146.73 66.15) scale(0.93 1)">1 д.</text><text class="ac4f3dc4-847b-49d7-a7a0-58ea156fa277" transform="translate(138.39 45.61) scale(0.93 1)">Новые</text><g class="a68d7971-c5e9-4e98-a118-1d8ff6c62f92"><rect class="e267e9a7-8885-4f6b-bf9f-604f35543a46" x="5.2" y="77.55" width="153.91" height="34.71" rx="6"/></g><g class="b86d2154-fe70-4bea-9a24-f7d575c19998"><path class="b6bdcf52-99fa-4545-a6b8-40346fb194c2" d="M155.88,111.05H7.52a.55.55,0,0,0-.55.55v.12a.55.55,0,0,0,.55.56H155.88a.56.56,0,0,0,.55-.56v-.12a.55.55,0,0,0-.55-.55Z"/></g><path class="b6bdcf52-99fa-4545-a6b8-40346fb194c2" d="M60,111H7.22a.58.58,0,0,0-.59.59v.13a.59.59,0,0,0,.59.6H60a.59.59,0,0,0,.59-.6v-.13A.58.58,0,0,0,60,111Z"/><text class="ac4f3dc4-847b-49d7-a7a0-58ea156fa277" transform="translate(17.96 86.08) scale(0.93 1)">АИ-92</text><text class="a798e33d-5d9c-43dc-82cc-75a8105d0534" transform="translate(34.69 86.08) scale(0.93 1)">05.20.2020</text><text class="aa9bcbe3-729b-48a4-8f3a-ae1d7ae9c13d" transform="translate(25.85 101.16) scale(0.93 1)">Отклонение от нормы</text><path class="a73c7bf0-f9c6-448d-98b4-2df5a695af70" d="M20.25,101.34l-2.62-4.9a.37.37,0,0,0-.66,0l-2.62,4.9a.33.33,0,0,0,0,.37.36.36,0,0,0,.33.19h5.24a.34.34,0,0,0,.32-.19.33.33,0,0,0,0-.37Zm-5.57.18,2.62-4.9,2.62,4.9Zm2.25-3a.36.36,0,0,1,.37-.38.38.38,0,0,1,.27.1.39.39,0,0,1,.11.28v1.13a.36.36,0,0,1-.11.26.35.35,0,0,1-.27.11.38.38,0,0,1-.37-.37V98.52Zm.11,2a.36.36,0,0,1,.26-.11.38.38,0,0,1,.38.38.36.36,0,0,1-.11.26.35.35,0,0,1-.27.11.38.38,0,0,1-.37-.37A.35.35,0,0,1,17,100.5Z"/><text class="a7f53e0d-9be8-4c8c-8280-a3b84a756225" transform="translate(146.73 105.85) scale(0.93 1)">1 д.</text><text class="ac4f3dc4-847b-49d7-a7a0-58ea156fa277" transform="translate(133.27 85.31) scale(0.93 1)">В работе</text><g class="a68d7971-c5e9-4e98-a118-1d8ff6c62f92"><rect class="e267e9a7-8885-4f6b-bf9f-604f35543a46" x="164.84" y="37.85" width="153.91" height="34.71" rx="6"/></g><g class="b86d2154-fe70-4bea-9a24-f7d575c19998"><path class="b6bdcf52-99fa-4545-a6b8-40346fb194c2" d="M315.52,71.35H167.16a.55.55,0,0,0-.55.55V72a.56.56,0,0,0,.55.56H315.52a.56.56,0,0,0,.55-.56V71.9a.55.55,0,0,0-.55-.55Z"/></g><path class="b6bdcf52-99fa-4545-a6b8-40346fb194c2" d="M283.15,71.39H166.86a.59.59,0,0,0-.59.59.6.6,0,0,0,.59.6H283.15a.59.59,0,0,0,.59-.6.58.58,0,0,0-.59-.59Z"/><text class="aa9bcbe3-729b-48a4-8f3a-ae1d7ae9c13d" transform="translate(185.49 61.46) scale(0.93 1)">Отклонение от нормы</text><path class="a73c7bf0-f9c6-448d-98b4-2df5a695af70" d="M179.89,61.64l-2.61-4.9a.38.38,0,0,0-.33-.2.35.35,0,0,0-.33.2L174,61.64a.35.35,0,0,0,0,.37.37.37,0,0,0,.33.19h5.24a.37.37,0,0,0,.33-.19.35.35,0,0,0,0-.37Zm-5.57.18,2.63-4.9,2.61,4.9Zm2.25-3a.36.36,0,0,1,.38-.38.35.35,0,0,1,.26.1.34.34,0,0,1,.11.28V60a.38.38,0,0,1-.37.37.35.35,0,0,1-.27-.11.36.36,0,0,1-.11-.26V58.82Zm.11,2a.39.39,0,0,1,.27-.11.36.36,0,0,1,.26.11.35.35,0,0,1,.11.27.38.38,0,0,1-.37.37.35.35,0,0,1-.27-.11.36.36,0,0,1-.11-.26A.39.39,0,0,1,176.68,60.8Z"/><text class="a7f53e0d-9be8-4c8c-8280-a3b84a756225" transform="translate(306.37 66.15) scale(0.93 1)">2 д.</text><text class="ac4f3dc4-847b-49d7-a7a0-58ea156fa277" transform="translate(298.03 45.61) scale(0.93 1)">Новые</text><g class="a68d7971-c5e9-4e98-a118-1d8ff6c62f92"><rect class="e267e9a7-8885-4f6b-bf9f-604f35543a46" x="164.84" y="77.55" width="153.91" height="34.71" rx="6"/></g><g class="b86d2154-fe70-4bea-9a24-f7d575c19998"><path class="b6bdcf52-99fa-4545-a6b8-40346fb194c2" d="M315.52,111.05H167.16a.55.55,0,0,0-.55.55v.12a.56.56,0,0,0,.55.56H315.52a.56.56,0,0,0,.55-.56v-.12a.55.55,0,0,0-.55-.55Z"/></g><path class="b6bdcf52-99fa-4545-a6b8-40346fb194c2" d="M219.64,111H166.86a.59.59,0,0,0-.59.59v.13a.6.6,0,0,0,.59.6h52.78a.6.6,0,0,0,.6-.6v-.13a.59.59,0,0,0-.6-.59Z"/><text class="aa9bcbe3-729b-48a4-8f3a-ae1d7ae9c13d" transform="translate(185.49 101.16) scale(0.93 1)">Высокая нагрузка на производство</text><path class="a73c7bf0-f9c6-448d-98b4-2df5a695af70" d="M179.89,101.34l-2.61-4.9a.38.38,0,0,0-.33-.2.35.35,0,0,0-.33.2l-2.63,4.9a.35.35,0,0,0,0,.37.37.37,0,0,0,.33.19h5.24a.37.37,0,0,0,.33-.19.35.35,0,0,0,0-.37Zm-5.57.18,2.63-4.9,2.61,4.9Zm2.25-3a.39.39,0,0,1,.11-.28.38.38,0,0,1,.27-.1.36.36,0,0,1,.37.38v1.13a.38.38,0,0,1-.37.37.35.35,0,0,1-.27-.11.36.36,0,0,1-.11-.26V98.52Zm.11,2a.39.39,0,0,1,.27-.11.36.36,0,0,1,.26.11.35.35,0,0,1,.11.27.38.38,0,0,1-.37.37.35.35,0,0,1-.27-.11.36.36,0,0,1-.11-.26A.39.39,0,0,1,176.68,100.5Z"/><text class="a7f53e0d-9be8-4c8c-8280-a3b84a756225" transform="translate(306.37 105.85) scale(0.93 1)">2 д.</text><text class="ac4f3dc4-847b-49d7-a7a0-58ea156fa277" transform="translate(292.91 85.31) scale(0.93 1)">В работе</text><text class="ac4f3dc4-847b-49d7-a7a0-58ea156fa277" transform="translate(176.65 46.38) scale(0.93 1)">АИ-92</text><text class="a798e33d-5d9c-43dc-82cc-75a8105d0534" transform="translate(193.38 46.38) scale(0.93 1)">05.20.2020</text><text class="ac4f3dc4-847b-49d7-a7a0-58ea156fa277" transform="translate(176.65 86.08) scale(0.93 1)">АИ-92</text><text class="a798e33d-5d9c-43dc-82cc-75a8105d0534" transform="translate(193.38 86.08) scale(0.93 1)">05.20.2020</text></svg>