<svg width="324" height="117" viewBox="0 0 324 117" fill="none" xmlns="http://www.w3.org/2000/svg">
<path d="M76.5206 80.8062L71.6274 80.3698L79.0043 25.3123L76.5206 80.8062Z" fill="#FDFEFF"/>
<path opacity="0.03" d="M9.79509 76.8872C9.79509 41.0712 38.9329 11.9334 74.7467 11.9334C110.562 11.9334 139.7 41.0712 139.7 76.8872C139.7 88.9952 136.365 100.338 130.572 110.053H135.984L137.061 108.162C141.806 98.7482 144.496 88.1291 144.496 76.8872C144.496 53.0101 132.43 31.9042 114.082 19.3263L114.238 15.5602C103.557 8.68458 90.9429 4.51152 77.3269 4.04376C69.7846 3.78476 62.4703 4.68136 55.5551 6.57364L54.519 10.1395C44.655 13.135 35.7116 18.2585 28.2225 24.9777C27.6578 24.8192 27.0825 24.6642 26.7322 24.5864C16.1414 34.3223 8.49653 47.2576 5.36515 61.9287C5.58453 62.1248 5.99921 62.4623 6.42876 62.8062C5.49253 67.3551 5 72.0645 5 76.8872C5 88.8884 8.05567 100.185 13.4204 110.053H18.9232C13.1296 100.338 9.79509 88.9952 9.79509 76.8872Z" fill="white"/>
<path fill-rule="evenodd" clip-rule="evenodd" d="M70.6657 19.8649C73.7249 19.6392 76.8563 19.6611 79.919 19.9272L80.2148 16.5333C76.9709 16.2502 73.6549 16.2297 70.4166 16.4675L70.6657 19.8649ZM60.8859 21.4466L60.0501 18.144C63.2049 17.3457 66.458 16.8001 69.7181 16.5227L70.0069 19.9174C66.9307 20.1792 63.8616 20.6944 60.8859 21.4466ZM50.1316 21.601L51.53 24.7069C54.3387 23.4423 57.2705 22.402 60.2441 21.613L59.3708 18.3203C56.2175 19.1567 53.1095 20.2599 50.1316 21.601ZM42.8888 29.5438L40.9724 26.7267C43.6714 24.8917 46.5389 23.2641 49.4962 21.8919L50.9306 24.9823C48.141 26.2766 45.4349 27.8122 42.8888 29.5438ZM32.8343 33.3585L35.2078 35.8034C37.4193 33.6578 39.821 31.6771 42.3446 29.9178L40.3964 27.1233C37.7221 28.9866 35.1781 31.0848 32.8343 33.3585ZM28.7179 43.297L25.9588 41.2965C27.873 38.6562 30.0186 36.1504 32.3348 33.8498L34.7359 36.2686C32.5492 38.439 30.5246 40.804 28.7179 43.297ZM20.5543 50.3056L23.6185 51.7973C24.9659 49.0297 26.5517 46.3505 28.3315 43.8348L25.5497 41.8668C23.6645 44.5332 21.9831 47.3723 20.5543 50.3056ZM20.0753 61.0556L16.7989 60.1215C17.6933 56.9851 18.8553 53.8955 20.2515 50.9389L23.332 52.3938C22.0143 55.1834 20.9189 58.0983 20.0753 61.0556ZM14.8124 70.4349L18.2007 70.7845C18.5185 67.7204 19.0888 64.6612 19.8963 61.6925L16.6092 60.7988C15.7529 63.9443 15.1479 67.1868 14.8124 70.4349ZM14.6334 80.9317C14.5378 79.5404 14.489 78.1237 14.489 76.7211C14.489 74.8565 14.5746 72.9762 14.7445 71.1314L18.137 71.4427C17.9771 73.1843 17.8964 74.9605 17.8964 76.7211C17.8964 78.0459 17.9424 79.3833 18.0323 80.6975L14.6334 80.9317ZM14.6851 81.6286C14.9483 84.8909 15.4783 88.1461 16.261 91.3044L19.5686 90.4842C18.8298 87.505 18.3295 84.4337 18.0818 81.3547L14.6851 81.6286ZM19.6712 101.239C18.3443 98.2545 17.2545 95.1401 16.4329 91.9819L19.7306 91.1249C20.5055 94.1027 21.533 97.0402 22.7834 99.8546L19.6712 101.239ZM24.5399 110.139C22.7155 107.431 21.32 104.843 19.9592 101.878L23.0559 100.457C24.3396 103.255 26.9289 107.585 28.6499 110.14L24.5399 110.139Z" fill="#9ED7F5"/>
<path opacity="0.2" fill-rule="evenodd" clip-rule="evenodd" d="M108.116 30.3758C110.618 32.1718 112.992 34.1851 115.172 36.3604L117.578 33.9494C115.269 31.6439 112.754 29.5103 110.103 27.6074L108.116 30.3758ZM121.558 43.9395C119.786 41.4223 117.794 39.0304 115.638 36.8303L118.072 34.4455C120.356 36.7766 122.466 39.3114 124.344 41.9778L121.558 43.9395ZM121.935 44.4822C123.679 47.0227 125.227 49.721 126.535 52.5035L129.619 51.0542C128.232 48.1047 126.592 45.2451 124.743 42.5524L121.935 44.4822ZM129.948 61.8007C129.144 58.8286 128.089 55.9017 126.812 53.1015L129.912 51.6876C131.266 54.6569 132.385 57.7607 133.236 60.9112L129.948 61.8007ZM130.116 62.4403C130.883 65.4167 131.412 68.4837 131.688 71.5549L135.082 71.2506C134.789 67.9954 134.228 64.7451 133.415 61.5904L130.116 62.4403ZM135.119 81.751L131.724 81.4701C131.853 79.9012 131.919 78.3033 131.919 76.721C131.919 75.2236 131.86 73.7078 131.744 72.2146L135.14 71.9486C135.264 73.5302 135.327 75.1358 135.326 76.7217C135.326 78.3967 135.256 80.0887 135.119 81.751ZM130.054 91.2428L133.349 92.1083C134.176 88.9571 134.751 85.7075 135.058 82.4509L131.665 82.1317C131.376 85.2051 130.834 88.2707 130.054 91.2428ZM129.8 101.998L126.706 100.571C127.997 97.7725 129.064 94.8492 129.881 91.8827L133.166 92.7863C132.301 95.9319 131.168 99.0307 129.8 101.998ZM125.303 110.054L121.159 110.082C122.839 107.629 125.151 103.85 126.425 101.171L129.502 102.634C128.152 105.473 127.085 107.455 125.303 110.054Z" fill="#F4A321"/>
<g filter="url(#filter0_d)">
<path d="M75.3616 110.792C90.7912 110.792 103.299 98.2838 103.299 82.8541C103.299 67.4245 90.7912 54.9163 75.3616 54.9163C59.9319 54.9163 47.4237 67.4245 47.4237 82.8541C47.4237 98.2838 59.9319 110.792 75.3616 110.792Z" fill="#1B1E27"/>
</g>
<path d="M71.2522 110.204C70.8486 110.204 70.4768 110.137 70.1368 110.001C69.7996 109.866 69.5079 109.664 69.2619 109.396C69.0159 109.128 68.8252 108.793 68.6897 108.392C68.5543 107.991 68.4865 107.531 68.4865 107.011C68.4865 106.495 68.5515 106.044 68.6814 105.66C68.8141 105.276 69.0062 104.941 69.2578 104.656C69.5038 104.38 69.7954 104.17 70.1327 104.026C70.4699 103.88 70.8472 103.806 71.2646 103.806C71.472 103.806 71.6655 103.821 71.8451 103.852C72.0276 103.882 72.1962 103.921 72.351 103.968C72.4837 104.009 72.6191 104.062 72.7574 104.126C72.8983 104.186 73.0365 104.254 73.172 104.329V105.32H73.1057C73.0338 105.253 72.9412 105.173 72.8278 105.079C72.7145 104.985 72.5763 104.893 72.4132 104.801C72.2556 104.716 72.0842 104.645 71.899 104.59C71.7138 104.535 71.4996 104.507 71.2563 104.507C70.9937 104.507 70.745 104.561 70.51 104.669C70.275 104.777 70.0691 104.936 69.8922 105.146C69.718 105.356 69.5826 105.62 69.4858 105.938C69.3891 106.255 69.3407 106.613 69.3407 107.011C69.3407 107.434 69.3918 107.799 69.4941 108.106C69.5964 108.41 69.736 108.667 69.9129 108.877C70.0843 109.082 70.2861 109.237 70.5183 109.342C70.7505 109.444 70.9965 109.495 71.2563 109.495C71.4941 109.495 71.7138 109.466 71.9156 109.408C72.1174 109.35 72.2971 109.277 72.4547 109.188C72.6067 109.103 72.738 109.016 72.8486 108.927C72.9591 108.836 73.0462 108.759 73.1098 108.695H73.172V109.673C73.0365 109.737 72.908 109.798 72.7864 109.856C72.6675 109.914 72.5224 109.971 72.351 110.026C72.1713 110.084 72.0041 110.128 71.8493 110.159C71.6972 110.189 71.4982 110.204 71.2522 110.204ZM78.2514 103.918L76.0123 109.118C75.9183 109.336 75.8119 109.512 75.693 109.644C75.5769 109.777 75.4553 109.877 75.3281 109.943C75.201 110.012 75.0752 110.058 74.9508 110.08C74.8292 110.102 74.7062 110.113 74.5818 110.113C74.4712 110.113 74.3413 110.11 74.192 110.105C74.0427 110.099 73.9474 110.095 73.9059 110.092V109.325H73.964C74.0054 109.331 74.0676 109.338 74.1506 109.346C74.2362 109.351 74.3441 109.354 74.474 109.354C74.5348 109.354 74.6067 109.351 74.6896 109.346C74.7725 109.338 74.8485 109.317 74.9176 109.284C74.9978 109.245 75.0724 109.194 75.1416 109.13C75.2134 109.064 75.2784 108.96 75.3364 108.819L75.4774 108.492L73.3088 103.918H74.2169L75.8921 107.551L77.4055 103.918H78.2514ZM82.4849 104.648H79.6446V110.092H78.8236V103.918H82.4849V104.648Z" fill="#8C99B2"/>
<path d="M64.7895 86.3774H58.9922V85.1637H61.1482V77.1944H58.9922V76.1084C59.8067 76.1084 60.4056 75.9939 60.7889 75.765C61.1775 75.5308 61.3957 75.0916 61.4437 74.4474H62.6814V85.1637H64.7895V86.3774ZM73.7171 86.3774H67.9197V85.1637H70.0758V77.1944H67.9197V76.1084C68.7342 76.1084 69.3331 75.9939 69.7164 75.765C70.105 75.5308 70.3233 75.0916 70.3712 74.4474H71.6089V85.1637H73.7171V86.3774ZM78.4683 86.3774H76.5598V84.1016H78.4683V86.3774ZM88.0666 82.5924C88.0666 83.1674 87.9735 83.6997 87.7871 84.1895C87.6061 84.6792 87.3506 85.1025 87.0206 85.4591C86.6852 85.8211 86.2673 86.1059 85.7669 86.3136C85.2718 86.5212 84.7155 86.625 84.0979 86.625C83.5283 86.625 82.9667 86.5611 82.413 86.4333C81.8647 86.3109 81.3883 86.1485 80.9837 85.9462V84.2613H81.0955C81.2179 84.3518 81.3936 84.4556 81.6225 84.5728C81.8514 84.6846 82.1043 84.791 82.3811 84.8922C82.6952 85.004 82.9827 85.0918 83.2435 85.1557C83.5044 85.2143 83.7972 85.2435 84.1219 85.2435C84.4413 85.2435 84.7527 85.1876 85.0562 85.0758C85.3596 84.9587 85.6205 84.7724 85.8387 84.5169C86.0357 84.2826 86.1848 84.0085 86.2859 83.6944C86.3924 83.3803 86.4456 83.0103 86.4456 82.5844C86.4456 82.1639 86.3871 81.8178 86.2699 81.5463C86.1581 81.2748 85.9931 81.0513 85.7749 80.8756C85.5459 80.6733 85.2638 80.5322 84.9284 80.4524C84.5984 80.3672 84.2284 80.3246 83.8185 80.3246C83.3872 80.3246 82.9534 80.3592 82.5169 80.4284C82.0803 80.4923 81.7316 80.5535 81.4708 80.6121V74.4873H87.9948V75.8848H83.0119V79.0469C83.2036 79.0256 83.3926 79.0097 83.5789 78.999C83.7652 78.9884 83.9356 78.9831 84.09 78.9831C84.6968 78.9831 85.2106 79.0336 85.6311 79.1348C86.0517 79.2359 86.4563 79.4329 86.8449 79.7257C87.2388 80.0238 87.5396 80.3965 87.7472 80.8436C87.9602 81.2908 88.0666 81.8737 88.0666 82.5924Z" fill="white"/>
<path d="M247.701 83.1153L244.601 79.3055L289.188 46.1975L247.701 83.1153Z" fill="#F4A321"/>
<path opacity="0.03" d="M181.794 76.8964C181.794 41.0904 210.924 11.9596 246.728 11.9596C282.534 11.9596 311.664 41.0904 311.664 76.8964C311.664 89.0016 308.331 100.342 302.539 110.053H307.95L309.026 108.164C313.77 98.7517 316.459 88.1354 316.459 76.8964C316.459 53.0264 304.397 31.9255 286.053 19.3511L286.21 15.5857C275.531 8.7122 262.921 4.53986 249.308 4.07209C241.768 3.81308 234.455 4.70969 227.542 6.60126L226.506 10.1664C216.644 13.1612 207.703 18.2833 200.216 25.0011C199.651 24.8426 199.077 24.6876 198.727 24.6097C188.139 34.3428 180.496 47.2746 177.365 61.9415C177.585 62.1382 177.999 62.4751 178.429 62.819C177.493 67.3671 177 72.0751 177 76.8964C177 88.8948 180.056 100.188 185.418 110.053H190.92C185.127 100.342 181.794 89.0016 181.794 76.8964Z" fill="white"/>
<path fill-rule="evenodd" clip-rule="evenodd" d="M242.649 19.8899C245.707 19.6641 248.837 19.6853 251.9 19.9514L252.195 16.5589C248.952 16.2758 245.637 16.2553 242.4 16.4931L242.649 19.8899ZM232.871 21.4708L232.035 18.1689C235.189 17.3707 238.442 16.8258 241.701 16.5484L241.99 19.9423C238.914 20.2034 235.846 20.7186 232.871 21.4708ZM252.558 20.0136C255.628 20.3158 258.688 20.872 261.656 21.6653L262.535 18.3747C259.39 17.534 256.146 16.9445 252.893 16.6232L252.558 20.0136ZM223.518 24.7303L222.12 21.6244C225.097 20.2841 228.204 19.1808 231.357 18.3451L232.23 21.6364C229.257 22.4254 226.325 23.4664 223.518 24.7303ZM262.294 21.8402C265.256 22.6696 268.174 23.7516 270.968 25.0558L272.409 21.9683C269.447 20.5863 266.352 19.4399 263.212 18.5602L262.294 21.8402ZM214.879 29.5656L212.963 26.7491C215.662 24.9142 218.528 23.288 221.484 21.9151L222.919 25.0047C220.13 26.299 217.424 27.8339 214.879 29.5656ZM271.567 25.3388C274.34 26.6734 277.025 28.2458 279.549 30.0143L281.503 27.224C278.83 25.3508 275.983 23.6835 273.044 22.2689L271.567 25.3388ZM207.2 35.8243L204.827 33.3801C207.17 31.1071 209.714 29.0096 212.387 27.1456L214.335 29.9402C211.812 31.6987 209.411 33.6787 207.2 35.8243ZM197.953 41.3149L200.712 43.3147C202.517 40.8231 204.542 38.4588 206.728 36.2884L204.328 33.871C202.012 36.1709 199.867 38.6753 197.953 41.3149ZM195.614 51.8137L192.551 50.3219C193.979 47.3894 195.66 44.551 197.545 41.8852L200.326 43.8532C198.546 46.3675 196.961 49.046 195.614 51.8137ZM188.796 60.1359L192.072 61.07C192.915 58.1127 194.01 55.1986 195.328 52.4097L192.247 50.9554C190.852 53.9113 189.69 57.0003 188.796 60.1359ZM190.198 70.7959L186.81 70.4456C187.145 67.1989 187.75 63.9571 188.606 60.8123L191.893 61.7061C191.085 64.674 190.515 67.7325 190.198 70.7959ZM186.487 76.7304C186.487 78.1329 186.535 79.5497 186.631 80.9395L190.029 80.7053C189.939 79.3926 189.893 78.0551 189.893 76.7304C189.893 74.9704 189.974 73.1949 190.133 71.454L186.742 71.1427C186.573 72.9868 186.487 74.8664 186.487 76.7304ZM188.258 91.3103C187.476 88.1527 186.945 84.8982 186.683 81.6373L190.078 81.3627C190.326 84.441 190.826 87.5123 191.564 90.4901L188.258 91.3103ZM188.43 91.9874C189.252 95.1443 190.341 98.2579 191.667 101.241L194.779 99.858C193.529 97.0436 192.501 94.1075 191.727 91.1304L188.43 91.9874ZM191.955 101.88C193.316 104.846 194.711 107.432 196.535 110.14L200.644 110.141C198.923 107.586 196.335 103.258 195.052 100.461L191.955 101.88Z" fill="white"/>
<path opacity="0.2" fill-rule="evenodd" clip-rule="evenodd" d="M293.904 44.5006C295.648 47.0397 297.196 49.7373 298.503 52.5198L301.586 51.0705C300.2 48.1217 298.56 45.2627 296.712 42.5708L293.904 44.5006ZM301.915 61.814C301.111 58.8426 300.057 55.9171 298.78 53.1169L301.879 51.7037C303.233 54.6724 304.352 57.7747 305.203 60.9252L301.915 61.814ZM302.084 62.4537C302.851 65.4294 303.379 68.495 303.655 71.5655L307.048 71.2612C306.756 68.0074 306.195 64.7578 305.382 61.6038L302.084 62.4537ZM307.085 81.7593L303.691 81.4783C303.819 79.9095 303.886 78.3123 303.886 76.73C303.886 75.2333 303.827 73.7182 303.71 72.225L307.106 71.9589C307.23 73.5406 307.293 75.1455 307.292 76.7307C307.292 78.4057 307.222 80.097 307.085 81.7593ZM302.021 91.2483L305.315 92.1131C306.142 88.9633 306.717 85.7144 307.024 82.4592L303.632 82.1394C303.343 85.212 302.801 88.2769 302.021 91.2483ZM301.767 102.001L298.674 100.574C299.965 97.7758 301.032 94.8539 301.849 91.8881L305.132 92.791C304.267 95.9359 303.135 99.034 301.767 102.001ZM297.272 110.054L293.128 110.083C294.807 107.631 297.12 103.852 298.393 101.174L301.469 102.637C300.12 105.475 299.052 107.456 297.272 110.054Z" fill="#F4A321"/>
<g filter="url(#filter1_d)">
<path d="M247.343 110.792C262.769 110.792 275.274 98.2875 275.274 82.8619C275.274 67.4363 262.769 54.9314 247.343 54.9314C231.918 54.9314 219.413 67.4363 219.413 82.8619C219.413 98.2875 231.918 110.792 247.343 110.792Z" fill="#1B1E27"/>
</g>
<path d="M235.561 76.3126C235.273 76.3126 234.986 76.3472 234.699 76.4163C234.411 76.4855 234.129 76.576 233.852 76.6878C233.597 76.7942 233.373 76.906 233.182 77.0231C232.995 77.1401 232.828 77.2493 232.679 77.3504H232.583V75.6659C232.929 75.4796 233.397 75.312 233.988 75.163C234.584 75.0086 235.151 74.9315 235.688 74.9315C236.226 74.9315 236.694 74.9873 237.094 75.0991C237.498 75.2056 237.863 75.3732 238.187 75.6021C238.538 75.8575 238.802 76.1662 238.978 76.5281C239.158 76.89 239.249 77.3131 239.249 77.7974C239.249 78.4521 239.033 79.0268 238.602 79.5218C238.171 80.0168 237.655 80.3308 237.054 80.4638V80.5756C237.304 80.6235 237.57 80.706 237.852 80.8231C238.139 80.9401 238.405 81.1131 238.65 81.342C238.895 81.5708 239.095 81.8662 239.249 82.2281C239.403 82.5847 239.48 83.0211 239.48 83.5373C239.48 84.0749 239.387 84.5698 239.201 85.0222C239.02 85.4693 238.762 85.8658 238.427 86.2117C238.081 86.5736 237.663 86.8477 237.173 87.034C236.684 87.2203 236.128 87.3134 235.505 87.3134C234.909 87.3134 234.318 87.2415 233.733 87.0979C233.147 86.9542 232.655 86.7812 232.256 86.5789V84.8945H232.367C232.703 85.1393 233.152 85.3735 233.717 85.597C234.281 85.8205 234.845 85.9323 235.409 85.9323C235.734 85.9323 236.058 85.8817 236.383 85.7806C236.713 85.6742 236.987 85.5039 237.205 85.2697C237.418 85.0355 237.58 84.7774 237.692 84.4953C237.804 84.2133 237.86 83.8567 237.86 83.4256C237.86 82.9945 237.796 82.6406 237.668 82.3638C237.546 82.0871 237.373 81.8689 237.149 81.7092C236.926 81.5495 236.66 81.4404 236.351 81.3819C236.048 81.318 235.718 81.2861 235.361 81.2861H234.683V79.9609H235.209C235.928 79.9609 236.511 79.7906 236.958 79.45C237.41 79.1093 237.636 78.6144 237.636 77.9651C237.636 77.667 237.578 77.4116 237.461 77.1987C237.344 76.9805 237.195 76.8075 237.014 76.6798C236.811 76.5414 236.588 76.4456 236.343 76.3924C236.098 76.3392 235.837 76.3126 235.561 76.3126ZM243.831 87.0659H241.923V84.7907H243.831V87.0659ZM253.619 81.1184C253.619 83.2526 253.307 84.82 252.685 85.8205C252.067 86.8158 251.112 87.3134 249.819 87.3134C248.509 87.3134 247.549 86.8051 246.937 85.7886C246.325 84.7721 246.019 83.2207 246.019 81.1344C246.019 78.9896 246.327 77.4222 246.945 76.4323C247.567 75.4371 248.525 74.9394 249.819 74.9394C251.128 74.9394 252.089 75.453 252.701 76.4802C253.313 77.5074 253.619 79.0535 253.619 81.1184ZM251.575 84.7428C251.729 84.349 251.838 83.8514 251.902 83.25C251.966 82.6486 251.998 81.938 251.998 81.1184C251.998 80.3042 251.966 79.5963 251.902 78.9949C251.838 78.3935 251.727 77.8932 251.567 77.4941C251.407 77.0896 251.187 76.7836 250.904 76.576C250.628 76.3631 250.266 76.2567 249.819 76.2567C249.377 76.2567 249.012 76.3631 248.725 76.576C248.443 76.7836 248.219 77.0949 248.054 77.51C247.895 77.9145 247.786 78.4254 247.727 79.0428C247.669 79.6602 247.639 80.3574 247.639 81.1344C247.639 81.9647 247.663 82.6592 247.711 83.218C247.764 83.7768 247.876 84.2771 248.046 84.7189C248.201 85.1287 248.419 85.4453 248.701 85.6689C248.988 85.8871 249.361 85.9962 249.819 85.9962C250.26 85.9962 250.622 85.8924 250.904 85.6848C251.192 85.4719 251.415 85.1579 251.575 84.7428ZM262.616 76.9592L257.475 87.0659H255.774L261.219 76.576H255.072V75.1789H262.616V76.9592Z" fill="#F4A321"/>
<path d="M229.722 108.198C229.722 108.505 229.664 108.776 229.547 109.011C229.431 109.246 229.275 109.439 229.079 109.591C228.847 109.773 228.598 109.903 228.333 109.981C228.067 110.055 227.724 110.093 227.304 110.093H225.534V103.919H227.172C227.611 103.919 227.94 103.934 228.158 103.964C228.379 103.992 228.591 104.06 228.793 104.168C229.014 104.286 229.176 104.443 229.278 104.636C229.38 104.827 229.431 105.052 229.431 105.312C229.431 105.602 229.354 105.862 229.199 106.091C229.047 106.321 228.836 106.501 228.565 106.631V106.664C228.932 106.763 229.217 106.946 229.419 107.211C229.621 107.474 229.722 107.803 229.722 108.198ZM228.577 105.428C228.577 105.279 228.552 105.15 228.503 105.042C228.453 104.932 228.373 104.845 228.262 104.781C228.129 104.707 227.981 104.661 227.818 104.644C227.655 104.628 227.43 104.619 227.142 104.619H226.355V106.427H227.288C227.545 106.427 227.734 106.415 227.856 106.39C227.977 106.362 228.103 106.307 228.233 106.224C228.357 106.144 228.446 106.039 228.498 105.909C228.551 105.779 228.577 105.619 228.577 105.428ZM228.867 108.231C228.867 107.999 228.834 107.808 228.768 107.659C228.702 107.507 228.567 107.378 228.366 107.273C228.236 107.204 228.093 107.16 227.939 107.141C227.787 107.121 227.57 107.111 227.288 107.111H226.355V109.392H227.022C227.382 109.392 227.665 109.375 227.872 109.342C228.08 109.309 228.262 109.239 228.42 109.131C228.574 109.023 228.688 108.901 228.76 108.766C228.831 108.628 228.867 108.449 228.867 108.231ZM234.138 110.093H233.366V106.639L231.185 110.093H230.48V105.461H231.252V108.861L233.408 105.461H234.138V110.093ZM237.106 110.196C236.788 110.196 236.497 110.148 236.231 110.051C235.966 109.952 235.738 109.803 235.547 109.603C235.357 109.404 235.209 109.154 235.104 108.853C234.999 108.549 234.946 108.192 234.946 107.783C234.946 107.377 235 107.026 235.108 106.73C235.218 106.434 235.365 106.185 235.547 105.984C235.73 105.782 235.956 105.627 236.227 105.519C236.501 105.409 236.794 105.353 237.106 105.353C237.361 105.353 237.605 105.389 237.84 105.461C238.078 105.533 238.289 105.616 238.475 105.71V106.585H238.429C238.374 106.538 238.302 106.484 238.213 106.423C238.128 106.362 238.023 106.3 237.898 106.237C237.791 106.181 237.663 106.133 237.517 106.091C237.37 106.05 237.229 106.029 237.094 106.029C236.69 106.029 236.366 106.183 236.12 106.49C235.876 106.794 235.755 107.225 235.755 107.783C235.755 108.331 235.872 108.758 236.107 109.064C236.345 109.369 236.674 109.521 237.094 109.521C237.348 109.521 237.59 109.468 237.82 109.363C238.049 109.258 238.252 109.123 238.429 108.957H238.475V109.832C238.397 109.867 238.301 109.912 238.184 109.964C238.068 110.014 237.963 110.051 237.869 110.076C237.737 110.115 237.618 110.144 237.513 110.163C237.408 110.185 237.272 110.196 237.106 110.196ZM242.472 106.145C242.652 106.328 242.791 106.56 242.891 106.842C242.99 107.121 243.04 107.446 243.04 107.816C243.04 108.173 242.983 108.503 242.87 108.807C242.757 109.109 242.603 109.363 242.41 109.57C242.211 109.786 241.989 109.949 241.746 110.06C241.506 110.167 241.243 110.221 240.958 110.221C240.668 110.221 240.401 110.172 240.158 110.072C239.918 109.97 239.712 109.814 239.54 109.603C239.327 109.341 239.167 109.012 239.059 108.617C238.954 108.221 238.902 107.732 238.902 107.149C238.902 106.941 238.91 106.731 238.927 106.519C238.946 106.303 238.986 106.046 239.047 105.747C239.102 105.482 239.177 105.236 239.271 105.009C239.365 104.78 239.488 104.586 239.64 104.429C239.836 104.224 240.092 104.061 240.407 103.939C240.725 103.818 241.145 103.734 241.667 103.687C241.853 103.67 242.05 103.655 242.26 103.641C242.473 103.624 242.635 103.612 242.746 103.604V104.321C242.602 104.329 242.448 104.34 242.285 104.354C242.122 104.365 241.936 104.379 241.725 104.396C241.446 104.418 241.155 104.467 240.851 104.545C240.547 104.619 240.317 104.737 240.162 104.897C240.046 105.016 239.954 105.186 239.884 105.407C239.815 105.628 239.767 105.874 239.739 106.145C239.944 105.999 240.162 105.876 240.394 105.776C240.629 105.674 240.882 105.623 241.153 105.623C241.405 105.623 241.644 105.666 241.871 105.751C242.097 105.834 242.298 105.966 242.472 106.145ZM242.248 107.862C242.248 107.37 242.137 106.993 241.916 106.73C241.695 106.467 241.38 106.336 240.971 106.336C240.747 106.336 240.53 106.373 240.32 106.448C240.11 106.523 239.912 106.622 239.727 106.747C239.721 106.816 239.716 106.899 239.71 106.995C239.705 107.089 239.702 107.175 239.702 107.252C239.702 107.733 239.741 108.125 239.818 108.426C239.896 108.727 240.003 108.964 240.142 109.135C240.266 109.29 240.397 109.398 240.535 109.458C240.674 109.516 240.824 109.545 240.987 109.545C241.385 109.545 241.695 109.395 241.916 109.093C242.137 108.792 242.248 108.382 242.248 107.862ZM247.742 107.655C247.742 108.426 247.557 109.041 247.186 109.5C246.819 109.956 246.353 110.184 245.789 110.184C245.56 110.184 245.356 110.158 245.179 110.105C245.003 110.053 244.821 109.971 244.636 109.861V111.801H243.857V105.461H244.636V105.946C244.83 105.772 245.044 105.627 245.279 105.511C245.517 105.392 245.775 105.333 246.054 105.333C246.585 105.333 246.998 105.543 247.294 105.963C247.593 106.383 247.742 106.947 247.742 107.655ZM246.938 107.742C246.938 107.214 246.853 106.805 246.685 106.514C246.516 106.221 246.242 106.075 245.864 106.075C245.642 106.075 245.428 106.125 245.221 106.224C245.016 106.321 244.821 106.447 244.636 106.601V109.226C244.841 109.326 245.015 109.393 245.159 109.429C245.305 109.465 245.472 109.483 245.66 109.483C246.064 109.483 246.378 109.335 246.602 109.04C246.826 108.744 246.938 108.311 246.938 107.742ZM250.562 110.201C249.823 110.201 249.25 109.993 248.841 109.579C248.434 109.161 248.231 108.57 248.231 107.804C248.231 107.049 248.429 106.449 248.824 106.004C249.219 105.557 249.736 105.333 250.375 105.333C250.662 105.333 250.917 105.374 251.138 105.457C251.359 105.54 251.553 105.67 251.718 105.847C251.884 106.024 252.011 106.241 252.1 106.498C252.188 106.752 252.233 107.064 252.233 107.435V107.858H249.023C249.023 108.397 249.159 108.809 249.43 109.093C249.7 109.378 250.075 109.521 250.553 109.521C250.725 109.521 250.892 109.501 251.055 109.463C251.221 109.424 251.37 109.374 251.503 109.313C251.644 109.25 251.763 109.189 251.859 109.131C251.956 109.07 252.036 109.013 252.1 108.961H252.145V109.811C252.054 109.847 251.941 109.892 251.805 109.948C251.67 110 251.548 110.042 251.441 110.072C251.289 110.114 251.15 110.145 251.026 110.167C250.904 110.19 250.749 110.201 250.562 110.201ZM251.474 107.261C251.468 107.051 251.443 106.87 251.399 106.718C251.355 106.566 251.291 106.437 251.208 106.332C251.117 106.216 251 106.127 250.856 106.067C250.715 106.006 250.539 105.975 250.329 105.975C250.122 105.975 249.945 106.007 249.799 106.071C249.655 106.132 249.524 106.221 249.405 106.34C249.289 106.462 249.2 106.597 249.139 106.747C249.078 106.893 249.04 107.064 249.023 107.261H251.474ZM256.748 110.093H255.778L254.19 107.957H253.8V110.093H253.02V105.461H253.8V107.476C254.002 107.474 254.173 107.432 254.314 107.352C254.458 107.269 254.579 107.11 254.679 106.875C254.709 106.806 254.743 106.726 254.778 106.635C254.817 106.543 254.848 106.463 254.87 106.394C254.991 106.054 255.16 105.814 255.376 105.673C255.591 105.532 255.872 105.461 256.217 105.461H256.429V106.133H256.25C256.032 106.133 255.868 106.179 255.757 106.27C255.649 106.358 255.558 106.521 255.483 106.759C255.406 107 255.315 107.188 255.21 107.323C255.105 107.456 254.989 107.558 254.861 107.63L256.748 110.093ZM260.907 110.093H260.136V106.639L257.955 110.093H257.25V105.461H258.021V108.861L260.177 105.461H260.907V110.093ZM265.692 110.093H264.912V108.007H262.814V110.093H262.035V105.461H262.814V107.335H264.912V105.461H265.692V110.093ZM269.764 106.145H267.599V110.093H266.82V105.461H269.764V106.145Z" fill="#8C99B2"/>
<path opacity="0.25" d="M107.576 29.9921C105.051 28.2237 102.366 26.6505 99.5918 25.3159L101.069 22.2454C104.009 23.66 106.856 25.3272 109.531 27.2011L107.576 29.9921Z" fill="#9ED7F5"/>
<path d="M134.732 16.1309H131.722V15.5006H132.841V11.3625H131.722V10.7985C132.144 10.7985 132.455 10.7391 132.654 10.6203C132.856 10.4986 132.97 10.2706 132.994 9.93609H133.637V15.5006H134.732V16.1309ZM139.844 14.0079H139.11V16.1309H138.314V14.0079H135.586V13.1371L138.348 9.95682H139.11V13.3445H139.844V14.0079ZM138.314 13.3445V10.9312L136.233 13.3445H138.314ZM141.752 16.1309H140.761V14.9491H141.752V16.1309ZM146.736 14.1655C146.736 14.464 146.687 14.7404 146.591 14.9947C146.497 15.2491 146.364 15.4688 146.193 15.654C146.018 15.842 145.801 15.9899 145.542 16.0977C145.284 16.2055 144.996 16.2594 144.675 16.2594C144.379 16.2594 144.088 16.2262 143.8 16.1599C143.515 16.0963 143.268 16.012 143.058 15.907V15.0321H143.116C143.179 15.079 143.271 15.133 143.39 15.1938C143.508 15.2518 143.64 15.3071 143.783 15.3596C143.947 15.4177 144.096 15.4633 144.231 15.4965C144.367 15.5269 144.519 15.5421 144.687 15.5421C144.853 15.5421 145.015 15.513 145.173 15.455C145.33 15.3942 145.466 15.2974 145.579 15.1647C145.681 15.0431 145.759 14.9008 145.811 14.7377C145.866 14.5746 145.894 14.3824 145.894 14.1613C145.894 13.9429 145.864 13.7632 145.803 13.6223C145.745 13.4813 145.659 13.3652 145.546 13.274C145.427 13.1689 145.28 13.0957 145.106 13.0542C144.935 13.01 144.743 12.9879 144.53 12.9879C144.306 12.9879 144.081 13.0058 143.854 13.0418C143.627 13.0749 143.446 13.1067 143.311 13.1371V9.95682H146.698V10.6824H144.111V12.3244C144.211 12.3134 144.309 12.3051 144.405 12.2996C144.502 12.294 144.591 12.2913 144.671 12.2913C144.986 12.2913 145.253 12.3175 145.471 12.37C145.689 12.4226 145.9 12.5248 146.101 12.6769C146.306 12.8317 146.462 13.0252 146.57 13.2574C146.68 13.4896 146.736 13.7923 146.736 14.1655Z" fill="#9ED7F5"/>
<path d="M107.239 30.8767L114.589 20.9888H146.355" stroke="#9ED7F5" stroke-width="0.707658"/>
<path d="M107.239 31.7462C107.723 31.7462 108.116 31.3536 108.116 30.8692C108.116 30.3848 107.723 29.9922 107.239 29.9922C106.755 29.9922 106.362 30.3848 106.362 30.8692C106.362 31.3536 106.755 31.7462 107.239 31.7462Z" fill="#1B1E27" stroke="#9ED7F5" stroke-width="0.454659"/>
<path d="M146.355 21.8654C146.839 21.8654 147.232 21.4727 147.232 20.9884C147.232 20.504 146.839 20.1113 146.355 20.1113C145.871 20.1113 145.478 20.504 145.478 20.9884C145.478 21.4727 145.871 21.8654 146.355 21.8654Z" fill="#1B1E27" stroke="#9ED7F5" stroke-width="0.454659"/>
<path d="M307.073 16.1309H303.263V15.2643C303.536 15.0044 303.795 14.7556 304.038 14.5179C304.281 14.2802 304.519 14.0328 304.751 13.7757C305.221 13.2588 305.542 12.8455 305.713 12.5359C305.884 12.2235 305.97 11.9015 305.97 11.5698C305.97 11.3984 305.942 11.2477 305.887 11.1178C305.835 10.9879 305.761 10.8801 305.667 10.7944C305.571 10.7115 305.459 10.6493 305.332 10.6078C305.204 10.5663 305.065 10.5456 304.913 10.5456C304.766 10.5456 304.617 10.565 304.465 10.6037C304.316 10.6396 304.172 10.6852 304.034 10.7405C303.918 10.7875 303.806 10.8442 303.698 10.9105C303.59 10.9768 303.503 11.0335 303.437 11.0805H303.391V10.2015C303.562 10.1158 303.8 10.0328 304.104 9.95268C304.411 9.86975 304.701 9.82828 304.975 9.82828C305.55 9.82828 306.001 9.9817 306.327 10.2885C306.653 10.5926 306.816 11.0059 306.816 11.5283C306.816 11.7688 306.787 11.9913 306.729 12.1959C306.674 12.4005 306.596 12.5898 306.497 12.764C306.394 12.9436 306.271 13.1219 306.128 13.2988C305.984 13.4758 305.832 13.6499 305.672 13.8213C305.412 14.1033 305.121 14.3963 304.801 14.7003C304.483 15.0044 304.229 15.2449 304.038 15.4218H307.073V16.1309ZM309.225 16.1309H308.234V14.9491H309.225V16.1309ZM314.375 14.1281C314.375 14.446 314.322 14.739 314.217 15.0072C314.112 15.2753 313.971 15.4992 313.794 15.6789C313.609 15.8696 313.402 16.0148 313.172 16.1143C312.943 16.211 312.69 16.2594 312.414 16.2594C312.134 16.2594 311.88 16.2124 311.651 16.1184C311.424 16.0244 311.224 15.8848 311.05 15.6996C310.837 15.4757 310.669 15.1772 310.548 14.804C310.429 14.4281 310.369 13.9664 310.369 13.4191C310.369 12.8828 310.425 12.3991 310.535 11.9678C310.646 11.5338 310.816 11.1565 311.045 10.8359C311.269 10.5235 311.558 10.2802 311.912 10.1061C312.266 9.92918 312.675 9.84072 313.139 9.84072C313.278 9.84072 313.406 9.84763 313.525 9.86146C313.644 9.87528 313.749 9.89739 313.84 9.9278V10.7198H313.803C313.728 10.6783 313.62 10.641 313.479 10.6078C313.338 10.5719 313.188 10.5539 313.027 10.5539C312.513 10.5539 312.097 10.7281 311.779 11.0764C311.464 11.4219 311.278 11.9361 311.22 12.6188C311.416 12.4806 311.618 12.3742 311.825 12.2996C312.032 12.2249 312.259 12.1876 312.505 12.1876C312.745 12.1876 312.955 12.2125 313.135 12.2622C313.318 12.3092 313.507 12.406 313.703 12.5525C313.93 12.7239 314.099 12.9409 314.209 13.2035C314.32 13.4661 314.375 13.7743 314.375 14.1281ZM313.533 14.1613C313.533 13.907 313.5 13.6941 313.434 13.5228C313.367 13.3514 313.26 13.2049 313.11 13.0832C313.002 12.9948 312.879 12.9367 312.741 12.9091C312.606 12.8814 312.466 12.8676 312.322 12.8676C312.129 12.8676 311.941 12.8966 311.759 12.9547C311.576 13.0127 311.396 13.0971 311.22 13.2076C311.214 13.2684 311.21 13.3279 311.207 13.3859C311.204 13.4412 311.203 13.5117 311.203 13.5974C311.203 14.0259 311.244 14.3714 311.327 14.634C311.413 14.8966 311.518 15.0956 311.642 15.2311C311.761 15.361 311.883 15.4522 312.007 15.5047C312.134 15.5573 312.271 15.5835 312.418 15.5835C312.75 15.5835 313.018 15.4647 313.222 15.2269C313.43 14.9892 313.533 14.634 313.533 14.1613ZM318.982 10.8815L316.311 16.1309H315.428L318.256 10.6824H315.063V9.95682H318.982V10.8815Z" fill="#9ED7F5"/>
<path d="M279.116 30.8767L286.466 20.9888H318.232" stroke="#9ED7F5" stroke-width="0.707658"/>
<path d="M279.116 31.7462C279.6 31.7462 279.993 31.3536 279.993 30.8692C279.993 30.3848 279.6 29.9922 279.116 29.9922C278.632 29.9922 278.239 30.3848 278.239 30.8692C278.239 31.3536 278.632 31.7462 279.116 31.7462Z" fill="#1B1E27" stroke="#9ED7F5" stroke-width="0.454659"/>
<path d="M311.392 21.8654C311.877 21.8654 312.269 21.4727 312.269 20.9884C312.269 20.504 311.877 20.1113 311.392 20.1113C310.908 20.1113 310.515 20.504 310.515 20.9884C310.515 21.4727 310.908 21.8654 311.392 21.8654Z" fill="#1B1E27" stroke="#9ED7F5" stroke-width="0.454659"/>
<path opacity="0.25" d="M98.9918 25.0324C96.198 23.7282 93.2789 22.6462 90.3159 21.8161L91.2345 18.5354C94.3757 19.4157 97.471 20.5621 100.433 21.9449L98.9918 25.0324Z" fill="#9ED7F5"/>
<path opacity="0.25" d="M89.6777 21.6411C86.7104 20.8478 83.6484 20.2916 80.5779 19.9887L80.9133 16.5977C84.1671 16.9189 87.4124 17.5084 90.558 18.3498L89.6777 21.6411Z" fill="#9ED7F5"/>
<path d="M293.527 43.9569C291.756 41.4405 289.765 39.0493 287.609 36.8499L290.043 34.4658C292.326 36.7961 294.435 39.3303 296.312 41.996L293.527 43.9569Z" fill="#F4A321"/>
<path d="M287.143 36.3808C284.964 34.2061 282.59 32.1929 280.089 30.3968L282.075 27.6299C284.726 29.5321 287.24 31.6649 289.549 33.9698L287.143 36.3808Z" fill="#F4A321"/>
<defs>
<filter id="filter0_d" x="43.8854" y="44.3014" width="62.9523" height="66.4906" filterUnits="userSpaceOnUse" color-interpolation-filters="sRGB">
<feFlood flood-opacity="0" result="BackgroundImageFix"/>
<feColorMatrix in="SourceAlpha" type="matrix" values="0 0 0 0 0 0 0 0 0 0 0 0 0 0 0 0 0 0 127 0"/>
<feOffset dy="-7.07658"/>
<feGaussianBlur stdDeviation="1.76914"/>
<feColorMatrix type="matrix" values="0 0 0 0 0 0 0 0 0 0 0 0 0 0 0 0 0 0 0.301961 0"/>
<feBlend mode="normal" in2="BackgroundImageFix" result="effect1_dropShadow"/>
<feBlend mode="normal" in="SourceGraphic" in2="effect1_dropShadow" result="shape"/>
</filter>
<filter id="filter1_d" x="215.875" y="44.3165" width="62.9376" height="66.4759" filterUnits="userSpaceOnUse" color-interpolation-filters="sRGB">
<feFlood flood-opacity="0" result="BackgroundImageFix"/>
<feColorMatrix in="SourceAlpha" type="matrix" values="0 0 0 0 0 0 0 0 0 0 0 0 0 0 0 0 0 0 127 0"/>
<feOffset dy="-7.07658"/>
<feGaussianBlur stdDeviation="1.76914"/>
<feColorMatrix type="matrix" values="0 0 0 0 0 0 0 0 0 0 0 0 0 0 0 0 0 0 0.301961 0"/>
<feBlend mode="normal" in2="BackgroundImageFix" result="effect1_dropShadow"/>
<feBlend mode="normal" in="SourceGraphic" in2="effect1_dropShadow" result="shape"/>
</filter>
</defs>
</svg>
