<svg width="324" height="117" viewBox="0 0 324 117" fill="none" xmlns="http://www.w3.org/2000/svg">
<rect opacity="0.5" x="5" y="17" width="75.7294" height="84.9647" rx="1.84706" fill="#272A38"/>
<rect opacity="0.5" x="84.4236" y="17" width="75.7294" height="84.9647" rx="1.84706" fill="#272A38"/>
<rect opacity="0.5" x="163.847" y="17" width="75.7294" height="84.9647" rx="1.84706" fill="#272A38"/>
<rect opacity="0.5" x="243.271" y="17" width="75.7294" height="84.9647" rx="1.84706" fill="#272A38"/>
<circle cx="122.392" cy="60.3012" r="24.6818" fill="#12151E" fill-opacity="0.5" stroke="#272A38" stroke-width="0.715415"/>
<path d="M128.73 79.8081C126.683 80.4731 124.544 80.8118 122.392 80.8118" stroke="#12151E" stroke-width="1.43083"/>
<path d="M134.449 76.8941C132.708 78.159 130.778 79.142 128.732 79.807" stroke="#12151E" stroke-width="1.43083"/>
<path d="M138.985 72.3576C137.72 74.0986 136.189 75.6296 134.448 76.8945" stroke="#12151E" stroke-width="1.43083"/>
<path d="M141.898 66.6402C141.233 68.6869 140.25 70.6162 138.985 72.3572" stroke="#12151E" stroke-width="1.43083"/>
<path d="M142.9 60.3027C142.9 62.4547 142.561 64.5933 141.896 66.64" stroke="#12151E" stroke-width="1.43083"/>
<path d="M141.898 53.9652C142.563 56.0119 142.901 58.1505 142.901 60.3025" stroke="#12151E" stroke-width="1.43083"/>
<path d="M138.985 48.2479C140.25 49.9889 141.233 51.9182 141.898 53.9648" stroke="#12151E" stroke-width="1.43083"/>
<path d="M134.449 43.7134C136.19 44.9783 137.721 46.5093 138.986 48.2503" stroke="#12151E" stroke-width="1.43083"/>
<path d="M128.73 40.7993C130.776 41.4643 132.706 42.4473 134.447 43.7122" stroke="#12151E" stroke-width="1.43083"/>
<path d="M122.393 39.7971C124.545 39.7971 126.683 40.1358 128.73 40.8008" stroke="#12151E" stroke-width="1.43083"/>
<path d="M116.056 40.7993C118.103 40.1343 120.241 39.7956 122.393 39.7956" stroke="#12151E" stroke-width="1.43083"/>
<path d="M110.339 43.7134C112.08 42.4484 114.009 41.4654 116.056 40.8004" stroke="#12151E" stroke-width="1.43083"/>
<path d="M105.801 48.2479C107.066 46.5069 108.597 44.9758 110.338 43.7109" stroke="#12151E" stroke-width="1.43083"/>
<path d="M102.89 53.9652C103.555 51.9185 104.538 49.9893 105.803 48.2483" stroke="#12151E" stroke-width="1.43083"/>
<path d="M101.886 60.3027C101.886 58.1507 102.225 56.0121 102.89 53.9655" stroke="#12151E" stroke-width="1.43083"/>
<path d="M102.89 66.6402C102.225 64.5936 101.886 62.455 101.886 60.303" stroke="#12151E" stroke-width="1.43083"/>
<path d="M105.801 72.3576C104.536 70.6165 103.553 68.6873 102.888 66.6406" stroke="#12151E" stroke-width="1.43083"/>
<path d="M110.339 76.8941C108.598 75.6291 107.067 74.0981 105.802 72.3571" stroke="#12151E" stroke-width="1.43083"/>
<path d="M116.056 79.8081C114.009 79.1431 112.08 78.1601 110.339 76.8952" stroke="#12151E" stroke-width="1.43083"/>
<path d="M122.393 80.8104C120.241 80.8104 118.102 80.4716 116.056 79.8066" stroke="#12151E" stroke-width="1.43083"/>
<path d="M128.73 79.8081C126.813 80.431 124.815 80.7676 122.801 80.8078C122.744 80.8089 122.687 80.8098 122.629 80.8105C122.55 80.8114 122.471 80.8118 122.392 80.8118" stroke="#0089FF" stroke-width="1.43083" stroke-linecap="round"/>
<path d="M134.449 76.8941C132.818 78.0789 131.022 79.0163 129.119 79.6768C129.065 79.6956 129.011 79.7142 128.957 79.7325C128.882 79.7578 128.807 79.7826 128.732 79.807" stroke="#0089FF" stroke-width="1.43083" stroke-linecap="round"/>
<path d="M138.985 72.3575C137.8 73.9883 136.382 75.4348 134.776 76.651C134.731 76.6856 134.685 76.72 134.639 76.7543C134.575 76.8014 134.512 76.8482 134.448 76.8945" stroke="#0089FF" stroke-width="1.43083" stroke-linecap="round"/>
<path d="M141.898 66.6402C141.275 68.5573 140.373 70.3713 139.222 72.0241C139.189 72.0712 139.156 72.1181 139.123 72.1649C139.077 72.2292 139.031 72.2934 138.985 72.3572" stroke="#0089FF" stroke-width="1.43083" stroke-linecap="round"/>
<path d="M142.9 60.3027C142.9 62.3184 142.603 64.3224 142.019 66.25C142.002 66.3049 141.985 66.3597 141.968 66.4144C141.945 66.4897 141.921 66.565 141.896 66.64" stroke="#0089FF" stroke-width="1.43083" stroke-linecap="round"/>
<path d="M141.898 53.9652C142.52 55.8823 142.857 57.8799 142.897 59.8937C142.898 59.9511 142.899 60.0084 142.9 60.0658C142.901 60.1446 142.901 60.2236 142.901 60.3025" stroke="#0089FF" stroke-width="1.43083" stroke-linecap="round"/>
<path d="M138.985 48.2479C140.17 49.8786 141.107 51.6745 141.768 53.5774C141.787 53.6315 141.805 53.6858 141.823 53.7401C141.849 53.8149 141.874 53.8898 141.898 53.9648" stroke="#0089FF" stroke-width="1.43083" stroke-linecap="round"/>
<path d="M134.449 43.7134C136.079 44.8982 137.526 46.3165 138.742 47.9221C138.777 47.9678 138.811 48.0136 138.845 48.0596C138.893 48.1229 138.939 48.1865 138.986 48.2503" stroke="#0089FF" stroke-width="1.43083" stroke-linecap="round"/>
<path d="M128.73 40.7993C130.647 41.4222 132.461 42.3241 134.114 43.4753C134.161 43.508 134.208 43.541 134.254 43.5742C134.319 43.6198 134.383 43.6659 134.447 43.7122" stroke="#0089FF" stroke-width="1.43083" stroke-linecap="round"/>
<path d="M122.393 39.7971C124.409 39.7971 126.412 40.0942 128.34 40.6783C128.395 40.695 128.45 40.7118 128.505 40.7289C128.58 40.7524 128.655 40.7764 128.73 40.8008" stroke="#0089FF" stroke-width="1.43083" stroke-linecap="round"/>
<path d="M116.056 40.7993C117.973 40.1764 119.971 39.8398 121.984 39.7997C122.042 39.7985 122.099 39.7976 122.156 39.7969C122.235 39.796 122.314 39.7956 122.393 39.7956" stroke="#0089FF" stroke-width="1.43083" stroke-linecap="round"/>
<path d="M110.339 43.7134C111.97 42.5286 113.766 41.5911 115.668 40.9306C115.723 40.9118 115.777 40.8932 115.831 40.8749C115.906 40.8496 115.981 40.8248 116.056 40.8004" stroke="#0089FF" stroke-width="1.43083" stroke-linecap="round"/>
<path d="M105.801 48.2479C106.985 46.6172 108.404 45.1706 110.009 43.9545C110.055 43.9199 110.101 43.8854 110.147 43.8512C110.21 43.8041 110.274 43.7573 110.338 43.7109" stroke="#0089FF" stroke-width="1.43083" stroke-linecap="round"/>
<path d="M102.89 53.9652C103.513 52.0482 104.415 50.2342 105.566 48.5814C105.599 48.5343 105.632 48.4874 105.665 48.4406C105.711 48.3763 105.757 48.3121 105.803 48.2483" stroke="#0089FF" stroke-width="1.43083" stroke-linecap="round"/>
<path d="M101.886 60.3027C101.886 58.287 102.183 56.2831 102.767 54.3555C102.784 54.3006 102.801 54.2458 102.818 54.191C102.841 54.1157 102.865 54.0405 102.89 53.9655" stroke="#0089FF" stroke-width="1.43083" stroke-linecap="round"/>
<path d="M102.89 66.6402C102.267 64.7232 101.931 62.7255 101.89 60.7117C101.889 60.6544 101.888 60.5971 101.888 60.5397C101.887 60.4608 101.886 60.3819 101.886 60.303" stroke="#0089FF" stroke-width="1.43083" stroke-linecap="round"/>
<path d="M105.801 72.3576C104.616 70.7268 103.678 68.9309 103.018 67.0281C102.999 66.9739 102.981 66.9197 102.962 66.8653C102.937 66.7906 102.912 66.7157 102.888 66.6406" stroke="#0089FF" stroke-width="1.43083" stroke-linecap="round"/>
<path d="M110.339 76.8941C108.708 75.7093 107.262 74.291 106.046 72.6854C106.011 72.6397 105.976 72.5938 105.942 72.5478C105.895 72.4845 105.848 72.4209 105.802 72.3571" stroke="#0089FF" stroke-width="1.43083" stroke-linecap="round"/>
<path d="M116.056 79.8081C114.139 79.1852 112.325 78.2834 110.672 77.1321C110.625 77.0994 110.578 77.0664 110.531 77.0332C110.467 76.9876 110.403 76.9416 110.339 76.8952" stroke="#0089FF" stroke-width="1.43083" stroke-linecap="round"/>
<path d="M122.393 80.8104C120.377 80.8104 118.373 80.5132 116.446 79.9291C116.391 79.9124 116.336 79.8956 116.281 79.8785C116.206 79.855 116.131 79.831 116.056 79.8066" stroke="#0089FF" stroke-width="1.43083" stroke-linecap="round"/>
<g clip-path="url(#clip0)">
<path d="M120.25 70.8872C115.671 69.671 112.308 65.4501 112.308 60.4422C112.308 54.5042 117.102 49.7109 123.04 49.7109C127.189 49.7109 130.766 52.0718 132.555 55.4343" stroke="#606580" stroke-width="1.43083" stroke-miterlimit="10" stroke-linecap="round" stroke-linejoin="round"/>
<path d="M120.75 54.5762C120.75 54.5762 119.033 56.5793 120.607 58.9402C121.108 59.6556 121.752 61.0864 120.25 63.0896" stroke="#606580" stroke-width="1.43083" stroke-miterlimit="10" stroke-linecap="round" stroke-linejoin="round"/>
<path d="M117.388 54.5762C117.388 54.5762 115.671 56.5793 117.245 58.9402C117.746 59.6556 118.39 61.0864 116.887 63.0896" stroke="#606580" stroke-width="1.43083" stroke-miterlimit="10" stroke-linecap="round" stroke-linejoin="round"/>
<path d="M124.041 54.5762C124.041 54.5762 122.324 56.5793 123.898 58.9402C124.399 59.6556 125.043 61.0864 123.541 63.0896" stroke="#606580" stroke-width="1.43083" stroke-miterlimit="10" stroke-linecap="round" stroke-linejoin="round"/>
<path d="M131.823 60.5272C131.934 60.1928 131.786 59.8269 131.472 59.6651C131.159 59.5033 130.775 59.5939 130.567 59.8786L126.387 65.5966C126.228 65.8141 126.205 66.1024 126.326 66.3426C126.448 66.5828 126.695 66.7342 126.964 66.7342H127.575L126.04 70.0134C125.89 70.3353 125.998 70.719 126.295 70.9143C126.592 71.1096 126.988 71.0573 127.223 70.7914L132.231 65.1482C132.418 64.9376 132.464 64.6369 132.349 64.38C132.233 64.1232 131.978 63.9579 131.696 63.9579H130.678L131.823 60.5272Z" stroke="#606580" stroke-width="1.43083" stroke-miterlimit="10" stroke-linecap="round" stroke-linejoin="round"/>
</g>
<circle cx="201.816" cy="60.3012" r="24.6818" fill="#12151E" fill-opacity="0.5" stroke="#272A38" stroke-width="0.715415"/>
<path d="M208.153 79.8081C206.106 80.4731 203.967 80.8118 201.815 80.8118" stroke="#12151E" stroke-width="1.43083"/>
<path d="M213.87 76.8941C212.129 78.159 210.199 79.142 208.153 79.807" stroke="#12151E" stroke-width="1.43083"/>
<path d="M218.406 72.3576C217.141 74.0986 215.61 75.6296 213.869 76.8945" stroke="#12151E" stroke-width="1.43083"/>
<path d="M221.319 66.6402C220.654 68.6869 219.671 70.6162 218.406 72.3572" stroke="#12151E" stroke-width="1.43083"/>
<path d="M222.323 60.3027C222.323 62.4547 221.984 64.5933 221.319 66.64" stroke="#12151E" stroke-width="1.43083"/>
<path d="M221.319 53.9652C221.984 56.0119 222.322 58.1505 222.322 60.3025" stroke="#12151E" stroke-width="1.43083"/>
<path d="M218.406 48.2479C219.671 49.9889 220.654 51.9182 221.319 53.9648" stroke="#12151E" stroke-width="1.43083"/>
<path d="M213.87 43.7134C215.611 44.9783 217.142 46.5093 218.407 48.2503" stroke="#12151E" stroke-width="1.43083"/>
<path d="M208.153 40.7993C210.199 41.4643 212.129 42.4473 213.87 43.7122" stroke="#12151E" stroke-width="1.43083"/>
<path d="M201.816 39.7971C203.968 39.7971 206.106 40.1358 208.153 40.8008" stroke="#12151E" stroke-width="1.43083"/>
<path d="M195.479 40.7993C197.526 40.1343 199.664 39.7956 201.816 39.7956" stroke="#12151E" stroke-width="1.43083"/>
<path d="M189.76 43.7134C191.501 42.4484 193.43 41.4654 195.477 40.8004" stroke="#12151E" stroke-width="1.43083"/>
<path d="M185.223 48.2479C186.488 46.5069 188.019 44.9758 189.76 43.7109" stroke="#12151E" stroke-width="1.43083"/>
<path d="M182.311 53.9652C182.976 51.9185 183.959 49.9893 185.224 48.2483" stroke="#12151E" stroke-width="1.43083"/>
<path d="M181.309 60.3027C181.309 58.1507 181.647 56.0121 182.312 53.9655" stroke="#12151E" stroke-width="1.43083"/>
<path d="M182.311 66.6402C181.646 64.5936 181.307 62.455 181.307 60.303" stroke="#12151E" stroke-width="1.43083"/>
<path d="M185.223 72.3576C183.959 70.6165 182.976 68.6873 182.311 66.6406" stroke="#12151E" stroke-width="1.43083"/>
<path d="M189.76 76.8941C188.019 75.6291 186.488 74.0981 185.223 72.3571" stroke="#12151E" stroke-width="1.43083"/>
<path d="M195.479 79.8081C193.432 79.1431 191.503 78.1601 189.762 76.8952" stroke="#12151E" stroke-width="1.43083"/>
<path d="M201.816 80.8104C199.664 80.8104 197.525 80.4716 195.478 79.8066" stroke="#12151E" stroke-width="1.43083"/>
<path d="M208.153 79.8081C206.236 80.431 204.238 80.7676 202.224 80.8078C202.167 80.8089 202.109 80.8098 202.052 80.8105C201.973 80.8114 201.894 80.8118 201.815 80.8118" stroke="#0089FF" stroke-width="1.43083" stroke-linecap="round"/>
<path d="M213.87 76.8941C212.239 78.0789 210.443 79.0163 208.54 79.6768C208.486 79.6956 208.432 79.7142 208.377 79.7325C208.303 79.7578 208.228 79.7826 208.153 79.807" stroke="#0089FF" stroke-width="1.43083" stroke-linecap="round"/>
<path d="M218.406 72.3575C217.221 73.9883 215.803 75.4348 214.197 76.651C214.152 76.6856 214.106 76.72 214.06 76.7543C213.996 76.8014 213.933 76.8482 213.869 76.8945" stroke="#0089FF" stroke-width="1.43083" stroke-linecap="round"/>
<path d="M221.319 66.6402C220.696 68.5573 219.794 70.3713 218.643 72.0241C218.61 72.0712 218.577 72.1181 218.544 72.1649C218.498 72.2292 218.452 72.2934 218.406 72.3572" stroke="#0089FF" stroke-width="1.43083" stroke-linecap="round"/>
<path d="M222.323 60.3027C222.323 62.3184 222.026 64.3224 221.441 66.25C221.425 66.3049 221.408 66.3597 221.391 66.4144C221.367 66.4897 221.343 66.565 221.319 66.64" stroke="#0089FF" stroke-width="1.43083" stroke-linecap="round"/>
<path d="M221.319 53.9652C221.941 55.8823 222.278 57.8799 222.318 59.8937C222.319 59.9511 222.32 60.0084 222.321 60.0658C222.322 60.1446 222.322 60.2236 222.322 60.3025" stroke="#0089FF" stroke-width="1.43083" stroke-linecap="round"/>
<path d="M218.406 48.2479C219.591 49.8786 220.528 51.6745 221.189 53.5774C221.207 53.6315 221.226 53.6858 221.244 53.7401C221.27 53.8149 221.294 53.8898 221.319 53.9648" stroke="#0089FF" stroke-width="1.43083" stroke-linecap="round"/>
<path d="M213.87 43.7134C215.5 44.8982 216.947 46.3165 218.163 47.9221C218.198 47.9678 218.232 48.0136 218.266 48.0596C218.313 48.1229 218.36 48.1865 218.407 48.2503" stroke="#0089FF" stroke-width="1.43083" stroke-linecap="round"/>
<path d="M208.153 40.7993C210.07 41.4222 211.884 42.3241 213.536 43.4753C213.583 43.508 213.63 43.541 213.677 43.5742C213.742 43.6198 213.806 43.6659 213.87 43.7122" stroke="#0089FF" stroke-width="1.43083" stroke-linecap="round"/>
<path d="M201.816 39.7971C203.831 39.7971 205.835 40.0942 207.763 40.6783C207.818 40.695 207.873 40.7118 207.927 40.7289C208.003 40.7524 208.078 40.7764 208.153 40.8008" stroke="#0089FF" stroke-width="1.43083" stroke-linecap="round"/>
<path d="M195.479 40.7993C197.396 40.1764 199.394 39.8398 201.408 39.7997C201.465 39.7985 201.522 39.7976 201.58 39.7969C201.658 39.796 201.737 39.7956 201.816 39.7956" stroke="#0089FF" stroke-width="1.43083" stroke-linecap="round"/>
<path d="M189.76 43.7134C191.391 42.5286 193.186 41.5911 195.089 40.9306C195.143 40.9118 195.198 40.8932 195.252 40.8749C195.327 40.8496 195.402 40.8248 195.477 40.8004" stroke="#0089FF" stroke-width="1.43083" stroke-linecap="round"/>
<path d="M185.223 48.2479C186.408 46.6172 187.827 45.1706 189.432 43.9545C189.478 43.9199 189.524 43.8854 189.57 43.8512C189.633 43.8041 189.697 43.7573 189.76 43.7109" stroke="#0089FF" stroke-width="1.43083" stroke-linecap="round"/>
<path d="M182.311 53.9652C182.934 52.0482 183.836 50.2342 184.987 48.5814C185.02 48.5343 185.053 48.4874 185.086 48.4406C185.132 48.3763 185.178 48.3121 185.224 48.2483" stroke="#0089FF" stroke-width="1.43083" stroke-linecap="round"/>
<path d="M181.309 60.3027C181.309 58.287 181.606 56.2831 182.19 54.3555C182.207 54.3006 182.224 54.2458 182.241 54.191C182.264 54.1157 182.288 54.0405 182.312 53.9655" stroke="#0089FF" stroke-width="1.43083" stroke-linecap="round"/>
<path d="M182.311 66.6402C181.688 64.7232 181.352 62.7255 181.311 60.7117C181.31 60.6544 181.309 60.5971 181.309 60.5397C181.308 60.4608 181.307 60.3819 181.307 60.303" stroke="#0089FF" stroke-width="1.43083" stroke-linecap="round"/>
<path d="M185.223 72.3576C184.039 70.7268 183.101 68.9309 182.441 67.0281C182.422 66.9739 182.403 66.9197 182.385 66.8653C182.36 66.7906 182.335 66.7157 182.311 66.6406" stroke="#0089FF" stroke-width="1.43083" stroke-linecap="round"/>
<path d="M189.76 76.8941C188.129 75.7093 186.683 74.291 185.466 72.6854C185.432 72.6397 185.397 72.5938 185.363 72.5478C185.316 72.4845 185.269 72.4209 185.223 72.3571" stroke="#0089FF" stroke-width="1.43083" stroke-linecap="round"/>
<path d="M195.479 79.8081C193.562 79.1852 191.748 78.2834 190.095 77.1321C190.048 77.0994 190.001 77.0664 189.954 77.0332C189.89 76.9876 189.826 76.9416 189.762 76.8952" stroke="#0089FF" stroke-width="1.43083" stroke-linecap="round"/>
<path d="M201.816 80.8104C199.8 80.8104 197.796 80.5132 195.868 79.9291C195.814 79.9124 195.759 79.8956 195.704 79.8785C195.629 79.855 195.553 79.831 195.478 79.8066" stroke="#0089FF" stroke-width="1.43083" stroke-linecap="round"/>
<g clip-path="url(#clip1)">
<path d="M204.535 62.7306C204.964 61.586 204.821 60.4413 204.105 59.1536C203.891 58.7959 203.676 58.5097 203.39 58.152C203.318 59.2251 203.032 60.2267 202.46 61.2998L201.959 62.2299L201.744 61.2283C201.673 60.799 201.53 60.4413 201.315 60.1552C201.101 60.6559 200.886 61.1567 200.671 61.6575C200.457 62.1583 200.457 62.6591 200.6 63.0884L201.244 64.8053L200.671 64.5907C200.528 64.5192 200.385 64.4476 200.242 64.3761C198.525 63.3745 197.881 61.7291 198.454 59.6544C198.668 58.7959 199.097 58.0805 199.527 57.4366L199.598 57.365C200.242 56.2204 200.886 55.1473 201.244 54.0026C201.315 53.8595 201.315 53.6449 201.387 53.5018L201.601 52.7148L202.031 53.001C202.102 53.0726 202.174 53.0726 202.174 53.1441L202.531 53.5018C203.533 54.5034 204.606 55.505 205.393 56.7212C206.252 57.9374 206.681 59.082 206.824 60.2982C207.039 62.1583 206.466 63.5176 205.107 64.4476C204.892 64.5907 204.606 64.7338 204.32 64.8053C204.248 64.8769 204.105 64.8769 204.034 64.9484" stroke="#606580" stroke-width="1.43083" stroke-miterlimit="10" stroke-linecap="round" stroke-linejoin="round"/>
<path d="M209.9 70.6708H195.163C193.875 70.6708 192.873 69.6693 192.873 68.3815V52.2132C192.873 50.9254 193.875 49.9238 195.163 49.9238H209.829C211.116 49.9238 212.118 50.9254 212.118 52.2132V68.31C212.189 69.6693 211.188 70.6708 209.9 70.6708Z" stroke="#606580" stroke-width="1.43083" stroke-miterlimit="10" stroke-linecap="round" stroke-linejoin="round"/>
<path d="M196.45 67.0938H208.612" stroke="#606580" stroke-width="1.43083" stroke-miterlimit="10" stroke-linecap="round" stroke-linejoin="round"/>
</g>
<circle cx="42.8647" cy="60.406" r="24.5791" fill="#12151E" fill-opacity="0.5" stroke="#272A38" stroke-width="0.712437"/>
<path d="M49.1755 79.8256C47.1373 80.4879 45.0076 80.8252 42.8646 80.8252" stroke="#12151E" stroke-width="1.42487"/>
<path d="M54.8694 76.9239C53.1356 78.1835 51.2144 79.1624 49.1762 79.8247" stroke="#12151E" stroke-width="1.42487"/>
<path d="M59.3874 72.4078C58.1277 74.1416 56.603 75.6663 54.8693 76.9259" stroke="#12151E" stroke-width="1.42487"/>
<path d="M62.2867 66.7151C61.6244 68.7533 60.6455 70.6745 59.3859 72.4083" stroke="#12151E" stroke-width="1.42487"/>
<path d="M63.2873 60.4043C63.2873 62.5473 62.95 64.677 62.2877 66.7152" stroke="#12151E" stroke-width="1.42487"/>
<path d="M62.2867 54.0915C62.9489 56.1297 63.2862 58.2594 63.2862 60.4024" stroke="#12151E" stroke-width="1.42487"/>
<path d="M59.3874 48.4008C60.647 50.1345 61.6259 52.0557 62.2882 54.0939" stroke="#12151E" stroke-width="1.42487"/>
<path d="M54.8694 43.8828C56.6031 45.1424 58.1278 46.6671 59.3875 48.4009" stroke="#12151E" stroke-width="1.42487"/>
<path d="M49.1755 40.981C51.2136 41.6433 53.1348 42.6222 54.8686 43.8818" stroke="#12151E" stroke-width="1.42487"/>
<path d="M42.8651 39.9809C45.0082 39.9809 47.1378 40.3182 49.176 40.9805" stroke="#12151E" stroke-width="1.42487"/>
<path d="M36.5545 40.981C38.5927 40.3188 40.7224 39.9815 42.8654 39.9815" stroke="#12151E" stroke-width="1.42487"/>
<path d="M30.8607 43.8828C32.5945 42.6231 34.5157 41.6442 36.5539 40.982" stroke="#12151E" stroke-width="1.42487"/>
<path d="M26.3426 48.4008C27.6022 46.667 29.1269 45.1423 30.8607 43.8827" stroke="#12151E" stroke-width="1.42487"/>
<path d="M23.4433 54.0915C24.1055 52.0534 25.0844 50.1321 26.3441 48.3984" stroke="#12151E" stroke-width="1.42487"/>
<path d="M22.4428 60.4043C22.4428 58.2613 22.7801 56.1316 23.4424 54.0934" stroke="#12151E" stroke-width="1.42487"/>
<path d="M23.4433 66.7151C22.7811 64.677 22.4437 62.5473 22.4437 60.4042" stroke="#12151E" stroke-width="1.42487"/>
<path d="M26.3426 72.4078C25.0829 70.6741 24.104 68.7529 23.4418 66.7147" stroke="#12151E" stroke-width="1.42487"/>
<path d="M30.8607 76.9239C29.127 75.6642 27.6023 74.1395 26.3426 72.4058" stroke="#12151E" stroke-width="1.42487"/>
<path d="M36.5545 79.8256C34.5164 79.1634 32.5951 78.1845 30.8614 76.9248" stroke="#12151E" stroke-width="1.42487"/>
<path d="M42.8651 80.8257C40.7221 80.8257 38.5924 80.4884 36.5542 79.8262" stroke="#12151E" stroke-width="1.42487"/>
<path d="M49.1755 79.8256C47.2664 80.4459 45.277 80.7811 43.2716 80.8211C43.2145 80.8223 43.1574 80.8232 43.1003 80.8238C43.0217 80.8247 42.9431 80.8252 42.8646 80.8252" stroke="#0089FF" stroke-width="1.42487" stroke-linecap="round"/>
<path d="M54.8694 76.9239C53.2454 78.1037 51.457 79.0373 49.5621 79.695C49.5082 79.7138 49.4541 79.7323 49.4 79.7505C49.3256 79.7757 49.251 79.8004 49.1762 79.8247" stroke="#0089FF" stroke-width="1.42487" stroke-linecap="round"/>
<path d="M59.3874 72.4078C58.2075 74.0318 56.7951 75.4723 55.1962 76.6834C55.1507 76.7179 55.105 76.7522 55.0592 76.7863C54.9962 76.8332 54.9328 76.8798 54.8693 76.9259" stroke="#0089FF" stroke-width="1.42487" stroke-linecap="round"/>
<path d="M62.2867 66.7151C61.6664 68.6242 60.7683 70.4307 59.6219 72.0766C59.5892 72.1234 59.5564 72.1702 59.5234 72.2167C59.4779 72.2808 59.4321 72.3447 59.3859 72.4083" stroke="#0089FF" stroke-width="1.42487" stroke-linecap="round"/>
<path d="M63.2873 60.4043C63.2873 62.4116 62.9913 64.4072 62.4096 66.3268C62.3931 66.3815 62.3763 66.436 62.3593 66.4906C62.3359 66.5656 62.312 66.6405 62.2877 66.7152" stroke="#0089FF" stroke-width="1.42487" stroke-linecap="round"/>
<path d="M62.2867 54.0915C62.907 56.0006 63.2422 57.9899 63.2822 59.9954C63.2833 60.0524 63.2842 60.1095 63.2849 60.1667C63.2858 60.2452 63.2862 60.3238 63.2862 60.4024" stroke="#0089FF" stroke-width="1.42487" stroke-linecap="round"/>
<path d="M59.3874 48.4008C60.5672 50.0247 61.5008 51.8131 62.1585 53.708C62.1773 53.762 62.1958 53.816 62.214 53.8701C62.2392 53.9445 62.2639 54.0192 62.2882 54.0939" stroke="#0089FF" stroke-width="1.42487" stroke-linecap="round"/>
<path d="M54.8694 43.8828C56.4933 45.0626 57.9338 46.475 59.1449 48.0739C59.1794 48.1195 59.2137 48.1651 59.2478 48.2109C59.2947 48.274 59.3413 48.3373 59.3875 48.4009" stroke="#0089FF" stroke-width="1.42487" stroke-linecap="round"/>
<path d="M49.1755 40.981C51.0845 41.6013 52.891 42.4994 54.5369 43.6458C54.5838 43.6785 54.6305 43.7113 54.6771 43.7443C54.7412 43.7898 54.805 43.8356 54.8686 43.8818" stroke="#0089FF" stroke-width="1.42487" stroke-linecap="round"/>
<path d="M42.8651 39.9809C44.8724 39.9809 46.868 40.2769 48.7876 40.8585C48.8423 40.8751 48.8969 40.8919 48.9514 40.9089C49.0264 40.9323 49.1013 40.9562 49.176 40.9805" stroke="#0089FF" stroke-width="1.42487" stroke-linecap="round"/>
<path d="M36.5545 40.981C38.4636 40.3607 40.453 40.0255 42.4584 39.9855C42.5155 39.9844 42.5726 39.9835 42.6297 39.9828C42.7082 39.9819 42.7869 39.9815 42.8654 39.9815" stroke="#0089FF" stroke-width="1.42487" stroke-linecap="round"/>
<path d="M30.8607 43.8828C32.4847 42.7029 34.2731 41.7693 36.168 41.1116C36.2219 41.0929 36.276 41.0744 36.3301 41.0561C36.4045 41.031 36.4791 41.0062 36.5539 40.982" stroke="#0089FF" stroke-width="1.42487" stroke-linecap="round"/>
<path d="M26.3426 48.4008C27.5225 46.7768 28.9349 45.3363 30.5338 44.1252C30.5793 44.0907 30.625 44.0564 30.6708 44.0223C30.7338 43.9754 30.7971 43.9288 30.8607 43.8827" stroke="#0089FF" stroke-width="1.42487" stroke-linecap="round"/>
<path d="M23.4433 54.0915C24.0636 52.1825 24.9617 50.376 26.1081 48.7301C26.1408 48.6832 26.1736 48.6365 26.2066 48.5899C26.2521 48.5258 26.2979 48.4619 26.3441 48.3984" stroke="#0089FF" stroke-width="1.42487" stroke-linecap="round"/>
<path d="M22.4428 60.4043C22.4428 58.397 22.7388 56.4014 23.3205 54.4818C23.337 54.4271 23.3538 54.3726 23.3708 54.318C23.3942 54.243 23.4181 54.1681 23.4424 54.0934" stroke="#0089FF" stroke-width="1.42487" stroke-linecap="round"/>
<path d="M23.4433 66.7151C22.823 64.8061 22.4878 62.8167 22.4478 60.8113C22.4467 60.7542 22.4458 60.6971 22.4451 60.64C22.4442 60.5614 22.4437 60.4828 22.4437 60.4042" stroke="#0089FF" stroke-width="1.42487" stroke-linecap="round"/>
<path d="M26.3426 72.4078C25.1627 70.7839 24.2292 68.9955 23.5714 67.1006C23.5527 67.0466 23.5342 66.9926 23.5159 66.9385C23.4908 66.864 23.4661 66.7894 23.4418 66.7147" stroke="#0089FF" stroke-width="1.42487" stroke-linecap="round"/>
<path d="M30.8607 76.9239C29.2368 75.744 27.7963 74.3316 26.5852 72.7327C26.5507 72.6872 26.5164 72.6415 26.4823 72.5957C26.4354 72.5327 26.3888 72.4693 26.3426 72.4058" stroke="#0089FF" stroke-width="1.42487" stroke-linecap="round"/>
<path d="M36.5545 79.8256C34.6455 79.2053 32.839 78.3072 31.1931 77.1608C31.1462 77.1282 31.0995 77.0953 31.0529 77.0623C30.9888 77.0168 30.9249 76.971 30.8614 76.9248" stroke="#0089FF" stroke-width="1.42487" stroke-linecap="round"/>
<path d="M42.8651 80.8257C40.8578 80.8257 38.8622 80.5298 36.9426 79.9481C36.888 79.9315 36.8334 79.9147 36.7789 79.8977C36.7039 79.8743 36.6289 79.8505 36.5542 79.8262" stroke="#0089FF" stroke-width="1.42487" stroke-linecap="round"/>
<g clip-path="url(#clip2)">
<path d="M39.0898 65.8934V54.9219" stroke="#606580" stroke-width="1.42487" stroke-miterlimit="10" stroke-linecap="round" stroke-linejoin="round"/>
<path d="M32.3928 65.8934V54.9219" stroke="#606580" stroke-width="1.42487" stroke-miterlimit="10" stroke-linecap="round" stroke-linejoin="round"/>
<path d="M41.7259 62.3304L41.8683 62.1879C42.652 61.4043 43.4357 61.9742 43.5782 62.1879C44.0769 62.6866 44.0769 63.4703 43.5782 63.8978L41.5834 65.8926H44.0057" stroke="#606580" stroke-width="1.42487" stroke-miterlimit="10" stroke-linecap="round" stroke-linejoin="round"/>
<path d="M32.7491 60.4062H38.9473" stroke="#606580" stroke-width="1.42487" stroke-miterlimit="10" stroke-linecap="round" stroke-linejoin="round"/>
<path d="M49.9901 65.8934C48.1377 65.8934 46.6416 64.3973 46.6416 62.5449V58.2703C46.6416 56.418 48.1377 54.9219 49.9901 54.9219C51.8424 54.9219 53.3385 56.418 53.3385 58.2703V62.5449C53.3385 64.3973 51.8424 65.8934 49.9901 65.8934Z" stroke="#606580" stroke-width="1.42487" stroke-miterlimit="10" stroke-linecap="round" stroke-linejoin="round"/>
</g>
<circle cx="281.239" cy="59.5864" r="24.6818" fill="#12151E" fill-opacity="0.5" stroke="#272A38" stroke-width="0.715415"/>
<path d="M287.575 79.0933C285.528 79.7583 283.389 80.097 281.237 80.097" stroke="#12151E" stroke-width="1.43083"/>
<path d="M293.294 76.1792C291.553 77.4441 289.624 78.4271 287.577 79.0921" stroke="#12151E" stroke-width="1.43083"/>
<path d="M297.83 71.6447C296.565 73.3857 295.034 74.9167 293.293 76.1816" stroke="#12151E" stroke-width="1.43083"/>
<path d="M300.743 65.9254C300.078 67.9721 299.095 69.9013 297.83 71.6423" stroke="#12151E" stroke-width="1.43083"/>
<path d="M301.745 59.5898C301.745 61.7418 301.406 63.8804 300.741 65.9271" stroke="#12151E" stroke-width="1.43083"/>
<path d="M300.743 53.2523C301.408 55.299 301.746 57.4376 301.746 59.5896" stroke="#12151E" stroke-width="1.43083"/>
<path d="M297.83 47.535C299.095 49.276 300.078 51.2053 300.743 53.252" stroke="#12151E" stroke-width="1.43083"/>
<path d="M293.294 42.9985C295.035 44.2634 296.566 45.7945 297.831 47.5355" stroke="#12151E" stroke-width="1.43083"/>
<path d="M287.575 40.0845C289.621 40.7495 291.551 41.7325 293.292 42.9974" stroke="#12151E" stroke-width="1.43083"/>
<path d="M281.238 39.0822C283.39 39.0822 285.529 39.4209 287.575 40.0859" stroke="#12151E" stroke-width="1.43083"/>
<path d="M274.901 40.0845C276.948 39.4195 279.086 39.0807 281.238 39.0807" stroke="#12151E" stroke-width="1.43083"/>
<path d="M269.184 42.9985C270.925 41.7336 272.854 40.7506 274.901 40.0856" stroke="#12151E" stroke-width="1.43083"/>
<path d="M264.648 47.535C265.912 45.794 267.444 44.263 269.185 42.998" stroke="#12151E" stroke-width="1.43083"/>
<path d="M261.735 53.2523C262.4 51.2057 263.383 49.2764 264.648 47.5354" stroke="#12151E" stroke-width="1.43083"/>
<path d="M260.731 59.5898C260.731 57.4378 261.07 55.2993 261.735 53.2526" stroke="#12151E" stroke-width="1.43083"/>
<path d="M261.735 65.9254C261.07 63.8787 260.731 61.7401 260.731 59.5881" stroke="#12151E" stroke-width="1.43083"/>
<path d="M264.648 71.6447C263.383 69.9037 262.4 67.9744 261.735 65.9277" stroke="#12151E" stroke-width="1.43083"/>
<path d="M269.184 76.1792C267.443 74.9143 265.912 73.3832 264.647 71.6422" stroke="#12151E" stroke-width="1.43083"/>
<path d="M274.901 79.0933C272.854 78.4283 270.925 77.4453 269.184 76.1803" stroke="#12151E" stroke-width="1.43083"/>
<path d="M281.238 80.0955C279.086 80.0955 276.947 79.7568 274.901 79.0918" stroke="#12151E" stroke-width="1.43083"/>
<path d="M287.575 79.0933C285.658 79.7162 283.66 80.0528 281.646 80.0929C281.589 80.0941 281.532 80.095 281.474 80.0956C281.395 80.0965 281.316 80.097 281.237 80.097" stroke="#0089FF" stroke-width="1.43083" stroke-linecap="round"/>
<path d="M293.294 76.1792C291.663 77.364 289.867 78.3015 287.964 78.962C287.91 78.9808 287.856 78.9993 287.802 79.0177C287.727 79.0429 287.652 79.0678 287.577 79.0921" stroke="#0089FF" stroke-width="1.43083" stroke-linecap="round"/>
<path d="M297.83 71.6447C296.645 73.2754 295.227 74.7219 293.622 75.9381C293.576 75.9727 293.53 76.0071 293.484 76.0414C293.421 76.0885 293.357 76.1353 293.293 76.1816" stroke="#0089FF" stroke-width="1.43083" stroke-linecap="round"/>
<path d="M300.743 65.9254C300.12 67.8424 299.218 69.6565 298.067 71.3093C298.034 71.3563 298.001 71.4032 297.968 71.45C297.922 71.5144 297.876 71.5785 297.83 71.6423" stroke="#0089FF" stroke-width="1.43083" stroke-linecap="round"/>
<path d="M301.745 59.5898C301.745 61.6055 301.448 63.6095 300.864 65.5371C300.847 65.592 300.83 65.6468 300.813 65.7015C300.79 65.7769 300.766 65.8521 300.741 65.9271" stroke="#0089FF" stroke-width="1.43083" stroke-linecap="round"/>
<path d="M300.743 53.2523C301.366 55.1694 301.702 57.167 301.742 59.1809C301.743 59.2382 301.744 59.2955 301.745 59.3529C301.746 59.4318 301.746 59.5107 301.746 59.5896" stroke="#0089FF" stroke-width="1.43083" stroke-linecap="round"/>
<path d="M297.83 47.535C299.015 49.1658 299.952 50.9616 300.613 52.8645C300.632 52.9186 300.65 52.9729 300.669 53.0272C300.694 53.102 300.719 53.1769 300.743 53.252" stroke="#0089FF" stroke-width="1.43083" stroke-linecap="round"/>
<path d="M293.294 42.9985C294.925 44.1833 296.371 45.6016 297.587 47.2072C297.622 47.2529 297.656 47.2988 297.691 47.3448C297.738 47.4081 297.784 47.4717 297.831 47.5355" stroke="#0089FF" stroke-width="1.43083" stroke-linecap="round"/>
<path d="M287.575 40.0845C289.492 40.7073 291.306 41.6092 292.959 42.7604C293.006 42.7932 293.053 42.8262 293.099 42.8593C293.164 42.905 293.228 42.951 293.292 42.9974" stroke="#0089FF" stroke-width="1.43083" stroke-linecap="round"/>
<path d="M281.238 39.0822C283.254 39.0822 285.258 39.3794 287.185 39.9635C287.24 39.9801 287.295 39.997 287.35 40.0141C287.425 40.0376 287.5 40.0616 287.575 40.0859" stroke="#0089FF" stroke-width="1.43083" stroke-linecap="round"/>
<path d="M274.901 40.0845C276.818 39.4616 278.816 39.125 280.83 39.0848C280.887 39.0837 280.944 39.0828 281.002 39.0821C281.081 39.0812 281.16 39.0807 281.238 39.0807" stroke="#0089FF" stroke-width="1.43083" stroke-linecap="round"/>
<path d="M269.184 42.9985C270.815 41.8137 272.611 40.8763 274.514 40.2158C274.568 40.197 274.622 40.1784 274.676 40.16C274.751 40.1348 274.826 40.11 274.901 40.0856" stroke="#0089FF" stroke-width="1.43083" stroke-linecap="round"/>
<path d="M264.648 47.535C265.832 45.9043 267.251 44.4578 268.856 43.2416C268.902 43.207 268.948 43.1725 268.994 43.1383C269.057 43.0912 269.121 43.0444 269.185 42.998" stroke="#0089FF" stroke-width="1.43083" stroke-linecap="round"/>
<path d="M261.735 53.2523C262.358 51.3353 263.26 49.5213 264.411 47.8685C264.444 47.8214 264.477 47.7745 264.51 47.7277C264.556 47.6634 264.602 47.5992 264.648 47.5354" stroke="#0089FF" stroke-width="1.43083" stroke-linecap="round"/>
<path d="M260.731 59.5898C260.731 57.5742 261.028 55.5702 261.612 53.6426C261.629 53.5877 261.646 53.5329 261.663 53.4781C261.686 53.4028 261.71 53.3276 261.735 53.2526" stroke="#0089FF" stroke-width="1.43083" stroke-linecap="round"/>
<path d="M261.735 65.9254C261.112 64.0084 260.776 62.0107 260.735 59.9969C260.734 59.9396 260.733 59.8822 260.733 59.8249C260.732 59.746 260.731 59.667 260.731 59.5881" stroke="#0089FF" stroke-width="1.43083" stroke-linecap="round"/>
<path d="M264.648 71.6447C263.463 70.0139 262.525 68.218 261.865 66.3152C261.846 66.261 261.827 66.2068 261.809 66.1525C261.784 66.0777 261.759 66.0028 261.735 65.9277" stroke="#0089FF" stroke-width="1.43083" stroke-linecap="round"/>
<path d="M269.184 76.1792C267.553 74.9944 266.107 73.5761 264.891 71.9705C264.856 71.9248 264.822 71.879 264.787 71.833C264.74 71.7697 264.693 71.7061 264.647 71.6422" stroke="#0089FF" stroke-width="1.43083" stroke-linecap="round"/>
<path d="M274.901 79.0933C272.984 78.4704 271.17 77.5685 269.517 76.4173C269.47 76.3845 269.423 76.3516 269.377 76.3184C269.312 76.2728 269.248 76.2267 269.184 76.1803" stroke="#0089FF" stroke-width="1.43083" stroke-linecap="round"/>
<path d="M281.238 80.0955C279.222 80.0955 277.218 79.7984 275.291 79.2142C275.236 79.1976 275.181 79.1807 275.126 79.1637C275.051 79.1401 274.976 79.1162 274.901 79.0918" stroke="#0089FF" stroke-width="1.43083" stroke-linecap="round"/>
<g clip-path="url(#clip3)">
<path d="M284.602 49.5734L281.883 58.2299H285.604L276.232 69.3904L280.023 60.877H276.732L284.602 49.5734ZM284.602 48.1426C284.531 48.1426 284.53 48.1426 284.459 48.1426C284.244 48.1426 284.03 48.2141 283.815 48.3572C283.672 48.4287 283.6 48.5718 283.457 48.6434L283.386 48.7149L275.588 60.09C275.302 60.5192 275.23 61.0916 275.516 61.5924C275.802 62.0932 276.232 62.3793 276.804 62.3793H277.806L274.944 68.8896C274.658 69.5335 274.872 70.3204 275.516 70.6781C275.731 70.8212 276.017 70.8928 276.303 70.8928C276.732 70.8928 277.09 70.7497 277.376 70.392L286.748 59.2315C287.106 58.8023 287.178 58.2299 286.963 57.7291C286.748 57.2283 286.247 56.8706 285.675 56.8706H283.887L285.961 50.1457C286.033 50.0027 286.033 49.8596 286.033 49.6449C286.033 48.7865 285.389 48.1426 284.602 48.1426Z" fill="#606580"/>
<path d="M278.736 50.1465C275.802 50.9334 273.227 53.0081 272.011 56.0844C270.795 59.2322 271.295 62.6662 273.012 65.3133" stroke="#606580" stroke-width="1.43083" stroke-miterlimit="10" stroke-linecap="round" stroke-linejoin="round"/>
<path d="M281.812 69.6059C285.532 69.3913 289.038 67.102 290.469 63.3818C291.899 59.6617 290.969 55.5838 288.394 52.8652" stroke="#606580" stroke-width="1.43083" stroke-miterlimit="10" stroke-linecap="round" stroke-linejoin="round"/>
</g>
<path d="M119.481 96.1875H116.207V95.5021H117.424V91.0017H116.207V90.3884C116.667 90.3884 117.005 90.3238 117.221 90.1945C117.441 90.0622 117.564 89.8142 117.591 89.4504H118.29V95.5021H119.481V96.1875ZM123.886 91.0377C123.886 90.7371 123.786 90.4861 123.584 90.2847C123.383 90.0832 123.103 89.9825 122.746 89.9825C122.418 89.9825 122.149 90.0727 121.938 90.2531C121.731 90.4335 121.627 90.677 121.627 90.9836C121.627 91.2061 121.68 91.394 121.785 91.5473C121.893 91.7006 122.054 91.8389 122.268 91.9622C122.361 92.0133 122.502 92.0839 122.691 92.1741C122.884 92.2643 123.058 92.335 123.214 92.3861C123.476 92.1846 123.653 91.9787 123.747 91.7683C123.84 91.5548 123.886 91.3113 123.886 91.0377ZM124.013 94.4018C124.013 94.1252 123.959 93.9057 123.85 93.7434C123.742 93.5811 123.533 93.4157 123.224 93.2474C123.121 93.1902 122.985 93.1286 122.813 93.0625C122.645 92.9963 122.454 92.9182 122.24 92.828C121.991 92.9933 121.8 93.1978 121.668 93.4413C121.535 93.6818 121.469 93.9568 121.469 94.2665C121.469 94.6723 121.591 95.0075 121.835 95.2721C122.081 95.5366 122.389 95.6689 122.759 95.6689C123.138 95.6689 123.441 95.5562 123.67 95.3307C123.898 95.1022 124.013 94.7926 124.013 94.4018ZM122.75 96.3408C122.416 96.3408 122.113 96.2912 121.839 96.192C121.566 96.0928 121.333 95.95 121.14 95.7636C120.951 95.5832 120.806 95.3698 120.707 95.1233C120.611 94.8738 120.563 94.6107 120.563 94.3341C120.563 93.9704 120.659 93.6367 120.852 93.333C121.047 93.0264 121.33 92.7829 121.699 92.6025V92.5755C121.369 92.3831 121.124 92.1726 120.964 91.9441C120.805 91.7157 120.725 91.4301 120.725 91.0873C120.725 90.5823 120.916 90.1614 121.298 89.8247C121.68 89.488 122.164 89.3197 122.75 89.3197C123.36 89.3197 123.849 89.4805 124.216 89.8022C124.585 90.1208 124.77 90.5297 124.77 91.0287C124.77 91.3294 124.682 91.627 124.504 91.9216C124.33 92.2162 124.077 92.4462 123.747 92.6115V92.6386C124.137 92.822 124.434 93.0444 124.635 93.306C124.836 93.5675 124.937 93.9042 124.937 94.3161C124.937 94.8903 124.728 95.3713 124.31 95.7591C123.895 96.1469 123.375 96.3408 122.75 96.3408ZM129.938 92.828C129.938 94.0335 129.762 94.9188 129.41 95.484C129.062 96.0462 128.522 96.3273 127.792 96.3273C127.052 96.3273 126.509 96.0402 126.164 95.466C125.818 94.8918 125.645 94.0155 125.645 92.837C125.645 91.6255 125.819 90.7401 126.168 90.181C126.52 89.6188 127.061 89.3377 127.792 89.3377C128.531 89.3377 129.074 89.6278 129.419 90.208C129.765 90.7882 129.938 91.6615 129.938 92.828ZM128.784 94.8753C128.871 94.6528 128.932 94.3717 128.969 94.032C129.005 93.6923 129.023 93.2909 129.023 92.828C129.023 92.368 129.005 91.9682 128.969 91.6285C128.932 91.2888 128.869 91.0062 128.779 90.7807C128.689 90.5522 128.564 90.3794 128.405 90.2621C128.249 90.1419 128.044 90.0817 127.792 90.0817C127.542 90.0817 127.336 90.1419 127.174 90.2621C127.014 90.3794 126.888 90.5552 126.795 90.7897C126.705 91.0182 126.643 91.3068 126.61 91.6555C126.577 92.0043 126.56 92.3981 126.56 92.837C126.56 93.306 126.574 93.6983 126.601 94.014C126.631 94.3296 126.694 94.6122 126.79 94.8617C126.878 95.0932 127.001 95.2721 127.16 95.3984C127.323 95.5216 127.533 95.5832 127.792 95.5832C128.041 95.5832 128.246 95.5246 128.405 95.4074C128.567 95.2871 128.693 95.1097 128.784 94.8753Z" fill="#8C99B2"/>
<path d="M103.562 29.6934V23.7725H101.308V22.9788H106.71V23.7725H104.455V29.6934H103.562ZM109.506 29.8106C108.703 29.8106 108.079 29.5851 107.634 29.1342C107.193 28.6802 106.972 28.0369 106.972 27.2042C106.972 26.3834 107.187 25.7311 107.616 25.2471C108.046 24.7601 108.609 24.5165 109.303 24.5165C109.616 24.5165 109.892 24.5616 110.133 24.6518C110.373 24.742 110.584 24.8833 110.764 25.0757C110.944 25.2681 111.083 25.5041 111.179 25.7837C111.275 26.0603 111.323 26.4 111.323 26.8028V27.2628H107.833C107.833 27.849 107.98 28.2969 108.275 28.6066C108.569 28.9162 108.977 29.0711 109.497 29.0711C109.683 29.0711 109.865 29.05 110.043 29.0079C110.223 28.9658 110.385 28.9117 110.53 28.8456C110.683 28.7764 110.812 28.7103 110.917 28.6472C111.023 28.581 111.11 28.5194 111.179 28.4623H111.228V29.3867C111.129 29.4258 111.006 29.4754 110.859 29.5355C110.711 29.5926 110.579 29.6377 110.462 29.6708C110.297 29.7159 110.146 29.7505 110.011 29.7745C109.879 29.7986 109.71 29.8106 109.506 29.8106ZM110.498 26.6134C110.492 26.3849 110.465 26.188 110.417 26.0227C110.369 25.8573 110.3 25.7176 110.209 25.6033C110.11 25.4771 109.982 25.3809 109.826 25.3147C109.673 25.2486 109.482 25.2155 109.253 25.2155C109.028 25.2155 108.835 25.2501 108.676 25.3192C108.52 25.3854 108.377 25.4831 108.248 25.6123C108.121 25.7446 108.025 25.8919 107.959 26.0543C107.893 26.2136 107.851 26.4 107.833 26.6134H110.498ZM116.157 29.6934H115.31V25.3869H113.028V29.6934H112.18V24.6563H116.157V29.6934ZM121.284 29.6934H120.437V25.3688H118.705C118.696 25.6183 118.687 25.8588 118.678 26.0903C118.669 26.3188 118.66 26.5262 118.651 26.7126C118.633 27.1846 118.601 27.5799 118.556 27.8986C118.514 28.2173 118.46 28.4728 118.394 28.6652C118.328 28.8636 118.254 29.0184 118.173 29.1297C118.095 29.2409 118.006 29.3416 117.907 29.4318C117.805 29.522 117.695 29.5896 117.578 29.6347C117.461 29.6798 117.328 29.7024 117.181 29.7024C117.133 29.7024 117.071 29.7009 116.996 29.6979C116.921 29.6949 116.868 29.6934 116.838 29.6934V28.9538H116.883C116.904 28.9538 116.925 28.9553 116.946 28.9583C116.97 28.9613 116.998 28.9628 117.028 28.9628C117.1 28.9628 117.17 28.9523 117.24 28.9313C117.309 28.9102 117.37 28.8711 117.424 28.814C117.575 28.6667 117.684 28.4097 117.754 28.0429C117.823 27.6731 117.872 27.1576 117.902 26.4962C117.914 26.2497 117.925 25.9581 117.934 25.6214C117.946 25.2846 117.957 24.963 117.966 24.6563H121.284V29.6934ZM126.66 27.1771C126.66 28.0249 126.455 28.6802 126.046 29.1432C125.638 29.6032 125.093 29.8332 124.414 29.8332C123.714 29.8332 123.162 29.5957 122.759 29.1207C122.359 28.6427 122.159 27.9948 122.159 27.1771C122.159 26.3353 122.365 25.6815 122.777 25.2155C123.192 24.7495 123.738 24.5165 124.414 24.5165C125.093 24.5165 125.638 24.7495 126.046 25.2155C126.455 25.6785 126.66 26.3323 126.66 27.1771ZM125.785 27.1771C125.785 26.5247 125.666 26.0407 125.429 25.7251C125.191 25.4064 124.853 25.2471 124.414 25.2471C123.972 25.2471 123.631 25.4064 123.39 25.7251C123.153 26.0407 123.034 26.5247 123.034 27.1771C123.034 27.8084 123.153 28.2879 123.39 28.6156C123.631 28.9403 123.972 29.1026 124.414 29.1026C124.85 29.1026 125.187 28.9433 125.424 28.6246C125.665 28.303 125.785 27.8204 125.785 27.1771ZM129.866 27.1636H127.323V26.3474H129.866V27.1636ZM134.087 25.4004H131.733V29.6934H130.885V24.6563H134.087V25.4004ZM138.695 29.6934H137.857V25.937L135.485 29.6934H134.718V24.6563H135.557V28.3541L137.902 24.6563H138.695V29.6934ZM143.57 29.6934H142.722V27.6957H141.884L140.391 29.6934H139.403L141.022 27.619C140.604 27.4958 140.298 27.3124 140.102 27.0689C139.91 26.8254 139.814 26.4992 139.814 26.0903C139.814 25.8408 139.868 25.6229 139.976 25.4365C140.087 25.2471 140.236 25.0877 140.422 24.9585C140.573 24.8563 140.762 24.7811 140.991 24.733C141.219 24.6819 141.475 24.6563 141.757 24.6563H143.57V29.6934ZM142.722 27.0283V25.3328H141.802C141.607 25.3328 141.452 25.3433 141.338 25.3643C141.227 25.3854 141.118 25.4259 141.013 25.4861C140.905 25.5522 140.822 25.6424 140.765 25.7566C140.711 25.8679 140.684 25.9881 140.684 26.1174C140.684 26.2827 140.702 26.418 140.738 26.5232C140.777 26.6255 140.846 26.7201 140.946 26.8073C141.051 26.8975 141.179 26.9576 141.329 26.9877C141.482 27.0148 141.649 27.0283 141.829 27.0283H142.722Z" fill="#8C99B2"/>
<path d="M42.844 94.05C42.844 94.3747 42.7914 94.6753 42.6861 94.9519C42.5839 95.2285 42.4396 95.4675 42.2532 95.6689C42.0638 95.8733 41.8279 96.0342 41.5453 96.1514C41.2657 96.2687 40.9515 96.3273 40.6028 96.3273C40.2811 96.3273 39.964 96.2912 39.6513 96.2191C39.3417 96.1499 39.0726 96.0582 38.8441 95.944V94.9925H38.9073C38.9764 95.0436 39.0756 95.1022 39.2049 95.1684C39.3341 95.2315 39.4769 95.2916 39.6333 95.3487C39.8106 95.4119 39.973 95.4615 40.1203 95.4976C40.2676 95.5306 40.4329 95.5472 40.6163 95.5472C40.7967 95.5472 40.9726 95.5156 41.1439 95.4525C41.3153 95.3863 41.4626 95.2811 41.5858 95.1368C41.6971 95.0045 41.7813 94.8497 41.8384 94.6723C41.8985 94.495 41.9286 94.286 41.9286 94.0455C41.9286 93.808 41.8955 93.6126 41.8294 93.4593C41.7662 93.306 41.673 93.1797 41.5498 93.0805C41.4205 92.9663 41.2612 92.8866 41.0718 92.8415C40.8854 92.7934 40.6764 92.7694 40.445 92.7694C40.2015 92.7694 39.9564 92.7889 39.7099 92.828C39.4634 92.8641 39.2665 92.8986 39.1192 92.9317V89.473H42.8034V90.2621H39.9895V92.0479C40.0977 92.0358 40.2045 92.0268 40.3097 92.0208C40.4149 92.0148 40.5111 92.0118 40.5983 92.0118C40.941 92.0118 41.2311 92.0403 41.4686 92.0975C41.7061 92.1546 41.9346 92.2658 42.154 92.4312C42.3765 92.5995 42.5464 92.8099 42.6636 93.0625C42.7838 93.315 42.844 93.6442 42.844 94.05ZM48.0659 94.0095C48.0659 94.3552 48.0088 94.6738 47.8945 94.9654C47.7803 95.2571 47.627 95.5006 47.4346 95.696C47.2331 95.9034 47.0077 96.0612 46.7582 96.1695C46.5086 96.2747 46.2336 96.3273 45.9329 96.3273C45.6293 96.3273 45.3527 96.2762 45.1032 96.174C44.8567 96.0718 44.6387 95.9199 44.4493 95.7185C44.2178 95.475 44.036 95.1503 43.9037 94.7445C43.7744 94.3356 43.7098 93.8336 43.7098 93.2383C43.7098 92.6551 43.7699 92.129 43.8902 91.66C44.0104 91.1881 44.1953 90.7777 44.4448 90.429C44.6883 90.0893 45.0025 89.8247 45.3873 89.6353C45.7721 89.4429 46.217 89.3467 46.7221 89.3467C46.8724 89.3467 47.0122 89.3542 47.1415 89.3693C47.2707 89.3843 47.385 89.4083 47.4842 89.4414V90.3027H47.4436C47.3624 90.2576 47.2452 90.217 47.0918 90.181C46.9385 90.1419 46.7747 90.1223 46.6003 90.1223C46.0412 90.1223 45.5887 90.3117 45.243 90.6905C44.9003 91.0663 44.6973 91.6255 44.6342 92.368C44.8477 92.2177 45.0671 92.102 45.2926 92.0208C45.5181 91.9396 45.7646 91.899 46.0321 91.899C46.2937 91.899 46.5222 91.9261 46.7176 91.9802C46.916 92.0313 47.1219 92.1365 47.3354 92.2959C47.5819 92.4823 47.7653 92.7183 47.8855 93.0038C48.0058 93.2894 48.0659 93.6246 48.0659 94.0095ZM47.1505 94.0455C47.1505 93.7689 47.1144 93.5375 47.0422 93.3511C46.9701 93.1647 46.8528 93.0054 46.6905 92.8731C46.5733 92.7769 46.4395 92.7137 46.2892 92.6837C46.1419 92.6536 45.99 92.6386 45.8337 92.6386C45.6233 92.6386 45.4189 92.6702 45.2204 92.7333C45.022 92.7964 44.8266 92.8881 44.6342 93.0084C44.6282 93.0745 44.6237 93.1391 44.6207 93.2023C44.6177 93.2624 44.6162 93.339 44.6162 93.4322C44.6162 93.8982 44.6613 94.274 44.7515 94.5596C44.8447 94.8452 44.9589 95.0616 45.0942 95.209C45.2234 95.3503 45.3557 95.4495 45.491 95.5066C45.6293 95.5637 45.7781 95.5923 45.9374 95.5923C46.2982 95.5923 46.5898 95.463 46.8123 95.2044C47.0377 94.9459 47.1505 94.5596 47.1505 94.0455Z" fill="#8C99B2"/>
<path d="M37.9412 27.6326C37.9412 27.9663 37.8781 28.2609 37.7519 28.5164C37.6256 28.7719 37.4557 28.9824 37.2423 29.1477C36.9898 29.3461 36.7192 29.4874 36.4306 29.5716C36.142 29.6528 35.7692 29.6934 35.3123 29.6934H33.3867V22.9788H35.168C35.646 22.9788 36.0037 22.9954 36.2412 23.0284C36.4817 23.0585 36.7117 23.1322 36.9311 23.2494C37.1716 23.3787 37.3475 23.5485 37.4587 23.759C37.57 23.9664 37.6256 24.2114 37.6256 24.494C37.6256 24.8097 37.5414 25.0922 37.3731 25.3418C37.2077 25.5913 36.9777 25.7867 36.6831 25.928V25.9641C37.083 26.0723 37.3926 26.2707 37.6121 26.5593C37.8315 26.8449 37.9412 27.2027 37.9412 27.6326ZM36.6966 24.6203C36.6966 24.4579 36.6696 24.3181 36.6155 24.2009C36.5614 24.0806 36.4742 23.9859 36.3539 23.9168C36.2096 23.8356 36.0488 23.786 35.8714 23.768C35.6941 23.7499 35.449 23.7409 35.1364 23.7409H34.2796V25.707H35.2942C35.5738 25.707 35.7797 25.6935 35.912 25.6664C36.0443 25.6364 36.1811 25.5763 36.3224 25.4861C36.4576 25.3989 36.5538 25.2846 36.611 25.1434C36.6681 25.0021 36.6966 24.8277 36.6966 24.6203ZM37.0123 27.6686C37.0123 27.4161 36.9762 27.2087 36.9041 27.0463C36.8319 26.881 36.6861 26.7412 36.4667 26.627C36.3254 26.5518 36.1705 26.5037 36.0022 26.4827C35.8369 26.4616 35.6009 26.4511 35.2942 26.4511H34.2796V28.9313H35.0056C35.3964 28.9313 35.7046 28.9132 35.93 28.8772C36.1555 28.8411 36.3539 28.7644 36.5253 28.6472C36.6936 28.5299 36.8169 28.3977 36.8951 28.2503C36.9732 28.1 37.0123 27.9061 37.0123 27.6686ZM42.9106 27.1771C42.9106 28.0249 42.7062 28.6802 42.2973 29.1432C41.8885 29.6032 41.3444 29.8332 40.6649 29.8332C39.9645 29.8332 39.4128 29.5957 39.01 29.1207C38.6101 28.6427 38.4102 27.9948 38.4102 27.1771C38.4102 26.3353 38.6162 25.6815 39.028 25.2155C39.4429 24.7495 39.9885 24.5165 40.6649 24.5165C41.3444 24.5165 41.8885 24.7495 42.2973 25.2155C42.7062 25.6785 42.9106 26.3323 42.9106 27.1771ZM42.0358 27.1771C42.0358 26.5247 41.9171 26.0407 41.6796 25.7251C41.4421 25.4064 41.1039 25.2471 40.6649 25.2471C40.223 25.2471 39.8818 25.4064 39.6413 25.7251C39.4038 26.0407 39.2851 26.5247 39.2851 27.1771C39.2851 27.8084 39.4038 28.2879 39.6413 28.6156C39.8818 28.9403 40.223 29.1026 40.6649 29.1026C41.1008 29.1026 41.4376 28.9433 41.675 28.6246C41.9155 28.303 42.0358 27.8204 42.0358 27.1771ZM48.101 30.9019H47.3118V29.6798H43.9929V30.9019H43.2037V28.9719H43.5374C43.823 28.5029 44.056 27.8911 44.2364 27.1365C44.4198 26.3789 44.5115 25.5522 44.5115 24.6563H47.6004V28.9719H48.101V30.9019ZM46.7527 28.9719V25.3688H45.3096C45.2706 26.1204 45.1668 26.8073 44.9985 27.4296C44.8331 28.0489 44.6242 28.563 44.3717 28.9719H46.7527ZM51.7536 28.4533V27.0553C51.5522 27.0734 51.2966 27.0989 50.987 27.132C50.6804 27.1621 50.4323 27.2057 50.2429 27.2628C50.0175 27.3319 49.8311 27.4386 49.6838 27.583C49.5365 27.7242 49.4628 27.9227 49.4628 28.1782C49.4628 28.4668 49.544 28.6848 49.7063 28.8321C49.8687 28.9794 50.1062 29.053 50.4188 29.053C50.6864 29.053 50.9284 28.9959 51.1448 28.8817C51.3613 28.7644 51.5642 28.6216 51.7536 28.4533ZM51.7536 29.1567C51.6845 29.2078 51.5913 29.28 51.474 29.3732C51.3598 29.4634 51.2485 29.5355 51.1403 29.5896C50.99 29.6678 50.8442 29.7279 50.7029 29.77C50.5646 29.8121 50.3692 29.8332 50.1167 29.8332C49.9092 29.8332 49.7123 29.7941 49.5259 29.7159C49.3396 29.6377 49.1757 29.528 49.0344 29.3867C48.8991 29.2484 48.7909 29.0786 48.7097 28.8772C48.6286 28.6727 48.588 28.4578 48.588 28.2323C48.588 27.8836 48.6616 27.5875 48.809 27.344C48.9563 27.0974 49.1892 26.902 49.5079 26.7577C49.7905 26.6285 50.1242 26.5398 50.509 26.4917C50.8938 26.4406 51.3087 26.403 51.7536 26.3789V26.2166C51.7536 26.0182 51.7235 25.8588 51.6634 25.7386C51.6033 25.6153 51.5191 25.5206 51.4109 25.4545C51.3027 25.3854 51.1704 25.3403 51.0141 25.3192C50.8577 25.2952 50.6969 25.2831 50.5315 25.2831C50.3361 25.2831 50.1062 25.3132 49.8416 25.3733C49.5771 25.4305 49.3125 25.5146 49.0479 25.6259H48.9983V24.7646C49.1547 24.7195 49.3786 24.6699 49.6702 24.6158C49.9619 24.5616 50.2505 24.5346 50.5361 24.5346C50.8818 24.5346 51.1734 24.5616 51.4109 24.6158C51.6484 24.6699 51.8618 24.7676 52.0512 24.9089C52.2346 25.0472 52.3714 25.226 52.4616 25.4455C52.5518 25.6649 52.5969 25.9325 52.5969 26.2482V29.6934H51.7536V29.1567Z" fill="#8C99B2"/>
<path d="M200.884 92.2327C200.884 91.7758 200.842 91.4045 200.758 91.1189C200.673 90.8303 200.558 90.6078 200.41 90.4515C200.278 90.3072 200.144 90.208 200.009 90.1539C199.874 90.0998 199.725 90.0727 199.563 90.0727C199.193 90.0727 198.898 90.205 198.679 90.4696C198.459 90.7341 198.35 91.1174 198.35 91.6195C198.35 91.902 198.386 92.135 198.458 92.3184C198.53 92.5018 198.647 92.6596 198.81 92.7919C198.924 92.8851 199.053 92.9482 199.197 92.9813C199.342 93.0114 199.496 93.0264 199.662 93.0264C199.854 93.0264 200.062 92.9933 200.284 92.9272C200.507 92.858 200.7 92.7679 200.866 92.6566C200.869 92.6115 200.872 92.5529 200.875 92.4808C200.881 92.4056 200.884 92.3229 200.884 92.2327ZM197.434 91.6555C197.434 91.3098 197.49 90.9942 197.601 90.7086C197.715 90.423 197.87 90.1764 198.065 89.969C198.252 89.7706 198.479 89.6158 198.746 89.5045C199.017 89.3933 199.291 89.3377 199.567 89.3377C199.877 89.3377 200.156 89.3903 200.406 89.4955C200.658 89.5977 200.876 89.7465 201.06 89.942C201.291 90.1885 201.47 90.5116 201.596 90.9115C201.726 91.3113 201.79 91.8164 201.79 92.4266C201.79 92.9828 201.727 93.5104 201.601 94.0095C201.478 94.5055 201.294 94.9173 201.051 95.245C200.792 95.5938 200.481 95.8598 200.117 96.0432C199.756 96.2266 199.31 96.3183 198.778 96.3183C198.658 96.3183 198.53 96.3108 198.395 96.2957C198.259 96.2837 198.133 96.2597 198.016 96.2236V95.3623H198.061C198.136 95.4044 198.253 95.4449 198.413 95.484C198.572 95.5231 198.734 95.5427 198.9 95.5427C199.489 95.5427 199.952 95.3487 200.289 94.9609C200.625 94.5731 200.816 94.0185 200.861 93.297C200.621 93.4593 200.391 93.578 200.171 93.6532C199.955 93.7284 199.719 93.7659 199.463 93.7659C199.214 93.7659 198.987 93.7389 198.782 93.6848C198.578 93.6307 198.372 93.5254 198.165 93.3691C197.924 93.1857 197.742 92.9542 197.619 92.6747C197.496 92.3921 197.434 92.0524 197.434 91.6555ZM206.913 94.0095C206.913 94.3552 206.856 94.6738 206.742 94.9654C206.627 95.2571 206.474 95.5006 206.282 95.696C206.08 95.9034 205.855 96.0612 205.605 96.1695C205.356 96.2747 205.081 96.3273 204.78 96.3273C204.476 96.3273 204.2 96.2762 203.95 96.174C203.704 96.0718 203.486 95.9199 203.296 95.7185C203.065 95.475 202.883 95.1503 202.751 94.7445C202.621 94.3356 202.557 93.8336 202.557 93.2383C202.557 92.6551 202.617 92.129 202.737 91.66C202.857 91.1881 203.042 90.7777 203.292 90.429C203.535 90.0893 203.85 89.8247 204.234 89.6353C204.619 89.4429 205.064 89.3467 205.569 89.3467C205.719 89.3467 205.859 89.3542 205.988 89.3693C206.118 89.3843 206.232 89.4083 206.331 89.4414V90.3027H206.291C206.209 90.2576 206.092 90.217 205.939 90.181C205.786 90.1419 205.622 90.1223 205.447 90.1223C204.888 90.1223 204.436 90.3117 204.09 90.6905C203.747 91.0663 203.544 91.6255 203.481 92.368C203.695 92.2177 203.914 92.102 204.14 92.0208C204.365 91.9396 204.612 91.899 204.879 91.899C205.141 91.899 205.369 91.9261 205.565 91.9802C205.763 92.0313 205.969 92.1365 206.182 92.2959C206.429 92.4823 206.612 92.7183 206.733 93.0038C206.853 93.2894 206.913 93.6246 206.913 94.0095ZM205.998 94.0455C205.998 93.7689 205.961 93.5375 205.889 93.3511C205.817 93.1647 205.7 93.0054 205.538 92.8731C205.42 92.7769 205.287 92.7137 205.136 92.6837C204.989 92.6536 204.837 92.6386 204.681 92.6386C204.47 92.6386 204.266 92.6702 204.067 92.7333C203.869 92.7964 203.674 92.8881 203.481 93.0084C203.475 93.0745 203.471 93.1391 203.468 93.2023C203.465 93.2624 203.463 93.339 203.463 93.4322C203.463 93.8982 203.508 94.274 203.599 94.5596C203.692 94.8452 203.806 95.0616 203.941 95.209C204.07 95.3503 204.203 95.4495 204.338 95.5066C204.476 95.5637 204.625 95.5923 204.784 95.5923C205.145 95.5923 205.437 95.463 205.659 95.2044C205.885 94.9459 205.998 94.5596 205.998 94.0455Z" fill="#8C99B2"/>
<path d="M186.415 29.6934V23.7725H184.16V22.9788H189.562V23.7725H187.308V29.6934H186.415ZM194.315 27.1771C194.315 28.0249 194.111 28.6802 193.702 29.1432C193.293 29.6032 192.749 29.8332 192.07 29.8332C191.369 29.8332 190.817 29.5957 190.415 29.1207C190.015 28.6427 189.815 27.9948 189.815 27.1771C189.815 26.3353 190.021 25.6815 190.433 25.2155C190.848 24.7495 191.393 24.5165 192.07 24.5165C192.749 24.5165 193.293 24.7495 193.702 25.2155C194.111 25.6785 194.315 26.3323 194.315 27.1771ZM193.44 27.1771C193.44 26.5247 193.322 26.0407 193.084 25.7251C192.847 25.4064 192.508 25.2471 192.07 25.2471C191.628 25.2471 191.286 25.4064 191.046 25.7251C190.808 26.0407 190.69 26.5247 190.69 27.1771C190.69 27.8084 190.808 28.2879 191.046 28.6156C191.286 28.9403 191.628 29.1026 192.07 29.1026C192.505 29.1026 192.842 28.9433 193.08 28.6246C193.32 28.303 193.44 27.8204 193.44 27.1771ZM199.163 29.6934H198.315V25.3869H196.033V29.6934H195.186V24.6563H199.163V29.6934ZM204.29 29.6934H203.442V25.3688H201.711C201.702 25.6183 201.693 25.8588 201.684 26.0903C201.675 26.3188 201.666 26.5262 201.657 26.7126C201.639 27.1846 201.607 27.5799 201.562 27.8986C201.52 28.2173 201.466 28.4728 201.4 28.6652C201.333 28.8636 201.26 29.0184 201.179 29.1297C201.1 29.2409 201.012 29.3416 200.913 29.4318C200.81 29.522 200.701 29.5896 200.583 29.6347C200.466 29.6798 200.334 29.7024 200.187 29.7024C200.138 29.7024 200.077 29.7009 200.002 29.6979C199.926 29.6949 199.874 29.6934 199.844 29.6934V28.9538H199.889C199.91 28.9538 199.931 28.9553 199.952 28.9583C199.976 28.9613 200.003 28.9628 200.033 28.9628C200.105 28.9628 200.176 28.9523 200.245 28.9313C200.314 28.9102 200.376 28.8711 200.43 28.814C200.58 28.6667 200.69 28.4097 200.759 28.0429C200.828 27.6731 200.878 27.1576 200.908 26.4962C200.92 26.2497 200.931 25.9581 200.94 25.6214C200.952 25.2846 200.962 24.963 200.971 24.6563H204.29V29.6934ZM209.498 29.6934H208.66V25.937L206.288 29.6934H205.521V24.6563H206.36V28.3541L208.705 24.6563H209.498V29.6934ZM214.675 28.1692C214.675 28.4127 214.629 28.6291 214.535 28.8185C214.442 29.0049 214.315 29.1612 214.152 29.2875C213.948 29.4468 213.733 29.5551 213.507 29.6122C213.285 29.6663 213.017 29.6934 212.705 29.6934H210.725V24.6563H212.574C212.944 24.6563 213.214 24.6684 213.386 24.6924C213.557 24.7135 213.727 24.7706 213.895 24.8638C214.073 24.96 214.203 25.0877 214.287 25.2471C214.372 25.4064 214.414 25.5958 214.414 25.8153C214.414 26.0558 214.348 26.2722 214.215 26.4646C214.083 26.654 213.907 26.8013 213.688 26.9065L213.71 26.9381C213.984 27.0072 214.212 27.147 214.396 27.3575C214.582 27.5679 214.675 27.8385 214.675 28.1692ZM213.543 25.946C213.543 25.8318 213.524 25.7326 213.485 25.6484C213.449 25.5642 213.384 25.4981 213.291 25.45C213.183 25.3929 213.061 25.3598 212.926 25.3508C212.793 25.3388 212.608 25.3328 212.371 25.3328H211.564V26.7126H212.538C212.745 26.7126 212.893 26.7036 212.98 26.6856C213.067 26.6645 213.163 26.6224 213.268 26.5593C213.368 26.4992 213.438 26.418 213.48 26.3158C213.522 26.2136 213.543 26.0903 213.543 25.946ZM213.8 28.1737C213.8 28.0023 213.775 27.8655 213.724 27.7633C213.676 27.6581 213.567 27.5649 213.399 27.4837C213.294 27.4326 213.181 27.4011 213.061 27.389C212.941 27.377 212.774 27.371 212.56 27.371H211.564V29.0169H212.299C212.602 29.0169 212.838 29.0049 213.007 28.9809C213.175 28.9568 213.319 28.9087 213.44 28.8366C213.566 28.7584 213.658 28.6682 213.715 28.566C213.772 28.4638 213.8 28.333 213.8 28.1737ZM219.712 27.1771C219.712 28.0249 219.508 28.6802 219.099 29.1432C218.69 29.6032 218.146 29.8332 217.467 29.8332C216.766 29.8332 216.215 29.5957 215.812 29.1207C215.412 28.6427 215.212 27.9948 215.212 27.1771C215.212 26.3353 215.418 25.6815 215.83 25.2155C216.245 24.7495 216.79 24.5165 217.467 24.5165C218.146 24.5165 218.69 24.7495 219.099 25.2155C219.508 25.6785 219.712 26.3323 219.712 27.1771ZM218.837 27.1771C218.837 26.5247 218.719 26.0407 218.481 25.7251C218.244 25.4064 217.906 25.2471 217.467 25.2471C217.025 25.2471 216.683 25.4064 216.443 25.7251C216.205 26.0407 216.087 26.5247 216.087 27.1771C216.087 27.8084 216.205 28.2879 216.443 28.6156C216.683 28.9403 217.025 29.1026 217.467 29.1026C217.903 29.1026 218.239 28.9433 218.477 28.6246C218.717 28.303 218.837 27.8204 218.837 27.1771Z" fill="#8C99B2"/>
<path d="M281.263 90.4786L278.359 96.1875H277.399L280.474 90.2621H277.002V89.473H281.263V90.4786ZM283.901 90.1133C283.739 90.1133 283.577 90.1329 283.414 90.1719C283.252 90.211 283.093 90.2621 282.936 90.3253C282.792 90.3854 282.666 90.4485 282.557 90.5146C282.452 90.5808 282.358 90.6424 282.273 90.6995H282.219V89.748C282.415 89.6428 282.679 89.5481 283.013 89.464C283.35 89.3768 283.67 89.3332 283.973 89.3332C284.277 89.3332 284.542 89.3647 284.767 89.4279C284.996 89.488 285.202 89.5827 285.385 89.712C285.583 89.8563 285.732 90.0306 285.831 90.2351C285.934 90.4395 285.985 90.6785 285.985 90.9521C285.985 91.3218 285.863 91.6465 285.619 91.9261C285.376 92.2057 285.084 92.3831 284.745 92.4582V92.5213C284.886 92.5484 285.036 92.595 285.196 92.6611C285.358 92.7273 285.508 92.825 285.646 92.9542C285.785 93.0835 285.897 93.2504 285.985 93.4548C286.072 93.6562 286.115 93.9027 286.115 94.1943C286.115 94.498 286.063 94.7776 285.958 95.0331C285.855 95.2856 285.71 95.5096 285.52 95.705C285.325 95.9094 285.089 96.0642 284.812 96.1695C284.536 96.2747 284.221 96.3273 283.87 96.3273C283.533 96.3273 283.199 96.2867 282.869 96.2055C282.538 96.1244 282.26 96.0267 282.034 95.9124V94.9609H282.098C282.287 95.0992 282.541 95.2315 282.86 95.3578C283.178 95.484 283.497 95.5472 283.816 95.5472C283.999 95.5472 284.182 95.5186 284.366 95.4615C284.552 95.4014 284.707 95.3052 284.83 95.1729C284.95 95.0406 285.042 94.8948 285.105 94.7355C285.168 94.5761 285.2 94.3747 285.2 94.1312C285.2 93.8877 285.164 93.6878 285.092 93.5315C285.023 93.3751 284.925 93.2519 284.799 93.1617C284.672 93.0715 284.522 93.0099 284.348 92.9768C284.176 92.9407 283.99 92.9227 283.789 92.9227H283.405V92.1741H283.703C284.109 92.1741 284.438 92.0779 284.69 91.8855C284.946 91.6931 285.074 91.4135 285.074 91.0468C285.074 90.8784 285.041 90.7341 284.975 90.6139C284.908 90.4906 284.824 90.3929 284.722 90.3207C284.608 90.2426 284.482 90.1885 284.343 90.1584C284.205 90.1283 284.058 90.1133 283.901 90.1133Z" fill="#8C99B2"/>
<path d="M260.921 26.3113C260.921 27.3785 260.639 28.2293 260.073 28.8636C259.511 29.498 258.775 29.8151 257.864 29.8151C257.479 29.8151 257.115 29.776 256.773 29.6979C256.433 29.6227 256.134 29.525 255.875 29.4048V28.4172H255.943C256.159 28.6126 256.434 28.7689 256.768 28.8862C257.102 29.0004 257.458 29.0575 257.837 29.0575C258.483 29.0575 259.009 28.8215 259.415 28.3496C259.821 27.8776 260.024 27.2553 260.024 26.4827H256.75V25.7025H259.979C259.91 25.0532 259.684 24.5436 259.302 24.1738C258.924 23.8011 258.435 23.6147 257.837 23.6147C257.467 23.6147 257.121 23.6718 256.8 23.786C256.478 23.9003 256.198 24.0596 255.961 24.264H255.893V23.2719C256.134 23.1607 256.428 23.0645 256.777 22.9833C257.129 22.8992 257.494 22.8571 257.873 22.8571C258.841 22.8571 259.591 23.1577 260.123 23.759C260.655 24.3572 260.921 25.208 260.921 26.3113ZM265.733 29.6934H264.885V25.3688H263.153C263.144 25.6183 263.135 25.8588 263.126 26.0903C263.117 26.3188 263.108 26.5262 263.099 26.7126C263.081 27.1846 263.05 27.5799 263.005 27.8986C262.963 28.2173 262.908 28.4728 262.842 28.6652C262.776 28.8636 262.702 29.0184 262.621 29.1297C262.543 29.2409 262.454 29.3416 262.355 29.4318C262.253 29.522 262.143 29.5896 262.026 29.6347C261.909 29.6798 261.777 29.7024 261.629 29.7024C261.581 29.7024 261.52 29.7009 261.444 29.6979C261.369 29.6949 261.317 29.6934 261.287 29.6934V28.9538H261.332C261.353 28.9538 261.374 28.9553 261.395 28.9583C261.419 28.9613 261.446 28.9628 261.476 28.9628C261.548 28.9628 261.619 28.9523 261.688 28.9313C261.757 28.9102 261.819 28.8711 261.873 28.814C262.023 28.6667 262.133 28.4097 262.202 28.0429C262.271 27.6731 262.321 27.1576 262.351 26.4962C262.363 26.2497 262.373 25.9581 262.382 25.6214C262.394 25.2846 262.405 24.963 262.414 24.6563H265.733V29.6934ZM269.151 29.8106C268.348 29.8106 267.724 29.5851 267.28 29.1342C266.838 28.6802 266.617 28.0369 266.617 27.2042C266.617 26.3834 266.832 25.7311 267.262 25.2471C267.691 24.7601 268.254 24.5165 268.948 24.5165C269.261 24.5165 269.537 24.5616 269.778 24.6518C270.018 24.742 270.229 24.8833 270.409 25.0757C270.589 25.2681 270.728 25.5041 270.824 25.7837C270.92 26.0603 270.968 26.4 270.968 26.8028V27.2628H267.478C267.478 27.849 267.625 28.2969 267.92 28.6066C268.214 28.9162 268.622 29.0711 269.142 29.0711C269.328 29.0711 269.51 29.05 269.688 29.0079C269.868 28.9658 270.03 28.9117 270.175 28.8456C270.328 28.7764 270.457 28.7103 270.562 28.6472C270.668 28.581 270.755 28.5194 270.824 28.4623H270.874V29.3867C270.774 29.4258 270.651 29.4754 270.504 29.5355C270.356 29.5926 270.224 29.6377 270.107 29.6708C269.942 29.7159 269.791 29.7505 269.656 29.7745C269.524 29.7986 269.355 29.8106 269.151 29.8106ZM270.143 26.6134C270.137 26.3849 270.11 26.188 270.062 26.0227C270.014 25.8573 269.945 25.7176 269.854 25.6033C269.755 25.4771 269.627 25.3809 269.471 25.3147C269.318 25.2486 269.127 25.2155 268.898 25.2155C268.673 25.2155 268.481 25.2501 268.321 25.3192C268.165 25.3854 268.022 25.4831 267.893 25.6123C267.767 25.7446 267.67 25.8919 267.604 26.0543C267.538 26.2136 267.496 26.4 267.478 26.6134H270.143ZM275.879 29.6934H274.824L273.097 27.371H272.673V29.6934H271.825V24.6563H272.673V26.8479C272.892 26.8449 273.079 26.7998 273.232 26.7126C273.388 26.6224 273.521 26.4496 273.629 26.194C273.662 26.1189 273.698 26.0317 273.737 25.9325C273.779 25.8333 273.812 25.7461 273.836 25.671C273.969 25.3012 274.152 25.0396 274.386 24.8863C274.621 24.733 274.926 24.6563 275.302 24.6563H275.532V25.3869H275.338C275.1 25.3869 274.922 25.4365 274.801 25.5357C274.684 25.6319 274.585 25.8092 274.504 26.0678C274.419 26.3293 274.32 26.5338 274.206 26.6811C274.092 26.8254 273.966 26.9366 273.827 27.0148L275.879 29.6934ZM280.104 25.4004H278.391V29.6934H277.543V25.4004H275.829V24.6563H280.104V25.4004ZM284.961 27.0418C284.961 27.8806 284.76 28.5495 284.357 29.0485C283.957 29.5445 283.45 29.7926 282.837 29.7926C282.588 29.7926 282.367 29.764 282.174 29.7069C281.982 29.6498 281.785 29.5611 281.583 29.4408V31.5512H280.736V24.6563H281.583V25.1839C281.794 24.9945 282.027 24.8367 282.282 24.7105C282.541 24.5812 282.822 24.5165 283.126 24.5165C283.703 24.5165 284.152 24.745 284.474 25.202C284.799 25.6589 284.961 26.2722 284.961 27.0418ZM284.086 27.1365C284.086 26.5623 283.994 26.1174 283.811 25.8017C283.628 25.4831 283.33 25.3237 282.918 25.3237C282.678 25.3237 282.445 25.3778 282.219 25.4861C281.997 25.5913 281.785 25.7281 281.583 25.8964V28.7509C281.806 28.8591 281.995 28.9328 282.152 28.9719C282.311 29.0109 282.493 29.0305 282.697 29.0305C283.136 29.0305 283.477 28.8696 283.721 28.548C283.964 28.2263 284.086 27.7558 284.086 27.1365ZM289.984 27.1771C289.984 28.0249 289.78 28.6802 289.371 29.1432C288.962 29.6032 288.418 29.8332 287.739 29.8332C287.038 29.8332 286.487 29.5957 286.084 29.1207C285.684 28.6427 285.484 27.9948 285.484 27.1771C285.484 26.3353 285.69 25.6815 286.102 25.2155C286.517 24.7495 287.062 24.5165 287.739 24.5165C288.418 24.5165 288.962 24.7495 289.371 25.2155C289.78 25.6785 289.984 26.3323 289.984 27.1771ZM289.11 27.1771C289.11 26.5247 288.991 26.0407 288.753 25.7251C288.516 25.4064 288.178 25.2471 287.739 25.2471C287.297 25.2471 286.956 25.4064 286.715 25.7251C286.478 26.0407 286.359 26.5247 286.359 27.1771C286.359 27.8084 286.478 28.2879 286.715 28.6156C286.956 28.9403 287.297 29.1026 287.739 29.1026C288.175 29.1026 288.511 28.9433 288.749 28.6246C288.989 28.303 289.11 27.8204 289.11 27.1771ZM293.191 27.1636H290.647V26.3474H293.191V27.1636ZM297.411 25.4004H295.058V29.6934H294.21V24.6563H297.411V25.4004ZM302.02 29.6934H301.181V25.937L298.809 29.6934H298.043V24.6563H298.882V28.3541L301.226 24.6563H302.02V29.6934ZM306.895 29.6934H306.047V27.6957H305.208L303.716 29.6934H302.728L304.347 27.619C303.929 27.4958 303.622 27.3124 303.427 27.0689C303.235 26.8254 303.138 26.4992 303.138 26.0903C303.138 25.8408 303.193 25.6229 303.301 25.4365C303.412 25.2471 303.561 25.0877 303.747 24.9585C303.898 24.8563 304.087 24.7811 304.315 24.733C304.544 24.6819 304.799 24.6563 305.082 24.6563H306.895V29.6934ZM306.047 27.0283V25.3328H305.127C304.932 25.3328 304.777 25.3433 304.663 25.3643C304.551 25.3854 304.443 25.4259 304.338 25.4861C304.23 25.5522 304.147 25.6424 304.09 25.7566C304.036 25.8679 304.009 25.9881 304.009 26.1174C304.009 26.2827 304.027 26.418 304.063 26.5232C304.102 26.6255 304.171 26.7201 304.27 26.8073C304.376 26.8975 304.503 26.9576 304.654 26.9877C304.807 27.0148 304.974 27.0283 305.154 27.0283H306.047Z" fill="#8C99B2"/>
<defs>
<clipPath id="clip0">
<rect width="22.8933" height="22.8933" fill="white" transform="translate(110.949 48.8535)"/>
</clipPath>
<clipPath id="clip1">
<rect width="22.8933" height="22.8933" fill="white" transform="translate(191.085 48.8516)"/>
</clipPath>
<clipPath id="clip2">
<rect width="22.798" height="22.798" fill="white" transform="translate(31.4667 49.0078)"/>
</clipPath>
<clipPath id="clip3">
<rect width="22.8933" height="22.8933" fill="white" transform="translate(269.793 48.1426)"/>
</clipPath>
</defs>
</svg>
