<svg width="324" height="117" viewBox="0 0 324 117" fill="none" xmlns="http://www.w3.org/2000/svg">
<path d="M32.387 43.7559H31.7406V39.5675L30.474 42.4174H30.0822L28.8254 39.5675V43.7559H28.2215V38.895H29.1029L30.3173 41.6013L31.4892 38.895H32.387V43.7559ZM35.3609 42.8581V41.8461C35.2151 41.8592 35.0301 41.8777 34.806 41.9016C34.584 41.9234 34.4044 41.9549 34.2673 41.9963C34.1041 42.0463 33.9692 42.1236 33.8625 42.2281C33.7559 42.3304 33.7026 42.474 33.7026 42.659C33.7026 42.8679 33.7613 43.0257 33.8789 43.1323C33.9964 43.239 34.1683 43.2923 34.3946 43.2923C34.5883 43.2923 34.7635 43.2509 34.9202 43.1682C35.0769 43.0834 35.2238 42.98 35.3609 42.8581ZM35.3609 43.3674C35.3109 43.4044 35.2434 43.4566 35.1585 43.5241C35.0758 43.5894 34.9953 43.6416 34.917 43.6808C34.8081 43.7374 34.7026 43.7809 34.6003 43.8114C34.5002 43.8418 34.3587 43.8571 34.1759 43.8571C34.0258 43.8571 33.8832 43.8288 33.7483 43.7722C33.6133 43.7156 33.4947 43.6362 33.3924 43.5339C33.2945 43.4338 33.2162 43.3108 33.1574 43.165C33.0986 43.017 33.0693 42.8614 33.0693 42.6982C33.0693 42.4457 33.1226 42.2313 33.2292 42.0551C33.3359 41.8766 33.5045 41.7351 33.7352 41.6307C33.9398 41.5371 34.1814 41.4729 34.4599 41.4381C34.7385 41.4011 35.0388 41.3739 35.3609 41.3564V41.2389C35.3609 41.0953 35.3392 40.9799 35.2956 40.8929C35.2521 40.8037 35.1912 40.7351 35.1128 40.6872C35.0345 40.6372 34.9387 40.6045 34.8256 40.5893C34.7124 40.5719 34.596 40.5632 34.4763 40.5632C34.3348 40.5632 34.1683 40.5849 33.9768 40.6285C33.7853 40.6698 33.5937 40.7307 33.4022 40.8113H33.3663V40.1878C33.4795 40.1551 33.6416 40.1192 33.8527 40.08C34.0638 40.0408 34.2728 40.0213 34.4795 40.0213C34.7298 40.0213 34.9409 40.0408 35.1128 40.08C35.2848 40.1192 35.4393 40.1899 35.5764 40.2922C35.7092 40.3923 35.8082 40.5218 35.8735 40.6807C35.9388 40.8396 35.9714 41.0333 35.9714 41.2618V43.7559H35.3609V43.3674ZM39.5003 40.648H38.2598V43.7559H37.6461V40.648H36.4056V40.1094H39.5003V40.648ZM41.5407 43.8407C40.9596 43.8407 40.508 43.6775 40.1859 43.3511C39.866 43.0224 39.706 42.5567 39.706 41.9539C39.706 41.3597 39.8616 40.8874 40.1728 40.5371C40.484 40.1845 40.891 40.0082 41.3937 40.0082C41.6201 40.0082 41.8203 40.0408 41.9944 40.1061C42.1685 40.1714 42.3209 40.2737 42.4515 40.413C42.582 40.5523 42.6821 40.7231 42.7518 40.9255C42.8214 41.1258 42.8562 41.3717 42.8562 41.6633V41.9963H40.3295C40.3295 42.4207 40.4362 42.7449 40.6494 42.9691C40.8627 43.1933 41.1576 43.3054 41.5341 43.3054C41.6691 43.3054 41.8007 43.2901 41.9291 43.2597C42.0597 43.2292 42.1772 43.19 42.2817 43.1421C42.3927 43.0921 42.4863 43.0442 42.5624 42.9985C42.6386 42.9506 42.7017 42.906 42.7518 42.8646H42.7877V43.5339C42.7159 43.5622 42.6266 43.5981 42.52 43.6416C42.4134 43.683 42.3176 43.7156 42.2327 43.7395C42.113 43.7722 42.0042 43.7972 41.9063 43.8146C41.8105 43.832 41.6886 43.8407 41.5407 43.8407ZM42.2588 41.5262C42.2545 41.3608 42.2349 41.2182 42.2001 41.0985C42.1653 40.9789 42.1152 40.8777 42.0499 40.7949C41.9781 40.7035 41.8856 40.6339 41.7724 40.586C41.6614 40.5381 41.5232 40.5142 41.3578 40.5142C41.1946 40.5142 41.0553 40.5392 40.94 40.5893C40.8268 40.6372 40.7234 40.7079 40.6299 40.8015C40.5384 40.8972 40.4688 41.0039 40.4209 41.1214C40.373 41.2367 40.3426 41.3717 40.3295 41.5262H42.2588ZM46.5354 41.8363C46.5354 42.4435 46.3895 42.9278 46.0979 43.289C45.8085 43.6481 45.4417 43.8277 44.9978 43.8277C44.8171 43.8277 44.6572 43.807 44.5179 43.7657C44.3786 43.7243 44.236 43.6601 44.0902 43.573V45.1008H43.4765V40.1094H44.0902V40.4914C44.2426 40.3542 44.4112 40.24 44.5962 40.1486C44.7834 40.055 44.9869 40.0082 45.2067 40.0082C45.6246 40.0082 45.9499 40.1736 46.1828 40.5044C46.4178 40.8352 46.5354 41.2792 46.5354 41.8363ZM45.902 41.9049C45.902 41.4892 45.8357 41.1671 45.7029 40.9386C45.5701 40.7079 45.3547 40.5926 45.0565 40.5926C44.8824 40.5926 44.7138 40.6317 44.5505 40.7101C44.3895 40.7862 44.236 40.8853 44.0902 41.0071V43.0736C44.2513 43.1519 44.3884 43.2052 44.5016 43.2335C44.6169 43.2618 44.7486 43.276 44.8966 43.276C45.2143 43.276 45.4613 43.1595 45.6376 42.9267C45.8139 42.6938 45.902 42.3532 45.902 41.9049ZM50.0512 43.7559H49.444V41.0365L47.7269 43.7559H47.1719V40.1094H47.7791V42.7863L49.4767 40.1094H50.0512V43.7559ZM52.9762 42.8581V41.8461C52.8304 41.8592 52.6454 41.8777 52.4213 41.9016C52.1993 41.9234 52.0197 41.9549 51.8826 41.9963C51.7194 42.0463 51.5845 42.1236 51.4778 42.2281C51.3712 42.3304 51.3179 42.474 51.3179 42.659C51.3179 42.8679 51.3766 43.0257 51.4941 43.1323C51.6117 43.239 51.7836 43.2923 52.0099 43.2923C52.2036 43.2923 52.3788 43.2509 52.5355 43.1682C52.6922 43.0834 52.8391 42.98 52.9762 42.8581ZM52.9762 43.3674C52.9262 43.4044 52.8587 43.4566 52.7738 43.5241C52.6911 43.5894 52.6106 43.6416 52.5323 43.6808C52.4234 43.7374 52.3179 43.7809 52.2156 43.8114C52.1155 43.8418 51.974 43.8571 51.7912 43.8571C51.641 43.8571 51.4985 43.8288 51.3636 43.7722C51.2286 43.7156 51.11 43.6362 51.0077 43.5339C50.9098 43.4338 50.8314 43.3108 50.7727 43.165C50.7139 43.017 50.6845 42.8614 50.6845 42.6982C50.6845 42.4457 50.7379 42.2313 50.8445 42.0551C50.9511 41.8766 51.1198 41.7351 51.3505 41.6307C51.5551 41.5371 51.7967 41.4729 52.0752 41.4381C52.3538 41.4011 52.6541 41.3739 52.9762 41.3564V41.2389C52.9762 41.0953 52.9545 40.9799 52.9109 40.8929C52.8674 40.8037 52.8065 40.7351 52.7281 40.6872C52.6498 40.6372 52.554 40.6045 52.4408 40.5893C52.3277 40.5719 52.2112 40.5632 52.0915 40.5632C51.9501 40.5632 51.7836 40.5849 51.5921 40.6285C51.4006 40.6698 51.209 40.7307 51.0175 40.8113H50.9816V40.1878C51.0948 40.1551 51.2569 40.1192 51.468 40.08C51.6791 40.0408 51.8881 40.0213 52.0948 40.0213C52.3451 40.0213 52.5562 40.0408 52.7281 40.08C52.9001 40.1192 53.0546 40.1899 53.1917 40.2922C53.3244 40.3923 53.4235 40.5218 53.4888 40.6807C53.554 40.8396 53.5867 41.0333 53.5867 41.2618V43.7559H52.9762V43.3674ZM57.2756 43.7559H56.6619V40.6252H55.4083C55.4018 40.8058 55.3952 40.9799 55.3887 41.1475C55.3822 41.3129 55.3756 41.4631 55.3691 41.598C55.3561 41.9397 55.3332 42.2259 55.3006 42.4566C55.2701 42.6873 55.2309 42.8723 55.183 43.0116C55.1352 43.1552 55.0818 43.2673 55.0231 43.3478C54.9665 43.4283 54.9023 43.5012 54.8305 43.5665C54.7565 43.6318 54.677 43.6808 54.5922 43.7134C54.5073 43.7461 54.4115 43.7624 54.3049 43.7624C54.2701 43.7624 54.2254 43.7613 54.171 43.7591C54.1166 43.7569 54.0785 43.7559 54.0568 43.7559V43.2205H54.0894C54.1047 43.2205 54.1199 43.2216 54.1351 43.2237C54.1525 43.2259 54.1721 43.227 54.1939 43.227C54.2461 43.227 54.2973 43.2194 54.3473 43.2042C54.3974 43.1889 54.442 43.1606 54.4812 43.1193C54.59 43.0126 54.6694 42.8266 54.7195 42.561C54.7695 42.2934 54.8054 41.9201 54.8272 41.4413C54.8359 41.2629 54.8435 41.0518 54.8501 40.808C54.8588 40.5643 54.8664 40.3314 54.8729 40.1094H57.2756V43.7559Z" fill="#606580"/>
<path d="M211.658 43.7559H211.012V39.5675L209.745 42.4174H209.354L208.097 39.5675V43.7559H207.493V38.895H208.374L209.589 41.6013L210.761 38.895H211.658V43.7559ZM214.632 42.8581V41.8461C214.487 41.8592 214.302 41.8777 214.077 41.9016C213.855 41.9234 213.676 41.9549 213.539 41.9963C213.376 42.0463 213.241 42.1236 213.134 42.2281C213.027 42.3304 212.974 42.474 212.974 42.659C212.974 42.8679 213.033 43.0257 213.15 43.1323C213.268 43.239 213.44 43.2923 213.666 43.2923C213.86 43.2923 214.035 43.2509 214.192 43.1682C214.348 43.0834 214.495 42.98 214.632 42.8581ZM214.632 43.3674C214.582 43.4044 214.515 43.4566 214.43 43.5241C214.347 43.5894 214.267 43.6416 214.188 43.6808C214.08 43.7374 213.974 43.7809 213.872 43.8114C213.772 43.8418 213.63 43.8571 213.447 43.8571C213.297 43.8571 213.155 43.8288 213.02 43.7722C212.885 43.7156 212.766 43.6362 212.664 43.5339C212.566 43.4338 212.488 43.3108 212.429 43.165C212.37 43.017 212.341 42.8614 212.341 42.6982C212.341 42.4457 212.394 42.2313 212.501 42.0551C212.607 41.8766 212.776 41.7351 213.007 41.6307C213.211 41.5371 213.453 41.4729 213.731 41.4381C214.01 41.4011 214.31 41.3739 214.632 41.3564V41.2389C214.632 41.0953 214.611 40.9799 214.567 40.8929C214.524 40.8037 214.463 40.7351 214.384 40.6872C214.306 40.6372 214.21 40.6045 214.097 40.5893C213.984 40.5719 213.867 40.5632 213.748 40.5632C213.606 40.5632 213.44 40.5849 213.248 40.6285C213.057 40.6698 212.865 40.7307 212.674 40.8113H212.638V40.1878C212.751 40.1551 212.913 40.1192 213.124 40.08C213.335 40.0408 213.544 40.0213 213.751 40.0213C214.001 40.0213 214.212 40.0408 214.384 40.08C214.556 40.1192 214.711 40.1899 214.848 40.2922C214.981 40.3923 215.08 40.5218 215.145 40.6807C215.21 40.8396 215.243 41.0333 215.243 41.2618V43.7559H214.632V43.3674ZM217.557 43.8375C217.307 43.8375 217.078 43.7994 216.869 43.7232C216.66 43.6449 216.48 43.5273 216.33 43.3706C216.18 43.214 216.063 43.017 215.981 42.7798C215.898 42.5404 215.857 42.2596 215.857 41.9375C215.857 41.6176 215.899 41.3412 215.984 41.1083C216.071 40.8755 216.186 40.6796 216.33 40.5207C216.474 40.3619 216.652 40.24 216.865 40.1551C217.081 40.0681 217.311 40.0245 217.557 40.0245C217.758 40.0245 217.95 40.0528 218.135 40.1094C218.322 40.166 218.489 40.2313 218.635 40.3053V40.9941H218.599C218.555 40.9571 218.499 40.9146 218.429 40.8668C218.362 40.8189 218.279 40.7699 218.181 40.7199C218.096 40.6763 217.996 40.6383 217.881 40.6056C217.765 40.573 217.654 40.5566 217.548 40.5566C217.23 40.5566 216.974 40.6774 216.78 40.919C216.589 41.1584 216.493 41.4979 216.493 41.9375C216.493 42.3684 216.586 42.7047 216.771 42.9463C216.958 43.1857 217.217 43.3054 217.548 43.3054C217.748 43.3054 217.938 43.264 218.119 43.1813C218.3 43.0986 218.46 42.992 218.599 42.8614H218.635V43.5502C218.574 43.5785 218.498 43.6133 218.406 43.6547C218.315 43.6938 218.232 43.7232 218.158 43.7428C218.054 43.7733 217.96 43.7961 217.877 43.8114C217.795 43.8288 217.688 43.8375 217.557 43.8375ZM220.646 43.8375C220.395 43.8375 220.166 43.7994 219.957 43.7232C219.748 43.6449 219.568 43.5273 219.418 43.3706C219.268 43.214 219.152 43.017 219.069 42.7798C218.986 42.5404 218.945 42.2596 218.945 41.9375C218.945 41.6176 218.987 41.3412 219.072 41.1083C219.159 40.8755 219.275 40.6796 219.418 40.5207C219.562 40.3619 219.74 40.24 219.954 40.1551C220.169 40.0681 220.4 40.0245 220.646 40.0245C220.846 40.0245 221.038 40.0528 221.223 40.1094C221.411 40.166 221.577 40.2313 221.723 40.3053V40.9941H221.687C221.643 40.9571 221.587 40.9146 221.517 40.8668C221.45 40.8189 221.367 40.7699 221.269 40.7199C221.184 40.6763 221.084 40.6383 220.969 40.6056C220.853 40.573 220.742 40.5566 220.636 40.5566C220.318 40.5566 220.062 40.6774 219.869 40.919C219.677 41.1584 219.581 41.4979 219.581 41.9375C219.581 42.3684 219.674 42.7047 219.859 42.9463C220.046 43.1857 220.305 43.3054 220.636 43.3054C220.836 43.3054 221.027 43.264 221.207 43.1813C221.388 43.0986 221.548 42.992 221.687 42.8614H221.723V43.5502C221.662 43.5785 221.586 43.6133 221.494 43.6547C221.403 43.6938 221.32 43.7232 221.246 43.7428C221.142 43.7733 221.048 43.7961 220.966 43.8114C220.883 43.8288 220.776 43.8375 220.646 43.8375ZM224.321 42.8581V41.8461C224.176 41.8592 223.991 41.8777 223.767 41.9016C223.545 41.9234 223.365 41.9549 223.228 41.9963C223.065 42.0463 222.93 42.1236 222.823 42.2281C222.716 42.3304 222.663 42.474 222.663 42.659C222.663 42.8679 222.722 43.0257 222.839 43.1323C222.957 43.239 223.129 43.2923 223.355 43.2923C223.549 43.2923 223.724 43.2509 223.881 43.1682C224.037 43.0834 224.184 42.98 224.321 42.8581ZM224.321 43.3674C224.271 43.4044 224.204 43.4566 224.119 43.5241C224.036 43.5894 223.956 43.6416 223.878 43.6808C223.769 43.7374 223.663 43.7809 223.561 43.8114C223.461 43.8418 223.319 43.8571 223.136 43.8571C222.986 43.8571 222.844 43.8288 222.709 43.7722C222.574 43.7156 222.455 43.6362 222.353 43.5339C222.255 43.4338 222.177 43.3108 222.118 43.165C222.059 43.017 222.03 42.8614 222.03 42.6982C222.03 42.4457 222.083 42.2313 222.19 42.0551C222.296 41.8766 222.465 41.7351 222.696 41.6307C222.9 41.5371 223.142 41.4729 223.42 41.4381C223.699 41.4011 223.999 41.3739 224.321 41.3564V41.2389C224.321 41.0953 224.3 40.9799 224.256 40.8929C224.213 40.8037 224.152 40.7351 224.073 40.6872C223.995 40.6372 223.899 40.6045 223.786 40.5893C223.673 40.5719 223.557 40.5632 223.437 40.5632C223.295 40.5632 223.129 40.5849 222.937 40.6285C222.746 40.6698 222.554 40.7307 222.363 40.8113H222.327V40.1878C222.44 40.1551 222.602 40.1192 222.813 40.08C223.024 40.0408 223.233 40.0213 223.44 40.0213C223.69 40.0213 223.901 40.0408 224.073 40.08C224.245 40.1192 224.4 40.1899 224.537 40.2922C224.67 40.3923 224.769 40.5218 224.834 40.6807C224.899 40.8396 224.932 41.0333 224.932 41.2618V43.7559H224.321V43.3674ZM230.55 40.648H229.31V43.7559H228.696V40.648H227.455V40.1094H230.55V40.648ZM233.886 43.7559H233.273V42.1138H231.621V43.7559H231.007V40.1094H231.621V41.585H233.273V40.1094H233.886V43.7559Z" fill="#606580"/>
<path d="M62.6527 18.1289H61.956V13.9487L59.5759 18.1289H58.8686V12.863H59.5653V16.976L61.9136 12.863H62.6527V18.1289ZM66.2848 17.0361C66.2848 17.2577 66.2364 17.4452 66.1398 17.5984C66.0431 17.7517 65.9193 17.8731 65.7684 17.9627C65.6246 18.0499 65.4607 18.1148 65.2768 18.1572C65.0929 18.1996 64.909 18.2209 64.7251 18.2209C64.4658 18.2209 64.2206 18.1949 63.9895 18.1431C63.7585 18.0935 63.5286 18.0134 63.2999 17.9026V17.167H63.3423C63.5027 17.3155 63.7031 17.4334 63.9436 17.5206C64.1864 17.6055 64.4281 17.6479 64.6685 17.6479C64.7723 17.6479 64.8831 17.6373 65.001 17.6161C65.1212 17.5925 65.2226 17.5572 65.3051 17.51C65.4136 17.444 65.4902 17.3733 65.535 17.2978C65.5822 17.2224 65.6057 17.1186 65.6057 16.9866C65.6057 16.8451 65.5786 16.732 65.5244 16.6471C65.4725 16.5599 65.4006 16.495 65.3087 16.4526C65.2167 16.4101 65.113 16.3842 64.9974 16.3748C64.8843 16.363 64.764 16.3571 64.6367 16.3571H64.1699V15.7842H64.5271C64.6167 15.7842 64.7287 15.7818 64.8631 15.7771C64.9974 15.77 65.1047 15.7512 65.1849 15.7205C65.2863 15.6828 65.3676 15.6297 65.4289 15.5614C65.4902 15.4906 65.5209 15.3728 65.5209 15.2077C65.5209 15.0922 65.4949 14.9991 65.4431 14.9283C65.3912 14.8576 65.3263 14.8022 65.2485 14.7621C65.1684 14.7197 65.0811 14.6914 64.9868 14.6772C64.8925 14.6607 64.8018 14.6525 64.7145 14.6525C64.4905 14.6525 64.2748 14.6843 64.0673 14.748C63.8622 14.8093 63.6854 14.9012 63.5369 15.0238H63.4944V14.3059C63.6642 14.247 63.8516 14.1951 64.0567 14.1503C64.2642 14.1055 64.4717 14.0831 64.6792 14.0831C64.8466 14.0831 65.0163 14.1008 65.1884 14.1361C65.3629 14.1691 65.5279 14.2269 65.6835 14.3094C65.8297 14.3896 65.9523 14.5004 66.0513 14.6419C66.1504 14.781 66.1999 14.9519 66.1999 15.1547C66.1999 15.3692 66.1386 15.5578 66.016 15.7205C65.8957 15.8808 65.7354 15.9869 65.535 16.0388V16.0636C65.7543 16.139 65.9335 16.2545 66.0726 16.4101C66.214 16.5658 66.2848 16.7744 66.2848 17.0361ZM70.6489 18.1289H69.9911V15.0238L69.0433 17.0396H68.5481L67.6074 15.0238V18.1289H66.985V14.1786H67.7878L68.8275 16.3712L69.8319 14.1786H70.6489V18.1289ZM73.326 18.2209C72.6965 18.2209 72.2073 18.044 71.8584 17.6904C71.5118 17.3344 71.3385 16.8298 71.3385 16.1767C71.3385 15.5331 71.5071 15.0215 71.8442 14.6419C72.1814 14.2599 72.6223 14.0689 73.1669 14.0689C73.4121 14.0689 73.629 14.1043 73.8176 14.175C74.0062 14.2458 74.1713 14.3566 74.3127 14.5075C74.4542 14.6584 74.5626 14.8435 74.6381 15.0627C74.7135 15.2796 74.7513 15.546 74.7513 15.862V16.2227H72.014C72.014 16.6825 72.1295 17.0338 72.3605 17.2766C72.5916 17.5194 72.9111 17.6409 73.319 17.6409C73.4651 17.6409 73.6078 17.6244 73.7469 17.5914C73.8883 17.5583 74.0157 17.5159 74.1288 17.464C74.2491 17.4098 74.3504 17.3579 74.433 17.3084C74.5155 17.2566 74.5839 17.2082 74.6381 17.1634H74.677V17.8884C74.5992 17.9191 74.5025 17.958 74.387 18.0051C74.2715 18.0499 74.1677 18.0853 74.0758 18.1112C73.9461 18.1466 73.8282 18.1737 73.7221 18.1926C73.6184 18.2114 73.4863 18.2209 73.326 18.2209ZM74.1041 15.7134C74.0994 15.5343 74.0781 15.3798 74.0404 15.2502C74.0027 15.1205 73.9485 15.0108 73.8777 14.9213C73.7999 14.8222 73.6997 14.7468 73.5771 14.6949C73.4569 14.643 73.3072 14.6171 73.128 14.6171C72.9512 14.6171 72.8003 14.6442 72.6753 14.6985C72.5527 14.7503 72.4407 14.8269 72.3393 14.9283C72.2403 15.0321 72.1649 15.1476 72.113 15.2749C72.0611 15.3999 72.0281 15.546 72.014 15.7134H74.1041ZM78.7369 16.0494C78.7369 16.7072 78.579 17.2318 78.2631 17.6232C77.9495 18.0122 77.5522 18.2067 77.0712 18.2067C76.8755 18.2067 76.7023 18.1843 76.5514 18.1395C76.4005 18.0947 76.246 18.0252 76.0881 17.9309V19.586H75.4232V14.1786H76.0881V14.5924C76.2531 14.4438 76.4358 14.32 76.6362 14.221C76.839 14.1196 77.0594 14.0689 77.2976 14.0689C77.7503 14.0689 78.1027 14.2481 78.355 14.6065C78.6096 14.9649 78.7369 15.4458 78.7369 16.0494ZM78.0509 16.1237C78.0509 15.6734 77.9789 15.3244 77.8351 15.0769C77.6913 14.8269 77.4579 14.702 77.1349 14.702C76.9463 14.702 76.7636 14.7444 76.5867 14.8293C76.4123 14.9118 76.246 15.0191 76.0881 15.1511V17.3898C76.2625 17.4746 76.4111 17.5324 76.5337 17.5631C76.6586 17.5937 76.8013 17.609 76.9616 17.609C77.3058 17.609 77.5734 17.4829 77.7644 17.2306C77.9554 16.9783 78.0509 16.6094 78.0509 16.1237ZM81.1418 18.2209C80.5123 18.2209 80.0231 18.044 79.6741 17.6904C79.3276 17.3344 79.1543 16.8298 79.1543 16.1767C79.1543 15.5331 79.3228 15.0215 79.66 14.6419C79.9971 14.2599 80.438 14.0689 80.9827 14.0689C81.2279 14.0689 81.4448 14.1043 81.6334 14.175C81.822 14.2458 81.987 14.3566 82.1285 14.5075C82.27 14.6584 82.3784 14.8435 82.4539 15.0627C82.5293 15.2796 82.567 15.546 82.567 15.862V16.2227H79.8297C79.8297 16.6825 79.9453 17.0338 80.1763 17.2766C80.4074 17.5194 80.7268 17.6409 81.1347 17.6409C81.2809 17.6409 81.4235 17.6244 81.5627 17.5914C81.7041 17.5583 81.8314 17.5159 81.9446 17.464C82.0648 17.4098 82.1662 17.3579 82.2487 17.3084C82.3313 17.2566 82.3996 17.2082 82.4539 17.1634H82.4928V17.8884C82.415 17.9191 82.3183 17.958 82.2028 18.0051C82.0872 18.0499 81.9835 18.0853 81.8916 18.1112C81.7619 18.1466 81.644 18.1737 81.5379 18.1926C81.4342 18.2114 81.3021 18.2209 81.1418 18.2209ZM81.9198 15.7134C81.9151 15.5343 81.8939 15.3798 81.8562 15.2502C81.8185 15.1205 81.7642 15.0108 81.6935 14.9213C81.6157 14.8222 81.5155 14.7468 81.3929 14.6949C81.2727 14.643 81.1229 14.6171 80.9438 14.6171C80.7669 14.6171 80.616 14.6442 80.4911 14.6985C80.3685 14.7503 80.2565 14.8269 80.1551 14.9283C80.0561 15.0321 79.9806 15.1476 79.9288 15.2749C79.8769 15.3999 79.8439 15.546 79.8297 15.7134H81.9198ZM86.3582 18.1289H85.6933V16.35H83.9039V18.1289H83.239V14.1786H83.9039V15.7771H85.6933V14.1786H86.3582V18.1289ZM90.4394 18.1289H89.7745V16.35H87.985V18.1289H87.3202V14.1786H87.985V15.7771H89.7745V14.1786H90.4394V18.1289ZM94.6514 16.1555C94.6514 16.8204 94.4911 17.3344 94.1705 17.6974C93.8498 18.0582 93.4231 18.2385 92.8902 18.2385C92.3409 18.2385 91.9082 18.0523 91.5923 17.6798C91.2787 17.3049 91.122 16.7968 91.122 16.1555C91.122 15.4954 91.2835 14.9826 91.6065 14.6171C91.9318 14.2517 92.3597 14.0689 92.8902 14.0689C93.4231 14.0689 93.8498 14.2517 94.1705 14.6171C94.4911 14.9802 94.6514 15.493 94.6514 16.1555ZM93.9653 16.1555C93.9653 15.6439 93.8722 15.2643 93.686 15.0167C93.4997 14.7668 93.2345 14.6419 92.8902 14.6419C92.5436 14.6419 92.276 14.7668 92.0874 15.0167C91.9012 15.2643 91.808 15.6439 91.808 16.1555C91.808 16.6506 91.9012 17.0267 92.0874 17.2837C92.276 17.5383 92.5436 17.6656 92.8902 17.6656C93.2321 17.6656 93.4962 17.5407 93.6824 17.2907C93.871 17.0385 93.9653 16.6601 93.9653 16.1555ZM97.0492 18.2209C96.4197 18.2209 95.9305 18.044 95.5815 17.6904C95.235 17.3344 95.0617 16.8298 95.0617 16.1767C95.0617 15.5331 95.2302 15.0215 95.5674 14.6419C95.9045 14.2599 96.3454 14.0689 96.8901 14.0689C97.1353 14.0689 97.3522 14.1043 97.5408 14.175C97.7294 14.2458 97.8944 14.3566 98.0359 14.5075C98.1774 14.6584 98.2858 14.8435 98.3613 15.0627C98.4367 15.2796 98.4744 15.546 98.4744 15.862V16.2227H95.7371C95.7371 16.6825 95.8527 17.0338 96.0837 17.2766C96.3148 17.5194 96.6343 17.6409 97.0421 17.6409C97.1883 17.6409 97.331 17.6244 97.4701 17.5914C97.6115 17.5583 97.7388 17.5159 97.852 17.464C97.9723 17.4098 98.0736 17.3579 98.1562 17.3084C98.2387 17.2566 98.307 17.2082 98.3613 17.1634H98.4002V17.8884C98.3224 17.9191 98.2257 17.958 98.1102 18.0051C97.9946 18.0499 97.8909 18.0853 97.799 18.1112C97.6693 18.1466 97.5514 18.1737 97.4453 18.1926C97.3416 18.2114 97.2095 18.2209 97.0492 18.2209ZM97.8273 15.7134C97.8225 15.5343 97.8013 15.3798 97.7636 15.2502C97.7259 15.1205 97.6716 15.0108 97.6009 14.9213C97.5231 14.8222 97.4229 14.7468 97.3003 14.6949C97.1801 14.643 97.0303 14.6171 96.8512 14.6171C96.6743 14.6171 96.5234 14.6442 96.3985 14.6985C96.2759 14.7503 96.1639 14.8269 96.0625 14.9283C95.9635 15.0321 95.888 15.1476 95.8362 15.2749C95.7843 15.3999 95.7513 15.546 95.7371 15.7134H97.8273Z" fill="white"/>
<rect x="5" y="26.2578" width="147" height="1.11429" fill="#0089FF"/>
<path d="M212.638 18.2244C212.294 18.2244 211.977 18.1666 211.687 18.0511C211.399 17.9356 211.151 17.7635 210.941 17.5348C210.731 17.3061 210.568 17.0208 210.453 16.6789C210.337 16.3371 210.28 15.9445 210.28 15.5012C210.28 15.0604 210.335 14.6761 210.446 14.3483C210.559 14.0206 210.723 13.7353 210.937 13.4925C211.147 13.2567 211.396 13.0775 211.684 12.9549C211.971 12.83 212.293 12.7675 212.649 12.7675C212.826 12.7675 212.991 12.7805 213.144 12.8064C213.3 12.8323 213.444 12.8653 213.576 12.9054C213.689 12.9408 213.804 12.9856 213.922 13.0398C214.042 13.0917 214.16 13.1494 214.276 13.2131V14.0583H214.219C214.158 14.0018 214.079 13.9334 213.982 13.8532C213.886 13.7731 213.768 13.6941 213.629 13.6163C213.494 13.5432 213.348 13.4831 213.19 13.4359C213.032 13.3887 212.849 13.3652 212.642 13.3652C212.418 13.3652 212.206 13.4111 212.005 13.5031C211.805 13.595 211.629 13.7306 211.478 13.9098C211.33 14.089 211.214 14.3141 211.132 14.5853C211.049 14.8564 211.008 15.1617 211.008 15.5012C211.008 15.862 211.052 16.1732 211.139 16.4349C211.226 16.6942 211.345 16.9135 211.496 17.0927C211.642 17.2672 211.814 17.3992 212.012 17.4888C212.21 17.576 212.42 17.6196 212.642 17.6196C212.845 17.6196 213.032 17.5949 213.204 17.5454C213.376 17.4959 213.53 17.4334 213.664 17.3579C213.794 17.2848 213.906 17.2106 214 17.1351C214.094 17.0573 214.169 16.9913 214.223 16.9371H214.276V17.7717C214.16 17.8259 214.051 17.8778 213.947 17.9273C213.846 17.9768 213.722 18.0252 213.576 18.0723C213.422 18.1218 213.28 18.1596 213.148 18.1855C213.018 18.2114 212.848 18.2244 212.638 18.2244ZM218.127 16.1555C218.127 16.8204 217.967 17.3344 217.646 17.6974C217.325 18.0582 216.899 18.2385 216.366 18.2385C215.817 18.2385 215.384 18.0523 215.068 17.6798C214.754 17.3049 214.598 16.7968 214.598 16.1555C214.598 15.4954 214.759 14.9826 215.082 14.6171C215.408 14.2517 215.835 14.0689 216.366 14.0689C216.899 14.0689 217.325 14.2517 217.646 14.6171C217.967 14.9802 218.127 15.493 218.127 16.1555ZM217.441 16.1555C217.441 15.6439 217.348 15.2643 217.162 15.0167C216.975 14.7668 216.71 14.6419 216.366 14.6419C216.019 14.6419 215.752 14.7668 215.563 15.0167C215.377 15.2643 215.284 15.6439 215.284 16.1555C215.284 16.6506 215.377 17.0267 215.563 17.2837C215.752 17.5383 216.019 17.6656 216.366 17.6656C216.708 17.6656 216.972 17.5407 217.158 17.2907C217.347 17.0385 217.441 16.6601 217.441 16.1555ZM221.321 14.7621H219.475V18.1289H218.81V14.1786H221.321V14.7621ZM224.875 18.1289H224.21V14.7374H222.852C222.845 14.933 222.838 15.1217 222.831 15.3032C222.824 15.4824 222.817 15.6451 222.81 15.7912C222.795 16.1614 222.771 16.4714 222.735 16.7214C222.702 16.9713 222.66 17.1717 222.608 17.3226C222.556 17.4782 222.498 17.5996 222.435 17.6868C222.373 17.7741 222.304 17.8531 222.226 17.9238C222.146 17.9945 222.06 18.0476 221.968 18.0829C221.876 18.1183 221.772 18.136 221.657 18.136C221.619 18.136 221.571 18.1348 221.512 18.1324C221.453 18.1301 221.411 18.1289 221.388 18.1289V17.5489H221.423C221.44 17.5489 221.456 17.5501 221.473 17.5524C221.492 17.5548 221.513 17.556 221.536 17.556C221.593 17.556 221.648 17.5477 221.703 17.5312C221.757 17.5147 221.805 17.4841 221.848 17.4393C221.965 17.3238 222.052 17.1222 222.106 16.8345C222.16 16.5445 222.199 16.1402 222.222 15.6215C222.232 15.4282 222.24 15.1995 222.247 14.9354C222.257 14.6713 222.265 14.4191 222.272 14.1786H224.875V18.1289ZM228.047 17.1564V16.06C227.889 16.0742 227.689 16.0942 227.446 16.1201C227.205 16.1437 227.011 16.1779 226.862 16.2227C226.686 16.2769 226.539 16.3606 226.424 16.4738C226.308 16.5846 226.251 16.7402 226.251 16.9406C226.251 17.167 226.314 17.3379 226.442 17.4534C226.569 17.569 226.755 17.6267 227 17.6267C227.21 17.6267 227.4 17.5819 227.57 17.4923C227.739 17.4004 227.899 17.2884 228.047 17.1564ZM228.047 17.7081C227.993 17.7481 227.92 17.8047 227.828 17.8778C227.738 17.9485 227.651 18.0051 227.566 18.0476C227.448 18.1089 227.334 18.156 227.223 18.189C227.115 18.222 226.961 18.2385 226.763 18.2385C226.601 18.2385 226.446 18.2079 226.3 18.1466C226.154 18.0853 226.025 17.9992 225.915 17.8884C225.809 17.78 225.724 17.6468 225.66 17.4888C225.596 17.3285 225.564 17.1599 225.564 16.9831C225.564 16.7096 225.622 16.4773 225.738 16.2864C225.853 16.093 226.036 15.9398 226.286 15.8266C226.508 15.7252 226.769 15.6557 227.071 15.618C227.373 15.5779 227.698 15.5484 228.047 15.5295V15.4022C228.047 15.2466 228.024 15.1217 227.976 15.0274C227.929 14.9307 227.863 14.8564 227.778 14.8045C227.693 14.7503 227.59 14.715 227.467 14.6985C227.345 14.6796 227.218 14.6702 227.089 14.6702C226.935 14.6702 226.755 14.6937 226.548 14.7409C226.34 14.7857 226.133 14.8517 225.925 14.9389H225.886V14.2635C226.009 14.2281 226.185 14.1892 226.413 14.1467C226.642 14.1043 226.868 14.0831 227.092 14.0831C227.363 14.0831 227.592 14.1043 227.778 14.1467C227.965 14.1892 228.132 14.2658 228.281 14.3766C228.424 14.4851 228.532 14.6254 228.602 14.7975C228.673 14.9696 228.708 15.1794 228.708 15.427V18.1289H228.047V17.7081ZM231.216 18.2173C230.945 18.2173 230.696 18.1761 230.47 18.0935C230.243 18.0087 230.049 17.8813 229.886 17.7116C229.723 17.5418 229.597 17.3285 229.508 17.0715C229.418 16.8121 229.373 16.508 229.373 16.159C229.373 15.8125 229.419 15.513 229.511 15.2608C229.606 15.0085 229.731 14.7963 229.886 14.6242C230.042 14.4521 230.235 14.32 230.466 14.2281C230.7 14.1338 230.949 14.0866 231.216 14.0866C231.433 14.0866 231.641 14.1173 231.842 14.1786C232.045 14.2399 232.225 14.3106 232.383 14.3908V15.137H232.344C232.297 15.0969 232.236 15.0509 232.16 14.9991C232.087 14.9472 231.997 14.8941 231.891 14.8399C231.799 14.7928 231.691 14.7515 231.566 14.7161C231.441 14.6808 231.321 14.6631 231.205 14.6631C230.861 14.6631 230.584 14.7939 230.374 15.0556C230.167 15.315 230.063 15.6828 230.063 16.159C230.063 16.6259 230.163 16.9901 230.364 17.2518C230.566 17.5112 230.847 17.6409 231.205 17.6409C231.422 17.6409 231.628 17.5961 231.824 17.5065C232.02 17.4169 232.193 17.3014 232.344 17.1599H232.383V17.9061C232.317 17.9368 232.234 17.9745 232.135 18.0193C232.036 18.0617 231.947 18.0935 231.867 18.1148C231.753 18.1478 231.652 18.1725 231.562 18.189C231.473 18.2079 231.357 18.2173 231.216 18.2173ZM236.241 16.1555C236.241 16.8204 236.081 17.3344 235.76 17.6974C235.44 18.0582 235.013 18.2385 234.48 18.2385C233.931 18.2385 233.498 18.0523 233.182 17.6798C232.869 17.3049 232.712 16.7968 232.712 16.1555C232.712 15.4954 232.873 14.9826 233.196 14.6171C233.522 14.2517 233.95 14.0689 234.48 14.0689C235.013 14.0689 235.44 14.2517 235.76 14.6171C236.081 14.9802 236.241 15.493 236.241 16.1555ZM235.555 16.1555C235.555 15.6439 235.462 15.2643 235.276 15.0167C235.09 14.7668 234.824 14.6419 234.48 14.6419C234.134 14.6419 233.866 14.7668 233.677 15.0167C233.491 15.2643 233.398 15.6439 233.398 16.1555C233.398 16.6506 233.491 17.0267 233.677 17.2837C233.866 17.5383 234.134 17.6656 234.48 17.6656C234.822 17.6656 235.086 17.5407 235.272 17.2907C235.461 17.0385 235.555 16.6601 235.555 16.1555ZM240.022 16.9336C240.022 17.1245 239.985 17.2943 239.912 17.4428C239.839 17.589 239.739 17.7116 239.612 17.8106C239.451 17.9356 239.283 18.0205 239.106 18.0652C238.931 18.1077 238.722 18.1289 238.476 18.1289H236.924V14.1786H238.374C238.664 14.1786 238.876 14.188 239.01 14.2069C239.145 14.2234 239.278 14.2682 239.41 14.3413C239.549 14.4167 239.652 14.5169 239.718 14.6419C239.784 14.7668 239.817 14.9154 239.817 15.0875C239.817 15.2761 239.765 15.4458 239.661 15.5967C239.557 15.7453 239.42 15.8608 239.247 15.9433L239.265 15.9681C239.48 16.0223 239.659 16.1319 239.803 16.297C239.949 16.462 240.022 16.6742 240.022 16.9336ZM239.134 15.19C239.134 15.1004 239.119 15.0226 239.088 14.9566C239.06 14.8906 239.009 14.8387 238.936 14.801C238.851 14.7562 238.756 14.7303 238.65 14.7232C238.546 14.7138 238.401 14.7091 238.215 14.7091H237.582V15.7912H238.346C238.508 15.7912 238.624 15.7842 238.692 15.77C238.761 15.7535 238.836 15.7205 238.918 15.671C238.996 15.6238 239.052 15.5602 239.085 15.48C239.118 15.3999 239.134 15.3032 239.134 15.19ZM239.336 16.9371C239.336 16.8027 239.316 16.6954 239.276 16.6153C239.238 16.5327 239.153 16.4597 239.021 16.396C238.939 16.3559 238.85 16.3312 238.756 16.3217C238.662 16.3123 238.531 16.3076 238.363 16.3076H237.582V17.5984H238.158C238.396 17.5984 238.581 17.589 238.713 17.5701C238.845 17.5513 238.959 17.5135 239.053 17.457C239.152 17.3957 239.224 17.3249 239.269 17.2448C239.313 17.1646 239.336 17.062 239.336 16.9371ZM242.929 17.1564V16.06C242.771 16.0742 242.571 16.0942 242.328 16.1201C242.087 16.1437 241.893 16.1779 241.744 16.2227C241.567 16.2769 241.421 16.3606 241.306 16.4738C241.19 16.5846 241.132 16.7402 241.132 16.9406C241.132 17.167 241.196 17.3379 241.323 17.4534C241.451 17.569 241.637 17.6267 241.882 17.6267C242.092 17.6267 242.282 17.5819 242.452 17.4923C242.621 17.4004 242.78 17.2884 242.929 17.1564ZM242.929 17.7081C242.875 17.7481 242.802 17.8047 242.71 17.8778C242.62 17.9485 242.533 18.0051 242.448 18.0476C242.33 18.1089 242.216 18.156 242.105 18.189C241.996 18.222 241.843 18.2385 241.645 18.2385C241.482 18.2385 241.328 18.2079 241.182 18.1466C241.036 18.0853 240.907 17.9992 240.796 17.8884C240.69 17.78 240.605 17.6468 240.542 17.4888C240.478 17.3285 240.446 17.1599 240.446 16.9831C240.446 16.7096 240.504 16.4773 240.62 16.2864C240.735 16.093 240.918 15.9398 241.168 15.8266C241.389 15.7252 241.651 15.6557 241.953 15.618C242.255 15.5779 242.58 15.5484 242.929 15.5295V15.4022C242.929 15.2466 242.905 15.1217 242.858 15.0274C242.811 14.9307 242.745 14.8564 242.66 14.8045C242.575 14.7503 242.472 14.715 242.349 14.6985C242.226 14.6796 242.1 14.6702 241.971 14.6702C241.817 14.6702 241.637 14.6937 241.429 14.7409C241.222 14.7857 241.014 14.8517 240.807 14.9389H240.768V14.2635C240.891 14.2281 241.066 14.1892 241.295 14.1467C241.524 14.1043 241.75 14.0831 241.974 14.0831C242.245 14.0831 242.474 14.1043 242.66 14.1467C242.846 14.1892 243.014 14.2658 243.162 14.3766C243.306 14.4851 243.413 14.6254 243.484 14.7975C243.555 14.9696 243.59 15.1794 243.59 15.427V18.1289H242.929V17.7081ZM247.647 18.1289H246.982V16.35H245.192V18.1289H244.527V14.1786H245.192V15.7771H246.982V14.1786H247.647V18.1289ZM251.728 18.1289H251.063V16.35H249.274V18.1289H248.609V14.1786H249.274V15.7771H251.063V14.1786H251.728V18.1289ZM255.94 16.1555C255.94 16.8204 255.78 17.3344 255.459 17.6974C255.138 18.0582 254.712 18.2385 254.179 18.2385C253.629 18.2385 253.197 18.0523 252.881 17.6798C252.567 17.3049 252.41 16.7968 252.41 16.1555C252.41 15.4954 252.572 14.9826 252.895 14.6171C253.22 14.2517 253.648 14.0689 254.179 14.0689C254.712 14.0689 255.138 14.2517 255.459 14.6171C255.78 14.9802 255.94 15.493 255.94 16.1555ZM255.254 16.1555C255.254 15.6439 255.161 15.2643 254.974 15.0167C254.788 14.7668 254.523 14.6419 254.179 14.6419C253.832 14.6419 253.565 14.7668 253.376 15.0167C253.19 15.2643 253.097 15.6439 253.097 16.1555C253.097 16.6506 253.19 17.0267 253.376 17.2837C253.565 17.5383 253.832 17.6656 254.179 17.6656C254.521 17.6656 254.785 17.5407 254.971 17.2907C255.16 17.0385 255.254 16.6601 255.254 16.1555ZM258.338 18.2209C257.708 18.2209 257.219 18.044 256.87 17.6904C256.523 17.3344 256.35 16.8298 256.35 16.1767C256.35 15.5331 256.519 15.0215 256.856 14.6419C257.193 14.2599 257.634 14.0689 258.179 14.0689C258.424 14.0689 258.641 14.1043 258.829 14.175C259.018 14.2458 259.183 14.3566 259.324 14.5075C259.466 14.6584 259.574 14.8435 259.65 15.0627C259.725 15.2796 259.763 15.546 259.763 15.862V16.2227H257.026C257.026 16.6825 257.141 17.0338 257.372 17.2766C257.603 17.5194 257.923 17.6409 258.331 17.6409C258.477 17.6409 258.619 17.6244 258.759 17.5914C258.9 17.5583 259.027 17.5159 259.14 17.464C259.261 17.4098 259.362 17.3579 259.445 17.3084C259.527 17.2566 259.596 17.2082 259.65 17.1634H259.689V17.8884C259.611 17.9191 259.514 17.958 259.399 18.0051C259.283 18.0499 259.179 18.0853 259.087 18.1112C258.958 18.1466 258.84 18.1737 258.734 18.1926C258.63 18.2114 258.498 18.2209 258.338 18.2209ZM259.116 15.7134C259.111 15.5343 259.09 15.3798 259.052 15.2502C259.014 15.1205 258.96 15.0108 258.889 14.9213C258.812 14.8222 258.711 14.7468 258.589 14.6949C258.469 14.643 258.319 14.6171 258.14 14.6171C257.963 14.6171 257.812 14.6442 257.687 14.6985C257.564 14.7503 257.452 14.8269 257.351 14.9283C257.252 15.0321 257.177 15.1476 257.125 15.2749C257.073 15.3999 257.04 15.546 257.026 15.7134H259.116Z" fill="#8C99B2"/>
<rect x="151" y="26.2578" width="168" height="1.11429" fill="#303549"/>
<rect x="6" y="55.7012" width="313" height="26.7429" rx="1.11429" fill="#272A38"/>
<g clip-path="url(#clip0)">
<path d="M27.9165 67.5387L27.7215 66.9537V66.2852H26.245V66.9537L25.5208 69.1544V69.823" stroke="#D7E2F2" stroke-width="0.557143" stroke-miterlimit="10" stroke-linecap="round" stroke-linejoin="round"/>
<path d="M25.3536 67.0918H24.2393V67.6211L23.6543 69.2925V69.8218H25.5207" stroke="#D7E2F2" stroke-width="0.557143" stroke-miterlimit="10" stroke-linecap="round" stroke-linejoin="round"/>
<path d="M23.2643 67.9277H22.7071V68.2899L22.3171 69.4599V69.822H23.8771" stroke="#D7E2F2" stroke-width="0.557143" stroke-miterlimit="10" stroke-linecap="round" stroke-linejoin="round"/>
<path d="M26.7465 67.2598C26.7465 67.2598 26.8579 67.2598 26.6629 67.2598C26.4679 67.2598 26.3008 67.2598 26.3008 67.2598C26.3008 67.2598 26.4679 67.2598 26.6629 67.2598C26.8579 67.2598 26.7465 67.2598 26.7465 67.2598Z" stroke="#D7E2F2" stroke-width="0.557143" stroke-miterlimit="10" stroke-linecap="round" stroke-linejoin="round"/>
<path d="M21.76 69.8223H25.5207" stroke="#D7E2F2" stroke-width="0.557143" stroke-miterlimit="10" stroke-linecap="round" stroke-linejoin="round"/>
<path d="M28.1114 70.9645L26.9692 69.7945L28.1114 68.6523" stroke="#D7E2F2" stroke-width="0.557143" stroke-miterlimit="10" stroke-linecap="round" stroke-linejoin="round"/>
<path d="M29.56 69.7949H26.9692" stroke="#D7E2F2" stroke-width="0.557143" stroke-miterlimit="10" stroke-linecap="round" stroke-linejoin="round"/>
</g>
<path d="M41.4531 72.168H40.7029V67.6662L38.1397 72.168H37.378V66.497H38.1282V70.9264L40.6572 66.497H41.4531V72.168ZM45.654 68.5422H44.2068V72.168H43.4907V68.5422H42.0435V67.9138H45.654V68.5422ZM49.6873 70.0428C49.6873 70.7588 49.5147 71.3123 49.1694 71.7033C48.824 72.0918 48.3645 72.286 47.7906 72.286C47.199 72.286 46.7331 72.0854 46.3929 71.6843C46.0552 71.2806 45.8864 70.7334 45.8864 70.0428C45.8864 69.3318 46.0603 68.7796 46.4081 68.386C46.7585 67.9925 47.2194 67.7957 47.7906 67.7957C48.3645 67.7957 48.824 67.9925 49.1694 68.386C49.5147 68.7771 49.6873 69.3293 49.6873 70.0428ZM48.9485 70.0428C48.9485 69.4918 48.8482 69.083 48.6476 68.8164C48.447 68.5473 48.1614 68.4127 47.7906 68.4127C47.4174 68.4127 47.1292 68.5473 46.9261 68.8164C46.7255 69.083 46.6252 69.4918 46.6252 70.0428C46.6252 70.576 46.7255 70.981 46.9261 71.2577C47.1292 71.5319 47.4174 71.669 47.7906 71.669C48.1588 71.669 48.4432 71.5345 48.6438 71.2653C48.8469 70.9937 48.9485 70.5861 48.9485 70.0428ZM53.1265 68.5422H51.1384V72.168H50.4224V67.9138H53.1265V68.5422ZM57.1598 70.0428C57.1598 70.7588 56.9871 71.3123 56.6418 71.7033C56.2965 72.0918 55.8369 72.286 55.2631 72.286C54.6715 72.286 54.2056 72.0854 53.8654 71.6843C53.5277 71.2806 53.3588 70.7334 53.3588 70.0428C53.3588 69.3318 53.5327 68.7796 53.8806 68.386C54.231 67.9925 54.6918 67.7957 55.2631 67.7957C55.8369 67.7957 56.2965 67.9925 56.6418 68.386C56.9871 68.7771 57.1598 69.3293 57.1598 70.0428ZM56.4209 70.0428C56.4209 69.4918 56.3206 69.083 56.12 68.8164C55.9195 68.5473 55.6338 68.4127 55.2631 68.4127C54.8899 68.4127 54.6017 68.5473 54.3986 68.8164C54.198 69.083 54.0977 69.4918 54.0977 70.0428C54.0977 70.576 54.198 70.981 54.3986 71.2577C54.6017 71.5319 54.8899 71.669 55.2631 71.669C55.6313 71.669 55.9156 71.5345 56.1162 71.2653C56.3194 70.9937 56.4209 70.5861 56.4209 70.0428ZM62.0234 72.2632C61.7314 72.2632 61.4635 72.2188 61.2198 72.1299C60.976 72.0385 60.7665 71.9014 60.5913 71.7186C60.4161 71.5357 60.2803 71.306 60.1838 71.0292C60.0873 70.7499 60.0391 70.4224 60.0391 70.0466C60.0391 69.6733 60.0886 69.3509 60.1876 69.0792C60.2892 68.8075 60.4238 68.579 60.5913 68.3937C60.7589 68.2083 60.9671 68.0661 61.2159 67.9671C61.4673 67.8655 61.7365 67.8147 62.0234 67.8147C62.257 67.8147 62.4817 67.8478 62.6975 67.9138C62.9158 67.9798 63.1101 68.056 63.2802 68.1423V68.9459H63.2383C63.1875 68.9027 63.1215 68.8532 63.0403 68.7974C62.9615 68.7415 62.8651 68.6844 62.7508 68.626C62.6518 68.5752 62.535 68.5308 62.4004 68.4927C62.2658 68.4546 62.1364 68.4355 62.0119 68.4355C61.6412 68.4355 61.3429 68.5765 61.1169 68.8583C60.8935 69.1376 60.7818 69.5337 60.7818 70.0466C60.7818 70.5493 60.8897 70.9416 61.1055 71.2234C61.3239 71.5027 61.626 71.6424 62.0119 71.6424C62.2455 71.6424 62.4677 71.5941 62.6784 71.4977C62.8892 71.4012 63.0758 71.2768 63.2383 71.1244H63.2802V71.928C63.2091 71.961 63.1202 72.0017 63.0136 72.0499C62.907 72.0956 62.8105 72.1299 62.7241 72.1527C62.6023 72.1883 62.4931 72.2149 62.3966 72.2327C62.3001 72.253 62.1757 72.2632 62.0234 72.2632ZM67.0926 70.8502C67.0926 71.0559 67.0507 71.2425 66.9669 71.4101C66.8857 71.5776 66.774 71.7135 66.6318 71.8176C66.4642 71.9445 66.2852 72.0347 66.0948 72.088C65.9043 72.1413 65.6593 72.168 65.3597 72.168H63.9353V67.9138H64.6513V69.5705H65.3787C65.6987 69.5705 65.9462 69.587 66.1214 69.62C66.2991 69.653 66.4756 69.7343 66.6508 69.8638C66.7981 69.9729 66.9085 70.1126 66.9822 70.2827C67.0558 70.4528 67.0926 70.642 67.0926 70.8502ZM66.3537 70.8616C66.3537 70.7321 66.3309 70.6191 66.2852 70.5227C66.242 70.4236 66.1697 70.3437 66.0681 70.2827C65.9615 70.2192 65.8396 70.1812 65.7025 70.1685C65.5679 70.1558 65.3737 70.1494 65.1198 70.1494H64.6513V71.5967H65.1045C65.3584 71.5967 65.5552 71.5865 65.6948 71.5662C65.8345 71.5434 65.9551 71.5015 66.0567 71.4405C66.1608 71.3745 66.2357 71.2971 66.2814 71.2082C66.3296 71.1168 66.3537 71.0013 66.3537 70.8616ZM68.3037 72.168H67.5877V67.9138H68.3037V72.168ZM72.9121 69.9285C72.9121 70.6369 72.742 71.2019 72.4018 71.6233C72.0641 72.0423 71.6363 72.2518 71.1183 72.2518C70.9075 72.2518 70.7209 72.2276 70.5584 72.1794C70.3959 72.1312 70.2296 72.0562 70.0595 71.9547V73.7371H69.3435V67.9138H70.0595V68.3594C70.2372 68.1994 70.434 68.0661 70.6498 67.9595C70.8682 67.8503 71.1056 67.7957 71.362 67.7957C71.8495 67.7957 72.2291 67.9887 72.5008 68.3746C72.775 68.7605 72.9121 69.2785 72.9121 69.9285ZM72.1733 70.0085C72.1733 69.5235 72.0958 69.1478 71.9409 68.8812C71.7861 68.612 71.5347 68.4774 71.1868 68.4774C70.9837 68.4774 70.7869 68.5231 70.5965 68.6146C70.4086 68.7034 70.2296 68.8189 70.0595 68.9611V71.372C70.2474 71.4634 70.4074 71.5256 70.5394 71.5586C70.674 71.5916 70.8276 71.6081 71.0002 71.6081C71.3709 71.6081 71.6591 71.4723 71.8648 71.2006C72.0704 70.9289 72.1733 70.5315 72.1733 70.0085ZM76.8769 70.8502C76.8769 71.0559 76.835 71.2425 76.7512 71.4101C76.6699 71.5776 76.5582 71.7135 76.416 71.8176C76.2485 71.9445 76.0695 72.0347 75.879 72.088C75.6886 72.1413 75.4436 72.168 75.144 72.168H73.6548V67.9138H74.3708V69.5705H75.163C75.4829 69.5705 75.7305 69.587 75.9057 69.62C76.0834 69.653 76.2599 69.7343 76.4351 69.8638C76.5823 69.9729 76.6928 70.1126 76.7664 70.2827C76.8401 70.4528 76.8769 70.642 76.8769 70.8502ZM76.138 70.8616C76.138 70.7321 76.1152 70.6191 76.0695 70.5227C76.0263 70.4236 75.9539 70.3437 75.8524 70.2827C75.7457 70.2192 75.6239 70.1812 75.4867 70.1685C75.3522 70.1558 75.1579 70.1494 74.904 70.1494H74.3708V71.5967H74.8888C75.1427 71.5967 75.3395 71.5865 75.4791 71.5662C75.6188 71.5434 75.7394 71.5015 75.8409 71.4405C75.945 71.3745 76.0199 71.2971 76.0656 71.2082C76.1139 71.1168 76.138 71.0013 76.138 70.8616ZM80.6436 72.168H79.9276V70.4808H79.2192L77.9585 72.168H77.1244L78.4917 70.416C78.1388 70.3119 77.8798 70.157 77.7148 69.9514C77.5523 69.7457 77.471 69.4702 77.471 69.1249C77.471 68.9142 77.5167 68.7301 77.6081 68.5727C77.7021 68.4127 77.8278 68.2781 77.9852 68.1689C78.1121 68.0826 78.2721 68.0191 78.4651 67.9785C78.658 67.9354 78.8739 67.9138 79.1125 67.9138H80.6436V72.168ZM79.9276 69.9171V68.4851H79.1506C78.9856 68.4851 78.8548 68.4939 78.7583 68.5117C78.6644 68.5295 78.573 68.5638 78.4841 68.6146C78.3927 68.6704 78.3229 68.7466 78.2746 68.8431C78.2289 68.937 78.2061 69.0386 78.2061 69.1478C78.2061 69.2874 78.2213 69.4017 78.2518 69.4905C78.2848 69.5769 78.3432 69.6568 78.427 69.7305C78.5158 69.8066 78.6238 69.8574 78.7507 69.8828C78.8802 69.9057 79.0211 69.9171 79.1735 69.9171H79.9276Z" fill="#D7E2F2"/>
<path d="M212.051 71.9434H208.891V71.2818H210.066V66.9378H208.891V66.3458C209.335 66.3458 209.662 66.2834 209.87 66.1586C210.082 66.031 210.201 65.7916 210.227 65.4405H210.902V71.2818H212.051V71.9434ZM220.134 69.841C220.134 70.1747 220.079 70.4823 219.969 70.7638C219.858 71.0453 219.71 71.2803 219.525 71.4689C219.33 71.6691 219.113 71.8215 218.872 71.9259C218.631 72.0275 218.365 72.0783 218.075 72.0783C217.782 72.0783 217.515 72.029 217.274 71.9303C217.036 71.8316 216.826 71.6851 216.643 71.4907C216.42 71.2556 216.244 70.9422 216.117 70.5505C215.992 70.1559 215.929 69.6713 215.929 69.0967C215.929 68.5338 215.987 68.0259 216.103 67.5733C216.22 67.1177 216.398 66.7216 216.639 66.385C216.874 66.0571 217.177 65.8017 217.549 65.6189C217.92 65.4332 218.349 65.3403 218.837 65.3403C218.982 65.3403 219.117 65.3476 219.242 65.3621C219.367 65.3766 219.477 65.3998 219.573 65.4318V66.2631H219.533C219.455 66.2196 219.342 66.1804 219.194 66.1456C219.046 66.1079 218.888 66.089 218.719 66.089C218.18 66.089 217.743 66.2718 217.409 66.6374C217.078 67.0002 216.883 67.5399 216.822 68.2566C217.028 68.1116 217.24 67.9998 217.457 67.9215C217.675 67.8431 217.913 67.804 218.171 67.804C218.423 67.804 218.644 67.8301 218.833 67.8823C219.024 67.9316 219.223 68.0332 219.429 68.187C219.667 68.3669 219.844 68.5947 219.96 68.8704C220.076 69.146 220.134 69.4696 220.134 69.841ZM219.25 69.8758C219.25 69.6089 219.216 69.3854 219.146 69.2055C219.076 69.0256 218.963 68.8718 218.806 68.7441C218.693 68.6513 218.564 68.5903 218.419 68.5613C218.277 68.5323 218.13 68.5178 217.979 68.5178C217.776 68.5178 217.579 68.5483 217.388 68.6092C217.196 68.6701 217.007 68.7586 216.822 68.8747C216.816 68.9386 216.812 69.0009 216.809 69.0619C216.806 69.1199 216.804 69.1939 216.804 69.2839C216.804 69.7336 216.848 70.0964 216.935 70.372C217.025 70.6477 217.135 70.8566 217.266 70.9988C217.39 71.1352 217.518 71.231 217.649 71.2861C217.782 71.3412 217.926 71.3688 218.08 71.3688C218.428 71.3688 218.709 71.244 218.924 70.9945C219.142 70.7449 219.25 70.372 219.25 69.8758ZM222.65 66.0803C222.493 66.0803 222.337 66.0992 222.18 66.1369C222.023 66.1746 221.869 66.2239 221.718 66.2849C221.579 66.3429 221.457 66.4039 221.353 66.4677C221.251 66.5315 221.16 66.591 221.079 66.6461H221.026V65.7277C221.215 65.6262 221.47 65.5348 221.792 65.4535C222.117 65.3694 222.426 65.3273 222.72 65.3273C223.013 65.3273 223.268 65.3578 223.486 65.4187C223.706 65.4767 223.905 65.5681 224.082 65.6929C224.273 65.8322 224.417 66.0005 224.513 66.1978C224.612 66.3951 224.661 66.6258 224.661 66.8899C224.661 67.2468 224.543 67.5602 224.308 67.8301C224.073 68.0999 223.792 68.2711 223.464 68.3437V68.4046C223.6 68.4307 223.745 68.4757 223.899 68.5396C224.056 68.6034 224.201 68.6977 224.334 68.8225C224.468 68.9473 224.577 69.1083 224.661 69.3056C224.745 69.5001 224.787 69.738 224.787 70.0195C224.787 70.3126 224.736 70.5824 224.635 70.8291C224.536 71.0728 224.395 71.289 224.213 71.4776C224.024 71.6749 223.796 71.8244 223.529 71.9259C223.262 72.0275 222.959 72.0783 222.619 72.0783C222.294 72.0783 221.972 72.0391 221.653 71.9608C221.334 71.8824 221.066 71.7881 220.848 71.6778V70.7594H220.909C221.092 70.8929 221.337 71.0206 221.644 71.1425C221.952 71.2643 222.26 71.3253 222.567 71.3253C222.744 71.3253 222.921 71.2977 223.098 71.2426C223.278 71.1845 223.428 71.0917 223.547 70.964C223.663 70.8363 223.751 70.6956 223.812 70.5418C223.873 70.388 223.903 70.1936 223.903 69.9585C223.903 69.7235 223.869 69.5305 223.799 69.3796C223.732 69.2287 223.638 69.1098 223.516 69.0227C223.394 68.9357 223.249 68.8762 223.081 68.8443C222.915 68.8094 222.735 68.792 222.541 68.792H222.171V68.0695H222.458C222.85 68.0695 223.168 67.9766 223.412 67.7909C223.658 67.6052 223.782 67.3353 223.782 66.9813C223.782 66.8188 223.75 66.6795 223.686 66.5634C223.622 66.4445 223.541 66.3502 223.442 66.2805C223.332 66.2051 223.21 66.1528 223.076 66.1238C222.943 66.0948 222.801 66.0803 222.65 66.0803ZM229.936 69.7148H229.166V71.9434H228.33V69.7148H225.466V68.8007L228.365 65.4622H229.166V69.0184H229.936V69.7148ZM228.33 69.0184V66.4851L226.145 69.0184H228.33ZM237.088 71.9434H233.928V71.2818H235.103V66.9378H233.928V66.3458C234.372 66.3458 234.698 66.2834 234.907 66.1586C235.119 66.031 235.238 65.7916 235.264 65.4405H235.939V71.2818H237.088V71.9434ZM242.211 69.8802C242.211 70.1936 242.16 70.4838 242.058 70.7507C241.96 71.0177 241.821 71.2484 241.641 71.4428C241.458 71.6401 241.23 71.7954 240.957 71.9085C240.687 72.0217 240.384 72.0783 240.048 72.0783C239.737 72.0783 239.431 72.0435 239.129 71.9738C238.83 71.9071 238.571 71.8186 238.35 71.7083V70.7899H238.411C238.478 70.8392 238.573 70.8958 238.698 70.9597C238.823 71.0206 238.961 71.0786 239.112 71.1338C239.283 71.1947 239.44 71.2426 239.582 71.2774C239.724 71.3093 239.884 71.3253 240.061 71.3253C240.235 71.3253 240.404 71.2948 240.57 71.2339C240.735 71.17 240.877 71.0685 240.996 70.9292C241.104 70.8015 241.185 70.6521 241.24 70.4809C241.298 70.3097 241.327 70.108 241.327 69.8758C241.327 69.6466 241.295 69.458 241.231 69.31C241.171 69.162 241.081 69.0401 240.962 68.9444C240.837 68.8341 240.683 68.7572 240.5 68.7137C240.32 68.6672 240.119 68.644 239.895 68.644C239.66 68.644 239.424 68.6629 239.186 68.7006C238.948 68.7354 238.758 68.7688 238.616 68.8007V65.4622H242.172V66.2239H239.456V67.9476C239.56 67.936 239.663 67.9273 239.765 67.9215C239.866 67.9157 239.959 67.9128 240.043 67.9128C240.374 67.9128 240.654 67.9403 240.883 67.9955C241.113 68.0506 241.333 68.158 241.545 68.3176C241.76 68.4801 241.924 68.6832 242.037 68.927C242.153 69.1707 242.211 69.4884 242.211 69.8802ZM244.901 66.0803C244.744 66.0803 244.587 66.0992 244.431 66.1369C244.274 66.1746 244.12 66.2239 243.969 66.2849C243.83 66.3429 243.708 66.4039 243.604 66.4677C243.502 66.5315 243.411 66.591 243.329 66.6461H243.277V65.7277C243.466 65.6262 243.721 65.5348 244.043 65.4535C244.368 65.3694 244.677 65.3273 244.97 65.3273C245.264 65.3273 245.519 65.3578 245.737 65.4187C245.957 65.4767 246.156 65.5681 246.333 65.6929C246.524 65.8322 246.668 66.0005 246.764 66.1978C246.862 66.3951 246.912 66.6258 246.912 66.8899C246.912 67.2468 246.794 67.5602 246.559 67.8301C246.324 68.0999 246.043 68.2711 245.715 68.3437V68.4046C245.851 68.4307 245.996 68.4757 246.15 68.5396C246.307 68.6034 246.452 68.6977 246.585 68.8225C246.719 68.9473 246.828 69.1083 246.912 69.3056C246.996 69.5001 247.038 69.738 247.038 70.0195C247.038 70.3126 246.987 70.5824 246.886 70.8291C246.787 71.0728 246.646 71.289 246.463 71.4776C246.275 71.6749 246.047 71.8244 245.78 71.9259C245.513 72.0275 245.21 72.0783 244.87 72.0783C244.545 72.0783 244.223 72.0391 243.904 71.9608C243.585 71.8824 243.316 71.7881 243.099 71.6778V70.7594H243.16C243.343 70.8929 243.588 71.0206 243.895 71.1425C244.203 71.2643 244.51 71.3253 244.818 71.3253C244.995 71.3253 245.172 71.2977 245.349 71.2426C245.529 71.1845 245.678 71.0917 245.797 70.964C245.914 70.8363 246.002 70.6956 246.063 70.5418C246.124 70.388 246.154 70.1936 246.154 69.9585C246.154 69.7235 246.12 69.5305 246.05 69.3796C245.983 69.2287 245.889 69.1098 245.767 69.0227C245.645 68.9357 245.5 68.8762 245.332 68.8443C245.166 68.8094 244.986 68.792 244.792 68.792H244.422V68.0695H244.709C245.101 68.0695 245.419 67.9766 245.663 67.7909C245.909 67.6052 246.032 67.3353 246.032 66.9813C246.032 66.8188 246.001 66.6795 245.937 66.5634C245.873 66.4445 245.792 66.3502 245.693 66.2805C245.583 66.2051 245.461 66.1528 245.327 66.1238C245.194 66.0948 245.052 66.0803 244.901 66.0803Z" fill="#D7E2F2"/>
<path d="M283.918 72.7227H281.152V72.1437H282.181V68.3428H281.152V67.8248C281.541 67.8248 281.827 67.7702 282.009 67.661C282.195 67.5493 282.299 67.3398 282.322 67.0326H282.912V72.1437H283.918V72.7227ZM288.492 69.8853C288.492 70.9034 288.343 71.6512 288.046 72.1285C287.752 72.6033 287.296 72.8407 286.679 72.8407C286.054 72.8407 285.596 72.5982 285.304 72.1133C285.012 71.6283 284.866 70.8882 284.866 69.8929C284.866 68.8696 285.013 68.1219 285.308 67.6496C285.605 67.1748 286.062 66.9374 286.679 66.9374C287.303 66.9374 287.762 67.1824 288.054 67.6725C288.346 68.1625 288.492 68.9001 288.492 69.8853ZM287.517 71.6144C287.59 71.4265 287.642 71.1891 287.673 70.9021C287.703 70.6152 287.718 70.2763 287.718 69.8853C287.718 69.4968 287.703 69.1591 287.673 68.8722C287.642 68.5853 287.589 68.3466 287.513 68.1562C287.437 67.9632 287.331 67.8172 287.197 67.7182C287.065 67.6166 286.892 67.5658 286.679 67.5658C286.468 67.5658 286.294 67.6166 286.157 67.7182C286.022 67.8172 285.916 67.9657 285.837 68.1638C285.761 68.3567 285.709 68.6005 285.681 68.895C285.653 69.1896 285.639 69.5222 285.639 69.8929C285.639 70.289 285.65 70.6203 285.673 70.8869C285.699 71.1535 285.752 71.3922 285.833 71.6029C285.907 71.7984 286.011 71.9495 286.146 72.0562C286.283 72.1603 286.46 72.2123 286.679 72.2123C286.889 72.2123 287.062 72.1628 287.197 72.0638C287.334 71.9622 287.44 71.8124 287.517 71.6144ZM292.75 69.8853C292.75 70.9034 292.601 71.6512 292.304 72.1285C292.01 72.6033 291.554 72.8407 290.937 72.8407C290.312 72.8407 289.854 72.5982 289.562 72.1133C289.27 71.6283 289.124 70.8882 289.124 69.8929C289.124 68.8696 289.271 68.1219 289.566 67.6496C289.863 67.1748 290.32 66.9374 290.937 66.9374C291.561 66.9374 292.02 67.1824 292.312 67.6725C292.604 68.1625 292.75 68.9001 292.75 69.8853ZM291.775 71.6144C291.848 71.4265 291.9 71.1891 291.931 70.9021C291.961 70.6152 291.977 70.2763 291.977 69.8853C291.977 69.4968 291.961 69.1591 291.931 68.8722C291.9 68.5853 291.847 68.3466 291.771 68.1562C291.695 67.9632 291.589 67.8172 291.455 67.7182C291.323 67.6166 291.15 67.5658 290.937 67.5658C290.726 67.5658 290.552 67.6166 290.415 67.7182C290.28 67.8172 290.174 67.9657 290.095 68.1638C290.019 68.3567 289.967 68.6005 289.939 68.895C289.911 69.1896 289.897 69.5222 289.897 69.8929C289.897 70.289 289.908 70.6203 289.931 70.8869C289.957 71.1535 290.01 71.3922 290.091 71.6029C290.165 71.7984 290.269 71.9495 290.404 72.0562C290.541 72.1603 290.718 72.2123 290.937 72.2123C291.148 72.2123 291.32 72.1628 291.455 72.0638C291.592 71.9622 291.698 71.8124 291.775 71.6144Z" fill="#8C99B2"/>
<path d="M302.585 68.546C302.585 69.0357 302.486 69.3991 302.288 69.6363C302.092 69.8714 301.808 69.9889 301.436 69.9889C301.058 69.9889 300.77 69.8692 300.574 69.6298C300.381 69.3904 300.284 69.0302 300.284 68.5492C300.284 68.0617 300.383 67.6994 300.581 67.4622C300.779 67.2249 301.064 67.1063 301.436 67.1063C301.815 67.1063 302.101 67.226 302.295 67.4654C302.489 67.7048 302.585 68.065 302.585 68.546ZM304.76 67.1977L302.213 72.0586H301.675L304.221 67.1977H304.76ZM306.144 70.7104C306.144 71.2 306.045 71.5635 305.847 71.8007C305.651 72.0357 305.367 72.1533 304.995 72.1533C304.616 72.1533 304.329 72.0336 304.133 71.7942C303.939 71.5548 303.842 71.1946 303.842 70.7136C303.842 70.2261 303.941 69.8638 304.139 69.6265C304.337 69.3893 304.622 69.2707 304.995 69.2707C305.373 69.2707 305.659 69.3904 305.853 69.6298C306.047 69.8692 306.144 70.2294 306.144 70.7104ZM302.004 68.546C302.004 68.2152 301.965 67.9649 301.887 67.7951C301.811 67.6254 301.66 67.5405 301.436 67.5405C301.212 67.5405 301.061 67.6265 300.983 67.7984C300.904 67.9703 300.865 68.2206 300.865 68.5492C300.865 68.8757 300.902 69.1249 300.976 69.2968C301.05 69.4688 301.203 69.5547 301.436 69.5547C301.66 69.5547 301.811 69.4688 301.887 69.2968C301.965 69.1249 302.004 68.8746 302.004 68.546ZM305.563 70.7104C305.563 70.3795 305.523 70.1293 305.445 69.9595C305.369 69.7898 305.219 69.7049 304.995 69.7049C304.77 69.7049 304.619 69.7908 304.541 69.9628C304.462 70.1347 304.423 70.385 304.423 70.7136C304.423 71.0401 304.46 71.2893 304.534 71.4612C304.608 71.6331 304.762 71.7191 304.995 71.7191C305.219 71.7191 305.369 71.6331 305.445 71.4612C305.523 71.2893 305.563 71.039 305.563 70.7104Z" fill="#606580"/>
<path d="M6 88.1143C6 87.4989 6.49888 87 7.11429 87H256V112H7.11429C6.49889 112 6 111.501 6 110.886V88.1143Z" fill="#272A38"/>
<path d="M6 87H7V112H6V87Z" fill="#606580"/>
<path d="M256 87H317.886C318.501 87 319 87.4989 319 88.1143V110.886C319 111.501 318.501 112 317.886 112H256V87Z" fill="#272A38"/>
<path d="M277.195 98.8928C277.195 98.6389 277.11 98.4269 276.94 98.2567C276.77 98.0866 276.534 98.0016 276.232 98.0016C275.955 98.0016 275.728 98.0777 275.55 98.2301C275.375 98.3824 275.287 98.5881 275.287 98.8471C275.287 99.035 275.332 99.1937 275.421 99.3231C275.512 99.4526 275.648 99.5694 275.828 99.6735C275.907 99.7167 276.026 99.7764 276.186 99.8525C276.349 99.9287 276.496 99.9884 276.628 100.032C276.849 99.8614 276.999 99.6875 277.077 99.5098C277.156 99.3295 277.195 99.1238 277.195 98.8928ZM277.302 101.734C277.302 101.5 277.256 101.315 277.165 101.178C277.074 101.041 276.897 100.901 276.636 100.759C276.549 100.711 276.434 100.659 276.289 100.603C276.147 100.547 275.986 100.481 275.805 100.405C275.595 100.544 275.433 100.717 275.322 100.923C275.21 101.126 275.154 101.358 275.154 101.62C275.154 101.962 275.257 102.246 275.462 102.469C275.671 102.692 275.931 102.804 276.243 102.804C276.563 102.804 276.82 102.709 277.013 102.519C277.206 102.326 277.302 102.064 277.302 101.734ZM276.236 103.372C275.954 103.372 275.697 103.33 275.466 103.246C275.235 103.162 275.038 103.042 274.876 102.884C274.716 102.732 274.594 102.552 274.51 102.343C274.429 102.133 274.388 101.91 274.388 101.677C274.388 101.37 274.47 101.088 274.632 100.831C274.797 100.572 275.036 100.367 275.348 100.214V100.192C275.069 100.029 274.862 99.8513 274.727 99.6583C274.593 99.4653 274.526 99.2241 274.526 98.9347C274.526 98.5081 274.687 98.1526 275.009 97.8683C275.332 97.5839 275.741 97.4417 276.236 97.4417C276.751 97.4417 277.164 97.5775 277.473 97.8492C277.786 98.1184 277.942 98.4637 277.942 98.8852C277.942 99.1391 277.867 99.3904 277.717 99.6393C277.57 99.8881 277.357 100.082 277.077 100.222V100.245C277.407 100.4 277.658 100.588 277.828 100.808C277.998 101.029 278.083 101.314 278.083 101.662C278.083 102.147 277.906 102.553 277.553 102.88C277.203 103.208 276.764 103.372 276.236 103.372ZM282.341 98.4205L279.888 103.242H279.077L281.674 98.2377H278.742V97.5712H282.341V98.4205ZM284.257 103.242H283.346V102.157H284.257V103.242ZM288.899 103.242H285.399V102.446C285.65 102.208 285.888 101.979 286.111 101.761C286.335 101.542 286.553 101.315 286.766 101.079C287.198 100.604 287.493 100.225 287.65 99.9401C287.807 99.6532 287.886 99.3574 287.886 99.0527C287.886 98.8953 287.861 98.7569 287.81 98.6376C287.762 98.5183 287.694 98.4192 287.608 98.3405C287.519 98.2644 287.416 98.2072 287.3 98.1691C287.183 98.1311 287.055 98.112 286.915 98.112C286.78 98.112 286.643 98.1298 286.504 98.1653C286.367 98.1983 286.234 98.2402 286.108 98.291C286.001 98.3342 285.898 98.3862 285.799 98.4472C285.7 98.5081 285.62 98.5602 285.559 98.6033H285.517V97.7959C285.675 97.7172 285.893 97.641 286.172 97.5674C286.454 97.4912 286.721 97.4531 286.972 97.4531C287.5 97.4531 287.914 97.594 288.214 97.8759C288.513 98.1552 288.663 98.5348 288.663 99.0146C288.663 99.2355 288.636 99.4399 288.583 99.6278C288.532 99.8157 288.461 99.9896 288.37 100.15C288.276 100.315 288.163 100.478 288.031 100.641C287.899 100.803 287.759 100.963 287.612 101.121C287.373 101.38 287.107 101.649 286.812 101.928C286.52 102.208 286.287 102.428 286.111 102.591H288.899V103.242ZM292.331 98.8928C292.331 98.6389 292.246 98.4269 292.076 98.2567C291.905 98.0866 291.669 98.0016 291.367 98.0016C291.09 98.0016 290.863 98.0777 290.685 98.2301C290.51 98.3824 290.423 98.5881 290.423 98.8471C290.423 99.035 290.467 99.1937 290.556 99.3231C290.647 99.4526 290.783 99.5694 290.963 99.6735C291.042 99.7167 291.162 99.7764 291.321 99.8525C291.484 99.9287 291.631 99.9884 291.763 100.032C291.984 99.8614 292.134 99.6875 292.213 99.5098C292.291 99.3295 292.331 99.1238 292.331 98.8928ZM292.437 101.734C292.437 101.5 292.392 101.315 292.3 101.178C292.209 101.041 292.032 100.901 291.771 100.759C291.685 100.711 291.569 100.659 291.424 100.603C291.282 100.547 291.121 100.481 290.941 100.405C290.73 100.544 290.569 100.717 290.457 100.923C290.345 101.126 290.289 101.358 290.289 101.62C290.289 101.962 290.392 102.246 290.598 102.469C290.806 102.692 291.066 102.804 291.379 102.804C291.699 102.804 291.955 102.709 292.148 102.519C292.341 102.326 292.437 102.064 292.437 101.734ZM291.371 103.372C291.089 103.372 290.833 103.33 290.602 103.246C290.371 103.162 290.174 103.042 290.011 102.884C289.851 102.732 289.729 102.552 289.646 102.343C289.564 102.133 289.524 101.91 289.524 101.677C289.524 101.37 289.605 101.088 289.768 100.831C289.933 100.572 290.171 100.367 290.484 100.214V100.192C290.204 100.029 289.997 99.8513 289.863 99.6583C289.728 99.4653 289.661 99.2241 289.661 98.9347C289.661 98.5081 289.822 98.1526 290.145 97.8683C290.467 97.5839 290.876 97.4417 291.371 97.4417C291.886 97.4417 292.299 97.5775 292.609 97.8492C292.921 98.1184 293.077 98.4637 293.077 98.8852C293.077 99.1391 293.002 99.3904 292.853 99.6393C292.705 99.8881 292.492 100.082 292.213 100.222V100.245C292.543 100.4 292.793 100.588 292.963 100.808C293.133 101.029 293.218 101.314 293.218 101.662C293.218 102.147 293.042 102.553 292.689 102.88C292.338 103.208 291.899 103.372 291.371 103.372Z" fill="#606580"/>
<path d="M302.791 98.8429C302.791 99.3325 302.692 99.696 302.494 99.9332C302.298 100.168 302.014 100.286 301.642 100.286C301.263 100.286 300.976 100.166 300.78 99.9267C300.587 99.6873 300.49 99.3271 300.49 98.8461C300.49 98.3586 300.589 97.9963 300.787 97.759C300.985 97.5218 301.27 97.4032 301.642 97.4032C302.021 97.4032 302.307 97.5229 302.501 97.7623C302.694 98.0017 302.791 98.3619 302.791 98.8429ZM304.965 97.4946L302.419 102.355H301.88L304.427 97.4946H304.965ZM306.349 101.007C306.349 101.497 306.25 101.86 306.052 102.098C305.857 102.333 305.573 102.45 305.2 102.45C304.822 102.45 304.534 102.33 304.339 102.091C304.145 101.852 304.048 101.491 304.048 101.01C304.048 100.523 304.147 100.161 304.345 99.9234C304.543 99.6862 304.828 99.5676 305.2 99.5676C305.579 99.5676 305.865 99.6873 306.059 99.9267C306.253 100.166 306.349 100.526 306.349 101.007ZM302.21 98.8429C302.21 98.5121 302.171 98.2618 302.093 98.092C302.016 97.9223 301.866 97.8374 301.642 97.8374C301.418 97.8374 301.267 97.9234 301.188 98.0953C301.11 98.2672 301.071 98.5175 301.071 98.8461C301.071 99.1726 301.108 99.4218 301.182 99.5937C301.256 99.7656 301.409 99.8516 301.642 99.8516C301.866 99.8516 302.016 99.7656 302.093 99.5937C302.171 99.4218 302.21 99.1715 302.21 98.8429ZM305.768 101.007C305.768 100.676 305.729 100.426 305.651 100.256C305.575 100.087 305.425 100.002 305.2 100.002C304.976 100.002 304.825 100.088 304.747 100.26C304.668 100.432 304.629 100.682 304.629 101.01C304.629 101.337 304.666 101.586 304.74 101.758C304.814 101.93 304.967 102.016 305.2 102.016C305.425 102.016 305.575 101.93 305.651 101.758C305.729 101.586 305.768 101.336 305.768 101.007Z" fill="#606580"/>
<path d="M39.9635 98.4434H39.2094V95.6669H36.6006V98.4434H35.8465V92.7724H36.6006V94.9966H39.2094V92.7724H39.9635V98.4434ZM42.9076 98.5424C42.2297 98.5424 41.7028 98.352 41.327 97.9711C40.9538 97.5877 40.7672 97.0443 40.7672 96.341C40.7672 95.6479 40.9487 95.0969 41.3118 94.6881C41.6749 94.2768 42.1497 94.0711 42.7362 94.0711C43.0003 94.0711 43.2339 94.1092 43.437 94.1854C43.6401 94.2615 43.8178 94.3809 43.9702 94.5434C44.1225 94.7059 44.2393 94.9052 44.3206 95.1413C44.4018 95.3749 44.4425 95.6618 44.4425 96.0021V96.3905H41.4946C41.4946 96.8856 41.619 97.264 41.8678 97.5255C42.1167 97.787 42.4607 97.9178 42.9 97.9178C43.0574 97.9178 43.211 97.9 43.3608 97.8645C43.5132 97.8289 43.6503 97.7832 43.7721 97.7273C43.9016 97.6689 44.0108 97.6131 44.0997 97.5598C44.1885 97.5039 44.2622 97.4519 44.3206 97.4036H44.3625V98.1844C44.2787 98.2174 44.1746 98.2593 44.0502 98.3101C43.9258 98.3583 43.814 98.3964 43.715 98.4243C43.5754 98.4624 43.4484 98.4916 43.3342 98.5119C43.2224 98.5322 43.0802 98.5424 42.9076 98.5424ZM43.7455 95.8421C43.7404 95.6491 43.7176 95.4828 43.6769 95.3432C43.6363 95.2035 43.5779 95.0854 43.5017 94.989C43.4179 94.8823 43.31 94.8011 43.178 94.7452C43.0485 94.6894 42.8873 94.6614 42.6943 94.6614C42.5039 94.6614 42.3414 94.6906 42.2068 94.749C42.0748 94.8049 41.9542 94.8874 41.845 94.9966C41.7384 95.1083 41.6571 95.2327 41.6012 95.3698C41.5454 95.5044 41.5098 95.6618 41.4946 95.8421H43.7455ZM50.3382 96.2039C50.3382 96.5822 50.2912 96.9174 50.1972 97.2094C50.1058 97.4988 49.984 97.7375 49.8316 97.9254C49.6767 98.1158 49.5015 98.2605 49.306 98.3596C49.1105 98.4561 48.9061 98.5043 48.6928 98.5043C48.5329 98.5043 48.392 98.4738 48.2701 98.4129C48.1508 98.352 48.0492 98.2999 47.9654 98.2567V100.013H47.257V98.2567C47.1072 98.3354 46.9879 98.3964 46.899 98.4396C46.8101 98.4827 46.6641 98.5043 46.461 98.5043C45.9837 98.5043 45.6015 98.3113 45.3146 97.9254C45.0277 97.5369 44.8843 97.005 44.8843 96.3296C44.8843 95.9741 44.93 95.6567 45.0214 95.3774C45.1128 95.0981 45.2385 94.8607 45.3984 94.6652C45.5457 94.485 45.7158 94.3453 45.9088 94.2463C46.1043 94.1447 46.3074 94.0939 46.5181 94.0939C46.6679 94.0939 46.8025 94.1206 46.9219 94.1739C47.0437 94.2247 47.1554 94.2831 47.257 94.3491V92.5172H47.9654V94.3491C48.0771 94.2806 48.2053 94.2209 48.3501 94.1701C48.4948 94.1193 48.6433 94.0939 48.7957 94.0939C49.273 94.0939 49.6488 94.2856 49.923 94.669C50.1998 95.0499 50.3382 95.5615 50.3382 96.2039ZM49.6031 96.2839C49.6031 95.7989 49.5206 95.4155 49.3555 95.1337C49.193 94.8519 48.9518 94.7109 48.6319 94.7109C48.4999 94.7109 48.3831 94.7287 48.2815 94.7643C48.1825 94.7973 48.0771 94.8341 47.9654 94.8747V97.7121C48.0771 97.7654 48.1673 97.8086 48.2358 97.8416C48.3069 97.8746 48.4097 97.8911 48.5443 97.8911C48.8744 97.8911 49.1334 97.7553 49.3213 97.4836C49.5092 97.2119 49.6031 96.812 49.6031 96.2839ZM47.257 97.7121V94.8747C47.1656 94.8315 47.0742 94.7935 46.9828 94.7604C46.8914 94.7274 46.7898 94.7109 46.6781 94.7109C46.3531 94.7109 46.0954 94.8392 45.905 95.0956C45.7145 95.3521 45.6193 95.752 45.6193 96.2953C45.6193 96.7904 45.7044 97.1802 45.8745 97.4646C46.0471 97.7489 46.2934 97.8911 46.6134 97.8911C46.7403 97.8911 46.8546 97.8721 46.9561 97.834C47.0577 97.7959 47.158 97.7553 47.257 97.7121ZM54.2001 94.8176H52.7528V98.4434H52.0368V94.8176H50.5895V94.1892H54.2001V94.8176ZM57.9553 97.1256C57.9553 97.3312 57.9135 97.5179 57.8297 97.6854C57.7484 97.853 57.6367 97.9889 57.4945 98.093C57.3269 98.2199 57.1479 98.3101 56.9575 98.3634C56.7671 98.4167 56.522 98.4434 56.2224 98.4434H54.7333V94.1892H55.4493V95.8459H56.2415C56.5614 95.8459 56.809 95.8624 56.9842 95.8954C57.1619 95.9284 57.3384 96.0097 57.5136 96.1392C57.6608 96.2483 57.7713 96.388 57.8449 96.5581C57.9185 96.7282 57.9553 96.9174 57.9553 97.1256ZM57.2165 97.137C57.2165 97.0075 57.1936 96.8945 57.1479 96.798C57.1048 96.699 57.0324 96.619 56.9308 96.5581C56.8242 96.4946 56.7023 96.4565 56.5652 96.4438C56.4306 96.4312 56.2364 96.4248 55.9825 96.4248H55.4493V97.8721H55.9673C56.2212 97.8721 56.4179 97.8619 56.5576 97.8416C56.6972 97.8187 56.8178 97.7769 56.9194 97.7159C57.0235 97.6499 57.0984 97.5725 57.1441 97.4836C57.1924 97.3922 57.2165 97.2767 57.2165 97.137Z" fill="#8C99B2"/>
<g clip-path="url(#clip1)">
<path d="M27.4157 96.2924C27.2207 93.6459 24.6857 91.5566 24.6857 91.5566C24.6857 91.5566 22.1507 93.6459 21.9557 96.2924C21.9557 96.4038 21.9279 96.4874 21.9279 96.5988C21.9279 98.1031 23.1536 99.3566 24.6857 99.3566C26.2179 99.3566 27.4436 98.1309 27.4436 96.5988C27.4436 96.5152 27.4157 96.4038 27.4157 96.2924Z" stroke="#606580" stroke-width="0.557143" stroke-miterlimit="10" stroke-linecap="round" stroke-linejoin="round"/>
<path d="M23.0699 96.7383C23.0699 97.5183 23.6828 98.1311 24.4628 98.1311" stroke="#606580" stroke-width="0.557143" stroke-miterlimit="10" stroke-linecap="round" stroke-linejoin="round"/>
</g>
<rect x="23.799" y="103.536" width="223.843" height="3.9" rx="0.835714" stroke="#4B5169" stroke-width="0.557143"/>
<g clip-path="url(#clip2)">
<rect width="14.8116" height="2.22857" transform="translate(24.6345 104.373)" fill="#0089FF"/>
<rect width="14.8116" height="2.22857" transform="translate(39.4459 104.373)" fill="#0089FF"/>
<rect width="14.8116" height="2.22857" transform="translate(54.2572 104.373)" fill="#0089FF"/>
<rect width="14.8116" height="2.22857" transform="translate(69.069 104.373)" fill="#0089FF"/>
<rect width="14.8116" height="2.22857" transform="translate(83.88 104.373)" fill="#0089FF"/>
<rect width="14.8116" height="2.22857" transform="translate(98.6913 104.373)" fill="#0089FF"/>
<rect width="14.8116" height="2.22857" transform="translate(113.504 104.373)" fill="#0089FF"/>
<rect width="14.8116" height="2.22857" transform="translate(128.314 104.373)" fill="#0089FF"/>
<rect width="14.8116" height="2.22857" transform="translate(143.126 104.373)" fill="#0089FF"/>
<rect width="14.8116" height="2.22857" transform="translate(157.937 104.373)" fill="#0089FF"/>
<rect width="14.8116" height="2.22857" transform="translate(172.749 104.373)" fill="#0089FF"/>
<rect width="14.8116" height="2.22857" transform="translate(187.561 104.373)" fill="#0089FF"/>
<rect width="14.8116" height="2.22857" transform="translate(202.371 104.373)" fill="#0089FF" fill-opacity="0.2"/>
<rect width="14.8116" height="2.22857" transform="translate(217.183 104.373)" fill="#0089FF" fill-opacity="0.2"/>
<rect width="14.8116" height="2.22857" transform="translate(231.994 104.373)" fill="#0089FF" fill-opacity="0.2"/>
</g>
<path d="M216.688 98.4434H213.923V97.8645H214.951V94.0635H213.923V93.5455C214.311 93.5455 214.597 93.4909 214.78 93.3817C214.965 93.27 215.069 93.0605 215.092 92.7533H215.682V97.8645H216.688V98.4434ZM223.821 96.4934H223.147V98.4434H222.416V96.4934H219.91V95.6936L222.446 92.7724H223.147V95.884H223.821V96.4934ZM222.416 95.884V93.6674L220.504 95.884H222.416ZM225.962 93.3132C225.824 93.3132 225.687 93.3297 225.55 93.3627C225.413 93.3957 225.279 93.4389 225.147 93.4922C225.025 93.543 224.918 93.5963 224.827 93.6521C224.738 93.708 224.658 93.7601 224.587 93.8083H224.541V93.0047C224.706 92.9158 224.929 92.8358 225.211 92.7647C225.496 92.6911 225.766 92.6543 226.023 92.6543C226.279 92.6543 226.502 92.681 226.693 92.7343C226.886 92.7851 227.06 92.865 227.215 92.9742C227.382 93.0961 227.508 93.2434 227.592 93.416C227.678 93.5887 227.721 93.7905 227.721 94.0216C227.721 94.3339 227.618 94.6081 227.413 94.8442C227.207 95.0804 226.961 95.2302 226.674 95.2937V95.347C226.793 95.3698 226.92 95.4092 227.055 95.465C227.192 95.5209 227.319 95.6034 227.436 95.7126C227.552 95.8218 227.648 95.9627 227.721 96.1354C227.795 96.3055 227.832 96.5137 227.832 96.76C227.832 97.0164 227.787 97.2525 227.698 97.4684C227.612 97.6816 227.489 97.8708 227.329 98.0358C227.164 98.2085 226.965 98.3393 226.731 98.4281C226.497 98.517 226.232 98.5614 225.935 98.5614C225.651 98.5614 225.369 98.5271 225.089 98.4586C224.81 98.39 224.575 98.3075 224.385 98.211V97.4074H224.438C224.598 97.5242 224.813 97.6359 225.082 97.7426C225.351 97.8492 225.62 97.9025 225.889 97.9025C226.044 97.9025 226.199 97.8784 226.354 97.8302C226.511 97.7794 226.642 97.6981 226.746 97.5864C226.848 97.4747 226.925 97.3516 226.978 97.217C227.032 97.0824 227.058 96.9123 227.058 96.7066C227.058 96.501 227.028 96.3321 226.967 96.2001C226.909 96.0681 226.826 95.964 226.719 95.8878C226.613 95.8116 226.486 95.7596 226.339 95.7316C226.194 95.7012 226.036 95.6859 225.866 95.6859H225.543V95.0537H225.794C226.137 95.0537 226.415 94.9725 226.628 94.81C226.844 94.6475 226.952 94.4113 226.952 94.1016C226.952 93.9594 226.924 93.8375 226.868 93.7359C226.812 93.6318 226.741 93.5493 226.655 93.4884C226.558 93.4224 226.452 93.3767 226.335 93.3513C226.218 93.3259 226.094 93.3132 225.962 93.3132ZM230.22 93.3132C230.082 93.3132 229.945 93.3297 229.808 93.3627C229.671 93.3957 229.537 93.4389 229.405 93.4922C229.283 93.543 229.176 93.5963 229.085 93.6521C228.996 93.708 228.916 93.7601 228.845 93.8083H228.799V93.0047C228.964 92.9158 229.187 92.8358 229.469 92.7647C229.754 92.6911 230.024 92.6543 230.281 92.6543C230.537 92.6543 230.76 92.681 230.951 92.7343C231.144 92.7851 231.318 92.865 231.473 92.9742C231.64 93.0961 231.766 93.2434 231.85 93.416C231.936 93.5887 231.979 93.7905 231.979 94.0216C231.979 94.3339 231.876 94.6081 231.671 94.8442C231.465 95.0804 231.219 95.2302 230.932 95.2937V95.347C231.051 95.3698 231.178 95.4092 231.313 95.465C231.45 95.5209 231.577 95.6034 231.694 95.7126C231.81 95.8218 231.906 95.9627 231.979 96.1354C232.053 96.3055 232.09 96.5137 232.09 96.76C232.09 97.0164 232.045 97.2525 231.956 97.4684C231.87 97.6816 231.747 97.8708 231.587 98.0358C231.422 98.2085 231.223 98.3393 230.989 98.4281C230.755 98.517 230.49 98.5614 230.193 98.5614C229.909 98.5614 229.627 98.5271 229.347 98.4586C229.068 98.39 228.833 98.3075 228.643 98.211V97.4074H228.696C228.856 97.5242 229.071 97.6359 229.34 97.7426C229.609 97.8492 229.878 97.9025 230.147 97.9025C230.302 97.9025 230.457 97.8784 230.612 97.8302C230.769 97.7794 230.9 97.6981 231.004 97.5864C231.106 97.4747 231.183 97.3516 231.236 97.217C231.29 97.0824 231.316 96.9123 231.316 96.7066C231.316 96.501 231.286 96.3321 231.225 96.2001C231.167 96.0681 231.084 95.964 230.978 95.8878C230.871 95.8116 230.744 95.7596 230.597 95.7316C230.452 95.7012 230.294 95.6859 230.124 95.6859H229.801V95.0537H230.052C230.395 95.0537 230.673 94.9725 230.886 94.81C231.102 94.6475 231.21 94.4113 231.21 94.1016C231.21 93.9594 231.182 93.8375 231.126 93.7359C231.07 93.6318 230.999 93.5493 230.913 93.4884C230.816 93.4224 230.71 93.3767 230.593 93.3513C230.476 93.3259 230.352 93.3132 230.22 93.3132ZM238.819 96.6381C238.819 96.9123 238.775 97.1662 238.686 97.3998C238.6 97.6334 238.478 97.8353 238.32 98.0054C238.161 98.178 237.961 98.3139 237.723 98.4129C237.486 98.5119 237.221 98.5614 236.927 98.5614C236.655 98.5614 236.387 98.531 236.123 98.47C235.861 98.4116 235.634 98.3342 235.441 98.2377V97.4341H235.494C235.553 97.4772 235.637 97.5268 235.746 97.5826C235.855 97.6359 235.976 97.6867 236.108 97.735C236.257 97.7883 236.395 97.8302 236.519 97.8606C236.643 97.8886 236.783 97.9025 236.938 97.9025C237.09 97.9025 237.239 97.8759 237.384 97.8226C237.528 97.7667 237.653 97.6778 237.757 97.556C237.851 97.4442 237.922 97.3135 237.97 97.1637C238.021 97.0139 238.046 96.8374 238.046 96.6343C238.046 96.4337 238.018 96.2687 237.962 96.1392C237.909 96.0097 237.83 95.903 237.726 95.8192C237.617 95.7228 237.483 95.6555 237.323 95.6174C237.165 95.5768 236.989 95.5564 236.793 95.5564C236.588 95.5564 236.381 95.5729 236.172 95.606C235.964 95.6364 235.798 95.6656 235.674 95.6936V92.7724H238.785V93.4389H236.409V94.9471C236.5 94.9369 236.59 94.9293 236.679 94.9242C236.768 94.9191 236.849 94.9166 236.923 94.9166C237.212 94.9166 237.457 94.9407 237.658 94.989C237.858 95.0372 238.051 95.1312 238.237 95.2708C238.425 95.413 238.568 95.5907 238.667 95.804C238.769 96.0173 238.819 96.2953 238.819 96.6381ZM243.23 96.6038C243.23 96.8958 243.182 97.1649 243.085 97.4112C242.989 97.6575 242.859 97.8632 242.697 98.0282C242.526 98.2034 242.336 98.3367 242.125 98.4281C241.915 98.517 241.682 98.5614 241.428 98.5614C241.172 98.5614 240.938 98.5183 240.728 98.4319C240.519 98.3456 240.335 98.2174 240.175 98.0473C239.98 97.8416 239.826 97.5674 239.714 97.2246C239.605 96.8793 239.551 96.4553 239.551 95.9525C239.551 95.46 239.601 95.0156 239.703 94.6195C239.805 94.2209 239.961 93.8743 240.171 93.5798C240.377 93.2929 240.642 93.0694 240.967 92.9095C241.292 92.747 241.668 92.6657 242.095 92.6657C242.222 92.6657 242.34 92.6721 242.449 92.6848C242.558 92.6975 242.655 92.7178 242.738 92.7457V93.4731H242.704C242.636 93.4351 242.537 93.4008 242.407 93.3703C242.278 93.3373 242.139 93.3208 241.992 93.3208C241.52 93.3208 241.138 93.4808 240.846 93.8007C240.556 94.1181 240.385 94.5903 240.331 95.2175C240.512 95.0905 240.697 94.9928 240.887 94.9242C241.078 94.8557 241.286 94.8214 241.512 94.8214C241.733 94.8214 241.926 94.8442 242.091 94.8899C242.259 94.9331 242.432 95.022 242.613 95.1565C242.821 95.314 242.976 95.5133 243.077 95.7545C243.179 95.9957 243.23 96.2788 243.23 96.6038ZM242.457 96.6343C242.457 96.4007 242.426 96.2052 242.365 96.0478C242.304 95.8903 242.205 95.7558 242.068 95.644C241.969 95.5628 241.856 95.5095 241.729 95.4841C241.605 95.4587 241.477 95.446 241.344 95.446C241.167 95.446 240.994 95.4727 240.827 95.526C240.659 95.5793 240.494 95.6567 240.331 95.7583C240.326 95.8142 240.323 95.8687 240.32 95.9221C240.317 95.9729 240.316 96.0376 240.316 96.1163C240.316 96.5099 240.354 96.8272 240.43 97.0685C240.509 97.3097 240.606 97.4925 240.72 97.6169C240.829 97.7362 240.941 97.82 241.055 97.8683C241.172 97.9165 241.298 97.9406 241.432 97.9406C241.737 97.9406 241.983 97.8314 242.171 97.6131C242.361 97.3947 242.457 97.0685 242.457 96.6343ZM246.654 95.1032C246.654 94.7173 246.618 94.4037 246.547 94.1625C246.476 93.9187 246.378 93.7309 246.254 93.5988C246.142 93.477 246.029 93.3932 245.915 93.3475C245.801 93.3018 245.675 93.2789 245.538 93.2789C245.225 93.2789 244.977 93.3906 244.791 93.6141C244.606 93.8375 244.513 94.1612 244.513 94.5853C244.513 94.8239 244.544 95.0207 244.605 95.1756C244.666 95.3305 244.765 95.4638 244.902 95.5755C244.998 95.6542 245.107 95.7075 245.229 95.7354C245.351 95.7608 245.482 95.7735 245.622 95.7735C245.784 95.7735 245.959 95.7456 246.147 95.6897C246.335 95.6313 246.499 95.5552 246.638 95.4612C246.641 95.4231 246.644 95.3736 246.646 95.3127C246.651 95.2492 246.654 95.1794 246.654 95.1032ZM243.74 94.6157C243.74 94.3237 243.787 94.0571 243.881 93.8159C243.978 93.5747 244.108 93.3665 244.273 93.1913C244.431 93.0237 244.622 92.893 244.848 92.799C245.077 92.7051 245.308 92.6581 245.542 92.6581C245.803 92.6581 246.039 92.7025 246.25 92.7914C246.463 92.8777 246.647 93.0034 246.802 93.1685C246.998 93.3767 247.149 93.6496 247.255 93.9873C247.365 94.325 247.419 94.7516 247.419 95.267C247.419 95.7367 247.366 96.1823 247.259 96.6038C247.155 97.0228 247 97.3706 246.795 97.6474C246.576 97.9419 246.313 98.1666 246.006 98.3215C245.702 98.4764 245.324 98.5538 244.875 98.5538C244.774 98.5538 244.666 98.5475 244.551 98.5348C244.437 98.5246 244.33 98.5043 244.231 98.4738V97.7464H244.27C244.333 97.7819 244.432 97.8162 244.567 97.8492C244.701 97.8822 244.838 97.8987 244.978 97.8987C245.476 97.8987 245.867 97.735 246.151 97.4074C246.435 97.0799 246.597 96.6114 246.635 96.0021C246.432 96.1392 246.237 96.2395 246.052 96.3029C245.869 96.3664 245.67 96.3981 245.454 96.3981C245.243 96.3981 245.052 96.3753 244.879 96.3296C244.706 96.2839 244.532 96.195 244.357 96.063C244.154 95.9081 244 95.7126 243.896 95.4765C243.792 95.2378 243.74 94.9509 243.74 94.6157Z" fill="#8C99B2"/>
<defs>
<clipPath id="clip0">
<rect width="8.91429" height="8.91429" fill="white" transform="translate(21.2029 64.168)"/>
</clipPath>
<clipPath id="clip1">
<rect width="8.91429" height="8.91429" fill="white" transform="translate(20.2286 91)"/>
</clipPath>
<clipPath id="clip2">
<rect x="24.6345" y="104.373" width="222.171" height="2.22857" rx="0.557143" fill="white"/>
</clipPath>
</defs>
</svg>
