<svg width="324" height="117" viewBox="0 0 324 117" fill="none" xmlns="http://www.w3.org/2000/svg">
<path d="M125.177 17H124.092V9.80494H120.338V17H119.253V8.84048H125.177V17ZM131.89 13.7778C131.89 14.7971 131.645 15.6099 131.156 16.2164C130.67 16.8192 130.054 17.1206 129.309 17.1206C129.006 17.1206 128.737 17.0859 128.503 17.0164C128.27 16.947 128.03 16.8393 127.786 16.6931V19.2577H126.755V10.879H127.786V11.5201C128.041 11.29 128.324 11.0982 128.635 10.9447C128.949 10.7877 129.291 10.7091 129.66 10.7091C130.361 10.7091 130.907 10.9868 131.298 11.5421C131.693 12.0973 131.89 12.8426 131.89 13.7778ZM130.827 13.8929C130.827 13.1951 130.716 12.6545 130.493 12.2709C130.27 11.8836 129.908 11.69 129.408 11.69C129.115 11.69 128.832 11.7558 128.558 11.8873C128.288 12.0151 128.03 12.1814 127.786 12.386V15.8547C128.056 15.9862 128.286 16.0757 128.476 16.1232C128.67 16.1707 128.891 16.1945 129.139 16.1945C129.673 16.1945 130.087 15.999 130.383 15.6081C130.679 15.2172 130.827 14.6455 130.827 13.8929ZM137.995 13.9422C137.995 14.9724 137.746 15.7689 137.249 16.3315C136.753 16.8904 136.091 17.1699 135.266 17.1699C134.414 17.1699 133.744 16.8813 133.255 16.3041C132.769 15.7232 132.526 14.9359 132.526 13.9422C132.526 12.9193 132.776 12.1247 133.276 11.5585C133.781 10.9922 134.444 10.7091 135.266 10.7091C136.091 10.7091 136.753 10.9922 137.249 11.5585C137.746 12.1211 137.995 12.9157 137.995 13.9422ZM136.932 13.9422C136.932 13.1495 136.787 12.5613 136.499 12.1777C136.21 11.7905 135.799 11.5969 135.266 11.5969C134.729 11.5969 134.314 11.7905 134.022 12.1777C133.733 12.5613 133.589 13.1495 133.589 13.9422C133.589 14.7094 133.733 15.2921 134.022 15.6903C134.314 16.0849 134.729 16.2821 135.266 16.2821C135.795 16.2821 136.205 16.0885 136.493 15.7013C136.785 15.3104 136.932 14.724 136.932 13.9422ZM143.885 17H142.866V12.4353L139.984 17H139.052V10.879H140.071V15.3725L142.921 10.879H143.885V17ZM149.431 15.3067C149.431 15.6501 149.356 15.9406 149.206 16.178C149.057 16.4155 148.865 16.6036 148.631 16.7424C148.408 16.8776 148.154 16.9781 147.869 17.0438C147.584 17.1096 147.299 17.1425 147.014 17.1425C146.613 17.1425 146.233 17.1023 145.875 17.0219C145.517 16.9452 145.16 16.821 144.806 16.6493V15.5095H144.872C145.12 15.7396 145.431 15.9223 145.803 16.0575C146.18 16.189 146.554 16.2547 146.927 16.2547C147.088 16.2547 147.259 16.2383 147.442 16.2054C147.628 16.1689 147.785 16.1141 147.913 16.041C148.081 15.9387 148.2 15.8291 148.269 15.7122C148.342 15.5953 148.379 15.4346 148.379 15.23C148.379 15.0108 148.337 14.8355 148.253 14.7039C148.173 14.5688 148.061 14.4683 147.919 14.4025C147.776 14.3368 147.615 14.2966 147.436 14.282C147.261 14.2637 147.075 14.2546 146.877 14.2546H146.154V13.3668H146.708C146.846 13.3668 147.02 13.3632 147.228 13.3559C147.436 13.3449 147.603 13.3157 147.727 13.2682C147.884 13.2098 148.01 13.1276 148.105 13.0216C148.2 12.912 148.247 12.7294 148.247 12.4736C148.247 12.2946 148.207 12.1503 148.127 12.0407C148.047 11.9311 147.946 11.8453 147.826 11.7832C147.701 11.7174 147.566 11.6736 147.42 11.6517C147.274 11.6261 147.133 11.6133 146.998 11.6133C146.651 11.6133 146.317 11.6626 145.995 11.7612C145.677 11.8562 145.403 11.9987 145.173 12.1887H145.107V11.0763C145.371 10.9849 145.661 10.9046 145.979 10.8352C146.3 10.7657 146.622 10.731 146.943 10.731C147.203 10.731 147.466 10.7584 147.732 10.8132C148.003 10.8644 148.258 10.9539 148.5 11.0817C148.726 11.206 148.916 11.3777 149.069 11.5969C149.223 11.8124 149.3 12.0773 149.3 12.3914C149.3 12.7239 149.205 13.0161 149.015 13.2682C148.828 13.5166 148.58 13.681 148.269 13.7614V13.7998C148.609 13.9167 148.887 14.0957 149.102 14.3368C149.322 14.5779 149.431 14.9012 149.431 15.3067ZM155.316 15.1478C155.316 15.4437 155.26 15.7068 155.147 15.9369C155.033 16.1634 154.878 16.3534 154.681 16.5068C154.432 16.7004 154.171 16.832 153.897 16.9014C153.627 16.9671 153.302 17 152.922 17H150.516V10.879H152.763C153.212 10.879 153.541 10.8936 153.749 10.9228C153.957 10.9484 154.164 11.0178 154.368 11.1311C154.584 11.248 154.743 11.4032 154.845 11.5969C154.948 11.7905 154.999 12.0206 154.999 12.2873C154.999 12.5796 154.918 12.8426 154.758 13.0764C154.597 13.3066 154.383 13.4856 154.116 13.6134L154.144 13.6518C154.476 13.7358 154.754 13.9057 154.977 14.1614C155.203 14.4172 155.316 14.7459 155.316 15.1478ZM153.941 12.4462C153.941 12.3074 153.917 12.1869 153.87 12.0846C153.826 11.9823 153.747 11.9019 153.634 11.8434C153.503 11.774 153.355 11.7338 153.19 11.7229C153.03 11.7083 152.805 11.701 152.516 11.701H151.535V13.3778H152.719C152.971 13.3778 153.15 13.3668 153.256 13.3449C153.362 13.3194 153.479 13.2682 153.607 13.1915C153.727 13.1184 153.813 13.0198 153.864 12.8956C153.915 12.7714 153.941 12.6216 153.941 12.4462ZM154.253 15.1533C154.253 14.9451 154.222 14.7788 154.16 14.6546C154.102 14.5268 153.97 14.4135 153.766 14.3149C153.638 14.2528 153.501 14.2144 153.355 14.1998C153.209 14.1852 153.006 14.1779 152.746 14.1779H151.535V16.178H152.429C152.798 16.178 153.084 16.1634 153.289 16.1342C153.494 16.105 153.669 16.0465 153.815 15.9588C153.968 15.8638 154.08 15.7542 154.149 15.63C154.219 15.5058 154.253 15.3469 154.253 15.1533ZM161.437 13.9422C161.437 14.9724 161.189 15.7689 160.692 16.3315C160.195 16.8904 159.534 17.1699 158.709 17.1699C157.857 17.1699 157.187 16.8813 156.697 16.3041C156.212 15.7232 155.969 14.9359 155.969 13.9422C155.969 12.9193 156.219 12.1247 156.719 11.5585C157.223 10.9922 157.887 10.7091 158.709 10.7091C159.534 10.7091 160.195 10.9922 160.692 11.5585C161.189 12.1211 161.437 12.9157 161.437 13.9422ZM160.374 13.9422C160.374 13.1495 160.23 12.5613 159.941 12.1777C159.653 11.7905 159.242 11.5969 158.709 11.5969C158.171 11.5969 157.757 11.7905 157.465 12.1777C157.176 12.5613 157.032 13.1495 157.032 13.9422C157.032 14.7094 157.176 15.2921 157.465 15.6903C157.757 16.0849 158.171 16.2821 158.709 16.2821C159.238 16.2821 159.647 16.0885 159.936 15.7013C160.228 15.3104 160.374 14.724 160.374 13.9422ZM167.745 18.4686H166.786V16.9836H162.753V18.4686H161.794V16.1232H162.199C162.546 15.5533 162.829 14.8099 163.049 13.8929C163.271 12.9723 163.383 11.9677 163.383 10.879H167.137V16.1232H167.745V18.4686ZM166.106 16.1232V11.7448H164.353C164.305 12.6581 164.179 13.4929 163.975 14.2491C163.774 15.0017 163.52 15.6264 163.213 16.1232H166.106ZM171.197 17.137C170.777 17.137 170.392 17.0731 170.041 16.9452C169.69 16.8137 169.389 16.6164 169.137 16.3534C168.885 16.0903 168.689 15.7597 168.55 15.3615C168.412 14.9597 168.342 14.4884 168.342 13.9477C168.342 13.4107 168.413 12.9467 168.556 12.5558C168.702 12.1649 168.896 11.8361 169.137 11.5695C169.378 11.3028 169.677 11.0982 170.035 10.9557C170.397 10.8096 170.784 10.7365 171.197 10.7365C171.533 10.7365 171.857 10.784 172.167 10.879C172.481 10.974 172.761 11.0836 173.005 11.2078V12.364H172.945C172.872 12.3019 172.777 12.2307 172.66 12.1503C172.547 12.0699 172.408 11.9877 172.244 11.9037C172.101 11.8307 171.933 11.7667 171.74 11.7119C171.546 11.6571 171.36 11.6297 171.181 11.6297C170.647 11.6297 170.218 11.8325 169.893 12.238C169.571 12.6399 169.411 13.2098 169.411 13.9477C169.411 14.6711 169.566 15.2355 169.876 15.641C170.191 16.0429 170.625 16.2438 171.181 16.2438C171.517 16.2438 171.836 16.1744 172.14 16.0355C172.443 15.8967 172.711 15.7177 172.945 15.4985H173.005V16.6548C172.903 16.7023 172.775 16.7607 172.622 16.8301C172.468 16.8959 172.33 16.9452 172.205 16.9781C172.03 17.0292 171.873 17.0676 171.734 17.0932C171.595 17.1224 171.416 17.137 171.197 17.137ZM178.42 11.7832H176.337V17H175.307V11.7832H173.225V10.879H178.42V11.7832ZM183.987 15.1478C183.987 15.4437 183.931 15.7068 183.817 15.9369C183.704 16.1634 183.549 16.3534 183.351 16.5068C183.103 16.7004 182.842 16.832 182.568 16.9014C182.298 16.9671 181.972 17 181.592 17H179.187V10.879H181.434C181.883 10.879 182.212 10.8936 182.42 10.9228C182.628 10.9484 182.835 11.0178 183.039 11.1311C183.255 11.248 183.414 11.4032 183.516 11.5969C183.618 11.7905 183.669 12.0206 183.669 12.2873C183.669 12.5796 183.589 12.8426 183.428 13.0764C183.267 13.3066 183.054 13.4856 182.787 13.6134L182.814 13.6518C183.147 13.7358 183.425 13.9057 183.647 14.1614C183.874 14.4172 183.987 14.7459 183.987 15.1478ZM182.612 12.4462C182.612 12.3074 182.588 12.1869 182.54 12.0846C182.497 11.9823 182.418 11.9019 182.305 11.8434C182.173 11.774 182.025 11.7338 181.861 11.7229C181.7 11.7083 181.476 11.701 181.187 11.701H180.206V13.3778H181.39C181.642 13.3778 181.821 13.3668 181.927 13.3449C182.033 13.3194 182.15 13.2682 182.277 13.1915C182.398 13.1184 182.484 13.0198 182.535 12.8956C182.586 12.7714 182.612 12.6216 182.612 12.4462ZM182.924 15.1533C182.924 14.9451 182.893 14.7788 182.831 14.6546C182.772 14.5268 182.641 14.4135 182.436 14.3149C182.308 14.2528 182.171 14.2144 182.025 14.1998C181.879 14.1852 181.676 14.1779 181.417 14.1779H180.206V16.178H181.099C181.468 16.178 181.755 16.1634 181.96 16.1342C182.164 16.105 182.34 16.0465 182.486 15.9588C182.639 15.8638 182.751 15.7542 182.82 15.63C182.889 15.5058 182.924 15.3469 182.924 15.1533ZM190.108 13.9422C190.108 14.9724 189.86 15.7689 189.363 16.3315C188.866 16.8904 188.205 17.1699 187.379 17.1699C186.528 17.1699 185.858 16.8813 185.368 16.3041C184.882 15.7232 184.639 14.9359 184.639 13.9422C184.639 12.9193 184.889 12.1247 185.39 11.5585C185.894 10.9922 186.557 10.7091 187.379 10.7091C188.205 10.7091 188.866 10.9922 189.363 11.5585C189.86 12.1211 190.108 12.9157 190.108 13.9422ZM189.045 13.9422C189.045 13.1495 188.901 12.5613 188.612 12.1777C188.324 11.7905 187.913 11.5969 187.379 11.5969C186.842 11.5969 186.428 11.7905 186.135 12.1777C185.847 12.5613 185.702 13.1495 185.702 13.9422C185.702 14.7094 185.847 15.2921 186.135 15.6903C186.428 16.0849 186.842 16.2821 187.379 16.2821C187.909 16.2821 188.318 16.0885 188.607 15.7013C188.899 15.3104 189.045 14.724 189.045 13.9422ZM199.144 17H195.166V16.1671H196.646V10.6982H195.166V9.95289C195.725 9.95289 196.136 9.87435 196.399 9.71726C196.666 9.55652 196.816 9.25512 196.848 8.81308H197.698V16.1671H199.144V17Z" fill="#606580"/>
<rect x="5.40081" y="76.5961" width="143.491" height="31.2634" rx="1.20244" fill="#272A38" stroke="#4B5169" stroke-width="0.801626"/>
<rect x="107.98" y="84.2109" width="13.7679" height="14.4293" rx="1.60325" fill="#4B5169"/>
<path d="M117.285 92.2228C117.285 93.5831 117.087 94.5821 116.69 95.2199C116.296 95.8542 115.688 96.1714 114.863 96.1714C114.029 96.1714 113.416 95.8474 113.026 95.1995C112.636 94.5516 112.441 93.5627 112.441 92.233C112.441 90.8659 112.638 89.8668 113.031 89.2359C113.428 88.6015 114.039 88.2843 114.863 88.2843C115.698 88.2843 116.31 88.6117 116.7 89.2664C117.09 89.9211 117.285 90.9066 117.285 92.2228ZM115.983 94.5329C116.081 94.2819 116.151 93.9647 116.191 93.5814C116.232 93.1981 116.252 92.7452 116.252 92.2228C116.252 91.7038 116.232 91.2526 116.191 90.8693C116.151 90.4859 116.079 90.167 115.978 89.9126C115.876 89.6548 115.735 89.4598 115.555 89.3275C115.379 89.1918 115.148 89.1239 114.863 89.1239C114.582 89.1239 114.349 89.1918 114.166 89.3275C113.986 89.4598 113.844 89.6582 113.739 89.9228C113.637 90.1806 113.567 90.5063 113.53 90.8998C113.493 91.2933 113.474 91.7377 113.474 92.233C113.474 92.7622 113.489 93.2048 113.52 93.561C113.554 93.9172 113.625 94.2361 113.734 94.5177C113.832 94.7789 113.971 94.9807 114.151 95.1232C114.334 95.2623 114.572 95.3318 114.863 95.3318C115.145 95.3318 115.375 95.2657 115.555 95.1334C115.738 94.9977 115.881 94.7975 115.983 94.5329Z" fill="#8C99B2"/>
<g clip-path="url(#clip0)">
<path d="M134.809 85.8143L140.163 91.4257L134.809 97.0371" stroke="#606580" stroke-width="0.801626" stroke-miterlimit="10" stroke-linecap="round" stroke-linejoin="round"/>
</g>
<g clip-path="url(#clip1)">
<path d="M18.5521 96.1626V93.2596H20.967L22.1389 91.9941H23.737V96.1626" stroke="#606580" stroke-width="0.801626" stroke-miterlimit="10" stroke-linecap="round" stroke-linejoin="round"/>
<path d="M27.7144 96.1621H17.7709V97.8369H27.7144V96.1621Z" stroke="#606580" stroke-width="0.801626" stroke-miterlimit="10" stroke-linecap="round" stroke-linejoin="round"/>
<path d="M20.5763 87.416H19.3689V93.2593H20.5763V87.416Z" stroke="#606580" stroke-width="0.801626" stroke-miterlimit="10" stroke-linecap="round" stroke-linejoin="round"/>
<path d="M22.9557 91.9941V88.6816H26.1163V89.9098" stroke="#606580" stroke-width="0.801626" stroke-miterlimit="10" stroke-linecap="round" stroke-linejoin="round"/>
<path d="M26.4005 94.488H25.8678C25.3706 94.488 24.9445 94.0414 24.9445 93.5203V90.8778C24.9445 90.3568 25.3706 89.9102 25.8678 89.9102H26.4005C26.8976 89.9102 27.3238 90.3568 27.3238 90.8778V93.5203C27.3238 94.0786 26.8976 94.488 26.4005 94.488Z" stroke="#606580" stroke-width="0.801626" stroke-miterlimit="10" stroke-linecap="round" stroke-linejoin="round"/>
<path d="M25.3351 96.1631V94.4883" stroke="#606580" stroke-width="0.801626" stroke-miterlimit="10" stroke-linecap="round" stroke-linejoin="round"/>
<path d="M26.9331 94.4883V96.1631" stroke="#606580" stroke-width="0.801626" stroke-miterlimit="10" stroke-linecap="round" stroke-linejoin="round"/>
</g>
<path d="M41.6423 92.7046C41.6423 94.0015 41.2989 95.0353 40.612 95.8062C39.9289 96.577 39.0338 96.9624 37.9269 96.9624C37.4593 96.9624 37.0173 96.9149 36.6008 96.8199C36.188 96.7286 35.8245 96.6099 35.5103 96.4637V95.2637H35.5925C35.8555 95.5011 36.1898 95.6911 36.5953 95.8336C37.0008 95.9724 37.4337 96.0418 37.894 96.0418C38.6795 96.0418 39.3188 95.755 39.812 95.1815C40.3052 94.6079 40.5518 93.8517 40.5518 92.9128H36.5734V91.9648H40.497C40.4129 91.1757 40.139 90.5564 39.675 90.1071C39.2147 89.6541 38.621 89.4276 37.894 89.4276C37.4447 89.4276 37.0246 89.497 36.6337 89.6358C36.2428 89.7747 35.903 89.9683 35.6144 90.2167H35.5322V89.0111C35.8245 88.876 36.1825 88.7591 36.6063 88.6604C37.0337 88.5581 37.4776 88.507 37.9379 88.507C39.1142 88.507 40.0257 88.8723 40.6723 89.603C41.3189 90.3299 41.6423 91.3638 41.6423 92.7046ZM48.7825 96.8145H47.6975V89.6194H44.9466C44.9357 90.0322 44.921 90.4359 44.9028 90.8304C44.8845 91.2213 44.8699 91.572 44.8589 91.8826C44.8297 92.6534 44.7822 93.2909 44.7165 93.795C44.6544 94.2992 44.5722 94.7211 44.4699 95.0609C44.3712 95.3933 44.2543 95.6619 44.1192 95.8664C43.9876 96.071 43.8433 96.2427 43.6863 96.3815C43.5219 96.5313 43.3447 96.6446 43.1547 96.7213C42.9684 96.7944 42.751 96.8309 42.5026 96.8309C42.4259 96.8309 42.3473 96.8272 42.267 96.8199C42.1902 96.8163 42.13 96.8145 42.0861 96.8145V95.7623H42.1628C42.1994 95.766 42.2304 95.7696 42.256 95.7733C42.2816 95.7769 42.3199 95.7788 42.3711 95.7788C42.5026 95.7788 42.625 95.7587 42.7382 95.7185C42.8515 95.6783 42.9483 95.6162 43.0287 95.5322C43.2771 95.2874 43.4579 94.8527 43.5712 94.228C43.6881 93.5996 43.7703 92.7557 43.8178 91.6963C43.836 91.3382 43.8543 90.8651 43.8726 90.277C43.8908 89.6888 43.9073 89.1481 43.9219 88.6549H48.7825V96.8145ZM56.2077 89.592C56.5183 89.95 56.7594 90.3939 56.9311 90.9236C57.1028 91.4533 57.1886 92.0579 57.1886 92.7374C57.1886 93.3987 57.1046 93.996 56.9366 94.5293C56.7685 95.0627 56.5256 95.5102 56.2077 95.8719C55.8753 96.2519 55.4862 96.5332 55.0405 96.7158C54.5985 96.8948 54.1108 96.9843 53.5774 96.9843C53.0258 96.9843 52.5289 96.8912 52.0869 96.7049C51.6448 96.5185 51.2649 96.2409 50.9471 95.8719C50.6329 95.5102 50.3918 95.0645 50.2237 94.5348C50.0557 94.0051 49.9717 93.406 49.9717 92.7374C49.9717 92.0506 50.0557 91.4478 50.2237 90.9291C50.3954 90.4103 50.6384 89.9646 50.9526 89.592C51.2667 89.2303 51.6448 88.9563 52.0869 88.77C52.5326 88.58 53.0294 88.4851 53.5774 88.4851C54.1327 88.4851 54.6332 88.5819 55.0789 88.7755C55.5246 88.9691 55.9009 89.2413 56.2077 89.592ZM56.0598 92.7374C56.0598 92.1968 56.0013 91.7182 55.8844 91.3017C55.7675 90.8852 55.6031 90.54 55.3912 90.266C55.1757 89.9847 54.9145 89.7747 54.6076 89.6358C54.3044 89.4934 53.9628 89.4221 53.5829 89.4221C53.1883 89.4221 52.8431 89.4915 52.5472 89.6303C52.2549 89.7655 51.9956 89.9774 51.7691 90.266C51.5535 90.5437 51.3873 90.8925 51.2704 91.3127C51.1571 91.7328 51.1005 92.2077 51.1005 92.7374C51.1005 93.8078 51.3252 94.628 51.7745 95.1979C52.2239 95.7641 52.8267 96.0473 53.5829 96.0473C54.3391 96.0473 54.9401 95.7641 55.3858 95.1979C55.8351 94.628 56.0598 93.8078 56.0598 92.7374ZM64.0823 88.6549L61.1232 95.5267C60.999 95.8153 60.8583 96.0473 60.7012 96.2226C60.5478 96.398 60.3871 96.5295 60.219 96.6172C60.051 96.7085 59.8847 96.7688 59.7203 96.798C59.5596 96.8272 59.397 96.8419 59.2326 96.8419C59.0865 96.8419 58.9148 96.8382 58.7175 96.8309C58.5202 96.8236 58.3942 96.8181 58.3394 96.8145V95.8007H58.4161C58.4709 95.808 58.5531 95.8171 58.6627 95.8281C58.776 95.8354 58.9184 95.839 59.0902 95.839C59.1705 95.839 59.2655 95.8354 59.3751 95.8281C59.4847 95.8171 59.5852 95.7897 59.6765 95.7459C59.7824 95.6947 59.8811 95.6271 59.9724 95.5431C60.0674 95.4554 60.1532 95.3184 60.23 95.1321L60.4163 94.6992L57.5503 88.6549H58.7504L60.9643 93.4553L62.9644 88.6549H64.0823ZM67.5949 93.7402H64.5043V92.7484H67.5949V93.7402ZM72.5323 90.5564C72.5323 90.1911 72.4099 89.8861 72.1651 89.6413C71.9203 89.3965 71.5806 89.2742 71.1459 89.2742C70.7477 89.2742 70.4207 89.3838 70.165 89.603C69.9129 89.8221 69.7869 90.1181 69.7869 90.4907C69.7869 90.761 69.8508 90.9894 69.9786 91.1757C70.1102 91.362 70.3056 91.53 70.565 91.6798C70.6782 91.7419 70.8499 91.8278 71.0801 91.9374C71.3139 92.047 71.5258 92.1328 71.7158 92.1949C72.0336 91.9502 72.2491 91.6999 72.3624 91.4442C72.4756 91.1848 72.5323 90.8889 72.5323 90.5564ZM72.6857 94.6444C72.6857 94.3083 72.6199 94.0416 72.4884 93.8444C72.3569 93.6471 72.103 93.4462 71.7267 93.2416C71.6025 93.1722 71.4363 93.0973 71.2281 93.0169C71.0235 92.9365 70.7915 92.8416 70.5321 92.732C70.2289 92.9329 69.9969 93.1813 69.8362 93.4772C69.6754 93.7695 69.5951 94.1037 69.5951 94.48C69.5951 94.9732 69.743 95.3806 70.0389 95.702C70.3385 96.0235 70.7129 96.1843 71.1623 96.1843C71.6226 96.1843 71.9916 96.0473 72.2692 95.7733C72.5469 95.4956 72.6857 95.1193 72.6857 94.6444ZM71.1513 97.0008C70.7458 97.0008 70.3768 96.9405 70.0444 96.8199C69.712 96.6994 69.4288 96.5258 69.195 96.2993C68.9649 96.0802 68.7895 95.8208 68.669 95.5212C68.5521 95.218 68.4936 94.8983 68.4936 94.5622C68.4936 94.1202 68.6105 93.7147 68.8443 93.3457C69.0818 92.9731 69.4252 92.6772 69.8745 92.458V92.4251C69.4727 92.1913 69.1749 91.9355 68.9813 91.6579C68.7877 91.3803 68.6909 91.0332 68.6909 90.6167C68.6909 90.003 68.9229 89.4915 69.3868 89.0824C69.8508 88.6732 70.439 88.4686 71.1513 88.4686C71.8929 88.4686 72.4866 88.6641 72.9323 89.055C73.3816 89.4422 73.6063 89.939 73.6063 90.5455C73.6063 90.9108 73.4985 91.2725 73.283 91.6305C73.0711 91.9885 72.7642 92.268 72.3624 92.4689V92.5018C72.8373 92.7246 73.1972 92.995 73.4419 93.3128C73.6867 93.6307 73.8091 94.0398 73.8091 94.5403C73.8091 95.2381 73.5552 95.8226 73.0474 96.2939C72.5432 96.7651 71.9112 97.0008 71.1513 97.0008Z" fill="#8C99B2"/>
<rect x="5.40081" y="28.4985" width="143.491" height="31.2634" rx="1.20244" fill="#272A38" stroke="#4B5169" stroke-width="0.801626"/>
<rect x="107.98" y="36.1133" width="13.7679" height="14.4293" rx="1.60325" fill="#4B5169"/>
<path d="M117.285 44.1232C117.285 45.4835 117.087 46.4825 116.69 47.1203C116.296 47.7546 115.688 48.0718 114.863 48.0718C114.029 48.0718 113.416 47.7478 113.026 47.0999C112.636 46.452 112.441 45.4631 112.441 44.1333C112.441 42.7663 112.638 41.7672 113.031 41.1363C113.428 40.5019 114.039 40.1847 114.863 40.1847C115.698 40.1847 116.31 40.5121 116.7 41.1668C117.09 41.8215 117.285 42.807 117.285 44.1232ZM115.983 46.4333C116.081 46.1823 116.151 45.8651 116.191 45.4818C116.232 45.0985 116.252 44.6456 116.252 44.1232C116.252 43.6041 116.232 43.153 116.191 42.7696C116.151 42.3863 116.079 42.0674 115.978 41.813C115.876 41.5552 115.735 41.3601 115.555 41.2278C115.379 41.0922 115.148 41.0243 114.863 41.0243C114.582 41.0243 114.349 41.0922 114.166 41.2278C113.986 41.3601 113.844 41.5586 113.739 41.8232C113.637 42.081 113.567 42.4067 113.53 42.8002C113.493 43.1937 113.474 43.6381 113.474 44.1333C113.474 44.6625 113.489 45.1052 113.52 45.4614C113.554 45.8176 113.625 46.1365 113.734 46.4181C113.832 46.6793 113.971 46.8811 114.151 47.0236C114.334 47.1627 114.572 47.2322 114.863 47.2322C115.145 47.2322 115.375 47.1661 115.555 47.0338C115.738 46.8981 115.881 46.6979 115.983 46.4333Z" fill="#8C99B2"/>
<g clip-path="url(#clip2)">
<path d="M134.809 37.7167L140.163 43.3281L134.809 48.9395" stroke="#606580" stroke-width="0.801626" stroke-miterlimit="10" stroke-linecap="round" stroke-linejoin="round"/>
</g>
<g clip-path="url(#clip3)">
<path d="M18.5521 48.0649V45.1619H20.967L22.1389 43.8965H23.737V48.0649" stroke="#606580" stroke-width="0.801626" stroke-miterlimit="10" stroke-linecap="round" stroke-linejoin="round"/>
<path d="M27.7144 48.0645H17.7709V49.7393H27.7144V48.0645Z" stroke="#606580" stroke-width="0.801626" stroke-miterlimit="10" stroke-linecap="round" stroke-linejoin="round"/>
<path d="M20.5763 39.3184H19.3689V45.1616H20.5763V39.3184Z" stroke="#606580" stroke-width="0.801626" stroke-miterlimit="10" stroke-linecap="round" stroke-linejoin="round"/>
<path d="M22.9557 43.8964V40.584H26.1163V41.8122" stroke="#606580" stroke-width="0.801626" stroke-miterlimit="10" stroke-linecap="round" stroke-linejoin="round"/>
<path d="M26.4005 46.3904H25.8678C25.3706 46.3904 24.9445 45.9437 24.9445 45.4227V42.7802C24.9445 42.2591 25.3706 41.8125 25.8678 41.8125H26.4005C26.8976 41.8125 27.3238 42.2591 27.3238 42.7802V45.4227C27.3238 45.981 26.8976 46.3904 26.4005 46.3904Z" stroke="#606580" stroke-width="0.801626" stroke-miterlimit="10" stroke-linecap="round" stroke-linejoin="round"/>
<path d="M25.3351 48.0655V46.3906" stroke="#606580" stroke-width="0.801626" stroke-miterlimit="10" stroke-linecap="round" stroke-linejoin="round"/>
<path d="M26.9331 46.3906V48.0655" stroke="#606580" stroke-width="0.801626" stroke-miterlimit="10" stroke-linecap="round" stroke-linejoin="round"/>
</g>
<path d="M41.6423 44.6069C41.6423 45.9038 41.2989 46.9377 40.612 47.7085C39.9289 48.4793 39.0338 48.8648 37.9269 48.8648C37.4593 48.8648 37.0173 48.8173 36.6008 48.7223C36.188 48.6309 35.8245 48.5122 35.5103 48.3661V47.166H35.5925C35.8555 47.4035 36.1898 47.5934 36.5953 47.7359C37.0008 47.8747 37.4337 47.9441 37.894 47.9441C38.6795 47.9441 39.3188 47.6574 39.812 47.0838C40.3052 46.5102 40.5518 45.754 40.5518 44.8151H36.5734V43.8671H40.497C40.4129 43.078 40.139 42.4588 39.675 42.0094C39.2147 41.5564 38.621 41.3299 37.894 41.3299C37.4447 41.3299 37.0246 41.3994 36.6337 41.5382C36.2428 41.677 35.903 41.8706 35.6144 42.119H35.5322V40.9135C35.8245 40.7783 36.1825 40.6614 36.6063 40.5628C37.0337 40.4605 37.4776 40.4093 37.9379 40.4093C39.1142 40.4093 40.0257 40.7746 40.6723 41.5053C41.3189 42.2323 41.6423 43.2662 41.6423 44.6069ZM48.7825 48.7168H47.6975V41.5217H44.9466C44.9357 41.9346 44.921 42.3382 44.9028 42.7328C44.8845 43.1237 44.8699 43.4744 44.8589 43.7849C44.8297 44.5558 44.7822 45.1932 44.7165 45.6974C44.6544 46.2015 44.5722 46.6235 44.4699 46.9632C44.3712 47.2957 44.2543 47.5642 44.1192 47.7688C43.9876 47.9734 43.8433 48.1451 43.6863 48.2839C43.5219 48.4337 43.3447 48.5469 43.1547 48.6236C42.9684 48.6967 42.751 48.7332 42.5026 48.7332C42.4259 48.7332 42.3473 48.7296 42.267 48.7223C42.1902 48.7186 42.13 48.7168 42.0861 48.7168V47.6647H42.1628C42.1994 47.6683 42.2304 47.672 42.256 47.6756C42.2816 47.6793 42.3199 47.6811 42.3711 47.6811C42.5026 47.6811 42.625 47.661 42.7382 47.6208C42.8515 47.5806 42.9483 47.5185 43.0287 47.4345C43.2771 47.1897 43.4579 46.755 43.5712 46.1303C43.6881 45.5019 43.7703 44.658 43.8178 43.5986C43.836 43.2406 43.8543 42.7675 43.8726 42.1793C43.8908 41.5911 43.9073 41.0505 43.9219 40.5573H48.7825V48.7168ZM56.2077 41.4943C56.5183 41.8524 56.7594 42.2962 56.9311 42.8259C57.1028 43.3557 57.1886 43.9603 57.1886 44.6398C57.1886 45.301 57.1046 45.8983 56.9366 46.4317C56.7685 46.9651 56.5256 47.4126 56.2077 47.7743C55.8753 48.1542 55.4862 48.4355 55.0405 48.6182C54.5985 48.7972 54.1108 48.8867 53.5774 48.8867C53.0258 48.8867 52.5289 48.7935 52.0869 48.6072C51.6448 48.4209 51.2649 48.1432 50.9471 47.7743C50.6329 47.4126 50.3918 46.9669 50.2237 46.4372C50.0557 45.9075 49.9717 45.3083 49.9717 44.6398C49.9717 43.953 50.0557 43.3502 50.2237 42.8314C50.3954 42.3127 50.6384 41.867 50.9526 41.4943C51.2667 41.1327 51.6448 40.8587 52.0869 40.6724C52.5326 40.4824 53.0294 40.3874 53.5774 40.3874C54.1327 40.3874 54.6332 40.4842 55.0789 40.6778C55.5246 40.8715 55.9009 41.1436 56.2077 41.4943ZM56.0598 44.6398C56.0598 44.0991 56.0013 43.6205 55.8844 43.2041C55.7675 42.7876 55.6031 42.4424 55.3912 42.1684C55.1757 41.8871 54.9145 41.677 54.6076 41.5382C54.3044 41.3957 53.9628 41.3245 53.5829 41.3245C53.1883 41.3245 52.8431 41.3939 52.5472 41.5327C52.2549 41.6679 51.9956 41.8798 51.7691 42.1684C51.5535 42.446 51.3873 42.7949 51.2704 43.215C51.1571 43.6351 51.1005 44.1101 51.1005 44.6398C51.1005 45.7102 51.3252 46.5303 51.7745 47.1002C52.2239 47.6665 52.8267 47.9496 53.5829 47.9496C54.3391 47.9496 54.9401 47.6665 55.3858 47.1002C55.8351 46.5303 56.0598 45.7102 56.0598 44.6398ZM64.0823 40.5573L61.1232 47.429C60.999 47.7176 60.8583 47.9496 60.7012 48.125C60.5478 48.3003 60.3871 48.4318 60.219 48.5195C60.051 48.6109 59.8847 48.6711 59.7203 48.7004C59.5596 48.7296 59.397 48.7442 59.2326 48.7442C59.0865 48.7442 58.9148 48.7405 58.7175 48.7332C58.5202 48.7259 58.3942 48.7205 58.3394 48.7168V47.703H58.4161C58.4709 47.7103 58.5531 47.7195 58.6627 47.7304C58.776 47.7377 58.9184 47.7414 59.0902 47.7414C59.1705 47.7414 59.2655 47.7377 59.3751 47.7304C59.4847 47.7195 59.5852 47.6921 59.6765 47.6482C59.7824 47.5971 59.8811 47.5295 59.9724 47.4455C60.0674 47.3578 60.1532 47.2208 60.23 47.0345L60.4163 46.6016L57.5503 40.5573H58.7504L60.9643 45.3576L62.9644 40.5573H64.0823ZM67.5949 45.6426H64.5043V44.6507H67.5949V45.6426ZM73.8091 41.7793L70.28 48.7168H69.1128L72.8501 41.5163H68.6306V40.5573H73.8091V41.7793Z" fill="#8C99B2"/>
<rect x="164.401" y="28.4008" width="154.198" height="31.1984" rx="1.20244" fill="#272A38" stroke="#4B5169" stroke-width="0.801626"/>
<rect x="275" y="36.1133" width="13.7679" height="14.4293" rx="1.60325" fill="#4B5169"/>
<path d="M284.306 44.1232C284.306 45.4835 284.108 46.4825 283.711 47.1203C283.317 47.7546 282.708 48.0718 281.884 48.0718C281.049 48.0718 280.437 47.7478 280.047 47.0999C279.657 46.452 279.462 45.4631 279.462 44.1333C279.462 42.7663 279.659 41.7672 280.052 41.1363C280.449 40.5019 281.06 40.1847 281.884 40.1847C282.718 40.1847 283.331 40.5121 283.721 41.1668C284.111 41.8215 284.306 42.807 284.306 44.1232ZM283.003 46.4333C283.102 46.1823 283.171 45.8651 283.212 45.4818C283.253 45.0985 283.273 44.6456 283.273 44.1232C283.273 43.6041 283.253 43.153 283.212 42.7696C283.171 42.3863 283.1 42.0674 282.998 41.813C282.896 41.5552 282.756 41.3601 282.576 41.2278C282.4 41.0922 282.169 41.0243 281.884 41.0243C281.602 41.0243 281.37 41.0922 281.187 41.2278C281.007 41.3601 280.864 41.5586 280.759 41.8232C280.658 42.081 280.588 42.4067 280.551 42.8002C280.513 43.1937 280.495 43.6381 280.495 44.1333C280.495 44.6625 280.51 45.1052 280.541 45.4614C280.574 45.8176 280.646 46.1365 280.754 46.4181C280.853 46.6793 280.992 46.8811 281.171 47.0236C281.355 47.1627 281.592 47.2322 281.884 47.2322C282.165 47.2322 282.396 47.1661 282.576 47.0338C282.759 46.8981 282.902 46.6979 283.003 46.4333Z" fill="#8C99B2"/>
<g clip-path="url(#clip4)">
<path d="M301.829 37.7167L307.184 43.3281L301.829 48.9395" stroke="#606580" stroke-width="0.801626" stroke-miterlimit="10" stroke-linecap="round" stroke-linejoin="round"/>
</g>
<g clip-path="url(#clip5)">
<path d="M176.929 48.0649V45.1619H179.343L180.515 43.8965H182.113V48.0649" stroke="#606580" stroke-width="0.801626" stroke-miterlimit="10" stroke-linecap="round" stroke-linejoin="round"/>
<path d="M186.091 48.0645H176.147V49.7393H186.091V48.0645Z" stroke="#606580" stroke-width="0.801626" stroke-miterlimit="10" stroke-linecap="round" stroke-linejoin="round"/>
<path d="M178.953 39.3184H177.745V45.1616H178.953V39.3184Z" stroke="#606580" stroke-width="0.801626" stroke-miterlimit="10" stroke-linecap="round" stroke-linejoin="round"/>
<path d="M181.332 43.8964V40.584H184.493V41.8122" stroke="#606580" stroke-width="0.801626" stroke-miterlimit="10" stroke-linecap="round" stroke-linejoin="round"/>
<path d="M184.777 46.3904H184.244C183.747 46.3904 183.321 45.9437 183.321 45.4227V42.7802C183.321 42.2591 183.747 41.8125 184.244 41.8125H184.777C185.274 41.8125 185.7 42.2591 185.7 42.7802V45.4227C185.7 45.981 185.274 46.3904 184.777 46.3904Z" stroke="#606580" stroke-width="0.801626" stroke-miterlimit="10" stroke-linecap="round" stroke-linejoin="round"/>
<path d="M183.712 48.0655V46.3906" stroke="#606580" stroke-width="0.801626" stroke-miterlimit="10" stroke-linecap="round" stroke-linejoin="round"/>
<path d="M185.31 46.3906V48.0655" stroke="#606580" stroke-width="0.801626" stroke-miterlimit="10" stroke-linecap="round" stroke-linejoin="round"/>
</g>
<path d="M199.284 48.7168H194.248V47.5715C194.61 47.2281 194.952 46.8993 195.273 46.5851C195.595 46.271 195.909 45.944 196.216 45.6042C196.837 44.9211 197.261 44.3749 197.487 43.9658C197.714 43.5529 197.827 43.1273 197.827 42.6889C197.827 42.4624 197.79 42.2633 197.717 42.0916C197.648 41.9199 197.551 41.7775 197.427 41.6642C197.299 41.5546 197.151 41.4724 196.983 41.4176C196.815 41.3628 196.63 41.3354 196.429 41.3354C196.236 41.3354 196.039 41.361 195.838 41.4121C195.64 41.4596 195.45 41.5199 195.268 41.593C195.114 41.6551 194.966 41.73 194.824 41.8176C194.681 41.9053 194.566 41.9802 194.479 42.0423H194.418V40.8806C194.645 40.7673 194.959 40.6577 195.361 40.5518C195.766 40.4422 196.15 40.3874 196.512 40.3874C197.271 40.3874 197.867 40.5902 198.298 40.9957C198.729 41.3975 198.945 41.9437 198.945 42.6341C198.945 42.952 198.906 43.2461 198.83 43.5164C198.757 43.7867 198.654 44.037 198.523 44.2671C198.388 44.5046 198.225 44.7402 198.035 44.974C197.845 45.2079 197.644 45.438 197.432 45.6645C197.089 46.0371 196.705 46.4244 196.281 46.8262C195.861 47.2281 195.525 47.5459 195.273 47.7797H199.284V48.7168ZM204.994 48.7168H201.016V47.8839H202.496V42.415H201.016V41.6697C201.575 41.6697 201.986 41.5911 202.249 41.4341C202.516 41.2733 202.666 40.9719 202.698 40.5299H203.548V47.8839H204.994V48.7168ZM209.488 45.6426H206.397V44.6507H209.488V45.6426ZM215.198 48.7168H211.22V47.8839H212.699V42.415H211.22V41.6697C211.779 41.6697 212.19 41.5911 212.453 41.4341C212.719 41.2733 212.869 40.9719 212.902 40.5299H213.751V47.8839H215.198V48.7168ZM221.779 44.6343C221.779 46.0992 221.566 47.1751 221.138 47.8619C220.714 48.5451 220.059 48.8867 219.171 48.8867C218.272 48.8867 217.613 48.5378 217.193 47.84C216.773 47.1422 216.562 46.0773 216.562 44.6453C216.562 43.173 216.774 42.0971 217.198 41.4176C217.626 40.7345 218.283 40.3929 219.171 40.3929C220.07 40.3929 220.729 40.7454 221.149 41.4505C221.569 42.1556 221.779 43.2168 221.779 44.6343ZM220.376 47.1222C220.482 46.8518 220.557 46.5102 220.601 46.0974C220.645 45.6846 220.667 45.1969 220.667 44.6343C220.667 44.0754 220.645 43.5895 220.601 43.1767C220.557 42.7638 220.481 42.4204 220.371 42.1464C220.261 41.8688 220.11 41.6587 219.916 41.5163C219.726 41.3701 219.478 41.2971 219.171 41.2971C218.868 41.2971 218.617 41.3701 218.42 41.5163C218.226 41.6587 218.073 41.8724 217.96 42.1574C217.85 42.435 217.775 42.7858 217.735 43.2095C217.695 43.6333 217.675 44.1119 217.675 44.6453C217.675 45.2152 217.691 45.6919 217.724 46.0755C217.761 46.4591 217.837 46.8025 217.954 47.1057C218.06 47.387 218.21 47.6044 218.404 47.7578C218.601 47.9076 218.857 47.9825 219.171 47.9825C219.474 47.9825 219.722 47.9113 219.916 47.7688C220.113 47.6227 220.267 47.4071 220.376 47.1222ZM225.034 41.3354C224.837 41.3354 224.64 41.3592 224.442 41.4067C224.245 41.4541 224.052 41.5163 223.862 41.593C223.686 41.666 223.533 41.7428 223.401 41.8231C223.273 41.9035 223.158 41.9784 223.056 42.0478H222.99V40.8915C223.228 40.7637 223.549 40.6486 223.955 40.5463C224.364 40.4404 224.753 40.3874 225.122 40.3874C225.491 40.3874 225.812 40.4258 226.086 40.5025C226.364 40.5755 226.614 40.6906 226.837 40.8477C227.078 41.0231 227.259 41.235 227.38 41.4834C227.504 41.7318 227.566 42.0222 227.566 42.3547C227.566 42.804 227.418 43.1986 227.122 43.5383C226.826 43.8781 226.472 44.0936 226.059 44.1849V44.2617C226.231 44.2945 226.413 44.3512 226.607 44.4315C226.804 44.5119 226.987 44.6306 227.155 44.7877C227.323 44.9448 227.46 45.1476 227.566 45.396C227.672 45.6408 227.725 45.9403 227.725 46.2947C227.725 46.6637 227.661 47.0034 227.533 47.314C227.409 47.6208 227.232 47.893 227.002 48.1305C226.764 48.3789 226.477 48.567 226.141 48.6949C225.805 48.8227 225.423 48.8867 224.996 48.8867C224.587 48.8867 224.181 48.8374 223.779 48.7387C223.378 48.6401 223.04 48.5213 222.766 48.3825V47.2263H222.842C223.073 47.3943 223.381 47.5551 223.768 47.7085C224.156 47.8619 224.543 47.9387 224.93 47.9387C225.153 47.9387 225.376 47.904 225.599 47.8345C225.825 47.7615 226.013 47.6446 226.163 47.4838C226.309 47.3231 226.421 47.1459 226.497 46.9523C226.574 46.7587 226.613 46.5139 226.613 46.218C226.613 45.9221 226.569 45.6791 226.481 45.4892C226.397 45.2992 226.278 45.1494 226.125 45.0398C225.971 44.9302 225.789 44.8553 225.577 44.8151C225.369 44.7713 225.142 44.7494 224.897 44.7494H224.432V43.8397H224.793C225.286 43.8397 225.686 43.7228 225.993 43.489C226.304 43.2552 226.459 42.9154 226.459 42.4698C226.459 42.2652 226.419 42.0898 226.339 41.9437C226.258 41.7939 226.156 41.6752 226.032 41.5875C225.893 41.4925 225.739 41.4267 225.571 41.3902C225.403 41.3537 225.224 41.3354 225.034 41.3354ZM236.18 48.7168H235.095V41.6861L232.969 46.4701H232.312L230.202 41.6861V48.7168H229.188V40.5573H230.668L232.706 45.1001L234.673 40.5573H236.18V48.7168Z" fill="#8C99B2"/>
<rect x="164.401" y="76.4008" width="154.198" height="31.1984" rx="1.20244" fill="#272A38" stroke="#4B5169" stroke-width="0.801626"/>
<g clip-path="url(#clip6)">
<path d="M177.552 95.9673V93.0643H179.967L181.139 91.7988H182.737V95.9673" stroke="#606580" stroke-width="0.801626" stroke-miterlimit="10" stroke-linecap="round" stroke-linejoin="round"/>
<path d="M186.714 95.9668H176.771V97.6416H186.714V95.9668Z" stroke="#606580" stroke-width="0.801626" stroke-miterlimit="10" stroke-linecap="round" stroke-linejoin="round"/>
<path d="M179.576 87.2207H178.369V93.064H179.576V87.2207Z" stroke="#606580" stroke-width="0.801626" stroke-miterlimit="10" stroke-linecap="round" stroke-linejoin="round"/>
<path d="M181.956 91.7988V88.4863H185.116V89.7145" stroke="#606580" stroke-width="0.801626" stroke-miterlimit="10" stroke-linecap="round" stroke-linejoin="round"/>
<path d="M185.401 94.2927H184.868C184.371 94.2927 183.945 93.8461 183.945 93.325V90.6825C183.945 90.1615 184.371 89.7148 184.868 89.7148H185.401C185.898 89.7148 186.324 90.1615 186.324 90.6825V93.325C186.324 93.8833 185.898 94.2927 185.401 94.2927Z" stroke="#606580" stroke-width="0.801626" stroke-miterlimit="10" stroke-linecap="round" stroke-linejoin="round"/>
<path d="M184.335 95.9678V94.293" stroke="#606580" stroke-width="0.801626" stroke-miterlimit="10" stroke-linecap="round" stroke-linejoin="round"/>
<path d="M185.933 94.293V95.9678" stroke="#606580" stroke-width="0.801626" stroke-miterlimit="10" stroke-linecap="round" stroke-linejoin="round"/>
</g>
<path d="M200.801 88.4596L197.842 95.3314C197.718 95.62 197.577 95.852 197.42 96.0273C197.267 96.2027 197.106 96.3342 196.938 96.4219C196.77 96.5132 196.604 96.5735 196.439 96.6027C196.279 96.6319 196.116 96.6465 195.952 96.6465C195.805 96.6465 195.634 96.6429 195.437 96.6356C195.239 96.6283 195.113 96.6228 195.058 96.6191V95.6054H195.135C195.19 95.6127 195.272 95.6218 195.382 95.6328C195.495 95.6401 195.637 95.6437 195.809 95.6437C195.89 95.6437 195.984 95.6401 196.094 95.6328C196.204 95.6218 196.304 95.5944 196.395 95.5506C196.501 95.4994 196.6 95.4318 196.691 95.3478C196.786 95.2601 196.872 95.1231 196.949 94.9368L197.135 94.5039L194.269 88.4596H195.469L197.683 93.26L199.683 88.4596H200.801ZM207.481 96.6191H206.396V89.4241H202.643V96.6191H201.558V88.4596H207.481V96.6191ZM215.065 96.6191H213.98V92.6243H210.227V96.6191H209.142V88.4596H210.227V91.6599H213.98V88.4596H215.065V96.6191ZM222.759 96.6191H221.378L218.496 92.8819H217.811V96.6191H216.726V88.4596H217.811V92.1366C218.238 92.122 218.576 92.0142 218.825 91.8133C219.077 91.6124 219.281 91.3238 219.438 90.9475C219.504 90.7831 219.563 90.6278 219.614 90.4817C219.668 90.3319 219.712 90.2059 219.745 90.1036C219.964 89.4789 220.244 89.0496 220.584 88.8158C220.923 88.5784 221.395 88.4596 221.997 88.4596H222.332V89.4296H222.058C221.612 89.4296 221.3 89.5172 221.121 89.6926C220.942 89.8643 220.777 90.1913 220.627 90.6735C220.478 91.1557 220.31 91.5101 220.123 91.7366C219.937 91.9594 219.712 92.1567 219.449 92.3284L222.759 96.6191Z" fill="#8C99B2"/>
<rect x="275" y="85" width="13.7679" height="14.4293" rx="1.60325" fill="#4B5169"/>
<path d="M284.306 93.0099C284.306 94.3702 284.108 95.3692 283.711 96.007C283.317 96.6413 282.708 96.9585 281.884 96.9585C281.049 96.9585 280.437 96.6346 280.047 95.9866C279.657 95.3387 279.462 94.3498 279.462 93.0201C279.462 91.653 279.659 90.6539 280.052 90.023C280.449 89.3886 281.06 89.0714 281.884 89.0714C282.718 89.0714 283.331 89.3988 283.721 90.0535C284.111 90.7082 284.306 91.6937 284.306 93.0099ZM283.003 95.32C283.102 95.069 283.171 94.7518 283.212 94.3685C283.253 93.9852 283.273 93.5323 283.273 93.0099C283.273 92.4909 283.253 92.0397 283.212 91.6564C283.171 91.273 283.1 90.9542 282.998 90.6997C282.896 90.4419 282.756 90.2469 282.576 90.1146C282.4 89.9789 282.169 89.911 281.884 89.911C281.602 89.911 281.37 89.9789 281.187 90.1146C281.007 90.2469 280.864 90.4453 280.759 90.7099C280.658 90.9677 280.588 91.2934 280.551 91.6869C280.513 92.0804 280.495 92.5248 280.495 93.0201C280.495 93.5493 280.51 93.992 280.541 94.3481C280.574 94.7043 280.646 95.0232 280.754 95.3048C280.853 95.566 280.992 95.7678 281.171 95.9103C281.355 96.0494 281.592 96.1189 281.884 96.1189C282.165 96.1189 282.396 96.0528 282.576 95.9205C282.759 95.7848 282.902 95.5846 283.003 95.32Z" fill="#8C99B2"/>
<g clip-path="url(#clip7)">
<path d="M301.829 86.6034L307.184 92.2148L301.829 97.8262" stroke="#606580" stroke-width="0.801626" stroke-miterlimit="10" stroke-linecap="round" stroke-linejoin="round"/>
</g>
<defs>
<clipPath id="clip0">
<rect width="12.826" height="12.2382" fill="white" transform="translate(131.367 97.8379) rotate(-90)"/>
</clipPath>
<clipPath id="clip1">
<rect width="12.2382" height="12.826" fill="white" transform="translate(16.6235 86.2148)"/>
</clipPath>
<clipPath id="clip2">
<rect width="12.826" height="12.2382" fill="white" transform="translate(131.367 49.7402) rotate(-90)"/>
</clipPath>
<clipPath id="clip3">
<rect width="12.2382" height="12.826" fill="white" transform="translate(16.6235 38.1172)"/>
</clipPath>
<clipPath id="clip4">
<rect width="12.826" height="12.2382" fill="white" transform="translate(298.387 49.7402) rotate(-90)"/>
</clipPath>
<clipPath id="clip5">
<rect width="12.2382" height="12.826" fill="white" transform="translate(175 38.1172)"/>
</clipPath>
<clipPath id="clip6">
<rect width="12.2382" height="12.826" fill="white" transform="translate(175.624 86.0195)"/>
</clipPath>
<clipPath id="clip7">
<rect width="12.826" height="12.2382" fill="white" transform="translate(298.387 98.627) rotate(-90)"/>
</clipPath>
</defs>
</svg>
