<svg width="324" height="117" viewBox="0 0 324 117" fill="none" xmlns="http://www.w3.org/2000/svg">
<rect x="19" y="5" width="145" height="99" fill="#21242D" fill-opacity="0.1"/>
<path d="M165 55H19" stroke="#A2E2FF" stroke-width="0.5"/>
<path d="M317.5 55H164" stroke="#A2E2FF" stroke-width="0.25"/>
<path d="M7.13574 57H5.36328V56.6289H6.02246V54.1924H5.36328V53.8604C5.6123 53.8604 5.79541 53.8254 5.9126 53.7554C6.03141 53.6838 6.09814 53.5495 6.11279 53.3525H6.49121V56.6289H7.13574V57ZM9.86523 57H8.09277V56.6289H8.75195V54.1924H8.09277V53.8604C8.3418 53.8604 8.5249 53.8254 8.64209 53.7554C8.7609 53.6838 8.82764 53.5495 8.84229 53.3525H9.2207V56.6289H9.86523V57ZM12.7974 55.1812C12.7974 55.8338 12.7021 56.3132 12.5117 56.6191C12.3229 56.9235 12.0308 57.0757 11.6353 57.0757C11.2349 57.0757 10.9411 56.9202 10.7539 56.6094C10.5667 56.2985 10.4731 55.8241 10.4731 55.186C10.4731 54.5301 10.5675 54.0508 10.7563 53.748C10.9468 53.4437 11.2397 53.2915 11.6353 53.2915C12.0356 53.2915 12.3294 53.4486 12.5166 53.7627C12.7038 54.0768 12.7974 54.5496 12.7974 55.1812ZM12.1724 56.2896C12.2196 56.1691 12.2529 56.0169 12.2725 55.833C12.292 55.6491 12.3018 55.4318 12.3018 55.1812C12.3018 54.9321 12.292 54.7157 12.2725 54.5317C12.2529 54.3478 12.2188 54.1948 12.1699 54.0728C12.1211 53.9491 12.0535 53.8555 11.9673 53.792C11.8826 53.7269 11.772 53.6943 11.6353 53.6943C11.5002 53.6943 11.3887 53.7269 11.3008 53.792C11.2145 53.8555 11.1462 53.9507 11.0957 54.0776C11.0469 54.2013 11.0135 54.3576 10.9956 54.5464C10.9777 54.7352 10.9688 54.9484 10.9688 55.186C10.9688 55.4399 10.9761 55.6523 10.9907 55.8232C11.007 55.9941 11.0412 56.1471 11.0933 56.2822C11.1405 56.4076 11.2072 56.5044 11.2935 56.5728C11.3813 56.6395 11.4953 56.6729 11.6353 56.6729C11.7703 56.6729 11.881 56.6411 11.9673 56.5776C12.0552 56.5125 12.1235 56.4165 12.1724 56.2896Z" fill="#8C99B2"/>
<path d="M7.13574 40H5.36328V39.6289H6.02246V37.1924H5.36328V36.8604C5.6123 36.8604 5.79541 36.8254 5.9126 36.7554C6.03141 36.6838 6.09814 36.5495 6.11279 36.3525H6.49121V39.6289H7.13574V40ZM10.0508 40H7.80713V39.4897C7.96826 39.3368 8.12044 39.1903 8.26367 39.0503C8.4069 38.9103 8.54688 38.7646 8.68359 38.6133C8.96029 38.3089 9.14909 38.0656 9.25 37.8833C9.35091 37.6994 9.40137 37.5098 9.40137 37.3145C9.40137 37.2135 9.38509 37.1248 9.35254 37.0483C9.32161 36.9718 9.27848 36.9084 9.22314 36.8579C9.16618 36.8091 9.10026 36.7725 9.02539 36.748C8.95052 36.7236 8.86833 36.7114 8.77881 36.7114C8.69255 36.7114 8.60465 36.7228 8.51514 36.7456C8.42725 36.7668 8.34261 36.7936 8.26123 36.8262C8.19287 36.8538 8.12695 36.8872 8.06348 36.9263C8 36.9653 7.94873 36.9987 7.90967 37.0264H7.88281V36.5088C7.98372 36.4583 8.1237 36.4095 8.30273 36.3623C8.4834 36.3135 8.6543 36.2891 8.81543 36.2891C9.15397 36.2891 9.41927 36.3794 9.61133 36.5601C9.80339 36.7391 9.89941 36.9824 9.89941 37.29C9.89941 37.4316 9.88232 37.5627 9.84814 37.6831C9.81559 37.8035 9.77002 37.915 9.71143 38.0176C9.6512 38.1234 9.57878 38.2284 9.49414 38.3325C9.40951 38.4367 9.31999 38.5392 9.22559 38.6401C9.07259 38.8062 8.90169 38.9787 8.71289 39.1577C8.52572 39.3368 8.37598 39.4784 8.26367 39.5825H10.0508V40ZM12.7974 38.1812C12.7974 38.8338 12.7021 39.3132 12.5117 39.6191C12.3229 39.9235 12.0308 40.0757 11.6353 40.0757C11.2349 40.0757 10.9411 39.9202 10.7539 39.6094C10.5667 39.2985 10.4731 38.8241 10.4731 38.186C10.4731 37.5301 10.5675 37.0508 10.7563 36.748C10.9468 36.4437 11.2397 36.2915 11.6353 36.2915C12.0356 36.2915 12.3294 36.4486 12.5166 36.7627C12.7038 37.0768 12.7974 37.5496 12.7974 38.1812ZM12.1724 39.2896C12.2196 39.1691 12.2529 39.0169 12.2725 38.833C12.292 38.6491 12.3018 38.4318 12.3018 38.1812C12.3018 37.9321 12.292 37.7157 12.2725 37.5317C12.2529 37.3478 12.2188 37.1948 12.1699 37.0728C12.1211 36.9491 12.0535 36.8555 11.9673 36.792C11.8826 36.7269 11.772 36.6943 11.6353 36.6943C11.5002 36.6943 11.3887 36.7269 11.3008 36.792C11.2145 36.8555 11.1462 36.9507 11.0957 37.0776C11.0469 37.2013 11.0135 37.3576 10.9956 37.5464C10.9777 37.7352 10.9688 37.9484 10.9688 38.186C10.9688 38.4399 10.9761 38.6523 10.9907 38.8232C11.007 38.9941 11.0412 39.1471 11.0933 39.2822C11.1405 39.4076 11.2072 39.5044 11.2935 39.5728C11.3813 39.6395 11.4953 39.6729 11.6353 39.6729C11.7703 39.6729 11.881 39.6411 11.9673 39.5776C12.0552 39.5125 12.1235 39.4165 12.1724 39.2896Z" fill="#8C99B2"/>
<path d="M7.13574 24H5.36328V23.6289H6.02246V21.1924H5.36328V20.8604C5.6123 20.8604 5.79541 20.8254 5.9126 20.7554C6.03141 20.6838 6.09814 20.5495 6.11279 20.3525H6.49121V23.6289H7.13574V24ZM8.78857 20.7114C8.70068 20.7114 8.61279 20.722 8.5249 20.7432C8.43701 20.7643 8.35075 20.792 8.26611 20.8262C8.18799 20.8587 8.11963 20.8929 8.06104 20.9287C8.00407 20.9645 7.9528 20.9979 7.90723 21.0288H7.87793V20.5137C7.98372 20.4567 8.12695 20.4054 8.30762 20.3599C8.48991 20.3127 8.66325 20.2891 8.82764 20.2891C8.99202 20.2891 9.13525 20.3062 9.25732 20.3403C9.38102 20.3729 9.49251 20.4242 9.5918 20.4941C9.69922 20.5723 9.77979 20.6667 9.8335 20.7773C9.88883 20.888 9.9165 21.0174 9.9165 21.1655C9.9165 21.3657 9.85059 21.5415 9.71875 21.6929C9.58691 21.8442 9.42904 21.9403 9.24512 21.981V22.0151C9.32161 22.0298 9.40299 22.055 9.48926 22.0908C9.57715 22.1266 9.65853 22.1795 9.7334 22.2495C9.80827 22.3195 9.8693 22.4098 9.9165 22.5205C9.9637 22.6296 9.9873 22.763 9.9873 22.9209C9.9873 23.0853 9.95882 23.2367 9.90186 23.375C9.84652 23.5117 9.76758 23.633 9.66504 23.7388C9.55924 23.8494 9.43148 23.9333 9.28174 23.9902C9.132 24.0472 8.96191 24.0757 8.77148 24.0757C8.58919 24.0757 8.40853 24.0537 8.22949 24.0098C8.05046 23.9658 7.8999 23.9129 7.77783 23.8511V23.3359H7.81201C7.91455 23.4108 8.05208 23.4824 8.22461 23.5508C8.39714 23.6191 8.56966 23.6533 8.74219 23.6533C8.84147 23.6533 8.94076 23.6379 9.04004 23.6069C9.14095 23.5744 9.22477 23.5223 9.2915 23.4507C9.35661 23.3791 9.40625 23.3001 9.44043 23.2139C9.47461 23.1276 9.4917 23.0186 9.4917 22.8867C9.4917 22.7549 9.47217 22.6466 9.43311 22.562C9.39567 22.4774 9.34277 22.4106 9.27441 22.3618C9.20605 22.313 9.12467 22.2796 9.03027 22.2617C8.9375 22.2422 8.83659 22.2324 8.72754 22.2324H8.52002V21.8271H8.68115C8.90088 21.8271 9.0791 21.7751 9.21582 21.6709C9.35417 21.5667 9.42334 21.4154 9.42334 21.2168C9.42334 21.1257 9.40544 21.0475 9.36963 20.9824C9.33382 20.9157 9.28825 20.8628 9.23291 20.8237C9.17106 20.7814 9.1027 20.7521 9.02783 20.7358C8.95296 20.7196 8.87321 20.7114 8.78857 20.7114ZM12.7974 22.1812C12.7974 22.8338 12.7021 23.3132 12.5117 23.6191C12.3229 23.9235 12.0308 24.0757 11.6353 24.0757C11.2349 24.0757 10.9411 23.9202 10.7539 23.6094C10.5667 23.2985 10.4731 22.8241 10.4731 22.186C10.4731 21.5301 10.5675 21.0508 10.7563 20.748C10.9468 20.4437 11.2397 20.2915 11.6353 20.2915C12.0356 20.2915 12.3294 20.4486 12.5166 20.7627C12.7038 21.0768 12.7974 21.5496 12.7974 22.1812ZM12.1724 23.2896C12.2196 23.1691 12.2529 23.0169 12.2725 22.833C12.292 22.6491 12.3018 22.4318 12.3018 22.1812C12.3018 21.9321 12.292 21.7157 12.2725 21.5317C12.2529 21.3478 12.2188 21.1948 12.1699 21.0728C12.1211 20.9491 12.0535 20.8555 11.9673 20.792C11.8826 20.7269 11.772 20.6943 11.6353 20.6943C11.5002 20.6943 11.3887 20.7269 11.3008 20.792C11.2145 20.8555 11.1462 20.9507 11.0957 21.0776C11.0469 21.2013 11.0135 21.3576 10.9956 21.5464C10.9777 21.7352 10.9688 21.9484 10.9688 22.186C10.9688 22.4399 10.9761 22.6523 10.9907 22.8232C11.007 22.9941 11.0412 23.1471 11.0933 23.2822C11.1405 23.4076 11.2072 23.5044 11.2935 23.5728C11.3813 23.6395 11.4953 23.6729 11.6353 23.6729C11.7703 23.6729 11.881 23.6411 11.9673 23.5776C12.0552 23.5125 12.1235 23.4165 12.1724 23.2896Z" fill="#8C99B2"/>
<path d="M7.13574 8H5.36328V7.62891H6.02246V5.19238H5.36328V4.86035C5.6123 4.86035 5.79541 4.82536 5.9126 4.75537C6.03141 4.68376 6.09814 4.54948 6.11279 4.35254H6.49121V7.62891H7.13574V8ZM10.146 6.75H9.71387V8H9.24512V6.75H7.63867V6.2373L9.26465 4.36475H9.71387V6.35938H10.146V6.75ZM9.24512 6.35938V4.93848L8.01953 6.35938H9.24512ZM12.7974 6.18115C12.7974 6.83382 12.7021 7.31315 12.5117 7.61914C12.3229 7.9235 12.0308 8.07568 11.6353 8.07568C11.2349 8.07568 10.9411 7.92025 10.7539 7.60938C10.5667 7.2985 10.4731 6.82406 10.4731 6.18604C10.4731 5.53011 10.5675 5.05078 10.7563 4.74805C10.9468 4.44368 11.2397 4.2915 11.6353 4.2915C12.0356 4.2915 12.3294 4.44857 12.5166 4.7627C12.7038 5.07682 12.7974 5.54964 12.7974 6.18115ZM12.1724 7.28955C12.2196 7.16911 12.2529 7.01693 12.2725 6.83301C12.292 6.64909 12.3018 6.4318 12.3018 6.18115C12.3018 5.93213 12.292 5.71566 12.2725 5.53174C12.2529 5.34782 12.2188 5.19482 12.1699 5.07275C12.1211 4.94906 12.0535 4.85547 11.9673 4.79199C11.8826 4.72689 11.772 4.69434 11.6353 4.69434C11.5002 4.69434 11.3887 4.72689 11.3008 4.79199C11.2145 4.85547 11.1462 4.95068 11.0957 5.07764C11.0469 5.20133 11.0135 5.35758 10.9956 5.54639C10.9777 5.73519 10.9688 5.9484 10.9688 6.18604C10.9688 6.43994 10.9761 6.65234 10.9907 6.82324C11.007 6.99414 11.0412 7.14714 11.0933 7.28223C11.1405 7.40755 11.2072 7.50439 11.2935 7.57275C11.3813 7.63949 11.4953 7.67285 11.6353 7.67285C11.7703 7.67285 11.881 7.64111 11.9673 7.57764C12.0552 7.51253 12.1235 7.4165 12.1724 7.28955Z" fill="#8C99B2"/>
<path d="M7.13574 73H5.36328V72.6289H6.02246V70.1924H5.36328V69.8604C5.6123 69.8604 5.79541 69.8254 5.9126 69.7554C6.03141 69.6838 6.09814 69.5495 6.11279 69.3525H6.49121V72.6289H7.13574V73ZM10.0679 71.1812C10.0679 71.8338 9.97266 72.3132 9.78223 72.6191C9.59342 72.9235 9.30127 73.0757 8.90576 73.0757C8.50537 73.0757 8.21159 72.9202 8.02441 72.6094C7.83724 72.2985 7.74365 71.8241 7.74365 71.186C7.74365 70.5301 7.83805 70.0508 8.02686 69.748C8.21729 69.4437 8.51025 69.2915 8.90576 69.2915C9.30615 69.2915 9.59993 69.4486 9.78711 69.7627C9.97428 70.0768 10.0679 70.5496 10.0679 71.1812ZM9.44287 72.2896C9.49007 72.1691 9.52344 72.0169 9.54297 71.833C9.5625 71.6491 9.57227 71.4318 9.57227 71.1812C9.57227 70.9321 9.5625 70.7157 9.54297 70.5317C9.52344 70.3478 9.48926 70.1948 9.44043 70.0728C9.3916 69.9491 9.32406 69.8555 9.23779 69.792C9.15316 69.7269 9.04248 69.6943 8.90576 69.6943C8.77067 69.6943 8.65918 69.7269 8.57129 69.792C8.48503 69.8555 8.41667 69.9507 8.36621 70.0776C8.31738 70.2013 8.28402 70.3576 8.26611 70.5464C8.24821 70.7352 8.23926 70.9484 8.23926 71.186C8.23926 71.4399 8.24658 71.6523 8.26123 71.8232C8.27751 71.9941 8.31169 72.1471 8.36377 72.2822C8.41097 72.4076 8.4777 72.5044 8.56396 72.5728C8.65186 72.6395 8.76579 72.6729 8.90576 72.6729C9.04085 72.6729 9.15153 72.6411 9.23779 72.5776C9.32568 72.5125 9.39404 72.4165 9.44287 72.2896ZM12.7974 71.1812C12.7974 71.8338 12.7021 72.3132 12.5117 72.6191C12.3229 72.9235 12.0308 73.0757 11.6353 73.0757C11.2349 73.0757 10.9411 72.9202 10.7539 72.6094C10.5667 72.2985 10.4731 71.8241 10.4731 71.186C10.4731 70.5301 10.5675 70.0508 10.7563 69.748C10.9468 69.4437 11.2397 69.2915 11.6353 69.2915C12.0356 69.2915 12.3294 69.4486 12.5166 69.7627C12.7038 70.0768 12.7974 70.5496 12.7974 71.1812ZM12.1724 72.2896C12.2196 72.1691 12.2529 72.0169 12.2725 71.833C12.292 71.6491 12.3018 71.4318 12.3018 71.1812C12.3018 70.9321 12.292 70.7157 12.2725 70.5317C12.2529 70.3478 12.2188 70.1948 12.1699 70.0728C12.1211 69.9491 12.0535 69.8555 11.9673 69.792C11.8826 69.7269 11.772 69.6943 11.6353 69.6943C11.5002 69.6943 11.3887 69.7269 11.3008 69.792C11.2145 69.8555 11.1462 69.9507 11.0957 70.0776C11.0469 70.2013 11.0135 70.3576 10.9956 70.5464C10.9777 70.7352 10.9688 70.9484 10.9688 71.186C10.9688 71.4399 10.9761 71.6523 10.9907 71.8232C11.007 71.9941 11.0412 72.1471 11.0933 72.2822C11.1405 72.4076 11.2072 72.5044 11.2935 72.5728C11.3813 72.6395 11.4953 72.6729 11.6353 72.6729C11.7703 72.6729 11.881 72.6411 11.9673 72.5776C12.0552 72.5125 12.1235 72.4165 12.1724 72.2896Z" fill="#8C99B2"/>
<path d="M9.521 103.212C9.521 103.049 9.46647 102.913 9.35742 102.804C9.24837 102.695 9.09701 102.641 8.90332 102.641C8.72591 102.641 8.58024 102.689 8.46631 102.787C8.354 102.885 8.29785 103.017 8.29785 103.183C8.29785 103.303 8.32633 103.405 8.3833 103.488C8.44189 103.571 8.52897 103.646 8.64453 103.712C8.69499 103.74 8.77148 103.778 8.87402 103.827C8.97819 103.876 9.07259 103.914 9.15723 103.942C9.29883 103.833 9.39486 103.721 9.44531 103.607C9.49577 103.492 9.521 103.36 9.521 103.212ZM9.58936 105.033C9.58936 104.883 9.56006 104.765 9.50146 104.677C9.44287 104.589 9.32975 104.499 9.16211 104.408C9.10677 104.377 9.03271 104.344 8.93994 104.308C8.8488 104.272 8.74544 104.23 8.62988 104.181C8.49479 104.271 8.39144 104.381 8.31982 104.513C8.24821 104.643 8.2124 104.792 8.2124 104.96C8.2124 105.18 8.27832 105.361 8.41016 105.504C8.54362 105.648 8.71045 105.719 8.91064 105.719C9.11572 105.719 9.28011 105.658 9.40381 105.536C9.52751 105.412 9.58936 105.245 9.58936 105.033ZM8.90576 106.083C8.7251 106.083 8.56071 106.056 8.4126 106.002C8.26449 105.949 8.13835 105.871 8.03418 105.771C7.93164 105.673 7.85352 105.557 7.7998 105.424C7.74772 105.289 7.72168 105.146 7.72168 104.997C7.72168 104.8 7.77376 104.619 7.87793 104.455C7.98372 104.289 8.13672 104.157 8.33691 104.059V104.044C8.15788 103.94 8.02523 103.826 7.93896 103.703C7.8527 103.579 7.80957 103.424 7.80957 103.239C7.80957 102.965 7.91292 102.737 8.11963 102.555C8.32633 102.373 8.58838 102.282 8.90576 102.282C9.23617 102.282 9.50065 102.369 9.69922 102.543C9.89941 102.715 9.99951 102.937 9.99951 103.207C9.99951 103.37 9.9515 103.531 9.85547 103.69C9.76107 103.85 9.62435 103.974 9.44531 104.064V104.079C9.6569 104.178 9.81722 104.298 9.92627 104.44C10.0353 104.582 10.0898 104.764 10.0898 104.987C10.0898 105.298 9.97673 105.558 9.75049 105.768C9.52588 105.978 9.2443 106.083 8.90576 106.083ZM12.7974 104.181C12.7974 104.834 12.7021 105.313 12.5117 105.619C12.3229 105.924 12.0308 106.076 11.6353 106.076C11.2349 106.076 10.9411 105.92 10.7539 105.609C10.5667 105.299 10.4731 104.824 10.4731 104.186C10.4731 103.53 10.5675 103.051 10.7563 102.748C10.9468 102.444 11.2397 102.292 11.6353 102.292C12.0356 102.292 12.3294 102.449 12.5166 102.763C12.7038 103.077 12.7974 103.55 12.7974 104.181ZM12.1724 105.29C12.2196 105.169 12.2529 105.017 12.2725 104.833C12.292 104.649 12.3018 104.432 12.3018 104.181C12.3018 103.932 12.292 103.716 12.2725 103.532C12.2529 103.348 12.2188 103.195 12.1699 103.073C12.1211 102.949 12.0535 102.855 11.9673 102.792C11.8826 102.727 11.772 102.694 11.6353 102.694C11.5002 102.694 11.3887 102.727 11.3008 102.792C11.2145 102.855 11.1462 102.951 11.0957 103.078C11.0469 103.201 11.0135 103.358 10.9956 103.546C10.9777 103.735 10.9688 103.948 10.9688 104.186C10.9688 104.44 10.9761 104.652 10.9907 104.823C11.007 104.994 11.0412 105.147 11.0933 105.282C11.1405 105.408 11.2072 105.504 11.2935 105.573C11.3813 105.639 11.4953 105.673 11.6353 105.673C11.7703 105.673 11.881 105.641 11.9673 105.578C12.0552 105.513 12.1235 105.417 12.1724 105.29Z" fill="#8C99B2"/>
<path d="M9.57227 87.8589C9.57227 87.6115 9.54948 87.4105 9.50391 87.2559C9.45833 87.0996 9.39567 86.9792 9.31592 86.8945C9.2443 86.8164 9.17188 86.7627 9.09863 86.7334C9.02539 86.7041 8.94482 86.6895 8.85693 86.6895C8.65674 86.6895 8.49723 86.7611 8.37842 86.9043C8.2596 87.0475 8.2002 87.255 8.2002 87.5269C8.2002 87.6799 8.21973 87.806 8.25879 87.9053C8.29785 88.0046 8.36133 88.09 8.44922 88.1616C8.51107 88.2121 8.58105 88.2463 8.65918 88.2642C8.7373 88.2804 8.82113 88.2886 8.91064 88.2886C9.01481 88.2886 9.12712 88.2707 9.24756 88.2349C9.368 88.1974 9.47298 88.1486 9.5625 88.0884C9.56413 88.064 9.56576 88.0322 9.56738 87.9932C9.57064 87.9525 9.57227 87.9077 9.57227 87.8589ZM7.70459 87.5464C7.70459 87.3592 7.7347 87.1883 7.79492 87.0337C7.85677 86.8791 7.94059 86.7456 8.04639 86.6333C8.1473 86.5259 8.27018 86.4421 8.41504 86.3818C8.56152 86.3216 8.70964 86.2915 8.85938 86.2915C9.02702 86.2915 9.17839 86.32 9.31348 86.377C9.4502 86.4323 9.5682 86.5129 9.66748 86.6187C9.79281 86.7521 9.88965 86.9271 9.95801 87.1436C10.028 87.36 10.063 87.6335 10.063 87.9639C10.063 88.265 10.0288 88.5506 9.96045 88.8208C9.89372 89.0894 9.79443 89.3123 9.6626 89.4897C9.52262 89.6785 9.35417 89.8226 9.15723 89.9219C8.96191 90.0212 8.72021 90.0708 8.43213 90.0708C8.36702 90.0708 8.29785 90.0667 8.22461 90.0586C8.15137 90.0521 8.08301 90.0391 8.01953 90.0195V89.5532H8.04395C8.08464 89.576 8.14811 89.598 8.23438 89.6191C8.32064 89.6403 8.40853 89.6509 8.49805 89.6509C8.81706 89.6509 9.06771 89.5459 9.25 89.3359C9.43229 89.126 9.53564 88.8257 9.56006 88.4351C9.42985 88.5229 9.30534 88.5872 9.18652 88.6279C9.06934 88.6686 8.94157 88.689 8.80322 88.689C8.66813 88.689 8.54525 88.6743 8.43457 88.645C8.32389 88.6157 8.2124 88.5588 8.1001 88.4741C7.96989 88.3748 7.87142 88.2495 7.80469 88.0981C7.73796 87.9451 7.70459 87.7612 7.70459 87.5464ZM12.7974 88.1812C12.7974 88.8338 12.7021 89.3132 12.5117 89.6191C12.3229 89.9235 12.0308 90.0757 11.6353 90.0757C11.2349 90.0757 10.9411 89.9202 10.7539 89.6094C10.5667 89.2985 10.4731 88.8241 10.4731 88.186C10.4731 87.5301 10.5675 87.0508 10.7563 86.748C10.9468 86.4437 11.2397 86.2915 11.6353 86.2915C12.0356 86.2915 12.3294 86.4486 12.5166 86.7627C12.7038 87.0768 12.7974 87.5496 12.7974 88.1812ZM12.1724 89.2896C12.2196 89.1691 12.2529 89.0169 12.2725 88.833C12.292 88.6491 12.3018 88.4318 12.3018 88.1812C12.3018 87.9321 12.292 87.7157 12.2725 87.5317C12.2529 87.3478 12.2188 87.1948 12.1699 87.0728C12.1211 86.9491 12.0535 86.8555 11.9673 86.792C11.8826 86.7269 11.772 86.6943 11.6353 86.6943C11.5002 86.6943 11.3887 86.7269 11.3008 86.792C11.2145 86.8555 11.1462 86.9507 11.0957 87.0776C11.0469 87.2013 11.0135 87.3576 10.9956 87.5464C10.9777 87.7352 10.9688 87.9484 10.9688 88.186C10.9688 88.4399 10.9761 88.6523 10.9907 88.8232C11.007 88.9941 11.0412 89.1471 11.0933 89.2822C11.1405 89.4076 11.2072 89.5044 11.2935 89.5728C11.3813 89.6395 11.4953 89.6729 11.6353 89.6729C11.7703 89.6729 11.881 89.6411 11.9673 89.5776C12.0552 89.5125 12.1235 89.4165 12.1724 89.2896Z" fill="#8C99B2"/>
<g opacity="0.25">
<path opacity="0.5" d="M319 5.46826H19.269" stroke="#616580" stroke-width="0.496654"/>
<path d="M319 21.9541H19.269" stroke="#616580" stroke-width="0.496654"/>
<path opacity="0.5" d="M319 38.4399H19.269" stroke="#616580" stroke-width="0.496654"/>
<path opacity="0.5" d="M319 71.4121H19.269" stroke="#616580" stroke-width="0.496654"/>
<path d="M319 87.8979H19.269" stroke="#616580" stroke-width="0.496654"/>
<path opacity="0.5" d="M319 104.384H19.269" stroke="#616580" stroke-width="0.496654"/>
</g>
<g opacity="0.05">
<path d="M19.269 5.46826V104.384" stroke="#616580" stroke-width="0.508784"/>
<path d="M39.251 5.46826V104.384" stroke="#616580" stroke-width="0.508784"/>
<path d="M59.2329 5.46826V104.384" stroke="#616580" stroke-width="0.508784"/>
<path d="M79.2151 5.46826V104.384" stroke="#616580" stroke-width="0.508784"/>
<path d="M99.1975 5.46826V104.384" stroke="#616580" stroke-width="0.508784"/>
<path d="M119.179 5.46826V104.384" stroke="#616580" stroke-width="0.508784"/>
<path d="M139.161 5.46826V104.384" stroke="#616580" stroke-width="0.508784"/>
<path d="M159.144 5.46826V104.384" stroke="#616580" stroke-width="0.508784"/>
<path d="M179.125 5.46826V104.384" stroke="#616580" stroke-width="0.508784"/>
<path d="M199.108 5.46826V104.384" stroke="#616580" stroke-width="0.508784"/>
<path d="M219.09 5.46826V104.384" stroke="#616580" stroke-width="0.508784"/>
<path d="M239.072 5.46826V104.384" stroke="#616580" stroke-width="0.508784"/>
<path d="M259.054 5.46826V104.384" stroke="#616580" stroke-width="0.508784"/>
<path d="M279.036 5.46826V104.384" stroke="#616580" stroke-width="0.508784"/>
<path d="M299.018 5.46826V104.384" stroke="#616580" stroke-width="0.508784"/>
<path d="M319 5.46826V104.384" stroke="#616580" stroke-width="0.508784"/>
<path opacity="0.5" d="M29.26 5.46826V104.384" stroke="#616580" stroke-width="0.508784"/>
<path opacity="0.5" d="M49.2419 5.46826V104.384" stroke="#616580" stroke-width="0.508784"/>
<path opacity="0.5" d="M69.2239 5.46826V104.384" stroke="#616580" stroke-width="0.508784"/>
<path opacity="0.5" d="M89.2065 5.46826V104.384" stroke="#616580" stroke-width="0.508784"/>
<path opacity="0.5" d="M109.188 5.46826V104.384" stroke="#616580" stroke-width="0.508784"/>
<path opacity="0.5" d="M129.17 5.46826V104.384" stroke="#616580" stroke-width="0.508784"/>
<path opacity="0.5" d="M149.152 5.46826V104.384" stroke="#616580" stroke-width="0.508784"/>
<path opacity="0.5" d="M169.135 5.46826V104.384" stroke="#616580" stroke-width="0.508784"/>
<path opacity="0.5" d="M189.117 5.46826V104.384" stroke="#616580" stroke-width="0.508784"/>
<path opacity="0.5" d="M209.099 5.46826V104.384" stroke="#616580" stroke-width="0.508784"/>
<path opacity="0.5" d="M229.081 5.46826V104.384" stroke="#616580" stroke-width="0.508784"/>
<path opacity="0.5" d="M249.063 5.46826V104.384" stroke="#616580" stroke-width="0.508784"/>
<path opacity="0.5" d="M269.045 5.46826V104.384" stroke="#616580" stroke-width="0.508784"/>
<path opacity="0.5" d="M289.027 5.46826V104.384" stroke="#616580" stroke-width="0.508784"/>
<path opacity="0.5" d="M309.009 5.46826V104.384" stroke="#616580" stroke-width="0.508784"/>
</g>
<path d="M19.9595 111H18.187V110.629H18.8462V108.192H18.187V107.86C18.436 107.86 18.6191 107.825 18.7363 107.755C18.8551 107.684 18.9219 107.549 18.9365 107.353H19.3149V110.629H19.9595V111Z" fill="#5B607D"/>
<path d="M30.5098 111H28.2661V110.49C28.4272 110.337 28.5794 110.19 28.7227 110.05C28.8659 109.91 29.0059 109.765 29.1426 109.613C29.4193 109.309 29.6081 109.066 29.709 108.883C29.8099 108.699 29.8604 108.51 29.8604 108.314C29.8604 108.214 29.8441 108.125 29.8115 108.048C29.7806 107.972 29.7375 107.908 29.6821 107.858C29.6252 107.809 29.5592 107.772 29.4844 107.748C29.4095 107.724 29.3273 107.711 29.2378 107.711C29.1515 107.711 29.0636 107.723 28.9741 107.746C28.8862 107.767 28.8016 107.794 28.7202 107.826C28.6519 107.854 28.5859 107.887 28.5225 107.926C28.459 107.965 28.4077 107.999 28.3687 108.026H28.3418V107.509C28.4427 107.458 28.5827 107.41 28.7617 107.362C28.9424 107.313 29.1133 107.289 29.2744 107.289C29.613 107.289 29.8783 107.379 30.0703 107.56C30.2624 107.739 30.3584 107.982 30.3584 108.29C30.3584 108.432 30.3413 108.563 30.3071 108.683C30.2746 108.804 30.229 108.915 30.1704 109.018C30.1102 109.123 30.0378 109.228 29.9531 109.333C29.8685 109.437 29.779 109.539 29.6846 109.64C29.5316 109.806 29.3607 109.979 29.1719 110.158C28.9847 110.337 28.835 110.478 28.7227 110.583H30.5098V111Z" fill="#5B607D"/>
<path d="M39.2476 107.711C39.1597 107.711 39.0718 107.722 38.9839 107.743C38.896 107.764 38.8097 107.792 38.7251 107.826C38.647 107.859 38.5786 107.893 38.52 107.929C38.4631 107.965 38.4118 107.998 38.3662 108.029H38.3369V107.514C38.4427 107.457 38.5859 107.405 38.7666 107.36C38.9489 107.313 39.1222 107.289 39.2866 107.289C39.451 107.289 39.5942 107.306 39.7163 107.34C39.84 107.373 39.9515 107.424 40.0508 107.494C40.1582 107.572 40.2388 107.667 40.2925 107.777C40.3478 107.888 40.3755 108.017 40.3755 108.166C40.3755 108.366 40.3096 108.542 40.1777 108.693C40.0459 108.844 39.888 108.94 39.7041 108.981V109.015C39.7806 109.03 39.862 109.055 39.9482 109.091C40.0361 109.127 40.1175 109.18 40.1924 109.25C40.2673 109.319 40.3283 109.41 40.3755 109.521C40.4227 109.63 40.4463 109.763 40.4463 109.921C40.4463 110.085 40.4178 110.237 40.3608 110.375C40.3055 110.512 40.2266 110.633 40.124 110.739C40.0182 110.849 39.8905 110.933 39.7407 110.99C39.591 111.047 39.4209 111.076 39.2305 111.076C39.0482 111.076 38.8675 111.054 38.6885 111.01C38.5094 110.966 38.3589 110.913 38.2368 110.851V110.336H38.271C38.3735 110.411 38.5111 110.482 38.6836 110.551C38.8561 110.619 39.0286 110.653 39.2012 110.653C39.3005 110.653 39.3997 110.638 39.499 110.607C39.5999 110.574 39.6838 110.522 39.7505 110.451C39.8156 110.379 39.8652 110.3 39.8994 110.214C39.9336 110.128 39.9507 110.019 39.9507 109.887C39.9507 109.755 39.9312 109.647 39.8921 109.562C39.8547 109.477 39.8018 109.411 39.7334 109.362C39.665 109.313 39.5837 109.28 39.4893 109.262C39.3965 109.242 39.2956 109.232 39.1865 109.232H38.979V108.827H39.1401C39.3599 108.827 39.5381 108.775 39.6748 108.671C39.8132 108.567 39.8823 108.415 39.8823 108.217C39.8823 108.126 39.8644 108.048 39.8286 107.982C39.7928 107.916 39.7472 107.863 39.6919 107.824C39.63 107.781 39.5617 107.752 39.4868 107.736C39.4119 107.72 39.3322 107.711 39.2476 107.711Z" fill="#5B607D"/>
<path d="M50.605 109.75H50.1729V111H49.7041V109.75H48.0977V109.237L49.7236 107.365H50.1729V109.359H50.605V109.75ZM49.7041 109.359V107.938L48.4785 109.359H49.7041Z" fill="#5B607D"/>
<path d="M60.4683 109.843C60.4683 110.019 60.4398 110.181 60.3828 110.331C60.3275 110.481 60.2493 110.61 60.1484 110.719C60.0459 110.83 59.9181 110.917 59.7651 110.98C59.6138 111.044 59.4437 111.076 59.2549 111.076C59.0807 111.076 58.909 111.056 58.7397 111.017C58.5721 110.98 58.4264 110.93 58.3027 110.868V110.353H58.3369C58.3743 110.381 58.4281 110.412 58.498 110.448C58.568 110.482 58.6453 110.515 58.73 110.546C58.826 110.58 58.9139 110.607 58.9937 110.626C59.0734 110.644 59.1629 110.653 59.2622 110.653C59.3599 110.653 59.4551 110.636 59.5479 110.602C59.6406 110.566 59.7204 110.509 59.7871 110.431C59.8473 110.36 59.8929 110.276 59.9238 110.18C59.9564 110.084 59.9727 109.971 59.9727 109.84C59.9727 109.712 59.9548 109.606 59.9189 109.523C59.8848 109.44 59.8343 109.372 59.7676 109.318C59.6976 109.256 59.6113 109.213 59.5088 109.188C59.4079 109.162 59.2948 109.149 59.1694 109.149C59.0376 109.149 58.9049 109.16 58.7715 109.181C58.638 109.201 58.5314 109.219 58.4517 109.237V107.365H60.4463V107.792H58.9229V108.759C58.9814 108.752 59.0392 108.747 59.0962 108.744C59.1532 108.741 59.2052 108.739 59.2524 108.739C59.438 108.739 59.5951 108.755 59.7236 108.786C59.8522 108.817 59.9759 108.877 60.0947 108.966C60.2152 109.057 60.3071 109.171 60.3706 109.308C60.4357 109.445 60.4683 109.623 60.4683 109.843Z" fill="#5B607D"/>
<path d="M70.5659 109.821C70.5659 110.008 70.535 110.181 70.4731 110.338C70.4113 110.496 70.3283 110.628 70.2241 110.734C70.1151 110.846 69.993 110.932 69.8579 110.99C69.7228 111.047 69.5739 111.076 69.4111 111.076C69.2467 111.076 69.097 111.048 68.9619 110.993C68.8285 110.937 68.7104 110.855 68.6079 110.746C68.4826 110.614 68.3841 110.438 68.3125 110.219C68.2425 109.997 68.2075 109.726 68.2075 109.403C68.2075 109.088 68.2401 108.803 68.3052 108.549C68.3703 108.293 68.4704 108.071 68.6055 107.882C68.7373 107.698 68.9074 107.555 69.1157 107.453C69.3241 107.348 69.5649 107.296 69.8384 107.296C69.9198 107.296 69.9954 107.3 70.0654 107.309C70.1354 107.317 70.1973 107.33 70.251 107.348V107.814H70.229C70.1851 107.79 70.1216 107.768 70.0386 107.748C69.9556 107.727 69.8669 107.716 69.7725 107.716C69.4697 107.716 69.2248 107.819 69.0376 108.024C68.8521 108.227 68.7422 108.53 68.708 108.932C68.8236 108.851 68.9424 108.788 69.0645 108.744C69.1865 108.7 69.32 108.678 69.4648 108.678C69.6064 108.678 69.7301 108.693 69.8359 108.722C69.9434 108.75 70.0549 108.807 70.1704 108.893C70.3039 108.994 70.4032 109.122 70.4683 109.276C70.5334 109.431 70.5659 109.612 70.5659 109.821ZM70.0703 109.84C70.0703 109.691 70.0508 109.565 70.0117 109.464C69.9727 109.363 69.9092 109.277 69.8213 109.206C69.7578 109.153 69.6854 109.119 69.604 109.103C69.5243 109.087 69.4421 109.079 69.3574 109.079C69.2435 109.079 69.1328 109.096 69.0254 109.13C68.918 109.164 68.8122 109.214 68.708 109.279C68.7048 109.315 68.7023 109.35 68.7007 109.384C68.6991 109.416 68.6982 109.458 68.6982 109.508C68.6982 109.761 68.7227 109.964 68.7715 110.119C68.8219 110.273 68.8838 110.39 68.957 110.47C69.027 110.547 69.0986 110.6 69.1719 110.631C69.2467 110.662 69.3273 110.678 69.4136 110.678C69.6089 110.678 69.7668 110.608 69.8872 110.468C70.0093 110.328 70.0703 110.119 70.0703 109.84Z" fill="#5B607D"/>
<path d="M80.5488 107.909L78.9766 111H78.4565L80.1216 107.792H78.2417V107.365H80.5488V107.909Z" fill="#5B607D"/>
<path d="M89.98 108.212C89.98 108.049 89.9255 107.913 89.8164 107.804C89.7074 107.695 89.556 107.641 89.3623 107.641C89.1849 107.641 89.0392 107.689 88.9253 107.787C88.813 107.885 88.7568 108.017 88.7568 108.183C88.7568 108.303 88.7853 108.405 88.8423 108.488C88.9009 108.571 88.988 108.646 89.1035 108.712C89.154 108.74 89.2305 108.778 89.333 108.827C89.4372 108.876 89.5316 108.914 89.6162 108.942C89.7578 108.833 89.8538 108.721 89.9043 108.607C89.9548 108.492 89.98 108.36 89.98 108.212ZM90.0483 110.033C90.0483 109.883 90.019 109.765 89.9604 109.677C89.9019 109.589 89.7887 109.499 89.6211 109.408C89.5658 109.377 89.4917 109.344 89.3989 109.308C89.3078 109.272 89.2044 109.23 89.0889 109.181C88.9538 109.271 88.8504 109.381 88.7788 109.513C88.7072 109.643 88.6714 109.792 88.6714 109.96C88.6714 110.18 88.7373 110.361 88.8691 110.504C89.0026 110.648 89.1694 110.719 89.3696 110.719C89.5747 110.719 89.7391 110.658 89.8628 110.536C89.9865 110.412 90.0483 110.245 90.0483 110.033ZM89.3647 111.083C89.1841 111.083 89.0197 111.056 88.8716 111.002C88.7235 110.949 88.5973 110.871 88.4932 110.771C88.3906 110.673 88.3125 110.557 88.2588 110.424C88.2067 110.289 88.1807 110.146 88.1807 109.997C88.1807 109.8 88.2327 109.619 88.3369 109.455C88.4427 109.289 88.5957 109.157 88.7959 109.059V109.044C88.6169 108.94 88.4842 108.826 88.3979 108.703C88.3117 108.579 88.2686 108.424 88.2686 108.239C88.2686 107.965 88.3719 107.737 88.5786 107.555C88.7853 107.373 89.0474 107.282 89.3647 107.282C89.6951 107.282 89.9596 107.369 90.1582 107.543C90.3584 107.715 90.4585 107.937 90.4585 108.207C90.4585 108.37 90.4105 108.531 90.3145 108.69C90.2201 108.85 90.0833 108.974 89.9043 109.064V109.079C90.1159 109.178 90.2762 109.298 90.3853 109.44C90.4943 109.582 90.5488 109.764 90.5488 109.987C90.5488 110.298 90.4357 110.558 90.2095 110.768C89.9849 110.978 89.7033 111.083 89.3647 111.083Z" fill="#5B607D"/>
<path d="M101.031 108.859C101.031 108.611 101.008 108.41 100.963 108.256C100.917 108.1 100.855 107.979 100.775 107.895C100.703 107.816 100.631 107.763 100.558 107.733C100.484 107.704 100.404 107.689 100.316 107.689C100.116 107.689 99.9562 107.761 99.8374 107.904C99.7186 108.048 99.6592 108.255 99.6592 108.527C99.6592 108.68 99.6787 108.806 99.7178 108.905C99.7568 109.005 99.8203 109.09 99.9082 109.162C99.9701 109.212 100.04 109.246 100.118 109.264C100.196 109.28 100.28 109.289 100.37 109.289C100.474 109.289 100.586 109.271 100.707 109.235C100.827 109.197 100.932 109.149 101.021 109.088C101.023 109.064 101.025 109.032 101.026 108.993C101.03 108.952 101.031 108.908 101.031 108.859ZM99.1636 108.546C99.1636 108.359 99.1937 108.188 99.2539 108.034C99.3158 107.879 99.3996 107.746 99.5054 107.633C99.6063 107.526 99.7292 107.442 99.874 107.382C100.021 107.322 100.169 107.292 100.318 107.292C100.486 107.292 100.637 107.32 100.772 107.377C100.909 107.432 101.027 107.513 101.126 107.619C101.252 107.752 101.349 107.927 101.417 108.144C101.487 108.36 101.522 108.633 101.522 108.964C101.522 109.265 101.488 109.551 101.419 109.821C101.353 110.089 101.253 110.312 101.122 110.49C100.982 110.679 100.813 110.823 100.616 110.922C100.421 111.021 100.179 111.071 99.8911 111.071C99.826 111.071 99.7568 111.067 99.6836 111.059C99.6104 111.052 99.542 111.039 99.4785 111.02V110.553H99.5029C99.5436 110.576 99.6071 110.598 99.6934 110.619C99.7796 110.64 99.8675 110.651 99.957 110.651C100.276 110.651 100.527 110.546 100.709 110.336C100.891 110.126 100.995 109.826 101.019 109.435C100.889 109.523 100.764 109.587 100.646 109.628C100.528 109.669 100.401 109.689 100.262 109.689C100.127 109.689 100.004 109.674 99.8936 109.645C99.7829 109.616 99.6714 109.559 99.5591 109.474C99.4289 109.375 99.3304 109.25 99.2637 109.098C99.1969 108.945 99.1636 108.761 99.1636 108.546Z" fill="#5B607D"/>
<path d="M107.595 111H105.822V110.629H106.481V108.192H105.822V107.86C106.071 107.86 106.254 107.825 106.372 107.755C106.49 107.684 106.557 107.549 106.572 107.353H106.95V110.629H107.595V111ZM110.527 109.181C110.527 109.834 110.432 110.313 110.241 110.619C110.052 110.924 109.76 111.076 109.365 111.076C108.964 111.076 108.671 110.92 108.483 110.609C108.296 110.299 108.203 109.824 108.203 109.186C108.203 108.53 108.297 108.051 108.486 107.748C108.676 107.444 108.969 107.292 109.365 107.292C109.765 107.292 110.059 107.449 110.246 107.763C110.433 108.077 110.527 108.55 110.527 109.181ZM109.902 110.29C109.949 110.169 109.982 110.017 110.002 109.833C110.021 109.649 110.031 109.432 110.031 109.181C110.031 108.932 110.021 108.716 110.002 108.532C109.982 108.348 109.948 108.195 109.899 108.073C109.851 107.949 109.783 107.855 109.697 107.792C109.612 107.727 109.501 107.694 109.365 107.694C109.23 107.694 109.118 107.727 109.03 107.792C108.944 107.855 108.876 107.951 108.825 108.078C108.776 108.201 108.743 108.358 108.725 108.546C108.707 108.735 108.698 108.948 108.698 109.186C108.698 109.44 108.706 109.652 108.72 109.823C108.736 109.994 108.771 110.147 108.823 110.282C108.87 110.408 108.937 110.504 109.023 110.573C109.111 110.639 109.225 110.673 109.365 110.673C109.5 110.673 109.611 110.641 109.697 110.578C109.785 110.513 109.853 110.417 109.902 110.29Z" fill="#5B607D"/>
<path d="M117.595 111H115.822V110.629H116.481V108.192H115.822V107.86C116.071 107.86 116.254 107.825 116.372 107.755C116.49 107.684 116.557 107.549 116.572 107.353H116.95V110.629H117.595V111ZM120.324 111H118.552V110.629H119.211V108.192H118.552V107.86C118.801 107.86 118.984 107.825 119.101 107.755C119.22 107.684 119.287 107.549 119.301 107.353H119.68V110.629H120.324V111Z" fill="#5B607D"/>
<path d="M127.595 111H125.822V110.629H126.481V108.192H125.822V107.86C126.071 107.86 126.254 107.825 126.372 107.755C126.49 107.684 126.557 107.549 126.572 107.353H126.95V110.629H127.595V111ZM130.51 111H128.266V110.49C128.427 110.337 128.579 110.19 128.723 110.05C128.866 109.91 129.006 109.765 129.143 109.613C129.419 109.309 129.608 109.066 129.709 108.883C129.81 108.699 129.86 108.51 129.86 108.314C129.86 108.214 129.844 108.125 129.812 108.048C129.781 107.972 129.737 107.908 129.682 107.858C129.625 107.809 129.559 107.772 129.484 107.748C129.41 107.724 129.327 107.711 129.238 107.711C129.152 107.711 129.064 107.723 128.974 107.746C128.886 107.767 128.802 107.794 128.72 107.826C128.652 107.854 128.586 107.887 128.522 107.926C128.459 107.965 128.408 107.999 128.369 108.026H128.342V107.509C128.443 107.458 128.583 107.41 128.762 107.362C128.942 107.313 129.113 107.289 129.274 107.289C129.613 107.289 129.878 107.379 130.07 107.56C130.262 107.739 130.358 107.982 130.358 108.29C130.358 108.432 130.341 108.563 130.307 108.683C130.275 108.804 130.229 108.915 130.17 109.018C130.11 109.123 130.038 109.228 129.953 109.333C129.868 109.437 129.779 109.539 129.685 109.64C129.532 109.806 129.361 109.979 129.172 110.158C128.985 110.337 128.835 110.478 128.723 110.583H130.51V111Z" fill="#5B607D"/>
<path d="M139.595 111H137.822V110.629H138.481V108.192H137.822V107.86C138.071 107.86 138.254 107.825 138.372 107.755C138.49 107.684 138.557 107.549 138.572 107.353H138.95V110.629H139.595V111ZM141.248 107.711C141.16 107.711 141.072 107.722 140.984 107.743C140.896 107.764 140.81 107.792 140.725 107.826C140.647 107.859 140.579 107.893 140.52 107.929C140.463 107.965 140.412 107.998 140.366 108.029H140.337V107.514C140.443 107.457 140.586 107.405 140.767 107.36C140.949 107.313 141.122 107.289 141.287 107.289C141.451 107.289 141.594 107.306 141.716 107.34C141.84 107.373 141.951 107.424 142.051 107.494C142.158 107.572 142.239 107.667 142.292 107.777C142.348 107.888 142.375 108.017 142.375 108.166C142.375 108.366 142.31 108.542 142.178 108.693C142.046 108.844 141.888 108.94 141.704 108.981V109.015C141.781 109.03 141.862 109.055 141.948 109.091C142.036 109.127 142.118 109.18 142.192 109.25C142.267 109.319 142.328 109.41 142.375 109.521C142.423 109.63 142.446 109.763 142.446 109.921C142.446 110.085 142.418 110.237 142.361 110.375C142.306 110.512 142.227 110.633 142.124 110.739C142.018 110.849 141.89 110.933 141.741 110.99C141.591 111.047 141.421 111.076 141.23 111.076C141.048 111.076 140.868 111.054 140.688 111.01C140.509 110.966 140.359 110.913 140.237 110.851V110.336H140.271C140.374 110.411 140.511 110.482 140.684 110.551C140.856 110.619 141.029 110.653 141.201 110.653C141.3 110.653 141.4 110.638 141.499 110.607C141.6 110.574 141.684 110.522 141.75 110.451C141.816 110.379 141.865 110.3 141.899 110.214C141.934 110.128 141.951 110.019 141.951 109.887C141.951 109.755 141.931 109.647 141.892 109.562C141.855 109.477 141.802 109.411 141.733 109.362C141.665 109.313 141.584 109.28 141.489 109.262C141.396 109.242 141.296 109.232 141.187 109.232H140.979V108.827H141.14C141.36 108.827 141.538 108.775 141.675 108.671C141.813 108.567 141.882 108.415 141.882 108.217C141.882 108.126 141.864 108.048 141.829 107.982C141.793 107.916 141.747 107.863 141.692 107.824C141.63 107.781 141.562 107.752 141.487 107.736C141.412 107.72 141.332 107.711 141.248 107.711Z" fill="#5B607D"/>
<path d="M148.095 111H146.322V110.629H146.981V108.192H146.322V107.86C146.571 107.86 146.754 107.825 146.872 107.755C146.99 107.684 147.057 107.549 147.072 107.353H147.45V110.629H148.095V111ZM151.105 109.75H150.673V111H150.204V109.75H148.598V109.237L150.224 107.365H150.673V109.359H151.105V109.75ZM150.204 109.359V107.938L148.979 109.359H150.204Z" fill="#5B607D"/>
<path d="M159.095 111H157.322V110.629H157.981V108.192H157.322V107.86C157.571 107.86 157.754 107.825 157.872 107.755C157.99 107.684 158.057 107.549 158.072 107.353H158.45V110.629H159.095V111ZM161.968 109.843C161.968 110.019 161.94 110.181 161.883 110.331C161.827 110.481 161.749 110.61 161.648 110.719C161.546 110.83 161.418 110.917 161.265 110.98C161.114 111.044 160.944 111.076 160.755 111.076C160.581 111.076 160.409 111.056 160.24 111.017C160.072 110.98 159.926 110.93 159.803 110.868V110.353H159.837C159.874 110.381 159.928 110.412 159.998 110.448C160.068 110.482 160.145 110.515 160.23 110.546C160.326 110.58 160.414 110.607 160.494 110.626C160.573 110.644 160.663 110.653 160.762 110.653C160.86 110.653 160.955 110.636 161.048 110.602C161.141 110.566 161.22 110.509 161.287 110.431C161.347 110.36 161.393 110.276 161.424 110.18C161.456 110.084 161.473 109.971 161.473 109.84C161.473 109.712 161.455 109.606 161.419 109.523C161.385 109.44 161.334 109.372 161.268 109.318C161.198 109.256 161.111 109.213 161.009 109.188C160.908 109.162 160.795 109.149 160.669 109.149C160.538 109.149 160.405 109.16 160.271 109.181C160.138 109.201 160.031 109.219 159.952 109.237V107.365H161.946V107.792H160.423V108.759C160.481 108.752 160.539 108.747 160.596 108.744C160.653 108.741 160.705 108.739 160.752 108.739C160.938 108.739 161.095 108.755 161.224 108.786C161.352 108.817 161.476 108.877 161.595 108.966C161.715 109.057 161.807 109.171 161.871 109.308C161.936 109.445 161.968 109.623 161.968 109.843Z" fill="#5B607D"/>
<path d="M169.095 111H167.322V110.629H167.981V108.192H167.322V107.86C167.571 107.86 167.754 107.825 167.872 107.755C167.99 107.684 168.057 107.549 168.072 107.353H168.45V110.629H169.095V111ZM172.066 109.821C172.066 110.008 172.035 110.181 171.973 110.338C171.911 110.496 171.828 110.628 171.724 110.734C171.615 110.846 171.493 110.932 171.358 110.99C171.223 111.047 171.074 111.076 170.911 111.076C170.747 111.076 170.597 111.048 170.462 110.993C170.328 110.937 170.21 110.855 170.108 110.746C169.983 110.614 169.884 110.438 169.812 110.219C169.743 109.997 169.708 109.726 169.708 109.403C169.708 109.088 169.74 108.803 169.805 108.549C169.87 108.293 169.97 108.071 170.105 107.882C170.237 107.698 170.407 107.555 170.616 107.453C170.824 107.348 171.065 107.296 171.338 107.296C171.42 107.296 171.495 107.3 171.565 107.309C171.635 107.317 171.697 107.33 171.751 107.348V107.814H171.729C171.685 107.79 171.622 107.768 171.539 107.748C171.456 107.727 171.367 107.716 171.272 107.716C170.97 107.716 170.725 107.819 170.538 108.024C170.352 108.227 170.242 108.53 170.208 108.932C170.324 108.851 170.442 108.788 170.564 108.744C170.687 108.7 170.82 108.678 170.965 108.678C171.106 108.678 171.23 108.693 171.336 108.722C171.443 108.75 171.555 108.807 171.67 108.893C171.804 108.994 171.903 109.122 171.968 109.276C172.033 109.431 172.066 109.612 172.066 109.821ZM171.57 109.84C171.57 109.691 171.551 109.565 171.512 109.464C171.473 109.363 171.409 109.277 171.321 109.206C171.258 109.153 171.185 109.119 171.104 109.103C171.024 109.087 170.942 109.079 170.857 109.079C170.743 109.079 170.633 109.096 170.525 109.13C170.418 109.164 170.312 109.214 170.208 109.279C170.205 109.315 170.202 109.35 170.201 109.384C170.199 109.416 170.198 109.458 170.198 109.508C170.198 109.761 170.223 109.964 170.271 110.119C170.322 110.273 170.384 110.39 170.457 110.47C170.527 110.547 170.599 110.6 170.672 110.631C170.747 110.662 170.827 110.678 170.914 110.678C171.109 110.678 171.267 110.608 171.387 110.468C171.509 110.328 171.57 110.119 171.57 109.84Z" fill="#5B607D"/>
<path d="M179.095 111H177.322V110.629H177.981V108.192H177.322V107.86C177.571 107.86 177.754 107.825 177.872 107.755C177.99 107.684 178.057 107.549 178.072 107.353H178.45V110.629H179.095V111ZM182.049 107.909L180.477 111H179.957L181.622 107.792H179.742V107.365H182.049V107.909Z" fill="#5B607D"/>
<path d="M188.595 111H186.822V110.629H187.481V108.192H186.822V107.86C187.071 107.86 187.254 107.825 187.372 107.755C187.49 107.684 187.557 107.549 187.572 107.353H187.95V110.629H188.595V111ZM190.98 108.212C190.98 108.049 190.925 107.913 190.816 107.804C190.707 107.695 190.556 107.641 190.362 107.641C190.185 107.641 190.039 107.689 189.925 107.787C189.813 107.885 189.757 108.017 189.757 108.183C189.757 108.303 189.785 108.405 189.842 108.488C189.901 108.571 189.988 108.646 190.104 108.712C190.154 108.74 190.23 108.778 190.333 108.827C190.437 108.876 190.532 108.914 190.616 108.942C190.758 108.833 190.854 108.721 190.904 108.607C190.955 108.492 190.98 108.36 190.98 108.212ZM191.048 110.033C191.048 109.883 191.019 109.765 190.96 109.677C190.902 109.589 190.789 109.499 190.621 109.408C190.566 109.377 190.492 109.344 190.399 109.308C190.308 109.272 190.204 109.23 190.089 109.181C189.954 109.271 189.85 109.381 189.779 109.513C189.707 109.643 189.671 109.792 189.671 109.96C189.671 110.18 189.737 110.361 189.869 110.504C190.003 110.648 190.169 110.719 190.37 110.719C190.575 110.719 190.739 110.658 190.863 110.536C190.986 110.412 191.048 110.245 191.048 110.033ZM190.365 111.083C190.184 111.083 190.02 111.056 189.872 111.002C189.723 110.949 189.597 110.871 189.493 110.771C189.391 110.673 189.312 110.557 189.259 110.424C189.207 110.289 189.181 110.146 189.181 109.997C189.181 109.8 189.233 109.619 189.337 109.455C189.443 109.289 189.596 109.157 189.796 109.059V109.044C189.617 108.94 189.484 108.826 189.398 108.703C189.312 108.579 189.269 108.424 189.269 108.239C189.269 107.965 189.372 107.737 189.579 107.555C189.785 107.373 190.047 107.282 190.365 107.282C190.695 107.282 190.96 107.369 191.158 107.543C191.358 107.715 191.458 107.937 191.458 108.207C191.458 108.37 191.41 108.531 191.314 108.69C191.22 108.85 191.083 108.974 190.904 109.064V109.079C191.116 109.178 191.276 109.298 191.385 109.44C191.494 109.582 191.549 109.764 191.549 109.987C191.549 110.298 191.436 110.558 191.209 110.768C190.985 110.978 190.703 111.083 190.365 111.083Z" fill="#5B607D"/>
<path d="M198.095 111H196.322V110.629H196.981V108.192H196.322V107.86C196.571 107.86 196.754 107.825 196.872 107.755C196.99 107.684 197.057 107.549 197.072 107.353H197.45V110.629H198.095V111ZM200.531 108.859C200.531 108.611 200.508 108.41 200.463 108.256C200.417 108.1 200.355 107.979 200.275 107.895C200.203 107.816 200.131 107.763 200.058 107.733C199.984 107.704 199.904 107.689 199.816 107.689C199.616 107.689 199.456 107.761 199.337 107.904C199.219 108.048 199.159 108.255 199.159 108.527C199.159 108.68 199.179 108.806 199.218 108.905C199.257 109.005 199.32 109.09 199.408 109.162C199.47 109.212 199.54 109.246 199.618 109.264C199.696 109.28 199.78 109.289 199.87 109.289C199.974 109.289 200.086 109.271 200.207 109.235C200.327 109.197 200.432 109.149 200.521 109.088C200.523 109.064 200.525 109.032 200.526 108.993C200.53 108.952 200.531 108.908 200.531 108.859ZM198.664 108.546C198.664 108.359 198.694 108.188 198.754 108.034C198.816 107.879 198.9 107.746 199.005 107.633C199.106 107.526 199.229 107.442 199.374 107.382C199.521 107.322 199.669 107.292 199.818 107.292C199.986 107.292 200.137 107.32 200.272 107.377C200.409 107.432 200.527 107.513 200.626 107.619C200.752 107.752 200.849 107.927 200.917 108.144C200.987 108.36 201.022 108.633 201.022 108.964C201.022 109.265 200.988 109.551 200.919 109.821C200.853 110.089 200.753 110.312 200.622 110.49C200.482 110.679 200.313 110.823 200.116 110.922C199.921 111.021 199.679 111.071 199.391 111.071C199.326 111.071 199.257 111.067 199.184 111.059C199.11 111.052 199.042 111.039 198.979 111.02V110.553H199.003C199.044 110.576 199.107 110.598 199.193 110.619C199.28 110.64 199.368 110.651 199.457 110.651C199.776 110.651 200.027 110.546 200.209 110.336C200.391 110.126 200.495 109.826 200.519 109.435C200.389 109.523 200.264 109.587 200.146 109.628C200.028 109.669 199.901 109.689 199.762 109.689C199.627 109.689 199.504 109.674 199.394 109.645C199.283 109.616 199.171 109.559 199.059 109.474C198.929 109.375 198.83 109.25 198.764 109.098C198.697 108.945 198.664 108.761 198.664 108.546Z" fill="#5B607D"/>
<path d="M208.78 111H206.537V110.49C206.698 110.337 206.85 110.19 206.993 110.05C207.136 109.91 207.276 109.765 207.413 109.613C207.69 109.309 207.879 109.066 207.979 108.883C208.08 108.699 208.131 108.51 208.131 108.314C208.131 108.214 208.115 108.125 208.082 108.048C208.051 107.972 208.008 107.908 207.953 107.858C207.896 107.809 207.83 107.772 207.755 107.748C207.68 107.724 207.598 107.711 207.508 107.711C207.422 107.711 207.334 107.723 207.245 107.746C207.157 107.767 207.072 107.794 206.991 107.826C206.922 107.854 206.856 107.887 206.793 107.926C206.729 107.965 206.678 107.999 206.639 108.026H206.612V107.509C206.713 107.458 206.853 107.41 207.032 107.362C207.213 107.313 207.384 107.289 207.545 107.289C207.883 107.289 208.149 107.379 208.341 107.56C208.533 107.739 208.629 107.982 208.629 108.29C208.629 108.432 208.612 108.563 208.578 108.683C208.545 108.804 208.5 108.915 208.441 109.018C208.381 109.123 208.308 109.228 208.224 109.333C208.139 109.437 208.049 109.539 207.955 109.64C207.802 109.806 207.631 109.979 207.442 110.158C207.255 110.337 207.105 110.478 206.993 110.583H208.78V111ZM211.527 109.181C211.527 109.834 211.432 110.313 211.241 110.619C211.052 110.924 210.76 111.076 210.365 111.076C209.964 111.076 209.671 110.92 209.483 110.609C209.296 110.299 209.203 109.824 209.203 109.186C209.203 108.53 209.297 108.051 209.486 107.748C209.676 107.444 209.969 107.292 210.365 107.292C210.765 107.292 211.059 107.449 211.246 107.763C211.433 108.077 211.527 108.55 211.527 109.181ZM210.902 110.29C210.949 110.169 210.982 110.017 211.002 109.833C211.021 109.649 211.031 109.432 211.031 109.181C211.031 108.932 211.021 108.716 211.002 108.532C210.982 108.348 210.948 108.195 210.899 108.073C210.851 107.949 210.783 107.855 210.697 107.792C210.612 107.727 210.501 107.694 210.365 107.694C210.23 107.694 210.118 107.727 210.03 107.792C209.944 107.855 209.876 107.951 209.825 108.078C209.776 108.201 209.743 108.358 209.725 108.546C209.707 108.735 209.698 108.948 209.698 109.186C209.698 109.44 209.706 109.652 209.72 109.823C209.736 109.994 209.771 110.147 209.823 110.282C209.87 110.408 209.937 110.504 210.023 110.573C210.111 110.639 210.225 110.673 210.365 110.673C210.5 110.673 210.611 110.641 210.697 110.578C210.785 110.513 210.853 110.417 210.902 110.29Z" fill="#5B607D"/>
<path d="M218.78 111H216.537V110.49C216.698 110.337 216.85 110.19 216.993 110.05C217.136 109.91 217.276 109.765 217.413 109.613C217.69 109.309 217.879 109.066 217.979 108.883C218.08 108.699 218.131 108.51 218.131 108.314C218.131 108.214 218.115 108.125 218.082 108.048C218.051 107.972 218.008 107.908 217.953 107.858C217.896 107.809 217.83 107.772 217.755 107.748C217.68 107.724 217.598 107.711 217.508 107.711C217.422 107.711 217.334 107.723 217.245 107.746C217.157 107.767 217.072 107.794 216.991 107.826C216.922 107.854 216.856 107.887 216.793 107.926C216.729 107.965 216.678 107.999 216.639 108.026H216.612V107.509C216.713 107.458 216.853 107.41 217.032 107.362C217.213 107.313 217.384 107.289 217.545 107.289C217.883 107.289 218.149 107.379 218.341 107.56C218.533 107.739 218.629 107.982 218.629 108.29C218.629 108.432 218.612 108.563 218.578 108.683C218.545 108.804 218.5 108.915 218.441 109.018C218.381 109.123 218.308 109.228 218.224 109.333C218.139 109.437 218.049 109.539 217.955 109.64C217.802 109.806 217.631 109.979 217.442 110.158C217.255 110.337 217.105 110.478 216.993 110.583H218.78V111ZM221.324 111H219.552V110.629H220.211V108.192H219.552V107.86C219.801 107.86 219.984 107.825 220.101 107.755C220.22 107.684 220.287 107.549 220.301 107.353H220.68V110.629H221.324V111Z" fill="#5B607D"/>
<path d="M238.78 111H236.537V110.49C236.698 110.337 236.85 110.19 236.993 110.05C237.136 109.91 237.276 109.765 237.413 109.613C237.69 109.309 237.879 109.066 237.979 108.883C238.08 108.699 238.131 108.51 238.131 108.314C238.131 108.214 238.115 108.125 238.082 108.048C238.051 107.972 238.008 107.908 237.953 107.858C237.896 107.809 237.83 107.772 237.755 107.748C237.68 107.724 237.598 107.711 237.508 107.711C237.422 107.711 237.334 107.723 237.245 107.746C237.157 107.767 237.072 107.794 236.991 107.826C236.922 107.854 236.856 107.887 236.793 107.926C236.729 107.965 236.678 107.999 236.639 108.026H236.612V107.509C236.713 107.458 236.853 107.41 237.032 107.362C237.213 107.313 237.384 107.289 237.545 107.289C237.883 107.289 238.149 107.379 238.341 107.56C238.533 107.739 238.629 107.982 238.629 108.29C238.629 108.432 238.612 108.563 238.578 108.683C238.545 108.804 238.5 108.915 238.441 109.018C238.381 109.123 238.308 109.228 238.224 109.333C238.139 109.437 238.049 109.539 237.955 109.64C237.802 109.806 237.631 109.979 237.442 110.158C237.255 110.337 237.105 110.478 236.993 110.583H238.78V111ZM240.248 107.711C240.16 107.711 240.072 107.722 239.984 107.743C239.896 107.764 239.81 107.792 239.725 107.826C239.647 107.859 239.579 107.893 239.52 107.929C239.463 107.965 239.412 107.998 239.366 108.029H239.337V107.514C239.443 107.457 239.586 107.405 239.767 107.36C239.949 107.313 240.122 107.289 240.287 107.289C240.451 107.289 240.594 107.306 240.716 107.34C240.84 107.373 240.951 107.424 241.051 107.494C241.158 107.572 241.239 107.667 241.292 107.777C241.348 107.888 241.375 108.017 241.375 108.166C241.375 108.366 241.31 108.542 241.178 108.693C241.046 108.844 240.888 108.94 240.704 108.981V109.015C240.781 109.03 240.862 109.055 240.948 109.091C241.036 109.127 241.118 109.18 241.192 109.25C241.267 109.319 241.328 109.41 241.375 109.521C241.423 109.63 241.446 109.763 241.446 109.921C241.446 110.085 241.418 110.237 241.361 110.375C241.306 110.512 241.227 110.633 241.124 110.739C241.018 110.849 240.89 110.933 240.741 110.99C240.591 111.047 240.421 111.076 240.23 111.076C240.048 111.076 239.868 111.054 239.688 111.01C239.509 110.966 239.359 110.913 239.237 110.851V110.336H239.271C239.374 110.411 239.511 110.482 239.684 110.551C239.856 110.619 240.029 110.653 240.201 110.653C240.3 110.653 240.4 110.638 240.499 110.607C240.6 110.574 240.684 110.522 240.75 110.451C240.816 110.379 240.865 110.3 240.899 110.214C240.934 110.128 240.951 110.019 240.951 109.887C240.951 109.755 240.931 109.647 240.892 109.562C240.855 109.477 240.802 109.411 240.733 109.362C240.665 109.313 240.584 109.28 240.489 109.262C240.396 109.242 240.296 109.232 240.187 109.232H239.979V108.827H240.14C240.36 108.827 240.538 108.775 240.675 108.671C240.813 108.567 240.882 108.415 240.882 108.217C240.882 108.126 240.864 108.048 240.829 107.982C240.793 107.916 240.747 107.863 240.692 107.824C240.63 107.781 240.562 107.752 240.487 107.736C240.412 107.72 240.332 107.711 240.248 107.711Z" fill="white"/>
<path d="M248.28 111H246.037V110.49C246.198 110.337 246.35 110.19 246.493 110.05C246.636 109.91 246.776 109.765 246.913 109.613C247.19 109.309 247.379 109.066 247.479 108.883C247.58 108.699 247.631 108.51 247.631 108.314C247.631 108.214 247.615 108.125 247.582 108.048C247.551 107.972 247.508 107.908 247.453 107.858C247.396 107.809 247.33 107.772 247.255 107.748C247.18 107.724 247.098 107.711 247.008 107.711C246.922 107.711 246.834 107.723 246.745 107.746C246.657 107.767 246.572 107.794 246.491 107.826C246.422 107.854 246.356 107.887 246.293 107.926C246.229 107.965 246.178 107.999 246.139 108.026H246.112V107.509C246.213 107.458 246.353 107.41 246.532 107.362C246.713 107.313 246.884 107.289 247.045 107.289C247.383 107.289 247.649 107.379 247.841 107.56C248.033 107.739 248.129 107.982 248.129 108.29C248.129 108.432 248.112 108.563 248.078 108.683C248.045 108.804 248 108.915 247.941 109.018C247.881 109.123 247.808 109.228 247.724 109.333C247.639 109.437 247.549 109.539 247.455 109.64C247.302 109.806 247.131 109.979 246.942 110.158C246.755 110.337 246.605 110.478 246.493 110.583H248.28V111ZM251.105 109.75H250.673V111H250.204V109.75H248.598V109.237L250.224 107.365H250.673V109.359H251.105V109.75ZM250.204 109.359V107.938L248.979 109.359H250.204Z" fill="#8C99B2"/>
<path d="M258.78 111H256.537V110.49C256.698 110.337 256.85 110.19 256.993 110.05C257.136 109.91 257.276 109.765 257.413 109.613C257.69 109.309 257.879 109.066 257.979 108.883C258.08 108.699 258.131 108.51 258.131 108.314C258.131 108.214 258.115 108.125 258.082 108.048C258.051 107.972 258.008 107.908 257.953 107.858C257.896 107.809 257.83 107.772 257.755 107.748C257.68 107.724 257.598 107.711 257.508 107.711C257.422 107.711 257.334 107.723 257.245 107.746C257.157 107.767 257.072 107.794 256.991 107.826C256.922 107.854 256.856 107.887 256.793 107.926C256.729 107.965 256.678 107.999 256.639 108.026H256.612V107.509C256.713 107.458 256.853 107.41 257.032 107.362C257.213 107.313 257.384 107.289 257.545 107.289C257.883 107.289 258.149 107.379 258.341 107.56C258.533 107.739 258.629 107.982 258.629 108.29C258.629 108.432 258.612 108.563 258.578 108.683C258.545 108.804 258.5 108.915 258.441 109.018C258.381 109.123 258.308 109.228 258.224 109.333C258.139 109.437 258.049 109.539 257.955 109.64C257.802 109.806 257.631 109.979 257.442 110.158C257.255 110.337 257.105 110.478 256.993 110.583H258.78V111ZM261.468 109.843C261.468 110.019 261.44 110.181 261.383 110.331C261.327 110.481 261.249 110.61 261.148 110.719C261.046 110.83 260.918 110.917 260.765 110.98C260.614 111.044 260.444 111.076 260.255 111.076C260.081 111.076 259.909 111.056 259.74 111.017C259.572 110.98 259.426 110.93 259.303 110.868V110.353H259.337C259.374 110.381 259.428 110.412 259.498 110.448C259.568 110.482 259.645 110.515 259.73 110.546C259.826 110.58 259.914 110.607 259.994 110.626C260.073 110.644 260.163 110.653 260.262 110.653C260.36 110.653 260.455 110.636 260.548 110.602C260.641 110.566 260.72 110.509 260.787 110.431C260.847 110.36 260.893 110.276 260.924 110.18C260.956 110.084 260.973 109.971 260.973 109.84C260.973 109.712 260.955 109.606 260.919 109.523C260.885 109.44 260.834 109.372 260.768 109.318C260.698 109.256 260.611 109.213 260.509 109.188C260.408 109.162 260.295 109.149 260.169 109.149C260.038 109.149 259.905 109.16 259.771 109.181C259.638 109.201 259.531 109.219 259.452 109.237V107.365H261.446V107.792H259.923V108.759C259.981 108.752 260.039 108.747 260.096 108.744C260.153 108.741 260.205 108.739 260.252 108.739C260.438 108.739 260.595 108.755 260.724 108.786C260.852 108.817 260.976 108.877 261.095 108.966C261.215 109.057 261.307 109.171 261.371 109.308C261.436 109.445 261.468 109.623 261.468 109.843Z" fill="#8C99B2"/>
<path d="M267.28 111H265.037V110.49C265.198 110.337 265.35 110.19 265.493 110.05C265.636 109.91 265.776 109.765 265.913 109.613C266.19 109.309 266.379 109.066 266.479 108.883C266.58 108.699 266.631 108.51 266.631 108.314C266.631 108.214 266.615 108.125 266.582 108.048C266.551 107.972 266.508 107.908 266.453 107.858C266.396 107.809 266.33 107.772 266.255 107.748C266.18 107.724 266.098 107.711 266.008 107.711C265.922 107.711 265.834 107.723 265.745 107.746C265.657 107.767 265.572 107.794 265.491 107.826C265.422 107.854 265.356 107.887 265.293 107.926C265.229 107.965 265.178 107.999 265.139 108.026H265.112V107.509C265.213 107.458 265.353 107.41 265.532 107.362C265.713 107.313 265.884 107.289 266.045 107.289C266.383 107.289 266.649 107.379 266.841 107.56C267.033 107.739 267.129 107.982 267.129 108.29C267.129 108.432 267.112 108.563 267.078 108.683C267.045 108.804 267 108.915 266.941 109.018C266.881 109.123 266.808 109.228 266.724 109.333C266.639 109.437 266.549 109.539 266.455 109.64C266.302 109.806 266.131 109.979 265.942 110.158C265.755 110.337 265.605 110.478 265.493 110.583H267.28V111ZM270.066 109.821C270.066 110.008 270.035 110.181 269.973 110.338C269.911 110.496 269.828 110.628 269.724 110.734C269.615 110.846 269.493 110.932 269.358 110.99C269.223 111.047 269.074 111.076 268.911 111.076C268.747 111.076 268.597 111.048 268.462 110.993C268.328 110.937 268.21 110.855 268.108 110.746C267.983 110.614 267.884 110.438 267.812 110.219C267.743 109.997 267.708 109.726 267.708 109.403C267.708 109.088 267.74 108.803 267.805 108.549C267.87 108.293 267.97 108.071 268.105 107.882C268.237 107.698 268.407 107.555 268.616 107.453C268.824 107.348 269.065 107.296 269.338 107.296C269.42 107.296 269.495 107.3 269.565 107.309C269.635 107.317 269.697 107.33 269.751 107.348V107.814H269.729C269.685 107.79 269.622 107.768 269.539 107.748C269.456 107.727 269.367 107.716 269.272 107.716C268.97 107.716 268.725 107.819 268.538 108.024C268.352 108.227 268.242 108.53 268.208 108.932C268.324 108.851 268.442 108.788 268.564 108.744C268.687 108.7 268.82 108.678 268.965 108.678C269.106 108.678 269.23 108.693 269.336 108.722C269.443 108.75 269.555 108.807 269.67 108.893C269.804 108.994 269.903 109.122 269.968 109.276C270.033 109.431 270.066 109.612 270.066 109.821ZM269.57 109.84C269.57 109.691 269.551 109.565 269.512 109.464C269.473 109.363 269.409 109.277 269.321 109.206C269.258 109.153 269.185 109.119 269.104 109.103C269.024 109.087 268.942 109.079 268.857 109.079C268.743 109.079 268.633 109.096 268.525 109.13C268.418 109.164 268.312 109.214 268.208 109.279C268.205 109.315 268.202 109.35 268.201 109.384C268.199 109.416 268.198 109.458 268.198 109.508C268.198 109.761 268.223 109.964 268.271 110.119C268.322 110.273 268.384 110.39 268.457 110.47C268.527 110.547 268.599 110.6 268.672 110.631C268.747 110.662 268.827 110.678 268.914 110.678C269.109 110.678 269.267 110.608 269.387 110.468C269.509 110.328 269.57 110.119 269.57 109.84Z" fill="#8C99B2"/>
<path d="M279.28 111H277.037V110.49C277.198 110.337 277.35 110.19 277.493 110.05C277.636 109.91 277.776 109.765 277.913 109.613C278.19 109.309 278.379 109.066 278.479 108.883C278.58 108.699 278.631 108.51 278.631 108.314C278.631 108.214 278.615 108.125 278.582 108.048C278.551 107.972 278.508 107.908 278.453 107.858C278.396 107.809 278.33 107.772 278.255 107.748C278.18 107.724 278.098 107.711 278.008 107.711C277.922 107.711 277.834 107.723 277.745 107.746C277.657 107.767 277.572 107.794 277.491 107.826C277.422 107.854 277.356 107.887 277.293 107.926C277.229 107.965 277.178 107.999 277.139 108.026H277.112V107.509C277.213 107.458 277.353 107.41 277.532 107.362C277.713 107.313 277.884 107.289 278.045 107.289C278.383 107.289 278.649 107.379 278.841 107.56C279.033 107.739 279.129 107.982 279.129 108.29C279.129 108.432 279.112 108.563 279.078 108.683C279.045 108.804 279 108.915 278.941 109.018C278.881 109.123 278.808 109.228 278.724 109.333C278.639 109.437 278.549 109.539 278.455 109.64C278.302 109.806 278.131 109.979 277.942 110.158C277.755 110.337 277.605 110.478 277.493 110.583H279.28V111ZM282.049 107.909L280.477 111H279.957L281.622 107.792H279.742V107.365H282.049V107.909Z" fill="#8C99B2"/>
<path d="M289.28 111H287.037V110.49C287.198 110.337 287.35 110.19 287.493 110.05C287.636 109.91 287.776 109.765 287.913 109.613C288.19 109.309 288.379 109.066 288.479 108.883C288.58 108.699 288.631 108.51 288.631 108.314C288.631 108.214 288.615 108.125 288.582 108.048C288.551 107.972 288.508 107.908 288.453 107.858C288.396 107.809 288.33 107.772 288.255 107.748C288.18 107.724 288.098 107.711 288.008 107.711C287.922 107.711 287.834 107.723 287.745 107.746C287.657 107.767 287.572 107.794 287.491 107.826C287.422 107.854 287.356 107.887 287.293 107.926C287.229 107.965 287.178 107.999 287.139 108.026H287.112V107.509C287.213 107.458 287.353 107.41 287.532 107.362C287.713 107.313 287.884 107.289 288.045 107.289C288.383 107.289 288.649 107.379 288.841 107.56C289.033 107.739 289.129 107.982 289.129 108.29C289.129 108.432 289.112 108.563 289.078 108.683C289.045 108.804 289 108.915 288.941 109.018C288.881 109.123 288.808 109.228 288.724 109.333C288.639 109.437 288.549 109.539 288.455 109.64C288.302 109.806 288.131 109.979 287.942 110.158C287.755 110.337 287.605 110.478 287.493 110.583H289.28V111ZM291.48 108.212C291.48 108.049 291.425 107.913 291.316 107.804C291.207 107.695 291.056 107.641 290.862 107.641C290.685 107.641 290.539 107.689 290.425 107.787C290.313 107.885 290.257 108.017 290.257 108.183C290.257 108.303 290.285 108.405 290.342 108.488C290.401 108.571 290.488 108.646 290.604 108.712C290.654 108.74 290.73 108.778 290.833 108.827C290.937 108.876 291.032 108.914 291.116 108.942C291.258 108.833 291.354 108.721 291.404 108.607C291.455 108.492 291.48 108.36 291.48 108.212ZM291.548 110.033C291.548 109.883 291.519 109.765 291.46 109.677C291.402 109.589 291.289 109.499 291.121 109.408C291.066 109.377 290.992 109.344 290.899 109.308C290.808 109.272 290.704 109.23 290.589 109.181C290.454 109.271 290.35 109.381 290.279 109.513C290.207 109.643 290.171 109.792 290.171 109.96C290.171 110.18 290.237 110.361 290.369 110.504C290.503 110.648 290.669 110.719 290.87 110.719C291.075 110.719 291.239 110.658 291.363 110.536C291.486 110.412 291.548 110.245 291.548 110.033ZM290.865 111.083C290.684 111.083 290.52 111.056 290.372 111.002C290.223 110.949 290.097 110.871 289.993 110.771C289.891 110.673 289.812 110.557 289.759 110.424C289.707 110.289 289.681 110.146 289.681 109.997C289.681 109.8 289.733 109.619 289.837 109.455C289.943 109.289 290.096 109.157 290.296 109.059V109.044C290.117 108.94 289.984 108.826 289.898 108.703C289.812 108.579 289.769 108.424 289.769 108.239C289.769 107.965 289.872 107.737 290.079 107.555C290.285 107.373 290.547 107.282 290.865 107.282C291.195 107.282 291.46 107.369 291.658 107.543C291.858 107.715 291.958 107.937 291.958 108.207C291.958 108.37 291.91 108.531 291.814 108.69C291.72 108.85 291.583 108.974 291.404 109.064V109.079C291.616 109.178 291.776 109.298 291.885 109.44C291.994 109.582 292.049 109.764 292.049 109.987C292.049 110.298 291.936 110.558 291.709 110.768C291.485 110.978 291.203 111.083 290.865 111.083Z" fill="#8C99B2"/>
<path d="M299.28 111H297.037V110.49C297.198 110.337 297.35 110.19 297.493 110.05C297.636 109.91 297.776 109.765 297.913 109.613C298.19 109.309 298.379 109.066 298.479 108.883C298.58 108.699 298.631 108.51 298.631 108.314C298.631 108.214 298.615 108.125 298.582 108.048C298.551 107.972 298.508 107.908 298.453 107.858C298.396 107.809 298.33 107.772 298.255 107.748C298.18 107.724 298.098 107.711 298.008 107.711C297.922 107.711 297.834 107.723 297.745 107.746C297.657 107.767 297.572 107.794 297.491 107.826C297.422 107.854 297.356 107.887 297.293 107.926C297.229 107.965 297.178 107.999 297.139 108.026H297.112V107.509C297.213 107.458 297.353 107.41 297.532 107.362C297.713 107.313 297.884 107.289 298.045 107.289C298.383 107.289 298.649 107.379 298.841 107.56C299.033 107.739 299.129 107.982 299.129 108.29C299.129 108.432 299.112 108.563 299.078 108.683C299.045 108.804 299 108.915 298.941 109.018C298.881 109.123 298.808 109.228 298.724 109.333C298.639 109.437 298.549 109.539 298.455 109.64C298.302 109.806 298.131 109.979 297.942 110.158C297.755 110.337 297.605 110.478 297.493 110.583H299.28V111ZM301.531 108.859C301.531 108.611 301.508 108.41 301.463 108.256C301.417 108.1 301.355 107.979 301.275 107.895C301.203 107.816 301.131 107.763 301.058 107.733C300.984 107.704 300.904 107.689 300.816 107.689C300.616 107.689 300.456 107.761 300.337 107.904C300.219 108.048 300.159 108.255 300.159 108.527C300.159 108.68 300.179 108.806 300.218 108.905C300.257 109.005 300.32 109.09 300.408 109.162C300.47 109.212 300.54 109.246 300.618 109.264C300.696 109.28 300.78 109.289 300.87 109.289C300.974 109.289 301.086 109.271 301.207 109.235C301.327 109.197 301.432 109.149 301.521 109.088C301.523 109.064 301.525 109.032 301.526 108.993C301.53 108.952 301.531 108.908 301.531 108.859ZM299.664 108.546C299.664 108.359 299.694 108.188 299.754 108.034C299.816 107.879 299.9 107.746 300.005 107.633C300.106 107.526 300.229 107.442 300.374 107.382C300.521 107.322 300.669 107.292 300.818 107.292C300.986 107.292 301.137 107.32 301.272 107.377C301.409 107.432 301.527 107.513 301.626 107.619C301.752 107.752 301.849 107.927 301.917 108.144C301.987 108.36 302.022 108.633 302.022 108.964C302.022 109.265 301.988 109.551 301.919 109.821C301.853 110.089 301.753 110.312 301.622 110.49C301.482 110.679 301.313 110.823 301.116 110.922C300.921 111.021 300.679 111.071 300.391 111.071C300.326 111.071 300.257 111.067 300.184 111.059C300.11 111.052 300.042 111.039 299.979 111.02V110.553H300.003C300.044 110.576 300.107 110.598 300.193 110.619C300.28 110.64 300.368 110.651 300.457 110.651C300.776 110.651 301.027 110.546 301.209 110.336C301.391 110.126 301.495 109.826 301.519 109.435C301.389 109.523 301.264 109.587 301.146 109.628C301.028 109.669 300.901 109.689 300.762 109.689C300.627 109.689 300.504 109.674 300.394 109.645C300.283 109.616 300.171 109.559 300.059 109.474C299.929 109.375 299.83 109.25 299.764 109.098C299.697 108.945 299.664 108.761 299.664 108.546Z" fill="#8C99B2"/>
<path d="M307.018 107.711C306.93 107.711 306.842 107.722 306.754 107.743C306.667 107.764 306.58 107.792 306.496 107.826C306.417 107.859 306.349 107.893 306.291 107.929C306.234 107.965 306.182 107.998 306.137 108.029H306.107V107.514C306.213 107.457 306.356 107.405 306.537 107.36C306.719 107.313 306.893 107.289 307.057 107.289C307.222 107.289 307.365 107.306 307.487 107.34C307.611 107.373 307.722 107.424 307.821 107.494C307.929 107.572 308.009 107.667 308.063 107.777C308.118 107.888 308.146 108.017 308.146 108.166C308.146 108.366 308.08 108.542 307.948 108.693C307.816 108.844 307.659 108.94 307.475 108.981V109.015C307.551 109.03 307.632 109.055 307.719 109.091C307.807 109.127 307.888 109.18 307.963 109.25C308.038 109.319 308.099 109.41 308.146 109.521C308.193 109.63 308.217 109.763 308.217 109.921C308.217 110.085 308.188 110.237 308.131 110.375C308.076 110.512 307.997 110.633 307.895 110.739C307.789 110.849 307.661 110.933 307.511 110.99C307.361 111.047 307.191 111.076 307.001 111.076C306.819 111.076 306.638 111.054 306.459 111.01C306.28 110.966 306.129 110.913 306.007 110.851V110.336H306.042C306.144 110.411 306.282 110.482 306.454 110.551C306.627 110.619 306.799 110.653 306.972 110.653C307.071 110.653 307.17 110.638 307.27 110.607C307.37 110.574 307.454 110.522 307.521 110.451C307.586 110.379 307.636 110.3 307.67 110.214C307.704 110.128 307.721 110.019 307.721 109.887C307.721 109.755 307.702 109.647 307.663 109.562C307.625 109.477 307.572 109.411 307.504 109.362C307.436 109.313 307.354 109.28 307.26 109.262C307.167 109.242 307.066 109.232 306.957 109.232H306.75V108.827H306.911C307.13 108.827 307.309 108.775 307.445 108.671C307.584 108.567 307.653 108.415 307.653 108.217C307.653 108.126 307.635 108.048 307.599 107.982C307.563 107.916 307.518 107.863 307.462 107.824C307.401 107.781 307.332 107.752 307.257 107.736C307.182 107.72 307.103 107.711 307.018 107.711ZM311.027 109.181C311.027 109.834 310.932 110.313 310.741 110.619C310.552 110.924 310.26 111.076 309.865 111.076C309.464 111.076 309.171 110.92 308.983 110.609C308.796 110.299 308.703 109.824 308.703 109.186C308.703 108.53 308.797 108.051 308.986 107.748C309.176 107.444 309.469 107.292 309.865 107.292C310.265 107.292 310.559 107.449 310.746 107.763C310.933 108.077 311.027 108.55 311.027 109.181ZM310.402 110.29C310.449 110.169 310.482 110.017 310.502 109.833C310.521 109.649 310.531 109.432 310.531 109.181C310.531 108.932 310.521 108.716 310.502 108.532C310.482 108.348 310.448 108.195 310.399 108.073C310.351 107.949 310.283 107.855 310.197 107.792C310.112 107.727 310.001 107.694 309.865 107.694C309.73 107.694 309.618 107.727 309.53 107.792C309.444 107.855 309.376 107.951 309.325 108.078C309.276 108.201 309.243 108.358 309.225 108.546C309.207 108.735 309.198 108.948 309.198 109.186C309.198 109.44 309.206 109.652 309.22 109.823C309.236 109.994 309.271 110.147 309.323 110.282C309.37 110.408 309.437 110.504 309.523 110.573C309.611 110.639 309.725 110.673 309.865 110.673C310 110.673 310.111 110.641 310.197 110.578C310.285 110.513 310.353 110.417 310.402 110.29Z" fill="#8C99B2"/>
<path d="M316.018 107.711C315.93 107.711 315.842 107.722 315.754 107.743C315.667 107.764 315.58 107.792 315.496 107.826C315.417 107.859 315.349 107.893 315.291 107.929C315.234 107.965 315.182 107.998 315.137 108.029H315.107V107.514C315.213 107.457 315.356 107.405 315.537 107.36C315.719 107.313 315.893 107.289 316.057 107.289C316.222 107.289 316.365 107.306 316.487 107.34C316.611 107.373 316.722 107.424 316.821 107.494C316.929 107.572 317.009 107.667 317.063 107.777C317.118 107.888 317.146 108.017 317.146 108.166C317.146 108.366 317.08 108.542 316.948 108.693C316.816 108.844 316.659 108.94 316.475 108.981V109.015C316.551 109.03 316.632 109.055 316.719 109.091C316.807 109.127 316.888 109.18 316.963 109.25C317.038 109.319 317.099 109.41 317.146 109.521C317.193 109.63 317.217 109.763 317.217 109.921C317.217 110.085 317.188 110.237 317.131 110.375C317.076 110.512 316.997 110.633 316.895 110.739C316.789 110.849 316.661 110.933 316.511 110.99C316.361 111.047 316.191 111.076 316.001 111.076C315.819 111.076 315.638 111.054 315.459 111.01C315.28 110.966 315.129 110.913 315.007 110.851V110.336H315.042C315.144 110.411 315.282 110.482 315.454 110.551C315.627 110.619 315.799 110.653 315.972 110.653C316.071 110.653 316.17 110.638 316.27 110.607C316.37 110.574 316.454 110.522 316.521 110.451C316.586 110.379 316.636 110.3 316.67 110.214C316.704 110.128 316.721 110.019 316.721 109.887C316.721 109.755 316.702 109.647 316.663 109.562C316.625 109.477 316.572 109.411 316.504 109.362C316.436 109.313 316.354 109.28 316.26 109.262C316.167 109.242 316.066 109.232 315.957 109.232H315.75V108.827H315.911C316.13 108.827 316.309 108.775 316.445 108.671C316.584 108.567 316.653 108.415 316.653 108.217C316.653 108.126 316.635 108.048 316.599 107.982C316.563 107.916 316.518 107.863 316.462 107.824C316.401 107.781 316.332 107.752 316.257 107.736C316.182 107.72 316.103 107.711 316.018 107.711ZM319.824 111H318.052V110.629H318.711V108.192H318.052V107.86C318.301 107.86 318.484 107.825 318.601 107.755C318.72 107.684 318.787 107.549 318.801 107.353H319.18V110.629H319.824V111Z" fill="#8C99B2"/>
<path d="M229.28 111H227.037V110.49C227.198 110.337 227.35 110.19 227.493 110.05C227.636 109.91 227.776 109.765 227.913 109.613C228.19 109.309 228.379 109.066 228.479 108.883C228.58 108.699 228.631 108.51 228.631 108.314C228.631 108.214 228.615 108.125 228.582 108.048C228.551 107.972 228.508 107.908 228.453 107.858C228.396 107.809 228.33 107.772 228.255 107.748C228.18 107.724 228.098 107.711 228.008 107.711C227.922 107.711 227.834 107.723 227.745 107.746C227.657 107.767 227.572 107.794 227.491 107.826C227.422 107.854 227.356 107.887 227.293 107.926C227.229 107.965 227.178 107.999 227.139 108.026H227.112V107.509C227.213 107.458 227.353 107.41 227.532 107.362C227.713 107.313 227.884 107.289 228.045 107.289C228.383 107.289 228.649 107.379 228.841 107.56C229.033 107.739 229.129 107.982 229.129 108.29C229.129 108.432 229.112 108.563 229.078 108.683C229.045 108.804 229 108.915 228.941 109.018C228.881 109.123 228.808 109.228 228.724 109.333C228.639 109.437 228.549 109.539 228.455 109.64C228.302 109.806 228.131 109.979 227.942 110.158C227.755 110.337 227.605 110.478 227.493 110.583H229.28V111ZM232.01 111H229.766V110.49C229.927 110.337 230.079 110.19 230.223 110.05C230.366 109.91 230.506 109.765 230.643 109.613C230.919 109.309 231.108 109.066 231.209 108.883C231.31 108.699 231.36 108.51 231.36 108.314C231.36 108.214 231.344 108.125 231.312 108.048C231.281 107.972 231.237 107.908 231.182 107.858C231.125 107.809 231.059 107.772 230.984 107.748C230.91 107.724 230.827 107.711 230.738 107.711C230.652 107.711 230.564 107.723 230.474 107.746C230.386 107.767 230.302 107.794 230.22 107.826C230.152 107.854 230.086 107.887 230.022 107.926C229.959 107.965 229.908 107.999 229.869 108.026H229.842V107.509C229.943 107.458 230.083 107.41 230.262 107.362C230.442 107.313 230.613 107.289 230.774 107.289C231.113 107.289 231.378 107.379 231.57 107.56C231.762 107.739 231.858 107.982 231.858 108.29C231.858 108.432 231.841 108.563 231.807 108.683C231.775 108.804 231.729 108.915 231.67 109.018C231.61 109.123 231.538 109.228 231.453 109.333C231.368 109.437 231.279 109.539 231.185 109.64C231.032 109.806 230.861 109.979 230.672 110.158C230.485 110.337 230.335 110.478 230.223 110.583H232.01V111Z" fill="#5B607D"/>
<path d="M19 76.9519C21.1686 79.3886 24.0199 85.2646 25.636 88.0661C27.3407 91.0201 28.7979 99.386 32.2726 99.9771C34.463 100.35 37.6773 96.0804 38.9089 94.3095C41.7295 90.2531 44.0915 80.5571 45.5455 75.8892C47.4809 69.6758 50.2068 56.9468 52.1818 50.7446C53.6151 46.2436 54.0723 34.2725 58.8181 33.0271C60.9784 32.4601 64.0189 37.1392 65.4544 38.7834C67.4651 41.0863 68.9847 48.5422 72.091 48.9675C74.2932 49.2691 76.9863 44.624 78.7273 43.2999C80.3168 42.0906 84.0357 40.2866 85.3636 38.8166C87.7627 36.161 90.6895 29.5744 91.9999 26.2967C93.4194 22.7465 95.2895 14.5329 98.6364 12.4816C100.033 11.6256 103.664 12.0948 105.273 12.4816C106.97 12.8894 110.592 13.5053 111.909 14.607C114.743 16.9782 116.873 24.3103 118.546 27.5364C120.192 30.7112 123.303 37.1562 125.182 40.2104C126.673 42.6344 129.622 47.628 131.818 49.4989C133.218 50.6912 136.94 51.78 138.455 52.836C140.333 54.1458 143.453 57.4864 145.091 59.0632C146.772 60.6811 149.79 64.2864 151.727 65.6166C153.22 66.641 156.704 67.8807 158.364 68.6339C160.022 69.3862 163.167 71.7335 165 71.6384" stroke="white" stroke-width="0.5"/>
<path d="M19 55V77" stroke="white" stroke-width="0.25413"/>
<path d="M26 55V88" stroke="white" stroke-width="0.25413"/>
<path d="M32 55V100" stroke="white" stroke-width="0.25413"/>
<path d="M39 55V94" stroke="white" stroke-width="0.25413"/>
<path d="M46 55V76" stroke="white" stroke-width="0.25413"/>
<path d="M52 55V50" stroke="white" stroke-width="0.25413"/>
<path d="M59 55V33" stroke="white" stroke-width="0.25413"/>
<path d="M65 55V38" stroke="white" stroke-width="0.25413"/>
<path d="M72 55V49" stroke="white" stroke-width="0.25413"/>
<path d="M79 55V43" stroke="white" stroke-width="0.25413"/>
<path d="M85 55V38" stroke="white" stroke-width="0.25413"/>
<path d="M92 55V26" stroke="white" stroke-width="0.25413"/>
<path d="M98 55V12" stroke="white" stroke-width="0.25413"/>
<path d="M105 55V12" stroke="white" stroke-width="0.25413"/>
<path d="M112 55V14" stroke="white" stroke-width="0.25413"/>
<path d="M118 55V27" stroke="white" stroke-width="0.25413"/>
<path d="M125 55V40" stroke="white" stroke-width="0.25413"/>
<path d="M132 55V49" stroke="white" stroke-width="0.25413"/>
<path d="M138 55V52" stroke="white" stroke-width="0.25413"/>
<path d="M145 55V59" stroke="white" stroke-width="0.25413"/>
<path d="M151 55V65" stroke="white" stroke-width="0.25413"/>
<path d="M158 55V68" stroke="white" stroke-width="0.25413"/>
<path d="M165 55V71" stroke="white" stroke-width="0.25413"/>
<path d="M52.5 51C52.7761 51 53 50.7761 53 50.5C53 50.2239 52.7761 50 52.5 50C52.2239 50 52 50.2239 52 50.5C52 50.7761 52.2239 51 52.5 51Z" fill="#F4A321"/>
<path d="M58.5 33C58.7761 33 59 32.7761 59 32.5C59 32.2239 58.7761 32 58.5 32C58.2239 32 58 32.2239 58 32.5C58 32.7761 58.2239 33 58.5 33Z" fill="#F4A321"/>
<path d="M65.5 39C65.7761 39 66 38.7761 66 38.5C66 38.2239 65.7761 38 65.5 38C65.2239 38 65 38.2239 65 38.5C65 38.7761 65.2239 39 65.5 39Z" fill="#F4A321"/>
<path d="M72.5 49C72.7761 49 73 48.7761 73 48.5C73 48.2239 72.7761 48 72.5 48C72.2239 48 72 48.2239 72 48.5C72 48.7761 72.2239 49 72.5 49Z" fill="#F4A321"/>
<path d="M78.5 43C78.7761 43 79 42.7761 79 42.5C79 42.2239 78.7761 42 78.5 42C78.2239 42 78 42.2239 78 42.5C78 42.7761 78.2239 43 78.5 43Z" fill="#F4A321"/>
<path d="M85.5 39C85.7761 39 86 38.7761 86 38.5C86 38.2239 85.7761 38 85.5 38C85.2239 38 85 38.2239 85 38.5C85 38.7761 85.2239 39 85.5 39Z" fill="#F4A321"/>
<path d="M91.5 26C91.7761 26 92 25.7761 92 25.5C92 25.2239 91.7761 25 91.5 25C91.2239 25 91 25.2239 91 25.5C91 25.7761 91.2239 26 91.5 26Z" fill="#F4A321"/>
<path d="M98.5 12C98.7761 12 99 11.7761 99 11.5C99 11.2239 98.7761 11 98.5 11C98.2239 11 98 11.2239 98 11.5C98 11.7761 98.2239 12 98.5 12Z" fill="#F4A321"/>
<path d="M105.5 12C105.776 12 106 11.7761 106 11.5C106 11.2239 105.776 11 105.5 11C105.224 11 105 11.2239 105 11.5C105 11.7761 105.224 12 105.5 12Z" fill="#F4A321"/>
<path d="M111.5 15C111.776 15 112 14.7761 112 14.5C112 14.2239 111.776 14 111.5 14C111.224 14 111 14.2239 111 14.5C111 14.7761 111.224 15 111.5 15Z" fill="#F4A321"/>
<path d="M118.5 27C118.776 27 119 26.7761 119 26.5C119 26.2239 118.776 26 118.5 26C118.224 26 118 26.2239 118 26.5C118 26.7761 118.224 27 118.5 27Z" fill="#F4A321"/>
<path d="M124.5 40C124.776 40 125 39.7761 125 39.5C125 39.2239 124.776 39 124.5 39C124.224 39 124 39.2239 124 39.5C124 39.7761 124.224 40 124.5 40Z" fill="#F4A321"/>
<path d="M131.5 50C131.776 50 132 49.7761 132 49.5C132 49.2239 131.776 49 131.5 49C131.224 49 131 49.2239 131 49.5C131 49.7761 131.224 50 131.5 50Z" fill="#F4A321"/>
<path d="M138.5 53C138.776 53 139 52.7761 139 52.5C139 52.2239 138.776 52 138.5 52C138.224 52 138 52.2239 138 52.5C138 52.7761 138.224 53 138.5 53Z" fill="#F4A321"/>
<path d="M19.3221 77.6784C19.9133 77.6784 20.3925 77.2009 20.3925 76.6119C20.3925 76.0229 19.9133 75.5454 19.3221 75.5454C18.7309 75.5454 18.2517 76.0229 18.2517 76.6119C18.2517 77.2009 18.7309 77.6784 19.3221 77.6784Z" stroke="#A2E2FF" stroke-width="0.4"/>
<path d="M19.3221 77.1451C19.6176 77.1451 19.8573 76.9063 19.8573 76.6119C19.8573 76.3174 19.6176 76.0786 19.3221 76.0786C19.0265 76.0786 18.7869 76.3174 18.7869 76.6119C18.7869 76.9063 19.0265 77.1451 19.3221 77.1451Z" fill="white"/>
<path d="M25.9232 88.9645C26.5143 88.9645 26.9936 88.487 26.9936 87.898C26.9936 87.309 26.5143 86.8315 25.9232 86.8315C25.332 86.8315 24.8528 87.309 24.8528 87.898C24.8528 88.487 25.332 88.9645 25.9232 88.9645Z" stroke="#A2E2FF" stroke-width="0.4"/>
<path d="M25.9231 88.4312C26.2187 88.4312 26.4583 88.1925 26.4583 87.898C26.4583 87.6035 26.2187 87.3647 25.9231 87.3647C25.6276 87.3647 25.3879 87.6035 25.3879 87.898C25.3879 88.1925 25.6276 88.4312 25.9231 88.4312Z" fill="white"/>
<path d="M32.5242 100.941C33.1154 100.941 33.5946 100.463 33.5946 99.8741C33.5946 99.2851 33.1154 98.8076 32.5242 98.8076C31.9331 98.8076 31.4539 99.2851 31.4539 99.8741C31.4539 100.463 31.9331 100.941 32.5242 100.941Z" stroke="#A2E2FF" stroke-width="0.4"/>
<path d="M32.5242 100.407C32.8198 100.407 33.0594 100.169 33.0594 99.8741C33.0594 99.5796 32.8198 99.3408 32.5242 99.3408C32.2286 99.3408 31.989 99.5796 31.989 99.8741C31.989 100.169 32.2286 100.407 32.5242 100.407Z" fill="white"/>
<path d="M39.1253 95.1691C39.7165 95.1691 40.1957 94.6916 40.1957 94.1026C40.1957 93.5136 39.7165 93.0361 39.1253 93.0361C38.5342 93.0361 38.0549 93.5136 38.0549 94.1026C38.0549 94.6916 38.5342 95.1691 39.1253 95.1691Z" stroke="#A2E2FF" stroke-width="0.4"/>
<path d="M39.1255 94.6358C39.4211 94.6358 39.6607 94.3971 39.6607 94.1026C39.6607 93.8081 39.4211 93.5693 39.1255 93.5693C38.8299 93.5693 38.5903 93.8081 38.5903 94.1026C38.5903 94.3971 38.8299 94.6358 39.1255 94.6358Z" fill="white"/>
<path d="M45.7264 76.9562C46.3176 76.9562 46.7968 76.4787 46.7968 75.8897C46.7968 75.3007 46.3176 74.8232 45.7264 74.8232C45.1352 74.8232 44.656 75.3007 44.656 75.8897C44.656 76.4787 45.1352 76.9562 45.7264 76.9562Z" stroke="#A2E2FF" stroke-width="0.4"/>
<path d="M45.7264 76.4229C46.0219 76.4229 46.2615 76.1842 46.2615 75.8897C46.2615 75.5952 46.0219 75.3564 45.7264 75.3564C45.4308 75.3564 45.1912 75.5952 45.1912 75.8897C45.1912 76.1842 45.4308 76.4229 45.7264 76.4229Z" fill="white"/>
<path d="M144.717 59.7262C145.309 59.7262 145.788 59.2487 145.788 58.6597C145.788 58.0707 145.309 57.5933 144.717 57.5933C144.126 57.5933 143.647 58.0707 143.647 58.6597C143.647 59.2487 144.126 59.7262 144.717 59.7262Z" stroke="#A2E2FF" stroke-width="0.5"/>
<path d="M144.717 59.1929C145.013 59.1929 145.253 58.9542 145.253 58.6597C145.253 58.3652 145.013 58.1265 144.717 58.1265C144.422 58.1265 144.182 58.3652 144.182 58.6597C144.182 58.9542 144.422 59.1929 144.717 59.1929Z" fill="white"/>
<path d="M151.32 66.362C151.911 66.362 152.39 65.8845 152.39 65.2955C152.39 64.7065 151.911 64.229 151.32 64.229C150.729 64.229 150.25 64.7065 150.25 65.2955C150.25 65.8845 150.729 66.362 151.32 66.362Z" stroke="#A2E2FF" stroke-width="0.5"/>
<path d="M151.32 65.8287C151.616 65.8287 151.855 65.5899 151.855 65.2954C151.855 65.0009 151.616 64.7622 151.32 64.7622C151.025 64.7622 150.785 65.0009 150.785 65.2954C150.785 65.5899 151.025 65.8287 151.32 65.8287Z" fill="white"/>
<path d="M157.923 69.4874C158.514 69.4874 158.993 69.01 158.993 68.421C158.993 67.832 158.514 67.3545 157.923 67.3545C157.332 67.3545 156.852 67.832 156.852 68.421C156.852 69.01 157.332 69.4874 157.923 69.4874Z" stroke="#A2E2FF" stroke-width="0.5"/>
<path d="M157.923 68.9542C158.218 68.9542 158.458 68.7154 158.458 68.4209C158.458 68.1264 158.218 67.8877 157.923 67.8877C157.627 67.8877 157.387 68.1264 157.387 68.4209C157.387 68.7154 157.627 68.9542 157.923 68.9542Z" fill="white"/>
<path d="M144.742 55.7257C145.185 55.7257 145.545 55.3676 145.545 54.9258C145.545 54.4841 145.185 54.126 144.742 54.126C144.298 54.126 143.939 54.4841 143.939 54.9258C143.939 55.3676 144.298 55.7257 144.742 55.7257Z" stroke="#A2E2FF" stroke-width="0.5"/>
<path d="M144.742 55.3257C144.963 55.3257 145.143 55.1467 145.143 54.9258C145.143 54.7049 144.963 54.5259 144.742 54.5259C144.52 54.5259 144.34 54.7049 144.34 54.9258C144.34 55.1467 144.52 55.3257 144.742 55.3257Z" fill="#A2E2FF"/>
<path d="M151.343 55.7257C151.786 55.7257 152.146 55.3676 152.146 54.9258C152.146 54.4841 151.786 54.126 151.343 54.126C150.899 54.126 150.54 54.4841 150.54 54.9258C150.54 55.3676 150.899 55.7257 151.343 55.7257Z" stroke="#A2E2FF" stroke-width="0.5"/>
<path d="M151.343 55.3257C151.564 55.3257 151.744 55.1467 151.744 54.9258C151.744 54.7049 151.564 54.5259 151.343 54.5259C151.121 54.5259 150.941 54.7049 150.941 54.9258C150.941 55.1467 151.121 55.3257 151.343 55.3257Z" fill="#A2E2FF"/>
<path d="M157.944 55.7257C158.387 55.7257 158.747 55.3676 158.747 54.9258C158.747 54.4841 158.387 54.126 157.944 54.126C157.501 54.126 157.141 54.4841 157.141 54.9258C157.141 55.3676 157.501 55.7257 157.944 55.7257Z" stroke="#A2E2FF" stroke-width="0.5"/>
<path d="M157.944 55.3257C158.166 55.3257 158.345 55.1467 158.345 54.9258C158.345 54.7049 158.166 54.5259 157.944 54.5259C157.722 54.5259 157.542 54.7049 157.542 54.9258C157.542 55.1467 157.722 55.3257 157.944 55.3257Z" fill="#A2E2FF"/>
<path d="M164.545 55.7257C164.988 55.7257 165.348 55.3676 165.348 54.9258C165.348 54.4841 164.988 54.126 164.545 54.126C164.102 54.126 163.742 54.4841 163.742 54.9258C163.742 55.3676 164.102 55.7257 164.545 55.7257Z" stroke="#A2E2FF" stroke-width="0.5"/>
<path d="M164.545 55.3257C164.767 55.3257 164.946 55.1467 164.946 54.9258C164.946 54.7049 164.767 54.5259 164.545 54.5259C164.323 54.5259 164.144 54.7049 164.144 54.9258C164.144 55.1467 164.323 55.3257 164.545 55.3257Z" fill="#A2E2FF"/>
<path d="M164.5 6C164.776 6 165 5.77614 165 5.5C165 5.22386 164.776 5 164.5 5C164.224 5 164 5.22386 164 5.5C164 5.77614 164.224 6 164.5 6Z" fill="white"/>
<path d="M164.5 105C164.776 105 165 104.776 165 104.5C165 104.224 164.776 104 164.5 104C164.224 104 164 104.224 164 104.5C164 104.776 164.224 105 164.5 105Z" fill="white"/>
<path d="M52.3272 55.7257C52.7706 55.7257 53.13 55.3676 53.13 54.9258C53.13 54.4841 52.7706 54.126 52.3272 54.126C51.8838 54.126 51.5244 54.4841 51.5244 54.9258C51.5244 55.3676 51.8838 55.7257 52.3272 55.7257Z" stroke="#A2E2FF" stroke-width="0.4"/>
<path d="M52.3272 55.3257C52.5489 55.3257 52.7286 55.1467 52.7286 54.9258C52.7286 54.7049 52.5489 54.5259 52.3272 54.5259C52.1055 54.5259 51.9258 54.7049 51.9258 54.9258C51.9258 55.1467 52.1055 55.3257 52.3272 55.3257Z" fill="#A2E2FF"/>
<path d="M58.9283 55.7257C59.3716 55.7257 59.7311 55.3676 59.7311 54.9258C59.7311 54.4841 59.3716 54.126 58.9283 54.126C58.4849 54.126 58.1255 54.4841 58.1255 54.9258C58.1255 55.3676 58.4849 55.7257 58.9283 55.7257Z" stroke="#A2E2FF" stroke-width="0.4"/>
<path d="M58.9283 55.3257C59.1499 55.3257 59.3296 55.1467 59.3296 54.9258C59.3296 54.7049 59.1499 54.5259 58.9283 54.5259C58.7066 54.5259 58.5269 54.7049 58.5269 54.9258C58.5269 55.1467 58.7066 55.3257 58.9283 55.3257Z" fill="#A2E2FF"/>
<path d="M65.5293 55.7257C65.9727 55.7257 66.3321 55.3676 66.3321 54.9258C66.3321 54.4841 65.9727 54.126 65.5293 54.126C65.086 54.126 64.7266 54.4841 64.7266 54.9258C64.7266 55.3676 65.086 55.7257 65.5293 55.7257Z" stroke="#A2E2FF" stroke-width="0.4"/>
<path d="M65.5293 55.3257C65.751 55.3257 65.9307 55.1467 65.9307 54.9258C65.9307 54.7049 65.751 54.5259 65.5293 54.5259C65.3076 54.5259 65.1279 54.7049 65.1279 54.9258C65.1279 55.1467 65.3076 55.3257 65.5293 55.3257Z" fill="#A2E2FF"/>
<path d="M72.1304 55.7257C72.5738 55.7257 72.9332 55.3676 72.9332 54.9258C72.9332 54.4841 72.5738 54.126 72.1304 54.126C71.6871 54.126 71.3276 54.4841 71.3276 54.9258C71.3276 55.3676 71.6871 55.7257 72.1304 55.7257Z" stroke="#A2E2FF" stroke-width="0.4"/>
<path d="M72.1304 55.3257C72.3521 55.3257 72.5318 55.1467 72.5318 54.9258C72.5318 54.7049 72.3521 54.5259 72.1304 54.5259C71.9087 54.5259 71.729 54.7049 71.729 54.9258C71.729 55.1467 71.9087 55.3257 72.1304 55.3257Z" fill="#A2E2FF"/>
<path d="M78.7313 55.7257C79.1746 55.7257 79.534 55.3676 79.534 54.9258C79.534 54.4841 79.1746 54.126 78.7313 54.126C78.2879 54.126 77.9285 54.4841 77.9285 54.9258C77.9285 55.3676 78.2879 55.7257 78.7313 55.7257Z" stroke="#A2E2FF" stroke-width="0.4"/>
<path d="M78.7312 55.3257C78.9529 55.3257 79.1326 55.1467 79.1326 54.9258C79.1326 54.7049 78.9529 54.5259 78.7312 54.5259C78.5095 54.5259 78.3298 54.7049 78.3298 54.9258C78.3298 55.1467 78.5095 55.3257 78.7312 55.3257Z" fill="#A2E2FF"/>
<path d="M85.3323 55.7257C85.7757 55.7257 86.1351 55.3676 86.1351 54.9258C86.1351 54.4841 85.7757 54.126 85.3323 54.126C84.889 54.126 84.5295 54.4841 84.5295 54.9258C84.5295 55.3676 84.889 55.7257 85.3323 55.7257Z" stroke="#A2E2FF" stroke-width="0.4"/>
<path d="M85.3323 55.3257C85.554 55.3257 85.7337 55.1467 85.7337 54.9258C85.7337 54.7049 85.554 54.5259 85.3323 54.5259C85.1106 54.5259 84.9309 54.7049 84.9309 54.9258C84.9309 55.1467 85.1106 55.3257 85.3323 55.3257Z" fill="#A2E2FF"/>
<path d="M91.9334 55.7257C92.3768 55.7257 92.7362 55.3676 92.7362 54.9258C92.7362 54.4841 92.3768 54.126 91.9334 54.126C91.49 54.126 91.1306 54.4841 91.1306 54.9258C91.1306 55.3676 91.49 55.7257 91.9334 55.7257Z" stroke="#A2E2FF" stroke-width="0.4"/>
<path d="M91.9334 55.3257C92.1551 55.3257 92.3348 55.1467 92.3348 54.9258C92.3348 54.7049 92.1551 54.5259 91.9334 54.5259C91.7117 54.5259 91.532 54.7049 91.532 54.9258C91.532 55.1467 91.7117 55.3257 91.9334 55.3257Z" fill="#A2E2FF"/>
<path d="M98.5345 55.7257C98.9779 55.7257 99.3373 55.3676 99.3373 54.9258C99.3373 54.4841 98.9779 54.126 98.5345 54.126C98.0911 54.126 97.7317 54.4841 97.7317 54.9258C97.7317 55.3676 98.0911 55.7257 98.5345 55.7257Z" stroke="#A2E2FF" stroke-width="0.4"/>
<path d="M98.5344 55.3257C98.7561 55.3257 98.9358 55.1467 98.9358 54.9258C98.9358 54.7049 98.7561 54.5259 98.5344 54.5259C98.3128 54.5259 98.1331 54.7049 98.1331 54.9258C98.1331 55.1467 98.3128 55.3257 98.5344 55.3257Z" fill="#A2E2FF"/>
<path d="M105.136 55.7257C105.579 55.7257 105.938 55.3676 105.938 54.9258C105.938 54.4841 105.579 54.126 105.136 54.126C104.692 54.126 104.333 54.4841 104.333 54.9258C104.333 55.3676 104.692 55.7257 105.136 55.7257Z" stroke="#A2E2FF" stroke-width="0.4"/>
<path d="M105.136 55.3257C105.357 55.3257 105.537 55.1467 105.537 54.9258C105.537 54.7049 105.357 54.5259 105.136 54.5259C104.914 54.5259 104.734 54.7049 104.734 54.9258C104.734 55.1467 104.914 55.3257 105.136 55.3257Z" fill="#A2E2FF"/>
<path d="M111.737 55.7257C112.18 55.7257 112.539 55.3676 112.539 54.9258C112.539 54.4841 112.18 54.126 111.737 54.126C111.293 54.126 110.934 54.4841 110.934 54.9258C110.934 55.3676 111.293 55.7257 111.737 55.7257Z" stroke="#A2E2FF" stroke-width="0.4"/>
<path d="M111.737 55.3257C111.958 55.3257 112.138 55.1467 112.138 54.9258C112.138 54.7049 111.958 54.5259 111.737 54.5259C111.515 54.5259 111.335 54.7049 111.335 54.9258C111.335 55.1467 111.515 55.3257 111.737 55.3257Z" fill="#A2E2FF"/>
<path d="M118.337 55.7257C118.781 55.7257 119.14 55.3676 119.14 54.9258C119.14 54.4841 118.781 54.126 118.337 54.126C117.894 54.126 117.535 54.4841 117.535 54.9258C117.535 55.3676 117.894 55.7257 118.337 55.7257Z" stroke="#A2E2FF" stroke-width="0.4"/>
<path d="M118.337 55.3257C118.559 55.3257 118.739 55.1467 118.739 54.9258C118.739 54.7049 118.559 54.5259 118.337 54.5259C118.116 54.5259 117.936 54.7049 117.936 54.9258C117.936 55.1467 118.116 55.3257 118.337 55.3257Z" fill="#A2E2FF"/>
<path d="M124.939 55.7257C125.382 55.7257 125.741 55.3676 125.741 54.9258C125.741 54.4841 125.382 54.126 124.939 54.126C124.495 54.126 124.136 54.4841 124.136 54.9258C124.136 55.3676 124.495 55.7257 124.939 55.7257Z" stroke="#A2E2FF" stroke-width="0.4"/>
<path d="M124.938 55.3257C125.16 55.3257 125.34 55.1467 125.34 54.9258C125.34 54.7049 125.16 54.5259 124.938 54.5259C124.717 54.5259 124.537 54.7049 124.537 54.9258C124.537 55.1467 124.717 55.3257 124.938 55.3257Z" fill="#A2E2FF"/>
<path d="M131.54 55.7257C131.983 55.7257 132.342 55.3676 132.342 54.9258C132.342 54.4841 131.983 54.126 131.54 54.126C131.096 54.126 130.737 54.4841 130.737 54.9258C130.737 55.3676 131.096 55.7257 131.54 55.7257Z" stroke="#A2E2FF" stroke-width="0.4"/>
<path d="M131.54 55.3257C131.761 55.3257 131.941 55.1467 131.941 54.9258C131.941 54.7049 131.761 54.5259 131.54 54.5259C131.318 54.5259 131.138 54.7049 131.138 54.9258C131.138 55.1467 131.318 55.3257 131.54 55.3257Z" fill="#A2E2FF"/>
<path d="M138.141 55.7257C138.584 55.7257 138.943 55.3676 138.943 54.9258C138.943 54.4841 138.584 54.126 138.141 54.126C137.697 54.126 137.338 54.4841 137.338 54.9258C137.338 55.3676 137.697 55.7257 138.141 55.7257Z" stroke="#A2E2FF" stroke-width="0.4"/>
<path d="M138.141 55.3257C138.362 55.3257 138.542 55.1467 138.542 54.9258C138.542 54.7049 138.362 54.5259 138.141 54.5259C137.919 54.5259 137.739 54.7049 137.739 54.9258C137.739 55.1467 137.919 55.3257 138.141 55.3257Z" fill="#A2E2FF"/>
<path d="M19.3221 55.7257C19.7654 55.7257 20.1249 55.3676 20.1249 54.9258C20.1249 54.4841 19.7654 54.126 19.3221 54.126C18.8787 54.126 18.5193 54.4841 18.5193 54.9258C18.5193 55.3676 18.8787 55.7257 19.3221 55.7257Z" stroke="#A2E2FF" stroke-width="0.4"/>
<path d="M19.322 55.3257C19.5437 55.3257 19.7234 55.1467 19.7234 54.9258C19.7234 54.7049 19.5437 54.5259 19.322 54.5259C19.1004 54.5259 18.9207 54.7049 18.9207 54.9258C18.9207 55.1467 19.1004 55.3257 19.322 55.3257Z" fill="#A2E2FF"/>
<path d="M25.9232 55.7257C26.3665 55.7257 26.7259 55.3676 26.7259 54.9258C26.7259 54.4841 26.3665 54.126 25.9232 54.126C25.4798 54.126 25.1204 54.4841 25.1204 54.9258C25.1204 55.3676 25.4798 55.7257 25.9232 55.7257Z" stroke="#A2E2FF" stroke-width="0.4"/>
<path d="M25.9231 55.3257C26.1448 55.3257 26.3245 55.1467 26.3245 54.9258C26.3245 54.7049 26.1448 54.5259 25.9231 54.5259C25.7014 54.5259 25.5217 54.7049 25.5217 54.9258C25.5217 55.1467 25.7014 55.3257 25.9231 55.3257Z" fill="#A2E2FF"/>
<path d="M32.5242 55.7257C32.9676 55.7257 33.327 55.3676 33.327 54.9258C33.327 54.4841 32.9676 54.126 32.5242 54.126C32.0809 54.126 31.7214 54.4841 31.7214 54.9258C31.7214 55.3676 32.0809 55.7257 32.5242 55.7257Z" stroke="#A2E2FF" stroke-width="0.4"/>
<path d="M32.5242 55.3257C32.7459 55.3257 32.9256 55.1467 32.9256 54.9258C32.9256 54.7049 32.7459 54.5259 32.5242 54.5259C32.3025 54.5259 32.1228 54.7049 32.1228 54.9258C32.1228 55.1467 32.3025 55.3257 32.5242 55.3257Z" fill="#A2E2FF"/>
<path d="M39.1248 55.7257C39.5682 55.7257 39.9276 55.3676 39.9276 54.9258C39.9276 54.4841 39.5682 54.126 39.1248 54.126C38.6814 54.126 38.322 54.4841 38.322 54.9258C38.322 55.3676 38.6814 55.7257 39.1248 55.7257Z" stroke="#A2E2FF" stroke-width="0.4"/>
<path d="M39.1248 55.3257C39.3465 55.3257 39.5262 55.1467 39.5262 54.9258C39.5262 54.7049 39.3465 54.5259 39.1248 54.5259C38.9031 54.5259 38.7234 54.7049 38.7234 54.9258C38.7234 55.1467 38.9031 55.3257 39.1248 55.3257Z" fill="#A2E2FF"/>
<path d="M45.7261 55.7257C46.1695 55.7257 46.5289 55.3676 46.5289 54.9258C46.5289 54.4841 46.1695 54.126 45.7261 54.126C45.2828 54.126 44.9233 54.4841 44.9233 54.9258C44.9233 55.3676 45.2828 55.7257 45.7261 55.7257Z" stroke="#A2E2FF" stroke-width="0.4"/>
<path d="M45.7261 55.3257C45.9478 55.3257 46.1275 55.1467 46.1275 54.9258C46.1275 54.7049 45.9478 54.5259 45.7261 54.5259C45.5044 54.5259 45.3247 54.7049 45.3247 54.9258C45.3247 55.1467 45.5044 55.3257 45.7261 55.3257Z" fill="#A2E2FF"/>
<rect width="3" height="3" transform="matrix(1 0 0 -1 51 52)" stroke="#F4A321" stroke-width="0.419417"/>
<rect x="57" y="31" width="3" height="3" stroke="#F4A321" stroke-width="0.419417"/>
<rect x="64" y="37" width="3" height="3" stroke="#F4A321" stroke-width="0.419417"/>
<rect x="71" y="47" width="3" height="3" stroke="#F4A321" stroke-width="0.419417"/>
<rect x="77" y="41" width="3" height="3" stroke="#F4A321" stroke-width="0.419417"/>
<rect x="84" y="37" width="3" height="3" stroke="#F4A321" stroke-width="0.419417"/>
<rect x="90" y="24" width="3" height="3" stroke="#F4A321" stroke-width="0.419417"/>
<rect x="97" y="10" width="3" height="3" stroke="#F4A321" stroke-width="0.419417"/>
<rect x="104" y="10" width="3" height="3" stroke="#F4A321" stroke-width="0.419417"/>
<rect x="110" y="13" width="3" height="3" stroke="#F4A321" stroke-width="0.419417"/>
<rect x="117" y="25" width="3" height="3" stroke="#F4A321" stroke-width="0.419417"/>
<rect x="123" y="38" width="3" height="3" stroke="#F4A321" stroke-width="0.419417"/>
<rect x="130" y="48" width="3" height="3" stroke="#F4A321" stroke-width="0.419417"/>
<rect x="137" y="51" width="3" height="3" stroke="#F4A321" stroke-width="0.419417"/>
<path d="M164.525 71.9845C164.842 71.9845 165.099 71.7282 165.099 71.4122C165.099 71.0961 164.842 70.8398 164.525 70.8398C164.208 70.8398 163.951 71.0961 163.951 71.4122C163.951 71.7282 164.208 71.9845 164.525 71.9845Z" fill="white"/>
<path opacity="0.2" d="M164.525 72.843C165.318 72.843 165.961 72.2024 165.961 71.4122C165.961 70.622 165.318 69.9814 164.525 69.9814C163.732 69.9814 163.089 70.622 163.089 71.4122C163.089 72.2024 163.732 72.843 164.525 72.843Z" fill="white"/>
<path opacity="0.2" d="M164.525 74.0552C165.99 74.0552 167.178 72.8718 167.178 71.4121C167.178 69.9524 165.99 68.769 164.525 68.769C163.06 68.769 161.872 69.9524 161.872 71.4121C161.872 72.8718 163.06 74.0552 164.525 74.0552Z" fill="url(#paint0_radial)"/>
<path opacity="0.05" d="M164.525 75.6017C166.847 75.6017 168.73 73.7259 168.73 71.4122C168.73 69.0984 166.847 67.2227 164.525 67.2227C162.203 67.2227 160.32 69.0984 160.32 71.4122C160.32 73.7259 162.203 75.6017 164.525 75.6017Z" fill="url(#paint1_radial)"/>
<path opacity="0.5" d="M164.525 72.843C165.318 72.843 165.961 72.2024 165.961 71.4122C165.961 70.622 165.318 69.9814 164.525 69.9814C163.732 69.9814 163.089 70.622 163.089 71.4122C163.089 72.2024 163.732 72.843 164.525 72.843Z" stroke="white"/>
<path d="M165 5V104" stroke="white" stroke-width="0.25"/>
<defs>
<radialGradient id="paint0_radial" cx="0" cy="0" r="1" gradientUnits="userSpaceOnUse" gradientTransform="translate(164.525 71.4121) scale(2.65275 2.64306)">
<stop stop-color="#FFFEFD" stop-opacity="0.01"/>
<stop offset="0.369162" stop-color="#FFFEFD" stop-opacity="0.01"/>
<stop offset="0.503663" stop-color="#FFFEFD" stop-opacity="0.0352941"/>
<stop offset="0.599785" stop-color="#FFFEFD" stop-opacity="0.0823529"/>
<stop offset="0.677684" stop-color="#FFFEFD" stop-opacity="0.14902"/>
<stop offset="0.744445" stop-color="#FFFEFD" stop-opacity="0.235294"/>
<stop offset="0.803651" stop-color="#FFFEFD" stop-opacity="0.341176"/>
<stop offset="0.857264" stop-color="#FFFEFD" stop-opacity="0.466667"/>
<stop offset="0.906544" stop-color="#FFFEFD" stop-opacity="0.615686"/>
<stop offset="0.952374" stop-color="#FFFEFD" stop-opacity="0.788235"/>
<stop offset="0.993169" stop-color="#FFFEFD" stop-opacity="0.968627"/>
<stop offset="1" stop-color="#FFFEFD"/>
</radialGradient>
<radialGradient id="paint1_radial" cx="0" cy="0" r="1" gradientUnits="userSpaceOnUse" gradientTransform="translate(164.525 71.4122) scale(4.20486 4.1895)">
<stop stop-color="#FFFEFD" stop-opacity="0.01"/>
<stop offset="0.369162" stop-color="#FFFEFD" stop-opacity="0.01"/>
<stop offset="0.503663" stop-color="#FFFEFD" stop-opacity="0.0352941"/>
<stop offset="0.599785" stop-color="#FFFEFD" stop-opacity="0.0823529"/>
<stop offset="0.677684" stop-color="#FFFEFD" stop-opacity="0.14902"/>
<stop offset="0.744445" stop-color="#FFFEFD" stop-opacity="0.235294"/>
<stop offset="0.803651" stop-color="#FFFEFD" stop-opacity="0.341176"/>
<stop offset="0.857264" stop-color="#FFFEFD" stop-opacity="0.466667"/>
<stop offset="0.906544" stop-color="#FFFEFD" stop-opacity="0.615686"/>
<stop offset="0.952374" stop-color="#FFFEFD" stop-opacity="0.788235"/>
<stop offset="0.993169" stop-color="#FFFEFD" stop-opacity="0.968627"/>
<stop offset="1" stop-color="#FFFEFD"/>
</radialGradient>
</defs>
</svg>
