<svg id="bd343011-ae78-40eb-9a90-6fafeca60e73" data-name="1" xmlns="http://www.w3.org/2000/svg" viewBox="0 0 324 116.75"><defs><style>.b9418abc-581d-4fc1-b0b1-37ffec7e4c57{font-size:7.42px;fill:#616580;}.b9418abc-581d-4fc1-b0b1-37ffec7e4c57,.e5ae10d1-57e5-4dda-9081-c55c0b2e3252,.f648854d-f023-4293-8822-78be9d6b4b1e{font-family:Tahoma;}.e5ae10d1-57e5-4dda-9081-c55c0b2e3252{font-size:14.84px;fill:#fff;}.b9b8b2cd-12f3-434b-9aae-65f7d4c0e433{fill:#0d1014;fill-opacity:0.2;stroke:#616580;stroke-miterlimit:10;stroke-width:0.34px;}.f23a5939-089c-4b94-8a6d-214eb021a562{fill:#606580;}.accf2d6d-56b4-4423-a872-dd2be9002100,.bd8b04f8-a637-4540-b489-a3ae514d7fba{fill:#a2e2ff;}.bd8b04f8-a637-4540-b489-a3ae514d7fba{opacity:0.3;}.f648854d-f023-4293-8822-78be9d6b4b1e{font-size:8.91px;fill:#8c99b2;}</style></defs><title>сброс</title><text class="b9418abc-581d-4fc1-b0b1-37ffec7e4c57" transform="translate(142.13 29.02)">Сброс произойдет через:</text><text class="e5ae10d1-57e5-4dda-9081-c55c0b2e3252" transform="translate(240.76 29.68) rotate(-0.04)">02 : 23 : 16</text><path class="b9b8b2cd-12f3-434b-9aae-65f7d4c0e433" d="M317.16,46.5H7.63L5.91,44.78V38.73L7.63,37H317.16l1.72,1.72v6.05Z"/><rect class="f23a5939-089c-4b94-8a6d-214eb021a562" x="83.66" y="46.5" width="1.52" height="3.61"/><rect class="f23a5939-089c-4b94-8a6d-214eb021a562" x="161.41" y="46.5" width="1.52" height="3.61"/><rect class="f23a5939-089c-4b94-8a6d-214eb021a562" x="239.23" y="46.5" width="1.37" height="3.61"/><rect class="bd8b04f8-a637-4540-b489-a3ae514d7fba" x="160.73" y="39.49" width="153.81" height="4.35"/><path class="accf2d6d-56b4-4423-a872-dd2be9002100" d="M161.2,44H8.26L6.54,42.29V41.21l1.72-1.72H161.2l1.72,1.72v1.08Z"/><text class="f648854d-f023-4293-8822-78be9d6b4b1e" transform="translate(7.93 29.66)">Сброс на факел</text><text class="b9418abc-581d-4fc1-b0b1-37ffec7e4c57" transform="translate(142.13 75.53)">Сброс произойдет через:</text><text class="e5ae10d1-57e5-4dda-9081-c55c0b2e3252" transform="translate(240.76 76.18) rotate(-0.04)">00 : 12 : 16</text><path class="b9b8b2cd-12f3-434b-9aae-65f7d4c0e433" d="M317.16,93H7.63L5.91,91.28v-6l1.72-1.72H317.16l1.72,1.72v6Z"/><rect class="f23a5939-089c-4b94-8a6d-214eb021a562" x="83.66" y="93.01" width="1.52" height="3.61"/><rect class="f23a5939-089c-4b94-8a6d-214eb021a562" x="161.41" y="93.01" width="1.52" height="3.61"/><rect class="f23a5939-089c-4b94-8a6d-214eb021a562" x="239.23" y="93.01" width="1.37" height="3.61"/><rect class="bd8b04f8-a637-4540-b489-a3ae514d7fba" x="160.73" y="86" width="153.81" height="4.35"/><path class="accf2d6d-56b4-4423-a872-dd2be9002100" d="M283.47,90.52H8.37L6.54,88.7v-.88L8.37,86h275.1l1.82,1.82v.88Z"/><text class="f648854d-f023-4293-8822-78be9d6b4b1e" transform="translate(7.93 76.17)">Сточные воды</text></svg>