<svg id="ffad1f92-4567-4631-a366-0d7b172dfff1" data-name="1" xmlns="http://www.w3.org/2000/svg" viewBox="0 0 324 118"><defs><style>.bff77d9d-3ddf-4694-87da-d11d8ed536d9{font-size:7.86px;}.a5e35a07-7aa2-49bb-8a0f-16cf02bd6b4e,.bff77d9d-3ddf-4694-87da-d11d8ed536d9{fill:#3fa9f5;}.ba2b087c-167b-4256-aab8-801d48611ec7,.bff77d9d-3ddf-4694-87da-d11d8ed536d9{font-family:Tahoma;}.ba2b087c-167b-4256-aab8-801d48611ec7{font-size:9.17px;fill:#fff;}.a8890b35-8fd9-41f8-8b77-48fe15b5f078,.b87253ef-ca41-40f3-8a08-4f2f3b517fb3,.f005c5a9-bcd7-48a3-a4b7-4a23ca5e899e,.f485e2c5-c0ed-48bc-a8b7-4e08b55366f8,.fdbbdf5f-bbee-4ac3-a23b-c82296e21665{fill:none;stroke:#3fa9f5;}.f005c5a9-bcd7-48a3-a4b7-4a23ca5e899e,.f485e2c5-c0ed-48bc-a8b7-4e08b55366f8{stroke-miterlimit:10;}.f485e2c5-c0ed-48bc-a8b7-4e08b55366f8{stroke-width:0.42px;opacity:0.5;}.a8890b35-8fd9-41f8-8b77-48fe15b5f078,.b87253ef-ca41-40f3-8a08-4f2f3b517fb3,.f005c5a9-bcd7-48a3-a4b7-4a23ca5e899e,.fdbbdf5f-bbee-4ac3-a23b-c82296e21665{stroke-linecap:round;}.a8890b35-8fd9-41f8-8b77-48fe15b5f078,.b87253ef-ca41-40f3-8a08-4f2f3b517fb3,.fdbbdf5f-bbee-4ac3-a23b-c82296e21665{stroke-linejoin:round;}.f005c5a9-bcd7-48a3-a4b7-4a23ca5e899e,.fdbbdf5f-bbee-4ac3-a23b-c82296e21665{stroke-width:0.75px;}.b87253ef-ca41-40f3-8a08-4f2f3b517fb3{stroke-width:0.66px;}.a8890b35-8fd9-41f8-8b77-48fe15b5f078{stroke-width:0.4px;}</style></defs><title>Проект1</title><text class="bff77d9d-3ddf-4694-87da-d11d8ed536d9" transform="translate(5 35.63)">Установки</text><text class="ba2b087c-167b-4256-aab8-801d48611ec7" transform="translate(308.1 59.53)">11</text><text class="ba2b087c-167b-4256-aab8-801d48611ec7" transform="translate(283.58 59.53)">-</text><text class="ba2b087c-167b-4256-aab8-801d48611ec7" transform="translate(252.39 59.53)">24</text><text class="ba2b087c-167b-4256-aab8-801d48611ec7" transform="translate(227.88 59.53)">-</text><text class="ba2b087c-167b-4256-aab8-801d48611ec7" transform="translate(200.02 59.53)">-</text><text class="ba2b087c-167b-4256-aab8-801d48611ec7" transform="translate(172.17 59.53)">-</text><text class="ba2b087c-167b-4256-aab8-801d48611ec7" transform="translate(143.48 59.53)">2</text><text class="ba2b087c-167b-4256-aab8-801d48611ec7" transform="translate(311.44 99.34)">-</text><text class="ba2b087c-167b-4256-aab8-801d48611ec7" transform="translate(283.58 99.34)">-</text><text class="ba2b087c-167b-4256-aab8-801d48611ec7" transform="translate(255.73 99.34)">-</text><text class="ba2b087c-167b-4256-aab8-801d48611ec7" transform="translate(227.88 99.34)">-</text><text class="ba2b087c-167b-4256-aab8-801d48611ec7" transform="translate(200.02 99.34)">-</text><text class="ba2b087c-167b-4256-aab8-801d48611ec7" transform="translate(172.17 99.34)">-</text><text class="ba2b087c-167b-4256-aab8-801d48611ec7" transform="translate(144.31 99.34)">-</text><text class="ba2b087c-167b-4256-aab8-801d48611ec7" transform="translate(311.44 79.43)">-</text><text class="ba2b087c-167b-4256-aab8-801d48611ec7" transform="translate(283.58 79.43)">-</text><text class="ba2b087c-167b-4256-aab8-801d48611ec7" transform="translate(255.73 79.43)">-</text><text class="ba2b087c-167b-4256-aab8-801d48611ec7" transform="translate(227.88 79.43)">-</text><text class="ba2b087c-167b-4256-aab8-801d48611ec7" transform="translate(200.02 79.43)">-</text><text class="ba2b087c-167b-4256-aab8-801d48611ec7" transform="translate(172.17 79.43)">-</text><text class="ba2b087c-167b-4256-aab8-801d48611ec7" transform="translate(144.31 79.43)">-</text><text class="ba2b087c-167b-4256-aab8-801d48611ec7" transform="translate(5 80.52)">ЭЛОУ-2</text><text class="ba2b087c-167b-4256-aab8-801d48611ec7" transform="translate(5 60.66)">ЭЛОУ-АВТ-6</text><text class="ba2b087c-167b-4256-aab8-801d48611ec7" transform="translate(5 100.39)">С.100 ЭЛОУ-АВТ-6</text><path class="a5e35a07-7aa2-49bb-8a0f-16cf02bd6b4e" d="M28,21.82h-.77v-.88a1.3,1.3,0,0,0,.51-1V17.7a1.29,1.29,0,0,0-1.08-1.28v-.86a.21.21,0,0,0-.22-.21H24.37a1.17,1.17,0,0,0-1.18,1.17v1.67h-.63a.24.24,0,0,0-.16.07l-.8.93h-.22V14a.21.21,0,0,0-.22-.21H20a.21.21,0,0,0-.22.21v5.21h-.4a.22.22,0,0,0-.22.22v2.41h-.26a.22.22,0,0,0-.22.21v2a.22.22,0,0,0,.22.21H28a.22.22,0,0,0,.22-.21V22A.22.22,0,0,0,28,21.82Zm-4.39-5.3a.74.74,0,0,1,.75-.74h1.87v.64a1.29,1.29,0,0,0-1.09,1.28v2.21a1.3,1.3,0,0,0,.51,1v.88H24.4V18.4a.21.21,0,0,0-.21-.21h-.57ZM20.23,14.2H21v5h-.72Zm-.62,5.42H21.7a.2.2,0,0,0,.16-.07l.8-.93H24v1h-.76a.21.21,0,0,0-.21.22.21.21,0,0,0,.21.21H24v1.75H22.8v-.93a.22.22,0,0,0-.21-.22H21a.22.22,0,0,0-.22.22v.93H19.61Zm2.76,1.48v.72H21.21V21.1Zm3.72.72v-.67a1.12,1.12,0,0,0,.36.05,1,1,0,0,0,.36-.05v.67Zm.36-1.05a.86.86,0,0,1-.87-.86V17.7a.87.87,0,0,1,1.74,0v2.21A.86.86,0,0,1,26.45,20.77Z"/><line class="f485e2c5-c0ed-48bc-a8b7-4e08b55366f8" x1="5" y1="42.19" x2="318.93" y2="42.19"/><path class="a5e35a07-7aa2-49bb-8a0f-16cf02bd6b4e" d="M150.68,30.09a2.61,2.61,0,0,0-.28,0c0-.18,0-.35,0-.51a1,1,0,0,0,0-.3c-.3-1-.6-2-.91-3a4,4,0,0,1-.26-1.53c0-.2-.07-.27-.27-.27h-2.05c-.22,0-.29.06-.29.29v.46c-.25,0-.32.08-.33.2s0,.19.26.26c-.13.39-.25.78-.37,1.18,0,0,0-.05,0-.07,0-.24,0-.48,0-.72s-.07-.27-.27-.27H144.3c-.16,0-.24.08-.24.25v.2a2,2,0,0,1-.11.8c-.12.33-.22.68-.32,1h0s0-.06,0-.1v-.26c0-.21-.06-.27-.27-.27h-.87c-.21,0-.28.06-.27.28a1.59,1.59,0,0,1-.09.61l-.36,1.16a3.55,3.55,0,0,0-.09.47c0,.06,0,.08-.08.08a1.93,1.93,0,0,0-.34,0,.2.2,0,0,0-.18.19.2.2,0,0,0,.15.22h9.48c.16,0,.25-.08.25-.21S150.83,30.09,150.68,30.09Zm-7.36-1a1.87,1.87,0,0,1-.07.22,1.32,1.32,0,0,0-.09.65c0,.08,0,.11-.11.11s-.29,0-.44,0h-.45c-.06,0-.09,0-.08-.08a.76.76,0,0,1,0-.16c.15-.5.31-1,.46-1.5a1.67,1.67,0,0,0,.05-.31c0-.07,0-.1.09-.1h.37s.07,0,.07.05c.06.31.12.61.17.92A.61.61,0,0,1,143.32,29.09Zm2.16,0a.1.1,0,0,1-.12.09c-.21,0-.31.07-.31.22s.09.21.3.22h0V30c0,.08-.06.06-.1.06h-1.48c-.2,0-.19,0-.2-.2a2.09,2.09,0,0,1,.15-.7c.23-.75.47-1.5.69-2.26a1.6,1.6,0,0,0,0-.49c0-.1,0-.13.13-.13.31,0,.62,0,.94,0,.05,0,.11,0,.1.08a6.72,6.72,0,0,0,.18,1.41.26.26,0,0,1,0,.15C145.72,28.32,145.59,28.7,145.48,29.09Zm4.31,1H146c-.13,0-.13,0-.13-.13v-.32h2.71a.24.24,0,0,0,.26-.15.22.22,0,0,0-.22-.28c-.36,0-.71,0-1.07,0h-1.6a.81.81,0,0,1,0-.11c.33-1.09.67-2.18,1-3.26a.12.12,0,0,1,.13-.1H148c.17,0,.26-.08.26-.21s-.1-.22-.26-.22H147V25h1.74a2.61,2.61,0,0,1,0,.28,1.61,1.61,0,0,0,.08.57c.37,1.18.74,2.36,1.09,3.55a1.94,1.94,0,0,1,0,.54C150,30.1,150,30.07,149.79,30.07Z"/><path class="a5e35a07-7aa2-49bb-8a0f-16cf02bd6b4e" d="M143.28,23.8a1.63,1.63,0,0,0,1.72-.6l.07-.08a1.43,1.43,0,0,0,1.5.18,1,1,0,0,0,.06.14,1.41,1.41,0,0,0,1.56.77,1.39,1.39,0,0,0,1.1-1.3,1.37,1.37,0,0,0-.91-1.37.15.15,0,0,1-.11-.13,1.39,1.39,0,0,0-2-.92c-.09,0-.13,0-.2,0a1.38,1.38,0,0,0-2,0,.31.31,0,0,1-.27.11,1.64,1.64,0,0,0-1.76,1.9A1.66,1.66,0,0,0,143.28,23.8Zm.43-2.82a1.2,1.2,0,0,1,1,.55.5.5,0,0,0,.15.14.21.21,0,0,0,.24-.07.23.23,0,0,0,0-.26,1.67,1.67,0,0,0-.58-.57l-.08-.05a.93.93,0,0,1,1.38.12,1.32,1.32,0,0,0-.3.63c0,.1,0,.21,0,.32a.22.22,0,1,0,.43,0,1,1,0,0,1,.91-1,1,1,0,0,1,1,.67l-.23,0a1.22,1.22,0,0,0-.56.27.22.22,0,0,0,0,.35c.09.11.22.09.34,0a.8.8,0,0,1,.61-.2,1,1,0,0,1,.91.87,1,1,0,0,1-1.84.47,1,1,0,0,1-.07-.29c0-.13-.07-.21-.17-.24s-.16,0-.26.12a.84.84,0,0,1-.37.17.93.93,0,0,1-1-.4.61.61,0,0,0-.07-.1.21.21,0,0,0-.27-.06.2.2,0,0,0-.1.27.15.15,0,0,1,0,.17,1.23,1.23,0,0,1-1.41.5,1.22,1.22,0,0,1,.4-2.38Z"/><path class="a5e35a07-7aa2-49bb-8a0f-16cf02bd6b4e" d="M148,27a.77.77,0,1,0,0,1.54.76.76,0,0,0,.77-.76A.77.77,0,0,0,148,27Zm0,1.11a.34.34,0,0,1-.34-.34.34.34,0,1,1,.67,0A.34.34,0,0,1,148,28.1Z"/><path class="a5e35a07-7aa2-49bb-8a0f-16cf02bd6b4e" d="M143.7,23.17c.18,0,.28-.07.28-.21s-.08-.22-.27-.22a.57.57,0,0,1-.55-.51.21.21,0,0,0-.24-.2.22.22,0,0,0-.19.26A1,1,0,0,0,143.7,23.17Z"/><path class="a5e35a07-7aa2-49bb-8a0f-16cf02bd6b4e" d="M254.47,22.73v3.1a.32.32,0,0,0,.19.28l2.66,1.14a.2.2,0,0,0,.11,0,.22.22,0,0,0,.12,0l2.69-1.14a.31.31,0,0,0,.18-.28v-3.1a.28.28,0,0,0,0-.13s0,0,0,0l-.07-.07,0,0h0s0,0,0,0l-2.74-1.16a.33.33,0,0,0-.24,0l-2.6,1.16s0,0,0,0h0l0,0-.06.07a.08.08,0,0,0,0,0,.2.2,0,0,0,0,.11v0Zm1.64-.27,1.91.81-.58.25-1.9-.8Zm-1,.72,2,.86v2.47l-2-.88Zm4.74,2.45-2.08.89V24l.77-.32v.46a.31.31,0,0,0,.61,0v-.71l.7-.29Zm-2.44-3.73,2,.82-.54.23-1.94-.82Z"/><path class="a5e35a07-7aa2-49bb-8a0f-16cf02bd6b4e" d="M261.36,27.57a1,1,0,0,0-.94.69h-2a1,1,0,0,0-1.89,0h-2a1,1,0,1,0,0,.61h2a1,1,0,0,0,1.89,0h2a1,1,0,0,0,1.94-.3A1,1,0,0,0,261.36,27.57Zm-3.91,1.2a.2.2,0,0,1-.21-.2.21.21,0,0,1,.21-.21.21.21,0,1,1,0,.41Zm-3.92.19a.4.4,0,1,1,.39-.39A.39.39,0,0,1,253.53,29Zm7.83,0a.4.4,0,0,1,0-.79.4.4,0,1,1,0,.79Z"/><path class="a5e35a07-7aa2-49bb-8a0f-16cf02bd6b4e" d="M257.45,28.13a.44.44,0,0,0-.44.44.44.44,0,0,0,.44.43.43.43,0,0,0,.43-.43A.44.44,0,0,0,257.45,28.13Z"/><path class="fdbbdf5f-bbee-4ac3-a23b-c82296e21665" d="M282.43,28.7a5.89,5.89,0,0,1,0-8.34"/><path class="fdbbdf5f-bbee-4ac3-a23b-c82296e21665" d="M290.77,20.36a5.91,5.91,0,0,1,0,8.34"/><path class="fdbbdf5f-bbee-4ac3-a23b-c82296e21665" d="M283.91,27.22a3.8,3.8,0,0,1,0-5.37"/><path class="fdbbdf5f-bbee-4ac3-a23b-c82296e21665" d="M289.29,21.85a3.8,3.8,0,0,1,0,5.37"/><path class="f005c5a9-bcd7-48a3-a4b7-4a23ca5e899e" d="M287.77,22.38V26a1.16,1.16,0,0,1-1.16,1.15h0A1.16,1.16,0,0,1,285.46,26V22.38"/><line class="f005c5a9-bcd7-48a3-a4b7-4a23ca5e899e" x1="286.61" y1="27.1" x2="286.61" y2="30.19"/><line class="f005c5a9-bcd7-48a3-a4b7-4a23ca5e899e" x1="287.34" y1="30.19" x2="285.89" y2="30.19"/><path class="fdbbdf5f-bbee-4ac3-a23b-c82296e21665" d="M310.9,20.54a2.6,2.6,0,0,0-.12,3.09,2.3,2.3,0,0,1-.23,2.93"/><path class="fdbbdf5f-bbee-4ac3-a23b-c82296e21665" d="M315.59,20.54a2.61,2.61,0,0,0-.12,3.09,2.3,2.3,0,0,1-.23,2.93"/><path class="fdbbdf5f-bbee-4ac3-a23b-c82296e21665" d="M317.94,20.54a2.61,2.61,0,0,0-.12,3.09,2.3,2.3,0,0,1-.23,2.93"/><path class="fdbbdf5f-bbee-4ac3-a23b-c82296e21665" d="M308.55,20.54a2.61,2.61,0,0,0-.12,3.09,2.3,2.3,0,0,1-.23,2.93"/><path class="fdbbdf5f-bbee-4ac3-a23b-c82296e21665" d="M313.24,20.54a2.6,2.6,0,0,0-.11,3.09,2.29,2.29,0,0,1-.24,2.93"/><polyline class="fdbbdf5f-bbee-4ac3-a23b-c82296e21665" points="307.21 30.01 307.21 28.48 319 28.48 319 30.01"/><path class="fdbbdf5f-bbee-4ac3-a23b-c82296e21665" d="M174.8,26.87l-4.55,4.55a.66.66,0,0,1-.94,0l-.15-.16a.65.65,0,0,1,0-.93l4.55-4.55"/><path class="fdbbdf5f-bbee-4ac3-a23b-c82296e21665" d="M173.06,25.19l-.76.65a.57.57,0,0,1-.76,0v0a.55.55,0,0,1,0-.74l.7-.71"/><path class="fdbbdf5f-bbee-4ac3-a23b-c82296e21665" d="M173.94,22.51l2.42-2.5s1.09-1.26,1.63-1c0,0,1.78.35,2,4l-.21.24-2.36-2.36-2.6,2.54"/><path class="b87253ef-ca41-40f3-8a08-4f2f3b517fb3" d="M173.3,22.59a.31.31,0,0,1,.44,0l1.76,1.76s.34.33-.1.77a.43.43,0,0,0,.06.6l.42.41a.33.33,0,0,1,0,.45l-.38.37a.31.31,0,0,1-.44,0l-2.83-2.83a.32.32,0,0,1,0-.44C172.44,23.45,172.83,23.05,173.3,22.59Z"/><line class="fdbbdf5f-bbee-4ac3-a23b-c82296e21665" x1="175.71" y1="25.96" x2="177.22" y2="24.45"/><ellipse class="a8890b35-8fd9-41f8-8b77-48fe15b5f078" cx="170.05" cy="30.53" rx="0.26" ry="0.13" transform="translate(28.22 129.18) rotate(-45)"/><rect class="a5e35a07-7aa2-49bb-8a0f-16cf02bd6b4e" x="175.35" y="23.25" width="3.38" height="0.76" rx="0.31" transform="translate(285.51 165.53) rotate(-135)"/><path class="a5e35a07-7aa2-49bb-8a0f-16cf02bd6b4e" d="M200.55,26.79l-.4-.2-.2-.1a1.7,1.7,0,0,1-.77-2.09,3.82,3.82,0,0,1,.47-1v0a6.63,6.63,0,0,0,.72-1.5,2,2,0,0,1,.07-.23l.08-.34.2.13.08.05.14.15a10.2,10.2,0,0,1,1.28,1.42,3.5,3.5,0,0,1,.63,1.59,1.79,1.79,0,0,1-.75,1.83,1.66,1.66,0,0,1-.33.16l-.14.07-.16.07-.12-.28.07-.08.09-.12a1.24,1.24,0,0,0,.18-.22,1.76,1.76,0,0,0,0-1.92,2.66,2.66,0,0,0-.33-.44A3.17,3.17,0,0,1,201,25.1l-.22.41-.1-.45a1.42,1.42,0,0,0-.17-.48c-.1.23-.19.45-.28.68a.91.91,0,0,0,.2,1,.27.27,0,0,1,.1.17Zm.43-3.87.31.27A2.78,2.78,0,0,1,202,24a2.1,2.1,0,0,1,.11,2.08,1.5,1.5,0,0,0,.43-1.39,3.05,3.05,0,0,0-.57-1.43,9.87,9.87,0,0,0-1.22-1.36l0,.09a6.62,6.62,0,0,1-.75,1.57v0a3.7,3.7,0,0,0-.44.92,1.43,1.43,0,0,0,.32,1.49,1.26,1.26,0,0,1,.05-.85l.29-.71.11-.26.17-.07.09.07a1.15,1.15,0,0,1,.3.41,2.81,2.81,0,0,0,.19-1.24Zm-.43,1.43h0Z"/><path class="a5e35a07-7aa2-49bb-8a0f-16cf02bd6b4e" d="M201,28.71a4.66,4.66,0,1,1,4.66-4.66A4.66,4.66,0,0,1,201,28.71ZM201,20A4.07,4.07,0,1,0,205,24.05,4.07,4.07,0,0,0,201,20Z"/><path class="a5e35a07-7aa2-49bb-8a0f-16cf02bd6b4e" d="M203.41,31.16h-4.86a1.09,1.09,0,0,1-1.09-1.09V29.2a1.09,1.09,0,0,1,1.09-1.09h4.86a1.09,1.09,0,0,1,1.09,1.09v.87A1.09,1.09,0,0,1,203.41,31.16Zm-4.86-2.45a.49.49,0,0,0-.5.49v.87a.5.5,0,0,0,.5.5h4.86a.5.5,0,0,0,.5-.5V29.2a.49.49,0,0,0-.5-.49Z"/><path class="a5e35a07-7aa2-49bb-8a0f-16cf02bd6b4e" d="M205.1,29.93h-.69v-.59h.69a2,2,0,0,0,2-2V23.94h.59v3.44A2.56,2.56,0,0,1,205.1,29.93Z"/><circle class="a5e35a07-7aa2-49bb-8a0f-16cf02bd6b4e" cx="207.36" cy="23.94" r="0.75"/><path class="fdbbdf5f-bbee-4ac3-a23b-c82296e21665" d="M227,27.64a3.34,3.34,0,0,1,0-4.73"/><path class="fdbbdf5f-bbee-4ac3-a23b-c82296e21665" d="M231.7,22.91a3.37,3.37,0,0,1,0,4.73"/><path class="fdbbdf5f-bbee-4ac3-a23b-c82296e21665" d="M227.81,26.8a2.12,2.12,0,0,1-.63-1.52,2.16,2.16,0,0,1,.63-1.53"/><path class="fdbbdf5f-bbee-4ac3-a23b-c82296e21665" d="M230.86,23.75a2.2,2.2,0,0,1,.63,1.53,2.16,2.16,0,0,1-.63,1.52"/><path class="fdbbdf5f-bbee-4ac3-a23b-c82296e21665" d="M234.11,26.27V21.06c-4,0-4.78-1.68-4.78-1.68s-.83,1.68-4.78,1.68v5.21s-.32,2.5,4.78,4.9C234.44,28.77,234.11,26.27,234.11,26.27Z"/><circle class="a5e35a07-7aa2-49bb-8a0f-16cf02bd6b4e" cx="229.33" cy="25.28" r="0.7"/></svg>