<svg id="f4375cd7-4ade-42ee-8469-0eb5d8f9bedf" data-name="1" xmlns="http://www.w3.org/2000/svg" viewBox="0 0 324 116.75"><defs><style>.a61b8b65-af7b-408f-80cf-5878ed5d339e,.b0e960b6-a687-4f72-94df-637876e09c9a,.b93b0e58-8c69-48cc-ac22-fe665d804881{opacity:0.2;}.b93b0e58-8c69-48cc-ac22-fe665d804881,.e682de83-83d6-468e-a6ac-6bf7bacd711e{font-size:8.77px;}.a61b8b65-af7b-408f-80cf-5878ed5d339e,.a7bd83e7-9ff3-4864-99ef-632b709baadb,.b93b0e58-8c69-48cc-ac22-fe665d804881,.be26b22f-9695-4bd0-8e84-4b590276680f{fill:#5e6581;}.a7bd83e7-9ff3-4864-99ef-632b709baadb,.b93b0e58-8c69-48cc-ac22-fe665d804881,.bee9d920-e0a0-42e4-a031-210ffdf52ce6,.e682de83-83d6-468e-a6ac-6bf7bacd711e{font-family:Tahoma;}.a7bd83e7-9ff3-4864-99ef-632b709baadb,.bee9d920-e0a0-42e4-a031-210ffdf52ce6{font-size:11.12px;}.a61b8b65-af7b-408f-80cf-5878ed5d339e,.a6672111-2606-4ba1-8afd-d0aed06c6ec2,.bb572fbf-38e4-416c-bd14-22338ff3e1de,.fec67792-6953-4817-a99b-f83612091ae7{fill-rule:evenodd;}.bb572fbf-38e4-416c-bd14-22338ff3e1de{fill:#1b1e27;}.bee9d920-e0a0-42e4-a031-210ffdf52ce6,.e682de83-83d6-468e-a6ac-6bf7bacd711e,.fec67792-6953-4817-a99b-f83612091ae7{fill:#fff;}.a6672111-2606-4ba1-8afd-d0aed06c6ec2,.fb64a6eb-e0f1-41ca-8a53-de666cc1d88b{fill:#f4a321;}</style></defs><title>Prew</title><text class="b93b0e58-8c69-48cc-ac22-fe665d804881" transform="translate(25.01 94.11)">Пожарная<tspan x="-7.24" y="10.53">сигнализация</tspan></text><g class="b0e960b6-a687-4f72-94df-637876e09c9a"><text class="a7bd83e7-9ff3-4864-99ef-632b709baadb" transform="translate(42.25 78.97)">0</text></g><path class="a61b8b65-af7b-408f-80cf-5878ed5d339e" d="M45.31,48.63,17.81,76.18a38.93,38.93,0,1,1,54.88.13Z"/><path class="bb572fbf-38e4-416c-bd14-22338ff3e1de" d="M45.31,48.63,25.14,77.85a35.51,35.51,0,1,1,42.2-1.36Z"/><path class="a61b8b65-af7b-408f-80cf-5878ed5d339e" d="M39.9,57A16.92,16.92,0,0,1,37,52.88a9.19,9.19,0,0,1-.55-5.32,11.41,11.41,0,0,1,2.29-4.92A4.73,4.73,0,0,0,40,46.12a8.28,8.28,0,0,1,1.89-6.87,14.13,14.13,0,0,1,6.07-4A4.87,4.87,0,0,0,47.06,40a19.63,19.63,0,0,0,2.24,4.43A9.92,9.92,0,0,1,51,49a15.84,15.84,0,0,0,1.24-2.63,5.2,5.2,0,0,0,.2-2.89A7.4,7.4,0,0,1,54.07,47a12.23,12.23,0,0,1,.18,1.91v.42c0,.64-.06,1.27-.13,1.9a10.49,10.49,0,0,1-1.44,4.42,8.28,8.28,0,0,1-4.33,3.24,13.25,13.25,0,0,1-2.79.2c3.3-.19,5.88-4.12,4-7.26,0-.05,0-.05,0-.1.2,2-.3,3.53-1.25,4.37a4.66,4.66,0,0,0-.44-3.78c-.6-1.14-1.45-2.19-2.09-3.28a5.26,5.26,0,0,1-.85-3.73A6.55,6.55,0,0,0,42.49,49,6.7,6.7,0,0,0,43,53.38,3.29,3.29,0,0,1,41.64,51a4.83,4.83,0,0,0,2,7.81l.49.16A8.72,8.72,0,0,1,39.9,57Z"/><text class="e682de83-83d6-468e-a6ac-6bf7bacd711e" transform="translate(137.63 94.11)">Блокировки<tspan x="-7.78" y="10.53">и сигнализации</tspan></text><text class="bee9d920-e0a0-42e4-a031-210ffdf52ce6" transform="translate(158.43 78.97)">1</text><path class="a6672111-2606-4ba1-8afd-d0aed06c6ec2" d="M161.49,48.63,135,76.18a39.75,39.75,0,0,1-11-27.55c0-21.36,16.9-38.94,37.43-38.94s37.44,17.58,37.44,38.94a39.69,39.69,0,0,1-11,27.6Z"/><path class="fec67792-6953-4817-a99b-f83612091ae7" d="M161.49,48.63,135,76.18a39.75,39.75,0,0,1-11-27.55c0-21.36,16.9-38.94,37.43-38.94s37.44,17.58,37.44,38.94a40.18,40.18,0,0,1-4.5,18.5Z"/><path class="bb572fbf-38e4-416c-bd14-22338ff3e1de" d="M161.49,48.63,138.16,75.4a35.52,35.52,0,1,1,46.48.16Z"/><path class="fb64a6eb-e0f1-41ca-8a53-de666cc1d88b" d="M161.45,37.16a.76.76,0,0,0,.76-.76V33.54a.76.76,0,1,0-1.52,0V36.4A.76.76,0,0,0,161.45,37.16Z"/><path class="fb64a6eb-e0f1-41ca-8a53-de666cc1d88b" d="M165.36,38a.76.76,0,0,0,1-.25l1.48-2.44a.77.77,0,0,0-.26-1.05.75.75,0,0,0-1,.26L165.11,37A.75.75,0,0,0,165.36,38Z"/><path class="fb64a6eb-e0f1-41ca-8a53-de666cc1d88b" d="M172,38.45a.76.76,0,0,0-1.07-.15L168.64,40a.76.76,0,0,0,.91,1.22l2.28-1.72A.75.75,0,0,0,172,38.45Z"/><path class="fb64a6eb-e0f1-41ca-8a53-de666cc1d88b" d="M156.5,37.78a.76.76,0,0,0,1.3-.79l-1.48-2.44a.76.76,0,1,0-1.3.79Z"/><path class="fb64a6eb-e0f1-41ca-8a53-de666cc1d88b" d="M154.42,41.08a.77.77,0,0,0-.15-1.07L152,38.3a.76.76,0,1,0-.92,1.21l2.28,1.72A.76.76,0,0,0,154.42,41.08Z"/><path class="fb64a6eb-e0f1-41ca-8a53-de666cc1d88b" d="M169.8,52.49a2.55,2.55,0,0,0-1.44-.34c0-.19,0-4.77,0-5.09a9.09,9.09,0,0,0-.66-4.44,6.88,6.88,0,0,0-12.46,0,9.16,9.16,0,0,0-.66,4.47c0,.32,0,4.87,0,5.06a2.45,2.45,0,0,0-1.44.34,2.19,2.19,0,0,0-.87.89,2.44,2.44,0,0,0-.3,1.47v1.77h19V54.85a2.53,2.53,0,0,0-.3-1.47A2.33,2.33,0,0,0,169.8,52.49Zm-13.87-6.93a5.53,5.53,0,0,1,10.72-1.9,11.76,11.76,0,0,1,.34,4.07c0,.34,0,4.19,0,4.42h-11C155.9,51.92,155.92,46,155.93,45.56Zm13.68,9.7H153.32c-.12-.6,0-1.53.71-1.72a19.82,19.82,0,0,1,2.46,0h9.93a19.43,19.43,0,0,1,2.44,0,1,1,0,0,1,.67.58A3,3,0,0,1,169.61,55.26Z"/><path class="fb64a6eb-e0f1-41ca-8a53-de666cc1d88b" d="M161.6,42.36a3.15,3.15,0,0,1,3.14,3.14.76.76,0,0,0,1.52,0,4.66,4.66,0,0,0-4.66-4.66h-.08a.75.75,0,0,0-.7.78A.78.78,0,0,0,161.6,42.36Z"/><text class="b93b0e58-8c69-48cc-ac22-fe665d804881" transform="translate(244.93 94.11)">ПИД-регуляторы</text><g class="b0e960b6-a687-4f72-94df-637876e09c9a"><text class="a7bd83e7-9ff3-4864-99ef-632b709baadb" transform="translate(275.62 78.97)">0</text></g><path class="a61b8b65-af7b-408f-80cf-5878ed5d339e" d="M278.69,48.63,251.18,76.18a38.93,38.93,0,1,1,54.89.13Z"/><path class="bb572fbf-38e4-416c-bd14-22338ff3e1de" d="M278.69,48.63,262.05,80a35.51,35.51,0,1,1,36-1.61Z"/><g class="b0e960b6-a687-4f72-94df-637876e09c9a"><path class="be26b22f-9695-4bd0-8e84-4b590276680f" d="M271.47,38.2v7.51a.73.73,0,0,0,.45.67l6.45,2.77a.72.72,0,0,0,.29.06.92.92,0,0,0,.28-.05l6.51-2.77a.73.73,0,0,0,.44-.68V38.18a.71.71,0,0,0-.07-.32l-.06-.07a.5.5,0,0,0-.15-.17s0,0,0,0l-.06,0-.06,0-6.66-2.81a.78.78,0,0,0-.58,0l-6.3,2.81-.06,0-.05,0s0,0,0,0a.75.75,0,0,0-.15.16l-.06.09a.89.89,0,0,0-.07.28v0h0Zm4-.66,4.65,2-1.42.6-4.61-1.94Zm-2.49,1.74,5,2.1v6l-5-2.14Zm11.49,5.95-5,2.14v-6l1.89-.79V41.7a.73.73,0,1,0,1.46,0V40l1.69-.7Zm-5.91-9.06,4.75,2-1.3.54-4.71-2Z"/><path class="be26b22f-9695-4bd0-8e84-4b590276680f" d="M288.18,49.93a2.41,2.41,0,0,0-2.29,1.68H281a2.41,2.41,0,0,0-4.59,0h-4.91a2.42,2.42,0,1,0,0,1.47h4.91a2.41,2.41,0,0,0,4.59,0h4.91a2.41,2.41,0,1,0,2.29-3.15Zm-9.5,2.92a.51.51,0,1,1,.51-.5A.51.51,0,0,1,278.68,52.85Zm-9.49.45a1,1,0,1,1,.95-.95A1,1,0,0,1,269.19,53.3Zm19,0a1,1,0,1,1,1-.95A1,1,0,0,1,288.18,53.3Z"/><path class="be26b22f-9695-4bd0-8e84-4b590276680f" d="M278.69,51.29a1.06,1.06,0,1,0,0,2.11,1.06,1.06,0,0,0,0-2.11Z"/></g></svg>