<?xml version="1.0" encoding="utf-8"?>
<!-- Generator: Adobe Illustrator 23.0.3, SVG Export Plug-In . SVG Version: 6.00 Build 0)  -->
<svg version="1.1" id="Слой_1" xmlns="http://www.w3.org/2000/svg" xmlns:xlink="http://www.w3.org/1999/xlink" x="0px" y="0px"
	 viewBox="0 0 324 116.8" style="enable-background:new 0 0 324 116.8;" xml:space="preserve">
<style type="text/css">
	.st0{opacity:0.1;fill:url(#SVGID_1_);enable-background:new    ;}
	.st1{clip-path:url(#SVGID_3_);}
	.st2{opacity:3.000000e-02;}
	.st3{fill:none;stroke:#FFFFFF;stroke-width:0.5;stroke-miterlimit:10;}
	.st4{fill:#00AA9D;}
	.st5{opacity:0.25;fill:#43A5F1;enable-background:new    ;}
	.st6{fill:#43A5F1;}
	.st7{fill:none;stroke:#F9F7F6;stroke-width:0.5;stroke-miterlimit:10;}
	.st8{fill:#F9F7F6;}
	.st9{opacity:0.8;}
	.st10{fill:url(#SVGID_4_);}
	.st11{fill:#FFFFFF;}
	.st12{font-family:'Tahoma';}
	.st13{font-size:7.89px;}
	.st14{font-size:6.76px;}
</style>
<title>1</title>
<g>
	<g id="e2757cfc-0f2a-41f2-a013-47540423248c">
		
			<linearGradient id="SVGID_1_" gradientUnits="userSpaceOnUse" x1="5.71" y1="59.58" x2="318.11" y2="59.58" gradientTransform="matrix(1 0 0 -1 0 118)">
			<stop  offset="0" style="stop-color:#5B607D"/>
			<stop  offset="0.84" style="stop-color:#5B607D"/>
		</linearGradient>
		<path class="st0" d="M15.7,4.6h292.4c5.5,0,10,4.5,10,10v87.7c0,5.5-4.5,10-10,10H15.7c-5.5,0-10-4.5-10-10V14.6
			C5.7,9.1,10.2,4.6,15.7,4.6z"/>
		<g>
			<defs>
				<path id="SVGID_2_" d="M18.3,4.7h287.3c7.1,0,12.8,5.7,12.8,12.8v82.8c0,7.1-5.7,12.8-12.8,12.8H18.3c-7.1,0-12.8-5.7-12.8-12.8
					V17.5C5.6,10.5,11.3,4.7,18.3,4.7z"/>
			</defs>
			<clipPath id="SVGID_3_">
				<use xlink:href="#SVGID_2_"  style="overflow:visible;"/>
			</clipPath>
			<g class="st1">
				<g class="st2">
					<line class="st3" x1="4.2" y1="4.5" x2="4.2" y2="285.8"/>
					<line class="st3" x1="17.9" y1="4.5" x2="17.9" y2="285.8"/>
					<line class="st3" x1="31.6" y1="4.5" x2="31.6" y2="285.8"/>
					<line class="st3" x1="45.3" y1="4.5" x2="45.3" y2="285.8"/>
					<line class="st3" x1="59" y1="4.5" x2="59" y2="285.8"/>
					<line class="st3" x1="72.7" y1="4.5" x2="72.7" y2="285.8"/>
					<line class="st3" x1="86.4" y1="4.5" x2="86.4" y2="285.8"/>
					<line class="st3" x1="100.1" y1="4.5" x2="100.1" y2="285.8"/>
					<line class="st3" x1="113.7" y1="4.5" x2="113.7" y2="285.8"/>
					<line class="st3" x1="127.4" y1="4.5" x2="127.4" y2="285.8"/>
					<line class="st3" x1="141.1" y1="4.5" x2="141.1" y2="285.8"/>
					<line class="st3" x1="154.8" y1="4.5" x2="154.8" y2="285.8"/>
					<line class="st3" x1="168.5" y1="4.5" x2="168.5" y2="285.8"/>
					<line class="st3" x1="182.2" y1="4.5" x2="182.2" y2="285.8"/>
					<line class="st3" x1="195.9" y1="4.5" x2="195.9" y2="285.8"/>
					<line class="st3" x1="209.6" y1="4.5" x2="209.6" y2="285.8"/>
					<line class="st3" x1="223.2" y1="4.5" x2="223.2" y2="285.8"/>
					<line class="st3" x1="236.9" y1="4.5" x2="236.9" y2="285.8"/>
					<line class="st3" x1="250.6" y1="4.5" x2="250.6" y2="285.8"/>
					<line class="st3" x1="264.3" y1="4.5" x2="264.3" y2="285.8"/>
					<line class="st3" x1="278" y1="4.5" x2="278" y2="285.8"/>
					<line class="st3" x1="291.7" y1="4.5" x2="291.7" y2="285.8"/>
					<line class="st3" x1="305.4" y1="4.5" x2="305.4" y2="285.8"/>
					<line class="st3" x1="319" y1="4.5" x2="319" y2="285.8"/>
				</g>
				<g class="st2">
					<line class="st3" x1="319" y1="4.5" x2="4.2" y2="4.5"/>
					<line class="st3" x1="319" y1="16.7" x2="4.2" y2="16.7"/>
					<line class="st3" x1="319" y1="29" x2="4.2" y2="29"/>
					<line class="st3" x1="319" y1="41.2" x2="4.2" y2="41.2"/>
					<line class="st3" x1="319" y1="53.4" x2="4.2" y2="53.4"/>
					<line class="st3" x1="319" y1="65.6" x2="4.2" y2="65.6"/>
					<line class="st3" x1="319" y1="77.9" x2="4.2" y2="77.9"/>
					<line class="st3" x1="319" y1="90.1" x2="4.2" y2="90.1"/>
					<line class="st3" x1="319" y1="102.3" x2="4.2" y2="102.3"/>
					<line class="st3" x1="319" y1="114.6" x2="4.2" y2="114.6"/>
				</g>
			</g>
		</g>
		<circle class="st4" cx="80.3" cy="64.7" r="13.8"/>
		<circle class="st3" cx="80.3" cy="64.7" r="11.2"/>
		<circle class="st5" cx="237.8" cy="65" r="16.6"/>
		<circle class="st6" cx="237.8" cy="65" r="13.8"/>
		<circle class="st3" cx="237.8" cy="65" r="11.2"/>
		<line class="st7" x1="91.3" y1="65" x2="220.4" y2="65"/>
		<path class="st8" d="M223.5,65c-1.5,0.6-3,1.4-4.3,2.4L220,65l-0.9-2.4C220.4,63.7,221.9,64.5,223.5,65z"/>
		<g class="st9">
			
				<image style="overflow:visible;opacity:0.2;enable-background:new    ;" width="356" height="68" xlink:href="24B5445.png"  transform="matrix(0.9853 0 0 0.9853 -6.3224 -11.24)">
			</image>
			
				<linearGradient id="SVGID_4_" gradientUnits="userSpaceOnUse" x1="5.71" y1="102.635" x2="318.11" y2="102.635" gradientTransform="matrix(1 0 0 -1 0 118)">
				<stop  offset="0" style="stop-color:#5B607D"/>
				<stop  offset="0.84" style="stop-color:#5B607D"/>
			</linearGradient>
			<path class="st10" d="M17.6,3.5h288.6c6.6,0,11.9,5.3,11.9,11.9v0c0,6.6-5.3,11.9-11.9,11.9H17.6c-6.6,0-11.9-5.3-11.9-11.9v0
				C5.7,8.8,11,3.5,17.6,3.5z"/>
		</g>
		<text transform="matrix(1 0 0 1 21.44 17.71)" class="st11 st12 st13">Оповещение сотрудников при выполненном действии</text>
		<text transform="matrix(1 0 0 1 273.22 17.08)" class="st11 st12 st14">Сохранить</text>
		<path class="st11" d="M243.1,66.3c-0.4-0.2-0.7-0.4-1.1-0.6c-0.3-0.1-0.3-0.2-0.3-0.3v-0.1c0.3,0,0.7-0.1,1-0.3
			c-0.5-0.2-0.6-0.9-0.6-1.5c0-0.6-0.4-1-1-1c-0.2,0-0.4,0-0.6,0.1c0,0.2,0,0.5-0.1,0.7v0.1c0.2,0.3,0.2,0.7,0.1,1
			c-0.1,0.3-0.2,0.6-0.5,0.8c0,0,0,0,0,0.1l0.4,0.1v0.1c0,0.1,0,0.2-0.3,0.3l-0.4,0.2v0.3l0.2,0.1c0.7,0.3,1.3,0.6,1.9,1l0.1,0.1
			c0.4,0,0.8-0.1,1.2-0.2c0.1,0,0.1,0,0.1-0.1C243.4,66.9,243.3,66.6,243.1,66.3z M234.7,67.3c0.6-0.4,1.3-0.7,2-1l0.2-0.1v-0.3
			l-0.3-0.2c-0.3-0.1-0.3-0.2-0.3-0.3v-0.3c0.1-0.1,0.1-0.2,0.1-0.2c-0.1-0.2-0.2-0.3-0.2-0.5c-0.1-0.3,0-0.7,0.1-1
			c0-0.2,0-0.5-0.1-0.8c-0.2-0.1-0.4-0.2-0.6-0.1c-0.3,0-0.6,0.1-0.8,0.2c-0.2,0.2-0.2,0.4-0.2,0.6c0,0.2,0,0.4,0.1,0.6
			c-0.1,0-0.1,0.2-0.1,0.4s0.2,0.4,0.3,0.3c0,0.2,0.1,0.4,0.2,0.5v0.3c0,0.1,0,0.2-0.3,0.3c-0.4,0.1-0.8,0.3-1.1,0.6
			c-0.2,0.3-0.3,0.5-0.3,0.8c0,0,0,0.1,0.1,0.1c0,0,0,0,0,0c0.4,0.1,0.8,0.2,1.2,0.2L234.7,67.3z M239.8,66.7
			c-0.4-0.2-0.5-0.3-0.5-0.5v-0.5c0.2-0.3,0.3-0.6,0.3-0.8c0.1,0,0.4-0.2,0.5-0.6s0-0.7-0.2-0.7s0.1-0.8,0.1-1.1
			c0-0.5-0.2-0.9-0.7-0.9c-0.1-0.2-0.4-0.3-0.9-0.3s-0.9,0.3-1.5,0.3c-0.3,0-0.3,0.4-0.3,0.9s0.1,1.2,0.1,1.2s-0.3,0.4-0.2,0.7
			c0.1,0.4,0.3,0.6,0.5,0.6c0,0.3,0.1,0.6,0.3,0.8v0.5c0,0.2,0,0.3-0.5,0.5c-0.6,0.2-1.2,0.6-1.8,0.9c-0.3,0.4-0.4,0.9-0.5,1.4
			c0,0.1,0,0.1,0.1,0.2c1.2,0.3,2.4,0.4,3.6,0.3c1.2,0,2.5-0.1,3.7-0.3c0.1,0,0.1-0.1,0.1-0.2c0-0.5-0.2-1-0.4-1.4
			C241.1,67.3,240.5,67,239.8,66.7L239.8,66.7z"/>
		<path class="st3" d="M262.2,15.2L262.2,15.2c0-5.1,4.2-9.3,9.3-9.3h34.1c5.1,0,9.3,4.2,9.3,9.3l0,0c0,5.1-4.2,9.3-9.3,9.3h-34.1
			C266.3,24.5,262.2,20.4,262.2,15.2z"/>
		<circle class="st11" cx="91.3" cy="65" r="0.6"/>
		<g id="bfff9a39-e4b2-4d20-9a4b-67f935edcb3c">
			<g id="b6b6da87-49a9-4c5b-b05f-4c4e812084a3">
				<path class="st11" d="M85.5,63v-1.1l-1.3-0.4c-0.1-0.2-0.2-0.5-0.3-0.7l0.7-1.2l-0.8-0.8l-1.3,0.7c-0.2-0.1-0.5-0.2-0.7-0.3
					l-0.4-1.3h-1.1l-0.4,1.3c-0.2,0.1-0.5,0.2-0.7,0.3l-1.2-0.6l-0.8,0.8l0.7,1.2c-0.1,0.2-0.2,0.5-0.3,0.7l-1.3,0.4V63l1.3,0.4
					c0.1,0.2,0.2,0.5,0.3,0.7l-0.7,1.2l0.8,0.8l1.3-0.6c0.2,0.1,0.5,0.2,0.7,0.3l0.4,1.3h1.1l0.4-1.3c0.3-0.1,0.5-0.2,0.7-0.3
					l1.2,0.7l0.8-0.8l-0.7-1.3c0.1-0.2,0.2-0.5,0.3-0.7L85.5,63z M82.5,62.4c0,0.9-0.7,1.7-1.7,1.7c-0.9,0-1.7-0.7-1.7-1.7
					c0-0.9,0.7-1.7,1.7-1.7l0,0C81.8,60.8,82.5,61.5,82.5,62.4C82.5,62.5,82.5,62.5,82.5,62.4L82.5,62.4z"/>
				<path class="st11" d="M79.3,68.5V68l-0.7-0.2c0-0.1-0.1-0.2-0.2-0.3l0.3-0.6l-0.4-0.4l-0.6,0.3c-0.1-0.1-0.2-0.1-0.3-0.2
					l-0.2-0.7h-0.5l-0.2,0.7c-0.1,0-0.2,0.1-0.4,0.2l-0.6-0.3l-0.4,0.4l0.3,0.6c-0.1,0.1-0.1,0.2-0.2,0.3L74.5,68v0.6l0.7,0.2
					c0,0.1,0.1,0.2,0.2,0.3l-0.3,0.6l0.4,0.4l0.6-0.3c0.1,0.1,0.2,0.1,0.4,0.2l0.2,0.7h0.6l0.2-0.7c0.1,0,0.2-0.1,0.3-0.2l0.6,0.3
					l0.4-0.4l-0.3-0.7c0.1-0.1,0.1-0.2,0.2-0.3L79.3,68.5z M77.8,68.3c0,0.5-0.4,0.8-0.8,0.8c-0.5,0-0.8-0.4-0.8-0.8l0,0
					c-0.1-0.5,0.3-0.9,0.8-0.9s0.9,0.3,0.9,0.8C77.8,68.1,77.8,68.2,77.8,68.3z"/>
			</g>
		</g>
	</g>
</g>
</svg>
