<svg xmlns="http://www.w3.org/2000/svg" xmlns:xlink="http://www.w3.org/1999/xlink" viewBox="0 0 324 116.75"><defs><style>.a5fed873-1720-4f73-bced-cecb4e90c7ba,.ac9b1d0d-d1b5-48a9-8ad6-8a1e0c0d3b53,.ebc7db97-7211-401b-a147-84a8c360164f{opacity:0.2;}.ebc7db97-7211-401b-a147-84a8c360164f{fill:url(#b5f48ec0-37fa-4140-bed0-cca34c0b5c5f);}.a8ec6218-b2e9-45a8-9eaf-9a3e6743cce2{font-size:6.21px;fill:#8b95ad;}.a2cfdcaf-0b01-4109-bb1c-4bb58a21ca80,.a8ec6218-b2e9-45a8-9eaf-9a3e6743cce2{font-family:Tahoma;}.b63ea79b-76ae-43a3-af96-a32b699846fc,.eaeeea73-b247-408d-bb56-9ca36cfcac64{stroke:#131822;stroke-miterlimit:10;stroke-width:0.5px;}.eaeeea73-b247-408d-bb56-9ca36cfcac64{fill:none;}.a2cfdcaf-0b01-4109-bb1c-4bb58a21ca80,.a5fed873-1720-4f73-bced-cecb4e90c7ba,.aacf1095-9a53-4a78-bcd9-6f3c8db53060,.b811294d-1c0a-4d1f-812c-27447650edc7,.e4cb35c7-53d2-493c-ba9e-c7520c11a2f1{fill:#fff;}.a2cfdcaf-0b01-4109-bb1c-4bb58a21ca80{font-size:5.08px;}.ac9b1d0d-d1b5-48a9-8ad6-8a1e0c0d3b53{fill:url(#b477b903-336d-4ffc-a843-eeb31e498148);}.aa052adc-fac9-4a6a-ba73-97afdd189ef9{fill:#41a7f3;}.a938d0f6-783b-4d79-81f1-54e39b88dd2b,.bb4a19b9-8768-4c3c-8c53-deeb1e4d36ce{opacity:0.1;}.bb4a19b9-8768-4c3c-8c53-deeb1e4d36ce{fill:url(#eea0d013-0ca4-4a52-bb9e-1fb26b53fed3);}.ba91972b-48e5-4d25-8b60-0a08b2d5a84b{fill:#fffdff;}.aacf1095-9a53-4a78-bcd9-6f3c8db53060{opacity:0.15;}.b811294d-1c0a-4d1f-812c-27447650edc7{opacity:0.25;}.a938d0f6-783b-4d79-81f1-54e39b88dd2b{fill:url(#bbf4444d-98dc-4491-b212-672e9de4f9a9);}</style><linearGradient id="b5f48ec0-37fa-4140-bed0-cca34c0b5c5f" x1="223.17" y1="2.29" x2="223.17" y2="17.56" gradientUnits="userSpaceOnUse"><stop offset="0" stop-color="#5b607d"/><stop offset="0.84" stop-color="#5b607d"/></linearGradient><linearGradient id="b477b903-336d-4ffc-a843-eeb31e498148" x1="64.3" y1="2.29" x2="64.3" y2="17.56" xlink:href="#b5f48ec0-37fa-4140-bed0-cca34c0b5c5f"/><linearGradient id="eea0d013-0ca4-4a52-bb9e-1fb26b53fed3" x1="-1240.59" y1="6013.38" x2="-1240.59" y2="5913.89" gradientTransform="translate(1298.69 -5939.22)" gradientUnits="userSpaceOnUse"><stop offset="0" stop-color="#41a7f3"/><stop offset="0.07" stop-color="#41a7f3"/><stop offset="0.98" stop-color="#41a7f3"/></linearGradient><linearGradient id="bbf4444d-98dc-4491-b212-672e9de4f9a9" x1="-5943.2" y1="328.01" x2="-5943.2" y2="137.76" gradientTransform="translate(6166.97 -194.55)" gradientUnits="userSpaceOnUse"><stop offset="0" stop-color="#41a7f3"/><stop offset="0.14" stop-color="#41a7f3"/><stop offset="1" stop-color="#41a7f3"/></linearGradient></defs><title>Макеты (4)-41</title><g id="a9e57fd1-6d70-4f5b-a9cd-c4acca9a5d7c" data-name="Prew"><path class="ebc7db97-7211-401b-a147-84a8c360164f" d="M127.74,17.56H318.6l0-11c-1.37-1.23-3.89-3.08-5.27-4.3H133L127.76,7Z"/><text class="a8ec6218-b2e9-45a8-9eaf-9a3e6743cce2" transform="translate(164.73 11.8)">Наименование колонны</text><text class="a8ec6218-b2e9-45a8-9eaf-9a3e6743cce2" transform="translate(285.39 12.58)">Тип</text><line class="b63ea79b-76ae-43a3-af96-a32b699846fc" x1="263.88" y1="18.2" x2="263.88" y2="100.65"/><line class="b63ea79b-76ae-43a3-af96-a32b699846fc" x1="319.43" y1="31.35" x2="127.78" y2="31.35"/><line class="b63ea79b-76ae-43a3-af96-a32b699846fc" x1="319.43" y1="45.09" x2="127.78" y2="45.09"/><line class="b63ea79b-76ae-43a3-af96-a32b699846fc" x1="319.43" y1="59.22" x2="127.78" y2="59.22"/><line class="b63ea79b-76ae-43a3-af96-a32b699846fc" x1="319.43" y1="72.96" x2="127.78" y2="72.96"/><line class="eaeeea73-b247-408d-bb56-9ca36cfcac64" x1="319.43" y1="86.7" x2="127.78" y2="86.7"/><line class="b63ea79b-76ae-43a3-af96-a32b699846fc" x1="319.43" y1="100.44" x2="127.78" y2="100.44"/><rect class="e4cb35c7-53d2-493c-ba9e-c7520c11a2f1" x="303.98" y="23.13" width="0.42" height="3.81" rx="0.17" transform="translate(71.39 222.43) rotate(-45)"/><rect class="e4cb35c7-53d2-493c-ba9e-c7520c11a2f1" x="306.42" y="23.13" width="0.42" height="3.81" rx="0.17" transform="translate(107.51 -209.49) rotate(45)"/><text class="a2cfdcaf-0b01-4109-bb1c-4bb58a21ca80" transform="translate(268.83 26.11)">Текст</text><rect class="e4cb35c7-53d2-493c-ba9e-c7520c11a2f1" x="303.98" y="36.48" width="0.42" height="3.81" rx="0.17" transform="translate(61.96 226.34) rotate(-45)"/><rect class="e4cb35c7-53d2-493c-ba9e-c7520c11a2f1" x="306.42" y="36.48" width="0.42" height="3.81" rx="0.17" transform="translate(116.95 -205.58) rotate(45)"/><text class="a2cfdcaf-0b01-4109-bb1c-4bb58a21ca80" transform="translate(268.51 39.45)">Дата</text><path class="ac9b1d0d-d1b5-48a9-8ad6-8a1e0c0d3b53" d="M8,17.56H120.6l0-11c-1.38-1.23-3.89-3.08-5.27-4.3H13.3L8,7Z"/><text class="a8ec6218-b2e9-45a8-9eaf-9a3e6743cce2" transform="translate(24.18 11.8)">Наименование справочника</text><text class="a2cfdcaf-0b01-4109-bb1c-4bb58a21ca80" transform="translate(15.58 39.45)">Установки</text><text class="a2cfdcaf-0b01-4109-bb1c-4bb58a21ca80" transform="translate(140.05 26.11)">ФИО</text><rect class="aa052adc-fac9-4a6a-ba73-97afdd189ef9" x="4.21" y="24.05" width="11.65" height="0.74" transform="translate(34.45 14.39) rotate(90)"/><path class="bb4a19b9-8768-4c3c-8c53-deeb1e4d36ce" d="M53.45-25.33h9.29a1.18,1.18,0,0,1,1.18,1.18V68.43a5.73,5.73,0,0,1-5.73,5.73H58a5.73,5.73,0,0,1-5.73-5.73V-24.15a1.18,1.18,0,0,1,1.18-1.18Z" transform="translate(33.68 82.52) rotate(-90)"/><text class="a2cfdcaf-0b01-4109-bb1c-4bb58a21ca80" transform="translate(15.01 26.11)">Сотрудники</text><rect class="aa052adc-fac9-4a6a-ba73-97afdd189ef9" x="108.69" y="18.53" width="11.65" height="11.78" rx="5.73" transform="translate(138.93 -90.1) rotate(90)"/><path class="ba91972b-48e5-4d25-8b60-0a08b2d5a84b" d="M113.21,23.32H116c0,.05,0,.09,0,.14,0,.33-.07.66-.11,1-.06.6-.13,1.19-.2,1.79a.5.5,0,0,1,0,.13.16.16,0,0,1-.15.1h-1.8c-.1,0-.16-.07-.18-.18s0-.23,0-.35c0-.44-.09-.89-.14-1.34s-.09-.79-.14-1.18Zm.94,2.57h0L114,24.8c0-.2,0-.4-.07-.61s0-.33,0-.5a.13.13,0,1,0-.25,0c0,.42.09.84.14,1.26s.06.61.1.91A.13.13,0,0,0,114,26,.13.13,0,0,0,114.15,25.89Zm1.41-2.15c0-.1,0-.15-.11-.16a.12.12,0,0,0-.14.13l-.09.79-.15,1.37c0,.09,0,.15.1.16a.13.13,0,0,0,.15-.13l.06-.57c0-.34.08-.69.11-1S115.54,23.91,115.56,23.74Zm-.82,1.07h0v-.65c0-.15,0-.3,0-.44s-.07-.16-.15-.14a.15.15,0,0,0-.1.15v2.19a.14.14,0,0,0,.11.11.12.12,0,0,0,.13-.07.28.28,0,0,0,0-.09C114.74,25.52,114.74,25.16,114.74,24.81Z"/><path class="ba91972b-48e5-4d25-8b60-0a08b2d5a84b" d="M114,22.68v-.33c0-.15.08-.22.23-.22h.7a.2.2,0,0,1,.23.22v.33H116a.21.21,0,0,1,.21.13.23.23,0,0,1,0,.24.27.27,0,0,1-.21.09h-2.7A.23.23,0,0,1,113,23a.21.21,0,0,1,.08-.26.39.39,0,0,1,.14-.05H114Zm.32,0h.52v-.22h-.52Z"/><rect class="aacf1095-9a53-4a78-bcd9-6f3c8db53060" x="109.66" y="19.51" width="9.71" height="9.81" rx="4.78" transform="translate(138.93 -90.1) rotate(90)"/><rect class="b811294d-1c0a-4d1f-812c-27447650edc7" x="110.63" y="20.49" width="7.77" height="7.85" rx="3.82" transform="translate(138.93 -90.1) rotate(90)"/><rect class="a5fed873-1720-4f73-bced-cecb4e90c7ba" x="111.6" y="21.47" width="5.82" height="5.89" rx="2.87" transform="translate(138.93 -90.1) rotate(90)"/><rect class="aa052adc-fac9-4a6a-ba73-97afdd189ef9" x="120.8" y="37.83" width="13.35" height="0.79" transform="translate(165.69 -89.25) rotate(90)"/><path class="e4cb35c7-53d2-493c-ba9e-c7520c11a2f1" d="M97.64,25.41v1h1l3-3-1-1Zm4.86-2.8a.26.26,0,0,0,0-.38l-.64-.64a.26.26,0,0,0-.38,0l-.51.49,1,1Z"/><rect class="a938d0f6-783b-4d79-81f1-54e39b88dd2b" x="216.92" y="-56.79" width="13.71" height="190.25" transform="translate(262.11 -185.44) rotate(90)"/><text class="a2cfdcaf-0b01-4109-bb1c-4bb58a21ca80" transform="translate(140.05 39.45)">Дата Рождения</text><path class="e4cb35c7-53d2-493c-ba9e-c7520c11a2f1" d="M251.13,39.93v1h1l3-3-1-1ZM256,37.14a.27.27,0,0,0,0-.39l-.64-.64a.26.26,0,0,0-.38,0l-.51.5,1,1Z"/><path class="e4cb35c7-53d2-493c-ba9e-c7520c11a2f1" d="M251.13,39.93v1h1l3-3-1-1ZM256,37.14a.27.27,0,0,0,0-.39l-.64-.64a.26.26,0,0,0-.38,0l-.51.5,1,1Z"/><text class="a2cfdcaf-0b01-4109-bb1c-4bb58a21ca80" transform="translate(15.08 52.96)">Профессии</text><text class="a2cfdcaf-0b01-4109-bb1c-4bb58a21ca80" transform="translate(15.08 67.9)">Отчеты</text><text class="a2cfdcaf-0b01-4109-bb1c-4bb58a21ca80" transform="translate(268.83 54.46)">Текст</text><text class="a2cfdcaf-0b01-4109-bb1c-4bb58a21ca80" transform="translate(140.05 54.46)">Должность</text><text class="a2cfdcaf-0b01-4109-bb1c-4bb58a21ca80" transform="translate(268.83 67.96)">Текст</text><text class="a2cfdcaf-0b01-4109-bb1c-4bb58a21ca80" transform="translate(140.05 67.96)">Подразделение</text><text class="a2cfdcaf-0b01-4109-bb1c-4bb58a21ca80" transform="translate(268.83 81.8)">Текст</text><text class="a2cfdcaf-0b01-4109-bb1c-4bb58a21ca80" transform="translate(140.05 81.8)">Телефон</text></g></svg>