<?xml version="1.0" encoding="utf-8"?>
<!-- Generator: Adobe Illustrator 23.0.3, SVG Export Plug-In . SVG Version: 6.00 Build 0)  -->
<svg version="1.1" id="Слой_1" xmlns="http://www.w3.org/2000/svg" xmlns:xlink="http://www.w3.org/1999/xlink" x="0px" y="0px"
	 viewBox="0 0 324 116.8" style="enable-background:new 0 0 324 116.8;" xml:space="preserve">
<style type="text/css">
	.st0{opacity:0.75;fill:#272B35;}
	.st1{fill:#272B35;}
	.st2{fill:#FFFFFF;}
	.st3{fill:#3FA9F5;}
	.st4{fill-opacity:0.15;}
	.st5{opacity:0.25;}
	.st6{opacity:0.25;fill:#FFFFFF;enable-background:new    ;}
	.st7{fill:#114B80;}
	.st8{fill:#8C99B2;}
	.st9{fill:none;stroke:#FFFFFF;stroke-width:0.25;}
	.st10{clip-path:url(#SVGID_2_);}
	.st11{opacity:0.21;fill:url(#SVGID_3_);enable-background:new    ;}
	.st12{clip-path:url(#SVGID_5_);}
	.st13{opacity:0.21;fill:url(#SVGID_6_);enable-background:new    ;}
</style>
<path class="st0" d="M313.2,111.8H196.1c-3.3,0-6-2.7-6-6V20.3h129.2v85.5C319.2,109.1,316.5,111.8,313.2,111.8z"/>
<path class="st0" d="M176.4,111.8H10.6c-3.3,0-6-2.7-6-6V20.3h177.7v85.5C182.4,109.1,179.7,111.8,176.4,111.8z"/>
<title>Proekt1</title>
<g>
	<path class="st1" d="M4.4,8.7C4.4,6.1,6.5,4,9.1,4h168.9c2.6,0,4.7,2.1,4.7,4.7v10.1H4.4V8.7z"/>
</g>
<path class="st2" d="M69.4,13.9h-0.7l-1.4-1.8H67v1.8h-0.5v-4H67v1.8c0.2,0,0.4-0.1,0.5-0.2c0.1-0.1,0.2-0.2,0.3-0.4
	c0-0.1,0.1-0.2,0.1-0.2c0-0.1,0-0.1,0.1-0.2c0.1-0.3,0.2-0.5,0.4-0.6C68.5,10,68.7,10,69,10h0.2v0.5h-0.1c-0.2,0-0.4,0-0.5,0.1
	c-0.1,0.1-0.2,0.2-0.2,0.5c-0.1,0.2-0.2,0.4-0.2,0.5c-0.1,0.1-0.2,0.2-0.3,0.3L69.4,13.9z M71.4,13.2v-0.8c-0.1,0-0.3,0-0.5,0
	c-0.2,0-0.3,0-0.4,0.1c-0.1,0-0.2,0.1-0.3,0.2C70.1,12.8,70,12.9,70,13c0,0.2,0,0.3,0.1,0.4s0.2,0.1,0.4,0.1c0.2,0,0.3,0,0.4-0.1
	C71.2,13.4,71.3,13.3,71.4,13.2z M71.4,13.6c0,0-0.1,0.1-0.2,0.1c-0.1,0.1-0.1,0.1-0.2,0.1c-0.1,0-0.2,0.1-0.3,0.1
	c-0.1,0-0.2,0-0.3,0c-0.1,0-0.2,0-0.3-0.1c-0.1,0-0.2-0.1-0.3-0.2c-0.1-0.1-0.1-0.2-0.2-0.3c0-0.1-0.1-0.2-0.1-0.4
	c0-0.2,0-0.4,0.1-0.5c0.1-0.1,0.2-0.3,0.4-0.3c0.2-0.1,0.4-0.1,0.6-0.2c0.2,0,0.5-0.1,0.7-0.1v-0.1c0-0.1,0-0.2-0.1-0.3
	c0-0.1-0.1-0.1-0.1-0.2c-0.1,0-0.1-0.1-0.2-0.1c-0.1,0-0.2,0-0.3,0c-0.1,0-0.3,0-0.4,0.1c-0.2,0-0.3,0.1-0.5,0.1h0V11
	c0.1,0,0.2-0.1,0.4-0.1c0.2,0,0.3,0,0.5,0c0.2,0,0.4,0,0.5,0c0.1,0,0.3,0.1,0.4,0.2c0.1,0.1,0.2,0.2,0.2,0.3
	c0.1,0.1,0.1,0.3,0.1,0.5v2h-0.5V13.6z M74.9,13.9h-0.5v-2.6h-1c0,0.1,0,0.3,0,0.4c0,0.1,0,0.3,0,0.4c0,0.3,0,0.5-0.1,0.7
	c0,0.2-0.1,0.3-0.1,0.5c0,0.1-0.1,0.2-0.1,0.3c0,0.1-0.1,0.1-0.2,0.2c-0.1,0.1-0.1,0.1-0.2,0.1c-0.1,0-0.1,0-0.2,0c0,0-0.1,0-0.1,0
	c0,0-0.1,0-0.1,0v-0.4h0c0,0,0,0,0,0c0,0,0,0,0,0c0,0,0.1,0,0.1,0c0,0,0.1,0,0.1-0.1c0.1-0.1,0.2-0.2,0.2-0.5c0-0.2,0.1-0.5,0.1-0.9
	c0-0.1,0-0.3,0-0.5c0-0.2,0-0.4,0-0.6h2V13.9z M76.9,14c-0.5,0-0.8-0.1-1.1-0.4c-0.3-0.3-0.4-0.6-0.4-1.1c0-0.5,0.1-0.9,0.4-1.2
	c0.3-0.3,0.6-0.4,1-0.4c0.2,0,0.3,0,0.5,0.1c0.1,0.1,0.3,0.1,0.4,0.3c0.1,0.1,0.2,0.3,0.2,0.4C78,11.8,78,12,78,12.2v0.3h-2.1
	c0,0.3,0.1,0.6,0.3,0.8c0.2,0.2,0.4,0.3,0.7,0.3c0.1,0,0.2,0,0.3,0c0.1,0,0.2-0.1,0.3-0.1c0.1,0,0.2-0.1,0.2-0.1
	c0.1,0,0.1-0.1,0.2-0.1h0v0.5c-0.1,0-0.1,0.1-0.2,0.1c-0.1,0-0.2,0.1-0.2,0.1c-0.1,0-0.2,0-0.3,0.1C77.2,14,77.1,14,76.9,14z
	 M77.5,12.1c0-0.1,0-0.3,0-0.3c0-0.1-0.1-0.2-0.1-0.2c-0.1-0.1-0.1-0.1-0.2-0.2c-0.1,0-0.2-0.1-0.3-0.1c-0.1,0-0.2,0-0.3,0.1
	c-0.1,0-0.2,0.1-0.3,0.2c-0.1,0.1-0.1,0.2-0.2,0.3c0,0.1-0.1,0.2-0.1,0.3H77.5z M80.9,13.9h-0.5v-1.3H79v1.3h-0.5v-3H79v1.2h1.4
	v-1.2h0.5V13.9z M84.2,14.6h-0.5v-0.7h-2v0.7h-0.5v-1.1h0.2c0.2-0.3,0.3-0.6,0.4-1.1C82,12,82,11.5,82,10.9h1.8v2.6h0.3V14.6z
	 M83.4,13.5v-2.1h-0.9c0,0.4-0.1,0.9-0.2,1.2c-0.1,0.4-0.2,0.7-0.4,0.9H83.4z M86.3,13.2v-0.8c-0.1,0-0.3,0-0.5,0
	c-0.2,0-0.3,0-0.4,0.1c-0.1,0-0.2,0.1-0.3,0.2C85,12.8,85,12.9,85,13c0,0.2,0,0.3,0.1,0.4s0.2,0.1,0.4,0.1c0.2,0,0.3,0,0.4-0.1
	C86.1,13.4,86.2,13.3,86.3,13.2z M86.3,13.6c0,0-0.1,0.1-0.2,0.1c-0.1,0.1-0.1,0.1-0.2,0.1c-0.1,0-0.2,0.1-0.3,0.1
	c-0.1,0-0.2,0-0.3,0c-0.1,0-0.2,0-0.4-0.1c-0.1,0-0.2-0.1-0.3-0.2c-0.1-0.1-0.1-0.2-0.2-0.3c0-0.1-0.1-0.2-0.1-0.4
	c0-0.2,0-0.4,0.1-0.5c0.1-0.1,0.2-0.3,0.4-0.3c0.2-0.1,0.4-0.1,0.6-0.2c0.2,0,0.5-0.1,0.7-0.1v-0.1c0-0.1,0-0.2-0.1-0.3
	c0-0.1-0.1-0.1-0.1-0.2c-0.1,0-0.1-0.1-0.2-0.1c-0.1,0-0.2,0-0.3,0c-0.1,0-0.3,0-0.4,0.1c-0.2,0-0.3,0.1-0.5,0.1h0V11
	c0.1,0,0.2-0.1,0.4-0.1c0.2,0,0.3,0,0.5,0c0.2,0,0.4,0,0.5,0c0.1,0,0.3,0.1,0.4,0.2c0.1,0.1,0.2,0.2,0.2,0.3
	c0.1,0.1,0.1,0.3,0.1,0.5v2h-0.5V13.6z M90,12.4c0,0.5-0.1,0.9-0.4,1.2c-0.2,0.3-0.5,0.4-0.9,0.4c-0.1,0-0.3,0-0.4-0.1
	c-0.1,0-0.2-0.1-0.4-0.2V15h-0.5v-4.1H88v0.3c0.1-0.1,0.3-0.2,0.4-0.3c0.2-0.1,0.3-0.1,0.5-0.1c0.3,0,0.6,0.1,0.8,0.4
	C89.9,11.5,90,11.9,90,12.4z M89.5,12.4c0-0.3-0.1-0.6-0.2-0.8c-0.1-0.2-0.3-0.3-0.5-0.3c-0.1,0-0.3,0-0.4,0.1
	c-0.1,0.1-0.3,0.1-0.4,0.2v1.7c0.1,0.1,0.2,0.1,0.3,0.1c0.1,0,0.2,0,0.3,0c0.3,0,0.5-0.1,0.6-0.3C89.4,13.1,89.5,12.8,89.5,12.4z
	 M92.8,13c0,0.1,0,0.3-0.1,0.4c-0.1,0.1-0.1,0.2-0.2,0.3c-0.1,0.1-0.2,0.2-0.4,0.2c-0.1,0-0.3,0.1-0.5,0.1h-1v-3H91v1.2h0.6
	c0.2,0,0.4,0,0.5,0c0.1,0,0.2,0.1,0.4,0.2c0.1,0.1,0.2,0.2,0.2,0.3C92.8,12.7,92.8,12.9,92.8,13z M92.3,13c0-0.1,0-0.2,0-0.2
	c0-0.1-0.1-0.1-0.2-0.2c-0.1,0-0.2-0.1-0.3-0.1c-0.1,0-0.2,0-0.4,0H91v1h0.4c0.2,0,0.3,0,0.4,0c0.1,0,0.2,0,0.3-0.1
	c0.1,0,0.1-0.1,0.2-0.2C92.3,13.2,92.3,13.1,92.3,13z M97.6,14.6h-0.5v-0.7h-2v0.7h-0.5v-1.1h0.2c0.2-0.3,0.3-0.6,0.4-1.1
	c0.1-0.4,0.2-0.9,0.2-1.5h1.8v2.6h0.3V14.6z M96.8,13.5v-2.1h-0.9c0,0.4-0.1,0.9-0.2,1.2c-0.1,0.4-0.2,0.7-0.4,0.9H96.8z M99.3,14
	c-0.5,0-0.8-0.1-1.1-0.4c-0.3-0.3-0.4-0.6-0.4-1.1c0-0.5,0.1-0.9,0.4-1.2c0.3-0.3,0.6-0.4,1-0.4c0.2,0,0.3,0,0.5,0.1
	c0.1,0.1,0.3,0.1,0.4,0.3c0.1,0.1,0.2,0.3,0.2,0.4c0.1,0.2,0.1,0.4,0.1,0.6v0.3h-2.1c0,0.3,0.1,0.6,0.3,0.8c0.2,0.2,0.4,0.3,0.7,0.3
	c0.1,0,0.2,0,0.3,0c0.1,0,0.2-0.1,0.3-0.1c0.1,0,0.2-0.1,0.2-0.1c0.1,0,0.1-0.1,0.2-0.1h0v0.5c-0.1,0-0.1,0.1-0.2,0.1
	c-0.1,0-0.2,0.1-0.2,0.1c-0.1,0-0.2,0-0.3,0.1C99.6,14,99.5,14,99.3,14z M99.9,12.1c0-0.1,0-0.3,0-0.3c0-0.1-0.1-0.2-0.1-0.2
	c-0.1-0.1-0.1-0.1-0.2-0.2c-0.1,0-0.2-0.1-0.3-0.1c-0.1,0-0.2,0-0.3,0.1c-0.1,0-0.2,0.1-0.3,0.2c-0.1,0.1-0.1,0.2-0.2,0.3
	c0,0.1-0.1,0.2-0.1,0.3H99.9z M104.6,13.9h-0.6l-0.9-1.4h-0.2v1.4h-0.5v-1.4h-0.2l-1,1.4h-0.6l1.1-1.6c-0.1,0-0.2-0.1-0.2-0.2
	c-0.1-0.1-0.1-0.2-0.2-0.4c0-0.2-0.1-0.3-0.2-0.3c-0.1-0.1-0.2-0.1-0.3-0.1h-0.1v-0.4h0.1c0.2,0,0.4,0,0.5,0.1
	c0.1,0.1,0.3,0.2,0.3,0.5c0,0,0,0.1,0.1,0.2c0,0.1,0,0.1,0.1,0.1c0.1,0.1,0.1,0.2,0.2,0.3c0.1,0.1,0.2,0.1,0.3,0.1v-1.3h0.5v1.3
	c0.1,0,0.2,0,0.3-0.1c0.1-0.1,0.2-0.2,0.2-0.3c0,0,0-0.1,0.1-0.2c0-0.1,0-0.1,0.1-0.2c0.1-0.2,0.2-0.4,0.3-0.5
	c0.1-0.1,0.3-0.1,0.5-0.1h0.1v0.4h-0.1c-0.1,0-0.2,0-0.3,0.1c-0.1,0.1-0.1,0.2-0.2,0.3c0,0.2-0.1,0.3-0.2,0.4
	c-0.1,0.1-0.1,0.2-0.2,0.2L104.6,13.9z M107.3,10.9l-1.6,4.1h-0.5l0.5-1.2l-1.1-2.8h0.5l0.8,2.2l0.8-2.2H107.3z M110.2,12.4
	c0,0.5-0.1,0.9-0.4,1.2c-0.2,0.3-0.5,0.4-0.9,0.4c-0.1,0-0.3,0-0.4-0.1c-0.1,0-0.2-0.1-0.4-0.2V15h-0.5v-4.1h0.5v0.3
	c0.1-0.1,0.3-0.2,0.4-0.3c0.2-0.1,0.3-0.1,0.5-0.1c0.3,0,0.6,0.1,0.8,0.4C110.1,11.5,110.2,11.9,110.2,12.4z M109.6,12.4
	c0-0.3-0.1-0.6-0.2-0.8c-0.1-0.2-0.3-0.3-0.5-0.3c-0.1,0-0.3,0-0.4,0.1c-0.1,0.1-0.3,0.1-0.4,0.2v1.7c0.1,0.1,0.2,0.1,0.3,0.1
	c0.1,0,0.2,0,0.3,0c0.3,0,0.5-0.1,0.6-0.3C109.6,13.1,109.6,12.8,109.6,12.4z M111.9,14c-0.2,0-0.4,0-0.6-0.1
	c-0.2-0.1-0.3-0.2-0.4-0.3c-0.1-0.1-0.2-0.3-0.3-0.5c-0.1-0.2-0.1-0.4-0.1-0.7c0-0.3,0-0.5,0.1-0.7c0.1-0.2,0.2-0.4,0.3-0.5
	c0.1-0.1,0.3-0.2,0.4-0.3c0.2-0.1,0.4-0.1,0.6-0.1c0.2,0,0.3,0,0.5,0.1c0.2,0,0.3,0.1,0.4,0.2v0.6h0c0,0-0.1-0.1-0.1-0.1
	c-0.1,0-0.1-0.1-0.2-0.1c-0.1,0-0.2-0.1-0.2-0.1c-0.1,0-0.2,0-0.3,0c-0.3,0-0.5,0.1-0.6,0.3c-0.2,0.2-0.2,0.5-0.2,0.8
	c0,0.4,0.1,0.6,0.2,0.8c0.2,0.2,0.4,0.3,0.6,0.3c0.2,0,0.3,0,0.5-0.1c0.1-0.1,0.3-0.2,0.4-0.3h0v0.6c0,0-0.1,0.1-0.2,0.1
	c-0.1,0-0.1,0.1-0.2,0.1c-0.1,0-0.2,0-0.2,0.1C112.1,14,112,14,111.9,14z M115.4,11.4h-1v2.5h-0.5v-2.5h-1v-0.4h2.5V11.4z M118.1,13
	c0,0.1,0,0.3-0.1,0.4c-0.1,0.1-0.1,0.2-0.2,0.3c-0.1,0.1-0.2,0.2-0.4,0.2c-0.1,0-0.3,0-0.5,0h-1.2v-3h1.1c0.2,0,0.4,0,0.5,0
	c0.1,0,0.2,0,0.3,0.1c0.1,0.1,0.2,0.1,0.2,0.2c0.1,0.1,0.1,0.2,0.1,0.3c0,0.1,0,0.3-0.1,0.4c-0.1,0.1-0.2,0.2-0.3,0.3l0,0
	c0.2,0,0.3,0.1,0.4,0.2C118,12.7,118.1,12.8,118.1,13z M117.4,11.7c0-0.1,0-0.1,0-0.2c0,0-0.1-0.1-0.1-0.1c-0.1,0-0.1-0.1-0.2-0.1
	c-0.1,0-0.2,0-0.3,0h-0.5v0.8h0.6c0.1,0,0.2,0,0.3,0c0.1,0,0.1,0,0.2-0.1c0.1,0,0.1-0.1,0.1-0.1C117.4,11.9,117.4,11.8,117.4,11.7z
	 M117.6,13c0-0.1,0-0.2,0-0.2c0-0.1-0.1-0.1-0.2-0.2c-0.1,0-0.1,0-0.2-0.1c-0.1,0-0.2,0-0.3,0h-0.6v1h0.4c0.2,0,0.3,0,0.4,0
	c0.1,0,0.2,0,0.3-0.1c0.1,0,0.1-0.1,0.2-0.2C117.6,13.2,117.6,13.1,117.6,13z M120.3,13.2v-0.8c-0.1,0-0.3,0-0.5,0
	c-0.2,0-0.3,0-0.4,0.1c-0.1,0-0.2,0.1-0.3,0.2c-0.1,0.1-0.1,0.2-0.1,0.4c0,0.2,0,0.3,0.1,0.4c0.1,0.1,0.2,0.1,0.4,0.1
	c0.2,0,0.3,0,0.4-0.1C120.1,13.4,120.2,13.3,120.3,13.2z M120.3,13.6c0,0-0.1,0.1-0.2,0.1c-0.1,0.1-0.1,0.1-0.2,0.1
	c-0.1,0-0.2,0.1-0.3,0.1c-0.1,0-0.2,0-0.3,0c-0.1,0-0.2,0-0.3-0.1c-0.1,0-0.2-0.1-0.3-0.2c-0.1-0.1-0.1-0.2-0.2-0.3
	c0-0.1-0.1-0.2-0.1-0.4c0-0.2,0-0.4,0.1-0.5c0.1-0.1,0.2-0.3,0.4-0.3c0.2-0.1,0.4-0.1,0.6-0.2c0.2,0,0.5-0.1,0.7-0.1v-0.1
	c0-0.1,0-0.2-0.1-0.3c0-0.1-0.1-0.1-0.1-0.2c-0.1,0-0.1-0.1-0.2-0.1c-0.1,0-0.2,0-0.3,0c-0.1,0-0.3,0-0.4,0.1
	c-0.2,0-0.3,0.1-0.5,0.1h0V11c0.1,0,0.2-0.1,0.4-0.1c0.2,0,0.3,0,0.5,0c0.2,0,0.4,0,0.5,0c0.1,0,0.3,0.1,0.4,0.2
	c0.1,0.1,0.2,0.2,0.2,0.3c0.1,0.1,0.1,0.3,0.1,0.5v2h-0.5V13.6z"/>
<path class="st2" d="M19.1,51.5h-0.6v-3.9h-2v3.9h-0.6v-4.4h3.2V51.5z M22.6,51.5H22V50h-1.5v1.5h-0.6v-3.3h0.6v1.3H22v-1.3h0.6
	V51.5z"/>
<path class="st2" d="M43.8,50.2c0,0.2,0,0.4-0.1,0.6c-0.1,0.2-0.2,0.3-0.3,0.4c-0.2,0.1-0.3,0.2-0.5,0.3c-0.2,0.1-0.4,0.1-0.7,0.1
	h-1.3v-4.4h1.2c0.3,0,0.6,0,0.7,0c0.2,0,0.3,0.1,0.5,0.1c0.2,0.1,0.3,0.2,0.3,0.3c0.1,0.1,0.1,0.3,0.1,0.5c0,0.2-0.1,0.4-0.2,0.6
	c-0.1,0.2-0.3,0.3-0.5,0.4v0c0.3,0.1,0.5,0.2,0.6,0.4C43.7,49.6,43.8,49.9,43.8,50.2z M42.9,48.2c0-0.1,0-0.2-0.1-0.3
	c0-0.1-0.1-0.1-0.2-0.2c-0.1-0.1-0.2-0.1-0.3-0.1c-0.1,0-0.3,0-0.5,0h-0.6v1.3H42c0.2,0,0.3,0,0.4,0c0.1,0,0.2-0.1,0.3-0.1
	c0.1-0.1,0.2-0.1,0.2-0.2C42.9,48.4,42.9,48.3,42.9,48.2z M43.1,50.2c0-0.2,0-0.3-0.1-0.4c0-0.1-0.1-0.2-0.3-0.3
	c-0.1,0-0.2-0.1-0.3-0.1c-0.1,0-0.3,0-0.5,0h-0.7V51h0.5c0.3,0,0.5,0,0.6,0c0.1,0,0.3-0.1,0.4-0.2c0.1-0.1,0.2-0.2,0.2-0.3
	C43.1,50.5,43.1,50.3,43.1,50.2z M46.7,48.7h-1.1v2.8H45v-2.8h-1.1v-0.5h2.8V48.7z"/>
<path class="st2" d="M66.3,51.6c-0.3,0-0.6,0-0.8-0.1c-0.2-0.1-0.5-0.2-0.6-0.4c-0.2-0.2-0.3-0.4-0.4-0.7c-0.1-0.3-0.1-0.6-0.1-1
	c0-0.4,0-0.7,0.1-1c0.1-0.3,0.2-0.5,0.4-0.7c0.2-0.2,0.4-0.3,0.6-0.5c0.2-0.1,0.5-0.2,0.8-0.2c0.1,0,0.3,0,0.4,0
	c0.1,0,0.3,0,0.4,0.1c0.1,0,0.2,0.1,0.3,0.1c0.1,0,0.2,0.1,0.3,0.1v0.7h0c-0.1,0-0.1-0.1-0.2-0.2c-0.1-0.1-0.2-0.1-0.3-0.2
	c-0.1-0.1-0.2-0.1-0.4-0.2c-0.1,0-0.3-0.1-0.5-0.1c-0.2,0-0.4,0-0.5,0.1c-0.2,0.1-0.3,0.2-0.4,0.3c-0.1,0.2-0.2,0.3-0.3,0.6
	C65,48.8,65,49,65,49.3c0,0.3,0,0.6,0.1,0.8c0.1,0.2,0.2,0.4,0.3,0.6c0.1,0.1,0.3,0.3,0.4,0.3c0.2,0.1,0.3,0.1,0.5,0.1
	c0.2,0,0.3,0,0.5-0.1c0.1,0,0.3-0.1,0.4-0.2c0.1-0.1,0.2-0.1,0.3-0.2c0.1-0.1,0.1-0.1,0.2-0.2h0v0.7c-0.1,0-0.2,0.1-0.3,0.1
	c-0.1,0-0.2,0.1-0.3,0.1c-0.1,0-0.2,0.1-0.4,0.1C66.7,51.6,66.5,51.6,66.3,51.6z M71,49.8c0,0.6-0.1,1-0.4,1.3
	c-0.3,0.3-0.6,0.5-1,0.5c-0.2,0-0.3,0-0.4-0.1c-0.1,0-0.3-0.1-0.4-0.2v1.4h-0.6v-4.5h0.6v0.3c0.1-0.1,0.3-0.2,0.5-0.3
	c0.2-0.1,0.4-0.1,0.6-0.1c0.4,0,0.7,0.2,0.9,0.5C70.9,48.9,71,49.3,71,49.8z M70.4,49.8c0-0.4-0.1-0.7-0.2-0.9
	c-0.1-0.2-0.3-0.3-0.6-0.3c-0.2,0-0.3,0-0.5,0.1c-0.1,0.1-0.3,0.2-0.4,0.3v1.9c0.1,0.1,0.3,0.1,0.4,0.1c0.1,0,0.2,0,0.4,0
	c0.3,0,0.5-0.1,0.7-0.3C70.4,50.6,70.4,50.2,70.4,49.8z"/>
<path class="st2" d="M92,51.5h-0.6v-1.9c-0.2,0.1-0.5,0.1-0.6,0.2c-0.2,0-0.4,0.1-0.6,0.1c-0.2,0-0.4,0-0.5-0.1
	c-0.2,0-0.3-0.1-0.4-0.2c-0.1-0.1-0.2-0.2-0.3-0.4c-0.1-0.2-0.1-0.4-0.1-0.6v-1.5h0.6v1.2c0,0.2,0,0.3,0,0.4c0,0.1,0.1,0.2,0.1,0.3
	c0.1,0.1,0.1,0.2,0.3,0.2c0.1,0,0.3,0.1,0.5,0.1c0.2,0,0.4,0,0.6-0.1c0.2,0,0.4-0.1,0.6-0.1v-2H92V51.5z M95.3,48.7h-1.1v2.8h-0.6
	v-2.8h-1.1v-0.5h2.8V48.7z"/>
<path class="st2" d="M116.3,51.5h-0.6v-3.9h-2v3.9h-0.6v-4.4h3.2V51.5z M119.6,48.7h-1.1v2.8h-0.6v-2.8h-1.1v-0.5h2.8V48.7z"/>
<path class="st2" d="M139,51.6c-0.3,0-0.6,0-0.8-0.1c-0.2-0.1-0.5-0.2-0.6-0.4c-0.2-0.2-0.3-0.4-0.4-0.7c-0.1-0.3-0.1-0.6-0.1-1
	c0-0.4,0-0.7,0.1-1c0.1-0.3,0.2-0.5,0.4-0.7c0.2-0.2,0.4-0.3,0.6-0.5c0.2-0.1,0.5-0.2,0.8-0.2c0.1,0,0.3,0,0.4,0
	c0.1,0,0.3,0,0.4,0.1c0.1,0,0.2,0.1,0.3,0.1c0.1,0,0.2,0.1,0.3,0.1v0.7h0c-0.1,0-0.1-0.1-0.2-0.2c-0.1-0.1-0.2-0.1-0.3-0.2
	c-0.1-0.1-0.2-0.1-0.4-0.2c-0.1,0-0.3-0.1-0.5-0.1c-0.2,0-0.4,0-0.5,0.1c-0.2,0.1-0.3,0.2-0.4,0.3c-0.1,0.2-0.2,0.3-0.3,0.6
	c-0.1,0.2-0.1,0.5-0.1,0.8c0,0.3,0,0.6,0.1,0.8c0.1,0.2,0.2,0.4,0.3,0.6c0.1,0.1,0.3,0.3,0.4,0.3c0.2,0.1,0.3,0.1,0.5,0.1
	c0.2,0,0.3,0,0.5-0.1c0.1,0,0.3-0.1,0.4-0.2c0.1-0.1,0.2-0.1,0.3-0.2c0.1-0.1,0.1-0.1,0.2-0.2h0v0.7c-0.1,0-0.2,0.1-0.3,0.1
	c-0.1,0-0.2,0.1-0.3,0.1c-0.1,0-0.2,0.1-0.4,0.1C139.3,51.6,139.2,51.6,139,51.6z M143.2,48.7c0.1,0.1,0.2,0.3,0.3,0.5
	c0.1,0.2,0.1,0.4,0.1,0.7c0,0.3,0,0.5-0.1,0.7c-0.1,0.2-0.2,0.4-0.3,0.5c-0.1,0.2-0.3,0.3-0.5,0.4c-0.2,0.1-0.4,0.1-0.6,0.1
	c-0.2,0-0.4,0-0.6-0.1c-0.2-0.1-0.3-0.2-0.4-0.3c-0.2-0.2-0.3-0.4-0.3-0.7c-0.1-0.3-0.1-0.6-0.1-1.1c0-0.1,0-0.3,0-0.5
	c0-0.2,0-0.3,0.1-0.6c0-0.2,0.1-0.4,0.2-0.5c0.1-0.2,0.2-0.3,0.3-0.4c0.1-0.1,0.3-0.3,0.6-0.4c0.2-0.1,0.5-0.1,0.9-0.2
	c0.1,0,0.3,0,0.4,0c0.2,0,0.3,0,0.3,0v0.5c-0.1,0-0.2,0-0.3,0c-0.1,0-0.3,0-0.4,0c-0.2,0-0.4,0.1-0.6,0.1c-0.2,0.1-0.4,0.1-0.5,0.3
	c-0.1,0.1-0.1,0.2-0.2,0.4c0,0.2-0.1,0.3-0.1,0.5c0.1-0.1,0.3-0.2,0.5-0.3c0.2-0.1,0.4-0.1,0.5-0.1c0.2,0,0.4,0,0.5,0.1
	C143,48.5,143.1,48.6,143.2,48.7z M143.1,49.9c0-0.4-0.1-0.6-0.2-0.8c-0.2-0.2-0.4-0.3-0.7-0.3c-0.2,0-0.3,0-0.5,0.1
	c-0.2,0.1-0.3,0.1-0.4,0.2c0,0,0,0.1,0,0.2c0,0.1,0,0.1,0,0.2c0,0.3,0,0.6,0.1,0.8c0.1,0.2,0.1,0.4,0.2,0.5c0.1,0.1,0.2,0.2,0.3,0.2
	c0.1,0,0.2,0.1,0.3,0.1c0.3,0,0.5-0.1,0.7-0.3C143,50.6,143.1,50.3,143.1,49.9z"/>
<path class="st2" d="M164.9,50.2c0,0.2,0,0.4-0.1,0.6c-0.1,0.2-0.2,0.3-0.3,0.4c-0.2,0.1-0.3,0.2-0.5,0.3c-0.2,0.1-0.4,0.1-0.7,0.1
	h-1.3v-4.4h1.2c0.3,0,0.6,0,0.7,0c0.2,0,0.3,0.1,0.5,0.1c0.2,0.1,0.3,0.2,0.3,0.3c0.1,0.1,0.1,0.3,0.1,0.5c0,0.2-0.1,0.4-0.2,0.6
	c-0.1,0.2-0.3,0.3-0.5,0.4v0c0.3,0.1,0.5,0.2,0.6,0.4C164.8,49.6,164.9,49.9,164.9,50.2z M164,48.2c0-0.1,0-0.2-0.1-0.3
	c0-0.1-0.1-0.1-0.2-0.2c-0.1-0.1-0.2-0.1-0.3-0.1c-0.1,0-0.3,0-0.5,0h-0.6v1.3h0.7c0.2,0,0.3,0,0.4,0c0.1,0,0.2-0.1,0.3-0.1
	c0.1-0.1,0.2-0.1,0.2-0.2C164,48.4,164,48.3,164,48.2z M164.2,50.2c0-0.2,0-0.3-0.1-0.4c0-0.1-0.1-0.2-0.3-0.3
	c-0.1,0-0.2-0.1-0.3-0.1c-0.1,0-0.3,0-0.5,0h-0.7V51h0.5c0.3,0,0.5,0,0.6,0c0.1,0,0.3-0.1,0.4-0.2c0.1-0.1,0.2-0.2,0.2-0.3
	C164.2,50.5,164.2,50.3,164.2,50.2z M166.7,51.6c-0.2,0-0.4,0-0.6-0.1c-0.2-0.1-0.4-0.2-0.5-0.3c-0.1-0.1-0.2-0.3-0.3-0.5
	c-0.1-0.2-0.1-0.5-0.1-0.8c0-0.3,0-0.5,0.1-0.8c0.1-0.2,0.2-0.4,0.3-0.5c0.1-0.1,0.3-0.3,0.5-0.3c0.2-0.1,0.4-0.1,0.6-0.1
	c0.2,0,0.4,0,0.5,0.1c0.2,0.1,0.3,0.1,0.5,0.2V49h0c0,0-0.1-0.1-0.2-0.1c-0.1,0-0.1-0.1-0.2-0.1c-0.1,0-0.2-0.1-0.3-0.1
	c-0.1,0-0.2,0-0.3,0c-0.3,0-0.5,0.1-0.7,0.3c-0.2,0.2-0.3,0.5-0.3,0.9c0,0.4,0.1,0.7,0.3,0.9c0.2,0.2,0.4,0.3,0.7,0.3
	c0.2,0,0.4,0,0.5-0.1c0.2-0.1,0.3-0.2,0.4-0.3h0v0.6c-0.1,0-0.1,0.1-0.2,0.1c-0.1,0-0.2,0.1-0.2,0.1c-0.1,0-0.2,0-0.3,0.1
	C166.9,51.6,166.8,51.6,166.7,51.6z"/>
<path class="st2" d="M18.4,32.5h-0.5v-1.6h-0.6L16,32.5h-0.6l1.3-1.7c-0.3-0.1-0.5-0.2-0.6-0.4c-0.1-0.2-0.2-0.4-0.2-0.8
	c0-0.2,0-0.4,0.1-0.5c0.1-0.1,0.2-0.3,0.3-0.4c0.1-0.1,0.3-0.2,0.4-0.2c0.2,0,0.4-0.1,0.6-0.1h1.1V32.5z M17.8,30.4v-1.5h-0.6
	c-0.2,0-0.3,0-0.4,0c-0.1,0-0.2,0.1-0.3,0.1c-0.1,0.1-0.1,0.1-0.2,0.2c0,0.1-0.1,0.2-0.1,0.3c0,0.1,0,0.3,0,0.4
	c0,0.1,0.1,0.2,0.2,0.3c0.1,0.1,0.2,0.1,0.3,0.2c0.1,0,0.3,0,0.4,0H17.8z M21.5,32.5H21v-1.3h-1.4v1.3h-0.5v-3h0.5v1.2H21v-1.2h0.5
	V32.5z M24.5,31.6c0,0.1,0,0.3-0.1,0.4c-0.1,0.1-0.1,0.2-0.2,0.3c-0.1,0.1-0.2,0.2-0.4,0.2c-0.1,0-0.3,0-0.5,0h-1.2v-3h1.1
	c0.2,0,0.4,0,0.5,0c0.1,0,0.2,0,0.3,0.1c0.1,0.1,0.2,0.1,0.2,0.2c0,0.1,0.1,0.2,0.1,0.3c0,0.1,0,0.3-0.1,0.4
	c-0.1,0.1-0.2,0.2-0.3,0.3l0,0c0.2,0,0.3,0.1,0.4,0.2C24.5,31.2,24.5,31.4,24.5,31.6z M23.9,30.2c0-0.1,0-0.1,0-0.2
	c0,0-0.1-0.1-0.1-0.1c-0.1,0-0.1-0.1-0.2-0.1c-0.1,0-0.2,0-0.3,0h-0.5v0.8h0.6c0.1,0,0.2,0,0.3,0c0.1,0,0.1,0,0.2-0.1
	c0.1,0,0.1-0.1,0.1-0.1C23.9,30.4,23.9,30.3,23.9,30.2z M24,31.6c0-0.1,0-0.2,0-0.2c0-0.1-0.1-0.1-0.2-0.2c-0.1,0-0.1,0-0.2-0.1
	c-0.1,0-0.2,0-0.3,0h-0.6v1h0.4c0.2,0,0.3,0,0.4,0c0.1,0,0.2,0,0.3-0.1c0.1,0,0.1-0.1,0.2-0.2C24,31.7,24,31.7,24,31.6z M26.7,31.7
	v-0.8c-0.1,0-0.3,0-0.5,0c-0.2,0-0.3,0-0.4,0.1c-0.1,0-0.2,0.1-0.3,0.2c-0.1,0.1-0.1,0.2-0.1,0.4c0,0.2,0,0.3,0.1,0.4
	c0.1,0.1,0.2,0.1,0.4,0.1c0.2,0,0.3,0,0.4-0.1C26.5,31.9,26.6,31.8,26.7,31.7z M26.7,32.1c0,0-0.1,0.1-0.2,0.1
	c-0.1,0.1-0.1,0.1-0.2,0.1c-0.1,0-0.2,0.1-0.3,0.1c-0.1,0-0.2,0-0.3,0c-0.1,0-0.2,0-0.3-0.1c-0.1,0-0.2-0.1-0.3-0.2
	c-0.1-0.1-0.1-0.2-0.2-0.3c0-0.1-0.1-0.2-0.1-0.4c0-0.2,0-0.4,0.1-0.5c0.1-0.1,0.2-0.3,0.4-0.3c0.2-0.1,0.4-0.1,0.6-0.2
	c0.2,0,0.5-0.1,0.7-0.1v-0.1c0-0.1,0-0.2-0.1-0.3c0-0.1-0.1-0.1-0.1-0.2c-0.1,0-0.1-0.1-0.2-0.1c-0.1,0-0.2,0-0.3,0
	c-0.1,0-0.3,0-0.4,0.1c-0.2,0-0.3,0.1-0.5,0.1h0v-0.5c0.1,0,0.2-0.1,0.4-0.1c0.2,0,0.3,0,0.5,0c0.2,0,0.4,0,0.5,0
	c0.1,0,0.3,0.1,0.4,0.2c0.1,0.1,0.2,0.2,0.2,0.3c0.1,0.1,0.1,0.3,0.1,0.5v2h-0.5V32.1z M30.5,30.9c0,0.5-0.1,0.9-0.4,1.2
	c-0.2,0.3-0.5,0.4-0.9,0.4c-0.1,0-0.3,0-0.4-0.1c-0.1,0-0.2-0.1-0.3-0.2v1.2h-0.5v-4.1h0.5v0.3c0.1-0.1,0.3-0.2,0.4-0.3
	c0.2-0.1,0.3-0.1,0.5-0.1c0.3,0,0.6,0.1,0.8,0.4C30.4,30.1,30.5,30.4,30.5,30.9z M29.9,30.9c0-0.3-0.1-0.6-0.2-0.8
	c-0.1-0.2-0.3-0.3-0.5-0.3c-0.1,0-0.3,0-0.4,0.1c-0.1,0.1-0.3,0.1-0.4,0.2v1.7c0.1,0.1,0.2,0.1,0.3,0.1c0.1,0,0.2,0,0.3,0
	c0.3,0,0.5-0.1,0.6-0.3C29.9,31.6,29.9,31.3,29.9,30.9z M33.2,31.5c0,0.1,0,0.3-0.1,0.4c-0.1,0.1-0.1,0.2-0.2,0.3
	c-0.1,0.1-0.2,0.2-0.4,0.2s-0.3,0.1-0.5,0.1h-1v-3h0.5v1.2H32c0.2,0,0.4,0,0.5,0c0.1,0,0.2,0.1,0.4,0.2c0.1,0.1,0.2,0.2,0.2,0.3
	C33.2,31.3,33.2,31.4,33.2,31.5z M32.7,31.5c0-0.1,0-0.2,0-0.2c0-0.1-0.1-0.1-0.2-0.2c-0.1,0-0.2-0.1-0.3-0.1c-0.1,0-0.2,0-0.4,0
	h-0.4v1h0.4c0.2,0,0.3,0,0.4,0c0.1,0,0.2,0,0.3-0.1c0.1,0,0.1-0.1,0.2-0.2C32.7,31.7,32.7,31.6,32.7,31.5z M37.8,32.5h-2.5v-0.6
	c0.2-0.2,0.3-0.3,0.5-0.5c0.2-0.2,0.3-0.3,0.5-0.5c0.3-0.3,0.5-0.6,0.6-0.8c0.1-0.2,0.2-0.4,0.2-0.6c0-0.1,0-0.2-0.1-0.3
	c0-0.1-0.1-0.2-0.1-0.2c-0.1-0.1-0.1-0.1-0.2-0.1c-0.1,0-0.2,0-0.3,0c-0.1,0-0.2,0-0.3,0c-0.1,0-0.2,0.1-0.3,0.1
	c-0.1,0-0.1,0.1-0.2,0.1c-0.1,0-0.1,0.1-0.2,0.1h0v-0.6c0.1-0.1,0.3-0.1,0.5-0.2c0.2-0.1,0.4-0.1,0.6-0.1c0.4,0,0.7,0.1,0.9,0.3
	c0.2,0.2,0.3,0.5,0.3,0.8c0,0.2,0,0.3-0.1,0.4c0,0.1-0.1,0.3-0.1,0.4c-0.1,0.1-0.1,0.2-0.2,0.3c-0.1,0.1-0.2,0.2-0.3,0.3
	c-0.2,0.2-0.4,0.4-0.6,0.6c-0.2,0.2-0.4,0.4-0.5,0.5h2V32.5z M40.8,30.5c0,0.7-0.1,1.2-0.3,1.6c-0.2,0.3-0.5,0.5-1,0.5
	c-0.4,0-0.8-0.2-1-0.5c-0.2-0.3-0.3-0.9-0.3-1.6c0-0.7,0.1-1.2,0.3-1.6c0.2-0.3,0.5-0.5,1-0.5c0.4,0,0.8,0.2,1,0.5
	C40.7,29.3,40.8,29.8,40.8,30.5z M40.1,31.7c0.1-0.1,0.1-0.3,0.1-0.5c0-0.2,0-0.4,0-0.7c0-0.3,0-0.5,0-0.7c0-0.2-0.1-0.4-0.1-0.5
	C40.1,29.1,40,29,39.9,29c-0.1-0.1-0.2-0.1-0.4-0.1c-0.1,0-0.3,0-0.4,0.1c-0.1,0.1-0.2,0.2-0.2,0.3c-0.1,0.1-0.1,0.3-0.1,0.5
	c0,0.2,0,0.4,0,0.7c0,0.3,0,0.5,0,0.7c0,0.2,0.1,0.4,0.1,0.5c0.1,0.1,0.1,0.2,0.2,0.3c0.1,0.1,0.2,0.1,0.4,0.1c0.1,0,0.3,0,0.4-0.1
	C40,31.9,40.1,31.8,40.1,31.7z M43.8,32.5h-2.5v-0.6c0.2-0.2,0.3-0.3,0.5-0.5c0.2-0.2,0.3-0.3,0.5-0.5c0.3-0.3,0.5-0.6,0.6-0.8
	c0.1-0.2,0.2-0.4,0.2-0.6c0-0.1,0-0.2-0.1-0.3c0-0.1-0.1-0.2-0.1-0.2c-0.1-0.1-0.1-0.1-0.2-0.1c-0.1,0-0.2,0-0.3,0
	c-0.1,0-0.2,0-0.3,0c-0.1,0-0.2,0.1-0.3,0.1c-0.1,0-0.1,0.1-0.2,0.1c-0.1,0-0.1,0.1-0.2,0.1h0v-0.6c0.1-0.1,0.3-0.1,0.5-0.2
	c0.2-0.1,0.4-0.1,0.6-0.1c0.4,0,0.7,0.1,0.9,0.3c0.2,0.2,0.3,0.5,0.3,0.8c0,0.2,0,0.3-0.1,0.4c0,0.1-0.1,0.3-0.1,0.4
	c-0.1,0.1-0.1,0.2-0.2,0.3c-0.1,0.1-0.2,0.2-0.3,0.3c-0.2,0.2-0.4,0.4-0.6,0.6c-0.2,0.2-0.4,0.4-0.5,0.5h2V32.5z M46.8,30.5
	c0,0.7-0.1,1.2-0.3,1.6c-0.2,0.3-0.5,0.5-1,0.5c-0.4,0-0.8-0.2-1-0.5c-0.2-0.3-0.3-0.9-0.3-1.6c0-0.7,0.1-1.2,0.3-1.6
	c0.2-0.3,0.5-0.5,1-0.5c0.4,0,0.8,0.2,1,0.5C46.7,29.3,46.8,29.8,46.8,30.5z M46.1,31.7c0.1-0.1,0.1-0.3,0.1-0.5c0-0.2,0-0.4,0-0.7
	c0-0.3,0-0.5,0-0.7c0-0.2-0.1-0.4-0.1-0.5C46,29.1,46,29,45.9,29c-0.1-0.1-0.2-0.1-0.4-0.1c-0.1,0-0.3,0-0.4,0.1
	C45,29,45,29.1,44.9,29.3c-0.1,0.1-0.1,0.3-0.1,0.5c0,0.2,0,0.4,0,0.7c0,0.3,0,0.5,0,0.7c0,0.2,0.1,0.4,0.1,0.5
	c0.1,0.1,0.1,0.2,0.2,0.3c0.1,0.1,0.2,0.1,0.4,0.1c0.1,0,0.3,0,0.4-0.1C46,31.9,46,31.8,46.1,31.7z"/>
<path class="st3" d="M141.8,28.3L141.8,28.3c-0.2,0.2-0.2,0.3,0,0.5l3.7,3.7c0.1,0.1,0.3,0.1,0.4,0l0,0c0.1-0.1,0.1-0.3,0-0.4
	l-3.7-3.7C142.1,28.2,142,28.2,141.8,28.3z"/>
<path class="st3" d="M149.6,28.3L149.6,28.3c-0.2-0.2-0.3-0.2-0.5,0l-3.7,3.7c-0.1,0.1-0.1,0.3,0,0.4l0,0c0.1,0.1,0.3,0.1,0.4,0
	l3.7-3.7C149.7,28.6,149.7,28.4,149.6,28.3z"/>
<path class="st2" d="M168.7,32.4L168.7,32.4c0.2-0.2,0.2-0.3,0-0.5l-3.7-3.7c-0.1-0.1-0.3-0.1-0.4,0l0,0c-0.1,0.1-0.1,0.3,0,0.4
	l3.7,3.7C168.4,32.5,168.6,32.5,168.7,32.4z"/>
<path class="st2" d="M161,32.4L161,32.4c0.2,0.2,0.3,0.2,0.5,0l3.7-3.7c0.1-0.1,0.1-0.3,0-0.4l0,0c-0.1-0.1-0.3-0.1-0.4,0L161,32
	C160.8,32.1,160.8,32.3,161,32.4z"/>
<path class="st4" d="M74.9,78.3H62.4l-1.9-1.9V63.9l1.9-1.9h12.5l1.9,1.9v12.5L74.9,78.3z"/>
<path class="st4" d="M99.2,78.3H86.6l-1.9-1.9V63.9l1.9-1.9h12.5l1.9,1.9v12.5L99.2,78.3z"/>
<path class="st4" d="M26.4,78.3H13.9L12,76.4V63.9l1.9-1.9h12.5l1.9,1.9v12.5L26.4,78.3z"/>
<path class="st4" d="M50.7,78.3H38.1l-1.9-1.9V63.9l1.9-1.9h12.5l1.9,1.9v12.5L50.7,78.3z"/>
<path class="st4" d="M147.7,78.3h-12.5l-1.9-1.9V63.9l1.9-1.9h12.5l1.9,1.9v12.5L147.7,78.3z"/>
<path class="st4" d="M172,78.3h-12.5l-1.9-1.9V63.9l1.9-1.9H172l1.9,1.9v12.5L172,78.3z"/>
<path class="st4" d="M123.4,78.3h-12.5l-1.9-1.9V63.9l1.9-1.9h12.5l1.9,1.9v12.5L123.4,78.3z"/>
<path class="st4" d="M74.9,102.4H62.4l-1.9-1.9V88l1.9-1.9h12.5l1.9,1.9v12.5L74.9,102.4z"/>
<path class="st4" d="M99.2,102.4H86.6l-1.9-1.9V88l1.9-1.9h12.5l1.9,1.9v12.5L99.2,102.4z"/>
<path class="st4" d="M26.4,102.4H13.9l-1.9-1.9V88l1.9-1.9h12.5l1.9,1.9v12.5L26.4,102.4z"/>
<path class="st4" d="M50.7,102.4H38.1l-1.9-1.9V88l1.9-1.9h12.5l1.9,1.9v12.5L50.7,102.4z"/>
<path class="st4" d="M147.7,102.4h-12.5l-1.9-1.9V88l1.9-1.9h12.5l1.9,1.9v12.5L147.7,102.4z"/>
<path class="st4" d="M172,102.4h-12.5l-1.9-1.9V88l1.9-1.9H172l1.9,1.9v12.5L172,102.4z"/>
<path class="st4" d="M123.4,102.4h-12.5l-1.9-1.9V88l1.9-1.9h12.5l1.9,1.9v12.5L123.4,102.4z"/>
<g class="st5">
	<path class="st6" d="M18.1,68.3c-0.1,0-0.2,0-0.3,0c-0.1,0-0.2,0.1-0.3,0.1c-0.1,0-0.2,0.1-0.2,0.1c-0.1,0-0.1,0.1-0.2,0.1h0v-0.6
		c0.1-0.1,0.3-0.1,0.5-0.2c0.2-0.1,0.4-0.1,0.6-0.1s0.3,0,0.5,0.1c0.1,0,0.3,0.1,0.4,0.2c0.1,0.1,0.2,0.2,0.3,0.3
		c0.1,0.1,0.1,0.3,0.1,0.4c0,0.2-0.1,0.4-0.2,0.6c-0.1,0.2-0.3,0.3-0.5,0.3v0c0.1,0,0.2,0,0.3,0.1c0.1,0,0.2,0.1,0.3,0.2
		c0.1,0.1,0.1,0.2,0.2,0.3c0.1,0.1,0.1,0.3,0.1,0.4c0,0.2,0,0.3-0.1,0.5c-0.1,0.1-0.1,0.3-0.3,0.4c-0.1,0.1-0.3,0.2-0.4,0.3
		C18.5,72,18.3,72,18.1,72c-0.2,0-0.4,0-0.6-0.1c-0.2,0-0.4-0.1-0.5-0.2v-0.6h0c0.1,0.1,0.3,0.2,0.5,0.2c0.2,0.1,0.4,0.1,0.6,0.1
		c0.1,0,0.2,0,0.3-0.1c0.1,0,0.2-0.1,0.3-0.2c0.1-0.1,0.1-0.2,0.2-0.3c0-0.1,0.1-0.2,0.1-0.4c0-0.1,0-0.3-0.1-0.4
		c0-0.1-0.1-0.2-0.2-0.2s-0.2-0.1-0.3-0.1c-0.1,0-0.2,0-0.3,0h-0.2v-0.4H18c0.2,0,0.4-0.1,0.6-0.2c0.2-0.1,0.2-0.3,0.2-0.5
		c0-0.1,0-0.2-0.1-0.3c0-0.1-0.1-0.1-0.1-0.2c-0.1,0-0.1-0.1-0.2-0.1C18.3,68.4,18.2,68.3,18.1,68.3z M22.5,69.9
		c0,0.7-0.1,1.2-0.3,1.6c-0.2,0.3-0.5,0.5-1,0.5c-0.4,0-0.8-0.2-1-0.5C20.1,71.2,20,70.7,20,70c0-0.7,0.1-1.2,0.3-1.6
		c0.2-0.3,0.5-0.5,1-0.5c0.4,0,0.8,0.2,1,0.5C22.4,68.7,22.5,69.3,22.5,69.9z M21.8,71.2c0.1-0.1,0.1-0.3,0.1-0.5c0-0.2,0-0.4,0-0.7
		c0-0.3,0-0.5,0-0.7c0-0.2-0.1-0.4-0.1-0.5c-0.1-0.1-0.1-0.2-0.2-0.3c-0.1-0.1-0.2-0.1-0.4-0.1c-0.1,0-0.3,0-0.4,0.1
		c-0.1,0.1-0.2,0.2-0.2,0.3c-0.1,0.1-0.1,0.3-0.1,0.5c0,0.2,0,0.4,0,0.7c0,0.3,0,0.5,0,0.7c0,0.2,0.1,0.4,0.1,0.5
		c0.1,0.1,0.1,0.2,0.2,0.3c0.1,0.1,0.2,0.1,0.4,0.1c0.1,0,0.3,0,0.4-0.1C21.7,71.4,21.8,71.3,21.8,71.2z"/>
</g>
<g class="st5">
	<path class="st6" d="M42.3,68.3c-0.1,0-0.2,0-0.3,0c-0.1,0-0.2,0.1-0.3,0.1c-0.1,0-0.2,0.1-0.2,0.1c-0.1,0-0.1,0.1-0.2,0.1h0v-0.6
		c0.1-0.1,0.3-0.1,0.5-0.2c0.2-0.1,0.4-0.1,0.6-0.1c0.2,0,0.3,0,0.5,0.1c0.1,0,0.3,0.1,0.4,0.2c0.1,0.1,0.2,0.2,0.3,0.3
		c0.1,0.1,0.1,0.3,0.1,0.4c0,0.2-0.1,0.4-0.2,0.6c-0.1,0.2-0.3,0.3-0.5,0.3v0c0.1,0,0.2,0,0.3,0.1c0.1,0,0.2,0.1,0.3,0.2
		c0.1,0.1,0.1,0.2,0.2,0.3c0.1,0.1,0.1,0.3,0.1,0.4c0,0.2,0,0.3-0.1,0.5c-0.1,0.1-0.1,0.3-0.3,0.4c-0.1,0.1-0.3,0.2-0.4,0.3
		C42.7,72,42.5,72,42.3,72c-0.2,0-0.4,0-0.6-0.1c-0.2,0-0.4-0.1-0.5-0.2v-0.6h0c0.1,0.1,0.3,0.2,0.5,0.2c0.2,0.1,0.4,0.1,0.6,0.1
		c0.1,0,0.2,0,0.3-0.1c0.1,0,0.2-0.1,0.3-0.2c0.1-0.1,0.1-0.2,0.2-0.3c0-0.1,0.1-0.2,0.1-0.4c0-0.1,0-0.3-0.1-0.4
		c0-0.1-0.1-0.2-0.2-0.2c-0.1-0.1-0.2-0.1-0.3-0.1c-0.1,0-0.2,0-0.3,0H42v-0.4h0.2c0.2,0,0.4-0.1,0.6-0.2c0.2-0.1,0.2-0.3,0.2-0.5
		c0-0.1,0-0.2-0.1-0.3c0-0.1-0.1-0.1-0.1-0.2c-0.1,0-0.1-0.1-0.2-0.1C42.5,68.4,42.4,68.3,42.3,68.3z M46.5,71.9h-1.9v-0.4h0.7v-2.7
		h-0.7v-0.4c0.3,0,0.5,0,0.6-0.1c0.1-0.1,0.2-0.2,0.2-0.4h0.4v3.6h0.7V71.9z"/>
</g>
<path class="st2" d="M69.8,71.9h-1.9v-0.4h0.7v-2.7h-0.7v-0.4c0.3,0,0.5,0,0.6-0.1c0.1-0.1,0.2-0.2,0.2-0.4h0.4v3.6h0.7V71.9z"/>
<path class="st2" d="M94.2,71.9h-2.5v-0.6c0.2-0.2,0.3-0.3,0.5-0.5c0.2-0.2,0.3-0.3,0.5-0.5c0.3-0.3,0.5-0.6,0.6-0.8
	c0.1-0.2,0.2-0.4,0.2-0.6c0-0.1,0-0.2-0.1-0.3c0-0.1-0.1-0.2-0.1-0.2c-0.1-0.1-0.1-0.1-0.2-0.1c-0.1,0-0.2,0-0.3,0
	c-0.1,0-0.2,0-0.3,0c-0.1,0-0.2,0.1-0.3,0.1c-0.1,0-0.1,0.1-0.2,0.1c-0.1,0-0.1,0.1-0.2,0.1h0v-0.6c0.1-0.1,0.3-0.1,0.5-0.2
	c0.2-0.1,0.4-0.1,0.6-0.1c0.4,0,0.7,0.1,0.9,0.3c0.2,0.2,0.3,0.5,0.3,0.8c0,0.2,0,0.3-0.1,0.4c0,0.1-0.1,0.3-0.1,0.4
	c-0.1,0.1-0.1,0.2-0.2,0.3c-0.1,0.1-0.2,0.2-0.3,0.3c-0.2,0.2-0.4,0.4-0.6,0.6c-0.2,0.2-0.4,0.4-0.5,0.5h2V71.9z"/>
<path class="st2" d="M117,68.3c-0.1,0-0.2,0-0.3,0c-0.1,0-0.2,0.1-0.3,0.1c-0.1,0-0.2,0.1-0.2,0.1c-0.1,0-0.1,0.1-0.2,0.1h0v-0.6
	c0.1-0.1,0.3-0.1,0.5-0.2c0.2-0.1,0.4-0.1,0.6-0.1c0.2,0,0.3,0,0.5,0.1c0.1,0,0.3,0.1,0.4,0.2c0.1,0.1,0.2,0.2,0.3,0.3
	c0.1,0.1,0.1,0.3,0.1,0.4c0,0.2-0.1,0.4-0.2,0.6c-0.1,0.2-0.3,0.3-0.5,0.3v0c0.1,0,0.2,0,0.3,0.1c0.1,0,0.2,0.1,0.3,0.2
	c0.1,0.1,0.1,0.2,0.2,0.3c0.1,0.1,0.1,0.3,0.1,0.4c0,0.2,0,0.3-0.1,0.5c-0.1,0.1-0.1,0.3-0.3,0.4c-0.1,0.1-0.3,0.2-0.4,0.3
	c-0.2,0.1-0.3,0.1-0.6,0.1c-0.2,0-0.4,0-0.6-0.1c-0.2,0-0.4-0.1-0.5-0.2v-0.6h0c0.1,0.1,0.3,0.2,0.5,0.2c0.2,0.1,0.4,0.1,0.6,0.1
	c0.1,0,0.2,0,0.3-0.1c0.1,0,0.2-0.1,0.3-0.2c0.1-0.1,0.1-0.2,0.2-0.3c0-0.1,0.1-0.2,0.1-0.4c0-0.1,0-0.3-0.1-0.4
	c0-0.1-0.1-0.2-0.2-0.2c-0.1-0.1-0.2-0.1-0.3-0.1c-0.1,0-0.2,0-0.3,0h-0.2v-0.4h0.2c0.2,0,0.4-0.1,0.6-0.2c0.2-0.1,0.2-0.3,0.2-0.5
	c0-0.1,0-0.2-0.1-0.3c0-0.1-0.1-0.1-0.1-0.2c-0.1,0-0.1-0.1-0.2-0.1C117.2,68.4,117.1,68.3,117,68.3z"/>
<path class="st2" d="M142.7,70.6h-0.5v1.4h-0.5v-1.4H140V70l1.8-2h0.5v2.2h0.5V70.6z M141.8,70.1v-1.6l-1.3,1.6H141.8z"/>
<path class="st2" d="M166.8,70.7c0,0.2,0,0.4-0.1,0.5c-0.1,0.2-0.1,0.3-0.3,0.4c-0.1,0.1-0.3,0.2-0.4,0.3c-0.2,0.1-0.4,0.1-0.6,0.1
	c-0.2,0-0.4,0-0.6-0.1c-0.2,0-0.3-0.1-0.5-0.2v-0.6h0c0,0,0.1,0.1,0.2,0.1c0.1,0,0.2,0.1,0.3,0.1c0.1,0,0.2,0.1,0.3,0.1
	c0.1,0,0.2,0,0.3,0c0.1,0,0.2,0,0.3-0.1c0.1,0,0.2-0.1,0.3-0.2c0.1-0.1,0.1-0.2,0.1-0.3c0-0.1,0.1-0.2,0.1-0.4c0-0.1,0-0.3-0.1-0.3
	c0-0.1-0.1-0.2-0.2-0.2c-0.1-0.1-0.2-0.1-0.3-0.1c-0.1,0-0.2,0-0.4,0c-0.1,0-0.3,0-0.4,0c-0.1,0-0.3,0-0.4,0.1v-2h2.2v0.5h-1.7v1.1
	c0.1,0,0.1,0,0.2,0c0.1,0,0.1,0,0.2,0c0.2,0,0.4,0,0.5,0.1c0.1,0,0.3,0.1,0.4,0.2c0.1,0.1,0.2,0.2,0.3,0.4
	C166.8,70.2,166.8,70.4,166.8,70.7z"/>
<path class="st2" d="M21.6,94.3c0,0.2,0,0.4-0.1,0.6c-0.1,0.2-0.2,0.3-0.3,0.4c-0.1,0.1-0.3,0.2-0.4,0.3c-0.1,0.1-0.3,0.1-0.5,0.1
	c-0.2,0-0.3,0-0.5-0.1c-0.1-0.1-0.3-0.2-0.4-0.3c-0.1-0.1-0.2-0.3-0.3-0.6c-0.1-0.2-0.1-0.5-0.1-0.9c0-0.3,0-0.7,0.1-0.9
	c0.1-0.3,0.2-0.5,0.3-0.7c0.1-0.2,0.3-0.4,0.6-0.5c0.2-0.1,0.5-0.2,0.8-0.2c0.1,0,0.2,0,0.2,0c0.1,0,0.1,0,0.2,0v0.5h0
	c0,0-0.1-0.1-0.2-0.1c-0.1,0-0.2,0-0.3,0c-0.3,0-0.6,0.1-0.8,0.3c-0.2,0.2-0.3,0.6-0.4,1c0.1-0.1,0.3-0.2,0.4-0.2
	c0.1,0,0.3-0.1,0.4-0.1c0.2,0,0.3,0,0.4,0c0.1,0,0.2,0.1,0.4,0.2c0.1,0.1,0.3,0.3,0.3,0.4S21.6,94.1,21.6,94.3z M21.1,94.3
	c0-0.2,0-0.3-0.1-0.4c0-0.1-0.1-0.2-0.2-0.3c-0.1-0.1-0.1-0.1-0.2-0.1c-0.1,0-0.2,0-0.3,0c-0.1,0-0.2,0-0.4,0.1
	c-0.1,0-0.2,0.1-0.3,0.2c0,0,0,0.1,0,0.1c0,0,0,0.1,0,0.1c0,0.3,0,0.5,0.1,0.7c0.1,0.2,0.1,0.3,0.2,0.4c0.1,0.1,0.2,0.1,0.2,0.2
	c0.1,0,0.2,0.1,0.3,0.1c0.2,0,0.4-0.1,0.5-0.2C21,94.9,21.1,94.7,21.1,94.3z"/>
<path class="st2" d="M45.8,92.2l-1.7,3.4h-0.6l1.8-3.5h-2.1v-0.5h2.5V92.2z"/>
<path class="st2" d="M69.4,92.6c0-0.2-0.1-0.3-0.2-0.4c-0.1-0.1-0.3-0.2-0.5-0.2c-0.2,0-0.4,0.1-0.5,0.2c-0.1,0.1-0.2,0.3-0.2,0.4
	c0,0.1,0,0.2,0.1,0.3c0.1,0.1,0.2,0.2,0.3,0.2c0.1,0,0.1,0.1,0.3,0.1c0.1,0.1,0.2,0.1,0.3,0.1c0.2-0.1,0.3-0.2,0.3-0.4
	C69.4,92.9,69.4,92.7,69.4,92.6z M69.5,94.6c0-0.2,0-0.3-0.1-0.4c-0.1-0.1-0.2-0.2-0.4-0.3c-0.1,0-0.1-0.1-0.2-0.1
	c-0.1,0-0.2-0.1-0.3-0.1c-0.1,0.1-0.3,0.2-0.3,0.4C68,94.1,68,94.3,68,94.5c0,0.2,0.1,0.4,0.2,0.6c0.1,0.2,0.3,0.2,0.5,0.2
	c0.2,0,0.4-0.1,0.5-0.2C69.4,95,69.5,94.8,69.5,94.6z M68.7,95.7c-0.2,0-0.4,0-0.5-0.1c-0.2-0.1-0.3-0.1-0.4-0.3
	c-0.1-0.1-0.2-0.2-0.3-0.4c-0.1-0.1-0.1-0.3-0.1-0.5c0-0.2,0.1-0.4,0.2-0.6c0.1-0.2,0.3-0.3,0.5-0.4v0c-0.2-0.1-0.3-0.2-0.4-0.4
	c-0.1-0.1-0.1-0.3-0.1-0.5c0-0.3,0.1-0.5,0.3-0.7s0.5-0.3,0.9-0.3c0.4,0,0.7,0.1,0.9,0.3c0.2,0.2,0.3,0.4,0.3,0.7
	c0,0.2-0.1,0.4-0.2,0.5c-0.1,0.2-0.3,0.3-0.4,0.4v0c0.2,0.1,0.4,0.2,0.5,0.4c0.1,0.2,0.2,0.4,0.2,0.6c0,0.3-0.1,0.6-0.4,0.9
	C69.4,95.6,69.1,95.7,68.7,95.7z"/>
<path class="st2" d="M93.7,93.3c0-0.3,0-0.5-0.1-0.7c-0.1-0.2-0.1-0.3-0.2-0.4c-0.1-0.1-0.2-0.1-0.2-0.2c-0.1,0-0.2,0-0.3,0
	c-0.2,0-0.4,0.1-0.5,0.2c-0.1,0.2-0.2,0.4-0.2,0.7c0,0.2,0,0.3,0.1,0.4c0,0.1,0.1,0.2,0.2,0.3c0.1,0.1,0.1,0.1,0.2,0.1
	c0.1,0,0.2,0,0.3,0c0.1,0,0.2,0,0.4-0.1c0.1,0,0.2-0.1,0.3-0.2c0,0,0-0.1,0-0.1C93.7,93.4,93.7,93.3,93.7,93.3z M91.6,92.9
	c0-0.2,0-0.4,0.1-0.6c0.1-0.2,0.2-0.3,0.3-0.4c0.1-0.1,0.2-0.2,0.4-0.3c0.2-0.1,0.3-0.1,0.5-0.1c0.2,0,0.3,0,0.5,0.1
	c0.1,0.1,0.3,0.1,0.4,0.3c0.1,0.1,0.2,0.3,0.3,0.6c0.1,0.2,0.1,0.5,0.1,0.9c0,0.3,0,0.6-0.1,0.9c-0.1,0.3-0.2,0.5-0.3,0.7
	c-0.2,0.2-0.3,0.4-0.6,0.5c-0.2,0.1-0.5,0.2-0.8,0.2c-0.1,0-0.1,0-0.2,0c-0.1,0-0.2,0-0.2,0v-0.5h0c0,0,0.1,0,0.2,0.1
	c0.1,0,0.2,0,0.3,0c0.3,0,0.6-0.1,0.8-0.3c0.2-0.2,0.3-0.6,0.3-1c-0.1,0.1-0.3,0.2-0.4,0.2c-0.1,0-0.3,0.1-0.4,0.1
	c-0.1,0-0.3,0-0.4,0s-0.2-0.1-0.4-0.2c-0.1-0.1-0.3-0.2-0.3-0.4C91.7,93.4,91.6,93.2,91.6,92.9z"/>
<path class="st2" d="M116.2,95.6h-1.9v-0.4h0.7v-2.7h-0.7v-0.4c0.3,0,0.5,0,0.6-0.1c0.1-0.1,0.2-0.2,0.2-0.4h0.4v3.6h0.7V95.6z
	 M119.4,93.6c0,0.7-0.1,1.2-0.3,1.6c-0.2,0.3-0.5,0.5-1,0.5c-0.4,0-0.8-0.2-1-0.5c-0.2-0.3-0.3-0.9-0.3-1.6c0-0.7,0.1-1.2,0.3-1.6
	c0.2-0.3,0.5-0.5,1-0.5c0.4,0,0.8,0.2,1,0.5C119.3,92.4,119.4,92.9,119.4,93.6z M118.7,94.8c0.1-0.1,0.1-0.3,0.1-0.5
	c0-0.2,0-0.4,0-0.7c0-0.3,0-0.5,0-0.7c0-0.2-0.1-0.4-0.1-0.5c-0.1-0.1-0.1-0.2-0.2-0.3c-0.1-0.1-0.2-0.1-0.4-0.1
	c-0.1,0-0.3,0-0.4,0.1c-0.1,0.1-0.2,0.2-0.2,0.3c-0.1,0.1-0.1,0.3-0.1,0.5c0,0.2,0,0.4,0,0.7c0,0.3,0,0.5,0,0.7
	c0,0.2,0.1,0.4,0.1,0.5c0.1,0.1,0.1,0.2,0.2,0.3c0.1,0.1,0.2,0.1,0.4,0.1c0.1,0,0.3,0,0.4-0.1C118.6,95.1,118.6,95,118.7,94.8z"/>
<path class="st2" d="M140.4,95.6h-1.9v-0.4h0.7v-2.7h-0.7v-0.4c0.3,0,0.5,0,0.6-0.1c0.1-0.1,0.2-0.2,0.2-0.4h0.4v3.6h0.7V95.6z
	 M143.4,95.6h-1.9v-0.4h0.7v-2.7h-0.7v-0.4c0.3,0,0.5,0,0.6-0.1c0.1-0.1,0.2-0.2,0.2-0.4h0.4v3.6h0.7V95.6z"/>
<path class="st2" d="M164.6,95.6h-1.9v-0.4h0.7v-2.7h-0.7v-0.4c0.3,0,0.5,0,0.6-0.1c0.1-0.1,0.2-0.2,0.2-0.4h0.4v3.6h0.7V95.6z
	 M167.8,95.6h-2.5v-0.6c0.2-0.2,0.3-0.3,0.5-0.5s0.3-0.3,0.5-0.5c0.3-0.3,0.5-0.6,0.6-0.8c0.1-0.2,0.2-0.4,0.2-0.6
	c0-0.1,0-0.2-0.1-0.3c0-0.1-0.1-0.2-0.1-0.2c-0.1-0.1-0.1-0.1-0.2-0.1c-0.1,0-0.2,0-0.3,0c-0.1,0-0.2,0-0.3,0
	c-0.1,0-0.2,0.1-0.3,0.1c-0.1,0-0.1,0.1-0.2,0.1c-0.1,0-0.1,0.1-0.2,0.1h0v-0.6c0.1-0.1,0.3-0.1,0.5-0.2c0.2-0.1,0.4-0.1,0.6-0.1
	c0.4,0,0.7,0.1,0.9,0.3c0.2,0.2,0.3,0.5,0.3,0.8c0,0.2,0,0.3-0.1,0.4c0,0.1-0.1,0.3-0.1,0.4c-0.1,0.1-0.1,0.2-0.2,0.3
	c-0.1,0.1-0.2,0.2-0.3,0.3c-0.2,0.2-0.4,0.4-0.6,0.6c-0.2,0.2-0.4,0.4-0.5,0.5h2V95.6z"/>
<path class="st7" d="M74,62.1h0.9l1.9,1.9v5.8H74V62.1z"/>
<path class="st3" d="M74,78.3h1l1.8-1.8v-6.1H74V78.3z"/>
<g>
	<path class="st1" d="M189.9,8.7c0-2.6,2.1-4.7,4.7-4.7h120.3c2.6,0,4.7,2.1,4.7,4.7v10.1H189.9V8.7z"/>
</g>
<path class="st1" d="M190.2,87.1H319V69.5H190.2V87.1z"/>
<path class="st8" d="M199.2,28.7h-1.6v3h-0.5v-3.4h2V28.7z M201.6,31.7h-0.4v-2.2h-0.9c0,0.1,0,0.2,0,0.4c0,0.1,0,0.2,0,0.3
	c0,0.2,0,0.4,0,0.6c0,0.2,0,0.3-0.1,0.4c0,0.1-0.1,0.2-0.1,0.2c0,0.1-0.1,0.1-0.1,0.2c-0.1,0-0.1,0.1-0.2,0.1c-0.1,0-0.1,0-0.2,0
	c0,0-0.1,0-0.1,0c0,0-0.1,0-0.1,0v-0.4h0c0,0,0,0,0,0c0,0,0,0,0,0c0,0,0.1,0,0.1,0c0,0,0.1,0,0.1-0.1c0.1-0.1,0.1-0.2,0.2-0.4
	c0-0.2,0.1-0.4,0.1-0.8c0-0.1,0-0.3,0-0.4c0-0.2,0-0.3,0-0.5h1.7V31.7z M203.6,31.1v-0.7c-0.1,0-0.2,0-0.4,0c-0.2,0-0.3,0-0.4,0.1
	c-0.1,0-0.2,0.1-0.3,0.2c-0.1,0.1-0.1,0.2-0.1,0.3c0,0.1,0,0.3,0.1,0.3c0.1,0.1,0.2,0.1,0.4,0.1c0.1,0,0.3,0,0.4-0.1
	C203.4,31.2,203.5,31.2,203.6,31.1z M203.6,31.4c0,0-0.1,0.1-0.1,0.1c-0.1,0-0.1,0.1-0.2,0.1c-0.1,0-0.2,0.1-0.2,0.1
	c-0.1,0-0.2,0-0.3,0c-0.1,0-0.2,0-0.3-0.1c-0.1,0-0.2-0.1-0.2-0.2c-0.1-0.1-0.1-0.2-0.2-0.3c0-0.1-0.1-0.2-0.1-0.3
	c0-0.2,0-0.3,0.1-0.5c0.1-0.1,0.2-0.2,0.4-0.3c0.1-0.1,0.3-0.1,0.5-0.1c0.2,0,0.4,0,0.6-0.1v-0.1c0-0.1,0-0.2,0-0.2
	c0-0.1-0.1-0.1-0.1-0.1c-0.1,0-0.1-0.1-0.2-0.1c-0.1,0-0.2,0-0.2,0c-0.1,0-0.2,0-0.4,0c-0.1,0-0.3,0.1-0.4,0.1h0v-0.4
	c0.1,0,0.2,0,0.3-0.1c0.1,0,0.3,0,0.4,0c0.2,0,0.3,0,0.4,0c0.1,0,0.2,0.1,0.3,0.1c0.1,0.1,0.2,0.2,0.2,0.3c0,0.1,0.1,0.2,0.1,0.4
	v1.7h-0.4V31.4z M206.6,30.9c0,0.1,0,0.2-0.1,0.3c0,0.1-0.1,0.2-0.2,0.2c-0.1,0.1-0.2,0.1-0.3,0.2c-0.1,0-0.2,0-0.4,0h-1v-2.6h0.9
	c0.2,0,0.3,0,0.4,0c0.1,0,0.2,0,0.3,0.1c0.1,0,0.2,0.1,0.2,0.2c0,0.1,0.1,0.2,0.1,0.3c0,0.1,0,0.2-0.1,0.3c-0.1,0.1-0.2,0.2-0.3,0.2
	l0,0c0.1,0,0.3,0.1,0.3,0.2C206.6,30.6,206.6,30.8,206.6,30.9z M206.1,29.8c0-0.1,0-0.1,0-0.2c0,0-0.1-0.1-0.1-0.1
	c-0.1,0-0.1,0-0.2-0.1c-0.1,0-0.2,0-0.3,0h-0.4v0.7h0.5c0.1,0,0.2,0,0.2,0c0,0,0.1,0,0.1-0.1c0.1,0,0.1-0.1,0.1-0.1
	C206.1,29.9,206.1,29.9,206.1,29.8z M206.2,30.9c0-0.1,0-0.2,0-0.2c0-0.1-0.1-0.1-0.2-0.1c-0.1,0-0.1,0-0.2,0c-0.1,0-0.1,0-0.3,0
	h-0.5v0.8h0.4c0.2,0,0.3,0,0.4,0c0.1,0,0.2,0,0.2-0.1c0.1,0,0.1-0.1,0.1-0.1C206.2,31.1,206.2,31,206.2,30.9z M209.1,31.7h-0.4v-1.2
	h-1.2v1.2h-0.4v-2.6h0.4v1h1.2v-1h0.4V31.7z M211.6,30.9c0,0.1,0,0.2-0.1,0.3c0,0.1-0.1,0.2-0.2,0.2c-0.1,0.1-0.2,0.1-0.3,0.2
	c-0.1,0-0.3,0-0.4,0h-0.9v-2.6h0.4v1h0.4c0.2,0,0.3,0,0.4,0c0.1,0,0.2,0.1,0.3,0.1c0.1,0.1,0.2,0.1,0.2,0.3
	C211.6,30.7,211.6,30.8,211.6,30.9z M211.2,30.9c0-0.1,0-0.1,0-0.2c0-0.1-0.1-0.1-0.1-0.1c-0.1,0-0.1-0.1-0.2-0.1
	c-0.1,0-0.2,0-0.4,0h-0.3v0.9h0.3c0.2,0,0.3,0,0.4,0c0.1,0,0.2,0,0.2-0.1c0.1,0,0.1-0.1,0.1-0.1C211.2,31.1,211.2,31,211.2,30.9z
	 M212.4,31.7h-0.4v-2.6h0.4V31.7z M215,31.7h-0.4v-1.9l-1.2,1.9H213v-2.6h0.4V31l1.2-1.9h0.4V31.7z M214.8,28c0,0.1,0,0.3,0,0.4
	c0,0.1-0.1,0.2-0.1,0.3c-0.1,0.1-0.1,0.1-0.2,0.2c-0.1,0-0.2,0.1-0.3,0.1c-0.1,0-0.2,0-0.3-0.1c-0.1,0-0.2-0.1-0.2-0.2
	c-0.1-0.1-0.1-0.2-0.1-0.3c0-0.1,0-0.2,0-0.4h0.4c0,0.2,0,0.4,0.1,0.4c0.1,0.1,0.2,0.1,0.3,0.1c0.1,0,0.2,0,0.3-0.1
	c0.1-0.1,0.1-0.2,0.1-0.4H214.8z M219.1,30.9c0,0.1,0,0.2-0.1,0.3c0,0.1-0.1,0.2-0.2,0.2c-0.1,0.1-0.2,0.1-0.3,0.2
	c-0.1,0-0.2,0-0.4,0h-1v-2.6h0.9c0.2,0,0.3,0,0.4,0c0.1,0,0.2,0,0.3,0.1c0.1,0,0.2,0.1,0.2,0.2c0,0.1,0.1,0.2,0.1,0.3
	c0,0.1,0,0.2-0.1,0.3c-0.1,0.1-0.2,0.2-0.3,0.2l0,0c0.1,0,0.3,0.1,0.3,0.2C219.1,30.6,219.1,30.8,219.1,30.9z M218.5,29.8
	c0-0.1,0-0.1,0-0.2c0,0-0.1-0.1-0.1-0.1c-0.1,0-0.1,0-0.2-0.1c-0.1,0-0.2,0-0.3,0h-0.4v0.7h0.5c0.1,0,0.2,0,0.2,0c0,0,0.1,0,0.1-0.1
	c0.1,0,0.1-0.1,0.1-0.1C218.5,29.9,218.5,29.9,218.5,29.8z M218.7,30.9c0-0.1,0-0.2,0-0.2c0-0.1-0.1-0.1-0.2-0.1c-0.1,0-0.1,0-0.2,0
	c-0.1,0-0.1,0-0.3,0h-0.5v0.8h0.4c0.2,0,0.3,0,0.4,0c0.1,0,0.2,0,0.2-0.1c0.1,0,0.1-0.1,0.1-0.1C218.6,31.1,218.7,31,218.7,30.9z
	 M222.8,29.5c0.1,0.1,0.2,0.2,0.2,0.4c0.1,0.2,0.1,0.3,0.1,0.5c0,0.2,0,0.4-0.1,0.5c-0.1,0.2-0.1,0.3-0.3,0.4
	c-0.1,0.1-0.2,0.2-0.4,0.3c-0.1,0.1-0.3,0.1-0.4,0.1c-0.2,0-0.3,0-0.4-0.1c-0.1-0.1-0.2-0.1-0.3-0.3c-0.1-0.1-0.2-0.3-0.3-0.5
	c-0.1-0.2-0.1-0.5-0.1-0.8c0-0.1,0-0.2,0-0.3c0-0.1,0-0.3,0.1-0.4c0-0.1,0.1-0.3,0.1-0.4c0.1-0.1,0.1-0.2,0.2-0.3
	c0.1-0.1,0.2-0.2,0.4-0.3c0.2-0.1,0.4-0.1,0.7-0.1c0.1,0,0.2,0,0.3,0c0.1,0,0.2,0,0.3,0v0.4c-0.1,0-0.2,0-0.3,0c-0.1,0-0.2,0-0.3,0
	c-0.2,0-0.3,0-0.5,0.1c-0.2,0-0.3,0.1-0.4,0.2c-0.1,0.1-0.1,0.2-0.2,0.3c0,0.1-0.1,0.3-0.1,0.4c0.1-0.1,0.2-0.1,0.4-0.2
	c0.1-0.1,0.3-0.1,0.4-0.1c0.1,0,0.3,0,0.4,0.1C222.6,29.4,222.7,29.4,222.8,29.5z M222.7,30.5c0-0.3-0.1-0.5-0.2-0.6
	c-0.1-0.1-0.3-0.2-0.5-0.2c-0.1,0-0.2,0-0.4,0.1c-0.1,0-0.2,0.1-0.3,0.2c0,0,0,0.1,0,0.1c0,0.1,0,0.1,0,0.1c0,0.3,0,0.5,0.1,0.6
	c0,0.2,0.1,0.3,0.2,0.4c0.1,0.1,0.1,0.1,0.2,0.2c0.1,0,0.2,0,0.2,0c0.2,0,0.4-0.1,0.5-0.2C222.6,31,222.7,30.8,222.7,30.5z
	 M225.7,30.4c0,0.4-0.1,0.8-0.3,1c-0.2,0.3-0.5,0.4-0.8,0.4c-0.1,0-0.2,0-0.3,0c-0.1,0-0.2-0.1-0.3-0.1v1.1h-0.4v-3.5h0.4v0.3
	c0.1-0.1,0.2-0.2,0.4-0.2c0.1-0.1,0.3-0.1,0.4-0.1c0.3,0,0.5,0.1,0.7,0.3C225.7,29.7,225.7,30,225.7,30.4z M225.3,30.4
	c0-0.3,0-0.5-0.1-0.7c-0.1-0.2-0.2-0.2-0.5-0.2c-0.1,0-0.2,0-0.4,0.1c-0.1,0.1-0.2,0.1-0.3,0.2v1.4c0.1,0.1,0.2,0.1,0.3,0.1
	c0.1,0,0.2,0,0.3,0c0.2,0,0.4-0.1,0.5-0.2C225.2,31,225.3,30.7,225.3,30.4z M228.2,31.7h-0.4v-1.9l-1.2,1.9h-0.4v-2.6h0.4V31
	l1.2-1.9h0.4V31.7z M230.5,29.5h-1.2v2.2h-0.4v-2.6h1.6V29.5z M232.2,31.1v-0.7c-0.1,0-0.2,0-0.4,0c-0.2,0-0.3,0-0.4,0.1
	c-0.1,0-0.2,0.1-0.3,0.2c-0.1,0.1-0.1,0.2-0.1,0.3c0,0.1,0,0.3,0.1,0.3c0.1,0.1,0.2,0.1,0.4,0.1c0.1,0,0.3,0,0.4-0.1
	C232,31.2,232.1,31.2,232.2,31.1z M232.2,31.4c0,0-0.1,0.1-0.1,0.1c-0.1,0-0.1,0.1-0.2,0.1c-0.1,0-0.2,0.1-0.2,0.1
	c-0.1,0-0.2,0-0.3,0c-0.1,0-0.2,0-0.3-0.1c-0.1,0-0.2-0.1-0.2-0.2c-0.1-0.1-0.1-0.2-0.2-0.3c0-0.1-0.1-0.2-0.1-0.3
	c0-0.2,0-0.3,0.1-0.5c0.1-0.1,0.2-0.2,0.4-0.3c0.1-0.1,0.3-0.1,0.5-0.1c0.2,0,0.4,0,0.6-0.1v-0.1c0-0.1,0-0.2,0-0.2
	c0-0.1-0.1-0.1-0.1-0.1c-0.1,0-0.1-0.1-0.2-0.1c-0.1,0-0.2,0-0.2,0c-0.1,0-0.2,0-0.4,0c-0.1,0-0.3,0.1-0.4,0.1h0v-0.4
	c0.1,0,0.2,0,0.3-0.1s0.3,0,0.4,0c0.2,0,0.3,0,0.4,0c0.1,0,0.2,0.1,0.3,0.1c0.1,0.1,0.2,0.2,0.2,0.3c0,0.1,0.1,0.2,0.1,0.4v1.7h-0.4
	V31.4z M235.4,32.3H235v-0.6h-1.7v0.6h-0.4v-1h0.2c0.1-0.2,0.3-0.5,0.4-0.9c0.1-0.4,0.1-0.8,0.1-1.3h1.6v2.2h0.3V32.3z M234.7,31.3
	v-1.8H234c0,0.4-0.1,0.7-0.2,1c-0.1,0.3-0.2,0.6-0.3,0.8H234.7z M237,31.8c-0.4,0-0.7-0.1-0.9-0.3c-0.2-0.2-0.3-0.6-0.3-1
	c0-0.4,0.1-0.7,0.3-1c0.2-0.2,0.5-0.4,0.9-0.4c0.2,0,0.3,0,0.4,0.1c0.1,0,0.2,0.1,0.3,0.2c0.1,0.1,0.2,0.2,0.2,0.4
	c0,0.1,0.1,0.3,0.1,0.5v0.2h-1.8c0,0.3,0.1,0.5,0.2,0.7c0.1,0.2,0.4,0.2,0.6,0.2c0.1,0,0.2,0,0.3,0c0.1,0,0.2,0,0.2-0.1
	c0.1,0,0.1-0.1,0.2-0.1c0.1,0,0.1-0.1,0.1-0.1h0v0.5c-0.1,0-0.1,0-0.2,0.1c-0.1,0-0.1,0.1-0.2,0.1c-0.1,0-0.2,0-0.2,0.1
	C237.2,31.8,237.1,31.8,237,31.8z M237.5,30.1c0-0.1,0-0.2,0-0.3c0-0.1-0.1-0.2-0.1-0.2c-0.1-0.1-0.1-0.1-0.2-0.1
	c-0.1,0-0.2-0.1-0.3-0.1c-0.1,0-0.2,0-0.3,0.1c-0.1,0-0.2,0.1-0.2,0.1c-0.1,0.1-0.1,0.1-0.1,0.2c0,0.1-0.1,0.2-0.1,0.3H237.5z"/>
<path class="st8" d="M199.4,43.1c0.1,0.1,0.2,0.3,0.3,0.6c0.1,0.2,0.1,0.5,0.1,0.8c0,0.3,0,0.5-0.1,0.7c-0.1,0.2-0.2,0.4-0.3,0.6
	c-0.1,0.2-0.3,0.3-0.5,0.4c-0.2,0.1-0.4,0.1-0.6,0.1c-0.2,0-0.4,0-0.6-0.1c-0.2-0.1-0.3-0.2-0.5-0.3c-0.1-0.2-0.2-0.3-0.3-0.6
	c-0.1-0.2-0.1-0.5-0.1-0.8c0-0.3,0-0.5,0.1-0.8c0.1-0.2,0.2-0.4,0.3-0.6c0.1-0.2,0.3-0.3,0.5-0.3c0.2-0.1,0.4-0.1,0.6-0.1
	c0.2,0,0.4,0,0.6,0.1C199.1,42.9,199.3,43,199.4,43.1z M199.3,44.4c0-0.2,0-0.4-0.1-0.6c0-0.2-0.1-0.3-0.2-0.4
	c-0.1-0.1-0.2-0.2-0.3-0.3c-0.1-0.1-0.3-0.1-0.4-0.1c-0.2,0-0.3,0-0.4,0.1c-0.1,0.1-0.2,0.1-0.3,0.3c-0.1,0.1-0.2,0.3-0.2,0.4
	c0,0.2-0.1,0.4-0.1,0.6c0,0.4,0.1,0.8,0.3,1c0.2,0.2,0.4,0.4,0.8,0.4c0.3,0,0.6-0.1,0.8-0.4C199.2,45.2,199.3,44.9,199.3,44.4z
	 M201.3,46.2c-0.2,0-0.3,0-0.5-0.1c-0.1-0.1-0.3-0.1-0.4-0.2c-0.1-0.1-0.2-0.2-0.2-0.4c-0.1-0.2-0.1-0.4-0.1-0.6
	c0-0.2,0-0.4,0.1-0.6c0.1-0.2,0.1-0.3,0.2-0.4c0.1-0.1,0.2-0.2,0.4-0.3c0.2-0.1,0.3-0.1,0.5-0.1c0.1,0,0.3,0,0.4,0.1
	c0.1,0,0.2,0.1,0.4,0.1v0.5h0c0,0-0.1-0.1-0.1-0.1c0,0-0.1-0.1-0.2-0.1c-0.1,0-0.1-0.1-0.2-0.1c-0.1,0-0.2,0-0.2,0
	c-0.2,0-0.4,0.1-0.5,0.3c-0.1,0.2-0.2,0.4-0.2,0.7c0,0.3,0.1,0.5,0.2,0.7c0.1,0.2,0.3,0.3,0.5,0.3c0.1,0,0.3,0,0.4-0.1
	c0.1-0.1,0.2-0.1,0.3-0.2h0V46c0,0-0.1,0-0.2,0.1c-0.1,0-0.1,0-0.2,0.1c-0.1,0-0.1,0-0.2,0C201.4,46.2,201.4,46.2,201.3,46.2z
	 M204.4,46.1H204V45h-1.2v1.2h-0.4v-2.6h0.4v1h1.2v-1h0.4V46.1z M207.2,44.9c0,0.4-0.1,0.8-0.3,1c-0.2,0.2-0.5,0.4-0.8,0.4
	c-0.4,0-0.6-0.1-0.8-0.4c-0.2-0.2-0.3-0.6-0.3-1c0-0.4,0.1-0.8,0.3-1c0.2-0.2,0.5-0.4,0.8-0.4c0.3,0,0.6,0.1,0.8,0.4
	C207.1,44.1,207.2,44.4,207.2,44.9z M206.7,44.9c0-0.3-0.1-0.6-0.2-0.7c-0.1-0.2-0.3-0.2-0.5-0.2c-0.2,0-0.4,0.1-0.5,0.2
	c-0.1,0.2-0.2,0.4-0.2,0.7c0,0.3,0.1,0.6,0.2,0.7c0.1,0.2,0.3,0.2,0.5,0.2c0.2,0,0.4-0.1,0.5-0.2C206.7,45.4,206.7,45.2,206.7,44.9z
	 M209.6,45.4c0,0.1,0,0.2-0.1,0.3c0,0.1-0.1,0.2-0.2,0.2c-0.1,0.1-0.2,0.1-0.3,0.2c-0.1,0-0.2,0-0.4,0h-1v-2.6h0.9
	c0.2,0,0.3,0,0.4,0c0.1,0,0.2,0,0.3,0.1c0.1,0,0.2,0.1,0.2,0.2c0,0.1,0.1,0.2,0.1,0.3c0,0.1,0,0.2-0.1,0.3c-0.1,0.1-0.2,0.2-0.3,0.2
	l0,0c0.1,0,0.3,0.1,0.3,0.2C209.6,45.1,209.6,45.2,209.6,45.4z M209,44.2c0-0.1,0-0.1,0-0.2c0,0-0.1-0.1-0.1-0.1
	c-0.1,0-0.1,0-0.2-0.1c-0.1,0-0.2,0-0.3,0H208v0.7h0.5c0.1,0,0.2,0,0.2,0c0,0,0.1,0,0.1-0.1c0.1,0,0.1-0.1,0.1-0.1
	C209,44.4,209,44.3,209,44.2z M209.2,45.4c0-0.1,0-0.2,0-0.2c0-0.1-0.1-0.1-0.2-0.1c-0.1,0-0.1,0-0.2,0c-0.1,0-0.1,0-0.3,0H208v0.8
	h0.4c0.2,0,0.3,0,0.4,0c0.1,0,0.2,0,0.2-0.1c0.1,0,0.1-0.1,0.1-0.1C209.2,45.5,209.2,45.4,209.2,45.4z M212.1,46.1h-0.4V45h-1.2v1.2
	h-0.4v-2.6h0.4v1h1.2v-1h0.4V46.1z M214.8,44.9c0,0.4-0.1,0.8-0.3,1c-0.2,0.2-0.5,0.4-0.8,0.4c-0.4,0-0.6-0.1-0.8-0.4
	c-0.2-0.2-0.3-0.6-0.3-1c0-0.4,0.1-0.8,0.3-1c0.2-0.2,0.5-0.4,0.8-0.4c0.3,0,0.6,0.1,0.8,0.4C214.7,44.1,214.8,44.4,214.8,44.9z
	 M214.4,44.9c0-0.3-0.1-0.6-0.2-0.7c-0.1-0.2-0.3-0.2-0.5-0.2c-0.2,0-0.4,0.1-0.5,0.2c-0.1,0.2-0.2,0.4-0.2,0.7
	c0,0.3,0.1,0.6,0.2,0.7c0.1,0.2,0.3,0.2,0.5,0.2c0.2,0,0.4-0.1,0.5-0.2C214.3,45.4,214.4,45.2,214.4,44.9z M217.3,46.1h-0.4v-1.9
	l-1.2,1.9h-0.4v-2.6h0.4v1.9l1.2-1.9h0.4V46.1z M217.1,42.4c0,0.1,0,0.3,0,0.4c0,0.1-0.1,0.2-0.1,0.3c-0.1,0.1-0.1,0.1-0.2,0.2
	c-0.1,0-0.2,0.1-0.3,0.1c-0.1,0-0.2,0-0.3-0.1c-0.1,0-0.2-0.1-0.2-0.2c-0.1-0.1-0.1-0.2-0.1-0.3c0-0.1,0-0.2,0-0.4h0.4
	c0,0.2,0,0.4,0.1,0.4c0.1,0.1,0.2,0.1,0.3,0.1c0.1,0,0.2,0,0.3-0.1c0.1-0.1,0.1-0.2,0.1-0.4H217.1z M220.4,46.2
	c-0.2,0-0.3,0-0.5-0.1c-0.1-0.1-0.3-0.1-0.4-0.2c-0.1-0.1-0.2-0.2-0.2-0.4c-0.1-0.2-0.1-0.4-0.1-0.6c0-0.2,0-0.4,0.1-0.6
	c0.1-0.2,0.1-0.3,0.2-0.4c0.1-0.1,0.2-0.2,0.4-0.3c0.2-0.1,0.3-0.1,0.5-0.1c0.1,0,0.3,0,0.4,0.1c0.1,0,0.2,0.1,0.4,0.1v0.5h0
	c0,0-0.1-0.1-0.1-0.1c0,0-0.1-0.1-0.2-0.1c-0.1,0-0.1-0.1-0.2-0.1c-0.1,0-0.2,0-0.2,0c-0.2,0-0.4,0.1-0.5,0.3
	c-0.1,0.2-0.2,0.4-0.2,0.7c0,0.3,0.1,0.5,0.2,0.7c0.1,0.2,0.3,0.3,0.5,0.3c0.1,0,0.3,0,0.4-0.1c0.1-0.1,0.2-0.1,0.3-0.2h0V46
	c0,0-0.1,0-0.2,0.1c-0.1,0-0.1,0-0.2,0.1c-0.1,0-0.1,0-0.2,0C220.5,46.2,220.5,46.2,220.4,46.2z M223.6,44.9c0,0.4-0.1,0.8-0.3,1
	c-0.2,0.2-0.5,0.4-0.8,0.4c-0.4,0-0.6-0.1-0.8-0.4c-0.2-0.2-0.3-0.6-0.3-1c0-0.4,0.1-0.8,0.3-1c0.2-0.2,0.5-0.4,0.8-0.4
	c0.3,0,0.6,0.1,0.8,0.4C223.5,44.1,223.6,44.4,223.6,44.9z M223.2,44.9c0-0.3-0.1-0.6-0.2-0.7c-0.1-0.2-0.3-0.2-0.5-0.2
	c-0.2,0-0.4,0.1-0.5,0.2c-0.1,0.2-0.2,0.4-0.2,0.7c0,0.3,0.1,0.6,0.2,0.7c0.1,0.2,0.3,0.2,0.5,0.2c0.2,0,0.4-0.1,0.5-0.2
	C223.1,45.4,223.2,45.2,223.2,44.9z M225.1,46.2c-0.2,0-0.3,0-0.5-0.1c-0.1-0.1-0.3-0.1-0.4-0.2c-0.1-0.1-0.2-0.2-0.2-0.4
	c-0.1-0.2-0.1-0.4-0.1-0.6c0-0.2,0-0.4,0.1-0.6c0.1-0.2,0.1-0.3,0.2-0.4c0.1-0.1,0.2-0.2,0.4-0.3c0.2-0.1,0.3-0.1,0.5-0.1
	c0.1,0,0.3,0,0.4,0.1c0.1,0,0.2,0.1,0.4,0.1v0.5h0c0,0-0.1-0.1-0.1-0.1c0,0-0.1-0.1-0.2-0.1c-0.1,0-0.1-0.1-0.2-0.1
	c-0.1,0-0.2,0-0.2,0c-0.2,0-0.4,0.1-0.5,0.3c-0.1,0.2-0.2,0.4-0.2,0.7c0,0.3,0.1,0.5,0.2,0.7c0.1,0.2,0.3,0.3,0.5,0.3
	c0.1,0,0.3,0,0.4-0.1c0.1-0.1,0.2-0.1,0.3-0.2h0V46c0,0-0.1,0-0.2,0.1c-0.1,0-0.1,0-0.2,0.1c-0.1,0-0.1,0-0.2,0
	C225.3,46.2,225.2,46.2,225.1,46.2z M228.1,44h-0.9v2.2h-0.4V44h-0.9v-0.4h2.2V44z M229.9,45.5v-0.7c-0.1,0-0.2,0-0.4,0
	c-0.2,0-0.3,0-0.4,0.1c-0.1,0-0.2,0.1-0.3,0.2c-0.1,0.1-0.1,0.2-0.1,0.3c0,0.1,0,0.3,0.1,0.3c0.1,0.1,0.2,0.1,0.4,0.1
	c0.1,0,0.3,0,0.4-0.1C229.7,45.7,229.8,45.6,229.9,45.5z M229.9,45.9c0,0-0.1,0.1-0.1,0.1c-0.1,0-0.1,0.1-0.2,0.1
	c-0.1,0-0.2,0.1-0.2,0.1c-0.1,0-0.2,0-0.3,0c-0.1,0-0.2,0-0.3-0.1c-0.1,0-0.2-0.1-0.2-0.2c-0.1-0.1-0.1-0.2-0.2-0.3
	c0-0.1-0.1-0.2-0.1-0.3c0-0.2,0-0.3,0.1-0.5c0.1-0.1,0.2-0.2,0.4-0.3c0.1-0.1,0.3-0.1,0.5-0.1c0.2,0,0.4,0,0.6-0.1v-0.1
	c0-0.1,0-0.2,0-0.2c0-0.1-0.1-0.1-0.1-0.1c-0.1,0-0.1-0.1-0.2-0.1c-0.1,0-0.2,0-0.2,0c-0.1,0-0.2,0-0.4,0c-0.1,0-0.3,0.1-0.4,0.1h0
	v-0.4c0.1,0,0.2,0,0.3-0.1c0.1,0,0.3,0,0.4,0c0.2,0,0.3,0,0.4,0c0.1,0,0.2,0.1,0.3,0.1c0.1,0.1,0.2,0.2,0.2,0.3
	c0,0.1,0.1,0.2,0.1,0.4v1.7h-0.4V45.9z M232.9,45.4c0,0.1,0,0.2-0.1,0.3c0,0.1-0.1,0.2-0.2,0.2c-0.1,0.1-0.2,0.1-0.3,0.2
	c-0.1,0-0.2,0-0.4,0h-1v-2.6h0.9c0.2,0,0.3,0,0.4,0c0.1,0,0.2,0,0.3,0.1c0.1,0,0.2,0.1,0.2,0.2c0,0.1,0.1,0.2,0.1,0.3
	c0,0.1,0,0.2-0.1,0.3c-0.1,0.1-0.2,0.2-0.3,0.2l0,0c0.1,0,0.3,0.1,0.3,0.2C232.8,45.1,232.9,45.2,232.9,45.4z M232.3,44.2
	c0-0.1,0-0.1,0-0.2c0,0-0.1-0.1-0.1-0.1c-0.1,0-0.1,0-0.2-0.1c-0.1,0-0.2,0-0.3,0h-0.4v0.7h0.5c0.1,0,0.2,0,0.2,0c0,0,0.1,0,0.1-0.1
	c0.1,0,0.1-0.1,0.1-0.1C232.3,44.4,232.3,44.3,232.3,44.2z M232.4,45.4c0-0.1,0-0.2,0-0.2c0-0.1-0.1-0.1-0.2-0.1c-0.1,0-0.1,0-0.2,0
	c-0.1,0-0.1,0-0.3,0h-0.5v0.8h0.4c0.2,0,0.3,0,0.4,0c0.1,0,0.2,0,0.2-0.1c0.1,0,0.1-0.1,0.1-0.1C232.4,45.5,232.4,45.4,232.4,45.4z
	 M236.6,44c0.1,0.1,0.2,0.2,0.2,0.4c0.1,0.2,0.1,0.3,0.1,0.5c0,0.2,0,0.4-0.1,0.5c-0.1,0.2-0.1,0.3-0.3,0.4
	c-0.1,0.1-0.2,0.2-0.4,0.3c-0.1,0.1-0.3,0.1-0.4,0.1c-0.2,0-0.3,0-0.4-0.1c-0.1-0.1-0.2-0.1-0.3-0.3c-0.1-0.1-0.2-0.3-0.3-0.5
	c-0.1-0.2-0.1-0.5-0.1-0.8c0-0.1,0-0.2,0-0.3c0-0.1,0-0.3,0.1-0.4c0-0.1,0.1-0.3,0.1-0.4c0.1-0.1,0.1-0.2,0.2-0.3
	c0.1-0.1,0.2-0.2,0.4-0.3c0.2-0.1,0.4-0.1,0.7-0.1c0.1,0,0.2,0,0.3,0c0.1,0,0.2,0,0.3,0v0.4c-0.1,0-0.2,0-0.3,0c-0.1,0-0.2,0-0.3,0
	c-0.2,0-0.3,0-0.5,0.1c-0.2,0-0.3,0.1-0.4,0.2c-0.1,0.1-0.1,0.2-0.2,0.3c0,0.1-0.1,0.3-0.1,0.4c0.1-0.1,0.2-0.1,0.4-0.2
	c0.1-0.1,0.3-0.1,0.4-0.1c0.1,0,0.3,0,0.4,0.1C236.4,43.8,236.5,43.9,236.6,44z M236.5,44.9c0-0.3-0.1-0.5-0.2-0.6
	c-0.1-0.1-0.3-0.2-0.5-0.2c-0.1,0-0.2,0-0.4,0.1c-0.1,0-0.2,0.1-0.3,0.2c0,0,0,0.1,0,0.1c0,0.1,0,0.1,0,0.1c0,0.3,0,0.5,0.1,0.6
	c0,0.2,0.1,0.3,0.2,0.4c0.1,0.1,0.1,0.1,0.2,0.2c0.1,0,0.2,0,0.2,0c0.2,0,0.4-0.1,0.5-0.2C236.4,45.4,236.5,45.2,236.5,44.9z
	 M239.5,44.8c0,0.4-0.1,0.8-0.3,1c-0.2,0.3-0.5,0.4-0.8,0.4c-0.1,0-0.2,0-0.3,0c-0.1,0-0.2-0.1-0.3-0.1v1.1h-0.4v-3.5h0.4v0.3
	c0.1-0.1,0.2-0.2,0.4-0.2c0.1-0.1,0.3-0.1,0.4-0.1c0.3,0,0.5,0.1,0.7,0.3C239.4,44.1,239.5,44.4,239.5,44.8z M239.1,44.8
	c0-0.3,0-0.5-0.1-0.7c-0.1-0.2-0.2-0.2-0.5-0.2c-0.1,0-0.2,0-0.4,0.1c-0.1,0.1-0.2,0.1-0.3,0.2v1.4c0.1,0.1,0.2,0.1,0.3,0.1
	c0.1,0,0.2,0,0.3,0c0.2,0,0.4-0.1,0.5-0.2C239,45.4,239.1,45.1,239.1,44.8z M242,46.1h-0.4v-1.9l-1.2,1.9H240v-2.6h0.4v1.9l1.2-1.9
	h0.4V46.1z M244.2,44h-1.2v2.2h-0.4v-2.6h1.6V44z M246,45.5v-0.7c-0.1,0-0.2,0-0.4,0c-0.2,0-0.3,0-0.4,0.1c-0.1,0-0.2,0.1-0.3,0.2
	c-0.1,0.1-0.1,0.2-0.1,0.3c0,0.1,0,0.3,0.1,0.3c0.1,0.1,0.2,0.1,0.4,0.1c0.1,0,0.3,0,0.4-0.1C245.8,45.7,245.9,45.6,246,45.5z
	 M246,45.9c0,0-0.1,0.1-0.1,0.1c-0.1,0-0.1,0.1-0.2,0.1c-0.1,0-0.2,0.1-0.2,0.1c-0.1,0-0.2,0-0.3,0c-0.1,0-0.2,0-0.3-0.1
	c-0.1,0-0.2-0.1-0.2-0.2c-0.1-0.1-0.1-0.2-0.2-0.3c0-0.1-0.1-0.2-0.1-0.3c0-0.2,0-0.3,0.1-0.5c0.1-0.1,0.2-0.2,0.4-0.3
	c0.1-0.1,0.3-0.1,0.5-0.1c0.2,0,0.4,0,0.6-0.1v-0.1c0-0.1,0-0.2,0-0.2c0-0.1-0.1-0.1-0.1-0.1c-0.1,0-0.1-0.1-0.2-0.1
	c-0.1,0-0.2,0-0.2,0c-0.1,0-0.2,0-0.4,0c-0.1,0-0.3,0.1-0.4,0.1h0v-0.4c0.1,0,0.2,0,0.3-0.1c0.1,0,0.3,0,0.4,0c0.2,0,0.3,0,0.4,0
	c0.1,0,0.2,0.1,0.3,0.1c0.1,0.1,0.2,0.2,0.2,0.3c0,0.1,0.1,0.2,0.1,0.4v1.7H246V45.9z M249.2,46.7h-0.4v-0.6h-1.7v0.6h-0.4v-1h0.2
	c0.1-0.2,0.3-0.5,0.4-0.9c0.1-0.4,0.1-0.8,0.1-1.3h1.6v2.2h0.3V46.7z M248.5,45.8v-1.8h-0.7c0,0.4-0.1,0.7-0.2,1
	c-0.1,0.3-0.2,0.6-0.3,0.8H248.5z M251.5,45.3c0,0.1,0,0.2-0.1,0.3c0,0.1-0.1,0.2-0.2,0.2c-0.1,0.1-0.2,0.1-0.3,0.2
	c-0.1,0-0.3,0-0.4,0h-0.9v-2.6h0.4v1h0.4c0.2,0,0.3,0,0.4,0c0.1,0,0.2,0.1,0.3,0.1c0.1,0.1,0.2,0.1,0.2,0.3
	C251.5,45.1,251.5,45.2,251.5,45.3z M251.1,45.3c0-0.1,0-0.1,0-0.2c0-0.1-0.1-0.1-0.1-0.1c-0.1,0-0.1-0.1-0.2-0.1
	c-0.1,0-0.2,0-0.4,0h-0.3v0.9h0.3c0.2,0,0.3,0,0.4,0c0.1,0,0.2,0,0.2-0.1c0.1,0,0.1-0.1,0.1-0.1C251.1,45.5,251.1,45.4,251.1,45.3z
	 M252.3,46.1h-0.4v-2.6h0.4V46.1z"/>
<path class="st9" d="M203.2,83.7c3.1,0,5.6-2.5,5.6-5.6c0-3.1-2.5-5.6-5.6-5.6c-3.1,0-5.6,2.5-5.6,5.6
	C197.6,81.2,200.1,83.7,203.2,83.7z"/>
<path class="st2" d="M217.9,76.9h-0.5v-3.2l-1.8,3.2h-0.5v-4h0.5v3.1l1.8-3.1h0.6V76.9z M221,76c0,0.1,0,0.3-0.1,0.4
	c-0.1,0.1-0.1,0.2-0.2,0.3c-0.1,0.1-0.2,0.2-0.4,0.2c-0.1,0-0.3,0-0.5,0h-1.2v-3h1.1c0.2,0,0.4,0,0.5,0c0.1,0,0.2,0,0.3,0.1
	c0.1,0.1,0.2,0.1,0.2,0.2c0,0.1,0.1,0.2,0.1,0.3c0,0.1,0,0.3-0.1,0.4c-0.1,0.1-0.2,0.2-0.3,0.3l0,0c0.2,0,0.3,0.1,0.4,0.2
	C221,75.7,221,75.8,221,76z M220.4,74.7c0-0.1,0-0.1,0-0.2c0-0.1-0.1-0.1-0.1-0.1c-0.1,0-0.1-0.1-0.2-0.1c-0.1,0-0.2,0-0.3,0h-0.5
	v0.8h0.6c0.1,0,0.2,0,0.3,0c0.1,0,0.1,0,0.2-0.1c0.1,0,0.1-0.1,0.1-0.1C220.4,74.9,220.4,74.8,220.4,74.7z M220.5,76
	c0-0.1,0-0.2,0-0.2c0-0.1-0.1-0.1-0.2-0.2c-0.1,0-0.1,0-0.2-0.1c-0.1,0-0.2,0-0.3,0h-0.6v1h0.4c0.2,0,0.3,0,0.4,0
	c0.1,0,0.2,0,0.3-0.1c0.1,0,0.1-0.1,0.2-0.2C220.5,76.2,220.5,76.1,220.5,76z M223.2,76.2v-0.8c-0.1,0-0.3,0-0.5,0
	c-0.2,0-0.3,0-0.4,0.1c-0.1,0-0.2,0.1-0.3,0.2c-0.1,0.1-0.1,0.2-0.1,0.4c0,0.2,0,0.3,0.1,0.4s0.2,0.1,0.4,0.1c0.2,0,0.3,0,0.4-0.1
	C223,76.4,223.1,76.3,223.2,76.2z M223.2,76.6c0,0-0.1,0.1-0.2,0.1c-0.1,0.1-0.1,0.1-0.2,0.1c-0.1,0-0.2,0.1-0.3,0.1
	c-0.1,0-0.2,0-0.3,0c-0.1,0-0.2,0-0.3-0.1c-0.1,0-0.2-0.1-0.3-0.2c-0.1-0.1-0.1-0.2-0.2-0.3c0-0.1-0.1-0.2-0.1-0.4
	c0-0.2,0-0.4,0.1-0.5c0.1-0.1,0.2-0.3,0.4-0.3c0.2-0.1,0.4-0.1,0.6-0.2c0.2,0,0.5-0.1,0.7-0.1v-0.1c0-0.1,0-0.2-0.1-0.3
	c0-0.1-0.1-0.1-0.1-0.2c-0.1,0-0.1-0.1-0.2-0.1c-0.1,0-0.2,0-0.3,0c-0.1,0-0.3,0-0.4,0.1c-0.2,0-0.3,0.1-0.5,0.1h0V74
	c0.1,0,0.2-0.1,0.4-0.1c0.2,0,0.3,0,0.5,0c0.2,0,0.4,0,0.5,0s0.3,0.1,0.4,0.2c0.1,0.1,0.2,0.2,0.2,0.3c0.1,0.1,0.1,0.3,0.1,0.5v2
	h-0.5V76.6z M226.8,76.9h-0.5v-1.3h-1.4v1.3h-0.5v-3h0.5v1.2h1.4V74h0.5V76.9z M230,75.4c0,0.5-0.1,0.9-0.4,1.2
	c-0.2,0.3-0.6,0.4-1,0.4c-0.4,0-0.7-0.1-1-0.4c-0.2-0.3-0.4-0.7-0.4-1.2c0-0.5,0.1-0.9,0.4-1.2c0.2-0.3,0.6-0.4,1-0.4
	c0.4,0,0.7,0.1,1,0.4C229.9,74.6,230,74.9,230,75.4z M229.5,75.4c0-0.4-0.1-0.7-0.2-0.9c-0.1-0.2-0.3-0.3-0.6-0.3
	c-0.3,0-0.5,0.1-0.6,0.3c-0.1,0.2-0.2,0.5-0.2,0.9c0,0.4,0.1,0.7,0.2,0.9c0.1,0.2,0.3,0.3,0.6,0.3c0.3,0,0.5-0.1,0.6-0.3
	C229.4,76.1,229.5,75.8,229.5,75.4z M232.8,76c0,0.1,0,0.3-0.1,0.4c-0.1,0.1-0.1,0.2-0.2,0.3c-0.1,0.1-0.2,0.2-0.4,0.2
	c-0.1,0-0.3,0-0.5,0h-1.2v-3h1.1c0.2,0,0.4,0,0.5,0c0.1,0,0.2,0,0.3,0.1c0.1,0.1,0.2,0.1,0.2,0.2c0,0.1,0.1,0.2,0.1,0.3
	c0,0.1,0,0.3-0.1,0.4c-0.1,0.1-0.2,0.2-0.3,0.3l0,0c0.2,0,0.3,0.1,0.4,0.2C232.8,75.7,232.8,75.8,232.8,76z M232.2,74.7
	c0-0.1,0-0.1,0-0.2c0-0.1-0.1-0.1-0.1-0.1c-0.1,0-0.1-0.1-0.2-0.1c-0.1,0-0.2,0-0.3,0H231v0.8h0.6c0.1,0,0.2,0,0.3,0
	c0.1,0,0.1,0,0.2-0.1c0.1,0,0.1-0.1,0.1-0.1C232.2,74.9,232.2,74.8,232.2,74.7z M232.3,76c0-0.1,0-0.2,0-0.2c0-0.1-0.1-0.1-0.2-0.2
	c-0.1,0-0.1,0-0.2-0.1c-0.1,0-0.2,0-0.3,0H231v1h0.4c0.2,0,0.3,0,0.4,0c0.1,0,0.2,0,0.3-0.1c0.1,0,0.1-0.1,0.2-0.2
	C232.3,76.2,232.3,76.1,232.3,76z M238,76.9h-0.5v-3.2l-1.8,3.2h-0.5v-4h0.5v3.1l1.8-3.1h0.6V76.9z M241.1,76c0,0.1,0,0.3-0.1,0.4
	c-0.1,0.1-0.1,0.2-0.2,0.3c-0.1,0.1-0.2,0.2-0.4,0.2c-0.1,0-0.3,0-0.5,0h-1.2v-3h1.1c0.2,0,0.4,0,0.5,0c0.1,0,0.2,0,0.3,0.1
	c0.1,0.1,0.2,0.1,0.2,0.2c0,0.1,0.1,0.2,0.1,0.3c0,0.1,0,0.3-0.1,0.4c-0.1,0.1-0.2,0.2-0.3,0.3l0,0c0.2,0,0.3,0.1,0.4,0.2
	C241,75.7,241.1,75.8,241.1,76z M240.4,74.7c0-0.1,0-0.1,0-0.2c0-0.1-0.1-0.1-0.1-0.1c-0.1,0-0.1-0.1-0.2-0.1c-0.1,0-0.2,0-0.3,0
	h-0.5v0.8h0.6c0.1,0,0.2,0,0.3,0c0.1,0,0.1,0,0.2-0.1c0.1,0,0.1-0.1,0.1-0.1C240.4,74.9,240.4,74.8,240.4,74.7z M240.6,76
	c0-0.1,0-0.2,0-0.2c0-0.1-0.1-0.1-0.2-0.2c-0.1,0-0.1,0-0.2-0.1c-0.1,0-0.2,0-0.3,0h-0.6v1h0.4c0.2,0,0.3,0,0.4,0
	c0.1,0,0.2,0,0.3-0.1c0.1,0,0.1-0.1,0.2-0.2C240.5,76.2,240.6,76.1,240.6,76z M243.3,76.2v-0.8c-0.1,0-0.3,0-0.5,0
	c-0.2,0-0.3,0-0.4,0.1c-0.1,0-0.2,0.1-0.3,0.2c-0.1,0.1-0.1,0.2-0.1,0.4c0,0.2,0,0.3,0.1,0.4c0.1,0.1,0.2,0.1,0.4,0.1
	c0.2,0,0.3,0,0.4-0.1C243,76.4,243.2,76.3,243.3,76.2z M243.3,76.6c0,0-0.1,0.1-0.2,0.1c-0.1,0.1-0.1,0.1-0.2,0.1
	c-0.1,0-0.2,0.1-0.3,0.1c-0.1,0-0.2,0-0.3,0c-0.1,0-0.2,0-0.4-0.1c-0.1,0-0.2-0.1-0.3-0.2c-0.1-0.1-0.1-0.2-0.2-0.3
	c0-0.1-0.1-0.2-0.1-0.4c0-0.2,0-0.4,0.1-0.5c0.1-0.1,0.2-0.3,0.4-0.3c0.2-0.1,0.4-0.1,0.6-0.2c0.2,0,0.5-0.1,0.7-0.1v-0.1
	c0-0.1,0-0.2-0.1-0.3c0-0.1-0.1-0.1-0.1-0.2c-0.1,0-0.1-0.1-0.2-0.1c-0.1,0-0.2,0-0.3,0c-0.1,0-0.3,0-0.4,0.1
	c-0.2,0-0.3,0.1-0.5,0.1h0V74c0.1,0,0.2-0.1,0.4-0.1s0.3,0,0.5,0c0.2,0,0.4,0,0.5,0c0.1,0,0.3,0.1,0.4,0.2c0.1,0.1,0.2,0.2,0.2,0.3
	c0.1,0.1,0.1,0.3,0.1,0.5v2h-0.5V76.6z M246.8,76.9h-0.5v-1.3H245v1.3h-0.5v-3h0.5v1.2h1.4V74h0.5V76.9z M252.2,76.9h-0.5v-3.2
	l-1.8,3.2h-0.5v-4h0.5v3.1l1.8-3.1h0.6V76.9z M255.3,76c0,0.1,0,0.3-0.1,0.4c-0.1,0.1-0.1,0.2-0.2,0.3c-0.1,0.1-0.2,0.2-0.4,0.2
	c-0.1,0-0.3,0-0.5,0h-1.2v-3h1.1c0.2,0,0.4,0,0.5,0c0.1,0,0.2,0,0.3,0.1c0.1,0.1,0.2,0.1,0.2,0.2c0.1,0.1,0.1,0.2,0.1,0.3
	c0,0.1,0,0.3-0.1,0.4c-0.1,0.1-0.2,0.2-0.3,0.3l0,0c0.2,0,0.3,0.1,0.4,0.2C255.2,75.7,255.3,75.8,255.3,76z M254.6,74.7
	c0-0.1,0-0.1,0-0.2c0-0.1-0.1-0.1-0.1-0.1c-0.1,0-0.1-0.1-0.2-0.1c-0.1,0-0.2,0-0.3,0h-0.5v0.8h0.6c0.1,0,0.2,0,0.3,0
	c0.1,0,0.1,0,0.2-0.1c0.1,0,0.1-0.1,0.1-0.1C254.6,74.9,254.6,74.8,254.6,74.7z M254.8,76c0-0.1,0-0.2,0-0.2c0-0.1-0.1-0.1-0.2-0.2
	c-0.1,0-0.1,0-0.2-0.1c-0.1,0-0.2,0-0.3,0h-0.6v1h0.4c0.2,0,0.3,0,0.4,0c0.1,0,0.2,0,0.3-0.1c0.1,0,0.1-0.1,0.2-0.2
	C254.7,76.2,254.8,76.1,254.8,76z M257.5,76.2v-0.8c-0.1,0-0.3,0-0.5,0c-0.2,0-0.3,0-0.4,0.1c-0.1,0-0.2,0.1-0.3,0.2
	c-0.1,0.1-0.1,0.2-0.1,0.4c0,0.2,0,0.3,0.1,0.4s0.2,0.1,0.4,0.1c0.2,0,0.3,0,0.4-0.1C257.2,76.4,257.4,76.3,257.5,76.2z M257.5,76.6
	c0,0-0.1,0.1-0.2,0.1c-0.1,0.1-0.1,0.1-0.2,0.1c-0.1,0-0.2,0.1-0.3,0.1c-0.1,0-0.2,0-0.3,0c-0.1,0-0.2,0-0.4-0.1
	c-0.1,0-0.2-0.1-0.3-0.2c-0.1-0.1-0.1-0.2-0.2-0.3c0-0.1-0.1-0.2-0.1-0.4c0-0.2,0-0.4,0.1-0.5c0.1-0.1,0.2-0.3,0.4-0.3
	c0.2-0.1,0.4-0.1,0.6-0.2c0.2,0,0.5-0.1,0.7-0.1v-0.1c0-0.1,0-0.2-0.1-0.3c0-0.1-0.1-0.1-0.1-0.2c-0.1,0-0.1-0.1-0.2-0.1
	c-0.1,0-0.2,0-0.3,0c-0.1,0-0.3,0-0.4,0.1c-0.2,0-0.3,0.1-0.5,0.1h0V74c0.1,0,0.2-0.1,0.4-0.1s0.3,0,0.5,0c0.2,0,0.4,0,0.5,0
	c0.1,0,0.3,0.1,0.4,0.2c0.1,0.1,0.2,0.2,0.2,0.3c0.1,0.1,0.1,0.3,0.1,0.5v2h-0.5V76.6z M261,76.9h-0.5v-1.3h-1.4v1.3h-0.5v-3h0.5
	v1.2h1.4V74h0.5V76.9z M264.2,75.4c0,0.5-0.1,0.9-0.4,1.2c-0.2,0.3-0.6,0.4-1,0.4c-0.4,0-0.7-0.1-1-0.4c-0.2-0.3-0.4-0.7-0.4-1.2
	c0-0.5,0.1-0.9,0.4-1.2c0.2-0.3,0.6-0.4,1-0.4c0.4,0,0.7,0.1,1,0.4C264.1,74.6,264.2,74.9,264.2,75.4z M263.7,75.4
	c0-0.4-0.1-0.7-0.2-0.9c-0.1-0.2-0.3-0.3-0.6-0.3c-0.3,0-0.5,0.1-0.6,0.3c-0.1,0.2-0.2,0.5-0.2,0.9c0,0.4,0.1,0.7,0.2,0.9
	c0.1,0.2,0.3,0.3,0.6,0.3c0.3,0,0.5-0.1,0.6-0.3C263.6,76.1,263.7,75.8,263.7,75.4z M267.1,76c0,0.1,0,0.3-0.1,0.4
	c-0.1,0.1-0.1,0.2-0.2,0.3c-0.1,0.1-0.2,0.2-0.4,0.2c-0.1,0-0.3,0-0.5,0h-1.2v-3h1.1c0.2,0,0.4,0,0.5,0c0.1,0,0.2,0,0.3,0.1
	c0.1,0.1,0.2,0.1,0.2,0.2c0,0.1,0.1,0.2,0.1,0.3c0,0.1,0,0.3-0.1,0.4c-0.1,0.1-0.2,0.2-0.3,0.3l0,0c0.2,0,0.3,0.1,0.4,0.2
	C267,75.7,267.1,75.8,267.1,76z M266.4,74.7c0-0.1,0-0.1,0-0.2c0-0.1-0.1-0.1-0.1-0.1c-0.1,0-0.1-0.1-0.2-0.1c-0.1,0-0.2,0-0.3,0
	h-0.5v0.8h0.6c0.1,0,0.2,0,0.3,0c0.1,0,0.1,0,0.2-0.1c0.1,0,0.1-0.1,0.1-0.1C266.4,74.9,266.4,74.8,266.4,74.7z M266.5,76
	c0-0.1,0-0.2,0-0.2c0-0.1-0.1-0.1-0.2-0.2c-0.1,0-0.1,0-0.2-0.1c-0.1,0-0.2,0-0.3,0h-0.6v1h0.4c0.2,0,0.3,0,0.4,0
	c0.1,0,0.2,0,0.3-0.1c0.1,0,0.1-0.1,0.2-0.2C266.5,76.2,266.5,76.1,266.5,76z M269.9,76.9h-0.5v-2.2l-1.4,2.2h-0.5v-3h0.5v2.2
	l1.4-2.2h0.5V76.9z M272.9,76.9h-0.5v-1.2c-0.2,0.1-0.3,0.1-0.5,0.1c-0.1,0-0.3,0-0.4,0c-0.1,0-0.3,0-0.4,0c-0.1,0-0.2-0.1-0.3-0.2
	c-0.1-0.1-0.2-0.2-0.2-0.3c0-0.1-0.1-0.3-0.1-0.4V74h0.5v0.8c0,0.1,0,0.2,0,0.3c0,0.1,0,0.2,0.1,0.2c0,0.1,0.1,0.1,0.2,0.1
	c0.1,0,0.2,0.1,0.3,0.1c0.1,0,0.2,0,0.4,0c0.1,0,0.3-0.1,0.4-0.1V74h0.5V76.9z"/>
<path class="st8" d="M216.4,83.2c-0.2,0-0.4,0-0.6-0.1c-0.2-0.1-0.3-0.2-0.5-0.3c-0.1-0.1-0.2-0.3-0.3-0.6c-0.1-0.2-0.1-0.5-0.1-0.8
	c0-0.3,0-0.5,0.1-0.7c0.1-0.2,0.2-0.4,0.3-0.6c0.1-0.2,0.3-0.3,0.5-0.3c0.2-0.1,0.4-0.1,0.6-0.1c0.1,0,0.2,0,0.3,0
	c0.1,0,0.2,0,0.3,0.1c0.1,0,0.1,0.1,0.2,0.1c0.1,0,0.2,0.1,0.2,0.1v0.5h0c0,0-0.1-0.1-0.2-0.1c-0.1-0.1-0.1-0.1-0.2-0.2
	c-0.1,0-0.2-0.1-0.3-0.1s-0.2,0-0.4,0c-0.1,0-0.3,0-0.4,0.1c-0.1,0.1-0.2,0.1-0.3,0.3c-0.1,0.1-0.2,0.3-0.2,0.4
	c-0.1,0.2-0.1,0.4-0.1,0.6c0,0.2,0,0.4,0.1,0.6c0.1,0.2,0.1,0.3,0.2,0.4c0.1,0.1,0.2,0.2,0.3,0.3c0.1,0.1,0.3,0.1,0.4,0.1
	c0.1,0,0.3,0,0.4,0c0.1,0,0.2-0.1,0.3-0.1c0.1,0,0.2-0.1,0.2-0.1c0.1-0.1,0.1-0.1,0.1-0.1h0V83c-0.1,0-0.1,0.1-0.2,0.1
	c-0.1,0-0.1,0.1-0.2,0.1c-0.1,0-0.2,0.1-0.3,0.1C216.6,83.2,216.5,83.2,216.4,83.2z M219.8,83.2h-0.4V81h-0.9c0,0.1,0,0.2,0,0.4
	c0,0.1,0,0.2,0,0.3c0,0.2,0,0.4,0,0.6c0,0.2,0,0.3-0.1,0.4c0,0.1-0.1,0.2-0.1,0.2c0,0.1-0.1,0.1-0.1,0.2c-0.1,0-0.1,0.1-0.2,0.1
	c-0.1,0-0.1,0-0.2,0c0,0-0.1,0-0.1,0c0,0-0.1,0-0.1,0v-0.4h0c0,0,0,0,0,0c0,0,0,0,0,0c0,0,0.1,0,0.1,0c0,0,0.1,0,0.1-0.1
	c0.1-0.1,0.1-0.2,0.2-0.4c0-0.2,0.1-0.4,0.1-0.8c0-0.1,0-0.3,0-0.4c0-0.2,0-0.3,0-0.5h1.7V83.2z M221.5,83.2c-0.4,0-0.7-0.1-0.9-0.3
	c-0.2-0.2-0.3-0.6-0.3-1c0-0.4,0.1-0.7,0.3-1c0.2-0.2,0.5-0.4,0.9-0.4c0.2,0,0.3,0,0.4,0.1c0.1,0,0.2,0.1,0.3,0.2
	c0.1,0.1,0.2,0.2,0.2,0.4c0,0.1,0.1,0.3,0.1,0.5v0.2h-1.8c0,0.3,0.1,0.5,0.2,0.7c0.1,0.2,0.4,0.2,0.6,0.2c0.1,0,0.2,0,0.3,0
	c0.1,0,0.2,0,0.2-0.1c0.1,0,0.1-0.1,0.2-0.1c0.1,0,0.1-0.1,0.1-0.1h0V83c-0.1,0-0.1,0-0.2,0.1c-0.1,0-0.1,0.1-0.2,0.1
	c-0.1,0-0.2,0-0.2,0.1C221.7,83.2,221.6,83.2,221.5,83.2z M222,81.6c0-0.1,0-0.2,0-0.3c0-0.1-0.1-0.2-0.1-0.2
	c-0.1-0.1-0.1-0.1-0.2-0.1c-0.1,0-0.2-0.1-0.3-0.1c-0.1,0-0.2,0-0.3,0.1c-0.1,0-0.2,0.1-0.2,0.1c-0.1,0.1-0.1,0.1-0.1,0.2
	c0,0.1-0.1,0.2-0.1,0.3H222z M223.9,83.2c-0.2,0-0.3,0-0.5-0.1c-0.1-0.1-0.3-0.1-0.4-0.2c-0.1-0.1-0.2-0.2-0.2-0.4
	c-0.1-0.2-0.1-0.4-0.1-0.6c0-0.2,0-0.4,0.1-0.6c0.1-0.2,0.1-0.3,0.2-0.4s0.2-0.2,0.4-0.3c0.2-0.1,0.3-0.1,0.5-0.1
	c0.1,0,0.3,0,0.4,0.1c0.1,0,0.2,0.1,0.4,0.1v0.5h0c0,0-0.1-0.1-0.1-0.1c0,0-0.1-0.1-0.2-0.1c-0.1,0-0.1-0.1-0.2-0.1
	c-0.1,0-0.2,0-0.2,0c-0.2,0-0.4,0.1-0.5,0.3c-0.1,0.2-0.2,0.4-0.2,0.7c0,0.3,0.1,0.5,0.2,0.7c0.1,0.2,0.3,0.3,0.5,0.3
	c0.1,0,0.3,0,0.4-0.1c0.1-0.1,0.2-0.1,0.3-0.2h0V83c0,0-0.1,0-0.2,0.1c-0.1,0-0.1,0-0.2,0.1c-0.1,0-0.1,0-0.2,0
	C224.1,83.2,224,83.2,223.9,83.2z M226.5,82.6v-0.7c-0.1,0-0.2,0-0.4,0c-0.2,0-0.3,0-0.4,0.1c-0.1,0-0.2,0.1-0.3,0.2
	c-0.1,0.1-0.1,0.2-0.1,0.3c0,0.1,0,0.3,0.1,0.3c0.1,0.1,0.2,0.1,0.4,0.1c0.1,0,0.3,0,0.4-0.1C226.3,82.7,226.4,82.6,226.5,82.6z
	 M226.5,82.9c0,0-0.1,0.1-0.1,0.1c-0.1,0-0.1,0.1-0.2,0.1c-0.1,0-0.2,0.1-0.2,0.1c-0.1,0-0.2,0-0.3,0c-0.1,0-0.2,0-0.3-0.1
	c-0.1,0-0.2-0.1-0.2-0.2c-0.1-0.1-0.1-0.2-0.2-0.3c0-0.1-0.1-0.2-0.1-0.3c0-0.2,0-0.3,0.1-0.5c0.1-0.1,0.2-0.2,0.4-0.3
	c0.1-0.1,0.3-0.1,0.5-0.1c0.2,0,0.4,0,0.6-0.1v-0.1c0-0.1,0-0.2,0-0.2c0-0.1-0.1-0.1-0.1-0.1c-0.1,0-0.1-0.1-0.2-0.1
	c-0.1,0-0.2,0-0.2,0c-0.1,0-0.2,0-0.4,0c-0.1,0-0.3,0.1-0.4,0.1h0v-0.4c0.1,0,0.2,0,0.3-0.1c0.1,0,0.3,0,0.4,0c0.2,0,0.3,0,0.4,0
	c0.1,0,0.2,0.1,0.3,0.1c0.1,0.1,0.2,0.2,0.2,0.3c0,0.1,0.1,0.2,0.1,0.4v1.7h-0.4V82.9z M229.6,81.8c0,0.4-0.1,0.8-0.3,1
	c-0.2,0.3-0.5,0.4-0.8,0.4c-0.1,0-0.2,0-0.3,0c-0.1,0-0.2-0.1-0.3-0.1v1.1h-0.4v-3.5h0.4v0.3c0.1-0.1,0.2-0.2,0.4-0.2
	c0.1-0.1,0.3-0.1,0.4-0.1c0.3,0,0.5,0.1,0.7,0.3C229.6,81.1,229.6,81.4,229.6,81.8z M229.2,81.9c0-0.3,0-0.5-0.1-0.7
	c-0.1-0.2-0.2-0.2-0.5-0.2c-0.1,0-0.2,0-0.4,0.1c-0.1,0.1-0.2,0.1-0.3,0.2v1.4c0.1,0.1,0.2,0.1,0.3,0.1c0.1,0,0.2,0,0.3,0
	c0.2,0,0.4-0.1,0.5-0.2S229.2,82.2,229.2,81.9z M232,82.4c0,0.1,0,0.2-0.1,0.3c0,0.1-0.1,0.2-0.2,0.2c-0.1,0.1-0.2,0.1-0.3,0.2
	c-0.1,0-0.3,0-0.4,0h-0.9v-2.6h0.4v1h0.5c0.2,0,0.3,0,0.4,0c0.1,0,0.2,0.1,0.3,0.1c0.1,0.1,0.2,0.1,0.2,0.3S232,82.3,232,82.4z
	 M231.6,82.4c0-0.1,0-0.1,0-0.2c0-0.1-0.1-0.1-0.1-0.1c-0.1,0-0.1-0.1-0.2-0.1c-0.1,0-0.2,0-0.4,0h-0.3v0.9h0.3c0.2,0,0.3,0,0.4,0
	c0.1,0,0.2,0,0.2-0.1c0.1,0,0.1-0.1,0.1-0.1C231.6,82.6,231.6,82.5,231.6,82.4z M233.6,83.2l1.1-3.4h0.6l1.1,3.4H236l-0.3-1h-1.3
	l-0.3,1H233.6z M235.5,81.8l-0.5-1.6l-0.5,1.6H235.5z M238.1,83.2c-0.2,0-0.4,0-0.6-0.1c-0.2-0.1-0.3-0.2-0.5-0.3
	c-0.1-0.1-0.2-0.3-0.3-0.6c-0.1-0.2-0.1-0.5-0.1-0.8c0-0.3,0-0.5,0.1-0.7c0.1-0.2,0.2-0.4,0.3-0.6c0.1-0.2,0.3-0.3,0.5-0.3
	c0.2-0.1,0.4-0.1,0.6-0.1c0.1,0,0.2,0,0.3,0c0.1,0,0.2,0,0.3,0.1c0.1,0,0.1,0.1,0.2,0.1c0.1,0,0.2,0.1,0.2,0.1v0.5h0
	c0,0-0.1-0.1-0.2-0.1c-0.1-0.1-0.1-0.1-0.2-0.2c-0.1,0-0.2-0.1-0.3-0.1c-0.1,0-0.2,0-0.4,0c-0.1,0-0.3,0-0.4,0.1
	c-0.1,0.1-0.2,0.1-0.3,0.3c-0.1,0.1-0.2,0.3-0.2,0.4c-0.1,0.2-0.1,0.4-0.1,0.6c0,0.2,0,0.4,0.1,0.6c0.1,0.2,0.1,0.3,0.2,0.4
	c0.1,0.1,0.2,0.2,0.3,0.3c0.1,0.1,0.3,0.1,0.4,0.1c0.1,0,0.3,0,0.4,0c0.1,0,0.2-0.1,0.3-0.1c0.1,0,0.2-0.1,0.2-0.1
	c0.1-0.1,0.1-0.1,0.1-0.1h0V83c-0.1,0-0.1,0.1-0.2,0.1c-0.1,0-0.1,0.1-0.2,0.1c-0.1,0-0.2,0.1-0.3,0.1
	C238.3,83.2,238.2,83.2,238.1,83.2z M241.9,79.8l-1.2,2.9c-0.1,0.1-0.1,0.2-0.2,0.3c-0.1,0.1-0.1,0.1-0.2,0.2
	c-0.1,0-0.1,0.1-0.2,0.1c-0.1,0-0.1,0-0.2,0c-0.1,0-0.1,0-0.2,0c-0.1,0-0.1,0-0.2,0v-0.4h0c0,0,0.1,0,0.1,0c0,0,0.1,0,0.2,0
	c0,0,0.1,0,0.1,0c0,0,0.1,0,0.1,0c0,0,0.1,0,0.1-0.1c0,0,0.1-0.1,0.1-0.2l0.1-0.2l-1.2-2.5h0.5l0.9,2l0.8-2H241.9z M244.5,83.2v-3
	h-1.1v-0.4h2.7v0.4H245v3H244.5z M248.9,83.2h-0.5v-3h-1.6v3h-0.5v-3.4h2.5V83.2z"/>
<path class="st1" d="M190.2,68.8H319V51.2H190.2V68.8z"/>
<path class="st9" d="M203.2,65.8c3.1,0,5.6-2.5,5.6-5.6c0-3.1-2.5-5.6-5.6-5.6c-3.1,0-5.6,2.5-5.6,5.6
	C197.6,63.3,200.1,65.8,203.2,65.8z"/>
<path class="st2" d="M215.1,59.6v-4h2.5v0.5h-2v1.1h1.8v0.5h-1.8v1.5h2v0.5H215.1z M220.6,58.1c0,0.5-0.1,0.9-0.4,1.2
	c-0.2,0.3-0.5,0.4-0.9,0.4c-0.1,0-0.3,0-0.4-0.1c-0.1,0-0.2-0.1-0.3-0.2v1.2h-0.5v-4.1h0.5V57c0.1-0.1,0.3-0.2,0.4-0.3
	c0.2-0.1,0.3-0.1,0.5-0.1c0.3,0,0.6,0.1,0.8,0.4C220.5,57.2,220.6,57.6,220.6,58.1z M220.1,58.1c0-0.3-0.1-0.6-0.2-0.8
	c-0.1-0.2-0.3-0.3-0.5-0.3c-0.1,0-0.3,0-0.4,0.1c-0.1,0.1-0.3,0.1-0.4,0.2v1.7c0.1,0.1,0.2,0.1,0.3,0.1c0.1,0,0.2,0,0.3,0
	c0.3,0,0.5-0.1,0.6-0.3C220,58.8,220.1,58.5,220.1,58.1z M222.4,59.7c-0.5,0-0.8-0.1-1.1-0.4c-0.3-0.3-0.4-0.6-0.4-1.1
	c0-0.5,0.1-0.9,0.4-1.2c0.3-0.3,0.6-0.4,1-0.4c0.2,0,0.3,0,0.5,0.1c0.1,0.1,0.3,0.1,0.4,0.3c0.1,0.1,0.2,0.3,0.2,0.4
	c0.1,0.2,0.1,0.4,0.1,0.6v0.3h-2.1c0,0.3,0.1,0.6,0.3,0.8c0.2,0.2,0.4,0.3,0.7,0.3c0.1,0,0.2,0,0.3,0c0.1,0,0.2-0.1,0.3-0.1
	c0.1,0,0.2-0.1,0.2-0.1c0.1,0,0.1-0.1,0.2-0.1h0v0.5c-0.1,0-0.1,0.1-0.2,0.1c-0.1,0-0.2,0.1-0.2,0.1c-0.1,0-0.2,0-0.3,0.1
	C222.6,59.7,222.5,59.7,222.4,59.7z M223,57.8c0-0.1,0-0.3,0-0.4c0-0.1-0.1-0.2-0.1-0.2c-0.1-0.1-0.1-0.1-0.2-0.2
	c-0.1,0-0.2-0.1-0.3-0.1c-0.1,0-0.2,0-0.3,0.1c-0.1,0-0.2,0.1-0.3,0.2c-0.1,0.1-0.1,0.2-0.2,0.3c0,0.1-0.1,0.2-0.1,0.3H223z
	 M226.8,59.6h-0.5v-2.3l-0.7,1.5h-0.4l-0.7-1.5v2.3H224v-3h0.6l0.8,1.7l0.8-1.7h0.6V59.6z M230,58.1c0,0.5-0.1,0.9-0.4,1.2
	c-0.2,0.3-0.6,0.4-1,0.4c-0.4,0-0.7-0.1-1-0.4c-0.2-0.3-0.4-0.7-0.4-1.2c0-0.5,0.1-0.9,0.4-1.2c0.2-0.3,0.6-0.4,1-0.4
	c0.4,0,0.7,0.1,1,0.4C229.8,57.3,230,57.6,230,58.1z M229.4,58.1c0-0.4-0.1-0.7-0.2-0.9c-0.1-0.2-0.3-0.3-0.6-0.3
	c-0.3,0-0.5,0.1-0.6,0.3c-0.1,0.2-0.2,0.5-0.2,0.9c0,0.4,0.1,0.7,0.2,0.9c0.1,0.2,0.3,0.3,0.6,0.3c0.3,0,0.5-0.1,0.6-0.3
	C229.4,58.8,229.4,58.5,229.4,58.1z M232.8,58.7c0,0.1,0,0.3-0.1,0.4c-0.1,0.1-0.1,0.2-0.2,0.3c-0.1,0.1-0.2,0.2-0.4,0.2
	c-0.1,0-0.3,0-0.5,0h-1.2v-3h1.1c0.2,0,0.4,0,0.5,0c0.1,0,0.2,0,0.3,0.1c0.1,0.1,0.2,0.1,0.2,0.2c0.1,0.1,0.1,0.2,0.1,0.3
	c0,0.1,0,0.3-0.1,0.4c-0.1,0.1-0.2,0.2-0.3,0.3l0,0c0.2,0,0.3,0.1,0.4,0.2C232.8,58.4,232.8,58.5,232.8,58.7z M232.1,57.4
	c0-0.1,0-0.1,0-0.2c0-0.1-0.1-0.1-0.1-0.1c-0.1,0-0.1-0.1-0.2-0.1c-0.1,0-0.2,0-0.3,0H231v0.8h0.6c0.1,0,0.2,0,0.3,0
	c0.1,0,0.1,0,0.2-0.1c0.1,0,0.1-0.1,0.1-0.1C232.1,57.6,232.1,57.5,232.1,57.4z M232.3,58.7c0-0.1,0-0.2,0-0.2
	c0-0.1-0.1-0.1-0.2-0.2c-0.1,0-0.1,0-0.2-0.1c-0.1,0-0.2,0-0.3,0H231v1h0.4c0.2,0,0.3,0,0.4,0c0.1,0,0.2,0,0.3-0.1
	c0.1,0,0.1-0.1,0.2-0.2C232.3,58.9,232.3,58.8,232.3,58.7z M237.9,59.6h-0.5v-3.2l-1.8,3.2h-0.5v-4h0.5v3.1l1.8-3.1h0.6V59.6z
	 M241.1,58.7c0,0.1,0,0.3-0.1,0.4c-0.1,0.1-0.1,0.2-0.2,0.3c-0.1,0.1-0.2,0.2-0.4,0.2c-0.1,0-0.3,0-0.5,0h-1.2v-3h1.1
	c0.2,0,0.4,0,0.5,0c0.1,0,0.2,0,0.3,0.1c0.1,0.1,0.2,0.1,0.2,0.2c0,0.1,0.1,0.2,0.1,0.3c0,0.1,0,0.3-0.1,0.4
	c-0.1,0.1-0.2,0.2-0.3,0.3l0,0c0.2,0,0.3,0.1,0.4,0.2C241,58.4,241.1,58.5,241.1,58.7z M240.4,57.4c0-0.1,0-0.1,0-0.2
	c0-0.1-0.1-0.1-0.1-0.1c-0.1,0-0.1-0.1-0.2-0.1c-0.1,0-0.2,0-0.3,0h-0.5v0.8h0.6c0.1,0,0.2,0,0.3,0c0.1,0,0.1,0,0.2-0.1
	c0.1,0,0.1-0.1,0.1-0.1C240.4,57.6,240.4,57.5,240.4,57.4z M240.5,58.7c0-0.1,0-0.2,0-0.2c0-0.1-0.1-0.1-0.2-0.2
	c-0.1,0-0.1,0-0.2-0.1c-0.1,0-0.2,0-0.3,0h-0.6v1h0.4c0.2,0,0.3,0,0.4,0c0.1,0,0.2,0,0.3-0.1c0.1,0,0.1-0.1,0.2-0.2
	C240.5,58.9,240.5,58.8,240.5,58.7z M243.2,58.9v-0.8c-0.1,0-0.3,0-0.5,0c-0.2,0-0.3,0-0.4,0.1c-0.1,0-0.2,0.1-0.3,0.2
	c-0.1,0.1-0.1,0.2-0.1,0.4c0,0.2,0,0.3,0.1,0.4c0.1,0.1,0.2,0.1,0.4,0.1c0.2,0,0.3,0,0.4-0.1C243,59.1,243.1,59,243.2,58.9z
	 M243.2,59.3c0,0-0.1,0.1-0.2,0.1c-0.1,0.1-0.1,0.1-0.2,0.1c-0.1,0-0.2,0.1-0.3,0.1c-0.1,0-0.2,0-0.3,0c-0.1,0-0.2,0-0.3-0.1
	c-0.1,0-0.2-0.1-0.3-0.2c-0.1-0.1-0.1-0.2-0.2-0.3c0-0.1-0.1-0.2-0.1-0.4c0-0.2,0-0.4,0.1-0.5c0.1-0.1,0.2-0.3,0.4-0.3
	c0.2-0.1,0.4-0.1,0.6-0.2c0.2,0,0.5-0.1,0.7-0.1v-0.1c0-0.1,0-0.2-0.1-0.3c0-0.1-0.1-0.1-0.1-0.2c-0.1,0-0.1-0.1-0.2-0.1
	c-0.1,0-0.2,0-0.3,0c-0.1,0-0.3,0-0.4,0.1c-0.2,0-0.3,0.1-0.5,0.1h0v-0.5c0.1,0,0.2-0.1,0.4-0.1c0.2,0,0.3,0,0.5,0
	c0.2,0,0.4,0,0.5,0c0.1,0,0.3,0.1,0.4,0.2c0.1,0.1,0.2,0.2,0.2,0.3c0.1,0.1,0.1,0.3,0.1,0.5v2h-0.5V59.3z M246.8,59.6h-0.5v-1.3H245
	v1.3h-0.5v-3h0.5v1.2h1.4v-1.2h0.5V59.6z M252.1,59.6h-0.5v-3.2l-1.8,3.2h-0.5v-4h0.5v3.1l1.8-3.1h0.6V59.6z M255.2,58.7
	c0,0.1,0,0.3-0.1,0.4c-0.1,0.1-0.1,0.2-0.2,0.3c-0.1,0.1-0.2,0.2-0.4,0.2c-0.1,0-0.3,0-0.5,0h-1.2v-3h1.1c0.2,0,0.4,0,0.5,0
	c0.1,0,0.2,0,0.3,0.1c0.1,0.1,0.2,0.1,0.2,0.2c0,0.1,0.1,0.2,0.1,0.3c0,0.1,0,0.3-0.1,0.4c-0.1,0.1-0.2,0.2-0.3,0.3l0,0
	c0.2,0,0.3,0.1,0.4,0.2C255.2,58.4,255.2,58.5,255.2,58.7z M254.6,57.4c0-0.1,0-0.1,0-0.2c0-0.1-0.1-0.1-0.1-0.1
	c-0.1,0-0.1-0.1-0.2-0.1c-0.1,0-0.2,0-0.3,0h-0.5v0.8h0.6c0.1,0,0.2,0,0.3,0c0.1,0,0.1,0,0.2-0.1c0.1,0,0.1-0.1,0.1-0.1
	C254.6,57.6,254.6,57.5,254.6,57.4z M254.7,58.7c0-0.1,0-0.2,0-0.2c0-0.1-0.1-0.1-0.2-0.2c-0.1,0-0.1,0-0.2-0.1c-0.1,0-0.2,0-0.3,0
	h-0.6v1h0.4c0.2,0,0.3,0,0.4,0c0.1,0,0.2,0,0.3-0.1c0.1,0,0.1-0.1,0.2-0.2C254.7,58.9,254.7,58.8,254.7,58.7z M257.4,58.9v-0.8
	c-0.1,0-0.3,0-0.5,0c-0.2,0-0.3,0-0.4,0.1c-0.1,0-0.2,0.1-0.3,0.2c-0.1,0.1-0.1,0.2-0.1,0.4c0,0.2,0,0.3,0.1,0.4
	c0.1,0.1,0.2,0.1,0.4,0.1c0.2,0,0.3,0,0.4-0.1C257.2,59.1,257.3,59,257.4,58.9z M257.4,59.3c0,0-0.1,0.1-0.2,0.1
	c-0.1,0.1-0.1,0.1-0.2,0.1c-0.1,0-0.2,0.1-0.3,0.1c-0.1,0-0.2,0-0.3,0c-0.1,0-0.2,0-0.3-0.1c-0.1,0-0.2-0.1-0.3-0.2
	c-0.1-0.1-0.1-0.2-0.2-0.3c0-0.1-0.1-0.2-0.1-0.4c0-0.2,0-0.4,0.1-0.5c0.1-0.1,0.2-0.3,0.4-0.3c0.2-0.1,0.4-0.1,0.6-0.2
	c0.2,0,0.5-0.1,0.7-0.1v-0.1c0-0.1,0-0.2-0.1-0.3c0-0.1-0.1-0.1-0.1-0.2c-0.1,0-0.1-0.1-0.2-0.1c-0.1,0-0.2,0-0.3,0
	c-0.1,0-0.3,0-0.4,0.1c-0.2,0-0.3,0.1-0.5,0.1h0v-0.5c0.1,0,0.2-0.1,0.4-0.1c0.2,0,0.3,0,0.5,0c0.2,0,0.4,0,0.5,0
	c0.1,0,0.3,0.1,0.4,0.2c0.1,0.1,0.2,0.2,0.2,0.3c0.1,0.1,0.1,0.3,0.1,0.5v2h-0.5V59.3z M261,59.6h-0.5v-1.3h-1.4v1.3h-0.5v-3h0.5
	v1.2h1.4v-1.2h0.5V59.6z M264.2,58.1c0,0.5-0.1,0.9-0.4,1.2c-0.2,0.3-0.6,0.4-1,0.4c-0.4,0-0.7-0.1-1-0.4c-0.2-0.3-0.4-0.7-0.4-1.2
	c0-0.5,0.1-0.9,0.4-1.2c0.2-0.3,0.6-0.4,1-0.4c0.4,0,0.7,0.1,1,0.4C264.1,57.3,264.2,57.6,264.2,58.1z M263.7,58.1
	c0-0.4-0.1-0.7-0.2-0.9c-0.1-0.2-0.3-0.3-0.6-0.3c-0.3,0-0.5,0.1-0.6,0.3c-0.1,0.2-0.2,0.5-0.2,0.9c0,0.4,0.1,0.7,0.2,0.9
	c0.1,0.2,0.3,0.3,0.6,0.3c0.3,0,0.5-0.1,0.6-0.3C263.6,58.8,263.7,58.5,263.7,58.1z M267,58.7c0,0.1,0,0.3-0.1,0.4
	c-0.1,0.1-0.1,0.2-0.2,0.3c-0.1,0.1-0.2,0.2-0.4,0.2c-0.1,0-0.3,0-0.5,0h-1.2v-3h1.1c0.2,0,0.4,0,0.5,0c0.1,0,0.2,0,0.3,0.1
	c0.1,0.1,0.2,0.1,0.2,0.2c0.1,0.1,0.1,0.2,0.1,0.3c0,0.1,0,0.3-0.1,0.4c-0.1,0.1-0.2,0.2-0.3,0.3l0,0c0.2,0,0.3,0.1,0.4,0.2
	C267,58.4,267,58.5,267,58.7z M266.4,57.4c0-0.1,0-0.1,0-0.2c0-0.1-0.1-0.1-0.1-0.1c-0.1,0-0.1-0.1-0.2-0.1c-0.1,0-0.2,0-0.3,0h-0.5
	v0.8h0.6c0.1,0,0.2,0,0.3,0c0.1,0,0.1,0,0.2-0.1c0.1,0,0.1-0.1,0.1-0.1C266.4,57.6,266.4,57.5,266.4,57.4z M266.5,58.7
	c0-0.1,0-0.2,0-0.2c0-0.1-0.1-0.1-0.2-0.2c-0.1,0-0.1,0-0.2-0.1c-0.1,0-0.2,0-0.3,0h-0.6v1h0.4c0.2,0,0.3,0,0.4,0
	c0.1,0,0.2,0,0.3-0.1c0.1,0,0.1-0.1,0.2-0.2C266.5,58.9,266.5,58.8,266.5,58.7z M269.9,59.6h-0.5v-2.2l-1.4,2.2h-0.5v-3h0.5v2.2
	l1.4-2.2h0.5V59.6z M272.9,59.6h-0.5v-1.2c-0.2,0.1-0.3,0.1-0.5,0.1c-0.1,0-0.3,0-0.4,0c-0.1,0-0.3,0-0.4,0c-0.1,0-0.2-0.1-0.3-0.2
	c-0.1-0.1-0.2-0.2-0.2-0.3c0-0.1-0.1-0.3-0.1-0.4v-1.1h0.5v0.8c0,0.1,0,0.2,0,0.3c0,0.1,0,0.2,0.1,0.2c0,0.1,0.1,0.1,0.2,0.1
	c0.1,0,0.2,0.1,0.3,0.1c0.1,0,0.2,0,0.4,0c0.1,0,0.3-0.1,0.4-0.1v-1.4h0.5V59.6z"/>
<path class="st8" d="M217.9,65.8h-0.5v-2.9l-0.9,2h-0.3l-0.9-2v2.9H215v-3.4h0.6l0.9,1.9l0.8-1.9h0.6V65.8z M220,65.1v-0.7
	c-0.1,0-0.2,0-0.4,0c-0.2,0-0.3,0-0.4,0.1c-0.1,0-0.2,0.1-0.3,0.2c-0.1,0.1-0.1,0.2-0.1,0.3c0,0.1,0,0.3,0.1,0.3
	c0.1,0.1,0.2,0.1,0.4,0.1c0.1,0,0.3,0,0.4-0.1C219.8,65.3,219.9,65.2,220,65.1z M220,65.5c0,0-0.1,0.1-0.1,0.1
	c-0.1,0-0.1,0.1-0.2,0.1c-0.1,0-0.2,0.1-0.2,0.1c-0.1,0-0.2,0-0.3,0c-0.1,0-0.2,0-0.3-0.1s-0.2-0.1-0.2-0.2
	c-0.1-0.1-0.1-0.2-0.2-0.3c0-0.1-0.1-0.2-0.1-0.3c0-0.2,0-0.3,0.1-0.5c0.1-0.1,0.2-0.2,0.4-0.3c0.1-0.1,0.3-0.1,0.5-0.1
	c0.2,0,0.4,0,0.6-0.1V64c0-0.1,0-0.2,0-0.2c0-0.1-0.1-0.1-0.1-0.1c-0.1,0-0.1-0.1-0.2-0.1c-0.1,0-0.2,0-0.2,0c-0.1,0-0.2,0-0.4,0
	c-0.1,0-0.3,0.1-0.4,0.1h0v-0.4c0.1,0,0.2,0,0.3-0.1c0.1,0,0.3,0,0.4,0c0.2,0,0.3,0,0.4,0c0.1,0,0.2,0.1,0.3,0.1
	c0.1,0.1,0.2,0.2,0.2,0.3c0,0.1,0.1,0.2,0.1,0.4v1.7H220V65.5z M222.1,65.8c-0.2,0-0.3,0-0.5-0.1c-0.1-0.1-0.3-0.1-0.4-0.2
	c-0.1-0.1-0.2-0.2-0.2-0.4c-0.1-0.2-0.1-0.4-0.1-0.6c0-0.2,0-0.4,0.1-0.6c0.1-0.2,0.1-0.3,0.2-0.4c0.1-0.1,0.2-0.2,0.4-0.3
	c0.2-0.1,0.3-0.1,0.5-0.1c0.1,0,0.3,0,0.4,0.1c0.1,0,0.2,0.1,0.4,0.1v0.5h0c0,0-0.1-0.1-0.1-0.1c0,0-0.1-0.1-0.2-0.1
	c-0.1,0-0.1-0.1-0.2-0.1c-0.1,0-0.2,0-0.2,0c-0.2,0-0.4,0.1-0.5,0.3c-0.1,0.2-0.2,0.4-0.2,0.7c0,0.3,0.1,0.5,0.2,0.7
	c0.1,0.2,0.3,0.3,0.5,0.3c0.1,0,0.3,0,0.4-0.1c0.1-0.1,0.2-0.1,0.3-0.2h0v0.5c0,0-0.1,0-0.2,0.1c-0.1,0-0.1,0-0.2,0.1
	c-0.1,0-0.1,0-0.2,0C222.2,65.8,222.2,65.8,222.1,65.8z M225.1,63.6h-0.9v2.2h-0.4v-2.2h-0.9v-0.4h2.2V63.6z M226.5,65.8
	c-0.4,0-0.7-0.1-0.9-0.3c-0.2-0.2-0.3-0.6-0.3-1c0-0.4,0.1-0.7,0.3-1c0.2-0.2,0.5-0.4,0.9-0.4c0.2,0,0.3,0,0.4,0.1
	c0.1,0,0.2,0.1,0.3,0.2c0.1,0.1,0.2,0.2,0.2,0.4c0,0.1,0.1,0.3,0.1,0.5v0.2h-1.8c0,0.3,0.1,0.5,0.2,0.7c0.1,0.2,0.4,0.2,0.6,0.2
	c0.1,0,0.2,0,0.3,0c0.1,0,0.2,0,0.2-0.1c0.1,0,0.1-0.1,0.2-0.1c0.1,0,0.1-0.1,0.1-0.1h0v0.5c-0.1,0-0.1,0-0.2,0.1
	c-0.1,0-0.1,0.1-0.2,0.1c-0.1,0-0.2,0-0.2,0.1C226.7,65.8,226.6,65.8,226.5,65.8z M227,64.2c0-0.1,0-0.2,0-0.3
	c0-0.1-0.1-0.2-0.1-0.2c-0.1-0.1-0.1-0.1-0.2-0.1c-0.1,0-0.2-0.1-0.3-0.1c-0.1,0-0.2,0-0.3,0.1c-0.1,0-0.2,0.1-0.2,0.1
	c-0.1,0.1-0.1,0.1-0.1,0.2c0,0.1-0.1,0.2-0.1,0.3H227z M230,64.4c0,0.4-0.1,0.8-0.3,1c-0.2,0.3-0.5,0.4-0.8,0.4c-0.1,0-0.2,0-0.3,0
	c-0.1,0-0.2-0.1-0.3-0.1v1.1h-0.4v-3.5h0.4v0.3c0.1-0.1,0.2-0.2,0.4-0.2c0.1-0.1,0.3-0.1,0.4-0.1c0.3,0,0.5,0.1,0.7,0.3
	C229.9,63.7,230,64,230,64.4z M229.6,64.5c0-0.3,0-0.5-0.1-0.7c-0.1-0.2-0.2-0.2-0.5-0.2c-0.1,0-0.2,0-0.4,0.1
	c-0.1,0.1-0.2,0.1-0.3,0.2v1.4c0.1,0.1,0.2,0.1,0.3,0.1c0.1,0,0.2,0,0.3,0c0.2,0,0.4-0.1,0.5-0.2C229.5,65,229.6,64.8,229.6,64.5z"
	/>
<path class="st2" d="M228.9,10.1l-1.4,3.3c-0.1,0.1-0.1,0.3-0.2,0.3c-0.1,0.1-0.2,0.1-0.2,0.2c-0.1,0-0.2,0.1-0.2,0.1
	c-0.1,0-0.2,0-0.2,0c-0.1,0-0.2,0-0.3,0c-0.1,0-0.2,0-0.2,0v-0.5h0c0,0,0.1,0,0.1,0c0.1,0,0.1,0,0.2,0c0,0,0.1,0,0.1,0
	c0.1,0,0.1,0,0.1,0c0.1,0,0.1-0.1,0.1-0.1c0,0,0.1-0.1,0.1-0.2l0.1-0.2l-1.4-2.9h0.6l1.1,2.3l1-2.3H228.9z M231.6,14h-0.5v-2.6h-1.4
	V14h-0.5v-3h2.4V14z M234.8,12.5c0,0.5-0.1,0.9-0.4,1.2c-0.2,0.3-0.5,0.4-0.9,0.4c-0.1,0-0.3,0-0.4-0.1c-0.1,0-0.2-0.1-0.4-0.2v1.2
	h-0.5V11h0.5v0.3c0.1-0.1,0.3-0.2,0.4-0.3c0.2-0.1,0.3-0.1,0.5-0.1c0.3,0,0.6,0.1,0.8,0.4C234.7,11.6,234.8,12,234.8,12.5z
	 M234.3,12.5c0-0.3-0.1-0.6-0.2-0.8c-0.1-0.2-0.3-0.3-0.5-0.3c-0.1,0-0.3,0-0.4,0.1c-0.1,0.1-0.3,0.1-0.4,0.2v1.7
	c0.1,0.1,0.2,0.1,0.3,0.1c0.1,0,0.2,0,0.3,0c0.3,0,0.5-0.1,0.6-0.3C234.2,13.2,234.3,12.9,234.3,12.5z M237,13.3v-0.8
	c-0.1,0-0.3,0-0.5,0c-0.2,0-0.3,0-0.4,0.1c-0.1,0-0.2,0.1-0.3,0.2c-0.1,0.1-0.1,0.2-0.1,0.4c0,0.2,0,0.3,0.1,0.4
	c0.1,0.1,0.2,0.1,0.4,0.1c0.2,0,0.3,0,0.4-0.1C236.7,13.5,236.9,13.4,237,13.3z M237,13.7c0,0-0.1,0.1-0.2,0.1
	c-0.1,0.1-0.1,0.1-0.2,0.1c-0.1,0-0.2,0.1-0.3,0.1c-0.1,0-0.2,0-0.3,0c-0.1,0-0.2,0-0.4-0.1c-0.1,0-0.2-0.1-0.3-0.2
	c-0.1-0.1-0.1-0.2-0.2-0.3c0-0.1-0.1-0.2-0.1-0.4c0-0.2,0-0.4,0.1-0.5c0.1-0.1,0.2-0.3,0.4-0.3c0.2-0.1,0.4-0.1,0.6-0.2
	c0.2,0,0.5-0.1,0.7-0.1V12c0-0.1,0-0.2-0.1-0.3c0-0.1-0.1-0.1-0.1-0.2c-0.1,0-0.1-0.1-0.2-0.1c-0.1,0-0.2,0-0.3,0
	c-0.1,0-0.3,0-0.4,0.1c-0.2,0-0.3,0.1-0.5,0.1h0v-0.5c0.1,0,0.2-0.1,0.4-0.1s0.3,0,0.5,0c0.2,0,0.4,0,0.5,0c0.1,0,0.3,0.1,0.4,0.2
	c0.1,0.1,0.2,0.2,0.2,0.3c0.1,0.1,0.1,0.3,0.1,0.5v2H237V13.7z M240.5,13.1c0,0.1,0,0.3-0.1,0.4c-0.1,0.1-0.1,0.2-0.2,0.3
	c-0.1,0.1-0.2,0.2-0.4,0.2c-0.1,0-0.3,0-0.5,0h-1.2v-3h1.1c0.2,0,0.4,0,0.5,0c0.1,0,0.2,0,0.3,0.1c0.1,0.1,0.2,0.1,0.2,0.2
	c0.1,0.1,0.1,0.2,0.1,0.3c0,0.1,0,0.3-0.1,0.4c-0.1,0.1-0.2,0.2-0.3,0.3l0,0c0.2,0,0.3,0.1,0.4,0.2
	C240.5,12.8,240.5,12.9,240.5,13.1z M239.8,11.8c0-0.1,0-0.1,0-0.2c0,0-0.1-0.1-0.1-0.1c-0.1,0-0.1-0.1-0.2-0.1c-0.1,0-0.2,0-0.3,0
	h-0.5v0.8h0.6c0.1,0,0.2,0,0.3,0c0.1,0,0.1,0,0.2-0.1c0.1,0,0.1-0.1,0.1-0.1C239.8,12,239.8,11.9,239.8,11.8z M240,13.1
	c0-0.1,0-0.2,0-0.2c0-0.1-0.1-0.1-0.2-0.2c-0.1,0-0.1,0-0.2-0.1c-0.1,0-0.2,0-0.3,0h-0.6v1h0.4c0.2,0,0.3,0,0.4,0
	c0.1,0,0.2,0,0.3-0.1c0.1,0,0.1-0.1,0.2-0.2C240,13.3,240,13.2,240,13.1z M243.4,14h-0.5v-2.6h-1c0,0.1,0,0.3,0,0.4
	c0,0.1,0,0.3,0,0.4c0,0.3,0,0.5-0.1,0.7c0,0.2-0.1,0.3-0.1,0.5c0,0.1-0.1,0.2-0.1,0.3c0,0.1-0.1,0.1-0.2,0.2
	c-0.1,0.1-0.1,0.1-0.2,0.1c-0.1,0-0.1,0-0.2,0c0,0-0.1,0-0.1,0c0,0-0.1,0-0.1,0v-0.4h0c0,0,0,0,0,0c0,0,0,0,0,0c0,0,0.1,0,0.1,0
	c0,0,0.1,0,0.1-0.1c0.1-0.1,0.2-0.2,0.2-0.5c0-0.2,0.1-0.5,0.1-0.9c0-0.1,0-0.3,0-0.5c0-0.2,0-0.4,0-0.6h2V14z M245.4,14.1
	c-0.5,0-0.8-0.1-1.1-0.4c-0.3-0.3-0.4-0.6-0.4-1.1c0-0.5,0.1-0.9,0.4-1.2c0.3-0.3,0.6-0.4,1-0.4c0.2,0,0.3,0,0.5,0.1
	c0.1,0.1,0.3,0.1,0.4,0.3c0.1,0.1,0.2,0.3,0.2,0.4c0.1,0.2,0.1,0.4,0.1,0.6v0.3h-2.1c0,0.3,0.1,0.6,0.3,0.8c0.2,0.2,0.4,0.3,0.7,0.3
	c0.1,0,0.2,0,0.3,0c0.1,0,0.2-0.1,0.3-0.1c0.1,0,0.2-0.1,0.2-0.1c0.1,0,0.1-0.1,0.2-0.1h0v0.5c-0.1,0-0.1,0.1-0.2,0.1
	c-0.1,0-0.2,0.1-0.2,0.1c-0.1,0-0.2,0-0.3,0.1C245.6,14.1,245.5,14.1,245.4,14.1z M246,12.2c0-0.1,0-0.3,0-0.3
	c0-0.1-0.1-0.2-0.1-0.2c-0.1-0.1-0.1-0.1-0.2-0.2c-0.1,0-0.2-0.1-0.3-0.1c-0.1,0-0.2,0-0.3,0.1c-0.1,0-0.2,0.1-0.3,0.2
	c-0.1,0.1-0.1,0.2-0.2,0.3c0,0.1-0.1,0.2-0.1,0.3H246z M249.3,14h-0.5v-1.3h-1.4V14H247v-3h0.5v1.2h1.4V11h0.5V14z M252.4,14h-0.5
	v-2.2l-1.4,2.2H250v-3h0.5v2.2l1.4-2.2h0.5V14z M254.4,14.1c-0.5,0-0.8-0.1-1.1-0.4c-0.3-0.3-0.4-0.6-0.4-1.1c0-0.5,0.1-0.9,0.4-1.2
	c0.3-0.3,0.6-0.4,1-0.4c0.2,0,0.3,0,0.5,0.1c0.1,0.1,0.3,0.1,0.4,0.3c0.1,0.1,0.2,0.3,0.2,0.4c0.1,0.2,0.1,0.4,0.1,0.6v0.3h-2.1
	c0,0.3,0.1,0.6,0.3,0.8c0.2,0.2,0.4,0.3,0.7,0.3c0.1,0,0.2,0,0.3,0c0.1,0,0.2-0.1,0.3-0.1c0.1,0,0.2-0.1,0.2-0.1
	c0.1,0,0.1-0.1,0.2-0.1h0v0.5c-0.1,0-0.1,0.1-0.2,0.1c-0.1,0-0.2,0.1-0.2,0.1c-0.1,0-0.2,0-0.3,0.1
	C254.6,14.1,254.5,14.1,254.4,14.1z M255,12.2c0-0.1,0-0.3,0-0.3c0-0.1-0.1-0.2-0.1-0.2c-0.1-0.1-0.1-0.1-0.2-0.2
	c-0.1,0-0.2-0.1-0.3-0.1c-0.1,0-0.2,0-0.3,0.1c-0.1,0-0.2,0.1-0.3,0.2c-0.1,0.1-0.1,0.2-0.2,0.3c0,0.1-0.1,0.2-0.1,0.3H255z
	 M259.8,11.5c0.1,0.1,0.2,0.3,0.3,0.4c0.1,0.2,0.1,0.4,0.1,0.6c0,0.2,0,0.4-0.1,0.6c-0.1,0.2-0.2,0.4-0.3,0.5
	c-0.1,0.1-0.3,0.2-0.4,0.3c-0.2,0.1-0.3,0.1-0.5,0.1c-0.2,0-0.4,0-0.5-0.1c-0.2-0.1-0.3-0.2-0.4-0.3c-0.1-0.2-0.2-0.4-0.3-0.6
	c-0.1-0.3-0.1-0.6-0.1-0.9c0-0.1,0-0.3,0-0.4c0-0.1,0-0.3,0.1-0.5c0-0.2,0.1-0.3,0.1-0.5c0.1-0.1,0.1-0.3,0.2-0.4
	c0.1-0.1,0.3-0.2,0.5-0.3c0.2-0.1,0.5-0.1,0.8-0.2c0.1,0,0.2,0,0.4,0c0.1,0,0.2,0,0.3,0v0.5c-0.1,0-0.2,0-0.3,0c-0.1,0-0.2,0-0.4,0
	c-0.2,0-0.4,0-0.6,0.1c-0.2,0-0.3,0.1-0.4,0.2c-0.1,0.1-0.1,0.2-0.2,0.3s-0.1,0.3-0.1,0.5c0.1-0.1,0.3-0.2,0.4-0.2
	c0.2-0.1,0.3-0.1,0.5-0.1c0.2,0,0.3,0,0.5,0.1C259.6,11.3,259.7,11.4,259.8,11.5z M259.7,12.6c0-0.3-0.1-0.6-0.2-0.7
	c-0.1-0.2-0.3-0.3-0.6-0.3c-0.1,0-0.3,0-0.4,0.1c-0.1,0-0.3,0.1-0.4,0.2c0,0,0,0.1,0,0.2c0,0.1,0,0.1,0,0.2c0,0.3,0,0.6,0.1,0.8
	c0,0.2,0.1,0.3,0.2,0.5c0.1,0.1,0.2,0.2,0.3,0.2c0.1,0,0.2,0.1,0.3,0.1c0.3,0,0.5-0.1,0.6-0.3C259.6,13.2,259.7,12.9,259.7,12.6z
	 M263.2,12.5c0,0.5-0.1,0.9-0.4,1.2c-0.2,0.3-0.5,0.4-0.9,0.4c-0.1,0-0.3,0-0.4-0.1c-0.1,0-0.2-0.1-0.3-0.2v1.2h-0.5V11h0.5v0.3
	c0.1-0.1,0.3-0.2,0.4-0.3c0.2-0.1,0.3-0.1,0.5-0.1c0.3,0,0.6,0.1,0.8,0.4C263.1,11.6,263.2,12,263.2,12.5z M262.7,12.5
	c0-0.3-0.1-0.6-0.2-0.8c-0.1-0.2-0.3-0.3-0.5-0.3c-0.1,0-0.3,0-0.4,0.1c-0.1,0.1-0.3,0.1-0.4,0.2v1.7c0.1,0.1,0.2,0.1,0.3,0.1
	c0.1,0,0.2,0,0.3,0c0.3,0,0.5-0.1,0.6-0.3C262.6,13.2,262.7,12.9,262.7,12.5z M266.1,14h-0.5v-2.2l-1.4,2.2h-0.5v-3h0.5v2.2l1.4-2.2
	h0.5V14z M268.7,11.5h-1.4V14h-0.5v-3h1.9V11.5z M270.8,13.3v-0.8c-0.1,0-0.3,0-0.5,0c-0.2,0-0.3,0-0.4,0.1c-0.1,0-0.2,0.1-0.3,0.2
	c-0.1,0.1-0.1,0.2-0.1,0.4c0,0.2,0,0.3,0.1,0.4c0.1,0.1,0.2,0.1,0.4,0.1c0.2,0,0.3,0,0.4-0.1C270.5,13.5,270.7,13.4,270.8,13.3z
	 M270.8,13.7c0,0-0.1,0.1-0.2,0.1c-0.1,0.1-0.1,0.1-0.2,0.1c-0.1,0-0.2,0.1-0.3,0.1c-0.1,0-0.2,0-0.3,0c-0.1,0-0.2,0-0.3-0.1
	c-0.1,0-0.2-0.1-0.3-0.2c-0.1-0.1-0.1-0.2-0.2-0.3c0-0.1-0.1-0.2-0.1-0.4c0-0.2,0-0.4,0.1-0.5c0.1-0.1,0.2-0.3,0.4-0.3
	c0.2-0.1,0.4-0.1,0.6-0.2c0.2,0,0.5-0.1,0.7-0.1V12c0-0.1,0-0.2-0.1-0.3c0-0.1-0.1-0.1-0.1-0.2c-0.1,0-0.1-0.1-0.2-0.1
	c-0.1,0-0.2,0-0.3,0c-0.1,0-0.3,0-0.4,0.1c-0.2,0-0.3,0.1-0.5,0.1h0v-0.5c0.1,0,0.2-0.1,0.4-0.1s0.3,0,0.5,0c0.2,0,0.4,0,0.5,0
	c0.1,0,0.3,0.1,0.4,0.2c0.1,0.1,0.2,0.2,0.2,0.3c0.1,0.1,0.1,0.3,0.1,0.5v2h-0.5V13.7z M274.5,14.7h-0.5V14h-2v0.7h-0.5v-1.1h0.2
	c0.2-0.3,0.3-0.6,0.4-1.1c0.1-0.4,0.2-0.9,0.2-1.5h1.8v2.6h0.3V14.7z M273.7,13.6v-2.1h-0.9c0,0.4-0.1,0.9-0.2,1.2
	c-0.1,0.4-0.2,0.7-0.4,0.9H273.7z M276.7,13.3v-0.8c-0.1,0-0.3,0-0.5,0c-0.2,0-0.3,0-0.4,0.1c-0.1,0-0.2,0.1-0.3,0.2
	c-0.1,0.1-0.1,0.2-0.1,0.4c0,0.2,0,0.3,0.1,0.4c0.1,0.1,0.2,0.1,0.4,0.1c0.2,0,0.3,0,0.4-0.1C276.5,13.5,276.6,13.4,276.7,13.3z
	 M276.7,13.7c0,0-0.1,0.1-0.2,0.1c-0.1,0.1-0.1,0.1-0.2,0.1c-0.1,0-0.2,0.1-0.3,0.1c-0.1,0-0.2,0-0.3,0c-0.1,0-0.2,0-0.3-0.1
	c-0.1,0-0.2-0.1-0.3-0.2c-0.1-0.1-0.1-0.2-0.2-0.3c0-0.1-0.1-0.2-0.1-0.4c0-0.2,0-0.4,0.1-0.5c0.1-0.1,0.2-0.3,0.4-0.3
	c0.2-0.1,0.4-0.1,0.6-0.2c0.2,0,0.5-0.1,0.7-0.1V12c0-0.1,0-0.2-0.1-0.3c0-0.1-0.1-0.1-0.1-0.2c-0.1,0-0.1-0.1-0.2-0.1
	c-0.1,0-0.2,0-0.3,0c-0.1,0-0.3,0-0.4,0.1c-0.2,0-0.3,0.1-0.5,0.1h0v-0.5c0.1,0,0.2-0.1,0.4-0.1c0.2,0,0.3,0,0.5,0
	c0.2,0,0.4,0,0.5,0s0.3,0.1,0.4,0.2c0.1,0.1,0.2,0.2,0.2,0.3c0.1,0.1,0.1,0.3,0.1,0.5v2h-0.5V13.7z M280.7,14h-0.5v-2.3l-0.7,1.5
	h-0.4l-0.7-1.5V14h-0.5v-3h0.6l0.8,1.7l0.8-1.7h0.6V14z M283.7,14h-0.5v-2.2l-1.4,2.2h-0.5v-3h0.5v2.2l1.4-2.2h0.5V14z"/>
<g>
	<defs>
		<circle id="SVGID_1_" cx="203.1" cy="60.1" r="4.8"/>
	</defs>
	<clipPath id="SVGID_2_">
		<use xlink:href="#SVGID_1_"  style="overflow:visible;"/>
	</clipPath>
	<g id="b6a851ff-d5ca-4d8e-a995-8db653479238_1_" class="st10">
		<g id="b98a45a9-23a0-4367-9090-ccf93d9556be_1_">
			
				<linearGradient id="SVGID_3_" gradientUnits="userSpaceOnUse" x1="196.4609" y1="57.7165" x2="209.9187" y2="57.7165" gradientTransform="matrix(1 0 0 -1 0 118)">
				<stop  offset="0" style="stop-color:#6BA6F1"/>
				<stop  offset="1" style="stop-color:#6BA6F1;stop-opacity:0.45"/>
			</linearGradient>
			<path class="st11" d="M196.5,53.6V67h13.5V53.6H196.5z M203.2,64c-1.2,0-2.4-0.5-3.2-1.5c0,0,0-0.1,0-0.1c0-0.4,0.2-0.7,0.5-0.9
				c0.1-0.1,0.3-0.2,0.4-0.2c0.2-0.1,0.5-0.2,0.7-0.3c0.3-0.1,0.5-0.3,0.6-0.6c0-0.1,0-0.1,0-0.2c-0.1-0.2-0.2-0.3-0.3-0.5
				c-0.1-0.3-0.1-0.5-0.3-0.8c0-0.1-0.1-0.1,0-0.2c0-0.2,0-0.3,0.1-0.5c0-0.2,0-0.3,0-0.5c0-0.1,0-0.1,0-0.2c0-0.1,0.1-0.2,0.1-0.3
				l-0.1,0c0.1-0.1,0.2-0.2,0.3-0.3c0.3-0.3,0.6-0.5,1-0.4c0.1,0,0.1,0,0.2,0c0.4-0.1,0.7,0.1,0.9,0.3c0.1,0.1,0.2,0.3,0.3,0.4
				l-0.1,0c0.1,0.2,0.2,0.4,0.2,0.6c0,0.1,0,0.3,0,0.4c0.1,0.3,0,0.6-0.1,0.8c0,0-0.1,0.1-0.1,0.2c-0.1,0.4-0.2,0.7-0.4,1
				c0,0,0,0.1,0,0.1c0,0,0,0,0,0c0.1,0.1,0.2,0.3,0.4,0.4c0.3,0.2,0.6,0.3,1,0.4c0.6,0.2,0.9,0.6,0.9,1.3c0,0,0,0,0,0
				C205.5,63.5,204.4,64,203.2,64z"/>
		</g>
	</g>
</g>
<g>
	<defs>
		<circle id="SVGID_4_" cx="203.1" cy="78.1" r="4.8"/>
	</defs>
	<clipPath id="SVGID_5_">
		<use xlink:href="#SVGID_4_"  style="overflow:visible;"/>
	</clipPath>
	<g id="b6a851ff-d5ca-4d8e-a995-8db653479238_2_" class="st12">
		<g id="b98a45a9-23a0-4367-9090-ccf93d9556be_2_">
			
				<linearGradient id="SVGID_6_" gradientUnits="userSpaceOnUse" x1="196.4609" y1="39.6737" x2="209.9187" y2="39.6737" gradientTransform="matrix(1 0 0 -1 0 118)">
				<stop  offset="0" style="stop-color:#6BA6F1"/>
				<stop  offset="1" style="stop-color:#6BA6F1;stop-opacity:0.45"/>
			</linearGradient>
			<path class="st13" d="M196.5,71.6v13.5h13.5V71.6H196.5z M203.2,82.1c-1.2,0-2.4-0.5-3.2-1.5c0,0,0-0.1,0-0.1
				c0-0.4,0.2-0.7,0.5-0.9c0.1-0.1,0.3-0.2,0.4-0.2c0.2-0.1,0.5-0.2,0.7-0.3c0.3-0.1,0.5-0.3,0.6-0.6c0-0.1,0-0.1,0-0.2
				c-0.1-0.2-0.2-0.3-0.3-0.5c-0.1-0.3-0.1-0.5-0.3-0.8c0-0.1-0.1-0.1,0-0.2c0-0.2,0-0.3,0.1-0.5s0-0.3,0-0.5c0-0.1,0-0.1,0-0.2
				c0-0.1,0.1-0.2,0.1-0.3l-0.1,0c0.1-0.1,0.2-0.2,0.3-0.3c0.3-0.3,0.6-0.5,1-0.4c0.1,0,0.1,0,0.2,0c0.4-0.1,0.7,0.1,0.9,0.3
				c0.1,0.1,0.2,0.3,0.3,0.4l-0.1,0c0.1,0.2,0.2,0.4,0.2,0.6c0,0.1,0,0.3,0,0.4c0.1,0.3,0,0.6-0.1,0.8c0,0-0.1,0.1-0.1,0.2
				c-0.1,0.4-0.2,0.7-0.4,1c0,0,0,0.1,0,0.1c0,0,0,0,0,0c0.1,0.1,0.2,0.3,0.4,0.4c0.3,0.2,0.6,0.3,1,0.4c0.6,0.2,0.9,0.6,0.9,1.3
				c0,0,0,0,0,0C205.5,81.6,204.4,82.1,203.2,82.1z"/>
		</g>
	</g>
</g>
</svg>
