<svg width="324" height="117" viewBox="0 0 324 117" fill="none" xmlns="http://www.w3.org/2000/svg">
<path d="M14.9956 13H14.1993V7.71956H11.4445V13H10.6482V7.01175H14.9956V13ZM19.8497 10.7559C19.8497 11.512 19.6674 12.0965 19.3028 12.5094C18.9382 12.9196 18.4529 13.1247 17.8469 13.1247C17.2222 13.1247 16.7303 12.9129 16.371 12.4892C16.0144 12.063 15.8361 11.4852 15.8361 10.7559C15.8361 10.0052 16.0198 9.42206 16.3871 9.00649C16.7571 8.59092 17.2437 8.38313 17.8469 8.38313C18.4529 8.38313 18.9382 8.59092 19.3028 9.00649C19.6674 9.41938 19.8497 10.0025 19.8497 10.7559ZM19.0695 10.7559C19.0695 10.1741 18.9636 9.74245 18.7518 9.46094C18.54 9.17674 18.2384 9.03464 17.8469 9.03464C17.4528 9.03464 17.1485 9.17674 16.934 9.46094C16.7222 9.74245 16.6163 10.1741 16.6163 10.7559C16.6163 11.3189 16.7222 11.7466 16.934 12.0388C17.1485 12.3284 17.4528 12.4732 17.8469 12.4732C18.2357 12.4732 18.536 12.3311 18.7478 12.0469C18.9623 11.76 19.0695 11.3297 19.0695 10.7559ZM24.2414 13H23.3003L21.76 10.9288H21.382V13H20.6259V8.5078H21.382V10.4623C21.5777 10.4597 21.7439 10.4194 21.8807 10.3417C22.0201 10.2612 22.1381 10.1071 22.2346 9.87919C22.2641 9.81216 22.2962 9.73441 22.3311 9.64593C22.3686 9.55746 22.3981 9.47971 22.4196 9.41268C22.5375 9.0829 22.7011 8.84964 22.9102 8.71291C23.1193 8.57617 23.3915 8.5078 23.7266 8.5078H23.9317V9.15931H23.7588C23.547 9.15931 23.3874 9.20355 23.2802 9.29203C23.1756 9.37782 23.0872 9.53601 23.0148 9.76658C22.9397 9.99984 22.8512 10.1822 22.7493 10.3135C22.6475 10.4422 22.5349 10.5414 22.4115 10.6111L24.2414 13ZM27.2375 11.894V10.6473C27.0579 10.6634 26.83 10.6862 26.5538 10.7157C26.2804 10.7425 26.0592 10.7814 25.8903 10.8323C25.6892 10.894 25.523 10.9892 25.3916 11.1179C25.2602 11.2439 25.1945 11.4208 25.1945 11.6487C25.1945 11.9061 25.2669 12.1005 25.4117 12.2319C25.5565 12.3632 25.7683 12.4289 26.0471 12.4289C26.2857 12.4289 26.5016 12.378 26.6946 12.2761C26.8876 12.1715 27.0686 12.0442 27.2375 11.894ZM27.2375 12.5214C27.1759 12.567 27.0927 12.6313 26.9882 12.7145C26.8863 12.7949 26.7871 12.8592 26.6906 12.9075C26.5565 12.9772 26.4265 13.0308 26.3005 13.0684C26.1771 13.1059 26.0029 13.1247 25.7777 13.1247C25.5927 13.1247 25.417 13.0898 25.2508 13.0201C25.0846 12.9504 24.9385 12.8525 24.8125 12.7265C24.6918 12.6032 24.5953 12.4517 24.5229 12.2721C24.4505 12.0898 24.4143 11.8981 24.4143 11.697C24.4143 11.386 24.48 11.1219 24.6114 10.9047C24.7427 10.6849 24.9505 10.5106 25.2347 10.3819C25.4868 10.2666 25.7844 10.1875 26.1275 10.1446C26.4707 10.099 26.8407 10.0655 27.2375 10.0441V9.8993C27.2375 9.72235 27.2107 9.58025 27.1571 9.473C27.1035 9.36308 27.0284 9.27862 26.9319 9.21964C26.8354 9.15797 26.7174 9.11776 26.578 9.09899C26.4385 9.07754 26.2951 9.06681 26.1476 9.06681C25.9734 9.06681 25.7683 9.09363 25.5323 9.14725C25.2964 9.19819 25.0605 9.27326 24.8245 9.37246H24.7803V8.60432C24.9197 8.56411 25.1194 8.51987 25.3795 8.47161C25.6396 8.42335 25.897 8.39922 26.1517 8.39922C26.46 8.39922 26.7201 8.42335 26.9319 8.47161C27.1437 8.51987 27.334 8.607 27.5029 8.73302C27.6665 8.85635 27.7885 9.01587 27.8689 9.21159C27.9494 9.40732 27.9896 9.64593 27.9896 9.92745V13H27.2375V12.5214ZM32.0313 11.7573C32.0313 12.0093 31.9764 12.2225 31.8665 12.3968C31.7565 12.571 31.6158 12.7091 31.4442 12.811C31.2806 12.9102 31.0943 12.9839 30.8852 13.0322C30.676 13.0804 30.4669 13.1046 30.2578 13.1046C29.9629 13.1046 29.684 13.0751 29.4213 13.0161C29.1585 12.9598 28.8971 12.8686 28.6371 12.7426V11.9061H28.6853C28.8676 12.075 29.0955 12.2091 29.369 12.3083C29.6452 12.4048 29.92 12.4531 30.1934 12.4531C30.3114 12.4531 30.4374 12.441 30.5715 12.4169C30.7082 12.39 30.8235 12.3498 30.9173 12.2962C31.0407 12.2211 31.1278 12.1407 31.1787 12.0549C31.2324 11.9691 31.2592 11.8511 31.2592 11.701C31.2592 11.5401 31.2283 11.4114 31.1667 11.3149C31.1077 11.2157 31.0259 11.142 30.9214 11.0937C30.8168 11.0455 30.6988 11.016 30.5675 11.0053C30.4388 10.9919 30.302 10.9851 30.1572 10.9851H29.6264V10.3336H30.0326C30.1345 10.3336 30.2618 10.331 30.4146 10.3256C30.5675 10.3176 30.6894 10.2961 30.7806 10.2612C30.8959 10.2184 30.9884 10.158 31.0581 10.0803C31.1278 9.99984 31.1627 9.86578 31.1627 9.67811C31.1627 9.54673 31.1332 9.44083 31.0742 9.3604C31.0152 9.27996 30.9415 9.21696 30.853 9.17138C30.7618 9.12312 30.6626 9.09094 30.5554 9.07486C30.4481 9.05609 30.3449 9.04671 30.2457 9.04671C29.991 9.04671 29.7457 9.0829 29.5098 9.15529C29.2765 9.225 29.0754 9.32956 28.9065 9.46898H28.8583V8.65258C29.0513 8.58556 29.2644 8.52657 29.4977 8.47563C29.7336 8.42469 29.9696 8.39922 30.2055 8.39922C30.3959 8.39922 30.5889 8.41933 30.7846 8.45954C30.983 8.49708 31.1707 8.56277 31.3477 8.65661C31.5139 8.74776 31.6533 8.87377 31.7659 9.03464C31.8785 9.19283 31.9348 9.38721 31.9348 9.61778C31.9348 9.86176 31.8651 10.0763 31.7257 10.2612C31.589 10.4436 31.4066 10.5642 31.1787 10.6232V10.6513C31.4281 10.7371 31.6319 10.8685 31.79 11.0455C31.9509 11.2224 32.0313 11.4597 32.0313 11.7573ZM35.3371 11.894V10.6473C35.1575 10.6634 34.9296 10.6862 34.6535 10.7157C34.38 10.7425 34.1588 10.7814 33.9899 10.8323C33.7888 10.894 33.6226 10.9892 33.4912 11.1179C33.3598 11.2439 33.2941 11.4208 33.2941 11.6487C33.2941 11.9061 33.3665 12.1005 33.5113 12.2319C33.6561 12.3632 33.8679 12.4289 34.1467 12.4289C34.3854 12.4289 34.6012 12.378 34.7942 12.2761C34.9873 12.1715 35.1682 12.0442 35.3371 11.894ZM35.3371 12.5214C35.2755 12.567 35.1924 12.6313 35.0878 12.7145C34.9859 12.7949 34.8867 12.8592 34.7902 12.9075C34.6561 12.9772 34.5261 13.0308 34.4001 13.0684C34.2768 13.1059 34.1025 13.1247 33.8773 13.1247C33.6923 13.1247 33.5167 13.0898 33.3504 13.0201C33.1842 12.9504 33.0381 12.8525 32.9121 12.7265C32.7914 12.6032 32.6949 12.4517 32.6225 12.2721C32.5501 12.0898 32.5139 11.8981 32.5139 11.697C32.5139 11.386 32.5796 11.1219 32.711 10.9047C32.8424 10.6849 33.0502 10.5106 33.3344 10.3819C33.5864 10.2666 33.884 10.1875 34.2272 10.1446C34.5703 10.099 34.9403 10.0655 35.3371 10.0441V9.8993C35.3371 9.72235 35.3103 9.58025 35.2567 9.473C35.2031 9.36308 35.128 9.27862 35.0315 9.21964C34.935 9.15797 34.817 9.11776 34.6776 9.09899C34.5382 9.07754 34.3947 9.06681 34.2473 9.06681C34.073 9.06681 33.8679 9.09363 33.632 9.14725C33.396 9.19819 33.1601 9.27326 32.9241 9.37246H32.8799V8.60432C33.0193 8.56411 33.2191 8.51987 33.4791 8.47161C33.7392 8.42335 33.9966 8.39922 34.2513 8.39922C34.5596 8.39922 34.8197 8.42335 35.0315 8.47161C35.2433 8.51987 35.4337 8.607 35.6026 8.73302C35.7661 8.85635 35.8881 9.01587 35.9685 9.21159C36.049 9.40732 36.0892 9.64593 36.0892 9.92745V13H35.3371V12.5214ZM40.4366 9.17138H38.9084V13H38.1523V9.17138H36.6241V8.5078H40.4366V9.17138ZM42.9502 13.1046C42.2343 13.1046 41.678 12.9035 41.2812 12.5013C40.887 12.0965 40.69 11.5227 40.69 10.78C40.69 10.0481 40.8817 9.4663 41.2651 9.03464C41.6485 8.6003 42.1498 8.38313 42.7692 8.38313C43.048 8.38313 43.2947 8.42335 43.5092 8.50378C43.7237 8.58422 43.9113 8.71023 44.0722 8.88182C44.2331 9.05341 44.3564 9.26388 44.4422 9.51322C44.528 9.75988 44.5709 10.0628 44.5709 10.4221V10.8323H41.4581C41.4581 11.3551 41.5895 11.7546 41.8522 12.0308C42.115 12.3069 42.4783 12.445 42.9421 12.445C43.1083 12.445 43.2705 12.4262 43.4287 12.3887C43.5896 12.3512 43.7344 12.3029 43.8631 12.2439C43.9998 12.1823 44.1151 12.1233 44.2089 12.067C44.3028 12.008 44.3805 11.953 44.4422 11.9021H44.4864V12.7265C44.3979 12.7614 44.288 12.8056 44.1567 12.8592C44.0253 12.9102 43.9073 12.9504 43.8027 12.9799C43.6553 13.0201 43.5212 13.0509 43.4006 13.0724C43.2826 13.0938 43.1325 13.1046 42.9502 13.1046ZM43.8349 10.2532C43.8296 10.0494 43.8054 9.87383 43.7625 9.72637C43.7196 9.57891 43.658 9.45423 43.5775 9.35235C43.4891 9.23975 43.3751 9.15395 43.2357 9.09497C43.099 9.03598 42.9287 9.00649 42.7249 9.00649C42.5239 9.00649 42.3523 9.03732 42.2102 9.09899C42.0707 9.15797 41.9434 9.24511 41.8281 9.3604C41.7155 9.47836 41.6297 9.60974 41.5707 9.75452C41.5117 9.89662 41.4742 10.0628 41.4581 10.2532H43.8349ZM48.8137 13H48.0577V9.14323H46.5133C46.5053 9.36576 46.4973 9.58025 46.4892 9.78669C46.4812 9.99046 46.4731 10.1755 46.4651 10.3417C46.449 10.7626 46.4208 11.1152 46.3806 11.3994C46.3431 11.6836 46.2948 11.9115 46.2358 12.0831C46.1769 12.26 46.1112 12.3981 46.0388 12.4973C45.9691 12.5965 45.89 12.6863 45.8015 12.7667C45.7104 12.8472 45.6125 12.9075 45.5079 12.9477C45.4034 12.9879 45.2854 13.008 45.154 13.008C45.1111 13.008 45.0562 13.0067 44.9891 13.004C44.9221 13.0013 44.8752 13 44.8484 13V12.3404H44.8886C44.9074 12.3404 44.9261 12.3418 44.9449 12.3445C44.9663 12.3472 44.9905 12.3485 45.0173 12.3485C45.0816 12.3485 45.1446 12.3391 45.2063 12.3203C45.268 12.3016 45.3229 12.2667 45.3712 12.2158C45.5052 12.0844 45.6031 11.8552 45.6648 11.5281C45.7264 11.1983 45.7707 10.7385 45.7975 10.1486C45.8082 9.92879 45.8176 9.66872 45.8256 9.36844C45.8364 9.06816 45.8457 8.78128 45.8538 8.5078H48.8137V13ZM53.4588 13H52.7107V9.64996L50.5953 13H49.9117V8.5078H50.6597V11.8056L52.7509 8.5078H53.4588V13ZM56.0165 11.8538L54.8905 14.488H54.3033L55.0111 11.8538H56.0165ZM64.5425 14.3553H63.7864V12.9839H59.9015V14.3553H59.1454V12.2922H59.4711C59.8197 11.7211 60.0999 10.9731 60.3117 10.0481C60.5262 9.12044 60.6334 8.10832 60.6334 7.01175H63.9754V12.2922H64.5425V14.3553ZM63.1791 12.2922V7.70347H61.3814C61.3439 8.67135 61.2232 9.54941 61.0195 10.3377C60.8157 11.1259 60.5556 11.7774 60.2393 12.2922H63.1791ZM70.7036 13H69.7907L68.3791 10.9329H68.0855V13H67.3375V10.9329H67.0439L65.6082 13H64.7355L66.4286 10.6473C66.2972 10.5776 66.1806 10.4771 66.0787 10.3457C65.9768 10.2116 65.8857 10.0186 65.8053 9.76658C65.7329 9.53869 65.6471 9.3805 65.5479 9.29203C65.4487 9.20355 65.2865 9.15931 65.0613 9.15931H64.8883V8.5078H65.0934C65.4232 8.5078 65.694 8.57483 65.9058 8.70889C66.1203 8.84294 66.2879 9.07754 66.4085 9.41268C66.4326 9.48239 66.4621 9.56282 66.497 9.65398C66.5345 9.74245 66.5667 9.81752 66.5935 9.87919C66.682 10.083 66.7852 10.2304 66.9032 10.3216C67.0211 10.4127 67.1659 10.4637 67.3375 10.4744V8.5078H68.0855V10.4744C68.2571 10.461 68.4033 10.4087 68.5239 10.3176C68.6472 10.2264 68.7518 10.0803 68.8376 9.87919C68.8671 9.81216 68.8993 9.73441 68.9341 9.64593C68.9716 9.55746 69.0011 9.47971 69.0226 9.41268C69.1406 9.0829 69.3041 8.84964 69.5132 8.71291C69.7224 8.57617 69.9945 8.5078 70.3296 8.5078H70.5347V9.15931H70.3618C70.15 9.15931 69.9905 9.20355 69.8832 9.29203C69.7787 9.37782 69.6902 9.53601 69.6178 9.76658C69.5427 9.99984 69.4542 10.1835 69.3524 10.3176C69.2505 10.4516 69.1379 10.5535 69.0145 10.6232L70.7036 13Z" fill="#8C99B2"/>
<path d="M213.36 7.89476C213.588 8.15751 213.764 8.48327 213.89 8.87203C214.017 9.26079 214.08 9.70451 214.08 10.2032C214.08 10.6885 214.018 11.1268 213.895 11.5183C213.771 11.9097 213.593 12.2382 213.36 12.5036C213.116 12.7824 212.83 12.9889 212.503 13.1229C212.179 13.2543 211.821 13.32 211.429 13.32C211.024 13.32 210.66 13.2516 210.335 13.1149C210.011 12.9781 209.732 12.7744 209.499 12.5036C209.268 12.2382 209.091 11.9111 208.968 11.5223C208.845 11.1335 208.783 10.6938 208.783 10.2032C208.783 9.69915 208.845 9.25677 208.968 8.87605C209.094 8.49533 209.272 8.16824 209.503 7.89476C209.733 7.62933 210.011 7.42825 210.335 7.29151C210.662 7.1521 211.027 7.08239 211.429 7.08239C211.837 7.08239 212.204 7.15344 212.531 7.29553C212.858 7.43763 213.134 7.63738 213.36 7.89476ZM213.251 10.2032C213.251 9.80639 213.208 9.45517 213.122 9.14952C213.037 8.84387 212.916 8.59051 212.76 8.38943C212.602 8.18298 212.411 8.02882 212.185 7.92694C211.963 7.82237 211.712 7.77009 211.433 7.77009C211.144 7.77009 210.89 7.82103 210.673 7.92291C210.459 8.02211 210.268 8.17762 210.102 8.38943C209.944 8.59319 209.822 8.84924 209.736 9.15756C209.653 9.46589 209.611 9.81444 209.611 10.2032C209.611 10.9888 209.776 11.5907 210.106 12.0089C210.436 12.4245 210.878 12.6323 211.433 12.6323C211.988 12.6323 212.429 12.4245 212.756 12.0089C213.086 11.5907 213.251 10.9888 213.251 10.2032ZM218.178 9.36669H216.649V13.1953H215.893V9.36669H214.365V8.70312H218.178V9.36669ZM222.288 13.1953H221.532V11.1724H219.497V13.1953H218.741V8.70312H219.497V10.5209H221.532V8.70312H222.288V13.1953ZM227.078 10.9512C227.078 11.7073 226.895 12.2918 226.531 12.7047C226.166 13.1149 225.681 13.32 225.075 13.32C224.45 13.32 223.958 13.1082 223.599 12.6846C223.242 12.2583 223.064 11.6805 223.064 10.9512C223.064 10.2005 223.248 9.61737 223.615 9.2018C223.985 8.78623 224.471 8.57844 225.075 8.57844C225.681 8.57844 226.166 8.78623 226.531 9.2018C226.895 9.61469 227.078 10.1978 227.078 10.9512ZM226.297 10.9512C226.297 10.3694 226.191 9.93777 225.98 9.65625C225.768 9.37205 225.466 9.22995 225.075 9.22995C224.681 9.22995 224.376 9.37205 224.162 9.65625C223.95 9.93777 223.844 10.3694 223.844 10.9512C223.844 11.5143 223.95 11.9419 224.162 12.2341C224.376 12.5237 224.681 12.6685 225.075 12.6685C225.463 12.6685 225.764 12.5264 225.976 12.2422C226.19 11.9553 226.297 11.525 226.297 10.9512ZM229.639 13.2959C229.331 13.2959 229.048 13.2489 228.791 13.1551C228.533 13.0586 228.312 12.9138 228.127 12.7208C227.942 12.5277 227.799 12.2851 227.697 11.9928C227.595 11.6979 227.544 11.3521 227.544 10.9552C227.544 10.5611 227.596 10.2206 227.701 9.93374C227.808 9.64687 227.95 9.40557 228.127 9.20985C228.304 9.01412 228.524 8.86398 228.787 8.75942C229.052 8.65218 229.336 8.59855 229.639 8.59855C229.886 8.59855 230.123 8.63341 230.351 8.70312C230.582 8.77283 230.787 8.85326 230.966 8.94442V9.79299H230.922C230.869 9.74741 230.799 9.69513 230.713 9.63614C230.63 9.57716 230.528 9.51683 230.407 9.45517C230.303 9.40154 230.18 9.35463 230.037 9.31441C229.895 9.27419 229.759 9.25408 229.627 9.25408C229.236 9.25408 228.921 9.40289 228.682 9.70049C228.446 9.99541 228.328 10.4137 228.328 10.9552C228.328 11.4861 228.442 11.9003 228.67 12.1979C228.901 12.4929 229.22 12.6403 229.627 12.6403C229.874 12.6403 230.109 12.5894 230.331 12.4875C230.554 12.3856 230.751 12.2542 230.922 12.0934H230.966V12.9419C230.891 12.9768 230.798 13.0197 230.685 13.0706C230.572 13.1189 230.47 13.1551 230.379 13.1792C230.251 13.2168 230.135 13.2449 230.033 13.2637C229.932 13.2851 229.8 13.2959 229.639 13.2959ZM235.205 13.1953H234.457V9.84527L232.342 13.1953H231.658V8.70312H232.406V12.0009L234.497 8.70312H235.205V13.1953ZM239.581 9.36669H238.053V13.1953H237.297V9.36669H235.768V8.70312H239.581V9.36669ZM242.094 13.2999C241.379 13.2999 240.822 13.0988 240.425 12.6966C240.031 12.2918 239.834 11.718 239.834 10.9754C239.834 10.2434 240.026 9.66161 240.409 9.22995C240.793 8.79561 241.294 8.57844 241.913 8.57844C242.192 8.57844 242.439 8.61866 242.653 8.69909C242.868 8.77953 243.056 8.90554 243.216 9.07713C243.377 9.24872 243.501 9.45919 243.586 9.70853C243.672 9.95519 243.715 10.2582 243.715 10.6174V11.0276H240.602C240.602 11.5505 240.734 11.9499 240.996 12.2261C241.259 12.5022 241.623 12.6403 242.086 12.6403C242.253 12.6403 242.415 12.6216 242.573 12.584C242.734 12.5465 242.879 12.4982 243.007 12.4392C243.144 12.3776 243.259 12.3186 243.353 12.2623C243.447 12.2033 243.525 12.1483 243.586 12.0974H243.631V12.9218C243.542 12.9567 243.432 13.0009 243.301 13.0546C243.17 13.1055 243.052 13.1457 242.947 13.1752C242.8 13.2154 242.665 13.2463 242.545 13.2677C242.427 13.2892 242.277 13.2999 242.094 13.2999ZM242.979 10.4485C242.974 10.2448 242.95 10.0691 242.907 9.92168C242.864 9.77422 242.802 9.64955 242.722 9.54767C242.633 9.43506 242.519 9.34926 242.38 9.29028C242.243 9.23129 242.073 9.2018 241.869 9.2018C241.668 9.2018 241.497 9.23264 241.354 9.2943C241.215 9.35328 241.088 9.44042 240.972 9.55571C240.86 9.67368 240.774 9.80505 240.715 9.94983C240.656 10.0919 240.618 10.2582 240.602 10.4485H242.979ZM247.958 13.1953H247.202V9.33854H245.658C245.65 9.56107 245.642 9.77556 245.633 9.982C245.625 10.1858 245.617 10.3708 245.609 10.537C245.593 10.9579 245.565 11.3105 245.525 11.5947C245.487 11.8789 245.439 12.1068 245.38 12.2784C245.321 12.4553 245.255 12.5934 245.183 12.6926C245.113 12.7918 245.034 12.8816 244.946 12.9621C244.855 13.0425 244.757 13.1028 244.652 13.143C244.548 13.1832 244.43 13.2034 244.298 13.2034C244.255 13.2034 244.2 13.202 244.133 13.1993C244.066 13.1967 244.019 13.1953 243.993 13.1953V12.5358H244.033C244.052 12.5358 244.07 12.5371 244.089 12.5398C244.111 12.5425 244.135 12.5438 244.162 12.5438C244.226 12.5438 244.289 12.5344 244.351 12.5157C244.412 12.4969 244.467 12.462 244.515 12.4111C244.65 12.2797 244.747 12.0505 244.809 11.7234C244.871 11.3936 244.915 10.9338 244.942 10.344C244.952 10.1241 244.962 9.86404 244.97 9.56375C244.981 9.26347 244.99 8.97659 244.998 8.70312H247.958V13.1953ZM252.458 11.8038C252.458 12.021 252.414 12.218 252.326 12.395C252.24 12.572 252.122 12.7154 251.972 12.8253C251.795 12.9594 251.606 13.0546 251.405 13.1109C251.203 13.1672 250.945 13.1953 250.628 13.1953H249.056V8.70312H249.812V10.4525H250.648C250.986 10.4525 251.248 10.47 251.433 10.5048C251.62 10.5397 251.807 10.6255 251.992 10.7622C252.147 10.8775 252.264 11.025 252.342 11.2046C252.419 11.3842 252.458 11.584 252.458 11.8038ZM251.678 11.8159C251.678 11.6791 251.654 11.5598 251.606 11.458C251.56 11.3534 251.484 11.2689 251.376 11.2046C251.264 11.1376 251.135 11.0973 250.99 11.0839C250.848 11.0705 250.643 11.0638 250.375 11.0638H249.812V12.5921H250.359C250.627 12.5921 250.835 12.5813 250.982 12.5599C251.13 12.5358 251.257 12.4915 251.364 12.4272C251.474 12.3575 251.553 12.2757 251.602 12.1819C251.653 12.0853 251.678 11.9633 251.678 11.8159ZM256.729 13.1953H255.973V11.1724H253.938V13.1953H253.182V8.70312H253.938V10.5209H255.973V8.70312H256.729V13.1953ZM260.333 12.0894V10.8426C260.153 10.8587 259.925 10.8815 259.649 10.911C259.375 10.9378 259.154 10.9767 258.985 11.0276C258.784 11.0893 258.618 11.1845 258.487 11.3132C258.355 11.4392 258.29 11.6161 258.29 11.844C258.29 12.1014 258.362 12.2958 258.507 12.4272C258.652 12.5585 258.863 12.6242 259.142 12.6242C259.381 12.6242 259.597 12.5733 259.79 12.4714C259.983 12.3669 260.164 12.2395 260.333 12.0894ZM260.333 12.7167C260.271 12.7623 260.188 12.8267 260.083 12.9098C259.981 12.9902 259.882 13.0546 259.786 13.1028C259.652 13.1725 259.522 13.2261 259.396 13.2637C259.272 13.3012 259.098 13.32 258.873 13.32C258.688 13.32 258.512 13.2851 258.346 13.2154C258.18 13.1457 258.034 13.0479 257.908 12.9218C257.787 12.7985 257.69 12.647 257.618 12.4674C257.546 12.2851 257.509 12.0934 257.509 11.8923C257.509 11.5813 257.575 11.3172 257.706 11.1C257.838 10.8802 258.046 10.7059 258.33 10.5772C258.582 10.4619 258.879 10.3828 259.223 10.3399C259.566 10.2944 259.936 10.2608 260.333 10.2394V10.0946C260.333 9.91766 260.306 9.77556 260.252 9.66832C260.199 9.55839 260.124 9.47393 260.027 9.41495C259.93 9.35328 259.813 9.31307 259.673 9.2943C259.534 9.27285 259.39 9.26213 259.243 9.26213C259.069 9.26213 258.863 9.28894 258.627 9.34256C258.392 9.3935 258.156 9.46857 257.92 9.56777H257.875V8.79964C258.015 8.75942 258.215 8.71518 258.475 8.66692C258.735 8.61866 258.992 8.59453 259.247 8.59453C259.555 8.59453 259.815 8.61866 260.027 8.66692C260.239 8.71518 260.429 8.80232 260.598 8.92833C260.762 9.05166 260.884 9.21119 260.964 9.40691C261.044 9.60263 261.085 9.84125 261.085 10.1228V13.1953H260.333V12.7167ZM265.404 13.1953H264.648V11.4137H263.9L262.569 13.1953H261.688L263.132 11.3453C262.759 11.2354 262.486 11.0719 262.311 10.8547C262.14 10.6375 262.054 10.3466 262.054 9.982C262.054 9.75947 262.102 9.56509 262.199 9.39886C262.298 9.22995 262.431 9.08786 262.597 8.97257C262.731 8.88141 262.9 8.81438 263.104 8.77148C263.307 8.72591 263.535 8.70312 263.787 8.70312H265.404V13.1953ZM264.648 10.8185V9.30637H263.827C263.653 9.30637 263.515 9.31575 263.413 9.33452C263.314 9.35328 263.218 9.38948 263.124 9.4431C263.027 9.50209 262.953 9.58252 262.902 9.6844C262.854 9.7836 262.83 9.89085 262.83 10.0061C262.83 10.1536 262.846 10.2742 262.878 10.3681C262.913 10.4592 262.975 10.5437 263.063 10.6214C263.157 10.7019 263.271 10.7555 263.405 10.7823C263.542 10.8064 263.691 10.8185 263.852 10.8185H264.648ZM272.599 11.836C272.599 12.0532 272.557 12.2462 272.474 12.4151C272.391 12.5813 272.277 12.7208 272.132 12.8334C271.95 12.9755 271.758 13.072 271.557 13.1229C271.359 13.1712 271.12 13.1953 270.841 13.1953H269.076V8.70312H270.725C271.054 8.70312 271.296 8.71384 271.449 8.73529C271.601 8.75406 271.753 8.805 271.903 8.88811C272.061 8.97391 272.178 9.08786 272.253 9.22995C272.328 9.37205 272.365 9.54096 272.365 9.73668C272.365 9.95117 272.306 10.1442 272.189 10.3158C272.071 10.4847 271.914 10.6161 271.718 10.7099L271.738 10.7381C271.982 10.7997 272.186 10.9244 272.349 11.1121C272.516 11.2998 272.599 11.5411 272.599 11.836ZM271.589 9.85331C271.589 9.75143 271.572 9.66295 271.537 9.58788C271.505 9.51281 271.447 9.45383 271.364 9.41093C271.268 9.35999 271.159 9.3305 271.038 9.32245C270.92 9.31173 270.755 9.30637 270.544 9.30637H269.824V10.537H270.692C270.877 10.537 271.009 10.529 271.087 10.5129C271.164 10.4941 271.25 10.4566 271.344 10.4003C271.432 10.3466 271.495 10.2742 271.533 10.1831C271.571 10.0919 271.589 9.982 271.589 9.85331ZM271.819 11.84C271.819 11.6872 271.796 11.5652 271.75 11.474C271.707 11.3802 271.611 11.2971 271.461 11.2247C271.367 11.1791 271.266 11.151 271.159 11.1402C271.052 11.1295 270.903 11.1242 270.713 11.1242H269.824V12.5921H270.479C270.75 12.5921 270.961 12.5813 271.111 12.5599C271.261 12.5384 271.39 12.4955 271.497 12.4312C271.609 12.3615 271.691 12.2811 271.742 12.1899C271.793 12.0987 271.819 11.9821 271.819 11.84ZM275.346 13.2999C274.63 13.2999 274.073 13.0988 273.677 12.6966C273.282 12.2918 273.085 11.718 273.085 10.9754C273.085 10.2434 273.277 9.66161 273.66 9.22995C274.044 8.79561 274.545 8.57844 275.165 8.57844C275.443 8.57844 275.69 8.61866 275.905 8.69909C276.119 8.77953 276.307 8.90554 276.468 9.07713C276.628 9.24872 276.752 9.45919 276.838 9.70853C276.923 9.95519 276.966 10.2582 276.966 10.6174V11.0276H273.853C273.853 11.5505 273.985 11.9499 274.248 12.2261C274.51 12.5022 274.874 12.6403 275.337 12.6403C275.504 12.6403 275.666 12.6216 275.824 12.584C275.985 12.5465 276.13 12.4982 276.258 12.4392C276.395 12.3776 276.51 12.3186 276.604 12.2623C276.698 12.2033 276.776 12.1483 276.838 12.0974H276.882V12.9218C276.793 12.9567 276.683 13.0009 276.552 13.0546C276.421 13.1055 276.303 13.1457 276.198 13.1752C276.051 13.2154 275.917 13.2463 275.796 13.2677C275.678 13.2892 275.528 13.2999 275.346 13.2999ZM276.23 10.4485C276.225 10.2448 276.201 10.0691 276.158 9.92168C276.115 9.77422 276.053 9.64955 275.973 9.54767C275.884 9.43506 275.77 9.34926 275.631 9.29028C275.494 9.23129 275.324 9.2018 275.12 9.2018C274.919 9.2018 274.748 9.23264 274.606 9.2943C274.466 9.35328 274.339 9.44042 274.223 9.55571C274.111 9.67368 274.025 9.80505 273.966 9.94983C273.907 10.0919 273.87 10.2582 273.853 10.4485H276.23ZM281.209 13.1953H280.453V9.33854H278.909C278.901 9.56107 278.893 9.77556 278.885 9.982C278.877 10.1858 278.868 10.3708 278.86 10.537C278.844 10.9579 278.816 11.3105 278.776 11.5947C278.738 11.8789 278.69 12.1068 278.631 12.2784C278.572 12.4553 278.507 12.5934 278.434 12.6926C278.364 12.7918 278.285 12.8816 278.197 12.9621C278.106 13.0425 278.008 13.1028 277.903 13.143C277.799 13.1832 277.681 13.2034 277.549 13.2034C277.506 13.2034 277.452 13.202 277.384 13.1993C277.317 13.1967 277.271 13.1953 277.244 13.1953V12.5358H277.284C277.303 12.5358 277.321 12.5371 277.34 12.5398C277.362 12.5425 277.386 12.5438 277.413 12.5438C277.477 12.5438 277.54 12.5344 277.602 12.5157C277.663 12.4969 277.718 12.462 277.767 12.4111C277.901 12.2797 277.998 12.0505 278.06 11.7234C278.122 11.3936 278.166 10.9338 278.193 10.344C278.204 10.1241 278.213 9.86404 278.221 9.56375C278.232 9.26347 278.241 8.97659 278.249 8.70312H281.209V13.1953ZM285.854 13.1953H285.106V9.84527L282.991 13.1953H282.307V8.70312H283.055V12.0009L285.146 8.70312H285.854V13.1953ZM290.326 13.1953H289.57V11.4419C289.334 11.5196 289.105 11.5799 288.882 11.6228C288.66 11.6657 288.44 11.6872 288.223 11.6872C288.033 11.6872 287.846 11.6631 287.664 11.6148C287.484 11.5639 287.329 11.4821 287.197 11.3695C287.066 11.2569 286.964 11.1134 286.892 10.9392C286.822 10.7622 286.787 10.5544 286.787 10.3158V8.70312H287.543V9.92168C287.543 10.1201 287.551 10.2783 287.567 10.3962C287.583 10.5115 287.628 10.6241 287.7 10.7341C287.762 10.8279 287.854 10.9003 287.978 10.9512C288.104 11.0022 288.268 11.0276 288.472 11.0276C288.649 11.0276 288.838 11.0102 289.039 10.9754C289.243 10.9405 289.42 10.8989 289.57 10.8507V8.70312H290.326V13.1953ZM294.967 13.1953H294.219V9.84527L292.104 13.1953H291.42V8.70312H292.168V12.0009L294.259 8.70312H294.967V13.1953ZM299.608 13.1953H298.852V11.1724H296.817V13.1953H296.061V8.70312H296.817V10.5209H298.852V8.70312H299.608V13.1953ZM303.212 12.0894V10.8426C303.032 10.8587 302.804 10.8815 302.528 10.911C302.254 10.9378 302.033 10.9767 301.864 11.0276C301.663 11.0893 301.497 11.1845 301.366 11.3132C301.234 11.4392 301.169 11.6161 301.169 11.844C301.169 12.1014 301.241 12.2958 301.386 12.4272C301.531 12.5585 301.742 12.6242 302.021 12.6242C302.26 12.6242 302.476 12.5733 302.669 12.4714C302.862 12.3669 303.043 12.2395 303.212 12.0894ZM303.212 12.7167C303.15 12.7623 303.067 12.8267 302.962 12.9098C302.86 12.9902 302.761 13.0546 302.665 13.1028C302.531 13.1725 302.401 13.2261 302.275 13.2637C302.151 13.3012 301.977 13.32 301.752 13.32C301.567 13.32 301.391 13.2851 301.225 13.2154C301.059 13.1457 300.913 13.0479 300.787 12.9218C300.666 12.7985 300.569 12.647 300.497 12.4674C300.425 12.2851 300.388 12.0934 300.388 11.8923C300.388 11.5813 300.454 11.3172 300.585 11.1C300.717 10.8802 300.925 10.7059 301.209 10.5772C301.461 10.4619 301.758 10.3828 302.102 10.3399C302.445 10.2944 302.815 10.2608 303.212 10.2394V10.0946C303.212 9.91766 303.185 9.77556 303.131 9.66832C303.078 9.55839 303.002 9.47393 302.906 9.41495C302.809 9.35328 302.691 9.31307 302.552 9.2943C302.413 9.27285 302.269 9.26213 302.122 9.26213C301.947 9.26213 301.742 9.28894 301.506 9.34256C301.27 9.3935 301.035 9.46857 300.799 9.56777H300.754V8.79964C300.894 8.75942 301.094 8.71518 301.354 8.66692C301.614 8.61866 301.871 8.59453 302.126 8.59453C302.434 8.59453 302.694 8.61866 302.906 8.66692C303.118 8.71518 303.308 8.80232 303.477 8.92833C303.641 9.05166 303.763 9.21119 303.843 9.40691C303.923 9.60263 303.964 9.84125 303.964 10.1228V13.1953H303.212V12.7167Z" fill="#8C99B2"/>
<path d="M110.817 13.1953L112.836 7.20706H113.817L115.836 13.1953H114.995L114.452 11.5223H112.164L111.621 13.1953H110.817ZM114.231 10.8426L113.306 8.01943L112.385 10.8426H114.231ZM119.528 9.36669C119.702 9.54364 119.837 9.76886 119.934 10.0423C120.03 10.3131 120.079 10.6282 120.079 10.9874C120.079 11.3333 120.024 11.6537 119.914 11.9486C119.804 12.2408 119.655 12.4875 119.467 12.6886C119.274 12.8977 119.06 13.0559 118.824 13.1631C118.591 13.2677 118.336 13.32 118.06 13.32C117.778 13.32 117.52 13.2717 117.284 13.1752C117.05 13.076 116.851 12.9245 116.684 12.7208C116.478 12.4661 116.322 12.147 116.218 11.7636C116.116 11.3802 116.065 10.9056 116.065 10.3399C116.065 10.1388 116.073 9.93509 116.089 9.72864C116.108 9.51951 116.147 9.27017 116.206 8.98061C116.259 8.72322 116.332 8.48461 116.423 8.26476C116.514 8.04222 116.633 7.85455 116.781 7.70172C116.971 7.50332 117.219 7.34514 117.525 7.22717C117.833 7.1092 118.241 7.02742 118.748 6.98184C118.927 6.96576 119.119 6.95101 119.323 6.93761C119.529 6.92152 119.686 6.90946 119.793 6.90141V7.59716C119.654 7.6052 119.505 7.61593 119.347 7.62933C119.189 7.64006 119.008 7.65346 118.804 7.66955C118.533 7.691 118.25 7.73926 117.955 7.81433C117.66 7.88672 117.438 8.00067 117.288 8.15617C117.175 8.27146 117.085 8.43635 117.018 8.65083C116.951 8.86532 116.904 9.10394 116.877 9.36669C117.076 9.22459 117.288 9.10528 117.513 9.00876C117.741 8.90956 117.986 8.85996 118.249 8.85996C118.493 8.85996 118.725 8.90152 118.945 8.98463C119.164 9.06507 119.359 9.19242 119.528 9.36669ZM119.311 11.0317C119.311 10.5544 119.203 10.1885 118.989 9.93374C118.774 9.67904 118.469 9.55169 118.072 9.55169C117.855 9.55169 117.644 9.58788 117.44 9.66027C117.237 9.73266 117.045 9.82918 116.865 9.94983C116.86 10.0169 116.855 10.0973 116.849 10.1911C116.844 10.2823 116.841 10.3654 116.841 10.4405C116.841 10.907 116.879 11.2864 116.954 11.5786C117.029 11.8708 117.133 12.1001 117.268 12.2663C117.388 12.4165 117.516 12.521 117.65 12.58C117.784 12.6363 117.93 12.6645 118.088 12.6645C118.474 12.6645 118.774 12.5183 118.989 12.2261C119.203 11.9339 119.311 11.5357 119.311 11.0317ZM122.657 13.2959C122.348 13.2959 122.065 13.2489 121.808 13.1551C121.551 13.0586 121.329 12.9138 121.144 12.7208C120.959 12.5277 120.816 12.2851 120.714 11.9928C120.612 11.6979 120.561 11.3521 120.561 10.9552C120.561 10.5611 120.614 10.2206 120.718 9.93374C120.825 9.64687 120.967 9.40557 121.144 9.20985C121.321 9.01412 121.541 8.86398 121.804 8.75942C122.069 8.65218 122.354 8.59855 122.657 8.59855C122.903 8.59855 123.141 8.63341 123.368 8.70312C123.599 8.77283 123.804 8.85326 123.984 8.94442V9.79299H123.939C123.886 9.74741 123.816 9.69513 123.73 9.63614C123.647 9.57716 123.545 9.51683 123.425 9.45517C123.32 9.40154 123.197 9.35463 123.055 9.31441C122.913 9.27419 122.776 9.25408 122.644 9.25408C122.253 9.25408 121.938 9.40289 121.699 9.70049C121.463 9.99541 121.345 10.4137 121.345 10.9552C121.345 11.4861 121.459 11.9003 121.687 12.1979C121.918 12.4929 122.237 12.6403 122.644 12.6403C122.891 12.6403 123.126 12.5894 123.348 12.4875C123.571 12.3856 123.768 12.2542 123.939 12.0934H123.984V12.9419C123.909 12.9768 123.815 13.0197 123.702 13.0706C123.59 13.1189 123.488 13.1551 123.397 13.1792C123.268 13.2168 123.153 13.2449 123.051 13.2637C122.949 13.2851 122.817 13.2959 122.657 13.2959ZM128.371 10.9512C128.371 11.7073 128.189 12.2918 127.824 12.7047C127.46 13.1149 126.974 13.32 126.369 13.32C125.744 13.32 125.252 13.1082 124.893 12.6846C124.536 12.2583 124.358 11.6805 124.358 10.9512C124.358 10.2005 124.541 9.61737 124.909 9.2018C125.279 8.78623 125.765 8.57844 126.369 8.57844C126.974 8.57844 127.46 8.78623 127.824 9.2018C128.189 9.61469 128.371 10.1978 128.371 10.9512ZM127.591 10.9512C127.591 10.3694 127.485 9.93777 127.273 9.65625C127.062 9.37205 126.76 9.22995 126.369 9.22995C125.974 9.22995 125.67 9.37205 125.456 9.65625C125.244 9.93777 125.138 10.3694 125.138 10.9512C125.138 11.5143 125.244 11.9419 125.456 12.2341C125.67 12.5237 125.974 12.6685 126.369 12.6685C126.757 12.6685 127.058 12.5264 127.269 12.2422C127.484 11.9553 127.591 11.525 127.591 10.9512ZM132.626 13.1953H131.87V9.33854H130.326C130.318 9.56107 130.31 9.77556 130.302 9.982C130.294 10.1858 130.286 10.3708 130.278 10.537C130.262 10.9579 130.233 11.3105 130.193 11.5947C130.156 11.8789 130.107 12.1068 130.048 12.2784C129.989 12.4553 129.924 12.5934 129.851 12.6926C129.782 12.7918 129.703 12.8816 129.614 12.9621C129.523 13.0425 129.425 13.1028 129.32 13.143C129.216 13.1832 129.098 13.2034 128.967 13.2034C128.924 13.2034 128.869 13.202 128.802 13.1993C128.735 13.1967 128.688 13.1953 128.661 13.1953V12.5358H128.701C128.72 12.5358 128.739 12.5371 128.757 12.5398C128.779 12.5425 128.803 12.5438 128.83 12.5438C128.894 12.5438 128.957 12.5344 129.019 12.5157C129.08 12.4969 129.135 12.462 129.184 12.4111C129.318 12.2797 129.416 12.0505 129.477 11.7234C129.539 11.3936 129.583 10.9338 129.61 10.344C129.621 10.1241 129.63 9.86404 129.638 9.56375C129.649 9.26347 129.658 8.97659 129.666 8.70312H132.626V13.1953ZM139.222 10.9512C139.222 11.7046 139.039 12.2878 138.675 12.7006C138.313 13.1135 137.833 13.32 137.235 13.32C136.648 13.32 136.181 13.1269 135.836 12.7409C135.492 12.3521 135.305 11.8226 135.273 11.1523H134.48V13.1953H133.724V8.70312H134.48V10.533H135.289C135.35 9.92168 135.554 9.4431 135.9 9.09724C136.246 8.75138 136.691 8.57844 137.235 8.57844C137.865 8.57844 138.353 8.79293 138.699 9.22191C139.048 9.65089 139.222 10.2273 139.222 10.9512ZM138.442 10.9512C138.442 10.3775 138.336 9.94715 138.124 9.66027C137.915 9.37339 137.618 9.22995 137.235 9.22995C136.846 9.22995 136.546 9.37473 136.334 9.66429C136.125 9.95385 136.021 10.3828 136.021 10.9512C136.021 11.5143 136.126 11.9419 136.338 12.2341C136.55 12.5237 136.849 12.6685 137.235 12.6685C137.618 12.6685 137.915 12.5277 138.124 12.2462C138.336 11.962 138.442 11.5303 138.442 10.9512ZM143.28 9.36669H141.751V13.1953H140.995V9.36669H139.467V8.70312H143.28V9.36669ZM147.39 13.1953H146.634V11.1724H144.599V13.1953H143.843V8.70312H144.599V10.5209H146.634V8.70312H147.39V13.1953ZM150.993 12.0894V10.8426C150.814 10.8587 150.586 10.8815 150.31 10.911C150.036 10.9378 149.815 10.9767 149.646 11.0276C149.445 11.0893 149.279 11.1845 149.147 11.3132C149.016 11.4392 148.95 11.6161 148.95 11.844C148.95 12.1014 149.023 12.2958 149.167 12.4272C149.312 12.5585 149.524 12.6242 149.803 12.6242C150.041 12.6242 150.257 12.5733 150.45 12.4714C150.643 12.3669 150.824 12.2395 150.993 12.0894ZM150.993 12.7167C150.932 12.7623 150.848 12.8267 150.744 12.9098C150.642 12.9902 150.543 13.0546 150.446 13.1028C150.312 13.1725 150.182 13.2261 150.056 13.2637C149.933 13.3012 149.759 13.32 149.533 13.32C149.348 13.32 149.173 13.2851 149.006 13.2154C148.84 13.1457 148.694 13.0479 148.568 12.9218C148.447 12.7985 148.351 12.647 148.279 12.4674C148.206 12.2851 148.17 12.0934 148.17 11.8923C148.17 11.5813 148.236 11.3172 148.367 11.1C148.498 10.8802 148.706 10.7059 148.99 10.5772C149.242 10.4619 149.54 10.3828 149.883 10.3399C150.226 10.2944 150.596 10.2608 150.993 10.2394V10.0946C150.993 9.91766 150.966 9.77556 150.913 9.66832C150.859 9.55839 150.784 9.47393 150.688 9.41495C150.591 9.35328 150.473 9.31307 150.334 9.2943C150.194 9.27285 150.051 9.26213 149.903 9.26213C149.729 9.26213 149.524 9.28894 149.288 9.34256C149.052 9.3935 148.816 9.46857 148.58 9.56777H148.536V8.79964C148.675 8.75942 148.875 8.71518 149.135 8.66692C149.395 8.61866 149.653 8.59453 149.907 8.59453C150.216 8.59453 150.476 8.61866 150.688 8.66692C150.899 8.71518 151.09 8.80232 151.259 8.92833C151.422 9.05166 151.544 9.21119 151.625 9.40691C151.705 9.60263 151.745 9.84125 151.745 10.1228V13.1953H150.993V12.7167ZM156.065 13.1953H155.308V11.4137H154.56L153.229 13.1953H152.348L153.792 11.3453C153.42 11.2354 153.146 11.0719 152.972 10.8547C152.8 10.6375 152.714 10.3466 152.714 9.982C152.714 9.75947 152.763 9.56509 152.859 9.39886C152.958 9.22995 153.091 9.08786 153.257 8.97257C153.391 8.88141 153.56 8.81438 153.764 8.77148C153.968 8.72591 154.196 8.70312 154.448 8.70312H156.065V13.1953ZM155.308 10.8185V9.30637H154.488C154.314 9.30637 154.176 9.31575 154.074 9.33452C153.975 9.35328 153.878 9.38948 153.784 9.4431C153.688 9.50209 153.614 9.58252 153.563 9.6844C153.515 9.7836 153.491 9.89085 153.491 10.0061C153.491 10.1536 153.507 10.2742 153.539 10.3681C153.574 10.4592 153.635 10.5437 153.724 10.6214C153.818 10.7019 153.932 10.7555 154.066 10.7823C154.202 10.8064 154.351 10.8185 154.512 10.8185H155.308ZM163.259 11.836C163.259 12.0532 163.218 12.2462 163.135 12.4151C163.051 12.5813 162.938 12.7208 162.793 12.8334C162.61 12.9755 162.419 13.072 162.218 13.1229C162.019 13.1712 161.781 13.1953 161.502 13.1953H159.736V8.70312H161.385C161.715 8.70312 161.956 8.71384 162.109 8.73529C162.262 8.75406 162.413 8.805 162.564 8.88811C162.722 8.97391 162.838 9.08786 162.913 9.22995C162.988 9.37205 163.026 9.54096 163.026 9.73668C163.026 9.95117 162.967 10.1442 162.849 10.3158C162.731 10.4847 162.574 10.6161 162.379 10.7099L162.399 10.7381C162.643 10.7997 162.846 10.9244 163.01 11.1121C163.176 11.2998 163.259 11.5411 163.259 11.836ZM162.25 9.85331C162.25 9.75143 162.232 9.66295 162.198 9.58788C162.165 9.51281 162.108 9.45383 162.025 9.41093C161.928 9.35999 161.82 9.3305 161.699 9.32245C161.581 9.31173 161.416 9.30637 161.204 9.30637H160.484V10.537H161.353C161.538 10.537 161.669 10.529 161.747 10.5129C161.825 10.4941 161.911 10.4566 162.005 10.4003C162.093 10.3466 162.156 10.2742 162.194 10.1831C162.231 10.0919 162.25 9.982 162.25 9.85331ZM162.479 11.84C162.479 11.6872 162.456 11.5652 162.411 11.474C162.368 11.3802 162.271 11.2971 162.121 11.2247C162.027 11.1791 161.927 11.151 161.82 11.1402C161.712 11.1295 161.563 11.1242 161.373 11.1242H160.484V12.5921H161.14C161.411 12.5921 161.621 12.5813 161.771 12.5599C161.921 12.5384 162.05 12.4955 162.157 12.4312C162.27 12.3615 162.352 12.2811 162.403 12.1899C162.454 12.0987 162.479 11.9821 162.479 11.84ZM166.006 13.2999C165.29 13.2999 164.734 13.0988 164.337 12.6966C163.943 12.2918 163.746 11.718 163.746 10.9754C163.746 10.2434 163.938 9.66161 164.321 9.22995C164.704 8.79561 165.206 8.57844 165.825 8.57844C166.104 8.57844 166.351 8.61866 166.565 8.69909C166.78 8.77953 166.967 8.90554 167.128 9.07713C167.289 9.24872 167.412 9.45919 167.498 9.70853C167.584 9.95519 167.627 10.2582 167.627 10.6174V11.0276H164.514C164.514 11.5505 164.645 11.9499 164.908 12.2261C165.171 12.5022 165.534 12.6403 165.998 12.6403C166.164 12.6403 166.326 12.6216 166.485 12.584C166.646 12.5465 166.79 12.4982 166.919 12.4392C167.056 12.3776 167.171 12.3186 167.265 12.2623C167.359 12.2033 167.436 12.1483 167.498 12.0974H167.542V12.9218C167.454 12.9567 167.344 13.0009 167.213 13.0546C167.081 13.1055 166.963 13.1457 166.859 13.1752C166.711 13.2154 166.577 13.2463 166.456 13.2677C166.339 13.2892 166.188 13.2999 166.006 13.2999ZM166.891 10.4485C166.885 10.2448 166.861 10.0691 166.818 9.92168C166.776 9.77422 166.714 9.64955 166.633 9.54767C166.545 9.43506 166.431 9.34926 166.292 9.29028C166.155 9.23129 165.985 9.2018 165.781 9.2018C165.58 9.2018 165.408 9.23264 165.266 9.2943C165.127 9.35328 164.999 9.44042 164.884 9.55571C164.771 9.67368 164.686 9.80505 164.627 9.94983C164.568 10.0919 164.53 10.2582 164.514 10.4485H166.891ZM171.87 13.1953H171.114V9.33854H169.569C169.561 9.56107 169.553 9.77556 169.545 9.982C169.537 10.1858 169.529 10.3708 169.521 10.537C169.505 10.9579 169.477 11.3105 169.437 11.5947C169.399 11.8789 169.351 12.1068 169.292 12.2784C169.233 12.4553 169.167 12.5934 169.095 12.6926C169.025 12.7918 168.946 12.8816 168.857 12.9621C168.766 13.0425 168.668 13.1028 168.564 13.143C168.459 13.1832 168.341 13.2034 168.21 13.2034C168.167 13.2034 168.112 13.202 168.045 13.1993C167.978 13.1967 167.931 13.1953 167.904 13.1953V12.5358H167.944C167.963 12.5358 167.982 12.5371 168.001 12.5398C168.022 12.5425 168.046 12.5438 168.073 12.5438C168.138 12.5438 168.201 12.5344 168.262 12.5157C168.324 12.4969 168.379 12.462 168.427 12.4111C168.561 12.2797 168.659 12.0505 168.721 11.7234C168.782 11.3936 168.827 10.9338 168.853 10.344C168.864 10.1241 168.873 9.86404 168.882 9.56375C168.892 9.26347 168.902 8.97659 168.91 8.70312H171.87V13.1953ZM176.515 13.1953H175.767V9.84527L173.651 13.1953H172.968V8.70312H173.716V12.0009L175.807 8.70312H176.515V13.1953ZM180.987 13.1953H180.231V11.4419C179.995 11.5196 179.765 11.5799 179.543 11.6228C179.32 11.6657 179.101 11.6872 178.883 11.6872C178.693 11.6872 178.507 11.6631 178.324 11.6148C178.145 11.5639 177.989 11.4821 177.858 11.3695C177.727 11.2569 177.625 11.1134 177.552 10.9392C177.483 10.7622 177.448 10.5544 177.448 10.3158V8.70312H178.204V9.92168C178.204 10.1201 178.212 10.2783 178.228 10.3962C178.244 10.5115 178.288 10.6241 178.361 10.7341C178.422 10.8279 178.515 10.9003 178.638 10.9512C178.764 11.0022 178.929 11.0276 179.133 11.0276C179.31 11.0276 179.499 11.0102 179.7 10.9754C179.904 10.9405 180.081 10.8989 180.231 10.8507V8.70312H180.987V13.1953ZM185.628 13.1953H184.88V9.84527L182.764 13.1953H182.081V8.70312H182.829V12.0009L184.92 8.70312H185.628V13.1953ZM190.269 13.1953H189.513V11.1724H187.478V13.1953H186.722V8.70312H187.478V10.5209H189.513V8.70312H190.269V13.1953ZM193.872 12.0894V10.8426C193.693 10.8587 193.465 10.8815 193.188 10.911C192.915 10.9378 192.694 10.9767 192.525 11.0276C192.324 11.0893 192.158 11.1845 192.026 11.3132C191.895 11.4392 191.829 11.6161 191.829 11.844C191.829 12.1014 191.902 12.2958 192.046 12.4272C192.191 12.5585 192.403 12.6242 192.682 12.6242C192.92 12.6242 193.136 12.5733 193.329 12.4714C193.522 12.3669 193.703 12.2395 193.872 12.0894ZM193.872 12.7167C193.81 12.7623 193.727 12.8267 193.623 12.9098C193.521 12.9902 193.422 13.0546 193.325 13.1028C193.191 13.1725 193.061 13.2261 192.935 13.2637C192.812 13.3012 192.638 13.32 192.412 13.32C192.227 13.32 192.052 13.2851 191.885 13.2154C191.719 13.1457 191.573 13.0479 191.447 12.9218C191.326 12.7985 191.23 12.647 191.158 12.4674C191.085 12.2851 191.049 12.0934 191.049 11.8923C191.049 11.5813 191.115 11.3172 191.246 11.1C191.377 10.8802 191.585 10.7059 191.869 10.5772C192.121 10.4619 192.419 10.3828 192.762 10.3399C193.105 10.2944 193.475 10.2608 193.872 10.2394V10.0946C193.872 9.91766 193.845 9.77556 193.792 9.66832C193.738 9.55839 193.663 9.47393 193.567 9.41495C193.47 9.35328 193.352 9.31307 193.213 9.2943C193.073 9.27285 192.93 9.26213 192.782 9.26213C192.608 9.26213 192.403 9.28894 192.167 9.34256C191.931 9.3935 191.695 9.46857 191.459 9.56777H191.415V8.79964C191.554 8.75942 191.754 8.71518 192.014 8.66692C192.274 8.61866 192.532 8.59453 192.786 8.59453C193.095 8.59453 193.355 8.61866 193.567 8.66692C193.778 8.71518 193.969 8.80232 194.138 8.92833C194.301 9.05166 194.423 9.21119 194.504 9.40691C194.584 9.60263 194.624 9.84125 194.624 10.1228V13.1953H193.872V12.7167Z" fill="#8C99B2"/>
<rect opacity="0.5" x="5" y="24.1953" width="314" height="21" fill="#272A38"/>
<path d="M6.37273 24.1953H5V44.7862H6.37273V24.1953Z" fill="#606580"/>
<path d="M35.9775 38.4636C35.8328 38.5012 35.6799 38.5293 35.5191 38.5481C35.3609 38.5669 35.2027 38.5762 35.0445 38.5762C34.5968 38.5762 34.2321 38.4502 33.9506 38.1982C33.6718 37.9462 33.519 37.5869 33.4922 37.1204C33.4573 37.1204 33.4238 37.1204 33.3916 37.1204C33.3594 37.1204 33.3313 37.1204 33.3072 37.1204C32.9023 37.1204 32.5363 37.052 32.2092 36.9153C31.8848 36.7759 31.6073 36.5735 31.3768 36.308C31.1462 36.0426 30.9692 35.7155 30.8459 35.3267C30.7226 34.938 30.6609 34.4983 30.6609 34.0076C30.6609 33.5036 30.7226 33.0612 30.8459 32.6805C30.9719 32.2998 31.1502 31.9727 31.3808 31.6992C31.6114 31.4338 31.8889 31.2327 32.2133 31.096C32.5404 30.9565 32.905 30.8868 33.3072 30.8868C33.7147 30.8868 34.082 30.9579 34.4091 31.1C34.7362 31.2421 35.0123 31.4418 35.2376 31.6992C35.4655 31.962 35.6424 32.2877 35.7684 32.6765C35.8944 33.0652 35.9574 33.509 35.9574 34.0076C35.9574 34.7825 35.806 35.4219 35.503 35.926C35.2 36.43 34.7858 36.7719 34.2603 36.9515C34.2737 37.1016 34.2992 37.2357 34.3367 37.3537C34.3769 37.4743 34.4279 37.5695 34.4895 37.6392C34.5619 37.7223 34.6491 37.7826 34.7509 37.8202C34.8555 37.8604 34.9976 37.8805 35.1772 37.8805C35.2845 37.8805 35.4105 37.8631 35.5553 37.8282C35.7 37.796 35.8046 37.7666 35.869 37.7397H35.9775V38.4636ZM35.129 34.0076C35.129 33.6108 35.0861 33.2596 35.0003 32.954C34.9145 32.6483 34.7938 32.395 34.6383 32.1939C34.4801 31.9874 34.2884 31.8333 34.0632 31.7314C33.8407 31.6268 33.59 31.5745 33.3112 31.5745C33.0216 31.5745 32.7683 31.6255 32.5511 31.7274C32.3366 31.8266 32.1462 31.9821 31.98 32.1939C31.8218 32.3976 31.6998 32.6537 31.614 32.962C31.5309 33.2703 31.4894 33.6189 31.4894 34.0076C31.4894 34.7932 31.6543 35.3951 31.984 35.8134C32.3138 36.2316 32.7562 36.4407 33.3112 36.4407C33.8662 36.4407 34.3072 36.2316 34.6343 35.8134C34.9641 35.3951 35.129 34.7932 35.129 34.0076ZM43.0436 34.7557C43.0436 35.5117 42.8613 36.0962 42.4967 36.5091C42.132 36.9193 41.6467 37.1244 41.0408 37.1244C40.4161 37.1244 39.9241 36.9126 39.5649 36.489C39.2083 36.0627 39.03 35.4849 39.03 34.7557C39.03 34.005 39.2136 33.4218 39.581 33.0062C39.9509 32.5907 40.4376 32.3829 41.0408 32.3829C41.6467 32.3829 42.132 32.5907 42.4967 33.0062C42.8613 33.4191 43.0436 34.0023 43.0436 34.7557ZM42.2634 34.7557C42.2634 34.1739 42.1575 33.7422 41.9457 33.4607C41.7339 33.1765 41.4323 33.0344 41.0408 33.0344C40.6467 33.0344 40.3424 33.1765 40.1279 33.4607C39.9161 33.7422 39.8102 34.1739 39.8102 34.7557C39.8102 35.3187 39.9161 35.7463 40.1279 36.0386C40.3424 36.3281 40.6467 36.4729 41.0408 36.4729C41.4296 36.4729 41.7299 36.3308 41.9417 36.0466C42.1562 35.7597 42.2634 35.3294 42.2634 34.7557ZM47.0049 33.1711C47.1792 33.3481 47.3146 33.5733 47.4111 33.8468C47.5076 34.1176 47.5559 34.4326 47.5559 34.7919C47.5559 35.1377 47.5009 35.4581 47.391 35.753C47.2811 36.0453 47.1323 36.2919 46.9446 36.493C46.7516 36.7022 46.5371 36.8603 46.3011 36.9676C46.0679 37.0721 45.8132 37.1244 45.537 37.1244C45.2555 37.1244 44.9968 37.0762 44.7609 36.9796C44.5276 36.8804 44.3279 36.729 44.1616 36.5252C43.9552 36.2705 43.7997 35.9514 43.6951 35.568C43.5932 35.1846 43.5423 34.7101 43.5423 34.1444C43.5423 33.9433 43.5503 33.7395 43.5664 33.5331C43.5852 33.324 43.6241 33.0746 43.683 32.7851C43.7367 32.5277 43.8091 32.289 43.9002 32.0692C43.9914 31.8467 44.1107 31.659 44.2581 31.5062C44.4485 31.3078 44.6965 31.1496 45.0022 31.0316C45.3105 30.9136 45.718 30.8319 46.2247 30.7863C46.4044 30.7702 46.5961 30.7555 46.7998 30.7421C47.0063 30.726 47.1631 30.7139 47.2704 30.7059V31.4016C47.131 31.4096 46.9822 31.4204 46.824 31.4338C46.6658 31.4445 46.4848 31.4579 46.281 31.474C46.0102 31.4954 45.7274 31.5437 45.4325 31.6188C45.1375 31.6912 44.915 31.8051 44.7649 31.9606C44.6523 32.0759 44.5625 32.2408 44.4954 32.4553C44.4284 32.6698 44.3815 32.9084 44.3547 33.1711C44.5531 33.029 44.7649 32.9097 44.9901 32.8132C45.218 32.714 45.4633 32.6644 45.7261 32.6644C45.97 32.6644 46.2019 32.706 46.4218 32.7891C46.6417 32.8695 46.836 32.9969 47.0049 33.1711ZM46.7878 34.8361C46.7878 34.3589 46.6805 33.9929 46.466 33.7382C46.2515 33.4835 45.9459 33.3561 45.5491 33.3561C45.3319 33.3561 45.1215 33.3923 44.9177 33.4647C44.7139 33.5371 44.5222 33.6336 44.3426 33.7543C44.3372 33.8213 44.3319 33.9017 44.3265 33.9956C44.3212 34.0867 44.3185 34.1698 44.3185 34.2449C44.3185 34.7114 44.356 35.0908 44.4311 35.383C44.5061 35.6753 44.6107 35.9045 44.7448 36.0708C44.8654 36.2209 44.9928 36.3255 45.1268 36.3844C45.2609 36.4407 45.407 36.4689 45.5652 36.4689C45.9513 36.4689 46.2515 36.3228 46.466 36.0305C46.6805 35.7383 46.7878 35.3402 46.7878 34.8361ZM54.1112 38.0776H53.4074V36.9998H48.3482V32.5076H49.1042V36.3603H50.6285V32.5076H51.3845V36.3603H52.9087V32.5076H53.6648V36.3603H54.1112V38.0776ZM57.3647 35.8938V34.6471C57.1851 34.6632 56.9572 34.686 56.6811 34.7155C56.4076 34.7423 56.1864 34.7811 56.0175 34.8321C55.8164 34.8937 55.6502 34.9889 55.5188 35.1176C55.3874 35.2436 55.3217 35.4206 55.3217 35.6485C55.3217 35.9059 55.3941 36.1002 55.5389 36.2316C55.6837 36.363 55.8955 36.4287 56.1743 36.4287C56.4129 36.4287 56.6288 36.3777 56.8218 36.2759C57.0149 36.1713 57.1958 36.0439 57.3647 35.8938ZM57.3647 36.5212C57.3031 36.5668 57.22 36.6311 57.1154 36.7142C57.0135 36.7947 56.9143 36.859 56.8178 36.9073C56.6837 36.977 56.5537 37.0306 56.4277 37.0681C56.3044 37.1057 56.1301 37.1244 55.9049 37.1244C55.7199 37.1244 55.5443 37.0896 55.378 37.0199C55.2118 36.9502 55.0657 36.8523 54.9397 36.7263C54.819 36.603 54.7225 36.4515 54.6501 36.2718C54.5777 36.0895 54.5415 35.8978 54.5415 35.6967C54.5415 35.3857 54.6072 35.1216 54.7386 34.9045C54.87 34.6846 55.0778 34.5103 55.362 34.3817C55.614 34.2664 55.9116 34.1873 56.2548 34.1444C56.5979 34.0988 56.9679 34.0653 57.3647 34.0438V33.8991C57.3647 33.7221 57.3379 33.58 57.2843 33.4728C57.2307 33.3628 57.1556 33.2784 57.0591 33.2194C56.9626 33.1577 56.8446 33.1175 56.7052 33.0987C56.5658 33.0773 56.4223 33.0666 56.2749 33.0666C56.1006 33.0666 55.8955 33.0934 55.6596 33.147C55.4236 33.1979 55.1877 33.273 54.9517 33.3722H54.9075V32.6041C55.0469 32.5639 55.2467 32.5196 55.5067 32.4714C55.7668 32.4231 56.0242 32.399 56.2789 32.399C56.5872 32.399 56.8473 32.4231 57.0591 32.4714C57.2709 32.5196 57.4613 32.6068 57.6302 32.7328C57.7937 32.8561 57.9157 33.0156 57.9961 33.2114C58.0766 33.4071 58.1168 33.6457 58.1168 33.9272V36.9998H57.3647V36.5212ZM62.4361 36.9998H61.68V35.2182H60.932L59.6008 36.9998H58.72L60.1638 35.1498C59.7911 35.0399 59.5177 34.8763 59.3434 34.6591C59.1718 34.442 59.086 34.1511 59.086 33.7864C59.086 33.5639 59.1343 33.3695 59.2308 33.2033C59.33 33.0344 59.4627 32.8923 59.6289 32.777C59.763 32.6859 59.9319 32.6188 60.1357 32.5759C60.3394 32.5303 60.5673 32.5076 60.8193 32.5076H62.4361V36.9998ZM61.68 34.623V33.1108H60.8596C60.6853 33.1108 60.5472 33.1202 60.4453 33.139C60.3461 33.1577 60.2496 33.1939 60.1558 33.2475C60.0593 33.3065 59.9855 33.387 59.9346 33.4888C59.8863 33.588 59.8622 33.6953 59.8622 33.8106C59.8622 33.958 59.8783 34.0787 59.9105 34.1725C59.9453 34.2637 60.007 34.3481 60.0954 34.4259C60.1893 34.5063 60.3032 34.5599 60.4373 34.5868C60.574 34.6109 60.7228 34.623 60.8837 34.623H61.68Z" fill="#D7E2F2"/>
<path d="M18.7272 39.2951C16.071 39.2951 13.9227 37.1468 13.9227 34.4906C13.9227 31.8344 16.071 29.686 18.7272 29.686C21.3835 29.686 23.5318 31.8344 23.5318 34.4906C23.5318 37.1468 21.3835 39.2951 18.7272 39.2951Z" stroke="#606580" stroke-width="0.686364" stroke-miterlimit="10" stroke-linecap="round" stroke-linejoin="round"/>
<path d="M20.2853 32.9326L17.1692 36.0487" stroke="#606580" stroke-width="0.686364" stroke-miterlimit="10" stroke-linecap="round" stroke-linejoin="round"/>
<path d="M17.1692 32.9326L20.2853 36.0487" stroke="#606580" stroke-width="0.686364" stroke-miterlimit="10" stroke-linecap="round" stroke-linejoin="round"/>
<path d="M250.594 36.9998H247.674V36.3885H248.76V32.3748H247.674V31.8279C248.084 31.8279 248.386 31.7703 248.579 31.655C248.774 31.537 248.884 31.3158 248.909 30.9914H249.532V36.3885H250.594V36.9998ZM255.424 34.0036C255.424 35.0787 255.267 35.8683 254.953 36.3724C254.642 36.8737 254.161 37.1244 253.509 37.1244C252.85 37.1244 252.366 36.8684 252.058 36.3563C251.749 35.8442 251.595 35.0627 251.595 34.0117C251.595 32.9312 251.751 32.1416 252.062 31.6429C252.375 31.1415 252.858 30.8909 253.509 30.8909C254.169 30.8909 254.653 31.1496 254.961 31.667C255.269 32.1845 255.424 32.9633 255.424 34.0036ZM254.394 35.8295C254.472 35.6311 254.527 35.3804 254.559 35.0774C254.591 34.7744 254.607 34.4165 254.607 34.0036C254.607 33.5934 254.591 33.2368 254.559 32.9339C254.527 32.6309 254.471 32.3789 254.39 32.1778C254.31 31.974 254.198 31.8199 254.056 31.7153C253.917 31.608 253.735 31.5544 253.509 31.5544C253.287 31.5544 253.103 31.608 252.958 31.7153C252.816 31.8199 252.704 31.9767 252.621 32.1858C252.54 32.3896 252.485 32.647 252.456 32.958C252.426 33.269 252.411 33.6202 252.411 34.0117C252.411 34.4299 252.423 34.7798 252.448 35.0613C252.474 35.3428 252.531 35.5949 252.617 35.8174C252.694 36.0238 252.804 36.1834 252.946 36.296C253.091 36.4059 253.279 36.4609 253.509 36.4609C253.732 36.4609 253.914 36.4086 254.056 36.304C254.201 36.1968 254.314 36.0386 254.394 35.8295ZM259.92 34.0036C259.92 35.0787 259.763 35.8683 259.449 36.3724C259.138 36.8737 258.657 37.1244 258.006 37.1244C257.346 37.1244 256.862 36.8684 256.554 36.3563C256.245 35.8442 256.091 35.0627 256.091 34.0117C256.091 32.9312 256.247 32.1416 256.558 31.6429C256.871 31.1415 257.354 30.8909 258.006 30.8909C258.665 30.8909 259.149 31.1496 259.457 31.667C259.766 32.1845 259.92 32.9633 259.92 34.0036ZM258.89 35.8295C258.968 35.6311 259.023 35.3804 259.055 35.0774C259.087 34.7744 259.103 34.4165 259.103 34.0036C259.103 33.5934 259.087 33.2368 259.055 32.9339C259.023 32.6309 258.967 32.3789 258.886 32.1778C258.806 31.974 258.695 31.8199 258.552 31.7153C258.413 31.608 258.231 31.5544 258.006 31.5544C257.783 31.5544 257.599 31.608 257.455 31.7153C257.312 31.8199 257.2 31.9767 257.117 32.1858C257.036 32.3896 256.981 32.647 256.952 32.958C256.922 33.269 256.908 33.6202 256.908 34.0117C256.908 34.4299 256.92 34.7798 256.944 35.0613C256.971 35.3428 257.027 35.5949 257.113 35.8174C257.19 36.0238 257.3 36.1834 257.443 36.296C257.587 36.4059 257.775 36.4609 258.006 36.4609C258.228 36.4609 258.41 36.4086 258.552 36.304C258.697 36.1968 258.81 36.0386 258.89 35.8295ZM264.416 34.0036C264.416 35.0787 264.259 35.8683 263.946 36.3724C263.635 36.8737 263.153 37.1244 262.502 37.1244C261.842 37.1244 261.358 36.8684 261.05 36.3563C260.742 35.8442 260.587 35.0627 260.587 34.0117C260.587 32.9312 260.743 32.1416 261.054 31.6429C261.368 31.1415 261.85 30.8909 262.502 30.8909C263.161 30.8909 263.645 31.1496 263.954 31.667C264.262 32.1845 264.416 32.9633 264.416 34.0036ZM263.387 35.8295C263.464 35.6311 263.519 35.3804 263.551 35.0774C263.584 34.7744 263.6 34.4165 263.6 34.0036C263.6 33.5934 263.584 33.2368 263.551 32.9339C263.519 32.6309 263.463 32.3789 263.383 32.1778C263.302 31.974 263.191 31.8199 263.049 31.7153C262.909 31.608 262.727 31.5544 262.502 31.5544C262.279 31.5544 262.096 31.608 261.951 31.7153C261.809 31.8199 261.696 31.9767 261.613 32.1858C261.533 32.3896 261.478 32.647 261.448 32.958C261.419 33.269 261.404 33.6202 261.404 34.0117C261.404 34.4299 261.416 34.7798 261.44 35.0613C261.467 35.3428 261.523 35.5949 261.609 35.8174C261.687 36.0238 261.797 36.1834 261.939 36.296C262.084 36.4059 262.271 36.4609 262.502 36.4609C262.724 36.4609 262.907 36.4086 263.049 36.304C263.193 36.1968 263.306 36.0386 263.387 35.8295Z" fill="#D7E2F2"/>
<path d="M146.933 36.9998H144.013V36.3885H145.099V32.3748H144.013V31.8279C144.423 31.8279 144.725 31.7703 144.918 31.655C145.114 31.537 145.224 31.3158 145.248 30.9914H145.871V36.3885H146.933V36.9998ZM151.763 34.0036C151.763 35.0787 151.606 35.8683 151.292 36.3724C150.981 36.8737 150.5 37.1244 149.849 37.1244C149.189 37.1244 148.705 36.8684 148.397 36.3563C148.088 35.8442 147.934 35.0627 147.934 34.0117C147.934 32.9312 148.09 32.1416 148.401 31.6429C148.714 31.1415 149.197 30.8909 149.849 30.8909C150.508 30.8909 150.992 31.1496 151.3 31.667C151.609 32.1845 151.763 32.9633 151.763 34.0036ZM150.733 35.8295C150.811 35.6311 150.866 35.3804 150.898 35.0774C150.93 34.7744 150.946 34.4165 150.946 34.0036C150.946 33.5934 150.93 33.2368 150.898 32.9339C150.866 32.6309 150.81 32.3789 150.729 32.1778C150.649 31.974 150.538 31.8199 150.395 31.7153C150.256 31.608 150.074 31.5544 149.849 31.5544C149.626 31.5544 149.442 31.608 149.298 31.7153C149.155 31.8199 149.043 31.9767 148.96 32.1858C148.879 32.3896 148.824 32.647 148.795 32.958C148.765 33.269 148.751 33.6202 148.751 34.0117C148.751 34.4299 148.763 34.7798 148.787 35.0613C148.814 35.3428 148.87 35.5949 148.956 35.8174C149.033 36.0238 149.143 36.1834 149.285 36.296C149.43 36.4059 149.618 36.4609 149.849 36.4609C150.071 36.4609 150.253 36.4086 150.395 36.304C150.54 36.1968 150.653 36.0386 150.733 35.8295ZM156.259 34.0036C156.259 35.0787 156.102 35.8683 155.788 36.3724C155.477 36.8737 154.996 37.1244 154.345 37.1244C153.685 37.1244 153.201 36.8684 152.893 36.3563C152.585 35.8442 152.43 35.0627 152.43 34.0117C152.43 32.9312 152.586 32.1416 152.897 31.6429C153.211 31.1415 153.693 30.8909 154.345 30.8909C155.004 30.8909 155.488 31.1496 155.797 31.667C156.105 32.1845 156.259 32.9633 156.259 34.0036ZM155.229 35.8295C155.307 35.6311 155.362 35.3804 155.394 35.0774C155.427 34.7744 155.443 34.4165 155.443 34.0036C155.443 33.5934 155.427 33.2368 155.394 32.9339C155.362 32.6309 155.306 32.3789 155.225 32.1778C155.145 31.974 155.034 31.8199 154.892 31.7153C154.752 31.608 154.57 31.5544 154.345 31.5544C154.122 31.5544 153.939 31.608 153.794 31.7153C153.652 31.8199 153.539 31.9767 153.456 32.1858C153.376 32.3896 153.321 32.647 153.291 32.958C153.262 33.269 153.247 33.6202 153.247 34.0117C153.247 34.4299 153.259 34.7798 153.283 35.0613C153.31 35.3428 153.366 35.5949 153.452 35.8174C153.53 36.0238 153.64 36.1834 153.782 36.296C153.926 36.4059 154.114 36.4609 154.345 36.4609C154.567 36.4609 154.75 36.4086 154.892 36.304C155.036 36.1968 155.149 36.0386 155.229 35.8295ZM160.755 34.0036C160.755 35.0787 160.598 35.8683 160.285 36.3724C159.974 36.8737 159.492 37.1244 158.841 37.1244C158.181 37.1244 157.697 36.8684 157.389 36.3563C157.081 35.8442 156.927 35.0627 156.927 34.0117C156.927 32.9312 157.082 32.1416 157.393 31.6429C157.707 31.1415 158.189 30.8909 158.841 30.8909C159.5 30.8909 159.984 31.1496 160.293 31.667C160.601 32.1845 160.755 32.9633 160.755 34.0036ZM159.726 35.8295C159.803 35.6311 159.858 35.3804 159.891 35.0774C159.923 34.7744 159.939 34.4165 159.939 34.0036C159.939 33.5934 159.923 33.2368 159.891 32.9339C159.858 32.6309 159.802 32.3789 159.722 32.1778C159.641 31.974 159.53 31.8199 159.388 31.7153C159.248 31.608 159.066 31.5544 158.841 31.5544C158.618 31.5544 158.435 31.608 158.29 31.7153C158.148 31.8199 158.035 31.9767 157.952 32.1858C157.872 32.3896 157.817 32.647 157.787 32.958C157.758 33.269 157.743 33.6202 157.743 34.0117C157.743 34.4299 157.755 34.7798 157.779 35.0613C157.806 35.3428 157.862 35.5949 157.948 35.8174C158.026 36.0238 158.136 36.1834 158.278 36.296C158.423 36.4059 158.61 36.4609 158.841 36.4609C159.063 36.4609 159.246 36.4086 159.388 36.304C159.533 36.1968 159.645 36.0386 159.726 35.8295Z" fill="#D7E2F2"/>
<rect opacity="0.5" x="17" y="51" width="302" height="17" fill="#272A38"/>
<path d="M27.7411 63.9212C27.5963 63.9587 27.4435 63.9868 27.2827 64.0056C27.1245 64.0244 26.9663 64.0338 26.8081 64.0338C26.3604 64.0338 25.9957 63.9078 25.7142 63.6557C25.4354 63.4037 25.2825 63.0444 25.2557 62.5779C25.2209 62.5779 25.1874 62.5779 25.1552 62.5779C25.123 62.5779 25.0949 62.5779 25.0707 62.5779C24.6659 62.5779 24.2999 62.5096 23.9728 62.3728C23.6484 62.2334 23.3709 62.031 23.1403 61.7655C22.9098 61.5001 22.7328 61.173 22.6095 60.7843C22.4862 60.3955 22.4245 59.9558 22.4245 59.4652C22.4245 58.9611 22.4862 58.5187 22.6095 58.138C22.7355 57.7573 22.9138 57.4302 23.1444 57.1567C23.3749 56.8913 23.6524 56.6902 23.9768 56.5535C24.3039 56.4141 24.6686 56.3443 25.0707 56.3443C25.4783 56.3443 25.8456 56.4154 26.1727 56.5575C26.4998 56.6996 26.7759 56.8993 27.0011 57.1567C27.229 57.4195 27.406 57.7452 27.532 58.134C27.658 58.5227 27.721 58.9665 27.721 59.4652C27.721 60.24 27.5695 60.8794 27.2666 61.3835C26.9636 61.8875 26.5494 62.2294 26.0239 62.409C26.0373 62.5592 26.0628 62.6932 26.1003 62.8112C26.1405 62.9318 26.1914 63.027 26.2531 63.0967C26.3255 63.1798 26.4126 63.2402 26.5145 63.2777C26.6191 63.3179 26.7612 63.338 26.9408 63.338C27.0481 63.338 27.1741 63.3206 27.3188 63.2857C27.4636 63.2536 27.5682 63.2241 27.6325 63.1973H27.7411V63.9212ZM26.8926 59.4652C26.8926 59.0684 26.8497 58.7171 26.7639 58.4115C26.6781 58.1058 26.5574 57.8525 26.4019 57.6514C26.2437 57.4449 26.052 57.2908 25.8268 57.1889C25.6043 57.0843 25.3536 57.0321 25.0748 57.0321C24.7852 57.0321 24.5318 57.083 24.3147 57.1849C24.1002 57.2841 23.9098 57.4396 23.7436 57.6514C23.5854 57.8552 23.4634 58.1112 23.3776 58.4195C23.2945 58.7279 23.2529 59.0764 23.2529 59.4652C23.2529 60.2507 23.4178 60.8526 23.7476 61.2709C24.0774 61.6891 24.5198 61.8983 25.0748 61.8983C25.6298 61.8983 26.0708 61.6891 26.3979 61.2709C26.7277 60.8526 26.8926 60.2507 26.8926 59.4652ZM31.8191 62.4573H28.8994V61.846H29.9852V57.8324H28.8994V57.2854C29.3096 57.2854 29.6112 57.2278 29.8042 57.1125C30 56.9945 30.1099 56.7733 30.134 56.4489H30.7574V61.846H31.8191V62.4573Z" fill="#8C99B2"/>
<path d="M250.042 63.2527H246.346V62.4122C246.611 62.1601 246.862 61.9188 247.098 61.6883C247.334 61.4577 247.564 61.2177 247.79 60.9684C248.245 60.467 248.556 60.0662 248.723 59.7659C248.889 59.4629 248.972 59.1506 248.972 58.8289C248.972 58.6626 248.945 58.5165 248.891 58.3905C248.841 58.2645 248.769 58.1599 248.678 58.0768C248.584 57.9964 248.476 57.936 248.353 57.8958C248.229 57.8556 248.094 57.8355 247.946 57.8355C247.804 57.8355 247.659 57.8543 247.512 57.8918C247.367 57.9267 247.228 57.9709 247.094 58.0245C246.981 58.0701 246.873 58.1251 246.768 58.1894C246.663 58.2538 246.579 58.3087 246.515 58.3543H246.47V57.5017C246.637 57.4186 246.867 57.3382 247.162 57.2604C247.46 57.18 247.741 57.1398 248.007 57.1398C248.564 57.1398 249.001 57.2886 249.318 57.5862C249.634 57.8811 249.792 58.2819 249.792 58.7886C249.792 59.0219 249.764 59.2377 249.708 59.4361C249.654 59.6345 249.579 59.8182 249.483 59.9871C249.383 60.1614 249.264 60.3343 249.125 60.5059C248.985 60.6775 248.838 60.8464 248.682 61.0126C248.43 61.2861 248.149 61.5703 247.838 61.8652C247.529 62.1601 247.283 62.3934 247.098 62.565H250.042V63.2527ZM254.538 63.2527H250.842V62.4122C251.107 62.1601 251.358 61.9188 251.594 61.6883C251.83 61.4577 252.061 61.2177 252.286 60.9684C252.742 60.467 253.053 60.0662 253.219 59.7659C253.385 59.4629 253.468 59.1506 253.468 58.8289C253.468 58.6626 253.441 58.5165 253.388 58.3905C253.337 58.2645 253.266 58.1599 253.175 58.0768C253.081 57.9964 252.972 57.936 252.849 57.8958C252.725 57.8556 252.59 57.8355 252.443 57.8355C252.3 57.8355 252.156 57.8543 252.008 57.8918C251.863 57.9267 251.724 57.9709 251.59 58.0245C251.477 58.0701 251.369 58.1251 251.264 58.1894C251.16 58.2538 251.075 58.3087 251.011 58.3543H250.967V57.5017C251.133 57.4186 251.363 57.3382 251.658 57.2604C251.956 57.18 252.237 57.1398 252.503 57.1398C253.061 57.1398 253.498 57.2886 253.814 57.5862C254.13 57.8811 254.289 58.2819 254.289 58.7886C254.289 59.0219 254.26 59.2377 254.204 59.4361C254.15 59.6345 254.075 59.8182 253.979 59.9871C253.88 60.1614 253.76 60.3343 253.621 60.5059C253.482 60.6775 253.334 60.8464 253.179 61.0126C252.927 61.2861 252.645 61.5703 252.334 61.8652C252.026 62.1601 251.779 62.3934 251.594 62.565H254.538V63.2527ZM259.191 61.1936H258.479V63.2527H257.707V61.1936H255.061V60.349L257.739 57.2644H258.479V60.5501H259.191V61.1936ZM257.707 60.5501V58.2095L255.688 60.5501H257.707ZM261.041 63.2527H260.08V62.1065H261.041V63.2527ZM265.155 59.7257C265.155 59.3182 265.118 58.987 265.042 58.7323C264.967 58.475 264.864 58.2765 264.733 58.1371C264.615 58.0084 264.496 57.92 264.375 57.8717C264.254 57.8234 264.121 57.7993 263.977 57.7993C263.647 57.7993 263.384 57.9173 263.188 58.1532C262.993 58.3892 262.895 58.731 262.895 59.1787C262.895 59.4308 262.927 59.6386 262.991 59.8021C263.056 59.9656 263.16 60.1064 263.305 60.2244C263.407 60.3075 263.522 60.3638 263.651 60.3933C263.78 60.4201 263.918 60.4335 264.065 60.4335C264.237 60.4335 264.422 60.404 264.62 60.345C264.819 60.2834 264.992 60.2029 265.139 60.1037C265.142 60.0635 265.144 60.0112 265.147 59.9469C265.152 59.8799 265.155 59.8061 265.155 59.7257ZM262.078 59.2109C262.078 58.9026 262.128 58.6211 262.227 58.3664C262.329 58.1117 262.467 57.8918 262.642 57.7068C262.808 57.5299 263.01 57.3918 263.249 57.2926C263.49 57.1934 263.734 57.1438 263.981 57.1438C264.257 57.1438 264.506 57.1907 264.729 57.2845C264.954 57.3757 265.148 57.5084 265.312 57.6827C265.518 57.9025 265.678 58.1908 265.79 58.5473C265.906 58.9039 265.963 59.3544 265.963 59.8986C265.963 60.3946 265.907 60.8652 265.795 61.3102C265.685 61.7526 265.521 62.1199 265.304 62.4122C265.073 62.7232 264.796 62.9604 264.471 63.124C264.15 63.2875 263.751 63.3693 263.277 63.3693C263.17 63.3693 263.056 63.3626 262.935 63.3492C262.814 63.3385 262.702 63.317 262.597 63.2849V62.5167H262.637C262.705 62.5543 262.809 62.5905 262.951 62.6253C263.093 62.6602 263.238 62.6776 263.386 62.6776C263.911 62.6776 264.324 62.5047 264.624 62.1588C264.924 61.8129 265.095 61.3183 265.135 60.6748C264.92 60.8196 264.715 60.9255 264.52 60.9925C264.327 61.0595 264.116 61.0931 263.888 61.0931C263.666 61.0931 263.463 61.0689 263.281 61.0207C263.099 60.9724 262.915 60.8786 262.73 60.7391C262.516 60.5756 262.353 60.3692 262.243 60.1198C262.133 59.8678 262.078 59.5648 262.078 59.2109Z" fill="#8C99B2"/>
<path d="M17.3545 50.9634H15.9818V68.433H17.3545V50.9634Z" fill="#606580"/>
<path d="M146.447 63.2527H142.751V62.4122C143.016 62.1601 143.267 61.9188 143.503 61.6883C143.739 61.4577 143.969 61.2177 144.194 60.9684C144.65 60.467 144.961 60.0662 145.128 59.7659C145.294 59.4629 145.377 59.1506 145.377 58.8289C145.377 58.6626 145.35 58.5165 145.296 58.3905C145.245 58.2645 145.174 58.1599 145.083 58.0768C144.989 57.9964 144.881 57.936 144.758 57.8958C144.634 57.8556 144.499 57.8355 144.351 57.8355C144.209 57.8355 144.064 57.8543 143.917 57.8918C143.772 57.9267 143.633 57.9709 143.499 58.0245C143.386 58.0701 143.278 58.1251 143.173 58.1894C143.068 58.2538 142.984 58.3087 142.92 58.3543H142.875V57.5017C143.042 57.4186 143.272 57.3382 143.567 57.2604C143.865 57.18 144.146 57.1398 144.412 57.1398C144.969 57.1398 145.406 57.2886 145.723 57.5862C146.039 57.8811 146.197 58.2819 146.197 58.7886C146.197 59.0219 146.169 59.2377 146.113 59.4361C146.059 59.6345 145.984 59.8182 145.888 59.9871C145.788 60.1614 145.669 60.3343 145.53 60.5059C145.39 60.6775 145.243 60.8464 145.087 61.0126C144.835 61.2861 144.554 61.5703 144.243 61.8652C143.934 62.1601 143.688 62.3934 143.503 62.565H146.447V63.2527ZM150.943 63.2527H147.247V62.4122C147.512 62.1601 147.763 61.9188 147.999 61.6883C148.235 61.4577 148.465 61.2177 148.691 60.9684C149.146 60.467 149.457 60.0662 149.624 59.7659C149.79 59.4629 149.873 59.1506 149.873 58.8289C149.873 58.6626 149.846 58.5165 149.793 58.3905C149.742 58.2645 149.671 58.1599 149.579 58.0768C149.486 57.9964 149.377 57.936 149.254 57.8958C149.13 57.8556 148.995 57.8355 148.848 57.8355C148.705 57.8355 148.561 57.8543 148.413 57.8918C148.268 57.9267 148.129 57.9709 147.995 58.0245C147.882 58.0701 147.774 58.1251 147.669 58.1894C147.565 58.2538 147.48 58.3087 147.416 58.3543H147.372V57.5017C147.538 57.4186 147.768 57.3382 148.063 57.2604C148.361 57.18 148.642 57.1398 148.908 57.1398C149.466 57.1398 149.903 57.2886 150.219 57.5862C150.535 57.8811 150.693 58.2819 150.693 58.7886C150.693 59.0219 150.665 59.2377 150.609 59.4361C150.555 59.6345 150.48 59.8182 150.384 59.9871C150.285 60.1614 150.165 60.3343 150.026 60.5059C149.886 60.6775 149.739 60.8464 149.584 61.0126C149.331 61.2861 149.05 61.5703 148.739 61.8652C148.431 62.1601 148.184 62.3934 147.999 62.565H150.943V63.2527ZM155.596 61.1936H154.884V63.2527H154.112V61.1936H151.466V60.349L154.144 57.2644H154.884V60.5501H155.596V61.1936ZM154.112 60.5501V58.2095L152.093 60.5501H154.112ZM157.446 63.2527H156.485V62.1065H157.446V63.2527ZM161.56 59.7257C161.56 59.3182 161.522 58.987 161.447 58.7323C161.372 58.475 161.269 58.2765 161.138 58.1371C161.02 58.0084 160.9 57.92 160.78 57.8717C160.659 57.8234 160.526 57.7993 160.382 57.7993C160.052 57.7993 159.789 57.9173 159.593 58.1532C159.398 58.3892 159.3 58.731 159.3 59.1787C159.3 59.4308 159.332 59.6386 159.396 59.8021C159.461 59.9656 159.565 60.1064 159.71 60.2244C159.812 60.3075 159.927 60.3638 160.056 60.3933C160.185 60.4201 160.323 60.4335 160.47 60.4335C160.642 60.4335 160.827 60.404 161.025 60.345C161.224 60.2834 161.396 60.2029 161.544 60.1037C161.547 60.0635 161.549 60.0112 161.552 59.9469C161.557 59.8799 161.56 59.8061 161.56 59.7257ZM158.483 59.2109C158.483 58.9026 158.533 58.6211 158.632 58.3664C158.734 58.1117 158.872 57.8918 159.046 57.7068C159.213 57.5299 159.415 57.3918 159.654 57.2926C159.895 57.1934 160.139 57.1438 160.386 57.1438C160.662 57.1438 160.911 57.1907 161.134 57.2845C161.359 57.3757 161.553 57.5084 161.717 57.6827C161.923 57.9025 162.083 58.1908 162.195 58.5473C162.311 58.9039 162.368 59.3544 162.368 59.8986C162.368 60.3946 162.312 60.8652 162.199 61.3102C162.09 61.7526 161.926 62.1199 161.709 62.4122C161.478 62.7232 161.201 62.9604 160.876 63.124C160.555 63.2875 160.156 63.3693 159.682 63.3693C159.575 63.3693 159.461 63.3626 159.34 63.3492C159.219 63.3385 159.107 63.317 159.002 63.2849V62.5167H159.042C159.109 62.5543 159.214 62.5905 159.356 62.6253C159.498 62.6602 159.643 62.6776 159.79 62.6776C160.316 62.6776 160.729 62.5047 161.029 62.1588C161.329 61.8129 161.5 61.3183 161.54 60.6748C161.325 60.8196 161.12 60.9255 160.925 60.9925C160.732 61.0595 160.521 61.0931 160.293 61.0931C160.071 61.0931 159.868 61.0689 159.686 61.0207C159.504 60.9724 159.32 60.8786 159.135 60.7391C158.92 60.5756 158.758 60.3692 158.648 60.1198C158.538 59.8678 158.483 59.5648 158.483 59.2109Z" fill="#8C99B2"/>
<path d="M6 60.1953H15" stroke="#4B5169" stroke-width="0.686364" stroke-miterlimit="10" stroke-dasharray="0.62 0.62"/>
<line x1="108.298" y1="50.9634" x2="108.298" y2="68.433" stroke="#1C1F2B" stroke-width="0.686364"/>
<line x1="199.343" y1="50.9634" x2="199.343" y2="68.433" stroke="#1C1F2B" stroke-width="0.686364"/>
<rect x="17" y="72" width="302" height="16" fill="#272A38"/>
<path d="M27.7411 84.8848C27.5963 84.9223 27.4435 84.9505 27.2827 84.9692C27.1245 84.988 26.9663 84.9974 26.8081 84.9974C26.3604 84.9974 25.9957 84.8714 25.7142 84.6194C25.4354 84.3673 25.2825 84.0081 25.2557 83.5415C25.2209 83.5415 25.1874 83.5415 25.1552 83.5415C25.123 83.5415 25.0949 83.5415 25.0707 83.5415C24.6659 83.5415 24.2999 83.4732 23.9728 83.3364C23.6484 83.197 23.3709 82.9946 23.1403 82.7292C22.9098 82.4637 22.7328 82.1366 22.6095 81.7479C22.4862 81.3591 22.4245 80.9194 22.4245 80.4288C22.4245 79.9247 22.4862 79.4824 22.6095 79.1016C22.7355 78.7209 22.9138 78.3938 23.1444 78.1203C23.3749 77.8549 23.6524 77.6538 23.9768 77.5171C24.3039 77.3777 24.6686 77.308 25.0707 77.308C25.4783 77.308 25.8456 77.379 26.1727 77.5211C26.4998 77.6632 26.7759 77.863 27.0011 78.1203C27.229 78.3831 27.406 78.7089 27.532 79.0976C27.658 79.4864 27.721 79.9301 27.721 80.4288C27.721 81.2036 27.5695 81.8431 27.2666 82.3471C26.9636 82.8512 26.5494 83.193 26.0239 83.3726C26.0373 83.5228 26.0628 83.6568 26.1003 83.7748C26.1405 83.8955 26.1914 83.9906 26.2531 84.0603C26.3255 84.1435 26.4126 84.2038 26.5145 84.2413C26.6191 84.2815 26.7612 84.3016 26.9408 84.3016C27.0481 84.3016 27.1741 84.2842 27.3188 84.2494C27.4636 84.2172 27.5682 84.1877 27.6325 84.1609H27.7411V84.8848ZM26.8926 80.4288C26.8926 80.032 26.8497 79.6808 26.7639 79.3751C26.6781 79.0695 26.5574 78.8161 26.4019 78.615C26.2437 78.4086 26.052 78.2544 25.8268 78.1525C25.6043 78.048 25.3536 77.9957 25.0748 77.9957C24.7852 77.9957 24.5318 78.0466 24.3147 78.1485C24.1002 78.2477 23.9098 78.4032 23.7436 78.615C23.5854 78.8188 23.4634 79.0748 23.3776 79.3831C23.2945 79.6915 23.2529 80.04 23.2529 80.4288C23.2529 81.2143 23.4178 81.8163 23.7476 82.2345C24.0774 82.6528 24.5198 82.8619 25.0748 82.8619C25.6298 82.8619 26.0708 82.6528 26.3979 82.2345C26.7277 81.8163 26.8926 81.2143 26.8926 80.4288ZM32.1247 83.4209H28.4288V82.5804C28.6943 82.3283 28.9449 82.087 29.1809 81.8565C29.4168 81.6259 29.6474 81.3859 29.8726 81.1366C30.3284 80.6352 30.6394 80.2344 30.8056 79.9341C30.9719 79.6312 31.055 79.3188 31.055 78.9971C31.055 78.8308 31.0282 78.6847 30.9745 78.5587C30.9236 78.4327 30.8525 78.3281 30.7614 78.245C30.6676 78.1646 30.559 78.1043 30.4356 78.064C30.3123 78.0238 30.1769 78.0037 30.0294 78.0037C29.8874 78.0037 29.7426 78.0225 29.5951 78.06C29.4503 78.0949 29.3109 78.1391 29.1769 78.1927C29.0643 78.2383 28.9557 78.2933 28.8511 78.3576C28.7465 78.422 28.6621 78.4769 28.5977 78.5225H28.5535V77.6699C28.7197 77.5868 28.9503 77.5064 29.2452 77.4286C29.5428 77.3482 29.8243 77.308 30.0898 77.308C30.6474 77.308 31.0845 77.4568 31.4008 77.7544C31.7172 78.0493 31.8754 78.4501 31.8754 78.9569C31.8754 79.1901 31.8472 79.4059 31.7909 79.6043C31.7373 79.8027 31.6622 79.9864 31.5657 80.1553C31.4665 80.3296 31.3472 80.5025 31.2078 80.6741C31.0684 80.8457 30.9209 81.0146 30.7654 81.1808C30.5134 81.4543 30.2319 81.7385 29.9209 82.0334C29.6125 82.3283 29.3659 82.5616 29.1809 82.7332H32.1247V83.4209Z" fill="#D7E2F2"/>
<path d="M250.042 84.2161H246.346V83.3755C246.611 83.1235 246.862 82.8822 247.098 82.6516C247.334 82.4211 247.564 82.1811 247.79 81.9318C248.245 81.4304 248.556 81.0296 248.723 80.7293C248.889 80.4263 248.972 80.114 248.972 79.7922C248.972 79.626 248.945 79.4799 248.891 79.3539C248.841 79.2279 248.769 79.1233 248.678 79.0402C248.584 78.9598 248.476 78.8994 248.353 78.8592C248.229 78.819 248.094 78.7989 247.946 78.7989C247.804 78.7989 247.659 78.8177 247.512 78.8552C247.367 78.89 247.228 78.9343 247.094 78.9879C246.981 79.0335 246.873 79.0884 246.768 79.1528C246.663 79.2171 246.579 79.2721 246.515 79.3177H246.47V78.4651C246.637 78.382 246.867 78.3015 247.162 78.2238C247.46 78.1434 247.741 78.1031 248.007 78.1031C248.564 78.1031 249.001 78.2519 249.318 78.5495C249.634 78.8445 249.792 79.2453 249.792 79.752C249.792 79.9853 249.764 80.2011 249.708 80.3995C249.654 80.5979 249.579 80.7816 249.483 80.9505C249.383 81.1247 249.264 81.2977 249.125 81.4693C248.985 81.6409 248.838 81.8098 248.682 81.976C248.43 82.2495 248.149 82.5337 247.838 82.8286C247.529 83.1235 247.283 83.3568 247.098 83.5284H250.042V84.2161ZM254.538 84.2161H250.842V83.3755C251.107 83.1235 251.358 82.8822 251.594 82.6516C251.83 82.4211 252.061 82.1811 252.286 81.9318C252.742 81.4304 253.053 81.0296 253.219 80.7293C253.385 80.4263 253.468 80.114 253.468 79.7922C253.468 79.626 253.441 79.4799 253.388 79.3539C253.337 79.2279 253.266 79.1233 253.175 79.0402C253.081 78.9598 252.972 78.8994 252.849 78.8592C252.725 78.819 252.59 78.7989 252.443 78.7989C252.3 78.7989 252.156 78.8177 252.008 78.8552C251.863 78.89 251.724 78.9343 251.59 78.9879C251.477 79.0335 251.369 79.0884 251.264 79.1528C251.16 79.2171 251.075 79.2721 251.011 79.3177H250.967V78.4651C251.133 78.382 251.363 78.3015 251.658 78.2238C251.956 78.1434 252.237 78.1031 252.503 78.1031C253.061 78.1031 253.498 78.2519 253.814 78.5495C254.13 78.8445 254.289 79.2453 254.289 79.752C254.289 79.9853 254.26 80.2011 254.204 80.3995C254.15 80.5979 254.075 80.7816 253.979 80.9505C253.88 81.1247 253.76 81.2977 253.621 81.4693C253.482 81.6409 253.334 81.8098 253.179 81.976C252.927 82.2495 252.645 82.5337 252.334 82.8286C252.026 83.1235 251.779 83.3568 251.594 83.5284H254.538V84.2161ZM259.191 82.157H258.479V84.2161H257.707V82.157H255.061V81.3124L257.739 78.2278H258.479V81.5135H259.191V82.157ZM257.707 81.5135V79.1729L255.688 81.5135H257.707ZM261.041 84.2161H260.08V83.0699H261.041V84.2161ZM265.155 80.6891C265.155 80.2815 265.118 79.9504 265.042 79.6957C264.967 79.4383 264.864 79.2399 264.733 79.1005C264.615 78.9718 264.496 78.8833 264.375 78.8351C264.254 78.7868 264.121 78.7627 263.977 78.7627C263.647 78.7627 263.384 78.8807 263.188 79.1166C262.993 79.3525 262.895 79.6944 262.895 80.1421C262.895 80.3941 262.927 80.6019 262.991 80.7655C263.056 80.929 263.16 81.0698 263.305 81.1878C263.407 81.2709 263.522 81.3272 263.651 81.3567C263.78 81.3835 263.918 81.3969 264.065 81.3969C264.237 81.3969 264.422 81.3674 264.62 81.3084C264.819 81.2467 264.992 81.1663 265.139 81.0671C265.142 81.0269 265.144 80.9746 265.147 80.9103C265.152 80.8432 265.155 80.7695 265.155 80.6891ZM262.078 80.1743C262.078 79.866 262.128 79.5845 262.227 79.3297C262.329 79.075 262.467 78.8552 262.642 78.6702C262.808 78.4932 263.01 78.3552 263.249 78.256C263.49 78.1568 263.734 78.1072 263.981 78.1072C264.257 78.1072 264.506 78.1541 264.729 78.2479C264.954 78.3391 265.148 78.4718 265.312 78.6461C265.518 78.8659 265.678 79.1541 265.79 79.5107C265.906 79.8673 265.963 80.3177 265.963 80.862C265.963 81.358 265.907 81.8285 265.795 82.2736C265.685 82.716 265.521 83.0833 265.304 83.3755C265.073 83.6865 264.796 83.9238 264.471 84.0874C264.15 84.2509 263.751 84.3327 263.277 84.3327C263.17 84.3327 263.056 84.326 262.935 84.3126C262.814 84.3019 262.702 84.2804 262.597 84.2482V83.4801H262.637C262.705 83.5176 262.809 83.5538 262.951 83.5887C263.093 83.6235 263.238 83.641 263.386 83.641C263.911 83.641 264.324 83.468 264.624 83.1222C264.924 82.7763 265.095 82.2816 265.135 81.6382C264.92 81.783 264.715 81.8889 264.52 81.9559C264.327 82.0229 264.116 82.0564 263.888 82.0564C263.666 82.0564 263.463 82.0323 263.281 81.984C263.099 81.9358 262.915 81.8419 262.73 81.7025C262.516 81.539 262.353 81.3325 262.243 81.0832C262.133 80.8312 262.078 80.5282 262.078 80.1743Z" fill="#D7E2F2"/>
<path d="M17.3545 71.3445H15.9818V88.8141H17.3545V71.3445Z" fill="#0089FF"/>
<path d="M146.447 84.2161H142.751V83.3755C143.016 83.1235 143.267 82.8822 143.503 82.6516C143.739 82.4211 143.969 82.1811 144.194 81.9318C144.65 81.4304 144.961 81.0296 145.128 80.7293C145.294 80.4263 145.377 80.114 145.377 79.7922C145.377 79.626 145.35 79.4799 145.296 79.3539C145.245 79.2279 145.174 79.1233 145.083 79.0402C144.989 78.9598 144.881 78.8994 144.758 78.8592C144.634 78.819 144.499 78.7989 144.351 78.7989C144.209 78.7989 144.064 78.8177 143.917 78.8552C143.772 78.89 143.633 78.9343 143.499 78.9879C143.386 79.0335 143.278 79.0884 143.173 79.1528C143.068 79.2171 142.984 79.2721 142.92 79.3177H142.875V78.4651C143.042 78.382 143.272 78.3015 143.567 78.2238C143.865 78.1434 144.146 78.1031 144.412 78.1031C144.969 78.1031 145.406 78.2519 145.723 78.5495C146.039 78.8445 146.197 79.2453 146.197 79.752C146.197 79.9853 146.169 80.2011 146.113 80.3995C146.059 80.5979 145.984 80.7816 145.888 80.9505C145.788 81.1247 145.669 81.2977 145.53 81.4693C145.39 81.6409 145.243 81.8098 145.087 81.976C144.835 82.2495 144.554 82.5337 144.243 82.8286C143.934 83.1235 143.688 83.3568 143.503 83.5284H146.447V84.2161ZM150.943 84.2161H147.247V83.3755C147.512 83.1235 147.763 82.8822 147.999 82.6516C148.235 82.4211 148.465 82.1811 148.691 81.9318C149.146 81.4304 149.457 81.0296 149.624 80.7293C149.79 80.4263 149.873 80.114 149.873 79.7922C149.873 79.626 149.846 79.4799 149.793 79.3539C149.742 79.2279 149.671 79.1233 149.579 79.0402C149.486 78.9598 149.377 78.8994 149.254 78.8592C149.13 78.819 148.995 78.7989 148.848 78.7989C148.705 78.7989 148.561 78.8177 148.413 78.8552C148.268 78.89 148.129 78.9343 147.995 78.9879C147.882 79.0335 147.774 79.0884 147.669 79.1528C147.565 79.2171 147.48 79.2721 147.416 79.3177H147.372V78.4651C147.538 78.382 147.768 78.3015 148.063 78.2238C148.361 78.1434 148.642 78.1031 148.908 78.1031C149.466 78.1031 149.903 78.2519 150.219 78.5495C150.535 78.8445 150.693 79.2453 150.693 79.752C150.693 79.9853 150.665 80.2011 150.609 80.3995C150.555 80.5979 150.48 80.7816 150.384 80.9505C150.285 81.1247 150.165 81.2977 150.026 81.4693C149.886 81.6409 149.739 81.8098 149.584 81.976C149.331 82.2495 149.05 82.5337 148.739 82.8286C148.431 83.1235 148.184 83.3568 147.999 83.5284H150.943V84.2161ZM155.596 82.157H154.884V84.2161H154.112V82.157H151.466V81.3124L154.144 78.2278H154.884V81.5135H155.596V82.157ZM154.112 81.5135V79.1729L152.093 81.5135H154.112ZM157.446 84.2161H156.485V83.0699H157.446V84.2161ZM161.56 80.6891C161.56 80.2815 161.522 79.9504 161.447 79.6957C161.372 79.4383 161.269 79.2399 161.138 79.1005C161.02 78.9718 160.9 78.8833 160.78 78.8351C160.659 78.7868 160.526 78.7627 160.382 78.7627C160.052 78.7627 159.789 78.8807 159.593 79.1166C159.398 79.3525 159.3 79.6944 159.3 80.1421C159.3 80.3941 159.332 80.6019 159.396 80.7655C159.461 80.929 159.565 81.0698 159.71 81.1878C159.812 81.2709 159.927 81.3272 160.056 81.3567C160.185 81.3835 160.323 81.3969 160.47 81.3969C160.642 81.3969 160.827 81.3674 161.025 81.3084C161.224 81.2467 161.396 81.1663 161.544 81.0671C161.547 81.0269 161.549 80.9746 161.552 80.9103C161.557 80.8432 161.56 80.7695 161.56 80.6891ZM158.483 80.1743C158.483 79.866 158.533 79.5845 158.632 79.3297C158.734 79.075 158.872 78.8552 159.046 78.6702C159.213 78.4932 159.415 78.3552 159.654 78.256C159.895 78.1568 160.139 78.1072 160.386 78.1072C160.662 78.1072 160.911 78.1541 161.134 78.2479C161.359 78.3391 161.553 78.4718 161.717 78.6461C161.923 78.8659 162.083 79.1541 162.195 79.5107C162.311 79.8673 162.368 80.3177 162.368 80.862C162.368 81.358 162.312 81.8285 162.199 82.2736C162.09 82.716 161.926 83.0833 161.709 83.3755C161.478 83.6865 161.201 83.9238 160.876 84.0874C160.555 84.2509 160.156 84.3327 159.682 84.3327C159.575 84.3327 159.461 84.326 159.34 84.3126C159.219 84.3019 159.107 84.2804 159.002 84.2482V83.4801H159.042C159.109 83.5176 159.214 83.5538 159.356 83.5887C159.498 83.6235 159.643 83.641 159.79 83.641C160.316 83.641 160.729 83.468 161.029 83.1222C161.329 82.7763 161.5 82.2816 161.54 81.6382C161.325 81.783 161.12 81.8889 160.925 81.9559C160.732 82.0229 160.521 82.0564 160.293 82.0564C160.071 82.0564 159.868 82.0323 159.686 81.984C159.504 81.9358 159.32 81.8419 159.135 81.7025C158.92 81.539 158.758 81.3325 158.648 81.0832C158.538 80.8312 158.483 80.5282 158.483 80.1743Z" fill="#D7E2F2"/>
<path d="M6 81.1953H15" stroke="#4B5169" stroke-width="0.686364" stroke-miterlimit="10" stroke-dasharray="0.62 0.62"/>
<line x1="108.298" y1="71.3445" x2="108.298" y2="89.3964" stroke="#1C1F2B" stroke-width="0.686364"/>
<line x1="199.343" y1="71.3445" x2="199.343" y2="89.3964" stroke="#1C1F2B" stroke-width="0.686364"/>
<rect opacity="0.5" x="17" y="92" width="302" height="17" fill="#272A38"/>
<path d="M27.7411 104.684C27.5963 104.721 27.4435 104.749 27.2827 104.768C27.1245 104.787 26.9663 104.796 26.8081 104.796C26.3604 104.796 25.9957 104.67 25.7142 104.418C25.4354 104.166 25.2825 103.807 25.2557 103.34C25.2209 103.34 25.1874 103.34 25.1552 103.34C25.123 103.34 25.0949 103.34 25.0707 103.34C24.6659 103.34 24.2999 103.272 23.9728 103.135C23.6484 102.996 23.3709 102.793 23.1403 102.528C22.9098 102.263 22.7328 101.935 22.6095 101.547C22.4862 101.158 22.4245 100.718 22.4245 100.228C22.4245 99.7236 22.4862 99.2812 22.6095 98.9005C22.7355 98.5197 22.9138 98.1926 23.1444 97.9192C23.3749 97.6537 23.6524 97.4527 23.9768 97.3159C24.3039 97.1765 24.6686 97.1068 25.0707 97.1068C25.4783 97.1068 25.8456 97.1778 26.1727 97.3199C26.4998 97.462 26.7759 97.6618 27.0011 97.9192C27.229 98.1819 27.406 98.5077 27.532 98.8964C27.658 99.2852 27.721 99.7289 27.721 100.228C27.721 101.002 27.5695 101.642 27.2666 102.146C26.9636 102.65 26.5494 102.992 26.0239 103.171C26.0373 103.322 26.0628 103.456 26.1003 103.574C26.1405 103.694 26.1914 103.789 26.2531 103.859C26.3255 103.942 26.4126 104.003 26.5145 104.04C26.6191 104.08 26.7612 104.1 26.9408 104.1C27.0481 104.1 27.1741 104.083 27.3188 104.048C27.4636 104.016 27.5682 103.987 27.6325 103.96H27.7411V104.684ZM26.8926 100.228C26.8926 99.8308 26.8497 99.4796 26.7639 99.1739C26.6781 98.8683 26.5574 98.6149 26.4019 98.4138C26.2437 98.2074 26.052 98.0532 25.8268 97.9513C25.6043 97.8468 25.3536 97.7945 25.0748 97.7945C24.7852 97.7945 24.5318 97.8454 24.3147 97.9473C24.1002 98.0465 23.9098 98.202 23.7436 98.4138C23.5854 98.6176 23.4634 98.8737 23.3776 99.182C23.2945 99.4903 23.2529 99.8388 23.2529 100.228C23.2529 101.013 23.4178 101.615 23.7476 102.033C24.0774 102.452 24.5198 102.661 25.0748 102.661C25.6298 102.661 26.0708 102.452 26.3979 102.033C26.7277 101.615 26.8926 101.013 26.8926 100.228ZM30.0455 97.8025C29.9008 97.8025 29.756 97.82 29.6112 97.8548C29.4664 97.8897 29.3243 97.9353 29.1849 97.9916C29.0562 98.0452 28.9436 98.1015 28.8471 98.1605C28.7532 98.2195 28.6688 98.2744 28.5937 98.3254H28.5455V97.4768C28.7197 97.383 28.9557 97.2985 29.2533 97.2234C29.5536 97.1457 29.8391 97.1068 30.1099 97.1068C30.3807 97.1068 30.6166 97.135 30.8177 97.1913C31.0215 97.2449 31.2051 97.3293 31.3687 97.4446C31.5456 97.5733 31.6783 97.7288 31.7668 97.9111C31.858 98.0934 31.9035 98.3066 31.9035 98.5506C31.9035 98.8804 31.795 99.1699 31.5778 99.4193C31.3606 99.6686 31.1006 99.8268 30.7976 99.8938V99.9501C30.9236 99.9742 31.0577 100.016 31.1998 100.075C31.3445 100.134 31.4786 100.221 31.6019 100.336C31.7253 100.451 31.8258 100.6 31.9035 100.783C31.9813 100.962 32.0202 101.182 32.0202 101.442C32.0202 101.713 31.9733 101.962 31.8794 102.19C31.7883 102.415 31.6582 102.615 31.4893 102.789C31.315 102.972 31.1046 103.11 30.8579 103.204C30.6113 103.297 30.3311 103.344 30.0174 103.344C29.7171 103.344 29.4195 103.308 29.1246 103.236C28.8297 103.163 28.5817 103.076 28.3806 102.974V102.126H28.4369C28.6058 102.249 28.8323 102.367 29.1165 102.48C29.4007 102.592 29.6849 102.649 29.9691 102.649C30.1327 102.649 30.2962 102.623 30.4598 102.572C30.626 102.519 30.7641 102.433 30.874 102.315C30.9812 102.197 31.063 102.067 31.1193 101.925C31.1756 101.783 31.2038 101.603 31.2038 101.386C31.2038 101.169 31.1716 100.99 31.1073 100.851C31.0456 100.712 30.9585 100.602 30.8458 100.521C30.7332 100.441 30.5992 100.386 30.4437 100.356C30.2909 100.324 30.1246 100.308 29.945 100.308H29.6032V99.6404H29.8686C30.2305 99.6404 30.5241 99.5547 30.7493 99.3831C30.9772 99.2115 31.0912 98.9621 31.0912 98.635C31.0912 98.4849 31.0617 98.3562 31.0027 98.249C30.9437 98.139 30.8686 98.0519 30.7775 97.9875C30.6756 97.9178 30.563 97.8696 30.4397 97.8428C30.3163 97.816 30.185 97.8025 30.0455 97.8025Z" fill="#8C99B2"/>
<path d="M250.042 104.015H246.346V103.175C246.611 102.923 246.862 102.681 247.098 102.451C247.334 102.22 247.564 101.98 247.79 101.731C248.245 101.229 248.556 100.829 248.723 100.528C248.889 100.225 248.972 99.913 248.972 99.5913C248.972 99.4251 248.945 99.279 248.891 99.1529C248.841 99.0269 248.769 98.9224 248.678 98.8393C248.584 98.7588 248.476 98.6985 248.353 98.6583C248.229 98.6181 248.094 98.598 247.946 98.598C247.804 98.598 247.659 98.6167 247.512 98.6543C247.367 98.6891 247.228 98.7334 247.094 98.787C246.981 98.8326 246.873 98.8875 246.768 98.9519C246.663 99.0162 246.579 99.0712 246.515 99.1168H246.47V98.2642C246.637 98.181 246.867 98.1006 247.162 98.0229C247.46 97.9424 247.741 97.9022 248.007 97.9022C248.564 97.9022 249.001 98.051 249.318 98.3486C249.634 98.6435 249.792 99.0444 249.792 99.5511C249.792 99.7843 249.764 100 249.708 100.199C249.654 100.397 249.579 100.581 249.483 100.75C249.383 100.924 249.264 101.097 249.125 101.268C248.985 101.44 248.838 101.609 248.682 101.775C248.43 102.049 248.149 102.333 247.838 102.628C247.529 102.923 247.283 103.156 247.098 103.327H250.042V104.015ZM254.538 104.015H250.842V103.175C251.107 102.923 251.358 102.681 251.594 102.451C251.83 102.22 252.061 101.98 252.286 101.731C252.742 101.229 253.053 100.829 253.219 100.528C253.385 100.225 253.468 99.913 253.468 99.5913C253.468 99.4251 253.441 99.279 253.388 99.1529C253.337 99.0269 253.266 98.9224 253.175 98.8393C253.081 98.7588 252.972 98.6985 252.849 98.6583C252.725 98.6181 252.59 98.598 252.443 98.598C252.3 98.598 252.156 98.6167 252.008 98.6543C251.863 98.6891 251.724 98.7334 251.59 98.787C251.477 98.8326 251.369 98.8875 251.264 98.9519C251.16 99.0162 251.075 99.0712 251.011 99.1168H250.967V98.2642C251.133 98.181 251.363 98.1006 251.658 98.0229C251.956 97.9424 252.237 97.9022 252.503 97.9022C253.061 97.9022 253.498 98.051 253.814 98.3486C254.13 98.6435 254.289 99.0444 254.289 99.5511C254.289 99.7843 254.26 100 254.204 100.199C254.15 100.397 254.075 100.581 253.979 100.75C253.88 100.924 253.76 101.097 253.621 101.268C253.482 101.44 253.334 101.609 253.179 101.775C252.927 102.049 252.645 102.333 252.334 102.628C252.026 102.923 251.779 103.156 251.594 103.327H254.538V104.015ZM259.191 101.956H258.479V104.015H257.707V101.956H255.061V101.111L257.739 98.0269H258.479V101.313H259.191V101.956ZM257.707 101.313V98.972L255.688 101.313H257.707ZM261.041 104.015H260.08V102.869H261.041V104.015ZM265.155 100.488C265.155 100.081 265.118 99.7495 265.042 99.4948C264.967 99.2374 264.864 99.039 264.733 98.8996C264.615 98.7709 264.496 98.6824 264.375 98.6342C264.254 98.5859 264.121 98.5618 263.977 98.5618C263.647 98.5618 263.384 98.6797 263.188 98.9157C262.993 99.1516 262.895 99.4934 262.895 99.9412C262.895 100.193 262.927 100.401 262.991 100.565C263.056 100.728 263.16 100.869 263.305 100.987C263.407 101.07 263.522 101.126 263.651 101.156C263.78 101.183 263.918 101.196 264.065 101.196C264.237 101.196 264.422 101.166 264.62 101.107C264.819 101.046 264.992 100.965 265.139 100.866C265.142 100.826 265.144 100.774 265.147 100.709C265.152 100.642 265.155 100.569 265.155 100.488ZM262.078 99.9734C262.078 99.665 262.128 99.3835 262.227 99.1288C262.329 98.8741 262.467 98.6543 262.642 98.4693C262.808 98.2923 263.01 98.1542 263.249 98.055C263.49 97.9558 263.734 97.9062 263.981 97.9062C264.257 97.9062 264.506 97.9532 264.729 98.047C264.954 98.1381 265.148 98.2709 265.312 98.4451C265.518 98.665 265.678 98.9532 265.79 99.3098C265.906 99.6664 265.963 100.117 265.963 100.661C265.963 101.157 265.907 101.628 265.795 102.073C265.685 102.515 265.521 102.882 265.304 103.175C265.073 103.486 264.796 103.723 264.471 103.886C264.15 104.05 263.751 104.132 263.277 104.132C263.17 104.132 263.056 104.125 262.935 104.112C262.814 104.101 262.702 104.079 262.597 104.047V103.279H262.637C262.705 103.317 262.809 103.353 262.951 103.388C263.093 103.423 263.238 103.44 263.386 103.44C263.911 103.44 264.324 103.267 264.624 102.921C264.924 102.575 265.095 102.081 265.135 101.437C264.92 101.582 264.715 101.688 264.52 101.755C264.327 101.822 264.116 101.856 263.888 101.856C263.666 101.856 263.463 101.831 263.281 101.783C263.099 101.735 262.915 101.641 262.73 101.502C262.516 101.338 262.353 101.132 262.243 100.882C262.133 100.63 262.078 100.327 262.078 99.9734Z" fill="#8C99B2"/>
<path d="M17.3545 91.7258H15.9818V109.195H17.3545V91.7258Z" fill="#606580"/>
<path d="M146.447 104.015H142.751V103.175C143.016 102.923 143.267 102.681 143.503 102.451C143.739 102.22 143.969 101.98 144.194 101.731C144.65 101.229 144.961 100.829 145.128 100.528C145.294 100.225 145.377 99.913 145.377 99.5913C145.377 99.4251 145.35 99.279 145.296 99.1529C145.245 99.0269 145.174 98.9224 145.083 98.8393C144.989 98.7588 144.881 98.6985 144.758 98.6583C144.634 98.6181 144.499 98.598 144.351 98.598C144.209 98.598 144.064 98.6167 143.917 98.6543C143.772 98.6891 143.633 98.7334 143.499 98.787C143.386 98.8326 143.278 98.8875 143.173 98.9519C143.068 99.0162 142.984 99.0712 142.92 99.1168H142.875V98.2642C143.042 98.181 143.272 98.1006 143.567 98.0229C143.865 97.9424 144.146 97.9022 144.412 97.9022C144.969 97.9022 145.406 98.051 145.723 98.3486C146.039 98.6435 146.197 99.0444 146.197 99.5511C146.197 99.7843 146.169 100 146.113 100.199C146.059 100.397 145.984 100.581 145.888 100.75C145.788 100.924 145.669 101.097 145.53 101.268C145.39 101.44 145.243 101.609 145.087 101.775C144.835 102.049 144.554 102.333 144.243 102.628C143.934 102.923 143.688 103.156 143.503 103.327H146.447V104.015ZM150.943 104.015H147.247V103.175C147.512 102.923 147.763 102.681 147.999 102.451C148.235 102.22 148.465 101.98 148.691 101.731C149.146 101.229 149.457 100.829 149.624 100.528C149.79 100.225 149.873 99.913 149.873 99.5913C149.873 99.4251 149.846 99.279 149.793 99.1529C149.742 99.0269 149.671 98.9224 149.579 98.8393C149.486 98.7588 149.377 98.6985 149.254 98.6583C149.13 98.6181 148.995 98.598 148.848 98.598C148.705 98.598 148.561 98.6167 148.413 98.6543C148.268 98.6891 148.129 98.7334 147.995 98.787C147.882 98.8326 147.774 98.8875 147.669 98.9519C147.565 99.0162 147.48 99.0712 147.416 99.1168H147.372V98.2642C147.538 98.181 147.768 98.1006 148.063 98.0229C148.361 97.9424 148.642 97.9022 148.908 97.9022C149.466 97.9022 149.903 98.051 150.219 98.3486C150.535 98.6435 150.693 99.0444 150.693 99.5511C150.693 99.7843 150.665 100 150.609 100.199C150.555 100.397 150.48 100.581 150.384 100.75C150.285 100.924 150.165 101.097 150.026 101.268C149.886 101.44 149.739 101.609 149.584 101.775C149.331 102.049 149.05 102.333 148.739 102.628C148.431 102.923 148.184 103.156 147.999 103.327H150.943V104.015ZM155.596 101.956H154.884V104.015H154.112V101.956H151.466V101.111L154.144 98.0269H154.884V101.313H155.596V101.956ZM154.112 101.313V98.972L152.093 101.313H154.112ZM157.446 104.015H156.485V102.869H157.446V104.015ZM161.56 100.488C161.56 100.081 161.522 99.7495 161.447 99.4948C161.372 99.2374 161.269 99.039 161.138 98.8996C161.02 98.7709 160.9 98.6824 160.78 98.6342C160.659 98.5859 160.526 98.5618 160.382 98.5618C160.052 98.5618 159.789 98.6797 159.593 98.9157C159.398 99.1516 159.3 99.4934 159.3 99.9412C159.3 100.193 159.332 100.401 159.396 100.565C159.461 100.728 159.565 100.869 159.71 100.987C159.812 101.07 159.927 101.126 160.056 101.156C160.185 101.183 160.323 101.196 160.47 101.196C160.642 101.196 160.827 101.166 161.025 101.107C161.224 101.046 161.396 100.965 161.544 100.866C161.547 100.826 161.549 100.774 161.552 100.709C161.557 100.642 161.56 100.569 161.56 100.488ZM158.483 99.9734C158.483 99.665 158.533 99.3835 158.632 99.1288C158.734 98.8741 158.872 98.6543 159.046 98.4693C159.213 98.2923 159.415 98.1542 159.654 98.055C159.895 97.9558 160.139 97.9062 160.386 97.9062C160.662 97.9062 160.911 97.9532 161.134 98.047C161.359 98.1381 161.553 98.2709 161.717 98.4451C161.923 98.665 162.083 98.9532 162.195 99.3098C162.311 99.6664 162.368 100.117 162.368 100.661C162.368 101.157 162.312 101.628 162.199 102.073C162.09 102.515 161.926 102.882 161.709 103.175C161.478 103.486 161.201 103.723 160.876 103.886C160.555 104.05 160.156 104.132 159.682 104.132C159.575 104.132 159.461 104.125 159.34 104.112C159.219 104.101 159.107 104.079 159.002 104.047V103.279H159.042C159.109 103.317 159.214 103.353 159.356 103.388C159.498 103.423 159.643 103.44 159.79 103.44C160.316 103.44 160.729 103.267 161.029 102.921C161.329 102.575 161.5 102.081 161.54 101.437C161.325 101.582 161.12 101.688 160.925 101.755C160.732 101.822 160.521 101.856 160.293 101.856C160.071 101.856 159.868 101.831 159.686 101.783C159.504 101.735 159.32 101.641 159.135 101.502C158.92 101.338 158.758 101.132 158.648 100.882C158.538 100.63 158.483 100.327 158.483 99.9734Z" fill="#8C99B2"/>
<path d="M6 101.195H15" stroke="#4B5169" stroke-width="0.686364" stroke-miterlimit="10" stroke-dasharray="0.62 0.62"/>
<line x1="108.298" y1="91.7258" x2="108.298" y2="109.195" stroke="#1C1F2B" stroke-width="0.686364"/>
<line x1="199.343" y1="91.7258" x2="199.343" y2="109.195" stroke="#1C1F2B" stroke-width="0.686364"/>
<path d="M6 45.1953L6 101.195" stroke="#4B5169" stroke-miterlimit="10" stroke-dasharray="0.9 0.9"/>
</svg>
