<svg width="324" height="117" viewBox="0 0 324 117" fill="none" xmlns="http://www.w3.org/2000/svg">
<path d="M287.956 14L290.162 7.45654H291.234L293.44 14H292.522L291.929 12.1719H289.428L288.835 14H287.956ZM291.687 11.4292L290.676 8.34424L289.67 11.4292H291.687ZM298.499 11.9917C298.499 12.3169 298.437 12.604 298.314 12.853C298.191 13.1021 298.025 13.3071 297.817 13.4683C297.571 13.6616 297.308 13.7993 297.026 13.8813C296.745 13.9604 296.382 14 295.937 14H294.06V7.45654H295.796C296.262 7.45654 296.61 7.47266 296.842 7.50488C297.076 7.53418 297.3 7.60596 297.514 7.72021C297.749 7.84619 297.92 8.01172 298.028 8.2168C298.137 8.41895 298.191 8.65771 298.191 8.93311C298.191 9.24072 298.109 9.51611 297.945 9.75928C297.784 10.0024 297.56 10.1929 297.272 10.3306V10.3657C297.662 10.4712 297.964 10.6646 298.178 10.9458C298.392 11.2241 298.499 11.5728 298.499 11.9917ZM297.286 9.05615C297.286 8.89795 297.259 8.76172 297.207 8.64746C297.154 8.53027 297.069 8.43799 296.952 8.37061C296.811 8.2915 296.654 8.24316 296.481 8.22559C296.309 8.20801 296.07 8.19922 295.765 8.19922H294.93V10.1152H295.919C296.191 10.1152 296.392 10.1021 296.521 10.0757C296.65 10.0464 296.783 9.98779 296.921 9.8999C297.053 9.81494 297.146 9.70361 297.202 9.56592C297.258 9.42822 297.286 9.2583 297.286 9.05615ZM297.593 12.0269C297.593 11.7808 297.558 11.5786 297.488 11.4204C297.417 11.2593 297.275 11.123 297.062 11.0117C296.924 10.9385 296.773 10.8916 296.609 10.8711C296.448 10.8506 296.218 10.8403 295.919 10.8403H294.93V13.2573H295.638C296.019 13.2573 296.319 13.2397 296.539 13.2046C296.758 13.1694 296.952 13.0947 297.119 12.9805C297.283 12.8662 297.403 12.7373 297.479 12.5938C297.555 12.4473 297.593 12.2583 297.593 12.0269ZM300.898 14V8.22998H298.701V7.45654H303.965V8.22998H301.768V14H300.898ZM306.835 11.5347H304.356V10.7393H306.835V11.5347ZM311.414 14H308.224V13.332H309.41V8.94629H308.224V8.34863C308.672 8.34863 309.001 8.28564 309.212 8.15967C309.426 8.03076 309.546 7.78906 309.573 7.43457H310.254V13.332H311.414V14ZM316.692 10.7261C316.692 11.9009 316.521 12.7637 316.178 13.3145C315.838 13.8623 315.312 14.1362 314.6 14.1362C313.879 14.1362 313.351 13.8564 313.014 13.2969C312.677 12.7373 312.508 11.8833 312.508 10.7349C312.508 9.5542 312.678 8.69141 313.018 8.14648C313.361 7.59863 313.888 7.32471 314.6 7.32471C315.321 7.32471 315.85 7.60742 316.187 8.17285C316.523 8.73828 316.692 9.58936 316.692 10.7261ZM315.567 12.7212C315.652 12.5044 315.712 12.2305 315.747 11.8994C315.782 11.5684 315.8 11.1772 315.8 10.7261C315.8 10.2778 315.782 9.88818 315.747 9.55713C315.712 9.22607 315.65 8.95068 315.562 8.73096C315.475 8.5083 315.353 8.33984 315.198 8.22559C315.045 8.1084 314.846 8.0498 314.6 8.0498C314.357 8.0498 314.156 8.1084 313.998 8.22559C313.843 8.33984 313.72 8.51123 313.629 8.73975C313.541 8.9624 313.481 9.24365 313.449 9.5835C313.417 9.92334 313.4 10.3071 313.4 10.7349C313.4 11.1919 313.414 11.5742 313.44 11.8818C313.469 12.1895 313.531 12.4648 313.625 12.708C313.709 12.9336 313.83 13.1079 313.985 13.231C314.143 13.3511 314.348 13.4111 314.6 13.4111C314.843 13.4111 315.042 13.354 315.198 13.2397C315.356 13.1226 315.479 12.9497 315.567 12.7212Z" fill="#D7E2F2"/>
<path d="M20 50.1276L36.4946 50.1274L44.3451 52.8943H60.7009L69.8601 55.6612H86.2159L95.048 52.8943H102.899L111.797 55.6612H120.067L128.499 59H145.356L153.616 54.0235H161.876L170.497 50.1274H186.875L195.617 47H204.009L212.626 50.2267H318" stroke="#5C6585" stroke-width="0.75" stroke-linecap="round" stroke-dasharray="0.5 1.5"/>
<path d="M20 41L20 102" stroke="#5E6582" stroke-width="0.4"/>
<g opacity="0.1">
<path d="M32.9613 41.3857V102.041V41.3857Z" fill="#0C1324"/>
<path d="M32.9613 41.3857V102.041" stroke="#5E6582" stroke-width="0.4"/>
</g>
<g opacity="0.1">
<path d="M45.415 41.3857V102.041V41.3857Z" fill="#0C1324"/>
<path d="M45.415 41.3857V102.041" stroke="#5E6582" stroke-width="0.4"/>
</g>
<g opacity="0.1">
<path d="M58.4102 41.3857V102.041V41.3857Z" fill="#0C1324"/>
<path d="M58.4102 41.3857V102.041" stroke="#5E6582" stroke-width="0.4"/>
</g>
<g opacity="0.1">
<path d="M71.4054 41.3857V102.041V41.3857Z" fill="#0C1324"/>
<path d="M71.4054 41.3857V102.041" stroke="#5E6582" stroke-width="0.4"/>
</g>
<g opacity="0.1">
<path d="M83.859 41.3857V102.041V41.3857Z" fill="#0C1324"/>
<path d="M83.859 41.3857V102.041" stroke="#5E6582" stroke-width="0.4"/>
</g>
<g opacity="0.1">
<path d="M96.8542 41.3857V102.041V41.3857Z" fill="#0C1324"/>
<path d="M96.8542 41.3857V102.041" stroke="#5E6582" stroke-width="0.4"/>
</g>
<g opacity="0.1">
<path d="M109.308 41.3857V102.041V41.3857Z" fill="#0C1324"/>
<path d="M109.308 41.3857V102.041" stroke="#5E6582" stroke-width="0.4"/>
</g>
<g opacity="0.1">
<path d="M122.303 41.3857V102.041V41.3857Z" fill="#0C1324"/>
<path d="M122.303 41.3857V102.041" stroke="#5E6582" stroke-width="0.4"/>
</g>
<g opacity="0.1">
<path d="M135.298 41.3857V102.041V41.3857Z" fill="#0C1324"/>
<path d="M135.298 41.3857V102.041" stroke="#5E6582" stroke-width="0.4"/>
</g>
<g opacity="0.1">
<path d="M317.772 53.4121H20.5076H317.772Z" fill="#0C1324"/>
<path d="M317.772 53.4121H20.5076" stroke="#5E6582" stroke-width="0.4"/>
</g>
<g opacity="0.1">
<path d="M317.772 65.9614H20.5076H317.772Z" fill="#0C1324"/>
<path d="M317.772 65.9614H20.5076" stroke="#5E6582" stroke-width="0.4"/>
</g>
<g opacity="0.1">
<path d="M317.772 77.4648H20.5076H317.772Z" fill="#0C1324"/>
<path d="M317.772 77.4648H20.5076" stroke="#5E6582" stroke-width="0.4"/>
</g>
<g opacity="0.1">
<path d="M317.772 90.5371H20.5076H317.772Z" fill="#0C1324"/>
<path d="M317.772 90.5371H20.5076" stroke="#5E6582" stroke-width="0.4"/>
</g>
<g opacity="0.1">
<path d="M317.772 102.041H19.4247H317.772Z" fill="#0C1324"/>
<path d="M317.772 102.041H19.4247" stroke="#5E6582" stroke-width="0.4"/>
</g>
<g opacity="0.1">
<path d="M147.752 41.3857V102.041V41.3857Z" fill="#0C1324"/>
<path d="M147.752 41.3857V102.041" stroke="#5E6582" stroke-width="0.4"/>
</g>
<g opacity="0.1">
<path d="M160.747 41.3857V102.041V41.3857Z" fill="#0C1324"/>
<path d="M160.747 41.3857V102.041" stroke="#5E6582" stroke-width="0.4"/>
</g>
<g opacity="0.1">
<path d="M173.201 41.3857V102.041V41.3857Z" fill="#0C1324"/>
<path d="M173.201 41.3857V102.041" stroke="#5E6582" stroke-width="0.4"/>
</g>
<g opacity="0.1">
<path d="M186.737 41.3857V102.041V41.3857Z" fill="#0C1324"/>
<path d="M186.737 41.3857V102.041" stroke="#5E6582" stroke-width="0.4"/>
</g>
<g opacity="0.1">
<path d="M199.191 41.3857V102.041V41.3857Z" fill="#0C1324"/>
<path d="M199.191 41.3857V102.041" stroke="#5E6582" stroke-width="0.4"/>
</g>
<g opacity="0.1">
<path d="M212.186 41.3857V102.041V41.3857Z" fill="#0C1324"/>
<path d="M212.186 41.3857V102.041" stroke="#5E6582" stroke-width="0.4"/>
</g>
<g opacity="0.1">
<path d="M225.182 41.3857V102.041V41.3857Z" fill="#0C1324"/>
<path d="M225.182 41.3857V102.041" stroke="#5E6582" stroke-width="0.4"/>
</g>
<path d="M318 102.048H19.6288" stroke="#5E6582" stroke-width="0.4"/>
<path opacity="0.3" d="M9.15295 89.0127H237.534" stroke="url(#paint0_linear)" stroke-width="0.4" stroke-miterlimit="10"/>
<path opacity="0.3" d="M9.36475 101.604H318" stroke="url(#paint1_linear)" stroke-width="0.4" stroke-miterlimit="10"/>
<path opacity="0.3" d="M9.36475 79.8511H292.551" stroke="url(#paint2_linear)" stroke-width="0.4" stroke-miterlimit="10"/>
<path d="M317.772 41.3857L317.772 100.472" stroke="#5E6582" stroke-width="0.5"/>
<path d="M173.742 58.2461L171.059 67.6917L168.917 66.3572L166.775 64.2877L164.633 70.2433L162.491 67.8034L160.349 68.3443L158.207 69.8023L156.065 65.4694L153.923 77.9743L151.782 78.7738L149.64 76.1812L147.498 73.5591L145.356 68.5089L143.214 74.4292L141.072 66.1985L138.93 69.9023L136.788 89.174L134.646 82.5247L132.504 70.9899L130.362 69.285L128.22 65.6458L126.078 77.1159L123.936 77.3746L121.794 73.6473L119.653 64.7463L117.511 69.1145L115.369 73.8648L113.227 70.1433L111.085 63.3001L108.943 61.9067L106.801 67.192L104.659 64.6993L102.517 64.7757L100.375 66.6982L98.2332 61.213L96.0913 60.5075L93.9493 68.8323L91.8074 62.1536L89.6655 64.1819L87.5235 68.7617L85.3816 72.2657L83.2397 74.6879L81.0977 65.6693L78.9558 63.4529L76.8139 67.727L74.672 77.5627L72.53 71.5484L70.3881 72.783L68.2462 73.2592L66.1042 65.3754L63.9623 62.0596L61.8204 63.3765L59.6784 64.0702L57.5365 60.7191L55.3946 57.8678L53.2526 67.9975L51.1107 78.8797L48.9688 72.5714L46.8268 66.5218L44.6849 68.6618L42.543 60.8367L40.401 54.064L38.2591 50.9951L36.1172 52.3708L33.9752 57.5033L31.8333 59.9901L29.6914 58.5027L19.4247 54.064" stroke="white" stroke-width="0.5" stroke-linecap="round" stroke-linejoin="round"/>
<g opacity="0.1">
<path d="M237.094 41.3857V102.041V41.3857Z" fill="#0C1324"/>
<path d="M237.094 41.3857V102.041" stroke="#5E6582" stroke-width="0.4"/>
</g>
<g opacity="0.1">
<path d="M248.464 41.3857V102.041V41.3857Z" fill="#0C1324"/>
<path d="M248.464 41.3857V102.041" stroke="#5E6582" stroke-width="0.4"/>
</g>
<g opacity="0.1">
<path d="M259.835 41.3857V102.041V41.3857Z" fill="#0C1324"/>
<path d="M259.835 41.3857V102.041" stroke="#5E6582" stroke-width="0.4"/>
</g>
<g opacity="0.1">
<path d="M272.289 41.3857V102.041V41.3857Z" fill="#0C1324"/>
<path d="M272.289 41.3857V102.041" stroke="#5E6582" stroke-width="0.4"/>
</g>
<g opacity="0.1">
<path d="M284.201 41.3857V102.041V41.3857Z" fill="#0C1324"/>
<path d="M284.201 41.3857V102.041" stroke="#5E6582" stroke-width="0.4"/>
</g>
<g opacity="0.1">
<path d="M296.113 41.3857V102.041V41.3857Z" fill="#0C1324"/>
<path d="M296.113 41.3857V102.041" stroke="#5E6582" stroke-width="0.4"/>
</g>
<g opacity="0.1">
<path d="M306.401 41.3857V102.041V41.3857Z" fill="#0C1324"/>
<path d="M306.401 41.3857V102.041" stroke="#5E6582" stroke-width="0.4"/>
</g>
<path d="M8.54102 76.5386C8.54102 76.7847 8.50114 77.0125 8.42139 77.2222C8.34391 77.4318 8.23454 77.613 8.09326 77.7656C7.94971 77.9206 7.77083 78.0425 7.55664 78.1313C7.34473 78.2202 7.10661 78.2646 6.84229 78.2646C6.59847 78.2646 6.35807 78.2373 6.12109 78.1826C5.88639 78.1302 5.68245 78.0607 5.50928 77.9741V77.2529H5.55713C5.60954 77.2917 5.68473 77.3361 5.78271 77.3862C5.8807 77.4341 5.98893 77.4797 6.10742 77.5229C6.24186 77.5708 6.36491 77.6084 6.47656 77.6357C6.58822 77.6608 6.71354 77.6733 6.85254 77.6733C6.98926 77.6733 7.12256 77.6494 7.25244 77.6016C7.38232 77.5514 7.49398 77.4717 7.5874 77.3623C7.67171 77.262 7.73551 77.1447 7.77881 77.0103C7.82438 76.8758 7.84717 76.7174 7.84717 76.5352C7.84717 76.3551 7.8221 76.207 7.77197 76.0908C7.72412 75.9746 7.65348 75.8789 7.56006 75.8037C7.46208 75.7171 7.34131 75.6567 7.19775 75.6226C7.05648 75.5861 6.89811 75.5679 6.72266 75.5679C6.53809 75.5679 6.35238 75.5827 6.16553 75.6123C5.97868 75.6396 5.82943 75.6659 5.71777 75.6909V73.0693H8.51025V73.6675H6.37744V75.021C6.45947 75.0119 6.54036 75.005 6.62012 75.0005C6.69987 74.9959 6.77279 74.9937 6.83887 74.9937C7.09863 74.9937 7.31852 75.0153 7.49854 75.0586C7.67855 75.1019 7.85173 75.1862 8.01807 75.3115C8.18669 75.4391 8.31543 75.5986 8.4043 75.79C8.49544 75.9814 8.54102 76.231 8.54102 76.5386ZM12.4443 75.6123C12.4443 76.526 12.311 77.1971 12.0444 77.6255C11.7801 78.0516 11.3711 78.2646 10.8174 78.2646C10.2568 78.2646 9.84554 78.047 9.5835 77.6118C9.32145 77.1766 9.19043 76.5124 9.19043 75.6191C9.19043 74.7008 9.32259 74.0298 9.58691 73.606C9.85352 73.1799 10.2637 72.9668 10.8174 72.9668C11.3779 72.9668 11.7892 73.1867 12.0513 73.6265C12.3133 74.0662 12.4443 74.7282 12.4443 75.6123ZM11.5693 77.1641C11.6354 76.9954 11.6821 76.7824 11.7095 76.5249C11.7368 76.2674 11.7505 75.9632 11.7505 75.6123C11.7505 75.2637 11.7368 74.9606 11.7095 74.7031C11.6821 74.4456 11.6343 74.2314 11.5659 74.0605C11.4976 73.8874 11.403 73.7563 11.2822 73.6675C11.1637 73.5763 11.0088 73.5308 10.8174 73.5308C10.6283 73.5308 10.4722 73.5763 10.3491 73.6675C10.2284 73.7563 10.1326 73.8896 10.062 74.0674C9.99365 74.2406 9.94694 74.4593 9.92188 74.7236C9.89681 74.988 9.88428 75.2865 9.88428 75.6191C9.88428 75.9746 9.89453 76.272 9.91504 76.5112C9.93783 76.7505 9.98568 76.9647 10.0586 77.1538C10.1247 77.3293 10.2181 77.4648 10.3389 77.5605C10.4619 77.654 10.6214 77.7007 10.8174 77.7007C11.0065 77.7007 11.1615 77.6562 11.2822 77.5674C11.4053 77.4762 11.501 77.3418 11.5693 77.1641ZM16.2656 75.6123C16.2656 76.526 16.1323 77.1971 15.8657 77.6255C15.6014 78.0516 15.1924 78.2646 14.6387 78.2646C14.0781 78.2646 13.6668 78.047 13.4048 77.6118C13.1427 77.1766 13.0117 76.5124 13.0117 75.6191C13.0117 74.7008 13.1439 74.0298 13.4082 73.606C13.6748 73.1799 14.085 72.9668 14.6387 72.9668C15.1992 72.9668 15.6105 73.1867 15.8726 73.6265C16.1346 74.0662 16.2656 74.7282 16.2656 75.6123ZM15.3906 77.1641C15.4567 76.9954 15.5034 76.7824 15.5308 76.5249C15.5581 76.2674 15.5718 75.9632 15.5718 75.6123C15.5718 75.2637 15.5581 74.9606 15.5308 74.7031C15.5034 74.4456 15.4556 74.2314 15.3872 74.0605C15.3188 73.8874 15.2243 73.7563 15.1035 73.6675C14.985 73.5763 14.8301 73.5308 14.6387 73.5308C14.4495 73.5308 14.2935 73.5763 14.1704 73.6675C14.0496 73.7563 13.9539 73.8896 13.8833 74.0674C13.8149 74.2406 13.7682 74.4593 13.7432 74.7236C13.7181 74.988 13.7056 75.2865 13.7056 75.6191C13.7056 75.9746 13.7158 76.272 13.7363 76.5112C13.7591 76.7505 13.807 76.9647 13.8799 77.1538C13.946 77.3293 14.0394 77.4648 14.1602 77.5605C14.2832 77.654 14.4427 77.7007 14.6387 77.7007C14.8278 77.7007 14.9827 77.6562 15.1035 77.5674C15.2266 77.4762 15.3223 77.3418 15.3906 77.1641Z" fill="#606580"/>
<path d="M6.83203 86.6265C6.70898 86.6265 6.58594 86.6413 6.46289 86.6709C6.33984 86.7005 6.21908 86.7393 6.10059 86.7871C5.99121 86.8327 5.89551 86.8805 5.81348 86.9307C5.73372 86.9808 5.66195 87.0275 5.59814 87.0708H5.55713V86.3496C5.70524 86.2699 5.90576 86.1981 6.15869 86.1343C6.4139 86.0682 6.65658 86.0352 6.88672 86.0352C7.11686 86.0352 7.31738 86.0591 7.48828 86.1069C7.66146 86.1525 7.81755 86.2243 7.95654 86.3223C8.10693 86.4316 8.21973 86.5638 8.29492 86.7188C8.3724 86.8737 8.41113 87.0549 8.41113 87.2622C8.41113 87.5425 8.31885 87.7886 8.13428 88.0005C7.94971 88.2124 7.72868 88.3468 7.47119 88.4038V88.4517C7.57829 88.4722 7.69222 88.5075 7.81299 88.5576C7.93604 88.6077 8.04997 88.6818 8.15479 88.7798C8.2596 88.8778 8.34505 89.0042 8.41113 89.1592C8.47721 89.3118 8.51025 89.4987 8.51025 89.7197C8.51025 89.9499 8.47038 90.1618 8.39062 90.3555C8.31315 90.5469 8.20264 90.7166 8.05908 90.8647C7.91097 91.0197 7.7321 91.137 7.52246 91.2168C7.31283 91.2965 7.07471 91.3364 6.80811 91.3364C6.5529 91.3364 6.29997 91.3057 6.04932 91.2441C5.79867 91.1826 5.58789 91.1086 5.41699 91.022V90.3008H5.46484C5.6084 90.4056 5.80094 90.5059 6.04248 90.6016C6.28402 90.6973 6.52555 90.7451 6.76709 90.7451C6.90609 90.7451 7.04508 90.7235 7.18408 90.6802C7.32536 90.6346 7.44271 90.5617 7.53613 90.4614C7.62728 90.3612 7.69678 90.2507 7.74463 90.1299C7.79248 90.0091 7.81641 89.8564 7.81641 89.6719C7.81641 89.4873 7.78906 89.3358 7.73438 89.2173C7.68197 89.0988 7.60791 89.0054 7.51221 88.937C7.4165 88.8687 7.30257 88.8219 7.17041 88.7969C7.04053 88.7695 6.89925 88.7559 6.74658 88.7559H6.45605V88.1885H6.68164C6.98926 88.1885 7.23877 88.1156 7.43018 87.9697C7.62386 87.8239 7.7207 87.612 7.7207 87.334C7.7207 87.2064 7.69564 87.097 7.64551 87.0059C7.59538 86.9124 7.53158 86.8384 7.4541 86.7837C7.36751 86.7244 7.27181 86.6834 7.16699 86.6606C7.06217 86.6379 6.95052 86.6265 6.83203 86.6265ZM12.4443 88.6841C12.4443 89.5978 12.311 90.2689 12.0444 90.6973C11.7801 91.1234 11.3711 91.3364 10.8174 91.3364C10.2568 91.3364 9.84554 91.1188 9.5835 90.6836C9.32145 90.2484 9.19043 89.5841 9.19043 88.6909C9.19043 87.7726 9.32259 87.1016 9.58691 86.6777C9.85352 86.2516 10.2637 86.0386 10.8174 86.0386C11.3779 86.0386 11.7892 86.2585 12.0513 86.6982C12.3133 87.138 12.4443 87.8 12.4443 88.6841ZM11.5693 90.2358C11.6354 90.0672 11.6821 89.8542 11.7095 89.5967C11.7368 89.3392 11.7505 89.035 11.7505 88.6841C11.7505 88.3354 11.7368 88.0324 11.7095 87.7749C11.6821 87.5174 11.6343 87.3032 11.5659 87.1323C11.4976 86.9591 11.403 86.8281 11.2822 86.7393C11.1637 86.6481 11.0088 86.6025 10.8174 86.6025C10.6283 86.6025 10.4722 86.6481 10.3491 86.7393C10.2284 86.8281 10.1326 86.9614 10.062 87.1392C9.99365 87.3123 9.94694 87.5311 9.92188 87.7954C9.89681 88.0597 9.88428 88.3582 9.88428 88.6909C9.88428 89.0464 9.89453 89.3438 9.91504 89.583C9.93783 89.8223 9.98568 90.0365 10.0586 90.2256C10.1247 90.401 10.2181 90.5366 10.3389 90.6323C10.4619 90.7257 10.6214 90.7725 10.8174 90.7725C11.0065 90.7725 11.1615 90.728 11.2822 90.6392C11.4053 90.548 11.501 90.4136 11.5693 90.2358ZM16.2656 88.6841C16.2656 89.5978 16.1323 90.2689 15.8657 90.6973C15.6014 91.1234 15.1924 91.3364 14.6387 91.3364C14.0781 91.3364 13.6668 91.1188 13.4048 90.6836C13.1427 90.2484 13.0117 89.5841 13.0117 88.6909C13.0117 87.7726 13.1439 87.1016 13.4082 86.6777C13.6748 86.2516 14.085 86.0386 14.6387 86.0386C15.1992 86.0386 15.6105 86.2585 15.8726 86.6982C16.1346 87.138 16.2656 87.8 16.2656 88.6841ZM15.3906 90.2358C15.4567 90.0672 15.5034 89.8542 15.5308 89.5967C15.5581 89.3392 15.5718 89.035 15.5718 88.6841C15.5718 88.3354 15.5581 88.0324 15.5308 87.7749C15.5034 87.5174 15.4556 87.3032 15.3872 87.1323C15.3188 86.9591 15.2243 86.8281 15.1035 86.7393C14.985 86.6481 14.8301 86.6025 14.6387 86.6025C14.4495 86.6025 14.2935 86.6481 14.1704 86.7393C14.0496 86.8281 13.9539 86.9614 13.8833 87.1392C13.8149 87.3123 13.7682 87.5311 13.7432 87.7954C13.7181 88.0597 13.7056 88.3582 13.7056 88.6909C13.7056 89.0464 13.7158 89.3438 13.7363 89.583C13.7591 89.8223 13.807 90.0365 13.8799 90.2256C13.946 90.401 14.0394 90.5366 14.1602 90.6323C14.2832 90.7257 14.4427 90.7725 14.6387 90.7725C14.8278 90.7725 14.9827 90.728 15.1035 90.6392C15.2266 90.548 15.3223 90.4136 15.3906 90.2358Z" fill="#606580"/>
<path d="M8.25391 103.257H5.77246V102.738H6.69531V99.3267H5.77246V98.8618C6.12109 98.8618 6.37744 98.8128 6.5415 98.7148C6.70785 98.6146 6.80127 98.4266 6.82178 98.1509H7.35156V102.738H8.25391V103.257ZM12.3589 100.711C12.3589 101.625 12.2256 102.296 11.959 102.724C11.6947 103.15 11.2856 103.363 10.7319 103.363C10.1714 103.363 9.76009 103.146 9.49805 102.71C9.236 102.275 9.10498 101.611 9.10498 100.718C9.10498 99.7995 9.23714 99.1284 9.50146 98.7046C9.76807 98.2785 10.1782 98.0654 10.7319 98.0654C11.2925 98.0654 11.7038 98.2853 11.9658 98.7251C12.2279 99.1649 12.3589 99.8268 12.3589 100.711ZM11.4839 102.263C11.55 102.094 11.5967 101.881 11.624 101.624C11.6514 101.366 11.665 101.062 11.665 100.711C11.665 100.362 11.6514 100.059 11.624 99.8018C11.5967 99.5443 11.5488 99.3301 11.4805 99.1592C11.4121 98.986 11.3175 98.855 11.1968 98.7661C11.0783 98.675 10.9233 98.6294 10.7319 98.6294C10.5428 98.6294 10.3867 98.675 10.2637 98.7661C10.1429 98.855 10.0472 98.9883 9.97656 99.166C9.9082 99.3392 9.86149 99.5579 9.83643 99.8223C9.81136 100.087 9.79883 100.385 9.79883 100.718C9.79883 101.073 9.80908 101.371 9.82959 101.61C9.85238 101.849 9.90023 102.063 9.97314 102.252C10.0392 102.428 10.1326 102.563 10.2534 102.659C10.3765 102.753 10.536 102.799 10.7319 102.799C10.9211 102.799 11.076 102.755 11.1968 102.666C11.3198 102.575 11.4155 102.44 11.4839 102.263ZM16.1802 100.711C16.1802 101.625 16.0469 102.296 15.7803 102.724C15.516 103.15 15.1069 103.363 14.5532 103.363C13.9927 103.363 13.5814 103.146 13.3193 102.71C13.0573 102.275 12.9263 101.611 12.9263 100.718C12.9263 99.7995 13.0584 99.1284 13.3228 98.7046C13.5894 98.2785 13.9995 98.0654 14.5532 98.0654C15.1138 98.0654 15.5251 98.2853 15.7871 98.7251C16.0492 99.1649 16.1802 99.8268 16.1802 100.711ZM15.3052 102.263C15.3713 102.094 15.418 101.881 15.4453 101.624C15.4727 101.366 15.4863 101.062 15.4863 100.711C15.4863 100.362 15.4727 100.059 15.4453 99.8018C15.418 99.5443 15.3701 99.3301 15.3018 99.1592C15.2334 98.986 15.1388 98.855 15.0181 98.7661C14.8996 98.675 14.7446 98.6294 14.5532 98.6294C14.3641 98.6294 14.208 98.675 14.085 98.7661C13.9642 98.855 13.8685 98.9883 13.7979 99.166C13.7295 99.3392 13.6828 99.5579 13.6577 99.8223C13.6326 100.087 13.6201 100.385 13.6201 100.718C13.6201 101.073 13.6304 101.371 13.6509 101.61C13.6737 101.849 13.7215 102.063 13.7944 102.252C13.8605 102.428 13.9539 102.563 14.0747 102.659C14.1978 102.753 14.3573 102.799 14.5532 102.799C14.7424 102.799 14.8973 102.755 15.0181 102.666C15.1411 102.575 15.2368 102.44 15.3052 102.263Z" fill="#606580"/>
<path d="M8.65381 62.3276L6.45264 66.6548H5.72461L8.05566 62.1636H5.42383V61.5654H8.65381V62.3276ZM12.4443 64.1084C12.4443 65.0221 12.311 65.6932 12.0444 66.1216C11.7801 66.5477 11.3711 66.7607 10.8174 66.7607C10.2568 66.7607 9.84554 66.5431 9.5835 66.1079C9.32145 65.6727 9.19043 65.0085 9.19043 64.1152C9.19043 63.1969 9.32259 62.5259 9.58691 62.1021C9.85352 61.6759 10.2637 61.4629 10.8174 61.4629C11.3779 61.4629 11.7892 61.6828 12.0513 62.1226C12.3133 62.5623 12.4443 63.2243 12.4443 64.1084ZM11.5693 65.6602C11.6354 65.4915 11.6821 65.2785 11.7095 65.021C11.7368 64.7635 11.7505 64.4593 11.7505 64.1084C11.7505 63.7598 11.7368 63.4567 11.7095 63.1992C11.6821 62.9417 11.6343 62.7275 11.5659 62.5566C11.4976 62.3835 11.403 62.2524 11.2822 62.1636C11.1637 62.0724 11.0088 62.0269 10.8174 62.0269C10.6283 62.0269 10.4722 62.0724 10.3491 62.1636C10.2284 62.2524 10.1326 62.3857 10.062 62.5635C9.99365 62.7367 9.94694 62.9554 9.92188 63.2197C9.89681 63.484 9.88428 63.7826 9.88428 64.1152C9.88428 64.4707 9.89453 64.7681 9.91504 65.0073C9.93783 65.2466 9.98568 65.4608 10.0586 65.6499C10.1247 65.8254 10.2181 65.9609 10.3389 66.0566C10.4619 66.1501 10.6214 66.1968 10.8174 66.1968C11.0065 66.1968 11.1615 66.1523 11.2822 66.0635C11.4053 65.9723 11.501 65.8379 11.5693 65.6602ZM16.2656 64.1084C16.2656 65.0221 16.1323 65.6932 15.8657 66.1216C15.6014 66.5477 15.1924 66.7607 14.6387 66.7607C14.0781 66.7607 13.6668 66.5431 13.4048 66.1079C13.1427 65.6727 13.0117 65.0085 13.0117 64.1152C13.0117 63.1969 13.1439 62.5259 13.4082 62.1021C13.6748 61.6759 14.085 61.4629 14.6387 61.4629C15.1992 61.4629 15.6105 61.6828 15.8726 62.1226C16.1346 62.5623 16.2656 63.2243 16.2656 64.1084ZM15.3906 65.6602C15.4567 65.4915 15.5034 65.2785 15.5308 65.021C15.5581 64.7635 15.5718 64.4593 15.5718 64.1084C15.5718 63.7598 15.5581 63.4567 15.5308 63.1992C15.5034 62.9417 15.4556 62.7275 15.3872 62.5566C15.3188 62.3835 15.2243 62.2524 15.1035 62.1636C14.985 62.0724 14.8301 62.0269 14.6387 62.0269C14.4495 62.0269 14.2935 62.0724 14.1704 62.1636C14.0496 62.2524 13.9539 62.3857 13.8833 62.5635C13.8149 62.7367 13.7682 62.9554 13.7432 63.2197C13.7181 63.484 13.7056 63.7826 13.7056 64.1152C13.7056 64.4707 13.7158 64.7681 13.7363 65.0073C13.7591 65.2466 13.807 65.4608 13.8799 65.6499C13.946 65.8254 14.0394 65.9609 14.1602 66.0566C14.2832 66.1501 14.4427 66.1968 14.6387 66.1968C14.8278 66.1968 14.9827 66.1523 15.1035 66.0635C15.2266 65.9723 15.3223 65.8379 15.3906 65.6602Z" fill="#606580"/>
<path d="M7.9292 52.1533C7.9292 51.807 7.8973 51.5256 7.8335 51.3091C7.76969 51.0903 7.68197 50.9217 7.57031 50.8032C7.47005 50.6938 7.36865 50.6187 7.26611 50.5776C7.16357 50.5366 7.05078 50.5161 6.92773 50.5161C6.64746 50.5161 6.42415 50.6164 6.25781 50.8169C6.09147 51.0174 6.0083 51.3079 6.0083 51.6885C6.0083 51.9027 6.03564 52.0793 6.09033 52.2183C6.14502 52.3573 6.23389 52.4769 6.35693 52.5771C6.44352 52.6478 6.5415 52.6956 6.65088 52.7207C6.76025 52.7435 6.8776 52.7549 7.00293 52.7549C7.14876 52.7549 7.30599 52.7298 7.47461 52.6797C7.64323 52.6273 7.7902 52.5589 7.91553 52.4746C7.91781 52.4404 7.92008 52.396 7.92236 52.3413C7.92692 52.2843 7.9292 52.2217 7.9292 52.1533ZM5.31445 51.7158C5.31445 51.4538 5.35661 51.2145 5.44092 50.998C5.52751 50.7816 5.64486 50.5947 5.79297 50.4375C5.93424 50.2871 6.10628 50.1698 6.30908 50.0854C6.51416 50.0011 6.72152 49.959 6.93115 49.959C7.16585 49.959 7.37777 49.9989 7.56689 50.0786C7.7583 50.1561 7.9235 50.2689 8.0625 50.417C8.23796 50.6038 8.37354 50.8488 8.46924 51.1519C8.56722 51.4549 8.61621 51.8377 8.61621 52.3003C8.61621 52.7218 8.56836 53.1217 8.47266 53.5C8.37923 53.876 8.24023 54.1882 8.05566 54.4365C7.8597 54.7008 7.62386 54.9025 7.34814 55.0415C7.07471 55.1805 6.73633 55.25 6.33301 55.25C6.24186 55.25 6.14502 55.2443 6.04248 55.2329C5.93994 55.2238 5.84424 55.2056 5.75537 55.1782V54.5254H5.78955C5.84652 54.5573 5.93538 54.5881 6.05615 54.6177C6.17692 54.6473 6.29997 54.6621 6.42529 54.6621C6.87191 54.6621 7.22282 54.5151 7.47803 54.2212C7.73324 53.9272 7.87793 53.5068 7.91211 52.96C7.72982 53.083 7.5555 53.173 7.38916 53.23C7.2251 53.2869 7.04622 53.3154 6.85254 53.3154C6.66341 53.3154 6.49137 53.2949 6.33643 53.2539C6.18148 53.2129 6.02539 53.1331 5.86816 53.0146C5.68587 52.8757 5.54801 52.7002 5.45459 52.4883C5.36117 52.2741 5.31445 52.0166 5.31445 51.7158ZM12.4443 52.6045C12.4443 53.5182 12.311 54.1893 12.0444 54.6177C11.7801 55.0438 11.3711 55.2568 10.8174 55.2568C10.2568 55.2568 9.84554 55.0392 9.5835 54.604C9.32145 54.1688 9.19043 53.5046 9.19043 52.6113C9.19043 51.693 9.32259 51.022 9.58691 50.5981C9.85352 50.172 10.2637 49.959 10.8174 49.959C11.3779 49.959 11.7892 50.1789 12.0513 50.6187C12.3133 51.0584 12.4443 51.7204 12.4443 52.6045ZM11.5693 54.1562C11.6354 53.9876 11.6821 53.7746 11.7095 53.5171C11.7368 53.2596 11.7505 52.9554 11.7505 52.6045C11.7505 52.2559 11.7368 51.9528 11.7095 51.6953C11.6821 51.4378 11.6343 51.2236 11.5659 51.0527C11.4976 50.8796 11.403 50.7485 11.2822 50.6597C11.1637 50.5685 11.0088 50.5229 10.8174 50.5229C10.6283 50.5229 10.4722 50.5685 10.3491 50.6597C10.2284 50.7485 10.1326 50.8818 10.062 51.0596C9.99365 51.2327 9.94694 51.4515 9.92188 51.7158C9.89681 51.9801 9.88428 52.2786 9.88428 52.6113C9.88428 52.9668 9.89453 53.2642 9.91504 53.5034C9.93783 53.7427 9.98568 53.9569 10.0586 54.146C10.1247 54.3215 10.2181 54.457 10.3389 54.5527C10.4619 54.6462 10.6214 54.6929 10.8174 54.6929C11.0065 54.6929 11.1615 54.6484 11.2822 54.5596C11.4053 54.4684 11.501 54.334 11.5693 54.1562ZM16.2656 52.6045C16.2656 53.5182 16.1323 54.1893 15.8657 54.6177C15.6014 55.0438 15.1924 55.2568 14.6387 55.2568C14.0781 55.2568 13.6668 55.0392 13.4048 54.604C13.1427 54.1688 13.0117 53.5046 13.0117 52.6113C13.0117 51.693 13.1439 51.022 13.4082 50.5981C13.6748 50.172 14.085 49.959 14.6387 49.959C15.1992 49.959 15.6105 50.1789 15.8726 50.6187C16.1346 51.0584 16.2656 51.7204 16.2656 52.6045ZM15.3906 54.1562C15.4567 53.9876 15.5034 53.7746 15.5308 53.5171C15.5581 53.2596 15.5718 52.9554 15.5718 52.6045C15.5718 52.2559 15.5581 51.9528 15.5308 51.6953C15.5034 51.4378 15.4556 51.2236 15.3872 51.0527C15.3188 50.8796 15.2243 50.7485 15.1035 50.6597C14.985 50.5685 14.8301 50.5229 14.6387 50.5229C14.4495 50.5229 14.2935 50.5685 14.1704 50.6597C14.0496 50.7485 13.9539 50.8818 13.8833 51.0596C13.8149 51.2327 13.7682 51.4515 13.7432 51.7158C13.7181 51.9801 13.7056 52.2786 13.7056 52.6113C13.7056 52.9668 13.7158 53.2642 13.7363 53.5034C13.7591 53.7427 13.807 53.9569 13.8799 54.146C13.946 54.3215 14.0394 54.457 14.1602 54.5527C14.2832 54.6462 14.4427 54.6929 14.6387 54.6929C14.8278 54.6929 14.9827 54.6484 15.1035 54.5596C15.2266 54.4684 15.3223 54.334 15.3906 54.1562Z" fill="#606580"/>
<path d="M36.4762 78.2007L20 78.2009V102H318V78.3822L212.411 78.3023L203.805 75H195.421L186.689 78.2007H170.33L161.718 82.1881H153.467L145.217 87.2812H128.378L119.955 83.8642H111.695L102.807 81.0324H94.9645L86.1422 83.8642H69.8046L60.6556 81.0324H44.318L36.4762 78.2007Z" fill="#8E9AB0" fill-opacity="0.05"/>
<path d="M20 77.1276L36.5096 77.1274L44.3672 79.8943H60.7379L69.9054 82.6612H86.2761L95.1163 79.8943H102.974L111.88 82.6612H120.158L128.598 86H145.47L153.738 81.0235H162.005L170.634 77.1274H187.027L195.776 74H204.177L212.801 77.2267H318" stroke="#8E9AB0" stroke-width="0.75" stroke-linecap="round" stroke-dasharray="0.5 1.5"/>
<path d="M36.4765 50.7186L20.0003 50.7188L20.0001 43.0001C20 41.8955 20.8955 41 22.0001 41H316C317.105 41 318 41.8954 318 43V50.9041L212.411 50.8224L203.805 47.4471H195.421L186.689 50.7186H170.33L161.719 54.7943H153.468L145.217 60H128.378L119.956 56.5074H111.695L102.807 53.613H94.9647L86.1424 56.5074H69.8048L60.6558 53.613H44.3182L36.4765 50.7186Z" fill="#8E9AB0" fill-opacity="0.05"/>
<path opacity="0.5" d="M175 41H316C317.105 41 318 41.8954 318 43V99C318 100.105 317.105 101 316 101H175V71V41Z" fill="#1C1F2B"/>
<path d="M174 102L174 41" stroke="#5C6585"/>
<path opacity="0.05" d="M177.888 58.0921C177.888 59.8329 176.433 61.2677 174.609 61.2677C172.784 61.2677 171.329 59.8329 171.329 58.0921C171.329 56.3513 172.784 54.9165 174.609 54.9165C176.433 54.9165 177.888 56.3513 177.888 58.0921Z" fill="white" stroke="white"/>
<path opacity="0.2" d="M176.492 58.0919C176.492 59.0813 175.662 59.9077 174.609 59.9077C173.555 59.9077 172.726 59.0813 172.726 58.0919C172.726 57.1025 173.555 56.2761 174.609 56.2761C175.662 56.2761 176.492 57.1025 176.492 58.0919Z" fill="white" stroke="white"/>
<path opacity="0.5" d="M174.609 59.3499C175.323 59.3499 175.903 58.7868 175.903 58.0923C175.903 57.3978 175.323 56.8347 174.609 56.8347C173.894 56.8347 173.315 57.3978 173.315 58.0923C173.315 58.7868 173.894 59.3499 174.609 59.3499Z" fill="white" stroke="white" stroke-miterlimit="10"/>
<path d="M174.61 58.0921C174.61 58.0925 174.61 58.0927 174.61 58.0927L174.609 58.093C174.609 58.093 174.609 58.093 174.609 58.093C174.608 58.093 174.608 58.0929 174.608 58.0931C174.608 58.0932 174.608 58.0932 174.608 58.0932C174.608 58.0932 174.608 58.093 174.608 58.0927C174.608 58.0924 174.607 58.0921 174.607 58.0921C174.607 58.0921 174.607 58.0921 174.607 58.0922C174.608 58.0925 174.608 58.0927 174.608 58.0927C174.608 58.0927 174.608 58.0926 174.608 58.0921C174.608 58.0916 174.608 58.0914 174.608 58.0914C174.608 58.0913 174.608 58.0916 174.607 58.0919C174.607 58.0919 174.607 58.092 174.607 58.092C174.607 58.092 174.607 58.0918 174.608 58.0914C174.608 58.091 174.609 58.0909 174.608 58.091C174.608 58.0912 174.608 58.0911 174.609 58.0911C174.61 58.0911 174.61 58.0912 174.609 58.091C174.609 58.0909 174.609 58.0909 174.609 58.0909C174.609 58.0909 174.609 58.0911 174.61 58.0914C174.61 58.0915 174.61 58.0916 174.61 58.0917C174.61 58.0918 174.61 58.0919 174.61 58.0921Z" fill="white" stroke="white"/>
<rect width="31.1955" height="11.2466" rx="3" transform="matrix(-1 0 0 1 317.795 22.0493)" fill="#303549" fill-opacity="0.5"/>
<path d="M303.391 31H299.352V30.0815C299.642 29.8062 299.916 29.5425 300.174 29.2905C300.432 29.0386 300.683 28.7764 300.93 28.5039C301.428 27.9561 301.767 27.5181 301.949 27.1899C302.131 26.8589 302.222 26.5176 302.222 26.166C302.222 25.9844 302.192 25.8247 302.134 25.687C302.078 25.5493 302 25.4351 301.901 25.3442C301.798 25.2563 301.68 25.1904 301.545 25.1465C301.41 25.1025 301.262 25.0806 301.101 25.0806C300.946 25.0806 300.787 25.1011 300.626 25.1421C300.468 25.1802 300.316 25.2285 300.169 25.2871C300.046 25.3369 299.928 25.397 299.813 25.4673C299.699 25.5376 299.607 25.5977 299.536 25.6475H299.488V24.7158C299.67 24.625 299.922 24.5371 300.244 24.4521C300.569 24.3643 300.877 24.3203 301.167 24.3203C301.776 24.3203 302.254 24.4829 302.599 24.8081C302.945 25.1304 303.118 25.5684 303.118 26.1221C303.118 26.377 303.087 26.6128 303.026 26.8296C302.967 27.0464 302.885 27.2471 302.78 27.4316C302.671 27.6221 302.541 27.811 302.389 27.9985C302.236 28.186 302.075 28.3706 301.905 28.5522C301.63 28.8511 301.322 29.1616 300.982 29.4839C300.645 29.8062 300.376 30.061 300.174 30.2485H303.391V31ZM307.35 25.9814C307.35 25.6885 307.252 25.4438 307.056 25.2476C306.859 25.0513 306.587 24.9531 306.238 24.9531C305.919 24.9531 305.657 25.041 305.452 25.2168C305.249 25.3926 305.148 25.6299 305.148 25.9287C305.148 26.1455 305.2 26.3286 305.302 26.478C305.408 26.6274 305.564 26.7622 305.772 26.8823C305.863 26.9321 306.001 27.001 306.185 27.0889C306.373 27.1768 306.543 27.2456 306.695 27.2954C306.95 27.0991 307.123 26.8984 307.214 26.6934C307.305 26.4854 307.35 26.248 307.35 25.9814ZM307.473 29.2598C307.473 28.9902 307.42 28.7764 307.315 28.6182C307.209 28.46 307.006 28.2988 306.704 28.1348C306.604 28.0791 306.471 28.019 306.304 27.9546C306.14 27.8901 305.954 27.814 305.746 27.7261C305.503 27.8872 305.317 28.0864 305.188 28.3237C305.059 28.5581 304.995 28.8262 304.995 29.1279C304.995 29.5234 305.113 29.8501 305.35 30.1079C305.591 30.3657 305.891 30.4946 306.251 30.4946C306.62 30.4946 306.916 30.3848 307.139 30.165C307.362 29.9424 307.473 29.6406 307.473 29.2598ZM306.243 31.1494C305.917 31.1494 305.621 31.1011 305.355 31.0044C305.088 30.9077 304.861 30.7686 304.674 30.5869C304.489 30.4111 304.349 30.2031 304.252 29.9629C304.158 29.7197 304.111 29.4634 304.111 29.1938C304.111 28.8394 304.205 28.5142 304.392 28.2183C304.583 27.9194 304.858 27.6821 305.219 27.5063V27.48C304.896 27.2925 304.658 27.0874 304.502 26.8647C304.347 26.6421 304.269 26.3638 304.269 26.0298C304.269 25.5376 304.455 25.1274 304.828 24.7993C305.2 24.4712 305.671 24.3071 306.243 24.3071C306.837 24.3071 307.313 24.4639 307.671 24.7773C308.031 25.0879 308.211 25.4863 308.211 25.9727C308.211 26.2656 308.125 26.5557 307.952 26.8428C307.782 27.1299 307.536 27.354 307.214 27.5151V27.5415C307.595 27.7202 307.883 27.937 308.079 28.1919C308.276 28.4468 308.374 28.7749 308.374 29.1763C308.374 29.7358 308.17 30.2046 307.763 30.5825C307.359 30.9604 306.852 31.1494 306.243 31.1494ZM313.247 27.7261C313.247 28.9009 313.076 29.7637 312.733 30.3145C312.393 30.8623 311.868 31.1362 311.156 31.1362C310.435 31.1362 309.906 30.8564 309.569 30.2969C309.232 29.7373 309.064 28.8833 309.064 27.7349C309.064 26.5542 309.234 25.6914 309.574 25.1465C309.916 24.5986 310.444 24.3247 311.156 24.3247C311.876 24.3247 312.405 24.6074 312.742 25.1729C313.079 25.7383 313.247 26.5894 313.247 27.7261ZM312.122 29.7212C312.207 29.5044 312.267 29.2305 312.303 28.8994C312.338 28.5684 312.355 28.1772 312.355 27.7261C312.355 27.2778 312.338 26.8882 312.303 26.5571C312.267 26.2261 312.206 25.9507 312.118 25.731C312.03 25.5083 311.909 25.3398 311.753 25.2256C311.601 25.1084 311.402 25.0498 311.156 25.0498C310.912 25.0498 310.712 25.1084 310.554 25.2256C310.398 25.3398 310.275 25.5112 310.184 25.7397C310.097 25.9624 310.036 26.2437 310.004 26.5835C309.972 26.9233 309.956 27.3071 309.956 27.7349C309.956 28.1919 309.969 28.5742 309.995 28.8818C310.025 29.1895 310.086 29.4648 310.18 29.708C310.265 29.9336 310.385 30.1079 310.54 30.231C310.699 30.3511 310.904 30.4111 311.156 30.4111C311.399 30.4111 311.598 30.354 311.753 30.2397C311.911 30.1226 312.035 29.9497 312.122 29.7212Z" fill="white"/>
<ellipse cx="292.736" cy="27.6725" rx="1.53419" ry="1.53363" fill="white"/>
<path d="M265.447 27.6602C265.447 28.0674 265.385 28.4277 265.262 28.7412C265.139 29.0518 264.968 29.314 264.748 29.5278C264.511 29.7622 264.219 29.9438 263.874 30.0728C263.528 30.1987 263.17 30.2661 262.801 30.2749V31.0703H261.936V30.2749C261.569 30.2632 261.213 30.1973 260.868 30.0771C260.522 29.957 260.228 29.7769 259.984 29.5366C259.765 29.3228 259.593 29.0576 259.47 28.7412C259.35 28.4248 259.29 28.0645 259.29 27.6602C259.29 27.2793 259.349 26.938 259.466 26.6362C259.583 26.3315 259.747 26.0693 259.958 25.8496C260.184 25.6152 260.466 25.4307 260.806 25.2959C261.146 25.1611 261.522 25.0879 261.936 25.0762V24.3511H262.801V25.0762C263.214 25.085 263.592 25.1582 263.935 25.2959C264.278 25.4307 264.562 25.6138 264.788 25.8452C264.999 26.062 265.161 26.3213 265.275 26.623C265.39 26.9248 265.447 27.2705 265.447 27.6602ZM264.542 27.625C264.542 27.335 264.5 27.0713 264.418 26.834C264.336 26.5938 264.215 26.3901 264.054 26.2231C263.901 26.0649 263.724 25.9478 263.522 25.8716C263.32 25.7954 263.08 25.7544 262.801 25.7485V29.6157C263.065 29.6099 263.299 29.5674 263.504 29.4883C263.712 29.4062 263.884 29.2979 264.019 29.1631C264.197 28.9873 264.329 28.7734 264.414 28.5215C264.499 28.2695 264.542 27.9707 264.542 27.625ZM261.936 29.6157V25.7485C261.657 25.7515 261.417 25.7925 261.215 25.8716C261.013 25.9507 260.835 26.0679 260.683 26.2231C260.522 26.3872 260.4 26.5908 260.318 26.834C260.236 27.0771 260.195 27.3408 260.195 27.625C260.195 27.9707 260.238 28.271 260.323 28.5259C260.408 28.7778 260.54 28.9902 260.718 29.1631C260.853 29.292 261.023 29.3989 261.228 29.4839C261.436 29.5688 261.672 29.6128 261.936 29.6157ZM269.081 29.7915V28.4292C268.885 28.4468 268.636 28.4717 268.334 28.5039C268.035 28.5332 267.793 28.5757 267.609 28.6313C267.389 28.6987 267.208 28.8027 267.064 28.9434C266.92 29.0811 266.849 29.2744 266.849 29.5234C266.849 29.8047 266.928 30.0171 267.086 30.1606C267.244 30.3042 267.476 30.376 267.78 30.376C268.041 30.376 268.277 30.3203 268.488 30.209C268.699 30.0947 268.896 29.9556 269.081 29.7915ZM269.081 30.4771C269.014 30.5269 268.923 30.5972 268.809 30.688C268.697 30.7759 268.589 30.8462 268.483 30.8989C268.337 30.9751 268.195 31.0337 268.057 31.0747C267.922 31.1157 267.732 31.1362 267.486 31.1362C267.284 31.1362 267.092 31.0981 266.91 31.022C266.729 30.9458 266.569 30.8389 266.431 30.7012C266.299 30.5664 266.194 30.4009 266.115 30.2046C266.036 30.0054 265.996 29.7959 265.996 29.5762C265.996 29.2363 266.068 28.9478 266.211 28.7104C266.355 28.4702 266.582 28.2798 266.893 28.1392C267.168 28.0132 267.493 27.9268 267.868 27.8799C268.243 27.8301 268.647 27.7935 269.081 27.77V27.6118C269.081 27.4185 269.052 27.2632 268.993 27.146C268.935 27.0259 268.853 26.9336 268.747 26.8691C268.642 26.8018 268.513 26.7578 268.36 26.7373C268.208 26.7139 268.051 26.7021 267.89 26.7021C267.7 26.7021 267.476 26.7314 267.218 26.79C266.96 26.8457 266.702 26.9277 266.444 27.0361H266.396V26.1968C266.548 26.1528 266.767 26.1045 267.051 26.0518C267.335 25.999 267.616 25.9727 267.895 25.9727C268.231 25.9727 268.516 25.999 268.747 26.0518C268.979 26.1045 269.187 26.1997 269.371 26.3374C269.55 26.4722 269.683 26.6465 269.771 26.8604C269.859 27.0742 269.903 27.335 269.903 27.6426V31H269.081V30.4771ZM275.018 31H273.99L272.307 28.7368H271.894V31H271.067V26.0913H271.894V28.2271C272.107 28.2241 272.289 28.1802 272.438 28.0952C272.591 28.0073 272.72 27.8389 272.825 27.5898C272.857 27.5166 272.893 27.4316 272.931 27.335C272.972 27.2383 273.004 27.1533 273.027 27.0801C273.156 26.7197 273.335 26.4648 273.563 26.3154C273.792 26.166 274.089 26.0913 274.456 26.0913H274.68V26.8032H274.491C274.259 26.8032 274.085 26.8516 273.968 26.9482C273.854 27.042 273.757 27.2148 273.678 27.4668C273.596 27.7217 273.499 27.9209 273.388 28.0645C273.276 28.2051 273.153 28.3135 273.019 28.3896L275.018 31ZM279.136 26.8164H277.466V31H276.64V26.8164H274.97V26.0913H279.136V26.8164Z" fill="white"/>
<path d="M61.2212 16.1187C60.7935 16.1187 60.3994 16.0469 60.0391 15.9033C59.6816 15.7598 59.3726 15.5459 59.1118 15.2617C58.8511 14.9775 58.6489 14.623 58.5054 14.1982C58.3618 13.7734 58.29 13.2856 58.29 12.7349C58.29 12.187 58.3589 11.7095 58.4966 11.3022C58.6372 10.895 58.8408 10.5405 59.1074 10.2388C59.3682 9.9458 59.6772 9.72314 60.0347 9.5708C60.3921 9.41553 60.792 9.33789 61.2344 9.33789C61.4541 9.33789 61.6592 9.354 61.8496 9.38623C62.043 9.41846 62.2217 9.45947 62.3857 9.50928C62.5264 9.55322 62.6699 9.60889 62.8164 9.67627C62.9658 9.74072 63.1123 9.8125 63.2559 9.8916V10.9419H63.1855C63.1094 10.8716 63.0112 10.7866 62.8911 10.687C62.771 10.5874 62.6245 10.4893 62.4517 10.3926C62.2847 10.3018 62.103 10.2271 61.9067 10.1685C61.7104 10.1099 61.4834 10.0806 61.2256 10.0806C60.9473 10.0806 60.6836 10.1377 60.4346 10.252C60.1855 10.3662 59.9673 10.5347 59.7798 10.7573C59.5952 10.98 59.4517 11.2598 59.3491 11.5967C59.2466 11.9336 59.1953 12.313 59.1953 12.7349C59.1953 13.1831 59.2495 13.5698 59.3579 13.895C59.4663 14.2173 59.6143 14.4897 59.8018 14.7124C59.9834 14.9292 60.1973 15.0933 60.4434 15.2046C60.6895 15.313 60.9502 15.3672 61.2256 15.3672C61.4775 15.3672 61.7104 15.3364 61.9243 15.2749C62.1382 15.2134 62.3286 15.1357 62.4956 15.042C62.6567 14.9512 62.7959 14.8589 62.9131 14.7651C63.0303 14.6685 63.1226 14.5864 63.1899 14.519H63.2559V15.5562C63.1123 15.6235 62.9761 15.688 62.8472 15.7495C62.7212 15.811 62.5674 15.8711 62.3857 15.9297C62.1953 15.9912 62.0181 16.0381 61.854 16.0703C61.6929 16.1025 61.4819 16.1187 61.2212 16.1187ZM67.9536 16H66.9253L65.2422 13.7368H64.8291V16H64.0029V11.0913H64.8291V13.2271C65.043 13.2241 65.2246 13.1802 65.374 13.0952C65.5264 13.0073 65.6553 12.8389 65.7607 12.5898C65.793 12.5166 65.8281 12.4316 65.8662 12.335C65.9072 12.2383 65.9395 12.1533 65.9629 12.0801C66.0918 11.7197 66.2705 11.4648 66.499 11.3154C66.7275 11.166 67.0249 11.0913 67.3911 11.0913H67.6152V11.8032H67.4263C67.1948 11.8032 67.0205 11.8516 66.9033 11.9482C66.7891 12.042 66.6924 12.2148 66.6133 12.4668C66.5312 12.7217 66.4346 12.9209 66.3232 13.0645C66.2119 13.2051 66.0889 13.3135 65.9541 13.3896L67.9536 16ZM72.5239 13.5479C72.5239 14.374 72.3247 15.0127 71.9263 15.4639C71.5278 15.9121 70.9976 16.1362 70.3354 16.1362C69.6528 16.1362 69.1152 15.9048 68.7227 15.4419C68.333 14.9761 68.1382 14.3447 68.1382 13.5479C68.1382 12.7275 68.3389 12.0903 68.7402 11.6362C69.1445 11.1821 69.6763 10.9551 70.3354 10.9551C70.9976 10.9551 71.5278 11.1821 71.9263 11.6362C72.3247 12.0874 72.5239 12.7246 72.5239 13.5479ZM71.6714 13.5479C71.6714 12.9121 71.5557 12.4404 71.3242 12.1328C71.0928 11.8223 70.7632 11.667 70.3354 11.667C69.9048 11.667 69.5723 11.8223 69.3379 12.1328C69.1064 12.4404 68.9907 12.9121 68.9907 13.5479C68.9907 14.1631 69.1064 14.6304 69.3379 14.9497C69.5723 15.2661 69.9048 15.4243 70.3354 15.4243C70.7603 15.4243 71.0884 15.269 71.3198 14.9585C71.5542 14.645 71.6714 14.1748 71.6714 13.5479ZM77.4897 13.416C77.4897 14.2334 77.2935 14.8853 76.9009 15.3716C76.5112 15.855 76.0176 16.0967 75.4199 16.0967C75.1768 16.0967 74.9614 16.0688 74.7739 16.0132C74.5864 15.9575 74.3945 15.8711 74.1982 15.7539V17.8105H73.3721V11.0913H74.1982V11.6055C74.4033 11.4209 74.6304 11.2671 74.8794 11.144C75.1313 11.0181 75.4053 10.9551 75.7012 10.9551C76.2637 10.9551 76.7017 11.1777 77.0151 11.623C77.3315 12.0684 77.4897 12.666 77.4897 13.416ZM76.6372 13.5083C76.6372 12.9487 76.5479 12.5151 76.3691 12.2075C76.1904 11.897 75.9004 11.7417 75.499 11.7417C75.2646 11.7417 75.0376 11.7944 74.8179 11.8999C74.6011 12.0024 74.3945 12.1357 74.1982 12.2998V15.0815C74.415 15.187 74.5996 15.2588 74.752 15.2969C74.9072 15.335 75.0845 15.354 75.2837 15.354C75.7114 15.354 76.0439 15.1973 76.2812 14.8838C76.5186 14.5703 76.6372 14.1118 76.6372 13.5083ZM82.3853 13.5479C82.3853 14.374 82.186 15.0127 81.7876 15.4639C81.3892 15.9121 80.8589 16.1362 80.1968 16.1362C79.5142 16.1362 78.9766 15.9048 78.584 15.4419C78.1943 14.9761 77.9995 14.3447 77.9995 13.5479C77.9995 12.7275 78.2002 12.0903 78.6016 11.6362C79.0059 11.1821 79.5376 10.9551 80.1968 10.9551C80.8589 10.9551 81.3892 11.1821 81.7876 11.6362C82.186 12.0874 82.3853 12.7246 82.3853 13.5479ZM81.5327 13.5479C81.5327 12.9121 81.417 12.4404 81.1855 12.1328C80.9541 11.8223 80.6245 11.667 80.1968 11.667C79.7661 11.667 79.4336 11.8223 79.1992 12.1328C78.9678 12.4404 78.8521 12.9121 78.8521 13.5479C78.8521 14.1631 78.9678 14.6304 79.1992 14.9497C79.4336 15.2661 79.7661 15.4243 80.1968 15.4243C80.6216 15.4243 80.9497 15.269 81.1812 14.9585C81.4155 14.645 81.5327 14.1748 81.5327 13.5479ZM85.1846 16.1099C84.8477 16.1099 84.5386 16.0586 84.2573 15.9561C83.9761 15.8506 83.7344 15.6924 83.5322 15.4814C83.3301 15.2705 83.1733 15.0054 83.062 14.686C82.9507 14.3638 82.895 13.9858 82.895 13.5522C82.895 13.1216 82.9521 12.7495 83.0664 12.436C83.1836 12.1226 83.3389 11.8589 83.5322 11.645C83.7256 11.4312 83.9658 11.2671 84.2529 11.1528C84.543 11.0356 84.8535 10.9771 85.1846 10.9771C85.4541 10.9771 85.7134 11.0151 85.9624 11.0913C86.2144 11.1675 86.4385 11.2554 86.6348 11.355V12.2822H86.5864C86.5278 12.2324 86.4517 12.1753 86.3579 12.1108C86.2671 12.0464 86.1558 11.9805 86.0239 11.9131C85.9097 11.8545 85.7749 11.8032 85.6196 11.7593C85.4644 11.7153 85.3149 11.6934 85.1714 11.6934C84.7437 11.6934 84.3994 11.856 84.1387 12.1812C83.8809 12.5034 83.752 12.9604 83.752 13.5522C83.752 14.1323 83.8765 14.585 84.1255 14.9102C84.3774 15.2324 84.7261 15.3936 85.1714 15.3936C85.4409 15.3936 85.6973 15.3379 85.9404 15.2266C86.1836 15.1152 86.3989 14.9717 86.5864 14.7959H86.6348V15.7231C86.5527 15.7612 86.4502 15.8081 86.3271 15.8638C86.2041 15.9165 86.0928 15.9561 85.9932 15.9824C85.8525 16.0234 85.7266 16.0542 85.6152 16.0747C85.5039 16.0981 85.3604 16.1099 85.1846 16.1099ZM90.9766 11.8164H89.3066V16H88.4805V11.8164H86.8105V11.0913H90.9766V11.8164ZM95.3096 14.4795C95.3096 14.7168 95.2612 14.9321 95.1646 15.1255C95.0708 15.3188 94.9419 15.4756 94.7778 15.5957C94.5845 15.7422 94.3779 15.8462 94.1582 15.9077C93.9385 15.9692 93.6558 16 93.3101 16H91.5918V11.0913H92.418V13.0029H93.332C93.7012 13.0029 93.9868 13.022 94.189 13.0601C94.394 13.0981 94.5977 13.1919 94.7998 13.3413C94.9697 13.4673 95.0972 13.6284 95.1821 13.8247C95.2671 14.021 95.3096 14.2393 95.3096 14.4795ZM94.457 14.4927C94.457 14.3433 94.4307 14.2129 94.3779 14.1016C94.3281 13.9873 94.2446 13.895 94.1274 13.8247C94.0044 13.7515 93.8638 13.7075 93.7056 13.6929C93.5503 13.6782 93.3262 13.6709 93.0332 13.6709H92.418V15.3408H93.0156C93.3086 15.3408 93.5356 15.3291 93.6968 15.3057C93.8579 15.2793 93.9971 15.231 94.1143 15.1606C94.2344 15.0845 94.3208 14.9951 94.3735 14.8926C94.4292 14.7871 94.457 14.6538 94.457 14.4927ZM102.763 14.5146C102.763 14.752 102.717 14.9629 102.626 15.1475C102.536 15.3291 102.411 15.4814 102.253 15.6045C102.054 15.7598 101.844 15.8652 101.625 15.9209C101.408 15.9736 101.147 16 100.842 16H98.9131V11.0913H100.715C101.075 11.0913 101.339 11.103 101.506 11.1265C101.673 11.147 101.838 11.2026 102.002 11.2935C102.175 11.3872 102.303 11.5117 102.385 11.667C102.467 11.8223 102.508 12.0068 102.508 12.2207C102.508 12.4551 102.443 12.666 102.314 12.8535C102.186 13.0381 102.014 13.1816 101.8 13.2842L101.822 13.3149C102.089 13.3823 102.312 13.5186 102.49 13.7236C102.672 13.9287 102.763 14.1924 102.763 14.5146ZM101.66 12.3481C101.66 12.2368 101.641 12.1401 101.603 12.0581C101.567 11.9761 101.504 11.9116 101.414 11.8647C101.308 11.8091 101.189 11.7769 101.058 11.7681C100.929 11.7563 100.749 11.7505 100.517 11.7505H99.7305V13.0952H100.68C100.882 13.0952 101.025 13.0864 101.11 13.0688C101.195 13.0483 101.289 13.0073 101.392 12.9458C101.488 12.8872 101.557 12.8081 101.598 12.7085C101.639 12.6089 101.66 12.4888 101.66 12.3481ZM101.91 14.519C101.91 14.3521 101.885 14.2188 101.835 14.1191C101.789 14.0166 101.683 13.9258 101.519 13.8467C101.417 13.7969 101.307 13.7661 101.189 13.7544C101.072 13.7427 100.91 13.7368 100.702 13.7368H99.7305V15.3408H100.447C100.743 15.3408 100.973 15.3291 101.137 15.3057C101.301 15.2822 101.441 15.2354 101.559 15.165C101.682 15.0889 101.771 15.001 101.827 14.9014C101.882 14.8018 101.91 14.6743 101.91 14.519ZM105.764 16.1143C104.982 16.1143 104.374 15.8945 103.94 15.4551C103.51 15.0127 103.294 14.3857 103.294 13.5742C103.294 12.7744 103.504 12.1387 103.923 11.667C104.342 11.1924 104.89 10.9551 105.566 10.9551C105.871 10.9551 106.141 10.999 106.375 11.0869C106.609 11.1748 106.814 11.3125 106.99 11.5C107.166 11.6875 107.301 11.9175 107.395 12.1899C107.488 12.4595 107.535 12.7905 107.535 13.1831V13.6313H104.134C104.134 14.2026 104.277 14.6392 104.564 14.9409C104.852 15.2427 105.249 15.3936 105.755 15.3936C105.937 15.3936 106.114 15.373 106.287 15.332C106.463 15.291 106.621 15.2383 106.762 15.1738C106.911 15.1064 107.037 15.042 107.14 14.9805C107.242 14.916 107.327 14.856 107.395 14.8003H107.443V15.7012C107.346 15.7393 107.226 15.7876 107.083 15.8462C106.939 15.9019 106.81 15.9458 106.696 15.978C106.535 16.022 106.388 16.0557 106.256 16.0791C106.127 16.1025 105.963 16.1143 105.764 16.1143ZM106.731 12.9985C106.725 12.7759 106.699 12.584 106.652 12.4229C106.605 12.2617 106.538 12.1255 106.45 12.0142C106.353 11.8911 106.229 11.7974 106.076 11.7329C105.927 11.6685 105.741 11.6362 105.518 11.6362C105.298 11.6362 105.111 11.6699 104.956 11.7373C104.803 11.8018 104.664 11.897 104.538 12.0229C104.415 12.1519 104.321 12.2954 104.257 12.4536C104.192 12.6089 104.151 12.7905 104.134 12.9985H106.731ZM111.956 11.8164H110.286V16H109.46V11.8164H107.79V11.0913H111.956V11.8164ZM116.689 13.416C116.689 14.2334 116.493 14.8853 116.1 15.3716C115.71 15.855 115.217 16.0967 114.619 16.0967C114.376 16.0967 114.161 16.0688 113.973 16.0132C113.786 15.9575 113.594 15.8711 113.397 15.7539V17.8105H112.571V11.0913H113.397V11.6055C113.603 11.4209 113.83 11.2671 114.079 11.144C114.331 11.0181 114.604 10.9551 114.9 10.9551C115.463 10.9551 115.901 11.1777 116.214 11.623C116.531 12.0684 116.689 12.666 116.689 13.416ZM115.836 13.5083C115.836 12.9487 115.747 12.5151 115.568 12.2075C115.39 11.897 115.1 11.7417 114.698 11.7417C114.464 11.7417 114.237 11.7944 114.017 11.8999C113.8 12.0024 113.594 12.1357 113.397 12.2998V15.0815C113.614 15.187 113.799 15.2588 113.951 15.2969C114.106 15.335 114.284 15.354 114.483 15.354C114.911 15.354 115.243 15.1973 115.48 14.8838C115.718 14.5703 115.836 14.1118 115.836 13.5083ZM120.288 14.7915V13.4292C120.092 13.4468 119.843 13.4717 119.541 13.5039C119.242 13.5332 119 13.5757 118.816 13.6313C118.596 13.6987 118.415 13.8027 118.271 13.9434C118.127 14.0811 118.056 14.2744 118.056 14.5234C118.056 14.8047 118.135 15.0171 118.293 15.1606C118.451 15.3042 118.683 15.376 118.987 15.376C119.248 15.376 119.484 15.3203 119.695 15.209C119.906 15.0947 120.104 14.9556 120.288 14.7915ZM120.288 15.4771C120.221 15.5269 120.13 15.5972 120.016 15.688C119.904 15.7759 119.796 15.8462 119.69 15.8989C119.544 15.9751 119.402 16.0337 119.264 16.0747C119.129 16.1157 118.939 16.1362 118.693 16.1362C118.491 16.1362 118.299 16.0981 118.117 16.022C117.936 15.9458 117.776 15.8389 117.638 15.7012C117.506 15.5664 117.401 15.4009 117.322 15.2046C117.243 15.0054 117.203 14.7959 117.203 14.5762C117.203 14.2363 117.275 13.9478 117.418 13.7104C117.562 13.4702 117.789 13.2798 118.1 13.1392C118.375 13.0132 118.7 12.9268 119.075 12.8799C119.45 12.8301 119.854 12.7935 120.288 12.77V12.6118C120.288 12.4185 120.259 12.2632 120.2 12.146C120.142 12.0259 120.06 11.9336 119.954 11.8691C119.849 11.8018 119.72 11.7578 119.567 11.7373C119.415 11.7139 119.258 11.7021 119.097 11.7021C118.907 11.7021 118.683 11.7314 118.425 11.79C118.167 11.8457 117.909 11.9277 117.651 12.0361H117.603V11.1968C117.755 11.1528 117.974 11.1045 118.258 11.0518C118.542 10.999 118.823 10.9727 119.102 10.9727C119.438 10.9727 119.723 10.999 119.954 11.0518C120.186 11.1045 120.394 11.1997 120.578 11.3374C120.757 11.4722 120.89 11.6465 120.978 11.8604C121.066 12.0742 121.11 12.335 121.11 12.6426V16H120.288V15.4771Z" fill="white"/>
<rect x="5" y="5" width="48" height="16" rx="1" fill="#0F62FE" fill-opacity="0.2"/>
<path d="M16.271 16H15.4009V10.3618L13.6958 14.1982H13.1685L11.4766 10.3618V16H10.6636V9.45654H11.8501L13.4849 13.0996L15.0625 9.45654H16.271V16ZM19.6636 16.1143C18.8813 16.1143 18.2734 15.8945 17.8398 15.4551C17.4092 15.0127 17.1938 14.3857 17.1938 13.5742C17.1938 12.7744 17.4033 12.1387 17.8223 11.667C18.2412 11.1924 18.7891 10.9551 19.4658 10.9551C19.7705 10.9551 20.04 10.999 20.2744 11.0869C20.5088 11.1748 20.7139 11.3125 20.8896 11.5C21.0654 11.6875 21.2002 11.9175 21.2939 12.1899C21.3877 12.4595 21.4346 12.7905 21.4346 13.1831V13.6313H18.0332C18.0332 14.2026 18.1768 14.6392 18.4639 14.9409C18.751 15.2427 19.1479 15.3936 19.6548 15.3936C19.8364 15.3936 20.0137 15.373 20.1865 15.332C20.3623 15.291 20.5205 15.2383 20.6611 15.1738C20.8105 15.1064 20.9365 15.042 21.0391 14.9805C21.1416 14.916 21.2266 14.856 21.2939 14.8003H21.3423V15.7012C21.2456 15.7393 21.1255 15.7876 20.9819 15.8462C20.8384 15.9019 20.7095 15.9458 20.5952 15.978C20.4341 16.022 20.2876 16.0557 20.1558 16.0791C20.0269 16.1025 19.8628 16.1143 19.6636 16.1143ZM20.6304 12.9985C20.6245 12.7759 20.5981 12.584 20.5513 12.4229C20.5044 12.2617 20.437 12.1255 20.3491 12.0142C20.2524 11.8911 20.1279 11.7974 19.9756 11.7329C19.8262 11.6685 19.6401 11.6362 19.4175 11.6362C19.1978 11.6362 19.0103 11.6699 18.855 11.7373C18.7026 11.8018 18.5635 11.897 18.4375 12.0229C18.3145 12.1519 18.2207 12.2954 18.1562 12.4536C18.0918 12.6089 18.0508 12.7905 18.0332 12.9985H20.6304ZM23.7549 16.0967C23.3037 16.0967 22.9521 15.9692 22.7002 15.7144C22.4482 15.4565 22.3223 15.0508 22.3223 14.4971V11.7769H21.7642V11.0913H22.3223V9.68066H23.1484V11.0913H24.6689V11.7769H23.1484V14.1104C23.1484 14.3594 23.1528 14.5513 23.1616 14.686C23.1704 14.8208 23.2041 14.9468 23.2627 15.064C23.3125 15.1665 23.3931 15.2441 23.5044 15.2969C23.6157 15.3467 23.7666 15.3716 23.957 15.3716C24.0918 15.3716 24.2222 15.3525 24.3481 15.3145C24.4741 15.2734 24.5649 15.2397 24.6206 15.2134H24.6689V15.9561C24.5137 16 24.3555 16.0337 24.1943 16.0571C24.0361 16.0835 23.8896 16.0967 23.7549 16.0967ZM27.4155 16.1143C26.6333 16.1143 26.0254 15.8945 25.5918 15.4551C25.1611 15.0127 24.9458 14.3857 24.9458 13.5742C24.9458 12.7744 25.1553 12.1387 25.5742 11.667C25.9932 11.1924 26.541 10.9551 27.2178 10.9551C27.5225 10.9551 27.792 10.999 28.0264 11.0869C28.2607 11.1748 28.4658 11.3125 28.6416 11.5C28.8174 11.6875 28.9521 11.9175 29.0459 12.1899C29.1396 12.4595 29.1865 12.7905 29.1865 13.1831V13.6313H25.7852C25.7852 14.2026 25.9287 14.6392 26.2158 14.9409C26.5029 15.2427 26.8999 15.3936 27.4067 15.3936C27.5884 15.3936 27.7656 15.373 27.9385 15.332C28.1143 15.291 28.2725 15.2383 28.4131 15.1738C28.5625 15.1064 28.6885 15.042 28.791 14.9805C28.8936 14.916 28.9785 14.856 29.0459 14.8003H29.0942V15.7012C28.9976 15.7393 28.8774 15.7876 28.7339 15.8462C28.5903 15.9019 28.4614 15.9458 28.3472 15.978C28.186 16.022 28.0396 16.0557 27.9077 16.0791C27.7788 16.1025 27.6147 16.1143 27.4155 16.1143ZM28.3823 12.9985C28.3765 12.7759 28.3501 12.584 28.3032 12.4229C28.2563 12.2617 28.189 12.1255 28.1011 12.0142C28.0044 11.8911 27.8799 11.7974 27.7275 11.7329C27.5781 11.6685 27.3921 11.6362 27.1694 11.6362C26.9497 11.6362 26.7622 11.6699 26.6069 11.7373C26.4546 11.8018 26.3154 11.897 26.1895 12.0229C26.0664 12.1519 25.9727 12.2954 25.9082 12.4536C25.8438 12.6089 25.8027 12.7905 25.7852 12.9985H28.3823ZM34.0601 13.5479C34.0601 14.374 33.8608 15.0127 33.4624 15.4639C33.064 15.9121 32.5337 16.1362 31.8716 16.1362C31.189 16.1362 30.6514 15.9048 30.2588 15.4419C29.8691 14.9761 29.6743 14.3447 29.6743 13.5479C29.6743 12.7275 29.875 12.0903 30.2764 11.6362C30.6807 11.1821 31.2124 10.9551 31.8716 10.9551C32.5337 10.9551 33.064 11.1821 33.4624 11.6362C33.8608 12.0874 34.0601 12.7246 34.0601 13.5479ZM33.2075 13.5479C33.2075 12.9121 33.0918 12.4404 32.8604 12.1328C32.6289 11.8223 32.2993 11.667 31.8716 11.667C31.4409 11.667 31.1084 11.8223 30.874 12.1328C30.6426 12.4404 30.5269 12.9121 30.5269 13.5479C30.5269 14.1631 30.6426 14.6304 30.874 14.9497C31.1084 15.2661 31.4409 15.4243 31.8716 15.4243C32.2964 15.4243 32.6245 15.269 32.856 14.9585C33.0903 14.645 33.2075 14.1748 33.2075 13.5479ZM36.4287 12.3438H35.3784V11.0913H36.4287V12.3438ZM36.4287 16H35.3784V14.7476H36.4287V16ZM39.9795 16.1187C39.5049 16.1187 39.1006 16.0703 38.7666 15.9736C38.4355 15.874 38.1235 15.7524 37.8306 15.6089V14.519H37.8921C38.1792 14.7886 38.5044 14.998 38.8677 15.1475C39.231 15.2939 39.5811 15.3672 39.918 15.3672C40.3984 15.3672 40.7617 15.2676 41.0078 15.0684C41.2539 14.8662 41.377 14.6011 41.377 14.2729C41.377 14.0122 41.3125 13.7998 41.1836 13.6357C41.0547 13.4717 40.8496 13.3501 40.5684 13.271C40.3662 13.2124 40.1816 13.1641 40.0146 13.126C39.8477 13.0879 39.6382 13.0366 39.3862 12.9722C39.1606 12.9136 38.9585 12.8389 38.7798 12.748C38.6011 12.6572 38.4429 12.5386 38.3052 12.3921C38.1704 12.2485 38.0649 12.0801 37.9888 11.8867C37.9155 11.6904 37.8789 11.4648 37.8789 11.21C37.8789 10.6797 38.0854 10.2358 38.4985 9.87842C38.9116 9.51807 39.439 9.33789 40.0806 9.33789C40.4468 9.33789 40.7925 9.37451 41.1177 9.44775C41.4458 9.521 41.749 9.625 42.0273 9.75977V10.8013H41.9614C41.7534 10.6108 41.4868 10.4453 41.1616 10.3047C40.8364 10.1611 40.4951 10.0894 40.1377 10.0894C39.7334 10.0894 39.4067 10.1846 39.1577 10.375C38.9087 10.5625 38.7842 10.8101 38.7842 11.1177C38.7842 11.396 38.8574 11.6172 39.0039 11.7812C39.1504 11.9453 39.3628 12.0654 39.6411 12.1416C39.8257 12.1914 40.0513 12.2485 40.3179 12.313C40.5845 12.3745 40.8057 12.4316 40.9814 12.4844C41.4326 12.6221 41.7622 12.8301 41.9702 13.1084C42.1782 13.3867 42.2822 13.7295 42.2822 14.1367C42.2822 14.3916 42.2295 14.6436 42.124 14.8926C42.0215 15.1416 41.8765 15.3525 41.689 15.5254C41.478 15.7158 41.2393 15.8623 40.9727 15.9648C40.709 16.0674 40.3779 16.1187 39.9795 16.1187ZM47.3052 11.4297C47.3052 11.7139 47.2539 11.9834 47.1514 12.2383C47.0518 12.4902 46.9126 12.7056 46.7339 12.8843C46.5083 13.1069 46.2432 13.2754 45.9385 13.3896C45.6338 13.5039 45.2485 13.561 44.7827 13.561H44.0444V16H43.1743V9.45654H44.8179C45.2046 9.45654 45.5342 9.48877 45.8066 9.55322C46.0791 9.61768 46.3193 9.72168 46.5273 9.86523C46.7705 10.0322 46.9609 10.2446 47.0986 10.5024C47.2363 10.7573 47.3052 11.0664 47.3052 11.4297ZM46.3999 11.4517C46.3999 11.2261 46.3604 11.0298 46.2812 10.8628C46.2051 10.6958 46.0879 10.5596 45.9297 10.4541C45.792 10.3633 45.6309 10.2988 45.4463 10.2607C45.2646 10.2227 45.0376 10.2036 44.7651 10.2036H44.0444V12.8184H44.6377C44.9893 12.8184 45.2734 12.7905 45.4902 12.7349C45.707 12.6763 45.8872 12.5737 46.0308 12.4272C46.1597 12.2954 46.2534 12.1519 46.312 11.9966C46.3706 11.8413 46.3999 11.6597 46.3999 11.4517Z" fill="#0F62FE"/>
<defs>
<linearGradient id="paint0_linear" x1="-nan" y1="-nan" x2="-nan" y2="-nan" gradientUnits="userSpaceOnUse">
<stop stop-color="white" stop-opacity="0"/>
<stop offset="0.05" stop-color="white" stop-opacity="0.07"/>
<stop offset="0.15" stop-color="white" stop-opacity="0.25"/>
<stop offset="0.3" stop-color="white" stop-opacity="0.53"/>
<stop offset="0.48" stop-color="white" stop-opacity="0.92"/>
<stop offset="0.51" stop-color="white"/>
<stop offset="0.61" stop-color="white" stop-opacity="0.76"/>
<stop offset="0.75" stop-color="white" stop-opacity="0.44"/>
<stop offset="0.87" stop-color="white" stop-opacity="0.2"/>
<stop offset="0.95" stop-color="white" stop-opacity="0.06"/>
<stop offset="1" stop-color="white" stop-opacity="0"/>
</linearGradient>
<linearGradient id="paint1_linear" x1="-nan" y1="-nan" x2="-nan" y2="-nan" gradientUnits="userSpaceOnUse">
<stop stop-color="white" stop-opacity="0"/>
<stop offset="0.05" stop-color="white" stop-opacity="0.07"/>
<stop offset="0.15" stop-color="white" stop-opacity="0.25"/>
<stop offset="0.3" stop-color="white" stop-opacity="0.53"/>
<stop offset="0.48" stop-color="white" stop-opacity="0.92"/>
<stop offset="0.51" stop-color="white"/>
<stop offset="0.61" stop-color="white" stop-opacity="0.76"/>
<stop offset="0.75" stop-color="white" stop-opacity="0.44"/>
<stop offset="0.87" stop-color="white" stop-opacity="0.2"/>
<stop offset="0.95" stop-color="white" stop-opacity="0.06"/>
<stop offset="1" stop-color="white" stop-opacity="0"/>
</linearGradient>
<linearGradient id="paint2_linear" x1="-nan" y1="-nan" x2="-nan" y2="-nan" gradientUnits="userSpaceOnUse">
<stop stop-color="white" stop-opacity="0"/>
<stop offset="0.05" stop-color="white" stop-opacity="0.07"/>
<stop offset="0.15" stop-color="white" stop-opacity="0.25"/>
<stop offset="0.3" stop-color="white" stop-opacity="0.53"/>
<stop offset="0.48" stop-color="white" stop-opacity="0.92"/>
<stop offset="0.51" stop-color="white"/>
<stop offset="0.61" stop-color="white" stop-opacity="0.76"/>
<stop offset="0.75" stop-color="white" stop-opacity="0.44"/>
<stop offset="0.87" stop-color="white" stop-opacity="0.2"/>
<stop offset="0.95" stop-color="white" stop-opacity="0.06"/>
<stop offset="1" stop-color="white" stop-opacity="0"/>
</linearGradient>
</defs>
</svg>
