<svg width="324" height="117" viewBox="0 0 324 117" fill="none" xmlns="http://www.w3.org/2000/svg">
<g clip-path="url(#clip0)">
<rect x="5.5" y="10.5" width="312" height="20" rx="1.5" stroke="#5C6585" stroke-opacity="0.25"/>
<path d="M28.1631 19.2891C28.1631 19.7415 28.0947 20.1419 27.958 20.4902C27.8213 20.8353 27.6309 21.1266 27.3867 21.3643C27.123 21.6247 26.7992 21.8265 26.415 21.9697C26.0309 22.1097 25.6338 22.1846 25.2236 22.1943V23.0781H24.2617V22.1943C23.8548 22.1813 23.4593 22.1081 23.0752 21.9746C22.6911 21.8411 22.3639 21.641 22.0938 21.374C21.8496 21.1364 21.6592 20.8418 21.5225 20.4902C21.389 20.1387 21.3223 19.7383 21.3223 19.2891C21.3223 18.8659 21.3874 18.4867 21.5176 18.1514C21.6478 17.8128 21.8301 17.5215 22.0645 17.2773C22.3151 17.0169 22.6292 16.8118 23.0068 16.6621C23.3844 16.5124 23.8027 16.431 24.2617 16.418V15.6123H25.2236V16.418C25.6826 16.4277 26.1025 16.5091 26.4834 16.6621C26.8643 16.8118 27.18 17.0153 27.4307 17.2725C27.665 17.5133 27.8457 17.8014 27.9727 18.1367C28.0996 18.472 28.1631 18.8561 28.1631 19.2891ZM27.1572 19.25C27.1572 18.9277 27.1117 18.6348 27.0205 18.3711C26.9294 18.1042 26.7943 17.8779 26.6152 17.6924C26.446 17.5166 26.249 17.3864 26.0244 17.3018C25.7998 17.2171 25.5329 17.1715 25.2236 17.165V21.4619C25.5166 21.4554 25.777 21.4082 26.0049 21.3203C26.236 21.2292 26.4264 21.1087 26.5762 20.959C26.7747 20.7637 26.9212 20.526 27.0156 20.2461C27.11 19.9661 27.1572 19.6341 27.1572 19.25ZM24.2617 21.4619V17.165C23.9525 17.1683 23.6855 17.2139 23.4609 17.3018C23.2363 17.3896 23.0394 17.5199 22.8701 17.6924C22.6911 17.8747 22.556 18.1009 22.4648 18.3711C22.3737 18.6413 22.3281 18.9342 22.3281 19.25C22.3281 19.6341 22.3753 19.9678 22.4697 20.251C22.5641 20.5309 22.7106 20.7669 22.9092 20.959C23.0589 21.1022 23.2477 21.221 23.4756 21.3154C23.7067 21.4098 23.9688 21.4587 24.2617 21.4619ZM32.2012 21.6572V20.1436C31.9831 20.1631 31.7064 20.1908 31.3711 20.2266C31.0391 20.2591 30.7705 20.3063 30.5654 20.3682C30.3213 20.443 30.1195 20.5586 29.96 20.7148C29.8005 20.8678 29.7207 21.0827 29.7207 21.3594C29.7207 21.6719 29.8086 21.9079 29.9844 22.0674C30.1602 22.2269 30.4173 22.3066 30.7559 22.3066C31.0456 22.3066 31.3076 22.2448 31.542 22.1211C31.7764 21.9941 31.9961 21.8395 32.2012 21.6572ZM32.2012 22.4189C32.1263 22.4743 32.0254 22.5524 31.8984 22.6533C31.7747 22.751 31.6543 22.8291 31.5371 22.8877C31.3743 22.9723 31.2165 23.0374 31.0635 23.083C30.9137 23.1286 30.7021 23.1514 30.4287 23.1514C30.2041 23.1514 29.9909 23.109 29.7891 23.0244C29.5872 22.9398 29.4098 22.821 29.2568 22.668C29.1104 22.5182 28.9932 22.3343 28.9053 22.1162C28.8174 21.8949 28.7734 21.6621 28.7734 21.418C28.7734 21.0404 28.8532 20.7197 29.0127 20.4561C29.1722 20.1891 29.4245 19.9775 29.7695 19.8213C30.0755 19.6813 30.4368 19.5853 30.8535 19.5332C31.2702 19.4779 31.7194 19.4372 32.2012 19.4111V19.2354C32.2012 19.0205 32.1686 18.848 32.1035 18.7178C32.0384 18.5843 31.9473 18.4818 31.8301 18.4102C31.7129 18.3353 31.5697 18.2865 31.4004 18.2637C31.2311 18.2376 31.057 18.2246 30.8779 18.2246C30.6663 18.2246 30.4173 18.2572 30.1309 18.3223C29.8444 18.3841 29.5579 18.4753 29.2715 18.5957H29.2178V17.6631C29.387 17.6143 29.6296 17.5605 29.9453 17.502C30.2611 17.4434 30.5736 17.4141 30.8828 17.4141C31.2572 17.4141 31.5729 17.4434 31.8301 17.502C32.0872 17.5605 32.3184 17.6663 32.5234 17.8193C32.722 17.9691 32.8701 18.1628 32.9678 18.4004C33.0654 18.638 33.1143 18.9277 33.1143 19.2695V23H32.2012V22.4189ZM38.7979 23H37.6553L35.7852 20.4854H35.3262V23H34.4082V17.5459H35.3262V19.9189C35.5638 19.9157 35.7656 19.8669 35.9316 19.7725C36.1009 19.6748 36.2441 19.4876 36.3613 19.2109C36.3971 19.1296 36.4362 19.0352 36.4785 18.9277C36.5241 18.8203 36.5599 18.7259 36.5859 18.6445C36.7292 18.2441 36.9277 17.9609 37.1816 17.7949C37.4355 17.6289 37.766 17.5459 38.1729 17.5459H38.4219V18.3369H38.2119C37.9548 18.3369 37.7611 18.3906 37.6309 18.498C37.5039 18.6022 37.3965 18.7943 37.3086 19.0742C37.2174 19.3574 37.11 19.5788 36.9863 19.7383C36.8626 19.8945 36.7259 20.015 36.5762 20.0996L38.7979 23ZM43.373 18.3516H41.5176V23H40.5996V18.3516H38.7441V17.5459H43.373V18.3516Z" fill="#8A98B3"/>
<rect opacity="0.2" x="5" y="10" width="60" height="21" fill="url(#paint0_linear)"/>
<rect x="5" y="10" width="2" height="21" fill="#5C6585"/>
<rect x="5.5" y="35.5" width="311.326" height="20" rx="1.5" stroke="#5C6585" stroke-opacity="0.25"/>
<rect opacity="0.2" x="5" y="35" width="60" height="21" fill="url(#paint1_linear)"/>
<path d="M27.0156 48H26.0488V41.5889H22.7041V48H21.7373V40.7295H27.0156V48ZM32.6455 48H31.7275V43.3174H29.8525C29.8428 43.5876 29.833 43.848 29.8232 44.0986C29.8135 44.346 29.8037 44.5706 29.7939 44.7725C29.7744 45.2835 29.7402 45.7116 29.6914 46.0566C29.6458 46.4017 29.5872 46.6784 29.5156 46.8867C29.444 47.1016 29.3643 47.2692 29.2764 47.3896C29.1917 47.5101 29.0957 47.6191 28.9883 47.7168C28.8776 47.8145 28.7588 47.8877 28.6318 47.9365C28.5049 47.9854 28.3617 48.0098 28.2021 48.0098C28.1501 48.0098 28.0833 48.0081 28.002 48.0049C27.9206 48.0016 27.8636 48 27.8311 48V47.1992H27.8799C27.9027 47.1992 27.9255 47.2008 27.9482 47.2041C27.9743 47.2074 28.0036 47.209 28.0361 47.209C28.1143 47.209 28.1908 47.1976 28.2656 47.1748C28.3405 47.152 28.4072 47.1097 28.4658 47.0479C28.6286 46.8883 28.7474 46.61 28.8223 46.2129C28.8971 45.8125 28.9508 45.2542 28.9834 44.5381C28.9964 44.2712 29.0078 43.9554 29.0176 43.5908C29.0306 43.2262 29.042 42.8779 29.0518 42.5459H32.6455V48ZM37.0254 46.6572V45.1436C36.8073 45.1631 36.5306 45.1908 36.1953 45.2266C35.8633 45.2591 35.5947 45.3063 35.3896 45.3682C35.1455 45.443 34.9437 45.5586 34.7842 45.7148C34.6247 45.8678 34.5449 46.0827 34.5449 46.3594C34.5449 46.6719 34.6328 46.9079 34.8086 47.0674C34.9844 47.2269 35.2415 47.3066 35.5801 47.3066C35.8698 47.3066 36.1318 47.2448 36.3662 47.1211C36.6006 46.9941 36.8203 46.8395 37.0254 46.6572ZM37.0254 47.4189C36.9505 47.4743 36.8496 47.5524 36.7227 47.6533C36.599 47.751 36.4785 47.8291 36.3613 47.8877C36.1986 47.9723 36.0407 48.0374 35.8877 48.083C35.738 48.1286 35.5264 48.1514 35.2529 48.1514C35.0283 48.1514 34.8151 48.109 34.6133 48.0244C34.4115 47.9398 34.234 47.821 34.0811 47.668C33.9346 47.5182 33.8174 47.3343 33.7295 47.1162C33.6416 46.8949 33.5977 46.6621 33.5977 46.418C33.5977 46.0404 33.6774 45.7197 33.8369 45.4561C33.9964 45.1891 34.2487 44.9775 34.5938 44.8213C34.8997 44.6813 35.2611 44.5853 35.6777 44.5332C36.0944 44.4779 36.5436 44.4372 37.0254 44.4111V44.2354C37.0254 44.0205 36.9928 43.848 36.9277 43.7178C36.8626 43.5843 36.7715 43.4818 36.6543 43.4102C36.5371 43.3353 36.3939 43.2865 36.2246 43.2637C36.0553 43.2376 35.8812 43.2246 35.7021 43.2246C35.4906 43.2246 35.2415 43.2572 34.9551 43.3223C34.6686 43.3841 34.3822 43.4753 34.0957 43.5957H34.042V42.6631C34.2113 42.6143 34.4538 42.5605 34.7695 42.502C35.0853 42.4434 35.3978 42.4141 35.707 42.4141C36.0814 42.4141 36.3971 42.4434 36.6543 42.502C36.9115 42.5605 37.1426 42.6663 37.3477 42.8193C37.5462 42.9691 37.6943 43.1628 37.792 43.4004C37.8896 43.638 37.9385 43.9277 37.9385 44.2695V48H37.0254V47.4189ZM43.5391 48H42.6211V45.5439H40.1504V48H39.2324V42.5459H40.1504V44.7529H42.6211V42.5459H43.5391V48Z" fill="#8A98B3"/>
<rect x="5" y="35" width="2" height="21" fill="#5C6585"/>
<rect x="5.5" y="59.5" width="311.326" height="20" rx="1.5" stroke="#5C6585" stroke-opacity="0.25"/>
<rect opacity="0.2" x="5" y="59" width="60" height="21" fill="url(#paint2_linear)"/>
<path d="M26.8789 66.5645C27.1556 66.8835 27.3704 67.279 27.5234 67.751C27.6764 68.223 27.7529 68.7617 27.7529 69.3672C27.7529 69.9564 27.6781 70.4886 27.5283 70.9639C27.3786 71.4391 27.1621 71.8379 26.8789 72.1602C26.5827 72.4987 26.236 72.7493 25.8389 72.9121C25.445 73.0716 25.0104 73.1514 24.5352 73.1514C24.0436 73.1514 23.6009 73.0684 23.207 72.9023C22.8132 72.7363 22.4746 72.4889 22.1914 72.1602C21.9115 71.8379 21.6966 71.4408 21.5469 70.9688C21.3971 70.4967 21.3223 69.9629 21.3223 69.3672C21.3223 68.7552 21.3971 68.2181 21.5469 67.7559C21.6999 67.2936 21.9163 66.8965 22.1963 66.5645C22.4762 66.2422 22.8132 65.998 23.207 65.832C23.6042 65.6628 24.0469 65.5781 24.5352 65.5781C25.0299 65.5781 25.4759 65.6644 25.873 65.8369C26.2702 66.0094 26.6055 66.252 26.8789 66.5645ZM26.7471 69.3672C26.7471 68.8854 26.695 68.459 26.5908 68.0879C26.4867 67.7168 26.3402 67.4092 26.1514 67.165C25.9593 66.9144 25.7266 66.7272 25.4531 66.6035C25.1829 66.4766 24.8786 66.4131 24.54 66.4131C24.1885 66.4131 23.8809 66.4749 23.6172 66.5986C23.3568 66.7191 23.1257 66.9079 22.9238 67.165C22.7318 67.4124 22.5837 67.7233 22.4795 68.0977C22.3786 68.472 22.3281 68.8952 22.3281 69.3672C22.3281 70.321 22.5283 71.0518 22.9287 71.5596C23.3291 72.0641 23.8662 72.3164 24.54 72.3164C25.2139 72.3164 25.7493 72.0641 26.1465 71.5596C26.5469 71.0518 26.7471 70.321 26.7471 69.3672ZM32.7285 68.3516H30.873V73H29.9551V68.3516H28.0996V67.5459H32.7285V68.3516ZM37.8018 73H36.6592L34.7891 70.4854H34.3301V73H33.4121V67.5459H34.3301V69.9189C34.5677 69.9157 34.7695 69.8669 34.9355 69.7725C35.1048 69.6748 35.248 69.4876 35.3652 69.2109C35.401 69.1296 35.4401 69.0352 35.4824 68.9277C35.528 68.8203 35.5638 68.7259 35.5898 68.6445C35.7331 68.2441 35.9316 67.9609 36.1855 67.7949C36.4395 67.6289 36.7699 67.5459 37.1768 67.5459H37.4258V68.3369H37.2158C36.9587 68.3369 36.765 68.3906 36.6348 68.498C36.5078 68.6022 36.4004 68.7943 36.3125 69.0742C36.2214 69.3574 36.1139 69.5788 35.9902 69.7383C35.8665 69.8945 35.7298 70.015 35.5801 70.0996L37.8018 73ZM42.6162 73H41.6982V68.3174H39.8232C39.8135 68.5876 39.8037 68.848 39.7939 69.0986C39.7842 69.346 39.7744 69.5706 39.7646 69.7725C39.7451 70.2835 39.7109 70.7116 39.6621 71.0566C39.6165 71.4017 39.5579 71.6784 39.4863 71.8867C39.4147 72.1016 39.335 72.2692 39.2471 72.3896C39.1624 72.5101 39.0664 72.6191 38.959 72.7168C38.8483 72.8145 38.7295 72.8877 38.6025 72.9365C38.4756 72.9854 38.3324 73.0098 38.1729 73.0098C38.1208 73.0098 38.054 73.0081 37.9727 73.0049C37.8913 73.0016 37.8343 73 37.8018 73V72.1992H37.8506C37.8734 72.1992 37.8962 72.2008 37.9189 72.2041C37.945 72.2074 37.9743 72.209 38.0068 72.209C38.085 72.209 38.1615 72.1976 38.2363 72.1748C38.3112 72.152 38.3779 72.1097 38.4365 72.0479C38.5993 71.8883 38.7181 71.61 38.793 71.2129C38.8678 70.8125 38.9215 70.2542 38.9541 69.5381C38.9671 69.2712 38.9785 68.9554 38.9883 68.5908C39.0013 68.2262 39.0127 67.8779 39.0225 67.5459H42.6162V73ZM48.4365 70.2754C48.4365 71.1934 48.2152 71.903 47.7725 72.4043C47.3298 72.9023 46.7406 73.1514 46.0049 73.1514C45.2464 73.1514 44.6491 72.8942 44.2129 72.3799C43.7799 71.8623 43.5635 71.1608 43.5635 70.2754C43.5635 69.3639 43.7865 68.6559 44.2324 68.1514C44.6816 67.6468 45.2725 67.3945 46.0049 67.3945C46.7406 67.3945 47.3298 67.6468 47.7725 68.1514C48.2152 68.6527 48.4365 69.3607 48.4365 70.2754ZM47.4893 70.2754C47.4893 69.569 47.3607 69.0449 47.1035 68.7031C46.8464 68.3581 46.4801 68.1855 46.0049 68.1855C45.5264 68.1855 45.1569 68.3581 44.8965 68.7031C44.6393 69.0449 44.5107 69.569 44.5107 70.2754C44.5107 70.959 44.6393 71.4782 44.8965 71.833C45.1569 72.1846 45.5264 72.3604 46.0049 72.3604C46.4769 72.3604 46.8415 72.1878 47.0986 71.8428C47.359 71.4945 47.4893 70.972 47.4893 70.2754ZM53.6855 73H52.7676V70.5439H50.2969V73H49.3789V67.5459H50.2969V69.7529H52.7676V67.5459H53.6855V73ZM57.3818 73.127C56.5127 73.127 55.8372 72.8828 55.3555 72.3945C54.877 71.903 54.6377 71.2064 54.6377 70.3047C54.6377 69.416 54.8704 68.7096 55.3359 68.1855C55.8014 67.6582 56.4102 67.3945 57.1621 67.3945C57.5007 67.3945 57.8001 67.4434 58.0605 67.541C58.321 67.6387 58.5488 67.7917 58.7441 68C58.9395 68.2083 59.0892 68.4639 59.1934 68.7666C59.2975 69.0661 59.3496 69.4339 59.3496 69.8701V70.3682H55.5703C55.5703 71.0029 55.7298 71.488 56.0488 71.8232C56.3678 72.1585 56.8089 72.3262 57.3721 72.3262C57.5739 72.3262 57.7708 72.3034 57.9629 72.2578C58.1582 72.2122 58.334 72.1536 58.4902 72.082C58.6562 72.0072 58.7962 71.9355 58.9102 71.8672C59.0241 71.7956 59.1185 71.7288 59.1934 71.667H59.2471V72.668C59.1396 72.7103 59.0062 72.764 58.8467 72.8291C58.6872 72.891 58.5439 72.9398 58.417 72.9756C58.238 73.0244 58.0752 73.0618 57.9287 73.0879C57.7855 73.1139 57.6032 73.127 57.3818 73.127ZM58.4561 69.665C58.4495 69.4176 58.4202 69.2044 58.3682 69.0254C58.3161 68.8464 58.2412 68.695 58.1436 68.5713C58.0361 68.4346 57.8978 68.3304 57.7285 68.2588C57.5625 68.1872 57.3558 68.1514 57.1084 68.1514C56.8643 68.1514 56.6559 68.1888 56.4834 68.2637C56.3141 68.3353 56.1595 68.4411 56.0195 68.5811C55.8828 68.7243 55.7786 68.8838 55.707 69.0596C55.6354 69.2321 55.5898 69.4339 55.5703 69.665H58.4561ZM64.584 73H63.666V70.5439H61.1953V73H60.2773V67.5459H61.1953V69.7529H63.666V67.5459H64.584V73ZM70.2188 73H69.3105V68.9326L66.7422 73H65.9121V67.5459H66.8203V71.5498L69.3594 67.5459H70.2188V73ZM73.915 73.127C73.0459 73.127 72.3704 72.8828 71.8887 72.3945C71.4102 71.903 71.1709 71.2064 71.1709 70.3047C71.1709 69.416 71.4036 68.7096 71.8691 68.1855C72.3346 67.6582 72.9434 67.3945 73.6953 67.3945C74.0339 67.3945 74.3333 67.4434 74.5938 67.541C74.8542 67.6387 75.082 67.7917 75.2773 68C75.4727 68.2083 75.6224 68.4639 75.7266 68.7666C75.8307 69.0661 75.8828 69.4339 75.8828 69.8701V70.3682H72.1035C72.1035 71.0029 72.263 71.488 72.582 71.8232C72.901 72.1585 73.3421 72.3262 73.9053 72.3262C74.1071 72.3262 74.304 72.3034 74.4961 72.2578C74.6914 72.2122 74.8672 72.1536 75.0234 72.082C75.1895 72.0072 75.3294 71.9355 75.4434 71.8672C75.5573 71.7956 75.6517 71.7288 75.7266 71.667H75.7803V72.668C75.6729 72.7103 75.5394 72.764 75.3799 72.8291C75.2204 72.891 75.0771 72.9398 74.9502 72.9756C74.7712 73.0244 74.6084 73.0618 74.4619 73.0879C74.3187 73.1139 74.1364 73.127 73.915 73.127ZM74.9893 69.665C74.9827 69.4176 74.9535 69.2044 74.9014 69.0254C74.8493 68.8464 74.7744 68.695 74.6768 68.5713C74.5693 68.4346 74.431 68.3304 74.2617 68.2588C74.0957 68.1872 73.889 68.1514 73.6416 68.1514C73.3975 68.1514 73.1891 68.1888 73.0166 68.2637C72.8473 68.3353 72.6927 68.4411 72.5527 68.5811C72.416 68.7243 72.3118 68.8838 72.2402 69.0596C72.1686 69.2321 72.123 69.4339 72.1035 69.665H74.9893Z" fill="#8A98B3"/>
<rect x="5" y="59" width="2" height="21" fill="#5C6585"/>
<rect x="5.5" y="84.5" width="311.326" height="20" rx="1.5" stroke="#5C6585" stroke-opacity="0.25"/>
<rect opacity="0.2" x="5" y="84" width="60" height="21" fill="url(#paint3_linear)"/>
<path d="M27.0156 98H26.0488V91.5889H22.7041V98H21.7373V90.7295H27.0156V98ZM32.6455 98H31.7275V93.3174H29.8525C29.8428 93.5876 29.833 93.848 29.8232 94.0986C29.8135 94.346 29.8037 94.5706 29.7939 94.7725C29.7744 95.2835 29.7402 95.7116 29.6914 96.0566C29.6458 96.4017 29.5872 96.6784 29.5156 96.8867C29.444 97.1016 29.3643 97.2692 29.2764 97.3896C29.1917 97.5101 29.0957 97.6191 28.9883 97.7168C28.8776 97.8145 28.7588 97.8877 28.6318 97.9365C28.5049 97.9854 28.3617 98.0098 28.2021 98.0098C28.1501 98.0098 28.0833 98.0081 28.002 98.0049C27.9206 98.0016 27.8636 98 27.8311 98V97.1992H27.8799C27.9027 97.1992 27.9255 97.2008 27.9482 97.2041C27.9743 97.2074 28.0036 97.209 28.0361 97.209C28.1143 97.209 28.1908 97.1976 28.2656 97.1748C28.3405 97.152 28.4072 97.1097 28.4658 97.0479C28.6286 96.8883 28.7474 96.61 28.8223 96.2129C28.8971 95.8125 28.9508 95.2542 28.9834 94.5381C28.9964 94.2712 29.0078 93.9554 29.0176 93.5908C29.0306 93.2262 29.042 92.8779 29.0518 92.5459H32.6455V98ZM37.0254 96.6572V95.1436C36.8073 95.1631 36.5306 95.1908 36.1953 95.2266C35.8633 95.2591 35.5947 95.3063 35.3896 95.3682C35.1455 95.443 34.9437 95.5586 34.7842 95.7148C34.6247 95.8678 34.5449 96.0827 34.5449 96.3594C34.5449 96.6719 34.6328 96.9079 34.8086 97.0674C34.9844 97.2269 35.2415 97.3066 35.5801 97.3066C35.8698 97.3066 36.1318 97.2448 36.3662 97.1211C36.6006 96.9941 36.8203 96.8395 37.0254 96.6572ZM37.0254 97.4189C36.9505 97.4743 36.8496 97.5524 36.7227 97.6533C36.599 97.751 36.4785 97.8291 36.3613 97.8877C36.1986 97.9723 36.0407 98.0374 35.8877 98.083C35.738 98.1286 35.5264 98.1514 35.2529 98.1514C35.0283 98.1514 34.8151 98.109 34.6133 98.0244C34.4115 97.9398 34.234 97.821 34.0811 97.668C33.9346 97.5182 33.8174 97.3343 33.7295 97.1162C33.6416 96.8949 33.5977 96.6621 33.5977 96.418C33.5977 96.0404 33.6774 95.7197 33.8369 95.4561C33.9964 95.1891 34.2487 94.9775 34.5938 94.8213C34.8997 94.6813 35.2611 94.5853 35.6777 94.5332C36.0944 94.4779 36.5436 94.4372 37.0254 94.4111V94.2354C37.0254 94.0205 36.9928 93.848 36.9277 93.7178C36.8626 93.5843 36.7715 93.4818 36.6543 93.4102C36.5371 93.3353 36.3939 93.2865 36.2246 93.2637C36.0553 93.2376 35.8812 93.2246 35.7021 93.2246C35.4906 93.2246 35.2415 93.2572 34.9551 93.3223C34.6686 93.3841 34.3822 93.4753 34.0957 93.5957H34.042V92.6631C34.2113 92.6143 34.4538 92.5605 34.7695 92.502C35.0853 92.4434 35.3978 92.4141 35.707 92.4141C36.0814 92.4141 36.3971 92.4434 36.6543 92.502C36.9115 92.5605 37.1426 92.6663 37.3477 92.8193C37.5462 92.9691 37.6943 93.1628 37.792 93.4004C37.8896 93.638 37.9385 93.9277 37.9385 94.2695V98H37.0254V97.4189ZM43.5391 98H42.6211V95.5439H40.1504V98H39.2324V92.5459H40.1504V94.7529H42.6211V92.5459H43.5391V98ZM52.2988 98H51.3809V95.5439H48.9102V98H47.9922V92.5459H48.9102V94.7529H51.3809V92.5459H52.2988V98ZM56.6738 96.6572V95.1436C56.4557 95.1631 56.179 95.1908 55.8438 95.2266C55.5117 95.2591 55.2432 95.3063 55.0381 95.3682C54.7939 95.443 54.5921 95.5586 54.4326 95.7148C54.2731 95.8678 54.1934 96.0827 54.1934 96.3594C54.1934 96.6719 54.2812 96.9079 54.457 97.0674C54.6328 97.2269 54.89 97.3066 55.2285 97.3066C55.5182 97.3066 55.7803 97.2448 56.0146 97.1211C56.249 96.9941 56.4688 96.8395 56.6738 96.6572ZM56.6738 97.4189C56.599 97.4743 56.498 97.5524 56.3711 97.6533C56.2474 97.751 56.127 97.8291 56.0098 97.8877C55.847 97.9723 55.6891 98.0374 55.5361 98.083C55.3864 98.1286 55.1748 98.1514 54.9014 98.1514C54.6768 98.1514 54.4635 98.109 54.2617 98.0244C54.0599 97.9398 53.8825 97.821 53.7295 97.668C53.583 97.5182 53.4658 97.3343 53.3779 97.1162C53.29 96.8949 53.2461 96.6621 53.2461 96.418C53.2461 96.0404 53.3258 95.7197 53.4854 95.4561C53.6449 95.1891 53.8971 94.9775 54.2422 94.8213C54.5482 94.6813 54.9095 94.5853 55.3262 94.5332C55.7428 94.4779 56.1921 94.4372 56.6738 94.4111V94.2354C56.6738 94.0205 56.6413 93.848 56.5762 93.7178C56.5111 93.5843 56.4199 93.4818 56.3027 93.4102C56.1855 93.3353 56.0423 93.2865 55.873 93.2637C55.7038 93.2376 55.5296 93.2246 55.3506 93.2246C55.139 93.2246 54.89 93.2572 54.6035 93.3223C54.3171 93.3841 54.0306 93.4753 53.7441 93.5957H53.6904V92.6631C53.8597 92.6143 54.1022 92.5605 54.418 92.502C54.7337 92.4434 55.0462 92.4141 55.3555 92.4141C55.7298 92.4141 56.0456 92.4434 56.3027 92.502C56.5599 92.5605 56.791 92.6663 56.9961 92.8193C57.1947 92.9691 57.3428 93.1628 57.4404 93.4004C57.5381 93.638 57.5869 93.9277 57.5869 94.2695V98H56.6738V97.4189ZM64.1738 98.1221C63.7995 98.1221 63.4561 98.0651 63.1436 97.9512C62.8311 97.834 62.5625 97.6582 62.3379 97.4238C62.1133 97.1895 61.9391 96.8949 61.8154 96.54C61.6917 96.182 61.6299 95.762 61.6299 95.2803C61.6299 94.8018 61.6934 94.3883 61.8203 94.04C61.9505 93.6917 62.123 93.3988 62.3379 93.1611C62.5527 92.9235 62.8197 92.7412 63.1387 92.6143C63.4609 92.484 63.806 92.4189 64.1738 92.4189C64.4733 92.4189 64.7614 92.4613 65.0381 92.5459C65.318 92.6305 65.5671 92.7282 65.7852 92.8389V93.8691H65.7314C65.6663 93.8138 65.5817 93.7503 65.4775 93.6787C65.3766 93.6071 65.2529 93.5339 65.1064 93.459C64.9795 93.3939 64.8298 93.3369 64.6572 93.2881C64.4847 93.2393 64.3187 93.2148 64.1592 93.2148C63.6839 93.2148 63.3014 93.3955 63.0117 93.7568C62.7253 94.1149 62.582 94.6227 62.582 95.2803C62.582 95.9248 62.7204 96.4277 62.9971 96.7891C63.277 97.1471 63.6644 97.3262 64.1592 97.3262C64.4587 97.3262 64.7435 97.2643 65.0137 97.1406C65.2839 97.0169 65.5231 96.8574 65.7314 96.6621H65.7852V97.6924C65.694 97.7347 65.5801 97.7868 65.4434 97.8486C65.3066 97.9072 65.1829 97.9512 65.0723 97.9805C64.916 98.026 64.776 98.0602 64.6523 98.083C64.5286 98.109 64.3691 98.1221 64.1738 98.1221ZM70.8486 98H69.9307V93.3174H68.0557C68.0459 93.5876 68.0361 93.848 68.0264 94.0986C68.0166 94.346 68.0068 94.5706 67.9971 94.7725C67.9775 95.2835 67.9434 95.7116 67.8945 96.0566C67.849 96.4017 67.7904 96.6784 67.7188 96.8867C67.6471 97.1016 67.5674 97.2692 67.4795 97.3896C67.3949 97.5101 67.2988 97.6191 67.1914 97.7168C67.0807 97.8145 66.9619 97.8877 66.835 97.9365C66.708 97.9854 66.5648 98.0098 66.4053 98.0098C66.3532 98.0098 66.2865 98.0081 66.2051 98.0049C66.1237 98.0016 66.0667 98 66.0342 98V97.1992H66.083C66.1058 97.1992 66.1286 97.2008 66.1514 97.2041C66.1774 97.2074 66.2067 97.209 66.2393 97.209C66.3174 97.209 66.3939 97.1976 66.4688 97.1748C66.5436 97.152 66.6104 97.1097 66.6689 97.0479C66.8317 96.8883 66.9505 96.61 67.0254 96.2129C67.1003 95.8125 67.154 95.2542 67.1865 94.5381C67.1995 94.2712 67.2109 93.9554 67.2207 93.5908C67.2337 93.2262 67.2451 92.8779 67.2549 92.5459H70.8486V98ZM74.5498 98.127C73.6807 98.127 73.0052 97.8828 72.5234 97.3945C72.0449 96.903 71.8057 96.2064 71.8057 95.3047C71.8057 94.416 72.0384 93.7096 72.5039 93.1855C72.9694 92.6582 73.5781 92.3945 74.3301 92.3945C74.6686 92.3945 74.9681 92.4434 75.2285 92.541C75.4889 92.6387 75.7168 92.7917 75.9121 93C76.1074 93.2083 76.2572 93.4639 76.3613 93.7666C76.4655 94.0661 76.5176 94.4339 76.5176 94.8701V95.3682H72.7383C72.7383 96.0029 72.8978 96.488 73.2168 96.8232C73.5358 97.1585 73.9769 97.3262 74.54 97.3262C74.7419 97.3262 74.9388 97.3034 75.1309 97.2578C75.3262 97.2122 75.502 97.1536 75.6582 97.082C75.8242 97.0072 75.9642 96.9355 76.0781 96.8672C76.1921 96.7956 76.2865 96.7288 76.3613 96.667H76.415V97.668C76.3076 97.7103 76.1742 97.764 76.0146 97.8291C75.8551 97.891 75.7119 97.9398 75.585 97.9756C75.4059 98.0244 75.2432 98.0618 75.0967 98.0879C74.9535 98.1139 74.7712 98.127 74.5498 98.127ZM75.624 94.665C75.6175 94.4176 75.5882 94.2044 75.5361 94.0254C75.484 93.8464 75.4092 93.695 75.3115 93.5713C75.2041 93.4346 75.0658 93.3304 74.8965 93.2588C74.7305 93.1872 74.5238 93.1514 74.2764 93.1514C74.0322 93.1514 73.8239 93.1888 73.6514 93.2637C73.4821 93.3353 73.3275 93.4411 73.1875 93.5811C73.0508 93.7243 72.9466 93.8838 72.875 94.0596C72.8034 94.2321 72.7578 94.4339 72.7383 94.665H75.624ZM82.123 99.3086H81.2686V97.9854H77.6748V99.3086H76.8203V97.2188H77.1816C77.4909 96.7109 77.7432 96.0485 77.9385 95.2314C78.137 94.4111 78.2363 93.516 78.2363 92.5459H81.5811V97.2188H82.123V99.3086ZM80.6631 97.2188V93.3174H79.1006C79.0583 94.1312 78.946 94.875 78.7637 95.5488C78.5846 96.2194 78.3584 96.776 78.085 97.2188H80.6631ZM87.3184 92.5459L84.3838 100.012H83.4023L84.3789 97.7363L82.3965 92.5459H83.3877L84.877 96.584L86.3613 92.5459H87.3184ZM94.6865 95.2754C94.6865 96.1901 94.4652 96.8981 94.0225 97.3994C93.583 97.9007 93.0003 98.1514 92.2744 98.1514C91.5615 98.1514 90.9951 97.917 90.5752 97.4482C90.1585 96.9762 89.9307 96.3333 89.8916 95.5195H88.9297V98H88.0117V92.5459H88.9297V94.7676H89.9111C89.986 94.0254 90.2334 93.4443 90.6533 93.0244C91.0732 92.6045 91.6136 92.3945 92.2744 92.3945C93.0394 92.3945 93.6318 92.6549 94.0518 93.1758C94.4749 93.6966 94.6865 94.3965 94.6865 95.2754ZM93.7393 95.2754C93.7393 94.5788 93.6107 94.0563 93.3535 93.708C93.0996 93.3597 92.7399 93.1855 92.2744 93.1855C91.8024 93.1855 91.4378 93.3613 91.1807 93.7129C90.9268 94.0645 90.7998 94.5853 90.7998 95.2754C90.7998 95.959 90.9284 96.4782 91.1855 96.833C91.4427 97.1846 91.8057 97.3604 92.2744 97.3604C92.7399 97.3604 93.0996 97.1895 93.3535 96.8477C93.6107 96.5026 93.7393 95.9785 93.7393 95.2754ZM102.626 99.3086H101.771V98H95.6289V92.5459H96.5469V97.2236H98.3975V92.5459H99.3154V97.2236H101.166V92.5459H102.084V97.2236H102.626V99.3086ZM107.836 98H106.928V93.9326L104.359 98H103.529V92.5459H104.438V96.5498L106.977 92.5459H107.836V98ZM113.471 98H112.562V93.9326L109.994 98H109.164V92.5459H110.072V96.5498L112.611 92.5459H113.471V98ZM113.061 90.0117C113.061 90.2917 113.026 90.5472 112.958 90.7783C112.89 91.0062 112.792 91.1982 112.665 91.3545C112.519 91.527 112.353 91.6572 112.167 91.7451C111.981 91.8298 111.744 91.8721 111.454 91.8721C111.187 91.8721 110.953 91.8281 110.751 91.7402C110.552 91.6491 110.385 91.5205 110.248 91.3545C110.115 91.1917 110.014 90.9964 109.945 90.7686C109.877 90.5407 109.843 90.2884 109.843 90.0117H110.634C110.634 90.4512 110.702 90.7686 110.839 90.9639C110.976 91.1559 111.181 91.252 111.454 91.252C111.711 91.252 111.911 91.1576 112.055 90.9688C112.198 90.7767 112.27 90.4577 112.27 90.0117H113.061ZM122.025 98H121.107V95.8711C120.821 95.9655 120.543 96.0387 120.272 96.0908C120.002 96.1429 119.735 96.1689 119.472 96.1689C119.241 96.1689 119.014 96.1396 118.793 96.0811C118.575 96.0192 118.386 95.9199 118.227 95.7832C118.067 95.6465 117.943 95.4723 117.855 95.2607C117.771 95.0459 117.729 94.7936 117.729 94.5039V92.5459H118.646V94.0254C118.646 94.2663 118.656 94.4583 118.676 94.6016C118.695 94.7415 118.749 94.8783 118.837 95.0117C118.912 95.1257 119.024 95.2135 119.174 95.2754C119.327 95.3372 119.527 95.3682 119.774 95.3682C119.989 95.3682 120.219 95.347 120.463 95.3047C120.71 95.2624 120.925 95.2119 121.107 95.1533V92.5459H122.025V98ZM126.4 96.6572V95.1436C126.182 95.1631 125.906 95.1908 125.57 95.2266C125.238 95.2591 124.97 95.3063 124.765 95.3682C124.521 95.443 124.319 95.5586 124.159 95.7148C124 95.8678 123.92 96.0827 123.92 96.3594C123.92 96.6719 124.008 96.9079 124.184 97.0674C124.359 97.2269 124.617 97.3066 124.955 97.3066C125.245 97.3066 125.507 97.2448 125.741 97.1211C125.976 96.9941 126.195 96.8395 126.4 96.6572ZM126.4 97.4189C126.326 97.4743 126.225 97.5524 126.098 97.6533C125.974 97.751 125.854 97.8291 125.736 97.8877C125.574 97.9723 125.416 98.0374 125.263 98.083C125.113 98.1286 124.901 98.1514 124.628 98.1514C124.403 98.1514 124.19 98.109 123.988 98.0244C123.786 97.9398 123.609 97.821 123.456 97.668C123.31 97.5182 123.192 97.3343 123.104 97.1162C123.017 96.8949 122.973 96.6621 122.973 96.418C122.973 96.0404 123.052 95.7197 123.212 95.4561C123.371 95.1891 123.624 94.9775 123.969 94.8213C124.275 94.6813 124.636 94.5853 125.053 94.5332C125.469 94.4779 125.919 94.4372 126.4 94.4111V94.2354C126.4 94.0205 126.368 93.848 126.303 93.7178C126.238 93.5843 126.146 93.4818 126.029 93.4102C125.912 93.3353 125.769 93.2865 125.6 93.2637C125.43 93.2376 125.256 93.2246 125.077 93.2246C124.866 93.2246 124.617 93.2572 124.33 93.3223C124.044 93.3841 123.757 93.4753 123.471 93.5957H123.417V92.6631C123.586 92.6143 123.829 92.5605 124.145 92.502C124.46 92.4434 124.773 92.4141 125.082 92.4141C125.456 92.4141 125.772 92.4434 126.029 92.502C126.286 92.5605 126.518 92.6663 126.723 92.8193C126.921 92.9691 127.069 93.1628 127.167 93.4004C127.265 93.638 127.313 93.9277 127.313 94.2695V98H126.4V97.4189ZM130.775 98.1221C130.401 98.1221 130.058 98.0651 129.745 97.9512C129.433 97.834 129.164 97.6582 128.939 97.4238C128.715 97.1895 128.541 96.8949 128.417 96.54C128.293 96.182 128.231 95.762 128.231 95.2803C128.231 94.8018 128.295 94.3883 128.422 94.04C128.552 93.6917 128.725 93.3988 128.939 93.1611C129.154 92.9235 129.421 92.7412 129.74 92.6143C130.062 92.484 130.408 92.4189 130.775 92.4189C131.075 92.4189 131.363 92.4613 131.64 92.5459C131.92 92.6305 132.169 92.7282 132.387 92.8389V93.8691H132.333C132.268 93.8138 132.183 93.7503 132.079 93.6787C131.978 93.6071 131.854 93.5339 131.708 93.459C131.581 93.3939 131.431 93.3369 131.259 93.2881C131.086 93.2393 130.92 93.2148 130.761 93.2148C130.285 93.2148 129.903 93.3955 129.613 93.7568C129.327 94.1149 129.184 94.6227 129.184 95.2803C129.184 95.9248 129.322 96.4277 129.599 96.7891C129.879 97.1471 130.266 97.3262 130.761 97.3262C131.06 97.3262 131.345 97.2643 131.615 97.1406C131.885 97.0169 132.125 96.8574 132.333 96.6621H132.387V97.6924C132.296 97.7347 132.182 97.7868 132.045 97.8486C131.908 97.9072 131.785 97.9512 131.674 97.9805C131.518 98.026 131.378 98.0602 131.254 98.083C131.13 98.109 130.971 98.1221 130.775 98.1221Z" fill="#8A98B3"/>
<rect x="5" y="84" width="2" height="21" fill="#5C6585"/>
<path d="M267.648 24H264.104V23.2578H265.422V18.3848H264.104V17.7207C264.602 17.7207 264.968 17.6507 265.202 17.5107C265.44 17.3675 265.573 17.099 265.603 16.7051H266.359V23.2578H267.648V24ZM273.107 24H269.562V23.2578H270.881V18.3848H269.562V17.7207C270.061 17.7207 270.427 17.6507 270.661 17.5107C270.899 17.3675 271.032 17.099 271.062 16.7051H271.818V23.2578H273.107V24ZM282.097 20.3623C282.097 21.6676 281.906 22.6263 281.525 23.2383C281.148 23.847 280.563 24.1514 279.772 24.1514C278.972 24.1514 278.384 23.8405 278.01 23.2188C277.635 22.597 277.448 21.6481 277.448 20.3721C277.448 19.0602 277.637 18.1016 278.015 17.4961C278.396 16.8874 278.981 16.583 279.772 16.583C280.573 16.583 281.161 16.8971 281.535 17.5254C281.91 18.1536 282.097 19.0993 282.097 20.3623ZM280.847 22.5791C280.941 22.3382 281.008 22.0339 281.047 21.666C281.086 21.2982 281.105 20.8636 281.105 20.3623C281.105 19.8643 281.086 19.4313 281.047 19.0635C281.008 18.6956 280.939 18.3896 280.842 18.1455C280.744 17.8981 280.609 17.7109 280.437 17.584C280.267 17.4538 280.046 17.3887 279.772 17.3887C279.502 17.3887 279.279 17.4538 279.104 17.584C278.931 17.7109 278.794 17.9014 278.693 18.1553C278.596 18.4027 278.529 18.7152 278.493 19.0928C278.457 19.4704 278.439 19.8968 278.439 20.3721C278.439 20.8799 278.454 21.3047 278.483 21.6465C278.516 21.9883 278.584 22.2943 278.688 22.5645C278.783 22.8151 278.916 23.0088 279.089 23.1455C279.265 23.279 279.493 23.3457 279.772 23.3457C280.043 23.3457 280.264 23.2822 280.437 23.1553C280.612 23.0251 280.749 22.833 280.847 22.5791ZM287.556 20.3623C287.556 21.6676 287.365 22.6263 286.984 23.2383C286.607 23.847 286.022 24.1514 285.231 24.1514C284.431 24.1514 283.843 23.8405 283.469 23.2188C283.094 22.597 282.907 21.6481 282.907 20.3721C282.907 19.0602 283.096 18.1016 283.474 17.4961C283.854 16.8874 284.44 16.583 285.231 16.583C286.032 16.583 286.62 16.8971 286.994 17.5254C287.368 18.1536 287.556 19.0993 287.556 20.3623ZM286.306 22.5791C286.4 22.3382 286.467 22.0339 286.506 21.666C286.545 21.2982 286.564 20.8636 286.564 20.3623C286.564 19.8643 286.545 19.4313 286.506 19.0635C286.467 18.6956 286.398 18.3896 286.301 18.1455C286.203 17.8981 286.068 17.7109 285.896 17.584C285.726 17.4538 285.505 17.3887 285.231 17.3887C284.961 17.3887 284.738 17.4538 284.562 17.584C284.39 17.7109 284.253 17.9014 284.152 18.1553C284.055 18.4027 283.988 18.7152 283.952 19.0928C283.916 19.4704 283.898 19.8968 283.898 20.3721C283.898 20.8799 283.913 21.3047 283.942 21.6465C283.975 21.9883 284.043 22.2943 284.147 22.5645C284.242 22.8151 284.375 23.0088 284.548 23.1455C284.724 23.279 284.951 23.3457 285.231 23.3457C285.502 23.3457 285.723 23.2822 285.896 23.1553C286.071 23.0251 286.208 22.833 286.306 22.5791ZM293.015 20.3623C293.015 21.6676 292.824 22.6263 292.443 23.2383C292.066 23.847 291.481 24.1514 290.69 24.1514C289.89 24.1514 289.302 23.8405 288.928 23.2188C288.553 22.597 288.366 21.6481 288.366 20.3721C288.366 19.0602 288.555 18.1016 288.933 17.4961C289.313 16.8874 289.899 16.583 290.69 16.583C291.491 16.583 292.079 16.8971 292.453 17.5254C292.827 18.1536 293.015 19.0993 293.015 20.3623ZM291.765 22.5791C291.859 22.3382 291.926 22.0339 291.965 21.666C292.004 21.2982 292.023 20.8636 292.023 20.3623C292.023 19.8643 292.004 19.4313 291.965 19.0635C291.926 18.6956 291.857 18.3896 291.76 18.1455C291.662 17.8981 291.527 17.7109 291.354 17.584C291.185 17.4538 290.964 17.3887 290.69 17.3887C290.42 17.3887 290.197 17.4538 290.021 17.584C289.849 17.7109 289.712 17.9014 289.611 18.1553C289.514 18.4027 289.447 18.7152 289.411 19.0928C289.375 19.4704 289.357 19.8968 289.357 20.3721C289.357 20.8799 289.372 21.3047 289.401 21.6465C289.434 21.9883 289.502 22.2943 289.606 22.5645C289.701 22.8151 289.834 23.0088 290.007 23.1455C290.183 23.279 290.41 23.3457 290.69 23.3457C290.961 23.3457 291.182 23.2822 291.354 23.1553C291.53 23.0251 291.667 22.833 291.765 22.5791Z" fill="white"/>
<path d="M267.648 49H264.104V48.2578H265.422V43.3848H264.104V42.7207C264.602 42.7207 264.968 42.6507 265.202 42.5107C265.44 42.3675 265.573 42.099 265.603 41.7051H266.359V48.2578H267.648V49ZM273.513 45.3623C273.513 46.6676 273.322 47.6263 272.941 48.2383C272.564 48.847 271.979 49.1514 271.188 49.1514C270.388 49.1514 269.8 48.8405 269.426 48.2188C269.051 47.597 268.864 46.6481 268.864 45.3721C268.864 44.0602 269.053 43.1016 269.431 42.4961C269.812 41.8874 270.397 41.583 271.188 41.583C271.989 41.583 272.577 41.8971 272.951 42.5254C273.326 43.1536 273.513 44.0993 273.513 45.3623ZM272.263 47.5791C272.357 47.3382 272.424 47.0339 272.463 46.666C272.502 46.2982 272.521 45.8636 272.521 45.3623C272.521 44.8643 272.502 44.4313 272.463 44.0635C272.424 43.6956 272.355 43.3896 272.258 43.1455C272.16 42.8981 272.025 42.7109 271.853 42.584C271.683 42.4538 271.462 42.3887 271.188 42.3887C270.918 42.3887 270.695 42.4538 270.52 42.584C270.347 42.7109 270.21 42.9014 270.109 43.1553C270.012 43.4027 269.945 43.7152 269.909 44.0928C269.873 44.4704 269.855 44.8968 269.855 45.3721C269.855 45.8799 269.87 46.3047 269.899 46.6465C269.932 46.9883 270 47.2943 270.104 47.5645C270.199 47.8151 270.332 48.0088 270.505 48.1455C270.681 48.279 270.909 48.3457 271.188 48.3457C271.459 48.3457 271.68 48.2822 271.853 48.1553C272.028 48.0251 272.165 47.833 272.263 47.5791ZM282.097 45.3623C282.097 46.6676 281.906 47.6263 281.525 48.2383C281.148 48.847 280.563 49.1514 279.772 49.1514C278.972 49.1514 278.384 48.8405 278.01 48.2188C277.635 47.597 277.448 46.6481 277.448 45.3721C277.448 44.0602 277.637 43.1016 278.015 42.4961C278.396 41.8874 278.981 41.583 279.772 41.583C280.573 41.583 281.161 41.8971 281.535 42.5254C281.91 43.1536 282.097 44.0993 282.097 45.3623ZM280.847 47.5791C280.941 47.3382 281.008 47.0339 281.047 46.666C281.086 46.2982 281.105 45.8636 281.105 45.3623C281.105 44.8643 281.086 44.4313 281.047 44.0635C281.008 43.6956 280.939 43.3896 280.842 43.1455C280.744 42.8981 280.609 42.7109 280.437 42.584C280.267 42.4538 280.046 42.3887 279.772 42.3887C279.502 42.3887 279.279 42.4538 279.104 42.584C278.931 42.7109 278.794 42.9014 278.693 43.1553C278.596 43.4027 278.529 43.7152 278.493 44.0928C278.457 44.4704 278.439 44.8968 278.439 45.3721C278.439 45.8799 278.454 46.3047 278.483 46.6465C278.516 46.9883 278.584 47.2943 278.688 47.5645C278.783 47.8151 278.916 48.0088 279.089 48.1455C279.265 48.279 279.493 48.3457 279.772 48.3457C280.043 48.3457 280.264 48.2822 280.437 48.1553C280.612 48.0251 280.749 47.833 280.847 47.5791ZM287.556 45.3623C287.556 46.6676 287.365 47.6263 286.984 48.2383C286.607 48.847 286.022 49.1514 285.231 49.1514C284.431 49.1514 283.843 48.8405 283.469 48.2188C283.094 47.597 282.907 46.6481 282.907 45.3721C282.907 44.0602 283.096 43.1016 283.474 42.4961C283.854 41.8874 284.44 41.583 285.231 41.583C286.032 41.583 286.62 41.8971 286.994 42.5254C287.368 43.1536 287.556 44.0993 287.556 45.3623ZM286.306 47.5791C286.4 47.3382 286.467 47.0339 286.506 46.666C286.545 46.2982 286.564 45.8636 286.564 45.3623C286.564 44.8643 286.545 44.4313 286.506 44.0635C286.467 43.6956 286.398 43.3896 286.301 43.1455C286.203 42.8981 286.068 42.7109 285.896 42.584C285.726 42.4538 285.505 42.3887 285.231 42.3887C284.961 42.3887 284.738 42.4538 284.562 42.584C284.39 42.7109 284.253 42.9014 284.152 43.1553C284.055 43.4027 283.988 43.7152 283.952 44.0928C283.916 44.4704 283.898 44.8968 283.898 45.3721C283.898 45.8799 283.913 46.3047 283.942 46.6465C283.975 46.9883 284.043 47.2943 284.147 47.5645C284.242 47.8151 284.375 48.0088 284.548 48.1455C284.724 48.279 284.951 48.3457 285.231 48.3457C285.502 48.3457 285.723 48.2822 285.896 48.1553C286.071 48.0251 286.208 47.833 286.306 47.5791ZM293.015 45.3623C293.015 46.6676 292.824 47.6263 292.443 48.2383C292.066 48.847 291.481 49.1514 290.69 49.1514C289.89 49.1514 289.302 48.8405 288.928 48.2188C288.553 47.597 288.366 46.6481 288.366 45.3721C288.366 44.0602 288.555 43.1016 288.933 42.4961C289.313 41.8874 289.899 41.583 290.69 41.583C291.491 41.583 292.079 41.8971 292.453 42.5254C292.827 43.1536 293.015 44.0993 293.015 45.3623ZM291.765 47.5791C291.859 47.3382 291.926 47.0339 291.965 46.666C292.004 46.2982 292.023 45.8636 292.023 45.3623C292.023 44.8643 292.004 44.4313 291.965 44.0635C291.926 43.6956 291.857 43.3896 291.76 43.1455C291.662 42.8981 291.527 42.7109 291.354 42.584C291.185 42.4538 290.964 42.3887 290.69 42.3887C290.42 42.3887 290.197 42.4538 290.021 42.584C289.849 42.7109 289.712 42.9014 289.611 43.1553C289.514 43.4027 289.447 43.7152 289.411 44.0928C289.375 44.4704 289.357 44.8968 289.357 45.3721C289.357 45.8799 289.372 46.3047 289.401 46.6465C289.434 46.9883 289.502 47.2943 289.606 47.5645C289.701 47.8151 289.834 48.0088 290.007 48.1455C290.183 48.279 290.41 48.3457 290.69 48.3457C290.961 48.3457 291.182 48.2822 291.354 48.1553C291.53 48.0251 291.667 47.833 291.765 47.5791Z" fill="white"/>
<path d="M267.648 97H264.104V96.2578H265.422V91.3848H264.104V90.7207C264.602 90.7207 264.968 90.6507 265.202 90.5107C265.44 90.3675 265.573 90.099 265.603 89.7051H266.359V96.2578H267.648V97ZM273.479 97H268.991V95.9795C269.313 95.6735 269.618 95.3805 269.904 95.1006C270.191 94.8206 270.471 94.5293 270.744 94.2266C271.298 93.6178 271.675 93.1312 271.877 92.7666C272.079 92.3988 272.18 92.0195 272.18 91.6289C272.18 91.4271 272.147 91.2497 272.082 91.0967C272.02 90.9437 271.934 90.8167 271.823 90.7158C271.709 90.6182 271.577 90.5449 271.428 90.4961C271.278 90.4473 271.114 90.4229 270.935 90.4229C270.762 90.4229 270.586 90.4456 270.407 90.4912C270.231 90.5335 270.062 90.5872 269.899 90.6523C269.763 90.7077 269.631 90.7744 269.504 90.8525C269.377 90.9307 269.274 90.9974 269.196 91.0527H269.143V90.0176C269.344 89.9167 269.624 89.819 269.982 89.7246C270.344 89.627 270.686 89.5781 271.008 89.5781C271.685 89.5781 272.215 89.7588 272.6 90.1201C272.984 90.4782 273.176 90.9648 273.176 91.5801C273.176 91.8633 273.142 92.1253 273.073 92.3662C273.008 92.6071 272.917 92.8301 272.8 93.0352C272.679 93.2467 272.535 93.4567 272.365 93.665C272.196 93.8734 272.017 94.0785 271.828 94.2803C271.522 94.6123 271.18 94.9574 270.803 95.3154C270.428 95.6735 270.129 95.9567 269.904 96.165H273.479V97ZM282.097 93.3623C282.097 94.6676 281.906 95.6263 281.525 96.2383C281.148 96.847 280.563 97.1514 279.772 97.1514C278.972 97.1514 278.384 96.8405 278.01 96.2188C277.635 95.597 277.448 94.6481 277.448 93.3721C277.448 92.0602 277.637 91.1016 278.015 90.4961C278.396 89.8874 278.981 89.583 279.772 89.583C280.573 89.583 281.161 89.8971 281.535 90.5254C281.91 91.1536 282.097 92.0993 282.097 93.3623ZM280.847 95.5791C280.941 95.3382 281.008 95.0339 281.047 94.666C281.086 94.2982 281.105 93.8636 281.105 93.3623C281.105 92.8643 281.086 92.4313 281.047 92.0635C281.008 91.6956 280.939 91.3896 280.842 91.1455C280.744 90.8981 280.609 90.7109 280.437 90.584C280.267 90.4538 280.046 90.3887 279.772 90.3887C279.502 90.3887 279.279 90.4538 279.104 90.584C278.931 90.7109 278.794 90.9014 278.693 91.1553C278.596 91.4027 278.529 91.7152 278.493 92.0928C278.457 92.4704 278.439 92.8968 278.439 93.3721C278.439 93.8799 278.454 94.3047 278.483 94.6465C278.516 94.9883 278.584 95.2943 278.688 95.5645C278.783 95.8151 278.916 96.0088 279.089 96.1455C279.265 96.279 279.493 96.3457 279.772 96.3457C280.043 96.3457 280.264 96.2822 280.437 96.1553C280.612 96.0251 280.749 95.833 280.847 95.5791ZM287.556 93.3623C287.556 94.6676 287.365 95.6263 286.984 96.2383C286.607 96.847 286.022 97.1514 285.231 97.1514C284.431 97.1514 283.843 96.8405 283.469 96.2188C283.094 95.597 282.907 94.6481 282.907 93.3721C282.907 92.0602 283.096 91.1016 283.474 90.4961C283.854 89.8874 284.44 89.583 285.231 89.583C286.032 89.583 286.62 89.8971 286.994 90.5254C287.368 91.1536 287.556 92.0993 287.556 93.3623ZM286.306 95.5791C286.4 95.3382 286.467 95.0339 286.506 94.666C286.545 94.2982 286.564 93.8636 286.564 93.3623C286.564 92.8643 286.545 92.4313 286.506 92.0635C286.467 91.6956 286.398 91.3896 286.301 91.1455C286.203 90.8981 286.068 90.7109 285.896 90.584C285.726 90.4538 285.505 90.3887 285.231 90.3887C284.961 90.3887 284.738 90.4538 284.562 90.584C284.39 90.7109 284.253 90.9014 284.152 91.1553C284.055 91.4027 283.988 91.7152 283.952 92.0928C283.916 92.4704 283.898 92.8968 283.898 93.3721C283.898 93.8799 283.913 94.3047 283.942 94.6465C283.975 94.9883 284.043 95.2943 284.147 95.5645C284.242 95.8151 284.375 96.0088 284.548 96.1455C284.724 96.279 284.951 96.3457 285.231 96.3457C285.502 96.3457 285.723 96.2822 285.896 96.1553C286.071 96.0251 286.208 95.833 286.306 95.5791ZM293.015 93.3623C293.015 94.6676 292.824 95.6263 292.443 96.2383C292.066 96.847 291.481 97.1514 290.69 97.1514C289.89 97.1514 289.302 96.8405 288.928 96.2188C288.553 95.597 288.366 94.6481 288.366 93.3721C288.366 92.0602 288.555 91.1016 288.933 90.4961C289.313 89.8874 289.899 89.583 290.69 89.583C291.491 89.583 292.079 89.8971 292.453 90.5254C292.827 91.1536 293.015 92.0993 293.015 93.3623ZM291.765 95.5791C291.859 95.3382 291.926 95.0339 291.965 94.666C292.004 94.2982 292.023 93.8636 292.023 93.3623C292.023 92.8643 292.004 92.4313 291.965 92.0635C291.926 91.6956 291.857 91.3896 291.76 91.1455C291.662 90.8981 291.527 90.7109 291.354 90.584C291.185 90.4538 290.964 90.3887 290.69 90.3887C290.42 90.3887 290.197 90.4538 290.021 90.584C289.849 90.7109 289.712 90.9014 289.611 91.1553C289.514 91.4027 289.447 91.7152 289.411 92.0928C289.375 92.4704 289.357 92.8968 289.357 93.3721C289.357 93.8799 289.372 94.3047 289.401 94.6465C289.434 94.9883 289.502 95.2943 289.606 95.5645C289.701 95.8151 289.834 96.0088 290.007 96.1455C290.183 96.279 290.41 96.3457 290.69 96.3457C290.961 96.3457 291.182 96.2822 291.354 96.1553C291.53 96.0251 291.667 95.833 291.765 95.5791Z" fill="white"/>
<path d="M267.648 73H264.104V72.2578H265.422V67.3848H264.104V66.7207C264.602 66.7207 264.968 66.6507 265.202 66.5107C265.44 66.3675 265.573 66.099 265.603 65.7051H266.359V72.2578H267.648V73ZM276.638 69.3623C276.638 70.6676 276.447 71.6263 276.066 72.2383C275.689 72.847 275.104 73.1514 274.313 73.1514C273.513 73.1514 272.925 72.8405 272.551 72.2188C272.176 71.597 271.989 70.6481 271.989 69.3721C271.989 68.0602 272.178 67.1016 272.556 66.4961C272.937 65.8874 273.522 65.583 274.313 65.583C275.114 65.583 275.702 65.8971 276.076 66.5254C276.451 67.1536 276.638 68.0993 276.638 69.3623ZM275.388 71.5791C275.482 71.3382 275.549 71.0339 275.588 70.666C275.627 70.2982 275.646 69.8636 275.646 69.3623C275.646 68.8643 275.627 68.4313 275.588 68.0635C275.549 67.6956 275.48 67.3896 275.383 67.1455C275.285 66.8981 275.15 66.7109 274.978 66.584C274.808 66.4538 274.587 66.3887 274.313 66.3887C274.043 66.3887 273.82 66.4538 273.645 66.584C273.472 66.7109 273.335 66.9014 273.234 67.1553C273.137 67.4027 273.07 67.7152 273.034 68.0928C272.998 68.4704 272.98 68.8968 272.98 69.3721C272.98 69.8799 272.995 70.3047 273.024 70.6465C273.057 70.9883 273.125 71.2943 273.229 71.5645C273.324 71.8151 273.457 72.0088 273.63 72.1455C273.806 72.279 274.034 72.3457 274.313 72.3457C274.584 72.3457 274.805 72.2822 274.978 72.1553C275.153 72.0251 275.29 71.833 275.388 71.5791ZM282.097 69.3623C282.097 70.6676 281.906 71.6263 281.525 72.2383C281.148 72.847 280.563 73.1514 279.772 73.1514C278.972 73.1514 278.384 72.8405 278.01 72.2188C277.635 71.597 277.448 70.6481 277.448 69.3721C277.448 68.0602 277.637 67.1016 278.015 66.4961C278.396 65.8874 278.981 65.583 279.772 65.583C280.573 65.583 281.161 65.8971 281.535 66.5254C281.91 67.1536 282.097 68.0993 282.097 69.3623ZM280.847 71.5791C280.941 71.3382 281.008 71.0339 281.047 70.666C281.086 70.2982 281.105 69.8636 281.105 69.3623C281.105 68.8643 281.086 68.4313 281.047 68.0635C281.008 67.6956 280.939 67.3896 280.842 67.1455C280.744 66.8981 280.609 66.7109 280.437 66.584C280.267 66.4538 280.046 66.3887 279.772 66.3887C279.502 66.3887 279.279 66.4538 279.104 66.584C278.931 66.7109 278.794 66.9014 278.693 67.1553C278.596 67.4027 278.529 67.7152 278.493 68.0928C278.457 68.4704 278.439 68.8968 278.439 69.3721C278.439 69.8799 278.454 70.3047 278.483 70.6465C278.516 70.9883 278.584 71.2943 278.688 71.5645C278.783 71.8151 278.916 72.0088 279.089 72.1455C279.265 72.279 279.493 72.3457 279.772 72.3457C280.043 72.3457 280.264 72.2822 280.437 72.1553C280.612 72.0251 280.749 71.833 280.847 71.5791ZM287.556 69.3623C287.556 70.6676 287.365 71.6263 286.984 72.2383C286.607 72.847 286.022 73.1514 285.231 73.1514C284.431 73.1514 283.843 72.8405 283.469 72.2188C283.094 71.597 282.907 70.6481 282.907 69.3721C282.907 68.0602 283.096 67.1016 283.474 66.4961C283.854 65.8874 284.44 65.583 285.231 65.583C286.032 65.583 286.62 65.8971 286.994 66.5254C287.368 67.1536 287.556 68.0993 287.556 69.3623ZM286.306 71.5791C286.4 71.3382 286.467 71.0339 286.506 70.666C286.545 70.2982 286.564 69.8636 286.564 69.3623C286.564 68.8643 286.545 68.4313 286.506 68.0635C286.467 67.6956 286.398 67.3896 286.301 67.1455C286.203 66.8981 286.068 66.7109 285.896 66.584C285.726 66.4538 285.505 66.3887 285.231 66.3887C284.961 66.3887 284.738 66.4538 284.562 66.584C284.39 66.7109 284.253 66.9014 284.152 67.1553C284.055 67.4027 283.988 67.7152 283.952 68.0928C283.916 68.4704 283.898 68.8968 283.898 69.3721C283.898 69.8799 283.913 70.3047 283.942 70.6465C283.975 70.9883 284.043 71.2943 284.147 71.5645C284.242 71.8151 284.375 72.0088 284.548 72.1455C284.724 72.279 284.951 72.3457 285.231 72.3457C285.502 72.3457 285.723 72.2822 285.896 72.1553C286.071 72.0251 286.208 71.833 286.306 71.5791Z" fill="white"/>
</g>
<defs>
<linearGradient id="paint0_linear" x1="5.02087" y1="20.5104" x2="65.0303" y2="20.5104" gradientUnits="userSpaceOnUse">
<stop stop-color="#5B607D"/>
<stop offset="0.838" stop-color="#5B607D" stop-opacity="0"/>
</linearGradient>
<linearGradient id="paint1_linear" x1="5.02087" y1="45.5104" x2="65.0303" y2="45.5104" gradientUnits="userSpaceOnUse">
<stop stop-color="#5B607D"/>
<stop offset="0.838" stop-color="#5B607D" stop-opacity="0"/>
</linearGradient>
<linearGradient id="paint2_linear" x1="5.02087" y1="69.5104" x2="65.0303" y2="69.5104" gradientUnits="userSpaceOnUse">
<stop stop-color="#5B607D"/>
<stop offset="0.838" stop-color="#5B607D" stop-opacity="0"/>
</linearGradient>
<linearGradient id="paint3_linear" x1="5.02087" y1="94.5104" x2="65.0303" y2="94.5104" gradientUnits="userSpaceOnUse">
<stop stop-color="#5B607D"/>
<stop offset="0.838" stop-color="#5B607D" stop-opacity="0"/>
</linearGradient>
<clipPath id="clip0">
<rect width="324" height="116.75" fill="white"/>
</clipPath>
</defs>
</svg>
