<svg xmlns="http://www.w3.org/2000/svg" xmlns:xlink="http://www.w3.org/1999/xlink" viewBox="0 0 324 118"><defs><style>.a2ab25cd-65bc-474b-99d0-c4e45ccc9c85,.b5f3b362-62dc-429b-aae3-3bb35347a356,.b843c086-b2aa-409d-b2e2-4858470ca65c{fill:none;}.a2ab25cd-65bc-474b-99d0-c4e45ccc9c85,.b5f3b362-62dc-429b-aae3-3bb35347a356{stroke:#616580;stroke-width:0.5px;}.a2506556-2e1c-411d-af14-14e8087eabc8,.a2ab25cd-65bc-474b-99d0-c4e45ccc9c85,.ab54c8d9-2a35-491d-99b0-add7a7410de7,.abeb9d02-1224-4d7f-a590-f28329ed545c,.ad286368-ead4-4530-ae6b-6437fb9bf6e1,.b5f3b362-62dc-429b-aae3-3bb35347a356,.bc2c9e8f-a760-443c-9d3b-cb3238fb4f37,.bdab223b-47d5-4c0d-a798-273e7cb2b9f2,.ee05230d-a0c5-4bcc-93d1-b96578f568c2,.f086b8e4-0a2a-4b7f-8afc-307c09e9bba6{stroke-miterlimit:10;}.a2ab25cd-65bc-474b-99d0-c4e45ccc9c85{stroke-dasharray:2;}.a332f0c4-5392-4c05-9347-49c679e0dc37{font-size:5.64px;}.a332f0c4-5392-4c05-9347-49c679e0dc37,.b3b64513-2e52-416d-b22e-95229191a723{fill:#8c99b2;}.a332f0c4-5392-4c05-9347-49c679e0dc37,.a4e83592-bb92-4334-b4c3-4cb3ae127777,.b81d9c0b-ad9f-455c-a9ce-10d08255eed8,.b999cf95-bf3f-4734-bd72-c8fbae5f5ec3{font-family:Tahoma;}.a4e83592-bb92-4334-b4c3-4cb3ae127777,.a525fe6d-ac4b-4976-871d-5793259d78aa{fill:#9ed7f5;}.ad0050f0-550d-4d1f-8d03-534e4bf1d388,.b81d9c0b-ad9f-455c-a9ce-10d08255eed8,.bece2fb8-dce7-4c2a-86ac-e39e0de594a0{fill:#fff;}.b180c618-3fbb-4e40-b509-b98d1a78f7b7,.b999cf95-bf3f-4734-bd72-c8fbae5f5ec3{fill:#f4a321;}.f85ce9d7-b63e-40fd-ab68-c75480e1cb60{fill:#0d1014;}.a2506556-2e1c-411d-af14-14e8087eabc8,.bdab223b-47d5-4c0d-a798-273e7cb2b9f2{stroke:#f4a321;}.a2506556-2e1c-411d-af14-14e8087eabc8{stroke-width:0.14px;fill:url(#e7a69c89-00ba-4718-8512-d1d6b42e2184);}.ab54c8d9-2a35-491d-99b0-add7a7410de7,.abeb9d02-1224-4d7f-a590-f28329ed545c,.bc2c9e8f-a760-443c-9d3b-cb3238fb4f37{stroke:#fff;}.bc2c9e8f-a760-443c-9d3b-cb3238fb4f37{stroke-width:0.47px;fill:url(#a3488409-074a-466b-8a7f-824dae284dad);}.ad286368-ead4-4530-ae6b-6437fb9bf6e1,.ee05230d-a0c5-4bcc-93d1-b96578f568c2,.f086b8e4-0a2a-4b7f-8afc-307c09e9bba6{stroke:#9ed7f5;stroke-width:0.5px;}.ad286368-ead4-4530-ae6b-6437fb9bf6e1{fill:url(#f8e24ac7-029b-44f6-baae-81f5a594e692);}.bdab223b-47d5-4c0d-a798-273e7cb2b9f2{stroke-width:0.19px;fill:url(#ff8fb9ed-d706-401b-be98-8bbddbb81283);}.abeb9d02-1224-4d7f-a590-f28329ed545c{stroke-width:0.44px;fill:url(#ba071edc-47a0-4d35-a698-813b21b82e89);}.f086b8e4-0a2a-4b7f-8afc-307c09e9bba6{fill:url(#a9ef6653-8d9b-4763-ac20-3708f72018f8);}.ab54c8d9-2a35-491d-99b0-add7a7410de7{stroke-width:0.5px;fill:url(#e874f17c-6a32-4379-b626-7fa0204128a8);}.ee05230d-a0c5-4bcc-93d1-b96578f568c2{fill:url(#ae54e8bf-6904-469d-9c74-6d70ef6e12da);}.a4e83592-bb92-4334-b4c3-4cb3ae127777,.b81d9c0b-ad9f-455c-a9ce-10d08255eed8,.b999cf95-bf3f-4734-bd72-c8fbae5f5ec3{font-size:7.32px;}.b81d9c0b-ad9f-455c-a9ce-10d08255eed8{opacity:0.9;}.a364cfdb-9d77-4806-8366-c8cc6b727ea5{opacity:0.18;}.fb288b71-00e5-4920-81d5-dae16c2fdca6{clip-path:url(#af3dea27-0fa2-496e-81b1-d353d0d24085);}.ed88ee9c-8389-4a5c-8d90-dbaed2b0696f{isolation:isolate;}.ade49c47-4d55-4766-83df-d650b165488c{clip-path:url(#ab096049-31a9-4887-9f39-50c2d5e0af66);}.bb366662-1b70-4de3-b29e-5f2a45ab5559{fill:#a2e2ff;opacity:0.05;}.bece2fb8-dce7-4c2a-86ac-e39e0de594a0{opacity:0.5;}.e8ea44e6-760c-4a40-bffc-fd6b0581617a{fill:#fbfeff;opacity:0.53;}</style><linearGradient id="e7a69c89-00ba-4718-8512-d1d6b42e2184" x1="87.33" y1="91.28" x2="87.33" y2="85.45" gradientUnits="userSpaceOnUse"><stop offset="0" stop-color="#f4a321" stop-opacity="0"/><stop offset="1" stop-color="#f4a321" stop-opacity="0.2"/></linearGradient><linearGradient id="a3488409-074a-466b-8a7f-824dae284dad" x1="53.25" y1="91.08" x2="53.25" y2="44.34" gradientUnits="userSpaceOnUse"><stop offset="0" stop-color="#fff" stop-opacity="0"/><stop offset="1" stop-color="#fff" stop-opacity="0.2"/></linearGradient><linearGradient id="f8e24ac7-029b-44f6-baae-81f5a594e692" x1="19.59" y1="91.08" x2="19.59" y2="38.61" gradientUnits="userSpaceOnUse"><stop offset="0" stop-color="#9ed7f5" stop-opacity="0"/><stop offset="1" stop-color="#9ed7f5" stop-opacity="0.2"/></linearGradient><linearGradient id="ff8fb9ed-d706-401b-be98-8bbddbb81283" x1="196.1" y1="91.28" x2="196.1" y2="81.32" xlink:href="#e7a69c89-00ba-4718-8512-d1d6b42e2184"/><linearGradient id="ba071edc-47a0-4d35-a698-813b21b82e89" x1="162.03" y1="91.08" x2="162.03" y2="49.97" xlink:href="#a3488409-074a-466b-8a7f-824dae284dad"/><linearGradient id="a9ef6653-8d9b-4763-ac20-3708f72018f8" x1="128.37" y1="91.08" x2="128.37" y2="38.61" xlink:href="#f8e24ac7-029b-44f6-baae-81f5a594e692"/><linearGradient id="e874f17c-6a32-4379-b626-7fa0204128a8" x1="270.8" y1="91.08" x2="270.8" y2="38.56" xlink:href="#a3488409-074a-466b-8a7f-824dae284dad"/><linearGradient id="ae54e8bf-6904-469d-9c74-6d70ef6e12da" x1="237.14" y1="91.08" x2="237.14" y2="38.61" xlink:href="#f8e24ac7-029b-44f6-baae-81f5a594e692"/><clipPath id="af3dea27-0fa2-496e-81b1-d353d0d24085"><ellipse class="b843c086-b2aa-409d-b2e2-4858470ca65c" cx="161.17" cy="187.94" rx="39.81" ry="39.98"/></clipPath><clipPath id="ab096049-31a9-4887-9f39-50c2d5e0af66"><polygon class="b843c086-b2aa-409d-b2e2-4858470ca65c" points="6.84 182.25 158.67 94.01 373.53 218.06 221.7 306.3 6.84 182.25"/></clipPath></defs><title>Prew</title><g id="a9dab8f2-18c4-4b8d-80cb-02d4f8415495" data-name="1"><line class="a2ab25cd-65bc-474b-99d0-c4e45ccc9c85" x1="7.44" y1="91.34" x2="99.06" y2="91.34"/><line class="a2ab25cd-65bc-474b-99d0-c4e45ccc9c85" x1="7.44" y1="38.64" x2="99.06" y2="38.64"/><text class="a332f0c4-5392-4c05-9347-49c679e0dc37" transform="translate(23.01 101.47)">Регулируемые клапаны</text><circle class="a525fe6d-ac4b-4976-871d-5793259d78aa" cx="7.71" cy="91.34" r="0.59"/><circle class="a525fe6d-ac4b-4976-871d-5793259d78aa" cx="31.36" cy="91.34" r="0.59"/><circle class="ad0050f0-550d-4d1f-8d03-534e4bf1d388" cx="41.69" cy="91.34" r="0.59"/><circle class="ad0050f0-550d-4d1f-8d03-534e4bf1d388" cx="65.34" cy="91.34" r="0.59"/><circle class="b180c618-3fbb-4e40-b509-b98d1a78f7b7" cx="75.68" cy="91.34" r="0.59"/><circle class="b180c618-3fbb-4e40-b509-b98d1a78f7b7" cx="99.05" cy="91.34" r="0.59"/><line class="a2ab25cd-65bc-474b-99d0-c4e45ccc9c85" x1="116.16" y1="91.34" x2="207.77" y2="91.34"/><line class="a2ab25cd-65bc-474b-99d0-c4e45ccc9c85" x1="116.16" y1="38.64" x2="207.77" y2="38.64"/><text class="a332f0c4-5392-4c05-9347-49c679e0dc37" transform="translate(133.74 101.47)">Отсекающие клапаны</text><circle class="a525fe6d-ac4b-4976-871d-5793259d78aa" cx="116.42" cy="91.34" r="0.59"/><circle class="a525fe6d-ac4b-4976-871d-5793259d78aa" cx="140.07" cy="91.34" r="0.59"/><circle class="ad0050f0-550d-4d1f-8d03-534e4bf1d388" cx="150.41" cy="91.34" r="0.59"/><circle class="ad0050f0-550d-4d1f-8d03-534e4bf1d388" cx="174.06" cy="91.34" r="0.59"/><circle class="b180c618-3fbb-4e40-b509-b98d1a78f7b7" cx="184.4" cy="91.34" r="0.59"/><circle class="b180c618-3fbb-4e40-b509-b98d1a78f7b7" cx="207.77" cy="91.34" r="0.59"/><line class="a2ab25cd-65bc-474b-99d0-c4e45ccc9c85" x1="224.88" y1="91.34" x2="316.49" y2="91.34"/><line class="b5f3b362-62dc-429b-aae3-3bb35347a356" x1="293.11" y1="91.34" x2="316.49" y2="91.34"/><line class="a2ab25cd-65bc-474b-99d0-c4e45ccc9c85" x1="224.88" y1="38.64" x2="316.49" y2="38.64"/><text class="a332f0c4-5392-4c05-9347-49c679e0dc37" transform="translate(232.69 101.47)">Арматура с электроприводом</text><circle class="a525fe6d-ac4b-4976-871d-5793259d78aa" cx="225.14" cy="91.34" r="0.59"/><circle class="a525fe6d-ac4b-4976-871d-5793259d78aa" cx="248.79" cy="91.34" r="0.59"/><circle class="ad0050f0-550d-4d1f-8d03-534e4bf1d388" cx="259.13" cy="91.34" r="0.59"/><circle class="ad0050f0-550d-4d1f-8d03-534e4bf1d388" cx="282.77" cy="91.34" r="0.59"/><circle class="b3b64513-2e52-416d-b22e-95229191a723" cx="293.11" cy="91.34" r="0.59"/><circle class="b3b64513-2e52-416d-b22e-95229191a723" cx="316.48" cy="91.34" r="0.59"/><circle class="f85ce9d7-b63e-40fd-ab68-c75480e1cb60" cx="97.65" cy="38.61" r="0.61"/><path class="b3b64513-2e52-416d-b22e-95229191a723" d="M97.65,38.34a.27.27,0,1,1-.27.27.27.27,0,0,1,.27-.27m0-.67a.94.94,0,1,0,.94.94.95.95,0,0,0-.94-.94Z"/><circle class="f85ce9d7-b63e-40fd-ab68-c75480e1cb60" cx="116.16" cy="38.61" r="0.61"/><path class="b3b64513-2e52-416d-b22e-95229191a723" d="M116.16,38.34a.27.27,0,1,1-.27.27.27.27,0,0,1,.27-.27m0-.67a.94.94,0,1,0,.94.94.94.94,0,0,0-.94-.94Z"/><circle class="f85ce9d7-b63e-40fd-ab68-c75480e1cb60" cx="207.17" cy="38.61" r="0.61"/><path class="b3b64513-2e52-416d-b22e-95229191a723" d="M207.17,38.34a.27.27,0,1,1-.27.27.27.27,0,0,1,.27-.27m0-.67a.94.94,0,1,0,.94.94.94.94,0,0,0-.94-.94Z"/><path class="f85ce9d7-b63e-40fd-ab68-c75480e1cb60" d="M224.88,39.22a.61.61,0,1,1,.6-.61A.61.61,0,0,1,224.88,39.22Z"/><path class="b3b64513-2e52-416d-b22e-95229191a723" d="M224.88,38.34a.27.27,0,1,1-.28.27.27.27,0,0,1,.28-.27m0-.67a.94.94,0,1,0,.93.94.94.94,0,0,0-.93-.94Z"/><circle class="f85ce9d7-b63e-40fd-ab68-c75480e1cb60" cx="316.05" cy="38.61" r="0.61"/><path class="b3b64513-2e52-416d-b22e-95229191a723" d="M316.05,38.34a.27.27,0,1,1,0,.54.27.27,0,0,1,0-.54m0-.67a.94.94,0,1,0,.94.94.94.94,0,0,0-.94-.94Z"/><polyline class="a2506556-2e1c-411d-af14-14e8087eabc8" points="75.6 91.28 75.6 85.45 99.06 85.45 99.06 91.28"/><polyline class="bc2c9e8f-a760-443c-9d3b-cb3238fb4f37" points="41.52 91.08 41.52 44.34 64.98 44.34 64.98 91.08"/><polyline class="ad286368-ead4-4530-ae6b-6437fb9bf6e1" points="7.86 91.08 7.86 38.61 31.32 38.61 31.32 91.08"/><polyline class="bdab223b-47d5-4c0d-a798-273e7cb2b9f2" points="184.37 91.28 184.37 81.32 207.83 81.32 207.83 91.28"/><polyline class="abeb9d02-1224-4d7f-a590-f28329ed545c" points="150.29 91.08 150.29 49.97 173.76 49.97 173.76 91.08"/><polyline class="f086b8e4-0a2a-4b7f-8afc-307c09e9bba6" points="116.64 91.08 116.64 38.61 140.1 38.61 140.1 91.08"/><polyline class="ab54c8d9-2a35-491d-99b0-add7a7410de7" points="259.07 91.08 259.07 38.56 282.53 38.56 282.53 91.08"/><polyline class="ee05230d-a0c5-4bcc-93d1-b96578f568c2" points="225.41 91.08 225.41 38.61 248.87 38.61 248.87 91.08"/><circle class="f85ce9d7-b63e-40fd-ab68-c75480e1cb60" cx="7.86" cy="38.61" r="0.61"/><path class="b3b64513-2e52-416d-b22e-95229191a723" d="M7.86,38.34a.27.27,0,1,1,0,.54.27.27,0,1,1,0-.54m0-.67a.94.94,0,1,0,.94.94.94.94,0,0,0-.94-.94Z"/><text class="a4e83592-bb92-4334-b4c3-4cb3ae127777" transform="translate(98.26 23.78) scale(0.99 1)">Всего</text><text class="b81d9c0b-ad9f-455c-a9ce-10d08255eed8" transform="translate(132.44 23.78) scale(0.99 1)">В работе</text><text class="b999cf95-bf3f-4734-bd72-c8fbae5f5ec3" transform="translate(175.73 23.78) scale(0.99 1)">С отклонением</text></g><g id="b884d813-5d9c-4c89-9d9a-d577ec0b5ea2" data-name="Prew"><g class="a364cfdb-9d77-4806-8366-c8cc6b727ea5"><g class="fb288b71-00e5-4920-81d5-dae16c2fdca6"><g class="ed88ee9c-8389-4a5c-8d90-dbaed2b0696f"><g class="ade49c47-4d55-4766-83df-d650b165488c"><polyline class="bb366662-1b70-4de3-b29e-5f2a45ab5559" points="199.73 118.02 199.17 117.69 159.1 123.39 174.83 132.46 199.73 118.02"/><path class="bece2fb8-dce7-4c2a-86ac-e39e0de594a0" d="M199.91,118l-25.08,14.54-16-9.21,40.37-5.73.69.4m.17,0-.83-.48-40.43,5.75-.21,0,16.13,9.3.09,0L200,118.07l.08,0"/><path class="e8ea44e6-760c-4a40-bffc-fd6b0581617a" d="M159.1,123.39l40.07-5.7.56.33-24.9,14.44-15.73-9.07M199.91,118l-.69-.4-40.37,5.73,16,9.21L199.91,118"/></g></g></g></g></g></svg>