<svg xmlns="http://www.w3.org/2000/svg" xmlns:xlink="http://www.w3.org/1999/xlink" viewBox="0 0 324 118"><defs><style>.b0e9f786-fdd4-4cf5-965e-a968ae25d89c,.b3c37381-f577-497a-b2b0-18328e6a42c3,.efc3d03b-7572-4cff-9d1c-8445a0c67694{fill:none;}.a7838ef1-ce85-484a-9e12-3d52418a4a22,.b1e29402-fcc0-4933-b9e1-30ddbe445de0,.f3ad2a2b-6ed5-46f3-889d-0822db22997f{fill:#fff;}.b0e9f786-fdd4-4cf5-965e-a968ae25d89c,.b3c37381-f577-497a-b2b0-18328e6a42c3{stroke:#616580;stroke-width:0.5px;}.a1c81a47-276e-43d0-a97a-5f2f9f62f014,.a77b20ad-97b4-4d56-aa3e-fb781df521cc,.a7ff136a-6883-4c17-969b-efa287359bf9,.b0e9f786-fdd4-4cf5-965e-a968ae25d89c,.b3c37381-f577-497a-b2b0-18328e6a42c3,.b6e59ce1-e9ae-4845-89fc-52cde65eb647,.babe7a4b-c751-43d2-bd37-d059da6abe09,.bc9d80b7-a208-430c-938e-4702093567cb,.bfb835c0-cb5c-46b5-b797-db2dcfb7c3b5,.e7c4e461-64c9-453c-ab82-ee34bd51aca8{stroke-miterlimit:10;}.b3c37381-f577-497a-b2b0-18328e6a42c3{stroke-dasharray:2;}.a4ff8ec1-31ca-420f-aefa-9977699d1dc0{font-size:5.64px;}.a4ff8ec1-31ca-420f-aefa-9977699d1dc0,.b93572d9-8fa9-46d8-8df1-c8a9f7efb2e0{fill:#8c99b2;}.a1524b1a-5b8b-4de0-9e8f-86d2b5ffba1a,.a4ff8ec1-31ca-420f-aefa-9977699d1dc0,.a7838ef1-ce85-484a-9e12-3d52418a4a22,.e6af0bcb-1cdb-4059-af51-8ff7c90d2ff0{font-family:Tahoma;}.acb146a2-0535-4d0e-a0b1-673abd0d6d82,.e6af0bcb-1cdb-4059-af51-8ff7c90d2ff0{fill:#9ed7f5;}.a1524b1a-5b8b-4de0-9e8f-86d2b5ffba1a,.aef938d0-1d76-4d3c-9fa9-c07b38971a70{fill:#f4a321;}.b891171b-dee3-47dc-a6cb-c26dcb3a9094{fill:#0d1014;}.a7ff136a-6883-4c17-969b-efa287359bf9,.b6e59ce1-e9ae-4845-89fc-52cde65eb647{stroke:#f4a321;}.b6e59ce1-e9ae-4845-89fc-52cde65eb647{stroke-width:0.14px;fill:url(#b276ef98-1c15-421d-8a9a-fe9e4ea615bb);}.a1c81a47-276e-43d0-a97a-5f2f9f62f014,.bc9d80b7-a208-430c-938e-4702093567cb,.bfb835c0-cb5c-46b5-b797-db2dcfb7c3b5{stroke:#fff;}.a1c81a47-276e-43d0-a97a-5f2f9f62f014{stroke-width:0.47px;fill:url(#fa43257d-4644-4e8f-9e64-b1b7e1f752e1);}.a77b20ad-97b4-4d56-aa3e-fb781df521cc,.babe7a4b-c751-43d2-bd37-d059da6abe09,.e7c4e461-64c9-453c-ab82-ee34bd51aca8{stroke:#9ed7f5;stroke-width:0.5px;}.a77b20ad-97b4-4d56-aa3e-fb781df521cc{fill:url(#e4fa0d41-b8ca-413d-9ec1-beff4130f433);}.a7ff136a-6883-4c17-969b-efa287359bf9{stroke-width:0.19px;fill:url(#b4a24fb6-d5a4-4cce-b0b2-9bd20667985d);}.bc9d80b7-a208-430c-938e-4702093567cb{stroke-width:0.44px;fill:url(#f4e20fbe-7d63-45b4-944c-a8d5c6b157b8);}.e7c4e461-64c9-453c-ab82-ee34bd51aca8{fill:url(#ba8a6f87-2a4b-45df-949c-01fd84358a06);}.bfb835c0-cb5c-46b5-b797-db2dcfb7c3b5{stroke-width:0.5px;fill:url(#b84a32b8-722e-4be1-8b51-3b88fcb3e9f9);}.babe7a4b-c751-43d2-bd37-d059da6abe09{fill:url(#aac48645-de81-4f6e-a81b-b0b776b99593);}.a1524b1a-5b8b-4de0-9e8f-86d2b5ffba1a,.a7838ef1-ce85-484a-9e12-3d52418a4a22,.e6af0bcb-1cdb-4059-af51-8ff7c90d2ff0{font-size:7.32px;}.a7838ef1-ce85-484a-9e12-3d52418a4a22{opacity:0.9;}.ee8e767c-fcab-4dac-b2e3-612a64924882{opacity:0.18;}.ab7d2761-cc97-4118-bc9e-3cf478c14126{clip-path:url(#b7d94626-67c5-4f18-b65c-a7e2dcfe067e);}.ef7be036-f741-44da-a6cd-c7e8d1dfc68f{isolation:isolate;}.feafe2f0-62d0-4c75-8aa3-e91eacbe2c02{clip-path:url(#bd7eefd6-1ace-4262-b9eb-87f90b0dff3f);}.a5fdaf4c-5fb6-4631-a332-0eb9d668d01b{fill:#a2e2ff;opacity:0.05;}.b1e29402-fcc0-4933-b9e1-30ddbe445de0{opacity:0.5;}.a414900d-2277-426b-909f-2427330f7831{fill:#fbfeff;opacity:0.53;}</style><linearGradient id="b276ef98-1c15-421d-8a9a-fe9e4ea615bb" x1="87.33" y1="91.28" x2="87.33" y2="85.45" gradientUnits="userSpaceOnUse"><stop offset="0" stop-color="#f4a321" stop-opacity="0"/><stop offset="1" stop-color="#f4a321" stop-opacity="0.2"/></linearGradient><linearGradient id="fa43257d-4644-4e8f-9e64-b1b7e1f752e1" x1="53.25" y1="91.08" x2="53.25" y2="44.34" gradientUnits="userSpaceOnUse"><stop offset="0" stop-color="#fff" stop-opacity="0"/><stop offset="1" stop-color="#fff" stop-opacity="0.2"/></linearGradient><linearGradient id="e4fa0d41-b8ca-413d-9ec1-beff4130f433" x1="19.59" y1="91.08" x2="19.59" y2="38.61" gradientUnits="userSpaceOnUse"><stop offset="0" stop-color="#9ed7f5" stop-opacity="0"/><stop offset="1" stop-color="#9ed7f5" stop-opacity="0.2"/></linearGradient><linearGradient id="b4a24fb6-d5a4-4cce-b0b2-9bd20667985d" x1="196.1" y1="91.28" x2="196.1" y2="81.32" xlink:href="#b276ef98-1c15-421d-8a9a-fe9e4ea615bb"/><linearGradient id="f4e20fbe-7d63-45b4-944c-a8d5c6b157b8" x1="162.03" y1="91.08" x2="162.03" y2="49.97" xlink:href="#fa43257d-4644-4e8f-9e64-b1b7e1f752e1"/><linearGradient id="ba8a6f87-2a4b-45df-949c-01fd84358a06" x1="128.37" y1="91.08" x2="128.37" y2="38.61" xlink:href="#e4fa0d41-b8ca-413d-9ec1-beff4130f433"/><linearGradient id="b84a32b8-722e-4be1-8b51-3b88fcb3e9f9" x1="270.8" y1="91.08" x2="270.8" y2="38.56" xlink:href="#fa43257d-4644-4e8f-9e64-b1b7e1f752e1"/><linearGradient id="aac48645-de81-4f6e-a81b-b0b776b99593" x1="237.14" y1="91.08" x2="237.14" y2="38.61" xlink:href="#e4fa0d41-b8ca-413d-9ec1-beff4130f433"/><clipPath id="b7d94626-67c5-4f18-b65c-a7e2dcfe067e"><ellipse class="efc3d03b-7572-4cff-9d1c-8445a0c67694" cx="161.17" cy="187.94" rx="39.81" ry="39.98"/></clipPath><clipPath id="bd7eefd6-1ace-4262-b9eb-87f90b0dff3f"><polygon class="efc3d03b-7572-4cff-9d1c-8445a0c67694" points="6.84 182.25 158.67 94.01 373.53 218.06 221.7 306.3 6.84 182.25"/></clipPath></defs><title>Проект1</title><g id="a15ac6c8-0bc4-4d10-b52f-37923863f8bd" data-name="1"><path class="f3ad2a2b-6ed5-46f3-889d-0822db22997f" d="M16.81,5.23l3.45,2.35.08.06a.34.34,0,0,0,.17.05.26.26,0,0,0,.19-.05L24,5.25l0,0a.36.36,0,0,0,.12-.48.37.37,0,0,0-.36-.18H17.07a.35.35,0,0,0-.26.65Zm6,0L20.87,6.66V6.18a.36.36,0,0,0-.71,0v.49l-2-1.39ZM13.65,18.7Zm14.84-6a.72.72,0,0,0-.77-.53,1.5,1.5,0,0,0-.73.08.71.71,0,0,0-.38.64v0H24.22a1.07,1.07,0,0,1-.37-.05l-.05,0-.05,0s0,0,0,0,0,0,0,0v0a.64.64,0,0,1,0-.07h0v0a1,1,0,0,0,0-.17V9.86a.71.71,0,0,0,.42-.56.19.19,0,0,0,0-.08v-.5a.71.71,0,0,0-.7-.7H17.92a3.37,3.37,0,0,0-.55,0,.73.73,0,0,0-.54.77,1.63,1.63,0,0,0,.08.73.7.7,0,0,0,.37.33.28.28,0,0,0,0,.09v2.49h0v0h0l-.06.11h0l0,0-.08.08-.13.07h0l-.13,0a.4.4,0,0,1-.18,0H14.36c0-.07,0-.15,0-.23a.72.72,0,0,0-.77-.53,1.49,1.49,0,0,0-.73.08.71.71,0,0,0-.38.64v5.79a.72.72,0,0,0,.62.73h.57a.71.71,0,0,0,.71-.7h2.09a3.58,3.58,0,0,1,1.79.67,6.15,6.15,0,0,0,.85.43,2.24,2.24,0,0,0,.89.13h1.16a3.86,3.86,0,0,0,1.9-.7,4.61,4.61,0,0,1,.86-.43A3.21,3.21,0,0,1,25,18.7h1.63a.72.72,0,0,0,.62.69h.58a.71.71,0,0,0,.7-.71V13.24A3.5,3.5,0,0,0,28.49,12.68Zm-14.84.17Zm-.49,0Zm.49,5.86h0Zm0,0h-.49s0,0,0,0h0V12.87h.49v5.83h0Zm9.74-10h0Zm0,0Zm-5.84,0h5.85s0,0,0,0v.46h0s0,0,0,0,0,0,0,0H17.55s0,0,0,0h0V8.72ZM23,9.92Zm-5,0Zm-.44-.7Zm0-.5Zm-.36,3.92ZM26.61,18Zm0,0h0s0,0,0,0H24.82a3.43,3.43,0,0,0-1.15.14,5.19,5.19,0,0,0-1,.46c-.29.17-.57.34-.87.48a3.49,3.49,0,0,1-.38.12,2.33,2.33,0,0,1-.48,0H19.61l-.09,0-.18-.05-.1,0-.07,0c-.28-.14-.55-.3-.82-.46a6.36,6.36,0,0,0-1-.45A3.28,3.28,0,0,0,16.28,18h-1.9v0s0,0,0,0V13.61h1.28c.69,0,1.5.09,2-.48a1,1,0,0,0,.3-.7V9.92h5v2.31a2.88,2.88,0,0,0,0,.59.91.91,0,0,0,.37.55,1.55,1.55,0,0,0,.94.22h2.32Zm1.2-5.13Zm-.5,0Zm.49,5.86h0Zm0,0h-.49a0,0,0,0,0,0,0h0V18a.75.75,0,0,0,0-.15v-5h0s0,0,0,0h.49v5.83h0Z"/><line class="b3c37381-f577-497a-b2b0-18328e6a42c3" x1="7.44" y1="91.34" x2="99.06" y2="91.34"/><line class="b3c37381-f577-497a-b2b0-18328e6a42c3" x1="7.44" y1="38.64" x2="99.06" y2="38.64"/><text class="a4ff8ec1-31ca-420f-aefa-9977699d1dc0" transform="translate(23.01 101.47)">Регулируемые клапаны</text><circle class="acb146a2-0535-4d0e-a0b1-673abd0d6d82" cx="7.71" cy="91.34" r="0.59"/><circle class="acb146a2-0535-4d0e-a0b1-673abd0d6d82" cx="31.36" cy="91.34" r="0.59"/><circle class="f3ad2a2b-6ed5-46f3-889d-0822db22997f" cx="41.69" cy="91.34" r="0.59"/><circle class="f3ad2a2b-6ed5-46f3-889d-0822db22997f" cx="65.34" cy="91.34" r="0.59"/><circle class="aef938d0-1d76-4d3c-9fa9-c07b38971a70" cx="75.68" cy="91.34" r="0.59"/><circle class="aef938d0-1d76-4d3c-9fa9-c07b38971a70" cx="99.05" cy="91.34" r="0.59"/><line class="b3c37381-f577-497a-b2b0-18328e6a42c3" x1="116.16" y1="91.34" x2="207.77" y2="91.34"/><line class="b3c37381-f577-497a-b2b0-18328e6a42c3" x1="116.16" y1="38.64" x2="207.77" y2="38.64"/><text class="a4ff8ec1-31ca-420f-aefa-9977699d1dc0" transform="translate(133.74 101.47)">Отсекающие клапаны</text><circle class="acb146a2-0535-4d0e-a0b1-673abd0d6d82" cx="116.42" cy="91.34" r="0.59"/><circle class="acb146a2-0535-4d0e-a0b1-673abd0d6d82" cx="140.07" cy="91.34" r="0.59"/><circle class="f3ad2a2b-6ed5-46f3-889d-0822db22997f" cx="150.41" cy="91.34" r="0.59"/><circle class="f3ad2a2b-6ed5-46f3-889d-0822db22997f" cx="174.06" cy="91.34" r="0.59"/><circle class="aef938d0-1d76-4d3c-9fa9-c07b38971a70" cx="184.4" cy="91.34" r="0.59"/><circle class="aef938d0-1d76-4d3c-9fa9-c07b38971a70" cx="207.77" cy="91.34" r="0.59"/><line class="b3c37381-f577-497a-b2b0-18328e6a42c3" x1="224.88" y1="91.34" x2="316.49" y2="91.34"/><line class="b0e9f786-fdd4-4cf5-965e-a968ae25d89c" x1="293.11" y1="91.34" x2="316.49" y2="91.34"/><line class="b3c37381-f577-497a-b2b0-18328e6a42c3" x1="224.88" y1="38.64" x2="316.49" y2="38.64"/><text class="a4ff8ec1-31ca-420f-aefa-9977699d1dc0" transform="translate(232.69 101.47)">Арматура с электроприводом</text><circle class="acb146a2-0535-4d0e-a0b1-673abd0d6d82" cx="225.14" cy="91.34" r="0.59"/><circle class="acb146a2-0535-4d0e-a0b1-673abd0d6d82" cx="248.79" cy="91.34" r="0.59"/><circle class="f3ad2a2b-6ed5-46f3-889d-0822db22997f" cx="259.13" cy="91.34" r="0.59"/><circle class="f3ad2a2b-6ed5-46f3-889d-0822db22997f" cx="282.77" cy="91.34" r="0.59"/><circle class="b93572d9-8fa9-46d8-8df1-c8a9f7efb2e0" cx="293.11" cy="91.34" r="0.59"/><circle class="b93572d9-8fa9-46d8-8df1-c8a9f7efb2e0" cx="316.48" cy="91.34" r="0.59"/><circle class="b891171b-dee3-47dc-a6cb-c26dcb3a9094" cx="97.65" cy="38.61" r="0.61"/><path class="b93572d9-8fa9-46d8-8df1-c8a9f7efb2e0" d="M97.65,38.34a.27.27,0,1,1-.27.27.27.27,0,0,1,.27-.27m0-.67a.94.94,0,1,0,.94.94.95.95,0,0,0-.94-.94Z"/><circle class="b891171b-dee3-47dc-a6cb-c26dcb3a9094" cx="116.16" cy="38.61" r="0.61"/><path class="b93572d9-8fa9-46d8-8df1-c8a9f7efb2e0" d="M116.16,38.34a.27.27,0,1,1-.27.27.27.27,0,0,1,.27-.27m0-.67a.94.94,0,1,0,.94.94.94.94,0,0,0-.94-.94Z"/><circle class="b891171b-dee3-47dc-a6cb-c26dcb3a9094" cx="207.17" cy="38.61" r="0.61"/><path class="b93572d9-8fa9-46d8-8df1-c8a9f7efb2e0" d="M207.17,38.34a.27.27,0,1,1-.27.27.27.27,0,0,1,.27-.27m0-.67a.94.94,0,1,0,.94.94.94.94,0,0,0-.94-.94Z"/><path class="b891171b-dee3-47dc-a6cb-c26dcb3a9094" d="M224.88,39.22a.61.61,0,1,1,.6-.61A.61.61,0,0,1,224.88,39.22Z"/><path class="b93572d9-8fa9-46d8-8df1-c8a9f7efb2e0" d="M224.88,38.34a.27.27,0,1,1-.28.27.27.27,0,0,1,.28-.27m0-.67a.94.94,0,1,0,.93.94.94.94,0,0,0-.93-.94Z"/><circle class="b891171b-dee3-47dc-a6cb-c26dcb3a9094" cx="316.05" cy="38.61" r="0.61"/><path class="b93572d9-8fa9-46d8-8df1-c8a9f7efb2e0" d="M316.05,38.34a.27.27,0,1,1,0,.54.27.27,0,0,1,0-.54m0-.67a.94.94,0,1,0,.94.94.94.94,0,0,0-.94-.94Z"/><polyline class="b6e59ce1-e9ae-4845-89fc-52cde65eb647" points="75.6 91.28 75.6 85.45 99.06 85.45 99.06 91.28"/><polyline class="a1c81a47-276e-43d0-a97a-5f2f9f62f014" points="41.52 91.08 41.52 44.34 64.98 44.34 64.98 91.08"/><polyline class="a77b20ad-97b4-4d56-aa3e-fb781df521cc" points="7.86 91.08 7.86 38.61 31.32 38.61 31.32 91.08"/><polyline class="a7ff136a-6883-4c17-969b-efa287359bf9" points="184.37 91.28 184.37 81.32 207.83 81.32 207.83 91.28"/><polyline class="bc9d80b7-a208-430c-938e-4702093567cb" points="150.29 91.08 150.29 49.97 173.76 49.97 173.76 91.08"/><polyline class="e7c4e461-64c9-453c-ab82-ee34bd51aca8" points="116.64 91.08 116.64 38.61 140.1 38.61 140.1 91.08"/><polyline class="bfb835c0-cb5c-46b5-b797-db2dcfb7c3b5" points="259.07 91.08 259.07 38.56 282.53 38.56 282.53 91.08"/><polyline class="babe7a4b-c751-43d2-bd37-d059da6abe09" points="225.41 91.08 225.41 38.61 248.87 38.61 248.87 91.08"/><circle class="b891171b-dee3-47dc-a6cb-c26dcb3a9094" cx="7.86" cy="38.61" r="0.61"/><path class="b93572d9-8fa9-46d8-8df1-c8a9f7efb2e0" d="M7.86,38.34a.27.27,0,1,1,0,.54.27.27,0,1,1,0-.54m0-.67a.94.94,0,1,0,.94.94.94.94,0,0,0-.94-.94Z"/><text class="e6af0bcb-1cdb-4059-af51-8ff7c90d2ff0" transform="translate(98.26 23.78) scale(0.99 1)">Всего</text><text class="a7838ef1-ce85-484a-9e12-3d52418a4a22" transform="translate(132.44 23.78) scale(0.99 1)">В работе</text><text class="a1524b1a-5b8b-4de0-9e8f-86d2b5ffba1a" transform="translate(175.73 23.78) scale(0.99 1)">С отклонением</text></g><g id="fa9cd786-8c8b-4b44-b8f4-fe2c1411b1d5" data-name="Prew"><g class="ee8e767c-fcab-4dac-b2e3-612a64924882"><g class="ab7d2761-cc97-4118-bc9e-3cf478c14126"><g class="ef7be036-f741-44da-a6cd-c7e8d1dfc68f"><g class="feafe2f0-62d0-4c75-8aa3-e91eacbe2c02"><polyline class="a5fdaf4c-5fb6-4631-a332-0eb9d668d01b" points="199.73 118.02 199.17 117.69 159.1 123.39 174.83 132.46 199.73 118.02"/><path class="b1e29402-fcc0-4933-b9e1-30ddbe445de0" d="M199.91,118l-25.08,14.54-16-9.21,40.37-5.73.69.4m.17,0-.83-.48-40.43,5.75-.21,0,16.13,9.3.09,0L200,118.07l.08,0"/><path class="a414900d-2277-426b-909f-2427330f7831" d="M159.1,123.39l40.07-5.7.56.33-24.9,14.44-15.73-9.07M199.91,118l-.69-.4-40.37,5.73,16,9.21L199.91,118"/></g></g></g></g></g></svg>