<svg width="324" height="117" viewBox="0 0 324 117" fill="none" xmlns="http://www.w3.org/2000/svg">
<g clip-path="url(#clip0)">
<rect x="5" y="6" width="314" height="25" fill="#0B1325" fill-opacity="0.25"/>
<rect x="5.5" y="6.5" width="313" height="24" stroke="#5C6585" stroke-opacity="0.25"/>
<line x1="188.5" y1="34" x2="188.5" y2="57" stroke="#0B1325"/>
<line x1="248.5" y1="34" x2="248.5" y2="57" stroke="#0B1325"/>
<rect x="19.5" y="34.5" width="291" height="22" stroke="#5C6585" stroke-opacity="0.25"/>
<path opacity="0.2" fill-rule="evenodd" clip-rule="evenodd" d="M20.6108 56.4633V34.5366H72.0065V36.9133V53.9333V56.4633H20.6108Z" fill="url(#paint0_linear)"/>
<path d="M33.8633 47.1055C33.4831 47.1055 33.1328 47.0417 32.8125 46.9141C32.4948 46.7865 32.2201 46.5964 31.9883 46.3438C31.7565 46.0911 31.5768 45.776 31.4492 45.3984C31.3216 45.0208 31.2578 44.5872 31.2578 44.0977C31.2578 43.6107 31.319 43.1862 31.4414 42.8242C31.5664 42.4622 31.7474 42.1471 31.9844 41.8789C32.2161 41.6185 32.4909 41.4206 32.8086 41.2852C33.1263 41.1471 33.4818 41.0781 33.875 41.0781C34.0703 41.0781 34.2526 41.0924 34.4219 41.1211C34.5938 41.1497 34.7526 41.1862 34.8984 41.2305C35.0234 41.2695 35.151 41.319 35.2812 41.3789C35.4141 41.4362 35.5443 41.5 35.6719 41.5703V42.5039H35.6094C35.5417 42.4414 35.4544 42.3659 35.3477 42.2773C35.2409 42.1888 35.1107 42.1016 34.957 42.0156C34.8086 41.9349 34.6471 41.8685 34.4727 41.8164C34.2982 41.7643 34.0964 41.7383 33.8672 41.7383C33.6198 41.7383 33.3854 41.7891 33.1641 41.8906C32.9427 41.9922 32.7487 42.1419 32.582 42.3398C32.418 42.5378 32.2904 42.7865 32.1992 43.0859C32.1081 43.3854 32.0625 43.7227 32.0625 44.0977C32.0625 44.4961 32.1107 44.8398 32.207 45.1289C32.3034 45.4154 32.4349 45.6576 32.6016 45.8555C32.763 46.0482 32.9531 46.194 33.1719 46.293C33.3906 46.3893 33.6224 46.4375 33.8672 46.4375C34.0911 46.4375 34.2982 46.4102 34.4883 46.3555C34.6784 46.3008 34.8477 46.2318 34.9961 46.1484C35.1393 46.0677 35.263 45.9857 35.3672 45.9023C35.4714 45.8164 35.5534 45.7435 35.6133 45.6836H35.6719V46.6055C35.5443 46.6654 35.4232 46.7227 35.3086 46.7773C35.1966 46.832 35.0599 46.8854 34.8984 46.9375C34.7292 46.9922 34.5716 47.0339 34.4258 47.0625C34.2826 47.0911 34.0951 47.1055 33.8633 47.1055ZM39.7656 42.6367L37.418 48.6094H36.6328L37.4141 46.7891L35.8281 42.6367H36.6211L37.8125 45.8672L39 42.6367H39.7656ZM43.7109 47H42.8086L41.75 45.3516L40.6602 47H39.8281L41.3438 44.8359L39.8438 42.6367H40.7461L41.7969 44.2695L42.875 42.6367H43.7109L42.2031 44.7852L43.7109 47ZM47.8711 44.8203C47.8711 45.5547 47.694 46.1224 47.3398 46.5234C46.9857 46.9219 46.5143 47.1211 45.9258 47.1211C45.319 47.1211 44.8411 46.9154 44.4922 46.5039C44.1458 46.0898 43.9727 45.5286 43.9727 44.8203C43.9727 44.0911 44.151 43.5247 44.5078 43.1211C44.8672 42.7174 45.3398 42.5156 45.9258 42.5156C46.5143 42.5156 46.9857 42.7174 47.3398 43.1211C47.694 43.5221 47.8711 44.0885 47.8711 44.8203ZM47.1133 44.8203C47.1133 44.2552 47.0104 43.8359 46.8047 43.5625C46.599 43.2865 46.306 43.1484 45.9258 43.1484C45.543 43.1484 45.2474 43.2865 45.0391 43.5625C44.8333 43.8359 44.7305 44.2552 44.7305 44.8203C44.7305 45.3672 44.8333 45.7826 45.0391 46.0664C45.2474 46.3477 45.543 46.4883 45.9258 46.4883C46.3034 46.4883 46.5951 46.3503 46.8008 46.0742C47.0091 45.7956 47.1133 45.3776 47.1133 44.8203ZM52.0703 47H51.3438V43.7461L49.2891 47H48.625V42.6367H49.3516V45.8398L51.3828 42.6367H52.0703V47ZM51.7422 40.6094C51.7422 40.8333 51.7148 41.0378 51.6602 41.2227C51.6055 41.4049 51.5273 41.5586 51.4258 41.6836C51.3086 41.8216 51.1758 41.9258 51.0273 41.9961C50.8789 42.0638 50.6888 42.0977 50.457 42.0977C50.2435 42.0977 50.056 42.0625 49.8945 41.9922C49.7357 41.9193 49.6016 41.8164 49.4922 41.6836C49.3854 41.5534 49.3047 41.3971 49.25 41.2148C49.1953 41.0326 49.168 40.8307 49.168 40.6094H49.8008C49.8008 40.9609 49.8555 41.2148 49.9648 41.3711C50.0742 41.5247 50.2383 41.6016 50.457 41.6016C50.6628 41.6016 50.8229 41.526 50.9375 41.375C51.0521 41.2214 51.1094 40.9661 51.1094 40.6094H51.7422ZM58.4062 43.2812H56.3672V47H55.6328V42.6367H58.4062V43.2812ZM61.3906 45.9258V44.7148C61.2161 44.7305 60.9948 44.7526 60.7266 44.7812C60.4609 44.8073 60.2461 44.8451 60.082 44.8945C59.8867 44.9544 59.7253 45.0469 59.5977 45.1719C59.4701 45.2943 59.4062 45.4661 59.4062 45.6875C59.4062 45.9375 59.4766 46.1263 59.6172 46.2539C59.7578 46.3815 59.9635 46.4453 60.2344 46.4453C60.4661 46.4453 60.6758 46.3958 60.8633 46.2969C61.0508 46.1953 61.2266 46.0716 61.3906 45.9258ZM61.3906 46.5352C61.3307 46.5794 61.25 46.6419 61.1484 46.7227C61.0495 46.8008 60.9531 46.8633 60.8594 46.9102C60.7292 46.9779 60.6029 47.0299 60.4805 47.0664C60.3607 47.1029 60.1914 47.1211 59.9727 47.1211C59.793 47.1211 59.6224 47.0872 59.4609 47.0195C59.2995 46.9518 59.1576 46.8568 59.0352 46.7344C58.918 46.6146 58.8242 46.4674 58.7539 46.293C58.6836 46.1159 58.6484 45.9297 58.6484 45.7344C58.6484 45.4323 58.7122 45.1758 58.8398 44.9648C58.9674 44.7513 59.1693 44.582 59.4453 44.457C59.6901 44.3451 59.9792 44.2682 60.3125 44.2266C60.6458 44.1823 61.0052 44.1497 61.3906 44.1289V43.9883C61.3906 43.8164 61.3646 43.6784 61.3125 43.5742C61.2604 43.4674 61.1875 43.3854 61.0938 43.3281C61 43.2682 60.8854 43.2292 60.75 43.2109C60.6146 43.1901 60.4753 43.1797 60.332 43.1797C60.1628 43.1797 59.9635 43.2057 59.7344 43.2578C59.5052 43.3073 59.276 43.3802 59.0469 43.4766H59.0039V42.7305C59.1393 42.6914 59.3333 42.6484 59.5859 42.6016C59.8385 42.5547 60.0885 42.5312 60.3359 42.5312C60.6354 42.5312 60.888 42.5547 61.0938 42.6016C61.2995 42.6484 61.4844 42.7331 61.6484 42.8555C61.8073 42.9753 61.9258 43.1302 62.0039 43.3203C62.082 43.5104 62.1211 43.7422 62.1211 44.0156V47H61.3906V46.5352ZM66.0469 45.793C66.0469 46.0378 65.9935 46.2448 65.8867 46.4141C65.7799 46.5833 65.6432 46.7174 65.4766 46.8164C65.3177 46.9128 65.1367 46.9844 64.9336 47.0312C64.7305 47.0781 64.5273 47.1016 64.3242 47.1016C64.0378 47.1016 63.7669 47.0729 63.5117 47.0156C63.2565 46.9609 63.0026 46.8724 62.75 46.75V45.9375H62.7969C62.974 46.1016 63.1953 46.2318 63.4609 46.3281C63.7292 46.4219 63.9961 46.4688 64.2617 46.4688C64.3763 46.4688 64.4987 46.457 64.6289 46.4336C64.7617 46.4076 64.8737 46.3685 64.9648 46.3164C65.0846 46.2435 65.1693 46.1654 65.2188 46.082C65.2708 45.9987 65.2969 45.8841 65.2969 45.7383C65.2969 45.582 65.2669 45.457 65.207 45.3633C65.1497 45.2669 65.0703 45.1953 64.9688 45.1484C64.8672 45.1016 64.7526 45.0729 64.625 45.0625C64.5 45.0495 64.3672 45.043 64.2266 45.043H63.7109V44.4102H64.1055C64.2044 44.4102 64.3281 44.4076 64.4766 44.4023C64.625 44.3945 64.7435 44.3737 64.832 44.3398C64.944 44.2982 65.0339 44.2396 65.1016 44.1641C65.1693 44.0859 65.2031 43.9557 65.2031 43.7734C65.2031 43.6458 65.1745 43.543 65.1172 43.4648C65.0599 43.3867 64.9883 43.3255 64.9023 43.2812C64.8138 43.2344 64.7174 43.2031 64.6133 43.1875C64.5091 43.1693 64.4089 43.1602 64.3125 43.1602C64.0651 43.1602 63.8268 43.1953 63.5977 43.2656C63.3711 43.3333 63.1758 43.4349 63.0117 43.5703H62.9648V42.7773C63.1523 42.7122 63.3594 42.6549 63.5859 42.6055C63.8151 42.556 64.0443 42.5312 64.2734 42.5312C64.4583 42.5312 64.6458 42.5508 64.8359 42.5898C65.0286 42.6263 65.2109 42.6901 65.3828 42.7812C65.5443 42.8698 65.6797 42.9922 65.7891 43.1484C65.8984 43.3021 65.9531 43.4909 65.9531 43.7148C65.9531 43.9518 65.8854 44.1602 65.75 44.3398C65.6172 44.5169 65.4401 44.6341 65.2188 44.6914V44.7188C65.4609 44.8021 65.6589 44.9297 65.8125 45.1016C65.9688 45.2734 66.0469 45.5039 66.0469 45.793Z" fill="#8A98B3"/>
<path d="M273.306 46.0898C273.306 47.1341 273.154 47.901 272.849 48.3906C272.547 48.8776 272.079 49.1211 271.447 49.1211C270.806 49.1211 270.336 48.8724 270.036 48.375C269.737 47.8776 269.587 47.1185 269.587 46.0977C269.587 45.0482 269.738 44.2812 270.04 43.7969C270.345 43.3099 270.814 43.0664 271.447 43.0664C272.087 43.0664 272.557 43.3177 272.857 43.8203C273.156 44.3229 273.306 45.0794 273.306 46.0898ZM272.306 47.8633C272.381 47.6706 272.435 47.4271 272.466 47.1328C272.497 46.8385 272.513 46.4909 272.513 46.0898C272.513 45.6914 272.497 45.3451 272.466 45.0508C272.435 44.7565 272.38 44.5117 272.302 44.3164C272.224 44.1185 272.116 43.9688 271.978 43.8672C271.842 43.763 271.665 43.7109 271.447 43.7109C271.23 43.7109 271.052 43.763 270.911 43.8672C270.773 43.9688 270.664 44.1211 270.583 44.3242C270.505 44.5221 270.452 44.7721 270.423 45.0742C270.395 45.3763 270.38 45.7174 270.38 46.0977C270.38 46.5039 270.392 46.8438 270.415 47.1172C270.441 47.3906 270.496 47.6354 270.579 47.8516C270.655 48.0521 270.762 48.207 270.9 48.3164C271.04 48.4232 271.223 48.4766 271.447 48.4766C271.663 48.4766 271.84 48.4258 271.978 48.3242C272.118 48.2201 272.228 48.0664 272.306 47.8633ZM276.783 44.7969C276.783 45.3828 276.664 45.8177 276.427 46.1016C276.193 46.3828 275.853 46.5234 275.408 46.5234C274.954 46.5234 274.611 46.3802 274.376 46.0938C274.145 45.8073 274.029 45.3763 274.029 44.8008C274.029 44.2174 274.147 43.7839 274.384 43.5C274.621 43.2161 274.962 43.0742 275.408 43.0742C275.861 43.0742 276.203 43.2174 276.435 43.5039C276.667 43.7904 276.783 44.2214 276.783 44.7969ZM279.384 43.1836L276.337 49H275.693L278.74 43.1836H279.384ZM281.04 47.3867C281.04 47.9727 280.922 48.4076 280.685 48.6914C280.45 48.9727 280.111 49.1133 279.665 49.1133C279.212 49.1133 278.868 48.9701 278.634 48.6836C278.402 48.3971 278.286 47.9661 278.286 47.3906C278.286 46.8073 278.405 46.3737 278.642 46.0898C278.879 45.806 279.22 45.6641 279.665 45.6641C280.118 45.6641 280.461 45.8073 280.693 46.0938C280.924 46.3802 281.04 46.8112 281.04 47.3867ZM276.087 44.7969C276.087 44.401 276.04 44.1016 275.947 43.8984C275.855 43.6953 275.676 43.5938 275.408 43.5938C275.139 43.5938 274.958 43.6966 274.865 43.9023C274.771 44.1081 274.724 44.4076 274.724 44.8008C274.724 45.1914 274.768 45.4896 274.857 45.6953C274.945 45.901 275.129 46.0039 275.408 46.0039C275.676 46.0039 275.855 45.901 275.947 45.6953C276.04 45.4896 276.087 45.1901 276.087 44.7969ZM280.345 47.3867C280.345 46.9909 280.298 46.6914 280.204 46.4883C280.113 46.2852 279.934 46.1836 279.665 46.1836C279.397 46.1836 279.216 46.2865 279.122 46.4922C279.029 46.6979 278.982 46.9974 278.982 47.3906C278.982 47.7812 279.026 48.0794 279.115 48.2852C279.203 48.4909 279.387 48.5938 279.665 48.5938C279.934 48.5938 280.113 48.4909 280.204 48.2852C280.298 48.0794 280.345 47.7799 280.345 47.3867Z" fill="#8A98B3"/>
<path d="M20.6108 34H18.8918V57H20.6108V34Z" fill="#5C6585"/>
<path d="M172.086 44.5664C172.086 44.9831 171.943 45.3346 171.656 45.6211C171.37 45.9076 171.017 46.0508 170.598 46.0508C170.184 46.0508 169.832 45.9089 169.543 45.625C169.254 45.3411 169.109 44.9883 169.109 44.5664C169.109 44.1497 169.253 43.7982 169.539 43.5117C169.826 43.2253 170.178 43.082 170.598 43.082C171.017 43.082 171.37 43.2253 171.656 43.5117C171.943 43.7982 172.086 44.1497 172.086 44.5664ZM171.473 44.5664C171.473 44.3164 171.389 44.1055 171.223 43.9336C171.056 43.7617 170.848 43.6758 170.598 43.6758C170.348 43.6758 170.139 43.7617 169.973 43.9336C169.806 44.1055 169.723 44.3164 169.723 44.5664C169.723 44.8216 169.807 45.0339 169.977 45.2031C170.148 45.3724 170.355 45.457 170.598 45.457C170.848 45.457 171.056 45.3711 171.223 45.1992C171.389 45.0247 171.473 44.8138 171.473 44.5664ZM175.344 49.1055C174.964 49.1055 174.613 49.0417 174.293 48.9141C173.975 48.7865 173.701 48.5964 173.469 48.3438C173.237 48.0911 173.057 47.776 172.93 47.3984C172.802 47.0208 172.738 46.5872 172.738 46.0977C172.738 45.6107 172.799 45.1862 172.922 44.8242C173.047 44.4622 173.228 44.1471 173.465 43.8789C173.697 43.6185 173.971 43.4206 174.289 43.2852C174.607 43.1471 174.962 43.0781 175.355 43.0781C175.551 43.0781 175.733 43.0924 175.902 43.1211C176.074 43.1497 176.233 43.1862 176.379 43.2305C176.504 43.2695 176.632 43.319 176.762 43.3789C176.895 43.4362 177.025 43.5 177.152 43.5703V44.5039H177.09C177.022 44.4414 176.935 44.3659 176.828 44.2773C176.721 44.1888 176.591 44.1016 176.438 44.0156C176.289 43.9349 176.128 43.8685 175.953 43.8164C175.779 43.7643 175.577 43.7383 175.348 43.7383C175.1 43.7383 174.866 43.7891 174.645 43.8906C174.423 43.9922 174.229 44.1419 174.062 44.3398C173.898 44.5378 173.771 44.7865 173.68 45.0859C173.589 45.3854 173.543 45.7227 173.543 46.0977C173.543 46.4961 173.591 46.8398 173.688 47.1289C173.784 47.4154 173.915 47.6576 174.082 47.8555C174.243 48.0482 174.434 48.194 174.652 48.293C174.871 48.3893 175.103 48.4375 175.348 48.4375C175.572 48.4375 175.779 48.4102 175.969 48.3555C176.159 48.3008 176.328 48.2318 176.477 48.1484C176.62 48.0677 176.743 47.9857 176.848 47.9023C176.952 47.8164 177.034 47.7435 177.094 47.6836H177.152V48.6055C177.025 48.6654 176.904 48.7227 176.789 48.7773C176.677 48.832 176.54 48.8854 176.379 48.9375C176.21 48.9922 176.052 49.0339 175.906 49.0625C175.763 49.0911 175.576 49.1055 175.344 49.1055Z" fill="#8A98B3"/>
<path d="M209.848 49H206.258V48.1836C206.516 47.9388 206.759 47.7044 206.988 47.4805C207.217 47.2565 207.441 47.0234 207.66 46.7812C208.103 46.2943 208.405 45.9049 208.566 45.6133C208.728 45.319 208.809 45.0156 208.809 44.7031C208.809 44.5417 208.783 44.3997 208.73 44.2773C208.681 44.1549 208.612 44.0534 208.523 43.9727C208.432 43.8945 208.327 43.8359 208.207 43.7969C208.087 43.7578 207.956 43.7383 207.812 43.7383C207.674 43.7383 207.534 43.7565 207.391 43.793C207.25 43.8268 207.115 43.8698 206.984 43.9219C206.875 43.9661 206.77 44.0195 206.668 44.082C206.566 44.1445 206.484 44.1979 206.422 44.2422H206.379V43.4141C206.54 43.3333 206.764 43.2552 207.051 43.1797C207.34 43.1016 207.613 43.0625 207.871 43.0625C208.413 43.0625 208.837 43.207 209.145 43.4961C209.452 43.7826 209.605 44.1719 209.605 44.6641C209.605 44.8906 209.578 45.1003 209.523 45.293C209.471 45.4857 209.398 45.6641 209.305 45.8281C209.208 45.9974 209.092 46.1654 208.957 46.332C208.822 46.4987 208.678 46.6628 208.527 46.8242C208.283 47.0898 208.009 47.3659 207.707 47.6523C207.408 47.9388 207.168 48.1654 206.988 48.332H209.848V49ZM213.367 44.5391C213.367 44.2786 213.28 44.0612 213.105 43.8867C212.931 43.7122 212.689 43.625 212.379 43.625C212.095 43.625 211.862 43.7031 211.68 43.8594C211.5 44.0156 211.41 44.2266 211.41 44.4922C211.41 44.6849 211.456 44.8477 211.547 44.9805C211.641 45.1133 211.78 45.2331 211.965 45.3398C212.046 45.3841 212.168 45.4453 212.332 45.5234C212.499 45.6016 212.65 45.6628 212.785 45.707C213.012 45.5326 213.165 45.3542 213.246 45.1719C213.327 44.987 213.367 44.776 213.367 44.5391ZM213.477 47.4531C213.477 47.2135 213.43 47.0234 213.336 46.8828C213.242 46.7422 213.061 46.599 212.793 46.4531C212.704 46.4036 212.586 46.3503 212.438 46.293C212.292 46.2357 212.126 46.168 211.941 46.0898C211.725 46.2331 211.56 46.4102 211.445 46.6211C211.331 46.8294 211.273 47.0677 211.273 47.3359C211.273 47.6875 211.379 47.9779 211.59 48.207C211.803 48.4362 212.07 48.5508 212.391 48.5508C212.719 48.5508 212.982 48.4531 213.18 48.2578C213.378 48.0599 213.477 47.7917 213.477 47.4531ZM212.383 49.1328C212.094 49.1328 211.831 49.0898 211.594 49.0039C211.357 48.918 211.155 48.7943 210.988 48.6328C210.824 48.4766 210.699 48.2917 210.613 48.0781C210.53 47.862 210.488 47.6341 210.488 47.3945C210.488 47.0794 210.572 46.7904 210.738 46.5273C210.908 46.2617 211.152 46.0508 211.473 45.8945V45.8711C211.186 45.7044 210.974 45.5221 210.836 45.3242C210.698 45.1263 210.629 44.8789 210.629 44.582C210.629 44.1445 210.794 43.7799 211.125 43.4883C211.456 43.1966 211.875 43.0508 212.383 43.0508C212.911 43.0508 213.335 43.1901 213.652 43.4688C213.973 43.7448 214.133 44.099 214.133 44.5312C214.133 44.7917 214.056 45.0495 213.902 45.3047C213.751 45.5599 213.533 45.7591 213.246 45.9023V45.9258C213.585 46.0846 213.841 46.2773 214.016 46.5039C214.19 46.7305 214.277 47.0221 214.277 47.3789C214.277 47.8763 214.096 48.293 213.734 48.6289C213.375 48.9648 212.924 49.1328 212.383 49.1328ZM220.785 49H217.949V48.4062H219.004V44.5078H217.949V43.9766C218.348 43.9766 218.641 43.9206 218.828 43.8086C219.018 43.694 219.125 43.4792 219.148 43.1641H219.754V48.4062H220.785V49ZM225.152 49H222.316V48.4062H223.371V44.5078H222.316V43.9766C222.715 43.9766 223.008 43.9206 223.195 43.8086C223.385 43.694 223.492 43.4792 223.516 43.1641H224.121V48.4062H225.152V49ZM229.051 45.5742C229.051 45.1784 229.014 44.8568 228.941 44.6094C228.868 44.3594 228.768 44.1667 228.641 44.0312C228.526 43.9062 228.41 43.8203 228.293 43.7734C228.176 43.7266 228.047 43.7031 227.906 43.7031C227.586 43.7031 227.331 43.8177 227.141 44.0469C226.951 44.276 226.855 44.6081 226.855 45.043C226.855 45.2878 226.887 45.4896 226.949 45.6484C227.012 45.8073 227.113 45.944 227.254 46.0586C227.353 46.1393 227.465 46.194 227.59 46.2227C227.715 46.2487 227.849 46.2617 227.992 46.2617C228.159 46.2617 228.339 46.2331 228.531 46.1758C228.724 46.1159 228.892 46.0378 229.035 45.9414C229.038 45.9023 229.04 45.8516 229.043 45.7891C229.048 45.724 229.051 45.6523 229.051 45.5742ZM226.062 45.0742C226.062 44.7747 226.111 44.5013 226.207 44.2539C226.306 44.0065 226.44 43.793 226.609 43.6133C226.771 43.4414 226.967 43.3073 227.199 43.2109C227.434 43.1146 227.671 43.0664 227.91 43.0664C228.178 43.0664 228.421 43.112 228.637 43.2031C228.855 43.2917 229.044 43.4206 229.203 43.5898C229.404 43.8034 229.559 44.0833 229.668 44.4297C229.78 44.776 229.836 45.2135 229.836 45.7422C229.836 46.224 229.781 46.681 229.672 47.1133C229.565 47.543 229.406 47.8997 229.195 48.1836C228.971 48.4857 228.702 48.7161 228.387 48.875C228.074 49.0339 227.688 49.1133 227.227 49.1133C227.122 49.1133 227.012 49.1068 226.895 49.0938C226.777 49.0833 226.668 49.0625 226.566 49.0312V48.2852H226.605C226.671 48.3216 226.772 48.3568 226.91 48.3906C227.048 48.4245 227.189 48.4414 227.332 48.4414C227.842 48.4414 228.243 48.2734 228.535 47.9375C228.827 47.6016 228.992 47.1211 229.031 46.4961C228.823 46.6367 228.624 46.7396 228.434 46.8047C228.246 46.8698 228.042 46.9023 227.82 46.9023C227.604 46.9023 227.408 46.8789 227.23 46.832C227.053 46.7852 226.875 46.694 226.695 46.5586C226.487 46.3997 226.329 46.1992 226.223 45.957C226.116 45.7122 226.062 45.418 226.062 45.0742Z" fill="#8A98B3"/>
<line x1="188.5" y1="62" x2="188.5" y2="84" stroke="#0B1325"/>
<line x1="248.5" y1="62" x2="248.5" y2="84" stroke="#0B1325"/>
<rect x="19.5" y="62.5" width="291" height="21" stroke="#5C6585" stroke-opacity="0.25"/>
<path opacity="0.2" fill-rule="evenodd" clip-rule="evenodd" d="M20.6108 83.4865V62.5132H72.0065V64.7865V81.0665V83.4865H20.6108Z" fill="url(#paint1_linear)"/>
<path d="M35.8125 73H35.0391V67.8711H32.3633V73H31.5898V67.1836H35.8125V73ZM41.2188 73H40.4453V67.8711H37.7695V73H36.9961V67.1836H41.2188V73ZM47.543 70.0312C47.543 70.3932 47.4883 70.7135 47.3789 70.9922C47.2695 71.2682 47.1172 71.5013 46.9219 71.6914C46.7109 71.8997 46.4518 72.0612 46.1445 72.1758C45.8372 72.2878 45.5195 72.3477 45.1914 72.3555V73.0625H44.4219V72.3555C44.0964 72.3451 43.7799 72.2865 43.4727 72.1797C43.1654 72.0729 42.9036 71.9128 42.6875 71.6992C42.4922 71.5091 42.3398 71.2734 42.2305 70.9922C42.1237 70.7109 42.0703 70.3906 42.0703 70.0312C42.0703 69.6927 42.1224 69.3893 42.2266 69.1211C42.3307 68.8503 42.4766 68.6172 42.6641 68.4219C42.8646 68.2135 43.1159 68.0495 43.418 67.9297C43.7201 67.8099 44.0547 67.7448 44.4219 67.7344V67.0898H45.1914V67.7344C45.5586 67.7422 45.8945 67.8073 46.1992 67.9297C46.5039 68.0495 46.7565 68.2122 46.957 68.418C47.1445 68.6107 47.2891 68.8411 47.3906 69.1094C47.4922 69.3776 47.543 69.6849 47.543 70.0312ZM46.7383 70C46.7383 69.7422 46.7018 69.5078 46.6289 69.2969C46.556 69.0833 46.4479 68.9023 46.3047 68.7539C46.1693 68.6133 46.0117 68.5091 45.832 68.4414C45.6523 68.3737 45.4388 68.3372 45.1914 68.332V71.7695C45.4258 71.7643 45.6341 71.7266 45.8164 71.6562C46.0013 71.5833 46.1536 71.487 46.2734 71.3672C46.4323 71.2109 46.5495 71.0208 46.625 70.7969C46.7005 70.5729 46.7383 70.3073 46.7383 70ZM44.4219 71.7695V68.332C44.1745 68.3346 43.9609 68.3711 43.7812 68.4414C43.6016 68.5117 43.444 68.6159 43.3086 68.7539C43.1654 68.8997 43.0573 69.0807 42.9844 69.2969C42.9115 69.513 42.875 69.7474 42.875 70C42.875 70.3073 42.9128 70.5742 42.9883 70.8008C43.0638 71.0247 43.181 71.2135 43.3398 71.3672C43.4596 71.4818 43.6107 71.5768 43.793 71.6523C43.9779 71.7279 44.1875 71.7669 44.4219 71.7695Z" fill="#8A98B3"/>
<path d="M273.306 72.0898C273.306 73.1341 273.154 73.901 272.849 74.3906C272.547 74.8776 272.079 75.1211 271.447 75.1211C270.806 75.1211 270.336 74.8724 270.036 74.375C269.737 73.8776 269.587 73.1185 269.587 72.0977C269.587 71.0482 269.738 70.2812 270.04 69.7969C270.345 69.3099 270.814 69.0664 271.447 69.0664C272.087 69.0664 272.557 69.3177 272.857 69.8203C273.156 70.3229 273.306 71.0794 273.306 72.0898ZM272.306 73.8633C272.381 73.6706 272.435 73.4271 272.466 73.1328C272.497 72.8385 272.513 72.4909 272.513 72.0898C272.513 71.6914 272.497 71.3451 272.466 71.0508C272.435 70.7565 272.38 70.5117 272.302 70.3164C272.224 70.1185 272.116 69.9688 271.978 69.8672C271.842 69.763 271.665 69.7109 271.447 69.7109C271.23 69.7109 271.052 69.763 270.911 69.8672C270.773 69.9688 270.664 70.1211 270.583 70.3242C270.505 70.5221 270.452 70.7721 270.423 71.0742C270.395 71.3763 270.38 71.7174 270.38 72.0977C270.38 72.5039 270.392 72.8438 270.415 73.1172C270.441 73.3906 270.496 73.6354 270.579 73.8516C270.655 74.0521 270.762 74.207 270.9 74.3164C271.04 74.4232 271.223 74.4766 271.447 74.4766C271.663 74.4766 271.84 74.4258 271.978 74.3242C272.118 74.2201 272.228 74.0664 272.306 73.8633ZM276.783 70.7969C276.783 71.3828 276.664 71.8177 276.427 72.1016C276.193 72.3828 275.853 72.5234 275.408 72.5234C274.954 72.5234 274.611 72.3802 274.376 72.0938C274.145 71.8073 274.029 71.3763 274.029 70.8008C274.029 70.2174 274.147 69.7839 274.384 69.5C274.621 69.2161 274.962 69.0742 275.408 69.0742C275.861 69.0742 276.203 69.2174 276.435 69.5039C276.667 69.7904 276.783 70.2214 276.783 70.7969ZM279.384 69.1836L276.337 75H275.693L278.74 69.1836H279.384ZM281.04 73.3867C281.04 73.9727 280.922 74.4076 280.685 74.6914C280.45 74.9727 280.111 75.1133 279.665 75.1133C279.212 75.1133 278.868 74.9701 278.634 74.6836C278.402 74.3971 278.286 73.9661 278.286 73.3906C278.286 72.8073 278.405 72.3737 278.642 72.0898C278.879 71.806 279.22 71.6641 279.665 71.6641C280.118 71.6641 280.461 71.8073 280.693 72.0938C280.924 72.3802 281.04 72.8112 281.04 73.3867ZM276.087 70.7969C276.087 70.401 276.04 70.1016 275.947 69.8984C275.855 69.6953 275.676 69.5938 275.408 69.5938C275.139 69.5938 274.958 69.6966 274.865 69.9023C274.771 70.1081 274.724 70.4076 274.724 70.8008C274.724 71.1914 274.768 71.4896 274.857 71.6953C274.945 71.901 275.129 72.0039 275.408 72.0039C275.676 72.0039 275.855 71.901 275.947 71.6953C276.04 71.4896 276.087 71.1901 276.087 70.7969ZM280.345 73.3867C280.345 72.9909 280.298 72.6914 280.204 72.4883C280.113 72.2852 279.934 72.1836 279.665 72.1836C279.397 72.1836 279.216 72.2865 279.122 72.4922C279.029 72.6979 278.982 72.9974 278.982 73.3906C278.982 73.7812 279.026 74.0794 279.115 74.2852C279.203 74.4909 279.387 74.5938 279.665 74.5938C279.934 74.5938 280.113 74.4909 280.204 74.2852C280.298 74.0794 280.345 73.7799 280.345 73.3867Z" fill="#8A98B3"/>
<path d="M20.6108 62H18.8918V84H20.6108V62Z" fill="#5C6585"/>
<path d="M172.586 71.5664C172.586 71.9831 172.443 72.3346 172.156 72.6211C171.87 72.9076 171.517 73.0508 171.098 73.0508C170.684 73.0508 170.332 72.9089 170.043 72.625C169.754 72.3411 169.609 71.9883 169.609 71.5664C169.609 71.1497 169.753 70.7982 170.039 70.5117C170.326 70.2253 170.678 70.082 171.098 70.082C171.517 70.082 171.87 70.2253 172.156 70.5117C172.443 70.7982 172.586 71.1497 172.586 71.5664ZM171.973 71.5664C171.973 71.3164 171.889 71.1055 171.723 70.9336C171.556 70.7617 171.348 70.6758 171.098 70.6758C170.848 70.6758 170.639 70.7617 170.473 70.9336C170.306 71.1055 170.223 71.3164 170.223 71.5664C170.223 71.8216 170.307 72.0339 170.477 72.2031C170.648 72.3724 170.855 72.457 171.098 72.457C171.348 72.457 171.556 72.3711 171.723 72.1992C171.889 72.0247 171.973 71.8138 171.973 71.5664ZM175.844 76.1055C175.464 76.1055 175.113 76.0417 174.793 75.9141C174.475 75.7865 174.201 75.5964 173.969 75.3438C173.737 75.0911 173.557 74.776 173.43 74.3984C173.302 74.0208 173.238 73.5872 173.238 73.0977C173.238 72.6107 173.299 72.1862 173.422 71.8242C173.547 71.4622 173.728 71.1471 173.965 70.8789C174.197 70.6185 174.471 70.4206 174.789 70.2852C175.107 70.1471 175.462 70.0781 175.855 70.0781C176.051 70.0781 176.233 70.0924 176.402 70.1211C176.574 70.1497 176.733 70.1862 176.879 70.2305C177.004 70.2695 177.132 70.319 177.262 70.3789C177.395 70.4362 177.525 70.5 177.652 70.5703V71.5039H177.59C177.522 71.4414 177.435 71.3659 177.328 71.2773C177.221 71.1888 177.091 71.1016 176.938 71.0156C176.789 70.9349 176.628 70.8685 176.453 70.8164C176.279 70.7643 176.077 70.7383 175.848 70.7383C175.6 70.7383 175.366 70.7891 175.145 70.8906C174.923 70.9922 174.729 71.1419 174.562 71.3398C174.398 71.5378 174.271 71.7865 174.18 72.0859C174.089 72.3854 174.043 72.7227 174.043 73.0977C174.043 73.4961 174.091 73.8398 174.188 74.1289C174.284 74.4154 174.415 74.6576 174.582 74.8555C174.743 75.0482 174.934 75.194 175.152 75.293C175.371 75.3893 175.603 75.4375 175.848 75.4375C176.072 75.4375 176.279 75.4102 176.469 75.3555C176.659 75.3008 176.828 75.2318 176.977 75.1484C177.12 75.0677 177.243 74.9857 177.348 74.9023C177.452 74.8164 177.534 74.7435 177.594 74.6836H177.652V75.6055C177.525 75.6654 177.404 75.7227 177.289 75.7773C177.177 75.832 177.04 75.8854 176.879 75.9375C176.71 75.9922 176.552 76.0339 176.406 76.0625C176.263 76.0911 176.076 76.1055 175.844 76.1055Z" fill="#8A98B3"/>
<path d="M209.848 75H206.258V74.1836C206.516 73.9388 206.759 73.7044 206.988 73.4805C207.217 73.2565 207.441 73.0234 207.66 72.7812C208.103 72.2943 208.405 71.9049 208.566 71.6133C208.728 71.319 208.809 71.0156 208.809 70.7031C208.809 70.5417 208.783 70.3997 208.73 70.2773C208.681 70.1549 208.612 70.0534 208.523 69.9727C208.432 69.8945 208.327 69.8359 208.207 69.7969C208.087 69.7578 207.956 69.7383 207.812 69.7383C207.674 69.7383 207.534 69.7565 207.391 69.793C207.25 69.8268 207.115 69.8698 206.984 69.9219C206.875 69.9661 206.77 70.0195 206.668 70.082C206.566 70.1445 206.484 70.1979 206.422 70.2422H206.379V69.4141C206.54 69.3333 206.764 69.2552 207.051 69.1797C207.34 69.1016 207.613 69.0625 207.871 69.0625C208.413 69.0625 208.837 69.207 209.145 69.4961C209.452 69.7826 209.605 70.1719 209.605 70.6641C209.605 70.8906 209.578 71.1003 209.523 71.293C209.471 71.4857 209.398 71.6641 209.305 71.8281C209.208 71.9974 209.092 72.1654 208.957 72.332C208.822 72.4987 208.678 72.6628 208.527 72.8242C208.283 73.0898 208.009 73.3659 207.707 73.6523C207.408 73.9388 207.168 74.1654 206.988 74.332H209.848V75ZM212.195 69.7383C212.055 69.7383 211.914 69.7552 211.773 69.7891C211.633 69.8229 211.495 69.8672 211.359 69.9219C211.234 69.974 211.125 70.0286 211.031 70.0859C210.94 70.1432 210.858 70.1966 210.785 70.2461H210.738V69.4219C210.908 69.3307 211.137 69.2487 211.426 69.1758C211.717 69.1003 211.995 69.0625 212.258 69.0625C212.521 69.0625 212.75 69.0898 212.945 69.1445C213.143 69.1966 213.322 69.2786 213.48 69.3906C213.652 69.5156 213.781 69.6667 213.867 69.8438C213.956 70.0208 214 70.2279 214 70.4648C214 70.7852 213.895 71.0664 213.684 71.3086C213.473 71.5508 213.22 71.7044 212.926 71.7695V71.8242C213.048 71.8477 213.178 71.888 213.316 71.9453C213.457 72.0026 213.587 72.0872 213.707 72.1992C213.827 72.3112 213.924 72.4557 214 72.6328C214.076 72.8073 214.113 73.0208 214.113 73.2734C214.113 73.5365 214.068 73.7786 213.977 74C213.888 74.2188 213.762 74.4128 213.598 74.582C213.428 74.7591 213.224 74.8932 212.984 74.9844C212.745 75.0755 212.473 75.1211 212.168 75.1211C211.876 75.1211 211.587 75.0859 211.301 75.0156C211.014 74.9453 210.773 74.8607 210.578 74.7617V73.9375H210.633C210.797 74.0573 211.017 74.1719 211.293 74.2812C211.569 74.3906 211.845 74.4453 212.121 74.4453C212.28 74.4453 212.439 74.4206 212.598 74.3711C212.759 74.319 212.893 74.2357 213 74.1211C213.104 74.0065 213.184 73.8802 213.238 73.7422C213.293 73.6042 213.32 73.4297 213.32 73.2188C213.32 73.0078 213.289 72.8346 213.227 72.6992C213.167 72.5638 213.082 72.457 212.973 72.3789C212.863 72.3008 212.733 72.2474 212.582 72.2188C212.434 72.1875 212.272 72.1719 212.098 72.1719H211.766V71.5234H212.023C212.375 71.5234 212.66 71.4401 212.879 71.2734C213.1 71.1068 213.211 70.8646 213.211 70.5469C213.211 70.401 213.182 70.276 213.125 70.1719C213.068 70.0651 212.995 69.9805 212.906 69.918C212.807 69.8503 212.698 69.8034 212.578 69.7773C212.458 69.7513 212.331 69.7383 212.195 69.7383ZM220.316 71.5742C220.316 71.1784 220.28 70.8568 220.207 70.6094C220.134 70.3594 220.034 70.1667 219.906 70.0312C219.792 69.9062 219.676 69.8203 219.559 69.7734C219.441 69.7266 219.312 69.7031 219.172 69.7031C218.852 69.7031 218.596 69.8177 218.406 70.0469C218.216 70.276 218.121 70.6081 218.121 71.043C218.121 71.2878 218.152 71.4896 218.215 71.6484C218.277 71.8073 218.379 71.944 218.52 72.0586C218.618 72.1393 218.73 72.194 218.855 72.2227C218.98 72.2487 219.115 72.2617 219.258 72.2617C219.424 72.2617 219.604 72.2331 219.797 72.1758C219.99 72.1159 220.158 72.0378 220.301 71.9414C220.303 71.9023 220.306 71.8516 220.309 71.7891C220.314 71.724 220.316 71.6523 220.316 71.5742ZM217.328 71.0742C217.328 70.7747 217.376 70.5013 217.473 70.2539C217.572 70.0065 217.706 69.793 217.875 69.6133C218.036 69.4414 218.233 69.3073 218.465 69.2109C218.699 69.1146 218.936 69.0664 219.176 69.0664C219.444 69.0664 219.686 69.112 219.902 69.2031C220.121 69.2917 220.31 69.4206 220.469 69.5898C220.669 69.8034 220.824 70.0833 220.934 70.4297C221.046 70.776 221.102 71.2135 221.102 71.7422C221.102 72.224 221.047 72.681 220.938 73.1133C220.831 73.543 220.672 73.8997 220.461 74.1836C220.237 74.4857 219.967 74.7161 219.652 74.875C219.34 75.0339 218.953 75.1133 218.492 75.1133C218.388 75.1133 218.277 75.1068 218.16 75.0938C218.043 75.0833 217.934 75.0625 217.832 75.0312V74.2852H217.871C217.936 74.3216 218.038 74.3568 218.176 74.3906C218.314 74.4245 218.454 74.4414 218.598 74.4414C219.108 74.4414 219.509 74.2734 219.801 73.9375C220.092 73.6016 220.258 73.1211 220.297 72.4961C220.089 72.6367 219.889 72.7396 219.699 72.8047C219.512 72.8698 219.307 72.9023 219.086 72.9023C218.87 72.9023 218.673 72.8789 218.496 72.832C218.319 72.7852 218.141 72.694 217.961 72.5586C217.753 72.3997 217.595 72.1992 217.488 71.957C217.382 71.7122 217.328 71.418 217.328 71.0742ZM224.602 70.5391C224.602 70.2786 224.514 70.0612 224.34 69.8867C224.165 69.7122 223.923 69.625 223.613 69.625C223.329 69.625 223.096 69.7031 222.914 69.8594C222.734 70.0156 222.645 70.2266 222.645 70.4922C222.645 70.6849 222.69 70.8477 222.781 70.9805C222.875 71.1133 223.014 71.2331 223.199 71.3398C223.28 71.3841 223.402 71.4453 223.566 71.5234C223.733 71.6016 223.884 71.6628 224.02 71.707C224.246 71.5326 224.4 71.3542 224.48 71.1719C224.561 70.987 224.602 70.776 224.602 70.5391ZM224.711 73.4531C224.711 73.2135 224.664 73.0234 224.57 72.8828C224.477 72.7422 224.296 72.599 224.027 72.4531C223.939 72.4036 223.82 72.3503 223.672 72.293C223.526 72.2357 223.361 72.168 223.176 72.0898C222.96 72.2331 222.794 72.4102 222.68 72.6211C222.565 72.8294 222.508 73.0677 222.508 73.3359C222.508 73.6875 222.613 73.9779 222.824 74.207C223.038 74.4362 223.305 74.5508 223.625 74.5508C223.953 74.5508 224.216 74.4531 224.414 74.2578C224.612 74.0599 224.711 73.7917 224.711 73.4531ZM223.617 75.1328C223.328 75.1328 223.065 75.0898 222.828 75.0039C222.591 74.918 222.389 74.7943 222.223 74.6328C222.059 74.4766 221.934 74.2917 221.848 74.0781C221.764 73.862 221.723 73.6341 221.723 73.3945C221.723 73.0794 221.806 72.7904 221.973 72.5273C222.142 72.2617 222.387 72.0508 222.707 71.8945V71.8711C222.421 71.7044 222.208 71.5221 222.07 71.3242C221.932 71.1263 221.863 70.8789 221.863 70.582C221.863 70.1445 222.029 69.7799 222.359 69.4883C222.69 69.1966 223.109 69.0508 223.617 69.0508C224.146 69.0508 224.569 69.1901 224.887 69.4688C225.207 69.7448 225.367 70.099 225.367 70.5312C225.367 70.7917 225.29 71.0495 225.137 71.3047C224.986 71.5599 224.767 71.7591 224.48 71.9023V71.9258C224.819 72.0846 225.076 72.2773 225.25 72.5039C225.424 72.7305 225.512 73.0221 225.512 73.3789C225.512 73.8763 225.331 74.293 224.969 74.6289C224.609 74.9648 224.159 75.1328 223.617 75.1328ZM229.52 75H226.684V74.4062H227.738V70.5078H226.684V69.9766C227.082 69.9766 227.375 69.9206 227.562 69.8086C227.753 69.694 227.859 69.4792 227.883 69.1641H228.488V74.4062H229.52V75Z" fill="#8A98B3"/>
<line x1="188.5" y1="89" x2="188.5" y2="110" stroke="#0B1325"/>
<line x1="248.5" y1="89" x2="248.5" y2="110" stroke="#0B1325"/>
<rect x="19.5" y="89.5" width="291" height="20" stroke="#5C6585" stroke-opacity="0.25"/>
<path opacity="0.2" fill-rule="evenodd" clip-rule="evenodd" d="M21 110V89H72V91.2762V107.577V110H21Z" fill="url(#paint2_linear)"/>
<path d="M21 89H19V110H21V89Z" fill="#F7931E"/>
<path d="M36.5508 98.1992C36.5508 98.4805 36.4961 98.7357 36.3867 98.9648C36.2773 99.194 36.1302 99.3802 35.9453 99.5234C35.7266 99.6953 35.4922 99.8177 35.2422 99.8906C34.9922 99.9635 34.6693 100 34.2734 100H32.5898V94.1836H36.1328V94.8711H33.3633V96.4648H34.2969C34.6927 96.4648 35.0156 96.4883 35.2656 96.5352C35.5156 96.5794 35.7513 96.6875 35.9727 96.8594C36.1706 97.013 36.3164 97.2031 36.4102 97.4297C36.5039 97.6562 36.5508 97.9128 36.5508 98.1992ZM35.7422 98.2148C35.7422 98.0195 35.7096 97.8477 35.6445 97.6992C35.582 97.5508 35.4818 97.431 35.3438 97.3398C35.2005 97.2435 35.0352 97.1849 34.8477 97.1641C34.6602 97.1432 34.3958 97.1328 34.0547 97.1328H33.3633V99.3398H34.0352C34.3815 99.3398 34.6471 99.3229 34.832 99.2891C35.0195 99.2552 35.1836 99.1901 35.3242 99.0938C35.4701 98.9922 35.5755 98.8737 35.6406 98.7383C35.7083 98.6003 35.7422 98.4258 35.7422 98.2148ZM41.2695 98.1992C41.2695 98.4805 41.2148 98.7357 41.1055 98.9648C40.9961 99.194 40.849 99.3802 40.6641 99.5234C40.4453 99.6953 40.2109 99.8177 39.9609 99.8906C39.7109 99.9635 39.388 100 38.9922 100H37.3086V94.1836H40.8516V94.8711H38.082V96.4648H39.0156C39.4115 96.4648 39.7344 96.4883 39.9844 96.5352C40.2344 96.5794 40.4701 96.6875 40.6914 96.8594C40.8893 97.013 41.0352 97.2031 41.1289 97.4297C41.2227 97.6562 41.2695 97.9128 41.2695 98.1992ZM40.4609 98.2148C40.4609 98.0195 40.4284 97.8477 40.3633 97.6992C40.3008 97.5508 40.2005 97.431 40.0625 97.3398C39.9193 97.2435 39.7539 97.1849 39.5664 97.1641C39.3789 97.1432 39.1146 97.1328 38.7734 97.1328H38.082V99.3398H38.7539C39.1003 99.3398 39.3659 99.3229 39.5508 99.2891C39.7383 99.2552 39.9023 99.1901 40.043 99.0938C40.1888 98.9922 40.2943 98.8737 40.3594 98.7383C40.4271 98.6003 40.4609 98.4258 40.4609 98.2148ZM47.168 97.0312C47.168 97.3932 47.1133 97.7135 47.0039 97.9922C46.8945 98.2682 46.7422 98.5013 46.5469 98.6914C46.3359 98.8997 46.0768 99.0612 45.7695 99.1758C45.4622 99.2878 45.1445 99.3477 44.8164 99.3555V100.062H44.0469V99.3555C43.7214 99.3451 43.4049 99.2865 43.0977 99.1797C42.7904 99.0729 42.5286 98.9128 42.3125 98.6992C42.1172 98.5091 41.9648 98.2734 41.8555 97.9922C41.7487 97.7109 41.6953 97.3906 41.6953 97.0312C41.6953 96.6927 41.7474 96.3893 41.8516 96.1211C41.9557 95.8503 42.1016 95.6172 42.2891 95.4219C42.4896 95.2135 42.7409 95.0495 43.043 94.9297C43.3451 94.8099 43.6797 94.7448 44.0469 94.7344V94.0898H44.8164V94.7344C45.1836 94.7422 45.5195 94.8073 45.8242 94.9297C46.1289 95.0495 46.3815 95.2122 46.582 95.418C46.7695 95.6107 46.9141 95.8411 47.0156 96.1094C47.1172 96.3776 47.168 96.6849 47.168 97.0312ZM46.3633 97C46.3633 96.7422 46.3268 96.5078 46.2539 96.2969C46.181 96.0833 46.0729 95.9023 45.9297 95.7539C45.7943 95.6133 45.6367 95.5091 45.457 95.4414C45.2773 95.3737 45.0638 95.3372 44.8164 95.332V98.7695C45.0508 98.7643 45.2591 98.7266 45.4414 98.6562C45.6263 98.5833 45.7786 98.487 45.8984 98.3672C46.0573 98.2109 46.1745 98.0208 46.25 97.7969C46.3255 97.5729 46.3633 97.3073 46.3633 97ZM44.0469 98.7695V95.332C43.7995 95.3346 43.5859 95.3711 43.4062 95.4414C43.2266 95.5117 43.069 95.6159 42.9336 95.7539C42.7904 95.8997 42.6823 96.0807 42.6094 96.2969C42.5365 96.513 42.5 96.7474 42.5 97C42.5 97.3073 42.5378 97.5742 42.6133 97.8008C42.6888 98.0247 42.806 98.2135 42.9648 98.3672C43.0846 98.4818 43.2357 98.5768 43.418 98.6523C43.6029 98.7279 43.8125 98.7669 44.0469 98.7695Z" fill="#D7E2F2"/>
<path opacity="0.2" d="M305.162 92.2197H250.287V106.71H305.162V92.2197Z" fill="url(#paint3_linear)"/>
<path d="M271.296 101.972H267.706V101.155C267.964 100.91 268.207 100.676 268.437 100.452C268.666 100.228 268.89 99.9951 269.108 99.7529C269.551 99.266 269.853 98.8766 270.015 98.585C270.176 98.2907 270.257 97.9873 270.257 97.6748C270.257 97.5133 270.231 97.3714 270.179 97.249C270.129 97.1266 270.06 97.0251 269.972 96.9443C269.881 96.8662 269.775 96.8076 269.655 96.7686C269.536 96.7295 269.404 96.71 269.261 96.71C269.123 96.71 268.982 96.7282 268.839 96.7646C268.698 96.7985 268.563 96.8415 268.433 96.8936C268.323 96.9378 268.218 96.9912 268.116 97.0537C268.015 97.1162 267.933 97.1696 267.87 97.2139H267.827V96.3857C267.989 96.305 268.213 96.2269 268.499 96.1514C268.788 96.0732 269.062 96.0342 269.319 96.0342C269.861 96.0342 270.286 96.1787 270.593 96.4678C270.9 96.7542 271.054 97.1436 271.054 97.6357C271.054 97.8623 271.026 98.0719 270.972 98.2646C270.92 98.4574 270.847 98.6357 270.753 98.7998C270.657 98.9691 270.541 99.137 270.405 99.3037C270.27 99.4704 270.127 99.6344 269.976 99.7959C269.731 100.062 269.457 100.338 269.155 100.624C268.856 100.91 268.616 101.137 268.437 101.304H271.296V101.972ZM275.366 101.972H272.53V101.378H273.585V97.4795H272.53V96.9482C272.929 96.9482 273.222 96.8923 273.409 96.7803C273.599 96.6657 273.706 96.4508 273.73 96.1357H274.335V101.378H275.366V101.972ZM277.69 101.972H276.757V100.858H277.69V101.972ZM281.687 98.5459C281.687 98.1501 281.65 97.8285 281.577 97.5811C281.504 97.3311 281.404 97.1383 281.276 97.0029C281.162 96.8779 281.046 96.792 280.929 96.7451C280.812 96.6982 280.683 96.6748 280.542 96.6748C280.222 96.6748 279.966 96.7894 279.776 97.0186C279.586 97.2477 279.491 97.5798 279.491 98.0146C279.491 98.2594 279.522 98.4613 279.585 98.6201C279.647 98.779 279.749 98.9157 279.89 99.0303C279.989 99.111 280.101 99.1657 280.226 99.1943C280.351 99.2204 280.485 99.2334 280.628 99.2334C280.795 99.2334 280.974 99.2048 281.167 99.1475C281.36 99.0876 281.528 99.0094 281.671 98.9131C281.674 98.874 281.676 98.8232 281.679 98.7607C281.684 98.6956 281.687 98.624 281.687 98.5459ZM278.698 98.0459C278.698 97.7464 278.746 97.473 278.843 97.2256C278.942 96.9782 279.076 96.7646 279.245 96.585C279.407 96.4131 279.603 96.279 279.835 96.1826C280.069 96.0863 280.306 96.0381 280.546 96.0381C280.814 96.0381 281.056 96.0837 281.272 96.1748C281.491 96.2633 281.68 96.3923 281.839 96.5615C282.039 96.7751 282.194 97.055 282.304 97.4014C282.416 97.7477 282.472 98.1852 282.472 98.7139C282.472 99.1956 282.417 99.6527 282.308 100.085C282.201 100.515 282.042 100.871 281.831 101.155C281.607 101.457 281.338 101.688 281.022 101.847C280.71 102.006 280.323 102.085 279.862 102.085C279.758 102.085 279.647 102.078 279.53 102.065C279.413 102.055 279.304 102.034 279.202 102.003V101.257H279.241C279.306 101.293 279.408 101.328 279.546 101.362C279.684 101.396 279.825 101.413 279.968 101.413C280.478 101.413 280.879 101.245 281.171 100.909C281.463 100.573 281.628 100.093 281.667 99.4678C281.459 99.6084 281.259 99.7113 281.069 99.7764C280.882 99.8415 280.677 99.874 280.456 99.874C280.24 99.874 280.043 99.8506 279.866 99.8037C279.689 99.7568 279.511 99.6657 279.331 99.5303C279.123 99.3714 278.965 99.1709 278.858 98.9287C278.752 98.6839 278.698 98.3896 278.698 98.0459ZM285.956 97.7686C285.956 98.3545 285.838 98.7894 285.601 99.0732C285.366 99.3545 285.026 99.4951 284.581 99.4951C284.128 99.4951 283.784 99.3519 283.55 99.0654C283.318 98.779 283.202 98.348 283.202 97.7725C283.202 97.1891 283.321 96.7555 283.558 96.4717C283.795 96.1878 284.136 96.0459 284.581 96.0459C285.034 96.0459 285.377 96.1891 285.608 96.4756C285.84 96.762 285.956 97.193 285.956 97.7686ZM288.558 96.1553L285.511 101.972H284.866L287.913 96.1553H288.558ZM290.214 100.358C290.214 100.944 290.095 101.379 289.858 101.663C289.624 101.944 289.284 102.085 288.839 102.085C288.386 102.085 288.042 101.942 287.808 101.655C287.576 101.369 287.46 100.938 287.46 100.362C287.46 99.779 287.578 99.3454 287.815 99.0615C288.052 98.7777 288.394 98.6357 288.839 98.6357C289.292 98.6357 289.634 98.779 289.866 99.0654C290.098 99.3519 290.214 99.7829 290.214 100.358ZM285.261 97.7686C285.261 97.3727 285.214 97.0732 285.12 96.8701C285.029 96.667 284.849 96.5654 284.581 96.5654C284.313 96.5654 284.132 96.6683 284.038 96.874C283.944 97.0798 283.897 97.3792 283.897 97.7725C283.897 98.1631 283.942 98.4613 284.03 98.667C284.119 98.8727 284.302 98.9756 284.581 98.9756C284.849 98.9756 285.029 98.8727 285.12 98.667C285.214 98.4613 285.261 98.1618 285.261 97.7686ZM289.519 100.358C289.519 99.9626 289.472 99.6631 289.378 99.46C289.287 99.2568 289.107 99.1553 288.839 99.1553C288.571 99.1553 288.39 99.2581 288.296 99.4639C288.202 99.6696 288.155 99.9691 288.155 100.362C288.155 100.753 288.2 101.051 288.288 101.257C288.377 101.463 288.56 101.565 288.839 101.565C289.107 101.565 289.287 101.463 289.378 101.257C289.472 101.051 289.519 100.752 289.519 100.358Z" fill="#F7931E"/>
<path d="M251.136 92.2197H250.287V106.71H251.136V92.2197Z" fill="#F7931E"/>
<path d="M169.637 103H168.91V99.5703L167.863 101.797H167.316L166.277 99.5703V103H165.59V98.6367H166.477L167.625 101.059L168.734 98.6367H169.637V103ZM172.164 97.7383C172.023 97.7383 171.883 97.7552 171.742 97.7891C171.602 97.8229 171.464 97.8672 171.328 97.9219C171.203 97.974 171.094 98.0286 171 98.0859C170.909 98.1432 170.827 98.1966 170.754 98.2461H170.707V97.4219C170.876 97.3307 171.105 97.2487 171.395 97.1758C171.686 97.1003 171.964 97.0625 172.227 97.0625C172.49 97.0625 172.719 97.0898 172.914 97.1445C173.112 97.1966 173.29 97.2786 173.449 97.3906C173.621 97.5156 173.75 97.6667 173.836 97.8438C173.924 98.0208 173.969 98.2279 173.969 98.4648C173.969 98.7852 173.863 99.0664 173.652 99.3086C173.441 99.5508 173.189 99.7044 172.895 99.7695V99.8242C173.017 99.8477 173.147 99.888 173.285 99.9453C173.426 100.003 173.556 100.087 173.676 100.199C173.796 100.311 173.893 100.456 173.969 100.633C174.044 100.807 174.082 101.021 174.082 101.273C174.082 101.536 174.036 101.779 173.945 102C173.857 102.219 173.73 102.413 173.566 102.582C173.397 102.759 173.193 102.893 172.953 102.984C172.714 103.076 172.441 103.121 172.137 103.121C171.845 103.121 171.556 103.086 171.27 103.016C170.983 102.945 170.742 102.861 170.547 102.762V101.938H170.602C170.766 102.057 170.986 102.172 171.262 102.281C171.538 102.391 171.814 102.445 172.09 102.445C172.249 102.445 172.408 102.421 172.566 102.371C172.728 102.319 172.862 102.236 172.969 102.121C173.073 102.007 173.152 101.88 173.207 101.742C173.262 101.604 173.289 101.43 173.289 101.219C173.289 101.008 173.258 100.835 173.195 100.699C173.135 100.564 173.051 100.457 172.941 100.379C172.832 100.301 172.702 100.247 172.551 100.219C172.402 100.188 172.241 100.172 172.066 100.172H171.734V99.5234H171.992C172.344 99.5234 172.629 99.4401 172.848 99.2734C173.069 99.1068 173.18 98.8646 173.18 98.5469C173.18 98.401 173.151 98.276 173.094 98.1719C173.036 98.0651 172.964 97.9805 172.875 97.918C172.776 97.8503 172.667 97.8034 172.547 97.7773C172.427 97.7513 172.299 97.7383 172.164 97.7383ZM177.379 96.9219L175.102 104.266H174.441L176.707 96.9219H177.379ZM181.41 103H180.676V101.297C180.447 101.372 180.224 101.431 180.008 101.473C179.792 101.514 179.578 101.535 179.367 101.535C179.182 101.535 179.001 101.512 178.824 101.465C178.65 101.415 178.499 101.336 178.371 101.227C178.243 101.117 178.145 100.978 178.074 100.809C178.007 100.637 177.973 100.435 177.973 100.203V98.6367H178.707V99.8203C178.707 100.013 178.715 100.167 178.73 100.281C178.746 100.393 178.789 100.503 178.859 100.609C178.919 100.701 179.009 100.771 179.129 100.82C179.251 100.87 179.411 100.895 179.609 100.895C179.781 100.895 179.965 100.878 180.16 100.844C180.358 100.81 180.53 100.77 180.676 100.723V98.6367H181.41V103Z" fill="white"/>
<path d="M209.848 102H206.258V101.184C206.516 100.939 206.759 100.704 206.988 100.48C207.217 100.257 207.441 100.023 207.66 99.7812C208.103 99.2943 208.405 98.9049 208.566 98.6133C208.728 98.319 208.809 98.0156 208.809 97.7031C208.809 97.5417 208.783 97.3997 208.73 97.2773C208.681 97.1549 208.612 97.0534 208.523 96.9727C208.432 96.8945 208.327 96.8359 208.207 96.7969C208.087 96.7578 207.956 96.7383 207.812 96.7383C207.674 96.7383 207.534 96.7565 207.391 96.793C207.25 96.8268 207.115 96.8698 206.984 96.9219C206.875 96.9661 206.77 97.0195 206.668 97.082C206.566 97.1445 206.484 97.1979 206.422 97.2422H206.379V96.4141C206.54 96.3333 206.764 96.2552 207.051 96.1797C207.34 96.1016 207.613 96.0625 207.871 96.0625C208.413 96.0625 208.837 96.207 209.145 96.4961C209.452 96.7826 209.605 97.1719 209.605 97.6641C209.605 97.8906 209.578 98.1003 209.523 98.293C209.471 98.4857 209.398 98.6641 209.305 98.8281C209.208 98.9974 209.092 99.1654 208.957 99.332C208.822 99.4987 208.678 99.6628 208.527 99.8242C208.283 100.09 208.009 100.366 207.707 100.652C207.408 100.939 207.168 101.165 206.988 101.332H209.848V102ZM214.242 99.0898C214.242 100.134 214.09 100.901 213.785 101.391C213.483 101.878 213.016 102.121 212.383 102.121C211.742 102.121 211.272 101.872 210.973 101.375C210.673 100.878 210.523 100.118 210.523 99.0977C210.523 98.0482 210.674 97.2812 210.977 96.7969C211.281 96.3099 211.75 96.0664 212.383 96.0664C213.023 96.0664 213.493 96.3177 213.793 96.8203C214.092 97.3229 214.242 98.0794 214.242 99.0898ZM213.242 100.863C213.318 100.671 213.371 100.427 213.402 100.133C213.434 99.8385 213.449 99.4909 213.449 99.0898C213.449 98.6914 213.434 98.3451 213.402 98.0508C213.371 97.7565 213.316 97.5117 213.238 97.3164C213.16 97.1185 213.052 96.9688 212.914 96.8672C212.779 96.763 212.602 96.7109 212.383 96.7109C212.167 96.7109 211.988 96.763 211.848 96.8672C211.71 96.9688 211.6 97.1211 211.52 97.3242C211.441 97.5221 211.388 97.7721 211.359 98.0742C211.331 98.3763 211.316 98.7174 211.316 99.0977C211.316 99.5039 211.328 99.8438 211.352 100.117C211.378 100.391 211.432 100.635 211.516 100.852C211.591 101.052 211.698 101.207 211.836 101.316C211.977 101.423 212.159 101.477 212.383 101.477C212.599 101.477 212.776 101.426 212.914 101.324C213.055 101.22 213.164 101.066 213.242 100.863ZM221.109 99.0898C221.109 100.134 220.957 100.901 220.652 101.391C220.35 101.878 219.883 102.121 219.25 102.121C218.609 102.121 218.139 101.872 217.84 101.375C217.54 100.878 217.391 100.118 217.391 99.0977C217.391 98.0482 217.542 97.2812 217.844 96.7969C218.148 96.3099 218.617 96.0664 219.25 96.0664C219.891 96.0664 220.361 96.3177 220.66 96.8203C220.96 97.3229 221.109 98.0794 221.109 99.0898ZM220.109 100.863C220.185 100.671 220.238 100.427 220.27 100.133C220.301 99.8385 220.316 99.4909 220.316 99.0898C220.316 98.6914 220.301 98.3451 220.27 98.0508C220.238 97.7565 220.184 97.5117 220.105 97.3164C220.027 97.1185 219.919 96.9688 219.781 96.8672C219.646 96.763 219.469 96.7109 219.25 96.7109C219.034 96.7109 218.855 96.763 218.715 96.8672C218.577 96.9688 218.467 97.1211 218.387 97.3242C218.309 97.5221 218.255 97.7721 218.227 98.0742C218.198 98.3763 218.184 98.7174 218.184 99.0977C218.184 99.5039 218.195 99.8438 218.219 100.117C218.245 100.391 218.299 100.635 218.383 100.852C218.458 101.052 218.565 101.207 218.703 101.316C218.844 101.423 219.026 101.477 219.25 101.477C219.466 101.477 219.643 101.426 219.781 101.324C219.922 101.22 220.031 101.066 220.109 100.863ZM225.383 100.148C225.383 100.43 225.337 100.69 225.246 100.93C225.158 101.169 225.033 101.376 224.871 101.551C224.707 101.728 224.503 101.867 224.258 101.969C224.016 102.07 223.743 102.121 223.441 102.121C223.163 102.121 222.888 102.09 222.617 102.027C222.349 101.967 222.116 101.888 221.918 101.789V100.965H221.973C222.033 101.009 222.118 101.06 222.23 101.117C222.342 101.172 222.466 101.224 222.602 101.273C222.755 101.328 222.896 101.371 223.023 101.402C223.151 101.431 223.294 101.445 223.453 101.445C223.609 101.445 223.762 101.418 223.91 101.363C224.059 101.306 224.186 101.215 224.293 101.09C224.389 100.975 224.462 100.841 224.512 100.688C224.564 100.534 224.59 100.353 224.59 100.145C224.59 99.9388 224.561 99.7695 224.504 99.6367C224.449 99.5039 224.368 99.3945 224.262 99.3086C224.15 99.2096 224.012 99.1406 223.848 99.1016C223.686 99.0599 223.505 99.0391 223.305 99.0391C223.094 99.0391 222.882 99.056 222.668 99.0898C222.454 99.1211 222.284 99.151 222.156 99.1797V96.1836H225.348V96.8672H222.91V98.4141C223.004 98.4036 223.096 98.3958 223.188 98.3906C223.279 98.3854 223.362 98.3828 223.438 98.3828C223.734 98.3828 223.986 98.4076 224.191 98.457C224.397 98.5065 224.595 98.6029 224.785 98.7461C224.978 98.8919 225.125 99.0742 225.227 99.293C225.331 99.5117 225.383 99.7969 225.383 100.148ZM229.969 100H229.277V102H228.527V100H225.957V99.1797L228.559 96.1836H229.277V99.375H229.969V100ZM228.527 99.375V97.1016L226.566 99.375H228.527Z" fill="#D7E2F2"/>
<path d="M210.321 17.0312C210.321 17.3932 210.267 17.7135 210.157 17.9922C210.048 18.2682 209.896 18.5013 209.7 18.6914C209.489 18.8997 209.23 19.0612 208.923 19.1758C208.616 19.2878 208.298 19.3477 207.97 19.3555V20.0625H207.2V19.3555C206.875 19.3451 206.558 19.2865 206.251 19.1797C205.944 19.0729 205.682 18.9128 205.466 18.6992C205.271 18.5091 205.118 18.2734 205.009 17.9922C204.902 17.7109 204.849 17.3906 204.849 17.0312C204.849 16.6927 204.901 16.3893 205.005 16.1211C205.109 15.8503 205.255 15.6172 205.442 15.4219C205.643 15.2135 205.894 15.0495 206.196 14.9297C206.498 14.8099 206.833 14.7448 207.2 14.7344V14.0898H207.97V14.7344C208.337 14.7422 208.673 14.8073 208.978 14.9297C209.282 15.0495 209.535 15.2122 209.735 15.418C209.923 15.6107 210.067 15.8411 210.169 16.1094C210.271 16.3776 210.321 16.6849 210.321 17.0312ZM209.517 17C209.517 16.7422 209.48 16.5078 209.407 16.2969C209.334 16.0833 209.226 15.9023 209.083 15.7539C208.948 15.6133 208.79 15.5091 208.61 15.4414C208.431 15.3737 208.217 15.3372 207.97 15.332V18.7695C208.204 18.7643 208.412 18.7266 208.595 18.6562C208.78 18.5833 208.932 18.487 209.052 18.3672C209.211 18.2109 209.328 18.0208 209.403 17.7969C209.479 17.5729 209.517 17.3073 209.517 17ZM207.2 18.7695V15.332C206.953 15.3346 206.739 15.3711 206.56 15.4414C206.38 15.5117 206.222 15.6159 206.087 15.7539C205.944 15.8997 205.836 16.0807 205.763 16.2969C205.69 16.513 205.653 16.7474 205.653 17C205.653 17.3073 205.691 17.5742 205.767 17.8008C205.842 18.0247 205.959 18.2135 206.118 18.3672C206.238 18.4818 206.389 18.5768 206.571 18.6523C206.756 18.7279 206.966 18.7669 207.2 18.7695ZM213.552 18.9258V17.7148C213.377 17.7305 213.156 17.7526 212.888 17.7812C212.622 17.8073 212.407 17.8451 212.243 17.8945C212.048 17.9544 211.886 18.0469 211.759 18.1719C211.631 18.2943 211.567 18.4661 211.567 18.6875C211.567 18.9375 211.638 19.1263 211.778 19.2539C211.919 19.3815 212.125 19.4453 212.396 19.4453C212.627 19.4453 212.837 19.3958 213.024 19.2969C213.212 19.1953 213.388 19.0716 213.552 18.9258ZM213.552 19.5352C213.492 19.5794 213.411 19.6419 213.31 19.7227C213.211 19.8008 213.114 19.8633 213.021 19.9102C212.89 19.9779 212.764 20.0299 212.642 20.0664C212.522 20.1029 212.353 20.1211 212.134 20.1211C211.954 20.1211 211.784 20.0872 211.622 20.0195C211.461 19.9518 211.319 19.8568 211.196 19.7344C211.079 19.6146 210.985 19.4674 210.915 19.293C210.845 19.1159 210.81 18.9297 210.81 18.7344C210.81 18.4323 210.873 18.1758 211.001 17.9648C211.129 17.7513 211.33 17.582 211.606 17.457C211.851 17.3451 212.14 17.2682 212.474 17.2266C212.807 17.1823 213.166 17.1497 213.552 17.1289V16.9883C213.552 16.8164 213.526 16.6784 213.474 16.5742C213.422 16.4674 213.349 16.3854 213.255 16.3281C213.161 16.2682 213.047 16.2292 212.911 16.2109C212.776 16.1901 212.636 16.1797 212.493 16.1797C212.324 16.1797 212.125 16.2057 211.896 16.2578C211.666 16.3073 211.437 16.3802 211.208 16.4766H211.165V15.7305C211.3 15.6914 211.494 15.6484 211.747 15.6016C212 15.5547 212.25 15.5312 212.497 15.5312C212.797 15.5312 213.049 15.5547 213.255 15.6016C213.461 15.6484 213.646 15.7331 213.81 15.8555C213.968 15.9753 214.087 16.1302 214.165 16.3203C214.243 16.5104 214.282 16.7422 214.282 17.0156V20H213.552V19.5352ZM218.829 20H217.915L216.419 17.9883H216.052V20H215.317V15.6367H216.052V17.5352C216.242 17.5326 216.403 17.4935 216.536 17.418C216.672 17.3398 216.786 17.1901 216.88 16.9688C216.909 16.9036 216.94 16.8281 216.974 16.7422C217.01 16.6562 217.039 16.5807 217.06 16.5156C217.174 16.1953 217.333 15.9688 217.536 15.8359C217.739 15.7031 218.004 15.6367 218.329 15.6367H218.528V16.2695H218.36C218.155 16.2695 218 16.3125 217.896 16.3984C217.794 16.4818 217.708 16.6354 217.638 16.8594C217.565 17.0859 217.479 17.263 217.38 17.3906C217.281 17.5156 217.172 17.612 217.052 17.6797L218.829 20ZM222.489 16.2812H221.005V20H220.271V16.2812H218.786V15.6367H222.489V16.2812Z" fill="#8A98B3"/>
<line x1="181.485" y1="7" x2="181.485" y2="28" stroke="#0B1325"/>
<path d="M273.497 20H272.723V14.9883L271.208 18.3984H270.739L269.235 14.9883V20H268.512V14.1836H269.567L271.02 17.4219L272.423 14.1836H273.497V20ZM278.208 17.8203C278.208 18.5547 278.031 19.1224 277.677 19.5234C277.322 19.9219 276.851 20.1211 276.262 20.1211C275.656 20.1211 275.178 19.9154 274.829 19.5039C274.483 19.0898 274.309 18.5286 274.309 17.8203C274.309 17.0911 274.488 16.5247 274.844 16.1211C275.204 15.7174 275.677 15.5156 276.262 15.5156C276.851 15.5156 277.322 15.7174 277.677 16.1211C278.031 16.5221 278.208 17.0885 278.208 17.8203ZM277.45 17.8203C277.45 17.2552 277.347 16.8359 277.141 16.5625C276.936 16.2865 276.643 16.1484 276.262 16.1484C275.88 16.1484 275.584 16.2865 275.376 16.5625C275.17 16.8359 275.067 17.2552 275.067 17.8203C275.067 18.3672 275.17 18.7826 275.376 19.0664C275.584 19.3477 275.88 19.4883 276.262 19.4883C276.64 19.4883 276.932 19.3503 277.137 19.0742C277.346 18.7956 277.45 18.3776 277.45 17.8203ZM282.704 21.0469H282.02V19.9883H279.145V21.0469H278.462V19.375H278.751C278.998 18.9688 279.2 18.4388 279.356 17.7852C279.515 17.1289 279.594 16.4128 279.594 15.6367H282.27V19.375H282.704V21.0469ZM281.536 19.375V16.2539H280.286C280.252 16.9049 280.162 17.5 280.016 18.0391C279.873 18.5755 279.692 19.0208 279.473 19.375H281.536ZM285.325 20.1016C284.63 20.1016 284.089 19.9062 283.704 19.5156C283.321 19.1224 283.13 18.5651 283.13 17.8438C283.13 17.1328 283.316 16.5677 283.688 16.1484C284.061 15.7266 284.548 15.5156 285.149 15.5156C285.42 15.5156 285.66 15.5547 285.868 15.6328C286.076 15.7109 286.259 15.8333 286.415 16C286.571 16.1667 286.691 16.3711 286.774 16.6133C286.858 16.8529 286.899 17.1471 286.899 17.4961V17.8945H283.876C283.876 18.4023 284.003 18.7904 284.259 19.0586C284.514 19.3268 284.867 19.4609 285.317 19.4609C285.479 19.4609 285.636 19.4427 285.79 19.4062C285.946 19.3698 286.087 19.3229 286.212 19.2656C286.344 19.2057 286.456 19.1484 286.548 19.0938C286.639 19.0365 286.714 18.9831 286.774 18.9336H286.817V19.7344C286.731 19.7682 286.624 19.8112 286.497 19.8633C286.369 19.9128 286.255 19.9518 286.153 19.9805C286.01 20.0195 285.88 20.0495 285.762 20.0703C285.648 20.0911 285.502 20.1016 285.325 20.1016ZM286.184 17.332C286.179 17.1341 286.156 16.9635 286.114 16.8203C286.072 16.6771 286.012 16.556 285.934 16.457C285.848 16.3477 285.738 16.2643 285.602 16.207C285.469 16.1497 285.304 16.1211 285.106 16.1211C284.911 16.1211 284.744 16.151 284.606 16.2109C284.471 16.2682 284.347 16.3529 284.235 16.4648C284.126 16.5794 284.042 16.707 283.985 16.8477C283.928 16.9857 283.891 17.1471 283.876 17.332H286.184ZM291.02 20H290.286V16.2539H288.786C288.778 16.4701 288.77 16.6784 288.762 16.8789C288.755 17.0768 288.747 17.2565 288.739 17.418C288.723 17.8268 288.696 18.1693 288.657 18.4453C288.621 18.7214 288.574 18.9427 288.516 19.1094C288.459 19.2812 288.395 19.4154 288.325 19.5117C288.257 19.6081 288.18 19.6953 288.094 19.7734C288.006 19.8516 287.911 19.9102 287.809 19.9492C287.708 19.9883 287.593 20.0078 287.466 20.0078C287.424 20.0078 287.371 20.0065 287.305 20.0039C287.24 20.0013 287.195 20 287.169 20V19.3594H287.208C287.226 19.3594 287.244 19.3607 287.262 19.3633C287.283 19.3659 287.307 19.3672 287.333 19.3672C287.395 19.3672 287.456 19.3581 287.516 19.3398C287.576 19.3216 287.63 19.2878 287.677 19.2383C287.807 19.1107 287.902 18.888 287.962 18.5703C288.022 18.25 288.065 17.8034 288.091 17.2305C288.101 17.0169 288.11 16.7643 288.118 16.4727C288.128 16.181 288.137 15.9023 288.145 15.6367H291.02V20ZM295.391 18.6484C295.391 18.8594 295.348 19.0508 295.262 19.2227C295.179 19.3945 295.065 19.5339 294.919 19.6406C294.747 19.7708 294.563 19.8633 294.368 19.918C294.173 19.9727 293.921 20 293.614 20H292.087V15.6367H292.821V17.3359H293.634C293.962 17.3359 294.216 17.3529 294.395 17.3867C294.578 17.4206 294.759 17.5039 294.938 17.6367C295.089 17.7487 295.203 17.8919 295.278 18.0664C295.354 18.2409 295.391 18.4349 295.391 18.6484ZM294.634 18.6602C294.634 18.5273 294.61 18.4115 294.563 18.3125C294.519 18.2109 294.445 18.1289 294.341 18.0664C294.231 18.0013 294.106 17.9622 293.966 17.9492C293.828 17.9362 293.628 17.9297 293.368 17.9297H292.821V19.4141H293.352C293.613 19.4141 293.815 19.4036 293.958 19.3828C294.101 19.3594 294.225 19.3164 294.329 19.2539C294.436 19.1862 294.512 19.1068 294.559 19.0156C294.609 18.9219 294.634 18.8034 294.634 18.6602Z" fill="#8A98B3"/>
<line x1="250.609" y1="7" x2="250.609" y2="28" stroke="#0B1325"/>
<path d="M24.6836 21H23.9102V15.8711H21.2344V21H20.4609V15.1836H24.6836V21ZM28.2461 19.9258V18.7148C28.0716 18.7305 27.8503 18.7526 27.582 18.7812C27.3164 18.8073 27.1016 18.8451 26.9375 18.8945C26.7422 18.9544 26.5807 19.0469 26.4531 19.1719C26.3255 19.2943 26.2617 19.4661 26.2617 19.6875C26.2617 19.9375 26.332 20.1263 26.4727 20.2539C26.6133 20.3815 26.819 20.4453 27.0898 20.4453C27.3216 20.4453 27.5312 20.3958 27.7188 20.2969C27.9062 20.1953 28.082 20.0716 28.2461 19.9258ZM28.2461 20.5352C28.1862 20.5794 28.1055 20.6419 28.0039 20.7227C27.9049 20.8008 27.8086 20.8633 27.7148 20.9102C27.5846 20.9779 27.4583 21.0299 27.3359 21.0664C27.2161 21.1029 27.0469 21.1211 26.8281 21.1211C26.6484 21.1211 26.4779 21.0872 26.3164 21.0195C26.1549 20.9518 26.013 20.8568 25.8906 20.7344C25.7734 20.6146 25.6797 20.4674 25.6094 20.293C25.5391 20.1159 25.5039 19.9297 25.5039 19.7344C25.5039 19.4323 25.5677 19.1758 25.6953 18.9648C25.8229 18.7513 26.0247 18.582 26.3008 18.457C26.5456 18.3451 26.8346 18.2682 27.168 18.2266C27.5013 18.1823 27.8607 18.1497 28.2461 18.1289V17.9883C28.2461 17.8164 28.2201 17.6784 28.168 17.5742C28.1159 17.4674 28.043 17.3854 27.9492 17.3281C27.8555 17.2682 27.7409 17.2292 27.6055 17.2109C27.4701 17.1901 27.3307 17.1797 27.1875 17.1797C27.0182 17.1797 26.819 17.2057 26.5898 17.2578C26.3607 17.3073 26.1315 17.3802 25.9023 17.4766H25.8594V16.7305C25.9948 16.6914 26.1888 16.6484 26.4414 16.6016C26.694 16.5547 26.944 16.5312 27.1914 16.5312C27.4909 16.5312 27.7435 16.5547 27.9492 16.6016C28.1549 16.6484 28.3398 16.7331 28.5039 16.8555C28.6628 16.9753 28.7812 17.1302 28.8594 17.3203C28.9375 17.5104 28.9766 17.7422 28.9766 18.0156V21H28.2461V20.5352ZM33.6719 18.7031C33.6719 19.4297 33.4974 20.0091 33.1484 20.4414C32.8021 20.8711 32.3633 21.0859 31.832 21.0859C31.6159 21.0859 31.4245 21.0612 31.2578 21.0117C31.0911 20.9622 30.9206 20.8854 30.7461 20.7812V22.6094H30.0117V16.6367H30.7461V17.0938C30.9284 16.9297 31.1302 16.793 31.3516 16.6836C31.5755 16.5716 31.819 16.5156 32.082 16.5156C32.582 16.5156 32.9714 16.7135 33.25 17.1094C33.5312 17.5052 33.6719 18.0365 33.6719 18.7031ZM32.9141 18.7852C32.9141 18.2878 32.8346 17.9023 32.6758 17.6289C32.5169 17.3529 32.2591 17.2148 31.9023 17.2148C31.694 17.2148 31.4922 17.2617 31.2969 17.3555C31.1042 17.4466 30.9206 17.5651 30.7461 17.7109V20.1836C30.9388 20.2773 31.1029 20.3411 31.2383 20.375C31.3763 20.4089 31.5339 20.4258 31.7109 20.4258C32.0911 20.4258 32.3867 20.2865 32.5977 20.0078C32.8086 19.7292 32.9141 19.3216 32.9141 18.7852ZM36.8711 19.9258V18.7148C36.6966 18.7305 36.4753 18.7526 36.207 18.7812C35.9414 18.8073 35.7266 18.8451 35.5625 18.8945C35.3672 18.9544 35.2057 19.0469 35.0781 19.1719C34.9505 19.2943 34.8867 19.4661 34.8867 19.6875C34.8867 19.9375 34.957 20.1263 35.0977 20.2539C35.2383 20.3815 35.444 20.4453 35.7148 20.4453C35.9466 20.4453 36.1562 20.3958 36.3438 20.2969C36.5312 20.1953 36.707 20.0716 36.8711 19.9258ZM36.8711 20.5352C36.8112 20.5794 36.7305 20.6419 36.6289 20.7227C36.5299 20.8008 36.4336 20.8633 36.3398 20.9102C36.2096 20.9779 36.0833 21.0299 35.9609 21.0664C35.8411 21.1029 35.6719 21.1211 35.4531 21.1211C35.2734 21.1211 35.1029 21.0872 34.9414 21.0195C34.7799 20.9518 34.638 20.8568 34.5156 20.7344C34.3984 20.6146 34.3047 20.4674 34.2344 20.293C34.1641 20.1159 34.1289 19.9297 34.1289 19.7344C34.1289 19.4323 34.1927 19.1758 34.3203 18.9648C34.4479 18.7513 34.6497 18.582 34.9258 18.457C35.1706 18.3451 35.4596 18.2682 35.793 18.2266C36.1263 18.1823 36.4857 18.1497 36.8711 18.1289V17.9883C36.8711 17.8164 36.8451 17.6784 36.793 17.5742C36.7409 17.4674 36.668 17.3854 36.5742 17.3281C36.4805 17.2682 36.3659 17.2292 36.2305 17.2109C36.0951 17.1901 35.9557 17.1797 35.8125 17.1797C35.6432 17.1797 35.444 17.2057 35.2148 17.2578C34.9857 17.3073 34.7565 17.3802 34.5273 17.4766H34.4844V16.7305C34.6198 16.6914 34.8138 16.6484 35.0664 16.6016C35.319 16.5547 35.569 16.5312 35.8164 16.5312C36.1159 16.5312 36.3685 16.5547 36.5742 16.6016C36.7799 16.6484 36.9648 16.7331 37.1289 16.8555C37.2878 16.9753 37.4062 17.1302 37.4844 17.3203C37.5625 17.5104 37.6016 17.7422 37.6016 18.0156V21H36.8711V20.5352ZM42.6836 21H41.957V17.5703L40.9102 19.7969H40.3633L39.3242 17.5703V21H38.6367V16.6367H39.5234L40.6719 19.0586L41.7812 16.6367H42.6836V21ZM45.6406 21.1016C44.9453 21.1016 44.4049 20.9062 44.0195 20.5156C43.6367 20.1224 43.4453 19.5651 43.4453 18.8438C43.4453 18.1328 43.6315 17.5677 44.0039 17.1484C44.3763 16.7266 44.8633 16.5156 45.4648 16.5156C45.7357 16.5156 45.9753 16.5547 46.1836 16.6328C46.3919 16.7109 46.5742 16.8333 46.7305 17C46.8867 17.1667 47.0065 17.3711 47.0898 17.6133C47.1732 17.8529 47.2148 18.1471 47.2148 18.4961V18.8945H44.1914C44.1914 19.4023 44.319 19.7904 44.5742 20.0586C44.8294 20.3268 45.1823 20.4609 45.6328 20.4609C45.7943 20.4609 45.9518 20.4427 46.1055 20.4062C46.2617 20.3698 46.4023 20.3229 46.5273 20.2656C46.6602 20.2057 46.7721 20.1484 46.8633 20.0938C46.9544 20.0365 47.0299 19.9831 47.0898 19.9336H47.1328V20.7344C47.0469 20.7682 46.9401 20.8112 46.8125 20.8633C46.6849 20.9128 46.5703 20.9518 46.4688 20.9805C46.3255 21.0195 46.1953 21.0495 46.0781 21.0703C45.9635 21.0911 45.8177 21.1016 45.6406 21.1016ZM46.5 18.332C46.4948 18.1341 46.4714 17.9635 46.4297 17.8203C46.388 17.6771 46.3281 17.556 46.25 17.457C46.1641 17.3477 46.0534 17.2643 45.918 17.207C45.7852 17.1497 45.6198 17.1211 45.4219 17.1211C45.2266 17.1211 45.0599 17.151 44.9219 17.2109C44.7865 17.2682 44.6628 17.3529 44.5508 17.4648C44.4414 17.5794 44.3581 17.707 44.3008 17.8477C44.2435 17.9857 44.207 18.1471 44.1914 18.332H46.5ZM51.1445 17.2812H49.6602V21H48.9258V17.2812H47.4414V16.6367H51.1445V17.2812ZM55.3516 18.7031C55.3516 19.4297 55.1771 20.0091 54.8281 20.4414C54.4818 20.8711 54.043 21.0859 53.5117 21.0859C53.2956 21.0859 53.1042 21.0612 52.9375 21.0117C52.7708 20.9622 52.6003 20.8854 52.4258 20.7812V22.6094H51.6914V16.6367H52.4258V17.0938C52.6081 16.9297 52.8099 16.793 53.0312 16.6836C53.2552 16.5716 53.4987 16.5156 53.7617 16.5156C54.2617 16.5156 54.651 16.7135 54.9297 17.1094C55.2109 17.5052 55.3516 18.0365 55.3516 18.7031ZM54.5938 18.7852C54.5938 18.2878 54.5143 17.9023 54.3555 17.6289C54.1966 17.3529 53.9388 17.2148 53.582 17.2148C53.3737 17.2148 53.1719 17.2617 52.9766 17.3555C52.7839 17.4466 52.6003 17.5651 52.4258 17.7109V20.1836C52.6185 20.2773 52.7826 20.3411 52.918 20.375C53.056 20.4089 53.2135 20.4258 53.3906 20.4258C53.7708 20.4258 54.0664 20.2865 54.2773 20.0078C54.4883 19.7292 54.5938 19.3216 54.5938 18.7852ZM59.3516 19.6484C59.3516 19.8594 59.3086 20.0508 59.2227 20.2227C59.1393 20.3945 59.0247 20.5339 58.8789 20.6406C58.707 20.7708 58.5234 20.8633 58.3281 20.918C58.1328 20.9727 57.8815 21 57.5742 21H56.1133V16.6367H56.8477V18.3359H57.5938C57.9219 18.3359 58.1758 18.3529 58.3555 18.3867C58.5378 18.4206 58.7188 18.5039 58.8984 18.6367C59.0495 18.7487 59.1628 18.8919 59.2383 19.0664C59.3138 19.2409 59.3516 19.4349 59.3516 19.6484ZM58.5938 19.6602C58.5938 19.5273 58.5703 19.4115 58.5234 19.3125C58.4792 19.2109 58.4049 19.1289 58.3008 19.0664C58.1914 19.0013 58.0664 18.9622 57.9258 18.9492C57.7878 18.9362 57.5885 18.9297 57.3281 18.9297H56.8477V20.4141H57.3125C57.5729 20.4141 57.7747 20.4036 57.918 20.3828C58.0612 20.3594 58.1849 20.3164 58.2891 20.2539C58.3958 20.1862 58.4727 20.1068 58.5195 20.0156C58.569 19.9219 58.5938 19.8034 58.5938 19.6602ZM60.5938 21H59.8594V16.6367H60.5938V21Z" fill="#8A98B3"/>
</g>
<defs>
<linearGradient id="paint0_linear" x1="20.6287" y1="45.5108" x2="72.0325" y2="45.5108" gradientUnits="userSpaceOnUse">
<stop stop-color="#5B607D"/>
<stop offset="0.838" stop-color="#5B607D" stop-opacity="0"/>
</linearGradient>
<linearGradient id="paint1_linear" x1="20.6287" y1="73.0102" x2="72.0325" y2="73.0102" gradientUnits="userSpaceOnUse">
<stop stop-color="#5B607D"/>
<stop offset="0.838" stop-color="#5B607D" stop-opacity="0"/>
</linearGradient>
<linearGradient id="paint2_linear" x1="21.0005" y1="99.4982" x2="75.6898" y2="99.4982" gradientUnits="userSpaceOnUse">
<stop stop-color="#FF8C00"/>
<stop offset="0.838" stop-color="#FF8C00" stop-opacity="0"/>
</linearGradient>
<linearGradient id="paint3_linear" x1="250.287" y1="99.4635" x2="309.132" y2="99.4635" gradientUnits="userSpaceOnUse">
<stop stop-color="#FF8C00"/>
<stop offset="0.838" stop-color="#FF8C00" stop-opacity="0"/>
</linearGradient>
<clipPath id="clip0">
<rect width="324" height="116.75" fill="white"/>
</clipPath>
</defs>
</svg>
