<svg xmlns="http://www.w3.org/2000/svg" xmlns:xlink="http://www.w3.org/1999/xlink" viewBox="0 0 324 116.75"><defs><style>.b98902a1-23c3-46c5-891d-8253c69c4b51,.f84e8807-c28b-45a3-9608-d98feda080df{opacity:0.2;}.b98902a1-23c3-46c5-891d-8253c69c4b51{fill:url(#fb6b5d86-9de5-490f-8bec-70965a7de04e);}.a20f39d4-8df8-42aa-8bd5-b8df969465d5,.a78f0a42-dffd-499d-91d7-383f64b4cfec{stroke:#131822;}.a20f39d4-8df8-42aa-8bd5-b8df969465d5,.a78f0a42-dffd-499d-91d7-383f64b4cfec,.f598ec06-7c49-46a6-a250-3dca60358160{stroke-miterlimit:10;stroke-width:0.5px;}.a20f39d4-8df8-42aa-8bd5-b8df969465d5,.f598ec06-7c49-46a6-a250-3dca60358160{fill:none;}.f84e8807-c28b-45a3-9608-d98feda080df{fill:url(#bc7e5268-e0ed-4be3-b2eb-b096e261a1f0);}.a3719666-aa93-48ce-98d1-4aeb42786beb,.b6b478bf-2cac-4edd-8b4f-be55c6f9bfba{font-size:6.21px;}.b6b478bf-2cac-4edd-8b4f-be55c6f9bfba{fill:#8b95ad;}.a3719666-aa93-48ce-98d1-4aeb42786beb,.b6b478bf-2cac-4edd-8b4f-be55c6f9bfba,.bad19156-7d88-483f-b420-51e180203ab1,.bae1f1e5-8a3d-4418-9445-35eda090f478{font-family:Tahoma;}.bae1f1e5-8a3d-4418-9445-35eda090f478{font-size:5px;}.bad19156-7d88-483f-b420-51e180203ab1,.bae1f1e5-8a3d-4418-9445-35eda090f478,.f92d5a65-b7d0-4b23-9395-3bb100d951dd{fill:#fff;}.baa6e587-6be8-4421-b88b-f69ba4ae980e{fill:#41a7f3;}.aea5e377-4a4b-4a27-9cd8-b047815b0165{fill:url(#ffd1de73-2740-44a1-84bb-ae899d141cce);}.ff2a509b-4547-4d29-98fd-0abfc3df1312{fill:url(#b1241df5-2ac9-47b3-a875-d46630ddb6fd);}.f598ec06-7c49-46a6-a250-3dca60358160{stroke:#41a7f3;}.b4d1f05f-8260-41eb-b2dd-cf5508b8f12c{fill:url(#f0dbc0fb-4107-46d2-9962-050538f57d78);}.a3719666-aa93-48ce-98d1-4aeb42786beb{fill:#fffdff;}.bad19156-7d88-483f-b420-51e180203ab1{font-size:5.08px;}.fea0f0c7-dc83-45b8-b952-9603a6d32921{fill:#1a1d26;}</style><linearGradient id="fb6b5d86-9de5-490f-8bec-70965a7de04e" x1="220.98" y1="5.91" x2="220.98" y2="20.62" gradientUnits="userSpaceOnUse"><stop offset="0" stop-color="#5b607d"/><stop offset="0.84" stop-color="#5b607d"/></linearGradient><linearGradient id="bc7e5268-e0ed-4be3-b2eb-b096e261a1f0" x1="62.1" y1="5.91" x2="62.1" y2="20.62" xlink:href="#fb6b5d86-9de5-490f-8bec-70965a7de04e"/><linearGradient id="ffd1de73-2740-44a1-84bb-ae899d141cce" x1="-1367.64" y1="5897.41" x2="-1367.64" y2="5789.52" gradientTransform="translate(1429.81 -5816.24)" gradientUnits="userSpaceOnUse"><stop offset="0" stop-color="#41a7f3"/><stop offset="0.03" stop-color="#41a7f3" stop-opacity="0.93"/><stop offset="0.14" stop-color="#41a7f3" stop-opacity="0.72"/><stop offset="0.25" stop-color="#41a7f3" stop-opacity="0.52"/><stop offset="0.36" stop-color="#41a7f3" stop-opacity="0.36"/><stop offset="0.47" stop-color="#41a7f3" stop-opacity="0.23"/><stop offset="0.59" stop-color="#41a7f3" stop-opacity="0.13"/><stop offset="0.71" stop-color="#41a7f3" stop-opacity="0.06"/><stop offset="0.84" stop-color="#41a7f3" stop-opacity="0.01"/><stop offset="1" stop-color="#41a7f3" stop-opacity="0"/></linearGradient><linearGradient id="b1241df5-2ac9-47b3-a875-d46630ddb6fd" x1="-5816.78" y1="208.37" x2="-5816.78" y2="108.02" gradientTransform="translate(5991 -117.68)" gradientUnits="userSpaceOnUse"><stop offset="0" stop-color="#41a7f3"/><stop offset="0.04" stop-color="#41a7f3" stop-opacity="0.81"/><stop offset="0.08" stop-color="#41a7f3" stop-opacity="0.65"/><stop offset="0.13" stop-color="#41a7f3" stop-opacity="0.49"/><stop offset="0.19" stop-color="#41a7f3" stop-opacity="0.36"/><stop offset="0.25" stop-color="#41a7f3" stop-opacity="0.24"/><stop offset="0.31" stop-color="#41a7f3" stop-opacity="0.15"/><stop offset="0.39" stop-color="#41a7f3" stop-opacity="0.08"/><stop offset="0.49" stop-color="#41a7f3" stop-opacity="0.04"/><stop offset="0.62" stop-color="#41a7f3" stop-opacity="0.01"/><stop offset="1" stop-color="#41a7f3" stop-opacity="0"/></linearGradient><linearGradient id="f0dbc0fb-4107-46d2-9962-050538f57d78" x1="-6830.37" y1="4308.35" x2="-6830.37" y2="4323.56" gradientTransform="translate(7003.86 -4303.03)" xlink:href="#b1241df5-2ac9-47b3-a875-d46630ddb6fd"/></defs><title>Макеты (4)-41</title><g id="b3312d82-7268-413d-bb5f-6648ca8956d7" data-name="Prew"><path class="b98902a1-23c3-46c5-891d-8253c69c4b51" d="M123.17,20.62H318.79l0-10.57c-1.36-1.18-3.84-3-5.19-4.14H128.39l-5.2,4.52Z"/><line class="a78f0a42-dffd-499d-91d7-383f64b4cfec" x1="223.81" y1="21.24" x2="223.81" y2="111.71"/><line class="a78f0a42-dffd-499d-91d7-383f64b4cfec" x1="224.1" y1="33.9" x2="123.29" y2="33.9"/><line class="a78f0a42-dffd-499d-91d7-383f64b4cfec" x1="224.1" y1="47.13" x2="123.29" y2="47.13"/><line class="a78f0a42-dffd-499d-91d7-383f64b4cfec" x1="224.1" y1="60.73" x2="123.29" y2="60.73"/><line class="a78f0a42-dffd-499d-91d7-383f64b4cfec" x1="224.1" y1="73.96" x2="123.29" y2="73.96"/><line class="a78f0a42-dffd-499d-91d7-383f64b4cfec" x1="224.1" y1="87.19" x2="123.29" y2="87.19"/><line class="a20f39d4-8df8-42aa-8bd5-b8df969465d5" x1="224.1" y1="100.42" x2="123.29" y2="100.42"/><path class="f84e8807-c28b-45a3-9608-d98feda080df" d="M7.89,20.62H116.3l0-10.57c-1.32-1.18-3.75-3-5.07-4.14H13L7.91,10.43Z"/><text class="b6b478bf-2cac-4edd-8b4f-be55c6f9bfba" transform="translate(21.95 15.11)">Наименование справочника</text><text class="bae1f1e5-8a3d-4418-9445-35eda090f478" transform="translate(130.17 28.85)">Иванов Иван Иванович</text><rect class="baa6e587-6be8-4421-b88b-f69ba4ae980e" x="2.42" y="26.86" width="11.22" height="0.71" transform="translate(35.25 19.19) rotate(90)"/><rect class="aea5e377-4a4b-4a27-9cd8-b047815b0165" x="56.56" y="-26.72" width="11.21" height="107.89" transform="translate(34.95 89.39) rotate(-90)"/><rect class="baa6e587-6be8-4421-b88b-f69ba4ae980e" x="116.49" y="40.13" width="12.85" height="0.76" transform="translate(163.43 -82.4) rotate(90)"/><rect class="ff2a509b-4547-4d29-98fd-0abfc3df1312" x="167.8" y="-9.66" width="12.85" height="100.34" transform="translate(214.73 -133.71) rotate(90)"/><text class="bae1f1e5-8a3d-4418-9445-35eda090f478" transform="translate(130.17 41.7)">Петров Дмитрий Карлович</text><circle class="f598ec06-7c49-46a6-a250-3dca60358160" cx="132.99" cy="12.88" r="2.12"/><circle class="baa6e587-6be8-4421-b88b-f69ba4ae980e" cx="132.99" cy="12.88" r="1.13"/><rect class="b4d1f05f-8260-41eb-b2dd-cf5508b8f12c" x="123.01" y="5.32" width="100.97" height="15.21" transform="translate(346.98 25.85) rotate(180)"/><text class="a3719666-aa93-48ce-98d1-4aeb42786beb" transform="translate(169.21 15.11)">ФИО</text><path class="f92d5a65-b7d0-4b23-9395-3bb100d951dd" d="M211.36,41.78v1h1l2.93-2.93-1-1ZM216,39.09a.25.25,0,0,0,0-.37l-.61-.62a.28.28,0,0,0-.38,0l-.48.48,1,1Z"/><text class="bad19156-7d88-483f-b420-51e180203ab1" transform="translate(15.58 42.14)">Установки</text><text class="bad19156-7d88-483f-b420-51e180203ab1" transform="translate(15.01 28.79)">Сотрудники</text><text class="bad19156-7d88-483f-b420-51e180203ab1" transform="translate(15.08 55.64)">Профессии</text><text class="bad19156-7d88-483f-b420-51e180203ab1" transform="translate(15.08 70.58)">Отчеты</text><text class="b6b478bf-2cac-4edd-8b4f-be55c6f9bfba" transform="translate(244.2 15.11)">Другая информация</text><path class="baa6e587-6be8-4421-b88b-f69ba4ae980e" d="M276.36,70.82a2,2,0,0,1-.68-.12l-15.94-6a2,2,0,0,1-1.08-1,1.92,1.92,0,0,1-.05-1.47l7.66-20.51a1.92,1.92,0,0,1,1.79-1.25,2,2,0,0,1,.68.12l15.94,6a2,2,0,0,1,1.08,1,1.92,1.92,0,0,1,.05,1.47l-7.66,20.51A1.92,1.92,0,0,1,276.36,70.82Zm-8.3-28.69a.3.3,0,0,0-.28.2l-7.66,20.51a.37.37,0,0,0,0,.24.29.29,0,0,0,.17.15l15.95,6,.11,0a.3.3,0,0,0,.28-.2L284.3,48.5a.37.37,0,0,0,0-.24.29.29,0,0,0-.17-.15l-15.95-6Z"/><path class="baa6e587-6be8-4421-b88b-f69ba4ae980e" d="M278.58,48.27a.73.73,0,0,1-.93.42l-5-1.88a.73.73,0,0,1-.42-.94h0a.72.72,0,0,1,.93-.42l5,1.88a.73.73,0,0,1,.43.94Z"/><path class="baa6e587-6be8-4421-b88b-f69ba4ae980e" d="M281,52.47a.66.66,0,0,1-.85.37L268,48.3a.65.65,0,0,1-.4-.84h0a.66.66,0,0,1,.85-.37l12.16,4.54a.65.65,0,0,1,.4.84Z"/><path class="baa6e587-6be8-4421-b88b-f69ba4ae980e" d="M280.16,54.69a.66.66,0,0,1-.85.37l-12.16-4.54a.65.65,0,0,1-.4-.84h0a.66.66,0,0,1,.85-.37l12.16,4.54a.65.65,0,0,1,.4.84Z"/><path class="baa6e587-6be8-4421-b88b-f69ba4ae980e" d="M279.4,57a.65.65,0,0,1-.85.37l-12.16-4.54a.67.67,0,0,1-.4-.84h0a.67.67,0,0,1,.86-.37L279,56.11a.65.65,0,0,1,.4.84Z"/><path class="baa6e587-6be8-4421-b88b-f69ba4ae980e" d="M278.6,59.26a.66.66,0,0,1-.86.37l-12.15-4.54a.66.66,0,0,1-.41-.84h0a.67.67,0,0,1,.86-.37l12.15,4.54a.67.67,0,0,1,.41.84Z"/><path class="baa6e587-6be8-4421-b88b-f69ba4ae980e" d="M286.27,77.62A1.39,1.39,0,0,1,284.88,79h-29a1.39,1.39,0,0,1-1.39-1.39V59.22c0-.81,0-2.79,0-4.7h8.87l2.18,3.31h19.35a1.39,1.39,0,0,1,1.39,1.39Z"/><path class="fea0f0c7-dc83-45b8-b952-9603a6d32921" d="M284.88,79.59h-29a2,2,0,0,1-2-2V58.86c0-.93,0-2.67,0-4.34v-.58h9.77l2.18,3.31h19a2,2,0,0,1,2,2v18.4A2,2,0,0,1,284.88,79.59ZM255.06,55.1c0,1.48,0,2.93,0,3.76V77.62a.81.81,0,0,0,.81.81h29a.81.81,0,0,0,.81-.81V59.22a.81.81,0,0,0-.81-.81H265.22L263,55.1Z"/><path class="f92d5a65-b7d0-4b23-9395-3bb100d951dd" d="M271.58,63a4.91,4.91,0,1,1,.46,6.94A4.93,4.93,0,0,1,271.58,63Zm6.54,5.74a3.78,3.78,0,1,0-5.34.35A3.8,3.8,0,0,0,278.12,68.69Z"/><path class="f92d5a65-b7d0-4b23-9395-3bb100d951dd" d="M262.66,73.53l7.42-5.16a3.82,3.82,0,0,0,1.32,1.83L264,75.36A1.13,1.13,0,0,1,262.66,73.53Z"/></g></svg>