<svg id="ed9af005-91bc-42e8-9f08-58f640878a6d" data-name="1" xmlns="http://www.w3.org/2000/svg" xmlns:xlink="http://www.w3.org/1999/xlink" viewBox="0 0 324 116.75"><defs><style>.ba161ecc-8c4d-408c-abff-33711f3ddefd{font-size:6px;}.a316f3f7-c1df-42e1-8f7a-1e58ed540fb7,.a3b92716-e914-4967-ac37-cc9078f3b27e,.ba161ecc-8c4d-408c-abff-33711f3ddefd{fill:#8099b5;}.a316f3f7-c1df-42e1-8f7a-1e58ed540fb7,.ba161ecc-8c4d-408c-abff-33711f3ddefd{font-family:Tahoma-Bold, Tahoma;font-weight:700;}.a76b0758-df87-433e-8cad-5d3e230415b1,.adf9516e-927a-413d-b5cc-b7f4391a5b47,.b24bc77f-caa3-449d-9fd7-09444b997869,.b3f74290-25cd-45ba-a7de-a68b3767913f,.e99ab008-0df7-4355-9f3d-2cce7a0ceed5,.f75990ef-f4cf-407c-970b-d2fca46a690e,.fbca5be4-928b-4534-929a-692f3a3301dd{opacity:0.2;}.b24bc77f-caa3-449d-9fd7-09444b997869{fill:url(#ac182140-ead2-40ac-af84-602a90a302b0);}.a76b0758-df87-433e-8cad-5d3e230415b1{fill:url(#bc097eb9-5dc5-43b9-bd24-8c7c1d55d031);}.a3b92716-e914-4967-ac37-cc9078f3b27e{font-size:6.63px;}.a3b92716-e914-4967-ac37-cc9078f3b27e,.b92549cf-80a5-497d-a46c-115ec8bbea70,.e8835ad1-1753-4c82-9d5f-69c799d95b9c{font-family:Tahoma;}.e99ab008-0df7-4355-9f3d-2cce7a0ceed5{fill:url(#e6c582ee-07ac-4787-b7b1-17066175464d);}.fbca5be4-928b-4534-929a-692f3a3301dd{fill:url(#fdd61130-e44b-4745-811c-9837f301ae9a);}.b92549cf-80a5-497d-a46c-115ec8bbea70{font-size:7.95px;}.ae08ff86-ad65-4463-97f9-6f58f7f6d1a6,.b0efe7da-2db3-4830-993b-5b34a89c5bcc,.b92549cf-80a5-497d-a46c-115ec8bbea70,.e8835ad1-1753-4c82-9d5f-69c799d95b9c,.ed40a139-6374-4d37-b325-23ce4275c2ec{fill:#fff;}.adf9516e-927a-413d-b5cc-b7f4391a5b47{fill:url(#fe08a07c-f973-4457-990e-1c57ffeceed2);}.f8a2a528-925a-4d87-9c91-06c9b356006b{fill:none;stroke:#fff;stroke-miterlimit:10;stroke-width:0.5px;}.b3f74290-25cd-45ba-a7de-a68b3767913f{fill:url(#e91fa8fd-5770-49fd-83b0-233afd191db4);}.b0efe7da-2db3-4830-993b-5b34a89c5bcc{opacity:0.1;}.ae08ff86-ad65-4463-97f9-6f58f7f6d1a6{fill-rule:evenodd;}.f75990ef-f4cf-407c-970b-d2fca46a690e{fill:url(#a2e2dac9-5dc4-4e1d-a724-91b1fa9861ea);}.a316f3f7-c1df-42e1-8f7a-1e58ed540fb7{font-size:5.67px;}.f58acefa-69f1-4cbf-b4a0-c1b469631c5b{fill:#121928;}.e8835ad1-1753-4c82-9d5f-69c799d95b9c{font-size:5.16px;}</style><linearGradient id="ac182140-ead2-40ac-af84-602a90a302b0" x1="5.06" y1="95.18" x2="78.62" y2="95.18" gradientUnits="userSpaceOnUse"><stop offset="0" stop-color="#5b607d"/><stop offset="0.84" stop-color="#5b607d"/></linearGradient><linearGradient id="bc097eb9-5dc5-43b9-bd24-8c7c1d55d031" x1="79.63" y1="95.18" x2="152.86" y2="95.18" xlink:href="#ac182140-ead2-40ac-af84-602a90a302b0"/><linearGradient id="e6c582ee-07ac-4787-b7b1-17066175464d" x1="153.94" y1="95.18" x2="221.09" y2="95.18" xlink:href="#ac182140-ead2-40ac-af84-602a90a302b0"/><linearGradient id="fdd61130-e44b-4745-811c-9837f301ae9a" x1="221.86" y1="95.18" x2="319.65" y2="95.18" xlink:href="#ac182140-ead2-40ac-af84-602a90a302b0"/><linearGradient id="fe08a07c-f973-4457-990e-1c57ffeceed2" x1="63.88" y1="87.71" x2="75.32" y2="87.71" xlink:href="#ac182140-ead2-40ac-af84-602a90a302b0"/><linearGradient id="e91fa8fd-5770-49fd-83b0-233afd191db4" x1="63.88" y1="101.57" x2="75.32" y2="101.57" xlink:href="#ac182140-ead2-40ac-af84-602a90a302b0"/><linearGradient id="a2e2dac9-5dc4-4e1d-a724-91b1fa9861ea" x1="5.2" y1="9.9" x2="318.62" y2="9.9" xlink:href="#ac182140-ead2-40ac-af84-602a90a302b0"/></defs><title>Макеты (5)</title><text class="ba161ecc-8c4d-408c-abff-33711f3ddefd" transform="translate(31.69 73.48)">Формирование нового имени файла</text><path class="b24bc77f-caa3-449d-9fd7-09444b997869" d="M22.2,78H78.62a0,0,0,0,1,0,0v34.27a0,0,0,0,1,0,0H22.2A17.14,17.14,0,0,1,5.06,95.18v0A17.14,17.14,0,0,1,22.2,78Z"/><rect class="a76b0758-df87-433e-8cad-5d3e230415b1" x="79.63" y="78.04" width="73.22" height="34.27"/><text class="a3b92716-e914-4967-ac37-cc9078f3b27e" transform="translate(27.26 89.65)">Паспорт</text><text class="a3b92716-e914-4967-ac37-cc9078f3b27e" transform="translate(88.57 89.65)">Продукт</text><rect class="e99ab008-0df7-4355-9f3d-2cce7a0ceed5" x="153.94" y="78.04" width="67.15" height="34.27"/><text class="a3b92716-e914-4967-ac37-cc9078f3b27e" transform="translate(159.17 89.65)">Резервуар</text><path class="fbca5be4-928b-4534-929a-692f3a3301dd" d="M221.86,78h80.66a17.14,17.14,0,0,1,17.14,17.14v0a17.14,17.14,0,0,1-17.14,17.14H221.86a0,0,0,0,1,0,0V78a0,0,0,0,1,0,0Z"/><text class="a3b92716-e914-4967-ac37-cc9078f3b27e" transform="translate(231.41 89.65)">Дата</text><text class="b92549cf-80a5-497d-a46c-115ec8bbea70" transform="translate(27.29 102.21)">34</text><text class="b92549cf-80a5-497d-a46c-115ec8bbea70" transform="translate(88.08 102.21)">003839293929</text><text class="b92549cf-80a5-497d-a46c-115ec8bbea70" transform="translate(159.33 102.21)">546</text><text class="b92549cf-80a5-497d-a46c-115ec8bbea70" transform="translate(231.71 102.21)">25.06.2020</text><circle class="adf9516e-927a-413d-b5cc-b7f4391a5b47" cx="69.6" cy="87.71" r="5.72"/><circle class="f8a2a528-925a-4d87-9c91-06c9b356006b" cx="69.4" cy="87.61" r="5.72"/><circle class="b3f74290-25cd-45ba-a7de-a68b3767913f" cx="69.6" cy="101.57" r="5.72"/><circle class="f8a2a528-925a-4d87-9c91-06c9b356006b" cx="69.4" cy="101.47" r="5.72"/><rect class="ed40a139-6374-4d37-b325-23ce4275c2ec" x="70.36" y="85.02" width="0.67" height="4.28" rx="0.34" transform="translate(182.32 98.79) rotate(135)"/><rect class="ed40a139-6374-4d37-b325-23ce4275c2ec" x="67.81" y="85.02" width="0.67" height="4.28" rx="0.34" transform="translate(54.71 196.99) rotate(-135)"/><rect class="ed40a139-6374-4d37-b325-23ce4275c2ec" x="67.81" y="99.16" width="0.67" height="4.28" rx="0.34" transform="translate(-51.67 77.86) rotate(-45)"/><rect class="ed40a139-6374-4d37-b325-23ce4275c2ec" x="70.36" y="99.15" width="0.67" height="4.28" rx="0.34" transform="translate(92.33 -20.33) rotate(45)"/><circle class="f8a2a528-925a-4d87-9c91-06c9b356006b" cx="295.52" cy="94.46" r="7.95"/><circle class="b0efe7da-2db3-4830-993b-5b34a89c5bcc" cx="295.52" cy="94.46" r="7.09"/><circle class="b0efe7da-2db3-4830-993b-5b34a89c5bcc" cx="295.52" cy="94.46" r="6.3"/><circle class="b0efe7da-2db3-4830-993b-5b34a89c5bcc" cx="295.52" cy="94.46" r="5.51"/><circle class="b0efe7da-2db3-4830-993b-5b34a89c5bcc" cx="295.52" cy="94.46" r="4.72"/><path class="ae08ff86-ad65-4463-97f9-6f58f7f6d1a6" d="M293.67,96.1h.41v.42h-.41Zm0,.83h.41a.42.42,0,0,0,.41-.41V96.1a.42.42,0,0,0-.41-.41h-.41a.41.41,0,0,0-.41.41v.42A.41.41,0,0,0,293.67,96.93Zm1.64-2.47h.41v.41h-.41Zm0,.82h.41a.41.41,0,0,0,.41-.41v-.41a.41.41,0,0,0-.41-.41h-.41a.41.41,0,0,0-.41.41v.41A.41.41,0,0,0,295.31,95.28Zm0,.82h.41v.42h-.41Zm0,.83h.41a.41.41,0,0,0,.41-.41V96.1a.41.41,0,0,0-.41-.41h-.41a.41.41,0,0,0-.41.41v.42A.41.41,0,0,0,295.31,96.93Zm2.88-4.11h-5.34v-.41a.41.41,0,0,1,.41-.41h.82v.2a.21.21,0,1,0,.41,0V92h2.05v.2a.22.22,0,0,0,.21.21.21.21,0,0,0,.2-.21V92h.83a.41.41,0,0,1,.41.41Zm0,4.11a.42.42,0,0,1-.41.41h-4.52a.41.41,0,0,1-.41-.41v-3.7h5.34Zm-.41-5.34H297v-.21a.21.21,0,0,0-.2-.21.22.22,0,0,0-.21.21v.21h-2.05v-.21a.21.21,0,1,0-.41,0v.21h-.82a.82.82,0,0,0-.83.82v4.52a.83.83,0,0,0,.83.82h4.52a.82.82,0,0,0,.82-.82V92.41A.82.82,0,0,0,297.78,91.59ZM297,94.46h.41v.41H297Zm0,.82h.41a.41.41,0,0,0,.42-.41v-.41a.41.41,0,0,0-.42-.41H297a.41.41,0,0,0-.41.41v.41A.41.41,0,0,0,297,95.28Zm0,.82h.41v.42H297Zm0,.83h.41a.42.42,0,0,0,.42-.41V96.1a.42.42,0,0,0-.42-.41H297a.42.42,0,0,0-.41.41v.42A.42.42,0,0,0,297,96.93Zm-3.28-2.47h.41v.41h-.41Zm0,.82h.41a.41.41,0,0,0,.41-.41v-.41a.41.41,0,0,0-.41-.41h-.41a.41.41,0,0,0-.41.41v.41A.41.41,0,0,0,293.67,95.28Z"/><path class="f75990ef-f4cf-407c-970b-d2fca46a690e" d="M14.22,2.51H309.6a9,9,0,0,1,9,9v5.75a0,0,0,0,1,0,0H5.2a0,0,0,0,1,0,0V11.53a9,9,0,0,1,9-9Z"/><text class="a316f3f7-c1df-42e1-8f7a-1e58ed540fb7" transform="translate(194.65 11.77)">Продукт</text><text class="a316f3f7-c1df-42e1-8f7a-1e58ed540fb7" transform="translate(64.39 11.77)">SAP</text><path class="f58acefa-69f1-4cbf-b4a0-c1b469631c5b" d="M5.26,18.18h313a0,0,0,0,1,0,0V53.31a11,11,0,0,1-11,11h-291a11,11,0,0,1-11-11V18.18a0,0,0,0,1,0,0Z"/><text class="e8835ad1-1753-4c82-9d5f-69c799d95b9c" transform="translate(126.65 30.78)">ДТ ЕВРО сорт F, вид III(ДТ-Е-K5) ДТ ЕВРО сорт F, вид III(ДТ-Е-K5)</text><text class="e8835ad1-1753-4c82-9d5f-69c799d95b9c" transform="translate(50.88 30.48)">44244434323234</text><text class="e8835ad1-1753-4c82-9d5f-69c799d95b9c" transform="translate(50.88 53.9)">44244434323234</text><text class="e8835ad1-1753-4c82-9d5f-69c799d95b9c" transform="translate(126.65 54.92)">ДТ ЕВРО сорт F, вид III(ДТ-Е-K5) ДТ ЕВРО сорт F, вид III(ДТ-Е-K5)</text></svg>