<svg id="b0f6d34b-b440-464c-bfc1-2bfd63925285" data-name="1" xmlns="http://www.w3.org/2000/svg" xmlns:xlink="http://www.w3.org/1999/xlink" viewBox="0 0 324 116.75"><defs><style>.a0657577-da06-44be-9233-f6464ea30846{fill:#121928;}.b0021ec6-de41-4c83-b235-3f5a1b5b6d55,.efbfef8e-5f3c-4bc3-a9a3-43ccc6c0a379{opacity:0.2;}.b0021ec6-de41-4c83-b235-3f5a1b5b6d55{fill:url(#fce29cc5-0b65-4caf-8c52-6a2e771e258a);}.a7e2a8b0-440b-479f-b19c-379b7be826c5,.fd522fe5-985e-4bc9-9a4d-0922e1236b99{font-size:5.44px;}.a7e2a8b0-440b-479f-b19c-379b7be826c5{fill:#8099b5;font-family:Tahoma-Bold, Tahoma;font-weight:700;}.a7c5da66-0e09-4776-97de-a62474816925{fill:none;stroke:#08111d;stroke-miterlimit:10;stroke-width:0.5px;}.bc7b95e8-cac5-4d83-8cc3-77334e3b6217{fill:#00a8f5;opacity:0.1;}.b78c6d98-7f68-4c8f-895f-bee36c0ccd3b,.bfcff4ab-c81d-4173-ba3a-4037f36c8dfb,.efbfef8e-5f3c-4bc3-a9a3-43ccc6c0a379,.fd522fe5-985e-4bc9-9a4d-0922e1236b99{fill:#fff;}.fd522fe5-985e-4bc9-9a4d-0922e1236b99{font-family:Tahoma;}.f526ab05-78bf-4fb3-9149-62bcfcf6efb4{fill:#fd0106;}.b2839236-e3b8-4ddf-ba1c-fe897dbe9f55{fill:#fcfbff;}.b78c6d98-7f68-4c8f-895f-bee36c0ccd3b{opacity:0.15;}.bfcff4ab-c81d-4173-ba3a-4037f36c8dfb{opacity:0.25;}</style><linearGradient id="fce29cc5-0b65-4caf-8c52-6a2e771e258a" x1="5.14" y1="11.94" x2="318.66" y2="11.94" gradientUnits="userSpaceOnUse"><stop offset="0" stop-color="#5b607d"/><stop offset="0.84" stop-color="#5b607d"/></linearGradient></defs><title>1</title><path class="a0657577-da06-44be-9233-f6464ea30846" d="M5.1,21.28H318.72a0,0,0,0,1,0,0v79.59a11,11,0,0,1-11,11H16.1a11,11,0,0,1-11-11V21.28A0,0,0,0,1,5.1,21.28Z"/><path class="b0021ec6-de41-4c83-b235-3f5a1b5b6d55" d="M17.14,4.14H306.66a12,12,0,0,1,12,12v3.59a0,0,0,0,1,0,0H5.14a0,0,0,0,1,0,0V16.14A12,12,0,0,1,17.14,4.14Z"/><text class="a7e2a8b0-440b-479f-b19c-379b7be826c5" transform="translate(42.39 13.75)">Время </text><text class="a7e2a8b0-440b-479f-b19c-379b7be826c5" transform="translate(163.33 13.75)">Имя файла</text><line class="a7c5da66-0e09-4776-97de-a62474816925" x1="318.74" y1="41.98" x2="4.93" y2="41.54"/><line class="a7c5da66-0e09-4776-97de-a62474816925" x1="318.91" y1="65.65" x2="4.93" y2="65.65"/><line class="a7c5da66-0e09-4776-97de-a62474816925" x1="318.91" y1="88.19" x2="5.1" y2="88.19"/><rect class="bc7b95e8-cac5-4d83-8cc3-77334e3b6217" x="151.05" y="-80.07" width="21.64" height="313.72" transform="translate(238.66 -85.09) rotate(90)"/><text class="fd522fe5-985e-4bc9-9a4d-0922e1236b99" transform="translate(30.9 80.55)">27.11.2019 13:23</text><text class="fd522fe5-985e-4bc9-9a4d-0922e1236b99" transform="translate(30.9 102.41)">28.11.2019 12:23</text><text class="fd522fe5-985e-4bc9-9a4d-0922e1236b99" transform="translate(30.9 33.19)">25.11.2019 12:23</text><text class="fd522fe5-985e-4bc9-9a4d-0922e1236b99" transform="translate(119.47 32.76)">902_002112221519_ЭНЕРГЕТИКА_25-11-2019.pdf</text><text class="fd522fe5-985e-4bc9-9a4d-0922e1236b99" transform="translate(30.9 56.11)">26.11.2019 14:23</text><text class="fd522fe5-985e-4bc9-9a4d-0922e1236b99" transform="translate(118.33 54.86)">903_002112221518_РАТОФОРМЕР_26-11-2019.pdf</text><text class="fd522fe5-985e-4bc9-9a4d-0922e1236b99" transform="translate(130.74 78.14)">904_002112221510_АСУ_27-11-2019.pdf</text><text class="fd522fe5-985e-4bc9-9a4d-0922e1236b99" transform="translate(130.82 100.24)">905_002112221511_ЕТС_28-11-2019.pdf</text><rect class="f526ab05-78bf-4fb3-9149-62bcfcf6efb4" x="296.97" y="68.23" width="15.94" height="16.11" rx="7.27" transform="translate(381.22 -228.65) rotate(90)"/><path class="b2839236-e3b8-4ddf-ba1c-fe897dbe9f55" d="M303.15,74.79H307c0,.07,0,.13,0,.19,0,.45-.09.91-.14,1.36-.09.82-.19,1.64-.28,2.46a.85.85,0,0,1,0,.17.22.22,0,0,1-.21.14h-2.46a.24.24,0,0,1-.24-.24c0-.16,0-.32-.06-.48-.06-.61-.13-1.22-.2-1.83l-.18-1.62Zm1.29,3.52v0c-.06-.5-.11-1-.17-1.48l-.09-.82c0-.24-.05-.47-.08-.7a.17.17,0,0,0-.18-.15c-.11,0-.17.1-.16.23.07.57.13,1.15.19,1.72.05.41.09.83.14,1.24a.18.18,0,0,0,.19.17A.19.19,0,0,0,304.44,78.31Zm1.92-2.94c0-.14-.06-.22-.15-.22a.18.18,0,0,0-.2.17c0,.36-.07.72-.11,1.08l-.21,1.88a.18.18,0,1,0,.35,0c0-.26,0-.52.08-.78l.15-1.41C306.3,75.87,306.33,75.6,306.36,75.37Zm-1.13,1.46h0v-.89c0-.2,0-.41,0-.61a.17.17,0,0,0-.21-.18.18.18,0,0,0-.13.2v3a.17.17,0,0,0,.33.05.53.53,0,0,0,0-.13Z"/><path class="b2839236-e3b8-4ddf-ba1c-fe897dbe9f55" d="M304.27,73.92v-.45a.27.27,0,0,1,.31-.31h1a.28.28,0,0,1,.31.31v.42a0,0,0,0,0,0,0h1.05a.32.32,0,0,1,.26.51.33.33,0,0,1-.28.12h-3.69a.31.31,0,0,1-.31-.21A.29.29,0,0,1,303,74a.36.36,0,0,1,.2-.06c.32,0,.64,0,1,0Zm.43,0h.72v-.31h-.72Z"/><rect class="b78c6d98-7f68-4c8f-895f-bee36c0ccd3b" x="298.29" y="69.58" width="13.28" height="13.43" rx="6.06" transform="translate(381.22 -228.65) rotate(90)"/><rect class="bfcff4ab-c81d-4173-ba3a-4037f36c8dfb" x="299.62" y="70.92" width="10.63" height="10.74" rx="4.85" transform="translate(381.22 -228.65) rotate(90)"/><rect class="efbfef8e-5f3c-4bc3-a9a3-43ccc6c0a379" x="300.95" y="72.26" width="7.97" height="8.06" rx="3.64" transform="translate(381.22 -228.65) rotate(90)"/></svg>