<svg id="b6b991d8-d3d5-4dde-aa80-758f24392cd5" data-name="1" xmlns="http://www.w3.org/2000/svg" xmlns:xlink="http://www.w3.org/1999/xlink" viewBox="0 0 324 116.75"><defs><style>.b7024f6a-136b-4b12-b22c-999a1e71964c{fill:#121928;}.a415cbf2-375e-431a-985f-936c539a5799,.a5349f0e-e9f2-4815-9e33-a799ecf2921f{opacity:0.2;}.a5349f0e-e9f2-4815-9e33-a799ecf2921f{fill:url(#aeef875c-3bf8-405d-8fce-5b93332f5510);}.adc09fa3-8118-4f8b-a8dc-ed9aa7c22ca5,.f8630eaf-3fdc-41af-84d9-f28d94220f99{font-size:5.44px;}.adc09fa3-8118-4f8b-a8dc-ed9aa7c22ca5{fill:#8099b5;font-family:Tahoma-Bold, Tahoma;font-weight:700;}.b765b7f4-0c78-431c-b5cf-4afd8f8a480a{fill:none;stroke:#08111d;stroke-miterlimit:10;stroke-width:0.5px;}.a9c8aff3-bf95-4cdc-bab6-5715cded92d4{fill:#00a8f5;opacity:0.1;}.a415cbf2-375e-431a-985f-936c539a5799,.bb3cbacf-5756-4857-8dba-624555e2d806,.bb4c8c78-fb15-4e0e-aa45-edefed9fab11,.f8630eaf-3fdc-41af-84d9-f28d94220f99{fill:#fff;}.f8630eaf-3fdc-41af-84d9-f28d94220f99{font-family:Tahoma;}.a1f82a2c-91f2-4e33-b800-5773e54c6e6e{fill:#fd0106;}.a961773c-dc2a-4529-81e9-c840bd3bcb29{fill:#fcfbff;}.bb4c8c78-fb15-4e0e-aa45-edefed9fab11{opacity:0.15;}.bb3cbacf-5756-4857-8dba-624555e2d806{opacity:0.25;}</style><linearGradient id="aeef875c-3bf8-405d-8fce-5b93332f5510" x1="5.14" y1="11.12" x2="318.66" y2="11.12" gradientUnits="userSpaceOnUse"><stop offset="0" stop-color="#5b607d"/><stop offset="0.84" stop-color="#5b607d"/></linearGradient></defs><title>Макеты (5)</title><path class="b7024f6a-136b-4b12-b22c-999a1e71964c" d="M5.1,20.46H318.72a0,0,0,0,1,0,0v79.59a11,11,0,0,1-11,11H16.1a11,11,0,0,1-11-11V20.46A0,0,0,0,1,5.1,20.46Z"/><path class="a5349f0e-e9f2-4815-9e33-a799ecf2921f" d="M17.14,3.32H306.66a12,12,0,0,1,12,12v3.59a0,0,0,0,1,0,0H5.14a0,0,0,0,1,0,0V15.32A12,12,0,0,1,17.14,3.32Z"/><text class="adc09fa3-8118-4f8b-a8dc-ed9aa7c22ca5" transform="translate(42.39 12.93)">Время </text><text class="adc09fa3-8118-4f8b-a8dc-ed9aa7c22ca5" transform="translate(163.33 12.93)">Имя файла</text><line class="b765b7f4-0c78-431c-b5cf-4afd8f8a480a" x1="318.74" y1="41.16" x2="4.93" y2="40.72"/><line class="b765b7f4-0c78-431c-b5cf-4afd8f8a480a" x1="318.91" y1="64.83" x2="4.93" y2="64.83"/><line class="b765b7f4-0c78-431c-b5cf-4afd8f8a480a" x1="318.91" y1="87.37" x2="5.1" y2="87.37"/><rect class="a9c8aff3-bf95-4cdc-bab6-5715cded92d4" x="151.05" y="-80.89" width="21.64" height="313.72" transform="translate(237.84 -85.91) rotate(90)"/><text class="f8630eaf-3fdc-41af-84d9-f28d94220f99" transform="translate(30.9 79.73)">27.11.2019 13:23</text><text class="f8630eaf-3fdc-41af-84d9-f28d94220f99" transform="translate(30.9 101.59)">28.11.2019 12:23</text><text class="f8630eaf-3fdc-41af-84d9-f28d94220f99" transform="translate(30.9 32.37)">25.11.2019 12:23</text><text class="f8630eaf-3fdc-41af-84d9-f28d94220f99" transform="translate(119.47 31.94)">902_002112221519_ЭНЕРГЕТИКА_25-11-2019.pdf</text><text class="f8630eaf-3fdc-41af-84d9-f28d94220f99" transform="translate(30.9 55.3)">26.11.2019 14:23</text><text class="f8630eaf-3fdc-41af-84d9-f28d94220f99" transform="translate(118.33 54.05)">903_002112221518_РАТОФОРМЕР_26-11-2019.pdf</text><text class="f8630eaf-3fdc-41af-84d9-f28d94220f99" transform="translate(130.74 77.32)">904_002112221510_АСУ_27-11-2019.pdf</text><text class="f8630eaf-3fdc-41af-84d9-f28d94220f99" transform="translate(130.82 99.42)">905_002112221511_ЕТС_28-11-2019.pdf</text><rect class="a1f82a2c-91f2-4e33-b800-5773e54c6e6e" x="296.97" y="67.41" width="15.94" height="16.11" rx="7.27" transform="translate(380.41 -229.46) rotate(90)"/><path class="a961773c-dc2a-4529-81e9-c840bd3bcb29" d="M303.15,74H307c0,.07,0,.13,0,.19,0,.46-.09.91-.14,1.36-.09.82-.19,1.64-.28,2.46a.85.85,0,0,1,0,.17.22.22,0,0,1-.21.14h-2.46a.24.24,0,0,1-.24-.24c0-.16,0-.32-.06-.48-.06-.61-.13-1.22-.2-1.83l-.18-1.62Zm1.29,3.52v0c-.06-.49-.11-1-.17-1.48l-.09-.82c0-.23-.05-.47-.08-.7a.16.16,0,0,0-.18-.14c-.11,0-.17.09-.16.22.07.57.13,1.15.19,1.72.05.41.09.83.14,1.24a.17.17,0,0,0,.19.17A.19.19,0,0,0,304.44,77.49Zm1.92-2.94c0-.14-.06-.22-.15-.22a.18.18,0,0,0-.2.17c0,.36-.07.72-.11,1.08l-.21,1.88a.18.18,0,1,0,.35,0c0-.26,0-.52.08-.78l.15-1.41C306.3,75.05,306.33,74.78,306.36,74.55ZM305.23,76h0v-.89c0-.2,0-.41,0-.61a.17.17,0,0,0-.21-.18.18.18,0,0,0-.13.2v3a.17.17,0,0,0,.33,0,.49.49,0,0,0,0-.12Z"/><path class="a961773c-dc2a-4529-81e9-c840bd3bcb29" d="M304.27,73.1v-.45a.27.27,0,0,1,.31-.31h1a.28.28,0,0,1,.31.31v.42a0,0,0,0,0,0,0h1.05a.3.3,0,0,1,.29.17.32.32,0,0,1,0,.33.33.33,0,0,1-.28.12h-3.69a.31.31,0,0,1-.31-.21.29.29,0,0,1,.11-.35.36.36,0,0,1,.2-.06h1.06Zm.43,0h.72v-.31h-.72Z"/><rect class="bb4c8c78-fb15-4e0e-aa45-edefed9fab11" x="298.29" y="68.76" width="13.28" height="13.43" rx="6.06" transform="translate(380.41 -229.46) rotate(90)"/><rect class="bb3cbacf-5756-4857-8dba-624555e2d806" x="299.62" y="70.1" width="10.63" height="10.74" rx="4.85" transform="translate(380.41 -229.46) rotate(90)"/><rect class="a415cbf2-375e-431a-985f-936c539a5799" x="300.95" y="71.44" width="7.97" height="8.06" rx="3.64" transform="translate(380.41 -229.46) rotate(90)"/></svg>