<svg id="b48ed0d8-d154-4aa0-9daa-6e729447bbf2" data-name="1" xmlns="http://www.w3.org/2000/svg" xmlns:xlink="http://www.w3.org/1999/xlink" viewBox="0 0 324 116.75"><defs><style>.f1b1012a-e800-44c5-9baf-450dfff11e23{opacity:0.05;fill:url(#b78be8ae-9fe0-471a-839b-1c296f437123);}.b04f226a-bc59-43a4-b918-5ac5099d5745,.b5d5d497-9be0-4675-8cd2-679cec18ba82,.ecc8671f-3976-4861-8b7f-95e0f6db13ec{fill:#2f3444;}.b5d5d497-9be0-4675-8cd2-679cec18ba82{opacity:0.6;}.e6420c7d-4295-446c-bcf1-1553a9825f9d{fill:#292c44;}.b04f226a-bc59-43a4-b918-5ac5099d5745{opacity:0.8;}.f65366b0-8c7d-4320-8133-025b9f6e1a78{fill:#00aaf7;}.bdf0a19c-1a57-4a25-a613-1ce071e00b40{font-size:7px;fill:#fff;font-family:Tahoma-Bold, Tahoma;font-weight:700;}</style><linearGradient id="b78be8ae-9fe0-471a-839b-1c296f437123" x1="6.49" y1="58.21" x2="318.73" y2="58.21" gradientUnits="userSpaceOnUse"><stop offset="0" stop-color="#5b607d"/><stop offset="0.84" stop-color="#5b607d"/></linearGradient></defs><title>Макеты (5)</title><rect class="f1b1012a-e800-44c5-9baf-450dfff11e23" x="6.49" y="5.95" width="312.24" height="104.51" rx="52.25"/><path class="b5d5d497-9be0-4675-8cd2-679cec18ba82" d="M125.41,93.28H69.1V22.5h49.08l7.23,7.23Z"/><path class="e6420c7d-4295-446c-bcf1-1553a9825f9d" d="M125.41,40.62H107.29V22.5h10.9l7.22,7.22Z"/><path class="b04f226a-bc59-43a4-b918-5ac5099d5745" d="M127.7,91H71.39V20.21h49.08l7.23,7.23Z"/><path class="e6420c7d-4295-446c-bcf1-1553a9825f9d" d="M127.7,38.34H109.57V20.21h10.91l7.22,7.22Z"/><path class="ecc8671f-3976-4861-8b7f-95e0f6db13ec" d="M130,88.72H73.67V17.93h49.08L130,25.16Z"/><path class="ecc8671f-3976-4861-8b7f-95e0f6db13ec" d="M130,36.05H111.86V17.93h10.9L130,25.15Z"/><polygon class="f65366b0-8c7d-4320-8133-025b9f6e1a78" points="63.28 53.56 69.1 67.35 69.1 50.98 63.28 50.83 63.28 53.56"/><rect class="f65366b0-8c7d-4320-8133-025b9f6e1a78" x="63.28" y="39.67" width="45.67" height="19.42" rx="1.73"/><text class="bdf0a19c-1a57-4a25-a613-1ce071e00b40" transform="translate(66.05 51.29)">ДОКУМЕНТ</text><path class="f65366b0-8c7d-4320-8133-025b9f6e1a78" d="M255.39,76.54a1.68,1.68,0,0,1,0,2.4l-.74.75a1.7,1.7,0,0,1-2.4,0l-24-24c-.67-.67-.19-1.26.48-1.93l.74-.74c.66-.66,1.26-1.14,1.92-.48Zm-21.58-34.9a15.08,15.08,0,1,1-15.08-15.08A15.08,15.08,0,0,1,233.81,41.64Zm-2.05,0a13,13,0,1,0-13,13A13,13,0,0,0,231.76,41.64Zm-23,2a1.08,1.08,0,0,0,1-1.1,9.53,9.53,0,0,1,7-9.41,1.08,1.08,0,0,0-.58-2.08,11.7,11.7,0,0,0-8.56,11.54,1.08,1.08,0,0,0,1.08,1Z"/></svg>