<svg xmlns="http://www.w3.org/2000/svg" viewBox="0 0 324 116.75"><defs><style>.a7d61a94-b125-4b24-afb6-dd8f87fe2641{fill:none;stroke:#fff;stroke-miterlimit:10;stroke-width:0.5px;}.a40cd97a-1a5c-43bf-8580-ce4b84cc6746,.b2b5ec49-e8b2-42ee-ba5d-f0eda13666fe,.bbfb2724-8399-458a-a48c-14a22c162d9d{fill:#fff;}.bbfb2724-8399-458a-a48c-14a22c162d9d{fill-rule:evenodd;}.f57a17f2-ddf9-4895-87d3-b8b99e1c49df{font-size:11px;}.a6696bd9-33ad-414c-a0da-57cc50232fcf,.f57a17f2-ddf9-4895-87d3-b8b99e1c49df{fill:#a2e2ff;}.a40cd97a-1a5c-43bf-8580-ce4b84cc6746,.f57a17f2-ddf9-4895-87d3-b8b99e1c49df,.ffe9837b-be22-4abd-b3d9-52a0694b69cf{font-family:Tahoma;}.b51919a7-1901-4238-988c-09fa2ec519e3,.f26a79ee-bdd9-4728-88ee-33f2c642825c{font-size:7.33px;}.b51919a7-1901-4238-988c-09fa2ec519e3{letter-spacing:0em;}.bdaf60d3-c983-4f93-844a-90aadc227b9a,.f17bc6f5-e928-445c-aee6-852bb76778e4{fill:#0d1014;}.f17bc6f5-e928-445c-aee6-852bb76778e4{fill-opacity:0.6;opacity:0.6;}.b0367ea2-a488-4a11-90e5-8d49b8986117{fill:#606580;}.a40cd97a-1a5c-43bf-8580-ce4b84cc6746,.ffe9837b-be22-4abd-b3d9-52a0694b69cf{font-size:9.16px;}.ffe9837b-be22-4abd-b3d9-52a0694b69cf{fill:#f4a321;}</style></defs><title>Prew</title><g id="a354d676-2683-4448-8126-2a6e9fa2e173" data-name="1"><circle class="a7d61a94-b125-4b24-afb6-dd8f87fe2641" cx="93.43" cy="86.11" r="19.42"/><circle class="a7d61a94-b125-4b24-afb6-dd8f87fe2641" cx="230.57" cy="86.11" r="19.42"/><path class="bbfb2724-8399-458a-a48c-14a22c162d9d" d="M234.32,84.18,233.64,86A17.57,17.57,0,0,0,229,82.73a18.19,18.19,0,0,1,5,5.2l-2.4.15,3.18,1.23a16.93,16.93,0,0,1,1.37,4Q222.44,95,223.84,81c.07-1.43-.65-2.14-2.14-2.13l3.34-.4a21.42,21.42,0,0,1,6.88.34q9.45,2.16,5.69,13.27a21.21,21.21,0,0,0-2.45-4.28Z"/></g><g id="b5b58e3b-3420-4c28-8192-f29013e1992d" data-name="Prew"><text class="f57a17f2-ddf9-4895-87d3-b8b99e1c49df" transform="translate(206.77 26.14)">100<tspan class="b51919a7-1901-4238-988c-09fa2ec519e3" x="18.01" y="0">%</tspan></text><text class="f57a17f2-ddf9-4895-87d3-b8b99e1c49df" transform="translate(12.04 26.14)">0<tspan class="f26a79ee-bdd9-4728-88ee-33f2c642825c" x="6" y="0">%</tspan></text><path class="f17bc6f5-e928-445c-aee6-852bb76778e4" d="M254.43,46.85H13L10.09,44V38.87L13,36H254.43l2.87,2.87V44Z"/><path class="a6696bd9-33ad-414c-a0da-57cc50232fcf" d="M215.52,44.34h-201l-2.18-2.18V40.69l2.18-2.18h201l2.18,2.18v1.47Z"/><rect class="b0367ea2-a488-4a11-90e5-8d49b8986117" x="12.04" y="46.85" width="0.68" height="4.13"/><rect class="b0367ea2-a488-4a11-90e5-8d49b8986117" x="100.95" y="46.85" width="0.68" height="4.13"/><rect class="a6696bd9-33ad-414c-a0da-57cc50232fcf" x="217.36" y="35.98" width="0.92" height="14.89"/><path class="bdaf60d3-c983-4f93-844a-90aadc227b9a" d="M217.82,52.1a1.5,1.5,0,1,1,1.49-1.5A1.5,1.5,0,0,1,217.82,52.1Z"/><path class="a6696bd9-33ad-414c-a0da-57cc50232fcf" d="M217.82,49.44a1.17,1.17,0,1,1-1.17,1.16,1.16,1.16,0,0,1,1.17-1.16m0-.67a1.84,1.84,0,1,0,1.83,1.83,1.83,1.83,0,0,0-1.83-1.83Z"/><path class="bdaf60d3-c983-4f93-844a-90aadc227b9a" d="M217.82,36.32a1.5,1.5,0,1,1,1.49-1.5A1.5,1.5,0,0,1,217.82,36.32Z"/><path class="a6696bd9-33ad-414c-a0da-57cc50232fcf" d="M217.82,33.65a1.17,1.17,0,1,1-1.17,1.17,1.17,1.17,0,0,1,1.17-1.17m0-.66a1.83,1.83,0,1,0,1.83,1.83A1.83,1.83,0,0,0,217.82,33Z"/><text class="ffe9837b-be22-4abd-b3d9-52a0694b69cf" transform="translate(262.59 31.01)">Отклонение</text><text class="a40cd97a-1a5c-43bf-8580-ce4b84cc6746" transform="translate(262.59 50)">Улучшение</text><path class="b2b5ec49-e8b2-42ee-ba5d-f0eda13666fe" d="M93.21,76.74,85.62,79.1V85c0,5.1,3.14,8.34,7.59,9.6,4.44-1.26,7.59-4.5,7.59-9.6V79.1Z"/></g></svg>