<svg width="324" height="117" viewBox="0 0 324 117" fill="none" xmlns="http://www.w3.org/2000/svg">
<path d="M44.0771 91H40.5322V90.2578H41.8506V85.3848H40.5322V84.7207C41.0303 84.7207 41.3965 84.6507 41.6309 84.5107C41.8685 84.3675 42.002 84.099 42.0312 83.7051H42.7881V90.2578H44.0771V91ZM49.9414 87.3623C49.9414 88.6676 49.751 89.6263 49.3701 90.2383C48.9925 90.847 48.4082 91.1514 47.6172 91.1514C46.8164 91.1514 46.2288 90.8405 45.8545 90.2188C45.4801 89.597 45.293 88.6481 45.293 87.3721C45.293 86.0602 45.4818 85.1016 45.8594 84.4961C46.2402 83.8874 46.8262 83.583 47.6172 83.583C48.418 83.583 49.0055 83.8971 49.3799 84.5254C49.7542 85.1536 49.9414 86.0993 49.9414 87.3623ZM48.6914 89.5791C48.7858 89.3382 48.8525 89.0339 48.8916 88.666C48.9307 88.2982 48.9502 87.8636 48.9502 87.3623C48.9502 86.8643 48.9307 86.4313 48.8916 86.0635C48.8525 85.6956 48.7842 85.3896 48.6865 85.1455C48.5889 84.8981 48.4538 84.7109 48.2812 84.584C48.112 84.4538 47.8906 84.3887 47.6172 84.3887C47.347 84.3887 47.124 84.4538 46.9482 84.584C46.7757 84.7109 46.639 84.9014 46.5381 85.1553C46.4404 85.4027 46.3737 85.7152 46.3379 86.0928C46.3021 86.4704 46.2842 86.8968 46.2842 87.3721C46.2842 87.8799 46.2988 88.3047 46.3281 88.6465C46.3607 88.9883 46.429 89.2943 46.5332 89.5645C46.6276 89.8151 46.7611 90.0088 46.9336 90.1455C47.1094 90.279 47.3372 90.3457 47.6172 90.3457C47.8874 90.3457 48.1087 90.2822 48.2812 90.1553C48.457 90.0251 48.5938 89.833 48.6914 89.5791ZM55.4004 87.3623C55.4004 88.6676 55.21 89.6263 54.8291 90.2383C54.4515 90.847 53.8672 91.1514 53.0762 91.1514C52.2754 91.1514 51.6878 90.8405 51.3135 90.2188C50.9391 89.597 50.752 88.6481 50.752 87.3721C50.752 86.0602 50.9408 85.1016 51.3184 84.4961C51.6992 83.8874 52.2852 83.583 53.0762 83.583C53.877 83.583 54.4645 83.8971 54.8389 84.5254C55.2132 85.1536 55.4004 86.0993 55.4004 87.3623ZM54.1504 89.5791C54.2448 89.3382 54.3115 89.0339 54.3506 88.666C54.3896 88.2982 54.4092 87.8636 54.4092 87.3623C54.4092 86.8643 54.3896 86.4313 54.3506 86.0635C54.3115 85.6956 54.2432 85.3896 54.1455 85.1455C54.0479 84.8981 53.9128 84.7109 53.7402 84.584C53.571 84.4538 53.3496 84.3887 53.0762 84.3887C52.806 84.3887 52.583 84.4538 52.4072 84.584C52.2347 84.7109 52.098 84.9014 51.9971 85.1553C51.8994 85.4027 51.8327 85.7152 51.7969 86.0928C51.7611 86.4704 51.7432 86.8968 51.7432 87.3721C51.7432 87.8799 51.7578 88.3047 51.7871 88.6465C51.8197 88.9883 51.888 89.2943 51.9922 89.5645C52.0866 89.8151 52.2201 90.0088 52.3926 90.1455C52.5684 90.279 52.7962 90.3457 53.0762 90.3457C53.3464 90.3457 53.5677 90.2822 53.7402 90.1553C53.916 90.0251 54.0527 89.833 54.1504 89.5791ZM59.7461 85.7461C59.7461 86.4785 59.598 87.0221 59.3018 87.377C59.0088 87.7285 58.584 87.9043 58.0273 87.9043C57.4609 87.9043 57.0312 87.7253 56.7383 87.3672C56.4486 87.0091 56.3037 86.4704 56.3037 85.751C56.3037 85.0218 56.4518 84.4798 56.748 84.125C57.0443 83.7702 57.4707 83.5928 58.0273 83.5928C58.5938 83.5928 59.0218 83.7718 59.3115 84.1299C59.6012 84.488 59.7461 85.0267 59.7461 85.7461ZM62.998 83.7295L59.1895 91H58.3838L62.1924 83.7295H62.998ZM65.0684 88.9834C65.0684 89.7158 64.9202 90.2594 64.624 90.6143C64.3311 90.9658 63.9062 91.1416 63.3496 91.1416C62.7832 91.1416 62.3535 90.9626 62.0605 90.6045C61.7708 90.2464 61.626 89.7077 61.626 88.9883C61.626 88.2591 61.7741 87.7171 62.0703 87.3623C62.3665 87.0075 62.793 86.8301 63.3496 86.8301C63.916 86.8301 64.3441 87.0091 64.6338 87.3672C64.9235 87.7253 65.0684 88.264 65.0684 88.9834ZM58.877 85.7461C58.877 85.2513 58.8184 84.877 58.7012 84.623C58.5872 84.3691 58.3626 84.2422 58.0273 84.2422C57.6921 84.2422 57.4658 84.3708 57.3486 84.6279C57.2314 84.8851 57.1729 85.2594 57.1729 85.751C57.1729 86.2393 57.2282 86.612 57.3389 86.8691C57.4495 87.1263 57.679 87.2549 58.0273 87.2549C58.3626 87.2549 58.5872 87.1263 58.7012 86.8691C58.8184 86.612 58.877 86.2376 58.877 85.7461ZM64.1992 88.9834C64.1992 88.4886 64.1406 88.1143 64.0234 87.8604C63.9095 87.6064 63.6849 87.4795 63.3496 87.4795C63.0143 87.4795 62.7881 87.6081 62.6709 87.8652C62.5537 88.1224 62.4951 88.4967 62.4951 88.9883C62.4951 89.4766 62.5505 89.8493 62.6611 90.1064C62.7718 90.3636 63.0013 90.4922 63.3496 90.4922C63.6849 90.4922 63.9095 90.3636 64.0234 90.1064C64.1406 89.8493 64.1992 89.4749 64.1992 88.9834Z" fill="#606580"/>
<path d="M50.186 68H43.897L46.4458 60.7295H47.6372L50.186 68ZM48.8774 67.1602L47.0171 61.6914L45.1616 67.1602H48.8774ZM58.3159 64.3623C58.3159 65.6676 58.1255 66.6263 57.7446 67.2383C57.367 67.847 56.7827 68.1514 55.9917 68.1514C55.1909 68.1514 54.6034 67.8405 54.229 67.2188C53.8547 66.597 53.6675 65.6481 53.6675 64.3721C53.6675 63.0602 53.8563 62.1016 54.2339 61.4961C54.6147 60.8874 55.2007 60.583 55.9917 60.583C56.7925 60.583 57.38 60.8971 57.7544 61.5254C58.1287 62.1536 58.3159 63.0993 58.3159 64.3623ZM57.0659 66.5791C57.1603 66.3382 57.2271 66.0339 57.2661 65.666C57.3052 65.2982 57.3247 64.8636 57.3247 64.3623C57.3247 63.8643 57.3052 63.4313 57.2661 63.0635C57.2271 62.6956 57.1587 62.3896 57.061 62.1455C56.9634 61.8981 56.8283 61.7109 56.6558 61.584C56.4865 61.4538 56.2651 61.3887 55.9917 61.3887C55.7215 61.3887 55.4985 61.4538 55.3228 61.584C55.1502 61.7109 55.0135 61.9014 54.9126 62.1553C54.8149 62.4027 54.7482 62.7152 54.7124 63.0928C54.6766 63.4704 54.6587 63.8968 54.6587 64.3721C54.6587 64.8799 54.6733 65.3047 54.7026 65.6465C54.7352 65.9883 54.8035 66.2943 54.9077 66.5645C55.0021 66.8151 55.1356 67.0088 55.3081 67.1455C55.4839 67.279 55.7118 67.3457 55.9917 67.3457C56.2619 67.3457 56.4832 67.2822 56.6558 67.1553C56.8315 67.0251 56.9683 66.833 57.0659 66.5791Z" fill="#606580"/>
<path d="M26.8563 84.1111C17.7941 76.778 12 65.5656 12 53C12 30.9086 29.9086 13 52 13C74.0914 13 92 30.9086 92 53C92 65.5656 86.2059 76.778 77.1437 84.1111" stroke="#12151E" stroke-width="14"/>
<path d="M26.8563 84.1111C17.7941 76.778 12 65.5656 12 53C12 30.9086 29.9086 13 52 13C74.0914 13 92 30.9086 92 53C92 65.5656 86.2059 76.778 77.1437 84.1111" stroke="#0089FF" stroke-width="4" stroke-dasharray="1 1"/>
<path d="M81.6586 89.5434L72.713 78.6877" stroke="#0089FF" stroke-width="2"/>
<path d="M22.5734 89.6421L31.5251 78.6877" stroke="#0089FF" stroke-width="2"/>
<path d="M41.9571 44.8613C41.9571 44.2676 41.9024 43.7852 41.793 43.4141C41.6837 43.0391 41.5333 42.75 41.3419 42.5469C41.17 42.3594 40.9962 42.2305 40.8204 42.1602C40.6446 42.0898 40.4512 42.0547 40.2403 42.0547C39.7598 42.0547 39.377 42.2266 39.0919 42.5703C38.8067 42.9141 38.6641 43.4121 38.6641 44.0645C38.6641 44.4316 38.711 44.7344 38.8048 44.9727C38.8985 45.2109 39.0509 45.416 39.2618 45.5879C39.4102 45.709 39.5782 45.791 39.7657 45.834C39.9532 45.873 40.1544 45.8926 40.3692 45.8926C40.6192 45.8926 40.8887 45.8496 41.1778 45.7637C41.4669 45.6738 41.7188 45.5566 41.9337 45.4121C41.9376 45.3535 41.9415 45.2773 41.9454 45.1836C41.9532 45.0859 41.9571 44.9785 41.9571 44.8613ZM37.4747 44.1113C37.4747 43.6621 37.547 43.252 37.6915 42.8809C37.8399 42.5098 38.0411 42.1895 38.295 41.9199C38.5372 41.6621 38.8321 41.4609 39.1798 41.3164C39.5313 41.1719 39.8868 41.0996 40.2462 41.0996C40.6485 41.0996 41.0118 41.168 41.336 41.3047C41.6641 41.4375 41.9473 41.6309 42.1856 41.8848C42.4864 42.2051 42.7188 42.625 42.8829 43.1445C43.0509 43.6641 43.1348 44.3203 43.1348 45.1133C43.1348 45.8359 43.0528 46.5215 42.8887 47.1699C42.7286 47.8145 42.4903 48.3496 42.1739 48.7754C41.838 49.2285 41.4337 49.5742 40.961 49.8125C40.4923 50.0508 39.9122 50.1699 39.2208 50.1699C39.0645 50.1699 38.8985 50.1602 38.7227 50.1406C38.547 50.125 38.3829 50.0938 38.2305 50.0469V48.9277H38.2891C38.3868 48.9824 38.5391 49.0352 38.7462 49.0859C38.9532 49.1367 39.1641 49.1621 39.379 49.1621C40.1446 49.1621 40.7462 48.9102 41.1837 48.4062C41.6212 47.9023 41.8692 47.1816 41.9278 46.2441C41.6153 46.4551 41.3165 46.6094 41.0313 46.707C40.7501 46.8047 40.4434 46.8535 40.1114 46.8535C39.7872 46.8535 39.4923 46.8184 39.2266 46.748C38.961 46.6777 38.6934 46.541 38.4239 46.3379C38.1114 46.0996 37.8751 45.7988 37.7149 45.4355C37.5548 45.0684 37.4747 44.627 37.4747 44.1113ZM48.5079 44.8613C48.5079 44.2676 48.4532 43.7852 48.3438 43.4141C48.2345 43.0391 48.0841 42.75 47.8927 42.5469C47.7208 42.3594 47.547 42.2305 47.3712 42.1602C47.1954 42.0898 47.002 42.0547 46.7911 42.0547C46.3106 42.0547 45.9278 42.2266 45.6427 42.5703C45.3575 42.9141 45.2149 43.4121 45.2149 44.0645C45.2149 44.4316 45.2618 44.7344 45.3555 44.9727C45.4493 45.2109 45.6016 45.416 45.8126 45.5879C45.961 45.709 46.129 45.791 46.3165 45.834C46.504 45.873 46.7052 45.8926 46.92 45.8926C47.17 45.8926 47.4395 45.8496 47.7286 45.7637C48.0177 45.6738 48.2696 45.5566 48.4845 45.4121C48.4884 45.3535 48.4923 45.2773 48.4962 45.1836C48.504 45.0859 48.5079 44.9785 48.5079 44.8613ZM44.0255 44.1113C44.0255 43.6621 44.0977 43.252 44.2423 42.8809C44.3907 42.5098 44.5919 42.1895 44.8458 41.9199C45.088 41.6621 45.3829 41.4609 45.7305 41.3164C46.0821 41.1719 46.4376 41.0996 46.797 41.0996C47.1993 41.0996 47.5626 41.168 47.8868 41.3047C48.2149 41.4375 48.4981 41.6309 48.7364 41.8848C49.0372 42.2051 49.2696 42.625 49.4337 43.1445C49.6016 43.6641 49.6856 44.3203 49.6856 45.1133C49.6856 45.8359 49.6036 46.5215 49.4395 47.1699C49.2794 47.8145 49.0411 48.3496 48.7247 48.7754C48.3887 49.2285 47.9845 49.5742 47.5118 49.8125C47.043 50.0508 46.463 50.1699 45.7716 50.1699C45.6153 50.1699 45.4493 50.1602 45.2735 50.1406C45.0977 50.125 44.9337 50.0938 44.7813 50.0469V48.9277H44.8399C44.9376 48.9824 45.0899 49.0352 45.297 49.0859C45.504 49.1367 45.7149 49.1621 45.9298 49.1621C46.6954 49.1621 47.297 48.9102 47.7345 48.4062C48.172 47.9023 48.42 47.1816 48.4786 46.2441C48.1661 46.4551 47.8673 46.6094 47.5821 46.707C47.3009 46.8047 46.9942 46.8535 46.6622 46.8535C46.338 46.8535 46.043 46.8184 45.7774 46.748C45.5118 46.6777 45.2442 46.541 44.9747 46.3379C44.6622 46.0996 44.4259 45.7988 44.2657 45.4355C44.1055 45.0684 44.0255 44.627 44.0255 44.1113ZM52.6973 50H51.297V48.3301H52.6973V50ZM59.8809 45.6348C59.8809 47.2012 59.6524 48.3516 59.1954 49.0859C58.7423 49.8164 58.0411 50.1816 57.0919 50.1816C56.1309 50.1816 55.4259 49.8086 54.9766 49.0625C54.5274 48.3164 54.3028 47.1777 54.3028 45.6465C54.3028 44.0723 54.5294 42.9219 54.9825 42.1953C55.4395 41.4648 56.1427 41.0996 57.0919 41.0996C58.0528 41.0996 58.7579 41.4766 59.2071 42.2305C59.6563 42.9844 59.8809 44.1191 59.8809 45.6348ZM58.3809 48.2949C58.4942 48.0059 58.5743 47.6406 58.6212 47.1992C58.668 46.7578 58.6915 46.2363 58.6915 45.6348C58.6915 45.0371 58.668 44.5176 58.6212 44.0762C58.5743 43.6348 58.4923 43.2676 58.3751 42.9746C58.2579 42.6777 58.0958 42.4531 57.8887 42.3008C57.6856 42.1445 57.42 42.0664 57.0919 42.0664C56.7677 42.0664 56.5001 42.1445 56.2891 42.3008C56.0821 42.4531 55.918 42.6816 55.797 42.9863C55.6798 43.2832 55.5997 43.6582 55.5567 44.1113C55.5137 44.5645 55.4923 45.0762 55.4923 45.6465C55.4923 46.2559 55.5098 46.7656 55.545 47.1758C55.5841 47.5859 55.6661 47.9531 55.7911 48.2773C55.9044 48.5781 56.0645 48.8105 56.2716 48.9746C56.4825 49.1348 56.7559 49.2148 57.0919 49.2148C57.4161 49.2148 57.6817 49.1387 57.8887 48.9863C58.0997 48.8301 58.2637 48.5996 58.3809 48.2949ZM66.4317 45.6348C66.4317 47.2012 66.2032 48.3516 65.7462 49.0859C65.293 49.8164 64.5919 50.1816 63.6427 50.1816C62.6817 50.1816 61.9766 49.8086 61.5274 49.0625C61.0782 48.3164 60.8536 47.1777 60.8536 45.6465C60.8536 44.0723 61.0802 42.9219 61.5333 42.1953C61.9903 41.4648 62.6934 41.0996 63.6427 41.0996C64.6036 41.0996 65.3087 41.4766 65.7579 42.2305C66.2071 42.9844 66.4317 44.1191 66.4317 45.6348ZM64.9317 48.2949C65.045 48.0059 65.1251 47.6406 65.172 47.1992C65.2188 46.7578 65.2423 46.2363 65.2423 45.6348C65.2423 45.0371 65.2188 44.5176 65.172 44.0762C65.1251 43.6348 65.043 43.2676 64.9259 42.9746C64.8087 42.6777 64.6466 42.4531 64.4395 42.3008C64.2364 42.1445 63.9708 42.0664 63.6427 42.0664C63.3184 42.0664 63.0509 42.1445 62.8399 42.3008C62.6329 42.4531 62.4688 42.6816 62.3477 42.9863C62.2305 43.2832 62.1505 43.6582 62.1075 44.1113C62.0645 44.5645 62.043 45.0762 62.043 45.6465C62.043 46.2559 62.0606 46.7656 62.0958 47.1758C62.1348 47.5859 62.2169 47.9531 62.3419 48.2773C62.4552 48.5781 62.6153 48.8105 62.8223 48.9746C63.0333 49.1348 63.3067 49.2148 63.6427 49.2148C63.9669 49.2148 64.2325 49.1387 64.4395 48.9863C64.6505 48.8301 64.8145 48.5996 64.9317 48.2949Z" fill="#D7E2F2"/>
<line x1="67" y1="56.25" x2="37" y2="56.25" stroke="#8C99B2" stroke-width="0.5"/>
<path d="M51 19C69.2279 19 84.0045 33.7766 84.0045 52.0045C84.0045 62.3751 79.2144 71.6313 71.7491 77.6722L64.2006 68.3438C68.9713 64.4834 72.0045 58.6004 72.0045 52.0045C72.0045 40.404 62.6005 31 51 31V19Z" fill="url(#paint0_linear)"/>
<path d="M71.9946 78L63.495 69L64.495 67.9999L71.9946 78Z" fill="#D7E2F2"/>
<path d="M51 19C69.2279 19 84.0045 33.7766 84.0045 52.0045C84.0045 62.3751 79.2144 71.6313 71.7491 77.6722L64.2006 68.3438C68.9713 64.4834 72.0045 58.6004 72.0045 52.0045C72.0045 40.404 62.6005 31 51 31V19Z" fill="url(#paint1_linear)"/>
<path d="M71.9946 78L63.495 69L64.495 67.9999L71.9946 78Z" fill="white"/>
<path d="M37.521 100.845C37.6675 100.971 37.7876 101.129 37.8813 101.319C37.978 101.507 38.0264 101.75 38.0264 102.049C38.0264 102.342 37.9678 102.614 37.8506 102.866C37.7334 103.115 37.5723 103.333 37.3672 103.521C37.1562 103.714 36.8955 103.862 36.585 103.965C36.2744 104.067 35.9287 104.119 35.5479 104.119C35.1406 104.119 34.7671 104.079 34.4272 104C34.0874 103.918 33.8149 103.833 33.6099 103.745V102.77H33.6714C33.9058 102.925 34.1899 103.062 34.5239 103.183C34.8608 103.3 35.1978 103.358 35.5347 103.358C35.7485 103.358 35.9609 103.331 36.1719 103.275C36.3857 103.216 36.5645 103.123 36.708 102.994C36.8516 102.865 36.957 102.726 37.0244 102.576C37.0918 102.424 37.1255 102.233 37.1255 102.005C37.1255 101.782 37.0845 101.595 37.0024 101.442C36.9233 101.29 36.8105 101.167 36.6641 101.073C36.5205 100.979 36.3477 100.914 36.1455 100.875C35.9463 100.834 35.7324 100.814 35.5039 100.814H34.8184V100.084H35.416C35.8789 100.084 36.251 99.9922 36.5322 99.8076C36.8135 99.623 36.9541 99.3535 36.9541 98.999C36.9541 98.8379 36.9189 98.7002 36.8486 98.5859C36.7812 98.4688 36.6846 98.3735 36.5586 98.3003C36.4209 98.2212 36.2759 98.1685 36.1235 98.1421C35.9741 98.1128 35.8101 98.0981 35.6313 98.0981C35.4438 98.0981 35.2593 98.1201 35.0776 98.1641C34.896 98.2051 34.7246 98.2563 34.5635 98.3179C34.4111 98.3794 34.2778 98.4438 34.1636 98.5112C34.0493 98.5786 33.9556 98.6343 33.8823 98.6782H33.8252V97.7158C34.0244 97.6221 34.2954 97.5356 34.6382 97.4565C34.981 97.3774 35.3193 97.3379 35.6533 97.3379C35.9902 97.3379 36.2803 97.3672 36.5234 97.4258C36.7666 97.4814 36.9893 97.5737 37.1914 97.7026C37.4111 97.8462 37.5752 98.0161 37.6836 98.2124C37.7949 98.4058 37.8506 98.6372 37.8506 98.9067C37.8506 99.2612 37.7319 99.5703 37.4946 99.834C37.2603 100.098 36.9526 100.271 36.5718 100.353V100.418C36.7183 100.445 36.8765 100.492 37.0464 100.559C37.2192 100.626 37.3774 100.722 37.521 100.845ZM41.6123 102.792V101.429C41.416 101.447 41.167 101.472 40.8652 101.504C40.5664 101.533 40.3247 101.576 40.1401 101.631C39.9204 101.699 39.7388 101.803 39.5952 101.943C39.4517 102.081 39.3799 102.274 39.3799 102.523C39.3799 102.805 39.459 103.017 39.6172 103.161C39.7754 103.304 40.0068 103.376 40.3115 103.376C40.5723 103.376 40.8081 103.32 41.019 103.209C41.23 103.095 41.4277 102.956 41.6123 102.792ZM41.6123 103.477C41.5449 103.527 41.4541 103.597 41.3398 103.688C41.2285 103.776 41.1201 103.846 41.0146 103.899C40.8682 103.975 40.7261 104.034 40.5884 104.075C40.4536 104.116 40.2632 104.136 40.0171 104.136C39.8149 104.136 39.623 104.098 39.4414 104.022C39.2598 103.946 39.1001 103.839 38.9624 103.701C38.8306 103.566 38.7251 103.401 38.646 103.205C38.5669 103.005 38.5273 102.796 38.5273 102.576C38.5273 102.236 38.5991 101.948 38.7427 101.71C38.8862 101.47 39.1133 101.28 39.4238 101.139C39.6992 101.013 40.0244 100.927 40.3994 100.88C40.7744 100.83 41.1787 100.793 41.6123 100.77V100.612C41.6123 100.418 41.583 100.263 41.5244 100.146C41.4658 100.026 41.3838 99.9336 41.2783 99.8691C41.1729 99.8018 41.0439 99.7578 40.8916 99.7373C40.7393 99.7139 40.5825 99.7021 40.4214 99.7021C40.231 99.7021 40.0068 99.7314 39.749 99.79C39.4912 99.8457 39.2334 99.9277 38.9756 100.036H38.9272V99.1968C39.0796 99.1528 39.2979 99.1045 39.582 99.0518C39.8662 98.999 40.1475 98.9727 40.4258 98.9727C40.7627 98.9727 41.0469 98.999 41.2783 99.0518C41.5098 99.1045 41.7178 99.1997 41.9023 99.3374C42.0811 99.4722 42.2144 99.6465 42.3022 99.8604C42.3901 100.074 42.4341 100.335 42.4341 100.643V104H41.6123V103.477ZM46.7188 99.8164H44.4248V104H43.5986V99.0913H46.7188V99.8164ZM51.4517 101.416C51.4517 102.233 51.2554 102.885 50.8628 103.372C50.4731 103.855 49.9795 104.097 49.3818 104.097C49.1387 104.097 48.9233 104.069 48.7358 104.013C48.5483 103.958 48.3564 103.871 48.1602 103.754V105.811H47.334V99.0913H48.1602V99.6055C48.3652 99.4209 48.5923 99.2671 48.8413 99.144C49.0933 99.0181 49.3672 98.9551 49.6631 98.9551C50.2256 98.9551 50.6636 99.1777 50.9771 99.623C51.2935 100.068 51.4517 100.666 51.4517 101.416ZM50.5991 101.508C50.5991 100.949 50.5098 100.515 50.3311 100.208C50.1523 99.897 49.8623 99.7417 49.4609 99.7417C49.2266 99.7417 48.9995 99.7944 48.7798 99.8999C48.563 100.002 48.3564 100.136 48.1602 100.3V103.082C48.377 103.187 48.5615 103.259 48.7139 103.297C48.8691 103.335 49.0464 103.354 49.2456 103.354C49.6733 103.354 50.0059 103.197 50.2432 102.884C50.4805 102.57 50.5991 102.112 50.5991 101.508ZM56.167 99.0913L53.5259 105.811H52.6426L53.5215 103.763L51.7373 99.0913H52.6294L53.9697 102.726L55.3057 99.0913H56.167ZM60.043 102.642C60.043 102.917 59.9829 103.15 59.8628 103.341C59.7427 103.531 59.5889 103.682 59.4014 103.793C59.2227 103.902 59.019 103.982 58.7905 104.035C58.562 104.088 58.3335 104.114 58.105 104.114C57.7827 104.114 57.478 104.082 57.1909 104.018C56.9038 103.956 56.6182 103.856 56.334 103.719V102.805H56.3867C56.5859 102.989 56.835 103.136 57.1338 103.244C57.4355 103.35 57.7358 103.402 58.0347 103.402C58.1636 103.402 58.3013 103.389 58.4478 103.363C58.5972 103.333 58.7231 103.29 58.8257 103.231C58.9604 103.149 59.0557 103.061 59.1113 102.967C59.1699 102.874 59.1992 102.745 59.1992 102.581C59.1992 102.405 59.1655 102.264 59.0981 102.159C59.0337 102.05 58.9443 101.97 58.8301 101.917C58.7158 101.864 58.5869 101.832 58.4434 101.82C58.3027 101.806 58.1533 101.798 57.9951 101.798H57.415V101.086H57.8589C57.9702 101.086 58.1094 101.083 58.2764 101.078C58.4434 101.069 58.5767 101.045 58.6763 101.007C58.8022 100.96 58.9033 100.895 58.9795 100.81C59.0557 100.722 59.0938 100.575 59.0938 100.37C59.0938 100.227 59.0615 100.111 58.9971 100.023C58.9326 99.9351 58.8521 99.8662 58.7554 99.8164C58.6558 99.7637 58.5474 99.7285 58.4302 99.7109C58.313 99.6904 58.2002 99.6802 58.0918 99.6802C57.8135 99.6802 57.5454 99.7197 57.2876 99.7988C57.0327 99.875 56.813 99.9893 56.6284 100.142H56.5757V99.2495C56.7866 99.1763 57.0195 99.1118 57.2744 99.0562C57.5322 99.0005 57.79 98.9727 58.0479 98.9727C58.2559 98.9727 58.4668 98.9946 58.6807 99.0386C58.8975 99.0796 59.1025 99.1514 59.2959 99.2539C59.4775 99.3535 59.6299 99.4912 59.7529 99.667C59.876 99.8398 59.9375 100.052 59.9375 100.304C59.9375 100.571 59.8613 100.805 59.709 101.007C59.5596 101.207 59.3604 101.338 59.1113 101.403V101.434C59.3838 101.527 59.6064 101.671 59.7793 101.864C59.9551 102.058 60.043 102.317 60.043 102.642ZM64.8638 104H63.8354L62.1523 101.737H61.7393V104H60.9131V99.0913H61.7393V101.227C61.9531 101.224 62.1348 101.18 62.2842 101.095C62.4365 101.007 62.5654 100.839 62.6709 100.59C62.7031 100.517 62.7383 100.432 62.7764 100.335C62.8174 100.238 62.8496 100.153 62.873 100.08C63.002 99.7197 63.1807 99.4648 63.4092 99.3154C63.6377 99.166 63.9351 99.0913 64.3013 99.0913H64.5254V99.8032H64.3364C64.105 99.8032 63.9307 99.8516 63.8135 99.9482C63.6992 100.042 63.6025 100.215 63.5234 100.467C63.4414 100.722 63.3447 100.921 63.2334 101.064C63.1221 101.205 62.999 101.313 62.8643 101.39L64.8638 104ZM68.1377 102.792V101.429C67.9414 101.447 67.6924 101.472 67.3906 101.504C67.0918 101.533 66.8501 101.576 66.6655 101.631C66.4458 101.699 66.2642 101.803 66.1206 101.943C65.9771 102.081 65.9053 102.274 65.9053 102.523C65.9053 102.805 65.9844 103.017 66.1426 103.161C66.3008 103.304 66.5322 103.376 66.8369 103.376C67.0977 103.376 67.3335 103.32 67.5444 103.209C67.7554 103.095 67.9531 102.956 68.1377 102.792ZM68.1377 103.477C68.0703 103.527 67.9795 103.597 67.8652 103.688C67.7539 103.776 67.6455 103.846 67.54 103.899C67.3936 103.975 67.2515 104.034 67.1138 104.075C66.979 104.116 66.7886 104.136 66.5425 104.136C66.3403 104.136 66.1484 104.098 65.9668 104.022C65.7852 103.946 65.6255 103.839 65.4878 103.701C65.356 103.566 65.2505 103.401 65.1714 103.205C65.0923 103.005 65.0527 102.796 65.0527 102.576C65.0527 102.236 65.1245 101.948 65.2681 101.71C65.4116 101.47 65.6387 101.28 65.9492 101.139C66.2246 101.013 66.5498 100.927 66.9248 100.88C67.2998 100.83 67.7041 100.793 68.1377 100.77V100.612C68.1377 100.418 68.1084 100.263 68.0498 100.146C67.9912 100.026 67.9092 99.9336 67.8037 99.8691C67.6982 99.8018 67.5693 99.7578 67.417 99.7373C67.2646 99.7139 67.1079 99.7021 66.9468 99.7021C66.7563 99.7021 66.5322 99.7314 66.2744 99.79C66.0166 99.8457 65.7588 99.9277 65.501 100.036H65.4526V99.1968C65.605 99.1528 65.8232 99.1045 66.1074 99.0518C66.3916 98.999 66.6729 98.9727 66.9512 98.9727C67.2881 98.9727 67.5723 98.999 67.8037 99.0518C68.0352 99.1045 68.2432 99.1997 68.4277 99.3374C68.6064 99.4722 68.7397 99.6465 68.8276 99.8604C68.9155 100.074 68.9595 100.335 68.9595 100.643V104H68.1377V103.477Z" fill="#D7E2F2"/>
<path d="M141.806 100.845C141.953 100.971 142.073 101.129 142.167 101.319C142.263 101.507 142.312 101.75 142.312 102.049C142.312 102.342 142.253 102.614 142.136 102.866C142.019 103.115 141.857 103.333 141.652 103.521C141.441 103.714 141.181 103.862 140.87 103.965C140.56 104.067 140.214 104.119 139.833 104.119C139.426 104.119 139.052 104.079 138.712 104C138.373 103.918 138.1 103.833 137.895 103.745V102.77H137.957C138.191 102.925 138.475 103.062 138.809 103.183C139.146 103.3 139.483 103.358 139.82 103.358C140.034 103.358 140.246 103.331 140.457 103.275C140.671 103.216 140.85 103.123 140.993 102.994C141.137 102.865 141.242 102.726 141.31 102.576C141.377 102.424 141.411 102.233 141.411 102.005C141.411 101.782 141.37 101.595 141.288 101.442C141.208 101.29 141.096 101.167 140.949 101.073C140.806 100.979 140.633 100.914 140.431 100.875C140.231 100.834 140.018 100.814 139.789 100.814H139.104V100.084H139.701C140.164 100.084 140.536 99.9922 140.817 99.8076C141.099 99.623 141.239 99.3535 141.239 98.999C141.239 98.8379 141.204 98.7002 141.134 98.5859C141.066 98.4688 140.97 98.3735 140.844 98.3003C140.706 98.2212 140.561 98.1685 140.409 98.1421C140.259 98.1128 140.095 98.0981 139.917 98.0981C139.729 98.0981 139.544 98.1201 139.363 98.1641C139.181 98.2051 139.01 98.2563 138.849 98.3179C138.696 98.3794 138.563 98.4438 138.449 98.5112C138.334 98.5786 138.241 98.6343 138.167 98.6782H138.11V97.7158C138.31 97.6221 138.581 97.5356 138.923 97.4565C139.266 97.3774 139.604 97.3379 139.938 97.3379C140.275 97.3379 140.565 97.3672 140.809 97.4258C141.052 97.4814 141.274 97.5737 141.477 97.7026C141.696 97.8462 141.86 98.0161 141.969 98.2124C142.08 98.4058 142.136 98.6372 142.136 98.9067C142.136 99.2612 142.017 99.5703 141.78 99.834C141.545 100.098 141.238 100.271 140.857 100.353V100.418C141.003 100.445 141.162 100.492 141.332 100.559C141.504 100.626 141.663 100.722 141.806 100.845ZM145.897 102.792V101.429C145.701 101.447 145.452 101.472 145.15 101.504C144.852 101.533 144.61 101.576 144.425 101.631C144.206 101.699 144.024 101.803 143.88 101.943C143.737 102.081 143.665 102.274 143.665 102.523C143.665 102.805 143.744 103.017 143.902 103.161C144.061 103.304 144.292 103.376 144.597 103.376C144.857 103.376 145.093 103.32 145.304 103.209C145.515 103.095 145.713 102.956 145.897 102.792ZM145.897 103.477C145.83 103.527 145.739 103.597 145.625 103.688C145.514 103.776 145.405 103.846 145.3 103.899C145.153 103.975 145.011 104.034 144.874 104.075C144.739 104.116 144.548 104.136 144.302 104.136C144.1 104.136 143.908 104.098 143.727 104.022C143.545 103.946 143.385 103.839 143.248 103.701C143.116 103.566 143.01 103.401 142.931 103.205C142.852 103.005 142.812 102.796 142.812 102.576C142.812 102.236 142.884 101.948 143.028 101.71C143.171 101.47 143.398 101.28 143.709 101.139C143.984 101.013 144.31 100.927 144.685 100.88C145.06 100.83 145.464 100.793 145.897 100.77V100.612C145.897 100.418 145.868 100.263 145.81 100.146C145.751 100.026 145.669 99.9336 145.563 99.8691C145.458 99.8018 145.329 99.7578 145.177 99.7373C145.024 99.7139 144.868 99.7021 144.707 99.7021C144.516 99.7021 144.292 99.7314 144.034 99.79C143.776 99.8457 143.519 99.9277 143.261 100.036H143.212V99.1968C143.365 99.1528 143.583 99.1045 143.867 99.0518C144.151 98.999 144.433 98.9727 144.711 98.9727C145.048 98.9727 145.332 98.999 145.563 99.0518C145.795 99.1045 146.003 99.1997 146.188 99.3374C146.366 99.4722 146.5 99.6465 146.587 99.8604C146.675 100.074 146.719 100.335 146.719 100.643V104H145.897V103.477ZM151.004 99.8164H148.71V104H147.884V99.0913H151.004V99.8164ZM155.737 101.416C155.737 102.233 155.541 102.885 155.148 103.372C154.758 103.855 154.265 104.097 153.667 104.097C153.424 104.097 153.208 104.069 153.021 104.013C152.833 103.958 152.642 103.871 152.445 103.754V105.811H151.619V99.0913H152.445V99.6055C152.65 99.4209 152.877 99.2671 153.126 99.144C153.378 99.0181 153.652 98.9551 153.948 98.9551C154.511 98.9551 154.949 99.1777 155.262 99.623C155.579 100.068 155.737 100.666 155.737 101.416ZM154.884 101.508C154.884 100.949 154.795 100.515 154.616 100.208C154.438 99.897 154.147 99.7417 153.746 99.7417C153.512 99.7417 153.285 99.7944 153.065 99.8999C152.848 100.002 152.642 100.136 152.445 100.3V103.082C152.662 103.187 152.847 103.259 152.999 103.297C153.154 103.335 153.332 103.354 153.531 103.354C153.958 103.354 154.291 103.197 154.528 102.884C154.766 102.57 154.884 102.112 154.884 101.508ZM160.452 99.0913L157.811 105.811H156.928L157.807 103.763L156.022 99.0913H156.915L158.255 102.726L159.591 99.0913H160.452ZM164.328 102.642C164.328 102.917 164.268 103.15 164.148 103.341C164.028 103.531 163.874 103.682 163.687 103.793C163.508 103.902 163.304 103.982 163.076 104.035C162.847 104.088 162.619 104.114 162.39 104.114C162.068 104.114 161.763 104.082 161.476 104.018C161.189 103.956 160.903 103.856 160.619 103.719V102.805H160.672C160.871 102.989 161.12 103.136 161.419 103.244C161.721 103.35 162.021 103.402 162.32 103.402C162.449 103.402 162.586 103.389 162.733 103.363C162.882 103.333 163.008 103.29 163.111 103.231C163.246 103.149 163.341 103.061 163.396 102.967C163.455 102.874 163.484 102.745 163.484 102.581C163.484 102.405 163.451 102.264 163.383 102.159C163.319 102.05 163.229 101.97 163.115 101.917C163.001 101.864 162.872 101.832 162.729 101.82C162.588 101.806 162.438 101.798 162.28 101.798H161.7V101.086H162.144C162.255 101.086 162.395 101.083 162.562 101.078C162.729 101.069 162.862 101.045 162.961 101.007C163.087 100.96 163.188 100.895 163.265 100.81C163.341 100.722 163.379 100.575 163.379 100.37C163.379 100.227 163.347 100.111 163.282 100.023C163.218 99.9351 163.137 99.8662 163.041 99.8164C162.941 99.7637 162.833 99.7285 162.715 99.7109C162.598 99.6904 162.485 99.6802 162.377 99.6802C162.099 99.6802 161.831 99.7197 161.573 99.7988C161.318 99.875 161.098 99.9893 160.914 100.142H160.861V99.2495C161.072 99.1763 161.305 99.1118 161.56 99.0562C161.817 99.0005 162.075 98.9727 162.333 98.9727C162.541 98.9727 162.752 98.9946 162.966 99.0386C163.183 99.0796 163.388 99.1514 163.581 99.2539C163.763 99.3535 163.915 99.4912 164.038 99.667C164.161 99.8398 164.223 100.052 164.223 100.304C164.223 100.571 164.146 100.805 163.994 101.007C163.845 101.207 163.646 101.338 163.396 101.403V101.434C163.669 101.527 163.892 101.671 164.064 101.864C164.24 102.058 164.328 102.317 164.328 102.642ZM169.149 104H168.121L166.438 101.737H166.024V104H165.198V99.0913H166.024V101.227C166.238 101.224 166.42 101.18 166.569 101.095C166.722 101.007 166.851 100.839 166.956 100.59C166.988 100.517 167.023 100.432 167.062 100.335C167.103 100.238 167.135 100.153 167.158 100.08C167.287 99.7197 167.466 99.4648 167.694 99.3154C167.923 99.166 168.22 99.0913 168.586 99.0913H168.811V99.8032H168.622C168.39 99.8032 168.216 99.8516 168.099 99.9482C167.984 100.042 167.888 100.215 167.809 100.467C167.727 100.722 167.63 100.921 167.519 101.064C167.407 101.205 167.284 101.313 167.149 101.39L169.149 104ZM172.423 102.792V101.429C172.227 101.447 171.978 101.472 171.676 101.504C171.377 101.533 171.135 101.576 170.951 101.631C170.731 101.699 170.549 101.803 170.406 101.943C170.262 102.081 170.19 102.274 170.19 102.523C170.19 102.805 170.27 103.017 170.428 103.161C170.586 103.304 170.817 103.376 171.122 103.376C171.383 103.376 171.619 103.32 171.83 103.209C172.041 103.095 172.238 102.956 172.423 102.792ZM172.423 103.477C172.355 103.527 172.265 103.597 172.15 103.688C172.039 103.776 171.931 103.846 171.825 103.899C171.679 103.975 171.537 104.034 171.399 104.075C171.264 104.116 171.074 104.136 170.828 104.136C170.625 104.136 170.434 104.098 170.252 104.022C170.07 103.946 169.911 103.839 169.773 103.701C169.641 103.566 169.536 103.401 169.457 103.205C169.377 103.005 169.338 102.796 169.338 102.576C169.338 102.236 169.41 101.948 169.553 101.71C169.697 101.47 169.924 101.28 170.234 101.139C170.51 101.013 170.835 100.927 171.21 100.88C171.585 100.83 171.989 100.793 172.423 100.77V100.612C172.423 100.418 172.394 100.263 172.335 100.146C172.276 100.026 172.194 99.9336 172.089 99.8691C171.983 99.8018 171.854 99.7578 171.702 99.7373C171.55 99.7139 171.393 99.7021 171.232 99.7021C171.042 99.7021 170.817 99.7314 170.56 99.79C170.302 99.8457 170.044 99.9277 169.786 100.036H169.738V99.1968C169.89 99.1528 170.108 99.1045 170.393 99.0518C170.677 98.999 170.958 98.9727 171.236 98.9727C171.573 98.9727 171.857 98.999 172.089 99.0518C172.32 99.1045 172.528 99.1997 172.713 99.3374C172.892 99.4722 173.025 99.6465 173.113 99.8604C173.201 100.074 173.245 100.335 173.245 100.643V104H172.423V103.477ZM181.726 101.992C181.726 102.317 181.665 102.604 181.542 102.853C181.418 103.102 181.253 103.307 181.045 103.468C180.799 103.662 180.535 103.799 180.254 103.881C179.973 103.96 179.609 104 179.164 104H177.288V97.4565H179.023C179.489 97.4565 179.838 97.4727 180.069 97.5049C180.304 97.5342 180.528 97.606 180.742 97.7202C180.976 97.8462 181.147 98.0117 181.256 98.2168C181.364 98.4189 181.418 98.6577 181.418 98.9331C181.418 99.2407 181.336 99.5161 181.172 99.7593C181.011 100.002 180.787 100.193 180.5 100.331V100.366C180.89 100.471 181.191 100.665 181.405 100.946C181.619 101.224 181.726 101.573 181.726 101.992ZM180.513 99.0562C180.513 98.8979 180.487 98.7617 180.434 98.6475C180.381 98.5303 180.296 98.438 180.179 98.3706C180.039 98.2915 179.882 98.2432 179.709 98.2256C179.536 98.208 179.297 98.1992 178.993 98.1992H178.158V100.115H179.146C179.419 100.115 179.62 100.102 179.749 100.076C179.877 100.046 180.011 99.9878 180.148 99.8999C180.28 99.8149 180.374 99.7036 180.43 99.5659C180.485 99.4282 180.513 99.2583 180.513 99.0562ZM180.821 102.027C180.821 101.781 180.786 101.579 180.715 101.42C180.645 101.259 180.503 101.123 180.289 101.012C180.151 100.938 180 100.892 179.836 100.871C179.675 100.851 179.445 100.84 179.146 100.84H178.158V103.257H178.865C179.246 103.257 179.546 103.24 179.766 103.205C179.986 103.169 180.179 103.095 180.346 102.98C180.51 102.866 180.63 102.737 180.707 102.594C180.783 102.447 180.821 102.258 180.821 102.027ZM187.052 101.974C187.052 102.291 186.991 102.578 186.868 102.835C186.745 103.093 186.579 103.303 186.371 103.464C186.125 103.657 185.861 103.795 185.58 103.877C185.299 103.959 184.936 104 184.49 104H182.596V97.4565H186.582V98.23H183.466V100.023H184.517C184.962 100.023 185.325 100.049 185.606 100.102C185.888 100.152 186.153 100.273 186.402 100.467C186.625 100.64 186.789 100.854 186.894 101.108C187 101.363 187.052 101.652 187.052 101.974ZM186.143 101.992C186.143 101.772 186.106 101.579 186.033 101.412C185.962 101.245 185.85 101.11 185.694 101.007C185.533 100.899 185.347 100.833 185.136 100.81C184.925 100.786 184.628 100.774 184.244 100.774H183.466V103.257H184.222C184.612 103.257 184.911 103.238 185.119 103.2C185.33 103.162 185.514 103.089 185.672 102.98C185.836 102.866 185.955 102.733 186.028 102.581C186.104 102.425 186.143 102.229 186.143 101.992Z" fill="#D7E2F2"/>
<path d="M154.077 91H150.532V90.2578H151.851V85.3848H150.532V84.7207C151.03 84.7207 151.396 84.6507 151.631 84.5107C151.868 84.3675 152.002 84.099 152.031 83.7051H152.788V90.2578H154.077V91ZM159.941 87.3623C159.941 88.6676 159.751 89.6263 159.37 90.2383C158.993 90.847 158.408 91.1514 157.617 91.1514C156.816 91.1514 156.229 90.8405 155.854 90.2188C155.48 89.597 155.293 88.6481 155.293 87.3721C155.293 86.0602 155.482 85.1016 155.859 84.4961C156.24 83.8874 156.826 83.583 157.617 83.583C158.418 83.583 159.006 83.8971 159.38 84.5254C159.754 85.1536 159.941 86.0993 159.941 87.3623ZM158.691 89.5791C158.786 89.3382 158.853 89.0339 158.892 88.666C158.931 88.2982 158.95 87.8636 158.95 87.3623C158.95 86.8643 158.931 86.4313 158.892 86.0635C158.853 85.6956 158.784 85.3896 158.687 85.1455C158.589 84.8981 158.454 84.7109 158.281 84.584C158.112 84.4538 157.891 84.3887 157.617 84.3887C157.347 84.3887 157.124 84.4538 156.948 84.584C156.776 84.7109 156.639 84.9014 156.538 85.1553C156.44 85.4027 156.374 85.7152 156.338 86.0928C156.302 86.4704 156.284 86.8968 156.284 87.3721C156.284 87.8799 156.299 88.3047 156.328 88.6465C156.361 88.9883 156.429 89.2943 156.533 89.5645C156.628 89.8151 156.761 90.0088 156.934 90.1455C157.109 90.279 157.337 90.3457 157.617 90.3457C157.887 90.3457 158.109 90.2822 158.281 90.1553C158.457 90.0251 158.594 89.833 158.691 89.5791ZM165.4 87.3623C165.4 88.6676 165.21 89.6263 164.829 90.2383C164.451 90.847 163.867 91.1514 163.076 91.1514C162.275 91.1514 161.688 90.8405 161.313 90.2188C160.939 89.597 160.752 88.6481 160.752 87.3721C160.752 86.0602 160.941 85.1016 161.318 84.4961C161.699 83.8874 162.285 83.583 163.076 83.583C163.877 83.583 164.465 83.8971 164.839 84.5254C165.213 85.1536 165.4 86.0993 165.4 87.3623ZM164.15 89.5791C164.245 89.3382 164.312 89.0339 164.351 88.666C164.39 88.2982 164.409 87.8636 164.409 87.3623C164.409 86.8643 164.39 86.4313 164.351 86.0635C164.312 85.6956 164.243 85.3896 164.146 85.1455C164.048 84.8981 163.913 84.7109 163.74 84.584C163.571 84.4538 163.35 84.3887 163.076 84.3887C162.806 84.3887 162.583 84.4538 162.407 84.584C162.235 84.7109 162.098 84.9014 161.997 85.1553C161.899 85.4027 161.833 85.7152 161.797 86.0928C161.761 86.4704 161.743 86.8968 161.743 87.3721C161.743 87.8799 161.758 88.3047 161.787 88.6465C161.82 88.9883 161.888 89.2943 161.992 89.5645C162.087 89.8151 162.22 90.0088 162.393 90.1455C162.568 90.279 162.796 90.3457 163.076 90.3457C163.346 90.3457 163.568 90.2822 163.74 90.1553C163.916 90.0251 164.053 89.833 164.15 89.5791ZM169.746 85.7461C169.746 86.4785 169.598 87.0221 169.302 87.377C169.009 87.7285 168.584 87.9043 168.027 87.9043C167.461 87.9043 167.031 87.7253 166.738 87.3672C166.449 87.0091 166.304 86.4704 166.304 85.751C166.304 85.0218 166.452 84.4798 166.748 84.125C167.044 83.7702 167.471 83.5928 168.027 83.5928C168.594 83.5928 169.022 83.7718 169.312 84.1299C169.601 84.488 169.746 85.0267 169.746 85.7461ZM172.998 83.7295L169.189 91H168.384L172.192 83.7295H172.998ZM175.068 88.9834C175.068 89.7158 174.92 90.2594 174.624 90.6143C174.331 90.9658 173.906 91.1416 173.35 91.1416C172.783 91.1416 172.354 90.9626 172.061 90.6045C171.771 90.2464 171.626 89.7077 171.626 88.9883C171.626 88.2591 171.774 87.7171 172.07 87.3623C172.367 87.0075 172.793 86.8301 173.35 86.8301C173.916 86.8301 174.344 87.0091 174.634 87.3672C174.924 87.7253 175.068 88.264 175.068 88.9834ZM168.877 85.7461C168.877 85.2513 168.818 84.877 168.701 84.623C168.587 84.3691 168.363 84.2422 168.027 84.2422C167.692 84.2422 167.466 84.3708 167.349 84.6279C167.231 84.8851 167.173 85.2594 167.173 85.751C167.173 86.2393 167.228 86.612 167.339 86.8691C167.45 87.1263 167.679 87.2549 168.027 87.2549C168.363 87.2549 168.587 87.1263 168.701 86.8691C168.818 86.612 168.877 86.2376 168.877 85.7461ZM174.199 88.9834C174.199 88.4886 174.141 88.1143 174.023 87.8604C173.91 87.6064 173.685 87.4795 173.35 87.4795C173.014 87.4795 172.788 87.6081 172.671 87.8652C172.554 88.1224 172.495 88.4967 172.495 88.9883C172.495 89.4766 172.55 89.8493 172.661 90.1064C172.772 90.3636 173.001 90.4922 173.35 90.4922C173.685 90.4922 173.91 90.3636 174.023 90.1064C174.141 89.8493 174.199 89.4749 174.199 88.9834Z" fill="#606580"/>
<path d="M160.186 68H153.897L156.446 60.7295H157.637L160.186 68ZM158.877 67.1602L157.017 61.6914L155.162 67.1602H158.877ZM168.316 64.3623C168.316 65.6676 168.125 66.6263 167.745 67.2383C167.367 67.847 166.783 68.1514 165.992 68.1514C165.191 68.1514 164.603 67.8405 164.229 67.2188C163.855 66.597 163.667 65.6481 163.667 64.3721C163.667 63.0602 163.856 62.1016 164.234 61.4961C164.615 60.8874 165.201 60.583 165.992 60.583C166.792 60.583 167.38 60.8971 167.754 61.5254C168.129 62.1536 168.316 63.0993 168.316 64.3623ZM167.066 66.5791C167.16 66.3382 167.227 66.0339 167.266 65.666C167.305 65.2982 167.325 64.8636 167.325 64.3623C167.325 63.8643 167.305 63.4313 167.266 63.0635C167.227 62.6956 167.159 62.3896 167.061 62.1455C166.963 61.8981 166.828 61.7109 166.656 61.584C166.486 61.4538 166.265 61.3887 165.992 61.3887C165.722 61.3887 165.499 61.4538 165.323 61.584C165.15 61.7109 165.014 61.9014 164.913 62.1553C164.815 62.4027 164.748 62.7152 164.712 63.0928C164.677 63.4704 164.659 63.8968 164.659 64.3721C164.659 64.8799 164.673 65.3047 164.703 65.6465C164.735 65.9883 164.804 66.2943 164.908 66.5645C165.002 66.8151 165.136 67.0088 165.308 67.1455C165.484 67.279 165.712 67.3457 165.992 67.3457C166.262 67.3457 166.483 67.2822 166.656 67.1553C166.832 67.0251 166.968 66.833 167.066 66.5791Z" fill="#606580"/>
<path d="M136.856 84.1111C127.794 76.778 122 65.5656 122 53C122 30.9086 139.909 13 162 13C184.091 13 202 30.9086 202 53C202 65.5656 196.206 76.778 187.144 84.1111" stroke="#12151E" stroke-width="14"/>
<path d="M136.856 84.1111C127.794 76.778 122 65.5656 122 53C122 30.9086 139.909 13 162 13C184.091 13 202 30.9086 202 53C202 65.5656 196.206 76.778 187.144 84.1111" stroke="#0089FF" stroke-width="4" stroke-dasharray="1 1"/>
<path d="M191.659 89.5434L182.713 78.6877" stroke="#0089FF" stroke-width="2"/>
<path d="M132.573 89.6421L141.525 78.6877" stroke="#0089FF" stroke-width="2"/>
<path d="M151.957 44.8613C151.957 44.2676 151.902 43.7852 151.793 43.4141C151.684 43.0391 151.533 42.75 151.342 42.5469C151.17 42.3594 150.996 42.2305 150.82 42.1602C150.645 42.0898 150.451 42.0547 150.24 42.0547C149.76 42.0547 149.377 42.2266 149.092 42.5703C148.807 42.9141 148.664 43.4121 148.664 44.0645C148.664 44.4316 148.711 44.7344 148.805 44.9727C148.899 45.2109 149.051 45.416 149.262 45.5879C149.41 45.709 149.578 45.791 149.766 45.834C149.953 45.873 150.154 45.8926 150.369 45.8926C150.619 45.8926 150.889 45.8496 151.178 45.7637C151.467 45.6738 151.719 45.5566 151.934 45.4121C151.938 45.3535 151.941 45.2773 151.945 45.1836C151.953 45.0859 151.957 44.9785 151.957 44.8613ZM147.475 44.1113C147.475 43.6621 147.547 43.252 147.691 42.8809C147.84 42.5098 148.041 42.1895 148.295 41.9199C148.537 41.6621 148.832 41.4609 149.18 41.3164C149.531 41.1719 149.887 41.0996 150.246 41.0996C150.649 41.0996 151.012 41.168 151.336 41.3047C151.664 41.4375 151.947 41.6309 152.186 41.8848C152.486 42.2051 152.719 42.625 152.883 43.1445C153.051 43.6641 153.135 44.3203 153.135 45.1133C153.135 45.8359 153.053 46.5215 152.889 47.1699C152.729 47.8145 152.49 48.3496 152.174 48.7754C151.838 49.2285 151.434 49.5742 150.961 49.8125C150.492 50.0508 149.912 50.1699 149.221 50.1699C149.065 50.1699 148.899 50.1602 148.723 50.1406C148.547 50.125 148.383 50.0938 148.231 50.0469V48.9277H148.289C148.387 48.9824 148.539 49.0352 148.746 49.0859C148.953 49.1367 149.164 49.1621 149.379 49.1621C150.145 49.1621 150.746 48.9102 151.184 48.4062C151.621 47.9023 151.869 47.1816 151.928 46.2441C151.615 46.4551 151.316 46.6094 151.031 46.707C150.75 46.8047 150.443 46.8535 150.111 46.8535C149.787 46.8535 149.492 46.8184 149.227 46.748C148.961 46.6777 148.693 46.541 148.424 46.3379C148.111 46.0996 147.875 45.7988 147.715 45.4355C147.555 45.0684 147.475 44.627 147.475 44.1113ZM158.508 44.8613C158.508 44.2676 158.453 43.7852 158.344 43.4141C158.234 43.0391 158.084 42.75 157.893 42.5469C157.721 42.3594 157.547 42.2305 157.371 42.1602C157.195 42.0898 157.002 42.0547 156.791 42.0547C156.311 42.0547 155.928 42.2266 155.643 42.5703C155.357 42.9141 155.215 43.4121 155.215 44.0645C155.215 44.4316 155.262 44.7344 155.356 44.9727C155.449 45.2109 155.602 45.416 155.813 45.5879C155.961 45.709 156.129 45.791 156.316 45.834C156.504 45.873 156.705 45.8926 156.92 45.8926C157.17 45.8926 157.44 45.8496 157.729 45.7637C158.018 45.6738 158.27 45.5566 158.484 45.4121C158.488 45.3535 158.492 45.2773 158.496 45.1836C158.504 45.0859 158.508 44.9785 158.508 44.8613ZM154.025 44.1113C154.025 43.6621 154.098 43.252 154.242 42.8809C154.391 42.5098 154.592 42.1895 154.846 41.9199C155.088 41.6621 155.383 41.4609 155.731 41.3164C156.082 41.1719 156.438 41.0996 156.797 41.0996C157.199 41.0996 157.563 41.168 157.887 41.3047C158.215 41.4375 158.498 41.6309 158.736 41.8848C159.037 42.2051 159.27 42.625 159.434 43.1445C159.602 43.6641 159.686 44.3203 159.686 45.1133C159.686 45.8359 159.604 46.5215 159.44 47.1699C159.279 47.8145 159.041 48.3496 158.725 48.7754C158.389 49.2285 157.984 49.5742 157.512 49.8125C157.043 50.0508 156.463 50.1699 155.772 50.1699C155.615 50.1699 155.449 50.1602 155.274 50.1406C155.098 50.125 154.934 50.0938 154.781 50.0469V48.9277H154.84C154.938 48.9824 155.09 49.0352 155.297 49.0859C155.504 49.1367 155.715 49.1621 155.93 49.1621C156.695 49.1621 157.297 48.9102 157.734 48.4062C158.172 47.9023 158.42 47.1816 158.479 46.2441C158.166 46.4551 157.867 46.6094 157.582 46.707C157.301 46.8047 156.994 46.8535 156.662 46.8535C156.338 46.8535 156.043 46.8184 155.777 46.748C155.512 46.6777 155.244 46.541 154.975 46.3379C154.662 46.0996 154.426 45.7988 154.266 45.4355C154.106 45.0684 154.025 44.627 154.025 44.1113ZM162.697 50H161.297V48.3301H162.697V50ZM169.881 45.6348C169.881 47.2012 169.652 48.3516 169.195 49.0859C168.742 49.8164 168.041 50.1816 167.092 50.1816C166.131 50.1816 165.426 49.8086 164.977 49.0625C164.527 48.3164 164.303 47.1777 164.303 45.6465C164.303 44.0723 164.529 42.9219 164.982 42.1953C165.44 41.4648 166.143 41.0996 167.092 41.0996C168.053 41.0996 168.758 41.4766 169.207 42.2305C169.656 42.9844 169.881 44.1191 169.881 45.6348ZM168.381 48.2949C168.494 48.0059 168.574 47.6406 168.621 47.1992C168.668 46.7578 168.691 46.2363 168.691 45.6348C168.691 45.0371 168.668 44.5176 168.621 44.0762C168.574 43.6348 168.492 43.2676 168.375 42.9746C168.258 42.6777 168.096 42.4531 167.889 42.3008C167.686 42.1445 167.42 42.0664 167.092 42.0664C166.768 42.0664 166.5 42.1445 166.289 42.3008C166.082 42.4531 165.918 42.6816 165.797 42.9863C165.68 43.2832 165.6 43.6582 165.557 44.1113C165.514 44.5645 165.492 45.0762 165.492 45.6465C165.492 46.2559 165.51 46.7656 165.545 47.1758C165.584 47.5859 165.666 47.9531 165.791 48.2773C165.904 48.5781 166.065 48.8105 166.272 48.9746C166.482 49.1348 166.756 49.2148 167.092 49.2148C167.416 49.2148 167.682 49.1387 167.889 48.9863C168.1 48.8301 168.264 48.5996 168.381 48.2949ZM176.432 45.6348C176.432 47.2012 176.203 48.3516 175.746 49.0859C175.293 49.8164 174.592 50.1816 173.643 50.1816C172.682 50.1816 171.977 49.8086 171.527 49.0625C171.078 48.3164 170.854 47.1777 170.854 45.6465C170.854 44.0723 171.08 42.9219 171.533 42.1953C171.99 41.4648 172.693 41.0996 173.643 41.0996C174.604 41.0996 175.309 41.4766 175.758 42.2305C176.207 42.9844 176.432 44.1191 176.432 45.6348ZM174.932 48.2949C175.045 48.0059 175.125 47.6406 175.172 47.1992C175.219 46.7578 175.242 46.2363 175.242 45.6348C175.242 45.0371 175.219 44.5176 175.172 44.0762C175.125 43.6348 175.043 43.2676 174.926 42.9746C174.809 42.6777 174.647 42.4531 174.44 42.3008C174.236 42.1445 173.971 42.0664 173.643 42.0664C173.318 42.0664 173.051 42.1445 172.84 42.3008C172.633 42.4531 172.469 42.6816 172.348 42.9863C172.231 43.2832 172.15 43.6582 172.107 44.1113C172.065 44.5645 172.043 45.0762 172.043 45.6465C172.043 46.2559 172.061 46.7656 172.096 47.1758C172.135 47.5859 172.217 47.9531 172.342 48.2773C172.455 48.5781 172.615 48.8105 172.822 48.9746C173.033 49.1348 173.307 49.2148 173.643 49.2148C173.967 49.2148 174.232 49.1387 174.44 48.9863C174.65 48.8301 174.815 48.5996 174.932 48.2949Z" fill="#D7E2F2"/>
<line x1="177" y1="56.25" x2="147" y2="56.25" stroke="#8C99B2" stroke-width="0.5"/>
<path d="M161 19C179.228 19 194.005 33.7766 194.005 52.0045C194.005 62.3751 189.214 71.6313 181.749 77.6722L174.201 68.3438C178.971 64.4834 182.005 58.6004 182.005 52.0045C182.005 40.404 172.6 31 161 31V19Z" fill="url(#paint2_linear)"/>
<path d="M181.995 78L173.495 69L174.495 67.9999L181.995 78Z" fill="#D7E2F2"/>
<path d="M161 19C179.228 19 194.005 33.7766 194.005 52.0045C194.005 62.3751 189.214 71.6313 181.749 77.6722L174.201 68.3438C178.971 64.4834 182.005 58.6004 182.005 52.0045C182.005 40.404 172.6 31 161 31V19Z" fill="url(#paint3_linear)"/>
<path d="M181.995 78L173.495 69L174.495 67.9999L181.995 78Z" fill="white"/>
<path d="M217 110L217 8" stroke="#3C4053" stroke-width="0.5"/>
<path d="M319 110L319 8" stroke="#3C4053" stroke-width="0.5"/>
<path d="M234.544 14.23H231.534V20H230.664V13.4565H234.544V14.23ZM237.91 18.7915V17.4292C237.714 17.4468 237.465 17.4717 237.163 17.5039C236.864 17.5332 236.623 17.5757 236.438 17.6313C236.218 17.6987 236.037 17.8027 235.893 17.9434C235.75 18.0811 235.678 18.2744 235.678 18.5234C235.678 18.8047 235.757 19.0171 235.915 19.1606C236.073 19.3042 236.305 19.376 236.609 19.376C236.87 19.376 237.106 19.3203 237.317 19.209C237.528 19.0947 237.726 18.9556 237.91 18.7915ZM237.91 19.4771C237.843 19.5269 237.752 19.5972 237.638 19.688C237.526 19.7759 237.418 19.8462 237.312 19.8989C237.166 19.9751 237.024 20.0337 236.886 20.0747C236.751 20.1157 236.561 20.1362 236.315 20.1362C236.113 20.1362 235.921 20.0981 235.739 20.022C235.558 19.9458 235.398 19.8389 235.26 19.7012C235.128 19.5664 235.023 19.4009 234.944 19.2046C234.865 19.0054 234.825 18.7959 234.825 18.5762C234.825 18.2363 234.897 17.9478 235.041 17.7104C235.184 17.4702 235.411 17.2798 235.722 17.1392C235.997 17.0132 236.322 16.9268 236.697 16.8799C237.072 16.8301 237.477 16.7935 237.91 16.77V16.6118C237.91 16.4185 237.881 16.2632 237.822 16.146C237.764 16.0259 237.682 15.9336 237.576 15.8691C237.471 15.8018 237.342 15.7578 237.189 15.7373C237.037 15.7139 236.88 15.7021 236.719 15.7021C236.529 15.7021 236.305 15.7314 236.047 15.79C235.789 15.8457 235.531 15.9277 235.273 16.0361H235.225V15.1968C235.377 15.1528 235.596 15.1045 235.88 15.0518C236.164 14.999 236.445 14.9727 236.724 14.9727C237.061 14.9727 237.345 14.999 237.576 15.0518C237.808 15.1045 238.016 15.1997 238.2 15.3374C238.379 15.4722 238.512 15.6465 238.6 15.8604C238.688 16.0742 238.732 16.335 238.732 16.6426V20H237.91V19.4771ZM243.148 18.6421C243.148 18.9175 243.088 19.1504 242.968 19.3408C242.848 19.5312 242.694 19.6821 242.507 19.7935C242.328 19.9019 242.125 19.9824 241.896 20.0352C241.667 20.0879 241.439 20.1143 241.21 20.1143C240.888 20.1143 240.583 20.082 240.296 20.0176C240.009 19.9561 239.724 19.8564 239.439 19.7188V18.8047H239.492C239.691 18.9893 239.94 19.1357 240.239 19.2441C240.541 19.3496 240.841 19.4023 241.14 19.4023C241.269 19.4023 241.407 19.3892 241.553 19.3628C241.703 19.3335 241.829 19.2896 241.931 19.231C242.066 19.1489 242.161 19.061 242.217 18.9673C242.275 18.8735 242.305 18.7446 242.305 18.5806C242.305 18.4048 242.271 18.2642 242.204 18.1587C242.139 18.0503 242.05 17.9697 241.936 17.917C241.821 17.8643 241.692 17.832 241.549 17.8203C241.408 17.8057 241.259 17.7983 241.101 17.7983H240.521V17.0864H240.964C241.076 17.0864 241.215 17.0835 241.382 17.0776C241.549 17.0688 241.682 17.0454 241.782 17.0073C241.908 16.9604 242.009 16.8945 242.085 16.8096C242.161 16.7217 242.199 16.5752 242.199 16.3701C242.199 16.2266 242.167 16.1108 242.103 16.0229C242.038 15.9351 241.958 15.8662 241.861 15.8164C241.761 15.7637 241.653 15.7285 241.536 15.7109C241.418 15.6904 241.306 15.6802 241.197 15.6802C240.919 15.6802 240.651 15.7197 240.393 15.7988C240.138 15.875 239.918 15.9893 239.734 16.1416H239.681V15.2495C239.892 15.1763 240.125 15.1118 240.38 15.0562C240.638 15.0005 240.896 14.9727 241.153 14.9727C241.361 14.9727 241.572 14.9946 241.786 15.0386C242.003 15.0796 242.208 15.1514 242.401 15.2539C242.583 15.3535 242.735 15.4912 242.858 15.667C242.981 15.8398 243.043 16.0522 243.043 16.3042C243.043 16.5708 242.967 16.8052 242.814 17.0073C242.665 17.2065 242.466 17.3384 242.217 17.4028V17.4336C242.489 17.5273 242.712 17.6709 242.885 17.8643C243.061 18.0576 243.148 18.3169 243.148 18.6421ZM248.782 20.1099C248.445 20.1099 248.136 20.0586 247.855 19.9561C247.574 19.8506 247.332 19.6924 247.13 19.4814C246.928 19.2705 246.771 19.0054 246.66 18.686C246.548 18.3638 246.493 17.9858 246.493 17.5522C246.493 17.1216 246.55 16.7495 246.664 16.436C246.781 16.1226 246.937 15.8589 247.13 15.645C247.323 15.4312 247.563 15.2671 247.851 15.1528C248.141 15.0356 248.451 14.9771 248.782 14.9771C249.052 14.9771 249.311 15.0151 249.56 15.0913C249.812 15.1675 250.036 15.2554 250.232 15.355V16.2822H250.184C250.125 16.2324 250.049 16.1753 249.956 16.1108C249.865 16.0464 249.753 15.9805 249.622 15.9131C249.507 15.8545 249.373 15.8032 249.217 15.7593C249.062 15.7153 248.913 15.6934 248.769 15.6934C248.341 15.6934 247.997 15.856 247.736 16.1812C247.479 16.5034 247.35 16.9604 247.35 17.5522C247.35 18.1323 247.474 18.585 247.723 18.9102C247.975 19.2324 248.324 19.3936 248.769 19.3936C249.039 19.3936 249.295 19.3379 249.538 19.2266C249.781 19.1152 249.997 18.9717 250.184 18.7959H250.232V19.7231C250.15 19.7612 250.048 19.8081 249.925 19.8638C249.802 19.9165 249.69 19.9561 249.591 19.9824C249.45 20.0234 249.324 20.0542 249.213 20.0747C249.102 20.0981 248.958 20.1099 248.782 20.1099ZM254.847 15.0913L252.206 21.8105H251.322L252.201 19.7627L250.417 15.0913H251.309L252.649 18.7256L253.985 15.0913H254.847ZM259.285 20H258.27L257.079 18.1455L255.853 20H254.917L256.622 17.5654L254.935 15.0913H255.95L257.132 16.9282L258.345 15.0913H259.285L257.589 17.5083L259.285 20ZM263.965 17.5479C263.965 18.374 263.766 19.0127 263.368 19.4639C262.969 19.9121 262.439 20.1362 261.777 20.1362C261.094 20.1362 260.557 19.9048 260.164 19.4419C259.774 18.9761 259.58 18.3447 259.58 17.5479C259.58 16.7275 259.78 16.0903 260.182 15.6362C260.586 15.1821 261.118 14.9551 261.777 14.9551C262.439 14.9551 262.969 15.1821 263.368 15.6362C263.766 16.0874 263.965 16.7246 263.965 17.5479ZM263.113 17.5479C263.113 16.9121 262.997 16.4404 262.766 16.1328C262.534 15.8223 262.205 15.667 261.777 15.667C261.346 15.667 261.014 15.8223 260.779 16.1328C260.548 16.4404 260.432 16.9121 260.432 17.5479C260.432 18.1631 260.548 18.6304 260.779 18.9497C261.014 19.2661 261.346 19.4243 261.777 19.4243C262.202 19.4243 262.53 19.269 262.761 18.9585C262.996 18.645 263.113 18.1748 263.113 17.5479ZM268.689 20H267.872V16.3394L265.561 20H264.813V15.0913H265.631V18.6948L267.916 15.0913H268.689V20ZM268.32 12.8105C268.32 13.0625 268.29 13.2925 268.228 13.5005C268.167 13.7056 268.079 13.8784 267.964 14.019C267.833 14.1743 267.683 14.2915 267.516 14.3706C267.349 14.4468 267.135 14.4849 266.875 14.4849C266.634 14.4849 266.423 14.4453 266.242 14.3662C266.063 14.2842 265.912 14.1685 265.789 14.019C265.669 13.8726 265.578 13.6968 265.517 13.4917C265.455 13.2866 265.424 13.0596 265.424 12.8105H266.136C266.136 13.2061 266.198 13.4917 266.321 13.6675C266.444 13.8403 266.628 13.9268 266.875 13.9268C267.106 13.9268 267.286 13.8418 267.415 13.6719C267.544 13.499 267.608 13.2119 267.608 12.8105H268.32Z" fill="#D7E2F2"/>
<path d="M235.414 41H234.544V37.7964H231.534V41H230.664V34.4565H231.534V37.0229H234.544V34.4565H235.414V41ZM241.514 41H240.384L237.998 37.9546L237.616 38.3853V41H236.746V34.4565H237.616V37.4668L240.296 34.4565H241.355L238.648 37.3789L241.514 41ZM244.247 38.5347H241.769V37.7393H244.247V38.5347ZM249.261 38.8774C249.261 39.2144 249.206 39.5249 249.094 39.8091C248.983 40.0933 248.833 40.3306 248.646 40.521C248.45 40.7231 248.23 40.877 247.987 40.9824C247.744 41.085 247.476 41.1362 247.183 41.1362C246.887 41.1362 246.617 41.0864 246.374 40.9868C246.134 40.8872 245.921 40.7393 245.737 40.543C245.511 40.3057 245.334 39.9893 245.205 39.5938C245.079 39.1953 245.016 38.7061 245.016 38.126C245.016 37.5576 245.075 37.0449 245.192 36.5879C245.309 36.1279 245.489 35.728 245.732 35.3882C245.97 35.0571 246.276 34.7993 246.651 34.6147C247.026 34.4272 247.459 34.3335 247.952 34.3335C248.098 34.3335 248.234 34.3408 248.36 34.3555C248.486 34.3701 248.598 34.3936 248.694 34.4258V35.2651H248.655C248.576 35.2212 248.461 35.1816 248.312 35.1465C248.163 35.1084 248.003 35.0894 247.833 35.0894C247.288 35.0894 246.847 35.2739 246.51 35.6431C246.176 36.0093 245.979 36.5542 245.917 37.2778C246.125 37.1313 246.339 37.0186 246.559 36.9395C246.778 36.8604 247.019 36.8208 247.279 36.8208C247.534 36.8208 247.757 36.8472 247.947 36.8999C248.141 36.9497 248.341 37.0522 248.549 37.2075C248.79 37.3892 248.968 37.6191 249.085 37.8975C249.203 38.1758 249.261 38.5024 249.261 38.8774ZM248.369 38.9126C248.369 38.6431 248.334 38.4175 248.264 38.2358C248.193 38.0542 248.079 37.8989 247.921 37.77C247.807 37.6763 247.676 37.6147 247.53 37.5854C247.386 37.5562 247.238 37.5415 247.086 37.5415C246.881 37.5415 246.682 37.5723 246.488 37.6338C246.295 37.6953 246.104 37.7847 245.917 37.9019C245.911 37.9663 245.907 38.0293 245.904 38.0908C245.901 38.1494 245.899 38.2241 245.899 38.3149C245.899 38.769 245.943 39.1353 246.031 39.4136C246.122 39.6919 246.233 39.9028 246.365 40.0464C246.491 40.1841 246.62 40.2808 246.752 40.3364C246.887 40.3921 247.032 40.4199 247.187 40.4199C247.539 40.4199 247.823 40.2939 248.04 40.042C248.259 39.79 248.369 39.4136 248.369 38.9126ZM254.073 41H250.035V40.0815C250.325 39.8062 250.599 39.5425 250.856 39.2905C251.114 39.0386 251.366 38.7764 251.612 38.5039C252.11 37.9561 252.45 37.5181 252.632 37.1899C252.813 36.8589 252.904 36.5176 252.904 36.166C252.904 35.9844 252.875 35.8247 252.816 35.687C252.761 35.5493 252.683 35.4351 252.583 35.3442C252.481 35.2563 252.362 35.1904 252.228 35.1465C252.093 35.1025 251.945 35.0806 251.784 35.0806C251.628 35.0806 251.47 35.1011 251.309 35.1421C251.151 35.1802 250.999 35.2285 250.852 35.2871C250.729 35.3369 250.61 35.397 250.496 35.4673C250.382 35.5376 250.29 35.5977 250.219 35.6475H250.171V34.7158C250.353 34.625 250.604 34.5371 250.927 34.4521C251.252 34.3643 251.56 34.3203 251.85 34.3203C252.459 34.3203 252.937 34.4829 253.282 34.8081C253.628 35.1304 253.801 35.5684 253.801 36.1221C253.801 36.377 253.77 36.6128 253.708 36.8296C253.65 37.0464 253.568 37.2471 253.462 37.4316C253.354 37.6221 253.224 37.811 253.071 37.9985C252.919 38.186 252.758 38.3706 252.588 38.5522C252.312 38.8511 252.005 39.1616 251.665 39.4839C251.328 39.8062 251.059 40.061 250.856 40.2485H254.073V41Z" fill="#D7E2F2"/>
<path d="M236.447 56.6602C236.447 57.0674 236.385 57.4277 236.262 57.7412C236.139 58.0518 235.968 58.314 235.748 58.5278C235.511 58.7622 235.219 58.9438 234.874 59.0728C234.528 59.1987 234.17 59.2661 233.801 59.2749V60.0703H232.936V59.2749C232.569 59.2632 232.213 59.1973 231.868 59.0771C231.522 58.957 231.228 58.7769 230.984 58.5366C230.765 58.3228 230.593 58.0576 230.47 57.7412C230.35 57.4248 230.29 57.0645 230.29 56.6602C230.29 56.2793 230.349 55.938 230.466 55.6362C230.583 55.3315 230.747 55.0693 230.958 54.8496C231.184 54.6152 231.466 54.4307 231.806 54.2959C232.146 54.1611 232.522 54.0879 232.936 54.0762V53.3511H233.801V54.0762C234.214 54.085 234.592 54.1582 234.935 54.2959C235.278 54.4307 235.562 54.6138 235.788 54.8452C235.999 55.062 236.161 55.3213 236.275 55.623C236.39 55.9248 236.447 56.2705 236.447 56.6602ZM235.542 56.625C235.542 56.335 235.5 56.0713 235.418 55.834C235.336 55.5938 235.215 55.3901 235.054 55.2231C234.901 55.0649 234.724 54.9478 234.522 54.8716C234.32 54.7954 234.08 54.7544 233.801 54.7485V58.6157C234.065 58.6099 234.299 58.5674 234.504 58.4883C234.712 58.4062 234.884 58.2979 235.019 58.1631C235.197 57.9873 235.329 57.7734 235.414 57.5215C235.499 57.2695 235.542 56.9707 235.542 56.625ZM232.936 58.6157V54.7485C232.657 54.7515 232.417 54.7925 232.215 54.8716C232.013 54.9507 231.835 55.0679 231.683 55.2231C231.522 55.3872 231.4 55.5908 231.318 55.834C231.236 56.0771 231.195 56.3408 231.195 56.625C231.195 56.9707 231.238 57.271 231.323 57.5259C231.408 57.7778 231.54 57.9902 231.718 58.1631C231.853 58.292 232.023 58.3989 232.228 58.4839C232.436 58.5688 232.672 58.6128 232.936 58.6157ZM241.457 57.416C241.457 58.2334 241.26 58.8853 240.868 59.3716C240.478 59.855 239.984 60.0967 239.387 60.0967C239.144 60.0967 238.928 60.0688 238.741 60.0132C238.553 59.9575 238.361 59.8711 238.165 59.7539V61.8105H237.339V55.0913H238.165V55.6055C238.37 55.4209 238.597 55.2671 238.846 55.144C239.098 55.0181 239.372 54.9551 239.668 54.9551C240.23 54.9551 240.668 55.1777 240.982 55.623C241.298 56.0684 241.457 56.666 241.457 57.416ZM240.604 57.5083C240.604 56.9487 240.515 56.5151 240.336 56.2075C240.157 55.897 239.867 55.7417 239.466 55.7417C239.231 55.7417 239.004 55.7944 238.785 55.8999C238.568 56.0024 238.361 56.1357 238.165 56.2998V59.0815C238.382 59.187 238.566 59.2588 238.719 59.2969C238.874 59.335 239.051 59.354 239.25 59.354C239.678 59.354 240.011 59.1973 240.248 58.8838C240.485 58.5703 240.604 58.1118 240.604 57.5083ZM245.056 58.7915V57.4292C244.859 57.4468 244.61 57.4717 244.309 57.5039C244.01 57.5332 243.768 57.5757 243.583 57.6313C243.364 57.6987 243.182 57.8027 243.039 57.9434C242.895 58.0811 242.823 58.2744 242.823 58.5234C242.823 58.8047 242.902 59.0171 243.061 59.1606C243.219 59.3042 243.45 59.376 243.755 59.376C244.016 59.376 244.251 59.3203 244.462 59.209C244.673 59.0947 244.871 58.9556 245.056 58.7915ZM245.056 59.4771C244.988 59.5269 244.897 59.5972 244.783 59.688C244.672 59.7759 244.563 59.8462 244.458 59.8989C244.312 59.9751 244.169 60.0337 244.032 60.0747C243.897 60.1157 243.707 60.1362 243.46 60.1362C243.258 60.1362 243.066 60.0981 242.885 60.022C242.703 59.9458 242.543 59.8389 242.406 59.7012C242.274 59.5664 242.168 59.4009 242.089 59.2046C242.01 59.0054 241.971 58.7959 241.971 58.5762C241.971 58.2363 242.042 57.9478 242.186 57.7104C242.33 57.4702 242.557 57.2798 242.867 57.1392C243.143 57.0132 243.468 56.9268 243.843 56.8799C244.218 56.8301 244.622 56.7935 245.056 56.77V56.6118C245.056 56.4185 245.026 56.2632 244.968 56.146C244.909 56.0259 244.827 55.9336 244.722 55.8691C244.616 55.8018 244.487 55.7578 244.335 55.7373C244.183 55.7139 244.026 55.7021 243.865 55.7021C243.674 55.7021 243.45 55.7314 243.192 55.79C242.935 55.8457 242.677 55.9277 242.419 56.0361H242.371V55.1968C242.523 55.1528 242.741 55.1045 243.025 55.0518C243.31 54.999 243.591 54.9727 243.869 54.9727C244.206 54.9727 244.49 54.999 244.722 55.0518C244.953 55.1045 245.161 55.1997 245.346 55.3374C245.524 55.4722 245.658 55.6465 245.746 55.8604C245.833 56.0742 245.877 56.335 245.877 56.6426V60H245.056V59.4771ZM250.993 60H249.964L248.281 57.7368H247.868V60H247.042V55.0913H247.868V57.2271C248.082 57.2241 248.264 57.1802 248.413 57.0952C248.565 57.0073 248.694 56.8389 248.8 56.5898C248.832 56.5166 248.867 56.4316 248.905 56.335C248.946 56.2383 248.979 56.1533 249.002 56.0801C249.131 55.7197 249.31 55.4648 249.538 55.3154C249.767 55.166 250.064 55.0913 250.43 55.0913H250.654V55.8032H250.465C250.234 55.8032 250.06 55.8516 249.942 55.9482C249.828 56.042 249.731 56.2148 249.652 56.4668C249.57 56.7217 249.474 56.9209 249.362 57.0645C249.251 57.2051 249.128 57.3135 248.993 57.3896L250.993 60ZM255.857 61.1777H255.088V60H251.524V55.0913H252.351V59.2881H254.543V55.0913H255.37V59.2881H255.857V61.1777ZM260.551 60H259.733V56.3394L257.422 60H256.675V55.0913H257.492V58.6948L259.777 55.0913H260.551V60ZM265.301 60H264.475V58.0532H263.658L262.203 60H261.241L262.818 57.9785C262.411 57.8584 262.112 57.6797 261.922 57.4424C261.734 57.2051 261.641 56.8872 261.641 56.4888C261.641 56.2456 261.693 56.0332 261.799 55.8516C261.907 55.667 262.052 55.5117 262.234 55.3857C262.38 55.2861 262.565 55.2129 262.788 55.166C263.01 55.1162 263.259 55.0913 263.535 55.0913H265.301V60ZM264.475 57.4028V55.7505H263.579C263.388 55.7505 263.237 55.7607 263.126 55.7812C263.018 55.8018 262.912 55.8413 262.81 55.8999C262.704 55.9644 262.624 56.0522 262.568 56.1636C262.515 56.272 262.489 56.3892 262.489 56.5151C262.489 56.6763 262.506 56.8081 262.542 56.9106C262.58 57.0103 262.647 57.1025 262.744 57.1875C262.846 57.2754 262.971 57.334 263.117 57.3633C263.267 57.3896 263.429 57.4028 263.605 57.4028H264.475ZM273.334 57.8774C273.334 58.2144 273.279 58.5249 273.167 58.8091C273.056 59.0933 272.907 59.3306 272.719 59.521C272.523 59.7231 272.303 59.877 272.06 59.9824C271.817 60.085 271.549 60.1362 271.256 60.1362C270.96 60.1362 270.69 60.0864 270.447 59.9868C270.207 59.8872 269.995 59.7393 269.81 59.543C269.584 59.3057 269.407 58.9893 269.278 58.5938C269.152 58.1953 269.089 57.7061 269.089 57.126C269.089 56.5576 269.148 56.0449 269.265 55.5879C269.382 55.1279 269.562 54.728 269.806 54.3882C270.043 54.0571 270.349 53.7993 270.724 53.6147C271.099 53.4272 271.533 53.3335 272.025 53.3335C272.171 53.3335 272.308 53.3408 272.434 53.3555C272.56 53.3701 272.671 53.3936 272.768 53.4258V54.2651H272.728C272.649 54.2212 272.535 54.1816 272.385 54.1465C272.236 54.1084 272.076 54.0894 271.906 54.0894C271.361 54.0894 270.92 54.2739 270.583 54.6431C270.25 55.0093 270.052 55.5542 269.99 56.2778C270.198 56.1313 270.412 56.0186 270.632 55.9395C270.852 55.8604 271.092 55.8208 271.353 55.8208C271.607 55.8208 271.83 55.8472 272.021 55.8999C272.214 55.9497 272.415 56.0522 272.623 56.2075C272.863 56.3892 273.042 56.6191 273.159 56.8975C273.276 57.1758 273.334 57.5024 273.334 57.8774ZM272.442 57.9126C272.442 57.6431 272.407 57.4175 272.337 57.2358C272.267 57.0542 272.152 56.8989 271.994 56.77C271.88 56.6763 271.75 56.6147 271.603 56.5854C271.459 56.5562 271.312 56.5415 271.159 56.5415C270.954 56.5415 270.755 56.5723 270.562 56.6338C270.368 56.6953 270.178 56.7847 269.99 56.9019C269.984 56.9663 269.98 57.0293 269.977 57.0908C269.974 57.1494 269.973 57.2241 269.973 57.3149C269.973 57.769 270.017 58.1353 270.104 58.4136C270.195 58.6919 270.307 58.9028 270.438 59.0464C270.564 59.1841 270.693 59.2808 270.825 59.3364C270.96 59.3921 271.105 59.4199 271.26 59.4199C271.612 59.4199 271.896 59.2939 272.113 59.042C272.333 58.79 272.442 58.4136 272.442 57.9126ZM278.146 60H274.108V59.0815C274.398 58.8062 274.672 58.5425 274.93 58.2905C275.188 58.0386 275.439 57.7764 275.686 57.5039C276.184 56.9561 276.523 56.5181 276.705 56.1899C276.887 55.8589 276.978 55.5176 276.978 55.166C276.978 54.9844 276.948 54.8247 276.89 54.687C276.834 54.5493 276.756 54.4351 276.657 54.3442C276.554 54.2563 276.436 54.1904 276.301 54.1465C276.166 54.1025 276.018 54.0806 275.857 54.0806C275.702 54.0806 275.543 54.1011 275.382 54.1421C275.224 54.1802 275.072 54.2285 274.925 54.2871C274.802 54.3369 274.684 54.397 274.569 54.4673C274.455 54.5376 274.363 54.5977 274.292 54.6475H274.244V53.7158C274.426 53.625 274.678 53.5371 275 53.4521C275.325 53.3643 275.633 53.3203 275.923 53.3203C276.532 53.3203 277.01 53.4829 277.355 53.8081C277.701 54.1304 277.874 54.5684 277.874 55.1221C277.874 55.377 277.843 55.6128 277.782 55.8296C277.723 56.0464 277.641 56.2471 277.536 56.4316C277.427 56.6221 277.297 56.811 277.145 56.9985C276.992 57.186 276.831 57.3706 276.661 57.5522C276.386 57.8511 276.078 58.1616 275.738 58.4839C275.401 58.8062 275.132 59.061 274.93 59.2485H278.146V60ZM281.416 57.5347H278.938V56.7393H281.416V57.5347ZM285.375 54.9814C285.375 54.6885 285.277 54.4438 285.081 54.2476C284.885 54.0513 284.612 53.9531 284.264 53.9531C283.944 53.9531 283.682 54.041 283.477 54.2168C283.275 54.3926 283.174 54.6299 283.174 54.9287C283.174 55.1455 283.225 55.3286 283.328 55.478C283.433 55.6274 283.59 55.7622 283.798 55.8823C283.889 55.9321 284.026 56.001 284.211 56.0889C284.398 56.1768 284.568 56.2456 284.721 56.2954C284.976 56.0991 285.148 55.8984 285.239 55.6934C285.33 55.4854 285.375 55.248 285.375 54.9814ZM285.499 58.2598C285.499 57.9902 285.446 57.7764 285.34 57.6182C285.235 57.46 285.031 57.2988 284.729 57.1348C284.63 57.0791 284.497 57.019 284.33 56.9546C284.166 56.8901 283.979 56.814 283.771 56.7261C283.528 56.8872 283.342 57.0864 283.213 57.3237C283.084 57.5581 283.02 57.8262 283.02 58.1279C283.02 58.5234 283.139 58.8501 283.376 59.1079C283.616 59.3657 283.917 59.4946 284.277 59.4946C284.646 59.4946 284.942 59.3848 285.165 59.165C285.387 58.9424 285.499 58.6406 285.499 58.2598ZM284.268 60.1494C283.943 60.1494 283.647 60.1011 283.38 60.0044C283.114 59.9077 282.887 59.7686 282.699 59.5869C282.515 59.4111 282.374 59.2031 282.277 58.9629C282.184 58.7197 282.137 58.4634 282.137 58.1938C282.137 57.8394 282.23 57.5142 282.418 57.2183C282.608 56.9194 282.884 56.6821 283.244 56.5063V56.48C282.922 56.2925 282.683 56.0874 282.528 55.8647C282.373 55.6421 282.295 55.3638 282.295 55.0298C282.295 54.5376 282.481 54.1274 282.853 53.7993C283.225 53.4712 283.697 53.3071 284.268 53.3071C284.863 53.3071 285.339 53.4639 285.696 53.7773C286.057 54.0879 286.237 54.4863 286.237 54.9727C286.237 55.2656 286.15 55.5557 285.978 55.8428C285.808 56.1299 285.562 56.354 285.239 56.5151V56.5415C285.62 56.7202 285.909 56.937 286.105 57.1919C286.301 57.4468 286.399 57.7749 286.399 58.1763C286.399 58.7358 286.196 59.2046 285.789 59.5825C285.384 59.9604 284.877 60.1494 284.268 60.1494ZM291.167 57.917C291.167 58.2334 291.116 58.5264 291.014 58.7959C290.914 59.0654 290.773 59.2983 290.592 59.4946C290.407 59.6938 290.177 59.8506 289.902 59.9648C289.629 60.0791 289.323 60.1362 288.983 60.1362C288.67 60.1362 288.361 60.1011 288.056 60.0308C287.754 59.9634 287.492 59.874 287.27 59.7627V58.8354H287.331C287.398 58.8853 287.495 58.9424 287.621 59.0068C287.747 59.0684 287.886 59.127 288.039 59.1826C288.211 59.2441 288.37 59.2925 288.513 59.3276C288.657 59.3599 288.818 59.376 288.997 59.376C289.172 59.376 289.344 59.3452 289.511 59.2837C289.678 59.2192 289.821 59.1167 289.941 58.9761C290.05 58.8472 290.132 58.6963 290.188 58.5234C290.246 58.3506 290.275 58.147 290.275 57.9126C290.275 57.6812 290.243 57.4907 290.179 57.3413C290.117 57.1919 290.026 57.0688 289.906 56.9722C289.78 56.8608 289.625 56.7832 289.44 56.7393C289.259 56.6924 289.055 56.6689 288.83 56.6689C288.592 56.6689 288.354 56.688 288.113 56.7261C287.873 56.7612 287.681 56.7949 287.538 56.8271V53.4565H291.128V54.2256H288.386V55.9658C288.491 55.9541 288.595 55.9453 288.698 55.9395C288.8 55.9336 288.894 55.9307 288.979 55.9307C289.313 55.9307 289.596 55.9585 289.827 56.0142C290.059 56.0698 290.281 56.1782 290.495 56.3394C290.712 56.5034 290.877 56.7085 290.992 56.9546C291.109 57.2007 291.167 57.5215 291.167 57.917ZM296.788 60H295.971V56.1416L294.793 58.6465H294.178L293.009 56.1416V60H292.235V55.0913H293.233L294.525 57.8159L295.773 55.0913H296.788V60Z" fill="#D7E2F2"/>
<path d="M236.447 76.6602C236.447 77.0674 236.385 77.4277 236.262 77.7412C236.139 78.0518 235.968 78.314 235.748 78.5278C235.511 78.7622 235.219 78.9438 234.874 79.0728C234.528 79.1987 234.17 79.2661 233.801 79.2749V80.0703H232.936V79.2749C232.569 79.2632 232.213 79.1973 231.868 79.0771C231.522 78.957 231.228 78.7769 230.984 78.5366C230.765 78.3228 230.593 78.0576 230.47 77.7412C230.35 77.4248 230.29 77.0645 230.29 76.6602C230.29 76.2793 230.349 75.938 230.466 75.6362C230.583 75.3315 230.747 75.0693 230.958 74.8496C231.184 74.6152 231.466 74.4307 231.806 74.2959C232.146 74.1611 232.522 74.0879 232.936 74.0762V73.3511H233.801V74.0762C234.214 74.085 234.592 74.1582 234.935 74.2959C235.278 74.4307 235.562 74.6138 235.788 74.8452C235.999 75.062 236.161 75.3213 236.275 75.623C236.39 75.9248 236.447 76.2705 236.447 76.6602ZM235.542 76.625C235.542 76.335 235.5 76.0713 235.418 75.834C235.336 75.5938 235.215 75.3901 235.054 75.2231C234.901 75.0649 234.724 74.9478 234.522 74.8716C234.32 74.7954 234.08 74.7544 233.801 74.7485V78.6157C234.065 78.6099 234.299 78.5674 234.504 78.4883C234.712 78.4062 234.884 78.2979 235.019 78.1631C235.197 77.9873 235.329 77.7734 235.414 77.5215C235.499 77.2695 235.542 76.9707 235.542 76.625ZM232.936 78.6157V74.7485C232.657 74.7515 232.417 74.7925 232.215 74.8716C232.013 74.9507 231.835 75.0679 231.683 75.2231C231.522 75.3872 231.4 75.5908 231.318 75.834C231.236 76.0771 231.195 76.3408 231.195 76.625C231.195 76.9707 231.238 77.271 231.323 77.5259C231.408 77.7778 231.54 77.9902 231.718 78.1631C231.853 78.292 232.023 78.3989 232.228 78.4839C232.436 78.5688 232.672 78.6128 232.936 78.6157ZM241.457 77.416C241.457 78.2334 241.26 78.8853 240.868 79.3716C240.478 79.855 239.984 80.0967 239.387 80.0967C239.144 80.0967 238.928 80.0688 238.741 80.0132C238.553 79.9575 238.361 79.8711 238.165 79.7539V81.8105H237.339V75.0913H238.165V75.6055C238.37 75.4209 238.597 75.2671 238.846 75.144C239.098 75.0181 239.372 74.9551 239.668 74.9551C240.23 74.9551 240.668 75.1777 240.982 75.623C241.298 76.0684 241.457 76.666 241.457 77.416ZM240.604 77.5083C240.604 76.9487 240.515 76.5151 240.336 76.2075C240.157 75.897 239.867 75.7417 239.466 75.7417C239.231 75.7417 239.004 75.7944 238.785 75.8999C238.568 76.0024 238.361 76.1357 238.165 76.2998V79.0815C238.382 79.187 238.566 79.2588 238.719 79.2969C238.874 79.335 239.051 79.354 239.25 79.354C239.678 79.354 240.011 79.1973 240.248 78.8838C240.485 78.5703 240.604 78.1118 240.604 77.5083ZM245.056 78.7915V77.4292C244.859 77.4468 244.61 77.4717 244.309 77.5039C244.01 77.5332 243.768 77.5757 243.583 77.6313C243.364 77.6987 243.182 77.8027 243.039 77.9434C242.895 78.0811 242.823 78.2744 242.823 78.5234C242.823 78.8047 242.902 79.0171 243.061 79.1606C243.219 79.3042 243.45 79.376 243.755 79.376C244.016 79.376 244.251 79.3203 244.462 79.209C244.673 79.0947 244.871 78.9556 245.056 78.7915ZM245.056 79.4771C244.988 79.5269 244.897 79.5972 244.783 79.688C244.672 79.7759 244.563 79.8462 244.458 79.8989C244.312 79.9751 244.169 80.0337 244.032 80.0747C243.897 80.1157 243.707 80.1362 243.46 80.1362C243.258 80.1362 243.066 80.0981 242.885 80.022C242.703 79.9458 242.543 79.8389 242.406 79.7012C242.274 79.5664 242.168 79.4009 242.089 79.2046C242.01 79.0054 241.971 78.7959 241.971 78.5762C241.971 78.2363 242.042 77.9478 242.186 77.7104C242.33 77.4702 242.557 77.2798 242.867 77.1392C243.143 77.0132 243.468 76.9268 243.843 76.8799C244.218 76.8301 244.622 76.7935 245.056 76.77V76.6118C245.056 76.4185 245.026 76.2632 244.968 76.146C244.909 76.0259 244.827 75.9336 244.722 75.8691C244.616 75.8018 244.487 75.7578 244.335 75.7373C244.183 75.7139 244.026 75.7021 243.865 75.7021C243.674 75.7021 243.45 75.7314 243.192 75.79C242.935 75.8457 242.677 75.9277 242.419 76.0361H242.371V75.1968C242.523 75.1528 242.741 75.1045 243.025 75.0518C243.31 74.999 243.591 74.9727 243.869 74.9727C244.206 74.9727 244.49 74.999 244.722 75.0518C244.953 75.1045 245.161 75.1997 245.346 75.3374C245.524 75.4722 245.658 75.6465 245.746 75.8604C245.833 76.0742 245.877 76.335 245.877 76.6426V80H245.056V79.4771ZM250.993 80H249.964L248.281 77.7368H247.868V80H247.042V75.0913H247.868V77.2271C248.082 77.2241 248.264 77.1802 248.413 77.0952C248.565 77.0073 248.694 76.8389 248.8 76.5898C248.832 76.5166 248.867 76.4316 248.905 76.335C248.946 76.2383 248.979 76.1533 249.002 76.0801C249.131 75.7197 249.31 75.4648 249.538 75.3154C249.767 75.166 250.064 75.0913 250.43 75.0913H250.654V75.8032H250.465C250.234 75.8032 250.06 75.8516 249.942 75.9482C249.828 76.042 249.731 76.2148 249.652 76.4668C249.57 76.7217 249.474 76.9209 249.362 77.0645C249.251 77.2051 249.128 77.3135 248.993 77.3896L250.993 80ZM255.857 81.1777H255.088V80H251.524V75.0913H252.351V79.2881H254.543V75.0913H255.37V79.2881H255.857V81.1777ZM260.551 80H259.733V76.3394L257.422 80H256.675V75.0913H257.492V78.6948L259.777 75.0913H260.551V80ZM265.301 80H264.475V78.0532H263.658L262.203 80H261.241L262.818 77.9785C262.411 77.8584 262.112 77.6797 261.922 77.4424C261.734 77.2051 261.641 76.8872 261.641 76.4888C261.641 76.2456 261.693 76.0332 261.799 75.8516C261.907 75.667 262.052 75.5117 262.234 75.3857C262.38 75.2861 262.565 75.2129 262.788 75.166C263.01 75.1162 263.259 75.0913 263.535 75.0913H265.301V80ZM264.475 77.4028V75.7505H263.579C263.388 75.7505 263.237 75.7607 263.126 75.7812C263.018 75.8018 262.912 75.8413 262.81 75.8999C262.704 75.9644 262.624 76.0522 262.568 76.1636C262.515 76.272 262.489 76.3892 262.489 76.5151C262.489 76.6763 262.506 76.8081 262.542 76.9106C262.58 77.0103 262.647 77.1025 262.744 77.1875C262.846 77.2754 262.971 77.334 263.117 77.3633C263.267 77.3896 263.429 77.4028 263.605 77.4028H264.475ZM272.28 74.9814C272.28 74.6885 272.182 74.4438 271.985 74.2476C271.789 74.0513 271.517 73.9531 271.168 73.9531C270.849 73.9531 270.586 74.041 270.381 74.2168C270.179 74.3926 270.078 74.6299 270.078 74.9287C270.078 75.1455 270.129 75.3286 270.232 75.478C270.337 75.6274 270.494 75.7622 270.702 75.8823C270.793 75.9321 270.931 76.001 271.115 76.0889C271.303 76.1768 271.473 76.2456 271.625 76.2954C271.88 76.0991 272.053 75.8984 272.144 75.6934C272.234 75.4854 272.28 75.248 272.28 74.9814ZM272.403 78.2598C272.403 77.9902 272.35 77.7764 272.245 77.6182C272.139 77.46 271.936 77.2988 271.634 77.1348C271.534 77.0791 271.401 77.019 271.234 76.9546C271.07 76.8901 270.884 76.814 270.676 76.7261C270.433 76.8872 270.247 77.0864 270.118 77.3237C269.989 77.5581 269.924 77.8262 269.924 78.1279C269.924 78.5234 270.043 78.8501 270.28 79.1079C270.521 79.3657 270.821 79.4946 271.181 79.4946C271.55 79.4946 271.846 79.3848 272.069 79.165C272.292 78.9424 272.403 78.6406 272.403 78.2598ZM271.172 80.1494C270.847 80.1494 270.551 80.1011 270.285 80.0044C270.018 79.9077 269.791 79.7686 269.604 79.5869C269.419 79.4111 269.278 79.2031 269.182 78.9629C269.088 78.7197 269.041 78.4634 269.041 78.1938C269.041 77.8394 269.135 77.5142 269.322 77.2183C269.513 76.9194 269.788 76.6821 270.148 76.5063V76.48C269.826 76.2925 269.587 76.0874 269.432 75.8647C269.277 75.6421 269.199 75.3638 269.199 75.0298C269.199 74.5376 269.385 74.1274 269.757 73.7993C270.129 73.4712 270.601 73.3071 271.172 73.3071C271.767 73.3071 272.243 73.4639 272.601 73.7773C272.961 74.0879 273.141 74.4863 273.141 74.9727C273.141 75.2656 273.055 75.5557 272.882 75.8428C272.712 76.1299 272.466 76.354 272.144 76.5151V76.5415C272.524 76.7202 272.813 76.937 273.009 77.1919C273.206 77.4468 273.304 77.7749 273.304 78.1763C273.304 78.7358 273.1 79.2046 272.693 79.5825C272.289 79.9604 271.782 80.1494 271.172 80.1494ZM278.072 77.917C278.072 78.2334 278.021 78.5264 277.918 78.7959C277.818 79.0654 277.678 79.2983 277.496 79.4946C277.312 79.6938 277.082 79.8506 276.806 79.9648C276.534 80.0791 276.228 80.1362 275.888 80.1362C275.574 80.1362 275.265 80.1011 274.96 80.0308C274.659 79.9634 274.396 79.874 274.174 79.7627V78.8354H274.235C274.303 78.8853 274.399 78.9424 274.525 79.0068C274.651 79.0684 274.791 79.127 274.943 79.1826C275.116 79.2441 275.274 79.2925 275.417 79.3276C275.561 79.3599 275.722 79.376 275.901 79.376C276.077 79.376 276.248 79.3452 276.415 79.2837C276.582 79.2192 276.726 79.1167 276.846 78.9761C276.954 78.8472 277.036 78.6963 277.092 78.5234C277.15 78.3506 277.18 78.147 277.18 77.9126C277.18 77.6812 277.147 77.4907 277.083 77.3413C277.021 77.1919 276.931 77.0688 276.811 76.9722C276.685 76.8608 276.529 76.7832 276.345 76.7393C276.163 76.6924 275.959 76.6689 275.734 76.6689C275.497 76.6689 275.258 76.688 275.018 76.7261C274.777 76.7612 274.585 76.7949 274.442 76.8271V73.4565H278.032V74.2256H275.29V75.9658C275.396 75.9541 275.5 75.9453 275.602 75.9395C275.705 75.9336 275.798 75.9307 275.883 75.9307C276.217 75.9307 276.5 75.9585 276.731 76.0142C276.963 76.0698 277.186 76.1782 277.399 76.3394C277.616 76.5034 277.782 76.7085 277.896 76.9546C278.013 77.2007 278.072 77.5215 278.072 77.917ZM281.416 77.5347H278.938V76.7393H281.416V77.5347ZM285.995 80H282.805V79.332H283.991V74.9463H282.805V74.3486C283.253 74.3486 283.583 74.2856 283.793 74.1597C284.007 74.0308 284.127 73.7891 284.154 73.4346H284.835V79.332H285.995V80ZM291.414 77.75H290.636V80H289.792V77.75H286.9V76.8271L289.827 73.4565H290.636V77.0469H291.414V77.75ZM289.792 77.0469V74.4893L287.586 77.0469H289.792ZM296.186 76.7261C296.186 77.9009 296.015 78.7637 295.672 79.3145C295.332 79.8623 294.806 80.1362 294.094 80.1362C293.374 80.1362 292.845 79.8564 292.508 79.2969C292.171 78.7373 292.002 77.8833 292.002 76.7349C292.002 75.5542 292.172 74.6914 292.512 74.1465C292.855 73.5986 293.382 73.3247 294.094 73.3247C294.815 73.3247 295.344 73.6074 295.681 74.1729C296.018 74.7383 296.186 75.5894 296.186 76.7261ZM295.061 78.7212C295.146 78.5044 295.206 78.2305 295.241 77.8994C295.276 77.5684 295.294 77.1772 295.294 76.7261C295.294 76.2778 295.276 75.8882 295.241 75.5571C295.206 75.2261 295.145 74.9507 295.057 74.731C294.969 74.5083 294.847 74.3398 294.692 74.2256C294.54 74.1084 294.34 74.0498 294.094 74.0498C293.851 74.0498 293.65 74.1084 293.492 74.2256C293.337 74.3398 293.214 74.5112 293.123 74.7397C293.035 74.9624 292.975 75.2437 292.943 75.5835C292.911 75.9233 292.895 76.3071 292.895 76.7349C292.895 77.1919 292.908 77.5742 292.934 77.8818C292.963 78.1895 293.025 78.4648 293.119 78.708C293.204 78.9336 293.324 79.1079 293.479 79.231C293.637 79.3511 293.842 79.4111 294.094 79.4111C294.337 79.4111 294.537 79.354 294.692 79.2397C294.85 79.1226 294.973 78.9497 295.061 78.7212ZM300.343 75.0122C300.343 75.481 300.182 75.8765 299.86 76.1987C299.538 76.521 299.141 76.6821 298.669 76.6821C298.203 76.6821 297.808 76.5225 297.482 76.2031C297.157 75.8838 296.995 75.4868 296.995 75.0122C296.995 74.5435 297.156 74.1479 297.478 73.8257C297.8 73.5034 298.197 73.3423 298.669 73.3423C299.141 73.3423 299.538 73.5034 299.86 73.8257C300.182 74.1479 300.343 74.5435 300.343 75.0122ZM299.653 75.0122C299.653 74.731 299.56 74.4937 299.372 74.3003C299.185 74.1069 298.95 74.0103 298.669 74.0103C298.388 74.0103 298.153 74.1069 297.966 74.3003C297.778 74.4937 297.685 74.731 297.685 75.0122C297.685 75.2993 297.78 75.5381 297.97 75.7285C298.164 75.9189 298.396 76.0142 298.669 76.0142C298.95 76.0142 299.185 75.9175 299.372 75.7241C299.56 75.5278 299.653 75.2905 299.653 75.0122ZM304.008 80.1187C303.581 80.1187 303.187 80.0469 302.826 79.9033C302.469 79.7598 302.16 79.5459 301.899 79.2617C301.638 78.9775 301.436 78.623 301.292 78.1982C301.149 77.7734 301.077 77.2856 301.077 76.7349C301.077 76.187 301.146 75.7095 301.284 75.3022C301.424 74.895 301.628 74.5405 301.895 74.2388C302.155 73.9458 302.464 73.7231 302.822 73.5708C303.179 73.4155 303.579 73.3379 304.021 73.3379C304.241 73.3379 304.446 73.354 304.637 73.3862C304.83 73.4185 305.009 73.4595 305.173 73.5093C305.313 73.5532 305.457 73.6089 305.604 73.6763C305.753 73.7407 305.899 73.8125 306.043 73.8916V74.9419H305.973C305.896 74.8716 305.798 74.7866 305.678 74.687C305.558 74.5874 305.412 74.4893 305.239 74.3926C305.072 74.3018 304.89 74.2271 304.694 74.1685C304.498 74.1099 304.271 74.0806 304.013 74.0806C303.734 74.0806 303.471 74.1377 303.222 74.252C302.973 74.3662 302.754 74.5347 302.567 74.7573C302.382 74.98 302.239 75.2598 302.136 75.5967C302.034 75.9336 301.982 76.313 301.982 76.7349C301.982 77.1831 302.037 77.5698 302.145 77.895C302.253 78.2173 302.401 78.4897 302.589 78.7124C302.771 78.9292 302.984 79.0933 303.23 79.2046C303.477 79.313 303.737 79.3672 304.013 79.3672C304.265 79.3672 304.498 79.3364 304.711 79.2749C304.925 79.2134 305.116 79.1357 305.283 79.042C305.444 78.9512 305.583 78.8589 305.7 78.7651C305.817 78.6685 305.91 78.5864 305.977 78.519H306.043V79.5562C305.899 79.6235 305.763 79.688 305.634 79.7495C305.508 79.811 305.354 79.8711 305.173 79.9297C304.982 79.9912 304.805 80.0381 304.641 80.0703C304.48 80.1025 304.269 80.1187 304.008 80.1187Z" fill="#D7E2F2"/>
<path d="M232.193 101V95.23H229.996V94.4565H235.26V95.23H233.063V101H232.193ZM238.477 101.119C238.049 101.119 237.655 101.047 237.295 100.903C236.938 100.76 236.628 100.546 236.368 100.262C236.107 99.9775 235.905 99.623 235.761 99.1982C235.618 98.7734 235.546 98.2856 235.546 97.7349C235.546 97.187 235.615 96.7095 235.752 96.3022C235.893 95.895 236.097 95.5405 236.363 95.2388C236.624 94.9458 236.933 94.7231 237.291 94.5708C237.648 94.4155 238.048 94.3379 238.49 94.3379C238.71 94.3379 238.915 94.354 239.105 94.3862C239.299 94.4185 239.478 94.4595 239.642 94.5093C239.782 94.5532 239.926 94.6089 240.072 94.6763C240.222 94.7407 240.368 94.8125 240.512 94.8916V95.9419H240.441C240.365 95.8716 240.267 95.7866 240.147 95.687C240.027 95.5874 239.88 95.4893 239.708 95.3926C239.541 95.3018 239.359 95.2271 239.163 95.1685C238.966 95.1099 238.739 95.0806 238.481 95.0806C238.203 95.0806 237.939 95.1377 237.69 95.252C237.441 95.3662 237.223 95.5347 237.036 95.7573C236.851 95.98 236.708 96.2598 236.605 96.5967C236.502 96.9336 236.451 97.313 236.451 97.7349C236.451 98.1831 236.505 98.5698 236.614 98.895C236.722 99.2173 236.87 99.4897 237.058 99.7124C237.239 99.9292 237.453 100.093 237.699 100.205C237.945 100.313 238.206 100.367 238.481 100.367C238.733 100.367 238.966 100.336 239.18 100.275C239.394 100.213 239.584 100.136 239.751 100.042C239.913 99.9512 240.052 99.8589 240.169 99.7651C240.286 99.6685 240.378 99.5864 240.446 99.519H240.512V100.556C240.368 100.624 240.232 100.688 240.103 100.75C239.977 100.811 239.823 100.871 239.642 100.93C239.451 100.991 239.274 101.038 239.11 101.07C238.949 101.103 238.738 101.119 238.477 101.119ZM243.535 98.5347H241.057V97.7393H243.535V98.5347ZM248.114 101H244.924V100.332H246.11V95.9463H244.924V95.3486C245.372 95.3486 245.702 95.2856 245.913 95.1597C246.126 95.0308 246.247 94.7891 246.273 94.4346H246.954V100.332H248.114V101Z" fill="#D7E2F2"/>
<path d="M319 28L217 28" stroke="#3C4053" stroke-width="0.5"/>
<path d="M319 8L217 8" stroke="#3C4053" stroke-width="0.5"/>
<path d="M319 48L217 48" stroke="#3C4053" stroke-width="0.5"/>
<path d="M319 68L217 68" stroke="#3C4053" stroke-width="0.5"/>
<path d="M319 88L217 88" stroke="#3C4053" stroke-width="0.5"/>
<path d="M319 110L217 110" stroke="#3C4053" stroke-width="0.5"/>
<defs>
<linearGradient id="paint0_linear" x1="71.4951" y1="78" x2="53.6463" y2="45.3703" gradientUnits="userSpaceOnUse">
<stop stop-color="#D7E2F2"/>
<stop offset="0.0001" stop-color="#D7E2F2" stop-opacity="0.35"/>
<stop offset="0.188025" stop-color="#D7E2F2" stop-opacity="0.239205"/>
<stop offset="0.59375" stop-color="#D7E2F2" stop-opacity="0"/>
</linearGradient>
<linearGradient id="paint1_linear" x1="71.4951" y1="78" x2="53.6463" y2="45.3703" gradientUnits="userSpaceOnUse">
<stop stop-color="#D7E2F2"/>
<stop offset="0.0001" stop-color="#D7E2F2" stop-opacity="0.35"/>
<stop offset="0.188025" stop-color="#D7E2F2" stop-opacity="0.239205"/>
<stop offset="0.59375" stop-color="#D7E2F2" stop-opacity="0"/>
</linearGradient>
<linearGradient id="paint2_linear" x1="181.495" y1="78" x2="163.646" y2="45.3703" gradientUnits="userSpaceOnUse">
<stop stop-color="#D7E2F2"/>
<stop offset="0.0001" stop-color="#D7E2F2" stop-opacity="0.35"/>
<stop offset="0.188025" stop-color="#D7E2F2" stop-opacity="0.239205"/>
<stop offset="0.59375" stop-color="#D7E2F2" stop-opacity="0"/>
</linearGradient>
<linearGradient id="paint3_linear" x1="181.495" y1="78" x2="163.646" y2="45.3703" gradientUnits="userSpaceOnUse">
<stop stop-color="#D7E2F2"/>
<stop offset="0.0001" stop-color="#D7E2F2" stop-opacity="0.35"/>
<stop offset="0.188025" stop-color="#D7E2F2" stop-opacity="0.239205"/>
<stop offset="0.59375" stop-color="#D7E2F2" stop-opacity="0"/>
</linearGradient>
</defs>
</svg>
