<svg id="a8167ce4-8573-46fc-a95e-e97ee7a80e87" data-name="1" xmlns="http://www.w3.org/2000/svg" xmlns:xlink="http://www.w3.org/1999/xlink" viewBox="0 0 324 116.75"><defs><style>.a379dd05-cbab-4f88-85eb-e24d117bc257,.a53766a2-6cb6-4db8-859f-5ee5250daadb,.a82187a1-0106-463f-8f8b-2ca0113134a0,.a87a5307-c1b4-4e49-a877-51afddd82582,.ab75b133-ef6c-40e5-a655-11a3580e6b56,.afa0fd27-6819-4574-b045-050ad081eb9a,.b40914c7-59f1-4421-9448-b73c291adcdc,.b4978124-786f-4013-859a-1c9e618fe0e1,.b84b3153-bbc1-4955-bb44-5d54bf9145c9,.b92200e8-6980-4912-9933-543cbaa43e03,.bf90bd43-ba94-45d3-9403-0095d9b82977,.e94b247d-df35-481d-8f9c-1cb66dc6f2c1,.eae4d4ca-a99d-43f5-8df7-e97668c100c7{fill:none;}.bf29dc5d-bd17-454d-8f8e-cff864ccb1f8,.bf90bd43-ba94-45d3-9403-0095d9b82977,.e94b247d-df35-481d-8f9c-1cb66dc6f2c1,.eae4d4ca-a99d-43f5-8df7-e97668c100c7{stroke:#a2e2ff;}.a379dd05-cbab-4f88-85eb-e24d117bc257,.afa0fd27-6819-4574-b045-050ad081eb9a,.eae4d4ca-a99d-43f5-8df7-e97668c100c7{stroke-miterlimit:2.61;}.eae4d4ca-a99d-43f5-8df7-e97668c100c7{stroke-width:2.85px;}.a53766a2-6cb6-4db8-859f-5ee5250daadb,.a87a5307-c1b4-4e49-a877-51afddd82582,.ab75b133-ef6c-40e5-a655-11a3580e6b56,.afa0fd27-6819-4574-b045-050ad081eb9a,.b92200e8-6980-4912-9933-543cbaa43e03,.eb1c4e0d-cbb7-481b-b68d-01baf05c9155,.ec7dff4f-f8f9-4671-845b-d083f2ba7994{stroke:#f4a321;}.a379dd05-cbab-4f88-85eb-e24d117bc257,.afa0fd27-6819-4574-b045-050ad081eb9a{stroke-width:2.85px;}.a379dd05-cbab-4f88-85eb-e24d117bc257{stroke:#fff;}.b1d4e54d-dbb8-49b3-95f5-6d75bf1fc31c,.b5bd7af0-42ff-434e-88f5-eff281f966d0,.b6585e38-f53e-4a56-a553-f2cd17ee798e,.e86886bb-ad21-44e2-bb65-513bf31455a1,.f7e97bb8-d867-49ff-8651-b441c45398af,.fc8ac5da-1054-4222-a47c-c3e108b365ad{fill:#fff;}.e86886bb-ad21-44e2-bb65-513bf31455a1{fill-opacity:0.05;}.b63e50d7-a8d8-413a-8834-48d2674b2df5,.bf29dc5d-bd17-454d-8f8e-cff864ccb1f8,.e3481c83-df01-41ea-8925-8f7e40bb2d26,.eb1c4e0d-cbb7-481b-b68d-01baf05c9155{fill:#0d1014;}.a82187a1-0106-463f-8f8b-2ca0113134a0,.ab75b133-ef6c-40e5-a655-11a3580e6b56,.b40914c7-59f1-4421-9448-b73c291adcdc,.b92200e8-6980-4912-9933-543cbaa43e03,.bf29dc5d-bd17-454d-8f8e-cff864ccb1f8,.bf90bd43-ba94-45d3-9403-0095d9b82977,.e94b247d-df35-481d-8f9c-1cb66dc6f2c1,.eb1c4e0d-cbb7-481b-b68d-01baf05c9155,.ec7dff4f-f8f9-4671-845b-d083f2ba7994,.f546d004-889e-4d07-9f8e-b598e878351c{stroke-miterlimit:10;}.bf29dc5d-bd17-454d-8f8e-cff864ccb1f8,.eb1c4e0d-cbb7-481b-b68d-01baf05c9155{stroke-width:1.15px;}.f1777030-e7f4-4a54-a381-ae5b20f09a1a{font-size:6.54px;}.a1c54f59-e4cf-4e63-b567-7c91ba93579a,.b51e315f-8e9b-471a-b8e6-963c4ddc4fe6,.bb02db67-aaac-40e1-b0b4-e84ebda7207e,.f1777030-e7f4-4a54-a381-ae5b20f09a1a{fill:#a2e2ff;}.a0db2398-2918-4953-a6c7-1b9fd726e1c9,.a1c54f59-e4cf-4e63-b567-7c91ba93579a,.a48f553f-fbf0-449c-870b-b6e332a56059,.b174fb67-d2c8-49de-8a1c-fe957e041a47,.b5bd7af0-42ff-434e-88f5-eff281f966d0,.b6585e38-f53e-4a56-a553-f2cd17ee798e,.b85ae34b-3858-4d0b-9b99-47598df722e5,.ea0a7025-a2c6-4365-aef9-c4809e71c070,.f1777030-e7f4-4a54-a381-ae5b20f09a1a{font-family:Tahoma;}.bf90bd43-ba94-45d3-9403-0095d9b82977,.e94b247d-df35-481d-8f9c-1cb66dc6f2c1{stroke-width:1.07px;}.e94b247d-df35-481d-8f9c-1cb66dc6f2c1{stroke-dasharray:3.41 3.41;}.a88d9dfe-3f01-42e0-a307-31d3aa77fef2,.abfb6694-4d2c-4fdb-a752-a197bc93f1eb{fill:#606580;}.a68206ef-09ac-40b3-a28c-82ccd538ee7c,.abfb6694-4d2c-4fdb-a752-a197bc93f1eb,.b4978124-786f-4013-859a-1c9e618fe0e1,.bc77bbe4-b6d8-466c-a3ef-b623df9aea83{fill-rule:evenodd;}.abfb6694-4d2c-4fdb-a752-a197bc93f1eb{opacity:0.2;}.a0db2398-2918-4953-a6c7-1b9fd726e1c9{font-size:5.9px;}.a0db2398-2918-4953-a6c7-1b9fd726e1c9,.fda7ff1e-4732-4554-9a85-63d1cf645e19{fill:#5b607d;}.b27d235f-016d-467f-b0af-3a297a75643f{font-size:4.72px;}.b6585e38-f53e-4a56-a553-f2cd17ee798e,.ea0a7025-a2c6-4365-aef9-c4809e71c070{font-size:7.48px;}.b85ae34b-3858-4d0b-9b99-47598df722e5,.e340ca4e-3223-4b25-8072-07dce0fc8814,.ea0a7025-a2c6-4365-aef9-c4809e71c070{fill:#8c99b2;}.a82187a1-0106-463f-8f8b-2ca0113134a0,.b92200e8-6980-4912-9933-543cbaa43e03{stroke-width:0.38px;stroke-dasharray:1.52;}.a48f553f-fbf0-449c-870b-b6e332a56059,.b174fb67-d2c8-49de-8a1c-fe957e041a47,.b47e1f39-12ff-4709-8fbf-168bea4ec1f8,.b9b96714-7343-44c3-bbdc-ecab68bb678f{fill:#f4a321;}.a68206ef-09ac-40b3-a28c-82ccd538ee7c,.b51e315f-8e9b-471a-b8e6-963c4ddc4fe6{opacity:0.25;}.a68206ef-09ac-40b3-a28c-82ccd538ee7c{fill:url(#b3d95ad7-e70a-4a96-8a06-62a4683a8650);}.e3481c83-df01-41ea-8925-8f7e40bb2d26{fill-opacity:0.6;opacity:0.6;}.ec7dff4f-f8f9-4671-845b-d083f2ba7994,.f546d004-889e-4d07-9f8e-b598e878351c{fill:#1b1e27;stroke-width:0.77px;}.a48f553f-fbf0-449c-870b-b6e332a56059,.b85ae34b-3858-4d0b-9b99-47598df722e5{font-size:6.56px;}.ac039edc-a583-4fc9-b988-03096af85fa0,.b1d4e54d-dbb8-49b3-95f5-6d75bf1fc31c,.f7e97bb8-d867-49ff-8651-b441c45398af{font-size:5.1px;}.fda7ff1e-4732-4554-9a85-63d1cf645e19{font-size:3.65px;}.a82187a1-0106-463f-8f8b-2ca0113134a0,.b40914c7-59f1-4421-9448-b73c291adcdc{stroke:#60647f;}.baeaceb5-def6-440c-a9ab-5b3b79c3e0e2{fill:#60647f;}.bc77bbe4-b6d8-466c-a3ef-b623df9aea83{opacity:0.05;fill:url(#a4e2a34d-66ce-4843-8e1b-a827568e0bc5);}.b4978124-786f-4013-859a-1c9e618fe0e1,.b84b3153-bbc1-4955-bb44-5d54bf9145c9,.f546d004-889e-4d07-9f8e-b598e878351c{stroke:#8c99b2;}.ac039edc-a583-4fc9-b988-03096af85fa0,.f7e97bb8-d867-49ff-8651-b441c45398af{letter-spacing:0em;}.a53766a2-6cb6-4db8-859f-5ee5250daadb,.a87a5307-c1b4-4e49-a877-51afddd82582,.b4978124-786f-4013-859a-1c9e618fe0e1,.b84b3153-bbc1-4955-bb44-5d54bf9145c9{stroke-linecap:round;stroke-linejoin:round;}.a87a5307-c1b4-4e49-a877-51afddd82582,.b4978124-786f-4013-859a-1c9e618fe0e1,.b84b3153-bbc1-4955-bb44-5d54bf9145c9{stroke-width:0.45px;}.a53766a2-6cb6-4db8-859f-5ee5250daadb{stroke-width:1.2px;}.a1c54f59-e4cf-4e63-b567-7c91ba93579a{font-size:6.9px;}.b3598e15-cbd7-4ec3-9827-d37501909868{font-size:4.6px;}.b9b96714-7343-44c3-bbdc-ecab68bb678f{opacity:0.8;}.b174fb67-d2c8-49de-8a1c-fe957e041a47,.b5bd7af0-42ff-434e-88f5-eff281f966d0{font-size:5.75px;}</style><linearGradient id="b3d95ad7-e70a-4a96-8a06-62a4683a8650" x1="123.72" y1="73.18" x2="212.6" y2="73.18" gradientUnits="userSpaceOnUse"><stop offset="0" stop-color="#f4a321" stop-opacity="0.25"/><stop offset="1" stop-color="#f4a321" stop-opacity="0"/></linearGradient><linearGradient id="a4e2a34d-66ce-4843-8e1b-a827568e0bc5" x1="224.85" y1="73.01" x2="313.72" y2="73.01" gradientUnits="userSpaceOnUse"><stop offset="0" stop-color="#60647f"/><stop offset="1" stop-color="#60647f" stop-opacity="0"/></linearGradient></defs><title>Prew</title><path class="eae4d4ca-a99d-43f5-8df7-e97668c100c7" d="M77,97.71a45.86,45.86,0,1,1-21.2-86.53"/><path class="eae4d4ca-a99d-43f5-8df7-e97668c100c7" d="M51.52,95.49a38.68,38.68,0,0,1,4.24-77.13"/><path class="afa0fd27-6819-4574-b045-050ad081eb9a" d="M78.77,78.71A31.56,31.56,0,1,1,55.83,25.47"/><path class="a379dd05-cbab-4f88-85eb-e24d117bc257" d="M74.59,82.42A31.57,31.57,0,1,1,55.83,25.47"/><polygon class="e86886bb-ad21-44e2-bb65-513bf31455a1" points="58.08 51.44 58.06 51.41 58.06 51.42 58.08 51.44"/><circle class="bf29dc5d-bd17-454d-8f8e-cff864ccb1f8" cx="51.45" cy="95.49" r="1.26"/><circle class="eb1c4e0d-cbb7-481b-b68d-01baf05c9155" cx="78.77" cy="78.71" r="1.26"/><circle class="bf29dc5d-bd17-454d-8f8e-cff864ccb1f8" cx="76.96" cy="97.87" r="1.26"/><text class="f1777030-e7f4-4a54-a381-ae5b20f09a1a" transform="translate(11.21 102.9)">97%</text><text class="f1777030-e7f4-4a54-a381-ae5b20f09a1a" transform="translate(88.62 102.9)">103%</text><line class="bf90bd43-ba94-45d3-9403-0095d9b82977" x1="40.69" y1="81.14" x2="39.62" y2="82.32"/><line class="e94b247d-df35-481d-8f9c-1cb66dc6f2c1" x1="37.34" y1="84.86" x2="29.35" y2="93.72"/><line class="bf90bd43-ba94-45d3-9403-0095d9b82977" x1="28.21" y1="94.99" x2="27.14" y2="96.18"/><circle class="bf29dc5d-bd17-454d-8f8e-cff864ccb1f8" cx="40.69" cy="81.14" r="1.05"/><circle class="bf29dc5d-bd17-454d-8f8e-cff864ccb1f8" cx="26.32" cy="96.82" r="1.05"/><line class="bf90bd43-ba94-45d3-9403-0095d9b82977" x1="72.27" y1="80.05" x2="73.34" y2="81.24"/><line class="e94b247d-df35-481d-8f9c-1cb66dc6f2c1" x1="75.62" y1="83.77" x2="83.61" y2="92.64"/><line class="bf90bd43-ba94-45d3-9403-0095d9b82977" x1="84.75" y1="93.9" x2="85.82" y2="95.09"/><circle class="bf29dc5d-bd17-454d-8f8e-cff864ccb1f8" cx="72.27" cy="80.05" r="1.05"/><circle class="bf29dc5d-bd17-454d-8f8e-cff864ccb1f8" cx="86.65" cy="95.73" r="1.05"/><path class="abfb6694-4d2c-4fdb-a752-a197bc93f1eb" d="M59.93,45.24l-.87,6.88,6.49.17L51.6,71.47l3.17-13.11-5.56.39L60.68,39.34l-.75,5.9Zm-1.21-.16L51.46,57.36l4.9-.35-2.11,8.72,8.93-12.28-5.5-.14Z"/><text class="a0db2398-2918-4953-a6c7-1b9fd726e1c9" transform="translate(45.86 55.45)">текущий<tspan class="b27d235f-016d-467f-b0af-3a297a75643f"><tspan x="4.73" y="5.67">статус</tspan></tspan></text><text class="ea0a7025-a2c6-4365-aef9-c4809e71c070" transform="translate(67.4 12.79) scale(0.58 0.58)">Тепловая</text><text class="ea0a7025-a2c6-4365-aef9-c4809e71c070" transform="translate(67.4 19.53) scale(0.58 0.58)">Электро</text><text class="b6585e38-f53e-4a56-a553-f2cd17ee798e" transform="translate(67.4 26.34) scale(0.58 0.58)">Топливо</text><line class="b92200e8-6980-4912-9933-543cbaa43e03" x1="211.67" y1="59.14" x2="129.07" y2="59.14"/><line class="b92200e8-6980-4912-9933-543cbaa43e03" x1="211.67" y1="87.4" x2="129.07" y2="87.4"/><path class="b63e50d7-a8d8-413a-8834-48d2674b2df5" d="M211.66,59.7a.61.61,0,1,1,.61-.6A.6.6,0,0,1,211.66,59.7Z"/><path class="b47e1f39-12ff-4709-8fbf-168bea4ec1f8" d="M211.66,58.83a.27.27,0,1,1,0,.53.27.27,0,0,1,0-.53m0-.67a.94.94,0,1,0,.94.94.94.94,0,0,0-.94-.94Z"/><path class="b63e50d7-a8d8-413a-8834-48d2674b2df5" d="M211.66,87.91a.6.6,0,1,1,.61-.6A.6.6,0,0,1,211.66,87.91Z"/><path class="b47e1f39-12ff-4709-8fbf-168bea4ec1f8" d="M211.66,87a.27.27,0,1,1-.26.27.27.27,0,0,1,.26-.27m0-.67a.94.94,0,1,0,.94.94.94.94,0,0,0-.94-.94Z"/><path class="a68206ef-09ac-40b3-a28c-82ccd538ee7c" d="M128.33,87.31H212.6V59.05H128.33l-4.61,4.61v19Z"/><path class="ab75b133-ef6c-40e5-a655-11a3580e6b56" d="M129.07,87.35h-2.76l-2.8-2.8V61.85l2.8-2.8h2.9"/><path class="b63e50d7-a8d8-413a-8834-48d2674b2df5" d="M129.21,59.74a.6.6,0,1,1,.61-.6A.6.6,0,0,1,129.21,59.74Z"/><path class="b47e1f39-12ff-4709-8fbf-168bea4ec1f8" d="M129.21,58.87a.27.27,0,1,1-.26.27.27.27,0,0,1,.26-.27m0-.66a.93.93,0,1,0,.94.93.93.93,0,0,0-.94-.93Z"/><circle class="b63e50d7-a8d8-413a-8834-48d2674b2df5" cx="129.21" cy="87.35" r="0.6"/><path class="b47e1f39-12ff-4709-8fbf-168bea4ec1f8" d="M129.21,87.08a.27.27,0,1,1-.26.27.27.27,0,0,1,.26-.27m0-.66a.94.94,0,1,0,.94.93.93.93,0,0,0-.94-.93Z"/><path class="e3481c83-df01-41ea-8925-8f7e40bb2d26" d="M206.92,81.79H131.69l-1.41-1.41V78.81l1.41-1.42h75.23l1.42,1.42v1.57Z"/><rect class="a88d9dfe-3f01-42e0-a307-31d3aa77fef2" x="131.27" y="82.42" width="0.35" height="1.02"/><rect class="a88d9dfe-3f01-42e0-a307-31d3aa77fef2" x="162.33" y="82.42" width="0.35" height="1.02"/><rect class="a88d9dfe-3f01-42e0-a307-31d3aa77fef2" x="207.94" y="82.42" width="0.35" height="1.02"/><path class="fc8ac5da-1054-4222-a47c-c3e108b365ad" d="M193.59,80.36H130.92l-.49-.49v-.55l.49-.49h62.67l.49.49v.55Z"/><path class="b47e1f39-12ff-4709-8fbf-168bea4ec1f8" d="M206.37,80.36H193.62l0-1.53h12.71l1.12.64v.25Z"/><rect class="bb02db67-aaac-40e1-b0b4-e84ebda7207e" x="193.38" y="75.77" width="0.47" height="7.65"/><path class="b63e50d7-a8d8-413a-8834-48d2674b2df5" d="M193.62,76.37a.6.6,0,0,1-.6-.6.59.59,0,0,1,.6-.6.6.6,0,0,1,.6.6A.6.6,0,0,1,193.62,76.37Z"/><path class="bb02db67-aaac-40e1-b0b4-e84ebda7207e" d="M193.62,75.5a.27.27,0,1,1-.27.27.27.27,0,0,1,.27-.27m0-.67a.94.94,0,1,0,.93.94.94.94,0,0,0-.93-.94Z"/><path class="b63e50d7-a8d8-413a-8834-48d2674b2df5" d="M193.62,84.16a.6.6,0,0,1,0-1.2.6.6,0,0,1,0,1.2Z"/><path class="bb02db67-aaac-40e1-b0b4-e84ebda7207e" d="M193.62,83.29a.27.27,0,1,1-.27.27.27.27,0,0,1,.27-.27m0-.66a.93.93,0,1,0,.93.93.93.93,0,0,0-.93-.93Z"/><path class="b63e50d7-a8d8-413a-8834-48d2674b2df5" d="M207.49,76.37a.6.6,0,0,1-.6-.6.6.6,0,0,1,1.2,0A.6.6,0,0,1,207.49,76.37Z"/><path class="b47e1f39-12ff-4709-8fbf-168bea4ec1f8" d="M207.49,75.5a.27.27,0,1,1-.27.27.27.27,0,0,1,.27-.27m0-.67a.94.94,0,1,0,.93.94.94.94,0,0,0-.93-.94Z"/><circle class="ec7dff4f-f8f9-4671-845b-d083f2ba7994" cx="123.51" cy="73.22" r="5.59"/><text class="a48f553f-fbf0-449c-870b-b6e332a56059" transform="translate(187.87 68.4)">59.9<tspan class="b1d4e54d-dbb8-49b3-95f5-6d75bf1fc31c" x="12.73" y="0"> </tspan><tspan class="fda7ff1e-4732-4554-9a85-63d1cf645e19"><tspan x="0" y="4.38">кг.у.т/тонн.</tspan></tspan></text><text class="a48f553f-fbf0-449c-870b-b6e332a56059" transform="translate(144 68.4)">85.3<tspan class="b1d4e54d-dbb8-49b3-95f5-6d75bf1fc31c" x="12.73" y="0"> </tspan><tspan class="fda7ff1e-4732-4554-9a85-63d1cf645e19"><tspan x="0" y="4.38">тыс.т.у.т.</tspan></tspan></text><path class="b47e1f39-12ff-4709-8fbf-168bea4ec1f8" d="M137.25,66.8a.21.21,0,0,1,.13,0l2,2a.18.18,0,0,1,0,.25.16.16,0,0,1-.24,0l-1.87-1.86-1.86,1.86a.16.16,0,0,1-.24,0,.18.18,0,0,1,0-.25l2-2A.21.21,0,0,1,137.25,66.8Z"/><path class="b47e1f39-12ff-4709-8fbf-168bea4ec1f8" d="M137.25,64.46a.21.21,0,0,1,.13.05l2,2a.18.18,0,0,1,0,.25.16.16,0,0,1-.24,0l-1.87-1.86-1.86,1.86a.16.16,0,0,1-.24,0,.18.18,0,0,1,0-.25l2-2A.21.21,0,0,1,137.25,64.46Z"/><path class="b47e1f39-12ff-4709-8fbf-168bea4ec1f8" d="M181.71,66.8a.21.21,0,0,1,.13,0l2,2a.18.18,0,0,1-.25.25l-1.86-1.86-1.86,1.86a.16.16,0,0,1-.24,0,.18.18,0,0,1,0-.25l2-2A.18.18,0,0,1,181.71,66.8Z"/><path class="b47e1f39-12ff-4709-8fbf-168bea4ec1f8" d="M181.71,64.46a.21.21,0,0,1,.13.05l2,2a.18.18,0,0,1-.25.25l-1.86-1.86-1.86,1.86a.16.16,0,0,1-.24,0,.18.18,0,0,1,0-.25l2-2A.18.18,0,0,1,181.71,64.46Z"/><line class="a82187a1-0106-463f-8f8b-2ca0113134a0" x1="312.79" y1="58.97" x2="230.19" y2="58.97"/><line class="a82187a1-0106-463f-8f8b-2ca0113134a0" x1="312.79" y1="87.22" x2="230.19" y2="87.22"/><path class="b63e50d7-a8d8-413a-8834-48d2674b2df5" d="M312.79,59.52a.6.6,0,1,1,.6-.6A.6.6,0,0,1,312.79,59.52Z"/><path class="baeaceb5-def6-440c-a9ab-5b3b79c3e0e2" d="M312.79,58.66a.27.27,0,1,1-.27.26.27.27,0,0,1,.27-.26m0-.67a.94.94,0,1,0,.93.93.93.93,0,0,0-.93-.93Z"/><path class="b63e50d7-a8d8-413a-8834-48d2674b2df5" d="M312.79,87.74a.6.6,0,1,1,.6-.6A.6.6,0,0,1,312.79,87.74Z"/><path class="baeaceb5-def6-440c-a9ab-5b3b79c3e0e2" d="M312.79,86.87a.27.27,0,1,1-.27.27.27.27,0,0,1,.27-.27m0-.67a.94.94,0,1,0,.93.94.93.93,0,0,0-.93-.94Z"/><path class="bc77bbe4-b6d8-466c-a3ef-b623df9aea83" d="M229.46,87.14h84.26V58.88H229.46l-4.61,4.61v19Z"/><path class="b40914c7-59f1-4421-9448-b73c291adcdc" d="M230.19,87.18h-2.75l-2.81-2.8V61.68l2.81-2.8h2.9"/><path class="b63e50d7-a8d8-413a-8834-48d2674b2df5" d="M230.34,59.57a.6.6,0,1,1,.6-.6A.6.6,0,0,1,230.34,59.57Z"/><path class="baeaceb5-def6-440c-a9ab-5b3b79c3e0e2" d="M230.34,58.7a.27.27,0,1,1-.27.27.27.27,0,0,1,.27-.27m0-.67a.94.94,0,1,0,.93.94.93.93,0,0,0-.93-.94Z"/><circle class="b63e50d7-a8d8-413a-8834-48d2674b2df5" cx="230.34" cy="87.18" r="0.6"/><path class="baeaceb5-def6-440c-a9ab-5b3b79c3e0e2" d="M230.34,86.91a.27.27,0,1,1-.27.27.27.27,0,0,1,.27-.27m0-.66a.93.93,0,1,0,.93.93.92.92,0,0,0-.93-.93Z"/><path class="e3481c83-df01-41ea-8925-8f7e40bb2d26" d="M308.05,81.62H232.82l-1.41-1.41V78.63l1.41-1.41h75.23l1.41,1.41v1.58Z"/><rect class="a88d9dfe-3f01-42e0-a307-31d3aa77fef2" x="232.4" y="82.25" width="0.35" height="1.02"/><rect class="a88d9dfe-3f01-42e0-a307-31d3aa77fef2" x="263.45" y="82.25" width="0.35" height="1.02"/><rect class="a88d9dfe-3f01-42e0-a307-31d3aa77fef2" x="309.07" y="82.25" width="0.35" height="1.02"/><path class="b51e315f-8e9b-471a-b8e6-963c4ddc4fe6" d="M294.72,80.19H232l-.49-.5v-.54l.49-.5h62.68l.49.5v.54Z"/><path class="bb02db67-aaac-40e1-b0b4-e84ebda7207e" d="M262.89,80.19H232l-.49-.5v-.54l.49-.5h30.85l.49.5v.54Z"/><rect class="bb02db67-aaac-40e1-b0b4-e84ebda7207e" x="294.51" y="75.59" width="0.47" height="7.65"/><path class="b63e50d7-a8d8-413a-8834-48d2674b2df5" d="M294.74,76.19a.6.6,0,1,1,.6-.6A.6.6,0,0,1,294.74,76.19Z"/><path class="bb02db67-aaac-40e1-b0b4-e84ebda7207e" d="M294.74,75.33a.27.27,0,1,1-.27.26.27.27,0,0,1,.27-.26m0-.67a.94.94,0,1,0,.94.93.93.93,0,0,0-.94-.93Z"/><path class="b63e50d7-a8d8-413a-8834-48d2674b2df5" d="M294.74,84a.6.6,0,1,1,.6-.6A.6.6,0,0,1,294.74,84Z"/><path class="bb02db67-aaac-40e1-b0b4-e84ebda7207e" d="M294.74,83.12a.27.27,0,1,1-.27.27.27.27,0,0,1,.27-.27m0-.67a.94.94,0,1,0,.94.94.94.94,0,0,0-.94-.94Z"/><path class="b63e50d7-a8d8-413a-8834-48d2674b2df5" d="M263.11,76.19a.6.6,0,1,1,.6-.6A.6.6,0,0,1,263.11,76.19Z"/><path class="fc8ac5da-1054-4222-a47c-c3e108b365ad" d="M263.11,75.33a.27.27,0,1,1-.27.26.27.27,0,0,1,.27-.26m0-.67a.94.94,0,1,0,.93.93.93.93,0,0,0-.93-.93Z"/><circle class="f546d004-889e-4d07-9f8e-b598e878351c" cx="224.63" cy="73.05" r="5.59"/><text class="b85ae34b-3858-4d0b-9b99-47598df722e5" transform="translate(288.99 68.19)">0.100<tspan class="ac039edc-a583-4fc9-b988-03096af85fa0" x="16.32" y="0"> </tspan><tspan class="fda7ff1e-4732-4554-9a85-63d1cf645e19"><tspan x="0" y="4.38">Гкал/тонн</tspan></tspan></text><text class="b85ae34b-3858-4d0b-9b99-47598df722e5" transform="translate(245.13 68.19)">142.8<tspan class="f7e97bb8-d867-49ff-8651-b441c45398af" x="16.32" y="0"> </tspan><tspan class="fda7ff1e-4732-4554-9a85-63d1cf645e19"><tspan x="0" y="4.38">тыс. Гкал</tspan></tspan></text><path class="fc8ac5da-1054-4222-a47c-c3e108b365ad" d="M238.38,66.63a.18.18,0,0,1-.12,0l-2-2a.18.18,0,0,1,.25-.25l1.86,1.86,1.86-1.86a.18.18,0,0,1,.25.25l-2,2A.18.18,0,0,1,238.38,66.63Z"/><path class="fc8ac5da-1054-4222-a47c-c3e108b365ad" d="M238.38,69a.18.18,0,0,1-.12,0l-2-2a.18.18,0,0,1,.25-.25l1.86,1.86,1.86-1.86a.18.18,0,0,1,.25.25l-2,2A.18.18,0,0,1,238.38,69Z"/><path class="fc8ac5da-1054-4222-a47c-c3e108b365ad" d="M282.84,66.63a.17.17,0,0,1-.12,0l-2-2a.18.18,0,0,1,.25-.25l1.86,1.86,1.86-1.86a.18.18,0,0,1,.25.25l-2,2A.18.18,0,0,1,282.84,66.63Z"/><path class="fc8ac5da-1054-4222-a47c-c3e108b365ad" d="M282.84,69a.17.17,0,0,1-.12,0l-2-2a.18.18,0,0,1,.25-.25l1.86,1.86,1.86-1.86a.18.18,0,0,1,.25.25l-2,2A.18.18,0,0,1,282.84,69Z"/><path class="b47e1f39-12ff-4709-8fbf-168bea4ec1f8" d="M61.4,26.91l-.21-.11-.11-.05a.91.91,0,0,1-.41-1.12,2,2,0,0,1,.25-.54h0a3.69,3.69,0,0,0,.38-.81.56.56,0,0,1,0-.12l0-.18.11.07,0,0,.08.07a6.34,6.34,0,0,1,.68.77,1.76,1.76,0,0,1,.34.85,1,1,0,0,1-.4,1l-.18.09-.07,0-.09,0-.06-.15,0-.05.05-.06.1-.12a.94.94,0,0,0,0-1,1.24,1.24,0,0,0-.17-.23,1.81,1.81,0,0,1-.23.75l-.11.21,0-.24a.65.65,0,0,0-.1-.25c-.05.12-.1.24-.14.36a.46.46,0,0,0,.1.54.19.19,0,0,1,0,.09Zm.23-2.07.17.14a1.63,1.63,0,0,1,.37.43,1.16,1.16,0,0,1,.06,1.11.85.85,0,0,0,.23-.75,1.68,1.68,0,0,0-.31-.76,5.65,5.65,0,0,0-.65-.73l0,0a4,4,0,0,1-.4.84h0a2.7,2.7,0,0,0-.23.49.77.77,0,0,0,.17.8A.71.71,0,0,1,61,26l.15-.38.06-.14.09,0,0,0a.6.6,0,0,1,.16.22,1.41,1.41,0,0,0,.1-.67Zm-.23.76h0Z"/><rect class="a87a5307-c1b4-4e49-a877-51afddd82582" x="59.91" y="22.92" width="3.45" height="5.05" rx="0.23"/><line class="a53766a2-6cb6-4db8-859f-5ee5250daadb" x1="60.68" y1="22.68" x2="60.96" y2="22.68"/><path class="b47e1f39-12ff-4709-8fbf-168bea4ec1f8" d="M123.28,74.9l-.21-.11-.11-.05a.93.93,0,0,1-.42-1.12,2.18,2.18,0,0,1,.26-.53v0a3.85,3.85,0,0,0,.38-.8l0-.13,0-.18.1.07,0,0,.07.08a5,5,0,0,1,.69.76,1.84,1.84,0,0,1,.33.85,1,1,0,0,1-.4,1l-.17.08-.08,0-.08,0-.07-.15,0,0a.18.18,0,0,1,0-.07.94.94,0,0,0,.09-.12.92.92,0,0,0,0-1,1.37,1.37,0,0,0-.18-.24,1.65,1.65,0,0,1-.22.75l-.12.21-.05-.24a.73.73,0,0,0-.09-.25l-.15.36a.48.48,0,0,0,.11.54.19.19,0,0,1,0,.1Zm.23-2.07.17.14a1.42,1.42,0,0,1,.36.43,1.11,1.11,0,0,1,.06,1.11.8.8,0,0,0,.24-.74A1.67,1.67,0,0,0,124,73a5.72,5.72,0,0,0-.66-.73v0a4,4,0,0,1-.4.84v0a2.19,2.19,0,0,0-.23.49.75.75,0,0,0,.17.79.59.59,0,0,1,0-.45l.15-.38.06-.14.09,0,0,0a.6.6,0,0,1,.16.22,1.39,1.39,0,0,0,.1-.66Zm-.23.77Z"/><rect class="a87a5307-c1b4-4e49-a877-51afddd82582" x="121.79" y="70.91" width="3.45" height="5.05" rx="0.23"/><line class="a53766a2-6cb6-4db8-859f-5ee5250daadb" x1="122.56" y1="70.68" x2="122.84" y2="70.68"/><path class="b84b3153-bbc1-4955-bb44-5d54bf9145c9" d="M62.7,16.48a1.9,1.9,0,0,1,.85,1.58A1.92,1.92,0,0,1,61.63,20"/><path class="b84b3153-bbc1-4955-bb44-5d54bf9145c9" d="M60.37,19.51a1.92,1.92,0,0,1,1.26-3.36"/><polygon class="b4978124-786f-4013-859a-1c9e618fe0e1" points="62.51 15.54 60.66 18.42 61.42 18.42 60.53 20.59 62.76 17.75 61.87 17.75 62.51 15.54"/><path class="b84b3153-bbc1-4955-bb44-5d54bf9145c9" d="M61.74,11.86h.1"/><path class="b84b3153-bbc1-4955-bb44-5d54bf9145c9" d="M62.82,11.93c.8.1,1.35.29,1.35.52S63,13,61.64,13s-2.52-.26-2.52-.58.55-.42,1.35-.52"/><path class="e340ca4e-3223-4b25-8072-07dce0fc8814" d="M61.69,8.15s.76.78-.32,1.93a1.46,1.46,0,0,0,.32,2.5s-1-.89.15-2.21S62.17,8.47,61.69,8.15Z"/><path class="e340ca4e-3223-4b25-8072-07dce0fc8814" d="M61.23,8.31a1.2,1.2,0,0,1-.55,1.22c-1.11.9-.29,1.72-.29,1.72a1.12,1.12,0,0,1,.5-1.45C61.72,9.2,61.45,8.6,61.23,8.31Z"/><path class="e340ca4e-3223-4b25-8072-07dce0fc8814" d="M62.87,9.22s.3.59-.42,1.22c-1.07,1-.08,1.66-.08,1.66s-.54-.7.34-1.42S63.13,9.49,62.87,9.22Z"/><path class="b84b3153-bbc1-4955-bb44-5d54bf9145c9" d="M224.73,74.12h.1"/><path class="b84b3153-bbc1-4955-bb44-5d54bf9145c9" d="M225.81,74.18c.8.1,1.35.3,1.35.52s-1.13.58-2.53.58-2.52-.26-2.52-.58.55-.42,1.35-.52"/><path class="e340ca4e-3223-4b25-8072-07dce0fc8814" d="M224.68,70.4s.76.78-.32,1.93a1.48,1.48,0,0,0,.33,2.51s-1-.9.14-2.22S225.16,70.73,224.68,70.4Z"/><path class="e340ca4e-3223-4b25-8072-07dce0fc8814" d="M224.22,70.56a1.21,1.21,0,0,1-.55,1.23c-1.11.89-.29,1.72-.29,1.72a1.12,1.12,0,0,1,.5-1.45C224.71,71.45,224.44,70.86,224.22,70.56Z"/><path class="e340ca4e-3223-4b25-8072-07dce0fc8814" d="M225.86,71.48s.3.58-.42,1.21c-1.07,1-.08,1.66-.08,1.66s-.54-.69.34-1.42S226.12,71.74,225.86,71.48Z"/><text class="a1c54f59-e4cf-4e63-b567-7c91ba93579a" transform="translate(245.45 29.34)">100<tspan class="b3598e15-cbd7-4ec3-9827-d37501909868" x="11.3" y="0">%</tspan></text><path class="e3481c83-df01-41ea-8925-8f7e40bb2d26" d="M275.5,42.33H123.72l-1.65-1.65v-3.5l1.65-1.65H275.5l1.66,1.65v3.5Z"/><rect class="a88d9dfe-3f01-42e0-a307-31d3aa77fef2" x="123.29" y="42.33" width="0.43" height="2.59"/><rect class="a88d9dfe-3f01-42e0-a307-31d3aa77fef2" x="179.07" y="42.33" width="0.43" height="2.59"/><path class="fc8ac5da-1054-4222-a47c-c3e108b365ad" d="M251.1,40.74H123.81l-1.56-1.57v-.48l1.56-1.57H251.1l1.57,1.57v.48Z"/><path class="b9b96714-7343-44c3-bbdc-ecab68bb678f" d="M275.31,40.74h-23l0-3.62h23l.8,1.51v.6Z"/><rect class="bb02db67-aaac-40e1-b0b4-e84ebda7207e" x="252.1" y="35.53" width="0.57" height="9.33"/><path class="b63e50d7-a8d8-413a-8834-48d2674b2df5" d="M252.38,45.51a.82.82,0,0,1,0-1.64.82.82,0,0,1,0,1.64Z"/><path class="bb02db67-aaac-40e1-b0b4-e84ebda7207e" d="M252.38,44.21a.48.48,0,1,1-.48.48.48.48,0,0,1,.48-.48m0-.67a1.15,1.15,0,0,0,0,2.3,1.15,1.15,0,1,0,0-2.3Z"/><text class="a1c54f59-e4cf-4e63-b567-7c91ba93579a" transform="translate(224.04 29.34)">97<tspan class="b3598e15-cbd7-4ec3-9827-d37501909868" x="7.53" y="0">%</tspan></text><rect class="bb02db67-aaac-40e1-b0b4-e84ebda7207e" x="230.68" y="35.53" width="0.57" height="9.33"/><path class="b63e50d7-a8d8-413a-8834-48d2674b2df5" d="M231,45.51a.82.82,0,1,1,0-1.64.82.82,0,0,1,0,1.64Z"/><path class="bb02db67-aaac-40e1-b0b4-e84ebda7207e" d="M231,44.21a.48.48,0,1,1-.49.48.48.48,0,0,1,.49-.48m0-.67a1.15,1.15,0,1,0,1.15,1.15A1.15,1.15,0,0,0,231,43.54Z"/><text class="b174fb67-d2c8-49de-8a1c-fe957e041a47" transform="translate(282.9 29.76)">Отклонение</text><text class="b5bd7af0-42ff-434e-88f5-eff281f966d0" transform="translate(282.9 41.68)">Улучшение</text></svg>