<svg xmlns="http://www.w3.org/2000/svg" xmlns:xlink="http://www.w3.org/1999/xlink" viewBox="0 0 324 118"><defs><style>.a27376a6-f93b-4bd6-ba9a-1fcecce7e2c9,.a67a3e14-600c-4c35-8069-d47d2553b702,.b423040d-68a9-46e0-a0a3-000e37dd5891,.f6fd2848-44bb-49c2-bf38-d970f43234a4{fill:none;}.a27376a6-f93b-4bd6-ba9a-1fcecce7e2c9{clip-rule:evenodd;}.e17ba451-5a91-4d27-9fce-8d35224382bf{font-size:6.35px;}.af96c18d-5f31-43d7-a355-d3424146cfdf,.e17ba451-5a91-4d27-9fce-8d35224382bf,.ec7ae9a6-2c55-4d9d-b692-a6a684ea7233{fill:#5b607d;}.ac112b48-4f35-453a-84d2-757eda27fb6c,.af96c18d-5f31-43d7-a355-d3424146cfdf,.be7a5c2c-29b4-4545-82cd-0947f79d4f2f,.e17ba451-5a91-4d27-9fce-8d35224382bf{font-family:Tahoma;}.a1c8260a-53f8-47c8-8a3a-ba5aee7f98dd,.a69c65d3-3d08-4ffd-90bb-b3ab58135d0d,.b3d25859-3e81-4a56-90e5-50beefcd304b,.be7a5c2c-29b4-4545-82cd-0947f79d4f2f,.fd85e699-2529-4bc7-89a1-07dbd23977d3{fill:#a2e2ff;}.ac112b48-4f35-453a-84d2-757eda27fb6c{font-size:12.7px;}.ac112b48-4f35-453a-84d2-757eda27fb6c,.ad8d39eb-6103-446a-94dc-c2c3cef47701,.ecfa0fb3-9225-449f-b91e-e216a534eb34{fill:#fff;}.a67a3e14-600c-4c35-8069-d47d2553b702{stroke:#5b607d;}.a67a3e14-600c-4c35-8069-d47d2553b702,.b423040d-68a9-46e0-a0a3-000e37dd5891,.be7a5c2c-29b4-4545-82cd-0947f79d4f2f{stroke-miterlimit:10;}.e142b6c3-2cb7-445c-9101-dd74f32bc31e{fill:#1b1e27;}.ada787bc-c0c1-40de-bb58-65b894ad0c7a{fill:#0d1014;}.af96c18d-5f31-43d7-a355-d3424146cfdf{font-size:7.36px;}.e63cd223-0aef-4f15-8da7-54294d1d3679{fill:#8c99b2;}.f228255f-5b23-471a-99bf-9cdc354f0ab7{clip-path:url(#a24af4d2-7201-49d1-8051-c3ed4742f7e9);}.a1c8260a-53f8-47c8-8a3a-ba5aee7f98dd,.fd85e699-2529-4bc7-89a1-07dbd23977d3{fill-rule:evenodd;}.a1c8260a-53f8-47c8-8a3a-ba5aee7f98dd{opacity:0.5;}.fd85e699-2529-4bc7-89a1-07dbd23977d3{opacity:0.25;}.bfddb685-2fce-4f7c-bedc-b8145fef81f2{opacity:0.18;}.b02b7b0e-0747-4879-8085-4ede5b8ebe97{clip-path:url(#a537c41e-3332-401b-abc8-b94c1e4607fd);}.be7a5c2c-29b4-4545-82cd-0947f79d4f2f{font-size:3.59px;}.b423040d-68a9-46e0-a0a3-000e37dd5891,.be7a5c2c-29b4-4545-82cd-0947f79d4f2f{stroke:#fff;stroke-width:0.25px;}.e5c77371-10b0-4f49-bd9c-b3aef7958f08{isolation:isolate;}.f2f96830-c364-407a-a368-63fef3504f6c{clip-path:url(#ffc8d92c-56e5-42c4-afb3-a9e6819c4590);}.a69c65d3-3d08-4ffd-90bb-b3ab58135d0d{opacity:0.05;}.ecfa0fb3-9225-449f-b91e-e216a534eb34{opacity:0.5;}.f0d9b8d4-bd96-4148-88b0-cc903d844f9b{fill:#fbfeff;opacity:0.53;}</style><clipPath id="a24af4d2-7201-49d1-8051-c3ed4742f7e9"><polyline class="a27376a6-f93b-4bd6-ba9a-1fcecce7e2c9" points="25.34 11.54 139.74 11.54 139.74 85.75 25.34 85.75"/></clipPath><clipPath id="a537c41e-3332-401b-abc8-b94c1e4607fd"><ellipse class="f6fd2848-44bb-49c2-bf38-d970f43234a4" cx="161.93" cy="-67.5" rx="39.81" ry="39.98"/></clipPath><clipPath id="ffc8d92c-56e5-42c4-afb3-a9e6819c4590"><polygon class="f6fd2848-44bb-49c2-bf38-d970f43234a4" points="7.6 -73.2 159.43 -161.43 374.29 -37.38 222.46 50.85 7.6 -73.2"/></clipPath></defs><title>Проект1</title><g id="ad963db4-ca50-4c79-b066-b9745d174bed" data-name="1"><text class="e17ba451-5a91-4d27-9fce-8d35224382bf" transform="translate(118.72 23.47)">Без пожара</text><text class="e17ba451-5a91-4d27-9fce-8d35224382bf" transform="translate(189.02 23.47)">Без аварии</text><text class="e17ba451-5a91-4d27-9fce-8d35224382bf" transform="translate(247.08 23.47)">Без несчастных случаев</text><path class="b3d25859-3e81-4a56-90e5-50beefcd304b" d="M141.63,42.53a24.91,24.91,0,1,0,11.48,47l-.74-.27a24.38,24.38,0,1,1,7.91-6.22c.05.29.12.75.12.75a24.94,24.94,0,0,0,6.13-16.37,24.48,24.48,0,0,0-.58-5.31l1.56-2a27,27,0,0,0-12.18-16l-2.52,1A24.76,24.76,0,0,0,141.63,42.53Z"/><text class="ac112b48-4f35-453a-84d2-757eda27fb6c" transform="translate(130.89 71.23)">616</text><path class="a67a3e14-600c-4c35-8069-d47d2553b702" d="M112.37,21.67v6.44l1.95,1.95h15L142.12,42.9"/><path class="e142b6c3-2cb7-445c-9101-dd74f32bc31e" d="M142.12,45.09a2.19,2.19,0,1,1,2.19-2.19A2.2,2.2,0,0,1,142.12,45.09Z"/><path class="ec7ae9a6-2c55-4d9d-b692-a6a684ea7233" d="M142.12,41.21a1.69,1.69,0,1,1-1.69,1.69,1.68,1.68,0,0,1,1.69-1.69m0-1a2.69,2.69,0,1,0,2.69,2.69,2.69,2.69,0,0,0-2.69-2.69Z"/><path class="ec7ae9a6-2c55-4d9d-b692-a6a684ea7233" d="M142.12,44a1,1,0,1,1,1-1.05A1,1,0,0,1,142.12,44Z"/><path class="e142b6c3-2cb7-445c-9101-dd74f32bc31e" d="M142.12,42.35a.54.54,0,0,1,.55.55.55.55,0,0,1-.55.55.55.55,0,0,1-.55-.55.55.55,0,0,1,.55-.55m0-1a1.55,1.55,0,1,0,1.55,1.55,1.55,1.55,0,0,0-1.55-1.55Z"/><circle class="ada787bc-c0c1-40de-bb58-65b894ad0c7a" cx="112.43" cy="21.36" r="1.4"/><path class="ec7ae9a6-2c55-4d9d-b692-a6a684ea7233" d="M112.43,20.46a.9.9,0,1,1-.91.9.9.9,0,0,1,.91-.9m0-1a1.9,1.9,0,1,0,1.9,1.9,1.9,1.9,0,0,0-1.9-1.9Z"/><path class="b3d25859-3e81-4a56-90e5-50beefcd304b" d="M211.85,42.53a24.91,24.91,0,1,0,11.48,47l-.74-.27a24.38,24.38,0,1,1,7.91-6.22c.05.29.12.75.12.75a24.94,24.94,0,0,0,6.13-16.37,24.48,24.48,0,0,0-.58-5.31l1.56-2a27,27,0,0,0-12.18-16l-2.52,1A24.73,24.73,0,0,0,211.85,42.53Z"/><text class="ac112b48-4f35-453a-84d2-757eda27fb6c" transform="translate(201.19 71.23)">991</text><path class="a67a3e14-600c-4c35-8069-d47d2553b702" d="M182.59,21.67v6.44l2,1.95h15L212.34,42.9"/><path class="e142b6c3-2cb7-445c-9101-dd74f32bc31e" d="M212.35,45.09a2.19,2.19,0,1,1,2.19-2.19A2.2,2.2,0,0,1,212.35,45.09Z"/><path class="ec7ae9a6-2c55-4d9d-b692-a6a684ea7233" d="M212.34,41.21a1.69,1.69,0,1,1-1.69,1.69,1.69,1.69,0,0,1,1.69-1.69m0-1A2.69,2.69,0,1,0,215,42.9a2.69,2.69,0,0,0-2.7-2.69Z"/><path class="ec7ae9a6-2c55-4d9d-b692-a6a684ea7233" d="M212.35,44a1.05,1.05,0,1,1,1-1.05A1,1,0,0,1,212.35,44Z"/><path class="e142b6c3-2cb7-445c-9101-dd74f32bc31e" d="M212.34,42.35a.54.54,0,0,1,.55.55.55.55,0,0,1-.55.55.55.55,0,0,1-.55-.55.55.55,0,0,1,.55-.55m0-1a1.55,1.55,0,1,0,1.55,1.55,1.55,1.55,0,0,0-1.55-1.55Z"/><circle class="ada787bc-c0c1-40de-bb58-65b894ad0c7a" cx="182.65" cy="21.36" r="1.4"/><path class="ec7ae9a6-2c55-4d9d-b692-a6a684ea7233" d="M182.65,20.46a.9.9,0,1,1-.91.9.9.9,0,0,1,.91-.9m0-1a1.9,1.9,0,1,0,1.9,1.9,1.91,1.91,0,0,0-1.9-1.9Z"/><path class="b3d25859-3e81-4a56-90e5-50beefcd304b" d="M279.5,42.53a24.91,24.91,0,1,0,11.49,47l-.74-.27a24.35,24.35,0,1,1,7.91-6.22c0,.29.12.75.12.75a24.94,24.94,0,0,0,6.13-16.37,24.48,24.48,0,0,0-.58-5.31l1.56-2a27,27,0,0,0-12.18-16l-2.53,1A24.7,24.7,0,0,0,279.5,42.53Z"/><text class="ac112b48-4f35-453a-84d2-757eda27fb6c" transform="translate(268.85 71.23)">444</text><path class="a67a3e14-600c-4c35-8069-d47d2553b702" d="M240.73,21.67v6.44l2,1.95h24.49L280,42.9"/><path class="e142b6c3-2cb7-445c-9101-dd74f32bc31e" d="M280,45.09a2.19,2.19,0,1,1,2.19-2.19A2.19,2.19,0,0,1,280,45.09Z"/><path class="ec7ae9a6-2c55-4d9d-b692-a6a684ea7233" d="M280,41.21a1.69,1.69,0,1,1-1.69,1.69A1.69,1.69,0,0,1,280,41.21m0-1a2.69,2.69,0,1,0,2.69,2.69A2.69,2.69,0,0,0,280,40.21Z"/><path class="ec7ae9a6-2c55-4d9d-b692-a6a684ea7233" d="M280,44a1,1,0,1,1,1.05-1.05A1,1,0,0,1,280,44Z"/><path class="e142b6c3-2cb7-445c-9101-dd74f32bc31e" d="M280,42.35a.54.54,0,0,1,.55.55.55.55,0,0,1-.55.55.55.55,0,0,1-.55-.55.55.55,0,0,1,.55-.55m0-1a1.55,1.55,0,1,0,1.55,1.55A1.55,1.55,0,0,0,280,41.35Z"/><circle class="ada787bc-c0c1-40de-bb58-65b894ad0c7a" cx="240.78" cy="21.36" r="1.4"/><path class="ec7ae9a6-2c55-4d9d-b692-a6a684ea7233" d="M240.78,20.46a.9.9,0,1,1-.9.9.9.9,0,0,1,.9-.9m0-1a1.9,1.9,0,1,0,1.91,1.9,1.9,1.9,0,0,0-1.91-1.9Z"/><text class="af96c18d-5f31-43d7-a355-d3424146cfdf" transform="translate(23.57 94.54)"><tspan xml:space="preserve">Пирамида происшествий  </tspan><tspan x="0" y="8.83">в соответствии с КТ-055</tspan></text><path class="a67a3e14-600c-4c35-8069-d47d2553b702" d="M9.57,31.22l-3.3,3.3V89.9l3.3,3.3H19.76"/><circle class="e142b6c3-2cb7-445c-9101-dd74f32bc31e" cx="10.68" cy="30.14" r="3.24"/><path class="ec7ae9a6-2c55-4d9d-b692-a6a684ea7233" d="M10.68,27.41A2.74,2.74,0,1,1,8,30.14a2.74,2.74,0,0,1,2.73-2.73m0-1a3.74,3.74,0,1,0,3.74,3.73,3.73,3.73,0,0,0-3.74-3.73Z"/><path class="ec7ae9a6-2c55-4d9d-b692-a6a684ea7233" d="M10.68,31.79a1.65,1.65,0,1,1,1.66-1.65A1.65,1.65,0,0,1,10.68,31.79Z"/><path class="e142b6c3-2cb7-445c-9101-dd74f32bc31e" d="M10.68,29a1.15,1.15,0,1,1-1.15,1.15A1.16,1.16,0,0,1,10.68,29m0-1a2.15,2.15,0,1,0,2.16,2.15A2.15,2.15,0,0,0,10.68,28Z"/><path class="ada787bc-c0c1-40de-bb58-65b894ad0c7a" d="M19.76,94.35a1.15,1.15,0,1,1,1.15-1.15A1.15,1.15,0,0,1,19.76,94.35Z"/><path class="e63cd223-0aef-4f15-8da7-54294d1d3679" d="M19.76,92.55a.66.66,0,0,1,.65.65.66.66,0,0,1-.65.65.65.65,0,1,1,0-1.3m0-1a1.65,1.65,0,1,0,1.65,1.65,1.65,1.65,0,0,0-1.65-1.65Z"/><g class="f228255f-5b23-471a-99bf-9cdc354f0ab7"><polygon class="a1c8260a-53f8-47c8-8a3a-ba5aee7f98dd" points="36.64 36.62 2.29 36.62 13.42 20.13 36.64 20.13 36.64 36.62"/><polygon class="a1c8260a-53f8-47c8-8a3a-ba5aee7f98dd" points="36.64 59.67 -11.54 59.67 -0.41 43.19 36.64 43.19 36.64 59.67"/><polygon class="a1c8260a-53f8-47c8-8a3a-ba5aee7f98dd" points="36.64 82.73 -25.86 82.73 -14.73 66.25 36.64 66.25 36.64 82.73"/><polygon class="fd85e699-2529-4bc7-89a1-07dbd23977d3" points="81.48 66.25 36.64 66.25 36.64 82.73 91.92 82.73 81.48 66.25"/><polygon class="fd85e699-2529-4bc7-89a1-07dbd23977d3" points="66.87 43.19 36.64 43.19 36.64 59.67 77.32 59.67 66.87 43.19"/><polygon class="fd85e699-2529-4bc7-89a1-07dbd23977d3" points="52.26 20.13 36.64 20.13 36.64 36.62 62.71 36.62 52.26 20.13"/></g></g><g id="e9877d12-f715-4d7f-b653-16c06496d2c0" data-name="Prew"><g class="bfddb685-2fce-4f7c-bedc-b8145fef81f2"><g class="b02b7b0e-0747-4879-8085-4ede5b8ebe97"><text class="be7a5c2c-29b4-4545-82cd-0947f79d4f2f" transform="translate(94.48 35.87)">Границы АО “Газпромнефть-МНПЗ”</text><path class="b423040d-68a9-46e0-a0a3-000e37dd5891" d="M89.48,32.86v4.72L91,39.12H181.5l11.7-11.75"/><path class="e142b6c3-2cb7-445c-9101-dd74f32bc31e" d="M193.2,29.8a2.21,2.21,0,1,1,2.2-2.21A2.21,2.21,0,0,1,193.2,29.8Z"/><path class="ad8d39eb-6103-446a-94dc-c2c3cef47701" d="M193.2,25.5a2.09,2.09,0,1,1-2.08,2.09,2.08,2.08,0,0,1,2.08-2.09m0-.25a2.34,2.34,0,1,0,2.32,2.34,2.34,2.34,0,0,0-2.32-2.34Z"/><path class="b3d25859-3e81-4a56-90e5-50beefcd304b" d="M193.2,28.81a1.22,1.22,0,0,1,0-2.44,1.22,1.22,0,0,1,0,2.44Z"/><path class="ad8d39eb-6103-446a-94dc-c2c3cef47701" d="M193.2,26.49a1.1,1.1,0,1,1-1.09,1.1,1.09,1.09,0,0,1,1.09-1.1m0-.25a1.35,1.35,0,1,0,1.34,1.35,1.34,1.34,0,0,0-1.34-1.35Z"/><path class="e142b6c3-2cb7-445c-9101-dd74f32bc31e" d="M89.48,33.54a.83.83,0,1,1,.82-.82A.82.82,0,0,1,89.48,33.54Z"/><path class="ad8d39eb-6103-446a-94dc-c2c3cef47701" d="M89.48,32a.71.71,0,1,1-.7.71.71.71,0,0,1,.7-.71m0-.25a1,1,0,1,0,1,1,1,1,0,0,0-1-1Z"/><g class="e5c77371-10b0-4f49-bd9c-b3aef7958f08"><g class="f2f96830-c364-407a-a368-63fef3504f6c"><polyline class="a69c65d3-3d08-4ffd-90bb-b3ab58135d0d" points="293.94 9.11 276.76 -0.8 253.05 12.96 254.44 13.77 286.75 13.28 293.94 9.11"/><path class="ecfa0fb3-9225-449f-b91e-e216a534eb34" d="M252.87,13,276.76-.9l17.36,10-7.31,4.24-32.41.49L252.87,13m41.42-3.85L276.84-.95,276.76-1l-24,13.91-.09.05,1.66.95,32.46-.49h.05l7.43-4.31"/><path class="f0d9b8d4-bd96-4148-88b0-cc903d844f9b" d="M253.05,13,276.76-.8l17.18,9.91-7.19,4.17-32.31.49L253.05,13m41.07-3.85L276.76-.9,252.87,13l1.53.88,32.41-.49,7.31-4.24"/><polyline class="a69c65d3-3d08-4ffd-90bb-b3ab58135d0d" points="275.79 -1.36 252.82 -14.6 236.87 -5.35 259.85 7.89 275.79 -1.36"/><path class="ecfa0fb3-9225-449f-b91e-e216a534eb34" d="M236.7-5.35l16.11-9.35L276-1.36,259.84,8,236.7-5.35m39.44,4L252.9-14.75l-.09-.05-16.2,9.4-.09.05L259.75,8l.09.06,16.21-9.41.09-.05"/><path class="f0d9b8d4-bd96-4148-88b0-cc903d844f9b" d="M236.87-5.35l15.95-9.25,23,13.24L259.85,7.89l-23-13.24m39.09,4L252.81-14.7,236.7-5.35,259.84,8,276-1.36"/><polyline class="a69c65d3-3d08-4ffd-90bb-b3ab58135d0d" points="258.02 8.94 235.43 -4.09 206.89 12.47 209.07 13.73 250.14 13.52 258.02 8.94"/><path class="ecfa0fb3-9225-449f-b91e-e216a534eb34" d="M206.71,12.47,235.42-4.19,258.2,8.94l-8,4.65L209,13.8l-2.31-1.33m51.67-3.53L235.51-4.24l-.09,0-28.8,16.71-.08.05L209,13.88l41.22-.21h.05l8.14-4.73"/><path class="f0d9b8d4-bd96-4148-88b0-cc903d844f9b" d="M206.89,12.47,235.43-4.09l22.6,13-7.89,4.58-41.06.21-2.19-1.26M258.2,8.94,235.42-4.19,206.71,12.47,209,13.8l41.17-.21,8-4.65"/><polyline class="a69c65d3-3d08-4ffd-90bb-b3ab58135d0d" points="183.27 -13.57 160.16 -26.89 135.31 -12.47 158.42 0.85 183.27 -13.57"/><path class="ecfa0fb3-9225-449f-b91e-e216a534eb34" d="M135.13-12.47l25-14.52,23.29,13.42L158.42,1,135.13-12.47m48.5-1.1L160.24-27l-.08-.05L135-12.52l-.09,0L158.33,1l.09.06,25.12-14.58.09-.05"/><path class="f0d9b8d4-bd96-4148-88b0-cc903d844f9b" d="M135.31-12.47l24.85-14.42,23.11,13.32L158.42.85,135.31-12.47m48.14-1.1L160.16-27l-25,14.52L158.42,1l25-14.53"/><polyline class="a69c65d3-3d08-4ffd-90bb-b3ab58135d0d" points="174.35 11.58 133.78 -11.81 124.35 -6.33 164.92 17.06 174.35 11.58"/><path class="ecfa0fb3-9225-449f-b91e-e216a534eb34" d="M124.17-6.33l9.61-5.58,40.75,23.49-9.61,5.58L124.17-6.33m50.54,17.91L133.87-12l-.09,0L124-6.33l40.84,23.54.09.05,9.79-5.68"/><path class="f0d9b8d4-bd96-4148-88b0-cc903d844f9b" d="M124.35-6.33l9.43-5.48,40.57,23.39-9.43,5.48L124.35-6.33m50.18,17.91L133.78-11.91l-9.61,5.58,40.75,23.49,9.61-5.58"/><polyline class="a69c65d3-3d08-4ffd-90bb-b3ab58135d0d" points="216.14 5.38 184.44 -12.89 159.59 1.53 191.29 19.8 216.14 5.38"/><path class="ecfa0fb3-9225-449f-b91e-e216a534eb34" d="M159.41,1.52l25-14.52L216.32,5.38l-25,14.53L159.41,1.52M216.5,5.38,184.53-13l-.09,0L159.32,1.47l-.09.05L191.2,20l.09.05L216.41,5.43l.09,0"/><path class="f0d9b8d4-bd96-4148-88b0-cc903d844f9b" d="M159.58,1.53l24.86-14.42,31.7,18.27L191.29,19.8,159.58,1.53m56.74,3.85L184.44-13l-25,14.52,31.88,18.39,25-14.53"/><polyline class="a69c65d3-3d08-4ffd-90bb-b3ab58135d0d" points="234.1 -4.88 202.4 -23.16 185.43 -13.32 217.14 4.96 234.1 -4.88"/><path class="ecfa0fb3-9225-449f-b91e-e216a534eb34" d="M185.26-13.32l17.15-9.94L234.28-4.88,217.14,5.06,185.26-13.32m49.2,8.44-32-18.43-.09-.05-17.23,10-.09.06,32,18.42.09.06,17.23-10,.09,0"/><path class="f0d9b8d4-bd96-4148-88b0-cc903d844f9b" d="M185.43-13.32l17-9.84L234.1-4.88,217.14,5,185.43-13.32m48.85,8.44L202.41-23.26l-17.15,9.94L217.14,5.06l17.14-9.94"/></g></g></g></g></g></svg>