<svg width="324" height="117" viewBox="0 0 324 117" fill="none" xmlns="http://www.w3.org/2000/svg">
<mask id="mask0" mask-type="alpha" maskUnits="userSpaceOnUse" x="67" y="8" width="178" height="100">
<rect x="67" y="8" width="178" height="99.9097" rx="2" fill="#1C1F2B"/>
</mask>
<g mask="url(#mask0)">
<circle cx="156" cy="59.3903" r="51.6774" stroke="#272A38"/>
<circle cx="156" cy="59.3904" r="60.2903" stroke="#272A38"/>
<circle cx="156" cy="59.39" r="68.9032" stroke="#272A38"/>
<circle cx="156" cy="59.3902" r="77.5161" stroke="#272A38"/>
<circle cx="156" cy="59.3903" r="86.129" stroke="#272A38"/>
</g>
<circle cx="156" cy="59.5012" r="42.6663" transform="rotate(0.977341 156 59.5012)" fill="#12151E" fill-opacity="0.5" stroke="#606580" stroke-opacity="0.25"/>
<path fill-rule="evenodd" clip-rule="evenodd" d="M156.156 24.3902C157.293 24.4053 158.439 24.4765 159.591 24.606C160.744 24.7355 161.877 24.9204 162.989 25.1579L162.089 29.3693C161.116 29.1613 160.122 28.9992 159.11 28.8855C158.099 28.7719 157.094 28.7095 156.099 28.6962L156.156 24.3902ZM148.455 25.1567C150.672 24.679 152.961 24.4165 155.293 24.3894L155.343 28.6956C153.302 28.7192 151.3 28.949 149.361 29.3666L148.455 25.1567ZM163.83 25.3486C166.099 25.8926 168.272 26.6564 170.328 27.6143L168.51 31.518C166.712 30.6806 164.811 30.0124 162.826 29.5363L163.83 25.3486ZM171.104 27.9876C173.179 29.0183 175.128 30.2487 176.929 31.6507L174.285 35.0492C172.708 33.8219 171.002 32.7457 169.188 31.8444L171.104 27.9876ZM141.122 27.6275C143.19 26.6602 145.363 25.8931 147.615 25.3486L148.628 29.5344C146.658 30.0105 144.757 30.6815 142.947 31.5282L141.122 27.6275ZM177.603 32.1883C179.385 33.6477 181.013 35.2788 182.465 37.053L179.132 39.7806C177.86 38.2262 176.434 36.7976 174.874 35.5198L177.603 32.1883ZM134.526 31.6668C136.336 30.2591 138.285 29.03 140.346 28.0024L142.268 31.8564C140.463 32.7561 138.756 33.8326 137.17 35.0659L134.526 31.6668ZM183.002 37.726C184.41 39.5356 185.639 41.4851 186.666 43.5463L182.812 45.4678C181.913 43.6632 180.836 41.9556 179.603 40.3702L183.002 37.726ZM128.988 37.0659C130.448 35.2842 132.079 33.6559 133.853 32.2039L136.581 35.5364C135.026 36.8086 133.598 38.2348 132.32 39.7947L128.988 37.0659ZM187.041 44.3221C188.008 46.3898 188.776 48.5635 189.32 50.8154L185.134 51.8276C184.658 49.8585 183.987 47.9569 183.14 46.147L187.041 44.3221ZM124.788 43.5649C125.818 41.4899 127.049 39.5406 128.451 37.7392L131.849 40.3842C130.622 41.961 129.546 43.6663 128.644 45.4807L124.788 43.5649ZM189.512 51.6547C189.99 53.8724 190.252 56.1607 190.279 58.4931L185.973 58.5431C185.949 56.5016 185.72 54.5003 185.302 52.5615L189.512 51.6547ZM122.149 50.8383C122.693 48.57 123.456 46.3971 124.414 44.3406L128.318 46.159C127.481 47.9569 126.812 49.8572 126.336 51.8426L122.149 50.8383ZM121.406 55.0774C121.535 53.925 121.72 52.7916 121.958 51.6797L126.169 52.5794C125.961 53.5531 125.799 54.5467 125.686 55.5582C125.572 56.5697 125.509 57.5746 125.496 58.5702L121.19 58.5128C121.205 57.3759 121.277 56.2298 121.406 55.0774ZM190.279 59.3559C190.263 60.4928 190.192 61.6389 190.063 62.7913C189.933 63.9437 189.748 65.0771 189.511 66.189L185.299 65.2894C185.507 64.3156 185.67 63.322 185.783 62.3105C185.897 61.299 185.959 60.2941 185.972 59.2985L190.279 59.3559ZM121.957 66.214C121.479 63.9963 121.216 61.708 121.189 59.3756L125.496 59.3256C125.519 61.3671 125.749 63.3684 126.167 65.3072L121.957 66.214ZM189.32 67.0304C188.776 69.2987 188.012 71.4716 187.054 73.5281L183.151 71.7097C183.988 69.9118 184.656 68.0115 185.132 66.0261L189.32 67.0304ZM186.681 74.3038C185.65 76.3788 184.42 78.3281 183.018 80.1295L179.62 77.4845C180.847 75.9077 181.923 74.2024 182.824 72.388L186.681 74.3038ZM124.428 73.5466C123.46 71.4789 122.693 69.3052 122.149 67.0533L126.334 66.0411C126.811 68.0102 127.482 69.9118 128.328 71.7217L124.428 73.5466ZM128.467 80.1427C127.059 78.3331 125.83 76.3836 124.802 74.3224L128.656 72.4009C129.556 74.2055 130.633 75.9131 131.866 77.4986L128.467 80.1427Z" fill="#0089FF"/>
<circle cx="156" cy="59.5015" r="14.2891" transform="rotate(0.977341 156 59.5015)" fill="#12151E" fill-opacity="0.5" stroke="#606580" stroke-opacity="0.25"/>
<path fill-rule="evenodd" clip-rule="evenodd" d="M156.479 31.4468C171.973 31.7111 184.319 44.4858 184.054 59.9799C184.001 63.1138 183.436 66.1189 182.44 68.9169L169.653 63.7308C170.043 62.4692 170.263 61.1319 170.287 59.7451C170.422 51.8546 164.134 45.3489 156.244 45.2143C156.244 45.2143 156.244 45.2143 156.244 45.2143L156.479 31.4468Z" fill="url(#paint0_linear)"/>
<path fill-rule="evenodd" clip-rule="evenodd" d="M169.499 64.2008L182.516 68.9943L169.864 62.9741C169.76 63.3907 169.638 63.7998 169.499 64.2008Z" fill="white"/>
<circle cx="156" cy="59.5013" r="12.9901" transform="rotate(0.977341 156 59.5013)" fill="#606580" fill-opacity="0.1" stroke="#606580" stroke-opacity="0.25"/>
<path fill-rule="evenodd" clip-rule="evenodd" d="M117.165 58.8387C117.531 37.3909 135.215 20.3006 156.663 20.6664C178.111 21.0323 195.201 38.7159 194.835 60.1637C194.726 66.5248 193.095 72.5026 190.293 77.7554L190.585 77.7604C193.367 72.5008 194.986 66.5246 195.095 60.1682C195.463 38.5768 178.258 20.775 156.667 20.4067C135.076 20.0383 117.274 37.243 116.906 58.8343C116.797 65.1907 118.212 71.2187 120.813 76.5701L121.105 76.5751C118.484 71.2298 117.057 65.1998 117.165 58.8387Z" fill="#606580" fill-opacity="0.25"/>
<path d="M134.061 83.9877L133.445 83.9772L132.19 82.2905L131.885 82.2853L131.856 83.9501L131.373 83.9418L131.435 80.3071L131.918 80.3153L131.89 81.9533C132.081 81.95 132.232 81.9046 132.344 81.817C132.458 81.7294 132.552 81.6024 132.624 81.4359C132.655 81.3632 132.682 81.2945 132.706 81.2298C132.732 81.1635 132.752 81.1077 132.768 81.0623C132.87 80.7857 132.998 80.5966 133.151 80.4951C133.304 80.3919 133.515 80.3426 133.783 80.3471L133.932 80.3497L133.925 80.7818L133.803 80.7797C133.604 80.7763 133.464 80.813 133.383 80.8897C133.302 80.9648 133.227 81.1092 133.156 81.3229C133.086 81.5366 133.008 81.6932 132.924 81.7927C132.839 81.8905 132.737 81.9767 132.619 82.0512L134.061 83.9877ZM136.46 84.0286L136.001 84.0208L136.041 81.6798L135.104 81.6638C135.097 81.7988 135.09 81.9289 135.083 82.0541C135.076 82.1777 135.069 82.2899 135.062 82.3907C135.048 82.6461 135.027 82.8598 135 83.0319C134.974 83.204 134.943 83.3418 134.905 83.4453C134.867 83.5521 134.826 83.6353 134.781 83.6947C134.738 83.7542 134.689 83.8079 134.634 83.8558C134.578 83.9037 134.518 83.9393 134.454 83.9626C134.39 83.986 134.318 83.9969 134.239 83.9956C134.213 83.9951 134.179 83.9938 134.139 83.9914C134.098 83.9891 134.07 83.9878 134.053 83.9875L134.06 83.5872L134.085 83.5876C134.096 83.5878 134.107 83.5888 134.119 83.5906C134.132 83.5925 134.146 83.5936 134.163 83.5938C134.202 83.5945 134.24 83.5895 134.278 83.5787C134.315 83.5679 134.349 83.5474 134.379 83.5169C134.461 83.4386 134.523 83.3005 134.564 83.1026C134.605 82.903 134.637 82.6244 134.659 82.2667C134.668 82.1333 134.676 81.9756 134.684 81.7934C134.694 81.6112 134.702 81.4372 134.71 81.2713L136.507 81.3019L136.46 84.0286ZM140.487 82.7348C140.479 83.1921 140.362 83.5441 140.137 83.791C139.913 84.0378 139.619 84.1582 139.256 84.152C138.9 84.1459 138.619 84.0239 138.413 83.786C138.209 83.5465 138.1 83.2231 138.088 82.8159L137.607 82.8077L137.585 84.0478L137.127 84.04L137.173 81.3133L137.632 81.3211L137.613 82.4318L138.104 82.4402C138.147 82.0698 138.276 81.7814 138.49 81.5751C138.703 81.3687 138.975 81.2684 139.305 81.274C139.688 81.2805 139.982 81.4158 140.187 81.6797C140.394 81.9437 140.494 82.2954 140.487 82.7348ZM140.013 82.7267C140.019 82.3784 139.959 82.1162 139.834 81.9398C139.71 81.7635 139.531 81.6734 139.299 81.6694C139.063 81.6654 138.879 81.7502 138.747 81.9237C138.617 82.0973 138.55 82.3566 138.544 82.7016C138.538 83.0434 138.598 83.304 138.723 83.4836C138.849 83.6616 139.029 83.7525 139.263 83.7565C139.496 83.7605 139.677 83.6781 139.807 83.5094C139.938 83.3391 140.007 83.0782 140.013 82.7267ZM142.985 84.1399L142.526 84.1321L142.544 83.0678C142.4 83.1125 142.261 83.1468 142.125 83.1705C141.99 83.1942 141.856 83.205 141.724 83.2027C141.608 83.2008 141.496 83.1842 141.385 83.153C141.277 83.1202 141.183 83.069 141.105 82.9993C141.026 82.9296 140.966 82.8414 140.924 82.7349C140.883 82.6268 140.864 82.5003 140.867 82.3555L140.883 81.3766L141.342 81.3844L141.33 82.1241C141.328 82.2445 141.331 82.3406 141.34 82.4124C141.348 82.4825 141.374 82.5513 141.417 82.6188C141.453 82.6764 141.508 82.7213 141.583 82.7535C141.659 82.7857 141.759 82.8029 141.882 82.805C141.99 82.8068 142.105 82.7982 142.227 82.7791C142.351 82.7601 142.459 82.7367 142.55 82.7089L142.573 81.4054L143.032 81.4133L142.985 84.1399ZM144.832 84.2349C144.397 84.2275 144.062 84.0997 143.825 83.8515C143.59 83.6016 143.476 83.2513 143.484 82.8006C143.492 82.3563 143.614 82.0051 143.851 81.7471C144.088 81.4874 144.395 81.3608 144.771 81.3672C144.94 81.3701 145.089 81.3971 145.219 81.4481C145.348 81.4992 145.461 81.5776 145.557 81.6834C145.653 81.7892 145.725 81.9183 145.775 82.0705C145.824 82.2211 145.847 82.4054 145.843 82.6235L145.839 82.8725L143.95 82.8403C143.944 83.1576 144.02 83.4014 144.177 83.5718C144.333 83.7421 144.552 83.8297 144.834 83.8345C144.935 83.8362 145.033 83.8265 145.13 83.8053C145.228 83.7842 145.316 83.7564 145.395 83.722C145.479 83.686 145.549 83.6513 145.607 83.6181C145.664 83.5833 145.712 83.5508 145.75 83.5205L145.777 83.5209L145.768 84.0213C145.714 84.0416 145.647 84.0673 145.567 84.0985C145.486 84.128 145.414 84.1512 145.351 84.1681C145.261 84.1909 145.179 84.2083 145.106 84.22C145.034 84.2318 144.943 84.2368 144.832 84.2349ZM145.398 82.5134C145.397 82.3896 145.384 82.2828 145.36 82.1928C145.335 82.1029 145.299 82.0266 145.252 81.9639C145.199 81.8946 145.131 81.8414 145.047 81.8041C144.964 81.7669 144.861 81.7472 144.738 81.7451C144.616 81.7431 144.511 81.76 144.424 81.7959C144.339 81.8303 144.261 81.8819 144.19 81.9507C144.12 82.0211 144.067 82.0999 144.029 82.1872C143.992 82.2729 143.968 82.3734 143.956 82.4887L145.398 82.5134ZM148.433 83.4075C148.431 83.5393 148.403 83.6561 148.351 83.7577C148.299 83.8578 148.229 83.9412 148.139 84.0081C148.027 84.0924 147.91 84.149 147.787 84.1779C147.666 84.2051 147.521 84.2173 147.352 84.2144L146.281 84.1961L146.327 81.4695L147.328 81.4865C147.528 81.49 147.674 81.499 147.767 81.5136C147.859 81.5265 147.951 81.559 148.041 81.611C148.136 81.6647 148.206 81.7351 148.25 81.8221C148.294 81.9092 148.315 82.0121 148.313 82.1309C148.311 82.2611 148.273 82.3776 148.2 82.4806C148.126 82.5819 148.03 82.66 147.91 82.7149L147.922 82.7322C148.069 82.7722 148.192 82.8499 148.289 82.9656C148.388 83.0812 148.436 83.2285 148.433 83.4075ZM147.841 82.1936C147.842 82.1318 147.832 82.0779 147.812 82.032C147.793 81.9861 147.759 81.9497 147.709 81.9228C147.651 81.8909 147.585 81.8718 147.512 81.8657C147.44 81.858 147.34 81.853 147.212 81.8508L146.775 81.8434L146.762 82.5903L147.289 82.5993C147.402 82.6012 147.481 82.5977 147.529 82.5888C147.576 82.5782 147.629 82.5563 147.686 82.5231C147.74 82.4914 147.779 82.4482 147.803 82.3932C147.827 82.3383 147.839 82.2718 147.841 82.1936ZM147.959 83.4019C147.961 83.3091 147.948 83.2348 147.922 83.179C147.897 83.1216 147.839 83.0702 147.748 83.0247C147.692 82.9961 147.631 82.9779 147.566 82.9703C147.501 82.9627 147.411 82.9579 147.295 82.9559L146.756 82.9467L146.741 83.8377L147.139 83.8445C147.303 83.8473 147.431 83.843 147.522 83.8315C147.614 83.82 147.692 83.7953 147.758 83.7574C147.827 83.7162 147.877 83.6683 147.909 83.6135C147.941 83.5587 147.958 83.4881 147.959 83.4019ZM151.169 82.917C151.161 83.3759 151.044 83.7288 150.819 83.9756C150.593 84.2209 150.296 84.3403 149.929 84.3341C149.549 84.3276 149.253 84.1939 149.039 83.9331C148.827 83.6706 148.725 83.3181 148.733 82.8755C148.74 82.4198 148.858 82.0677 149.085 81.8193C149.314 81.5709 149.612 81.4498 149.978 81.4561C150.345 81.4623 150.638 81.5935 150.855 81.8495C151.072 82.1039 151.177 82.4597 151.169 82.917ZM150.695 82.9089C150.701 82.5558 150.641 82.2927 150.516 82.1196C150.39 81.9449 150.209 81.8556 149.971 81.8515C149.732 81.8474 149.546 81.9305 149.412 82.1008C149.281 82.2695 149.212 82.5304 149.206 82.8835C149.2 83.2253 149.26 83.4859 149.386 83.6655C149.513 83.8435 149.696 83.9345 149.935 83.9386C150.171 83.9426 150.355 83.8595 150.487 83.6892C150.62 83.5173 150.689 83.2572 150.695 82.9089ZM153.77 84.3239L153.316 84.3161L153.35 82.2827L152.032 84.2942L151.617 84.2872L151.663 81.5605L152.117 81.5682L152.083 83.5699L153.387 81.5899L153.816 81.5972L153.77 84.3239ZM153.633 80.3268C153.63 80.4668 153.611 80.5942 153.575 80.7092C153.539 80.8225 153.488 80.9177 153.424 80.9947C153.349 81.0797 153.265 81.1434 153.171 81.1858C153.078 81.2265 152.959 81.2456 152.814 81.2432C152.68 81.2409 152.564 81.2169 152.463 81.1713C152.365 81.124 152.282 81.0583 152.215 80.9741C152.15 80.8916 152.101 80.7931 152.069 80.6786C152.037 80.5641 152.022 80.4377 152.024 80.2994L152.42 80.3061C152.416 80.5258 152.447 80.6851 152.514 80.7839C152.581 80.8811 152.682 80.9308 152.819 80.9332C152.948 80.9353 153.049 80.8899 153.122 80.7967C153.195 80.7019 153.233 80.543 153.237 80.3201L153.633 80.3268ZM158.149 84.3986L157.69 84.3908L157.73 82.0596L156.495 82.0385L156.455 84.3697L155.996 84.3619L156.042 81.6352L158.195 81.6719L158.149 84.3986ZM161.079 83.0861C161.072 83.545 160.955 83.8979 160.729 84.1447C160.504 84.3899 160.207 84.5094 159.839 84.5031C159.46 84.4967 159.164 84.363 158.95 84.1022C158.738 83.8397 158.636 83.4872 158.643 83.0445C158.651 82.5889 158.769 82.2368 158.996 81.9884C159.225 81.74 159.522 81.6189 159.888 81.6251C160.256 81.6314 160.549 81.7625 160.766 82.0186C160.983 82.273 161.087 82.6288 161.079 83.0861ZM160.606 83.078C160.612 82.7249 160.552 82.4618 160.426 82.2887C160.301 82.114 160.119 82.0246 159.882 82.0206C159.642 82.0165 159.456 82.0996 159.323 82.2699C159.192 82.4386 159.123 82.6995 159.117 83.0526C159.111 83.3943 159.171 83.655 159.296 83.8346C159.424 84.0126 159.607 84.1036 159.846 84.1077C160.082 84.1117 160.266 84.0286 160.397 83.8582C160.53 83.6863 160.6 83.4263 160.606 83.078ZM163.722 84.4937L163.151 84.4839L162.237 83.2108L162.008 83.2069L161.986 84.4641L161.527 84.4562L161.574 81.7296L162.033 81.7374L162.013 82.9238C162.131 82.9242 162.233 82.9015 162.316 82.8557C162.402 82.8083 162.475 82.716 162.536 82.5786C162.555 82.5382 162.575 82.4914 162.597 82.438C162.621 82.3847 162.639 82.3378 162.653 82.2974C162.728 82.0984 162.83 81.9585 162.958 81.8777C163.087 81.7969 163.252 81.7582 163.456 81.7617L163.58 81.7638L163.574 82.1593L163.469 82.1575C163.34 82.1553 163.243 82.1805 163.177 82.2331C163.112 82.2841 163.057 82.3792 163.011 82.5184C162.963 82.6592 162.907 82.7689 162.844 82.8476C162.781 82.9246 162.711 82.9837 162.636 83.0247L163.722 84.4937ZM165.552 83.8534L165.565 83.0967C165.456 83.1046 165.317 83.116 165.149 83.1311C164.983 83.1445 164.848 83.1658 164.745 83.195C164.622 83.2304 164.521 83.2864 164.439 83.3632C164.358 83.4383 164.317 83.545 164.314 83.6833C164.312 83.8396 164.354 83.9583 164.44 84.0395C164.527 84.1208 164.655 84.1628 164.824 84.1657C164.969 84.1682 165.1 84.1395 165.218 84.0797C165.337 84.0182 165.448 83.9428 165.552 83.8534ZM165.545 84.2342C165.507 84.2612 165.456 84.2994 165.392 84.3488C165.329 84.3966 165.268 84.4346 165.209 84.4629C165.127 84.5038 165.048 84.535 164.971 84.5565C164.896 84.578 164.79 84.5876 164.653 84.5852C164.541 84.5833 164.434 84.5604 164.334 84.5163C164.234 84.4723 164.146 84.4114 164.071 84.3336C163.999 84.2575 163.942 84.1645 163.9 84.0547C163.858 83.9433 163.838 83.8266 163.84 83.7046C163.844 83.5158 163.886 83.3562 163.968 83.2257C164.05 83.0936 164.178 82.99 164.352 82.9148C164.506 82.8475 164.687 82.8025 164.896 82.78C165.105 82.7559 165.33 82.7394 165.571 82.7305L165.573 82.6426C165.574 82.5352 165.56 82.4487 165.528 82.3831C165.497 82.3158 165.452 82.2637 165.394 82.2269C165.336 82.1885 165.265 82.1629 165.18 82.15C165.096 82.1356 165.009 82.1276 164.92 82.1261C164.814 82.1242 164.689 82.1384 164.545 82.1685C164.402 82.197 164.258 82.2401 164.113 82.2979L164.086 82.2974L164.094 81.8312C164.179 81.8082 164.301 81.7834 164.46 81.7568C164.618 81.7302 164.774 81.7182 164.929 81.7209C165.116 81.7241 165.274 81.7414 165.402 81.7729C165.53 81.8044 165.644 81.8592 165.746 81.9375C165.844 82.014 165.916 82.1121 165.963 82.2318C166.01 82.3514 166.032 82.4966 166.029 82.6675L165.997 84.5325L165.54 84.5247L165.545 84.2342ZM168.463 83.82C168.46 83.973 168.425 84.1018 168.356 84.2065C168.288 84.3111 168.201 84.3935 168.096 84.4535C167.995 84.512 167.882 84.5549 167.754 84.582C167.627 84.6091 167.499 84.6216 167.373 84.6194C167.194 84.6164 167.025 84.5956 166.866 84.5571C166.707 84.5202 166.549 84.4621 166.393 84.383L166.401 83.8752L166.431 83.8757C166.539 83.9801 166.676 84.0639 166.841 84.1269C167.008 84.1883 167.174 84.2205 167.34 84.2233C167.412 84.2245 167.488 84.2185 167.57 84.2053C167.653 84.1904 167.724 84.1672 167.781 84.1356C167.857 84.0913 167.911 84.0434 167.942 83.9918C167.976 83.9403 167.993 83.869 167.995 83.7779C167.997 83.6802 167.979 83.6018 167.943 83.5426C167.908 83.4817 167.859 83.4361 167.796 83.4058C167.733 83.3754 167.662 83.3563 167.582 83.3484C167.504 83.3389 167.421 83.3335 167.333 83.332L167.011 83.3265L167.018 82.931L167.265 82.9352C167.326 82.9363 167.404 82.936 167.497 82.9343C167.589 82.931 167.664 82.9192 167.719 82.899C167.79 82.8742 167.847 82.8385 167.89 82.792C167.933 82.7439 167.955 82.6629 167.957 82.549C167.959 82.4693 167.942 82.4047 167.907 82.3553C167.872 82.3058 167.828 82.2668 167.775 82.2382C167.72 82.208 167.66 82.1875 167.595 82.1766C167.53 82.1641 167.467 82.1573 167.407 82.1563C167.253 82.1536 167.103 82.1731 166.959 82.2146C166.817 82.2545 166.694 82.3159 166.59 82.3987L166.561 82.3982L166.569 81.9027C166.687 81.864 166.817 81.8304 166.959 81.8019C167.103 81.7734 167.246 81.7604 167.39 81.7629C167.505 81.7648 167.622 81.779 167.74 81.8055C167.86 81.8303 167.974 81.8721 168.08 81.9309C168.18 81.988 168.263 82.0659 168.33 82.1647C168.397 82.2619 168.429 82.3804 168.427 82.5204C168.424 82.6685 168.38 82.798 168.293 82.9088C168.208 83.018 168.096 83.0894 167.957 83.1228L167.957 83.1399C168.107 83.1946 168.23 83.2764 168.324 83.3855C168.42 83.4945 168.466 83.6394 168.463 83.82ZM170.468 83.9373L170.481 83.1805C170.372 83.1884 170.233 83.1999 170.065 83.215C169.899 83.2284 169.764 83.2497 169.661 83.2789C169.539 83.3142 169.437 83.3703 169.356 83.447C169.275 83.5222 169.233 83.6289 169.231 83.7672C169.228 83.9234 169.27 84.0422 169.356 84.1234C169.443 84.2046 169.571 84.2467 169.74 84.2496C169.885 84.2521 170.016 84.2234 170.135 84.1635C170.253 84.1021 170.364 84.0267 170.468 83.9373ZM170.462 84.3181C170.424 84.3451 170.373 84.3833 170.308 84.4327C170.246 84.4804 170.185 84.5185 170.126 84.5467C170.044 84.5877 169.964 84.6189 169.887 84.6404C169.812 84.6619 169.706 84.6714 169.569 84.6691C169.457 84.6672 169.351 84.6442 169.251 84.6002C169.15 84.5562 169.063 84.4952 168.988 84.4175C168.916 84.3413 168.859 84.2484 168.817 84.1386C168.774 84.0272 168.754 83.9105 168.757 83.7884C168.76 83.5996 168.802 83.44 168.884 83.3096C168.966 83.1775 169.094 83.0739 169.268 82.9987C169.422 82.9313 169.604 82.8864 169.813 82.8639C170.021 82.8398 170.246 82.8233 170.487 82.8144L170.489 82.7265C170.491 82.6191 170.476 82.5326 170.444 82.4669C170.413 82.3996 170.368 82.3476 170.31 82.3108C170.252 82.2724 170.181 82.2467 170.097 82.2339C170.012 82.2194 169.925 82.2114 169.836 82.2099C169.73 82.2081 169.605 82.2223 169.462 82.2524C169.318 82.2808 169.174 82.324 169.03 82.3817L169.003 82.3813L169.011 81.915C169.096 81.8921 169.217 81.8673 169.376 81.8407C169.534 81.8141 169.691 81.8021 169.845 81.8047C170.032 81.8079 170.19 81.8253 170.318 81.8568C170.446 81.8883 170.561 81.9431 170.662 82.0213C170.76 82.0979 170.832 82.196 170.879 82.3156C170.926 82.4353 170.948 82.5805 170.945 82.7514L170.913 84.6163L170.457 84.6086L170.462 84.3181ZM173.592 82.3375L172.664 82.3217L172.624 84.6455L172.165 84.6377L172.205 82.3138L171.277 82.298L171.284 81.8952L173.598 81.9347L173.592 82.3375ZM175.077 84.7509C174.642 84.7434 174.306 84.6156 174.07 84.3674C173.835 84.1176 173.721 83.7673 173.729 83.3165C173.736 82.8723 173.859 82.5211 174.096 82.2631C174.333 82.0034 174.64 81.8768 175.016 81.8832C175.185 81.8861 175.334 81.913 175.463 81.9641C175.593 82.0151 175.705 82.0936 175.801 82.1994C175.897 82.3052 175.97 82.4342 176.019 82.5864C176.069 82.7371 176.092 82.9214 176.088 83.1395L176.084 83.3884L174.194 83.3562C174.189 83.6735 174.265 83.9174 174.421 84.0877C174.578 84.2581 174.797 84.3456 175.078 84.3504C175.179 84.3522 175.278 84.3424 175.374 84.3213C175.472 84.3002 175.561 84.2724 175.64 84.2379C175.723 84.2019 175.794 84.1673 175.851 84.1341C175.909 84.0993 175.957 84.0667 175.995 84.0364L176.021 84.0369L176.013 84.5373C175.959 84.5575 175.892 84.5833 175.811 84.6144C175.731 84.644 175.659 84.6672 175.595 84.684C175.505 84.7069 175.424 84.7242 175.35 84.736C175.278 84.7478 175.187 84.7527 175.077 84.7509ZM175.643 83.0293C175.642 82.9056 175.629 82.7987 175.605 82.7088C175.58 82.6188 175.544 82.5425 175.496 82.4798C175.444 82.4106 175.375 82.3573 175.291 82.3201C175.209 82.2829 175.106 82.2632 174.982 82.2611C174.86 82.259 174.756 82.2759 174.669 82.3119C174.584 82.3463 174.505 82.3978 174.434 82.4666C174.365 82.5371 174.311 82.6159 174.274 82.7032C174.237 82.7888 174.212 82.8893 174.2 83.0047L175.643 83.0293ZM178.637 84.7481L178.178 84.7403L178.218 82.3993L177.28 82.3833C177.273 82.5183 177.266 82.6484 177.259 82.7736C177.252 82.8972 177.245 83.0094 177.239 83.1102C177.224 83.3656 177.204 83.5793 177.176 83.7514C177.151 83.9235 177.119 84.0613 177.081 84.1648C177.044 84.2716 177.002 84.3548 176.958 84.4142C176.914 84.4737 176.865 84.5274 176.811 84.5753C176.755 84.6232 176.695 84.6588 176.631 84.6821C176.567 84.7055 176.495 84.7164 176.415 84.7151C176.389 84.7146 176.356 84.7133 176.315 84.7109C176.275 84.7086 176.246 84.7073 176.23 84.707L176.237 84.3067L176.261 84.3071C176.272 84.3073 176.284 84.3083 176.295 84.3101C176.308 84.312 176.323 84.3131 176.339 84.3133C176.378 84.314 176.416 84.309 176.454 84.2982C176.492 84.2875 176.525 84.2669 176.555 84.2365C176.638 84.1581 176.7 84.02 176.741 83.8221C176.781 83.6225 176.813 83.3439 176.835 82.9862C176.844 82.8528 176.853 82.6951 176.861 82.5129C176.87 82.3307 176.879 82.1567 176.887 81.9908L178.683 82.0214L178.637 84.7481ZM181.383 83.9501C181.38 84.0819 181.351 84.2011 181.296 84.3076C181.242 84.4141 181.169 84.4999 181.077 84.5651C180.968 84.6446 180.852 84.7004 180.729 84.7325C180.607 84.7646 180.45 84.779 180.258 84.7758L179.303 84.7595L179.35 82.0328L179.808 82.0406L179.79 83.1025L180.298 83.1112C180.503 83.1147 180.662 83.1279 180.774 83.151C180.887 83.1741 180.999 83.2281 181.11 83.313C181.203 83.3846 181.273 83.4753 181.318 83.5852C181.363 83.695 181.385 83.8167 181.383 83.9501ZM180.909 83.9493C180.91 83.8663 180.897 83.7937 180.869 83.7313C180.842 83.6674 180.797 83.6153 180.732 83.5752C180.664 83.5333 180.587 83.5076 180.499 83.4979C180.413 83.4883 180.289 83.4821 180.126 83.4794L179.784 83.4735L179.768 84.4011L180.1 84.4068C180.263 84.4096 180.389 84.4052 180.479 84.3937C180.569 84.3806 180.646 84.3551 180.712 84.3171C180.78 84.276 180.828 84.2271 180.859 84.1707C180.891 84.1126 180.907 84.0388 180.909 83.9493ZM138.331 89.4363L138.36 89.4368C138.396 89.4683 138.439 89.5016 138.491 89.5367C138.544 89.5701 138.606 89.6021 138.677 89.6326C138.754 89.6665 138.829 89.693 138.9 89.7122C138.971 89.7313 139.059 89.7417 139.163 89.7435C139.398 89.7475 139.587 89.6718 139.731 89.5163C139.876 89.3609 139.961 89.1336 139.987 88.8346L138.747 88.8134L138.753 88.4448L139.991 88.4659C139.966 88.2067 139.884 88.0116 139.745 87.8806C139.607 87.7496 139.434 87.6824 139.225 87.6788C139.133 87.6772 139.046 87.6864 138.966 87.7062C138.886 87.7243 138.808 87.7499 138.733 87.7827C138.671 87.811 138.615 87.8418 138.565 87.8751C138.517 87.9085 138.471 87.9427 138.427 87.9778L138.397 87.9773L138.406 87.4744C138.493 87.4384 138.615 87.3974 138.772 87.3512C138.931 87.3051 139.081 87.2832 139.222 87.2857C139.406 87.2888 139.574 87.3193 139.726 87.3773C139.878 87.4352 140.009 87.5221 140.117 87.6379C140.228 87.757 140.311 87.9008 140.366 88.0694C140.424 88.2365 140.45 88.4396 140.446 88.6788C140.439 89.1345 140.315 89.4929 140.076 89.7542C139.839 90.0155 139.522 90.1427 139.125 90.136C138.977 90.1334 138.832 90.1114 138.691 90.07C138.552 90.0302 138.429 89.9865 138.323 89.9391L138.331 89.4363ZM144.247 88.7266C144.243 88.969 144.209 89.1833 144.146 89.3695C144.084 89.554 144.004 89.7056 143.904 89.8244C143.803 89.9447 143.689 90.0356 143.562 90.0969C143.436 90.1566 143.304 90.1853 143.168 90.183C143.065 90.1812 142.975 90.1601 142.898 90.1198C142.822 90.0794 142.757 90.0449 142.704 90.0163L142.685 91.1417L142.231 91.1339L142.25 90.0086C142.153 90.0574 142.076 90.0952 142.019 90.1218C141.961 90.1485 141.867 90.1608 141.737 90.1586C141.431 90.1533 141.188 90.0255 141.009 89.775C140.829 89.5229 140.743 89.1804 140.75 88.7475C140.754 88.5196 140.787 88.3167 140.849 88.1387C140.91 87.9607 140.993 87.8099 141.098 87.6864C141.195 87.5724 141.305 87.4848 141.43 87.4234C141.556 87.3605 141.687 87.3301 141.822 87.3324C141.918 87.3341 142.004 87.3526 142.08 87.3881C142.158 87.422 142.228 87.4607 142.293 87.5041L142.313 86.3299L142.767 86.3377L142.747 87.5118C142.819 87.4691 142.902 87.4323 142.995 87.4013C143.089 87.3703 143.184 87.3557 143.282 87.3573C143.588 87.3626 143.827 87.4895 143.998 87.7383C144.171 87.9854 144.254 88.3148 144.247 88.7266ZM143.775 88.7698C143.781 88.459 143.732 88.2123 143.629 88.0299C143.528 87.8475 143.375 87.7545 143.17 87.751C143.085 87.7496 143.01 87.7597 142.945 87.7814C142.881 87.8014 142.813 87.8239 142.741 87.8487L142.71 89.6673C142.781 89.7027 142.838 89.7313 142.882 89.7532C142.927 89.7752 142.993 89.7869 143.079 89.7883C143.291 89.7919 143.458 89.7077 143.582 89.5356C143.705 89.3636 143.77 89.1083 143.775 88.7698ZM142.256 89.6595L142.287 87.8409C142.229 87.8123 142.171 87.7869 142.113 87.7647C142.054 87.7426 141.989 87.7309 141.918 87.7296C141.71 87.7261 141.543 87.8055 141.418 87.9677C141.293 88.13 141.228 88.3853 141.222 88.7335C141.217 89.0509 141.267 89.3016 141.373 89.4857C141.48 89.6699 141.637 89.7637 141.842 89.7672C141.923 89.7686 141.996 89.7576 142.062 89.7343C142.127 89.711 142.192 89.6861 142.256 89.6595ZM148.046 88.7914C148.042 89.0338 148.008 89.2481 147.944 89.4342C147.883 89.6188 147.802 89.7704 147.702 89.8892C147.601 90.0095 147.487 90.1004 147.361 90.1617C147.234 90.2214 147.103 90.2501 146.966 90.2478C146.863 90.246 146.773 90.2249 146.696 90.1845C146.62 90.1442 146.556 90.1097 146.502 90.0811L146.483 91.2065L146.029 91.1987L146.048 90.0734C145.952 90.1222 145.874 90.16 145.817 90.1866C145.76 90.2133 145.666 90.2256 145.536 90.2234C145.23 90.2181 144.987 90.0903 144.807 89.8398C144.627 89.5877 144.541 89.2452 144.549 88.8123C144.553 88.5844 144.585 88.3815 144.647 88.2035C144.709 88.0255 144.792 87.8747 144.896 87.7512C144.993 87.6372 145.103 87.5496 145.228 87.4882C145.355 87.4253 145.485 87.3949 145.62 87.3972C145.716 87.3989 145.802 87.4174 145.878 87.4529C145.956 87.4868 146.027 87.5254 146.091 87.5689L146.111 86.3947L146.565 86.4025L146.545 87.5766C146.618 87.5339 146.7 87.4971 146.794 87.4661C146.887 87.4351 146.982 87.4205 147.08 87.4221C147.386 87.4274 147.625 87.5543 147.796 87.8031C147.97 88.0502 148.053 88.3796 148.046 88.7914ZM147.574 88.8346C147.579 88.5238 147.53 88.2771 147.428 88.0947C147.326 87.9123 147.173 87.8193 146.968 87.8158C146.884 87.8144 146.809 87.8245 146.743 87.8461C146.679 87.8662 146.611 87.8887 146.539 87.9135L146.508 89.7321C146.579 89.7675 146.637 89.7961 146.68 89.818C146.725 89.84 146.791 89.8517 146.877 89.8531C147.089 89.8567 147.257 89.7725 147.38 89.6004C147.503 89.4284 147.568 89.1731 147.574 88.8346ZM146.054 89.7243L146.085 87.9057C146.027 87.8771 145.969 87.8517 145.911 87.8295C145.853 87.8074 145.788 87.7957 145.716 87.7944C145.508 87.7909 145.341 87.8703 145.216 88.0325C145.092 88.1948 145.026 88.4501 145.02 88.7983C145.015 89.1157 145.065 89.3664 145.171 89.5505C145.279 89.7347 145.435 89.8285 145.64 89.832C145.721 89.8334 145.795 89.8224 145.86 89.7991C145.926 89.7758 145.99 89.7509 146.054 89.7243ZM149.687 90.3186C149.253 90.3112 148.917 90.1834 148.681 89.9352C148.445 89.6853 148.332 89.335 148.34 88.8843C148.347 88.44 148.469 88.0888 148.707 87.8308C148.944 87.5711 149.25 87.4445 149.626 87.4509C149.796 87.4538 149.945 87.4808 150.074 87.5318C150.204 87.5829 150.316 87.6613 150.412 87.7671C150.508 87.8729 150.581 88.002 150.63 88.1542C150.68 88.3048 150.703 88.4891 150.699 88.7072L150.695 88.9562L148.805 88.924C148.8 89.2413 148.875 89.4851 149.032 89.6555C149.189 89.8258 149.408 89.9134 149.689 89.9182C149.79 89.9199 149.889 89.9102 149.985 89.889C150.083 89.8679 150.172 89.8401 150.25 89.8057C150.334 89.7697 150.405 89.735 150.462 89.7018C150.52 89.667 150.567 89.6345 150.605 89.6042L150.632 89.6046L150.624 90.105C150.57 90.1253 150.502 90.151 150.422 90.1822C150.342 90.2117 150.27 90.2349 150.206 90.2518C150.116 90.2746 150.035 90.292 149.961 90.3037C149.889 90.3155 149.798 90.3205 149.687 90.3186ZM150.254 88.5971C150.253 88.4733 150.24 88.3665 150.215 88.2765C150.191 88.1866 150.155 88.1103 150.107 88.0476C150.054 87.9783 149.986 87.9251 149.902 87.8878C149.82 87.8506 149.717 87.8309 149.593 87.8288C149.471 87.8268 149.367 87.8437 149.28 87.8797C149.194 87.914 149.116 87.9656 149.045 88.0344C148.975 88.1048 148.922 88.1837 148.885 88.2709C148.847 88.3566 148.823 88.4571 148.811 88.5724L150.254 88.5971ZM153.33 90.3173L152.759 90.3075L151.846 89.0344L151.616 89.0305L151.595 90.2877L151.136 90.2798L151.182 87.5532L151.641 87.561L151.621 88.7474C151.74 88.7478 151.841 88.7251 151.925 88.6793C152.011 88.6319 152.084 88.5396 152.145 88.4022C152.163 88.3618 152.184 88.315 152.206 88.2616C152.229 88.2083 152.248 88.1614 152.262 88.121C152.337 87.922 152.439 87.7822 152.567 87.7013C152.695 87.6205 152.861 87.5818 153.065 87.5853L153.189 87.5874L153.182 87.9829L153.077 87.9811C152.949 87.9789 152.851 88.0041 152.785 88.0567C152.721 88.1077 152.666 88.2028 152.619 88.342C152.571 88.4828 152.516 88.5925 152.453 88.6712C152.389 88.7483 152.32 88.8073 152.245 88.8483L153.33 90.3173ZM155.657 88.0324L154.73 88.0166L154.69 90.3405L154.231 90.3326L154.271 88.0087L153.343 87.9929L153.35 87.5902L155.664 87.6296L155.657 88.0324ZM158.112 90.3988L157.658 90.3911L157.693 88.3577L156.374 90.3692L155.959 90.3621L156.006 87.6355L156.46 87.6432L156.426 89.6449L157.729 87.6649L158.159 87.6722L158.112 90.3988ZM160.929 89.6216C160.927 89.7534 160.899 89.8701 160.847 89.9718C160.795 90.0718 160.724 90.1553 160.635 90.2221C160.523 90.3065 160.406 90.3631 160.283 90.3919C160.162 90.4192 160.017 90.4313 159.848 90.4285L158.776 90.4102L158.823 87.6835L159.824 87.7006C160.024 87.704 160.17 87.713 160.263 87.7276C160.355 87.7406 160.447 87.7731 160.537 87.8251C160.632 87.8788 160.702 87.9492 160.746 88.0362C160.79 88.1232 160.811 88.2261 160.809 88.3449C160.807 88.4751 160.769 88.5917 160.696 88.6946C160.622 88.7959 160.526 88.874 160.406 88.929L160.418 88.9463C160.565 88.9862 160.688 89.064 160.785 89.1796C160.884 89.2952 160.932 89.4426 160.929 89.6216ZM160.337 88.4077C160.338 88.3458 160.328 88.292 160.308 88.246C160.289 88.2001 160.255 88.1637 160.205 88.1368C160.147 88.1049 160.081 88.0859 160.008 88.0798C159.936 88.072 159.836 88.0671 159.708 88.0649L159.271 88.0574L159.258 88.8044L159.785 88.8134C159.898 88.8153 159.977 88.8118 160.025 88.8028C160.072 88.7922 160.125 88.7703 160.182 88.7371C160.236 88.7055 160.275 88.6622 160.299 88.6073C160.323 88.5523 160.335 88.4858 160.337 88.4077ZM160.455 89.6159C160.457 89.5232 160.444 89.4489 160.418 89.3931C160.392 89.3357 160.335 89.2842 160.244 89.2387C160.188 89.2101 160.127 89.192 160.062 89.1844C159.997 89.1767 159.907 89.1719 159.791 89.17L159.252 89.1608L159.237 90.0518L159.635 90.0585C159.799 90.0613 159.927 90.057 160.018 90.0456C160.11 90.0341 160.188 90.0094 160.254 89.9714C160.323 89.9303 160.373 89.8823 160.405 89.8275C160.437 89.7727 160.454 89.7022 160.455 89.6159ZM163.551 90.4916L163.092 90.4838L163.113 89.2559L161.878 89.2349L161.857 90.4627L161.398 90.4549L161.445 87.7282L161.904 87.7361L161.885 88.8394L163.12 88.8605L163.139 87.7571L163.598 87.765L163.551 90.4916ZM166.482 89.1791C166.474 89.638 166.357 89.9909 166.132 90.2377C165.906 90.483 165.609 90.6024 165.241 90.5962C164.862 90.5897 164.566 90.456 164.352 90.1952C164.14 89.9327 164.038 89.5802 164.045 89.1376C164.053 88.6819 164.171 88.3298 164.398 88.0814C164.627 87.833 164.924 87.7119 165.291 87.7182C165.658 87.7244 165.951 87.8556 166.168 88.1116C166.385 88.366 166.489 88.7218 166.482 89.1791ZM166.008 89.171C166.014 88.8179 165.954 88.5548 165.829 88.3817C165.703 88.207 165.521 88.1177 165.284 88.1136C165.045 88.1095 164.858 88.1926 164.725 88.3629C164.594 88.5316 164.525 88.7925 164.519 89.1456C164.513 89.4874 164.573 89.748 164.699 89.9276C164.826 90.1056 165.009 90.1966 165.248 90.2007C165.484 90.2047 165.668 90.1216 165.799 89.9513C165.933 89.7794 166.002 89.5193 166.008 89.171ZM168.012 90.6288C167.825 90.6256 167.654 90.5942 167.499 90.5345C167.343 90.4733 167.211 90.3831 167.1 90.264C166.99 90.145 166.906 89.9962 166.847 89.8178C166.788 89.6377 166.761 89.4272 166.765 89.1864C166.769 88.9472 166.804 88.741 166.871 88.568C166.939 88.395 167.027 88.25 167.137 88.133C167.246 88.016 167.381 87.9272 167.542 87.8664C167.704 87.8041 167.877 87.7745 168.061 87.7776C168.211 87.7802 168.354 87.8038 168.492 87.8485C168.631 87.8932 168.755 87.9441 168.863 88.0013L168.854 88.5164L168.827 88.5159C168.795 88.4877 168.753 88.4552 168.702 88.4185C168.652 88.3819 168.591 88.3442 168.518 88.3055C168.455 88.2719 168.381 88.2421 168.295 88.2163C168.209 88.1904 168.127 88.1768 168.047 88.1754C167.809 88.1713 167.617 88.2584 167.469 88.4366C167.322 88.6131 167.246 88.8658 167.241 89.1945C167.235 89.5167 167.3 89.7693 167.435 89.9523C167.572 90.1337 167.764 90.2265 168.012 90.2308C168.162 90.2333 168.304 90.2048 168.441 90.1453C168.577 90.0857 168.698 90.008 168.803 89.9122L168.83 89.9126L168.822 90.4277C168.776 90.4481 168.718 90.4731 168.649 90.5029C168.58 90.531 168.518 90.5519 168.463 90.5656C168.384 90.5871 168.314 90.603 168.252 90.6133C168.19 90.6253 168.11 90.6304 168.012 90.6288ZM171.27 88.2988L170.343 88.2829L170.303 90.6068L169.844 90.599L169.884 88.2751L168.956 88.2593L168.963 87.8565L171.277 87.896L171.27 88.2988ZM173.725 90.6652L173.271 90.6574L173.306 88.6241L171.987 90.6355L171.572 90.6285L171.619 87.9018L172.073 87.9096L172.039 89.9112L173.342 87.9312L173.772 87.9385L173.725 90.6652ZM147.941 96.2262L149.228 92.6124L149.824 92.6225L150.987 96.2782L150.477 96.2695L150.165 95.2484L148.776 95.2247L148.429 96.2345L147.941 96.2262ZM150.038 94.8335L149.505 93.1103L148.917 94.8144L150.038 94.8335ZM153.816 95.2105C153.813 95.3912 153.776 95.5501 153.705 95.6872C153.635 95.8244 153.541 95.9367 153.424 96.0243C153.285 96.1293 153.137 96.2033 152.98 96.2462C152.823 96.2875 152.621 96.306 152.374 96.3018L151.331 96.284L151.393 92.6493L152.358 92.6658C152.616 92.6702 152.81 92.6824 152.938 92.7025C153.068 92.721 153.192 92.763 153.31 92.8285C153.439 92.9007 153.532 92.9943 153.59 93.1092C153.649 93.2225 153.677 93.3557 153.674 93.5086C153.671 93.6795 153.623 93.8317 153.529 93.9652C153.438 94.0988 153.311 94.2024 153.151 94.2762L153.15 94.2957C153.366 94.358 153.531 94.4683 153.648 94.6265C153.764 94.7832 153.82 94.9778 153.816 95.2105ZM153.17 93.5684C153.171 93.4805 153.158 93.4046 153.13 93.3407C153.102 93.2751 153.055 93.223 152.991 93.1844C152.914 93.1392 152.827 93.1108 152.731 93.0994C152.635 93.088 152.503 93.0809 152.334 93.078L151.87 93.0701L151.852 94.1344L152.401 94.1438C152.552 94.1463 152.664 94.1409 152.736 94.1275C152.807 94.1124 152.882 94.0812 152.959 94.0336C153.033 93.9877 153.087 93.9267 153.119 93.8508C153.151 93.7748 153.168 93.6807 153.17 93.5684ZM153.313 95.2215C153.315 95.0848 153.297 94.9722 153.26 94.8836C153.222 94.7934 153.145 94.7164 153.027 94.6526C152.951 94.6106 152.868 94.5831 152.777 94.5702C152.688 94.5572 152.56 94.5494 152.394 94.5465L151.845 94.5372L151.822 95.8797L152.215 95.8864C152.426 95.8901 152.593 95.8831 152.716 95.8657C152.838 95.8482 152.946 95.8086 153.04 95.7467C153.132 95.6848 153.2 95.6143 153.244 95.5353C153.288 95.4546 153.311 95.35 153.313 95.2215ZM155.13 96.3488L155.184 93.1437L153.964 93.1229L153.971 92.6933L156.896 92.7432L156.888 93.1728L155.668 93.152L155.613 96.3571L155.13 96.3488ZM158.451 95.0357L157.074 95.0122L157.082 94.5703L158.458 94.5938L158.451 95.0357ZM160.971 96.4485L159.199 96.4183L159.205 96.0472L159.864 96.0585L159.906 93.6223L159.247 93.611L159.252 93.2791C159.501 93.2833 159.685 93.2514 159.803 93.1835C159.924 93.1139 159.993 92.9808 160.011 92.7841L160.389 92.7906L160.333 96.0664L160.977 96.0774L160.971 96.4485ZM163.934 94.6799C163.923 95.3325 163.819 95.8101 163.624 96.1128C163.43 96.4139 163.135 96.5611 162.74 96.5543C162.339 96.5475 162.048 96.3871 161.866 96.0731C161.684 95.7591 161.599 95.2831 161.61 94.6452C161.621 93.9893 161.724 93.5117 161.918 93.2122C162.113 92.9111 162.409 92.764 162.804 92.7707C163.204 92.7775 163.496 92.9396 163.677 93.2569C163.859 93.5741 163.945 94.0485 163.934 94.6799ZM163.29 95.7775C163.339 95.6579 163.375 95.5063 163.398 95.3227C163.421 95.1392 163.434 94.9221 163.438 94.6715C163.443 94.4225 163.436 94.2059 163.42 94.0216C163.404 93.8374 163.372 93.6839 163.325 93.561C163.279 93.4365 163.213 93.3417 163.128 93.2768C163.044 93.2103 162.934 93.1758 162.797 93.1735C162.662 93.1712 162.55 93.2018 162.461 93.2654C162.374 93.3274 162.304 93.4215 162.251 93.5475C162.2 93.6704 162.164 93.826 162.143 94.0145C162.122 94.203 162.109 94.416 162.105 94.6536C162.101 94.9075 162.105 95.12 162.117 95.2911C162.13 95.4622 162.161 95.6158 162.211 95.7518C162.256 95.8779 162.321 95.9758 162.406 96.0457C162.493 96.1139 162.607 96.1492 162.746 96.1516C162.882 96.1539 162.993 96.124 163.08 96.062C163.169 95.9984 163.239 95.9036 163.29 95.7775Z" fill="#D7E2F2"/>
<path d="M154.79 63.7581C154.777 64.4904 154.62 65.0315 154.317 65.3812C154.019 65.7277 153.591 65.8962 153.034 65.8867C152.468 65.877 152.041 65.6907 151.755 65.3277C151.471 64.9647 151.335 64.4236 151.348 63.7043C151.36 62.9752 151.517 62.4359 151.82 62.0861C152.122 61.7364 152.551 61.5663 153.108 61.5758C153.674 61.5855 154.099 61.7718 154.383 62.1347C154.666 62.4977 154.802 63.0388 154.79 63.7581ZM158.075 61.7973L154.143 69.0018L153.338 68.988L157.27 61.7836L158.075 61.7973ZM160.056 67.0857C160.043 67.8181 159.886 68.3591 159.584 68.7088C159.285 69.0553 158.857 69.2238 158.3 69.2143C157.734 69.2047 157.308 69.0183 157.021 68.6553C156.737 68.2923 156.602 67.7512 156.614 67.0319C156.626 66.3029 156.784 65.7635 157.086 65.4138C157.388 65.064 157.817 64.8939 158.374 64.9034C158.94 64.9131 159.365 65.0994 159.649 65.4624C159.932 65.8253 160.068 66.3665 160.056 67.0857ZM153.921 63.7433C153.929 63.2486 153.877 62.8733 153.764 62.6174C153.654 62.3616 153.432 62.2308 153.097 62.2251C152.761 62.2194 152.533 62.3441 152.411 62.5992C152.29 62.8544 152.225 63.2277 152.217 63.7191C152.208 64.2073 152.257 64.5809 152.364 64.84C152.47 65.099 152.697 65.2314 153.045 65.2374C153.381 65.2431 153.607 65.1184 153.726 64.8632C153.847 64.6081 153.912 64.2348 153.921 63.7433ZM159.187 67.0709C159.195 66.5762 159.143 66.2009 159.03 65.945C158.921 65.6892 158.698 65.5585 158.363 65.5527C158.028 65.547 157.799 65.6717 157.678 65.9269C157.556 66.182 157.491 66.5553 157.483 67.0467C157.475 67.5349 157.524 67.9086 157.63 68.1676C157.736 68.4266 157.963 68.5591 158.312 68.565C158.647 68.5707 158.874 68.446 158.992 68.1908C159.113 67.9357 159.178 67.5624 159.187 67.0709Z" fill="#8C99B2"/>
<path d="M150.317 54.8231C150.325 54.3284 150.287 53.9257 150.201 53.6149C150.115 53.3009 149.994 53.0579 149.837 52.8859C149.697 52.7273 149.554 52.6174 149.408 52.5563C149.263 52.4952 149.102 52.4632 148.926 52.4602C148.526 52.4534 148.205 52.5911 147.962 52.8735C147.72 53.1559 147.594 53.5688 147.585 54.1123C147.579 54.4183 147.614 54.6712 147.689 54.8711C147.764 55.0709 147.888 55.244 148.061 55.3902C148.183 55.4932 148.322 55.5639 148.477 55.6024C148.633 55.6376 148.8 55.6567 148.979 55.6598C149.188 55.6633 149.413 55.6314 149.655 55.5639C149.897 55.4931 150.109 55.3991 150.29 55.2817C150.294 55.2329 150.298 55.1695 150.303 55.0915C150.311 55.0102 150.315 54.9208 150.317 54.8231ZM146.593 54.1345C146.599 53.7602 146.665 53.4195 146.791 53.1123C146.92 52.8052 147.092 52.5412 147.307 52.3202C147.513 52.1089 147.762 51.9455 148.053 51.83C148.348 51.7145 148.645 51.6594 148.945 51.6645C149.28 51.6702 149.582 51.7323 149.85 51.8509C150.122 51.9662 150.355 52.1313 150.55 52.3463C150.796 52.6174 150.983 52.9706 151.113 53.4058C151.245 53.8411 151.306 54.3891 151.295 55.0498C151.284 55.6519 151.206 56.222 151.06 56.7599C150.918 57.2947 150.712 57.7372 150.442 58.0874C150.156 58.4602 149.814 58.7425 149.417 58.9343C149.023 59.1262 148.538 59.2172 147.962 59.2074C147.831 59.2052 147.693 59.1947 147.547 59.1759C147.401 59.1604 147.265 59.132 147.138 59.0908L147.154 58.1583L147.203 58.1592C147.284 58.2061 147.41 58.2522 147.582 58.2975C147.753 58.3427 147.929 58.3669 148.108 58.3699C148.746 58.3808 149.25 58.1794 149.622 57.7658C149.994 57.3522 150.211 56.7552 150.273 55.9749C150.01 56.1462 149.758 56.2705 149.519 56.3478C149.284 56.4252 149.027 56.4615 148.751 56.4568C148.481 56.4522 148.235 56.4187 148.015 56.3563C147.795 56.294 147.574 56.1763 147.352 56.0032C147.095 55.8002 146.902 55.5462 146.774 55.2413C146.646 54.933 146.585 54.5641 146.593 54.1345ZM156.843 53.0347L153.593 59.1619L152.553 59.1441L155.992 52.7858L152.233 52.7217L152.248 51.8673L156.861 51.946L156.843 53.0347ZM159.193 59.2574L158.026 59.2375L158.05 57.8461L159.217 57.866L159.193 59.2574ZM164.773 59.3526L161.229 59.2921L161.241 58.55L162.559 58.5725L162.643 53.7002L161.324 53.6777L161.336 53.0137C161.834 53.0222 162.201 52.9585 162.438 52.8225C162.678 52.6834 162.816 52.4171 162.852 52.0238L163.609 52.0367L163.497 58.5885L164.786 58.6105L164.773 59.3526Z" fill="#D7E2F2"/>
<path d="M267 14C267 12.8954 267.895 12 269 12H296V23H269C267.895 23 267 22.1046 267 21V14Z" fill="#606580" fill-opacity="0.25"/>
<path d="M274.176 20.0762C273.654 20.0762 273.249 19.9297 272.96 19.6367C272.673 19.3418 272.529 18.9238 272.529 18.3828C272.529 17.8496 272.669 17.4258 272.948 17.1113C273.228 16.7949 273.593 16.6367 274.044 16.6367C274.247 16.6367 274.427 16.666 274.583 16.7246C274.739 16.7832 274.876 16.875 274.993 17C275.11 17.125 275.2 17.2783 275.263 17.46C275.325 17.6396 275.356 17.8604 275.356 18.1221V18.4209H273.089C273.089 18.8018 273.185 19.0928 273.376 19.2939C273.567 19.4951 273.832 19.5957 274.17 19.5957C274.291 19.5957 274.409 19.582 274.524 19.5547C274.642 19.5273 274.747 19.4922 274.841 19.4492C274.94 19.4043 275.024 19.3613 275.093 19.3203C275.161 19.2773 275.218 19.2373 275.263 19.2002H275.295V19.8008C275.23 19.8262 275.15 19.8584 275.055 19.8975C274.959 19.9346 274.873 19.9639 274.797 19.9854C274.689 20.0146 274.592 20.0371 274.504 20.0527C274.418 20.0684 274.309 20.0762 274.176 20.0762ZM274.82 17.999C274.816 17.8506 274.799 17.7227 274.768 17.6152C274.736 17.5078 274.691 17.417 274.633 17.3428C274.568 17.2607 274.485 17.1982 274.384 17.1553C274.284 17.1123 274.16 17.0908 274.012 17.0908C273.865 17.0908 273.74 17.1133 273.637 17.1582C273.535 17.2012 273.442 17.2646 273.358 17.3486C273.276 17.4346 273.214 17.5303 273.171 17.6357C273.128 17.7393 273.101 17.8604 273.089 17.999H274.82ZM278.72 20.7852H278.207V19.9912H276.051V20.7852H275.538V19.5312H275.755C275.94 19.2266 276.092 18.8291 276.209 18.3389C276.328 17.8467 276.388 17.3096 276.388 16.7275H278.395V19.5312H278.72V20.7852ZM277.844 19.5312V17.1904H276.906C276.881 17.6787 276.813 18.125 276.704 18.5293C276.597 18.9316 276.461 19.2656 276.297 19.5312H277.844ZM280.123 20H279.423V19.165H280.123V20ZM283.665 20H283.12V17.5596L281.579 20H281.081V16.7275H281.626V19.1299L283.149 16.7275H283.665V20ZM286.63 19.0947C286.63 19.2783 286.59 19.4336 286.51 19.5605C286.43 19.6875 286.327 19.7881 286.202 19.8623C286.083 19.9346 285.947 19.9883 285.795 20.0234C285.643 20.0586 285.49 20.0762 285.338 20.0762C285.123 20.0762 284.92 20.0547 284.729 20.0117C284.537 19.9707 284.347 19.9043 284.157 19.8125V19.2031H284.192C284.325 19.3262 284.491 19.4238 284.69 19.4961C284.892 19.5664 285.092 19.6016 285.291 19.6016C285.377 19.6016 285.469 19.5928 285.566 19.5752C285.666 19.5557 285.75 19.5264 285.818 19.4873C285.908 19.4326 285.972 19.374 286.009 19.3115C286.048 19.249 286.067 19.1631 286.067 19.0537C286.067 18.9365 286.045 18.8428 286 18.7725C285.957 18.7002 285.897 18.6465 285.821 18.6113C285.745 18.5762 285.659 18.5547 285.563 18.5469C285.47 18.5371 285.37 18.5322 285.265 18.5322H284.878V18.0576H285.174C285.248 18.0576 285.341 18.0557 285.452 18.0518C285.563 18.0459 285.652 18.0303 285.719 18.0049C285.803 17.9736 285.87 17.9297 285.921 17.873C285.972 17.8145 285.997 17.7168 285.997 17.5801C285.997 17.4844 285.976 17.4072 285.933 17.3486C285.89 17.29 285.836 17.2441 285.771 17.2109C285.705 17.1758 285.633 17.1523 285.555 17.1406C285.477 17.127 285.401 17.1201 285.329 17.1201C285.144 17.1201 284.965 17.1465 284.793 17.1992C284.623 17.25 284.477 17.3262 284.354 17.4277H284.318V16.833C284.459 16.7842 284.614 16.7412 284.784 16.7041C284.956 16.667 285.128 16.6484 285.3 16.6484C285.438 16.6484 285.579 16.6631 285.722 16.6924C285.866 16.7197 286.003 16.7676 286.132 16.8359C286.253 16.9023 286.354 16.9941 286.437 17.1113C286.519 17.2266 286.56 17.3682 286.56 17.5361C286.56 17.7139 286.509 17.8701 286.407 18.0049C286.308 18.1377 286.175 18.2256 286.009 18.2686V18.2891C286.19 18.3516 286.339 18.4473 286.454 18.5762C286.571 18.7051 286.63 18.8779 286.63 19.0947ZM290.245 20H289.7V17.4277L288.915 19.0977H288.505L287.726 17.4277V20H287.21V16.7275H287.875L288.736 18.5439L289.568 16.7275H290.245V20Z" fill="#606580"/>
<path d="M296.375 12.375H310C310.897 12.375 311.625 13.1025 311.625 14V21C311.625 21.8975 310.897 22.625 310 22.625H296.375V12.375Z" fill="#0089FF" fill-opacity="0.25"/>
<path d="M303.435 16.8477C303.435 17.2871 303.346 17.6133 303.168 17.8262C302.992 18.0371 302.737 18.1426 302.403 18.1426C302.063 18.1426 301.806 18.0352 301.63 17.8203C301.456 17.6055 301.369 17.2822 301.369 16.8506C301.369 16.4131 301.458 16.0879 301.636 15.875C301.813 15.6621 302.069 15.5557 302.403 15.5557C302.743 15.5557 303 15.6631 303.174 15.8779C303.348 16.0928 303.435 16.416 303.435 16.8477ZM305.386 15.6377L303.101 20H302.617L304.902 15.6377H305.386ZM306.628 18.79C306.628 19.2295 306.539 19.5557 306.361 19.7686C306.186 19.9795 305.931 20.085 305.597 20.085C305.257 20.085 304.999 19.9775 304.823 19.7627C304.649 19.5479 304.562 19.2246 304.562 18.793C304.562 18.3555 304.651 18.0303 304.829 17.8174C305.007 17.6045 305.263 17.498 305.597 17.498C305.937 17.498 306.193 17.6055 306.367 17.8203C306.541 18.0352 306.628 18.3584 306.628 18.79ZM302.913 16.8477C302.913 16.5508 302.878 16.3262 302.808 16.1738C302.739 16.0215 302.604 15.9453 302.403 15.9453C302.202 15.9453 302.066 16.0225 301.996 16.1768C301.926 16.3311 301.891 16.5557 301.891 16.8506C301.891 17.1436 301.924 17.3672 301.99 17.5215C302.057 17.6758 302.194 17.7529 302.403 17.7529C302.604 17.7529 302.739 17.6758 302.808 17.5215C302.878 17.3672 302.913 17.1426 302.913 16.8477ZM306.106 18.79C306.106 18.4932 306.071 18.2686 306.001 18.1162C305.933 17.9639 305.798 17.8877 305.597 17.8877C305.396 17.8877 305.26 17.9648 305.189 18.1191C305.119 18.2734 305.084 18.498 305.084 18.793C305.084 19.0859 305.117 19.3096 305.184 19.4639C305.25 19.6182 305.388 19.6953 305.597 19.6953C305.798 19.6953 305.933 19.6182 306.001 19.4639C306.071 19.3096 306.106 19.085 306.106 18.79Z" fill="#D7E2F2"/>
<path d="M296.375 12.375H310C310.897 12.375 311.625 13.1025 311.625 14V21C311.625 21.8975 310.897 22.625 310 22.625H296.375V12.375Z" stroke="#0089FF" stroke-width="0.75"/>
<defs>
<linearGradient id="paint0_linear" x1="177.374" y1="68.9433" x2="167.135" y2="46.3718" gradientUnits="userSpaceOnUse">
<stop stop-color="white" stop-opacity="0.15"/>
<stop offset="1" stop-color="white" stop-opacity="0"/>
</linearGradient>
</defs>
</svg>
