<svg width="324" height="117" viewBox="0 0 324 117" fill="none" xmlns="http://www.w3.org/2000/svg">
<path d="M88.8867 94.5267C96.1865 86.5922 100.673 75.8197 100.673 63.9542C100.673 39.5651 81.7185 19.7939 58.3372 19.7939C34.956 19.7939 16.0017 39.5651 16.0017 63.9542C16.0017 75.8197 20.488 86.5922 27.7877 94.5267" stroke="#12151E" stroke-width="20"/>
<path d="M88.8867 94.5267C96.1865 86.5922 100.673 75.8197 100.673 63.9542C100.673 39.5651 81.7185 19.7939 58.3372 19.7939C34.956 19.7939 16.0017 39.5651 16.0017 63.9542C16.0017 75.8197 20.488 86.5922 27.7877 94.5267" stroke="#0089FF" stroke-width="6" stroke-dasharray="1 1"/>
<path d="M100.673 63.9542C100.673 75.8197 96.1865 86.5922 88.8867 94.5267" stroke="#F7931E" stroke-width="6" stroke-dasharray="1 1"/>
<path d="M100.673 63.9542C100.673 39.5651 81.7185 19.7939 58.3372 19.7939C34.956 19.7939 16.0017 39.5651 16.0017 63.9542C16.0017 75.8197 20.488 86.5922 27.7877 94.5267" stroke="#0089FF" stroke-width="6" stroke-dasharray="1 1"/>
<line y1="-1.5" x2="13.31" y2="-1.5" transform="matrix(0.692035 0.721864 -0.692035 0.721864 83.6068 90.3522)" stroke="#0089FF" stroke-width="3"/>
<line y1="-1.5" x2="13.31" y2="-1.5" transform="matrix(-0.692035 0.721864 0.692035 0.721864 33.0284 90.4504)" stroke="#0089FF" stroke-width="3"/>
<path d="M107.162 63.9969L94.1842 63.9542" stroke="#F7931E" stroke-width="3"/>
<path d="M50.0771 101H46.5322V100.258H47.8506V95.3848H46.5322V94.7207C47.0303 94.7207 47.3965 94.6507 47.6309 94.5107C47.8685 94.3675 48.002 94.099 48.0312 93.7051H48.7881V100.258H50.0771V101ZM55.9414 97.3623C55.9414 98.6676 55.751 99.6263 55.3701 100.238C54.9925 100.847 54.4082 101.151 53.6172 101.151C52.8164 101.151 52.2288 100.84 51.8545 100.219C51.4801 99.597 51.293 98.6481 51.293 97.3721C51.293 96.0602 51.4818 95.1016 51.8594 94.4961C52.2402 93.8874 52.8262 93.583 53.6172 93.583C54.418 93.583 55.0055 93.8971 55.3799 94.5254C55.7542 95.1536 55.9414 96.0993 55.9414 97.3623ZM54.6914 99.5791C54.7858 99.3382 54.8525 99.0339 54.8916 98.666C54.9307 98.2982 54.9502 97.8636 54.9502 97.3623C54.9502 96.8643 54.9307 96.4313 54.8916 96.0635C54.8525 95.6956 54.7842 95.3896 54.6865 95.1455C54.5889 94.8981 54.4538 94.7109 54.2812 94.584C54.112 94.4538 53.8906 94.3887 53.6172 94.3887C53.347 94.3887 53.124 94.4538 52.9482 94.584C52.7757 94.7109 52.639 94.9014 52.5381 95.1553C52.4404 95.4027 52.3737 95.7152 52.3379 96.0928C52.3021 96.4704 52.2842 96.8968 52.2842 97.3721C52.2842 97.8799 52.2988 98.3047 52.3281 98.6465C52.3607 98.9883 52.429 99.2943 52.5332 99.5645C52.6276 99.8151 52.7611 100.009 52.9336 100.146C53.1094 100.279 53.3372 100.346 53.6172 100.346C53.8874 100.346 54.1087 100.282 54.2812 100.155C54.457 100.025 54.5938 99.833 54.6914 99.5791ZM61.4004 97.3623C61.4004 98.6676 61.21 99.6263 60.8291 100.238C60.4515 100.847 59.8672 101.151 59.0762 101.151C58.2754 101.151 57.6878 100.84 57.3135 100.219C56.9391 99.597 56.752 98.6481 56.752 97.3721C56.752 96.0602 56.9408 95.1016 57.3184 94.4961C57.6992 93.8874 58.2852 93.583 59.0762 93.583C59.877 93.583 60.4645 93.8971 60.8389 94.5254C61.2132 95.1536 61.4004 96.0993 61.4004 97.3623ZM60.1504 99.5791C60.2448 99.3382 60.3115 99.0339 60.3506 98.666C60.3896 98.2982 60.4092 97.8636 60.4092 97.3623C60.4092 96.8643 60.3896 96.4313 60.3506 96.0635C60.3115 95.6956 60.2432 95.3896 60.1455 95.1455C60.0479 94.8981 59.9128 94.7109 59.7402 94.584C59.571 94.4538 59.3496 94.3887 59.0762 94.3887C58.806 94.3887 58.583 94.4538 58.4072 94.584C58.2347 94.7109 58.098 94.9014 57.9971 95.1553C57.8994 95.4027 57.8327 95.7152 57.7969 96.0928C57.7611 96.4704 57.7432 96.8968 57.7432 97.3721C57.7432 97.8799 57.7578 98.3047 57.7871 98.6465C57.8197 98.9883 57.888 99.2943 57.9922 99.5645C58.0866 99.8151 58.2201 100.009 58.3926 100.146C58.5684 100.279 58.7962 100.346 59.0762 100.346C59.3464 100.346 59.5677 100.282 59.7402 100.155C59.916 100.025 60.0527 99.833 60.1504 99.5791ZM65.7461 95.7461C65.7461 96.4785 65.598 97.0221 65.3018 97.377C65.0088 97.7285 64.584 97.9043 64.0273 97.9043C63.4609 97.9043 63.0312 97.7253 62.7383 97.3672C62.4486 97.0091 62.3037 96.4704 62.3037 95.751C62.3037 95.0218 62.4518 94.4798 62.748 94.125C63.0443 93.7702 63.4707 93.5928 64.0273 93.5928C64.5938 93.5928 65.0218 93.7718 65.3115 94.1299C65.6012 94.488 65.7461 95.0267 65.7461 95.7461ZM68.998 93.7295L65.1895 101H64.3838L68.1924 93.7295H68.998ZM71.0684 98.9834C71.0684 99.7158 70.9202 100.259 70.624 100.614C70.3311 100.966 69.9062 101.142 69.3496 101.142C68.7832 101.142 68.3535 100.963 68.0605 100.604C67.7708 100.246 67.626 99.7077 67.626 98.9883C67.626 98.2591 67.7741 97.7171 68.0703 97.3623C68.3665 97.0075 68.793 96.8301 69.3496 96.8301C69.916 96.8301 70.3441 97.0091 70.6338 97.3672C70.9235 97.7253 71.0684 98.264 71.0684 98.9834ZM64.877 95.7461C64.877 95.2513 64.8184 94.877 64.7012 94.623C64.5872 94.3691 64.3626 94.2422 64.0273 94.2422C63.6921 94.2422 63.4658 94.3708 63.3486 94.6279C63.2314 94.8851 63.1729 95.2594 63.1729 95.751C63.1729 96.2393 63.2282 96.612 63.3389 96.8691C63.4495 97.1263 63.679 97.2549 64.0273 97.2549C64.3626 97.2549 64.5872 97.1263 64.7012 96.8691C64.8184 96.612 64.877 96.2376 64.877 95.7461ZM70.1992 98.9834C70.1992 98.4886 70.1406 98.1143 70.0234 97.8604C69.9095 97.6064 69.6849 97.4795 69.3496 97.4795C69.0143 97.4795 68.7881 97.6081 68.6709 97.8652C68.5537 98.1224 68.4951 98.4967 68.4951 98.9883C68.4951 99.4766 68.5505 99.8493 68.6611 100.106C68.7718 100.364 69.0013 100.492 69.3496 100.492C69.6849 100.492 69.9095 100.364 70.0234 100.106C70.1406 99.8493 70.1992 99.4749 70.1992 98.9834Z" fill="#606580"/>
<path d="M50.338 83.8053H44.0489L46.5978 76.5348H47.7892L50.338 83.8053ZM49.0294 82.9655L47.169 77.4967L45.3136 82.9655H49.0294ZM56.6075 81.0661H53.8536V80.1823H56.6075V81.0661ZM62.0665 83.8053H57.5792V82.7848C57.9015 82.4788 58.2058 82.1859 58.4923 81.9059C58.7787 81.626 59.0587 81.3346 59.3321 81.0319C59.8855 80.4232 60.2631 79.9365 60.4649 79.5719C60.6668 79.2041 60.7677 78.8249 60.7677 78.4342C60.7677 78.2324 60.7351 78.055 60.67 77.902C60.6082 77.749 60.5219 77.6221 60.4112 77.5212C60.2973 77.4235 60.1655 77.3503 60.0157 77.3014C59.866 77.2526 59.7016 77.2282 59.5226 77.2282C59.35 77.2282 59.1743 77.251 58.9952 77.2966C58.8194 77.3389 58.6502 77.3926 58.4874 77.4577C58.3507 77.513 58.2188 77.5798 58.0919 77.6579C57.9649 77.736 57.8624 77.8027 57.7843 77.8581H57.7306V76.8229C57.9324 76.722 58.2123 76.6244 58.5704 76.53C58.9317 76.4323 59.2735 76.3835 59.5958 76.3835C60.2729 76.3835 60.8035 76.5641 61.1876 76.9255C61.5717 77.2835 61.7638 77.7702 61.7638 78.3854C61.7638 78.6686 61.7296 78.9307 61.6612 79.1716C61.5961 79.4124 61.505 79.6354 61.3878 79.8405C61.2674 80.0521 61.1225 80.262 60.9532 80.4704C60.784 80.6787 60.6049 80.8838 60.4161 81.0856C60.1101 81.4176 59.7683 81.7627 59.3907 82.1208C59.0164 82.4788 58.7169 82.762 58.4923 82.9704H62.0665V83.8053ZM64.6007 83.8053H63.4337V82.4137H64.6007V83.8053ZM69.4933 78.2292C69.4933 77.9037 69.3842 77.6318 69.1661 77.4137C68.948 77.1956 68.6453 77.0866 68.2579 77.0866C67.9031 77.0866 67.6118 77.1842 67.3839 77.3796C67.1593 77.5749 67.047 77.8385 67.047 78.1706C67.047 78.4115 67.1039 78.6149 67.2179 78.7809C67.3351 78.9469 67.5092 79.0967 67.7403 79.2301C67.8412 79.2855 67.9942 79.362 68.1993 79.4596C68.4077 79.5573 68.5965 79.6338 68.7657 79.6891C69.0489 79.471 69.241 79.2481 69.3419 79.0202C69.4428 78.7891 69.4933 78.5254 69.4933 78.2292ZM69.63 81.8717C69.63 81.5723 69.5714 81.3346 69.4542 81.1589C69.337 80.9831 69.1108 80.804 68.7755 80.6217C68.6648 80.5599 68.5167 80.4932 68.3312 80.4216C68.1489 80.3499 67.9422 80.2653 67.711 80.1676C67.4409 80.3467 67.2341 80.568 67.0909 80.8317C66.9477 81.0921 66.8761 81.39 66.8761 81.7253C66.8761 82.1647 67.0079 82.5277 67.2716 82.8141C67.5385 83.1006 67.8722 83.2438 68.2726 83.2438C68.6827 83.2438 69.0115 83.1217 69.2589 82.8776C69.5063 82.6302 69.63 82.2949 69.63 81.8717ZM68.2628 83.9714C67.9015 83.9714 67.5727 83.9176 67.2765 83.8102C66.9802 83.7028 66.728 83.5482 66.5196 83.3464C66.3146 83.151 66.1583 82.9199 66.0509 82.653C65.9467 82.3828 65.8946 82.098 65.8946 81.7985C65.8946 81.4046 65.9988 81.0433 66.2071 80.7145C66.4187 80.3825 66.7247 80.1188 67.1251 79.9235V79.8942C66.767 79.6859 66.5017 79.458 66.3292 79.2106C66.1567 78.9632 66.0704 78.654 66.0704 78.2829C66.0704 77.736 66.2771 77.2803 66.6905 76.9157C67.1039 76.5511 67.628 76.3688 68.2628 76.3688C68.9236 76.3688 69.4526 76.543 69.8497 76.8913C70.2501 77.2363 70.4503 77.679 70.4503 78.2194C70.4503 78.5449 70.3543 78.8672 70.1622 79.1862C69.9734 79.5052 69.7 79.7542 69.3419 79.9333V79.9626C69.7651 80.1611 70.0857 80.402 70.3038 80.6852C70.5219 80.9684 70.631 81.333 70.631 81.779C70.631 82.4007 70.4047 82.9216 69.9522 83.3415C69.503 83.7614 68.9399 83.9714 68.2628 83.9714Z" fill="#F7931E"/>
<path d="M51.7455 60.9453C51.7455 60.3515 51.6908 59.8691 51.5815 59.498C51.4721 59.123 51.3217 58.834 51.1303 58.6308C50.9584 58.4433 50.7846 58.3144 50.6088 58.2441C50.433 58.1738 50.2397 58.1387 50.0287 58.1387C49.5483 58.1387 49.1654 58.3105 48.8803 58.6543C48.5951 58.998 48.4525 59.4961 48.4525 60.1484C48.4525 60.5156 48.4994 60.8183 48.5932 61.0566C48.6869 61.2949 48.8393 61.5 49.0502 61.6719C49.1986 61.793 49.3666 61.875 49.5541 61.918C49.7416 61.957 49.9428 61.9765 50.1576 61.9765C50.4076 61.9765 50.6772 61.9336 50.9662 61.8476C51.2553 61.7578 51.5072 61.6406 51.7221 61.4961C51.726 61.4375 51.7299 61.3613 51.7338 61.2676C51.7416 61.1699 51.7455 61.0625 51.7455 60.9453ZM47.2631 60.1953C47.2631 59.7461 47.3354 59.3359 47.4799 58.9648C47.6283 58.5937 47.8295 58.2734 48.0834 58.0039C48.3256 57.7461 48.6205 57.5449 48.9682 57.4004C49.3197 57.2558 49.6752 57.1836 50.0346 57.1836C50.4369 57.1836 50.8002 57.2519 51.1244 57.3887C51.4525 57.5215 51.7358 57.7148 51.974 57.9687C52.2748 58.289 52.5072 58.709 52.6713 59.2285C52.8393 59.748 52.9233 60.4043 52.9233 61.1973C52.9233 61.9199 52.8412 62.6055 52.6772 63.2539C52.517 63.8984 52.2787 64.4336 51.9623 64.8594C51.6264 65.3125 51.2221 65.6582 50.7494 65.8965C50.2807 66.1348 49.7006 66.2539 49.0092 66.2539C48.8529 66.2539 48.6869 66.2441 48.5111 66.2246C48.3354 66.209 48.1713 66.1777 48.019 66.1308V65.0117H48.0775C48.1752 65.0664 48.3275 65.1191 48.5346 65.1699C48.7416 65.2207 48.9525 65.2461 49.1674 65.2461C49.933 65.2461 50.5346 64.9941 50.9721 64.4902C51.4096 63.9863 51.6576 63.2656 51.7162 62.3281C51.4037 62.539 51.1049 62.6933 50.8197 62.791C50.5385 62.8887 50.2318 62.9375 49.8998 62.9375C49.5756 62.9375 49.2807 62.9023 49.015 62.832C48.7494 62.7617 48.4818 62.625 48.2123 62.4219C47.8998 62.1836 47.6635 61.8828 47.5033 61.5195C47.3432 61.1523 47.2631 60.7109 47.2631 60.1953ZM59.5385 58.666L55.765 66.084H54.517L58.5131 58.3848H54.0014V57.3594H59.5385V58.666ZM62.4858 66.084H61.0854V64.414H62.4858V66.084ZM69.183 66.084H64.9291V65.1933H66.5111V59.3457H64.9291V58.5488C65.5268 58.5488 65.9662 58.4648 66.2475 58.2969C66.5326 58.125 66.6928 57.8027 66.7279 57.3301H67.6361V65.1933H69.183V66.084Z" fill="#D7E2F2"/>
<line x1="70.8882" y1="69.6393" x2="44.8355" y2="69.6393" stroke="#606580" stroke-width="0.5"/>
<path d="M90.6542 52.737C91.8766 56.3714 92.5388 60.0724 92.688 63.7383L77.3554 64.7077C77.2812 62.4803 76.8867 60.2287 76.1421 58.0151C74.0701 51.8548 69.6869 47.2114 64.3313 44.744L70.5244 30.2341C79.6523 34.3824 87.1308 42.2619 90.6542 52.737Z" fill="url(#paint0_linear)"/>
<path d="M92.7229 63.794L77.4183 65.1192L77.3748 63.8011L92.7229 63.794Z" fill="white"/>
<rect x="143" y="20" width="176" height="73" rx="2" fill="#12151E" fill-opacity="0.5"/>
<rect x="143.5" y="20.5" width="175" height="72" rx="1.5" stroke="#606580" stroke-opacity="0.25"/>
<rect x="150.675" y="20.668" width="1" height="71" fill="#272A38"/>
<rect x="159.344" y="20.668" width="1" height="71" fill="#272A38"/>
<rect x="167.348" y="20.668" width="1" height="71" fill="#272A38"/>
<rect x="176.019" y="20.8351" width="1" height="67" fill="#272A38"/>
<rect x="184.688" y="20.668" width="1" height="71" fill="#272A38"/>
<rect x="192.691" y="20.668" width="1" height="71" fill="#272A38"/>
<rect x="201.361" y="20.668" width="1" height="71" fill="#272A38"/>
<rect x="210.031" y="20.668" width="1" height="71" fill="#272A38"/>
<rect x="218.258" y="20.8351" width="1" height="67" fill="#272A38"/>
<rect x="226.704" y="20.668" width="1" height="71" fill="#272A38"/>
<rect x="235.374" y="20.668" width="1" height="71" fill="#272A38"/>
<rect x="243.377" y="20.668" width="1" height="71" fill="#272A38"/>
<rect x="252.047" y="20.668" width="1" height="71" fill="#272A38"/>
<rect x="260.498" y="20.8351" width="1" height="67" fill="#272A38"/>
<rect x="268.72" y="20.668" width="1" height="71" fill="#272A38"/>
<rect x="277.39" y="20.668" width="1" height="71" fill="#272A38"/>
<rect x="286.06" y="20.668" width="1" height="71" fill="#272A38"/>
<rect x="294.063" y="20.668" width="1" height="71" fill="#272A38"/>
<rect x="302.737" y="20.8351" width="1" height="67" fill="#272A38"/>
<rect x="311.403" y="20.668" width="1" height="71" fill="#272A38"/>
<rect x="151" y="67" width="167" height="1" fill="#272A38"/>
<path d="M151 43H318V44H151V43Z" fill="#272A38"/>
<path d="M123.658 65.3715C123.658 64.8767 123.613 64.4747 123.521 64.1654C123.43 63.8529 123.305 63.6121 123.146 63.4428C123.002 63.2865 122.857 63.1791 122.711 63.1205C122.564 63.0619 122.403 63.0326 122.228 63.0326C121.827 63.0326 121.508 63.1759 121.271 63.4623C121.033 63.7488 120.914 64.1638 120.914 64.7074C120.914 65.0134 120.953 65.2657 121.031 65.4643C121.109 65.6628 121.236 65.8337 121.412 65.977C121.536 66.0779 121.676 66.1462 121.832 66.182C121.988 66.2146 122.156 66.2309 122.335 66.2309C122.543 66.2309 122.768 66.1951 123.009 66.1234C123.25 66.0486 123.46 65.9509 123.639 65.8305C123.642 65.7816 123.645 65.7182 123.648 65.64C123.655 65.5587 123.658 65.4691 123.658 65.3715ZM119.923 64.7465C119.923 64.3721 119.983 64.0303 120.104 63.7211C120.227 63.4119 120.395 63.1449 120.606 62.9203C120.808 62.7055 121.054 62.5378 121.344 62.4174C121.637 62.2969 121.933 62.2367 122.232 62.2367C122.568 62.2367 122.87 62.2937 123.141 62.4076C123.414 62.5183 123.65 62.6794 123.849 62.891C124.099 63.1579 124.293 63.5079 124.43 63.9408C124.57 64.3738 124.64 64.9206 124.64 65.5815C124.64 66.1837 124.571 66.755 124.435 67.2953C124.301 67.8324 124.103 68.2784 123.839 68.6332C123.559 69.0108 123.222 69.2989 122.828 69.4975C122.438 69.696 121.954 69.7953 121.378 69.7953C121.248 69.7953 121.109 69.7872 120.963 69.7709C120.816 69.7579 120.68 69.7318 120.553 69.6928V68.7602H120.602C120.683 68.8057 120.81 68.8497 120.982 68.892C121.155 68.9343 121.331 68.9555 121.51 68.9555C122.148 68.9555 122.649 68.7455 123.014 68.3256C123.378 67.9057 123.585 67.3051 123.634 66.5238C123.373 66.6996 123.124 66.8282 122.887 66.9096C122.652 66.991 122.397 67.0316 122.12 67.0316C121.85 67.0316 121.604 67.0023 121.383 66.9438C121.161 66.8852 120.938 66.7712 120.714 66.602C120.453 66.4034 120.257 66.1527 120.123 65.85C119.99 65.544 119.923 65.1762 119.923 64.7465ZM129.117 65.3715C129.117 64.8767 129.072 64.4747 128.98 64.1654C128.889 63.8529 128.764 63.6121 128.604 63.4428C128.461 63.2865 128.316 63.1791 128.17 63.1205C128.023 63.0619 127.862 63.0326 127.687 63.0326C127.286 63.0326 126.967 63.1759 126.729 63.4623C126.492 63.7488 126.373 64.1638 126.373 64.7074C126.373 65.0134 126.412 65.2657 126.49 65.4643C126.568 65.6628 126.695 65.8337 126.871 65.977C126.995 66.0779 127.135 66.1462 127.291 66.182C127.447 66.2146 127.615 66.2309 127.794 66.2309C128.002 66.2309 128.227 66.1951 128.468 66.1234C128.709 66.0486 128.919 65.9509 129.098 65.8305C129.101 65.7816 129.104 65.7182 129.107 65.64C129.114 65.5587 129.117 65.4691 129.117 65.3715ZM125.382 64.7465C125.382 64.3721 125.442 64.0303 125.562 63.7211C125.686 63.4119 125.854 63.1449 126.065 62.9203C126.267 62.7055 126.513 62.5378 126.803 62.4174C127.096 62.2969 127.392 62.2367 127.691 62.2367C128.027 62.2367 128.329 62.2937 128.6 62.4076C128.873 62.5183 129.109 62.6794 129.308 62.891C129.558 63.1579 129.752 63.5079 129.889 63.9408C130.029 64.3738 130.099 64.9206 130.099 65.5815C130.099 66.1837 130.03 66.755 129.894 67.2953C129.76 67.8324 129.562 68.2784 129.298 68.6332C129.018 69.0108 128.681 69.2989 128.287 69.4975C127.896 69.696 127.413 69.7953 126.837 69.7953C126.707 69.7953 126.568 69.7872 126.422 69.7709C126.275 69.7579 126.139 69.7318 126.012 69.6928V68.7602H126.061C126.142 68.8057 126.269 68.8497 126.441 68.892C126.614 68.9343 126.79 68.9555 126.969 68.9555C127.607 68.9555 128.108 68.7455 128.473 68.3256C128.837 67.9057 129.044 67.3051 129.093 66.5238C128.832 66.6996 128.583 66.8282 128.346 66.9096C128.111 66.991 127.856 67.0316 127.579 67.0316C127.309 67.0316 127.063 67.0023 126.842 66.9438C126.62 66.8852 126.397 66.7712 126.173 66.602C125.912 66.4034 125.715 66.1527 125.582 65.85C125.449 65.544 125.382 65.1762 125.382 64.7465ZM132.608 69.6537H131.441V68.2621H132.608V69.6537ZM138.478 67.3393C138.478 67.6908 138.421 68.0163 138.307 68.3158C138.196 68.6153 138.04 68.8741 137.838 69.0922C137.633 69.3135 137.377 69.4877 137.071 69.6147C136.769 69.7416 136.428 69.8051 136.051 69.8051C135.702 69.8051 135.359 69.766 135.021 69.6879C134.685 69.613 134.394 69.5137 134.146 69.39V68.3598H134.215C134.29 68.4151 134.397 68.4786 134.537 68.5502C134.677 68.6186 134.832 68.6837 135.001 68.7455C135.193 68.8139 135.369 68.8676 135.528 68.9066C135.688 68.9425 135.867 68.9604 136.065 68.9604C136.261 68.9604 136.451 68.9262 136.637 68.8578C136.822 68.7862 136.982 68.6723 137.115 68.516C137.236 68.3728 137.327 68.2051 137.389 68.0131C137.454 67.821 137.486 67.5948 137.486 67.3344C137.486 67.0772 137.451 66.8656 137.379 66.6996C137.311 66.5336 137.21 66.3969 137.076 66.2895C136.936 66.1658 136.764 66.0795 136.559 66.0307C136.357 65.9786 136.131 65.9525 135.88 65.9525C135.616 65.9525 135.351 65.9737 135.084 66.016C134.817 66.0551 134.604 66.0925 134.444 66.1283V62.3832H138.434V63.2377H135.387V65.1713C135.504 65.1583 135.619 65.1485 135.733 65.142C135.847 65.1355 135.951 65.1322 136.046 65.1322C136.417 65.1322 136.731 65.1632 136.988 65.225C137.245 65.2869 137.493 65.4073 137.73 65.5863C137.971 65.7686 138.155 65.9965 138.282 66.2699C138.412 66.5434 138.478 66.8998 138.478 67.3393Z" fill="#606580"/>
<path d="M132.145 89.8662C132.145 89.3714 132.099 88.9694 132.008 88.6602C131.917 88.3477 131.791 88.1068 131.632 87.9375C131.489 87.7812 131.344 87.6738 131.197 87.6152C131.051 87.5566 130.89 87.5273 130.714 87.5273C130.313 87.5273 129.994 87.6706 129.757 87.957C129.519 88.2435 129.4 88.6585 129.4 89.2021C129.4 89.5081 129.439 89.7604 129.518 89.959C129.596 90.1576 129.723 90.3285 129.898 90.4717C130.022 90.5726 130.162 90.641 130.318 90.6768C130.475 90.7093 130.642 90.7256 130.821 90.7256C131.03 90.7256 131.254 90.6898 131.495 90.6182C131.736 90.5433 131.946 90.4456 132.125 90.3252C132.128 90.2764 132.132 90.2129 132.135 90.1348C132.141 90.0534 132.145 89.9639 132.145 89.8662ZM128.409 89.2412C128.409 88.8669 128.469 88.5251 128.59 88.2158C128.714 87.9066 128.881 87.6396 129.093 87.415C129.295 87.2002 129.54 87.0326 129.83 86.9121C130.123 86.7917 130.419 86.7314 130.719 86.7314C131.054 86.7314 131.357 86.7884 131.627 86.9023C131.9 87.013 132.136 87.1742 132.335 87.3857C132.586 87.6527 132.779 88.0026 132.916 88.4355C133.056 88.8685 133.126 89.4154 133.126 90.0762C133.126 90.6784 133.058 91.2497 132.921 91.79C132.787 92.3271 132.589 92.7731 132.325 93.1279C132.045 93.5055 131.708 93.7936 131.314 93.9922C130.924 94.1908 130.44 94.29 129.864 94.29C129.734 94.29 129.596 94.2819 129.449 94.2656C129.303 94.2526 129.166 94.2266 129.039 94.1875V93.2549H129.088C129.169 93.3005 129.296 93.3444 129.469 93.3867C129.641 93.429 129.817 93.4502 129.996 93.4502C130.634 93.4502 131.135 93.2402 131.5 92.8203C131.865 92.4004 132.071 91.7998 132.12 91.0186C131.86 91.1943 131.611 91.3229 131.373 91.4043C131.139 91.4857 130.883 91.5264 130.606 91.5264C130.336 91.5264 130.09 91.4971 129.869 91.4385C129.648 91.3799 129.425 91.266 129.2 91.0967C128.94 90.8981 128.743 90.6475 128.609 90.3447C128.476 90.0387 128.409 89.6709 128.409 89.2412ZM137.604 89.8662C137.604 89.3714 137.558 88.9694 137.467 88.6602C137.376 88.3477 137.25 88.1068 137.091 87.9375C136.948 87.7812 136.803 87.6738 136.656 87.6152C136.51 87.5566 136.349 87.5273 136.173 87.5273C135.772 87.5273 135.453 87.6706 135.216 87.957C134.978 88.2435 134.859 88.6585 134.859 89.2021C134.859 89.5081 134.898 89.7604 134.977 89.959C135.055 90.1576 135.182 90.3285 135.357 90.4717C135.481 90.5726 135.621 90.641 135.777 90.6768C135.934 90.7093 136.101 90.7256 136.28 90.7256C136.489 90.7256 136.713 90.6898 136.954 90.6182C137.195 90.5433 137.405 90.4456 137.584 90.3252C137.587 90.2764 137.59 90.2129 137.594 90.1348C137.6 90.0534 137.604 89.9639 137.604 89.8662ZM133.868 89.2412C133.868 88.8669 133.928 88.5251 134.049 88.2158C134.173 87.9066 134.34 87.6396 134.552 87.415C134.754 87.2002 134.999 87.0326 135.289 86.9121C135.582 86.7917 135.878 86.7314 136.178 86.7314C136.513 86.7314 136.816 86.7884 137.086 86.9023C137.359 87.013 137.595 87.1742 137.794 87.3857C138.045 87.6527 138.238 88.0026 138.375 88.4355C138.515 88.8685 138.585 89.4154 138.585 90.0762C138.585 90.6784 138.517 91.2497 138.38 91.79C138.246 92.3271 138.048 92.7731 137.784 93.1279C137.504 93.5055 137.167 93.7936 136.773 93.9922C136.383 94.1908 135.899 94.29 135.323 94.29C135.193 94.29 135.055 94.2819 134.908 94.2656C134.762 94.2526 134.625 94.2266 134.498 94.1875V93.2549H134.547C134.628 93.3005 134.755 93.3444 134.928 93.3867C135.1 93.429 135.276 93.4502 135.455 93.4502C136.093 93.4502 136.594 93.2402 136.959 92.8203C137.324 92.4004 137.53 91.7998 137.579 91.0186C137.319 91.1943 137.07 91.3229 136.832 91.4043C136.598 91.4857 136.342 91.5264 136.065 91.5264C135.795 91.5264 135.549 91.4971 135.328 91.4385C135.107 91.3799 134.884 91.266 134.659 91.0967C134.399 90.8981 134.202 90.6475 134.068 90.3447C133.935 90.0387 133.868 89.6709 133.868 89.2412Z" fill="#606580"/>
<path d="M127.271 45.8269H123.727V45.0847H125.045V40.2116H123.727V39.5476C124.225 39.5476 124.591 39.4776 124.825 39.3376C125.063 39.1944 125.196 38.9258 125.226 38.5319H125.982V45.0847H127.271V45.8269ZM133.136 42.1892C133.136 43.4945 132.945 44.4532 132.564 45.0651C132.187 45.6739 131.603 45.9782 130.812 45.9782C130.011 45.9782 129.423 45.6674 129.049 45.0456C128.674 44.4239 128.487 43.475 128.487 42.1989C128.487 40.8871 128.676 39.9284 129.054 39.323C129.435 38.7142 130.021 38.4099 130.812 38.4099C131.612 38.4099 132.2 38.724 132.574 39.3522C132.949 39.9805 133.136 40.9261 133.136 42.1892ZM131.886 44.406C131.98 44.1651 132.047 43.8607 132.086 43.4929C132.125 43.125 132.145 42.6905 132.145 42.1892C132.145 41.6911 132.125 41.2582 132.086 40.8903C132.047 40.5225 131.979 40.2165 131.881 39.9724C131.783 39.725 131.648 39.5378 131.476 39.4108C131.306 39.2806 131.085 39.2155 130.812 39.2155C130.541 39.2155 130.318 39.2806 130.143 39.4108C129.97 39.5378 129.833 39.7282 129.732 39.9821C129.635 40.2295 129.568 40.542 129.532 40.9196C129.496 41.2972 129.479 41.7237 129.479 42.1989C129.479 42.7067 129.493 43.1315 129.522 43.4733C129.555 43.8151 129.623 44.1211 129.728 44.3913C129.822 44.642 129.955 44.8356 130.128 44.9724C130.304 45.1058 130.532 45.1726 130.812 45.1726C131.082 45.1726 131.303 45.1091 131.476 44.9821C131.651 44.8519 131.788 44.6599 131.886 44.406ZM138.595 42.1892C138.595 43.4945 138.404 44.4532 138.023 45.0651C137.646 45.6739 137.062 45.9782 136.271 45.9782C135.47 45.9782 134.882 45.6674 134.508 45.0456C134.133 44.4239 133.946 43.475 133.946 42.1989C133.946 40.8871 134.135 39.9284 134.513 39.323C134.894 38.7142 135.479 38.4099 136.271 38.4099C137.071 38.4099 137.659 38.724 138.033 39.3522C138.408 39.9805 138.595 40.9261 138.595 42.1892ZM137.345 44.406C137.439 44.1651 137.506 43.8607 137.545 43.4929C137.584 43.125 137.604 42.6905 137.604 42.1892C137.604 41.6911 137.584 41.2582 137.545 40.8903C137.506 40.5225 137.438 40.2165 137.34 39.9724C137.242 39.725 137.107 39.5378 136.935 39.4108C136.765 39.2806 136.544 39.2155 136.271 39.2155C136 39.2155 135.777 39.2806 135.602 39.4108C135.429 39.5378 135.292 39.7282 135.191 39.9821C135.094 40.2295 135.027 40.542 134.991 40.9196C134.955 41.2972 134.938 41.7237 134.938 42.1989C134.938 42.7067 134.952 43.1315 134.981 43.4733C135.014 43.8151 135.082 44.1211 135.187 44.3913C135.281 44.642 135.414 44.8356 135.587 44.9724C135.763 45.1058 135.991 45.1726 136.271 45.1726C136.541 45.1726 136.762 45.1091 136.935 44.9821C137.11 44.8519 137.247 44.6599 137.345 44.406Z" fill="#606580"/>
<path d="M118.785 22H115.24V21.2578H116.559V16.3848H115.24V15.7207C115.738 15.7207 116.104 15.6507 116.339 15.5107C116.576 15.3675 116.71 15.099 116.739 14.7051H117.496V21.2578H118.785V22ZM124.649 18.3623C124.649 19.6676 124.459 20.6263 124.078 21.2383C123.701 21.847 123.116 22.1514 122.325 22.1514C121.524 22.1514 120.937 21.8405 120.562 21.2188C120.188 20.597 120.001 19.6481 120.001 18.3721C120.001 17.0602 120.19 16.1016 120.567 15.4961C120.948 14.8874 121.534 14.583 122.325 14.583C123.126 14.583 123.714 14.8971 124.088 15.5254C124.462 16.1536 124.649 17.0993 124.649 18.3623ZM123.399 20.5791C123.494 20.3382 123.561 20.0339 123.6 19.666C123.639 19.2982 123.658 18.8636 123.658 18.3623C123.658 17.8643 123.639 17.4313 123.6 17.0635C123.561 16.6956 123.492 16.3896 123.395 16.1455C123.297 15.8981 123.162 15.7109 122.989 15.584C122.82 15.4538 122.599 15.3887 122.325 15.3887C122.055 15.3887 121.832 15.4538 121.656 15.584C121.484 15.7109 121.347 15.9014 121.246 16.1553C121.148 16.4027 121.082 16.7152 121.046 17.0928C121.01 17.4704 120.992 17.8968 120.992 18.3721C120.992 18.8799 121.007 19.3047 121.036 19.6465C121.069 19.9883 121.137 20.2943 121.241 20.5645C121.336 20.8151 121.469 21.0088 121.642 21.1455C121.817 21.279 122.045 21.3457 122.325 21.3457C122.595 21.3457 122.817 21.2822 122.989 21.1553C123.165 21.0251 123.302 20.833 123.399 20.5791ZM130.108 18.3623C130.108 19.6676 129.918 20.6263 129.537 21.2383C129.16 21.847 128.575 22.1514 127.784 22.1514C126.983 22.1514 126.396 21.8405 126.021 21.2188C125.647 20.597 125.46 19.6481 125.46 18.3721C125.46 17.0602 125.649 16.1016 126.026 15.4961C126.407 14.8874 126.993 14.583 127.784 14.583C128.585 14.583 129.173 14.8971 129.547 15.5254C129.921 16.1536 130.108 17.0993 130.108 18.3623ZM128.858 20.5791C128.953 20.3382 129.02 20.0339 129.059 19.666C129.098 19.2982 129.117 18.8636 129.117 18.3623C129.117 17.8643 129.098 17.4313 129.059 17.0635C129.02 16.6956 128.951 16.3896 128.854 16.1455C128.756 15.8981 128.621 15.7109 128.448 15.584C128.279 15.4538 128.058 15.3887 127.784 15.3887C127.514 15.3887 127.291 15.4538 127.115 15.584C126.943 15.7109 126.806 15.9014 126.705 16.1553C126.607 16.4027 126.541 16.7152 126.505 17.0928C126.469 17.4704 126.451 17.8968 126.451 18.3721C126.451 18.8799 126.466 19.3047 126.495 19.6465C126.528 19.9883 126.596 20.2943 126.7 20.5645C126.795 20.8151 126.928 21.0088 127.101 21.1455C127.276 21.279 127.504 21.3457 127.784 21.3457C128.054 21.3457 128.276 21.2822 128.448 21.1553C128.624 21.0251 128.761 20.833 128.858 20.5791ZM132.608 22H131.441V20.6084H132.608V22ZM138.478 19.6855C138.478 20.0371 138.421 20.3626 138.307 20.6621C138.196 20.9616 138.04 21.2204 137.838 21.4385C137.633 21.6598 137.377 21.834 137.071 21.9609C136.769 22.0879 136.428 22.1514 136.051 22.1514C135.702 22.1514 135.359 22.1123 135.021 22.0342C134.685 21.9593 134.394 21.86 134.146 21.7363V20.7061H134.215C134.29 20.7614 134.397 20.8249 134.537 20.8965C134.677 20.9648 134.832 21.0299 135.001 21.0918C135.193 21.1602 135.369 21.2139 135.528 21.2529C135.688 21.2887 135.867 21.3066 136.065 21.3066C136.261 21.3066 136.451 21.2725 136.637 21.2041C136.822 21.1325 136.982 21.0186 137.115 20.8623C137.236 20.7191 137.327 20.5514 137.389 20.3594C137.454 20.1673 137.486 19.9411 137.486 19.6807C137.486 19.4235 137.451 19.2119 137.379 19.0459C137.311 18.8799 137.21 18.7432 137.076 18.6357C136.936 18.512 136.764 18.4258 136.559 18.377C136.357 18.3249 136.131 18.2988 135.88 18.2988C135.616 18.2988 135.351 18.32 135.084 18.3623C134.817 18.4014 134.604 18.4388 134.444 18.4746V14.7295H138.434V15.584H135.387V17.5176C135.504 17.5046 135.619 17.4948 135.733 17.4883C135.847 17.4818 135.951 17.4785 136.046 17.4785C136.417 17.4785 136.731 17.5094 136.988 17.5713C137.245 17.6331 137.493 17.7536 137.73 17.9326C137.971 18.1149 138.155 18.3428 138.282 18.6162C138.412 18.8896 138.478 19.2461 138.478 19.6855Z" fill="#606580"/>
<path d="M176.686 67.765V44.0495" stroke="#F7931E"/>
<path d="M227.372 54.0701L227.372 45.3856" stroke="#F7931E"/>
<path d="M278.058 61.4185L278.058 45.3856" stroke="#F7931E"/>
<path d="M143.006 44.0495H168.016L176.686 67.7649H210.699L219.035 44.0495H261.385L269.388 67.7649L278.058 44.0495H314" stroke="#0089FF"/>
<path d="M143.006 44.0495H176.686L185.356 67.7649H210.699L219.035 44.0495L227.372 54.0701L236.042 44.0495H261.385L269.388 67.7649L278.058 61.4186L286.728 44.0495H314" stroke="white"/>
<path d="M177.953 67.765C177.953 68.467 177.385 69.0351 176.686 69.0351C175.986 69.0351 175.418 68.467 175.418 67.765C175.418 67.0629 175.986 66.4948 176.686 66.4948C177.385 66.4948 177.953 67.0629 177.953 67.765Z" fill="#12151E" stroke="#F7931E" stroke-width="0.8"/>
<path d="M228.639 44.3835C228.639 45.0856 228.071 45.6536 227.372 45.6536C226.672 45.6536 226.104 45.0856 226.104 44.3835C226.104 43.6814 226.672 43.1134 227.372 43.1134C228.071 43.1134 228.639 43.6814 228.639 44.3835Z" fill="#12151E" stroke="#F7931E" stroke-width="0.8"/>
<path d="M279.325 44.3835C279.325 45.0856 278.757 45.6536 278.058 45.6536C277.358 45.6536 276.79 45.0856 276.79 44.3835C276.79 43.6814 277.358 43.1134 278.058 43.1134C278.757 43.1134 279.325 43.6814 279.325 44.3835Z" fill="#12151E" stroke="#F7931E" stroke-width="0.8"/>
<path d="M177.953 44.0495C177.953 44.7516 177.385 45.3196 176.686 45.3196C175.986 45.3196 175.418 44.7516 175.418 44.0495C175.418 43.3474 175.986 42.7794 176.686 42.7794C177.385 42.7794 177.953 43.3474 177.953 44.0495Z" fill="#12151E" stroke="#F7931E" stroke-width="0.8"/>
<path d="M228.639 53.068C228.639 53.7701 228.071 54.3381 227.372 54.3381C226.672 54.3381 226.104 53.7701 226.104 53.068C226.104 52.3659 226.672 51.7979 227.372 51.7979C228.071 51.7979 228.639 52.3659 228.639 53.068Z" fill="#12151E" stroke="#F7931E" stroke-width="0.8"/>
<path d="M279.325 62.0866C279.325 62.7887 278.757 63.3567 278.058 63.3567C277.358 63.3567 276.79 62.7887 276.79 62.0866C276.79 61.3845 277.358 60.8165 278.058 60.8165C278.757 60.8165 279.325 61.3845 279.325 62.0866Z" fill="#12151E" stroke="#F7931E" stroke-width="0.8"/>
<path opacity="0.05" d="M318.564 44.1697C318.564 46.5343 316.593 48.4729 314.135 48.4729C311.677 48.4729 309.706 46.5343 309.706 44.1697C309.706 41.8052 311.677 39.8665 314.135 39.8665C316.593 39.8665 318.564 41.8052 318.564 44.1697Z" fill="white" stroke="white"/>
<path opacity="0.2" d="M316.743 44.1697C316.743 45.5524 315.588 46.6959 314.135 46.6959C312.682 46.6959 311.527 45.5524 311.527 44.1697C311.527 42.7869 312.682 41.6434 314.135 41.6434C315.588 41.6434 316.743 42.7869 316.743 44.1697Z" fill="white" stroke="white"/>
<path opacity="0.5" d="M314.135 45.8131C315.067 45.8131 315.823 45.0773 315.823 44.1697C315.823 43.2621 315.067 42.5263 314.135 42.5263C313.203 42.5263 312.448 43.2621 312.448 44.1697C312.448 45.0773 313.203 45.8131 314.135 45.8131Z" fill="white" stroke="white" stroke-miterlimit="10"/>
<path d="M314.289 44.1697C314.289 44.2559 314.219 44.3244 314.135 44.3244C314.051 44.3244 313.982 44.2559 313.982 44.1697C313.982 44.0835 314.051 44.015 314.135 44.015C314.219 44.015 314.289 44.0835 314.289 44.1697Z" fill="white" stroke="white"/>
<path d="M144.887 105H141.342V104.258H142.661V99.3848H141.342V98.7207C141.84 98.7207 142.206 98.6507 142.441 98.5107C142.678 98.3675 142.812 98.099 142.841 97.7051H143.598V104.258H144.887V105Z" fill="#606580"/>
<path d="M178.967 102.686C178.967 103.037 178.91 103.363 178.796 103.662C178.685 103.962 178.529 104.22 178.327 104.438C178.122 104.66 177.866 104.834 177.56 104.961C177.258 105.088 176.917 105.151 176.54 105.151C176.192 105.151 175.848 105.112 175.51 105.034C175.174 104.959 174.883 104.86 174.636 104.736V103.706H174.704C174.779 103.761 174.886 103.825 175.026 103.896C175.166 103.965 175.321 104.03 175.49 104.092C175.682 104.16 175.858 104.214 176.017 104.253C176.177 104.289 176.356 104.307 176.554 104.307C176.75 104.307 176.94 104.272 177.126 104.204C177.311 104.132 177.471 104.019 177.604 103.862C177.725 103.719 177.816 103.551 177.878 103.359C177.943 103.167 177.975 102.941 177.975 102.681C177.975 102.424 177.94 102.212 177.868 102.046C177.8 101.88 177.699 101.743 177.565 101.636C177.425 101.512 177.253 101.426 177.048 101.377C176.846 101.325 176.62 101.299 176.369 101.299C176.105 101.299 175.84 101.32 175.573 101.362C175.306 101.401 175.093 101.439 174.933 101.475V97.7295H178.923V98.584H175.876V100.518C175.993 100.505 176.109 100.495 176.222 100.488C176.336 100.482 176.441 100.479 176.535 100.479C176.906 100.479 177.22 100.509 177.477 100.571C177.734 100.633 177.982 100.754 178.22 100.933C178.46 101.115 178.644 101.343 178.771 101.616C178.901 101.89 178.967 102.246 178.967 102.686Z" fill="#606580"/>
<path d="M218.188 105H214.643V104.258H215.962V99.3848H214.643V98.7207C215.142 98.7207 215.508 98.6507 215.742 98.5107C215.98 98.3675 216.113 98.099 216.142 97.7051H216.899V104.258H218.188V105ZM224.053 101.362C224.053 102.668 223.862 103.626 223.481 104.238C223.104 104.847 222.519 105.151 221.728 105.151C220.928 105.151 220.34 104.84 219.966 104.219C219.591 103.597 219.404 102.648 219.404 101.372C219.404 100.06 219.593 99.1016 219.971 98.4961C220.351 97.8874 220.937 97.583 221.728 97.583C222.529 97.583 223.117 97.8971 223.491 98.5254C223.865 99.1536 224.053 100.099 224.053 101.362ZM222.803 103.579C222.897 103.338 222.964 103.034 223.003 102.666C223.042 102.298 223.061 101.864 223.061 101.362C223.061 100.864 223.042 100.431 223.003 100.063C222.964 99.6956 222.895 99.3896 222.798 99.1455C222.7 98.8981 222.565 98.7109 222.392 98.584C222.223 98.4538 222.002 98.3887 221.728 98.3887C221.458 98.3887 221.235 98.4538 221.059 98.584C220.887 98.7109 220.75 98.9014 220.649 99.1553C220.552 99.4027 220.485 99.7152 220.449 100.093C220.413 100.47 220.395 100.897 220.395 101.372C220.395 101.88 220.41 102.305 220.439 102.646C220.472 102.988 220.54 103.294 220.644 103.564C220.739 103.815 220.872 104.009 221.045 104.146C221.221 104.279 221.448 104.346 221.728 104.346C221.999 104.346 222.22 104.282 222.392 104.155C222.568 104.025 222.705 103.833 222.803 103.579Z" fill="#606580"/>
<path d="M260.428 105H256.883V104.258H258.201V99.3848H256.883V98.7207C257.381 98.7207 257.747 98.6507 257.982 98.5107C258.219 98.3675 258.353 98.099 258.382 97.7051H259.139V104.258H260.428V105ZM266.175 102.686C266.175 103.037 266.118 103.363 266.004 103.662C265.893 103.962 265.737 104.22 265.535 104.438C265.33 104.66 265.075 104.834 264.769 104.961C264.466 105.088 264.126 105.151 263.748 105.151C263.4 105.151 263.056 105.112 262.718 105.034C262.383 104.959 262.091 104.86 261.844 104.736V103.706H261.912C261.987 103.761 262.095 103.825 262.235 103.896C262.375 103.965 262.529 104.03 262.698 104.092C262.89 104.16 263.066 104.214 263.226 104.253C263.385 104.289 263.564 104.307 263.763 104.307C263.958 104.307 264.149 104.272 264.334 104.204C264.52 104.132 264.679 104.019 264.813 103.862C264.933 103.719 265.024 103.551 265.086 103.359C265.151 103.167 265.184 102.941 265.184 102.681C265.184 102.424 265.148 102.212 265.076 102.046C265.008 101.88 264.907 101.743 264.774 101.636C264.634 101.512 264.461 101.426 264.256 101.377C264.054 101.325 263.828 101.299 263.577 101.299C263.314 101.299 263.048 101.32 262.781 101.362C262.514 101.401 262.301 101.439 262.142 101.475V97.7295H266.131V98.584H263.084V100.518C263.201 100.505 263.317 100.495 263.431 100.488C263.545 100.482 263.649 100.479 263.743 100.479C264.114 100.479 264.429 100.509 264.686 100.571C264.943 100.633 265.19 100.754 265.428 100.933C265.669 101.115 265.853 101.343 265.98 101.616C266.11 101.89 266.175 102.246 266.175 102.686Z" fill="#606580"/>
<path d="M303.038 105H298.551V103.979C298.873 103.674 299.178 103.381 299.464 103.101C299.751 102.821 300.031 102.529 300.304 102.227C300.857 101.618 301.235 101.131 301.437 100.767C301.639 100.399 301.74 100.02 301.74 99.6289C301.74 99.4271 301.707 99.2497 301.642 99.0967C301.58 98.9437 301.494 98.8167 301.383 98.7158C301.269 98.6182 301.137 98.5449 300.988 98.4961C300.838 98.4473 300.674 98.4229 300.495 98.4229C300.322 98.4229 300.146 98.4456 299.967 98.4912C299.791 98.5335 299.622 98.5872 299.459 98.6523C299.323 98.7077 299.191 98.7744 299.064 98.8525C298.937 98.9307 298.834 98.9974 298.756 99.0527H298.703V98.0176C298.904 97.9167 299.184 97.819 299.542 97.7246C299.904 97.627 300.246 97.5781 300.568 97.5781C301.245 97.5781 301.775 97.7588 302.16 98.1201C302.544 98.4782 302.736 98.9648 302.736 99.5801C302.736 99.8633 302.702 100.125 302.633 100.366C302.568 100.607 302.477 100.83 302.36 101.035C302.239 101.247 302.094 101.457 301.925 101.665C301.756 101.873 301.577 102.078 301.388 102.28C301.082 102.612 300.74 102.957 300.363 103.315C299.988 103.674 299.689 103.957 299.464 104.165H303.038V105ZM308.532 101.362C308.532 102.668 308.341 103.626 307.96 104.238C307.583 104.847 306.998 105.151 306.207 105.151C305.407 105.151 304.819 104.84 304.445 104.219C304.07 103.597 303.883 102.648 303.883 101.372C303.883 100.06 304.072 99.1016 304.45 98.4961C304.83 97.8874 305.416 97.583 306.207 97.583C307.008 97.583 307.596 97.8971 307.97 98.5254C308.344 99.1536 308.532 100.099 308.532 101.362ZM307.282 103.579C307.376 103.338 307.443 103.034 307.482 102.666C307.521 102.298 307.54 101.864 307.54 101.362C307.54 100.864 307.521 100.431 307.482 100.063C307.443 99.6956 307.374 99.3896 307.277 99.1455C307.179 98.8981 307.044 98.7109 306.871 98.584C306.702 98.4538 306.481 98.3887 306.207 98.3887C305.937 98.3887 305.714 98.4538 305.538 98.584C305.366 98.7109 305.229 98.9014 305.128 99.1553C305.031 99.4027 304.964 99.7152 304.928 100.093C304.892 100.47 304.874 100.897 304.874 101.372C304.874 101.88 304.889 102.305 304.918 102.646C304.951 102.988 305.019 103.294 305.123 103.564C305.218 103.815 305.351 104.009 305.524 104.146C305.7 104.279 305.927 104.346 306.207 104.346C306.478 104.346 306.699 104.282 306.871 104.155C307.047 104.025 307.184 103.833 307.282 103.579Z" fill="#606580"/>
<defs>
<linearGradient id="paint0_linear" x1="95.4914" y1="67.1178" x2="57.0556" y2="54.8527" gradientUnits="userSpaceOnUse">
<stop stop-color="#D7E2F2"/>
<stop offset="0.0001" stop-color="#D7E2F2" stop-opacity="0.35"/>
<stop offset="0.838" stop-color="#D7E2F2" stop-opacity="0"/>
</linearGradient>
</defs>
</svg>
