<svg width="324" height="117" viewBox="0 0 324 117" fill="none" xmlns="http://www.w3.org/2000/svg">
<rect x="14" y="9" width="304.545" height="95.4545" fill="#12151E"/>
<path d="M15.3268 109.909H13.7154V109.572H14.3147V107.357H13.7154V107.055C13.9418 107.055 14.1083 107.023 14.2148 106.959C14.3228 106.894 14.3835 106.772 14.3968 106.593H14.7408V109.572H15.3268V109.909Z" fill="#606580"/>
<rect x="14.2259" y="9" width="0.454545" height="95" fill="#606580" fill-opacity="0.25"/>
<path d="M25.6318 109.909H23.5921V109.445C23.7386 109.306 23.877 109.173 24.0072 109.046C24.1374 108.918 24.2646 108.786 24.3889 108.648C24.6405 108.372 24.8121 108.151 24.9038 107.985C24.9956 107.818 25.0415 107.645 25.0415 107.468C25.0415 107.376 25.0267 107.295 24.9971 107.226C24.9689 107.156 24.9297 107.099 24.8794 107.053C24.8276 107.008 24.7677 106.975 24.6997 106.953C24.6316 106.931 24.5569 106.919 24.4755 106.919C24.3971 106.919 24.3172 106.93 24.2358 106.951C24.1559 106.97 24.0789 106.994 24.005 107.024C23.9428 107.049 23.8829 107.079 23.8252 107.115C23.7675 107.15 23.7209 107.181 23.6854 107.206H23.6609V106.735C23.7527 106.689 23.8799 106.645 24.0427 106.602C24.2069 106.558 24.3623 106.536 24.5088 106.536C24.8165 106.536 25.0577 106.618 25.2323 106.782C25.4069 106.945 25.4942 107.166 25.4942 107.446C25.4942 107.574 25.4787 107.693 25.4476 107.803C25.418 107.912 25.3766 108.014 25.3233 108.107C25.2686 108.203 25.2027 108.299 25.1258 108.393C25.0488 108.488 24.9675 108.581 24.8817 108.673C24.7426 108.824 24.5872 108.981 24.4156 109.143C24.2454 109.306 24.1093 109.435 24.0072 109.53H25.6318V109.909Z" fill="#606580"/>
<rect x="24.3622" y="9" width="0.454545" height="95" fill="#606580" fill-opacity="0.25"/>
<path d="M34.6207 106.919C34.5408 106.919 34.4609 106.929 34.381 106.948C34.3011 106.968 34.2227 106.993 34.1458 107.024C34.0747 107.053 34.0126 107.084 33.9593 107.117C33.9075 107.15 33.8609 107.18 33.8195 107.208H33.7929V106.74C33.889 106.688 34.0192 106.641 34.1835 106.6C34.3492 106.557 34.5068 106.536 34.6562 106.536C34.8057 106.536 34.9359 106.551 35.0469 106.582C35.1593 106.612 35.2607 106.658 35.3509 106.722C35.4486 106.793 35.5218 106.879 35.5706 106.979C35.621 107.08 35.6461 107.198 35.6461 107.332C35.6461 107.514 35.5862 107.674 35.4663 107.812C35.3465 107.949 35.203 108.037 35.0358 108.074V108.105C35.1053 108.118 35.1793 108.141 35.2577 108.173C35.3376 108.206 35.4116 108.254 35.4797 108.318C35.5477 108.381 35.6032 108.463 35.6461 108.564C35.689 108.663 35.7105 108.785 35.7105 108.928C35.7105 109.078 35.6846 109.215 35.6328 109.341C35.5825 109.465 35.5107 109.575 35.4175 109.672C35.3213 109.772 35.2052 109.848 35.0691 109.9C34.9329 109.952 34.7783 109.978 34.6052 109.978C34.4395 109.978 34.2752 109.958 34.1125 109.918C33.9497 109.878 33.8128 109.83 33.7019 109.774V109.305H33.7329C33.8262 109.373 33.9512 109.439 34.108 109.501C34.2649 109.563 34.4217 109.594 34.5785 109.594C34.6688 109.594 34.7591 109.58 34.8493 109.552C34.9411 109.522 35.0173 109.475 35.0779 109.41C35.1371 109.345 35.1822 109.273 35.2133 109.194C35.2444 109.116 35.2599 109.017 35.2599 108.897C35.2599 108.777 35.2422 108.679 35.2067 108.602C35.1726 108.525 35.1245 108.464 35.0624 108.42C35.0002 108.375 34.9263 108.345 34.8404 108.329C34.7561 108.311 34.6644 108.302 34.5652 108.302H34.3766V107.934H34.5231C34.7228 107.934 34.8848 107.886 35.0091 107.792C35.1349 107.697 35.1978 107.559 35.1978 107.379C35.1978 107.296 35.1815 107.225 35.149 107.166C35.1164 107.105 35.075 107.057 35.0247 107.022C34.9684 106.983 34.9063 106.956 34.8382 106.942C34.7702 106.927 34.6977 106.919 34.6207 106.919Z" fill="#606580"/>
<rect x="34.4985" y="9" width="0.454545" height="95" fill="#606580" fill-opacity="0.25"/>
<path d="M45.9912 108.773H45.5983V109.909H45.1722V108.773H43.7118V108.307L45.1899 106.604H45.5983V108.418H45.9912V108.773ZM45.1722 108.418V107.126L44.058 108.418H45.1722Z" fill="#606580"/>
<rect x="44.6349" y="9" width="0.454545" height="95" fill="#606580" fill-opacity="0.25"/>
<path d="M56.0032 108.857C56.0032 109.017 55.9773 109.165 55.9255 109.301C55.8752 109.437 55.8042 109.555 55.7124 109.654C55.6192 109.754 55.5031 109.834 55.364 109.891C55.2264 109.949 55.0718 109.978 54.9001 109.978C54.7418 109.978 54.5857 109.96 54.4318 109.925C54.2794 109.891 54.147 109.845 54.0345 109.789V109.321H54.0656C54.0996 109.346 54.1485 109.375 54.2121 109.408C54.2757 109.439 54.346 109.468 54.4229 109.496C54.5102 109.527 54.5901 109.552 54.6626 109.57C54.7351 109.586 54.8165 109.594 54.9068 109.594C54.9956 109.594 55.0821 109.578 55.1664 109.547C55.2508 109.515 55.3233 109.463 55.384 109.392C55.4387 109.327 55.4801 109.251 55.5082 109.163C55.5378 109.076 55.5526 108.973 55.5526 108.855C55.5526 108.738 55.5364 108.642 55.5038 108.566C55.4727 108.491 55.4269 108.429 55.3662 108.38C55.3026 108.324 55.2242 108.284 55.1309 108.262C55.0392 108.239 54.9364 108.227 54.8224 108.227C54.7026 108.227 54.582 108.236 54.4607 108.256C54.3393 108.273 54.2424 108.29 54.1699 108.307V106.604H55.9832V106.993H54.5983V107.872C54.6515 107.866 54.7041 107.861 54.7558 107.858C54.8076 107.855 54.855 107.854 54.8979 107.854C55.0666 107.854 55.2094 107.868 55.3262 107.896C55.4431 107.924 55.5556 107.979 55.6636 108.06C55.7731 108.143 55.8567 108.247 55.9144 108.371C55.9736 108.495 56.0032 108.657 56.0032 108.857Z" fill="#606580"/>
<rect x="54.7712" y="9" width="0.454545" height="95" fill="#606580" fill-opacity="0.25"/>
<path d="M66.2284 108.837C66.2284 109.007 66.2003 109.164 66.144 109.308C66.0878 109.451 66.0123 109.571 65.9177 109.667C65.8185 109.769 65.7075 109.847 65.5847 109.9C65.4619 109.952 65.3265 109.978 65.1786 109.978C65.0291 109.978 64.893 109.953 64.7702 109.902C64.6489 109.852 64.5416 109.777 64.4484 109.678C64.3344 109.558 64.2449 109.399 64.1798 109.199C64.1162 108.998 64.0844 108.751 64.0844 108.458C64.0844 108.171 64.114 107.912 64.1732 107.681C64.2323 107.448 64.3233 107.246 64.4462 107.075C64.566 106.908 64.7206 106.777 64.91 106.684C65.0994 106.59 65.3184 106.542 65.567 106.542C65.641 106.542 65.7098 106.546 65.7734 106.553C65.837 106.561 65.8932 106.573 65.9421 106.589V107.013H65.9221C65.8821 106.991 65.8244 106.971 65.749 106.953C65.6735 106.934 65.5929 106.924 65.5071 106.924C65.2318 106.924 65.0092 107.017 64.839 107.204C64.6703 107.389 64.5704 107.664 64.5394 108.029C64.6444 107.955 64.7524 107.898 64.8634 107.858C64.9744 107.818 65.0957 107.798 65.2274 107.798C65.3561 107.798 65.4686 107.812 65.5648 107.838C65.6624 107.864 65.7638 107.915 65.8688 107.994C65.9902 108.085 66.0804 108.202 66.1396 108.342C66.1988 108.483 66.2284 108.648 66.2284 108.837ZM65.7778 108.855C65.7778 108.719 65.7601 108.605 65.7246 108.513C65.689 108.421 65.6313 108.343 65.5514 108.278C65.4937 108.23 65.4279 108.199 65.3539 108.185C65.2814 108.17 65.2067 108.162 65.1297 108.162C65.0262 108.162 64.9256 108.178 64.8279 108.209C64.7302 108.24 64.6341 108.285 64.5394 108.344C64.5364 108.377 64.5342 108.409 64.5327 108.44C64.5312 108.469 64.5305 108.507 64.5305 108.553C64.5305 108.782 64.5527 108.967 64.5971 109.108C64.6429 109.248 64.6992 109.355 64.7658 109.427C64.8294 109.497 64.8945 109.546 64.9611 109.574C65.0291 109.602 65.1024 109.616 65.1808 109.616C65.3583 109.616 65.5019 109.553 65.6114 109.425C65.7223 109.298 65.7778 109.108 65.7778 108.855Z" fill="#606580"/>
<rect x="64.9077" y="9" width="0.454545" height="95" fill="#606580" fill-opacity="0.25"/>
<path d="M76.3492 107.099L74.9199 109.909H74.4471L75.9608 106.993H74.2518V106.604H76.3492V107.099Z" fill="#606580"/>
<rect x="75.044" y="9" width="0.454545" height="95" fill="#606580" fill-opacity="0.25"/>
<path d="M85.9684 107.374C85.9684 107.227 85.9188 107.103 85.8197 107.004C85.7206 106.905 85.583 106.855 85.4069 106.855C85.2456 106.855 85.1132 106.9 85.0096 106.988C84.9075 107.077 84.8565 107.197 84.8565 107.348C84.8565 107.457 84.8824 107.55 84.9341 107.625C84.9874 107.701 85.0666 107.769 85.1716 107.829C85.2175 107.855 85.287 107.889 85.3803 107.934C85.475 107.978 85.5608 108.013 85.6377 108.038C85.7664 107.939 85.8537 107.838 85.8996 107.734C85.9455 107.629 85.9684 107.509 85.9684 107.374ZM86.0306 109.03C86.0306 108.894 86.0039 108.786 85.9507 108.706C85.8974 108.626 85.7946 108.545 85.6422 108.462C85.5918 108.434 85.5245 108.404 85.4402 108.371C85.3573 108.338 85.2634 108.3 85.1583 108.256C85.0355 108.337 84.9415 108.438 84.8764 108.557C84.8113 108.676 84.7788 108.811 84.7788 108.964C84.7788 109.163 84.8387 109.328 84.9586 109.459C85.0799 109.589 85.2316 109.654 85.4135 109.654C85.6 109.654 85.7494 109.598 85.8619 109.487C85.9743 109.375 86.0306 109.223 86.0306 109.03ZM85.4091 109.985C85.2449 109.985 85.0954 109.96 84.9608 109.911C84.8261 109.862 84.7115 109.792 84.6168 109.7C84.5235 109.612 84.4525 109.507 84.4037 109.385C84.3563 109.263 84.3327 109.133 84.3327 108.997C84.3327 108.818 84.38 108.654 84.4747 108.504C84.5709 108.353 84.71 108.233 84.892 108.145V108.131C84.7292 108.037 84.6086 107.933 84.5302 107.821C84.4518 107.708 84.4126 107.568 84.4126 107.399C84.4126 107.15 84.5065 106.943 84.6944 106.777C84.8824 106.612 85.1206 106.529 85.4091 106.529C85.7095 106.529 85.9499 106.608 86.1304 106.766C86.3124 106.923 86.4034 107.124 86.4034 107.37C86.4034 107.518 86.3598 107.664 86.2725 107.809C86.1867 107.954 86.0624 108.068 85.8996 108.149V108.162C86.092 108.253 86.2377 108.362 86.3368 108.491C86.436 108.62 86.4855 108.785 86.4855 108.988C86.4855 109.271 86.3827 109.507 86.177 109.698C85.9729 109.889 85.7169 109.985 85.4091 109.985Z" fill="#606580"/>
<rect x="85.1803" y="9" width="0.454545" height="95" fill="#606580" fill-opacity="0.25"/>
<path d="M96.1514 107.963C96.1514 107.738 96.1307 107.555 96.0892 107.414C96.0478 107.272 95.9908 107.163 95.9183 107.086C95.8532 107.015 95.7874 106.966 95.7208 106.939C95.6542 106.913 95.581 106.9 95.5011 106.9C95.3191 106.9 95.1741 106.965 95.0661 107.095C94.958 107.225 94.904 107.414 94.904 107.661C94.904 107.8 94.9218 107.915 94.9573 108.005C94.9928 108.095 95.0505 108.173 95.1304 108.238C95.1866 108.284 95.2503 108.315 95.3213 108.331C95.3923 108.346 95.4685 108.353 95.5499 108.353C95.6446 108.353 95.7467 108.337 95.8562 108.304C95.9657 108.27 96.0611 108.226 96.1425 108.171C96.144 108.149 96.1455 108.12 96.1469 108.085C96.1499 108.048 96.1514 108.007 96.1514 107.963ZM94.4535 107.679C94.4535 107.508 94.4809 107.353 94.5356 107.212C94.5918 107.072 94.668 106.951 94.7642 106.848C94.8559 106.751 94.9677 106.675 95.0993 106.62C95.2325 106.565 95.3672 106.538 95.5033 106.538C95.6557 106.538 95.7933 106.564 95.9161 106.615C96.0404 106.666 96.1477 106.739 96.2379 106.835C96.3519 106.956 96.4399 107.116 96.502 107.312C96.5657 107.509 96.5975 107.758 96.5975 108.058C96.5975 108.332 96.5664 108.591 96.5043 108.837C96.4436 109.081 96.3533 109.284 96.2335 109.445C96.1062 109.617 95.9531 109.748 95.7741 109.838C95.5965 109.928 95.3768 109.973 95.1149 109.973C95.0557 109.973 94.9928 109.97 94.9262 109.962C94.8596 109.956 94.7975 109.945 94.7398 109.927V109.503H94.762C94.799 109.524 94.8567 109.544 94.9351 109.563C95.0135 109.582 95.0934 109.592 95.1748 109.592C95.4648 109.592 95.6927 109.496 95.8584 109.305C96.0241 109.115 96.1181 108.842 96.1403 108.486C96.0219 108.566 95.9087 108.625 95.8007 108.662C95.6942 108.699 95.578 108.717 95.4522 108.717C95.3294 108.717 95.2177 108.704 95.1171 108.677C95.0165 108.651 94.9151 108.599 94.813 108.522C94.6947 108.432 94.6051 108.318 94.5445 108.18C94.4838 108.041 94.4535 107.874 94.4535 107.679Z" fill="#606580"/>
<rect x="95.3168" y="9" width="0.454545" height="95" fill="#606580" fill-opacity="0.25"/>
<path d="M105.541 109.909H103.929V109.572H104.529V107.357H103.929V107.055C104.156 107.055 104.322 107.023 104.429 106.959C104.537 106.894 104.597 106.772 104.611 106.593H104.955V109.572H105.541V109.909ZM108.206 108.256C108.206 108.849 108.12 109.285 107.947 109.563C107.775 109.84 107.509 109.978 107.15 109.978C106.786 109.978 106.519 109.837 106.349 109.554C106.178 109.271 106.093 108.84 106.093 108.26C106.093 107.664 106.179 107.228 106.351 106.953C106.524 106.676 106.79 106.538 107.15 106.538C107.514 106.538 107.781 106.681 107.951 106.966C108.121 107.252 108.206 107.682 108.206 108.256ZM107.638 109.263C107.681 109.154 107.711 109.015 107.729 108.848C107.747 108.681 107.756 108.483 107.756 108.256C107.756 108.029 107.747 107.832 107.729 107.665C107.711 107.498 107.68 107.359 107.636 107.248C107.592 107.136 107.53 107.05 107.452 106.993C107.375 106.934 107.274 106.904 107.15 106.904C107.027 106.904 106.926 106.934 106.846 106.993C106.767 107.05 106.705 107.137 106.659 107.252C106.615 107.365 106.585 107.507 106.568 107.679C106.552 107.85 106.544 108.044 106.544 108.26C106.544 108.491 106.551 108.684 106.564 108.839C106.579 108.995 106.61 109.134 106.657 109.257C106.7 109.371 106.761 109.459 106.839 109.521C106.919 109.581 107.023 109.612 107.15 109.612C107.273 109.612 107.373 109.583 107.452 109.525C107.532 109.466 107.594 109.379 107.638 109.263Z" fill="#606580"/>
<rect x="105.453" y="9" width="0.454545" height="95" fill="#606580" fill-opacity="0.25"/>
<path d="M115.677 109.909H114.066V109.572H114.665V107.357H114.066V107.055C114.292 107.055 114.458 107.023 114.565 106.959C114.673 106.894 114.734 106.772 114.747 106.593H115.091V109.572H115.677V109.909ZM118.158 109.909H116.547V109.572H117.146V107.357H116.547V107.055C116.773 107.055 116.94 107.023 117.046 106.959C117.154 106.894 117.215 106.772 117.228 106.593H117.572V109.572H118.158V109.909Z" fill="#606580"/>
<rect x="115.589" y="9" width="0.454545" height="95" fill="#606580" fill-opacity="0.25"/>
<path d="M125.813 109.909H124.202V109.572H124.801V107.357H124.202V107.055C124.428 107.055 124.595 107.023 124.701 106.959C124.809 106.894 124.87 106.772 124.883 106.593H125.227V109.572H125.813V109.909ZM128.463 109.909H126.424V109.445C126.57 109.306 126.709 109.173 126.839 109.046C126.969 108.918 127.096 108.786 127.221 108.648C127.472 108.372 127.644 108.151 127.735 107.985C127.827 107.818 127.873 107.645 127.873 107.468C127.873 107.376 127.858 107.295 127.829 107.226C127.801 107.156 127.761 107.099 127.711 107.053C127.659 107.008 127.599 106.975 127.531 106.953C127.463 106.931 127.388 106.919 127.307 106.919C127.229 106.919 127.149 106.93 127.067 106.951C126.987 106.97 126.911 106.994 126.837 107.024C126.774 107.049 126.714 107.079 126.657 107.115C126.599 107.15 126.552 107.181 126.517 107.206H126.493V106.735C126.584 106.689 126.712 106.645 126.874 106.602C127.039 106.558 127.194 106.536 127.34 106.536C127.648 106.536 127.889 106.618 128.064 106.782C128.239 106.945 128.326 107.166 128.326 107.446C128.326 107.574 128.31 107.693 128.279 107.803C128.25 107.912 128.208 108.014 128.155 108.107C128.1 108.203 128.034 108.299 127.957 108.393C127.88 108.488 127.799 108.581 127.713 108.673C127.574 108.824 127.419 108.981 127.247 109.143C127.077 109.306 126.941 109.435 126.839 109.53H128.463V109.909Z" fill="#606580"/>
<rect x="125.726" y="9" width="0.454545" height="95" fill="#606580" fill-opacity="0.25"/>
<path d="M135.95 109.909H134.338V109.572H134.938V107.357H134.338V107.055C134.565 107.055 134.731 107.023 134.838 106.959C134.946 106.894 135.007 106.772 135.02 106.593H135.364V109.572H135.95V109.909ZM137.452 106.919C137.372 106.919 137.293 106.929 137.213 106.948C137.133 106.968 137.054 106.993 136.977 107.024C136.906 107.053 136.844 107.084 136.791 107.117C136.739 107.15 136.693 107.18 136.651 107.208H136.625V106.74C136.721 106.688 136.851 106.641 137.015 106.6C137.181 106.557 137.338 106.536 137.488 106.536C137.637 106.536 137.768 106.551 137.879 106.582C137.991 106.612 138.092 106.658 138.183 106.722C138.28 106.793 138.353 106.879 138.402 106.979C138.453 107.08 138.478 107.198 138.478 107.332C138.478 107.514 138.418 107.674 138.298 107.812C138.178 107.949 138.035 108.037 137.867 108.074V108.105C137.937 108.118 138.011 108.141 138.089 108.173C138.169 108.206 138.243 108.254 138.311 108.318C138.379 108.381 138.435 108.463 138.478 108.564C138.521 108.663 138.542 108.785 138.542 108.928C138.542 109.078 138.516 109.215 138.464 109.341C138.414 109.465 138.342 109.575 138.249 109.672C138.153 109.772 138.037 109.848 137.901 109.9C137.765 109.952 137.61 109.978 137.437 109.978C137.271 109.978 137.107 109.958 136.944 109.918C136.781 109.878 136.644 109.83 136.534 109.774V109.305H136.565C136.658 109.373 136.783 109.439 136.94 109.501C137.097 109.563 137.253 109.594 137.41 109.594C137.5 109.594 137.591 109.58 137.681 109.552C137.773 109.522 137.849 109.475 137.91 109.41C137.969 109.345 138.014 109.273 138.045 109.194C138.076 109.116 138.092 109.017 138.092 108.897C138.092 108.777 138.074 108.679 138.038 108.602C138.004 108.525 137.956 108.464 137.894 108.42C137.832 108.375 137.758 108.345 137.672 108.329C137.588 108.311 137.496 108.302 137.397 108.302H137.208V107.934H137.355C137.554 107.934 137.716 107.886 137.841 107.792C137.967 107.697 138.029 107.559 138.029 107.379C138.029 107.296 138.013 107.225 137.981 107.166C137.948 107.105 137.907 107.057 137.856 107.022C137.8 106.983 137.738 106.956 137.67 106.942C137.602 106.927 137.529 106.919 137.452 106.919Z" fill="#606580"/>
<rect x="135.862" y="9" width="0.454545" height="95" fill="#606580" fill-opacity="0.25"/>
<path d="M146.086 109.909H144.475V109.572H145.074V107.357H144.475V107.055C144.701 107.055 144.868 107.023 144.974 106.959C145.082 106.894 145.143 106.772 145.156 106.593H145.5V109.572H146.086V109.909ZM148.823 108.773H148.43V109.909H148.004V108.773H146.543V108.307L148.022 106.604H148.43V108.418H148.823V108.773ZM148.004 108.418V107.126L146.89 108.418H148.004Z" fill="#606580"/>
<rect x="145.999" y="9" width="0.454545" height="95" fill="#606580" fill-opacity="0.25"/>
<path d="M156.222 109.909H154.611V109.572H155.21V107.357H154.611V107.055C154.837 107.055 155.004 107.023 155.11 106.959C155.218 106.894 155.279 106.772 155.292 106.593H155.636V109.572H156.222V109.909ZM158.835 108.857C158.835 109.017 158.809 109.165 158.757 109.301C158.707 109.437 158.636 109.555 158.544 109.654C158.451 109.754 158.335 109.834 158.195 109.891C158.058 109.949 157.903 109.978 157.732 109.978C157.573 109.978 157.417 109.96 157.263 109.925C157.111 109.891 156.978 109.845 156.866 109.789V109.321H156.897C156.931 109.346 156.98 109.375 157.044 109.408C157.107 109.439 157.177 109.468 157.254 109.496C157.342 109.527 157.422 109.552 157.494 109.57C157.567 109.586 157.648 109.594 157.738 109.594C157.827 109.594 157.914 109.578 157.998 109.547C158.082 109.515 158.155 109.463 158.215 109.392C158.27 109.327 158.312 109.251 158.34 109.163C158.369 109.076 158.384 108.973 158.384 108.855C158.384 108.738 158.368 108.642 158.335 108.566C158.304 108.491 158.258 108.429 158.198 108.38C158.134 108.324 158.056 108.284 157.962 108.262C157.871 108.239 157.768 108.227 157.654 108.227C157.534 108.227 157.414 108.236 157.292 108.256C157.171 108.273 157.074 108.29 157.001 108.307V106.604H158.815V106.993H157.43V107.872C157.483 107.866 157.536 107.861 157.587 107.858C157.639 107.855 157.686 107.854 157.729 107.854C157.898 107.854 158.041 107.868 158.158 107.896C158.275 107.924 158.387 107.979 158.495 108.06C158.605 108.143 158.688 108.247 158.746 108.371C158.805 108.495 158.835 108.657 158.835 108.857Z" fill="#606580"/>
<rect x="156.135" y="9" width="0.454545" height="95" fill="#606580" fill-opacity="0.25"/>
<path d="M166.359 109.909H164.748V109.572H165.347V107.357H164.748V107.055C164.974 107.055 165.14 107.023 165.247 106.959C165.355 106.894 165.416 106.772 165.429 106.593H165.773V109.572H166.359V109.909ZM169.06 108.837C169.06 109.007 169.032 109.164 168.976 109.308C168.919 109.451 168.844 109.571 168.749 109.667C168.65 109.769 168.539 109.847 168.416 109.9C168.293 109.952 168.158 109.978 168.01 109.978C167.861 109.978 167.725 109.953 167.602 109.902C167.48 109.852 167.373 109.777 167.28 109.678C167.166 109.558 167.076 109.399 167.011 109.199C166.948 108.998 166.916 108.751 166.916 108.458C166.916 108.171 166.946 107.912 167.005 107.681C167.064 107.448 167.155 107.246 167.278 107.075C167.398 106.908 167.552 106.777 167.742 106.684C167.931 106.59 168.15 106.542 168.399 106.542C168.473 106.542 168.541 106.546 168.605 106.553C168.669 106.561 168.725 106.573 168.774 106.589V107.013H168.754C168.714 106.991 168.656 106.971 168.581 106.953C168.505 106.934 168.424 106.924 168.339 106.924C168.063 106.924 167.841 107.017 167.671 107.204C167.502 107.389 167.402 107.664 167.371 108.029C167.476 107.955 167.584 107.898 167.695 107.858C167.806 107.818 167.927 107.798 168.059 107.798C168.188 107.798 168.3 107.812 168.396 107.838C168.494 107.864 168.595 107.915 168.7 107.994C168.822 108.085 168.912 108.202 168.971 108.342C169.03 108.483 169.06 108.648 169.06 108.837ZM168.609 108.855C168.609 108.719 168.592 108.605 168.556 108.513C168.521 108.421 168.463 108.343 168.383 108.278C168.325 108.23 168.259 108.199 168.185 108.185C168.113 108.17 168.038 108.162 167.961 108.162C167.858 108.162 167.757 108.178 167.659 108.209C167.562 108.24 167.466 108.285 167.371 108.344C167.368 108.377 167.366 108.409 167.364 108.44C167.363 108.469 167.362 108.507 167.362 108.553C167.362 108.782 167.384 108.967 167.429 109.108C167.475 109.248 167.531 109.355 167.597 109.427C167.661 109.497 167.726 109.546 167.793 109.574C167.861 109.602 167.934 109.616 168.012 109.616C168.19 109.616 168.333 109.553 168.443 109.425C168.554 109.298 168.609 109.108 168.609 108.855Z" fill="#606580"/>
<rect x="166.271" y="9" width="0.454545" height="95" fill="#606580" fill-opacity="0.25"/>
<path d="M176.495 109.909H174.884V109.572H175.483V107.357H174.884V107.055C175.11 107.055 175.277 107.023 175.383 106.959C175.491 106.894 175.552 106.772 175.565 106.593H175.909V109.572H176.495V109.909ZM179.181 107.099L177.752 109.909H177.279L178.792 106.993H177.083V106.604H179.181V107.099Z" fill="#606580"/>
<rect x="176.408" y="9" width="0.454545" height="95" fill="#606580" fill-opacity="0.25"/>
<path d="M186.632 109.909H185.02V109.572H185.619V107.357H185.02V107.055C185.247 107.055 185.413 107.023 185.52 106.959C185.628 106.894 185.688 106.772 185.702 106.593H186.046V109.572H186.632V109.909ZM188.8 107.374C188.8 107.227 188.75 107.103 188.651 107.004C188.552 106.905 188.414 106.855 188.238 106.855C188.077 106.855 187.945 106.9 187.841 106.988C187.739 107.077 187.688 107.197 187.688 107.348C187.688 107.457 187.714 107.55 187.766 107.625C187.819 107.701 187.898 107.769 188.003 107.829C188.049 107.855 188.119 107.889 188.212 107.934C188.306 107.978 188.392 108.013 188.469 108.038C188.598 107.939 188.685 107.838 188.731 107.734C188.777 107.629 188.8 107.509 188.8 107.374ZM188.862 109.03C188.862 108.894 188.835 108.786 188.782 108.706C188.729 108.626 188.626 108.545 188.474 108.462C188.423 108.434 188.356 108.404 188.272 108.371C188.189 108.338 188.095 108.3 187.99 108.256C187.867 108.337 187.773 108.438 187.708 108.557C187.643 108.676 187.61 108.811 187.61 108.964C187.61 109.163 187.67 109.328 187.79 109.459C187.911 109.589 188.063 109.654 188.245 109.654C188.431 109.654 188.581 109.598 188.693 109.487C188.806 109.375 188.862 109.223 188.862 109.03ZM188.241 109.985C188.076 109.985 187.927 109.96 187.792 109.911C187.658 109.862 187.543 109.792 187.448 109.7C187.355 109.612 187.284 109.507 187.235 109.385C187.188 109.263 187.164 109.133 187.164 108.997C187.164 108.818 187.212 108.654 187.306 108.504C187.402 108.353 187.541 108.233 187.723 108.145V108.131C187.561 108.037 187.44 107.933 187.362 107.821C187.283 107.708 187.244 107.568 187.244 107.399C187.244 107.15 187.338 106.943 187.526 106.777C187.714 106.612 187.952 106.529 188.241 106.529C188.541 106.529 188.781 106.608 188.962 106.766C189.144 106.923 189.235 107.124 189.235 107.37C189.235 107.518 189.191 107.664 189.104 107.809C189.018 107.954 188.894 108.068 188.731 108.149V108.162C188.923 108.253 189.069 108.362 189.168 108.491C189.267 108.62 189.317 108.785 189.317 108.988C189.317 109.271 189.214 109.507 189.009 109.698C188.804 109.889 188.548 109.985 188.241 109.985Z" fill="#606580"/>
<rect x="186.544" y="9" width="0.454545" height="95" fill="#606580" fill-opacity="0.25"/>
<path d="M196.768 109.909H195.157V109.572H195.756V107.357H195.157V107.055C195.383 107.055 195.549 107.023 195.656 106.959C195.764 106.894 195.825 106.772 195.838 106.593H196.182V109.572H196.768V109.909ZM198.983 107.963C198.983 107.738 198.962 107.555 198.921 107.414C198.879 107.272 198.822 107.163 198.75 107.086C198.685 107.015 198.619 106.966 198.552 106.939C198.486 106.913 198.412 106.9 198.333 106.9C198.151 106.9 198.006 106.965 197.898 107.095C197.79 107.225 197.736 107.414 197.736 107.661C197.736 107.8 197.753 107.915 197.789 108.005C197.824 108.095 197.882 108.173 197.962 108.238C198.018 108.284 198.082 108.315 198.153 108.331C198.224 108.346 198.3 108.353 198.381 108.353C198.476 108.353 198.578 108.337 198.688 108.304C198.797 108.27 198.893 108.226 198.974 108.171C198.975 108.149 198.977 108.12 198.978 108.085C198.981 108.048 198.983 108.007 198.983 107.963ZM197.285 107.679C197.285 107.508 197.312 107.353 197.367 107.212C197.423 107.072 197.5 106.951 197.596 106.848C197.687 106.751 197.799 106.675 197.931 106.62C198.064 106.565 198.199 106.538 198.335 106.538C198.487 106.538 198.625 106.564 198.748 106.615C198.872 106.666 198.979 106.739 199.069 106.835C199.183 106.956 199.271 107.116 199.334 107.312C199.397 107.509 199.429 107.758 199.429 108.058C199.429 108.332 199.398 108.591 199.336 108.837C199.275 109.081 199.185 109.284 199.065 109.445C198.938 109.617 198.785 109.748 198.606 109.838C198.428 109.928 198.208 109.973 197.946 109.973C197.887 109.973 197.824 109.97 197.758 109.962C197.691 109.956 197.629 109.945 197.571 109.927V109.503H197.594C197.63 109.524 197.688 109.544 197.767 109.563C197.845 109.582 197.925 109.592 198.006 109.592C198.296 109.592 198.524 109.496 198.69 109.305C198.856 109.115 198.95 108.842 198.972 108.486C198.853 108.566 198.74 108.625 198.632 108.662C198.526 108.699 198.41 108.717 198.284 108.717C198.161 108.717 198.049 108.704 197.949 108.677C197.848 108.651 197.747 108.599 197.645 108.522C197.526 108.432 197.437 108.318 197.376 108.18C197.315 108.041 197.285 107.874 197.285 107.679Z" fill="#606580"/>
<rect x="196.68" y="9" width="0.454545" height="95" fill="#606580" fill-opacity="0.25"/>
<path d="M207.073 109.909H205.033V109.445C205.18 109.306 205.318 109.173 205.448 109.046C205.579 108.918 205.706 108.786 205.83 108.648C206.082 108.372 206.253 108.151 206.345 107.985C206.437 107.818 206.483 107.645 206.483 107.468C206.483 107.376 206.468 107.295 206.438 107.226C206.41 107.156 206.371 107.099 206.321 107.053C206.269 107.008 206.209 106.975 206.141 106.953C206.073 106.931 205.998 106.919 205.917 106.919C205.838 106.919 205.758 106.93 205.677 106.951C205.597 106.97 205.52 106.994 205.446 107.024C205.384 107.049 205.324 107.079 205.266 107.115C205.209 107.15 205.162 107.181 205.126 107.206H205.102V106.735C205.194 106.689 205.321 106.645 205.484 106.602C205.648 106.558 205.803 106.536 205.95 106.536C206.258 106.536 206.499 106.618 206.673 106.782C206.848 106.945 206.935 107.166 206.935 107.446C206.935 107.574 206.92 107.693 206.889 107.803C206.859 107.912 206.818 108.014 206.764 108.107C206.71 108.203 206.644 108.299 206.567 108.393C206.49 108.488 206.409 108.581 206.323 108.673C206.184 108.824 206.028 108.981 205.857 109.143C205.687 109.306 205.55 109.435 205.448 109.53H207.073V109.909ZM209.57 108.256C209.57 108.849 209.483 109.285 209.31 109.563C209.139 109.84 208.873 109.978 208.513 109.978C208.149 109.978 207.882 109.837 207.712 109.554C207.542 109.271 207.457 108.84 207.457 108.26C207.457 107.664 207.543 107.228 207.714 106.953C207.887 106.676 208.154 106.538 208.513 106.538C208.877 106.538 209.144 106.681 209.315 106.966C209.485 107.252 209.57 107.682 209.57 108.256ZM209.002 109.263C209.045 109.154 209.075 109.015 209.093 108.848C209.11 108.681 209.119 108.483 209.119 108.256C209.119 108.029 209.11 107.832 209.093 107.665C209.075 107.498 209.044 107.359 208.999 107.248C208.955 107.136 208.894 107.05 208.815 106.993C208.738 106.934 208.638 106.904 208.513 106.904C208.391 106.904 208.289 106.934 208.209 106.993C208.131 107.05 208.069 107.137 208.023 107.252C207.978 107.365 207.948 107.507 207.932 107.679C207.916 107.85 207.907 108.044 207.907 108.26C207.907 108.491 207.914 108.684 207.927 108.839C207.942 108.995 207.973 109.134 208.021 109.257C208.064 109.371 208.124 109.459 208.203 109.521C208.283 109.581 208.386 109.612 208.513 109.612C208.636 109.612 208.737 109.583 208.815 109.525C208.895 109.466 208.957 109.379 209.002 109.263Z" fill="#606580"/>
<rect x="206.817" y="9" width="0.454545" height="95" fill="#606580" fill-opacity="0.25"/>
<path d="M217.209 109.909H215.17V109.445C215.316 109.306 215.455 109.173 215.585 109.046C215.715 108.918 215.842 108.786 215.967 108.648C216.218 108.372 216.39 108.151 216.481 107.985C216.573 107.818 216.619 107.645 216.619 107.468C216.619 107.376 216.604 107.295 216.575 107.226C216.547 107.156 216.507 107.099 216.457 107.053C216.405 107.008 216.345 106.975 216.277 106.953C216.209 106.931 216.134 106.919 216.053 106.919C215.975 106.919 215.895 106.93 215.813 106.951C215.733 106.97 215.657 106.994 215.583 107.024C215.52 107.049 215.46 107.079 215.403 107.115C215.345 107.15 215.298 107.181 215.263 107.206H215.239V106.735C215.33 106.689 215.458 106.645 215.62 106.602C215.785 106.558 215.94 106.536 216.086 106.536C216.394 106.536 216.635 106.618 216.81 106.782C216.985 106.945 217.072 107.166 217.072 107.446C217.072 107.574 217.056 107.693 217.025 107.803C216.996 107.912 216.954 108.014 216.901 108.107C216.846 108.203 216.78 108.299 216.703 108.393C216.626 108.488 216.545 108.581 216.459 108.673C216.32 108.824 216.165 108.981 215.993 109.143C215.823 109.306 215.687 109.435 215.585 109.53H217.209V109.909ZM219.522 109.909H217.911V109.572H218.51V107.357H217.911V107.055C218.137 107.055 218.304 107.023 218.41 106.959C218.518 106.894 218.579 106.772 218.592 106.593H218.936V109.572H219.522V109.909Z" fill="#606580"/>
<rect x="216.953" y="9" width="0.454545" height="95" fill="#606580" fill-opacity="0.25"/>
<path d="M227.346 109.909H225.306V109.445C225.452 109.306 225.591 109.173 225.721 109.046C225.851 108.918 225.978 108.786 226.103 108.648C226.354 108.372 226.526 108.151 226.618 107.985C226.709 107.818 226.755 107.645 226.755 107.468C226.755 107.376 226.74 107.295 226.711 107.226C226.683 107.156 226.644 107.099 226.593 107.053C226.541 107.008 226.482 106.975 226.413 106.953C226.345 106.931 226.271 106.919 226.189 106.919C226.111 106.919 226.031 106.93 225.95 106.951C225.87 106.97 225.793 106.994 225.719 107.024C225.657 107.049 225.597 107.079 225.539 107.115C225.481 107.15 225.435 107.181 225.399 107.206H225.375V106.735C225.467 106.689 225.594 106.645 225.757 106.602C225.921 106.558 226.076 106.536 226.223 106.536C226.53 106.536 226.772 106.618 226.946 106.782C227.121 106.945 227.208 107.166 227.208 107.446C227.208 107.574 227.193 107.693 227.161 107.803C227.132 107.912 227.09 108.014 227.037 108.107C226.982 108.203 226.917 108.299 226.84 108.393C226.763 108.488 226.681 108.581 226.595 108.673C226.456 108.824 226.301 108.981 226.129 109.143C225.959 109.306 225.823 109.435 225.721 109.53H227.346V109.909ZM229.827 109.909H227.787V109.445C227.934 109.306 228.072 109.173 228.202 109.046C228.333 108.918 228.46 108.786 228.584 108.648C228.836 108.372 229.007 108.151 229.099 107.985C229.191 107.818 229.237 107.645 229.237 107.468C229.237 107.376 229.222 107.295 229.192 107.226C229.164 107.156 229.125 107.099 229.075 107.053C229.023 107.008 228.963 106.975 228.895 106.953C228.827 106.931 228.752 106.919 228.671 106.919C228.592 106.919 228.512 106.93 228.431 106.951C228.351 106.97 228.274 106.994 228.2 107.024C228.138 107.049 228.078 107.079 228.02 107.115C227.963 107.15 227.916 107.181 227.881 107.206H227.856V106.735C227.948 106.689 228.075 106.645 228.238 106.602C228.402 106.558 228.557 106.536 228.704 106.536C229.012 106.536 229.253 106.618 229.428 106.782C229.602 106.945 229.689 107.166 229.689 107.446C229.689 107.574 229.674 107.693 229.643 107.803C229.613 107.912 229.572 108.014 229.519 108.107C229.464 108.203 229.398 108.299 229.321 108.393C229.244 108.488 229.163 108.581 229.077 108.673C228.938 108.824 228.782 108.981 228.611 109.143C228.441 109.306 228.304 109.435 228.202 109.53H229.827V109.909Z" fill="#606580"/>
<rect x="227.089" y="9" width="0.454545" height="95" fill="#606580" fill-opacity="0.25"/>
<path d="M237.482 109.909H235.443V109.445C235.589 109.306 235.727 109.173 235.858 109.046C235.988 108.918 236.115 108.786 236.239 108.648C236.491 108.372 236.662 108.151 236.754 107.985C236.846 107.818 236.892 107.645 236.892 107.468C236.892 107.376 236.877 107.295 236.847 107.226C236.819 107.156 236.78 107.099 236.73 107.053C236.678 107.008 236.618 106.975 236.55 106.953C236.482 106.931 236.407 106.919 236.326 106.919C236.247 106.919 236.168 106.93 236.086 106.951C236.006 106.97 235.929 106.994 235.855 107.024C235.793 107.049 235.733 107.079 235.676 107.115C235.618 107.15 235.571 107.181 235.536 107.206H235.511V106.735C235.603 106.689 235.73 106.645 235.893 106.602C236.057 106.558 236.213 106.536 236.359 106.536C236.667 106.536 236.908 106.618 237.083 106.782C237.257 106.945 237.345 107.166 237.345 107.446C237.345 107.574 237.329 107.693 237.298 107.803C237.268 107.912 237.227 108.014 237.174 108.107C237.119 108.203 237.053 108.299 236.976 108.393C236.899 108.488 236.818 108.581 236.732 108.673C236.593 108.824 236.438 108.981 236.266 109.143C236.096 109.306 235.96 109.435 235.858 109.53H237.482V109.909ZM238.816 106.919C238.736 106.919 238.656 106.929 238.576 106.948C238.496 106.968 238.418 106.993 238.341 107.024C238.27 107.053 238.208 107.084 238.155 107.117C238.103 107.15 238.056 107.18 238.015 107.208H237.988V106.74C238.084 106.688 238.215 106.641 238.379 106.6C238.545 106.557 238.702 106.536 238.852 106.536C239.001 106.536 239.131 106.551 239.242 106.582C239.355 106.612 239.456 106.658 239.546 106.722C239.644 106.793 239.717 106.879 239.766 106.979C239.816 107.08 239.841 107.198 239.841 107.332C239.841 107.514 239.782 107.674 239.662 107.812C239.542 107.949 239.398 108.037 239.231 108.074V108.105C239.301 108.118 239.375 108.141 239.453 108.173C239.533 108.206 239.607 108.254 239.675 108.318C239.743 108.381 239.799 108.463 239.841 108.564C239.884 108.663 239.906 108.785 239.906 108.928C239.906 109.078 239.88 109.215 239.828 109.341C239.778 109.465 239.706 109.575 239.613 109.672C239.517 109.772 239.401 109.848 239.264 109.9C239.128 109.952 238.974 109.978 238.801 109.978C238.635 109.978 238.471 109.958 238.308 109.918C238.145 109.878 238.008 109.83 237.897 109.774V109.305H237.928C238.022 109.373 238.147 109.439 238.303 109.501C238.46 109.563 238.617 109.594 238.774 109.594C238.864 109.594 238.954 109.58 239.045 109.552C239.136 109.522 239.213 109.475 239.273 109.41C239.332 109.345 239.378 109.273 239.409 109.194C239.44 109.116 239.455 109.017 239.455 108.897C239.455 108.777 239.438 108.679 239.402 108.602C239.368 108.525 239.32 108.464 239.258 108.42C239.196 108.375 239.122 108.345 239.036 108.329C238.951 108.311 238.86 108.302 238.761 108.302H238.572V107.934H238.718C238.918 107.934 239.08 107.886 239.204 107.792C239.33 107.697 239.393 107.559 239.393 107.379C239.393 107.296 239.377 107.225 239.344 107.166C239.312 107.105 239.27 107.057 239.22 107.022C239.164 106.983 239.102 106.956 239.034 106.942C238.966 106.927 238.893 106.919 238.816 106.919Z" fill="#606580"/>
<rect x="237.226" y="9" width="0.454545" height="95" fill="#606580"/>
<path d="M247.618 109.909H245.579V109.445C245.725 109.306 245.864 109.173 245.994 109.046C246.124 108.918 246.251 108.786 246.376 108.648C246.627 108.372 246.799 108.151 246.89 107.985C246.982 107.818 247.028 107.645 247.028 107.468C247.028 107.376 247.013 107.295 246.984 107.226C246.956 107.156 246.916 107.099 246.866 107.053C246.814 107.008 246.754 106.975 246.686 106.953C246.618 106.931 246.543 106.919 246.462 106.919C246.384 106.919 246.304 106.93 246.222 106.951C246.142 106.97 246.066 106.994 245.992 107.024C245.929 107.049 245.869 107.079 245.812 107.115C245.754 107.15 245.707 107.181 245.672 107.206H245.648V106.735C245.739 106.689 245.867 106.645 246.029 106.602C246.194 106.558 246.349 106.536 246.495 106.536C246.803 106.536 247.044 106.618 247.219 106.782C247.394 106.945 247.481 107.166 247.481 107.446C247.481 107.574 247.465 107.693 247.434 107.803C247.405 107.912 247.363 108.014 247.31 108.107C247.255 108.203 247.189 108.299 247.112 108.393C247.035 108.488 246.954 108.581 246.868 108.673C246.729 108.824 246.574 108.981 246.402 109.143C246.232 109.306 246.096 109.435 245.994 109.53H247.618V109.909ZM250.186 108.773H249.793V109.909H249.367V108.773H247.907V108.307L249.385 106.604H249.793V108.418H250.186V108.773ZM249.367 108.418V107.126L248.253 108.418H249.367Z" fill="#606580"/>
<rect x="247.362" y="9" width="0.454545" height="95" fill="#606580" fill-opacity="0.25"/>
<path d="M257.755 109.909H255.715V109.445C255.862 109.306 256 109.173 256.13 109.046C256.26 108.918 256.388 108.786 256.512 108.648C256.763 108.372 256.935 108.151 257.027 107.985C257.119 107.818 257.164 107.645 257.164 107.468C257.164 107.376 257.15 107.295 257.12 107.226C257.092 107.156 257.053 107.099 257.002 107.053C256.951 107.008 256.891 106.975 256.823 106.953C256.755 106.931 256.68 106.919 256.598 106.919C256.52 106.919 256.44 106.93 256.359 106.951C256.279 106.97 256.202 106.994 256.128 107.024C256.066 107.049 256.006 107.079 255.948 107.115C255.89 107.15 255.844 107.181 255.808 107.206H255.784V106.735C255.876 106.689 256.003 106.645 256.166 106.602C256.33 106.558 256.485 106.536 256.632 106.536C256.94 106.536 257.181 106.618 257.355 106.782C257.53 106.945 257.617 107.166 257.617 107.446C257.617 107.574 257.602 107.693 257.571 107.803C257.541 107.912 257.5 108.014 257.446 108.107C257.392 108.203 257.326 108.299 257.249 108.393C257.172 108.488 257.09 108.581 257.005 108.673C256.866 108.824 256.71 108.981 256.539 109.143C256.368 109.306 256.232 109.435 256.13 109.53H257.755V109.909ZM260.198 108.857C260.198 109.017 260.173 109.165 260.121 109.301C260.07 109.437 259.999 109.555 259.908 109.654C259.814 109.754 259.698 109.834 259.559 109.891C259.422 109.949 259.267 109.978 259.095 109.978C258.937 109.978 258.781 109.96 258.627 109.925C258.475 109.891 258.342 109.845 258.23 109.789V109.321H258.261C258.295 109.346 258.344 109.375 258.407 109.408C258.471 109.439 258.541 109.468 258.618 109.496C258.706 109.527 258.785 109.552 258.858 109.57C258.93 109.586 259.012 109.594 259.102 109.594C259.191 109.594 259.277 109.578 259.362 109.547C259.446 109.515 259.519 109.463 259.579 109.392C259.634 109.327 259.675 109.251 259.704 109.163C259.733 109.076 259.748 108.973 259.748 108.855C259.748 108.738 259.732 108.642 259.699 108.566C259.668 108.491 259.622 108.429 259.561 108.38C259.498 108.324 259.419 108.284 259.326 108.262C259.234 108.239 259.132 108.227 259.018 108.227C258.898 108.227 258.777 108.236 258.656 108.256C258.535 108.273 258.438 108.29 258.365 108.307V106.604H260.178V106.993H258.794V107.872C258.847 107.866 258.899 107.861 258.951 107.858C259.003 107.855 259.05 107.854 259.093 107.854C259.262 107.854 259.405 107.868 259.522 107.896C259.638 107.924 259.751 107.979 259.859 108.06C259.968 108.143 260.052 108.247 260.11 108.371C260.169 108.495 260.198 108.657 260.198 108.857Z" fill="#606580"/>
<rect x="257.498" y="9" width="0.454545" height="95" fill="#606580" fill-opacity="0.25"/>
<path d="M267.891 109.909H265.852V109.445C265.998 109.306 266.136 109.173 266.267 109.046C266.397 108.918 266.524 108.786 266.648 108.648C266.9 108.372 267.071 108.151 267.163 107.985C267.255 107.818 267.301 107.645 267.301 107.468C267.301 107.376 267.286 107.295 267.256 107.226C267.228 107.156 267.189 107.099 267.139 107.053C267.087 107.008 267.027 106.975 266.959 106.953C266.891 106.931 266.816 106.919 266.735 106.919C266.656 106.919 266.577 106.93 266.495 106.951C266.415 106.97 266.338 106.994 266.264 107.024C266.202 107.049 266.142 107.079 266.085 107.115C266.027 107.15 265.98 107.181 265.945 107.206H265.92V106.735C266.012 106.689 266.139 106.645 266.302 106.602C266.466 106.558 266.622 106.536 266.768 106.536C267.076 106.536 267.317 106.618 267.492 106.782C267.666 106.945 267.754 107.166 267.754 107.446C267.754 107.574 267.738 107.693 267.707 107.803C267.677 107.912 267.636 108.014 267.583 108.107C267.528 108.203 267.462 108.299 267.385 108.393C267.308 108.488 267.227 108.581 267.141 108.673C267.002 108.824 266.847 108.981 266.675 109.143C266.505 109.306 266.369 109.435 266.267 109.53H267.891V109.909ZM270.424 108.837C270.424 109.007 270.395 109.164 270.339 109.308C270.283 109.451 270.208 109.571 270.113 109.667C270.014 109.769 269.903 109.847 269.78 109.9C269.657 109.952 269.522 109.978 269.374 109.978C269.224 109.978 269.088 109.953 268.965 109.902C268.844 109.852 268.737 109.777 268.644 109.678C268.53 109.558 268.44 109.399 268.375 109.199C268.311 108.998 268.28 108.751 268.28 108.458C268.28 108.171 268.309 107.912 268.368 107.681C268.428 107.448 268.519 107.246 268.641 107.075C268.761 106.908 268.916 106.777 269.105 106.684C269.295 106.59 269.514 106.542 269.762 106.542C269.836 106.542 269.905 106.546 269.969 106.553C270.032 106.561 270.088 106.573 270.137 106.589V107.013H270.117C270.077 106.991 270.02 106.971 269.944 106.953C269.869 106.934 269.788 106.924 269.702 106.924C269.427 106.924 269.204 107.017 269.034 107.204C268.866 107.389 268.766 107.664 268.735 108.029C268.84 107.955 268.948 107.898 269.059 107.858C269.17 107.818 269.291 107.798 269.423 107.798C269.551 107.798 269.664 107.812 269.76 107.838C269.858 107.864 269.959 107.915 270.064 107.994C270.185 108.085 270.276 108.202 270.335 108.342C270.394 108.483 270.424 108.648 270.424 108.837ZM269.973 108.855C269.973 108.719 269.955 108.605 269.92 108.513C269.884 108.421 269.827 108.343 269.747 108.278C269.689 108.23 269.623 108.199 269.549 108.185C269.477 108.17 269.402 108.162 269.325 108.162C269.221 108.162 269.121 108.178 269.023 108.209C268.925 108.24 268.829 108.285 268.735 108.344C268.732 108.377 268.729 108.409 268.728 108.44C268.726 108.469 268.726 108.507 268.726 108.553C268.726 108.782 268.748 108.967 268.792 109.108C268.838 109.248 268.894 109.355 268.961 109.427C269.025 109.497 269.09 109.546 269.156 109.574C269.224 109.602 269.298 109.616 269.376 109.616C269.554 109.616 269.697 109.553 269.807 109.425C269.918 109.298 269.973 109.108 269.973 108.855Z" fill="#606580"/>
<rect x="267.635" y="9" width="0.454545" height="95" fill="#606580" fill-opacity="0.25"/>
<path d="M278.028 109.909H275.988V109.445C276.134 109.306 276.273 109.173 276.403 109.046C276.533 108.918 276.66 108.786 276.785 108.648C277.036 108.372 277.208 108.151 277.3 107.985C277.391 107.818 277.437 107.645 277.437 107.468C277.437 107.376 277.422 107.295 277.393 107.226C277.365 107.156 277.326 107.099 277.275 107.053C277.223 107.008 277.163 106.975 277.095 106.953C277.027 106.931 276.953 106.919 276.871 106.919C276.793 106.919 276.713 106.93 276.632 106.951C276.552 106.97 276.475 106.994 276.401 107.024C276.339 107.049 276.279 107.079 276.221 107.115C276.163 107.15 276.117 107.181 276.081 107.206H276.057V106.735C276.148 106.689 276.276 106.645 276.438 106.602C276.603 106.558 276.758 106.536 276.905 106.536C277.212 106.536 277.454 106.618 277.628 106.782C277.803 106.945 277.89 107.166 277.89 107.446C277.89 107.574 277.874 107.693 277.843 107.803C277.814 107.912 277.772 108.014 277.719 108.107C277.664 108.203 277.599 108.299 277.522 108.393C277.445 108.488 277.363 108.581 277.277 108.673C277.138 108.824 276.983 108.981 276.811 109.143C276.641 109.306 276.505 109.435 276.403 109.53H278.028V109.909ZM280.544 107.099L279.115 109.909H278.642L280.156 106.993H278.447V106.604H280.544V107.099Z" fill="#606580"/>
<rect x="277.771" y="9" width="0.454545" height="95" fill="#606580" fill-opacity="0.25"/>
<path d="M288.164 109.909H286.124V109.445C286.271 109.306 286.409 109.173 286.539 109.046C286.67 108.918 286.797 108.786 286.921 108.648C287.173 108.372 287.344 108.151 287.436 107.985C287.528 107.818 287.574 107.645 287.574 107.468C287.574 107.376 287.559 107.295 287.529 107.226C287.501 107.156 287.462 107.099 287.412 107.053C287.36 107.008 287.3 106.975 287.232 106.953C287.164 106.931 287.089 106.919 287.008 106.919C286.929 106.919 286.849 106.93 286.768 106.951C286.688 106.97 286.611 106.994 286.537 107.024C286.475 107.049 286.415 107.079 286.357 107.115C286.3 107.15 286.253 107.181 286.218 107.206H286.193V106.735C286.285 106.689 286.412 106.645 286.575 106.602C286.739 106.558 286.894 106.536 287.041 106.536C287.349 106.536 287.59 106.618 287.765 106.782C287.939 106.945 288.026 107.166 288.026 107.446C288.026 107.574 288.011 107.693 287.98 107.803C287.95 107.912 287.909 108.014 287.856 108.107C287.801 108.203 287.735 108.299 287.658 108.393C287.581 108.488 287.5 108.581 287.414 108.673C287.275 108.824 287.119 108.981 286.948 109.143C286.778 109.306 286.641 109.435 286.539 109.53H288.164V109.909ZM290.164 107.374C290.164 107.227 290.114 107.103 290.015 107.004C289.916 106.905 289.778 106.855 289.602 106.855C289.441 106.855 289.309 106.9 289.205 106.988C289.103 107.077 289.052 107.197 289.052 107.348C289.052 107.457 289.078 107.55 289.129 107.625C289.183 107.701 289.262 107.769 289.367 107.829C289.413 107.855 289.482 107.889 289.576 107.934C289.67 107.978 289.756 108.013 289.833 108.038C289.962 107.939 290.049 107.838 290.095 107.734C290.141 107.629 290.164 107.509 290.164 107.374ZM290.226 109.03C290.226 108.894 290.199 108.786 290.146 108.706C290.093 108.626 289.99 108.545 289.837 108.462C289.787 108.434 289.72 108.404 289.636 108.371C289.553 108.338 289.459 108.3 289.354 108.256C289.231 108.337 289.137 108.438 289.072 108.557C289.007 108.676 288.974 108.811 288.974 108.964C288.974 109.163 289.034 109.328 289.154 109.459C289.275 109.589 289.427 109.654 289.609 109.654C289.795 109.654 289.945 109.598 290.057 109.487C290.17 109.375 290.226 109.223 290.226 109.03ZM289.604 109.985C289.44 109.985 289.291 109.96 289.156 109.911C289.021 109.862 288.907 109.792 288.812 109.7C288.719 109.612 288.648 109.507 288.599 109.385C288.552 109.263 288.528 109.133 288.528 108.997C288.528 108.818 288.575 108.654 288.67 108.504C288.766 108.353 288.905 108.233 289.087 108.145V108.131C288.925 108.037 288.804 107.933 288.726 107.821C288.647 107.708 288.608 107.568 288.608 107.399C288.608 107.15 288.702 106.943 288.89 106.777C289.078 106.612 289.316 106.529 289.604 106.529C289.905 106.529 290.145 106.608 290.326 106.766C290.508 106.923 290.599 107.124 290.599 107.37C290.599 107.518 290.555 107.664 290.468 107.809C290.382 107.954 290.258 108.068 290.095 108.149V108.162C290.287 108.253 290.433 108.362 290.532 108.491C290.631 108.62 290.681 108.785 290.681 108.988C290.681 109.271 290.578 109.507 290.372 109.698C290.168 109.889 289.912 109.985 289.604 109.985Z" fill="#606580"/>
<rect x="287.908" y="9" width="0.454545" height="95" fill="#606580" fill-opacity="0.25"/>
<path d="M298.3 109.909H296.261V109.445C296.407 109.306 296.545 109.173 296.676 109.046C296.806 108.918 296.933 108.786 297.057 108.648C297.309 108.372 297.48 108.151 297.572 107.985C297.664 107.818 297.71 107.645 297.71 107.468C297.71 107.376 297.695 107.295 297.665 107.226C297.637 107.156 297.598 107.099 297.548 107.053C297.496 107.008 297.436 106.975 297.368 106.953C297.3 106.931 297.225 106.919 297.144 106.919C297.065 106.919 296.986 106.93 296.904 106.951C296.824 106.97 296.747 106.994 296.673 107.024C296.611 107.049 296.551 107.079 296.494 107.115C296.436 107.15 296.389 107.181 296.354 107.206H296.329V106.735C296.421 106.689 296.548 106.645 296.711 106.602C296.875 106.558 297.031 106.536 297.177 106.536C297.485 106.536 297.726 106.618 297.901 106.782C298.075 106.945 298.163 107.166 298.163 107.446C298.163 107.574 298.147 107.693 298.116 107.803C298.086 107.912 298.045 108.014 297.992 108.107C297.937 108.203 297.871 108.299 297.794 108.393C297.717 108.488 297.636 108.581 297.55 108.673C297.411 108.824 297.256 108.981 297.084 109.143C296.914 109.306 296.778 109.435 296.676 109.53H298.3V109.909ZM300.347 107.963C300.347 107.738 300.326 107.555 300.284 107.414C300.243 107.272 300.186 107.163 300.113 107.086C300.048 107.015 299.983 106.966 299.916 106.939C299.849 106.913 299.776 106.9 299.696 106.9C299.514 106.9 299.369 106.965 299.261 107.095C299.153 107.225 299.099 107.414 299.099 107.661C299.099 107.8 299.117 107.915 299.152 108.005C299.188 108.095 299.246 108.173 299.326 108.238C299.382 108.284 299.445 108.315 299.516 108.331C299.587 108.346 299.664 108.353 299.745 108.353C299.84 108.353 299.942 108.337 300.051 108.304C300.161 108.27 300.256 108.226 300.338 108.171C300.339 108.149 300.341 108.12 300.342 108.085C300.345 108.048 300.347 108.007 300.347 107.963ZM298.649 107.679C298.649 107.508 298.676 107.353 298.731 107.212C298.787 107.072 298.863 106.951 298.959 106.848C299.051 106.751 299.163 106.675 299.295 106.62C299.428 106.565 299.562 106.538 299.698 106.538C299.851 106.538 299.988 106.564 300.111 106.615C300.236 106.666 300.343 106.739 300.433 106.835C300.547 106.956 300.635 107.116 300.697 107.312C300.761 107.509 300.793 107.758 300.793 108.058C300.793 108.332 300.762 108.591 300.699 108.837C300.639 109.081 300.549 109.284 300.429 109.445C300.301 109.617 300.148 109.748 299.969 109.838C299.792 109.928 299.572 109.973 299.31 109.973C299.251 109.973 299.188 109.97 299.121 109.962C299.055 109.956 298.993 109.945 298.935 109.927V109.503H298.957C298.994 109.524 299.052 109.544 299.13 109.563C299.209 109.582 299.289 109.592 299.37 109.592C299.66 109.592 299.888 109.496 300.054 109.305C300.219 109.115 300.313 108.842 300.335 108.486C300.217 108.566 300.104 108.625 299.996 108.662C299.889 108.699 299.773 108.717 299.647 108.717C299.525 108.717 299.413 108.704 299.312 108.677C299.212 108.651 299.11 108.599 299.008 108.522C298.89 108.432 298.8 108.318 298.74 108.18C298.679 108.041 298.649 107.874 298.649 107.679Z" fill="#606580"/>
<rect x="298.044" y="9" width="0.454545" height="95" fill="#606580" fill-opacity="0.25"/>
<path d="M307.289 106.919C307.209 106.919 307.129 106.929 307.049 106.948C306.97 106.968 306.891 106.993 306.814 107.024C306.743 107.053 306.681 107.084 306.628 107.117C306.576 107.15 306.529 107.18 306.488 107.208H306.461V106.74C306.558 106.688 306.688 106.641 306.852 106.6C307.018 106.557 307.175 106.536 307.325 106.536C307.474 106.536 307.604 106.551 307.715 106.582C307.828 106.612 307.929 106.658 308.019 106.722C308.117 106.793 308.19 106.879 308.239 106.979C308.289 107.08 308.315 107.198 308.315 107.332C308.315 107.514 308.255 107.674 308.135 107.812C308.015 107.949 307.871 108.037 307.704 108.074V108.105C307.774 108.118 307.848 108.141 307.926 108.173C308.006 108.206 308.08 108.254 308.148 108.318C308.216 108.381 308.272 108.463 308.315 108.564C308.358 108.663 308.379 108.785 308.379 108.928C308.379 109.078 308.353 109.215 308.301 109.341C308.251 109.465 308.179 109.575 308.086 109.672C307.99 109.772 307.874 109.848 307.738 109.9C307.601 109.952 307.447 109.978 307.274 109.978C307.108 109.978 306.944 109.958 306.781 109.918C306.618 109.878 306.481 109.83 306.37 109.774V109.305H306.401C306.495 109.373 306.62 109.439 306.777 109.501C306.933 109.563 307.09 109.594 307.247 109.594C307.337 109.594 307.428 109.58 307.518 109.552C307.61 109.522 307.686 109.475 307.746 109.41C307.806 109.345 307.851 109.273 307.882 109.194C307.913 109.116 307.928 109.017 307.928 108.897C307.928 108.777 307.911 108.679 307.875 108.602C307.841 108.525 307.793 108.464 307.731 108.42C307.669 108.375 307.595 108.345 307.509 108.329C307.425 108.311 307.333 108.302 307.234 108.302H307.045V107.934H307.192C307.391 107.934 307.553 107.886 307.678 107.792C307.803 107.697 307.866 107.559 307.866 107.379C307.866 107.296 307.85 107.225 307.817 107.166C307.785 107.105 307.743 107.057 307.693 107.022C307.637 106.983 307.575 106.956 307.507 106.942C307.439 106.927 307.366 106.919 307.289 106.919ZM310.934 108.256C310.934 108.849 310.847 109.285 310.674 109.563C310.502 109.84 310.237 109.978 309.877 109.978C309.513 109.978 309.246 109.837 309.076 109.554C308.906 109.271 308.821 108.84 308.821 108.26C308.821 107.664 308.906 107.228 309.078 106.953C309.251 106.676 309.518 106.538 309.877 106.538C310.241 106.538 310.508 106.681 310.678 106.966C310.848 107.252 310.934 107.682 310.934 108.256ZM310.365 109.263C310.408 109.154 310.439 109.015 310.456 108.848C310.474 108.681 310.483 108.483 310.483 108.256C310.483 108.029 310.474 107.832 310.456 107.665C310.439 107.498 310.408 107.359 310.363 107.248C310.319 107.136 310.257 107.05 310.179 106.993C310.102 106.934 310.001 106.904 309.877 106.904C309.754 106.904 309.653 106.934 309.573 106.993C309.495 107.05 309.432 107.137 309.387 107.252C309.342 107.365 309.312 107.507 309.296 107.679C309.279 107.85 309.271 108.044 309.271 108.26C309.271 108.491 309.278 108.684 309.291 108.839C309.306 108.995 309.337 109.134 309.384 109.257C309.427 109.371 309.488 109.459 309.566 109.521C309.646 109.581 309.75 109.612 309.877 109.612C310 109.612 310.101 109.583 310.179 109.525C310.259 109.466 310.321 109.379 310.365 109.263Z" fill="#606580"/>
<rect x="308.18" y="9" width="0.454545" height="95" fill="#606580" fill-opacity="0.25"/>
<path d="M317.425 106.919C317.346 106.919 317.266 106.929 317.186 106.948C317.106 106.968 317.027 106.993 316.951 107.024C316.88 107.053 316.817 107.084 316.764 107.117C316.712 107.15 316.666 107.18 316.624 107.208H316.598V106.74C316.694 106.688 316.824 106.641 316.988 106.6C317.154 106.557 317.312 106.536 317.461 106.536C317.61 106.536 317.741 106.551 317.852 106.582C317.964 106.612 318.065 106.658 318.156 106.722C318.253 106.793 318.327 106.879 318.375 106.979C318.426 107.08 318.451 107.198 318.451 107.332C318.451 107.514 318.391 107.674 318.271 107.812C318.151 107.949 318.008 108.037 317.841 108.074V108.105C317.91 108.118 317.984 108.141 318.062 108.173C318.142 108.206 318.216 108.254 318.284 108.318C318.352 108.381 318.408 108.463 318.451 108.564C318.494 108.663 318.515 108.785 318.515 108.928C318.515 109.078 318.489 109.215 318.438 109.341C318.387 109.465 318.315 109.575 318.222 109.672C318.126 109.772 318.01 109.848 317.874 109.9C317.738 109.952 317.583 109.978 317.41 109.978C317.244 109.978 317.08 109.958 316.917 109.918C316.754 109.878 316.618 109.83 316.507 109.774V109.305H316.538C316.631 109.373 316.756 109.439 316.913 109.501C317.07 109.563 317.226 109.594 317.383 109.594C317.474 109.594 317.564 109.58 317.654 109.552C317.746 109.522 317.822 109.475 317.883 109.41C317.942 109.345 317.987 109.273 318.018 109.194C318.049 109.116 318.065 109.017 318.065 108.897C318.065 108.777 318.047 108.679 318.011 108.602C317.977 108.525 317.929 108.464 317.867 108.42C317.805 108.375 317.731 108.345 317.645 108.329C317.561 108.311 317.469 108.302 317.37 108.302H317.181V107.934H317.328C317.528 107.934 317.69 107.886 317.814 107.792C317.94 107.697 318.003 107.559 318.003 107.379C318.003 107.296 317.986 107.225 317.954 107.166C317.921 107.105 317.88 107.057 317.829 107.022C317.773 106.983 317.711 106.956 317.643 106.942C317.575 106.927 317.502 106.919 317.425 106.919ZM320.886 109.909H319.274V109.572H319.874V107.357H319.274V107.055C319.501 107.055 319.667 107.023 319.774 106.959C319.882 106.894 319.942 106.772 319.956 106.593H320.3V109.572H320.886V109.909Z" fill="#606580"/>
<rect x="318.317" y="9" width="0.454545" height="95" fill="#606580" fill-opacity="0.25"/>
<rect x="318.545" y="9" width="0.454545" height="304.091" transform="rotate(90 318.545 9)" fill="#606580" fill-opacity="0.25"/>
<path d="M6.3961 11.2727H4.78477V10.9354H5.38403V8.72034H4.78477V8.41849C5.01116 8.41849 5.17762 8.38668 5.28415 8.32306C5.39216 8.25795 5.45283 8.13588 5.46615 7.95685H5.81016V10.9354H6.3961V11.2727ZM9.06167 9.61922C9.06167 10.2126 8.97511 10.6483 8.80199 10.9265C8.63036 11.2032 8.36476 11.3415 8.00521 11.3415C7.64122 11.3415 7.37414 11.2002 7.20398 10.9176C7.03382 10.635 6.94874 10.2037 6.94874 9.62366C6.94874 9.02737 7.03456 8.59161 7.2062 8.3164C7.37932 8.03971 7.64566 7.90136 8.00521 7.90136C8.3692 7.90136 8.63627 8.04415 8.80643 8.32972C8.97659 8.61529 9.06167 9.04512 9.06167 9.61922ZM8.49349 10.6269C8.5364 10.5174 8.56673 10.379 8.58449 10.2118C8.60224 10.0446 8.61112 9.84709 8.61112 9.61922C8.61112 9.39284 8.60224 9.19605 8.58449 9.02885C8.56673 8.86165 8.53566 8.72256 8.49127 8.61159C8.44688 8.49913 8.38548 8.41406 8.30705 8.35635C8.23011 8.29716 8.1295 8.26757 8.00521 8.26757C7.8824 8.26757 7.78104 8.29716 7.70114 8.35635C7.62272 8.41406 7.56058 8.50061 7.51471 8.61603C7.47032 8.72848 7.43999 8.87052 7.42371 9.04216C7.40743 9.2138 7.3993 9.40763 7.3993 9.62366C7.3993 9.85449 7.40595 10.0476 7.41927 10.2029C7.43407 10.3583 7.46514 10.4974 7.51249 10.6202C7.5554 10.7341 7.61606 10.8222 7.69448 10.8843C7.77438 10.945 7.87796 10.9753 8.00521 10.9753C8.12802 10.9753 8.22863 10.9465 8.30705 10.8888C8.38696 10.8296 8.4491 10.7423 8.49349 10.6269ZM11.543 9.61922C11.543 10.2126 11.4565 10.6483 11.2834 10.9265C11.1117 11.2032 10.8461 11.3415 10.4866 11.3415C10.1226 11.3415 9.8555 11.2002 9.68534 10.9176C9.51518 10.635 9.4301 10.2037 9.4301 9.62366C9.4301 9.02737 9.51592 8.59161 9.68756 8.3164C9.86068 8.03971 10.127 7.90136 10.4866 7.90136C10.8506 7.90136 11.1176 8.04415 11.2878 8.32972C11.4579 8.61529 11.543 9.04512 11.543 9.61922ZM10.9748 10.6269C11.0178 10.5174 11.0481 10.379 11.0658 10.2118C11.0836 10.0446 11.0925 9.84709 11.0925 9.61922C11.0925 9.39284 11.0836 9.19605 11.0658 9.02885C11.0481 8.86165 11.017 8.72256 10.9726 8.61159C10.9282 8.49913 10.8668 8.41406 10.7884 8.35635C10.7115 8.29716 10.6109 8.26757 10.4866 8.26757C10.3638 8.26757 10.2624 8.29716 10.1825 8.35635C10.1041 8.41406 10.0419 8.50061 9.99606 8.61603C9.95167 8.72848 9.92134 8.87052 9.90507 9.04216C9.88879 9.2138 9.88065 9.40763 9.88065 9.62366C9.88065 9.85449 9.88731 10.0476 9.90063 10.2029C9.91542 10.3583 9.9465 10.4974 9.99384 10.6202C10.0368 10.7341 10.0974 10.8222 10.1758 10.8843C10.2557 10.945 10.3593 10.9753 10.4866 10.9753C10.6094 10.9753 10.71 10.9465 10.7884 10.8888C10.8683 10.8296 10.9305 10.7423 10.9748 10.6269Z" fill="#606580"/>
<rect x="318.545" y="28" width="0.454545" height="304.091" transform="rotate(90 318.545 28)" fill="#606580" fill-opacity="0.25"/>
<path d="M8.61117 28.3263C8.61117 28.1014 8.59046 27.9186 8.54903 27.7781C8.5076 27.636 8.45063 27.5265 8.37813 27.4496C8.31303 27.3786 8.24718 27.3297 8.1806 27.3031C8.11401 27.2765 8.04077 27.2631 7.96087 27.2631C7.77888 27.2631 7.63387 27.3283 7.52586 27.4585C7.41784 27.5887 7.36384 27.7773 7.36384 28.0244C7.36384 28.1635 7.38159 28.2782 7.4171 28.3684C7.45261 28.4587 7.51032 28.5364 7.59022 28.6015C7.64645 28.6474 7.71007 28.6784 7.78109 28.6947C7.85212 28.7095 7.92832 28.7169 8.0097 28.7169C8.1044 28.7169 8.20649 28.7006 8.31598 28.6681C8.42548 28.634 8.52092 28.5896 8.6023 28.5349C8.60377 28.5127 8.60525 28.4839 8.60673 28.4483C8.60969 28.4113 8.61117 28.3707 8.61117 28.3263ZM6.91329 28.0422C6.91329 27.872 6.94066 27.7167 6.99541 27.5761C7.05163 27.4355 7.12783 27.3142 7.22401 27.2121C7.31575 27.1144 7.42746 27.0382 7.55915 26.9835C7.69232 26.9287 7.82696 26.9014 7.96309 26.9014C8.11549 26.9014 8.2531 26.9273 8.37591 26.9791C8.5002 27.0294 8.60747 27.1026 8.69773 27.1988C8.81166 27.3201 8.8997 27.4792 8.96185 27.676C9.02547 27.8728 9.05728 28.1213 9.05728 28.4217C9.05728 28.6954 9.02621 28.9551 8.96407 29.2007C8.9034 29.4449 8.81314 29.6476 8.69329 29.8089C8.56604 29.9805 8.4129 30.1115 8.23386 30.2017C8.05631 30.292 7.83658 30.3371 7.57469 30.3371C7.5155 30.3371 7.45261 30.3334 7.38603 30.326C7.31945 30.3201 7.2573 30.3082 7.1996 30.2905V29.8666H7.22179C7.25878 29.8873 7.31649 29.9073 7.39491 29.9265C7.47333 29.9457 7.55323 29.9554 7.63461 29.9554C7.92462 29.9554 8.15248 29.8599 8.3182 29.669C8.48392 29.4782 8.57788 29.2052 8.60008 28.8501C8.4817 28.93 8.36851 28.9884 8.2605 29.0254C8.15396 29.0624 8.03781 29.0809 7.91204 29.0809C7.78923 29.0809 7.67752 29.0676 7.5769 29.0409C7.47629 29.0143 7.37493 28.9625 7.27284 28.8856C7.15447 28.7953 7.06495 28.6814 7.00428 28.5438C6.94362 28.4047 6.91329 28.2375 6.91329 28.0422ZM11.5431 28.6192C11.5431 29.2126 11.4565 29.6483 11.2834 29.9265C11.1118 30.2032 10.8462 30.3415 10.4866 30.3415C10.1226 30.3415 9.85555 30.2002 9.68539 29.9176C9.51523 29.635 9.43015 29.2037 9.43015 28.6237C9.43015 28.0274 9.51597 27.5916 9.68761 27.3164C9.86073 27.0397 10.1271 26.9014 10.4866 26.9014C10.8506 26.9014 11.1177 27.0442 11.2878 27.3297C11.458 27.6153 11.5431 28.0451 11.5431 28.6192ZM10.9749 29.6269C11.0178 29.5174 11.0481 29.379 11.0659 29.2118C11.0837 29.0446 11.0925 28.8471 11.0925 28.6192C11.0925 28.3929 11.0837 28.1961 11.0659 28.0289C11.0481 27.8617 11.0171 27.7226 10.9727 27.6116C10.9283 27.4992 10.8669 27.4141 10.7885 27.3564C10.7115 27.2972 10.6109 27.2676 10.4866 27.2676C10.3638 27.2676 10.2625 27.2972 10.1826 27.3564C10.1041 27.4141 10.042 27.5006 9.99612 27.616C9.95173 27.7285 9.92139 27.8705 9.90512 28.0422C9.88884 28.2138 9.8807 28.4076 9.8807 28.6237C9.8807 28.8545 9.88736 29.0476 9.90068 29.203C9.91548 29.3583 9.94655 29.4974 9.9939 29.6202C10.0368 29.7341 10.0975 29.8222 10.1759 29.8843C10.2558 29.945 10.3594 29.9753 10.4866 29.9753C10.6094 29.9753 10.71 29.9465 10.7885 29.8888C10.8684 29.8296 10.9305 29.7423 10.9749 29.6269Z" fill="#606580"/>
<rect x="318.545" y="47" width="0.454545" height="304.091" transform="rotate(90 318.545 47)" fill="#606580" fill-opacity="0.25"/>
<path d="M8.56456 46.7381C8.56456 46.5901 8.515 46.4666 8.41586 46.3675C8.31672 46.2683 8.17912 46.2188 8.00304 46.2188C7.84176 46.2188 7.70933 46.2631 7.60576 46.3519C7.50366 46.4407 7.45261 46.5606 7.45261 46.7115C7.45261 46.821 7.47851 46.9134 7.5303 46.9889C7.58356 47.0644 7.66272 47.1324 7.76778 47.1931C7.81365 47.2183 7.88319 47.253 7.97641 47.2974C8.0711 47.3418 8.15692 47.3766 8.23386 47.4017C8.36259 47.3026 8.44989 47.2012 8.49576 47.0977C8.54163 46.9926 8.56456 46.8728 8.56456 46.7381ZM8.62671 48.3938C8.62671 48.2577 8.60008 48.1497 8.54681 48.0698C8.49354 47.9899 8.39071 47.9085 8.2383 47.8256C8.188 47.7975 8.12067 47.7672 8.03633 47.7346C7.95347 47.7021 7.85952 47.6636 7.75446 47.6192C7.63165 47.7006 7.53769 47.8012 7.47259 47.9211C7.40749 48.0395 7.37493 48.1748 7.37493 48.3272C7.37493 48.527 7.43486 48.692 7.55471 48.8222C7.67604 48.9524 7.8277 49.0175 8.0097 49.0175C8.19613 49.0175 8.34558 48.962 8.45803 48.851C8.57048 48.7386 8.62671 48.5862 8.62671 48.3938ZM8.00526 49.3482C7.84102 49.3482 7.69158 49.3238 7.55693 49.275C7.42228 49.2261 7.30761 49.1558 7.21291 49.0641C7.1197 48.9753 7.04867 48.8703 6.99984 48.7489C6.9525 48.6261 6.92882 48.4967 6.92882 48.3605C6.92882 48.1815 6.97617 48.0173 7.07087 47.8678C7.16704 47.7169 7.30613 47.597 7.48813 47.5083V47.4949C7.32537 47.4003 7.20478 47.2967 7.12635 47.1842C7.04793 47.0718 7.00872 46.9312 7.00872 46.7625C7.00872 46.5139 7.10268 46.3068 7.29059 46.1411C7.47851 45.9754 7.71673 45.8925 8.00526 45.8925C8.30563 45.8925 8.54607 45.9717 8.72658 46.13C8.90858 46.2868 8.99958 46.4881 8.99958 46.7337C8.99958 46.8816 8.95593 47.0281 8.86863 47.1731C8.78281 47.3181 8.65852 47.4313 8.49576 47.5127V47.526C8.68811 47.6163 8.83386 47.7258 8.93299 47.8545C9.03213 47.9832 9.0817 48.1489 9.0817 48.3517C9.0817 48.6343 8.97886 48.871 8.77319 49.0619C8.569 49.2528 8.31303 49.3482 8.00526 49.3482ZM11.5431 47.6192C11.5431 48.2126 11.4565 48.6483 11.2834 48.9265C11.1118 49.2032 10.8462 49.3415 10.4866 49.3415C10.1226 49.3415 9.85555 49.2002 9.68539 48.9176C9.51523 48.635 9.43015 48.2037 9.43015 47.6237C9.43015 47.0274 9.51597 46.5916 9.68761 46.3164C9.86073 46.0397 10.1271 45.9014 10.4866 45.9014C10.8506 45.9014 11.1177 46.0442 11.2878 46.3297C11.458 46.6153 11.5431 47.0451 11.5431 47.6192ZM10.9749 48.6269C11.0178 48.5174 11.0481 48.379 11.0659 48.2118C11.0837 48.0446 11.0925 47.8471 11.0925 47.6192C11.0925 47.3929 11.0837 47.1961 11.0659 47.0289C11.0481 46.8617 11.0171 46.7226 10.9727 46.6116C10.9283 46.4992 10.8669 46.4141 10.7885 46.3564C10.7115 46.2972 10.6109 46.2676 10.4866 46.2676C10.3638 46.2676 10.2625 46.2972 10.1826 46.3564C10.1041 46.4141 10.042 46.5006 9.99612 46.616C9.95173 46.7285 9.92139 46.8705 9.90512 47.0422C9.88884 47.2138 9.8807 47.4076 9.8807 47.6237C9.8807 47.8545 9.88736 48.0476 9.90068 48.203C9.91548 48.3583 9.94655 48.4974 9.9939 48.6202C10.0368 48.7341 10.0975 48.8222 10.1759 48.8843C10.2558 48.945 10.3594 48.9753 10.4866 48.9753C10.6094 48.9753 10.71 48.9465 10.7885 48.8888C10.8684 48.8296 10.9305 48.7423 10.9749 48.6269Z" fill="#606580"/>
<rect x="318.545" y="66" width="0.454545" height="304.091" transform="rotate(90 318.545 66)" fill="#606580" fill-opacity="0.25"/>
<path d="M9.0817 65.4629L7.65237 68.2727H7.17962L8.69329 65.3564H6.98431V64.968H9.0817V65.4629ZM11.5431 66.6192C11.5431 67.2126 11.4565 67.6483 11.2834 67.9265C11.1118 68.2032 10.8462 68.3415 10.4866 68.3415C10.1226 68.3415 9.85555 68.2002 9.68539 67.9176C9.51523 67.635 9.43015 67.2037 9.43015 66.6237C9.43015 66.0274 9.51597 65.5916 9.68761 65.3164C9.86073 65.0397 10.1271 64.9014 10.4866 64.9014C10.8506 64.9014 11.1177 65.0442 11.2878 65.3297C11.458 65.6153 11.5431 66.0451 11.5431 66.6192ZM10.9749 67.6269C11.0178 67.5174 11.0481 67.379 11.0659 67.2118C11.0837 67.0446 11.0925 66.8471 11.0925 66.6192C11.0925 66.3928 11.0837 66.1961 11.0659 66.0289C11.0481 65.8617 11.0171 65.7226 10.9727 65.6116C10.9283 65.4991 10.8669 65.4141 10.7885 65.3564C10.7115 65.2972 10.6109 65.2676 10.4866 65.2676C10.3638 65.2676 10.2625 65.2972 10.1826 65.3564C10.1041 65.4141 10.042 65.5006 9.99612 65.616C9.95173 65.7285 9.92139 65.8705 9.90512 66.0422C9.88884 66.2138 9.8807 66.4076 9.8807 66.6237C9.8807 66.8545 9.88736 67.0476 9.90068 67.2029C9.91548 67.3583 9.94655 67.4974 9.9939 67.6202C10.0368 67.7341 10.0975 67.8222 10.1759 67.8843C10.2558 67.945 10.3594 67.9753 10.4866 67.9753C10.6094 67.9753 10.71 67.9465 10.7885 67.8888C10.8684 67.8296 10.9305 67.7423 10.9749 67.6269Z" fill="#606580"/>
<rect x="318.545" y="85" width="0.454545" height="304.091" transform="rotate(90 318.545 85)" fill="#606580" fill-opacity="0.25"/>
<path d="M9.09723 86.2007C9.09723 86.3709 9.06912 86.5277 9.0129 86.6713C8.95667 86.8148 8.88121 86.9346 8.78651 87.0308C8.68737 87.1329 8.5764 87.2106 8.45359 87.2639C8.33078 87.3156 8.19539 87.3415 8.04743 87.3415C7.89799 87.3415 7.76186 87.3164 7.63905 87.2661C7.51772 87.2158 7.41045 87.141 7.31723 87.0419C7.2033 86.9221 7.11378 86.7623 7.04867 86.5625C6.98505 86.3613 6.95324 86.1142 6.95324 85.8212C6.95324 85.5342 6.98283 85.2752 7.04201 85.0444C7.1012 84.8121 7.1922 84.6101 7.31501 84.4385C7.43486 84.2713 7.58948 84.1411 7.77888 84.0479C7.96827 83.9532 8.18726 83.9058 8.43584 83.9058C8.50982 83.9058 8.57862 83.9095 8.64225 83.9169C8.70587 83.9243 8.7621 83.9361 8.81092 83.9524V84.3763H8.79095C8.751 84.3541 8.69329 84.3342 8.61783 84.3164C8.54237 84.2972 8.46173 84.2876 8.37591 84.2876C8.1007 84.2876 7.87801 84.3808 7.70785 84.5672C7.53917 84.7522 7.4393 85.0274 7.40823 85.3928C7.51328 85.3189 7.62129 85.2619 7.73227 85.2219C7.84324 85.182 7.96457 85.162 8.09626 85.162C8.22499 85.162 8.33744 85.1753 8.43362 85.202C8.53127 85.2271 8.63263 85.2789 8.73768 85.3573C8.85901 85.4491 8.94927 85.5652 9.00846 85.7058C9.06764 85.8464 9.09723 86.0113 9.09723 86.2007ZM8.64668 86.2185C8.64668 86.0824 8.62893 85.9684 8.59342 85.8767C8.55791 85.7849 8.5002 85.7065 8.4203 85.6414C8.36259 85.5941 8.29675 85.563 8.22277 85.5482C8.15027 85.5334 8.07554 85.526 7.9986 85.526C7.89503 85.526 7.79441 85.5415 7.69676 85.5726C7.5991 85.6037 7.50292 85.6488 7.40823 85.708C7.40527 85.7406 7.40305 85.7724 7.40157 85.8034C7.40009 85.833 7.39935 85.8708 7.39935 85.9166C7.39935 86.146 7.42154 86.3309 7.46593 86.4715C7.5118 86.6121 7.56803 86.7186 7.63461 86.7911C7.69824 86.8606 7.76334 86.9095 7.82992 86.9376C7.89799 86.9657 7.97123 86.9798 8.04965 86.9798C8.22721 86.9798 8.37073 86.9161 8.48022 86.7889C8.5912 86.6616 8.64668 86.4715 8.64668 86.2185ZM11.5431 85.6192C11.5431 86.2126 11.4565 86.6483 11.2834 86.9265C11.1118 87.2032 10.8462 87.3415 10.4866 87.3415C10.1226 87.3415 9.85555 87.2002 9.68539 86.9176C9.51523 86.635 9.43015 86.2037 9.43015 85.6237C9.43015 85.0274 9.51597 84.5916 9.68761 84.3164C9.86073 84.0397 10.1271 83.9014 10.4866 83.9014C10.8506 83.9014 11.1177 84.0442 11.2878 84.3297C11.458 84.6153 11.5431 85.0451 11.5431 85.6192ZM10.9749 86.6269C11.0178 86.5174 11.0481 86.379 11.0659 86.2118C11.0837 86.0446 11.0925 85.8471 11.0925 85.6192C11.0925 85.3928 11.0837 85.1961 11.0659 85.0289C11.0481 84.8617 11.0171 84.7226 10.9727 84.6116C10.9283 84.4991 10.8669 84.4141 10.7885 84.3564C10.7115 84.2972 10.6109 84.2676 10.4866 84.2676C10.3638 84.2676 10.2625 84.2972 10.1826 84.3564C10.1041 84.4141 10.042 84.5006 9.99612 84.616C9.95173 84.7285 9.92139 84.8705 9.90512 85.0422C9.88884 85.2138 9.8807 85.4076 9.8807 85.6237C9.8807 85.8545 9.88736 86.0476 9.90068 86.2029C9.91548 86.3583 9.94655 86.4974 9.9939 86.6202C10.0368 86.7341 10.0975 86.8222 10.1759 86.8843C10.2558 86.945 10.3594 86.9753 10.4866 86.9753C10.6094 86.9753 10.71 86.9465 10.7885 86.8888C10.8684 86.8296 10.9305 86.7423 10.9749 86.6269Z" fill="#606580"/>
<rect x="318.545" y="104" width="0.454545" height="304.091" transform="rotate(90 318.545 104)" fill="#606580" fill-opacity="0.25"/>
<path d="M9.00846 105.221C9.00846 105.381 8.98256 105.528 8.93078 105.665C8.88047 105.801 8.80944 105.918 8.71771 106.017C8.62449 106.118 8.50834 106.197 8.36925 106.255C8.23165 106.313 8.07702 106.342 7.90538 106.342C7.74706 106.342 7.59096 106.324 7.43708 106.288C7.28468 106.254 7.15225 106.209 7.0398 106.153V105.685H7.07087C7.1049 105.71 7.15373 105.739 7.21735 105.771C7.28098 105.802 7.35126 105.832 7.4282 105.86C7.5155 105.891 7.5954 105.915 7.6679 105.933C7.7404 105.949 7.82179 105.958 7.91204 105.958C8.00082 105.958 8.08738 105.942 8.17172 105.911C8.25606 105.878 8.32856 105.827 8.38923 105.756C8.44397 105.69 8.4854 105.614 8.51352 105.527C8.54311 105.44 8.55791 105.337 8.55791 105.218C8.55791 105.102 8.54163 105.005 8.50908 104.93C8.47801 104.855 8.43214 104.792 8.37147 104.744C8.30785 104.687 8.22943 104.648 8.13621 104.626C8.04447 104.602 7.94164 104.59 7.8277 104.59C7.70785 104.59 7.58726 104.6 7.46593 104.619C7.3446 104.637 7.24768 104.654 7.17518 104.67V102.968H8.98848V103.356H7.60354V104.235C7.65681 104.229 7.70933 104.225 7.76112 104.222C7.81291 104.219 7.86026 104.218 7.90317 104.218C8.07184 104.218 8.21463 104.232 8.33152 104.26C8.44841 104.288 8.56087 104.343 8.66888 104.424C8.77837 104.507 8.86197 104.61 8.91968 104.735C8.97886 104.859 9.00846 105.021 9.00846 105.221ZM11.5431 104.619C11.5431 105.213 11.4565 105.648 11.2834 105.926C11.1118 106.203 10.8462 106.342 10.4866 106.342C10.1226 106.342 9.85555 106.2 9.68539 105.918C9.51523 105.635 9.43015 105.204 9.43015 104.624C9.43015 104.027 9.51597 103.592 9.68761 103.316C9.86073 103.04 10.1271 102.901 10.4866 102.901C10.8506 102.901 11.1177 103.044 11.2878 103.33C11.458 103.615 11.5431 104.045 11.5431 104.619ZM10.9749 105.627C11.0178 105.517 11.0481 105.379 11.0659 105.212C11.0837 105.045 11.0925 104.847 11.0925 104.619C11.0925 104.393 11.0837 104.196 11.0659 104.029C11.0481 103.862 11.0171 103.723 10.9727 103.612C10.9283 103.499 10.8669 103.414 10.7885 103.356C10.7115 103.297 10.6109 103.268 10.4866 103.268C10.3638 103.268 10.2625 103.297 10.1826 103.356C10.1041 103.414 10.042 103.501 9.99612 103.616C9.95173 103.728 9.92139 103.871 9.90512 104.042C9.88884 104.214 9.8807 104.408 9.8807 104.624C9.8807 104.855 9.88736 105.048 9.90068 105.203C9.91548 105.358 9.94655 105.497 9.9939 105.62C10.0368 105.734 10.0975 105.822 10.1759 105.884C10.2558 105.945 10.3594 105.975 10.4866 105.975C10.6094 105.975 10.71 105.946 10.7885 105.889C10.8684 105.83 10.9305 105.742 10.9749 105.627Z" fill="#606580"/>
<path d="M14.4546 24L24.4546 45.1364L34.9091 72.1818L44.6818 56.0455L55.1364 50.8182L65.1364 56.0455L75.1364 53.5455L85.1364 60.3636L95.3637 43.5455L105.591 50.1364L115.818 41.7273L126.045 52.1818L136.045 53.3679L145.818 50.1364L156.273 54.6818L166.727 44.2273L176.273 53.3679L186.727 71.2727L196.955 46.2727L206.727 40.3636L216.955 46.2727L227.182 50.1364L237.636 44.2273" stroke="white" stroke-width="0.454545"/>
<path opacity="0.5" d="M237.636 9H317.636C318.138 9 318.545 9.40701 318.545 9.90909V103.091C318.545 103.593 318.138 104 317.636 104H237.636V9Z" fill="#12151E"/>
<path opacity="0.05" d="M240.632 44.3091C240.632 45.9827 239.235 47.35 237.5 47.35C235.764 47.35 234.368 45.9827 234.368 44.3091C234.368 42.6355 235.764 41.2682 237.5 41.2682C239.235 41.2682 240.632 42.6355 240.632 44.3091Z" fill="white" stroke="white" stroke-width="0.454545"/>
<path opacity="0.2" d="M239.391 44.309C239.391 45.3147 238.551 46.1409 237.5 46.1409C236.45 46.1409 235.609 45.3147 235.609 44.309C235.609 43.3034 236.45 42.4772 237.5 42.4772C238.551 42.4772 239.391 43.3034 239.391 44.309Z" fill="white" stroke="white" stroke-width="0.454545"/>
<path opacity="0.5" d="M237.5 45.4273C238.135 45.4273 238.65 44.9266 238.65 44.3091C238.65 43.6915 238.135 43.1909 237.5 43.1909C236.865 43.1909 236.35 43.6915 236.35 44.3091C236.35 44.9266 236.865 45.4273 237.5 45.4273Z" fill="white" stroke="white" stroke-width="0.454545" stroke-miterlimit="10"/>
<path d="M237.718 44.3091C237.718 44.4296 237.62 44.5273 237.5 44.5273C237.379 44.5273 237.282 44.4296 237.282 44.3091C237.282 44.1886 237.379 44.0909 237.5 44.0909C237.62 44.0909 237.718 44.1886 237.718 44.3091Z" fill="white" stroke="white" stroke-width="0.454545"/>
</svg>
