<svg id="e9db5c53-5b6f-4c37-9d01-2e4ab05b7e35" data-name="1" xmlns="http://www.w3.org/2000/svg" xmlns:xlink="http://www.w3.org/1999/xlink" viewBox="0 0 324 116.75"><defs><style>.a652205f-5237-45a0-95e2-7fa772f41506,.b182b12c-6eca-42be-ae2d-721d4133af98,.b41e75ee-a883-45c7-bded-a43315c4a891,.b71854a1-7220-42d7-8d80-31dc8b9779e3,.b85d4cf6-2c3f-4d8c-9b83-c5fdfa4779de,.bbef4047-92e6-4110-87fb-1a05bc9201c1,.bcff1fab-85e5-43eb-a875-81c99c89b198,.f39ffcca-6a21-4b6a-980d-bdf4ae79c9be,.f7738848-63c7-4630-acc6-d90b2d79179a{fill:none;}.b182b12c-6eca-42be-ae2d-721d4133af98,.b41e75ee-a883-45c7-bded-a43315c4a891,.b71854a1-7220-42d7-8d80-31dc8b9779e3,.b85d4cf6-2c3f-4d8c-9b83-c5fdfa4779de,.bbef4047-92e6-4110-87fb-1a05bc9201c1,.bcff1fab-85e5-43eb-a875-81c99c89b198,.f39ffcca-6a21-4b6a-980d-bdf4ae79c9be,.f7738848-63c7-4630-acc6-d90b2d79179a{stroke:#a2e2ff;}.b182b12c-6eca-42be-ae2d-721d4133af98,.b41e75ee-a883-45c7-bded-a43315c4a891,.b71854a1-7220-42d7-8d80-31dc8b9779e3,.b85d4cf6-2c3f-4d8c-9b83-c5fdfa4779de,.bbef4047-92e6-4110-87fb-1a05bc9201c1,.f39ffcca-6a21-4b6a-980d-bdf4ae79c9be,.f7738848-63c7-4630-acc6-d90b2d79179a{stroke-linecap:square;stroke-linejoin:bevel;stroke-width:0.5px;}.bbef4047-92e6-4110-87fb-1a05bc9201c1{stroke-dasharray:11.43 11.43;}.b85d4cf6-2c3f-4d8c-9b83-c5fdfa4779de{stroke-dasharray:10.35 10.35;}.f39ffcca-6a21-4b6a-980d-bdf4ae79c9be{stroke-dasharray:9.31 9.31;}.b71854a1-7220-42d7-8d80-31dc8b9779e3{stroke-dasharray:10.86 10.86;}.f7738848-63c7-4630-acc6-d90b2d79179a{stroke-dasharray:10.59 10.59;}.b41e75ee-a883-45c7-bded-a43315c4a891{stroke-dasharray:5.31 5.31;}.a5fc6d54-48dc-4d27-b32b-9170854cc4af,.a63abb5a-0bf3-4e81-a3c8-4429f32239cb{fill:#a2e2ff;}.a5fc6d54-48dc-4d27-b32b-9170854cc4af,.bae56dc1-cfd9-4af6-897e-168d50e7f81a,.e2fd0377-b647-4d95-9f16-226638209da0{opacity:0.2;}.a652205f-5237-45a0-95e2-7fa772f41506,.bcff1fab-85e5-43eb-a875-81c99c89b198{stroke-miterlimit:10;opacity:0.5;}.a5f4f305-525f-44f5-bd32-a9e4ce745d23,.b34a6600-aaca-4142-b5ed-eeccf6124acb,.e2fd0377-b647-4d95-9f16-226638209da0,.e9776886-df49-4a5b-bac3-5aa38186fe5b{fill:#f4a321;}.bae56dc1-cfd9-4af6-897e-168d50e7f81a{fill:url(#bf403d93-caae-4c8f-8ae4-e4964d6b4562);}.f4ed1dec-d744-467a-8f35-b6b2bbeebc60{opacity:0.05;fill:url(#a1e66261-3317-472e-a512-6f5d684ec2b5);}.a652205f-5237-45a0-95e2-7fa772f41506{stroke:#f4a321;}.bfa18897-8d0a-4b69-9d11-05a2cd0cd523{fill:#1b1e27;}.b34a6600-aaca-4142-b5ed-eeccf6124acb,.b779b77b-df7f-46b1-8639-16529699106e,.ecdf454a-3107-42be-98b8-c083ffc6706a{isolation:isolate;}.a625da92-890a-42b0-a808-9f1ab458f9c8,.ad019361-877c-47f7-b798-615eba458358,.b34a6600-aaca-4142-b5ed-eeccf6124acb,.b779b77b-df7f-46b1-8639-16529699106e,.bdb46b9f-e4f9-453a-a5e2-734f8c4c3b27,.e7c87b2e-e5cb-4558-9cad-4d463a594825,.e9776886-df49-4a5b-bac3-5aa38186fe5b,.e9825afd-520b-4a6d-8ef6-92491201d116,.ecdf454a-3107-42be-98b8-c083ffc6706a{font-size:7.52px;font-family:Tahoma;}.bdb46b9f-e4f9-453a-a5e2-734f8c4c3b27,.e7c87b2e-e5cb-4558-9cad-4d463a594825,.ecdf454a-3107-42be-98b8-c083ffc6706a{fill:#fefefe;}.a625da92-890a-42b0-a808-9f1ab458f9c8,.ad019361-877c-47f7-b798-615eba458358,.b779b77b-df7f-46b1-8639-16529699106e,.e9825afd-520b-4a6d-8ef6-92491201d116{fill:#5b607d;}.a625da92-890a-42b0-a808-9f1ab458f9c8{letter-spacing:0em;}.e9825afd-520b-4a6d-8ef6-92491201d116{letter-spacing:0em;}.bdb46b9f-e4f9-453a-a5e2-734f8c4c3b27{letter-spacing:0em;}</style><radialGradient id="bf403d93-caae-4c8f-8ae4-e4964d6b4562" cx="166.38" cy="44.96" r="4.2" gradientUnits="userSpaceOnUse"><stop offset="0" stop-color="#f4a321" stop-opacity="0"/><stop offset="0.37" stop-color="#f4a321" stop-opacity="0.01"/><stop offset="0.51" stop-color="#f4a321" stop-opacity="0.04"/><stop offset="0.61" stop-color="#f4a321" stop-opacity="0.08"/><stop offset="0.68" stop-color="#f4a321" stop-opacity="0.15"/><stop offset="0.75" stop-color="#f4a321" stop-opacity="0.24"/><stop offset="0.81" stop-color="#f4a321" stop-opacity="0.36"/><stop offset="0.87" stop-color="#f4a321" stop-opacity="0.49"/><stop offset="0.91" stop-color="#f4a321" stop-opacity="0.64"/><stop offset="0.96" stop-color="#f4a321" stop-opacity="0.81"/><stop offset="1" stop-color="#f4a321"/></radialGradient><radialGradient id="a1e66261-3317-472e-a512-6f5d684ec2b5" cx="166.38" cy="44.96" r="6.66" xlink:href="#bf403d93-caae-4c8f-8ae4-e4964d6b4562"/></defs><title>Prew</title><polyline class="b182b12c-6eca-42be-ae2d-721d4133af98" points="121.49 86.95 116.5 86.77 116.94 81.79"/><polyline class="bbef4047-92e6-4110-87fb-1a05bc9201c1" points="117.96 70.4 119.68 51.16 131.01 33.85"/><polyline class="b182b12c-6eca-42be-ae2d-721d4133af98" points="134.13 29.07 136.87 24.88 141.87 24.88"/><line class="b85d4cf6-2c3f-4d8c-9b83-c5fdfa4779de" x1="152.22" y1="24.88" x2="167.74" y2="24.88"/><polyline class="b182b12c-6eca-42be-ae2d-721d4133af98" points="172.91 24.88 177.91 24.88 180.29 29.28"/><line class="f39ffcca-6a21-4b6a-980d-bdf4ae79c9be" x1="184.72" y1="37.47" x2="191.36" y2="49.75"/><polyline class="b182b12c-6eca-42be-ae2d-721d4133af98" points="193.57 53.84 193.82 54.3 193.82 58.78 198.82 58.78"/><polyline class="b182b12c-6eca-42be-ae2d-721d4133af98" points="202.5 58.78 207.5 58.78 207.5 63.78"/><line class="b71854a1-7220-42d7-8d80-31dc8b9779e3" x1="201.92" y1="72.52" x2="191.1" y2="84.7"/><polyline class="b182b12c-6eca-42be-ae2d-721d4133af98" points="187.49 88.76 184.17 92.5 179.17 92.5"/><line class="f7738848-63c7-4630-acc6-d90b2d79179a" x1="168.59" y1="92.5" x2="152.71" y2="92.5"/><polyline class="b182b12c-6eca-42be-ae2d-721d4133af98" points="147.42 92.5 142.42 92.5 142.42 87.74 137.42 87.56"/><line class="b41e75ee-a883-45c7-bded-a43315c4a891" x1="132.11" y1="87.36" x2="124.15" y2="87.06"/><circle class="a63abb5a-0bf3-4e81-a3c8-4429f32239cb" cx="146.21" cy="39.53" r="1.04"/><circle class="a5fc6d54-48dc-4d27-b32b-9170854cc4af" cx="146.21" cy="39.53" r="2.59"/><circle class="bcff1fab-85e5-43eb-a875-81c99c89b198" cx="146.21" cy="39.53" r="2.59"/><circle class="a63abb5a-0bf3-4e81-a3c8-4429f32239cb" cx="145.62" cy="75.06" r="0.91"/><circle class="a5fc6d54-48dc-4d27-b32b-9170854cc4af" cx="145.62" cy="75.06" r="2.27"/><circle class="bcff1fab-85e5-43eb-a875-81c99c89b198" cx="145.62" cy="75.06" r="2.27"/><circle class="a63abb5a-0bf3-4e81-a3c8-4429f32239cb" cx="169.95" cy="77.51" r="1.43"/><circle class="a5fc6d54-48dc-4d27-b32b-9170854cc4af" cx="169.95" cy="77.51" r="3.58"/><circle class="bcff1fab-85e5-43eb-a875-81c99c89b198" cx="169.95" cy="77.51" r="3.58"/><circle class="a5f4f305-525f-44f5-bd32-a9e4ce745d23" cx="166.38" cy="44.96" r="0.91"/><circle class="e2fd0377-b647-4d95-9f16-226638209da0" cx="166.38" cy="44.96" r="2.27"/><circle class="bae56dc1-cfd9-4af6-897e-168d50e7f81a" cx="166.38" cy="44.96" r="4.2"/><circle class="f4ed1dec-d744-467a-8f35-b6b2bbeebc60" cx="166.38" cy="44.96" r="6.66"/><circle class="a652205f-5237-45a0-95e2-7fa772f41506" cx="166.38" cy="44.96" r="2.27"/><path class="bfa18897-8d0a-4b69-9d11-05a2cd0cd523" d="M136.92,25.51a.63.63,0,1,1,0-1.26.63.63,0,1,1,0,1.26Z"/><path class="a63abb5a-0bf3-4e81-a3c8-4429f32239cb" d="M136.92,24.75a.13.13,0,1,1,0,.26.13.13,0,0,1,0-.26m0-1a1.13,1.13,0,1,0,1.14,1.13,1.13,1.13,0,0,0-1.14-1.13Z"/><circle class="a63abb5a-0bf3-4e81-a3c8-4429f32239cb" cx="136.92" cy="24.88" r="0.15"/><path class="bfa18897-8d0a-4b69-9d11-05a2cd0cd523" d="M136.92,24.23a.65.65,0,1,0,0,1.3.65.65,0,1,0,0-1.3Z"/><text class="ecdf454a-3107-42be-98b8-c083ffc6706a" transform="translate(15.12 20.15)">NO</text><text class="e7c87b2e-e5cb-4558-9cad-4d463a594825" transform="translate(25.46 22.65) scale(0.58)">2</text><text class="ecdf454a-3107-42be-98b8-c083ffc6706a" transform="translate(69.83 40.24)">NO</text><text class="b34a6600-aaca-4142-b5ed-eeccf6124acb" transform="translate(15.24 57.58)">NH</text><text class="e9776886-df49-4a5b-bac3-5aa38186fe5b" transform="translate(25.34 60.08) scale(0.58)">3</text><text class="b779b77b-df7f-46b1-8639-16529699106e" transform="translate(67.81 77.67)">C</text><text class="ad019361-877c-47f7-b798-615eba458358" transform="translate(72.32 80.18) scale(0.58)">6</text><text class="ad019361-877c-47f7-b798-615eba458358" transform="translate(74.72 77.67)">H</text><text class="a625da92-890a-42b0-a808-9f1ab458f9c8" transform="translate(79.79 80.18) scale(0.58)">6</text><text class="b779b77b-df7f-46b1-8639-16529699106e" transform="translate(9.1 97.77)">C</text><text class="ad019361-877c-47f7-b798-615eba458358" transform="translate(13.61 100.27) scale(0.58)">6</text><text class="ad019361-877c-47f7-b798-615eba458358" transform="translate(16.01 97.77)">H</text><text class="a625da92-890a-42b0-a808-9f1ab458f9c8" transform="translate(21.09 100.27) scale(0.58)">5</text><text class="e9825afd-520b-4a6d-8ef6-92491201d116" transform="translate(23.48 97.77)">OH</text><text class="b779b77b-df7f-46b1-8639-16529699106e" transform="translate(233.59 18.62)">H</text><text class="ad019361-877c-47f7-b798-615eba458358" transform="translate(238.67 21.13) scale(0.58)">2</text><text class="ad019361-877c-47f7-b798-615eba458358" transform="translate(241.06 18.62)">S</text><text class="b779b77b-df7f-46b1-8639-16529699106e" transform="translate(275.67 38.72)">C</text><text class="ad019361-877c-47f7-b798-615eba458358" transform="translate(280.18 41.22) scale(0.58)">6</text><text class="ad019361-877c-47f7-b798-615eba458358" transform="translate(282.58 38.72)">H</text><text class="a625da92-890a-42b0-a808-9f1ab458f9c8" transform="translate(287.66 41.22) scale(0.58)">4</text><text class="ad019361-877c-47f7-b798-615eba458358" transform="translate(290.05 38.72)">(CH</text><text class="ad019361-877c-47f7-b798-615eba458358" transform="translate(302.52 41.22) scale(0.58)">3</text><text class="ad019361-877c-47f7-b798-615eba458358" transform="translate(304.92 38.72)">)</text><text class="a625da92-890a-42b0-a808-9f1ab458f9c8" transform="translate(307.79 41.22) scale(0.58)">2</text><text class="b779b77b-df7f-46b1-8639-16529699106e" transform="translate(226.23 58.81)">C</text><text class="ad019361-877c-47f7-b798-615eba458358" transform="translate(230.75 61.32) scale(0.58)">6</text><text class="ad019361-877c-47f7-b798-615eba458358" transform="translate(233.14 58.81)">H</text><text class="a625da92-890a-42b0-a808-9f1ab458f9c8" transform="translate(238.22 61.32) scale(0.58)">5</text><text class="ad019361-877c-47f7-b798-615eba458358" transform="translate(240.61 58.81)">CH</text><text class="ad019361-877c-47f7-b798-615eba458358" transform="translate(250.21 61.32) scale(0.58)">3</text><text class="ecdf454a-3107-42be-98b8-c083ffc6706a" transform="translate(277.35 78.91)">СH</text><text class="e7c87b2e-e5cb-4558-9cad-4d463a594825" transform="translate(286.94 81.41) scale(0.58)">4</text><text class="bdb46b9f-e4f9-453a-a5e2-734f8c4c3b27" transform="translate(289.34 78.91)">C</text><text class="e7c87b2e-e5cb-4558-9cad-4d463a594825" transform="translate(293.85 81.41) scale(0.58)">10</text><text class="e7c87b2e-e5cb-4558-9cad-4d463a594825" transform="translate(298.64 78.91)">H</text><text class="e7c87b2e-e5cb-4558-9cad-4d463a594825" transform="translate(303.72 81.41) scale(0.58)">22</text><text class="b779b77b-df7f-46b1-8639-16529699106e" transform="translate(230.72 99)">пыль</text></svg>