<svg width="324" height="117" viewBox="0 0 324 117" fill="none" xmlns="http://www.w3.org/2000/svg">
<path fill-rule="evenodd" clip-rule="evenodd" d="M61.162 5H317.374C318.548 5 319.5 5.88554 319.5 6.97886V54.4716V101.964V105.362L319.5 108.021C319.5 109.11 318.548 110 317.374 110H10.1265C8.95206 110 8.00003 109.11 8.00003 108.021L8 105.362V101.964L8 54.4716C8 27.1494 31.8015 5 61.162 5Z" fill="#1B1E27"/>
<path d="M100.422 29.9868V29H98.7585L99.5577 30.4615L100.422 29.9868ZM318.015 29.9868H319V29H318.015V29.9868ZM54.9854 102.965L55.0287 101.979L54 101.934V102.965H54.9854ZM54.9854 103.013H54V104H54.9854V103.013ZM105.473 53.6711C105.473 80.377 83.8548 102.026 57.1869 102.026V104C84.9437 104 107.444 81.4674 107.444 53.6711H105.473ZM99.5577 30.4615C103.329 37.3497 105.473 45.2582 105.473 53.6711H107.444C107.444 44.9178 105.212 36.6845 101.286 29.5122L99.5577 30.4615ZM100.422 30.9737H318.015V29H100.422V30.9737ZM317.029 29.9868V101.039H319V29.9868H317.029ZM317.029 101.039C317.029 101.584 316.588 102.026 316.044 102.026V104C317.677 104 319 102.675 319 101.039H317.029ZM316.044 102.026H57.1869V104H316.044V102.026ZM57.1869 102.026C56.4637 102.026 55.7441 102.011 55.0287 101.979L54.9422 103.951C55.6864 103.983 56.4348 104 57.1869 104V102.026ZM57.1869 102.026H54.9854V104H57.1869V102.026ZM55.9709 103.013V102.965H54V103.013H55.9709Z" fill="#272A38" fill-opacity="0.5"/>
<path fill-rule="evenodd" clip-rule="evenodd" d="M99.656 30H319V6.92308C319 5.86058 318.114 5 317.02 5H56.2121H54V5.04713C54.7333 5.0154 55.4709 5 56.2121 5C74.9436 5 91.2452 15.101 99.656 30Z" fill="#272A38" fill-opacity="0.5"/>
<path d="M118.579 20.4347C118.203 20.4347 117.856 20.3692 117.538 20.236C117.225 20.1028 116.952 19.905 116.723 19.6428C116.494 19.3795 116.316 19.0517 116.189 18.6583C116.063 18.2659 116 17.8143 116 17.3053C116 16.7985 116.06 16.3562 116.181 15.9794C116.305 15.6027 116.484 15.2749 116.719 14.996C116.948 14.7244 117.221 14.5193 117.535 14.3778C117.849 14.2341 118.202 14.1624 118.591 14.1624C118.784 14.1624 118.965 14.1769 119.132 14.2071C119.303 14.2373 119.46 14.2747 119.604 14.3205C119.727 14.3622 119.854 14.4132 119.983 14.4756C120.114 14.535 120.243 14.6015 120.37 14.6744V15.6464H120.307C120.241 15.5809 120.154 15.5028 120.049 15.4102C119.943 15.3186 119.814 15.228 119.662 15.1385C119.515 15.0542 119.355 14.9845 119.183 14.9304C119.01 14.8763 118.81 14.8492 118.583 14.8492C118.338 14.8492 118.106 14.9023 117.887 15.0084C117.668 15.1136 117.476 15.2697 117.311 15.4758C117.148 15.6818 117.022 15.9399 116.932 16.2521C116.842 16.5633 116.796 16.9151 116.796 17.3053C116.796 17.7195 116.844 18.0776 116.94 18.3783C117.035 18.676 117.165 18.9288 117.331 19.1338C117.49 19.3347 117.678 19.4867 117.895 19.5897C118.112 19.6896 118.34 19.7406 118.583 19.7406C118.805 19.7406 119.01 19.7114 119.198 19.6542C119.386 19.598 119.554 19.5262 119.701 19.4388C119.842 19.3555 119.965 19.2702 120.068 19.1827C120.171 19.0932 120.252 19.0173 120.311 18.9559H120.37V19.9144C120.243 19.9768 120.123 20.0372 120.01 20.0934C119.9 20.1506 119.764 20.2058 119.604 20.2609C119.436 20.3171 119.281 20.3609 119.136 20.39C118.995 20.4202 118.809 20.4347 118.579 20.4347ZM124.233 18.9184C124.233 19.138 124.19 19.3379 124.105 19.5169C124.023 19.6959 123.909 19.8405 123.766 19.9519C123.595 20.0871 123.413 20.1829 123.22 20.2402C123.026 20.2974 122.777 20.3255 122.474 20.3255H121.027V15.7849H121.754V17.553H122.492C122.818 17.553 123.069 17.5707 123.247 17.6061C123.427 17.6415 123.606 17.7279 123.784 17.8663C123.934 17.9829 124.046 18.1316 124.121 18.3127C124.195 18.4948 124.233 18.6968 124.233 18.9184ZM123.482 18.9309C123.482 18.7925 123.46 18.6718 123.413 18.5688C123.37 18.4636 123.296 18.3783 123.192 18.3127C123.084 18.2451 122.961 18.2045 122.821 18.1909C122.684 18.1774 122.487 18.1712 122.23 18.1712H121.754V19.7156H122.214C122.473 19.7156 122.672 19.7052 122.814 19.6834C122.956 19.6584 123.078 19.6137 123.181 19.5491C123.286 19.4784 123.363 19.3961 123.409 19.3014C123.459 19.2036 123.482 19.0797 123.482 18.9309ZM125.462 20.3255H124.736V15.7849H125.462V20.3255ZM130.142 17.935C130.142 18.6916 129.969 19.2941 129.624 19.7437C129.281 20.1912 128.846 20.415 128.32 20.415C128.107 20.415 127.918 20.389 127.752 20.338C127.587 20.286 127.419 20.2058 127.245 20.0976V22H126.519V15.7849H127.245V16.2604C127.426 16.0898 127.625 15.9472 127.845 15.8338C128.067 15.7172 128.308 15.6589 128.568 15.6589C129.063 15.6589 129.448 15.865 129.724 16.2761C130.002 16.6882 130.142 17.2408 130.142 17.935ZM129.392 18.0203C129.392 17.503 129.313 17.1014 129.156 16.8173C128.999 16.53 128.743 16.3864 128.39 16.3864C128.184 16.3864 127.984 16.4353 127.791 16.532C127.6 16.6278 127.419 16.7506 127.245 16.9026V19.4763C127.436 19.5731 127.599 19.6396 127.732 19.675C127.869 19.7104 128.025 19.7281 128.201 19.7281C128.577 19.7281 128.87 19.5824 129.079 19.2931C129.288 19.0027 129.392 18.5791 129.392 18.0203ZM134.167 18.9184C134.167 19.138 134.125 19.3379 134.04 19.5169C133.957 19.6959 133.845 19.8405 133.7 19.9519C133.53 20.0871 133.348 20.1829 133.155 20.2402C132.962 20.2974 132.712 20.3255 132.408 20.3255H130.896V15.7849H131.623V17.553H132.428C132.753 17.553 133.004 17.5707 133.181 17.6061C133.362 17.6415 133.542 17.7279 133.719 17.8663C133.868 17.9829 133.981 18.1316 134.055 18.3127C134.131 18.4948 134.167 18.6968 134.167 18.9184ZM133.418 18.9309C133.418 18.7925 133.394 18.6718 133.348 18.5688C133.304 18.4636 133.231 18.3783 133.128 18.3127C133.019 18.2451 132.895 18.2045 132.757 18.1909C132.62 18.1774 132.422 18.1712 132.165 18.1712H131.623V19.7156H132.149C132.407 19.7156 132.607 19.7052 132.749 19.6834C132.89 19.6584 133.013 19.6137 133.116 19.5491C133.222 19.4784 133.297 19.3961 133.344 19.3014C133.393 19.2036 133.418 19.0797 133.418 18.9309ZM136.739 20.4316C136.051 20.4316 135.516 20.2276 135.135 19.8218C134.755 19.4117 134.566 18.832 134.566 18.0817C134.566 17.3417 134.75 16.7537 135.119 16.3166C135.488 15.8785 135.97 15.6589 136.565 15.6589C136.833 15.6589 137.071 15.6995 137.277 15.7807C137.483 15.8618 137.664 15.9888 137.818 16.1626C137.973 16.3364 138.092 16.5487 138.174 16.8005C138.257 17.0503 138.298 17.3563 138.298 17.7195V18.1348H135.305C135.305 18.6624 135.431 19.0662 135.684 19.3462C135.936 19.6251 136.286 19.7645 136.731 19.7645C136.892 19.7645 137.047 19.7458 137.2 19.7073C137.354 19.6698 137.494 19.6209 137.617 19.5616C137.749 19.4991 137.86 19.4388 137.95 19.3826C138.04 19.3222 138.114 19.2671 138.174 19.2161H138.216V20.0487C138.131 20.084 138.026 20.1288 137.9 20.1829C137.773 20.2349 137.66 20.2755 137.559 20.3046C137.417 20.3463 137.289 20.3765 137.173 20.3983C137.059 20.4202 136.915 20.4316 136.739 20.4316ZM137.59 17.5488C137.585 17.3428 137.562 17.1659 137.52 17.016C137.479 16.8672 137.42 16.7412 137.342 16.6382C137.257 16.5248 137.148 16.4373 137.014 16.378C136.883 16.3187 136.719 16.2885 136.523 16.2885C136.329 16.2885 136.164 16.3198 136.028 16.3822C135.894 16.4415 135.771 16.53 135.66 16.6466C135.552 16.7652 135.469 16.8984 135.413 17.0452C135.356 17.1888 135.32 17.3563 135.305 17.5488H137.59ZM145.765 20.3255H145V14.9876H143.058C143.051 15.2936 143.041 15.5933 143.028 15.8858C143.015 16.1762 143.004 16.4363 142.996 16.6663C142.976 17.2387 142.943 17.7112 142.896 18.0859C142.853 18.4595 142.794 18.7727 142.722 19.0246C142.653 19.2712 142.569 19.47 142.474 19.6219C142.381 19.7739 142.279 19.9008 142.168 20.0039C142.053 20.1152 141.928 20.1996 141.793 20.2568C141.663 20.3109 141.509 20.338 141.334 20.338C141.279 20.338 141.224 20.3349 141.168 20.3297C141.113 20.3265 141.071 20.3255 141.04 20.3255V19.5449H141.093C141.12 19.5481 141.142 19.5501 141.16 19.5533C141.177 19.5553 141.204 19.5575 141.241 19.5575C141.334 19.5575 141.42 19.5418 141.5 19.5127C141.579 19.4825 141.648 19.4367 141.705 19.3743C141.88 19.1921 142.008 18.8706 142.087 18.4064C142.17 17.9402 142.228 17.3147 142.262 16.5289C142.274 16.2625 142.287 15.9118 142.3 15.4758C142.313 15.0397 142.325 14.638 142.335 14.2727H145.765V20.3255ZM150.8 14.8492C150.662 14.8492 150.522 14.8669 150.382 14.9023C150.244 14.9377 150.107 14.9835 149.973 15.0407C149.849 15.0948 149.741 15.1521 149.648 15.2114C149.558 15.2707 149.477 15.3269 149.404 15.3779H149.358V14.5204C149.525 14.4257 149.753 14.3403 150.039 14.2644C150.327 14.1853 150.602 14.1457 150.863 14.1457C151.123 14.1457 151.35 14.1749 151.543 14.2321C151.739 14.2862 151.915 14.3715 152.072 14.4881C152.243 14.6182 152.37 14.7753 152.455 14.9595C152.544 15.1437 152.587 15.3592 152.587 15.6059C152.587 15.9389 152.482 16.2313 152.273 16.4842C152.065 16.7361 151.815 16.8953 151.524 16.964V17.0201C151.645 17.0451 151.773 17.0868 151.91 17.1461C152.05 17.2065 152.178 17.2938 152.297 17.4104C152.416 17.527 152.512 17.6779 152.587 17.8621C152.661 18.0432 152.699 18.2659 152.699 18.5282C152.699 18.8019 152.654 19.0548 152.563 19.2848C152.476 19.5127 152.351 19.7145 152.188 19.8904C152.021 20.0746 151.819 20.2141 151.581 20.3088C151.345 20.4046 151.075 20.4514 150.773 20.4514C150.484 20.4514 150.198 20.415 149.915 20.3421C149.631 20.2682 149.392 20.1808 149.199 20.0778V19.2202H149.254C149.416 19.3441 149.634 19.4638 149.907 19.5772C150.18 19.6917 150.454 19.7479 150.727 19.7479C150.884 19.7479 151.042 19.7229 151.198 19.6708C151.359 19.6167 151.491 19.5303 151.597 19.4107C151.7 19.292 151.778 19.1599 151.833 19.0163C151.887 18.8726 151.914 18.6915 151.914 18.472C151.914 18.2524 151.883 18.0723 151.821 17.9308C151.762 17.7903 151.678 17.679 151.57 17.5978C151.462 17.5166 151.333 17.4604 151.183 17.4312C151.036 17.399 150.876 17.3823 150.703 17.3823H150.374V16.7069H150.63C150.978 16.7069 151.261 16.6205 151.477 16.4467C151.696 16.274 151.806 16.0221 151.806 15.6912C151.806 15.5392 151.777 15.4091 151.721 15.3009C151.664 15.1895 151.592 15.1011 151.504 15.0366C151.406 14.9658 151.298 14.9169 151.179 14.8898C151.061 14.8627 150.935 14.8492 150.8 14.8492ZM157.057 18.3981C157.057 18.6916 157.012 18.9621 156.922 19.2119C156.834 19.4606 156.71 19.6761 156.551 19.8582C156.389 20.0424 156.186 20.1871 155.943 20.2932C155.704 20.3983 155.434 20.4514 155.135 20.4514C154.859 20.4514 154.588 20.4191 154.32 20.3536C154.054 20.2911 153.824 20.2089 153.628 20.1059V19.2484H153.681C153.74 19.2942 153.826 19.3472 153.936 19.4065C154.047 19.4638 154.17 19.5179 154.304 19.5689C154.456 19.6261 154.595 19.6708 154.722 19.7031C154.848 19.7333 154.99 19.7479 155.147 19.7479C155.302 19.7479 155.452 19.7198 155.6 19.6625C155.746 19.6032 155.873 19.5085 155.979 19.3785C156.074 19.2588 156.146 19.1193 156.195 18.96C156.246 18.7998 156.273 18.6114 156.273 18.395C156.273 18.1806 156.244 18.0047 156.188 17.8663C156.133 17.7279 156.053 17.6144 155.947 17.5249C155.836 17.4219 155.7 17.3501 155.537 17.3095C155.378 17.2658 155.199 17.2439 155 17.2439C154.791 17.2439 154.581 17.2616 154.37 17.297C154.158 17.3293 153.99 17.3605 153.863 17.3906V14.2727H157.022V14.9835H154.61V16.5935C154.703 16.5831 154.794 16.5747 154.884 16.5695C154.974 16.5633 155.057 16.5612 155.131 16.5612C155.425 16.5612 155.674 16.5872 155.878 16.6382C156.082 16.6902 156.278 16.7901 156.466 16.939C156.657 17.0909 156.803 17.2804 156.902 17.5083C157.005 17.7362 157.057 18.0328 157.057 18.3981ZM160.286 14L158.032 21.643H157.379L159.621 14H160.286ZM164.185 20.3255H161.377V19.7073H162.421V15.6506H161.377V15.0979C161.771 15.0979 162.061 15.0397 162.247 14.9231C162.436 14.8035 162.541 14.5797 162.564 14.2519H163.163V19.7073H164.185V20.3255ZM168.508 20.3255H165.701V19.7073H166.745V15.6506H165.701V15.0979C166.095 15.0979 166.385 15.0397 166.571 14.9231C166.759 14.8035 166.865 14.5797 166.888 14.2519H167.487V19.7073H168.508V20.3255ZM171.679 18.0453H169.498V17.3095H171.679V18.0453ZM175.708 20.3255H172.901V19.7073H173.945V15.6506H172.901V15.0979C173.296 15.0979 173.586 15.0397 173.771 14.9231C173.959 14.8035 174.065 14.5797 174.089 14.2519H174.688V19.7073H175.708V20.3255ZM180.353 17.297C180.353 18.3835 180.202 19.1817 179.901 19.6917C179.602 20.1985 179.139 20.4514 178.512 20.4514C177.878 20.4514 177.413 20.1923 177.116 19.675C176.82 19.1578 176.672 18.3669 176.672 17.3053C176.672 16.2126 176.821 15.4143 177.12 14.9106C177.422 14.4038 177.886 14.1498 178.512 14.1498C179.147 14.1498 179.612 14.4121 179.908 14.9346C180.205 15.4581 180.353 16.2449 180.353 17.297ZM179.363 19.1422C179.438 18.9423 179.491 18.6884 179.522 18.3825C179.553 18.0765 179.568 17.7143 179.568 17.297C179.568 16.8818 179.553 16.5217 179.522 16.2157C179.491 15.9097 179.437 15.6547 179.359 15.4507C179.282 15.2447 179.175 15.0896 179.039 14.9835C178.904 14.8753 178.729 14.8211 178.512 14.8211C178.298 14.8211 178.122 14.8753 177.982 14.9835C177.846 15.0896 177.738 15.2478 177.658 15.4591C177.58 15.6651 177.528 15.9253 177.499 16.2396C177.471 16.5539 177.457 16.9088 177.457 17.3053C177.457 17.7279 177.469 18.0817 177.491 18.3658C177.517 18.651 177.572 18.9049 177.654 19.1307C177.729 19.3389 177.834 19.5002 177.97 19.6136C178.11 19.725 178.29 19.7812 178.512 19.7812C178.726 19.7812 178.902 19.7281 179.039 19.6219C179.177 19.5137 179.286 19.3534 179.363 19.1422ZM184.677 17.297C184.677 18.3835 184.526 19.1817 184.224 19.6917C183.925 20.1985 183.462 20.4514 182.836 20.4514C182.202 20.4514 181.736 20.1923 181.439 19.675C181.143 19.1578 180.995 18.3669 180.995 17.3053C180.995 16.2126 181.144 15.4143 181.443 14.9106C181.745 14.4038 182.21 14.1498 182.836 14.1498C183.47 14.1498 183.935 14.4121 184.232 14.9346C184.528 15.4581 184.677 16.2449 184.677 17.297ZM183.687 19.1422C183.761 18.9423 183.814 18.6884 183.845 18.3825C183.876 18.0765 183.892 17.7143 183.892 17.297C183.892 16.8818 183.876 16.5217 183.845 16.2157C183.814 15.9097 183.76 15.6547 183.683 15.4507C183.606 15.2447 183.499 15.0896 183.362 14.9835C183.227 14.8753 183.052 14.8211 182.836 14.8211C182.621 14.8211 182.445 14.8753 182.306 14.9835C182.169 15.0896 182.061 15.2478 181.981 15.4591C181.904 15.6651 181.851 15.9253 181.823 16.2396C181.794 16.5539 181.78 16.9088 181.78 17.3053C181.78 17.7279 181.792 18.0817 181.815 18.3658C181.84 18.651 181.895 18.9049 181.977 19.1307C182.052 19.3389 182.158 19.5002 182.295 19.6136C182.433 19.725 182.615 19.7812 182.836 19.7812C183.05 19.7812 183.225 19.7281 183.362 19.6219C183.501 19.5137 183.609 19.3534 183.687 19.1422ZM189 17.297C189 18.3835 188.85 19.1817 188.548 19.6917C188.249 20.1985 187.786 20.4514 187.16 20.4514C186.525 20.4514 186.06 20.1923 185.764 19.675C185.467 19.1578 185.318 18.3669 185.318 17.3053C185.318 16.2126 185.468 15.4143 185.767 14.9106C186.069 14.4038 186.533 14.1498 187.16 14.1498C187.793 14.1498 188.258 14.4121 188.555 14.9346C188.851 15.4581 189 16.2449 189 17.297ZM188.01 19.1422C188.085 18.9423 188.138 18.6884 188.168 18.3825C188.2 18.0765 188.215 17.7143 188.215 17.297C188.215 16.8818 188.2 16.5217 188.168 16.2157C188.138 15.9097 188.083 15.6547 188.006 15.4507C187.929 15.2447 187.822 15.0896 187.685 14.9835C187.552 14.8753 187.375 14.8211 187.16 14.8211C186.946 14.8211 186.769 14.8753 186.63 14.9835C186.493 15.0896 186.384 15.2478 186.304 15.4591C186.227 15.6651 186.175 15.9253 186.146 16.2396C186.118 16.5539 186.103 16.9088 186.103 17.3053C186.103 17.7279 186.115 18.0817 186.138 18.3658C186.165 18.651 186.218 18.9049 186.301 19.1307C186.376 19.3389 186.481 19.5002 186.618 19.6136C186.757 19.725 186.938 19.7812 187.16 19.7812C187.373 19.7812 187.549 19.7281 187.685 19.6219C187.825 19.5137 187.933 19.3534 188.01 19.1422Z" fill="#8C99B2"/>
<path d="M205.709 19.3955C205.709 19.7671 205.648 20.1109 205.523 20.4269C205.404 20.7438 205.234 21.0166 205.014 21.2471C204.791 21.4814 204.513 21.6648 204.18 21.7993C203.851 21.9337 203.481 22 203.071 22C202.692 22 202.319 21.9597 201.951 21.8771C201.586 21.7974 201.269 21.6927 201 21.5621V20.474H201.074C201.156 20.5325 201.273 20.5988 201.425 20.6747C201.577 20.7467 201.745 20.8159 201.929 20.8812C202.138 20.9532 202.33 21.0099 202.503 21.0512C202.676 21.0896 202.871 21.1078 203.087 21.1078C203.299 21.1078 203.506 21.0723 203.707 20.9993C203.91 20.9244 204.083 20.8034 204.228 20.6391C204.359 20.4874 204.459 20.3107 204.526 20.1071C204.596 19.9044 204.632 19.6653 204.632 19.3907C204.632 19.1189 204.593 18.8951 204.515 18.7193C204.441 18.5445 204.331 18.3995 204.186 18.2862C204.034 18.1556 203.846 18.0644 203.623 18.0135C203.404 17.9578 203.158 17.9309 202.885 17.9309C202.598 17.9309 202.31 17.953 202.019 17.9981C201.73 18.0384 201.497 18.0788 201.324 18.1162V14.1594H205.662V15.0622H202.348V17.1049C202.476 17.0915 202.601 17.081 202.726 17.0742C202.849 17.0675 202.963 17.0636 203.066 17.0636C203.469 17.0636 203.81 17.0963 204.09 17.1616C204.37 17.2269 204.639 17.3546 204.898 17.5438C205.16 17.7359 205.359 17.977 205.498 18.266C205.639 18.5551 205.709 18.9316 205.709 19.3955ZM211.736 21.8406H206.857V20.7621C207.207 20.4394 207.538 20.1301 207.849 19.8343C208.161 19.5385 208.465 19.2303 208.763 18.9105C209.364 18.268 209.775 17.7532 209.994 17.3681C210.214 16.9801 210.323 16.5787 210.323 16.1667C210.323 15.9535 210.288 15.7662 210.217 15.6039C210.149 15.4425 210.056 15.3081 209.936 15.2015C209.811 15.0987 209.668 15.0209 209.506 14.97C209.343 14.9181 209.164 14.8922 208.969 14.8922C208.781 14.8922 208.591 14.9162 208.396 14.9643C208.205 15.0094 208.021 15.066 207.844 15.1352C207.695 15.1928 207.552 15.2639 207.413 15.3465C207.276 15.4291 207.164 15.4992 207.079 15.5577H207.021V14.4639C207.24 14.3573 207.545 14.2545 207.934 14.1546C208.327 14.0519 208.698 14 209.049 14C209.786 14 210.362 14.1911 210.78 14.5724C211.197 14.9508 211.407 15.4646 211.407 16.1148C211.407 16.4144 211.369 16.691 211.295 16.9455C211.224 17.2 211.125 17.4353 210.998 17.6524C210.866 17.8752 210.709 18.097 210.525 18.3179C210.341 18.5378 210.146 18.7539 209.941 18.9671C209.609 19.3186 209.237 19.6826 208.826 20.061C208.419 20.4394 208.093 20.7381 207.849 20.959H211.736V21.8406ZM214.491 21.8406H213.222V20.3702H214.491V21.8406ZM221 17.9981C221 19.3762 220.793 20.3895 220.379 21.0358C219.968 21.6793 219.333 22 218.472 22C217.603 22 216.963 21.6725 216.556 21.0156C216.15 20.3587 215.946 19.3561 215.946 18.0077C215.946 16.6219 216.151 15.6096 216.562 14.97C216.976 14.3265 217.612 14.0048 218.472 14.0048C219.343 14.0048 219.983 14.3371 220.389 15.0008C220.796 15.6644 221 16.6632 221 17.9981ZM219.641 20.3395C219.744 20.085 219.816 19.7633 219.858 19.3753C219.901 18.9863 219.923 18.5273 219.923 17.9981C219.923 17.4718 219.901 17.0137 219.858 16.6257C219.816 16.2367 219.742 15.914 219.636 15.6557C219.529 15.3945 219.383 15.1967 219.195 15.0622C219.011 14.9249 218.77 14.8567 218.472 14.8567C218.179 14.8567 217.937 14.9249 217.746 15.0622C217.558 15.1967 217.409 15.3974 217.299 15.6663C217.193 15.9275 217.121 16.2579 217.082 16.6565C217.043 17.055 217.023 17.5054 217.023 18.0077C217.023 18.5446 217.039 18.993 217.071 19.3541C217.106 19.7152 217.181 20.0389 217.294 20.3241C217.397 20.5892 217.542 20.7937 217.73 20.9378C217.921 21.079 218.169 21.1491 218.472 21.1491C218.767 21.1491 219.007 21.0819 219.195 20.9484C219.386 20.8111 219.535 20.6074 219.641 20.3395Z" fill="#8C99B2"/>
<path opacity="0.3" d="M263 5H288.575C288.953 5 289.315 5.14028 289.582 5.39044C289.85 5.64059 290 5.97936 290 6.3329V17H263V5Z" fill="#303549"/>
<path d="M273.845 9.9273H272.303V12.9657H271.541V9.9273H270V9.40117H273.845V9.9273ZM276.814 8L274.45 14H273.764L276.116 8H276.814ZM281 12.9657H280.238V11.5743C280 11.6356 279.768 11.6838 279.544 11.7182C279.32 11.7517 279.098 11.7688 278.879 11.7688C278.687 11.7688 278.499 11.75 278.315 11.7116C278.134 11.6708 277.977 11.6062 277.844 11.5172C277.712 11.4273 277.61 11.3137 277.536 11.1757C277.466 11.0352 277.431 10.8701 277.431 10.6806V9.40117H278.193V10.3677C278.193 10.5253 278.201 10.6512 278.218 10.7443C278.234 10.8358 278.278 10.9257 278.352 11.0123C278.413 11.0874 278.507 11.1446 278.631 11.1847C278.759 11.2255 278.925 11.2459 279.131 11.2459C279.308 11.2459 279.499 11.232 279.702 11.2042C279.908 11.1765 280.086 11.1438 280.238 11.1054V9.40117H281V12.9657Z" fill="#8C99B2"/>
<path d="M290 18H263V30H290V18Z" fill="#0089FF" fill-opacity="0.2" stroke="#0089FF"/>
<path d="M272.468 26.7933H271.666V23.524L270.51 25.6467H269.907L268.76 23.524V26.7933H268V22.6347H268.979L270.247 24.9432L271.472 22.6347H272.468V26.7933ZM276.664 23.7108C276.664 23.8871 276.621 24.0453 276.535 24.1874C276.449 24.3256 276.336 24.4361 276.198 24.5181C276.046 24.6105 275.88 24.6763 275.702 24.7154C275.527 24.7555 275.326 24.7755 275.099 24.7755C274.862 24.7755 274.641 24.7564 274.434 24.7192C274.23 24.682 274.034 24.6287 273.848 24.5591V23.9081H273.922C274.028 23.9949 274.191 24.0749 274.413 24.1502C274.634 24.2217 274.858 24.2579 275.085 24.2579C275.327 24.2579 275.527 24.2131 275.685 24.1235C275.843 24.032 275.922 23.8967 275.922 23.7175C275.922 23.5392 275.859 23.4067 275.732 23.319C275.609 23.2323 275.398 23.1894 275.099 23.1894H274.495V22.6719H275.033C275.284 22.6719 275.476 22.6242 275.612 22.5298C275.75 22.4354 275.818 22.3068 275.818 22.1428C275.818 21.9941 275.76 21.876 275.642 21.7892C275.524 21.6996 275.34 21.6548 275.09 21.6548C274.9 21.6548 274.694 21.6939 274.474 21.7701C274.255 21.8473 274.092 21.9293 273.986 22.016H273.913V21.3651C274.096 21.2974 274.296 21.2431 274.512 21.2011C274.728 21.1592 274.949 21.1372 275.176 21.1372C275.613 21.1372 275.954 21.225 276.198 21.3984C276.442 21.5719 276.565 21.7806 276.565 22.0237C276.565 22.24 276.494 22.4183 276.354 22.5603C276.216 22.6986 276.036 22.8005 275.814 22.8654V22.8949C276.045 22.9349 276.242 23.0226 276.409 23.1599C276.579 23.2933 276.664 23.4773 276.664 23.7108ZM280.549 21L278.035 28H277.306L279.808 21H280.549ZM285 26.7933H284.189V25.1701C283.936 25.2416 283.69 25.2978 283.451 25.3379C283.213 25.3769 282.978 25.3969 282.745 25.3969C282.54 25.3969 282.341 25.375 282.145 25.3302C281.952 25.2826 281.785 25.2072 281.645 25.1033C281.504 24.9985 281.394 24.866 281.317 24.705C281.242 24.541 281.205 24.3485 281.205 24.1273V22.6347H282.016V23.7623C282.016 23.9462 282.024 24.093 282.041 24.2017C282.059 24.3084 282.107 24.4133 282.184 24.5143C282.25 24.602 282.349 24.6687 282.481 24.7154C282.617 24.7631 282.793 24.7869 283.012 24.7869C283.202 24.7869 283.404 24.7707 283.62 24.7383C283.839 24.7059 284.027 24.6678 284.189 24.623V22.6347H285V26.7933Z" fill="#D7E2F2"/>
<path fill-rule="evenodd" clip-rule="evenodd" d="M307 13C307.538 13 308 12.5387 308 12C308 11.4613 307.538 11 307 11C306.462 11 306 11.4613 306 12C306 12.5387 306.462 13 307 13Z" fill="#272A38"/>
<path fill-rule="evenodd" clip-rule="evenodd" d="M307 19C307.538 19 308 18.5387 308 18C308 17.4613 307.538 17 307 17C306.462 17 306 17.4613 306 18C306 18.5387 306.462 19 307 19Z" fill="#272A38"/>
<path fill-rule="evenodd" clip-rule="evenodd" d="M307 25C307.538 25 308 24.5387 308 24C308 23.4613 307.538 23 307 23C306.462 23 306 23.4613 306 24C306 24.5387 306.462 25 307 25Z" fill="#272A38"/>
<path d="M57.0041 75.1422H52V74.4295H54.1458V72.5245H52V71.8118H54.1458V69.5324H54.8583V71.8118H57.0041V72.5245H54.8583V74.4295H57.0041V75.1422ZM59.8923 69.7801C59.7376 69.7801 59.5838 69.7995 59.4291 69.8393C59.2744 69.8781 59.1224 69.9289 58.9738 69.9927C58.8367 70.0528 58.7163 70.1157 58.6135 70.1822C58.5133 70.2478 58.4236 70.3098 58.3427 70.3671H58.2918V69.415C58.4772 69.3096 58.7295 69.2144 59.0468 69.1303C59.3676 69.0434 59.6717 69 59.9609 69C60.25 69 60.5014 69.0314 60.7167 69.0943C60.9338 69.1544 61.1299 69.2495 61.3048 69.379C61.4929 69.5231 61.6352 69.6978 61.7293 69.9021C61.8268 70.1064 61.8752 70.3458 61.8752 70.6194C61.8752 70.9901 61.7592 71.3145 61.5271 71.5946C61.296 71.8747 61.0182 72.0522 60.6948 72.127V72.1908C60.8293 72.2176 60.9725 72.2638 61.1237 72.3304C61.2784 72.3969 61.4217 72.494 61.5535 72.6234C61.6853 72.7528 61.7926 72.9201 61.8752 73.1244C61.9578 73.3268 62 73.5727 62 73.8648C62 74.1689 61.9499 74.4489 61.8497 74.704C61.7521 74.9573 61.6133 75.181 61.4331 75.377C61.2467 75.5813 61.0226 75.7365 60.7589 75.8419C60.4961 75.9473 60.1973 76 59.8624 76C59.5416 76 59.2243 75.9593 58.9097 75.878C58.595 75.7966 58.3304 75.6986 58.116 75.5849V74.6319H58.1757C58.3559 74.7706 58.5976 74.9028 58.9009 75.0295C59.2041 75.1561 59.5073 75.2189 59.8106 75.2189C59.9855 75.2189 60.1595 75.1903 60.3344 75.133C60.512 75.0729 60.6596 74.9768 60.7765 74.8446C60.8908 74.7124 60.9778 74.5664 61.0384 74.4064C61.0982 74.2475 61.1281 74.046 61.1281 73.8019C61.1281 73.5579 61.0938 73.3582 61.0253 73.2011C60.9593 73.0449 60.8671 72.9219 60.7466 72.8313C60.6262 72.7408 60.483 72.6798 60.3177 72.6465C60.1542 72.6105 59.9767 72.592 59.7851 72.592H59.4203V71.8432H59.7033C60.0901 71.8432 60.403 71.7471 60.6438 71.5539C60.8864 71.3617 61.0086 71.0816 61.0086 70.7146C61.0086 70.5464 60.9769 70.4013 60.9136 70.2811C60.8512 70.1582 60.7704 70.0602 60.6737 69.9881C60.5647 69.9095 60.4443 69.8559 60.3133 69.8254C60.1815 69.7959 60.0409 69.7801 59.8923 69.7801Z" fill="#0089FF"/>
<path opacity="0.2" d="M32.1134 84C23.5043 77.0909 18 66.5265 18 54.6877C18 33.8733 35.0131 17 55.9999 17C76.9864 17 94 33.8733 94 54.6877C94 66.5265 88.4952 77.0909 79.8867 84" stroke="#8C99B2" stroke-width="4"/>
<path d="M21 41C20.5818 42.6136 20.2461 44.2836 20 46" stroke="#F7931E" stroke-width="4"/>
<path d="M57 17C40.466 17 26.377 26.9946 21 41" stroke="white" stroke-width="2" stroke-dasharray="1 1"/>
<path opacity="0.3" d="M57 17C73.5338 17 87.6225 26.9946 93 41" stroke="#0089FF" stroke-width="4"/>
<path d="M36.4899 51.307H35.6066V49.5682H31.068V51.307H30.1847V48.6925H30.5654C30.9725 47.9681 31.2998 47.0204 31.5473 45.8483C31.7979 44.673 31.9232 43.3903 31.9232 42H35.8275V48.6925H36.4899V51.307ZM34.8972 48.6925V42.8767H32.797C32.7532 44.1031 32.6122 45.2168 32.3742 46.2157C32.1361 47.2145 31.8323 48.0401 31.4627 48.6925H34.8972ZM41.6346 46.7449C41.6346 47.703 41.4216 48.4441 40.9956 48.967C40.5697 49.4868 40.0027 49.7467 39.2948 49.7467C38.5651 49.7467 37.9902 49.4784 37.5705 48.9419C37.154 48.4013 36.9457 47.6696 36.9457 46.7449C36.9457 45.794 37.1602 45.055 37.5894 44.5279C38.0216 44.0019 38.5901 43.7389 39.2948 43.7389C40.0027 43.7389 40.5697 44.0019 40.9956 44.5279C41.4216 45.0519 41.6346 45.7909 41.6346 46.7449ZM40.7231 46.7449C40.7231 46.008 40.5994 45.461 40.3519 45.1041C40.1045 44.744 39.7522 44.5644 39.2948 44.5644C38.8344 44.5644 38.4789 44.744 38.2283 45.1041C37.9809 45.461 37.8572 46.008 37.8572 46.7449C37.8572 47.4588 37.9809 48.0005 38.2283 48.371C38.4789 48.7384 38.8344 48.921 39.2948 48.921C39.749 48.921 40.0998 48.7415 40.3473 48.3815C40.5978 48.0172 40.7231 47.4724 40.7231 46.7449ZM46.6853 49.589H45.802V44.722H43.4247V49.589H42.5413V43.8965H46.6853V49.589ZM52.0884 43.8965L49.2646 51.6891H48.3203L49.26 49.3135L47.3524 43.8965H48.3063L49.7392 48.1111L51.1675 43.8965H52.0884ZM54.8416 49.7164C54.4814 49.7164 54.151 49.6569 53.8503 49.5379C53.5496 49.4158 53.2911 49.2321 53.075 48.9879C52.8589 48.7426 52.6913 48.4357 52.5723 48.0652C52.4532 47.6915 52.3938 47.2532 52.3938 46.7501C52.3938 46.2512 52.4549 45.819 52.577 45.4558C52.7023 45.0926 52.8683 44.7868 53.075 44.5384C53.2817 44.291 53.5386 44.1 53.8456 43.9675C54.1557 43.8318 54.4877 43.7639 54.8416 43.7639C55.1297 43.7639 55.407 43.8078 55.6732 43.8965C55.9425 43.9852 56.1822 44.0864 56.3921 44.2023V45.2774H56.3404C56.2778 45.22 56.1963 45.1532 56.0961 45.0791C55.9989 45.0039 55.8799 44.9277 55.739 44.8494C55.6168 44.7816 55.4728 44.7221 55.3067 44.671C55.1407 44.6198 54.981 44.5948 54.8275 44.5948C54.3702 44.5948 54.0021 44.7837 53.7234 45.1605C53.4478 45.5341 53.3099 46.0644 53.3099 46.7501C53.3099 47.4233 53.4431 47.9483 53.7093 48.3251C53.9787 48.6987 54.3514 48.8856 54.8275 48.8856C55.1157 48.8856 55.3897 48.8208 55.6497 48.6925C55.9097 48.563 56.1399 48.396 56.3404 48.1925H56.3921V49.2676C56.3043 49.3125 56.1947 49.3667 56.0632 49.4314C55.9317 49.492 55.8126 49.5379 55.7061 49.5682C55.5557 49.6162 55.4211 49.6517 55.3021 49.6757C55.1831 49.7028 55.0296 49.7164 54.8416 49.7164ZM61.034 44.7377H59.2491V49.589H58.3658V44.7377H56.58V43.8965H61.034V44.7377ZM65.8355 49.589H64.9618V45.3441L62.4908 49.589H61.6922V43.8965H62.5659V48.0756L65.0089 43.8965H65.8355V49.589ZM71.9812 49.589H71.1075V45.1145L69.8479 48.0192H69.1908L67.9408 45.1145V49.589H67.1133V43.8965H68.1804L69.5612 47.0559L70.8958 43.8965H71.9812V49.589ZM77.5765 46.7449C77.5765 47.703 77.3638 48.4441 76.9376 48.967C76.5123 49.4868 75.9446 49.7467 75.2373 49.7467C74.507 49.7467 73.9326 49.4784 73.513 48.9419C73.0964 48.4013 72.8876 47.6696 72.8876 46.7449C72.8876 45.794 73.1022 45.055 73.5313 44.5279C73.9633 44.0019 74.532 43.7389 75.2373 43.7389C75.9446 43.7389 76.5123 44.0019 76.9376 44.5279C77.3638 45.0519 77.5765 45.7909 77.5765 46.7449ZM76.6653 46.7449C76.6653 46.008 76.5421 45.461 76.2938 45.1041C76.0466 44.744 75.6944 44.5644 75.2373 44.5644C74.7764 44.5644 74.4214 44.744 74.1702 45.1041C73.9229 45.461 73.7998 46.008 73.7998 46.7449C73.7998 47.4588 73.9229 48.0005 74.1702 48.371C74.4214 48.7384 74.7764 48.921 75.2373 48.921C75.6915 48.921 76.0417 48.7415 76.289 48.3815C76.5402 48.0172 76.6653 47.4724 76.6653 46.7449ZM80.7624 49.7216C79.9262 49.7216 79.2758 49.4669 78.8129 48.9576C78.352 48.4441 78.1221 47.7166 78.1221 46.7762C78.1221 45.8483 78.3463 45.1114 78.7937 44.5644C79.2421 44.0133 79.8271 43.7389 80.5507 43.7389C80.8769 43.7389 81.1646 43.789 81.4157 43.8913C81.6659 43.9936 81.8853 44.1532 82.0729 44.3703C82.2615 44.5874 82.4049 44.8547 82.505 45.1709C82.606 45.483 82.656 45.8671 82.656 46.3221V46.8419H79.0188C79.0188 47.5047 79.1728 48.0109 79.4798 48.3606C79.7867 48.7113 80.211 48.8856 80.7528 48.8856C80.9471 48.8856 81.1367 48.8616 81.3214 48.8146C81.5091 48.7666 81.6784 48.706 81.8285 48.6309C81.9883 48.5526 82.123 48.4785 82.2327 48.4065C82.3424 48.3324 82.4338 48.2624 82.505 48.1977H82.5569V49.2426C82.454 49.2864 82.325 49.3427 82.172 49.4105C82.0181 49.4753 81.8805 49.5264 81.7583 49.564C81.586 49.6141 81.4292 49.6538 81.2887 49.6809C81.1511 49.708 80.975 49.7216 80.7624 49.7216ZM81.7958 46.1081C81.79 45.8503 81.7612 45.627 81.7111 45.4402C81.6611 45.2534 81.5889 45.0957 81.4956 44.9663C81.3917 44.8243 81.2589 44.7147 81.0963 44.6406C80.9365 44.5655 80.7374 44.5279 80.4987 44.5279C80.264 44.5279 80.0638 44.5676 79.8974 44.6459C79.7347 44.72 79.5866 44.8306 79.4518 44.9767C79.32 45.126 79.22 45.293 79.1507 45.4767C79.0824 45.6562 79.0381 45.867 79.0188 46.1081H81.7958ZM31.9654 60.539C31.9654 60.8584 31.9012 61.1287 31.7728 61.3499C31.6444 61.5702 31.48 61.7455 31.2794 61.8749C31.0884 62.0002 30.8707 62.0931 30.6264 62.1547C30.3821 62.2162 30.1378 62.2465 29.8935 62.2465C29.5489 62.2465 29.2232 62.209 28.9162 62.1348C28.6093 62.0628 28.3039 61.9469 28 61.7883V60.7279H28.0564C28.2694 60.9418 28.5357 61.1119 28.8551 61.2372C29.1778 61.3593 29.4988 61.4209 29.8183 61.4209C29.9561 61.4209 30.1033 61.4052 30.26 61.375C30.4197 61.3405 30.5544 61.2904 30.664 61.2226C30.808 61.1266 30.9099 61.0254 30.9694 60.9168C31.0321 60.8072 31.0633 60.6579 31.0633 60.4679C31.0633 60.2644 31.0273 60.1006 30.9553 59.9784C30.8864 59.8532 30.7908 59.7592 30.6687 59.6987C30.5465 59.6371 30.4087 59.5996 30.2553 59.586C30.1049 59.5693 29.9451 59.561 29.776 59.561H29.1558V58.7354H29.6304C29.7494 58.7354 29.8982 58.7312 30.0767 58.7249C30.2553 58.7145 30.3978 58.6873 30.5043 58.6435C30.6389 58.5892 30.747 58.512 30.8284 58.4139C30.9098 58.3116 30.9506 58.1425 30.9506 57.9045C30.9506 57.7375 30.9161 57.6039 30.8472 57.5016C30.7783 57.3994 30.6922 57.32 30.5889 57.2626C30.4823 57.201 30.3664 57.1604 30.2411 57.1395C30.1158 57.1165 29.9953 57.104 29.8794 57.104C29.5818 57.104 29.2952 57.1499 29.0196 57.2417C28.7471 57.3305 28.5122 57.463 28.3148 57.6394H28.2585V56.6051C28.484 56.5195 28.733 56.4454 29.0055 56.3807C29.2811 56.316 29.5568 56.2836 29.8324 56.2836C30.0548 56.2836 30.2803 56.3087 30.509 56.3598C30.7407 56.4078 30.96 56.4913 31.1668 56.6103C31.3609 56.7251 31.5237 56.8848 31.6554 57.0893C31.7869 57.2897 31.8526 57.5361 31.8526 57.8283C31.8526 58.1373 31.7712 58.4087 31.6083 58.6435C31.4486 58.8742 31.2357 59.0276 30.9694 59.1017V59.1372C31.2607 59.2468 31.4987 59.4128 31.6836 59.6372C31.8715 59.8616 31.9654 60.1622 31.9654 60.539ZM37.0397 62.114H36.1563V59.5505H33.779V62.114H32.8957V56.4214H33.779V58.7249H36.1563V56.4214H37.0397V62.114ZM41.2494 60.7122V59.133C41.0395 59.1528 40.7733 59.1821 40.4506 59.2196C40.1312 59.253 39.8727 59.3021 39.6754 59.3668C39.4405 59.4451 39.2463 59.5662 39.0928 59.729C38.9394 59.8887 38.8626 60.1131 38.8626 60.4012C38.8626 60.7279 38.9472 60.9742 39.1163 61.1402C39.2855 61.3072 39.5329 61.3906 39.8587 61.3906C40.1374 61.3906 40.3895 61.3259 40.6151 61.1965C40.8406 61.0639 41.052 60.9032 41.2494 60.7122ZM41.2494 61.5075C41.1773 61.5649 41.0802 61.6464 40.958 61.7518C40.839 61.8541 40.7231 61.9355 40.6104 61.9971C40.4537 62.0847 40.3019 62.1526 40.1547 62.2006C40.0105 62.2486 39.8069 62.2716 39.5438 62.2716C39.3277 62.2716 39.1226 62.2277 38.9284 62.139C38.7341 62.0513 38.5634 61.9272 38.4162 61.7675C38.2752 61.6109 38.1626 61.4188 38.078 61.1913C37.9934 60.9606 37.9511 60.7175 37.9511 60.4628C37.9511 60.0682 38.0279 59.7342 38.1813 59.4587C38.3348 59.18 38.5776 58.9597 38.9095 58.7959C39.204 58.6498 39.5516 58.5496 39.9526 58.4953C40.3535 58.4379 40.7858 58.3951 41.2494 58.368V58.1842C41.2494 57.9609 41.218 57.7804 41.1554 57.6447C41.0927 57.5048 41.0051 57.3983 40.8923 57.3231C40.7795 57.2449 40.6417 57.1937 40.4788 57.1708C40.3159 57.1436 40.1484 57.1301 39.9761 57.1301C39.7725 57.1301 39.5329 57.1635 39.2573 57.2313C38.9816 57.2961 38.7059 57.391 38.4304 57.5173H38.3787V56.5435C38.5415 56.4924 38.7749 56.4371 39.0787 56.3755C39.3826 56.3139 39.6833 56.2836 39.9808 56.2836C40.341 56.2836 40.6448 56.3139 40.8923 56.3755C41.1397 56.4371 41.3621 56.5466 41.5594 56.7063C41.7505 56.8629 41.893 57.0654 41.987 57.3128C42.0809 57.5612 42.128 57.8639 42.128 58.2208V62.114H41.2494V61.5075ZM47.3196 62.114H46.4363V59.8918C46.1606 59.9899 45.8928 60.0672 45.6328 60.1215C45.3729 60.1757 45.116 60.2029 44.8623 60.2029C44.6399 60.2029 44.4223 60.1726 44.2092 60.111C43.9994 60.0463 43.8177 59.943 43.6642 59.8C43.5108 59.657 43.3917 59.4754 43.3072 59.2551C43.2258 59.0307 43.1851 58.7677 43.1851 58.4651V56.4214H44.0684V57.9651C44.0684 58.2166 44.0777 58.417 44.0966 58.5673C44.1153 58.7134 44.167 58.8554 44.2516 58.9953C44.3237 59.1143 44.4317 59.2061 44.5758 59.2698C44.723 59.3345 44.9156 59.3668 45.1537 59.3668C45.3603 59.3668 45.5812 59.3449 45.8161 59.3011C46.0542 59.2562 46.2609 59.204 46.4363 59.1424V56.4214H47.3196V62.114ZM50.8762 62.2465C50.0399 62.2465 49.39 61.9919 48.9264 61.4825C48.466 60.969 48.2357 60.2415 48.2357 59.3011C48.2357 58.3732 48.4597 57.6363 48.9077 57.0893C49.3555 56.5383 49.9413 56.2638 50.6648 56.2638C50.9906 56.2638 51.2787 56.3139 51.5293 56.4162C51.7799 56.5185 51.9991 56.6781 52.1871 56.8952C52.375 57.1123 52.5191 57.3796 52.6193 57.6958C52.7195 58.0079 52.7696 58.392 52.7696 58.847V59.3668H49.1331C49.1331 60.0296 49.2866 60.5358 49.5935 60.8855C49.9006 61.2362 50.3249 61.4105 50.8668 61.4105C51.061 61.4105 51.2505 61.3865 51.4353 61.3395C51.6232 61.2915 51.7924 61.2309 51.9427 61.1558C52.1025 61.0775 52.2371 61.0034 52.3468 60.9314C52.4564 60.8573 52.5473 60.7873 52.6193 60.7226H52.671V61.7675C52.5677 61.8113 52.4392 61.8676 52.2857 61.9354C52.1322 62.0002 51.9945 62.0513 51.8723 62.0889C51.7 62.139 51.5434 62.1787 51.4024 62.2058C51.2646 62.233 51.0892 62.2465 50.8762 62.2465ZM51.9099 58.633C51.9036 58.3752 51.8754 58.1519 51.8253 57.9651C51.7752 57.7783 51.7031 57.6206 51.6092 57.4912C51.5057 57.3493 51.3727 57.2396 51.2098 57.1655C51.05 57.0904 50.8511 57.0528 50.6131 57.0528C50.3782 57.0528 50.1777 57.0925 50.0117 57.1708C49.8488 57.2449 49.7 57.3555 49.5653 57.5016C49.4338 57.6509 49.3336 57.8179 49.2646 58.0016C49.1957 58.1811 49.152 58.3919 49.1331 58.633H51.9099ZM57.8058 62.114H56.9234V59.5505H54.5456V62.114H53.6624V56.4214H54.5456V58.7249H56.9234V56.4214H57.8058V62.114ZM63.2279 62.114H62.3542V57.869L59.8832 62.114H59.0846V56.4214H59.9583V60.6005L62.4013 56.4214H63.2279V62.114ZM66.7852 62.2465C65.9481 62.2465 65.2986 61.9919 64.8348 61.4825C64.3748 60.969 64.1439 60.2415 64.1439 59.3011C64.1439 58.3732 64.3681 57.6363 64.8165 57.0893C65.2639 56.5383 65.8499 56.2638 66.5735 56.2638C66.8987 56.2638 67.1874 56.3139 67.4376 56.4162C67.6887 56.5185 67.9081 56.6781 68.0957 56.8952C68.2834 57.1123 68.4277 57.3796 68.5278 57.6958C68.6278 58.0079 68.6779 58.392 68.6779 58.847V59.3668H65.0417C65.0417 60.0296 65.1956 60.5358 65.5026 60.8855C65.8095 61.2362 66.2338 61.4105 66.7756 61.4105C66.9699 61.4105 67.1595 61.3865 67.3442 61.3395C67.5319 61.2915 67.7012 61.2309 67.8513 61.1558C68.0111 61.0775 68.1458 61.0034 68.2555 60.9314C68.3652 60.8573 68.4556 60.7873 68.5278 60.7226H68.5797V61.7675C68.4758 61.8113 68.3478 61.8676 68.1939 61.9354C68.0409 62.0002 67.9033 62.0513 67.7811 62.0889C67.6089 62.139 67.452 62.1787 67.3106 62.2058C67.173 62.233 66.9979 62.2465 66.7852 62.2465ZM67.8186 58.633C67.8119 58.3752 67.784 58.1519 67.734 57.9651C67.6839 57.7783 67.6117 57.6206 67.5174 57.4912C67.4145 57.3493 67.2817 57.2396 67.1181 57.1655C66.9584 57.0904 66.7602 57.0528 66.5216 57.0528C66.2868 57.0528 66.0866 57.0925 65.9202 57.1708C65.7576 57.2449 65.6084 57.3555 65.4737 57.5016C65.3428 57.6509 65.2418 57.8179 65.1735 58.0016C65.1042 58.1811 65.0609 58.3919 65.0417 58.633H67.8186ZM71.2807 60.661L69.9653 64H69.2793L70.1068 60.661H71.2807ZM78.9063 56.3295C78.9063 56.8733 78.734 57.3315 78.3896 57.7052C78.0451 58.0788 77.6207 58.2657 77.1165 58.2657C76.6181 58.2657 76.1957 58.0809 75.8474 57.7104C75.5 57.3399 75.3268 56.8796 75.3268 56.3295C75.3268 55.7858 75.499 55.3276 75.8435 54.9539C76.188 54.5802 76.6123 54.3934 77.1165 54.3934C77.6207 54.3934 78.0451 54.5802 78.3896 54.9539C78.734 55.3276 78.9063 55.7858 78.9063 56.3295ZM78.1692 56.3295C78.1692 56.0039 78.0682 55.7283 77.868 55.5039C77.6679 55.2795 77.4168 55.1678 77.1165 55.1678C76.8154 55.1678 76.5652 55.2795 76.365 55.5039C76.1639 55.7283 76.0639 56.0039 76.0639 56.3295C76.0639 56.6625 76.1659 56.9391 76.3689 57.1604C76.5758 57.3806 76.825 57.4912 77.1165 57.4912C77.4168 57.4912 77.6679 57.3796 77.868 57.1552C78.0682 56.9276 78.1692 56.6521 78.1692 56.3295ZM82.8244 62.2517C82.3674 62.2517 81.9459 62.1682 81.561 62.0023C81.179 61.8353 80.848 61.5869 80.5699 61.2581C80.2909 60.9283 80.0744 60.517 79.9214 60.0244C79.7675 59.5317 79.6914 58.966 79.6914 58.3273C79.6914 57.6916 79.7646 57.1385 79.9118 56.6656C80.0619 56.1939 80.2803 55.7826 80.5651 55.433C80.8442 55.0927 81.1742 54.8349 81.5562 54.6575C81.9382 54.478 82.3664 54.3882 82.8389 54.3882C83.0736 54.3882 83.293 54.407 83.497 54.4435C83.7039 54.4811 83.8944 54.5291 84.0695 54.5865C84.2206 54.6377 84.3736 54.7023 84.5304 54.7806C84.6902 54.8547 84.847 54.9382 85 55.0301V56.2481H84.9249C84.8432 56.1667 84.7383 56.0675 84.6103 55.9527C84.4814 55.8369 84.3255 55.7231 84.1407 55.6115C83.9618 55.506 83.7674 55.4194 83.5576 55.3515C83.3479 55.2827 83.1054 55.2492 82.8292 55.2492C82.5319 55.2492 82.25 55.315 81.9834 55.4475C81.7179 55.5801 81.4841 55.7753 81.2839 56.0341C81.0867 56.2919 80.9327 56.6166 80.823 57.0069C80.7133 57.3983 80.6585 57.8377 80.6585 58.3273C80.6585 58.847 80.7172 59.2959 80.8326 59.6726C80.9491 60.0463 81.1069 60.3625 81.307 60.6203C81.5014 60.8719 81.7304 61.0629 81.9931 61.1913C82.2567 61.3176 82.5348 61.3802 82.8292 61.3802C83.0987 61.3802 83.3479 61.3447 83.5769 61.2727C83.8049 61.2017 84.0089 61.1119 84.1869 61.0034C84.3601 60.898 84.5083 60.7905 84.6334 60.6819C84.7594 60.5702 84.8576 60.4742 84.9298 60.396H85V61.5994C84.847 61.6777 84.7007 61.7518 84.5631 61.8238C84.4284 61.8948 84.2639 61.9647 84.0695 62.0325C83.8665 62.1035 83.6769 62.1578 83.5018 62.1954C83.3296 62.2329 83.1035 62.2517 82.8244 62.2517Z" fill="#D7E2F2"/>
<path d="M13.1217 42L12 48L17 45.6738L13.1217 42Z" fill="#F7931E"/>
<path d="M95.8512 40.1717L95.5403 39.2349L88.0458 41.7221L88.3567 42.6589L95.8512 40.1717Z" fill="white"/>
<path d="M17.31 40L17 40.949L24.69 44L25 43.051L17.31 40Z" fill="white"/>
<path opacity="0.5" d="M308 38H116" stroke="#606580" stroke-width="0.31" stroke-miterlimit="10"/>
<path opacity="0.25" d="M308 48H116" stroke="#606580" stroke-width="0.31" stroke-miterlimit="10"/>
<path opacity="0.5" d="M308 57H116" stroke="#606580" stroke-width="0.31" stroke-miterlimit="10"/>
<path opacity="0.5" d="M308 66H116" stroke="#606580" stroke-width="0.31" stroke-miterlimit="10"/>
<path opacity="0.5" d="M308 76H116" stroke="#606580" stroke-width="0.31" stroke-miterlimit="10"/>
<path opacity="0.25" d="M308 85H116" stroke="#606580" stroke-width="0.31" stroke-miterlimit="10"/>
<path opacity="0.5" d="M308 93H116" stroke="#606580" stroke-width="0.31" stroke-miterlimit="10"/>
<path opacity="0.1" d="M147 38V93" stroke="#606580" stroke-width="0.5" stroke-miterlimit="10"/>
<path opacity="0.1" d="M212 38V93" stroke="#606580" stroke-width="0.5" stroke-miterlimit="10"/>
<path opacity="0.1" d="M276 38V93" stroke="#606580" stroke-width="0.5" stroke-miterlimit="10"/>
<path opacity="0.5" d="M116 38V93" stroke="#606580" stroke-width="0.5" stroke-miterlimit="10"/>
<path opacity="0.5" d="M180 38V93" stroke="#606580" stroke-width="0.5" stroke-miterlimit="10"/>
<path opacity="0.5" d="M243 38V93" stroke="#606580" stroke-width="0.5" stroke-miterlimit="10"/>
<path opacity="0.5" d="M308 93V38" stroke="#606580" stroke-width="0.5" stroke-miterlimit="10"/>
<path opacity="0.2" d="M308 49.9518H293.977H254.403L247.861 57H219.588L206.812 52.2362H180H156.446L148 46H116" stroke="white" stroke-miterlimit="10" stroke-dasharray="1.25 1.25"/>
<path opacity="0.05" d="M307.866 50.2777H293.853H254.306L247.769 57H219.515L206.749 52.4565H179.955H156.418L147.978 46.5087H116V38H308L307.866 50.2777Z" fill="#8C99B2"/>
<path opacity="0.2" d="M307.866 80.4589H293.853H254.306L247.769 86.6019H219.515L206.749 82.4436H179.955H156.418L147.978 77H116V93H308L307.866 80.4589Z" fill="#F7931E"/>
<path d="M116 77H148L156.446 82.1024H180H206.812L219.588 86H247.861L254.403 80.2421H293.977H308" stroke="#F7931E" stroke-miterlimit="10" stroke-dasharray="1.25 1.25"/>
<path d="M256 65H308" stroke="#0089FF" stroke-width="0.25" stroke-miterlimit="10"/>
<path d="M116 61H147.604L155.945 67.23H179.208H205.688L218.306 72H246.229L252.69 64.9587H256" stroke="#0089FF" stroke-miterlimit="10"/>
<path d="M256 84C254.345 82.8611 252.897 81.5578 251.698 80.1258C250.22 78.3712 250.207 77.7931 248.289 75.4706C247.189 73.9696 245.756 72.6237 244.054 71.4949C243.135 70.9341 242.093 70.502 240.977 70.217C239.6 70.0233 238.207 69.9118 236.809 69.8824C235.97 69.8824 234.891 69.781 233.373 69.6289L232.627 69.5477C231.415 69.3956 229.484 68.9899 228.458 68.8175C227.433 68.6451 225.462 68.2597 224.276 68.1177C223.317 67.996 220.973 67.8743 220.094 67.7424C218.672 67.4858 217.279 67.1461 215.926 66.7282C214.74 66.3935 212.796 65.7141 211.744 65.3084C210.448 64.6806 209.046 64.1928 207.575 63.8581C206.736 63.7364 204.406 63.6755 203.393 63.6248C202 63.5487 200.603 63.5487 199.212 63.6248C197.676 63.8682 196.243 64.3986 195.043 65.1664C193.727 65.7597 192.323 66.2293 190.861 66.566C190.022 66.7282 187.691 66.9311 186.679 67.0629C185.325 67.3946 183.926 67.6086 182.511 67.7019C180.553 67.7019 179.594 66.8195 178.329 66.5558C176.988 66.1877 175.583 65.9726 174.16 65.9169C171.164 66.0386 170.884 67.3875 169.978 67.9453C168.74 68.6451 167.022 70.065 165.796 70.7648C164.564 71.6126 163.155 72.2982 161.628 72.7931C160.287 73.1735 158.875 73.3895 157.446 73.4321C156.881 73.4179 156.325 73.3358 155.795 73.1887C154.882 72.9169 154.026 72.5487 153.251 72.0933C152.019 71.4209 150.586 70.9949 149.082 70.856C147.995 70.353 146.821 69.9696 145.593 69.7201C144.236 69.5801 142.897 69.3459 141.597 69.0203C140.641 68.8002 139.771 68.4027 139.067 67.8642C138.228 67.1847 138.095 66.6776 136.523 64.3753C134.952 62.0731 135.032 62.4788 134.645 61.6978C133.54 59.4565 134.179 58.4828 133.14 56.6979C132.618 55.6867 131.685 54.8297 130.477 54.2536C129.584 53.8885 129.052 53.9798 126.615 54.1421C125.233 54.1654 123.855 54.2425 122.486 54.3753C121.514 54.568 119.369 56.4037 117.412 56.6979C116.946 56.776 116.465 56.776 116 56.6979" stroke="white" stroke-width="0.5" stroke-miterlimit="10"/>
<path d="M256 66C256.553 66 257 65.5526 257 65C257 64.4474 256.553 64 256 64C255.447 64 255 64.4474 255 65C255 65.5526 255.447 66 256 66Z" stroke="#0089FF" stroke-width="0.5" stroke-miterlimit="10"/>
<path d="M256 66C256.552 66 257 65.5522 257 65C257 64.4478 256.552 64 256 64C255.448 64 255 64.4478 255 65C255 65.5522 255.448 66 256 66Z" fill="#0089FF"/>
<path opacity="0.2" d="M256.5 86C257.88 86 259 84.8811 259 83.5C259 82.1189 257.88 81 256.5 81C255.119 81 254 82.1189 254 83.5C254 84.8811 255.119 86 256.5 86Z" fill="#F7931E"/>
<path opacity="0.05" d="M255.5 90C259.09 90 262 87.0899 262 83.5C262 79.9101 259.09 77 255.5 77C251.91 77 249 79.9101 249 83.5C249 87.0899 251.91 90 255.5 90Z" fill="#F7931E"/>
<path opacity="0.2" d="M256.5 88C258.986 88 261 85.9855 261 83.5C261 81.0146 258.986 79 256.5 79C254.014 79 252 81.0146 252 83.5C252 85.9855 254.014 88 256.5 88Z" fill="#F7931E"/>
<path opacity="0.5" d="M256.5 86C257.88 86 259 84.8811 259 83.5C259 82.1189 257.88 81 256.5 81C255.12 81 254 82.1189 254 83.5C254 84.8811 255.12 86 256.5 86Z" stroke="#F7931E" stroke-miterlimit="10"/>
<path d="M256.5 85C257.328 85 258 84.3281 258 83.5C258 82.672 257.328 82 256.5 82C255.67 82 255 82.672 255 83.5C255 84.3281 255.67 85 256.5 85Z" fill="#F7931E"/>
<path d="M316.012 5L55.4 5.0002V6.97741L316.012 6.97721V5ZM318.976 7.96581C318.976 6.3277 317.649 5 316.012 5V6.97721C316.557 6.97721 317 7.4201 317 7.96581H318.976ZM318.976 55.4188V7.96581H317V55.4188H318.976ZM318.976 102.872V55.4188H317V102.872H318.976ZM317 102.872V105.338H318.976V102.872H317ZM317 105.338V107.034H318.976V105.338H317ZM317 107.034C317 107.578 316.557 108.023 316.012 108.023V110C317.649 110 318.976 108.675 318.976 107.034H317ZM316.012 108.023L7.96471 108.023V110L316.012 110V108.023ZM7.96471 108.023C7.4189 108.023 6.97647 107.578 6.97647 107.034H5C5 108.675 6.3273 110 7.96471 110V108.023ZM6.97647 107.034V105.338H5V107.034H6.97647ZM6.97647 105.338V102.872H5V105.338H6.97647ZM5 55.419V102.872H6.97647V55.419H5ZM55.4 5.0002C27.5649 5.0002 5 27.573 5 55.419H6.97647C6.97647 28.6654 28.6564 6.97741 55.4 6.97741V5.0002Z" fill="#272A38" fill-opacity="0.5"/>
</svg>
