<svg width="324" height="117" viewBox="0 0 324 117" fill="none" xmlns="http://www.w3.org/2000/svg">
<rect width="324" height="117" fill="#1B1E27"/>
<rect x="5" y="67" width="314" height="40" rx="2" fill="#12151E" fill-opacity="0.5"/>
<path d="M259 67H317C318.105 67 319 67.8954 319 69V105C319 106.105 318.105 107 317 107H259V67Z" fill="#272A38"/>
<text fill="#D7E2F2" xml:space="preserve" style="white-space: pre" font-family="Tahoma" font-size="12" letter-spacing="0em"><tspan x="274.496" y="91.7637">17 856</tspan></text>
<text fill="#D7E2F2" xml:space="preserve" style="white-space: pre" font-family="Tahoma" font-size="9" letter-spacing="0em"><tspan x="53" y="82.0728">&#x41c;&#x430;&#x441;&#x43b;&#x44f;&#x43d;&#x44b;&#x435; &#x434;&#x438;&#x441;&#x442;&#x438;&#x43b;&#x44f;&#x442;&#x44b;</tspan></text>
<rect x="53.5" y="92.5" width="196" height="7" rx="1.5" stroke="#606580" stroke-opacity="0.25"/>
<g clip-path="url(#clip0)">
<rect width="12.8668" height="4" transform="translate(55 94)" fill="#0089FF"/>
<rect width="12.8668" height="4" transform="translate(67.8668 94)" fill="#0089FF"/>
<rect width="12.8668" height="4" transform="translate(80.7332 94)" fill="#0089FF"/>
<rect width="12.8668" height="4" transform="translate(93.6 94)" fill="#0089FF"/>
<rect width="12.8668" height="4" transform="translate(106.466 94)" fill="#0089FF"/>
<rect width="12.8668" height="4" transform="translate(119.333 94)" fill="#0089FF"/>
<rect width="12.8668" height="4" transform="translate(132.2 94)" fill="#0089FF"/>
<rect width="12.8668" height="4" transform="translate(145.067 94)" fill="#0089FF"/>
<rect width="12.8668" height="4" transform="translate(157.933 94)" fill="#0089FF"/>
<rect width="12.8668" height="4" transform="translate(170.8 94)" fill="#0089FF"/>
<rect width="12.8669" height="4" transform="translate(183.667 94)" fill="#0089FF"/>
<rect width="12.8669" height="4" transform="translate(196.533 94)" fill="#0089FF"/>
<rect width="12.8669" height="4" transform="translate(209.4 94)" fill="#0089FF"/>
<rect width="12.8669" height="4" transform="translate(222.266 94)" fill="#0089FF"/>
<rect width="12.8669" height="4" transform="translate(235.133 94)" fill="#0089FF"/>
</g>
<mask id="path-8-inside-1" fill="white">
<path d="M5 69C5 67.8954 5.89543 67 7 67H45V107H7C5.89543 107 5 106.105 5 105V69Z"/>
</mask>
<path d="M5 69C5 67.8954 5.89543 67 7 67H45V107H7C5.89543 107 5 106.105 5 105V69Z" fill="#272A38" fill-opacity="0.5" stroke="#606580" stroke-opacity="0.25" stroke-width="2" mask="url(#path-8-inside-1)"/>
<path d="M25 84.3501V86.9001" stroke="#606580" stroke-width="1.2" stroke-miterlimit="10" stroke-linecap="round" stroke-linejoin="round"/>
<path d="M25 89V89.2" stroke="#606580" stroke-width="1.2" stroke-miterlimit="10" stroke-linecap="round" stroke-linejoin="round"/>
<path d="M32.0003 86.9998L25 79.9995L17.9997 86.9998L25 94.0001L32.0003 86.9998Z" stroke="#606580" stroke-width="1.2" stroke-miterlimit="10" stroke-linecap="round" stroke-linejoin="round"/>
<rect x="5.5" y="67.5" width="313" height="39" rx="1.5" stroke="#606580" stroke-opacity="0.25"/>
<rect x="5" y="12" width="314" height="40" rx="2" fill="#12151E" fill-opacity="0.5"/>
<path d="M259 12H317C318.105 12 319 12.8954 319 14V50C319 51.1046 318.105 52 317 52H259V12Z" fill="#272A38"/>
<text fill="#D7E2F2" xml:space="preserve" style="white-space: pre" font-family="Tahoma" font-size="12" letter-spacing="0em"><tspan x="274.496" y="30.7637">17 586</tspan></text>
<text fill="#0089FF" xml:space="preserve" style="white-space: pre" font-family="Tahoma" font-size="10" letter-spacing="0em"><tspan x="280.58" y="43.9697">15 208</tspan></text>
<text fill="#F7931E" xml:space="preserve" style="white-space: pre" font-family="Tahoma" font-size="10" letter-spacing="0em"><tspan x="225.039" y="30.9697">1 458</tspan></text>
<text fill="#D7E2F2" xml:space="preserve" style="white-space: pre" font-family="Tahoma" font-size="9" letter-spacing="0em"><tspan x="53" y="29.0728">&#x421;&#x43c;&#x435;&#x441;&#x44c; &#x433;&#x443;&#x434;&#x440;&#x43e;&#x43d;&#x430;</tspan></text>
<rect x="53.5" y="36.5" width="196" height="7" rx="1.5" stroke="#606580" stroke-opacity="0.25"/>
<g clip-path="url(#clip1)">
<rect width="12.8668" height="4" transform="translate(55 38)" fill="white"/>
<rect width="12.8668" height="4" transform="translate(67.8668 38)" fill="white"/>
<rect width="12.8668" height="4" transform="translate(80.7332 38)" fill="white"/>
<rect width="12.8668" height="4" transform="translate(93.6 38)" fill="white"/>
<rect width="12.8668" height="4" transform="translate(106.466 38)" fill="white"/>
<rect width="12.8668" height="4" transform="translate(119.333 38)" fill="white"/>
<rect width="12.8668" height="4" transform="translate(132.2 38)" fill="white"/>
<rect width="12.8668" height="4" transform="translate(145.067 38)" fill="white"/>
<rect width="12.8668" height="4" transform="translate(157.933 38)" fill="white"/>
<rect width="12.8668" height="4" transform="translate(170.8 38)" fill="white"/>
<rect width="12.8669" height="4" transform="translate(183.667 38)" fill="white"/>
<rect width="12.8669" height="4" transform="translate(196.533 38)" fill="white"/>
<rect width="12.8669" height="4" transform="translate(209.4 38)" fill="white"/>
<rect width="12.8669" height="4" transform="translate(222.266 38)" fill="white"/>
<rect width="12.8669" height="4" transform="translate(235.133 38)" fill="#F7931E"/>
</g>
<mask id="path-22-inside-2" fill="white">
<path d="M5 14C5 12.8954 5.89543 12 7 12H45V52H7C5.89543 52 5 51.1046 5 50V14Z"/>
</mask>
<path d="M5 14C5 12.8954 5.89543 12 7 12H45V52H7C5.89543 52 5 51.1046 5 50V14Z" fill="#272A38" fill-opacity="0.5" stroke="#606580" stroke-opacity="0.25" stroke-width="2" mask="url(#path-22-inside-2)"/>
<path d="M25 29.3501V31.9001" stroke="#606580" stroke-width="1.2" stroke-miterlimit="10" stroke-linecap="round" stroke-linejoin="round"/>
<path d="M25 34V34.2" stroke="#606580" stroke-width="1.2" stroke-miterlimit="10" stroke-linecap="round" stroke-linejoin="round"/>
<path d="M32.0003 31.9998L25 24.9995L17.9997 31.9998L25 39.0001L32.0003 31.9998Z" stroke="#606580" stroke-width="1.2" stroke-miterlimit="10" stroke-linecap="round" stroke-linejoin="round"/>
<rect x="5.5" y="12.5" width="313" height="39" rx="1.5" stroke="#606580" stroke-opacity="0.25"/>
<defs>
<clipPath id="clip0">
<rect x="55" y="94" width="193" height="4" rx="1" fill="white"/>
</clipPath>
<clipPath id="clip1">
<rect x="55" y="38" width="193" height="4" rx="1" fill="white"/>
</clipPath>
</defs>
</svg>
