<svg id="b5ceefeb-43d1-4dd9-b960-5a79609613ef" data-name="1" xmlns="http://www.w3.org/2000/svg" xmlns:xlink="http://www.w3.org/1999/xlink" viewBox="0 0 324 116.75"><defs><style>.fcb73531-5a25-4dce-9db7-c2a309fdc682{fill:none;}.ba300728-2480-49af-9ffd-81994558270d{opacity:0.3;}.a90b66ca-b9df-46fa-b5a5-bb6c898bd50a{fill:#606580;}.b58e733f-b767-4696-abf8-ae536519e9ae{opacity:0.2;}.b9cd6073-d6ef-426f-8d8a-c476ab5e653c{clip-path:url(#b4c11bd9-58ff-4a57-9458-359053fe97db);}.af99b899-18ea-4143-8a9b-139d6a947c42{fill:#5b607d;}.afc94a59-71f6-431e-af23-ed09d91b3a91{fill:#f0f0f0;}.b9d181a5-4a79-4d99-a6ab-eac8674f8830{fill:#41a7f3;}.bfa09542-75b5-4b53-a890-e3f06a72749e{clip-path:url(#acd7dbc1-aec6-4051-91be-80a9e704310c);}.e277df08-b5bc-4a2c-b35c-1620c7b53c3d{fill:#f20000;}.e0f23c55-5840-45a9-8397-a44801cafd50{opacity:0.7;}.fdf0c2dc-d0fc-4a89-b50a-c88300612dba{fill:#1b1f2c;}.eb2c4f5d-44db-4482-963d-edf043416393{opacity:0.5;}.aff08994-d2d4-43d5-9f59-22339a050fd2{opacity:0.1;}.e210cbe3-69fe-46e6-8c81-2b7a8eef76c9{fill:#58607f;}.ec3f4715-0337-454f-ac97-7b1c8e327dc6{fill:#8799b3;}.a2bd3c30-2d17-413e-9985-6fae8ab87ac7{fill:#fff;}.be6f9340-5637-4f58-b614-6022afc6aad8{fill:#43a5f1;}.b744872f-1e2c-40b0-a639-44c7733bfa48{opacity:0.6;}.a7df207d-5514-4da1-9182-416455a3ce61{clip-path:url(#a298b355-ced0-468f-9dc0-22df320ee5f9);}.aa4cb43f-3ac3-4a0d-8f77-a1ba3614e2fd{fill:#8a97b0;}.e6d7de6c-bb35-4a22-bf5d-62fabe82651f{opacity:0.05;}</style><clipPath id="b4c11bd9-58ff-4a57-9458-359053fe97db"><path class="fcb73531-5a25-4dce-9db7-c2a309fdc682" d="M292.27,24.41H6.61V11.89l1.64-1.64h284Z"/></clipPath><clipPath id="acd7dbc1-aec6-4051-91be-80a9e704310c"><rect class="fcb73531-5a25-4dce-9db7-c2a309fdc682" x="7.88" y="73.74" width="282.71" height="10.16" transform="translate(298.47 157.64) rotate(180)"/></clipPath><clipPath id="a298b355-ced0-468f-9dc0-22df320ee5f9"><rect class="fcb73531-5a25-4dce-9db7-c2a309fdc682" x="121.7" y="24.59" width="11.61" height="73.93"/></clipPath></defs><title>Макеты (5)</title><g class="ba300728-2480-49af-9ffd-81994558270d"><path class="a90b66ca-b9df-46fa-b5a5-bb6c898bd50a" d="M45.67,9.73,44.4,8.58H9L5.76,11.91v1.43h.43l3.1-3.21H315l3.21,3.32h.42V12l-3.3-3.44h-84.5l-1.26,1.15ZM10.9,9l-.65.71H9.7L10.35,9Zm.95,0-.65.71h-.55L11.31,9ZM312.94,9l.65.71H313L312.39,9Zm.95,0,.65.71H314L313.34,9Zm1.6.71H315L314.3,9h.54ZM8.75,9.71,9.4,9H10l-.65.71Z"/><path class="a90b66ca-b9df-46fa-b5a5-bb6c898bd50a" d="M229.53,102.8l1.26,1.14h84.5l3.3-3.43V99.08h-.42L315,102.4H9.29l-3.1-3.21H5.76v1.43L9,103.94H44.4l1.27-1.14Zm-219.18.73-.65-.71h.55l.65.71Zm1,0-.66-.71h.55l.65.71Zm301.08,0,.65-.71h.55l-.65.71Zm.95,0,.65-.71h.55l-.65.71Zm1.5,0h-.54l.65-.71h.54ZM9.3,102.82l.65.71H9.4l-.65-.71Z"/></g><g class="b58e733f-b767-4696-abf8-ae536519e9ae"><g class="b9cd6073-d6ef-426f-8d8a-c476ab5e653c"><rect class="af99b899-18ea-4143-8a9b-139d6a947c42" x="6.61" y="10.25" width="285.66"/><rect class="af99b899-18ea-4143-8a9b-139d6a947c42" x="6.61" y="10.25" width="285.66" height="11.87"/><rect class="af99b899-18ea-4143-8a9b-139d6a947c42" x="6.61" y="22.11" width="285.66" height="2.29"/></g></g><path class="af99b899-18ea-4143-8a9b-139d6a947c42" d="M15.83,15.59h-.9v2.26h-.44V15.59H13.6V15.2h2.23Z"/><path class="af99b899-18ea-4143-8a9b-139d6a947c42" d="M18.1,17a.69.69,0,0,1-.08.35.71.71,0,0,1-.2.25,1,1,0,0,1-.33.17,1.89,1.89,0,0,1-.46.05h-.88V15.2h.45v1H17a2.61,2.61,0,0,1,.46,0,.81.81,0,0,1,.33.15.63.63,0,0,1,.2.26A.86.86,0,0,1,18.1,17Zm-.45,0a.48.48,0,0,0,0-.22.31.31,0,0,0-.13-.15.81.81,0,0,0-.22-.07H16.6v.9h.28a1.84,1.84,0,0,0,.36,0,.63.63,0,0,0,.22-.07.39.39,0,0,0,.14-.15A.46.46,0,0,0,17.65,17Zm1.2.81h-.44V15.2h.44Z"/><path class="af99b899-18ea-4143-8a9b-139d6a947c42" d="M20.53,17.91a1.35,1.35,0,0,1-.5-.09.9.9,0,0,1-.38-.25,1.15,1.15,0,0,1-.26-.43,2.2,2.2,0,0,1-.08-.61,1.76,1.76,0,0,1,.09-.6,1.14,1.14,0,0,1,.25-.43.94.94,0,0,1,.38-.27,1.39,1.39,0,0,1,.5-.09,1.52,1.52,0,0,1,.42.06,2.32,2.32,0,0,1,.35.14v.5h0l-.12-.09L21,15.64l-.22-.08a1,1,0,0,0-.24,0,.66.66,0,0,0-.55.27,1.14,1.14,0,0,0-.21.74,1.22,1.22,0,0,0,.2.73.68.68,0,0,0,.56.26,1,1,0,0,0,.41-.09,1.41,1.41,0,0,0,.35-.23h0v.5l-.16.07-.18.07-.2.05Z"/><path class="af99b899-18ea-4143-8a9b-139d6a947c42" d="M22.39,17.85h-.56v-.68h.56Z"/><path class="af99b899-18ea-4143-8a9b-139d6a947c42" d="M26.58,15.59h-.89v2.26h-.44V15.59h-.9V15.2h2.23Z"/><path class="af99b899-18ea-4143-8a9b-139d6a947c42" d="M29,17.85h-.44V16.66H27.35v1.19h-.44V15.2h.44v1.07h1.19V15.2H29Z"/><path class="af99b899-18ea-4143-8a9b-139d6a947c42" d="M30.3,17.85h-.56v-.68h.56Z"/><path class="afc94a59-71f6-431e-af23-ed09d91b3a91" d="M259.27,17.53h-.47V14.41h-1.62v3.12h-.47V14h2.56Z"/><path class="afc94a59-71f6-431e-af23-ed09d91b3a91" d="M262,17.53h-.45V15.25h-.91c0,.14,0,.26,0,.38s0,.23,0,.33,0,.46-.05.62a1.68,1.68,0,0,1-.09.41.9.9,0,0,1-.11.24,1.07,1.07,0,0,1-.14.16.82.82,0,0,1-.17.11.76.76,0,0,1-.21,0h-.18v-.39h.21a.18.18,0,0,0,.09-.06.83.83,0,0,0,.18-.41c0-.19.06-.47.08-.81,0-.13,0-.29,0-.46s0-.35,0-.51H262Z"/><path class="afc94a59-71f6-431e-af23-ed09d91b3a91" d="M264.13,17.25l-.15.11a.55.55,0,0,1-.17.11.89.89,0,0,1-.23.1,1.24,1.24,0,0,1-.31,0,.81.81,0,0,1-.31-.06.78.78,0,0,1-.26-.17.73.73,0,0,1-.17-.27,1,1,0,0,1-.06-.34.88.88,0,0,1,.11-.47A.82.82,0,0,1,263,16a2.26,2.26,0,0,1,.53-.14l.65-.05V15.7a.47.47,0,0,0-.05-.25.28.28,0,0,0-.13-.15.48.48,0,0,0-.21-.07,1.06,1.06,0,0,0-.25,0,1.24,1.24,0,0,0-.36,0,2.25,2.25,0,0,0-.42.13h0v-.45a2.55,2.55,0,0,1,.36-.08,2.28,2.28,0,0,1,.45,0,2,2,0,0,1,.46,0,1,1,0,0,1,.34.15.65.65,0,0,1,.21.28,1.11,1.11,0,0,1,.07.43v1.81h-.44Zm0-.37v-.74l-.4,0a2.53,2.53,0,0,0-.39.07.74.74,0,0,0-.3.17.39.39,0,0,0-.11.31.48.48,0,0,0,.12.35.59.59,0,0,0,.38.11.79.79,0,0,0,.38-.09A1.66,1.66,0,0,0,264.13,16.88Z"/><path class="afc94a59-71f6-431e-af23-ed09d91b3a91" d="M267.29,17.53h-.44V16.34h-1.2v1.19h-.45V14.88h.45V16h1.2V14.88h.44Z"/><path class="b9d181a5-4a79-4d99-a6ab-eac8674f8830" d="M280.2,15.73a1.5,1.5,0,0,1-.1.58,1.13,1.13,0,0,1-.27.42,1.31,1.31,0,0,1-.48.3,1.86,1.86,0,0,1-.58.11v.43h-.46v-.43a1.92,1.92,0,0,1-.58-.11,1.24,1.24,0,0,1-.48-.29,1.26,1.26,0,0,1-.27-.43,1.54,1.54,0,0,1-.1-.58,1.64,1.64,0,0,1,.09-.56,1.51,1.51,0,0,1,.27-.42,1.15,1.15,0,0,1,.46-.3,1.89,1.89,0,0,1,.61-.12v-.39h.46v.39a2,2,0,0,1,.62.12,1.23,1.23,0,0,1,.46.3,1.11,1.11,0,0,1,.26.42A1.6,1.6,0,0,1,280.2,15.73Zm-1.89,1.05V14.69a1.43,1.43,0,0,0-.39.07.81.81,0,0,0-.29.19.91.91,0,0,0-.2.33,1.44,1.44,0,0,0-.06.43,1.39,1.39,0,0,0,.07.48.78.78,0,0,0,.21.35,1,1,0,0,0,.28.17A.92.92,0,0,0,278.31,16.78Zm1.4-1.07a1.44,1.44,0,0,0-.06-.43.91.91,0,0,0-.2-.33.7.7,0,0,0-.29-.19,1.36,1.36,0,0,0-.39-.07v2.09a1,1,0,0,0,.39-.07.73.73,0,0,0,.27-.17.91.91,0,0,0,.22-.35A1.75,1.75,0,0,0,279.71,15.71Z"/><path class="b9d181a5-4a79-4d99-a6ab-eac8674f8830" d="M282.16,17.25l-.14.11a.58.58,0,0,1-.18.11.89.89,0,0,1-.23.1,1.24,1.24,0,0,1-.31,0,.81.81,0,0,1-.31-.06.9.9,0,0,1-.26-.17.73.73,0,0,1-.17-.27,1,1,0,0,1-.06-.34,1,1,0,0,1,.11-.47A.82.82,0,0,1,281,16a2.4,2.4,0,0,1,.53-.14l.65-.05V15.7a.47.47,0,0,0-.05-.25.28.28,0,0,0-.13-.15.4.4,0,0,0-.21-.07,1,1,0,0,0-.25,0,1.29,1.29,0,0,0-.36,0,2.25,2.25,0,0,0-.42.13h0v-.45l.36-.08a2.28,2.28,0,0,1,.45,0,2,2,0,0,1,.46,0,1,1,0,0,1,.34.15.58.58,0,0,1,.21.28,1.1,1.1,0,0,1,.08.43v1.81h-.45Zm0-.37v-.74l-.4,0a2.53,2.53,0,0,0-.39.07.74.74,0,0,0-.3.17.43.43,0,0,0-.11.31.45.45,0,0,0,.13.35.56.56,0,0,0,.37.11.79.79,0,0,0,.38-.09A1.4,1.4,0,0,0,282.16,16.88Z"/><path class="b9d181a5-4a79-4d99-a6ab-eac8674f8830" d="M285.36,17.53h-.55l-.91-1.22h-.22v1.22h-.45V14.88h.45V16a.49.49,0,0,0,.5-.34l.06-.14a1.21,1.21,0,0,0,.05-.14.82.82,0,0,1,.29-.41.85.85,0,0,1,.48-.12h.12v.38h-.1a.44.44,0,0,0-.28.08.61.61,0,0,0-.16.28.87.87,0,0,1-.16.32.64.64,0,0,1-.19.18Z"/><path class="b9d181a5-4a79-4d99-a6ab-eac8674f8830" d="M287.59,15.27h-.9v2.26h-.45V15.27h-.9v-.39h2.25Z"/><rect class="a90b66ca-b9df-46fa-b5a5-bb6c898bd50a" x="7.85" y="27.53" width="0.22" height="71"/><rect class="a90b66ca-b9df-46fa-b5a5-bb6c898bd50a" x="7.87" y="91.37" width="281.84" height="0.22"/><polygon class="a90b66ca-b9df-46fa-b5a5-bb6c898bd50a" points="289.55 91.05 290.51 91.6 289.55 92.16 289.55 91.05"/><rect class="b9d181a5-4a79-4d99-a6ab-eac8674f8830" x="8.03" y="60.99" width="281.99" height="0.45"/><g class="b58e733f-b767-4696-abf8-ae536519e9ae"><g class="bfa09542-75b5-4b53-a890-e3f06a72749e"><rect class="e277df08-b5bc-4a2c-b35c-1620c7b53c3d" x="7.88" y="73.74" width="282.71" height="10.16"/></g></g><g class="e0f23c55-5840-45a9-8397-a44801cafd50"><path class="fdf0c2dc-d0fc-4a89-b50a-c88300612dba" d="M316.86,20.17h-9.93L301.7,15V11.14h9.94l5.22,5.22Z"/><path class="af99b899-18ea-4143-8a9b-139d6a947c42" d="M317,20.28H304.33l-2.73-2.74V11h12.63L317,13.77Zm-12.55-.21h12.33V13.86l-2.61-2.61H301.81v6.2Z"/><path class="af99b899-18ea-4143-8a9b-139d6a947c42" d="M311.89,18.21h-5.13a1,1,0,0,1-1-1V14.12a1,1,0,0,1,1-1h5.13a1,1,0,0,1,1,1v3.05A1,1,0,0,1,311.89,18.21Zm-5.13-4.9a.81.81,0,0,0-.81.81v3.05a.81.81,0,0,0,.81.81h5.13a.81.81,0,0,0,.81-.81V14.12a.81.81,0,0,0-.81-.81Z"/><path class="af99b899-18ea-4143-8a9b-139d6a947c42" d="M312.15,15.25h-.22V14.19a.15.15,0,0,0-.15-.15h-1.19v-.22h1.19a.38.38,0,0,1,.37.37Z"/><path class="af99b899-18ea-4143-8a9b-139d6a947c42" d="M308,17.43h-1.19a.36.36,0,0,1-.37-.36V16h.22v1.06a.15.15,0,0,0,.15.14H308Z"/></g><g class="eb2c4f5d-44db-4482-963d-edf043416393"><path class="fdf0c2dc-d0fc-4a89-b50a-c88300612dba" d="M39.67,21H7.51v-6.5l3.22-3.22h32l-3.1,3.13Z"/><path class="af99b899-18ea-4143-8a9b-139d6a947c42" d="M39.77,21.13H7.41V14.47l0,0,3.25-3.25H43l-.18.18L41,13.23l-1.24,1.25ZM7.62,20.91H39.56V14.39l0,0c.32-.31.77-.77,1.26-1.27s1.13-1.15,1.66-1.67H10.78L7.62,14.56Z"/></g><g class="aff08994-d2d4-43d5-9f59-22339a050fd2"><path class="e210cbe3-69fe-46e6-8c81-2b7a8eef76c9" d="M316.54,104H292.48V10.35h24.06l1.12,1.12v91.4Z"/></g><path class="e277df08-b5bc-4a2c-b35c-1620c7b53c3d" d="M307,80.2h-1.13v-.37H307Z"/><path class="e277df08-b5bc-4a2c-b35c-1620c7b53c3d" d="M309.24,80.38a1.05,1.05,0,0,1-.07.4.94.94,0,0,1-.19.32.87.87,0,0,1-.31.22,1.16,1.16,0,0,1-.42.08,2,2,0,0,1-.42-.05,1.52,1.52,0,0,1-.36-.12V80.8h0l.13.08.19.08L308,81a.78.78,0,0,0,.22,0,.69.69,0,0,0,.24,0,.43.43,0,0,0,.19-.14.82.82,0,0,0,.12-.2,1.19,1.19,0,0,0,0-.29.67.67,0,0,0,0-.26.52.52,0,0,0-.12-.17.53.53,0,0,0-.21-.11,1.27,1.27,0,0,0-.28,0,1.84,1.84,0,0,0-.33,0,1.33,1.33,0,0,0-.26,0V78.33h1.63v.35H308v.8h.27a1.92,1.92,0,0,1,.38,0,1,1,0,0,1,.31.15.85.85,0,0,1,.22.28A1,1,0,0,1,309.24,80.38Z"/><path class="e277df08-b5bc-4a2c-b35c-1620c7b53c3d" d="M311.56,80.36a1.22,1.22,0,0,1-.08.43.92.92,0,0,1-.2.32.89.89,0,0,1-.3.22,1.06,1.06,0,0,1-.37.07,1,1,0,0,1-.36-.07,1,1,0,0,1-.3-.21,1.18,1.18,0,0,1-.24-.43,3.06,3.06,0,0,1,0-1.39,1.61,1.61,0,0,1,.24-.55,1.1,1.1,0,0,1,.42-.35,1.25,1.25,0,0,1,.59-.13h.19l.15,0v.39h0l-.15-.06a.78.78,0,0,0-.22,0,.76.76,0,0,0-.6.25,1.16,1.16,0,0,0-.27.75,1.14,1.14,0,0,1,.29-.15.88.88,0,0,1,.33-.06,1,1,0,0,1,.3,0,.81.81,0,0,1,.28.14.77.77,0,0,1,.24.32A1.25,1.25,0,0,1,311.56,80.36Zm-.41,0a.75.75,0,0,0,0-.31.48.48,0,0,0-.33-.3l-.2,0a.76.76,0,0,0-.27.05.88.88,0,0,0-.26.12.28.28,0,0,0,0,.09v.1a1.66,1.66,0,0,0,.06.5.84.84,0,0,0,.15.3.68.68,0,0,0,.18.13.58.58,0,0,0,.19,0,.48.48,0,0,0,.39-.18A.77.77,0,0,0,311.15,80.37Z"/><path class="e277df08-b5bc-4a2c-b35c-1620c7b53c3d" d="M305.2,82.1h-6.94l3.47-6ZM299,81.65h5.4L301.73,77Z"/><path class="ec3f4715-0337-454f-ac97-7b1c8e327dc6" d="M51.34,15.28a1.41,1.41,0,0,1,.28.53,2.61,2.61,0,0,1,0,1.43,1.41,1.41,0,0,1-.28.53,1.09,1.09,0,0,1-.46.34,1.58,1.58,0,0,1-1.16,0,1.17,1.17,0,0,1-.45-.34,1.41,1.41,0,0,1-.28-.53,2.21,2.21,0,0,1-.1-.71,2.28,2.28,0,0,1,.1-.72,1.58,1.58,0,0,1,.28-.53,1.35,1.35,0,0,1,.45-.33,1.54,1.54,0,0,1,.58-.11,1.38,1.38,0,0,1,.59.12A1.12,1.12,0,0,1,51.34,15.28Zm-.06,1.25a1.93,1.93,0,0,0-.07-.57,1.11,1.11,0,0,0-.19-.41.82.82,0,0,0-.31-.25.87.87,0,0,0-.4-.09,1,1,0,0,0-.41.08.94.94,0,0,0-.31.26,1.2,1.2,0,0,0-.19.41,2,2,0,0,0-.07.57,1.57,1.57,0,0,0,.27,1,.85.85,0,0,0,.71.33.88.88,0,0,0,.71-.33A1.63,1.63,0,0,0,51.28,16.53Z"/><path class="ec3f4715-0337-454f-ac97-7b1c8e327dc6" d="M53.92,16.08H53.1v2.07h-.41V16.08h-.81v-.36h2Z"/><path class="ec3f4715-0337-454f-ac97-7b1c8e327dc6" d="M56.16,18.15h-.51L54.83,17h-.21v1.12h-.4V15.72h.4v1.06a.67.67,0,0,0,.27-.07.46.46,0,0,0,.19-.25s0-.08.05-.13l0-.12a.7.7,0,0,1,.26-.38.74.74,0,0,1,.44-.11H56v.35H55.9a.38.38,0,0,0-.26.07.61.61,0,0,0-.14.26,1,1,0,0,1-.14.29.94.94,0,0,1-.18.17Z"/><path class="ec3f4715-0337-454f-ac97-7b1c8e327dc6" d="M58.28,18.15h-.4V16.06h-.83c0,.12,0,.24,0,.35s0,.21,0,.3,0,.42,0,.57a1.92,1.92,0,0,1-.08.37.82.82,0,0,1-.11.23.81.81,0,0,1-.12.14.39.39,0,0,1-.16.1.58.58,0,0,1-.19,0h-.16v-.36h.09l.1,0a.24.24,0,0,0,.09-.06.68.68,0,0,0,.15-.37,4.21,4.21,0,0,0,.07-.74c0-.12,0-.26,0-.43s0-.31,0-.46h1.59Z"/><path class="ec3f4715-0337-454f-ac97-7b1c8e327dc6" d="M60.85,16.93a1.37,1.37,0,0,1-.3.95,1,1,0,0,1-.78.34,1,1,0,0,1-.79-.35,1.42,1.42,0,0,1-.28-.94A1.41,1.41,0,0,1,59,16a1,1,0,0,1,.78-.34,1,1,0,0,1,.78.34A1.36,1.36,0,0,1,60.85,16.93Zm-.42,0a1.22,1.22,0,0,0-.17-.7.58.58,0,0,0-.49-.23.56.56,0,0,0-.48.23,1.45,1.45,0,0,0,0,1.4.54.54,0,0,0,.48.23.57.57,0,0,0,.49-.23A1.18,1.18,0,0,0,60.43,16.93Z"/><path class="ec3f4715-0337-454f-ac97-7b1c8e327dc6" d="M63.16,18.15h-.4v-1.1H61.67v1.1h-.41V15.72h.41v1h1.09v-1h.4Z"/><path class="ec3f4715-0337-454f-ac97-7b1c8e327dc6" d="M64.79,18.21a1.18,1.18,0,0,1-.89-.33,1.3,1.3,0,0,1-.32-.93,1.38,1.38,0,0,1,.31-.95,1,1,0,0,1,.81-.35,1,1,0,0,1,.39.07.69.69,0,0,1,.3.2,1,1,0,0,1,.2.34,1.45,1.45,0,0,1,.07.49V17H64a.88.88,0,0,0,.21.64.78.78,0,0,0,.59.23,1.15,1.15,0,0,0,.26,0l.23-.08.19-.1.12-.09h0V18l-.17.07-.19.07-.22.05Zm.48-1.55a1.88,1.88,0,0,0,0-.28,1,1,0,0,0-.1-.21A.46.46,0,0,0,65,16a.61.61,0,0,0-.28,0,.54.54,0,0,0-.27,0,.64.64,0,0,0-.35.35,1.07,1.07,0,0,0-.06.27Z"/><path class="ec3f4715-0337-454f-ac97-7b1c8e327dc6" d="M68,18.15h-.41v-1.1H66.47v1.1h-.4V15.72h.4v1h1.09v-1H68Z"/><path class="ec3f4715-0337-454f-ac97-7b1c8e327dc6" d="M70.45,18.15h-.4V16.34l-1.13,1.81h-.37V15.72H69V17.5l1.13-1.78h.37Z"/><path class="ec3f4715-0337-454f-ac97-7b1c8e327dc6" d="M72.78,18.15h-.4v-1H72l-.72,1h-.47l.78-1a.83.83,0,0,1-.44-.27.75.75,0,0,1-.14-.47.57.57,0,0,1,.08-.32.76.76,0,0,1,.21-.23.84.84,0,0,1,.27-.11,2.05,2.05,0,0,1,.37,0h.86Zm-.4-1.29V16h-.44l-.22,0a.44.44,0,0,0-.16.06.3.3,0,0,0-.12.13.47.47,0,0,0,0,.17.56.56,0,0,0,0,.2.41.41,0,0,0,.1.14.37.37,0,0,0,.18.08,1,1,0,0,0,.24,0Z"/><path class="ec3f4715-0337-454f-ac97-7b1c8e327dc6" d="M76.65,18.15h-.41V16.07H75.15v2.08h-.4V15.72h1.9Z"/><path class="ec3f4715-0337-454f-ac97-7b1c8e327dc6" d="M79.22,16.93a1.37,1.37,0,0,1-.3.95,1,1,0,0,1-.78.34,1,1,0,0,1-.79-.35,1.43,1.43,0,0,1-.29-.94,1.36,1.36,0,0,1,.3-.94,1,1,0,0,1,.78-.34,1,1,0,0,1,.78.34A1.36,1.36,0,0,1,79.22,16.93Zm-.42,0a1.22,1.22,0,0,0-.17-.7.64.64,0,0,0-1,0,1.53,1.53,0,0,0,0,1.4.64.64,0,0,0,1,0A1.18,1.18,0,0,0,78.8,16.93Z"/><path class="ec3f4715-0337-454f-ac97-7b1c8e327dc6" d="M82.9,17.41a.83.83,0,0,1-.07.32.65.65,0,0,1-.18.22.84.84,0,0,1-.31.16,1.48,1.48,0,0,1-.38,0H81V15.72h1.27a.78.78,0,0,1,.24.09.42.42,0,0,1,.19.18.61.61,0,0,1,.06.28.56.56,0,0,1-.09.31.72.72,0,0,1-.25.21v0a.6.6,0,0,1,.46.59Zm-.54-1.07a.32.32,0,0,0,0-.14.22.22,0,0,0-.09-.1.53.53,0,0,0-.18-.05h-.65v.67h.68l.14-.06a.29.29,0,0,0,.1-.12A.48.48,0,0,0,82.36,16.34Zm.12,1.08a.37.37,0,0,0,0-.2.29.29,0,0,0-.15-.14.47.47,0,0,0-.16,0h-.72v.79h.69a1,1,0,0,0,.21-.07.43.43,0,0,0,.13-.14A.32.32,0,0,0,82.48,17.42Z"/><path class="ec3f4715-0337-454f-ac97-7b1c8e327dc6" d="M85.11,17.4a.66.66,0,0,1-.26.55,1.05,1.05,0,0,1-.3.15,1.61,1.61,0,0,1-.42,0h-.81V15.72h.41v.94h.41a2.26,2.26,0,0,1,.42,0,.81.81,0,0,1,.3.14.57.57,0,0,1,.19.24A.88.88,0,0,1,85.11,17.4Zm-.42,0a.38.38,0,0,0,0-.19.27.27,0,0,0-.12-.14.47.47,0,0,0-.21-.06h-.59v.82H84a1.52,1.52,0,0,0,.33,0,.4.4,0,0,0,.2-.07.27.27,0,0,0,.13-.13A.4.4,0,0,0,84.69,17.4Zm1.1.75h-.4V15.72h.4Z"/><path class="ec3f4715-0337-454f-ac97-7b1c8e327dc6" d="M88.4,16.87a1.53,1.53,0,0,1-.29,1,.88.88,0,0,1-.72.36,1.47,1.47,0,0,1-.32,0,1.17,1.17,0,0,1-.28-.13v1h-.41V15.72h.41V16a1.5,1.5,0,0,1,.33-.23.9.9,0,0,1,.4-.09.75.75,0,0,1,.65.33A1.56,1.56,0,0,1,88.4,16.87Zm-.42,0a1.27,1.27,0,0,0-.13-.64.46.46,0,0,0-.43-.23.8.8,0,0,0-.33.08,1.21,1.21,0,0,0-.3.2v1.37a1,1,0,0,0,.27.11,1,1,0,0,0,.26,0,.59.59,0,0,0,.49-.23A1.21,1.21,0,0,0,88,16.91Z"/><path class="ec3f4715-0337-454f-ac97-7b1c8e327dc6" d="M90.16,17.89,90,18a.76.76,0,0,1-.16.11,1,1,0,0,1-.21.09,1,1,0,0,1-.28,0,.67.67,0,0,1-.28-.06.63.63,0,0,1-.23-.16.72.72,0,0,1-.16-.25.78.78,0,0,1-.06-.31.86.86,0,0,1,.11-.43.77.77,0,0,1,.33-.28,2.09,2.09,0,0,1,.48-.13l.59-.05v-.08a.53.53,0,0,0,0-.23A.41.41,0,0,0,90,16.1a.47.47,0,0,0-.19-.06l-.23,0a1.47,1.47,0,0,0-.33,0,2.14,2.14,0,0,0-.38.13h0v-.42a2.34,2.34,0,0,1,.32-.07,2,2,0,0,1,.41,0,1.66,1.66,0,0,1,.42,0,.73.73,0,0,1,.31.14.63.63,0,0,1,.19.26.88.88,0,0,1,.07.39v1.66h-.41Zm0-.34v-.67l-.36,0a2.08,2.08,0,0,0-.36.07.56.56,0,0,0-.26.15.45.45,0,0,0,0,.6.48.48,0,0,0,.34.11.77.77,0,0,0,.34-.08A1.54,1.54,0,0,0,90.16,17.55Z"/><path class="ec3f4715-0337-454f-ac97-7b1c8e327dc6" d="M92.84,16.08a.81.81,0,0,1,.22.36,1.6,1.6,0,0,1,.08.51,1.46,1.46,0,0,1-.09.52,1.12,1.12,0,0,1-.24.4,1,1,0,0,1-.34.26,1,1,0,0,1-.41.09,1.16,1.16,0,0,1-.42-.08,1,1,0,0,1-.32-.25,1.48,1.48,0,0,1-.25-.52A3.25,3.25,0,0,1,91,16.6c0-.11,0-.22,0-.33a3.92,3.92,0,0,1,.06-.4,2.22,2.22,0,0,1,.12-.39.91.91,0,0,1,.19-.3,1,1,0,0,1,.4-.26,2.39,2.39,0,0,1,.65-.13l.31,0,.25,0v.38l-.23,0-.3,0a2.67,2.67,0,0,0-.45.08.76.76,0,0,0-.36.18.57.57,0,0,0-.14.27,2.06,2.06,0,0,0-.08.39,2.33,2.33,0,0,1,.34-.2,1.1,1.1,0,0,1,.4-.08.94.94,0,0,1,.37.07A.72.72,0,0,1,92.84,16.08Zm-.11.9a.9.9,0,0,0-.18-.6.6.6,0,0,0-.49-.2,1,1,0,0,0-.34.06,1.68,1.68,0,0,0-.3.15.53.53,0,0,0,0,.13.71.71,0,0,0,0,.14,2.5,2.5,0,0,0,.06.61,1,1,0,0,0,.17.38.78.78,0,0,0,.21.17.59.59,0,0,0,.23,0,.55.55,0,0,0,.48-.24A1,1,0,0,0,92.73,17Z"/><path class="ec3f4715-0337-454f-ac97-7b1c8e327dc6" d="M95.54,16.93a1.42,1.42,0,0,1-.29.95,1,1,0,0,1-.78.34,1,1,0,0,1-.79-.35,1.43,1.43,0,0,1-.29-.94,1.36,1.36,0,0,1,.3-.94,1.06,1.06,0,0,1,1.56,0A1.41,1.41,0,0,1,95.54,16.93Zm-.42,0a1.15,1.15,0,0,0-.17-.7.56.56,0,0,0-.48-.23.59.59,0,0,0-.49.23,1.53,1.53,0,0,0,0,1.4.57.57,0,0,0,.49.23.54.54,0,0,0,.48-.23A1.11,1.11,0,0,0,95.12,16.93Z"/><path class="ec3f4715-0337-454f-ac97-7b1c8e327dc6" d="M97.72,16.08H96.9v2.07h-.41V16.08h-.82v-.36h2Z"/><path class="ec3f4715-0337-454f-ac97-7b1c8e327dc6" d="M100,18.15h-.51L98.63,17h-.21v1.12H98V15.72h.4v1.06a.67.67,0,0,0,.27-.07.46.46,0,0,0,.19-.25s0-.08.05-.13l0-.12a.7.7,0,0,1,.26-.38.74.74,0,0,1,.44-.11h.11v.35H99.7a.38.38,0,0,0-.26.07.52.52,0,0,0-.14.26,1,1,0,0,1-.14.29.75.75,0,0,1-.19.17Z"/><path class="ec3f4715-0337-454f-ac97-7b1c8e327dc6" d="M101.26,18.21a1.18,1.18,0,0,1-.89-.33,1.3,1.3,0,0,1-.32-.93,1.38,1.38,0,0,1,.31-.95,1,1,0,0,1,.8-.35,1,1,0,0,1,.4.07.75.75,0,0,1,.3.2,1,1,0,0,1,.2.34,1.45,1.45,0,0,1,.07.49V17h-1.67a.88.88,0,0,0,.21.64.78.78,0,0,0,.59.23,1.15,1.15,0,0,0,.26,0l.23-.08.19-.1.12-.09h0V18l-.17.07-.19.07-.22.05Zm.47-1.55a1.14,1.14,0,0,0,0-.28,1,1,0,0,0-.1-.21.43.43,0,0,0-.19-.13.75.75,0,0,0-.54,0,.64.64,0,0,0-.35.35,1.07,1.07,0,0,0-.06.27Z"/><path class="a2bd3c30-2d17-413e-9985-6fae8ab87ac7" d="M304.25,61.82A3.06,3.06,0,0,1,304,63a2.44,2.44,0,0,1-.55.88,2.56,2.56,0,0,1-.8.57,2.47,2.47,0,0,1-1,.2,2.64,2.64,0,0,1-1-.19,2.22,2.22,0,0,1-.78-.55,3,3,0,0,1-.65-1.18,5.88,5.88,0,0,1-.24-1.81,8,8,0,0,1,.22-1.91,4.26,4.26,0,0,1,.66-1.48,3,3,0,0,1,1.13-1,3.51,3.51,0,0,1,1.59-.35,3.84,3.84,0,0,1,.5,0,2.09,2.09,0,0,1,.41.09v1h-.05a1.25,1.25,0,0,0-.42-.15,2.15,2.15,0,0,0-.58-.07,2.09,2.09,0,0,0-1.62.68,3.36,3.36,0,0,0-.73,2,3.35,3.35,0,0,1,.79-.42,2.46,2.46,0,0,1,.88-.15,2.88,2.88,0,0,1,.82.1,2.18,2.18,0,0,1,.74.38,2.05,2.05,0,0,1,.65.86A3,3,0,0,1,304.25,61.82Zm-1.1,0A2.57,2.57,0,0,0,303,61a1.46,1.46,0,0,0-.42-.57,1.07,1.07,0,0,0-.48-.23,2.51,2.51,0,0,0-.55-.06,2.28,2.28,0,0,0-.73.12,3.42,3.42,0,0,0-.7.33c0,.08,0,.16,0,.23v.28a4.6,4.6,0,0,0,.16,1.36,2.15,2.15,0,0,0,.41.79,1.38,1.38,0,0,0,.47.36,1.62,1.62,0,0,0,.54.1,1.3,1.3,0,0,0,1-.47A2.09,2.09,0,0,0,303.15,61.86Z"/><path class="a2bd3c30-2d17-413e-9985-6fae8ab87ac7" d="M307.62,64.63a3.16,3.16,0,0,1-1.09-.18,2.41,2.41,0,0,1-.83-.51,2.18,2.18,0,0,1-.52-.78,2.75,2.75,0,0,1-.17-.95,2.16,2.16,0,0,1,.35-1.21,2.4,2.4,0,0,1,1-.88v0a2.76,2.76,0,0,1-.87-.76,1.8,1.8,0,0,1-.29-1,2,2,0,0,1,.69-1.52,2.47,2.47,0,0,1,1.73-.61,2.53,2.53,0,0,1,1.75.58,1.89,1.89,0,0,1,.66,1.48,2.12,2.12,0,0,1-.31,1.08,2.16,2.16,0,0,1-.91.83v0a2.83,2.83,0,0,1,1.06.81,2,2,0,0,1,.36,1.22,2.32,2.32,0,0,1-.74,1.74A2.62,2.62,0,0,1,307.62,64.63Zm1.51-2.34a1.4,1.4,0,0,0-.2-.79,1.91,1.91,0,0,0-.74-.6,4.88,4.88,0,0,0-.49-.22l-.69-.29a2.08,2.08,0,0,0-.68.74,2.05,2.05,0,0,0-.24,1,1.73,1.73,0,0,0,.44,1.21,1.43,1.43,0,0,0,1.1.48,1.49,1.49,0,0,0,1.09-.41A1.53,1.53,0,0,0,309.13,62.29ZM309,58.23a1.26,1.26,0,0,0-.36-.91,1.37,1.37,0,0,0-1-.36,1.4,1.4,0,0,0-1,.33,1.09,1.09,0,0,0-.37.88,1.16,1.16,0,0,0,.19.68,1.89,1.89,0,0,0,.57.5c.11.06.28.15.51.25a5.6,5.6,0,0,0,.62.26,1.89,1.89,0,0,0,.64-.75A2.19,2.19,0,0,0,309,58.23Z"/><rect class="be6f9340-5637-4f58-b614-6022afc6aad8" x="121.59" y="99.23" width="11.7" height="0.93"/><g class="b744872f-1e2c-40b0-a639-44c7733bfa48"><path class="e277df08-b5bc-4a2c-b35c-1620c7b53c3d" d="M290.57,83.53H290v-.22h.55Zm-1.1,0h-.55v-.22h.55Zm-1.1,0h-.55v-.22h.55Zm-1.1,0h-.55V83.3h.55Zm-1.1,0h-.54V83.3h.54Zm-1.09,0h-.55V83.3h.55Zm-1.1,0h-.55V83.3H284Zm-1.1,0h-.55V83.3h.55Zm-1.1,0h-.55V83.3h.55Zm-1.1,0h-.55V83.3h.55Zm-1.1,0H279V83.3h.55Zm-1.1,0h-.55V83.3h.55Zm-1.1,0h-.55V83.3h.55Zm-1.1,0h-.54V83.3h.54Zm-1.09,0h-.55v-.23h.55Zm-1.1,0h-.55v-.23h.55Zm-1.1,0h-.55v-.23H273Zm-1.1,0h-.55v-.23h.55Zm-1.1,0h-.55v-.22h.55Zm-1.1,0h-.55v-.22h.55Zm-1.1,0H268v-.22h.55Zm-1.1,0h-.55v-.22h.55Zm-1.1,0h-.55v-.22h.55Zm-1.09,0h-.55v-.22h.55Zm-1.1,0h-.55v-.22h.55Zm-1.1,0h-.55v-.23h.55Zm-1.1,0h-.55v-.23H262Zm-1.1,0h-.55v-.23h.55Zm-1.1,0h-.55v-.23h.55Zm-1.1,0h-.55v-.22h.55Zm-1.1,0h-.55v-.22h.55Zm-1.1,0H256v-.22h.55Zm-1.09,0h-.55v-.22h.55Zm-1.1,0h-.55v-.22h.55Zm-1.1,0h-.55v-.22h.55Zm-1.1,0h-.55v-.22h.55Zm-1.1,0h-.55v-.23H251Zm-1.1,0h-.55v-.23h.55Zm-1.1,0h-.55v-.23h.55Zm-1.1,0h-.55v-.23h.55Zm-1.1,0h-.55v-.22h.55Zm-1.1,0H245v-.22h.54Zm-1.09,0h-.55v-.22h.55Zm-1.1,0h-.55v-.22h.55Zm-1.1,0h-.55v-.22h.55Zm-1.1,0h-.55v-.22h.55Zm-1.1,0h-.55v-.22H240Zm-1.1,0h-.55v-.23h.55Zm-1.1,0h-.55v-.23h.55Zm-1.1,0h-.55v-.23h.55Zm-1.1,0h-.54v-.23h.54Zm-1.09,0H234v-.22h.55Zm-1.1,0h-.55v-.22h.55Zm-1.1,0h-.55v-.22h.55Zm-1.1,0h-.55v-.22h.55Zm-1.1,0h-.55v-.22h.55Zm-1.1,0h-.55v-.22H229Zm-1.1,0h-.55v-.22h.55Zm-1.1,0h-.55v-.23h.55Zm-1.1,0h-.55v-.23h.55Zm-1.09,0h-.55v-.23h.55Zm-1.1,0H223v-.23h.55Zm-1.1,0h-.55v-.22h.55Zm-1.1,0h-.55v-.22h.55Zm-1.1,0h-.55v-.22h.55Zm-1.1,0h-.55v-.22h.55Zm-1.1,0h-.55v-.22H218Zm-1.1,0h-.55v-.22h.55Zm-1.1,0h-.55v-.22h.55Zm-1.09,0h-.55v-.23h.55Zm-1.1,0h-.55v-.23h.55Zm-1.1,0H212v-.23h.55Zm-1.1,0h-.55v-.22h.55Zm-1.1,0h-.55v-.22h.55Zm-1.1,0h-.55v-.22h.55Zm-1.1,0h-.55v-.22h.55Zm-1.1,0h-.55v-.22h.55Zm-1.1,0h-.55v-.22H206Zm-1.09,0h-.55v-.22h.55Zm-1.1,0h-.55v-.22h.55Zm-1.1,0h-.55v-.23h.55Zm-1.1,0H201v-.23h.55Zm-1.1,0h-.55v-.23h.55Zm-1.1,0h-.55v-.22h.55Zm-1.1,0h-.55v-.22h.55Zm-1.1,0h-.55v-.22h.55Zm-1.1,0h-.55v-.22h.55Zm-1.09,0h-.55v-.22H195Zm-1.1,0h-.55v-.22h.55Zm-1.1,0h-.55v-.22h.55Zm-1.1,0h-.55v-.22h.55Zm-1.1,0H190v-.23h.55Zm-1.1,0h-.55v-.23h.55Zm-1.1,0h-.55v-.23h.55Zm-1.1,0h-.55v-.22h.55Zm-1.1,0h-.55v-.22h.55Zm-1.1,0h-.54v-.22h.54Zm-1.09,0h-.55v-.22H184Zm-1.1,0h-.55v-.22h.55Zm-1.1,0h-.55v-.22h.55Zm-1.1,0h-.55v-.22h.55Zm-1.1,0H179v-.22h.55Zm-1.1,0h-.55v-.23h.55Zm-1.1,0h-.55v-.23h.55Zm-1.1,0h-.55v-.23h.55Zm-1.1,0h-.54v-.22h.54Zm-1.09,0h-.55v-.22h.55Zm-1.1,0h-.55v-.22H173Zm-1.1,0h-.55v-.22h.55Zm-1.1,0h-.55v-.22h.55Zm-1.1,0h-.55v-.22h.55Zm-1.1,0H168v-.22h.55Zm-1.1,0h-.55v-.22h.55Zm-1.1,0h-.55V83.2h.55Zm-1.1,0h-.55V83.2h.55Zm-1.09,0h-.55V83.2h.55Zm-1.1,0h-.55V83.2h.55Zm-1.1,0h-.55V83.2H162Zm-1.1,0h-.55V83.2h.55Zm-1.1,0h-.55V83.2h.55Zm-1.1,0h-.55V83.2h.55Zm-1.1,0h-.55V83.2h.55Zm-1.1,0H156V83.2h.55Zm-1.1,0h-.55V83.2h.55Zm-1.09,0h-.55v-.23h.55Zm-1.1,0h-.55v-.23h.55Zm-1.1,0h-.55v-.23h.55Zm-1.1,0h-.55v-.22H151Zm-1.1,0h-.55v-.22h.55Zm-1.1,0h-.55v-.22h.55Zm-1.1,0h-.55v-.22h.55Zm-1.1,0h-.55v-.22h.55Zm-1.1,0H145v-.22h.55Zm-1.1,0h-.54v-.22h.54Zm-1.09,0h-.55v-.22h.55Zm-1.1,0h-.55v-.23h.55Zm-1.1,0h-.55v-.23h.55Zm-1.1,0h-.55v-.23H140Zm-1.1,0h-.55v-.22h.55Zm-1.1,0h-.55v-.22h.55Zm-1.1,0h-.55v-.22h.55Zm-1.1,0h-.55v-.22h.55Zm-1.1,0H134v-.22h.54Zm-1.09,0h-.55v-.22h.55Zm-1.1,0h-.55v-.22h.55Zm-1.1,0h-.55v-.22h.55Zm-1.1,0h-.55v-.23h.55Zm-1.1,0h-.55v-.23H129Zm-1.1,0h-.55v-.23h.55Zm-1.1,0h-.55v-.22h.55Zm-1.1,0h-.55v-.22h.55Zm-1.1,0h-.55v-.22h.55Zm-1.09,0H123v-.22h.55Zm-1.1,0h-.55v-.22h.55Zm-1.1,0h-.55v-.22h.55Zm-1.1,0h-.55v-.22h.55Zm-1.1,0h-.55v-.22h.55Zm-1.1,0h-.55v-.23H118Zm-1.1,0h-.55v-.23h.55Zm-1.1,0h-.55v-.23h.55Zm-1.1,0h-.55v-.22h.55Zm-1.1,0h-.54v-.22h.54Zm-1.09,0H112v-.22h.55Zm-1.1,0h-.55v-.22h.55Zm-1.1,0h-.55v-.22h.55Zm-1.1,0h-.55v-.22h.55Zm-1.1,0h-.55v-.22h.55Zm-1.1,0h-.55v-.22h.55Zm-1.1,0h-.55v-.23H106Zm-1.1,0h-.55v-.23h.55Zm-1.1,0h-.54v-.23h.54Zm-1.09,0h-.55v-.22h.55Zm-1.1,0H101v-.22h.55Zm-1.1,0h-.55v-.22h.55Zm-1.1,0h-.55v-.22h.55Zm-1.1,0h-.55v-.22h.55Zm-1.1,0h-.55v-.22h.55Zm-1.1,0h-.55v-.22h.55Zm-1.1,0h-.55v-.22H95Zm-1.1,0h-.55v-.23h.55Zm-1.09,0h-.55v-.23h.55Zm-1.1,0h-.55v-.23h.55Zm-1.1,0H90v-.22h.55Zm-1.1,0h-.55v-.22h.55Zm-1.1,0h-.55v-.22h.55Zm-1.1,0h-.55v-.22h.55Zm-1.1,0h-.55v-.22h.55Zm-1.1,0h-.55v-.22h.55Zm-1.1,0h-.55v-.22H84Zm-1.09,0h-.55v-.22h.55Zm-1.1,0h-.55v-.23h.55Zm-1.1,0h-.55v-.23h.55Zm-1.1,0H79v-.23h.55Zm-1.1,0h-.55v-.22h.55Zm-1.1,0h-.55v-.22h.55Zm-1.1,0h-.55v-.22h.55Zm-1.1,0h-.55v-.22h.55Zm-1.1,0h-.55v-.22h.55Zm-1.1,0h-.54v-.22H73Zm-1.09,0h-.55v-.22h.55Zm-1.1,0h-.55v-.22h.55Zm-1.1,0h-.55v-.23h.55Zm-1.1,0H68v-.23h.55Zm-1.1,0h-.55v-.23h.55Zm-1.1,0h-.55v-.22h.55Zm-1.1,0h-.55v-.22h.55Zm-1.1,0h-.55v-.22h.55Zm-1.1,0h-.55v-.22h.55Zm-1.09,0h-.55v-.22H62Zm-1.1,0h-.55v-.22h.55Zm-1.1,0h-.55v-.22h.55Zm-1.1,0h-.55v-.22h.55Zm-1.1,0h-.55v-.23h.55Zm-1.1,0H56v-.23h.55Zm-1.1,0h-.55v-.23h.55Zm-1.1,0h-.55v-.22h.55Zm-1.1,0h-.55v-.22h.55Zm-1.1,0h-.54v-.22h.54Zm-1.09,0h-.55v-.22H51Zm-1.1,0h-.55v-.22h.55Zm-1.1,0h-.55v-.22h.55Zm-1.1,0h-.55v-.22h.55Zm-1.1,0h-.55v-.22h.55Zm-1.1,0H45V83.1h.55Zm-1.1,0h-.55V83.1h.55Zm-1.1,0h-.55V83.1h.55Zm-1.1,0h-.54V83.1h.54Zm-1.09,0h-.55V83.1h.55Zm-1.1,0h-.55V83.1H40Zm-1.1,0h-.55V83.1h.55Zm-1.1,0h-.55V83.1h.55Zm-1.1,0h-.55V83.1h.55Zm-1.1,0h-.55V83.1h.55Zm-1.1,0H34V83.1h.55Zm-1.1,0h-.55v-.23h.55Zm-1.1,0h-.55v-.23h.55Zm-1.09,0h-.55v-.23h.55Zm-1.1,0h-.55v-.22h.55Zm-1.1,0h-.55v-.22H29Zm-1.1,0h-.55v-.22h.55Zm-1.1,0h-.55v-.22h.55Zm-1.1,0h-.55v-.22h.55Zm-1.1,0h-.55v-.22h.55Zm-1.1,0H23v-.22h.55Zm-1.1,0h-.55v-.22h.55Zm-1.09,0h-.55v-.23h.55Zm-1.1,0h-.55v-.23h.55Zm-1.1,0h-.55v-.23h.55Zm-1.1,0h-.55v-.22H18Zm-1.1,0h-.55v-.22h.55Zm-1.1,0h-.55v-.22h.55Zm-1.1,0h-.55v-.22h.55Zm-1.1,0h-.55v-.22h.55Zm-1.1,0H12v-.22h.55Zm-1.1,0H10.9v-.22h.54Zm-1.09,0H9.8v-.22h.55Zm-1.1,0H8.7v-.23h.55Zm-1.1,0H7.87v-.23h.28Z"/></g><g class="ba300728-2480-49af-9ffd-81994558270d"><path class="a2bd3c30-2d17-413e-9985-6fae8ab87ac7" d="M290.57,77.73H290V77.5h.55Zm-1.1,0h-.55V77.5h.55Zm-1.1,0h-.55V77.5h.55Zm-1.1,0h-.55V77.5h.55Zm-1.1,0h-.54V77.5h.54Zm-1.09,0h-.55V77.5h.55Zm-1.1,0h-.55V77.5H284Zm-1.1,0h-.55V77.5h.55Zm-1.1,0h-.55v-.23h.55Zm-1.1,0h-.55v-.23h.55Zm-1.1,0H279v-.23h.55Zm-1.1,0h-.55v-.22h.55Zm-1.1,0h-.55v-.22h.55Zm-1.1,0h-.54v-.22h.54Zm-1.09,0h-.55v-.22h.55Zm-1.1,0h-.55v-.22h.55Zm-1.1,0h-.55v-.22H273Zm-1.1,0h-.55v-.22h.55Zm-1.1,0h-.55v-.22h.55Zm-1.1,0h-.55v-.23h.55Zm-1.1,0H268v-.23h.55Zm-1.1,0h-.55v-.23h.55Zm-1.1,0h-.55v-.22h.55Zm-1.09,0h-.55v-.22h.55Zm-1.1,0h-.55v-.22h.55Zm-1.1,0h-.55v-.22h.55Zm-1.1,0h-.55v-.22H262Zm-1.1,0h-.55v-.22h.55Zm-1.1,0h-.55v-.22h.55Zm-1.1,0h-.55v-.22h.55Zm-1.1,0h-.55v-.23h.55Zm-1.1,0H256v-.23h.55Zm-1.09,0h-.55v-.23h.55Zm-1.1,0h-.55v-.22h.55Zm-1.1,0h-.55v-.22h.55Zm-1.1,0h-.55v-.22h.55Zm-1.1,0h-.55v-.22H251Zm-1.1,0h-.55v-.22h.55Zm-1.1,0h-.55v-.22h.55Zm-1.1,0h-.55v-.22h.55Zm-1.1,0h-.55v-.22h.55Zm-1.1,0H245v-.23h.54Zm-1.09,0h-.55v-.23h.55Zm-1.1,0h-.55v-.23h.55Zm-1.1,0h-.55v-.22h.55Zm-1.1,0h-.55v-.22h.55Zm-1.1,0h-.55v-.22H240Zm-1.1,0h-.55v-.22h.55Zm-1.1,0h-.55v-.22h.55Zm-1.1,0h-.55v-.22h.55Zm-1.1,0h-.54v-.22h.54Zm-1.09,0H234v-.22h.55Zm-1.1,0h-.55v-.23h.55Zm-1.1,0h-.55v-.23h.55Zm-1.1,0h-.55v-.23h.55Zm-1.1,0h-.55v-.22h.55Zm-1.1,0h-.55v-.22H229Zm-1.1,0h-.55v-.22h.55Zm-1.1,0h-.55v-.22h.55Zm-1.1,0h-.55v-.22h.55Zm-1.09,0h-.55v-.22h.55Zm-1.1,0H223v-.22h.55Zm-1.1,0h-.55v-.22h.55Zm-1.1,0h-.55v-.23h.55Zm-1.1,0h-.55v-.23h.55Zm-1.1,0h-.55v-.23h.55Zm-1.1,0h-.55v-.22H218Zm-1.1,0h-.55v-.22h.55Zm-1.1,0h-.55v-.22h.55Zm-1.09,0h-.55v-.22h.55Zm-1.1,0h-.55v-.22h.55Zm-1.1,0H212v-.22h.55Zm-1.1,0h-.55v-.22h.55Zm-1.1,0h-.55v-.22h.55Zm-1.1,0h-.55v-.23h.55Zm-1.1,0h-.55v-.23h.55Zm-1.1,0h-.55v-.23h.55Zm-1.1,0h-.55v-.22H206Zm-1.09,0h-.55v-.22h.55Zm-1.1,0h-.55v-.22h.55Zm-1.1,0h-.55v-.22h.55Zm-1.1,0H201v-.22h.55Zm-1.1,0h-.55v-.22h.55Zm-1.1,0h-.55v-.22h.55Zm-1.1,0h-.55v-.22h.55Zm-1.1,0h-.55v-.23h.55Zm-1.1,0h-.55v-.23h.55Zm-1.09,0h-.55v-.23H195Zm-1.1,0h-.55v-.22h.55Zm-1.1,0h-.55v-.22h.55Zm-1.1,0h-.55v-.22h.55Zm-1.1,0H190v-.22h.55Zm-1.1,0h-.55v-.22h.55Zm-1.1,0h-.55v-.22h.55Zm-1.1,0h-.55v-.22h.55Zm-1.1,0h-.55v-.22h.55Zm-1.1,0h-.54v-.23h.54Zm-1.09,0h-.55v-.23H184Zm-1.1,0h-.55v-.23h.55Zm-1.1,0h-.55v-.22h.55Zm-1.1,0h-.55v-.22h.55Zm-1.1,0H179v-.22h.55Zm-1.1,0h-.55v-.22h.55Zm-1.1,0h-.55v-.22h.55Zm-1.1,0h-.55v-.22h.55Zm-1.1,0h-.54v-.22h.54Zm-1.09,0h-.55v-.22h.55Zm-1.1,0h-.55V77.4H173Zm-1.1,0h-.55V77.4h.55Zm-1.1,0h-.55V77.4h.55Zm-1.1,0h-.55V77.4h.55Zm-1.1,0H168V77.4h.55Zm-1.1,0h-.55V77.4h.55Zm-1.1,0h-.55V77.4h.55Zm-1.1,0h-.55V77.4h.55Zm-1.09,0h-.55V77.4h.55Zm-1.1,0h-.55V77.4h.55Zm-1.1,0h-.55V77.4H162Zm-1.1,0h-.55v-.23h.55Zm-1.1,0h-.55v-.23h.55Zm-1.1,0h-.55v-.23h.55Zm-1.1,0h-.55v-.22h.55Zm-1.1,0H156v-.22h.55Zm-1.1,0h-.55v-.22h.55Zm-1.09,0h-.55v-.22h.55Zm-1.1,0h-.55v-.22h.55Zm-1.1,0h-.55v-.22h.55Zm-1.1,0h-.55v-.22H151Zm-1.1,0h-.55v-.22h.55Zm-1.1,0h-.55v-.23h.55Zm-1.1,0h-.55v-.23h.55Zm-1.1,0h-.55v-.23h.55Zm-1.1,0H145v-.22h.55Zm-1.1,0h-.54v-.22h.54Zm-1.09,0h-.55v-.22h.55Zm-1.1,0h-.55v-.22h.55Zm-1.1,0h-.55v-.22h.55Zm-1.1,0h-.55v-.22H140Zm-1.1,0h-.55v-.22h.55Zm-1.1,0h-.55v-.22h.55Zm-1.1,0h-.55v-.23h.55Zm-1.1,0h-.55v-.23h.55Zm-1.1,0H134v-.23h.54Zm-1.09,0h-.55v-.22h.55Zm-1.1,0h-.55v-.22h.55Zm-1.1,0h-.55v-.22h.55Zm-1.1,0h-.55v-.22h.55Zm-1.1,0h-.55v-.22H129Zm-1.1,0h-.55v-.22h.55Zm-1.1,0h-.55v-.22h.55Zm-1.1,0h-.55v-.22h.55Zm-1.1,0h-.55v-.23h.55Zm-1.09,0H123v-.23h.55Zm-1.1,0h-.55v-.23h.55Zm-1.1,0h-.55v-.22h.55Zm-1.1,0h-.55v-.22h.55Zm-1.1,0h-.55v-.22h.55Zm-1.1,0h-.55v-.22H118Zm-1.1,0h-.55v-.22h.55Zm-1.1,0h-.55v-.22h.55Zm-1.1,0h-.55v-.22h.55Zm-1.1,0h-.54v-.22h.54Zm-1.09,0H112v-.23h.55Zm-1.1,0h-.55v-.23h.55Zm-1.1,0h-.55v-.23h.55Zm-1.1,0h-.55v-.22h.55Zm-1.1,0h-.55v-.22h.55Zm-1.1,0h-.55v-.22h.55Zm-1.1,0h-.55v-.22H106Zm-1.1,0h-.55v-.22h.55Zm-1.1,0h-.54v-.22h.54Zm-1.09,0h-.55v-.22h.55Zm-1.1,0H101v-.22h.55Zm-1.1,0h-.55v-.23h.55Zm-1.1,0h-.55v-.23h.55Zm-1.1,0h-.55v-.23h.55Zm-1.1,0h-.55v-.22h.55Zm-1.1,0h-.55v-.22h.55Zm-1.1,0h-.55v-.22H95Zm-1.1,0h-.55v-.22h.55Zm-1.09,0h-.55v-.22h.55Zm-1.1,0h-.55v-.22h.55Zm-1.1,0H90v-.22h.55Zm-1.1,0h-.55v-.22h.55Zm-1.1,0h-.55v-.23h.55Zm-1.1,0h-.55v-.23h.55Zm-1.1,0h-.55v-.23h.55Zm-1.1,0h-.55v-.22h.55Zm-1.1,0h-.55v-.22H84Zm-1.09,0h-.55v-.22h.55Zm-1.1,0h-.55v-.22h.55Zm-1.1,0h-.55v-.22h.55Zm-1.1,0H79v-.22h.55Zm-1.1,0h-.55v-.22h.55Zm-1.1,0h-.55v-.22h.55Zm-1.1,0h-.55v-.23h.55Zm-1.1,0h-.55v-.23h.55Zm-1.1,0h-.55v-.23h.55Zm-1.1,0h-.54v-.22H73Zm-1.09,0h-.55v-.22h.55Zm-1.1,0h-.55v-.22h.55Zm-1.1,0h-.55v-.22h.55Zm-1.1,0H68v-.22h.55Zm-1.1,0h-.55v-.22h.55Zm-1.1,0h-.55v-.22h.55Zm-1.1,0h-.55v-.22h.55Zm-1.1,0h-.55v-.23h.55Zm-1.1,0h-.55v-.23h.55Zm-1.09,0h-.55v-.23H62Zm-1.1,0h-.55v-.22h.55Zm-1.1,0h-.55v-.22h.55Zm-1.1,0h-.55v-.22h.55Zm-1.1,0h-.55v-.22h.55Zm-1.1,0H56v-.22h.55Zm-1.1,0h-.55v-.22h.55Zm-1.1,0h-.55v-.22h.55Zm-1.1,0h-.55v-.22h.55Zm-1.1,0h-.54V77.3h.54Zm-1.09,0h-.55V77.3H51Zm-1.1,0h-.55V77.3h.55Zm-1.1,0h-.55V77.3h.55Zm-1.1,0h-.55V77.3h.55Zm-1.1,0h-.55V77.3h.55Zm-1.1,0H45V77.3h.55Zm-1.1,0h-.55V77.3h.55Zm-1.1,0h-.55V77.3h.55Zm-1.1,0h-.54V77.3h.54Zm-1.09,0h-.55V77.3h.55Zm-1.1,0h-.55v-.23H40Zm-1.1,0h-.55v-.23h.55Zm-1.1,0h-.55v-.23h.55Zm-1.1,0h-.55v-.22h.55Zm-1.1,0h-.55v-.22h.55Zm-1.1,0H34v-.22h.55Zm-1.1,0h-.55v-.22h.55Zm-1.1,0h-.55v-.22h.55Zm-1.09,0h-.55v-.22h.55Zm-1.1,0h-.55v-.22h.55Zm-1.1,0h-.55v-.22H29Zm-1.1,0h-.55v-.23h.55Zm-1.1,0h-.55v-.23h.55Zm-1.1,0h-.55v-.23h.55Zm-1.1,0h-.55v-.22h.55Zm-1.1,0H23v-.22h.55Zm-1.1,0h-.55v-.22h.55Zm-1.09,0h-.55v-.22h.55Zm-1.1,0h-.55v-.22h.55Zm-1.1,0h-.55v-.22h.55Zm-1.1,0h-.55v-.22H18Zm-1.1,0h-.55v-.22h.55Zm-1.1,0h-.55v-.23h.55Zm-1.1,0h-.55v-.23h.55Zm-1.1,0h-.55v-.23h.55Zm-1.1,0H12v-.22h.55Zm-1.1,0H10.9v-.22h.54Zm-1.09,0H9.8v-.22h.55Zm-1.1,0H8.7v-.22h.55Zm-1.1,0H7.87v-.22h.28Z"/></g><g class="b58e733f-b767-4696-abf8-ae536519e9ae"><g class="a7df207d-5514-4da1-9182-416455a3ce61"><rect class="be6f9340-5637-4f58-b614-6022afc6aad8" x="121.7" y="98.51" width="11.61"/><rect class="be6f9340-5637-4f58-b614-6022afc6aad8" x="121.7" y="24.59" width="11.61" height="73.93"/></g></g><path class="aa4cb43f-3ac3-4a0d-8f77-a1ba3614e2fd" d="M44.37,96.63H42.8V96.3h.58V94.12H42.8v-.3a.86.86,0,0,0,.48-.1.39.39,0,0,0,.18-.35h.34V96.3h.57Z"/><path class="aa4cb43f-3ac3-4a0d-8f77-a1ba3614e2fd" d="M58.54,96.63h-2v-.46c.14-.13.28-.26.4-.39s.26-.26.38-.39a3.78,3.78,0,0,0,.5-.66,1,1,0,0,0,.13-.5.61.61,0,0,0,0-.24.56.56,0,0,0-.11-.17.46.46,0,0,0-.18-.1.78.78,0,0,0-.22,0l-.23,0-.23.07a.56.56,0,0,0-.17.09l-.14.09h0V93.5l.37-.13a1.86,1.86,0,0,1,.45-.06,1,1,0,0,1,.71.24.85.85,0,0,1,.25.65,1.37,1.37,0,0,1,0,.36,1.88,1.88,0,0,1-.12.3l-.19.28-.24.27c-.14.15-.29.31-.46.47l-.4.38h1.59Z"/><path class="aa4cb43f-3ac3-4a0d-8f77-a1ba3614e2fd" d="M71.43,93.69l-.24,0-.23.08-.18.09-.13.09h0v-.46a1.61,1.61,0,0,1,.38-.14,1.94,1.94,0,0,1,.46-.06,1.43,1.43,0,0,1,.38,0,1,1,0,0,1,.3.14.66.66,0,0,1,.21.26.71.71,0,0,1,.08.34.67.67,0,0,1-.18.47.73.73,0,0,1-.42.26v0l.22.07a.6.6,0,0,1,.21.14,1,1,0,0,1,.17.24,1,1,0,0,1,.06.36,1.07,1.07,0,0,1-.08.41,1.15,1.15,0,0,1-.21.33.8.8,0,0,1-.34.22,1.25,1.25,0,0,1-.45.08,2,2,0,0,1-.48-.06,2.3,2.3,0,0,1-.4-.14V96h0a1.79,1.79,0,0,0,.37.19,1.22,1.22,0,0,0,.46.09.82.82,0,0,0,.26,0,.55.55,0,0,0,.22-.14.8.8,0,0,0,.13-.21.85.85,0,0,0,0-.3.84.84,0,0,0,0-.29.49.49,0,0,0-.14-.18.63.63,0,0,0-.22-.09l-.27,0h-.18v-.36h.14a.8.8,0,0,0,.48-.14.5.5,0,0,0,.18-.41.46.46,0,0,0,0-.21.33.33,0,0,0-.12-.14.37.37,0,0,0-.18-.08A.75.75,0,0,0,71.43,93.69Z"/><path class="aa4cb43f-3ac3-4a0d-8f77-a1ba3614e2fd" d="M86.64,95.51h-.39v1.12h-.41V95.51H84.41v-.46l1.45-1.67h.39v1.78h.39Zm-.8-.35V93.89l-1.09,1.27Z"/><path class="aa4cb43f-3ac3-4a0d-8f77-a1ba3614e2fd" d="M100.52,95.59a1.23,1.23,0,0,1-.07.44,1,1,0,0,1-.21.35.82.82,0,0,1-.34.23,1.1,1.1,0,0,1-.45.09,2.31,2.31,0,0,1-.46,0,1.77,1.77,0,0,1-.39-.14v-.46h0l.15.09.2.08.24.08.23,0a.8.8,0,0,0,.26,0,.51.51,0,0,0,.21-.15.78.78,0,0,0,.12-.22,1,1,0,0,0,0-.31.75.75,0,0,0,0-.28.45.45,0,0,0-.14-.19.55.55,0,0,0-.23-.11,1.36,1.36,0,0,0-.3,0A2.07,2.07,0,0,0,99,95l-.28,0V93.38h1.76v.38H99.15v.86h.3a1.62,1.62,0,0,1,.41,0,.84.84,0,0,1,.33.16.76.76,0,0,1,.25.31A1.24,1.24,0,0,1,100.52,95.59Z"/><path class="aa4cb43f-3ac3-4a0d-8f77-a1ba3614e2fd" d="M114.62,95.57a1.19,1.19,0,0,1-.09.47.84.84,0,0,1-.22.35.9.9,0,0,1-.32.23,1,1,0,0,1-.4.08,1,1,0,0,1-.39-.08.87.87,0,0,1-.32-.22,1.11,1.11,0,0,1-.26-.47,2.55,2.55,0,0,1-.09-.73,3.64,3.64,0,0,1,.08-.77,1.88,1.88,0,0,1,.27-.59,1.3,1.3,0,0,1,.45-.39,1.47,1.47,0,0,1,.64-.14l.2,0a.47.47,0,0,1,.17,0v.42h0l-.17-.06a.88.88,0,0,0-.24,0,.82.82,0,0,0-.65.28,1.37,1.37,0,0,0-.29.81,1.41,1.41,0,0,1,.32-.17,1,1,0,0,1,.35-.06,1.06,1.06,0,0,1,.33,0,1.39,1.39,0,0,1,.3.15.92.92,0,0,1,.26.35A1.21,1.21,0,0,1,114.62,95.57Zm-.44,0a.81.81,0,0,0-.06-.33A.63.63,0,0,0,114,95a.61.61,0,0,0-.2-.09l-.21,0a1,1,0,0,0-.3,0,1.17,1.17,0,0,0-.28.13s0,.06,0,.09v.11a1.67,1.67,0,0,0,.07.55,1,1,0,0,0,.16.32.77.77,0,0,0,.19.14.54.54,0,0,0,.22,0,.52.52,0,0,0,.42-.19A.87.87,0,0,0,114.18,95.59Z"/><path class="a2bd3c30-2d17-413e-9985-6fae8ab87ac7" d="M128.61,93.86l-1.4,2.77h-.46l1.48-2.87h-1.67v-.38h2.05Z"/><path class="aa4cb43f-3ac3-4a0d-8f77-a1ba3614e2fd" d="M141.56,96.7a1.18,1.18,0,0,1-.43-.07,1,1,0,0,1-.34-.2.83.83,0,0,1-.2-.32,1,1,0,0,1-.07-.38.89.89,0,0,1,.13-.48,1,1,0,0,1,.41-.36h0a1,1,0,0,1-.35-.31.69.69,0,0,1-.12-.41.78.78,0,0,1,.28-.61,1,1,0,0,1,.69-.25,1.06,1.06,0,0,1,.71.23.76.76,0,0,1,.26.6.85.85,0,0,1-.12.43.87.87,0,0,1-.37.34h0a1.24,1.24,0,0,1,.43.32.77.77,0,0,1,.14.49.92.92,0,0,1-.3.7A1,1,0,0,1,141.56,96.7Zm.61-.94a.54.54,0,0,0-.08-.31.78.78,0,0,0-.3-.24l-.19-.09-.28-.12a.84.84,0,0,0-.37.7.69.69,0,0,0,.18.49.55.55,0,0,0,.44.19.57.57,0,0,0,.6-.62Zm-.06-1.63a.52.52,0,0,0-.14-.36.56.56,0,0,0-.41-.15.6.6,0,0,0-.38.13.46.46,0,0,0-.15.36.45.45,0,0,0,.07.27.65.65,0,0,0,.23.2l.21.11.25.1a.76.76,0,0,0,.32-.66Z"/><path class="aa4cb43f-3ac3-4a0d-8f77-a1ba3614e2fd" d="M154.51,94.43a1.17,1.17,0,0,1,.08-.46,1.15,1.15,0,0,1,.22-.35,1,1,0,0,1,.33-.23,1.09,1.09,0,0,1,.39-.08,1,1,0,0,1,.4.08,1,1,0,0,1,.32.21,1.4,1.4,0,0,1,.26.47,2.58,2.58,0,0,1,.09.74,3.1,3.1,0,0,1-.09.76,1.59,1.59,0,0,1-.27.6,1.26,1.26,0,0,1-.44.39,1.42,1.42,0,0,1-.65.13H155a.48.48,0,0,1-.18,0v-.42h0l.17.06a.85.85,0,0,0,.23,0,.87.87,0,0,0,.67-.28,1.35,1.35,0,0,0,.27-.81,1,1,0,0,1-.33.17.93.93,0,0,1-.34.06,1.66,1.66,0,0,1-.33,0,.94.94,0,0,1-.29-.16.77.77,0,0,1-.26-.33A1.24,1.24,0,0,1,154.51,94.43Zm1.65.28a2,2,0,0,0-.06-.54.8.8,0,0,0-.16-.32.49.49,0,0,0-.2-.14.46.46,0,0,0-.21,0,.53.53,0,0,0-.43.19.89.89,0,0,0-.15.56.87.87,0,0,0,.05.34.51.51,0,0,0,.17.22.4.4,0,0,0,.18.1l.23,0a1.17,1.17,0,0,0,.3,0,1.13,1.13,0,0,0,.27-.13v-.21Z"/><path class="aa4cb43f-3ac3-4a0d-8f77-a1ba3614e2fd" d="M169.22,96.63h-1.57V96.3h.58V94.12h-.58v-.3a.92.92,0,0,0,.49-.1.41.41,0,0,0,.17-.35h.34V96.3h.57Z"/><path class="aa4cb43f-3ac3-4a0d-8f77-a1ba3614e2fd" d="M171.82,95a2.61,2.61,0,0,1-.25,1.29.86.86,0,0,1-.78.41.83.83,0,0,1-.78-.42,3.4,3.4,0,0,1,0-2.56.86.86,0,0,1,.78-.41.85.85,0,0,1,.78.42A2.52,2.52,0,0,1,171.82,95Zm-.56,1a1.07,1.07,0,0,0,.09-.4,5,5,0,0,0,0-.59,5,5,0,0,0,0-.58,1.18,1.18,0,0,0-.09-.41.52.52,0,0,0-.18-.25.44.44,0,0,0-.29-.09.49.49,0,0,0-.3.09.7.7,0,0,0-.18.25,2,2,0,0,0-.09.42c0,.17,0,.36,0,.58a4.88,4.88,0,0,0,0,.57,1.3,1.3,0,0,0,.09.41.55.55,0,0,0,.18.26.45.45,0,0,0,.3.09.44.44,0,0,0,.29-.09A.51.51,0,0,0,171.26,96Z"/><path class="aa4cb43f-3ac3-4a0d-8f77-a1ba3614e2fd" d="M183.23,96.63h-1.57V96.3h.58V94.12h-.58v-.3a.86.86,0,0,0,.48-.1.39.39,0,0,0,.18-.35h.33V96.3h.58Z"/><path class="aa4cb43f-3ac3-4a0d-8f77-a1ba3614e2fd" d="M185.64,96.63h-1.57V96.3h.59V94.12h-.59v-.3a.9.9,0,0,0,.49-.1.39.39,0,0,0,.18-.35h.33V96.3h.57Z"/><path class="aa4cb43f-3ac3-4a0d-8f77-a1ba3614e2fd" d="M197.23,96.63h-1.57V96.3h.59V94.12h-.59v-.3a.9.9,0,0,0,.49-.1.42.42,0,0,0,.18-.35h.33V96.3h.57Z"/><path class="aa4cb43f-3ac3-4a0d-8f77-a1ba3614e2fd" d="M199.82,96.63h-2v-.46c.14-.13.28-.26.4-.39s.25-.26.38-.39a3.78,3.78,0,0,0,.5-.66,1,1,0,0,0,.13-.5.61.61,0,0,0,0-.24.43.43,0,0,0-.12-.17.42.42,0,0,0-.17-.1.78.78,0,0,0-.22,0,.91.91,0,0,0-.23,0l-.23.07a.56.56,0,0,0-.17.09.56.56,0,0,0-.14.09h0V93.5a2.94,2.94,0,0,1,.37-.13,1.86,1.86,0,0,1,.45-.06,1,1,0,0,1,.71.24.85.85,0,0,1,.25.65,1.37,1.37,0,0,1,0,.36,1.88,1.88,0,0,1-.12.3c-.06.09-.12.18-.2.28l-.23.27c-.14.15-.29.31-.46.47l-.4.38h1.59Z"/><path class="a2bd3c30-2d17-413e-9985-6fae8ab87ac7" d="M211.24,96.63h-1.57V96.3h.58V94.12h-.58v-.3a.92.92,0,0,0,.49-.1.41.41,0,0,0,.17-.35h.34V96.3h.57Z"/><path class="a2bd3c30-2d17-413e-9985-6fae8ab87ac7" d="M212.71,93.69l-.24,0-.23.08-.18.09-.14.09h0v-.46a1.61,1.61,0,0,1,.38-.14,1.88,1.88,0,0,1,.46-.06,1.43,1.43,0,0,1,.38,0,1,1,0,0,1,.3.14.75.75,0,0,1,.21.26.71.71,0,0,1,.08.34.67.67,0,0,1-.18.47.73.73,0,0,1-.42.26v0l.22.07a.7.7,0,0,1,.21.14,1,1,0,0,1,.17.24,1,1,0,0,1,.06.36,1.07,1.07,0,0,1-.08.41,1.15,1.15,0,0,1-.21.33.87.87,0,0,1-.34.22,1.25,1.25,0,0,1-.45.08,2,2,0,0,1-.48-.06,2.3,2.3,0,0,1-.4-.14V96h0a1.79,1.79,0,0,0,.37.19,1.2,1.2,0,0,0,.45.09.84.84,0,0,0,.27,0,.55.55,0,0,0,.22-.14.8.8,0,0,0,.13-.21.85.85,0,0,0,.05-.3.84.84,0,0,0-.05-.29.62.62,0,0,0-.14-.18.73.73,0,0,0-.22-.09l-.27,0h-.18v-.36h.14a.83.83,0,0,0,.48-.14.5.5,0,0,0,.18-.41.46.46,0,0,0-.05-.21.33.33,0,0,0-.12-.14.48.48,0,0,0-.18-.08A.75.75,0,0,0,212.71,93.69Z"/><path class="a2bd3c30-2d17-413e-9985-6fae8ab87ac7" d="M225.25,96.63h-1.57V96.3h.58V94.12h-.58v-.3a.92.92,0,0,0,.49-.1.41.41,0,0,0,.17-.35h.34V96.3h.57Z"/><path class="a2bd3c30-2d17-413e-9985-6fae8ab87ac7" d="M227.92,95.51h-.39v1.12h-.41V95.51h-1.43v-.46l1.44-1.67h.4v1.78h.39Zm-.8-.35V93.89L226,95.16Z"/><path class="a2bd3c30-2d17-413e-9985-6fae8ab87ac7" d="M239.26,96.63h-1.58V96.3h.59V94.12h-.59v-.3a.87.87,0,0,0,.49-.1.39.39,0,0,0,.18-.35h.33V96.3h.58Z"/><path class="a2bd3c30-2d17-413e-9985-6fae8ab87ac7" d="M241.8,95.59a1.23,1.23,0,0,1-.07.44,1,1,0,0,1-.21.35.89.89,0,0,1-.34.23,1.13,1.13,0,0,1-.45.09,2.31,2.31,0,0,1-.46,0,1.77,1.77,0,0,1-.39-.14v-.46h0l.15.09.2.08.23.08.24,0a.8.8,0,0,0,.26,0,.51.51,0,0,0,.21-.15.78.78,0,0,0,.12-.22,1,1,0,0,0,0-.31.75.75,0,0,0,0-.28.45.45,0,0,0-.14-.19A.55.55,0,0,0,241,95a1.36,1.36,0,0,0-.3,0,2.07,2.07,0,0,0-.35,0l-.29,0V93.38h1.77v.38h-1.35v.86h.29a1.66,1.66,0,0,1,.42,0,.84.84,0,0,1,.33.16.76.76,0,0,1,.25.31A1.24,1.24,0,0,1,241.8,95.59Z"/><path class="a2bd3c30-2d17-413e-9985-6fae8ab87ac7" d="M253.26,96.63h-1.57V96.3h.59V94.12h-.59v-.3a.92.92,0,0,0,.49-.1.44.44,0,0,0,.18-.35h.33V96.3h.57Z"/><path class="a2bd3c30-2d17-413e-9985-6fae8ab87ac7" d="M255.89,95.57a1.19,1.19,0,0,1-.08.47,1,1,0,0,1-.22.35.9.9,0,0,1-.32.23,1,1,0,0,1-.4.08,1.06,1.06,0,0,1-.4-.08.93.93,0,0,1-.31-.22,1.11,1.11,0,0,1-.26-.47,2.52,2.52,0,0,1-.1-.73,3.07,3.07,0,0,1,.09-.77,1.88,1.88,0,0,1,.27-.59,1.14,1.14,0,0,1,.45-.39,1.44,1.44,0,0,1,.64-.14l.2,0a.47.47,0,0,1,.17,0v.42h0l-.17-.06a1,1,0,0,0-.24,0,.82.82,0,0,0-.65.28,1.37,1.37,0,0,0-.29.81,1.59,1.59,0,0,1,.31-.17,1,1,0,0,1,.36-.06.93.93,0,0,1,.62.19.85.85,0,0,1,.27.35A1.21,1.21,0,0,1,255.89,95.57Zm-.43,0a.81.81,0,0,0-.06-.33.5.5,0,0,0-.36-.33l-.22,0a.93.93,0,0,0-.29,0,1,1,0,0,0-.28.13s0,.06,0,.09v.11a1.67,1.67,0,0,0,.07.55.8.8,0,0,0,.16.32.62.62,0,0,0,.19.14.52.52,0,0,0,.21,0,.5.5,0,0,0,.42-.19A.81.81,0,0,0,255.46,95.59Z"/><path class="a2bd3c30-2d17-413e-9985-6fae8ab87ac7" d="M267.27,96.63H265.7V96.3h.58V94.12h-.58v-.3a.92.92,0,0,0,.49-.1.41.41,0,0,0,.17-.35h.34V96.3h.57Z"/><path class="a2bd3c30-2d17-413e-9985-6fae8ab87ac7" d="M269.89,93.86l-1.4,2.77H268l1.48-2.87h-1.67v-.38h2.05Z"/><path class="a2bd3c30-2d17-413e-9985-6fae8ab87ac7" d="M119.52,59.34h-4v-.89h4Zm0-1.78h-4v-.89h4Zm0-1.78h-4v-.89h4Zm0-1.78h-4v-.9h4Zm0-1.79h-4v-.89h4Zm0-1.78h-4v-.89h4Zm0-1.78h-4v-.9h4Zm0-1.79h-4V46h4Zm0-1.78h-4v-.89h4Zm0-1.78h-4v-.89h4Zm0-1.79h-4v-.89h4Zm0-1.78h-4v-.89h4Zm0-1.78h-4v-.89h4Zm0-1.79h-4v-.89h4Zm0-1.78h-4v-.89h4Zm0-1.78h-4v-.89h4Zm0-1.79h-4v-.26h4Z"/><path class="a2bd3c30-2d17-413e-9985-6fae8ab87ac7" d="M104.59,59.34h-4v-.89h4Zm0-1.78h-4v-.89h4Zm0-1.78h-4v-.89h4Zm0-1.78h-4v-.9h4Zm0-1.79h-4v-.89h4Zm0-1.78h-4v-.89h4Zm0-1.78h-4v-.9h4Zm0-1.79h-4V46h4Zm0-1.78h-4v-.89h4Zm0-1.78h-4v-.89h4Zm0-1.79h-4v-.89h4Zm0-1.78h-4v-.89h4Zm0-1.78h-4v-.89h4Zm0-1.79h-4v-.89h4Zm0-1.78h-4v-.89h4Zm0-1.78h-4v-.89h4Z"/><path class="a2bd3c30-2d17-413e-9985-6fae8ab87ac7" d="M89.67,59.34h-4v-.89h4Zm0-1.78h-4v-.89h4Zm0-1.78h-4v-.89h4Zm0-1.78h-4v-.9h4Zm0-1.79h-4v-.89h4Zm0-1.78h-4v-.89h4Zm0-1.78h-4v-.9h4Z"/><path class="a2bd3c30-2d17-413e-9985-6fae8ab87ac7" d="M89.67,47h-4v-.89h4Zm0-1.78h-4v-.89h4Zm0-1.79h-4v-.89h4Zm0-1.78h-4v-.89h4Z"/><path class="a2bd3c30-2d17-413e-9985-6fae8ab87ac7" d="M74.74,59.34h-4v-.89h4Zm0-1.78h-4v-.89h4Zm0-1.78h-4v-.89h4Zm0-1.78h-4v-.9h4Zm0-1.79h-4v-.89h4Zm0-1.78h-4v-.89h4Zm0-1.78h-4v-.9h4Zm0-1.79h-4V46h4Zm0-1.78h-4v-.89h4Zm0-1.78h-4v-.89h4Zm0-1.79h-4v-.89h4Zm0-1.78h-4v-.89h4Z"/><path class="a2bd3c30-2d17-413e-9985-6fae8ab87ac7" d="M59.81,59.34h-4v-.89h4Zm0-1.78h-4v-.89h4Zm0-1.78h-4v-.89h4Zm0-1.78h-4v-.9h4Zm0-1.79h-4v-.89h4Zm0-1.78h-4v-.89h4Zm0-1.78h-4v-.9h4Zm0-1.79h-4V46h4Zm0-1.78h-4v-.89h4Zm0-1.78h-4v-.89h4Zm0-1.79h-4v-.89h4Zm0-1.78h-4v-.89h4Zm0-1.78h-4v-.89h4Zm0-1.79h-4v-.89h4Zm0-1.78h-4v-.71h4Z"/><g class="e6d7de6c-bb35-4a22-bf5d-62fabe82651f"><path class="a2bd3c30-2d17-413e-9985-6fae8ab87ac7" d="M44.88,59.34h-4v-.89h4Zm0-1.78h-4v-.89h4Zm0-1.78h-4v-.89h4Zm0-1.78h-4v-.9h4Zm0-1.79h-4v-.89h4Zm0-1.78h-4v-.89h4Zm0-1.78h-4v-.9h4Zm0-1.79h-4V46h4Zm0-1.78h-4v-.89h4Zm0-1.78h-4v-.89h4Zm0-1.79h-4v-.89h4Zm0-1.78h-4v-.89h4Zm0-1.78h-4v-.89h4Zm0-1.79h-4v-.89h4Zm0-1.78h-4v-.89h4Zm0-1.78h-4v-.89h4Zm0-1.79h-4v-.89h4Zm0-1.78h-4v-.89h4Zm0-1.78h-4v-.89h4Z"/></g><path class="e277df08-b5bc-4a2c-b35c-1620c7b53c3d" d="M129.58,89.72h-4v-.9h4Zm0-1.79h-4V87h4Zm0-1.78h-4v-.89h4Zm0-1.78h-4v-.89h4Zm0-1.79h-4v-.89h4Zm0-1.78h-4v-.89h4Zm0-1.78h-4v-.89h4Z"/><path class="a2bd3c30-2d17-413e-9985-6fae8ab87ac7" d="M129.58,77.25h-4v-.14h4Zm0-1h-4v-.89h4Zm0-1.78h-4v-.89h4Zm0-1.78h-4v-.89h4Zm0-1.78h-4V70h4Zm0-1.79h-4v-.89h4Zm0-1.78h-4v-.89h4Zm0-1.78h-4v-.9h4Zm0-1.79h-4v-.89h4Z"/></svg>