<svg id="b01c58dc-21f3-49be-99ef-9c0560d579c4" data-name="1" xmlns="http://www.w3.org/2000/svg" xmlns:xlink="http://www.w3.org/1999/xlink" viewBox="0 0 324 116.75"><defs><style>.b38c4ef9-6597-439f-a619-4f0f67c231ad{opacity:0.2;fill:url(#a50ab7f1-7a28-4075-9bf7-e305bf1a1c32);}.ba26d7b7-fa80-4a83-8321-84324b0e4f05{font-size:5.65px;fill:#8099b5;font-family:Tahoma-Bold, Tahoma;font-weight:700;}.b728ce65-2846-4a70-ba36-263abf5422fc{fill:#121928;}.eb58e485-d8b9-4a9f-bc1d-fe72a05bfc74{fill:none;stroke:#08111d;stroke-miterlimit:10;stroke-width:0.5px;}.f6d3feaa-0be9-49f8-8b15-2549f47ddaf1{font-size:5.14px;fill:#fff;font-family:Tahoma;}</style><linearGradient id="a50ab7f1-7a28-4075-9bf7-e305bf1a1c32" x1="5.62" y1="12.49" x2="318.48" y2="12.49" gradientUnits="userSpaceOnUse"><stop offset="0" stop-color="#5b607d"/><stop offset="0.84" stop-color="#5b607d"/></linearGradient></defs><title>1</title><path class="b38c4ef9-6597-439f-a619-4f0f67c231ad" d="M17.62,5.13H306.48a12,12,0,0,1,12,12v2.73a0,0,0,0,1,0,0H5.62a0,0,0,0,1,0,0V17.13A12,12,0,0,1,17.62,5.13Z"/><text class="ba26d7b7-fa80-4a83-8321-84324b0e4f05" transform="translate(61.26 14.36)">Р-р</text><text class="ba26d7b7-fa80-4a83-8321-84324b0e4f05" transform="translate(26.53 14.36)">№</text><path class="b728ce65-2846-4a70-ba36-263abf5422fc" d="M5.7,21.75H318.33a0,0,0,0,1,0,0v79.19a11,11,0,0,1-11,11H16.7a11,11,0,0,1-11-11V21.75A0,0,0,0,1,5.7,21.75Z"/><line class="eb58e485-d8b9-4a9f-bc1d-fe72a05bfc74" x1="317.95" y1="45.25" x2="6.03" y2="45.25"/><line class="eb58e485-d8b9-4a9f-bc1d-fe72a05bfc74" x1="317.95" y1="67.69" x2="6.03" y2="67.69"/><line class="eb58e485-d8b9-4a9f-bc1d-fe72a05bfc74" x1="317.95" y1="88.98" x2="6.03" y2="88.98"/><text class="ba26d7b7-fa80-4a83-8321-84324b0e4f05" transform="translate(101.09 14.36)">Паспорт</text><text class="ba26d7b7-fa80-4a83-8321-84324b0e4f05" transform="translate(172.63 14.36)">Дата</text><text class="ba26d7b7-fa80-4a83-8321-84324b0e4f05" transform="translate(249.72 14.36)">Код SAP</text><text class="f6d3feaa-0be9-49f8-8b15-2549f47ddaf1" transform="translate(160.15 34.62)">25.11.2020 12:45</text><text class="f6d3feaa-0be9-49f8-8b15-2549f47ddaf1" transform="translate(23.84 34.62)">4632</text><text class="f6d3feaa-0be9-49f8-8b15-2549f47ddaf1" transform="translate(61.1 34.62)">515</text><text class="f6d3feaa-0be9-49f8-8b15-2549f47ddaf1" transform="translate(244.12 34.62)">44244434323221</text><text class="f6d3feaa-0be9-49f8-8b15-2549f47ddaf1" transform="translate(108.13 34.62)">168</text><text class="f6d3feaa-0be9-49f8-8b15-2549f47ddaf1" transform="translate(160.15 56.96)">25.11.2020 13:43</text><text class="f6d3feaa-0be9-49f8-8b15-2549f47ddaf1" transform="translate(23.84 56.96)">1621</text><text class="f6d3feaa-0be9-49f8-8b15-2549f47ddaf1" transform="translate(61.1 56.96)">512</text><text class="f6d3feaa-0be9-49f8-8b15-2549f47ddaf1" transform="translate(244.12 56.96)">44244435323232</text><text class="f6d3feaa-0be9-49f8-8b15-2549f47ddaf1" transform="translate(108.13 56.96)">167</text><text class="f6d3feaa-0be9-49f8-8b15-2549f47ddaf1" transform="translate(160.15 78.26)">27.11.2020 14:51</text><text class="f6d3feaa-0be9-49f8-8b15-2549f47ddaf1" transform="translate(23.84 78.26)">1612</text><text class="f6d3feaa-0be9-49f8-8b15-2549f47ddaf1" transform="translate(61.1 78.26)">514</text><text class="f6d3feaa-0be9-49f8-8b15-2549f47ddaf1" transform="translate(244.12 78.26)">44244434323223</text><text class="f6d3feaa-0be9-49f8-8b15-2549f47ddaf1" transform="translate(108.13 78.26)">166</text><text class="f6d3feaa-0be9-49f8-8b15-2549f47ddaf1" transform="translate(160.15 101.12)">28.02.2020 13:53</text><text class="f6d3feaa-0be9-49f8-8b15-2549f47ddaf1" transform="translate(23.84 101.12)">1623</text><text class="f6d3feaa-0be9-49f8-8b15-2549f47ddaf1" transform="translate(61.1 101.12)">513</text><text class="f6d3feaa-0be9-49f8-8b15-2549f47ddaf1" transform="translate(244.12 101.12)">44244434323243</text><text class="f6d3feaa-0be9-49f8-8b15-2549f47ddaf1" transform="translate(108.13 101.12)">165</text></svg>