<svg id="aa2e6885-d82e-40e4-ac69-75cc1bd30ab3" data-name="1" xmlns="http://www.w3.org/2000/svg" xmlns:xlink="http://www.w3.org/1999/xlink" viewBox="0 0 324 116.75"><defs><style>.be315dd4-0612-4c81-a931-88f58a1e6177{opacity:0.2;fill:url(#a91ab5d6-b1a5-457c-b7e0-c58b92c9c351);}.b20f1fa1-fc50-464d-bcf3-512e10a764d9{font-size:5.65px;fill:#8099b5;font-family:Tahoma-Bold, Tahoma;font-weight:700;}.b3354b8b-311b-4f78-a43d-7cde132c8a89{fill:#121928;}.b7236538-a616-4cd2-864a-0b76e771fb1f{fill:none;stroke:#08111d;stroke-miterlimit:10;stroke-width:0.5px;}.bc6663e8-6f39-40b8-98cf-8ed05977dd2a{font-size:5.14px;fill:#fff;font-family:Tahoma;}</style><linearGradient id="a91ab5d6-b1a5-457c-b7e0-c58b92c9c351" x1="5.62" y1="14.3" x2="318.48" y2="14.3" gradientUnits="userSpaceOnUse"><stop offset="0" stop-color="#5b607d"/><stop offset="0.84" stop-color="#5b607d"/></linearGradient></defs><title>Макеты (5)</title><path class="be315dd4-0612-4c81-a931-88f58a1e6177" d="M17.62,6.93H306.48a12,12,0,0,1,12,12v2.73a0,0,0,0,1,0,0H5.62a0,0,0,0,1,0,0V18.93A12,12,0,0,1,17.62,6.93Z"/><text class="b20f1fa1-fc50-464d-bcf3-512e10a764d9" transform="translate(61.26 16.16)">Р-р</text><text class="b20f1fa1-fc50-464d-bcf3-512e10a764d9" transform="translate(26.53 16.16)">№</text><path class="b3354b8b-311b-4f78-a43d-7cde132c8a89" d="M5.7,23.56H318.33a0,0,0,0,1,0,0v79.19a11,11,0,0,1-11,11H16.7a11,11,0,0,1-11-11V23.56A0,0,0,0,1,5.7,23.56Z"/><line class="b7236538-a616-4cd2-864a-0b76e771fb1f" x1="317.95" y1="47.05" x2="6.03" y2="47.05"/><line class="b7236538-a616-4cd2-864a-0b76e771fb1f" x1="317.95" y1="69.5" x2="6.03" y2="69.5"/><line class="b7236538-a616-4cd2-864a-0b76e771fb1f" x1="317.95" y1="90.78" x2="6.03" y2="90.78"/><text class="b20f1fa1-fc50-464d-bcf3-512e10a764d9" transform="translate(101.09 16.16)">Паспорт</text><text class="b20f1fa1-fc50-464d-bcf3-512e10a764d9" transform="translate(172.63 16.16)">Дата</text><text class="b20f1fa1-fc50-464d-bcf3-512e10a764d9" transform="translate(249.72 16.16)">Код SAP</text><text class="bc6663e8-6f39-40b8-98cf-8ed05977dd2a" transform="translate(160.15 36.43)">25.11.2020 12:45</text><text class="bc6663e8-6f39-40b8-98cf-8ed05977dd2a" transform="translate(23.84 36.43)">4632</text><text class="bc6663e8-6f39-40b8-98cf-8ed05977dd2a" transform="translate(61.1 36.43)">515</text><text class="bc6663e8-6f39-40b8-98cf-8ed05977dd2a" transform="translate(244.12 36.43)">44244434323221</text><text class="bc6663e8-6f39-40b8-98cf-8ed05977dd2a" transform="translate(108.13 36.43)">168</text><text class="bc6663e8-6f39-40b8-98cf-8ed05977dd2a" transform="translate(160.15 58.77)">25.11.2020 13:43</text><text class="bc6663e8-6f39-40b8-98cf-8ed05977dd2a" transform="translate(23.84 58.77)">1621</text><text class="bc6663e8-6f39-40b8-98cf-8ed05977dd2a" transform="translate(61.1 58.77)">512</text><text class="bc6663e8-6f39-40b8-98cf-8ed05977dd2a" transform="translate(244.12 58.77)">44244435323232</text><text class="bc6663e8-6f39-40b8-98cf-8ed05977dd2a" transform="translate(108.13 58.77)">167</text><text class="bc6663e8-6f39-40b8-98cf-8ed05977dd2a" transform="translate(160.15 80.07)">27.11.2020 14:51</text><text class="bc6663e8-6f39-40b8-98cf-8ed05977dd2a" transform="translate(23.84 80.07)">1612</text><text class="bc6663e8-6f39-40b8-98cf-8ed05977dd2a" transform="translate(61.1 80.07)">514</text><text class="bc6663e8-6f39-40b8-98cf-8ed05977dd2a" transform="translate(244.12 80.07)">44244434323223</text><text class="bc6663e8-6f39-40b8-98cf-8ed05977dd2a" transform="translate(108.13 80.07)">166</text><text class="bc6663e8-6f39-40b8-98cf-8ed05977dd2a" transform="translate(160.15 102.93)">28.02.2020 13:53</text><text class="bc6663e8-6f39-40b8-98cf-8ed05977dd2a" transform="translate(23.84 102.93)">1623</text><text class="bc6663e8-6f39-40b8-98cf-8ed05977dd2a" transform="translate(61.1 102.93)">513</text><text class="bc6663e8-6f39-40b8-98cf-8ed05977dd2a" transform="translate(244.12 102.93)">44244434323243</text><text class="bc6663e8-6f39-40b8-98cf-8ed05977dd2a" transform="translate(108.13 102.93)">165</text></svg>