<svg id="e9488b2f-1757-4d96-915e-90f5606d1d90" data-name="1" xmlns="http://www.w3.org/2000/svg" xmlns:xlink="http://www.w3.org/1999/xlink" viewBox="0 0 324 116.75"><defs><style>.bbaeb472-2e24-4d72-8d42-491bb3848e97{fill:#5b6582;}.a14e6e48-5592-4244-99fd-dd83a6d9dd9b,.bbaeb472-2e24-4d72-8d42-491bb3848e97,.e19ca512-f7bf-49f4-872e-f6f3ff75ce54,.f65bd753-72f8-4125-a7ee-3bc996975f87{opacity:0.2;}.b471e040-f035-43ad-ac9b-526d705ede14{fill:#1b1e27;}.bd1824b2-14d2-493c-b936-379eab7c8418{fill:#58607f;}.b9476582-099f-4f28-ae11-9c63f7e48a22{fill:#131822;}.fb95f5ea-b1c6-456a-9cd0-c5d6463618f9{opacity:0.5;}.f166394a-eacf-48c0-8365-c5cb01f2f170{fill:#5f6581;}.ef253257-f232-407c-9c4b-9c84093419cd{fill:#009de2;}.f49cb27b-8714-4b6a-83df-e053f79894df{fill:#ffa300;}.b0da718b-ba53-49b3-883b-07a1f5119361{fill:#fff;}.ab39c1b8-72f2-43ed-8f21-52b93a1da661{fill:#7ee2ff;}.fbd28ef7-e08c-4d23-b9ee-444b435d9a93{fill:#5c6581;}.e19ca512-f7bf-49f4-872e-f6f3ff75ce54{fill:url(#af37d832-e200-4376-bcca-0e717fe9b4eb);}.f65bd753-72f8-4125-a7ee-3bc996975f87{fill:url(#bb0799c0-7290-41f3-a4e1-ee82f0dcbaa9);}.a14e6e48-5592-4244-99fd-dd83a6d9dd9b{fill:url(#e3227071-05b7-432c-9323-1e50f313dc14);}</style><linearGradient id="af37d832-e200-4376-bcca-0e717fe9b4eb" x1="30.28" y1="36.99" x2="188.05" y2="36.99" gradientUnits="userSpaceOnUse"><stop offset="0" stop-color="#009de2"/><stop offset="0.84" stop-color="#5b607d" stop-opacity="0"/></linearGradient><linearGradient id="bb0799c0-7290-41f3-a4e1-ee82f0dcbaa9" x1="30.28" y1="68.27" x2="188.05" y2="68.27" xlink:href="#af37d832-e200-4376-bcca-0e717fe9b4eb"/><linearGradient id="e3227071-05b7-432c-9323-1e50f313dc14" x1="30.28" y1="99.75" x2="188.05" y2="99.75" xlink:href="#af37d832-e200-4376-bcca-0e717fe9b4eb"/></defs><title>Макеты (5)</title><path class="bbaeb472-2e24-4d72-8d42-491bb3848e97" d="M243.66,19.58A35.39,35.39,0,1,0,260,86.37L258.92,86a34.62,34.62,0,1,1,11.24-8.84c.07.42.17,1.06.17,1.06a35.34,35.34,0,0,0,7.89-30.8s1.19-1.5,2.21-2.81a38.39,38.39,0,0,0-17.31-22.66l-3.58,1.42A35.17,35.17,0,0,0,243.66,19.58Z"/><path class="b471e040-f035-43ad-ac9b-526d705ede14" d="M243.52,83.39a28.61,28.61,0,1,1,28.61-28.61A28.65,28.65,0,0,1,243.52,83.39Zm0-53.63a25,25,0,1,0,25,25A25,25,0,0,0,243.52,29.76Z"/><path class="bd1824b2-14d2-493c-b936-379eab7c8418" d="M247.32,30.4a24.67,24.67,0,1,1-19.11,43.73L246.13,57.6l1.24-1.14V54.77l0-24.37m-3.8-4.14h-.05l.05,28.52-21,19.33a28.52,28.52,0,1,0,21-47.85Z"/><circle class="b9476582-099f-4f28-ae11-9c63f7e48a22" cx="243.52" cy="54.78" r="25.88"/><g class="fb95f5ea-b1c6-456a-9cd0-c5d6463618f9"><path class="f166394a-eacf-48c0-8365-c5cb01f2f170" d="M246.76,55.24a9,9,0,0,1-.91,4.62,3.44,3.44,0,0,1-5.66,0,9.14,9.14,0,0,1-.9-4.58,9,9,0,0,1,.92-4.62,3.42,3.42,0,0,1,5.65,0A9.13,9.13,0,0,1,246.76,55.24Zm-2,3.56a5.76,5.76,0,0,0,.32-1.47,21.89,21.89,0,0,0,0-4.18,5.34,5.34,0,0,0-.33-1.47,2,2,0,0,0-.64-.91,1.72,1.72,0,0,0-1.07-.31,1.7,1.7,0,0,0-1.07.31,2,2,0,0,0-.67.92A6,6,0,0,0,241,53.2c-.06.6-.09,1.29-.09,2s0,1.5.08,2a5.86,5.86,0,0,0,.32,1.48,2.16,2.16,0,0,0,.65.93A1.79,1.79,0,0,0,243,60a1.74,1.74,0,0,0,1.07-.31A1.9,1.9,0,0,0,244.75,58.8Z"/></g><path class="ef253257-f232-407c-9c4b-9c84093419cd" d="M243.66,19.58A35.39,35.39,0,1,0,260,86.37L258.92,86a34.62,34.62,0,1,1,11.24-8.84c.07.42.17,1.06.17,1.06a35.34,35.34,0,0,0,7.89-30.8s1.19-1.5,2.21-2.81a38.39,38.39,0,0,0-17.31-22.66l-3.58,1.42A35.17,35.17,0,0,0,243.66,19.58Z"/><path class="f49cb27b-8714-4b6a-83df-e053f79894df" d="M243.52,54.78l-.05-28.52h.05a28.51,28.51,0,1,1-20.23,8.42Z"/><path class="b0da718b-ba53-49b3-883b-07a1f5119361" d="M243.52,54.78l-.05-28.52h.05a28.52,28.52,0,1,1-21.93,10.3Z"/><circle class="b471e040-f035-43ad-ac9b-526d705ede14" cx="243.52" cy="54.78" r="26.25"/><rect class="ab39c1b8-72f2-43ed-8f21-52b93a1da661" x="243.16" y="24.22" width="0.73" height="6.93"/><path class="b0da718b-ba53-49b3-883b-07a1f5119361" d="M228.75,111h-2.51v2.52h-.83V111h-2.52v-.8h2.52v-2.52h.83v2.52h2.51Z"/><path class="b0da718b-ba53-49b3-883b-07a1f5119361" d="M237.89,110.14a5.8,5.8,0,0,1-.58,2.94,2,2,0,0,1-1.8.93,2,2,0,0,1-1.8-1,7.7,7.7,0,0,1,0-5.84,2,2,0,0,1,1.79-.93,1.94,1.94,0,0,1,1.8,1A5.68,5.68,0,0,1,237.89,110.14Zm-1.28,2.27a3.56,3.56,0,0,0,.21-.93,12.91,12.91,0,0,0,.06-1.34,12.63,12.63,0,0,0-.06-1.32,3.55,3.55,0,0,0-.21-.94,1.31,1.31,0,0,0-.41-.57,1.27,1.27,0,0,0-1.37,0,1.39,1.39,0,0,0-.42.58,3.66,3.66,0,0,0-.2,1,12.63,12.63,0,0,0-.06,1.3c0,.52,0,1,0,1.31a3.25,3.25,0,0,0,.21.93,1.19,1.19,0,0,0,.41.59,1.26,1.26,0,0,0,1.38,0A1.29,1.29,0,0,0,236.61,112.41Z"/><path class="b0da718b-ba53-49b3-883b-07a1f5119361" d="M240.44,113.86h-1.19v-1.42h1.19Z"/><path class="b0da718b-ba53-49b3-883b-07a1f5119361" d="M246.14,113.86h-3.62v-.76h1.35v-5h-1.35v-.68a2.17,2.17,0,0,0,1.12-.22,1,1,0,0,0,.41-.82h.77v6.69h1.32Z"/><path class="b0da718b-ba53-49b3-883b-07a1f5119361" d="M249.75,114a2.87,2.87,0,0,1-1-.17,2.12,2.12,0,0,1-.78-.47,2,2,0,0,1-.47-.71,2.28,2.28,0,0,1-.16-.87,2,2,0,0,1,.32-1.11,2.1,2.1,0,0,1,.93-.8v0a2.73,2.73,0,0,1-.81-.7,1.61,1.61,0,0,1-.27-1,1.81,1.81,0,0,1,.64-1.4,2.34,2.34,0,0,1,1.6-.55,2.37,2.37,0,0,1,1.63.53,1.73,1.73,0,0,1,.61,1.36,1.91,1.91,0,0,1-.29,1,2.09,2.09,0,0,1-.84.77v0a2.62,2.62,0,0,1,1,.73,1.8,1.8,0,0,1,.33,1.12,2.11,2.11,0,0,1-.69,1.6A2.48,2.48,0,0,1,249.75,114Zm1.4-2.15a1.28,1.28,0,0,0-.18-.72,1.88,1.88,0,0,0-.69-.55l-.45-.21-.64-.26a1.85,1.85,0,0,0-.85,1.6,1.59,1.59,0,0,0,.4,1.11,1.34,1.34,0,0,0,1,.44,1.37,1.37,0,0,0,1-.38A1.39,1.39,0,0,0,251.15,111.88Zm-.14-3.71a1.15,1.15,0,0,0-.33-.84,1.29,1.29,0,0,0-.93-.33,1.31,1.31,0,0,0-.89.3,1,1,0,0,0-.35.81,1.05,1.05,0,0,0,.18.62,1.63,1.63,0,0,0,.53.46l.47.23a5.14,5.14,0,0,0,.58.24,1.67,1.67,0,0,0,.74-1.49Z"/><path class="b0da718b-ba53-49b3-883b-07a1f5119361" d="M258.66,110.56a.24.24,0,0,1,.19.08l3.1,3.1a.26.26,0,0,1,0,.38.27.27,0,0,1-.39,0l-2.9-2.9-2.91,2.9a.27.27,0,1,1-.38-.38l3.09-3.1A.27.27,0,0,1,258.66,110.56Z"/><path class="b0da718b-ba53-49b3-883b-07a1f5119361" d="M258.66,106.91a.27.27,0,0,1,.19.08l3.1,3.1a.27.27,0,0,1,0,.39.29.29,0,0,1-.39,0l-2.9-2.91-2.91,2.91a.28.28,0,0,1-.38,0,.27.27,0,0,1,0-.39l3.09-3.1A.32.32,0,0,1,258.66,106.91Z"/><path class="b0da718b-ba53-49b3-883b-07a1f5119361" d="M230.14,97.35a2.58,2.58,0,0,1,.47.87,4.36,4.36,0,0,1,0,2.34,2.41,2.41,0,0,1-.47.87,2,2,0,0,1-.76.55,2.47,2.47,0,0,1-.95.18,2.33,2.33,0,0,1-1-.19,1.89,1.89,0,0,1-.74-.54,2.27,2.27,0,0,1-.47-.87,3.77,3.77,0,0,1-.17-1.16,3.81,3.81,0,0,1,.17-1.18,2.59,2.59,0,0,1,.47-.87,2,2,0,0,1,.74-.53,2.33,2.33,0,0,1,1-.19,2.5,2.5,0,0,1,1,.19A2.09,2.09,0,0,1,230.14,97.35ZM230,99.4a3.73,3.73,0,0,0-.11-.94,2.2,2.2,0,0,0-.32-.67,1.43,1.43,0,0,0-.51-.41,1.6,1.6,0,0,0-.67-.14,1.54,1.54,0,0,0-.67.14,1.31,1.31,0,0,0-.51.41,1.87,1.87,0,0,0-.32.68,3.3,3.3,0,0,0-.11.93,2.53,2.53,0,0,0,.43,1.59,1.45,1.45,0,0,0,1.18.56,1.41,1.41,0,0,0,1.17-.56A2.53,2.53,0,0,0,230,99.4Z"/><path class="b0da718b-ba53-49b3-883b-07a1f5119361" d="M234.4,98.65H233v3.4h-.66v-3.4H231v-.58h3.38Z"/><path class="b0da718b-ba53-49b3-883b-07a1f5119361" d="M238.1,102.05h-.84l-1.36-1.84h-.33v1.84h-.67v-4h.67V99.8a.87.87,0,0,0,.44-.11.81.81,0,0,0,.31-.41l.09-.2a1.28,1.28,0,0,0,.07-.21,1.2,1.2,0,0,1,.44-.62,1.3,1.3,0,0,1,.72-.18h.18v.57h-.15a.62.62,0,0,0-.42.12.91.91,0,0,0-.24.42,1.34,1.34,0,0,1-.23.48,1,1,0,0,1-.3.27Z"/><path class="b0da718b-ba53-49b3-883b-07a1f5119361" d="M241.61,102.05h-.67V98.63h-1.37c0,.2,0,.39,0,.57s0,.34,0,.49c0,.37,0,.69-.07.94a4,4,0,0,1-.13.6,1.42,1.42,0,0,1-.18.37,1.21,1.21,0,0,1-.21.24.87.87,0,0,1-.26.16,1,1,0,0,1-.31,0h-.27v-.59h.15l.17,0a.24.24,0,0,0,.14-.09,1.12,1.12,0,0,0,.26-.61,7.9,7.9,0,0,0,.12-1.22q0-.28,0-.69c0-.27,0-.52,0-.76h2.62Z"/><path class="b0da718b-ba53-49b3-883b-07a1f5119361" d="M245.85,100.06a2.28,2.28,0,0,1-.48,1.55,1.68,1.68,0,0,1-1.29.55,1.61,1.61,0,0,1-1.31-.57,2.33,2.33,0,0,1-.47-1.53,2.24,2.24,0,0,1,.49-1.55,1.62,1.62,0,0,1,1.29-.55,1.64,1.64,0,0,1,1.29.55A2.27,2.27,0,0,1,245.85,100.06Zm-.69,0a1.89,1.89,0,0,0-.28-1.15,1,1,0,0,0-1.61,0,2.46,2.46,0,0,0,0,2.28.94.94,0,0,0,.81.39,1,1,0,0,0,.8-.38A1.88,1.88,0,0,0,245.16,100.06Z"/><path class="b0da718b-ba53-49b3-883b-07a1f5119361" d="M249.68,102.05H249v-1.8h-1.8v1.8h-.67v-4h.67v1.61H249V98.07h.67Z"/><path class="b0da718b-ba53-49b3-883b-07a1f5119361" d="M252.37,102.14a2,2,0,0,1-1.48-.54,2.08,2.08,0,0,1-.52-1.52,2.26,2.26,0,0,1,.51-1.55,1.7,1.7,0,0,1,1.33-.57,1.91,1.91,0,0,1,.66.1,1.39,1.39,0,0,1,.49.34,1.37,1.37,0,0,1,.33.56,2.32,2.32,0,0,1,.12.8v.37h-2.76a1.5,1.5,0,0,0,.35,1.06,1.27,1.27,0,0,0,1,.36,1.65,1.65,0,0,0,.44,0,2.11,2.11,0,0,0,.38-.12l.31-.16a1.15,1.15,0,0,0,.2-.15h0v.73l-.29.12-.31.11-.36.08A2.17,2.17,0,0,1,252.37,102.14Zm.78-2.53a1.56,1.56,0,0,0-.06-.46,1,1,0,0,0-.16-.33.76.76,0,0,0-.3-.23,1.26,1.26,0,0,0-.46-.08,1.17,1.17,0,0,0-.45.08,1,1,0,0,0-.34.23,1.12,1.12,0,0,0-.23.35,1.42,1.42,0,0,0-.1.44Z"/><path class="b0da718b-ba53-49b3-883b-07a1f5119361" d="M257.62,102.05H257v-1.8h-1.8v1.8h-.67v-4h.67v1.61H257V98.07h.67Z"/><path class="b0da718b-ba53-49b3-883b-07a1f5119361" d="M261.73,102.05h-.66v-3l-1.88,3h-.6v-4h.66V101l1.85-2.92h.63Z"/><path class="b0da718b-ba53-49b3-883b-07a1f5119361" d="M264.42,102.14a2,2,0,0,1-1.47-.54,2.08,2.08,0,0,1-.53-1.52,2.26,2.26,0,0,1,.51-1.55,1.71,1.71,0,0,1,1.33-.57,1.91,1.91,0,0,1,.66.1,1.43,1.43,0,0,1,.5.34,1.63,1.63,0,0,1,.33.56,2.62,2.62,0,0,1,.11.8v.37H263.1a1.5,1.5,0,0,0,.35,1.06,1.31,1.31,0,0,0,1,.36,1.58,1.58,0,0,0,.43,0,1.89,1.89,0,0,0,.38-.12l.31-.16.21-.15h0v.73l-.3.12a3,3,0,0,1-.31.11l-.35.08A2.29,2.29,0,0,1,264.42,102.14Zm.79-2.53a1.94,1.94,0,0,0-.07-.46.85.85,0,0,0-.16-.33.76.76,0,0,0-.3-.23,1.17,1.17,0,0,0-.45-.08,1.26,1.26,0,0,0-.46.08,1.08,1.08,0,0,0-.34.23,1.32,1.32,0,0,0-.23.35,1.78,1.78,0,0,0-.1.44Z"/><path class="ab39c1b8-72f2-43ed-8f21-52b93a1da661" d="M239.5,54.74A5.19,5.19,0,0,1,239,57.4a1.77,1.77,0,0,1-1.63.85,1.75,1.75,0,0,1-1.62-.86,5.23,5.23,0,0,1-.52-2.64,5.19,5.19,0,0,1,.52-2.66,1.78,1.78,0,0,1,1.62-.84,1.76,1.76,0,0,1,1.63.87A5.2,5.2,0,0,1,239.5,54.74Zm-1.15,2a3.31,3.31,0,0,0,.18-.84,12.13,12.13,0,0,0,0-2.41,3.06,3.06,0,0,0-.19-.85,1.2,1.2,0,0,0-.37-.52,1,1,0,0,0-.62-.17,1,1,0,0,0-.61.17,1.19,1.19,0,0,0-.38.53,3.54,3.54,0,0,0-.19.87c0,.35,0,.74,0,1.18s0,.87,0,1.18a3.43,3.43,0,0,0,.19.85,1.2,1.2,0,0,0,.38.54,1.16,1.16,0,0,0,1.24,0A1.09,1.09,0,0,0,238.35,56.79Z"/><path class="ab39c1b8-72f2-43ed-8f21-52b93a1da661" d="M241.82,58.11h-1.08V56.82h1.08Z"/><path class="ab39c1b8-72f2-43ed-8f21-52b93a1da661" d="M247.32,58.11h-4.15v-1l.84-.81q.41-.39.78-.81a8.1,8.1,0,0,0,1.05-1.35,2.23,2.23,0,0,0,.28-1,1.26,1.26,0,0,0-.09-.49,1,1,0,0,0-.24-.35,1.23,1.23,0,0,0-.37-.21A1.63,1.63,0,0,0,245,52a2.05,2.05,0,0,0-.49.06,3.68,3.68,0,0,0-.47.15,2.53,2.53,0,0,0-.37.18l-.28.19h-.05v-1a4.9,4.9,0,0,1,.78-.27,3.6,3.6,0,0,1,.94-.13,2.1,2.1,0,0,1,1.48.49A1.81,1.81,0,0,1,247,53.1a2.73,2.73,0,0,1-.09.72,2.89,2.89,0,0,1-.26.62,3.54,3.54,0,0,1-.4.58,6.8,6.8,0,0,1-.5.57c-.28.31-.6.63-.94,1l-.84.79h3.31Z"/><path class="ab39c1b8-72f2-43ed-8f21-52b93a1da661" d="M250.2,54.8a1.65,1.65,0,0,1-.27,1,1,1,0,0,1-.81.33,1,1,0,0,1-.81-.34,1.59,1.59,0,0,1-.27-1,1.55,1.55,0,0,1,.28-1,1.15,1.15,0,0,1,1.61,0A1.63,1.63,0,0,1,250.2,54.8Zm-.54,0a1.85,1.85,0,0,0-.11-.71.43.43,0,0,0-.43-.24.42.42,0,0,0-.42.25,1.6,1.6,0,0,0-.12.7,1.85,1.85,0,0,0,.11.71.42.42,0,0,0,.43.24.43.43,0,0,0,.43-.24A1.85,1.85,0,0,0,249.66,54.8Zm2.59-1.27-2.4,4.58h-.5l2.39-4.58Zm1.3,3.31a1.59,1.59,0,0,1-.27,1,1,1,0,0,1-.81.34,1,1,0,0,1-.81-.34,1.63,1.63,0,0,1-.27-1,1.53,1.53,0,0,1,.28-1,1.12,1.12,0,0,1,1.61,0A1.63,1.63,0,0,1,253.55,56.84Zm-.54,0a1.85,1.85,0,0,0-.11-.71.43.43,0,0,0-.43-.24.41.41,0,0,0-.42.24,1.68,1.68,0,0,0-.12.71,1.88,1.88,0,0,0,.11.71.42.42,0,0,0,.43.24.43.43,0,0,0,.43-.24A1.88,1.88,0,0,0,253,56.84Z"/><path class="fbd28ef7-e08c-4d23-b9ee-444b435d9a93" d="M224,6.71a1.16,1.16,0,0,1,.26.37,1.29,1.29,0,0,1,.1.57,1.64,1.64,0,0,1-.12.63,1.7,1.7,0,0,1-.35.52,1.55,1.55,0,0,1-.57.34,2.19,2.19,0,0,1-.75.12,3.47,3.47,0,0,1-.81-.09,4,4,0,0,1-.59-.2V8.21h0a2.76,2.76,0,0,0,.62.32,2.1,2.1,0,0,0,.73.14A1.43,1.43,0,0,0,223,8.6a.83.83,0,0,0,.39-.22,1.12,1.12,0,0,0,.23-.32,1.18,1.18,0,0,0,.07-.45,1.15,1.15,0,0,0-.08-.44.88.88,0,0,0-.25-.29,1,1,0,0,0-.37-.15,2.42,2.42,0,0,0-.47-.05H222V6.11h.44a1.38,1.38,0,0,0,.8-.21.73.73,0,0,0,.31-.63.67.67,0,0,0-.08-.33.63.63,0,0,0-.21-.22,1.2,1.2,0,0,0-.31-.13,2,2,0,0,0-.36,0,1.83,1.83,0,0,0-.4.05l-.37.12a1.57,1.57,0,0,0-.29.16l-.2.12h0V4.26a3.08,3.08,0,0,1,.59-.2A3.18,3.18,0,0,1,222.6,4a2.38,2.38,0,0,1,.63.07,1.46,1.46,0,0,1,.48.21,1.23,1.23,0,0,1,.36.4,1.2,1.2,0,0,1-.14,1.27,1.18,1.18,0,0,1-.67.4v0a2,2,0,0,1,.35.11A1.27,1.27,0,0,1,224,6.71Z"/><path class="fbd28ef7-e08c-4d23-b9ee-444b435d9a93" d="M226.91,8.76l-.2.16a1.18,1.18,0,0,1-.24.17,2,2,0,0,1-.3.14,1.5,1.5,0,0,1-.42,0,1.16,1.16,0,0,1-.41-.09,1.12,1.12,0,0,1-.35-.25,1.26,1.26,0,0,1-.23-.39,1.37,1.37,0,0,1-.09-.49,1.42,1.42,0,0,1,.16-.68,1.06,1.06,0,0,1,.49-.44,2.37,2.37,0,0,1,.71-.21c.27,0,.56-.06.88-.08V6.52a.74.74,0,0,0-.07-.36.54.54,0,0,0-.17-.22.76.76,0,0,0-.29-.1,1.87,1.87,0,0,0-.34,0,2.41,2.41,0,0,0-.48.07,3.69,3.69,0,0,0-.56.19h0V5.42l.48-.11a3.17,3.17,0,0,1,.61-.07,2.72,2.72,0,0,1,.62.07,1.18,1.18,0,0,1,.45.22,1,1,0,0,1,.29.41,1.78,1.78,0,0,1,.09.61V9.17h-.59Zm0-.53V7.16l-.54.06a2.64,2.64,0,0,0-.53.1.86.86,0,0,0-.39.24.61.61,0,0,0-.16.46.66.66,0,0,0,.17.49.67.67,0,0,0,.51.17,1,1,0,0,0,.51-.13A3.19,3.19,0,0,0,226.91,8.23Z"/><path class="fbd28ef7-e08c-4d23-b9ee-444b435d9a93" d="M231.14,9.17h-.59V5.89h-1.61V9.17h-.6V5.34h2.8Z"/><path class="fbd28ef7-e08c-4d23-b9ee-444b435d9a93" d="M234,8.76l-.19.16a1.18,1.18,0,0,1-.24.17,2.63,2.63,0,0,1-.3.14,1.5,1.5,0,0,1-.42,0,1.17,1.17,0,0,1-.42-.09,1.2,1.2,0,0,1-.34-.25,1.26,1.26,0,0,1-.23-.39,1.37,1.37,0,0,1-.09-.49,1.32,1.32,0,0,1,.16-.68,1.06,1.06,0,0,1,.49-.44,2.37,2.37,0,0,1,.71-.21c.27,0,.56-.06.87-.08V6.52a.9.9,0,0,0-.06-.36.49.49,0,0,0-.18-.22.71.71,0,0,0-.28-.1,1.87,1.87,0,0,0-.34,0,2.31,2.31,0,0,0-.48.07,3.69,3.69,0,0,0-.56.19h0V5.42l.47-.11a3.27,3.27,0,0,1,.62-.07,2.56,2.56,0,0,1,.61.07,1.05,1.05,0,0,1,.45.22.93.93,0,0,1,.29.41,1.56,1.56,0,0,1,.1.61V9.17H234Zm0-.53V7.16l-.53.06a2.64,2.64,0,0,0-.53.1,1,1,0,0,0-.4.24.65.65,0,0,0-.15.46.6.6,0,0,0,.67.66,1,1,0,0,0,.51-.13A2.29,2.29,0,0,0,234,8.23Z"/><path class="fbd28ef7-e08c-4d23-b9ee-444b435d9a93" d="M236.84,9.25a1.81,1.81,0,0,1-.67-.12,1.38,1.38,0,0,1-.53-.37,1.75,1.75,0,0,1-.34-.62,2.88,2.88,0,0,1-.12-.88,2.75,2.75,0,0,1,.13-.87,2,2,0,0,1,.33-.62,1.38,1.38,0,0,1,.53-.39,1.67,1.67,0,0,1,.67-.13,1.73,1.73,0,0,1,.56.09,3.31,3.31,0,0,1,.49.2v.73h0l-.17-.14L237.45,6a1.26,1.26,0,0,0-.29-.12,1,1,0,0,0-.33-.05.85.85,0,0,0-.74.38,1.75,1.75,0,0,0-.29,1.07,1.75,1.75,0,0,0,.28,1.06.88.88,0,0,0,.75.38,1.35,1.35,0,0,0,.56-.13,1.94,1.94,0,0,0,.47-.34h0V9l-.22.11-.24.1-.28.07A1.37,1.37,0,0,1,236.84,9.25Z"/><path class="fbd28ef7-e08c-4d23-b9ee-444b435d9a93" d="M243.33,9.17h-.75L241.36,7.4h-.29V9.17h-.6V5.34h.6V7a.71.71,0,0,0,.39-.1.82.82,0,0,0,.28-.39c0-.06,0-.13.08-.2l.07-.2a1.18,1.18,0,0,1,.38-.6,1.16,1.16,0,0,1,.65-.17h.16v.55H243a.57.57,0,0,0-.38.11.78.78,0,0,0-.21.41,1.73,1.73,0,0,1-.21.47.91.91,0,0,1-.27.25Z"/><path class="fbd28ef7-e08c-4d23-b9ee-444b435d9a93" d="M245.7,8.76l-.2.16a1.18,1.18,0,0,1-.24.17,2,2,0,0,1-.3.14,1.5,1.5,0,0,1-.42,0,1.16,1.16,0,0,1-.41-.09,1.12,1.12,0,0,1-.35-.25,1.26,1.26,0,0,1-.23-.39,1.37,1.37,0,0,1-.09-.49,1.42,1.42,0,0,1,.16-.68,1.06,1.06,0,0,1,.49-.44,2.37,2.37,0,0,1,.71-.21c.27,0,.56-.06.88-.08V6.52a.74.74,0,0,0-.07-.36.49.49,0,0,0-.18-.22.71.71,0,0,0-.28-.1,1.87,1.87,0,0,0-.34,0,2.41,2.41,0,0,0-.48.07,3.69,3.69,0,0,0-.56.19h0V5.42l.48-.11a3.17,3.17,0,0,1,.61-.07,2.56,2.56,0,0,1,.61.07,1.15,1.15,0,0,1,.46.22,1,1,0,0,1,.29.41,1.78,1.78,0,0,1,.09.61V9.17h-.59Zm0-.53V7.16l-.54.06a2.64,2.64,0,0,0-.53.1.86.86,0,0,0-.39.24.61.61,0,0,0-.16.46.66.66,0,0,0,.17.49.67.67,0,0,0,.51.17,1,1,0,0,0,.51-.13A3.19,3.19,0,0,0,245.7,8.23Z"/><path class="fbd28ef7-e08c-4d23-b9ee-444b435d9a93" d="M249.8,9.17h-.6V7.67a3.68,3.68,0,0,1-.54.16,3.15,3.15,0,0,1-.52,0,1.61,1.61,0,0,1-.44-.06.91.91,0,0,1-.61-.58,1.4,1.4,0,0,1-.09-.53V5.34h.6v1a3.9,3.9,0,0,0,0,.4.77.77,0,0,0,.1.29.47.47,0,0,0,.23.18.82.82,0,0,0,.39.07,2.57,2.57,0,0,0,.45,0,3,3,0,0,0,.41-.11V5.34h.6Z"/><path class="fbd28ef7-e08c-4d23-b9ee-444b435d9a93" d="M252.21,9.26a1.67,1.67,0,0,1-1.32-.52,2.1,2.1,0,0,1-.47-1.46,2.21,2.21,0,0,1,.46-1.49,1.46,1.46,0,0,1,1.19-.56,1.72,1.72,0,0,1,.58.1,1.19,1.19,0,0,1,.45.33,1.58,1.58,0,0,1,.29.53,2.55,2.55,0,0,1,.1.78v.35H251a1.47,1.47,0,0,0,.31,1,1.09,1.09,0,0,0,.86.36,1.74,1.74,0,0,0,.39,0,1.71,1.71,0,0,0,.34-.13,1.63,1.63,0,0,0,.27-.15,1,1,0,0,0,.19-.14h0v.71l-.26.11a1.9,1.9,0,0,1-.28.1,2.37,2.37,0,0,1-.31.08A1.86,1.86,0,0,1,252.21,9.26Zm.7-2.43a2.46,2.46,0,0,0-.06-.45.94.94,0,0,0-.14-.32.8.8,0,0,0-.27-.22,1,1,0,0,0-.41-.08,1,1,0,0,0-.41.08.93.93,0,0,0-.3.23.94.94,0,0,0-.2.33,1.31,1.31,0,0,0-.09.43Z"/><path class="fbd28ef7-e08c-4d23-b9ee-444b435d9a93" d="M255.51,9.25a1.87,1.87,0,0,1-.68-.12,1.35,1.35,0,0,1-.52-.37,1.61,1.61,0,0,1-.34-.62,2.88,2.88,0,0,1-.12-.88,2.77,2.77,0,0,1,.12-.87,2,2,0,0,1,.34-.62,1.35,1.35,0,0,1,.52-.39,1.72,1.72,0,0,1,.68-.13,1.77,1.77,0,0,1,.56.09,3.66,3.66,0,0,1,.48.2v.73h0l-.16-.14L256.11,6a1.1,1.1,0,0,0-.29-.12.93.93,0,0,0-.32-.05.88.88,0,0,0-.75.38,1.75,1.75,0,0,0-.28,1.07,1.83,1.83,0,0,0,.27,1.06.88.88,0,0,0,.76.38,1.31,1.31,0,0,0,.55-.13,1.77,1.77,0,0,0,.47-.34h0V9l-.22.11-.24.1-.27.07A1.42,1.42,0,0,1,255.51,9.25Z"/><path class="fbd28ef7-e08c-4d23-b9ee-444b435d9a93" d="M259.69,5.9h-1.2V9.17h-.6V5.9h-1.21V5.34h3Z"/><path class="fbd28ef7-e08c-4d23-b9ee-444b435d9a93" d="M262.92,8a1.26,1.26,0,0,1-.09.49,1.22,1.22,0,0,1-.27.36,1.39,1.39,0,0,1-.46.25,2.29,2.29,0,0,1-.56.06h-1.4V5.34h1.3l.58,0a.93.93,0,0,1,.35.13.73.73,0,0,1,.28.3.94.94,0,0,1,.09.43.91.91,0,0,1-.14.49.93.93,0,0,1-.37.34v0a.91.91,0,0,1,.68.94Zm-.79-1.69a.79.79,0,0,0,0-.23.4.4,0,0,0-.14-.15.72.72,0,0,0-.26-.08h-1V6.9h.69l.31,0a.75.75,0,0,0,.2-.1.34.34,0,0,0,.15-.18A.78.78,0,0,0,262.13,6.32ZM262.31,8a.87.87,0,0,0-.05-.31.51.51,0,0,0-.24-.21.62.62,0,0,0-.23-.07l-.36,0h-.7V8.65h.52a3.48,3.48,0,0,0,.5,0,.82.82,0,0,0,.3-.11.57.57,0,0,0,.2-.21A.67.67,0,0,0,262.31,8Z"/><path class="fbd28ef7-e08c-4d23-b9ee-444b435d9a93" d="M265.54,8.76l-.2.16a1.5,1.5,0,0,1-.23.17,2.73,2.73,0,0,1-.31.14,1.5,1.5,0,0,1-.42,0,1.16,1.16,0,0,1-.41-.09,1.24,1.24,0,0,1-.35-.25,1.49,1.49,0,0,1-.23-.39,1.62,1.62,0,0,1-.08-.49,1.42,1.42,0,0,1,.15-.68,1.09,1.09,0,0,1,.5-.44,2.22,2.22,0,0,1,.7-.21c.27,0,.56-.06.88-.08V6.52a.74.74,0,0,0-.07-.36.54.54,0,0,0-.17-.22.77.77,0,0,0-.28-.1,2,2,0,0,0-.34,0,2.5,2.5,0,0,0-.49.07,4.11,4.11,0,0,0-.56.19h0V5.42l.47-.11a3.26,3.26,0,0,1,.61-.07,2.72,2.72,0,0,1,.62.07,1.11,1.11,0,0,1,.45.22,1,1,0,0,1,.29.41,1.78,1.78,0,0,1,.09.61V9.17h-.59Zm0-.53V7.16l-.54.06a2.79,2.79,0,0,0-.53.1.86.86,0,0,0-.39.24.61.61,0,0,0-.16.46.63.63,0,0,0,.18.49.65.65,0,0,0,.5.17,1,1,0,0,0,.51-.13A3.19,3.19,0,0,0,265.54,8.23Z"/><path class="fbd28ef7-e08c-4d23-b9ee-444b435d9a93" d="M33.48,4.65a2.4,2.4,0,0,1,.42.83,3.94,3.94,0,0,1,.15,1.14,3.89,3.89,0,0,1-.15,1.12,2.55,2.55,0,0,1-.42.84,1.91,1.91,0,0,1-.68.53,2.15,2.15,0,0,1-.85.17,2,2,0,0,1-.86-.18,1.87,1.87,0,0,1-.67-.52A2.55,2.55,0,0,1,30,7.74a4.23,4.23,0,0,1-.14-1.12A3.82,3.82,0,0,1,30,5.49a2.55,2.55,0,0,1,.42-.84,1.76,1.76,0,0,1,.66-.52A2,2,0,0,1,32,4a2.05,2.05,0,0,1,.87.18A1.84,1.84,0,0,1,33.48,4.65Zm-.09,2a3.49,3.49,0,0,0-.1-.9A1.86,1.86,0,0,0,33,5.07a1.15,1.15,0,0,0-.45-.4,1.47,1.47,0,0,0-.6-.13,1.32,1.32,0,0,0-.6.13,1.3,1.3,0,0,0-.45.4,2,2,0,0,0-.29.66,4,4,0,0,0-.1.89,2.59,2.59,0,0,0,.39,1.54A1.27,1.27,0,0,0,32,8.69,1.25,1.25,0,0,0,33,8.16,2.59,2.59,0,0,0,33.39,6.62Z"/><path class="fbd28ef7-e08c-4d23-b9ee-444b435d9a93" d="M37.21,5.9a1.79,1.79,0,0,1,.32.58,2.78,2.78,0,0,1,.11.81,2.37,2.37,0,0,1-.13.81,1.79,1.79,0,0,1-.35.64,1.61,1.61,0,0,1-.51.4,1.36,1.36,0,0,1-.6.14,1.56,1.56,0,0,1-.62-.13A1.16,1.16,0,0,1,35,8.76,2.25,2.25,0,0,1,34.59,8a5.23,5.23,0,0,1-.12-1.22c0-.17,0-.34,0-.52a4.63,4.63,0,0,1,.09-.64A3.62,3.62,0,0,1,34.75,5,1.43,1.43,0,0,1,35,4.48a1.5,1.5,0,0,1,.59-.4,3.44,3.44,0,0,1,1-.21l.46,0,.37,0v.59l-.36,0-.42,0a2.87,2.87,0,0,0-.68.12,1,1,0,0,0-.52.29,1.18,1.18,0,0,0-.22.42,3.68,3.68,0,0,0-.11.61,2.62,2.62,0,0,1,.51-.3,1.27,1.27,0,0,1,.58-.13,1.5,1.5,0,0,1,.55.11A1.28,1.28,0,0,1,37.21,5.9ZM37,7.32a1.47,1.47,0,0,0-.26-.93.86.86,0,0,0-.72-.33,1.39,1.39,0,0,0-.5.09,2.55,2.55,0,0,0-.46.25c0,.06,0,.13,0,.2a1.77,1.77,0,0,0,0,.22,4.26,4.26,0,0,0,.09,1,1.54,1.54,0,0,0,.25.59,1,1,0,0,0,.3.26.84.84,0,0,0,1.06-.3A1.79,1.79,0,0,0,37,7.32Z"/><path class="fbd28ef7-e08c-4d23-b9ee-444b435d9a93" d="M39.81,9.26a1.7,1.7,0,0,1-1.32-.52A2.1,2.1,0,0,1,38,7.28a2.27,2.27,0,0,1,.46-1.49,1.46,1.46,0,0,1,1.19-.56,1.72,1.72,0,0,1,.58.1,1.19,1.19,0,0,1,.45.33,1.42,1.42,0,0,1,.29.53,2.55,2.55,0,0,1,.1.78v.35H38.63a1.52,1.52,0,0,0,.31,1,1.1,1.1,0,0,0,.87.36,1.58,1.58,0,0,0,.38,0,1.51,1.51,0,0,0,.34-.13l.28-.15A1.41,1.41,0,0,0,41,8.23h0v.71l-.26.11-.28.1-.32.08A1.79,1.79,0,0,1,39.81,9.26Zm.7-2.43a1.44,1.44,0,0,0-.06-.45.94.94,0,0,0-.14-.32A.64.64,0,0,0,40,5.84a1,1,0,0,0-.41-.08,1,1,0,0,0-.4.08,1.08,1.08,0,0,0-.31.23,1.38,1.38,0,0,0-.2.33,1.62,1.62,0,0,0-.09.43Z"/><path class="fbd28ef7-e08c-4d23-b9ee-444b435d9a93" d="M43.11,9.25a1.81,1.81,0,0,1-.67-.12,1.31,1.31,0,0,1-.53-.37,1.75,1.75,0,0,1-.34-.62,2.88,2.88,0,0,1-.12-.88,2.49,2.49,0,0,1,.13-.87,1.83,1.83,0,0,1,.33-.62,1.38,1.38,0,0,1,.53-.39,1.67,1.67,0,0,1,.67-.13,1.77,1.77,0,0,1,.56.09,3.83,3.83,0,0,1,.49.2v.73h0A1.22,1.22,0,0,0,44,6.13L43.72,6a1.17,1.17,0,0,0-.3-.12.93.93,0,0,0-.32-.05.88.88,0,0,0-.75.38,1.82,1.82,0,0,0-.28,1.07,1.83,1.83,0,0,0,.27,1.06.91.91,0,0,0,.76.38,1.39,1.39,0,0,0,.56-.13,1.72,1.72,0,0,0,.46-.34h0V9l-.22.11-.25.1-.27.07A1.37,1.37,0,0,1,43.11,9.25Z"/><path class="fbd28ef7-e08c-4d23-b9ee-444b435d9a93" d="M47.51,9.17h-.6V5.89H45.3V9.17h-.6V5.34h2.81Z"/><path class="fbd28ef7-e08c-4d23-b9ee-444b435d9a93" d="M49.91,9.26a1.66,1.66,0,0,1-1.31-.52,2.05,2.05,0,0,1-.47-1.46,2.27,2.27,0,0,1,.45-1.49,1.46,1.46,0,0,1,1.19-.56,1.78,1.78,0,0,1,.59.1,1.16,1.16,0,0,1,.44.33,1.3,1.3,0,0,1,.29.53A2.53,2.53,0,0,1,51.2,7v.35H48.73a1.47,1.47,0,0,0,.32,1,1.06,1.06,0,0,0,.86.36,1.58,1.58,0,0,0,.38,0,1.81,1.81,0,0,0,.35-.13l.27-.15a.94.94,0,0,0,.18-.14h0v.71l-.26.11-.28.1-.32.08A1.73,1.73,0,0,1,49.91,9.26Zm.7-2.43a1.87,1.87,0,0,0,0-.45,1.19,1.19,0,0,0-.15-.32.64.64,0,0,0-.27-.22,1,1,0,0,0-.4-.08,1,1,0,0,0-.41.08.93.93,0,0,0-.3.23,1.15,1.15,0,0,0-.21.33,2.15,2.15,0,0,0-.09.43Z"/><path class="fbd28ef7-e08c-4d23-b9ee-444b435d9a93" d="M54.47,9.17h-.6V7.67a4.08,4.08,0,0,1-.54.16,3.15,3.15,0,0,1-.52,0,1.61,1.61,0,0,1-.44-.06.91.91,0,0,1-.61-.58,1.4,1.4,0,0,1-.09-.53V5.34h.6v1a3.9,3.9,0,0,0,0,.4.77.77,0,0,0,.1.29.49.49,0,0,0,.22.18.88.88,0,0,0,.39.07,2.42,2.42,0,0,0,.45,0,3.16,3.16,0,0,0,.42-.11V5.34h.6Z"/><path class="fbd28ef7-e08c-4d23-b9ee-444b435d9a93" d="M56.88,9.26a1.67,1.67,0,0,1-1.32-.52,2.1,2.1,0,0,1-.47-1.46,2.21,2.21,0,0,1,.46-1.49,1.46,1.46,0,0,1,1.19-.56,1.72,1.72,0,0,1,.58.1,1.19,1.19,0,0,1,.45.33,1.58,1.58,0,0,1,.29.53,2.55,2.55,0,0,1,.1.78v.35H55.7a1.47,1.47,0,0,0,.31,1,1.07,1.07,0,0,0,.86.36,1.74,1.74,0,0,0,.39,0,1.71,1.71,0,0,0,.34-.13,1.63,1.63,0,0,0,.27-.15,1,1,0,0,0,.19-.14h0v.71l-.26.11a1.9,1.9,0,0,1-.28.1,2.37,2.37,0,0,1-.31.08A1.86,1.86,0,0,1,56.88,9.26Zm.7-2.43a2.46,2.46,0,0,0-.06-.45.79.79,0,0,0-.15-.32.68.68,0,0,0-.26-.22,1,1,0,0,0-.41-.08,1,1,0,0,0-.41.08.93.93,0,0,0-.3.23.94.94,0,0,0-.2.33,1.31,1.31,0,0,0-.09.43Z"/><path class="fbd28ef7-e08c-4d23-b9ee-444b435d9a93" d="M61.57,9.17H61V7.44H59.36V9.17h-.6V5.34h.6V6.89H61V5.34h.6Z"/><path class="fbd28ef7-e08c-4d23-b9ee-444b435d9a93" d="M65.23,9.17h-.59V6.31L63,9.17h-.54V5.34H63V8.15l1.65-2.81h.56Z"/><path class="fbd28ef7-e08c-4d23-b9ee-444b435d9a93" d="M67.64,9.26a1.7,1.7,0,0,1-1.32-.52,2.1,2.1,0,0,1-.47-1.46,2.27,2.27,0,0,1,.46-1.49,1.46,1.46,0,0,1,1.19-.56,1.72,1.72,0,0,1,.58.1,1.19,1.19,0,0,1,.45.33,1.42,1.42,0,0,1,.29.53,2.55,2.55,0,0,1,.1.78v.35H66.46a1.52,1.52,0,0,0,.31,1,1.1,1.1,0,0,0,.87.36,1.58,1.58,0,0,0,.38,0,1.51,1.51,0,0,0,.34-.13l.28-.15a1.41,1.41,0,0,0,.18-.14h0v.71l-.26.11-.28.1a3,3,0,0,1-.32.08A1.73,1.73,0,0,1,67.64,9.26Zm.7-2.43a1.44,1.44,0,0,0-.06-.45.94.94,0,0,0-.14-.32.64.64,0,0,0-.27-.22,1,1,0,0,0-.41-.08,1,1,0,0,0-.4.08.93.93,0,0,0-.3.23,1.15,1.15,0,0,0-.21.33,2.15,2.15,0,0,0-.09.43Z"/><path class="fbd28ef7-e08c-4d23-b9ee-444b435d9a93" d="M74.54,7.15a2.52,2.52,0,0,1-.42,1.53A1.29,1.29,0,0,1,73,9.24,1.48,1.48,0,0,1,72.16,9v1.6h-.6V5.34h.6v.4a1.88,1.88,0,0,1,.49-.36,1.24,1.24,0,0,1,.6-.15,1.09,1.09,0,0,1,1,.52A2.52,2.52,0,0,1,74.54,7.15Zm-.61.07a2.15,2.15,0,0,0-.2-1,.66.66,0,0,0-.63-.36,1.07,1.07,0,0,0-.49.12,1.9,1.9,0,0,0-.45.31V8.45a2.35,2.35,0,0,0,.4.17,1.51,1.51,0,0,0,.39,0,.83.83,0,0,0,.72-.36A1.89,1.89,0,0,0,73.93,7.22Z"/><path class="fbd28ef7-e08c-4d23-b9ee-444b435d9a93" d="M77.15,8.76l-.2.16a1.18,1.18,0,0,1-.24.17,2,2,0,0,1-.3.14,1.5,1.5,0,0,1-.42,0,1.16,1.16,0,0,1-.41-.09,1.12,1.12,0,0,1-.35-.25A1.26,1.26,0,0,1,75,8.55a1.37,1.37,0,0,1-.09-.49,1.42,1.42,0,0,1,.16-.68,1.06,1.06,0,0,1,.49-.44,2.37,2.37,0,0,1,.71-.21c.27,0,.56-.06.88-.08V6.52a.74.74,0,0,0-.07-.36.54.54,0,0,0-.17-.22.76.76,0,0,0-.29-.1,1.87,1.87,0,0,0-.34,0,2.41,2.41,0,0,0-.48.07,4.11,4.11,0,0,0-.56.19h0V5.42l.48-.11a3.17,3.17,0,0,1,.61-.07,2.72,2.72,0,0,1,.62.07,1.18,1.18,0,0,1,.45.22,1,1,0,0,1,.29.41,1.78,1.78,0,0,1,.09.61V9.17h-.59Zm0-.53V7.16l-.54.06a2.64,2.64,0,0,0-.53.1.86.86,0,0,0-.39.24.61.61,0,0,0-.16.46.66.66,0,0,0,.17.49.67.67,0,0,0,.51.17,1,1,0,0,0,.51-.13A3.19,3.19,0,0,0,77.15,8.23Z"/><path class="fbd28ef7-e08c-4d23-b9ee-444b435d9a93" d="M80.93,8.11a1,1,0,0,1-.13.54,1,1,0,0,1-.33.36A1.58,1.58,0,0,1,80,9.2a2.14,2.14,0,0,1-.5.06,2.84,2.84,0,0,1-.66-.08A2.23,2.23,0,0,1,78.25,9V8.24h0a1.61,1.61,0,0,0,.54.34,1.87,1.87,0,0,0,.65.12l.3,0a.85.85,0,0,0,.27-.1.6.6,0,0,0,.21-.21.61.61,0,0,0,.06-.3.62.62,0,0,0-.07-.33.5.5,0,0,0-.19-.19.89.89,0,0,0-.28-.07l-.33,0H79V6.89h.63a.9.9,0,0,0,.28-.06.45.45,0,0,0,.22-.15.51.51,0,0,0,.09-.34.48.48,0,0,0-.07-.27A.58.58,0,0,0,80,5.9a.63.63,0,0,0-.23-.08,1.1,1.1,0,0,0-.25,0,1.9,1.9,0,0,0-.58.09,1.42,1.42,0,0,0-.48.27h0v-.7a3.27,3.27,0,0,1,.5-.15,2.68,2.68,0,0,1,.56-.07,2.49,2.49,0,0,1,.46,0,1.67,1.67,0,0,1,.44.17,1,1,0,0,1,.33.33.86.86,0,0,1,.14.49.94.94,0,0,1-.17.55.74.74,0,0,1-.43.31v0a1,1,0,0,1,.48.33A.89.89,0,0,1,80.93,8.11Z"/><path class="fbd28ef7-e08c-4d23-b9ee-444b435d9a93" d="M84.36,9.17h-.59V7.44H82.16V9.17h-.6V5.34h.6V6.89h1.61V5.34h.59Z"/><path class="fbd28ef7-e08c-4d23-b9ee-444b435d9a93" d="M87.21,8.76,87,8.92l-.24.17a2.73,2.73,0,0,1-.31.14,1.47,1.47,0,0,1-.41,0,1.17,1.17,0,0,1-.42-.09,1.24,1.24,0,0,1-.35-.25,1.49,1.49,0,0,1-.23-.39A1.62,1.62,0,0,1,85,8.06a1.42,1.42,0,0,1,.15-.68,1.09,1.09,0,0,1,.5-.44,2.3,2.3,0,0,1,.7-.21c.27,0,.57-.06.88-.08V6.52a.9.9,0,0,0-.06-.36A.49.49,0,0,0,87,5.94a.77.77,0,0,0-.28-.1,1.87,1.87,0,0,0-.34,0,2.5,2.5,0,0,0-.49.07,4.63,4.63,0,0,0-.56.19h0V5.42l.47-.11a3.26,3.26,0,0,1,.61-.07,2.65,2.65,0,0,1,.62.07,1.05,1.05,0,0,1,.45.22.93.93,0,0,1,.29.41,1.77,1.77,0,0,1,.1.61V9.17h-.6Zm0-.53V7.16l-.54.06a2.52,2.52,0,0,0-.52.1.9.9,0,0,0-.4.24A.65.65,0,0,0,85.6,8a.62.62,0,0,0,.17.49.65.65,0,0,0,.5.17,1,1,0,0,0,.51-.13A2.67,2.67,0,0,0,87.21,8.23Z"/><path class="fbd28ef7-e08c-4d23-b9ee-444b435d9a93" d="M91.62,7.15a2.52,2.52,0,0,1-.42,1.53,1.27,1.27,0,0,1-1.07.56,1.63,1.63,0,0,1-.47-.06,1.6,1.6,0,0,1-.42-.2v1.6h-.6V5.34h.6v.4a1.92,1.92,0,0,1,.5-.36,1.2,1.2,0,0,1,.59-.15,1.09,1.09,0,0,1,1,.52A2.52,2.52,0,0,1,91.62,7.15ZM91,7.22a2.15,2.15,0,0,0-.2-1,.66.66,0,0,0-.63-.36,1.07,1.07,0,0,0-.49.12,1.9,1.9,0,0,0-.45.31V8.45a2.35,2.35,0,0,0,.4.17,1.56,1.56,0,0,0,.39,0,.83.83,0,0,0,.72-.36A1.89,1.89,0,0,0,91,7.22Z"/><path class="fbd28ef7-e08c-4d23-b9ee-444b435d9a93" d="M94.82,9.17h-.6V7.65h-.59L92.57,9.17h-.69L93,7.59a1.23,1.23,0,0,1-.65-.42,1.25,1.25,0,0,1-.2-.74,1.12,1.12,0,0,1,.11-.5,1.22,1.22,0,0,1,.32-.36,1.06,1.06,0,0,1,.4-.18,2.92,2.92,0,0,1,.54,0h1.28Zm-.6-2V5.85h-.65a1.42,1.42,0,0,0-.33,0,.52.52,0,0,0-.4.29.67.67,0,0,0-.06.28.9.9,0,0,0,0,.31A.58.58,0,0,0,93,7a.5.5,0,0,0,.27.14,1.9,1.9,0,0,0,.35,0Z"/><path class="fbd28ef7-e08c-4d23-b9ee-444b435d9a93" d="M98.73,10.09h-.56V9.16H95.83v.93h-.56V8.62h.24A4.94,4.94,0,0,0,96,7.22a8.47,8.47,0,0,0,.2-1.88h2.17V8.62h.36Zm-1-1.47V5.88h-1a8.25,8.25,0,0,1-.22,1.57,4.62,4.62,0,0,1-.44,1.17Z"/><path class="fbd28ef7-e08c-4d23-b9ee-444b435d9a93" d="M102.18,9.17h-.75L100.21,7.4h-.3V9.17h-.59V5.34h.59V7a.72.72,0,0,0,.4-.1.82.82,0,0,0,.28-.39c0-.06,0-.13.08-.2a1.08,1.08,0,0,0,.06-.2,1.25,1.25,0,0,1,.39-.6,1.16,1.16,0,0,1,.65-.17h.16v.55h-.14a.56.56,0,0,0-.37.11.78.78,0,0,0-.21.41,1.73,1.73,0,0,1-.21.47,1,1,0,0,1-.27.25Z"/><path class="fbd28ef7-e08c-4d23-b9ee-444b435d9a93" d="M104.54,8.76l-.19.16a1.18,1.18,0,0,1-.24.17,2.12,2.12,0,0,1-.31.14,1.37,1.37,0,0,1-.41,0,1.17,1.17,0,0,1-.42-.09,1.2,1.2,0,0,1-.34-.25,1.09,1.09,0,0,1-.23-.39,1.37,1.37,0,0,1-.09-.49,1.32,1.32,0,0,1,.16-.68,1.06,1.06,0,0,1,.49-.44,2.28,2.28,0,0,1,.71-.21c.27,0,.56-.06.87-.08V6.52a.9.9,0,0,0-.06-.36.49.49,0,0,0-.18-.22.71.71,0,0,0-.28-.1,1.87,1.87,0,0,0-.34,0,2.31,2.31,0,0,0-.48.07,3.69,3.69,0,0,0-.56.19h0V5.42l.47-.11a3.27,3.27,0,0,1,.62-.07,2.63,2.63,0,0,1,.61.07,1.05,1.05,0,0,1,.45.22.93.93,0,0,1,.29.41,1.56,1.56,0,0,1,.1.61V9.17h-.6Zm0-.53V7.16l-.53.06a2.64,2.64,0,0,0-.53.1,1,1,0,0,0-.4.24.65.65,0,0,0-.15.46.66.66,0,0,0,.17.49.65.65,0,0,0,.5.17,1,1,0,0,0,.51-.13A2.29,2.29,0,0,0,104.54,8.23Z"/><path class="fbd28ef7-e08c-4d23-b9ee-444b435d9a93" d="M109.27,9.17h-.59v-3l-.85,1.95h-.45l-.84-1.95v3H106V5.34h.72l.93,2.12.91-2.12h.73Z"/><path class="fbd28ef7-e08c-4d23-b9ee-444b435d9a93" d="M112.94,9.17h-.59V6.31l-1.67,2.86h-.54V5.34h.59V8.15l1.65-2.81h.56Z"/><rect class="e19ca512-f7bf-49f4-872e-f6f3ff75ce54" x="30.28" y="28.73" width="157.77" height="16.52"/><path class="b0da718b-ba53-49b3-883b-07a1f5119361" d="M64,37.36h-.57v1.76h-.61V37.36H60.75v-.72L62.87,34h.58v2.8H64Zm-1.18-.55v-2l-1.59,2Z"/><path class="b0da718b-ba53-49b3-883b-07a1f5119361" d="M67.39,37.49a1.92,1.92,0,0,1-.11.69,1.57,1.57,0,0,1-.3.54,1.42,1.42,0,0,1-.5.37,1.6,1.6,0,0,1-.67.13,2.56,2.56,0,0,1-.67-.08,2.12,2.12,0,0,1-.57-.21v-.72h.05l.21.13a2.09,2.09,0,0,0,.3.14,3.3,3.3,0,0,0,.34.11,1.29,1.29,0,0,0,.35,0,1,1,0,0,0,.38-.07.79.79,0,0,0,.31-.24,1.28,1.28,0,0,0,.18-.35,1.75,1.75,0,0,0,.06-.48,1.18,1.18,0,0,0-.07-.45.84.84,0,0,0-.2-.29.88.88,0,0,0-.33-.18,2.06,2.06,0,0,0-.45,0,3.12,3.12,0,0,0-.52,0l-.41.08V34h2.6v.6h-2V36l.23,0h.2a2.13,2.13,0,0,1,.61.07,1.34,1.34,0,0,1,.49.25,1.44,1.44,0,0,1,.36.48A2,2,0,0,1,67.39,37.49Z"/><path class="b0da718b-ba53-49b3-883b-07a1f5119361" d="M71.39,34.5a1.37,1.37,0,0,0-.34,0,2.3,2.3,0,0,0-.34.12,1.26,1.26,0,0,0-.26.14l-.2.14h0v-.72a2.61,2.61,0,0,1,.56-.22,2.8,2.8,0,0,1,.68-.1A2.31,2.31,0,0,1,72,34a1.35,1.35,0,0,1,.43.22,1,1,0,0,1,.32.4,1.35,1.35,0,0,1,.1.55A1.15,1.15,0,0,1,72,36.28v0a1.52,1.52,0,0,1,.32.11,1.08,1.08,0,0,1,.32.22,1.17,1.17,0,0,1,.23.38,1.34,1.34,0,0,1,.1.56,1.91,1.91,0,0,1-.11.64,1.88,1.88,0,0,1-.31.51,1.34,1.34,0,0,1-.5.35,1.78,1.78,0,0,1-.67.12,2.8,2.8,0,0,1-.7-.09,2.35,2.35,0,0,1-.59-.22v-.73h0a2.66,2.66,0,0,0,.54.31,1.83,1.83,0,0,0,.67.14,1.07,1.07,0,0,0,.39-.07.72.72,0,0,0,.33-.21,1.14,1.14,0,0,0,.19-.34,1.2,1.2,0,0,0,.07-.46,1.18,1.18,0,0,0-.07-.45.61.61,0,0,0-.21-.28.86.86,0,0,0-.32-.15,2.34,2.34,0,0,0-.39,0h-.27v-.57h.2a1.1,1.1,0,0,0,.7-.21.78.78,0,0,0,.27-.64.67.67,0,0,0-.07-.33.44.44,0,0,0-.18-.22.71.71,0,0,0-.26-.13A1.66,1.66,0,0,0,71.39,34.5Z"/><path class="b0da718b-ba53-49b3-883b-07a1f5119361" d="M76.59,39.12H73.67V38.4l.6-.62c.18-.19.37-.4.54-.61a6,6,0,0,0,.74-1,1.72,1.72,0,0,0,.2-.8,1.06,1.06,0,0,0-.06-.37.89.89,0,0,0-.17-.27.68.68,0,0,0-.26-.15.86.86,0,0,0-.32,0,1.27,1.27,0,0,0-.34,0,2,2,0,0,0-.34.12,1.23,1.23,0,0,0-.25.14,1.33,1.33,0,0,0-.2.14h0v-.73a2.4,2.4,0,0,1,.55-.2A2.28,2.28,0,0,1,75,33.9a1.4,1.4,0,0,1,1,.38,1.42,1.42,0,0,1,.38,1,1.93,1.93,0,0,1-.07.55,1.76,1.76,0,0,1-.18.47,3,3,0,0,1-.28.44c-.11.15-.23.3-.35.44s-.42.47-.67.72-.44.46-.58.6h2.32Z"/><path class="b0da718b-ba53-49b3-883b-07a1f5119361" d="M79.91,39.12H77.6V38.6h.86V35.17H77.6v-.46a1.38,1.38,0,0,0,.72-.15.67.67,0,0,0,.25-.57h.5V38.6h.84Z"/><rect class="ef253257-f232-407c-9c4b-9c84093419cd" x="29.32" y="21.38" width="0.96" height="23.94"/><path class="b0da718b-ba53-49b3-883b-07a1f5119361" d="M61.77,24.91a1.57,1.57,0,0,1-.14.67,1.27,1.27,0,0,1-.36.48,1.55,1.55,0,0,1-.57.32,2.49,2.49,0,0,1-.79.1H58.55V21.37h1.26a4.84,4.84,0,0,1,.76,0,1.2,1.2,0,0,1,.48.17.93.93,0,0,1,.38.38,1.4,1.4,0,0,1,.11.56,1.29,1.29,0,0,1-.17.65,1.16,1.16,0,0,1-.49.44v0a1.14,1.14,0,0,1,.65.45A1.35,1.35,0,0,1,61.77,24.91Zm-.88-2.29a.79.79,0,0,0-.06-.32.46.46,0,0,0-.18-.21.82.82,0,0,0-.34-.12l-.52,0h-.61v1.5h.72a1.63,1.63,0,0,0,.44,0,.81.81,0,0,0,.29-.13.57.57,0,0,0,.2-.26A1.16,1.16,0,0,0,60.89,22.62Zm.22,2.32a1.35,1.35,0,0,0-.07-.48.71.71,0,0,0-.31-.31A.76.76,0,0,0,60.4,24a3.16,3.16,0,0,0-.5,0h-.72V25.9h.52a3.8,3.8,0,0,0,.65,0,1,1,0,0,0,.42-.18.91.91,0,0,0,.26-.3A1.08,1.08,0,0,0,61.11,24.94Z"/><path class="b0da718b-ba53-49b3-883b-07a1f5119361" d="M63.76,26.56a1.78,1.78,0,0,1-.67-.12,1.31,1.31,0,0,1-.53-.37,1.75,1.75,0,0,1-.34-.62,2.88,2.88,0,0,1-.12-.88,2.49,2.49,0,0,1,.13-.87,1.83,1.83,0,0,1,.33-.62,1.43,1.43,0,0,1,.52-.39,1.72,1.72,0,0,1,.68-.13,1.77,1.77,0,0,1,.56.09,4.53,4.53,0,0,1,.49.2v.73h0l-.16-.14-.24-.15a1.34,1.34,0,0,0-.3-.12.93.93,0,0,0-.32-.05.88.88,0,0,0-.75.38,1.75,1.75,0,0,0-.28,1.07A1.83,1.83,0,0,0,63,25.63a.89.89,0,0,0,.76.38,1.18,1.18,0,0,0,.55-.14,1.43,1.43,0,0,0,.47-.33h0v.72l-.23.11-.24.09a2,2,0,0,1-.27.08A1.37,1.37,0,0,1,63.76,26.56Z"/><path class="b0da718b-ba53-49b3-883b-07a1f5119361" d="M66.89,26.57a1.7,1.7,0,0,1-1.32-.52,2.1,2.1,0,0,1-.46-1.46,2.31,2.31,0,0,1,.45-1.5,1.49,1.49,0,0,1,1.19-.55,1.72,1.72,0,0,1,.58.1,1.19,1.19,0,0,1,.45.33,1.42,1.42,0,0,1,.29.53,2.51,2.51,0,0,1,.1.78v.35H65.71a1.52,1.52,0,0,0,.31,1,1.1,1.1,0,0,0,.87.36,1.58,1.58,0,0,0,.38-.05,2.2,2.2,0,0,0,.34-.13l.28-.15a1.41,1.41,0,0,0,.18-.14h0v.71l-.26.11-.28.1a3,3,0,0,1-.32.08A1.73,1.73,0,0,1,66.89,26.57Zm.7-2.43a1.87,1.87,0,0,0,0-.45,1.06,1.06,0,0,0-.15-.32.64.64,0,0,0-.27-.22,1,1,0,0,0-.41-.08,1,1,0,0,0-.4.08,1.05,1.05,0,0,0-.3.22,1.36,1.36,0,0,0-.21.34,2.15,2.15,0,0,0-.09.43Z"/><path class="b0da718b-ba53-49b3-883b-07a1f5119361" d="M71,23.21H69.38v3.27h-.6V22.65H71Z"/><path class="b0da718b-ba53-49b3-883b-07a1f5119361" d="M74.4,24.56a2.29,2.29,0,0,1-.43,1.5,1.52,1.52,0,0,1-2.32,0,2.35,2.35,0,0,1-.42-1.48,2.3,2.3,0,0,1,.44-1.49,1.51,1.51,0,0,1,2.3,0A2.28,2.28,0,0,1,74.4,24.56Zm-.61,0a2,2,0,0,0-.25-1.1.9.9,0,0,0-1.44,0,1.92,1.92,0,0,0-.25,1.1,2,2,0,0,0,.25,1.1.82.82,0,0,0,.72.37.79.79,0,0,0,.71-.37A1.92,1.92,0,0,0,73.79,24.56Z"/><path class="b0da718b-ba53-49b3-883b-07a1f5119361" d="M80,24.46A2.52,2.52,0,0,1,79.61,26a1.31,1.31,0,0,1-1.08.56,1.48,1.48,0,0,1-.88-.26v1.6h-.6V22.65h.6v.4a1.88,1.88,0,0,1,.49-.36,1.24,1.24,0,0,1,.6-.15,1.07,1.07,0,0,1,1,.52A2.52,2.52,0,0,1,80,24.46Zm-.62.07a2.16,2.16,0,0,0-.19-1,.66.66,0,0,0-.63-.36,1.07,1.07,0,0,0-.49.12,1.9,1.9,0,0,0-.45.31v2.17a2.35,2.35,0,0,0,.4.17,1.51,1.51,0,0,0,.39,0,.84.84,0,0,0,.72-.36A1.9,1.9,0,0,0,79.41,24.53Z"/><path class="b0da718b-ba53-49b3-883b-07a1f5119361" d="M82.64,26.07l-.2.16a1.18,1.18,0,0,1-.24.17,2.63,2.63,0,0,1-.3.14,1.5,1.5,0,0,1-.42.05,1.06,1.06,0,0,1-.76-.34,1.26,1.26,0,0,1-.23-.39,1.37,1.37,0,0,1-.09-.49,1.42,1.42,0,0,1,.16-.68,1,1,0,0,1,.49-.44,2.37,2.37,0,0,1,.71-.21c.27,0,.56-.06.88-.08v-.13a.88.88,0,0,0-.07-.36.49.49,0,0,0-.18-.22.71.71,0,0,0-.28-.1,1.87,1.87,0,0,0-.34,0,2.41,2.41,0,0,0-.48.07,3.69,3.69,0,0,0-.56.19h0v-.65a3.54,3.54,0,0,1,.48-.11,3.17,3.17,0,0,1,.61-.07,2.56,2.56,0,0,1,.61.07,1.15,1.15,0,0,1,.46.22,1,1,0,0,1,.29.41,1.78,1.78,0,0,1,.09.61v2.62h-.59Zm0-.54V24.47l-.54.06a2.64,2.64,0,0,0-.53.1.86.86,0,0,0-.39.24.61.61,0,0,0-.16.46.6.6,0,0,0,.67.66,1,1,0,0,0,.52-.13A2.6,2.6,0,0,0,82.64,25.53Z"/><path class="b0da718b-ba53-49b3-883b-07a1f5119361" d="M86.42,25.42a1,1,0,0,1-.13.54,1,1,0,0,1-.33.36,2,2,0,0,1-.44.19,2.14,2.14,0,0,1-.5.06,2.84,2.84,0,0,1-.66-.08,2.45,2.45,0,0,1-.62-.23v-.71h0a1.61,1.61,0,0,0,.54.34A1.87,1.87,0,0,0,85,26l.3,0a.85.85,0,0,0,.27-.1.6.6,0,0,0,.21-.21.61.61,0,0,0,.06-.3.62.62,0,0,0-.07-.33.5.5,0,0,0-.19-.19.89.89,0,0,0-.28-.07,1.77,1.77,0,0,0-.33,0h-.42V24.2h.63a.9.9,0,0,0,.28-.06.45.45,0,0,0,.22-.15.51.51,0,0,0,.09-.34.55.55,0,0,0-.07-.28.69.69,0,0,0-.18-.16.63.63,0,0,0-.23-.08,1.1,1.1,0,0,0-.25,0,1.9,1.9,0,0,0-.58.09,1.33,1.33,0,0,0-.48.27h0v-.7a3.8,3.8,0,0,1,.51-.15,2.68,2.68,0,0,1,.56-.07,2.49,2.49,0,0,1,.46.05,1.82,1.82,0,0,1,.44.17,1.12,1.12,0,0,1,.33.32.92.92,0,0,1,.14.5.94.94,0,0,1-.17.55.74.74,0,0,1-.43.31v0a1,1,0,0,1,.48.33A.89.89,0,0,1,86.42,25.42Z"/><path class="b0da718b-ba53-49b3-883b-07a1f5119361" d="M89.85,26.48h-.59V24.75H87.65v1.73h-.6V22.65h.6V24.2h1.61V22.65h.59Z"/><path class="b0da718b-ba53-49b3-883b-07a1f5119361" d="M92.7,26.07l-.2.16a1.5,1.5,0,0,1-.23.17,2.73,2.73,0,0,1-.31.14,1.47,1.47,0,0,1-.41.05,1.17,1.17,0,0,1-.42-.09,1.24,1.24,0,0,1-.35-.25,1.49,1.49,0,0,1-.23-.39,1.62,1.62,0,0,1-.08-.49,1.42,1.42,0,0,1,.15-.68,1,1,0,0,1,.5-.44,2.3,2.3,0,0,1,.7-.21c.27,0,.57-.06.88-.08v-.13a.9.9,0,0,0-.06-.36.56.56,0,0,0-.18-.22.77.77,0,0,0-.28-.1,1.87,1.87,0,0,0-.34,0,2.5,2.5,0,0,0-.49.07,4.63,4.63,0,0,0-.56.19h0v-.65a3.72,3.72,0,0,1,.47-.11,3.26,3.26,0,0,1,.61-.07,2.65,2.65,0,0,1,.62.07,1.05,1.05,0,0,1,.45.22.88.88,0,0,1,.29.41,1.77,1.77,0,0,1,.1.61v2.62h-.6Zm0-.54V24.47l-.54.06a2.52,2.52,0,0,0-.52.1.9.9,0,0,0-.4.24.66.66,0,0,0-.16.46.63.63,0,0,0,.18.49.65.65,0,0,0,.5.17,1,1,0,0,0,.51-.13A2.24,2.24,0,0,0,92.7,25.53Z"/><path class="b0da718b-ba53-49b3-883b-07a1f5119361" d="M97.11,24.46A2.52,2.52,0,0,1,96.69,26a1.3,1.3,0,0,1-1.07.56,1.63,1.63,0,0,1-.47-.06,1.6,1.6,0,0,1-.42-.2v1.6h-.6V22.65h.6v.4a1.92,1.92,0,0,1,.5-.36,1.2,1.2,0,0,1,.59-.15,1.07,1.07,0,0,1,1,.52A2.52,2.52,0,0,1,97.11,24.46Zm-.61.07a2.15,2.15,0,0,0-.2-1,.66.66,0,0,0-.63-.36,1.07,1.07,0,0,0-.49.12,1.9,1.9,0,0,0-.45.31v2.17a2.35,2.35,0,0,0,.4.17,1.51,1.51,0,0,0,.39,0,.83.83,0,0,0,.72-.36A1.89,1.89,0,0,0,96.5,24.53Z"/><path class="b0da718b-ba53-49b3-883b-07a1f5119361" d="M100.31,26.48h-.6V25h-.59l-1.06,1.52h-.69l1.14-1.58a1.23,1.23,0,0,1-.65-.42,1.25,1.25,0,0,1-.2-.74,1.12,1.12,0,0,1,.11-.5,1.22,1.22,0,0,1,.32-.36,1.06,1.06,0,0,1,.4-.18,2.92,2.92,0,0,1,.54-.05h1.28Zm-.6-2V23.16h-.65a1.42,1.42,0,0,0-.33,0,.52.52,0,0,0-.4.29.67.67,0,0,0-.06.28.93.93,0,0,0,0,.31.58.58,0,0,0,.15.21.5.5,0,0,0,.27.14,1.83,1.83,0,0,0,.35,0Z"/><path class="b0da718b-ba53-49b3-883b-07a1f5119361" d="M104.22,27.4h-.56v-.93h-2.34v.93h-.56V25.93H101a4.94,4.94,0,0,0,.49-1.4,8.47,8.47,0,0,0,.2-1.88h2.17v3.28h.36Zm-1-1.47V23.19h-1a8.25,8.25,0,0,1-.22,1.57,4.62,4.62,0,0,1-.44,1.17Z"/><path class="b0da718b-ba53-49b3-883b-07a1f5119361" d="M107.73,24.56a2.35,2.35,0,0,1-.43,1.5,1.43,1.43,0,0,1-1.15.53A1.41,1.41,0,0,1,105,26a2.35,2.35,0,0,1-.42-1.48,2.3,2.3,0,0,1,.43-1.49,1.52,1.52,0,0,1,2.31,0A2.34,2.34,0,0,1,107.73,24.56Zm-.62,0a1.92,1.92,0,0,0-.25-1.1.83.83,0,0,0-.71-.36.84.84,0,0,0-.73.36,2,2,0,0,0-.25,1.1,2.06,2.06,0,0,0,.25,1.1.82.82,0,0,0,.73.37.81.81,0,0,0,.71-.37A1.92,1.92,0,0,0,107.11,24.56Z"/><path class="b0da718b-ba53-49b3-883b-07a1f5119361" d="M111.2,26.48h-.74l-1.22-1.77h-.3v1.77h-.6V22.65h.6v1.66a.74.74,0,0,0,.4-.1.81.81,0,0,0,.27-.39c0-.06,0-.13.08-.2l.07-.2a1,1,0,0,1,1-.77H111v.55h-.14a.59.59,0,0,0-.38.11,1,1,0,0,0-.21.41,1.73,1.73,0,0,1-.21.47.91.91,0,0,1-.27.25Z"/><rect class="f65bd753-72f8-4125-a7ee-3bc996975f87" x="30.28" y="60.01" width="157.77" height="16.52"/><path class="b0da718b-ba53-49b3-883b-07a1f5119361" d="M64,68.64h-.57v1.75h-.61V68.64H60.75v-.72l2.12-2.63h.58v2.8H64Zm-1.18-.55v-2l-1.59,2Z"/><path class="b0da718b-ba53-49b3-883b-07a1f5119361" d="M67.39,68.77a1.9,1.9,0,0,1-.11.68A1.62,1.62,0,0,1,67,70a1.55,1.55,0,0,1-.5.37,1.6,1.6,0,0,1-.67.13,3.07,3.07,0,0,1-.67-.08,2.52,2.52,0,0,1-.57-.21v-.73h.05l.21.14.3.14.34.11a1.87,1.87,0,0,0,.35,0,1,1,0,0,0,.38-.08.79.79,0,0,0,.31-.24,1.15,1.15,0,0,0,.18-.35,1.65,1.65,0,0,0,.06-.48,1.1,1.1,0,0,0-.07-.44.75.75,0,0,0-.2-.29.67.67,0,0,0-.33-.18,1.58,1.58,0,0,0-.45-.06,3.15,3.15,0,0,0-.52,0c-.17,0-.31,0-.41.08V65.29h2.6v.6h-2v1.35l.23,0h.2a2.62,2.62,0,0,1,.61.06,1.37,1.37,0,0,1,.49.26,1.27,1.27,0,0,1,.36.48A2,2,0,0,1,67.39,68.77Z"/><path class="b0da718b-ba53-49b3-883b-07a1f5119361" d="M71.39,65.77a1.4,1.4,0,0,0-.34,0l-.34.11-.26.15-.2.14h0V65.5a2.17,2.17,0,0,1,.56-.22,2.38,2.38,0,0,1,.68-.1,1.91,1.91,0,0,1,.56.07,1.35,1.35,0,0,1,.43.22,1,1,0,0,1,.32.4,1.27,1.27,0,0,1,.1.54,1.14,1.14,0,0,1-.25.74,1.19,1.19,0,0,1-.62.41v0a1.07,1.07,0,0,1,.32.1,1.31,1.31,0,0,1,.32.22,1.28,1.28,0,0,1,.23.38,1.42,1.42,0,0,1,.1.57A1.72,1.72,0,0,1,72.54,70a1.46,1.46,0,0,1-.5.35,1.78,1.78,0,0,1-.67.12,2.8,2.8,0,0,1-.7-.09,2.34,2.34,0,0,1-.59-.23v-.72h0a2.26,2.26,0,0,0,.54.3,1.66,1.66,0,0,0,.67.15,1.34,1.34,0,0,0,.39-.07.83.83,0,0,0,.33-.22,1.09,1.09,0,0,0,.19-.33,1.24,1.24,0,0,0,.07-.46,1.2,1.2,0,0,0-.07-.46.67.67,0,0,0-.21-.28.84.84,0,0,0-.32-.14,1.61,1.61,0,0,0-.39,0h-.27v-.57h.2a1,1,0,0,0,.7-.22.78.78,0,0,0,.27-.64.7.7,0,0,0-.07-.33.55.55,0,0,0-.18-.22.68.68,0,0,0-.26-.12A1.65,1.65,0,0,0,71.39,65.77Z"/><path class="b0da718b-ba53-49b3-883b-07a1f5119361" d="M76.59,70.39H73.67v-.71l.6-.62c.18-.2.37-.4.54-.61a6,6,0,0,0,.74-1,1.79,1.79,0,0,0,.2-.8,1,1,0,0,0-.06-.37.89.89,0,0,0-.17-.27.87.87,0,0,0-.26-.16,1.13,1.13,0,0,0-.32,0,1.27,1.27,0,0,0-.34,0l-.34.11a2,2,0,0,0-.25.14l-.2.15h0v-.73a2.9,2.9,0,0,1,.55-.21,2.25,2.25,0,0,1,.66-.1,1.31,1.31,0,0,1,1.42,1.41,1.93,1.93,0,0,1-.07.55,1.91,1.91,0,0,1-.18.47,3.59,3.59,0,0,1-.28.44c-.11.15-.23.29-.35.43s-.42.48-.67.73l-.58.6h2.32Z"/><path class="b0da718b-ba53-49b3-883b-07a1f5119361" d="M79.91,70.39H77.6v-.52h.86V66.45H77.6V66a1.38,1.38,0,0,0,.72-.15.65.65,0,0,0,.25-.56h.5v4.6h.84Z"/><rect class="ef253257-f232-407c-9c4b-9c84093419cd" x="29.32" y="52.66" width="0.96" height="23.94"/><path class="b0da718b-ba53-49b3-883b-07a1f5119361" d="M62,57.75h-.63v-4.5H59.18v4.5h-.63v-5.1H62Z"/><path class="b0da718b-ba53-49b3-883b-07a1f5119361" d="M65.83,55.84a2.28,2.28,0,0,1-.44,1.49,1.51,1.51,0,0,1-2.31,0,2.39,2.39,0,0,1-.43-1.48,2.28,2.28,0,0,1,.44-1.49,1.4,1.4,0,0,1,1.15-.53,1.38,1.38,0,0,1,1.15.53A2.28,2.28,0,0,1,65.83,55.84Zm-.62,0A1.94,1.94,0,0,0,65,54.73a.9.9,0,0,0-1.44,0,2.54,2.54,0,0,0,0,2.2.82.82,0,0,0,.72.37.83.83,0,0,0,.72-.36A1.92,1.92,0,0,0,65.21,55.84Z"/><path class="b0da718b-ba53-49b3-883b-07a1f5119361" d="M69.49,58.67h-.56v-.93H66.59v.93H66V57.2h.24a4.86,4.86,0,0,0,.49-1.39,8.63,8.63,0,0,0,.2-1.89h2.17V57.2h.36Zm-.95-1.47V54.46h-1A8,8,0,0,1,67.3,56a4.62,4.62,0,0,1-.44,1.17Z"/><path class="b0da718b-ba53-49b3-883b-07a1f5119361" d="M72.06,57.35l-.2.16a1.38,1.38,0,0,1-.23.16,1.66,1.66,0,0,1-.31.14,1.47,1.47,0,0,1-.41,0,1,1,0,0,1-.42-.09,1.07,1.07,0,0,1-.35-.25,1.22,1.22,0,0,1-.23-.39,1.57,1.57,0,0,1-.08-.49A1.45,1.45,0,0,1,70,56a1.14,1.14,0,0,1,.5-.44,2.05,2.05,0,0,1,.7-.2c.27,0,.57-.07.88-.09v-.12a1,1,0,0,0-.06-.37.56.56,0,0,0-.46-.31,2,2,0,0,0-.34,0,1.92,1.92,0,0,0-.49.07,3.37,3.37,0,0,0-.56.19h0V54a3.46,3.46,0,0,1,.47-.12,3.23,3.23,0,0,1,.61-.06,2.71,2.71,0,0,1,.62.06,1.18,1.18,0,0,1,.45.22,1,1,0,0,1,.29.41,1.82,1.82,0,0,1,.09.61v2.62h-.59Zm0-.54V55.75l-.54,0a3.89,3.89,0,0,0-.53.1,1,1,0,0,0-.39.25.75.75,0,0,0,0,1,.69.69,0,0,0,.5.17,1,1,0,0,0,.51-.14A1.85,1.85,0,0,0,72.06,56.81Z"/><path class="b0da718b-ba53-49b3-883b-07a1f5119361" d="M76.3,57.75h-.6V56H74.09v1.72h-.6V53.92h.6v1.55H75.7V53.92h.6Z"/><path class="b0da718b-ba53-49b3-883b-07a1f5119361" d="M79.8,56.57a1.18,1.18,0,0,1-.11.5,1,1,0,0,1-.28.37,1.4,1.4,0,0,1-.45.24,2.09,2.09,0,0,1-.61.07H77.16V53.92h.6v1.49h.61a3.28,3.28,0,0,1,.62.05,1.07,1.07,0,0,1,.44.22.88.88,0,0,1,.27.38A1.19,1.19,0,0,1,79.8,56.57Zm-.62,0a.75.75,0,0,0-.06-.31.37.37,0,0,0-.18-.21.64.64,0,0,0-.3-.11h-.88v1.3h.38a3.1,3.1,0,0,0,.49,0,.82.82,0,0,0,.3-.11.54.54,0,0,0,.19-.21A.71.71,0,0,0,79.18,56.58Zm1.63,1.17h-.6V53.92h.6Z"/><rect class="a14e6e48-5592-4244-99fd-dd83a6d9dd9b" x="30.28" y="91.49" width="157.77" height="16.52"/><path class="b0da718b-ba53-49b3-883b-07a1f5119361" d="M64,100.12h-.57v1.76h-.61v-1.76H60.75V99.4l2.12-2.63h.58v2.8H64Zm-1.18-.55v-2l-1.59,2Z"/><path class="b0da718b-ba53-49b3-883b-07a1f5119361" d="M67.39,100.25a1.92,1.92,0,0,1-.11.69,1.57,1.57,0,0,1-.3.54,1.42,1.42,0,0,1-.5.37,1.6,1.6,0,0,1-.67.14,2.57,2.57,0,0,1-.67-.09,2.12,2.12,0,0,1-.57-.21V101h.05l.21.13a2.09,2.09,0,0,0,.3.14,1.9,1.9,0,0,0,.34.11,1.29,1.29,0,0,0,.35,0,1,1,0,0,0,.38-.07.79.79,0,0,0,.31-.24,1.28,1.28,0,0,0,.18-.35,1.75,1.75,0,0,0,.06-.48,1.18,1.18,0,0,0-.07-.45.72.72,0,0,0-.2-.28.78.78,0,0,0-.33-.19,2.06,2.06,0,0,0-.45,0,3.12,3.12,0,0,0-.52,0l-.41.08V96.77h2.6v.6h-2v1.36l.23,0h.2a2.13,2.13,0,0,1,.61.07,1.34,1.34,0,0,1,.49.25,1.44,1.44,0,0,1,.36.48A2,2,0,0,1,67.39,100.25Z"/><path class="b0da718b-ba53-49b3-883b-07a1f5119361" d="M71.39,97.26a1.37,1.37,0,0,0-.34,0,2.3,2.3,0,0,0-.34.12,2,2,0,0,0-.26.14l-.2.14h0V97a2.61,2.61,0,0,1,.56-.22,2.77,2.77,0,0,1,.68-.09,1.91,1.91,0,0,1,.56.07,1.15,1.15,0,0,1,.43.21,1.11,1.11,0,0,1,.32.4,1.35,1.35,0,0,1,.1.55,1.16,1.16,0,0,1-.25.74A1.12,1.12,0,0,1,72,99v0a1.52,1.52,0,0,1,.32.11,1.08,1.08,0,0,1,.32.22,1.17,1.17,0,0,1,.23.38,1.34,1.34,0,0,1,.1.56,1.67,1.67,0,0,1-.42,1.15,1.34,1.34,0,0,1-.5.35,1.78,1.78,0,0,1-.67.13,2.82,2.82,0,0,1-.7-.1,2.35,2.35,0,0,1-.59-.22V101h0a3.26,3.26,0,0,0,.54.3,1.83,1.83,0,0,0,.67.14,1.07,1.07,0,0,0,.39-.07.72.72,0,0,0,.33-.21,1,1,0,0,0,.19-.34,1.2,1.2,0,0,0,.07-.46,1.18,1.18,0,0,0-.07-.45.67.67,0,0,0-.21-.28.71.71,0,0,0-.32-.14,1.61,1.61,0,0,0-.39,0h-.27v-.57h.2a1.1,1.1,0,0,0,.7-.22.78.78,0,0,0,.27-.64.67.67,0,0,0-.07-.33.44.44,0,0,0-.18-.22.91.91,0,0,0-.26-.13A1.66,1.66,0,0,0,71.39,97.26Z"/><path class="b0da718b-ba53-49b3-883b-07a1f5119361" d="M76.59,101.88H73.67v-.72l.6-.62c.18-.19.37-.4.54-.61a6,6,0,0,0,.74-1,1.72,1.72,0,0,0,.2-.79,1.08,1.08,0,0,0-.06-.38,1,1,0,0,0-.17-.27.84.84,0,0,0-.26-.15,1.13,1.13,0,0,0-.32,0,1.27,1.27,0,0,0-.34,0,3.4,3.4,0,0,0-.34.12,2,2,0,0,0-.25.14,1.33,1.33,0,0,0-.2.14h0V97a2.4,2.4,0,0,1,.55-.2,2.25,2.25,0,0,1,.66-.1A1.39,1.39,0,0,1,76,97a1.42,1.42,0,0,1,.38,1,1.93,1.93,0,0,1-.07.55,1.76,1.76,0,0,1-.18.47,3.68,3.68,0,0,1-.28.45l-.35.43c-.2.23-.42.47-.67.73l-.58.59h2.32Z"/><path class="b0da718b-ba53-49b3-883b-07a1f5119361" d="M79.91,101.88H77.6v-.52h.86V97.93H77.6v-.46a1.38,1.38,0,0,0,.72-.15.67.67,0,0,0,.25-.57h.5v4.61h.84Z"/><rect class="ef253257-f232-407c-9c4b-9c84093419cd" x="29.32" y="84.14" width="0.96" height="23.94"/><path class="b0da718b-ba53-49b3-883b-07a1f5119361" d="M62,89.24h-.63v-2.5H59.18v2.5h-.63V84.13h.63v2h2.18v-2H62Z"/><path class="b0da718b-ba53-49b3-883b-07a1f5119361" d="M64.45,89.33a1.67,1.67,0,0,1-1.32-.52,2.1,2.1,0,0,1-.47-1.46,2.21,2.21,0,0,1,.46-1.49,1.45,1.45,0,0,1,1.18-.56,1.78,1.78,0,0,1,.59.1,1.09,1.09,0,0,1,.44.33,1.44,1.44,0,0,1,.3.53,2.55,2.55,0,0,1,.1.78v.35H63.27a1.47,1.47,0,0,0,.31,1,1.07,1.07,0,0,0,.86.36,1.74,1.74,0,0,0,.39,0,1.71,1.71,0,0,0,.34-.13,1.63,1.63,0,0,0,.27-.15,1,1,0,0,0,.19-.14h0V89l-.26.11-.28.1a2.49,2.49,0,0,1-.32.08A1.69,1.69,0,0,1,64.45,89.33Zm.7-2.43a2.46,2.46,0,0,0-.06-.45.79.79,0,0,0-.15-.32.64.64,0,0,0-.27-.22.92.92,0,0,0-.4-.08,1,1,0,0,0-.41.08.93.93,0,0,0-.3.23.94.94,0,0,0-.2.33,1.31,1.31,0,0,0-.09.43Z"/><path class="b0da718b-ba53-49b3-883b-07a1f5119361" d="M69.14,89.24h-.6V86H66.93v3.28h-.6V85.41h2.81Z"/><path class="b0da718b-ba53-49b3-883b-07a1f5119361" d="M72.92,87.33a2.28,2.28,0,0,1-.43,1.49,1.42,1.42,0,0,1-1.15.53,1.4,1.4,0,0,1-1.16-.55,2.28,2.28,0,0,1-.43-1.47,2.33,2.33,0,0,1,.44-1.5,1.51,1.51,0,0,1,2.3,0A2.31,2.31,0,0,1,72.92,87.33Zm-.61,0a2,2,0,0,0-.25-1.11.9.9,0,0,0-1.44,0,2.54,2.54,0,0,0,0,2.2.89.89,0,0,0,1.44,0A2,2,0,0,0,72.31,87.33Z"/><path class="b0da718b-ba53-49b3-883b-07a1f5119361" d="M76.58,90.16H76v-.93H73.69v.93h-.56V88.69h.24a5.27,5.27,0,0,0,.49-1.4,8.49,8.49,0,0,0,.19-1.88h2.18v3.28h.35Zm-1-1.47V86h-1a8.25,8.25,0,0,1-.22,1.57A5,5,0,0,1,74,88.69Z"/><path class="b0da718b-ba53-49b3-883b-07a1f5119361" d="M79.16,88.83,79,89a1.18,1.18,0,0,1-.24.17,1.35,1.35,0,0,1-.3.14,1.5,1.5,0,0,1-.42,0,1,1,0,0,1-.41-.09,1.12,1.12,0,0,1-.35-.25,1.26,1.26,0,0,1-.23-.39,1.37,1.37,0,0,1-.09-.49,1.42,1.42,0,0,1,.16-.68,1.06,1.06,0,0,1,.49-.44,2.37,2.37,0,0,1,.71-.21c.27,0,.56-.06.88-.08v-.13a.74.74,0,0,0-.07-.36.51.51,0,0,0-.17-.21.63.63,0,0,0-.28-.11,1.94,1.94,0,0,0-.34,0,2.33,2.33,0,0,0-.49.06,3.14,3.14,0,0,0-.56.2h0v-.66l.48-.11a3.15,3.15,0,0,1,.61-.06,2.77,2.77,0,0,1,.62.06,1.18,1.18,0,0,1,.45.22,1,1,0,0,1,.29.41,1.82,1.82,0,0,1,.09.61v2.62h-.59Zm0-.53V87.23l-.54.06a2.79,2.79,0,0,0-.53.1.86.86,0,0,0-.39.24.61.61,0,0,0-.16.46.66.66,0,0,0,.17.49.67.67,0,0,0,.51.17,1,1,0,0,0,.51-.13A3.19,3.19,0,0,0,79.16,88.3Z"/><path class="b0da718b-ba53-49b3-883b-07a1f5119361" d="M83.4,89.24h-.6V87.51H81.19v1.73h-.6V85.41h.6V87H82.8V85.41h.6Z"/><path class="b0da718b-ba53-49b3-883b-07a1f5119361" d="M86.89,88.05a1.19,1.19,0,0,1-.1.51.92.92,0,0,1-.28.36,1.26,1.26,0,0,1-.45.25,2.09,2.09,0,0,1-.61.07H84.26V85.41h.6V86.9h.6a3.13,3.13,0,0,1,.62,0,.94.94,0,0,1,.44.21.88.88,0,0,1,.28.38A1.44,1.44,0,0,1,86.89,88.05Zm-.61,0a.7.7,0,0,0-.06-.3.55.55,0,0,0-.18-.22.63.63,0,0,0-.31-.1l-.48,0h-.39v1.3h.37a3.41,3.41,0,0,0,.5,0,.79.79,0,0,0,.3-.12.48.48,0,0,0,.19-.21A.68.68,0,0,0,86.28,88.06Zm1.63,1.18h-.6V85.41h.6Z"/></svg>