<svg id="a6a0d29b-4756-485e-80e1-1a55e6fefef3" data-name="1" xmlns="http://www.w3.org/2000/svg" viewBox="0 0 324 116.75"><defs><style>.ecb57f25-9930-4321-ae6c-c2481a13a82c{fill:#5e6581;opacity:0.2;}.a48b4267-c406-4e8f-a8ef-efb418851e3d,.ba46fb41-1535-4e72-869c-6130a9c703d9,.bc117a1f-6745-41b5-884c-45d05d61b523,.e2c51532-539f-4493-b246-09331747c3f5{fill:none;stroke-miterlimit:10;stroke-width:2px;}.bc117a1f-6745-41b5-884c-45d05d61b523{stroke:#f4a321;}.a48b4267-c406-4e8f-a8ef-efb418851e3d,.bc117a1f-6745-41b5-884c-45d05d61b523{stroke-linecap:round;opacity:0.25;}.ba46fb41-1535-4e72-869c-6130a9c703d9{stroke:#fff;}.a48b4267-c406-4e8f-a8ef-efb418851e3d,.e2c51532-539f-4493-b246-09331747c3f5{stroke:#9ed7f5;}.a9b24fe4-7800-4a97-ae11-6ad60437fd86,.bc1833ee-2cf7-4452-a41b-807b2f26d8cc{fill:#606580;}.a9b24fe4-7800-4a97-ae11-6ad60437fd86,.b58dea9f-db07-4dab-b6c0-2a017716678d{fill-rule:evenodd;}.b58dea9f-db07-4dab-b6c0-2a017716678d{fill:#f4a321;}</style></defs><title>Prew</title><path class="ecb57f25-9930-4321-ae6c-c2481a13a82c" d="M160.25,8.67A36.24,36.24,0,1,0,177,77.07l-1.07-.39a35.46,35.46,0,1,1,11.51-9.05c.08.42.18,1.08.18,1.08a36.21,36.21,0,0,0,8.91-23.81,35.83,35.83,0,0,0-.84-7.73s1.23-1.54,2.27-2.88a39.29,39.29,0,0,0-17.72-23.2l-3.67,1.45A36,36,0,0,0,160.25,8.67Z"/><path class="bc117a1f-6745-41b5-884c-45d05d61b523" d="M160.84,73.7h-.21a29,29,0,1,1,8.46-56.76"/><path class="ba46fb41-1535-4e72-869c-6130a9c703d9" d="M160.25,15.68h.21A29,29,0,1,1,152,72.44"/><path class="ecb57f25-9930-4321-ae6c-c2481a13a82c" d="M41.33,38.12A36.24,36.24,0,1,0,58,106.52L57,106.13a35.46,35.46,0,1,1,11.51-9l.18,1.08a36.21,36.21,0,0,0,8.07-31.54L79,63.74a39.3,39.3,0,0,0-17.73-23.2L57.59,42A36,36,0,0,0,41.33,38.12Z"/><path class="a48b4267-c406-4e8f-a8ef-efb418851e3d" d="M41.92,103.15H41.7a29,29,0,1,1,8.47-56.76"/><path class="e2c51532-539f-4493-b246-09331747c3f5" d="M41.32,45.13h.22a29,29,0,1,1-8.47,56.76"/><path class="bc1833ee-2cf7-4452-a41b-807b2f26d8cc" d="M40,83.61l-1.49-.75c-.25-.12-.5-.24-.75-.38-2.78-1.63-3.8-4.38-2.86-7.74a15.76,15.76,0,0,1,1.74-3.68l.06-.12a25.73,25.73,0,0,0,2.66-5.54c.08-.28.15-.57.23-.87l.33-1.22.72.46a1.49,1.49,0,0,1,.29.2l.53.53a38.42,38.42,0,0,1,4.71,5.28,12.4,12.4,0,0,1,2.35,5.85c.32,3.07-.58,5.28-2.77,6.76a7.15,7.15,0,0,1-1.23.63l-.51.22-.58.28-.44-1,.23-.28a4.82,4.82,0,0,1,.36-.43,6.61,6.61,0,0,0,.64-.83,6.49,6.49,0,0,0,0-7.1A8.59,8.59,0,0,0,43,72.2a11.79,11.79,0,0,1-1.54,5.16l-.81,1.48-.34-1.65a5.07,5.07,0,0,0-.65-1.76c-.35.83-.68,1.66-1,2.49a3.29,3.29,0,0,0,.74,3.77,1.24,1.24,0,0,1,.36.64Zm1.57-14.32,1.16,1a10.91,10.91,0,0,1,2.54,3,7.74,7.74,0,0,1,.4,7.67c1.34-1.19,1.85-2.84,1.61-5.13a11.27,11.27,0,0,0-2.13-5.28,38,38,0,0,0-4.51-5c0,.11-.06.22-.1.33a26.72,26.72,0,0,1-2.76,5.81l-.07.12a14.3,14.3,0,0,0-1.61,3.38,5.28,5.28,0,0,0,1.17,5.51,4.67,4.67,0,0,1,.2-3.11c.35-.89.71-1.77,1.07-2.66l.39-.94.65-.25.33.23A4.53,4.53,0,0,1,41,75.37a9.83,9.83,0,0,0,.69-4.58ZM40,74.58v0Z"/><path class="ecb57f25-9930-4321-ae6c-c2481a13a82c" d="M279.17,38.12a36.24,36.24,0,1,0,16.7,68.4s-.77-.29-1.08-.39a35.44,35.44,0,1,1,11.52-9l.18,1.08a36.21,36.21,0,0,0,8.07-31.54l2.27-2.88a39.3,39.3,0,0,0-17.73-23.2L295.43,42A36,36,0,0,0,279.17,38.12Z"/><path class="a48b4267-c406-4e8f-a8ef-efb418851e3d" d="M279.51,103.15h-.22a29,29,0,1,1,8.47-56.76"/><path class="e2c51532-539f-4493-b246-09331747c3f5" d="M279.25,45.13h.21a29,29,0,1,1,0,58,28.85,28.85,0,0,1-8.46-1.26"/><path class="a9b24fe4-7800-4a97-ae11-6ad60437fd86" d="M281.23,77.8V66.17l-.07-.15v-.15l-.08-.07-.07-.15v-.07l-.08-.15-.07-.08-.08-.07-.07-.15-.07-.08-.08-.07-.14-.15-.08-.07-.07-.07-.15-.08-.08-.07-.14-.07h-.08l-.14-.08-.15-.08-.08-.07h-.15l-.15-.07h-.36l-.15-.08h-.3l-.15.08h-.44l-.08.07h-.15l-.14.07-.08.08-.14.08H277l-.07.07-.15.07-.07.08-.07.07-.15.07-.07.15-.08.07-.07.08-.08.07-.07.15-.08.08-.07.15-.07.07v.15l-.08.07-.07.15v.22l-.08.15V77.8h-.07l-.07.07-.08.08-.08.07-.07.07-.07.08-.08.08-.07.07v.15l-.07.07-.08.07-.07.08-.07.07v.07l-.08.08v.15l-.07.07-.08.08v.07l-.07.15v.07l-.08.08v.22l-.07.08v.44l-.07.07v.37l.07.22v.23l.07.14v.23l.08.15.07.14.08.22.07.16.08.14.14.15.08.15.14.22.08.08.14.15.16.14.14.15.15.07.15.15.15.07.22.16.15.07.15.07.22.08.14.07.23.07.22.08h.15l.22.07h1.26l.22-.07h.23l.22-.08.15-.07.22-.07.15-.08.22-.07.15-.07.14-.16.23-.07.15-.15.15-.07.14-.15.15-.14.07-.15.15-.08.15-.22.08-.15.07-.15.15-.14.07-.16.07-.22.08-.14.07-.15v-.23l.08-.14V80l-.08-.07v-.23l-.07-.07V79.5l-.08-.07v-.15l-.07-.07v-.08l-.07-.07v-.15l-.08-.08-.07-.07v-.07l-.07-.08-.08-.07-.07-.07-.08-.15-.07-.07-.08-.08v-.08L281.6,78l-.07-.07-.08-.08-.07-.07Zm6.59-10v-.89h-1V65.8h1v-.89H289v.89h1v1.11h-1v.89Zm-1,13.85h3.19v1.11h-3.19Zm0-5.55h3.19v1.1h-3.19Zm0-2.23h3.19V75h-3.19Zm0-2.22h3.19v1.11h-3.19Zm-7.71,7.18v-.07h0v-.07h0V72.32h0v-.08h0v-.07h0v-.08h-.07V72H279V72h0l-.08-.08h-.07V71.8h-.15v-.07h-.44v.07h-.15v.07h-.07L278,72h0l-.07.07h0v.07h-.08v.08h0v.07h0l-.07.08h0v6.37h0v.07h0l.07.07h-.15l-.07.08h-.08l-.07.08h-.07l-.08.07h-.07l-.07.07-.08.08H277v.07l-.07.08h-.07v.07l-.08.07-.07.08h0l-.07.07v.07l-.08.08v.08l-.07.07v.15l-.07.07V81l.07.08v.22l.07.07v.08l.08.08.07.07v.07l.07.08.08.07.07.07L277,82l.08.07.08.07h.07l.07.08.08.08h.07l.15.07h.07l.08.07h.07l.15.08h.37l.15.07.07-.07H279l.07-.08h.15l.07-.07h.08l.07-.07h.08l.15-.08.07-.08h.07l.08-.07L280,82l.07-.08.08-.07v-.07l.07-.08.08-.07.07-.07v-.08l.08-.08v-.07l.07-.15V81l.07-.07v-.67l-.07-.07V80l-.07-.07v-.07l-.08-.08v-.08l-.07-.07v-.07h-.08V79.5l-.07-.07-.08-.07h0l-.07-.08-.07-.07h-.08v-.08l-.07-.07h-.07L279.6,79h-.07l-.08-.08h-.07l-.08-.08h-.15Zm-.66,4.31h-.44l-.15-.08h-.23l-.15-.07-.14-.08h-.08l-.14-.07-.16-.08-.07-.07-.15-.08-.07-.07-.07-.07-.15-.08-.07-.07-.08-.07-.07-.16-.08-.07-.07-.07L276,81.8l-.07-.07-.07-.15v-.07l-.08-.16-.07-.14V81l-.08-.14v-.52l.08-.08V80l.07-.07V79.8l.08-.15v-.07l.07-.08v-.07l.07-.07v-.08h.08l.07-.07v-.08l.08-.07.07-.07.08-.08.07-.08h0l.07-.07.08-.07.07-.08h.07l.08-.07.07-.07H277l.08-.08v-12l.08-.07h0v-.08l.07-.07V66h.07v-.08l.08-.07h0l.07-.07h.07v-.08l.08-.07h.07v-.07h.15l.08-.08H278l.08-.07h.81l.07.07h.15l.07.08h.08l.07.07h.08l.07.07v.08h.08v.07h.07v.07l.08.08h0l.07.08v.14l.07.08h0v.14l.08.08V78.39l.07.08H280l.08.07.07.07h.08l.07.08v.07l.08.07h.07l.07.08.08.08.07.07v.07l.07.08.08.07h0l.07.08v.07l.08.07v.08l.07.07v.15l.08.08V80l.07.08v1l-.07.08v.14l-.08.16-.07.07v.15l-.08.07-.07.15-.08.07-.07.07-.07.16-.08.07-.14.07-.08.08-.07.07-.15.07-.08.08-.14.07-.08.08-.14.07h-.15l-.08.08-.15.07H279l-.08.08h-.44Z"/><path class="b58dea9f-db07-4dab-b6c0-2a017716678d" d="M156.25,51.66a13.06,13.06,0,0,1-2.26-3.2,7.24,7.24,0,0,1-.43-4.17,9.05,9.05,0,0,1,1.79-3.86,3.72,3.72,0,0,0,.94,2.73,6.48,6.48,0,0,1,1.48-5.38,11.24,11.24,0,0,1,4.75-3.12,3.87,3.87,0,0,0-.66,3.67,15.49,15.49,0,0,0,1.75,3.47,7.68,7.68,0,0,1,1.33,3.58,12.14,12.14,0,0,0,1-2.06,4.07,4.07,0,0,0,.16-2.26,5.82,5.82,0,0,1,1.29,2.8,10.57,10.57,0,0,1,.13,1.49v.33c0,.5,0,1-.09,1.49a8.23,8.23,0,0,1-1.14,3.47,6.46,6.46,0,0,1-3.39,2.54,10.82,10.82,0,0,1-2.19.16,3.89,3.89,0,0,0,3.13-5.7s0,0,0-.08a3.92,3.92,0,0,1-1,3.43,3.67,3.67,0,0,0-.35-3c-.47-.9-1.13-1.71-1.64-2.57a4.09,4.09,0,0,1-.66-2.92,5.09,5.09,0,0,0-1.87,2.88,5.15,5.15,0,0,0,.39,3.43A2.56,2.56,0,0,1,157.61,47a3.79,3.79,0,0,0,1.6,6.12l.39.12A6.81,6.81,0,0,1,156.25,51.66Z"/></svg>