<svg width="324" height="117" viewBox="0 0 324 117" fill="none" xmlns="http://www.w3.org/2000/svg">
<path opacity="0.5" d="M5.5 33.7728C5.5 32.6682 6.39543 31.7728 7.5 31.7728H287C288.105 31.7728 289 32.6682 289 33.7728V54.7728C289 55.8773 288.105 56.7728 287 56.7728H7.5C6.39543 56.7728 5.5 55.8773 5.5 54.7728V33.7728Z" fill="#1B1F2C" stroke="#5B607D"/>
<rect opacity="0.5" x="293" y="31.7728" width="26" height="25" rx="2" fill="#5B607D" fill-opacity="0.501961"/>
<path opacity="0.5" d="M5 66.7728L319 66.7728" stroke="#5B607D"/>
<path opacity="0.5" fill-rule="evenodd" clip-rule="evenodd" d="M6.5 99.7728H154.165C155.174 99.7728 156 98.9819 156 98.0155V79.1763C156 78.4013 155.344 77.7728 154.534 77.7728L6.86947 77.7728C5.86031 77.7728 5.03432 78.5637 5.03432 79.5308V98.3693C5.03432 99.1442 5.69073 99.7728 6.5 99.7728Z" fill="#5B607D" fill-opacity="0.501961"/>
<path opacity="0.5" fill-rule="evenodd" clip-rule="evenodd" d="M169.99 100H317.416C318.288 100 319 99.3744 319 98.6096V79.3912C319 78.6264 318.288 78 317.416 78H169.99C168.896 78 168 78.7866 168 79.7479V98.2522C168 99.2178 168.891 100 169.99 100Z" fill="#5B607D" fill-opacity="0.501961"/>
<path d="M236.11 88.4453C236.11 88.6663 236.07 88.876 235.99 89.0742C235.913 89.2702 235.805 89.4377 235.666 89.5767C235.49 89.7498 235.284 89.8809 235.047 89.9697C234.81 90.0586 234.51 90.103 234.148 90.103H233.574V92H232.897V86.9106H234.175C234.476 86.9106 234.732 86.9357 234.944 86.9858C235.156 87.036 235.343 87.1169 235.505 87.2285C235.694 87.3584 235.842 87.5236 235.949 87.7241C236.056 87.9224 236.11 88.1628 236.11 88.4453ZM235.406 88.4624C235.406 88.2869 235.375 88.1343 235.313 88.0044C235.254 87.8745 235.163 87.7686 235.04 87.6865C234.933 87.6159 234.808 87.5658 234.664 87.5361C234.523 87.5065 234.346 87.4917 234.134 87.4917H233.574V89.5254H234.035C234.309 89.5254 234.53 89.5037 234.698 89.4604C234.867 89.4149 235.007 89.3351 235.119 89.2212C235.219 89.1187 235.292 89.007 235.337 88.8862C235.383 88.7655 235.406 88.6242 235.406 88.4624ZM238.841 91.0601V90.0005C238.688 90.0142 238.494 90.0335 238.26 90.0586C238.027 90.0814 237.839 90.1144 237.696 90.1577C237.525 90.2101 237.384 90.291 237.272 90.4004C237.16 90.5075 237.104 90.6579 237.104 90.8516C237.104 91.0703 237.166 91.2355 237.289 91.3472C237.412 91.4588 237.592 91.5146 237.829 91.5146C238.032 91.5146 238.215 91.4714 238.379 91.3848C238.543 91.2959 238.697 91.1877 238.841 91.0601ZM238.841 91.5933C238.788 91.632 238.718 91.6867 238.629 91.7573C238.542 91.8257 238.458 91.8804 238.376 91.9214C238.262 91.9806 238.152 92.0262 238.044 92.0581C237.94 92.09 237.792 92.106 237.6 92.106C237.443 92.106 237.294 92.0763 237.152 92.0171C237.011 91.9578 236.887 91.8747 236.78 91.7676C236.677 91.6628 236.595 91.534 236.534 91.3813C236.472 91.2264 236.441 91.0635 236.441 90.8926C236.441 90.6283 236.497 90.4038 236.609 90.2192C236.721 90.0324 236.897 89.8843 237.139 89.7749C237.353 89.6769 237.606 89.6097 237.897 89.5732C238.189 89.5345 238.504 89.506 238.841 89.4878V89.3647C238.841 89.2144 238.818 89.0936 238.772 89.0024C238.727 88.909 238.663 88.8372 238.581 88.7871C238.499 88.7347 238.399 88.7005 238.28 88.6846C238.162 88.6663 238.04 88.6572 237.915 88.6572C237.766 88.6572 237.592 88.68 237.392 88.7256C237.191 88.7689 236.991 88.8327 236.79 88.917H236.752V88.2642C236.871 88.23 237.041 88.1924 237.262 88.1514C237.483 88.1104 237.701 88.0898 237.918 88.0898C238.18 88.0898 238.401 88.1104 238.581 88.1514C238.761 88.1924 238.923 88.2664 239.066 88.3735C239.205 88.4784 239.309 88.6139 239.377 88.7803C239.446 88.9466 239.48 89.1494 239.48 89.3887V92H238.841V91.5933ZM241.903 92.0854C241.641 92.0854 241.401 92.0456 241.182 91.9658C240.963 91.8838 240.775 91.7607 240.618 91.5967C240.461 91.4326 240.339 91.2264 240.252 90.978C240.166 90.7274 240.123 90.4334 240.123 90.0962C240.123 89.7612 240.167 89.4718 240.256 89.228C240.347 88.9842 240.468 88.7791 240.618 88.6128C240.769 88.4465 240.955 88.3188 241.179 88.23C241.404 88.1388 241.646 88.0933 241.903 88.0933C242.113 88.0933 242.315 88.1229 242.508 88.1821C242.704 88.2414 242.879 88.3097 243.031 88.3872V89.1084H242.994C242.948 89.0697 242.889 89.0252 242.816 88.9751C242.745 88.925 242.659 88.8737 242.556 88.8213C242.467 88.7757 242.362 88.7358 242.242 88.7017C242.121 88.6675 242.005 88.6504 241.893 88.6504C241.56 88.6504 241.293 88.7769 241.09 89.0298C240.889 89.2804 240.789 89.6359 240.789 90.0962C240.789 90.5474 240.886 90.8994 241.08 91.1523C241.276 91.403 241.547 91.5283 241.893 91.5283C242.103 91.5283 242.302 91.485 242.491 91.3984C242.68 91.3118 242.848 91.2002 242.994 91.0635H243.031V91.7847C242.967 91.8143 242.888 91.8507 242.792 91.894C242.696 91.9351 242.61 91.9658 242.532 91.9863C242.423 92.0182 242.325 92.0422 242.238 92.0581C242.152 92.0763 242.04 92.0854 241.903 92.0854ZM246.49 92H245.848V90.5098C245.647 90.5758 245.452 90.6271 245.263 90.6636C245.074 90.7 244.887 90.7183 244.703 90.7183C244.541 90.7183 244.382 90.6978 244.228 90.6567C244.075 90.6134 243.943 90.5439 243.831 90.4482C243.719 90.3525 243.633 90.2306 243.571 90.0825C243.512 89.9321 243.482 89.7555 243.482 89.5527V88.1821H244.125V89.2178C244.125 89.3864 244.132 89.5208 244.146 89.6211C244.159 89.7191 244.197 89.8148 244.258 89.9082C244.311 89.988 244.389 90.0495 244.494 90.0928C244.601 90.1361 244.741 90.1577 244.915 90.1577C245.065 90.1577 245.226 90.1429 245.396 90.1133C245.57 90.0837 245.72 90.0483 245.848 90.0073V88.1821H246.49V92ZM250.435 92H249.799V89.1528L248.001 92H247.42V88.1821H248.056V90.9849L249.833 88.1821H250.435V92ZM254.153 88.7461H252.854V92H252.212V88.7461H250.913V88.1821H254.153V88.7461ZM256.765 91.0601V90.0005C256.612 90.0142 256.418 90.0335 256.184 90.0586C255.951 90.0814 255.763 90.1144 255.62 90.1577C255.449 90.2101 255.307 90.291 255.196 90.4004C255.084 90.5075 255.028 90.6579 255.028 90.8516C255.028 91.0703 255.09 91.2355 255.213 91.3472C255.336 91.4588 255.516 91.5146 255.753 91.5146C255.956 91.5146 256.139 91.4714 256.303 91.3848C256.467 91.2959 256.621 91.1877 256.765 91.0601ZM256.765 91.5933C256.712 91.632 256.642 91.6867 256.553 91.7573C256.466 91.8257 256.382 91.8804 256.3 91.9214C256.186 91.9806 256.075 92.0262 255.968 92.0581C255.863 92.09 255.715 92.106 255.524 92.106C255.367 92.106 255.217 92.0763 255.076 92.0171C254.935 91.9578 254.811 91.8747 254.704 91.7676C254.601 91.6628 254.519 91.534 254.458 91.3813C254.396 91.2264 254.365 91.0635 254.365 90.8926C254.365 90.6283 254.421 90.4038 254.533 90.2192C254.644 90.0324 254.821 89.8843 255.062 89.7749C255.277 89.6769 255.53 89.6097 255.821 89.5732C256.113 89.5345 256.427 89.506 256.765 89.4878V89.3647C256.765 89.2144 256.742 89.0936 256.696 89.0024C256.651 88.909 256.587 88.8372 256.505 88.7871C256.423 88.7347 256.323 88.7005 256.204 88.6846C256.086 88.6663 255.964 88.6572 255.838 88.6572C255.69 88.6572 255.516 88.68 255.315 88.7256C255.115 88.7689 254.914 88.8327 254.714 88.917H254.676V88.2642C254.795 88.23 254.965 88.1924 255.186 88.1514C255.407 88.1104 255.625 88.0898 255.842 88.0898C256.104 88.0898 256.325 88.1104 256.505 88.1514C256.685 88.1924 256.847 88.2664 256.99 88.3735C257.129 88.4784 257.233 88.6139 257.301 88.7803C257.37 88.9466 257.404 89.1494 257.404 89.3887V92H256.765V91.5933ZM261.099 88.7461H259.8V92H259.157V88.7461H257.858V88.1821H261.099V88.7461ZM264.469 90.8174C264.469 91.002 264.431 91.1694 264.356 91.3198C264.283 91.4702 264.183 91.5921 264.055 91.6855C263.905 91.7995 263.744 91.8804 263.573 91.9282C263.402 91.9761 263.182 92 262.914 92H261.577V88.1821H262.22V89.6689H262.931C263.218 89.6689 263.44 89.6838 263.597 89.7134C263.757 89.743 263.915 89.8159 264.072 89.9321C264.204 90.0301 264.304 90.1554 264.37 90.3081C264.436 90.4608 264.469 90.6305 264.469 90.8174ZM263.806 90.8276C263.806 90.7114 263.785 90.61 263.744 90.5234C263.705 90.4346 263.64 90.3628 263.549 90.3081C263.454 90.2511 263.344 90.217 263.221 90.2056C263.1 90.1942 262.926 90.1885 262.698 90.1885H262.22V91.4873H262.685C262.912 91.4873 263.089 91.4782 263.214 91.46C263.34 91.4395 263.448 91.4019 263.539 91.3472C263.632 91.2879 263.7 91.2184 263.741 91.1387C263.784 91.0566 263.806 90.953 263.806 90.8276Z" fill="#8C99B2"/>
<path d="M52.2812 92H51.6079V87.96L49.3076 92H48.624V86.9106H49.2974V90.8857L51.5669 86.9106H52.2812V92ZM54.7798 92.0854C54.5177 92.0854 54.2773 92.0456 54.0586 91.9658C53.8398 91.8838 53.6519 91.7607 53.4946 91.5967C53.3374 91.4326 53.2155 91.2264 53.1289 90.978C53.0423 90.7274 52.999 90.4334 52.999 90.0962C52.999 89.7612 53.0435 89.4718 53.1323 89.228C53.2235 88.9842 53.3442 88.7791 53.4946 88.6128C53.645 88.4465 53.8319 88.3188 54.0552 88.23C54.2808 88.1388 54.5223 88.0933 54.7798 88.0933C54.9894 88.0933 55.1911 88.1229 55.3848 88.1821C55.5807 88.2414 55.755 88.3097 55.9077 88.3872V89.1084H55.8701C55.8245 89.0697 55.7653 89.0252 55.6924 88.9751C55.6217 88.925 55.5352 88.8737 55.4326 88.8213C55.3438 88.7757 55.2389 88.7358 55.1182 88.7017C54.9974 88.6675 54.8812 88.6504 54.7695 88.6504C54.4368 88.6504 54.1691 88.7769 53.9663 89.0298C53.7658 89.2804 53.6655 89.6359 53.6655 90.0962C53.6655 90.5474 53.7624 90.8994 53.9561 91.1523C54.152 91.403 54.4232 91.5283 54.7695 91.5283C54.9792 91.5283 55.1785 91.485 55.3677 91.3984C55.5568 91.3118 55.7243 91.2002 55.8701 91.0635H55.9077V91.7847C55.8439 91.8143 55.7642 91.8507 55.6685 91.894C55.5728 91.9351 55.4862 91.9658 55.4087 91.9863C55.2993 92.0182 55.2013 92.0422 55.1147 92.0581C55.0282 92.0763 54.9165 92.0854 54.7798 92.0854ZM59.4624 92H58.6729L57.7466 90.5576L56.793 92H56.0649L57.3911 90.1064L56.0786 88.1821H56.8682L57.7876 89.6108L58.731 88.1821H59.4624L58.1431 90.062L59.4624 92ZM63.1025 90.0928C63.1025 90.7354 62.9476 91.2321 62.6377 91.583C62.3278 91.9316 61.9154 92.106 61.4004 92.106C60.8695 92.106 60.4513 91.9259 60.146 91.5659C59.8429 91.2036 59.6914 90.7126 59.6914 90.0928C59.6914 89.4548 59.8475 88.9591 60.1597 88.606C60.4741 88.2528 60.8877 88.0762 61.4004 88.0762C61.9154 88.0762 62.3278 88.2528 62.6377 88.606C62.9476 88.9569 63.1025 89.4525 63.1025 90.0928ZM62.4395 90.0928C62.4395 89.5983 62.3494 89.2314 62.1694 88.9922C61.9894 88.7507 61.7331 88.6299 61.4004 88.6299C61.0654 88.6299 60.8068 88.7507 60.6245 88.9922C60.4445 89.2314 60.3545 89.5983 60.3545 90.0928C60.3545 90.5713 60.4445 90.9347 60.6245 91.1831C60.8068 91.4292 61.0654 91.5522 61.4004 91.5522C61.7308 91.5522 61.986 91.4315 62.166 91.1899C62.3483 90.9461 62.4395 90.5804 62.4395 90.0928ZM67.0366 92.916H66.4385V91.9897H63.9229V92.916H63.3247V91.4531H63.5776C63.7941 91.0977 63.9707 90.634 64.1074 90.062C64.2464 89.4878 64.3159 88.8612 64.3159 88.1821H66.6572V91.4531H67.0366V92.916ZM66.0146 91.4531V88.7222H64.9209C64.8913 89.2918 64.8127 89.8125 64.6851 90.2842C64.5597 90.7536 64.4014 91.1432 64.21 91.4531H66.0146ZM70.687 92H70.0444V90.2808H68.3149V92H67.6724V88.1821H68.3149V89.7271H70.0444V88.1821H70.687V92ZM74.4502 90.8174C74.4502 91.002 74.4126 91.1694 74.3374 91.3198C74.2645 91.4702 74.1642 91.5921 74.0366 91.6855C73.8862 91.7995 73.7256 91.8804 73.5547 91.9282C73.3838 91.9761 73.1639 92 72.895 92H71.6167V88.1821H72.2593V89.6689H72.9121C73.1992 89.6689 73.4214 89.6838 73.5786 89.7134C73.7381 89.743 73.8965 89.8159 74.0537 89.9321C74.1859 90.0301 74.285 90.1554 74.3511 90.3081C74.4172 90.4608 74.4502 90.6305 74.4502 90.8174ZM73.7871 90.8276C73.7871 90.7114 73.7666 90.61 73.7256 90.5234C73.6868 90.4346 73.6219 90.3628 73.5308 90.3081C73.4351 90.2511 73.3257 90.217 73.2026 90.2056C73.0819 90.1942 72.9076 90.1885 72.6797 90.1885H72.2593V91.4873H72.666C72.8939 91.4873 73.0705 91.4782 73.1958 91.46C73.3211 91.4395 73.4294 91.4019 73.5205 91.3472C73.6139 91.2879 73.6812 91.2184 73.7222 91.1387C73.7655 91.0566 73.7871 90.953 73.7871 90.8276ZM75.5371 92H74.8945V88.1821H75.5371V92ZM78.1279 92.0889C77.5195 92.0889 77.0467 91.918 76.7095 91.5762C76.3745 91.2321 76.207 90.7445 76.207 90.1133C76.207 89.4912 76.37 88.9967 76.6958 88.6299C77.0216 88.2607 77.4478 88.0762 77.9741 88.0762C78.2111 88.0762 78.4207 88.1104 78.603 88.1787C78.7853 88.2471 78.9448 88.3542 79.0815 88.5C79.2183 88.6458 79.3231 88.8247 79.396 89.0366C79.4689 89.2463 79.5054 89.5037 79.5054 89.8091V90.1577H76.8599C76.8599 90.6021 76.9715 90.9416 77.1948 91.1763C77.4181 91.411 77.7269 91.5283 78.1211 91.5283C78.2624 91.5283 78.4002 91.5124 78.5347 91.4805C78.6714 91.4486 78.7944 91.4076 78.9038 91.3574C79.02 91.305 79.118 91.2549 79.1978 91.207C79.2775 91.1569 79.3436 91.1102 79.396 91.0669H79.4336V91.7676C79.3584 91.7972 79.265 91.8348 79.1533 91.8804C79.0417 91.9237 78.9414 91.9578 78.8525 91.9829C78.7272 92.0171 78.6133 92.0433 78.5107 92.0615C78.4105 92.0798 78.2829 92.0889 78.1279 92.0889ZM78.8799 89.6655C78.8753 89.4924 78.8548 89.3431 78.8184 89.2178C78.7819 89.0924 78.7295 88.9865 78.6611 88.8999C78.5859 88.8042 78.4891 88.7313 78.3706 88.6812C78.2544 88.631 78.1097 88.606 77.9365 88.606C77.7656 88.606 77.6198 88.6322 77.499 88.6846C77.3805 88.7347 77.2723 88.8088 77.1743 88.9067C77.0786 89.007 77.0057 89.1187 76.9556 89.2417C76.9054 89.3625 76.8735 89.5037 76.8599 89.6655H78.8799ZM85.6167 92.916H85.0186V91.9897H82.5029V92.916H81.9048V91.4531H82.1577C82.3742 91.0977 82.5508 90.634 82.6875 90.062C82.8265 89.4878 82.896 88.8612 82.896 88.1821H85.2373V91.4531H85.6167V92.916ZM84.5947 91.4531V88.7222H83.501C83.4714 89.2918 83.3927 89.8125 83.2651 90.2842C83.1398 90.7536 82.9814 91.1432 82.79 91.4531H84.5947ZM88.3853 91.0601V90.0005C88.2326 90.0142 88.0389 90.0335 87.8042 90.0586C87.5718 90.0814 87.3838 90.1144 87.2402 90.1577C87.0693 90.2101 86.9281 90.291 86.8164 90.4004C86.7048 90.5075 86.6489 90.6579 86.6489 90.8516C86.6489 91.0703 86.7104 91.2355 86.8335 91.3472C86.9565 91.4588 87.1366 91.5146 87.3735 91.5146C87.5763 91.5146 87.7598 91.4714 87.9238 91.3848C88.0879 91.2959 88.2417 91.1877 88.3853 91.0601ZM88.3853 91.5933C88.3328 91.632 88.2622 91.6867 88.1733 91.7573C88.0868 91.8257 88.0024 91.8804 87.9204 91.9214C87.8065 91.9806 87.696 92.0262 87.5889 92.0581C87.484 92.09 87.3359 92.106 87.1445 92.106C86.9873 92.106 86.8381 92.0763 86.6968 92.0171C86.5555 91.9578 86.4313 91.8747 86.3242 91.7676C86.2217 91.6628 86.1396 91.534 86.0781 91.3813C86.0166 91.2264 85.9858 91.0635 85.9858 90.8926C85.9858 90.6283 86.0417 90.4038 86.1533 90.2192C86.265 90.0324 86.4416 89.8843 86.6831 89.7749C86.8973 89.6769 87.1502 89.6097 87.4419 89.5732C87.7336 89.5345 88.048 89.506 88.3853 89.4878V89.3647C88.3853 89.2144 88.3625 89.0936 88.3169 89.0024C88.2713 88.909 88.2075 88.8372 88.1255 88.7871C88.0435 88.7347 87.9432 88.7005 87.8247 88.6846C87.7062 88.6663 87.5843 88.6572 87.459 88.6572C87.3109 88.6572 87.1366 88.68 86.936 88.7256C86.7355 88.7689 86.535 88.8327 86.3345 88.917H86.2969V88.2642C86.4154 88.23 86.5851 88.1924 86.8062 88.1514C87.0272 88.1104 87.2459 88.0898 87.4624 88.0898C87.7244 88.0898 87.9455 88.1104 88.1255 88.1514C88.3055 88.1924 88.4673 88.2664 88.6108 88.3735C88.7498 88.4784 88.8535 88.6139 88.9219 88.7803C88.9902 88.9466 89.0244 89.1494 89.0244 89.3887V92H88.3853V91.5933ZM92.9448 92H92.3022V90.2808H90.5728V92H89.9302V88.1821H90.5728V89.7271H92.3022V88.1821H92.9448V92ZM96.8892 92H96.2466V90.2808H94.5171V92H93.8745V88.1821H94.5171V89.7271H96.2466V88.1821H96.8892V92ZM100.652 90.8174C100.652 91.002 100.615 91.1694 100.54 91.3198C100.467 91.4702 100.366 91.5921 100.239 91.6855C100.088 91.7995 99.9277 91.8804 99.7568 91.9282C99.5859 91.9761 99.366 92 99.0972 92H97.8188V88.1821H98.4614V89.6689H99.1143C99.4014 89.6689 99.6235 89.6838 99.7808 89.7134C99.9403 89.743 100.099 89.8159 100.256 89.9321C100.388 90.0301 100.487 90.1554 100.553 90.3081C100.619 90.4608 100.652 90.6305 100.652 90.8174ZM99.9893 90.8276C99.9893 90.7114 99.9688 90.61 99.9277 90.5234C99.889 90.4346 99.8241 90.3628 99.7329 90.3081C99.6372 90.2511 99.5278 90.217 99.4048 90.2056C99.284 90.1942 99.1097 90.1885 98.8818 90.1885H98.4614V91.4873H98.8682C99.096 91.4873 99.2726 91.4782 99.3979 91.46C99.5233 91.4395 99.6315 91.4019 99.7227 91.3472C99.8161 91.2879 99.8833 91.2184 99.9243 91.1387C99.9676 91.0566 99.9893 90.953 99.9893 90.8276ZM101.739 92H101.097V88.1821H101.739V92ZM104.33 92.0889C103.722 92.0889 103.249 91.918 102.912 91.5762C102.577 91.2321 102.409 90.7445 102.409 90.1133C102.409 89.4912 102.572 88.9967 102.898 88.6299C103.224 88.2607 103.65 88.0762 104.176 88.0762C104.413 88.0762 104.623 88.1104 104.805 88.1787C104.987 88.2471 105.147 88.3542 105.284 88.5C105.42 88.6458 105.525 88.8247 105.598 89.0366C105.671 89.2463 105.708 89.5037 105.708 89.8091V90.1577H103.062C103.062 90.6021 103.174 90.9416 103.397 91.1763C103.62 91.411 103.929 91.5283 104.323 91.5283C104.465 91.5283 104.602 91.5124 104.737 91.4805C104.874 91.4486 104.997 91.4076 105.106 91.3574C105.222 91.305 105.32 91.2549 105.4 91.207C105.48 91.1569 105.546 91.1102 105.598 91.0669H105.636V91.7676C105.561 91.7972 105.467 91.8348 105.355 91.8804C105.244 91.9237 105.144 91.9578 105.055 91.9829C104.929 92.0171 104.815 92.0433 104.713 92.0615C104.613 92.0798 104.485 92.0889 104.33 92.0889ZM105.082 89.6655C105.077 89.4924 105.057 89.3431 105.021 89.2178C104.984 89.0924 104.932 88.9865 104.863 88.8999C104.788 88.8042 104.691 88.7313 104.573 88.6812C104.457 88.631 104.312 88.606 104.139 88.606C103.968 88.606 103.822 88.6322 103.701 88.6846C103.583 88.7347 103.474 88.8088 103.376 88.9067C103.281 89.007 103.208 89.1187 103.158 89.2417C103.108 89.3625 103.076 89.5037 103.062 89.6655H105.082Z" fill="#8C99B2"/>
<path d="M15.5 17.7728L313.5 17.7728" stroke="#0089FF" stroke-width="1.56166" stroke-linecap="round" stroke-linejoin="round" stroke-dasharray="0.08 3.12"/>
<path fill-rule="evenodd" clip-rule="evenodd" d="M90.9214 17.2879C90.9214 15.9345 92.0177 14.8374 93.3703 14.8374C94.7223 14.8374 95.8193 15.9345 95.8193 17.2879C95.8193 18.6413 94.7223 19.7383 93.3703 19.7383C92.0177 19.7383 90.9214 18.6413 90.9214 17.2879Z" fill="#20222E" stroke="white" stroke-width="0.644176"/>
<path fill-rule="evenodd" clip-rule="evenodd" d="M160.258 17.2879C160.258 15.9345 161.354 14.8374 162.707 14.8374C164.06 14.8374 165.156 15.9345 165.156 17.2879C165.156 18.6413 164.06 19.7383 162.707 19.7383C161.354 19.7383 160.258 18.6413 160.258 17.2879Z" fill="#20222E" stroke="white" stroke-width="0.644172"/>
<path fill-rule="evenodd" clip-rule="evenodd" d="M229.596 17.2879C229.596 15.9345 230.692 14.8374 232.045 14.8374C233.397 14.8374 234.494 15.9345 234.494 17.2879C234.494 18.6413 233.397 19.7383 232.045 19.7383C230.692 19.7383 229.596 18.6413 229.596 17.2879Z" fill="#20222E" stroke="white" stroke-width="0.644172"/>
<path fill-rule="evenodd" clip-rule="evenodd" d="M314 17.2879C314 15.9345 315.096 14.8374 316.449 14.8374C317.802 14.8374 318.898 15.9345 318.898 17.2879C318.898 18.6413 317.802 19.7383 316.449 19.7383C315.096 19.7383 314 18.6413 314 17.2879Z" fill="#20222E" stroke="white" stroke-width="0.644172"/>
<g opacity="0.2">
<path fill-rule="evenodd" clip-rule="evenodd" d="M7.76086 18.2878C7.76086 15.2364 10.2334 12.7624 13.2826 12.7624C16.3324 12.7624 18.8042 15.2364 18.8042 18.2878C18.8042 21.3393 16.3324 23.8126 13.2826 23.8126C10.2334 23.8126 7.76086 21.3393 7.76086 18.2878Z" fill="#0089FF"/>
</g>
<g opacity="0.1">
<path fill-rule="evenodd" clip-rule="evenodd" d="M5 18.2878C5 13.7103 8.70802 10 13.2826 10C17.857 10 21.5658 13.7103 21.5658 18.2878C21.5658 22.8646 17.857 26.5749 13.2826 26.5749C8.70802 26.5749 5 22.8646 5 18.2878Z" fill="#0089FF"/>
</g>
<path fill-rule="evenodd" clip-rule="evenodd" d="M10.1611 18.2878C10.1611 16.5632 11.5587 15.1649 13.2826 15.1649C15.0065 15.1649 16.404 16.5632 16.404 18.2878C16.404 20.0125 15.0065 21.4108 13.2826 21.4108C11.5587 21.4108 10.1611 20.0125 10.1611 18.2878Z" fill="#0089FF" stroke="white" stroke-width="0.821023"/>
<path d="M32.2109 45.7728H31.5342V43.2811H29.1929V45.7728H28.5161V40.6834H29.1929V42.6795H31.5342V40.6834H32.2109V45.7728ZM36.2646 41.285H33.9233V45.7728H33.2466V40.6834H36.2646V41.285ZM40.0142 42.2181C40.0142 42.4391 39.9743 42.6487 39.8945 42.847C39.8171 43.0429 39.7088 43.2104 39.5698 43.3494C39.3944 43.5226 39.1882 43.6536 38.9512 43.7425C38.7142 43.8314 38.4146 43.8758 38.0522 43.8758H37.478V45.7728H36.8013V40.6834H38.0796C38.3804 40.6834 38.6367 40.7085 38.8486 40.7586C39.0605 40.8087 39.2474 40.8896 39.4092 41.0013C39.5983 41.1312 39.7464 41.2964 39.8535 41.4969C39.9606 41.6951 40.0142 41.9355 40.0142 42.2181ZM39.3101 42.2352C39.3101 42.0597 39.2793 41.907 39.2178 41.7772C39.1585 41.6473 39.0674 41.5413 38.9443 41.4593C38.8372 41.3887 38.7119 41.3385 38.5684 41.3089C38.4271 41.2793 38.2505 41.2645 38.0386 41.2645H37.478V43.2982H37.9395C38.2129 43.2982 38.4339 43.2765 38.6025 43.2332C38.7712 43.1876 38.9113 43.1079 39.0229 42.994C39.1232 42.8914 39.1961 42.7798 39.2417 42.659C39.2873 42.5382 39.3101 42.397 39.3101 42.2352ZM44.2183 40.6834L42.3726 44.9695C42.2951 45.1496 42.2074 45.2943 42.1094 45.4036C42.0137 45.513 41.9134 45.595 41.8086 45.6497C41.7038 45.7067 41.6001 45.7443 41.4976 45.7625C41.3973 45.7807 41.2959 45.7899 41.1934 45.7899C41.1022 45.7899 40.9951 45.7876 40.8721 45.783C40.749 45.7785 40.6704 45.775 40.6362 45.7728V45.1404H40.6841C40.7183 45.145 40.7695 45.1507 40.8379 45.1575C40.9085 45.1621 40.9974 45.1644 41.1045 45.1644C41.1546 45.1644 41.2139 45.1621 41.2822 45.1575C41.3506 45.1507 41.4132 45.1336 41.4702 45.1063C41.5363 45.0744 41.5978 45.0322 41.6548 44.9798C41.714 44.9251 41.7676 44.8397 41.8154 44.7234L41.9316 44.4534L40.144 40.6834H40.8926L42.2734 43.6776L43.521 40.6834H44.2183ZM48.0498 46.7982H44.1191V46.3538H48.0498V46.7982ZM51.4746 45.7728H50.8389V42.9256L49.041 45.7728H48.46V41.9549H49.0957V44.7576L50.873 41.9549H51.4746V45.7728ZM57.0767 43.8655C57.0767 44.5058 56.9217 45.0014 56.6118 45.3524C56.3042 45.7033 55.8963 45.8787 55.3882 45.8787C54.8892 45.8787 54.4927 45.7147 54.1987 45.3865C53.9071 45.0561 53.7476 44.6061 53.7202 44.0364H53.0469V45.7728H52.4043V41.9549H53.0469V43.5101H53.7339C53.7863 42.9905 53.9595 42.5838 54.2534 42.2899C54.5474 41.9959 54.9256 41.8489 55.3882 41.8489C55.9237 41.8489 56.3384 42.0312 56.6323 42.3958C56.9285 42.7604 57.0767 43.2503 57.0767 43.8655ZM56.4136 43.8655C56.4136 43.3779 56.3236 43.0122 56.1436 42.7684C55.9658 42.5246 55.714 42.4026 55.3882 42.4026C55.0578 42.4026 54.8026 42.5257 54.6226 42.7718C54.4448 43.0179 54.356 43.3825 54.356 43.8655C54.356 44.3441 54.446 44.7075 54.626 44.9559C54.806 45.202 55.0601 45.325 55.3882 45.325C55.714 45.325 55.9658 45.2054 56.1436 44.9661C56.3236 44.7246 56.4136 44.3577 56.4136 43.8655ZM60.751 45.7728H60.1084V44.0535H58.3789V45.7728H57.7363V41.9549H58.3789V43.4998H60.1084V41.9549H60.751V45.7728ZM64.5723 44.5901C64.5723 44.7747 64.5347 44.9422 64.4595 45.0926C64.3866 45.243 64.2863 45.3649 64.1587 45.4583C64.0083 45.5722 63.8477 45.6531 63.6768 45.701C63.5059 45.7488 63.286 45.7728 63.0171 45.7728H61.6807V41.9549H62.3232V43.4417H63.0342C63.3213 43.4417 63.5435 43.4565 63.7007 43.4861C63.8602 43.5158 64.0186 43.5887 64.1758 43.7049C64.3079 43.8029 64.4071 43.9282 64.4731 44.0809C64.5392 44.2335 64.5723 44.4033 64.5723 44.5901ZM63.9092 44.6004C63.9092 44.4842 63.8887 44.3828 63.8477 44.2962C63.8089 44.2073 63.744 44.1356 63.6528 44.0809C63.5571 44.0239 63.4478 43.9897 63.3247 43.9783C63.2039 43.9669 63.0296 43.9612 62.8018 43.9612H62.3232V45.2601H62.7881C63.016 45.2601 63.1925 45.251 63.3179 45.2327C63.4432 45.2122 63.5514 45.1746 63.6426 45.1199C63.736 45.0607 63.8032 44.9912 63.8442 44.9114C63.8875 44.8294 63.9092 44.7257 63.9092 44.6004ZM68.5986 46.7982H64.668V46.3538H68.5986V46.7982ZM72.0576 45.7728H68.9165V45.0584C69.1421 44.8442 69.3551 44.6391 69.5557 44.4432C69.7562 44.2472 69.9521 44.0433 70.1436 43.8314C70.5309 43.4053 70.7952 43.0646 70.9365 42.8094C71.0778 42.5519 71.1484 42.2864 71.1484 42.013C71.1484 41.8717 71.1257 41.7475 71.0801 41.6404C71.0368 41.5333 70.9764 41.4445 70.8989 41.3738C70.8192 41.3055 70.7269 41.2542 70.6221 41.22C70.5173 41.1859 70.4022 41.1688 70.2769 41.1688C70.1561 41.1688 70.033 41.1847 69.9077 41.2166C69.7847 41.2462 69.6662 41.2838 69.5522 41.3294C69.4565 41.3681 69.3643 41.4149 69.2754 41.4695C69.1865 41.5242 69.1147 41.5709 69.0601 41.6097H69.0225V40.8851C69.1637 40.8144 69.3597 40.7461 69.6104 40.68C69.8633 40.6116 70.1025 40.5775 70.3281 40.5775C70.8021 40.5775 71.1735 40.7039 71.4424 40.9568C71.7113 41.2075 71.8457 41.5482 71.8457 41.9788C71.8457 42.1771 71.8218 42.3605 71.7739 42.5291C71.7284 42.6977 71.6646 42.8538 71.5825 42.9974C71.4982 43.1455 71.3968 43.2925 71.2783 43.4383C71.1598 43.5841 71.0345 43.7277 70.9023 43.869C70.6882 44.1014 70.4489 44.3429 70.1846 44.5936C69.9225 44.8442 69.7129 45.0425 69.5557 45.1883H72.0576V45.7728ZM75.9028 43.2264C75.9028 44.1401 75.7695 44.8112 75.5029 45.2396C75.2386 45.6657 74.8296 45.8787 74.2759 45.8787C73.7153 45.8787 73.304 45.6611 73.042 45.2259C72.7799 44.7907 72.6489 44.1264 72.6489 43.2332C72.6489 42.3149 72.7811 41.6439 73.0454 41.22C73.312 40.7939 73.7222 40.5809 74.2759 40.5809C74.8364 40.5809 75.2477 40.8008 75.5098 41.2405C75.7718 41.6803 75.9028 42.3423 75.9028 43.2264ZM75.0278 44.7781C75.0939 44.6095 75.1406 44.3965 75.168 44.139C75.1953 43.8815 75.209 43.5773 75.209 43.2264C75.209 42.8777 75.1953 42.5747 75.168 42.3172C75.1406 42.0597 75.0928 41.8455 75.0244 41.6746C74.9561 41.5014 74.8615 41.3704 74.7407 41.2816C74.6222 41.1904 74.4673 41.1448 74.2759 41.1448C74.0868 41.1448 73.9307 41.1904 73.8076 41.2816C73.6868 41.3704 73.5911 41.5037 73.5205 41.6815C73.4521 41.8546 73.4054 42.0734 73.3804 42.3377C73.3553 42.602 73.3428 42.9005 73.3428 43.2332C73.3428 43.5887 73.353 43.886 73.3735 44.1253C73.3963 44.3646 73.4442 44.5788 73.5171 44.7679C73.5832 44.9433 73.6766 45.0789 73.7974 45.1746C73.9204 45.268 74.0799 45.3148 74.2759 45.3148C74.465 45.3148 74.62 45.2703 74.7407 45.1815C74.8638 45.0903 74.9595 44.9559 75.0278 44.7781ZM80.0625 46.7982H76.1318V46.3538H80.0625V46.7982ZM84.2871 45.7728H83.4258L81.6279 43.4417H81.2007V45.7728H80.5239V40.6834H81.2007V42.9769C81.4673 42.9678 81.6781 42.9005 81.833 42.7752C81.9902 42.6499 82.1178 42.4699 82.2158 42.2352C82.2568 42.1326 82.2933 42.0358 82.3252 41.9446C82.3594 41.8512 82.3867 41.7726 82.4072 41.7088C82.5439 41.3192 82.7183 41.0514 82.9302 40.9056C83.1421 40.7575 83.436 40.6834 83.812 40.6834H84.0205V41.2884H83.8496C83.5716 41.2884 83.3768 41.3431 83.2651 41.4525C83.1535 41.5595 83.0509 41.7635 82.9575 42.0643C82.8641 42.3651 82.7593 42.5861 82.6431 42.7274C82.5269 42.8664 82.3867 42.9894 82.2227 43.0965L84.2871 45.7728ZM87.6914 41.9549L85.6372 47.181H84.9502L85.6338 45.5882L84.2461 41.9549H84.9399L85.9824 44.7816L87.0215 41.9549H87.6914ZM91.1333 45.7728H90.4907V42.4949H89.1782C89.1714 42.6841 89.1646 42.8664 89.1577 43.0418C89.1509 43.215 89.144 43.3722 89.1372 43.5135C89.1235 43.8712 89.0996 44.1709 89.0654 44.4124C89.0335 44.654 88.9925 44.8476 88.9424 44.9935C88.8923 45.1439 88.8364 45.2612 88.7749 45.3455C88.7157 45.4298 88.6484 45.5062 88.5732 45.5745C88.4958 45.6429 88.4126 45.6942 88.3237 45.7283C88.2349 45.7625 88.1346 45.7796 88.0229 45.7796C87.9865 45.7796 87.9398 45.7785 87.8828 45.7762C87.8258 45.7739 87.786 45.7728 87.7632 45.7728V45.2122H87.7974C87.8133 45.2122 87.8293 45.2134 87.8452 45.2156C87.8634 45.2179 87.884 45.2191 87.9067 45.2191C87.9614 45.2191 88.015 45.2111 88.0674 45.1951C88.1198 45.1792 88.1665 45.1496 88.2075 45.1063C88.3215 44.9946 88.4046 44.7998 88.457 44.5218C88.5094 44.2415 88.547 43.8507 88.5698 43.3494C88.5789 43.1626 88.5869 42.9415 88.5938 42.6863C88.6029 42.4311 88.6108 42.1873 88.6177 41.9549H91.1333V45.7728ZM94.8315 45.7728H94.189V44.2586H93.5532L92.4219 45.7728H91.6733L92.9004 44.2005C92.5837 44.1071 92.3512 43.9681 92.2031 43.7835C92.0573 43.5989 91.9844 43.3517 91.9844 43.0418C91.9844 42.8527 92.0254 42.6875 92.1074 42.5462C92.1917 42.4026 92.3045 42.2819 92.4458 42.1839C92.5597 42.1064 92.7033 42.0495 92.8765 42.013C93.0496 41.9743 93.2433 41.9549 93.4575 41.9549H94.8315V45.7728ZM94.189 43.7527V42.4676H93.4917C93.3436 42.4676 93.2262 42.4756 93.1396 42.4915C93.0553 42.5075 92.9733 42.5382 92.8936 42.5838C92.8115 42.6339 92.7489 42.7023 92.7056 42.7889C92.6646 42.8732 92.644 42.9643 92.644 43.0623C92.644 43.1876 92.6577 43.2902 92.6851 43.3699C92.7147 43.4474 92.7671 43.5192 92.8423 43.5853C92.922 43.6536 93.0189 43.6992 93.1328 43.722C93.249 43.7425 93.3755 43.7527 93.5122 43.7527H94.189ZM100.283 45.7728H95.7646V41.9549H96.4072V45.2293H97.7026V41.9549H98.3452V45.2293H99.6406V41.9549H100.283V45.7728ZM104.354 43.8655C104.354 44.5081 104.199 45.0049 103.889 45.3558C103.579 45.7044 103.167 45.8787 102.652 45.8787C102.121 45.8787 101.703 45.6987 101.397 45.3387C101.094 44.9764 100.943 44.4853 100.943 43.8655C100.943 43.2275 101.099 42.7319 101.411 42.3787C101.726 42.0255 102.139 41.8489 102.652 41.8489C103.167 41.8489 103.579 42.0255 103.889 42.3787C104.199 42.7296 104.354 43.2252 104.354 43.8655ZM103.691 43.8655C103.691 43.3711 103.601 43.0042 103.421 42.765C103.241 42.5234 102.985 42.4026 102.652 42.4026C102.317 42.4026 102.058 42.5234 101.876 42.765C101.696 43.0042 101.606 43.3711 101.606 43.8655C101.606 44.3441 101.696 44.7075 101.876 44.9559C102.058 45.202 102.317 45.325 102.652 45.325C102.982 45.325 103.237 45.2042 103.417 44.9627C103.6 44.7189 103.691 44.3532 103.691 43.8655ZM108.008 44.6175C108.008 44.8021 107.972 44.9661 107.902 45.1097C107.831 45.251 107.734 45.3694 107.611 45.4651C107.456 45.5859 107.293 45.6679 107.123 45.7112C106.954 45.7523 106.751 45.7728 106.514 45.7728H105.014V41.9549H106.415C106.695 41.9549 106.9 41.964 107.03 41.9822C107.16 41.9982 107.289 42.0415 107.417 42.1121C107.551 42.185 107.65 42.2819 107.714 42.4026C107.778 42.5234 107.81 42.667 107.81 42.8333C107.81 43.0156 107.759 43.1797 107.659 43.3255C107.559 43.4691 107.426 43.5807 107.259 43.6605L107.276 43.6844C107.484 43.7368 107.657 43.8428 107.796 44.0023C107.937 44.1618 108.008 44.3668 108.008 44.6175ZM107.15 42.9324C107.15 42.8458 107.135 42.7707 107.105 42.7068C107.078 42.643 107.029 42.5929 106.958 42.5565C106.876 42.5132 106.784 42.4881 106.682 42.4813C106.581 42.4721 106.441 42.4676 106.261 42.4676H105.649V43.5135H106.388C106.545 43.5135 106.657 43.5067 106.723 43.493C106.789 43.477 106.862 43.4451 106.941 43.3973C107.017 43.3517 107.07 43.2902 107.102 43.2127C107.134 43.1352 107.15 43.0418 107.15 42.9324ZM107.345 44.6209C107.345 44.491 107.325 44.3873 107.287 44.3099C107.25 44.2301 107.168 44.1595 107.041 44.098C106.961 44.0592 106.875 44.0353 106.784 44.0262C106.693 44.0171 106.567 44.0125 106.405 44.0125H105.649V45.2601H106.207C106.437 45.2601 106.616 45.251 106.743 45.2327C106.871 45.2145 106.98 45.178 107.071 45.1234C107.167 45.0641 107.236 44.9957 107.28 44.9183C107.323 44.8408 107.345 44.7417 107.345 44.6209ZM112.096 46.7982H108.165V46.3538H112.096V46.7982ZM115.295 45.7728H112.813V45.2532H113.736V41.8421H112.813V41.3773C113.162 41.3773 113.418 41.3283 113.583 41.2303C113.749 41.13 113.842 40.942 113.863 40.6663H114.393V45.2532H115.295V45.7728ZM119.318 44.1526C119.318 44.3987 119.278 44.6266 119.198 44.8362C119.121 45.0459 119.011 45.227 118.87 45.3797C118.727 45.5346 118.548 45.6566 118.333 45.7454C118.122 45.8343 117.883 45.8787 117.619 45.8787C117.375 45.8787 117.135 45.8514 116.898 45.7967C116.663 45.7443 116.459 45.6748 116.286 45.5882V44.867H116.334C116.386 44.9057 116.462 44.9502 116.56 45.0003C116.658 45.0482 116.766 45.0937 116.884 45.137C117.019 45.1849 117.142 45.2225 117.253 45.2498C117.365 45.2749 117.49 45.2874 117.629 45.2874C117.766 45.2874 117.899 45.2635 118.029 45.2156C118.159 45.1655 118.271 45.0858 118.364 44.9764C118.449 44.8761 118.512 44.7588 118.556 44.6243C118.601 44.4899 118.624 44.3315 118.624 44.1492C118.624 43.9692 118.599 43.8211 118.549 43.7049C118.501 43.5887 118.43 43.493 118.337 43.4178C118.239 43.3312 118.118 43.2708 117.975 43.2366C117.833 43.2002 117.675 43.1819 117.5 43.1819C117.315 43.1819 117.129 43.1968 116.942 43.2264C116.756 43.2537 116.606 43.2799 116.495 43.305V40.6834H119.287V41.2816H117.154V42.6351C117.236 42.626 117.317 42.6191 117.397 42.6146C117.477 42.61 117.55 42.6077 117.616 42.6077C117.875 42.6077 118.095 42.6294 118.275 42.6727C118.455 42.716 118.629 42.8003 118.795 42.9256C118.964 43.0532 119.092 43.2127 119.181 43.4041C119.272 43.5955 119.318 43.845 119.318 44.1526ZM121.15 45.7728H120.333V44.7986H121.15V45.7728ZM125.34 43.2264C125.34 44.1401 125.207 44.8112 124.94 45.2396C124.676 45.6657 124.267 45.8787 123.713 45.8787C123.153 45.8787 122.742 45.6611 122.479 45.2259C122.217 44.7907 122.086 44.1264 122.086 43.2332C122.086 42.3149 122.219 41.6439 122.483 41.22C122.75 40.7939 123.16 40.5809 123.713 40.5809C124.274 40.5809 124.685 40.8008 124.947 41.2405C125.209 41.6803 125.34 42.3423 125.34 43.2264ZM124.465 44.7781C124.531 44.6095 124.578 44.3965 124.605 44.139C124.633 43.8815 124.646 43.5773 124.646 43.2264C124.646 42.8777 124.633 42.5747 124.605 42.3172C124.578 42.0597 124.53 41.8455 124.462 41.6746C124.394 41.5014 124.299 41.3704 124.178 41.2816C124.06 41.1904 123.905 41.1448 123.713 41.1448C123.524 41.1448 123.368 41.1904 123.245 41.2816C123.124 41.3704 123.029 41.5037 122.958 41.6815C122.89 41.8546 122.843 42.0734 122.818 42.3377C122.793 42.602 122.78 42.9005 122.78 43.2332C122.78 43.5887 122.791 43.886 122.811 44.1253C122.834 44.3646 122.882 44.5788 122.955 44.7679C123.021 44.9433 123.114 45.0789 123.235 45.1746C123.358 45.268 123.517 45.3148 123.713 45.3148C123.903 45.3148 124.057 45.2703 124.178 45.1815C124.301 45.0903 124.397 44.9559 124.465 44.7781ZM129.08 44.1526C129.08 44.3987 129.04 44.6266 128.96 44.8362C128.882 45.0459 128.773 45.227 128.632 45.3797C128.488 45.5346 128.309 45.6566 128.095 45.7454C127.883 45.8343 127.645 45.8787 127.381 45.8787C127.137 45.8787 126.897 45.8514 126.66 45.7967C126.425 45.7443 126.221 45.6748 126.048 45.5882V44.867H126.096C126.148 44.9057 126.223 44.9502 126.321 45.0003C126.419 45.0482 126.528 45.0937 126.646 45.137C126.78 45.1849 126.903 45.2225 127.015 45.2498C127.127 45.2749 127.252 45.2874 127.391 45.2874C127.528 45.2874 127.661 45.2635 127.791 45.2156C127.921 45.1655 128.033 45.0858 128.126 44.9764C128.21 44.8761 128.274 44.7588 128.317 44.6243C128.363 44.4899 128.386 44.3315 128.386 44.1492C128.386 43.9692 128.361 43.8211 128.311 43.7049C128.263 43.5887 128.192 43.493 128.099 43.4178C128.001 43.3312 127.88 43.2708 127.736 43.2366C127.595 43.2002 127.437 43.1819 127.261 43.1819C127.077 43.1819 126.891 43.1968 126.704 43.2264C126.517 43.2537 126.368 43.2799 126.256 43.305V40.6834H129.049V41.2816H126.916V42.6351C126.998 42.626 127.079 42.6191 127.159 42.6146C127.238 42.61 127.311 42.6077 127.377 42.6077C127.637 42.6077 127.857 42.6294 128.037 42.6727C128.217 42.716 128.39 42.8003 128.557 42.9256C128.725 43.0532 128.854 43.2127 128.943 43.4041C129.034 43.5955 129.08 43.845 129.08 44.1526ZM133.321 46.7982H129.391V46.3538H133.321V46.7982ZM136.521 45.7728H134.039V45.2532H134.962V41.8421H134.039V41.3773C134.388 41.3773 134.644 41.3283 134.808 41.2303C134.974 41.13 135.068 40.942 135.088 40.6663H135.618V45.2532H136.521V45.7728ZM138.834 41.1688C138.711 41.1688 138.588 41.1836 138.465 41.2132C138.342 41.2428 138.222 41.2816 138.103 41.3294C137.994 41.375 137.898 41.4228 137.816 41.473C137.736 41.5231 137.664 41.5698 137.601 41.6131H137.56V40.8919C137.708 40.8122 137.908 40.7404 138.161 40.6766C138.416 40.6105 138.659 40.5775 138.889 40.5775C139.119 40.5775 139.32 40.6014 139.491 40.6492C139.664 40.6948 139.82 40.7666 139.959 40.8646C140.109 40.9739 140.222 41.1061 140.297 41.261C140.375 41.416 140.414 41.5971 140.414 41.8045C140.414 42.0848 140.321 42.3309 140.137 42.5428C139.952 42.7547 139.731 42.8891 139.474 42.9461V42.994C139.581 43.0145 139.695 43.0498 139.815 43.0999C139.938 43.15 140.052 43.2241 140.157 43.3221C140.262 43.4201 140.347 43.5465 140.414 43.7015C140.48 43.8541 140.513 44.041 140.513 44.262C140.513 44.4922 140.473 44.7041 140.393 44.8978C140.316 45.0892 140.205 45.2589 140.062 45.407C139.913 45.562 139.735 45.6793 139.525 45.7591C139.315 45.8388 139.077 45.8787 138.811 45.8787C138.555 45.8787 138.302 45.848 138.052 45.7864C137.801 45.7249 137.59 45.6509 137.419 45.5643V44.8431H137.467C137.611 44.9479 137.803 45.0482 138.045 45.1439C138.286 45.2396 138.528 45.2874 138.77 45.2874C138.909 45.2874 139.048 45.2658 139.187 45.2225C139.328 45.1769 139.445 45.104 139.539 45.0037C139.63 44.9035 139.699 44.7929 139.747 44.6722C139.795 44.5514 139.819 44.3987 139.819 44.2142C139.819 44.0296 139.792 43.8781 139.737 43.7596C139.684 43.6411 139.61 43.5477 139.515 43.4793C139.419 43.4109 139.305 43.3642 139.173 43.3392C139.043 43.3118 138.902 43.2982 138.749 43.2982H138.458V42.7308H138.684C138.992 42.7308 139.241 42.6579 139.433 42.512C139.626 42.3662 139.723 42.1543 139.723 41.8763C139.723 41.7487 139.698 41.6393 139.648 41.5482C139.598 41.4547 139.534 41.3807 139.457 41.326C139.37 41.2667 139.274 41.2257 139.169 41.2029C139.065 41.1802 138.953 41.1688 138.834 41.1688ZM142.375 45.7728H141.559V44.7986H142.375V45.7728ZM146.675 44.0228H146.07V45.7728H145.414V44.0228H143.165V43.305L145.441 40.6834H146.07V43.4759H146.675V44.0228ZM145.414 43.4759V41.4866L143.698 43.4759H145.414ZM150.497 44.0228H149.892V45.7728H149.235V44.0228H146.986V43.305L149.263 40.6834H149.892V43.4759H150.497V44.0228ZM149.235 43.4759V41.4866L147.52 43.4759H149.235Z" fill="white"/>
<path fill-rule="evenodd" clip-rule="evenodd" d="M274.165 40.9205C274.385 40.7235 274.744 40.7235 274.964 40.9205L279 44.547L283.036 40.9205C283.256 40.7235 283.616 40.7235 283.835 40.9205C284.055 41.1182 284.055 41.4409 283.835 41.6386L279.4 45.6245C279.18 45.8222 278.82 45.8222 278.601 45.6245L274.165 41.6386C273.945 41.4409 273.945 41.1182 274.165 40.9205Z" fill="#616580"/>
<rect x="7" y="32.7728" width="2" height="23" rx="1" fill="#0089FF"/>
<path fill-rule="evenodd" clip-rule="evenodd" d="M311.004 41.3074L307.614 37.9181C307.537 37.842 307.435 37.7994 307.327 37.7994H302.84C302.198 37.7994 301.677 38.3213 301.677 38.9627V48.8086C301.677 49.4499 302.198 49.9718 302.84 49.9718H305.162C305.387 49.9718 305.568 49.7899 305.568 49.5663C305.568 49.3418 305.387 49.16 305.162 49.16H302.84C302.646 49.16 302.488 49.0025 302.488 48.8086V38.9627C302.488 38.7687 302.646 38.6112 302.84 38.6112H306.676V41.8406C306.676 42.0651 306.857 42.2461 307.081 42.2461H310.311V44.2896C310.311 44.514 310.492 44.6951 310.717 44.6951C310.94 44.6951 311.122 44.514 311.122 44.2896V41.5942C311.122 41.4869 311.08 41.3834 311.004 41.3074ZM307.486 38.9383L309.983 41.4352H307.486V38.9383Z" fill="#5B607D"/>
<path d="M310.262 46.8884H308.85V45.4764C308.85 45.2519 308.669 45.0701 308.444 45.0701C308.22 45.0701 308.039 45.2519 308.039 45.4764V46.8884H306.627C306.403 46.8884 306.221 47.0694 306.221 47.2938C306.221 47.5183 306.403 47.6993 306.627 47.6993H308.039V49.1113C308.039 49.3358 308.22 49.5176 308.444 49.5176C308.669 49.5176 308.85 49.3358 308.85 49.1113V47.6993H310.262C310.486 47.6993 310.668 47.5183 310.668 47.2938C310.668 47.0694 310.486 46.8884 310.262 46.8884Z" fill="#5B607D"/>
</svg>
