<svg id="b86def09-06ee-40ee-8757-092db496741c" data-name="1" xmlns="http://www.w3.org/2000/svg" viewBox="0 0 324 116.75"><defs><style>.aa53d191-1530-4aed-87b8-2ca7aa8b8d87,.b50553c6-ea30-4f6a-8a4e-9e52f3334cda{font-size:6.82px;}.aa53d191-1530-4aed-87b8-2ca7aa8b8d87,.b345fe9e-a4cd-445b-a28c-d811c3352c65,.e7e84fcf-a554-4443-8a8e-ca010c19288e{fill:#fff;}.a165fb69-d728-4398-a7c8-0ce755305ee0,.a9beba68-c729-4bbe-8e6d-6d683fe6470c,.aa53d191-1530-4aed-87b8-2ca7aa8b8d87,.b345fe9e-a4cd-445b-a28c-d811c3352c65,.b50553c6-ea30-4f6a-8a4e-9e52f3334cda,.b8ec1a25-9329-469f-8b04-4adeccd3b2fd,.e7e84fcf-a554-4443-8a8e-ca010c19288e,.f97cc470-18e9-4a0b-99ba-d6ae81d1a1d2{font-family:Tahoma;}.a9beba68-c729-4bbe-8e6d-6d683fe6470c,.b50553c6-ea30-4f6a-8a4e-9e52f3334cda,.b91da24e-41d5-4c3c-8245-cf6643186f7f{fill:#a2e2ff;}.a9beba68-c729-4bbe-8e6d-6d683fe6470c,.e7e84fcf-a554-4443-8a8e-ca010c19288e{font-size:10.23px;}.a165fb69-d728-4398-a7c8-0ce755305ee0,.f97cc470-18e9-4a0b-99ba-d6ae81d1a1d2{isolation:isolate;fill:#03a6a6;}.a165fb69-d728-4398-a7c8-0ce755305ee0{font-size:11.62px;}.b345fe9e-a4cd-445b-a28c-d811c3352c65{font-size:7.96px;}.a671b778-275b-4547-98fd-435b2c2e52f3,.af16240c-1bbd-4581-9513-29afbd701da3,.b8ec1a25-9329-469f-8b04-4adeccd3b2fd,.b90d68f0-ce4d-4eb4-8ac7-def1e1ae73db,.bd32d952-8674-4d65-a045-2f5737157f0d,.e3ecb8cc-3cb8-4f15-acf1-afbae27258b7{fill:none;}.a112c0fc-06e0-43c9-90cf-6297479193b5,.bd32d952-8674-4d65-a045-2f5737157f0d{stroke:#a2e2ff;}.bd32d952-8674-4d65-a045-2f5737157f0d{stroke-miterlimit:2.61;stroke-width:2px;}.a671b778-275b-4547-98fd-435b2c2e52f3,.af16240c-1bbd-4581-9513-29afbd701da3,.b90d68f0-ce4d-4eb4-8ac7-def1e1ae73db,.e3ecb8cc-3cb8-4f15-acf1-afbae27258b7,.fe09a11f-4b82-48ff-8f79-60da1015923d{stroke:#fff;}.a112c0fc-06e0-43c9-90cf-6297479193b5,.a671b778-275b-4547-98fd-435b2c2e52f3,.b90d68f0-ce4d-4eb4-8ac7-def1e1ae73db,.e3ecb8cc-3cb8-4f15-acf1-afbae27258b7,.fe09a11f-4b82-48ff-8f79-60da1015923d{stroke-miterlimit:10;}.a671b778-275b-4547-98fd-435b2c2e52f3,.b90d68f0-ce4d-4eb4-8ac7-def1e1ae73db,.e3ecb8cc-3cb8-4f15-acf1-afbae27258b7{stroke-width:1.18px;}.e3ecb8cc-3cb8-4f15-acf1-afbae27258b7{stroke-dasharray:3.45 3.45;}.b90d68f0-ce4d-4eb4-8ac7-def1e1ae73db{stroke-dasharray:3.47 3.47;}.a112c0fc-06e0-43c9-90cf-6297479193b5,.fe09a11f-4b82-48ff-8f79-60da1015923d{fill:#0d1014;stroke-width:1.27px;}.bf95d494-9f76-4e22-a375-2e4fe0fd1e09{opacity:0.6;}.b8ec1a25-9329-469f-8b04-4adeccd3b2fd,.f97cc470-18e9-4a0b-99ba-d6ae81d1a1d2{font-size:10.77px;}.b8ec1a25-9329-469f-8b04-4adeccd3b2fd{stroke:#0d1014;stroke-miterlimit:2.61;stroke-width:7.42px;}.af16240c-1bbd-4581-9513-29afbd701da3{stroke-linecap:round;stroke-linejoin:round;stroke-width:1.25px;}.fed282c4-5d1e-4bfe-b95b-3df518d1ed86{fill:#f9f9f9;}</style></defs><title>Недостающий виджет-32</title><text class="aa53d191-1530-4aed-87b8-2ca7aa8b8d87" transform="translate(196.88 80.85) scale(0.99 1)">Факт</text><text class="b50553c6-ea30-4f6a-8a4e-9e52f3334cda" transform="translate(196.88 67.06) scale(0.99 1)">План</text><rect class="b91da24e-41d5-4c3c-8245-cf6643186f7f" x="281.64" y="51.93" width="34.89" height="1.23"/><text class="a9beba68-c729-4bbe-8e6d-6d683fe6470c" transform="translate(281.64 67.06)">0,1408</text><text class="e7e84fcf-a554-4443-8a8e-ca010c19288e" transform="translate(281.64 80.85)">0,1398</text><text class="b50553c6-ea30-4f6a-8a4e-9e52f3334cda" transform="translate(281.64 47.98) scale(0.99 1)">Пр-во 2</text><rect class="b91da24e-41d5-4c3c-8245-cf6643186f7f" x="224.35" y="51.93" width="34.89" height="1.23"/><text class="a9beba68-c729-4bbe-8e6d-6d683fe6470c" transform="translate(224.35 67.06)">0,0215</text><text class="e7e84fcf-a554-4443-8a8e-ca010c19288e" transform="translate(224.35 80.85)">0,0213</text><text class="b50553c6-ea30-4f6a-8a4e-9e52f3334cda" transform="translate(224.35 47.98) scale(0.99 1)">Пр-во 1</text><text class="a165fb69-d728-4398-a7c8-0ce755305ee0" transform="translate(309.37 41.8)"><tspan xml:space="preserve">  </tspan></text><text class="b345fe9e-a4cd-445b-a28c-d811c3352c65" transform="translate(8.56 31.69)">97%</text><text class="b345fe9e-a4cd-445b-a28c-d811c3352c65" transform="translate(157.58 31.69)">103%</text><path class="bd32d952-8674-4d65-a045-2f5737157f0d" d="M141.64,35.47a80.2,80.2,0,0,0-129.8,63"/><path class="bd32d952-8674-4d65-a045-2f5737157f0d" d="M92,40.21A58.28,58.28,0,0,0,33.76,98.49"/><path class="bd32d952-8674-4d65-a045-2f5737157f0d" d="M92,51A47.44,47.44,0,0,0,44.59,98.49"/><line class="a671b778-275b-4547-98fd-435b2c2e52f3" x1="122.9" y1="67.7" x2="124.15" y2="66.45"/><line class="e3ecb8cc-3cb8-4f15-acf1-afbae27258b7" x1="126.59" y1="64.01" x2="149.76" y2="40.85"/><line class="a671b778-275b-4547-98fd-435b2c2e52f3" x1="150.98" y1="39.63" x2="152.23" y2="38.38"/><line class="a671b778-275b-4547-98fd-435b2c2e52f3" x1="61.14" y1="67.7" x2="59.89" y2="66.45"/><line class="b90d68f0-ce4d-4eb4-8ac7-def1e1ae73db" x1="57.44" y1="64" x2="34.14" y2="40.7"/><line class="a671b778-275b-4547-98fd-435b2c2e52f3" x1="32.92" y1="39.48" x2="31.67" y2="38.23"/><circle class="fe09a11f-4b82-48ff-8f79-60da1015923d" cx="122.25" cy="68.31" r="1.42"/><circle class="fe09a11f-4b82-48ff-8f79-60da1015923d" cx="62.16" cy="68.31" r="1.42"/><circle class="fe09a11f-4b82-48ff-8f79-60da1015923d" cx="152.23" cy="38.38" r="1.42"/><circle class="fe09a11f-4b82-48ff-8f79-60da1015923d" cx="31.67" cy="38.38" r="1.42"/><circle class="a112c0fc-06e0-43c9-90cf-6297479193b5" cx="92.71" cy="51.23" r="2.15"/><circle class="a112c0fc-06e0-43c9-90cf-6297479193b5" cx="92.71" cy="40.21" r="2.15"/><path class="bd32d952-8674-4d65-a045-2f5737157f0d" d="M92,29.39a69.1,69.1,0,0,0-69.1,69.1"/><g class="bf95d494-9f76-4e22-a375-2e4fe0fd1e09"><text class="b8ec1a25-9329-469f-8b04-4adeccd3b2fd" transform="translate(123.31 104.41)"><tspan xml:space="preserve">  </tspan></text></g><text class="f97cc470-18e9-4a0b-99ba-d6ae81d1a1d2" transform="translate(90.2 104.41)"><tspan xml:space="preserve">  </tspan></text><circle class="a112c0fc-06e0-43c9-90cf-6297479193b5" cx="92.71" cy="29.19" r="2.15"/><circle class="a112c0fc-06e0-43c9-90cf-6297479193b5" cx="141.64" cy="35.23" r="2.15"/><path class="af16240c-1bbd-4581-9513-29afbd701da3" d="M92.35,84.75h.35"/><path class="af16240c-1bbd-4581-9513-29afbd701da3" d="M96,85c2.71.33,4.56,1,4.56,1.75,0,1.08-3.82,2-8.53,2s-8.52-.89-8.52-2c0-.76,1.84-1.42,4.55-1.75"/><path class="fed282c4-5d1e-4bfe-b95b-3df518d1ed86" d="M92.18,72.2s2.57,2.64-1.07,6.52c-5,5.31,1.1,8.46,1.1,8.46s-3.5-3,.48-7.49C96.23,75.72,93.81,73.31,92.18,72.2Z"/><path class="fed282c4-5d1e-4bfe-b95b-3df518d1ed86" d="M90.65,72.74s.64,2.13-1.87,4.15c-3.75,3-1,5.8-1,5.8s-1.44-2.59,1.71-4.89C92.31,75.75,91.38,73.74,90.65,72.74Z"/><path class="fed282c4-5d1e-4bfe-b95b-3df518d1ed86" d="M96.18,75.84s1,2-1.41,4.1c-3.63,3.2-.26,5.6-.26,5.6s-1.85-2.35,1.14-4.8C98.32,78.56,97.07,76.73,96.18,75.84Z"/></svg>