<svg id="fb4133ba-e712-4a59-be05-1583f9f4c718" data-name="1" xmlns="http://www.w3.org/2000/svg" xmlns:xlink="http://www.w3.org/1999/xlink" viewBox="0 0 324 116.75"><defs><style>.a2be7f11-3e5c-4c2d-92d1-aef08301a038{fill:#fcfcff;}.e81a2c95-827a-4491-8001-9a3fc686b001{fill:#ffa300;fill-rule:evenodd;}.ae5f5108-b64b-4537-8c10-54a5a1ee959e{fill:url(#be8c4982-d291-4974-8856-9df42ec36b52);}.ed44cdd3-a98d-4a2a-a44b-0e0738efce96{opacity:0.1;}.f3d199ec-e07a-4bc3-a252-0065f96f8df7{fill:#5b6481;}.b8cc1c5e-6a14-41a0-b1fa-99a43314bca1{fill:#5c6581;}.b63fd26e-17ab-414f-adca-ba03835e69ca{fill:#fff;}.ffe68ac9-0924-4a7e-8663-a7f815ef0f04{fill:#00b4fa;}.b3ef8931-d5de-4210-9d25-e77a3952eb0c{fill:#8799b3;}.b211d927-8901-4953-b868-33f11eb521f6{fill:#58607f;}</style><linearGradient id="be8c4982-d291-4974-8856-9df42ec36b52" x1="-11225.62" y1="-236.66" x2="-11225.62" y2="-223.08" gradientTransform="matrix(0, 1, -12.08, 0, -2687.96, 11235.44)" gradientUnits="userSpaceOnUse"><stop offset="0" stop-color="#00a8f5"/><stop offset="0" stop-color="#00a8f5" stop-opacity="0.99"/><stop offset="0.04" stop-color="#00a8f5" stop-opacity="0.81"/><stop offset="0.09" stop-color="#00a8f5" stop-opacity="0.64"/><stop offset="0.13" stop-color="#00a8f5" stop-opacity="0.49"/><stop offset="0.19" stop-color="#00a8f5" stop-opacity="0.35"/><stop offset="0.25" stop-color="#00a8f5" stop-opacity="0.24"/><stop offset="0.31" stop-color="#00a8f5" stop-opacity="0.15"/><stop offset="0.39" stop-color="#00a8f5" stop-opacity="0.08"/><stop offset="0.49" stop-color="#00a8f5" stop-opacity="0.04"/><stop offset="0.62" stop-color="#00a8f5" stop-opacity="0.01"/><stop offset="1" stop-color="#00a8f5" stop-opacity="0"/></linearGradient></defs><title>Макеты (5)</title><path class="a2be7f11-3e5c-4c2d-92d1-aef08301a038" d="M29.64,12.12h-.41V11.3H27.07v.82h-.42V10.89h.18a5,5,0,0,0,.47-1.35,8.54,8.54,0,0,0,.18-1.81h1.85v3.16h.31Zm-.75-1.23V8.14h-1a8.31,8.31,0,0,1-.2,1.58,4.64,4.64,0,0,1-.43,1.17Z"/><path class="a2be7f11-3e5c-4c2d-92d1-aef08301a038" d="M31.12,11.37a1.2,1.2,0,0,1-.93-.36,1.48,1.48,0,0,1-.32-1,1.57,1.57,0,0,1,.31-1A1.05,1.05,0,0,1,31,8.55a1.07,1.07,0,0,1,.41.07.84.84,0,0,1,.31.22,1.17,1.17,0,0,1,.21.38,2.11,2.11,0,0,1,.07.55V10H30.29a1.05,1.05,0,0,0,.22.72.79.79,0,0,0,.6.25.86.86,0,0,0,.28,0l.24-.08.19-.11.13-.1h0v.5l-.18.07a1,1,0,0,1-.2.08l-.22,0A.94.94,0,0,1,31.12,11.37Zm.49-1.7a1.39,1.39,0,0,0,0-.32.64.64,0,0,0-.1-.22A.49.49,0,0,0,31.28,9,.79.79,0,0,0,31,8.92a.78.78,0,0,0-.28.05.65.65,0,0,0-.21.16.75.75,0,0,0-.15.24,1.13,1.13,0,0,0-.06.3Z"/><path class="a2be7f11-3e5c-4c2d-92d1-aef08301a038" d="M35.47,9.89a2.49,2.49,0,0,1-.08.64,1.35,1.35,0,0,1-.22.45,1.13,1.13,0,0,1-.3.28.8.8,0,0,1-.36.09.49.49,0,0,1-.25-.06l-.18-.1V12.3h-.41V11.19l-.21.12a.78.78,0,0,1-.26,0,.77.77,0,0,1-.67-.37,1.73,1.73,0,0,1-.25-1,1.9,1.9,0,0,1,.08-.6,1.35,1.35,0,0,1,.22-.45.83.83,0,0,1,.3-.26.64.64,0,0,1,.35-.1.6.6,0,0,1,.24,0l.2.11V7.56h.41V8.72a1.23,1.23,0,0,1,.23-.11.76.76,0,0,1,.92.31A1.74,1.74,0,0,1,35.47,9.89Zm-1.8,1V9.05L33.51,9a.57.57,0,0,0-.18,0,.55.55,0,0,0-.46.24,1.41,1.41,0,0,0-.16.76,1.54,1.54,0,0,0,.15.74.47.47,0,0,0,.43.27.45.45,0,0,0,.2,0ZM35,9.94a1.62,1.62,0,0,0-.14-.72A.47.47,0,0,0,34.47,9a.6.6,0,0,0-.2,0l-.19.07v1.8l.16.08a.42.42,0,0,0,.18,0,.53.53,0,0,0,.46-.26A1.41,1.41,0,0,0,35,9.94Z"/><path class="a2be7f11-3e5c-4c2d-92d1-aef08301a038" d="M37.88,11.31h-.41v-2l-1.18,2h-.38V8.62h.42v2l1.16-2h.39Z"/><path class="a2be7f11-3e5c-4c2d-92d1-aef08301a038" d="M40.69,12H40.3v-.64H38.49V8.62h.42v2.3H40V8.62h.42v2.3h.25Z"/><path class="a2be7f11-3e5c-4c2d-92d1-aef08301a038" d="M43.07,11.31h-.42v-2l-1.17,2H41.1V8.62h.41v2l1.16-2h.4Z"/><path class="a2be7f11-3e5c-4c2d-92d1-aef08301a038" d="M45.49,9h-.84v2.29h-.42V9h-.85v-.4h2.11Z"/><path class="a2be7f11-3e5c-4c2d-92d1-aef08301a038" d="M49.2,11.31h-.42V9H47.65v2.3h-.42V8.62h2Z"/><path class="a2be7f11-3e5c-4c2d-92d1-aef08301a038" d="M51.86,10a1.59,1.59,0,0,1-.3,1,1,1,0,0,1-.81.37,1,1,0,0,1-.82-.38,1.62,1.62,0,0,1-.3-1,1.58,1.58,0,0,1,.31-1.05,1,1,0,0,1,.81-.37,1,1,0,0,1,.81.37A1.64,1.64,0,0,1,51.86,10Zm-.43,0a1.36,1.36,0,0,0-.18-.78.57.57,0,0,0-.5-.25.58.58,0,0,0-.51.25,1.37,1.37,0,0,0-.17.78,1.34,1.34,0,0,0,.17.76.57.57,0,0,0,.51.26.58.58,0,0,0,.5-.25A1.35,1.35,0,0,0,51.43,10Z"/><path class="a2be7f11-3e5c-4c2d-92d1-aef08301a038" d="M54.22,11.31H53.8V9h-.86c0,.13,0,.26,0,.38s0,.24,0,.34,0,.46-.05.63a2.47,2.47,0,0,1-.08.41.84.84,0,0,1-.11.25,1,1,0,0,1-.13.16.76.76,0,0,1-.16.11.64.64,0,0,1-.2,0H52v-.4h.09l.11,0,.09-.06a.83.83,0,0,0,.16-.41,6.45,6.45,0,0,0,.08-.83c0-.13,0-.28,0-.46s0-.36,0-.52h1.64Z"/><path class="a2be7f11-3e5c-4c2d-92d1-aef08301a038" d="M55.91,11.37A1.2,1.2,0,0,1,55,11a1.48,1.48,0,0,1-.33-1,1.58,1.58,0,0,1,.32-1,1,1,0,0,1,.84-.39,1.07,1.07,0,0,1,.41.07.84.84,0,0,1,.31.22,1.17,1.17,0,0,1,.21.38,2.11,2.11,0,0,1,.07.55V10H55.08a1.05,1.05,0,0,0,.22.72.78.78,0,0,0,.6.25.77.77,0,0,0,.27,0l.24-.08.2-.11.13-.1h0v.5l-.18.07-.2.08-.22,0A.94.94,0,0,1,55.91,11.37Zm.49-1.7a1.39,1.39,0,0,0,0-.32.9.9,0,0,0-.1-.22A.58.58,0,0,0,56.07,9a.79.79,0,0,0-.29-.05A.78.78,0,0,0,55.5,9a.65.65,0,0,0-.21.16.75.75,0,0,0-.15.24,1.13,1.13,0,0,0-.06.3Z"/><path class="a2be7f11-3e5c-4c2d-92d1-aef08301a038" d="M58.88,10.57a.76.76,0,0,1-.09.38.92.92,0,0,1-.23.25,1.2,1.2,0,0,1-.31.13,1.45,1.45,0,0,1-.35,0,2.34,2.34,0,0,1-.47,0,1.54,1.54,0,0,1-.43-.17v-.5h0a.83.83,0,0,0,.38.24,1.2,1.2,0,0,0,.45.09l.21,0a.69.69,0,0,0,.19-.07.53.53,0,0,0,.15-.15.56.56,0,0,0,0-.44.33.33,0,0,0-.13-.13.66.66,0,0,0-.2-.06h-.52V9.71H58a.87.87,0,0,0,.21,0,.42.42,0,0,0,.15-.11.38.38,0,0,0,.06-.24.36.36,0,0,0,0-.19A.32.32,0,0,0,58.23,9,.49.49,0,0,0,58.06,9l-.17,0a1.14,1.14,0,0,0-.41.07.78.78,0,0,0-.33.19h0V8.71l.36-.11a1.72,1.72,0,0,1,.39,0l.32,0a.91.91,0,0,1,.31.12.63.63,0,0,1,.23.23.56.56,0,0,1,.1.35.64.64,0,0,1-.12.38.52.52,0,0,1-.3.22h0a.84.84,0,0,1,.34.24A.65.65,0,0,1,58.88,10.57Z"/><path class="a2be7f11-3e5c-4c2d-92d1-aef08301a038" d="M61.29,11.31h-.42V10.1H59.74v1.21h-.42V8.62h.42V9.71h1.13V8.62h.42Z"/><path class="a2be7f11-3e5c-4c2d-92d1-aef08301a038" d="M63.94,10a1.59,1.59,0,0,1-.3,1A1.07,1.07,0,0,1,62,11a1.68,1.68,0,0,1-.29-1A1.64,1.64,0,0,1,62,8.92a1,1,0,0,1,.81-.37,1,1,0,0,1,.81.37A1.64,1.64,0,0,1,63.94,10Zm-.43,0a1.36,1.36,0,0,0-.18-.78.55.55,0,0,0-.5-.25.57.57,0,0,0-.5.25,1.36,1.36,0,0,0-.18.78,1.33,1.33,0,0,0,.18.76.62.62,0,0,0,1,0A1.35,1.35,0,0,0,63.51,10Z"/><path class="a2be7f11-3e5c-4c2d-92d1-aef08301a038" d="M66.34,11.31h-.41v-2l-1.18,2h-.38V8.62h.42v2l1.16-2h.39Zm-.19-3.94a1.48,1.48,0,0,1,0,.38A.74.74,0,0,1,66,8a.69.69,0,0,1-.22.2.81.81,0,0,1-.33.06.66.66,0,0,1-.32-.07A.53.53,0,0,1,64.87,8a.82.82,0,0,1-.14-.28,1.52,1.52,0,0,1,0-.38h.37a.93.93,0,0,0,.09.47.3.3,0,0,0,.28.14.29.29,0,0,0,.27-.14.8.8,0,0,0,.1-.47Z"/><path class="a2be7f11-3e5c-4c2d-92d1-aef08301a038" d="M70.33,10.5a.74.74,0,0,1-.07.34.79.79,0,0,1-.19.25.77.77,0,0,1-.32.17,1.5,1.5,0,0,1-.4.05h-1V8.62h.91l.4,0a.58.58,0,0,1,.25.09.45.45,0,0,1,.2.21.67.67,0,0,1,.06.3.62.62,0,0,1-.1.35.58.58,0,0,1-.26.23v0a.65.65,0,0,1,.34.22A.68.68,0,0,1,70.33,10.5Zm-.56-1.19a.41.41,0,0,0,0-.16A.31.31,0,0,0,69.65,9a.61.61,0,0,0-.18,0h-.68v.74h.48l.22,0,.14-.06a.33.33,0,0,0,.11-.13A.6.6,0,0,0,69.77,9.31Zm.13,1.19a.62.62,0,0,0,0-.22.3.3,0,0,0-.16-.15.48.48,0,0,0-.17-.05h-.74V11h.36l.35,0a.48.48,0,0,0,.22-.08.47.47,0,0,0,.14-.14A.65.65,0,0,0,69.9,10.5Z"/><path class="a2be7f11-3e5c-4c2d-92d1-aef08301a038" d="M73.08,11.31h-.41V9.2l-.6,1.37h-.31l-.6-1.37v2.11h-.39V8.62h.51l.65,1.49.64-1.49h.51Z"/><path class="a2be7f11-3e5c-4c2d-92d1-aef08301a038" d="M74.77,11.37a1.18,1.18,0,0,1-.92-.36,1.48,1.48,0,0,1-.33-1,1.52,1.52,0,0,1,.32-1,1,1,0,0,1,.83-.39,1,1,0,0,1,.41.07.77.77,0,0,1,.31.22,1.17,1.17,0,0,1,.21.38,1.75,1.75,0,0,1,.07.55V10H73.94a1.1,1.1,0,0,0,.22.72.8.8,0,0,0,.61.25.84.84,0,0,0,.27,0l.24-.08.19-.11.13-.1h0v.5l-.18.07a1,1,0,0,1-.2.08l-.22,0A.9.9,0,0,1,74.77,11.37Zm.49-1.7a1,1,0,0,0,0-.32.64.64,0,0,0-.1-.22A.49.49,0,0,0,74.93,9a.78.78,0,0,0-.28-.05.84.84,0,0,0-.29.05.65.65,0,0,0-.21.16.72.72,0,0,0-.14.24.83.83,0,0,0-.07.3Z"/><path class="a2be7f11-3e5c-4c2d-92d1-aef08301a038" d="M77.09,11.37a1.24,1.24,0,0,1-.48-.09.83.83,0,0,1-.36-.26,1,1,0,0,1-.24-.43,1.93,1.93,0,0,1-.09-.62A1.82,1.82,0,0,1,76,9.36a1.43,1.43,0,0,1,.24-.44,1.1,1.1,0,0,1,.36-.27,1.28,1.28,0,0,1,.48-.09,1.32,1.32,0,0,1,.39.06,1.52,1.52,0,0,1,.34.15v.5h0l-.12-.09-.17-.11L77.31,9a.66.66,0,0,0-.23,0,.61.61,0,0,0-.52.27,1.16,1.16,0,0,0-.2.75,1.23,1.23,0,0,0,.19.74.61.61,0,0,0,.53.27.86.86,0,0,0,.39-.09,1.55,1.55,0,0,0,.33-.24h0v.51l-.15.07-.17.07-.2,0Z"/><path class="a2be7f11-3e5c-4c2d-92d1-aef08301a038" d="M80,9h-.84v2.29h-.42V9h-.85v-.4H80Z"/><path class="a2be7f11-3e5c-4c2d-92d1-aef08301a038" d="M82.3,11.31h-.41v-2l-1.18,2h-.37V8.62h.41v2l1.16-2h.39Z"/><path class="a2be7f11-3e5c-4c2d-92d1-aef08301a038" d="M85.22,11.31h-.41V9.2l-.6,1.37H83.9L83.3,9.2v2.11h-.39V8.62h.51l.65,1.49.64-1.49h.51Z"/><path class="a2be7f11-3e5c-4c2d-92d1-aef08301a038" d="M87.88,10a1.54,1.54,0,0,1-.31,1A1.06,1.06,0,0,1,86,11a1.62,1.62,0,0,1-.3-1A1.58,1.58,0,0,1,86,8.92a1.06,1.06,0,0,1,1.61,0A1.58,1.58,0,0,1,87.88,10Zm-.43,0a1.36,1.36,0,0,0-.18-.78.64.64,0,0,0-1,0,1.36,1.36,0,0,0-.18.78,1.33,1.33,0,0,0,.18.76.57.57,0,0,0,.51.26.58.58,0,0,0,.5-.25A1.35,1.35,0,0,0,87.45,10Z"/><path class="a2be7f11-3e5c-4c2d-92d1-aef08301a038" d="M89.3,11.37a1.19,1.19,0,0,1-.47-.09.86.86,0,0,1-.37-.26,1.27,1.27,0,0,1-.24-.43,1.94,1.94,0,0,1-.08-.62,2.15,2.15,0,0,1,.08-.61,1.43,1.43,0,0,1,.24-.44,1.14,1.14,0,0,1,.37-.27,1.19,1.19,0,0,1,.47-.09,1.23,1.23,0,0,1,.39.06,1.34,1.34,0,0,1,.34.15v.5h0l-.11-.09-.18-.11a.76.76,0,0,0-.2-.08.66.66,0,0,0-.23,0,.61.61,0,0,0-.52.27,1.22,1.22,0,0,0-.2.75,1.3,1.3,0,0,0,.19.74.62.62,0,0,0,.53.27.86.86,0,0,0,.39-.09,1.17,1.17,0,0,0,.33-.24h0v.51l-.15.07-.17.07-.19,0Z"/><path class="a2be7f11-3e5c-4c2d-92d1-aef08301a038" d="M92.24,9h-.85v2.29H91V9h-.85v-.4h2.12Z"/><path class="a2be7f11-3e5c-4c2d-92d1-aef08301a038" d="M94.52,11.31H94.1v-2l-1.17,2h-.38V8.62H93v2l1.16-2h.4Z"/><path class="e81a2c95-827a-4491-8001-9a3fc686b001" d="M20.94,11.49l-2.65-5A.37.37,0,0,0,18,6.32a.35.35,0,0,0-.33.21l-2.67,5a.35.35,0,0,0,0,.38.38.38,0,0,0,.33.18H20.6a.35.35,0,0,0,.33-.18.35.35,0,0,0,0-.38Zm-5.65.18L18,6.7l2.65,5Zm2.28-3A.36.36,0,0,1,18,8.25a.38.38,0,0,1,.27.1.36.36,0,0,1,.11.28V9.77a.33.33,0,0,1-.11.27.36.36,0,0,1-.27.12.37.37,0,0,1-.27-.12.37.37,0,0,1-.11-.27V8.63Zm.11,2a.36.36,0,0,1,.27-.11.35.35,0,0,1,.27.11.33.33,0,0,1,.11.27.36.36,0,0,1-.11.27.39.39,0,0,1-.27.11.38.38,0,0,1-.38-.38A.37.37,0,0,1,17.68,10.64Z"/><rect class="ae5f5108-b64b-4537-8c10-54a5a1ee959e" x="7.57" y="1.86" width="164.04" height="15.91" rx="7.96"/><g class="ed44cdd3-a98d-4a2a-a44b-0e0738efce96"><rect class="f3d199ec-e07a-4bc3-a252-0065f96f8df7" x="6.9" y="22.83" width="50.07" height="24.28" rx="7.97"/></g><path class="b8cc1c5e-6a14-41a0-b1fa-99a43314bca1" d="M15.58,32.09h-.42v-.82H13v.82h-.42V30.85h.18a4.63,4.63,0,0,0,.47-1.34,8.57,8.57,0,0,0,.18-1.82h1.85v3.16h.32Zm-.76-1.24V28.11h-1a7.39,7.39,0,0,1-.2,1.57,4,4,0,0,1-.43,1.17Z"/><path class="b8cc1c5e-6a14-41a0-b1fa-99a43314bca1" d="M17.36,31l-.13.11-.17.12-.22.1a1,1,0,0,1-.29,0,.72.72,0,0,1-.29-.06.69.69,0,0,1-.24-.18.72.72,0,0,1-.16-.27,1,1,0,0,1-.06-.34.9.9,0,0,1,.11-.48.74.74,0,0,1,.34-.31,1.47,1.47,0,0,1,.5-.14,5.48,5.48,0,0,1,.61-.06v-.09a.68.68,0,0,0,0-.26.37.37,0,0,0-.13-.15.54.54,0,0,0-.19-.07l-.24,0a1.55,1.55,0,0,0-.34,0,2.4,2.4,0,0,0-.4.14h0v-.46a2.68,2.68,0,0,1,.33-.08,2.18,2.18,0,0,1,.43-.05,1.69,1.69,0,0,1,.43.05.86.86,0,0,1,.32.15.66.66,0,0,1,.2.29,1.11,1.11,0,0,1,.07.43v1.84h-.42Zm0-.38v-.74l-.38,0a2.08,2.08,0,0,0-.36.07.6.6,0,0,0-.28.17.46.46,0,0,0-.11.32.41.41,0,0,0,.47.46.74.74,0,0,0,.36-.09A1.33,1.33,0,0,0,17.36,30.61Z"/><path class="b8cc1c5e-6a14-41a0-b1fa-99a43314bca1" d="M20.19,29h-.85v2.29h-.42V29h-.85v-.4h2.12Z"/><path class="b8cc1c5e-6a14-41a0-b1fa-99a43314bca1" d="M21.89,31l-.13.11-.17.12-.22.1a1,1,0,0,1-.29,0,.72.72,0,0,1-.29-.06.69.69,0,0,1-.24-.18.72.72,0,0,1-.16-.27,1,1,0,0,1-.06-.34.9.9,0,0,1,.11-.48.74.74,0,0,1,.34-.31,1.47,1.47,0,0,1,.5-.14,5.48,5.48,0,0,1,.61-.06v-.09a.68.68,0,0,0,0-.26.37.37,0,0,0-.13-.15.54.54,0,0,0-.19-.07l-.24,0A1.55,1.55,0,0,0,21,29a2.4,2.4,0,0,0-.4.14h0v-.46a2.68,2.68,0,0,1,.33-.08,2.18,2.18,0,0,1,.43-.05,1.69,1.69,0,0,1,.43.05.86.86,0,0,1,.32.15.66.66,0,0,1,.2.29,1.11,1.11,0,0,1,.07.43v1.84h-.42Zm0-.38v-.74l-.37,0a2,2,0,0,0-.37.07.6.6,0,0,0-.28.17.46.46,0,0,0-.11.32.41.41,0,0,0,.47.46.69.69,0,0,0,.36-.09A1.33,1.33,0,0,0,21.89,30.61Z"/><g class="ed44cdd3-a98d-4a2a-a44b-0e0738efce96"><rect class="f3d199ec-e07a-4bc3-a252-0065f96f8df7" x="60.07" y="22.83" width="71.3" height="24.28" rx="7.97"/></g><path class="b8cc1c5e-6a14-41a0-b1fa-99a43314bca1" d="M65.82,28.11a1.58,1.58,0,0,1,.29.58,2.76,2.76,0,0,1,.11.8,2.68,2.68,0,0,1-.1.78,1.64,1.64,0,0,1-.3.59,1.27,1.27,0,0,1-.47.37,1.59,1.59,0,0,1-1.21,0,1.26,1.26,0,0,1-.46-.37,1.68,1.68,0,0,1-.3-.58,3.22,3.22,0,0,1-.1-.79,2.71,2.71,0,0,1,.11-.8,1.51,1.51,0,0,1,.29-.58,1.37,1.37,0,0,1,.46-.37,1.51,1.51,0,0,1,.61-.12,1.33,1.33,0,0,1,.61.13A1.16,1.16,0,0,1,65.82,28.11Zm-.06,1.38a2.38,2.38,0,0,0-.07-.63,1.51,1.51,0,0,0-.2-.46,1.06,1.06,0,0,0-.32-.28A.91.91,0,0,0,64,28.4a1.63,1.63,0,0,0-.2.46,2.43,2.43,0,0,0-.07.63A1.76,1.76,0,0,0,64,30.57a.85.85,0,0,0,.73.37.87.87,0,0,0,.74-.37A1.83,1.83,0,0,0,65.76,29.49Z"/><path class="b8cc1c5e-6a14-41a0-b1fa-99a43314bca1" d="M68.76,29.86a1.72,1.72,0,0,1-.3,1.07.9.9,0,0,1-.75.4,1.14,1.14,0,0,1-.33,0,1.09,1.09,0,0,1-.29-.14v1.13h-.42V28.59h.42v.28a1.24,1.24,0,0,1,.35-.25.81.81,0,0,1,.41-.11.77.77,0,0,1,.67.37A1.75,1.75,0,0,1,68.76,29.86Zm-.43.05a1.54,1.54,0,0,0-.14-.71.47.47,0,0,0-.44-.26.69.69,0,0,0-.34.09,1.4,1.4,0,0,0-.32.22v1.52a1.23,1.23,0,0,0,.28.12,1.12,1.12,0,0,0,.27,0,.58.58,0,0,0,.51-.25A1.36,1.36,0,0,0,68.33,29.91Z"/><path class="b8cc1c5e-6a14-41a0-b1fa-99a43314bca1" d="M70.78,29H69.61v2.29H69.2V28.59h1.58Z"/><path class="b8cc1c5e-6a14-41a0-b1fa-99a43314bca1" d="M72.48,31l-.13.11-.17.12-.22.1a1,1,0,0,1-.29,0,.72.72,0,0,1-.29-.06.69.69,0,0,1-.24-.18.72.72,0,0,1-.16-.27,1,1,0,0,1-.06-.34A.9.9,0,0,1,71,30a.79.79,0,0,1,.34-.31,1.47,1.47,0,0,1,.5-.14,5.48,5.48,0,0,1,.61-.06v-.09a.68.68,0,0,0,0-.26.37.37,0,0,0-.13-.15.54.54,0,0,0-.19-.07l-.24,0a1.55,1.55,0,0,0-.34,0,2,2,0,0,0-.39.14h0v-.46a2.68,2.68,0,0,1,.33-.08,2.18,2.18,0,0,1,.43-.05,1.69,1.69,0,0,1,.43.05.86.86,0,0,1,.32.15.66.66,0,0,1,.2.29,1.11,1.11,0,0,1,.07.43v1.84h-.42Zm0-.38v-.74l-.37,0a2,2,0,0,0-.37.07.6.6,0,0,0-.28.17.46.46,0,0,0-.11.32.41.41,0,0,0,.47.46.69.69,0,0,0,.36-.09A1.33,1.33,0,0,0,72.48,30.61Z"/><path class="b8cc1c5e-6a14-41a0-b1fa-99a43314bca1" d="M75.46,31.28H75V30.07H73.91v1.21h-.42V28.59h.42v1.09H75V28.59h.42Z"/><path class="b8cc1c5e-6a14-41a0-b1fa-99a43314bca1" d="M78,31.28h-.42v-2l-1.17,2h-.38V28.59h.42v2l1.16-2H78Z"/><path class="b8cc1c5e-6a14-41a0-b1fa-99a43314bca1" d="M80.29,30.53a.8.8,0,0,1-.09.39.78.78,0,0,1-.24.24,1,1,0,0,1-.31.14,2,2,0,0,1-.35,0,2.31,2.31,0,0,1-.46-.05,2,2,0,0,1-.44-.17v-.5h0a1.12,1.12,0,0,0,.38.24,1.25,1.25,0,0,0,.46.09l.21,0a.84.84,0,0,0,.19-.07.53.53,0,0,0,.15-.15.56.56,0,0,0,0-.21.49.49,0,0,0,0-.23.25.25,0,0,0-.14-.13.6.6,0,0,0-.19-.06H79v-.39h.44a.77.77,0,0,0,.2,0,.31.31,0,0,0,.22-.35.36.36,0,0,0,0-.19.33.33,0,0,0-.13-.11.44.44,0,0,0-.16-.06l-.17,0a1.14,1.14,0,0,0-.41.07,1,1,0,0,0-.34.18h0v-.48a2.42,2.42,0,0,1,.35-.11,1.74,1.74,0,0,1,.39-.05,1.86,1.86,0,0,1,.33,0,.91.91,0,0,1,.31.12.69.69,0,0,1,.23.22.65.65,0,0,1,.09.35.64.64,0,0,1-.11.39.51.51,0,0,1-.31.21v0a.71.71,0,0,1,.34.24A.63.63,0,0,1,80.29,30.53Z"/><path class="b8cc1c5e-6a14-41a0-b1fa-99a43314bca1" d="M82.12,31,82,31.1l-.16.12-.22.1a1.12,1.12,0,0,1-.29,0,.72.72,0,0,1-.29-.06.64.64,0,0,1-.25-.18.88.88,0,0,1-.16-.27,1,1,0,0,1-.06-.34,1,1,0,0,1,.11-.48.77.77,0,0,1,.35-.31,1.41,1.41,0,0,1,.49-.14,5.67,5.67,0,0,1,.62-.06v-.09a.67.67,0,0,0-.05-.26A.44.44,0,0,0,82,29a.52.52,0,0,0-.2-.07l-.24,0a1.64,1.64,0,0,0-.34,0,2,2,0,0,0-.39.14h0v-.46a2,2,0,0,1,.33-.08,2.1,2.1,0,0,1,.43-.05,1.75,1.75,0,0,1,.43.05.94.94,0,0,1,.32.15.75.75,0,0,1,.2.29,1.33,1.33,0,0,1,.07.43v1.84h-.42Zm0-.38v-.74l-.38,0a2.45,2.45,0,0,0-.37.07.73.73,0,0,0-.28.17.46.46,0,0,0-.1.32.48.48,0,0,0,.12.35.46.46,0,0,0,.35.11.74.74,0,0,0,.36-.09A2,2,0,0,0,82.12,30.61Z"/><path class="b8cc1c5e-6a14-41a0-b1fa-99a43314bca1" d="M85.32,31.92h-.39v-.64H83.12V28.59h.42v2.3h1.12v-2.3h.42v2.3h.24Z"/><path class="b8cc1c5e-6a14-41a0-b1fa-99a43314bca1" d="M87.7,31.28h-.41v-2l-1.17,2h-.38V28.59h.41v2l1.16-2h.39Z"/><path class="b8cc1c5e-6a14-41a0-b1fa-99a43314bca1" d="M90.12,31.28H89.7V30.21h-.42l-.74,1.07h-.49l.81-1.11a.92.92,0,0,1-.46-.29.92.92,0,0,1-.14-.53.78.78,0,0,1,.08-.35.75.75,0,0,1,.22-.25.72.72,0,0,1,.28-.12,1.48,1.48,0,0,1,.38,0h.9Zm-.42-1.43V29h-.46L89,29a.52.52,0,0,0-.16.06.41.41,0,0,0-.12.14.48.48,0,0,0,0,.2.58.58,0,0,0,0,.21.31.31,0,0,0,.1.16.38.38,0,0,0,.19.09,1,1,0,0,0,.25,0Z"/><g class="ed44cdd3-a98d-4a2a-a44b-0e0738efce96"><rect class="f3d199ec-e07a-4bc3-a252-0065f96f8df7" x="134.11" y="22.83" width="37.28" height="24.28" rx="7.97"/></g><path class="b8cc1c5e-6a14-41a0-b1fa-99a43314bca1" d="M140.59,31.34a1.45,1.45,0,0,1-.59-.12,1.17,1.17,0,0,1-.48-.35,1.59,1.59,0,0,1-.3-.58,2.46,2.46,0,0,1-.11-.8,2.71,2.71,0,0,1,.1-.79,1.9,1.9,0,0,1,.31-.58,1.4,1.4,0,0,1,.47-.37,1.51,1.51,0,0,1,.61-.12,1.48,1.48,0,0,1,.31,0,2.3,2.3,0,0,1,.28.06l.22.09.22.12v.58h0l-.15-.14a1,1,0,0,0-.22-.16l-.28-.13a1.18,1.18,0,0,0-.34,0,.92.92,0,0,0-.74.37,1.52,1.52,0,0,0-.22.46,2.35,2.35,0,0,0-.07.62,2,2,0,0,0,.08.63,1.35,1.35,0,0,0,.22.45.94.94,0,0,0,.33.27.9.9,0,0,0,.4.09,1.34,1.34,0,0,0,.35-.05,1.11,1.11,0,0,0,.29-.13l.21-.15.14-.13h0V31l-.21.11-.23.1-.27.08Z"/><path class="b8cc1c5e-6a14-41a0-b1fa-99a43314bca1" d="M143.83,29H143v2.29h-.42V29h-.85v-.4h2.12Z"/><path class="b8cc1c5e-6a14-41a0-b1fa-99a43314bca1" d="M145.53,31l-.14.11a.83.83,0,0,1-.16.12l-.22.1a1.07,1.07,0,0,1-.29,0,.72.72,0,0,1-.29-.06.69.69,0,0,1-.24-.18.72.72,0,0,1-.16-.27,1,1,0,0,1-.06-.34,1,1,0,0,1,.1-.48.82.82,0,0,1,.35-.31,1.47,1.47,0,0,1,.5-.14,5.48,5.48,0,0,1,.61-.06v-.09a.68.68,0,0,0,0-.26.37.37,0,0,0-.13-.15.54.54,0,0,0-.19-.07l-.24,0a1.55,1.55,0,0,0-.34,0,1.9,1.9,0,0,0-.4.14h0v-.46a2.68,2.68,0,0,1,.33-.08,2.1,2.1,0,0,1,.43-.05,1.75,1.75,0,0,1,.43.05.94.94,0,0,1,.32.15.66.66,0,0,1,.2.29,1.11,1.11,0,0,1,.07.43v1.84h-.42Zm0-.38v-.74l-.38,0a2.45,2.45,0,0,0-.37.07.62.62,0,0,0-.27.17.42.42,0,0,0-.11.32.41.41,0,0,0,.47.46.74.74,0,0,0,.36-.09A1.33,1.33,0,0,0,145.53,30.61Z"/><path class="b8cc1c5e-6a14-41a0-b1fa-99a43314bca1" d="M148.36,29h-.85v2.29h-.42V29h-.85v-.4h2.12Z"/><path class="b8cc1c5e-6a14-41a0-b1fa-99a43314bca1" d="M150.63,28.59l-1.34,3.68h-.45l.45-1.12-.91-2.56h.45l.68,2,.68-2Z"/><path class="b8cc1c5e-6a14-41a0-b1fa-99a43314bca1" d="M151.94,31.34a1.16,1.16,0,0,1-.47-.09.89.89,0,0,1-.37-.26,1.12,1.12,0,0,1-.24-.43,2,2,0,0,1-.09-.62,1.82,1.82,0,0,1,.09-.61,1.32,1.32,0,0,1,.24-.44,1.07,1.07,0,0,1,.36-.27,1.28,1.28,0,0,1,.48-.09,1.32,1.32,0,0,1,.39.06,2.18,2.18,0,0,1,.34.14v.51h0l-.12-.09a.83.83,0,0,0-.17-.11l-.2-.09-.23,0a.62.62,0,0,0-.52.26,1.21,1.21,0,0,0-.2.76,1.25,1.25,0,0,0,.19.74.6.6,0,0,0,.53.26.86.86,0,0,0,.39-.09,1.5,1.5,0,0,0,.33-.23h0v.51l-.15.07-.17.07-.2.05Z"/><path class="b63fd26e-17ab-414f-adca-ba03835e69ca" d="M14.84,40.51H12.79V40l.41-.43c.14-.14.26-.28.39-.43a5,5,0,0,0,.52-.72,1.24,1.24,0,0,0,.13-.56.68.68,0,0,0,0-.26.52.52,0,0,0-.12-.19.54.54,0,0,0-.18-.11.78.78,0,0,0-.22,0l-.24,0-.24.08-.18.1-.14.1h0v-.51a2.14,2.14,0,0,1,.38-.15,1.62,1.62,0,0,1,.47-.07.9.9,0,0,1,1,1,1.52,1.52,0,0,1,0,.38,1.61,1.61,0,0,1-.12.33,2,2,0,0,1-.2.31,3.76,3.76,0,0,1-.25.31l-.46.51-.42.42h1.64Z"/><path class="b63fd26e-17ab-414f-adca-ba03835e69ca" d="M17.29,39.37a1.51,1.51,0,0,1-.07.48,1.3,1.3,0,0,1-.22.38,1,1,0,0,1-.35.26,1.16,1.16,0,0,1-.47.09,1.82,1.82,0,0,1-.46-.06,1.52,1.52,0,0,1-.41-.14v-.51h0a.56.56,0,0,0,.14.09l.21.1.25.08a.9.9,0,0,0,.24,0,.58.58,0,0,0,.26,0,.5.5,0,0,0,.22-.16.75.75,0,0,0,.13-.25,1.18,1.18,0,0,0,0-.34.91.91,0,0,0-.05-.31.58.58,0,0,0-.37-.33,1.55,1.55,0,0,0-.31,0,2.31,2.31,0,0,0-.37,0l-.29.06V36.92h1.82v.42H15.88v1l.16,0h.14a1.74,1.74,0,0,1,.43,0,.86.86,0,0,1,.34.18.78.78,0,0,1,.25.34A1.3,1.3,0,0,1,17.29,39.37Z"/><path class="b63fd26e-17ab-414f-adca-ba03835e69ca" d="M18.49,40.51H18v-.69h.53Z"/><path class="b63fd26e-17ab-414f-adca-ba03835e69ca" d="M21.22,38.71A2.86,2.86,0,0,1,21,40.13a.86.86,0,0,1-.8.45.85.85,0,0,1-.8-.46,4,4,0,0,1,0-2.82.93.93,0,0,1,1.61,0A3,3,0,0,1,21.22,38.71Zm-.57,1.1a1.38,1.38,0,0,0,.09-.45,6.18,6.18,0,0,0,0-.65,6.11,6.11,0,0,0,0-.64,1.38,1.38,0,0,0-.09-.45.71.71,0,0,0-.18-.28.5.5,0,0,0-.31-.09.49.49,0,0,0-.3.09.7.7,0,0,0-.19.29,1.39,1.39,0,0,0-.09.46,5.78,5.78,0,0,0,0,.63c0,.25,0,.46,0,.63a1.87,1.87,0,0,0,.1.45.57.57,0,0,0,.18.28.45.45,0,0,0,.31.1.5.5,0,0,0,.31-.09A.57.57,0,0,0,20.65,39.81Z"/><path class="b63fd26e-17ab-414f-adca-ba03835e69ca" d="M22.55,37.27l-.24,0a1.13,1.13,0,0,0-.24.08.77.77,0,0,0-.18.1l-.15.1h0v-.51a1.22,1.22,0,0,1,.39-.15,1.62,1.62,0,0,1,.47-.07,1.5,1.5,0,0,1,.4,0,.85.85,0,0,1,.3.15.89.89,0,0,1,.23.28.92.92,0,0,1,.07.38.84.84,0,0,1-.61.81v0a1.11,1.11,0,0,1,.22.07.82.82,0,0,1,.22.16.73.73,0,0,1,.17.27,1.14,1.14,0,0,1,.06.39,1.29,1.29,0,0,1-.07.45,1.34,1.34,0,0,1-.22.36,1,1,0,0,1-.35.25,1.36,1.36,0,0,1-.47.08,1.87,1.87,0,0,1-.9-.22v-.51h0a1.29,1.29,0,0,0,.37.21,1.18,1.18,0,0,0,.48.1.84.84,0,0,0,.27,0A.51.51,0,0,0,23,40a.8.8,0,0,0,.13-.24.74.74,0,0,0,.05-.32.93.93,0,0,0-.05-.32.5.5,0,0,0-.15-.2.5.5,0,0,0-.22-.1,1.2,1.2,0,0,0-.28,0H22.3v-.4h.15a.77.77,0,0,0,.49-.15.53.53,0,0,0,.19-.45.56.56,0,0,0-.05-.23.32.32,0,0,0-.13-.15.38.38,0,0,0-.18-.09A.78.78,0,0,0,22.55,37.27Z"/><path class="b63fd26e-17ab-414f-adca-ba03835e69ca" d="M24.86,40.51h-.53v-.69h.53Z"/><path class="b63fd26e-17ab-414f-adca-ba03835e69ca" d="M27.58,40.51h-2V40l.42-.43c.13-.14.26-.28.38-.43a4.32,4.32,0,0,0,.52-.72,1.25,1.25,0,0,0,.14-.56.67.67,0,0,0,0-.26.52.52,0,0,0-.12-.19.54.54,0,0,0-.18-.11.78.78,0,0,0-.22,0l-.24,0-.24.08-.18.1-.14.1h0v-.51a2.14,2.14,0,0,1,.38-.15,1.62,1.62,0,0,1,.47-.07.9.9,0,0,1,1,1,1.53,1.53,0,0,1,0,.38,1.62,1.62,0,0,1-.13.33,2,2,0,0,1-.2.31l-.24.31-.47.51L26,40.1h1.63Z"/><path class="b63fd26e-17ab-414f-adca-ba03835e69ca" d="M30.09,38.71a3,3,0,0,1-.26,1.42.94.94,0,0,1-1.61,0,3,3,0,0,1-.25-1.4,2.86,2.86,0,0,1,.26-1.42.93.93,0,0,1,1.6,0A3,3,0,0,1,30.09,38.71Zm-.57,1.1a2.23,2.23,0,0,0,.09-.45,6.18,6.18,0,0,0,0-.65,6.11,6.11,0,0,0,0-.64,2.23,2.23,0,0,0-.09-.45.73.73,0,0,0-.19-.28.49.49,0,0,0-.3-.09.5.5,0,0,0-.31.09.7.7,0,0,0-.19.29,2.2,2.2,0,0,0-.09.46c0,.18,0,.39,0,.63s0,.46,0,.63a1.5,1.5,0,0,0,.09.45.66.66,0,0,0,.19.28.45.45,0,0,0,.31.1.49.49,0,0,0,.3-.09A.66.66,0,0,0,29.52,39.81Z"/><path class="b63fd26e-17ab-414f-adca-ba03835e69ca" d="M32.57,40.51H30.52V40l.42-.43.38-.43a5,5,0,0,0,.52-.72,1.24,1.24,0,0,0,.13-.56.68.68,0,0,0,0-.26.52.52,0,0,0-.12-.19.54.54,0,0,0-.18-.11.78.78,0,0,0-.22,0l-.24,0-.24.08-.18.1-.14.1h0v-.51a2.14,2.14,0,0,1,.38-.15,1.62,1.62,0,0,1,.47-.07.9.9,0,0,1,1,1,1.52,1.52,0,0,1,0,.38,1.61,1.61,0,0,1-.12.33,2,2,0,0,1-.2.31,3.76,3.76,0,0,1-.25.31l-.46.51c-.18.17-.31.31-.41.42h1.63Z"/><path class="b63fd26e-17ab-414f-adca-ba03835e69ca" d="M35.08,38.71a3,3,0,0,1-.26,1.42.87.87,0,0,1-.8.45.85.85,0,0,1-.81-.46,4,4,0,0,1,0-2.82.87.87,0,0,1,.81-.45.86.86,0,0,1,.8.47A3,3,0,0,1,35.08,38.71Zm-.57,1.1a2.23,2.23,0,0,0,.09-.45,6.43,6.43,0,0,0,0-.65,6.32,6.32,0,0,0,0-.64,1.67,1.67,0,0,0-.1-.45.62.62,0,0,0-.18-.28.49.49,0,0,0-.3-.09.5.5,0,0,0-.31.09.7.7,0,0,0-.19.29,2.2,2.2,0,0,0-.09.46,6,6,0,0,0,0,.63,5.83,5.83,0,0,0,0,.63,1.5,1.5,0,0,0,.09.45.57.57,0,0,0,.18.28.47.47,0,0,0,.32.1.49.49,0,0,0,.3-.09A.66.66,0,0,0,34.51,39.81Z"/><path class="b63fd26e-17ab-414f-adca-ba03835e69ca" d="M63.11,40.51l1-3.23h.49l1,3.23H65.2l-.27-.9H63.79l-.27.9Zm1.71-1.27-.46-1.52-.46,1.52Z"/><path class="b63fd26e-17ab-414f-adca-ba03835e69ca" d="M68,37.65a1.54,1.54,0,0,1,.26.53,2.61,2.61,0,0,1,.1.72,2.19,2.19,0,0,1-.1.7,1.54,1.54,0,0,1-.26.53,1.27,1.27,0,0,1-.43.34,1.33,1.33,0,0,1-.54.1,1.19,1.19,0,0,1-.54-.11,1.1,1.1,0,0,1-.42-.33,1.6,1.6,0,0,1-.27-.52,2.6,2.6,0,0,1-.09-.71,2.24,2.24,0,0,1,.1-.72,1.75,1.75,0,0,1,.26-.53,1.18,1.18,0,0,1,.42-.32,1.19,1.19,0,0,1,.54-.12,1.26,1.26,0,0,1,1,.44ZM68,38.9a2.37,2.37,0,0,0-.06-.57,1.11,1.11,0,0,0-.18-.41.76.76,0,0,0-.29-.25.77.77,0,0,0-.37-.08.74.74,0,0,0-.38.08.69.69,0,0,0-.29.25,1.19,1.19,0,0,0-.18.41,2.49,2.49,0,0,0-.06.57,1.67,1.67,0,0,0,.24,1,.84.84,0,0,0,1.33,0A1.67,1.67,0,0,0,68,38.9Z"/><path class="b63fd26e-17ab-414f-adca-ba03835e69ca" d="M71,40.16l-1-1V39l1-1v.43l-.66.63.66.64Zm.87-.07-1-.9V39l1-.9v.4l-.64.59.64.6Z"/><path class="b63fd26e-17ab-414f-adca-ba03835e69ca" d="M74.23,37.66H72.85v2.85h-.4V37.28h1.78Z"/><path class="b63fd26e-17ab-414f-adca-ba03835e69ca" d="M75.76,40.25l-.12.1a.72.72,0,0,1-.15.11l-.19.08a1,1,0,0,1-.27,0,.75.75,0,0,1-.26,0,.82.82,0,0,1-.22-.16.68.68,0,0,1-.14-.25.78.78,0,0,1-.06-.31.9.9,0,0,1,.1-.42.71.71,0,0,1,.31-.28,1.25,1.25,0,0,1,.45-.13c.17,0,.36,0,.55-.06v-.07a.47.47,0,0,0,0-.23.26.26,0,0,0-.11-.14.75.75,0,0,0-.18-.07h-.21a1.25,1.25,0,0,0-.31,0,2.42,2.42,0,0,0-.35.12h0v-.41a2.28,2.28,0,0,1,.3-.07,1.64,1.64,0,0,1,.38,0,1.51,1.51,0,0,1,.39,0,.65.65,0,0,1,.29.14.61.61,0,0,1,.18.26,1,1,0,0,1,.06.38v1.66h-.38Zm0-.34v-.67l-.34,0a1.3,1.3,0,0,0-.33.06.58.58,0,0,0-.25.15.44.44,0,0,0-.1.29.42.42,0,0,0,.11.31.44.44,0,0,0,.32.11.66.66,0,0,0,.32-.08A1.39,1.39,0,0,0,75.76,39.91Z"/><path class="b63fd26e-17ab-414f-adca-ba03835e69ca" d="M78.15,39.84a.61.61,0,0,1-.08.34.5.5,0,0,1-.21.22.65.65,0,0,1-.28.12,1.1,1.1,0,0,1-.31,0,1.87,1.87,0,0,1-.42,0,1.56,1.56,0,0,1-.39-.15v-.45h0a1,1,0,0,0,.35.21,1,1,0,0,0,.41.08.65.65,0,0,0,.19,0,.49.49,0,0,0,.17-.06.53.53,0,0,0,.13-.13.36.36,0,0,0,0-.19.41.41,0,0,0,0-.21.34.34,0,0,0-.12-.12.48.48,0,0,0-.18,0H77v-.35h.4l.18,0a.28.28,0,0,0,.14-.1.36.36,0,0,0,0-.21.29.29,0,0,0,0-.17.38.38,0,0,0-.11-.11l-.15,0h-.16a1.09,1.09,0,0,0-.36.06.73.73,0,0,0-.31.17h0v-.44l.32-.1a1.45,1.45,0,0,1,.35,0,1.43,1.43,0,0,1,.29,0,1,1,0,0,1,.28.11.51.51,0,0,1,.21.2.55.55,0,0,1,.09.32A.58.58,0,0,1,78,39a.48.48,0,0,1-.27.2h0a.74.74,0,0,1,.3.21A.61.61,0,0,1,78.15,39.84Z"/><path class="b63fd26e-17ab-414f-adca-ba03835e69ca" d="M80.32,40.51h-.38V38.44h-1v2.07h-.38V38.09h1.77Z"/><path class="b63fd26e-17ab-414f-adca-ba03835e69ca" d="M82.75,39.23a1.57,1.57,0,0,1-.27,1,.83.83,0,0,1-.68.35.85.85,0,0,1-.29,0,1.07,1.07,0,0,1-.27-.12v1h-.37V38.09h.37v.25a1.44,1.44,0,0,1,.32-.23.78.78,0,0,1,.37-.09.67.67,0,0,1,.6.33A1.53,1.53,0,0,1,82.75,39.23Zm-.39.05a1.37,1.37,0,0,0-.12-.64.42.42,0,0,0-.4-.23.67.67,0,0,0-.31.07,1.87,1.87,0,0,0-.29.2v1.37a1,1,0,0,0,.26.11.88.88,0,0,0,.24,0A.54.54,0,0,0,82.2,40,1.26,1.26,0,0,0,82.36,39.28Z"/><path class="b63fd26e-17ab-414f-adca-ba03835e69ca" d="M85,39.3a1.44,1.44,0,0,1-.27.94.89.89,0,0,1-.73.33.87.87,0,0,1-.73-.34A1.47,1.47,0,0,1,83,39.3a1.39,1.39,0,0,1,.28-.94A.86.86,0,0,1,84,38a.89.89,0,0,1,.73.33A1.49,1.49,0,0,1,85,39.3Zm-.38,0a1.27,1.27,0,0,0-.16-.7.57.57,0,0,0-.91,0,1.19,1.19,0,0,0-.16.7,1.21,1.21,0,0,0,.16.69.53.53,0,0,0,.45.23.52.52,0,0,0,.46-.23A1.25,1.25,0,0,0,84.6,39.3Z"/><path class="b63fd26e-17ab-414f-adca-ba03835e69ca" d="M87.45,40.51h-.37v-1.9l-.54,1.23h-.28l-.53-1.23v1.9h-.36V38.09h.46l.59,1.34L87,38.09h.46Z"/><path class="b63fd26e-17ab-414f-adca-ba03835e69ca" d="M89.77,40.51h-.38V39.42h-1v1.09H88V38.09h.38v1h1v-1h.38Z"/><path class="b63fd26e-17ab-414f-adca-ba03835e69ca" d="M91.29,40.56a1.11,1.11,0,0,1-.84-.32,1.65,1.65,0,0,1,0-1.87A.93.93,0,0,1,91.2,38a.87.87,0,0,1,.37.07.76.76,0,0,1,.28.2.85.85,0,0,1,.18.34,1.7,1.7,0,0,1,.07.49v.22H90.54a.93.93,0,0,0,.2.64.68.68,0,0,0,.54.23,1,1,0,0,0,.25,0,1,1,0,0,0,.21-.08l.18-.1.11-.08h0v.44l-.16.07-.18.07-.2,0ZM91.73,39a1.19,1.19,0,0,0,0-.29.61.61,0,0,0-.09-.2.47.47,0,0,0-.17-.14.65.65,0,0,0-.26,0,.62.62,0,0,0-.25,0,.55.55,0,0,0-.19.15.57.57,0,0,0-.13.21,1.07,1.07,0,0,0-.06.27Z"/><path class="b63fd26e-17ab-414f-adca-ba03835e69ca" d="M95.2,39.23a1.93,1.93,0,0,1-.07.57,1.2,1.2,0,0,1-.19.41.94.94,0,0,1-.28.25.72.72,0,0,1-.32.08.48.48,0,0,1-.22,0L94,40.4v1h-.37v-1l-.19.1a.45.45,0,0,1-.23,0,.69.69,0,0,1-.6-.33,1.51,1.51,0,0,1-.23-.91,1.81,1.81,0,0,1,.07-.54,1.36,1.36,0,0,1,.2-.4,1,1,0,0,1,.27-.24.62.62,0,0,1,.32-.09.46.46,0,0,1,.21,0,.77.77,0,0,1,.18.1v-1H94v1a1,1,0,0,1,.21-.1.59.59,0,0,1,.23,0,.69.69,0,0,1,.6.33A1.6,1.6,0,0,1,95.2,39.23Zm-1.62.86V38.48l-.14-.07a.47.47,0,0,0-.17,0,.47.47,0,0,0-.4.22,1.26,1.26,0,0,0-.15.69,1.36,1.36,0,0,0,.13.66.43.43,0,0,0,.39.24.48.48,0,0,0,.18,0Zm1.24-.81a1.48,1.48,0,0,0-.13-.66.43.43,0,0,0-.39-.24.52.52,0,0,0-.18,0l-.17.07v1.61l.15.07a.32.32,0,0,0,.16,0,.46.46,0,0,0,.41-.23A1.25,1.25,0,0,0,94.82,39.28Z"/><path class="b63fd26e-17ab-414f-adca-ba03835e69ca" d="M97.24,38.44h-.76v2.07H96.1V38.44h-.76v-.35h1.9Z"/><path class="b63fd26e-17ab-414f-adca-ba03835e69ca" d="M99.22,39.76a.71.71,0,0,1-.07.32.66.66,0,0,1-.17.23.89.89,0,0,1-.29.15,1.35,1.35,0,0,1-.38,0h-.79V38.09h.38V39h.42a2,2,0,0,1,.39,0,.67.67,0,0,1,.28.14.66.66,0,0,1,.17.23A.88.88,0,0,1,99.22,39.76Zm-.39,0a.41.41,0,0,0,0-.19.3.3,0,0,0-.11-.14.6.6,0,0,0-.19-.06H97.9v.82h.27a1.28,1.28,0,0,0,.31,0,.36.36,0,0,0,.19-.07.25.25,0,0,0,.12-.13A.4.4,0,0,0,98.83,39.76Z"/><path class="b63fd26e-17ab-414f-adca-ba03835e69ca" d="M101.9,39.29h-1.13V38.9h1.13Z"/><path class="b63fd26e-17ab-414f-adca-ba03835e69ca" d="M106.23,40.51h-.39V37.73l-.78,1.89h-.24L104,37.73v2.78h-.37V37.28h.54l.75,1.8.72-1.8h.55Z"/><path class="b63fd26e-17ab-414f-adca-ba03835e69ca" d="M109,40.51h-.4V38.93h-1.37v1.58h-.4V37.28h.4v1.27h1.37V37.28h.4Z"/><path class="b63fd26e-17ab-414f-adca-ba03835e69ca" d="M111.79,40.51h-.4V37.66H110v2.85h-.4V37.28h2.17Z"/><path class="b63fd26e-17ab-414f-adca-ba03835e69ca" d="M113.94,39a.81.81,0,0,1,.17.23,1,1,0,0,1,.06.36,1.11,1.11,0,0,1-.08.41,1,1,0,0,1-.22.32,1,1,0,0,1-.36.22,1.4,1.4,0,0,1-.47.08,2.55,2.55,0,0,1-.51-.06,2.74,2.74,0,0,1-.38-.13V39.9h0a1.78,1.78,0,0,0,.39.2,1.29,1.29,0,0,0,.46.09,1,1,0,0,0,.3,0,.72.72,0,0,0,.24-.14.6.6,0,0,0,.14-.21.7.7,0,0,0,.05-.28.54.54,0,0,0-.06-.27.4.4,0,0,0-.15-.19.85.85,0,0,0-.24-.09,1.36,1.36,0,0,0-.29,0h-.31v-.36H113a.88.88,0,0,0,.51-.14.45.45,0,0,0,.19-.4.31.31,0,0,0-.05-.2.29.29,0,0,0-.13-.14.5.5,0,0,0-.2-.08l-.22,0a1.15,1.15,0,0,0-.26,0l-.23.08-.18.09-.13.08h0v-.47a1.74,1.74,0,0,1,.37-.13,1.89,1.89,0,0,1,.47-.06,1.48,1.48,0,0,1,.39.05.79.79,0,0,1,.31.13.77.77,0,0,1,.23.25.75.75,0,0,1,.07.35.67.67,0,0,1-.16.45.77.77,0,0,1-.42.26v0l.21.07A.74.74,0,0,1,113.94,39Z"/><path class="b63fd26e-17ab-414f-adca-ba03835e69ca" d="M115.52,39.19l-1,.9v-.4l.64-.6-.64-.59v-.4l1,.9Zm.91,0-1,1v-.43l.66-.64-.66-.63V38l1,1Z"/><path class="ffe68ac9-0924-4a7e-8663-a7f815ef0f04" d="M141.29,39.52a1.08,1.08,0,0,1-.08.42.89.89,0,0,1-.23.3,1,1,0,0,1-.36.21,1.75,1.75,0,0,1-.5.06h-.86V37.28h.8l.47,0a1.15,1.15,0,0,1,.31.11.58.58,0,0,1,.24.25.91.91,0,0,1,.07.35.81.81,0,0,1-.11.41.84.84,0,0,1-.31.28v0a.68.68,0,0,1,.41.28A.86.86,0,0,1,141.29,39.52Zm-.55-1.45a.54.54,0,0,0,0-.2.27.27,0,0,0-.12-.14.48.48,0,0,0-.21-.07h-.71v.94h.45a1,1,0,0,0,.28,0,.48.48,0,0,0,.18-.08.43.43,0,0,0,.13-.17A.87.87,0,0,0,140.74,38.07Zm.14,1.46a.85.85,0,0,0,0-.3.48.48,0,0,0-.2-.2.68.68,0,0,0-.2-.07h-.77v1.19H140a2.15,2.15,0,0,0,.41,0,.5.5,0,0,0,.27-.11.48.48,0,0,0,.16-.19A.55.55,0,0,0,140.88,39.53Z"/><path class="ffe68ac9-0924-4a7e-8663-a7f815ef0f04" d="M144.82,39.23a1.57,1.57,0,0,1-.27,1,.81.81,0,0,1-.67.35,1,1,0,0,1-.3,0,1.19,1.19,0,0,1-.26-.12v1h-.38V38.09h.38v.25a1.39,1.39,0,0,1,.31-.23A.79.79,0,0,1,144,38a.69.69,0,0,1,.6.33A1.61,1.61,0,0,1,144.82,39.23Zm-.39.05a1.37,1.37,0,0,0-.12-.64.4.4,0,0,0-.4-.23.7.7,0,0,0-.31.07,1.79,1.79,0,0,0-.28.2v1.37a1,1,0,0,0,.25.11.88.88,0,0,0,.24,0,.54.54,0,0,0,.46-.23A1.18,1.18,0,0,0,144.43,39.28Z"/><path class="ffe68ac9-0924-4a7e-8663-a7f815ef0f04" d="M146.47,40.25l-.13.1a.72.72,0,0,1-.15.11l-.19.08a.88.88,0,0,1-.26,0,.81.81,0,0,1-.27,0,.65.65,0,0,1-.21-.16.87.87,0,0,1-.15-.25,1,1,0,0,1-.05-.31.9.9,0,0,1,.09-.42.68.68,0,0,1,.32-.28,1.14,1.14,0,0,1,.44-.13c.17,0,.36,0,.56-.06v-.07a.63.63,0,0,0,0-.23.33.33,0,0,0-.12-.14.54.54,0,0,0-.17-.07h-.22a1.13,1.13,0,0,0-.3,0l-.36.12h0v-.41a2.28,2.28,0,0,1,.3-.07,1.69,1.69,0,0,1,.38,0,1.41,1.41,0,0,1,.39,0,.65.65,0,0,1,.29.14.61.61,0,0,1,.18.26,1,1,0,0,1,.06.38v1.66h-.37Zm0-.34v-.67l-.34,0a1.39,1.39,0,0,0-.34.06.58.58,0,0,0-.25.15.44.44,0,0,0-.09.29.41.41,0,0,0,.1.31.46.46,0,0,0,.32.11.66.66,0,0,0,.32-.08A1.86,1.86,0,0,0,146.47,39.91Z"/><path class="ffe68ac9-0924-4a7e-8663-a7f815ef0f04" d="M149,38.44a.88.88,0,0,1,.2.37,1.52,1.52,0,0,1,.08.51,1.4,1.4,0,0,1-.09.51,1,1,0,0,1-.22.4.88.88,0,0,1-.32.26,1,1,0,0,1-.38.08.85.85,0,0,1-.39-.08.84.84,0,0,1-.3-.24,1.5,1.5,0,0,1-.23-.51,3.37,3.37,0,0,1-.08-.77c0-.11,0-.22,0-.33a2.69,2.69,0,0,1,.16-.79,1.09,1.09,0,0,1,.18-.3,1.12,1.12,0,0,1,.37-.26,2.68,2.68,0,0,1,.61-.13l.29,0,.23,0v.37l-.22,0-.27,0a2.21,2.21,0,0,0-.42.08.73.73,0,0,0-.34.18.76.76,0,0,0-.13.27,2,2,0,0,0-.07.38,1.69,1.69,0,0,1,.32-.19.86.86,0,0,1,.36-.08.81.81,0,0,1,.35.07A.72.72,0,0,1,149,38.44Zm-.11.9a.92.92,0,0,0-.16-.59.54.54,0,0,0-.46-.21.85.85,0,0,0-.31.06,1.18,1.18,0,0,0-.29.16.62.62,0,0,1,0,.13V39a2.65,2.65,0,0,0,.06.62,1.06,1.06,0,0,0,.15.37.54.54,0,0,0,.19.16.42.42,0,0,0,.22,0,.5.5,0,0,0,.45-.24A1.08,1.08,0,0,0,148.85,39.34Z"/><path class="ffe68ac9-0924-4a7e-8663-a7f815ef0f04" d="M151.48,39.3a1.39,1.39,0,0,1-.28.94,1,1,0,0,1-1.46,0,1.47,1.47,0,0,1-.27-.93,1.44,1.44,0,0,1,.28-.94,1,1,0,0,1,1.45,0A1.44,1.44,0,0,1,151.48,39.3Zm-.39,0a1.19,1.19,0,0,0-.16-.7.57.57,0,0,0-.91,0,1.27,1.27,0,0,0-.16.7A1.3,1.3,0,0,0,150,40a.54.54,0,0,0,.46.23.51.51,0,0,0,.45-.23A1.25,1.25,0,0,0,151.09,39.3Z"/><path class="ffe68ac9-0924-4a7e-8663-a7f815ef0f04" d="M153.5,38.44h-.76v2.07h-.38V38.44h-.76v-.35h1.9Z"/><path class="ffe68ac9-0924-4a7e-8663-a7f815ef0f04" d="M154.76,40.56a1.07,1.07,0,0,1-.83-.32,1.33,1.33,0,0,1-.3-.93,1.45,1.45,0,0,1,.29-.94.93.93,0,0,1,.75-.35.87.87,0,0,1,.37.07.76.76,0,0,1,.28.2.85.85,0,0,1,.18.34,1.41,1.41,0,0,1,.07.49v.22H154a.93.93,0,0,0,.2.64.68.68,0,0,0,.54.23,1,1,0,0,0,.25,0,1,1,0,0,0,.21-.08l.18-.1.11-.08h0v.44l-.16.07-.18.07-.2,0ZM155.2,39a.85.85,0,0,0,0-.29.61.61,0,0,0-.09-.2.47.47,0,0,0-.17-.14.62.62,0,0,0-.25,0,.68.68,0,0,0-.26,0,.66.66,0,0,0-.19.15.57.57,0,0,0-.13.21A1.07,1.07,0,0,0,154,39Z"/><g class="ed44cdd3-a98d-4a2a-a44b-0e0738efce96"><rect class="f3d199ec-e07a-4bc3-a252-0065f96f8df7" x="6.9" y="50.87" width="103.31" height="24.28" rx="7.97"/></g><path class="b8cc1c5e-6a14-41a0-b1fa-99a43314bca1" d="M15.23,56.49a1.58,1.58,0,0,1,.29.58,2.76,2.76,0,0,1,.11.8,2.68,2.68,0,0,1-.1.78,1.56,1.56,0,0,1-.3.59,1.27,1.27,0,0,1-.47.37,1.59,1.59,0,0,1-1.21,0,1.16,1.16,0,0,1-.46-.37,1.59,1.59,0,0,1-.3-.58,3.22,3.22,0,0,1-.1-.79,3.18,3.18,0,0,1,.1-.8,1.77,1.77,0,0,1,.3-.58,1.37,1.37,0,0,1,.46-.37,1.51,1.51,0,0,1,.61-.12,1.33,1.33,0,0,1,.61.13A1.16,1.16,0,0,1,15.23,56.49Zm-.06,1.38a2.38,2.38,0,0,0-.07-.63,1.51,1.51,0,0,0-.2-.46.91.91,0,0,0-.32-.27.82.82,0,0,0-.42-.1.93.93,0,0,0-.42.09,1,1,0,0,0-.32.28,1.63,1.63,0,0,0-.2.46,2.48,2.48,0,0,0-.07.63A1.76,1.76,0,0,0,13.43,59a.85.85,0,0,0,.73.37A.87.87,0,0,0,14.9,59,1.83,1.83,0,0,0,15.17,57.87Z"/><path class="b8cc1c5e-6a14-41a0-b1fa-99a43314bca1" d="M17.9,57.37h-.85v2.29h-.42V57.37h-.84V57H17.9Z"/><path class="b8cc1c5e-6a14-41a0-b1fa-99a43314bca1" d="M20.17,58.84a1,1,0,0,1-.07.35.79.79,0,0,1-.19.25.77.77,0,0,1-.32.17,1.5,1.5,0,0,1-.4,0h-1V57h.92l.4,0a.63.63,0,0,1,.25.09.43.43,0,0,1,.19.21.56.56,0,0,1,.07.3.65.65,0,0,1-.1.34.67.67,0,0,1-.26.24v0a.69.69,0,0,1,.34.22A.67.67,0,0,1,20.17,58.84Zm-.56-1.18a.38.38,0,0,0,0-.16.26.26,0,0,0-.1-.11.48.48,0,0,0-.18,0h-.67v.74h.48l.22,0,.14-.06a.45.45,0,0,0,.11-.13A.6.6,0,0,0,19.61,57.66Zm.12,1.19a.65.65,0,0,0,0-.22.34.34,0,0,0-.16-.15.37.37,0,0,0-.17,0h-.74v.88H19l.35,0a.53.53,0,0,0,.22-.08.43.43,0,0,0,.13-.14A.46.46,0,0,0,19.73,58.85Z"/><path class="b8cc1c5e-6a14-41a0-b1fa-99a43314bca1" d="M21.69,59.72a1.18,1.18,0,0,1-.92-.36,1.48,1.48,0,0,1-.33-1,1.57,1.57,0,0,1,.32-1,1,1,0,0,1,.83-.38A1.07,1.07,0,0,1,22,57a.84.84,0,0,1,.31.22,1.17,1.17,0,0,1,.21.38,1.75,1.75,0,0,1,.07.55v.24H20.86a1.1,1.1,0,0,0,.22.72.8.8,0,0,0,.61.25.84.84,0,0,0,.27,0,1.35,1.35,0,0,0,.24-.08l.19-.11.13-.1h0v.49l-.18.08-.2.08-.22.05ZM22.18,58a1.37,1.37,0,0,0,0-.31.64.64,0,0,0-.1-.22.49.49,0,0,0-.19-.16.78.78,0,0,0-.28,0,.79.79,0,0,0-.29,0,.65.65,0,0,0-.21.16.79.79,0,0,0-.14.23.94.94,0,0,0-.07.3Z"/><path class="b8cc1c5e-6a14-41a0-b1fa-99a43314bca1" d="M24.83,57.37H24v2.29h-.42V57.37h-.85V57h2.11Z"/><path class="b8cc1c5e-6a14-41a0-b1fa-99a43314bca1" d="M26.14,59.72a1.19,1.19,0,0,1-.47-.09.81.81,0,0,1-.37-.26,1.12,1.12,0,0,1-.24-.43,1.93,1.93,0,0,1-.09-.62,1.82,1.82,0,0,1,.09-.61,1.32,1.32,0,0,1,.24-.44,1.22,1.22,0,0,1,.36-.27,1.31,1.31,0,0,1,.87,0,2.18,2.18,0,0,1,.34.14v.51h0l-.12-.09a.83.83,0,0,0-.17-.11.93.93,0,0,0-.2-.08.66.66,0,0,0-.23,0,.61.61,0,0,0-.52.27,1.16,1.16,0,0,0-.2.75,1.23,1.23,0,0,0,.19.74.61.61,0,0,0,.53.27.76.76,0,0,0,.39-.1,1.23,1.23,0,0,0,.33-.23h0v.51l-.15.07-.17.07-.2.05Z"/><path class="b8cc1c5e-6a14-41a0-b1fa-99a43314bca1" d="M29.07,57.37h-.84v2.29h-.42V57.37H27V57h2.11Z"/><path class="b8cc1c5e-6a14-41a0-b1fa-99a43314bca1" d="M31.34,58.84a.78.78,0,0,1-.07.35.67.67,0,0,1-.19.25.71.71,0,0,1-.32.17,1.48,1.48,0,0,1-.39,0h-1V57h.91l.4,0a.67.67,0,0,1,.26.09.48.48,0,0,1,.19.21.67.67,0,0,1,.06.3.57.57,0,0,1-.1.34.6.6,0,0,1-.26.24v0a.65.65,0,0,1,.34.22A.62.62,0,0,1,31.34,58.84Zm-.56-1.18a.38.38,0,0,0,0-.16.31.31,0,0,0-.09-.11.61.61,0,0,0-.18,0H29.8v.74h.48l.22,0,.15-.06a.41.41,0,0,0,.1-.13A.6.6,0,0,0,30.78,57.66Zm.13,1.19a.46.46,0,0,0,0-.22.3.3,0,0,0-.16-.15.34.34,0,0,0-.17,0H29.8v.88h.37l.35,0a.49.49,0,0,0,.21-.08.47.47,0,0,0,.14-.14A.65.65,0,0,0,30.91,58.85Z"/><path class="b8cc1c5e-6a14-41a0-b1fa-99a43314bca1" d="M32.86,59.72a1.19,1.19,0,0,1-.92-.36,1.48,1.48,0,0,1-.33-1,1.62,1.62,0,0,1,.32-1,1,1,0,0,1,.83-.38,1,1,0,0,1,.41.07.87.87,0,0,1,.32.22,1.15,1.15,0,0,1,.2.38,1.75,1.75,0,0,1,.07.55v.24H32a1.05,1.05,0,0,0,.22.72.76.76,0,0,0,.6.25.84.84,0,0,0,.27,0,1.35,1.35,0,0,0,.24-.08l.19-.11.13-.1h0v.49l-.19.08-.19.08-.22.05Zm.5-1.71a2.36,2.36,0,0,0,0-.31.65.65,0,0,0-.11-.22.49.49,0,0,0-.19-.16.81.81,0,0,0-.56,0,.82.82,0,0,0-.22.16.79.79,0,0,0-.14.23A1.33,1.33,0,0,0,32,58Z"/><path class="b8cc1c5e-6a14-41a0-b1fa-99a43314bca1" d="M36.16,59.66h-.42V58.45H34.61v1.21h-.42V57h.42v1.09h1.13V57h.42Z"/><path class="b8cc1c5e-6a14-41a0-b1fa-99a43314bca1" d="M38.73,59.66h-.42V58.45H37.18v1.21h-.42V57h.42v1.09h1.13V57h.42Z"/><path class="b8cc1c5e-6a14-41a0-b1fa-99a43314bca1" d="M40.72,59.37l-.13.12a1.2,1.2,0,0,1-.17.11l-.21.1a1.15,1.15,0,0,1-.3,0,.72.72,0,0,1-.29-.06.69.69,0,0,1-.24-.18.72.72,0,0,1-.16-.27,1,1,0,0,1-.06-.34.9.9,0,0,1,.11-.48.79.79,0,0,1,.34-.31,1.47,1.47,0,0,1,.5-.14,5.48,5.48,0,0,1,.61-.06V57.8a.6.6,0,0,0,0-.25.28.28,0,0,0-.13-.15.37.37,0,0,0-.19-.08l-.24,0a1.55,1.55,0,0,0-.34.05,2,2,0,0,0-.39.14h0V57a2.68,2.68,0,0,1,.33-.08,2.15,2.15,0,0,1,.43,0,1.74,1.74,0,0,1,.43,0,.74.74,0,0,1,.32.16.58.58,0,0,1,.2.28,1.11,1.11,0,0,1,.07.43v1.84h-.42Zm0-.37v-.75l-.37,0a2,2,0,0,0-.37.07.66.66,0,0,0-.28.17.46.46,0,0,0-.11.32.42.42,0,0,0,.47.47.61.61,0,0,0,.36-.1A1.29,1.29,0,0,0,40.72,59Z"/><path class="b8cc1c5e-6a14-41a0-b1fa-99a43314bca1" d="M43.54,59.66h-.42V58.59H42.7L42,59.66h-.49l.8-1.11a.86.86,0,0,1-.45-.29.84.84,0,0,1-.14-.52.65.65,0,0,1,.08-.35.78.78,0,0,1,.22-.26.91.91,0,0,1,.28-.12,1.48,1.48,0,0,1,.38,0h.9Zm-.42-1.42v-.91h-.46l-.23,0a.52.52,0,0,0-.16.06.44.44,0,0,0-.12.15.41.41,0,0,0,0,.19.69.69,0,0,0,0,.22.33.33,0,0,0,.1.15.31.31,0,0,0,.19.09.88.88,0,0,0,.24,0Z"/><path class="b8cc1c5e-6a14-41a0-b1fa-99a43314bca1" d="M46.56,59.72a1.19,1.19,0,0,1-.47-.09.86.86,0,0,1-.37-.26,1.27,1.27,0,0,1-.24-.43,2.28,2.28,0,0,1-.08-.62,1.82,1.82,0,0,1,.09-.61,1,1,0,0,1,.6-.71,1.19,1.19,0,0,1,.47-.09A1.34,1.34,0,0,1,47,57l.34.14v.51h0l-.11-.09L47,57.42a1,1,0,0,0-.21-.08.65.65,0,0,0-.75.23,1.22,1.22,0,0,0-.2.75,1.3,1.3,0,0,0,.19.74.62.62,0,0,0,.53.27.76.76,0,0,0,.39-.1,1,1,0,0,0,.33-.23h0v.51l-.16.07-.17.07-.19.05Z"/><path class="b8cc1c5e-6a14-41a0-b1fa-99a43314bca1" d="M49.61,59.66h-.42V57.35h-.86c0,.13,0,.26,0,.38s0,.24,0,.34a5.27,5.27,0,0,1,0,.63,2.47,2.47,0,0,1-.08.41,1.22,1.22,0,0,1-.11.25,1,1,0,0,1-.13.16.62.62,0,0,1-.17.11.54.54,0,0,1-.19,0h-.17v-.4h.09l.11,0a.24.24,0,0,0,.09-.06.83.83,0,0,0,.16-.41,7,7,0,0,0,.07-.83c0-.13,0-.29,0-.46s0-.36,0-.52h1.65Z"/><path class="b8cc1c5e-6a14-41a0-b1fa-99a43314bca1" d="M52.17,57l-1.34,3.68h-.45l.45-1.12L49.92,57h.46l.68,2,.68-2Z"/><path class="b8cc1c5e-6a14-41a0-b1fa-99a43314bca1" d="M55.51,59.66H55l-.78-1.24h-.17v1.24h-.41V58.42h-.17l-.79,1.24H52.2l.94-1.41a.64.64,0,0,1-.19-.18,1,1,0,0,1-.15-.35.61.61,0,0,0-.15-.28.38.38,0,0,0-.27-.08h-.09V57h.11a.75.75,0,0,1,.45.12.8.8,0,0,1,.28.42,1.31,1.31,0,0,1,0,.15,1.12,1.12,0,0,1,0,.13.71.71,0,0,0,.18.27.43.43,0,0,0,.24.09V57h.41v1.18a.43.43,0,0,0,.25-.1.69.69,0,0,0,.17-.26s0-.09.05-.14a1.21,1.21,0,0,0,0-.14.9.9,0,0,1,.27-.42.81.81,0,0,1,.46-.12h.11v.39h-.1a.4.4,0,0,0-.26.08.61.61,0,0,0-.15.28,1,1,0,0,1-.15.33.66.66,0,0,1-.18.19Z"/><path class="b8cc1c5e-6a14-41a0-b1fa-99a43314bca1" d="M57.59,57.37a1,1,0,0,1,.23.4,1.91,1.91,0,0,1,.08.57,1.75,1.75,0,0,1-.09.57,1.5,1.5,0,0,1-.25.45,1.35,1.35,0,0,1-.36.28,1,1,0,0,1-.42.09,1,1,0,0,1-.43-.09.71.71,0,0,1-.33-.27,1.5,1.5,0,0,1-.26-.57,3.4,3.4,0,0,1-.09-.85c0-.12,0-.24,0-.37s0-.27.06-.44a2.43,2.43,0,0,1,.12-.43,1,1,0,0,1,.2-.34,1.11,1.11,0,0,1,.41-.28,2.56,2.56,0,0,1,.68-.15l.32,0,.26,0v.42l-.25,0-.3,0a2.77,2.77,0,0,0-.47.09.73.73,0,0,0-.37.2.84.84,0,0,0-.15.3,2.54,2.54,0,0,0-.08.43,1.65,1.65,0,0,1,.36-.22.9.9,0,0,1,.4-.09,1,1,0,0,1,.39.08A.79.79,0,0,1,57.59,57.37Zm-.12,1a1,1,0,0,0-.18-.65.56.56,0,0,0-.5-.23,1,1,0,0,0-.35.06,1.26,1.26,0,0,0-.32.18.57.57,0,0,0,0,.14.86.86,0,0,0,0,.15,2.53,2.53,0,0,0,.07.68,1.12,1.12,0,0,0,.17.41.72.72,0,0,0,.21.19.69.69,0,0,0,.24.05.56.56,0,0,0,.5-.26A1.26,1.26,0,0,0,57.47,58.36Z"/><path class="b8cc1c5e-6a14-41a0-b1fa-99a43314bca1" d="M59.73,59.37l-.14.12a.76.76,0,0,1-.16.11,1.38,1.38,0,0,1-.22.1,1.07,1.07,0,0,1-.29,0,.72.72,0,0,1-.29-.06.69.69,0,0,1-.24-.18.73.73,0,0,1-.17-.27,1,1,0,0,1-.06-.34,1,1,0,0,1,.11-.48.82.82,0,0,1,.35-.31,1.41,1.41,0,0,1,.49-.14,5.92,5.92,0,0,1,.62-.06V57.8a.6.6,0,0,0,0-.25.32.32,0,0,0-.13-.15.4.4,0,0,0-.2-.08l-.23,0a1.72,1.72,0,0,0-.35.05,2,2,0,0,0-.39.14h0V57A2.28,2.28,0,0,1,58.7,57a2.09,2.09,0,0,1,.43,0,1.8,1.8,0,0,1,.43,0,.81.81,0,0,1,.32.16.58.58,0,0,1,.2.28,1.11,1.11,0,0,1,.07.43v1.84h-.42Zm0-.37v-.75l-.38,0a2.45,2.45,0,0,0-.37.07.62.62,0,0,0-.27.17.42.42,0,0,0-.11.32.42.42,0,0,0,.47.47.65.65,0,0,0,.36-.1A1.29,1.29,0,0,0,59.73,59Z"/><path class="b63fd26e-17ab-414f-adca-ba03835e69ca" d="M15.54,65.39,14.45,68.1a.82.82,0,0,1-.15.28.86.86,0,0,1-.18.16.67.67,0,0,1-.18.07h-.51v-.4h.38a.2.2,0,0,0,.11,0l.11-.08a.4.4,0,0,0,.1-.16l.07-.17-1-2.39h.43l.82,1.9.73-1.9Z"/><path class="b63fd26e-17ab-414f-adca-ba03835e69ca" d="M18,68.61h-.39V66.05l-1.35,2.56h-.4V65.39h.39v2.52l1.33-2.52H18Z"/><path class="b63fd26e-17ab-414f-adca-ba03835e69ca" d="M20.74,68.61h-.4V65.77H19v2.84h-.4V65.39h2.17Z"/><path class="b63fd26e-17ab-414f-adca-ba03835e69ca" d="M23.78,69.34H23.4v-.73h-2V65.39h.39v2.85H23.1V65.39h.4v2.85h.28Z"/><path class="b63fd26e-17ab-414f-adca-ba03835e69ca" d="M26.33,68.61h-.39V65.77H24.56v2.84h-.4V65.39h2.17Z"/><rect class="b63fd26e-17ab-414f-adca-ba03835e69ca" x="100.65" y="60.5" width="0.88" height="4.54" rx="0.44" transform="translate(73.99 -53.09) rotate(45)"/><rect class="b63fd26e-17ab-414f-adca-ba03835e69ca" x="98.18" y="60.5" width="0.88" height="4.54" rx="0.44" transform="translate(-15.5 88.12) rotate(-45)"/><g class="ed44cdd3-a98d-4a2a-a44b-0e0738efce96"><rect class="f3d199ec-e07a-4bc3-a252-0065f96f8df7" x="176.45" y="1.64" width="142.09" height="87.11" rx="7.92"/></g><path class="b8cc1c5e-6a14-41a0-b1fa-99a43314bca1" d="M185.78,9.92h-.44V6.76h-1.53V9.92h-.44V6.34h2.41Z"/><path class="b8cc1c5e-6a14-41a0-b1fa-99a43314bca1" d="M188.51,8.5a1.72,1.72,0,0,1-.3,1.07.88.88,0,0,1-.75.4.93.93,0,0,1-.62-.19v1.13h-.42V7.23h.42v.28a1.72,1.72,0,0,1,.35-.25.83.83,0,0,1,.41-.1.76.76,0,0,1,.67.36A1.78,1.78,0,0,1,188.51,8.5Zm-.43.05a1.54,1.54,0,0,0-.14-.71.46.46,0,0,0-.44-.25.68.68,0,0,0-.34.08,1.66,1.66,0,0,0-.32.22V9.42l.28.11a1.12,1.12,0,0,0,.27,0,.58.58,0,0,0,.51-.25A1.33,1.33,0,0,0,188.08,8.55Z"/><path class="b8cc1c5e-6a14-41a0-b1fa-99a43314bca1" d="M190.91,9.92h-.41v-2l-1.17,2H189V7.23h.41v2l1.16-2h.39Z"/><path class="b8cc1c5e-6a14-41a0-b1fa-99a43314bca1" d="M193.4,9.92H193V8.87a2.85,2.85,0,0,1-.39.11,2.2,2.2,0,0,1-.36,0,1.06,1.06,0,0,1-.31,0,.72.72,0,0,1-.26-.14.78.78,0,0,1-.17-.26,1.06,1.06,0,0,1-.06-.37v-1h.42V8c0,.12,0,.21,0,.28a.6.6,0,0,0,.08.21.32.32,0,0,0,.15.13.72.72,0,0,0,.28,0l.31,0,.3-.07V7.23h.42Z"/><path class="b8cc1c5e-6a14-41a0-b1fa-99a43314bca1" d="M196,9.92h-.42v-2l-1.17,2H194V7.23h.42v2l1.16-2H196Z"/><path class="b8cc1c5e-6a14-41a0-b1fa-99a43314bca1" d="M198.54,9.92h-.42V8.71H197V9.92h-.42V7.23H197V8.32h1.12V7.23h.42Z"/><path class="b8cc1c5e-6a14-41a0-b1fa-99a43314bca1" d="M201,9.09a1,1,0,0,1-.07.35.75.75,0,0,1-.2.26,1.1,1.1,0,0,1-.32.17,1.63,1.63,0,0,1-.43.05h-.83V7.23h.42v1H200a2.44,2.44,0,0,1,.44,0,.74.74,0,0,1,.31.15.58.58,0,0,1,.19.27A.8.8,0,0,1,201,9.09Zm-.44,0a.66.66,0,0,0,0-.21.37.37,0,0,0-.13-.15.53.53,0,0,0-.22-.08h-.61v.92h.26l.35,0a.66.66,0,0,0,.21-.08.31.31,0,0,0,.13-.15A.48.48,0,0,0,200.56,9.09Zm1.15.83h-.42V7.23h.42Z"/><g class="ed44cdd3-a98d-4a2a-a44b-0e0738efce96"><rect class="f3d199ec-e07a-4bc3-a252-0065f96f8df7" x="176.53" y="15.74" width="142.08" height="20.85"/></g><path class="a2be7f11-3e5c-4c2d-92d1-aef08301a038" d="M190.12,27.11h-.44V24h-1.53v3.16h-.44V23.53h2.41Z"/><path class="a2be7f11-3e5c-4c2d-92d1-aef08301a038" d="M192.85,25.7a1.76,1.76,0,0,1-.3,1.07.91.91,0,0,1-.75.39,1.15,1.15,0,0,1-.33,0,1.53,1.53,0,0,1-.29-.14V28.1h-.42V24.42h.42v.28a1.48,1.48,0,0,1,.35-.25.8.8,0,0,1,.41-.1.76.76,0,0,1,.67.36A1.81,1.81,0,0,1,192.85,25.7Zm-.43.05a1.56,1.56,0,0,0-.14-.72.46.46,0,0,0-.44-.25.89.89,0,0,0-.35.08,1.6,1.6,0,0,0-.31.22v1.53a1.23,1.23,0,0,0,.28.12,1.12,1.12,0,0,0,.27,0,.59.59,0,0,0,.51-.26A1.3,1.3,0,0,0,192.42,25.75Z"/><path class="a2be7f11-3e5c-4c2d-92d1-aef08301a038" d="M195.25,27.11h-.41v-2l-1.18,2h-.38V24.42h.42v2l1.16-2h.39Z"/><path class="a2be7f11-3e5c-4c2d-92d1-aef08301a038" d="M197.73,27.11h-.42V26.06a2.72,2.72,0,0,1-.38.11,1.47,1.47,0,0,1-.36,0,1.06,1.06,0,0,1-.31-.05A.6.6,0,0,1,196,26a.65.65,0,0,1-.17-.26,1.06,1.06,0,0,1-.06-.37v-1h.42v.73a2.44,2.44,0,0,0,0,.29.64.64,0,0,0,.08.2.32.32,0,0,0,.15.13.7.7,0,0,0,.27,0l.32,0a1.77,1.77,0,0,0,.29-.07V24.42h.42Z"/><path class="a2be7f11-3e5c-4c2d-92d1-aef08301a038" d="M200.31,27.11h-.42v-2l-1.17,2h-.38V24.42h.41v2l1.16-2h.4Z"/><path class="a2be7f11-3e5c-4c2d-92d1-aef08301a038" d="M202.88,27.11h-.42V25.9h-1.13v1.21h-.42V24.42h.42v1.09h1.13V24.42h.42Z"/><path class="a2be7f11-3e5c-4c2d-92d1-aef08301a038" d="M204.88,26.82l-.14.12a.88.88,0,0,1-.17.12,1,1,0,0,1-.21.09,1.06,1.06,0,0,1-.29,0,.73.73,0,0,1-.29-.07.74.74,0,0,1-.25-.17,1.08,1.08,0,0,1-.16-.28.93.93,0,0,1-.06-.34,1,1,0,0,1,.11-.47.78.78,0,0,1,.35-.32,2,2,0,0,1,.49-.14c.19,0,.4,0,.62-.06v-.08a.6.6,0,0,0,0-.26.31.31,0,0,0-.12-.15.43.43,0,0,0-.2-.07.93.93,0,0,0-.24,0,1.55,1.55,0,0,0-.34,0,3,3,0,0,0-.39.14h0v-.46l.33-.08a2,2,0,0,1,.43,0,1.8,1.8,0,0,1,.43,0,.81.81,0,0,1,.32.16.72.72,0,0,1,.2.28,1.33,1.33,0,0,1,.07.43v1.84h-.42Zm0-.37V25.7l-.38,0a2.23,2.23,0,0,0-.37.07.88.88,0,0,0-.28.17.48.48,0,0,0-.11.32.43.43,0,0,0,.48.47.74.74,0,0,0,.36-.09A3,3,0,0,0,204.88,26.45Z"/><path class="a2be7f11-3e5c-4c2d-92d1-aef08301a038" d="M209.63,27.11h-.5L207.76,24v3.09h-.41V23.53H208l1.24,2.83V23.53h.42Zm2.29-2.48a1.32,1.32,0,0,1-.26.86.88.88,0,0,1-1.36,0,1.32,1.32,0,0,1-.26-.86,1.29,1.29,0,0,1,.27-.87.89.89,0,0,1,1.35,0A1.35,1.35,0,0,1,211.92,24.63Zm-.29,2.06h-1.29V26.3h1.29Zm-.11-2.06a1.14,1.14,0,0,0-.14-.62.48.48,0,0,0-.4-.2.47.47,0,0,0-.39.2,1.05,1.05,0,0,0-.14.62,1,1,0,0,0,.14.61.45.45,0,0,0,.39.21.46.46,0,0,0,.4-.21A1.1,1.1,0,0,0,211.52,24.63Z"/><path class="a2be7f11-3e5c-4c2d-92d1-aef08301a038" d="M214.34,27.11h-1.62v-.37h.61v-2.4h-.61V24a1,1,0,0,0,.51-.11.46.46,0,0,0,.18-.39h.34v3.22h.59Z"/><g class="ed44cdd3-a98d-4a2a-a44b-0e0738efce96"><rect class="f3d199ec-e07a-4bc3-a252-0065f96f8df7" x="176.53" y="59.89" width="142.08" height="20.85"/></g><path class="a2be7f11-3e5c-4c2d-92d1-aef08301a038" d="M190.12,73h-.44V69.86h-1.53V73h-.44V69.43h2.41Z"/><path class="a2be7f11-3e5c-4c2d-92d1-aef08301a038" d="M192.85,71.6a1.74,1.74,0,0,1-.3,1.07.9.9,0,0,1-.75.4,1.14,1.14,0,0,1-.33,0,1.53,1.53,0,0,1-.29-.14V74h-.42V70.33h.42v.28a1.52,1.52,0,0,1,.35-.26.92.92,0,0,1,.41-.1.75.75,0,0,1,.67.37A1.75,1.75,0,0,1,192.85,71.6Zm-.43.05a1.51,1.51,0,0,0-.14-.71.47.47,0,0,0-.44-.26.76.76,0,0,0-.35.09,1.6,1.6,0,0,0-.31.22v1.52a1.23,1.23,0,0,0,.28.12,1.12,1.12,0,0,0,.27,0,.57.57,0,0,0,.51-.26A1.3,1.3,0,0,0,192.42,71.65Z"/><path class="a2be7f11-3e5c-4c2d-92d1-aef08301a038" d="M195.25,73h-.41V71l-1.18,2h-.38V70.33h.42v2l1.16-2h.39Z"/><path class="a2be7f11-3e5c-4c2d-92d1-aef08301a038" d="M197.73,73h-.42V72a2.66,2.66,0,0,1-.38.1,1.47,1.47,0,0,1-.36,0,1.06,1.06,0,0,1-.31,0,.61.61,0,0,1-.26-.15.54.54,0,0,1-.17-.26,1,1,0,0,1-.06-.37v-1h.42v.73a2.18,2.18,0,0,0,0,.28.5.5,0,0,0,.08.2.28.28,0,0,0,.15.13.68.68,0,0,0,.27,0l.32,0a1.71,1.71,0,0,0,.29-.08V70.33h.42Z"/><path class="a2be7f11-3e5c-4c2d-92d1-aef08301a038" d="M200.31,73h-.42V71l-1.17,2h-.38V70.33h.41v2l1.16-2h.4Z"/><path class="a2be7f11-3e5c-4c2d-92d1-aef08301a038" d="M202.88,73h-.42V71.8h-1.13V73h-.42V70.33h.42v1.09h1.13V70.33h.42Z"/><path class="a2be7f11-3e5c-4c2d-92d1-aef08301a038" d="M204.88,72.73l-.14.11a.88.88,0,0,1-.17.12l-.21.1a1.12,1.12,0,0,1-.29,0,.72.72,0,0,1-.29-.06.64.64,0,0,1-.25-.18.88.88,0,0,1-.16-.27,1,1,0,0,1-.06-.34,1,1,0,0,1,.11-.48.77.77,0,0,1,.35-.31,1.41,1.41,0,0,1,.49-.14,5.67,5.67,0,0,1,.62-.06v-.09a.63.63,0,0,0,0-.26.44.44,0,0,0-.12-.15.59.59,0,0,0-.2-.07l-.24,0a1.64,1.64,0,0,0-.34,0,3,3,0,0,0-.39.13h0v-.45a1.31,1.31,0,0,1,.33-.08,2,2,0,0,1,.43,0,1.75,1.75,0,0,1,.43,0,.78.78,0,0,1,.32.15.75.75,0,0,1,.2.29,1.33,1.33,0,0,1,.07.43V73h-.42Zm0-.38v-.74l-.38,0a1.52,1.52,0,0,0-.37.07.73.73,0,0,0-.28.17.44.44,0,0,0-.11.32.48.48,0,0,0,.13.35.51.51,0,0,0,.35.11.74.74,0,0,0,.36-.09A2,2,0,0,0,204.88,72.35Z"/><path class="a2be7f11-3e5c-4c2d-92d1-aef08301a038" d="M209.63,73h-.5l-1.37-3.09V73h-.41V69.43H208l1.24,2.84V69.43h.42Zm2.29-2.48a1.34,1.34,0,0,1-.26.86.88.88,0,0,1-1.36,0,1.34,1.34,0,0,1-.26-.86,1.26,1.26,0,0,1,.27-.87.89.89,0,0,1,1.35,0A1.31,1.31,0,0,1,211.92,70.54Zm-.29,2h-1.29V72.2h1.29Zm-.11-2a1.11,1.11,0,0,0-.14-.62.48.48,0,0,0-.4-.2.47.47,0,0,0-.39.2,1.42,1.42,0,0,0,0,1.23.45.45,0,0,0,.39.21.46.46,0,0,0,.4-.21A1.12,1.12,0,0,0,211.52,70.54Z"/><path class="a2be7f11-3e5c-4c2d-92d1-aef08301a038" d="M213.36,69.77a.67.67,0,0,0-.24,0,1.13,1.13,0,0,0-.24.08.77.77,0,0,0-.18.1c-.06,0-.1.07-.15.1h0v-.51a1.32,1.32,0,0,1,.39-.15,1.69,1.69,0,0,1,.48-.07,1.15,1.15,0,0,1,.39,0,.85.85,0,0,1,.3.15.77.77,0,0,1,.23.28.92.92,0,0,1,.07.38.8.8,0,0,1-.18.52.77.77,0,0,1-.43.29v0a1.11,1.11,0,0,1,.22.07.82.82,0,0,1,.22.16.73.73,0,0,1,.17.27,1.09,1.09,0,0,1,.07.39,1.19,1.19,0,0,1-.3.81,1,1,0,0,1-.35.25,1.36,1.36,0,0,1-.47.08,1.66,1.66,0,0,1-.49-.07,1.77,1.77,0,0,1-.41-.15v-.51h0a1.57,1.57,0,0,0,.37.21,1.18,1.18,0,0,0,.48.1.84.84,0,0,0,.27,0,.53.53,0,0,0,.23-.16.88.88,0,0,0,.14-.23,1,1,0,0,0,0-.32.93.93,0,0,0-.05-.32.38.38,0,0,0-.15-.2.5.5,0,0,0-.22-.1,1.2,1.2,0,0,0-.28,0h-.19v-.4h.15a.75.75,0,0,0,.49-.15.53.53,0,0,0,.19-.45.52.52,0,0,0-.05-.23.4.4,0,0,0-.12-.16.46.46,0,0,0-.19-.08A.78.78,0,0,0,213.36,69.77Z"/><path class="a2be7f11-3e5c-4c2d-92d1-aef08301a038" d="M190.12,49.33h-.44V46.17h-1.53v3.16h-.44V45.75h2.41Z"/><path class="a2be7f11-3e5c-4c2d-92d1-aef08301a038" d="M192.85,47.92a1.76,1.76,0,0,1-.3,1.07.91.91,0,0,1-.75.39,1.15,1.15,0,0,1-.33,0,1.53,1.53,0,0,1-.29-.14v1.12h-.42V46.64h.42v.29a1.28,1.28,0,0,1,.35-.26.8.8,0,0,1,.41-.1.75.75,0,0,1,.67.37A1.75,1.75,0,0,1,192.85,47.92Zm-.43,0a1.56,1.56,0,0,0-.14-.72.46.46,0,0,0-.44-.25.76.76,0,0,0-.35.09,1.26,1.26,0,0,0-.31.22v1.52a1.23,1.23,0,0,0,.28.12,1.12,1.12,0,0,0,.27,0,.59.59,0,0,0,.51-.26A1.3,1.3,0,0,0,192.42,48Z"/><path class="a2be7f11-3e5c-4c2d-92d1-aef08301a038" d="M195.25,49.33h-.41v-2l-1.18,2h-.38V46.64h.42v2l1.16-2h.39Z"/><path class="a2be7f11-3e5c-4c2d-92d1-aef08301a038" d="M197.73,49.33h-.42v-1a1.82,1.82,0,0,1-.38.11,1.47,1.47,0,0,1-.36,0,1.06,1.06,0,0,1-.31,0,.51.51,0,0,1-.26-.14.59.59,0,0,1-.17-.26,1,1,0,0,1-.06-.37v-1h.42v.73a2.36,2.36,0,0,0,0,.29.56.56,0,0,0,.08.2.28.28,0,0,0,.15.13.7.7,0,0,0,.27,0l.32,0a1.77,1.77,0,0,0,.29-.07V46.64h.42Z"/><path class="a2be7f11-3e5c-4c2d-92d1-aef08301a038" d="M200.31,49.33h-.42v-2l-1.17,2h-.38V46.64h.41v2l1.16-2h.4Z"/><path class="a2be7f11-3e5c-4c2d-92d1-aef08301a038" d="M202.88,49.33h-.42V48.12h-1.13v1.21h-.42V46.64h.42v1.09h1.13V46.64h.42Z"/><path class="a2be7f11-3e5c-4c2d-92d1-aef08301a038" d="M204.88,49.05a.92.92,0,0,0-.14.11.88.88,0,0,1-.17.12,1,1,0,0,1-.21.09.78.78,0,0,1-.29,0,.59.59,0,0,1-.29-.07.74.74,0,0,1-.25-.17,1.08,1.08,0,0,1-.16-.28.93.93,0,0,1-.06-.34,1,1,0,0,1,.11-.47.72.72,0,0,1,.35-.31,1.66,1.66,0,0,1,.49-.15l.62-.06v-.08a.63.63,0,0,0,0-.26.44.44,0,0,0-.12-.15.43.43,0,0,0-.2-.07.93.93,0,0,0-.24,0,1.16,1.16,0,0,0-.34.05,2,2,0,0,0-.39.13h0V46.7l.33-.08a2,2,0,0,1,.43,0,1.8,1.8,0,0,1,.43,0,.81.81,0,0,1,.32.16.69.69,0,0,1,.2.29,1.27,1.27,0,0,1,.07.42v1.84h-.42Zm0-.38v-.75l-.38,0a2.23,2.23,0,0,0-.37.07.88.88,0,0,0-.28.17.48.48,0,0,0-.11.32.43.43,0,0,0,.48.47.74.74,0,0,0,.36-.09A2,2,0,0,0,204.88,48.67Z"/><path class="a2be7f11-3e5c-4c2d-92d1-aef08301a038" d="M209.63,49.33h-.5l-1.37-3.09v3.09h-.41V45.75H208l1.24,2.84V45.75h.42Zm2.29-2.48a1.35,1.35,0,0,1-.26.87.9.9,0,0,1-1.36,0,1.35,1.35,0,0,1-.26-.87,1.29,1.29,0,0,1,.27-.87.89.89,0,0,1,1.35,0A1.35,1.35,0,0,1,211.92,46.85Zm-.29,2.06h-1.29v-.39h1.29Zm-.11-2.06a1.14,1.14,0,0,0-.14-.62A.47.47,0,0,0,211,46a.47.47,0,0,0-.39.19,1.05,1.05,0,0,0-.14.62,1.08,1.08,0,0,0,.14.62.46.46,0,0,0,.39.2.48.48,0,0,0,.4-.2A1.16,1.16,0,0,0,211.52,46.85Z"/><path class="a2be7f11-3e5c-4c2d-92d1-aef08301a038" d="M214.51,49.33h-2v-.5l.42-.43.38-.43a3.51,3.51,0,0,0,.52-.73,1.21,1.21,0,0,0,.14-.55.77.77,0,0,0,0-.27.47.47,0,0,0-.12-.18.49.49,0,0,0-.18-.11.59.59,0,0,0-.23,0l-.24,0-.23.08-.18.1-.14.1h0v-.51a1.55,1.55,0,0,1,.39-.14,1.59,1.59,0,0,1,.46-.08.93.93,0,0,1,1,1,1.6,1.6,0,0,1,0,.39,1.2,1.2,0,0,1-.13.33,1.8,1.8,0,0,1-.2.31,3.15,3.15,0,0,1-.24.3c-.14.17-.3.34-.47.51l-.41.42h1.63Z"/><g class="ed44cdd3-a98d-4a2a-a44b-0e0738efce96"><rect class="f3d199ec-e07a-4bc3-a252-0065f96f8df7" x="176.01" y="96.08" width="142.54" height="19.94" rx="7.92"/></g><path class="b3ef8931-d5de-4210-9d25-e77a3952eb0c" d="M306.39,112a6.91,6.91,0,1,1,6.91-6.91A6.92,6.92,0,0,1,306.39,112Zm0-13.45a6.54,6.54,0,1,0,6.54,6.54A6.54,6.54,0,0,0,306.39,98.52Z"/><path class="b3ef8931-d5de-4210-9d25-e77a3952eb0c" d="M308.05,102.85a.14.14,0,0,0-.15,0l-4,2.68a.12.12,0,0,0-.06.12.15.15,0,0,0,.08.11l1.14.42.37,1a.13.13,0,0,0,.12.08h0a.15.15,0,0,0,.12-.07l.3-.64,1.35.55a.14.14,0,0,0,.11,0,.14.14,0,0,0,.07-.1l.57-4A.16.16,0,0,0,308.05,102.85Zm-2.45,4-.29-.79a.18.18,0,0,0-.07-.08l-.95-.35,2.9-1.95-1.8,2a.14.14,0,0,0,0,.18.12.12,0,0,0,.09,0,.14.14,0,0,0,.1,0l1.6-1.78-1.36,2.29h0Zm1.7,0-1.17-.47,1.62-2.74Z"/><path class="b211d927-8901-4953-b868-33f11eb521f6" d="M190,107.68h-.47v-1.76h-1.63v1.76h-.47v-3.59h.47v1.41h1.63v-1.41H190Z"/><path class="b211d927-8901-4953-b868-33f11eb521f6" d="M192.19,107.39l-.15.11-.17.12-.23.1a1.3,1.3,0,0,1-.31,0,.77.77,0,0,1-.58-.24.89.89,0,0,1-.17-.27,1,1,0,0,1-.06-.34.9.9,0,0,1,.12-.48.79.79,0,0,1,.36-.31,1.65,1.65,0,0,1,.53-.14q.32,0,.66-.06v-.09a.67.67,0,0,0-.05-.26.37.37,0,0,0-.13-.15.65.65,0,0,0-.21-.07l-.26,0a1.81,1.81,0,0,0-.36.05,2.3,2.3,0,0,0-.42.14h0v-.46a2.7,2.7,0,0,1,.35-.08,2.4,2.4,0,0,1,.46,0,2,2,0,0,1,.46,0,1,1,0,0,1,.34.15.68.68,0,0,1,.21.29,1.11,1.11,0,0,1,.07.43v1.84h-.44Zm0-.38v-.74l-.4,0a2.47,2.47,0,0,0-.4.07.7.7,0,0,0-.29.17.42.42,0,0,0-.12.32.45.45,0,0,0,.13.35.52.52,0,0,0,.38.11.82.82,0,0,0,.38-.09A1.72,1.72,0,0,0,192.19,107Z"/><path class="b211d927-8901-4953-b868-33f11eb521f6" d="M195.36,107.68h-.45v-2.3h-1.2v2.3h-.45V105h2.1Z"/><path class="b211d927-8901-4953-b868-33f11eb521f6" d="M198.11,107.68h-.44v-2l-1.26,2H196V105h.44v2l1.24-2h.42Z"/><path class="b211d927-8901-4953-b868-33f11eb521f6" d="M201.9,107.68h-3.14V105h.44v2.3h.91V105h.44v2.3h.91V105h.44Z"/><path class="b211d927-8901-4953-b868-33f11eb521f6" d="M204.65,107.68h-.44v-2l-1.26,2h-.4V105H203v2l1.24-2h.42Z"/><path class="b211d927-8901-4953-b868-33f11eb521f6" d="M207.24,105.39h-.91v2.29h-.44v-2.29H205V105h2.26Z"/><path class="b211d927-8901-4953-b868-33f11eb521f6" d="M208.73,107.74a1.31,1.31,0,0,1-1-.36,1.44,1.44,0,0,1-.35-1,1.53,1.53,0,0,1,.34-1,1.12,1.12,0,0,1,.89-.39,1.23,1.23,0,0,1,.44.08.87.87,0,0,1,.33.22,1,1,0,0,1,.22.38,1.73,1.73,0,0,1,.07.54v.25h-1.84a1,1,0,0,0,.24.72.84.84,0,0,0,.64.24,1.36,1.36,0,0,0,.29,0,1.14,1.14,0,0,0,.26-.09l.2-.1.14-.1h0v.49l-.19.08a1.28,1.28,0,0,1-.21.07l-.24.06Zm.52-1.71a1.37,1.37,0,0,0,0-.31,1.23,1.23,0,0,0-.11-.23.59.59,0,0,0-.51-.2.67.67,0,0,0-.3,0,.87.87,0,0,0-.23.16.83.83,0,0,0-.15.23.94.94,0,0,0-.07.3Z"/><path class="b211d927-8901-4953-b868-33f11eb521f6" d="M212.72,107.74a1.4,1.4,0,0,1-.51-.09,1,1,0,0,1-.39-.26,1.14,1.14,0,0,1-.25-.43,2,2,0,0,1-.09-.62,1.82,1.82,0,0,1,.09-.61,1.33,1.33,0,0,1,.25-.44,1.05,1.05,0,0,1,.39-.27,1.44,1.44,0,0,1,.51-.09,1.52,1.52,0,0,1,.42.06,2.46,2.46,0,0,1,.36.14v.51h0l-.13-.09-.18-.11-.22-.09a1,1,0,0,0-.24,0,.7.7,0,0,0-.56.26,1.21,1.21,0,0,0-.21.76,1.25,1.25,0,0,0,.2.74.68.68,0,0,0,.57.26,1,1,0,0,0,.42-.09,1.63,1.63,0,0,0,.35-.23h0v.5a1.19,1.19,0,0,1-.16.08l-.19.07-.2,0Z"/><path class="b211d927-8901-4953-b868-33f11eb521f6" d="M216,106.86a.78.78,0,0,1-.07.35.82.82,0,0,1-.2.25.84.84,0,0,1-.34.17,1.75,1.75,0,0,1-.43.05h-1V105h1a2.31,2.31,0,0,1,.42,0,.72.72,0,0,1,.27.09.45.45,0,0,1,.21.2.74.74,0,0,1,.07.31.58.58,0,0,1-.11.34.73.73,0,0,1-.28.24v0a.67.67,0,0,1,.37.22A.62.62,0,0,1,216,106.86Zm-.59-1.18a.38.38,0,0,0,0-.16.23.23,0,0,0-.11-.11.38.38,0,0,0-.19,0h-.72v.74h.52l.23,0a.34.34,0,0,0,.15-.07.24.24,0,0,0,.11-.13A.38.38,0,0,0,215.4,105.68Zm.13,1.19a.43.43,0,0,0,0-.22.29.29,0,0,0-.17-.15.35.35,0,0,0-.18,0h-.79v.88h.39l.37,0a.69.69,0,0,0,.23-.08.36.36,0,0,0,.15-.15A.4.4,0,0,0,215.53,106.87Z"/><path class="b211d927-8901-4953-b868-33f11eb521f6" d="M218.65,106.33a1.55,1.55,0,0,1-.32,1,1.19,1.19,0,0,1-1.73,0,1.52,1.52,0,0,1-.32-1,1.56,1.56,0,0,1,.32-1,1.11,1.11,0,0,1,.87-.38,1.09,1.09,0,0,1,.86.38A1.54,1.54,0,0,1,218.65,106.33Zm-.46,0a1.27,1.27,0,0,0-.19-.77.68.68,0,0,0-1.07,0,1.66,1.66,0,0,0,0,1.54.62.62,0,0,0,.54.26.59.59,0,0,0,.53-.26A1.25,1.25,0,0,0,218.19,106.33Z"/><path class="b211d927-8901-4953-b868-33f11eb521f6" d="M221.21,107.68h-.44v-2l-1.25,2h-.41V105h.44v2l1.24-2h.42Zm-.2-3.94a1.52,1.52,0,0,1,0,.38.82.82,0,0,1-.14.28.61.61,0,0,1-.24.19.73.73,0,0,1-.35.07.86.86,0,0,1-.34-.07.67.67,0,0,1-.25-.19.89.89,0,0,1-.15-.29,1.38,1.38,0,0,1-.05-.37h.39a.82.82,0,0,0,.1.47.34.34,0,0,0,.3.14.36.36,0,0,0,.29-.14.79.79,0,0,0,.11-.47Z"/><path class="b211d927-8901-4953-b868-33f11eb521f6" d="M225.52,107.68H225l-.91-1.24h-.22v1.24h-.45V105h.45v1.17a.61.61,0,0,0,.3-.08.46.46,0,0,0,.2-.27l.06-.14a1.21,1.21,0,0,0,.05-.14.81.81,0,0,1,.29-.42.91.91,0,0,1,.49-.12h.12v.39h-.1a.42.42,0,0,0-.29.08.56.56,0,0,0-.15.28,1.27,1.27,0,0,1-.16.33.67.67,0,0,1-.2.18Z"/><path class="b211d927-8901-4953-b868-33f11eb521f6" d="M228,106.33a1.5,1.5,0,0,1-.33,1,1.06,1.06,0,0,1-.86.37,1.08,1.08,0,0,1-.87-.38,1.58,1.58,0,0,1-.32-1,1.51,1.51,0,0,1,.33-1,1.09,1.09,0,0,1,.86-.38,1.07,1.07,0,0,1,.86.38A1.49,1.49,0,0,1,228,106.33Zm-.47,0a1.35,1.35,0,0,0-.18-.77.69.69,0,0,0-1.08,0,1.66,1.66,0,0,0,0,1.54.65.65,0,0,0,.54.26.62.62,0,0,0,.54-.26A1.33,1.33,0,0,0,227.53,106.33Z"/><path class="b211d927-8901-4953-b868-33f11eb521f6" d="M230.92,107.68h-.44v-2.12l-.64,1.38h-.33l-.64-1.38v2.12h-.41V105H229l.7,1.49.67-1.49h.55Z"/><path class="b211d927-8901-4953-b868-33f11eb521f6" d="M234,107.68h-.44v-2.12l-.64,1.38h-.33l-.63-1.38v2.12h-.42V105h.54l.7,1.49.67-1.49H234Z"/><path class="b211d927-8901-4953-b868-33f11eb521f6" d="M235.84,107.74a1.31,1.31,0,0,1-1-.36,1.44,1.44,0,0,1-.35-1,1.53,1.53,0,0,1,.34-1,1.12,1.12,0,0,1,.89-.39,1.23,1.23,0,0,1,.44.08.87.87,0,0,1,.33.22,1,1,0,0,1,.22.38,1.73,1.73,0,0,1,.07.54v.25H235a1,1,0,0,0,.24.72.84.84,0,0,0,.64.24,1.36,1.36,0,0,0,.29,0,1.14,1.14,0,0,0,.26-.09,1.23,1.23,0,0,0,.2-.1l.14-.1h0v.49l-.19.08a1.28,1.28,0,0,1-.21.07l-.24.06Zm.52-1.71a1.37,1.37,0,0,0,0-.31.82.82,0,0,0-.11-.23.59.59,0,0,0-.51-.2.67.67,0,0,0-.3,0,.87.87,0,0,0-.23.16.83.83,0,0,0-.15.23.94.94,0,0,0-.07.3Z"/><path class="b211d927-8901-4953-b868-33f11eb521f6" d="M239.35,107.68h-.45v-1.21h-1.21v1.21h-.44V105h.44v1.09h1.21V105h.45Z"/><path class="b211d927-8901-4953-b868-33f11eb521f6" d="M241.93,105.39H241v2.29h-.45v-2.29h-.9V105h2.25Z"/><path class="b211d927-8901-4953-b868-33f11eb521f6" d="M243.75,107.39l-.14.11a1.4,1.4,0,0,1-.18.12l-.23.1a1.3,1.3,0,0,1-.31,0,.78.78,0,0,1-.31-.06.68.68,0,0,1-.26-.18.73.73,0,0,1-.17-.27.8.8,0,0,1-.07-.34.9.9,0,0,1,.12-.48.82.82,0,0,1,.37-.31,1.58,1.58,0,0,1,.53-.14,6.26,6.26,0,0,1,.65-.06v-.09a.53.53,0,0,0-.05-.26.37.37,0,0,0-.13-.15.65.65,0,0,0-.21-.07l-.25,0a1.8,1.8,0,0,0-.37.05,2.3,2.3,0,0,0-.42.14h0v-.46a2.7,2.7,0,0,1,.35-.08,2.49,2.49,0,0,1,.46,0,2,2,0,0,1,.46,0,1,1,0,0,1,.34.15.7.7,0,0,1,.22.29,1.33,1.33,0,0,1,.07.43v1.84h-.45Zm0-.38v-.74l-.4,0a3,3,0,0,0-.4.07.77.77,0,0,0-.29.17.42.42,0,0,0-.12.32.48.48,0,0,0,.13.35.54.54,0,0,0,.38.11.79.79,0,0,0,.38-.09A1.72,1.72,0,0,0,243.75,107Z"/><path class="b211d927-8901-4953-b868-33f11eb521f6" d="M247.06,106.26a1.66,1.66,0,0,1-.32,1.07,1,1,0,0,1-.81.4,1.29,1.29,0,0,1-.35,0,1.19,1.19,0,0,1-.31-.14v1.13h-.44V105h.44v.28a1.51,1.51,0,0,1,.37-.25,1,1,0,0,1,.45-.11.83.83,0,0,1,.71.37A1.67,1.67,0,0,1,247.06,106.26Zm-.47,0a1.42,1.42,0,0,0-.14-.71.51.51,0,0,0-.47-.26.81.81,0,0,0-.37.09,1.79,1.79,0,0,0-.34.22v1.52a1.54,1.54,0,0,0,.3.12,1.29,1.29,0,0,0,.29,0,.64.64,0,0,0,.54-.25A1.28,1.28,0,0,0,246.59,106.31Z"/><path class="b211d927-8901-4953-b868-33f11eb521f6" d="M249.62,107.68h-.44v-2l-1.26,2h-.4V105H248v2l1.24-2h.42Z"/><path class="b211d927-8901-4953-b868-33f11eb521f6" d="M252.36,107.68h-.44v-2l-1.25,2h-.4V105h.44v2l1.24-2h.41Zm-.19-3.94a1.52,1.52,0,0,1,0,.38,1.06,1.06,0,0,1-.15.28.61.61,0,0,1-.24.19.73.73,0,0,1-.35.07.89.89,0,0,1-.34-.07.67.67,0,0,1-.25-.19.87.87,0,0,1-.14-.29,1.07,1.07,0,0,1-.05-.37H251a.91.91,0,0,0,.1.47.36.36,0,0,0,.3.14.34.34,0,0,0,.29-.14.79.79,0,0,0,.11-.47Z"/><path class="b211d927-8901-4953-b868-33f11eb521f6" d="M253.71,107.68h-.57V107h.57Z"/><path class="b211d927-8901-4953-b868-33f11eb521f6" d="M255.19,107.68h-.57V107h.57Z"/><path class="b211d927-8901-4953-b868-33f11eb521f6" d="M256.66,107.68h-.57V107h.57Z"/></svg>