<svg width="324" height="117" viewBox="0 0 324 117" fill="none" xmlns="http://www.w3.org/2000/svg">
<path d="M45.3072 97.2791H44.1529V90.3533L40.2095 97.2791H39.0377V88.5544H40.192V95.3689L44.0826 88.5544H45.3072V97.2791ZM53.2467 89.5564C53.5787 89.9392 53.8365 90.4138 54.0201 90.9802C54.2037 91.5466 54.2955 92.1931 54.2955 92.9197C54.2955 93.6267 54.2056 94.2654 54.0259 94.8357C53.8463 95.406 53.5865 95.8845 53.2467 96.2712C52.8912 96.6775 52.4752 96.9783 51.9986 97.1736C51.5259 97.365 51.0045 97.4607 50.4342 97.4607C49.8443 97.4607 49.3131 97.3611 48.8404 97.1619C48.3677 96.9626 47.9615 96.6658 47.6217 96.2712C47.2857 95.8845 47.0279 95.408 46.8482 94.8416C46.6685 94.2751 46.5787 93.6345 46.5787 92.9197C46.5787 92.1853 46.6685 91.5408 46.8482 90.9861C47.0318 90.4314 47.2916 89.9548 47.6275 89.5564C47.9634 89.1697 48.3677 88.8767 48.8404 88.6775C49.317 88.4744 49.8482 88.3728 50.4342 88.3728C51.0279 88.3728 51.5631 88.4763 52.0396 88.6833C52.5162 88.8904 52.9185 89.1814 53.2467 89.5564ZM53.0884 92.9197C53.0884 92.3416 53.0259 91.8298 52.9009 91.3845C52.7759 90.9392 52.6002 90.5701 52.3736 90.2771C52.1431 89.9763 51.8638 89.7517 51.5357 89.6033C51.2115 89.4509 50.8463 89.3748 50.44 89.3748C50.0181 89.3748 49.649 89.449 49.3326 89.5974C49.0201 89.7419 48.7427 89.9685 48.5006 90.2771C48.2701 90.574 48.0924 90.947 47.9674 91.3962C47.8463 91.8455 47.7857 92.3533 47.7857 92.9197C47.7857 94.0642 48.0259 94.9412 48.5064 95.5505C48.9869 96.156 49.6314 96.4587 50.44 96.4587C51.2486 96.4587 51.8912 96.156 52.3677 95.5505C52.8482 94.9412 53.0884 94.0642 53.0884 92.9197ZM61.4322 97.2791H60.272V93.5876C59.7955 93.7439 59.3717 93.8611 59.0006 93.9392C58.6295 94.0173 58.2408 94.0564 57.8345 94.0564C57.4595 94.0564 57.1158 94.0115 56.8033 93.9216C56.4908 93.8279 56.2154 93.6794 55.9771 93.4763C55.7427 93.2732 55.5592 93.0115 55.4263 92.6912C55.2974 92.3708 55.233 91.9919 55.233 91.5544V88.5544H56.3931V90.9744C56.3931 91.3416 56.4068 91.6326 56.4342 91.8474C56.4615 92.0583 56.5396 92.2615 56.6685 92.4568C56.7818 92.6287 56.9498 92.7615 57.1724 92.8552C57.3951 92.9451 57.692 92.99 58.0631 92.99C58.3951 92.99 58.7701 92.9529 59.1881 92.8787C59.606 92.8005 59.9674 92.7048 60.272 92.5916V88.5544H61.4322V97.2791Z" fill="#8C99B2"/>
<mask id="mask0" mask-type="alpha" maskUnits="userSpaceOnUse" x="5" y="16" width="92" height="92">
<circle cx="50.8792" cy="61.8792" r="42.3792" stroke="white" stroke-width="7" stroke-dasharray="90 3"/>
</mask>
<g mask="url(#mask0)">
<rect x="77.3927" y="29.8159" width="23.8565" height="64.0881" rx="8" fill="#EA1F1F" fill-opacity="0.2"/>
</g>
<mask id="mask1" mask-type="alpha" maskUnits="userSpaceOnUse" x="5" y="16" width="92" height="92">
<circle cx="50.8792" cy="61.8792" r="42.3792" stroke="white" stroke-width="7" stroke-dasharray="90 3"/>
</mask>
<g mask="url(#mask1)">
<rect x="82.5997" y="-1.16113" width="35.065" height="63.4683" rx="5" transform="rotate(90 82.5997 -1.16113)" fill="#00A99D"/>
</g>
<mask id="mask2" mask-type="alpha" maskUnits="userSpaceOnUse" x="5" y="16" width="92" height="92">
<circle cx="50.8792" cy="61.8792" r="42.3792" stroke="white" stroke-width="7" stroke-dasharray="90 3"/>
</mask>
<g mask="url(#mask2)">
<rect x="-11.3607" y="29.864" width="34.4377" height="63.6886" rx="6" fill="#F4A321" fill-opacity="0.2"/>
</g>
<path d="M45.5679 64.7778H38.8413V63.0005H40.9878V57.6206H38.8413V55.9595C39.1558 55.9595 39.4679 55.939 39.7778 55.8979C40.0877 55.8569 40.3361 55.7909 40.5229 55.6997C40.7417 55.5903 40.9103 55.4445 41.0288 55.2622C41.1519 55.0754 41.2225 54.8452 41.2407 54.5718H43.4692V63.0005H45.5679V64.7778ZM54.8032 59.6851C54.8032 60.5646 54.7326 61.3348 54.5913 61.9956C54.45 62.6564 54.2244 63.2078 53.9146 63.6499C53.6047 64.092 53.2013 64.4269 52.7046 64.6548C52.2078 64.8781 51.5994 64.9897 50.8794 64.9897C50.1639 64.9897 49.5578 64.8781 49.061 64.6548C48.5643 64.4269 48.1587 64.0874 47.8442 63.6362C47.5343 63.1896 47.3088 62.6405 47.1675 61.9888C47.0262 61.3325 46.9556 60.5669 46.9556 59.6919C46.9556 58.7896 47.0239 58.0194 47.1606 57.3813C47.3019 56.7433 47.5343 56.1942 47.8579 55.7339C48.1769 55.2827 48.5871 54.9478 49.0884 54.729C49.5897 54.5057 50.1867 54.394 50.8794 54.394C51.6131 54.394 52.2238 54.5103 52.7114 54.7427C53.2036 54.9705 53.6069 55.3123 53.9214 55.7681C54.2313 56.2147 54.4546 56.7661 54.5913 57.4224C54.7326 58.0786 54.8032 58.8328 54.8032 59.6851ZM52.2397 59.6851C52.2397 58.4272 52.1349 57.5454 51.9253 57.0396C51.7202 56.5291 51.3716 56.2739 50.8794 56.2739C50.3918 56.2739 50.0431 56.5291 49.8335 57.0396C49.6239 57.5454 49.519 58.4318 49.519 59.6987C49.519 60.9383 49.6239 61.8179 49.8335 62.3374C50.0431 62.8524 50.3918 63.1099 50.8794 63.1099C51.367 63.1099 51.7157 62.8524 51.9253 62.3374C52.1349 61.8179 52.2397 60.9338 52.2397 59.6851ZM63.6147 61.3325C63.6147 61.8612 63.5236 62.3511 63.3413 62.8022C63.1636 63.2534 62.8947 63.6431 62.5347 63.9712C62.1792 64.2948 61.7554 64.5454 61.2632 64.7231C60.7756 64.9009 60.174 64.9897 59.4585 64.9897C58.702 64.9852 58.0503 64.9191 57.5034 64.7915C56.9611 64.6685 56.5122 64.5295 56.1567 64.3745V62.1528H56.3892C56.5168 62.2257 56.6603 62.3078 56.8198 62.3989C56.9793 62.4901 57.189 62.5858 57.4487 62.686C57.6903 62.7817 57.9341 62.8615 58.1802 62.9253C58.4308 62.9845 58.7088 63.0142 59.0142 63.0142C59.2785 63.0142 59.5633 62.9823 59.8687 62.9185C60.174 62.8501 60.4201 62.7293 60.6069 62.5562C60.7437 62.4194 60.8507 62.2668 60.9282 62.0981C61.0057 61.9295 61.0444 61.7039 61.0444 61.4214C61.0444 61.1844 60.9943 60.9816 60.894 60.813C60.7983 60.6398 60.6707 60.5008 60.5112 60.396C60.2788 60.241 59.9985 60.1431 59.6704 60.1021C59.3423 60.0565 59.0597 60.0337 58.8228 60.0337C58.4491 60.0337 58.0845 60.0633 57.729 60.1226C57.3781 60.1818 57.0728 60.2456 56.813 60.314H56.5942V54.5991H63.3345V56.52H59.0073V58.2153C59.144 58.2062 59.3058 58.1994 59.4927 58.1948C59.6841 58.1857 59.8322 58.1812 59.937 58.1812C60.4246 58.1812 60.8758 58.2313 61.2905 58.3315C61.7052 58.4272 62.0721 58.5776 62.3911 58.7827C62.7785 59.0334 63.0793 59.3706 63.2935 59.7944C63.5076 60.2137 63.6147 60.7264 63.6147 61.3325Z" fill="white"/>
<path d="M157.911 97.2791H156.751V89.7615L154.477 94.8767H153.774L151.518 89.7615V97.2791H150.434V88.5544H152.016L154.196 93.4119L156.299 88.5544H157.911V97.2791ZM165.85 89.5564C166.182 89.9392 166.44 90.4138 166.624 90.9802C166.807 91.5466 166.899 92.1931 166.899 92.9197C166.899 93.6267 166.809 94.2654 166.629 94.8357C166.45 95.406 166.19 95.8845 165.85 96.2712C165.495 96.6775 165.079 96.9783 164.602 97.1736C164.129 97.365 163.608 97.4607 163.038 97.4607C162.448 97.4607 161.917 97.3611 161.444 97.1619C160.971 96.9626 160.565 96.6658 160.225 96.2712C159.889 95.8845 159.631 95.408 159.452 94.8416C159.272 94.2751 159.182 93.6345 159.182 92.9197C159.182 92.1853 159.272 91.5408 159.452 90.9861C159.635 90.4314 159.895 89.9548 160.231 89.5564C160.567 89.1697 160.971 88.8767 161.444 88.6775C161.92 88.4744 162.452 88.3728 163.038 88.3728C163.631 88.3728 164.167 88.4763 164.643 88.6833C165.12 88.8904 165.522 89.1814 165.85 89.5564ZM165.692 92.9197C165.692 92.3416 165.629 91.8298 165.504 91.3845C165.379 90.9392 165.204 90.5701 164.977 90.2771C164.747 89.9763 164.467 89.7517 164.139 89.6033C163.815 89.4509 163.45 89.3748 163.044 89.3748C162.622 89.3748 162.253 89.449 161.936 89.5974C161.624 89.7419 161.346 89.9685 161.104 90.2771C160.874 90.574 160.696 90.947 160.571 91.3962C160.45 91.8455 160.389 92.3533 160.389 92.9197C160.389 94.0642 160.629 94.9412 161.11 95.5505C161.59 96.156 162.235 96.4587 163.044 96.4587C163.852 96.4587 164.495 96.156 164.971 95.5505C165.452 94.9412 165.692 94.0642 165.692 92.9197ZM174.036 97.2791H172.876V93.5876C172.399 93.7439 171.975 93.8611 171.604 93.9392C171.233 94.0173 170.844 94.0564 170.438 94.0564C170.063 94.0564 169.719 94.0115 169.407 93.9216C169.094 93.8279 168.819 93.6794 168.581 93.4763C168.346 93.2732 168.163 93.0115 168.03 92.6912C167.901 92.3708 167.836 91.9919 167.836 91.5544V88.5544H168.997V90.9744C168.997 91.3416 169.01 91.6326 169.038 91.8474C169.065 92.0583 169.143 92.2615 169.272 92.4568C169.385 92.6287 169.553 92.7615 169.776 92.8552C169.999 92.9451 170.295 92.99 170.667 92.99C170.999 92.99 171.374 92.9529 171.792 92.8787C172.21 92.8005 172.571 92.7048 172.876 92.5916V88.5544H174.036V97.2791Z" fill="#8C99B2"/>
<mask id="mask3" mask-type="alpha" maskUnits="userSpaceOnUse" x="117" y="16" width="92" height="92">
<circle cx="162.879" cy="61.8792" r="42.3792" stroke="white" stroke-width="7" stroke-dasharray="90 3"/>
</mask>
<g mask="url(#mask3)">
<rect x="189.393" y="29.8159" width="23.8565" height="64.0881" rx="8" fill="#EB5757"/>
</g>
<mask id="mask4" mask-type="alpha" maskUnits="userSpaceOnUse" x="117" y="16" width="92" height="92">
<circle cx="162.879" cy="61.8792" r="42.3792" stroke="white" stroke-width="7" stroke-dasharray="90 3"/>
</mask>
<g mask="url(#mask4)">
<rect x="194.6" y="-1.16113" width="35.065" height="63.4683" rx="5" transform="rotate(90 194.6 -1.16113)" fill="#6FCF97" fill-opacity="0.2"/>
</g>
<mask id="mask5" mask-type="alpha" maskUnits="userSpaceOnUse" x="117" y="16" width="92" height="92">
<circle cx="162.879" cy="61.8792" r="42.3792" stroke="white" stroke-width="7" stroke-dasharray="90 3"/>
</mask>
<g mask="url(#mask5)">
<rect x="100.639" y="29.864" width="34.4377" height="63.6886" rx="6" fill="#F4A321" fill-opacity="0.2"/>
</g>
<path d="M157.568 64.7778H150.841V63.0005H152.988V57.6206H150.841V55.9595C151.156 55.9595 151.468 55.939 151.778 55.8979C152.088 55.8569 152.336 55.7909 152.523 55.6997C152.742 55.5903 152.91 55.4445 153.029 55.2622C153.152 55.0754 153.222 54.8452 153.241 54.5718H155.469V63.0005H157.568V64.7778ZM166.803 59.6851C166.803 60.5646 166.733 61.3348 166.591 61.9956C166.45 62.6564 166.224 63.2078 165.915 63.6499C165.605 64.092 165.201 64.4269 164.705 64.6548C164.208 64.8781 163.599 64.9897 162.879 64.9897C162.164 64.9897 161.558 64.8781 161.061 64.6548C160.564 64.4269 160.159 64.0874 159.844 63.6362C159.534 63.1896 159.309 62.6405 159.167 61.9888C159.026 61.3325 158.956 60.5669 158.956 59.6919C158.956 58.7896 159.024 58.0194 159.161 57.3813C159.302 56.7433 159.534 56.1942 159.858 55.7339C160.177 55.2827 160.587 54.9478 161.088 54.729C161.59 54.5057 162.187 54.394 162.879 54.394C163.613 54.394 164.224 54.5103 164.711 54.7427C165.204 54.9705 165.607 55.3123 165.921 55.7681C166.231 56.2147 166.455 56.7661 166.591 57.4224C166.733 58.0786 166.803 58.8328 166.803 59.6851ZM164.24 59.6851C164.24 58.4272 164.135 57.5454 163.925 57.0396C163.72 56.5291 163.372 56.2739 162.879 56.2739C162.392 56.2739 162.043 56.5291 161.833 57.0396C161.624 57.5454 161.519 58.4318 161.519 59.6987C161.519 60.9383 161.624 61.8179 161.833 62.3374C162.043 62.8524 162.392 63.1099 162.879 63.1099C163.367 63.1099 163.716 62.8524 163.925 62.3374C164.135 61.8179 164.24 60.9338 164.24 59.6851ZM175.622 56.6226L171.288 64.7778H168.444L172.99 56.52H168.136V54.5991H175.622V56.6226Z" fill="white"/>
<path d="M263.299 97.4373C262.729 97.4373 262.204 97.3416 261.723 97.1501C261.247 96.9587 260.835 96.6736 260.487 96.2947C260.139 95.9158 259.87 95.4431 259.678 94.8767C259.487 94.3103 259.391 93.6599 259.391 92.9255C259.391 92.1951 259.483 91.5583 259.667 91.0154C259.854 90.4724 260.126 89.9998 260.481 89.5974C260.829 89.2068 261.241 88.9099 261.717 88.7068C262.194 88.4998 262.727 88.3962 263.317 88.3962C263.61 88.3962 263.883 88.4177 264.137 88.4607C264.395 88.5037 264.633 88.5583 264.852 88.6248C265.04 88.6833 265.231 88.7576 265.426 88.8474C265.626 88.9333 265.821 89.0291 266.012 89.1345V90.5349H265.919C265.817 90.4412 265.686 90.3279 265.526 90.1951C265.366 90.0623 265.17 89.9314 264.94 89.8025C264.717 89.6814 264.475 89.5818 264.213 89.5037C263.952 89.4255 263.649 89.3865 263.305 89.3865C262.934 89.3865 262.583 89.4626 262.251 89.615C261.919 89.7673 261.628 89.9919 261.378 90.2888C261.131 90.5857 260.94 90.9587 260.803 91.408C260.667 91.8572 260.598 92.363 260.598 92.9255C260.598 93.5232 260.67 94.0388 260.815 94.4724C260.96 94.9021 261.157 95.2654 261.407 95.5623C261.649 95.8513 261.934 96.0701 262.262 96.2185C262.59 96.363 262.938 96.4353 263.305 96.4353C263.641 96.4353 263.952 96.3943 264.237 96.3123C264.522 96.2302 264.776 96.1267 264.999 96.0017C265.213 95.8806 265.399 95.7576 265.555 95.6326C265.711 95.5037 265.835 95.3943 265.924 95.3044H266.012V96.6873C265.821 96.7771 265.639 96.863 265.467 96.9451C265.299 97.0271 265.094 97.1072 264.852 97.1853C264.598 97.2673 264.362 97.3298 264.143 97.3728C263.928 97.4158 263.647 97.4373 263.299 97.4373ZM269.85 97.4314C268.807 97.4314 267.997 97.1384 267.419 96.5525C266.844 95.9626 266.557 95.1267 266.557 94.0447C266.557 92.9783 266.836 92.1306 267.395 91.5017C267.954 90.8689 268.684 90.5525 269.586 90.5525C269.993 90.5525 270.352 90.6111 270.665 90.7283C270.977 90.8455 271.251 91.0291 271.485 91.2791C271.719 91.5291 271.899 91.8357 272.024 92.199C272.149 92.5583 272.211 92.9998 272.211 93.5232V94.1208H267.676C267.676 94.8826 267.868 95.4646 268.251 95.8669C268.633 96.2693 269.163 96.4705 269.838 96.4705C270.081 96.4705 270.317 96.4431 270.547 96.3884C270.782 96.3337 270.993 96.2634 271.18 96.1775C271.379 96.0876 271.547 96.0017 271.684 95.9197C271.821 95.8337 271.934 95.7537 272.024 95.6794H272.088V96.8806C271.96 96.9314 271.799 96.9958 271.608 97.074C271.417 97.1482 271.245 97.2068 271.092 97.2498C270.878 97.3083 270.682 97.3533 270.506 97.3845C270.335 97.4158 270.116 97.4314 269.85 97.4314ZM271.139 93.2771C271.131 92.9802 271.096 92.7244 271.034 92.5095C270.971 92.2947 270.881 92.113 270.764 91.9646C270.635 91.8005 270.469 91.6755 270.266 91.5896C270.067 91.5037 269.819 91.4607 269.522 91.4607C269.229 91.4607 268.979 91.5056 268.772 91.5955C268.569 91.6814 268.383 91.8083 268.215 91.9763C268.051 92.1482 267.926 92.3396 267.84 92.5505C267.754 92.7576 267.7 92.9998 267.676 93.2771H271.139ZM278.815 93.8337C278.815 94.9236 278.553 95.7927 278.03 96.4412C277.51 97.0857 276.852 97.408 276.055 97.408C275.731 97.408 275.444 97.3708 275.194 97.2966C274.944 97.2224 274.688 97.1072 274.426 96.9509V99.6931H273.325V90.7341H274.426V91.4197C274.7 91.1736 275.003 90.9685 275.335 90.8044C275.67 90.6365 276.036 90.5525 276.43 90.5525C277.18 90.5525 277.764 90.8494 278.182 91.4431C278.604 92.0369 278.815 92.8337 278.815 93.8337ZM277.678 93.9568C277.678 93.2107 277.559 92.6326 277.321 92.2224C277.083 91.8083 276.696 91.6013 276.161 91.6013C275.848 91.6013 275.545 91.6716 275.253 91.8123C274.963 91.949 274.688 92.1267 274.426 92.3455V96.0544C274.715 96.1951 274.961 96.2908 275.165 96.3416C275.372 96.3923 275.608 96.4177 275.874 96.4177C276.444 96.4177 276.887 96.2087 277.204 95.7908C277.52 95.3728 277.678 94.7615 277.678 93.9568ZM283.614 95.6677V93.8513C283.352 93.8748 283.02 93.908 282.618 93.9509C282.219 93.99 281.897 94.0466 281.651 94.1208C281.358 94.2107 281.116 94.3494 280.924 94.5369C280.733 94.7205 280.637 94.9783 280.637 95.3103C280.637 95.6853 280.743 95.9685 280.954 96.1599C281.165 96.3513 281.473 96.447 281.879 96.447C282.227 96.447 282.542 96.3728 282.823 96.2244C283.104 96.072 283.368 95.8865 283.614 95.6677ZM283.614 96.5818C283.524 96.6482 283.403 96.7419 283.251 96.863C283.102 96.9802 282.958 97.074 282.817 97.1443C282.622 97.2458 282.432 97.324 282.249 97.3787C282.069 97.4333 281.815 97.4607 281.487 97.4607C281.217 97.4607 280.961 97.4099 280.719 97.3083C280.477 97.2068 280.264 97.0642 280.081 96.8806C279.905 96.7009 279.764 96.4802 279.659 96.2185C279.553 95.9529 279.501 95.6736 279.501 95.3806C279.501 94.9275 279.596 94.5427 279.788 94.2263C279.979 93.906 280.282 93.6521 280.696 93.4646C281.063 93.2966 281.497 93.1814 281.997 93.1189C282.497 93.0525 283.036 93.0037 283.614 92.9724V92.7615C283.614 92.5037 283.575 92.2966 283.497 92.1404C283.419 91.9802 283.309 91.8572 283.169 91.7712C283.028 91.6814 282.856 91.6228 282.653 91.5955C282.45 91.5642 282.241 91.5486 282.026 91.5486C281.772 91.5486 281.473 91.5876 281.129 91.6658C280.786 91.74 280.442 91.8494 280.098 91.9939H280.034V90.8748C280.237 90.8162 280.528 90.7517 280.907 90.6814C281.286 90.6111 281.661 90.5759 282.032 90.5759C282.481 90.5759 282.86 90.6111 283.169 90.6814C283.477 90.7517 283.754 90.8787 284.001 91.0623C284.239 91.2419 284.417 91.4744 284.534 91.7595C284.651 92.0447 284.71 92.3923 284.71 92.8025V97.2791H283.614V96.5818Z" fill="#8C99B2"/>
<mask id="mask6" mask-type="alpha" maskUnits="userSpaceOnUse" x="227" y="16" width="92" height="92">
<circle cx="272.879" cy="61.8792" r="42.3792" stroke="white" stroke-width="7" stroke-dasharray="90 3"/>
</mask>
<g mask="url(#mask6)">
<rect x="299.393" y="29.8159" width="23.8565" height="64.0881" rx="8" fill="#EB5757"/>
</g>
<mask id="mask7" mask-type="alpha" maskUnits="userSpaceOnUse" x="227" y="16" width="92" height="92">
<circle cx="272.879" cy="61.8792" r="42.3792" stroke="white" stroke-width="7" stroke-dasharray="90 3"/>
</mask>
<g mask="url(#mask7)">
<rect x="304.6" y="-1.16113" width="35.065" height="63.4683" rx="5" transform="rotate(90 304.6 -1.16113)" fill="#6FCF97" fill-opacity="0.2"/>
</g>
<mask id="mask8" mask-type="alpha" maskUnits="userSpaceOnUse" x="227" y="16" width="92" height="92">
<circle cx="272.879" cy="61.8792" r="42.3792" stroke="white" stroke-width="7" stroke-dasharray="90 3"/>
</mask>
<g mask="url(#mask8)">
<rect x="210.639" y="29.864" width="34.4377" height="63.6886" rx="6" fill="#F4A321" fill-opacity="0.2"/>
</g>
<path d="M267.568 64.7778H260.841V63.0005H262.988V57.6206H260.841V55.9595C261.156 55.9595 261.468 55.939 261.778 55.8979C262.088 55.8569 262.336 55.7909 262.523 55.6997C262.742 55.5903 262.91 55.4445 263.029 55.2622C263.152 55.0754 263.222 54.8452 263.241 54.5718H265.469V63.0005H267.568V64.7778ZM276.803 59.6851C276.803 60.5646 276.733 61.3348 276.591 61.9956C276.45 62.6564 276.224 63.2078 275.915 63.6499C275.605 64.092 275.201 64.4269 274.705 64.6548C274.208 64.8781 273.599 64.9897 272.879 64.9897C272.164 64.9897 271.558 64.8781 271.061 64.6548C270.564 64.4269 270.159 64.0874 269.844 63.6362C269.534 63.1896 269.309 62.6405 269.167 61.9888C269.026 61.3325 268.956 60.5669 268.956 59.6919C268.956 58.7896 269.024 58.0194 269.161 57.3813C269.302 56.7433 269.534 56.1942 269.858 55.7339C270.177 55.2827 270.587 54.9478 271.088 54.729C271.59 54.5057 272.187 54.394 272.879 54.394C273.613 54.394 274.224 54.5103 274.711 54.7427C275.204 54.9705 275.607 55.3123 275.921 55.7681C276.231 56.2147 276.455 56.7661 276.591 57.4224C276.733 58.0786 276.803 58.8328 276.803 59.6851ZM274.24 59.6851C274.24 58.4272 274.135 57.5454 273.925 57.0396C273.72 56.5291 273.372 56.2739 272.879 56.2739C272.392 56.2739 272.043 56.5291 271.833 57.0396C271.624 57.5454 271.519 58.4318 271.519 59.6987C271.519 60.9383 271.624 61.8179 271.833 62.3374C272.043 62.8524 272.392 63.1099 272.879 63.1099C273.367 63.1099 273.716 62.8524 273.925 62.3374C274.135 61.8179 274.24 60.9338 274.24 59.6851ZM285.622 56.6226L281.288 64.7778H278.444L282.99 56.52H278.136V54.5991H285.622V56.6226Z" fill="white"/>
</svg>
