<svg width="324" height="117" viewBox="0 0 324 117" fill="none" xmlns="http://www.w3.org/2000/svg">
<path d="M45.3651 101.285L42.3657 107.182H41.3736L44.55 101.062H40.9638V100.247H45.3651V101.285ZM50.4184 104.974C50.4184 105.31 50.364 105.62 50.2554 105.906C50.1498 106.191 50.0008 106.438 49.8083 106.646C49.6126 106.857 49.3689 107.023 49.077 107.145C48.7883 107.266 48.4638 107.326 48.1036 107.326C47.7714 107.326 47.4438 107.289 47.1209 107.214C46.8011 107.143 46.5232 107.048 46.2872 106.93V105.948H46.3524C46.4238 106 46.5263 106.061 46.6598 106.129C46.7933 106.194 46.9408 106.257 47.1023 106.316C47.2855 106.381 47.4531 106.432 47.6053 106.469C47.7574 106.503 47.9282 106.52 48.1176 106.52C48.3039 106.52 48.4855 106.488 48.6625 106.423C48.8395 106.354 48.9917 106.246 49.119 106.097C49.2338 105.96 49.3208 105.8 49.3798 105.617C49.4419 105.434 49.4729 105.218 49.4729 104.97C49.4729 104.724 49.4388 104.522 49.3705 104.364C49.3053 104.206 49.209 104.075 49.0817 103.973C48.9482 103.855 48.7836 103.773 48.588 103.726C48.3955 103.676 48.1797 103.651 47.9406 103.651C47.6891 103.651 47.4361 103.672 47.1815 103.712C46.9268 103.749 46.7235 103.785 46.5713 103.819V100.247H50.3765V101.062H47.4702V102.906C47.582 102.894 47.6922 102.885 47.8009 102.878C47.9096 102.872 48.0089 102.869 48.099 102.869C48.4529 102.869 48.7526 102.899 48.9979 102.958C49.2432 103.017 49.4791 103.131 49.7058 103.302C49.9356 103.476 50.111 103.693 50.2321 103.954C50.3563 104.215 50.4184 104.555 50.4184 104.974ZM53.9627 104.569H51.3359V103.726H53.9627V104.569ZM58.8158 107.182H55.4345V106.474H56.692V101.826H55.4345V101.192C55.9095 101.192 56.2588 101.126 56.4824 100.992C56.7091 100.855 56.8364 100.599 56.8643 100.224H57.5862V106.474H58.8158V107.182ZM64.4094 103.712C64.4094 104.957 64.2277 105.872 63.8645 106.455C63.5043 107.036 62.9469 107.326 62.1924 107.326C61.4286 107.326 60.8682 107.03 60.5111 106.437C60.154 105.844 59.9755 104.938 59.9755 103.721C59.9755 102.47 60.1556 101.556 60.5157 100.978C60.879 100.397 61.4379 100.107 62.1924 100.107C62.9562 100.107 63.5167 100.407 63.8738 101.006C64.2308 101.605 64.4094 102.507 64.4094 103.712ZM63.2171 105.827C63.3071 105.597 63.3708 105.306 63.408 104.956C63.4453 104.605 63.4639 104.19 63.4639 103.712C63.4639 103.237 63.4453 102.824 63.408 102.473C63.3708 102.122 63.3056 101.83 63.2124 101.598C63.1193 101.362 62.9904 101.183 62.8258 101.062C62.6644 100.938 62.4532 100.876 62.1924 100.876C61.9347 100.876 61.722 100.938 61.5544 101.062C61.3898 101.183 61.2594 101.365 61.1631 101.607C61.07 101.843 61.0063 102.141 60.9722 102.501C60.938 102.861 60.9209 103.268 60.9209 103.721C60.9209 104.206 60.9349 104.611 60.9629 104.937C60.9939 105.263 61.0591 105.555 61.1585 105.813C61.2485 106.052 61.3758 106.236 61.5404 106.367C61.708 106.494 61.9254 106.558 62.1924 106.558C62.4501 106.558 62.6613 106.497 62.8258 106.376C62.9935 106.252 63.1239 106.069 63.2171 105.827ZM69.6164 103.712C69.6164 104.957 69.4348 105.872 69.0715 106.455C68.7113 107.036 68.154 107.326 67.3995 107.326C66.6356 107.326 66.0752 107.03 65.7181 106.437C65.361 105.844 65.1825 104.938 65.1825 103.721C65.1825 102.47 65.3626 101.556 65.7228 100.978C66.0861 100.397 66.6449 100.107 67.3995 100.107C68.1633 100.107 68.7237 100.407 69.0808 101.006C69.4379 101.605 69.6164 102.507 69.6164 103.712ZM68.4241 105.827C68.5141 105.597 68.5778 105.306 68.6151 104.956C68.6523 104.605 68.6709 104.19 68.6709 103.712C68.6709 103.237 68.6523 102.824 68.6151 102.473C68.5778 102.122 68.5126 101.83 68.4194 101.598C68.3263 101.362 68.1974 101.183 68.0329 101.062C67.8714 100.938 67.6603 100.876 67.3995 100.876C67.1417 100.876 66.9291 100.938 66.7614 101.062C66.5968 101.183 66.4664 101.365 66.3702 101.607C66.277 101.843 66.2134 102.141 66.1792 102.501C66.145 102.861 66.128 103.268 66.128 103.721C66.128 104.206 66.1419 104.611 66.1699 104.937C66.2009 105.263 66.2661 105.555 66.3655 105.813C66.4555 106.052 66.5828 106.236 66.7474 106.367C66.9151 106.494 67.1324 106.558 67.3995 106.558C67.6572 106.558 67.8683 106.497 68.0329 106.376C68.2005 106.252 68.3309 106.069 68.4241 105.827ZM73.7615 102.17C73.7615 102.869 73.6203 103.388 73.3377 103.726C73.0583 104.061 72.6531 104.229 72.1221 104.229C71.5818 104.229 71.172 104.058 70.8925 103.717C70.6162 103.375 70.478 102.861 70.478 102.175C70.478 101.48 70.6193 100.963 70.9019 100.624C71.1844 100.286 71.5912 100.116 72.1221 100.116C72.6624 100.116 73.0707 100.287 73.347 100.629C73.6234 100.97 73.7615 101.484 73.7615 102.17ZM76.8634 100.247L73.2306 107.182H72.4621L76.0949 100.247H76.8634ZM78.8382 105.258C78.8382 105.957 78.6969 106.475 78.4143 106.814C78.1349 107.149 77.7297 107.317 77.1987 107.317C76.6585 107.317 76.2486 107.146 75.9692 106.805C75.6928 106.463 75.5547 105.949 75.5547 105.263C75.5547 104.567 75.6959 104.05 75.9785 103.712C76.261 103.374 76.6678 103.204 77.1987 103.204C77.739 103.204 78.1473 103.375 78.4236 103.717C78.7 104.058 78.8382 104.572 78.8382 105.258ZM72.9325 102.17C72.9325 101.698 72.8766 101.341 72.7648 101.099C72.6562 100.857 72.4419 100.736 72.1221 100.736C71.8023 100.736 71.5865 100.859 71.4747 101.104C71.3629 101.349 71.3071 101.706 71.3071 102.175C71.3071 102.641 71.3598 102.996 71.4654 103.242C71.571 103.487 71.7899 103.61 72.1221 103.61C72.4419 103.61 72.6562 103.487 72.7648 103.242C72.8766 102.996 72.9325 102.639 72.9325 102.17ZM78.0091 105.258C78.0091 104.786 77.9532 104.429 77.8415 104.187C77.7328 103.945 77.5185 103.824 77.1987 103.824C76.8789 103.824 76.6631 103.946 76.5513 104.192C76.4396 104.437 76.3837 104.794 76.3837 105.263C76.3837 105.729 76.4365 106.084 76.542 106.33C76.6476 106.575 76.8665 106.697 77.1987 106.697C77.5185 106.697 77.7328 106.575 77.8415 106.33C77.9532 106.084 78.0091 105.727 78.0091 105.258Z" fill="#606580"/>
<path d="M55.4915 77.3412H49.6691L52.0288 70.6102H53.1318L55.4915 77.3412ZM54.28 76.5636L52.5577 71.5007L50.8399 76.5636H54.28ZM61.2957 74.8052H58.7462V73.987H61.2957V74.8052ZM66.5259 75.0267H65.7258V77.3412H64.8579V75.0267H61.8834V74.0774L64.894 70.6102H65.7258V74.3034H66.5259V75.0267ZM64.8579 74.3034V71.6725L62.5886 74.3034H64.8579Z" fill="#F7931E"/>
<path d="M30.1115 98.1386C19.6996 89.7701 13.0426 76.9749 13.0426 62.6353C13.0426 37.4251 33.6184 16.9882 59 16.9882C84.3816 16.9882 104.957 37.4251 104.957 62.6353C104.957 76.9749 98.3004 89.7701 87.8885 98.1386" stroke="#12151E" stroke-width="12.9611"/>
<path d="M30.1115 98.1385C19.6996 89.7701 13.0426 76.9749 13.0426 62.6353C13.0426 37.4251 33.6184 16.9882 59 16.9882C84.3816 16.9882 104.957 37.4251 104.957 62.6353C104.957 76.9749 98.3004 89.7701 87.8885 98.1385" stroke="#F7931E" stroke-width="2.38462" stroke-dasharray="0.93 0.93"/>
<path d="M104.957 62.6353C104.957 37.4251 84.3816 16.9882 59 16.9882C33.6184 16.9882 13.0426 37.4251 13.0426 62.6353C13.0426 76.9749 19.6996 89.7701 30.1115 98.1386" stroke="#0089FF" stroke-width="2.38462" stroke-dasharray="0.93 0.93"/>
<path d="M93.0763 104.338L82.7984 91.9496" stroke="#0089FF" stroke-width="1.58974"/>
<path d="M25.1916 104.451L35.4766 91.9496" stroke="#0089FF" stroke-width="1.58974"/>
<path d="M57.2467 49.4715C57.2467 48.7636 57.1815 48.1884 57.0511 47.7459C56.9207 47.2988 56.7414 46.9541 56.5131 46.712C56.3082 46.4884 56.101 46.3347 55.8914 46.2509C55.6818 46.167 55.4512 46.1251 55.1997 46.1251C54.6269 46.1251 54.1704 46.33 53.8304 46.7399C53.4905 47.1498 53.3205 47.7436 53.3205 48.5214C53.3205 48.9592 53.3763 49.3201 53.4881 49.6042C53.5999 49.8883 53.7815 50.1329 54.033 50.3378C54.21 50.4822 54.4103 50.58 54.6339 50.6312C54.8574 50.6778 55.0973 50.7011 55.3534 50.7011C55.6515 50.7011 55.9729 50.6498 56.3175 50.5474C56.6622 50.4402 56.9626 50.3005 57.2187 50.1282C57.2234 50.0583 57.2281 49.9675 57.2327 49.8557C57.242 49.7393 57.2467 49.6112 57.2467 49.4715ZM51.9023 48.5773C51.9023 48.0417 51.9884 47.5526 52.1607 47.1102C52.3377 46.6677 52.5776 46.2858 52.8803 45.9644C53.1691 45.657 53.5207 45.4172 53.9352 45.2449C54.3544 45.0725 54.7782 44.9864 55.2067 44.9864C55.6864 44.9864 56.1196 45.0679 56.5062 45.2309C56.8974 45.3892 57.235 45.6198 57.5191 45.9225C57.8778 46.3044 58.1549 46.8051 58.3505 47.4245C58.5508 48.044 58.6509 48.8264 58.6509 49.7719C58.6509 50.6335 58.5531 51.4509 58.3575 52.224C58.1665 52.9925 57.8824 53.6306 57.5052 54.1383C57.1046 54.6785 56.6226 55.0907 56.059 55.3748C55.5001 55.6589 54.8085 55.801 53.9841 55.801C53.7978 55.801 53.5999 55.7893 53.3903 55.766C53.1807 55.7474 52.9851 55.7102 52.8035 55.6543V54.3199H52.8733C52.9898 54.3851 53.1714 54.448 53.4183 54.5085C53.6651 54.5691 53.9166 54.5993 54.1728 54.5993C55.0856 54.5993 55.8029 54.2989 56.3245 53.6981C56.8461 53.0973 57.1419 52.238 57.2118 51.1202C56.8392 51.3717 56.4829 51.5557 56.1429 51.6721C55.8075 51.7886 55.4419 51.8468 55.046 51.8468C54.6595 51.8468 54.3078 51.8049 53.9911 51.721C53.6744 51.6372 53.3554 51.4742 53.034 51.232C52.6614 50.9479 52.3796 50.5893 52.1887 50.1561C51.9977 49.7183 51.9023 49.192 51.9023 48.5773ZM66.5872 52.224C66.5872 52.7597 66.4987 53.2533 66.3217 53.7051C66.1447 54.1569 65.9072 54.5341 65.6091 54.8369C65.2971 55.1582 64.9478 55.4028 64.5612 55.5704C64.1746 55.7334 63.7485 55.8149 63.2827 55.8149C62.8123 55.8149 62.3839 55.7358 61.9973 55.5774C61.6154 55.4191 61.2777 55.1839 60.9843 54.8718C60.6257 54.4946 60.3439 53.9916 60.139 53.3628C59.9387 52.7294 59.8386 51.9516 59.8386 51.0294C59.8386 50.1259 59.9317 49.3108 60.118 48.5843C60.3043 47.853 60.5907 47.2173 60.9773 46.677C61.3546 46.1507 61.8413 45.7409 62.4374 45.4475C63.0336 45.1494 63.7229 45.0003 64.5053 45.0003C64.7382 45.0003 64.9548 45.012 65.155 45.0353C65.3553 45.0586 65.5323 45.0958 65.686 45.1471V46.4814H65.6231C65.4974 46.4115 65.3157 46.3487 65.0782 46.2928C64.8407 46.2322 64.5868 46.202 64.3167 46.202C63.4504 46.202 62.7495 46.4954 62.2139 47.0822C61.6829 47.6644 61.3685 48.5307 61.2707 49.6811C61.6014 49.4482 61.9414 49.2689 62.2907 49.1431C62.64 49.0174 63.0219 48.9545 63.4364 48.9545C63.8416 48.9545 64.1956 48.9964 64.4983 49.0803C64.8057 49.1594 65.1248 49.3225 65.4554 49.5693C65.8374 49.8581 66.1215 50.2237 66.3078 50.6661C66.4941 51.1086 66.5872 51.6279 66.5872 52.224ZM65.169 52.2799C65.169 51.8515 65.1131 51.4928 65.0013 51.2041C64.8896 50.9153 64.7079 50.6685 64.4564 50.4635C64.2748 50.3145 64.0675 50.2167 63.8347 50.1701C63.6064 50.1235 63.3712 50.1003 63.129 50.1003C62.803 50.1003 62.4863 50.1492 62.1789 50.247C61.8715 50.3448 61.5688 50.4868 61.2707 50.6731C61.2614 50.7756 61.2544 50.8757 61.2498 50.9735C61.2451 51.0667 61.2428 51.1854 61.2428 51.3298C61.2428 52.0517 61.3126 52.6339 61.4524 53.0764C61.5967 53.5188 61.7737 53.8542 61.9833 54.0824C62.1836 54.3013 62.3885 54.455 62.5981 54.5435C62.8123 54.632 63.0429 54.6762 63.2897 54.6762C63.8486 54.6762 64.3004 54.4759 64.645 54.0754C64.9944 53.6748 65.169 53.0764 65.169 52.2799Z" fill="#D7E2F2"/>
<line x1="76.2341" y1="66.5217" x2="41.766" y2="66.5217" stroke="#4B5169" stroke-width="0.925792"/>
<path d="M112.919 63.4076L96.9935 64.1453" stroke="#F7931E" stroke-width="1.58974"/>
<path d="M33.6074 39.9715C46.3465 25.4296 68.5422 23.8985 83.183 36.5515C91.5127 43.7504 95.5997 53.9971 95.2344 64.1462L82.4662 63.6929C82.6997 57.2071 80.0943 50.7035 74.7964 46.1249C65.4789 38.0723 51.3532 39.0468 43.2458 48.3014L33.6074 39.9715Z" fill="url(#paint0_linear)"/>
<path d="M95.6677 64.1783L82.4986 64.7117L82.3942 63.2197L95.6677 64.1783Z" fill="white"/>
<path d="M145.983 16.1467C145.454 16.1467 144.967 16.058 144.521 15.8805C144.079 15.703 143.697 15.4385 143.375 15.0871C143.052 14.7358 142.802 14.2974 142.625 13.7722C142.447 13.2469 142.359 12.6438 142.359 11.9628C142.359 11.2854 142.444 10.6949 142.614 10.1914C142.788 9.68786 143.04 9.24954 143.369 8.87643C143.692 8.51418 144.074 8.23887 144.516 8.05051C144.958 7.85852 145.452 7.76252 145.999 7.76252C146.271 7.76252 146.524 7.78244 146.76 7.82229C146.999 7.86214 147.22 7.91285 147.423 7.97443C147.597 8.02877 147.774 8.0976 147.955 8.18091C148.14 8.26061 148.321 8.34936 148.499 8.44717V9.74582H148.412C148.318 9.65888 148.196 9.55383 148.048 9.43066C147.899 9.3075 147.718 9.18615 147.504 9.06661C147.298 8.95431 147.073 8.86194 146.831 8.78949C146.588 8.71704 146.307 8.68081 145.988 8.68081C145.644 8.68081 145.318 8.75145 145.01 8.89273C144.702 9.034 144.432 9.2423 144.201 9.5176C143.972 9.79291 143.795 10.1389 143.668 10.5554C143.541 10.972 143.478 11.4411 143.478 11.9628C143.478 12.517 143.545 12.9952 143.679 13.3973C143.813 13.7957 143.996 14.1326 144.228 14.4079C144.452 14.676 144.717 14.8788 145.021 15.0165C145.325 15.1505 145.648 15.2175 145.988 15.2175C146.3 15.2175 146.588 15.1795 146.852 15.1034C147.117 15.0274 147.352 14.9314 147.559 14.8155C147.758 14.7032 147.93 14.5891 148.075 14.4731C148.22 14.3536 148.334 14.2522 148.417 14.1688H148.499V15.4512C148.321 15.5345 148.153 15.6142 147.993 15.6903C147.838 15.7664 147.647 15.8406 147.423 15.9131C147.187 15.9891 146.968 16.0471 146.765 16.0869C146.566 16.1268 146.305 16.1467 145.983 16.1467ZM154.307 16H153.036L150.955 13.2016H150.444V16H149.422V9.93056H150.444V12.5713C150.708 12.5677 150.933 12.5134 151.118 12.4083C151.306 12.2997 151.465 12.0914 151.596 11.7835C151.636 11.6929 151.679 11.5878 151.726 11.4683C151.777 11.3488 151.817 11.2437 151.846 11.1531C152.005 10.7076 152.226 10.3924 152.509 10.2077C152.791 10.0229 153.159 9.93056 153.612 9.93056H153.889V10.8108H153.655C153.369 10.8108 153.154 10.8706 153.009 10.9901C152.867 11.1061 152.748 11.3198 152.65 11.6313C152.549 11.9465 152.429 12.1928 152.291 12.3703C152.154 12.5442 152.002 12.6782 151.835 12.7724L154.307 16ZM159.958 12.968C159.958 13.9895 159.712 14.7792 159.219 15.3371C158.727 15.8913 158.071 16.1684 157.252 16.1684C156.408 16.1684 155.744 15.8823 155.258 15.3099C154.776 14.7339 154.536 13.9533 154.536 12.968C154.536 11.9537 154.784 11.1658 155.28 10.6043C155.78 10.0429 156.437 9.76212 157.252 9.76212C158.071 9.76212 158.727 10.0429 159.219 10.6043C159.712 11.1622 159.958 11.9501 159.958 12.968ZM158.904 12.968C158.904 12.1819 158.761 11.5987 158.475 11.2183C158.189 10.8344 157.781 10.6424 157.252 10.6424C156.72 10.6424 156.309 10.8344 156.019 11.2183C155.733 11.5987 155.59 12.1819 155.59 12.968C155.59 13.7287 155.733 14.3065 156.019 14.7013C156.309 15.0926 156.72 15.2882 157.252 15.2882C157.778 15.2882 158.183 15.0962 158.47 14.7122C158.759 14.3246 158.904 13.7432 158.904 12.968ZM166.098 12.805C166.098 13.8157 165.856 14.6217 165.37 15.223C164.889 15.8207 164.278 16.1195 163.539 16.1195C163.238 16.1195 162.972 16.0851 162.74 16.0163C162.509 15.9475 162.271 15.8406 162.029 15.6957V18.2387H161.007V9.93056H162.029V10.5663C162.282 10.3381 162.563 10.1479 162.871 9.99577C163.182 9.84 163.521 9.76212 163.887 9.76212C164.582 9.76212 165.124 10.0374 165.512 10.588C165.903 11.1387 166.098 11.8776 166.098 12.805ZM165.044 12.9191C165.044 12.2272 164.934 11.6911 164.713 11.3107C164.492 10.9267 164.133 10.7348 163.637 10.7348C163.347 10.7348 163.066 10.8 162.795 10.9304C162.527 11.0571 162.271 11.222 162.029 11.4248V14.8644C162.297 14.9948 162.525 15.0835 162.713 15.1306C162.905 15.1777 163.124 15.2012 163.371 15.2012C163.9 15.2012 164.311 15.0074 164.604 14.6198C164.898 14.2322 165.044 13.6653 165.044 12.9191ZM172.152 12.968C172.152 13.9895 171.905 14.7792 171.413 15.3371C170.92 15.8913 170.264 16.1684 169.446 16.1684C168.602 16.1684 167.937 15.8823 167.451 15.3099C166.97 14.7339 166.729 13.9533 166.729 12.968C166.729 11.9537 166.977 11.1658 167.473 10.6043C167.973 10.0429 168.631 9.76212 169.446 9.76212C170.264 9.76212 170.92 10.0429 171.413 10.6043C171.905 11.1622 172.152 11.9501 172.152 12.968ZM171.097 12.968C171.097 12.1819 170.954 11.5987 170.668 11.2183C170.382 10.8344 169.974 10.6424 169.446 10.6424C168.913 10.6424 168.502 10.8344 168.212 11.2183C167.926 11.5987 167.783 12.1819 167.783 12.968C167.783 13.7287 167.926 14.3065 168.212 14.7013C168.502 15.0926 168.913 15.2882 169.446 15.2882C169.971 15.2882 170.377 15.0962 170.663 14.7122C170.953 14.3246 171.097 13.7432 171.097 12.968ZM175.613 16.1358C175.196 16.1358 174.814 16.0724 174.466 15.9457C174.119 15.8153 173.82 15.6196 173.57 15.3588C173.32 15.098 173.126 14.7702 172.988 14.3753C172.851 13.9769 172.782 13.5096 172.782 12.9734C172.782 12.4409 172.853 11.9809 172.994 11.5933C173.139 11.2057 173.331 10.8796 173.57 10.6152C173.809 10.3508 174.106 10.1479 174.461 10.0066C174.82 9.86174 175.203 9.78929 175.613 9.78929C175.946 9.78929 176.267 9.83638 176.575 9.93056C176.886 10.0247 177.163 10.1334 177.406 10.2566V11.4031H177.346C177.274 11.3415 177.18 11.2709 177.064 11.1912C176.951 11.1115 176.814 11.03 176.651 10.9467C176.509 10.8742 176.343 10.8108 176.151 10.7565C175.959 10.7021 175.774 10.675 175.597 10.675C175.068 10.675 174.642 10.876 174.32 11.2781C174.001 11.6766 173.841 12.2417 173.841 12.9734C173.841 13.6907 173.995 14.2504 174.303 14.6524C174.615 15.0509 175.046 15.2502 175.597 15.2502C175.93 15.2502 176.247 15.1813 176.547 15.0437C176.848 14.906 177.114 14.7285 177.346 14.5112H177.406V15.6577C177.305 15.7048 177.178 15.7627 177.026 15.8316C176.873 15.8968 176.736 15.9457 176.613 15.9783C176.439 16.029 176.283 16.067 176.145 16.0924C176.008 16.1214 175.83 16.1358 175.613 16.1358ZM182.774 10.8271H180.71V16H179.688V10.8271H177.623V9.93056H182.774V10.8271ZM188.132 14.1199C188.132 14.4134 188.072 14.6796 187.953 14.9187C187.837 15.1578 187.677 15.3516 187.475 15.5001C187.236 15.6812 186.98 15.8098 186.708 15.8859C186.437 15.962 186.087 16 185.66 16H183.535V9.93056H184.557V12.2942H185.687C186.143 12.2942 186.497 12.3178 186.746 12.3649C187 12.412 187.252 12.5279 187.502 12.7126C187.712 12.8684 187.869 13.0676 187.974 13.3103C188.08 13.553 188.132 13.8229 188.132 14.1199ZM187.078 14.1362C187.078 13.9515 187.045 13.7903 186.98 13.6526C186.919 13.5114 186.815 13.3973 186.67 13.3103C186.518 13.2198 186.344 13.1654 186.149 13.1473C185.957 13.1292 185.68 13.1201 185.317 13.1201H184.557V15.1849H185.296C185.658 15.1849 185.939 15.1705 186.138 15.1415C186.337 15.1089 186.509 15.0491 186.654 14.9622C186.803 14.868 186.909 14.7575 186.975 14.6307C187.044 14.5003 187.078 14.3355 187.078 14.1362ZM195 16.1358C194.584 16.1358 194.201 16.0724 193.854 15.9457C193.506 15.8153 193.207 15.6196 192.957 15.3588C192.707 15.098 192.513 14.7702 192.376 14.3753C192.238 13.9769 192.169 13.5096 192.169 12.9734C192.169 12.4409 192.24 11.9809 192.381 11.5933C192.526 11.2057 192.718 10.8796 192.957 10.6152C193.196 10.3508 193.493 10.1479 193.848 10.0066C194.207 9.86174 194.591 9.78929 195 9.78929C195.334 9.78929 195.654 9.83638 195.962 9.93056C196.274 10.0247 196.551 10.1334 196.793 10.2566V11.4031H196.734C196.661 11.3415 196.567 11.2709 196.451 11.1912C196.339 11.1115 196.201 11.03 196.038 10.9467C195.897 10.8742 195.73 10.8108 195.538 10.7565C195.346 10.7021 195.161 10.675 194.984 10.675C194.455 10.675 194.029 10.876 193.707 11.2781C193.388 11.6766 193.229 12.2417 193.229 12.9734C193.229 13.6907 193.383 14.2504 193.691 14.6524C194.002 15.0509 194.433 15.2502 194.984 15.2502C195.317 15.2502 195.634 15.1813 195.935 15.0437C196.236 14.906 196.502 14.7285 196.734 14.5112H196.793V15.6577C196.692 15.7048 196.565 15.7627 196.413 15.8316C196.261 15.8968 196.123 15.9457 196 15.9783C195.826 16.029 195.67 16.067 195.533 16.0924C195.395 16.1214 195.218 16.1358 195 16.1358ZM202.488 14.1634C202.488 14.4568 202.432 14.7176 202.319 14.9459C202.207 15.1705 202.053 15.3588 201.858 15.511C201.611 15.703 201.352 15.8334 201.081 15.9022C200.812 15.9674 200.49 16 200.113 16H197.728V9.93056H199.956C200.401 9.93056 200.727 9.94505 200.934 9.97403C201.14 9.99939 201.345 10.0682 201.548 10.1805C201.762 10.2964 201.919 10.4504 202.021 10.6424C202.122 10.8344 202.173 11.0626 202.173 11.327C202.173 11.6168 202.093 11.8776 201.934 12.1095C201.774 12.3377 201.562 12.5152 201.298 12.642L201.325 12.68C201.655 12.7633 201.93 12.9318 202.151 13.1853C202.376 13.4389 202.488 13.7649 202.488 14.1634ZM201.124 11.4846C201.124 11.3469 201.1 11.2274 201.053 11.126C201.01 11.0245 200.932 10.9449 200.82 10.8869C200.689 10.8181 200.543 10.7782 200.38 10.7674C200.22 10.7529 199.997 10.7456 199.711 10.7456H198.739V12.4083H199.912C200.162 12.4083 200.34 12.3975 200.445 12.3757C200.55 12.3504 200.666 12.2997 200.793 12.2236C200.912 12.1511 200.997 12.0533 201.048 11.9302C201.099 11.807 201.124 11.6585 201.124 11.4846ZM201.434 14.1688C201.434 13.9624 201.403 13.7975 201.341 13.6744C201.283 13.5476 201.153 13.4353 200.95 13.3375C200.823 13.2759 200.688 13.2379 200.543 13.2234C200.398 13.2089 200.197 13.2016 199.939 13.2016H198.739V15.1849H199.624C199.99 15.1849 200.275 15.1705 200.477 15.1415C200.68 15.1125 200.854 15.0545 200.999 14.9676C201.151 14.8734 201.262 14.7647 201.331 14.6416C201.399 14.5184 201.434 14.3608 201.434 14.1688ZM206.199 16.1413C205.232 16.1413 204.48 15.8696 203.944 15.3262C203.412 14.7792 203.145 14.004 203.145 13.0006C203.145 12.0117 203.404 11.2256 203.922 10.6424C204.44 10.0555 205.118 9.76212 205.955 9.76212C206.331 9.76212 206.665 9.81646 206.954 9.92513C207.244 10.0338 207.498 10.2041 207.715 10.4359C207.932 10.6677 208.099 10.9521 208.215 11.289C208.331 11.6223 208.389 12.0316 208.389 12.517V13.0712H204.183C204.183 13.7776 204.361 14.3174 204.716 14.6905C205.071 15.0636 205.562 15.2502 206.188 15.2502C206.413 15.2502 206.632 15.2248 206.846 15.1741C207.063 15.1234 207.259 15.0582 207.433 14.9785C207.617 14.8951 207.773 14.8155 207.9 14.7394C208.027 14.6597 208.132 14.5854 208.215 14.5166H208.275V15.6305C208.155 15.6776 208.007 15.7374 207.829 15.8098C207.652 15.8786 207.492 15.933 207.351 15.9728C207.152 16.0272 206.971 16.0688 206.808 16.0978C206.648 16.1268 206.445 16.1413 206.199 16.1413ZM207.395 12.2888C207.387 12.0135 207.355 11.7762 207.297 11.577C207.239 11.3777 207.155 11.2093 207.047 11.0716C206.927 10.9195 206.773 10.8036 206.585 10.7239C206.4 10.6442 206.17 10.6043 205.895 10.6043C205.623 10.6043 205.391 10.646 205.199 10.7293C205.011 10.809 204.839 10.9267 204.683 11.0825C204.531 11.2419 204.415 11.4194 204.335 11.615C204.256 11.807 204.205 12.0316 204.183 12.2888H207.395ZM214.627 17.4562H213.676V15.9837H209.677V17.4562H208.726V15.1306H209.128C209.472 14.5655 209.753 13.8283 209.97 12.9191C210.191 12.0062 210.302 11.0101 210.302 9.93056H214.024V15.1306H214.627V17.4562ZM213.002 15.1306V10.7891H211.263C211.216 11.6947 211.091 12.5224 210.888 13.2723C210.689 14.0185 210.437 14.638 210.133 15.1306H213.002ZM218.273 16.1413C217.306 16.1413 216.554 15.8696 216.018 15.3262C215.485 14.7792 215.219 14.004 215.219 13.0006C215.219 12.0117 215.478 11.2256 215.996 10.6424C216.514 10.0555 217.191 9.76212 218.028 9.76212C218.405 9.76212 218.738 9.81646 219.028 9.92513C219.318 10.0338 219.571 10.2041 219.789 10.4359C220.006 10.6677 220.173 10.9521 220.289 11.289C220.405 11.6223 220.463 12.0316 220.463 12.517V13.0712H216.257C216.257 13.7776 216.434 14.3174 216.789 14.6905C217.144 15.0636 217.635 15.2502 218.262 15.2502C218.486 15.2502 218.706 15.2248 218.919 15.1741C219.137 15.1234 219.332 15.0582 219.506 14.9785C219.691 14.8951 219.847 14.8155 219.974 14.7394C220.1 14.6597 220.205 14.5854 220.289 14.5166H220.348V15.6305C220.229 15.6776 220.08 15.7374 219.903 15.8098C219.725 15.8786 219.566 15.933 219.425 15.9728C219.225 16.0272 219.044 16.0688 218.881 16.0978C218.722 16.1268 218.519 16.1413 218.273 16.1413ZM219.468 12.2888C219.461 12.0135 219.428 11.7762 219.37 11.577C219.312 11.3777 219.229 11.2093 219.12 11.0716C219.001 10.9195 218.847 10.8036 218.659 10.7239C218.474 10.6442 218.244 10.6043 217.968 10.6043C217.697 10.6043 217.465 10.646 217.273 10.7293C217.085 10.809 216.913 10.9267 216.757 11.0825C216.605 11.2419 216.489 11.4194 216.409 11.615C216.329 11.807 216.279 12.0316 216.257 12.2888H219.468ZM226.287 16H225.266V13.2669H222.516V16H221.495V9.93056H222.516V12.3866H225.266V9.93056H226.287V16ZM232.558 16H231.547V11.4737L228.689 16H227.765V9.93056H228.776V14.3862L231.602 9.93056H232.558V16ZM238.432 16H237.41V13.5929H236.4L234.601 16H233.411L235.362 13.5005C234.858 13.352 234.489 13.131 234.253 12.8376C234.021 12.5442 233.906 12.1511 233.906 11.6585C233.906 11.3578 233.971 11.0952 234.101 10.8706C234.235 10.6424 234.414 10.4504 234.639 10.2946C234.82 10.1715 235.048 10.0809 235.324 10.0229C235.599 9.96135 235.907 9.93056 236.247 9.93056H238.432V16ZM237.41 12.7887V10.7456H236.302C236.066 10.7456 235.88 10.7583 235.742 10.7837C235.608 10.809 235.478 10.8579 235.351 10.9304C235.22 11.0101 235.121 11.1187 235.052 11.2564C234.987 11.3904 234.954 11.5353 234.954 11.6911C234.954 11.8903 234.976 12.0533 235.019 12.1801C235.067 12.3033 235.15 12.4174 235.269 12.5224C235.396 12.6311 235.55 12.7036 235.731 12.7398C235.916 12.7724 236.117 12.7887 236.334 12.7887H237.41ZM250.408 16H249.332V9.02857L247.223 13.7722H246.571L244.479 9.02857V16H243.474V7.90923H244.941L246.963 12.4138L248.913 7.90923H250.408V16ZM257.558 13.4951C257.558 13.8863 257.482 14.2413 257.33 14.5601C257.178 14.8788 256.973 15.1379 256.716 15.3371C256.412 15.5762 256.086 15.7464 255.738 15.8479C255.39 15.9493 254.941 16 254.391 16H252.049V7.90923H256.977V8.86556H253.124V11.0825H254.423C254.974 11.0825 255.423 11.1151 255.771 11.1803C256.118 11.2419 256.446 11.3922 256.754 11.6313C257.029 11.845 257.232 12.1095 257.363 12.4246C257.493 12.7398 257.558 13.0966 257.558 13.4951ZM256.434 13.5168C256.434 13.2451 256.388 13.006 256.298 12.7996C256.211 12.5931 256.071 12.4264 255.879 12.2997C255.68 12.1656 255.45 12.0841 255.189 12.0551C254.928 12.0262 254.561 12.0117 254.086 12.0117H253.124V15.0817H254.059C254.541 15.0817 254.91 15.0582 255.168 15.0111C255.428 14.964 255.657 14.8734 255.852 14.7394C256.055 14.5981 256.202 14.4333 256.292 14.2449C256.387 14.0529 256.434 13.8102 256.434 13.5168ZM260.509 14.4514L258.987 18.0105H258.194L259.15 14.4514H260.509Z" fill="#D7E2F2"/>
<path d="M269.023 10.1533C269.023 10.9684 268.859 11.5734 268.529 11.9682C268.203 12.3594 267.73 12.555 267.111 12.555C266.48 12.555 266.002 12.3558 265.676 11.9573C265.354 11.5589 265.193 10.9593 265.193 10.1588C265.193 9.34735 265.358 8.74421 265.687 8.34936C266.017 7.95451 266.491 7.75709 267.111 7.75709C267.741 7.75709 268.217 7.95632 268.54 8.35479C268.862 8.75326 269.023 9.35278 269.023 10.1533ZM272.642 7.90923L268.404 16H267.507L271.746 7.90923H272.642ZM274.946 13.7559C274.946 14.5709 274.781 15.1759 274.452 15.5707C274.126 15.962 273.653 16.1576 273.034 16.1576C272.403 16.1576 271.925 15.9583 271.599 15.5599C271.277 15.1614 271.115 14.5619 271.115 13.7613C271.115 12.9499 271.28 12.3467 271.61 11.9519C271.94 11.557 272.414 11.3596 273.034 11.3596C273.664 11.3596 274.14 11.5589 274.463 11.9573C274.785 12.3558 274.946 12.9553 274.946 13.7559ZM268.056 10.1533C268.056 9.60273 267.991 9.18615 267.861 8.9036C267.734 8.62104 267.484 8.47977 267.111 8.47977C266.738 8.47977 266.486 8.62285 266.356 8.90903C266.225 9.1952 266.16 9.61179 266.16 10.1588C266.16 10.7021 266.221 11.1169 266.345 11.4031C266.468 11.6893 266.723 11.8324 267.111 11.8324C267.484 11.8324 267.734 11.6893 267.861 11.4031C267.991 11.1169 268.056 10.7003 268.056 10.1533ZM273.979 13.7559C273.979 13.2053 273.914 12.7887 273.783 12.5061C273.657 12.2236 273.407 12.0823 273.034 12.0823C272.66 12.0823 272.409 12.2254 272.278 12.5116C272.148 12.7977 272.083 13.2143 272.083 13.7613C272.083 14.3047 272.144 14.7195 272.267 15.0056C272.391 15.2918 272.646 15.4349 273.034 15.4349C273.407 15.4349 273.657 15.2918 273.783 15.0056C273.914 14.7195 273.979 14.3029 273.979 13.7559ZM277.837 16H276.538V14.4514H277.837V16Z" fill="#8C99B2"/>
<rect x="142" y="29" width="177" height="24" rx="1.58974" fill="#1C1F2B"/>
<rect x="142" y="56" width="177" height="24" rx="1.58974" fill="#1C1F2B"/>
<rect x="142" y="83" width="177" height="24" rx="1.58974" fill="#1C1F2B"/>
<path opacity="0.98" d="M162.687 45.2051H161.769V39.7L158.635 45.2051H157.703V38.2702H158.621V43.6868L161.713 38.2702H162.687V45.2051ZM170.39 42.6063C170.39 43.4788 170.179 44.1541 169.757 44.6323C169.338 45.1104 168.782 45.3495 168.089 45.3495C167.409 45.3495 166.869 45.1259 166.469 44.6788C166.071 44.2286 165.854 43.6154 165.817 42.8391H164.899V45.2051H164.023V40.0028H164.899V42.1219H165.835C165.907 41.414 166.143 40.8597 166.543 40.4592C166.944 40.0586 167.459 39.8584 168.089 39.8584C168.819 39.8584 169.384 40.1068 169.785 40.6036C170.188 41.1004 170.39 41.7679 170.39 42.6063ZM169.487 42.6063C169.487 41.9418 169.364 41.4435 169.119 41.1112C168.877 40.779 168.533 40.6129 168.089 40.6129C167.639 40.6129 167.291 40.7805 167.046 41.1159C166.804 41.4512 166.683 41.948 166.683 42.6063C166.683 43.2583 166.805 43.7536 167.051 44.092C167.296 44.4273 167.642 44.595 168.089 44.595C168.533 44.595 168.877 44.432 169.119 44.106C169.364 43.7768 169.487 43.2769 169.487 42.6063ZM175.397 45.2051H174.521V42.8624H172.165V45.2051H171.289V40.0028H172.165V42.1079H174.521V40.0028H175.397V45.2051ZM178.028 45.2051H176.915V43.8778H178.028V45.2051ZM183.706 45.2051H179.426V44.2317C179.733 43.9398 180.023 43.6604 180.297 43.3934C180.57 43.1263 180.837 42.8485 181.098 42.5597C181.626 41.9791 181.986 41.5149 182.178 41.1671C182.371 40.8163 182.467 40.4545 182.467 40.0819C182.467 39.8894 182.436 39.7202 182.374 39.5743C182.315 39.4283 182.233 39.3072 182.127 39.211C182.018 39.1178 181.893 39.048 181.75 39.0014C181.607 38.9548 181.45 38.9315 181.279 38.9315C181.115 38.9315 180.947 38.9533 180.776 38.9967C180.609 39.0371 180.447 39.0883 180.292 39.1504C180.162 39.2032 180.036 39.2669 179.915 39.3414C179.794 39.4159 179.696 39.4796 179.621 39.5323H179.57V38.545C179.763 38.4487 180.03 38.3556 180.371 38.2655C180.716 38.1724 181.042 38.1258 181.349 38.1258C181.995 38.1258 182.501 38.2981 182.867 38.6428C183.234 38.9843 183.417 39.4485 183.417 40.0354C183.417 40.3055 183.384 40.5554 183.319 40.7852C183.257 41.015 183.17 41.2277 183.058 41.4233C182.944 41.6251 182.805 41.8254 182.644 42.0241C182.482 42.2228 182.312 42.4184 182.132 42.6109C181.84 42.9276 181.514 43.2568 181.154 43.5983C180.796 43.9398 180.511 44.21 180.297 44.4087H183.706V45.2051ZM188.945 41.7353C188.945 42.9804 188.764 43.8948 188.401 44.4786C188.04 45.0592 187.483 45.3495 186.729 45.3495C185.965 45.3495 185.404 45.053 185.047 44.4599C184.69 43.8669 184.512 42.9618 184.512 41.7446C184.512 40.4933 184.692 39.5789 185.052 39.0014C185.415 38.4208 185.974 38.1305 186.729 38.1305C187.492 38.1305 188.053 38.4301 188.41 39.0293C188.767 39.6286 188.945 40.5306 188.945 41.7353ZM187.753 43.8498C187.843 43.62 187.907 43.3297 187.944 42.9789C187.981 42.628 188 42.2135 188 41.7353C188 41.2603 187.981 40.8473 187.944 40.4964C187.907 40.1456 187.842 39.8537 187.748 39.6208C187.655 39.3849 187.526 39.2063 187.362 39.0852C187.2 38.961 186.989 38.8989 186.729 38.8989C186.471 38.8989 186.258 38.961 186.09 39.0852C185.926 39.2063 185.795 39.388 185.699 39.6302C185.606 39.8661 185.542 40.1642 185.508 40.5244C185.474 40.8846 185.457 41.2913 185.457 41.7446C185.457 42.229 185.471 42.6342 185.499 42.9602C185.53 43.2863 185.595 43.5781 185.695 43.8358C185.785 44.0749 185.912 44.2597 186.076 44.3901C186.244 44.5174 186.461 44.581 186.729 44.581C186.986 44.581 187.197 44.5205 187.362 44.3994C187.53 44.2752 187.66 44.092 187.753 43.8498Z" fill="#8C99B2"/>
<path opacity="0.98" d="M162.687 72.2308H161.769V66.7257L158.635 72.2308H157.703V65.2958H158.621V70.7124L161.713 65.2958H162.687V72.2308ZM170.39 69.6319C170.39 70.5044 170.179 71.1797 169.757 71.6579C169.338 72.1361 168.782 72.3752 168.089 72.3752C167.409 72.3752 166.869 72.1516 166.469 71.7045C166.071 71.2543 165.854 70.641 165.817 69.8648H164.899V72.2308H164.023V67.0284H164.899V69.1475H165.835C165.907 68.4396 166.143 67.8854 166.543 67.4848C166.944 67.0843 167.459 66.884 168.089 66.884C168.819 66.884 169.384 67.1324 169.785 67.6292C170.188 68.126 170.39 68.7936 170.39 69.6319ZM169.487 69.6319C169.487 68.9675 169.364 68.4691 169.119 68.1369C168.877 67.8046 168.533 67.6385 168.089 67.6385C167.639 67.6385 167.291 67.8062 167.046 68.1415C166.804 68.4769 166.683 68.9737 166.683 69.6319C166.683 70.284 166.805 70.7792 167.051 71.1176C167.296 71.453 167.642 71.6206 168.089 71.6206C168.533 71.6206 168.877 71.4576 169.119 71.1316C169.364 70.8025 169.487 70.3026 169.487 69.6319ZM175.318 72.2308H174.442V67.7643H172.654C172.644 68.022 172.635 68.2704 172.626 68.5095C172.616 68.7454 172.607 68.9597 172.598 69.1522C172.579 69.6397 172.547 70.048 172.5 70.3771C172.457 70.7062 172.401 70.9702 172.332 71.1689C172.264 71.3738 172.188 71.5337 172.104 71.6486C172.023 71.7635 171.932 71.8675 171.829 71.9606C171.724 72.0538 171.61 72.1237 171.489 72.1702C171.368 72.2168 171.232 72.2401 171.079 72.2401C171.03 72.2401 170.966 72.2385 170.889 72.2354C170.811 72.2323 170.757 72.2308 170.726 72.2308V71.467H170.772C170.794 71.467 170.816 71.4685 170.837 71.4716C170.862 71.4747 170.89 71.4763 170.921 71.4763C170.996 71.4763 171.069 71.4654 171.14 71.4437C171.211 71.4219 171.275 71.3816 171.331 71.3226C171.486 71.1704 171.6 70.905 171.671 70.5261C171.742 70.1442 171.794 69.6117 171.825 68.9286C171.837 68.674 171.848 68.3729 171.857 68.0251C171.87 67.6773 171.881 67.3451 171.89 67.0284H175.318V72.2308ZM177.954 72.2308H176.841V70.9034H177.954V72.2308ZM183.631 72.2308H179.351V71.2574C179.659 70.9655 179.949 70.6861 180.222 70.419C180.495 70.152 180.762 69.8741 181.023 69.5853C181.551 69.0047 181.911 68.5405 182.104 68.1928C182.296 67.8419 182.392 67.4802 182.392 67.1076C182.392 66.9151 182.361 66.7458 182.299 66.5999C182.24 66.454 182.158 66.3329 182.052 66.2366C181.944 66.1435 181.818 66.0736 181.675 66.027C181.532 65.9805 181.376 65.9572 181.205 65.9572C181.04 65.9572 180.873 65.9789 180.702 66.0224C180.534 66.0628 180.373 66.114 180.217 66.1761C180.087 66.2289 179.961 66.2925 179.84 66.367C179.719 66.4416 179.621 66.5052 179.547 66.558H179.495V65.5706C179.688 65.4744 179.955 65.3812 180.297 65.2912C180.641 65.198 180.967 65.1514 181.275 65.1514C181.92 65.1514 182.427 65.3238 182.793 65.6684C183.159 66.01 183.343 66.4742 183.343 67.061C183.343 67.3311 183.31 67.5811 183.245 67.8109C183.183 68.0406 183.096 68.2533 182.984 68.4489C182.869 68.6507 182.731 68.851 182.569 69.0497C182.408 69.2485 182.237 69.4441 182.057 69.6366C181.765 69.9533 181.439 70.2824 181.079 70.624C180.722 70.9655 180.436 71.2356 180.222 71.4343H183.631V72.2308ZM188.871 68.761C188.871 70.0061 188.689 70.9205 188.326 71.5042C187.966 72.0848 187.409 72.3752 186.654 72.3752C185.89 72.3752 185.33 72.0786 184.973 71.4856C184.616 70.8925 184.437 69.9874 184.437 68.7703C184.437 67.519 184.617 66.6046 184.977 66.027C185.341 65.4464 185.899 65.1561 186.654 65.1561C187.418 65.1561 187.978 65.4557 188.335 66.055C188.692 66.6543 188.871 67.5562 188.871 68.761ZM187.679 70.8755C187.769 70.6457 187.832 70.3554 187.87 70.0045C187.907 69.6537 187.925 69.2391 187.925 68.761C187.925 68.2859 187.907 67.873 187.87 67.5221C187.832 67.1712 187.767 66.8794 187.674 66.6465C187.581 66.4105 187.452 66.232 187.287 66.1109C187.126 65.9867 186.915 65.9246 186.654 65.9246C186.396 65.9246 186.184 65.9867 186.016 66.1109C185.851 66.232 185.721 66.4136 185.625 66.6558C185.532 66.8918 185.468 67.1899 185.434 67.55C185.4 67.9102 185.383 68.317 185.383 68.7703C185.383 69.2547 185.396 69.6599 185.424 69.9859C185.455 70.3119 185.521 70.6038 185.62 70.8615C185.71 71.1006 185.837 71.2853 186.002 71.4157C186.17 71.543 186.387 71.6067 186.654 71.6067C186.912 71.6067 187.123 71.5461 187.287 71.425C187.455 71.3008 187.585 71.1176 187.679 70.8755Z" fill="#8C99B2"/>
<path opacity="0.98" d="M156.953 99.2564L159.291 92.3215H160.428L162.766 99.2564H161.793L161.164 97.3189H158.514L157.885 99.2564H156.953ZM160.908 96.5318L159.836 93.2623L158.77 96.5318H160.908ZM167.433 97.6822C167.433 97.9337 167.385 98.1573 167.288 98.3529C167.192 98.5454 167.06 98.7068 166.892 98.8372C166.681 99.0018 166.459 99.1136 166.226 99.1726C165.997 99.2285 165.72 99.2564 165.397 99.2564H163.353V94.054H165.262C165.644 94.054 165.924 94.0665 166.101 94.0913C166.278 94.113 166.453 94.172 166.627 94.2683C166.81 94.3676 166.945 94.4996 167.032 94.6642C167.119 94.8287 167.163 95.0243 167.163 95.251C167.163 95.4994 167.094 95.723 166.958 95.9217C166.821 96.1173 166.639 96.2694 166.413 96.3781L166.436 96.4107C166.719 96.4821 166.955 96.6265 167.144 96.8438C167.336 97.0612 167.433 97.3406 167.433 97.6822ZM166.264 95.3861C166.264 95.2681 166.243 95.1656 166.203 95.0787C166.166 94.9917 166.099 94.9234 166.003 94.8737C165.891 94.8148 165.765 94.7806 165.626 94.7713C165.489 94.7589 165.298 94.7527 165.053 94.7527H164.219V96.1778H165.225C165.439 96.1778 165.591 96.1685 165.681 96.1499C165.772 96.1282 165.871 96.0847 165.98 96.0195C166.082 95.9574 166.155 95.8735 166.198 95.768C166.242 95.6624 166.264 95.5351 166.264 95.3861ZM166.529 97.6868C166.529 97.5099 166.503 97.3686 166.45 97.263C166.4 97.1543 166.289 97.0581 166.115 96.9743C166.006 96.9215 165.89 96.8889 165.765 96.8765C165.641 96.864 165.469 96.8578 165.248 96.8578H164.219V98.5578H164.978C165.292 98.5578 165.536 98.5454 165.709 98.5205C165.883 98.4957 166.032 98.446 166.157 98.3715C166.287 98.2908 166.382 98.1976 166.441 98.092C166.5 97.9865 166.529 97.8514 166.529 97.6868ZM171.662 94.8225H169.23V99.2564H168.355V94.054H171.662V94.8225ZM173.678 99.2564H172.565V97.929H173.678V99.2564ZM179.356 99.2564H175.076V98.283C175.383 97.9911 175.673 97.7117 175.947 97.4447C176.22 97.1776 176.487 96.8997 176.748 96.611C177.275 96.0303 177.636 95.5662 177.828 95.2184C178.021 94.8675 178.117 94.5058 178.117 94.1332C178.117 93.9407 178.086 93.7715 178.024 93.6255C177.965 93.4796 177.882 93.3585 177.777 93.2623C177.668 93.1691 177.542 93.0993 177.4 93.0527C177.257 93.0061 177.1 92.9828 176.929 92.9828C176.765 92.9828 176.597 93.0046 176.426 93.048C176.259 93.0884 176.097 93.1396 175.942 93.2017C175.811 93.2545 175.686 93.3182 175.565 93.3927C175.444 93.4672 175.346 93.5308 175.271 93.5836H175.22V92.5963C175.412 92.5 175.679 92.4068 176.021 92.3168C176.366 92.2237 176.692 92.1771 176.999 92.1771C177.645 92.1771 178.151 92.3494 178.517 92.6941C178.884 93.0356 179.067 93.4998 179.067 94.0866C179.067 94.3568 179.034 94.6067 178.969 94.8365C178.907 95.0663 178.82 95.2789 178.708 95.4746C178.594 95.6764 178.455 95.8767 178.294 96.0754C178.132 96.2741 177.962 96.4697 177.782 96.6622C177.49 96.9789 177.164 97.308 176.803 97.6496C176.446 97.9911 176.161 98.2613 175.947 98.46H179.356V99.2564ZM184.595 95.7866C184.595 97.0317 184.414 97.9461 184.05 98.5298C183.69 99.1105 183.133 99.4008 182.378 99.4008C181.615 99.4008 181.054 99.1043 180.697 98.5112C180.34 97.9182 180.162 97.0131 180.162 95.7959C180.162 94.5446 180.342 93.6302 180.702 93.0527C181.065 92.4721 181.624 92.1817 182.378 92.1817C183.142 92.1817 183.703 92.4814 184.06 93.0806C184.417 93.6799 184.595 94.5819 184.595 95.7866ZM183.403 97.9011C183.493 97.6713 183.557 97.381 183.594 97.0301C183.631 96.6793 183.65 96.2648 183.65 95.7866C183.65 95.3115 183.631 94.8986 183.594 94.5477C183.557 94.1969 183.492 93.905 183.398 93.6721C183.305 93.4361 183.176 93.2576 183.012 93.1365C182.85 93.0123 182.639 92.9502 182.378 92.9502C182.121 92.9502 181.908 93.0123 181.74 93.1365C181.576 93.2576 181.445 93.4393 181.349 93.6814C181.256 93.9174 181.192 94.2155 181.158 94.5757C181.124 94.9358 181.107 95.3426 181.107 95.7959C181.107 96.2803 181.121 96.6855 181.149 97.0115C181.18 97.3375 181.245 97.6294 181.345 97.8871C181.435 98.1262 181.562 98.3109 181.726 98.4414C181.894 98.5687 182.111 98.6323 182.378 98.6323C182.636 98.6323 182.847 98.5718 183.012 98.4507C183.18 98.3265 183.31 98.1433 183.403 97.9011Z" fill="#8C99B2"/>
<path d="M307.562 45.2051H304.181V44.4972H305.438V39.8491H304.181V39.2156C304.656 39.2156 305.005 39.1489 305.229 39.0154C305.455 38.8788 305.583 38.6226 305.611 38.2469H306.333V44.4972H307.562V45.2051Z" fill="#F7931E"/>
<path d="M305.508 65.9572C305.341 65.9572 305.173 65.9774 305.005 66.0177C304.838 66.0581 304.673 66.1109 304.511 66.1761C304.362 66.2382 304.232 66.3034 304.12 66.3717C304.012 66.44 303.914 66.5037 303.827 66.5627H303.771V65.5799C303.973 65.4713 304.246 65.3735 304.591 65.2865C304.938 65.1965 305.269 65.1514 305.583 65.1514C305.896 65.1514 306.17 65.184 306.402 65.2493C306.638 65.3114 306.851 65.4092 307.04 65.5427C307.245 65.6917 307.399 65.8718 307.502 66.0829C307.607 66.2941 307.66 66.5409 307.66 66.8235C307.66 67.2054 307.534 67.5407 307.283 67.8295C307.031 68.1182 306.73 68.3014 306.379 68.3791V68.4443C306.525 68.4722 306.68 68.5203 306.845 68.5886C307.013 68.657 307.168 68.7579 307.311 68.8914C307.453 69.0249 307.57 69.1972 307.66 69.4084C307.75 69.6164 307.795 69.871 307.795 70.1722C307.795 70.4858 307.741 70.7745 307.632 71.0385C307.526 71.2993 307.376 71.5306 307.18 71.7324C306.978 71.9436 306.735 72.1035 306.449 72.2121C306.163 72.3208 305.839 72.3752 305.476 72.3752C305.128 72.3752 304.783 72.3332 304.442 72.2494C304.1 72.1656 303.813 72.0647 303.58 71.9467V70.9639H303.645C303.841 71.1068 304.103 71.2434 304.432 71.3738C304.761 71.5042 305.091 71.5694 305.42 71.5694C305.609 71.5694 305.799 71.5399 305.988 71.4809C306.18 71.4188 306.34 71.3195 306.468 71.1828C306.592 71.0462 306.687 70.8956 306.752 70.7311C306.817 70.5665 306.85 70.3585 306.85 70.107C306.85 69.8555 306.812 69.649 306.738 69.4875C306.666 69.3261 306.565 69.1988 306.435 69.1056C306.305 69.0125 306.149 68.9488 305.969 68.9147C305.792 68.8774 305.6 68.8588 305.392 68.8588H304.996V68.0856H305.303C305.722 68.0856 306.062 67.9863 306.323 67.7876C306.587 67.5888 306.719 67.3001 306.719 66.9213C306.719 66.7474 306.685 66.5984 306.617 66.4742C306.548 66.3469 306.461 66.2459 306.356 66.1714C306.238 66.0907 306.107 66.0348 305.965 66.0038C305.822 65.9727 305.67 65.9572 305.508 65.9572Z" fill="#F7931E"/>
<path d="M307.562 99.2564H304.181V98.5485H305.438V93.9003H304.181V93.2669C304.656 93.2669 305.005 93.2002 305.229 93.0667C305.455 92.93 305.583 92.6739 305.611 92.2982H306.333V98.5485H307.562V99.2564Z" fill="#00A73D"/>
<g clip-path="url(#clip0)">
<path d="M297.961 38.8218L295.179 41.6038L292.397 38.8218" stroke="#F7931E" stroke-width="0.794872" stroke-miterlimit="10" stroke-linecap="round" stroke-linejoin="round"/>
<path d="M297.961 41.5243L295.179 44.3064L292.397 41.5243" stroke="#F7931E" stroke-width="0.794872" stroke-miterlimit="10" stroke-linecap="round" stroke-linejoin="round"/>
</g>
<g clip-path="url(#clip1)">
<path d="M297.961 65.8474L295.179 68.6295L292.397 65.8474" stroke="#F7931E" stroke-width="0.794872" stroke-miterlimit="10" stroke-linecap="round" stroke-linejoin="round"/>
<path d="M297.961 68.55L295.179 71.332L292.397 68.55" stroke="#F7931E" stroke-width="0.794872" stroke-miterlimit="10" stroke-linecap="round" stroke-linejoin="round"/>
</g>
<g clip-path="url(#clip2)">
<path d="M292.397 98.3577L295.18 95.5756L297.962 98.3577" stroke="#00A73D" stroke-width="0.794872" stroke-miterlimit="10" stroke-linecap="round" stroke-linejoin="round"/>
<path d="M292.397 95.6552L295.18 92.8731L297.962 95.6552" stroke="#00A73D" stroke-width="0.794872" stroke-miterlimit="10" stroke-linecap="round" stroke-linejoin="round"/>
</g>
<defs>
<linearGradient id="paint0_linear" x1="95.3202" y1="64.5763" x2="56.6617" y2="56.056" gradientUnits="userSpaceOnUse">
<stop stop-color="#D7E2F2"/>
<stop offset="0.0001" stop-color="#D7E2F2" stop-opacity="0.35"/>
<stop offset="0.188025" stop-color="#D7E2F2" stop-opacity="0.239205"/>
<stop offset="0.59375" stop-color="#D7E2F2" stop-opacity="0"/>
</linearGradient>
<clipPath id="clip0">
<rect width="6.35897" height="6.35897" fill="white" transform="translate(298.359 38.3846) rotate(90)"/>
</clipPath>
<clipPath id="clip1">
<rect width="6.35897" height="6.35897" fill="white" transform="translate(298.359 65.4102) rotate(90)"/>
</clipPath>
<clipPath id="clip2">
<rect width="6.35897" height="6.35897" fill="white" transform="translate(292 98.7949) rotate(-90)"/>
</clipPath>
</defs>
</svg>
