<svg width="324" height="117" viewBox="0 0 324 117" fill="none" xmlns="http://www.w3.org/2000/svg">
<g clip-path="url(#clip0)">
<path opacity="0.5" fill-rule="evenodd" clip-rule="evenodd" d="M7.84967 104H41.1503L43 102.134V27.8667L41.1503 26H7.84967L6 27.8667V102.134L7.84967 104Z" fill="#1B1F2C" stroke="#5B607D" stroke-width="0.501469"/>
<rect x="7" y="73" width="34" height="21" fill="#2378D9"/>
<rect opacity="0.5" x="7" y="46" width="34" height="29" fill="#2378D9"/>
<path opacity="0.5" fill-rule="evenodd" clip-rule="evenodd" d="M8.23703 102H39.7635L41 100.38V94H7V100.38L8.23703 102Z" fill="#2378D9"/>
<path d="M7 38H41H7Z" fill="black"/>
<path d="M7 38H41" stroke="#5B607D" stroke-width="0.752204" stroke-dasharray="2.01 2.01"/>
<g clip-path="url(#clip1)">
<path d="M52.7935 68.6125L51.0703 72H50.5004L52.3253 68.484H50.2649V68.0158H52.7935V68.6125ZM55.6967 70.7317C55.6967 70.9243 55.6655 71.1027 55.6031 71.2668C55.5424 71.431 55.4568 71.5728 55.3462 71.6923C55.2338 71.8136 55.0938 71.909 54.9261 71.9786C54.7602 72.0482 54.5738 72.0829 54.3669 72.0829C54.176 72.0829 53.9878 72.0615 53.8023 72.0187C53.6185 71.9777 53.4589 71.9233 53.3233 71.8555V71.2909H53.3608C53.4018 71.3212 53.4607 71.356 53.5374 71.3953C53.6141 71.4327 53.6988 71.4684 53.7916 71.5023C53.8968 71.5398 53.9932 71.5692 54.0806 71.5906C54.168 71.6102 54.2661 71.62 54.3749 71.62C54.4819 71.62 54.5863 71.6013 54.688 71.5638C54.7896 71.5246 54.8771 71.4622 54.9502 71.3765C55.0162 71.2981 55.0661 71.2062 55.1 71.1009C55.1357 70.9957 55.1536 70.8717 55.1536 70.729C55.1536 70.5881 55.1339 70.4721 55.0947 70.3812C55.0572 70.2902 55.0019 70.2153 54.9288 70.1564C54.8521 70.0886 54.7575 70.0413 54.6452 70.0146C54.5346 69.986 54.4106 69.9718 54.2732 69.9718C54.1287 69.9718 53.9833 69.9834 53.8371 70.0065C53.6908 70.0279 53.574 70.0485 53.4865 70.0681V68.0158H55.6727V68.484H54.003V69.5436C54.0672 69.5365 54.1305 69.5311 54.1929 69.5276C54.2554 69.524 54.3125 69.5222 54.3642 69.5222C54.5676 69.5222 54.7397 69.5392 54.8806 69.5731C55.0215 69.607 55.1571 69.673 55.2873 69.7711C55.4193 69.871 55.5201 69.9958 55.5897 70.1457C55.6611 70.2955 55.6967 70.4909 55.6967 70.7317ZM60.5506 70.63H60.077V72H59.5632V70.63H57.8026V70.0681L59.5846 68.0158H60.077V70.2019H60.5506V70.63ZM59.5632 70.2019V68.6446L58.22 70.2019H59.5632ZM62.0544 68.3957C61.9581 68.3957 61.8617 68.4073 61.7654 68.4305C61.6691 68.4537 61.5745 68.484 61.4818 68.5215C61.3962 68.5572 61.3212 68.5946 61.257 68.6339C61.1946 68.6731 61.1384 68.7097 61.0884 68.7436H61.0563V68.179C61.1723 68.1165 61.3293 68.0604 61.5273 68.0104C61.7271 67.9587 61.917 67.9328 62.0972 67.9328C62.2774 67.9328 62.4344 67.9515 62.5681 67.989C62.7037 68.0247 62.8259 68.0809 62.9347 68.1576C63.0525 68.2432 63.1408 68.3467 63.1996 68.468C63.2603 68.5893 63.2906 68.7311 63.2906 68.8934C63.2906 69.1128 63.2184 69.3055 63.0739 69.4714C62.9294 69.6373 62.7563 69.7425 62.5548 69.7871V69.8246C62.6386 69.8406 62.7278 69.8683 62.8223 69.9075C62.9187 69.9468 63.0079 70.0048 63.0899 70.0815C63.172 70.1582 63.2389 70.2572 63.2906 70.3785C63.3423 70.498 63.3682 70.6443 63.3682 70.8173C63.3682 70.9975 63.337 71.1634 63.2746 71.315C63.2139 71.4648 63.1274 71.5977 63.015 71.7137C62.8991 71.835 62.759 71.9269 62.5949 71.9893C62.4308 72.0517 62.2444 72.0829 62.0357 72.0829C61.8359 72.0829 61.6379 72.0589 61.4416 72.0107C61.2454 71.9625 61.0804 71.9046 60.9466 71.8368V71.2722H60.9841C61.0965 71.3542 61.2472 71.4327 61.4363 71.5077C61.6254 71.5826 61.8145 71.62 62.0036 71.62C62.1124 71.62 62.2212 71.6031 62.33 71.5692C62.4406 71.5335 62.5325 71.4764 62.6056 71.3979C62.677 71.3195 62.7314 71.2329 62.7688 71.1384C62.8063 71.0439 62.825 70.9243 62.825 70.7798C62.825 70.6354 62.8036 70.5167 62.7608 70.424C62.7198 70.3312 62.6618 70.2581 62.5869 70.2046C62.512 70.151 62.4228 70.1145 62.3193 70.0948C62.2176 70.0734 62.107 70.0627 61.9875 70.0627H61.7601V69.6186H61.9367C62.1775 69.6186 62.3728 69.5615 62.5227 69.4473C62.6743 69.3331 62.7501 69.1672 62.7501 68.9496C62.7501 68.8497 62.7305 68.7641 62.6912 68.6927C62.652 68.6196 62.602 68.5616 62.5414 68.5188C62.4736 68.4724 62.3987 68.4403 62.3166 68.4225C62.2346 68.4046 62.1472 68.3957 62.0544 68.3957ZM66.4293 72H63.9703V71.4408C64.1469 71.2731 64.3136 71.1125 64.4706 70.9591C64.6276 70.8057 64.781 70.6461 64.9309 70.4802C65.2341 70.1466 65.441 69.8799 65.5516 69.6801C65.6622 69.4785 65.7175 69.2707 65.7175 69.0566C65.7175 68.946 65.6997 68.8488 65.664 68.765C65.6301 68.6811 65.5829 68.6116 65.5222 68.5563C65.4598 68.5028 65.3875 68.4626 65.3055 68.4359C65.2234 68.4091 65.1333 68.3957 65.0352 68.3957C64.9407 68.3957 64.8443 68.4082 64.7462 68.4332C64.6499 68.4564 64.5571 68.4858 64.4679 68.5215C64.393 68.5518 64.3208 68.5884 64.2512 68.6312C64.1816 68.674 64.1254 68.7106 64.0826 68.7409H64.0532V68.1736C64.1638 68.1183 64.3172 68.0648 64.5134 68.0131C64.7114 67.9596 64.8987 67.9328 65.0754 67.9328C65.4464 67.9328 65.7372 68.0318 65.9477 68.2298C66.1582 68.426 66.2634 68.6927 66.2634 69.0299C66.2634 69.1851 66.2447 69.3287 66.2072 69.4607C66.1715 69.5927 66.1216 69.7149 66.0574 69.8273C65.9914 69.9432 65.912 70.0583 65.8192 70.1724C65.7265 70.2866 65.6283 70.399 65.5249 70.5096C65.3572 70.6915 65.1699 70.8806 64.963 71.0769C64.7578 71.2731 64.5937 71.4283 64.4706 71.5424H66.4293V72ZM67.818 72H67.1785V71.2374H67.818V72ZM71.0985 70.0065C71.0985 70.7219 70.9942 71.2472 70.7855 71.5826C70.5785 71.9162 70.2583 72.0829 69.8249 72.0829C69.386 72.0829 69.064 71.9126 68.8589 71.5719C68.6538 71.2312 68.5512 70.7112 68.5512 70.0119C68.5512 69.293 68.6547 68.7677 68.8616 68.4359C69.0703 68.1023 69.3914 67.9355 69.8249 67.9355C70.2637 67.9355 70.5857 68.1076 70.7908 68.4519C70.996 68.7962 71.0985 69.3144 71.0985 70.0065ZM70.4135 71.2213C70.4653 71.0893 70.5018 70.9226 70.5232 70.721C70.5446 70.5194 70.5554 70.2813 70.5554 70.0065C70.5554 69.7336 70.5446 69.4964 70.5232 69.2948C70.5018 69.0932 70.4644 68.9255 70.4109 68.7917C70.3573 68.6562 70.2833 68.5536 70.1888 68.484C70.096 68.4127 69.9747 68.377 69.8249 68.377C69.6768 68.377 69.5546 68.4127 69.4583 68.484C69.3637 68.5536 69.2888 68.6579 69.2335 68.7971C69.18 68.9327 69.1434 69.1039 69.1238 69.3108C69.1042 69.5178 69.0944 69.7515 69.0944 70.0119C69.0944 70.2902 69.1024 70.523 69.1185 70.7103C69.1363 70.8976 69.1738 71.0653 69.2308 71.2133C69.2826 71.3507 69.3557 71.4568 69.4503 71.5317C69.5466 71.6049 69.6715 71.6414 69.8249 71.6414C69.9729 71.6414 70.0942 71.6067 70.1888 71.5371C70.2851 71.4657 70.36 71.3605 70.4135 71.2213ZM74.0258 70.7317C74.0258 70.9243 73.9946 71.1027 73.9322 71.2668C73.8715 71.431 73.7859 71.5728 73.6753 71.6923C73.5629 71.8136 73.4229 71.909 73.2552 71.9786C73.0893 72.0482 72.9029 72.0829 72.696 72.0829C72.5051 72.0829 72.3169 72.0615 72.1314 72.0187C71.9477 71.9777 71.788 71.9233 71.6524 71.8555V71.2909H71.6899C71.7309 71.3212 71.7898 71.356 71.8665 71.3953C71.9432 71.4327 72.0279 71.4684 72.1207 71.5023C72.2259 71.5398 72.3223 71.5692 72.4097 71.5906C72.4971 71.6102 72.5952 71.62 72.704 71.62C72.811 71.62 72.9154 71.6013 73.0171 71.5638C73.1188 71.5246 73.2062 71.4622 73.2793 71.3765C73.3453 71.2981 73.3952 71.2062 73.4291 71.1009C73.4648 70.9957 73.4827 70.8717 73.4827 70.729C73.4827 70.5881 73.463 70.4721 73.4238 70.3812C73.3863 70.2902 73.331 70.2153 73.2579 70.1564C73.1812 70.0886 73.0866 70.0413 72.9743 70.0146C72.8637 69.986 72.7397 69.9718 72.6023 69.9718C72.4578 69.9718 72.3124 69.9834 72.1662 70.0065C72.0199 70.0279 71.9031 70.0485 71.8156 70.0681V68.0158H74.0018V68.484H72.3321V69.5436C72.3963 69.5365 72.4596 69.5311 72.5221 69.5276C72.5845 69.524 72.6416 69.5222 72.6933 69.5222C72.8967 69.5222 73.0688 69.5392 73.2097 69.5731C73.3507 69.607 73.4862 69.673 73.6164 69.7711C73.7485 69.871 73.8492 69.9958 73.9188 70.1457C73.9902 70.2955 74.0258 70.4909 74.0258 70.7317Z" fill="white"/>
</g>
<g clip-path="url(#clip2)">
<path d="M52.8551 98.63H52.3814V100H51.8677V98.63H50.107V98.0681L51.8891 96.0158H52.3814V98.2019H52.8551V98.63ZM51.8677 98.2019V96.6446L50.5245 98.2019H51.8677ZM57.5163 98.7076C57.5163 98.9127 57.4824 99.1018 57.4146 99.2749C57.3468 99.4479 57.2558 99.5924 57.1417 99.7083C57.0221 99.8314 56.8884 99.9251 56.7403 99.9893C56.5922 100.052 56.429 100.083 56.2506 100.083C56.0705 100.083 55.9063 100.053 55.7583 99.992C55.612 99.9313 55.4827 99.8412 55.3703 99.7217C55.2329 99.5772 55.125 99.3846 55.0465 99.1437C54.9698 98.9011 54.9315 98.6032 54.9315 98.25C54.9315 97.904 54.9671 97.5918 55.0385 97.3135C55.1099 97.0335 55.2196 96.79 55.3676 96.583C55.5121 96.3815 55.6985 96.2245 55.9269 96.1121C56.1552 95.9979 56.4192 95.9408 56.7189 95.9408C56.8081 95.9408 56.891 95.9453 56.9677 95.9542C57.0444 95.9631 57.1122 95.9774 57.1711 95.997V96.5081H57.147C57.0988 96.4813 57.0293 96.4573 56.9383 96.4359C56.8473 96.4127 56.7501 96.4011 56.6466 96.4011C56.3148 96.4011 56.0464 96.5135 55.8412 96.7382C55.6379 96.9612 55.5175 97.293 55.48 97.7336C55.6067 97.6444 55.7369 97.5757 55.8707 97.5276C56.0045 97.4794 56.1507 97.4553 56.3095 97.4553C56.4647 97.4553 56.6003 97.4714 56.7162 97.5035C56.8339 97.5338 56.9561 97.5963 57.0828 97.6908C57.2291 97.8014 57.3379 97.9414 57.4092 98.1109C57.4806 98.2804 57.5163 98.4793 57.5163 98.7076ZM56.9731 98.729C56.9731 98.5649 56.9517 98.4275 56.9089 98.3169C56.8661 98.2063 56.7965 98.1118 56.7002 98.0333C56.6306 97.9762 56.5512 97.9388 56.462 97.9209C56.3746 97.9031 56.2845 97.8942 56.1918 97.8942C56.0669 97.8942 55.9456 97.9129 55.8279 97.9504C55.7101 97.9878 55.5942 98.0422 55.48 98.1136C55.4764 98.1528 55.4738 98.1912 55.472 98.2286C55.4702 98.2643 55.4693 98.3098 55.4693 98.3651C55.4693 98.6416 55.4961 98.8646 55.5496 99.034C55.6049 99.2035 55.6727 99.3319 55.7529 99.4194C55.8296 99.5032 55.9081 99.5621 55.9884 99.596C56.0705 99.6299 56.1588 99.6468 56.2533 99.6468C56.4674 99.6468 56.6404 99.5701 56.7724 99.4167C56.9062 99.2633 56.9731 99.034 56.9731 98.729ZM59.9218 97.6533C59.9218 97.3822 59.8968 97.1619 59.8469 96.9924C59.7969 96.8212 59.7282 96.6892 59.6408 96.5964C59.5624 96.5108 59.483 96.4519 59.4027 96.4198C59.3224 96.3877 59.2341 96.3716 59.1378 96.3716C58.9184 96.3716 58.7436 96.4501 58.6133 96.6071C58.4831 96.7641 58.418 96.9915 58.418 97.2894C58.418 97.4571 58.4394 97.5954 58.4822 97.7042C58.525 97.813 58.5946 97.9066 58.6909 97.9851C58.7587 98.0404 58.8354 98.0779 58.9211 98.0975C59.0067 98.1154 59.0985 98.1243 59.1967 98.1243C59.3108 98.1243 59.4339 98.1047 59.5659 98.0654C59.6979 98.0244 59.813 97.9709 59.9111 97.9049C59.9129 97.8781 59.9147 97.8433 59.9164 97.8005C59.92 97.7559 59.9218 97.7069 59.9218 97.6533ZM57.8748 97.3108C57.8748 97.1057 57.9078 96.9184 57.9738 96.7489C58.0416 96.5795 58.1335 96.4332 58.2494 96.3101C58.36 96.1924 58.4947 96.1005 58.6535 96.0345C58.814 95.9685 58.9764 95.9355 59.1405 95.9355C59.3242 95.9355 59.4901 95.9667 59.6382 96.0291C59.788 96.0898 59.9173 96.1781 60.0262 96.294C60.1635 96.4403 60.2696 96.6321 60.3446 96.8693C60.4213 97.1066 60.4596 97.4063 60.4596 97.7684C60.4596 98.0984 60.4222 98.4115 60.3472 98.7076C60.2741 99.0019 60.1653 99.2463 60.0208 99.4408C59.8674 99.6477 59.6828 99.8056 59.4669 99.9144C59.2529 100.023 58.9879 100.078 58.6722 100.078C58.6009 100.078 58.525 100.073 58.4448 100.064C58.3645 100.057 58.2896 100.043 58.22 100.021V99.5103H58.2468C58.2914 99.5353 58.3609 99.5594 58.4555 99.5826C58.55 99.6058 58.6463 99.6174 58.7445 99.6174C59.0941 99.6174 59.3688 99.5023 59.5686 99.2722C59.7684 99.0421 59.8817 98.7129 59.9084 98.2848C59.7657 98.3812 59.6292 98.4516 59.499 98.4962C59.3706 98.5408 59.2306 98.5631 59.0789 98.5631C58.9309 98.5631 58.7962 98.5471 58.6749 98.5149C58.5536 98.4828 58.4314 98.4204 58.3083 98.3276C58.1656 98.2188 58.0577 98.0815 57.9845 97.9156C57.9114 97.7479 57.8748 97.5463 57.8748 97.3108ZM62.0544 96.3957C61.9581 96.3957 61.8617 96.4073 61.7654 96.4305C61.6691 96.4537 61.5745 96.484 61.4818 96.5215C61.3962 96.5572 61.3212 96.5946 61.257 96.6339C61.1946 96.6731 61.1384 96.7097 61.0884 96.7436H61.0563V96.179C61.1723 96.1165 61.3293 96.0604 61.5273 96.0104C61.7271 95.9587 61.917 95.9328 62.0972 95.9328C62.2774 95.9328 62.4344 95.9515 62.5681 95.989C62.7037 96.0247 62.8259 96.0809 62.9347 96.1576C63.0525 96.2432 63.1408 96.3467 63.1996 96.468C63.2603 96.5893 63.2906 96.7311 63.2906 96.8934C63.2906 97.1128 63.2184 97.3055 63.0739 97.4714C62.9294 97.6373 62.7563 97.7425 62.5548 97.7871V97.8246C62.6386 97.8406 62.7278 97.8683 62.8223 97.9075C62.9187 97.9468 63.0079 98.0048 63.0899 98.0815C63.172 98.1582 63.2389 98.2572 63.2906 98.3785C63.3423 98.498 63.3682 98.6443 63.3682 98.8173C63.3682 98.9975 63.337 99.1634 63.2746 99.315C63.2139 99.4648 63.1274 99.5977 63.015 99.7137C62.8991 99.835 62.759 99.9269 62.5949 99.9893C62.4308 100.052 62.2444 100.083 62.0357 100.083C61.8359 100.083 61.6379 100.059 61.4416 100.011C61.2454 99.9625 61.0804 99.9046 60.9466 99.8368V99.2722H60.9841C61.0965 99.3542 61.2472 99.4327 61.4363 99.5077C61.6254 99.5826 61.8145 99.62 62.0036 99.62C62.1124 99.62 62.2212 99.6031 62.33 99.5692C62.4406 99.5335 62.5325 99.4764 62.6056 99.3979C62.677 99.3195 62.7314 99.2329 62.7688 99.1384C62.8063 99.0439 62.825 98.9243 62.825 98.7798C62.825 98.6354 62.8036 98.5167 62.7608 98.424C62.7198 98.3312 62.6618 98.2581 62.5869 98.2046C62.512 98.151 62.4228 98.1145 62.3193 98.0948C62.2176 98.0734 62.107 98.0627 61.9875 98.0627H61.7601V97.6186H61.9367C62.1775 97.6186 62.3728 97.5615 62.5227 97.4473C62.6743 97.3331 62.7501 97.1672 62.7501 96.9496C62.7501 96.8497 62.7305 96.7641 62.6912 96.6927C62.652 96.6196 62.602 96.5616 62.5414 96.5188C62.4736 96.4724 62.3987 96.4403 62.3166 96.4225C62.2346 96.4046 62.1472 96.3957 62.0544 96.3957ZM64.8265 100H64.187V99.2374H64.8265V100ZM68.107 98.0065C68.107 98.7219 68.0027 99.2472 67.7939 99.5826C67.587 99.9162 67.2668 100.083 66.8333 100.083C66.3945 100.083 66.0725 99.9126 65.8674 99.5719C65.6622 99.2312 65.5597 98.7112 65.5597 98.0119C65.5597 97.293 65.6631 96.7677 65.8701 96.4359C66.0788 96.1023 66.3999 95.9355 66.8333 95.9355C67.2722 95.9355 67.5942 96.1076 67.7993 96.4519C68.0044 96.7962 68.107 97.3144 68.107 98.0065ZM67.422 99.2213C67.4737 99.0893 67.5103 98.9226 67.5317 98.721C67.5531 98.5194 67.5638 98.2813 67.5638 98.0065C67.5638 97.7336 67.5531 97.4964 67.5317 97.2948C67.5103 97.0932 67.4729 96.9255 67.4193 96.7917C67.3658 96.6562 67.2918 96.5536 67.1972 96.484C67.1045 96.4127 66.9832 96.377 66.8333 96.377C66.6853 96.377 66.5631 96.4127 66.4668 96.484C66.3722 96.5536 66.2973 96.6579 66.242 96.7971C66.1885 96.9327 66.1519 97.1039 66.1323 97.3108C66.1127 97.5178 66.1029 97.7515 66.1029 98.0119C66.1029 98.2902 66.1109 98.523 66.1269 98.7103C66.1448 98.8976 66.1822 99.0653 66.2393 99.2133C66.291 99.3507 66.3642 99.4568 66.4587 99.5317C66.5551 99.6049 66.6799 99.6414 66.8333 99.6414C66.9814 99.6414 67.1027 99.6067 67.1972 99.5371C67.2936 99.4657 67.3685 99.3605 67.422 99.2213ZM71.1413 98.7076C71.1413 98.9127 71.1075 99.1018 71.0397 99.2749C70.9719 99.4479 70.8809 99.5924 70.7667 99.7083C70.6472 99.8314 70.5134 99.9251 70.3654 99.9893C70.2173 100.052 70.0541 100.083 69.8757 100.083C69.6955 100.083 69.5314 100.053 69.3834 99.992C69.2371 99.9313 69.1078 99.8412 68.9954 99.7217C68.858 99.5772 68.7501 99.3846 68.6716 99.1437C68.5949 98.9011 68.5565 98.6032 68.5565 98.25C68.5565 97.904 68.5922 97.5918 68.6636 97.3135C68.7349 97.0335 68.8446 96.79 68.9927 96.583C69.1372 96.3815 69.3236 96.2245 69.5519 96.1121C69.7803 95.9979 70.0443 95.9408 70.344 95.9408C70.4332 95.9408 70.5161 95.9453 70.5928 95.9542C70.6695 95.9631 70.7373 95.9774 70.7962 95.997V96.5081H70.7721C70.7239 96.4813 70.6544 96.4573 70.5634 96.4359C70.4724 96.4127 70.3752 96.4011 70.2717 96.4011C69.9399 96.4011 69.6715 96.5135 69.4663 96.7382C69.2629 96.9612 69.1425 97.293 69.1051 97.7336C69.2317 97.6444 69.362 97.5757 69.4957 97.5276C69.6295 97.4794 69.7758 97.4553 69.9346 97.4553C70.0898 97.4553 70.2253 97.4714 70.3413 97.5035C70.459 97.5338 70.5812 97.5963 70.7079 97.6908C70.8541 97.8014 70.963 97.9414 71.0343 98.1109C71.1057 98.2804 71.1413 98.4793 71.1413 98.7076ZM70.5982 98.729C70.5982 98.5649 70.5768 98.4275 70.5339 98.3169C70.4911 98.2063 70.4216 98.1118 70.3252 98.0333C70.2557 97.9762 70.1763 97.9388 70.0871 97.9209C69.9997 97.9031 69.9096 97.8942 69.8168 97.8942C69.692 97.8942 69.5707 97.9129 69.4529 97.9504C69.3352 97.9878 69.2192 98.0422 69.1051 98.1136C69.1015 98.1528 69.0988 98.1912 69.0971 98.2286C69.0953 98.2643 69.0944 98.3098 69.0944 98.3651C69.0944 98.6416 69.1211 98.8646 69.1746 99.034C69.2299 99.2035 69.2977 99.3319 69.378 99.4194C69.4547 99.5032 69.5332 99.5621 69.6135 99.596C69.6955 99.6299 69.7838 99.6468 69.8784 99.6468C70.0924 99.6468 70.2655 99.5701 70.3975 99.4167C70.5313 99.2633 70.5982 99.034 70.5982 98.729Z" fill="white"/>
</g>
<g clip-path="url(#clip3)">
<path d="M52.5473 41H50.6047V40.5933H51.3272V37.9229H50.6047V37.5589C50.8777 37.5589 51.0783 37.5206 51.2068 37.4439C51.337 37.3654 51.4101 37.2182 51.4262 37.0024H51.8409V40.5933H52.5473V41ZM55.1616 37.9443C55.1616 37.7659 55.1018 37.6169 54.9823 37.4974C54.8628 37.3779 54.6969 37.3181 54.4846 37.3181C54.2902 37.3181 54.1305 37.3716 54.0056 37.4787C53.8826 37.5857 53.821 37.7302 53.821 37.9121C53.821 38.0442 53.8522 38.1556 53.9147 38.2466C53.9789 38.3376 54.0743 38.4197 54.201 38.4928C54.2563 38.5231 54.3401 38.565 54.4525 38.6186C54.5667 38.6721 54.6701 38.714 54.7629 38.7443C54.9181 38.6248 55.0233 38.5026 55.0786 38.3777C55.1339 38.2511 55.1616 38.1066 55.1616 37.9443ZM55.2365 39.9404C55.2365 39.7763 55.2044 39.6461 55.1402 39.5497C55.076 39.4534 54.952 39.3553 54.7682 39.2554C54.7076 39.2215 54.6264 39.1849 54.5247 39.1457C54.4249 39.1064 54.3116 39.0601 54.1849 39.0065C54.0369 39.1047 53.9236 39.226 53.8451 39.3704C53.7666 39.5132 53.7274 39.6764 53.7274 39.8601C53.7274 40.1009 53.7996 40.2998 53.9441 40.4568C54.0904 40.6138 54.2732 40.6923 54.4926 40.6923C54.7174 40.6923 54.8976 40.6254 55.0331 40.4916C55.1687 40.356 55.2365 40.1723 55.2365 39.9404ZM54.4873 41.091C54.2893 41.091 54.1091 41.0615 53.9468 41.0027C53.7844 40.9438 53.6462 40.8591 53.532 40.7485C53.4196 40.6414 53.334 40.5148 53.2752 40.3685C53.2181 40.2205 53.1895 40.0644 53.1895 39.9003C53.1895 39.6844 53.2466 39.4864 53.3608 39.3062C53.4767 39.1243 53.6444 38.9798 53.8638 38.8728V38.8567C53.6676 38.7425 53.5222 38.6177 53.4277 38.4821C53.3331 38.3465 53.2859 38.1771 53.2859 37.9737C53.2859 37.674 53.3991 37.4243 53.6257 37.2245C53.8522 37.0247 54.1394 36.9248 54.4873 36.9248C54.8494 36.9248 55.1393 37.0202 55.3569 37.2111C55.5763 37.4002 55.686 37.6428 55.686 37.9389C55.686 38.1173 55.6334 38.2939 55.5282 38.4687C55.4247 38.6435 55.2749 38.78 55.0786 38.8781V38.8942C55.3105 39.003 55.4862 39.135 55.6058 39.2902C55.7253 39.4454 55.785 39.6452 55.785 39.8896C55.785 40.2303 55.6611 40.5157 55.4131 40.7458C55.1669 40.9759 54.8583 41.091 54.4873 41.091ZM58.5304 41H56.5878V40.5933H57.3102V37.9229H56.5878V37.5589C56.8607 37.5589 57.0614 37.5206 57.1898 37.4439C57.32 37.3654 57.3932 37.2182 57.4092 37.0024H57.824V40.5933H58.5304V41ZM63.5421 39.63H63.0685V41H62.5548V39.63H60.7941V39.0681L62.5762 37.0158H63.0685V39.2019H63.5421V39.63ZM62.5548 39.2019V37.6446L61.2115 39.2019H62.5548ZM66.3838 39.7317C66.3838 39.9243 66.3526 40.1027 66.2902 40.2668C66.2295 40.431 66.1439 40.5728 66.0333 40.6923C65.9209 40.8136 65.7809 40.909 65.6132 40.9786C65.4473 41.0482 65.2609 41.0829 65.0539 41.0829C64.8631 41.0829 64.6749 41.0615 64.4894 41.0187C64.3056 40.9777 64.146 40.9233 64.0104 40.8555V40.2909H64.0479C64.0889 40.3212 64.1477 40.356 64.2245 40.3953C64.3012 40.4327 64.3859 40.4684 64.4787 40.5023C64.5839 40.5398 64.6802 40.5692 64.7676 40.5906C64.855 40.6102 64.9532 40.62 65.062 40.62C65.169 40.62 65.2734 40.6013 65.375 40.5638C65.4767 40.5246 65.5641 40.4622 65.6373 40.3765C65.7033 40.2981 65.7532 40.2062 65.7871 40.1009C65.8228 39.9957 65.8406 39.8717 65.8406 39.729C65.8406 39.5881 65.821 39.4721 65.7818 39.3812C65.7443 39.2902 65.689 39.2153 65.6159 39.1564C65.5392 39.0886 65.4446 39.0413 65.3322 39.0146C65.2216 38.986 65.0976 38.9718 64.9603 38.9718C64.8158 38.9718 64.6704 38.9834 64.5241 39.0065C64.3779 39.0279 64.261 39.0485 64.1736 39.0681V37.0158H66.3597V37.484H64.69V38.5436C64.7543 38.5365 64.8176 38.5311 64.88 38.5276C64.9425 38.524 64.9995 38.5222 65.0513 38.5222C65.2546 38.5222 65.4268 38.5392 65.5677 38.5731C65.7086 38.607 65.8442 38.673 65.9744 38.7711C66.1064 38.871 66.2072 38.9958 66.2768 39.1457C66.3481 39.2955 66.3838 39.4909 66.3838 39.7317ZM69.4396 39.0065C69.4396 39.7219 69.3352 40.2472 69.1265 40.5826C68.9196 40.9162 68.5994 41.0829 68.1659 41.0829C67.7271 41.0829 67.4051 40.9126 67.1999 40.5719C66.9948 40.2312 66.8922 39.7112 66.8922 39.0119C66.8922 38.293 66.9957 37.7677 67.2026 37.4359C67.4113 37.1023 67.7324 36.9355 68.1659 36.9355C68.6047 36.9355 68.9267 37.1076 69.1318 37.4519C69.337 37.7962 69.4396 38.3144 69.4396 39.0065ZM68.7546 40.2213C68.8063 40.0893 68.8429 39.9226 68.8643 39.721C68.8857 39.5194 68.8964 39.2813 68.8964 39.0065C68.8964 38.7336 68.8857 38.4964 68.8643 38.2948C68.8429 38.0932 68.8054 37.9255 68.7519 37.7917C68.6984 37.6562 68.6243 37.5536 68.5298 37.484C68.437 37.4127 68.3157 37.377 68.1659 37.377C68.0178 37.377 67.8956 37.4127 67.7993 37.484C67.7048 37.5536 67.6298 37.6579 67.5745 37.7971C67.521 37.9327 67.4844 38.1039 67.4648 38.3108C67.4452 38.5178 67.4354 38.7515 67.4354 39.0119C67.4354 39.2902 67.4434 39.523 67.4595 39.7103C67.4773 39.8976 67.5148 40.0653 67.5719 40.2133C67.6236 40.3507 67.6967 40.4568 67.7913 40.5317C67.8876 40.6049 68.0125 40.6414 68.1659 40.6414C68.3139 40.6414 68.4352 40.6067 68.5298 40.5371C68.6261 40.4657 68.701 40.3605 68.7546 40.2213ZM70.8096 41H70.17V40.2374H70.8096V41ZM73.868 41H71.9254V40.5933H72.6478V37.9229H71.9254V37.5589C72.1983 37.5589 72.399 37.5206 72.5274 37.4439C72.6576 37.3654 72.7308 37.2182 72.7468 37.0024H73.1616V40.5933H73.868V41Z" fill="white"/>
</g>
<path d="M17.2966 19H16.7668V17.0494H14.9338V19H14.404V15.0158H14.9338V16.5784H16.7668V15.0158H17.2966V19ZM19.3649 19.0696C18.8887 19.0696 18.5185 18.9358 18.2545 18.6682C17.9923 18.3988 17.8612 18.0171 17.8612 17.523C17.8612 17.036 17.9887 16.6489 18.2438 16.3617C18.4989 16.0727 18.8325 15.9282 19.2445 15.9282C19.4301 15.9282 19.5942 15.955 19.7369 16.0085C19.8796 16.062 20.0045 16.1458 20.1115 16.26C20.2185 16.3742 20.3006 16.5142 20.3577 16.6801C20.4147 16.8442 20.4433 17.0458 20.4433 17.2848V17.5578H18.3722C18.3722 17.9056 18.4596 18.1714 18.6345 18.3551C18.8093 18.5389 19.051 18.6307 19.3596 18.6307C19.4702 18.6307 19.5781 18.6183 19.6834 18.5933C19.7904 18.5683 19.8867 18.5362 19.9723 18.497C20.0633 18.4559 20.14 18.4167 20.2025 18.3792C20.2649 18.34 20.3166 18.3034 20.3577 18.2695H20.3871V18.818C20.3282 18.8412 20.2551 18.8707 20.1677 18.9063C20.0803 18.9402 20.0018 18.967 19.9322 18.9866C19.8341 19.0134 19.7449 19.0339 19.6646 19.0482C19.5861 19.0624 19.4862 19.0696 19.3649 19.0696ZM19.9536 17.1724C19.95 17.0369 19.934 16.92 19.9054 16.8219C19.8769 16.7238 19.8359 16.6409 19.7824 16.5731C19.7235 16.4981 19.6477 16.4411 19.5549 16.4018C19.4639 16.3626 19.3507 16.3429 19.2151 16.3429C19.0813 16.3429 18.9671 16.3635 18.8726 16.4045C18.7798 16.4437 18.6951 16.5017 18.6184 16.5784C18.5435 16.6569 18.4864 16.7443 18.4471 16.8406C18.4079 16.9352 18.3829 17.0458 18.3722 17.1724H19.9536ZM24.5854 17.4266C24.5854 17.6924 24.5524 17.9279 24.4864 18.133C24.4222 18.3364 24.3365 18.5041 24.2295 18.6361C24.1207 18.7699 23.9976 18.8716 23.8603 18.9411C23.7229 19.0089 23.5793 19.0428 23.4295 19.0428C23.3171 19.0428 23.2181 19.0214 23.1324 18.9786C23.0486 18.9358 22.9772 18.8992 22.9184 18.8689V20.1024H22.4207V18.8689C22.3154 18.9242 22.2316 18.967 22.1692 18.9973C22.1067 19.0276 22.0042 19.0428 21.8614 19.0428C21.5261 19.0428 21.2576 18.9072 21.056 18.6361C20.8545 18.3632 20.7537 17.9894 20.7537 17.5149C20.7537 17.2652 20.7858 17.0422 20.85 16.846C20.9142 16.6498 21.0025 16.483 21.1149 16.3456C21.2184 16.219 21.3379 16.1209 21.4735 16.0513C21.6108 15.9799 21.7535 15.9443 21.9016 15.9443C22.0068 15.9443 22.1014 15.963 22.1852 16.0004C22.2708 16.0361 22.3493 16.0772 22.4207 16.1235V14.8365H22.9184V16.1235C22.9969 16.0754 23.087 16.0335 23.1886 15.9978C23.2903 15.9621 23.3947 15.9443 23.5017 15.9443C23.8371 15.9443 24.1011 16.0789 24.2937 16.3483C24.4882 16.6159 24.5854 16.9753 24.5854 17.4266ZM24.069 17.4828C24.069 17.1421 24.011 16.8728 23.895 16.6747C23.7809 16.4767 23.6114 16.3777 23.3866 16.3777C23.2939 16.3777 23.2118 16.3902 23.1405 16.4152C23.0709 16.4384 22.9969 16.4643 22.9184 16.4928V18.4862C22.9969 18.5237 23.0602 18.554 23.1084 18.5772C23.1583 18.6004 23.2306 18.612 23.3251 18.612C23.557 18.612 23.739 18.5166 23.871 18.3257C24.003 18.1348 24.069 17.8539 24.069 17.4828ZM22.4207 18.4862V16.4928C22.3565 16.4625 22.2922 16.4357 22.228 16.4125C22.1638 16.3893 22.0925 16.3777 22.014 16.3777C21.7856 16.3777 21.6046 16.4678 21.4708 16.648C21.337 16.8282 21.2701 17.1091 21.2701 17.4909C21.2701 17.8387 21.3299 18.1125 21.4494 18.3123C21.5707 18.5121 21.7437 18.612 21.9685 18.612C22.0577 18.612 22.1379 18.5986 22.2093 18.5719C22.2807 18.5451 22.3511 18.5166 22.4207 18.4862ZM27.2986 16.4527H26.2818V19H25.7788V16.4527H24.762V16.0112H27.2986V16.4527ZM29.937 18.0742C29.937 18.2187 29.9075 18.3498 29.8487 18.4675C29.7916 18.5853 29.7131 18.6807 29.6132 18.7538C29.4954 18.843 29.3697 18.9063 29.2359 18.9438C29.1021 18.9813 28.93 19 28.7195 19H27.6732V16.0112H28.1763V17.1751H28.7329C28.9576 17.1751 29.1315 17.1867 29.2546 17.2099C29.3795 17.2331 29.5035 17.2902 29.6266 17.3812C29.73 17.4579 29.8076 17.556 29.8594 17.6755C29.9111 17.795 29.937 17.9279 29.937 18.0742ZM29.4179 18.0822C29.4179 17.9912 29.4018 17.9118 29.3697 17.8441C29.3394 17.7745 29.2885 17.7183 29.2172 17.6755C29.1422 17.6309 29.0566 17.6041 28.9603 17.5952C28.8657 17.5863 28.7293 17.5818 28.5509 17.5818H28.1763V18.5986H28.5402C28.7186 18.5986 28.8568 18.5915 28.9549 18.5772C29.0531 18.5612 29.1378 18.5317 29.2091 18.4889C29.2823 18.4425 29.3349 18.3881 29.367 18.3257C29.4009 18.2615 29.4179 18.1803 29.4179 18.0822Z" fill="#60647F"/>
<path opacity="0.5" fill-rule="evenodd" clip-rule="evenodd" d="M127.899 104H162.1L164 102.134V27.8667L162.1 26H127.899L126 27.8667V102.134L127.899 104Z" fill="#1B1F2C" stroke="#5B607D" stroke-width="0.501469"/>
<rect x="127" y="80" width="34" height="14" fill="#2378D9"/>
<rect opacity="0.5" x="127" y="56" width="34" height="24" fill="#2378D9"/>
<path opacity="0.5" fill-rule="evenodd" clip-rule="evenodd" d="M128.237 102H159.763L161 100.38V94H127V100.38L128.237 102Z" fill="#2378D9"/>
<path d="M127 38H161H127Z" fill="black"/>
<path d="M127 38H161" stroke="#5B607D" stroke-width="0.752204" stroke-dasharray="2.01 2.01"/>
<g clip-path="url(#clip4)">
<path d="M172.794 68.6125L171.07 72H170.5L172.325 68.484H170.265V68.0158H172.794V68.6125ZM176.071 68.3957C175.975 68.3957 175.879 68.4073 175.782 68.4305C175.686 68.4537 175.591 68.484 175.499 68.5215C175.413 68.5572 175.338 68.5946 175.274 68.6339C175.212 68.6731 175.155 68.7097 175.105 68.7436H175.073V68.179C175.189 68.1165 175.346 68.0604 175.544 68.0104C175.744 67.9587 175.934 67.9328 176.114 67.9328C176.294 67.9328 176.451 67.9515 176.585 67.989C176.721 68.0247 176.843 68.0809 176.952 68.1576C177.069 68.2432 177.158 68.3467 177.217 68.468C177.277 68.5893 177.308 68.7311 177.308 68.8934C177.308 69.1128 177.235 69.3055 177.091 69.4714C176.946 69.6373 176.773 69.7425 176.572 69.7871V69.8246C176.656 69.8406 176.745 69.8683 176.839 69.9075C176.936 69.9468 177.025 70.0048 177.107 70.0815C177.189 70.1582 177.256 70.2572 177.308 70.3785C177.359 70.498 177.385 70.6443 177.385 70.8173C177.385 70.9975 177.354 71.1634 177.292 71.315C177.231 71.4648 177.144 71.5977 177.032 71.7137C176.916 71.835 176.776 71.9269 176.612 71.9893C176.448 72.0517 176.261 72.0829 176.053 72.0829C175.853 72.0829 175.655 72.0589 175.459 72.0107C175.262 71.9625 175.097 71.9046 174.964 71.8368V71.2722H175.001C175.113 71.3542 175.264 71.4327 175.453 71.5077C175.642 71.5826 175.831 71.62 176.021 71.62C176.129 71.62 176.238 71.6031 176.347 71.5692C176.458 71.5335 176.549 71.4764 176.623 71.3979C176.694 71.3195 176.748 71.2329 176.786 71.1384C176.823 71.0439 176.842 70.9243 176.842 70.7798C176.842 70.6354 176.821 70.5167 176.778 70.424C176.737 70.3312 176.679 70.2581 176.604 70.2046C176.529 70.151 176.44 70.1145 176.336 70.0948C176.235 70.0734 176.124 70.0627 176.004 70.0627H175.777V69.6186H175.954C176.194 69.6186 176.39 69.5615 176.54 69.4473C176.691 69.3331 176.767 69.1672 176.767 68.9496C176.767 68.8497 176.747 68.7641 176.708 68.6927C176.669 68.6196 176.619 68.5616 176.558 68.5188C176.491 68.4724 176.416 68.4403 176.334 68.4225C176.252 68.4046 176.164 68.3957 176.071 68.3957ZM180.243 72H178.3V71.5933H179.023V68.9229H178.3V68.5589C178.573 68.5589 178.774 68.5206 178.902 68.4439C179.033 68.3654 179.106 68.2182 179.122 68.0024H179.536V71.5933H180.243V72ZM183.481 68.6125L181.757 72H181.187L183.012 68.484H180.952V68.0158H183.481V68.6125ZM184.827 72H184.187V71.2374H184.827V72ZM188.15 70.7076C188.15 70.9127 188.116 71.1018 188.048 71.2749C187.98 71.4479 187.889 71.5924 187.775 71.7083C187.656 71.8314 187.522 71.9251 187.374 71.9893C187.226 72.0517 187.063 72.0829 186.884 72.0829C186.704 72.0829 186.54 72.0526 186.392 71.992C186.246 71.9313 186.116 71.8412 186.004 71.7217C185.866 71.5772 185.759 71.3846 185.68 71.1437C185.603 70.9011 185.565 70.6032 185.565 70.25C185.565 69.904 185.601 69.5918 185.672 69.3135C185.743 69.0335 185.853 68.79 186.001 68.583C186.146 68.3815 186.332 68.2245 186.56 68.1121C186.789 67.9979 187.053 67.9408 187.352 67.9408C187.442 67.9408 187.525 67.9453 187.601 67.9542C187.678 67.9631 187.746 67.9774 187.805 67.997V68.5081H187.781C187.732 68.4813 187.663 68.4573 187.572 68.4359C187.481 68.4127 187.384 68.4011 187.28 68.4011C186.948 68.4011 186.68 68.5135 186.475 68.7382C186.271 68.9612 186.151 69.293 186.114 69.7336C186.24 69.6444 186.37 69.5757 186.504 69.5276C186.638 69.4794 186.784 69.4553 186.943 69.4553C187.098 69.4553 187.234 69.4714 187.35 69.5035C187.468 69.5338 187.59 69.5963 187.716 69.6908C187.863 69.8014 187.971 69.9414 188.043 70.1109C188.114 70.2804 188.15 70.4793 188.15 70.7076ZM187.607 70.729C187.607 70.5649 187.585 70.4275 187.542 70.3169C187.5 70.2063 187.43 70.1118 187.334 70.0333C187.264 69.9762 187.185 69.9388 187.096 69.9209C187.008 69.9031 186.918 69.8942 186.825 69.8942C186.7 69.8942 186.579 69.9129 186.461 69.9504C186.344 69.9878 186.228 70.0422 186.114 70.1136C186.11 70.1528 186.107 70.1912 186.106 70.2286C186.104 70.2643 186.103 70.3098 186.103 70.3651C186.103 70.6416 186.13 70.8646 186.183 71.034C186.238 71.2035 186.306 71.3319 186.386 71.4194C186.463 71.5032 186.542 71.5621 186.622 71.596C186.704 71.6299 186.792 71.6468 186.887 71.6468C187.101 71.6468 187.274 71.5701 187.406 71.4167C187.54 71.2633 187.607 71.034 187.607 70.729ZM189.696 68.3957C189.6 68.3957 189.504 68.4073 189.407 68.4305C189.311 68.4537 189.217 68.484 189.124 68.5215C189.038 68.5572 188.963 68.5946 188.899 68.6339C188.837 68.6731 188.78 68.7097 188.73 68.7436H188.698V68.179C188.814 68.1165 188.971 68.0604 189.169 68.0104C189.369 67.9587 189.559 67.9328 189.739 67.9328C189.919 67.9328 190.076 67.9515 190.21 67.989C190.346 68.0247 190.468 68.0809 190.577 68.1576C190.694 68.2432 190.783 68.3467 190.842 68.468C190.902 68.5893 190.933 68.7311 190.933 68.8934C190.933 69.1128 190.86 69.3055 190.716 69.4714C190.571 69.6373 190.398 69.7425 190.197 69.7871V69.8246C190.281 69.8406 190.37 69.8683 190.464 69.9075C190.561 69.9468 190.65 70.0048 190.732 70.0815C190.814 70.1582 190.881 70.2572 190.933 70.3785C190.984 70.498 191.01 70.6443 191.01 70.8173C191.01 70.9975 190.979 71.1634 190.917 71.315C190.856 71.4648 190.769 71.5977 190.657 71.7137C190.541 71.835 190.401 71.9269 190.237 71.9893C190.073 72.0517 189.886 72.0829 189.678 72.0829C189.478 72.0829 189.28 72.0589 189.084 72.0107C188.887 71.9625 188.722 71.9046 188.589 71.8368V71.2722H188.626C188.738 71.3542 188.889 71.4327 189.078 71.5077C189.267 71.5826 189.456 71.62 189.646 71.62C189.754 71.62 189.863 71.6031 189.972 71.5692C190.083 71.5335 190.174 71.4764 190.248 71.3979C190.319 71.3195 190.373 71.2329 190.411 71.1384C190.448 71.0439 190.467 70.9243 190.467 70.7798C190.467 70.6354 190.446 70.5167 190.403 70.424C190.362 70.3312 190.304 70.2581 190.229 70.2046C190.154 70.151 190.065 70.1145 189.961 70.0948C189.86 70.0734 189.749 70.0627 189.63 70.0627H189.402V69.6186H189.579C189.82 69.6186 190.015 69.5615 190.165 69.4473C190.316 69.3331 190.392 69.1672 190.392 68.9496C190.392 68.8497 190.373 68.7641 190.333 68.6927C190.294 68.6196 190.244 68.5616 190.183 68.5188C190.116 68.4724 190.041 68.4403 189.959 68.4225C189.877 68.4046 189.789 68.3957 189.696 68.3957Z" fill="white"/>
</g>
<g clip-path="url(#clip5)">
<path d="M172.547 100H170.605V99.5933H171.327V96.9229H170.605V96.5589C170.878 96.5589 171.078 96.5206 171.207 96.4439C171.337 96.3654 171.41 96.2182 171.426 96.0024H171.841V99.5933H172.547V100ZM177.498 96.6125L175.774 100H175.204L177.029 96.484H174.969V96.0158H177.498V96.6125ZM180.243 100H178.3V99.5933H179.023V96.9229H178.3V96.5589C178.573 96.5589 178.774 96.5206 178.902 96.4439C179.033 96.3654 179.106 96.2182 179.122 96.0024H179.536V99.5933H180.243V100ZM183.457 98.0065C183.457 98.7219 183.352 99.2472 183.143 99.5826C182.937 99.9162 182.616 100.083 182.183 100.083C181.744 100.083 181.422 99.9126 181.217 99.5719C181.012 99.2312 180.909 98.7112 180.909 98.0119C180.909 97.293 181.013 96.7677 181.22 96.4359C181.428 96.1023 181.749 95.9355 182.183 95.9355C182.622 95.9355 182.944 96.1076 183.149 96.4519C183.354 96.7962 183.457 97.3144 183.457 98.0065ZM182.772 99.2213C182.823 99.0893 182.86 98.9226 182.881 98.721C182.903 98.5194 182.913 98.2813 182.913 98.0065C182.913 97.7336 182.903 97.4964 182.881 97.2948C182.86 97.0932 182.822 96.9255 182.769 96.7917C182.715 96.6562 182.641 96.5536 182.547 96.484C182.454 96.4127 182.333 96.377 182.183 96.377C182.035 96.377 181.913 96.4127 181.816 96.484C181.722 96.5536 181.647 96.6579 181.591 96.7971C181.538 96.9327 181.501 97.1039 181.482 97.3108C181.462 97.5178 181.452 97.7515 181.452 98.0119C181.452 98.2902 181.46 98.523 181.476 98.7103C181.494 98.8976 181.532 99.0653 181.589 99.2133C181.641 99.3507 181.714 99.4568 181.808 99.5317C181.905 99.6049 182.029 99.6414 182.183 99.6414C182.331 99.6414 182.452 99.6067 182.547 99.5371C182.643 99.4657 182.718 99.3605 182.772 99.2213ZM184.827 100H184.187V99.2374H184.827V100ZM187.564 97.6533C187.564 97.3822 187.539 97.1619 187.489 96.9924C187.439 96.8212 187.37 96.6892 187.283 96.5964C187.204 96.5108 187.125 96.4519 187.045 96.4198C186.964 96.3877 186.876 96.3716 186.78 96.3716C186.56 96.3716 186.386 96.4501 186.255 96.6071C186.125 96.7641 186.06 96.9915 186.06 97.2894C186.06 97.4571 186.081 97.5954 186.124 97.7042C186.167 97.813 186.237 97.9066 186.333 97.9851C186.401 98.0404 186.477 98.0779 186.563 98.0975C186.649 98.1154 186.741 98.1243 186.839 98.1243C186.953 98.1243 187.076 98.1047 187.208 98.0654C187.34 98.0244 187.455 97.9709 187.553 97.9049C187.555 97.8781 187.557 97.8433 187.558 97.8005C187.562 97.7559 187.564 97.7069 187.564 97.6533ZM185.517 97.3108C185.517 97.1057 185.55 96.9184 185.616 96.7489C185.684 96.5795 185.776 96.4332 185.891 96.3101C186.002 96.1924 186.137 96.1005 186.296 96.0345C186.456 95.9685 186.618 95.9355 186.783 95.9355C186.966 95.9355 187.132 95.9667 187.28 96.0291C187.43 96.0898 187.559 96.1781 187.668 96.294C187.806 96.4403 187.912 96.6321 187.987 96.8693C188.063 97.1066 188.102 97.4063 188.102 97.7684C188.102 98.0984 188.064 98.4115 187.989 98.7076C187.916 99.0019 187.807 99.2463 187.663 99.4408C187.509 99.6477 187.325 99.8056 187.109 99.9144C186.895 100.023 186.63 100.078 186.314 100.078C186.243 100.078 186.167 100.073 186.087 100.064C186.007 100.057 185.932 100.043 185.862 100.021V99.5103H185.889C185.933 99.5353 186.003 99.5594 186.098 99.5826C186.192 99.6058 186.288 99.6174 186.386 99.6174C186.736 99.6174 187.011 99.5023 187.211 99.2722C187.41 99.0421 187.524 98.7129 187.55 98.2848C187.408 98.3812 187.271 98.4516 187.141 98.4962C187.013 98.5408 186.873 98.5631 186.721 98.5631C186.573 98.5631 186.438 98.5471 186.317 98.5149C186.196 98.4828 186.073 98.4204 185.95 98.3276C185.808 98.2188 185.7 98.0815 185.627 97.9156C185.553 97.7479 185.517 97.5463 185.517 97.3108ZM190.499 96.9443C190.499 96.7659 190.439 96.6169 190.32 96.4974C190.2 96.3779 190.034 96.3181 189.822 96.3181C189.628 96.3181 189.468 96.3716 189.343 96.4787C189.22 96.5857 189.159 96.7302 189.159 96.9121C189.159 97.0442 189.19 97.1556 189.252 97.2466C189.316 97.3376 189.412 97.4197 189.539 97.4928C189.594 97.5231 189.678 97.565 189.79 97.6186C189.904 97.6721 190.008 97.714 190.1 97.7443C190.256 97.6248 190.361 97.5026 190.416 97.3777C190.472 97.2511 190.499 97.1066 190.499 96.9443ZM190.574 98.9404C190.574 98.7763 190.542 98.6461 190.478 98.5497C190.414 98.4534 190.29 98.3553 190.106 98.2554C190.045 98.2215 189.964 98.1849 189.862 98.1457C189.762 98.1064 189.649 98.0601 189.523 98.0065C189.374 98.1047 189.261 98.226 189.183 98.3704C189.104 98.5132 189.065 98.6764 189.065 98.8601C189.065 99.1009 189.137 99.2998 189.282 99.4568C189.428 99.6138 189.611 99.6923 189.83 99.6923C190.055 99.6923 190.235 99.6254 190.371 99.4916C190.506 99.356 190.574 99.1723 190.574 98.9404ZM189.825 100.091C189.627 100.091 189.447 100.062 189.284 100.003C189.122 99.9438 188.984 99.8591 188.87 99.7485C188.757 99.6414 188.672 99.5148 188.613 99.3685C188.556 99.2205 188.527 99.0644 188.527 98.9003C188.527 98.6844 188.584 98.4864 188.698 98.3062C188.814 98.1243 188.982 97.9798 189.201 97.8728V97.8567C189.005 97.7425 188.86 97.6177 188.765 97.4821C188.671 97.3465 188.623 97.1771 188.623 96.9737C188.623 96.674 188.737 96.4243 188.963 96.2245C189.19 96.0247 189.477 95.9248 189.825 95.9248C190.187 95.9248 190.477 96.0202 190.694 96.2111C190.914 96.4002 191.024 96.6428 191.024 96.9389C191.024 97.1173 190.971 97.2939 190.866 97.4687C190.762 97.6435 190.612 97.78 190.416 97.8781V97.8942C190.648 98.003 190.824 98.135 190.943 98.2902C191.063 98.4454 191.123 98.6452 191.123 98.8896C191.123 99.2303 190.999 99.5157 190.751 99.7458C190.505 99.9759 190.196 100.091 189.825 100.091Z" fill="white"/>
</g>
<g clip-path="url(#clip6)">
<path d="M172.547 41H170.605V40.5933H171.327V37.9229H170.605V37.5589C170.878 37.5589 171.078 37.5206 171.207 37.4439C171.337 37.3654 171.41 37.2182 171.426 37.0024H171.841V40.5933H172.547V41ZM174.359 37.3957C174.263 37.3957 174.166 37.4073 174.07 37.4305C173.974 37.4537 173.879 37.484 173.786 37.5215C173.701 37.5572 173.626 37.5946 173.561 37.6339C173.499 37.6731 173.443 37.7097 173.393 37.7436H173.361V37.179C173.477 37.1165 173.634 37.0604 173.832 37.0104C174.032 36.9587 174.221 36.9328 174.402 36.9328C174.582 36.9328 174.739 36.9515 174.873 36.989C175.008 37.0247 175.13 37.0809 175.239 37.1576C175.357 37.2432 175.445 37.3467 175.504 37.468C175.565 37.5893 175.595 37.7311 175.595 37.8934C175.595 38.1128 175.523 38.3055 175.378 38.4714C175.234 38.6373 175.061 38.7425 174.859 38.7871V38.8246C174.943 38.8406 175.032 38.8683 175.127 38.9075C175.223 38.9468 175.312 39.0048 175.394 39.0815C175.476 39.1582 175.543 39.2572 175.595 39.3785C175.647 39.498 175.673 39.6443 175.673 39.8173C175.673 39.9975 175.641 40.1634 175.579 40.315C175.518 40.4648 175.432 40.5977 175.319 40.7137C175.204 40.835 175.063 40.9269 174.899 40.9893C174.735 41.0517 174.549 41.0829 174.34 41.0829C174.14 41.0829 173.942 41.0589 173.746 41.0107C173.55 40.9625 173.385 40.9046 173.251 40.8368V40.2722H173.289C173.401 40.3542 173.552 40.4327 173.741 40.5077C173.93 40.5826 174.119 40.62 174.308 40.62C174.417 40.62 174.526 40.6031 174.634 40.5692C174.745 40.5335 174.837 40.4764 174.91 40.3979C174.981 40.3195 175.036 40.2329 175.073 40.1384C175.111 40.0439 175.129 39.9243 175.129 39.7798C175.129 39.6354 175.108 39.5167 175.065 39.424C175.024 39.3312 174.966 39.2581 174.891 39.2046C174.816 39.151 174.727 39.1145 174.624 39.0948C174.522 39.0734 174.411 39.0627 174.292 39.0627H174.065V38.6186H174.241C174.482 38.6186 174.677 38.5615 174.827 38.4473C174.979 38.3331 175.055 38.1672 175.055 37.9496C175.055 37.8497 175.035 37.7641 174.996 37.6927C174.956 37.6196 174.906 37.5616 174.846 37.5188C174.778 37.4724 174.703 37.4403 174.621 37.4225C174.539 37.4046 174.452 37.3957 174.359 37.3957ZM180.551 39.63H180.077V41H179.563V39.63H177.803V39.0681L179.585 37.0158H180.077V39.2019H180.551V39.63ZM179.563 39.2019V37.6446L178.22 39.2019H179.563ZM183.499 39.7076C183.499 39.9127 183.465 40.1018 183.398 40.2749C183.33 40.4479 183.239 40.5924 183.125 40.7083C183.005 40.8314 182.871 40.9251 182.723 40.9893C182.575 41.0517 182.412 41.0829 182.234 41.0829C182.054 41.0829 181.889 41.0526 181.741 40.992C181.595 40.9313 181.466 40.8412 181.353 40.7217C181.216 40.5772 181.108 40.3846 181.03 40.1437C180.953 39.9011 180.915 39.6032 180.915 39.25C180.915 38.904 180.95 38.5918 181.022 38.3135C181.093 38.0335 181.203 37.79 181.351 37.583C181.495 37.3815 181.682 37.2245 181.91 37.1121C182.138 36.9979 182.402 36.9408 182.702 36.9408C182.791 36.9408 182.874 36.9453 182.951 36.9542C183.027 36.9631 183.095 36.9774 183.154 36.997V37.5081H183.13C183.082 37.4813 183.012 37.4573 182.921 37.4359C182.83 37.4127 182.733 37.4011 182.63 37.4011C182.298 37.4011 182.029 37.5135 181.824 37.7382C181.621 37.9612 181.501 38.293 181.463 38.7336C181.59 38.6444 181.72 38.5757 181.854 38.5276C181.988 38.4794 182.134 38.4553 182.293 38.4553C182.448 38.4553 182.583 38.4714 182.699 38.5035C182.817 38.5338 182.939 38.5963 183.066 38.6908C183.212 38.8014 183.321 38.9414 183.392 39.1109C183.464 39.2804 183.499 39.4793 183.499 39.7076ZM182.956 39.729C182.956 39.5649 182.935 39.4275 182.892 39.3169C182.849 39.2063 182.78 39.1118 182.683 39.0333C182.614 38.9762 182.534 38.9388 182.445 38.9209C182.358 38.9031 182.268 38.8942 182.175 38.8942C182.05 38.8942 181.929 38.9129 181.811 38.9504C181.693 38.9878 181.577 39.0422 181.463 39.1136C181.459 39.1528 181.457 39.1912 181.455 39.2286C181.453 39.2643 181.452 39.3098 181.452 39.3651C181.452 39.6416 181.479 39.8646 181.533 40.034C181.588 40.2035 181.656 40.3319 181.736 40.4194C181.813 40.5032 181.891 40.5621 181.971 40.596C182.054 40.6299 182.142 40.6468 182.236 40.6468C182.45 40.6468 182.623 40.5701 182.755 40.4167C182.889 40.2633 182.956 40.034 182.956 39.729ZM186.472 37.6125L184.749 41H184.179L186.004 37.484H183.943V37.0158H186.472V37.6125ZM187.818 41H187.179V40.2374H187.818V41ZM191.099 39.0065C191.099 39.7219 190.994 40.2472 190.785 40.5826C190.579 40.9162 190.258 41.0829 189.825 41.0829C189.386 41.0829 189.064 40.9126 188.859 40.5719C188.654 40.2312 188.551 39.7112 188.551 39.0119C188.551 38.293 188.655 37.7677 188.862 37.4359C189.07 37.1023 189.391 36.9355 189.825 36.9355C190.264 36.9355 190.586 37.1076 190.791 37.4519C190.996 37.7962 191.099 38.3144 191.099 39.0065ZM190.414 40.2213C190.465 40.0893 190.502 39.9226 190.523 39.721C190.545 39.5194 190.555 39.2813 190.555 39.0065C190.555 38.7336 190.545 38.4964 190.523 38.2948C190.502 38.0932 190.464 37.9255 190.411 37.7917C190.357 37.6562 190.283 37.5536 190.189 37.484C190.096 37.4127 189.975 37.377 189.825 37.377C189.677 37.377 189.555 37.4127 189.458 37.484C189.364 37.5536 189.289 37.6579 189.234 37.7971C189.18 37.9327 189.143 38.1039 189.124 38.3108C189.104 38.5178 189.094 38.7515 189.094 39.0119C189.094 39.2902 189.102 39.523 189.118 39.7103C189.136 39.8976 189.174 40.0653 189.231 40.2133C189.283 40.3507 189.356 40.4568 189.45 40.5317C189.547 40.6049 189.671 40.6414 189.825 40.6414C189.973 40.6414 190.094 40.6067 190.189 40.5371C190.285 40.4657 190.36 40.3605 190.414 40.2213ZM194.026 39.7317C194.026 39.9243 193.995 40.1027 193.932 40.2668C193.872 40.431 193.786 40.5728 193.675 40.6923C193.563 40.8136 193.423 40.909 193.255 40.9786C193.089 41.0482 192.903 41.0829 192.696 41.0829C192.505 41.0829 192.317 41.0615 192.131 41.0187C191.948 40.9777 191.788 40.9233 191.652 40.8555V40.2909H191.69C191.731 40.3212 191.79 40.356 191.866 40.3953C191.943 40.4327 192.028 40.4684 192.121 40.5023C192.226 40.5398 192.322 40.5692 192.41 40.5906C192.497 40.6102 192.595 40.62 192.704 40.62C192.811 40.62 192.915 40.6013 193.017 40.5638C193.119 40.5246 193.206 40.4622 193.279 40.3765C193.345 40.2981 193.395 40.2062 193.429 40.1009C193.465 39.9957 193.483 39.8717 193.483 39.729C193.483 39.5881 193.463 39.4721 193.424 39.3812C193.386 39.2902 193.331 39.2153 193.258 39.1564C193.181 39.0886 193.087 39.0413 192.974 39.0146C192.864 38.986 192.74 38.9718 192.602 38.9718C192.458 38.9718 192.312 38.9834 192.166 39.0065C192.02 39.0279 191.903 39.0485 191.816 39.0681V37.0158H194.002V37.484H192.332V38.5436C192.396 38.5365 192.46 38.5311 192.522 38.5276C192.584 38.524 192.642 38.5222 192.693 38.5222C192.897 38.5222 193.069 38.5392 193.21 38.5731C193.351 38.607 193.486 38.673 193.616 38.7711C193.748 38.871 193.849 38.9958 193.919 39.1457C193.99 39.2955 194.026 39.4909 194.026 39.7317Z" fill="white"/>
</g>
<path d="M141.35 19H140.676L139.268 17.1751H138.934V19H138.404V15.0158H138.934V16.8112C139.143 16.8041 139.308 16.7515 139.429 16.6533C139.552 16.5552 139.652 16.4143 139.729 16.2306C139.761 16.1503 139.789 16.0745 139.814 16.0031C139.841 15.93 139.862 15.8684 139.878 15.8185C139.985 15.5135 140.122 15.3039 140.288 15.1897C140.454 15.0737 140.684 15.0158 140.978 15.0158H141.141V15.4894H141.008C140.79 15.4894 140.637 15.5322 140.55 15.6178C140.463 15.7017 140.382 15.8613 140.309 16.0968C140.236 16.3322 140.154 16.5053 140.063 16.6159C139.972 16.7247 139.862 16.821 139.734 16.9049L141.35 19ZM144.069 15.4867H142.236V19H141.706V15.0158H144.069V15.4867ZM146.046 19.0722C145.786 19.0722 145.546 19.0285 145.326 18.9411C145.109 18.8537 144.92 18.7235 144.762 18.5505C144.603 18.3774 144.48 18.1616 144.392 17.9029C144.305 17.6443 144.261 17.3473 144.261 17.0119C144.261 16.6783 144.303 16.3875 144.387 16.1396C144.473 15.8916 144.597 15.6758 144.759 15.4921C144.918 15.3137 145.106 15.1781 145.324 15.0853C145.541 14.9908 145.785 14.9435 146.054 14.9435C146.188 14.9435 146.313 14.9533 146.429 14.9729C146.546 14.9926 146.655 15.0175 146.755 15.0479C146.841 15.0746 146.928 15.1085 147.017 15.1496C147.108 15.1888 147.198 15.2325 147.285 15.2807V15.9202H147.242C147.196 15.8774 147.136 15.8256 147.063 15.765C146.99 15.7043 146.901 15.6446 146.795 15.5857C146.694 15.5304 146.583 15.4849 146.463 15.4492C146.344 15.4136 146.206 15.3957 146.049 15.3957C145.879 15.3957 145.719 15.4305 145.567 15.5001C145.415 15.5696 145.283 15.6722 145.168 15.8078C145.056 15.9434 144.969 16.1137 144.906 16.3189C144.844 16.524 144.813 16.755 144.813 17.0119C144.813 17.2848 144.846 17.5203 144.912 17.7183C144.978 17.9145 145.068 18.0804 145.182 18.216C145.292 18.348 145.423 18.4479 145.572 18.5157C145.722 18.5817 145.881 18.6147 146.049 18.6147C146.202 18.6147 146.344 18.596 146.474 18.5585C146.604 18.521 146.72 18.4738 146.822 18.4167C146.92 18.3614 147.005 18.3052 147.076 18.2481C147.148 18.1892 147.204 18.1393 147.245 18.0983H147.285V18.7297C147.198 18.7708 147.115 18.81 147.036 18.8475C146.959 18.8849 146.866 18.9215 146.755 18.9572C146.639 18.9946 146.531 19.0232 146.431 19.0428C146.333 19.0624 146.205 19.0722 146.046 19.0722Z" fill="#60647F"/>
<path opacity="0.5" fill-rule="evenodd" clip-rule="evenodd" d="M252.849 104H286.15L288 102.134V27.8667L286.15 26H252.849L251 27.8667V102.134L252.849 104Z" fill="#1B1F2C" stroke="#5B607D" stroke-width="0.501469"/>
<rect x="253" y="84" width="33" height="10" fill="#2378D9"/>
<rect opacity="0.5" x="253" y="50" width="33" height="34" fill="#2378D9"/>
<path opacity="0.5" fill-rule="evenodd" clip-rule="evenodd" d="M254.2 102H284.799L286 100.38V94H253V100.38L254.2 102Z" fill="#2378D9"/>
<path d="M253 38H286H253Z" fill="black"/>
<path d="M253 38H286" stroke="#5B607D" stroke-width="0.752204" stroke-dasharray="2.01 2.01"/>
<g clip-path="url(#clip7)">
<path d="M297.17 68.9443C297.17 68.7659 297.11 68.6169 296.991 68.4974C296.871 68.3779 296.705 68.3181 296.493 68.3181C296.299 68.3181 296.139 68.3716 296.014 68.4787C295.891 68.5857 295.829 68.7302 295.829 68.9121C295.829 69.0442 295.861 69.1556 295.923 69.2466C295.987 69.3376 296.083 69.4197 296.209 69.4928C296.265 69.5231 296.349 69.565 296.461 69.6186C296.575 69.6721 296.679 69.714 296.771 69.7443C296.927 69.6248 297.032 69.5026 297.087 69.3777C297.142 69.2511 297.17 69.1066 297.17 68.9443ZM297.245 70.9404C297.245 70.7763 297.213 70.6461 297.149 70.5497C297.084 70.4534 296.96 70.3553 296.777 70.2554C296.716 70.2215 296.635 70.1849 296.533 70.1457C296.433 70.1064 296.32 70.0601 296.193 70.0065C296.045 70.1047 295.932 70.226 295.854 70.3704C295.775 70.5132 295.736 70.6764 295.736 70.8601C295.736 71.1009 295.808 71.2998 295.953 71.4568C296.099 71.6138 296.282 71.6923 296.501 71.6923C296.726 71.6923 296.906 71.6254 297.042 71.4916C297.177 71.356 297.245 71.1723 297.245 70.9404ZM296.496 72.091C296.298 72.091 296.118 72.0615 295.955 72.0027C295.793 71.9438 295.655 71.8591 295.541 71.7485C295.428 71.6414 295.343 71.5148 295.284 71.3685C295.227 71.2205 295.198 71.0644 295.198 70.9003C295.198 70.6844 295.255 70.4864 295.369 70.3062C295.485 70.1243 295.653 69.9798 295.872 69.8728V69.8567C295.676 69.7425 295.531 69.6177 295.436 69.4821C295.342 69.3465 295.294 69.1771 295.294 68.9737C295.294 68.674 295.408 68.4243 295.634 68.2245C295.861 68.0247 296.148 67.9248 296.496 67.9248C296.858 67.9248 297.148 68.0202 297.365 68.2111C297.585 68.4002 297.695 68.6428 297.695 68.9389C297.695 69.1173 297.642 69.2939 297.537 69.4687C297.433 69.6435 297.283 69.78 297.087 69.8781V69.8942C297.319 70.003 297.495 70.135 297.614 70.2902C297.734 70.4454 297.794 70.6452 297.794 70.8896C297.794 71.2303 297.67 71.5157 297.422 71.7458C297.175 71.9759 296.867 72.091 296.496 72.091ZM299.359 68.3957C299.263 68.3957 299.166 68.4073 299.07 68.4305C298.974 68.4537 298.879 68.484 298.786 68.5215C298.701 68.5572 298.626 68.5946 298.561 68.6339C298.499 68.6731 298.443 68.7097 298.393 68.7436H298.361V68.179C298.477 68.1165 298.634 68.0604 298.832 68.0104C299.032 67.9587 299.221 67.9328 299.402 67.9328C299.582 67.9328 299.739 67.9515 299.873 67.989C300.008 68.0247 300.13 68.0809 300.239 68.1576C300.357 68.2432 300.445 68.3467 300.504 68.468C300.565 68.5893 300.595 68.7311 300.595 68.8934C300.595 69.1128 300.523 69.3055 300.378 69.4714C300.234 69.6373 300.061 69.7425 299.859 69.7871V69.8246C299.943 69.8406 300.032 69.8683 300.127 69.9075C300.223 69.9468 300.312 70.0048 300.394 70.0815C300.476 70.1582 300.543 70.2572 300.595 70.3785C300.647 70.498 300.673 70.6443 300.673 70.8173C300.673 70.9975 300.641 71.1634 300.579 71.315C300.518 71.4648 300.432 71.5977 300.319 71.7137C300.204 71.835 300.063 71.9269 299.899 71.9893C299.735 72.0517 299.549 72.0829 299.34 72.0829C299.14 72.0829 298.942 72.0589 298.746 72.0107C298.55 71.9625 298.385 71.9046 298.251 71.8368V71.2722H298.289C298.401 71.3542 298.552 71.4327 298.741 71.5077C298.93 71.5826 299.119 71.62 299.308 71.62C299.417 71.62 299.526 71.6031 299.634 71.5692C299.745 71.5335 299.837 71.4764 299.91 71.3979C299.981 71.3195 300.036 71.2329 300.073 71.1384C300.111 71.0439 300.129 70.9243 300.129 70.7798C300.129 70.6354 300.108 70.5167 300.065 70.424C300.024 70.3312 299.966 70.2581 299.891 70.2046C299.816 70.151 299.727 70.1145 299.624 70.0948C299.522 70.0734 299.411 70.0627 299.292 70.0627H299.065V69.6186H299.241C299.482 69.6186 299.677 69.5615 299.827 69.4473C299.979 69.3331 300.055 69.1672 300.055 68.9496C300.055 68.8497 300.035 68.7641 299.996 68.6927C299.956 68.6196 299.906 68.5616 299.846 68.5188C299.778 68.4724 299.703 68.4403 299.621 68.4225C299.539 68.4046 299.452 68.3957 299.359 68.3957ZM305.446 72H302.987V71.4408C303.164 71.2731 303.331 71.1125 303.488 70.9591C303.645 70.8057 303.798 70.6461 303.948 70.4802C304.251 70.1466 304.458 69.8799 304.569 69.6801C304.679 69.4785 304.734 69.2707 304.734 69.0566C304.734 68.946 304.717 68.8488 304.681 68.765C304.647 68.6811 304.6 68.6116 304.539 68.5563C304.477 68.5028 304.404 68.4626 304.322 68.4359C304.24 68.4091 304.15 68.3957 304.052 68.3957C303.958 68.3957 303.861 68.4082 303.763 68.4332C303.667 68.4564 303.574 68.4858 303.485 68.5215C303.41 68.5518 303.338 68.5884 303.268 68.6312C303.199 68.674 303.142 68.7106 303.1 68.7409H303.07V68.1736C303.181 68.1183 303.334 68.0648 303.53 68.0131C303.728 67.9596 303.916 67.9328 304.092 67.9328C304.463 67.9328 304.754 68.0318 304.965 68.2298C305.175 68.426 305.28 68.6927 305.28 69.0299C305.28 69.1851 305.262 69.3287 305.224 69.4607C305.188 69.5927 305.139 69.7149 305.074 69.8273C305.008 69.9432 304.929 70.0583 304.836 70.1724C304.743 70.2866 304.645 70.399 304.542 70.5096C304.374 70.6915 304.187 70.8806 303.98 71.0769C303.775 71.2731 303.611 71.4283 303.488 71.5424H305.446V72ZM308.234 72H306.292V71.5933H307.014V68.9229H306.292V68.5589C306.565 68.5589 306.765 68.5206 306.894 68.4439C307.024 68.3654 307.097 68.2182 307.113 68.0024H307.528V71.5933H308.234V72ZM311.429 72H308.97V71.4408C309.147 71.2731 309.314 71.1125 309.471 70.9591C309.628 70.8057 309.781 70.6461 309.931 70.4802C310.234 70.1466 310.441 69.8799 310.552 69.6801C310.662 69.4785 310.718 69.2707 310.718 69.0566C310.718 68.946 310.7 68.8488 310.664 68.765C310.63 68.6811 310.583 68.6116 310.522 68.5563C310.46 68.5028 310.388 68.4626 310.305 68.4359C310.223 68.4091 310.133 68.3957 310.035 68.3957C309.941 68.3957 309.844 68.4082 309.746 68.4332C309.65 68.4564 309.557 68.4858 309.468 68.5215C309.393 68.5518 309.321 68.5884 309.251 68.6312C309.182 68.674 309.125 68.7106 309.083 68.7409H309.053V68.1736C309.164 68.1183 309.317 68.0648 309.513 68.0131C309.711 67.9596 309.899 67.9328 310.075 67.9328C310.446 67.9328 310.737 68.0318 310.948 68.2298C311.158 68.426 311.263 68.6927 311.263 69.0299C311.263 69.1851 311.245 69.3287 311.207 69.4607C311.172 69.5927 311.122 69.7149 311.057 69.8273C310.991 69.9432 310.912 70.0583 310.819 70.1724C310.726 70.2866 310.628 70.399 310.525 70.5096C310.357 70.6915 310.17 70.8806 309.963 71.0769C309.758 71.2731 309.594 71.4283 309.471 71.5424H311.429V72ZM312.818 72H312.179V71.2374H312.818V72ZM316.08 72H313.621V71.4408C313.797 71.2731 313.964 71.1125 314.121 70.9591C314.278 70.8057 314.432 70.6461 314.581 70.4802C314.885 70.1466 315.092 69.8799 315.202 69.6801C315.313 69.4785 315.368 69.2707 315.368 69.0566C315.368 68.946 315.35 68.8488 315.315 68.765C315.281 68.6811 315.233 68.6116 315.173 68.5563C315.11 68.5028 315.038 68.4626 314.956 68.4359C314.874 68.4091 314.784 68.3957 314.686 68.3957C314.591 68.3957 314.495 68.4082 314.397 68.4332C314.3 68.4564 314.208 68.4858 314.118 68.5215C314.044 68.5518 313.971 68.5884 313.902 68.6312C313.832 68.674 313.776 68.7106 313.733 68.7409H313.704V68.1736C313.814 68.1183 313.968 68.0648 314.164 68.0131C314.362 67.9596 314.549 67.9328 314.726 67.9328C315.097 67.9328 315.388 68.0318 315.598 68.2298C315.809 68.426 315.914 68.6927 315.914 69.0299C315.914 69.1851 315.895 69.3287 315.858 69.4607C315.822 69.5927 315.772 69.7149 315.708 69.8273C315.642 69.9432 315.562 70.0583 315.47 70.1724C315.377 70.2866 315.279 70.399 315.175 70.5096C315.008 70.6915 314.82 70.8806 314.613 71.0769C314.408 71.2731 314.244 71.4283 314.121 71.5424H316.08V72ZM319.026 70.7317C319.026 70.9243 318.995 71.1027 318.932 71.2668C318.872 71.431 318.786 71.5728 318.675 71.6923C318.563 71.8136 318.423 71.909 318.255 71.9786C318.089 72.0482 317.903 72.0829 317.696 72.0829C317.505 72.0829 317.317 72.0615 317.131 72.0187C316.948 71.9777 316.788 71.9233 316.652 71.8555V71.2909H316.69C316.731 71.3212 316.79 71.356 316.866 71.3953C316.943 71.4327 317.028 71.4684 317.121 71.5023C317.226 71.5398 317.322 71.5692 317.41 71.5906C317.497 71.6102 317.595 71.62 317.704 71.62C317.811 71.62 317.915 71.6013 318.017 71.5638C318.119 71.5246 318.206 71.4622 318.279 71.3765C318.345 71.2981 318.395 71.2062 318.429 71.1009C318.465 70.9957 318.483 70.8717 318.483 70.729C318.483 70.5881 318.463 70.4721 318.424 70.3812C318.386 70.2902 318.331 70.2153 318.258 70.1564C318.181 70.0886 318.087 70.0413 317.974 70.0146C317.864 69.986 317.74 69.9718 317.602 69.9718C317.458 69.9718 317.312 69.9834 317.166 70.0065C317.02 70.0279 316.903 70.0485 316.816 70.0681V68.0158H319.002V68.484H317.332V69.5436C317.396 69.5365 317.46 69.5311 317.522 69.5276C317.584 69.524 317.642 69.5222 317.693 69.5222C317.897 69.5222 318.069 69.5392 318.21 69.5731C318.351 69.607 318.486 69.673 318.616 69.7711C318.748 69.871 318.849 69.9958 318.919 70.1457C318.99 70.2955 319.026 70.4909 319.026 70.7317Z" fill="white"/>
</g>
<g clip-path="url(#clip8)">
<path d="M297.705 98.7317C297.705 98.9243 297.674 99.1027 297.612 99.2668C297.551 99.431 297.465 99.5728 297.355 99.6923C297.242 99.8136 297.102 99.909 296.935 99.9786C296.769 100.048 296.582 100.083 296.375 100.083C296.184 100.083 295.996 100.062 295.811 100.019C295.627 99.9777 295.467 99.9233 295.332 99.8555V99.2909H295.369C295.41 99.3212 295.469 99.356 295.546 99.3953C295.623 99.4327 295.707 99.4684 295.8 99.5023C295.905 99.5398 296.002 99.5692 296.089 99.5906C296.176 99.6102 296.275 99.62 296.383 99.62C296.49 99.62 296.595 99.6013 296.696 99.5638C296.798 99.5246 296.886 99.4622 296.959 99.3765C297.025 99.2981 297.075 99.2062 297.109 99.1009C297.144 98.9957 297.162 98.8717 297.162 98.729C297.162 98.5881 297.142 98.4721 297.103 98.3812C297.066 98.2902 297.01 98.2153 296.937 98.1564C296.861 98.0886 296.766 98.0413 296.654 98.0146C296.543 97.986 296.419 97.9718 296.282 97.9718C296.137 97.9718 295.992 97.9834 295.846 98.0065C295.699 98.0279 295.582 98.0485 295.495 98.0681V96.0158H297.681V96.484H296.011V97.5436C296.076 97.5365 296.139 97.5311 296.201 97.5276C296.264 97.524 296.321 97.5222 296.373 97.5222C296.576 97.5222 296.748 97.5392 296.889 97.5731C297.03 97.607 297.166 97.673 297.296 97.7711C297.428 97.871 297.529 97.9958 297.598 98.1457C297.67 98.2955 297.705 98.4909 297.705 98.7317ZM302.455 100H299.996V99.4408C300.172 99.2731 300.339 99.1125 300.496 98.9591C300.653 98.8057 300.806 98.6461 300.956 98.4802C301.26 98.1466 301.466 97.8799 301.577 97.6801C301.688 97.4785 301.743 97.2707 301.743 97.0566C301.743 96.946 301.725 96.8488 301.689 96.765C301.656 96.6811 301.608 96.6116 301.548 96.5563C301.485 96.5028 301.413 96.4626 301.331 96.4359C301.249 96.4091 301.159 96.3957 301.061 96.3957C300.966 96.3957 300.87 96.4082 300.772 96.4332C300.675 96.4564 300.583 96.4858 300.493 96.5215C300.418 96.5518 300.346 96.5884 300.277 96.6312C300.207 96.674 300.151 96.7106 300.108 96.7409H300.079V96.1736C300.189 96.1183 300.343 96.0648 300.539 96.0131C300.737 95.9596 300.924 95.9328 301.101 95.9328C301.472 95.9328 301.763 96.0318 301.973 96.2298C302.184 96.426 302.289 96.6927 302.289 97.0299C302.289 97.1851 302.27 97.3287 302.233 97.4607C302.197 97.5927 302.147 97.7149 302.083 97.8273C302.017 97.9432 301.937 98.0583 301.845 98.1724C301.752 98.2866 301.654 98.399 301.55 98.5096C301.383 98.6915 301.195 98.8806 300.988 99.0769C300.783 99.2731 300.619 99.4283 300.496 99.5424H302.455V100ZM305.401 98.7317C305.401 98.9243 305.37 99.1027 305.307 99.2668C305.246 99.431 305.161 99.5728 305.05 99.6923C304.938 99.8136 304.798 99.909 304.63 99.9786C304.464 100.048 304.278 100.083 304.071 100.083C303.88 100.083 303.692 100.062 303.506 100.019C303.323 99.9777 303.163 99.9233 303.027 99.8555V99.2909H303.065C303.106 99.3212 303.165 99.356 303.241 99.3953C303.318 99.4327 303.403 99.4684 303.496 99.5023C303.601 99.5398 303.697 99.5692 303.785 99.5906C303.872 99.6102 303.97 99.62 304.079 99.62C304.186 99.62 304.29 99.6013 304.392 99.5638C304.494 99.5246 304.581 99.4622 304.654 99.3765C304.72 99.2981 304.77 99.2062 304.804 99.1009C304.84 98.9957 304.858 98.8717 304.858 98.729C304.858 98.5881 304.838 98.4721 304.799 98.3812C304.761 98.2902 304.706 98.2153 304.633 98.1564C304.556 98.0886 304.462 98.0413 304.349 98.0146C304.239 97.986 304.115 97.9718 303.977 97.9718C303.833 97.9718 303.687 97.9834 303.541 98.0065C303.395 98.0279 303.278 98.0485 303.191 98.0681V96.0158H305.377V96.484H303.707V97.5436C303.771 97.5365 303.835 97.5311 303.897 97.5276C303.959 97.524 304.016 97.5222 304.068 97.5222C304.272 97.5222 304.444 97.5392 304.585 97.5731C304.726 97.607 304.861 97.673 304.991 97.7711C305.123 97.871 305.224 97.9958 305.294 98.1457C305.365 98.2955 305.401 98.4909 305.401 98.7317ZM308.542 98.63H308.069V100H307.555V98.63H305.794V98.0681L307.576 96.0158H308.069V98.2019H308.542V98.63ZM307.555 98.2019V96.6446L306.212 98.2019H307.555ZM309.827 100H309.187V99.2374H309.827V100ZM313.15 98.7076C313.15 98.9127 313.116 99.1018 313.048 99.2749C312.98 99.4479 312.889 99.5924 312.775 99.7083C312.656 99.8314 312.522 99.9251 312.374 99.9893C312.226 100.052 312.063 100.083 311.884 100.083C311.704 100.083 311.54 100.053 311.392 99.992C311.246 99.9313 311.116 99.8412 311.004 99.7217C310.866 99.5772 310.759 99.3846 310.68 99.1437C310.603 98.9011 310.565 98.6032 310.565 98.25C310.565 97.904 310.601 97.5918 310.672 97.3135C310.743 97.0335 310.853 96.79 311.001 96.583C311.146 96.3815 311.332 96.2245 311.56 96.1121C311.789 95.9979 312.053 95.9408 312.352 95.9408C312.442 95.9408 312.525 95.9453 312.601 95.9542C312.678 95.9631 312.746 95.9774 312.805 95.997V96.5081H312.781C312.732 96.4813 312.663 96.4573 312.572 96.4359C312.481 96.4127 312.384 96.4011 312.28 96.4011C311.948 96.4011 311.68 96.5135 311.475 96.7382C311.271 96.9612 311.151 97.293 311.114 97.7336C311.24 97.6444 311.37 97.5757 311.504 97.5276C311.638 97.4794 311.784 97.4553 311.943 97.4553C312.098 97.4553 312.234 97.4714 312.35 97.5035C312.468 97.5338 312.59 97.5963 312.716 97.6908C312.863 97.8014 312.971 97.9414 313.043 98.1109C313.114 98.2804 313.15 98.4793 313.15 98.7076ZM312.607 98.729C312.607 98.5649 312.585 98.4275 312.542 98.3169C312.5 98.2063 312.43 98.1118 312.334 98.0333C312.264 97.9762 312.185 97.9388 312.096 97.9209C312.008 97.9031 311.918 97.8942 311.825 97.8942C311.7 97.8942 311.579 97.9129 311.461 97.9504C311.344 97.9878 311.228 98.0422 311.114 98.1136C311.11 98.1528 311.107 98.1912 311.106 98.2286C311.104 98.2643 311.103 98.3098 311.103 98.3651C311.103 98.6416 311.13 98.8646 311.183 99.034C311.238 99.2035 311.306 99.3319 311.386 99.4194C311.463 99.5032 311.542 99.5621 311.622 99.596C311.704 99.6299 311.792 99.6468 311.887 99.6468C312.101 99.6468 312.274 99.5701 312.406 99.4167C312.54 99.2633 312.607 99.034 312.607 98.729ZM315.555 97.6533C315.555 97.3822 315.53 97.1619 315.48 96.9924C315.43 96.8212 315.362 96.6892 315.274 96.5964C315.196 96.5108 315.117 96.4519 315.036 96.4198C314.956 96.3877 314.868 96.3716 314.771 96.3716C314.552 96.3716 314.377 96.4501 314.247 96.6071C314.117 96.7641 314.052 96.9915 314.052 97.2894C314.052 97.4571 314.073 97.5954 314.116 97.7042C314.159 97.813 314.228 97.9066 314.324 97.9851C314.392 98.0404 314.469 98.0779 314.555 98.0975C314.64 98.1154 314.732 98.1243 314.83 98.1243C314.944 98.1243 315.067 98.1047 315.199 98.0654C315.331 98.0244 315.447 97.9709 315.545 97.9049C315.546 97.8781 315.548 97.8433 315.55 97.8005C315.554 97.7559 315.555 97.7069 315.555 97.6533ZM313.508 97.3108C313.508 97.1057 313.541 96.9184 313.607 96.7489C313.675 96.5795 313.767 96.4332 313.883 96.3101C313.994 96.1924 314.128 96.1005 314.287 96.0345C314.448 95.9685 314.61 95.9355 314.774 95.9355C314.958 95.9355 315.124 95.9667 315.272 96.0291C315.422 96.0898 315.551 96.1781 315.66 96.294C315.797 96.4403 315.903 96.6321 315.978 96.8693C316.055 97.1066 316.093 97.4063 316.093 97.7684C316.093 98.0984 316.056 98.4115 315.981 98.7076C315.908 99.0019 315.799 99.2463 315.654 99.4408C315.501 99.6477 315.316 99.8056 315.1 99.9144C314.886 100.023 314.622 100.078 314.306 100.078C314.234 100.078 314.159 100.073 314.078 100.064C313.998 100.057 313.923 100.043 313.854 100.021V99.5103H313.88C313.925 99.5353 313.994 99.5594 314.089 99.5826C314.184 99.6058 314.28 99.6174 314.378 99.6174C314.728 99.6174 315.002 99.5023 315.202 99.2722C315.402 99.0421 315.515 98.7129 315.542 98.2848C315.399 98.3812 315.263 98.4516 315.133 98.4962C315.004 98.5408 314.864 98.5631 314.712 98.5631C314.564 98.5631 314.43 98.5471 314.308 98.5149C314.187 98.4828 314.065 98.4204 313.942 98.3276C313.799 98.2188 313.691 98.0815 313.618 97.9156C313.545 97.7479 313.508 97.5463 313.508 97.3108Z" fill="white"/>
</g>
<g clip-path="url(#clip9)">
<path d="M297.547 41H295.605V40.5933H296.327V37.9229H295.605V37.5589C295.878 37.5589 296.078 37.5206 296.207 37.4439C296.337 37.3654 296.41 37.2182 296.426 37.0024H296.841V40.5933H297.547V41ZM300.162 37.9443C300.162 37.7659 300.102 37.6169 299.982 37.4974C299.863 37.3779 299.697 37.3181 299.485 37.3181C299.29 37.3181 299.131 37.3716 299.006 37.4787C298.883 37.5857 298.821 37.7302 298.821 37.9121C298.821 38.0442 298.852 38.1556 298.915 38.2466C298.979 38.3376 299.074 38.4197 299.201 38.4928C299.256 38.5231 299.34 38.565 299.453 38.6186C299.567 38.6721 299.67 38.714 299.763 38.7443C299.918 38.6248 300.023 38.5026 300.079 38.3777C300.134 38.2511 300.162 38.1066 300.162 37.9443ZM300.237 39.9404C300.237 39.7763 300.204 39.6461 300.14 39.5497C300.076 39.4534 299.952 39.3553 299.768 39.2554C299.708 39.2215 299.626 39.1849 299.525 39.1457C299.425 39.1064 299.312 39.0601 299.185 39.0065C299.037 39.1047 298.924 39.226 298.845 39.3704C298.767 39.5132 298.727 39.6764 298.727 39.8601C298.727 40.1009 298.8 40.2998 298.944 40.4568C299.09 40.6138 299.273 40.6923 299.493 40.6923C299.717 40.6923 299.898 40.6254 300.033 40.4916C300.169 40.356 300.237 40.1723 300.237 39.9404ZM299.487 41.091C299.289 41.091 299.109 41.0615 298.947 41.0027C298.784 40.9438 298.646 40.8591 298.532 40.7485C298.42 40.6414 298.334 40.5148 298.275 40.3685C298.218 40.2205 298.19 40.0644 298.19 39.9003C298.19 39.6844 298.247 39.4864 298.361 39.3062C298.477 39.1243 298.644 38.9798 298.864 38.8728V38.8567C298.668 38.7425 298.522 38.6177 298.428 38.4821C298.333 38.3465 298.286 38.1771 298.286 37.9737C298.286 37.674 298.399 37.4243 298.626 37.2245C298.852 37.0247 299.139 36.9248 299.487 36.9248C299.849 36.9248 300.139 37.0202 300.357 37.2111C300.576 37.4002 300.686 37.6428 300.686 37.9389C300.686 38.1173 300.633 38.2939 300.528 38.4687C300.425 38.6435 300.275 38.78 300.079 38.8781V38.8942C300.311 39.003 300.486 39.135 300.606 39.2902C300.725 39.4454 300.785 39.6452 300.785 39.8896C300.785 40.2303 300.661 40.5157 300.413 40.7458C300.167 40.9759 299.858 41.091 299.487 41.091ZM303.838 39.63H303.364V41H302.851V39.63H301.09V39.0681L302.872 37.0158H303.364V39.2019H303.838V39.63ZM302.851 39.2019V37.6446L301.508 39.2019H302.851ZM307.913 38.6533C307.913 38.3822 307.888 38.1619 307.838 37.9924C307.788 37.8212 307.72 37.6892 307.632 37.5964C307.554 37.5108 307.474 37.4519 307.394 37.4198C307.314 37.3877 307.226 37.3716 307.129 37.3716C306.91 37.3716 306.735 37.4501 306.605 37.6071C306.475 37.7641 306.41 37.9915 306.41 38.2894C306.41 38.4571 306.431 38.5954 306.474 38.7042C306.517 38.813 306.586 38.9066 306.682 38.9851C306.75 39.0404 306.827 39.0779 306.913 39.0975C306.998 39.1154 307.09 39.1243 307.188 39.1243C307.302 39.1243 307.425 39.1047 307.557 39.0654C307.689 39.0244 307.805 38.9709 307.903 38.9049C307.904 38.8781 307.906 38.8433 307.908 38.8005C307.912 38.7559 307.913 38.7069 307.913 38.6533ZM305.866 38.3108C305.866 38.1057 305.899 37.9184 305.965 37.7489C306.033 37.5795 306.125 37.4332 306.241 37.3101C306.352 37.1924 306.486 37.1005 306.645 37.0345C306.806 36.9685 306.968 36.9355 307.132 36.9355C307.316 36.9355 307.482 36.9667 307.63 37.0291C307.78 37.0898 307.909 37.1781 308.018 37.294C308.155 37.4403 308.261 37.6321 308.336 37.8693C308.413 38.1066 308.451 38.4063 308.451 38.7684C308.451 39.0984 308.414 39.4115 308.339 39.7076C308.266 40.0019 308.157 40.2463 308.012 40.4408C307.859 40.6477 307.674 40.8056 307.458 40.9144C307.244 41.0232 306.979 41.0776 306.664 41.0776C306.592 41.0776 306.517 41.0731 306.436 41.0642C306.356 41.0571 306.281 41.0428 306.212 41.0214V40.5103H306.238C306.283 40.5353 306.352 40.5594 306.447 40.5826C306.542 40.6058 306.638 40.6174 306.736 40.6174C307.086 40.6174 307.36 40.5023 307.56 40.2722C307.76 40.0421 307.873 39.7129 307.9 39.2848C307.757 39.3812 307.621 39.4516 307.491 39.4962C307.362 39.5408 307.222 39.5631 307.07 39.5631C306.922 39.5631 306.788 39.5471 306.666 39.5149C306.545 39.4828 306.423 39.4204 306.3 39.3276C306.157 39.2188 306.049 39.0815 305.976 38.9156C305.903 38.7479 305.866 38.5463 305.866 38.3108ZM311.226 41H309.283V40.5933H310.006V37.9229H309.283V37.5589C309.556 37.5589 309.757 37.5206 309.885 37.4439C310.016 37.3654 310.089 37.2182 310.105 37.0024H310.52V40.5933H311.226V41ZM314.464 37.6125L312.74 41H312.17L313.995 37.484H311.935V37.0158H314.464V37.6125Z" fill="white"/>
</g>
<path d="M256.35 19H255.676L254.268 17.1751H253.934V19H253.404V15.0158H253.934V16.8112C254.143 16.8041 254.308 16.7515 254.429 16.6533C254.552 16.5552 254.652 16.4143 254.729 16.2306C254.761 16.1503 254.789 16.0745 254.814 16.0031C254.841 15.93 254.862 15.8684 254.878 15.8185C254.985 15.5135 255.122 15.3039 255.288 15.1897C255.454 15.0737 255.684 15.0158 255.978 15.0158H256.141V15.4894H256.008C255.79 15.4894 255.637 15.5322 255.55 15.6178C255.463 15.7017 255.382 15.8613 255.309 16.0968C255.236 16.3322 255.154 16.5053 255.063 16.6159C254.972 16.7247 254.862 16.821 254.734 16.9049L256.35 19ZM259.125 17.5069C259.125 18.01 259.004 18.3988 258.761 18.6736C258.518 18.9465 258.195 19.0829 257.792 19.0829C257.377 19.0829 257.049 18.942 256.81 18.6602C256.573 18.3765 256.454 17.9921 256.454 17.5069C256.454 17.0074 256.577 16.6194 256.821 16.3429C257.067 16.0665 257.391 15.9282 257.792 15.9282C258.195 15.9282 258.518 16.0665 258.761 16.3429C259.004 16.6177 259.125 17.0057 259.125 17.5069ZM258.606 17.5069C258.606 17.1198 258.535 16.8326 258.394 16.6453C258.253 16.4562 258.053 16.3617 257.792 16.3617C257.53 16.3617 257.328 16.4562 257.185 16.6453C257.044 16.8326 256.974 17.1198 256.974 17.5069C256.974 17.8815 257.044 18.166 257.185 18.3605C257.328 18.5531 257.53 18.6495 257.792 18.6495C258.051 18.6495 258.251 18.5549 258.392 18.3658C258.534 18.175 258.606 17.8887 258.606 17.5069ZM262.413 19H261.916V16.6507L261.199 18.1759H260.824L260.112 16.6507V19H259.641V16.0112H260.249L261.035 17.6701L261.795 16.0112H262.413V19ZM265.501 19H264.998V16.4446H263.644V19H263.141V16.0112H265.501V19ZM268.688 17.5069C268.688 18.01 268.567 18.3988 268.324 18.6736C268.082 18.9465 267.759 19.0829 267.356 19.0829C266.94 19.0829 266.613 18.942 266.374 18.6602C266.136 18.3765 266.018 17.9921 266.018 17.5069C266.018 17.0074 266.14 16.6194 266.384 16.3429C266.63 16.0665 266.954 15.9282 267.356 15.9282C267.759 15.9282 268.082 16.0665 268.324 16.3429C268.567 16.6177 268.688 17.0057 268.688 17.5069ZM268.169 17.5069C268.169 17.1198 268.099 16.8326 267.958 16.6453C267.817 16.4562 267.616 16.3617 267.356 16.3617C267.093 16.3617 266.891 16.4562 266.748 16.6453C266.607 16.8326 266.537 17.1198 266.537 17.5069C266.537 17.8815 266.607 18.166 266.748 18.3605C266.891 18.5531 267.093 18.6495 267.356 18.6495C267.614 18.6495 267.814 18.5549 267.955 18.3658C268.098 18.175 268.169 17.8887 268.169 17.5069ZM271.565 19H271.062V17.6541H269.708V19H269.205V16.0112H269.708V17.2206H271.062V16.0112H271.565V19ZM273.59 19.0696C273.114 19.0696 272.744 18.9358 272.48 18.6682C272.217 18.3988 272.086 18.0171 272.086 17.523C272.086 17.036 272.214 16.6489 272.469 16.3617C272.724 16.0727 273.058 15.9282 273.47 15.9282C273.655 15.9282 273.819 15.955 273.962 16.0085C274.105 16.062 274.23 16.1458 274.337 16.26C274.444 16.3742 274.526 16.5142 274.583 16.6801C274.64 16.8442 274.668 17.0458 274.668 17.2848V17.5578H272.597C272.597 17.9056 272.685 18.1714 272.86 18.3551C273.034 18.5389 273.276 18.6307 273.585 18.6307C273.695 18.6307 273.803 18.6183 273.909 18.5933C274.016 18.5683 274.112 18.5362 274.198 18.497C274.289 18.4559 274.365 18.4167 274.428 18.3792C274.49 18.34 274.542 18.3034 274.583 18.2695H274.612V18.818C274.553 18.8412 274.48 18.8707 274.393 18.9063C274.305 18.9402 274.227 18.967 274.157 18.9866C274.059 19.0134 273.97 19.0339 273.89 19.0482C273.811 19.0624 273.711 19.0696 273.59 19.0696ZM274.179 17.1724C274.175 17.0369 274.159 16.92 274.131 16.8219C274.102 16.7238 274.061 16.6409 274.008 16.5731C273.949 16.4981 273.873 16.4411 273.78 16.4018C273.689 16.3626 273.576 16.3429 273.44 16.3429C273.307 16.3429 273.192 16.3635 273.098 16.4045C273.005 16.4437 272.92 16.5017 272.844 16.5784C272.769 16.6569 272.712 16.7443 272.672 16.8406C272.633 16.9352 272.608 17.0458 272.597 17.1724H274.179ZM277.537 19H277.034V17.6541H275.68V19H275.177V16.0112H275.68V17.2206H277.034V16.0112H277.537V19ZM280.448 16.4527H279.431V19H278.928V16.4527H277.912V16.0112H280.448V16.4527ZM283.041 18.0742C283.041 18.2187 283.012 18.3498 282.953 18.4675C282.896 18.5853 282.817 18.6807 282.717 18.7538C282.599 18.843 282.474 18.9063 282.34 18.9438C282.206 18.9813 282.034 19 281.824 19H280.823V16.0112H281.326V17.1751H281.837C282.062 17.1751 282.236 17.1867 282.359 17.2099C282.484 17.2331 282.608 17.2902 282.731 17.3812C282.834 17.4579 282.912 17.556 282.963 17.6755C283.015 17.795 283.041 17.9279 283.041 18.0742ZM282.522 18.0822C282.522 17.9912 282.506 17.9118 282.474 17.8441C282.443 17.7745 282.393 17.7183 282.321 17.6755C282.246 17.6309 282.161 17.6041 282.064 17.5952C281.97 17.5863 281.833 17.5818 281.655 17.5818H281.326V18.5986H281.644C281.823 18.5986 281.961 18.5915 282.059 18.5772C282.157 18.5612 282.242 18.5317 282.313 18.4889C282.386 18.4425 282.439 18.3881 282.471 18.3257C282.505 18.2615 282.522 18.1803 282.522 18.0822ZM283.892 19H283.389V16.0112H283.892V19Z" fill="#60647F"/>
</g>
<defs>
<clipPath id="clip0">
<rect width="324" height="116.75" fill="white"/>
</clipPath>
<clipPath id="clip1">
<rect width="35" height="19" fill="white" transform="translate(50 56)"/>
</clipPath>
<clipPath id="clip2">
<rect width="40" height="19" fill="white" transform="translate(50 84)"/>
</clipPath>
<clipPath id="clip3">
<rect width="53" height="18" fill="white" transform="translate(50 26)"/>
</clipPath>
<clipPath id="clip4">
<rect width="30" height="19" fill="white" transform="translate(170 56)"/>
</clipPath>
<clipPath id="clip5">
<rect width="40" height="19" fill="white" transform="translate(170 84)"/>
</clipPath>
<clipPath id="clip6">
<rect width="54" height="18" fill="white" transform="translate(170 26)"/>
</clipPath>
<clipPath id="clip7">
<rect width="35" height="19" fill="white" transform="translate(295 56)"/>
</clipPath>
<clipPath id="clip8">
<rect width="41" height="19" fill="white" transform="translate(295 84)"/>
</clipPath>
<clipPath id="clip9">
<rect width="54" height="18" fill="white" transform="translate(295 26)"/>
</clipPath>
</defs>
</svg>
