<svg xmlns="http://www.w3.org/2000/svg" xmlns:xlink="http://www.w3.org/1999/xlink" viewBox="0 0 324 116.75"><defs><style>.b00c7127-52a7-428d-b1f8-e48ad0f63467{isolation:isolate;}.b7ac4dc8-3b6e-4acf-9b28-5c4d104f3a9d{fill:url(#f14ea6bc-9ef4-45bd-8be8-8491fff5929a);}.e5d4d5f1-03d9-4336-8f3f-4e18af4c2f75{fill:url(#baa54822-3923-4b27-915d-ce3bc4aa41c4);}.fbf877d6-0db6-46e6-ac7a-af4d0c68f9a0{clip-path:url(#fd41d4a7-d66d-4b6a-beac-5da34c7a0f87);}.a37fcf71-cedb-45d1-bd5b-ab5c7a33e814,.fbca7754-584a-499e-9fa2-a091c5ab7b1f{fill:none;}.f5bb88d9-6892-4aa3-a0e2-bda54210873e{fill:url(#ecfb7140-f12f-4d75-8132-a4f0b237201e);}.ad38d83f-5922-41b6-aa01-d30ed1cbd01c{fill:url(#f77927dd-d657-43b8-82f6-a5ac6534e308);}.ab06305f-f7fa-4843-b4c3-61f0cebf9990{fill:url(#a5664d0f-0407-4d78-b862-b9d6246ad27f);}.b41b2a22-8454-48fb-91d2-2081eb141b54{fill:url(#b768fbc2-5f9d-4029-9888-9e127307be20);}.f9fce53f-8ad9-48eb-9be0-d0d3b4cdd472{fill:url(#b86c0c43-5702-4923-9851-7adce84712eb);}.a12849ba-34be-4abf-9887-36b316848c50{clip-path:url(#f5fcefd3-3413-4062-941a-80fe94c47f2d);}.a30af2af-d364-4aea-9ca5-e54731d8bf21{fill:url(#a8f0057a-a4a4-4341-a392-bf8beac3f22d);}.ab7d331c-5f28-444d-80c5-efc59ebb82c5{fill:url(#b89f88db-dde0-4151-9f68-cb05e922f667);}.e0bedb40-98e4-45a3-ad84-d0f5e86c3e44{fill:url(#b67cdbe7-98ed-49c5-9df2-01d1339b25b0);}.eb787714-aaf5-444b-adec-747d1d317054{fill:url(#bc474df8-ac79-4390-a936-ba0a00c2da8f);}.f2381183-242d-49a8-982e-05746c477079{fill:url(#b73d3574-306d-4096-bb64-2008348b4321);}.fac6e4a4-4e64-4aba-ab7e-48c972d14ab2{fill:#1a1d26;stroke:#fff;stroke-width:0.75px;}.fac6e4a4-4e64-4aba-ab7e-48c972d14ab2,.fbca7754-584a-499e-9fa2-a091c5ab7b1f{stroke-miterlimit:10;}.ac332518-4f1d-487b-b951-e83e46ef4a98{opacity:0.25;}.bf2aa1cf-74d0-4767-84a9-f6032152b45b{clip-path:url(#a12a927f-09f0-47cf-9c2c-7df8ec8237df);}.a77ae8f6-dedc-473e-9298-af0d9ee88044{fill:#0a1016;}.ae05abdf-8ac2-4e8c-b363-0c5b0aba8d4c,.edf54cad-cb9b-469e-8833-7814500d06cc{opacity:0.2;}.edf54cad-cb9b-469e-8833-7814500d06cc{fill:url(#fb2df459-5c12-4eb2-a29c-2ad23aa26ee8);}.b6b365e0-97b2-4ebf-916c-f9ba1392cc4e,.b893b907-b8dd-4bd1-880d-fd301de93ce3,.ed62a1b7-0853-400f-b89a-6d3262285e49{font-size:4.38px;}.a440d4d6-eaf6-46c5-9339-414f40ee3b09,.ed62a1b7-0853-400f-b89a-6d3262285e49{fill:#8899b3;}.a968aa52-b190-44d3-b11c-79bc830324a8,.b6b365e0-97b2-4ebf-916c-f9ba1392cc4e,.b893b907-b8dd-4bd1-880d-fd301de93ce3,.ed62a1b7-0853-400f-b89a-6d3262285e49{font-family:Tahoma;}.b893b907-b8dd-4bd1-880d-fd301de93ce3,.fa0f6f7d-cc66-4879-be1e-6fa762b63dbb{fill:#5f6580;}.a0f11c9e-7cec-4792-9029-83a389888274{clip-path:url(#f9bbe7b7-0a30-43d2-a20f-e153bf14eef5);}.be973bf3-91da-4097-bf32-592d17bc8b90{clip-path:url(#b15be232-814a-41d5-9350-44826e44dd52);}.ab38f064-0b8b-4ea9-8ae0-93c92f4f72ce,.b9ca16af-c4dd-427d-bf3f-83cf35ee8fa1{fill:#00aaf7;}.ab38f064-0b8b-4ea9-8ae0-93c92f4f72ce{opacity:0.1;}.a968aa52-b190-44d3-b11c-79bc830324a8{font-size:4.87px;}.a968aa52-b190-44d3-b11c-79bc830324a8,.b6b365e0-97b2-4ebf-916c-f9ba1392cc4e,.e7b60ae4-05ea-4bb2-a624-00ad65503dae{fill:#fff;}.b00c439b-9273-45cd-a398-78e79a7a0824{opacity:0.1;}.fe13fd76-5a53-4f3f-bb77-620c091b34de{clip-path:url(#b50e5c6d-92a7-442b-bdf1-5fbe3fff4cea);}.fbca7754-584a-499e-9fa2-a091c5ab7b1f{stroke:#000;stroke-width:0.95px;}.b0192bc7-a5bf-429c-bc5a-f74e33967ca2{clip-path:url(#abd6e4c2-3374-4ce1-b502-ed8e793201a8);}.aff16017-2421-4a7c-b0b1-3ba2c94e999d{clip-path:url(#ae70e3dc-e949-43aa-a497-bb0c8208c299);}.aa7d7ba7-687a-4acd-822c-3560890dbf9b{clip-path:url(#ecfe48eb-d94c-4d7b-b65e-cd7c9b31c3f9);}.a512a604-754c-49ed-8a84-1fa33ae9759b{clip-path:url(#afca6cec-2517-436a-8fd1-8f9e95ed8173);}.a9010128-ba9c-4a6b-9d15-0bb0090cdeb4{clip-path:url(#af399eaf-95cc-4ad5-9b24-2ffd564ce486);}.b41386ba-67a0-4fae-80d8-a49124b448a0{mask:url(#b328abd6-5584-443b-9db9-2689e409ad27);}.b9fd4e9f-b182-4177-9718-cc2c2dfefc99{opacity:0.3;}.a8faef60-d93c-4dc2-87cf-5edec1ca46cf{clip-path:url(#e0da42e3-a3ee-41f4-ac9e-dc803c7291a8);}.ab11ac59-7cf8-4913-be15-6fe0f265005c{clip-path:url(#aaabe5c0-abad-418c-875f-f31b135690dc);}.b0bdcf08-bc18-4c35-890c-7c732324c621{mask:url(#fde05af3-4e75-4ae1-96be-83521264b752);}.f4bc0c8a-37cc-427d-8362-2a28f583cf8b{fill:url(#bc6ea8c8-a3af-4465-a935-6d3bda8c26c8);}.bdabc47c-67a7-4951-b2cc-19a7b5308330{clip-path:url(#ac2263ed-9c08-4219-8c1e-7170b3c6a6f2);}.f253d2dc-327f-4085-8831-e28e61829502{mask:url(#b11fb0b9-8775-4ff8-9749-623faa820a2c);}.b318ed37-6530-452d-a508-e870b935bead{fill:url(#ab38c4b4-9054-48c2-844b-4f150f22f062);}.bf3b4bfa-350f-418a-92bd-e5b78a4b293c{mask:url(#b6e52568-a7d4-4279-b99d-8e224bdb4d1e);}.ea13e86f-bfcc-4261-a17e-96b72bdd6af4{clip-path:url(#f1e5e6fe-ac5d-4cce-9b28-8213aef27688);}.fb32eaeb-7ab6-4017-95bd-55e9e6f89e99{fill:url(#adc2e873-c2e7-4cee-9655-0de7b868463c);}.ba26e362-201b-48aa-bb02-7257aff608bf{clip-path:url(#b7220137-556b-4eb3-9331-3a83ca477e31);}.f7d3b449-5e02-4d0d-9c29-1263cac4b006{mask:url(#a58d1d66-0e44-4fe2-8035-899f55ec4ba2);}.afac03e9-22c4-408f-825f-50a20bcbecfc{fill:url(#a25647c9-3494-4e61-99d5-64cf7d8e86a3);}.e0c7712a-9086-44ef-bd0d-5d92df4f4406{fill:#43a5f1;fill-rule:evenodd;}.bc9f5821-b703-44d4-bc63-e4bb82fa499a{fill:red;}.b1d0fb2c-b388-4ba0-83ce-db436a8712f2{mask:url(#a8b73705-0919-4b98-a928-112fdf610a52);}.bf28f515-78d9-41e2-b444-0203b02d1318{clip-path:url(#afca5811-5ce9-469a-83eb-ad320641533e);}.b8302373-a4d0-4961-a6f8-c3d089f768e2{clip-path:url(#aaa5d5d1-9899-4e29-bce8-576804ad9314);}.abc37204-b40a-4186-9cca-323f8f6f686f{mask:url(#b563a7c6-a097-4e6c-aef7-5031bcbd8106);}.a891fe49-7916-42b1-ba76-0ad788f305a7{fill:url(#b99871fd-c8b7-40d0-b060-983f67af3ac5);}.b06a3da4-0751-405b-bce1-20515a04e059{clip-path:url(#b5b08eff-a0bc-4f60-9ba5-6def572832ca);}.fdfa6759-9527-46d2-bb89-816f40e98648{mask:url(#b0580b0b-f796-413c-b3bf-4d88cac4b95f);}.e171056f-61c0-469d-94dc-a1acb7d85d9d{fill:url(#a8baa4d2-b1be-4162-a94e-c82dde3bf858);}.b97ee822-943d-4af8-89a7-032e18e87b25{mask:url(#b5e397a6-b3e1-4924-aa0c-174f9943d6eb);}.f84d6ec4-0bf2-4f25-b03c-5150fdf590e5{clip-path:url(#b2975440-f90f-4802-a6ad-c73d67700795);}.bf2e9967-0cc5-4df4-9772-79e95b896a68{fill:url(#b9a075c6-6f59-45de-991b-05357d9082d3);}.fd89c410-ac79-4480-b574-50c56bde255c{clip-path:url(#bcaa6eb7-5fe2-413d-931c-c04961f51be5);}.f24e6b7d-0cb4-4176-9f08-6abd27bba9a6{mask:url(#b9b9be87-78ed-46ce-918e-94a257bbd69f);}.a46403b4-46c0-4256-ac03-8ae6f628c248{fill:url(#e1b494bb-0b05-4324-a448-f4e5fcfa4199);}.af98dc1a-096c-4172-a4cd-3b57ed418ab5{fill:#ff7300;}.ae05abdf-8ac2-4e8c-b363-0c5b0aba8d4c{fill:url(#e07e028a-10a6-4ed6-bcee-c40f5f5152ac);}</style><linearGradient id="f14ea6bc-9ef4-45bd-8be8-8491fff5929a" x1="-2025.73" y1="3903.26" x2="-2025.38" y2="3903.26" gradientTransform="matrix(0, -15.92, -75.19, 0, 293631.41, -32208.87)" gradientUnits="userSpaceOnUse"><stop offset="0"/><stop offset="1" stop-color="#fff"/></linearGradient><linearGradient id="baa54822-3923-4b27-915d-ce3bc4aa41c4" x1="-2024.73" y1="3946.57" x2="-2024.38" y2="3946.57" gradientTransform="matrix(0, -15.85, 74.87, 0, -295328.42, -32055.52)" gradientUnits="userSpaceOnUse"><stop offset="0"/><stop offset="1" stop-color="gray"/></linearGradient><clipPath id="fd41d4a7-d66d-4b6a-beac-5da34c7a0f87"><rect class="a37fcf71-cedb-45d1-bd5b-ab5c7a33e814" x="4.84" y="71.66" width="290.8" height="6"/></clipPath><linearGradient id="ecfb7140-f12f-4d75-8132-a4f0b237201e" x1="-2489.98" y1="3946.53" x2="-2489.6" y2="3946.53" gradientTransform="matrix(0.02, 15.92, 75.19, 0, -296551.45, 39721.91)" gradientUnits="userSpaceOnUse"><stop offset="0" stop-color="#565655"/><stop offset="1" stop-color="#fff"/></linearGradient><linearGradient id="f77927dd-d657-43b8-82f6-a5ac6534e308" x1="-2027.28" y1="3946.58" x2="-2026.91" y2="3946.58" xlink:href="#baa54822-3923-4b27-915d-ce3bc4aa41c4"/><linearGradient id="a5664d0f-0407-4d78-b862-b9d6246ad27f" x1="-2027.28" y1="3946.58" x2="-2026.91" y2="3946.58" gradientTransform="matrix(0, -15.85, 74.87, 0, -295328.43, -32055.52)" xlink:href="#baa54822-3923-4b27-915d-ce3bc4aa41c4"/><linearGradient id="b768fbc2-5f9d-4029-9888-9e127307be20" x1="-2489.99" y1="3946.46" x2="-2489.62" y2="3946.46" gradientTransform="matrix(0.02, 15.92, 75.19, 0, -296534.47, 39720.61)" xlink:href="#baa54822-3923-4b27-915d-ce3bc4aa41c4"/><linearGradient id="b86c0c43-5702-4923-9851-7adce84712eb" x1="-2024.73" y1="3946.57" x2="-2024.38" y2="3946.57" gradientTransform="matrix(0, -15.85, 74.87, 0, -295328.43, -32055.52)" xlink:href="#baa54822-3923-4b27-915d-ce3bc4aa41c4"/><clipPath id="f5fcefd3-3413-4062-941a-80fe94c47f2d"><rect class="a37fcf71-cedb-45d1-bd5b-ab5c7a33e814" x="4.84" y="31.69" width="289.75" height="5.57"/></clipPath><linearGradient id="a8f0057a-a4a4-4341-a392-bf8beac3f22d" x1="-2492.49" y1="3946.53" x2="-2492.14" y2="3946.53" xlink:href="#ecfb7140-f12f-4d75-8132-a4f0b237201e"/><linearGradient id="b89f88db-dde0-4151-9f68-cb05e922f667" x1="-2024.73" y1="3946.57" x2="-2024.38" y2="3946.57" gradientTransform="matrix(0, -15.85, 74.87, 0, -295328.43, -32055.52)" xlink:href="#baa54822-3923-4b27-915d-ce3bc4aa41c4"/><linearGradient id="b67cdbe7-98ed-49c5-9df2-01d1339b25b0" x1="-2492.5" y1="3946.46" x2="-2492.15" y2="3946.46" gradientTransform="matrix(0.02, 15.92, 75.19, 0, -296534.47, 39720.61)" xlink:href="#baa54822-3923-4b27-915d-ce3bc4aa41c4"/><linearGradient id="bc474df8-ac79-4390-a936-ba0a00c2da8f" x1="-2028.27" y1="3903.26" x2="-2027.89" y2="3903.26" xlink:href="#f14ea6bc-9ef4-45bd-8be8-8491fff5929a"/><linearGradient id="b73d3574-306d-4096-bb64-2008348b4321" x1="-2027.28" y1="3946.58" x2="-2026.91" y2="3946.58" gradientTransform="matrix(0, -15.85, 74.87, 0, -295328.43, -32055.52)" xlink:href="#baa54822-3923-4b27-915d-ce3bc4aa41c4"/><clipPath id="a12a927f-09f0-47cf-9c2c-7df8ec8237df"><rect class="a37fcf71-cedb-45d1-bd5b-ab5c7a33e814" x="5.72" y="31.87" width="313.07" height="11.97"/></clipPath><linearGradient id="fb2df459-5c12-4eb2-a29c-2ad23aa26ee8" x1="5.09" y1="10.47" x2="318.94" y2="10.47" gradientUnits="userSpaceOnUse"><stop offset="0" stop-color="#5b607d"/><stop offset="0.84" stop-color="#5b607d"/></linearGradient><clipPath id="f9bbe7b7-0a30-43d2-a20f-e153bf14eef5"><rect class="a37fcf71-cedb-45d1-bd5b-ab5c7a33e814" x="4.89" y="45.26" width="314.04" height="11.97"/></clipPath><clipPath id="b15be232-814a-41d5-9350-44826e44dd52"><rect class="a37fcf71-cedb-45d1-bd5b-ab5c7a33e814" x="4.89" y="72.03" width="314.04" height="11.97"/></clipPath><clipPath id="b50e5c6d-92a7-442b-bdf1-5fbe3fff4cea"><rect class="a37fcf71-cedb-45d1-bd5b-ab5c7a33e814" x="104.16" y="31.24" width="0.39" height="25.8"/></clipPath><clipPath id="abd6e4c2-3374-4ce1-b502-ed8e793201a8"><rect class="a37fcf71-cedb-45d1-bd5b-ab5c7a33e814" x="174.42" y="31.24" width="0.39" height="25.8"/></clipPath><clipPath id="ae70e3dc-e949-43aa-a497-bb0c8208c299"><rect class="a37fcf71-cedb-45d1-bd5b-ab5c7a33e814" x="240.77" y="31.24" width="0.39" height="25.8"/></clipPath><clipPath id="ecfe48eb-d94c-4d7b-b65e-cd7c9b31c3f9"><rect class="a37fcf71-cedb-45d1-bd5b-ab5c7a33e814" x="104.16" y="72.13" width="0.39" height="12.66"/></clipPath><clipPath id="afca6cec-2517-436a-8fd1-8f9e95ed8173"><rect class="a37fcf71-cedb-45d1-bd5b-ab5c7a33e814" x="174.42" y="72.13" width="0.39" height="12.66"/></clipPath><clipPath id="af399eaf-95cc-4ad5-9b24-2ffd564ce486"><rect class="a37fcf71-cedb-45d1-bd5b-ab5c7a33e814" x="240.77" y="72.13" width="0.39" height="12.66"/></clipPath><mask id="b328abd6-5584-443b-9db9-2689e409ad27" x="4.84" y="31.67" width="313.64" height="5.62" maskUnits="userSpaceOnUse"><rect x="4.84" y="31.67" width="289.76" height="5.62"/><g class="b00c7127-52a7-428d-b1f8-e48ad0f63467"><rect x="4.85" y="31.69" width="289.75" height="5.57"/><rect class="b7ac4dc8-3b6e-4acf-9b28-5c4d104f3a9d" x="4.84" y="31.69" width="289.75" height="5.57"/></g></mask><clipPath id="e0da42e3-a3ee-41f4-ac9e-dc803c7291a8"><rect class="a37fcf71-cedb-45d1-bd5b-ab5c7a33e814" x="4.84" y="31.67" width="313.64" height="5.62"/></clipPath><clipPath id="aaabe5c0-abad-418c-875f-f31b135690dc"><rect class="a37fcf71-cedb-45d1-bd5b-ab5c7a33e814" x="4.84" y="31.69" width="313.64" height="5.57"/></clipPath><mask id="fde05af3-4e75-4ae1-96be-83521264b752" x="4.84" y="31.69" width="313.64" height="5.57" maskUnits="userSpaceOnUse"><rect class="e5d4d5f1-03d9-4336-8f3f-4e18af4c2f75" x="4.84" y="31.69" width="289.76" height="5.57"/></mask><linearGradient id="bc6ea8c8-a3af-4465-a935-6d3bda8c26c8" x1="-2024.73" y1="3946.73" x2="-2024.38" y2="3946.73" gradientTransform="matrix(0, -15.85, 74.87, 0, -295328.42, -32055.52)" gradientUnits="userSpaceOnUse"><stop offset="0" stop-color="#101626"/><stop offset="1"/></linearGradient><clipPath id="ac2263ed-9c08-4219-8c1e-7170b3c6a6f2"><polygon class="a37fcf71-cedb-45d1-bd5b-ab5c7a33e814" points="4.84 31.69 4.84 37.26 41.06 37.26 318.48 37.26 318.48 31.69 4.84 31.69"/></clipPath><mask id="b11fb0b9-8775-4ff8-9749-623faa820a2c" x="4.85" y="31.69" width="313.64" height="5.57" maskUnits="userSpaceOnUse"><rect class="f9fce53f-8ad9-48eb-9be0-d0d3b4cdd472" x="4.85" y="31.69" width="289.75" height="5.57"/></mask><linearGradient id="ab38c4b4-9054-48c2-844b-4f150f22f062" x1="-2024.73" y1="3946.73" x2="-2024.38" y2="3946.73" gradientTransform="matrix(0, -15.85, 74.87, 0, -295328.43, -32055.52)" xlink:href="#bc6ea8c8-a3af-4465-a935-6d3bda8c26c8"/><mask id="b6e52568-a7d4-4279-b99d-8e224bdb4d1e" x="4.84" y="31.66" width="313.65" height="5.62" maskUnits="userSpaceOnUse"><rect x="4.84" y="31.67" width="289.76" height="5.62"/><g class="b00c7127-52a7-428d-b1f8-e48ad0f63467"><rect x="4.85" y="31.69" width="289.75" height="5.57"/><g class="a12849ba-34be-4abf-9887-36b316848c50"><rect class="a30af2af-d364-4aea-9ca5-e54731d8bf21" x="4.84" y="31.68" width="289.76" height="5.59"/></g></g></mask><clipPath id="f1e5e6fe-ac5d-4cce-9b28-8213aef27688"><rect class="a37fcf71-cedb-45d1-bd5b-ab5c7a33e814" x="4.84" y="31.69" width="313.64" height="5.57"/></clipPath><linearGradient id="adc2e873-c2e7-4cee-9655-0de7b868463c" x1="-2024.73" y1="3946.73" x2="-2024.38" y2="3946.73" gradientTransform="matrix(0, -15.85, 74.87, 0, -295328.43, -32055.52)" xlink:href="#bc6ea8c8-a3af-4465-a935-6d3bda8c26c8"/><clipPath id="b7220137-556b-4eb3-9331-3a83ca477e31"><rect class="a37fcf71-cedb-45d1-bd5b-ab5c7a33e814" x="7.24" y="31.69" width="311.24" height="5.57"/></clipPath><mask id="a58d1d66-0e44-4fe2-8035-899f55ec4ba2" x="7.24" y="31.66" width="311.25" height="5.62" maskUnits="userSpaceOnUse"><rect class="e0bedb40-98e4-45a3-ad84-d0f5e86c3e44" x="7.24" y="31.68" width="287.36" height="5.59"/></mask><linearGradient id="a25647c9-3494-4e61-99d5-64cf7d8e86a3" x1="-2492.5" y1="3946.62" x2="-2492.15" y2="3946.62" gradientTransform="matrix(0.02, 15.92, 75.19, 0, -296534.47, 39720.61)" xlink:href="#bc6ea8c8-a3af-4465-a935-6d3bda8c26c8"/><mask id="a8b73705-0919-4b98-a928-112fdf610a52" x="4.84" y="71.63" width="314.77" height="6.05" maskUnits="userSpaceOnUse"><rect x="4.84" y="71.63" width="290.8" height="6.05"/><g class="b00c7127-52a7-428d-b1f8-e48ad0f63467"><rect x="4.85" y="71.66" width="290.8" height="6"/><rect class="eb787714-aaf5-444b-adec-747d1d317054" x="4.84" y="71.66" width="290.8" height="6"/></g></mask><clipPath id="afca5811-5ce9-469a-83eb-ad320641533e"><rect class="a37fcf71-cedb-45d1-bd5b-ab5c7a33e814" x="4.84" y="71.63" width="314.77" height="6.05"/></clipPath><clipPath id="aaa5d5d1-9899-4e29-bce8-576804ad9314"><rect class="a37fcf71-cedb-45d1-bd5b-ab5c7a33e814" x="4.84" y="71.66" width="314.77" height="6"/></clipPath><mask id="b563a7c6-a097-4e6c-aef7-5031bcbd8106" x="4.84" y="71.66" width="314.77" height="6" maskUnits="userSpaceOnUse"><rect class="ad38d83f-5922-41b6-aa01-d30ed1cbd01c" x="4.84" y="71.66" width="290.8" height="6"/></mask><linearGradient id="b99871fd-c8b7-40d0-b060-983f67af3ac5" x1="-2027.28" y1="3946.74" x2="-2026.91" y2="3946.74" xlink:href="#bc6ea8c8-a3af-4465-a935-6d3bda8c26c8"/><clipPath id="b5b08eff-a0bc-4f60-9ba5-6def572832ca"><polygon class="a37fcf71-cedb-45d1-bd5b-ab5c7a33e814" points="4.84 71.66 4.84 77.66 41.2 77.66 319.61 77.66 319.61 71.66 4.84 71.66"/></clipPath><mask id="b0580b0b-f796-413c-b3bf-4d88cac4b95f" x="4.85" y="71.66" width="314.77" height="6" maskUnits="userSpaceOnUse"><rect class="f2381183-242d-49a8-982e-05746c477079" x="4.85" y="71.66" width="290.8" height="6"/></mask><linearGradient id="a8baa4d2-b1be-4162-a94e-c82dde3bf858" x1="-2027.28" y1="3946.74" x2="-2026.91" y2="3946.74" gradientTransform="matrix(0, -15.85, 74.87, 0, -295328.43, -32055.52)" xlink:href="#bc6ea8c8-a3af-4465-a935-6d3bda8c26c8"/><mask id="b5e397a6-b3e1-4924-aa0c-174f9943d6eb" x="4.84" y="71.63" width="314.77" height="6.05" maskUnits="userSpaceOnUse"><rect x="4.84" y="71.63" width="290.8" height="6.05"/><g class="b00c7127-52a7-428d-b1f8-e48ad0f63467"><rect x="4.85" y="71.66" width="290.8" height="6"/><g class="fbf877d6-0db6-46e6-ac7a-af4d0c68f9a0"><rect class="f5bb88d9-6892-4aa3-a0e2-bda54210873e" x="4.84" y="71.64" width="290.8" height="6.03"/></g></g></mask><clipPath id="b2975440-f90f-4802-a6ad-c73d67700795"><rect class="a37fcf71-cedb-45d1-bd5b-ab5c7a33e814" x="4.84" y="71.66" width="314.77" height="6"/></clipPath><linearGradient id="b9a075c6-6f59-45de-991b-05357d9082d3" x1="-2027.28" y1="3946.74" x2="-2026.91" y2="3946.74" gradientTransform="matrix(0, -15.85, 74.87, 0, -295328.43, -32055.52)" xlink:href="#bc6ea8c8-a3af-4465-a935-6d3bda8c26c8"/><clipPath id="bcaa6eb7-5fe2-413d-931c-c04961f51be5"><rect class="a37fcf71-cedb-45d1-bd5b-ab5c7a33e814" x="7.25" y="71.66" width="312.36" height="6"/></clipPath><mask id="b9b9be87-78ed-46ce-918e-94a257bbd69f" x="7.25" y="71.63" width="311.54" height="5.87" maskUnits="userSpaceOnUse"><rect class="b41b2a22-8454-48fb-91d2-2081eb141b54" x="7.25" y="71.64" width="287.63" height="5.84"/></mask><linearGradient id="e1b494bb-0b05-4324-a448-f4e5fcfa4199" x1="-2489.99" y1="3946.62" x2="-2489.62" y2="3946.62" gradientTransform="matrix(0.02, 15.92, 75.19, 0, -296534.47, 39720.61)" xlink:href="#bc6ea8c8-a3af-4465-a935-6d3bda8c26c8"/><linearGradient id="e07e028a-10a6-4ed6-bcee-c40f5f5152ac" x1="-10.13" y1="-85.06" x2="303.71" y2="-85.06" gradientTransform="translate(308.81 20.39) rotate(180)" xlink:href="#fb2df459-5c12-4eb2-a29c-2ad23aa26ee8"/></defs><title>БТАТАНЕЛ</title><g id="bb784a8b-16e5-4221-8e3c-4bd6c63ba44a" data-name="Prew"><rect class="fac6e4a4-4e64-4aba-ab7e-48c972d14ab2" x="4.84" y="18.83" width="314.39" height="78.72"/><g class="ac332518-4f1d-487b-b951-e83e46ef4a98"><g class="bf2aa1cf-74d0-4767-84a9-f6032152b45b"><rect class="a77ae8f6-dedc-473e-9298-af0d9ee88044" x="5.72" y="31.87" width="313.07" height="11.97"/></g></g><path class="edf54cad-cb9b-469e-8833-7814500d06cc" d="M312.94,3.49H11.09l-6,6v8H318.94v-8Z"/><text class="ed62a1b7-0853-400f-b89a-6d3262285e49" transform="translate(127.53 8.51)">Дата начала<tspan x="0.78" y="5.26">колибровки</tspan></text><text class="ed62a1b7-0853-400f-b89a-6d3262285e49" transform="translate(270.86 8.79)">Действия с<tspan x="-3.17" y="5.26">калибровками</tspan></text><text class="ed62a1b7-0853-400f-b89a-6d3262285e49" transform="translate(191.37 8.51)">Дата окончания<tspan x="4.36" y="5.26">колибровки</tspan></text><text class="ed62a1b7-0853-400f-b89a-6d3262285e49" transform="translate(38.54 11.84)">Наименование</text><text class="b893b907-b8dd-4bd1-880d-fd301de93ce3" transform="translate(30.28 26.29)">Цех №1</text><g class="ac332518-4f1d-487b-b951-e83e46ef4a98"><g class="a0f11c9e-7cec-4792-9029-83a389888274"><rect class="a77ae8f6-dedc-473e-9298-af0d9ee88044" x="4.89" y="45.26" width="314.04" height="11.97"/></g></g><g class="ac332518-4f1d-487b-b951-e83e46ef4a98"><g class="be973bf3-91da-4097-bf32-592d17bc8b90"><rect class="a77ae8f6-dedc-473e-9298-af0d9ee88044" x="4.89" y="72.03" width="314.04" height="11.97"/></g></g><rect class="ab38f064-0b8b-4ea9-8ae0-93c92f4f72ce" x="4.88" y="44.53" width="314.21" height="12.83"/><text class="a968aa52-b190-44d3-b11c-79bc830324a8" transform="translate(187.69 39.16)">25.02.2019 12.23</text><text class="a968aa52-b190-44d3-b11c-79bc830324a8" transform="translate(120.28 39.16)">25.02.2019 12.23</text><text class="b6b365e0-97b2-4ebf-916c-f9ba1392cc4e" transform="translate(21.46 39.12)">Резервуар №156</text><g class="b00c439b-9273-45cd-a398-78e79a7a0824"><g class="fe13fd76-5a53-4f3f-bb77-620c091b34de"><line class="fbca7754-584a-499e-9fa2-a091c5ab7b1f" x1="104.35" y1="31.24" x2="104.35" y2="57.04"/></g></g><g class="b00c439b-9273-45cd-a398-78e79a7a0824"><g class="b0192bc7-a5bf-429c-bc5a-f74e33967ca2"><line class="fbca7754-584a-499e-9fa2-a091c5ab7b1f" x1="174.61" y1="31.24" x2="174.61" y2="57.04"/></g></g><g class="b00c439b-9273-45cd-a398-78e79a7a0824"><g class="aff16017-2421-4a7c-b0b1-3ba2c94e999d"><line class="fbca7754-584a-499e-9fa2-a091c5ab7b1f" x1="240.96" y1="31.24" x2="240.96" y2="57.04"/></g></g><g class="b00c439b-9273-45cd-a398-78e79a7a0824"><g class="aa7d7ba7-687a-4acd-822c-3560890dbf9b"><line class="fbca7754-584a-499e-9fa2-a091c5ab7b1f" x1="104.35" y1="72.13" x2="104.35" y2="84.78"/></g></g><g class="b00c439b-9273-45cd-a398-78e79a7a0824"><g class="a512a604-754c-49ed-8a84-1fa33ae9759b"><line class="fbca7754-584a-499e-9fa2-a091c5ab7b1f" x1="174.61" y1="72.13" x2="174.61" y2="84.78"/></g></g><g class="b00c439b-9273-45cd-a398-78e79a7a0824"><g class="a9010128-ba9c-4a6b-9d15-0bb0090cdeb4"><line class="fbca7754-584a-499e-9fa2-a091c5ab7b1f" x1="240.96" y1="72.13" x2="240.96" y2="84.78"/></g></g><g class="b41386ba-67a0-4fae-80d8-a49124b448a0"><g class="b9fd4e9f-b182-4177-9718-cc2c2dfefc99"><g class="a8faef60-d93c-4dc2-87cf-5edec1ca46cf"><g class="ab11ac59-7cf8-4913-be15-6fe0f265005c"><g class="b0bdcf08-bc18-4c35-890c-7c732324c621"><rect class="f4bc0c8a-37cc-427d-8362-2a28f583cf8b" x="4.84" y="31.69" width="313.64" height="5.57"/></g></g><g class="bdabc47c-67a7-4951-b2cc-19a7b5308330"><g class="f253d2dc-327f-4085-8831-e28e61829502"><rect class="b318ed37-6530-452d-a508-e870b935bead" x="4.85" y="31.69" width="313.64" height="5.57"/></g></g><g class="bdabc47c-67a7-4951-b2cc-19a7b5308330"><g class="bf3b4bfa-350f-418a-92bd-e5b78a4b293c"><g class="a8faef60-d93c-4dc2-87cf-5edec1ca46cf"><g class="ab11ac59-7cf8-4913-be15-6fe0f265005c"><g class="b0bdcf08-bc18-4c35-890c-7c732324c621"><rect class="f4bc0c8a-37cc-427d-8362-2a28f583cf8b" x="4.84" y="31.69" width="313.64" height="5.57"/></g></g><g class="ea13e86f-bfcc-4261-a17e-96b72bdd6af4"><g class="f253d2dc-327f-4085-8831-e28e61829502"><rect class="fb32eaeb-7ab6-4017-95bd-55e9e6f89e99" x="4.84" y="31.69" width="313.64" height="5.57"/></g></g><g class="ba26e362-201b-48aa-bb02-7257aff608bf"><g class="f7d3b449-5e02-4d0d-9c29-1263cac4b006"><rect class="afac03e9-22c4-408f-825f-50a20bcbecfc" x="7.24" y="31.68" width="311.24" height="5.59"/></g></g></g></g></g></g></g></g><rect class="a440d4d6-eaf6-46c5-9339-414f40ee3b09" x="163.85" y="12.92" width="0.94" height="0.33"/><rect class="a440d4d6-eaf6-46c5-9339-414f40ee3b09" x="163.85" y="11.55" width="2.07" height="0.33"/><rect class="a440d4d6-eaf6-46c5-9339-414f40ee3b09" x="163.85" y="10.18" width="3.2" height="0.33"/><rect class="a440d4d6-eaf6-46c5-9339-414f40ee3b09" x="163.85" y="8.82" width="4.33" height="0.33"/><rect class="a440d4d6-eaf6-46c5-9339-414f40ee3b09" x="163.85" y="7.45" width="5.46" height="0.33"/><polygon class="a440d4d6-eaf6-46c5-9339-414f40ee3b09" points="168.57 13.31 167.71 12.46 167.94 12.22 168.4 12.68 168.4 10.71 168.73 10.71 168.73 12.68 169.19 12.22 169.42 12.46 168.57 13.31"/><path class="e0c7712a-9086-44ef-bd0d-5d92df4f4406" d="M231,7.07h.94v.32H231V7.07Zm4.88,0V9l.46-.46.23.23-.74.74-.11.11-.12-.11-.74-.74.23-.23.46.46v-2ZM231,12.53h5.46v.32H231v-.32Zm0-1.37h4.33v.33H231v-.33Zm0-1.36h3.2v.32H231V9.8Zm0-1.37H233v.33H231Z"/><rect class="bc9f5821-b703-44d4-bc63-e4bb82fa499a" x="174.44" y="43.41" width="66.2" height="0.77" transform="translate(415.08 87.59) rotate(180)"/><text class="a968aa52-b190-44d3-b11c-79bc830324a8" transform="translate(187.69 52.79)">25.02.2019 12.23</text><text class="a968aa52-b190-44d3-b11c-79bc830324a8" transform="translate(120.28 52.79)">25.02.2019 12.23</text><text class="b6b365e0-97b2-4ebf-916c-f9ba1392cc4e" transform="translate(21.46 52.75)">Резервуар №156</text><rect class="b9ca16af-c4dd-427d-bf3f-83cf35ee8fa1" x="174.44" y="57.53" width="66.2" height="0.77" transform="translate(415.08 115.82) rotate(180)"/><path class="fa0f6f7d-cc66-4879-be1e-6fa762b63dbb" d="M23,23.52a.15.15,0,0,0-.11,0l-1.79,1.79a.16.16,0,0,0,0,.22.14.14,0,0,0,.22,0L23,23.9l1.68,1.67a.14.14,0,0,0,.22,0,.16.16,0,0,0,0-.22l-1.79-1.79a.15.15,0,0,0-.11,0"/><text class="b893b907-b8dd-4bd1-880d-fd301de93ce3" transform="translate(30.28 66.69)">Цех №2</text><g class="b1d0fb2c-b388-4ba0-83ce-db436a8712f2"><g class="b9fd4e9f-b182-4177-9718-cc2c2dfefc99"><g class="bf28f515-78d9-41e2-b444-0203b02d1318"><g class="b8302373-a4d0-4961-a6f8-c3d089f768e2"><g class="abc37204-b40a-4186-9cca-323f8f6f686f"><rect class="a891fe49-7916-42b1-ba76-0ad788f305a7" x="4.84" y="71.66" width="314.77" height="6"/></g></g><g class="b06a3da4-0751-405b-bce1-20515a04e059"><g class="fdfa6759-9527-46d2-bb89-816f40e98648"><rect class="e171056f-61c0-469d-94dc-a1acb7d85d9d" x="4.85" y="71.66" width="314.77" height="6"/></g></g><g class="b06a3da4-0751-405b-bce1-20515a04e059"><g class="b97ee822-943d-4af8-89a7-032e18e87b25"><g class="bf28f515-78d9-41e2-b444-0203b02d1318"><g class="b8302373-a4d0-4961-a6f8-c3d089f768e2"><g class="abc37204-b40a-4186-9cca-323f8f6f686f"><rect class="a891fe49-7916-42b1-ba76-0ad788f305a7" x="4.84" y="71.66" width="314.77" height="6"/></g></g><g class="f84d6ec4-0bf2-4f25-b03c-5150fdf590e5"><g class="fdfa6759-9527-46d2-bb89-816f40e98648"><rect class="bf2e9967-0cc5-4df4-9772-79e95b896a68" x="4.84" y="71.66" width="314.77" height="6"/></g></g><g class="fd89c410-ac79-4480-b574-50c56bde255c"><g class="f24e6b7d-0cb4-4176-9f08-6abd27bba9a6"><rect class="a46403b4-46c0-4256-ac03-8ae6f628c248" x="7.25" y="71.64" width="311.54" height="5.84"/></g></g></g></g></g></g></g></g><path class="fa0f6f7d-cc66-4879-be1e-6fa762b63dbb" d="M23,63.92a.15.15,0,0,0-.11,0l-1.79,1.79a.17.17,0,0,0,0,.23.16.16,0,0,0,.22,0L23,64.3,24.63,66a.16.16,0,0,0,.22,0,.17.17,0,0,0,0-.23L23.06,64a.15.15,0,0,0-.11,0"/><text class="a968aa52-b190-44d3-b11c-79bc830324a8" transform="translate(187.69 80.05)">25.02.2019 12.23</text><text class="a968aa52-b190-44d3-b11c-79bc830324a8" transform="translate(120.28 80.05)">25.02.2019 12.23</text><text class="b6b365e0-97b2-4ebf-916c-f9ba1392cc4e" transform="translate(21.46 80)">Резервуар №156</text><rect class="af98dc1a-096c-4172-a4cd-3b57ed418ab5" x="174.44" y="84.3" width="66.2" height="0.77" transform="translate(415.08 169.36) rotate(180)"/><text class="b893b907-b8dd-4bd1-880d-fd301de93ce3" transform="translate(30.28 92)">Цех №3</text><path class="fa0f6f7d-cc66-4879-be1e-6fa762b63dbb" d="M23,91.33a.15.15,0,0,0,.11,0l1.79-1.79a.16.16,0,0,0,0-.22.14.14,0,0,0-.22,0L23,91l-1.68-1.67a.14.14,0,0,0-.22,0,.16.16,0,0,0,0,.22l1.79,1.79a.15.15,0,0,0,.11,0"/><path class="ae05abdf-8ac2-4e8c-b363-0c5b0aba8d4c" d="M11.09,112.42H312.94l6-6v-8H5.09v8Z"/><g id="b31cfe3e-2fa9-464b-b2c4-3a06b5451c11" data-name="f844d881-fd18-44b4-bcc5-c048e536b221"><g id="bd07d00b-ce21-4652-9123-9546a10e9888" data-name="f70d79eb-a779-4aed-a188-b9f31beee2a5"><path class="e7b60ae4-05ea-4bb2-a624-00ad65503dae" d="M269.73,42.51h.17a3,3,0,0,0,.73-5.78h0a4,4,0,0,0-1.17-2.17,4.09,4.09,0,0,0-5.78.1,4,4,0,0,0-.65.88H263a2.61,2.61,0,0,0-2.56,2.27h0a2.43,2.43,0,0,0-1.62,2.29,2.46,2.46,0,0,0,2.46,2.41h2.92m0-.82h-2.92a1.6,1.6,0,0,1,0-3.2h0a1.64,1.64,0,0,1,0-.38,1.79,1.79,0,0,1,1.78-1.8h0a1.91,1.91,0,0,1,.54.09h0a3.26,3.26,0,0,1,6.37,1h0a2.19,2.19,0,0,1-.17,4.34h-2.1"/><path class="e7b60ae4-05ea-4bb2-a624-00ad65503dae" d="M265.15,38.89l1.17,1.48a.24.24,0,0,0,.33,0l0,0,1.17-1.48a.24.24,0,0,0,0-.33.27.27,0,0,0-.15-.05h-.52V36.72a.22.22,0,0,0-.17-.22h-.91a.22.22,0,0,0-.22.22v1.79h-.51a.23.23,0,0,0-.24.22A.3.3,0,0,0,265.15,38.89Z"/></g></g><g id="be972d7f-b385-42c1-a787-3d3847d8072d" data-name="f844d881-fd18-44b4-bcc5-c048e536b221"><g id="b0a239ff-b1cc-4df7-99a1-0583c871ffa7" data-name="f70d79eb-a779-4aed-a188-b9f31beee2a5"><path class="e7b60ae4-05ea-4bb2-a624-00ad65503dae" d="M301.43,42.51h.18a3,3,0,0,0,.73-5.78h0a4.09,4.09,0,0,0-7-2.07,4.31,4.31,0,0,0-.64.88h-.06a2.61,2.61,0,0,0-2.56,2.27h0a2.43,2.43,0,0,0-1.62,2.29A2.45,2.45,0,0,0,293,42.51h2.92m0-.82H293a1.6,1.6,0,1,1,0-3.2h0a1.64,1.64,0,0,1,0-.38,1.79,1.79,0,0,1,1.78-1.8h0a2,2,0,0,1,.54.09h0a3.26,3.26,0,0,1,6.37,1h0a2.19,2.19,0,0,1-.17,4.34h-2.1"/><path class="e7b60ae4-05ea-4bb2-a624-00ad65503dae" d="M299.56,38.07l-1.17-1.49a.23.23,0,0,0-.33,0l0,0-1.17,1.49a.22.22,0,0,0,0,.32.21.21,0,0,0,.15,0h.52v1.8a.21.21,0,0,0,.17.21h.92a.21.21,0,0,0,.21-.21v-1.8h.52a.22.22,0,0,0,.23-.22A.27.27,0,0,0,299.56,38.07Z"/></g></g><g id="e7eae1f6-7fc5-4e18-8930-67f62a766911" data-name="f844d881-fd18-44b4-bcc5-c048e536b221"><g id="f32f7635-1184-408f-9995-dd5c9002fd47" data-name="f70d79eb-a779-4aed-a188-b9f31beee2a5"><path class="e7b60ae4-05ea-4bb2-a624-00ad65503dae" d="M269.73,82a.48.48,0,0,0,.17,0,3,3,0,0,0,.73-5.77h0a4,4,0,0,0-1.17-2.17,4.08,4.08,0,0,0-5.78.1A4.2,4.2,0,0,0,263,75H263a2.61,2.61,0,0,0-2.56,2.28h0a2.41,2.41,0,0,0,.84,4.69h2.92m0-.81h-2.92a1.6,1.6,0,1,1,0-3.2h0a1.69,1.69,0,0,1,0-.38A1.79,1.79,0,0,1,263,75.8h0a1.61,1.61,0,0,1,.54.09h0a3.26,3.26,0,0,1,6.37,1h0a2.18,2.18,0,0,1-.17,4.33h-2.1"/><path class="e7b60ae4-05ea-4bb2-a624-00ad65503dae" d="M265.15,78.37l1.17,1.49a.24.24,0,0,0,.33,0l0,0,1.17-1.49a.22.22,0,0,0,0-.32.27.27,0,0,0-.15,0h-.52V76.21A.22.22,0,0,0,267,76h-.91a.22.22,0,0,0-.22.22V78h-.51a.23.23,0,0,0-.24.22A.25.25,0,0,0,265.15,78.37Z"/></g></g><g id="aa5e971a-46e2-4ffd-ae1e-0cf59a165a8b" data-name="f844d881-fd18-44b4-bcc5-c048e536b221"><g id="a1a31f2e-c8d2-47a4-a665-2351d442dc68" data-name="f70d79eb-a779-4aed-a188-b9f31beee2a5"><path class="e7b60ae4-05ea-4bb2-a624-00ad65503dae" d="M301.43,82a.54.54,0,0,0,.18,0,3,3,0,0,0,.73-5.77h0a4.09,4.09,0,0,0-7-2.07,4.54,4.54,0,0,0-.64.87h-.06a2.61,2.61,0,0,0-2.56,2.28h0A2.41,2.41,0,0,0,293,82h2.92m0-.81H293a1.6,1.6,0,1,1,0-3.2h0a1.69,1.69,0,0,1,0-.38,1.79,1.79,0,0,1,1.78-1.8h0a1.65,1.65,0,0,1,.54.09h0a3.26,3.26,0,0,1,6.37,1h0a2.18,2.18,0,0,1-.17,4.33h-2.1"/><path class="e7b60ae4-05ea-4bb2-a624-00ad65503dae" d="M299.56,77.56l-1.17-1.49a.24.24,0,0,0-.33,0l0,0-1.17,1.49a.22.22,0,0,0,0,.32.27.27,0,0,0,.15.05h.52v1.8a.21.21,0,0,0,.17.21h.92a.22.22,0,0,0,.21-.21v-1.8h.52a.22.22,0,0,0,.23-.22A.25.25,0,0,0,299.56,77.56Z"/></g></g><g id="faf8f5bc-a5d8-4d68-a79c-35d6d42ddf41" data-name="f844d881-fd18-44b4-bcc5-c048e536b221"><g id="f41d3a79-3aec-4fdc-88b7-a9adad09d4b3" data-name="f70d79eb-a779-4aed-a188-b9f31beee2a5"><path class="e7b60ae4-05ea-4bb2-a624-00ad65503dae" d="M269.73,55.59h.17a3,3,0,0,0,.73-5.77h0a4,4,0,0,0-1.17-2.18,4.08,4.08,0,0,0-5.78.11,4,4,0,0,0-.65.87H263a2.61,2.61,0,0,0-2.56,2.27h0a2.42,2.42,0,0,0,.84,4.7h2.92m0-.81h-2.92a1.61,1.61,0,0,1,0-3.21h0a1.58,1.58,0,0,1,0-.38A1.77,1.77,0,0,1,263,49.4h0a1.61,1.61,0,0,1,.54.09h0a3.26,3.26,0,0,1,6.37.94h0a2.19,2.19,0,0,1-.17,4.34h-2.1"/><path class="e7b60ae4-05ea-4bb2-a624-00ad65503dae" d="M265.15,52l1.17,1.49a.24.24,0,0,0,.33,0l0,0L267.85,52a.22.22,0,0,0,0-.32.17.17,0,0,0-.15,0h-.52V49.8a.23.23,0,0,0-.17-.22h-.91a.23.23,0,0,0-.22.22v1.8h-.51a.22.22,0,0,0-.24.22A.27.27,0,0,0,265.15,52Z"/></g></g><g id="ffb65865-27c0-42d0-b450-c90e66592a71" data-name="f844d881-fd18-44b4-bcc5-c048e536b221"><g id="fd6cf9bc-9298-4bce-b6c9-2dde657e015e" data-name="f70d79eb-a779-4aed-a188-b9f31beee2a5"><path class="e7b60ae4-05ea-4bb2-a624-00ad65503dae" d="M301.43,55.59h.18a3,3,0,0,0,.73-5.77h0a4.08,4.08,0,0,0-7-2.07,4.25,4.25,0,0,0-.64.87h-.06a2.61,2.61,0,0,0-2.56,2.27h0a2.42,2.42,0,0,0,.84,4.7h2.92m0-.81H293a1.61,1.61,0,0,1,0-3.21h0a1.58,1.58,0,0,1,0-.38,1.77,1.77,0,0,1,1.78-1.79h0a1.65,1.65,0,0,1,.54.09h0a3.26,3.26,0,0,1,6.37.94h0a2.19,2.19,0,0,1-.17,4.34h-2.1"/><path class="e7b60ae4-05ea-4bb2-a624-00ad65503dae" d="M299.56,51.15l-1.17-1.48a.24.24,0,0,0-.33,0l0,0-1.17,1.48a.22.22,0,0,0,0,.32.22.22,0,0,0,.15.06h.52v1.79a.22.22,0,0,0,.17.22h.92a.23.23,0,0,0,.21-.22V51.53h.52a.23.23,0,0,0,.23-.22A.3.3,0,0,0,299.56,51.15Z"/></g></g></g></svg>