<svg id="e2dc65cd-0064-4417-9a9f-8638bac7716f" data-name="1" xmlns="http://www.w3.org/2000/svg" xmlns:xlink="http://www.w3.org/1999/xlink" viewBox="0 0 324 116.75"><defs><style>.a6f05567-7c03-4ef9-9874-f6097c40525c,.e52bf653-b41b-4ef3-b90c-7150f7d571d5{fill:none;}.f8a0f951-895f-42ff-bc5a-9523c180676d{fill:#121928;}.bd05de74-89e0-45b9-bf82-9cb00f9b13c9{opacity:0.25;}.f9422922-e424-4785-883b-c8603cbed70c{clip-path:url(#a3fc8cd6-9853-4038-bad7-e7d6018fda56);}.a49d076f-b991-42a0-8314-37ec02d26e0d{fill:#01070f;}.f396daff-440e-4ebf-bb18-b12020dfa2e8{opacity:0.2;fill:url(#e535b484-26cf-483d-86fe-6f0cf3c8b1b7);}.a4ca2660-6872-4ee2-a020-4cef5b9e817e,.aed7ef0b-bf3e-4b71-9b5d-e27ae8000636,.e7349924-379e-40d5-8387-d827843fd559,.f396daff-440e-4ebf-bb18-b12020dfa2e8,.f470a2a2-3fba-4cf6-85a5-9d49e3a06854,.f7aea033-4b5d-4f00-a189-0bcc0b8fc3ba{isolation:isolate;}.a4ca2660-6872-4ee2-a020-4cef5b9e817e,.f470a2a2-3fba-4cf6-85a5-9d49e3a06854,.f7aea033-4b5d-4f00-a189-0bcc0b8fc3ba{font-size:4.86px;}.a8913921-8b1b-44ca-8d11-fec805ba0061,.f470a2a2-3fba-4cf6-85a5-9d49e3a06854{fill:#8099b5;}.a4ca2660-6872-4ee2-a020-4cef5b9e817e,.e7349924-379e-40d5-8387-d827843fd559,.f470a2a2-3fba-4cf6-85a5-9d49e3a06854,.f7aea033-4b5d-4f00-a189-0bcc0b8fc3ba{font-family:Tahoma;}.baf4e5ba-53c7-4754-b18d-8e3625a6fb96,.f7aea033-4b5d-4f00-a189-0bcc0b8fc3ba{fill:#5c6581;}.e7483ba7-df54-4d71-a502-044eee6d645c{clip-path:url(#bfef4e5e-e63d-4862-9577-8a7ff0e2b14d);}.a35b067f-7139-45b7-bf93-1884707df446{clip-path:url(#b41f151e-969e-46dc-b662-f788721d3f2b);}.e7349924-379e-40d5-8387-d827843fd559{font-size:5.4px;}.a4ca2660-6872-4ee2-a020-4cef5b9e817e,.bf64a3c6-e424-4584-90e8-71bb33476f72,.e7349924-379e-40d5-8387-d827843fd559{fill:#fff;}.e6f3c20e-6a46-49a2-a1f6-4a1d290c49b7{opacity:0.1;}.f8f0e64e-a00b-4b42-bfb7-c75870b13c99{clip-path:url(#b808c1cd-3b30-43d3-a3dc-a212c6cf530c);}.e52bf653-b41b-4ef3-b90c-7150f7d571d5{stroke:#000;stroke-miterlimit:10;stroke-width:0.95px;}.bae8f2cb-53a8-4686-af87-c02595ff84c2{clip-path:url(#a021cab9-43dc-4cf3-afa0-e5ac7b9134f6);}.b996af34-4073-4543-a946-c4792ae5eaa3{clip-path:url(#b59ab1d4-2239-401f-8bdc-9f60324be57f);}.b836ca6c-b5bd-4dd7-9f57-f10880272200{clip-path:url(#ae190508-2f2a-48f3-b8af-15810f6d91a1);}.f64ea282-3d81-4d9a-8f48-000fe953b83b{clip-path:url(#af006333-bdb5-4a27-b3c2-b693ab876840);}.fdfe46e5-674b-47b5-915d-3c8c641449c2{clip-path:url(#f55837dd-09d7-40f5-b1cd-4173f2bde1b7);}.a3dabb3e-c25f-4611-9d12-ab9aeb55b2fb{opacity:0.3;}.a4c28ee6-3b76-4d24-aae9-26d9131a8b84{clip-path:url(#b97ece2c-b823-4bd3-bccc-c629b504438c);}.abfea0b4-4df3-4487-b1d6-44fa56f8d361{clip-path:url(#bee8f57e-36ea-485d-aeba-6821f4c95283);}.e7e582c4-833e-4772-b215-d272a01bc7a8{fill:url(#b92addec-0323-4d37-ac29-691d151f6d42);}.f6a63848-dc7e-4958-9b8b-2bc5c59fc15d{clip-path:url(#fe8f56d1-9799-4a7e-af9d-266898601e32);}.fa6ea6f4-f783-4252-a6cc-065ba01cbb2a{clip-path:url(#ae635e5a-8248-4ca2-b0ac-d769c9bf2f19);}.fbccb3c1-50b5-4af3-b51e-cad3eb4d4ff6{fill:url(#b84f9ef8-0cb9-41d3-a308-fb4074e51eb5);}.b32f268c-abd2-4663-9dd2-1dd68b866d44{fill:#00a6f3;fill-rule:evenodd;}.b4bd8b7e-836b-435a-8bc2-c6e60be724db{fill:red;}.f7bd9301-2bfa-4640-88b7-fb6aabdb8287{fill:#00abf9;}.ea22dbff-70e7-4f9c-8b1c-525d4e14f364{clip-path:url(#a0f1b6e7-68f3-48c7-876e-8547113e3e8c);}.a6211a53-efc7-47dc-a6bf-ebdb5483887c{clip-path:url(#ae3f6e10-11c2-48c4-b41a-46f12f8955e6);}.bfb29035-afcd-489f-8c19-36029aacb143{fill:url(#a6bd476c-d744-4270-9f42-b5812059b24d);}.ba74830d-a945-4489-848f-add0634a5ff0{clip-path:url(#fe8dc953-ce0e-4d8a-b83d-c3433588b7fc);}.eddd4666-9b65-48dc-9a4e-177162beed23{clip-path:url(#f316faf4-fa59-46e3-ba67-01d79628a88c);}.ffab2613-b3b5-46f9-a8a7-8d3e71b2d40d{fill:url(#b37c44d4-81b0-4da4-8064-cacc4d2e546a);}.a124e6fb-7bcb-45f1-a71f-5542d05a8111{fill:#ff7400;}</style><clipPath id="a3fc8cd6-9853-4038-bad7-e7d6018fda56"><rect class="a6f05567-7c03-4ef9-9874-f6097c40525c" x="4.84" y="35.61" width="313.02" height="13.27"/></clipPath><linearGradient id="e535b484-26cf-483d-86fe-6f0cf3c8b1b7" x1="5.05" y1="4188.7" x2="318.12" y2="4188.7" gradientTransform="matrix(1, 0, 0, -1, 0, 4200.58)" gradientUnits="userSpaceOnUse"><stop offset="0" stop-color="#58607f"/><stop offset="0.84" stop-color="#58607f"/></linearGradient><clipPath id="bfef4e5e-e63d-4862-9577-8a7ff0e2b14d"><rect class="a6f05567-7c03-4ef9-9874-f6097c40525c" x="4.84" y="50.45" width="313.28" height="13.27"/></clipPath><clipPath id="b41f151e-969e-46dc-b662-f788721d3f2b"><rect class="a6f05567-7c03-4ef9-9874-f6097c40525c" x="4.84" y="80.13" width="313.28" height="13.27"/></clipPath><clipPath id="b808c1cd-3b30-43d3-a3dc-a212c6cf530c"><rect class="a6f05567-7c03-4ef9-9874-f6097c40525c" x="114.88" y="34.91" width="0.43" height="28.6"/></clipPath><clipPath id="a021cab9-43dc-4cf3-afa0-e5ac7b9134f6"><rect class="a6f05567-7c03-4ef9-9874-f6097c40525c" x="192.76" y="34.91" width="0.43" height="28.6"/></clipPath><clipPath id="b59ab1d4-2239-401f-8bdc-9f60324be57f"><rect class="a6f05567-7c03-4ef9-9874-f6097c40525c" x="266.31" y="34.91" width="0.43" height="28.6"/></clipPath><clipPath id="ae190508-2f2a-48f3-b8af-15810f6d91a1"><rect class="a6f05567-7c03-4ef9-9874-f6097c40525c" x="114.88" y="80.24" width="0.43" height="14.03"/></clipPath><clipPath id="af006333-bdb5-4a27-b3c2-b693ab876840"><rect class="a6f05567-7c03-4ef9-9874-f6097c40525c" x="192.76" y="80.24" width="0.43" height="14.03"/></clipPath><clipPath id="f55837dd-09d7-40f5-b1cd-4173f2bde1b7"><rect class="a6f05567-7c03-4ef9-9874-f6097c40525c" x="266.31" y="80.24" width="0.43" height="14.03"/></clipPath><clipPath id="b97ece2c-b823-4bd3-bccc-c629b504438c"><rect class="a6f05567-7c03-4ef9-9874-f6097c40525c" x="4.78" y="34.9" width="313.46" height="6.71"/></clipPath><clipPath id="bee8f57e-36ea-485d-aeba-6821f4c95283"><rect class="a6f05567-7c03-4ef9-9874-f6097c40525c" x="4.78" y="34.93" width="313.45" height="6.65"/></clipPath><linearGradient id="b92addec-0323-4d37-ac29-691d151f6d42" x1="-4258.85" y1="-181.86" x2="-4258.44" y2="-181.86" gradientTransform="matrix(0, -15.85, -74.87, 0, -13454.29, -67462.2)" gradientUnits="userSpaceOnUse"><stop offset="0" stop-color="#040e22"/><stop offset="1"/></linearGradient><clipPath id="fe8f56d1-9799-4a7e-af9d-266898601e32"><polygon class="a6f05567-7c03-4ef9-9874-f6097c40525c" points="4.78 34.93 4.78 41.58 43.97 41.58 318.23 41.58 318.23 34.93 4.78 34.93"/></clipPath><clipPath id="ae635e5a-8248-4ca2-b0ac-d769c9bf2f19"><rect class="a6f05567-7c03-4ef9-9874-f6097c40525c" x="7.38" y="34.93" width="310.86" height="6.65"/></clipPath><linearGradient id="b84f9ef8-0cb9-41d3-a308-fb4074e51eb5" x1="-4777.2" y1="-181.69" x2="-4776.79" y2="-181.69" gradientTransform="matrix(0.02, 15.92, -75.19, 0, -13403.16, 76092.46)" xlink:href="#b92addec-0323-4d37-ac29-691d151f6d42"/><clipPath id="a0f1b6e7-68f3-48c7-876e-8547113e3e8c"><rect class="a6f05567-7c03-4ef9-9874-f6097c40525c" x="4.78" y="79.69" width="313.35" height="6.71"/></clipPath><clipPath id="ae3f6e10-11c2-48c4-b41a-46f12f8955e6"><rect class="a6f05567-7c03-4ef9-9874-f6097c40525c" x="4.78" y="79.71" width="313.35" height="6.65"/></clipPath><linearGradient id="a6bd476c-d744-4270-9f42-b5812059b24d" x1="-4261.68" y1="-181.86" x2="-4261.26" y2="-181.86" xlink:href="#b92addec-0323-4d37-ac29-691d151f6d42"/><clipPath id="fe8dc953-ce0e-4d8a-b83d-c3433588b7fc"><polygon class="a6f05567-7c03-4ef9-9874-f6097c40525c" points="4.78 79.72 4.78 86.37 43.95 86.37 318.13 86.37 318.13 79.72 4.78 79.72"/></clipPath><clipPath id="f316faf4-fa59-46e3-ba67-01d79628a88c"><rect class="a6f05567-7c03-4ef9-9874-f6097c40525c" x="7.38" y="79.71" width="310.75" height="6.65"/></clipPath><linearGradient id="b37c44d4-81b0-4da4-8064-cacc4d2e546a" x1="-4774.38" y1="-181.69" x2="-4773.97" y2="-181.69" gradientTransform="matrix(0.02, 15.92, -75.19, 0, -13403.16, 76092.46)" xlink:href="#b92addec-0323-4d37-ac29-691d151f6d42"/></defs><title>1</title><path class="f8a0f951-895f-42ff-bc5a-9523c180676d" d="M312.08,112.24H11.26l-6-5.61V21.27H318.08v85.36Z"/><g class="bd05de74-89e0-45b9-bf82-9cb00f9b13c9"><g class="f9422922-e424-4785-883b-c8603cbed70c"><rect class="a49d076f-b991-42a0-8314-37ec02d26e0d" x="4.84" y="35.61" width="313.02" height="13.27"/></g></g><path class="f396daff-440e-4ebf-bb18-b12020dfa2e8" d="M312.12,4.15H11.05l-6,6v9.46H318.12V10.15Z"/><g class="aed7ef0b-bf3e-4b71-9b5d-e27ae8000636"><text class="f470a2a2-3fba-4cf6-85a5-9d49e3a06854" transform="translate(140.79 9.72)">Дата начала</text><text class="f470a2a2-3fba-4cf6-85a5-9d49e3a06854" transform="translate(141.66 15.55)">колибровки</text></g><g class="aed7ef0b-bf3e-4b71-9b5d-e27ae8000636"><text class="f470a2a2-3fba-4cf6-85a5-9d49e3a06854" transform="translate(280.76 10.03)">Действия с</text><text class="f470a2a2-3fba-4cf6-85a5-9d49e3a06854" transform="translate(277.25 15.86)">калибровками</text></g><g class="aed7ef0b-bf3e-4b71-9b5d-e27ae8000636"><text class="f470a2a2-3fba-4cf6-85a5-9d49e3a06854" transform="translate(211.56 9.72)">Дата окончания</text><text class="f470a2a2-3fba-4cf6-85a5-9d49e3a06854" transform="translate(216.39 15.55)">колибровки</text></g><text class="f470a2a2-3fba-4cf6-85a5-9d49e3a06854" transform="translate(42.13 13.41)">Наименование</text><text class="f7aea033-4b5d-4f00-a189-0bcc0b8fc3ba" transform="translate(32.98 29.42)">Цех №1</text><g class="bd05de74-89e0-45b9-bf82-9cb00f9b13c9"><g class="e7483ba7-df54-4d71-a502-044eee6d645c"><rect class="a49d076f-b991-42a0-8314-37ec02d26e0d" x="4.84" y="50.45" width="313.28" height="13.27"/></g></g><g class="bd05de74-89e0-45b9-bf82-9cb00f9b13c9"><g class="a35b067f-7139-45b7-bf93-1884707df446"><rect class="a49d076f-b991-42a0-8314-37ec02d26e0d" x="4.84" y="80.13" width="313.28" height="13.27"/></g></g><text class="e7349924-379e-40d5-8387-d827843fd559" transform="translate(207.48 43.7)">25.02.2019 12.23</text><text class="e7349924-379e-40d5-8387-d827843fd559" transform="translate(132.75 43.7)">25.02.2019 12.23</text><text class="a4ca2660-6872-4ee2-a020-4cef5b9e817e" transform="translate(23.2 43.64)">Резервуар №156</text><g class="e6f3c20e-6a46-49a2-a1f6-4a1d290c49b7"><g class="f8f0e64e-a00b-4b42-bfb7-c75870b13c99"><line class="e52bf653-b41b-4ef3-b90c-7150f7d571d5" x1="115.09" y1="34.91" x2="115.09" y2="63.51"/></g></g><g class="e6f3c20e-6a46-49a2-a1f6-4a1d290c49b7"><g class="bae8f2cb-53a8-4686-af87-c02595ff84c2"><line class="e52bf653-b41b-4ef3-b90c-7150f7d571d5" x1="192.97" y1="34.91" x2="192.97" y2="63.51"/></g></g><g class="e6f3c20e-6a46-49a2-a1f6-4a1d290c49b7"><g class="b996af34-4073-4543-a946-c4792ae5eaa3"><line class="e52bf653-b41b-4ef3-b90c-7150f7d571d5" x1="266.53" y1="34.91" x2="266.53" y2="63.51"/></g></g><g class="e6f3c20e-6a46-49a2-a1f6-4a1d290c49b7"><g class="b836ca6c-b5bd-4dd7-9f57-f10880272200"><line class="e52bf653-b41b-4ef3-b90c-7150f7d571d5" x1="115.09" y1="80.24" x2="115.09" y2="94.27"/></g></g><g class="e6f3c20e-6a46-49a2-a1f6-4a1d290c49b7"><g class="f64ea282-3d81-4d9a-8f48-000fe953b83b"><line class="e52bf653-b41b-4ef3-b90c-7150f7d571d5" x1="192.97" y1="80.24" x2="192.97" y2="94.27"/></g></g><g class="e6f3c20e-6a46-49a2-a1f6-4a1d290c49b7"><g class="fdfe46e5-674b-47b5-915d-3c8c641449c2"><line class="e52bf653-b41b-4ef3-b90c-7150f7d571d5" x1="266.53" y1="80.24" x2="266.53" y2="94.27"/></g></g><g class="a3dabb3e-c25f-4611-9d12-ab9aeb55b2fb"><g class="a4c28ee6-3b76-4d24-aae9-26d9131a8b84"><g class="abfea0b4-4df3-4487-b1d6-44fa56f8d361"><rect class="e7e582c4-833e-4772-b215-d272a01bc7a8" x="4.78" y="34.93" width="313.45" height="6.65"/></g><g class="f6a63848-dc7e-4958-9b8b-2bc5c59fc15d"><rect class="e7e582c4-833e-4772-b215-d272a01bc7a8" x="4.78" y="34.93" width="313.45" height="6.65"/></g><g class="f6a63848-dc7e-4958-9b8b-2bc5c59fc15d"><g class="a4c28ee6-3b76-4d24-aae9-26d9131a8b84"><g class="abfea0b4-4df3-4487-b1d6-44fa56f8d361"><rect class="e7e582c4-833e-4772-b215-d272a01bc7a8" x="4.78" y="34.93" width="313.45" height="6.65"/></g><g class="abfea0b4-4df3-4487-b1d6-44fa56f8d361"><rect class="e7e582c4-833e-4772-b215-d272a01bc7a8" x="4.78" y="34.93" width="313.45" height="6.65"/></g><g class="fa6ea6f4-f783-4252-a6cc-065ba01cbb2a"><rect class="fbccb3c1-50b5-4af3-b51e-cad3eb4d4ff6" x="7.37" y="34.91" width="310.86" height="6.68"/></g></g></g></g></g><rect class="a8913921-8b1b-44ca-8d11-fec805ba0061" x="181.04" y="14.6" width="1.04" height="0.36"/><rect class="a8913921-8b1b-44ca-8d11-fec805ba0061" x="181.04" y="13.08" width="2.3" height="0.36"/><rect class="a8913921-8b1b-44ca-8d11-fec805ba0061" x="181.04" y="11.57" width="3.55" height="0.36"/><rect class="a8913921-8b1b-44ca-8d11-fec805ba0061" x="181.04" y="10.06" width="4.8" height="0.36"/><rect class="a8913921-8b1b-44ca-8d11-fec805ba0061" x="181.04" y="8.54" width="6.06" height="0.36"/><polygon class="a8913921-8b1b-44ca-8d11-fec805ba0061" points="186.28 15.04 185.32 14.09 185.57 13.83 186.09 14.34 186.09 12.16 186.46 12.16 186.46 14.34 186.97 13.83 187.22 14.09 186.28 15.04"/><path class="b32f268c-abd2-4663-9dd2-1dd68b866d44" d="M255.44,8.11h1v.37h-1Zm5.41,0V10.3l.51-.51.26.25-.82.82-.13.13-.13-.13-.82-.82.26-.25.51.51V8.11Zm-5.41,6.06h6v.38h-6v-.38Zm0-1.52h4.8V13h-4.8v-.37Zm0-1.51H259v.41h-3.54Zm0-1.51h2.29V10h-2.29Z"/><rect class="b4bd8b7e-836b-435a-8bc2-c6e60be724db" x="192.78" y="48.41" width="73.39" height="0.85"/><text class="e7349924-379e-40d5-8387-d827843fd559" transform="translate(207.48 58.8)">25.02.2019 12.23</text><text class="e7349924-379e-40d5-8387-d827843fd559" transform="translate(132.75 58.8)">25.02.2019 12.23</text><text class="a4ca2660-6872-4ee2-a020-4cef5b9e817e" transform="translate(23.2 58.75)">Резервуар №156</text><rect class="f7bd9301-2bfa-4640-88b7-fb6aabdb8287" x="192.78" y="64.05" width="73.39" height="0.85"/><path class="baf4e5ba-53c7-4754-b18d-8e3625a6fb96" d="M24.84,26.35a.22.22,0,0,0-.12,0l-2,2a.18.18,0,0,0,0,.25.15.15,0,0,0,.22,0l0,0,1.88-1.88,1.86,1.86a.18.18,0,0,0,.25,0,.2.2,0,0,0,0-.21l-2-2-.11,0"/><text class="f7aea033-4b5d-4f00-a189-0bcc0b8fc3ba" transform="translate(32.98 74.21)">Цех №2</text><g class="a3dabb3e-c25f-4611-9d12-ab9aeb55b2fb"><g class="ea22dbff-70e7-4f9c-8b1c-525d4e14f364"><g class="a6211a53-efc7-47dc-a6bf-ebdb5483887c"><rect class="bfb29035-afcd-489f-8c19-36029aacb143" x="4.78" y="79.71" width="313.35" height="6.65"/></g><g class="ba74830d-a945-4489-848f-add0634a5ff0"><rect class="bfb29035-afcd-489f-8c19-36029aacb143" x="4.78" y="79.71" width="313.35" height="6.65"/></g><g class="ba74830d-a945-4489-848f-add0634a5ff0"><g class="ea22dbff-70e7-4f9c-8b1c-525d4e14f364"><g class="a6211a53-efc7-47dc-a6bf-ebdb5483887c"><rect class="bfb29035-afcd-489f-8c19-36029aacb143" x="4.78" y="79.71" width="313.35" height="6.65"/></g><g class="a6211a53-efc7-47dc-a6bf-ebdb5483887c"><rect class="bfb29035-afcd-489f-8c19-36029aacb143" x="4.78" y="79.71" width="313.35" height="6.65"/></g><g class="eddd4666-9b65-48dc-9a4e-177162beed23"><rect class="ffab2613-b3b5-46f9-a8a7-8d3e71b2d40d" x="7.37" y="79.7" width="310.76" height="6.68"/></g></g></g></g></g><path class="baf4e5ba-53c7-4754-b18d-8e3625a6fb96" d="M24.84,71.14a.24.24,0,0,0-.12,0l-2,2a.18.18,0,0,0,0,.25.15.15,0,0,0,.22,0l0,0,1.88-1.84,1.86,1.86a.18.18,0,0,0,.25,0,.2.2,0,0,0,0-.21l-2-2h-.13"/><text class="e7349924-379e-40d5-8387-d827843fd559" transform="translate(207.48 89.02)">25.02.2019 12.23</text><text class="e7349924-379e-40d5-8387-d827843fd559" transform="translate(132.75 89.02)">25.02.2019 12.23</text><text class="a4ca2660-6872-4ee2-a020-4cef5b9e817e" transform="translate(23.2 88.97)">Резервуар №156</text><rect class="a124e6fb-7bcb-45f1-a71f-5542d05a8111" x="192.78" y="93.73" width="73.39" height="0.85"/><text class="f7aea033-4b5d-4f00-a189-0bcc0b8fc3ba" transform="translate(32.98 103.55)">Цех №3</text><path class="baf4e5ba-53c7-4754-b18d-8e3625a6fb96" d="M24.84,102.83a.28.28,0,0,0,.13,0l2-2a.16.16,0,0,0,0-.22v0a.18.18,0,0,0-.25,0l-1.88,1.8L23,100.53a.16.16,0,0,0-.24,0,.17.17,0,0,0,0,.24h0l2,2a.15.15,0,0,0,.09.06"/><g id="b2b1406c-0a6e-419a-8327-ee0bf9f32801" data-name="b4e1fd51-e284-4b4d-8b56-ef015c2a797f"><g id="a21978aa-b185-4068-a0d9-d7686f3554aa" data-name="ada93bc4-b315-4207-a16f-448f91d5dcf2"><path class="bf64a3c6-e424-4584-90e8-71bb33476f72" d="M280.53,47h5.55a3,3,0,0,0,2.76-3.22,3,3,0,0,0-2-2.61h0a4.14,4.14,0,0,0-7-2.11h0a3.93,3.93,0,0,0-.65.88h-.06a2.63,2.63,0,0,0-2.59,2.3h0a2.44,2.44,0,0,0,.84,4.75h3m0-.82h-3a1.62,1.62,0,0,1,0-3.24h0a2.41,2.41,0,0,1,0-.38,1.82,1.82,0,0,1,1.81-1.82h0a2.63,2.63,0,0,1,.55.09h0a3.3,3.3,0,0,1,6.44,1h0a2.21,2.21,0,0,1-.17,4.38h-5.62"/><path class="bf64a3c6-e424-4584-90e8-71bb33476f72" d="M281.28,43.29l1.18,1.5a.22.22,0,0,0,.32,0h0l1.18-1.5a.22.22,0,0,0,0-.31h0a.32.32,0,0,0-.15-.06h-.52V41.1a.26.26,0,0,0-.18-.22h-.92a.22.22,0,0,0-.22.22h0v1.81h-.52a.23.23,0,0,0-.24.22h0A.2.2,0,0,0,281.28,43.29Z"/></g></g><g id="b321c572-7672-48ea-afc0-d1be117e4433" data-name="b3eac82c-0e36-44a7-a93d-ac96b885ce52"><g id="a2b879b3-c585-45fb-b844-2b48ee8a15b4" data-name="f03c6126-23c0-4ced-a11b-866e4434fa94"><path class="bf64a3c6-e424-4584-90e8-71bb33476f72" d="M304.3,47h5.54a3,3,0,0,0,2.76-3.22,3,3,0,0,0-2-2.61h0a4.14,4.14,0,0,0-7-2.1,3.71,3.71,0,0,0-.65.88h-.09a2.63,2.63,0,0,0-2.59,2.3h0a2.44,2.44,0,0,0,.84,4.75h3m0-.82h-3a1.62,1.62,0,0,1,0-3.24h0a2.41,2.41,0,0,1,0-.38,1.82,1.82,0,0,1,1.75-1.82h0a2.63,2.63,0,0,1,.55.09h0a3.3,3.3,0,0,1,6.44,1h0a2.21,2.21,0,0,1-.17,4.38H304"/><path class="bf64a3c6-e424-4584-90e8-71bb33476f72" d="M307.77,42.46,306.59,41a.25.25,0,0,0-.34,0h0l-1.19,1.5a.24.24,0,0,0,0,.33.22.22,0,0,0,.16,0h.52v1.82a.21.21,0,0,0,.18.22h.92a.24.24,0,0,0,.22-.22V42.84h.52a.22.22,0,0,0,.23-.21h0A.24.24,0,0,0,307.77,42.46Z"/></g></g><g id="b36261e6-d149-49eb-b7ef-088e0b932445" data-name="aa916722-dbd0-41f8-b183-4aea9a701e20"><g id="a21197d2-fb25-4123-a8da-c4e6be7d9d4b" data-name="bfe339af-7fdf-46fd-9a07-aaa5ac7c063c"><path class="bf64a3c6-e424-4584-90e8-71bb33476f72" d="M280.53,61.32h5.55a3,3,0,0,0,.74-5.84h0a4.14,4.14,0,0,0-7-2.1,4,4,0,0,0-.65.89h-.06a2.63,2.63,0,0,0-2.59,2.3h0a2.44,2.44,0,0,0,.84,4.75h3m0-.82h-3a1.62,1.62,0,0,1,0-3.24h0a2.54,2.54,0,0,1,0-.39,1.81,1.81,0,0,1,1.81-1.81h0a2.63,2.63,0,0,1,.55.09h0a3.3,3.3,0,0,1,6.44,1h0A2.22,2.22,0,0,1,288,58.62a2.19,2.19,0,0,1-2,1.87h-5.62"/><path class="bf64a3c6-e424-4584-90e8-71bb33476f72" d="M281.28,57.66l1.18,1.5a.24.24,0,0,0,.33,0h0l1.18-1.5a.26.26,0,0,0,0-.33.44.44,0,0,0-.15,0h-.52V55.46a.23.23,0,0,0-.18-.21h-.92a.22.22,0,0,0-.22.21v1.82h-.52a.23.23,0,0,0-.24.22h0A.19.19,0,0,0,281.28,57.66Z"/></g></g><g id="a67bb3f0-f8d6-419a-bc23-e8a979c0d209" data-name="bfda205b-cd59-4bd5-a084-b0db4785f4ea"><g id="eaef95b7-5f56-4c0e-b26d-afd588bdb16a" data-name="e8b80e4e-a1a9-483e-98e6-e109a7f42298"><path class="bf64a3c6-e424-4584-90e8-71bb33476f72" d="M304.3,61.32h5.54a3,3,0,0,0,.74-5.84h0a4.29,4.29,0,0,0-1.19-2.2,4.15,4.15,0,0,0-5.85.1,4,4,0,0,0-.65.89h-.05a2.63,2.63,0,0,0-2.59,2.3h0a2.44,2.44,0,0,0,.84,4.75h3m0-.82h-3a1.62,1.62,0,0,1,0-3.24h0a2.54,2.54,0,0,1,0-.39,1.81,1.81,0,0,1,1.75-1.81h0a2.63,2.63,0,0,1,.55.09h0a3.3,3.3,0,0,1,6.44,1h0a2.22,2.22,0,0,1,1.85,2.52,2.19,2.19,0,0,1-2,1.87H304"/><path class="bf64a3c6-e424-4584-90e8-71bb33476f72" d="M307.77,56.83l-1.18-1.5a.27.27,0,0,0-.34,0h0l-1.19,1.5a.24.24,0,0,0,0,.33.22.22,0,0,0,.16,0h.52V59a.19.19,0,0,0,.18.21h.92a.23.23,0,0,0,.22-.21V57.21h.52a.23.23,0,0,0,.23-.22A.24.24,0,0,0,307.77,56.83Z"/></g></g><g id="fe335332-840e-404f-936a-62ffdb23a295" data-name="b06079b6-154b-415d-b140-698eef0c9e71"><g id="e1ad18a7-3a4e-4ef7-8b1d-2632fcb0f420" data-name="fa282e1a-5545-40ff-b99f-504448f40d11"><path class="bf64a3c6-e424-4584-90e8-71bb33476f72" d="M280.53,91.18h5.55a3,3,0,0,0,.74-5.84h0A4.15,4.15,0,0,0,282,82.09a4.21,4.21,0,0,0-2.14,1.16,3.93,3.93,0,0,0-.65.88h-.06a2.63,2.63,0,0,0-2.59,2.3h0a2.44,2.44,0,0,0,.84,4.75h3m0-.82h-3a1.62,1.62,0,0,1,0-3.24h0a2.54,2.54,0,0,1,0-.39,1.81,1.81,0,0,1,1.81-1.81h0a2.63,2.63,0,0,1,.55.09h0a3.3,3.3,0,0,1,6.44,1h0a2.21,2.21,0,0,1-.17,4.38h-5.62"/><path class="bf64a3c6-e424-4584-90e8-71bb33476f72" d="M281.28,87.55l1.18,1.5a.24.24,0,0,0,.33,0h0l1.18-1.5a.22.22,0,0,0,0-.31h0a.32.32,0,0,0-.15-.06h-.52V85.33a.26.26,0,0,0-.18-.22h-.92a.22.22,0,0,0-.22.22h0v1.81h-.52a.23.23,0,0,0-.24.22h0A.19.19,0,0,0,281.28,87.55Z"/></g></g><g id="f2a4587a-ea3e-4044-8b2f-81f3a6dcbdd8" data-name="e1db83b3-68c9-4bdd-937d-ecee85e49924"><g id="e18cfc2e-f8f2-49d3-a230-56bbf59b8c6b" data-name="bb2d9f81-8a7f-4bb0-9600-bff558fafa03"><path class="bf64a3c6-e424-4584-90e8-71bb33476f72" d="M304.3,91.18h5.55a3,3,0,0,0,.74-5.84h0a4.29,4.29,0,0,0-1.19-2.2,4.15,4.15,0,0,0-5.85.11,3.71,3.71,0,0,0-.65.88h-.06a2.63,2.63,0,0,0-2.59,2.3h0a2.44,2.44,0,0,0,.84,4.75h3m0-.82h-3a1.62,1.62,0,0,1,0-3.24h0a2.54,2.54,0,0,1,0-.39,1.81,1.81,0,0,1,1.75-1.81h0a2.63,2.63,0,0,1,.55.09h0a3.3,3.3,0,0,1,6.44,1h0a2.21,2.21,0,0,1-.17,4.38H304"/><path class="bf64a3c6-e424-4584-90e8-71bb33476f72" d="M307.77,86.69l-1.18-1.5a.27.27,0,0,0-.34,0h0l-1.19,1.5a.24.24,0,0,0,0,.33.22.22,0,0,0,.16,0h.52v1.82a.22.22,0,0,0,.18.22h.92a.24.24,0,0,0,.22-.22V87.07h.52a.22.22,0,0,0,.23-.21h0A.24.24,0,0,0,307.77,86.69Z"/></g></g></svg>