<svg id="f1087f4a-cb53-4ca8-b1fa-ea9413a5864a" data-name="1" xmlns="http://www.w3.org/2000/svg" xmlns:xlink="http://www.w3.org/1999/xlink" viewBox="0 0 324 116.75"><defs><style>.aa04a489-beb7-4e45-ac2c-9b388a17fd02{isolation:isolate;}.a58fa9c9-388f-4db2-b11c-62a4b33932fc{fill:url(#f8cd5aec-11a5-4232-b24e-35ee4e688ad1);}.f7d243ee-bf40-4754-b2d3-857378b9b1f1{fill:url(#bf000382-2d3c-44b2-aa6c-d917a3db2948);}.a9c07031-d9a6-4cef-9576-2928e3217e7a{clip-path:url(#eeafea3b-f320-48e5-8e42-eca5182e2819);}.bcb4fcab-25e2-4e34-8150-29b996b24e2f,.f3974c90-0068-499d-b2cb-19d5b31789a9{fill:none;}.e07079c7-a1cc-4b03-82d7-fd05ac4b2b7f{fill:url(#ee85a9af-e253-43e3-80c1-4b49259b3933);}.bd3c519f-11b1-4ec9-9e56-7076fefa6251{fill:url(#b22aa846-d533-4d8e-8bb1-006c68016d84);}.bb4e262e-4e1b-4dde-a408-2bfb9e95b000{fill:url(#b0055e09-ce94-495a-8591-b75bdb195b2f);}.b2b6e768-145d-48e6-a453-9b52f8fc7ffd{fill:url(#b3057081-7545-46f6-80bf-80cc7c14671d);}.bbbf809b-54c6-4d22-8074-66c3d92bbb8a{fill:url(#b75e1a43-49d8-4ad7-9b86-00573f4f5327);}.a09185ac-729a-4077-9b1c-26a5e0497100{clip-path:url(#a4ddda75-1cbe-43de-a376-480aa9ddecb5);}.ae40917c-13f8-4251-ae8e-03e0bf810791{fill:url(#bfee8830-e076-46f2-b1d8-9909c103de51);}.eaa4ef07-42f0-4b9a-a3ea-3ee21e2247aa{fill:url(#a7edb0e0-c999-4313-8545-904bd489d675);}.b2c3406e-d9c3-401e-bc51-49fc19e78476{fill:url(#b0319027-7ab2-4aa6-9c83-318341a1d432);}.bbb19f5a-adcf-44eb-817d-a198864da9db{fill:url(#ff9a3aab-fa0b-46f9-aa6d-4ec39e6c438f);}.be318eb1-13b0-459e-b165-51646c00af2b{fill:url(#b4afbba0-83d0-4cab-a928-2574ff0bccae);}.f7f3442f-24e0-4fea-90a6-f287df1961fc{fill:#1b1f2c;}.b1ab1861-1e83-45ee-ae13-70673514ba19{opacity:0.25;}.b84ff2d5-ae51-4359-b29b-d31b8d2185a1{clip-path:url(#e523fd32-17da-4eb8-bdbf-69b6ecd11d84);}.b49e378a-4a6e-472d-aa06-83fe5898e048{fill:#0a1016;}.ba3f6bb5-fd06-40f1-9351-1ed7f03c4fa0{opacity:0.2;fill:url(#f15d007a-85d8-4d4b-b687-1fb64c3a7135);}.aaf41c87-bd66-4338-8b40-ec24f1b92ebd,.e5a0be2b-c1c2-4b01-b2a1-ce312bbc8304,.e6108d6a-541f-4615-8611-96f605dd2544{font-size:4.86px;}.e6108d6a-541f-4615-8611-96f605dd2544,.febf41c6-0461-43c5-b860-244440f0630e{fill:#8899b3;}.a90e2a40-8897-40d0-8c47-3895cce72a44,.aaf41c87-bd66-4338-8b40-ec24f1b92ebd,.e5a0be2b-c1c2-4b01-b2a1-ce312bbc8304,.e6108d6a-541f-4615-8611-96f605dd2544{font-family:Tahoma;}.e5a0be2b-c1c2-4b01-b2a1-ce312bbc8304,.e61a7ecb-4233-46b0-be8f-c9bbd2fec2c2{fill:#5f6580;}.af5af76a-e584-4f56-9da7-0cbfac285e65{clip-path:url(#a9b9dd09-b4ac-4980-aab4-bb75cff559bb);}.a09ac76f-3770-47ab-9a83-e0521ac495f4{clip-path:url(#b1dce703-4bb7-45fe-b2fa-02827f8b787d);}.a90e2a40-8897-40d0-8c47-3895cce72a44{font-size:5.4px;}.a90e2a40-8897-40d0-8c47-3895cce72a44,.aaf41c87-bd66-4338-8b40-ec24f1b92ebd,.b94bcaf5-f0a3-4ab5-a048-474249b1eda1{fill:#fff;}.bd74e156-d075-46aa-bf46-0f46bc245021{opacity:0.1;}.b5c522f0-6032-4e28-bc10-f38f830b301e{clip-path:url(#aa28db8c-a622-47c8-b70e-9a7d8a397a13);}.bcb4fcab-25e2-4e34-8150-29b996b24e2f{stroke:#000;stroke-miterlimit:10;stroke-width:0.95px;}.e643f65a-129c-4c21-802c-e6cf813a44e0{clip-path:url(#b49e250a-b5b8-40b7-9901-d4af7c68ab71);}.bd8a41ea-e421-4340-b403-3b51be6f19ce{clip-path:url(#e55a65f7-4c3c-4334-bed6-ce1a7ab6de89);}.a0ff5dfa-5085-42bb-a459-bd71e43b91a6{clip-path:url(#acbe0e68-7bbe-4cb5-9d4c-b7c41fb85720);}.f8370ef4-b956-4635-aed5-e3358e654cdf{clip-path:url(#e0b0dcd3-6225-4309-a5e4-b53c9cb9c344);}.eb31135e-9827-438e-993b-4bb156c0b101{clip-path:url(#bda3f1cc-d8ac-49dd-b10b-1a1a9500620f);}.ae7a545a-6518-4d9f-b3b3-1b66b752948c{mask:url(#fc0c7f51-146b-4eff-84d9-6b101913ab8c);}.fb1a7385-76af-48df-bd57-d550b15d0a4c{opacity:0.3;}.a15b197b-5ac6-4930-b050-3dbbdb74c47c{clip-path:url(#b63021a2-8bb2-4c89-9a3a-e4cd45e87299);}.f2f86b00-442a-4149-b83e-1372869f1c38{clip-path:url(#e02232d1-3224-4e16-a43b-fd17afb29904);}.bd7f3018-1cb7-4816-b0fa-82c6ad765211{mask:url(#b2107d32-6f76-4a2d-aeba-2c833bf3346a);}.ec1f2c1f-581a-4930-81f9-d42d5ccc57df{fill:url(#a425e925-78b0-4ebd-ac95-acc05e934226);}.bdd493a6-4ba3-4b48-8776-33a03e9779c8{clip-path:url(#f2fa8dbe-1a16-42a1-9c79-099efd1275e9);}.e8a37e98-a333-4124-80ba-66b98088adc6{mask:url(#a10d79df-ed51-41d5-83a6-ceeb42f004d4);}.b9762cbb-96dd-4bfe-9b0c-5693e5367ce9{fill:url(#ba6d1e63-191c-4c91-8f7b-d3b1dfb0b4a4);}.ab5a16e3-11fb-479f-a412-f3dae35f9dd9{mask:url(#acd0704d-e2aa-4bcd-90fb-10e81beebf5b);}.a2826153-2b13-4096-afe7-c810600c1f6a{clip-path:url(#e60370cb-6578-4d39-8b90-72d03f3fb8c2);}.f0f15309-35ee-4951-9a58-96ce649c4fae{mask:url(#ac2a3da3-2bd2-4d36-818a-95bd785ba218);}.b1e971d4-1e99-4f46-a6c1-0b2e7b4566eb{fill:url(#e5d4759b-4326-4140-ae71-9217014e889c);}.f10d7f94-7c90-49cb-a7d6-c24b7ae6c1b2{clip-path:url(#ad21474c-7a1e-45b1-ada1-28abf85abb4e);}.be3e9757-f485-47d6-973d-7582cbd3587a{mask:url(#b5c005fc-677d-4286-b7bf-f90034b0204d);}.bcc6db59-bb8b-405d-9f98-aa66483e8355{fill:url(#ae89a1b5-ca71-4a39-8f0b-c7f719341ee2);}.a9997b71-95be-4ea5-9b87-5ece9e9202ec{fill:#43a5f1;fill-rule:evenodd;}.af25154b-03a5-42d7-821c-ea9e276fb7de{fill:red;}.af826e57-8c87-4932-998e-bf1091fa517a{fill:#00aaf7;}.ff2b84fd-22bf-4177-97b9-d55772bec771{mask:url(#abb69efd-c3f2-47c2-b62b-dcf40b888a65);}.ea3648a4-28cb-4c61-bcf6-be3f3a2aef82{clip-path:url(#febdf8d9-fc1a-49e6-99d1-59c23253794a);}.abb9fbd2-9f72-4c46-8e86-d8501fdacb4e{clip-path:url(#a1e48c82-f428-4e4d-98f2-c3a976c927e9);}.ae1d8fe4-8644-4890-892b-86553a8f9b4c{mask:url(#a0b18d13-9808-4de0-a761-8f831ff37a7e);}.a2359c98-5045-401a-9cf2-fde344d2fe48{fill:url(#b20eb806-98f0-4c7b-baaa-f4cb4f4eabde);}.b65f4675-ee25-4bd9-92c0-63a466a8c402{clip-path:url(#b2e77f06-b66e-4cd5-a555-b06444589f0a);}.a32fcddf-6452-4248-8642-51b2dd83ce0a{mask:url(#b20ff1ec-408c-49f6-9020-08aa2f335ecc);}.a586e18d-6119-4a51-871e-561f75b02b62{fill:url(#efcf2a60-15bc-412f-9a71-c32032e14390);}.a9aafcb2-cb7e-485b-8a0e-0a03fed79173{mask:url(#b6500312-9f79-457f-8100-4e226de8b05b);}.a6d6f258-9bf5-43e4-b9c7-63728693c921{clip-path:url(#f642bced-0c65-4a5a-aff9-caad04da7dff);}.ba6df979-303c-4770-b7f3-9cec43b18d96{mask:url(#b54baff7-3b96-4b40-a42c-e4734fbeac6c);}.afb4d3b0-888d-4e8e-9f9a-bd6b2767beea{fill:url(#a733f501-5704-47f7-9c81-3117d291fb96);}.bfda56d9-cf89-4f97-933e-e81aed530828{clip-path:url(#b0cdaeca-b565-42b6-b1cb-1b37fc79ac03);}.ae578835-bdb6-421f-b0de-8b792058630e{mask:url(#eb2ec3a3-db2f-4af2-992c-1d9a92ca5ed5);}.bf35554f-eab1-428e-acc6-a09561a7c0df{fill:url(#ecfec68d-cab3-4df7-97db-890cdb1a9ff6);}.a8ea6d22-6824-40f3-8732-f90522b914ec{fill:#ff7300;}.fe9041d3-5fc4-4d3b-88f9-7249fc2aca2b{clip-path:url(#b2507f22-d4cd-4d34-8557-c1ccec62b105);}</style><linearGradient id="f8cd5aec-11a5-4232-b24e-35ee4e688ad1" x1="-2098.32" y1="2748.37" x2="-2097.9" y2="2748.37" gradientTransform="matrix(0, -15.92, -75.19, 0, 206808.1, -33363.5)" gradientUnits="userSpaceOnUse"><stop offset="0"/><stop offset="1" stop-color="#fff"/></linearGradient><linearGradient id="bf000382-2d3c-44b2-aa6c-d917a3db2948" x1="-2097.63" y1="2791.99" x2="-2097.22" y2="2791.99" gradientTransform="matrix(0, -15.85, 74.87, 0, -208873.52, -33210.37)" gradientUnits="userSpaceOnUse"><stop offset="0"/><stop offset="1" stop-color="gray"/></linearGradient><clipPath id="eeafea3b-f320-48e5-8e42-eca5182e2819"><rect class="f3974c90-0068-499d-b2cb-19d5b31789a9" x="4.94" y="76.16" width="313.35" height="6.65"/></clipPath><linearGradient id="ee85a9af-e253-43e3-80c1-4b49259b3933" x1="-2417.16" y1="2791.93" x2="-2416.74" y2="2791.93" gradientTransform="matrix(0.02, 15.92, 75.19, 0, -209726.32, 38563.18)" gradientUnits="userSpaceOnUse"><stop offset="0" stop-color="#565655"/><stop offset="1" stop-color="#fff"/></linearGradient><linearGradient id="b22aa846-d533-4d8e-8bb1-006c68016d84" x1="-2100.46" y1="2791.99" x2="-2100.04" y2="2791.99" xlink:href="#bf000382-2d3c-44b2-aa6c-d917a3db2948"/><linearGradient id="b0055e09-ce94-495a-8591-b75bdb195b2f" x1="-2100.46" y1="2791.99" x2="-2100.04" y2="2791.99" xlink:href="#bf000382-2d3c-44b2-aa6c-d917a3db2948"/><linearGradient id="b3057081-7545-46f6-80bf-80cc7c14671d" x1="-2417.16" y1="2791.86" x2="-2416.74" y2="2791.86" gradientTransform="matrix(0.02, 15.92, 75.19, 0, -209712.47, 38561.88)" xlink:href="#bf000382-2d3c-44b2-aa6c-d917a3db2948"/><linearGradient id="b75e1a43-49d8-4ad7-9b86-00573f4f5327" x1="-2097.63" y1="2791.99" x2="-2097.22" y2="2791.99" xlink:href="#bf000382-2d3c-44b2-aa6c-d917a3db2948"/><clipPath id="a4ddda75-1cbe-43de-a376-480aa9ddecb5"><rect class="f3974c90-0068-499d-b2cb-19d5b31789a9" x="4.94" y="31.38" width="313.45" height="6.65"/></clipPath><linearGradient id="bfee8830-e076-46f2-b1d8-9909c103de51" x1="-2419.97" y1="2791.93" x2="-2419.55" y2="2791.93" xlink:href="#ee85a9af-e253-43e3-80c1-4b49259b3933"/><linearGradient id="a7edb0e0-c999-4313-8545-904bd489d675" x1="-2097.63" y1="2791.99" x2="-2097.22" y2="2791.99" xlink:href="#bf000382-2d3c-44b2-aa6c-d917a3db2948"/><linearGradient id="b0319027-7ab2-4aa6-9c83-318341a1d432" x1="-2419.98" y1="2791.86" x2="-2419.56" y2="2791.86" gradientTransform="matrix(0.02, 15.92, 75.19, 0, -209712.47, 38561.88)" xlink:href="#bf000382-2d3c-44b2-aa6c-d917a3db2948"/><linearGradient id="ff9a3aab-fa0b-46f9-aa6d-4ec39e6c438f" x1="-2101.13" y1="2748.37" x2="-2100.72" y2="2748.37" xlink:href="#f8cd5aec-11a5-4232-b24e-35ee4e688ad1"/><linearGradient id="b4afbba0-83d0-4cab-a928-2574ff0bccae" x1="-2100.46" y1="2791.99" x2="-2100.04" y2="2791.99" xlink:href="#bf000382-2d3c-44b2-aa6c-d917a3db2948"/><clipPath id="e523fd32-17da-4eb8-bdbf-69b6ecd11d84"><rect class="f3974c90-0068-499d-b2cb-19d5b31789a9" x="5" y="32.06" width="313.02" height="13.27"/></clipPath><linearGradient id="f15d007a-85d8-4d4b-b687-1fb64c3a7135" x1="5.21" y1="8.33" x2="318.28" y2="8.33" gradientUnits="userSpaceOnUse"><stop offset="0" stop-color="#5b607d"/><stop offset="0.84" stop-color="#5b607d"/></linearGradient><clipPath id="a9b9dd09-b4ac-4980-aab4-bb75cff559bb"><rect class="f3974c90-0068-499d-b2cb-19d5b31789a9" x="5" y="46.9" width="313.28" height="13.27"/></clipPath><clipPath id="b1dce703-4bb7-45fe-b2fa-02827f8b787d"><rect class="f3974c90-0068-499d-b2cb-19d5b31789a9" x="5" y="76.58" width="313.28" height="13.27"/></clipPath><clipPath id="aa28db8c-a622-47c8-b70e-9a7d8a397a13"><rect class="f3974c90-0068-499d-b2cb-19d5b31789a9" x="115.04" y="31.36" width="0.43" height="28.6"/></clipPath><clipPath id="b49e250a-b5b8-40b7-9901-d4af7c68ab71"><rect class="f3974c90-0068-499d-b2cb-19d5b31789a9" x="192.92" y="31.36" width="0.43" height="28.6"/></clipPath><clipPath id="e55a65f7-4c3c-4334-bed6-ce1a7ab6de89"><rect class="f3974c90-0068-499d-b2cb-19d5b31789a9" x="266.47" y="31.36" width="0.43" height="28.6"/></clipPath><clipPath id="acbe0e68-7bbe-4cb5-9d4c-b7c41fb85720"><rect class="f3974c90-0068-499d-b2cb-19d5b31789a9" x="115.04" y="76.69" width="0.43" height="14.03"/></clipPath><clipPath id="e0b0dcd3-6225-4309-a5e4-b53c9cb9c344"><rect class="f3974c90-0068-499d-b2cb-19d5b31789a9" x="192.92" y="76.69" width="0.43" height="14.03"/></clipPath><clipPath id="bda3f1cc-d8ac-49dd-b10b-1a1a9500620f"><rect class="f3974c90-0068-499d-b2cb-19d5b31789a9" x="266.47" y="76.69" width="0.43" height="14.03"/></clipPath><mask id="fc0c7f51-146b-4eff-84d9-6b101913ab8c" x="4.94" y="31.35" width="313.46" height="6.71" maskUnits="userSpaceOnUse"><rect x="4.94" y="31.35" width="313.45" height="6.71"/><g class="aa04a489-beb7-4e45-ac2c-9b388a17fd02"><rect x="4.94" y="31.38" width="313.45" height="6.65"/><rect class="a58fa9c9-388f-4db2-b11c-62a4b33932fc" x="4.94" y="31.38" width="313.45" height="6.65"/></g></mask><clipPath id="b63021a2-8bb2-4c89-9a3a-e4cd45e87299"><rect class="f3974c90-0068-499d-b2cb-19d5b31789a9" x="4.94" y="31.35" width="313.46" height="6.71"/></clipPath><clipPath id="e02232d1-3224-4e16-a43b-fd17afb29904"><rect class="f3974c90-0068-499d-b2cb-19d5b31789a9" x="4.94" y="31.38" width="313.45" height="6.65"/></clipPath><mask id="b2107d32-6f76-4a2d-aeba-2c833bf3346a" x="4.94" y="31.38" width="313.45" height="6.65" maskUnits="userSpaceOnUse"><rect class="f7d243ee-bf40-4754-b2d3-857378b9b1f1" x="4.94" y="31.38" width="313.45" height="6.65"/></mask><linearGradient id="a425e925-78b0-4ebd-ac95-acc05e934226" x1="-2097.63" y1="2791.99" x2="-2097.22" y2="2791.99" gradientTransform="matrix(0, -15.85, 74.87, 0, -208873.52, -33210.37)" gradientUnits="userSpaceOnUse"><stop offset="0" stop-color="#101626"/><stop offset="1"/></linearGradient><clipPath id="f2fa8dbe-1a16-42a1-9c79-099efd1275e9"><polygon class="f3974c90-0068-499d-b2cb-19d5b31789a9" points="4.94 31.38 4.94 38.03 44.13 38.03 318.39 38.03 318.39 31.38 4.94 31.38"/></clipPath><mask id="a10d79df-ed51-41d5-83a6-ceeb42f004d4" x="4.94" y="31.38" width="313.45" height="6.65" maskUnits="userSpaceOnUse"><rect class="bbbf809b-54c6-4d22-8074-66c3d92bbb8a" x="4.94" y="31.38" width="313.45" height="6.65"/></mask><linearGradient id="ba6d1e63-191c-4c91-8f7b-d3b1dfb0b4a4" x1="-2097.63" y1="2791.99" x2="-2097.22" y2="2791.99" xlink:href="#a425e925-78b0-4ebd-ac95-acc05e934226"/><mask id="acd0704d-e2aa-4bcd-90fb-10e81beebf5b" x="4.94" y="31.35" width="313.46" height="6.71" maskUnits="userSpaceOnUse"><rect x="4.94" y="31.35" width="313.45" height="6.71"/><g class="aa04a489-beb7-4e45-ac2c-9b388a17fd02"><rect x="4.94" y="31.38" width="313.45" height="6.65"/><g class="a09185ac-729a-4077-9b1c-26a5e0497100"><rect class="ae40917c-13f8-4251-ae8e-03e0bf810791" x="4.94" y="31.36" width="313.45" height="6.68"/></g></g></mask><clipPath id="e60370cb-6578-4d39-8b90-72d03f3fb8c2"><rect class="f3974c90-0068-499d-b2cb-19d5b31789a9" x="4.94" y="31.38" width="313.45" height="6.65"/></clipPath><mask id="ac2a3da3-2bd2-4d36-818a-95bd785ba218" x="4.94" y="31.38" width="313.45" height="6.65" maskUnits="userSpaceOnUse"><rect class="eaa4ef07-42f0-4b9a-a3ea-3ee21e2247aa" x="4.94" y="31.38" width="313.45" height="6.65"/></mask><linearGradient id="e5d4759b-4326-4140-ae71-9217014e889c" x1="-2097.63" y1="2791.99" x2="-2097.22" y2="2791.99" xlink:href="#a425e925-78b0-4ebd-ac95-acc05e934226"/><clipPath id="ad21474c-7a1e-45b1-ada1-28abf85abb4e"><rect class="f3974c90-0068-499d-b2cb-19d5b31789a9" x="7.54" y="31.38" width="310.86" height="6.65"/></clipPath><mask id="b5c005fc-677d-4286-b7bf-f90034b0204d" x="7.53" y="31.35" width="310.86" height="6.71" maskUnits="userSpaceOnUse"><rect class="b2c3406e-d9c3-401e-bc51-49fc19e78476" x="7.53" y="31.36" width="310.86" height="6.68"/></mask><linearGradient id="ae89a1b5-ca71-4a39-8f0b-c7f719341ee2" x1="-2419.98" y1="2791.86" x2="-2419.56" y2="2791.86" gradientTransform="matrix(0.02, 15.92, 75.19, 0, -209712.47, 38561.88)" xlink:href="#a425e925-78b0-4ebd-ac95-acc05e934226"/><mask id="abb69efd-c3f2-47c2-b62b-dcf40b888a65" x="4.94" y="76.14" width="313.35" height="6.71" maskUnits="userSpaceOnUse"><rect x="4.94" y="76.14" width="313.35" height="6.71"/><g class="aa04a489-beb7-4e45-ac2c-9b388a17fd02"><rect x="4.94" y="76.16" width="313.35" height="6.65"/><rect class="bbb19f5a-adcf-44eb-817d-a198864da9db" x="4.94" y="76.16" width="313.35" height="6.65"/></g></mask><clipPath id="febdf8d9-fc1a-49e6-99d1-59c23253794a"><rect class="f3974c90-0068-499d-b2cb-19d5b31789a9" x="4.94" y="76.14" width="313.35" height="6.71"/></clipPath><clipPath id="a1e48c82-f428-4e4d-98f2-c3a976c927e9"><rect class="f3974c90-0068-499d-b2cb-19d5b31789a9" x="4.94" y="76.16" width="313.35" height="6.65"/></clipPath><mask id="a0b18d13-9808-4de0-a761-8f831ff37a7e" x="4.94" y="76.16" width="313.35" height="6.65" maskUnits="userSpaceOnUse"><rect class="bd3c519f-11b1-4ec9-9e56-7076fefa6251" x="4.94" y="76.16" width="313.35" height="6.65"/></mask><linearGradient id="b20eb806-98f0-4c7b-baaa-f4cb4f4eabde" x1="-2100.46" y1="2791.99" x2="-2100.04" y2="2791.99" xlink:href="#a425e925-78b0-4ebd-ac95-acc05e934226"/><clipPath id="b2e77f06-b66e-4cd5-a555-b06444589f0a"><polygon class="f3974c90-0068-499d-b2cb-19d5b31789a9" points="4.94 76.17 4.94 82.82 44.11 82.82 318.29 82.82 318.29 76.17 4.94 76.17"/></clipPath><mask id="b20ff1ec-408c-49f6-9020-08aa2f335ecc" x="4.94" y="76.16" width="313.35" height="6.65" maskUnits="userSpaceOnUse"><rect class="be318eb1-13b0-459e-b165-51646c00af2b" x="4.94" y="76.16" width="313.35" height="6.65"/></mask><linearGradient id="efcf2a60-15bc-412f-9a71-c32032e14390" x1="-2100.46" y1="2791.99" x2="-2100.04" y2="2791.99" xlink:href="#a425e925-78b0-4ebd-ac95-acc05e934226"/><mask id="b6500312-9f79-457f-8100-4e226de8b05b" x="4.94" y="76.14" width="313.35" height="6.71" maskUnits="userSpaceOnUse"><rect x="4.94" y="76.14" width="313.35" height="6.71"/><g class="aa04a489-beb7-4e45-ac2c-9b388a17fd02"><rect x="4.94" y="76.16" width="313.35" height="6.65"/><g class="a9c07031-d9a6-4cef-9576-2928e3217e7a"><rect class="e07079c7-a1cc-4b03-82d7-fd05ac4b2b7f" x="4.94" y="76.15" width="313.35" height="6.68"/></g></g></mask><clipPath id="f642bced-0c65-4a5a-aff9-caad04da7dff"><rect class="f3974c90-0068-499d-b2cb-19d5b31789a9" x="4.94" y="76.16" width="313.35" height="6.65"/></clipPath><mask id="b54baff7-3b96-4b40-a42c-e4734fbeac6c" x="4.94" y="76.16" width="313.35" height="6.65" maskUnits="userSpaceOnUse"><rect class="bb4e262e-4e1b-4dde-a408-2bfb9e95b000" x="4.94" y="76.16" width="313.35" height="6.65"/></mask><linearGradient id="a733f501-5704-47f7-9c81-3117d291fb96" x1="-2100.46" y1="2791.99" x2="-2100.04" y2="2791.99" xlink:href="#a425e925-78b0-4ebd-ac95-acc05e934226"/><clipPath id="b0cdaeca-b565-42b6-b1cb-1b37fc79ac03"><rect class="f3974c90-0068-499d-b2cb-19d5b31789a9" x="7.54" y="76.16" width="310.75" height="6.65"/></clipPath><mask id="eb2ec3a3-db2f-4af2-992c-1d9a92ca5ed5" x="7.53" y="76.14" width="310.76" height="6.71" maskUnits="userSpaceOnUse"><rect class="b2b6e768-145d-48e6-a453-9b52f8fc7ffd" x="7.53" y="76.15" width="310.76" height="6.68"/></mask><linearGradient id="ecfec68d-cab3-4df7-97db-890cdb1a9ff6" x1="-2417.16" y1="2791.86" x2="-2416.74" y2="2791.86" gradientTransform="matrix(0.02, 15.92, 75.19, 0, -209712.47, 38561.88)" xlink:href="#a425e925-78b0-4ebd-ac95-acc05e934226"/><clipPath id="b2507f22-d4cd-4d34-8557-c1ccec62b105"><rect class="f3974c90-0068-499d-b2cb-19d5b31789a9" x="5.16" y="103.22" width="312.54" height="0.51"/></clipPath></defs><title>Макеты (5)</title><path class="f7f3442f-24e0-4fea-90a6-f287df1961fc" d="M312.24,115.14H11.42l-6-6V17.72H318.24v91.42Z"/><g class="b1ab1861-1e83-45ee-ae13-70673514ba19"><g class="b84ff2d5-ae51-4359-b29b-d31b8d2185a1"><rect class="b49e378a-4a6e-472d-aa06-83fe5898e048" x="5" y="32.06" width="313.02" height="13.27"/></g></g><path class="ba3f6bb5-fd06-40f1-9351-1ed7f03c4fa0" d="M312.28.6H11.21l-6,6v9.46H318.28V6.6Z"/><text class="e6108d6a-541f-4615-8611-96f605dd2544" transform="translate(140.95 6.17)">Дата начала<tspan x="0.87" y="5.83">колибровки</tspan></text><text class="e6108d6a-541f-4615-8611-96f605dd2544" transform="translate(280.92 6.48)">Действия с<tspan x="-3.51" y="5.83">калибровками</tspan></text><text class="e6108d6a-541f-4615-8611-96f605dd2544" transform="translate(211.72 6.17)">Дата окончания<tspan x="4.83" y="5.83">колибровки</tspan></text><text class="e6108d6a-541f-4615-8611-96f605dd2544" transform="translate(42.29 9.86)">Наименование</text><text class="e5a0be2b-c1c2-4b01-b2a1-ce312bbc8304" transform="translate(33.14 25.87)">Цех №1</text><g class="b1ab1861-1e83-45ee-ae13-70673514ba19"><g class="af5af76a-e584-4f56-9da7-0cbfac285e65"><rect class="b49e378a-4a6e-472d-aa06-83fe5898e048" x="5" y="46.9" width="313.28" height="13.27"/></g></g><g class="b1ab1861-1e83-45ee-ae13-70673514ba19"><g class="a09ac76f-3770-47ab-9a83-e0521ac495f4"><rect class="b49e378a-4a6e-472d-aa06-83fe5898e048" x="5" y="76.58" width="313.28" height="13.27"/></g></g><text class="a90e2a40-8897-40d0-8c47-3895cce72a44" transform="translate(207.64 40.15)">25.02.2019 12.23</text><text class="a90e2a40-8897-40d0-8c47-3895cce72a44" transform="translate(132.91 40.15)">25.02.2019 12.23</text><text class="aaf41c87-bd66-4338-8b40-ec24f1b92ebd" transform="translate(23.36 40.09)">Резервуар №156</text><g class="bd74e156-d075-46aa-bf46-0f46bc245021"><g class="b5c522f0-6032-4e28-bc10-f38f830b301e"><line class="bcb4fcab-25e2-4e34-8150-29b996b24e2f" x1="115.25" y1="31.36" x2="115.25" y2="59.96"/></g></g><g class="bd74e156-d075-46aa-bf46-0f46bc245021"><g class="e643f65a-129c-4c21-802c-e6cf813a44e0"><line class="bcb4fcab-25e2-4e34-8150-29b996b24e2f" x1="193.13" y1="31.36" x2="193.13" y2="59.96"/></g></g><g class="bd74e156-d075-46aa-bf46-0f46bc245021"><g class="bd8a41ea-e421-4340-b403-3b51be6f19ce"><line class="bcb4fcab-25e2-4e34-8150-29b996b24e2f" x1="266.69" y1="31.36" x2="266.69" y2="59.96"/></g></g><g class="bd74e156-d075-46aa-bf46-0f46bc245021"><g class="a0ff5dfa-5085-42bb-a459-bd71e43b91a6"><line class="bcb4fcab-25e2-4e34-8150-29b996b24e2f" x1="115.25" y1="76.69" x2="115.25" y2="90.72"/></g></g><g class="bd74e156-d075-46aa-bf46-0f46bc245021"><g class="f8370ef4-b956-4635-aed5-e3358e654cdf"><line class="bcb4fcab-25e2-4e34-8150-29b996b24e2f" x1="193.13" y1="76.69" x2="193.13" y2="90.72"/></g></g><g class="bd74e156-d075-46aa-bf46-0f46bc245021"><g class="eb31135e-9827-438e-993b-4bb156c0b101"><line class="bcb4fcab-25e2-4e34-8150-29b996b24e2f" x1="266.69" y1="76.69" x2="266.69" y2="90.72"/></g></g><g class="ae7a545a-6518-4d9f-b3b3-1b66b752948c"><g class="fb1a7385-76af-48df-bd57-d550b15d0a4c"><g class="a15b197b-5ac6-4930-b050-3dbbdb74c47c"><g class="f2f86b00-442a-4149-b83e-1372869f1c38"><g class="bd7f3018-1cb7-4816-b0fa-82c6ad765211"><rect class="ec1f2c1f-581a-4930-81f9-d42d5ccc57df" x="4.94" y="31.38" width="313.45" height="6.65"/></g></g><g class="bdd493a6-4ba3-4b48-8776-33a03e9779c8"><g class="e8a37e98-a333-4124-80ba-66b98088adc6"><rect class="b9762cbb-96dd-4bfe-9b0c-5693e5367ce9" x="4.94" y="31.38" width="313.45" height="6.65"/></g></g><g class="bdd493a6-4ba3-4b48-8776-33a03e9779c8"><g class="ab5a16e3-11fb-479f-a412-f3dae35f9dd9"><g class="a15b197b-5ac6-4930-b050-3dbbdb74c47c"><g class="f2f86b00-442a-4149-b83e-1372869f1c38"><g class="bd7f3018-1cb7-4816-b0fa-82c6ad765211"><rect class="ec1f2c1f-581a-4930-81f9-d42d5ccc57df" x="4.94" y="31.38" width="313.45" height="6.65"/></g></g><g class="a2826153-2b13-4096-afe7-c810600c1f6a"><g class="f0f15309-35ee-4951-9a58-96ce649c4fae"><rect class="b1e971d4-1e99-4f46-a6c1-0b2e7b4566eb" x="4.94" y="31.38" width="313.45" height="6.65"/></g></g><g class="f10d7f94-7c90-49cb-a7d6-c24b7ae6c1b2"><g class="be3e9757-f485-47d6-973d-7582cbd3587a"><rect class="bcc6db59-bb8b-405d-9f98-aa66483e8355" x="7.53" y="31.36" width="310.86" height="6.68"/></g></g></g></g></g></g></g></g><rect class="febf41c6-0461-43c5-b860-244440f0630e" x="181.2" y="11.05" width="1.04" height="0.36"/><rect class="febf41c6-0461-43c5-b860-244440f0630e" x="181.2" y="9.53" width="2.3" height="0.36"/><rect class="febf41c6-0461-43c5-b860-244440f0630e" x="181.2" y="8.02" width="3.55" height="0.36"/><rect class="febf41c6-0461-43c5-b860-244440f0630e" x="181.2" y="6.51" width="4.8" height="0.36"/><rect class="febf41c6-0461-43c5-b860-244440f0630e" x="181.2" y="4.99" width="6.06" height="0.36"/><polygon class="febf41c6-0461-43c5-b860-244440f0630e" points="186.44 11.49 185.49 10.54 185.74 10.28 186.25 10.79 186.25 8.61 186.62 8.61 186.62 10.79 187.13 10.28 187.38 10.54 186.44 11.49"/><path class="a9997b71-95be-4ea5-9b87-5ece9e9202ec" d="M255.6,4.56h1v.37h-1V4.56Zm5.41,0V6.75l.51-.51.26.25-.82.82-.13.13-.13-.13-.82-.82.26-.25.51.51V4.56Zm-5.41,6.06h6V11h-6v-.36Zm0-1.52h4.8v.37h-4.8V9.1Zm0-1.51h3.54V8H255.6V7.59Zm0-1.51h2.29v.36H255.6Z"/><rect class="af25154b-03a5-42d7-821c-ea9e276fb7de" x="192.95" y="44.85" width="73.39" height="0.85" transform="translate(459.28 90.56) rotate(180)"/><text class="a90e2a40-8897-40d0-8c47-3895cce72a44" transform="translate(207.64 55.25)">25.02.2019 12.23</text><text class="a90e2a40-8897-40d0-8c47-3895cce72a44" transform="translate(132.91 55.25)">25.02.2019 12.23</text><text class="aaf41c87-bd66-4338-8b40-ec24f1b92ebd" transform="translate(23.36 55.2)">Резервуар №156</text><rect class="af826e57-8c87-4932-998e-bf1091fa517a" x="192.95" y="60.5" width="73.39" height="0.85" transform="translate(459.28 121.85) rotate(180)"/><path class="e61a7ecb-4233-46b0-be8f-c9bbd2fec2c2" d="M25,22.8a.18.18,0,0,0-.12.05l-2,2a.18.18,0,0,0,0,.25.16.16,0,0,0,.24,0L25,23.22l1.86,1.86a.18.18,0,0,0,.25-.25l-2-2A.21.21,0,0,0,25,22.8"/><text class="e5a0be2b-c1c2-4b01-b2a1-ce312bbc8304" transform="translate(33.14 70.66)">Цех №2</text><g class="ff2b84fd-22bf-4177-97b9-d55772bec771"><g class="fb1a7385-76af-48df-bd57-d550b15d0a4c"><g class="ea3648a4-28cb-4c61-bcf6-be3f3a2aef82"><g class="abb9fbd2-9f72-4c46-8e86-d8501fdacb4e"><g class="ae1d8fe4-8644-4890-892b-86553a8f9b4c"><rect class="a2359c98-5045-401a-9cf2-fde344d2fe48" x="4.94" y="76.16" width="313.35" height="6.65"/></g></g><g class="b65f4675-ee25-4bd9-92c0-63a466a8c402"><g class="a32fcddf-6452-4248-8642-51b2dd83ce0a"><rect class="a586e18d-6119-4a51-871e-561f75b02b62" x="4.94" y="76.16" width="313.35" height="6.65"/></g></g><g class="b65f4675-ee25-4bd9-92c0-63a466a8c402"><g class="a9aafcb2-cb7e-485b-8a0e-0a03fed79173"><g class="ea3648a4-28cb-4c61-bcf6-be3f3a2aef82"><g class="abb9fbd2-9f72-4c46-8e86-d8501fdacb4e"><g class="ae1d8fe4-8644-4890-892b-86553a8f9b4c"><rect class="a2359c98-5045-401a-9cf2-fde344d2fe48" x="4.94" y="76.16" width="313.35" height="6.65"/></g></g><g class="a6d6f258-9bf5-43e4-b9c7-63728693c921"><g class="ba6df979-303c-4770-b7f3-9cec43b18d96"><rect class="afb4d3b0-888d-4e8e-9f9a-bd6b2767beea" x="4.94" y="76.16" width="313.35" height="6.65"/></g></g><g class="bfda56d9-cf89-4f97-933e-e81aed530828"><g class="ae578835-bdb6-421f-b0de-8b792058630e"><rect class="bf35554f-eab1-428e-acc6-a09561a7c0df" x="7.53" y="76.15" width="310.76" height="6.68"/></g></g></g></g></g></g></g></g><path class="e61a7ecb-4233-46b0-be8f-c9bbd2fec2c2" d="M25,67.59a.15.15,0,0,0-.12,0l-2,2a.18.18,0,0,0,0,.25.16.16,0,0,0,.24,0L25,68l1.86,1.86a.18.18,0,0,0,.25-.25l-2-2a.17.17,0,0,0-.13,0"/><text class="a90e2a40-8897-40d0-8c47-3895cce72a44" transform="translate(207.64 85.47)">25.02.2019 12.23</text><text class="a90e2a40-8897-40d0-8c47-3895cce72a44" transform="translate(132.91 85.47)">25.02.2019 12.23</text><text class="aaf41c87-bd66-4338-8b40-ec24f1b92ebd" transform="translate(23.36 85.42)">Резервуар №156</text><rect class="a8ea6d22-6824-40f3-8732-f90522b914ec" x="192.95" y="90.18" width="73.39" height="0.85" transform="translate(459.28 181.21) rotate(180)"/><text class="e5a0be2b-c1c2-4b01-b2a1-ce312bbc8304" transform="translate(33.14 98.72)">Цех №3</text><path class="e61a7ecb-4233-46b0-be8f-c9bbd2fec2c2" d="M25,98a.21.21,0,0,0,.13,0l2-2a.16.16,0,0,0,0-.24.18.18,0,0,0-.25,0L25,97.56,23.15,95.7a.17.17,0,1,0-.24.24l2,2A.18.18,0,0,0,25,98"/><text class="e5a0be2b-c1c2-4b01-b2a1-ce312bbc8304" transform="translate(33.14 111.74)">Цех №4</text><path class="e61a7ecb-4233-46b0-be8f-c9bbd2fec2c2" d="M25,111a.21.21,0,0,0,.13-.05l2-2a.16.16,0,0,0,0-.24.18.18,0,0,0-.25,0L25,110.58l-1.86-1.85a.17.17,0,1,0-.24.24l2,2A.18.18,0,0,0,25,111"/><g class="bd74e156-d075-46aa-bf46-0f46bc245021"><g class="fe9041d3-5fc4-4d3b-88f9-7249fc2aca2b"><line class="bcb4fcab-25e2-4e34-8150-29b996b24e2f" x1="317.7" y1="103.48" x2="5.16" y2="103.48"/></g></g><g id="b4e1fd51-e284-4b4d-8b56-ef015c2a797f" data-name="f844d881-fd18-44b4-bcc5-c048e536b221"><g id="ada93bc4-b315-4207-a16f-448f91d5dcf2" data-name="f70d79eb-a779-4aed-a188-b9f31beee2a5"><path class="b94bcaf5-f0a3-4ab5-a048-474249b1eda1" d="M280.69,43.4h5.55a3,3,0,0,0,.74-5.83h0a4.08,4.08,0,0,0-1.19-2.2,4.13,4.13,0,0,0-5.85.1,4,4,0,0,0-.65.88h-.06a2.63,2.63,0,0,0-2.59,2.3h0a2.44,2.44,0,0,0,.84,4.75h3m0-.82h-3a1.62,1.62,0,0,1,0-3.24h0a2.58,2.58,0,0,1,0-.38,1.82,1.82,0,0,1,1.81-1.82h0a1.76,1.76,0,0,1,.55.09h0a3.3,3.3,0,0,1,6.44,1h0a2.21,2.21,0,0,1-.17,4.38h-5.62"/><path class="b94bcaf5-f0a3-4ab5-a048-474249b1eda1" d="M281.44,39.74l1.18,1.5a.23.23,0,0,0,.33,0l0,0,1.18-1.5a.22.22,0,0,0,0-.32.22.22,0,0,0-.15-.06h-.52V37.55a.23.23,0,0,0-.18-.22h-.92a.22.22,0,0,0-.22.22v1.81h-.52a.23.23,0,0,0-.24.23A.22.22,0,0,0,281.44,39.74Z"/></g></g><g id="b3eac82c-0e36-44a7-a93d-ac96b885ce52" data-name="f844d881-fd18-44b4-bcc5-c048e536b221"><g id="f03c6126-23c0-4ced-a11b-866e4434fa94" data-name="f70d79eb-a779-4aed-a188-b9f31beee2a5"><path class="b94bcaf5-f0a3-4ab5-a048-474249b1eda1" d="M304.46,43.4H310a3,3,0,0,0,.74-5.83h0a4.14,4.14,0,0,0-7-2.1,3.71,3.71,0,0,0-.65.88H303a2.63,2.63,0,0,0-2.59,2.3h0a2.44,2.44,0,0,0,.84,4.75h3m0-.82h-3a1.62,1.62,0,0,1,0-3.24h0a2.58,2.58,0,0,1,0-.38A1.82,1.82,0,0,1,303,37.14h0a1.76,1.76,0,0,1,.55.09h0a3.3,3.3,0,0,1,6.44,1h0a2.21,2.21,0,0,1-.17,4.38h-5.62"/><path class="b94bcaf5-f0a3-4ab5-a048-474249b1eda1" d="M307.93,38.91l-1.18-1.5a.24.24,0,0,0-.34,0s0,0,0,0l-1.19,1.5a.25.25,0,0,0,0,.33.24.24,0,0,0,.16,0h.52v1.82a.22.22,0,0,0,.18.22H307a.24.24,0,0,0,.22-.22V39.29h.52a.22.22,0,0,0,.23-.22A.19.19,0,0,0,307.93,38.91Z"/></g></g><g id="aa916722-dbd0-41f8-b183-4aea9a701e20" data-name="f844d881-fd18-44b4-bcc5-c048e536b221"><g id="bfe339af-7fdf-46fd-9a07-aaa5ac7c063c" data-name="f70d79eb-a779-4aed-a188-b9f31beee2a5"><path class="b94bcaf5-f0a3-4ab5-a048-474249b1eda1" d="M280.69,57.77h5.55a3,3,0,0,0,.74-5.84h0a4.14,4.14,0,0,0-7-2.1,4.32,4.32,0,0,0-.65.89h-.06a2.62,2.62,0,0,0-2.59,2.3h0a2.44,2.44,0,0,0,.84,4.75h3m0-.82h-3a1.62,1.62,0,0,1,0-3.24h0a2.58,2.58,0,0,1,0-.39,1.81,1.81,0,0,1,1.81-1.81h0a1.76,1.76,0,0,1,.55.09h0a3.3,3.3,0,0,1,6.44.95h0a2.21,2.21,0,0,1-.17,4.39h-5.62"/><path class="b94bcaf5-f0a3-4ab5-a048-474249b1eda1" d="M281.44,54.11l1.18,1.5a.24.24,0,0,0,.33,0l0,0,1.18-1.5a.24.24,0,0,0,0-.33.27.27,0,0,0-.15-.05h-.52V51.91a.22.22,0,0,0-.18-.21h-.92a.22.22,0,0,0-.22.21v1.82h-.52a.23.23,0,0,0-.24.22A.23.23,0,0,0,281.44,54.11Z"/></g></g><g id="bfda205b-cd59-4bd5-a084-b0db4785f4ea" data-name="f844d881-fd18-44b4-bcc5-c048e536b221"><g id="e8b80e4e-a1a9-483e-98e6-e109a7f42298" data-name="f70d79eb-a779-4aed-a188-b9f31beee2a5"><path class="b94bcaf5-f0a3-4ab5-a048-474249b1eda1" d="M304.46,57.77H310a3,3,0,0,0,.74-5.84h0a4.18,4.18,0,0,0-1.19-2.2,4.14,4.14,0,0,0-5.85.1,4,4,0,0,0-.65.89H303a2.62,2.62,0,0,0-2.59,2.3h0a2.44,2.44,0,0,0,.84,4.75h3m0-.82h-3a1.62,1.62,0,0,1,0-3.24h0a2.58,2.58,0,0,1,0-.39A1.81,1.81,0,0,1,303,51.51h0a1.76,1.76,0,0,1,.55.09h0a3.3,3.3,0,0,1,6.44.95h0a2.21,2.21,0,0,1-.17,4.39h-5.62"/><path class="b94bcaf5-f0a3-4ab5-a048-474249b1eda1" d="M307.93,53.28l-1.18-1.5a.25.25,0,0,0-.34,0l0,0-1.19,1.5a.25.25,0,0,0,0,.33.3.3,0,0,0,.16,0h.52v1.82a.21.21,0,0,0,.18.21H307a.22.22,0,0,0,.22-.21V53.66h.52a.23.23,0,0,0,.23-.22A.18.18,0,0,0,307.93,53.28Z"/></g></g><g id="b06079b6-154b-415d-b140-698eef0c9e71" data-name="f844d881-fd18-44b4-bcc5-c048e536b221"><g id="fa282e1a-5545-40ff-b99f-504448f40d11" data-name="f70d79eb-a779-4aed-a188-b9f31beee2a5"><path class="b94bcaf5-f0a3-4ab5-a048-474249b1eda1" d="M280.69,87.63c.06,0,5.49,0,5.55,0a3,3,0,0,0,.74-5.84h0a4.13,4.13,0,0,0-7-2.09,4,4,0,0,0-.65.88h-.06a2.63,2.63,0,0,0-2.59,2.3h0a2.44,2.44,0,0,0,.84,4.75h3m0-.82h-3a1.62,1.62,0,0,1,0-3.24h0a2.58,2.58,0,0,1,0-.39,1.81,1.81,0,0,1,1.81-1.81h0a1.76,1.76,0,0,1,.55.09h0a3.3,3.3,0,0,1,6.44,1h0a2.21,2.21,0,0,1-.17,4.38h-5.62"/><path class="b94bcaf5-f0a3-4ab5-a048-474249b1eda1" d="M281.44,84l1.18,1.5a.24.24,0,0,0,.33,0l0,0,1.18-1.5a.22.22,0,0,0,0-.32.22.22,0,0,0-.15-.06h-.52V81.78a.23.23,0,0,0-.18-.22h-.92a.22.22,0,0,0-.22.22v1.81h-.52a.23.23,0,0,0-.24.23A.22.22,0,0,0,281.44,84Z"/></g></g><g id="e1db83b3-68c9-4bdd-937d-ecee85e49924" data-name="f844d881-fd18-44b4-bcc5-c048e536b221"><g id="bb2d9f81-8a7f-4bb0-9600-bff558fafa03" data-name="f70d79eb-a779-4aed-a188-b9f31beee2a5"><path class="b94bcaf5-f0a3-4ab5-a048-474249b1eda1" d="M304.46,87.63c.06,0,5.49,0,5.55,0a3,3,0,0,0,.74-5.84h0a4.22,4.22,0,0,0-1.19-2.2,4.14,4.14,0,0,0-5.85.11,3.71,3.71,0,0,0-.65.88H303a2.63,2.63,0,0,0-2.59,2.3h0a2.44,2.44,0,0,0,.84,4.75h3m0-.82h-3a1.62,1.62,0,0,1,0-3.24h0a2.58,2.58,0,0,1,0-.39A1.81,1.81,0,0,1,303,81.37h0a1.76,1.76,0,0,1,.55.09h0a3.3,3.3,0,0,1,6.44,1h0a2.21,2.21,0,0,1-.17,4.38h-5.62"/><path class="b94bcaf5-f0a3-4ab5-a048-474249b1eda1" d="M307.93,83.14l-1.18-1.5a.25.25,0,0,0-.34,0l0,0-1.19,1.5a.25.25,0,0,0,0,.33.3.3,0,0,0,.16,0h.52v1.82a.23.23,0,0,0,.18.22H307a.24.24,0,0,0,.22-.22V83.52h.52a.22.22,0,0,0,.23-.22A.19.19,0,0,0,307.93,83.14Z"/></g></g></svg>