<svg width="88" height="116" viewBox="0 0 88 116" fill="none" xmlns="http://www.w3.org/2000/svg">
<path d="M87.0556 24.3191C86.2407 16.0649 78.9237 8.79884 66.9686 4.38146C66.7988 4.32035 66.6291 4.25923 66.4661 4.2083C59.6753 1.76023 51.8354 0.473389 43.7782 0.473389C25.5383 0.473389 9.53248 6.92459 3.00998 16.89C0.860705 20.2514 -0.00850937 23.7758 0.358191 27.2595C0.487709 28.6271 0.807705 29.97 1.3089 31.249C2.555 34.5392 4.93176 37.7002 8.39164 40.5422C16.6458 47.231 29.521 51.0678 43.7035 51.0678C44.7221 51.0678 45.7407 51.044 46.7593 50.9999C47.0412 50.9999 47.3196 50.9829 47.5946 50.9592C52.177 50.7409 56.7264 50.0687 61.1761 48.9525V48.1105C57.7434 49.1291 52.029 49.9304 47.5946 50.1714H47.4214H47.177C47.0384 50.1878 46.8989 50.1958 46.7593 50.1952C45.7407 50.2382 44.7221 50.2609 43.7035 50.2631C34.5666 50.2631 25.8744 48.6198 18.554 45.5096C18.3844 45.4528 18.2188 45.3847 18.0583 45.3059C14.1909 43.632 4.88083 38.8818 1.97778 30.7058C1.57731 29.597 1.30947 28.4448 1.17987 27.2731C1.02977 25.9381 1.07553 24.5883 1.31569 23.2665C1.65522 21.4105 2.32203 19.6297 3.285 18.0071C7.47149 10.8768 15.9531 6.90422 20.6286 5.16919C27.2258 2.64643 35.395 1.2713 43.6424 1.2713C55.095 1.2713 65.8345 3.83141 73.885 8.50684C78.0579 10.9311 84.7502 15.885 86.0438 23.2122C86.2048 24.0514 86.2844 24.9042 86.2815 25.7587C86.2816 26.2649 86.251 26.7706 86.1898 27.2731C86.0722 28.3128 85.8445 29.3372 85.5107 30.3289C85.2936 30.9857 85.0338 31.6276 84.7332 32.2507C82.971 35.9516 79.7182 39.381 75.2261 42.1855C74.9783 42.3451 74.727 42.4979 74.469 42.6473L74.3909 42.6948C74.2245 42.8001 74.0513 42.8986 73.868 43.0072C71.765 44.2202 69.5693 45.2647 67.3013 46.1309C67.0195 46.2362 66.7377 46.3517 66.4559 46.4399V47.3159C66.7377 47.2107 67.0195 47.1088 67.3013 46.9968C69.7192 46.094 72.0595 44.9959 74.2992 43.7134L74.3909 43.6523L74.4282 43.6218C74.5021 43.5882 74.5735 43.5496 74.6421 43.5063C74.8391 43.3943 75.0394 43.272 75.2261 43.1668C79.5281 40.5218 82.7367 37.4524 84.7332 34.1215C85.0425 33.6116 85.3225 33.0845 85.5718 32.5427C85.7314 32.2031 85.874 31.8636 86.0098 31.5241C86.9282 29.2355 87.2833 26.7599 87.0454 24.3055L87.0556 24.3191Z" fill="#FEFBF2"/>
<path d="M87.0494 27.3975C87.0529 27.3853 87.0529 27.3724 87.0494 27.3602C86.9067 25.9433 86.5732 24.5522 86.058 23.2246C83.5861 16.7191 76.8667 11.1167 66.9726 7.4667C66.8062 7.39879 66.6331 7.33428 66.4701 7.27995C59.6793 4.83868 51.8394 3.54504 43.7822 3.54504C25.5423 3.54504 9.5331 9.99625 3.01059 19.9617C2.33391 21.0047 1.76509 22.1139 1.3129 23.2721C0.813526 24.5481 0.488049 25.8854 0.345224 27.2481C-0.265943 32.9931 2.48431 38.7754 8.37867 43.6172C16.6362 50.3095 29.5115 54.1429 43.7109 54.1429C49.3123 54.1608 54.8964 53.5203 60.3482 52.2347L60.5485 52.1871L61.068 52.0649L61.1937 52.0309V51.1753C61.119 51.1991 61.0443 51.2228 60.9696 51.2398C60.8035 51.2931 60.6346 51.3373 60.4637 51.3722C60.4229 51.3722 60.3924 51.396 60.3482 51.4028C60.2534 51.4317 60.157 51.4556 60.0596 51.4741C54.7012 52.731 49.2147 53.36 43.7109 53.3483C34.5638 53.3483 25.8784 51.7118 18.5614 48.6118C18.3984 48.5473 18.2219 48.476 18.0657 48.3979C14.1983 46.7342 4.88483 41.9739 1.98179 33.7978C1.6816 32.9692 1.45438 32.116 1.30272 31.2479C1.07781 29.9391 1.03894 28.6051 1.18728 27.2855C1.44511 25.1001 2.16005 22.9934 3.28562 21.1025C7.4755 13.9722 15.9571 9.99285 20.6326 8.268C27.2298 5.74864 35.4024 4.35993 43.643 4.35993C55.099 4.35993 65.8419 6.93362 73.8924 11.5955C78.2384 14.1284 85.3483 19.4252 86.1904 27.2855C86.2536 27.8071 86.2842 28.3321 86.2821 28.8575C86.2801 29.7603 86.1914 30.6608 86.0172 31.5467C84.9816 36.891 80.9004 41.9671 74.422 45.8072L73.8924 46.123C71.7901 47.3367 69.5929 48.3779 67.3223 49.2365C67.0405 49.3554 66.7587 49.4572 66.4769 49.5489V50.4215C66.7587 50.3197 67.0405 50.2178 67.3223 50.1092C69.7426 49.2067 72.0833 48.1039 74.3202 46.8123L74.4526 46.7342C74.5251 46.6984 74.5944 46.6563 74.6597 46.6085C83.362 41.451 87.7692 34.6229 87.0494 27.3975Z" fill="#FEFBF2"/>
<path d="M43.7007 7.67363C43.6462 7.67453 43.592 7.66457 43.5414 7.64433C43.4908 7.62409 43.4447 7.59396 43.4058 7.55572C43.3669 7.51748 43.3361 7.47189 43.315 7.4216C43.2939 7.3713 43.2831 7.31732 43.2831 7.26279V0.472046H44.1183V7.26279C44.1179 7.31719 44.1067 7.37097 44.0855 7.42105C44.0643 7.47114 44.0334 7.51656 43.9946 7.55471C43.9558 7.59286 43.9099 7.623 43.8595 7.6434C43.8091 7.66381 43.7551 7.67408 43.7007 7.67363Z" fill="#FEFBF2"/>
<path d="M47.5988 50.1669V57.0832C47.5984 57.1372 47.5872 57.1905 47.5658 57.24C47.5445 57.2895 47.5134 57.3343 47.4745 57.3716C47.4356 57.409 47.3896 57.4382 47.3392 57.4574C47.2888 57.4767 47.2351 57.4857 47.1812 57.4839C47.073 57.4848 46.9688 57.4435 46.8908 57.3686C46.8128 57.2937 46.7671 57.1913 46.7635 57.0832V50.2042C46.9031 50.2048 47.0426 50.1968 47.1812 50.1804H47.4256L47.5988 50.1669Z" fill="#FEFBF2"/>
<path d="M61.1869 48.0989V54.8081C61.1869 54.9198 61.1425 55.0269 61.0636 55.1058C60.9846 55.1848 60.8775 55.2292 60.7659 55.2292C60.6542 55.2292 60.5471 55.1848 60.4682 55.1058C60.3892 55.0269 60.3448 54.9198 60.3448 54.8081V48.3332C60.5248 48.289 60.8983 48.1872 61.1869 48.0989Z" fill="#FEFBF2"/>
<path d="M75.2474 42.2081V49.3384C75.2447 49.4489 75.1987 49.5539 75.1193 49.6307C75.0399 49.7076 74.9335 49.7502 74.8229 49.7493C74.7143 49.7484 74.6103 49.7048 74.5334 49.6279C74.4566 49.5511 74.413 49.4471 74.4121 49.3384V42.7174C74.4121 42.7174 74.8671 42.4526 75.2474 42.2081Z" fill="#FEFBF2"/>
<path d="M67.3225 46.1504V52.9411C67.313 53.0467 67.2644 53.1449 67.1862 53.2164C67.1079 53.288 67.0058 53.3276 66.8998 53.3276C66.7938 53.3276 66.6916 53.288 66.6134 53.2164C66.5352 53.1449 66.4865 53.0467 66.4771 52.9411V46.4662C66.7589 46.3711 67.0407 46.259 67.3225 46.1504Z" fill="#FEFBF2"/>
<path d="M85.5699 30.3582V39.159C85.5672 39.2683 85.5214 39.3721 85.4426 39.4478C85.3637 39.5235 85.2581 39.5649 85.1488 39.5631C85.0948 39.5644 85.041 39.555 84.9906 39.5354C84.9402 39.5157 84.8942 39.4862 84.8553 39.4486C84.8165 39.411 84.7855 39.366 84.7641 39.3163C84.7428 39.2666 84.7316 39.2131 84.7312 39.159V32.2732C85.0319 31.6502 85.2916 31.0082 85.5087 30.3514L85.5699 30.3582Z" fill="#FEFBF2"/>
<path d="M83.3277 23.0211C83.2184 23.022 83.1132 22.9797 83.0349 22.9033C82.9567 22.827 82.9118 22.7229 82.91 22.6136V14.8688L83.2088 15.2321C83.382 15.4494 83.5484 15.6803 83.7181 15.9112L83.7453 15.9485V22.6136C83.7453 22.668 83.7344 22.7218 83.7133 22.7719C83.6922 22.822 83.6613 22.8674 83.6224 22.9054C83.5834 22.9434 83.5373 22.9731 83.4867 22.993C83.4361 23.0129 83.382 23.0224 83.3277 23.0211Z" fill="#FEFBF2"/>
<path d="M76.3342 16.2269C76.2801 16.2278 76.2264 16.2179 76.1761 16.1978C76.1259 16.1778 76.0802 16.1479 76.0417 16.11C76.0031 16.072 75.9725 16.0268 75.9516 15.9769C75.9307 15.9271 75.9199 15.8735 75.9199 15.8194V8.79102L76.1746 8.95399C76.3511 9.06604 76.5141 9.17809 76.6873 9.29353L76.7416 9.33767V15.8092C76.743 15.8636 76.7334 15.9177 76.7136 15.9683C76.6937 16.0189 76.6639 16.065 76.6259 16.104C76.588 16.1429 76.5426 16.1738 76.4925 16.1949C76.4424 16.216 76.3885 16.2269 76.3342 16.2269Z" fill="#FEFBF2"/>
<path d="M66.6536 11.4498C66.5443 11.4507 66.4391 11.4084 66.3609 11.3321C66.2826 11.2558 66.2377 11.1516 66.236 11.0423V4.12598L66.4567 4.20068C66.6264 4.255 66.7962 4.31951 66.966 4.38403L67.0712 4.42477V11.0356C67.0712 11.0902 67.0604 11.1444 67.0394 11.1949C67.0183 11.2453 66.9875 11.2912 66.9487 11.3297C66.9099 11.3682 66.8638 11.3986 66.8132 11.4192C66.7625 11.4399 66.7083 11.4502 66.6536 11.4498Z" fill="#FEFBF2"/>
<path d="M55.1742 8.65877C55.1198 8.65922 55.0659 8.64895 55.0154 8.62855C54.965 8.60814 54.9191 8.578 54.8803 8.53985C54.8415 8.5017 54.8106 8.45629 54.7894 8.4062C54.7682 8.35611 54.757 8.30233 54.7566 8.24793V1.29761L54.9467 1.32477C55.1233 1.34854 55.2863 1.3723 55.4594 1.40286L55.5919 1.43003V8.22077C55.5956 8.27754 55.5876 8.33448 55.5682 8.38797C55.5488 8.44146 55.5185 8.49034 55.4793 8.53152C55.44 8.57269 55.3926 8.60527 55.3401 8.62717C55.2876 8.64908 55.2311 8.65984 55.1742 8.65877Z" fill="#FEFBF2"/>
<path d="M31.05 8.65887C30.9954 8.65977 30.9413 8.64981 30.8907 8.62957C30.84 8.60933 30.7939 8.57921 30.755 8.54097C30.7162 8.50273 30.6853 8.45713 30.6642 8.40684C30.6432 8.35655 30.6323 8.30256 30.6323 8.24803V1.63385L31.4676 1.47766V8.23445C31.469 8.28999 31.4591 8.34523 31.4387 8.3969C31.4183 8.44856 31.3877 8.49559 31.3487 8.53519C31.3098 8.57479 31.2632 8.60614 31.2119 8.62739C31.1606 8.64864 31.1055 8.65935 31.05 8.65887Z" fill="#FEFBF2"/>
<path d="M20.8261 11.4496C20.7171 11.4496 20.6123 11.407 20.5343 11.3309C20.4563 11.2548 20.4111 11.1511 20.4084 11.0421V4.40418L20.5069 4.36344C20.677 4.28913 20.8517 4.22562 21.0298 4.1733L21.2437 4.11218V11.0353C21.2437 11.09 21.2329 11.1442 21.2119 11.1947C21.1908 11.2451 21.16 11.2909 21.1212 11.3295C21.0824 11.368 21.0363 11.3984 20.9856 11.419C20.935 11.4396 20.8808 11.45 20.8261 11.4496Z" fill="#FEFBF2"/>
<path d="M11.465 16.2267C11.4111 16.2271 11.3575 16.2169 11.3075 16.1967C11.2575 16.1765 11.212 16.1466 11.1735 16.1087C11.135 16.0709 11.1044 16.0259 11.0833 15.9762C11.0623 15.9265 11.0512 15.8732 11.0508 15.8192V9.06582L11.1187 9.02168L11.6246 8.68214L11.8826 8.51917V15.8158C11.8831 15.8705 11.8726 15.9247 11.8517 15.9752C11.8308 16.0257 11.7999 16.0715 11.761 16.1098C11.722 16.1481 11.6757 16.1782 11.6249 16.1983C11.574 16.2184 11.5197 16.228 11.465 16.2267Z" fill="#FEFBF2"/>
<path d="M3.40115 23.89C3.34675 23.8904 3.2928 23.8802 3.24237 23.8597C3.19194 23.8393 3.14603 23.8092 3.10725 23.7711C3.06847 23.7329 3.03758 23.6875 3.01635 23.6374C2.99512 23.5873 2.98396 23.5335 2.98352 23.4791V16.9227L3.00729 16.8853C3.18045 16.6205 3.34683 16.3726 3.5132 16.1316L3.81539 15.7037V23.4791C3.81585 23.5335 3.80542 23.5874 3.78473 23.6377C3.76403 23.688 3.73348 23.7336 3.69488 23.7719C3.65627 23.8102 3.6104 23.8403 3.55995 23.8606C3.50951 23.8809 3.45551 23.8909 3.40115 23.89Z" fill="#FEFBF2"/>
<path d="M1.57486 37.5971C1.46558 37.598 1.36036 37.5557 1.28214 37.4794C1.20391 37.403 1.15901 37.2989 1.15723 37.1896V29.0306L1.49676 29C1.62755 29.5758 1.79425 30.1428 1.99588 30.6977V37.1727C1.99679 37.2284 1.98655 37.2837 1.96575 37.3354C1.94496 37.387 1.91403 37.434 1.8748 37.4736C1.83557 37.5131 1.78882 37.5444 1.73731 37.5656C1.6858 37.5868 1.63056 37.5975 1.57486 37.5971Z" fill="#FEFBF2"/>
<path d="M8.24642 46.6389C8.1359 46.6408 8.02909 46.5991 7.94905 46.5229C7.86901 46.4466 7.82215 46.342 7.8186 46.2315V38.9586L8.10042 39.2133C8.2634 39.3593 8.43996 39.4985 8.60633 39.6411L8.66066 39.6852V46.2315C8.66022 46.2855 8.64914 46.3388 8.62809 46.3885C8.60703 46.4381 8.57639 46.4832 8.53793 46.521C8.49946 46.5589 8.45392 46.5887 8.4039 46.609C8.35389 46.6292 8.30038 46.6394 8.24642 46.6389Z" fill="#FEFBF2"/>
<path d="M18.2488 52.71C18.1944 52.7114 18.1404 52.7018 18.0898 52.6819C18.0391 52.6621 17.993 52.6323 17.9541 52.5943C17.9152 52.5563 17.8842 52.511 17.8631 52.4609C17.842 52.4107 17.8312 52.3569 17.8312 52.3025V45.213L18.0723 45.3251C18.2304 45.4024 18.3925 45.4716 18.5578 45.5322L18.6664 45.5729V52.3025C18.6647 52.4118 18.6198 52.516 18.5415 52.5923C18.4633 52.6686 18.3581 52.7109 18.2488 52.71Z" fill="#FEFBF2"/>
<path d="M31.05 56.1937C30.9954 56.1946 30.9413 56.1846 30.8907 56.1644C30.84 56.1441 30.7939 56.114 30.755 56.0758C30.7162 56.0376 30.6853 55.992 30.6642 55.9417C30.6432 55.8914 30.6323 55.8374 30.6323 55.7829V49.0906L31.4676 49.2468V55.793C31.464 55.9011 31.4184 56.0035 31.3403 56.0784C31.2623 56.1533 31.1581 56.1946 31.05 56.1937Z" fill="#FEFBF2"/>
<path d="M62.7999 51.016V115.613C62.7904 115.719 62.7418 115.817 62.6636 115.888C62.5854 115.96 62.4832 115.999 62.3772 115.999C62.2712 115.999 62.169 115.96 62.0908 115.888C62.0126 115.817 61.9639 115.719 61.9545 115.613V51.2435L62.0767 51.2129C62.2431 51.1756 62.4162 51.1314 62.5792 51.0839L62.7999 51.016Z" fill="#FEFBF2"/>
<path d="M68.932 53.4943V54.3838L68.0899 54.6487L62.7999 56.36L61.9545 56.6248V55.7454L62.7999 55.4772L68.0899 53.7693L68.932 53.4943Z" fill="#FEFBF2"/>
<path d="M68.932 58.0408V58.9304L68.0899 59.1952L62.7999 60.9065L61.9545 61.1713V60.2885L62.7999 60.0237L68.0899 58.3124L68.932 58.0408Z" fill="#FEFBF2"/>
<path d="M68.932 62.5839V63.4734L68.0899 63.7383L62.7999 65.4496L61.9545 65.7144V64.835L62.7999 64.5668L68.0899 62.8589L68.932 62.5839Z" fill="#FEFBF2"/>
<path d="M68.932 67.1305V68.0201L68.0899 68.2849L62.7999 69.9962L61.9545 70.261V69.3782L62.7999 69.1134L68.0899 67.4021L68.932 67.1305Z" fill="#FEFBF2"/>
<path d="M68.932 71.6732V72.5628L68.0899 72.831L62.7999 74.5389L61.9545 74.8071V73.9244L62.7999 73.6595L68.0899 71.9482L68.932 71.6732Z" fill="#FEFBF2"/>
<path d="M68.932 76.2196V77.1092L68.0899 77.374L62.7999 79.0853L61.9545 79.3501V78.4707L62.7999 78.2025L68.0899 76.4946L68.932 76.2196Z" fill="#FEFBF2"/>
<path d="M68.932 80.7661V81.6557L68.0899 81.9205L62.7999 83.6318L61.9545 83.8966V83.0138L62.7999 82.749L68.0899 81.0377L68.932 80.7661Z" fill="#FEFBF2"/>
<path d="M68.932 85.3093V86.1989L68.0899 86.4638L62.7999 88.175L61.9545 88.4399V87.5605L62.7999 87.2922L68.0899 85.5844L68.932 85.3093Z" fill="#FEFBF2"/>
<path d="M68.932 89.8553V90.7449L68.0899 91.0098L62.7999 92.721L61.9545 92.9859V92.1031L62.7999 91.8382L68.0899 90.127L68.932 89.8553Z" fill="#FEFBF2"/>
<path d="M68.932 94.3983V95.2879L68.0899 95.5561L62.7999 97.264L61.9545 97.5322V96.6494L62.7999 96.3846L68.0899 94.6733L68.932 94.3983Z" fill="#FEFBF2"/>
<path d="M68.932 98.9447V99.8343L68.0899 100.099L62.7999 101.81L61.9545 102.075V101.196L62.7999 100.928L68.0899 99.2163L68.932 98.9447Z" fill="#FEFBF2"/>
<path d="M68.932 103.491V104.377L68.0899 104.646L62.7999 106.354L61.9545 106.622V105.739L62.7999 105.474L68.0899 103.763L68.932 103.491Z" fill="#FEFBF2"/>
<path d="M68.932 108.034V108.924L68.0899 109.189L62.7999 110.9L61.9545 111.165V110.285L62.7999 110.017L68.0899 108.309L68.932 108.034Z" fill="#FEFBF2"/>
<path d="M68.9318 49.0636C68.9318 49.5729 68.9012 50.3674 68.6975 50.4013C68.4938 50.4353 68.2425 49.7902 68.0897 49.3827C68.1474 48.4694 67.9946 47.6443 67.3224 47.006C67.2984 46.8943 67.2848 46.7806 67.2816 46.6664C67.2793 46.4913 67.293 46.3162 67.3224 46.1435C68.5447 45.8855 68.9657 47.7292 68.9318 49.0636Z" fill="#FEFBF2"/>
<path d="M61.954 48.2213C62.6671 48.6457 62.8198 50.0752 62.7995 50.9376C62.7995 51.4469 62.7689 52.238 62.5652 52.272C62.3615 52.3059 62.1102 51.6642 61.9574 51.2533C62.0151 50.3434 61.8624 49.5149 61.1901 48.8766C61.1663 48.7649 61.1527 48.6512 61.1493 48.5371C61.1451 48.3888 61.1588 48.2406 61.1901 48.0957C61.3387 48.0619 61.493 48.0619 61.6416 48.0957C61.751 48.1231 61.8561 48.1654 61.954 48.2213Z" fill="#FEFBF2"/>
<path d="M68.9315 49.0636V113.766C68.9315 113.877 68.8872 113.985 68.8082 114.063C68.7293 114.142 68.6222 114.187 68.5105 114.187C68.3988 114.187 68.2918 114.142 68.2128 114.063C68.1338 113.985 68.0895 113.877 68.0895 113.766V49.3828C68.3713 49.2911 68.6531 49.179 68.9315 49.0636Z" fill="#FEFBF2"/>
</svg>
