<svg width="22" height="21" viewBox="0 0 22 21" fill="none" xmlns="http://www.w3.org/2000/svg">
<path d="M15.1486 12.1062C18.4904 12.1062 21.2005 9.39716 21.2005 6.05433C21.2005 5.04382 20.9493 4.09374 20.5122 3.25713L16.0264 7.74206L13.9075 6.94163L13.0324 4.74806L17.3568 0.422505C16.6721 0.152084 15.9285 0 15.1486 0C11.8022 0 9.0918 2.71143 9.0918 6.05433C9.0918 9.39716 11.8022 12.1062 15.1486 12.1062Z" fill="#FF5656"/>
<path fill-rule="evenodd" clip-rule="evenodd" d="M8.60159 10.0081C8.92992 10.6358 9.19931 10.9316 9.72807 11.4604C10.2556 11.9879 10.6359 12.2644 11.2672 12.5916L4.42458 21C4.42458 21 2.772 20.4568 1.72775 19.4125C0.592715 18.2764 0 16.7131 0 16.7131L8.60159 10.0081ZM3.56513 18.9068C4.28458 18.9068 4.86521 18.3236 4.86521 17.6041C4.86521 16.8858 4.28458 16.3051 3.56513 16.3051C2.84804 16.3051 2.26358 16.8858 2.26358 17.6041C2.26358 18.3236 2.84804 18.9068 3.56513 18.9068Z" fill="#FF5656"/>
</svg>
