<svg width="87" height="33" viewBox="0 0 87 33" fill="none" xmlns="http://www.w3.org/2000/svg">
<path d="M0.455613 0.984497C1.90085 8.5152 4.3769 10.6704 7.47504 13.2126C11.5703 16.573 16.3303 18.7837 19.6585 19.7719C30.2232 22.9087 32.9 23.3375 43.6346 23.7418C55.5444 23.7418 61.8478 22.1556 71.5103 18.3062C77.99 14.9916 78.252 14.6679 81.2681 12.0826C85.6934 7.88139 86.9314 5.22757 86.9314 0.984497V9.47064C86.7082 10.5248 86.499 11.4958 86.1997 12.4174C84.1354 18.7746 78.5112 23.3505 71.2954 26.8638C62.1262 30.9477 54.9725 32.402 43.8196 32.5439C31.5785 32.5439 21.8 29.7697 16.4691 27.0418C11.1383 24.314 8.96275 22.9703 6.06941 20.0271C2.79561 16.6968 0.504716 12.9948 0.412354 8.1355L0.455613 2.40491V0.984497Z" fill="#FEFBF2"/>
</svg>
