<svg width="154" height="85" viewBox="0 0 154 85" fill="none" xmlns="http://www.w3.org/2000/svg">
<g opacity="0.62">
<path opacity="0.62" d="M26.8781 35.7217L27.3036 34.7599L27.5163 34.3035L27.7618 33.8471L28.2364 32.9994C28.4164 32.7223 28.58 32.4615 28.76 32.217C29.0598 31.7468 29.3877 31.295 29.7419 30.864C30.0365 30.4565 30.3638 30.1142 30.6093 29.8208L31.1821 29.1687L31.4112 28.9405L25.127 27.3104L24.8652 27.5549L24.2106 28.3048C23.8672 28.6722 23.5448 29.0586 23.245 29.4621C22.9014 29.9186 22.4759 30.4239 22.1159 30.9944L21.5267 31.891L21.003 32.8527L20.7248 33.358L20.4794 33.8797L20.0048 34.9555C19.4174 36.4926 19.027 38.0973 18.8429 39.7317C18.7149 41.3047 18.7864 42.8874 19.0556 44.4426C19.3261 45.8412 19.76 47.2034 20.3484 48.5015L20.7248 49.3329L21.1503 50.0827L21.5104 50.7348C21.619 50.9266 21.7393 51.1116 21.8704 51.289L22.3777 52.0551L22.5577 52.3323L29.1037 51.0934L28.9401 50.8489L28.4982 50.1642L28.1709 49.6752L27.86 49.0884L27.4836 48.4363L27.1563 47.6865C26.629 46.5421 26.2443 45.3378 26.0107 44.1003C25.7718 42.7228 25.7058 41.321 25.8143 39.9273C26.0007 38.4884 26.3577 37.0767 26.8781 35.7217Z" fill="#303549"/>
<path opacity="0.62" d="M43.6359 60.7107C43.3904 60.5966 43.0467 60.4336 42.6703 60.2217L41.3448 59.5207L39.8555 58.6731C38.9064 58.0863 37.9736 57.4831 37.3517 57.043L36.5825 56.4399L36.3043 56.228L26.4853 59.4881L26.1908 59.2599L25.2416 58.5101L24.3415 57.7113C24.047 57.4342 23.7033 57.1734 23.4251 56.88L22.525 56.0323L22.0832 55.5922L21.674 55.1195L20.8394 54.174L20.0866 53.196L19.6939 52.7722L19.3502 52.2668L18.6629 51.1421L18.0737 50.0662L17.7792 49.512L17.5337 48.9578C17.37 48.5828 17.19 48.2242 17.0427 47.8493C16.7536 47.1049 16.5131 46.3426 16.3227 45.5672C16.3227 45.1923 16.1099 44.801 16.0608 44.4261L15.8808 43.2688C15.7086 41.728 15.7416 40.1714 15.979 38.6393C16.0976 37.9086 16.256 37.1849 16.4536 36.4713C16.5518 36.0964 16.7155 35.7215 16.83 35.3628C16.9448 34.9964 17.0814 34.6372 17.2391 34.287C18.4664 31.5103 20.1848 28.976 22.3123 26.8049C23.8274 25.2584 25.4696 23.8408 27.2218 22.5667L33.0968 24.6369L33.4896 24.3598L34.5533 23.6099L36.1898 22.583L38.1045 21.4582C38.8082 21.0996 39.4792 20.7084 40.1338 20.3823L41.983 19.4858L43.865 18.6545L42.9976 18.1165C45.8456 16.9151 48.7639 15.8863 51.7365 15.0357L52.4566 14.8238L53.2094 14.6281L54.715 14.2206L56.3515 13.8457L57.988 13.4871L59.6245 13.1611L60.4427 12.9981L61.2773 12.8514L62.9138 12.5579C63.4702 12.4601 64.043 12.3949 64.5503 12.3134C66.8087 11.9711 69.1325 11.7266 71.4236 11.531L74.8603 11.3028H76.4968H78.1333C82.1685 11.2296 86.205 11.3602 90.227 11.694C91.1107 11.694 91.9453 11.8407 92.7308 11.9385L94.9728 12.1993C95.6765 12.1993 96.3148 12.3949 96.9203 12.4764L98.5568 12.7209L100.831 13.1285L101.617 13.2915L102.337 12.3297L101.519 12.1667L99.1786 11.7592L97.5421 11.4821C96.9203 11.4821 96.2493 11.2865 95.5292 11.205L93.2218 10.9279C92.4035 10.83 91.5853 10.7648 90.6198 10.6833C86.462 10.3334 82.2885 10.2028 78.1169 10.2921C77.5441 10.2921 76.955 10.2921 76.3822 10.2921H74.6312L70.949 10.504C68.5761 10.7159 66.1705 10.9441 63.8139 11.3028L62.0628 11.5636L60.3281 11.8733L59.4935 12.02L58.6426 12.183L57.0061 12.5253L55.3696 12.9003C54.8295 13.0307 54.2731 13.1448 53.7331 13.2915L52.1784 13.699L51.3929 13.8946L50.6401 14.1228C47.5738 15.0035 44.5628 16.0649 41.623 17.3015L36.7135 14.2369L34.3733 15.2802L32.1804 16.356C31.3785 16.7473 30.5439 17.2037 29.7583 17.6438C28.9728 18.0839 28.2037 18.5566 27.4672 18.9805L25.5853 20.1704C25.0452 20.5291 24.6361 20.8551 24.3252 21.067L23.8506 21.4093L25.4871 21.9798C23.7045 23.2956 22.035 24.7569 20.4958 26.3485C18.314 28.586 16.5565 31.1982 15.3081 34.0588C15.1369 34.4184 14.9893 34.7886 14.8662 35.1672C14.7516 35.5421 14.588 35.9171 14.4898 36.292C14.2776 37.0581 14.1137 37.8366 13.9989 38.623C13.7452 40.1975 13.7121 41.7994 13.9007 43.3829L14.0807 44.5891C14.0807 44.9804 14.2607 45.3716 14.3425 45.7628C14.5439 46.5601 14.7954 47.3441 15.0953 48.1101C15.2426 48.5013 15.4226 48.8763 15.6026 49.2675L15.8481 49.8217L16.159 50.3922C16.3718 50.7509 16.5682 51.1258 16.7645 51.4844L17.4846 52.5603L17.8283 53.0982C17.9592 53.2612 18.0901 53.4405 18.2374 53.6035L19.0065 54.6305L19.8739 55.5922L20.2176 56.0323L20.6758 56.4888L21.5759 57.4016C21.8704 57.695 22.2141 57.9721 22.525 58.2493C22.836 58.5264 23.1305 58.8198 23.4578 59.0806L24.4234 59.8467L24.7343 60.0912L23.0978 60.6618L23.4906 60.9226L24.5052 61.6561C25.3234 62.2756 26.5344 63.058 27.7782 63.8242L29.6438 64.9163L31.2803 65.8455C31.7712 66.1226 32.2295 66.3345 32.524 66.4812L33.015 66.7094L34.5206 65.8944L35.7807 65.226L43.9632 60.8248L43.6359 60.7107Z" fill="#303549"/>
<path opacity="0.62" d="M151.137 52.0223L150.794 52.6255L149.665 54.2556C148.387 56.0068 146.958 57.6432 145.393 59.1458L141.073 57.9559C139.781 59.1516 138.426 60.278 137.014 61.3301C136.442 61.7377 135.902 62.1452 135.378 62.5201L133.856 63.5144C133.414 63.8079 132.989 64.0361 132.71 64.1991L132.285 64.4599L135.983 66.09C135.296 66.4812 134.592 66.8887 133.856 67.28C132.76 67.8831 131.565 68.4699 130.354 69.0567C129.748 69.3502 129.11 69.611 128.472 69.9044L127.523 70.3282L126.524 70.7194C123.906 71.8279 121.026 72.8059 118.08 73.7188L115.838 74.3708L113.547 74.9903L112.401 75.2837L111.24 75.5608L108.899 76.0824C107.263 76.4084 105.774 76.7345 104.186 76.9953C102.599 77.2561 101.028 77.5006 99.4731 77.7288C93.6894 78.5008 87.8632 78.9146 82.028 78.9677C77.7895 78.9677 74.1401 78.8536 71.309 78.6742L71.5544 77.7125C72.8309 77.7125 74.1074 77.8592 75.4166 77.8918H76.7749H78.1332C79.0332 77.8918 79.9333 77.8918 80.8334 77.8918C82.6172 77.8918 84.3846 77.8918 86.0865 77.7777C87.7885 77.6636 89.3595 77.6147 90.996 77.5169C91.7816 77.5169 92.518 77.3865 93.2544 77.3213L95.3328 77.1257C96.6747 76.9627 97.9021 76.8323 98.9658 76.6855L101.731 76.278L104.104 75.8705L102.042 73.1157C106.317 72.3542 110.541 71.3362 114.693 70.0674C117.147 69.285 119.602 68.4373 121.942 67.4267C122.548 67.1984 123.104 66.9213 123.677 66.6768C124.25 66.4323 124.839 66.1715 125.313 65.8944L126.95 65.0793L128.586 64.2154C130.588 63.1311 132.513 61.9111 134.347 60.564L135.001 60.0913L135.607 59.6022C136 59.2762 136.425 58.9665 136.802 58.6405C137.538 57.9722 138.291 57.3364 138.929 56.6681C140.128 55.4637 141.223 54.1604 142.202 52.7722C143.015 51.621 143.722 50.3989 144.313 49.1208L144.706 48.2894C144.837 48.0123 144.902 47.7352 145.001 47.4744C145.189 46.979 145.347 46.4727 145.475 45.9584C145.59 45.4857 145.721 45.0456 145.786 44.6217C145.852 44.1979 145.917 43.8393 145.966 43.497C145.996 43.188 145.996 42.8769 145.966 42.5678C145.966 42.307 145.966 42.0788 145.966 41.8995L146.228 41.3616H144.591C144.591 41.3616 144.591 40.8236 144.591 39.8945C144.591 39.4218 144.444 38.8512 144.362 38.2644C144.362 37.9384 144.199 37.5961 144.117 37.2375C144.04 36.8504 143.936 36.4692 143.806 36.0964C143.2 34.2145 142.324 32.43 141.204 30.7986C139.755 28.6719 138.033 26.7429 136.082 25.0607C133.891 23.1302 131.518 21.416 128.996 19.9422C126.54 18.4961 123.993 17.211 121.369 16.0952L119.602 15.2802H119.307L120.257 14.6445C120.257 14.6445 119.749 14.4326 118.947 14.1554C118.146 13.8783 117.115 13.4708 116.002 13.1285C115.462 12.9492 114.922 12.7536 114.365 12.6069L112.925 12.183L111.91 11.8733L111.518 11.7755L106.772 16.2909C106.883 16.3083 106.993 16.3356 107.099 16.3724L107.967 16.6332L109.178 16.9918L110.552 17.4319C111.485 17.7253 112.369 18.0676 113.04 18.3122C113.711 18.5567 114.153 18.7197 114.153 18.7197L116.771 16.9103L117.065 17.0244C117.573 17.2363 118.146 17.4482 118.702 17.6927C121.157 18.731 123.54 19.929 125.837 21.2789C128.163 22.6655 130.354 24.2644 132.383 26.0551C134.17 27.6352 135.758 29.4251 137.113 31.3854C138.142 32.8968 138.957 34.5424 139.535 36.2757C139.651 36.629 139.75 36.9881 139.829 37.3516C139.911 37.6939 140.009 38.0036 140.058 38.3133C140.058 38.9164 140.238 39.4544 140.271 39.9434V41.329H144.019V41.8832V42.5352C144.019 42.7961 144.019 43.0895 144.019 43.4318C144.019 43.7741 143.904 44.1327 143.855 44.524C143.806 44.9152 143.642 45.3553 143.544 45.828C143.416 46.3208 143.257 46.8053 143.069 47.2788C142.996 47.5514 142.903 47.8183 142.791 48.0775C142.66 48.3384 142.546 48.6155 142.415 48.8926C141.835 50.1275 141.151 51.3109 140.369 52.4299C139.388 53.7808 138.293 55.046 137.096 56.2117C136.474 56.8474 135.738 57.4668 135.034 58.1026C134.674 58.4286 134.265 58.7383 133.872 59.048L133.283 59.5207C133.087 59.6837 132.858 59.8305 132.645 59.9772C130.867 61.2805 129.003 62.4623 127.064 63.5144L125.526 64.3458L123.89 65.1445L122.253 65.9107L120.617 66.6279C118.342 67.5897 115.953 68.421 113.58 69.1871C109.558 70.4209 105.464 71.4116 101.322 72.1539L99.1131 68.8937L97.2311 69.2035L95.0382 69.5295L92.1743 69.8718L90.5378 70.0348C89.965 70.0348 89.3759 70.1489 88.754 70.1815C87.5267 70.1815 86.2338 70.3608 84.8755 70.3934C83.5172 70.426 82.1262 70.3934 80.6861 70.4912H77.4949H76.4148C71.2213 70.3258 66.047 69.7809 60.9336 68.8611L58.1842 68.3069L56.1059 67.8179L54.7967 67.4919L54.3385 67.3615L47.4815 73.9633L48.0707 74.1263L49.7072 74.5501L52.3256 75.1533L55.7459 75.8379L53.6348 78.8536C51.1309 78.3808 48.1852 77.7614 44.9941 76.9138C39.7091 75.5532 34.5429 73.7707 29.5455 71.5834C24.5352 69.4441 19.8039 66.7073 15.4553 63.4329L13.9824 62.2593L12.6077 60.9226L11.9368 60.3195L11.3149 59.7001C10.9058 59.2762 10.4803 58.8687 10.1039 58.4612C9.36748 57.6135 8.59833 56.8311 7.99282 55.9508C7.36016 55.1453 6.77022 54.3074 6.2254 53.4405C4.41849 50.5948 3.23616 47.4006 2.75603 44.0675C2.48003 41.821 2.54624 39.5458 2.95241 37.319C3.14879 36.5039 3.31243 35.8682 3.41062 35.4444C3.45556 35.273 3.5102 35.1043 3.57427 34.939V34.776L1.59411 34.613V34.776C1.59411 34.8901 1.47956 35.0694 1.43046 35.2814C1.31591 35.7378 1.15226 36.3898 0.955876 37.2212C0.532699 39.5011 0.466455 41.8326 0.759497 44.1327C1.25295 47.5537 2.46887 50.8316 4.32706 53.7502C4.87698 54.6425 5.47803 55.5024 6.12721 56.3258C6.74908 57.1897 7.5346 57.9559 8.28739 58.9013C8.68015 59.3251 9.12201 59.749 9.53113 60.1728L10.1694 60.8085L10.8731 61.4279C11.3313 61.8355 11.7895 62.2593 12.2804 62.6668L13.786 63.8731C18.2453 67.2594 23.0968 70.0998 28.2363 72.3332C33.3592 74.5788 38.6571 76.4051 44.0776 77.794C47.3506 78.658 50.3781 79.2937 52.9474 79.7827L51.2128 82.1137L54.0603 82.6028C54.4858 82.6028 54.944 82.7658 55.4349 82.831L56.9896 83.0592C58.0697 83.2222 59.2152 83.4015 60.3935 83.5319L63.8302 83.9231L66.8413 84.2002C67.725 84.2002 68.4778 84.3144 68.9851 84.347H69.8034L70.9653 79.636C73.8619 79.8153 77.6095 79.9783 81.9626 79.9294C87.984 79.8704 93.996 79.4403 99.9641 78.6417C101.601 78.4134 103.237 78.1852 104.874 77.8918C106.51 77.5984 108.147 77.2887 109.783 76.9627C110.601 76.7996 111.42 76.604 112.189 76.4247L113.383 76.1476L114.562 75.8379L116.918 75.2185L119.226 74.5338C122.237 73.6047 125.199 72.594 127.899 71.4693L128.914 71.0454L129.896 70.6053L131.827 69.7414C133.054 69.1383 134.298 68.5514 135.427 67.932C139.316 65.891 142.948 63.3956 146.244 60.4988C148.272 58.7247 150.1 56.735 151.694 54.5653L152.856 52.8211L153.216 52.2017L151.137 52.0223Z" fill="#303549"/>
<path opacity="0.62" d="M6.0619 48.0446L6.30737 48.7619L6.43829 49.1205L6.58558 49.4628L7.20745 50.8321C7.42019 51.2722 7.68203 51.696 7.91114 52.1362L8.25481 52.7556L8.64757 53.375C10.4966 56.1932 12.7393 58.7345 15.3081 60.9223L16.0118 61.5418L16.65 62.0634L17.681 62.8784C17.9592 63.1066 18.2047 63.2696 18.352 63.3838L18.5975 63.5468L21.7396 62.422L21.5268 62.259C21.3041 62.1152 21.091 61.9573 20.8886 61.7863L19.9067 61.0038L19.2848 60.5148L18.6302 59.928C16.1925 57.8551 14.0653 55.4453 12.3133 52.7719C12.1824 52.5926 12.0515 52.397 11.9369 52.2014L11.5933 51.5982C11.3805 51.1907 11.135 50.7832 10.9223 50.3594C10.7096 49.9355 10.5459 49.5117 10.3986 49.0553L10.2513 48.7293L10.1368 48.3869L9.89131 47.7186C9.21403 45.8602 8.83302 43.9076 8.76212 41.9318C8.69817 39.8389 8.96321 37.7488 9.54764 35.7375C10.238 33.5284 11.2468 31.4308 12.5424 29.5106C13.9832 27.3624 15.6752 25.3925 17.5829 23.6422C19.668 21.7386 21.925 20.0306 24.3252 18.5401C26.805 16.9571 29.3851 15.536 32.0495 14.2855C34.7334 13.0467 37.4172 11.9708 40.0193 11.0254C44.3896 9.50518 48.8561 8.27449 53.3895 7.34137H53.5858L54.4859 8.49873L55.5824 8.27052C55.926 8.27052 56.3679 8.10752 56.8916 8.02602L58.6917 7.7163C61.3756 7.25987 65.2377 6.67304 70.1472 6.29812C75.6801 5.89463 81.2321 5.81843 86.774 6.0699C87.5268 6.0699 88.296 6.0699 89.0651 6.18401L91.3726 6.34702C93.0091 6.49372 94.4983 6.62413 96.0366 6.81974C97.5749 7.01535 99.1623 7.22726 100.717 7.45548C101.503 7.56958 102.255 7.7163 103.024 7.84671L104.186 8.04231L105.316 8.27052C108.376 8.84105 111.289 9.59089 114.104 10.3733L116.182 10.9765L118.178 11.6285L119.16 11.9545L120.11 12.2968L121.992 12.9815C126.167 14.5744 130.188 16.5441 134.003 18.8661C136.376 20.2874 138.611 21.9245 140.68 23.7563C141.417 24.3758 141.891 24.8974 142.317 25.2397L142.84 25.7777L152.758 23.2999L152.136 22.6805C151.727 22.273 151.154 21.6861 150.319 20.9526C147.893 18.8332 145.28 16.9347 142.513 15.2799C138.091 12.5873 133.429 10.3064 128.587 8.46613L126.41 7.6674L125.314 7.27617L124.168 6.90125C123.399 6.64044 122.63 6.37963 121.844 6.15141L119.439 5.43417C116.166 4.52132 112.794 3.67368 109.26 3.00535L107.934 2.74453L106.592 2.50002C105.708 2.35332 104.825 2.1903 103.908 2.05989C102.108 1.78278 100.308 1.52197 98.4914 1.32636C96.6749 1.13075 94.8747 0.935132 93.0746 0.772123C92.2236 0.609115 91.2908 0.609117 90.3907 0.609117C89.4906 0.609117 88.6233 0.47871 87.7396 0.462409C81.3328 0.124888 74.9115 0.173881 68.5107 0.609117C62.8975 1.03294 58.348 1.70128 55.2223 2.2392L53.1276 2.59782L51.622 2.89124L50.3456 3.15205L52.1457 5.49938H51.9493C47.1672 6.48478 42.455 7.78075 37.8427 9.37898C35.1098 10.3407 32.2786 11.4818 29.4638 12.7859C26.6449 14.1021 23.912 15.5939 21.2813 17.2523C18.7612 18.8532 16.3897 20.6753 14.1953 22.6968C12.2068 24.5481 10.4387 26.621 8.92577 28.8748C7.56018 30.8837 6.49616 33.0803 5.76733 35.3952C5.15035 37.5121 4.86876 39.712 4.93271 41.9155C4.98179 44.0051 5.36291 46.0738 6.0619 48.0446Z" fill="#303549"/>
</g>
</svg>
