<svg width="14" height="8" viewBox="0 0 14 8" xmlns="http://www.w3.org/2000/svg">
<path fill-rule="evenodd" clip-rule="evenodd" d="M1.20563 7.0743C1.27164 7.1483 1.35255 7.20752 1.44304 7.24806C1.53354 7.28861 1.63158 7.30957 1.73075 7.30957C1.82991 7.30957 1.92795 7.28861 2.01845 7.24806C2.10895 7.20752 2.18985 7.1483 2.25586 7.0743L7.29694 2.03322L12.38 7.0743C12.446 7.1483 12.5269 7.20752 12.6174 7.24806C12.7079 7.28861 12.806 7.30957 12.9051 7.30957C13.0043 7.30957 13.1024 7.28861 13.1928 7.24806C13.2833 7.20752 13.3643 7.1483 13.4303 7.0743C13.5043 7.00829 13.5635 6.92739 13.604 6.83689C13.6446 6.7464 13.6655 6.64835 13.6655 6.54919C13.6655 6.45002 13.6446 6.35198 13.604 6.26148C13.5635 6.17099 13.5043 6.09008 13.4303 6.02408L7.80105 0.478885C7.73336 0.407706 7.6519 0.351032 7.56163 0.312306C7.47136 0.27358 7.37416 0.253611 7.27594 0.253611C7.17771 0.253611 7.08051 0.27358 6.99024 0.312306C6.89997 0.351032 6.81852 0.407706 6.75082 0.478885L1.20563 6.06608C1.13831 6.13165 1.0848 6.21003 1.04826 6.29661C1.01172 6.38319 0.992899 6.47622 0.992899 6.57019C0.992899 6.66417 1.01172 6.75719 1.04826 6.84377C1.0848 6.93035 1.13831 7.00874 1.20563 7.0743Z"/>
</svg>
