<svg width="14" height="9" viewBox="0 0 14 9" xmlns="http://www.w3.org/2000/svg">
<path fill-rule="evenodd" clip-rule="evenodd" d="M13.4528 1.20841C13.3868 1.13441 13.3059 1.0752 13.2154 1.03465C13.1249 0.994104 13.0269 0.973145 12.9277 0.973145C12.8285 0.973145 12.7305 0.994104 12.64 1.03465C12.5495 1.0752 12.4686 1.13441 12.4026 1.20841L7.36151 6.2495L2.27841 1.20841C2.21241 1.13441 2.1315 1.0752 2.04101 1.03465C1.95051 0.994104 1.85247 0.973145 1.7533 0.973145C1.65414 0.973145 1.55609 0.994104 1.4656 1.03465C1.3751 1.0752 1.2942 1.13441 1.22819 1.20841C1.15419 1.27442 1.09497 1.35533 1.05443 1.44582C1.01388 1.53632 0.99292 1.63436 0.99292 1.73353C0.99292 1.83269 1.01388 1.93073 1.05443 2.02123C1.09497 2.11173 1.15419 2.19263 1.22819 2.25864L6.8574 7.80383C6.92509 7.87501 7.00654 7.93168 7.09681 7.97041C7.18708 8.00913 7.28428 8.0291 7.38251 8.0291C7.48074 8.0291 7.57794 8.00913 7.66821 7.97041C7.75848 7.93168 7.83993 7.87501 7.90762 7.80383L13.4528 2.21663C13.5201 2.15107 13.5736 2.07268 13.6102 1.9861C13.6467 1.89952 13.6655 1.8065 13.6655 1.71252C13.6655 1.61855 13.6467 1.52552 13.6102 1.43894C13.5736 1.35236 13.5201 1.27398 13.4528 1.20841Z"/>
</svg>
