<svg width="15" height="17" viewBox="0 0 15 17" xmlns="http://www.w3.org/2000/svg">
<path d="M14.8167 15.3105V4.48915C12.7307 4.13141 10.6031 3.9816 8.47666 4.04273C6.37269 3.97311 4.26634 4.11092 2.19939 4.45344V9.63197L2.51325 9.11412L3.05729 8.22127L3.60132 9.11412C4.08257 9.8909 6.49932 13.8194 6.49932 15.0426C6.49636 15.4381 6.38151 15.8271 6.16454 16.1766C6.89688 16.1766 7.69201 16.1766 8.52898 16.1766C11.6676 16.1766 14.325 15.9623 14.8062 15.6766H14.8899V15.5873V15.2748L14.8167 15.3105ZM14.8167 2.94452V1.48025C14.6861 1.43573 14.5601 1.38197 14.4401 1.31953C14.0019 1.22321 13.553 1.16636 13.1009 1.14989L11.2596 0.989179H10.8202C9.67362 0.884222 8.51885 0.860332 7.36768 0.917751C6.32147 0.971322 5.27525 0.962394 4.14535 1.05168C3.70594 1.09632 3.25607 1.14096 2.82712 1.22132C2.61741 1.30391 2.40055 1.37257 2.17847 1.42668V2.88202V3.24809V3.9088C4.26106 3.55331 6.38612 3.41242 8.50805 3.48916C10.6334 3.41265 12.7619 3.55353 14.8481 3.9088V3.25702V2.94452H14.8167ZM3.03636 2.6231L2.6388 2.70345V1.8106L3.03636 1.72132V2.6231ZM4.35459 2.47131L3.49669 2.5606V1.66775L4.35459 1.56953V2.47131ZM6.12269 2.3731L4.82538 2.4356V1.54275L6.12269 1.47132V2.3731ZM8.21511 2.3731C7.65016 2.3731 7.10613 2.3731 6.58302 2.3731V1.48025C7.0852 1.48025 7.62923 1.48025 8.21511 1.48025V2.3731ZM10.3075 2.3731C9.79489 2.3731 9.26132 2.3731 8.67545 2.3731V1.48025C9.26132 1.48025 9.80535 1.48025 10.3075 1.48025V2.3731ZM12.0861 2.45345L10.7783 2.39095V1.4981L12.0861 1.56953V2.45345ZM13.4043 2.56952L12.5464 2.48917V1.59632L13.4043 1.69453V2.56952ZM14.2622 2.70345L13.8751 2.63202V1.73917L14.2622 1.82846V2.70345Z"/>
<path d="M2.86891 9.69446C2.86891 9.69446 0.24292 13.8909 0.24292 14.9623C0.293793 15.5152 0.598016 16.0286 1.08961 16.3913C1.5812 16.754 2.22052 16.9367 2.86891 16.8998C3.51382 16.9318 4.14777 16.747 4.63478 16.3847C5.12179 16.0225 5.42307 15.5119 5.47398 14.9623C5.47398 13.8909 2.86891 9.69446 2.86891 9.69446Z"/>
</svg>
