<svg xmlns="http://www.w3.org/2000/svg" viewBox="0 0 18.66 21.98">
  <path d="M17.86,2.34H13.52V.81A.81.81,0,0,0,12.71,0H6a.81.81,0,0,0-.81.81V5.06A.81.81,0,0,0,6,5.87h5a.81.81,0,0,0,0-1.62H6.77V1.62h5.14V3.15a.81.81,0,0,0,.81.81h4.33V20.37H1.62V4H2.85a.81.81,0,0,0,0-1.62h-2A.81.81,0,0,0,0,3.15v18A.81.81,0,0,0,.81,22H17.86a.8.8,0,0,0,.8-.81v-18A.81.81,0,0,0,17.86,2.34Z"/>
  <rect x="3.22" y="7.78" width="2.64" height="2.55" rx="0.91"/>
  <rect x="3.22" y="11.67" width="2.64" height="2.55" rx="0.91"/>
  <rect x="7.2" y="8.44" width="7.91" height="1.41"/>
  <rect x="7.26" y="12.24" width="7.91" height="1.41"/>
  <rect x="3.22" y="15.8" width="2.64" height="2.55" rx="0.91"/>
  <rect x="7.26" y="16.37" width="3.95" height="1.41"/>
</svg>