<svg xmlns="http://www.w3.org/2000/svg" viewBox="0 0 24.5 24.5"><defs><style>.bb0e04cc-ee67-4f4b-a8d5-e44dc01910d0{fill:none;stroke:#fff;stroke-miterlimit:10;stroke-width:0.5px;}.e6c03eb1-bdf6-4332-b3ec-c61c010fa8ed,.f4df56b3-68f6-409d-9ab3-0d2dd094df41{fill:#fff;}.f4df56b3-68f6-409d-9ab3-0d2dd094df41{opacity:0.1;}</style></defs><title>Ресурс 1</title><g id="e74f7908-18ba-4a1b-ae46-8fe955cfc44d" data-name="Слой 2"><g id="e8bbffbd-79a4-4c76-9e2b-937a4094414a" data-name="Layer 1"><circle class="bb0e04cc-ee67-4f4b-a8d5-e44dc01910d0" cx="12.25" cy="12.25" r="12"/><circle class="f4df56b3-68f6-409d-9ab3-0d2dd094df41" cx="12.25" cy="12.25" r="10.69"/><circle class="f4df56b3-68f6-409d-9ab3-0d2dd094df41" cx="12.25" cy="12.25" r="9.5"/><circle class="f4df56b3-68f6-409d-9ab3-0d2dd094df41" cx="12.25" cy="12.25" r="8.32"/><circle class="f4df56b3-68f6-409d-9ab3-0d2dd094df41" cx="12.25" cy="12.25" r="7.13"/><path class="e6c03eb1-bdf6-4332-b3ec-c61c010fa8ed" d="M15.09,11.11H10a.75.75,0,0,0-.74.75v4.06a.75.75,0,0,0,.74.75h5.1a.76.76,0,0,0,.75-.75V11.86A.76.76,0,0,0,15.09,11.11Zm-2.16,2.58v1a.35.35,0,0,1-.35.35.36.36,0,0,1-.36-.35v-1a.71.71,0,0,1-.34-.61.7.7,0,1,1,1,.61Z"/><path class="e6c03eb1-bdf6-4332-b3ec-c61c010fa8ed" d="M10.85,10.77V8.91a1.61,1.61,0,0,1,3.21,0v1.86h.85V8.91a2.45,2.45,0,0,0-4.9,0v1.86Z"/></g></g></svg>