<svg width="16" height="16" viewBox="0 0 16 16" fill="none" xmlns="http://www.w3.org/2000/svg">
<path d="M8.00015 4.10001C7.65015 4.10001 7.30015 4.10001 6.95015 4.15001C6.15015 4.20001 5.40015 4.35001 4.75015 4.55001C3.45015 4.95001 2.65015 5.55001 2.65015 6.25001V12.65H13.3001V6.25001C13.3501 5.05001 10.9501 4.10001 8.00015 4.10001Z" stroke="#606580" stroke-width="1.2" stroke-miterlimit="10" stroke-linecap="round" stroke-linejoin="round"/>
<path d="M4.75015 8.60001C3.50015 8.80001 2.65015 9.10001 2.65015 9.45001" stroke="#606580" stroke-width="1.2" stroke-miterlimit="10" stroke-linecap="round" stroke-linejoin="round"/>
<path d="M13.3501 9.44999C13.3501 8.84999 10.9501 8.39999 8.00015 8.39999C7.65015 8.39999 7.25015 8.39999 6.90015 8.39999" stroke="#606580" stroke-width="1.2" stroke-miterlimit="10" stroke-linecap="round" stroke-linejoin="round"/>
<path d="M4.84985 12.55V3.8" stroke="#606580" stroke-width="1.2" stroke-miterlimit="10" stroke-linecap="round" stroke-linejoin="round"/>
<path d="M6.90015 3.35001V12.55" stroke="#606580" stroke-width="1.2" stroke-miterlimit="10" stroke-linecap="round" stroke-linejoin="round"/>
<path d="M0.75 12.65H15.25" stroke="#606580" stroke-width="1.2" stroke-miterlimit="10" stroke-linecap="round" stroke-linejoin="round"/>
</svg>
