<svg width="16" height="17" viewBox="0 0 16 17" fill="none" xmlns="http://www.w3.org/2000/svg">
<path d="M2.75 4.30005H5.45" stroke="#8C99B2" stroke-miterlimit="10" stroke-linecap="round" stroke-linejoin="round"/>
<path d="M1.04999 8.35005L2.74999 4.30005L4.39999 8.35005" stroke="#8C99B2" stroke-miterlimit="10" stroke-linecap="round" stroke-linejoin="round"/>
<path d="M0.75 9.69995C0.75 10.8 1.65 11.7 2.75 11.7C3.85 11.7 4.75 10.8 4.75 9.69995H0.75Z" stroke="#8C99B2" stroke-miterlimit="10" stroke-linecap="round" stroke-linejoin="round"/>
<path d="M13.25 4.30005H10.55" stroke="#8C99B2" stroke-miterlimit="10" stroke-linecap="round" stroke-linejoin="round"/>
<path d="M14.9499 8.35005L13.2499 4.30005L11.5999 8.35005" stroke="#8C99B2" stroke-miterlimit="10" stroke-linecap="round" stroke-linejoin="round"/>
<path d="M15.2499 9.69995C15.2499 10.8 14.3499 11.7 13.2499 11.7C12.1499 11.7 11.2499 10.8 11.2499 9.69995H15.2499Z" stroke="#8C99B2" stroke-miterlimit="10" stroke-linecap="round" stroke-linejoin="round"/>
<path d="M8.00009 6.64995C9.29795 6.64995 10.3501 5.59782 10.3501 4.29995C10.3501 3.00208 9.29795 1.94995 8.00009 1.94995C6.70222 1.94995 5.65009 3.00208 5.65009 4.29995C5.65009 5.59782 6.70222 6.64995 8.00009 6.64995Z" stroke="#8C99B2" stroke-miterlimit="10" stroke-linecap="round" stroke-linejoin="round"/>
<path d="M8.00006 10.6999C8.00006 12.9499 8.00006 14.7499 8.00006 14.7499C8.00006 14.7499 8.00006 12.9499 8.00006 10.6999ZM8.00006 10.6999C8.00006 8.4499 8.00006 6.6499 8.00006 6.6499C8.00006 6.6499 8.00006 8.4499 8.00006 10.6999Z" stroke="#8C99B2" stroke-miterlimit="10" stroke-linecap="round" stroke-linejoin="round"/>
<path d="M13.0501 15.0999C13.0501 15.0999 10.8001 15.0999 8.00007 15.0999C5.20007 15.0999 2.95007 15.0999 2.95007 15.0999C2.95007 15.0999 5.20007 15.0999 8.00007 15.0999C10.8001 15.0999 13.0501 15.0999 13.0501 15.0999Z" stroke="#8C99B2" stroke-miterlimit="10" stroke-linecap="round" stroke-linejoin="round"/>
</svg>
