<svg width="16" height="11" viewBox="0 0 16 11" fill="none" xmlns="http://www.w3.org/2000/svg">
<path d="M12.05 3.55005L11.7 2.50005V1.30005H9.05V2.50005L7.75 6.45005V7.65005" stroke="#8C99B2" stroke-miterlimit="10" stroke-linecap="round" stroke-linejoin="round"/>
<path d="M7.45002 2.75H5.45002V3.7L4.40002 6.7V7.65H7.75002" stroke="#8C99B2" stroke-miterlimit="10" stroke-linecap="round" stroke-linejoin="round"/>
<path d="M3.7 4.25H2.7V4.9L2 7V7.65H4.8" stroke="#8C99B2" stroke-miterlimit="10" stroke-linecap="round" stroke-linejoin="round"/>
<path d="M9.95002 3.05005C9.95002 3.05005 10.15 3.05005 9.80002 3.05005C9.45002 3.05005 9.15002 3.05005 9.15002 3.05005C9.15002 3.05005 9.45002 3.05005 9.80002 3.05005C10.15 3.05005 9.95002 3.05005 9.95002 3.05005Z" stroke="#8C99B2" stroke-miterlimit="10" stroke-linecap="round" stroke-linejoin="round"/>
<path d="M1 7.65015H7.75" stroke="#8C99B2" stroke-miterlimit="10" stroke-linecap="round" stroke-linejoin="round"/>
<path d="M12.95 5.55005L15 7.60005L12.95 9.70005" stroke="#8C99B2" stroke-miterlimit="10" stroke-linecap="round" stroke-linejoin="round"/>
<path d="M10.35 7.6001H15" stroke="#8C99B2" stroke-miterlimit="10" stroke-linecap="round" stroke-linejoin="round"/>
</svg>
