<svg width="332" height="60" viewBox="0 0 332 60" fill="none" xmlns="http://www.w3.org/2000/svg">
<path d="M331.5 59V59.5H332V59H331.5ZM331.5 33.5H332V33H331.5V33.5ZM0.5 33.5H0V34H0.5V33.5ZM0.5 3.5V3H0V3.5H0.5ZM41 3.5L36 0.613249V6.38675L41 3.5ZM37.9625 3H35.9375V4H37.9625V3ZM33.9125 3H31.8875V4H33.9125V3ZM29.8625 3H27.8375V4H29.8625V3ZM25.8125 3H23.7875V4H25.8125V3ZM21.7625 3H19.7375V4H21.7625V3ZM17.7125 3H15.6875V4H17.7125V3ZM13.6625 3H11.6375V4H13.6625V3ZM9.6125 3H7.5875V4H9.6125V3ZM5.5625 3H3.5375V4H5.5625V3ZM1.5125 3H0.5V4H1.5125V3ZM0 3.5V4.4375H1V3.5H0ZM0 6.3125V8.1875H1V6.3125H0ZM0 10.0625V11.9375H1V10.0625H0ZM0 13.8125V15.6875H1V13.8125H0ZM0 17.5625V19.4375H1V17.5625H0ZM0 21.3125V23.1875H1V21.3125H0ZM0 25.0625V26.9375H1V25.0625H0ZM0 28.8125V30.6875H1V28.8125H0ZM0 32.5625V33.5H1V32.5625H0ZM0.5 34H1.49699V33H0.5V34ZM3.49096 34H5.48494V33H3.49096V34ZM7.47892 34H9.47289V33H7.47892V34ZM11.4669 34H13.4608V33H11.4669V34ZM15.4548 34H17.4488V33H15.4548V34ZM19.4428 34H21.4367V33H19.4428V34ZM23.4307 34H25.4247V33H23.4307V34ZM27.4187 34H29.4127V33H27.4187V34ZM31.4066 34H33.4006V33H31.4066V34ZM35.3946 34H37.3886V33H35.3946V34ZM39.3825 34H41.3765V33H39.3825V34ZM43.3705 34H45.3645V33H43.3705V34ZM47.3584 34H49.3524V33H47.3584V34ZM51.3464 34H53.3404V33H51.3464V34ZM55.3343 34H57.3283V33H55.3343V34ZM59.3223 34H61.3163V33H59.3223V34ZM63.3103 34H65.3042V33H63.3103V34ZM67.2982 34H69.2922V33H67.2982V34ZM71.2861 34H73.2801V33H71.2861V34ZM75.2741 34H77.2681V33H75.2741V34ZM79.262 34H81.256V33H79.262V34ZM83.25 34H85.244V33H83.25V34ZM87.2379 34H89.2319V33H87.2379V34ZM91.2259 34H93.2199V33H91.2259V34ZM95.2138 34H97.2078V33H95.2138V34ZM99.2018 34H101.196V33H99.2018V34ZM103.19 34H105.184V33H103.19V34ZM107.178 34H109.172V33H107.178V34ZM111.166 34H113.16V33H111.166V34ZM115.154 34H117.148V33H115.154V34ZM119.141 34H121.135V33H119.141V34ZM123.129 34H125.123V33H123.129V34ZM127.117 34H129.111V33H127.117V34ZM131.105 34H133.099V33H131.105V34ZM135.093 34H137.087V33H135.093V34ZM139.081 34H141.075V33H139.081V34ZM143.069 34H145.063V33H143.069V34ZM147.057 34H149.051V33H147.057V34ZM151.045 34H153.039V33H151.045V34ZM155.033 34H157.027V33H155.033V34ZM159.021 34H161.015V33H159.021V34ZM163.009 34H165.003V33H163.009V34ZM166.997 34H168.991V33H166.997V34ZM170.985 34H172.979V33H170.985V34ZM174.973 34H176.967V33H174.973V34ZM178.961 34H180.955V33H178.961V34ZM182.949 34H184.943V33H182.949V34ZM186.937 34H188.931V33H186.937V34ZM190.925 34H192.918V33H190.925V34ZM194.912 34H196.906V33H194.912V34ZM198.9 34H200.894V33H198.9V34ZM202.888 34H204.882V33H202.888V34ZM206.876 34H208.87V33H206.876V34ZM210.864 34H212.858V33H210.864V34ZM214.852 34H216.846V33H214.852V34ZM218.84 34H220.834V33H218.84V34ZM222.828 34H224.822V33H222.828V34ZM226.816 34H228.81V33H226.816V34ZM230.804 34H232.798V33H230.804V34ZM234.792 34H236.786V33H234.792V34ZM238.78 34H240.774V33H238.78V34ZM242.768 34H244.762V33H242.768V34ZM246.756 34H248.75V33H246.756V34ZM250.744 34H252.738V33H250.744V34ZM254.732 34H256.726V33H254.732V34ZM258.72 34H260.714V33H258.72V34ZM262.708 34H264.702V33H262.708V34ZM266.696 34H268.69V33H266.696V34ZM270.684 34H272.678V33H270.684V34ZM274.672 34H276.665V33H274.672V34ZM278.659 34H280.653V33H278.659V34ZM282.647 34H284.641V33H282.647V34ZM286.635 34H288.629V33H286.635V34ZM290.623 34H292.617V33H290.623V34ZM294.611 34H296.605V33H294.611V34ZM298.599 34H300.593V33H298.599V34ZM302.587 34H304.581V33H302.587V34ZM306.575 34H308.569V33H306.575V34ZM310.563 34H312.557V33H310.563V34ZM314.551 34H316.545V33H314.551V34ZM318.539 34H320.533V33H318.539V34ZM322.527 34H324.521V33H322.527V34ZM326.515 34H328.509V33H326.515V34ZM330.503 34H331.5V33H330.503V34ZM331 33.5V34.5625H332V33.5H331ZM331 36.6875V38.8125H332V36.6875H331ZM331 40.9375V43.0625H332V40.9375H331ZM331 45.1875V47.3125H332V45.1875H331ZM331 49.4375V51.5625H332V49.4375H331ZM331 53.6875V55.8125H332V53.6875H331ZM331 57.9375V59H332V57.9375H331ZM331.5 58.5H330.547V59.5H331.5V58.5ZM328.641 58.5H326.734V59.5H328.641V58.5ZM324.828 58.5H322.922V59.5H324.828V58.5ZM321.016 58.5H319.109V59.5H321.016V58.5ZM317.203 58.5H315.297V59.5H317.203V58.5ZM313.391 58.5H311.484V59.5H313.391V58.5ZM309.578 58.5H307.672V59.5H309.578V58.5ZM305.766 58.5H303.859V59.5H305.766V58.5ZM301.953 58.5H301V59.5H301.953V58.5Z" fill="#4B5169"/>
</svg>
