<svg width="13" height="14" viewBox="0 0 13 14" fill="none" xmlns="http://www.w3.org/2000/svg">
<path d="M12.2883 12.5281L12.4149 12.4016C12.738 12.0784 12.738 11.5544 12.4148 11.2312L1.882 0.698411C1.55883 0.375238 1.03487 0.375229 0.711697 0.698403L0.585173 0.824926C0.262 1.1481 0.262008 1.67206 0.585182 1.99523L11.118 12.5281C11.4412 12.8512 11.9652 12.8513 12.2883 12.5281Z" fill="#8C99B2"/>
<path d="M0.585177 12.4006L0.711701 12.5271C1.03487 12.8503 1.55886 12.8503 1.88203 12.5271L12.4149 1.99431C12.738 1.67114 12.738 1.14715 12.4149 0.823977L12.2883 0.697454C11.9652 0.37428 11.4412 0.374289 11.118 0.697462L0.585185 11.2303C0.262011 11.5535 0.262004 12.0774 0.585177 12.4006Z" fill="#8C99B2"/>
</svg>
