<svg width="13" height="13" viewBox="0 0 13 13" fill="none" xmlns="http://www.w3.org/2000/svg">
<path fill-rule="evenodd" clip-rule="evenodd" d="M3.13937 12.8625C2.52236 12.8625 1.90636 12.6284 1.43636 12.1594C0.498344 11.2195 0.498344 9.69263 1.43636 8.75342L7.78835 2.40259L11.1934 5.80762L4.84136 12.1594C4.37234 12.6284 3.75536 12.8625 3.13937 12.8625ZM7.78835 3.40845L1.93935 9.25757C1.27834 9.91846 1.27834 10.9946 1.93935 11.6555C2.60134 12.3164 3.67736 12.3164 4.33834 11.6555L10.1864 5.80762L7.78835 3.40845Z" fill="#FF931E"/>
<path fill-rule="evenodd" clip-rule="evenodd" d="M11.4168 6.60675C11.1508 6.60675 10.8858 6.50592 10.6838 6.30377L7.29182 2.9129C6.88783 2.50787 6.88783 1.85089 7.29182 1.44586C7.69682 1.04376 8.35384 1.04181 8.75883 1.44586L12.1498 4.83673C12.3458 5.03278 12.4538 5.29474 12.4538 5.57086C12.4538 5.84772 12.3458 6.10773 12.1498 6.30377C11.9478 6.50592 11.6828 6.60675 11.4168 6.60675ZM8.02483 1.8548C7.94182 1.8548 7.85884 1.8858 7.79485 1.94977C7.66884 2.07575 7.66884 2.28278 7.79485 2.40875L11.1868 5.79987C11.3138 5.9278 11.5198 5.9278 11.6468 5.79987C11.7088 5.73883 11.7418 5.65778 11.7418 5.57086C11.7418 5.48492 11.7088 5.40192 11.6468 5.33991L8.25584 1.94977C8.19182 1.8858 8.10884 1.8548 8.02483 1.8548Z" fill="#FF931E"/>
<path fill-rule="evenodd" clip-rule="evenodd" d="M11.3689 5.0625L8.53387 2.22656L9.65488 1.10449C9.81088 0.948486 10.0199 0.861572 10.2409 0.861572H10.2419C10.4629 0.861572 10.6719 0.948486 10.8289 1.10449L12.4909 2.76758C12.8139 3.09058 12.8139 3.61743 12.4909 3.94141L11.3689 5.0625ZM9.53989 2.22656L11.3689 4.0564L11.9869 3.4375C12.0339 3.39258 12.0339 3.31641 11.9869 3.27051L10.3259 1.60742C10.2959 1.57861 10.2599 1.57349 10.2419 1.57349C10.2409 1.55249 10.1889 1.57739 10.1589 1.60742L9.53989 2.22656Z" fill="#FF931E"/>
<path fill-rule="evenodd" clip-rule="evenodd" d="M4.34863 7.3855L2.09563 9.63843C1.61062 10.1245 1.61062 10.9116 2.09563 11.3975L2.19762 11.4995C2.68362 11.9856 3.47161 11.9856 3.95663 11.4995L8.82363 6.63257L4.34863 7.3855ZM4.02862 10.0115C3.76162 9.74561 3.76162 9.3125 4.02862 9.04541C4.29562 8.77954 4.72762 8.77954 4.99462 9.04541C5.26162 9.3125 5.26162 9.74561 4.99462 10.0115C4.72762 10.2786 4.29562 10.2786 4.02862 10.0115ZM4.65664 8.43457C4.45864 8.23657 4.45864 7.91553 4.65664 7.71753C4.85464 7.51953 5.17562 7.51953 5.37362 7.71753C5.57064 7.91553 5.57064 8.23657 5.37362 8.43457C5.17562 8.63159 4.85464 8.63159 4.65664 8.43457Z" fill="#FF931E"/>
</svg>
