<svg width="15" height="14" viewBox="0 0 15 14" fill="none" xmlns="http://www.w3.org/2000/svg">
<path fill-rule="evenodd" clip-rule="evenodd" d="M3.19368 4.27954C3.40968 4.27954 3.62568 4.23755 3.83468 4.15857C4.27668 4.83252 5.03968 5.27161 5.87668 5.27161C6.71168 5.27161 7.46768 4.84851 7.91268 4.16858C8.07868 4.24756 8.25568 4.30261 8.43968 4.33252C8.73468 5.05957 9.44568 5.57556 10.2767 5.57556C11.3707 5.57556 12.2607 4.68555 12.2607 3.59155C12.2607 2.60559 11.5367 1.7926 10.5947 1.63953C10.2947 0.89856 9.56968 0.393555 8.75968 0.393555C8.24868 0.393555 7.76668 0.590576 7.40268 0.932617C6.97268 0.587524 6.43868 0.393555 5.87668 0.393555C5.29168 0.393555 4.73468 0.604614 4.29668 0.978516L4.15368 0.883545C3.56368 0.519531 2.82968 0.517578 2.23768 0.877563C1.37268 1.40259 1.09668 2.53357 1.62268 3.39758C1.96768 3.96558 2.57368 4.27954 3.19368 4.27954ZM2.31468 2.23157C2.37168 1.99756 2.51668 1.79956 2.72268 1.67456C3.01268 1.49756 3.37368 1.49854 3.64968 1.66858L3.99868 1.90161C4.05868 1.9425 4.12568 1.96252 4.19368 1.97253C4.37668 2.05151 4.59568 2.01355 4.73168 1.85461C5.01868 1.51855 5.43568 1.32654 5.87668 1.32654C6.32468 1.32654 6.74568 1.52454 7.03368 1.86853C7.12568 1.97961 7.25868 2.03662 7.39168 2.03662C7.45668 2.03662 7.52068 2.01855 7.58168 1.9906C7.70168 1.9696 7.81268 1.90259 7.88568 1.7926C8.08168 1.50061 8.40868 1.32654 8.75968 1.32654C9.22268 1.32654 9.63668 1.6366 9.76768 2.08057C9.78368 2.13354 9.80868 2.18152 9.84068 2.22461C9.90368 2.40759 10.0727 2.54053 10.2767 2.54053C10.8557 2.54053 11.3277 3.0116 11.3277 3.59155C11.3277 4.17053 10.8557 4.6416 10.2767 4.6416C9.69768 4.6416 9.22568 4.17053 9.22568 3.59155C9.22568 3.33362 9.01668 3.12451 8.75968 3.12451C8.59468 3.12451 8.45668 3.21558 8.37368 3.3446C8.12868 3.24658 7.92068 3.06555 7.80568 2.8186C7.69668 2.58557 7.41968 2.48352 7.18568 2.59253C6.95168 2.70056 6.85068 2.97852 6.95968 3.21252C7.02068 3.34351 7.09868 3.46252 7.18468 3.57556C6.91968 4.04358 6.42468 4.33862 5.87668 4.33862C5.17768 4.33862 4.55968 3.8446 4.40768 3.16357C4.35068 2.9126 4.10268 2.75354 3.84968 2.81055C3.62368 2.8606 3.48168 3.06958 3.49468 3.29358C3.09968 3.43555 2.64568 3.28455 2.41968 2.91357C2.29468 2.70752 2.25768 2.46558 2.31468 2.23157Z" fill="#5F6580"/>
<path fill-rule="evenodd" clip-rule="evenodd" d="M13.8839 12.8054H13.4099V12.0564C13.4099 12.0055 13.4019 11.9554 13.3859 11.9075L12.0789 8.02747V6.88745C12.0789 6.63049 11.8699 6.42139 11.6119 6.42139H8.94789C8.69089 6.42139 8.48189 6.63049 8.48189 6.88745V8.02747L7.39889 11.2395C7.35089 11.3125 7.31589 11.3954 7.31489 11.4895L7.17489 11.9075C7.15789 11.9554 7.14989 12.0055 7.14989 12.0564V12.8054H4.71889V12.4104L5.72289 9.4314C5.73889 9.38342 5.74689 9.3324 5.74689 9.28247V8.80945H7.33689C7.59389 8.80945 7.80289 8.60144 7.80289 8.34338C7.80289 8.08545 7.59389 7.87646 7.33689 7.87646H5.27989C5.02289 7.87646 4.81389 8.08545 4.81389 8.34338V9.20544L3.80989 12.1844C3.79389 12.2324 3.78489 12.2825 3.78489 12.3335V12.8054H2.28889V12.7004L2.97489 10.6654C2.99089 10.6165 2.99889 10.5664 2.99889 10.5165V10.3335H3.54189C3.79989 10.3335 4.00889 10.1244 4.00889 9.86743C4.00889 9.6095 3.79989 9.40039 3.54189 9.40039H2.53289C2.27489 9.40039 2.06589 9.6095 2.06589 9.86743V10.4395L1.37989 12.4745C1.36389 12.5225 1.35589 12.5735 1.35589 12.6234V12.8054H0.816891C0.559891 12.8054 0.350891 13.0144 0.350891 13.2725C0.350891 13.5304 0.559891 13.7395 0.816891 13.7395H1.82189H4.25189H4.66289H7.61689H8.36489H12.9439H13.8839C14.1419 13.7395 14.3509 13.5304 14.3509 13.2725C14.3509 13.0144 14.1419 12.8054 13.8839 12.8054ZM12.4769 12.8054H8.36489H8.08289V12.1324L8.14189 11.9595H9.89789C10.1559 11.9595 10.3649 11.7505 10.3649 11.4924C10.3649 11.2355 10.1559 11.0265 9.89789 11.0265H8.45589L9.09389 9.1344H9.89789C10.1559 9.1344 10.3649 8.92542 10.3649 8.66748C10.3649 8.40942 10.1559 8.20044 9.89789 8.20044H9.39889C9.40589 8.16846 9.41489 8.13647 9.41489 8.10449V7.35449H11.1449V8.10449C11.1449 8.15442 11.1529 8.20544 11.1699 8.25342L12.4769 12.1324V12.8054Z" fill="#5F6580"/>
</svg>
