<svg width="22" height="22" viewBox="0 0 22 22" fill="none" xmlns="http://www.w3.org/2000/svg">
<path d="M20.1412 20.3501L20.3485 20.1427C20.8782 19.613 20.8782 18.7542 20.3485 18.2245L3.0847 0.960679C2.55501 0.430983 1.69621 0.430969 1.16651 0.960666L0.959135 1.16804C0.429438 1.69774 0.429452 2.55654 0.959148 3.08623L18.223 20.35C18.7527 20.8797 19.6115 20.8798 20.1412 20.3501Z" fill="currentColor"/>
<path d="M0.958983 20.1401L1.16636 20.3475C1.69606 20.8772 2.55489 20.8772 3.08459 20.3475L20.3484 3.08373C20.8781 2.55403 20.8781 1.69519 20.3484 1.1655L20.141 0.958119C19.6113 0.428422 18.7525 0.428436 18.2228 0.958132L0.958995 18.2219C0.429298 18.7516 0.429286 19.6104 0.958983 20.1401Z" fill="currentColor"/>
</svg>
