<svg width="18" height="18" viewBox="0 0 18 18" fill="none" xmlns="http://www.w3.org/2000/svg">
<path d="M12.9613 1.66848C13.1732 1.45654 13.4248 1.28843 13.7017 1.17373C13.9786 1.05903 14.2754 1 14.5751 1C14.8748 1 15.1716 1.05903 15.4485 1.17373C15.7254 1.28843 15.977 1.45654 16.1889 1.66848C16.4009 1.88041 16.569 2.13201 16.6837 2.40891C16.7984 2.68582 16.8574 2.9826 16.8574 3.28232C16.8574 3.58204 16.7984 3.87882 16.6837 4.15573C16.569 4.43263 16.4009 4.68423 16.1889 4.89617L5.29549 15.7896L0.857422 17L2.06781 12.5619L12.9613 1.66848Z" stroke="currentColor" stroke-width="1.14286" stroke-linecap="round" stroke-linejoin="round"/>
<rect x="14.5801" y="2.80998" width="0.573726" height="3.53321" rx="0.286863" transform="rotate(45 14.5801 2.80998)" fill="currentColor" stroke="currentColor" stroke-width="0.573726"/>
</svg>
