<svg width="346" height="219" viewBox="0 0 346 219" fill="none" xmlns="http://www.w3.org/2000/svg">
<path fill-rule="evenodd" clip-rule="evenodd" d="M189.361 2.05827C189.361 3.19502 188.439 4.11654 187.302 4.11654C186.166 4.11654 185.244 3.19502 185.244 2.05827C185.244 0.921519 186.166 0 187.302 0C188.439 0 189.361 0.921519 189.361 2.05827ZM188.537 2.05827C188.537 2.74032 187.984 3.29323 187.302 3.29323C186.62 3.29323 186.067 2.74032 186.067 2.05827C186.067 1.37622 186.62 0.823308 187.302 0.823308C187.984 0.823308 188.537 1.37622 188.537 2.05827Z" fill="currentColor"/>
<path fill-rule="evenodd" clip-rule="evenodd" d="M115.263 26.7575C115.263 27.8943 114.341 28.8158 113.205 28.8158C112.068 28.8158 111.146 27.8943 111.146 26.7575C111.146 25.6208 112.068 24.6993 113.205 24.6993C114.341 24.6993 115.263 25.6208 115.263 26.7575ZM114.439 26.7575C114.439 27.4396 113.887 27.9925 113.205 27.9925C112.522 27.9925 111.97 27.4396 111.97 26.7575C111.97 26.0755 112.522 25.5226 113.205 25.5226C113.887 25.5226 114.439 26.0755 114.439 26.7575Z" fill="currentColor"/>
<path fill-rule="evenodd" clip-rule="evenodd" d="M231.761 92.2105C232.898 92.2105 233.819 91.289 233.819 90.1523C233.819 89.0155 232.898 88.094 231.761 88.094C230.624 88.094 229.703 89.0155 229.703 90.1523C229.703 91.289 230.624 92.2105 231.761 92.2105ZM231.761 91.3872C232.443 91.3872 232.996 90.8343 232.996 90.1523C232.996 89.4702 232.443 88.9173 231.761 88.9173C231.079 88.9173 230.526 89.4702 230.526 90.1523C230.526 90.8343 231.079 91.3872 231.761 91.3872Z" fill="currentColor"/>
<path fill-rule="evenodd" clip-rule="evenodd" d="M140.785 92.6222C140.785 93.7589 139.864 94.6805 138.727 94.6805C137.59 94.6805 136.669 93.7589 136.669 92.6222C136.669 91.4854 137.59 90.5639 138.727 90.5639C139.864 90.5639 140.785 91.4854 140.785 92.6222ZM139.962 92.6222C139.962 93.3042 139.409 93.8572 138.727 93.8572C138.045 93.8572 137.492 93.3042 137.492 92.6222C137.492 91.9401 138.045 91.3872 138.727 91.3872C139.409 91.3872 139.962 91.9401 139.962 92.6222Z" fill="currentColor"/>
<path fill-rule="evenodd" clip-rule="evenodd" d="M302.565 182.774C303.702 182.774 304.624 181.853 304.624 180.716C304.624 179.579 303.702 178.658 302.565 178.658C301.429 178.658 300.507 179.579 300.507 180.716C300.507 181.853 301.429 182.774 302.565 182.774ZM302.565 181.951C303.247 181.951 303.8 181.398 303.8 180.716C303.8 180.034 303.247 179.481 302.565 179.481C301.883 179.481 301.33 180.034 301.33 180.716C301.33 181.398 301.883 181.951 302.565 181.951Z" fill="currentColor"/>
<path fill-rule="evenodd" clip-rule="evenodd" d="M291.451 44.047C291.451 45.1837 290.529 46.1053 289.392 46.1053C288.256 46.1053 287.334 45.1837 287.334 44.047C287.334 42.9102 288.256 41.9887 289.392 41.9887C290.529 41.9887 291.451 42.9102 291.451 44.047ZM290.627 44.047C290.627 44.729 290.075 45.282 289.392 45.282C288.71 45.282 288.158 44.729 288.158 44.047C288.158 43.3649 288.71 42.812 289.392 42.812C290.075 42.812 290.627 43.3649 290.627 44.047Z" fill="currentColor"/>
<path fill-rule="evenodd" clip-rule="evenodd" d="M85.212 129.259C86.3488 129.259 87.2703 128.338 87.2703 127.201C87.2703 126.064 86.3488 125.143 85.212 125.143C84.0753 125.143 83.1538 126.064 83.1538 127.201C83.1538 128.338 84.0753 129.259 85.212 129.259ZM85.212 128.436C85.8941 128.436 86.447 127.883 86.447 127.201C86.447 126.519 85.8941 125.966 85.212 125.966C84.53 125.966 83.9771 126.519 83.9771 127.201C83.9771 127.883 84.53 128.436 85.212 128.436Z" fill="currentColor"/>
<path fill-rule="evenodd" clip-rule="evenodd" d="M45.2816 93.4455C45.2816 94.5823 44.3601 95.5038 43.2233 95.5038C42.0866 95.5038 41.165 94.5823 41.165 93.4455C41.165 92.3087 42.0866 91.3872 43.2233 91.3872C44.3601 91.3872 45.2816 92.3087 45.2816 93.4455ZM44.4583 93.4455C44.4583 94.1275 43.9054 94.6805 43.2233 94.6805C42.5413 94.6805 41.9883 94.1275 41.9883 93.4455C41.9883 92.7634 42.5413 92.2105 43.2233 92.2105C43.9054 92.2105 44.4583 92.7634 44.4583 93.4455Z" fill="currentColor"/>
<path d="M223.845 4.13004L222.744 7.50109C222.38 8.61379 221.376 9.39311 220.208 9.46889C218.704 9.56647 217.411 10.5699 216.943 12.0026L215.842 15.3737C215.771 15.5898 215.889 15.8222 216.105 15.8928C216.321 15.9634 216.554 15.8454 216.624 15.6293L217.725 12.2583C218.089 11.1456 219.093 10.3663 220.261 10.2905C221.765 10.1929 223.058 9.18944 223.526 7.75673L224.628 4.38568C224.698 4.16957 224.58 3.93715 224.364 3.86655C224.148 3.79596 223.916 3.91393 223.845 4.13004Z" fill="currentColor"/>
<path d="M280.52 70.558L282.845 68.4188C283.012 68.2649 283.023 68.0045 282.869 67.8371C282.715 67.6698 282.455 67.659 282.287 67.8129L279.962 69.9521C278.687 71.1247 278.306 72.9814 279.016 74.5615C279.58 75.8182 279.277 77.2951 278.263 78.2278L275.937 80.3669C275.77 80.5209 275.759 80.7813 275.913 80.9486C276.067 81.1159 276.327 81.1268 276.495 80.9729L278.82 78.8337C280.095 77.661 280.476 75.8043 279.767 74.2243C279.202 72.9675 279.506 71.4907 280.52 70.558Z" fill="currentColor"/>
<path d="M45.7801 67.7689L47.3413 70.5158C48.022 71.7135 49.3927 72.3412 50.7442 72.0742C52.4434 71.7385 54.1667 72.5277 55.0225 74.0335L56.5837 76.7805C56.6961 76.9781 56.6269 77.2294 56.4292 77.3418C56.2316 77.4541 55.9803 77.3849 55.868 77.1873L54.3067 74.4403C53.626 73.2426 52.2553 72.6149 50.9038 72.8819C49.2047 73.2176 47.4813 72.4284 46.6255 70.9226L45.0643 68.1757C44.9519 67.978 45.0211 67.7267 45.2188 67.6144C45.4164 67.502 45.6677 67.5712 45.7801 67.7689Z" fill="currentColor"/>
<path d="M85.7914 69.6134C84.6801 69.7676 83.7501 68.7767 83.9745 67.6774L84.2218 66.4661C84.2673 66.2434 84.1235 66.0259 83.9008 65.9804C83.678 65.935 83.4606 66.0787 83.4151 66.3014L83.1679 67.5128C82.8298 69.1686 84.2306 70.6612 85.9046 70.4289L85.992 70.4167C87.0998 70.263 88.0076 71.2856 87.7234 72.3674C87.2901 74.0173 88.6746 75.5772 90.3643 75.3426C91.4721 75.1888 92.3799 76.2115 92.0958 77.2932C91.6624 78.9432 93.047 80.5031 94.7367 80.2685C95.8445 80.1147 96.7522 81.1374 96.4681 82.2191C96.0347 83.8691 97.4193 85.4289 99.109 85.1944C100.217 85.0406 101.125 86.0633 100.84 87.145C100.407 88.7949 101.792 90.3548 103.481 90.1203L103.569 90.1081C104.68 89.9539 105.61 90.9448 105.386 92.0441L105.138 93.2554C105.093 93.4782 105.237 93.6956 105.459 93.7411C105.682 93.7865 105.9 93.6428 105.945 93.4201L106.192 92.2087C106.53 90.5529 105.13 89.0603 103.456 89.2926L103.368 89.3048C102.26 89.4585 101.353 88.4359 101.637 87.3541C102.07 85.7042 100.686 84.1443 98.9958 84.3789C97.888 84.5327 96.9803 83.51 97.2644 82.4283C97.6978 80.7783 96.3132 79.2185 94.6235 79.453C93.5157 79.6068 92.6079 78.5841 92.8921 77.5024C93.3254 75.8524 91.9409 74.2926 90.2511 74.5271C89.1434 74.6809 88.2356 73.6582 88.5197 72.5765C88.9531 70.9266 87.5685 69.3667 85.8788 69.6012L85.7914 69.6134Z" fill="currentColor"/>
<path d="M253.646 31.5604C252.552 31.8068 252.03 33.0615 252.626 34.0117L252.673 34.0864C253.58 35.5311 252.726 37.4338 251.044 37.7155C249.94 37.9002 249.38 39.1476 249.975 40.0948C250.882 41.5395 250.028 43.4422 248.345 43.7239C247.242 43.9086 246.682 45.1561 247.277 46.1032C248.184 47.5479 247.33 49.4506 245.647 49.7323C244.544 49.917 243.984 51.1645 244.579 52.1116C245.486 53.5563 244.631 55.459 242.949 55.7407C241.846 55.9255 241.286 57.1729 241.88 58.12L241.927 58.1948C242.826 59.626 242.039 61.5159 240.391 61.887L239.185 62.1585C238.963 62.2085 238.743 62.0691 238.693 61.8473C238.643 61.6255 238.782 61.4052 239.004 61.3553L240.21 61.0838C241.305 60.8374 241.827 59.5828 241.23 58.6326L241.183 58.5579C240.276 57.1132 241.13 55.2105 242.813 54.9287C243.916 54.744 244.476 53.4966 243.881 52.5494C242.974 51.1047 243.829 49.2021 245.511 48.9203C246.614 48.7356 247.174 47.4882 246.58 46.541C245.672 45.0963 246.527 43.1937 248.209 42.9119C249.312 42.7272 249.873 41.4798 249.278 40.5326C248.371 39.0879 249.225 37.1852 250.908 36.9035C252.011 36.7188 252.571 35.4714 251.976 34.5242L251.929 34.4495C251.03 33.0182 251.817 31.1284 253.466 30.7572L254.672 30.4857C254.894 30.4358 255.114 30.5751 255.164 30.7969C255.214 31.0187 255.074 31.239 254.853 31.2889L253.646 31.5604Z" fill="currentColor"/>
<path d="M136.571 5.23356C135.495 4.91768 135.054 3.63221 135.71 2.72213L136.433 1.71931C136.566 1.53489 136.524 1.27761 136.34 1.14464C136.155 1.01168 135.898 1.05339 135.765 1.2378L135.042 2.24062C134.054 3.61147 134.718 5.54776 136.339 6.02357L136.424 6.04841C137.497 6.36328 137.905 7.66858 137.201 8.5381C136.128 9.86437 136.75 11.8553 138.387 12.3356C139.46 12.6505 139.868 13.9558 139.164 14.8253C138.091 16.1516 138.713 18.1425 140.35 18.6228C141.423 18.9377 141.83 20.243 141.127 21.1125C140.054 22.4388 140.676 24.4297 142.313 24.91C143.386 25.2249 143.793 26.5302 143.09 27.3997C142.017 28.726 142.639 30.7169 144.275 31.1972L144.36 31.222C145.437 31.5379 145.878 32.8234 145.221 33.7335L144.498 34.7363C144.365 34.9207 144.407 35.178 144.591 35.311C144.776 35.4439 145.033 35.4022 145.166 35.2178L145.889 34.215C146.878 32.8441 146.214 30.9078 144.592 30.432L144.507 30.4072C143.434 30.0923 143.027 28.787 143.73 27.9175C144.803 26.5912 144.181 24.6003 142.544 24.12C141.471 23.8051 141.064 22.4998 141.767 21.6303C142.84 20.304 142.218 18.3131 140.582 17.8328C139.508 17.5179 139.101 16.2126 139.804 15.3431C140.877 14.0168 140.256 12.0259 138.619 11.5456C137.546 11.2307 137.138 9.92543 137.841 9.05591C138.914 7.72964 138.293 5.73868 136.656 5.2584L136.571 5.23356Z" fill="currentColor"/>
<path d="M276.631 116.91C278.45 116.91 279.924 115.435 279.924 113.617C279.924 111.798 278.45 110.323 276.631 110.323C274.812 110.323 273.338 111.798 273.338 113.617C273.338 115.435 274.812 116.91 276.631 116.91Z" fill="currentColor"/>
<path d="M72.4508 189.361C74.2696 189.361 75.744 187.886 75.744 186.068C75.744 184.249 74.2696 182.774 72.4508 182.774C70.632 182.774 69.1575 184.249 69.1575 186.068C69.1575 187.886 70.632 189.361 72.4508 189.361Z" fill="currentColor"/>
<path fill-rule="evenodd" clip-rule="evenodd" d="M203.357 57.6316C203.357 62.6333 199.302 66.688 194.3 66.688C193.445 66.688 192.616 66.5693 191.832 66.3474C192.573 68.2238 192.98 70.2686 192.98 72.4084C192.98 75.5693 192.091 78.5228 190.551 81.0327C189.626 82.5387 188.467 83.885 187.124 85.0206C184.249 87.4518 180.531 88.9174 176.471 88.9174C167.809 88.9174 160.705 82.2472 160.016 73.7632C158.9 73.5527 158.075 72.8148 158.075 71.9367C158.075 71.031 158.952 70.2743 160.123 70.0919C161.03 63.629 165.68 58.3668 171.81 56.5663C173.288 56.1322 174.852 55.8993 176.471 55.8993C179.71 55.8993 182.731 56.8321 185.28 58.4436C185.256 58.1761 185.244 57.9053 185.244 57.6316C185.244 52.6299 189.299 48.5752 194.3 48.5752C199.302 48.5752 203.357 52.6299 203.357 57.6316ZM170.345 58.8632C165.798 60.9227 162.472 65.2038 161.753 70.3208L161.584 71.5307L160.376 71.7188C160.102 71.7616 159.91 71.8557 159.8 71.9367C159.901 72.0111 160.074 72.0984 160.321 72.1451L161.556 72.3778L161.658 73.6299C162.278 81.266 168.674 87.2708 176.471 87.2708C179.882 87.2708 183.024 86.1218 185.532 84.1897C183.259 82.9141 181.171 81.3483 179.318 79.5425C179.685 79.1471 180.014 78.6862 180.285 78.1686C181.554 75.7457 181.087 72.9975 179.241 72.0303C177.756 71.2526 175.833 71.8633 174.476 73.392C171.944 69.1216 170.451 64.1626 170.345 58.8632ZM159.702 72.0292C159.702 72.0292 159.703 72.0279 159.705 72.0252C159.704 72.0266 159.702 72.0292 159.702 72.0292Z" fill="currentColor"/>
<path fill-rule="evenodd" clip-rule="evenodd" d="M105.383 135.023L85.6237 173.718L105.383 178.014V202.534L181.127 219L181.951 218.801V218.799L248.639 202.534V175.626L273.338 169.602L248.639 135.023L213.98 127.488C210.019 106.848 195.048 91.9784 178.632 93.4147C178.357 93.4387 178.083 93.4672 177.81 93.5001L177.834 93.4454C165.879 94.9399 147.141 104.234 140.087 126.558L105.383 135.023ZM106.273 136.901L88.0623 172.563L160.478 188.306L178.689 152.644L106.273 136.901ZM109.057 135.821L137.386 141.98C137.472 139.571 137.766 136.853 138.315 133.788C138.651 131.911 139.064 130.111 139.544 128.385L109.057 135.821ZM214.288 129.24C214.496 130.549 214.66 131.879 214.778 133.228C215.079 136.665 215.062 140.033 214.759 143.286L244.986 135.914L214.288 129.24ZM155.163 145.391C155.159 145.549 155.157 145.7 155.155 145.843L153.514 145.486L153.517 145.353C153.55 143.921 153.657 141.9 153.957 139.542C154.555 134.836 155.923 128.734 159.026 123.263C159.25 122.868 159.753 122.729 160.148 122.953C160.544 123.178 160.682 123.68 160.458 124.076C157.502 129.288 156.174 135.156 155.59 139.75C155.299 142.042 155.195 144.004 155.163 145.391ZM180.304 153.101V217.136L107.03 201.207V178.372L161.368 190.184L180.304 153.101ZM246.992 201.241L181.951 217.104V152.983L182.158 152.932L205.827 186.068L246.992 176.027V201.241ZM206.519 184.204L183.882 152.512L247.946 136.886L270.584 168.578L206.519 184.204Z" fill="currentColor"/>
</svg>
