<svg width="18" height="12" viewBox="0 0 18 12" fill="none" xmlns="http://www.w3.org/2000/svg">
<path d="M7 5.34961C7 4.24961 7.9 3.34961 9 3.34961C10.1 3.34961 11 4.24961 11 5.34961C11 6.44961 10.1 8.19961 9 8.19961C7.9 8.19961 7 6.44961 7 5.34961Z" stroke="#8C99B2" stroke-miterlimit="10" stroke-linecap="round" stroke-linejoin="round"/>
<path d="M10.2498 7.5498C11.6998 7.9998 12.7998 9.2998 12.9998 10.8498C13.0498 11.1498 12.7998 11.3998 12.5498 11.3998H5.44984C5.14984 11.3998 4.94984 11.1498 4.99984 10.8498C5.19984 9.2998 6.24984 8.0498 7.69984 7.5498" stroke="#8C99B2" stroke-miterlimit="10" stroke-linecap="round" stroke-linejoin="round"/>
<path d="M11.5 2.29961C11.5 1.34961 12.25 0.599609 13.2 0.599609C14.15 0.599609 14.9 1.34961 14.9 2.29961C14.9 3.24961 14.15 4.64961 13.2 4.64961" stroke="#8C99B2" stroke-miterlimit="10" stroke-linecap="round" stroke-linejoin="round"/>
<path d="M14.1998 4.09961C15.3998 4.49961 16.3498 5.54961 16.4998 6.84961C16.5498 7.09961 16.3498 7.29961 16.0998 7.29961H13.5498" stroke="#8C99B2" stroke-miterlimit="10" stroke-linecap="round" stroke-linejoin="round"/>
<path d="M6.50039 2.29961C6.50039 1.34961 5.75039 0.599609 4.80039 0.599609C3.85039 0.599609 3.15039 1.34961 3.15039 2.29961C3.15039 3.24961 3.90039 4.64961 4.85039 4.64961" stroke="#8C99B2" stroke-miterlimit="10" stroke-linecap="round" stroke-linejoin="round"/>
<path d="M3.7999 4.09961C2.5999 4.49961 1.6499 5.59961 1.4999 6.89961C1.4499 7.14961 1.6499 7.34961 1.8999 7.34961H4.4499" stroke="#8C99B2" stroke-miterlimit="10" stroke-linecap="round" stroke-linejoin="round"/>
</svg>
