<svg width="16" height="16" viewBox="0 0 16 16" fill="none" xmlns="http://www.w3.org/2000/svg">
<circle cx="8" cy="8" r="7.5" fill="#1C1F2B" stroke="#4B5169"/>
<path d="M8.11688 8.01552C8.11759 7.98154 8.11176 7.94776 8.0997 7.9162C8.08764 7.88464 8.06961 7.85595 8.04671 7.83185L5.2269 4.87937C5.20397 4.85423 5.17641 4.8342 5.14588 4.82053C5.11535 4.80686 5.0825 4.7998 5.04929 4.7998C5.01609 4.7998 4.98323 4.80686 4.95271 4.82053C4.92218 4.8342 4.89462 4.85423 4.87169 4.87937C4.82562 4.92834 4.7998 4.99431 4.7998 5.06304C4.7998 5.13177 4.82562 5.19774 4.87169 5.2467L7.50293 8.00175L4.87169 10.7568C4.82562 10.8058 4.7998 10.8717 4.7998 10.9405C4.7998 11.0092 4.82562 11.0752 4.87169 11.1241C4.91919 11.1726 4.98293 11.1998 5.04929 11.1998C5.11566 11.1998 5.1794 11.1726 5.2269 11.1241L8.04671 8.17164C8.08628 8.1294 8.11102 8.07437 8.11688 8.01552Z" fill="#606580"/>
<path d="M11.4367 8.01517C11.4374 7.98119 11.4316 7.94741 11.4195 7.91585C11.4075 7.88429 11.3895 7.8556 11.3666 7.8315L8.54235 4.87902C8.5198 4.854 8.49262 4.83407 8.46245 4.82045C8.43229 4.80682 8.39979 4.7998 8.36694 4.7998C8.33409 4.7998 8.30159 4.80682 8.27142 4.82045C8.24126 4.83407 8.21407 4.854 8.19152 4.87902C8.14546 4.92798 8.11963 4.99395 8.11963 5.06269C8.11963 5.13142 8.14546 5.19739 8.19152 5.24635L10.8228 8.00139L8.19152 10.7564C8.15403 10.8068 8.1354 10.8697 8.13915 10.9335C8.14291 10.9972 8.16877 11.0573 8.21189 11.1024C8.25501 11.1476 8.3124 11.1747 8.37327 11.1786C8.43413 11.1825 8.49426 11.163 8.54235 11.1238L11.3666 8.17129C11.4061 8.12905 11.4309 8.07402 11.4367 8.01517Z" fill="#606580"/>
</svg>
