<svg width="15" height="19" viewBox="0 0 15 19" fill="none" xmlns="http://www.w3.org/2000/svg">
<path d="M13.1408 9.32187V6.05625C11.2408 4.15625 10.1721 3.0875 8.27207 1.1875H1.8002C1.20645 1.1875 0.731445 1.6625 0.731445 2.25625V16.4469C0.731445 17.0406 1.20645 17.5156 1.8002 17.5156H4.6502" stroke="#8C99B2" stroke-miterlimit="10" stroke-linecap="round" stroke-linejoin="round"/>
<path d="M7.85645 1.1875V6.4125H13.1408" stroke="#8C99B2" stroke-miterlimit="10" stroke-linecap="round" stroke-linejoin="round"/>
<path d="M10.3502 10.3311C10.2314 10.3311 10.1127 10.3904 10.0533 10.5092C10.0533 10.5092 10.0533 10.5686 9.99395 10.5686C9.6377 11.2217 9.34082 11.8748 8.98457 12.5873C8.98457 12.6467 8.9252 12.6467 8.9252 12.6467C8.62832 12.7061 8.33145 12.7061 8.03457 12.7654C7.55957 12.8248 7.08457 12.8842 6.60957 12.9436C6.43145 12.9436 6.37207 13.1217 6.37207 13.2404C6.37207 13.2998 6.43145 13.4186 6.49082 13.4779C7.0252 14.0123 7.55957 14.5467 8.09395 15.0217C8.15332 15.0811 8.15332 15.0811 8.15332 15.1404C8.03457 15.7342 7.91582 16.3279 7.85645 16.9217C7.79707 17.0998 7.79707 17.2779 7.79707 17.4561C7.79707 17.5154 7.79707 17.5154 7.79707 17.5154C7.85645 17.6342 7.9752 17.7529 8.09395 17.7529C8.15332 17.7529 8.21269 17.7529 8.27207 17.6936C8.92519 17.3373 9.6377 16.9811 10.2908 16.6248H10.3502H10.4096C11.0627 16.9811 11.7752 17.3373 12.4283 17.6936C12.4877 17.6936 12.5471 17.7529 12.6064 17.7529C12.6658 17.7529 12.7252 17.7529 12.7846 17.6936C12.9033 17.6342 12.9033 17.5154 12.9033 17.3967C12.7846 16.6248 12.6658 15.9123 12.4877 15.1404C12.4877 15.0811 12.4877 15.0217 12.5471 15.0217C13.0814 14.4873 13.6158 13.9529 14.1502 13.4186C14.2689 13.2998 14.2689 13.2404 14.2689 13.1217C14.2096 13.0029 14.1502 12.9436 14.0314 12.8842C13.2596 12.7654 12.5471 12.6467 11.7752 12.5279C11.7158 12.5279 11.7158 12.5279 11.6564 12.4686C11.4783 12.1123 11.3002 11.7561 11.1221 11.3404C10.9439 11.0436 10.8252 10.6873 10.6471 10.3904C10.5877 10.3904 10.5283 10.3311 10.3502 10.3311Z" stroke="#8C99B2" stroke-miterlimit="10" stroke-linecap="round" stroke-linejoin="round"/>
</svg>
