<svg width="23" height="23" viewBox="0 0 23 23" fill="none" xmlns="http://www.w3.org/2000/svg">
<path d="M22.475 21.1823L18.6079 17.4016L18.5173 17.2637C18.3488 17.0959 18.1183 17.0014 17.8778 17.0014C17.6373 17.0014 17.4069 17.0959 17.2383 17.2637C13.9519 20.2788 8.88792 20.4426 5.40476 17.6467C1.9216 14.8507 1.10013 9.96254 3.48515 6.22394C5.87016 2.48534 10.7216 1.05645 14.822 2.8849C18.9223 4.71335 20.9993 9.23177 19.6754 13.4435C19.5801 13.7478 19.658 14.0787 19.8798 14.3116C20.1017 14.5444 20.4337 14.6439 20.7509 14.5725C21.0681 14.5011 21.3222 14.2696 21.4176 13.9654C23.0002 8.96723 20.61 3.5885 15.7931 1.30869C10.9763 -0.971118 5.17844 0.532177 2.15019 4.84609C-0.878071 9.16001 -0.227924 14.9899 3.68005 18.5644C7.58802 22.139 13.581 22.3854 17.7821 19.1443L21.2061 22.4918C21.5597 22.8361 22.1314 22.8361 22.4851 22.4918C22.8383 22.1427 22.8383 21.5807 22.4851 21.2316L22.475 21.1823Z" fill="#606580"/>
</svg>
