<svg width="32" height="32" viewBox="0 0 32 32" fill="none" xmlns="http://www.w3.org/2000/svg">
<path d="M28.4 14.6808C28.2 10.2808 25.5 6.08079 21.2 4.18079C18 2.68079 14.6 2.68079 11.6 3.78079" stroke="#4B5169" stroke-width="2" stroke-miterlimit="10" stroke-linecap="round" stroke-linejoin="round"/>
<path d="M30.5 14.4808L28.2999 16.6808L26.2 14.4808" stroke="#4B5169" stroke-width="2" stroke-miterlimit="10" stroke-linecap="round" stroke-linejoin="round"/>
<path d="M3.59998 16.2808C3.89998 20.6808 6.49998 24.7808 10.8 26.7808C13.9 28.1808 17.3 28.2808 20.2 27.1808" stroke="#4B5169" stroke-width="2" stroke-miterlimit="10" stroke-linecap="round" stroke-linejoin="round"/>
<path d="M1.5 16.4808L3.7 14.2808L5.8 16.4808" stroke="#4B5169" stroke-width="2" stroke-miterlimit="10" stroke-linecap="round" stroke-linejoin="round"/>
<path d="M20.6 16.9808C20.3 12.4808 16 8.98083 16 8.98083C16 8.98083 11.7 12.4808 11.4 16.9808C11.4 17.1808 11.4 17.2808 11.4 17.4808C11.4 19.9808 13.5 22.0808 16 22.0808C18.5 22.0808 20.6 19.9808 20.6 17.4808C20.6 17.2808 20.6 17.1808 20.6 16.9808Z" stroke="#4B5169" stroke-width="2" stroke-miterlimit="10" stroke-linecap="round" stroke-linejoin="round"/>
</svg>
