<svg width="50" height="50" viewBox="0 0 50 50" fill="none" xmlns="http://www.w3.org/2000/svg">
<path d="M14.7865 29.7695L3.63635 23.332V10.4163L14.7865 4.01953L25.9367 10.4163V23.2912L14.7865 29.7695ZM5.94516 22.001L14.7865 27.1076L23.6279 22.001V11.7744L14.7865 6.69503L5.94516 11.7744V22.001Z" fill="#0089FF"/>
<path d="M36.1225 29.7692L24.9724 23.3317V10.416L36.1225 3.97852L47.2727 10.416V23.291L36.1225 29.7692ZM27.2812 22.0008L36.1225 27.1073L44.9639 22.0008V11.7741L36.1225 6.69475L27.2812 11.7741V22.0008Z" fill="#0089FF"/>
<path d="M25.4614 48.4434L14.3112 42.0059V29.131L25.4614 22.6392L36.6115 29.0766V41.9516L25.4614 48.4434ZM16.62 40.675L25.4614 45.7272L34.2892 40.6342V30.4619L25.4614 25.3554L16.62 30.4619V40.675Z" fill="#0089FF"/>
<path d="M35.6337 14.0967L25.6108 4.07373L15.6014 14.0967C13.6203 16.0777 12.2712 18.6017 11.7246 21.3495C11.178 24.0972 11.4585 26.9454 12.5306 29.5338C13.6027 32.1222 15.4183 34.3345 17.7478 35.891C20.0772 37.4475 22.8159 38.2783 25.6176 38.2783C28.4192 38.2783 31.1579 37.4475 33.4874 35.891C35.8168 34.3345 37.6324 32.1222 38.7045 29.5338C39.7766 26.9454 40.0571 24.0972 39.5105 21.3495C38.9639 18.6017 37.6148 16.0777 35.6337 14.0967Z" fill="#272A38"/>
<path d="M25.6107 40.5255C22.3638 40.5272 19.1895 39.5655 16.4895 37.762C13.7895 35.9585 11.6854 33.3945 10.4435 30.3945C9.20165 27.3945 8.87787 24.0935 9.51317 20.9094C10.1485 17.7252 11.7143 14.8012 14.0124 12.5075L25.6107 0.90918L37.2226 12.5075C39.5149 14.8046 41.0751 17.7294 41.7062 20.9125C42.3373 24.0957 42.0111 27.3945 40.7686 30.3924C39.5262 33.3903 37.4233 35.9528 34.7254 37.7563C32.0276 39.5598 28.8558 40.5234 25.6107 40.5255ZM25.6107 7.23802L17.2175 15.6855C15.5478 17.355 14.4107 19.4821 13.9499 21.7979C13.4891 24.1137 13.7254 26.5141 14.6289 28.6955C15.5324 30.877 17.0625 32.7415 19.0257 34.0534C20.9889 35.3652 23.2971 36.0654 25.6582 36.0654C28.0194 36.0654 30.3275 35.3652 32.2908 34.0534C34.254 32.7415 35.7841 30.877 36.6876 28.6955C37.5911 26.5141 37.8274 24.1137 37.3666 21.7979C36.9058 19.4821 35.7687 17.355 34.099 15.6855L25.6107 7.23802Z" fill="#272A38"/>
<path d="M37.9289 17.7091C38.1619 17.3951 38.2859 17.0136 38.282 16.6226C38.282 16.1255 38.0845 15.6488 37.7331 15.2973C37.3816 14.9459 36.9049 14.7484 36.4078 14.7484C36.2236 14.7479 36.0405 14.7754 35.8645 14.8299L35.525 14.4904L30.9753 9.92707L26.5614 5.51318L25.6107 4.5625L24.6601 5.51318L15.71 14.4904L15.3977 14.8163C15.2713 14.8023 15.1438 14.8023 15.0174 14.8163C14.5319 14.816 14.0652 15.0041 13.7156 15.341C13.366 15.678 13.1608 16.1374 13.1432 16.6226C13.1383 16.9471 13.2229 17.2666 13.3877 17.5461C12.2684 19.5532 11.6598 21.8048 11.6155 24.1025C11.5712 26.4002 12.0926 28.6735 13.1338 30.7223C14.1749 32.771 15.7039 34.5324 17.586 35.8511C19.4681 37.1698 21.6456 38.0055 23.9267 38.2846C24.0438 38.6688 24.2813 39.0051 24.604 39.2442C24.9268 39.4832 25.3178 39.6122 25.7194 39.6122C26.121 39.6122 26.512 39.4832 26.8348 39.2442C27.1575 39.0051 27.395 38.6688 27.5121 38.2846C27.9603 38.2167 28.4085 38.1352 28.8702 38.0266C28.9804 38.011 29.0865 37.9741 29.1826 37.9179C29.5629 37.8183 29.9296 37.7097 30.2827 37.592C32.1988 36.9241 33.947 35.8477 35.406 34.4373C36.8649 33.027 38 31.3163 38.7324 29.4239C39.4648 27.5314 39.7772 25.5024 39.6478 23.4773C39.5185 21.4522 38.9505 19.4794 37.9832 17.6955L37.9289 17.7091ZM36.4078 15.6176H36.5572C36.7959 15.6506 37.0145 15.7695 37.172 15.9519C37.3295 16.1344 37.4151 16.368 37.4128 16.609C37.42 16.6677 37.42 16.7269 37.4128 16.7856C37.3716 17.0195 37.25 17.2317 37.069 17.3855C36.888 17.5392 36.6589 17.6249 36.4214 17.6276H36.3535C36.0964 17.6137 35.8546 17.5017 35.6777 17.3147C35.5008 17.1277 35.4024 16.88 35.4028 16.6226C35.3897 16.5371 35.3897 16.4501 35.4028 16.3646C35.4588 16.1434 35.5894 15.9484 35.7724 15.8123C35.9555 15.6763 36.1799 15.6075 36.4078 15.6176ZM14.0124 16.514C14.0363 16.2655 14.1531 16.0351 14.3394 15.869C14.5257 15.7028 14.7678 15.613 15.0174 15.6176C15.2113 15.6155 15.4016 15.6695 15.5655 15.7731C15.7293 15.8767 15.8597 16.0255 15.9409 16.2016C16.0012 16.3339 16.0335 16.4772 16.036 16.6226C16.0325 16.8917 15.924 17.1487 15.7338 17.339C15.5435 17.5292 15.2865 17.6377 15.0174 17.6412H14.8952C14.6515 17.6084 14.4279 17.4886 14.2657 17.3039C14.1034 17.1192 14.0135 16.882 14.0124 16.6362V16.514ZM26.4935 38.3525C26.4021 38.4709 26.2848 38.5667 26.1506 38.6326C26.0164 38.6985 25.8689 38.7328 25.7194 38.7328C25.5713 38.7325 25.4251 38.6994 25.2913 38.6361C25.1575 38.5727 25.0393 38.4805 24.9453 38.3661C24.7876 38.1855 24.7008 37.9539 24.7008 37.7142C24.6989 37.5806 24.7241 37.4479 24.7748 37.3242C24.8255 37.2005 24.9007 37.0884 24.9958 36.9945C25.091 36.9006 25.2041 36.827 25.3284 36.7779C25.4528 36.7289 25.5858 36.7055 25.7194 36.7092C25.9894 36.7094 26.2484 36.8169 26.4392 37.008C26.6208 37.1984 26.7228 37.451 26.7244 37.7142C26.7286 37.9481 26.6464 38.1754 26.4935 38.3525ZM28.5443 36.6956C28.1686 36.7902 27.7876 36.8627 27.4035 36.9129C27.2551 36.5915 27.0175 36.3195 26.7189 36.1293C26.4203 35.939 26.0734 35.8386 25.7194 35.84C25.3585 35.8392 25.0051 35.9425 24.7015 36.1377C24.398 36.3328 24.1572 36.6114 24.0082 36.9401C21.9813 36.6669 20.0506 35.9078 18.3805 34.7273C16.7104 33.5468 15.3505 31.9801 14.4168 30.1605C13.483 28.341 13.003 26.3226 13.0177 24.2775C13.0324 22.2324 13.5414 20.2212 14.5013 18.4153C14.6912 18.4699 14.8878 18.4974 15.0853 18.4968C15.3326 18.4986 15.5778 18.4514 15.8067 18.3581C16.0357 18.2647 16.2439 18.1269 16.4194 17.9527C16.5948 17.7785 16.7341 17.5713 16.8291 17.343C16.9242 17.1147 16.9731 16.8699 16.9731 16.6226C16.9722 16.2324 16.8487 15.8523 16.62 15.5361L16.7286 15.4139L25.6786 6.46387L30.1061 10.8778L25.6922 15.2781L21.1425 19.8413C19.9367 21.0484 19.2593 22.6848 19.2593 24.391C19.2593 26.0973 19.9367 27.7337 21.1425 28.9407C21.2533 29.0566 21.3713 29.1655 21.4956 29.2667L28.6937 36.4647C28.7101 36.489 28.719 36.5176 28.7193 36.5469C28.7196 36.5762 28.7113 36.605 28.6954 36.6296C28.6794 36.6542 28.6566 36.6736 28.6297 36.6853C28.6029 36.6971 28.5732 36.7006 28.5443 36.6956ZM29.2098 20.7785C29.9073 21.4927 30.3796 22.3962 30.5678 23.3767C30.7561 24.3572 30.652 25.3713 30.2685 26.2931C29.885 27.2149 29.2391 28.0037 28.4109 28.5613C27.5828 29.119 26.6091 29.4209 25.6107 29.4297C24.392 29.4379 23.2127 28.9981 22.2969 28.1938L22.0117 27.9357C21.058 26.9808 20.5223 25.6864 20.5223 24.3367C20.5223 22.9871 21.058 21.6926 22.0117 20.7377L25.6107 17.2066L29.2098 20.7785ZM34.6422 33.3275C33.5492 34.7228 32.0419 35.7356 30.337 36.2203L29.4271 35.4054L25.8824 31.8607C25.407 31.2631 25.2169 30.8557 25.6107 30.8557C26.4567 30.8604 27.295 30.6957 28.0763 30.3715C28.8577 30.0473 29.5663 29.5701 30.1604 28.9679C31.3663 27.7608 32.0436 26.1244 32.0436 24.4182C32.0436 22.712 31.3663 21.0756 30.1604 19.8685L26.575 16.2695L30.9753 11.7741L34.5743 15.3596L34.7916 15.604C34.6183 15.8961 34.5247 16.2286 34.52 16.5683C34.5052 16.8252 34.5431 17.0824 34.6313 17.3241C34.7195 17.5658 34.8562 17.787 35.033 17.974C35.2098 18.1609 35.4229 18.3098 35.6594 18.4114C35.8958 18.513 36.1505 18.5651 36.4078 18.5647H36.8152C38.051 20.9462 38.4998 23.6581 38.0971 26.3108C37.6945 28.9634 36.4611 31.42 34.5743 33.3275H34.6422Z" fill="white"/>
</svg>
