<svg width="28" height="28" viewBox="0 0 28 28" fill="none" xmlns="http://www.w3.org/2000/svg">
<rect width="28" height="28" rx="2" fill="#303549"/>
<path d="M16.5909 7.58492C16.7763 7.39948 16.9964 7.25238 17.2387 7.15201C17.481 7.05165 17.7407 7 18.003 7C18.2652 7 18.5249 7.05165 18.7672 7.15201C19.0095 7.25238 19.2296 7.39948 19.4151 7.58492C19.6005 7.77036 19.7476 7.99051 19.848 8.2328C19.9483 8.47509 20 8.73478 20 8.99703C20 9.25928 19.9483 9.51897 19.848 9.76126C19.7476 10.0036 19.6005 10.2237 19.4151 10.4091L9.88331 19.9409L6 21L7.05909 17.1167L16.5909 7.58492Z" stroke="#606580" stroke-linecap="round" stroke-linejoin="round"/>
<rect x="18.007" y="8.58398" width="0.50201" height="3.09156" rx="0.251005" transform="rotate(45 18.007 8.58398)" fill="#606580" stroke="#606580" stroke-width="0.50201"/>
</svg>
