<svg width="23" height="21" viewBox="0 0 23 21" fill="none" xmlns="http://www.w3.org/2000/svg">
<path fill-rule="evenodd" clip-rule="evenodd" d="M19.4803 16.2725H12.0385V18.7354H15.2918C15.5154 18.7354 15.7298 18.8246 15.8879 18.9835C16.0459 19.1425 16.1348 19.358 16.1348 19.5827C16.1348 19.8075 16.0459 20.023 15.8879 20.1819C15.7298 20.3408 15.5154 20.4301 15.2918 20.4301H7.00707C6.78351 20.4301 6.56908 20.3408 6.411 20.1819C6.25291 20.023 6.16411 19.8075 6.16411 19.5827C6.16411 19.358 6.25291 19.1425 6.411 18.9835C6.56908 18.8246 6.78351 18.7354 7.00707 18.7354H10.3526V16.2725H2.91086C2.13765 16.269 1.39728 15.9577 0.851763 15.4069C0.306248 14.856 -7.84429e-06 14.1104 1.50692e-10 13.3331V2.92613C0.00346494 2.15115 0.311265 1.4089 0.856406 0.860894C1.40155 0.312891 2.13992 0.00348313 2.91086 0H19.4803C20.2512 0.00348313 20.9896 0.312891 21.5348 0.860894C22.0799 1.4089 22.3877 2.15115 22.3912 2.92613V13.3331C22.3912 14.1104 22.0849 14.856 21.5394 15.4069C20.9939 15.9577 20.2535 16.269 19.4803 16.2725ZM19.4803 14.5909H11.3436C11.2951 14.5822 11.2455 14.5778 11.1955 14.5778C11.1455 14.5778 11.096 14.5822 11.0475 14.5909H2.91086C2.58478 14.5874 2.27323 14.4548 2.04388 14.2217C1.81453 13.9887 1.6859 13.6741 1.68592 13.3463V2.93937C1.68592 2.6128 1.81499 2.29959 2.04471 2.06867C2.27442 1.83775 2.58599 1.70801 2.91086 1.70801L19.4803 1.69477C19.8052 1.69477 20.1168 1.8245 20.3465 2.05543C20.5762 2.28635 20.7052 2.59956 20.7052 2.92613V13.3463C20.7052 13.6741 20.5766 13.9887 20.3473 14.2217C20.1179 14.4548 19.8064 14.5874 19.4803 14.5909Z" fill="#606580"/>
<path d="M10.837 3.59473C10.6713 3.59473 10.537 3.72904 10.537 3.89473V4.7469C10.537 4.88915 10.4366 5.01036 10.3 5.05003C10.0532 5.12169 9.81913 5.22264 9.59953 5.34769C9.47494 5.41864 9.31673 5.40405 9.21562 5.30241L8.58104 4.6645C8.46376 4.5466 8.27295 4.5466 8.15567 4.6645L7.64758 5.17526C7.53116 5.29229 7.53116 5.48138 7.64758 5.59841L8.28625 6.24044C8.38651 6.34123 8.40102 6.4979 8.33069 6.62144C8.20438 6.8433 8.10101 7.07969 8.02842 7.32914C7.98859 7.46602 7.86723 7.56685 7.72468 7.56685H6.8856C6.71992 7.56685 6.5856 7.70116 6.5856 7.86685V8.59089C6.5856 8.75658 6.71992 8.89089 6.8856 8.89089H7.72468C7.86723 8.89089 7.98859 8.99172 8.02842 9.1286C8.10101 9.37805 8.20438 9.61444 8.33069 9.8363C8.40102 9.95984 8.38651 10.1165 8.28625 10.2173L7.64757 10.8593C7.53116 10.9764 7.53116 11.1655 7.64758 11.2825L8.15567 11.7932C8.27295 11.9111 8.46376 11.9111 8.58104 11.7932L9.21562 11.1553C9.31673 11.0537 9.47494 11.0391 9.59953 11.11C9.81913 11.2351 10.0532 11.336 10.3 11.4077C10.4366 11.4474 10.537 11.5686 10.537 11.7108V12.563C10.537 12.7287 10.6713 12.863 10.837 12.863H11.5541C11.7198 12.863 11.8541 12.7287 11.8541 12.563V11.7108C11.8541 11.5686 11.9545 11.4474 12.0912 11.4078C12.3216 11.341 12.5411 11.2488 12.7481 11.1353C12.8775 11.0643 13.0407 11.0844 13.1395 11.1941L13.7978 11.9252C13.9091 12.0487 14.0996 12.0582 14.2226 11.9463L14.7561 11.4609C14.8783 11.3496 14.8876 11.1605 14.7768 11.0379L14.0673 10.2525C13.9747 10.15 13.9652 9.99812 14.0353 9.87909C14.1732 9.64501 14.2854 9.39423 14.3627 9.1286C14.4025 8.99172 14.5239 8.89089 14.6664 8.89089H15.5055C15.6712 8.89089 15.8055 8.75658 15.8055 8.59089V7.86685C15.8055 7.70116 15.6712 7.56685 15.5055 7.56685H14.6664C14.5239 7.56685 14.4025 7.46602 14.3628 7.32911C14.2912 7.08229 14.1898 6.84804 14.0657 6.62816C13.9955 6.50382 14.0108 6.34642 14.1123 6.24597L14.7372 5.6274C14.8543 5.51144 14.856 5.32267 14.7408 5.20469L14.2387 4.68999C14.1225 4.5709 13.9315 4.56913 13.8131 4.68604L13.181 5.31032C13.0795 5.41053 12.9222 5.42416 12.7985 5.35313C12.5769 5.22582 12.3406 5.12287 12.0911 5.05015C11.9545 5.01035 11.8541 4.88915 11.8541 4.7469V3.89473C11.8541 3.72904 11.7198 3.59473 11.5541 3.59473H10.837ZM11.1955 6.24281C12.2945 6.24281 13.1712 7.12416 13.1712 8.22887C13.1712 9.33358 12.2945 10.2149 11.1955 10.2149C10.0966 10.2149 9.21986 9.33358 9.21986 8.22887C9.21986 7.12416 10.0966 6.24281 11.1955 6.24281Z" fill="#606580"/>
</svg>
