<svg xmlns="http://www.w3.org/2000/svg" viewBox="0 0 9.37 10.13"><defs><style>.cls-1{fill:#f4a321;}</style></defs><title>Ресурс 17</title><g id="Слой_2" data-name="Слой 2"><g id="Layer_1" data-name="Layer 1"><path class="cls-1" d="M4.69,5.07A.35.35,0,0,0,5,5L9.26.65A.38.38,0,0,0,8.72.11l-4,4-4-4A.38.38,0,0,0,.11.65L4.42,5A.36.36,0,0,0,4.69,5.07Z"/><path class="cls-1" d="M4.69,10.13A.38.38,0,0,0,5,10L9.26,5.71a.37.37,0,0,0,0-.53.38.38,0,0,0-.54,0l-4,4-4-4a.38.38,0,0,0-.54,0,.37.37,0,0,0,0,.53L4.42,10A.39.39,0,0,0,4.69,10.13Z"/></g></g></svg>