<svg xmlns="http://www.w3.org/2000/svg" viewBox="0 0 47.3 15.29"><defs><style>.cls-1{fill:#f4a321;fill-rule:evenodd;}</style></defs><title>Ресурс 7</title><g id="Слой_2" data-name="Слой 2"><g id="Layer_1" data-name="Layer 1"><path class="cls-1" d="M0,0V10l5.3,5.3h42L37.3,9V0ZM17.7,5.31H14v7.06H11.82V3.65H17.7Zm7.72,6a4,4,0,0,1-3.1,1.21,4,4,0,0,1-3.1-1.22A4.74,4.74,0,0,1,18.09,8a4.7,4.7,0,0,1,1.13-3.32,4,4,0,0,1,3.1-1.22,4,4,0,0,1,3.1,1.21A4.71,4.71,0,0,1,26.55,8,4.71,4.71,0,0,1,25.42,11.34Z"/><path class="cls-1" d="M23.69,5.78a1.52,1.52,0,0,0-.63-.51,1.82,1.82,0,0,0-1.47,0,1.62,1.62,0,0,0-.63.51,2.7,2.7,0,0,0-.44.9A4.8,4.8,0,0,0,20.35,8a5,5,0,0,0,.16,1.34,2.59,2.59,0,0,0,.44.88,1.5,1.5,0,0,0,.64.52,1.69,1.69,0,0,0,.73.16,1.79,1.79,0,0,0,.75-.17,1.56,1.56,0,0,0,.63-.52,2.73,2.73,0,0,0,.43-.89A4.36,4.36,0,0,0,24.29,8a5.1,5.1,0,0,0-.16-1.33A2.7,2.7,0,0,0,23.69,5.78Z"/></g></g></svg>