<svg xmlns="http://www.w3.org/2000/svg" viewBox="0 0 49.33 41.74"><defs><style>.cls-1{fill:#1b1f2c;stroke:#5b607d;stroke-miterlimit:10;stroke-width:0.5px;opacity:0.5;}.cls-2{fill:#5f6580;}</style></defs><title>Ресурс 14</title><g id="Слой_2" data-name="Слой 2"><g id="Layer_1" data-name="Layer 1"><polygon class="cls-1" points="5.45 0.25 44.28 0.25 49.08 5.45 49.08 36.29 44.28 41.49 5.45 41.49 0.25 36.29 0.25 5.45 5.45 0.25"/><path class="cls-2" d="M15.29,15.4h11.3a2.72,2.72,0,0,0,5.29,0H34a.63.63,0,1,0,0-1.25H31.88a2.72,2.72,0,0,0-5.29,0H15.29a.63.63,0,0,0,0,1.25Zm13.94-2.1a1.48,1.48,0,1,1-1.47,1.47A1.47,1.47,0,0,1,29.23,13.3Z"/><path class="cls-2" d="M34,27.42H29.51a2.72,2.72,0,0,0-5.29,0H15.29a.62.62,0,0,0-.62.62.63.63,0,0,0,.62.63h8.93a2.72,2.72,0,0,0,5.29,0H34a.63.63,0,0,0,.63-.63A.62.62,0,0,0,34,27.42Zm-7.17,2.1A1.48,1.48,0,1,1,28.34,28,1.48,1.48,0,0,1,26.87,29.52Z"/><path class="cls-2" d="M34,20.78H22.83a2.72,2.72,0,0,0-5.29,0H15.29a.63.63,0,0,0,0,1.25h2.25a2.72,2.72,0,0,0,5.29,0H34a.63.63,0,1,0,0-1.25Zm-13.85,2.1a1.48,1.48,0,1,1,1.47-1.47A1.47,1.47,0,0,1,20.19,22.88Z"/></g></g></svg>