<svg xmlns="http://www.w3.org/2000/svg" viewBox="0 0 49.33 41.74"><defs><style>.cls-1{fill:#fff;fill-rule:evenodd;}.cls-2{fill:#3fa9f5;fill-opacity:0.2;stroke:#3fa9f5;stroke-miterlimit:10;stroke-width:0.5px;}</style></defs><title>Ресурс 16</title><g id="Слой_2" data-name="Слой 2"><g id="Layer_1" data-name="Layer 1"><path class="cls-1" d="M31.94,20.11l-9.43-6.43a.84.84,0,0,0-.14-.06,1.39,1.39,0,0,0-.28-.12,1.55,1.55,0,0,0-.31-.06.7.7,0,0,0-.14,0l-.14,0a1.83,1.83,0,0,0-.32.07l-.25.1a1.2,1.2,0,0,0-.26.18,1.29,1.29,0,0,0-.21.19s-.08.07-.11.11a1,1,0,0,0-.06.16,1.23,1.23,0,0,0-.12.26,1.8,1.8,0,0,0-.06.32s0,.09,0,.14V27.85s0,.1,0,.15a1.55,1.55,0,0,0,.06.31,1.31,1.31,0,0,0,.12.27.94.94,0,0,0,.06.15c0,.05.08.07.11.11s.13.14.2.2a2.46,2.46,0,0,0,.27.17.77.77,0,0,0,.25.1,1.23,1.23,0,0,0,.32.07c.05,0,.09,0,.14,0s.09,0,.14,0a1.08,1.08,0,0,0,.31-.07,1.36,1.36,0,0,0,.28-.11s.1,0,.14-.06l9.43-6.44a1.53,1.53,0,0,0,.65-1.29A1.56,1.56,0,0,0,31.94,20.11Z"/><polygon class="cls-2" points="5.45 0.25 44.28 0.25 49.08 5.45 49.08 36.29 44.28 41.49 5.45 41.49 0.25 36.29 0.25 5.45 5.45 0.25"/></g></g></svg>