<svg width="54" height="57" viewBox="0 0 54 57" fill="none" xmlns="http://www.w3.org/2000/svg">
<path opacity="0.5" d="M53.9992 28.7148C54.0011 24.3325 52.8877 20.0194 50.7607 16.169C48.6336 12.3185 45.5607 9.05328 41.822 6.671V4.75415C38.3908 2.7517 34.5705 1.48005 30.6083 1.02145C26.6462 0.562858 22.6305 0.927519 18.8206 2.09186L18.3469 3.94215C14.8199 5.15655 11.5927 7.08879 8.87574 9.61283C8.59161 9.53297 8.06404 9.39985 7.80697 9.35992C3.73919 13.305 1.01209 18.392 0 23.9227L0.825324 24.535C0.602487 25.9175 0.489393 27.315 0.487068 28.7148C0.485943 32.3479 1.25138 35.9417 2.73495 39.2687C4.21852 42.5957 6.3879 45.5835 9.10582 48.043C9.10582 48.3226 8.97052 48.855 8.94346 49.0947C12.9836 52.5591 17.9631 54.7889 23.2719 55.5108L23.5831 56.3893C29.4522 57.1443 35.4148 56.0824 40.6424 53.351C45.87 50.6196 50.1033 46.3544 52.7543 41.1477L51.7531 39.4438C53.2631 36.0635 54.0286 32.407 53.9992 28.7148ZM1.09586 28.7148C1.08783 23.6134 2.61813 18.6244 5.49302 14.3789C8.36791 10.1335 12.4582 6.82242 17.2464 4.86474C22.0346 2.90706 27.3054 2.39074 32.3919 3.38112C37.4785 4.3715 42.1521 6.82406 45.8214 10.4285C49.4907 14.0329 51.9909 18.6271 53.0054 23.6299C54.0199 28.6326 53.5033 33.819 51.5209 38.5328C49.5385 43.2466 46.1793 47.276 41.8686 50.1109C37.5578 52.9459 32.4891 54.4592 27.3039 54.4592C20.3601 54.4592 13.7002 51.7481 8.78639 46.9212C3.87259 42.0944 1.10662 35.5463 1.09586 28.7148Z" fill="#616580"/>
</svg>
