<svg width="13" height="13" viewBox="0 0 13 13" fill="none" xmlns="http://www.w3.org/2000/svg">
<path d="M11.9502 6.35016V6.22775C11.9502 5.91508 11.6967 5.66162 11.3841 5.66162H1.19357C0.880897 5.66162 0.627428 5.91508 0.627428 6.22775V6.35016C0.627428 6.66283 0.880897 6.91629 1.19357 6.91629H11.3841C11.6967 6.91629 11.9502 6.66283 11.9502 6.35016Z" fill="#8A98B3"/>
<path d="M6.22745 11.9501H6.34986C6.66253 11.9501 6.91602 11.6966 6.91602 11.3839V1.19344C6.91602 0.880775 6.66253 0.627306 6.34986 0.627306H6.22745C5.91478 0.627306 5.66132 0.880775 5.66132 1.19344V11.3839C5.66132 11.6966 5.91478 11.9501 6.22745 11.9501Z" fill="#8A98B3"/>
</svg>
