<svg width="1593" height="887" viewBox="0 0 1593 887" fill="none" xmlns="http://www.w3.org/2000/svg">
<g id="&#208;&#162;&#208;&#190;&#208;&#191;&#208;&#187;&#208;&#184;&#208;&#178;&#208;&#190; &#208;&#173;&#208;&#155;&#208;&#158;&#208;&#163; &#208;&#144;&#208;&#146;&#208;&#162;-10">
<rect width="1593" height="887" fill="#1C1F2B"/>
<path id="line_17" d="M457 354L474 354" stroke="#606580" stroke-linecap="round"/>
<path id="line_18" d="M498 354L594 354" stroke="#606580" stroke-linecap="round"/>
<g id="line_25">
<g id="Group 22846">
<g id="Group 22850">
<g id="Group 22851">
<path id="line" d="M763 354H1167" stroke="#606580" stroke-linecap="round"/>
</g>
</g>
</g>
<g id=".start&#38;end">
<path id="Rectangle 7354" d="M1167 351L1173 354L1167 357V354V351Z" fill="#606580"/>
</g>
</g>
<path id="line_19" d="M457 422L474 422" stroke="#606580" stroke-linecap="round"/>
<path id="line_21" d="M457 490L474 490" stroke="#606580" stroke-linecap="round"/>
<path id="line_23" d="M457 558L474 558" stroke="#606580" stroke-linecap="round"/>
<path id="line_20" d="M498 422L594 422" stroke="#606580" stroke-linecap="round"/>
<path id="line_22" d="M498 490L594 490" stroke="#606580" stroke-linecap="round"/>
<path id="line_24" d="M498 558L594 558" stroke="#606580" stroke-linecap="round"/>
<g id="line_26">
<g id=".start&#38;end_2">
<path id="Rectangle 7354_2" d="M778 419L784 422L778 425V422V419Z" fill="#606580"/>
</g>
<path id="line_2" d="M762 422L778 422" stroke="#606580" stroke-linecap="round"/>
</g>
<g id="line_27">
<g id=".start&#38;end_3">
<path id="Rectangle 7354_3" d="M778 487L784 490L778 493V490V487Z" fill="#606580"/>
</g>
<path id="line_3" d="M762 490L778 490" stroke="#606580" stroke-linecap="round"/>
</g>
<g id="line_28">
<path id="line_4" d="M762 558L778 558" stroke="#606580" stroke-linecap="round"/>
<g id=".start&#38;end_4">
<path id="Rectangle 7354_4" d="M778 555L784 558L778 561V558V555Z" fill="#606580"/>
</g>
</g>
<path id="line_29" d="M818 489H843" stroke="#606580" stroke-linecap="round"/>
<path id="line_30" d="M866 489L963 489" stroke="#606580" stroke-linecap="round"/>
<g id="line_31">
<path id="line_5" d="M1131 490L1147 490" stroke="#606580" stroke-linecap="round"/>
<g id=".start&#38;end_5">
<path id="Rectangle 7354_5" d="M1147 487L1153 490L1147 493V490V487Z" fill="#606580"/>
</g>
</g>
<g id="element-1_2">
<g id="rect">
<rect x="250" y="404" width="200" height="36" rx="2" fill="#272A38"/>
<rect x="250" y="404" width="200" height="36" rx="2" stroke="#606580"/>
</g>
<g id="arrow-group">
<g id="arrow_double_right">
<g id="Group">
<g id="Group_2">
<path id="arrow" d="M426.824 416.75L432.074 422L426.824 427.25" stroke="#606580" stroke-miterlimit="10" stroke-linecap="round" stroke-linejoin="round"/>
</g>
<g id="Group_3">
<path id="arrow_2" d="M431.926 416.75L437.176 422L431.926 427.25" stroke="#606580" stroke-miterlimit="10" stroke-linecap="round" stroke-linejoin="round"/>
</g>
</g>
</g>
</g>
<text id="text" fill="#D7E2F2" xml:space="preserve" style="white-space: pre" font-family="Tahoma" font-size="13" letter-spacing="0em"><tspan x="285" y="420.161">&#x418;&#x437; &#x43a;&#x43e;&#x43b;&#x43b;&#x435;&#x43a;&#x442;&#x43e;&#x440;&#x430; &#x441;&#x44b;&#x440;&#x43e;&#x439;&#10;</tspan><tspan x="285" y="434.161">&#x43d;&#x435;&#x444;&#x442;&#x438; (&#x422;&#x421;&#x411;-2)</tspan></text>
<circle id="circle" cx="266" cy="422" r="11.5" fill="#1C1F2B" stroke="#606580"/>
<g id="icon">
<path id="Vector" d="M263.676 422H268.176" stroke="#606580" stroke-miterlimit="10" stroke-linecap="round" stroke-linejoin="round"/>
<g id="Group_4">
<path id="Vector_2" d="M265.926 422V418.25H268.176" stroke="#606580" stroke-miterlimit="10" stroke-linecap="round" stroke-linejoin="round"/>
<path id="Vector_3" d="M269.563 419.525C270.226 419.525 270.763 418.988 270.763 418.325C270.763 417.662 270.226 417.125 269.563 417.125C268.901 417.125 268.363 417.662 268.363 418.325C268.363 418.988 268.901 419.525 269.563 419.525Z" stroke="#606580" stroke-miterlimit="10" stroke-linecap="round" stroke-linejoin="round"/>
</g>
<path id="Vector_4" d="M265.926 422V425.75H268.176" stroke="#606580" stroke-miterlimit="10" stroke-linecap="round" stroke-linejoin="round"/>
<path id="Vector_5" d="M269.563 426.877C270.226 426.877 270.763 426.339 270.763 425.677C270.763 425.014 270.226 424.477 269.563 424.477C268.901 424.477 268.363 425.014 268.363 425.677C268.363 426.339 268.901 426.877 269.563 426.877Z" stroke="#606580" stroke-miterlimit="10" stroke-linecap="round" stroke-linejoin="round"/>
<path id="Vector_6" d="M269.563 423.201C270.226 423.201 270.763 422.664 270.763 422.001C270.763 421.338 270.226 420.801 269.563 420.801C268.901 420.801 268.363 421.338 268.363 422.001C268.363 422.664 268.901 423.201 269.563 423.201Z" stroke="#606580" stroke-miterlimit="10" stroke-linecap="round" stroke-linejoin="round"/>
<path id="Vector_7" d="M262.438 423.201C263.101 423.201 263.638 422.664 263.638 422.001C263.638 421.338 263.101 420.801 262.438 420.801C261.776 420.801 261.238 421.338 261.238 422.001C261.238 422.664 261.776 423.201 262.438 423.201Z" stroke="#606580" stroke-miterlimit="10" stroke-linecap="round" stroke-linejoin="round"/>
</g>
</g>
<g id="element-1_3">
<g id="rect_2">
<rect x="250" y="472" width="200" height="36" rx="2" fill="#272A38"/>
<rect x="250" y="472" width="200" height="36" rx="2" stroke="#606580"/>
</g>
<g id="arrow-group_2">
<g id="arrow_double_right_2">
<g id="Group_5">
<g id="Group_6">
<path id="arrow_3" d="M426.824 484.75L432.074 490L426.824 495.25" stroke="#606580" stroke-miterlimit="10" stroke-linecap="round" stroke-linejoin="round"/>
</g>
<g id="Group_7">
<path id="arrow_4" d="M431.926 484.75L437.176 490L431.926 495.25" stroke="#606580" stroke-miterlimit="10" stroke-linecap="round" stroke-linejoin="round"/>
</g>
</g>
</g>
</g>
<text id="text_2" fill="#D7E2F2" xml:space="preserve" style="white-space: pre" font-family="Tahoma" font-size="13" letter-spacing="0em"><tspan x="285" y="488.161">&#x418;&#x437; &#x43a;&#x43e;&#x43b;&#x43b;&#x435;&#x43a;&#x442;&#x43e;&#x440;&#x430; &#x441;&#x44b;&#x440;&#x43e;&#x439;&#10;</tspan><tspan x="285" y="502.161">&#x43d;&#x435;&#x444;&#x442;&#x438; (&#x422;&#x421;&#x411;-2)</tspan></text>
<circle id="circle_2" cx="266" cy="490" r="11.5" fill="#1C1F2B" stroke="#606580"/>
<g id="icon_2">
<path id="Vector_8" d="M261.766 493.181V490.465H264.133L265.283 489.281H266.85V493.181" stroke="#606580" stroke-miterlimit="10" stroke-linecap="round" stroke-linejoin="round"/>
<path id="Vector_9" d="M270.75 493.184H261V494.751H270.75V493.184Z" stroke="#606580" stroke-miterlimit="10" stroke-linecap="round" stroke-linejoin="round"/>
<path id="Vector_10" d="M263.75 485H262.566V490.467H263.75V485Z" stroke="#606580" stroke-miterlimit="10" stroke-linecap="round" stroke-linejoin="round"/>
<path id="Vector_11" d="M266.082 489.283V486.184H269.181V487.333" stroke="#606580" stroke-miterlimit="10" stroke-linecap="round" stroke-linejoin="round"/>
<path id="Vector_12" d="M269.463 491.615H268.941C268.453 491.615 268.035 491.197 268.035 490.71V488.237C268.035 487.75 268.453 487.332 268.941 487.332H269.463C269.95 487.332 270.368 487.75 270.368 488.237V490.71C270.368 491.232 269.95 491.615 269.463 491.615Z" stroke="#606580" stroke-miterlimit="10" stroke-linecap="round" stroke-linejoin="round"/>
<path id="Vector_13" d="M268.418 493.184V491.617" stroke="#606580" stroke-miterlimit="10" stroke-linecap="round" stroke-linejoin="round"/>
<path id="Vector_14" d="M269.984 491.617V493.184" stroke="#606580" stroke-miterlimit="10" stroke-linecap="round" stroke-linejoin="round"/>
</g>
</g>
<g id="element-1_4">
<g id="rect_3">
<rect x="250" y="540" width="200" height="36" rx="2" fill="#272A38"/>
<rect x="250" y="540" width="200" height="36" rx="2" stroke="#606580"/>
</g>
<g id="arrow-group_3">
<g id="arrow_double_right_3">
<g id="Group_8">
<g id="Group_9">
<path id="arrow_5" d="M426.824 552.75L432.074 558L426.824 563.25" stroke="#606580" stroke-miterlimit="10" stroke-linecap="round" stroke-linejoin="round"/>
</g>
<g id="Group_10">
<path id="arrow_6" d="M431.926 552.75L437.176 558L431.926 563.25" stroke="#606580" stroke-miterlimit="10" stroke-linecap="round" stroke-linejoin="round"/>
</g>
</g>
</g>
</g>
<text id="text_3" fill="#D7E2F2" xml:space="preserve" style="white-space: pre" font-family="Tahoma" font-size="13" letter-spacing="0em"><tspan x="285" y="556.161">&#x418;&#x437; &#x43a;&#x43e;&#x43b;&#x43b;&#x435;&#x43a;&#x442;&#x43e;&#x440;&#x430; &#x441;&#x44b;&#x440;&#x43e;&#x439;&#10;</tspan><tspan x="285" y="570.161">&#x43d;&#x435;&#x444;&#x442;&#x438; (&#x422;&#x421;&#x411;-2)</tspan></text>
<circle id="circle_3" cx="266" cy="558" r="11.5" fill="#1C1F2B" stroke="#606580"/>
<g id="icon_3">
<path id="Vector_15" d="M261.766 561.181V558.465H264.133L265.283 557.281H266.85V561.181" stroke="#606580" stroke-miterlimit="10" stroke-linecap="round" stroke-linejoin="round"/>
<path id="Vector_16" d="M270.75 561.184H261V562.751H270.75V561.184Z" stroke="#606580" stroke-miterlimit="10" stroke-linecap="round" stroke-linejoin="round"/>
<path id="Vector_17" d="M263.75 553H262.566V558.467H263.75V553Z" stroke="#606580" stroke-miterlimit="10" stroke-linecap="round" stroke-linejoin="round"/>
<path id="Vector_18" d="M266.082 557.283V554.184H269.181V555.333" stroke="#606580" stroke-miterlimit="10" stroke-linecap="round" stroke-linejoin="round"/>
<path id="Vector_19" d="M269.463 559.615H268.941C268.453 559.615 268.035 559.197 268.035 558.71V556.237C268.035 555.75 268.453 555.332 268.941 555.332H269.463C269.95 555.332 270.368 555.75 270.368 556.237V558.71C270.368 559.232 269.95 559.615 269.463 559.615Z" stroke="#606580" stroke-miterlimit="10" stroke-linecap="round" stroke-linejoin="round"/>
<path id="Vector_20" d="M268.418 561.184V559.617" stroke="#606580" stroke-miterlimit="10" stroke-linecap="round" stroke-linejoin="round"/>
<path id="Vector_21" d="M269.984 559.617V561.184" stroke="#606580" stroke-miterlimit="10" stroke-linecap="round" stroke-linejoin="round"/>
</g>
</g>
<g id="element-1_1__ABT-10_ELOU_FUEL">
<g id="rect_4">
<rect x="250" y="336" width="200" height="36" rx="2" fill="#272A38"/>
<rect x="250" y="336" width="200" height="36" rx="2" stroke="#606580"/>
</g>
<g id="arrow-group_4">
<g id="arrow_double_right_4">
<g id="Group_11">
<g id="Group_12">
<path id="arrow_7" d="M426.824 348.75L432.074 354L426.824 359.25" stroke="#606580" stroke-miterlimit="10" stroke-linecap="round" stroke-linejoin="round"/>
</g>
<g id="Group_13">
<path id="arrow_8" d="M431.926 348.75L437.176 354L431.926 359.25" stroke="#606580" stroke-miterlimit="10" stroke-linecap="round" stroke-linejoin="round"/>
</g>
</g>
</g>
</g>
<text id="text_4" fill="#D7E2F2" xml:space="preserve" style="white-space: pre" font-family="Tahoma" font-size="13" letter-spacing="0em"><tspan x="285" y="352.161">&#x418;&#x437; &#x43a;&#x43e;&#x43b;&#x43b;&#x435;&#x43a;&#x442;&#x43e;&#x440;&#x430; &#x441;&#x44b;&#x440;&#x43e;&#x439;&#10;</tspan><tspan x="285" y="366.161">&#x43d;&#x435;&#x444;&#x442;&#x438; (&#x422;&#x421;&#x411;-2)</tspan></text>
<circle id="circle_4" cx="266" cy="354" r="11.5" fill="#1C1F2B" stroke="#606580"/>
<g id="icon_4">
<path id="Vector_22" d="M263.676 354H268.176" stroke="#606580" stroke-miterlimit="10" stroke-linecap="round" stroke-linejoin="round"/>
<g id="Group_14">
<path id="Vector_23" d="M265.926 354V350.25H268.176" stroke="#606580" stroke-miterlimit="10" stroke-linecap="round" stroke-linejoin="round"/>
<path id="Vector_24" d="M269.563 351.525C270.226 351.525 270.763 350.988 270.763 350.325C270.763 349.662 270.226 349.125 269.563 349.125C268.901 349.125 268.363 349.662 268.363 350.325C268.363 350.988 268.901 351.525 269.563 351.525Z" stroke="#606580" stroke-miterlimit="10" stroke-linecap="round" stroke-linejoin="round"/>
</g>
<path id="Vector_25" d="M265.926 354V357.75H268.176" stroke="#606580" stroke-miterlimit="10" stroke-linecap="round" stroke-linejoin="round"/>
<path id="Vector_26" d="M269.563 358.877C270.226 358.877 270.763 358.339 270.763 357.677C270.763 357.014 270.226 356.477 269.563 356.477C268.901 356.477 268.363 357.014 268.363 357.677C268.363 358.339 268.901 358.877 269.563 358.877Z" stroke="#606580" stroke-miterlimit="10" stroke-linecap="round" stroke-linejoin="round"/>
<path id="Vector_27" d="M269.563 355.201C270.226 355.201 270.763 354.664 270.763 354.001C270.763 353.338 270.226 352.801 269.563 352.801C268.901 352.801 268.363 353.338 268.363 354.001C268.363 354.664 268.901 355.201 269.563 355.201Z" stroke="#606580" stroke-miterlimit="10" stroke-linecap="round" stroke-linejoin="round"/>
<path id="Vector_28" d="M262.438 355.201C263.101 355.201 263.638 354.664 263.638 354.001C263.638 353.338 263.101 352.801 262.438 352.801C261.776 352.801 261.238 353.338 261.238 354.001C261.238 354.664 261.776 355.201 262.438 355.201Z" stroke="#606580" stroke-miterlimit="10" stroke-linecap="round" stroke-linejoin="round"/>
</g>
</g>
<g id=".on&#38;off">
<g id=".template on&#38;off">
<circle id="border" cx="450" cy="354" r="6.5" fill="#1C1F2B" stroke="#606580"/>
</g>
</g>
<g id=".on&#38;off_2">
<g id=".template on&#38;off_2">
<circle id="border_2" cx="450" cy="422" r="6.5" fill="#1C1F2B" stroke="#606580"/>
</g>
</g>
<g id=".on&#38;off_3">
<g id=".template on&#38;off_3">
<circle id="border_3" cx="450" cy="558" r="6.5" fill="#1C1F2B" stroke="#606580"/>
</g>
</g>
<g id=".on&#38;off_4">
<g id=".template on&#38;off_4">
<circle id="border_4" cx="450" cy="490" r="6.5" fill="#1C1F2B" stroke="#606580"/>
</g>
</g>
<g id="element-3_12">
<g id="rect_5">
<rect x="594.5" y="536.5" width="169" height="43" rx="1.5" fill="#1C1F2B"/>
<rect x="594.5" y="536.5" width="169" height="43" rx="1.5" stroke="#606580"/>
</g>
<text id="text_5" fill="#D7E2F2" xml:space="preserve" style="white-space: pre" font-family="Tahoma" font-size="13" letter-spacing="0em"><tspan x="602" y="553.161">&#x41d;&#x435;&#x444;&#x442;&#x44f;&#x43d;&#x43e;&#x435; &#x441;&#x44b;&#x440;&#x44c;&#x435;</tspan></text>
<text id="text_value" fill="#D7E2F2" xml:space="preserve" style="white-space: pre" font-family="Tahoma" font-size="13" letter-spacing="0em"><tspan x="602" y="573.161">12 000&#x442;</tspan></text>
<text id="text_percent" fill="#D7E2F2" xml:space="preserve" style="white-space: pre" font-family="Tahoma" font-size="13" letter-spacing="0em"><tspan x="656" y="573.161">12.85%</tspan></text>
</g>
<g id="element-3_15">
<g id="rect_6">
<rect x="961.5" y="468.5" width="169" height="43" rx="1.5" fill="#1C1F2B"/>
<rect x="961.5" y="468.5" width="169" height="43" rx="1.5" stroke="#606580"/>
</g>
<text id="text_6" fill="#D7E2F2" xml:space="preserve" style="white-space: pre" font-family="Tahoma" font-size="13" letter-spacing="0em"><tspan x="969" y="485.161">&#x41d;&#x435;&#x444;&#x442;&#x44f;&#x43d;&#x43e;&#x435; &#x441;&#x44b;&#x440;&#x44c;&#x435;</tspan></text>
<text id="text_value_2" fill="#D7E2F2" xml:space="preserve" style="white-space: pre" font-family="Tahoma" font-size="13" letter-spacing="0em"><tspan x="969" y="505.161">12 000&#x442;</tspan></text>
<text id="text_percent_2" fill="#D7E2F2" xml:space="preserve" style="white-space: pre" font-family="Tahoma" font-size="13" letter-spacing="0em"><tspan x="1023" y="505.161">12.85%</tspan></text>
</g>
<g id="element-3_11">
<g id="rect_7">
<rect x="594.5" y="468.5" width="169" height="43" rx="1.5" fill="#1C1F2B"/>
<rect x="594.5" y="468.5" width="169" height="43" rx="1.5" stroke="#606580"/>
</g>
<text id="text_7" fill="#D7E2F2" xml:space="preserve" style="white-space: pre" font-family="Tahoma" font-size="13" letter-spacing="0em"><tspan x="602" y="485.161">&#x41d;&#x435;&#x444;&#x442;&#x44f;&#x43d;&#x43e;&#x435; &#x441;&#x44b;&#x440;&#x44c;&#x435;</tspan></text>
<text id="text_value_3" fill="#D7E2F2" xml:space="preserve" style="white-space: pre" font-family="Tahoma" font-size="13" letter-spacing="0em"><tspan x="602" y="505.161">12 000&#x442;</tspan></text>
<text id="text_percent_3" fill="#D7E2F2" xml:space="preserve" style="white-space: pre" font-family="Tahoma" font-size="13" letter-spacing="0em"><tspan x="656" y="505.161">12.85%</tspan></text>
</g>
<g id="element-3_10">
<g id="rect_8">
<rect x="594.5" y="401.5" width="169" height="43" rx="1.5" fill="#1C1F2B"/>
<rect x="594.5" y="401.5" width="169" height="43" rx="1.5" stroke="#606580"/>
</g>
<text id="text_8" fill="#D7E2F2" xml:space="preserve" style="white-space: pre" font-family="Tahoma" font-size="13" letter-spacing="0em"><tspan x="602" y="418.161">&#x41d;&#x435;&#x444;&#x442;&#x44f;&#x43d;&#x43e;&#x435; &#x441;&#x44b;&#x440;&#x44c;&#x435;</tspan></text>
<text id="text_value_4" fill="#D7E2F2" xml:space="preserve" style="white-space: pre" font-family="Tahoma" font-size="13" letter-spacing="0em"><tspan x="602" y="438.161">12 000&#x442;</tspan></text>
<text id="text_percent_4" fill="#D7E2F2" xml:space="preserve" style="white-space: pre" font-family="Tahoma" font-size="13" letter-spacing="0em"><tspan x="656" y="438.161">12.85%</tspan></text>
</g>
<g id="element-3_9">
<g id="rect_9">
<rect x="594.5" y="332.5" width="169" height="43" rx="1.5" fill="#1C1F2B"/>
<rect x="594.5" y="332.5" width="169" height="43" rx="1.5" stroke="#606580"/>
</g>
<text id="text_9" fill="#D7E2F2" xml:space="preserve" style="white-space: pre" font-family="Tahoma" font-size="13" letter-spacing="0em"><tspan x="602" y="349.161">&#x41d;&#x435;&#x444;&#x442;&#x44f;&#x43d;&#x43e;&#x435; &#x441;&#x44b;&#x440;&#x44c;&#x435;</tspan></text>
<text id="text_value_5" fill="#D7E2F2" xml:space="preserve" style="white-space: pre" font-family="Tahoma" font-size="13" letter-spacing="0em"><tspan x="602" y="369.161">12 000&#x442;</tspan></text>
<text id="text_percent_5" fill="#D7E2F2" xml:space="preserve" style="white-space: pre" font-family="Tahoma" font-size="13" letter-spacing="0em"><tspan x="656" y="369.161">12.85%</tspan></text>
</g>
<g id="Naming=In">
<g id="oven">
<g id="Union">
<mask id="path-93-inside-1" fill="white">
<path fill-rule="evenodd" clip-rule="evenodd" d="M1275.88 307H1188.12L1173.5 327.8V379.8L1154 411V526C1154 527.105 1154.9 528 1156 528H1308C1309.1 528 1310 527.105 1310 526V411L1290.5 379.8V327.8L1275.88 307Z"/>
</mask>
<path fill-rule="evenodd" clip-rule="evenodd" d="M1275.88 307H1188.12L1173.5 327.8V379.8L1154 411V526C1154 527.105 1154.9 528 1156 528H1308C1309.1 528 1310 527.105 1310 526V411L1290.5 379.8V327.8L1275.88 307Z" fill="#272A38"/>
<path d="M1188.12 307V306H1187.61L1187.31 306.425L1188.12 307ZM1275.88 307L1276.69 306.425L1276.39 306H1275.88V307ZM1173.5 327.8L1172.68 327.225L1172.5 327.484V327.8H1173.5ZM1173.5 379.8L1174.35 380.33L1174.5 380.087V379.8H1173.5ZM1154 411L1153.15 410.47L1153 410.713V411H1154ZM1310 411H1311V410.713L1310.85 410.47L1310 411ZM1290.5 379.8H1289.5V380.087L1289.65 380.33L1290.5 379.8ZM1290.5 327.8H1291.5V327.484L1291.32 327.225L1290.5 327.8ZM1188.12 308H1275.88V306H1188.12V308ZM1174.32 328.375L1188.94 307.575L1187.31 306.425L1172.68 327.225L1174.32 328.375ZM1174.5 379.8V327.8H1172.5V379.8H1174.5ZM1154.85 411.53L1174.35 380.33L1172.65 379.27L1153.15 410.47L1154.85 411.53ZM1155 526V411H1153V526H1155ZM1156 527C1155.45 527 1155 526.552 1155 526H1153C1153 527.657 1154.34 529 1156 529V527ZM1308 527H1156V529H1308V527ZM1309 526C1309 526.552 1308.55 527 1308 527V529C1309.66 529 1311 527.657 1311 526H1309ZM1309 411V526H1311V411H1309ZM1289.65 380.33L1309.15 411.53L1310.85 410.47L1291.35 379.27L1289.65 380.33ZM1289.5 327.8V379.8H1291.5V327.8H1289.5ZM1275.06 307.575L1289.68 328.375L1291.32 327.225L1276.69 306.425L1275.06 307.575Z" fill="#606580" mask="url(#path-93-inside-1)"/>
</g>
</g>
<g id="icon_5">
<g id="fire">
<path id="Vector_29" d="M1202.42 500.443L1199.44 499.143C1198.9 498.883 1198.36 498.623 1198.09 498.363C1192.41 495.243 1190.52 490.043 1192.41 483.543C1193.22 480.943 1194.57 478.603 1195.93 476.523V476.263C1198.09 472.623 1199.98 469.243 1201.33 465.603C1201.61 465.083 1201.61 464.563 1201.88 464.043L1202.42 461.703L1203.77 462.483C1204.04 462.743 1204.04 462.743 1204.31 463.003L1205.39 464.043C1208.64 467.163 1212.15 470.283 1214.86 474.183C1217.56 477.823 1219.19 481.723 1219.46 485.363C1220 491.343 1218.37 495.503 1214.05 498.363C1213.24 498.883 1212.42 499.143 1211.61 499.663C1211.34 499.923 1210.8 499.923 1210.53 500.183L1209.45 500.703L1208.37 498.103L1208.91 497.583C1209.18 497.323 1209.45 497.063 1209.72 496.803C1210.26 496.283 1210.53 495.763 1211.07 495.243C1213.78 490.823 1213.78 486.403 1211.07 481.723C1210.53 480.683 1209.72 479.643 1208.64 478.603C1208.37 481.983 1207.56 485.103 1205.66 488.483L1204.04 491.343L1203.23 488.223C1202.96 486.923 1202.42 485.623 1201.88 484.843C1201.06 486.403 1200.52 487.963 1199.98 489.523C1198.9 492.383 1199.44 494.723 1201.33 496.803C1201.61 497.063 1201.88 497.323 1202.15 498.103L1202.42 500.443Z" stroke="#606580" stroke-miterlimit="10" stroke-linecap="round" stroke-linejoin="round"/>
</g>
<line id="line_6" x1="1221.1" y1="506.301" x2="1190.9" y2="506.301" stroke="#606580" stroke-linecap="round"/>
</g>
<g id="icon_6">
<g id="fire_2">
<path id="Vector_30" d="M1254.42 500.443L1251.44 499.143C1250.9 498.883 1250.36 498.623 1250.09 498.363C1244.41 495.243 1242.52 490.043 1244.41 483.543C1245.22 480.943 1246.57 478.603 1247.93 476.523V476.263C1250.09 472.623 1251.98 469.243 1253.33 465.603C1253.61 465.083 1253.61 464.563 1253.88 464.043L1254.42 461.703L1255.77 462.483C1256.04 462.743 1256.04 462.743 1256.31 463.003L1257.39 464.043C1260.64 467.163 1264.15 470.283 1266.86 474.183C1269.56 477.823 1271.19 481.723 1271.46 485.363C1272 491.343 1270.37 495.503 1266.05 498.363C1265.24 498.883 1264.42 499.143 1263.61 499.663C1263.34 499.923 1262.8 499.923 1262.53 500.183L1261.45 500.703L1260.37 498.103L1260.91 497.583C1261.18 497.323 1261.45 497.063 1261.72 496.803C1262.26 496.283 1262.53 495.763 1263.07 495.243C1265.78 490.823 1265.78 486.403 1263.07 481.723C1262.53 480.683 1261.72 479.643 1260.64 478.603C1260.37 481.983 1259.56 485.103 1257.66 488.483L1256.04 491.343L1255.23 488.223C1254.96 486.923 1254.42 485.623 1253.88 484.843C1253.06 486.403 1252.52 487.963 1251.98 489.523C1250.9 492.383 1251.44 494.723 1253.33 496.803C1253.61 497.063 1253.88 497.323 1254.15 498.103L1254.42 500.443Z" stroke="#606580" stroke-miterlimit="10" stroke-linecap="round" stroke-linejoin="round"/>
</g>
<line id="line_7" x1="1273.1" y1="506.301" x2="1242.9" y2="506.301" stroke="#606580" stroke-linecap="round"/>
</g>
<text id="&#208;&#157;&#208;&#176;&#208;&#183;&#208;&#178;&#208;&#176;&#208;&#189;&#208;&#184;&#208;&#181;" fill="#D7E2F2" xml:space="preserve" style="white-space: pre" font-family="Tahoma" font-size="13" letter-spacing="0em"><tspan x="1194.38" y="347.161">&#x41f;&#x435;&#x447;&#x44c; &#x410;&#x412;&#x422;-10</tspan></text>
</g>
<g id="element-11_8">
<circle id="circle_5" cx="486" cy="558" r="11.5" fill="#1C1F2B" stroke="#606580"/>
<g id="icon_7">
<g id="Group_15">
<g id="Group_16">
<path id="Vector_31" d="M486 563.25C483.113 563.25 480.75 560.887 480.75 558C480.75 555.113 483.113 552.75 486 552.75C488.887 552.75 491.25 555.113 491.25 558C491.25 560.887 488.887 563.25 486 563.25Z" stroke="#606580" stroke-miterlimit="10" stroke-linecap="round" stroke-linejoin="round"/>
</g>
</g>
<g id="Group_17">
<g id="Group_18">
<path id="Vector_32" d="M486.002 558.902C485.514 558.902 485.102 558.489 485.102 558.002C485.102 557.514 485.514 557.102 486.002 557.102C486.489 557.102 486.902 557.514 486.902 558.002C486.902 558.489 486.489 558.902 486.002 558.902Z" stroke="#606580" stroke-miterlimit="10" stroke-linecap="round" stroke-linejoin="round"/>
</g>
</g>
<g id="Group_19">
<path id="Vector_33" d="M486 561.938V563.25" stroke="#606580" stroke-miterlimit="10" stroke-linecap="round" stroke-linejoin="round"/>
<path id="Vector_34" d="M486 552.977V554.214" stroke="#606580" stroke-miterlimit="10" stroke-linecap="round" stroke-linejoin="round"/>
</g>
<g id="Group_20">
<path id="Vector_35" d="M482.176 558.113H480.863" stroke="#606580" stroke-miterlimit="10" stroke-linecap="round" stroke-linejoin="round"/>
<path id="Vector_36" d="M491.14 558.113H489.902" stroke="#606580" stroke-miterlimit="10" stroke-linecap="round" stroke-linejoin="round"/>
</g>
<path id="Vector_37" d="M486.898 557.098L488.286 555.711" stroke="#606580" stroke-miterlimit="10" stroke-linecap="round" stroke-linejoin="round"/>
</g>
<text id="text_percent_6" fill="#D7E2F2" xml:space="preserve" style="white-space: pre" font-family="Tahoma" font-size="13" letter-spacing="0em"><tspan x="502" y="570.161">99%</tspan></text>
<text id="text_10" fill="#D7E2F2" xml:space="preserve" style="white-space: pre" font-family="Tahoma" font-size="13" letter-spacing="0em"><tspan x="502" y="550.161">Fl11</tspan></text>
<path id="ellipse" d="M454 558C454 560.209 452.209 562 450 562C447.791 562 446 560.209 446 558C446 555.791 447.791 554 450 554C452.209 554 454 555.791 454 558Z" fill="white"/>
</g>
<g id="element-11_7">
<circle id="circle_6" cx="486" cy="490" r="11.5" fill="#1C1F2B" stroke="#606580"/>
<g id="icon_8">
<g id="Group_21">
<g id="Group_22">
<path id="Vector_38" d="M486 495.25C483.113 495.25 480.75 492.887 480.75 490C480.75 487.113 483.113 484.75 486 484.75C488.887 484.75 491.25 487.113 491.25 490C491.25 492.887 488.887 495.25 486 495.25Z" stroke="#606580" stroke-miterlimit="10" stroke-linecap="round" stroke-linejoin="round"/>
</g>
</g>
<g id="Group_23">
<g id="Group_24">
<path id="Vector_39" d="M486.002 490.902C485.514 490.902 485.102 490.489 485.102 490.002C485.102 489.514 485.514 489.102 486.002 489.102C486.489 489.102 486.902 489.514 486.902 490.002C486.902 490.489 486.489 490.902 486.002 490.902Z" stroke="#606580" stroke-miterlimit="10" stroke-linecap="round" stroke-linejoin="round"/>
</g>
</g>
<g id="Group_25">
<path id="Vector_40" d="M486 493.938V495.25" stroke="#606580" stroke-miterlimit="10" stroke-linecap="round" stroke-linejoin="round"/>
<path id="Vector_41" d="M486 484.977V486.214" stroke="#606580" stroke-miterlimit="10" stroke-linecap="round" stroke-linejoin="round"/>
</g>
<g id="Group_26">
<path id="Vector_42" d="M482.176 490.113H480.863" stroke="#606580" stroke-miterlimit="10" stroke-linecap="round" stroke-linejoin="round"/>
<path id="Vector_43" d="M491.14 490.113H489.902" stroke="#606580" stroke-miterlimit="10" stroke-linecap="round" stroke-linejoin="round"/>
</g>
<path id="Vector_44" d="M486.898 489.098L488.286 487.711" stroke="#606580" stroke-miterlimit="10" stroke-linecap="round" stroke-linejoin="round"/>
</g>
<text id="text_percent_7" fill="#D7E2F2" xml:space="preserve" style="white-space: pre" font-family="Tahoma" font-size="13" letter-spacing="0em"><tspan x="502" y="502.161">99%</tspan></text>
<text id="text_11" fill="#D7E2F2" xml:space="preserve" style="white-space: pre" font-family="Tahoma" font-size="13" letter-spacing="0em"><tspan x="502" y="482.161">Fl11</tspan></text>
<path id="ellipse_2" d="M454 490C454 492.209 452.209 494 450 494C447.791 494 446 492.209 446 490C446 487.791 447.791 486 450 486C452.209 486 454 487.791 454 490Z" fill="white"/>
</g>
<g id="element-11_6">
<circle id="circle_7" cx="486" cy="422" r="11.5" fill="#1C1F2B" stroke="#606580"/>
<g id="icon_9">
<g id="Group_27">
<g id="Group_28">
<path id="Vector_45" d="M486 427.25C483.113 427.25 480.75 424.887 480.75 422C480.75 419.113 483.113 416.75 486 416.75C488.887 416.75 491.25 419.113 491.25 422C491.25 424.887 488.887 427.25 486 427.25Z" stroke="#606580" stroke-miterlimit="10" stroke-linecap="round" stroke-linejoin="round"/>
</g>
</g>
<g id="Group_29">
<g id="Group_30">
<path id="Vector_46" d="M486.002 422.902C485.514 422.902 485.102 422.489 485.102 422.002C485.102 421.514 485.514 421.102 486.002 421.102C486.489 421.102 486.902 421.514 486.902 422.002C486.902 422.489 486.489 422.902 486.002 422.902Z" stroke="#606580" stroke-miterlimit="10" stroke-linecap="round" stroke-linejoin="round"/>
</g>
</g>
<g id="Group_31">
<path id="Vector_47" d="M486 425.938V427.25" stroke="#606580" stroke-miterlimit="10" stroke-linecap="round" stroke-linejoin="round"/>
<path id="Vector_48" d="M486 416.977V418.214" stroke="#606580" stroke-miterlimit="10" stroke-linecap="round" stroke-linejoin="round"/>
</g>
<g id="Group_32">
<path id="Vector_49" d="M482.176 422.113H480.863" stroke="#606580" stroke-miterlimit="10" stroke-linecap="round" stroke-linejoin="round"/>
<path id="Vector_50" d="M491.14 422.113H489.902" stroke="#606580" stroke-miterlimit="10" stroke-linecap="round" stroke-linejoin="round"/>
</g>
<path id="Vector_51" d="M486.898 421.098L488.286 419.711" stroke="#606580" stroke-miterlimit="10" stroke-linecap="round" stroke-linejoin="round"/>
</g>
<text id="text_percent_8" fill="#D7E2F2" xml:space="preserve" style="white-space: pre" font-family="Tahoma" font-size="13" letter-spacing="0em"><tspan x="502" y="434.161">99%</tspan></text>
<text id="text_12" fill="#D7E2F2" xml:space="preserve" style="white-space: pre" font-family="Tahoma" font-size="13" letter-spacing="0em"><tspan x="502" y="414.161">Fl11</tspan></text>
<path id="ellipse_3" d="M454 422C454 424.209 452.209 426 450 426C447.791 426 446 424.209 446 422C446 419.791 447.791 418 450 418C452.209 418 454 419.791 454 422Z" fill="white"/>
</g>
<g id="element-11_5">
<circle id="circle_8" cx="486" cy="354" r="11.5" fill="#1C1F2B" stroke="#606580"/>
<g id="icon_10">
<g id="Group_33">
<g id="Group_34">
<path id="Vector_52" d="M486 359.25C483.113 359.25 480.75 356.887 480.75 354C480.75 351.113 483.113 348.75 486 348.75C488.887 348.75 491.25 351.113 491.25 354C491.25 356.887 488.887 359.25 486 359.25Z" stroke="#606580" stroke-miterlimit="10" stroke-linecap="round" stroke-linejoin="round"/>
</g>
</g>
<g id="Group_35">
<g id="Group_36">
<path id="Vector_53" d="M486.002 354.902C485.514 354.902 485.102 354.489 485.102 354.002C485.102 353.514 485.514 353.102 486.002 353.102C486.489 353.102 486.902 353.514 486.902 354.002C486.902 354.489 486.489 354.902 486.002 354.902Z" stroke="#606580" stroke-miterlimit="10" stroke-linecap="round" stroke-linejoin="round"/>
</g>
</g>
<g id="Group_37">
<path id="Vector_54" d="M486 357.938V359.25" stroke="#606580" stroke-miterlimit="10" stroke-linecap="round" stroke-linejoin="round"/>
<path id="Vector_55" d="M486 348.977V350.214" stroke="#606580" stroke-miterlimit="10" stroke-linecap="round" stroke-linejoin="round"/>
</g>
<g id="Group_38">
<path id="Vector_56" d="M482.176 354.113H480.863" stroke="#606580" stroke-miterlimit="10" stroke-linecap="round" stroke-linejoin="round"/>
<path id="Vector_57" d="M491.14 354.113H489.902" stroke="#606580" stroke-miterlimit="10" stroke-linecap="round" stroke-linejoin="round"/>
</g>
<path id="Vector_58" d="M486.898 353.098L488.286 351.711" stroke="#606580" stroke-miterlimit="10" stroke-linecap="round" stroke-linejoin="round"/>
</g>
<text id="text_percent_9" fill="#D7E2F2" xml:space="preserve" style="white-space: pre" font-family="Tahoma" font-size="13" letter-spacing="0em"><tspan x="502" y="366.161">99%</tspan></text>
<text id="text_13" fill="#D7E2F2" xml:space="preserve" style="white-space: pre" font-family="Tahoma" font-size="13" letter-spacing="0em"><tspan x="502" y="346.161">Fl11</tspan></text>
<path id="ellipse_4" d="M454 354C454 356.209 452.209 358 450 358C447.791 358 446 356.209 446 354C446 351.791 447.791 350 450 350C452.209 350 454 351.791 454 354Z" fill="white"/>
</g>
<g id="element-1_13">
<rect x="785" y="413" width="32" height="152" rx="2" fill="#272A38"/>
<circle id="circle_9" cx="801" cy="429" r="11.5" fill="#1C1F2B" stroke="#606580"/>
<text id="text_14" transform="translate(793 582) rotate(-90)" fill="#D7E2F2" xml:space="preserve" style="white-space: pre" font-family="Tahoma" font-size="13" letter-spacing="0em"><tspan x="42.8564" y="13.1606">PL101TopGa</tspan></text>
<g id="icon_11">
<path id="Vector_59" d="M798.438 428.875H802.938" stroke="#606580" stroke-miterlimit="10" stroke-linecap="round" stroke-linejoin="round"/>
<g id="Group_39">
<path id="Vector_60" d="M800.688 428.875V425.125H802.938" stroke="#606580" stroke-miterlimit="10" stroke-linecap="round" stroke-linejoin="round"/>
<path id="Vector_61" d="M804.325 426.4C804.988 426.4 805.525 425.863 805.525 425.2C805.525 424.537 804.988 424 804.325 424C803.662 424 803.125 424.537 803.125 425.2C803.125 425.863 803.662 426.4 804.325 426.4Z" stroke="#606580" stroke-miterlimit="10" stroke-linecap="round" stroke-linejoin="round"/>
</g>
<path id="Vector_62" d="M800.688 428.875V432.625H802.938" stroke="#606580" stroke-miterlimit="10" stroke-linecap="round" stroke-linejoin="round"/>
<path id="Vector_63" d="M804.325 433.752C804.988 433.752 805.525 433.214 805.525 432.552C805.525 431.889 804.988 431.352 804.325 431.352C803.662 431.352 803.125 431.889 803.125 432.552C803.125 433.214 803.662 433.752 804.325 433.752Z" stroke="#606580" stroke-miterlimit="10" stroke-linecap="round" stroke-linejoin="round"/>
<path id="Vector_64" d="M804.325 430.076C804.988 430.076 805.525 429.539 805.525 428.876C805.525 428.213 804.988 427.676 804.325 427.676C803.662 427.676 803.125 428.213 803.125 428.876C803.125 429.539 803.662 430.076 804.325 430.076Z" stroke="#606580" stroke-miterlimit="10" stroke-linecap="round" stroke-linejoin="round"/>
<path id="Vector_65" d="M797.2 430.076C797.863 430.076 798.4 429.539 798.4 428.876C798.4 428.213 797.863 427.676 797.2 427.676C796.537 427.676 796 428.213 796 428.876C796 429.539 796.537 430.076 797.2 430.076Z" stroke="#606580" stroke-miterlimit="10" stroke-linecap="round" stroke-linejoin="round"/>
</g>
<rect x="785" y="413" width="32" height="152" rx="2" stroke="#606580"/>
</g>
<g id=".on&#38;off_5">
<g id=".template on&#38;off_5">
<circle id="border_5" cx="818" cy="489" r="6.5" fill="#1C1F2B" stroke="#606580"/>
</g>
</g>
<g id="element-11_14">
<circle id="circle_10" cx="854" cy="489" r="11.5" fill="#1C1F2B" stroke="#606580"/>
<g id="icon_12">
<g id="Group_40">
<g id="Group_41">
<path id="Vector_66" d="M854 494.25C851.113 494.25 848.75 491.887 848.75 489C848.75 486.113 851.113 483.75 854 483.75C856.887 483.75 859.25 486.113 859.25 489C859.25 491.887 856.887 494.25 854 494.25Z" stroke="#606580" stroke-miterlimit="10" stroke-linecap="round" stroke-linejoin="round"/>
</g>
</g>
<g id="Group_42">
<g id="Group_43">
<path id="Vector_67" d="M854.002 489.902C853.514 489.902 853.102 489.489 853.102 489.002C853.102 488.514 853.514 488.102 854.002 488.102C854.489 488.102 854.902 488.514 854.902 489.002C854.902 489.489 854.489 489.902 854.002 489.902Z" stroke="#606580" stroke-miterlimit="10" stroke-linecap="round" stroke-linejoin="round"/>
</g>
</g>
<g id="Group_44">
<path id="Vector_68" d="M854 492.938V494.25" stroke="#606580" stroke-miterlimit="10" stroke-linecap="round" stroke-linejoin="round"/>
<path id="Vector_69" d="M854 483.977V485.214" stroke="#606580" stroke-miterlimit="10" stroke-linecap="round" stroke-linejoin="round"/>
</g>
<g id="Group_45">
<path id="Vector_70" d="M850.176 489.113H848.863" stroke="#606580" stroke-miterlimit="10" stroke-linecap="round" stroke-linejoin="round"/>
<path id="Vector_71" d="M859.14 489.113H857.902" stroke="#606580" stroke-miterlimit="10" stroke-linecap="round" stroke-linejoin="round"/>
</g>
<path id="Vector_72" d="M854.898 488.098L856.286 486.711" stroke="#606580" stroke-miterlimit="10" stroke-linecap="round" stroke-linejoin="round"/>
</g>
<text id="text_percent_10" fill="#D7E2F2" xml:space="preserve" style="white-space: pre" font-family="Tahoma" font-size="13" letter-spacing="0em"><tspan x="870" y="501.161">99%</tspan></text>
<text id="text_15" fill="#D7E2F2" xml:space="preserve" style="white-space: pre" font-family="Tahoma" font-size="13" letter-spacing="0em"><tspan x="870" y="481.161">Fl11</tspan></text>
<path id="ellipse_5" d="M822 489C822 491.209 820.209 493 818 493C815.791 493 814 491.209 814 489C814 486.791 815.791 485 818 485C820.209 485 822 486.791 822 489Z" fill="white"/>
</g>
</g>
</svg>
