<svg width="1593" height="887" viewBox="0 0 1593 887" fill="none" xmlns="http://www.w3.org/2000/svg">
<g id="&#208;&#162;&#208;&#190;&#208;&#191;&#208;&#187;&#208;&#184;&#208;&#178;&#208;&#190; &#208;&#154;&#208;&#159;&#208;&#144;-100">
<rect width="1593" height="887" fill="#1C1F2B"/>
<g id="element-1_1__kpa-c100-fuel">
<g id="rect">
<rect x="196" y="384" width="200" height="36" rx="2" fill="#272A38"/>
<rect x="196" y="384" width="200" height="36" rx="2" stroke="#606580"/>
</g>
<g id="arrow-group">
<g id="arrow_double_right">
<g id="Group">
<g id="Group_2">
<path id="arrow" d="M372.824 396.75L378.074 402L372.824 407.25" stroke="#606580" stroke-miterlimit="10" stroke-linecap="round" stroke-linejoin="round"/>
</g>
<g id="Group_3">
<path id="arrow_2" d="M377.926 396.75L383.176 402L377.926 407.25" stroke="#606580" stroke-miterlimit="10" stroke-linecap="round" stroke-linejoin="round"/>
</g>
</g>
</g>
</g>
<text id="text" fill="#D7E2F2" xml:space="preserve" style="white-space: pre" font-family="Tahoma" font-size="13" letter-spacing="0em"><tspan x="231" y="400.161">&#x418;&#x437; &#x43a;&#x43e;&#x43b;&#x43b;&#x435;&#x43a;&#x442;&#x43e;&#x440;&#x430; &#x441;&#x44b;&#x440;&#x43e;&#x439;&#10;</tspan><tspan x="231" y="414.161">&#x43d;&#x435;&#x444;&#x442;&#x438; (&#x422;&#x421;&#x411;-2)</tspan></text>
<circle id="circle" cx="212" cy="402" r="11.5" fill="#1C1F2B" stroke="#606580"/>
<g id="icon">
<path id="Vector" d="M209.676 402H214.176" stroke="#606580" stroke-miterlimit="10" stroke-linecap="round" stroke-linejoin="round"/>
<g id="Group_4">
<path id="Vector_2" d="M211.926 402V398.25H214.176" stroke="#606580" stroke-miterlimit="10" stroke-linecap="round" stroke-linejoin="round"/>
<path id="Vector_3" d="M215.563 399.525C216.226 399.525 216.763 398.988 216.763 398.325C216.763 397.662 216.226 397.125 215.563 397.125C214.901 397.125 214.363 397.662 214.363 398.325C214.363 398.988 214.901 399.525 215.563 399.525Z" stroke="#606580" stroke-miterlimit="10" stroke-linecap="round" stroke-linejoin="round"/>
</g>
<path id="Vector_4" d="M211.926 402V405.75H214.176" stroke="#606580" stroke-miterlimit="10" stroke-linecap="round" stroke-linejoin="round"/>
<path id="Vector_5" d="M215.563 406.877C216.226 406.877 216.763 406.339 216.763 405.677C216.763 405.014 216.226 404.477 215.563 404.477C214.901 404.477 214.363 405.014 214.363 405.677C214.363 406.339 214.901 406.877 215.563 406.877Z" stroke="#606580" stroke-miterlimit="10" stroke-linecap="round" stroke-linejoin="round"/>
<path id="Vector_6" d="M215.563 403.201C216.226 403.201 216.763 402.664 216.763 402.001C216.763 401.338 216.226 400.801 215.563 400.801C214.901 400.801 214.363 401.338 214.363 402.001C214.363 402.664 214.901 403.201 215.563 403.201Z" stroke="#606580" stroke-miterlimit="10" stroke-linecap="round" stroke-linejoin="round"/>
<path id="Vector_7" d="M208.438 403.201C209.101 403.201 209.638 402.664 209.638 402.001C209.638 401.338 209.101 400.801 208.438 400.801C207.776 400.801 207.238 401.338 207.238 402.001C207.238 402.664 207.776 403.201 208.438 403.201Z" stroke="#606580" stroke-miterlimit="10" stroke-linecap="round" stroke-linejoin="round"/>
</g>
</g>
<g id="element-1_2">
<g id="rect_2">
<rect x="196" y="504" width="200" height="36" rx="2" fill="#272A38"/>
<rect x="196" y="504" width="200" height="36" rx="2" stroke="#606580"/>
</g>
<g id="arrow-group_2">
<g id="arrow_double_right_2">
<g id="Group_5">
<g id="Group_6">
<path id="arrow_3" d="M372.824 516.75L378.074 522L372.824 527.25" stroke="#606580" stroke-miterlimit="10" stroke-linecap="round" stroke-linejoin="round"/>
</g>
<g id="Group_7">
<path id="arrow_4" d="M377.926 516.75L383.176 522L377.926 527.25" stroke="#606580" stroke-miterlimit="10" stroke-linecap="round" stroke-linejoin="round"/>
</g>
</g>
</g>
</g>
<text id="text_2" fill="#D7E2F2" xml:space="preserve" style="white-space: pre" font-family="Tahoma" font-size="13" letter-spacing="0em"><tspan x="231" y="520.161">&#x418;&#x437; &#x43a;&#x43e;&#x43b;&#x43b;&#x435;&#x43a;&#x442;&#x43e;&#x440;&#x430; &#x441;&#x44b;&#x440;&#x43e;&#x439;&#10;</tspan><tspan x="231" y="534.161">&#x43d;&#x435;&#x444;&#x442;&#x438; (&#x422;&#x421;&#x411;-2)</tspan></text>
<circle id="circle_2" cx="212" cy="522" r="11.5" fill="#1C1F2B" stroke="#606580"/>
<g id="icon_2">
<path id="Vector_8" d="M209.676 522H214.176" stroke="#606580" stroke-miterlimit="10" stroke-linecap="round" stroke-linejoin="round"/>
<g id="Group_8">
<path id="Vector_9" d="M211.926 522V518.25H214.176" stroke="#606580" stroke-miterlimit="10" stroke-linecap="round" stroke-linejoin="round"/>
<path id="Vector_10" d="M215.563 519.525C216.226 519.525 216.763 518.988 216.763 518.325C216.763 517.662 216.226 517.125 215.563 517.125C214.901 517.125 214.363 517.662 214.363 518.325C214.363 518.988 214.901 519.525 215.563 519.525Z" stroke="#606580" stroke-miterlimit="10" stroke-linecap="round" stroke-linejoin="round"/>
</g>
<path id="Vector_11" d="M211.926 522V525.75H214.176" stroke="#606580" stroke-miterlimit="10" stroke-linecap="round" stroke-linejoin="round"/>
<path id="Vector_12" d="M215.563 526.877C216.226 526.877 216.763 526.339 216.763 525.677C216.763 525.014 216.226 524.477 215.563 524.477C214.901 524.477 214.363 525.014 214.363 525.677C214.363 526.339 214.901 526.877 215.563 526.877Z" stroke="#606580" stroke-miterlimit="10" stroke-linecap="round" stroke-linejoin="round"/>
<path id="Vector_13" d="M215.563 523.201C216.226 523.201 216.763 522.664 216.763 522.001C216.763 521.338 216.226 520.801 215.563 520.801C214.901 520.801 214.363 521.338 214.363 522.001C214.363 522.664 214.901 523.201 215.563 523.201Z" stroke="#606580" stroke-miterlimit="10" stroke-linecap="round" stroke-linejoin="round"/>
<path id="Vector_14" d="M208.438 523.201C209.101 523.201 209.638 522.664 209.638 522.001C209.638 521.338 209.101 520.801 208.438 520.801C207.776 520.801 207.238 521.338 207.238 522.001C207.238 522.664 207.776 523.201 208.438 523.201Z" stroke="#606580" stroke-miterlimit="10" stroke-linecap="round" stroke-linejoin="round"/>
</g>
</g>
<g id="element-1_13">
<g id="rect_3">
<rect x="1147" y="540" width="200" height="36" rx="2" fill="#272A38"/>
<rect x="1147" y="540" width="200" height="36" rx="2" stroke="#606580"/>
</g>
<g id="arrow-group_3">
<g id="arrow_double_right_3">
<g id="Group_9">
<g id="Group_10">
<path id="arrow_5" d="M1323.82 552.75L1329.07 558L1323.82 563.25" stroke="#606580" stroke-miterlimit="10" stroke-linecap="round" stroke-linejoin="round"/>
</g>
<g id="Group_11">
<path id="arrow_6" d="M1328.93 552.75L1334.18 558L1328.93 563.25" stroke="#606580" stroke-miterlimit="10" stroke-linecap="round" stroke-linejoin="round"/>
</g>
</g>
</g>
</g>
<text id="text_3" fill="#D7E2F2" xml:space="preserve" style="white-space: pre" font-family="Tahoma" font-size="13" letter-spacing="0em"><tspan x="1182" y="556.161">&#x418;&#x437; &#x43a;&#x43e;&#x43b;&#x43b;&#x435;&#x43a;&#x442;&#x43e;&#x440;&#x430; &#x441;&#x44b;&#x440;&#x43e;&#x439;&#10;</tspan><tspan x="1182" y="570.161">&#x43d;&#x435;&#x444;&#x442;&#x438; (&#x422;&#x421;&#x411;-2)</tspan></text>
<circle id="circle_3" cx="1163" cy="558" r="11.5" fill="#1C1F2B" stroke="#606580"/>
<g id="icon_3">
<path id="Vector_15" d="M1160.68 558H1165.18" stroke="#606580" stroke-miterlimit="10" stroke-linecap="round" stroke-linejoin="round"/>
<g id="Group_12">
<path id="Vector_16" d="M1162.93 558V554.25H1165.18" stroke="#606580" stroke-miterlimit="10" stroke-linecap="round" stroke-linejoin="round"/>
<path id="Vector_17" d="M1166.56 555.525C1167.23 555.525 1167.76 554.988 1167.76 554.325C1167.76 553.662 1167.23 553.125 1166.56 553.125C1165.9 553.125 1165.36 553.662 1165.36 554.325C1165.36 554.988 1165.9 555.525 1166.56 555.525Z" stroke="#606580" stroke-miterlimit="10" stroke-linecap="round" stroke-linejoin="round"/>
</g>
<path id="Vector_18" d="M1162.93 558V561.75H1165.18" stroke="#606580" stroke-miterlimit="10" stroke-linecap="round" stroke-linejoin="round"/>
<path id="Vector_19" d="M1166.56 562.877C1167.23 562.877 1167.76 562.339 1167.76 561.677C1167.76 561.014 1167.23 560.477 1166.56 560.477C1165.9 560.477 1165.36 561.014 1165.36 561.677C1165.36 562.339 1165.9 562.877 1166.56 562.877Z" stroke="#606580" stroke-miterlimit="10" stroke-linecap="round" stroke-linejoin="round"/>
<path id="Vector_20" d="M1166.56 559.201C1167.23 559.201 1167.76 558.664 1167.76 558.001C1167.76 557.338 1167.23 556.801 1166.56 556.801C1165.9 556.801 1165.36 557.338 1165.36 558.001C1165.36 558.664 1165.9 559.201 1166.56 559.201Z" stroke="#606580" stroke-miterlimit="10" stroke-linecap="round" stroke-linejoin="round"/>
<path id="Vector_21" d="M1159.44 559.201C1160.1 559.201 1160.64 558.664 1160.64 558.001C1160.64 557.338 1160.1 556.801 1159.44 556.801C1158.78 556.801 1158.24 557.338 1158.24 558.001C1158.24 558.664 1158.78 559.201 1159.44 559.201Z" stroke="#606580" stroke-miterlimit="10" stroke-linecap="round" stroke-linejoin="round"/>
</g>
</g>
<path id="line" d="M444 402L588 402" stroke="#606580" stroke-linecap="round"/>
<path id="line_2" d="M403 402L420 402" stroke="#606580" stroke-linecap="round"/>
<path id="line_3" d="M403 522L420 522" stroke="#606580" stroke-linecap="round"/>
<g id=".on&#38;off">
<g id=".template on&#38;off">
<circle id="border" cx="396" cy="402" r="6.5" fill="#1C1F2B" stroke="#606580"/>
</g>
</g>
<g id="Group 22841">
<path id="line_4" d="M756 402H1141" stroke="#606580" stroke-linecap="round"/>
<g id=".start&#38;end">
<path id="Rectangle 7354" d="M1141 399L1147 402L1141 405V402V399Z" fill="#606580"/>
</g>
</g>
<path id="line_5" d="M444 522L588 522" stroke="#606580" stroke-linecap="round"/>
<g id=".on&#38;off_2">
<g id=".template on&#38;off_2">
<circle id="border_2" cx="396" cy="522" r="6.5" fill="#1C1F2B" stroke="#606580"/>
</g>
</g>
<g id="Group 22844">
<path id="line_6" d="M756 522L772 522" stroke="#606580" stroke-linecap="round"/>
<g id=".start&#38;end_2">
<path id="Rectangle 7354_2" d="M772 519L778 522L772 525V522V519Z" fill="#606580"/>
</g>
</g>
<g id="element-11_3">
<circle id="circle_4" cx="432" cy="402" r="11.5" fill="#1C1F2B" stroke="#606580"/>
<g id="icon_4">
<g id="Group_13">
<g id="Group_14">
<path id="Vector_22" d="M432 407.25C429.113 407.25 426.75 404.887 426.75 402C426.75 399.113 429.113 396.75 432 396.75C434.887 396.75 437.25 399.113 437.25 402C437.25 404.887 434.887 407.25 432 407.25Z" stroke="#606580" stroke-miterlimit="10" stroke-linecap="round" stroke-linejoin="round"/>
</g>
</g>
<g id="Group_15">
<g id="Group_16">
<path id="Vector_23" d="M432.002 402.902C431.514 402.902 431.102 402.489 431.102 402.002C431.102 401.514 431.514 401.102 432.002 401.102C432.489 401.102 432.902 401.514 432.902 402.002C432.902 402.489 432.489 402.902 432.002 402.902Z" stroke="#606580" stroke-miterlimit="10" stroke-linecap="round" stroke-linejoin="round"/>
</g>
</g>
<g id="Group_17">
<path id="Vector_24" d="M432 405.938V407.25" stroke="#606580" stroke-miterlimit="10" stroke-linecap="round" stroke-linejoin="round"/>
<path id="Vector_25" d="M432 396.977V398.214" stroke="#606580" stroke-miterlimit="10" stroke-linecap="round" stroke-linejoin="round"/>
</g>
<g id="Group_18">
<path id="Vector_26" d="M428.176 402.113H426.863" stroke="#606580" stroke-miterlimit="10" stroke-linecap="round" stroke-linejoin="round"/>
<path id="Vector_27" d="M437.14 402.113H435.902" stroke="#606580" stroke-miterlimit="10" stroke-linecap="round" stroke-linejoin="round"/>
</g>
<path id="Vector_28" d="M432.898 401.098L434.286 399.711" stroke="#606580" stroke-miterlimit="10" stroke-linecap="round" stroke-linejoin="round"/>
</g>
<text id="text_percent" fill="#D7E2F2" xml:space="preserve" style="white-space: pre" font-family="Tahoma" font-size="13" letter-spacing="0em"><tspan x="448" y="414.161">99%</tspan></text>
<text id="text_4" fill="#D7E2F2" xml:space="preserve" style="white-space: pre" font-family="Tahoma" font-size="13" letter-spacing="0em"><tspan x="448" y="394.161">Fl11</tspan></text>
<circle id="ellipse" cx="396" cy="402" r="4" fill="white"/>
</g>
<g id="element-11_4">
<circle id="circle_5" cx="432" cy="522" r="11.5" fill="#1C1F2B" stroke="#606580"/>
<g id="icon_5">
<g id="Group_19">
<g id="Group_20">
<path id="Vector_29" d="M432 527.25C429.113 527.25 426.75 524.887 426.75 522C426.75 519.113 429.113 516.75 432 516.75C434.887 516.75 437.25 519.113 437.25 522C437.25 524.887 434.887 527.25 432 527.25Z" stroke="#606580" stroke-miterlimit="10" stroke-linecap="round" stroke-linejoin="round"/>
</g>
</g>
<g id="Group_21">
<g id="Group_22">
<path id="Vector_30" d="M432.002 522.902C431.514 522.902 431.102 522.489 431.102 522.002C431.102 521.514 431.514 521.102 432.002 521.102C432.489 521.102 432.902 521.514 432.902 522.002C432.902 522.489 432.489 522.902 432.002 522.902Z" stroke="#606580" stroke-miterlimit="10" stroke-linecap="round" stroke-linejoin="round"/>
</g>
</g>
<g id="Group_23">
<path id="Vector_31" d="M432 525.938V527.25" stroke="#606580" stroke-miterlimit="10" stroke-linecap="round" stroke-linejoin="round"/>
<path id="Vector_32" d="M432 516.977V518.214" stroke="#606580" stroke-miterlimit="10" stroke-linecap="round" stroke-linejoin="round"/>
</g>
<g id="Group_24">
<path id="Vector_33" d="M428.176 522.113H426.863" stroke="#606580" stroke-miterlimit="10" stroke-linecap="round" stroke-linejoin="round"/>
<path id="Vector_34" d="M437.14 522.113H435.902" stroke="#606580" stroke-miterlimit="10" stroke-linecap="round" stroke-linejoin="round"/>
</g>
<path id="Vector_35" d="M432.898 521.098L434.286 519.711" stroke="#606580" stroke-miterlimit="10" stroke-linecap="round" stroke-linejoin="round"/>
</g>
<text id="text_percent_2" fill="#D7E2F2" xml:space="preserve" style="white-space: pre" font-family="Tahoma" font-size="13" letter-spacing="0em"><tspan x="448" y="534.161">99%</tspan></text>
<text id="text_5" fill="#D7E2F2" xml:space="preserve" style="white-space: pre" font-family="Tahoma" font-size="13" letter-spacing="0em"><tspan x="448" y="514.161">Fl11</tspan></text>
<circle id="ellipse_2" cx="396" cy="522" r="4" fill="white"/>
</g>
<g id="element-11_8">
<circle id="circle_6" cx="849" cy="490" r="11.5" fill="#1C1F2B" stroke="#606580"/>
<g id="icon_6">
<g id="Group_25">
<g id="Group_26">
<path id="Vector_36" d="M849 495.25C846.113 495.25 843.75 492.887 843.75 490C843.75 487.113 846.113 484.75 849 484.75C851.887 484.75 854.25 487.113 854.25 490C854.25 492.887 851.887 495.25 849 495.25Z" stroke="#606580" stroke-miterlimit="10" stroke-linecap="round" stroke-linejoin="round"/>
</g>
</g>
<g id="Group_27">
<g id="Group_28">
<path id="Vector_37" d="M849.002 490.902C848.514 490.902 848.102 490.489 848.102 490.002C848.102 489.514 848.514 489.102 849.002 489.102C849.489 489.102 849.902 489.514 849.902 490.002C849.902 490.489 849.489 490.902 849.002 490.902Z" stroke="#606580" stroke-miterlimit="10" stroke-linecap="round" stroke-linejoin="round"/>
</g>
</g>
<g id="Group_29">
<path id="Vector_38" d="M849 493.938V495.25" stroke="#606580" stroke-miterlimit="10" stroke-linecap="round" stroke-linejoin="round"/>
<path id="Vector_39" d="M849 484.977V486.214" stroke="#606580" stroke-miterlimit="10" stroke-linecap="round" stroke-linejoin="round"/>
</g>
<g id="Group_30">
<path id="Vector_40" d="M845.176 490.113H843.863" stroke="#606580" stroke-miterlimit="10" stroke-linecap="round" stroke-linejoin="round"/>
<path id="Vector_41" d="M854.14 490.113H852.902" stroke="#606580" stroke-miterlimit="10" stroke-linecap="round" stroke-linejoin="round"/>
</g>
<path id="Vector_42" d="M849.898 489.098L851.286 487.711" stroke="#606580" stroke-miterlimit="10" stroke-linecap="round" stroke-linejoin="round"/>
</g>
<text id="text_percent_3" fill="#D7E2F2" xml:space="preserve" style="white-space: pre" font-family="Tahoma" font-size="13" letter-spacing="0em"><tspan x="865" y="502.161">99%</tspan></text>
<text id="text_6" fill="#D7E2F2" xml:space="preserve" style="white-space: pre" font-family="Tahoma" font-size="13" letter-spacing="0em"><tspan x="865" y="482.161">Fl11</tspan></text>
</g>
<g id="element-11_9">
<circle id="circle_7" cx="849" cy="558" r="11.5" fill="#1C1F2B" stroke="#606580"/>
<g id="icon_7">
<g id="Group_31">
<g id="Group_32">
<path id="Vector_43" d="M849 563.25C846.113 563.25 843.75 560.887 843.75 558C843.75 555.113 846.113 552.75 849 552.75C851.887 552.75 854.25 555.113 854.25 558C854.25 560.887 851.887 563.25 849 563.25Z" stroke="#606580" stroke-miterlimit="10" stroke-linecap="round" stroke-linejoin="round"/>
</g>
</g>
<g id="Group_33">
<g id="Group_34">
<path id="Vector_44" d="M849.002 558.902C848.514 558.902 848.102 558.489 848.102 558.002C848.102 557.514 848.514 557.102 849.002 557.102C849.489 557.102 849.902 557.514 849.902 558.002C849.902 558.489 849.489 558.902 849.002 558.902Z" stroke="#606580" stroke-miterlimit="10" stroke-linecap="round" stroke-linejoin="round"/>
</g>
</g>
<g id="Group_35">
<path id="Vector_45" d="M849 561.938V563.25" stroke="#606580" stroke-miterlimit="10" stroke-linecap="round" stroke-linejoin="round"/>
<path id="Vector_46" d="M849 552.977V554.214" stroke="#606580" stroke-miterlimit="10" stroke-linecap="round" stroke-linejoin="round"/>
</g>
<g id="Group_36">
<path id="Vector_47" d="M845.176 558.113H843.863" stroke="#606580" stroke-miterlimit="10" stroke-linecap="round" stroke-linejoin="round"/>
<path id="Vector_48" d="M854.14 558.113H852.902" stroke="#606580" stroke-miterlimit="10" stroke-linecap="round" stroke-linejoin="round"/>
</g>
<path id="Vector_49" d="M849.898 557.098L851.286 555.711" stroke="#606580" stroke-miterlimit="10" stroke-linecap="round" stroke-linejoin="round"/>
</g>
<text id="text_percent_4" fill="#D7E2F2" xml:space="preserve" style="white-space: pre" font-family="Tahoma" font-size="13" letter-spacing="0em"><tspan x="865" y="570.161">99%</tspan></text>
<text id="text_7" fill="#D7E2F2" xml:space="preserve" style="white-space: pre" font-family="Tahoma" font-size="13" letter-spacing="0em"><tspan x="865" y="550.161">Fl11</tspan></text>
</g>
<g id="element-3_5">
<g id="rect_4">
<rect x="588.5" y="380.5" width="169" height="43" rx="1.5" fill="#1C1F2B"/>
<rect x="588.5" y="380.5" width="169" height="43" rx="1.5" stroke="#606580"/>
</g>
<text id="text_8" fill="#D7E2F2" xml:space="preserve" style="white-space: pre" font-family="Tahoma" font-size="13" letter-spacing="0em"><tspan x="596" y="397.161">&#x41d;&#x435;&#x444;&#x442;&#x44f;&#x43d;&#x43e;&#x435; &#x441;&#x44b;&#x440;&#x44c;&#x435;</tspan></text>
<text id="text_value" fill="#D7E2F2" xml:space="preserve" style="white-space: pre" font-family="Tahoma" font-size="13" letter-spacing="0em"><tspan x="596" y="417.161">12 000&#x442;</tspan></text>
<text id="text_percent_5" fill="#D7E2F2" xml:space="preserve" style="white-space: pre" font-family="Tahoma" font-size="13" letter-spacing="0em"><tspan x="650" y="417.161">12.85%</tspan></text>
</g>
<g id="element-3_6">
<g id="rect_5">
<rect x="588.5" y="500.5" width="169" height="43" rx="1.5" fill="#1C1F2B"/>
<rect x="588.5" y="500.5" width="169" height="43" rx="1.5" stroke="#606580"/>
</g>
<text id="text_9" fill="#D7E2F2" xml:space="preserve" style="white-space: pre" font-family="Tahoma" font-size="13" letter-spacing="0em"><tspan x="596" y="517.161">&#x41d;&#x435;&#x444;&#x442;&#x44f;&#x43d;&#x43e;&#x435; &#x441;&#x44b;&#x440;&#x44c;&#x435;</tspan></text>
<text id="text_value_2" fill="#D7E2F2" xml:space="preserve" style="white-space: pre" font-family="Tahoma" font-size="13" letter-spacing="0em"><tspan x="596" y="537.161">12 000&#x442;</tspan></text>
<text id="text_percent_6" fill="#D7E2F2" xml:space="preserve" style="white-space: pre" font-family="Tahoma" font-size="13" letter-spacing="0em"><tspan x="650" y="537.161">12.85%</tspan></text>
</g>
<g id="element-3_10">
<g id="rect_6">
<rect x="957.5" y="468.5" width="169" height="43" rx="1.5" fill="#1C1F2B"/>
<rect x="957.5" y="468.5" width="169" height="43" rx="1.5" stroke="#606580"/>
</g>
<text id="text_10" fill="#D7E2F2" xml:space="preserve" style="white-space: pre" font-family="Tahoma" font-size="13" letter-spacing="0em"><tspan x="965" y="485.161">&#x41d;&#x435;&#x444;&#x442;&#x44f;&#x43d;&#x43e;&#x435; &#x441;&#x44b;&#x440;&#x44c;&#x435;</tspan></text>
<text id="text_value_3" fill="#D7E2F2" xml:space="preserve" style="white-space: pre" font-family="Tahoma" font-size="13" letter-spacing="0em"><tspan x="965" y="505.161">12 000&#x442;</tspan></text>
<text id="text_percent_7" fill="#D7E2F2" xml:space="preserve" style="white-space: pre" font-family="Tahoma" font-size="13" letter-spacing="0em"><tspan x="1019" y="505.161">12.85%</tspan></text>
</g>
<g id="element-3_11">
<g id="rect_7">
<rect x="957.5" y="536.5" width="169" height="43" rx="1.5" fill="#1C1F2B"/>
<rect x="957.5" y="536.5" width="169" height="43" rx="1.5" stroke="#606580"/>
</g>
<text id="text_11" fill="#D7E2F2" xml:space="preserve" style="white-space: pre" font-family="Tahoma" font-size="13" letter-spacing="0em"><tspan x="965" y="553.161">&#x41d;&#x435;&#x444;&#x442;&#x44f;&#x43d;&#x43e;&#x435; &#x441;&#x44b;&#x440;&#x44c;&#x435;</tspan></text>
<text id="text_value_4" fill="#D7E2F2" xml:space="preserve" style="white-space: pre" font-family="Tahoma" font-size="13" letter-spacing="0em"><tspan x="965" y="573.161">12 000&#x442;</tspan></text>
<text id="text_percent_8" fill="#D7E2F2" xml:space="preserve" style="white-space: pre" font-family="Tahoma" font-size="13" letter-spacing="0em"><tspan x="1019" y="573.161">12.85%</tspan></text>
</g>
<g id="Collector">
<path d="M780 451C780 449.895 780.895 449 782 449H810C811.105 449 812 449.895 812 451V593C812 594.105 811.105 595 810 595H782C780.895 595 780 594.105 780 593V451Z" fill="#272A38"/>
<g id="Idicator type">
<circle id="Ellipse 2098" cx="796" cy="465" r="11.5" fill="#1C1F2B" stroke="#606580"/>
<g id="scheme_roadmap_links">
<g id="Group_37">
<path id="Vector_50" d="M793.676 465H798.176" stroke="#606580" stroke-miterlimit="10" stroke-linecap="round" stroke-linejoin="round"/>
<g id="Group_38">
<path id="Vector_51" d="M795.926 465V461.25H798.176" stroke="#606580" stroke-miterlimit="10" stroke-linecap="round" stroke-linejoin="round"/>
<path id="Vector_52" d="M799.563 462.525C800.226 462.525 800.763 461.988 800.763 461.325C800.763 460.662 800.226 460.125 799.563 460.125C798.901 460.125 798.363 460.662 798.363 461.325C798.363 461.988 798.901 462.525 799.563 462.525Z" stroke="#606580" stroke-miterlimit="10" stroke-linecap="round" stroke-linejoin="round"/>
</g>
<path id="Vector_53" d="M795.926 465V468.75H798.176" stroke="#606580" stroke-miterlimit="10" stroke-linecap="round" stroke-linejoin="round"/>
<path id="Vector_54" d="M799.563 469.877C800.226 469.877 800.763 469.339 800.763 468.677C800.763 468.014 800.226 467.477 799.563 467.477C798.901 467.477 798.363 468.014 798.363 468.677C798.363 469.339 798.901 469.877 799.563 469.877Z" stroke="#606580" stroke-miterlimit="10" stroke-linecap="round" stroke-linejoin="round"/>
<path id="Vector_55" d="M799.563 466.201C800.226 466.201 800.763 465.664 800.763 465.001C800.763 464.338 800.226 463.801 799.563 463.801C798.901 463.801 798.363 464.338 798.363 465.001C798.363 465.664 798.901 466.201 799.563 466.201Z" stroke="#606580" stroke-miterlimit="10" stroke-linecap="round" stroke-linejoin="round"/>
<path id="Vector_56" d="M792.438 466.201C793.101 466.201 793.638 465.664 793.638 465.001C793.638 464.338 793.101 463.801 792.438 463.801C791.776 463.801 791.238 464.338 791.238 465.001C791.238 465.664 791.776 466.201 792.438 466.201Z" stroke="#606580" stroke-miterlimit="10" stroke-linecap="round" stroke-linejoin="round"/>
</g>
</g>
</g>
<text id="&#208;&#154;&#208;&#190;&#208;&#187;&#208;&#187;&#208;&#181;&#208;&#186;&#209;&#130;&#208;&#190;&#209;&#128;" transform="translate(788 591) rotate(-90)" fill="#D7E2F2" xml:space="preserve" style="white-space: pre" font-family="Tahoma" font-size="13" letter-spacing="0em"><tspan x="39.1309" y="13.1606">Pltopl</tspan></text>
<path d="M782 449.5H810V448.5H782V449.5ZM811.5 451V593H812.5V451H811.5ZM810 594.5H782V595.5H810V594.5ZM780.5 593V451H779.5V593H780.5ZM782 594.5C781.172 594.5 780.5 593.828 780.5 593H779.5C779.5 594.381 780.619 595.5 782 595.5V594.5ZM811.5 593C811.5 593.828 810.828 594.5 810 594.5V595.5C811.381 595.5 812.5 594.381 812.5 593H811.5ZM810 449.5C810.828 449.5 811.5 450.172 811.5 451H812.5C812.5 449.619 811.381 448.5 810 448.5V449.5ZM782 448.5C780.619 448.5 779.5 449.619 779.5 451H780.5C780.5 450.172 781.172 449.5 782 449.5V448.5Z" fill="#606580"/>
</g>
<g id="element-30_12">
<g id="oven">
<g id="Union">
<mask id="path-116-inside-1" fill="white">
<path fill-rule="evenodd" clip-rule="evenodd" d="M1270.88 292H1183.12L1168.5 312.8V364.8L1149 396V511C1149 512.105 1149.9 513 1151 513H1303C1304.1 513 1305 512.105 1305 511V396L1285.5 364.8V312.8L1270.88 292Z"/>
</mask>
<path fill-rule="evenodd" clip-rule="evenodd" d="M1270.88 292H1183.12L1168.5 312.8V364.8L1149 396V511C1149 512.105 1149.9 513 1151 513H1303C1304.1 513 1305 512.105 1305 511V396L1285.5 364.8V312.8L1270.88 292Z" fill="#272A38"/>
<path d="M1183.12 292V291H1182.61L1182.31 291.425L1183.12 292ZM1270.88 292L1271.69 291.425L1271.39 291H1270.88V292ZM1168.5 312.8L1167.68 312.225L1167.5 312.484V312.8H1168.5ZM1168.5 364.8L1169.35 365.33L1169.5 365.087V364.8H1168.5ZM1149 396L1148.15 395.47L1148 395.713V396H1149ZM1305 396H1306V395.713L1305.85 395.47L1305 396ZM1285.5 364.8H1284.5V365.087L1284.65 365.33L1285.5 364.8ZM1285.5 312.8H1286.5V312.484L1286.32 312.225L1285.5 312.8ZM1183.12 293H1270.88V291H1183.12V293ZM1169.32 313.375L1183.94 292.575L1182.31 291.425L1167.68 312.225L1169.32 313.375ZM1169.5 364.8V312.8H1167.5V364.8H1169.5ZM1149.85 396.53L1169.35 365.33L1167.65 364.27L1148.15 395.47L1149.85 396.53ZM1150 511V396H1148V511H1150ZM1151 512C1150.45 512 1150 511.552 1150 511H1148C1148 512.657 1149.34 514 1151 514V512ZM1303 512H1151V514H1303V512ZM1304 511C1304 511.552 1303.55 512 1303 512V514C1304.66 514 1306 512.657 1306 511H1304ZM1304 396V511H1306V396H1304ZM1284.65 365.33L1304.15 396.53L1305.85 395.47L1286.35 364.27L1284.65 365.33ZM1284.5 312.8V364.8H1286.5V312.8H1284.5ZM1270.06 292.575L1284.68 313.375L1286.32 312.225L1271.69 291.425L1270.06 292.575Z" fill="#606580" mask="url(#path-116-inside-1)"/>
</g>
</g>
<g id="icon_8">
<g id="fire">
<path id="Vector_57" d="M1197.42 485.443L1194.44 484.143C1193.9 483.883 1193.36 483.623 1193.09 483.363C1187.41 480.243 1185.52 475.043 1187.41 468.543C1188.22 465.943 1189.57 463.603 1190.93 461.523V461.263C1193.09 457.623 1194.98 454.243 1196.33 450.603C1196.61 450.083 1196.61 449.563 1196.88 449.043L1197.42 446.703L1198.77 447.483C1199.04 447.743 1199.04 447.743 1199.31 448.003L1200.39 449.043C1203.64 452.163 1207.15 455.283 1209.86 459.183C1212.56 462.823 1214.19 466.723 1214.46 470.363C1215 476.343 1213.37 480.503 1209.05 483.363C1208.24 483.883 1207.42 484.143 1206.61 484.663C1206.34 484.923 1205.8 484.923 1205.53 485.183L1204.45 485.703L1203.37 483.103L1203.91 482.583C1204.18 482.323 1204.45 482.063 1204.72 481.803C1205.26 481.283 1205.53 480.763 1206.07 480.243C1208.78 475.823 1208.78 471.403 1206.07 466.723C1205.53 465.683 1204.72 464.643 1203.64 463.603C1203.37 466.983 1202.56 470.103 1200.66 473.483L1199.04 476.343L1198.23 473.223C1197.96 471.923 1197.42 470.623 1196.88 469.843C1196.06 471.403 1195.52 472.963 1194.98 474.523C1193.9 477.383 1194.44 479.723 1196.33 481.803C1196.61 482.063 1196.88 482.323 1197.15 483.103L1197.42 485.443Z" stroke="#606580" stroke-miterlimit="10" stroke-linecap="round" stroke-linejoin="round"/>
</g>
<line id="line_7" x1="1216.1" y1="491.301" x2="1185.9" y2="491.301" stroke="#606580" stroke-linecap="round"/>
</g>
<g id="icon_9">
<g id="fire_2">
<path id="Vector_58" d="M1249.42 485.443L1246.44 484.143C1245.9 483.883 1245.36 483.623 1245.09 483.363C1239.41 480.243 1237.52 475.043 1239.41 468.543C1240.22 465.943 1241.57 463.603 1242.93 461.523V461.263C1245.09 457.623 1246.98 454.243 1248.33 450.603C1248.61 450.083 1248.61 449.563 1248.88 449.043L1249.42 446.703L1250.77 447.483C1251.04 447.743 1251.04 447.743 1251.31 448.003L1252.39 449.043C1255.64 452.163 1259.15 455.283 1261.86 459.183C1264.56 462.823 1266.19 466.723 1266.46 470.363C1267 476.343 1265.37 480.503 1261.05 483.363C1260.24 483.883 1259.42 484.143 1258.61 484.663C1258.34 484.923 1257.8 484.923 1257.53 485.183L1256.45 485.703L1255.37 483.103L1255.91 482.583C1256.18 482.323 1256.45 482.063 1256.72 481.803C1257.26 481.283 1257.53 480.763 1258.07 480.243C1260.78 475.823 1260.78 471.403 1258.07 466.723C1257.53 465.683 1256.72 464.643 1255.64 463.603C1255.37 466.983 1254.56 470.103 1252.66 473.483L1251.04 476.343L1250.23 473.223C1249.96 471.923 1249.42 470.623 1248.88 469.843C1248.06 471.403 1247.52 472.963 1246.98 474.523C1245.9 477.383 1246.44 479.723 1248.33 481.803C1248.61 482.063 1248.88 482.323 1249.15 483.103L1249.42 485.443Z" stroke="#606580" stroke-miterlimit="10" stroke-linecap="round" stroke-linejoin="round"/>
</g>
<line id="line_8" x1="1268.1" y1="491.301" x2="1237.9" y2="491.301" stroke="#606580" stroke-linecap="round"/>
</g>
<text id="text_12" fill="#D7E2F2" xml:space="preserve" style="white-space: pre" font-family="Tahoma" font-size="13" letter-spacing="0em"><tspan x="1227.04" y="332.161">U6097</tspan></text>
</g>
<path id="line_dotted" d="M819 490H837" stroke="#606580" stroke-linecap="round" stroke-dasharray="2 4"/>
<g id=".on&#38;off_3">
<g id=".template on&#38;off_3">
<circle id="border_3" cx="812" cy="490" r="6.5" fill="#1C1F2B" stroke="#606580"/>
</g>
</g>
<path id="line_9" d="M819 558H837" stroke="#606580" stroke-linecap="round"/>
<path id="line_dotted_2" d="M861 490L957 490" stroke="#606580" stroke-linecap="round" stroke-dasharray="2 4"/>
<path id="line_10" d="M861 558H957" stroke="#606580" stroke-linecap="round"/>
<g id="Group 22842">
<g id=".start&#38;end_3">
<path id="Rectangle 7354_3" d="M1141 487L1147 490L1141 493V490V487Z" fill="#606580"/>
</g>
<path id="line_dotted_3" d="M1125 490L1141 490" stroke="#606580" stroke-linecap="round" stroke-dasharray="2 4"/>
</g>
<g id=".on&#38;off_4">
<g id=".template on&#38;off_4">
<circle id="border_4" cx="812" cy="558" r="6.5" fill="#1C1F2B" stroke="#606580"/>
</g>
</g>
<g id="Group 22843">
<path id="line_11" d="M1125 558H1141" stroke="#606580" stroke-linecap="round"/>
<g id=".start&#38;end_4">
<path id="Rectangle 7354_4" d="M1141 555L1147 558L1141 561V558V555Z" fill="#606580"/>
</g>
</g>
</g>
</svg>
