<svg width="1593" height="887" viewBox="0 0 1593 887" fill="none" xmlns="http://www.w3.org/2000/svg">
<g id="&#208;&#162;&#208;&#190;&#208;&#191;&#208;&#187;&#208;&#184;&#208;&#178;&#208;&#190; &#208;&#155;-35-11-1000">
<rect width="1593" height="887" fill="#1C1F2B"/>
<g id="element-1_1__l-35-11-1000-fuel">
<g id="rect">
<rect x="244" y="306" width="200" height="36" rx="2" fill="#272A38"/>
<rect x="244" y="306" width="200" height="36" rx="2" stroke="#606580"/>
</g>
<g id="arrow-group">
<g id="arrow_double_right">
<g id="Group">
<g id="Group_2">
<path id="arrow" d="M420.824 318.75L426.074 324L420.824 329.25" stroke="#606580" stroke-miterlimit="10" stroke-linecap="round" stroke-linejoin="round"/>
</g>
<g id="Group_3">
<path id="arrow_2" d="M425.926 318.75L431.176 324L425.926 329.25" stroke="#606580" stroke-miterlimit="10" stroke-linecap="round" stroke-linejoin="round"/>
</g>
</g>
</g>
</g>
<text id="text" fill="#D7E2F2" xml:space="preserve" style="white-space: pre" font-family="Tahoma" font-size="13" letter-spacing="0em"><tspan x="279" y="322.161">&#x418;&#x437; &#x43a;&#x43e;&#x43b;&#x43b;&#x435;&#x43a;&#x442;&#x43e;&#x440;&#x430; &#x441;&#x44b;&#x440;&#x43e;&#x439;&#10;</tspan><tspan x="279" y="336.161">&#x43d;&#x435;&#x444;&#x442;&#x438; (&#x422;&#x421;&#x411;-2)</tspan></text>
<circle id="circle" cx="260" cy="324" r="11.5" fill="#1C1F2B" stroke="#606580"/>
<g id="icon">
<path id="Vector" d="M257.676 324H262.176" stroke="#606580" stroke-miterlimit="10" stroke-linecap="round" stroke-linejoin="round"/>
<g id="Group_4">
<path id="Vector_2" d="M259.926 324V320.25H262.176" stroke="#606580" stroke-miterlimit="10" stroke-linecap="round" stroke-linejoin="round"/>
<path id="Vector_3" d="M263.563 321.525C264.226 321.525 264.763 320.988 264.763 320.325C264.763 319.662 264.226 319.125 263.563 319.125C262.901 319.125 262.363 319.662 262.363 320.325C262.363 320.988 262.901 321.525 263.563 321.525Z" stroke="#606580" stroke-miterlimit="10" stroke-linecap="round" stroke-linejoin="round"/>
</g>
<path id="Vector_4" d="M259.926 324V327.75H262.176" stroke="#606580" stroke-miterlimit="10" stroke-linecap="round" stroke-linejoin="round"/>
<path id="Vector_5" d="M263.563 328.877C264.226 328.877 264.763 328.339 264.763 327.677C264.763 327.014 264.226 326.477 263.563 326.477C262.901 326.477 262.363 327.014 262.363 327.677C262.363 328.339 262.901 328.877 263.563 328.877Z" stroke="#606580" stroke-miterlimit="10" stroke-linecap="round" stroke-linejoin="round"/>
<path id="Vector_6" d="M263.563 325.201C264.226 325.201 264.763 324.664 264.763 324.001C264.763 323.338 264.226 322.801 263.563 322.801C262.901 322.801 262.363 323.338 262.363 324.001C262.363 324.664 262.901 325.201 263.563 325.201Z" stroke="#606580" stroke-miterlimit="10" stroke-linecap="round" stroke-linejoin="round"/>
<path id="Vector_7" d="M256.438 325.201C257.101 325.201 257.638 324.664 257.638 324.001C257.638 323.338 257.101 322.801 256.438 322.801C255.776 322.801 255.238 323.338 255.238 324.001C255.238 324.664 255.776 325.201 256.438 325.201Z" stroke="#606580" stroke-miterlimit="10" stroke-linecap="round" stroke-linejoin="round"/>
</g>
</g>
<g id="element-1_2">
<g id="rect_2">
<rect x="244" y="426" width="200" height="36" rx="2" fill="#272A38"/>
<rect x="244" y="426" width="200" height="36" rx="2" stroke="#606580"/>
</g>
<g id="arrow-group_2">
<g id="arrow_double_right_2">
<g id="Group_5">
<g id="Group_6">
<path id="arrow_3" d="M420.824 438.75L426.074 444L420.824 449.25" stroke="#606580" stroke-miterlimit="10" stroke-linecap="round" stroke-linejoin="round"/>
</g>
<g id="Group_7">
<path id="arrow_4" d="M425.926 438.75L431.176 444L425.926 449.25" stroke="#606580" stroke-miterlimit="10" stroke-linecap="round" stroke-linejoin="round"/>
</g>
</g>
</g>
</g>
<text id="text_2" fill="#D7E2F2" xml:space="preserve" style="white-space: pre" font-family="Tahoma" font-size="13" letter-spacing="0em"><tspan x="279" y="442.161">&#x418;&#x437; &#x43a;&#x43e;&#x43b;&#x43b;&#x435;&#x43a;&#x442;&#x43e;&#x440;&#x430; &#x441;&#x44b;&#x440;&#x43e;&#x439;&#10;</tspan><tspan x="279" y="456.161">&#x43d;&#x435;&#x444;&#x442;&#x438; (&#x422;&#x421;&#x411;-2)</tspan></text>
<circle id="circle_2" cx="260" cy="444" r="11.5" fill="#1C1F2B" stroke="#606580"/>
<g id="icon_2">
<path id="Vector_8" d="M255.766 447.181V444.465H258.133L259.283 443.281H260.85V447.181" stroke="#606580" stroke-miterlimit="10" stroke-linecap="round" stroke-linejoin="round"/>
<path id="Vector_9" d="M264.75 447.184H255V448.751H264.75V447.184Z" stroke="#606580" stroke-miterlimit="10" stroke-linecap="round" stroke-linejoin="round"/>
<path id="Vector_10" d="M257.75 439H256.566V444.467H257.75V439Z" stroke="#606580" stroke-miterlimit="10" stroke-linecap="round" stroke-linejoin="round"/>
<path id="Vector_11" d="M260.082 443.283V440.184H263.181V441.333" stroke="#606580" stroke-miterlimit="10" stroke-linecap="round" stroke-linejoin="round"/>
<path id="Vector_12" d="M263.463 445.615H262.941C262.453 445.615 262.035 445.197 262.035 444.71V442.237C262.035 441.75 262.453 441.332 262.941 441.332H263.463C263.95 441.332 264.368 441.75 264.368 442.237V444.71C264.368 445.232 263.95 445.615 263.463 445.615Z" stroke="#606580" stroke-miterlimit="10" stroke-linecap="round" stroke-linejoin="round"/>
<path id="Vector_13" d="M262.418 447.184V445.617" stroke="#606580" stroke-miterlimit="10" stroke-linecap="round" stroke-linejoin="round"/>
<path id="Vector_14" d="M263.984 445.617V447.184" stroke="#606580" stroke-miterlimit="10" stroke-linecap="round" stroke-linejoin="round"/>
</g>
</g>
<g id="element-1_20">
<g id="rect_3">
<rect x="1147" y="275" width="200" height="36" rx="2" fill="#272A38"/>
<rect x="1147" y="275" width="200" height="36" rx="2" stroke="#606580"/>
</g>
<g id="arrow-group_3">
<g id="arrow_double_right_3">
<g id="Group_8">
<g id="Group_9">
<path id="arrow_5" d="M1323.82 287.75L1329.07 293L1323.82 298.25" stroke="#606580" stroke-miterlimit="10" stroke-linecap="round" stroke-linejoin="round"/>
</g>
<g id="Group_10">
<path id="arrow_6" d="M1328.93 287.75L1334.18 293L1328.93 298.25" stroke="#606580" stroke-miterlimit="10" stroke-linecap="round" stroke-linejoin="round"/>
</g>
</g>
</g>
</g>
<text id="text_3" fill="#D7E2F2" xml:space="preserve" style="white-space: pre" font-family="Tahoma" font-size="13" letter-spacing="0em"><tspan x="1182" y="291.161">&#x418;&#x437; &#x43a;&#x43e;&#x43b;&#x43b;&#x435;&#x43a;&#x442;&#x43e;&#x440;&#x430; &#x441;&#x44b;&#x440;&#x43e;&#x439;&#10;</tspan><tspan x="1182" y="305.161">&#x43d;&#x435;&#x444;&#x442;&#x438; (&#x422;&#x421;&#x411;-2)</tspan></text>
<circle id="circle_3" cx="1163" cy="293" r="11.5" fill="#1C1F2B" stroke="#606580"/>
<g id="icon_3">
<path id="Vector_15" d="M1158.77 296.181V293.465H1161.13L1162.28 292.281H1163.85V296.181" stroke="#606580" stroke-miterlimit="10" stroke-linecap="round" stroke-linejoin="round"/>
<path id="Vector_16" d="M1167.75 296.184H1158V297.751H1167.75V296.184Z" stroke="#606580" stroke-miterlimit="10" stroke-linecap="round" stroke-linejoin="round"/>
<path id="Vector_17" d="M1160.75 288H1159.57V293.467H1160.75V288Z" stroke="#606580" stroke-miterlimit="10" stroke-linecap="round" stroke-linejoin="round"/>
<path id="Vector_18" d="M1163.08 292.283V289.184H1166.18V290.333" stroke="#606580" stroke-miterlimit="10" stroke-linecap="round" stroke-linejoin="round"/>
<path id="Vector_19" d="M1166.46 294.615H1165.94C1165.45 294.615 1165.04 294.197 1165.04 293.71V291.237C1165.04 290.75 1165.45 290.332 1165.94 290.332H1166.46C1166.95 290.332 1167.37 290.75 1167.37 291.237V293.71C1167.37 294.232 1166.95 294.615 1166.46 294.615Z" stroke="#606580" stroke-miterlimit="10" stroke-linecap="round" stroke-linejoin="round"/>
<path id="Vector_20" d="M1165.42 296.184V294.617" stroke="#606580" stroke-miterlimit="10" stroke-linecap="round" stroke-linejoin="round"/>
<path id="Vector_21" d="M1166.98 294.617V296.184" stroke="#606580" stroke-miterlimit="10" stroke-linecap="round" stroke-linejoin="round"/>
</g>
</g>
<g id="element-1_3">
<g id="rect_4">
<rect x="244" y="545" width="200" height="36" rx="2" fill="#272A38"/>
<rect x="244" y="545" width="200" height="36" rx="2" stroke="#606580"/>
</g>
<g id="arrow-group_4">
<g id="arrow_double_right_4">
<g id="Group_11">
<g id="Group_12">
<path id="arrow_7" d="M420.824 557.75L426.074 563L420.824 568.25" stroke="#606580" stroke-miterlimit="10" stroke-linecap="round" stroke-linejoin="round"/>
</g>
<g id="Group_13">
<path id="arrow_8" d="M425.926 557.75L431.176 563L425.926 568.25" stroke="#606580" stroke-miterlimit="10" stroke-linecap="round" stroke-linejoin="round"/>
</g>
</g>
</g>
</g>
<text id="text_4" fill="#D7E2F2" xml:space="preserve" style="white-space: pre" font-family="Tahoma" font-size="13" letter-spacing="0em"><tspan x="279" y="561.161">&#x418;&#x437; &#x43a;&#x43e;&#x43b;&#x43b;&#x435;&#x43a;&#x442;&#x43e;&#x440;&#x430; &#x441;&#x44b;&#x440;&#x43e;&#x439;&#10;</tspan><tspan x="279" y="575.161">&#x43d;&#x435;&#x444;&#x442;&#x438; (&#x422;&#x421;&#x411;-2)</tspan></text>
<circle id="circle_4" cx="260" cy="563" r="11.5" fill="#1C1F2B" stroke="#606580"/>
<g id="icon_4">
<path id="Vector_22" d="M257.676 563H262.176" stroke="#606580" stroke-miterlimit="10" stroke-linecap="round" stroke-linejoin="round"/>
<g id="Group_14">
<path id="Vector_23" d="M259.926 563V559.25H262.176" stroke="#606580" stroke-miterlimit="10" stroke-linecap="round" stroke-linejoin="round"/>
<path id="Vector_24" d="M263.563 560.525C264.226 560.525 264.763 559.988 264.763 559.325C264.763 558.662 264.226 558.125 263.563 558.125C262.901 558.125 262.363 558.662 262.363 559.325C262.363 559.988 262.901 560.525 263.563 560.525Z" stroke="#606580" stroke-miterlimit="10" stroke-linecap="round" stroke-linejoin="round"/>
</g>
<path id="Vector_25" d="M259.926 563V566.75H262.176" stroke="#606580" stroke-miterlimit="10" stroke-linecap="round" stroke-linejoin="round"/>
<path id="Vector_26" d="M263.563 567.877C264.226 567.877 264.763 567.339 264.763 566.677C264.763 566.014 264.226 565.477 263.563 565.477C262.901 565.477 262.363 566.014 262.363 566.677C262.363 567.339 262.901 567.877 263.563 567.877Z" stroke="#606580" stroke-miterlimit="10" stroke-linecap="round" stroke-linejoin="round"/>
<path id="Vector_27" d="M263.563 564.201C264.226 564.201 264.763 563.664 264.763 563.001C264.763 562.338 264.226 561.801 263.563 561.801C262.901 561.801 262.363 562.338 262.363 563.001C262.363 563.664 262.901 564.201 263.563 564.201Z" stroke="#606580" stroke-miterlimit="10" stroke-linecap="round" stroke-linejoin="round"/>
<path id="Vector_28" d="M256.438 564.201C257.101 564.201 257.638 563.664 257.638 563.001C257.638 562.338 257.101 561.801 256.438 561.801C255.776 561.801 255.238 562.338 255.238 563.001C255.238 563.664 255.776 564.201 256.438 564.201Z" stroke="#606580" stroke-miterlimit="10" stroke-linecap="round" stroke-linejoin="round"/>
</g>
</g>
<g id="element-1_22">
<g id="rect_5">
<rect x="1147" y="581" width="200" height="36" rx="2" fill="#272A38"/>
<rect x="1147" y="581" width="200" height="36" rx="2" stroke="#606580"/>
</g>
<g id="arrow-group_5">
<g id="arrow_double_right_5">
<g id="Group_15">
<g id="Group_16">
<path id="arrow_9" d="M1323.82 593.75L1329.07 599L1323.82 604.25" stroke="#606580" stroke-miterlimit="10" stroke-linecap="round" stroke-linejoin="round"/>
</g>
<g id="Group_17">
<path id="arrow_10" d="M1328.93 593.75L1334.18 599L1328.93 604.25" stroke="#606580" stroke-miterlimit="10" stroke-linecap="round" stroke-linejoin="round"/>
</g>
</g>
</g>
</g>
<text id="text_5" fill="#D7E2F2" xml:space="preserve" style="white-space: pre" font-family="Tahoma" font-size="13" letter-spacing="0em"><tspan x="1182" y="597.161">&#x418;&#x437; &#x43a;&#x43e;&#x43b;&#x43b;&#x435;&#x43a;&#x442;&#x43e;&#x440;&#x430; &#x441;&#x44b;&#x440;&#x43e;&#x439;&#10;</tspan><tspan x="1182" y="611.161">&#x43d;&#x435;&#x444;&#x442;&#x438; (&#x422;&#x421;&#x411;-2)</tspan></text>
<circle id="circle_5" cx="1163" cy="599" r="11.5" fill="#1C1F2B" stroke="#606580"/>
<g id="icon_5">
<path id="Vector_29" d="M1160.68 599H1165.18" stroke="#606580" stroke-miterlimit="10" stroke-linecap="round" stroke-linejoin="round"/>
<g id="Group_18">
<path id="Vector_30" d="M1162.93 599V595.25H1165.18" stroke="#606580" stroke-miterlimit="10" stroke-linecap="round" stroke-linejoin="round"/>
<path id="Vector_31" d="M1166.56 596.525C1167.23 596.525 1167.76 595.988 1167.76 595.325C1167.76 594.662 1167.23 594.125 1166.56 594.125C1165.9 594.125 1165.36 594.662 1165.36 595.325C1165.36 595.988 1165.9 596.525 1166.56 596.525Z" stroke="#606580" stroke-miterlimit="10" stroke-linecap="round" stroke-linejoin="round"/>
</g>
<path id="Vector_32" d="M1162.93 599V602.75H1165.18" stroke="#606580" stroke-miterlimit="10" stroke-linecap="round" stroke-linejoin="round"/>
<path id="Vector_33" d="M1166.56 603.877C1167.23 603.877 1167.76 603.339 1167.76 602.677C1167.76 602.014 1167.23 601.477 1166.56 601.477C1165.9 601.477 1165.36 602.014 1165.36 602.677C1165.36 603.339 1165.9 603.877 1166.56 603.877Z" stroke="#606580" stroke-miterlimit="10" stroke-linecap="round" stroke-linejoin="round"/>
<path id="Vector_34" d="M1166.56 600.201C1167.23 600.201 1167.76 599.664 1167.76 599.001C1167.76 598.338 1167.23 597.801 1166.56 597.801C1165.9 597.801 1165.36 598.338 1165.36 599.001C1165.36 599.664 1165.9 600.201 1166.56 600.201Z" stroke="#606580" stroke-miterlimit="10" stroke-linecap="round" stroke-linejoin="round"/>
<path id="Vector_35" d="M1159.44 600.201C1160.1 600.201 1160.64 599.664 1160.64 599.001C1160.64 598.338 1160.1 597.801 1159.44 597.801C1158.78 597.801 1158.24 598.338 1158.24 599.001C1158.24 599.664 1158.78 600.201 1159.44 600.201Z" stroke="#606580" stroke-miterlimit="10" stroke-linecap="round" stroke-linejoin="round"/>
</g>
</g>
<path id="line" d="M444 324H468" stroke="#606580" stroke-linecap="round"/>
<path id="line_2" d="M492 324L588 324" stroke="#606580" stroke-linecap="round"/>
<g id=".on&#38;off">
<g id=".template on&#38;off">
<circle id="border" cx="444" cy="324" r="6.5" fill="#1C1F2B" stroke="#606580"/>
</g>
</g>
<g id="Group 22833">
<path id="line_3" d="M756 324L772 324" stroke="#606580" stroke-linecap="round"/>
<g id=".start&#38;end">
<path id="Rectangle 7354" d="M772 321L778 324L772 327V324V321Z" fill="#606580"/>
</g>
</g>
<path id="line_4" d="M492 444L588 444" stroke="#606580" stroke-linecap="round"/>
<path id="line_5" d="M444 444H468" stroke="#606580" stroke-linecap="round"/>
<g id=".on&#38;off_2">
<g id=".template on&#38;off_2">
<circle id="border_2" cx="444" cy="444" r="6.5" fill="#1C1F2B" stroke="#606580"/>
</g>
</g>
<g id="Group 22838">
<path id="line_6" d="M756 444L1144 444" stroke="#606580" stroke-linecap="round"/>
<path id="Rectangle 7354_2" d="M1141 441L1147 444L1141 447V444V441Z" fill="#606580"/>
</g>
<path id="line_7" d="M451 563L468 563" stroke="#606580" stroke-linecap="round"/>
<path id="line_8" d="M492 563L588 563" stroke="#606580" stroke-linecap="round"/>
<g id=".on&#38;off_3">
<g id=".template on&#38;off_3">
<circle id="border_3" cx="444" cy="563" r="6.5" fill="#1C1F2B" stroke="#606580"/>
</g>
</g>
<g id="Group 22835">
<path id="line_9" d="M756 563L774 563" stroke="#606580" stroke-linecap="round"/>
<g id=".start&#38;end_2">
<path id="Rectangle 7354_3" d="M772 560L778 563L772 566V563V560Z" fill="#606580"/>
</g>
</g>
<g id="element-3_7">
<g id="rect_6">
<rect x="588.5" y="302.5" width="169" height="43" rx="1.5" fill="#1C1F2B"/>
<rect x="588.5" y="302.5" width="169" height="43" rx="1.5" stroke="#606580"/>
</g>
<text id="text_6" fill="#D7E2F2" xml:space="preserve" style="white-space: pre" font-family="Tahoma" font-size="13" letter-spacing="0em"><tspan x="596" y="319.161">&#x41d;&#x435;&#x444;&#x442;&#x44f;&#x43d;&#x43e;&#x435; &#x441;&#x44b;&#x440;&#x44c;&#x435;</tspan></text>
<text id="text_value" fill="#D7E2F2" xml:space="preserve" style="white-space: pre" font-family="Tahoma" font-size="13" letter-spacing="0em"><tspan x="596" y="339.161">12 000&#x442;</tspan></text>
<text id="text_percent" fill="#D7E2F2" xml:space="preserve" style="white-space: pre" font-family="Tahoma" font-size="13" letter-spacing="0em"><tspan x="650" y="339.161">12.85%</tspan></text>
</g>
<g id="element-3_8">
<g id="rect_7">
<rect x="588.5" y="422.5" width="169" height="43" rx="1.5" fill="#1C1F2B"/>
<rect x="588.5" y="422.5" width="169" height="43" rx="1.5" stroke="#606580"/>
</g>
<text id="text_7" fill="#D7E2F2" xml:space="preserve" style="white-space: pre" font-family="Tahoma" font-size="13" letter-spacing="0em"><tspan x="596" y="439.161">&#x41d;&#x435;&#x444;&#x442;&#x44f;&#x43d;&#x43e;&#x435; &#x441;&#x44b;&#x440;&#x44c;&#x435;</tspan></text>
<text id="text_value_2" fill="#D7E2F2" xml:space="preserve" style="white-space: pre" font-family="Tahoma" font-size="13" letter-spacing="0em"><tspan x="596" y="459.161">12 000&#x442;</tspan></text>
<text id="text_percent_2" fill="#D7E2F2" xml:space="preserve" style="white-space: pre" font-family="Tahoma" font-size="13" letter-spacing="0em"><tspan x="650" y="459.161">12.85%</tspan></text>
</g>
<g id="element-3_9">
<g id="rect_8">
<rect x="588.5" y="541.5" width="169" height="43" rx="1.5" fill="#1C1F2B"/>
<rect x="588.5" y="541.5" width="169" height="43" rx="1.5" stroke="#606580"/>
</g>
<text id="text_8" fill="#D7E2F2" xml:space="preserve" style="white-space: pre" font-family="Tahoma" font-size="13" letter-spacing="0em"><tspan x="596" y="558.161">&#x41d;&#x435;&#x444;&#x442;&#x44f;&#x43d;&#x43e;&#x435; &#x441;&#x44b;&#x440;&#x44c;&#x435;</tspan></text>
<text id="text_value_3" fill="#D7E2F2" xml:space="preserve" style="white-space: pre" font-family="Tahoma" font-size="13" letter-spacing="0em"><tspan x="596" y="578.161">12 000&#x442;</tspan></text>
<text id="text_percent_3" fill="#D7E2F2" xml:space="preserve" style="white-space: pre" font-family="Tahoma" font-size="13" letter-spacing="0em"><tspan x="650" y="578.161">12.85%</tspan></text>
</g>
<g id="element-3_16">
<g id="rect_9">
<rect x="957.5" y="271.5" width="169" height="43" rx="1.5" fill="#1C1F2B"/>
<rect x="957.5" y="271.5" width="169" height="43" rx="1.5" stroke="#606580"/>
</g>
<text id="text_9" fill="#D7E2F2" xml:space="preserve" style="white-space: pre" font-family="Tahoma" font-size="13" letter-spacing="0em"><tspan x="965" y="288.161">&#x41d;&#x435;&#x444;&#x442;&#x44f;&#x43d;&#x43e;&#x435; &#x441;&#x44b;&#x440;&#x44c;&#x435;</tspan></text>
<text id="text_value_4" fill="#D7E2F2" xml:space="preserve" style="white-space: pre" font-family="Tahoma" font-size="13" letter-spacing="0em"><tspan x="965" y="308.161">12 000&#x442;</tspan></text>
<text id="text_percent_4" fill="#D7E2F2" xml:space="preserve" style="white-space: pre" font-family="Tahoma" font-size="13" letter-spacing="0em"><tspan x="1019" y="308.161">12.85%</tspan></text>
</g>
<g id="element-3_17">
<g id="rect_10">
<rect x="956.5" y="339.5" width="169" height="43" rx="1.5" fill="#1C1F2B"/>
<rect x="956.5" y="339.5" width="169" height="43" rx="1.5" stroke="#606580"/>
</g>
<text id="text_10" fill="#D7E2F2" xml:space="preserve" style="white-space: pre" font-family="Tahoma" font-size="13" letter-spacing="0em"><tspan x="964" y="356.161">&#x41d;&#x435;&#x444;&#x442;&#x44f;&#x43d;&#x43e;&#x435; &#x441;&#x44b;&#x440;&#x44c;&#x435;</tspan></text>
<text id="text_value_5" fill="#D7E2F2" xml:space="preserve" style="white-space: pre" font-family="Tahoma" font-size="13" letter-spacing="0em"><tspan x="964" y="376.161">12 000&#x442;</tspan></text>
<text id="text_percent_5" fill="#D7E2F2" xml:space="preserve" style="white-space: pre" font-family="Tahoma" font-size="13" letter-spacing="0em"><tspan x="1018" y="376.161">12.85%</tspan></text>
</g>
<g id="element-3_18">
<g id="rect_11">
<rect x="957.5" y="509.5" width="169" height="43" rx="1.5" fill="#1C1F2B"/>
<rect x="957.5" y="509.5" width="169" height="43" rx="1.5" stroke="#606580"/>
</g>
<text id="text_11" fill="#D7E2F2" xml:space="preserve" style="white-space: pre" font-family="Tahoma" font-size="13" letter-spacing="0em"><tspan x="965" y="526.161">&#x41d;&#x435;&#x444;&#x442;&#x44f;&#x43d;&#x43e;&#x435; &#x441;&#x44b;&#x440;&#x44c;&#x435;</tspan></text>
<text id="text_value_6" fill="#D7E2F2" xml:space="preserve" style="white-space: pre" font-family="Tahoma" font-size="13" letter-spacing="0em"><tspan x="965" y="546.161">12 000&#x442;</tspan></text>
<text id="text_percent_6" fill="#D7E2F2" xml:space="preserve" style="white-space: pre" font-family="Tahoma" font-size="13" letter-spacing="0em"><tspan x="1019" y="546.161">12.85%</tspan></text>
</g>
<g id="element-3_19">
<g id="rect_12">
<rect x="957.5" y="577.5" width="169" height="43" rx="1.5" fill="#1C1F2B"/>
<rect x="957.5" y="577.5" width="169" height="43" rx="1.5" stroke="#606580"/>
</g>
<text id="text_12" fill="#D7E2F2" xml:space="preserve" style="white-space: pre" font-family="Tahoma" font-size="13" letter-spacing="0em"><tspan x="965" y="594.161">&#x41d;&#x435;&#x444;&#x442;&#x44f;&#x43d;&#x43e;&#x435; &#x441;&#x44b;&#x440;&#x44c;&#x435;</tspan></text>
<text id="text_value_7" fill="#D7E2F2" xml:space="preserve" style="white-space: pre" font-family="Tahoma" font-size="13" letter-spacing="0em"><tspan x="965" y="614.161">12 000&#x442;</tspan></text>
<text id="text_percent_7" fill="#D7E2F2" xml:space="preserve" style="white-space: pre" font-family="Tahoma" font-size="13" letter-spacing="0em"><tspan x="1019" y="614.161">12.85%</tspan></text>
</g>
<g id="element-16_10">
<rect x="780" y="251" width="32" height="146" rx="2" fill="#272A38"/>
<circle id="circle_6" cx="796" cy="267" r="11.5" fill="#1C1F2B" stroke="#606580"/>
<g id="icon_6">
<path id="Vector_36" d="M793.438 266.812H797.938" stroke="#606580" stroke-miterlimit="10" stroke-linecap="round" stroke-linejoin="round"/>
<g id="Group_19">
<path id="Vector_37" d="M795.688 266.817V263.113H797.938" stroke="#606580" stroke-miterlimit="10" stroke-linecap="round" stroke-linejoin="round"/>
<path id="Vector_38" d="M799.325 264.37C799.988 264.37 800.525 263.84 800.525 263.185C800.525 262.531 799.988 262 799.325 262C798.662 262 798.125 262.531 798.125 263.185C798.125 263.84 798.662 264.37 799.325 264.37Z" stroke="#606580" stroke-miterlimit="10" stroke-linecap="round" stroke-linejoin="round"/>
</g>
<path id="Vector_39" d="M795.688 266.812V270.516H797.938" stroke="#606580" stroke-miterlimit="10" stroke-linecap="round" stroke-linejoin="round"/>
<path id="Vector_40" d="M799.325 271.628C799.988 271.628 800.525 271.098 800.525 270.443C800.525 269.788 799.988 269.258 799.325 269.258C798.662 269.258 798.125 269.788 798.125 270.443C798.125 271.098 798.662 271.628 799.325 271.628Z" stroke="#606580" stroke-miterlimit="10" stroke-linecap="round" stroke-linejoin="round"/>
<path id="Vector_41" d="M799.325 267.999C799.988 267.999 800.525 267.469 800.525 266.814C800.525 266.16 799.988 265.629 799.325 265.629C798.662 265.629 798.125 266.16 798.125 266.814C798.125 267.469 798.662 267.999 799.325 267.999Z" stroke="#606580" stroke-miterlimit="10" stroke-linecap="round" stroke-linejoin="round"/>
<path id="Vector_42" d="M792.2 267.999C792.863 267.999 793.4 267.469 793.4 266.814C793.4 266.16 792.863 265.629 792.2 265.629C791.537 265.629 791 266.16 791 266.814C791 267.469 791.537 267.999 792.2 267.999Z" stroke="#606580" stroke-miterlimit="10" stroke-linecap="round" stroke-linejoin="round"/>
</g>
<text id="text_13" transform="translate(788 334) rotate(-90)" fill="#D7E2F2" xml:space="preserve" style="white-space: pre" font-family="Tahoma" font-size="13" letter-spacing="0em"><tspan x="2.9668" y="13.1606">PL3903.1</tspan></text>
<rect x="780" y="251" width="32" height="146" rx="2" stroke="#606580"/>
</g>
<g id="element-16_11">
<rect x="780" y="490" width="32" height="146" rx="2" fill="#272A38"/>
<circle id="circle_7" cx="796" cy="506" r="11.5" fill="#1C1F2B" stroke="#606580"/>
<g id="icon_7">
<path id="Vector_43" d="M793.438 505.812H797.938" stroke="#606580" stroke-miterlimit="10" stroke-linecap="round" stroke-linejoin="round"/>
<g id="Group_20">
<path id="Vector_44" d="M795.688 505.817V502.113H797.938" stroke="#606580" stroke-miterlimit="10" stroke-linecap="round" stroke-linejoin="round"/>
<path id="Vector_45" d="M799.325 503.37C799.988 503.37 800.525 502.84 800.525 502.185C800.525 501.531 799.988 501 799.325 501C798.662 501 798.125 501.531 798.125 502.185C798.125 502.84 798.662 503.37 799.325 503.37Z" stroke="#606580" stroke-miterlimit="10" stroke-linecap="round" stroke-linejoin="round"/>
</g>
<path id="Vector_46" d="M795.688 505.812V509.516H797.938" stroke="#606580" stroke-miterlimit="10" stroke-linecap="round" stroke-linejoin="round"/>
<path id="Vector_47" d="M799.325 510.628C799.988 510.628 800.525 510.098 800.525 509.443C800.525 508.788 799.988 508.258 799.325 508.258C798.662 508.258 798.125 508.788 798.125 509.443C798.125 510.098 798.662 510.628 799.325 510.628Z" stroke="#606580" stroke-miterlimit="10" stroke-linecap="round" stroke-linejoin="round"/>
<path id="Vector_48" d="M799.325 506.999C799.988 506.999 800.525 506.469 800.525 505.814C800.525 505.16 799.988 504.629 799.325 504.629C798.662 504.629 798.125 505.16 798.125 505.814C798.125 506.469 798.662 506.999 799.325 506.999Z" stroke="#606580" stroke-miterlimit="10" stroke-linecap="round" stroke-linejoin="round"/>
<path id="Vector_49" d="M792.2 506.999C792.863 506.999 793.4 506.469 793.4 505.814C793.4 505.16 792.863 504.629 792.2 504.629C791.537 504.629 791 505.16 791 505.814C791 506.469 791.537 506.999 792.2 506.999Z" stroke="#606580" stroke-miterlimit="10" stroke-linecap="round" stroke-linejoin="round"/>
</g>
<text id="text_14" transform="translate(788 573) rotate(-90)" fill="#D7E2F2" xml:space="preserve" style="white-space: pre" font-family="Tahoma" font-size="13" letter-spacing="0em"><tspan x="2.9668" y="13.1606">PL3903.1</tspan></text>
<rect x="780" y="490" width="32" height="146" rx="2" stroke="#606580"/>
</g>
<g id="element-30_21">
<g id="oven">
<g id="Union">
<mask id="path-124-inside-1" fill="white">
<path fill-rule="evenodd" clip-rule="evenodd" d="M1270.88 336H1183.12L1168.5 356.8V408.8L1149 440V555C1149 556.105 1149.9 557 1151 557H1303C1304.1 557 1305 556.105 1305 555V440L1285.5 408.8V356.8L1270.88 336Z"/>
</mask>
<path fill-rule="evenodd" clip-rule="evenodd" d="M1270.88 336H1183.12L1168.5 356.8V408.8L1149 440V555C1149 556.105 1149.9 557 1151 557H1303C1304.1 557 1305 556.105 1305 555V440L1285.5 408.8V356.8L1270.88 336Z" fill="#272A38"/>
<path d="M1183.12 336V335H1182.61L1182.31 335.425L1183.12 336ZM1270.88 336L1271.69 335.425L1271.39 335H1270.88V336ZM1168.5 356.8L1167.68 356.225L1167.5 356.484V356.8H1168.5ZM1168.5 408.8L1169.35 409.33L1169.5 409.087V408.8H1168.5ZM1149 440L1148.15 439.47L1148 439.713V440H1149ZM1305 440H1306V439.713L1305.85 439.47L1305 440ZM1285.5 408.8H1284.5V409.087L1284.65 409.33L1285.5 408.8ZM1285.5 356.8H1286.5V356.484L1286.32 356.225L1285.5 356.8ZM1183.12 337H1270.88V335H1183.12V337ZM1169.32 357.375L1183.94 336.575L1182.31 335.425L1167.68 356.225L1169.32 357.375ZM1169.5 408.8V356.8H1167.5V408.8H1169.5ZM1149.85 440.53L1169.35 409.33L1167.65 408.27L1148.15 439.47L1149.85 440.53ZM1150 555V440H1148V555H1150ZM1151 556C1150.45 556 1150 555.552 1150 555H1148C1148 556.657 1149.34 558 1151 558V556ZM1303 556H1151V558H1303V556ZM1304 555C1304 555.552 1303.55 556 1303 556V558C1304.66 558 1306 556.657 1306 555H1304ZM1304 440V555H1306V440H1304ZM1284.65 409.33L1304.15 440.53L1305.85 439.47L1286.35 408.27L1284.65 409.33ZM1284.5 356.8V408.8H1286.5V356.8H1284.5ZM1270.06 336.575L1284.68 357.375L1286.32 356.225L1271.69 335.425L1270.06 336.575Z" fill="#606580" mask="url(#path-124-inside-1)"/>
</g>
</g>
<g id="icon_8">
<g id="fire">
<path id="Vector_50" d="M1197.42 529.443L1194.44 528.143C1193.9 527.883 1193.36 527.623 1193.09 527.363C1187.41 524.243 1185.52 519.043 1187.41 512.543C1188.22 509.943 1189.57 507.603 1190.93 505.523V505.263C1193.09 501.623 1194.98 498.243 1196.33 494.603C1196.61 494.083 1196.61 493.563 1196.88 493.043L1197.42 490.703L1198.77 491.483C1199.04 491.743 1199.04 491.743 1199.31 492.003L1200.39 493.043C1203.64 496.163 1207.15 499.283 1209.86 503.183C1212.56 506.823 1214.19 510.723 1214.46 514.363C1215 520.343 1213.37 524.503 1209.05 527.363C1208.24 527.883 1207.42 528.143 1206.61 528.663C1206.34 528.923 1205.8 528.923 1205.53 529.183L1204.45 529.703L1203.37 527.103L1203.91 526.583C1204.18 526.323 1204.45 526.063 1204.72 525.803C1205.26 525.283 1205.53 524.763 1206.07 524.243C1208.78 519.823 1208.78 515.403 1206.07 510.723C1205.53 509.683 1204.72 508.643 1203.64 507.603C1203.37 510.983 1202.56 514.103 1200.66 517.483L1199.04 520.343L1198.23 517.223C1197.96 515.923 1197.42 514.623 1196.88 513.843C1196.06 515.403 1195.52 516.963 1194.98 518.523C1193.9 521.383 1194.44 523.723 1196.33 525.803C1196.61 526.063 1196.88 526.323 1197.15 527.103L1197.42 529.443Z" stroke="#606580" stroke-miterlimit="10" stroke-linecap="round" stroke-linejoin="round"/>
</g>
<line id="line_10" x1="1216.1" y1="535.301" x2="1185.9" y2="535.301" stroke="#606580" stroke-linecap="round"/>
</g>
<g id="icon_9">
<g id="fire_2">
<path id="Vector_51" d="M1249.42 529.443L1246.44 528.143C1245.9 527.883 1245.36 527.623 1245.09 527.363C1239.41 524.243 1237.52 519.043 1239.41 512.543C1240.22 509.943 1241.57 507.603 1242.93 505.523V505.263C1245.09 501.623 1246.98 498.243 1248.33 494.603C1248.61 494.083 1248.61 493.563 1248.88 493.043L1249.42 490.703L1250.77 491.483C1251.04 491.743 1251.04 491.743 1251.31 492.003L1252.39 493.043C1255.64 496.163 1259.15 499.283 1261.86 503.183C1264.56 506.823 1266.19 510.723 1266.46 514.363C1267 520.343 1265.37 524.503 1261.05 527.363C1260.24 527.883 1259.42 528.143 1258.61 528.663C1258.34 528.923 1257.8 528.923 1257.53 529.183L1256.45 529.703L1255.37 527.103L1255.91 526.583C1256.18 526.323 1256.45 526.063 1256.72 525.803C1257.26 525.283 1257.53 524.763 1258.07 524.243C1260.78 519.823 1260.78 515.403 1258.07 510.723C1257.53 509.683 1256.72 508.643 1255.64 507.603C1255.37 510.983 1254.56 514.103 1252.66 517.483L1251.04 520.343L1250.23 517.223C1249.96 515.923 1249.42 514.623 1248.88 513.843C1248.06 515.403 1247.52 516.963 1246.98 518.523C1245.9 521.383 1246.44 523.723 1248.33 525.803C1248.61 526.063 1248.88 526.323 1249.15 527.103L1249.42 529.443Z" stroke="#606580" stroke-miterlimit="10" stroke-linecap="round" stroke-linejoin="round"/>
</g>
<line id="line_11" x1="1268.1" y1="535.301" x2="1237.9" y2="535.301" stroke="#606580" stroke-linecap="round"/>
</g>
<text id="text_15" fill="#D7E2F2" xml:space="preserve" style="white-space: pre" font-family="Tahoma" font-size="13" letter-spacing="0em"><tspan x="1227" y="408.161">&#x41d;&#x435;&#x444;&#x442;&#x44f;&#x43d;&#x43e;&#x435; &#x441;&#x44b;&#x440;&#x44c;&#x435;</tspan></text>
</g>
<path id="line_dotted" d="M819 293L837 293" stroke="#606580" stroke-linecap="round" stroke-dasharray="2 4"/>
<path id="line_dotted_2" d="M861 293L957 293" stroke="#606580" stroke-linecap="round" stroke-dasharray="2 4"/>
<g id=".on&#38;off_4">
<g id=".template on&#38;off_4">
<circle id="border_4" cx="812" cy="293" r="6.5" fill="#1C1F2B" stroke="#606580"/>
</g>
</g>
<g id="Group 22836">
<path id="line_dotted_3" d="M1125 293L1142 293" stroke="#606580" stroke-linecap="round" stroke-dasharray="2 4"/>
<g id=".start&#38;end_3">
<path id="Rectangle 7354_4" d="M1141 290L1147 293L1141 296V293V290Z" fill="#606580"/>
</g>
</g>
<path id="line_dotted_4" d="M819 531L837 531" stroke="#606580" stroke-linecap="round" stroke-dasharray="2 4"/>
<path id="line_dotted_5" d="M861 531L957 531" stroke="#606580" stroke-linecap="round" stroke-dasharray="2 4"/>
<g id=".on&#38;off_5">
<g id=".template on&#38;off_5">
<circle id="border_5" cx="812" cy="531" r="6.5" fill="#1C1F2B" stroke="#606580"/>
</g>
</g>
<g id="Group 22839">
<path id="line_dotted_6" d="M1124 531L1142 531" stroke="#606580" stroke-linecap="round" stroke-dasharray="2 4"/>
<g id=".start&#38;end_4">
<path id="Rectangle 7354_5" d="M1141 528L1147 531L1141 534V531V528Z" fill="#606580"/>
</g>
</g>
<path id="line_dotted_7" d="M819 599L837 599" stroke="#606580" stroke-linecap="round" stroke-dasharray="2 4"/>
<path id="line_dotted_8" d="M861 599L957 599" stroke="#606580" stroke-linecap="round" stroke-dasharray="2 4"/>
<g id=".on&#38;off_6">
<g id=".template on&#38;off_6">
<circle id="border_6" cx="812" cy="599" r="6.5" fill="#1C1F2B" stroke="#606580"/>
</g>
</g>
<g id="Group 22840">
<path id="line_dotted_9" d="M1125 599L1141 599" stroke="#606580" stroke-linecap="round" stroke-dasharray="2 4"/>
<g id=".start&#38;end_5">
<path id="Rectangle 7354_6" d="M1141 596L1147 599L1141 602V599V596Z" fill="#606580"/>
</g>
</g>
<path id="line_12" d="M819 361L836 361" stroke="#606580" stroke-linecap="round"/>
<path id="line_13" d="M860 361L956 361" stroke="#606580" stroke-linecap="round"/>
<g id=".on&#38;off_7">
<g id=".template on&#38;off_7">
<circle id="border_7" cx="812" cy="361" r="6.5" fill="#1C1F2B" stroke="#606580"/>
</g>
</g>
<g id="Group 22837">
<path id="line_14" d="M1124 361L1161 361" stroke="#606580" stroke-linecap="round"/>
<g id=".start&#38;end_6">
<path id="Rectangle 7354_7" d="M1161 358L1167 361L1161 364V361V358Z" fill="#606580"/>
</g>
</g>
<g id="element-11_14">
<circle id="circle_8" cx="849" cy="531" r="11.5" fill="#1C1F2B" stroke="#606580"/>
<g id="icon_10">
<g id="Group_21">
<g id="Group_22">
<path id="Vector_52" d="M849 536.25C846.113 536.25 843.75 533.887 843.75 531C843.75 528.113 846.113 525.75 849 525.75C851.887 525.75 854.25 528.113 854.25 531C854.25 533.887 851.887 536.25 849 536.25Z" stroke="#606580" stroke-miterlimit="10" stroke-linecap="round" stroke-linejoin="round"/>
</g>
</g>
<g id="Group_23">
<g id="Group_24">
<path id="Vector_53" d="M849.002 531.902C848.514 531.902 848.102 531.489 848.102 531.002C848.102 530.514 848.514 530.102 849.002 530.102C849.489 530.102 849.902 530.514 849.902 531.002C849.902 531.489 849.489 531.902 849.002 531.902Z" stroke="#606580" stroke-miterlimit="10" stroke-linecap="round" stroke-linejoin="round"/>
</g>
</g>
<g id="Group_25">
<path id="Vector_54" d="M849 534.938V536.25" stroke="#606580" stroke-miterlimit="10" stroke-linecap="round" stroke-linejoin="round"/>
<path id="Vector_55" d="M849 525.977V527.214" stroke="#606580" stroke-miterlimit="10" stroke-linecap="round" stroke-linejoin="round"/>
</g>
<g id="Group_26">
<path id="Vector_56" d="M845.176 531.113H843.863" stroke="#606580" stroke-miterlimit="10" stroke-linecap="round" stroke-linejoin="round"/>
<path id="Vector_57" d="M854.14 531.113H852.902" stroke="#606580" stroke-miterlimit="10" stroke-linecap="round" stroke-linejoin="round"/>
</g>
<path id="Vector_58" d="M849.898 530.098L851.286 528.711" stroke="#606580" stroke-miterlimit="10" stroke-linecap="round" stroke-linejoin="round"/>
</g>
<text id="text_16" fill="#D7E2F2" xml:space="preserve" style="white-space: pre" font-family="Tahoma" font-size="13" letter-spacing="0em"><tspan x="865" y="526.161">Fl44</tspan></text>
<text id="percent" fill="#606580" xml:space="preserve" style="white-space: pre" font-family="Tahoma" font-size="13" letter-spacing="0em"><tspan x="865" y="546.161">&#x2014;</tspan></text>
<circle id="ellipse" cx="812" cy="531" r="4" fill="white"/>
</g>
<g id="element-11_12">
<circle id="circle_9" cx="849" cy="293" r="11.5" fill="#1C1F2B" stroke="#606580"/>
<g id="icon_11">
<g id="Group_27">
<g id="Group_28">
<path id="Vector_59" d="M849 298.25C846.113 298.25 843.75 295.887 843.75 293C843.75 290.113 846.113 287.75 849 287.75C851.887 287.75 854.25 290.113 854.25 293C854.25 295.887 851.887 298.25 849 298.25Z" stroke="#606580" stroke-miterlimit="10" stroke-linecap="round" stroke-linejoin="round"/>
</g>
</g>
<g id="Group_29">
<g id="Group_30">
<path id="Vector_60" d="M849.002 293.902C848.514 293.902 848.102 293.489 848.102 293.002C848.102 292.514 848.514 292.102 849.002 292.102C849.489 292.102 849.902 292.514 849.902 293.002C849.902 293.489 849.489 293.902 849.002 293.902Z" stroke="#606580" stroke-miterlimit="10" stroke-linecap="round" stroke-linejoin="round"/>
</g>
</g>
<g id="Group_31">
<path id="Vector_61" d="M849 296.938V298.25" stroke="#606580" stroke-miterlimit="10" stroke-linecap="round" stroke-linejoin="round"/>
<path id="Vector_62" d="M849 287.977V289.214" stroke="#606580" stroke-miterlimit="10" stroke-linecap="round" stroke-linejoin="round"/>
</g>
<g id="Group_32">
<path id="Vector_63" d="M845.176 293.113H843.863" stroke="#606580" stroke-miterlimit="10" stroke-linecap="round" stroke-linejoin="round"/>
<path id="Vector_64" d="M854.14 293.113H852.902" stroke="#606580" stroke-miterlimit="10" stroke-linecap="round" stroke-linejoin="round"/>
</g>
<path id="Vector_65" d="M849.898 292.098L851.286 290.711" stroke="#606580" stroke-miterlimit="10" stroke-linecap="round" stroke-linejoin="round"/>
</g>
<text id="text_17" fill="#D7E2F2" xml:space="preserve" style="white-space: pre" font-family="Tahoma" font-size="13" letter-spacing="0em"><tspan x="865" y="288.161">Fl44</tspan></text>
<text id="percent_2" fill="#606580" xml:space="preserve" style="white-space: pre" font-family="Tahoma" font-size="13" letter-spacing="0em"><tspan x="865" y="308.161">&#x2014;</tspan></text>
<circle id="ellipse_2" cx="812" cy="293" r="4" fill="white"/>
</g>
<g id="element-11_15">
<circle id="circle_10" cx="849" cy="599" r="11.5" fill="#1C1F2B" stroke="#606580"/>
<g id="icon_12">
<g id="Group_33">
<g id="Group_34">
<path id="Vector_66" d="M849 604.25C846.113 604.25 843.75 601.887 843.75 599C843.75 596.113 846.113 593.75 849 593.75C851.887 593.75 854.25 596.113 854.25 599C854.25 601.887 851.887 604.25 849 604.25Z" stroke="#606580" stroke-miterlimit="10" stroke-linecap="round" stroke-linejoin="round"/>
</g>
</g>
<g id="Group_35">
<g id="Group_36">
<path id="Vector_67" d="M849.002 599.902C848.514 599.902 848.102 599.489 848.102 599.002C848.102 598.514 848.514 598.102 849.002 598.102C849.489 598.102 849.902 598.514 849.902 599.002C849.902 599.489 849.489 599.902 849.002 599.902Z" stroke="#606580" stroke-miterlimit="10" stroke-linecap="round" stroke-linejoin="round"/>
</g>
</g>
<g id="Group_37">
<path id="Vector_68" d="M849 602.938V604.25" stroke="#606580" stroke-miterlimit="10" stroke-linecap="round" stroke-linejoin="round"/>
<path id="Vector_69" d="M849 593.977V595.214" stroke="#606580" stroke-miterlimit="10" stroke-linecap="round" stroke-linejoin="round"/>
</g>
<g id="Group_38">
<path id="Vector_70" d="M845.176 599.113H843.863" stroke="#606580" stroke-miterlimit="10" stroke-linecap="round" stroke-linejoin="round"/>
<path id="Vector_71" d="M854.14 599.113H852.902" stroke="#606580" stroke-miterlimit="10" stroke-linecap="round" stroke-linejoin="round"/>
</g>
<path id="Vector_72" d="M849.898 598.098L851.286 596.711" stroke="#606580" stroke-miterlimit="10" stroke-linecap="round" stroke-linejoin="round"/>
</g>
<text id="text_18" fill="#D7E2F2" xml:space="preserve" style="white-space: pre" font-family="Tahoma" font-size="13" letter-spacing="0em"><tspan x="865" y="594.161">Fl44</tspan></text>
<text id="percent_3" fill="#606580" xml:space="preserve" style="white-space: pre" font-family="Tahoma" font-size="13" letter-spacing="0em"><tspan x="865" y="614.161">&#x2014;</tspan></text>
<circle id="ellipse_3" cx="812" cy="599" r="4" fill="white"/>
</g>
<g id="element-11_4">
<circle id="circle_11" cx="480" cy="324" r="11.5" fill="#1C1F2B" stroke="#606580"/>
<g id="icon_13">
<g id="Group_39">
<g id="Group_40">
<path id="Vector_73" d="M480 329.25C477.113 329.25 474.75 326.887 474.75 324C474.75 321.113 477.113 318.75 480 318.75C482.887 318.75 485.25 321.113 485.25 324C485.25 326.887 482.887 329.25 480 329.25Z" stroke="#606580" stroke-miterlimit="10" stroke-linecap="round" stroke-linejoin="round"/>
</g>
</g>
<g id="Group_41">
<g id="Group_42">
<path id="Vector_74" d="M480.002 324.902C479.514 324.902 479.102 324.489 479.102 324.002C479.102 323.514 479.514 323.102 480.002 323.102C480.489 323.102 480.902 323.514 480.902 324.002C480.902 324.489 480.489 324.902 480.002 324.902Z" stroke="#606580" stroke-miterlimit="10" stroke-linecap="round" stroke-linejoin="round"/>
</g>
</g>
<g id="Group_43">
<path id="Vector_75" d="M480 327.938V329.25" stroke="#606580" stroke-miterlimit="10" stroke-linecap="round" stroke-linejoin="round"/>
<path id="Vector_76" d="M480 318.977V320.214" stroke="#606580" stroke-miterlimit="10" stroke-linecap="round" stroke-linejoin="round"/>
</g>
<g id="Group_44">
<path id="Vector_77" d="M476.176 324.113H474.863" stroke="#606580" stroke-miterlimit="10" stroke-linecap="round" stroke-linejoin="round"/>
<path id="Vector_78" d="M485.14 324.113H483.902" stroke="#606580" stroke-miterlimit="10" stroke-linecap="round" stroke-linejoin="round"/>
</g>
<path id="Vector_79" d="M480.898 323.098L482.286 321.711" stroke="#606580" stroke-miterlimit="10" stroke-linecap="round" stroke-linejoin="round"/>
</g>
<text id="text_percent_8" fill="#D7E2F2" xml:space="preserve" style="white-space: pre" font-family="Tahoma" font-size="13" letter-spacing="0em"><tspan x="496" y="336.161">99%</tspan></text>
<text id="text_19" fill="#D7E2F2" xml:space="preserve" style="white-space: pre" font-family="Tahoma" font-size="13" letter-spacing="0em"><tspan x="496" y="316.161">Fl11</tspan></text>
<circle id="ellipse_4" cx="444" cy="324" r="4" fill="white"/>
</g>
<g id="element-11_5">
<circle id="circle_12" cx="480" cy="444" r="11.5" fill="#1C1F2B" stroke="#606580"/>
<g id="icon_14">
<g id="Group_45">
<g id="Group_46">
<path id="Vector_80" d="M480 449.25C477.113 449.25 474.75 446.887 474.75 444C474.75 441.113 477.113 438.75 480 438.75C482.887 438.75 485.25 441.113 485.25 444C485.25 446.887 482.887 449.25 480 449.25Z" stroke="#606580" stroke-miterlimit="10" stroke-linecap="round" stroke-linejoin="round"/>
</g>
</g>
<g id="Group_47">
<g id="Group_48">
<path id="Vector_81" d="M480.002 444.902C479.514 444.902 479.102 444.489 479.102 444.002C479.102 443.514 479.514 443.102 480.002 443.102C480.489 443.102 480.902 443.514 480.902 444.002C480.902 444.489 480.489 444.902 480.002 444.902Z" stroke="#606580" stroke-miterlimit="10" stroke-linecap="round" stroke-linejoin="round"/>
</g>
</g>
<g id="Group_49">
<path id="Vector_82" d="M480 447.938V449.25" stroke="#606580" stroke-miterlimit="10" stroke-linecap="round" stroke-linejoin="round"/>
<path id="Vector_83" d="M480 438.977V440.214" stroke="#606580" stroke-miterlimit="10" stroke-linecap="round" stroke-linejoin="round"/>
</g>
<g id="Group_50">
<path id="Vector_84" d="M476.176 444.113H474.863" stroke="#606580" stroke-miterlimit="10" stroke-linecap="round" stroke-linejoin="round"/>
<path id="Vector_85" d="M485.14 444.113H483.902" stroke="#606580" stroke-miterlimit="10" stroke-linecap="round" stroke-linejoin="round"/>
</g>
<path id="Vector_86" d="M480.898 443.098L482.286 441.711" stroke="#606580" stroke-miterlimit="10" stroke-linecap="round" stroke-linejoin="round"/>
</g>
<text id="text_percent_9" fill="#D7E2F2" xml:space="preserve" style="white-space: pre" font-family="Tahoma" font-size="13" letter-spacing="0em"><tspan x="496" y="456.161">99%</tspan></text>
<text id="text_20" fill="#D7E2F2" xml:space="preserve" style="white-space: pre" font-family="Tahoma" font-size="13" letter-spacing="0em"><tspan x="496" y="436.161">Fl11</tspan></text>
<circle id="ellipse_5" cx="444" cy="444" r="4" fill="white"/>
</g>
<g id="element-11_6">
<circle id="circle_13" cx="480" cy="563" r="11.5" fill="#1C1F2B" stroke="#606580"/>
<g id="icon_15">
<g id="Group_51">
<g id="Group_52">
<path id="Vector_87" d="M480 568.25C477.113 568.25 474.75 565.887 474.75 563C474.75 560.113 477.113 557.75 480 557.75C482.887 557.75 485.25 560.113 485.25 563C485.25 565.887 482.887 568.25 480 568.25Z" stroke="#606580" stroke-miterlimit="10" stroke-linecap="round" stroke-linejoin="round"/>
</g>
</g>
<g id="Group_53">
<g id="Group_54">
<path id="Vector_88" d="M480.002 563.902C479.514 563.902 479.102 563.489 479.102 563.002C479.102 562.514 479.514 562.102 480.002 562.102C480.489 562.102 480.902 562.514 480.902 563.002C480.902 563.489 480.489 563.902 480.002 563.902Z" stroke="#606580" stroke-miterlimit="10" stroke-linecap="round" stroke-linejoin="round"/>
</g>
</g>
<g id="Group_55">
<path id="Vector_89" d="M480 566.938V568.25" stroke="#606580" stroke-miterlimit="10" stroke-linecap="round" stroke-linejoin="round"/>
<path id="Vector_90" d="M480 557.977V559.214" stroke="#606580" stroke-miterlimit="10" stroke-linecap="round" stroke-linejoin="round"/>
</g>
<g id="Group_56">
<path id="Vector_91" d="M476.176 563.113H474.863" stroke="#606580" stroke-miterlimit="10" stroke-linecap="round" stroke-linejoin="round"/>
<path id="Vector_92" d="M485.14 563.113H483.902" stroke="#606580" stroke-miterlimit="10" stroke-linecap="round" stroke-linejoin="round"/>
</g>
<path id="Vector_93" d="M480.898 562.098L482.286 560.711" stroke="#606580" stroke-miterlimit="10" stroke-linecap="round" stroke-linejoin="round"/>
</g>
<text id="text_percent_10" fill="#D7E2F2" xml:space="preserve" style="white-space: pre" font-family="Tahoma" font-size="13" letter-spacing="0em"><tspan x="496" y="575.161">99%</tspan></text>
<text id="text_21" fill="#D7E2F2" xml:space="preserve" style="white-space: pre" font-family="Tahoma" font-size="13" letter-spacing="0em"><tspan x="496" y="555.161">Fl11</tspan></text>
<circle id="ellipse_6" cx="444" cy="563" r="4" fill="white"/>
</g>
<g id="element-11_13">
<circle id="circle_14" cx="848" cy="361" r="11.5" fill="#1C1F2B" stroke="#606580"/>
<g id="icon_16">
<g id="Group_57">
<g id="Group_58">
<path id="Vector_94" d="M848 366.25C845.113 366.25 842.75 363.887 842.75 361C842.75 358.113 845.113 355.75 848 355.75C850.887 355.75 853.25 358.113 853.25 361C853.25 363.887 850.887 366.25 848 366.25Z" stroke="#606580" stroke-miterlimit="10" stroke-linecap="round" stroke-linejoin="round"/>
</g>
</g>
<g id="Group_59">
<g id="Group_60">
<path id="Vector_95" d="M848.002 361.902C847.514 361.902 847.102 361.489 847.102 361.002C847.102 360.514 847.514 360.102 848.002 360.102C848.489 360.102 848.902 360.514 848.902 361.002C848.902 361.489 848.489 361.902 848.002 361.902Z" stroke="#606580" stroke-miterlimit="10" stroke-linecap="round" stroke-linejoin="round"/>
</g>
</g>
<g id="Group_61">
<path id="Vector_96" d="M848 364.938V366.25" stroke="#606580" stroke-miterlimit="10" stroke-linecap="round" stroke-linejoin="round"/>
<path id="Vector_97" d="M848 355.977V357.214" stroke="#606580" stroke-miterlimit="10" stroke-linecap="round" stroke-linejoin="round"/>
</g>
<g id="Group_62">
<path id="Vector_98" d="M844.176 361.113H842.863" stroke="#606580" stroke-miterlimit="10" stroke-linecap="round" stroke-linejoin="round"/>
<path id="Vector_99" d="M853.14 361.113H851.902" stroke="#606580" stroke-miterlimit="10" stroke-linecap="round" stroke-linejoin="round"/>
</g>
<path id="Vector_100" d="M848.898 360.098L850.286 358.711" stroke="#606580" stroke-miterlimit="10" stroke-linecap="round" stroke-linejoin="round"/>
</g>
<text id="text_percent_11" fill="#D7E2F2" xml:space="preserve" style="white-space: pre" font-family="Tahoma" font-size="13" letter-spacing="0em"><tspan x="864" y="373.161">99%</tspan></text>
<text id="text_22" fill="#D7E2F2" xml:space="preserve" style="white-space: pre" font-family="Tahoma" font-size="13" letter-spacing="0em"><tspan x="864" y="353.161">Fl11</tspan></text>
<circle id="ellipse_7" cx="812" cy="361" r="4" fill="white"/>
</g>
</g>
</svg>
