<svg xmlns="http://www.w3.org/2000/svg" width="11.473" height="15.655" viewBox="0 0 11.473 15.655">
  <g id="Group_212" data-name="Group 212" transform="translate(-2921.194 -1012.163)">
    <path id="Path_242" data-name="Path 242" d="M2930.029,1012.886v5.48a.722.722,0,1,0,1.444,0v-5.48a.722.722,0,1,0-1.444,0Z" fill="#60647f" fill-rule="evenodd"/>
    <path id="Path_243" data-name="Path 243" d="M2923.849,1018.366v-5.48a.722.722,0,1,0-1.444,0v5.48a.722.722,0,0,0,1.444,0Z" fill="#60647f" fill-rule="evenodd"/>
    <path id="Path_244" data-name="Path 244" d="M2927.389,1027.629l5.089-5.089a.648.648,0,0,0-.917-.917l-3.909,3.909v-10.844a.722.722,0,0,0-1.443,0v10.844l-3.908-3.909a.648.648,0,0,0-.917.917l5.088,5.089A.651.651,0,0,0,2927.389,1027.629Z" fill="#60647f" fill-rule="evenodd"/>
  </g>
</svg>
