<svg xmlns="http://www.w3.org/2000/svg" width="19.573" height="26" viewBox="0 0 19.573 26">
  <path id="Path_12" data-name="Path 12" d="M794.72,114.32a18.357,18.357,0,0,1-3.146-4.448,10.094,10.094,0,0,1-.6-5.8,12.527,12.527,0,0,1,2.495-5.37,5.173,5.173,0,0,0,1.3,3.8,9.021,9.021,0,0,1,2.061-7.486,15.5,15.5,0,0,1,6.617-4.34,5.349,5.349,0,0,0-.922,5.1,21.254,21.254,0,0,0,2.441,4.828,10.775,10.775,0,0,1,1.844,4.99,17.4,17.4,0,0,0,1.357-2.874,5.68,5.68,0,0,0,.216-3.147,8.064,8.064,0,0,1,1.791,3.906,12.9,12.9,0,0,1,.188,2.077v.46c-.009.7-.061,1.391-.134,2.074a11.531,11.531,0,0,1-1.573,4.827,9.055,9.055,0,0,1-4.719,3.527,14.392,14.392,0,0,1-3.049.224c3.6-.208,6.411-4.493,4.35-7.928,0-.053-.054-.053-.054-.108.218,2.224-.325,3.852-1.356,4.774a5.07,5.07,0,0,0-.488-4.123c-.651-1.247-1.573-2.386-2.278-3.58a5.762,5.762,0,0,1-.922-4.068,7.143,7.143,0,0,0-2.6,4.014,7.256,7.256,0,0,0,.543,4.774,3.565,3.565,0,0,1-1.466-2.6,5.592,5.592,0,0,0-1.356,3.742,5.527,5.527,0,0,0,3.58,4.774,5.224,5.224,0,0,0,.54.176A9.406,9.406,0,0,1,794.72,114.32Z" transform="translate(-790.794 -90.669)" fill="#616580" fill-rule="evenodd"/>
</svg>
