<svg width="20" height="13" viewBox="0 0 20 13" fill="none" xmlns="http://www.w3.org/2000/svg">
<path fill-rule="evenodd" clip-rule="evenodd" d="M10.0357 0.348389L9.98562 0.34852L9.97261 0.348389C9.96521 0.348389 9.95783 0.348517 9.95049 0.34877C5.52721 0.388387 1.80696 3.50872 0.842017 7.65747C0.803279 7.71159 0.772535 7.77282 0.752012 7.83999C0.719038 7.94791 0.716502 8.05787 0.739492 8.16064C0.64692 8.68882 0.598633 9.23176 0.598633 9.78547C0.598633 10.5153 0.664886 11.2661 0.872457 12.0272C0.947106 12.3009 1.19572 12.4908 1.47943 12.4908H7.14168C7.48914 12.4908 7.77082 12.2091 7.77082 11.8616C7.77082 11.0665 8.21104 10.3433 8.87814 9.93764C8.91463 9.99436 8.96039 10.0454 9.01418 10.0885L9.95789 10.8434C10.0937 10.9521 10.2685 10.9997 10.4406 10.9749C10.6128 10.9501 10.767 10.8551 10.8666 10.7125L11.3753 9.98459C11.9888 10.3967 12.3954 11.0969 12.4269 11.8868C12.4404 12.2242 12.7179 12.4908 13.0556 12.4908H18.7178C18.9957 12.4908 19.2406 12.3085 19.3204 12.0424C19.5338 11.3311 19.5986 10.571 19.5986 9.78547L19.5984 9.76914C19.464 4.59328 15.2306 0.348389 10.0357 0.348389ZM3.43474 9.31757L1.91032 8.85177C1.87504 9.15833 1.85691 9.4699 1.85691 9.78547C1.85691 10.2782 1.89069 10.759 1.97994 11.2325H6.57057C6.85698 9.69622 8.17121 8.49136 9.78517 8.35194L13.5613 4.6793C13.7938 4.4531 14.1603 4.44084 14.4074 4.65098C14.6546 4.86112 14.7014 5.22474 14.5156 5.49067L12.0968 8.95203C12.8679 9.4791 13.4157 10.3 13.6098 11.2325H18.2242C18.3068 10.8007 18.34 10.3241 18.3404 9.79368C18.3312 9.45395 18.3018 9.11894 18.2533 8.78986L16.5789 9.31609C16.2475 9.42027 15.8943 9.236 15.7901 8.90453C15.6859 8.57305 15.8702 8.21988 16.2017 8.1157L17.9758 7.55812C16.9806 4.30485 14.0742 1.86701 10.6018 1.62624V2.99077C10.6018 3.33824 10.3201 3.61991 9.97261 3.61991C9.62515 3.61991 9.34347 3.33824 9.34347 2.99077V1.63594C7.79706 1.76723 6.36941 2.33403 5.1846 3.21227L6.23008 4.40031C6.45962 4.66116 6.43425 5.0587 6.1734 5.28824C5.91256 5.51779 5.51502 5.49241 5.28547 5.23157L4.23358 4.03624C3.26035 5.01829 2.53248 6.24384 2.15271 7.61013L3.80244 8.11421C4.13473 8.21575 4.3218 8.56744 4.22027 8.89974C4.11873 9.23203 3.76704 9.4191 3.43474 9.31757Z" fill="#5C6585"/>
</svg>
