<svg xmlns="http://www.w3.org/2000/svg" width="14" height="11.415" viewBox="0 0 14 11.415">
  <path id="Path_10" data-name="Path 10" d="M50.114,37.668H39.771A1.835,1.835,0,0,0,37.943,39.5v7.758a1.834,1.834,0,0,0,1.829,1.828H50.115a1.834,1.834,0,0,0,1.828-1.829V39.5A1.835,1.835,0,0,0,50.114,37.668Zm-10.34,1.071H50.112a.757.757,0,0,1,.71.514l-5.88,4.115-5.878-4.115A.757.757,0,0,1,39.774,38.739Zm10.34,9.273H39.773a.762.762,0,0,1-.759-.758V40.526l5.62,3.935a.537.537,0,0,0,.616,0l5.622-3.935v6.727A.762.762,0,0,1,50.114,48.012Z" transform="translate(-37.943 -37.668)"/>
</svg>
