<svg width="30" height="24" viewBox="0 0 30 24" fill="none" xmlns="http://www.w3.org/2000/svg">
<path fill-rule="evenodd" clip-rule="evenodd" d="M25.4763 0H3.8284H3.82635C1.72104 0.00627569 0.00204399 1.72257 0 3.82819V20.066C0.00204399 22.1717 1.72104 23.888 3.8284 23.8921H25.4794C27.5847 23.888 29.3006 22.1717 29.3027 20.064V3.8261C29.3006 1.72257 27.5847 0.00627569 25.4763 0ZM3.83247 2.24357H25.4702C26.1651 2.24357 26.7385 2.69777 26.9562 3.31731L14.6493 11.9302L2.34853 3.31731C2.56621 2.69777 3.13955 2.24357 3.83247 2.24357ZM3.83044 21.6502H25.4763C26.3471 21.6481 27.0594 20.9365 27.0614 20.0616V5.98163L15.2942 14.2178C15.099 14.3517 14.8752 14.4208 14.6493 14.4208C14.4234 14.4208 14.2017 14.3517 14.0065 14.2178L2.2443 5.98163V20.0637C2.24635 20.9365 2.95765 21.6481 3.83044 21.6502Z" fill="#0089FF"/>
</svg>
