<svg width="15" height="17" viewBox="0 0 15 17" fill="none" xmlns="http://www.w3.org/2000/svg">
<path d="M4.77895 3.05128C5.16652 2.70012 5.62577 2.43737 6.12491 2.28122C6.62405 2.12507 7.15116 2.07925 7.66976 2.14694C8.56365 2.29208 9.37503 2.75525 9.9545 3.45118C10.534 4.14712 10.8425 5.02896 10.8234 5.93436V9.41261C10.8251 9.56773 10.8512 9.72161 10.9007 9.86865L13.6833 12.6512C13.8347 12.5268 13.954 12.3677 14.0311 12.1875C14.1284 11.9573 14.1547 11.7033 14.1065 11.4581C14.0583 11.213 13.9378 10.9878 13.7606 10.8116L12.3693 9.41261V5.96528C12.3878 4.68515 11.9425 3.44155 11.1156 2.4641C10.2888 1.48666 9.13621 0.841383 7.87072 0.647424C7.13619 0.549023 6.3891 0.60918 5.67978 0.823844C4.97046 1.03851 4.31538 1.40269 3.75866 1.89186C3.60133 2.02226 3.45165 2.16163 3.31035 2.30925L4.44658 3.41456C4.54919 3.28623 4.66022 3.16487 4.77895 3.05128ZM8.72096 12.087L8.07942 11.4223H2.15867L3.07074 10.5102C3.21541 10.3664 3.33019 10.1954 3.40846 10.007C3.48673 9.8186 3.52694 9.6166 3.52678 9.41261V6.86962L1.98089 5.32373C1.97299 5.47564 1.97299 5.62786 1.98089 5.77977V9.41261L0.589591 10.8116C0.411049 10.9879 0.289183 11.2134 0.239603 11.4593C0.190023 11.7052 0.214988 11.9603 0.311298 12.192C0.407609 12.4236 0.570881 12.6213 0.780198 12.7595C0.989516 12.8978 1.23535 12.9705 1.48621 12.9682H4.0833V13.231C4.1194 14.0156 4.4651 14.754 5.04463 15.2843C5.62416 15.8146 6.39027 16.0935 7.17508 16.0599C7.90519 16.0931 8.62227 15.8584 9.19159 15.4001C9.76091 14.9418 10.1433 14.2914 10.2669 13.571L9.62531 12.9682L8.72096 12.087ZM7.17508 14.514C6.80176 14.5404 6.43266 14.4217 6.14468 14.1827C5.85671 13.9437 5.67205 13.6027 5.62919 13.231V12.9682H8.72096V13.231C8.6781 13.6027 8.49344 13.9437 8.20546 14.1827C7.91749 14.4217 7.54839 14.5404 7.17508 14.514ZM13.9074 13.9652L12.9026 12.9682L11.3567 11.4223L3.99827 4.05611L2.86205 2.91988L1.54031 1.59814C1.46824 1.52608 1.38269 1.46891 1.28853 1.42991C1.19436 1.3909 1.09344 1.37083 0.991522 1.37083C0.889603 1.37083 0.788681 1.3909 0.694519 1.42991C0.600358 1.46891 0.5148 1.52608 0.442732 1.59814C0.297184 1.74369 0.215416 1.9411 0.215416 2.14694C0.215416 2.35277 0.297184 2.55018 0.442732 2.69573L2.17413 4.46577L3.52678 5.77977L9.177 11.4223L9.23111 11.4764L10.2669 12.5121L10.7229 12.9682L12.8098 15.0628C12.8817 15.1353 12.9672 15.1928 13.0614 15.232C13.1556 15.2713 13.2566 15.2915 13.3586 15.2915C13.4607 15.2915 13.5617 15.2713 13.6559 15.232C13.7501 15.1928 13.8356 15.1353 13.9074 15.0628C13.9799 14.991 14.0374 14.9055 14.0766 14.8113C14.1158 14.7171 14.1361 14.6161 14.1361 14.514C14.1361 14.412 14.1158 14.311 14.0766 14.2168C14.0374 14.1226 13.9799 14.0371 13.9074 13.9652Z" fill="#8C99B2"/>
</svg>
