<svg width="20" height="15" viewBox="0 0 20 15" fill="none" xmlns="http://www.w3.org/2000/svg">
<path d="M10.3633 0.527588C9.32144 0.527588 8.46328 1.38575 8.46328 2.42759C8.46328 2.91217 8.65464 3.35207 8.95807 3.68931L5.10859 5.61405C4.15471 5.711 3.39661 6.51669 3.39661 7.49425C3.39661 8.10906 3.69951 8.6551 4.15859 9.00337L2.47135 10.6906C1.56668 10.8336 0.863281 11.6188 0.863281 12.5609C0.863281 13.6028 1.72144 14.4609 2.76328 14.4609C3.80512 14.4609 4.66328 13.6028 4.66328 12.5609C4.66328 11.9461 4.36039 11.4001 3.9013 11.0518L5.29661 9.65649L6.69193 11.0518C6.23284 11.4001 5.92995 11.9461 5.92995 12.5609C5.92995 13.6028 6.78811 14.4609 7.82995 14.4609C8.87179 14.4609 9.72995 13.6028 9.72995 12.5609C9.72995 11.6188 9.02655 10.8336 8.12187 10.6906L6.43464 9.00337C6.89372 8.6551 7.19661 8.10906 7.19661 7.49425C7.19661 7.00967 7.00526 6.56978 6.70182 6.23254L10.3633 4.40181L14.0247 6.23254C13.7213 6.56978 13.5299 7.00967 13.5299 7.49425C13.5299 8.10906 13.8328 8.6551 14.2919 9.00337L12.6047 10.6906C11.7 10.8336 10.9966 11.6188 10.9966 12.5609C10.9966 13.6028 11.8548 14.4609 12.8966 14.4609C13.9385 14.4609 14.7966 13.6028 14.7966 12.5609C14.7966 11.9461 14.4937 11.4001 14.0346 11.0518L15.4299 9.65649L16.8253 11.0518C16.3662 11.4001 16.0633 11.9461 16.0633 12.5609C16.0633 13.6028 16.9214 14.4609 17.9633 14.4609C19.0051 14.4609 19.8633 13.6028 19.8633 12.5609C19.8633 11.6188 19.1599 10.8336 18.2552 10.6906L16.568 9.00337C17.0271 8.6551 17.3299 8.10906 17.3299 7.49425C17.3299 6.51669 16.5719 5.711 15.618 5.61405L11.7685 3.68931C12.0719 3.35207 12.2633 2.91217 12.2633 2.42759C12.2633 1.38575 11.4051 0.527588 10.3633 0.527588ZM10.3633 1.79425C10.7206 1.79425 10.9966 2.07031 10.9966 2.42759C10.9966 2.78487 10.7206 3.06092 10.3633 3.06092C10.006 3.06092 9.72995 2.78487 9.72995 2.42759C9.72995 2.07031 10.006 1.79425 10.3633 1.79425ZM5.29661 6.86092C5.6539 6.86092 5.92995 7.13697 5.92995 7.49425C5.92995 7.85154 5.6539 8.12759 5.29661 8.12759C4.93933 8.12759 4.66328 7.85154 4.66328 7.49425C4.66328 7.13697 4.93933 6.86092 5.29661 6.86092ZM15.4299 6.86092C15.7872 6.86092 16.0633 7.13697 16.0633 7.49425C16.0633 7.85154 15.7872 8.12759 15.4299 8.12759C15.0727 8.12759 14.7966 7.85154 14.7966 7.49425C14.7966 7.13697 15.0727 6.86092 15.4299 6.86092ZM2.76328 11.9276C3.12056 11.9276 3.39661 12.2036 3.39661 12.5609C3.39661 12.9182 3.12056 13.1943 2.76328 13.1943C2.406 13.1943 2.12995 12.9182 2.12995 12.5609C2.12995 12.2036 2.406 11.9276 2.76328 11.9276ZM7.82995 11.9276C8.18723 11.9276 8.46328 12.2036 8.46328 12.5609C8.46328 12.9182 8.18723 13.1943 7.82995 13.1943C7.47267 13.1943 7.19661 12.9182 7.19661 12.5609C7.19661 12.2036 7.47267 11.9276 7.82995 11.9276ZM12.8966 11.9276C13.2539 11.9276 13.5299 12.2036 13.5299 12.5609C13.5299 12.9182 13.2539 13.1943 12.8966 13.1943C12.5393 13.1943 12.2633 12.9182 12.2633 12.5609C12.2633 12.2036 12.5393 11.9276 12.8966 11.9276ZM17.9633 11.9276C18.3206 11.9276 18.5966 12.2036 18.5966 12.5609C18.5966 12.9182 18.3206 13.1943 17.9633 13.1943C17.606 13.1943 17.3299 12.9182 17.3299 12.5609C17.3299 12.2036 17.606 11.9276 17.9633 11.9276Z" fill="#5C6585"/>
</svg>
