<svg xmlns="http://www.w3.org/2000/svg" width="26.001" height="26" viewBox="0 0 26.001 26">
  <g id="Group_3" data-name="Group 3" transform="translate(-608.893 -90.669)">
    <path id="Path_5" data-name="Path 5" d="M619.164,92l-.309,1.825a10.276,10.276,0,0,0-1.771.733l-1.505-1.075a1.6,1.6,0,0,0-2.069.174l-1.619,1.618a1.6,1.6,0,0,0-.174,2.064l1.076,1.51a10.2,10.2,0,0,0-.756,1.836l-1.8.3a1.6,1.6,0,0,0-1.341,1.586v2.286a1.606,1.606,0,0,0,1.341,1.587l1.847.315a10.025,10.025,0,0,0,.744,1.764l-1.075,1.5a1.6,1.6,0,0,0,.174,2.069l1.619,1.623a1.606,1.606,0,0,0,2.069.175l1.526-1.087a10.034,10.034,0,0,0,1.777.723l.3,1.8a1.6,1.6,0,0,0,1.587,1.341h2.286a1.6,1.6,0,0,0,1.587-1.341l.315-1.847a10.067,10.067,0,0,0,1.765-.744l1.488,1.07a1.6,1.6,0,0,0,2.07-.173l1.618-1.619a1.6,1.6,0,0,0,.174-2.064l-1.086-1.527a10.291,10.291,0,0,0,.706-1.715l1.825-.305a1.6,1.6,0,0,0,1.341-1.585v-2.293a1.6,1.6,0,0,0-1.341-1.586l-1.825-.31a10.235,10.235,0,0,0-.734-1.77l1.076-1.5a1.6,1.6,0,0,0-.174-2.069l-1.618-1.619a1.609,1.609,0,0,0-2.07-.173l-1.51,1.075a10.206,10.206,0,0,0-1.771-.733l-.3-1.825a1.6,1.6,0,0,0-1.586-1.342H620.75A1.584,1.584,0,0,0,619.164,92Zm3.873.119v.006a.14.14,0,0,1,.141.119l.381,2.281a.728.728,0,0,0,.537.587,8.738,8.738,0,0,1,2.276.945.735.735,0,0,0,.8-.032l1.89-1.342a.148.148,0,0,1,.185.016l1.618,1.619a.139.139,0,0,1,.044.1.131.131,0,0,1-.028.082l-1.342,1.884a.739.739,0,0,0-.032.8,8.655,8.655,0,0,1,.945,2.276.722.722,0,0,0,.587.537l2.281.386a.14.14,0,0,1,.12.141v2.286a.141.141,0,0,1-.12.142l-2.281.38a.731.731,0,0,0-.587.538,9.008,9.008,0,0,1-.913,2.227.762.762,0,0,0-.1.369.718.718,0,0,0,.136.424l1.352,1.9a.163.163,0,0,1,.027.081.143.143,0,0,1-.043.1l-1.619,1.619a.147.147,0,0,1-.185.016l-1.873-1.336a.746.746,0,0,0-.8-.033,8.619,8.619,0,0,1-2.271.957.743.743,0,0,0-.538.586l-.391,2.3a.14.14,0,0,1-.141.119H620.8a.141.141,0,0,1-.142-.119l-.38-2.265a.734.734,0,0,0-.543-.592,8.661,8.661,0,0,1-2.281-.93.727.727,0,0,0-.794.039l-1.9,1.352a.146.146,0,0,1-.184-.016l-1.619-1.619a.137.137,0,0,1-.043-.1.131.131,0,0,1,.027-.081L614.281,109a.744.744,0,0,0,.033-.8,8.593,8.593,0,0,1-.956-2.27.744.744,0,0,0-.587-.538l-2.3-.391a.14.14,0,0,1-.119-.141v-2.287a.14.14,0,0,1,.119-.141l2.265-.381a.734.734,0,0,0,.593-.543,8.809,8.809,0,0,1,.956-2.33.736.736,0,0,0-.033-.8L612.907,96.5a.154.154,0,0,1-.027-.081.147.147,0,0,1,.043-.1l1.619-1.618a.146.146,0,0,1,.184-.016l1.885,1.341a.733.733,0,0,0,.8.033,8.656,8.656,0,0,1,2.276-.945.72.72,0,0,0,.537-.587l.386-2.281a.141.141,0,0,1,.141-.12Z" fill="#616580" fill-rule="evenodd"/>
    <path id="Path_6" data-name="Path 6" d="M616.28,103.669a5.611,5.611,0,1,0,5.611-5.611A5.615,5.615,0,0,0,616.28,103.669Zm9.755,0a4.145,4.145,0,1,1-4.144-4.144A4.146,4.146,0,0,1,626.035,103.669Z" fill="#616580" fill-rule="evenodd"/>
  </g>
</svg>
