<svg xmlns="http://www.w3.org/2000/svg" width="23.123" height="26" viewBox="0 0 23.123 26">
  <g id="Group_6" data-name="Group 6" transform="translate(-245.173 -92.689)">
    <rect id="Rectangle_5" data-name="Rectangle 5" width="1.528" height="4.089" transform="translate(259.183 97.341) rotate(-59.951)" fill="#60647f"/>
    <rect id="Rectangle_6" data-name="Rectangle 6" width="4.091" height="1.528" transform="matrix(0.866, -0.5, 0.5, 0.866, 249.981, 98.065)" fill="#60647f"/>
    <rect id="Rectangle_7" data-name="Rectangle 7" width="4.09" height="1.528" transform="matrix(0.866, -0.5, 0.5, 0.866, 259.183, 114.037)" fill="#60647f"/>
    <rect id="Rectangle_8" data-name="Rectangle 8" width="1.528" height="4.091" transform="translate(249.981 113.312) rotate(-59.953)" fill="#60647f"/>
    <path id="Path_14" data-name="Path 14" d="M268.216,110.441a2.293,2.293,0,0,0-3.757-1.156l-1.132-.657a7.1,7.1,0,0,0,0-5.878l1.132-.656a2.3,2.3,0,0,0,.9.5,2.322,2.322,0,0,0,1.77-.237h0a2.333,2.333,0,1,0-3.452-1.579l-1.131.656a7.21,7.21,0,0,0-5.051-2.907V97.216a2.334,2.334,0,1,0-1.529,0v1.306a7.206,7.206,0,0,0-5.071,2.9l-1.11-.644a2.3,2.3,0,0,0-1.112-2.458,2.339,2.339,0,0,0-3.189.848,2.336,2.336,0,0,0,2.015,3.5,2.35,2.35,0,0,0,.6-.079,2.3,2.3,0,0,0,.9-.5l1.111.644a7.085,7.085,0,0,0,0,5.9l-1.111.644a2.323,2.323,0,1,0-2.1,4.011,2.393,2.393,0,0,0,.6.079,2.314,2.314,0,0,0,2.279-2.773l1.11-.644a7.206,7.206,0,0,0,5.071,2.9v1.306a2.333,2.333,0,1,0,1.529,0v-1.309a7.21,7.21,0,0,0,5.051-2.907l1.129.655a2.328,2.328,0,1,0,4.536-.161Zm-2.657-10.8a.8.8,0,1,1-.291,1.1A.8.8,0,0,1,265.559,99.643Zm-17.356,1.1a.8.8,0,0,1-1.1.292h0a.8.8,0,1,1,1.1-.292Zm.082,10.506a.8.8,0,1,1-1.182-.9h0a.8.8,0,0,1,1.18.9Zm8.45-17.028a.8.8,0,1,1-.8.8A.8.8,0,0,1,256.735,94.219Zm-5.728,11.47a5.7,5.7,0,0,1,11.35-.764h-2.511a10.8,10.8,0,0,0-1.181-4.344l-1.359.7a9.214,9.214,0,0,1,1.026,3.642H255.11a9.214,9.214,0,0,1,1.019-3.63l-1.359-.7a10.782,10.782,0,0,0-1.175,4.33h-1.8v1.529h1.827a12.213,12.213,0,0,0,1.456,4.68A5.7,5.7,0,0,1,251.007,105.689Zm7.291.765a11.083,11.083,0,0,1-1.577,4.494,11.088,11.088,0,0,1-1.577-4.494Zm-1.563,10.706a.8.8,0,1,1,.8-.8A.8.8,0,0,1,256.735,117.16Zm1.628-6.027a12.218,12.218,0,0,0,1.455-4.679h2.539A5.688,5.688,0,0,1,258.363,111.133Zm8.294.31a.8.8,0,1,1,.082-.609A.8.8,0,0,1,266.657,111.443Z" fill="#60647f"/>
    <rect id="Rectangle_9" data-name="Rectangle 9" width="1.529" height="4.097" transform="translate(246.76 103.641)" fill="#60647f"/>
    <rect id="Rectangle_10" data-name="Rectangle 10" width="1.529" height="4.097" transform="translate(265.18 103.641)" fill="#60647f"/>
  </g>
</svg>
