<svg xmlns="http://www.w3.org/2000/svg" width="14.595" height="14.595" viewBox="0 0 14.595 14.595">
  <g id="Group_190" data-name="Group 190" transform="translate(-2192.8 -1012.448)">
    <path id="Path_196" data-name="Path 196" d="M2198.565,1013.2l-.174,1.024a5.84,5.84,0,0,0-.994.412l-.844-.6a.9.9,0,0,0-1.162.1l-.909.909a.9.9,0,0,0-.265.637.882.882,0,0,0,.168.521l.6.848a5.718,5.718,0,0,0-.424,1.03l-1.012.171a.9.9,0,0,0-.753.89v1.284a.9.9,0,0,0,.753.89l1.036.177a5.644,5.644,0,0,0,.418.991l-.6.838a.9.9,0,0,0,.1,1.162l.909.911a.9.9,0,0,0,1.161.1l.857-.61a5.633,5.633,0,0,0,1,.406l.171,1.012a.9.9,0,0,0,.89.753h1.284a.9.9,0,0,0,.89-.753l.177-1.037a5.661,5.661,0,0,0,.991-.417l.835.6a.9.9,0,0,0,1.162-.1l.909-.909a.9.9,0,0,0,.1-1.159l-.61-.856a5.764,5.764,0,0,0,.4-.963l1.024-.171a.9.9,0,0,0,.753-.89V1019.1a.9.9,0,0,0-.753-.891l-1.024-.173a5.762,5.762,0,0,0-.412-.994l.6-.845a.9.9,0,0,0-.1-1.161l-.908-.909a.9.9,0,0,0-1.162-.1l-.848.6a5.707,5.707,0,0,0-.994-.411l-.17-1.025a.9.9,0,0,0-.891-.753h-1.283A.89.89,0,0,0,2198.565,1013.2Zm2.174.067v0a.079.079,0,0,1,.079.067l.214,1.281a.409.409,0,0,0,.3.329,4.9,4.9,0,0,1,1.278.531.412.412,0,0,0,.448-.019l1.061-.753a.083.083,0,0,1,.1.009l.909.909a.078.078,0,0,1,.024.058.081.081,0,0,1-.015.046l-.753,1.058a.413.413,0,0,0-.018.448,4.91,4.91,0,0,1,.53,1.277.4.4,0,0,0,.33.3l1.28.217a.078.078,0,0,1,.067.079v1.283a.079.079,0,0,1-.067.08l-1.28.213a.411.411,0,0,0-.33.3,5.043,5.043,0,0,1-.512,1.25.418.418,0,0,0-.055.207.406.406,0,0,0,.076.238l.76,1.067a.092.092,0,0,1,.015.046.08.08,0,0,1-.025.058l-.908.909a.084.084,0,0,1-.1.009l-1.052-.751a.418.418,0,0,0-.451-.018,4.825,4.825,0,0,1-1.275.537.42.42,0,0,0-.3.329l-.219,1.29a.08.08,0,0,1-.079.067h-1.284a.079.079,0,0,1-.079-.067l-.214-1.272a.412.412,0,0,0-.305-.332,4.867,4.867,0,0,1-1.28-.521.406.406,0,0,0-.445.021l-1.068.759a.081.081,0,0,1-.1-.009l-.909-.909a.076.076,0,0,1-.024-.057.074.074,0,0,1,.015-.046l.75-1.052a.415.415,0,0,0,.018-.451,4.871,4.871,0,0,1-.536-1.275.417.417,0,0,0-.33-.3l-1.289-.22a.078.078,0,0,1-.067-.079v-1.284a.079.079,0,0,1,.067-.079l1.271-.214a.412.412,0,0,0,.333-.3,4.959,4.959,0,0,1,.536-1.308.41.41,0,0,0-.018-.447l-.756-1.052a.086.086,0,0,1-.015-.046.082.082,0,0,1,.024-.058l.908-.909a.084.084,0,0,1,.1-.009l1.058.753a.411.411,0,0,0,.449.018,4.9,4.9,0,0,1,1.277-.53.406.406,0,0,0,.3-.329l.216-1.281a.08.08,0,0,1,.08-.067Z" fill="#60647f" fill-rule="evenodd"/>
    <path id="Path_197" data-name="Path 197" d="M2196.946,1019.746a3.15,3.15,0,1,0,3.15-3.15A3.152,3.152,0,0,0,2196.946,1019.746Zm5.476,0a2.327,2.327,0,1,1-2.326-2.327A2.328,2.328,0,0,1,2202.422,1019.746Z" fill="#60647f" fill-rule="evenodd"/>
  </g>
</svg>
