<svg xmlns="http://www.w3.org/2000/svg" width="31.625" height="26" viewBox="0 0 31.625 26">
  <g id="Group_8" data-name="Group 8" transform="translate(-63.207 -91.436)">
    <path id="Path_16" data-name="Path 16" d="M73.611,106.581a3.36,3.36,0,0,0-2.684-.793l-.251.011a7.186,7.186,0,0,1-6.941-9.876.922.922,0,0,1,1.508-.305l3.29,3.289a1.544,1.544,0,0,0,2.12,0,1.515,1.515,0,0,0,.461-1.086,1.491,1.491,0,0,0-.436-1.06l-3.29-3.289a.922.922,0,0,1,.307-1.508,7.184,7.184,0,0,1,9.874,6.913l-.011.287a3.362,3.362,0,0,0,.785,2.687L77,103.122a5.143,5.143,0,0,1-1.291-4.064l.932-.165-.923-.049a5.376,5.376,0,0,0-1.557-3.994,5.321,5.321,0,0,0-4.326-1.538l2.143,2.144a3.351,3.351,0,0,1,0,4.732,3.415,3.415,0,0,1-4.753.024l-2.145-2.145a5.332,5.332,0,0,0,1.538,4.328,5.408,5.408,0,0,0,3.962,1.559l.241-.009a5.15,5.15,0,0,1,4.059,1.3Z" fill="#60647f"/>
    <path id="Path_17" data-name="Path 17" d="M85.98,117.422a3.34,3.34,0,0,1-.42-.028,4.288,4.288,0,0,1-2.423-1.3L80.4,113.358l1.305-1.305,2.737,2.735a2.5,2.5,0,0,0,1.359.775,1.279,1.279,0,0,0,1.119-.427c.918-.918.169-1.94-.359-2.469l-2.819-2.82,1.305-1.305,2.819,2.82c1.626,1.626,1.771,3.668.359,5.079A3.127,3.127,0,0,1,85.98,117.422Z" fill="#60647f"/>
    <path id="Path_18" data-name="Path 18" d="M85.587,104.173l-1.305-1.305,4.984-4.984,1.435.159,1.8-2.956-.7-.7-2.956,1.8L89,97.617l-3.816,3.819-1.305-1.305,3.189-3.191-.187-1.722,5.2-3.165,2.758,2.755-3.165,5.2-1.723-.191Z" fill="#60647f"/>
    <path id="Path_19" data-name="Path 19" d="M73.555,114.253a.923.923,0,0,1-.653-1.576l8.51-8.509a.923.923,0,1,1,1.305,1.305l-8.509,8.509A.92.92,0,0,1,73.555,114.253Z" fill="#60647f"/>
    <path id="Path_20" data-name="Path 20" d="M73.591,117.436a2.9,2.9,0,0,1-2.066-.853L70.3,115.36a2.925,2.925,0,0,1,0-4.132l9.662-9.662a3,3,0,0,1,4.132,0l1.222,1.224a2.928,2.928,0,0,1,0,4.134l-9.66,9.66h0A2.9,2.9,0,0,1,73.591,117.436Zm8.438-14.877a1.067,1.067,0,0,0-.761.312l-9.662,9.662a1.077,1.077,0,0,0,0,1.521l1.224,1.223a1.107,1.107,0,0,0,1.522,0h0l9.66-9.66a1.083,1.083,0,0,0,0-1.523l-1.222-1.223A1.068,1.068,0,0,0,82.029,102.559Z" fill="#60647f"/>
  </g>
</svg>
