<svg xmlns="http://www.w3.org/2000/svg" width="14.595" height="11.999" viewBox="0 0 14.595 11.999">
  <g id="Group_188" data-name="Group 188" transform="translate(-2737.72 -1013.996)">
    <path id="Path_189" data-name="Path 189" d="M2742.521,1020.985a1.554,1.554,0,0,0-1.238-.366l-.116.005a3.315,3.315,0,0,1-3.2-4.557.429.429,0,0,1,.31-.258.434.434,0,0,1,.386.117l1.518,1.518a.713.713,0,0,0,.978,0,.7.7,0,0,0,.213-.5.688.688,0,0,0-.2-.49l-1.518-1.517a.425.425,0,0,1,.141-.7,3.315,3.315,0,0,1,4.557,3.19l0,.133a1.554,1.554,0,0,0,.362,1.24l-.617.586a2.371,2.371,0,0,1-.6-1.875l.43-.077-.426-.022a2.464,2.464,0,0,0-2.715-2.553l.989.989a1.546,1.546,0,0,1,0,2.184,1.575,1.575,0,0,1-2.193.011l-.99-.99a2.462,2.462,0,0,0,.709,2,2.5,2.5,0,0,0,1.829.72l.111,0a2.378,2.378,0,0,1,1.874.6Z"/>
    <path id="Path_190" data-name="Path 190" d="M2748.23,1025.988a1.424,1.424,0,0,1-.194-.013,1.973,1.973,0,0,1-1.118-.6l-1.263-1.262.6-.6,1.263,1.262a1.164,1.164,0,0,0,.627.358.592.592,0,0,0,.517-.2c.423-.424.078-.9-.165-1.14l-1.3-1.3.6-.6,1.3,1.3a1.58,1.58,0,0,1,.165,2.344A1.442,1.442,0,0,1,2748.23,1025.988Z"/>
    <path id="Path_191" data-name="Path 191" d="M2748.049,1019.874l-.6-.6,2.3-2.3.662.073.83-1.364-.324-.325-1.364.831.073.662-1.761,1.762-.6-.6,1.472-1.473-.086-.795,2.4-1.461,1.273,1.272-1.461,2.4-.8-.088Z"/>
    <path id="Path_192" data-name="Path 192" d="M2742.5,1024.526a.426.426,0,0,1-.3-.727l3.927-3.927a.426.426,0,0,1,.6.6l-3.927,3.927A.425.425,0,0,1,2742.5,1024.526Z"/>
    <path id="Path_193" data-name="Path 193" d="M2742.512,1025.995a1.337,1.337,0,0,1-.953-.394l-.565-.564a1.35,1.35,0,0,1,0-1.907l4.459-4.459a1.385,1.385,0,0,1,1.907,0l.564.565a1.351,1.351,0,0,1,0,1.907l-4.458,4.458h0A1.34,1.34,0,0,1,2742.512,1025.995Zm3.894-6.866a.493.493,0,0,0-.351.144l-4.459,4.459a.5.5,0,0,0,0,.7l.565.565a.511.511,0,0,0,.7,0h0l4.458-4.459a.5.5,0,0,0,0-.7l-.564-.565A.493.493,0,0,0,2746.406,1019.129Z"/>
  </g>
</svg>
