<svg xmlns="http://www.w3.org/2000/svg" width="26" height="26" viewBox="0 0 26 26">
  <g id="Group_1" data-name="Group 1" transform="translate(-427.386 -90.659)">
    <path id="Path_2" data-name="Path 2" d="M429.021,115.056h24.365v1.6h-26v-26h1.635v4.873h1.635v1.635h-1.635V100.4h1.635v1.635h-1.635v3.27h1.635v1.6h-1.635v3.27h1.635v1.6h-1.635Zm3.238-7.309a2.436,2.436,0,0,1,2.437-2.437,2.7,2.7,0,0,1,.737.1l2.116-2.822a2.473,2.473,0,0,1-.417-1.346,2.436,2.436,0,0,1,2.437-2.437,2.463,2.463,0,0,1,2.468,2.437,2.5,2.5,0,0,1-.128.705l2.821,2.148a2.479,2.479,0,0,1,1.347-.417,1.2,1.2,0,0,1,.32.032l2.822-5.674a2.4,2.4,0,0,1-.706-1.667A2.436,2.436,0,1,1,450.95,98.8c-.1,0-.193-.032-.289-.032l-2.821,5.643a2.441,2.441,0,1,1-4.2,1.7,2.977,2.977,0,0,1,.128-.738l-2.821-2.115a2.5,2.5,0,0,1-1.378.416,2.736,2.736,0,0,1-.706-.128l-2.115,2.821a2.558,2.558,0,0,1,.384,1.379,2.436,2.436,0,0,1-4.873,0Zm17.889-11.381a.794.794,0,0,0,.8.8.82.82,0,0,0,.833-.8.848.848,0,0,0-.833-.834.822.822,0,0,0-.8.834Zm-4.873,9.746a.794.794,0,0,0,.8.8.8.8,0,1,0,0-1.6.794.794,0,0,0-.8.8Zm-6.508-4.873a.794.794,0,0,0,.8.8.82.82,0,0,0,.833-.8.848.848,0,0,0-.833-.834.822.822,0,0,0-.8.834Zm-4.873,6.508a.794.794,0,0,0,.8.8.82.82,0,0,0,.833-.8.848.848,0,0,0-.833-.834.822.822,0,0,0-.8.834Z" fill="#616580"/>
  </g>
</svg>
