<svg xmlns="http://www.w3.org/2000/svg" viewBox="0 0 23.62 23.62"><defs><style>.fb13f571-bc62-4edc-b051-7de53148393c{fill:none;stroke:#fff;stroke-miterlimit:10;stroke-width:0.75px;}.b709b53f-ea84-4d22-909b-d9597ba717a4,.fdf689d2-daec-49c9-90d3-84624866c111{fill:#fff;}.b709b53f-ea84-4d22-909b-d9597ba717a4{opacity:0.1;}.fdf689d2-daec-49c9-90d3-84624866c111{fill-rule:evenodd;}</style></defs><title>filter</title><g id="e2f26da0-3d32-4d6b-9561-09f84daf8c65" data-name="Слой 2"><g id="b7c46d28-c3c0-44f9-8198-992c48e0993d" data-name="Layer 1"><circle class="fb13f571-bc62-4edc-b051-7de53148393c" cx="11.81" cy="11.81" r="11.44"/><circle class="b709b53f-ea84-4d22-909b-d9597ba717a4" cx="11.81" cy="11.81" r="10.19"/><circle class="b709b53f-ea84-4d22-909b-d9597ba717a4" cx="11.81" cy="11.81" r="9.06"/><circle class="b709b53f-ea84-4d22-909b-d9597ba717a4" cx="11.81" cy="11.81" r="7.93"/><circle class="b709b53f-ea84-4d22-909b-d9597ba717a4" cx="11.81" cy="11.81" r="6.79"/><path class="fdf689d2-daec-49c9-90d3-84624866c111" d="M10.34,16.31v-4L7.52,9a.33.33,0,0,1,.26-.56H15.3a.32.32,0,0,1,.26.56l-2.75,3.18v2.5a.34.34,0,0,1-.12.26l-1.76,1.62c-.21.15-.59.07-.59-.25ZM8.53,9.12l2.41,2.79a.39.39,0,0,1,.09.22v3.41l1.09-1V12.06a.39.39,0,0,1,.09-.22l2.34-2.72Z"/></g></g></svg>