<svg xmlns="http://www.w3.org/2000/svg" viewBox="0 0 23.62 23.62">
<defs><style>.cls-oil-filter-active-1{fill:none;stroke:#3fa9f5;stroke-miterlimit:10;stroke-width:0.75px;}.cls-oil-filter-active-2,.cls-oil-filter-active-3{fill:#3fa9f5;}.cls-oil-filter-active-2{opacity:0.1;}.cls-oil-filter-active-3{fill-rule:evenodd;}</style></defs>
<title>Фильтр</title>
<g id="Слой_2" data-name="Слой 2"><g id="Layer_1" data-name="Layer 1"><circle class="cls-oil-filter-active-1" cx="11.81" cy="11.81" r="11.44"/>
<circle class="cls-oil-filter-active-2" cx="11.81" cy="11.81" r="10.19"/>
<circle class="cls-oil-filter-active-2" cx="11.81" cy="11.81" r="9.06"/>
<circle class="cls-oil-filter-active-2" cx="11.81" cy="11.81" r="7.93"/>
<circle class="cls-oil-filter-active-2" cx="11.81" cy="14.9" r="6.79"/>
<path class="cls-oil-filter-active-3" d="M10.34,16.31v-4L7.52,9a.33.33,0,0,1,.26-.56H15.3a.32.32,0,0,1,.26.56l-2.75,3.18v2.5a.34.34,0,0,1-.12.26l-1.76,1.62c-.21.15-.59.07-.59-.25ZM8.53,9.12l2.41,2.79a.39.39,0,0,1,.09.22v3.41l1.09-1V12.06a.39.39,0,0,1,.09-.22l2.34-2.72Z"/></g></g></svg>