<svg xmlns="http://www.w3.org/2000/svg" viewBox="0 0 23.12 18.64"><defs><style>.b0c92907-3f7b-4bb6-8e7f-5a3cc340596a{fill:#fff;}</style></defs><title>Ресурс 1</title><g id="b210e037-644b-4a61-ac77-dbe161fc87d1" data-name="Слой 2"><g id="bebc97a3-95c3-4084-87bd-f5b280b65c5c" data-name="Layer 1"><g id="ed992606-04d6-43b8-972d-d95426df46a3" data-name="download"><rect class="b0c92907-3f7b-4bb6-8e7f-5a3cc340596a" x="3.42" y="7.28" width="1.59" height="4.08"/><rect class="b0c92907-3f7b-4bb6-8e7f-5a3cc340596a" x="6.14" y="7.28" width="1.59" height="4.08"/><path class="b0c92907-3f7b-4bb6-8e7f-5a3cc340596a" d="M2.28,7.28H2a2,2,0,1,0,0,4.08h.24Z"/><path class="b0c92907-3f7b-4bb6-8e7f-5a3cc340596a" d="M14.81.37a2,2,0,0,0-.5,2.84l2.85,4.07H8.86v4.08h8.3l-2.85,4.07a2,2,0,1,0,3.34,2.34l5.1-7.28h0l0,0s0,0,0,0l.09-.16,0,0,0,0,.06-.13S23,10,23,10l0-.06h0s0-.06,0-.09,0,0,0-.06l0-.11a.2.2,0,0,1,0-.07v0a1.64,1.64,0,0,0,0-.22h0a1.79,1.79,0,0,0,0-.23v0a.17.17,0,0,1,0-.07l0-.11s0,0,0-.06A.75.75,0,0,0,23,8.65s0,0,0-.06l-.06-.14,0,0,0,0a1,1,0,0,0-.1-.17v0l0,0h0L17.65.87A2,2,0,0,0,14.81.37Z"/><path id="e2ac413f-67d8-4c84-b8e9-b7f64b1343bb" data-name="shadow" class="b0c92907-3f7b-4bb6-8e7f-5a3cc340596a" d="M14.31,3.21l2.85,4.07H13v4.08h4.13l-2.85,4.07a2,2,0,1,0,3.34,2.34l5.1-7.28h0l0,0s0,0,0,0l.09-.16,0,0,0,0,.06-.13S23,10,23,10l0-.06h0s0-.06,0-.09,0,0,0-.06l0-.11a.2.2,0,0,1,0-.07v0a1.64,1.64,0,0,0,0-.22h0a1.79,1.79,0,0,0,0-.23v0a.17.17,0,0,1,0-.07l0-.11s0,0,0-.06A.75.75,0,0,0,23,8.65s0,0,0-.06l-.06-.14,0,0,0,0a1,1,0,0,0-.1-.17v0l0,0h0L17.65.87a2,2,0,0,0-3.34,2.34Z"/></g></g></g></svg>