<svg width="13" height="8" viewBox="0 0 13 8" fill="none" xmlns="http://www.w3.org/2000/svg">
<path fill-rule="evenodd" clip-rule="evenodd" d="M12.4599 0.235269C12.3939 0.161266 12.313 0.102051 12.2225 0.0615054C12.132 0.0209599 12.0339 0 11.9348 0C11.8356 0 11.7376 0.0209599 11.6471 0.0615054C11.5566 0.102051 11.4757 0.161266 11.4097 0.235269L6.36859 5.27635L1.28549 0.235269C1.21949 0.161266 1.13858 0.102051 1.04809 0.0615054C0.95759 0.0209599 0.859546 0 0.760382 0C0.661218 0 0.563174 0.0209599 0.472678 0.0615054C0.382182 0.102051 0.301277 0.161266 0.235269 0.235269C0.161266 0.301277 0.102051 0.382182 0.0615054 0.472678C0.0209599 0.563174 0 0.661218 0 0.760382C0 0.859546 0.0209599 0.95759 0.0615054 1.04809C0.102051 1.13858 0.161266 1.21949 0.235269 1.28549L5.86448 6.83069C5.93217 6.90186 6.01362 6.95854 6.10389 6.99726C6.19416 7.03599 6.29136 7.05596 6.38959 7.05596C6.48782 7.05596 6.58502 7.03599 6.67529 6.99726C6.76556 6.95854 6.84701 6.90186 6.9147 6.83069L12.4599 1.24349C12.5272 1.17792 12.5807 1.09954 12.6173 1.01296C12.6538 0.926375 12.6726 0.833352 12.6726 0.739378C12.6726 0.645403 12.6538 0.55238 12.6173 0.465799C12.5807 0.379218 12.5272 0.300833 12.4599 0.235269Z" fill="currentColor"/>
</svg>
