<svg xmlns="http://www.w3.org/2000/svg" viewBox="0 0 25 25"><defs><style>.cls-1{fill:none;stroke:#fff;stroke-miterlimit:10;}.cls-2block{fill:#fff;opacity:0.1;}.cls-3block{fill:#fffefd;fill-rule:evenodd;}</style></defs><title>User</title><g id="Слой_2" data-name="Слой 2"><g id="Слой_1-2" data-name="Слой 1"><circle class="cls-1" cx="12.5" cy="12.5" r="12"/><circle class="cls-2block" cx="12.5" cy="12.5" r="10.69"/><circle class="cls-2block" cx="12.5" cy="12.5" r="9.5"/><circle class="cls-2block" cx="12.5" cy="12.5" r="8.32"/><circle class="cls-2block" cx="12.5" cy="12.5" r="7.13"/><path class="cls-3block" d="M15.49,15.75a1.68,1.68,0,0,1-1.74,1.6h-2.9a1.68,1.68,0,0,1-1.74-1.6V14.69a1.63,1.63,0,0,1,1.34-1.55,2.89,2.89,0,0,0,3.7,0,1.63,1.63,0,0,1,1.34,1.55ZM9.82,10.26A2.67,2.67,0,0,1,12.3,7.43a2.67,2.67,0,0,1,2.48,2.83A2.68,2.68,0,0,1,12.3,13.1,2.68,2.68,0,0,1,9.82,10.26Zm4.94,2.25a3.72,3.72,0,0,0,.73-2.25A3.38,3.38,0,0,0,12.3,6.72a3.38,3.38,0,0,0-3.19,3.54,3.72,3.72,0,0,0,.73,2.25,2.13,2.13,0,0,0-1.44,2v1.41a2.13,2.13,0,0,0,2.13,2.13h3.54a2.13,2.13,0,0,0,2.13-2.13V14.52A2.14,2.14,0,0,0,14.76,12.51Z"/></g></g></svg>