<svg width="16" height="16" viewBox="0 0 16 16" fill="none" xmlns="http://www.w3.org/2000/svg">
<path d="M9.66245 2.5752H5.63745" stroke="#606580" stroke-miterlimit="10" stroke-linecap="round" stroke-linejoin="round"/>
<path d="M3.7125 2.5752H2.4C1.6125 2.5752 1 3.1877 1 3.9752V13.6002C1 14.3877 1.6125 15.0002 2.4 15.0002H13.075C13.8625 15.0002 14.475 14.3877 14.475 13.6002V3.9752C14.475 3.1877 13.8625 2.5752 13.075 2.5752H11.7625" stroke="#606580" stroke-miterlimit="10" stroke-linecap="round" stroke-linejoin="round"/>
<path d="M4.67505 1C4.23755 1 3.80005 1.35 3.80005 1.875V3.8C3.80005 4.2375 4.15005 4.675 4.67505 4.675C5.11255 4.675 5.55005 4.325 5.55005 3.8V1.875C5.55005 1.35 5.20005 1 4.67505 1Z" stroke="#606580" stroke-miterlimit="10" stroke-linecap="round" stroke-linejoin="round"/>
<path d="M10.8 1C10.3625 1 9.92505 1.35 9.92505 1.875V3.8C9.92505 4.2375 10.275 4.675 10.8 4.675C11.2375 4.675 11.675 4.325 11.675 3.8V1.875C11.675 1.35 11.325 1 10.8 1Z" stroke="#606580" stroke-miterlimit="10" stroke-linecap="round" stroke-linejoin="round"/>
<path d="M1.17505 6.8623H14.0375" stroke="#606580" stroke-miterlimit="10" stroke-linecap="round" stroke-linejoin="round"/>
</svg>
