<svg xmlns="http://www.w3.org/2000/svg" viewBox="0 0 28 28"><defs><style>.a93e3040-b0fd-45d0-b798-baed6e174ded{fill:none;stroke:#fff;stroke-miterlimit:10;}.aca13b81-5949-4750-a018-a7c9c3fa562b,.fad90703-4d57-407a-bd16-4e984c9746b2{fill:#fff;}.fad90703-4d57-407a-bd16-4e984c9746b2{opacity:0.1;}.aca13b81-5949-4750-a018-a7c9c3fa562b{fill-rule:evenodd;}</style></defs><title>Календарь</title><g id="f20a0aa2-cb12-48b7-adb1-e2ead6d0409a" data-name="Слой 2"><g id="f58d156b-ec26-4c48-9411-a5ba2428036f" data-name="Слой 1"><circle class="a93e3040-b0fd-45d0-b798-baed6e174ded" cx="14" cy="14" r="13.5"/><circle class="fad90703-4d57-407a-bd16-4e984c9746b2" cx="14" cy="14" r="12.03"/><circle class="fad90703-4d57-407a-bd16-4e984c9746b2" cx="14" cy="14" r="10.69"/><circle class="fad90703-4d57-407a-bd16-4e984c9746b2" cx="14" cy="14" r="9.36"/><circle class="fad90703-4d57-407a-bd16-4e984c9746b2" cx="14" cy="14" r="8.02"/><path class="aca13b81-5949-4750-a018-a7c9c3fa562b" d="M10.86,16.79h.7v.7h-.7Zm0,1.39h.7a.7.7,0,0,0,.7-.69v-.7a.7.7,0,0,0-.7-.7h-.7a.7.7,0,0,0-.7.7v.7A.69.69,0,0,0,10.86,18.18ZM13.65,14h.7v.7h-.7Zm0,1.4h.7a.71.71,0,0,0,.7-.7V14a.7.7,0,0,0-.7-.7h-.7a.7.7,0,0,0-.7.7v.7A.71.71,0,0,0,13.65,15.4Zm0,1.39h.7v.7h-.7Zm0,1.39h.7a.7.7,0,0,0,.7-.69v-.7a.7.7,0,0,0-.7-.7h-.7a.7.7,0,0,0-.7.7v.7A.7.7,0,0,0,13.65,18.18Zm4.88-7H9.47v-.7a.69.69,0,0,1,.69-.7h1.4v.35a.35.35,0,0,0,.35.35.35.35,0,0,0,.35-.35V9.81h3.48v.35a.35.35,0,0,0,.35.35.35.35,0,0,0,.35-.35V9.81h1.4a.69.69,0,0,1,.69.7Zm0,7a.69.69,0,0,1-.69.7H10.16a.69.69,0,0,1-.69-.7V11.91h9.06Zm-.69-9.06h-1.4V8.77a.35.35,0,0,0-.35-.35.35.35,0,0,0-.35.35v.35H12.26V8.77a.35.35,0,0,0-.35-.35.35.35,0,0,0-.35.35v.35h-1.4a1.39,1.39,0,0,0-1.39,1.39v7.67a1.39,1.39,0,0,0,1.39,1.4h7.68a1.39,1.39,0,0,0,1.39-1.4V10.51A1.39,1.39,0,0,0,17.84,9.12ZM16.44,14h.7v.7h-.7Zm0,1.4h.7a.7.7,0,0,0,.7-.7V14a.7.7,0,0,0-.7-.7h-.7a.7.7,0,0,0-.7.7v.7A.71.71,0,0,0,16.44,15.4Zm0,1.39h.7v.7h-.7Zm0,1.39h.7a.69.69,0,0,0,.7-.69v-.7a.7.7,0,0,0-.7-.7h-.7a.7.7,0,0,0-.7.7v.7A.7.7,0,0,0,16.44,18.18ZM10.86,14h.7v.7h-.7Zm0,1.4h.7a.71.71,0,0,0,.7-.7V14a.7.7,0,0,0-.7-.7h-.7a.7.7,0,0,0-.7.7v.7A.7.7,0,0,0,10.86,15.4Z"/></g></g></svg>