<svg xmlns="http://www.w3.org/2000/svg" viewBox="0 0 13.11 14"><defs><style>.ed109c21-124f-474b-8f02-e76b1788b603{fill:#8590a6;}</style></defs><title>Ресурс 15@1х</title><g id="bdf65dd6-9129-4a74-9b78-65b5e4084a3d" data-name="Слой 2"><g id="e56e2b5b-8200-4818-82e2-0b8d77e8339b" data-name="Слой 1"><path class="ed109c21-124f-474b-8f02-e76b1788b603" d="M10.87,0H1V1.53A1.45,1.45,0,0,0,0,2.91V11a1.45,1.45,0,0,0,1,1.38V14h9.87a2.24,2.24,0,0,0,2.24-2.24V2.25A2.24,2.24,0,0,0,10.87,0ZM12,11.76a1.12,1.12,0,0,1-1.12,1.12H2v-.43H9.54A1.46,1.46,0,0,0,11,11V8.74a1.23,1.23,0,0,0-.65-1.09A2.53,2.53,0,0,1,9,5.41V2.91A1.46,1.46,0,0,0,7.54,1.45H2V1.13h8.87A1.12,1.12,0,0,1,12,2.25Z"/></g></g></svg>