<svg xmlns="http://www.w3.org/2000/svg" viewBox="0 0 13.43 16.82"><defs><style>.bd9a1d6c-3cc3-49b1-a93f-b27ee58df21b{fill:#0089FF;}</style></defs><title>Ресурс 14@1х</title><g id="a7bcdc28-1748-4415-8199-62a53866e547" data-name="Слой 2"><g id="f265f2d7-d4f8-4ce1-bc1c-19132a653344" data-name="Слой 1"><path class="bd9a1d6c-3cc3-49b1-a93f-b27ee58df21b" d="M7.83,9.85V5.55a3.26,3.26,0,0,0-1.6-2.82L1.56.68C.7.3,0,1,0,2.15v9A3.24,3.24,0,0,0,1.56,14l6.23,2.72C8.43,17,9,16.53,9,15.64V12.87C9,11.26,7.83,10.93,7.83,9.85Zm5.6-4.26H12.31V2.24a1.12,1.12,0,0,0-1.12-1.12H4L1.78.17A1.06,1.06,0,0,0,1.59.11,2,2,0,0,1,2.24,0h9a2.24,2.24,0,0,1,2.24,2.24Zm-1.12-.15h1.12v6.31A2.24,2.24,0,0,1,11.19,14H9.51V12.87h1.68a1.12,1.12,0,0,0,1.12-1.12Z"/></g></g></svg>
