<svg xmlns="http://www.w3.org/2000/svg" viewBox="0 0 13.11 14"><defs><style>.a87e6354-6683-467e-87b9-c1df3b3f8a95{fill:#fff;}</style></defs><title>Ресурс 15@1х</title><g id="b5f6ba5f-2f66-4a2a-a2c2-ac174dc40d2b" data-name="Слой 2"><g id="e84f3c54-54a8-49c8-837e-60cdfd4791c2" data-name="Слой 1"><path class="a87e6354-6683-467e-87b9-c1df3b3f8a95" d="M10.87,0H1V1.53A1.45,1.45,0,0,0,0,2.91V11a1.45,1.45,0,0,0,1,1.38V14h9.87a2.24,2.24,0,0,0,2.24-2.24V2.25A2.24,2.24,0,0,0,10.87,0ZM12,11.76a1.12,1.12,0,0,1-1.12,1.12H2v-.43H9.54A1.46,1.46,0,0,0,11,11V8.74a1.23,1.23,0,0,0-.65-1.09A2.53,2.53,0,0,1,9,5.41V2.91A1.46,1.46,0,0,0,7.54,1.45H2V1.13h8.87A1.12,1.12,0,0,1,12,2.25Z"/></g></g></svg>