<svg width="23" height="30" viewBox="0 0 23 30" fill="none" xmlns="http://www.w3.org/2000/svg">
<path fill-rule="evenodd" clip-rule="evenodd" d="M13.7697 1H2.83551C2.34779 1.00264 1.88098 1.20083 1.53703 1.55124C1.19308 1.90165 0.999993 2.37577 1 2.87V27.13C0.999993 27.6242 1.19308 28.0984 1.53703 28.4488C1.88098 28.7992 2.34779 28.9974 2.83551 29H20.1546C20.644 29 21.1134 28.803 21.4595 28.4523C21.8056 28.1016 22 27.626 22 27.13V9.35001L13.7697 1Z" stroke="currentColor" stroke-linecap="round" stroke-linejoin="round"/>
<path d="M13.5 1V9.5H22" stroke="currentColor" stroke-linecap="round" stroke-linejoin="round"/>
<path d="M4.46191 25H3.29492V23.6084H4.46191V25ZM10.6338 22.1289C10.6338 23.0371 10.4157 23.7614 9.97949 24.3018C9.54655 24.8389 8.99805 25.1074 8.33398 25.1074C8.0638 25.1074 7.82454 25.0765 7.61621 25.0146C7.40788 24.9528 7.19466 24.8568 6.97656 24.7266V27.0117H6.05859V19.5459H6.97656V20.1172C7.20443 19.9121 7.45671 19.7412 7.7334 19.6045C8.01335 19.4645 8.31771 19.3945 8.64648 19.3945C9.27148 19.3945 9.75814 19.6419 10.1064 20.1367C10.458 20.6315 10.6338 21.2956 10.6338 22.1289ZM9.68652 22.2314C9.68652 21.6097 9.58724 21.1279 9.38867 20.7861C9.1901 20.4411 8.86784 20.2686 8.42188 20.2686C8.16146 20.2686 7.90918 20.3271 7.66504 20.4443C7.42415 20.5583 7.19466 20.7064 6.97656 20.8887V23.9795C7.21745 24.0967 7.42253 24.1764 7.5918 24.2188C7.76432 24.2611 7.96126 24.2822 8.18262 24.2822C8.65788 24.2822 9.02734 24.1081 9.29102 23.7598C9.55469 23.4115 9.68652 22.902 9.68652 22.2314ZM15.7852 25H14.8672V24.4434C14.724 24.5638 14.6003 24.6631 14.4961 24.7412C14.3919 24.8193 14.2699 24.891 14.1299 24.9561C13.9997 25.0179 13.8646 25.0651 13.7246 25.0977C13.5846 25.1335 13.4219 25.1514 13.2363 25.1514C12.9401 25.1514 12.665 25.0895 12.4111 24.9658C12.1605 24.8421 11.9473 24.6615 11.7715 24.4238C11.5924 24.1829 11.4541 23.8867 11.3564 23.5352C11.2588 23.1803 11.21 22.7734 11.21 22.3145C11.21 21.8359 11.2718 21.4225 11.3955 21.0742C11.5192 20.7227 11.6901 20.4167 11.9082 20.1562C12.1068 19.9186 12.346 19.7331 12.626 19.5996C12.9092 19.4629 13.2054 19.3945 13.5146 19.3945C13.7881 19.3945 14.0257 19.4255 14.2275 19.4873C14.4294 19.5459 14.6426 19.6387 14.8672 19.7656V17.4023H15.7852V25ZM14.8672 23.6719V20.5273C14.6393 20.4167 14.4342 20.3402 14.252 20.2979C14.0729 20.2555 13.8776 20.2344 13.666 20.2344C13.194 20.2344 12.8245 20.4118 12.5576 20.7666C12.2907 21.1182 12.1572 21.6276 12.1572 22.2949C12.1572 22.9362 12.2598 23.4277 12.4648 23.7695C12.6699 24.1081 12.9987 24.2773 13.4512 24.2773C13.6921 24.2773 13.9346 24.2236 14.1787 24.1162C14.4229 24.0055 14.6523 23.8574 14.8672 23.6719ZM19.9844 18.2812H19.9355C19.8542 18.252 19.737 18.2243 19.584 18.1982C19.431 18.1689 19.2943 18.1543 19.1738 18.1543C18.7865 18.1543 18.5098 18.2422 18.3438 18.418C18.181 18.5905 18.0996 18.9046 18.0996 19.3604V19.5459H19.6182V20.3076H18.1289V25H17.2109V20.3076H16.5908V19.5459H17.2109V19.3652C17.2109 18.7077 17.3688 18.208 17.6846 17.8662C18.0003 17.5244 18.4528 17.3535 19.042 17.3535C19.2113 17.3535 19.3773 17.3633 19.54 17.3828C19.7028 17.3991 19.8509 17.4186 19.9844 17.4414V18.2812Z" fill="currentColor"/>
</svg>
