<svg xmlns="http://www.w3.org/2000/svg" viewBox="0 0 37.18 42"><defs><style>.cls-1,.cls-3,.cls-4{fill:#383a46;}.cls-1{opacity:0.6;}.cls-2{fill:#323346;}.cls-3{opacity:0.8;}.cls-5{fill:#323946;}.cls-6{fill:#55a10b;}.cls-14323dsfsd{fill:#64ae46;}.cls-8{fill:#e9ffff;}</style></defs><title>xls</title><g id="Слой_2" data-name="Слой 2"><g id="Слой_1-2" data-name="Слой 1"><path class="cls-1" d="M34.63,42H3.25V2.55H27.4l7.23,7.22Z"/><path class="cls-2" d="M34.63,12.65H24.53V2.55h2.88l7.22,7.22Z"/><path class="cls-3" d="M35.9,40.73H4.52V1.27H28.68L35.9,8.5Z"/><path class="cls-2" d="M35.9,11.37H25.8V1.27h2.88L35.9,8.49Z"/><path class="cls-4" d="M37.18,39.45H5.79V0H30l7.23,7.23Z"/><path class="cls-5" d="M37.18,10.1H27.08V0H30l7.22,7.22Z"/><polygon class="cls-6" points="0 21.13 3.25 28.82 3.25 19.69 0 19.61 0 21.13"/><rect class="cls-14323dsfsd" x="18.22" y="25.45" width="2.52" height="12.73" rx="0.99"/><rect class="cls-14323dsfsd" x="20.01" y="31.63" width="2.52" height="6.99" rx="0.99" transform="translate(31.06 -4.75) rotate(45)"/><rect class="cls-14323dsfsd" x="16.39" y="31.63" width="2.52" height="6.99" rx="0.99" transform="translate(-19.66 22.77) rotate(-45)"/><rect class="cls-14323dsfsd" y="12.12" width="25.45" height="10.82" rx="1.73"/><path class="cls-8" d="M9.92,21.12H8.82L7.07,18.24,5.29,21.12h-1l2.28-3.6L4.32,13.93H5.41l1.72,2.83,1.74-2.83h1L7.66,17.48Z"/><path class="cls-8" d="M14.85,21.12H10.68V13.93h1v6.34h3.21Z"/><path class="cls-8" d="M17.6,21.25a4.7,4.7,0,0,1-1.33-.16,6.67,6.67,0,0,1-1-.4v-1.2h.07a3.28,3.28,0,0,0,1.07.69,3.08,3.08,0,0,0,1.15.24,1.87,1.87,0,0,0,1.2-.33,1.07,1.07,0,0,0,.41-.87,1.12,1.12,0,0,0-.22-.7,1.25,1.25,0,0,0-.67-.4L17.64,18c-.18,0-.41-.09-.69-.17a3.1,3.1,0,0,1-.67-.24,2,2,0,0,1-.52-.39,1.68,1.68,0,0,1-.34-.56,2.08,2.08,0,0,1-.13-.74A1.86,1.86,0,0,1,16,14.4a2.56,2.56,0,0,1,1.74-.6,4.69,4.69,0,0,1,1.14.13,4.53,4.53,0,0,1,1,.34v1.14h-.07a3.23,3.23,0,0,0-.88-.55,2.89,2.89,0,0,0-1.13-.23,1.7,1.7,0,0,0-1.07.31,1,1,0,0,0-.41.82,1.07,1.07,0,0,0,.24.73,1.36,1.36,0,0,0,.7.39l.74.19c.3.07.54.13.73.19a2.07,2.07,0,0,1,1.09.68,1.85,1.85,0,0,1,.34,1.13,2.2,2.2,0,0,1-.17.83,2.08,2.08,0,0,1-.48.7,2.46,2.46,0,0,1-.79.48A3.08,3.08,0,0,1,17.6,21.25Z"/></g></g></svg>