<svg width="17" height="15" viewBox="0 0 17 15" fill="none" xmlns="http://www.w3.org/2000/svg">
<g clip-path="url(#clip0)">
<path d="M16.1589 7.0374C15.9579 6.83635 15.6299 6.83843 15.4289 7.03935L15.2279 7.24236C14.9879 4.7924 13.4769 2.64739 11.2369 1.60735C9.53692 0.819382 7.63391 0.744309 5.87692 1.40239C5.60992 1.50237 5.47491 1.79936 5.57492 2.06633C5.67392 2.33342 5.97192 2.46831 6.23892 2.36931C7.73391 1.81035 9.35492 1.87236 10.8029 2.54436C12.6999 3.42436 13.9749 5.23943 14.1899 7.31133L13.9199 7.04338C13.7179 6.84233 13.3909 6.84331 13.1899 7.04533C12.9889 7.24736 12.9899 7.57341 13.1919 7.77531L14.3139 8.8914C14.4149 8.99138 14.5469 9.04131 14.6779 9.04131C14.8109 9.04131 14.9429 8.9904 15.0439 8.88933L16.1609 7.76738C16.3619 7.56535 16.3609 7.23833 16.1589 7.0374Z" fill="#5B607D"/>
<path d="M10.304 13.4896C8.83105 14.0166 7.23803 13.9446 5.82003 13.2855C3.92203 12.4055 2.64704 10.5906 2.43204 8.51855L2.70203 8.78662C2.90404 8.98755 3.23003 8.98657 3.43204 8.78455C3.63303 8.58362 3.63204 8.25562 3.43004 8.05457L2.30804 6.93762C2.21103 6.84155 2.08004 6.7876 1.94404 6.7876H1.94304C1.80604 6.78857 1.67504 6.84253 1.57804 6.93958L0.461035 8.06152C0.260046 8.26355 0.261038 8.59058 0.463034 8.7915C0.564032 8.89258 0.695044 8.94153 0.827032 8.94153C0.960043 8.94153 1.09203 8.8916 1.19304 8.78955L1.39504 8.58752C1.63404 11.0366 3.14504 13.1826 5.38503 14.2225C6.31502 14.6536 7.30904 14.8706 8.30605 14.8706C9.09603 14.8706 9.88704 14.7346 10.6511 14.4615C10.92 14.3656 11.06 14.0696 10.963 13.8015C10.867 13.5326 10.57 13.3926 10.304 13.4896Z" fill="#5B607D"/>
<path d="M11.1851 10.0024H7.32528V9.14509C7.65222 8.88636 7.94506 8.64174 8.20379 8.41123C8.46488 8.18072 8.69421 7.96198 8.89179 7.75499C9.14817 7.48449 9.33399 7.24693 9.44924 7.0423C9.5645 6.83766 9.62212 6.62715 9.62212 6.41075C9.62212 6.16613 9.54921 5.97914 9.40338 5.84977C9.25754 5.71805 9.05409 5.65219 8.793 5.65219C8.65893 5.65219 8.53191 5.66866 8.41196 5.70159C8.29435 5.73452 8.17439 5.77685 8.05208 5.8286C7.93212 5.8827 7.82981 5.93797 7.74513 5.99442C7.66045 6.05088 7.59695 6.09321 7.55461 6.12144H7.45229V4.97478C7.60047 4.90422 7.83216 4.83248 8.14734 4.75956C8.46253 4.68429 8.76595 4.64666 9.05761 4.64666C9.68093 4.64666 10.1525 4.78543 10.4724 5.06298C10.7947 5.34053 10.9558 5.73099 10.9558 6.23434C10.9558 6.54482 10.8829 6.84942 10.737 7.14814C10.5912 7.44451 10.3489 7.76322 10.0102 8.10428C9.79853 8.31362 9.59272 8.50061 9.39279 8.66526C9.19286 8.82756 9.04821 8.94281 8.95882 9.01102H11.1851V10.0024Z" fill="#5B607D"/>
</g>
<defs>
<clipPath id="clip0">
<rect width="16.0001" height="13.913" fill="white" transform="translate(0.310913 0.95752)"/>
</clipPath>
</defs>
</svg>
