<svg width="9" height="10" viewBox="0 0 9 10" fill="none" xmlns="http://www.w3.org/2000/svg">
<path d="M4.09487 4.95251C4.17687 4.95251 4.25887 4.92151 4.32087 4.85962L7.92987 1.24951C8.05487 1.12561 8.05487 0.923584 7.92987 0.798584C7.80587 0.674561 7.60387 0.674561 7.47987 0.798584L4.09487 4.18359L0.710867 0.798584C0.586874 0.674561 0.384871 0.674561 0.259871 0.798584C0.13587 0.923584 0.13587 1.12561 0.259871 1.24951L3.86987 4.85962C3.93187 4.92151 4.01387 4.95251 4.09487 4.95251Z" fill="#FF931E"/>
<path d="M4.09487 9.19946C4.17687 9.19946 4.25887 9.16846 4.32087 9.10645L7.92987 5.49646C8.05487 5.37244 8.05487 5.17041 7.92987 5.04639C7.80587 4.92139 7.60387 4.92139 7.47987 5.04639L4.09487 8.43042L0.710867 5.04639C0.586874 4.92139 0.384871 4.92139 0.259871 5.04639C0.13587 5.17041 0.13587 5.37244 0.259871 5.49646L3.86987 9.10645C3.93187 9.16846 4.01387 9.19946 4.09487 9.19946Z" fill="#FF931E"/>
</svg>
