<svg width="16" height="16" viewBox="0 0 16 16" fill="none" xmlns="http://www.w3.org/2000/svg">
<path d="M8 15C4.15 15 1 11.85 1 8C1 4.15 4.15 1 8 1C11.85 1 15 4.15 15 8C15 11.85 11.85 15 8 15Z" stroke="#00A73D" stroke-miterlimit="10" stroke-linecap="round" stroke-linejoin="round"/>
<path d="M7.99999 9.19999C7.34999 9.19999 6.79999 8.64999 6.79999 7.99999C6.79999 7.34999 7.34999 6.79999 7.99999 6.79999C8.64999 6.79999 9.19999 7.34999 9.19999 7.99999C9.19999 8.64999 8.64999 9.19999 7.99999 9.19999Z" stroke="#00A73D" stroke-miterlimit="10" stroke-linecap="round" stroke-linejoin="round"/>
<path d="M8 13.25V15" stroke="#00A73D" stroke-miterlimit="10" stroke-linecap="round" stroke-linejoin="round"/>
<path d="M8 1.29999V2.94999" stroke="#00A73D" stroke-miterlimit="10" stroke-linecap="round" stroke-linejoin="round"/>
<path d="M2.90002 8.14999H1.15002" stroke="#00A73D" stroke-miterlimit="10" stroke-linecap="round" stroke-linejoin="round"/>
<path d="M14.85 8.14999H13.2" stroke="#00A73D" stroke-miterlimit="10" stroke-linecap="round" stroke-linejoin="round"/>
<path d="M9.20001 6.80001L11.05 4.95001" stroke="#00A73D" stroke-miterlimit="10" stroke-linecap="round" stroke-linejoin="round"/>
</svg>
