<svg width="1505" height="936" viewBox="0 0 1505 936" fill="none" xmlns="http://www.w3.org/2000/svg">
<path d="M416.36 511.33L318.47 566.24" stroke="#5A5F80" stroke-miterlimit="10"/>
<path d="M603.35 469.03V461.49" stroke="#61647F" stroke-miterlimit="10"/>
<path d="M665.71 549.79H603.58V523.88" stroke="#61647F" stroke-miterlimit="10"/>
<path d="M665.71 785.37H576.81V737.51H654.99" stroke="#61647F" stroke-miterlimit="10"/>
<path d="M654.26 740L658.58 737.51L654.26 735.02V740Z" fill="#61647F"/>
<path d="M721.45 862.62H900.95V831.22H730.41" stroke="#61647F" stroke-miterlimit="10"/>
<path d="M731.14 828.72L726.83 831.22L731.14 833.71V828.72Z" fill="#61647F"/>
<path d="M1 522.49L82.35 522.27" stroke="#282D41" stroke-miterlimit="10"/>
<path d="M81.63 524.76L85.94 522.26L81.61 519.78L81.63 524.76Z" fill="#282D41"/>
<path d="M104.21 540.76C114.3 540.76 122.48 532.58 122.48 522.49C122.48 512.4 114.3 504.22 104.21 504.22C94.1198 504.22 85.94 512.4 85.94 522.49C85.94 532.58 94.1198 540.76 104.21 540.76Z" fill="#191C2B" stroke="#282D41" stroke-miterlimit="10"/>
<path fill-rule="evenodd" clip-rule="evenodd" d="M92.4 522.25L98.2 516.44L110.29 528.53L116.03 522.8" fill="#191C2B"/>
<path d="M92.4 522.25L98.2 516.44L110.29 528.53L116.03 522.8" stroke="#282D41" stroke-miterlimit="10"/>
<path fill-rule="evenodd" clip-rule="evenodd" d="M176.68 472.32V495.7L182.59 505.49V535C182.59 535.796 182.274 536.559 181.711 537.121C181.149 537.684 180.386 538 179.59 538H142.07C141.274 538 140.511 537.684 139.949 537.121C139.386 536.559 139.07 535.796 139.07 535V505.49L145 495.7V472.32L151 466.37H170.75L176.68 472.32Z" stroke="#5C6585" stroke-opacity="0.25" stroke-width="2" stroke-miterlimit="10"/>
<text fill="#282D41" xml:space="preserve" style="white-space: pre" font-family="Tahoma" font-size="10" font-weight="bold" letter-spacing="0em"><tspan x="145.31" y="527.3">&#x41f;-101</tspan></text>
<path d="M184.36 518.94H197.69V547.73H159.75V603.06" stroke="#282D41" stroke-miterlimit="10"/>
<path d="M157.26 602.33L159.75 606.65L162.25 602.33H157.26Z" fill="#282D41"/>
<path d="M721.45 500.8C721.45 485.408 708.972 472.93 693.58 472.93C678.188 472.93 665.71 485.408 665.71 500.8V858.33C665.71 873.722 678.188 886.2 693.58 886.2C708.972 886.2 721.45 873.722 721.45 858.33V500.8Z" stroke="#5A5F80" stroke-width="2" stroke-miterlimit="10"/>
<path d="M240.06 396.9L246.85 392.66C256.031 386.935 266.635 383.9 277.455 383.9C288.275 383.9 298.879 386.935 308.06 392.66L314.86 396.9C315.964 397.59 316.875 398.55 317.506 399.688C318.138 400.827 318.47 402.108 318.47 403.41V583.41L282.09 619.71H272.83L236.45 583.41V403.41C236.45 402.108 236.782 400.827 237.414 399.688C238.045 398.55 238.956 397.59 240.06 396.9Z" stroke="#5A5F80" stroke-width="2" stroke-miterlimit="10"/>
<path d="M237.22 408.75H318.47" stroke="#5A5F80" stroke-width="2" stroke-miterlimit="10"/>
<path d="M281.06 583.12H273.85V619.76H281.06V583.12Z" stroke="#5A5F80" stroke-width="2" stroke-miterlimit="10"/>
<path d="M236.45 575.91V583.12H318.47V575.91H236.45Z" stroke="#5A5F80" stroke-width="2" stroke-miterlimit="10"/>
<text fill="white" xml:space="preserve" style="white-space: pre" font-family="Tahoma" font-size="13" font-weight="bold" letter-spacing="0em"><tspan x="258" y="501.161">P-202</tspan></text>
<text fill="white" xml:space="preserve" style="white-space: pre" font-family="Tahoma" font-size="13" font-weight="bold" letter-spacing="0em"><tspan x="419" y="302.161">P-201</tspan></text>
<text fill="white" xml:space="preserve" style="white-space: pre" font-family="Tahoma" font-size="13" font-weight="bold" letter-spacing="0em"><tspan x="673" y="688.161">&#x41a;-201</tspan></text>
<text fill="white" xml:space="preserve" style="white-space: pre" font-family="Tahoma" font-size="10" font-weight="bold" letter-spacing="0em"><tspan x="828" y="597.97">&#x41a;-202/1</tspan></text>
<text fill="white" xml:space="preserve" style="white-space: pre" font-family="Tahoma" font-size="10" font-weight="bold" letter-spacing="0em"><tspan x="886" y="441.97">&#x426;&#x41a;-301</tspan></text>
<text fill="white" xml:space="preserve" style="white-space: pre" font-family="Tahoma" font-size="10" font-weight="bold" letter-spacing="0em"><tspan x="929" y="258.97">&#x41a;-303/&#x411;</tspan></text>
<text fill="white" xml:space="preserve" style="white-space: pre" font-family="Tahoma" font-size="10" font-weight="bold" letter-spacing="0em"><tspan x="929" y="119.97">&#x41a;-303/&#x410;</tspan></text>
<text fill="white" xml:space="preserve" style="white-space: pre" font-family="Tahoma" font-size="10" font-weight="bold" letter-spacing="0em"><tspan x="686" y="183.97">&#x41a;-304</tspan></text>
<text fill="white" xml:space="preserve" style="white-space: pre" font-family="Tahoma" font-size="10" font-weight="bold" letter-spacing="0em"><tspan x="504" y="183.97">&#x41a;-306</tspan></text>
<text fill="white" xml:space="preserve" style="white-space: pre" font-family="Tahoma" font-size="10" font-weight="bold" letter-spacing="0em"><tspan x="828" y="744.97">&#x41a;-202/2</tspan></text>
<path d="M576.77 514.86C586.86 514.86 595.04 506.68 595.04 496.59C595.04 486.5 586.86 478.32 576.77 478.32C566.68 478.32 558.5 486.5 558.5 496.59C558.5 506.68 566.68 514.86 576.77 514.86Z" stroke="#5A5F80" stroke-miterlimit="10"/>
<path d="M564.96 496.35L570.76 490.55L582.85 502.64L588.59 496.9" stroke="#BEBDDF" stroke-miterlimit="10"/>
<path d="M693.58 472.17V436.24H868.88" stroke="#61647F" stroke-miterlimit="10"/>
<path d="M868.15 438.73L872.47 436.24L868.15 433.75V438.73Z" fill="#61647F"/>
<path d="M438.63 247.62V220.09H487.26V841.94H655.63" stroke="#61647F" stroke-miterlimit="10"/>
<path d="M654.9 844.43L659.22 841.94L654.9 839.44V844.43Z" fill="#61647F"/>
<path d="M599.07 131.85H668.75" stroke="#5A5F80" stroke-miterlimit="10"/>
<path d="M668.02 134.34L672.34 131.85L668.02 129.36V134.34Z" fill="#5A5F80"/>
<path d="M931.06 426.56L876.71 422.78V452.64L931.06 448.85V426.56Z" stroke="#5A5F80" stroke-width="2" stroke-miterlimit="10"/>
<path d="M576.77 805.41C586.86 805.41 595.04 797.23 595.04 787.14C595.04 777.05 586.86 768.87 576.77 768.87C566.68 768.87 558.5 777.05 558.5 787.14C558.5 797.23 566.68 805.41 576.77 805.41Z" fill="#191C2B" stroke="#5A5F80" stroke-miterlimit="10"/>
<path d="M564.96 786.9L570.76 781.09L582.85 793.18L588.59 787.45" stroke="#BEBDDF" stroke-miterlimit="10"/>
<path d="M845.66 502.67H731.04" stroke="#61647F" stroke-miterlimit="10"/>
<path d="M731.77 500.18L727.45 502.67L731.77 505.16V500.18Z" fill="#61647F"/>
<path d="M882.21 502.67L1077.39 502.64V124.99H1008.36V82.3201H983.09" stroke="#61647F" stroke-miterlimit="10"/>
<path d="M983.82 79.8301L979.5 82.3201L983.82 84.8101V79.8301Z" fill="#61647F"/>
<path d="M931.06 436.37H1069.33" stroke="#61647F" stroke-miterlimit="10"/>
<path d="M1068.6 438.86L1072.92 436.37L1068.6 433.88V438.86Z" fill="#61647F"/>
<path d="M1058.92 436.87V400.49H853.81V429.03" stroke="#61647F" stroke-miterlimit="10"/>
<path d="M851.32 428.3L853.81 432.62L856.3 428.3H851.32Z" fill="#61647F"/>
<path d="M808.94 880.29C819.03 880.29 827.21 872.11 827.21 862.02C827.21 851.93 819.03 843.75 808.94 843.75C798.85 843.75 790.67 851.93 790.67 862.02C790.67 872.11 798.85 880.29 808.94 880.29Z" fill="#191C2B" stroke="#5A5F80" stroke-miterlimit="10"/>
<path d="M797.12 861.77L802.92 855.97L815.01 868.06L820.75 862.33" stroke="#BEBDDF" stroke-miterlimit="10"/>
<path d="M824.95 708.26V772.75C824.95 785.994 835.686 796.73 848.93 796.73H848.94C862.184 796.73 872.92 785.994 872.92 772.75V708.26C872.92 695.016 862.184 684.28 848.94 684.28H848.93C835.686 684.28 824.95 695.016 824.95 708.26Z" stroke="#5A5F80" stroke-width="2" stroke-miterlimit="10"/>
<path d="M848.93 796.73V809.04H906.85V777.73H1004.52H1274.86" stroke="#61647F" stroke-miterlimit="10"/>
<path d="M1274.13 780.23L1278.45 777.73L1274.13 775.24V780.23Z" fill="#61647F"/>
<path d="M906.85 796C916.94 796 925.12 787.82 925.12 777.73C925.12 767.64 916.94 759.46 906.85 759.46C896.76 759.46 888.58 767.64 888.58 777.73C888.58 787.82 896.76 796 906.85 796Z" fill="#191C2B" stroke="#5A5F80" stroke-miterlimit="10"/>
<path d="M895.03 777.49L900.84 771.69L912.93 783.78L918.66 778.04" stroke="#BEBDDF" stroke-miterlimit="10"/>
<path d="M736.74 771.69H815.16" stroke="#61647F" stroke-miterlimit="10"/>
<path d="M814.43 774.18L818.75 771.69L814.43 769.2V774.18Z" fill="#61647F"/>
<path d="M576.77 514.87V523.88H630.07V506.26" stroke="#61647F" stroke-miterlimit="10"/>
<path d="M576.77 478.32V469.02H630.07V488.1" stroke="#61647F" stroke-miterlimit="10"/>
<path d="M721.45 703.94H815.16" stroke="#61647F" stroke-miterlimit="10"/>
<path d="M814.43 706.44L818.75 703.94L814.43 701.45V706.44Z" fill="#61647F"/>
<path d="M824.95 562.26V626.75C824.95 639.994 835.686 650.73 848.93 650.73H848.94C862.184 650.73 872.92 639.994 872.92 626.75V562.26C872.92 549.016 862.184 538.28 848.94 538.28H848.93C835.686 538.28 824.95 549.016 824.95 562.26Z" stroke="#5A5F80" stroke-width="2" stroke-miterlimit="10"/>
<path d="M848.93 650.73V664.57H1100.25V683.9H1274.86" stroke="#61647F" stroke-miterlimit="10"/>
<path d="M1274.13 686.39L1278.45 683.9L1274.13 681.4V686.39Z" fill="#61647F"/>
<path d="M906.85 682.84C916.94 682.84 925.12 674.66 925.12 664.57C925.12 654.48 916.94 646.3 906.85 646.3C896.76 646.3 888.58 654.48 888.58 664.57C888.58 674.66 896.76 682.84 906.85 682.84Z" fill="#191C2B" stroke="#5A5F80" stroke-miterlimit="10"/>
<path d="M895.03 664.33L900.84 658.53L912.93 670.62L918.66 664.88" stroke="#BEBDDF" stroke-miterlimit="10"/>
<path d="M736.74 625.69H815.16" stroke="#61647F" stroke-miterlimit="10"/>
<path d="M814.43 628.18L818.75 625.69L814.43 623.2V628.18Z" fill="#61647F"/>
<path d="M977.57 655.49H944.12C942.529 655.49 941.24 656.779 941.24 658.37V670.77C941.24 672.361 942.529 673.65 944.12 673.65H977.57C979.161 673.65 980.45 672.361 980.45 670.77V658.37C980.45 656.779 979.161 655.49 977.57 655.49Z" fill="#191C2B" stroke="#5A5F80" stroke-miterlimit="10"/>
<path d="M954.67 660.31C953.54 660.31 952.457 660.759 951.658 661.558C950.859 662.357 950.41 663.44 950.41 664.57C950.41 665.7 950.859 666.783 951.658 667.582C952.457 668.381 953.54 668.83 954.67 668.83C957.02 668.83 960.85 664.57 960.85 664.57C960.85 664.57 957 660.31 954.67 660.31Z" fill="#191C2B" stroke="#5A5F80" stroke-miterlimit="10"/>
<path d="M967 660.31C964.65 660.31 960.83 664.57 960.83 664.57C960.83 664.57 964.65 668.83 967 668.83C968.13 668.83 969.213 668.381 970.012 667.582C970.811 666.783 971.26 665.7 971.26 664.57C971.26 663.44 970.811 662.357 970.012 661.558C969.213 660.759 968.13 660.31 967 660.31Z" fill="#191C2B" stroke="#5A5F80" stroke-miterlimit="10"/>
<path d="M977.57 768.49H944.12C942.529 768.49 941.24 769.779 941.24 771.37V783.77C941.24 785.361 942.529 786.65 944.12 786.65H977.57C979.161 786.65 980.45 785.361 980.45 783.77V771.37C980.45 769.779 979.161 768.49 977.57 768.49Z" fill="#191C2B" stroke="#5A5F80" stroke-miterlimit="10"/>
<path d="M954.67 773.31C953.54 773.31 952.457 773.759 951.658 774.558C950.859 775.357 950.41 776.44 950.41 777.57C950.41 778.7 950.859 779.783 951.658 780.582C952.457 781.381 953.54 781.83 954.67 781.83C957.02 781.83 960.85 777.57 960.85 777.57C960.85 777.57 957 773.31 954.67 773.31Z" fill="#191C2B" stroke="#5A5F80" stroke-miterlimit="10"/>
<path d="M967 773.31C964.65 773.31 960.83 777.57 960.83 777.57C960.83 777.57 964.65 781.83 967 781.83C968.13 781.83 969.213 781.381 970.012 780.582C970.811 779.783 971.26 778.7 971.26 777.57C971.26 776.44 970.811 775.357 970.012 774.558C969.213 773.759 968.13 773.31 967 773.31Z" fill="#191C2B" stroke="#5A5F80" stroke-miterlimit="10"/>
<path d="M721.45 557.94H815.16" stroke="#61647F" stroke-miterlimit="10"/>
<path d="M814.43 560.44L818.75 557.94L814.43 555.45V560.44Z" fill="#61647F"/>
<path d="M353.28 546.5L355.64 542.64L358 538.78L360.16 542.76L362.32 546.73L357.8 546.62L353.28 546.5Z" fill="#191C2B" stroke="#5A5F80" stroke-miterlimit="10"/>
<path d="M353.08 546.61L350.71 550.47L348.36 554.32L346.19 550.35L344.03 546.38L348.56 546.49L353.08 546.61Z" fill="#191C2B" stroke="#5A5F80" stroke-miterlimit="10"/>
<path d="M433.45 643.18L304.42 597.47" stroke="#5A5F80" stroke-miterlimit="10"/>
<path d="M350.31 614.08L354.77 613.32L359.23 612.55L357.66 616.8L356.1 621.04L353.21 617.56L350.31 614.08Z" fill="#191C2B" stroke="#5A5F80" stroke-miterlimit="10"/>
<path d="M350.1 614L345.64 614.77L341.18 615.53L342.75 611.29L344.32 607.05L347.21 610.53L350.1 614Z" fill="#191C2B" stroke="#5A5F80" stroke-miterlimit="10"/>
<path d="M277.46 857.1V626.83" stroke="#61647F" stroke-miterlimit="10"/>
<path d="M279.95 627.56L277.46 623.24L274.97 627.56H279.95Z" fill="#61647F"/>
<path d="M277.46 383.61V313.98" stroke="#61647F" stroke-miterlimit="10"/>
<path d="M279.95 314.71L277.46 310.39L274.97 314.71H279.95Z" fill="#61647F"/>
<text fill="#5C6585" xml:space="preserve" style="white-space: pre" font-family="Tahoma" font-size="13" letter-spacing="0em"><tspan x="166.19" y="857.161">&#x412;&#x43e;&#x437;&#x434;&#x443;&#x445; &#x43e;&#x442; &#x426;&#x41a;201</tspan></text>
<text fill="#5C6585" xml:space="preserve" style="white-space: pre" font-family="Tahoma" font-size="13" letter-spacing="0em"><tspan x="406" y="857.161">&#x41f;&#x410;&#x420;</tspan></text>
<text fill="#5C6585" xml:space="preserve" style="white-space: pre" font-family="Tahoma" font-size="13" letter-spacing="0em"><tspan x="736" y="766.161">&#x41f;&#x410;&#x420;</tspan></text>
<text fill="#5C6585" xml:space="preserve" style="white-space: pre" font-family="Tahoma" font-size="13" letter-spacing="0em"><tspan x="736" y="825.161">&#x41d;&#x426;&#x41e;</tspan></text>
<text fill="#5C6585" xml:space="preserve" style="white-space: pre" font-family="Tahoma" font-size="13" letter-spacing="0em"><tspan x="736" y="620.161">&#x41f;&#x410;&#x420;</tspan></text>
<text fill="#5C6585" xml:space="preserve" style="white-space: pre" font-family="Tahoma" font-size="13" letter-spacing="0em"><tspan x="619" y="610.161">1 &#x426;&#x41f;&#x41e;</tspan></text>
<text fill="#5C6585" xml:space="preserve" style="white-space: pre" font-family="Tahoma" font-size="13" letter-spacing="0em"><tspan x="627" y="435.161">&#x412;&#x426;&#x41e;</tspan></text>
<text fill="#5C6585" xml:space="preserve" style="white-space: pre" font-family="Tahoma" font-size="13" letter-spacing="0em"><tspan x="619" y="728.161">2 &#x426;&#x41f;&#x41e;</tspan></text>
<text fill="#5C6585" xml:space="preserve" style="white-space: pre" font-family="Tahoma" font-size="13" letter-spacing="0em"><tspan x="287" y="321.161">&#x413;&#x430;&#x437;&#x44b;&#10;</tspan><tspan x="287" y="337.161">&#x440;&#x435;&#x433;&#x435;&#x43d;&#x435;&#x440;&#x430;&#x446;&#x438;&#x438;</tspan></text>
<path d="M438.59 857.1V669.8" stroke="#61647F" stroke-miterlimit="10"/>
<path d="M441.08 670.53L438.59 666.21L436.09 670.53H441.08Z" fill="#61647F"/>
<path d="M665.71 667.37H576.81V619.51H654.99" stroke="#61647F" stroke-miterlimit="10"/>
<path d="M654.26 622L658.58 619.51L654.26 617.02V622Z" fill="#61647F"/>
<path d="M576.77 687.41C586.86 687.41 595.04 679.23 595.04 669.14C595.04 659.05 586.86 650.87 576.77 650.87C566.68 650.87 558.5 659.05 558.5 669.14C558.5 679.23 566.68 687.41 576.77 687.41Z" fill="#191C2B" stroke="#5A5F80" stroke-miterlimit="10"/>
<path d="M564.96 668.9L570.76 663.09L582.85 675.18L588.59 669.45" stroke="#BEBDDF" stroke-miterlimit="10"/>
<path d="M696.74 465.22H738.97V494.73" stroke="#61647F" stroke-miterlimit="10"/>
<path d="M736.47 494L738.97 498.32L741.46 494H736.47Z" fill="#61647F"/>
<path d="M135.58 635.63V722.64C135.58 735.884 146.316 746.62 159.56 746.62H159.57C172.814 746.62 183.55 735.884 183.55 722.64V635.63C183.55 622.386 172.814 611.65 159.57 611.65H159.56C146.316 611.65 135.58 622.386 135.58 635.63Z" fill="#191C2B" stroke="#282D41" stroke-width="2" stroke-miterlimit="10"/>
<text fill="#282D41" xml:space="preserve" style="white-space: pre" font-family="Tahoma" font-size="10" font-weight="bold" letter-spacing="0em"><tspan x="144.58" y="634.84">P-101</tspan></text>
<path d="M183.55 645.72H135.58V712.55H183.55V645.72Z" fill="#191C2B" stroke="#282D41" stroke-width="2" stroke-miterlimit="10"/>
<path d="M145.02 645.91L135.62 655.31" stroke="#282D41" stroke-width="2" stroke-miterlimit="10"/>
<path d="M154.95 645.98L135.59 665.34" stroke="#282D41" stroke-width="2" stroke-miterlimit="10"/>
<path d="M165.28 645.65L135.58 675.35" stroke="#282D41" stroke-width="2" stroke-miterlimit="10"/>
<path d="M175.12 645.81L135.94 684.99" stroke="#282D41" stroke-width="2" stroke-miterlimit="10"/>
<path d="M183.36 647.57L135.12 695.81" stroke="#282D41" stroke-width="2" stroke-miterlimit="10"/>
<path d="M183.41 657.52L135.75 705.18" stroke="#282D41" stroke-width="2" stroke-miterlimit="10"/>
<path d="M183.55 667.38L138.76 712.17" stroke="#282D41" stroke-width="2" stroke-miterlimit="10"/>
<path d="M183.46 677.47L148.48 712.45" stroke="#282D41" stroke-width="2" stroke-miterlimit="10"/>
<path d="M183.51 687.42L158.48 712.45" stroke="#282D41" stroke-width="2" stroke-miterlimit="10"/>
<path d="M183.55 697.38L168.38 712.55" stroke="#282D41" stroke-width="2" stroke-miterlimit="10"/>
<path d="M183.55 707.38L178.55 712.38" stroke="#282D41" stroke-width="2" stroke-miterlimit="10"/>
<path d="M408.11 414.11C405.328 414.11 402.66 413.005 400.692 411.038C398.725 409.07 397.62 406.402 397.62 403.62V271.18C397.619 269.721 397.951 268.28 398.591 266.969C399.23 265.657 400.16 264.508 401.31 263.61L406.72 259.4C415.837 252.29 427.068 248.428 438.63 248.428C450.192 248.428 461.423 252.29 470.54 259.4L475.94 263.61C477.093 264.506 478.026 265.654 478.667 266.966C479.308 268.278 479.641 269.72 479.64 271.18V403.62C479.64 406.402 478.535 409.07 476.568 411.038C474.6 413.005 471.932 414.11 469.15 414.11V414.11" stroke="#5A5F80" stroke-width="2" stroke-miterlimit="10"/>
<path d="M468.51 472.23H408.75V506.44L438.63 525.63L468.51 506.44V472.23Z" stroke="#5A5F80" stroke-width="2" stroke-miterlimit="10"/>
<path d="M468.5 414.11H408.75V425.78H468.5V414.11Z" stroke="#5A5F80" stroke-width="2" stroke-miterlimit="10"/>
<path d="M468.5 425.78H408.75V437.45H468.5V425.78Z" stroke="#5A5F80" stroke-width="2" stroke-miterlimit="10"/>
<path d="M468.5 437.45H408.75V449.12H468.5V437.45Z" stroke="#5A5F80" stroke-width="2" stroke-miterlimit="10"/>
<path d="M468.5 448.89H408.75V460.56H468.5V448.89Z" stroke="#5A5F80" stroke-width="2" stroke-miterlimit="10"/>
<path d="M468.5 460.56H408.75V472.23H468.5V460.56Z" stroke="#5A5F80" stroke-width="2" stroke-miterlimit="10"/>
<path d="M433.45 333.19H443.81V654.71L438.63 661.71L433.45 654.71V333.19Z" fill="#191C2B" stroke="#5A5F80" stroke-width="2" stroke-miterlimit="10"/>
<path d="M443.81 654.03H433.45" stroke="#5A5F80" stroke-width="2" stroke-miterlimit="10"/>
<path d="M419.21 414.48L409.04 424.64" stroke="#5A5F80" stroke-width="2" stroke-miterlimit="10"/>
<path d="M429.56 414.12L408.57 435.11" stroke="#5A5F80" stroke-width="2" stroke-miterlimit="10"/>
<path d="M433.32 420.36L408.93 444.75" stroke="#5A5F80" stroke-width="2" stroke-miterlimit="10"/>
<path d="M449.53 414.15L443.74 419.94" stroke="#5A5F80" stroke-width="2" stroke-miterlimit="10"/>
<path d="M433.37 430.31L408.57 455.11" stroke="#5A5F80" stroke-width="2" stroke-miterlimit="10"/>
<path d="M459.62 414.06L443.85 429.83" stroke="#5A5F80" stroke-width="2" stroke-miterlimit="10"/>
<path d="M433.11 440.57L408.75 464.93" stroke="#5A5F80" stroke-width="2" stroke-miterlimit="10"/>
<path d="M468.51 415.18L443.81 439.87" stroke="#5A5F80" stroke-width="2" stroke-miterlimit="10"/>
<path d="M433.09 450.59L411.45 472.23" stroke="#5A5F80" stroke-width="2" stroke-miterlimit="10"/>
<path d="M468.21 425.48L443.89 449.8" stroke="#5A5F80" stroke-width="2" stroke-miterlimit="10"/>
<path d="M433.32 460.36L422.01 471.67" stroke="#5A5F80" stroke-width="2" stroke-miterlimit="10"/>
<path d="M468.13 435.55L443.89 459.8" stroke="#5A5F80" stroke-width="2" stroke-miterlimit="10"/>
<path d="M433.25 470.43L431.12 472.56" stroke="#5A5F80" stroke-width="2" stroke-miterlimit="10"/>
<path d="M468.93 444.75L443.89 469.8" stroke="#5A5F80" stroke-width="2" stroke-miterlimit="10"/>
<path d="M468.34 455.34L451.12 472.56" stroke="#5A5F80" stroke-width="2" stroke-miterlimit="10"/>
<path d="M468.51 465.18L461.45 472.23" stroke="#5A5F80" stroke-width="2" stroke-miterlimit="10"/>
<path d="M122.48 522.49H138.67" stroke="#282D41" stroke-miterlimit="10"/>
<path d="M159.57 746.62V819.22H104.21V549.35" stroke="#282D41" stroke-miterlimit="10"/>
<path d="M106.7 550.08L104.21 545.76L101.72 550.08H106.7Z" fill="#282D41"/>
<path d="M104.21 504.21V389.51H218.06V681.48H271.33" stroke="#61647F" stroke-miterlimit="10"/>
<path d="M283.06 681.48H433.58" stroke="#61647F" stroke-miterlimit="10"/>
<path d="M468.71 681.48H477.61V625.94H455.32" stroke="#61647F" stroke-miterlimit="10"/>
<path d="M456.05 623.45L451.73 625.94L456.05 628.43V623.45Z" fill="#61647F"/>
<path d="M442.81 681.48H460.71" stroke="#61647F" stroke-miterlimit="10"/>
<path d="M701.72 256.79V264.84H743.01V79.49" stroke="#61647F" stroke-miterlimit="10"/>
<path d="M739.41 180.49H733.1" stroke="#61647F" stroke-miterlimit="10"/>
<path d="M733.83 178L729.51 180.49L733.83 182.99V178Z" fill="#61647F"/>
<path d="M746.35 61.21H919.08" stroke="#5A5F80" stroke-miterlimit="10"/>
<path d="M918.35 63.7L922.67 61.21L918.35 58.72V63.7Z" fill="#5A5F80"/>
<path d="M926.47 145.97H754.61V170.99H919.08" stroke="#61647F" stroke-miterlimit="10"/>
<path d="M918.35 173.48L922.67 170.99L918.35 168.5V173.48Z" fill="#61647F"/>
<path d="M701.49 99.25V89.21H660.32H599.05V180.49H551.03" stroke="#61647F" stroke-miterlimit="10"/>
<path d="M551.76 178L547.45 180.49L551.76 182.99V178Z" fill="#61647F"/>
<path d="M926.47 90.46H754.61V115.91H919.89" stroke="#61647F" stroke-miterlimit="10"/>
<path d="M919.16 118.41L923.47 115.91L919.16 113.42V118.41Z" fill="#61647F"/>
<path d="M836.73 108.73C846.82 108.73 855 100.55 855 90.4599C855 80.3697 846.82 72.1899 836.73 72.1899C826.64 72.1899 818.46 80.3697 818.46 90.4599C818.46 100.55 826.64 108.73 836.73 108.73Z" fill="#191C2B" stroke="#5A5F80" stroke-miterlimit="10"/>
<path d="M824.91 90.22L830.72 84.41L842.81 96.5L848.54 90.77" stroke="#BEBDDF" stroke-miterlimit="10"/>
<path d="M951.46 305.89V314.76H771.3V180.49H747.74" stroke="#61647F" stroke-miterlimit="10"/>
<path d="M1027.4 375.83H701.72V264.84" stroke="#61647F" stroke-miterlimit="10"/>
<path d="M562.05 22.76V130.46H552.03" stroke="#61647F" stroke-miterlimit="10"/>
<path d="M552.76 127.97L548.45 130.46L552.76 132.96V127.97Z" fill="#61647F"/>
<path d="M836.73 164.73C846.82 164.73 855 156.55 855 146.46C855 136.37 846.82 128.19 836.73 128.19C826.64 128.19 818.46 136.37 818.46 146.46C818.46 156.55 826.64 164.73 836.73 164.73Z" fill="#191C2B" stroke="#5A5F80" stroke-miterlimit="10"/>
<path d="M824.91 146.22L830.72 140.41L842.81 152.5L848.54 146.77" stroke="#BEBDDF" stroke-miterlimit="10"/>
<path d="M519.49 100.25V21.5801H640.14H1162.89V30.0501" stroke="#61647F" stroke-miterlimit="10"/>
<path d="M926.47 227.39C926.486 221.03 929.019 214.934 933.517 210.437C938.014 205.94 944.11 203.406 950.47 203.39V203.39C956.835 203.39 962.94 205.919 967.441 210.419C971.941 214.92 974.47 221.025 974.47 227.39" stroke="#5A5F80" stroke-width="2" stroke-miterlimit="10" stroke-linecap="round" stroke-dasharray="2 4"/>
<path d="M974.44 164.43C974.44 170.795 971.911 176.9 967.411 181.4C962.91 185.901 956.805 188.43 950.44 188.43C944.08 188.414 937.984 185.88 933.487 181.383C928.989 176.886 926.456 170.79 926.44 164.43" stroke="#5A5F80" stroke-width="2" stroke-miterlimit="10" stroke-linecap="round" stroke-dasharray="2 4"/>
<path d="M926.47 66.9301V281.91C926.47 295.154 937.206 305.89 950.45 305.89H950.46C963.704 305.89 974.44 295.154 974.44 281.91V66.9301C974.44 53.6863 963.704 42.95 950.46 42.95H950.45C937.206 42.95 926.47 53.6863 926.47 66.9301Z" stroke="#5A5F80" stroke-width="2" stroke-miterlimit="10"/>
<path d="M677.5 124.23V233.44C677.5 246.684 688.236 257.42 701.48 257.42H701.49C714.734 257.42 725.47 246.684 725.47 233.44V124.23C725.47 110.986 714.734 100.25 701.49 100.25H701.48C688.236 100.25 677.5 110.986 677.5 124.23Z" stroke="#5A5F80" stroke-width="2" stroke-miterlimit="10"/>
<path d="M495.5 124.23V233.44C495.5 246.684 506.236 257.42 519.48 257.42H519.49C532.734 257.42 543.47 246.684 543.47 233.44V124.23C543.47 110.986 532.734 100.25 519.49 100.25H519.48C506.236 100.25 495.5 110.986 495.5 124.23Z" stroke="#5A5F80" stroke-width="2" stroke-miterlimit="10"/>
<path d="M1060.57 232.67H983.39" stroke="#61647F" stroke-miterlimit="10"/>
<path d="M984.12 230.18L979.8 232.67L984.12 235.16V230.18Z" fill="#61647F"/>
<path d="M836.85 502.9V436.24" stroke="#61647F" stroke-miterlimit="10"/>
<path d="M621.62 443.22H659.47V465.22H690.77" stroke="#61647F" stroke-miterlimit="10"/>
<path d="M978.85 197.74H993.98" stroke="#5A5F80" stroke-miterlimit="10"/>
<path d="M950.46 203.41V197.74H969.95" stroke="#5A5F80" stroke-miterlimit="10"/>
<path d="M978.85 193.53H985.17V181.88H1041.74V197.74" stroke="#5A5F80" stroke-miterlimit="10"/>
<path d="M950.46 188.41V193.53H969.95" stroke="#5A5F80" stroke-miterlimit="10"/>
<path d="M1031.58 400.49V271.07H1063.93V163.99H983.09" stroke="#61647F" stroke-miterlimit="10"/>
<path d="M983.82 161.5L979.5 163.99L983.82 166.48V161.5Z" fill="#61647F"/>
<path d="M1033.36 197.74H1050.12V226.08" stroke="#5A5F80" stroke-miterlimit="10"/>
<path d="M1047.63 225.35L1050.12 229.67L1052.61 225.35H1047.63Z" fill="#5A5F80"/>
<path d="M1066.78 232.67H1076.93" stroke="#5A5F80" stroke-miterlimit="10"/>
<path d="M950.46 42.9501V34.5801H1177.6V201.62H1274.86" stroke="#61647F" stroke-miterlimit="10"/>
<path d="M1274.13 204.12L1278.45 201.62L1274.13 199.13V204.12Z" fill="#61647F"/>
<path d="M1162.89 39.55V297.9H1274.86" stroke="#61647F" stroke-miterlimit="10"/>
<path d="M1274.13 300.39L1278.45 297.9L1274.13 295.41V300.39Z" fill="#61647F"/>
<path d="M1081.78 328.27H1131.39V397.44H1274.86" stroke="#61647F" stroke-miterlimit="10"/>
<path d="M1274.13 399.94L1278.45 397.44L1274.13 394.95V399.94Z" fill="#61647F"/>
<path d="M1035.4 328.27H1072.78" stroke="#61647F" stroke-miterlimit="10"/>
<path d="M1035.4 352.05H1072.78" stroke="#61647F" stroke-miterlimit="10"/>
<path d="M1035.4 375.83H1072.78" stroke="#61647F" stroke-miterlimit="10"/>
<path d="M705.58 328.27H1027.4" stroke="#61647F" stroke-miterlimit="10"/>
<path d="M667.29 328.27H697.58" stroke="#61647F" stroke-miterlimit="10"/>
<path d="M519.49 257.41V328.27H659.29" stroke="#61647F" stroke-miterlimit="10"/>
<path d="M1081.78 352.05H1116.9V492.52H1274.86" stroke="#61647F" stroke-miterlimit="10"/>
<path d="M1274.13 495.01L1278.45 492.52L1274.13 490.03V495.01Z" fill="#61647F"/>
<path d="M705.74 352.05H1027.4" stroke="#61647F" stroke-miterlimit="10"/>
<path d="M677.5 215.71H662.91L663.13 352.05H697.8" stroke="#61647F" stroke-miterlimit="10"/>
<path d="M1081.78 375.83H1100.81V587.7H1274.86" stroke="#61647F" stroke-miterlimit="10"/>
<path d="M1274.13 590.2L1278.45 587.7L1274.13 585.21V590.2Z" fill="#61647F"/>
<path d="M693.58 886.19V934.93H464.98V661.71H447.33" stroke="#61647F" stroke-miterlimit="10"/>
<path d="M448.06 659.22L443.74 661.71L448.06 664.21V659.22Z" fill="#61647F"/>
<path d="M693.58 934.93H919.75V870.8H1274.86" stroke="#61647F" stroke-miterlimit="10"/>
<path d="M1274.13 873.29L1278.45 870.8L1274.13 868.31V873.29Z" fill="#61647F"/>
<path d="M567.19 12.5H533.74C532.149 12.5 530.86 13.7894 530.86 15.38V27.78C530.86 29.3706 532.149 30.66 533.74 30.66H567.19C568.781 30.66 570.07 29.3706 570.07 27.78V15.38C570.07 13.7894 568.781 12.5 567.19 12.5Z" fill="#191C2B" stroke="#5A5F80" stroke-miterlimit="10"/>
<path d="M544.28 17.3201C543.721 17.3201 543.167 17.4303 542.65 17.6443C542.133 17.8584 541.663 18.1722 541.268 18.5678C540.872 18.9634 540.558 19.433 540.344 19.9498C540.13 20.4667 540.02 21.0206 540.02 21.5801C540.02 22.1395 540.13 22.6935 540.344 23.2103C540.558 23.7271 540.872 24.1968 541.268 24.5923C541.663 24.9879 542.133 25.3017 542.65 25.5158C543.167 25.7299 543.721 25.8401 544.28 25.8401C546.64 25.8401 550.46 21.5801 550.46 21.5801C550.46 21.5801 546.64 17.3201 544.28 17.3201Z" fill="#191C2B" stroke="#5A5F80" stroke-miterlimit="10"/>
<path d="M556.64 17.3201C554.29 17.3201 550.46 21.5801 550.46 21.5801C550.46 21.5801 554.29 25.8401 556.64 25.8401C557.77 25.8401 558.853 25.3912 559.652 24.5923C560.451 23.7934 560.9 22.7099 560.9 21.5801C560.9 20.4502 560.451 19.3667 559.652 18.5678C558.853 17.7689 557.77 17.3201 556.64 17.3201Z" fill="#191C2B" stroke="#5A5F80" stroke-miterlimit="10"/>
<path d="M615.8 79.8201H582.35C580.759 79.8201 579.47 81.1095 579.47 82.7001V95.1001C579.47 96.6906 580.759 97.9801 582.35 97.9801H615.8C617.391 97.9801 618.68 96.6906 618.68 95.1001V82.7001C618.68 81.1095 617.391 79.8201 615.8 79.8201Z" fill="#191C2B" stroke="#5A5F80" stroke-miterlimit="10"/>
<path d="M592.89 84.64C591.76 84.64 590.677 85.0888 589.878 85.8877C589.079 86.6866 588.63 87.7702 588.63 88.9C588.63 90.0298 589.079 91.1134 589.878 91.9123C590.677 92.7112 591.76 93.16 592.89 93.16C595.25 93.16 599.07 88.9 599.07 88.9C599.07 88.9 595.25 84.64 592.89 84.64Z" fill="#191C2B" stroke="#5A5F80" stroke-miterlimit="10"/>
<path d="M605.25 84.64C602.9 84.64 599.07 88.9 599.07 88.9C599.07 88.9 602.9 93.16 605.25 93.16C606.38 93.16 607.463 92.7112 608.262 91.9123C609.061 91.1134 609.51 90.0298 609.51 88.9C609.51 87.7702 609.061 86.6866 608.262 85.8877C607.463 85.0888 606.38 84.64 605.25 84.64Z" fill="#191C2B" stroke="#5A5F80" stroke-miterlimit="10"/>
<path d="M1025.09 115.63H991.64C990.049 115.63 988.76 116.919 988.76 118.51V130.91C988.76 132.501 990.049 133.79 991.64 133.79H1025.09C1026.68 133.79 1027.97 132.501 1027.97 130.91V118.51C1027.97 116.919 1026.68 115.63 1025.09 115.63Z" fill="#191C2B" stroke="#5A5F80" stroke-miterlimit="10"/>
<path d="M1002.18 120.45C1001.05 120.45 999.967 120.899 999.168 121.698C998.369 122.497 997.92 123.58 997.92 124.71C997.92 125.84 998.369 126.923 999.168 127.722C999.967 128.521 1001.05 128.97 1002.18 128.97C1004.53 128.97 1008.36 124.71 1008.36 124.71C1008.36 124.71 1004.53 120.45 1002.18 120.45Z" fill="#191C2B" stroke="#5A5F80" stroke-miterlimit="10"/>
<path d="M1014.54 120.45C1012.18 120.45 1008.36 124.71 1008.36 124.71C1008.36 124.71 1012.18 128.97 1014.54 128.97C1015.67 128.97 1016.75 128.521 1017.55 127.722C1018.35 126.923 1018.8 125.84 1018.8 124.71C1018.8 123.58 1018.35 122.497 1017.55 121.698C1016.75 120.899 1015.67 120.45 1014.54 120.45Z" fill="#191C2B" stroke="#5A5F80" stroke-miterlimit="10"/>
<path d="M1030.31 188.66H996.86C995.269 188.66 993.98 189.949 993.98 191.54V203.94C993.98 205.531 995.269 206.82 996.86 206.82H1030.31C1031.9 206.82 1033.19 205.531 1033.19 203.94V191.54C1033.19 189.949 1031.9 188.66 1030.31 188.66Z" fill="#191C2B" stroke="#5A5F80" stroke-miterlimit="10"/>
<path d="M1007.4 193.47C1006.3 193.523 1005.27 193.996 1004.52 194.79C1003.76 195.584 1003.34 196.638 1003.34 197.735C1003.34 198.832 1003.76 199.886 1004.52 200.68C1005.27 201.474 1006.3 201.947 1007.4 202C1009.75 202 1013.58 197.74 1013.58 197.74C1013.58 197.74 1009.75 193.47 1007.4 193.47Z" fill="#191C2B" stroke="#5A5F80" stroke-miterlimit="10"/>
<path d="M1019.76 193.47C1017.4 193.47 1013.58 197.74 1013.58 197.74C1013.58 197.74 1017.4 202 1019.76 202C1020.86 201.947 1021.89 201.474 1022.65 200.68C1023.4 199.886 1023.82 198.832 1023.82 197.735C1023.82 196.638 1023.4 195.584 1022.65 194.79C1021.89 193.996 1020.86 193.523 1019.76 193.47Z" fill="#191C2B" stroke="#5A5F80" stroke-miterlimit="10"/>
<path d="M1006.58 319.19H973.13C971.539 319.19 970.25 320.479 970.25 322.07V334.47C970.25 336.061 971.539 337.35 973.13 337.35H1006.58C1008.17 337.35 1009.46 336.061 1009.46 334.47V322.07C1009.46 320.479 1008.17 319.19 1006.58 319.19Z" fill="#191C2B" stroke="#5A5F80" stroke-miterlimit="10"/>
<path d="M983.67 324C982.54 324 981.457 324.449 980.658 325.248C979.859 326.047 979.41 327.13 979.41 328.26C979.41 329.39 979.859 330.473 980.658 331.272C981.457 332.071 982.54 332.52 983.67 332.52C986.03 332.52 989.85 328.26 989.85 328.26C989.85 328.26 986 324 983.67 324Z" fill="#191C2B" stroke="#5A5F80" stroke-miterlimit="10"/>
<path d="M996 324C993.65 324 989.82 328.26 989.82 328.26C989.82 328.26 993.65 332.52 996 332.52C997.13 332.52 998.213 332.071 999.012 331.272C999.811 330.473 1000.26 329.39 1000.26 328.26C1000.26 327.13 999.811 326.047 999.012 325.248C998.213 324.449 997.13 324 996 324Z" fill="#191C2B" stroke="#5A5F80" stroke-miterlimit="10"/>
<path d="M1006.58 343.19H973.13C971.539 343.19 970.25 344.479 970.25 346.07V358.47C970.25 360.061 971.539 361.35 973.13 361.35H1006.58C1008.17 361.35 1009.46 360.061 1009.46 358.47V346.07C1009.46 344.479 1008.17 343.19 1006.58 343.19Z" fill="#191C2B" stroke="#5A5F80" stroke-miterlimit="10"/>
<path d="M983.67 348C982.54 348 981.457 348.449 980.658 349.248C979.859 350.047 979.41 351.13 979.41 352.26C979.41 353.39 979.859 354.473 980.658 355.272C981.457 356.071 982.54 356.52 983.67 356.52C986.03 356.52 989.85 352.26 989.85 352.26C989.85 352.26 986 348 983.67 348Z" fill="#191C2B" stroke="#5A5F80" stroke-miterlimit="10"/>
<path d="M996 348C993.65 348 989.82 352.26 989.82 352.26C989.82 352.26 993.65 356.52 996 356.52C997.13 356.52 998.213 356.071 999.012 355.272C999.811 354.473 1000.26 353.39 1000.26 352.26C1000.26 351.13 999.811 350.047 999.012 349.248C998.213 348.449 997.13 348 996 348Z" fill="#191C2B" stroke="#5A5F80" stroke-miterlimit="10"/>
<path d="M1006.58 367.19H973.13C971.539 367.19 970.25 368.479 970.25 370.07V382.47C970.25 384.061 971.539 385.35 973.13 385.35H1006.58C1008.17 385.35 1009.46 384.061 1009.46 382.47V370.07C1009.46 368.479 1008.17 367.19 1006.58 367.19Z" fill="#191C2B" stroke="#5A5F80" stroke-miterlimit="10"/>
<path d="M983.67 372C982.54 372 981.457 372.449 980.658 373.248C979.859 374.047 979.41 375.13 979.41 376.26C979.41 377.39 979.859 378.473 980.658 379.272C981.457 380.071 982.54 380.52 983.67 380.52C986.03 380.52 989.85 376.26 989.85 376.26C989.85 376.26 986 372 983.67 372Z" fill="#191C2B" stroke="#5A5F80" stroke-miterlimit="10"/>
<path d="M996 372C993.65 372 989.82 376.26 989.82 376.26C989.82 376.26 993.65 380.52 996 380.52C997.13 380.52 998.213 380.071 999.012 379.272C999.811 378.473 1000.26 377.39 1000.26 376.26C1000.26 375.13 999.811 374.047 999.012 373.248C998.213 372.449 997.13 372 996 372Z" fill="#191C2B" stroke="#5A5F80" stroke-miterlimit="10"/>
<path d="M1044.78 427.29H1011.33C1009.74 427.29 1008.45 428.579 1008.45 430.17V442.57C1008.45 444.161 1009.74 445.45 1011.33 445.45H1044.78C1046.37 445.45 1047.66 444.161 1047.66 442.57V430.17C1047.66 428.579 1046.37 427.29 1044.78 427.29Z" fill="#191C2B" stroke="#5A5F80" stroke-miterlimit="10"/>
<path d="M1021.88 432.11C1020.75 432.11 1019.67 432.559 1018.87 433.358C1018.07 434.157 1017.62 435.24 1017.62 436.37C1017.62 437.5 1018.07 438.583 1018.87 439.382C1019.67 440.181 1020.75 440.63 1021.88 440.63C1024.23 440.63 1028.06 436.37 1028.06 436.37C1028.06 436.37 1024.23 432.11 1021.88 432.11Z" fill="#191C2B" stroke="#5A5F80" stroke-miterlimit="10"/>
<path d="M1034.24 432.11C1031.88 432.11 1028.06 436.37 1028.06 436.37C1028.06 436.37 1031.88 440.63 1034.24 440.63C1035.37 440.63 1036.45 440.181 1037.25 439.382C1038.05 438.583 1038.5 437.5 1038.5 436.37C1038.5 435.24 1038.05 434.157 1037.25 433.358C1036.45 432.559 1035.37 432.11 1034.24 432.11Z" fill="#191C2B" stroke="#5A5F80" stroke-miterlimit="10"/>
<path d="M761.8 426.58H728.35C726.759 426.58 725.47 427.869 725.47 429.46V441.86C725.47 443.451 726.759 444.74 728.35 444.74H761.8C763.391 444.74 764.68 443.451 764.68 441.86V429.46C764.68 427.869 763.391 426.58 761.8 426.58Z" fill="#191C2B" stroke="#5A5F80" stroke-miterlimit="10"/>
<path d="M738.89 431.4C738.331 431.4 737.777 431.51 737.26 431.724C736.743 431.938 736.273 432.252 735.878 432.648C735.482 433.043 735.168 433.513 734.954 434.03C734.74 434.547 734.63 435.101 734.63 435.66C734.63 436.219 734.74 436.773 734.954 437.29C735.168 437.807 735.482 438.277 735.878 438.672C736.273 439.068 736.743 439.382 737.26 439.596C737.777 439.81 738.331 439.92 738.89 439.92C741.25 439.92 745.07 435.66 745.07 435.66C745.07 435.66 741.25 431.4 738.89 431.4Z" fill="#191C2B" stroke="#5A5F80" stroke-miterlimit="10"/>
<path d="M751.25 431.4C748.9 431.4 745.07 435.66 745.07 435.66C745.07 435.66 748.9 439.92 751.25 439.92C752.38 439.92 753.463 439.471 754.262 438.672C755.061 437.873 755.51 436.79 755.51 435.66C755.51 434.53 755.061 433.447 754.262 432.648C753.463 431.849 752.38 431.4 751.25 431.4Z" fill="#191C2B" stroke="#5A5F80" stroke-miterlimit="10"/>
<path d="M646.8 487.51H613.35C611.759 487.51 610.47 488.799 610.47 490.39V502.79C610.47 504.381 611.759 505.67 613.35 505.67H646.8C648.391 505.67 649.68 504.381 649.68 502.79V490.39C649.68 488.799 648.391 487.51 646.8 487.51Z" fill="#191C2B" stroke="#5A5F80" stroke-miterlimit="10"/>
<path d="M623.89 492.33C622.76 492.33 621.677 492.779 620.878 493.578C620.079 494.377 619.63 495.46 619.63 496.59C619.63 497.72 620.079 498.803 620.878 499.602C621.677 500.401 622.76 500.85 623.89 500.85C626.25 500.85 630.07 496.59 630.07 496.59C630.07 496.59 626.25 492.33 623.89 492.33Z" fill="#191C2B" stroke="#5A5F80" stroke-miterlimit="10"/>
<path d="M636.25 492.33C633.89 492.33 630.07 496.59 630.07 496.59C630.07 496.59 633.89 500.85 636.25 500.85C637.38 500.85 638.463 500.401 639.262 499.602C640.061 498.803 640.51 497.72 640.51 496.59C640.51 495.46 640.061 494.377 639.262 493.578C638.463 492.779 637.38 492.33 636.25 492.33Z" fill="#191C2B" stroke="#5A5F80" stroke-miterlimit="10"/>
<path d="M977.57 861.49H944.12C942.529 861.49 941.24 862.779 941.24 864.37V876.77C941.24 878.361 942.529 879.65 944.12 879.65H977.57C979.161 879.65 980.45 878.361 980.45 876.77V864.37C980.45 862.779 979.161 861.49 977.57 861.49Z" fill="#191C2B" stroke="#5A5F80" stroke-miterlimit="10"/>
<path d="M954.67 866.31C953.54 866.31 952.457 866.759 951.658 867.558C950.859 868.357 950.41 869.44 950.41 870.57C950.41 871.7 950.859 872.783 951.658 873.582C952.457 874.381 953.54 874.83 954.67 874.83C957.02 874.83 960.85 870.57 960.85 870.57C960.85 870.57 957 866.31 954.67 866.31Z" fill="#191C2B" stroke="#5A5F80" stroke-miterlimit="10"/>
<path d="M967 866.31C964.65 866.31 960.83 870.57 960.83 870.57C960.83 870.57 964.65 874.83 967 874.83C968.13 874.83 969.213 874.381 970.012 873.582C970.811 872.783 971.26 871.7 971.26 870.57C971.26 869.44 970.811 868.357 970.012 867.558C969.213 866.759 968.13 866.31 967 866.31Z" fill="#191C2B" stroke="#5A5F80" stroke-miterlimit="10"/>
<circle cx="277" cy="807" r="17.5" fill="#191C2B" stroke="#0089FF"/>
<text fill="#D7E2F2" xml:space="preserve" style="white-space: pre" font-family="Tahoma" font-size="10" letter-spacing="0em"><tspan x="264.568" y="805.97">224.9</tspan></text>
<text fill="#5B607D" xml:space="preserve" style="white-space: pre" font-family="Tahoma" font-size="10" letter-spacing="0em"><tspan x="266.712" y="815.97">&#x43c;&#xb3;/&#x447;</tspan></text>
<circle cx="385" cy="627" r="17.5" fill="#191C2B" stroke="#0089FF"/>
<text fill="#D7E2F2" xml:space="preserve" style="white-space: pre" font-family="Tahoma" font-size="10" letter-spacing="0em"><tspan x="372.568" y="625.97">224.9</tspan></text>
<text fill="#5B607D" xml:space="preserve" style="white-space: pre" font-family="Tahoma" font-size="10" letter-spacing="0em"><tspan x="374.712" y="635.97">&#x43c;&#xb3;/&#x447;</tspan></text>
<circle cx="438" cy="806" r="17.5" fill="#191C2B" stroke="#0089FF"/>
<text fill="#D7E2F2" xml:space="preserve" style="white-space: pre" font-family="Tahoma" font-size="10" letter-spacing="0em"><tspan x="425.568" y="804.97">224.9</tspan></text>
<text fill="#5B607D" xml:space="preserve" style="white-space: pre" font-family="Tahoma" font-size="10" letter-spacing="0em"><tspan x="427.712" y="814.97">&#x43c;&#xb3;/&#x447;</tspan></text>
<circle cx="465" cy="898" r="17.5" fill="#191C2B" stroke="#0089FF"/>
<text fill="#D7E2F2" xml:space="preserve" style="white-space: pre" font-family="Tahoma" font-size="10" letter-spacing="0em"><tspan x="452.568" y="896.97">224.9</tspan></text>
<text fill="#5B607D" xml:space="preserve" style="white-space: pre" font-family="Tahoma" font-size="10" letter-spacing="0em"><tspan x="454.712" y="906.97">&#x43c;&#xb3;/&#x447;</tspan></text>
<circle cx="627" cy="786" r="17.5" fill="#191C2B" stroke="#0089FF"/>
<text fill="#D7E2F2" xml:space="preserve" style="white-space: pre" font-family="Tahoma" font-size="10" letter-spacing="0em"><tspan x="614.568" y="784.97">224.9</tspan></text>
<text fill="#5B607D" xml:space="preserve" style="white-space: pre" font-family="Tahoma" font-size="10" letter-spacing="0em"><tspan x="616.712" y="794.97">&#x43c;&#xb3;/&#x447;</tspan></text>
<circle cx="862" cy="863" r="17.5" fill="#191C2B" stroke="#0089FF"/>
<text fill="#D7E2F2" xml:space="preserve" style="white-space: pre" font-family="Tahoma" font-size="10" letter-spacing="0em"><tspan x="849.568" y="861.97">224.9</tspan></text>
<text fill="#5B607D" xml:space="preserve" style="white-space: pre" font-family="Tahoma" font-size="10" letter-spacing="0em"><tspan x="851.712" y="871.97">&#x43c;&#xb3;/&#x447;</tspan></text>
<circle cx="1216" cy="871" r="17.5" fill="#191C2B" stroke="#0089FF"/>
<text fill="#D7E2F2" xml:space="preserve" style="white-space: pre" font-family="Tahoma" font-size="10" letter-spacing="0em"><tspan x="1203.57" y="869.97">224.9</tspan></text>
<text fill="#5B607D" xml:space="preserve" style="white-space: pre" font-family="Tahoma" font-size="10" letter-spacing="0em"><tspan x="1205.71" y="879.97">&#x43c;&#xb3;/&#x447;</tspan></text>
<circle cx="1216" cy="778" r="17.5" fill="#191C2B" stroke="#0089FF"/>
<text fill="#D7E2F2" xml:space="preserve" style="white-space: pre" font-family="Tahoma" font-size="10" letter-spacing="0em"><tspan x="1203.57" y="776.97">224.9</tspan></text>
<text fill="#5B607D" xml:space="preserve" style="white-space: pre" font-family="Tahoma" font-size="10" letter-spacing="0em"><tspan x="1205.71" y="786.97">&#x43c;&#xb3;/&#x447;</tspan></text>
<circle cx="1216" cy="684" r="17.5" fill="#191C2B" stroke="#0089FF"/>
<text fill="#D7E2F2" xml:space="preserve" style="white-space: pre" font-family="Tahoma" font-size="10" letter-spacing="0em"><tspan x="1203.57" y="682.97">224.9</tspan></text>
<text fill="#5B607D" xml:space="preserve" style="white-space: pre" font-family="Tahoma" font-size="10" letter-spacing="0em"><tspan x="1205.71" y="692.97">&#x43c;&#xb3;/&#x447;</tspan></text>
<circle cx="1216" cy="588" r="17.5" fill="#191C2B" stroke="#0089FF"/>
<text fill="#D7E2F2" xml:space="preserve" style="white-space: pre" font-family="Tahoma" font-size="10" letter-spacing="0em"><tspan x="1203.57" y="586.97">224.9</tspan></text>
<text fill="#5B607D" xml:space="preserve" style="white-space: pre" font-family="Tahoma" font-size="10" letter-spacing="0em"><tspan x="1205.71" y="596.97">&#x43c;&#xb3;/&#x447;</tspan></text>
<circle cx="1216" cy="396" r="17.5" fill="#191C2B" stroke="#0089FF"/>
<text fill="#D7E2F2" xml:space="preserve" style="white-space: pre" font-family="Tahoma" font-size="10" letter-spacing="0em"><tspan x="1203.57" y="394.97">224.9</tspan></text>
<text fill="#5B607D" xml:space="preserve" style="white-space: pre" font-family="Tahoma" font-size="10" letter-spacing="0em"><tspan x="1205.71" y="404.97">&#x43c;&#xb3;/&#x447;</tspan></text>
<circle cx="1216" cy="298" r="17.5" fill="#191C2B" stroke="#0089FF"/>
<text fill="#D7E2F2" xml:space="preserve" style="white-space: pre" font-family="Tahoma" font-size="10" letter-spacing="0em"><tspan x="1203.57" y="296.97">224.9</tspan></text>
<text fill="#5B607D" xml:space="preserve" style="white-space: pre" font-family="Tahoma" font-size="10" letter-spacing="0em"><tspan x="1205.71" y="306.97">&#x43c;&#xb3;/&#x447;</tspan></text>
<circle cx="1008" cy="82" r="17.5" fill="#191C2B" stroke="#0089FF"/>
<text fill="#D7E2F2" xml:space="preserve" style="white-space: pre" font-family="Tahoma" font-size="10" letter-spacing="0em"><tspan x="995.568" y="80.9697">224.9</tspan></text>
<text fill="#5B607D" xml:space="preserve" style="white-space: pre" font-family="Tahoma" font-size="10" letter-spacing="0em"><tspan x="997.712" y="90.9697">&#x43c;&#xb3;/&#x447;</tspan></text>
<circle cx="1008" cy="232" r="17.5" fill="#191C2B" stroke="#0089FF"/>
<text fill="#D7E2F2" xml:space="preserve" style="white-space: pre" font-family="Tahoma" font-size="10" letter-spacing="0em"><tspan x="995.568" y="230.97">224.9</tspan></text>
<text fill="#5B607D" xml:space="preserve" style="white-space: pre" font-family="Tahoma" font-size="10" letter-spacing="0em"><tspan x="997.712" y="240.97">&#x43c;&#xb3;/&#x447;</tspan></text>
<circle cx="889" cy="146" r="17.5" fill="#191C2B" stroke="#0089FF"/>
<text fill="#D7E2F2" xml:space="preserve" style="white-space: pre" font-family="Tahoma" font-size="10" letter-spacing="0em"><tspan x="876.568" y="144.97">224.9</tspan></text>
<text fill="#5B607D" xml:space="preserve" style="white-space: pre" font-family="Tahoma" font-size="10" letter-spacing="0em"><tspan x="878.712" y="154.97">&#x43c;&#xb3;/&#x447;</tspan></text>
<circle cx="889" cy="90" r="17.5" fill="#191C2B" stroke="#0089FF"/>
<text fill="#D7E2F2" xml:space="preserve" style="white-space: pre" font-family="Tahoma" font-size="10" letter-spacing="0em"><tspan x="876.568" y="88.9697">224.9</tspan></text>
<text fill="#5B607D" xml:space="preserve" style="white-space: pre" font-family="Tahoma" font-size="10" letter-spacing="0em"><tspan x="878.712" y="98.9697">&#x43c;&#xb3;/&#x447;</tspan></text>
<circle cx="743" cy="62" r="17.5" fill="#191C2B" stroke="#0089FF"/>
<text fill="#D7E2F2" xml:space="preserve" style="white-space: pre" font-family="Tahoma" font-size="10" letter-spacing="0em"><tspan x="730.568" y="60.9697">224.9</tspan></text>
<text fill="#5B607D" xml:space="preserve" style="white-space: pre" font-family="Tahoma" font-size="10" letter-spacing="0em"><tspan x="732.712" y="70.9697">&#x43c;&#xb3;/&#x447;</tspan></text>
<circle cx="519" cy="62" r="17.5" fill="#191C2B" stroke="#0089FF"/>
<text fill="#D7E2F2" xml:space="preserve" style="white-space: pre" font-family="Tahoma" font-size="10" letter-spacing="0em"><tspan x="506.568" y="60.9697">224.9</tspan></text>
<text fill="#5B607D" xml:space="preserve" style="white-space: pre" font-family="Tahoma" font-size="10" letter-spacing="0em"><tspan x="508.712" y="70.9697">&#x43c;&#xb3;/&#x447;</tspan></text>
<circle cx="627" cy="668" r="17.5" fill="#191C2B" stroke="#0089FF"/>
<text fill="#D7E2F2" xml:space="preserve" style="white-space: pre" font-family="Tahoma" font-size="10" letter-spacing="0em"><tspan x="614.568" y="666.97">224.9</tspan></text>
<text fill="#5B607D" xml:space="preserve" style="white-space: pre" font-family="Tahoma" font-size="10" letter-spacing="0em"><tspan x="616.712" y="676.97">&#x43c;&#xb3;/&#x447;</tspan></text>
<circle cx="604" cy="550" r="17.5" fill="#191C2B" stroke="#0089FF"/>
<text fill="#D7E2F2" xml:space="preserve" style="white-space: pre" font-family="Tahoma" font-size="10" letter-spacing="0em"><tspan x="591.568" y="548.97">224.9</tspan></text>
<text fill="#5B607D" xml:space="preserve" style="white-space: pre" font-family="Tahoma" font-size="10" letter-spacing="0em"><tspan x="593.712" y="558.97">&#x43c;&#xb3;/&#x447;</tspan></text>
<circle cx="853" cy="402" r="17.5" fill="#191C2B" stroke="#0089FF"/>
<text fill="#D7E2F2" xml:space="preserve" style="white-space: pre" font-family="Tahoma" font-size="10" letter-spacing="0em"><tspan x="840.568" y="400.97">224.9</tspan></text>
<text fill="#5B607D" xml:space="preserve" style="white-space: pre" font-family="Tahoma" font-size="10" letter-spacing="0em"><tspan x="842.712" y="410.97">&#x43c;&#xb3;/&#x447;</tspan></text>
<circle cx="972" cy="435" r="17.5" fill="#191C2B" stroke="#0089FF"/>
<text fill="#D7E2F2" xml:space="preserve" style="white-space: pre" font-family="Tahoma" font-size="10" letter-spacing="0em"><tspan x="959.568" y="433.97">224.9</tspan></text>
<text fill="#5B607D" xml:space="preserve" style="white-space: pre" font-family="Tahoma" font-size="10" letter-spacing="0em"><tspan x="961.712" y="443.97">&#x43c;&#xb3;/&#x447;</tspan></text>
<circle cx="864" cy="504" r="17.5" fill="#191C2B" stroke="#0089FF"/>
<text fill="#D7E2F2" xml:space="preserve" style="white-space: pre" font-family="Tahoma" font-size="10" letter-spacing="0em"><tspan x="851.568" y="502.97">224.9</tspan></text>
<text fill="#5B607D" xml:space="preserve" style="white-space: pre" font-family="Tahoma" font-size="10" letter-spacing="0em"><tspan x="853.712" y="512.97">&#x43c;&#xb3;/&#x447;</tspan></text>
<circle cx="802" cy="502" r="17.5" fill="#191C2B" stroke="#0089FF"/>
<text fill="#D7E2F2" xml:space="preserve" style="white-space: pre" font-family="Tahoma" font-size="10" letter-spacing="0em"><tspan x="789.568" y="500.97">224.9</tspan></text>
<text fill="#5B607D" xml:space="preserve" style="white-space: pre" font-family="Tahoma" font-size="10" letter-spacing="0em"><tspan x="791.712" y="510.97">&#x43c;&#xb3;/&#x447;</tspan></text>
<circle cx="577" cy="738" r="17.5" fill="#191C2B" stroke="#0089FF"/>
<text fill="#D7E2F2" xml:space="preserve" style="white-space: pre" font-family="Tahoma" font-size="10" letter-spacing="0em"><tspan x="567.298" y="736.97">44.6</tspan></text>
<text fill="#5B607D" xml:space="preserve" style="white-space: pre" font-family="Tahoma" font-size="10" letter-spacing="0em"><tspan x="571.531" y="746.97">&#xba;&#x421;</tspan></text>
<circle cx="577" cy="620" r="17.5" fill="#191C2B" stroke="#0089FF"/>
<text fill="#D7E2F2" xml:space="preserve" style="white-space: pre" font-family="Tahoma" font-size="10" letter-spacing="0em"><tspan x="567.298" y="618.97">44.6</tspan></text>
<text fill="#5B607D" xml:space="preserve" style="white-space: pre" font-family="Tahoma" font-size="10" letter-spacing="0em"><tspan x="571.531" y="628.97">&#xba;&#x421;</tspan></text>
<circle cx="607" cy="444" r="17.5" fill="#191C2B" stroke="#0089FF"/>
<text fill="#D7E2F2" xml:space="preserve" style="white-space: pre" font-family="Tahoma" font-size="10" letter-spacing="0em"><tspan x="597.298" y="442.97">44.6</tspan></text>
<text fill="#5B607D" xml:space="preserve" style="white-space: pre" font-family="Tahoma" font-size="10" letter-spacing="0em"><tspan x="601.531" y="452.97">&#xba;&#x421;</tspan></text>
<circle cx="694" cy="437" r="17.5" fill="#191C2B" stroke="#0089FF"/>
<text fill="#D7E2F2" xml:space="preserve" style="white-space: pre" font-family="Tahoma" font-size="10" letter-spacing="0em"><tspan x="684.298" y="435.97">44.6</tspan></text>
<text fill="#5B607D" xml:space="preserve" style="white-space: pre" font-family="Tahoma" font-size="10" letter-spacing="0em"><tspan x="688.531" y="445.97">&#xba;&#x421;</tspan></text>
<circle cx="802" cy="437" r="17.5" fill="#191C2B" stroke="#0089FF"/>
<text fill="#D7E2F2" xml:space="preserve" style="white-space: pre" font-family="Tahoma" font-size="10" letter-spacing="0em"><tspan x="792.298" y="435.97">44.6</tspan></text>
<text fill="#5B607D" xml:space="preserve" style="white-space: pre" font-family="Tahoma" font-size="10" letter-spacing="0em"><tspan x="796.531" y="445.97">&#xba;&#x421;</tspan></text>
<circle cx="784" cy="146" r="17.5" fill="#191C2B" stroke="#0089FF"/>
<text fill="#D7E2F2" xml:space="preserve" style="white-space: pre" font-family="Tahoma" font-size="10" letter-spacing="0em"><tspan x="774.298" y="144.97">44.6</tspan></text>
<text fill="#5B607D" xml:space="preserve" style="white-space: pre" font-family="Tahoma" font-size="10" letter-spacing="0em"><tspan x="778.531" y="154.97">&#xba;&#x421;</tspan></text>
<circle cx="771" cy="223" r="17.5" fill="#191C2B" stroke="#0089FF"/>
<text fill="#D7E2F2" xml:space="preserve" style="white-space: pre" font-family="Tahoma" font-size="10" letter-spacing="0em"><tspan x="761.298" y="221.97">44.6</tspan></text>
<text fill="#5B607D" xml:space="preserve" style="white-space: pre" font-family="Tahoma" font-size="10" letter-spacing="0em"><tspan x="765.531" y="231.97">&#xba;&#x421;</tspan></text>
<circle cx="702" cy="298" r="17.5" fill="#191C2B" stroke="#0089FF"/>
<text fill="#D7E2F2" xml:space="preserve" style="white-space: pre" font-family="Tahoma" font-size="10" letter-spacing="0em"><tspan x="692.298" y="296.97">44.6</tspan></text>
<text fill="#5B607D" xml:space="preserve" style="white-space: pre" font-family="Tahoma" font-size="10" letter-spacing="0em"><tspan x="696.531" y="306.97">&#xba;&#x421;</tspan></text>
<circle cx="519" cy="298" r="17.5" fill="#191C2B" stroke="#0089FF"/>
<text fill="#D7E2F2" xml:space="preserve" style="white-space: pre" font-family="Tahoma" font-size="10" letter-spacing="0em"><tspan x="509.298" y="296.97">44.6</tspan></text>
<text fill="#5B607D" xml:space="preserve" style="white-space: pre" font-family="Tahoma" font-size="10" letter-spacing="0em"><tspan x="513.531" y="306.97">&#xba;&#x421;</tspan></text>
<circle cx="438" cy="220" r="17.5" fill="#191C2B" stroke="#0089FF"/>
<text fill="#D7E2F2" xml:space="preserve" style="white-space: pre" font-family="Tahoma" font-size="10" letter-spacing="0em"><tspan x="428.298" y="218.97">44.6</tspan></text>
<text fill="#5B607D" xml:space="preserve" style="white-space: pre" font-family="Tahoma" font-size="10" letter-spacing="0em"><tspan x="432.531" y="228.97">&#xba;&#x421;</tspan></text>
<circle cx="45" cy="522" r="18" fill="#191C2B"/>
<circle cx="45" cy="522" r="17.5" stroke="#5C6585" stroke-opacity="0.25"/>
<text fill="#5C6585" fill-opacity="0.25" xml:space="preserve" style="white-space: pre" font-family="Tahoma" font-size="10" letter-spacing="0em"><tspan x="35.2979" y="520.97">44.6</tspan></text>
<text fill="#5C6585" fill-opacity="0.25" xml:space="preserve" style="white-space: pre" font-family="Tahoma" font-size="10" letter-spacing="0em"><tspan x="39.5312" y="530.97">&#xba;&#x421;</tspan></text>
<circle cx="160" cy="574" r="18" fill="#191C2B"/>
<circle cx="160" cy="574" r="17.5" stroke="#5C6585" stroke-opacity="0.25"/>
<text fill="#5C6585" fill-opacity="0.25" xml:space="preserve" style="white-space: pre" font-family="Tahoma" font-size="10" letter-spacing="0em"><tspan x="150.298" y="572.97">44.6</tspan></text>
<text fill="#5C6585" fill-opacity="0.25" xml:space="preserve" style="white-space: pre" font-family="Tahoma" font-size="10" letter-spacing="0em"><tspan x="154.531" y="582.97">&#xba;&#x421;</tspan></text>
<circle cx="634" cy="131" r="17.5" fill="#191C2B" stroke="#0089FF"/>
<text fill="#D7E2F2" xml:space="preserve" style="white-space: pre" font-family="Tahoma" font-size="10" letter-spacing="0em"><tspan x="624.298" y="129.97">44.6</tspan></text>
<text fill="#5B607D" xml:space="preserve" style="white-space: pre" font-family="Tahoma" font-size="10" letter-spacing="0em"><tspan x="628.531" y="139.97">&#xba;&#x421;</tspan></text>
<circle cx="658" cy="89" r="17.5" fill="#191C2B" stroke="#0089FF"/>
<text fill="#D7E2F2" xml:space="preserve" style="white-space: pre" font-family="Tahoma" font-size="10" letter-spacing="0em"><tspan x="648.298" y="87.9697">44.6</tspan></text>
<text fill="#5B607D" xml:space="preserve" style="white-space: pre" font-family="Tahoma" font-size="10" letter-spacing="0em"><tspan x="652.531" y="97.9697">&#xba;&#x421;</tspan></text>
<circle cx="562" cy="62" r="17.5" fill="#191C2B" stroke="#0089FF"/>
<text fill="#D7E2F2" xml:space="preserve" style="white-space: pre" font-family="Tahoma" font-size="10" letter-spacing="0em"><tspan x="552.298" y="60.9697">44.6</tspan></text>
<text fill="#5B607D" xml:space="preserve" style="white-space: pre" font-family="Tahoma" font-size="10" letter-spacing="0em"><tspan x="556.531" y="70.9697">&#xba;&#x421;</tspan></text>
<circle cx="784" cy="90" r="17.5" fill="#191C2B" stroke="#0089FF"/>
<text fill="#D7E2F2" xml:space="preserve" style="white-space: pre" font-family="Tahoma" font-size="10" letter-spacing="0em"><tspan x="774.298" y="88.9697">44.6</tspan></text>
<text fill="#5B607D" xml:space="preserve" style="white-space: pre" font-family="Tahoma" font-size="10" letter-spacing="0em"><tspan x="778.531" y="98.9697">&#xba;&#x421;</tspan></text>
<circle cx="786" cy="626" r="17.5" fill="#191C2B" stroke="#0089FF"/>
<text fill="#D7E2F2" xml:space="preserve" style="white-space: pre" font-family="Tahoma" font-size="10" letter-spacing="0em"><tspan x="776.298" y="624.97">44.6</tspan></text>
<text fill="#5B607D" xml:space="preserve" style="white-space: pre" font-family="Tahoma" font-size="10" letter-spacing="0em"><tspan x="780.531" y="634.97">&#xba;&#x421;</tspan></text>
<circle cx="786" cy="772" r="17.5" fill="#191C2B" stroke="#0089FF"/>
<text fill="#D7E2F2" xml:space="preserve" style="white-space: pre" font-family="Tahoma" font-size="10" letter-spacing="0em"><tspan x="776.298" y="770.97">44.6</tspan></text>
<text fill="#5B607D" xml:space="preserve" style="white-space: pre" font-family="Tahoma" font-size="10" letter-spacing="0em"><tspan x="780.531" y="780.97">&#xba;&#x421;</tspan></text>
<circle cx="759" cy="862" r="17.5" fill="#191C2B" stroke="#0089FF"/>
<text fill="#D7E2F2" xml:space="preserve" style="white-space: pre" font-family="Tahoma" font-size="10" letter-spacing="0em"><tspan x="749.298" y="860.97">44.6</tspan></text>
<text fill="#5B607D" xml:space="preserve" style="white-space: pre" font-family="Tahoma" font-size="10" letter-spacing="0em"><tspan x="753.531" y="870.97">&#xba;&#x421;</tspan></text>
<circle cx="1163" cy="871" r="17.5" fill="#191C2B" stroke="#0089FF"/>
<text fill="#D7E2F2" xml:space="preserve" style="white-space: pre" font-family="Tahoma" font-size="10" letter-spacing="0em"><tspan x="1153.3" y="869.97">44.6</tspan></text>
<text fill="#5B607D" xml:space="preserve" style="white-space: pre" font-family="Tahoma" font-size="10" letter-spacing="0em"><tspan x="1157.53" y="879.97">&#xba;&#x421;</tspan></text>
<circle cx="1163" cy="778" r="17.5" fill="#191C2B" stroke="#0089FF"/>
<text fill="#D7E2F2" xml:space="preserve" style="white-space: pre" font-family="Tahoma" font-size="10" letter-spacing="0em"><tspan x="1153.3" y="776.97">44.6</tspan></text>
<text fill="#5B607D" xml:space="preserve" style="white-space: pre" font-family="Tahoma" font-size="10" letter-spacing="0em"><tspan x="1157.53" y="786.97">&#xba;&#x421;</tspan></text>
<circle cx="1163" cy="684" r="17.5" fill="#191C2B" stroke="#0089FF"/>
<text fill="#D7E2F2" xml:space="preserve" style="white-space: pre" font-family="Tahoma" font-size="10" letter-spacing="0em"><tspan x="1153.3" y="682.97">44.6</tspan></text>
<text fill="#5B607D" xml:space="preserve" style="white-space: pre" font-family="Tahoma" font-size="10" letter-spacing="0em"><tspan x="1157.53" y="692.97">&#xba;&#x421;</tspan></text>
<circle cx="1163" cy="588" r="17.5" fill="#191C2B" stroke="#0089FF"/>
<text fill="#D7E2F2" xml:space="preserve" style="white-space: pre" font-family="Tahoma" font-size="10" letter-spacing="0em"><tspan x="1153.3" y="586.97">44.6</tspan></text>
<text fill="#5B607D" xml:space="preserve" style="white-space: pre" font-family="Tahoma" font-size="10" letter-spacing="0em"><tspan x="1157.53" y="596.97">&#xba;&#x421;</tspan></text>
<circle cx="1163" cy="492" r="17.5" fill="#191C2B" stroke="#0089FF"/>
<text fill="#D7E2F2" xml:space="preserve" style="white-space: pre" font-family="Tahoma" font-size="10" letter-spacing="0em"><tspan x="1153.3" y="490.97">44.6</tspan></text>
<text fill="#5B607D" xml:space="preserve" style="white-space: pre" font-family="Tahoma" font-size="10" letter-spacing="0em"><tspan x="1157.53" y="500.97">&#xba;&#x421;</tspan></text>
<circle cx="1163" cy="396" r="17.5" fill="#191C2B" stroke="#0089FF"/>
<text fill="#D7E2F2" xml:space="preserve" style="white-space: pre" font-family="Tahoma" font-size="10" letter-spacing="0em"><tspan x="1153.3" y="394.97">44.6</tspan></text>
<text fill="#5B607D" xml:space="preserve" style="white-space: pre" font-family="Tahoma" font-size="10" letter-spacing="0em"><tspan x="1157.53" y="404.97">&#xba;&#x421;</tspan></text>
<circle cx="1163" cy="298" r="17.5" fill="#191C2B" stroke="#0089FF"/>
<text fill="#D7E2F2" xml:space="preserve" style="white-space: pre" font-family="Tahoma" font-size="10" letter-spacing="0em"><tspan x="1153.3" y="296.97">44.6</tspan></text>
<text fill="#5B607D" xml:space="preserve" style="white-space: pre" font-family="Tahoma" font-size="10" letter-spacing="0em"><tspan x="1157.53" y="306.97">&#xba;&#x421;</tspan></text>
<circle cx="385" cy="529" r="17.5" fill="#191C2B" stroke="#0089FF"/>
<text fill="#D7E2F2" xml:space="preserve" style="white-space: pre" font-family="Tahoma" font-size="10" letter-spacing="0em"><tspan x="372.568" y="527.97">224.9</tspan></text>
<text fill="#5B607D" xml:space="preserve" style="white-space: pre" font-family="Tahoma" font-size="10" letter-spacing="0em"><tspan x="374.712" y="537.97">&#x43c;&#xb3;/&#x447;</tspan></text>
<g filter="url(#filter0_d)">
<rect x="1230" y="385" width="170" height="75" rx="2" fill="#191C2B"/>
<mask id="path-401-inside-1" fill="white">
<path d="M1480 410C1480 408.895 1479.1 408 1478 408H1410V438H1478C1479.1 438 1480 437.105 1480 436V410Z"/>
</mask>
<path d="M1480 410C1480 408.895 1479.1 408 1478 408H1410V438H1478C1479.1 438 1480 437.105 1480 436V410Z" fill="#F7931E" fill-opacity="0.25" stroke="#F7931E" stroke-opacity="0.25" stroke-width="2" mask="url(#path-401-inside-1)"/>
<rect opacity="0.2" x="1230" y="385" width="25" height="75" rx="2" fill="url(#paint0_linear)"/>
<rect x="1230.5" y="385.5" width="169" height="74" rx="1.5" stroke="#F7931E" stroke-opacity="0.25"/>
<circle cx="1400" cy="423" r="45" fill="#191C2B"/>
<circle cx="1400" cy="423" r="45" fill="#191C2B"/>
<circle cx="1399.5" cy="423.5" r="36" stroke="#F7931E"/>
<path d="M1413.12 383.646L1414.27 382.753C1419.27 384.411 1423.81 387.196 1427.5 390.882H1429.96C1429.96 390.882 1436.31 396.647 1438.01 400.933L1439 400.472C1435.15 393.679 1429.51 388.013 1422.66 384.062C1415.82 380.111 1408.01 378.018 1400.05 378C1392.1 377.982 1384.28 380.041 1377.41 383.961C1370.55 387.882 1364.88 393.523 1361 400.299L1362.53 401C1364.22 396.676 1370.62 390.882 1370.62 390.882H1373.07C1376.76 387.196 1381.3 384.411 1386.3 382.753L1387.29 383.531C1395.67 380.853 1404.73 380.893 1413.09 383.646H1413.12Z" fill="#F7931E" fill-opacity="0.25"/>
<path d="M1386.68 462.354L1385.53 463.247C1380.53 461.589 1375.99 458.804 1372.3 455.118L1369.85 455.118C1369.85 455.118 1363.49 449.353 1361.79 445.067L1360.8 445.528C1364.65 452.321 1370.29 457.987 1377.14 461.938C1383.98 465.889 1391.79 467.982 1399.75 468C1407.71 468.018 1415.52 465.959 1422.39 462.039C1429.26 458.118 1434.92 452.477 1438.8 445.701L1437.27 445C1435.58 449.324 1429.19 455.118 1429.19 455.118L1426.73 455.118C1423.04 458.804 1418.5 461.589 1413.5 463.247L1412.52 462.469C1404.13 465.147 1395.07 465.107 1386.71 462.354L1386.68 462.354Z" fill="#F7931E" fill-opacity="0.25"/>
<text fill="#D7E2F2" xml:space="preserve" style="white-space: pre" font-family="Tahoma" font-size="18" letter-spacing="0em"><tspan x="1381" y="421.146">-6,6</tspan></text>
<text fill="#5B607D" xml:space="preserve" style="white-space: pre" font-family="Tahoma" font-size="13" letter-spacing="0em"><tspan x="1386" y="441.161">&#x43c;3/&#x447;</tspan></text>
<line opacity="0.5" x1="1255.5" y1="385" x2="1255.5" y2="460" stroke="#F7931E" stroke-opacity="0.25"/>
<text fill="#D7E2F2" xml:space="preserve" style="white-space: pre" font-family="Tahoma" font-size="13" letter-spacing="0em"><tspan x="1262" y="403.161">FIRC0955</tspan></text>
<rect opacity="0.2" x="1262" y="411" width="70" height="20" fill="url(#paint1_linear)"/>
<rect x="1262" y="411" width="2" height="20" fill="#5C6585"/>
<text fill="#D7E2F2" xml:space="preserve" style="white-space: pre" font-family="Tahoma" font-size="10" letter-spacing="0em"><tspan x="1270" y="424.97">&#x424;&#x430;&#x43a;&#x442;</tspan></text>
<text fill="#D7E2F2" xml:space="preserve" style="white-space: pre" font-family="Tahoma" font-size="13" letter-spacing="0em"><tspan x="1321" y="426.161">72.3</tspan></text>
<rect opacity="0.2" x="1262" y="433" width="70" height="20" fill="url(#paint2_linear)"/>
<rect x="1262" y="433" width="2" height="20" fill="#5C6585"/>
<text fill="#D7E2F2" xml:space="preserve" style="white-space: pre" font-family="Tahoma" font-size="10" letter-spacing="0em"><tspan x="1270" y="446.97">&#x41c;&#x43e;&#x434;&#x435;&#x43b;&#x44c;</tspan></text>
<text fill="#F7931E" xml:space="preserve" style="white-space: pre" font-family="Tahoma" font-size="13" letter-spacing="0em"><tspan x="1321" y="448.161">65.7</tspan></text>
<path d="M1239 421.4L1243 417L1247 421.4" stroke="#F7931E" stroke-linecap="round"/>
<path d="M1239 428L1243 423.6L1247 428" stroke="#F7931E" stroke-linecap="round"/>
<circle opacity="0.1" cx="1215" cy="493" r="15" fill="#F7931E"/>
<path d="M1200 493C1200 489.334 1201.32 485.974 1203.5 483.369M1222 479.73C1226.76 482.245 1230 487.244 1230 493C1230 501.284 1223.28 508 1215 508C1212.47 508 1210.09 507.374 1208 506.27" stroke="#F7931E" stroke-width="0.75" stroke-linecap="round"/>
<circle cx="1215" cy="493" r="9.625" fill="#F7931E" fill-opacity="0.2" stroke="#F7931E" stroke-width="0.75"/>
<circle cx="1215" cy="493" r="4.5" fill="#191C2B" stroke="#F7931E"/>
<path d="M1215 478V424H1231" stroke="#F7931E"/>
<path fill-rule="evenodd" clip-rule="evenodd" d="M1455.53 415C1455.83 415 1456.07 415.239 1456.07 415.533V417.909H1457.25C1457.61 417.909 1457.91 418.235 1457.91 418.636C1457.91 419.038 1457.61 419.364 1457.25 419.364H1456.07V422.273H1457.25C1457.61 422.273 1457.91 422.598 1457.91 423C1457.91 423.402 1457.61 423.727 1457.25 423.727H1456.07V426.636H1457.25C1457.61 426.636 1457.91 426.962 1457.91 427.364C1457.91 427.765 1457.61 428.091 1457.25 428.091H1456.07V429.933H1470.47C1470.76 429.933 1471 430.172 1471 430.467C1471 430.761 1470.76 431 1470.47 431H1455.53C1455.24 431 1455 430.761 1455 430.467V427.364V423V418.636V415.533C1455 415.239 1455.24 415 1455.53 415ZM1461.54 420.465C1461.72 419.882 1461.93 419.485 1462.12 419.245C1462.31 419.005 1462.45 418.964 1462.53 418.964C1462.6 418.964 1462.75 419.007 1462.95 419.25C1463.14 419.491 1463.36 419.888 1463.55 420.469L1464.77 424.417L1464.78 424.43C1465 425.085 1465.26 425.616 1465.57 425.993C1465.88 426.37 1466.27 426.636 1466.72 426.636C1467.18 426.636 1467.57 426.368 1467.87 425.988C1468.18 425.61 1468.43 425.078 1468.64 424.425L1469.52 421.792C1469.61 421.518 1469.48 421.216 1469.22 421.118C1468.97 421.019 1468.69 421.161 1468.6 421.435L1467.71 424.072L1467.71 424.08C1467.53 424.664 1467.32 425.06 1467.13 425.301C1466.94 425.541 1466.8 425.582 1466.72 425.582C1466.65 425.582 1466.5 425.539 1466.3 425.296C1466.11 425.054 1465.9 424.658 1465.7 424.077L1464.48 420.129L1464.47 420.116C1464.25 419.461 1463.99 418.93 1463.68 418.553C1463.37 418.176 1462.98 417.909 1462.53 417.909C1462.07 417.909 1461.68 418.178 1461.38 418.558C1461.08 418.936 1460.82 419.468 1460.61 420.122L1459.39 423.809C1459.3 424.084 1459.43 424.385 1459.69 424.483C1459.94 424.581 1460.22 424.438 1460.31 424.164L1461.54 420.473L1461.54 420.465Z" fill="#F7931E"/>
</g>
<defs>
<filter id="filter0_d" x="1174.62" y="353" width="330.375" height="180.375" filterUnits="userSpaceOnUse" color-interpolation-filters="sRGB">
<feFlood flood-opacity="0" result="BackgroundImageFix"/>
<feColorMatrix in="SourceAlpha" type="matrix" values="0 0 0 0 0 0 0 0 0 0 0 0 0 0 0 0 0 0 127 0"/>
<feOffset/>
<feGaussianBlur stdDeviation="12.5"/>
<feColorMatrix type="matrix" values="0 0 0 0 0 0 0 0 0 0 0 0 0 0 0 0 0 0 0.5 0"/>
<feBlend mode="normal" in2="BackgroundImageFix" result="effect1_dropShadow"/>
<feBlend mode="normal" in="SourceGraphic" in2="effect1_dropShadow" result="shape"/>
</filter>
<linearGradient id="paint0_linear" x1="1230" y1="422.494" x2="1256.81" y2="422.494" gradientUnits="userSpaceOnUse">
<stop stop-color="#FF8C00"/>
<stop offset="0.838" stop-color="#FF8C00" stop-opacity="0"/>
</linearGradient>
<linearGradient id="paint1_linear" x1="1262.02" y1="421.01" x2="1332.04" y2="421.01" gradientUnits="userSpaceOnUse">
<stop stop-color="#5B607D"/>
<stop offset="0.838" stop-color="#5B607D" stop-opacity="0"/>
</linearGradient>
<linearGradient id="paint2_linear" x1="1262.02" y1="443.01" x2="1332.04" y2="443.01" gradientUnits="userSpaceOnUse">
<stop stop-color="#5B607D"/>
<stop offset="0.838" stop-color="#5B607D" stop-opacity="0"/>
</linearGradient>
</defs>
</svg>
