<svg width="331" height="181" viewBox="0 0 331 181" fill="none" xmlns="http://www.w3.org/2000/svg">
<g id="&#208;&#146;&#208;&#184;&#208;&#180;&#208;&#182;&#208;&#181;&#208;&#189;&#209;&#130; &#208;&#191;&#208;&#190;&#208;&#186;&#208;&#176;&#208;&#183;&#208;&#176;&#209;&#130;&#208;&#181;&#208;&#187;&#208;&#181;&#208;&#185;" filter="url(#filter0_d)">
<rect id="Rectangle 4439" x="56" y="32" width="170" height="75" rx="2" fill="#191C2B"/>
<g id="Rectangle 4443">
<mask id="path-2-inside-1" fill="white">
<path d="M306 57C306 55.8954 305.105 55 304 55H236V85H304C305.105 85 306 84.1046 306 83V57Z"/>
</mask>
<path d="M306 57C306 55.8954 305.105 55 304 55H236V85H304C305.105 85 306 84.1046 306 83V57Z" fill="#F7931E" fill-opacity="0.25" stroke="#F7931E" stroke-opacity="0.25" stroke-width="2" mask="url(#path-2-inside-1)"/>
</g>
<rect id="Rectangle 4441" opacity="0.2" x="56" y="32" width="25" height="75" rx="2" fill="url(#paint0_linear)"/>
<rect id="Rectangle 4440" x="56.5" y="32.5" width="169" height="74" rx="1.5" stroke="#F7931E" stroke-opacity="0.25"/>
<circle id="Ellipse 818" cx="226" cy="70" r="45" fill="#191C2B"/>
<circle id="Ellipse 820" cx="226" cy="70" r="45" fill="#191C2B"/>
<circle id="Ellipse 819" cx="225.5" cy="70.5" r="36" stroke="#F7931E"/>
<path id="Vector" d="M239.118 30.6462L240.271 29.7526C245.275 31.4112 249.808 34.1961 253.502 37.8818H255.956C255.956 37.8818 262.31 43.6471 264.015 47.9327L265 47.4715C261.153 40.6786 255.513 35.013 248.664 31.0618C241.816 27.1106 234.009 25.0178 226.052 25.0001C218.095 24.9825 210.279 27.0407 203.412 30.9615C196.545 34.8822 190.879 40.5228 187 47.2985L188.527 48C190.222 43.676 196.616 37.8818 196.616 37.8818H199.069C202.764 34.1961 207.297 31.4112 212.3 29.7526L213.286 30.5309C221.674 27.8527 230.726 27.8931 239.089 30.6462H239.118Z" fill="#F7931E" fill-opacity="0.25"/>
<path id="Vector_2" d="M212.683 109.354L211.53 110.247C206.526 108.589 201.993 105.804 198.298 102.118L195.845 102.118C195.845 102.118 189.49 96.3528 187.786 92.0673L186.801 92.5285C190.648 99.3213 196.288 104.987 203.136 108.938C209.985 112.889 217.792 114.982 225.749 115C233.705 115.018 241.522 112.959 248.389 109.039C255.255 105.118 260.922 99.4772 264.801 92.7015L263.274 92C261.579 96.324 255.185 102.118 255.185 102.118L252.732 102.118C249.037 105.804 244.504 108.589 239.5 110.247L238.515 109.469C230.127 112.147 221.075 112.107 212.712 109.354L212.683 109.354Z" fill="#F7931E" fill-opacity="0.25"/>
<text id="-6,6" fill="#D7E2F2" xml:space="preserve" style="white-space: pre" font-family="Tahoma" font-size="18" letter-spacing="0em"><tspan x="207" y="68.1455">-6,6</tspan></text>
<text id="&#208;&#188;3/&#209;&#135;" fill="#5B607D" xml:space="preserve" style="white-space: pre" font-family="Tahoma" font-size="13" letter-spacing="0em"><tspan x="212" y="88.1606">&#x43c;3/&#x447;</tspan></text>
<line id="Line 3660" opacity="0.5" x1="81.5" y1="32" x2="81.5" y2="107" stroke="#F7931E" stroke-opacity="0.25"/>
<text id="FIRC0955" fill="#D7E2F2" xml:space="preserve" style="white-space: pre" font-family="Tahoma" font-size="13" letter-spacing="0em"><tspan x="88" y="50.1606">FIRC0955</tspan></text>
<g id="Group 14368">
<rect id="Rectangle 4434" opacity="0.2" x="88" y="58" width="70" height="20" fill="url(#paint1_linear)"/>
<rect id="Rectangle 4436" x="88" y="58" width="2" height="20" fill="#5C6585"/>
<text id="&#208;&#164;&#208;&#176;&#208;&#186;&#209;&#130;" fill="#D7E2F2" xml:space="preserve" style="white-space: pre" font-family="Tahoma" font-size="10" letter-spacing="0em"><tspan x="96" y="71.9697">&#x424;&#x430;&#x43a;&#x442;</tspan></text>
<text id="72.3" fill="#D7E2F2" xml:space="preserve" style="white-space: pre" font-family="Tahoma" font-size="13" letter-spacing="0em"><tspan x="147" y="73.1606">72.3</tspan></text>
</g>
<g id="Group 14367">
<rect id="Rectangle 4434_2" opacity="0.2" x="88" y="80" width="70" height="20" fill="url(#paint2_linear)"/>
<rect id="Rectangle 4436_2" x="88" y="80" width="2" height="20" fill="#5C6585"/>
<text id="&#208;&#156;&#208;&#190;&#208;&#180;&#208;&#181;&#208;&#187;&#209;&#140;" fill="#D7E2F2" xml:space="preserve" style="white-space: pre" font-family="Tahoma" font-size="10" letter-spacing="0em"><tspan x="96" y="93.9697">&#x41c;&#x43e;&#x434;&#x435;&#x43b;&#x44c;</tspan></text>
<text id="65.7" fill="#F7931E" xml:space="preserve" style="white-space: pre" font-family="Tahoma" font-size="13" letter-spacing="0em"><tspan x="147" y="95.1606">65.7</tspan></text>
</g>
<g id="Group 14374">
<path id="Vector 91" d="M65 68.4L69 64L73 68.4" stroke="#F7931E" stroke-linecap="round"/>
<path id="Vector 92" d="M65 75L69 70.6L73 75" stroke="#F7931E" stroke-linecap="round"/>
</g>
<g id="Group 14370">
<circle id="Ellipse 821" opacity="0.1" cx="41" cy="140" r="15" fill="#F7931E"/>
<path id="Ellipse 824" d="M26 140C26 136.334 27.3154 132.974 29.5 130.369M48 126.73C52.7578 129.245 56 134.244 56 140C56 148.284 49.2843 155 41 155C38.4718 155 36.0897 154.374 34 153.27" stroke="#F7931E" stroke-width="0.75" stroke-linecap="round"/>
<circle id="Ellipse 822" cx="41" cy="140" r="9.625" fill="#F7931E" fill-opacity="0.2" stroke="#F7931E" stroke-width="0.75"/>
<circle id="Ellipse 823" cx="41" cy="140" r="4.5" fill="#191C2B" stroke="#F7931E"/>
</g>
<path id="Vector 90" d="M41 125V71H57" stroke="#F7931E"/>
<g id="Icon/&#208;&#161;ategories/Schedule/spline / 25">
<path id="Union" fill-rule="evenodd" clip-rule="evenodd" d="M281.533 62C281.828 62 282.067 62.2388 282.067 62.5333V64.9092H283.248C283.613 64.9092 283.909 65.2348 283.909 65.6365C283.909 66.0381 283.613 66.3637 283.248 66.3637H282.067V69.2727H283.248C283.613 69.2727 283.909 69.5983 283.909 70C283.909 70.4016 283.613 70.7272 283.248 70.7272H282.067V73.6365H283.248C283.613 73.6365 283.909 73.9621 283.909 74.3638C283.909 74.7654 283.613 75.091 283.248 75.091H282.067V76.9333H296.467C296.761 76.9333 297 77.1721 297 77.4667C297 77.7612 296.761 78 296.467 78H281.533C281.239 78 281 77.7612 281 77.4667V74.3638V70V65.6365V62.5333C281 62.2388 281.239 62 281.533 62ZM287.54 67.4653C287.725 66.8816 287.929 66.4853 288.121 66.2449C288.312 66.005 288.452 65.9639 288.527 65.9639C288.604 65.9639 288.748 66.0067 288.947 66.2497C289.144 66.4914 289.356 66.8877 289.552 67.4686L290.773 71.4171L290.777 71.4297C290.997 72.0846 291.262 72.6158 291.57 72.9929C291.878 73.3696 292.269 73.6365 292.725 73.6365C293.182 73.6365 293.571 73.3678 293.874 72.9881C294.175 72.6097 294.43 72.0782 294.637 71.4247L295.516 68.7923C295.608 68.5183 295.476 68.2162 295.222 68.1175C294.967 68.0189 294.687 68.161 294.595 68.4351L293.714 71.0717L293.711 71.0804C293.527 71.6641 293.323 72.0604 293.131 72.3008C292.94 72.5406 292.799 72.5818 292.725 72.5818C292.648 72.5818 292.504 72.5389 292.305 72.296C292.107 72.0543 291.896 71.658 291.7 71.0771L290.478 67.1286L290.474 67.116C290.254 66.461 289.99 65.9298 289.682 65.5528C289.374 65.1761 288.983 64.9092 288.527 64.9092C288.07 64.9092 287.681 65.1778 287.378 65.5576C287.076 65.936 286.822 66.4678 286.615 67.1216L285.392 70.8093C285.301 71.0836 285.434 71.3853 285.689 71.4833C285.943 71.5812 286.223 71.4383 286.314 71.164L287.538 67.4727L287.54 67.4653Z" fill="#F7931E"/>
</g>
</g>
<defs>
<filter id="filter0_d" x="0.625" y="0" width="330.375" height="180.375" filterUnits="userSpaceOnUse" color-interpolation-filters="sRGB">
<feFlood flood-opacity="0" result="BackgroundImageFix"/>
<feColorMatrix in="SourceAlpha" type="matrix" values="0 0 0 0 0 0 0 0 0 0 0 0 0 0 0 0 0 0 127 0"/>
<feOffset/>
<feGaussianBlur stdDeviation="12.5"/>
<feColorMatrix type="matrix" values="0 0 0 0 0 0 0 0 0 0 0 0 0 0 0 0 0 0 0.5 0"/>
<feBlend mode="normal" in2="BackgroundImageFix" result="effect1_dropShadow"/>
<feBlend mode="normal" in="SourceGraphic" in2="effect1_dropShadow" result="shape"/>
</filter>
<linearGradient id="paint0_linear" x1="56.0003" y1="69.4936" x2="82.8087" y2="69.4936" gradientUnits="userSpaceOnUse">
<stop stop-color="#FF8C00"/>
<stop offset="0.838" stop-color="#FF8C00" stop-opacity="0"/>
</linearGradient>
<linearGradient id="paint1_linear" x1="88.0243" y1="68.0099" x2="158.035" y2="68.0099" gradientUnits="userSpaceOnUse">
<stop stop-color="#5B607D"/>
<stop offset="0.838" stop-color="#5B607D" stop-opacity="0"/>
</linearGradient>
<linearGradient id="paint2_linear" x1="88.0243" y1="90.0099" x2="158.035" y2="90.0099" gradientUnits="userSpaceOnUse">
<stop stop-color="#5B607D"/>
<stop offset="0.838" stop-color="#5B607D" stop-opacity="0"/>
</linearGradient>
</defs>
</svg>
