<svg width="12" height="14" viewBox="0 0 12 14" fill="none" xmlns="http://www.w3.org/2000/svg">
<path d="M3.125 0C2.09689 0 1.25 0.846894 1.25 1.875V12.5H0V13.75H10V12.5H8.75V10.625H10C11.0281 10.625 11.875 9.77811 11.875 8.75V4.11621L9.81689 2.05811L8.93311 2.94189L10 4.00879V5C10 5.345 10.28 5.625 10.625 5.625V8.75C10.625 9.10314 10.3531 9.375 10 9.375H8.75V1.875C8.75 0.846894 7.90311 0 6.875 0H3.125ZM3.125 1.25H6.875C7.22814 1.25 7.5 1.52186 7.5 1.875V3.125H2.5V1.875C2.5 1.52186 2.77186 1.25 3.125 1.25ZM2.5 4.375H7.5V12.5H2.5V4.375Z" fill="currentColor"/>
</svg>
