<svg width="15" height="15" viewBox="0 0 15 15" fill="none" xmlns="http://www.w3.org/2000/svg">
<path d="M5.625 0C2.51812 0 0 2.51812 0 5.625C0 6.5247 0.216298 7.37125 0.592041 8.125H0V9.375H12.5C13.8811 9.375 15 8.25613 15 6.875C15 5.49387 13.8811 4.375 12.5 4.375V5.625C13.2439 5.625 13.75 6.13113 13.75 6.875C13.75 7.61887 13.2439 8.125 12.5 8.125H10.658C11.0337 7.37125 11.25 6.5247 11.25 5.625C11.25 2.51812 8.73188 0 5.625 0ZM5.625 1.25C8.04125 1.25 10 3.20875 10 5.625C10 6.55534 9.70813 7.41642 9.21265 8.125H2.03735C1.54187 7.41642 1.25 6.55534 1.25 5.625C1.25 3.20875 3.20875 1.25 5.625 1.25ZM5.625 1.875C5.45924 1.875 5.30027 1.94085 5.18306 2.05806C5.06585 2.17527 5 2.33424 5 2.5C5 2.66576 5.06585 2.82473 5.18306 2.94194C5.30027 3.05915 5.45924 3.125 5.625 3.125C5.79076 3.125 5.94973 3.05915 6.06694 2.94194C6.18415 2.82473 6.25 2.66576 6.25 2.5C6.25 2.33424 6.18415 2.17527 6.06694 2.05806C5.94973 1.94085 5.79076 1.875 5.625 1.875ZM4.19189 3.30811L3.30811 4.19189L4.41772 5.30151C4.36811 5.4867 4.36176 5.68082 4.39916 5.86886C4.43656 6.05689 4.51671 6.23381 4.63342 6.38591C4.75012 6.53802 4.90025 6.66124 5.07219 6.74605C5.24414 6.83086 5.43328 6.87498 5.625 6.875C5.95652 6.875 6.27446 6.7433 6.50888 6.50888C6.7433 6.27446 6.875 5.95652 6.875 5.625C6.875 5.29348 6.7433 4.97554 6.50888 4.74112C6.27446 4.5067 5.95652 4.375 5.625 4.375C5.51612 4.37555 5.40778 4.39032 5.30273 4.41895L4.19189 3.30811ZM2.5 5C2.33424 5 2.17527 5.06585 2.05806 5.18306C1.94085 5.30027 1.875 5.45924 1.875 5.625C1.875 5.79076 1.94085 5.94973 2.05806 6.06694C2.17527 6.18415 2.33424 6.25 2.5 6.25C2.66576 6.25 2.82473 6.18415 2.94194 6.06694C3.05915 5.94973 3.125 5.79076 3.125 5.625C3.125 5.45924 3.05915 5.30027 2.94194 5.18306C2.82473 5.06585 2.66576 5 2.5 5ZM8.75 5C8.58424 5 8.42527 5.06585 8.30806 5.18306C8.19085 5.30027 8.125 5.45924 8.125 5.625C8.125 5.79076 8.19085 5.94973 8.30806 6.06694C8.42527 6.18415 8.58424 6.25 8.75 6.25C8.91576 6.25 9.07473 6.18415 9.19194 6.06694C9.30915 5.94973 9.375 5.79076 9.375 5.625C9.375 5.45924 9.30915 5.30027 9.19194 5.18306C9.07473 5.06585 8.91576 5 8.75 5ZM0 10.625V11.875H10.3125C10.8601 11.875 11.25 12.2649 11.25 12.8125C11.25 13.3601 10.8601 13.75 10.3125 13.75V15C11.5149 15 12.5 14.0149 12.5 12.8125C12.5 11.6101 11.5149 10.625 10.3125 10.625H0Z" fill="currentColor"/>
</svg>
