<svg width="12" height="14" viewBox="0 0 12 14" fill="none" xmlns="http://www.w3.org/2000/svg">
<path d="M3.125 0C2.09689 0 1.25 0.846894 1.25 1.875V12.5H0V13.75H10V12.5H8.75V10.625H10C11.0281 10.625 11.875 9.77811 11.875 8.75V4.11621L9.81689 2.05811L8.93311 2.94189L10 4.00879V5C10 5.345 10.28 5.625 10.625 5.625V8.75C10.625 9.10314 10.3531 9.375 10 9.375H8.75V1.875C8.75 0.846894 7.90311 0 6.875 0H3.125ZM3.125 1.25H6.875C7.22814 1.25 7.5 1.52186 7.5 1.875V3.125H2.5V1.875C2.5 1.52186 2.77186 1.25 3.125 1.25ZM2.5 4.375H7.5V12.5H2.5V4.375ZM5.10498 5.5542C4.77248 6.7592 3.53507 6.83839 3.22632 7.95776C3.06257 8.55214 3.37679 9.56984 4.37866 9.82422C4.21116 10.0305 3.65972 10.318 3.24097 10.5273L3.94043 11.1523C4.36793 10.8361 4.6943 10.4771 4.95117 10.1196C4.9568 10.1109 4.95591 10.107 4.96216 10.0977C5.44903 9.38328 5.59011 8.76103 5.75073 8.02979C5.94448 8.79603 5.81618 9.48137 5.67993 9.91699C6.16931 9.76137 6.5538 9.4092 6.69067 8.91357C6.8838 8.2117 6.74623 6.65545 5.10498 5.5542Z" fill="currentColor"/>
</svg>
