<svg width="13" height="13" viewBox="0 0 13 13" fill="none" xmlns="http://www.w3.org/2000/svg">
<path d="M2.125 0.875C1.79861 0.875 1.46587 0.994581 1.23022 1.23022C0.994581 1.46587 0.875 1.79861 0.875 2.125V10.875C0.875 11.2014 0.994581 11.5341 1.23022 11.7698C1.46587 12.0054 1.79861 12.125 2.125 12.125H10.875C11.2014 12.125 11.5341 12.0054 11.7698 11.7698C12.0054 11.5341 12.125 11.2014 12.125 10.875V2.125C12.125 1.79861 12.0054 1.46587 11.7698 1.23022C11.5341 0.994581 11.2014 0.875 10.875 0.875H2.125ZM2.125 2.125H10.875V10.875H2.125V2.125ZM3.42261 4.01099V8.98169H4.448V5.71143L6.44141 8.98169H7.46558V4.01099H6.44507V7.28857L4.448 4.01099H3.42261ZM9.2832 6.47925C9.01258 6.47925 8.79745 6.57552 8.63745 6.76489C8.47745 6.95489 8.40111 7.18513 8.40674 7.45825L8.4104 7.46924H8.98413C8.98413 7.31424 9.01038 7.18889 9.06226 7.09326C9.11351 6.99764 9.18755 6.95044 9.28442 6.95044C9.37755 6.95044 9.44927 6.98888 9.49927 7.06763C9.54864 7.14638 9.57373 7.25016 9.57373 7.37891C9.57373 7.47266 9.55043 7.57763 9.50293 7.69263C9.45543 7.80763 9.37608 7.94168 9.26733 8.09668L8.4458 9.13794V9.53711H10.2256V9.06714H9.2063L9.59937 8.50317C9.80062 8.24942 9.94524 8.04359 10.0315 7.88672C10.1177 7.72922 10.1609 7.5578 10.1609 7.3728C10.1609 7.09718 10.0833 6.87973 9.92896 6.71973C9.77396 6.55973 9.55883 6.47925 9.2832 6.47925Z" fill="currentColor"/>
</svg>
