<svg width="14" height="14" viewBox="0 0 14 14" fill="none" xmlns="http://www.w3.org/2000/svg">
<mask id="path-1-inside-1" fill="currentColor">
<path d="M7 0C6.10591 0 5.37853 0.516801 4.89075 1.21665C4.70116 1.17516 4.52074 1.11936 4.30689 1.11936C2.52857 1.11936 1.07516 2.62959 1.07516 4.47745C1.07516 4.57221 1.0887 4.63504 1.09725 4.71466C0.814274 4.95877 0.52259 5.19935 0.337714 5.56511C-0.419734 7.06428 0.140428 8.93407 1.58328 9.72118C1.64593 9.75535 1.71444 9.77637 1.78491 9.78303C1.85538 9.78968 1.92642 9.78185 1.99398 9.75998C2.06153 9.73811 2.12428 9.70262 2.17863 9.65555C2.23299 9.60848 2.27789 9.55074 2.31077 9.48563C2.34366 9.42053 2.36387 9.34933 2.37027 9.27611C2.37667 9.20289 2.36913 9.12907 2.34807 9.05888C2.32702 8.98868 2.29286 8.92348 2.24756 8.867C2.20225 8.81053 2.14668 8.76388 2.08403 8.72971C1.15694 8.22396 0.805106 7.04887 1.29187 6.08544C1.44638 5.77976 1.67186 5.54111 1.94516 5.35851C2.03227 5.30016 2.10133 5.21695 2.14406 5.11884C2.18679 5.02073 2.20138 4.9119 2.18607 4.80539C2.16625 4.66751 2.15241 4.56144 2.15241 4.47745C2.15241 3.23475 3.11095 2.23872 4.30689 2.23872C4.50726 2.23872 4.70793 2.27832 4.92231 2.34476C5.04399 2.38247 5.17458 2.37431 5.29103 2.3217C5.40748 2.2691 5.50231 2.17545 5.55877 2.05727C5.8243 1.50121 6.36274 1.11936 7 1.11936C7.63726 1.11936 8.1757 1.50121 8.44123 2.05727C8.4977 2.17545 8.59252 2.2691 8.70897 2.3217C8.82542 2.37431 8.95601 2.38247 9.07769 2.34476C9.29207 2.27832 9.49274 2.23872 9.69311 2.23872C10.8891 2.23872 11.8476 3.23475 11.8476 4.47745C11.8476 4.56144 11.8338 4.66751 11.8139 4.80539C11.7986 4.9119 11.8132 5.02073 11.8559 5.11884C11.8987 5.21695 11.9677 5.30016 12.0548 5.35851C12.3281 5.54111 12.5547 5.77976 12.7092 6.08544C13.1959 7.04887 12.8431 8.22396 11.916 8.72971C11.8533 8.76388 11.7978 8.81053 11.7525 8.86701C11.7072 8.92349 11.673 8.98868 11.652 9.05888C11.6309 9.12907 11.6234 9.20288 11.6298 9.2761C11.6362 9.34932 11.6564 9.42051 11.6893 9.48561C11.7221 9.55071 11.767 9.60845 11.8214 9.65552C11.8758 9.70259 11.9385 9.73807 12.006 9.75995C12.0736 9.78182 12.1446 9.78966 12.2151 9.78301C12.2856 9.77636 12.3541 9.75535 12.4167 9.72118C13.8596 8.93407 14.4197 7.06428 13.6623 5.56511C13.4774 5.19935 13.1857 4.95877 12.9027 4.71466C12.9113 4.63504 12.9248 4.57221 12.9248 4.47745C12.9248 2.62959 11.4714 1.11936 9.69311 1.11936C9.47926 1.11936 9.29884 1.17516 9.10925 1.21665C8.62147 0.516801 7.8941 0 7 0ZM6.99158 4.4698C6.84892 4.47212 6.71296 4.53315 6.61356 4.63952C6.51416 4.74588 6.45943 4.88888 6.46138 5.03713V13.4323C6.46037 13.5065 6.47356 13.5801 6.50017 13.649C6.52679 13.7178 6.5663 13.7804 6.61642 13.8333C6.66653 13.8861 6.72625 13.928 6.7921 13.9566C6.85795 13.9853 6.92862 14 7 14C7.07138 14 7.14205 13.9853 7.2079 13.9566C7.27375 13.928 7.33347 13.8861 7.38359 13.8333C7.4337 13.7804 7.47322 13.7178 7.49983 13.649C7.52645 13.5801 7.53963 13.5065 7.53862 13.4323V5.03713C7.53961 4.96225 7.52613 4.88793 7.49897 4.81856C7.47182 4.74919 7.43154 4.68619 7.38053 4.63329C7.32952 4.58039 7.26882 4.53866 7.20201 4.51058C7.1352 4.4825 7.06364 4.46863 6.99158 4.4698ZM3.77669 6.70962C3.68329 6.70751 3.59098 6.73068 3.5088 6.77685C3.42663 6.82302 3.35742 6.8906 3.30798 6.97296C3.25853 7.05532 3.23055 7.14962 3.22678 7.24661C3.22301 7.3436 3.24357 7.43994 3.28646 7.52618C3.28646 7.52618 4.30689 9.62119 4.30689 13.4323C4.30588 13.5065 4.31907 13.5801 4.34568 13.649C4.3723 13.7178 4.41181 13.7804 4.46193 13.8333C4.51205 13.8861 4.57176 13.928 4.63761 13.9566C4.70346 13.9853 4.77413 14 4.84551 14C4.9169 14 4.98756 13.9853 5.05341 13.9566C5.11927 13.928 5.17898 13.8861 5.2291 13.8333C5.27921 13.7804 5.31873 13.7178 5.34534 13.649C5.37196 13.5801 5.38515 13.5065 5.38414 13.4323C5.38414 9.40797 4.25008 7.02553 4.25008 7.02553C4.20686 6.93265 4.13977 6.854 4.05623 6.79825C3.97269 6.7425 3.87595 6.71183 3.77669 6.70962ZM10.2075 6.70962C10.111 6.71476 10.0176 6.74681 9.93705 6.80239C9.85654 6.85798 9.7919 6.93505 9.74992 7.02553C9.74992 7.02553 8.61587 9.40797 8.61587 13.4323C8.61486 13.5065 8.62804 13.5801 8.65466 13.649C8.68127 13.7178 8.72079 13.7804 8.7709 13.8333C8.82102 13.8861 8.88074 13.928 8.94659 13.9566C9.01244 13.9853 9.08311 14 9.15449 14C9.22587 14 9.29654 13.9853 9.36239 13.9566C9.42824 13.928 9.48796 13.8861 9.53807 13.8333C9.58819 13.7804 9.6277 13.7178 9.65432 13.649C9.68093 13.5801 9.69412 13.5065 9.69311 13.4323C9.69311 9.62119 10.7135 7.52618 10.7135 7.52618C10.7572 7.43869 10.7778 7.34078 10.7734 7.24234C10.7689 7.1439 10.7395 7.04843 10.6882 6.96558C10.6369 6.88272 10.5654 6.81542 10.481 6.77048C10.3966 6.72553 10.3022 6.70454 10.2075 6.70962Z"/>
</mask>
<path d="M7 0C6.10591 0 5.37853 0.516801 4.89075 1.21665C4.70116 1.17516 4.52074 1.11936 4.30689 1.11936C2.52857 1.11936 1.07516 2.62959 1.07516 4.47745C1.07516 4.57221 1.0887 4.63504 1.09725 4.71466C0.814274 4.95877 0.52259 5.19935 0.337714 5.56511C-0.419734 7.06428 0.140428 8.93407 1.58328 9.72118C1.64593 9.75535 1.71444 9.77637 1.78491 9.78303C1.85538 9.78968 1.92642 9.78185 1.99398 9.75998C2.06153 9.73811 2.12428 9.70262 2.17863 9.65555C2.23299 9.60848 2.27789 9.55074 2.31077 9.48563C2.34366 9.42053 2.36387 9.34933 2.37027 9.27611C2.37667 9.20289 2.36913 9.12907 2.34807 9.05888C2.32702 8.98868 2.29286 8.92348 2.24756 8.867C2.20225 8.81053 2.14668 8.76388 2.08403 8.72971C1.15694 8.22396 0.805106 7.04887 1.29187 6.08544C1.44638 5.77976 1.67186 5.54111 1.94516 5.35851C2.03227 5.30016 2.10133 5.21695 2.14406 5.11884C2.18679 5.02073 2.20138 4.9119 2.18607 4.80539C2.16625 4.66751 2.15241 4.56144 2.15241 4.47745C2.15241 3.23475 3.11095 2.23872 4.30689 2.23872C4.50726 2.23872 4.70793 2.27832 4.92231 2.34476C5.04399 2.38247 5.17458 2.37431 5.29103 2.3217C5.40748 2.2691 5.50231 2.17545 5.55877 2.05727C5.8243 1.50121 6.36274 1.11936 7 1.11936C7.63726 1.11936 8.1757 1.50121 8.44123 2.05727C8.4977 2.17545 8.59252 2.2691 8.70897 2.3217C8.82542 2.37431 8.95601 2.38247 9.07769 2.34476C9.29207 2.27832 9.49274 2.23872 9.69311 2.23872C10.8891 2.23872 11.8476 3.23475 11.8476 4.47745C11.8476 4.56144 11.8338 4.66751 11.8139 4.80539C11.7986 4.9119 11.8132 5.02073 11.8559 5.11884C11.8987 5.21695 11.9677 5.30016 12.0548 5.35851C12.3281 5.54111 12.5547 5.77976 12.7092 6.08544C13.1959 7.04887 12.8431 8.22396 11.916 8.72971C11.8533 8.76388 11.7978 8.81053 11.7525 8.86701C11.7072 8.92349 11.673 8.98868 11.652 9.05888C11.6309 9.12907 11.6234 9.20288 11.6298 9.2761C11.6362 9.34932 11.6564 9.42051 11.6893 9.48561C11.7221 9.55071 11.767 9.60845 11.8214 9.65552C11.8758 9.70259 11.9385 9.73807 12.006 9.75995C12.0736 9.78182 12.1446 9.78966 12.2151 9.78301C12.2856 9.77636 12.3541 9.75535 12.4167 9.72118C13.8596 8.93407 14.4197 7.06428 13.6623 5.56511C13.4774 5.19935 13.1857 4.95877 12.9027 4.71466C12.9113 4.63504 12.9248 4.57221 12.9248 4.47745C12.9248 2.62959 11.4714 1.11936 9.69311 1.11936C9.47926 1.11936 9.29884 1.17516 9.10925 1.21665C8.62147 0.516801 7.8941 0 7 0ZM6.99158 4.4698C6.84892 4.47212 6.71296 4.53315 6.61356 4.63952C6.51416 4.74588 6.45943 4.88888 6.46138 5.03713V13.4323C6.46037 13.5065 6.47356 13.5801 6.50017 13.649C6.52679 13.7178 6.5663 13.7804 6.61642 13.8333C6.66653 13.8861 6.72625 13.928 6.7921 13.9566C6.85795 13.9853 6.92862 14 7 14C7.07138 14 7.14205 13.9853 7.2079 13.9566C7.27375 13.928 7.33347 13.8861 7.38359 13.8333C7.4337 13.7804 7.47322 13.7178 7.49983 13.649C7.52645 13.5801 7.53963 13.5065 7.53862 13.4323V5.03713C7.53961 4.96225 7.52613 4.88793 7.49897 4.81856C7.47182 4.74919 7.43154 4.68619 7.38053 4.63329C7.32952 4.58039 7.26882 4.53866 7.20201 4.51058C7.1352 4.4825 7.06364 4.46863 6.99158 4.4698ZM3.77669 6.70962C3.68329 6.70751 3.59098 6.73068 3.5088 6.77685C3.42663 6.82302 3.35742 6.8906 3.30798 6.97296C3.25853 7.05532 3.23055 7.14962 3.22678 7.24661C3.22301 7.3436 3.24357 7.43994 3.28646 7.52618C3.28646 7.52618 4.30689 9.62119 4.30689 13.4323C4.30588 13.5065 4.31907 13.5801 4.34568 13.649C4.3723 13.7178 4.41181 13.7804 4.46193 13.8333C4.51205 13.8861 4.57176 13.928 4.63761 13.9566C4.70346 13.9853 4.77413 14 4.84551 14C4.9169 14 4.98756 13.9853 5.05341 13.9566C5.11927 13.928 5.17898 13.8861 5.2291 13.8333C5.27921 13.7804 5.31873 13.7178 5.34534 13.649C5.37196 13.5801 5.38515 13.5065 5.38414 13.4323C5.38414 9.40797 4.25008 7.02553 4.25008 7.02553C4.20686 6.93265 4.13977 6.854 4.05623 6.79825C3.97269 6.7425 3.87595 6.71183 3.77669 6.70962ZM10.2075 6.70962C10.111 6.71476 10.0176 6.74681 9.93705 6.80239C9.85654 6.85798 9.7919 6.93505 9.74992 7.02553C9.74992 7.02553 8.61587 9.40797 8.61587 13.4323C8.61486 13.5065 8.62804 13.5801 8.65466 13.649C8.68127 13.7178 8.72079 13.7804 8.7709 13.8333C8.82102 13.8861 8.88074 13.928 8.94659 13.9566C9.01244 13.9853 9.08311 14 9.15449 14C9.22587 14 9.29654 13.9853 9.36239 13.9566C9.42824 13.928 9.48796 13.8861 9.53807 13.8333C9.58819 13.7804 9.6277 13.7178 9.65432 13.649C9.68093 13.5801 9.69412 13.5065 9.69311 13.4323C9.69311 9.62119 10.7135 7.52618 10.7135 7.52618C10.7572 7.43869 10.7778 7.34078 10.7734 7.24234C10.7689 7.1439 10.7395 7.04843 10.6882 6.96558C10.6369 6.88272 10.5654 6.81542 10.481 6.77048C10.3966 6.72553 10.3022 6.70454 10.2075 6.70962Z" fill="currentColor"/>
<path d="M4.89075 1.21665L4.46315 3.17041L5.76785 3.45595L6.53154 2.36025L4.89075 1.21665ZM1.09725 4.71466L2.40365 6.22904L3.19783 5.54392L3.08582 4.50106L1.09725 4.71466ZM0.337714 5.56511L-1.44723 4.66291L-1.44738 4.6632L0.337714 5.56511ZM1.58328 9.72118L0.625474 11.4769L0.625589 11.477L1.58328 9.72118ZM2.08403 8.72971L1.12622 10.4855L1.12665 10.4857L2.08403 8.72971ZM1.29187 6.08544L-0.493074 5.18324L-0.493219 5.18353L1.29187 6.08544ZM1.94516 5.35851L3.05622 7.0215L3.05821 7.02017L1.94516 5.35851ZM2.18607 4.80539L4.16573 4.52091L4.16572 4.5208L2.18607 4.80539ZM4.92231 2.34476L5.51438 0.434405L5.51435 0.434393L4.92231 2.34476ZM5.55877 2.05727L7.36339 2.91944L7.36355 2.91911L5.55877 2.05727ZM8.44123 2.05727L6.63646 2.91911L6.63662 2.91944L8.44123 2.05727ZM9.07769 2.34476L8.48566 0.434393L8.48562 0.434405L9.07769 2.34476ZM11.8139 4.80539L9.83428 4.5208L9.83427 4.52091L11.8139 4.80539ZM12.0548 5.35851L10.9418 7.02018L10.9438 7.0215L12.0548 5.35851ZM12.7092 6.08544L14.4943 5.18353L14.4941 5.18324L12.7092 6.08544ZM11.916 8.72971L12.8735 10.4856L12.8738 10.4855L11.916 8.72971ZM12.4167 9.72118L13.3743 11.4771L13.3745 11.4769L12.4167 9.72118ZM13.6623 5.56511L15.4474 4.6632L15.4473 4.66301L13.6623 5.56511ZM12.9027 4.71466L10.9142 4.50106L10.8022 5.54393L11.5964 6.22904L12.9027 4.71466ZM9.10925 1.21665L7.46846 2.36025L8.23215 3.45595L9.53685 3.17041L9.10925 1.21665ZM6.99158 4.4698L6.95913 2.47006L6.9591 2.47006L6.99158 4.4698ZM6.46138 5.03713H8.46138V5.02395L8.46121 5.01078L6.46138 5.03713ZM6.46138 13.4323L8.46119 13.4596L8.46138 13.446V13.4323H6.46138ZM7.53862 13.4323H5.53862V13.446L5.53881 13.4596L7.53862 13.4323ZM7.53862 5.03713L5.5388 5.01078L5.53862 5.02395V5.03713H7.53862ZM3.77669 6.70962L3.73166 8.70911L3.73215 8.70912L3.77669 6.70962ZM3.28646 7.52618L1.49567 8.41674L2.0474 9.52618H3.28646V7.52618ZM4.30689 13.4323L6.30671 13.4596L6.30689 13.446V13.4323H4.30689ZM5.38414 13.4323H3.38414V13.446L3.38432 13.4596L5.38414 13.4323ZM4.25008 7.02553L2.43685 7.86944L2.44051 7.8773L2.44423 7.88512L4.25008 7.02553ZM10.2075 6.70962L10.314 8.70678L10.3146 8.70675L10.2075 6.70962ZM9.74992 7.02553L7.93569 6.18375L7.11816 7.94572L8.85549 8.81438L9.74992 7.02553ZM8.61587 13.4323L10.6157 13.4596L10.6159 13.446V13.4323H8.61587ZM9.69311 13.4323H7.69311V13.446L7.69329 13.4596L9.69311 13.4323ZM10.7135 7.52618L8.92383 6.63347L8.91962 6.64191L8.91549 6.65039L10.7135 7.52618ZM7 -2C5.26211 -2 3.98824 -0.986199 3.24996 0.0730546L6.53154 2.36025C6.64479 2.19775 6.75536 2.10167 6.83589 2.05246C6.9061 2.00955 6.95421 2 7 2V-2ZM5.31835 -0.737105C5.29148 -0.742986 5.26775 -0.748725 5.20873 -0.762645C5.15874 -0.774436 5.08388 -0.791944 5.00071 -0.808603C4.82844 -0.843109 4.59027 -0.880638 4.30689 -0.880638V3.11936C4.23736 3.11936 4.19633 3.10973 4.21512 3.1135C4.22749 3.11597 4.24665 3.12019 4.29049 3.13053C4.32531 3.13874 4.39523 3.15554 4.46315 3.17041L5.31835 -0.737105ZM4.30689 -0.880638C1.35239 -0.880638 -0.924837 1.59801 -0.924837 4.47745H3.07516C3.07516 3.66117 3.70474 3.11936 4.30689 3.11936V-0.880638ZM-0.924837 4.47745C-0.924837 4.62669 -0.913609 4.74861 -0.903042 4.83759C-0.898676 4.87436 -0.893585 4.91171 -0.892311 4.92128C-0.890204 4.93711 -0.890584 4.93498 -0.891307 4.92825L3.08582 4.50106C3.08325 4.47718 3.0807 4.4558 3.07845 4.43776C3.07624 4.42008 3.07416 4.40436 3.0727 4.39338C3.07206 4.38857 3.07118 4.38196 3.07077 4.37888C3.07022 4.37479 3.06984 4.37194 3.06953 4.36957C3.0689 4.3648 3.06885 4.36425 3.06905 4.36588C3.06953 4.36992 3.07126 4.38504 3.07273 4.40647C3.07424 4.42854 3.07516 4.45257 3.07516 4.47745H-0.924837ZM-0.209136 3.20028C-0.422388 3.38424 -1.05094 3.87887 -1.44723 4.66291L2.12266 6.46731C2.10105 6.51006 2.08547 6.51877 2.12093 6.48197C2.14038 6.46178 2.16984 6.43333 2.21808 6.3902C2.27088 6.34301 2.32137 6.30001 2.40365 6.22904L-0.209136 3.20028ZM-1.44738 4.6632C-2.67396 7.09089 -1.79993 10.1538 0.625474 11.4769L2.54108 7.96544C2.08079 7.71434 1.83449 7.03767 2.12281 6.46702L-1.44738 4.6632ZM0.625589 11.477C0.924144 11.6398 1.25423 11.7418 1.59682 11.7742L1.97301 7.79189C2.17466 7.81094 2.36771 7.87088 2.54096 7.96538L0.625589 11.477ZM1.59682 11.7742C1.93946 11.8065 2.28411 11.7683 2.61004 11.6627L1.37791 7.85723C1.56873 7.79544 1.77131 7.77284 1.97301 7.79189L1.59682 11.7742ZM2.61004 11.6627C2.93582 11.5573 3.23364 11.3876 3.48791 11.1674L0.869359 8.14366C1.01491 8.01761 1.18724 7.91896 1.37791 7.85723L2.61004 11.6627ZM3.48791 11.1674C3.74201 10.9474 3.94744 10.6814 4.096 10.3873L0.525547 8.58399C0.608348 8.42005 0.723977 8.26956 0.869359 8.14366L3.48791 11.1674ZM4.096 10.3873C4.2445 10.0933 4.3343 9.77492 4.36268 9.45026L0.37787 9.10196C0.393447 8.92374 0.442809 8.74781 0.525547 8.58399L4.096 10.3873ZM4.36268 9.45026C4.39105 9.12561 4.35776 8.79767 4.26375 8.48425L0.432402 9.6335C0.380499 9.46047 0.362294 9.28016 0.37787 9.10196L4.36268 9.45026ZM4.26375 8.48425C4.16971 8.17075 4.01589 7.87515 3.80763 7.61553L0.687486 10.1185C0.569837 9.97181 0.484328 9.80661 0.432402 9.6335L4.26375 8.48425ZM3.80763 7.61553C3.59924 7.35576 3.33979 7.13643 3.0414 6.97374L1.12665 10.4857C0.953581 10.3913 0.805265 10.2653 0.687486 10.1185L3.80763 7.61553ZM3.04183 6.97398C3.04583 6.97616 3.05075 6.97941 3.05577 6.98366C3.06069 6.98783 3.06463 6.99202 3.06756 6.99572C3.07323 7.00287 3.07404 7.00663 3.07366 7.00535C3.07327 7.00405 3.07289 7.00156 3.07311 6.99887C3.07323 6.99742 3.07356 6.9941 3.07697 6.98735L-0.493219 5.18353C-1.4489 7.07504 -0.783836 9.44346 1.12622 10.4855L3.04183 6.97398ZM3.07682 6.98764C3.07423 6.99277 3.07063 6.99896 3.06608 7.00556C3.06154 7.01212 3.05702 7.01768 3.05311 7.02197C3.04487 7.03103 3.04347 7.03002 3.05622 7.0215L0.834103 3.69552C0.306067 4.0483 -0.166878 4.53788 -0.493074 5.18324L3.07682 6.98764ZM3.05821 7.02017C3.46998 6.74436 3.78557 6.35856 3.97769 5.91746L0.310426 4.32022C0.417082 4.07534 0.594559 3.85597 0.832117 3.69685L3.05821 7.02017ZM3.97769 5.91746C4.16957 5.47689 4.23355 4.99285 4.16573 4.52091L0.206406 5.08987C0.169197 4.83094 0.204002 4.56457 0.310426 4.32022L3.97769 5.91746ZM4.16572 4.5208C4.16114 4.48893 4.15767 4.46422 4.15491 4.44353C4.15216 4.42285 4.15068 4.41043 4.14993 4.40359C4.14917 4.39665 4.14966 4.39992 4.15037 4.41057C4.15108 4.42109 4.15241 4.44449 4.15241 4.47745H0.152406C0.152406 4.73079 0.191132 4.98362 0.206421 5.08997L4.16572 4.5208ZM4.15241 4.47745C4.15241 4.37773 4.18861 4.31386 4.22224 4.27892C4.25425 4.24565 4.28073 4.23872 4.30689 4.23872V0.238725C1.93478 0.238725 0.152406 2.20317 0.152406 4.47745H4.15241ZM4.30689 4.23872C4.27428 4.23872 4.2562 4.2354 4.258 4.23572C4.26126 4.23631 4.28314 4.24052 4.33027 4.25512L5.51435 0.434393C5.18195 0.331383 4.77281 0.238725 4.30689 0.238725V4.23872ZM4.33024 4.25511C4.92016 4.43795 5.55415 4.39743 6.11435 4.14438L4.46771 0.499027C4.79501 0.351185 5.16782 0.326995 5.51438 0.434405L4.33024 4.25511ZM6.11435 4.14438C6.67261 3.89221 7.10899 3.45193 7.36339 2.91944L3.75415 1.19509C3.89562 0.898964 4.14235 0.645995 4.46771 0.499027L6.11435 4.14438ZM7.36355 2.91911C7.34727 2.9532 7.31358 3.0011 7.24937 3.0439C7.18037 3.0899 7.09048 3.11936 7 3.11936V-0.880638C5.5138 -0.880638 4.31647 0.0175341 3.75399 1.19542L7.36355 2.91911ZM7 3.11936C6.90952 3.11936 6.81963 3.0899 6.75063 3.04391C6.68642 3.0011 6.65273 2.9532 6.63646 2.91911L10.246 1.19542C9.68353 0.0175338 8.4862 -0.880638 7 -0.880638V3.11936ZM6.63662 2.91944C6.89102 3.45193 7.32739 3.89221 7.88565 4.14438L9.53229 0.499027C9.85765 0.645997 10.1044 0.898967 10.2459 1.19509L6.63662 2.91944ZM7.88565 4.14438C8.44585 4.39743 9.07984 4.43795 9.66977 4.25511L8.48562 0.434405C8.83218 0.326995 9.20499 0.351185 9.53229 0.499027L7.88565 4.14438ZM9.66973 4.25512C9.71686 4.24052 9.73874 4.23631 9.742 4.23572C9.7438 4.2354 9.72572 4.23872 9.69311 4.23872V0.238725C9.22719 0.238725 8.81805 0.331383 8.48566 0.434393L9.66973 4.25512ZM9.69311 4.23872C9.71927 4.23872 9.74575 4.24565 9.77776 4.27892C9.8114 4.31386 9.84759 4.37773 9.84759 4.47745H13.8476C13.8476 2.20317 12.0652 0.238725 9.69311 0.238725V4.23872ZM9.84759 4.47745C9.84759 4.4445 9.84892 4.4211 9.84963 4.41058C9.85034 4.39993 9.85083 4.39665 9.85007 4.40359C9.84932 4.41043 9.84784 4.42286 9.84509 4.44353C9.84233 4.46421 9.83886 4.48893 9.83428 4.5208L13.7936 5.08998C13.8089 4.98361 13.8476 4.73079 13.8476 4.47745H9.84759ZM9.83427 4.52091C9.76645 4.99285 9.83043 5.47689 10.0223 5.91746L13.6896 4.32022C13.796 4.56457 13.8308 4.83094 13.7936 5.08987L9.83427 4.52091ZM10.0223 5.91746C10.2144 6.35855 10.53 6.74435 10.9418 7.02017L13.1679 3.69685C13.4054 3.85597 13.5829 4.07534 13.6896 4.32022L10.0223 5.91746ZM10.9438 7.0215C10.9576 7.03076 10.9569 7.03242 10.949 7.02373C10.9452 7.01958 10.9406 7.01399 10.9359 7.00717C10.9312 7.0003 10.9272 6.99358 10.9242 6.98764L14.4941 5.18324C14.1665 4.53511 13.6911 4.04638 13.1659 3.69552L10.9438 7.0215ZM10.9241 6.98735C10.9274 6.99382 10.9276 6.99686 10.9277 6.9981C10.9279 7.00059 10.9276 7.00302 10.9272 7.00438C10.9268 7.00574 10.9275 7.00217 10.933 6.99524C10.9358 6.99165 10.9397 6.98755 10.9445 6.98348C10.9494 6.97931 10.9542 6.97612 10.9582 6.97398L12.8738 10.4855C14.7822 9.44435 15.4508 7.07673 14.4943 5.18353L10.9241 6.98735ZM10.9584 6.97383C10.6601 7.13653 10.4007 7.35586 10.1923 7.61564L13.3126 10.1184C13.1948 10.2652 13.0466 10.3912 12.8735 10.4856L10.9584 6.97383ZM10.1923 7.61564C9.98408 7.87525 9.83028 8.17084 9.73626 8.48433L13.5677 9.63342C13.5157 9.80653 13.4302 9.97173 13.3126 10.1184L10.1923 7.61564ZM9.73626 8.48433C9.64227 8.79774 9.60899 9.12566 9.63737 9.45029L13.6222 9.10191C13.6377 9.2801 13.6196 9.46039 13.5677 9.63342L9.73626 8.48433ZM9.63737 9.45029C9.66575 9.77496 9.75556 10.0933 9.90404 10.3873L13.4745 8.58397C13.5572 8.74776 13.6066 8.92368 13.6222 9.10191L9.63737 9.45029ZM9.90404 10.3873C10.0526 10.6814 10.258 10.9473 10.5121 11.1674L13.1307 8.14366C13.2761 8.26956 13.3917 8.42004 13.4745 8.58397L9.90404 10.3873ZM10.5121 11.1674C10.7663 11.3876 11.0641 11.5572 11.3899 11.6627L12.6222 7.85722C12.8128 7.91896 12.9852 8.01761 13.1307 8.14366L10.5121 11.1674ZM11.3899 11.6627C11.7158 11.7682 12.0604 11.8065 12.4031 11.7742L12.0271 7.79186C12.2288 7.77282 12.4314 7.79544 12.6222 7.85722L11.3899 11.6627ZM12.4031 11.7742C12.7456 11.7418 13.0757 11.6399 13.3743 11.4771L11.4592 7.9653C11.6324 7.87082 11.8255 7.81089 12.0271 7.79186L12.4031 11.7742ZM13.3745 11.4769C15.7999 10.1538 16.674 7.09089 15.4474 4.6632L11.8772 6.46702C12.1655 7.03767 11.9192 7.71434 11.4589 7.96544L13.3745 11.4769ZM15.4473 4.66301C15.051 3.87887 14.4223 3.38417 14.2091 3.20028L11.5964 6.22904C11.6786 6.30003 11.7291 6.34301 11.7819 6.39022C11.8302 6.43335 11.8596 6.4618 11.8791 6.48198C11.9145 6.51878 11.8989 6.51004 11.8773 6.46721L15.4473 4.66301ZM14.8913 4.92825C14.8906 4.93498 14.8902 4.93711 14.8923 4.92129C14.8936 4.91172 14.8987 4.87436 14.903 4.8376C14.9136 4.74862 14.9248 4.62669 14.9248 4.47745H10.9248C10.9248 4.45257 10.9258 4.42854 10.9273 4.40647C10.9287 4.38503 10.9305 4.36992 10.931 4.36587C10.9311 4.36425 10.9311 4.36479 10.9305 4.36957C10.9302 4.37193 10.9298 4.37479 10.9292 4.37888C10.9288 4.38196 10.9279 4.38856 10.9273 4.39338C10.9258 4.40436 10.9238 4.42008 10.9216 4.43776C10.9193 4.4558 10.9167 4.47718 10.9142 4.50106L14.8913 4.92825ZM14.9248 4.47745C14.9248 1.59801 12.6476 -0.880638 9.69311 -0.880638V3.11936C10.2953 3.11936 10.9248 3.66117 10.9248 4.47745H14.9248ZM9.69311 -0.880638C9.40973 -0.880638 9.17157 -0.843109 8.99929 -0.808603C8.91612 -0.791944 8.84126 -0.774436 8.79127 -0.762644C8.73225 -0.748725 8.70852 -0.742986 8.68165 -0.737105L9.53685 3.17041C9.60477 3.15554 9.6747 3.13874 9.70951 3.13053C9.75335 3.12019 9.77251 3.11597 9.78488 3.1135C9.80367 3.10973 9.76264 3.11936 9.69311 3.11936V-0.880638ZM10.75 0.0730546C10.0118 -0.986199 8.7379 -2 7 -2V2C7.04579 2 7.09391 2.00955 7.16411 2.05246C7.24464 2.10167 7.35521 2.19775 7.46846 2.36025L10.75 0.0730546ZM6.9591 2.47006C6.26159 2.48139 5.61377 2.78019 5.15234 3.27393L8.07478 6.00511C7.81216 6.28612 7.43624 6.46284 7.02407 6.46953L6.9591 2.47006ZM5.15234 3.27393C4.69335 3.76506 4.45294 4.40972 4.46155 5.06349L8.46121 5.01078C8.46591 5.36804 8.33496 5.72671 8.07478 6.00511L5.15234 3.27393ZM4.46138 5.03713V13.4323H8.46138V5.03713H4.46138ZM4.46156 13.4051C4.45709 13.7338 4.51541 14.0616 4.6348 14.3703L8.36554 12.9276C8.4317 13.0987 8.46365 13.2793 8.46119 13.4596L4.46156 13.4051ZM4.6348 14.3703C4.75423 14.6792 4.9334 14.9652 5.16559 15.2099L8.06724 12.4566C8.1992 12.5957 8.29935 12.7564 8.36554 12.9276L4.6348 14.3703ZM5.16559 15.2099C5.39793 15.4547 5.67903 15.6536 5.99475 15.7908L7.58945 12.1225C7.77347 12.2024 7.93513 12.3174 8.06724 12.4566L5.16559 15.2099ZM5.99475 15.7908C6.31068 15.9282 6.65263 16 7 16V12C7.20461 12 7.40522 12.0424 7.58945 12.1225L5.99475 15.7908ZM7 16C7.34738 16 7.68932 15.9282 8.00526 15.7908L6.41055 12.1225C6.59478 12.0424 6.79539 12 7 12V16ZM8.00526 15.7908C8.32097 15.6536 8.60207 15.4547 8.83441 15.2099L5.93276 12.4566C6.06487 12.3174 6.22653 12.2024 6.41055 12.1225L8.00526 15.7908ZM8.83441 15.2099C9.0666 14.9652 9.24577 14.6792 9.3652 14.3703L5.63446 12.9276C5.70066 12.7564 5.8008 12.5957 5.93276 12.4566L8.83441 15.2099ZM9.3652 14.3703C9.48459 14.0616 9.54291 13.7338 9.53844 13.4051L5.53881 13.4596C5.53635 13.2793 5.5683 13.0987 5.63446 12.9276L9.3652 14.3703ZM9.53862 13.4323V5.03713H5.53862V13.4323H9.53862ZM9.53845 5.06349C9.54282 4.73169 9.48319 4.40073 9.36135 4.08949L5.63659 5.54763C5.56906 5.37512 5.5364 5.19281 5.5388 5.01078L9.53845 5.06349ZM9.36135 4.08949C9.23947 3.77815 9.05676 3.49034 8.82026 3.24506L5.9408 6.02152C5.80632 5.88205 5.70416 5.72024 5.63659 5.54763L9.36135 4.08949ZM8.82026 3.24506C8.5836 2.99962 8.2976 2.8016 7.97702 2.66685L6.42699 6.35431C6.24003 6.27572 6.07545 6.16116 5.9408 6.02152L8.82026 3.24506ZM7.97702 2.66685C7.65624 2.532 7.30984 2.46437 6.95913 2.47006L7.02404 6.46953C6.81745 6.47289 6.61416 6.43299 6.42699 6.35431L7.97702 2.66685ZM3.82171 4.71012C3.36663 4.69987 2.92083 4.81315 2.52913 5.03322L4.48847 8.52048C4.26113 8.64822 3.99995 8.71515 3.73166 8.70911L3.82171 4.71012ZM2.52913 5.03322C2.13806 5.25295 1.81795 5.56927 1.59326 5.94352L5.0227 8.0024C4.8969 8.21194 4.7152 8.39309 4.48847 8.52048L2.52913 5.03322ZM1.59326 5.94352C1.36884 6.31734 1.24499 6.7395 1.22829 7.16887L5.22527 7.32436C5.21611 7.55974 5.14823 7.7933 5.0227 8.0024L1.59326 5.94352ZM1.22829 7.16887C1.21159 7.59819 1.30226 8.0278 1.49567 8.41674L5.07724 6.63562C5.18489 6.85209 5.23442 7.08901 5.22527 7.32436L1.22829 7.16887ZM3.28646 7.52618C1.48841 8.40198 1.4881 8.40135 1.48781 8.40074C1.48771 8.40055 1.48742 8.39994 1.48723 8.39955C1.48685 8.39878 1.48649 8.39803 1.48615 8.39732C1.48545 8.39589 1.48482 8.39458 1.48425 8.39339C1.48312 8.39102 1.48222 8.38915 1.48157 8.38776C1.48025 8.38498 1.47989 8.38417 1.48041 8.3853C1.48145 8.38756 1.48603 8.39761 1.49368 8.41535C1.50898 8.45084 1.53651 8.51706 1.57248 8.61328C1.64441 8.80574 1.74997 9.11801 1.85872 9.54439C2.07603 10.3963 2.30689 11.7067 2.30689 13.4323H6.30689C6.30689 11.3468 6.02754 9.70412 5.73463 8.55576C5.58828 7.982 5.43872 7.53232 5.31932 7.21287C5.25962 7.05313 5.20744 6.9259 5.16693 6.83193C5.14668 6.78495 5.12933 6.74626 5.11543 6.71598C5.10847 6.70084 5.10238 6.68779 5.0972 6.67686C5.09461 6.67139 5.09226 6.66645 5.09014 6.66203C5.08908 6.65983 5.08808 6.65775 5.08714 6.65581C5.08667 6.65484 5.08622 6.65391 5.08578 6.653C5.08556 6.65255 5.08524 6.65189 5.08513 6.65167C5.08482 6.65102 5.08451 6.65039 3.28646 7.52618ZM2.30708 13.4051C2.3026 13.7338 2.36092 14.0616 2.48031 14.3703L6.21106 12.9276C6.27721 13.0987 6.30916 13.2792 6.30671 13.4596L2.30708 13.4051ZM2.48031 14.3703C2.59974 14.6792 2.77892 14.9652 3.0111 15.2099L5.91276 12.4566C6.04471 12.5957 6.14486 12.7564 6.21106 12.9276L2.48031 14.3703ZM3.0111 15.2099C3.24345 15.4547 3.52455 15.6536 3.84026 15.7908L5.43497 12.1225C5.61898 12.2024 5.78065 12.3174 5.91276 12.4566L3.0111 15.2099ZM3.84026 15.7908C4.15619 15.9282 4.49814 16 4.84551 16V12C5.05013 12 5.25074 12.0424 5.43497 12.1225L3.84026 15.7908ZM4.84551 16C5.19289 16 5.53484 15.9282 5.85077 15.7908L4.25606 12.1225C4.44029 12.0424 4.6409 12 4.84551 12V16ZM5.85077 15.7908C6.16648 15.6536 6.44758 15.4547 6.67992 15.2099L3.77827 12.4566C3.91038 12.3174 4.07205 12.2024 4.25606 12.1225L5.85077 15.7908ZM6.67992 15.2099C6.91211 14.9652 7.09129 14.6792 7.21072 14.3703L3.47997 12.9276C3.54617 12.7564 3.64632 12.5957 3.77827 12.4566L6.67992 15.2099ZM7.21072 14.3703C7.33011 14.0616 7.38842 13.7338 7.38395 13.4051L3.38432 13.4596C3.38187 13.2793 3.41381 13.0987 3.47997 12.9276L7.21072 14.3703ZM7.38414 13.4323C7.38414 11.2317 7.07403 9.46152 6.75367 8.22006C6.59349 7.59935 6.43058 7.11012 6.30213 6.76429C6.23788 6.59131 6.18218 6.45401 6.13964 6.35386C6.11836 6.30378 6.10037 6.26296 6.08623 6.23158C6.07916 6.21589 6.07306 6.20257 6.06798 6.19162C6.06545 6.18614 6.06317 6.18126 6.06116 6.17698C6.06015 6.17484 6.05921 6.17285 6.05834 6.17101C6.05791 6.17009 6.05749 6.16921 6.05709 6.16836C6.05689 6.16794 6.0566 6.16733 6.0565 6.16712C6.05622 6.16652 6.05594 6.16594 4.25008 7.02553C2.44423 7.88512 2.44396 7.88455 2.4437 7.88399C2.44361 7.88382 2.44335 7.88326 2.44318 7.88291C2.44285 7.88221 2.44254 7.88155 2.44224 7.88092C2.44164 7.87966 2.44111 7.87854 2.44065 7.87756C2.43973 7.8756 2.43908 7.8742 2.43869 7.87335C2.43791 7.87167 2.43817 7.87221 2.43941 7.87495C2.44188 7.88044 2.44825 7.89474 2.45799 7.91766C2.47747 7.96351 2.51036 8.04379 2.55243 8.15705C2.63661 8.38368 2.75722 8.74159 2.88055 9.21953C3.12721 10.1754 3.38414 11.6086 3.38414 13.4323H7.38414ZM6.06332 6.18162C5.86859 5.76323 5.56139 5.39825 5.1664 5.13466L2.94606 8.46184C2.71816 8.30975 2.54513 8.10208 2.43685 7.86944L6.06332 6.18162ZM5.1664 5.13466C4.77064 4.87056 4.30502 4.72089 3.82123 4.71011L3.73215 8.70912C3.44688 8.70276 3.17474 8.61444 2.94606 8.46184L5.1664 5.13466ZM10.101 4.71245C9.63072 4.73753 9.18165 4.89359 8.80082 5.1565L11.0733 8.44829C10.8535 8.60003 10.5913 8.69199 10.314 8.70678L10.101 4.71245ZM8.80082 5.1565C8.42067 5.41893 8.12481 5.77615 7.93569 6.18375L11.5641 7.86731C11.459 8.09395 11.2924 8.29702 11.0733 8.44829L8.80082 5.1565ZM9.74992 7.02553C7.94406 6.16594 7.94378 6.16653 7.9435 6.16712C7.9434 6.16733 7.94311 6.16794 7.94291 6.16836C7.94251 6.16921 7.94209 6.17009 7.94166 6.17101C7.94079 6.17285 7.93985 6.17484 7.93884 6.17698C7.93683 6.18127 7.93455 6.18614 7.93202 6.19162C7.92694 6.20257 7.92084 6.2159 7.91377 6.23158C7.89963 6.26296 7.88164 6.30378 7.86036 6.35386C7.81782 6.45401 7.76212 6.59131 7.69787 6.76429C7.56942 7.11012 7.40651 7.59935 7.24633 8.22006C6.92597 9.46152 6.61587 11.2317 6.61587 13.4323H10.6159C10.6159 11.6086 10.8728 10.1754 11.1195 9.21953C11.2428 8.74159 11.3634 8.38368 11.4476 8.15705C11.4896 8.04379 11.5225 7.96351 11.542 7.91766C11.5517 7.89474 11.5581 7.88044 11.5606 7.87495C11.5618 7.87221 11.5621 7.87167 11.5613 7.87335C11.5609 7.8742 11.5603 7.8756 11.5593 7.87756C11.5589 7.87854 11.5584 7.87966 11.5578 7.88092C11.5575 7.88155 11.5571 7.88221 11.5568 7.88291C11.5567 7.88326 11.5564 7.88382 11.5563 7.88399C11.556 7.88455 11.5558 7.88512 9.74992 7.02553ZM6.61605 13.4051C6.61158 13.7338 6.6699 14.0616 6.78929 14.3703L10.52 12.9276C10.5862 13.0987 10.6181 13.2793 10.6157 13.4596L6.61605 13.4051ZM6.78929 14.3703C6.90871 14.6792 7.08788 14.9652 7.32008 15.2099L10.2217 12.4566C10.3537 12.5957 10.4538 12.7564 10.52 12.9276L6.78929 14.3703ZM7.32008 15.2099C7.55242 15.4547 7.83352 15.6536 8.14923 15.7908L9.74394 12.1225C9.92795 12.2024 10.0896 12.3174 10.2217 12.4566L7.32008 15.2099ZM8.14923 15.7908C8.46516 15.9282 8.80711 16 9.15449 16V12C9.3591 12 9.55971 12.0424 9.74394 12.1225L8.14923 15.7908ZM9.15449 16C9.50186 16 9.84381 15.9282 10.1597 15.7908L8.56503 12.1225C8.74926 12.0424 8.94987 12 9.15449 12V16ZM10.1597 15.7908C10.4754 15.6536 10.7566 15.4547 10.9889 15.2099L8.08725 12.4566C8.21936 12.3174 8.38103 12.2024 8.56503 12.1225L10.1597 15.7908ZM10.9889 15.2099C11.2211 14.9652 11.4003 14.6792 11.5197 14.3703L7.78894 12.9276C7.85514 12.7564 7.95528 12.5957 8.08725 12.4566L10.9889 15.2099ZM11.5197 14.3703C11.6391 14.0616 11.6974 13.7338 11.6929 13.4051L7.69329 13.4596C7.69084 13.2793 7.72278 13.0987 7.78894 12.9276L11.5197 14.3703ZM11.6931 13.4323C11.6931 11.7067 11.924 10.3963 12.1413 9.54439C12.25 9.11801 12.3556 8.80574 12.4275 8.61328C12.4635 8.51706 12.491 8.45084 12.5063 8.41535C12.514 8.39761 12.5186 8.38756 12.5196 8.3853C12.5201 8.38417 12.5197 8.38498 12.5184 8.38776C12.5178 8.38915 12.5169 8.39102 12.5157 8.39339C12.5152 8.39458 12.5145 8.39589 12.5139 8.39732C12.5135 8.39803 12.5131 8.39878 12.5128 8.39955C12.5126 8.39994 12.5123 8.40055 12.5122 8.40074C12.5119 8.40135 12.5116 8.40198 10.7135 7.52618C8.91549 6.65039 8.91518 6.65102 8.91487 6.65167C8.91476 6.65189 8.91444 6.65255 8.91422 6.653C8.91378 6.6539 8.91333 6.65484 8.91286 6.65581C8.91192 6.65775 8.91092 6.65983 8.90986 6.66203C8.90774 6.66645 8.90539 6.67139 8.9028 6.67686C8.89762 6.68779 8.89153 6.70084 8.88457 6.71598C8.87067 6.74626 8.85333 6.78495 8.83307 6.83193C8.79256 6.9259 8.74038 7.05313 8.68068 7.21287C8.56128 7.53232 8.41173 7.982 8.26538 8.55576C7.97246 9.70412 7.69311 11.3468 7.69311 13.4323H11.6931ZM12.5033 8.41889C12.7001 8.02428 12.791 7.5877 12.7713 7.152L8.77541 7.33268C8.76461 7.09385 8.81428 6.8531 8.92383 6.63347L12.5033 8.41889ZM12.7713 7.152C12.7516 6.71625 12.6216 6.2886 12.3882 5.91209L8.98815 8.01906C8.85752 7.80826 8.78621 7.57155 8.77541 7.33268L12.7713 7.152ZM12.3882 5.91209C12.1546 5.53513 11.8234 5.21947 11.421 5.00517L9.54091 8.53578C9.30729 8.41137 9.11906 8.23032 8.98815 8.01906L12.3882 5.91209ZM11.421 5.00517C11.018 4.79053 10.5619 4.68774 10.1005 4.71248L10.3146 8.70675C10.0426 8.72133 9.77518 8.66053 9.54091 8.53578L11.421 5.00517Z" fill="currentColor" mask="url(#path-1-inside-1)"/>
</svg>
