<svg width="16" height="16" viewBox="0 0 16 16" fill="none" stroke="currentColor" xmlns="http://www.w3.org/2000/svg">
    <path d="M10.3 5.4C10.1 3.2 8.05005 1.5 8.05005 1.5C8.05005 1.5 5.95005 3.2 5.80005 5.4C5.80005 5.5 5.80005 5.55 5.80005 5.65C5.80005 6.9 6.80005 7.9 8.05005 7.9C9.30005 7.9 10.3 6.9 10.3 5.65C10.3 5.55 10.3 5.45 10.3 5.4Z" stroke-miterlimit="10" stroke-linecap="round" stroke-linejoin="round"/>
    <path d="M9.7 12.55H3.7C1.95 12.55 0.5 11.1 0.5 9.35V8.95C0.5 7.2 1.95 5.75 3.7 5.75V14.75" stroke-miterlimit="10" stroke-linecap="round" stroke-linejoin="round"/>
    <path d="M12 10.35V5.75H12.25C14 5.75 15.45 7.2 15.45 8.95V9.35C15.45 10.2 15.1 11 14.55 11.6" stroke-miterlimit="10" stroke-linecap="round" stroke-linejoin="round"/>
    <path d="M12.15 14.75C13.365 14.75 14.35 13.765 14.35 12.55C14.35 11.3349 13.365 10.35 12.15 10.35C10.9349 10.35 9.94995 11.3349 9.94995 12.55C9.94995 13.765 10.9349 14.75 12.15 14.75Z" stroke-miterlimit="10" stroke-linecap="round" stroke-linejoin="round"/>
    <path d="M5.94995 12.55V10.5" stroke-miterlimit="10" stroke-linecap="round" stroke-linejoin="round"/>
    <path d="M7.94995 12.55V10.5" stroke-miterlimit="10" stroke-linecap="round" stroke-linejoin="round"/>
</svg>
