<svg width="16" height="16" viewBox="0 0 16 16" fill="none" xmlns="http://www.w3.org/2000/svg">
    <path d="M8.15003 4.15002C8.15003 4.15002 9.25003 5.50002 7.70003 7.50002C5.60003 10.25 8.15003 11.85 8.15003 11.85C8.15003 11.85 6.65003 10.3 8.35003 8.00002C9.85003 5.95002 8.85003 4.70002 8.15003 4.15002Z" fill="#606580" stroke-miterlimit="10" stroke-linecap="round" stroke-linejoin="round"/>
    <path d="M5.29993 5.70007C5.29993 5.70007 5.94993 6.50007 5.04993 7.70007C3.79993 9.30007 5.34993 10.3001 5.34993 10.3001C5.34993 10.3001 4.44993 9.35007 5.44993 8.00007C6.34993 6.80007 5.74993 6.05007 5.29993 5.70007Z" fill="#606580" stroke-miterlimit="10" stroke-linecap="round" stroke-linejoin="round"/>
    <path d="M10.85 5.70007C10.85 5.70007 11.5 6.50007 10.6 7.70007C9.34998 9.30007 10.9 10.3001 10.9 10.3001C10.9 10.3001 9.99998 9.35007 11 8.00007C11.85 6.80007 11.25 6.05007 10.85 5.70007Z" fill="#606580" stroke-miterlimit="10" stroke-linecap="round" stroke-linejoin="round"/>
    <path d="M12.05 1.05C11.85 1 11.65 1 11.45 1H4.55C2.6 1 1 2.6 1 4.55V11.45C1 11.65 1 11.85 1.05 12.05" stroke-miterlimit="10" stroke-linecap="round" stroke-linejoin="round"/>
    <path d="M3.94995 14.95C4.14995 15 4.34995 15 4.54995 15H11.45C13.4 15 15 13.4 15 11.45V4.54995C15 4.34995 15 4.14995 14.95 3.94995" stroke-miterlimit="10" stroke-linecap="round" stroke-linejoin="round"/>
</svg>
