<svg width="16" height="16" viewBox="0 0 16 16" fill="none" stroke="currentColor" xmlns="http://www.w3.org/2000/svg">
    <path d="M15 2.79995V6.54995C15 6.89995 14.7 7.19995 14.35 7.19995H12.15C12.15 7.14995 12.15 7.14995 12.15 7.09995C12.15 4.39995 9.95 2.19995 7.25 2.19995H14.35C14.7 2.19995 15 2.49995 15 2.79995Z" stroke-miterlimit="10" stroke-linecap="round" stroke-linejoin="round"/>
    <path d="M12.1501 7.09995C12.1501 7.14995 12.1501 7.14995 12.1501 7.19995C12.1001 8.44995 11.6001 9.64995 10.8001 10.5C9.9001 11.45 8.6501 12.05 7.2501 12.05C5.8501 12.05 4.6001 11.45 3.7001 10.5C2.8501 9.59995 2.3501 8.44995 2.3501 7.09995C2.3501 4.39995 4.5501 2.19995 7.2501 2.19995H7.3001C9.9501 2.19995 12.1501 4.39995 12.1501 7.09995Z" stroke-miterlimit="10" stroke-linecap="round" stroke-linejoin="round"/>
    <path d="M9.69995 7.09998V7.14998C9.69995 7.79998 9.44995 8.39998 8.99995 8.79998C8.54995 9.29998 7.89995 9.59998 7.19995 9.59998C6.49995 9.59998 5.84995 9.29998 5.39995 8.79998C4.99995 8.34998 4.69995 7.74998 4.69995 7.09998C4.69995 5.74998 5.79995 4.59998 7.19995 4.59998C8.59995 4.64998 9.69995 5.74998 9.69995 7.09998Z" stroke-miterlimit="10" stroke-linecap="round" stroke-linejoin="round"/>
    <path d="M13.4501 13.3499C13.4501 13.6999 13.1501 13.7999 12.8001 13.7999H9.80005C9.30005 13.3999 8.30005 12.7999 7.25005 12.7999C6.15005 12.7999 5.20005 13.3999 4.70005 13.7999H1.70005C1.35005 13.7999 1.05005 13.6499 1.05005 13.3499C1.05005 13.3499 1.00005 12.9999 1.05005 12.8999C1.30005 12.1499 3.20005 10.5499 3.55005 10.5499H3.65005C4.55005 11.4999 5.80005 12.0999 7.20005 12.0999C8.60005 12.0999 9.85005 11.4999 10.7501 10.5499H10.8501C11.2001 10.5499 13.1001 12.1499 13.3501 12.8999C13.5001 12.9499 13.4501 13.3499 13.4501 13.3499Z" stroke-miterlimit="10" stroke-linecap="round" stroke-linejoin="round"/>
</svg>
