<svg width="18" height="18" viewBox="0 0 18 18" fill="none" xmlns="http://www.w3.org/2000/svg">
    <path d="M9.88424 11.19C10.1495 10.4826 10.0611 9.77515 9.61895 8.97929C9.48631 8.75822 9.35367 8.58136 9.17681 8.36029C9.13259 9.02351 8.95574 9.64251 8.60202 10.3057L8.29252 10.8805L8.15988 10.2615C8.11566 9.99622 8.02724 9.77515 7.89459 9.59829C7.76195 9.90779 7.62931 10.2173 7.49666 10.5268C7.36402 10.8363 7.36402 11.1458 7.45245 11.4111L7.85038 12.4722L7.49666 12.3396C7.40823 12.2954 7.31981 12.2512 7.23138 12.2069C6.17023 11.5879 5.7723 10.571 6.12602 9.28879C6.25866 8.75822 6.52395 8.31608 6.78923 7.91815L6.83345 7.87393C7.23138 7.1665 7.62931 6.50329 7.85038 5.79586C7.89459 5.70743 7.89459 5.57479 7.93881 5.48636L8.07145 5L8.33674 5.17686C8.38095 5.22107 8.42516 5.22107 8.42516 5.26529L8.64624 5.48636C9.26524 6.10536 9.92845 6.72436 10.4148 7.476C10.9454 8.22765 11.2107 8.93508 11.2991 9.68672C11.4317 10.8363 11.078 11.6764 10.238 12.2512C10.1053 12.3396 9.92845 12.428 9.7516 12.4722C9.70738 12.5164 9.61895 12.5164 9.57474 12.5607" stroke-miterlimit="10" stroke-linecap="round" stroke-linejoin="round"/>
    <path d="M3.17144 16.1241L2.94287 14.4891L4.54287 14.2555" stroke-miterlimit="10" stroke-linecap="round" stroke-linejoin="round"/>
    <path d="M5.62842 1L7.11413 1.70073L6.42842 3.16059" stroke-miterlimit="10" stroke-linecap="round" stroke-linejoin="round"/>
    <path d="M17 11.2774L15.6286 12.1533L14.7715 10.7518" stroke-miterlimit="10" stroke-linecap="round" stroke-linejoin="round"/>
    <path d="M3.3999 14.9562C4.77133 16.2409 6.54275 17 8.54274 17C10.5427 17 12.3142 16.1825 13.6856 14.9562" stroke-miterlimit="10" stroke-linecap="round" stroke-linejoin="round"/>
    <path d="M15.743 11.5694C15.9716 10.8686 16.0859 10.1095 16.0859 9.29199C16.0859 5.61314 13.5716 2.57663 10.2573 1.8175" stroke-miterlimit="10" stroke-linecap="round" stroke-linejoin="round"/>
    <path d="M6.82855 1.8175C3.51428 2.63503 1 5.67154 1 9.29199C1 10.0511 1.11429 10.8102 1.34286 11.5694" stroke-miterlimit="10" stroke-linecap="round" stroke-linejoin="round"/>
</svg>
