<svg width="16" height="16" viewBox="0 0 16 16" fill="none" xmlns="http://www.w3.org/2000/svg">
<path d="M9.90002 2.54999H5.90002" stroke="currentColor" stroke-miterlimit="10" stroke-linecap="round" stroke-linejoin="round"/>
<path d="M3.95 2.54999H2.65C1.9 2.54999 1.25 3.19999 1.25 3.94999V13.6C1.25 14.35 1.9 15 2.65 15H13.35C14.1 15 14.75 14.35 14.75 13.6V3.94999C14.75 3.19999 14.1 2.54999 13.35 2.54999H12.05" stroke="currentColor" stroke-miterlimit="10" stroke-linecap="round" stroke-linejoin="round"/>
<path d="M4.94998 1C4.44998 1 4.09998 1.4 4.09998 1.85V3.8C4.09998 4.3 4.49998 4.65 4.94998 4.65C5.44998 4.65 5.79998 4.25 5.79998 3.8V1.85C5.79998 1.4 5.44998 1 4.94998 1Z" stroke="currentColor" stroke-miterlimit="10" stroke-linecap="round" stroke-linejoin="round"/>
<path d="M11.0498 1C10.5498 1 10.1998 1.4 10.1998 1.85V3.8C10.1998 4.3 10.5998 4.65 11.0498 4.65C11.5498 4.65 11.8998 4.25 11.8998 3.8V1.85C11.8998 1.4 11.5498 1 11.0498 1Z" stroke="currentColor" stroke-miterlimit="10" stroke-linecap="round" stroke-linejoin="round"/>
<path d="M1.44995 6.85001H14.25" stroke="currentColor" stroke-miterlimit="10" stroke-linecap="round" stroke-linejoin="round"/>
</svg>
