<svg width="13" height="8" viewBox="0 0 13 8" fill="none" xmlns="http://www.w3.org/2000/svg">
<path fill-rule="evenodd" clip-rule="evenodd" d="M0.212774 6.82064C0.278782 6.89464 0.359687 6.95386 0.450183 6.9944C0.540679 7.03495 0.638722 7.05591 0.737886 7.05591C0.83705 7.05591 0.935095 7.03495 1.02559 6.9944C1.11609 6.95386 1.19699 6.89464 1.263 6.82064L6.30408 1.77956L11.3872 6.82064C11.4532 6.89464 11.5341 6.95386 11.6246 6.9944C11.7151 7.03495 11.8131 7.05591 11.9123 7.05591C12.0115 7.05591 12.1095 7.03495 12.2 6.9944C12.2905 6.95386 12.3714 6.89464 12.4374 6.82064C12.5114 6.75463 12.5706 6.67373 12.6112 6.58323C12.6517 6.49273 12.6727 6.39469 12.6727 6.29553C12.6727 6.19636 12.6517 6.09832 12.6112 6.00782C12.5706 5.91733 12.5114 5.83642 12.4374 5.77041L6.80819 0.225223C6.7405 0.154044 6.65905 0.0973701 6.56878 0.0586442C6.47851 0.0199184 6.3813 -5.15716e-05 6.28308 -5.15802e-05C6.18485 -5.15888e-05 6.08765 0.0199183 5.99738 0.0586442C5.90711 0.09737 5.82566 0.154044 5.75797 0.225222L0.212774 5.81242C0.145449 5.87798 0.0919391 5.95637 0.0554019 6.04295C0.0188647 6.12953 4.01272e-05 6.22255 4.0119e-05 6.31653C4.01107e-05 6.4105 0.0188647 6.50353 0.0554018 6.59011C0.091939 6.67669 0.145449 6.75507 0.212774 6.82064Z" fill="white"/>
</svg>
