<svg width="15" height="15" viewBox="0 0 15 15" fill="none" xmlns="http://www.w3.org/2000/svg">
<path d="M2.30769 0V1.15385H1.73077C0.779747 1.15385 0 1.93359 0 2.88462V13.2692C0 14.2203 0.779747 15 1.73077 15H13.2692C14.2203 15 15 14.2203 15 13.2692V2.88462C15 1.93359 14.2203 1.15385 13.2692 1.15385H12.6923V0H11.5385V1.15385H3.46154V0H2.30769ZM1.73077 2.30769H2.30769V3.46154H3.46154V2.30769H11.5385V3.46154H12.6923V2.30769H13.2692C13.5938 2.30769 13.8462 2.5601 13.8462 2.88462V4.61538H1.15385V2.88462C1.15385 2.5601 1.40625 2.30769 1.73077 2.30769ZM1.15385 5.76923H13.8462V13.2692C13.8462 13.5938 13.5938 13.8462 13.2692 13.8462H1.73077C1.40625 13.8462 1.15385 13.5938 1.15385 13.2692V5.76923ZM2.30769 6.92308V8.07692H3.46154V6.92308H2.30769ZM4.61538 6.92308V8.07692H5.76923V6.92308H4.61538ZM2.30769 9.23077V10.3846H3.46154V9.23077H2.30769ZM4.61538 9.23077V10.3846H5.76923V9.23077H4.61538ZM2.30769 11.5385V12.6923H3.46154V11.5385H2.30769ZM4.61538 11.5385V12.6923H5.76923V11.5385H4.61538Z" fill="#8C99B2"/>
</svg>
