<svg width="24" height="19" viewBox="0 0 24 19" fill="none" xmlns="http://www.w3.org/2000/svg">
<path d="M9.35419 11.3748C7.83078 12.8598 7.00128 14.793 7 16.7002C6.99433 17.0397 7.03354 17.3774 7.11576 17.7046H1.50306H1.50091L1.5017 17.7046L1.50288 17.7046L1.49981 17.7045C1.49472 17.7043 1.48495 17.7039 1.47117 17.7029C1.44345 17.701 1.40058 17.6967 1.34782 17.688C1.23995 17.67 1.10375 17.6349 0.973607 17.5699C0.845422 17.5058 0.732447 17.4175 0.6504 17.2944C0.57044 17.1745 0.5 16.9921 0.5 16.7046C0.5 16.0742 0.832122 14.6896 1.87963 13.4675C2.90667 12.2693 4.64134 11.2046 7.5 11.2046V11.2046L7.50581 11.2046C8.127 11.1973 8.7464 11.2545 9.35419 11.3748ZM10.5017 17.7046L10.5029 17.7046L10.4998 17.7045C10.4975 17.7044 10.4942 17.7043 10.49 17.7041C10.4849 17.7038 10.4786 17.7035 10.4712 17.7029C10.4434 17.701 10.4006 17.6967 10.3478 17.688C10.2399 17.67 10.1037 17.6349 9.97361 17.5699C9.84542 17.5058 9.73245 17.4175 9.6504 17.2944C9.57044 17.1745 9.5 16.9921 9.5 16.7046C9.5 16.0742 9.83212 14.6896 10.8796 13.4675C11.9067 12.2693 13.6413 11.2046 16.5 11.2046C19.3587 11.2046 21.0933 12.2693 22.1204 13.4675C23.1679 14.6896 23.5 16.0742 23.5 16.7046C23.5 16.9921 23.4296 17.1745 23.3496 17.2944C23.2676 17.4175 23.1546 17.5058 23.0264 17.5699C22.8962 17.6349 22.7601 17.67 22.6522 17.688C22.5994 17.6967 22.5566 17.701 22.5288 17.7029C22.5151 17.7039 22.5053 17.7043 22.5002 17.7045L22.4971 17.7046L22.4983 17.7046L22.4991 17.7046H22.4969H10.5031H10.5009L10.5017 17.7046ZM19.3284 7.53302C18.5783 8.28316 17.5609 8.70459 16.5 8.70459C15.4391 8.70459 14.4217 8.28316 13.6716 7.53302C12.9214 6.78287 12.5 5.76546 12.5 4.70459C12.5 3.64372 12.9214 2.62631 13.6716 1.87616C14.4217 1.12602 15.4391 0.70459 16.5 0.70459C17.5609 0.70459 18.5783 1.12602 19.3284 1.87616C20.0786 2.62631 20.5 3.64372 20.5 4.70459C20.5 5.76546 20.0786 6.78287 19.3284 7.53302ZM9.0481 7.75269C8.4386 8.36218 7.61195 8.70459 6.75 8.70459C5.88805 8.70459 5.0614 8.36218 4.4519 7.75269C3.84241 7.14319 3.5 6.31654 3.5 5.45459C3.5 4.59264 3.84241 3.76599 4.4519 3.15649C5.0614 2.547 5.88805 2.20459 6.75 2.20459C7.61195 2.20459 8.4386 2.547 9.0481 3.15649C9.65759 3.76599 10 4.59264 10 5.45459C10 6.31654 9.65759 7.14319 9.0481 7.75269Z" stroke="#606580"/>
</svg>
