<svg xmlns="http://www.w3.org/2000/svg" viewBox="0 0 15.95 16.85"><defs><style>.cls-1{fill:#5e6480;}</style></defs><title>Ресурс 21</title><g id="Слой_2" data-name="Слой 2"><g id="Layer_1" data-name="Layer 1"><path class="cls-1" d="M14.27,3.44H13V3.19a.53.53,0,0,0-.53-.53h0V1.05h.62a.53.53,0,0,0,.54-.52A.54.54,0,0,0,13.11,0H.54A.54.54,0,0,0,0,.53a.53.53,0,0,0,.54.52h.62V15.8H.54a.54.54,0,0,0-.54.53.53.53,0,0,0,.54.52H13.11a.53.53,0,0,0,.54-.52.54.54,0,0,0-.54-.53h-.62V10h.59v1.89a1.53,1.53,0,0,0,1.49,1.68c.67,0,1.38-.44,1.38-1.68V5.11A1.68,1.68,0,0,0,14.27,3.44ZM11.43,15.8H2.22V1.18h9.21Zm3.46-3.93c0,.62-.21.62-.32.62-.38,0-.43-.39-.43-.62V9.76a.83.83,0,0,0-.83-.83h-.82V5.27h0A.53.53,0,0,0,13,4.74V4.49h.48V7.11a1.43,1.43,0,0,0,.36,1,1.17,1.17,0,0,0,.86.38.85.85,0,0,0,.17,0Zm0-4.76c0,.37-.33.39-.33,0V4.57a.61.61,0,0,1,.33.54Z"/><path class="cls-1" d="M4.3,8.48H9.35a1,1,0,0,0,1-1V3.54a1,1,0,0,0-1-1h-5a1,1,0,0,0-1,1v4A1,1,0,0,0,4.3,8.48Zm5-4.94V7.42l-4.91.07L4.3,3.61Z"/></g></g></svg>