<svg xmlns="http://www.w3.org/2000/svg" viewBox="0 0 20.99 12"><defs><style>.cls-1{fill:#5f6580;}</style></defs><title>Ресурс 20</title><g id="Слой_2" data-name="Слой 2"><g id="Layer_1" data-name="Layer 1"><path class="cls-1" d="M8.08,2.2a.46.46,0,0,1-.22-.06L5.9,1A.45.45,0,0,1,5.69.55.43.43,0,0,1,6,.2a9.55,9.55,0,0,1,5.1.39.43.43,0,0,1,.27.55.44.44,0,0,1-.55.27A9.85,9.85,0,0,0,7.4.87l.9.53A.43.43,0,0,1,8.45,2,.42.42,0,0,1,8.08,2.2Z"/><path class="cls-1" d="M8.24,12H8.06a1.21,1.21,0,0,1-.89-.67.44.44,0,0,1,0-.32L8.73,6.71l-.68.17c-.19,0-4.44,1-7.21.06a.47.47,0,0,1-.28-.29l-.14-.5a.4.4,0,0,1,0-.34.41.41,0,0,1,.26-.2l1.2-.32L.1,3.14a.44.44,0,0,1,0-.61l.23-.19a.42.42,0,0,1,.43-.07L4.39,3.68,15.8.82c.25-.06,2.56-.62,3.85,0,.8.35,1,.57,1.08.74l0,.09,0,0a2.07,2.07,0,0,1,.07,1.54,1.22,1.22,0,0,1-.83.66L14.1,5.39l-3.51,5C9.68,11.48,8.91,12,8.24,12Zm-.18-.92a.25.25,0,0,0,.13.05c.15,0,.67,0,1.72-1.26l3.58-5.11a.46.46,0,0,1,.24-.17L19.81,3a.36.36,0,0,0,.27-.2,1.06,1.06,0,0,0,0-.61l-1.73.44a.43.43,0,1,1-.21-.83l1.12-.29A6.93,6.93,0,0,0,16,1.66L4.47,4.55a.42.42,0,0,1-.27,0L1.52,3.48,3,5.25a.41.41,0,0,1,.08.41A.42.42,0,0,1,2.8,6l-1.16.31A17.73,17.73,0,0,0,7.86,6l1.45-.36a.43.43,0,0,1,.43.13.42.42,0,0,1,.08.44Z"/></g></g></svg>