<svg width="35" height="35" viewBox="0 0 35 35" xmlns="http://www.w3.org/2000/svg">
<path opacity="1" d="M17.362 18.4702C17.1164 18.4702 16.8807 18.373 16.7065 18.1999C16.5322 18.0268 16.4335 17.7919 16.4319 17.5463L16.4341 12.8329C16.4577 12.6037 16.5655 12.3914 16.7367 12.2371C16.908 12.0829 17.1303 11.9978 17.3607 11.9982C17.5912 11.9986 17.8134 12.0842 17.984 12.2391C18.1547 12.3939 18.2619 12.6066 18.2847 12.8359L18.2858 17.5401C18.2858 17.7857 18.1888 18.0213 18.0157 18.1955C17.8426 18.3698 17.6076 18.4686 17.362 18.4702Z"/>
<path opacity="1" d="M17.3616 22.7691C17.116 22.7692 16.8804 22.6719 16.7061 22.4989C16.5319 22.3258 16.4331 22.0909 16.4315 21.8453L16.4334 21.4308C16.457 21.2015 16.5648 20.9893 16.7361 20.835C16.9073 20.6808 17.1296 20.5957 17.3601 20.596C17.5905 20.5964 17.8126 20.6824 17.9833 20.8372C18.154 20.992 18.2611 21.2047 18.2839 21.434L18.2855 21.8388C18.2856 22.0844 18.1884 22.3202 18.0153 22.4945C17.8422 22.6687 17.6072 22.7675 17.3616 22.7691Z"/>
<path opacity="1" d="M17.3598 31.6332C17.114 31.6436 16.8742 31.5563 16.6926 31.3903L3.71363 18.3977C3.62675 18.3122 3.55765 18.2106 3.51046 18.0982C3.46327 17.9859 3.43884 17.8653 3.43863 17.7434C3.43843 17.6216 3.46249 17.5008 3.50931 17.3883C3.55613 17.2758 3.62484 17.1737 3.71143 17.088L16.6622 4.13644C16.7482 4.0507 16.8503 3.98273 16.9627 3.93665C17.075 3.89057 17.1954 3.86717 17.3168 3.86785C17.4383 3.86852 17.5584 3.89328 17.6702 3.9406C17.7821 3.98792 17.8835 4.05679 17.9685 4.14348L30.9141 17.0816C31.0848 17.2568 31.1805 17.4915 31.1809 17.736C31.1813 17.9805 31.0864 18.2156 30.9163 18.3913L17.9656 31.3429C17.8032 31.5066 17.5892 31.6091 17.3598 31.6332ZM5.72403 17.7568L17.3407 29.4342L29.0216 17.808L17.3955 6.12719L5.72403 17.7568Z"/>
</svg>
