<svg width="33" height="30" viewBox="0 0 33 30" xmlns="http://www.w3.org/2000/svg">
<path opacity="1" d="M30.4592 13.5992C30.2911 13.4323 30.064 13.3383 29.8272 13.3378C29.5903 13.3372 29.3628 13.4301 29.1939 13.5962L28.8427 13.9472C28.6683 12.1067 28.0726 10.3311 27.102 8.75765C26.1313 7.18419 24.8117 5.85518 23.2451 4.87346C21.6785 3.89174 19.9071 3.28353 18.0678 3.09614C16.2286 2.90874 14.3709 3.14708 12.6385 3.79268C12.4162 3.87832 12.2365 4.0476 12.1377 4.26433C12.0389 4.48106 12.029 4.72798 12.1101 4.9519C12.1962 5.17205 12.3653 5.34955 12.5811 5.44601C12.7969 5.54246 13.0419 5.55022 13.2634 5.4675C14.7325 4.91798 16.3082 4.71288 17.869 4.86816C19.4299 5.02344 20.9342 5.53497 22.2663 6.36317C23.5984 7.19136 24.7227 8.31416 25.5525 9.64524C26.3823 10.9763 26.8956 12.48 27.0528 14.0406L26.5847 13.5723C26.5037 13.4781 26.404 13.4018 26.292 13.348C26.18 13.2943 26.0581 13.2644 25.9339 13.26C25.8097 13.2557 25.686 13.2771 25.5706 13.3229C25.4551 13.3688 25.3503 13.4381 25.2629 13.5264C25.1755 13.6147 25.1074 13.72 25.0627 13.8359C25.0181 13.9519 24.9979 14.0758 25.0035 14.1999C25.0091 14.324 25.0403 14.4456 25.0952 14.557C25.1501 14.6685 25.2275 14.7675 25.3224 14.8476L27.269 16.7798C27.3537 16.8604 27.4542 16.9228 27.5642 16.9628C27.6741 17.0028 27.7912 17.0196 27.908 17.0123C28.1455 17.0118 28.3736 16.9194 28.5445 16.7545L30.4768 14.808C30.6266 14.6413 30.7081 14.4243 30.7048 14.2002C30.7015 13.9761 30.6138 13.7615 30.4592 13.5992Z"/>
<path opacity="1" d="M20.3026 24.7798C18.8383 25.307 17.2732 25.493 15.7261 25.324C14.179 25.155 12.6908 24.6354 11.3749 23.8045C10.0591 22.9736 8.95016 21.8532 8.13255 20.529C7.31493 19.2048 6.81022 17.7115 6.65684 16.1628L7.12485 16.6312C7.29785 16.777 7.51941 16.8524 7.74545 16.8422C7.9715 16.8321 8.18541 16.7371 8.3446 16.5763C8.50378 16.4155 8.59652 16.2007 8.6044 15.9746C8.61227 15.7484 8.53468 15.5276 8.38708 15.3561L6.44062 13.4237C6.26681 13.2646 6.03702 13.181 5.80164 13.1911C5.68385 13.1922 5.56739 13.2169 5.45915 13.2634C5.3509 13.3098 5.25302 13.3771 5.17105 13.4617L3.2387 15.4085C3.1553 15.4904 3.08912 15.588 3.04392 15.6958C2.99872 15.8037 2.9754 15.9195 2.97544 16.0365C2.97549 16.1534 2.99887 16.2691 3.04416 16.3769C3.08944 16.4847 3.15574 16.5824 3.2392 16.6643C3.32397 16.745 3.42453 16.8071 3.53448 16.8471C3.64443 16.8871 3.76141 16.9042 3.87819 16.8969C3.99608 16.8982 4.11313 16.876 4.22241 16.8317C4.33169 16.7875 4.43102 16.7221 4.51476 16.6391L4.86606 16.2879C5.1586 19.2684 6.54784 22.0343 8.76434 24.0484C10.9808 26.0625 13.8665 27.1813 16.8614 27.188C18.2481 27.1829 19.6239 26.9423 20.9301 26.4766C21.0408 26.4369 21.1425 26.3757 21.2294 26.2964C21.3163 26.2171 21.3866 26.1216 21.4363 26.015C21.4859 25.9084 21.5141 25.7928 21.5189 25.6753C21.5237 25.5578 21.5052 25.4405 21.4644 25.3302C21.4253 25.2171 21.364 25.1129 21.2841 25.0237C21.2042 24.9346 21.1074 24.8622 20.9992 24.8109C20.891 24.7597 20.7737 24.7304 20.6541 24.7251C20.5345 24.7197 20.4149 24.7384 20.3026 24.7798Z"/>
<path opacity="1" d="M19.7886 19.2456H13.9942V17.7146H15.8432V13.0802H13.9942V11.6493C14.2651 11.6493 14.534 11.6316 14.801 11.5963C15.0679 11.561 15.2819 11.5041 15.4428 11.4255C15.6313 11.3313 15.7765 11.2057 15.8786 11.0487C15.9846 10.8877 16.0454 10.6895 16.0611 10.4539H17.9808V17.7146H19.7886V19.2456Z"/>
</svg>
