<svg width="35" height="31" viewBox="0 0 35 31" xmlns="http://www.w3.org/2000/svg">
<path opacity="1" d="M16.3318 4.72964C13.2044 4.75027 10.1756 5.82649 7.73639 7.78385C5.29717 9.74121 3.59049 12.4649 2.89296 15.5136C2.85981 15.572 2.8367 15.6355 2.82457 15.7015C2.78159 15.8363 2.77335 15.9796 2.80056 16.1183C2.64863 16.9396 2.56971 17.7729 2.56482 18.608C2.56336 19.697 2.68978 20.7823 2.94149 21.8418C2.98885 22.0449 3.10385 22.2259 3.26758 22.3551C3.43131 22.4843 3.63413 22.5539 3.8427 22.5528L12.1214 22.5545C12.2428 22.5558 12.3633 22.5331 12.4758 22.4876C12.5884 22.4421 12.6909 22.3747 12.7773 22.2895C12.8637 22.2042 12.9324 22.1027 12.9794 21.9907C13.0264 21.8788 13.0508 21.7587 13.0512 21.6373C13.0639 21.0532 13.2265 20.4822 13.5233 19.979C13.8201 19.4758 14.2412 19.0573 14.7462 18.7637C14.7983 18.866 14.87 18.9571 14.9572 19.0319L16.2742 20.1499C16.4401 20.2958 16.6548 20.3739 16.8756 20.3688C16.8756 20.3688 16.9414 20.3928 16.979 20.4064C17.2366 20.3642 17.4676 20.2229 17.6225 20.0127L18.3567 18.9603C18.7966 19.2659 19.1575 19.6718 19.4092 20.1447C19.6609 20.6176 19.7962 21.1438 19.804 21.6794C19.8089 21.9217 19.9083 22.1525 20.0809 22.3227C20.2535 22.4928 20.4858 22.5887 20.7282 22.5902L29.0069 22.592C29.2196 22.5917 29.426 22.5193 29.5923 22.3865C29.7585 22.2537 29.8748 22.0684 29.9221 21.8609C30.1722 20.8006 30.2996 19.7148 30.3016 18.6254C30.3038 16.7937 29.9433 14.9799 29.2411 13.2882C28.5389 11.5965 27.5088 10.0603 26.2102 8.7686C24.9116 7.47684 23.3702 6.45484 21.6747 5.76161C19.9793 5.06838 18.1634 4.71779 16.3318 4.72964ZM28.1496 20.7369L21.4558 20.7373C21.1926 19.4014 20.4207 18.22 19.3029 17.4424L22.8773 12.3584C23.0117 12.1702 23.0703 11.9382 23.0414 11.7088C23.0124 11.4794 22.8982 11.2692 22.7214 11.1202C22.5438 10.9729 22.3181 10.896 22.0874 10.9043C21.8567 10.9126 21.6372 11.0054 21.4706 11.1651L16.0028 16.5393C14.8424 16.6055 13.7372 17.0565 12.8616 17.8208C11.986 18.5851 11.39 19.6192 11.1676 20.76L4.47369 20.7606C4.3446 20.0716 4.28216 19.3719 4.28721 18.6709C4.2868 18.1979 4.31663 17.7252 4.3765 17.256L6.59074 17.9556C6.68084 17.9872 6.7755 18.0036 6.87095 18.0044C7.06702 18.0034 7.25771 17.9398 7.41513 17.8229C7.57254 17.7059 7.68853 17.5418 7.74609 17.3543C7.78552 17.2357 7.80004 17.1104 7.78886 16.9859C7.77769 16.8614 7.74101 16.7407 7.68109 16.631C7.62116 16.5213 7.53934 16.425 7.44062 16.3484C7.34191 16.2717 7.22843 16.2164 7.10733 16.1855L4.70514 15.4174C5.25686 13.4264 6.3133 11.6116 7.77214 10.1487L9.26842 11.8853C9.35736 11.9838 9.46495 12.0638 9.58507 12.1203C9.70519 12.1768 9.83536 12.2088 9.96798 12.2144C10.1872 12.2101 10.3979 12.1283 10.5628 11.9838C10.6568 11.9061 10.7341 11.8104 10.7903 11.7021C10.8466 11.5938 10.8805 11.4752 10.89 11.3536C10.8996 11.232 10.8845 11.1098 10.8458 10.9941C10.8071 10.8784 10.7456 10.7715 10.6648 10.6801L9.16844 8.94368C10.9641 7.62393 13.0948 6.83587 15.3171 6.6695L15.3166 8.65919C15.3166 8.90335 15.4136 9.13761 15.5862 9.31022C15.7589 9.48283 15.9931 9.57969 16.2373 9.57965C16.4814 9.57961 16.7155 9.48259 16.8881 9.30992C17.0607 9.13725 17.1577 8.90314 17.1577 8.65899L17.1617 6.65967C19.6157 6.84744 21.9533 7.78215 23.8602 9.33805C25.7671 10.8939 27.1519 12.9964 27.8284 15.3628L25.3137 16.1609C25.0978 16.2223 24.9118 16.3605 24.7907 16.5495C24.6696 16.7384 24.6219 16.9649 24.6562 17.1867C24.6906 17.4084 24.8048 17.6101 24.9774 17.7535C25.15 17.897 25.3691 17.9721 25.5934 17.9653C25.6896 17.9653 25.785 17.9499 25.8762 17.9193L28.196 17.1887C28.2514 17.6664 28.2827 18.1467 28.2895 18.6276C28.3085 19.3205 28.2662 20.0138 28.1633 20.6993L28.1496 20.7369Z"/>
</svg>
