<svg width="38" height="38" viewBox="0 0 38 38" xmlns="http://www.w3.org/2000/svg">
<path opacity="1" d="M11.0796 14.4093L11.0858 11.2933C11.0972 11.1511 11.0958 11.0082 11.0816 10.8662C11.0272 10.5825 11.0744 10.2887 11.2149 10.0363C11.3554 9.78392 11.5802 9.58896 11.85 9.48574C13.1813 8.72242 14.6436 8.21527 16.1615 7.99029C17.5115 7.78991 18.8862 7.72622 20.2532 7.5959C20.3378 7.62669 20.4557 7.595 20.595 7.59248C20.5985 7.23194 20.5883 6.90899 20.6175 6.5365C20.6186 6.3746 20.6839 6.21984 20.7991 6.10611C20.9144 5.99239 21.0701 5.92899 21.232 5.93006C21.3939 5.93113 21.5487 5.99645 21.6625 6.11169C21.7762 6.22692 21.8394 6.38273 21.8383 6.54463L21.8364 7.54417L25.4237 7.8922L25.4282 7.0318C25.413 6.9425 25.4175 6.85092 25.4414 6.76355C25.4654 6.67617 25.5082 6.59506 25.5668 6.52601C25.6255 6.45696 25.6986 6.40163 25.7809 6.36386C25.8633 6.32609 25.9529 6.30683 26.0435 6.30743C26.1341 6.30803 26.2234 6.32853 26.3053 6.36738C26.3871 6.40623 26.4594 6.46251 26.5172 6.53233C26.5749 6.60215 26.6167 6.68375 26.6395 6.77143C26.6622 6.85912 26.6655 6.95084 26.6491 7.03993L26.6488 8.21026C27.1096 8.34608 27.5616 8.51057 28.0019 8.70277C28.5913 9.01308 29.1602 9.3799 29.7479 9.75342C29.8693 9.84413 29.9646 9.9653 30.0241 10.1047C30.0837 10.2441 30.1053 10.3967 30.0869 10.5471L30.0845 27.1901L30.0844 27.5411C30.1878 27.5787 30.3057 27.5473 30.4099 27.5533C30.8618 27.5688 31.1523 27.8233 31.165 28.1685C31.1777 28.5137 30.876 28.787 30.4207 28.7809C28.0353 28.7854 25.6628 28.7838 23.2868 28.7916C16.9474 28.7829 10.6058 28.7805 4.26194 28.7843C4.14357 28.7912 4.02477 28.7838 3.90821 28.7621C3.78517 28.7406 3.67236 28.68 3.58649 28.5894C3.50062 28.4987 3.44631 28.3827 3.43166 28.2586C3.40234 28.1368 3.4172 28.0084 3.47355 27.8964C3.52989 27.7844 3.62405 27.6962 3.7394 27.6471C3.82274 27.6155 3.8919 27.5548 3.93414 27.4763C3.97639 27.3979 3.98885 27.3069 3.96932 27.22L3.96558 16.9385C3.95025 16.76 3.98672 16.5811 4.07073 16.4229C4.15474 16.2647 4.2827 16.1339 4.43914 16.0467C5.58803 15.3517 6.86787 14.901 8.19873 14.7227C9.11037 14.5862 10.0706 14.5209 11.0796 14.4093ZM20.5749 8.78785C19.3062 8.91135 18.0905 8.9476 16.8576 9.14802C15.3907 9.3342 13.9692 9.78309 12.6614 10.4729C12.5422 10.5244 12.4426 10.6123 12.3769 10.7243C12.3113 10.8363 12.283 10.9665 12.2964 11.0956L12.301 27.2514L12.2975 27.612L20.5668 27.6101L20.5749 8.78785ZM28.8234 27.6142L28.826 27.2852L28.828 23.2742L28.8505 10.874C28.856 10.7219 28.8035 10.5736 28.7036 10.4588C28.0919 10.027 27.4038 9.71497 26.6757 9.53965L26.6747 10.2735C26.776 10.2718 26.8772 10.2768 26.9779 10.2882C27.1282 10.2988 27.2695 10.3635 27.3755 10.4706C27.4814 10.5777 27.5448 10.7197 27.5536 10.8701C27.5532 11.0214 27.5001 11.1678 27.4034 11.2841C27.3067 11.4004 27.1724 11.4794 27.0237 11.5073C26.9392 11.4765 26.8306 11.5116 26.7358 11.509C25.2236 11.512 23.725 11.4774 22.2025 11.5086L21.8608 11.5118L21.8659 14.5679L25.4311 14.5673L25.4291 12.9064C25.4268 12.8129 25.4457 12.7199 25.4844 12.6348C25.5231 12.5496 25.5805 12.4744 25.6525 12.4146C25.7244 12.3548 25.8089 12.3119 25.8997 12.2894C25.9905 12.2669 26.0853 12.2652 26.1768 12.2846C26.318 12.3237 26.4418 12.4094 26.5281 12.5278C26.6145 12.6461 26.6583 12.7901 26.6525 12.9365L26.652 14.5752C26.7736 14.5734 26.895 14.5822 27.0151 14.6011C27.1341 14.603 27.2488 14.6464 27.3391 14.724C27.4295 14.8016 27.4897 14.9084 27.5096 15.0258C27.5344 15.2396 27.4753 15.4545 27.3446 15.6254C27.1909 15.7509 26.9969 15.8165 26.7986 15.8099C25.2607 15.8248 23.7297 15.821 22.1987 15.8172L21.8664 15.8238L21.8279 18.8534L25.3932 18.8526C25.3908 18.3622 25.3814 17.8907 25.3944 17.4165C25.3892 17.334 25.4008 17.2513 25.4286 17.1733C25.4564 17.0954 25.4998 17.0239 25.5561 16.9633C25.6124 16.9027 25.6804 16.854 25.7561 16.8204C25.8317 16.7869 25.9134 16.7693 25.9961 16.7683C26.0788 16.7673 26.1608 16.7833 26.2372 16.815C26.3136 16.8468 26.3829 16.8936 26.4405 16.9529C26.4982 17.0122 26.5432 17.0828 26.5728 17.16C26.6024 17.2373 26.616 17.3198 26.6127 17.4024L26.6219 18.1081L26.6234 18.8641C26.7456 18.9086 26.8447 18.8701 26.9267 18.8786C27.0776 18.8881 27.2201 18.9515 27.3281 19.0572C27.4361 19.163 27.5025 19.3041 27.5152 19.4547C27.518 19.6058 27.4672 19.753 27.372 19.8703C27.2767 19.9875 27.1431 20.0672 26.9947 20.0954C26.8983 20.1101 26.8005 20.1139 26.7033 20.1065C25.2005 20.1129 23.702 20.0781 22.1796 20.1093L21.819 20.1058L21.8241 23.1618L25.3893 23.1611L25.3905 21.9592C25.3872 21.8426 25.4043 21.7263 25.441 21.6156C25.4886 21.4887 25.5778 21.3816 25.694 21.3118C25.8103 21.242 25.9467 21.2136 26.0811 21.2313C26.2308 21.2559 26.3669 21.3331 26.4652 21.4488C26.5634 21.5645 26.6174 21.7112 26.6174 21.863L26.623 23.1633C26.7639 23.2146 26.8853 23.1735 26.9861 23.1889C27.1181 23.2089 27.2399 23.2719 27.3328 23.3679C27.4257 23.4638 27.4846 23.5875 27.5004 23.7201C27.5161 23.8527 27.488 23.9869 27.4201 24.1019C27.3523 24.217 27.2487 24.3065 27.125 24.3569C26.9916 24.3985 26.8519 24.4161 26.7124 24.4089L22.2517 24.4136L21.8245 24.4178L21.8227 27.6097L25.3879 27.6091L25.3903 25.79C25.3857 25.7074 25.3976 25.6248 25.4254 25.5469C25.4533 25.469 25.4964 25.3976 25.5523 25.3366C25.6082 25.2756 25.6757 25.2264 25.7509 25.192C25.8261 25.1575 25.9075 25.1384 25.9902 25.1359C26.0756 25.1371 26.1599 25.1554 26.2381 25.1898C26.3164 25.2241 26.387 25.2737 26.4458 25.3357C26.5045 25.3978 26.5502 25.471 26.5802 25.551C26.6103 25.631 26.624 25.7161 26.6205 25.8015L26.6169 26.5131L26.632 27.5828L28.8234 27.6142ZM11.051 27.6159L11.0515 19.9541C10.4748 19.9889 9.9648 20.016 9.38468 20.0603C8.01676 20.1712 6.68161 20.5371 5.44828 21.1391C5.35611 21.1762 5.27883 21.2427 5.22843 21.3283C5.17802 21.4139 5.15742 21.5136 5.16971 21.6122L5.17568 27.2971L5.18582 27.6201L11.051 27.6159ZM5.16844 19.9198C7.03771 19.158 9.04217 18.7833 11.0604 18.8185L11.0622 15.7438C10.177 15.8367 9.3278 15.8893 8.4828 16.0181C7.40993 16.1705 6.37305 16.5139 5.42134 17.0321C5.3282 17.0834 5.1795 17.1996 5.18033 17.285L5.16844 19.9198ZM25.3982 10.3306C25.3965 10.0427 25.3873 9.80493 25.4036 9.55546C25.4199 9.30599 25.3609 9.2633 25.1431 9.24786C24.9252 9.23241 24.4502 9.13399 24.1316 9.10314C23.3746 9.01919 22.6296 8.96095 21.8659 8.89579L21.8611 10.3415L25.3982 10.3306Z"/>
</svg>
