<svg width="36" height="36" viewBox="0 0 36 36" xmlns="http://www.w3.org/2000/svg">
<path opacity="1" d="M25.8565 21.1213C25.6864 21.1266 25.5169 21.1431 25.349 21.1706L18.3691 8.71221C18.8165 8.17827 19.1 7.52608 19.1852 6.83466C19.2704 6.14324 19.1537 5.44206 18.8492 4.81548C18.5447 4.1889 18.0654 3.66382 17.4691 3.30356C16.8728 2.9433 16.1851 2.76327 15.4888 2.78517C14.7925 2.80707 14.1174 3.02985 13.545 3.42687C12.9725 3.82388 12.5272 4.37804 12.2627 5.02252C11.9982 5.66699 11.9257 6.37443 12.0541 7.05913C12.1826 7.74383 12.5064 8.37673 12.9866 8.88149L5.84739 21.1283C5.67716 21.1011 5.50542 21.0847 5.33313 21.0793C4.68084 21.0774 4.0401 21.2519 3.47877 21.5842C2.91743 21.9164 2.45627 22.3942 2.14409 22.9669C1.83191 23.5397 1.68031 24.1861 1.70527 24.8379C1.73022 25.4897 1.93084 26.1227 2.2859 26.6699C2.64097 27.2171 3.1373 27.6581 3.7224 27.9465C4.3075 28.2348 4.95965 28.3597 5.60988 28.3079C6.26012 28.2561 6.88431 28.0296 7.41643 27.6524C7.94855 27.2751 8.36878 26.7612 8.63281 26.1647L22.5204 26.1645C22.7842 26.7607 23.2042 27.2744 23.7359 27.6516C24.2676 28.0289 24.8912 28.2557 25.541 28.3079C26.1909 28.36 26.8428 28.2357 27.4278 27.9481C28.0129 27.6605 28.5094 27.2202 28.8649 26.6738C29.2205 26.1274 29.4219 25.495 29.4478 24.8436C29.4738 24.1922 29.3234 23.5457 29.0125 22.9727C28.7015 22.3997 28.2416 21.9215 27.6813 21.5882C27.121 21.255 26.4811 21.0791 25.8292 21.0794L25.8565 21.1213ZM15.6116 4.62231C15.9616 4.62279 16.3035 4.727 16.5942 4.92176C16.885 5.11652 17.1115 5.39302 17.2451 5.71645C17.3787 6.03989 17.4134 6.39583 17.3449 6.739C17.2763 7.08217 17.1076 7.39733 16.86 7.64464C16.6124 7.89196 16.2971 8.06038 15.9538 8.12854C15.6106 8.1967 15.2549 8.16142 14.9316 8.02747C14.6084 7.89352 14.332 7.6667 14.1376 7.37576C13.9431 7.08481 13.8393 6.74283 13.8392 6.39289C13.8415 5.92515 14.0288 5.47739 14.3603 5.14739C14.6918 4.81739 15.1405 4.63196 15.6082 4.63171L15.6116 4.62231ZM14.6113 9.85581C14.9378 9.95726 15.2775 10.0092 15.6194 10.0099C16.0445 10.0128 16.4664 9.93514 16.8626 9.78121L23.6495 21.8929C23.2705 22.1903 22.9548 22.5605 22.7211 22.9817C22.4874 23.4028 22.3403 23.8665 22.2886 24.3454L8.9546 24.345C8.90302 23.868 8.75638 23.4062 8.52333 22.9869C8.29028 22.5676 7.97556 22.1992 7.59776 21.9036L14.6113 9.85581ZM5.35881 26.5054C5.00887 26.5049 4.66692 26.4007 4.37618 26.206C4.08544 26.0112 3.85895 25.7347 3.72534 25.4113C3.59174 25.0878 3.55705 24.7319 3.62557 24.3887C3.6941 24.0456 3.86282 23.7304 4.1104 23.4831C4.35799 23.2358 4.67335 23.0673 5.01659 22.9992C5.35983 22.931 5.7155 22.9663 6.03879 23.1003C6.36208 23.2342 6.63841 23.461 6.83286 23.752C7.02731 24.0429 7.13116 24.3849 7.13127 24.7348C7.13043 24.9712 7.08227 25.205 6.98961 25.4224C6.89695 25.6399 6.76164 25.8366 6.59173 26.0009C6.42183 26.1652 6.22078 26.2938 6.00037 26.3791C5.77996 26.4644 5.54466 26.5048 5.30841 26.4977L5.35881 26.5054ZM25.8608 26.5183C25.3906 26.5193 24.9391 26.3334 24.6059 26.0015C24.2726 25.6697 24.0849 25.2192 24.0839 24.7489C24.0829 24.2786 24.2688 23.827 24.6006 23.4937C24.9325 23.1605 25.3831 22.9728 25.8534 22.9718C26.0862 22.9713 26.3169 23.0167 26.5322 23.1053C26.7476 23.194 26.9433 23.3243 27.1083 23.4886C27.2733 23.6529 27.4043 23.8481 27.4939 24.0631C27.5835 24.278 27.6299 24.5083 27.6304 24.7412C27.6309 24.9741 27.5855 25.2047 27.4968 25.4201C27.4082 25.6354 27.2779 25.8313 27.1136 25.9963C26.9493 26.1613 26.7541 26.2924 26.5391 26.382C26.3242 26.4715 26.0937 26.5178 25.8608 26.5183Z"/>
</svg>
