<svg width="33" height="29" viewBox="0 0 33 29" xmlns="http://www.w3.org/2000/svg">
<path opacity="1" d="M30.1354 13.1816C29.9674 13.0147 29.7402 12.9209 29.5033 12.9204C29.2665 12.9198 29.039 13.0125 28.8702 13.1786L28.5189 13.5296C28.3445 11.6891 27.7489 9.91347 26.7782 8.34001C25.8076 6.76655 24.4879 5.43753 22.9213 4.45582C21.3548 3.4741 19.5832 2.86612 17.744 2.67872C15.9048 2.49133 14.0471 2.72944 12.3147 3.37503C12.2048 3.41606 12.1039 3.47855 12.018 3.55854C11.9321 3.63853 11.8629 3.73454 11.8141 3.84131C11.7654 3.94808 11.7381 4.06349 11.7339 4.18079C11.7298 4.29808 11.7488 4.41489 11.7898 4.52485C11.8309 4.63481 11.8931 4.73561 11.9731 4.8215C12.0531 4.90739 12.1492 4.97677 12.256 5.02552C12.3628 5.07426 12.4781 5.10149 12.5954 5.10566C12.7127 5.10983 12.8296 5.09089 12.9396 5.04986C14.4088 4.50034 15.9844 4.29524 17.5453 4.45052C19.1061 4.6058 20.6105 5.11733 21.9426 5.94552C23.2747 6.77372 24.3989 7.89652 25.2287 9.22759C26.0586 10.5587 26.5718 12.0626 26.7289 13.6232L26.2609 13.1549C26.1799 13.0607 26.0802 12.9844 25.9682 12.9306C25.8562 12.8769 25.7343 12.8467 25.6102 12.8424C25.486 12.8381 25.3622 12.8597 25.2467 12.9055C25.1313 12.9513 25.0266 13.0204 24.9392 13.1087C24.8518 13.197 24.7836 13.3026 24.7389 13.4185C24.6942 13.5345 24.6741 13.6584 24.6797 13.7825C24.6853 13.9066 24.7165 14.0282 24.7714 14.1396C24.8263 14.2511 24.9037 14.3499 24.9987 14.4299L26.9451 16.3624C27.0299 16.443 27.1305 16.5051 27.2404 16.5452C27.3504 16.5852 27.4674 16.6022 27.5841 16.5949C27.8216 16.5944 28.0497 16.502 28.2207 16.3371L30.1531 14.3904C30.3007 14.2227 30.3808 14.006 30.3775 13.7826C30.3743 13.5591 30.2879 13.345 30.1354 13.1816Z"/>
<path opacity="1" d="M19.9721 24.3812C18.5078 24.9084 16.9425 25.0947 15.3955 24.9257C13.8484 24.7567 12.3603 24.2369 11.0444 23.4059C9.72854 22.575 8.61955 21.4549 7.80194 20.1307C6.98433 18.8065 6.47962 17.3132 6.32623 15.7645L6.78487 16.2294C6.95575 16.3867 7.1809 16.4717 7.41313 16.4669C7.64535 16.4621 7.86669 16.3678 8.03092 16.2036C8.19516 16.0393 8.28951 15.818 8.29428 15.5857C8.29906 15.3535 8.2139 15.1284 8.05655 14.9575L6.11002 13.0253C5.93269 12.8655 5.70019 12.7809 5.46163 12.7893C5.34384 12.7905 5.22746 12.8149 5.11921 12.8614C5.01097 12.9078 4.91301 12.9754 4.83104 13.06L2.88937 15.003C2.80727 15.0863 2.74241 15.185 2.69847 15.2934C2.65453 15.4018 2.63239 15.5178 2.63331 15.6347C2.63423 15.7517 2.65819 15.8673 2.70383 15.975C2.74946 16.0827 2.81588 16.1803 2.89927 16.2623C2.98404 16.343 3.08451 16.4053 3.19447 16.4453C3.30442 16.4854 3.42148 16.5022 3.53826 16.4949C3.77577 16.4943 4.00387 16.402 4.17483 16.2371L4.52605 15.8861C4.69393 17.7139 5.27892 19.4787 6.23591 21.045C7.1929 22.6112 8.49644 23.9371 10.0462 24.9205C11.596 25.904 13.3507 26.5188 15.1754 26.7177C17.0001 26.9166 18.8461 26.6942 20.5714 26.0678C20.6825 26.029 20.7848 25.9686 20.8724 25.89C20.9601 25.8114 21.0312 25.7163 21.0817 25.61C21.1323 25.5037 21.1613 25.3884 21.167 25.2708C21.1727 25.1532 21.155 25.0357 21.115 24.925C21.0344 24.7022 20.8693 24.5199 20.6553 24.4181C20.4413 24.3163 20.1958 24.3031 19.9721 24.3812Z"/>
<path opacity="1" d="M19.8397 18.8657H13.3976V17.4348C13.9433 17.003 14.432 16.5947 14.8639 16.21C15.2996 15.8252 15.6824 15.4601 16.0121 15.1147C16.44 14.6632 16.7502 14.2667 16.9425 13.9252C17.1349 13.5836 17.2311 13.2323 17.2311 12.8711C17.2311 12.4629 17.1094 12.1508 16.866 11.9348C16.6226 11.715 16.283 11.6051 15.8473 11.6051C15.6235 11.6051 15.4115 11.6326 15.2113 11.6875C15.015 11.7425 14.8148 11.8131 14.6107 11.8995C14.4104 11.9898 14.2397 12.0821 14.0983 12.1763C13.957 12.2705 13.851 12.3412 13.7804 12.3883H13.6096V10.4745C13.8569 10.3567 14.2436 10.237 14.7696 10.1153C15.2957 9.98964 15.8021 9.92683 16.2889 9.92683C17.3292 9.92683 18.1163 10.1584 18.6502 10.6217C19.1881 11.0849 19.457 11.7366 19.457 12.5767C19.457 13.0949 19.3353 13.6033 19.0919 14.1018C18.8485 14.5965 18.4441 15.1284 17.8788 15.6977C17.5255 16.047 17.182 16.3591 16.8483 16.6339C16.5146 16.9048 16.2732 17.0972 16.124 17.211H19.8397V18.8657Z"/>
</svg>
