<svg width="100%" height="100%" viewBox="0 0 26 26" fill="#606580" stroke="#606580" xmlns="http://www.w3.org/2000/svg">
    <g clip-path="url(#clip0)">
        <path d="M16.7541 2.26806L13.8104 11.6414H17.8386L7.69066 23.7259L11.7963 14.5076H8.23291L16.7541 2.26806ZM16.7541 0.71875C16.6766 0.71875 16.6766 0.71875 16.5992 0.71875C16.3668 0.71875 16.1344 0.796215 15.902 0.951146C15.747 1.02861 15.6696 1.18354 15.5147 1.26101L15.4372 1.33847L6.99347 13.6555C6.68361 14.1202 6.60614 14.74 6.91601 15.2822C7.22587 15.8245 7.69066 16.1343 8.31038 16.1343H9.39489L6.29628 23.1837C5.98642 23.8809 6.21882 24.733 6.91601 25.1203C7.1484 25.2752 7.45826 25.3527 7.76812 25.3527C8.23292 25.3527 8.62024 25.1978 8.9301 24.8105L19.0781 12.7259C19.4654 12.2611 19.5428 11.6414 19.3104 11.0991C19.0781 10.5568 18.5358 10.1695 17.9161 10.1695H15.9794L18.2259 2.88778C18.3034 2.73285 18.3034 2.57792 18.3034 2.34552C18.3034 1.41594 17.6062 0.71875 16.7541 0.71875Z"
              stroke="none"/>
        <path d="M10.4018 2.88867C7.22573 3.74079 4.43698 5.98728 3.12007 9.31829C1.80316 12.7268 2.34542 16.4451 4.20458 19.3113"
              fill="none" stroke-width="1.54931" stroke-miterlimit="10" stroke-linecap="round"
              stroke-linejoin="round"/>
        <path d="M13.7324 23.9589C17.7606 23.7265 21.5564 21.2476 23.1057 17.2194C24.655 13.1912 23.648 8.77571 20.8592 5.83203"
              fill="none" stroke-width="1.54931" stroke-miterlimit="10" stroke-linecap="round"
              stroke-linejoin="round"/>
    </g>
    <defs>
        <clipPath id="clip0">
            <rect width="24.6857" height="24.6857" fill="white" transform="translate(0.658447 0.658203)"/>
        </clipPath>
    </defs>
</svg>
