<svg width="100%" height="100%" viewBox="0 0 26 26" fill="none" stroke="#606580" xmlns="http://www.w3.org/2000/svg">
    <g clip-path="url(#clip0)">
        <path d="M15.0563 15.519C15.5211 14.2795 15.3662 13.0401 14.5915 11.6457C14.3591 11.2584 14.1267 10.9485 13.8169 10.5612C13.7394 11.7232 13.4295 12.8077 12.8098 13.9697L12.2676 14.9767L12.0352 13.8922C11.9577 13.4274 11.8028 13.0401 11.5704 12.7302C11.338 13.2725 11.1056 13.8147 10.8732 14.357C10.6408 14.8992 10.6408 15.4415 10.7957 15.9063L11.4929 17.7655L10.8732 17.5331C10.7183 17.4556 10.5633 17.3781 10.4084 17.3007C8.54923 16.2162 7.85204 14.4345 8.47176 12.188C8.70416 11.2584 9.16895 10.4837 9.63374 9.78654L9.71121 9.70907C10.4084 8.46963 11.1056 7.30765 11.4929 6.0682C11.5704 5.91327 11.5704 5.68088 11.6478 5.52595L11.8802 4.67383L12.345 4.98369C12.4225 5.06115 12.5 5.06115 12.5 5.13862L12.8873 5.52595C13.9718 6.61046 15.1338 7.69497 15.9859 9.01188C16.9155 10.3288 17.3803 11.5682 17.5352 12.8851C17.7676 14.8992 17.1479 16.3711 15.676 17.3781C15.4436 17.5331 15.1338 17.688 14.8239 17.7655C14.7465 17.8429 14.5915 17.8429 14.5141 17.9204"
              stroke-width="1.54931" stroke-miterlimit="10" stroke-linecap="round"
              stroke-linejoin="round"/>
        <path d="M20.8662 24.1173H4.90833C3.51396 24.1173 2.42944 23.0328 2.42944 21.6384V4.13123C2.42944 2.73686 3.51396 1.65234 4.90833 1.65234H20.7887C22.1831 1.65234 23.2676 2.73686 23.2676 4.13123V21.5609C23.3451 23.0328 22.2606 24.1173 20.8662 24.1173Z"
              stroke-width="1.54931" stroke-miterlimit="10" stroke-linecap="round"
              stroke-linejoin="round"/>
        <path d="M6.30273 20.2441H19.4718" stroke-width="1.54931" stroke-miterlimit="10"
              stroke-linecap="round" stroke-linejoin="round"/>
    </g>
    <defs>
        <clipPath id="clip0">
            <rect width="24.6857" height="24.6857" fill="white" transform="translate(0.658447 0.658203)"/>
        </clipPath>
    </defs>
</svg>
