<svg width="100%" height="100%" viewBox="0 0 20 20" fill="none" stroke="currentColor" xmlns="http://www.w3.org/2000/svg">
  <path
    d="M7.50781 9.34998C7.50781 8.24998 8.40781 7.34998 9.50781 7.34998C10.6078 7.34998 11.5078 8.24998 11.5078 9.34998C11.5078 10.45 10.6078 12.2 9.50781 12.2C8.40781 12.2 7.50781 10.45 7.50781 9.34998Z"
    stroke-miterlimit="10" stroke-linecap="round" stroke-linejoin="round" />
  <path
    d="M10.7578 11.55C12.2078 12 13.3078 13.3 13.5078 14.85C13.5578 15.15 13.3078 15.4 13.0578 15.4H5.95778C5.65778 15.4 5.45778 15.15 5.50778 14.85C5.70778 13.3 6.75778 12.05 8.20778 11.55"
    stroke-miterlimit="10" stroke-linecap="round" stroke-linejoin="round" />
  <path
    d="M12.0077 6.29998C12.0077 5.34998 12.7577 4.59998 13.7077 4.59998C14.6577 4.59998 15.4077 5.34998 15.4077 6.29998C15.4077 7.24998 14.6577 8.64998 13.7077 8.64998"
    stroke-miterlimit="10" stroke-linecap="round" stroke-linejoin="round" />
  <path
    d="M14.7077 8.09998C15.9077 8.49998 16.8577 9.54998 17.0077 10.85C17.0577 11.1 16.8577 11.3 16.6077 11.3H14.0577"
    stroke-miterlimit="10" stroke-linecap="round" stroke-linejoin="round" />
  <path
    d="M7.00771 6.29998C7.00771 5.34998 6.25771 4.59998 5.30771 4.59998C4.35771 4.59998 3.65771 5.34998 3.65771 6.29998C3.65771 7.24998 4.40771 8.64998 5.35771 8.64998"
    stroke-miterlimit="10" stroke-linecap="round" stroke-linejoin="round" />
  <path
    d="M4.30771 8.09998C3.10771 8.49998 2.15771 9.59998 2.00771 10.9C1.95771 11.15 2.15771 11.35 2.40771 11.35H4.95771"
    stroke-miterlimit="10" stroke-linecap="round" stroke-linejoin="round" />
</svg>
