<svg xmlns="http://www.w3.org/2000/svg" viewBox="0 0 32 32"><title>action-other</title><circle cx="16" cy="16" r="16" style="fill:#00aa9d"/><circle cx="16" cy="15.93" r="13" style="fill:none;stroke:#fff;stroke-miterlimit:10;stroke-width:0.5px"/><path d="M23.72,14V12.42l-1.88-.59a4.6,4.6,0,0,0-.4-1l.91-1.74L21.25,8l-1.74.91a4.6,4.6,0,0,0-1-.4L18,6.65H16.4L15.82,8.5a4.92,4.92,0,0,0-1,.4L13.1,8,12,9.12l.91,1.74a4.63,4.63,0,0,0-.41,1l-1.87.59V14l1.87.58a4.72,4.72,0,0,0,.41,1L12,17.27l1.09,1.09,1.75-.86a5,5,0,0,0,1,.41l.58,1.87H18l.59-1.87a4.63,4.63,0,0,0,1-.41l1.74.91,1.1-1.09-1-1.82a4.69,4.69,0,0,0,.4-1Zm-4.22-.78a2.32,2.32,0,1,1-2.32-2.32h0A2.32,2.32,0,0,1,19.5,13.19Z" style="fill:#fff"/><path d="M15.07,21.7v-.79l-1-.3a2.13,2.13,0,0,0-.21-.49l.47-.89-.56-.56-.89.47a2.13,2.13,0,0,0-.49-.21l-.3-1h-.74l-.3,1a2.41,2.41,0,0,0-.5.21l-.88-.47-.56.56.47.89a2.13,2.13,0,0,0-.21.49l-1,.3v.79l1,.3a2.13,2.13,0,0,0,.21.49l-.47.89.56.56.88-.44a2.41,2.41,0,0,0,.5.21l.3,1h.79l.3-1a2.13,2.13,0,0,0,.49-.21l.89.47.56-.56-.47-.91a2.13,2.13,0,0,0,.21-.49Zm-2.15-.4a1.18,1.18,0,1,1-2.36,0h0a1.18,1.18,0,1,1,2.36,0Z" style="fill:#fff"/></svg>