<svg xmlns="http://www.w3.org/2000/svg" viewBox="0 0 34 33.63">
  <defs>
    <style>.ea9abb3b-aead-406a-aad6-8d43fe010deb{fill:#41a7f3;}.bf6fae13-bd7e-4f3e-bd8c-c1253a68e3ab{fill:#fffdff;}.e7a994de-e766-4096-a169-0f402f6a0c0f{fill:#fff;opacity:0.1;}</style>
  </defs>
  <g id="ea73a518-fa50-451d-b304-32ad2fcedb18" data-name="Слой 2">
    <g id="ada3a3a3-04a0-4bdb-8d4f-a034bf385b33" data-name="Слой 1">
      <rect class="ea9abb3b-aead-406a-aad6-8d43fe010deb" x="0.19" y="-0.19" width="33.63" height="34" rx="16.81" transform="translate(33.81 -0.19) rotate(90)"/>
      <path class="bf6fae13-bd7e-4f3e-bd8c-c1253a68e3ab" d="M13.24,13.65h8.07c0,.14,0,.27,0,.4-.1,1-.2,1.92-.31,2.88-.19,1.73-.39,3.46-.58,5.19a1.39,1.39,0,0,1-.09.35.44.44,0,0,1-.44.3h-5.2c-.26,0-.45-.18-.5-.5s-.08-.68-.12-1l-.42-3.86c-.12-1.14-.25-2.28-.38-3.42C13.23,13.86,13.24,13.76,13.24,13.65ZM16,21.08a.11.11,0,0,0,0,0c-.11-1-.23-2.08-.34-3.11-.07-.59-.13-1.17-.2-1.75s-.1-1-.16-1.46a.34.34,0,0,0-.37-.31c-.23,0-.37.2-.34.47l.39,3.63.3,2.63a.36.36,0,0,0,.4.34A.38.38,0,0,0,16,21.08ZM20,14.87c0-.29-.13-.45-.33-.47a.36.36,0,0,0-.4.37c-.09.76-.17,1.52-.25,2.28-.15,1.32-.29,2.64-.43,4a.37.37,0,1,0,.72.09c.07-.55.12-1.1.18-1.65.11-1,.21-2,.32-3C19.88,15.92,20,15.36,20,14.87ZM17.63,18h0V14.79a.36.36,0,0,0-.45-.38.39.39,0,0,0-.28.42v6.32a.39.39,0,0,0,.31.32.36.36,0,0,0,.38-.21.75.75,0,0,0,0-.26Z"/>
      <path class="bf6fae13-bd7e-4f3e-bd8c-c1253a68e3ab" d="M15.59,11.81v-1a.59.59,0,0,1,.66-.66h2a.58.58,0,0,1,.65.65c0,.3,0,.6,0,.89,0,0,0,0,0,0H21.2a.63.63,0,0,1,.6.38.62.62,0,0,1-.07.68.69.69,0,0,1-.59.26H13.35a.66.66,0,0,1-.65-.44.62.62,0,0,1,.24-.74.86.86,0,0,1,.42-.13h2.23Zm.92,0H18v-.65H16.51Z"/>
      <rect class="e7a994de-e766-4096-a169-0f402f6a0c0f" x="2.99" y="2.65" width="28.02" height="28.33" rx="14.01" transform="translate(33.81 -0.19) rotate(90)"/>
      <rect class="e7a994de-e766-4096-a169-0f402f6a0c0f" x="5.79" y="5.48" width="22.42" height="22.67" rx="11.21" transform="translate(33.81 -0.19) rotate(90)"/>
      <rect class="e7a994de-e766-4096-a169-0f402f6a0c0f" x="8.59" y="8.31" width="16.81" height="17" rx="8.41" transform="translate(33.81 -0.19) rotate(90)"/>
    </g>
  </g>
</svg>