<svg xmlns="http://www.w3.org/2000/svg" viewBox="0 0 30 29.67">
  <title>Удалить</title>
  <rect x="0.16" y="-0.16" width="29.67" height="30" rx="14.84" ry="14.84" transform="translate(29.84 -0.16) rotate(90)" style="fill:#ff0106"/>
  <path d="M11.68,12H18.8c0,.13,0,.24,0,.36-.09.84-.18,1.69-.28,2.54L18,19.52a.89.89,0,0,1-.08.31.4.4,0,0,1-.39.26H12.94c-.24,0-.4-.16-.45-.45s-.07-.6-.1-.9c-.12-1.13-.25-2.27-.37-3.4s-.23-2-.34-3A2.61,2.61,0,0,1,11.68,12Zm2.39,6.56v-.05c-.1-.91-.2-1.83-.31-2.74,0-.51-.11-1-.17-1.54s-.09-.86-.14-1.29a.32.32,0,0,0-.33-.28c-.21,0-.33.18-.3.42.12,1.07.23,2.14.35,3.2.08.78.17,1.55.26,2.32a.31.31,0,0,0,.35.3A.32.32,0,0,0,14.07,18.6Zm3.58-5.48c0-.26-.11-.4-.28-.41A.32.32,0,0,0,17,13c-.07.67-.15,1.34-.22,2-.13,1.17-.25,2.33-.38,3.5a.32.32,0,0,0,.27.4c.19,0,.34-.1.37-.33.05-.48.11-1,.16-1.45.09-.87.18-1.75.28-2.63C17.54,14.05,17.6,13.56,17.65,13.12Zm-2.09,2.72h0V13.05a.32.32,0,0,0-.4-.34.35.35,0,0,0-.25.37v5.58a.34.34,0,0,0,.27.28.32.32,0,0,0,.34-.18.59.59,0,0,0,0-.23Z" style="fill:#fcfbff"/>
  <path d="M13.76,10.42V9.58A.51.51,0,0,1,14.34,9h1.8a.53.53,0,0,1,.58.58v.78a.08.08,0,0,0,0,0h2a.57.57,0,0,1,.53.34.57.57,0,0,1-.57.82H11.78a.58.58,0,0,1-.57-.38.57.57,0,0,1,.2-.66,1,1,0,0,1,.38-.11h2Zm.81,0H15.9V9.82H14.57Z" style="fill:#fcfbff"/>
  <rect x="2.64" y="2.34" width="24.73" height="25" rx="12.36" ry="12.36" transform="translate(29.84 -0.16) rotate(90)" style="fill:#fff;opacity:0.15"/>
  <rect x="5.11" y="4.84" width="19.78" height="20" rx="9.89" ry="9.89" transform="translate(29.84 -0.16) rotate(90)" style="fill:#fff;opacity:0.25"/>
  <rect x="7.58" y="7.34" width="14.84" height="15" rx="7.42" ry="7.42" transform="translate(29.84 -0.16) rotate(90)" style="fill:#fff;opacity:0.2"/>
</svg>