<svg xmlns="http://www.w3.org/2000/svg" viewBox="0 0 32 32">
  <title>Просрочено</title>
  <circle cx="16" cy="16" r="16" style="fill:#ff5656"/>
  <circle cx="16" cy="16" r="13" style="fill:none;stroke:#fff;stroke-miterlimit:10;stroke-width:0.5px"/>
  <path d="M19.58,13.4l-1-1a.46.46,0,0,0-.65,0L16.33,14a.47.47,0,0,1-.66,0l-1.62-1.62a.46.46,0,0,0-.65,0l-1,1a.46.46,0,0,0,0,.65L14,15.67a.47.47,0,0,1,0,.66L12.42,18a.46.46,0,0,0,0,.65l1,1a.46.46,0,0,0,.65,0L15.67,18a.47.47,0,0,1,.66,0L18,19.58a.46.46,0,0,0,.65,0l1-1a.46.46,0,0,0,0-.65L18,16.33a.47.47,0,0,1,0-.66l1.62-1.62A.46.46,0,0,0,19.58,13.4Z" style="fill:#fff"/>
</svg>