<svg xmlns="http://www.w3.org/2000/svg" viewBox="0 0 32 32"><title>messege_w</title><circle cx="16" cy="16" r="16" style="fill:#6ba4ef"/><circle cx="16" cy="16" r="13" style="fill:none;stroke:#fff;stroke-miterlimit:10;stroke-width:0.5px"/><path d="M16.25,18.07a1.06,1.06,0,0,1-1.5,0L13,16.3l-3,3v0a.46.46,0,0,0,.46.46H20.54a.46.46,0,0,0,.46-.46v0l-3-3ZM10,13.32v5.15l2.57-2.57ZM20.54,12H10.46a.47.47,0,0,0-.46.46v0l5.15,5.16a.51.51,0,0,0,.7,0L21,12.51v0A.47.47,0,0,0,20.54,12ZM21,18.47V13.32L18.43,15.9Z" style="fill:#fff;stroke:#6ba4ef;stroke-miterlimit:10;stroke-width:0.25px"/></svg>