<svg xmlns="http://www.w3.org/2000/svg" viewBox="0 0 6.66 9.09"><defs><style>.cls-1{fill:#fbfaff;}</style></defs><title>trash_w_1</title><g id="Слой_2" data-name="Слой 2"><g id="Слой_1-2" data-name="Слой 1"><path class="cls-1" d="M.42,2.5H6.25c0,.1,0,.2,0,.29-.07.69-.15,1.39-.22,2.08Q5.8,6.75,5.59,8.62a.9.9,0,0,1-.06.26.33.33,0,0,1-.32.21H1.44c-.19,0-.33-.13-.37-.37S1,8.24,1,8L.69,5.2C.6,4.37.51,3.55.42,2.72A2.12,2.12,0,0,1,.42,2.5Zm2,5.38s0,0,0,0L2.12,5.58,2,4.32c0-.35-.07-.71-.12-1.06A.26.26,0,0,0,1.59,3c-.17,0-.27.15-.25.34L1.63,6q.1,1,.21,1.9a.26.26,0,0,0,.29.25A.27.27,0,0,0,2.37,7.87ZM5.31,3.38c0-.21-.09-.33-.23-.34a.27.27,0,0,0-.29.27L4.6,5,4.29,7.82a.27.27,0,1,0,.52.06c0-.4.09-.79.13-1.19C5,6,5.1,5.26,5.18,4.54,5.22,4.14,5.27,3.74,5.31,3.38ZM3.59,5.61h0q0-.68,0-1.36c0-.31,0-.62,0-.93A.26.26,0,0,0,3.27,3a.28.28,0,0,0-.2.3q0,.94,0,1.89,0,1.29,0,2.58a.74.74,0,0,0,0,.11.27.27,0,0,0,.22.23A.26.26,0,0,0,3.56,8a.53.53,0,0,0,0-.19Q3.59,6.71,3.59,5.61Z"/><path class="cls-1" d="M2.11,1.16c0-.24,0-.46,0-.68A.43.43,0,0,1,2.59,0H4.07a.42.42,0,0,1,.47.47q0,.32,0,.64v0H6.17a.45.45,0,0,1,.44.27.46.46,0,0,1,0,.49.49.49,0,0,1-.43.19H.5A.47.47,0,0,1,0,1.8a.45.45,0,0,1,.17-.54.62.62,0,0,1,.3-.09H2.11Zm.67,0H3.87V.67H2.78Z"/></g></g></svg>