<svg xmlns="http://www.w3.org/2000/svg" viewBox="0 0 32 32"><title>Отправить сообщение пользователям</title><circle cx="16" cy="16" r="16" style="fill:#6ba4ef"/><circle cx="16" cy="16" r="13" style="fill:none;stroke:#fff;stroke-miterlimit:10;stroke-width:0.5px"/><path d="M21.47,17.2a8,8,0,0,0-1.31-.65c-.31-.13-.33-.22-.33-.34V16a3.07,3.07,0,0,0,1.23-.35c-.61-.22-.73-1.08-.73-1.82a1.16,1.16,0,0,0-1.23-1.23,1.32,1.32,0,0,0-.68.18c0,.25-.05.56-.07.8v.11a1.54,1.54,0,0,1,.17,1.19,1.62,1.62,0,0,1-.62,1,.19.19,0,0,1,0,.07,2.51,2.51,0,0,0,.49.08v.17c0,.12,0,.22-.33.34l-.41.18v.37l.23.11a11,11,0,0,1,2.3,1.19.31.31,0,0,1,.09.11,9,9,0,0,0,1.45-.2.12.12,0,0,0,.11-.12A1.93,1.93,0,0,0,21.47,17.2Zm-9.82,1.2A12.14,12.14,0,0,1,14,17.21l.22-.11v-.37l-.41-.18c-.32-.13-.33-.22-.33-.34v-.37a.71.71,0,0,0,.13-.29,1.79,1.79,0,0,1-.28-.63,1.52,1.52,0,0,1,.17-1.18c0-.24-.06-.6-.07-.93a1,1,0,0,0-.69-.17,2.5,2.5,0,0,0-1,.25,1.08,1.08,0,0,0-.24.74,3.35,3.35,0,0,0,.06.68c-.11,0-.18.26-.12.51s.23.44.34.42a1.64,1.64,0,0,0,.21.6v.37c0,.12,0,.22-.33.34a7.26,7.26,0,0,0-1.31.65,1.93,1.93,0,0,0-.33,1,.12.12,0,0,0,.11.12,9,9,0,0,0,1.45.2A.31.31,0,0,1,11.65,18.4Zm6-.71c-.52-.22-.54-.38-.54-.58v-.62a2.9,2.9,0,0,0,.34-1c.17,0,.45-.26.55-.69s0-.81-.2-.86c0,0,.11-.93.11-1.34,0-.61-.23-1-.8-1-.15-.25-.4-.41-1.09-.41s-1,.41-1.72.41c-.3,0-.4.48-.4,1s.11,1.35.1,1.35c-.18.05-.3.44-.2.86s.38.74.55.69a2.9,2.9,0,0,0,.34,1v.62c0,.2,0,.37-.54.58A11.51,11.51,0,0,0,12,18.77a3.3,3.3,0,0,0-.53,1.64c0,.09,0,.16.17.2A18,18,0,0,0,15.9,21a18,18,0,0,0,4.25-.39c.13,0,.18-.11.18-.2a3.33,3.33,0,0,0-.54-1.64A12.16,12.16,0,0,0,17.65,17.69Z" style="fill:#fff"/></svg>