<?xml version="1.0" encoding="utf-8"?>
<!-- Generator: Adobe Illustrator 23.0.3, SVG Export Plug-In . SVG Version: 6.00 Build 0)  -->
<svg version="1.1" id="Слой_1" xmlns="http://www.w3.org/2000/svg" xmlns:xlink="http://www.w3.org/1999/xlink" x="0px" y="0px"
	 viewBox="0 0 92.4 90.7" style="enable-background:new 0 0 92.4 90.7;" xml:space="preserve">
<style type="text/css">
	.st0{opacity:0.2;fill:#5E6581;enable-background:new    ;}
	.st1{fill:#039DE0;}
</style>
<title>border-blue-circle</title>
<g id="af9e4fda-25e2-45d0-bc60-1d4b1f71d152">
	<path class="st0" d="M45.3,0C20.3,0,0,20.3,0,45.3s20.3,45.3,45.3,45.4c7.3,0,14.5-1.8,20.9-5.1l-1.3-0.5
		c-22,10.8-48.6,1.8-59.4-20.2S3.7,16.4,25.7,5.5S74.2,3.7,85,25.7c7.8,15.8,5.5,34.6-5.8,48.1c0.1,0.5,0.2,1.4,0.2,1.4
		c9.4-10.8,13.2-25.4,10.1-39.5l2.8-3.6C89.1,19.9,81.1,9.5,70.3,3l-4.6,1.8C59.4,1.7,52.4,0,45.3,0z"/>
	<path class="st1" d="M45.3,0C20.3,0,0,20.3,0,45.3s20.3,45.3,45.3,45.4c7.3,0,14.5-1.8,20.9-5.1l-1.3-0.5
		c-22,10.8-48.6,1.8-59.4-20.2S3.7,16.4,25.7,5.5S74.2,3.7,85,25.7c7.8,15.8,5.5,34.6-5.8,48.1c0.1,0.5,0.2,1.4,0.2,1.4
		c9.4-10.8,13.2-25.4,10.1-39.5l2.8-3.6C89.1,19.9,81.1,9.5,70.3,3l-4.6,1.8C59.4,1.7,52.4,0,45.3,0z"/>
</g>
</svg>
