<svg xmlns="http://www.w3.org/2000/svg" viewBox="0 0 150 150.5"><defs>
<style>.a0a3df4d-6c54-4e31-abf0-7512b060eafd{opacity:0.5;}.ac923e56-7194-4dba-9984-c5e35f7650c0,.fb0d19dd-cfba-4ec5-8801-081f1b56374c{fill:#272a38;}.ac923e56-7194-4dba-9984-c5e35f7650c0{opacity:0.25;}</style></defs>
<title>circle-back</title><g id="eb281650-577e-4673-933b-532756c2dfa2" data-name="Слой 2"><g id="e195edc4-1e4a-4595-8a81-85be74c02dbd" data-name="Layer 1"><g class="a0a3df4d-6c54-4e31-abf0-7512b060eafd"><circle class="ac923e56-7194-4dba-9984-c5e35f7650c0" cx="75" cy="75.42" r="75"/></g><path class="fb0d19dd-cfba-4ec5-8801-081f1b56374c" d="M53.93,141.2l-2.44,2C38.26,139,29.16,129.09,29.16,129.09H25s-10.21-9.43-13.38-16.84l-2.1,1a75.27,75.27,0,0,0,130.12-.3l-1.21-.57c-3.22,7.4-13.34,16.73-13.34,16.73H121s-9.1,9.93-22.33,14.06L95.94,141a69.42,69.42,0,0,1-42,.21Z"/><path class="fb0d19dd-cfba-4ec5-8801-081f1b56374c" d="M96.71,9.78l1.94-1.56C111.88,12.36,121,22.28,121,22.28h4.13s10.73,9.9,13.61,17.39l1.68-.79a75.27,75.27,0,0,0-131.61-.3s2.55,1.21,2.59,1.21C14.24,32.31,25,22.28,25,22.28h4.14s9.1-9.92,22.33-14.06l1.67,1.34a69.13,69.13,0,0,1,43.55.22Z"/></g></g></svg>