<svg xmlns="http://www.w3.org/2000/svg" viewBox="0 0 8.64 9.34"><defs><style>.e3fad3b6-c2b0-45d9-b538-0c8372e3c59c{fill:#fff;}</style></defs><title>double-arrow-top</title><g id="b5cd681a-a294-4bc4-b536-84df0a589da5" data-name="Слой 2"><g id="f1e93246-1566-41cd-ad94-9e9bece0fd58" data-name="Layer 1"><path class="e3fad3b6-c2b0-45d9-b538-0c8372e3c59c" d="M4.32,4.67a.39.39,0,0,1,.25.1l4,4a.34.34,0,0,1,0,.49.35.35,0,0,1-.5,0L4.32,5.52.6,9.24a.35.35,0,0,1-.5,0,.36.36,0,0,1,0-.49l4-4A.39.39,0,0,1,4.32,4.67Z"/><path class="e3fad3b6-c2b0-45d9-b538-0c8372e3c59c" d="M4.32,0a.35.35,0,0,1,.25.1l4,4a.35.35,0,0,1-.5.5L4.32.85.6,4.57a.35.35,0,0,1-.5,0,.37.37,0,0,1,0-.5l4-4A.35.35,0,0,1,4.32,0Z"/></g></g></svg>