<svg width="26" height="30" viewBox="0 0 26 30" fill="none" xmlns="http://www.w3.org/2000/svg">
<path d="M24.9144 22.1685H22.8211V19.8008C23.241 19.4758 23.5817 19.059 23.8175 18.5819C24.0533 18.1048 24.1778 17.58 24.1818 17.0472V11.1368C24.1959 10.3087 23.9183 9.50228 23.3979 8.86029C22.8775 8.2183 22.1479 7.78215 21.3384 7.62906V5.4192C21.3407 5.34404 21.328 5.26917 21.301 5.19904C21.274 5.12891 21.2333 5.06495 21.1812 5.01097C21.1291 4.95698 21.0668 4.91406 20.9979 4.88477C20.929 4.85547 20.855 4.8404 20.7802 4.84043H15.2156C14.3875 4.84043 13.5932 5.17119 13.0077 5.75994C12.4221 6.34869 12.0931 7.14721 12.0931 7.97983V12.4522H10.3487C10.1838 12.4564 10.0272 12.5257 9.91263 12.6451L7.85425 15.1355H7.26116V1.19242C7.26116 1.03892 7.20051 0.891706 7.09256 0.783166C6.9846 0.674625 6.83818 0.613647 6.68551 0.613647H3.63282C3.48015 0.613647 3.33373 0.674625 3.22578 0.783166C3.11782 0.891706 3.05717 1.03892 3.05717 1.19242V15.2232H1.9931C1.84043 15.2232 1.69401 15.2842 1.58605 15.3928C1.4781 15.5013 1.41745 15.6485 1.41745 15.802V22.2562H0.719692C0.56702 22.2562 0.420602 22.3172 0.312647 22.4257C0.204692 22.5343 0.144043 22.6815 0.144043 22.835L0.251998 29.1504C0.273005 29.2883 0.342811 29.4138 0.448575 29.5041C0.55434 29.5943 0.68895 29.6431 0.827647 29.6415H25.0224C25.175 29.6415 25.3214 29.5805 25.4294 29.472C25.5373 29.3634 25.598 29.2162 25.598 29.0627L25.49 22.7473C25.49 22.5938 25.4294 22.4466 25.3214 22.338C25.2135 22.2295 25.0671 22.1685 24.9144 22.1685ZM13.227 7.97983C13.2316 7.4526 13.4431 6.94854 13.8156 6.57737C14.188 6.2062 14.6912 5.99795 15.2156 5.99798H20.2045V7.62906C19.3854 7.77105 18.6436 8.20242 18.1127 8.84551C17.5818 9.48859 17.2968 10.3011 17.3089 11.1368V17.0472C17.3128 17.58 17.4374 18.1048 17.6731 18.5819C17.9089 19.059 18.2496 19.4758 18.6695 19.8008V22.1685H15.3202V13.0134C15.3203 12.9382 15.3053 12.8637 15.2762 12.7945C15.247 12.7252 15.2043 12.6626 15.1506 12.6102C15.0969 12.5579 15.0333 12.5169 14.9636 12.4897C14.8938 12.4626 14.8194 12.4498 14.7446 12.4522H13.227V7.97983ZM4.20847 1.77119H6.12731V15.1355H4.20847V1.77119ZM2.46408 16.2931H8.11591C8.19944 16.2919 8.28171 16.2725 8.35702 16.2362C8.43232 16.1998 8.49886 16.1474 8.55201 16.0826L10.6104 13.5922H14.0992V16.3983H12.1455C12.0627 16.3837 11.9777 16.3874 11.8965 16.4093C11.8154 16.4312 11.7399 16.4707 11.6756 16.525C11.6112 16.5793 11.5594 16.6472 11.5239 16.7238C11.4884 16.8003 11.47 16.8838 11.47 16.9683C11.47 17.0528 11.4884 17.1363 11.5239 17.2129C11.5594 17.2895 11.6112 17.3573 11.6756 17.4116C11.7399 17.466 11.8154 17.5055 11.8965 17.5273C11.9777 17.5492 12.0627 17.553 12.1455 17.5383H14.0992V22.2211H11.0465V19.678C11.0489 19.6014 11.0357 19.525 11.0076 19.4537C10.9795 19.3824 10.9372 19.3176 10.8833 19.2634C10.8293 19.2091 10.7649 19.1666 10.694 19.1383C10.623 19.1101 10.5471 19.0968 10.4708 19.0993H6.24941C6.09674 19.0993 5.95032 19.1602 5.84237 19.2688C5.73441 19.3773 5.67376 19.5245 5.67376 19.678V22.1685H2.5513L2.46408 16.2931ZM9.91263 20.2393V22.1685H6.82506V20.2393H9.91263ZM19.8208 22.1685V20.4146C20.1325 20.5061 20.4554 20.5533 20.7802 20.555C21.0992 20.5538 21.4165 20.5065 21.7222 20.4146V22.1685H19.8208ZM20.7802 19.3623C20.1679 19.3624 19.5804 19.119 19.1458 18.6853C18.7112 18.2517 18.4648 17.6629 18.4601 17.0472V11.1368C18.5104 10.5553 18.7757 10.0139 19.2036 9.61946C19.6315 9.22503 20.1909 9.00621 20.7715 9.00621C21.352 9.00621 21.9114 9.22503 22.3393 9.61946C22.7672 10.0139 23.0325 10.5553 23.0828 11.1368V17.0472C23.0828 17.6612 22.8402 18.2501 22.4084 18.6843C21.9766 19.1184 21.3909 19.3623 20.7802 19.3623Z" fill="#00A99D"/>
</svg>
