<?xml version="1.0" encoding="utf-8"?>
<!-- Generator: Adobe Illustrator 23.0.3, SVG Export Plug-In . SVG Version: 6.00 Build 0)  -->
<svg version="1.1" id="Слой_1" xmlns="http://www.w3.org/2000/svg" xmlns:xlink="http://www.w3.org/1999/xlink" x="0px" y="0px"
	 viewBox="0 0 26.7 19.8" style="enable-background:new 0 0 26.7 19.8;" xml:space="preserve">
<style type="text/css">
	.st0{fill:#5F6580;}
</style>
<title>middle-right-top-button</title>
<path class="st0" d="M10,15.3c-1.1,0-2-0.9-2-2c0-0.5,0.2-1.1,0.6-1.5l5.3-5.3l2.8,2.8l-5.3,5.3C11.1,15.1,10.6,15.3,10,15.3
	 M13.9,7.4L9,12.3c-0.6,0.6-0.6,1.4,0,2s1.4,0.6,2,0l4.9-4.9L13.9,7.4z"/>
<path class="st0" d="M16.9,10.1c-0.2,0-0.5-0.1-0.6-0.3L13.5,7c-0.3-0.3-0.3-0.9,0-1.2c0,0,0,0,0,0c0.3-0.3,0.9-0.3,1.2,0l2.8,2.8
	c0.3,0.3,0.3,0.9,0,1.2C17.3,10,17.1,10.1,16.9,10.1 M14,6.1c-0.1,0-0.1,0-0.2,0.1c-0.1,0.1-0.1,0.3,0,0.4c0,0,0,0,0,0l2.8,2.8
	c0.1,0.1,0.3,0.1,0.4,0c0.1-0.1,0.1-0.3,0-0.4l-2.8-2.8C14.2,6.1,14.1,6.1,14,6.1"/>
<path class="st0" d="M16.9,8.8l-2.4-2.4l0.9-0.9c0.1-0.1,0.3-0.2,0.5-0.2l0,0c0.2,0,0.4,0.1,0.5,0.2l1.4,1.4c0.3,0.3,0.3,0.7,0,1
	c0,0,0,0,0,0L16.9,8.8z M15.3,6.4L16.9,8l0.5-0.5c0,0,0-0.1,0-0.1L16,5.9c0,0,0,0-0.1,0c0,0,0,0-0.1,0L15.3,6.4z"/>
<path class="st0" d="M11,10.7l-1.9,1.9c-0.4,0.4-0.4,1,0,1.4c0,0,0,0,0,0l0.1,0.1c0.4,0.4,1.1,0.4,1.5,0l4-4.1L11,10.7z M10.8,12.9
	c-0.2-0.2-0.2-0.6,0-0.8c0.2-0.2,0.6-0.2,0.8,0c0.2,0.2,0.2,0.6,0,0.8c0,0,0,0,0,0C11.3,13.1,11,13.1,10.8,12.9 M11.3,11.6
	c-0.2-0.2-0.2-0.4,0-0.6c0.2-0.2,0.4-0.2,0.6,0c0,0,0,0,0,0c0.2,0.2,0.2,0.4,0,0.6C11.7,11.8,11.4,11.8,11.3,11.6
	C11.3,11.6,11.3,11.6,11.3,11.6"/>
</svg>
