<svg width="20" height="20" viewBox="0 0 20 20" fill="none" xmlns="http://www.w3.org/2000/svg">
<path d="M7.17692 4C7.17692 4 5.62784 5.82014 7.02887 7.9085C7.47262 8.56896 8.08228 9.83665 6.73317 11.6327" stroke="#606580" stroke-linecap="round" stroke-linejoin="round"/>
<path d="M13.1302 4C13.1302 4 11.5807 5.82014 12.9822 7.9085C13.4259 8.56896 14.0356 9.83665 12.6873 11.6327" stroke="#606580" stroke-linecap="round" stroke-linejoin="round"/>
<path d="M16.1068 4C16.1068 4 14.5573 5.82014 15.9587 7.9085C16.4025 8.56896 17.0121 9.83665 15.663 11.6327" stroke="#606580" stroke-linecap="round" stroke-linejoin="round"/>
<path d="M4.1996 4C4.1996 4 2.65133 5.82014 4.05277 7.9085C4.49611 8.56896 5.10577 9.83665 3.75666 11.6327" stroke="#606580" stroke-linecap="round" stroke-linejoin="round"/>
<path d="M10.1535 4C10.1535 4 8.6044 5.82014 10.0054 7.9085C10.4492 8.56896 11.0588 9.83665 9.71054 11.6327" stroke="#606580" stroke-linecap="round" stroke-linejoin="round"/>
<path d="M2.5 15.9998V14.0557H17.453V15.9998" stroke="#606580" stroke-linecap="round" stroke-linejoin="round"/>
</svg>
