<svg width="20" height="20" viewBox="0 0 20 20" fill="none" xmlns="http://www.w3.org/2000/svg">
<path d="M7.56258 4.16686C7.38752 4.16306 7.22389 4.25797 7.13636 4.40604C7.04503 4.55789 7.04503 4.74772 7.13636 4.89958C7.22389 5.04764 7.38752 5.14255 7.56258 5.13875H8.04967V7.6748L4.44209 13.5062C3.74569 14.4477 4.45351 15.8334 5.62179 15.8334H14.382C15.5464 15.8334 16.2466 14.4629 15.5655 13.5214L11.9465 7.6748V5.13875H12.4336C12.6086 5.14255 12.7723 5.04764 12.8598 4.89958C12.9511 4.74772 12.9511 4.55789 12.8598 4.40604C12.7723 4.25797 12.6086 4.16306 12.4336 4.16686H7.56258ZM9.02387 5.13875H10.9723V7.94814L11.0446 8.06583L12.2395 9.99824H7.75665L9.02387 7.94814V5.13875ZM7.15539 10.9701H12.8408L14.7625 14.0794L14.7777 14.0946C15.0251 14.4363 14.8082 14.8615 14.382 14.8615H5.62179C5.18796 14.8615 4.97105 14.4325 5.22602 14.0832L5.24124 14.0681L7.15539 10.9701Z" fill="#606580"/>
</svg>
