<svg width="20" height="20" viewBox="0 0 20 20" fill="none" xmlns="http://www.w3.org/2000/svg">
<path d="M7.9488 0.741174C8.03566 0.66661 8.08826 0.55764 8.09439 0.444569C8.1007 0.334774 8.06626 0.229079 7.99644 0.147145C7.92604 0.0643861 7.82962 0.0160459 7.72459 0.00949466C5.58848 -0.108496 3.56773 0.878825 2.30608 2.65845C1.30154 4.07512 0.895587 5.8482 1.1527 7.58112L0.645743 7.76466C0.56023 7.79579 0.497673 7.87035 0.481221 7.96458C0.463047 8.05881 0.493656 8.15139 0.562717 8.21449L1.93629 9.45908C1.98335 9.50169 2.04208 9.52381 2.10081 9.52381C2.12912 9.52381 2.15801 9.51889 2.18556 9.50824C2.27164 9.47711 2.33363 9.40254 2.35084 9.30914L2.69481 7.44429C2.71203 7.35007 2.68142 7.25666 2.61255 7.19439C2.54349 7.13048 2.45032 7.11164 2.36251 7.14277L1.90644 7.30828C1.7247 5.83918 2.08665 4.34796 2.93853 3.14925C4.03777 1.59576 5.80179 0.730522 7.67294 0.829665C7.77548 0.844412 7.86884 0.811637 7.9488 0.741174Z" fill="#606580"/>
<path d="M19.4511 12.0884L18.1213 10.5718C18.054 10.4947 17.9547 10.4611 17.8518 10.4823C17.7517 10.5036 17.6739 10.5762 17.6421 10.6763L17.0263 12.6155C16.9953 12.7147 17.0159 12.821 17.0851 12.8998C17.1386 12.9618 17.2145 12.9964 17.294 12.9964C17.313 12.9964 17.3339 12.9946 17.3537 12.9893L17.8691 12.8768C17.8725 14.2118 17.4572 15.5139 16.6765 16.5938C15.2646 18.5515 12.8442 19.4817 10.5249 18.9714C10.4126 18.9466 10.296 18.9688 10.1984 19.0334C10.1008 19.0981 10.0335 19.1964 10.0101 19.3125C9.98524 19.4285 10.0067 19.5472 10.0689 19.6473C10.132 19.7474 10.2287 19.8156 10.3417 19.8404C10.8193 19.9458 11.309 19.9999 11.7985 19.9999C13.9885 19.9999 16.0729 18.9254 17.3735 17.1235C18.3017 15.8391 18.7706 14.28 18.7274 12.6908L19.2983 12.5658C19.3993 12.5446 19.4779 12.4719 19.5089 12.3727C19.5418 12.2726 19.5192 12.1663 19.4511 12.0884Z" fill="#606580"/>
<path d="M9.99764 14C8.96779 14 7.95005 13.6444 7.17463 12.9333C5.82976 11.6889 5.61168 9.74444 6.66576 8.3L9.69474 4.14444C9.76744 4.05556 9.87648 4 9.99764 4C10.1188 4 10.2278 4.05556 10.3005 4.14444L13.3295 8.3C14.3836 9.74444 14.1776 11.7 12.8328 12.9222C12.0452 13.6444 11.0275 14 9.99764 14ZM9.99764 4.92222L7.27156 8.66667C6.41133 9.85556 6.58095 11.4444 7.6835 12.4556C8.95567 13.6222 11.0396 13.6222 12.3118 12.4556C13.4143 11.4444 13.584 9.85556 12.7237 8.66667L9.99764 4.92222Z" fill="#606580"/>
</svg>
