<svg width="20" height="20" viewBox="0 0 20 20" fill="none" xmlns="http://www.w3.org/2000/svg">
<path fill-rule="evenodd" clip-rule="evenodd" d="M9.60851 14.7496L8.94702 14.4174L8.90424 14.3966L8.90422 14.3966C8.80593 14.3491 8.70746 14.3015 8.61487 14.2462C7.37195 13.5228 6.91762 12.2975 7.33754 10.8004C7.50607 10.1979 7.81364 9.67012 8.11138 9.16101L8.14158 9.10922C8.63594 8.26217 9.0664 7.49272 9.322 6.63707C9.36133 6.5119 9.39433 6.38541 9.42874 6.25304L9.5755 5.70654L9.89291 5.9108C9.94627 5.941 9.98349 5.96399 10.0228 6.00279L10.2616 6.23865C10.9933 6.96211 11.7496 7.70988 12.3598 8.58712C12.9679 9.46296 13.3099 10.3158 13.4033 11.1973C13.5486 12.5636 13.1463 13.5502 12.1709 14.2103C11.9953 14.3282 11.8071 14.4088 11.6246 14.4864C11.6026 14.496 11.5804 14.5055 11.5582 14.5149L11.5581 14.515L11.5581 14.515C11.5037 14.5382 11.449 14.5616 11.3956 14.587L11.1372 14.7108L10.9399 14.2448L11.0424 14.1182C11.0862 14.0617 11.1326 14.0083 11.1794 13.9545L11.2032 13.927C11.3114 13.8019 11.4132 13.6825 11.4912 13.5574C12.1133 12.5492 12.1077 11.5138 11.475 10.392C11.3325 10.1403 11.1555 9.90308 10.9357 9.66862C10.8985 10.4438 10.6724 11.2017 10.2524 11.9668L9.8901 12.6255L9.73912 11.8891C9.67171 11.5627 9.57831 11.3081 9.447 11.1054C9.29462 11.4764 9.14364 11.846 8.99688 12.2185C8.74548 12.8541 8.85363 13.402 9.32481 13.8954C9.3824 13.9528 9.45191 14.0391 9.48351 14.1815L9.60851 14.7496ZM10.3092 8.37133L10.8225 8.80565C11.3302 9.23278 11.6912 9.6513 11.9559 10.1201C12.623 11.3037 12.6834 12.4513 12.1343 13.54C12.7311 13.0093 12.9601 12.273 12.8519 11.2562C12.7684 10.4696 12.4594 9.70019 11.9039 8.90344C11.3302 8.07649 10.5999 7.35312 9.89209 6.65415C9.87945 6.70164 9.86611 6.74912 9.85206 6.79652C9.57749 7.70976 9.13159 8.51081 8.61967 9.38805L8.58948 9.43984L8.58606 9.44568L8.58606 9.44568C8.2938 9.94543 8.01799 10.417 7.869 10.9485C7.66185 11.6891 7.6155 12.6642 8.39496 13.4005C8.26154 12.9633 8.29033 12.4974 8.48133 12.0142C8.63401 11.6299 8.79136 11.2457 8.94818 10.8628L8.96025 10.8334L9.13159 10.4135L9.4195 10.3013L9.56696 10.402C9.77552 10.5875 9.93703 10.8061 10.062 11.0779C10.331 10.4034 10.4314 9.73319 10.3682 9.04151L10.3092 8.37133Z" fill="#606580"/>
<path d="M5 2.9563C5 2.67989 5.22408 2.45581 5.50049 2.45581H15.1174C15.3939 2.45581 15.618 2.67996 15.618 2.95646V17.4996C15.618 17.776 15.3939 18.0001 15.1174 18.0001H5.50067C5.22416 18.0001 5 17.776 5 17.4995V2.9563Z" stroke="#606580" stroke-linecap="round" stroke-linejoin="round"/>
<path d="M7.37598 1H8.23955" stroke="#606580" stroke-width="1.20096" stroke-linecap="round" stroke-linejoin="round"/>
</svg>
