<svg width="20" height="20" viewBox="0 0 20 20" fill="none" xmlns="http://www.w3.org/2000/svg">
<path d="M15.9911 0C15.9911 0 16.6102 2.05148 14.199 3.99211C10.5897 6.89847 13.2529 9.58156 13.2529 9.58156C13.2529 9.58156 11.8679 7.0867 14.896 4.86979C17.5911 2.8957 16.694 0.967303 15.9911 0Z" fill="#606580"/>
<path d="M6.97363 2.56226C6.97363 2.56226 7.93973 4.46035 5.62198 6.50728C2.12683 9.59279 5.36841 11.8978 5.36841 11.8978C5.36841 11.8978 3.58598 9.64293 6.46797 7.28163C9.03558 5.17862 7.83889 3.42168 6.97363 2.56226Z" fill="#606580"/>
<path d="M9.71141 20C8.608 20 7.51756 19.5428 6.68676 18.6285C5.24583 17.0285 5.01216 14.5285 6.14154 12.6714L9.38688 7.32854C9.46477 7.21425 9.5816 7.14282 9.71141 7.14282C9.84123 7.14282 9.95806 7.21425 10.0359 7.32854L13.2813 12.6714C14.4107 14.5285 14.19 17.0428 12.749 18.6143C11.9053 19.5428 10.8148 20 9.71141 20ZM9.71141 8.32854L6.79061 13.1428C5.86893 14.6714 6.05067 16.7143 7.23197 18.0143C8.59502 19.5143 10.8278 19.5143 12.1909 18.0143C13.3722 16.7143 13.5539 14.6714 12.6322 13.1428L9.71141 8.32854Z" fill="#606580"/>
</svg>
