<svg width="20" height="20" viewBox="0 0 20 20" fill="none" xmlns="http://www.w3.org/2000/svg">
<path fill-rule="evenodd" clip-rule="evenodd" d="M8.28633 18L7.11543 17.413L7.07302 17.3922C6.88907 17.3022 6.70488 17.2121 6.52828 17.109C4.33028 15.828 3.5273 13.663 4.26949 11.012C4.56715 9.94667 5.11182 9.01417 5.63837 8.1127L5.63936 8.111L5.69234 8.02C6.56636 6.523 7.32637 5.16 7.78145 3.648C7.84419 3.43885 7.90006 3.22883 7.95792 3.01132L7.96944 2.968L8.22945 2L8.79244 2.362C8.88448 2.416 8.95235 2.457 9.02046 2.524L9.44332 2.943L9.45279 2.95237L9.4528 2.95238C10.744 4.22946 12.079 5.54979 13.1555 7.098C14.2324 8.646 14.8354 10.156 15.0014 11.716C15.2585 14.133 14.5463 15.877 12.8225 17.045C12.5124 17.255 12.1784 17.397 11.8554 17.534C11.7194 17.592 11.5835 17.65 11.4504 17.712L10.9934 17.93L10.6445 17.106L10.8244 16.882C10.9058 16.7803 10.991 16.681 11.0759 16.5819L11.076 16.5819L11.1093 16.543L11.1106 16.5416C11.3013 16.3211 11.4817 16.1125 11.6184 15.89C12.7194 14.107 12.7104 12.276 11.5893 10.291C11.3374 9.845 11.0253 9.426 10.6355 9.01C10.5693 10.383 10.1704 11.723 9.42647 13.076L8.78633 14.242L8.51729 12.939C8.39839 12.361 8.23335 11.912 8.0024 11.552C7.73335 12.208 7.46651 12.864 7.20528 13.521C6.76045 14.645 6.9504 15.616 7.78633 16.487C7.88643 16.591 8.01045 16.743 8.06539 16.994L8.28633 18ZM9.52828 6.716L10.4375 7.483C11.3364 8.24 11.9733 8.979 12.4423 9.81C13.6235 11.902 13.7285 13.934 12.7573 15.859C13.8144 14.92 14.2185 13.619 14.0273 11.819C13.8794 10.428 13.3315 9.067 12.3513 7.657C11.3344 6.193 10.0434 4.914 8.79244 3.676C8.76827 3.762 8.74434 3.846 8.71846 3.93C8.23335 5.545 7.44332 6.961 6.53829 8.514L6.48433 8.605L6.47591 8.61945C5.9612 9.5021 5.47484 10.3361 5.21236 11.275C4.84542 12.585 4.76436 14.31 6.14131 15.613C5.90547 14.84 5.9565 14.016 6.29439 13.161C6.57247 12.462 6.8564 11.766 7.14131 11.07L7.44429 10.328L7.95528 10.13L8.21529 10.309C8.58443 10.637 8.87129 11.024 9.09029 11.504C9.56636 10.311 9.74434 9.124 9.63448 7.901L9.52828 6.716Z" fill="#606580"/>
</svg>
