<svg width="20" height="20" viewBox="0 0 20 20" fill="none" xmlns="http://www.w3.org/2000/svg">
<path d="M13.924 12.7883H12.8867H12.7909L12.8457 12.7097L13.265 12.1081L13.2667 12.1056L13.2668 12.1056C13.4809 11.8357 13.6331 11.6187 13.7231 11.4551C13.8109 11.2947 13.8549 11.1202 13.8549 10.931C13.8549 10.6468 13.7752 10.4284 13.6216 10.2691L13.924 12.7883ZM13.924 12.7883V13.1896H12.1255V12.8312L12.9911 11.7341L12.9911 11.7341L12.9928 11.7318C13.1097 11.5652 13.1966 11.4188 13.2493 11.2912C13.3018 11.1642 13.3286 11.0457 13.3286 10.9375C13.3286 10.7941 13.3008 10.6733 13.2416 10.5789L13.2414 10.5787C13.1787 10.4799 13.0861 10.4305 12.9701 10.4305C12.9099 10.4305 12.8547 10.4453 12.8063 10.4763C12.7582 10.5071 12.7196 10.5523 12.6891 10.609C12.6891 10.609 12.689 10.6091 12.689 10.6092L13.924 12.7883ZM5.33333 5.28333H5.28333V5.33333V14.6667V14.7167H5.33333H14.6667H14.7167V14.6667V5.33333V5.28333H14.6667H5.33333ZM9.99141 10.8411V7.39505H10.9799V12.5971H9.96558L7.85389 9.13283L7.7612 8.98076V9.15885V12.5971H6.76745V7.39505H7.78311L9.89871 10.8672L9.99141 11.0193V10.8411ZM12.6006 10.9839H12.0836C12.0852 10.7198 12.1634 10.4986 12.3182 10.3148L12.6006 10.9839ZM4.41426 4.41426C4.65507 4.17346 4.99669 4.05 5.33333 4.05H14.6667C15.0033 4.05 15.3449 4.17346 15.5857 4.41426C15.8265 4.65507 15.95 4.99669 15.95 5.33333V14.6667C15.95 15.0033 15.8265 15.3449 15.5857 15.5857C15.3449 15.8265 15.0033 15.95 14.6667 15.95H5.33333C4.99669 15.95 4.65507 15.8265 4.41426 15.5857C4.17346 15.3449 4.05 15.0033 4.05 14.6667V5.33333C4.05 4.99669 4.17346 4.65507 4.41426 4.41426Z" fill="#606580" stroke="#606580" stroke-width="0.1"/>
</svg>
