<svg width="20" height="20" viewBox="0 0 20 20" fill="none" xmlns="http://www.w3.org/2000/svg">
<path d="M13.3787 16.2858C13.0379 16.2858 12.7151 16.2537 12.3743 16.1736C12.0873 16.1095 11.9079 15.8531 11.9797 15.5968C12.0514 15.3404 12.3384 15.1801 12.6254 15.2442C13.6657 15.4846 14.7777 15.2122 15.531 14.5232C16.5533 13.6099 16.7148 12.1677 15.9076 11.0782L12.9303 7.07229C12.7689 6.84796 12.8406 6.55954 13.0738 6.39931C13.3249 6.2551 13.6477 6.31919 13.8271 6.5275L16.8044 10.5334C17.8985 11.9915 17.6833 13.9463 16.2843 15.1801C15.531 15.9012 14.4728 16.2858 13.3787 16.2858Z" fill="#606580"/>
<path d="M6.97918 16.2856C5.69647 16.2856 4.42884 15.8133 3.46304 14.8685C1.78797 13.2152 1.51633 10.6319 2.82923 8.71283L6.60191 3.1919C6.69245 3.07381 6.82827 3 6.97918 3C7.13008 3 7.2659 3.07381 7.35645 3.1919L11.1291 8.71283C12.442 10.6319 12.1855 13.2299 10.5104 14.8537C9.52951 15.8133 8.26189 16.2856 6.97918 16.2856ZM6.97918 4.22523L3.58376 9.19997C2.51232 10.7795 2.72359 12.8904 4.09685 14.2338C5.68137 15.7837 8.27698 15.7837 9.86151 14.2338C11.2348 12.8904 11.446 10.7795 10.3746 9.19997L6.97918 4.22523Z" fill="#606580"/>
</svg>
