<svg width="22" height="21" viewBox="0 0 22 21" fill="none" xmlns="http://www.w3.org/2000/svg">
<path d="M21 0.999897L21 3.65503L0.999999 3.65503L0.999999 0.999898" stroke="#606580" stroke-linecap="round" stroke-linejoin="round"/>
<path d="M11.1546 6.30981C11.1546 6.30981 13.8647 8.89113 10.0266 12.6942C4.77209 17.9017 11.1879 20.9996 11.1879 20.9996C11.1879 20.9996 7.49687 18.0285 11.6909 13.6546C15.4258 9.75874 12.8774 7.39246 11.1546 6.30981Z" fill="#606580"/>
<path d="M9.53532 6.83423C9.53532 6.83423 10.2139 8.92373 7.57117 10.9003C3.61523 13.8606 6.53424 16.5934 6.53424 16.5934C6.53424 16.5934 5.01623 14.0523 8.33505 11.7943C11.289 9.7836 10.3057 7.81946 9.53532 6.83423Z" fill="#606580"/>
<path d="M15.3695 9.87476C15.3695 9.87476 16.4284 11.808 13.8881 13.8929C10.0573 17.0356 13.6102 19.3834 13.6102 19.3834C13.6102 19.3834 11.6566 17.0867 14.8153 14.6816C17.6295 12.5396 16.3179 10.7501 15.3695 9.87476Z" fill="#606580"/>
</svg>
