<svg xmlns="http://www.w3.org/2000/svg" width="14.53" height="16" viewBox="0 0 14.53 16"><title>1</title><path d="M14.2,12.29H13V10.94a2,2,0,0,0,.78-1.57V6A2,2,0,0,0,12.15,4V2.74a.32.32,0,0,0-.32-.33H8.64A1.79,1.79,0,0,0,6.85,4.2V6.75h-1a.36.36,0,0,0-.25.11L4.42,8.28H4.08V.33A.33.33,0,0,0,3.75,0H2a.33.33,0,0,0-.33.33v8H1.06a.33.33,0,0,0-.33.33v3.68H.33a.33.33,0,0,0-.33.33v3.05A.33.33,0,0,0,.33,16H14.2a.33.33,0,0,0,.33-.33V12.62A.33.33,0,0,0,14.2,12.29ZM7.5,4.2A1.14,1.14,0,0,1,8.64,3.07H11.5V4A2,2,0,0,0,9.84,6V9.37a2,2,0,0,0,.78,1.57v1.35H8.7V7.07a.32.32,0,0,0-.33-.32H7.5ZM2.33.66h1.1V8.28H2.33Zm-1,8.28H4.57a.33.33,0,0,0,.25-.12L6,7.4H8V9H6.88a.33.33,0,1,0,0,.65H8v2.67H6.25V10.87a.32.32,0,0,0-.33-.33H3.5a.33.33,0,0,0-.33.33v1.42H1.38ZM5.6,11.19v1.1H3.83v-1.1Zm5.68,1.1v-1a2,2,0,0,0,.55.08,1.91,1.91,0,0,0,.54-.08v1Zm.55-1.6A1.33,1.33,0,0,1,10.5,9.37V6a1.33,1.33,0,0,1,2.65,0V9.37A1.32,1.32,0,0,1,11.83,10.69Z" style="fill:#8c99b2"/></svg>