<svg xmlns="http://www.w3.org/2000/svg" width="12.44" height="16" viewBox="0 0 12.44 16"><title>11</title><path d="M5.49,10.8V1.64l-.06-.12V1.4l-.06-.06-.06-.11V1.17l0-.12L5.2,1,5.14.93,5.08.82,5,.76,5,.7,4.85.58l-.06,0L4.73.47,4.61.41,4.55.35,4.44.29H4.38L4.26.23,4.15.18,4.09.12H4L3.85.06H3.56L3.45,0H3.21L3.1.06H2.75L2.69.12H2.57L2.45.18,2.39.23,2.28.29H2.16L2.1.35,2,.41,1.93.47,1.87.53l-.12,0L1.69.7,1.64.76,1.58.82,1.52.88,1.46,1l-.06.06-.06.12-.05.06v.11l-.06.06-.06.12v.17l-.06.12v9H1.05L1,10.86l-.06.06L.88,11,.82,11l-.06.05-.06.06-.06.06v.12l-.06.06,0,.06-.06.05-.06.06v.06l-.06.06v.12l-.06,0-.06.06V12l-.05.12v.06l-.06,0v.18l-.06.06v.35L0,12.85v.29l.06.17v.18l.06.12v.17l.06.12L.23,14l.06.18.06.12.06.11.12.12,0,.12.12.17.06.06L.88,15l.11.11.12.12.12.06.11.12.12.05.17.12.12.06.12.06.17.06.12.05.18.06.17.06h.12L2.8,16h1L4,15.94h.18l.17-.06.12-.06.17-.05.12-.06.17-.06L5,15.59l.12-.12.17-.05.12-.12.12-.06.11-.12L5.78,15l.06-.12L6,14.83l.11-.17.06-.12.06-.12.12-.11.05-.12L6.42,14l.06-.11.06-.12v-.17l.06-.12v-1l-.06-.06v-.18l-.06-.06v0l-.06-.06V12l-.06-.06v-.06l-.05,0v-.12l-.06-.06-.06-.06V11.5l-.06-.05-.06-.06L6,11.33,6,11.21l0-.06-.06-.06V11L5.78,11l-.06-.06-.06-.06L5.6,10.8Zm5.2-7.88v-.7H9.93V1.34h.76V.64h.93v.7h.82v.88h-.82v.7ZM9.93,13.84h2.51v.88H9.93Zm0-4.38h2.51v.88H9.93Zm0-1.75h2.51v.87H9.93ZM9.93,6h2.51v.87H9.93ZM3.85,11.62v-.06h0V11.5h0v-5h0V6.42h0V6.36h0V6.31H3.8V6.25H3.74V6.19h0l-.06-.06H3.62V6.07H3.5V6H3.15v.06H3v.06H3l-.06.06h0l-.06.06h0v.06H2.8v.05h0v.06h0l-.06.06h0v5h0v.06h0l.06.06H2.69l-.06.06H2.57l-.06.06H2.45l-.06.06H2.34l-.06,0-.06.06H2.16V12L2.1,12H2v.06L2,12.15l-.05,0h0l-.06.06v.06l-.06.06v.06l-.06.06v.11l-.06.06v.64l.06.06v.18l.06.06v.05l.06.06.06.06v.06L2,13.9,2,14,2.1,14l.06.05.06.06.06.06h.06l.05.06.06.06h.06l.12.06h.06l.05.05H2.8l.12.06h.29l.12.06.06-.06h.35l.06-.06h.11L4,14.37H4l.06-.06h.06l.11-.06.06-.06h.06l.06-.06.06-.06,0-.05L4.61,14V13.9l.06-.06.06-.06.06-.06v-.06l.06-.05v-.06l.06-.12v-.12l0-.05v-.53l0-.06v-.11l-.06-.06v-.06l-.06-.06v-.06l-.06-.06V12.2H4.67v0l-.06-.06L4.55,12h0l0-.06-.06-.06H4.38v-.06l-.06,0H4.26l-.06-.06h0l-.06-.06H4L4,11.62H3.85ZM3.33,15H3L2.86,15H2.69l-.12-.06-.12-.06H2.39l-.11-.06-.12-.06-.06-.05L2,14.6l-.06-.06-.06-.06-.12-.06-.06-.06-.05,0-.06-.12-.06-.06-.06-.06L1.4,14l-.06-.06-.05-.12v-.06l-.06-.11-.06-.12v-.18l-.06-.11v-.41l.06-.06v-.18l.06-.05v-.12l.06-.12V12.2l.05-.06v-.05L1.4,12V12h.06l.06-.06v-.06l.06-.06.06,0,.05-.06.06-.06h0l.06-.06.06-.06.06-.06H2l.05,0,.06-.06h.06l.06-.06V1.81l.06-.06h0V1.69l.06-.06V1.52H2.4V1.46l.05-.06h0l.06-.06h.06V1.28l.06-.06h.06V1.17H2.8l.06-.06h.06L3,1.05h.64l.06.06H3.8l.06.06h.05L4,1.22H4l.06.06v.06h.06V1.4h.06v.06l.06.06h0l.05.05v.12l.06.06h0v.12l.06.06v9.34l.06.06h.06l.06.06,0,0h.06l.06.06v.06l.06.06h.06l.06.06,0,.06.06,0v.06l.06.06L5.2,12h0l.06.06v.06l.06.05v.06l.06.06v.12l0,.06v.11l.06.06v.82l-.06.06v.12l0,.11-.06.06v.12L5.26,14l-.06.11-.06.06-.06.06L5,14.31l0,0-.12.06-.06.06-.06.06-.11.06-.06.06-.12.05-.06.06-.11.06H4.15l-.06.06L4,15H3.74L3.68,15H3.33Z" style="fill:#8c99b2"/></svg>