<svg xmlns="http://www.w3.org/2000/svg" width="11.05" height="16" viewBox="0 0 11.05 16"><title>12</title><path d="M4.29,16l-1.17-.59a6.54,6.54,0,0,1-.59-.3C.33,13.83-.47,11.66.27,9a12.46,12.46,0,0,1,1.37-2.9L1.69,6A20,20,0,0,0,3.78,1.65c.07-.22.13-.45.19-.68l.26-1,.56.36A2.29,2.29,0,0,1,5,.52l.42.42A30.24,30.24,0,0,1,9.16,5.1,9.84,9.84,0,0,1,11,9.72c.26,2.41-.45,4.16-2.18,5.33a5.06,5.06,0,0,1-1,.48l-.41.18L7,15.93l-.35-.82.18-.23.29-.34a5.79,5.79,0,0,0,.51-.65,5.12,5.12,0,0,0,0-5.6A6.83,6.83,0,0,0,6.64,7a9.43,9.43,0,0,1-1.21,4.07l-.64,1.16-.27-1.3A4.08,4.08,0,0,0,4,9.55c-.27.66-.53,1.31-.79,2a2.57,2.57,0,0,0,.58,3,1,1,0,0,1,.28.5ZM5.53,4.72l.91.76a8.5,8.5,0,0,1,2,2.33,6.12,6.12,0,0,1,.32,6.05,4.4,4.4,0,0,0,1.27-4A8.92,8.92,0,0,0,8.35,5.66a28.74,28.74,0,0,0-3.56-4l-.07.25A21.73,21.73,0,0,1,2.54,6.51l-.06.09A12.13,12.13,0,0,0,1.21,9.28a4.15,4.15,0,0,0,.93,4.33,3.73,3.73,0,0,1,.15-2.45c.28-.7.57-1.39.85-2.09l.3-.74L4,8.13l.26.18A3.63,3.63,0,0,1,5.09,9.5a7.62,7.62,0,0,0,.54-3.6ZM4.27,8.89h0Z" style="fill:#8c99b2"/></svg>