<svg xmlns="http://www.w3.org/2000/svg" width="15.08" height="16" viewBox="0 0 15.08 16"><title>2</title><path d="M14.71,15.34h-.42c0-.27,0-.52,0-.77a1.83,1.83,0,0,0,0-.47c-.45-1.5-.91-3-1.38-4.49a5.83,5.83,0,0,1-.4-2.34c0-.31-.1-.41-.41-.41H8.92c-.34,0-.44.1-.44.44V8c-.39.05-.49.11-.51.3s.06.29.39.4c-.19.6-.37,1.19-.55,1.79a.15.15,0,0,1-.07-.1l0-1.09c0-.32-.1-.43-.42-.43H5a.33.33,0,0,0-.36.37c0,.11,0,.21,0,.31a3,3,0,0,1-.17,1.22c-.18.51-.33,1-.49,1.56h0c0-.05,0-.1,0-.14v-.41c0-.32-.1-.42-.41-.42H2.16c-.32,0-.43.11-.42.43a2.74,2.74,0,0,1-.13.94c-.2.58-.38,1.18-.55,1.77a4.36,4.36,0,0,0-.14.72c0,.09-.05.11-.13.11H.27a.32.32,0,0,0,0,.62.62.62,0,0,0,.19,0H14.7c.24,0,.38-.12.38-.32S15,15.34,14.71,15.34ZM3.48,13.82a1.93,1.93,0,0,1-.11.34,2.21,2.21,0,0,0-.14,1c0,.13,0,.18-.16.18H1.71c-.1,0-.14,0-.13-.12s0-.17,0-.25c.23-.76.47-1.52.7-2.28a2.7,2.7,0,0,0,.09-.48c0-.09,0-.14.13-.14h.57s.1.06.1.09c.1.47.19.93.27,1.4A1.43,1.43,0,0,1,3.48,13.82Zm3.29,0A.16.16,0,0,1,6.6,14c-.32,0-.47.11-.48.33s.14.32.46.34l.07,0v.58c0,.12-.09.09-.16.09H4.23c-.31,0-.29,0-.31-.3a2.83,2.83,0,0,1,.24-1.08c.34-1.15.71-2.29,1-3.44a2.73,2.73,0,0,0,.06-.76c0-.14,0-.2.19-.19H6.9c.08,0,.16,0,.15.12a9.26,9.26,0,0,0,.28,2.15.6.6,0,0,1,0,.23C7.14,12.64,7,13.23,6.77,13.83Zm6.59,1.49H7.51c-.2,0-.2,0-.2-.2v-.49h4.14a.36.36,0,0,0,.39-.23A.33.33,0,0,0,11.5,14H7.44c0-.07,0-.12,0-.17L9,8.82a.17.17,0,0,1,.19-.14h1.35c.25,0,.39-.12.39-.33S10.79,8,10.55,8H9.15v-.5H11.8c0,.14,0,.28,0,.42a2.33,2.33,0,0,0,.13.87c.56,1.81,1.12,3.61,1.66,5.42a3.2,3.2,0,0,1,0,.82C13.64,15.37,13.66,15.32,13.36,15.32Z" style="fill:#8c99b2"/><path d="M3.41,5.75a2.54,2.54,0,0,0,2.64-.91,1.34,1.34,0,0,1,.11-.14A2.17,2.17,0,0,0,8.44,5a2.09,2.09,0,0,0,.1.21,2.13,2.13,0,0,0,4.05-.81,2.1,2.1,0,0,0-1.39-2.1A.25.25,0,0,1,11,2.1,2.12,2.12,0,0,0,8,.69c-.13.07-.19.06-.3,0a2.11,2.11,0,0,0-3,0A.48.48,0,0,1,4.24.8,2.52,2.52,0,0,0,1.55,3.7,2.57,2.57,0,0,0,3.41,5.75Zm.67-4.31a1.84,1.84,0,0,1,1.53.84.56.56,0,0,0,.22.21.29.29,0,0,0,.36-.1.33.33,0,0,0,0-.4,2.65,2.65,0,0,0-.89-.87L5.2,1.05a1.41,1.41,0,0,1,2.1.17,2.2,2.2,0,0,0-.44,1,2.59,2.59,0,0,0,0,.48A.33.33,0,0,0,7.18,3c.19,0,.31-.16.31-.39A1.47,1.47,0,0,1,8.86,1.11a1.45,1.45,0,0,1,1.49,1L10,2.19a2.14,2.14,0,0,0-.86.41.35.35,0,0,0-.06.54c.14.16.34.14.52,0a1.24,1.24,0,0,1,.93-.29,1.46,1.46,0,0,1,1.4,1.33,1.47,1.47,0,0,1-1.1,1.56,1.46,1.46,0,0,1-1.72-.85A1.6,1.6,0,0,1,9,4.43c0-.22-.09-.32-.26-.37s-.23,0-.4.17a1.27,1.27,0,0,1-.56.27,1.42,1.42,0,0,1-1.47-.61L6.2,3.73a.33.33,0,0,0-.42-.09.31.31,0,0,0-.14.41.23.23,0,0,1,0,.26A1.86,1.86,0,1,1,4.08,1.44Z" style="fill:#8c99b2"/><path d="M10.55,10.62a1.17,1.17,0,0,0-1.19,1.16A1.19,1.19,0,0,0,10.53,13a1.18,1.18,0,0,0,0-2.35Zm0,1.69a.52.52,0,0,1-.51-.52.51.51,0,0,1,.5-.51.52.52,0,0,1,.52.52A.53.53,0,0,1,10.54,12.31Z" style="fill:#8c99b2"/><path d="M4.06,4.79c.27,0,.42-.11.43-.32s-.12-.34-.42-.35a.84.84,0,0,1-.83-.77.33.33,0,1,0-.65.09A1.51,1.51,0,0,0,4.06,4.79Z" style="fill:#8c99b2"/></svg>