<svg xmlns="http://www.w3.org/2000/svg" width="17.64" height="20.09" viewBox="0 0 17.64 20.09"><title>3</title><path d="M9.28,12.48,2.33,19.42a1,1,0,0,1-1.42,0l-.24-.24a1,1,0,0,1,0-1.42l6.94-7" style="fill:none;stroke:#8c99b2;stroke-linecap:round;stroke-linejoin:round;stroke-width:0.75px"/><path d="M6.62,9.91l-1.16,1a.86.86,0,0,1-1.15,0v0a.85.85,0,0,1,0-1.14L5.39,8.68" style="fill:none;stroke:#8c99b2;stroke-linecap:round;stroke-linejoin:round;stroke-width:0.75px"/><path d="M8,5.83,11.66,2S13.33.09,14.15.41c0,0,2.72.54,3.12,6.18L17,7,13.34,3.35l-4,3.88" style="fill:none;stroke:#8c99b2;stroke-linecap:round;stroke-linejoin:round;stroke-width:0.75px"/><path d="M7,5.94a.48.48,0,0,1,.68,0l2.69,2.69s.5.5-.16,1.17a.65.65,0,0,0,.09.92l.63.63a.48.48,0,0,1,.06.68l-.58.57a.49.49,0,0,1-.68-.05L5.4,8.28a.49.49,0,0,1-.06-.68Z" style="fill:none;stroke:#8c99b2;stroke-linecap:round;stroke-linejoin:round;stroke-width:0.659452378749847px"/><line x1="10.68" y1="11.09" x2="12.98" y2="8.78" style="fill:none;stroke:#8c99b2;stroke-linecap:round;stroke-linejoin:round;stroke-width:0.75px"/><ellipse cx="2.03" cy="18.06" rx="0.39" ry="0.2" transform="translate(-12.17 6.72) rotate(-45)" style="fill:none;stroke:#8c99b2;stroke-linecap:round;stroke-linejoin:round;stroke-width:0.397183891330895px"/><rect x="10.12" y="6.96" width="5.16" height="1.16" rx="0.35" ry="0.35" transform="translate(16.35 21.85) rotate(-135)" style="fill:#8c99b2"/></svg>