<svg xmlns="http://www.w3.org/2000/svg" width="18" height="17.96" viewBox="0 0 18 17.96"><title>4</title><path d="M6.46,11.3,5.84,11l-.3-.16A2.61,2.61,0,0,1,4.35,7.64a6.86,6.86,0,0,1,.72-1.52l0,0A10.15,10.15,0,0,0,6.19,3.78c0-.12.07-.23.1-.36l.14-.5.29.19a.36.36,0,0,1,.12.08l.22.22A15.7,15.7,0,0,1,9,5.59,5.22,5.22,0,0,1,10,8,2.73,2.73,0,0,1,8.83,10.8a2.6,2.6,0,0,1-.5.25l-.21.1-.24.11-.19-.43.1-.12.15-.17a2.63,2.63,0,0,0,.26-.35,2.66,2.66,0,0,0,0-2.93,3.76,3.76,0,0,0-.5-.67,5.06,5.06,0,0,1-.63,2.13l-.34.61-.14-.68a2.07,2.07,0,0,0-.27-.73L5.89,9a1.36,1.36,0,0,0,.31,1.56.52.52,0,0,1,.14.26Zm.65-5.91.48.4A4.5,4.5,0,0,1,8.64,7a3.22,3.22,0,0,1,.16,3.17,2.31,2.31,0,0,0,.67-2.12,4.72,4.72,0,0,0-.88-2.18A15.5,15.5,0,0,0,6.72,3.79a.74.74,0,0,1,0,.14,10.7,10.7,0,0,1-1.14,2.4l0,0a6,6,0,0,0-.66,1.4,2.18,2.18,0,0,0,.48,2.27,2,2,0,0,1,.08-1.29l.45-1.09L6,7.28l.26-.1.14.09a1.87,1.87,0,0,1,.46.63A4,4,0,0,0,7.16,6ZM6.45,7.57h0Z" style="fill:#8c99b2"/><path d="M7.11,14.22a7.11,7.11,0,1,1,7.11-7.11A7.12,7.12,0,0,1,7.11,14.22ZM7.11.9a6.21,6.21,0,1,0,6.2,6.21A6.22,6.22,0,0,0,7.11.9Z" style="fill:#8c99b2"/><path d="M10.82,18H3.39a1.66,1.66,0,0,1-1.66-1.65V15a1.66,1.66,0,0,1,1.66-1.66h7.43A1.66,1.66,0,0,1,12.48,15v1.34A1.65,1.65,0,0,1,10.82,18ZM3.39,14.22a.75.75,0,0,0-.75.75v1.34a.76.76,0,0,0,.75.75h7.43a.76.76,0,0,0,.76-.75V15a.75.75,0,0,0-.76-.75Z" style="fill:#8c99b2"/><path d="M13.4,16.09H12.35v-.91H13.4a3,3,0,0,0,3-3V6.94h.9v5.25A3.91,3.91,0,0,1,13.4,16.09Z" style="fill:#8c99b2"/><circle cx="16.85" cy="6.94" r="1.15" style="fill:#8c99b2"/></svg>