<svg xmlns="http://www.w3.org/2000/svg" width="15" height="12.67" viewBox="0 0 15 12.67"><title>6</title><path d="M3,2.24V7a.46.46,0,0,0,.28.42L7.3,9.14l.18,0,.18,0,4.1-1.75A.46.46,0,0,0,12,7V2.23A.46.46,0,0,0,12,2l0,0a.44.44,0,0,0-.09-.11l0,0,0,0,0,0L7.57,0A.48.48,0,0,0,7.2,0l-4,1.77s0,0,0,0l0,0,0,0A.47.47,0,0,0,3,2L3,2a.39.39,0,0,0,0,.18s0,0,0,0Zm2.49-.41L8.38,3.06l-.9.38L4.58,2.22ZM3.88,2.92,7,4.24V8L3.88,6.67Zm7.24,3.75L7.94,8V4.24l1.19-.49v.7a.47.47,0,0,0,.46.46.46.46,0,0,0,.46-.46V3.36l1.07-.44ZM7.39,1l3,1.27-.82.34-3-1.26Z" style="fill:#8c99b2"/><path d="M13.48,9.62A1.53,1.53,0,0,0,12,10.68H8.94a1.51,1.51,0,0,0-2.88,0H3a1.53,1.53,0,1,0,0,.93H6.06a1.51,1.51,0,0,0,2.88,0H12a1.52,1.52,0,1,0,1.45-2Zm-6,1.84a.32.32,0,1,1,.32-.32A.32.32,0,0,1,7.5,11.46Zm-6,.29a.61.61,0,1,1,.6-.61A.6.6,0,0,1,1.52,11.75Zm12,0a.61.61,0,1,1,.6-.61A.6.6,0,0,1,13.48,11.75Z" style="fill:#8c99b2"/><path d="M7.5,10.48a.67.67,0,1,0,.66.66A.67.67,0,0,0,7.5,10.48Z" style="fill:#8c99b2"/></svg>