<svg xmlns="http://www.w3.org/2000/svg" width="15.36" height="18.75" viewBox="0 0 15.36 18.75"><title>Ресурс 9</title><path d="M4.07,13a5.11,5.11,0,0,1,0-7.21" style="fill:none;stroke:#8c99b2;stroke-linecap:round;stroke-linejoin:round;stroke-width:0.75px"/><path d="M11.29,5.77a5.08,5.08,0,0,1,0,7.21" style="fill:none;stroke:#8c99b2;stroke-linecap:round;stroke-linejoin:round;stroke-width:0.75px"/><path d="M5.36,11.7a3.27,3.27,0,0,1,0-4.65" style="fill:none;stroke:#8c99b2;stroke-linecap:round;stroke-linejoin:round;stroke-width:0.75px"/><path d="M10,7.05a3.3,3.3,0,0,1,0,4.65" style="fill:none;stroke:#8c99b2;stroke-linecap:round;stroke-linejoin:round;stroke-width:0.75px"/><path d="M15,10.89v-8C9,2.94,7.68.38,7.68.38S6.41,2.94.38,2.94v8s-.49,3.82,7.3,7.49C15.47,14.71,15,10.89,15,10.89Z" style="fill:none;stroke:#8c99b2;stroke-linecap:round;stroke-linejoin:round;stroke-width:0.75px"/><circle cx="7.68" cy="9.37" r="1.07" style="fill:#8c99b2"/></svg>