<svg xmlns="http://www.w3.org/2000/svg" width="18.75" height="15.2" viewBox="0 0 18.75 15.2"><title>9</title><path d="M6,.38a4,4,0,0,0-.17,4.7c.53.8,1.26,2.32-.36,4.48" style="fill:none;stroke:#8c99b2;stroke-linecap:round;stroke-linejoin:round;stroke-width:0.75px"/><path d="M13.17.38A4,4,0,0,0,13,5.08c.54.8,1.27,2.32-.35,4.48" style="fill:none;stroke:#8c99b2;stroke-linecap:round;stroke-linejoin:round;stroke-width:0.75px"/><path d="M16.75.38a4,4,0,0,0-.17,4.7c.53.8,1.26,2.32-.36,4.48" style="fill:none;stroke:#8c99b2;stroke-linecap:round;stroke-linejoin:round;stroke-width:0.75px"/><path d="M2.42.38a4,4,0,0,0-.18,4.7c.54.8,1.27,2.32-.35,4.48" style="fill:none;stroke:#8c99b2;stroke-linecap:round;stroke-linejoin:round;stroke-width:0.75px"/><path d="M9.59.38a4,4,0,0,0-.18,4.7c.53.8,1.27,2.32-.36,4.48" style="fill:none;stroke:#8c99b2;stroke-linecap:round;stroke-linejoin:round;stroke-width:0.75px"/><polyline points="0.38 14.82 0.38 12.48 18.38 12.48 18.38 14.82" style="fill:none;stroke:#8c99b2;stroke-linecap:round;stroke-linejoin:round;stroke-width:0.75px"/></svg>