<svg width="15" height="12" viewBox="0 0 15 12" xmlns="http://www.w3.org/2000/svg">
<path fill-rule="evenodd" clip-rule="evenodd" d="M11.6738 5.73796C11.6987 5.79996 11.7295 5.85596 11.7676 5.90596C11.8257 5.98196 11.9038 6.04296 12.0059 6.07697V6.07596C12.6016 6.27197 13.1035 6.47496 13.4829 6.80096C13.9087 7.16696 14.1519 7.64496 14.1519 8.34896C14.1519 9.80996 10.9165 9.90997 10.4609 9.91696C9.97872 11.6213 5.54705 11.6534 5.33726 11.6549L5.32959 11.655H5.32568L5.31841 11.6549C5.10209 11.6534 0.151855 11.6188 0.151855 9.60596C0.151855 8.66296 0.474609 8.02696 1.03955 7.54296C1.55469 7.10196 2.25684 6.81896 3.0918 6.53996V6.53796C3.28564 6.47396 3.43066 6.36096 3.5376 6.21996C3.63086 6.09796 3.70068 5.95296 3.75049 5.79596C3.47656 5.52996 3.24658 5.18196 3.07764 4.75296C2.87354 4.23396 2.75684 3.59296 2.75684 2.83296C2.75684 2.12396 3.04492 1.48196 3.50977 1.01696C3.97559 0.549965 4.61963 0.261963 5.32764 0.261963C6.03857 0.261963 6.68164 0.548965 7.14648 1.01496C7.61182 1.47997 7.8999 2.12296 7.8999 2.83296C7.8999 3.59296 7.78271 4.23396 7.57861 4.75296C7.40967 5.18196 7.17969 5.52996 6.90576 5.79596C6.95557 5.95296 7.02588 6.09796 7.11865 6.21996C7.22559 6.36096 7.37061 6.47396 7.56494 6.53796V6.53996L7.65674 6.57096C7.7876 6.48896 7.92871 6.41596 8.07764 6.34996C8.30664 6.24696 8.55078 6.16096 8.81152 6.07596V6.07697C8.9126 6.04296 8.98975 5.98196 9.04785 5.90596C9.08594 5.85696 9.11572 5.79996 9.1416 5.73896C8.96582 5.54996 8.81885 5.31396 8.70654 5.03096C8.55762 4.65396 8.47266 4.18996 8.47266 3.64396C8.47266 3.10896 8.68994 2.62596 9.03955 2.27596C9.38965 1.92496 9.87354 1.70896 10.4077 1.70896C10.9419 1.70896 11.4258 1.92496 11.7759 2.27596H11.7749C12.1255 2.62796 12.3428 3.11096 12.3428 3.64396C12.3428 4.18996 12.2578 4.65296 12.1099 5.03096C11.9976 5.31297 11.8496 5.54897 11.6738 5.73796ZM4.59277 6.32196C4.51855 6.49496 4.42676 6.65997 4.31152 6.81096C4.09082 7.09996 3.79248 7.33296 3.39648 7.46396L3.39551 7.46196C2.66895 7.70396 2.06885 7.94296 1.67188 8.28196C1.32568 8.57896 1.12695 8.98596 1.12695 9.60596C1.12695 10.66 5.18848 10.683 5.32666 10.683H5.32959C5.46777 10.683 9.52979 10.66 9.52979 9.60596C9.52979 8.98596 9.33057 8.57896 8.98486 8.28196C8.58887 7.94296 7.98779 7.70396 7.26074 7.46196L7.25977 7.46396C6.86377 7.33296 6.56592 7.09996 6.34473 6.81096C6.22949 6.65997 6.13672 6.49397 6.06348 6.32096C6.03662 6.33096 6.00977 6.33996 5.98291 6.34796C5.76855 6.41396 5.54883 6.44696 5.32764 6.44696C5.10889 6.44696 4.88965 6.41396 4.67578 6.34796H4.67383C4.64648 6.33996 4.61963 6.33096 4.59277 6.32196ZM6.9248 2.83296C6.9248 3.46996 6.83252 3.99096 6.67188 4.39796C6.51465 4.79696 6.29395 5.08196 6.03076 5.25396L6.02051 5.26196C5.91992 5.33196 5.81055 5.38496 5.69873 5.41896H5.69678C5.58252 5.45396 5.4585 5.47096 5.32764 5.47096C5.19678 5.47096 5.07275 5.45396 4.95947 5.41996V5.41896C4.84473 5.38396 4.73584 5.33096 4.63574 5.26196L4.62549 5.25396C4.36377 5.08196 4.1416 4.79696 3.98486 4.39796C3.82373 3.99096 3.73193 3.46996 3.73193 2.83296C3.73193 2.39096 3.91064 1.99096 4.19971 1.70197C4.48682 1.41496 4.88574 1.23696 5.32764 1.23696C5.76953 1.23696 6.16895 1.41496 6.45654 1.70396C6.74561 1.99297 6.9248 2.39196 6.9248 2.83296Z"/>
</svg>
