<svg width="24" height="24" viewBox="0 0 24 24" fill="none" xmlns="http://www.w3.org/2000/svg">
<path d="M9.39973 4.80005V14.15H7.09973C6.99973 14.15 6.89973 14.3 6.99973 14.4L11.6497 19.05C11.8497 19.25 12.1497 19.25 12.3497 19.05L16.9997 14.4C17.0997 14.3 17.0497 14.15 16.8997 14.15H14.5997V4.80005" stroke="#6FDC8C" stroke-miterlimit="10" stroke-linecap="round" stroke-linejoin="round"/>
<path opacity="0.2" d="M0 2C0 0.89543 0.895431 0 2 0H22C23.1046 0 24 0.895431 24 2V22C24 23.1046 23.1046 24 22 24H2C0.89543 24 0 23.1046 0 22V2Z" fill="#6FDC8C"/>
</svg>
