<svg width="24" height="24" viewBox="0 0 24 24" fill="none" xmlns="http://www.w3.org/2000/svg">
<path d="M15.9998 10.9V14.85H17.9998C18.0998 14.85 18.1498 15 18.0998 15.05L13.9998 19.1C13.8498 19.25 13.5498 19.25 13.3998 19.1L9.24982 15C9.14982 14.9 9.24982 14.8 9.34982 14.8H12.0998V9.19998H14.6498C14.7498 9.19998 14.7998 9.04998 14.7498 8.99998L10.6498 4.89998C10.4998 4.74998 10.1998 4.74998 10.0498 4.89998L5.89982 8.99998C5.79982 9.09998 5.89982 9.19998 5.99982 9.19998H7.99982V13.15" stroke="#9154DC" stroke-miterlimit="10" stroke-linecap="square"/>
<path opacity="0.2" d="M0 2C0 0.89543 0.895431 0 2 0H22C23.1046 0 24 0.895431 24 2V22C24 23.1046 23.1046 24 22 24H2C0.89543 24 0 23.1046 0 22V2Z" fill="#9154DC"/>
</svg>
