<svg id="a06a1937-9bea-49ef-9b5c-6adc9e640e50" data-name="1" xmlns="http://www.w3.org/2000/svg" viewBox="0 0 324 118"><defs><style>.a4a4f7df-4db0-488e-8956-375ba8327adb{font-size:5.79px;fill:#60657f;}.a4a4f7df-4db0-488e-8956-375ba8327adb,.a4f4f8dc-4111-40ff-9576-0b8d8684fde2,.a667b25e-cc18-4843-8716-dd39a2059640,.ade8a70b-ee58-482c-9757-cb961df24e91,.b23fc39f-8950-4142-9ea5-2f8752e4441b,.b5285145-6781-469a-a990-3540c04e857e,.be0494cd-29a5-480c-9c29-aec1fe26c230,.ed6d1a06-ee28-4af6-aaee-b3d66716effc{font-family:Tahoma;}.be0494cd-29a5-480c-9c29-aec1fe26c230,.ed6d1a06-ee28-4af6-aaee-b3d66716effc{font-size:12.42px;}.b23fc39f-8950-4142-9ea5-2f8752e4441b,.b409cec4-d860-4ee2-810a-b629d9e7c638,.be0494cd-29a5-480c-9c29-aec1fe26c230{fill:#f2a220;}.b3f3a3d0-f184-4ba6-9fbf-a471eaf22a15,.b8d3d26e-fd54-439e-827f-e1ebc4dfe4f4,.bd95e6c2-9c47-4830-9d7f-7ad6c84ad2f6{fill:#f3a320;}.b8d3d26e-fd54-439e-827f-e1ebc4dfe4f4,.e3e37199-2173-44f5-a098-4549009b70b0{font-size:8.28px;}.ade8a70b-ee58-482c-9757-cb961df24e91,.ed6d1a06-ee28-4af6-aaee-b3d66716effc{fill:#a0e0ff;}.bd0e6b1e-92e7-4bff-ade8-f0e4a7a1fa08,.e3e37199-2173-44f5-a098-4549009b70b0{fill:#a1e1ff;}.b5285145-6781-469a-a990-3540c04e857e{font-size:7.02px;fill:#5a5f7d;}.a83a5697-21f7-44da-b459-28b1ba7ded7f,.aefc2724-646f-4192-8fb0-b35152724bf9,.f4ece34c-ebff-4a98-b4e7-93efcd747d62{fill:none;stroke-miterlimit:10;}.a83a5697-21f7-44da-b459-28b1ba7ded7f,.aefc2724-646f-4192-8fb0-b35152724bf9{stroke:#5a5f7d;}.a83a5697-21f7-44da-b459-28b1ba7ded7f,.a8744add-b011-43b2-a144-06de4c03b699,.b409cec4-d860-4ee2-810a-b629d9e7c638,.b9707219-8fc7-40cb-b149-23cd4bbe77cb,.bf4ebdd2-e00b-4f30-8d48-02fc7d1a98d3,.eb5f74fa-21f9-4201-9481-c242f2711c9f{fill-rule:evenodd;}.eb5f74fa-21f9-4201-9481-c242f2711c9f{fill:#0d1014;}.b9707219-8fc7-40cb-b149-23cd4bbe77cb{fill:#8a98b1;}.f4ece34c-ebff-4a98-b4e7-93efcd747d62{stroke:#f2a220;stroke-width:11.62px;}.a667b25e-cc18-4843-8716-dd39a2059640,.a8744add-b011-43b2-a144-06de4c03b699,.ab262edb-fc59-4e34-950f-e5899f8c4473{fill:#fff;}.bf00903f-42de-4dc8-96c9-074a03149d21,.bf4ebdd2-e00b-4f30-8d48-02fc7d1a98d3{fill:#1a1d26;}.ab262edb-fc59-4e34-950f-e5899f8c4473{font-size:11.11px;font-family:Tahoma-Bold, Tahoma;font-weight:700;}.a4f4f8dc-4111-40ff-9576-0b8d8684fde2,.a667b25e-cc18-4843-8716-dd39a2059640,.ade8a70b-ee58-482c-9757-cb961df24e91,.b23fc39f-8950-4142-9ea5-2f8752e4441b{font-size:7.9px;}.a4f4f8dc-4111-40ff-9576-0b8d8684fde2{fill:#8b98b1;}.b8c6e214-127f-44b6-aed7-1db842e17905{letter-spacing:-0.07em;}.b3f3a3d0-f184-4ba6-9fbf-a471eaf22a15{letter-spacing:0em;}</style></defs><title>Проект1</title><text class="a4a4f7df-4db0-488e-8956-375ba8327adb" transform="translate(136.32 97.81)">Отключенных<tspan x="0" y="5.79">блокировок</tspan></text><text class="a4a4f7df-4db0-488e-8956-375ba8327adb" transform="translate(234.49 97.81)">Не указана причина<tspan x="0" y="5.79">снятия блокировок</tspan></text><text class="be0494cd-29a5-480c-9c29-aec1fe26c230" transform="translate(102.6 101.98)">1.4<tspan class="b8d3d26e-fd54-439e-827f-e1ebc4dfe4f4" x="17.31" y="0">%</tspan></text><text class="ed6d1a06-ee28-4af6-aaee-b3d66716effc" transform="translate(202.31 101.99)">1.4<tspan class="e3e37199-2173-44f5-a098-4549009b70b0" x="17.31" y="0">%</tspan></text><text class="b5285145-6781-469a-a990-3540c04e857e" transform="translate(18.65 12.4)">Блокировки и <tspan x="-13.72" y="7.02">усовершенствованное </tspan><tspan x="4.29" y="14.04">управление</tspan></text><line class="aefc2724-646f-4192-8fb0-b35152724bf9" x1="89.83" y1="86.89" x2="316.62" y2="87.26"/><path class="a83a5697-21f7-44da-b459-28b1ba7ded7f" d="M316.62,87.26l2.38,2.4"/><line class="aefc2724-646f-4192-8fb0-b35152724bf9" x1="319" y1="89.66" x2="319" y2="109.27"/><path class="a83a5697-21f7-44da-b459-28b1ba7ded7f" d="M319,109.27c-.94.93-1.46,1.46-2.4,2.4"/><line class="aefc2724-646f-4192-8fb0-b35152724bf9" x1="316.6" y1="111.67" x2="64.12" y2="111.67"/><path class="a83a5697-21f7-44da-b459-28b1ba7ded7f" d="M64.12,111.67l-2.4-2.4"/><line class="aefc2724-646f-4192-8fb0-b35152724bf9" x1="61.72" y1="109.27" x2="61.72" y2="98.84"/><path class="eb5f74fa-21f9-4201-9481-c242f2711c9f" d="M88.83,87.89a1,1,0,1,1,1-1A1,1,0,0,1,88.83,87.89Z"/><path class="b9707219-8fc7-40cb-b149-23cd4bbe77cb" d="M88.83,86.09a.8.8,0,0,1,0,1.6v.4a1.2,1.2,0,0,0,0-2.4Zm0,0h0v-.4h0a1.2,1.2,0,0,0,0,2.4h0v-.4h0a.8.8,0,0,1,0-1.6Z"/><path class="b409cec4-d860-4ee2-810a-b629d9e7c638" d="M41.1,32A34.5,34.5,0,1,0,57,97.1l-1-.37a33.7,33.7,0,1,1,11-8.61c.07.4.16,1,.16,1a34.45,34.45,0,0,0,7.69-30S76,57.65,77,56.37A37.4,37.4,0,0,0,60.09,34.29c-1.32.51-3.5,1.38-3.5,1.38A34.31,34.31,0,0,0,41.1,32Z"/><circle class="f4ece34c-ebff-4a98-b4e7-93efcd747d62" cx="40.97" cy="66.3" r="26.15" transform="matrix(0.16, -0.99, 0.99, 0.16, -31.06, 96.08)"/><path class="a8744add-b011-43b2-a144-06de4c03b699" d="M40.86,66.63l4,.36,5-27.29A28.17,28.17,0,0,1,68.92,66.27a28.22,28.22,0,0,1-28.06,28v4a32.06,32.06,0,0,0,5.72-63.62L40.86,66.27ZM36.8,38.53V66.27l4,.36v-.36l0-32.07h0a32.07,32.07,0,1,0,0,64.13v-4A28,28,0,0,1,36.8,38.53Z"/><ellipse class="bf00903f-42de-4dc8-96c9-074a03149d21" cx="40.86" cy="66.27" rx="30.6" ry="30.56"/><text class="ab262edb-fc59-4e34-950f-e5899f8c4473" transform="translate(28.17 70.95)">98.6</text><path class="eb5f74fa-21f9-4201-9481-c242f2711c9f" d="M61.72,98.64a1,1,0,1,1,1-1A1,1,0,0,1,61.72,98.64Z"/><path class="b9707219-8fc7-40cb-b149-23cd4bbe77cb" d="M61.72,96.84a.8.8,0,1,1,0,1.6v.4a1.2,1.2,0,0,0,0-2.4v.4Zm0-.4,0,2a.8.8,0,1,1,0-1.6v-.4h0a1.2,1.2,0,1,0,0,2.4Z"/><rect class="bf00903f-42de-4dc8-96c9-074a03149d21" x="40.89" y="33.53" width="0.73" height="7.66"/><polygon class="bf4ebdd2-e00b-4f30-8d48-02fc7d1a98d3" points="45.79 41.66 45.08 41.5 46.17 33.97 46.88 34.13 45.79 41.66"/><text class="a4f4f8dc-4111-40ff-9576-0b8d8684fde2" transform="translate(229.01 25.84)">ГФУ-2</text><text class="a4f4f8dc-4111-40ff-9576-0b8d8684fde2" transform="translate(229.01 37.44)">АССБ и КТ</text><text class="a4f4f8dc-4111-40ff-9576-0b8d8684fde2" transform="translate(229.01 49.05)">Парк Б,Р и ДТ</text><text class="a4f4f8dc-4111-40ff-9576-0b8d8684fde2" transform="translate(229.01 72.26)">Т-д транснефть</text><text class="a4f4f8dc-4111-40ff-9576-0b8d8684fde2" transform="translate(229.01 60.65)">ТАМЭ</text><text class="ade8a70b-ee58-482c-9757-cb961df24e91" transform="translate(291.81 72.6)">100<tspan class="bd0e6b1e-92e7-4bff-ade8-f0e4a7a1fa08" x="12.95" y="0">%</tspan></text><text class="ade8a70b-ee58-482c-9757-cb961df24e91" transform="translate(291.81 60.98)">100<tspan class="bd0e6b1e-92e7-4bff-ade8-f0e4a7a1fa08" x="12.95" y="0">%</tspan></text><text class="ade8a70b-ee58-482c-9757-cb961df24e91" transform="translate(291.81 49.36)">100<tspan class="bd0e6b1e-92e7-4bff-ade8-f0e4a7a1fa08" x="12.95" y="0">%</tspan></text><text class="ade8a70b-ee58-482c-9757-cb961df24e91" transform="translate(291.81 37.74)">100<tspan class="bd0e6b1e-92e7-4bff-ade8-f0e4a7a1fa08" x="12.95" y="0">%</tspan></text><text class="ade8a70b-ee58-482c-9757-cb961df24e91" transform="translate(291.81 26.12)">100<tspan class="bd0e6b1e-92e7-4bff-ade8-f0e4a7a1fa08" x="12.95" y="0">%</tspan></text><text class="a667b25e-cc18-4843-8716-dd39a2059640" transform="translate(107.94 26.12)">ЭЛОУ-АВТ-6</text><text class="a667b25e-cc18-4843-8716-dd39a2059640" transform="translate(107.94 37.73)">ЭЛОУ-2</text><text class="a667b25e-cc18-4843-8716-dd39a2059640" transform="translate(107.94 49.33)">С.100 ЭЛОУ-АВТ-6</text><text class="a667b25e-cc18-4843-8716-dd39a2059640" transform="translate(107.94 60.94)">Блок ВТ (АТВБ)</text><text class="a667b25e-cc18-4843-8716-dd39a2059640" transform="translate(107.94 72.54)">УПВ</text><text class="b23fc39f-8950-4142-9ea5-2f8752e4441b" transform="translate(181.76 72.6)">9<tspan class="b8c6e214-127f-44b6-aed7-1db842e17905" x="4.32" y="0">7</tspan><tspan x="8.05" y="0">.4</tspan><tspan class="bd95e6c2-9c47-4830-9d7f-7ad6c84ad2f6" x="14.76" y="0">%</tspan></text><text class="b23fc39f-8950-4142-9ea5-2f8752e4441b" transform="translate(181.76 60.98)">9<tspan class="b8c6e214-127f-44b6-aed7-1db842e17905" x="4.32" y="0">7</tspan><tspan x="8.05" y="0">.2</tspan><tspan class="bd95e6c2-9c47-4830-9d7f-7ad6c84ad2f6" x="14.76" y="0">%</tspan></text><text class="b23fc39f-8950-4142-9ea5-2f8752e4441b" transform="translate(181.76 49.36)">9<tspan class="b8c6e214-127f-44b6-aed7-1db842e17905" x="4.32" y="0">7</tspan><tspan x="8.05" y="0">.1</tspan><tspan class="bd95e6c2-9c47-4830-9d7f-7ad6c84ad2f6" x="14.76" y="0">%</tspan></text><text class="b23fc39f-8950-4142-9ea5-2f8752e4441b" transform="translate(187.89 37.74)">97<tspan class="bd95e6c2-9c47-4830-9d7f-7ad6c84ad2f6" x="8.63" y="0">%</tspan></text><text class="b23fc39f-8950-4142-9ea5-2f8752e4441b" transform="translate(181.18 26.12)">96.3<tspan class="b3f3a3d0-f184-4ba6-9fbf-a471eaf22a15" x="15.34" y="0">%</tspan></text></svg>