<svg id="b256e42c-7499-4552-b6f7-0db9d9eadcb4" data-name="1" xmlns="http://www.w3.org/2000/svg" xmlns:xlink="http://www.w3.org/1999/xlink" viewBox="0 0 324 118"><defs><style>.aab7753f-d74e-46f5-a52c-42de5060ab93,.ae61c4d8-8956-443f-abfb-c70f8dc0081a,.bc660f53-7b65-41a4-a2fc-28a2186d13d7,.f2bea0aa-643c-4725-961d-1ac2f13c5db6{fill:none;}.b89f5b02-32d5-4e14-9183-85813427cfd4{font-size:8.98px;}.a1c219f2-947f-4050-89f7-9e5efaea0b72,.b433a655-4591-4fff-ada9-d6e5bfa84918,.b89f5b02-32d5-4e14-9183-85813427cfd4{fill:#8c99b2;}.b89f5b02-32d5-4e14-9183-85813427cfd4,.bdb2cab1-804d-4d2d-84c2-c2de4bcf0989,.efd339b0-230e-4f01-957c-2ef849ee3d89{font-family:Tahoma;}.bdb2cab1-804d-4d2d-84c2-c2de4bcf0989,.efd339b0-230e-4f01-957c-2ef849ee3d89{font-size:8.05px;}.efd339b0-230e-4f01-957c-2ef849ee3d89{fill:#fff;}.bdb2cab1-804d-4d2d-84c2-c2de4bcf0989{fill:#f4a321;}.ae61c4d8-8956-443f-abfb-c70f8dc0081a{stroke:#616580;stroke-width:0.42px;}.aab7753f-d74e-46f5-a52c-42de5060ab93,.ae61c4d8-8956-443f-abfb-c70f8dc0081a,.f2bea0aa-643c-4725-961d-1ac2f13c5db6{stroke-miterlimit:10;}.ae61c4d8-8956-443f-abfb-c70f8dc0081a,.f2bea0aa-643c-4725-961d-1ac2f13c5db6{opacity:0.5;}.a1c219f2-947f-4050-89f7-9e5efaea0b72{fill-rule:evenodd;}.a4ff611d-80c4-4d4b-a096-ff36b317a10e{clip-path:url(#be47155c-8664-475b-8410-94af0221c622);}.b404db8f-3c0d-4011-b70f-1ddd7e167f3a,.f650d630-dd04-4abd-84df-28fc8bf28470{fill:#a2e2ff;}.b404db8f-3c0d-4011-b70f-1ddd7e167f3a{opacity:0.1;}.aab7753f-d74e-46f5-a52c-42de5060ab93,.f2bea0aa-643c-4725-961d-1ac2f13c5db6{stroke:#a2e2ff;stroke-width:0.2px;}.f650d630-dd04-4abd-84df-28fc8bf28470{opacity:0.15;}</style><clipPath id="be47155c-8664-475b-8410-94af0221c622"><circle class="bc660f53-7b65-41a4-a2fc-28a2186d13d7" cx="163.13" cy="180.68" r="44.6"/></clipPath></defs><title>Проект1</title><text class="b89f5b02-32d5-4e14-9183-85813427cfd4" transform="translate(260.06 32.8)">т.у.т.</text><text class="b89f5b02-32d5-4e14-9183-85813427cfd4" transform="translate(303.57 32.8)">%</text><text class="b89f5b02-32d5-4e14-9183-85813427cfd4" transform="translate(174.93 32.8)">кВт/ч</text><text class="b89f5b02-32d5-4e14-9183-85813427cfd4" transform="translate(215.35 32.8)">%</text><text class="b89f5b02-32d5-4e14-9183-85813427cfd4" transform="translate(88.87 32.8)">гКал</text><text class="b89f5b02-32d5-4e14-9183-85813427cfd4" transform="translate(130.22 32.8)">%</text><text class="b89f5b02-32d5-4e14-9183-85813427cfd4" transform="translate(5 32.8)">Установки</text><path class="b433a655-4591-4fff-ada9-d6e5bfa84918" d="M199,15.91V9.05L198.91,9V8.87l0,0,0-.09v0l-.05-.09,0,0,0-.05,0-.08,0,0-.05,0-.08-.09,0,0,0-.05-.09,0,0,0L198.17,8h0L198,8,198,8l0,0h-.09l-.09,0h-.21l-.09,0h-.18l-.08,0h-.27l0,0h-.09l-.08,0-.05,0-.09,0h-.08l-.05.05-.08,0-.05,0,0,.05-.09,0,0,.09-.05,0,0,0,0,0-.05.09,0,0-.05.09,0,0v.09l0,0-.05.09v.13l0,.09v6.73h0l0,0,0,.05-.05,0,0,0,0,.05,0,0,0,0v.08l0,.05,0,0,0,0,0,.05v0l0,.05v.08l0,.05,0,0v0l0,.09v.05l0,0v.13l-.05,0v.27l0,0v.22l0,.13v.13l.05.09v.13l0,.09,0,.08,0,.14,0,.08,0,.09.09.09,0,.08.08.14,0,0,.08.09.09.08.09.09.09.05.08.08.09.05.13.08.09.05.09,0,.13.05.09,0,.13,0,.13.05h.09l.13,0h.74l.13,0H198l.13-.05.09,0,.13,0,.09-.05.13,0,.09-.05.08-.08.14-.05.08-.08.09-.05.09-.09.09-.08,0-.09.09,0,.08-.14.05-.08,0-.09.09-.09,0-.08,0-.14,0-.08,0-.09V18l0-.09v-.74l0-.05V17l0,0v0l0-.05v-.09l0,0v0l0-.05v-.08l0-.05-.05,0v-.05l0,0-.05,0,0-.05,0-.08-.05,0,0,0v-.05l0,0-.05,0,0-.05-.05,0Zm3.89-5.9V9.48h-.57V8.83h.57V8.3h.7v.53h.61v.65h-.61V10Zm-.57,8.17h1.88v.66h-1.88Zm0-3.28h1.88v.66h-1.88Zm0-1.31h1.88v.66h-1.88Zm0-1.31h1.88v.66h-1.88Zm-4.55,4.24v0h0v-.05h0V12.68h0v0h0v0h0v-.05h0v0h0v0h0l-.05-.05h0v0h-.09v0h-.26v0h-.09v0h0l-.05.05h0l0,0h0v0h0v.05h0v0h0l0,0h0v3.75h0v.05h0l0,0h-.09l0,.05h0l0,0h0l0,0h0l0,.05,0,0h0v0l-.05,0h0v0l0,.05,0,0h0l0,0v.05l-.05,0v0l0,.05v.09l0,0v.48l0,0V18l0,0v0l.05.05,0,0v0l0,.05,0,0,0,0,.05.05,0,0,0,.05h0l0,0,0,0h0l.09,0h0l0,0h0l.08,0h.22l.09.05,0-.05h.27l0,0h.09l0,0h0l0,0h0l.09,0,0,0h0l0-.05,0,0,0-.05,0,0v0l0-.05,0,0,0,0v-.05l0,0v0l0-.09v-.09l0,0v-.4l0,0v-.09l0,0v-.05l0,0v0l0-.05v0h0v0l0-.05,0,0h0l0,0,0,0h0v0l0-.05h0l0,0H198l0,0h0l0-.05h-.09Zm-.39,2.54h-.26L197,19h-.13l-.09,0-.08,0h-.05l-.09-.05-.08,0-.05-.05-.08,0-.05,0,0-.05-.09,0,0,0-.05,0,0-.09,0,0-.05,0,0-.09-.05,0,0-.09v-.05l0-.08-.05-.09v-.13l0-.09v-.3l0,0v-.13l.05,0v-.09l0-.09v0l0-.05v0l.05,0v0h0l.05,0v0l0-.05,0,0,.05-.05,0,0h0l0,0,.05-.05,0,0h.05l0,0,0-.05h.05l0,0V9.18l0,0h0v0l0,0V9h0V8.91l.05,0h0l0,0h0V8.78l0,0h0v0H197l0,0h0l0,0h.48l0,0h.09l.05,0h0l0,0h.05l0,0v.05h0v0H198v0L198,9h0l.05,0v.09l0,0h0v.09l0,0v7l.05,0h0l0,.05,0,0h0l.05,0v.05l0,0h0l0,0,0,.05,0,0v.05l0,0,0,0h0l0,0v0l0,0V17l0,0v.09l0,0v.09l0,0v.62l0,0V18l0,.08,0,.05v.09l0,0,0,.09,0,0,0,0,0,.09,0,0-.09,0,0,0-.05.05-.09,0,0,0-.09.05,0,0-.09.05H198l0,0-.09,0h-.17l-.05,0h-.26Z"/><text class="efd339b0-230e-4f01-957c-2ef849ee3d89" transform="translate(88.87 60.11)">- 0.0</text><text class="bdb2cab1-804d-4d2d-84c2-c2de4bcf0989" transform="translate(130.22 60.11)">- 3.9</text><text class="efd339b0-230e-4f01-957c-2ef849ee3d89" transform="translate(259.86 60.11)">0.0</text><text class="bdb2cab1-804d-4d2d-84c2-c2de4bcf0989" transform="translate(304.46 60.11)">0.3</text><text class="efd339b0-230e-4f01-957c-2ef849ee3d89" transform="translate(175.06 60.11)">- 150.8</text><text class="bdb2cab1-804d-4d2d-84c2-c2de4bcf0989" transform="translate(215.48 60.11)">- 11.0</text><text class="efd339b0-230e-4f01-957c-2ef849ee3d89" transform="translate(88.87 82.85)">- 0.0</text><text class="bdb2cab1-804d-4d2d-84c2-c2de4bcf0989" transform="translate(130.22 82.85)">- 3.9</text><text class="efd339b0-230e-4f01-957c-2ef849ee3d89" transform="translate(259.86 82.85)">0.0</text><text class="bdb2cab1-804d-4d2d-84c2-c2de4bcf0989" transform="translate(304.46 82.85)">0.3</text><text class="efd339b0-230e-4f01-957c-2ef849ee3d89" transform="translate(175.06 82.85)">- 150.8</text><text class="bdb2cab1-804d-4d2d-84c2-c2de4bcf0989" transform="translate(215.48 82.85)">- 11.0</text><text class="efd339b0-230e-4f01-957c-2ef849ee3d89" transform="translate(88.87 105.6)">- 0.0</text><text class="bdb2cab1-804d-4d2d-84c2-c2de4bcf0989" transform="translate(130.22 105.6)">- 3.9</text><text class="efd339b0-230e-4f01-957c-2ef849ee3d89" transform="translate(259.86 105.6)">0.0</text><text class="bdb2cab1-804d-4d2d-84c2-c2de4bcf0989" transform="translate(304.46 105.6)">0.3</text><text class="efd339b0-230e-4f01-957c-2ef849ee3d89" transform="translate(175.06 105.6)">- 150.8</text><text class="bdb2cab1-804d-4d2d-84c2-c2de4bcf0989" transform="translate(215.48 105.6)">- 11.0</text><text class="efd339b0-230e-4f01-957c-2ef849ee3d89" transform="translate(5 84.1)">ЭЛОУ-2</text><text class="efd339b0-230e-4f01-957c-2ef849ee3d89" transform="translate(5 61.4)">ЭЛОУ-АВТ-6</text><text class="efd339b0-230e-4f01-957c-2ef849ee3d89" transform="translate(5 106.8)">С.100 ЭЛОУ-АВТ-6</text><path class="b433a655-4591-4fff-ada9-d6e5bfa84918" d="M31.29,17h-.88V16A1.44,1.44,0,0,0,31,14.84V12.31a1.48,1.48,0,0,0-1.23-1.46v-1a.25.25,0,0,0-.25-.24H27.13A1.35,1.35,0,0,0,25.78,11v1.9h-.72a.21.21,0,0,0-.18.09L24,14h-.25V8.07a.25.25,0,0,0-.25-.25H22.16a.25.25,0,0,0-.25.25V14h-.46a.25.25,0,0,0-.25.25V17h-.29a.25.25,0,0,0-.25.25v2.28a.25.25,0,0,0,.25.25H31.29a.25.25,0,0,0,.25-.25V17.27A.25.25,0,0,0,31.29,17Zm-5-6a.85.85,0,0,1,.85-.85h2.14v.73A1.48,1.48,0,0,0,28,12.31v2.53A1.47,1.47,0,0,0,28.61,16v1H27.17v-3.9a.25.25,0,0,0-.25-.25h-.64ZM22.4,8.31h.82V14H22.4Zm-.7,6.2h2.38a.27.27,0,0,0,.19-.08l.91-1.07h1.5v1.17h-.87a.25.25,0,0,0,0,.5h.87v2H25.34V16a.25.25,0,0,0-.25-.25H23.28A.25.25,0,0,0,23,16V17H21.7Zm3.15,1.69V17H23.53V16.2ZM29.1,17v-.76a1.43,1.43,0,0,0,.82,0V17Zm.41-1.19a1,1,0,0,1-1-1V12.31a1,1,0,1,1,2,0v2.53A1,1,0,0,1,29.51,15.83Z"/><line class="ae61c4d8-8956-443f-abfb-c70f8dc0081a" x1="5" y1="40.3" x2="319" y2="40.3"/><path class="a1c219f2-947f-4050-89f7-9e5efaea0b72" d="M117,8.72h-2.08v-.9h-2.06v.9H110.8a.46.46,0,0,0-.45.46V19.35a.45.45,0,0,0,.45.45H117a.45.45,0,0,0,.45-.45V9.18A.46.46,0,0,0,117,8.72Zm-.45,10.17h-5.32V9.63h5.32Z"/><path class="a1c219f2-947f-4050-89f7-9e5efaea0b72" d="M116.09,14.58,111.73,12v6.19h4.36Zm-1.35,1.11v0l-1.47,1.61h-.06s0,0,0-.05l.52-1.13h-.47s0,0,0,0,0,0,0,0l.68-1.27,0,0h.74l0,0a0,0,0,0,1,0,0l-.54.79h.54l0,0v0Z"/><path class="b433a655-4591-4fff-ada9-d6e5bfa84918" d="M285.25,19.8l-.87-.44a3.68,3.68,0,0,1-.44-.23,3.72,3.72,0,0,1-1.7-4.56,9.64,9.64,0,0,1,1-2.17l0-.07a15.44,15.44,0,0,0,1.56-3.27c.05-.17.1-.34.14-.51l.2-.73.42.27a.55.55,0,0,1,.17.13l.32.31a23,23,0,0,1,2.78,3.11,7.49,7.49,0,0,1,1.38,3.46,3.91,3.91,0,0,1-1.63,4,4.12,4.12,0,0,1-.73.36l-.3.14-.34.16-.26-.62.13-.17c.07-.08.14-.17.22-.25a5.41,5.41,0,0,0,.38-.49,3.84,3.84,0,0,0,0-4.19,4.75,4.75,0,0,0-.71-1,7,7,0,0,1-.9,3l-.48.88-.2-1a3.14,3.14,0,0,0-.39-1l-.6,1.48a1.93,1.93,0,0,0,.44,2.22.79.79,0,0,1,.21.38Zm.93-8.45.68.58a6.28,6.28,0,0,1,1.5,1.74,4.56,4.56,0,0,1,.24,4.53,3.3,3.3,0,0,0,.95-3,6.64,6.64,0,0,0-1.25-3.11,21.67,21.67,0,0,0-2.67-3,1.33,1.33,0,0,0-.05.19,16,16,0,0,1-1.64,3.43l0,.07a8.5,8.5,0,0,0-.95,2,3.11,3.11,0,0,0,.7,3.24,2.71,2.71,0,0,1,.11-1.83l.63-1.57.23-.55.38-.15.2.13a2.57,2.57,0,0,1,.65.9,5.76,5.76,0,0,0,.41-2.7Zm-.94,3.13h0Z"/><g class="a4ff611d-80c4-4d4b-a096-ff36b317a10e"><polygon class="b404db8f-3c0d-4011-b70f-1ddd7e167f3a" points="15.92 207.32 15.92 109.36 69.53 43.55 205.74 43.55 235.41 101.3 235.41 129.84 290.85 129.84 290.85 153.7 216.13 237.84 82.39 237.84 82.39 207.32 15.92 207.32"/><polygon class="aab7753f-d74e-46f5-a52c-42de5060ab93" points="15.92 207.32 15.92 109.36 69.53 43.55 205.74 43.55 235.41 101.3 235.41 129.84 290.85 129.84 290.85 153.7 216.13 237.84 82.39 237.84 82.39 207.32 15.92 207.32"/><polygon class="f650d630-dd04-4abd-84df-28fc8bf28470" points="72.59 46.99 49.91 75.73 73.42 75.73 73.42 46.99 72.59 46.99"/><polygon class="f2bea0aa-643c-4725-961d-1ac2f13c5db6" points="72.59 46.99 49.91 75.73 73.42 75.73 73.42 46.99 72.59 46.99"/><polygon class="f650d630-dd04-4abd-84df-28fc8bf28470" points="49.17 77.28 34.8 94.69 73.42 94.69 73.42 77.28 49.17 77.28"/><polygon class="aab7753f-d74e-46f5-a52c-42de5060ab93" points="49.17 77.28 34.8 94.69 73.42 94.69 73.42 77.28 49.17 77.28"/><rect class="f650d630-dd04-4abd-84df-28fc8bf28470" x="75.28" y="46.99" width="26.22" height="54.92"/><rect class="f2bea0aa-643c-4725-961d-1ac2f13c5db6" x="75.28" y="46.99" width="26.22" height="54.92"/><rect class="f650d630-dd04-4abd-84df-28fc8bf28470" x="75.28" y="103.84" width="26.22" height="18.36"/><rect class="f2bea0aa-643c-4725-961d-1ac2f13c5db6" x="75.28" y="103.84" width="26.22" height="18.36"/><rect class="f650d630-dd04-4abd-84df-28fc8bf28470" x="51.75" y="96.3" width="21.67" height="25.89"/><rect class="f2bea0aa-643c-4725-961d-1ac2f13c5db6" x="51.75" y="96.3" width="21.67" height="25.89"/><rect class="f650d630-dd04-4abd-84df-28fc8bf28470" x="103.52" y="103.84" width="20.58" height="18.36"/><rect class="f2bea0aa-643c-4725-961d-1ac2f13c5db6" x="103.52" y="103.84" width="20.58" height="18.36"/><rect class="f650d630-dd04-4abd-84df-28fc8bf28470" x="126.12" y="103.84" width="35.18" height="18.36"/><rect class="f2bea0aa-643c-4725-961d-1ac2f13c5db6" x="126.12" y="103.84" width="35.18" height="18.36"/><rect class="f650d630-dd04-4abd-84df-28fc8bf28470" x="162.58" y="103.84" width="28" height="18.36"/><rect class="f2bea0aa-643c-4725-961d-1ac2f13c5db6" x="162.58" y="103.84" width="28" height="18.36"/><rect class="f650d630-dd04-4abd-84df-28fc8bf28470" x="191.77" y="103.84" width="38.33" height="18.36"/><rect class="f2bea0aa-643c-4725-961d-1ac2f13c5db6" x="191.77" y="103.84" width="38.33" height="18.36"/><rect class="f650d630-dd04-4abd-84df-28fc8bf28470" x="103.52" y="46.99" width="20.58" height="26.04"/><rect class="f2bea0aa-643c-4725-961d-1ac2f13c5db6" x="103.52" y="46.99" width="20.58" height="26.04"/><rect class="f650d630-dd04-4abd-84df-28fc8bf28470" x="126.12" y="46.99" width="22.11" height="26.04"/><rect class="f2bea0aa-643c-4725-961d-1ac2f13c5db6" x="126.12" y="46.99" width="22.11" height="26.04"/><rect class="f650d630-dd04-4abd-84df-28fc8bf28470" x="150.24" y="46.99" width="22.11" height="26.04"/><rect class="f2bea0aa-643c-4725-961d-1ac2f13c5db6" x="150.24" y="46.99" width="22.11" height="26.04"/><rect class="f650d630-dd04-4abd-84df-28fc8bf28470" x="174.36" y="46.99" width="22.11" height="26.04"/><rect class="f2bea0aa-643c-4725-961d-1ac2f13c5db6" x="174.36" y="46.99" width="22.11" height="26.04"/><rect class="f650d630-dd04-4abd-84df-28fc8bf28470" x="103.52" y="74.45" width="20.58" height="13.02"/><rect class="f2bea0aa-643c-4725-961d-1ac2f13c5db6" x="103.52" y="74.45" width="20.58" height="13.02"/><rect class="f650d630-dd04-4abd-84df-28fc8bf28470" x="126.12" y="74.45" width="22.11" height="13.02"/><rect class="f2bea0aa-643c-4725-961d-1ac2f13c5db6" x="126.12" y="74.45" width="22.11" height="13.02"/><rect class="f650d630-dd04-4abd-84df-28fc8bf28470" x="150.24" y="74.45" width="22.11" height="13.02"/><rect class="f2bea0aa-643c-4725-961d-1ac2f13c5db6" x="150.24" y="74.45" width="22.11" height="13.02"/><rect class="f650d630-dd04-4abd-84df-28fc8bf28470" x="174.36" y="74.45" width="22.11" height="13.02"/><rect class="f2bea0aa-643c-4725-961d-1ac2f13c5db6" x="174.36" y="74.45" width="22.11" height="13.02"/><rect class="f650d630-dd04-4abd-84df-28fc8bf28470" x="103.52" y="88.89" width="20.58" height="13.02"/><rect class="f2bea0aa-643c-4725-961d-1ac2f13c5db6" x="103.52" y="88.89" width="20.58" height="13.02"/><rect class="f650d630-dd04-4abd-84df-28fc8bf28470" x="126.12" y="88.89" width="22.11" height="13.02"/><rect class="f2bea0aa-643c-4725-961d-1ac2f13c5db6" x="126.12" y="88.89" width="22.11" height="13.02"/><rect class="f650d630-dd04-4abd-84df-28fc8bf28470" x="150.24" y="88.89" width="22.11" height="13.02"/><rect class="f2bea0aa-643c-4725-961d-1ac2f13c5db6" x="150.24" y="88.89" width="22.11" height="13.02"/><rect class="f650d630-dd04-4abd-84df-28fc8bf28470" x="174.36" y="88.89" width="22.11" height="13.02"/><rect class="f2bea0aa-643c-4725-961d-1ac2f13c5db6" x="174.36" y="88.89" width="22.11" height="13.02"/><polygon class="f650d630-dd04-4abd-84df-28fc8bf28470" points="230.11 101.78 198.49 101.78 198.49 46.99 202.77 46.99 230.11 101.78"/><polygon class="f2bea0aa-643c-4725-961d-1ac2f13c5db6" points="230.11 101.78 198.49 101.78 198.49 46.99 202.77 46.99 230.11 101.78"/><polygon class="f650d630-dd04-4abd-84df-28fc8bf28470" points="49.59 96.3 33.62 96.3 20.02 112.16 20.02 122.83 49.59 122.83 49.59 96.3"/><polygon class="f2bea0aa-643c-4725-961d-1ac2f13c5db6" points="49.59 96.3 33.62 96.3 20.02 112.16 20.02 122.83 49.59 122.83 49.59 96.3"/></g></svg>