<svg width="18" height="18" viewBox="0 0 18 18" fill="none" xmlns="http://www.w3.org/2000/svg">
<path d="M10.2976 15.75C10.1658 15.9773 9.97652 16.166 9.74881 16.2971C9.52109 16.4283 9.26292 16.4973 9.00014 16.4973C8.73735 16.4973 8.47918 16.4283 8.25147 16.2971C8.02375 16.166 7.83449 15.9773 7.70264 15.75" stroke="currentColor" stroke-width="1.5" stroke-linecap="round" stroke-linejoin="round"/>
<path d="M13.9725 9.75C13.6389 8.52856 13.4798 7.26603 13.5 6" stroke="currentColor" stroke-width="1.5" stroke-linecap="round" stroke-linejoin="round"/>
<path d="M4.695 4.69507C4.5647 5.11778 4.49896 5.55773 4.5 6.00007C4.5 11.2501 2.25 12.7501 2.25 12.7501H12.75" stroke="currentColor" stroke-width="1.5" stroke-linecap="round" stroke-linejoin="round"/>
<path d="M13.4999 6.00009C13.5012 5.18488 13.2809 4.38466 12.8627 3.6849C12.4445 2.98514 11.8441 2.41213 11.1255 2.02707C10.407 1.642 9.59737 1.45936 8.78312 1.49864C7.96886 1.53792 7.18057 1.79765 6.50244 2.25009" stroke="currentColor" stroke-width="1.5" stroke-linecap="round" stroke-linejoin="round"/>
<path d="M0.75 0.75L17.25 17.25" stroke="currentColor" stroke-width="1.5" stroke-linecap="round" stroke-linejoin="round"/>
</svg>
