<svg id="a1124e25-b8fd-4e75-9892-73dce73dabaf" data-name="1" xmlns="http://www.w3.org/2000/svg" viewBox="0 0 324 116.75"><defs><style>.b5685c68-afb2-4e28-a4c3-84928ab9809e{font-size:8.86px;}.a13b4a47-f232-4f71-bd8b-b9051b3f038f,.af28650d-95ed-45c3-8cd2-00e5a2c5dcd5,.b5685c68-afb2-4e28-a4c3-84928ab9809e,.e4ec058d-417f-4d1c-ade4-0f00ffd4d64a,.eed61057-1539-48bb-b248-7f75b84adce4{fill:#5b607d;}.a13b4a47-f232-4f71-bd8b-b9051b3f038f,.a1ebcef8-e8b7-420a-9f20-3f40b6629533,.aabda4bb-6fc6-462f-a43e-b4bcf83ed380,.af28650d-95ed-45c3-8cd2-00e5a2c5dcd5,.b4ff93ef-897f-4ecb-9a3d-2dc78dcc33d6,.b5685c68-afb2-4e28-a4c3-84928ab9809e,.e4ec058d-417f-4d1c-ade4-0f00ffd4d64a,.e80d8700-4e8c-47a6-8874-7b2de5ebe23b,.eae1bd3b-eced-49b9-8feb-6cfe75e52abd{font-family:Tahoma;}.a9b7b003-08bf-4f04-920a-f728e76eda26{fill:#5e6581;opacity:0.2;}.b8cbf78d-0792-4b59-a4af-a7a1a04dbe40{fill:#1b1e27;}.b4ff93ef-897f-4ecb-9a3d-2dc78dcc33d6,.e4ec058d-417f-4d1c-ade4-0f00ffd4d64a{font-size:19.2px;}.bc97e97a-9f94-42d1-a4fd-c45d5ea56a4f,.ffb246a3-c338-4111-96b1-d385b28b177d{fill:none;stroke-miterlimit:10;}.ffb246a3-c338-4111-96b1-d385b28b177d{stroke:#5b607d;stroke-width:1.07px;}.fe905a63-a995-44d3-afb9-67787b370202{fill:#0d1014;}.aabda4bb-6fc6-462f-a43e-b4bcf83ed380,.af28650d-95ed-45c3-8cd2-00e5a2c5dcd5,.eae1bd3b-eced-49b9-8feb-6cfe75e52abd{font-size:9.49px;}.a13b4a47-f232-4f71-bd8b-b9051b3f038f,.a1ebcef8-e8b7-420a-9f20-3f40b6629533,.e80d8700-4e8c-47a6-8874-7b2de5ebe23b{font-size:12.5px;}.aabda4bb-6fc6-462f-a43e-b4bcf83ed380,.bc9d276a-bb2e-4535-9df6-edf490ced8cc,.e80d8700-4e8c-47a6-8874-7b2de5ebe23b{fill:#f4a321;}.bc97e97a-9f94-42d1-a4fd-c45d5ea56a4f{stroke:#fff;}.b4ff93ef-897f-4ecb-9a3d-2dc78dcc33d6{fill:#fff;}.a1ebcef8-e8b7-420a-9f20-3f40b6629533,.eae1bd3b-eced-49b9-8feb-6cfe75e52abd{fill:#fcfcfc;}</style></defs><title>Prew</title><text class="b5685c68-afb2-4e28-a4c3-84928ab9809e" transform="translate(14.34 14.55)">Статическое оборудование</text><path class="a9b7b003-08bf-4f04-920a-f728e76eda26" d="M43.32,38.79a35.22,35.22,0,1,0,16.23,66.47s-.75-.28-1-.37a34.45,34.45,0,1,1,11.19-8.8c.07.41.17,1,.17,1A35.2,35.2,0,0,0,78.53,74a35.8,35.8,0,0,0-.81-7.52l2.2-2.8A38.24,38.24,0,0,0,62.69,41.14l-3.56,1.42A34.9,34.9,0,0,0,43.32,38.79Z"/><circle class="a9b7b003-08bf-4f04-920a-f728e76eda26" cx="43.18" cy="73.82" r="26.69"/><circle class="b8cbf78d-0792-4b59-a4af-a7a1a04dbe40" cx="43.18" cy="73.82" r="25.76"/><text class="e4ec058d-417f-4d1c-ade4-0f00ffd4d64a" transform="translate(39.03 79.35)">0</text><path class="ffb246a3-c338-4111-96b1-d385b28b177d" d="M10.33,20v3.49l2.08,2.09H35.2L48.92,39.32"/><path class="b8cbf78d-0792-4b59-a4af-a7a1a04dbe40" d="M48.85,40.25a.94.94,0,1,1,.94-.93A.94.94,0,0,1,48.85,40.25Z"/><path class="eed61057-1539-48bb-b248-7f75b84adce4" d="M48.85,38.91a.41.41,0,1,1-.4.41.4.4,0,0,1,.4-.41m0-1.07a1.48,1.48,0,1,0,1.47,1.48,1.47,1.47,0,0,0-1.47-1.48Z"/><path class="eed61057-1539-48bb-b248-7f75b84adce4" d="M48.85,39.63a.32.32,0,1,1,.31-.31A.31.31,0,0,1,48.85,39.63Z"/><path class="b8cbf78d-0792-4b59-a4af-a7a1a04dbe40" d="M48.85,38.47a.85.85,0,1,0,.85.85.85.85,0,0,0-.85-.85Z"/><path class="fe905a63-a995-44d3-afb9-67787b370202" d="M10.33,20.46A.51.51,0,0,1,9.82,20a.51.51,0,0,1,1,0A.51.51,0,0,1,10.33,20.46Z"/><path class="eed61057-1539-48bb-b248-7f75b84adce4" d="M10.33,18.91a1,1,0,1,0,1,1,1,1,0,0,0-1-1Z"/><rect class="b8cbf78d-0792-4b59-a4af-a7a1a04dbe40" x="42.73" y="41.73" width="0.9" height="7.56"/><text class="af28650d-95ed-45c3-8cd2-00e5a2c5dcd5" transform="translate(87.15 48.75) scale(0.99 1)">Не критичные</text><text class="af28650d-95ed-45c3-8cd2-00e5a2c5dcd5" transform="translate(87.33 81.9) scale(0.99 1)">Критичные</text><text class="a13b4a47-f232-4f71-bd8b-b9051b3f038f" transform="translate(87.15 96.86)">0</text><text class="a13b4a47-f232-4f71-bd8b-b9051b3f038f" transform="translate(87.15 62.94)">0</text><text class="af28650d-95ed-45c3-8cd2-00e5a2c5dcd5" transform="translate(175.09 15.37) scale(0.99 1)">Динамическое оборудование</text><path class="bc9d276a-bb2e-4535-9df6-edf490ced8cc" d="M209.36,39.6a34.81,34.81,0,1,0,16,65.71s-.75-.28-1-.37a34.05,34.05,0,1,1,11.07-8.7c.07.41.16,1,.16,1a34.74,34.74,0,0,0,8.57-22.87,34.38,34.38,0,0,0-.81-7.43s1.18-1.48,2.18-2.76a37.75,37.75,0,0,0-17-22.29L225,43.32A34.66,34.66,0,0,0,209.36,39.6Z"/><ellipse class="bc97e97a-9f94-42d1-a4fd-c45d5ea56a4f" cx="209.23" cy="74.27" rx="29.47" ry="29.44"/><path class="bc9d276a-bb2e-4535-9df6-edf490ced8cc" d="M209.23,74.23l0-30h0a30,30,0,1,1-26.32,15.6Z"/><ellipse class="b8cbf78d-0792-4b59-a4af-a7a1a04dbe40" cx="209.35" cy="74.38" rx="28.26" ry="28.53"/><text class="b4ff93ef-897f-4ecb-9a3d-2dc78dcc33d6" transform="translate(204.65 79.35)">5</text><path class="ffb246a3-c338-4111-96b1-d385b28b177d" d="M176,20.83v3.49L178,26.41h22.79l13.72,13.72"/><path class="b8cbf78d-0792-4b59-a4af-a7a1a04dbe40" d="M214.47,41.07a.94.94,0,1,1,.94-.94A.95.95,0,0,1,214.47,41.07Z"/><path class="eed61057-1539-48bb-b248-7f75b84adce4" d="M214.47,39.72a.41.41,0,1,1,0,.81.41.41,0,0,1,0-.81m0-1.07A1.48,1.48,0,1,0,216,40.13a1.47,1.47,0,0,0-1.48-1.48Z"/><path class="eed61057-1539-48bb-b248-7f75b84adce4" d="M214.47,40.44a.32.32,0,0,1,0-.63.32.32,0,1,1,0,.63Z"/><path class="b8cbf78d-0792-4b59-a4af-a7a1a04dbe40" d="M214.47,39.28a.85.85,0,1,0,.85.85.85.85,0,0,0-.85-.85Z"/><path class="fe905a63-a995-44d3-afb9-67787b370202" d="M176,21.27a.5.5,0,0,1-.51-.5.51.51,0,0,1,1,0A.5.5,0,0,1,176,21.27Z"/><path class="eed61057-1539-48bb-b248-7f75b84adce4" d="M176,19.72a1,1,0,1,0,1,1.05,1,1,0,0,0-1-1.05Z"/><rect class="b8cbf78d-0792-4b59-a4af-a7a1a04dbe40" x="208.6" y="42.54" width="0.9" height="7.56"/><rect class="b8cbf78d-0792-4b59-a4af-a7a1a04dbe40" x="185.03" y="57.51" width="0.9" height="7.56" transform="translate(331.3 -68.7) rotate(120)"/><text class="eae1bd3b-eced-49b9-8feb-6cfe75e52abd" transform="translate(252.78 49.57) scale(0.99 1)">Не критичные</text><text class="aabda4bb-6fc6-462f-a43e-b4bcf83ed380" transform="translate(252.95 82.71) scale(0.99 1)">Критичные</text><text class="e80d8700-4e8c-47a6-8874-7b2de5ebe23b" transform="translate(252.78 97.67)">1</text><text class="a1ebcef8-e8b7-420a-9f20-3f40b6629533" transform="translate(252.78 63.75)">4</text></svg>