<svg xmlns="http://www.w3.org/2000/svg" fill="none" viewBox="0 0 16 16" stroke="currentColor" stroke-linecap="round" stroke-linejoin="round" stroke-miterlimit="10">
  <path d="M12.35 12.6L7.85 15 3.6 12.6A2.94 2.94 0 012.1 10V1.05L8 1l5.95.05v8.9c0 1.1-.6 2.1-1.6 2.65z"/>
  <path fill="#606580" stroke-width=".5" d="M8.08 5.11L8 5.08l-.09.04-.36.13a.52.52 0 00-.19.06l-.06.03s0 0 0 0a1 1 0 01-.06.04l-.4.2-.08.03-.03.08-.2.4c-.04.06-.05.12-.07.15h0a.62.62 0 01-.03.1v.01l-.01.01-.15.4-.03.07.02.08.1.38c0 .08.02.14.05.2l.03.06s0 0 0 0a1 1 0 01.04.06l.2.4.03.08.08.03.4.2c.06.04.12.05.15.07h0c.04 0 .07.02.1.03l.01.01h.02l.45.16.07.02.06-.02.43-.1c.09 0 .15-.02.2-.05l.07-.03s0 0 0 0a1 1 0 01.06-.04l.4-.2.08-.03.03-.08.2-.4a1 1 0 01.03-.05s0 0 0 0l.04-.07a.52.52 0 00.06-.2l.14-.41.03-.09-.04-.08-.13-.36a.52.52 0 00-.06-.19 1.25 1.25 0 00-.03-.06s0 0 0 0a1 1 0 01-.04-.06l-.2-.4-.03-.08-.08-.03-.4-.2c-.06-.04-.12-.05-.15-.07h0a.62.62 0 01-.1-.03l-.01-.01h-.02l-.45-.16zm-.8-.32l.13-.05.03-.14.1-.43a.21.21 0 01.06-.08.15.15 0 01.1-.04h.55c.04 0 .07.01.12.05a.7.7 0 01.1.07l.03.36.02.16.15.05.2.08h0c.07.04.16.09.25.12l.12.04.1-.08.36-.25h.05a.12.12 0 01.06.02l.28.46.01.02.02.03c.04.03.05.06.05.09 0 .02 0 .06-.03.09l-.24.34-.13.18.15.15c.05.05.09.13.14.3l.05.15.16.02.45.05h.02s.02 0 .03.02c.02.01.03.04.03.08v.55c0 .02 0 .04-.02.06a.15.15 0 01-.08.04l-.43.05-.22.03v.22c0 .02 0 .04-.03.09 0 0 0 .02-.02.03l-.09.2-.05.15.11.1.23.24c.02.02.02.05.02.07 0 .03-.01.06-.05.1l-.4.4s0 0 0 0a.15.15 0 01-.1.02h-.02 0l-.35-.25-.13-.1-.13.08c-.08.04-.21.08-.37.13l-.15.05-.02.16-.04.42a.22.22 0 01-.06.07.15.15 0 01-.1.04h-.55c-.06 0-.1-.01-.1-.03a.13.13 0 01-.05-.07l-.05-.43-.02-.16-.15-.05a3.22 3.22 0 01-.19-.07h0l-.21-.08-.12-.04-.1.08L6.4 9h-.05l-.05-.01-.02-.01s0 0 0 0l-.4-.4a.14.14 0 01-.05-.1c0-.03 0-.06.03-.09l.24-.34.13-.18-.15-.15c-.05-.05-.09-.13-.14-.3l-.05-.15-.16-.02-.45-.05h-.02 0s-.02 0-.03-.02a.12.12 0 01-.03-.08v-.55c0-.02 0-.04.02-.06a.15.15 0 01.08-.04l.43-.05.22-.03v-.22c0-.02 0-.04.03-.09 0 0 0-.02.02-.03l.09-.2.04-.12-.08-.1-.24-.35a.15.15 0 01-.03-.1c0-.02.01-.05.05-.08l.4-.4s0 0 0 0a.15.15 0 01.1-.03h.02l.27.28.18.17.18-.17c.05-.05.13-.09.3-.14zm2.5 4.18s0 0 0 0h0z"/>
</svg>
