<svg xmlns="http://www.w3.org/2000/svg" viewBox="0 0 50.92 50.92"><defs><style>.cls-1{}.cls-2{fill:#fff;stroke:#fff}.cls-3{fill:#fff;stroke:none}</style></defs><g id="Слой_2" data-name="Слой 2"><g id="Layer_1" data-name="Layer 1"><circle class="cls-1" cx="25.46" cy="25.46" r="25.46"/><path class="cls-2" d="M26.45,40c-2.38-2.88.89-6.06,2-7.52.83-1.07,4-5.43-1.65-10.49a5.33,5.33,0,0,1,0,3.9,15,15,0,0,1-2,3.32c-.94,1.29-2.39,2.69-2.85,4.14a5.27,5.27,0,0,0,3.11,6.88c-1.86-.25-9.79-3.73-6-10.64,1.44-2.6,3.31-4.48,2.21-6.6,1.93,1,1.85,2.4,1.85,3.65a3,3,0,0,0,1.22-2.61,19,19,0,0,0-.76-3.46,23,23,0,0,1-.77-3.69A8.43,8.43,0,0,1,23.51,13a7.46,7.46,0,0,1,2.18-2.77,4.44,4.44,0,0,0-.77,4,10.44,10.44,0,0,0,2,4c1,1.31,2,2.64,3.06,3.93a9.19,9.19,0,0,1,2.18,4.58c.12,2.28-.78,4.17-2.12,6.31v0a3.9,3.9,0,0,1,4.79-1.54,3.55,3.55,0,0,0-2.92,3A7.09,7.09,0,0,1,26.45,40Z"/><path class="cls-3" d="M27.39,27.48c-.32,4.29-6.43,5.44-4.12,9.64a3.28,3.28,0,0,0,1,1.41c.1.06-.06-.18-.13-.48a5.66,5.66,0,0,1,1-4.81C26.84,31.27,29,30.39,27.39,27.48Z"/></g></g></svg>
