<svg xmlns="http://www.w3.org/2000/svg" viewBox="0 0 50.92 50.92">
    <defs>
        <style>.cls-1 {
            fill: #3fa9f5;
        }

        .cls-2, .cls-3, .cls-4 {
            fill: #8c99b2;
        }</style>
    </defs>
    <g id="Слой_2" data-name="Слой 2">
        <g id="Layer_1" data-name="Layer 1">
            <path class="cls-1"
                  d="M25.46,0A25.46,25.46,0,1,0,50.92,25.46,25.46,25.46,0,0,0,25.46,0Zm0,42.46a17,17,0,1,1,17-17A17,17,0,0,1,25.46,42.46Z"/>
            <path class="cls-3" d="M26.83,13A12.49,12.49,0,0,1,37.88,24.09h2.51A15,15,0,0,0,26.83,10.53Z"/>
            <path class="cls-4" d="M37.88,26.83A12.49,12.49,0,0,1,26.83,37.88v2.51A15,15,0,0,0,40.39,26.83Z"/>
            <path class="cls-2" d="M13,24.09A12.49,12.49,0,0,1,24.09,13V10.53A15,15,0,0,0,10.53,24.09Z"/>
            <path class="cls-1" d="M24.09,37.88A12.49,12.49,0,0,1,13,26.83H10.53A15,15,0,0,0,24.09,40.39Z"/>
        </g>
    </g>
</svg>
