<svg width="18" height="17" viewBox="0 0 18 17" fill="none" xmlns="http://www.w3.org/2000/svg">
<path fill-rule="evenodd" clip-rule="evenodd" d="M17.8457 15.2876L10.0061 0.598907C9.79476 0.198183 9.4639 0 9.01813 0C8.57236 0 8.24007 0.198183 8.03017 0.598907L0.156758 15.2876C-0.0574122 15.665 -0.05172 16.0351 0.171344 16.3994C0.397254 16.7637 0.720644 16.9473 1.14471 16.9473H16.8577C17.279 16.9473 17.6056 16.7637 17.8283 16.3994C18.0513 16.0351 18.057 15.665 17.8457 15.2876ZM1.14467 15.818L9.01809 1.12933L16.8577 15.818H1.14467ZM7.88889 6.81537C7.88889 6.48458 7.99953 6.21209 8.22224 6.00223C8.44815 5.79095 8.71071 5.68458 9.01809 5.68458C9.32547 5.68458 9.58767 5.79095 9.81358 6.00223C10.0366 6.21209 10.1473 6.48458 10.1473 6.81537V10.2048C10.1473 10.5094 10.0366 10.7746 9.81358 10.9976C9.58767 11.2234 9.32547 11.3342 9.01809 11.3342C8.71071 11.3342 8.44815 11.2234 8.22224 10.9976C7.99953 10.7746 7.88889 10.5094 7.88889 10.2048V6.81537ZM8.22224 12.7622C8.44815 12.5393 8.71071 12.4285 9.01809 12.4285C9.32547 12.4285 9.58767 12.5393 9.81358 12.7622C10.0366 12.9881 10.1473 13.2504 10.1473 13.5579C10.1473 13.8654 10.0366 14.1276 9.81358 14.3535C9.58767 14.5765 9.32547 14.6887 9.01809 14.6887C8.71071 14.6887 8.44815 14.5765 8.22224 14.3535C7.99953 14.1276 7.88889 13.8654 7.88889 13.5579C7.88889 13.2504 7.99953 12.9881 8.22224 12.7622Z" fill="#F7931E"/>
</svg>
