<?xml version="1.0" encoding="utf-8"?>
<!-- Generator: Adobe Illustrator 19.0.0, SVG Export Plug-In . SVG Version: 6.00 Build 0)  -->
<svg version="1.1" id="Слой_1" xmlns="http://www.w3.org/2000/svg" xmlns:xlink="http://www.w3.org/1999/xlink" x="0px" y="0px"
	 viewBox="0 0 595.3 841.9" style="enable-background:new 0 0 595.3 841.9;" xml:space="preserve">
<style type="text/css">
	.st0{fill: #F5A422;}
</style>
<path class="st0" d="M260.9,513c-7.5-8.5-15-17.4-19.4-27.9c-5-11-6-23.9-3.5-36.4c2.5-12,8-23.9,15.5-33.4
	c-0.5,8.5,2.5,17.4,8,23.9c-3.5-16.4,2-33.9,13-46.9c11-13,25.9-21.4,41.4-26.9c-8,8-9,20.9-6,31.9c3,11,9.5,20.4,15.5,30.4
	c6,10,11,19.9,11.5,31.4c3-6,6.5-11.5,8.5-17.9c2-6.5,3-13.5,1.5-19.4c6,7.5,9.5,15,11,24.4c1,4.5,1,8.5,1,13v3c0,4.5-0.5,8.5-1,13
	c-1.5,10.5-4,21.4-10,30.4c-7,10.5-17.4,17.9-29.4,21.9c-6.5,1-13,1.5-18.9,1.5c22.4-1.5,39.9-27.9,27.4-49.3c0-0.5-0.5-0.5-0.5-0.5
	c1.5,14-2,23.9-8.5,29.9c3.5-8,1-17.4-3-25.9c-4-8-10-15-14.5-22.4c-4.5-8-8-16.4-6-25.4c-8,6-14,15.5-16.4,24.9
	c-2.5,10-1,20.4,3.5,29.9c-5-3.5-9-10-9-16.4c-5.5,6.5-9,15-8.5,23.4c0,13.5,10.5,24.9,22.4,29.9c1,0.5,2.5,1,3.5,1
	C279.9,524.4,269.9,520.5,260.9,513z"/>
</svg>
