<?xml version="1.0" encoding="utf-8"?>
<!-- Generator: Adobe Illustrator 19.0.0, SVG Export Plug-In . SVG Version: 6.00 Build 0)  -->
<svg version="1.1" id="Слой_1" xmlns="http://www.w3.org/2000/svg" xmlns:xlink="http://www.w3.org/1999/xlink" x="0px" y="0px"
	 viewBox="0 0 595.3 841.9" style="enable-background:new 0 0 595.3 841.9;" xml:space="preserve">
<style type="text/css">
	.st0{fill:#616580;}
</style>
<g>
	<path class="st0" d="M356.6,352.5H321v-15.2h-35.3v15.2h-35.6c-4.3,0-7.7,3.4-7.7,7.6V531c0,4.2,3.5,7.6,7.7,7.6h106.4
		c4.3,0,7.7-3.4,7.7-7.6V360.1C364.3,355.9,360.8,352.5,356.6,352.5z M348.8,523.4h-90.9V367.7h90.9V523.4z"/>
	<path class="st0" d="M340.6,450.9l-74.5-43.7v104.1h74.5V450.9z M317.5,469.6c0,0.1-0.1,0.4-0.2,0.5l-25.1,27.2
		c-0.2,0.1-0.4,0.2-0.6,0.2s-0.3,0-0.4-0.1c-0.3-0.1-0.5-0.6-0.3-0.9l8.8-18.9h-8.1c-0.3,0-0.5-0.1-0.7-0.4c-0.1-0.1-0.2-0.5,0-0.6
		l11.8-21.4c0.1-0.2,0.4-0.4,0.7-0.4h12.5c0.3,0,0.5,0.1,0.7,0.4c0.2,0.2,0.2,0.5,0,0.7l-9.2,13.1h9.3c0.3,0,0.6,0.1,0.7,0.4
		C317.5,469.3,317.5,469.3,317.5,469.6L317.5,469.6z"/>
</g>
</svg>
