<?xml version="1.0" encoding="utf-8"?>
<!-- Generator: Adobe Illustrator 19.0.0, SVG Export Plug-In . SVG Version: 6.00 Build 0)  -->
<svg version="1.1" id="Слой_1" xmlns="http://www.w3.org/2000/svg" xmlns:xlink="http://www.w3.org/1999/xlink" x="0px" y="0px"
	 viewBox="0 0 595.3 841.9" style="enable-background:new 0 0 595.3 841.9;" xml:space="preserve">
<style type="text/css">
	.st0{fill-rule:evenodd;clip-rule:evenodd;fill:#616580;}
</style>
<g>
	<path class="st0" d="M290.4,471.9v-88.5v-1.2v-1.2V380v-0.6l-0.6-1.2V377l-0.6-0.6l-0.6-1.2v-0.6l-0.6-1.2l-0.6-0.6l-0.6-0.6
		l-0.6-1.2l-0.6-0.6l-0.6-0.6l-1.1-1.2l-0.6-0.6l-0.6-0.6l-1.2-0.6l-0.6-0.6l-1.1-0.6h-0.6l-1.1-0.6l-1.1-0.6l-0.6-0.6h-1.2
		l-1.1-0.6h-1.1h-0.6h-1.1l-1.1-0.6h-1.2h-1.1l-1.1,0.6h-1.1h-1.1h-1.2l-0.6,0.6h-1.1l-1.1,0.6l-0.6,0.6l-1.1,0.6h-1.2l-0.6,0.6
		l-1.1,0.6l-0.6,0.6l-0.6,0.6l-1.1,0.6l-0.6,1.2l-0.6,0.6l-0.6,0.6l-0.6,0.6l-0.6,1.2l-0.6,0.6l-0.6,1.2l-0.6,0.6v1.2l-0.6,0.6
		l-0.6,1.2v1.2v0.6l-0.6,1.2v1.2v1.2v88.5h-0.6l-0.6,0.6l-0.6,0.6l-0.6,0.6l-0.6,0.6l-0.6,0.6l-0.6,0.6l-0.6,0.6v1.2l-0.6,0.6
		l-0.6,0.6l-0.6,0.6l-0.6,0.6v0.6l-0.6,0.6v1.2l-0.6,0.6l-0.6,0.6v0.6l-0.6,1.2v0.6l-0.6,0.6v0.6v1.2l-0.6,0.6v0.6v1.2v0.6v1.2
		l-0.6,0.6v0.6v1.2v1.2l0.6,1.8v1.8l0.6,1.2v1.8l0.6,1.2l0.6,1.2l0.6,1.8l0.6,1.2l0.6,1.2l1.1,1.2l0.6,1.2l1.1,1.8l0.6,0.6l1.1,1.2
		l1.2,1.2l1.1,1.2l1.1,0.6l1.1,1.2l1.1,0.6l1.7,1.2l1.1,0.6l1.1,0.6l1.7,0.6l1.1,0.6l1.7,0.6l1.7,0.6h1.1l1.7,0.6h1.7h1.7h1.7h1.7
		h1.7h1.1l1.7-0.6h1.7l1.7-0.6l1.1-0.6l1.7-0.6l1.2-0.6l1.7-0.6l1.1-0.6l1.1-1.2l1.7-0.6l1.2-1.2l1.1-0.6l1.1-1.2l1.1-1.2l0.6-1.2
		l1.1-0.6l1.2-1.8l0.6-1.2l0.6-1.2l1.1-1.2l0.6-1.2l0.6-1.8l0.6-1.2l0.6-1.2v-1.8l0.6-1.2v-1.8v-1.8v-1.2v-1.2v-0.6V492v-1.2v-0.6
		V489l-0.6-0.6v-0.6v-1.2l-0.6-0.6v-0.6l-0.6-0.6v-1.2l-0.6-0.6v-0.6l-0.6-0.6v-1.2l-0.6-0.6l-0.6-0.6V479l-0.6-0.6l-0.6-0.6
		l-0.6-0.6l-0.6-1.2l-0.6-0.6l-0.6-0.6v-0.6l-0.6-0.6l-0.6-0.6l-0.6-0.6l-0.6-0.6H290.4z M341.3,392.3v-7.1h-7.4v-8.9h7.4v-7.1h9.1
		v7.1h8v8.9h-8v7.1H341.3z M333.9,502.6h24.6v8.8h-24.6V502.6z M333.9,458.4h24.6v8.8h-24.6V458.4z M333.9,440.7h24.6v8.9h-24.6
		V440.7z M333.9,423h24.6v8.9h-24.6V423z M274.4,480.2v-0.6l0,0V479l0,0v-50.1v-0.6l0,0v-0.6l0,0l0,0v-0.6l0,0v-0.6h-0.6l0,0v-0.6
		l0,0h-0.6v-0.6l0,0l0,0l-0.6-0.6l0,0h-0.6l0,0v-0.6h-0.6l0,0l0,0H271v-0.6h-0.6l0,0h-0.6l0,0h-0.6l0,0h-0.6l0,0h-0.6l0,0l0,0h-0.6
		v0.6H267l0,0h-0.6l0,0v0.6h-0.6l0,0l0,0l-0.6,0.6l0,0l0,0l-0.6,0.6l0,0l0,0v0.6h-0.6l0,0v0.6l0,0v0.6l0,0l0,0l-0.6,0.6l0,0v0.6V479
		l0,0v0.6l0,0l0.6,0.6h-0.6h-0.6l-0.6,0.6h-0.6l-0.6,0.6h-0.6l-0.6,0.6h-0.6l-0.6,0.6l-0.6,0.6h-0.6v0.6l-0.6,0.6h-0.6v0.6l-0.6,0.6
		l-0.6,0.6l0,0l-0.6,0.6v0.6l-0.6,0.6v0.6l-0.6,0.6v0.6v0.6l-0.6,0.6v0.6v0.6v0.6v0.6v0.6v0.6v0.6v0.6v1.2v0.6l0.6,0.6v0.6v1.2
		l0.6,0.6v0.6l0.6,0.6l0.6,0.6v0.6l0.6,0.6l0.6,0.6l0.6,0.6l0.6,0.6l0.6,0.6l0.6,0.6h0.6l0.6,0.6l0.6,0.6h0.6l1.1,0.6h0.6l0.6,0.6
		h0.6l1.1,0.6h0.6h1.1h0.6h0.6l1.1,0.6l0.6-0.6h1.2h0.6h1.1h0.6l0.6-0.6h1.1l0.6-0.6h0.6l0.6-0.6h0.6l1.1-0.6l0.6-0.6h0.6l0.6-0.6
		l0.6-0.6l0.6-0.6l0.6-0.6v-0.6l0.6-0.6l0.6-0.6l0.6-0.6v-0.6l0.6-0.6v-0.6l0.6-1.2v-0.6v-0.6l0.6-0.6v-1.2v-0.6v-0.6v-0.6v-0.6
		v-0.6V492v-0.6l-0.6-0.6v-0.6v-0.6l-0.6-0.6v-0.6l-0.6-0.6v-0.6l-0.6-0.6v-0.6h-0.6v-0.6l-0.6-0.6l-0.6-0.6l0,0l-0.6-0.6l-0.6-0.6
		h-0.6v-0.6L279,482h-0.6l-0.6-0.6h-0.6l-0.6-0.6h-0.6l-0.6-0.6H275H274.4z M269.2,514.4h-1.1H267h-1.1l-1.1-0.6h-1.2h-0.6l-1.1-0.6
		l-1.1-0.6h-0.6L259,512l-1.2-0.6l-0.6-0.6l-1.1-0.6l-0.6-0.6l-0.6-0.6l-1.1-0.6l-0.6-0.6l-0.6-0.6l-0.6-1.2l-0.6-0.6l-0.6-0.6
		l-0.6-1.2l-0.6-0.6l-0.6-1.2v-0.6l-0.6-1.2l-0.6-1.2v-0.6v-1.2l-0.6-1.2v-0.6v-1.2v-0.6v-1.2V492l0.6-0.6v-0.6v-0.6v-0.6l0.6-0.6
		v-0.6v-0.6l0.6-1.2v-0.6l0.6-0.6v-0.6l0.6-0.6v-0.6h0.6l0.6-0.6v-0.6l0.6-0.6l0.6-0.6l0.6-0.6l0.6-0.6l0,0l0.6-0.6l0.6-0.6l0.6-0.6
		h0.6l0.6-0.6l0.6-0.6h0.6l0.6-0.6v-93.2v-0.6v-0.6v-0.6v-0.6l0.6-0.6l0,0V380l0.6-0.6v-0.6v-0.6h0.6v-0.6l0.6-0.6l0,0l0.6-0.6h0.6
		v-0.6l0.6-0.6h0.6v-0.6h0.6h0.6l0.6-0.6h0.6l0,0l0.6-0.6h0.6h0.6h0.6h0.6h0.6h0.6h0.6h0.6h0.6h0.6h0.6l0,0l0.6,0.6h0.6h0.6l0.6,0.6
		h0.6l0,0l0.6,0.6h0.6l0.6,0.6v0.6h0.6v0.6h0.6v0.6l0.6,0.6l0,0l0.6,0.6v0.6v0.6l0.6,0.6l0,0v0.6v0.6l0.6,0.6v0.6v0.6v93.2l0.6,0.6
		h0.6l0.6,0.6l0.6,0.6h0.6l0.6,0.6v0.6l0.6,0.6h0.6l0.6,0.6l0.6,0.6l0.6,0.6v0.6l0.6,0.6l0.6,0.6l0,0l0.6,0.6v0.6l0.6,0.6v0.6
		l0.6,0.6v1.2l0.6,0.6v0.6v0.6l0.6,0.6v0.6v0.6v0.6v0.6v1.2v0.6v1.2v0.6v1.2v1.2l-0.6,0.6v1.2l-0.6,1.2l-0.6,0.6v1.2l-0.6,0.6
		l-0.6,1.2l-0.6,0.6l-0.6,0.6l-0.6,1.2l-0.6,0.6l-1.1,0.6l-0.6,0.6l-0.6,0.6l-1.2,0.6l-0.6,0.6l-1.1,0.6l-0.6,0.6l-1.1,0.6h-1.1
		l-0.6,0.6l-1.2,0.6h-1.1h-1.1l-0.6,0.6h-1.1h-1.1H269.2z"/>
</g>
</svg>
