<?xml version="1.0" encoding="utf-8"?>
<!-- Generator: Adobe Illustrator 19.0.0, SVG Export Plug-In . SVG Version: 6.00 Build 0)  -->
<svg version="1.1" id="Слой_1" xmlns="http://www.w3.org/2000/svg" xmlns:xlink="http://www.w3.org/1999/xlink" x="0px" y="0px"
	 viewBox="0 0 595.3 841.9" style="enable-background:new 0 0 595.3 841.9;" xml:space="preserve">
<style type="text/css">
	.st0{fill:#616580;}
</style>
<path class="st0" d="M284.5,524.4l-13.1-5.9c-2.2-1-4.4-1.9-6.6-3.1c-24.6-12.9-33.6-34.8-25.3-61.6c3.3-10.8,9.4-20.2,15.3-29.3
	l0.6-0.9c9.8-15.1,18.3-28.9,23.4-44.2c0.7-2.2,1.4-4.5,2.1-6.9l2.9-9.8l6.3,3.7c1,0.5,1.8,1,2.6,1.6l4.7,4.2
	c14.5,12.9,29.5,26.3,41.5,42c12,15.6,18.8,30.9,20.7,46.6c2.9,24.4-5.1,42-24.4,53.8c-3.5,2.1-7.2,3.6-10.8,4.9
	c-1.5,0.6-3,1.2-4.5,1.8l-5.1,2.2l-3.9-8.3l2-2.3c1-1.2,2.1-2.3,3.2-3.4c2.1-2.2,4.2-4.3,5.7-6.6c12.3-18,12.2-36.5-0.3-56.5
	c-2.8-4.5-6.3-8.7-10.7-12.9c-0.7,13.9-5.2,27.4-13.5,41.1l-7.2,11.8l-3-13.2c-1.3-5.8-3.2-10.4-5.8-14c-3,6.6-6,13.2-8.9,19.9
	c-5,11.4-2.9,21.1,6.5,30c1.1,1,2.5,2.6,3.1,5.1L284.5,524.4z M298.4,410.5l10.2,7.7c10.1,7.6,17.2,15.1,22.4,23.5
	c13.2,21.1,14.4,41.6,3.5,61.1c11.8-9.5,16.3-22.6,14.2-40.8c-1.7-14-7.8-27.8-18.8-42c-11.4-14.8-25.8-27.7-39.8-40.2
	c-0.3,0.9-0.5,1.7-0.8,2.6c-5.4,16.3-14.3,30.6-24.4,46.3l-0.6,0.9c-5.8,9-11.3,17.4-14.2,27c-4.1,13.2-5,30.6,10.4,43.8
	c-2.6-7.8-2.1-16.1,1.7-24.8c3.1-7.1,6.3-14.1,9.5-21.1l3.4-7.5l5.7-2l2.9,1.8c4.1,3.3,7.3,7.2,9.8,12.1c5.3-12,7.3-24,6.1-36.4
	L298.4,410.5z M284.4,452.6l-0.1,0.2C284.3,452.7,284.3,452.7,284.4,452.6z"/>
</svg>
