<svg width="12" height="16" viewBox="0 0 12 16" fill="none" xmlns="http://www.w3.org/2000/svg">
<path d="M7.51599 2.98877C6.55493 1.85889 5.74805 1.18994 5.74805 1.18994C5.74805 1.18994 1.19495 4.95947 0.85498 9.71143C0.833984 9.89307 0.822021 10.0776 0.822021 10.2642C0.822021 12.9849 3.02698 15.1899 5.74805 15.1899C8.46802 15.1899 10.674 12.9849 10.674 10.2642C10.674 10.0776 10.661 9.89307 10.641 9.71143C10.615 9.34619 10.564 8.98779 10.4919 8.63525" stroke="currentColor" stroke-linecap="round" stroke-linejoin="round"/>
<path d="M2.85803 10.498C2.85803 11.877 3.97498 12.9941 5.354 12.9941" stroke="currentColor" stroke-linecap="round" stroke-linejoin="round"/>
<path d="M5.77405 5.3877L7.36304 6.97656C7.59094 7.20605 7.96094 7.20605 8.18994 6.97656L11.496 3.6709" stroke="currentColor" stroke-linecap="round" stroke-linejoin="round"/>
</svg>
