<svg width="18" height="16" viewBox="0 0 18 16" fill="none" xmlns="http://www.w3.org/2000/svg">
<g opacity="0.5">
<path d="M3.2583 3.53271H6.23938" stroke="currentColor" stroke-linecap="round" stroke-linejoin="round"/>
<path d="M1.37207 8.00391L3.23523 3.53223L5.09839 8.00391" stroke="currentColor" stroke-linecap="round" stroke-linejoin="round"/>
<path d="M1.04602 9.49414C1.04602 10.7041 2.026 11.6836 3.23499 11.6836C4.44397 11.6836 5.42395 10.7041 5.42395 9.49414H1.04602Z" stroke="currentColor" stroke-linecap="round" stroke-linejoin="round"/>
<path d="M14.8331 3.53271L11.8521 3.53271" stroke="currentColor" stroke-linecap="round" stroke-linejoin="round"/>
<path d="M16.7192 8.00391L14.8561 3.53223L12.9929 8.00391" stroke="currentColor" stroke-linecap="round" stroke-linejoin="round"/>
<path d="M17.0459 9.49414C17.0459 10.7041 16.0659 11.6836 14.8568 11.6836C13.6469 11.6836 12.6669 10.7041 12.6669 9.49414H17.0459Z" stroke="currentColor" stroke-linecap="round" stroke-linejoin="round"/>
<path d="M9.04582 6.1412C10.4864 6.1412 11.6543 4.97336 11.6543 3.53276C11.6543 2.09216 10.4864 0.924316 9.04582 0.924316C7.60522 0.924316 6.43738 2.09216 6.43738 3.53276C6.43738 4.97336 7.60522 6.1412 9.04582 6.1412Z" stroke="currentColor" stroke-linecap="round" stroke-linejoin="round"/>
<path d="M9.04602 10.6128V15.0845V10.6128V6.14111V10.6128Z" stroke="currentColor" stroke-linecap="round" stroke-linejoin="round"/>
<path d="M14.6351 15.4575H9.04614H3.45605H9.04614H14.6351Z" stroke="currentColor" stroke-linecap="round" stroke-linejoin="round"/>
</g>
</svg>
