<svg width="40" height="6" viewBox="0 0 40 6" fill="none" xmlns="http://www.w3.org/2000/svg">
<path d="M40 3L35 0.113247L35 5.88675L40 3ZM1 2.49999L0.5 2.49999L0.5 3.49999L1 3.49999L1 2.49999ZM35.5009 2.5C35.4717 2.5 35.4423 2.5 35.413 2.5C35.3837 2.5 35.3544 2.5 35.325 2.5C35.2957 2.5 35.2663 2.5 35.2369 2.5C35.2075 2.5 35.1781 2.5 35.1487 2.5C35.1193 2.5 35.0898 2.5 35.0604 2.5C35.0309 2.5 35.0015 2.5 34.972 2.5C34.9425 2.5 34.913 2.5 34.8835 2.5C34.854 2.5 34.8244 2.5 34.7949 2.5C34.7653 2.5 34.7358 2.5 34.7062 2.5C34.6766 2.5 34.647 2.5 34.6174 2.5C34.5878 2.5 34.5582 2.5 34.5285 2.5C34.4989 2.5 34.4692 2.5 34.4395 2.5C34.4099 2.5 34.3802 2.5 34.3505 2.5C34.3208 2.5 34.2911 2.5 34.2613 2.5C34.2316 2.5 34.2019 2.5 34.1721 2.5C34.1423 2.5 34.1126 2.5 34.0828 2.5C34.053 2.5 34.0232 2.5 33.9933 2.5C33.9635 2.5 33.9337 2.5 33.9038 2.5C33.874 2.5 33.8441 2.5 33.8143 2.5C33.7844 2.5 33.7545 2.5 33.7246 2.5C33.6947 2.5 33.6648 2.5 33.6349 2.5C33.6049 2.5 33.575 2.5 33.545 2.5C33.5151 2.5 33.4851 2.5 33.4551 2.5C33.4251 2.5 33.3951 2.5 33.3651 2.5C33.3351 2.5 33.3051 2.5 33.2751 2.5C33.245 2.5 33.215 2.5 33.1849 2.5C33.1549 2.5 33.1248 2.5 33.0947 2.5C33.0646 2.5 33.0345 2.5 33.0044 2.5C32.9743 2.5 32.9442 2.5 32.9141 2.5C32.8839 2.5 32.8538 2.5 32.8236 2.5C32.7935 2.5 32.7633 2.5 32.7331 2.5C32.7029 2.5 32.6727 2.5 32.6425 2.5C32.6123 2.5 32.5821 2.5 32.5519 2.5C32.5217 2.5 32.4914 2.5 32.4612 2.5C32.4309 2.5 32.4007 2.5 32.3704 2.5C32.3401 2.5 32.3099 2.5 32.2796 2.5C32.2493 2.5 32.219 2.5 32.1886 2.5C32.1583 2.5 32.128 2.5 32.0977 2.5C32.0673 2.5 32.037 2.5 32.0066 2.5C31.9763 2.5 31.9459 2.5 31.9155 2.5C31.8852 2.5 31.8548 2.5 31.8244 2.5C31.794 2.5 31.7636 2.5 31.7332 2.5C31.7027 2.5 31.6723 2.5 31.6419 2.5C31.6115 2.5 31.581 2.5 31.5506 2.5C31.5201 2.5 31.4896 2.5 31.4592 2.5C31.4287 2.5 31.3982 2.5 31.3677 2.5C31.3372 2.5 31.3067 2.5 31.2762 2.5C31.2457 2.5 31.2152 2.5 31.1847 2.5C31.1542 2.5 31.1236 2.5 31.0931 2.5C31.0625 2.5 31.032 2.5 31.0014 2.5C30.9709 2.5 30.9403 2.5 30.9097 2.5C30.8791 2.5 30.8486 2.5 30.818 2.5C30.7874 2.5 30.7568 2.5 30.7262 2.5C30.6956 2.5 30.6649 2.5 30.6343 2.5C30.6037 2.5 30.5731 2.5 30.5424 2.5C30.5118 2.5 30.4812 2.5 30.4505 2.5C30.4198 2.5 30.3892 2.5 30.3585 2.5C30.3279 2.5 30.2972 2.5 30.2665 2.5C30.2358 2.5 30.2051 2.5 30.1744 2.5C30.1437 2.5 30.113 2.5 30.0823 2.5C30.0516 2.5 30.0209 2.5 29.9902 2.5C29.9595 2.5 29.9288 2.5 29.898 2.5C29.8673 2.5 29.8366 2.5 29.8058 2.5C29.7751 2.5 29.7443 2.5 29.7136 2.5C29.6828 2.5 29.652 2.5 29.6213 2.5C29.5905 2.5 29.5597 2.5 29.529 2.5C29.4982 2.5 29.4674 2.5 29.4366 2.5C29.4058 2.5 29.375 2.5 29.3442 2.5C29.3134 2.5 29.2826 2.5 29.2518 2.5C29.221 2.5 29.1902 2.5 29.1594 2.5C29.1286 2.5 29.0977 2.5 29.0669 2.5C29.0361 2.5 29.0052 2.5 28.9744 2.5C28.9436 2.5 28.9127 2.5 28.8819 2.5C28.851 2.5 28.8202 2.5 28.7893 2.5C28.7585 2.5 28.7276 2.5 28.6968 2.5C28.6659 2.5 28.635 2.5 28.6042 2.5C28.5733 2.5 28.5424 2.5 28.5116 2.5C28.4807 2.5 28.4498 2.5 28.4189 2.5C28.388 2.5 28.3572 2.5 28.3263 2.5C28.2954 2.5 28.2645 2.5 28.2336 2.5C28.2027 2.5 28.1718 2.5 28.1409 2.5C28.11 2.5 28.0791 2.5 28.0482 2.5C28.0173 2.5 27.9864 2.5 27.9555 2.5C27.9246 2.5 27.8937 2.5 27.8627 2.5C27.8318 2.5 27.8009 2.5 27.77 2.5C27.7391 2.5 27.7081 2.5 27.6772 2.5C27.6463 2.5 27.6154 2.5 27.5845 2.5C27.5535 2.5 27.5226 2.5 27.4917 2.5C27.4607 2.5 27.4298 2.5 27.3989 2.5C27.3679 2.5 27.337 2.5 27.3061 2.5C27.2751 2.5 27.2442 2.5 27.2133 2.5C27.1823 2.5 27.1514 2.5 27.1205 2.5C27.0895 2.5 27.0586 2.5 27.0276 2.5C26.9967 2.5 26.9658 2.5 26.9348 2.5C26.9039 2.5 26.8729 2.5 26.842 2.5C26.8111 2.5 26.7801 2.5 26.7492 2.5C26.7182 2.5 26.6873 2.5 26.6564 2.5C26.6254 2.5 26.5945 2.5 26.5635 2.5C26.5326 2.5 26.5017 2.5 26.4707 2.5C26.4398 2.5 26.4088 2.5 26.3779 2.5C26.347 2.5 26.316 2.5 26.2851 2.5C26.2541 2.5 26.2232 2.5 26.1923 2.5C26.1613 2.5 26.1304 2.5 26.0995 2.5C26.0685 2.5 26.0376 2.5 26.0067 2.5C25.9757 2.5 25.9448 2.5 25.9139 2.5C25.883 2.5 25.852 2.5 25.8211 2.5C25.7902 2.5 25.7593 2.5 25.7283 2.5C25.6974 2.5 25.6665 2.5 25.6356 2.5C25.6047 2.5 25.5738 2.5 25.5428 2.5C25.5119 2.5 25.481 2.5 25.4501 2.5C25.4192 2.5 25.3883 2.5 25.3574 2.5C25.3265 2.5 25.2956 2.5 25.2647 2.5C25.2338 2.5 25.2029 2.5 25.172 2.5C25.1411 2.5 25.1102 2.49999 25.0794 2.49999C25.0485 2.49999 25.0176 2.49999 24.9867 2.49999C24.9558 2.49999 24.925 2.49999 24.8941 2.49999C24.8632 2.49999 24.8324 2.49999 24.8015 2.49999C24.7706 2.49999 24.7398 2.49999 24.7089 2.49999C24.6781 2.49999 24.6472 2.49999 24.6164 2.49999C24.5855 2.49999 24.5547 2.49999 24.5238 2.49999C24.493 2.49999 24.4621 2.49999 24.4313 2.49999C24.4005 2.49999 24.3697 2.49999 24.3388 2.49999C24.308 2.49999 24.2772 2.49999 24.2464 2.49999C24.2156 2.49999 24.1848 2.49999 24.154 2.49999C24.1232 2.49999 24.0924 2.49999 24.0616 2.49999C24.0308 2.49999 24 2.49999 23.9692 2.49999C23.9384 2.49999 23.9076 2.49999 23.8769 2.49999C23.8461 2.49999 23.8153 2.49999 23.7846 2.49999C23.7538 2.49999 23.7231 2.49999 23.6923 2.49999C23.6616 2.49999 23.6308 2.49999 23.6001 2.49999C23.5693 2.49999 23.5386 2.49999 23.5079 2.49999C23.4772 2.49999 23.4465 2.49999 23.4157 2.49999C23.385 2.49999 23.3543 2.49999 23.3236 2.49999C23.2929 2.49999 23.2622 2.49999 23.2315 2.49999C23.2009 2.49999 23.1702 2.49999 23.1395 2.49999C23.1088 2.49999 23.0782 2.49999 23.0475 2.49999C23.0169 2.49999 22.9862 2.49999 22.9556 2.49999C22.9249 2.49999 22.8943 2.49999 22.8637 2.49999C22.833 2.49999 22.8024 2.49999 22.7718 2.49999C22.7412 2.49999 22.7106 2.49999 22.68 2.49999C22.6494 2.49999 22.6188 2.49999 22.5882 2.49999C22.5576 2.49999 22.5271 2.49999 22.4965 2.49999C22.4659 2.49999 22.4354 2.49999 22.4048 2.49999C22.3743 2.49999 22.3437 2.49999 22.3132 2.49999C22.2827 2.49999 22.2521 2.49999 22.2216 2.49999C22.1911 2.49999 22.1606 2.49999 22.1301 2.49999C22.0996 2.49999 22.0691 2.49999 22.0386 2.49999C22.0082 2.49999 21.9777 2.49999 21.9472 2.49999C21.9168 2.49999 21.8863 2.49999 21.8559 2.49999C21.8254 2.49999 21.795 2.49999 21.7646 2.49999C21.7342 2.49999 21.7037 2.49999 21.6733 2.49999C21.6429 2.49999 21.6125 2.49999 21.5822 2.49999C21.5518 2.49999 21.5214 2.49999 21.491 2.49999C21.4607 2.49999 21.4303 2.49999 21.4 2.49999C21.3696 2.49999 21.3393 2.49999 21.309 2.49999C21.2786 2.49999 21.2483 2.49999 21.218 2.49999C21.1877 2.49999 21.1574 2.49999 21.1272 2.49999C21.0969 2.49999 21.0666 2.49999 21.0364 2.49999C21.0061 2.49999 20.9759 2.49999 20.9456 2.49999C20.9154 2.49999 20.8852 2.49999 20.8549 2.49999C20.8247 2.49999 20.7945 2.49999 20.7643 2.49999C20.7342 2.49999 20.704 2.49999 20.6738 2.49999C20.6436 2.49999 20.6135 2.49999 20.5833 2.49999C20.5532 2.49999 20.5231 2.49999 20.493 2.49999C20.4628 2.49999 20.4327 2.49999 20.4026 2.49999C20.3725 2.49999 20.3425 2.49999 20.3124 2.49999C20.2823 2.49999 20.2523 2.49999 20.2222 2.49999C20.1922 2.49999 20.1621 2.49999 20.1321 2.49999C20.1021 2.49999 20.0721 2.49999 20.0421 2.49999C20.0121 2.49999 19.9821 2.49999 19.9522 2.49999C19.9222 2.49999 19.8923 2.49999 19.8623 2.49999C19.8324 2.49999 19.8024 2.49999 19.7725 2.49999C19.7426 2.49999 19.7127 2.49999 19.6828 2.49999C19.6529 2.49999 19.6231 2.49999 19.5932 2.49999C19.5634 2.49999 19.5335 2.49999 19.5037 2.49999C19.4739 2.49999 19.444 2.49999 19.4142 2.49999C19.3844 2.49999 19.3547 2.49999 19.3249 2.49999C19.2951 2.49999 19.2653 2.49999 19.2356 2.49999C19.2059 2.49999 19.1761 2.49999 19.1464 2.49999C19.1167 2.49999 19.087 2.49999 19.0573 2.49999C19.0276 2.49999 18.998 2.49999 18.9683 2.49999C18.9387 2.49999 18.909 2.49999 18.8794 2.49999C18.8498 2.49999 18.8202 2.49999 18.7906 2.49999C18.761 2.49999 18.7314 2.49999 18.7018 2.49999C18.6723 2.49999 18.6427 2.49999 18.6132 2.49999C18.5837 2.49999 18.5542 2.49999 18.5247 2.49999C18.4952 2.49999 18.4657 2.49999 18.4362 2.49999C18.4067 2.49999 18.3773 2.49999 18.3479 2.49999C18.3184 2.49999 18.289 2.49999 18.2596 2.49999C18.2302 2.49999 18.2008 2.49999 18.1715 2.49999C18.1421 2.49999 18.1128 2.49999 18.0834 2.49999C18.0541 2.49999 18.0248 2.49999 17.9955 2.49999C17.9662 2.49999 17.9369 2.49999 17.9076 2.49999C17.8784 2.49999 17.8491 2.49999 17.8199 2.49999C17.7907 2.49999 17.7614 2.49999 17.7323 2.49999C17.7031 2.49999 17.6739 2.49999 17.6447 2.49999C17.6156 2.49999 17.5864 2.49999 17.5573 2.49999C17.5282 2.49999 17.4991 2.49999 17.47 2.49999C17.4409 2.49999 17.4118 2.49999 17.3828 2.49999C17.3537 2.49999 17.3247 2.49999 17.2957 2.49999C17.2667 2.49999 17.2377 2.49999 17.2087 2.49999C17.1797 2.49999 17.1508 2.49999 17.1218 2.49999C17.0929 2.49999 17.064 2.49999 17.0351 2.49999C17.0062 2.49999 16.9773 2.49999 16.9484 2.49999C16.9196 2.49999 16.8907 2.49999 16.8619 2.49999C16.8331 2.49999 16.8043 2.49999 16.7755 2.49999C16.7467 2.49999 16.718 2.49999 16.6892 2.49999C16.6605 2.49999 16.6317 2.49999 16.603 2.49999C16.5743 2.49999 16.5456 2.49999 16.517 2.49999C16.4883 2.49999 16.4597 2.49999 16.4311 2.49999C16.4024 2.49999 16.3738 2.49999 16.3452 2.49999C16.3167 2.49999 16.2881 2.49999 16.2596 2.49999C16.231 2.49999 16.2025 2.49999 16.174 2.49999C16.1455 2.49999 16.117 2.49999 16.0886 2.49999C16.0601 2.49999 16.0317 2.49999 16.0033 2.49999C15.9748 2.49999 15.9464 2.49999 15.9181 2.49999C15.8897 2.49999 15.8613 2.49999 15.833 2.49999C15.8047 2.49999 15.7764 2.49999 15.7481 2.49999C15.7198 2.49999 15.6915 2.49999 15.6633 2.49999C15.6351 2.49999 15.6068 2.49999 15.5786 2.49999C15.5504 2.49999 15.5223 2.49999 15.4941 2.49999C15.466 2.49999 15.4378 2.49999 15.4097 2.49999C15.3816 2.49999 15.3535 2.49999 15.3255 2.49999C15.2974 2.49999 15.2694 2.49999 15.2413 2.49999C15.2133 2.49999 15.1853 2.49999 15.1573 2.49999C15.1294 2.49999 15.1014 2.49999 15.0735 2.49999C15.0456 2.49999 15.0177 2.49999 14.9898 2.49999C14.9619 2.49999 14.9341 2.49999 14.9062 2.49999C14.8784 2.49999 14.8506 2.49999 14.8228 2.49999C14.795 2.49999 14.7673 2.49999 14.7395 2.49999C14.7118 2.49999 14.6841 2.49999 14.6564 2.49999C14.6287 2.49999 14.601 2.49999 14.5734 2.49999C14.5457 2.49999 14.5181 2.49999 14.4905 2.49999C14.4629 2.49999 14.4354 2.49999 14.4078 2.49999C14.3803 2.49999 14.3528 2.49999 14.3253 2.49999C14.2978 2.49999 14.2703 2.49999 14.2429 2.49999C14.2154 2.49999 14.188 2.49999 14.1606 2.49999C14.1332 2.49999 14.1059 2.49999 14.0785 2.49999C14.0512 2.49999 14.0239 2.49999 13.9966 2.49999C13.9693 2.49999 13.942 2.49999 13.9148 2.49999C13.8875 2.49999 13.8603 2.49999 13.8331 2.49999C13.8059 2.49999 13.7788 2.49999 13.7516 2.49999C13.7245 2.49999 13.6974 2.49999 13.6703 2.49999C13.6432 2.49999 13.6162 2.49999 13.5891 2.49999C13.5621 2.49999 13.5351 2.49999 13.5081 2.49999C13.4811 2.49999 13.4542 2.49999 13.4273 2.49999C13.4003 2.49999 13.3734 2.49999 13.3466 2.49999C13.3197 2.49999 13.2928 2.49999 13.266 2.49999C13.2392 2.49999 13.2124 2.49999 13.1857 2.49999C13.1589 2.49999 13.1322 2.49999 13.1055 2.49999C13.0787 2.49999 13.0521 2.49999 13.0254 2.49999C12.9988 2.49999 12.9721 2.49999 12.9455 2.49999C12.9189 2.49999 12.8924 2.49999 12.8658 2.49999C12.8393 2.49999 12.8128 2.49999 12.7863 2.49999C12.7598 2.49999 12.7334 2.49999 12.7069 2.49999C12.6805 2.49999 12.6541 2.49999 12.6277 2.49999C12.6014 2.49999 12.575 2.49999 12.5487 2.49999C12.5224 2.49999 12.4961 2.49999 12.4698 2.49999C12.4436 2.49999 12.4174 2.49999 12.3912 2.49999C12.365 2.49999 12.3388 2.49999 12.3127 2.49999C12.2865 2.49999 12.2604 2.49999 12.2343 2.49999C12.2082 2.49999 12.1822 2.49999 12.1562 2.49999C12.1302 2.49999 12.1042 2.49999 12.0782 2.49999C12.0522 2.49999 12.0263 2.49999 12.0004 2.49999C11.9745 2.49999 11.9486 2.49999 11.9228 2.49999C11.8969 2.49999 11.8711 2.49999 11.8454 2.49999C11.8196 2.49999 11.7938 2.49999 11.7681 2.49999C11.7424 2.49999 11.7167 2.49999 11.691 2.49999C11.6654 2.49999 11.6397 2.49999 11.6141 2.49999C11.5885 2.49999 11.563 2.49999 11.5374 2.49999C11.5119 2.49999 11.4864 2.49999 11.4609 2.49999C11.4355 2.49999 11.41 2.49999 11.3846 2.49999C11.3592 2.49999 11.3338 2.49999 11.3085 2.49999C11.2831 2.49999 11.2578 2.49999 11.2325 2.49999C11.2072 2.49999 11.182 2.49999 11.1568 2.49999C11.1316 2.49999 11.1064 2.49999 11.0812 2.49999C11.0561 2.49999 11.0309 2.49999 11.0058 2.49999C10.9808 2.49999 10.9557 2.49999 10.9307 2.49999C10.9056 2.49999 10.8806 2.49999 10.8557 2.49999C10.8307 2.49999 10.8058 2.49999 10.7809 2.49999C10.756 2.49999 10.7311 2.49999 10.7063 2.49999C10.6815 2.49999 10.6567 2.49999 10.6319 2.49999C10.6072 2.49999 10.5824 2.49999 10.5577 2.49999C10.533 2.49999 10.5084 2.49999 10.4837 2.49999C10.4591 2.49999 10.4345 2.49999 10.41 2.49999C10.3854 2.49999 10.3609 2.49999 10.3364 2.49999C10.3119 2.49999 10.2874 2.49999 10.263 2.49999C10.2386 2.49999 10.2142 2.49999 10.1898 2.49999C10.1655 2.49999 10.1411 2.49999 10.1169 2.49999C10.0926 2.49999 10.0683 2.49999 10.0441 2.49999C10.0199 2.49999 9.99569 2.49999 9.97154 2.49999C9.94739 2.49999 9.92327 2.49999 9.89919 2.49999C9.87511 2.49999 9.85107 2.49999 9.82706 2.49999C9.80305 2.49999 9.77907 2.49999 9.75514 2.49999C9.7312 2.49999 9.70729 2.49999 9.68342 2.49999C9.65956 2.49999 9.63572 2.49999 9.61193 2.49999C9.58813 2.49999 9.56437 2.49999 9.54064 2.49999C9.51692 2.49999 9.49323 2.49999 9.46958 2.49999C9.44592 2.49999 9.42231 2.49999 9.39873 2.49999C9.37515 2.49999 9.3516 2.49999 9.32809 2.49999C9.30459 2.49999 9.28111 2.49999 9.25768 2.49999C9.23424 2.49999 9.21085 2.49999 9.18748 2.49999C9.16412 2.49999 9.1408 2.49999 9.11751 2.49999C9.09422 2.49999 9.07097 2.49999 9.04776 2.49999C9.02455 2.49999 9.00137 2.49999 8.97823 2.49999C8.95509 2.49999 8.93199 2.49999 8.90893 2.49999C8.88587 2.49999 8.86284 2.49999 8.83985 2.49999C8.81686 2.49999 8.79391 2.49999 8.771 2.49999C8.74809 2.49999 8.72521 2.49999 8.70237 2.49999C8.67954 2.49999 8.65674 2.49999 8.63398 2.49999C8.61122 2.49999 8.58849 2.49999 8.56581 2.49999C8.54313 2.49999 8.52048 2.49999 8.49788 2.49999C8.47527 2.49999 8.4527 2.49999 8.43017 2.49999C8.40764 2.49999 8.38515 2.49999 8.3627 2.49999C8.34025 2.49999 8.31784 2.49999 8.29546 2.49999C8.27309 2.49999 8.25075 2.49999 8.22846 2.49999C8.20616 2.49999 8.18391 2.49999 8.16169 2.49999C8.13948 2.49999 8.1173 2.49999 8.09516 2.49999C8.07303 2.49999 8.05093 2.49999 8.02887 2.49999C8.00681 2.49999 7.9848 2.49999 7.96282 2.49999C7.94084 2.49999 7.91891 2.49999 7.89701 2.49999C7.87511 2.49999 7.85325 2.49999 7.83144 2.49999C7.80962 2.49999 7.78785 2.49999 7.76611 2.49999C7.74437 2.49999 7.72268 2.49999 7.70103 2.49999C7.67937 2.49999 7.65776 2.49999 7.63619 2.49999C7.61461 2.49999 7.59308 2.49999 7.57159 2.49999C7.5501 2.49999 7.52865 2.49999 7.50724 2.49999C7.48584 2.49999 7.46447 2.49999 7.44314 2.49999C7.42182 2.49999 7.40054 2.49999 7.37929 2.49999C7.35805 2.49999 7.33685 2.49999 7.31569 2.49999C7.29453 2.49999 7.27342 2.49999 7.25234 2.49999C7.23127 2.49999 7.21024 2.49999 7.18925 2.49999C7.16826 2.49999 7.14731 2.49999 7.1264 2.49999C7.1055 2.49999 7.08463 2.49999 7.06381 2.49999C7.04299 2.49999 7.02221 2.49999 7.00148 2.49999C6.98074 2.49999 6.96005 2.49999 6.9394 2.49999C6.91875 2.49999 6.89814 2.49999 6.87758 2.49999C6.85701 2.49999 6.83649 2.49999 6.81602 2.49999C6.79554 2.49999 6.7751 2.49999 6.75471 2.49999C6.73432 2.49999 6.71398 2.49999 6.69367 2.49999C6.67337 2.49999 6.65311 2.49999 6.63289 2.49999C6.61268 2.49999 6.5925 2.49999 6.57238 2.49999C6.55225 2.49999 6.53216 2.49999 6.51212 2.49999C6.49208 2.49999 6.47209 2.49999 6.45213 2.49999C6.43218 2.49999 6.41227 2.49999 6.39241 2.49999C6.37255 2.49999 6.35273 2.49999 6.33296 2.49999C6.31318 2.49999 6.29345 2.49999 6.27377 2.49999C6.25409 2.49999 6.23445 2.49999 6.21485 2.49999C6.19526 2.49999 6.17571 2.49999 6.15621 2.49999C6.1367 2.49999 6.11724 2.49999 6.09783 2.49999C6.07842 2.49999 6.05905 2.49999 6.03973 2.49999C6.0204 2.49999 6.00113 2.49999 5.9819 2.49999C5.96267 2.49999 5.94348 2.49999 5.92434 2.49999C5.9052 2.49999 5.88611 2.49999 5.86706 2.49999C5.84802 2.49999 5.82902 2.49999 5.81006 2.49999C5.79111 2.49999 5.7722 2.49999 5.75334 2.49999C5.73448 2.49999 5.71566 2.49999 5.69689 2.49999C5.67812 2.49999 5.6594 2.49999 5.64073 2.49999C5.62205 2.49999 5.60342 2.49999 5.58484 2.49999C5.56626 2.49999 5.54773 2.49999 5.52924 2.49999C5.51075 2.49999 5.49231 2.49999 5.47392 2.49999C5.45553 2.49999 5.43718 2.49999 5.41889 2.49999C5.40059 2.49999 5.38234 2.49999 5.36414 2.49999C5.34594 2.49999 5.32778 2.49999 5.30968 2.49999C5.29157 2.49999 5.27351 2.49999 5.2555 2.49999C5.23749 2.49999 5.21953 2.49999 5.20161 2.49999C5.1837 2.49999 5.16584 2.49999 5.14802 2.49999C5.1302 2.49999 5.11243 2.49999 5.09471 2.49999C5.07699 2.49999 5.05932 2.49999 5.0417 2.49999C5.02408 2.49999 5.0065 2.49999 4.98898 2.49999C4.97145 2.49999 4.95398 2.49999 4.93655 2.49999C4.91912 2.49999 4.90175 2.49999 4.88442 2.49999C4.86709 2.49999 4.84981 2.49999 4.83258 2.49999C4.81535 2.49999 4.79817 2.49999 4.78104 2.49999C4.76391 2.49999 4.74683 2.49999 4.7298 2.49999C4.71277 2.49999 4.69579 2.49999 4.67886 2.49999C4.66193 2.49999 4.64505 2.49999 4.62822 2.49999C4.61139 2.49999 4.59461 2.49999 4.57788 2.49999C4.56115 2.49999 4.54448 2.49999 4.52785 2.49999C4.51122 2.49999 4.49464 2.49999 4.47811 2.49999C4.46159 2.49999 4.44511 2.49999 4.42869 2.49999C4.41226 2.49999 4.39589 2.49999 4.37956 2.49999C4.36324 2.49999 4.34697 2.49999 4.33075 2.49999C4.31453 2.49999 4.29836 2.49999 4.28224 2.49999C4.26612 2.49999 4.25006 2.49999 4.23404 2.49999C4.21803 2.49999 4.20207 2.49999 4.18616 2.49999C4.17024 2.49999 4.15439 2.49999 4.13858 2.49999C4.12277 2.49999 4.10702 2.49999 4.09131 2.49999C4.07561 2.49999 4.05996 2.49999 4.04436 2.49999C4.02876 2.49999 4.01322 2.49999 3.99773 2.49999C3.98223 2.49999 3.96679 2.49999 3.9514 2.49999C3.93602 2.49999 3.92068 2.49999 3.9054 2.49999C3.89012 2.49999 3.87489 2.49999 3.85971 2.49999C3.84454 2.49999 3.82941 2.49999 3.81434 2.49999C3.79927 2.49999 3.78426 2.49999 3.76929 2.49999C3.75433 2.49999 3.73942 2.49999 3.72457 2.49999C3.70971 2.49999 3.69491 2.49999 3.68016 2.49999C3.66541 2.49999 3.65072 2.49999 3.63608 2.49999C3.62144 2.49999 3.60685 2.49999 3.59232 2.49999C3.57779 2.49999 3.56331 2.49999 3.54889 2.49999C3.53446 2.49999 3.52009 2.49999 3.50578 2.49999C3.49146 2.49999 3.4772 2.49999 3.463 2.49999C3.44879 2.49999 3.43464 2.49999 3.42055 2.49999C3.40645 2.49999 3.39241 2.49999 3.37842 2.49999C3.36444 2.49999 3.35051 2.49999 3.33663 2.49999C3.32276 2.49999 3.30894 2.49999 3.29517 2.49999C3.28141 2.49999 3.2677 2.49999 3.25404 2.49999C3.24039 2.49999 3.22679 2.49999 3.21325 2.49999C3.19971 2.49999 3.18622 2.49999 3.17279 2.49999C3.15936 2.49999 3.14598 2.49999 3.13267 2.49999C3.11935 2.49999 3.10609 2.49999 3.09288 2.49999C3.07967 2.49999 3.06652 2.49999 3.05343 2.49999C3.04034 2.49999 3.0273 2.49999 3.01432 2.49999C3.00134 2.49999 2.98842 2.49999 2.97555 2.49999C2.96269 2.49999 2.94988 2.49999 2.93712 2.49999C2.92437 2.49999 2.91168 2.49999 2.89904 2.49999C2.8864 2.49999 2.87382 2.49999 2.8613 2.49999C2.84877 2.49999 2.83631 2.49999 2.8239 2.49999C2.81149 2.49999 2.79914 2.49999 2.78685 2.49999C2.77455 2.49999 2.76232 2.49999 2.75014 2.49999C2.73796 2.49999 2.72585 2.49999 2.71378 2.49999C2.70172 2.49999 2.68972 2.49999 2.67778 2.49999C2.66583 2.49999 2.65394 2.49999 2.64212 2.49999C2.63029 2.49999 2.61852 2.49999 2.60681 2.49999C2.5951 2.49999 2.58344 2.49999 2.57185 2.49999C2.56026 2.49999 2.54872 2.49999 2.53725 2.49999C2.52577 2.49999 2.51436 2.49999 2.503 2.49999C2.49164 2.49999 2.48034 2.49999 2.46911 2.49999C2.45787 2.49999 2.44669 2.49999 2.43557 2.49999C2.42445 2.49999 2.41339 2.49999 2.40239 2.49999C2.39139 2.49999 2.38045 2.49999 2.36957 2.49999C2.35868 2.49999 2.34786 2.49999 2.3371 2.49999C2.32634 2.49999 2.31564 2.49999 2.305 2.49999C2.29436 2.49999 2.28378 2.49999 2.27326 2.49999C2.26274 2.49999 2.25228 2.49999 2.24188 2.49999C2.23149 2.49999 2.22115 2.49999 2.21087 2.49999C2.20059 2.49999 2.19038 2.49999 2.18022 2.49999C2.17007 2.49999 2.15997 2.49999 2.14994 2.49999C2.13991 2.49999 2.12993 2.49999 2.12002 2.49999C2.11011 2.49999 2.10026 2.49999 2.09048 2.49999C2.08069 2.49999 2.07096 2.49999 2.0613 2.49999C2.05163 2.49999 2.04203 2.49999 2.03249 2.49999C2.02295 2.49999 2.01347 2.49999 2.00405 2.49999C1.99463 2.49999 1.98528 2.49999 1.97599 2.49999C1.96669 2.49999 1.95746 2.49999 1.9483 2.49999C1.93913 2.49999 1.93002 2.49999 1.92098 2.49999C1.91194 2.49999 1.90296 2.49999 1.89404 2.49999C1.88512 2.49999 1.87627 2.49999 1.86747 2.49999C1.85868 2.49999 1.84995 2.49999 1.84129 2.49999C1.83262 2.49999 1.82402 2.49999 1.81548 2.49999C1.80694 2.49999 1.79847 2.49999 1.79005 2.49999C1.78164 2.49999 1.77329 2.49999 1.76501 2.49999C1.75672 2.49999 1.7485 2.49999 1.74034 2.49999C1.73218 2.49999 1.72409 2.49999 1.71606 2.49999C1.70803 2.49999 1.70006 2.49999 1.69216 2.49999C1.68426 2.49999 1.67642 2.49999 1.66865 2.49999C1.66088 2.49999 1.65317 2.49999 1.64552 2.49999C1.63788 2.49999 1.6303 2.49999 1.62279 2.49999C1.61527 2.49999 1.60782 2.49999 1.60044 2.49999C1.59305 2.49999 1.58573 2.49999 1.57848 2.49999C1.57122 2.49999 1.56403 2.49999 1.55691 2.49999C1.54978 2.49999 1.54272 2.49999 1.53573 2.49999C1.52873 2.49999 1.52181 2.49999 1.51494 2.49999C1.50808 2.49999 1.50128 2.49999 1.49455 2.49999C1.48782 2.49999 1.48115 2.49999 1.47456 2.49999C1.46796 2.49999 1.46142 2.49999 1.45495 2.49999C1.44849 2.49999 1.44209 2.49999 1.43575 2.49999C1.42942 2.49999 1.42315 2.49999 1.41695 2.49999C1.41074 2.49999 1.40461 2.49999 1.39854 2.49999C1.39247 2.49999 1.38647 2.49999 1.38054 2.49999C1.3746 2.49999 1.36873 2.49999 1.36293 2.49999C1.35713 2.49999 1.3514 2.49999 1.34573 2.49999C1.34006 2.49999 1.33446 2.49999 1.32893 2.49999C1.3234 2.49999 1.31793 2.49999 1.31254 2.49999C1.30714 2.49999 1.30181 2.49999 1.29655 2.49999C1.29129 2.49999 1.28609 2.49999 1.28097 2.49999C1.27584 2.49999 1.27078 2.49999 1.2658 2.49999C1.26081 2.49999 1.25588 2.49999 1.25103 2.49999C1.24618 2.49999 1.24139 2.49999 1.23668 2.49999C1.23196 2.49999 1.22731 2.49999 1.22273 2.49999C1.21815 2.49999 1.21364 2.49999 1.2092 2.49999C1.20476 2.49999 1.20039 2.49999 1.19608 2.49999C1.19178 2.49999 1.18755 2.49999 1.18338 2.49999C1.17921 2.49999 1.17512 2.49999 1.17109 2.49999C1.16706 2.49999 1.16311 2.49999 1.15922 2.49999C1.15533 2.49999 1.15151 2.49999 1.14776 2.49999C1.14402 2.49999 1.14034 2.49999 1.13673 2.49999C1.13312 2.49999 1.12958 2.49999 1.12611 2.49999C1.12264 2.49999 1.11924 2.49999 1.11592 2.49999C1.11259 2.49999 1.10933 2.49999 1.10614 2.49999C1.10295 2.49999 1.09984 2.49999 1.09679 2.49999C1.09374 2.49999 1.09077 2.49999 1.08786 2.49999C1.08496 2.49999 1.08213 2.49999 1.07936 2.49999C1.0766 2.49999 1.07391 2.49999 1.07129 2.49999C1.06866 2.49999 1.06612 2.49999 1.06364 2.49999C1.06116 2.49999 1.05875 2.49999 1.05642 2.49999C1.05408 2.49999 1.05182 2.49999 1.04962 2.49999C1.04743 2.49999 1.04531 2.49999 1.04326 2.49999C1.04122 2.49999 1.03924 2.49999 1.03733 2.49999C1.03543 2.49999 1.0336 2.49999 1.03184 2.49999C1.03008 2.49999 1.02839 2.49999 1.02677 2.49999C1.02516 2.49999 1.02362 2.49999 1.02214 2.49999C1.02067 2.49999 1.01928 2.49999 1.01795 2.49999C1.01663 2.49999 1.01537 2.49999 1.0142 2.49999C1.01302 2.49999 1.01191 2.49999 1.01088 2.49999C1.00984 2.49999 1.00888 2.49999 1.008 2.49999C1.00711 2.49999 1.0063 2.49999 1.00556 2.49999C1.00482 2.49999 1.00415 2.49999 1.00356 2.49999C1.00297 2.49999 1.00245 2.49999 1.002 2.49999C1.00156 2.49999 1.00119 2.49999 1.00089 2.49999C1.00059 2.49999 1.00037 2.49999 1.00022 2.49999C1.00007 2.49999 1 2.49999 1 2.99999C1 3.49999 1.00007 3.49999 1.00022 3.49999C1.00037 3.49999 1.00059 3.49999 1.00089 3.49999C1.00119 3.49999 1.00156 3.49999 1.002 3.49999C1.00245 3.49999 1.00297 3.49999 1.00356 3.49999C1.00415 3.49999 1.00482 3.49999 1.00556 3.49999C1.0063 3.49999 1.00711 3.49999 1.008 3.49999C1.00888 3.49999 1.00984 3.49999 1.01088 3.49999C1.01191 3.49999 1.01302 3.49999 1.0142 3.49999C1.01537 3.49999 1.01663 3.49999 1.01795 3.49999C1.01928 3.49999 1.02067 3.49999 1.02214 3.49999C1.02362 3.49999 1.02516 3.49999 1.02677 3.49999C1.02839 3.49999 1.03008 3.49999 1.03184 3.49999C1.0336 3.49999 1.03543 3.49999 1.03733 3.49999C1.03924 3.49999 1.04122 3.49999 1.04326 3.49999C1.04531 3.49999 1.04743 3.49999 1.04962 3.49999C1.05182 3.49999 1.05408 3.49999 1.05642 3.49999C1.05875 3.49999 1.06116 3.49999 1.06364 3.49999C1.06612 3.49999 1.06866 3.49999 1.07129 3.49999C1.07391 3.49999 1.0766 3.49999 1.07936 3.49999C1.08212 3.49999 1.08496 3.49999 1.08786 3.49999C1.09077 3.49999 1.09374 3.49999 1.09679 3.49999C1.09984 3.49999 1.10295 3.49999 1.10614 3.49999C1.10933 3.49999 1.11259 3.49999 1.11592 3.49999C1.11924 3.49999 1.12264 3.49999 1.12611 3.49999C1.12958 3.49999 1.13312 3.49999 1.13673 3.49999C1.14034 3.49999 1.14402 3.49999 1.14776 3.49999C1.15151 3.49999 1.15533 3.49999 1.15922 3.49999C1.16311 3.49999 1.16706 3.49999 1.17109 3.49999C1.17512 3.49999 1.17921 3.49999 1.18338 3.49999C1.18755 3.49999 1.19178 3.49999 1.19608 3.49999C1.20039 3.49999 1.20476 3.49999 1.2092 3.49999C1.21364 3.49999 1.21815 3.49999 1.22273 3.49999C1.22731 3.49999 1.23196 3.49999 1.23668 3.49999C1.24139 3.49999 1.24618 3.49999 1.25103 3.49999C1.25588 3.49999 1.26081 3.49999 1.2658 3.49999C1.27078 3.49999 1.27584 3.49999 1.28097 3.49999C1.28609 3.49999 1.29129 3.49999 1.29655 3.49999C1.30181 3.49999 1.30714 3.49999 1.31254 3.49999C1.31793 3.49999 1.3234 3.49999 1.32893 3.49999C1.33446 3.49999 1.34006 3.49999 1.34573 3.49999C1.3514 3.49999 1.35713 3.49999 1.36293 3.49999C1.36873 3.49999 1.3746 3.49999 1.38054 3.49999C1.38647 3.49999 1.39247 3.49999 1.39854 3.49999C1.40461 3.49999 1.41074 3.49999 1.41695 3.49999C1.42315 3.49999 1.42942 3.49999 1.43575 3.49999C1.44209 3.49999 1.44849 3.49999 1.45495 3.49999C1.46142 3.49999 1.46796 3.49999 1.47456 3.49999C1.48115 3.49999 1.48782 3.49999 1.49455 3.49999C1.50128 3.49999 1.50808 3.49999 1.51494 3.49999C1.52181 3.49999 1.52873 3.49999 1.53573 3.49999C1.54272 3.49999 1.54978 3.49999 1.55691 3.49999C1.56403 3.49999 1.57122 3.49999 1.57848 3.49999C1.58573 3.49999 1.59305 3.49999 1.60044 3.49999C1.60782 3.49999 1.61527 3.49999 1.62279 3.49999C1.6303 3.49999 1.63788 3.49999 1.64552 3.49999C1.65317 3.49999 1.66088 3.49999 1.66865 3.49999C1.67642 3.49999 1.68426 3.49999 1.69216 3.49999C1.70006 3.49999 1.70803 3.49999 1.71606 3.49999C1.72409 3.49999 1.73218 3.49999 1.74034 3.49999C1.7485 3.49999 1.75672 3.49999 1.76501 3.49999C1.77329 3.49999 1.78164 3.49999 1.79005 3.49999C1.79847 3.49999 1.80694 3.49999 1.81548 3.49999C1.82402 3.49999 1.83262 3.49999 1.84129 3.49999C1.84995 3.49999 1.85868 3.49999 1.86747 3.49999C1.87627 3.49999 1.88512 3.49999 1.89404 3.49999C1.90296 3.49999 1.91194 3.49999 1.92098 3.49999C1.93002 3.49999 1.93913 3.49999 1.9483 3.49999C1.95746 3.49999 1.96669 3.49999 1.97599 3.49999C1.98528 3.49999 1.99463 3.49999 2.00405 3.49999C2.01347 3.49999 2.02295 3.49999 2.03249 3.49999C2.04203 3.49999 2.05163 3.49999 2.0613 3.49999C2.07096 3.49999 2.08069 3.49999 2.09048 3.49999C2.10026 3.49999 2.11011 3.49999 2.12002 3.49999C2.12993 3.49999 2.13991 3.49999 2.14994 3.49999C2.15997 3.49999 2.17007 3.49999 2.18022 3.49999C2.19038 3.49999 2.20059 3.49999 2.21087 3.49999C2.22115 3.49999 2.23149 3.49999 2.24188 3.49999C2.25228 3.49999 2.26274 3.49999 2.27326 3.49999C2.28378 3.49999 2.29436 3.49999 2.305 3.49999C2.31564 3.49999 2.32634 3.49999 2.3371 3.49999C2.34786 3.49999 2.35868 3.49999 2.36957 3.49999C2.38045 3.49999 2.39139 3.49999 2.40239 3.49999C2.41339 3.49999 2.42445 3.49999 2.43557 3.49999C2.44669 3.49999 2.45787 3.49999 2.46911 3.49999C2.48034 3.49999 2.49164 3.49999 2.503 3.49999C2.51436 3.49999 2.52577 3.49999 2.53725 3.49999C2.54872 3.49999 2.56026 3.49999 2.57185 3.49999C2.58344 3.49999 2.5951 3.49999 2.60681 3.49999C2.61852 3.49999 2.63029 3.49999 2.64212 3.49999C2.65394 3.49999 2.66583 3.49999 2.67778 3.49999C2.68972 3.49999 2.70172 3.49999 2.71378 3.49999C2.72585 3.49999 2.73796 3.49999 2.75014 3.49999C2.76232 3.49999 2.77455 3.49999 2.78685 3.49999C2.79914 3.49999 2.81149 3.49999 2.8239 3.49999C2.83631 3.49999 2.84877 3.49999 2.8613 3.49999C2.87382 3.49999 2.8864 3.49999 2.89904 3.49999C2.91168 3.49999 2.92437 3.49999 2.93712 3.49999C2.94988 3.49999 2.96269 3.49999 2.97555 3.49999C2.98842 3.49999 3.00134 3.49999 3.01432 3.49999C3.0273 3.49999 3.04034 3.49999 3.05343 3.49999C3.06652 3.49999 3.07967 3.49999 3.09288 3.49999C3.10609 3.49999 3.11935 3.49999 3.13267 3.49999C3.14598 3.49999 3.15936 3.49999 3.17279 3.49999C3.18622 3.49999 3.19971 3.49999 3.21325 3.49999C3.22679 3.49999 3.24039 3.49999 3.25404 3.49999C3.2677 3.49999 3.28141 3.49999 3.29517 3.49999C3.30894 3.49999 3.32276 3.49999 3.33663 3.49999C3.35051 3.49999 3.36444 3.49999 3.37842 3.49999C3.39241 3.49999 3.40645 3.49999 3.42055 3.49999C3.43464 3.49999 3.44879 3.49999 3.463 3.49999C3.4772 3.49999 3.49146 3.49999 3.50578 3.49999C3.52009 3.49999 3.53446 3.49999 3.54889 3.49999C3.56331 3.49999 3.57779 3.49999 3.59232 3.49999C3.60685 3.49999 3.62144 3.49999 3.63608 3.49999C3.65072 3.49999 3.66541 3.49999 3.68016 3.49999C3.69491 3.49999 3.70971 3.49999 3.72457 3.49999C3.73942 3.49999 3.75433 3.49999 3.76929 3.49999C3.78426 3.49999 3.79927 3.49999 3.81434 3.49999C3.82941 3.49999 3.84454 3.49999 3.85971 3.49999C3.87489 3.49999 3.89012 3.49999 3.9054 3.49999C3.92068 3.49999 3.93602 3.49999 3.9514 3.49999C3.96679 3.49999 3.98223 3.49999 3.99773 3.49999C4.01322 3.49999 4.02876 3.49999 4.04436 3.49999C4.05996 3.49999 4.07561 3.49999 4.09131 3.49999C4.10702 3.49999 4.12277 3.49999 4.13858 3.49999C4.15439 3.49999 4.17024 3.49999 4.18616 3.49999C4.20207 3.49999 4.21803 3.49999 4.23404 3.49999C4.25006 3.49999 4.26612 3.49999 4.28224 3.49999C4.29836 3.49999 4.31453 3.49999 4.33075 3.49999C4.34697 3.49999 4.36324 3.49999 4.37956 3.49999C4.39589 3.49999 4.41226 3.49999 4.42869 3.49999C4.44511 3.49999 4.46159 3.49999 4.47811 3.49999C4.49464 3.49999 4.51122 3.49999 4.52785 3.49999C4.54448 3.49999 4.56115 3.49999 4.57788 3.49999C4.59461 3.49999 4.61139 3.49999 4.62822 3.49999C4.64505 3.49999 4.66193 3.49999 4.67886 3.49999C4.69579 3.49999 4.71277 3.49999 4.7298 3.49999C4.74683 3.49999 4.76391 3.49999 4.78104 3.49999C4.79817 3.49999 4.81535 3.49999 4.83258 3.49999C4.84981 3.49999 4.86709 3.49999 4.88442 3.49999C4.90175 3.49999 4.91912 3.49999 4.93655 3.49999C4.95398 3.49999 4.97145 3.49999 4.98898 3.49999C5.0065 3.49999 5.02408 3.49999 5.0417 3.49999C5.05932 3.49999 5.07699 3.49999 5.09471 3.49999C5.11243 3.49999 5.1302 3.49999 5.14802 3.49999C5.16584 3.49999 5.1837 3.49999 5.20161 3.49999C5.21953 3.49999 5.23749 3.49999 5.2555 3.49999C5.27351 3.49999 5.29157 3.49999 5.30968 3.49999C5.32778 3.49999 5.34594 3.49999 5.36414 3.49999C5.38234 3.49999 5.40059 3.49999 5.41889 3.49999C5.43718 3.49999 5.45553 3.49999 5.47392 3.49999C5.49231 3.49999 5.51075 3.49999 5.52924 3.49999C5.54773 3.49999 5.56626 3.49999 5.58484 3.49999C5.60342 3.49999 5.62205 3.49999 5.64073 3.49999C5.6594 3.49999 5.67812 3.49999 5.69689 3.49999C5.71566 3.49999 5.73448 3.49999 5.75334 3.49999C5.7722 3.49999 5.79111 3.49999 5.81006 3.49999C5.82902 3.49999 5.84802 3.49999 5.86706 3.49999C5.88611 3.49999 5.9052 3.49999 5.92434 3.49999C5.94348 3.49999 5.96267 3.49999 5.9819 3.49999C6.00113 3.49999 6.0204 3.49999 6.03973 3.49999C6.05905 3.49999 6.07842 3.49999 6.09783 3.49999C6.11724 3.49999 6.1367 3.49999 6.15621 3.49999C6.17571 3.49999 6.19526 3.49999 6.21485 3.49999C6.23445 3.49999 6.25409 3.49999 6.27377 3.49999C6.29345 3.49999 6.31318 3.49999 6.33296 3.49999C6.35273 3.49999 6.37255 3.49999 6.39241 3.49999C6.41227 3.49999 6.43218 3.49999 6.45213 3.49999C6.47209 3.49999 6.49208 3.49999 6.51212 3.49999C6.53216 3.49999 6.55225 3.49999 6.57238 3.49999C6.5925 3.49999 6.61268 3.49999 6.63289 3.49999C6.65311 3.49999 6.67337 3.49999 6.69367 3.49999C6.71398 3.49999 6.73432 3.49999 6.75471 3.49999C6.7751 3.49999 6.79554 3.49999 6.81602 3.49999C6.83649 3.49999 6.85701 3.49999 6.87758 3.49999C6.89814 3.49999 6.91875 3.49999 6.9394 3.49999C6.96005 3.49999 6.98074 3.49999 7.00148 3.49999C7.02221 3.49999 7.04299 3.49999 7.06381 3.49999C7.08463 3.49999 7.1055 3.49999 7.1264 3.49999C7.14731 3.49999 7.16826 3.49999 7.18925 3.49999C7.21024 3.49999 7.23127 3.49999 7.25234 3.49999C7.27342 3.49999 7.29453 3.49999 7.31569 3.49999C7.33685 3.49999 7.35805 3.49999 7.37929 3.49999C7.40054 3.49999 7.42182 3.49999 7.44314 3.49999C7.46447 3.49999 7.48584 3.49999 7.50724 3.49999C7.52865 3.49999 7.5501 3.49999 7.57159 3.49999C7.59308 3.49999 7.61461 3.49999 7.63619 3.49999C7.65776 3.49999 7.67937 3.49999 7.70103 3.49999C7.72268 3.49999 7.74437 3.49999 7.76611 3.49999C7.78785 3.49999 7.80962 3.49999 7.83144 3.49999C7.85325 3.49999 7.87511 3.49999 7.89701 3.49999C7.91891 3.49999 7.94084 3.49999 7.96282 3.49999C7.9848 3.49999 8.00681 3.49999 8.02887 3.49999C8.05093 3.49999 8.07303 3.49999 8.09516 3.49999C8.1173 3.49999 8.13948 3.49999 8.16169 3.49999C8.18391 3.49999 8.20616 3.49999 8.22846 3.49999C8.25075 3.49999 8.27309 3.49999 8.29546 3.49999C8.31784 3.49999 8.34025 3.49999 8.3627 3.49999C8.38515 3.49999 8.40764 3.49999 8.43017 3.49999C8.4527 3.49999 8.47527 3.49999 8.49788 3.49999C8.52048 3.49999 8.54313 3.49999 8.56581 3.49999C8.58849 3.49999 8.61122 3.49999 8.63398 3.49999C8.65674 3.49999 8.67954 3.49999 8.70237 3.49999C8.72521 3.49999 8.74809 3.49999 8.771 3.49999C8.79391 3.49999 8.81686 3.49999 8.83985 3.49999C8.86284 3.49999 8.88587 3.49999 8.90893 3.49999C8.93199 3.49999 8.95509 3.49999 8.97823 3.49999C9.00137 3.49999 9.02455 3.49999 9.04776 3.49999C9.07097 3.49999 9.09422 3.49999 9.11751 3.49999C9.1408 3.49999 9.16412 3.49999 9.18748 3.49999C9.21085 3.49999 9.23424 3.49999 9.25768 3.49999C9.28111 3.49999 9.30459 3.49999 9.32809 3.49999C9.3516 3.49999 9.37515 3.49999 9.39873 3.49999C9.42231 3.49999 9.44592 3.49999 9.46958 3.49999C9.49323 3.49999 9.51692 3.49999 9.54064 3.49999C9.56437 3.49999 9.58813 3.49999 9.61193 3.49999C9.63572 3.49999 9.65956 3.49999 9.68342 3.49999C9.70729 3.49999 9.7312 3.49999 9.75514 3.49999C9.77907 3.49999 9.80305 3.49999 9.82706 3.49999C9.85107 3.49999 9.87511 3.49999 9.89919 3.49999C9.92327 3.49999 9.94739 3.49999 9.97154 3.49999C9.99569 3.49999 10.0199 3.49999 10.0441 3.49999C10.0683 3.49999 10.0926 3.49999 10.1169 3.49999C10.1411 3.49999 10.1655 3.49999 10.1898 3.49999C10.2142 3.49999 10.2386 3.49999 10.263 3.49999C10.2874 3.49999 10.3119 3.49999 10.3364 3.49999C10.3609 3.49999 10.3854 3.49999 10.41 3.49999C10.4345 3.49999 10.4591 3.49999 10.4837 3.49999C10.5084 3.49999 10.533 3.49999 10.5577 3.49999C10.5824 3.49999 10.6072 3.49999 10.6319 3.49999C10.6567 3.49999 10.6815 3.49999 10.7063 3.49999C10.7311 3.49999 10.756 3.49999 10.7809 3.49999C10.8058 3.49999 10.8307 3.49999 10.8557 3.49999C10.8806 3.49999 10.9056 3.49999 10.9307 3.49999C10.9557 3.49999 10.9808 3.49999 11.0058 3.49999C11.0309 3.49999 11.0561 3.49999 11.0812 3.49999C11.1064 3.49999 11.1316 3.49999 11.1568 3.49999C11.182 3.49999 11.2072 3.49999 11.2325 3.49999C11.2578 3.49999 11.2831 3.49999 11.3085 3.49999C11.3338 3.49999 11.3592 3.49999 11.3846 3.49999C11.41 3.49999 11.4355 3.49999 11.4609 3.49999C11.4864 3.49999 11.5119 3.49999 11.5374 3.49999C11.563 3.49999 11.5885 3.49999 11.6141 3.49999C11.6397 3.49999 11.6654 3.49999 11.691 3.49999C11.7167 3.49999 11.7424 3.49999 11.7681 3.49999C11.7938 3.49999 11.8196 3.49999 11.8454 3.49999C11.8711 3.49999 11.8969 3.49999 11.9228 3.49999C11.9486 3.49999 11.9745 3.49999 12.0004 3.49999C12.0263 3.49999 12.0522 3.49999 12.0782 3.49999C12.1042 3.49999 12.1302 3.49999 12.1562 3.49999C12.1822 3.49999 12.2082 3.49999 12.2343 3.49999C12.2604 3.49999 12.2865 3.49999 12.3127 3.49999C12.3388 3.49999 12.365 3.49999 12.3912 3.49999C12.4174 3.49999 12.4436 3.49999 12.4698 3.49999C12.4961 3.49999 12.5224 3.49999 12.5487 3.49999C12.575 3.49999 12.6014 3.49999 12.6277 3.49999C12.6541 3.49999 12.6805 3.49999 12.7069 3.49999C12.7334 3.49999 12.7598 3.49999 12.7863 3.49999C12.8128 3.49999 12.8393 3.49999 12.8658 3.49999C12.8924 3.49999 12.9189 3.49999 12.9455 3.49999C12.9721 3.49999 12.9988 3.49999 13.0254 3.49999C13.0521 3.49999 13.0787 3.49999 13.1055 3.49999C13.1322 3.49999 13.1589 3.49999 13.1857 3.49999C13.2124 3.49999 13.2392 3.49999 13.266 3.49999C13.2928 3.49999 13.3197 3.49999 13.3466 3.49999C13.3734 3.49999 13.4003 3.49999 13.4273 3.49999C13.4542 3.49999 13.4811 3.49999 13.5081 3.49999C13.5351 3.49999 13.5621 3.49999 13.5891 3.49999C13.6162 3.49999 13.6432 3.49999 13.6703 3.49999C13.6974 3.49999 13.7245 3.49999 13.7516 3.49999C13.7788 3.49999 13.8059 3.49999 13.8331 3.49999C13.8603 3.49999 13.8875 3.49999 13.9148 3.49999C13.942 3.49999 13.9693 3.49999 13.9966 3.49999C14.0239 3.49999 14.0512 3.49999 14.0785 3.49999C14.1059 3.49999 14.1332 3.49999 14.1606 3.49999C14.188 3.49999 14.2154 3.49999 14.2429 3.49999C14.2703 3.49999 14.2978 3.49999 14.3253 3.49999C14.3528 3.49999 14.3803 3.49999 14.4078 3.49999C14.4354 3.49999 14.4629 3.49999 14.4905 3.49999C14.5181 3.49999 14.5457 3.49999 14.5734 3.49999C14.601 3.49999 14.6287 3.49999 14.6564 3.49999C14.6841 3.49999 14.7118 3.49999 14.7395 3.49999C14.7673 3.49999 14.795 3.49999 14.8228 3.49999C14.8506 3.49999 14.8784 3.49999 14.9062 3.49999C14.9341 3.49999 14.9619 3.49999 14.9898 3.49999C15.0177 3.49999 15.0456 3.49999 15.0735 3.49999C15.1014 3.49999 15.1294 3.49999 15.1573 3.49999C15.1853 3.49999 15.2133 3.49999 15.2413 3.49999C15.2694 3.49999 15.2974 3.49999 15.3255 3.49999C15.3535 3.49999 15.3816 3.49999 15.4097 3.49999C15.4378 3.49999 15.466 3.49999 15.4941 3.49999C15.5223 3.49999 15.5504 3.49999 15.5786 3.49999C15.6068 3.49999 15.6351 3.49999 15.6633 3.49999C15.6915 3.49999 15.7198 3.49999 15.7481 3.49999C15.7764 3.49999 15.8047 3.49999 15.833 3.49999C15.8613 3.49999 15.8897 3.49999 15.9181 3.49999C15.9464 3.49999 15.9748 3.49999 16.0033 3.49999C16.0317 3.49999 16.0601 3.49999 16.0886 3.49999C16.117 3.49999 16.1455 3.49999 16.174 3.49999C16.2025 3.49999 16.231 3.49999 16.2596 3.49999C16.2881 3.49999 16.3167 3.49999 16.3452 3.49999C16.3738 3.49999 16.4024 3.49999 16.4311 3.49999C16.4597 3.49999 16.4883 3.49999 16.517 3.49999C16.5456 3.49999 16.5743 3.49999 16.603 3.49999C16.6317 3.49999 16.6605 3.49999 16.6892 3.49999C16.718 3.49999 16.7467 3.49999 16.7755 3.49999C16.8043 3.49999 16.8331 3.49999 16.8619 3.49999C16.8907 3.49999 16.9196 3.49999 16.9484 3.49999C16.9773 3.49999 17.0062 3.49999 17.0351 3.49999C17.064 3.49999 17.0929 3.49999 17.1218 3.49999C17.1508 3.49999 17.1797 3.49999 17.2087 3.49999C17.2377 3.49999 17.2667 3.49999 17.2957 3.49999C17.3247 3.49999 17.3537 3.49999 17.3828 3.49999C17.4118 3.49999 17.4409 3.49999 17.47 3.49999C17.4991 3.49999 17.5282 3.49999 17.5573 3.49999C17.5864 3.49999 17.6156 3.49999 17.6447 3.49999C17.6739 3.49999 17.7031 3.49999 17.7323 3.49999C17.7614 3.49999 17.7907 3.49999 17.8199 3.49999C17.8491 3.49999 17.8784 3.49999 17.9076 3.49999C17.9369 3.49999 17.9662 3.49999 17.9955 3.49999C18.0248 3.49999 18.0541 3.49999 18.0834 3.49999C18.1128 3.49999 18.1421 3.49999 18.1715 3.49999C18.2008 3.49999 18.2302 3.49999 18.2596 3.49999C18.289 3.49999 18.3184 3.49999 18.3479 3.49999C18.3773 3.49999 18.4067 3.49999 18.4362 3.49999C18.4657 3.49999 18.4952 3.49999 18.5247 3.49999C18.5542 3.49999 18.5837 3.49999 18.6132 3.49999C18.6427 3.49999 18.6723 3.49999 18.7018 3.49999C18.7314 3.49999 18.761 3.49999 18.7906 3.49999C18.8202 3.49999 18.8498 3.49999 18.8794 3.49999C18.909 3.49999 18.9387 3.49999 18.9683 3.49999C18.998 3.49999 19.0276 3.49999 19.0573 3.49999C19.087 3.49999 19.1167 3.49999 19.1464 3.49999C19.1761 3.49999 19.2059 3.49999 19.2356 3.49999C19.2653 3.49999 19.2951 3.49999 19.3249 3.49999C19.3547 3.49999 19.3844 3.49999 19.4142 3.49999C19.444 3.49999 19.4739 3.49999 19.5037 3.49999C19.5335 3.49999 19.5634 3.49999 19.5932 3.49999C19.6231 3.49999 19.6529 3.49999 19.6828 3.49999C19.7127 3.49999 19.7426 3.49999 19.7725 3.49999C19.8024 3.49999 19.8324 3.49999 19.8623 3.49999C19.8923 3.49999 19.9222 3.49999 19.9522 3.49999C19.9821 3.49999 20.0121 3.49999 20.0421 3.49999C20.0721 3.49999 20.1021 3.49999 20.1321 3.49999C20.1621 3.49999 20.1922 3.49999 20.2222 3.49999C20.2523 3.49999 20.2823 3.49999 20.3124 3.49999C20.3425 3.49999 20.3725 3.49999 20.4026 3.49999C20.4327 3.49999 20.4628 3.49999 20.493 3.49999C20.5231 3.49999 20.5532 3.49999 20.5833 3.49999C20.6135 3.49999 20.6436 3.49999 20.6738 3.49999C20.704 3.49999 20.7342 3.49999 20.7643 3.49999C20.7945 3.49999 20.8247 3.49999 20.8549 3.49999C20.8852 3.49999 20.9154 3.49999 20.9456 3.49999C20.9759 3.49999 21.0061 3.49999 21.0364 3.49999C21.0666 3.49999 21.0969 3.49999 21.1272 3.49999C21.1574 3.49999 21.1877 3.49999 21.218 3.49999C21.2483 3.49999 21.2786 3.49999 21.309 3.49999C21.3393 3.49999 21.3696 3.49999 21.4 3.49999C21.4303 3.49999 21.4607 3.49999 21.491 3.49999C21.5214 3.49999 21.5518 3.49999 21.5822 3.49999C21.6125 3.49999 21.6429 3.49999 21.6733 3.49999C21.7037 3.49999 21.7342 3.49999 21.7646 3.49999C21.795 3.49999 21.8254 3.49999 21.8559 3.49999C21.8863 3.49999 21.9168 3.49999 21.9472 3.49999C21.9777 3.49999 22.0082 3.49999 22.0386 3.49999C22.0691 3.49999 22.0996 3.49999 22.1301 3.49999C22.1606 3.49999 22.1911 3.49999 22.2216 3.49999C22.2521 3.49999 22.2827 3.49999 22.3132 3.49999C22.3437 3.49999 22.3743 3.49999 22.4048 3.49999C22.4354 3.49999 22.4659 3.49999 22.4965 3.49999C22.5271 3.49999 22.5576 3.49999 22.5882 3.49999C22.6188 3.49999 22.6494 3.49999 22.68 3.49999C22.7106 3.49999 22.7412 3.49999 22.7718 3.49999C22.8024 3.49999 22.833 3.49999 22.8637 3.49999C22.8943 3.49999 22.9249 3.49999 22.9556 3.49999C22.9862 3.49999 23.0169 3.49999 23.0475 3.49999C23.0782 3.49999 23.1088 3.49999 23.1395 3.49999C23.1702 3.49999 23.2009 3.49999 23.2315 3.49999C23.2622 3.49999 23.2929 3.49999 23.3236 3.49999C23.3543 3.49999 23.385 3.49999 23.4157 3.49999C23.4465 3.49999 23.4772 3.49999 23.5079 3.49999C23.5386 3.49999 23.5693 3.49999 23.6001 3.49999C23.6308 3.49999 23.6616 3.49999 23.6923 3.49999C23.7231 3.49999 23.7538 3.49999 23.7846 3.49999C23.8153 3.49999 23.8461 3.49999 23.8769 3.49999C23.9076 3.49999 23.9384 3.49999 23.9692 3.49999C24 3.49999 24.0308 3.49999 24.0616 3.49999C24.0924 3.49999 24.1232 3.49999 24.154 3.49999C24.1848 3.49999 24.2156 3.49999 24.2464 3.49999C24.2772 3.49999 24.308 3.49999 24.3388 3.49999C24.3697 3.49999 24.4005 3.49999 24.4313 3.49999C24.4621 3.49999 24.493 3.49999 24.5238 3.49999C24.5547 3.49999 24.5855 3.49999 24.6164 3.49999C24.6472 3.49999 24.6781 3.49999 24.7089 3.49999C24.7398 3.49999 24.7706 3.49999 24.8015 3.49999C24.8324 3.49999 24.8632 3.49999 24.8941 3.49999C24.925 3.49999 24.9558 3.49999 24.9867 3.49999C25.0176 3.49999 25.0485 3.49999 25.0794 3.49999C25.1102 3.49999 25.1411 3.5 25.172 3.5C25.2029 3.5 25.2338 3.5 25.2647 3.5C25.2956 3.5 25.3265 3.5 25.3574 3.5C25.3883 3.5 25.4192 3.5 25.4501 3.5C25.481 3.5 25.5119 3.5 25.5428 3.5C25.5738 3.5 25.6047 3.5 25.6356 3.5C25.6665 3.5 25.6974 3.5 25.7283 3.5C25.7593 3.5 25.7902 3.5 25.8211 3.5C25.852 3.5 25.883 3.5 25.9139 3.5C25.9448 3.5 25.9757 3.5 26.0067 3.5C26.0376 3.5 26.0685 3.5 26.0995 3.5C26.1304 3.5 26.1613 3.5 26.1923 3.5C26.2232 3.5 26.2541 3.5 26.2851 3.5C26.316 3.5 26.347 3.5 26.3779 3.5C26.4088 3.5 26.4398 3.5 26.4707 3.5C26.5017 3.5 26.5326 3.5 26.5635 3.5C26.5945 3.5 26.6254 3.5 26.6564 3.5C26.6873 3.5 26.7182 3.5 26.7492 3.5C26.7801 3.5 26.8111 3.5 26.842 3.5C26.8729 3.5 26.9039 3.5 26.9348 3.5C26.9658 3.5 26.9967 3.5 27.0276 3.5C27.0586 3.5 27.0895 3.5 27.1205 3.5C27.1514 3.5 27.1823 3.5 27.2133 3.5C27.2442 3.5 27.2751 3.5 27.3061 3.5C27.337 3.5 27.3679 3.5 27.3989 3.5C27.4298 3.5 27.4607 3.5 27.4917 3.5C27.5226 3.5 27.5535 3.5 27.5845 3.5C27.6154 3.5 27.6463 3.5 27.6772 3.5C27.7081 3.5 27.7391 3.5 27.77 3.5C27.8009 3.5 27.8318 3.5 27.8627 3.5C27.8937 3.5 27.9246 3.5 27.9555 3.5C27.9864 3.5 28.0173 3.5 28.0482 3.5C28.0791 3.5 28.11 3.5 28.1409 3.5C28.1718 3.5 28.2027 3.5 28.2336 3.5C28.2645 3.5 28.2954 3.5 28.3263 3.5C28.3572 3.5 28.388 3.5 28.4189 3.5C28.4498 3.5 28.4807 3.5 28.5116 3.5C28.5424 3.5 28.5733 3.5 28.6042 3.5C28.635 3.5 28.6659 3.5 28.6968 3.5C28.7276 3.5 28.7585 3.5 28.7893 3.5C28.8202 3.5 28.851 3.5 28.8819 3.5C28.9127 3.5 28.9436 3.5 28.9744 3.5C29.0052 3.5 29.0361 3.5 29.0669 3.5C29.0977 3.5 29.1286 3.5 29.1594 3.5C29.1902 3.5 29.221 3.5 29.2518 3.5C29.2826 3.5 29.3134 3.5 29.3442 3.5C29.375 3.5 29.4058 3.5 29.4366 3.5C29.4674 3.5 29.4982 3.5 29.529 3.5C29.5597 3.5 29.5905 3.5 29.6213 3.5C29.652 3.5 29.6828 3.5 29.7136 3.5C29.7443 3.5 29.7751 3.5 29.8058 3.5C29.8366 3.5 29.8673 3.5 29.898 3.5C29.9288 3.5 29.9595 3.5 29.9902 3.5C30.0209 3.5 30.0516 3.5 30.0823 3.5C30.113 3.5 30.1437 3.5 30.1744 3.5C30.2051 3.5 30.2358 3.5 30.2665 3.5C30.2972 3.5 30.3279 3.5 30.3585 3.5C30.3892 3.5 30.4198 3.5 30.4505 3.5C30.4812 3.5 30.5118 3.5 30.5424 3.5C30.5731 3.5 30.6037 3.5 30.6343 3.5C30.6649 3.5 30.6956 3.5 30.7262 3.5C30.7568 3.5 30.7874 3.5 30.818 3.5C30.8486 3.5 30.8791 3.5 30.9097 3.5C30.9403 3.5 30.9709 3.5 31.0014 3.5C31.032 3.5 31.0625 3.5 31.0931 3.5C31.1236 3.5 31.1542 3.5 31.1847 3.5C31.2152 3.5 31.2457 3.5 31.2762 3.5C31.3067 3.5 31.3372 3.5 31.3677 3.5C31.3982 3.5 31.4287 3.5 31.4592 3.5C31.4896 3.5 31.5201 3.5 31.5506 3.5C31.581 3.5 31.6115 3.5 31.6419 3.5C31.6723 3.5 31.7027 3.5 31.7332 3.5C31.7636 3.5 31.794 3.5 31.8244 3.5C31.8548 3.5 31.8852 3.5 31.9155 3.5C31.9459 3.5 31.9763 3.5 32.0066 3.5C32.037 3.5 32.0673 3.5 32.0977 3.5C32.128 3.5 32.1583 3.5 32.1886 3.5C32.219 3.5 32.2493 3.5 32.2796 3.5C32.3099 3.5 32.3401 3.5 32.3704 3.5C32.4007 3.5 32.4309 3.5 32.4612 3.5C32.4914 3.5 32.5217 3.5 32.5519 3.5C32.5821 3.5 32.6123 3.5 32.6425 3.5C32.6727 3.5 32.7029 3.5 32.7331 3.5C32.7633 3.5 32.7935 3.5 32.8236 3.5C32.8538 3.5 32.8839 3.5 32.9141 3.5C32.9442 3.5 32.9743 3.5 33.0044 3.5C33.0345 3.5 33.0646 3.5 33.0947 3.5C33.1248 3.5 33.1549 3.5 33.1849 3.5C33.215 3.5 33.245 3.5 33.2751 3.5C33.3051 3.5 33.3351 3.5 33.3651 3.5C33.3951 3.5 33.4251 3.5 33.4551 3.5C33.4851 3.5 33.5151 3.5 33.545 3.5C33.575 3.5 33.6049 3.5 33.6349 3.5C33.6648 3.5 33.6947 3.5 33.7246 3.5C33.7545 3.5 33.7844 3.5 33.8143 3.5C33.8441 3.5 33.874 3.5 33.9038 3.5C33.9337 3.5 33.9635 3.5 33.9933 3.5C34.0232 3.5 34.053 3.5 34.0828 3.5C34.1126 3.5 34.1423 3.5 34.1721 3.5C34.2019 3.5 34.2316 3.5 34.2613 3.5C34.2911 3.5 34.3208 3.5 34.3505 3.5C34.3802 3.5 34.4099 3.5 34.4395 3.5C34.4692 3.5 34.4989 3.5 34.5285 3.5C34.5582 3.5 34.5878 3.5 34.6174 3.5C34.647 3.5 34.6766 3.5 34.7062 3.5C34.7358 3.5 34.7653 3.5 34.7949 3.5C34.8244 3.5 34.854 3.5 34.8835 3.5C34.913 3.5 34.9425 3.5 34.972 3.5C35.0015 3.5 35.0309 3.5 35.0604 3.5C35.0898 3.5 35.1193 3.5 35.1487 3.5C35.1781 3.5 35.2075 3.5 35.2369 3.5C35.2663 3.5 35.2957 3.5 35.325 3.5C35.3544 3.5 35.3837 3.5 35.413 3.5C35.4423 3.5 35.4717 3.5 35.5009 3.5L35.5009 2.5Z" fill="#606580"/>
</svg>
