<svg width="45" height="6" viewBox="0 0 45 6" fill="none" xmlns="http://www.w3.org/2000/svg">
<path d="M45 3L40 0.113247L40 5.88675L45 3ZM6 2.49999L5.5 2.49999L5.5 3.49999L6 3.49999L6 2.49999ZM40.5009 2.5C40.4717 2.5 40.4423 2.5 40.413 2.5C40.3837 2.5 40.3544 2.5 40.325 2.5C40.2957 2.5 40.2663 2.5 40.2369 2.5C40.2075 2.5 40.1781 2.5 40.1487 2.5C40.1193 2.5 40.0898 2.5 40.0604 2.5C40.0309 2.5 40.0015 2.5 39.972 2.5C39.9425 2.5 39.913 2.5 39.8835 2.5C39.854 2.5 39.8244 2.5 39.7949 2.5C39.7653 2.5 39.7358 2.5 39.7062 2.5C39.6766 2.5 39.647 2.5 39.6174 2.5C39.5878 2.5 39.5582 2.5 39.5285 2.5C39.4989 2.5 39.4692 2.5 39.4395 2.5C39.4099 2.5 39.3802 2.5 39.3505 2.5C39.3208 2.5 39.2911 2.5 39.2613 2.5C39.2316 2.5 39.2019 2.5 39.1721 2.5C39.1423 2.5 39.1126 2.5 39.0828 2.5C39.053 2.5 39.0232 2.5 38.9933 2.5C38.9635 2.5 38.9337 2.5 38.9039 2.5C38.874 2.5 38.8441 2.5 38.8143 2.5C38.7844 2.5 38.7545 2.5 38.7246 2.5C38.6947 2.5 38.6648 2.5 38.6349 2.5C38.6049 2.5 38.575 2.5 38.545 2.5C38.5151 2.5 38.4851 2.5 38.4551 2.5C38.4251 2.5 38.3951 2.5 38.3651 2.5C38.3351 2.5 38.3051 2.5 38.2751 2.5C38.245 2.5 38.215 2.5 38.1849 2.5C38.1549 2.5 38.1248 2.5 38.0947 2.5C38.0646 2.5 38.0345 2.5 38.0044 2.5C37.9743 2.5 37.9442 2.5 37.9141 2.5C37.8839 2.5 37.8538 2.5 37.8236 2.5C37.7935 2.5 37.7633 2.5 37.7331 2.5C37.7029 2.5 37.6727 2.5 37.6425 2.5C37.6123 2.5 37.5821 2.5 37.5519 2.5C37.5217 2.5 37.4914 2.5 37.4612 2.5C37.4309 2.5 37.4007 2.5 37.3704 2.5C37.3401 2.5 37.3099 2.5 37.2796 2.5C37.2493 2.5 37.219 2.5 37.1886 2.5C37.1583 2.5 37.128 2.5 37.0977 2.5C37.0673 2.5 37.037 2.5 37.0066 2.5C36.9763 2.5 36.9459 2.5 36.9155 2.5C36.8852 2.5 36.8548 2.5 36.8244 2.5C36.794 2.5 36.7636 2.5 36.7332 2.5C36.7027 2.5 36.6723 2.5 36.6419 2.5C36.6115 2.5 36.581 2.5 36.5506 2.5C36.5201 2.5 36.4896 2.5 36.4592 2.5C36.4287 2.5 36.3982 2.5 36.3677 2.5C36.3372 2.5 36.3067 2.5 36.2762 2.5C36.2457 2.5 36.2152 2.5 36.1847 2.5C36.1542 2.5 36.1236 2.5 36.0931 2.5C36.0625 2.5 36.032 2.5 36.0014 2.5C35.9709 2.5 35.9403 2.5 35.9097 2.5C35.8791 2.5 35.8486 2.5 35.818 2.5C35.7874 2.5 35.7568 2.5 35.7262 2.5C35.6956 2.5 35.6649 2.5 35.6343 2.5C35.6037 2.5 35.5731 2.5 35.5424 2.5C35.5118 2.5 35.4812 2.5 35.4505 2.5C35.4198 2.5 35.3892 2.5 35.3585 2.5C35.3279 2.5 35.2972 2.5 35.2665 2.5C35.2358 2.5 35.2051 2.5 35.1744 2.5C35.1437 2.5 35.113 2.5 35.0823 2.5C35.0516 2.5 35.0209 2.5 34.9902 2.5C34.9595 2.5 34.9288 2.5 34.898 2.5C34.8673 2.5 34.8366 2.5 34.8058 2.5C34.7751 2.5 34.7443 2.5 34.7136 2.5C34.6828 2.5 34.652 2.5 34.6213 2.5C34.5905 2.5 34.5597 2.5 34.529 2.5C34.4982 2.5 34.4674 2.5 34.4366 2.5C34.4058 2.5 34.375 2.5 34.3442 2.5C34.3134 2.5 34.2826 2.5 34.2518 2.5C34.221 2.5 34.1902 2.5 34.1594 2.5C34.1286 2.5 34.0977 2.5 34.0669 2.5C34.0361 2.5 34.0052 2.5 33.9744 2.5C33.9436 2.5 33.9127 2.5 33.8819 2.5C33.851 2.5 33.8202 2.5 33.7893 2.5C33.7585 2.5 33.7276 2.5 33.6968 2.5C33.6659 2.5 33.635 2.5 33.6042 2.5C33.5733 2.5 33.5424 2.5 33.5116 2.5C33.4807 2.5 33.4498 2.5 33.4189 2.5C33.388 2.5 33.3572 2.5 33.3263 2.5C33.2954 2.5 33.2645 2.5 33.2336 2.5C33.2027 2.5 33.1718 2.5 33.1409 2.5C33.11 2.5 33.0791 2.5 33.0482 2.5C33.0173 2.5 32.9864 2.5 32.9555 2.5C32.9246 2.5 32.8937 2.5 32.8627 2.5C32.8318 2.5 32.8009 2.5 32.77 2.5C32.7391 2.5 32.7081 2.5 32.6772 2.5C32.6463 2.5 32.6154 2.5 32.5845 2.5C32.5535 2.5 32.5226 2.5 32.4917 2.5C32.4607 2.5 32.4298 2.5 32.3989 2.5C32.3679 2.5 32.337 2.5 32.3061 2.5C32.2751 2.5 32.2442 2.5 32.2133 2.5C32.1823 2.5 32.1514 2.5 32.1205 2.5C32.0895 2.5 32.0586 2.5 32.0276 2.5C31.9967 2.5 31.9658 2.5 31.9348 2.5C31.9039 2.5 31.8729 2.5 31.842 2.5C31.8111 2.5 31.7801 2.5 31.7492 2.5C31.7182 2.5 31.6873 2.5 31.6564 2.5C31.6254 2.5 31.5945 2.5 31.5635 2.5C31.5326 2.5 31.5017 2.5 31.4707 2.5C31.4398 2.5 31.4088 2.5 31.3779 2.5C31.347 2.5 31.316 2.5 31.2851 2.5C31.2541 2.5 31.2232 2.5 31.1923 2.5C31.1613 2.5 31.1304 2.5 31.0995 2.5C31.0685 2.5 31.0376 2.5 31.0067 2.5C30.9757 2.5 30.9448 2.5 30.9139 2.5C30.883 2.5 30.852 2.5 30.8211 2.5C30.7902 2.5 30.7593 2.5 30.7283 2.5C30.6974 2.5 30.6665 2.5 30.6356 2.5C30.6047 2.5 30.5738 2.5 30.5428 2.5C30.5119 2.5 30.481 2.5 30.4501 2.5C30.4192 2.5 30.3883 2.5 30.3574 2.5C30.3265 2.5 30.2956 2.5 30.2647 2.5C30.2338 2.5 30.2029 2.5 30.172 2.5C30.1411 2.5 30.1102 2.49999 30.0794 2.49999C30.0485 2.49999 30.0176 2.49999 29.9867 2.49999C29.9558 2.49999 29.925 2.49999 29.8941 2.49999C29.8632 2.49999 29.8324 2.49999 29.8015 2.49999C29.7706 2.49999 29.7398 2.49999 29.7089 2.49999C29.6781 2.49999 29.6472 2.49999 29.6164 2.49999C29.5855 2.49999 29.5547 2.49999 29.5238 2.49999C29.493 2.49999 29.4621 2.49999 29.4313 2.49999C29.4005 2.49999 29.3697 2.49999 29.3388 2.49999C29.308 2.49999 29.2772 2.49999 29.2464 2.49999C29.2156 2.49999 29.1848 2.49999 29.154 2.49999C29.1232 2.49999 29.0924 2.49999 29.0616 2.49999C29.0308 2.49999 29 2.49999 28.9692 2.49999C28.9384 2.49999 28.9076 2.49999 28.8769 2.49999C28.8461 2.49999 28.8153 2.49999 28.7846 2.49999C28.7538 2.49999 28.7231 2.49999 28.6923 2.49999C28.6616 2.49999 28.6308 2.49999 28.6001 2.49999C28.5693 2.49999 28.5386 2.49999 28.5079 2.49999C28.4772 2.49999 28.4465 2.49999 28.4157 2.49999C28.385 2.49999 28.3543 2.49999 28.3236 2.49999C28.2929 2.49999 28.2622 2.49999 28.2315 2.49999C28.2009 2.49999 28.1702 2.49999 28.1395 2.49999C28.1088 2.49999 28.0782 2.49999 28.0475 2.49999C28.0169 2.49999 27.9862 2.49999 27.9556 2.49999C27.9249 2.49999 27.8943 2.49999 27.8637 2.49999C27.833 2.49999 27.8024 2.49999 27.7718 2.49999C27.7412 2.49999 27.7106 2.49999 27.68 2.49999C27.6494 2.49999 27.6188 2.49999 27.5882 2.49999C27.5576 2.49999 27.5271 2.49999 27.4965 2.49999C27.4659 2.49999 27.4354 2.49999 27.4048 2.49999C27.3743 2.49999 27.3437 2.49999 27.3132 2.49999C27.2827 2.49999 27.2521 2.49999 27.2216 2.49999C27.1911 2.49999 27.1606 2.49999 27.1301 2.49999C27.0996 2.49999 27.0691 2.49999 27.0386 2.49999C27.0082 2.49999 26.9777 2.49999 26.9472 2.49999C26.9168 2.49999 26.8863 2.49999 26.8559 2.49999C26.8254 2.49999 26.795 2.49999 26.7646 2.49999C26.7342 2.49999 26.7037 2.49999 26.6733 2.49999C26.6429 2.49999 26.6125 2.49999 26.5822 2.49999C26.5518 2.49999 26.5214 2.49999 26.491 2.49999C26.4607 2.49999 26.4303 2.49999 26.4 2.49999C26.3696 2.49999 26.3393 2.49999 26.309 2.49999C26.2787 2.49999 26.2483 2.49999 26.218 2.49999C26.1877 2.49999 26.1574 2.49999 26.1272 2.49999C26.0969 2.49999 26.0666 2.49999 26.0364 2.49999C26.0061 2.49999 25.9759 2.49999 25.9456 2.49999C25.9154 2.49999 25.8852 2.49999 25.8549 2.49999C25.8247 2.49999 25.7945 2.49999 25.7643 2.49999C25.7342 2.49999 25.704 2.49999 25.6738 2.49999C25.6436 2.49999 25.6135 2.49999 25.5833 2.49999C25.5532 2.49999 25.5231 2.49999 25.493 2.49999C25.4628 2.49999 25.4327 2.49999 25.4026 2.49999C25.3725 2.49999 25.3425 2.49999 25.3124 2.49999C25.2823 2.49999 25.2523 2.49999 25.2222 2.49999C25.1922 2.49999 25.1621 2.49999 25.1321 2.49999C25.1021 2.49999 25.0721 2.49999 25.0421 2.49999C25.0121 2.49999 24.9821 2.49999 24.9522 2.49999C24.9222 2.49999 24.8923 2.49999 24.8623 2.49999C24.8324 2.49999 24.8024 2.49999 24.7725 2.49999C24.7426 2.49999 24.7127 2.49999 24.6828 2.49999C24.653 2.49999 24.6231 2.49999 24.5932 2.49999C24.5634 2.49999 24.5335 2.49999 24.5037 2.49999C24.4739 2.49999 24.444 2.49999 24.4142 2.49999C24.3844 2.49999 24.3547 2.49999 24.3249 2.49999C24.2951 2.49999 24.2653 2.49999 24.2356 2.49999C24.2059 2.49999 24.1761 2.49999 24.1464 2.49999C24.1167 2.49999 24.087 2.49999 24.0573 2.49999C24.0276 2.49999 23.998 2.49999 23.9683 2.49999C23.9387 2.49999 23.909 2.49999 23.8794 2.49999C23.8498 2.49999 23.8202 2.49999 23.7906 2.49999C23.761 2.49999 23.7314 2.49999 23.7018 2.49999C23.6723 2.49999 23.6427 2.49999 23.6132 2.49999C23.5837 2.49999 23.5542 2.49999 23.5247 2.49999C23.4952 2.49999 23.4657 2.49999 23.4362 2.49999C23.4067 2.49999 23.3773 2.49999 23.3479 2.49999C23.3184 2.49999 23.289 2.49999 23.2596 2.49999C23.2302 2.49999 23.2008 2.49999 23.1715 2.49999C23.1421 2.49999 23.1128 2.49999 23.0834 2.49999C23.0541 2.49999 23.0248 2.49999 22.9955 2.49999C22.9662 2.49999 22.9369 2.49999 22.9076 2.49999C22.8784 2.49999 22.8491 2.49999 22.8199 2.49999C22.7907 2.49999 22.7614 2.49999 22.7323 2.49999C22.7031 2.49999 22.6739 2.49999 22.6447 2.49999C22.6156 2.49999 22.5864 2.49999 22.5573 2.49999C22.5282 2.49999 22.4991 2.49999 22.47 2.49999C22.4409 2.49999 22.4118 2.49999 22.3828 2.49999C22.3537 2.49999 22.3247 2.49999 22.2957 2.49999C22.2667 2.49999 22.2377 2.49999 22.2087 2.49999C22.1797 2.49999 22.1508 2.49999 22.1218 2.49999C22.0929 2.49999 22.064 2.49999 22.0351 2.49999C22.0062 2.49999 21.9773 2.49999 21.9484 2.49999C21.9196 2.49999 21.8907 2.49999 21.8619 2.49999C21.8331 2.49999 21.8043 2.49999 21.7755 2.49999C21.7467 2.49999 21.718 2.49999 21.6892 2.49999C21.6605 2.49999 21.6317 2.49999 21.603 2.49999C21.5743 2.49999 21.5456 2.49999 21.517 2.49999C21.4883 2.49999 21.4597 2.49999 21.4311 2.49999C21.4024 2.49999 21.3738 2.49999 21.3452 2.49999C21.3167 2.49999 21.2881 2.49999 21.2596 2.49999C21.231 2.49999 21.2025 2.49999 21.174 2.49999C21.1455 2.49999 21.117 2.49999 21.0886 2.49999C21.0601 2.49999 21.0317 2.49999 21.0033 2.49999C20.9748 2.49999 20.9464 2.49999 20.9181 2.49999C20.8897 2.49999 20.8613 2.49999 20.833 2.49999C20.8047 2.49999 20.7764 2.49999 20.7481 2.49999C20.7198 2.49999 20.6915 2.49999 20.6633 2.49999C20.6351 2.49999 20.6068 2.49999 20.5786 2.49999C20.5504 2.49999 20.5223 2.49999 20.4941 2.49999C20.466 2.49999 20.4378 2.49999 20.4097 2.49999C20.3816 2.49999 20.3535 2.49999 20.3255 2.49999C20.2974 2.49999 20.2694 2.49999 20.2413 2.49999C20.2133 2.49999 20.1853 2.49999 20.1574 2.49999C20.1294 2.49999 20.1014 2.49999 20.0735 2.49999C20.0456 2.49999 20.0177 2.49999 19.9898 2.49999C19.9619 2.49999 19.9341 2.49999 19.9062 2.49999C19.8784 2.49999 19.8506 2.49999 19.8228 2.49999C19.795 2.49999 19.7673 2.49999 19.7395 2.49999C19.7118 2.49999 19.6841 2.49999 19.6564 2.49999C19.6287 2.49999 19.601 2.49999 19.5734 2.49999C19.5457 2.49999 19.5181 2.49999 19.4905 2.49999C19.4629 2.49999 19.4354 2.49999 19.4078 2.49999C19.3803 2.49999 19.3528 2.49999 19.3253 2.49999C19.2978 2.49999 19.2703 2.49999 19.2429 2.49999C19.2154 2.49999 19.188 2.49999 19.1606 2.49999C19.1332 2.49999 19.1059 2.49999 19.0785 2.49999C19.0512 2.49999 19.0239 2.49999 18.9966 2.49999C18.9693 2.49999 18.942 2.49999 18.9148 2.49999C18.8875 2.49999 18.8603 2.49999 18.8331 2.49999C18.8059 2.49999 18.7788 2.49999 18.7516 2.49999C18.7245 2.49999 18.6974 2.49999 18.6703 2.49999C18.6432 2.49999 18.6162 2.49999 18.5891 2.49999C18.5621 2.49999 18.5351 2.49999 18.5081 2.49999C18.4811 2.49999 18.4542 2.49999 18.4273 2.49999C18.4003 2.49999 18.3734 2.49999 18.3466 2.49999C18.3197 2.49999 18.2928 2.49999 18.266 2.49999C18.2392 2.49999 18.2124 2.49999 18.1857 2.49999C18.1589 2.49999 18.1322 2.49999 18.1055 2.49999C18.0787 2.49999 18.0521 2.49999 18.0254 2.49999C17.9988 2.49999 17.9721 2.49999 17.9455 2.49999C17.9189 2.49999 17.8924 2.49999 17.8658 2.49999C17.8393 2.49999 17.8128 2.49999 17.7863 2.49999C17.7598 2.49999 17.7334 2.49999 17.7069 2.49999C17.6805 2.49999 17.6541 2.49999 17.6277 2.49999C17.6014 2.49999 17.575 2.49999 17.5487 2.49999C17.5224 2.49999 17.4961 2.49999 17.4698 2.49999C17.4436 2.49999 17.4174 2.49999 17.3912 2.49999C17.365 2.49999 17.3388 2.49999 17.3127 2.49999C17.2865 2.49999 17.2604 2.49999 17.2343 2.49999C17.2082 2.49999 17.1822 2.49999 17.1562 2.49999C17.1302 2.49999 17.1042 2.49999 17.0782 2.49999C17.0522 2.49999 17.0263 2.49999 17.0004 2.49999C16.9745 2.49999 16.9486 2.49999 16.9228 2.49999C16.8969 2.49999 16.8711 2.49999 16.8454 2.49999C16.8196 2.49999 16.7938 2.49999 16.7681 2.49999C16.7424 2.49999 16.7167 2.49999 16.691 2.49999C16.6654 2.49999 16.6397 2.49999 16.6141 2.49999C16.5886 2.49999 16.563 2.49999 16.5374 2.49999C16.5119 2.49999 16.4864 2.49999 16.4609 2.49999C16.4355 2.49999 16.41 2.49999 16.3846 2.49999C16.3592 2.49999 16.3338 2.49999 16.3085 2.49999C16.2831 2.49999 16.2578 2.49999 16.2325 2.49999C16.2072 2.49999 16.182 2.49999 16.1568 2.49999C16.1316 2.49999 16.1064 2.49999 16.0812 2.49999C16.0561 2.49999 16.0309 2.49999 16.0058 2.49999C15.9808 2.49999 15.9557 2.49999 15.9307 2.49999C15.9056 2.49999 15.8806 2.49999 15.8557 2.49999C15.8307 2.49999 15.8058 2.49999 15.7809 2.49999C15.756 2.49999 15.7311 2.49999 15.7063 2.49999C15.6815 2.49999 15.6567 2.49999 15.6319 2.49999C15.6072 2.49999 15.5824 2.49999 15.5577 2.49999C15.533 2.49999 15.5084 2.49999 15.4838 2.49999C15.4591 2.49999 15.4345 2.49999 15.41 2.49999C15.3854 2.49999 15.3609 2.49999 15.3364 2.49999C15.3119 2.49999 15.2874 2.49999 15.263 2.49999C15.2386 2.49999 15.2142 2.49999 15.1898 2.49999C15.1655 2.49999 15.1411 2.49999 15.1169 2.49999C15.0926 2.49999 15.0683 2.49999 15.0441 2.49999C15.0199 2.49999 14.9957 2.49999 14.9715 2.49999C14.9474 2.49999 14.9233 2.49999 14.8992 2.49999C14.8751 2.49999 14.8511 2.49999 14.8271 2.49999C14.803 2.49999 14.7791 2.49999 14.7551 2.49999C14.7312 2.49999 14.7073 2.49999 14.6834 2.49999C14.6596 2.49999 14.6357 2.49999 14.6119 2.49999C14.5881 2.49999 14.5644 2.49999 14.5406 2.49999C14.5169 2.49999 14.4932 2.49999 14.4696 2.49999C14.4459 2.49999 14.4223 2.49999 14.3987 2.49999C14.3751 2.49999 14.3516 2.49999 14.3281 2.49999C14.3046 2.49999 14.2811 2.49999 14.2577 2.49999C14.2342 2.49999 14.2108 2.49999 14.1875 2.49999C14.1641 2.49999 14.1408 2.49999 14.1175 2.49999C14.0942 2.49999 14.071 2.49999 14.0478 2.49999C14.0245 2.49999 14.0014 2.49999 13.9782 2.49999C13.9551 2.49999 13.932 2.49999 13.9089 2.49999C13.8859 2.49999 13.8628 2.49999 13.8399 2.49999C13.8169 2.49999 13.7939 2.49999 13.771 2.49999C13.7481 2.49999 13.7252 2.49999 13.7024 2.49999C13.6795 2.49999 13.6567 2.49999 13.634 2.49999C13.6112 2.49999 13.5885 2.49999 13.5658 2.49999C13.5431 2.49999 13.5205 2.49999 13.4979 2.49999C13.4753 2.49999 13.4527 2.49999 13.4302 2.49999C13.4076 2.49999 13.3852 2.49999 13.3627 2.49999C13.3402 2.49999 13.3178 2.49999 13.2955 2.49999C13.2731 2.49999 13.2508 2.49999 13.2285 2.49999C13.2062 2.49999 13.1839 2.49999 13.1617 2.49999C13.1395 2.49999 13.1173 2.49999 13.0952 2.49999C13.073 2.49999 13.0509 2.49999 13.0289 2.49999C13.0068 2.49999 12.9848 2.49999 12.9628 2.49999C12.9408 2.49999 12.9189 2.49999 12.897 2.49999C12.8751 2.49999 12.8533 2.49999 12.8314 2.49999C12.8096 2.49999 12.7878 2.49999 12.7661 2.49999C12.7444 2.49999 12.7227 2.49999 12.701 2.49999C12.6794 2.49999 12.6578 2.49999 12.6362 2.49999C12.6146 2.49999 12.5931 2.49999 12.5716 2.49999C12.5501 2.49999 12.5287 2.49999 12.5072 2.49999C12.4858 2.49999 12.4645 2.49999 12.4431 2.49999C12.4218 2.49999 12.4005 2.49999 12.3793 2.49999C12.3581 2.49999 12.3369 2.49999 12.3157 2.49999C12.2945 2.49999 12.2734 2.49999 12.2523 2.49999C12.2313 2.49999 12.2102 2.49999 12.1892 2.49999C12.1683 2.49999 12.1473 2.49999 12.1264 2.49999C12.1055 2.49999 12.0846 2.49999 12.0638 2.49999C12.043 2.49999 12.0222 2.49999 12.0015 2.49999C11.9807 2.49999 11.96 2.49999 11.9394 2.49999C11.9188 2.49999 11.8981 2.49999 11.8776 2.49999C11.857 2.49999 11.8365 2.49999 11.816 2.49999C11.7955 2.49999 11.7751 2.49999 11.7547 2.49999C11.7343 2.49999 11.714 2.49999 11.6937 2.49999C11.6734 2.49999 11.6531 2.49999 11.6329 2.49999C11.6127 2.49999 11.5925 2.49999 11.5724 2.49999C11.5522 2.49999 11.5322 2.49999 11.5121 2.49999C11.4921 2.49999 11.4721 2.49999 11.4521 2.49999C11.4322 2.49999 11.4123 2.49999 11.3924 2.49999C11.3726 2.49999 11.3527 2.49999 11.333 2.49999C11.3132 2.49999 11.2935 2.49999 11.2738 2.49999C11.2541 2.49999 11.2344 2.49999 11.2149 2.49999C11.1953 2.49999 11.1757 2.49999 11.1562 2.49999C11.1367 2.49999 11.1172 2.49999 11.0978 2.49999C11.0784 2.49999 11.0591 2.49999 11.0397 2.49999C11.0204 2.49999 11.0011 2.49999 10.9819 2.49999C10.9627 2.49999 10.9435 2.49999 10.9243 2.49999C10.9052 2.49999 10.8861 2.49999 10.8671 2.49999C10.848 2.49999 10.829 2.49999 10.8101 2.49999C10.7911 2.49999 10.7722 2.49999 10.7533 2.49999C10.7345 2.49999 10.7157 2.49999 10.6969 2.49999C10.6781 2.49999 10.6594 2.49999 10.6407 2.49999C10.6221 2.49999 10.6034 2.49999 10.5848 2.49999C10.5663 2.49999 10.5477 2.49999 10.5292 2.49999C10.5108 2.49999 10.4923 2.49999 10.4739 2.49999C10.4555 2.49999 10.4372 2.49999 10.4189 2.49999C10.4006 2.49999 10.3823 2.49999 10.3641 2.49999C10.3459 2.49999 10.3278 2.49999 10.3097 2.49999C10.2916 2.49999 10.2735 2.49999 10.2555 2.49999C10.2375 2.49999 10.2195 2.49999 10.2016 2.49999C10.1837 2.49999 10.1658 2.49999 10.148 2.49999C10.1302 2.49999 10.1124 2.49999 10.0947 2.49999C10.077 2.49999 10.0593 2.49999 10.0417 2.49999C10.0241 2.49999 10.0065 2.49999 9.98898 2.49999C9.97145 2.49999 9.95398 2.49999 9.93655 2.49999C9.91912 2.49999 9.90175 2.49999 9.88442 2.49999C9.86709 2.49999 9.84981 2.49999 9.83258 2.49999C9.81535 2.49999 9.79818 2.49999 9.78104 2.49999C9.76392 2.49999 9.74683 2.49999 9.72981 2.49999C9.71278 2.49999 9.69579 2.49999 9.67886 2.49999C9.66193 2.49999 9.64505 2.49999 9.62822 2.49999C9.61139 2.49999 9.59462 2.49999 9.57788 2.49999C9.56116 2.49999 9.54448 2.49999 9.52785 2.49999C9.51122 2.49999 9.49464 2.49999 9.47812 2.49999C9.46159 2.49999 9.44511 2.49999 9.42869 2.49999C9.41226 2.49999 9.39589 2.49999 9.37957 2.49999C9.36324 2.49999 9.34697 2.49999 9.33075 2.49999C9.31453 2.49999 9.29836 2.49999 9.28224 2.49999C9.26612 2.49999 9.25006 2.49999 9.23405 2.49999C9.21803 2.49999 9.20207 2.49999 9.18616 2.49999C9.17025 2.49999 9.15439 2.49999 9.13858 2.49999C9.12277 2.49999 9.10702 2.49999 9.09132 2.49999C9.07561 2.49999 9.05996 2.49999 9.04436 2.49999C9.02877 2.49999 9.01322 2.49999 8.99773 2.49999C8.98223 2.49999 8.96679 2.49999 8.9514 2.49999C8.93602 2.49999 8.92068 2.49999 8.9054 2.49999C8.89012 2.49999 8.87489 2.49999 8.85971 2.49999C8.84454 2.49999 8.82941 2.49999 8.81435 2.49999C8.79927 2.49999 8.78426 2.49999 8.76929 2.49999C8.75433 2.49999 8.73943 2.49999 8.72457 2.49999C8.70971 2.49999 8.69491 2.49999 8.68016 2.49999C8.66541 2.49999 8.65072 2.49999 8.63608 2.49999C8.62144 2.49999 8.60685 2.49999 8.59232 2.49999C8.57779 2.49999 8.56331 2.49999 8.54889 2.49999C8.53446 2.49999 8.52009 2.49999 8.50578 2.49999C8.49146 2.49999 8.4772 2.49999 8.463 2.49999C8.44879 2.49999 8.43464 2.49999 8.42055 2.49999C8.40645 2.49999 8.39241 2.49999 8.37843 2.49999C8.36444 2.49999 8.35051 2.49999 8.33663 2.49999C8.32276 2.49999 8.30894 2.49999 8.29517 2.49999C8.28141 2.49999 8.2677 2.49999 8.25404 2.49999C8.24039 2.49999 8.22679 2.49999 8.21325 2.49999C8.19971 2.49999 8.18622 2.49999 8.17279 2.49999C8.15936 2.49999 8.14598 2.49999 8.13267 2.49999C8.11935 2.49999 8.10609 2.49999 8.09288 2.49999C8.07967 2.49999 8.06652 2.49999 8.05343 2.49999C8.04034 2.49999 8.0273 2.49999 8.01432 2.49999C8.00134 2.49999 7.98842 2.49999 7.97556 2.49999C7.96269 2.49999 7.94988 2.49999 7.93713 2.49999C7.92437 2.49999 7.91168 2.49999 7.89904 2.49999C7.8864 2.49999 7.87382 2.49999 7.8613 2.49999C7.84877 2.49999 7.83631 2.49999 7.8239 2.49999C7.81149 2.49999 7.79914 2.49999 7.78685 2.49999C7.77456 2.49999 7.76232 2.49999 7.75014 2.49999C7.73796 2.49999 7.72585 2.49999 7.71379 2.49999C7.70173 2.49999 7.68972 2.49999 7.67778 2.49999C7.66583 2.49999 7.65395 2.49999 7.64212 2.49999C7.63029 2.49999 7.61852 2.49999 7.60681 2.49999C7.5951 2.49999 7.58345 2.49999 7.57185 2.49999C7.56026 2.49999 7.54873 2.49999 7.53725 2.49999C7.52578 2.49999 7.51436 2.49999 7.503 2.49999C7.49164 2.49999 7.48035 2.49999 7.4691 2.49999C7.45787 2.49999 7.44669 2.49999 7.43557 2.49999C7.42445 2.49999 7.41339 2.49999 7.40239 2.49999C7.39139 2.49999 7.38045 2.49999 7.36957 2.49999C7.35868 2.49999 7.34787 2.49999 7.3371 2.49999C7.32634 2.49999 7.31564 2.49999 7.305 2.49999C7.29436 2.49999 7.28378 2.49999 7.27326 2.49999C7.26274 2.49999 7.25229 2.49999 7.24189 2.49999C7.23149 2.49999 7.22115 2.49999 7.21087 2.49999C7.2006 2.49999 7.19038 2.49999 7.18022 2.49999C7.17007 2.49999 7.15997 2.49999 7.14994 2.49999C7.13991 2.49999 7.12994 2.49999 7.12003 2.49999C7.11012 2.49999 7.10027 2.49999 7.09048 2.49999C7.08069 2.49999 7.07096 2.49999 7.0613 2.49999C7.05163 2.49999 7.04203 2.49999 7.03249 2.49999C7.02295 2.49999 7.01347 2.49999 7.00406 2.49999C6.99464 2.49999 6.98528 2.49999 6.97599 2.49999C6.9667 2.49999 6.95747 2.49999 6.9483 2.49999C6.93913 2.49999 6.93002 2.49999 6.92098 2.49999C6.91194 2.49999 6.90296 2.49999 6.89404 2.49999C6.88512 2.49999 6.87627 2.49999 6.86748 2.49999C6.85868 2.49999 6.84996 2.49999 6.84129 2.49999C6.83262 2.49999 6.82402 2.49999 6.81548 2.49999C6.80694 2.49999 6.79847 2.49999 6.79005 2.49999C6.78164 2.49999 6.77329 2.49999 6.76501 2.49999C6.75672 2.49999 6.7485 2.49999 6.74034 2.49999C6.73219 2.49999 6.72409 2.49999 6.71606 2.49999C6.70803 2.49999 6.70007 2.49999 6.69216 2.49999C6.68426 2.49999 6.67643 2.49999 6.66865 2.49999C6.66088 2.49999 6.65317 2.49999 6.64553 2.49999C6.63788 2.49999 6.6303 2.49999 6.62279 2.49999C6.61527 2.49999 6.60782 2.49999 6.60044 2.49999C6.59305 2.49999 6.58573 2.49999 6.57848 2.49999C6.57122 2.49999 6.56403 2.49999 6.55691 2.49999C6.54978 2.49999 6.54272 2.49999 6.53573 2.49999C6.52874 2.49999 6.52181 2.49999 6.51495 2.49999C6.50808 2.49999 6.50129 2.49999 6.49455 2.49999C6.48782 2.49999 6.48116 2.49999 6.47456 2.49999C6.46796 2.49999 6.46142 2.49999 6.45496 2.49999C6.44849 2.49999 6.44209 2.49999 6.43575 2.49999C6.42942 2.49999 6.42315 2.49999 6.41695 2.49999C6.41075 2.49999 6.40461 2.49999 6.39854 2.49999C6.39248 2.49999 6.38647 2.49999 6.38054 2.49999C6.3746 2.49999 6.36873 2.49999 6.36293 2.49999C6.35713 2.49999 6.3514 2.49999 6.34573 2.49999C6.34007 2.49999 6.33447 2.49999 6.32893 2.49999C6.3234 2.49999 6.31794 2.49999 6.31254 2.49999C6.30714 2.49999 6.30181 2.49999 6.29655 2.49999C6.29129 2.49999 6.28609 2.49999 6.28097 2.49999C6.27584 2.49999 6.27079 2.49999 6.2658 2.49999C6.26081 2.49999 6.25589 2.49999 6.25103 2.49999C6.24618 2.49999 6.24139 2.49999 6.23668 2.49999C6.23196 2.49999 6.22731 2.49999 6.22273 2.49999C6.21815 2.49999 6.21365 2.49999 6.2092 2.49999C6.20476 2.49999 6.20039 2.49999 6.19608 2.49999C6.19178 2.49999 6.18755 2.49999 6.18338 2.49999C6.17921 2.49999 6.17512 2.49999 6.17109 2.49999C6.16706 2.49999 6.16311 2.49999 6.15922 2.49999C6.15533 2.49999 6.15152 2.49999 6.14777 2.49999C6.14402 2.49999 6.14034 2.49999 6.13673 2.49999C6.13312 2.49999 6.12958 2.49999 6.12611 2.49999C6.12265 2.49999 6.11925 2.49999 6.11592 2.49999C6.11259 2.49999 6.10933 2.49999 6.10614 2.49999C6.10295 2.49999 6.09984 2.49999 6.09679 2.49999C6.09375 2.49999 6.09077 2.49999 6.08786 2.49999C6.08496 2.49999 6.08213 2.49999 6.07936 2.49999C6.0766 2.49999 6.07391 2.49999 6.07129 2.49999C6.06866 2.49999 6.06612 2.49999 6.06364 2.49999C6.06116 2.49999 6.05875 2.49999 6.05642 2.49999C6.05408 2.49999 6.05182 2.49999 6.04963 2.49999C6.04744 2.49999 6.04531 2.49999 6.04327 2.49999C6.04122 2.49999 6.03924 2.49999 6.03733 2.49999C6.03543 2.49999 6.0336 2.49999 6.03184 2.49999C6.03008 2.49999 6.02839 2.49999 6.02678 2.49999C6.02516 2.49999 6.02362 2.49999 6.02215 2.49999C6.02068 2.49999 6.01928 2.49999 6.01795 2.49999C6.01663 2.49999 6.01538 2.49999 6.0142 2.49999C6.01302 2.49999 6.01191 2.49999 6.01088 2.49999C6.00985 2.49999 6.00888 2.49999 6.008 2.49999C6.00711 2.49999 6.0063 2.49999 6.00556 2.49999C6.00482 2.49999 6.00415 2.49999 6.00356 2.49999C6.00297 2.49999 6.00245 2.49999 6.00201 2.49999C6.00156 2.49999 6.00119 2.49999 6.00089 2.49999C6.0006 2.49999 6.00037 2.49999 6.00023 2.49999C6.00008 2.49999 6 2.49999 6 2.99999C6 3.49999 6.00008 3.49999 6.00023 3.49999C6.00037 3.49999 6.0006 3.49999 6.00089 3.49999C6.00119 3.49999 6.00156 3.49999 6.00201 3.49999C6.00245 3.49999 6.00297 3.49999 6.00356 3.49999C6.00415 3.49999 6.00482 3.49999 6.00556 3.49999C6.0063 3.49999 6.00711 3.49999 6.008 3.49999C6.00888 3.49999 6.00985 3.49999 6.01088 3.49999C6.01191 3.49999 6.01302 3.49999 6.0142 3.49999C6.01538 3.49999 6.01663 3.49999 6.01795 3.49999C6.01928 3.49999 6.02068 3.49999 6.02215 3.49999C6.02362 3.49999 6.02516 3.49999 6.02678 3.49999C6.02839 3.49999 6.03008 3.49999 6.03184 3.49999C6.0336 3.49999 6.03543 3.49999 6.03733 3.49999C6.03924 3.49999 6.04122 3.49999 6.04327 3.49999C6.04531 3.49999 6.04744 3.49999 6.04963 3.49999C6.05182 3.49999 6.05408 3.49999 6.05642 3.49999C6.05875 3.49999 6.06116 3.49999 6.06364 3.49999C6.06612 3.49999 6.06866 3.49999 6.07129 3.49999C6.07391 3.49999 6.0766 3.49999 6.07936 3.49999C6.08213 3.49999 6.08496 3.49999 6.08786 3.49999C6.09077 3.49999 6.09375 3.49999 6.09679 3.49999C6.09984 3.49999 6.10295 3.49999 6.10614 3.49999C6.10933 3.49999 6.11259 3.49999 6.11592 3.49999C6.11925 3.49999 6.12265 3.49999 6.12611 3.49999C6.12958 3.49999 6.13312 3.49999 6.13673 3.49999C6.14034 3.49999 6.14402 3.49999 6.14777 3.49999C6.15152 3.49999 6.15533 3.49999 6.15922 3.49999C6.16311 3.49999 6.16706 3.49999 6.17109 3.49999C6.17512 3.49999 6.17921 3.49999 6.18338 3.49999C6.18755 3.49999 6.19178 3.49999 6.19608 3.49999C6.20039 3.49999 6.20476 3.49999 6.2092 3.49999C6.21365 3.49999 6.21815 3.49999 6.22273 3.49999C6.22731 3.49999 6.23196 3.49999 6.23668 3.49999C6.24139 3.49999 6.24618 3.49999 6.25103 3.49999C6.25589 3.49999 6.26081 3.49999 6.2658 3.49999C6.27079 3.49999 6.27584 3.49999 6.28097 3.49999C6.28609 3.49999 6.29129 3.49999 6.29655 3.49999C6.30181 3.49999 6.30714 3.49999 6.31254 3.49999C6.31794 3.49999 6.3234 3.49999 6.32893 3.49999C6.33447 3.49999 6.34006 3.49999 6.34573 3.49999C6.3514 3.49999 6.35713 3.49999 6.36293 3.49999C6.36873 3.49999 6.3746 3.49999 6.38054 3.49999C6.38647 3.49999 6.39248 3.49999 6.39854 3.49999C6.40461 3.49999 6.41075 3.49999 6.41695 3.49999C6.42315 3.49999 6.42942 3.49999 6.43575 3.49999C6.44209 3.49999 6.44849 3.49999 6.45496 3.49999C6.46142 3.49999 6.46796 3.49999 6.47456 3.49999C6.48116 3.49999 6.48782 3.49999 6.49455 3.49999C6.50129 3.49999 6.50808 3.49999 6.51495 3.49999C6.52181 3.49999 6.52874 3.49999 6.53573 3.49999C6.54272 3.49999 6.54978 3.49999 6.55691 3.49999C6.56403 3.49999 6.57122 3.49999 6.57848 3.49999C6.58573 3.49999 6.59305 3.49999 6.60044 3.49999C6.60782 3.49999 6.61527 3.49999 6.62279 3.49999C6.6303 3.49999 6.63788 3.49999 6.64553 3.49999C6.65317 3.49999 6.66088 3.49999 6.66865 3.49999C6.67643 3.49999 6.68426 3.49999 6.69216 3.49999C6.70007 3.49999 6.70803 3.49999 6.71606 3.49999C6.72409 3.49999 6.73219 3.49999 6.74034 3.49999C6.7485 3.49999 6.75672 3.49999 6.76501 3.49999C6.77329 3.49999 6.78164 3.49999 6.79005 3.49999C6.79847 3.49999 6.80694 3.49999 6.81548 3.49999C6.82402 3.49999 6.83262 3.49999 6.84129 3.49999C6.84996 3.49999 6.85868 3.49999 6.86748 3.49999C6.87627 3.49999 6.88512 3.49999 6.89404 3.49999C6.90296 3.49999 6.91194 3.49999 6.92098 3.49999C6.93002 3.49999 6.93913 3.49999 6.9483 3.49999C6.95747 3.49999 6.9667 3.49999 6.97599 3.49999C6.98528 3.49999 6.99464 3.49999 7.00406 3.49999C7.01347 3.49999 7.02295 3.49999 7.03249 3.49999C7.04203 3.49999 7.05163 3.49999 7.0613 3.49999C7.07096 3.49999 7.08069 3.49999 7.09048 3.49999C7.10027 3.49999 7.11012 3.49999 7.12003 3.49999C7.12994 3.49999 7.13991 3.49999 7.14994 3.49999C7.15997 3.49999 7.17007 3.49999 7.18022 3.49999C7.19038 3.49999 7.2006 3.49999 7.21087 3.49999C7.22115 3.49999 7.23149 3.49999 7.24189 3.49999C7.25228 3.49999 7.26274 3.49999 7.27326 3.49999C7.28378 3.49999 7.29436 3.49999 7.305 3.49999C7.31564 3.49999 7.32634 3.49999 7.3371 3.49999C7.34787 3.49999 7.35868 3.49999 7.36957 3.49999C7.38045 3.49999 7.39139 3.49999 7.40239 3.49999C7.41339 3.49999 7.42445 3.49999 7.43557 3.49999C7.44669 3.49999 7.45787 3.49999 7.4691 3.49999C7.48035 3.49999 7.49164 3.49999 7.503 3.49999C7.51436 3.49999 7.52578 3.49999 7.53725 3.49999C7.54873 3.49999 7.56026 3.49999 7.57185 3.49999C7.58345 3.49999 7.5951 3.49999 7.60681 3.49999C7.61852 3.49999 7.63029 3.49999 7.64212 3.49999C7.65395 3.49999 7.66583 3.49999 7.67778 3.49999C7.68972 3.49999 7.70172 3.49999 7.71379 3.49999C7.72585 3.49999 7.73796 3.49999 7.75014 3.49999C7.76232 3.49999 7.77456 3.49999 7.78685 3.49999C7.79914 3.49999 7.81149 3.49999 7.8239 3.49999C7.83631 3.49999 7.84877 3.49999 7.8613 3.49999C7.87382 3.49999 7.8864 3.49999 7.89904 3.49999C7.91168 3.49999 7.92437 3.49999 7.93713 3.49999C7.94988 3.49999 7.96269 3.49999 7.97556 3.49999C7.98842 3.49999 8.00134 3.49999 8.01432 3.49999C8.0273 3.49999 8.04034 3.49999 8.05343 3.49999C8.06652 3.49999 8.07967 3.49999 8.09288 3.49999C8.10609 3.49999 8.11935 3.49999 8.13267 3.49999C8.14598 3.49999 8.15936 3.49999 8.17279 3.49999C8.18622 3.49999 8.19971 3.49999 8.21325 3.49999C8.22679 3.49999 8.24039 3.49999 8.25404 3.49999C8.2677 3.49999 8.28141 3.49999 8.29517 3.49999C8.30894 3.49999 8.32276 3.49999 8.33663 3.49999C8.35051 3.49999 8.36444 3.49999 8.37843 3.49999C8.39241 3.49999 8.40645 3.49999 8.42055 3.49999C8.43464 3.49999 8.44879 3.49999 8.463 3.49999C8.4772 3.49999 8.49146 3.49999 8.50578 3.49999C8.52009 3.49999 8.53446 3.49999 8.54889 3.49999C8.56331 3.49999 8.57779 3.49999 8.59232 3.49999C8.60685 3.49999 8.62144 3.49999 8.63608 3.49999C8.65072 3.49999 8.66541 3.49999 8.68016 3.49999C8.69491 3.49999 8.70971 3.49999 8.72457 3.49999C8.73943 3.49999 8.75433 3.49999 8.76929 3.49999C8.78426 3.49999 8.79927 3.49999 8.81435 3.49999C8.82941 3.49999 8.84454 3.49999 8.85971 3.49999C8.87489 3.49999 8.89012 3.49999 8.9054 3.49999C8.92068 3.49999 8.93602 3.49999 8.9514 3.49999C8.96679 3.49999 8.98223 3.49999 8.99773 3.49999C9.01322 3.49999 9.02877 3.49999 9.04436 3.49999C9.05996 3.49999 9.07561 3.49999 9.09132 3.49999C9.10702 3.49999 9.12277 3.49999 9.13858 3.49999C9.15439 3.49999 9.17025 3.49999 9.18616 3.49999C9.20207 3.49999 9.21803 3.49999 9.23405 3.49999C9.25006 3.49999 9.26612 3.49999 9.28224 3.49999C9.29836 3.49999 9.31453 3.49999 9.33075 3.49999C9.34697 3.49999 9.36324 3.49999 9.37957 3.49999C9.39589 3.49999 9.41226 3.49999 9.42869 3.49999C9.44511 3.49999 9.46159 3.49999 9.47812 3.49999C9.49464 3.49999 9.51122 3.49999 9.52785 3.49999C9.54448 3.49999 9.56116 3.49999 9.57788 3.49999C9.59462 3.49999 9.61139 3.49999 9.62822 3.49999C9.64505 3.49999 9.66193 3.49999 9.67886 3.49999C9.69579 3.49999 9.71278 3.49999 9.7298 3.49999C9.74683 3.49999 9.76392 3.49999 9.78104 3.49999C9.79818 3.49999 9.81535 3.49999 9.83258 3.49999C9.84981 3.49999 9.86709 3.49999 9.88442 3.49999C9.90175 3.49999 9.91912 3.49999 9.93655 3.49999C9.95398 3.49999 9.97145 3.49999 9.98898 3.49999C10.0065 3.49999 10.0241 3.49999 10.0417 3.49999C10.0593 3.49999 10.077 3.49999 10.0947 3.49999C10.1124 3.49999 10.1302 3.49999 10.148 3.49999C10.1658 3.49999 10.1837 3.49999 10.2016 3.49999C10.2195 3.49999 10.2375 3.49999 10.2555 3.49999C10.2735 3.49999 10.2916 3.49999 10.3097 3.49999C10.3278 3.49999 10.3459 3.49999 10.3641 3.49999C10.3823 3.49999 10.4006 3.49999 10.4189 3.49999C10.4372 3.49999 10.4555 3.49999 10.4739 3.49999C10.4923 3.49999 10.5108 3.49999 10.5292 3.49999C10.5477 3.49999 10.5663 3.49999 10.5848 3.49999C10.6034 3.49999 10.6221 3.49999 10.6407 3.49999C10.6594 3.49999 10.6781 3.49999 10.6969 3.49999C10.7157 3.49999 10.7345 3.49999 10.7533 3.49999C10.7722 3.49999 10.7911 3.49999 10.8101 3.49999C10.829 3.49999 10.848 3.49999 10.8671 3.49999C10.8861 3.49999 10.9052 3.49999 10.9243 3.49999C10.9435 3.49999 10.9627 3.49999 10.9819 3.49999C11.0011 3.49999 11.0204 3.49999 11.0397 3.49999C11.0591 3.49999 11.0784 3.49999 11.0978 3.49999C11.1172 3.49999 11.1367 3.49999 11.1562 3.49999C11.1757 3.49999 11.1953 3.49999 11.2149 3.49999C11.2344 3.49999 11.2541 3.49999 11.2738 3.49999C11.2935 3.49999 11.3132 3.49999 11.333 3.49999C11.3527 3.49999 11.3726 3.49999 11.3924 3.49999C11.4123 3.49999 11.4322 3.49999 11.4521 3.49999C11.4721 3.49999 11.4921 3.49999 11.5121 3.49999C11.5322 3.49999 11.5522 3.49999 11.5724 3.49999C11.5925 3.49999 11.6127 3.49999 11.6329 3.49999C11.6531 3.49999 11.6734 3.49999 11.6937 3.49999C11.714 3.49999 11.7343 3.49999 11.7547 3.49999C11.7751 3.49999 11.7955 3.49999 11.816 3.49999C11.8365 3.49999 11.857 3.49999 11.8776 3.49999C11.8981 3.49999 11.9188 3.49999 11.9394 3.49999C11.96 3.49999 11.9807 3.49999 12.0015 3.49999C12.0222 3.49999 12.043 3.49999 12.0638 3.49999C12.0846 3.49999 12.1055 3.49999 12.1264 3.49999C12.1473 3.49999 12.1683 3.49999 12.1892 3.49999C12.2102 3.49999 12.2313 3.49999 12.2523 3.49999C12.2734 3.49999 12.2945 3.49999 12.3157 3.49999C12.3369 3.49999 12.3581 3.49999 12.3793 3.49999C12.4005 3.49999 12.4218 3.49999 12.4431 3.49999C12.4645 3.49999 12.4858 3.49999 12.5072 3.49999C12.5287 3.49999 12.5501 3.49999 12.5716 3.49999C12.5931 3.49999 12.6146 3.49999 12.6362 3.49999C12.6578 3.49999 12.6794 3.49999 12.701 3.49999C12.7227 3.49999 12.7444 3.49999 12.7661 3.49999C12.7878 3.49999 12.8096 3.49999 12.8314 3.49999C12.8533 3.49999 12.8751 3.49999 12.897 3.49999C12.9189 3.49999 12.9408 3.49999 12.9628 3.49999C12.9848 3.49999 13.0068 3.49999 13.0289 3.49999C13.0509 3.49999 13.073 3.49999 13.0952 3.49999C13.1173 3.49999 13.1395 3.49999 13.1617 3.49999C13.1839 3.49999 13.2062 3.49999 13.2285 3.49999C13.2508 3.49999 13.2731 3.49999 13.2955 3.49999C13.3178 3.49999 13.3402 3.49999 13.3627 3.49999C13.3852 3.49999 13.4076 3.49999 13.4302 3.49999C13.4527 3.49999 13.4753 3.49999 13.4979 3.49999C13.5205 3.49999 13.5431 3.49999 13.5658 3.49999C13.5885 3.49999 13.6112 3.49999 13.634 3.49999C13.6567 3.49999 13.6795 3.49999 13.7024 3.49999C13.7252 3.49999 13.7481 3.49999 13.771 3.49999C13.7939 3.49999 13.8169 3.49999 13.8399 3.49999C13.8628 3.49999 13.8859 3.49999 13.9089 3.49999C13.932 3.49999 13.9551 3.49999 13.9782 3.49999C14.0014 3.49999 14.0245 3.49999 14.0478 3.49999C14.071 3.49999 14.0942 3.49999 14.1175 3.49999C14.1408 3.49999 14.1641 3.49999 14.1875 3.49999C14.2108 3.49999 14.2342 3.49999 14.2577 3.49999C14.2811 3.49999 14.3046 3.49999 14.3281 3.49999C14.3516 3.49999 14.3751 3.49999 14.3987 3.49999C14.4223 3.49999 14.4459 3.49999 14.4696 3.49999C14.4932 3.49999 14.5169 3.49999 14.5406 3.49999C14.5644 3.49999 14.5881 3.49999 14.6119 3.49999C14.6357 3.49999 14.6596 3.49999 14.6834 3.49999C14.7073 3.49999 14.7312 3.49999 14.7551 3.49999C14.7791 3.49999 14.803 3.49999 14.8271 3.49999C14.8511 3.49999 14.8751 3.49999 14.8992 3.49999C14.9233 3.49999 14.9474 3.49999 14.9715 3.49999C14.9957 3.49999 15.0199 3.49999 15.0441 3.49999C15.0683 3.49999 15.0926 3.49999 15.1169 3.49999C15.1411 3.49999 15.1655 3.49999 15.1898 3.49999C15.2142 3.49999 15.2386 3.49999 15.263 3.49999C15.2874 3.49999 15.3119 3.49999 15.3364 3.49999C15.3609 3.49999 15.3854 3.49999 15.41 3.49999C15.4345 3.49999 15.4591 3.49999 15.4838 3.49999C15.5084 3.49999 15.533 3.49999 15.5577 3.49999C15.5824 3.49999 15.6072 3.49999 15.6319 3.49999C15.6567 3.49999 15.6815 3.49999 15.7063 3.49999C15.7311 3.49999 15.756 3.49999 15.7809 3.49999C15.8058 3.49999 15.8307 3.49999 15.8557 3.49999C15.8806 3.49999 15.9056 3.49999 15.9307 3.49999C15.9557 3.49999 15.9808 3.49999 16.0058 3.49999C16.0309 3.49999 16.0561 3.49999 16.0812 3.49999C16.1064 3.49999 16.1316 3.49999 16.1568 3.49999C16.182 3.49999 16.2072 3.49999 16.2325 3.49999C16.2578 3.49999 16.2831 3.49999 16.3085 3.49999C16.3338 3.49999 16.3592 3.49999 16.3846 3.49999C16.41 3.49999 16.4355 3.49999 16.4609 3.49999C16.4864 3.49999 16.5119 3.49999 16.5374 3.49999C16.563 3.49999 16.5886 3.49999 16.6141 3.49999C16.6397 3.49999 16.6654 3.49999 16.691 3.49999C16.7167 3.49999 16.7424 3.49999 16.7681 3.49999C16.7938 3.49999 16.8196 3.49999 16.8454 3.49999C16.8711 3.49999 16.8969 3.49999 16.9228 3.49999C16.9486 3.49999 16.9745 3.49999 17.0004 3.49999C17.0263 3.49999 17.0522 3.49999 17.0782 3.49999C17.1042 3.49999 17.1302 3.49999 17.1562 3.49999C17.1822 3.49999 17.2082 3.49999 17.2343 3.49999C17.2604 3.49999 17.2865 3.49999 17.3127 3.49999C17.3388 3.49999 17.365 3.49999 17.3912 3.49999C17.4174 3.49999 17.4436 3.49999 17.4698 3.49999C17.4961 3.49999 17.5224 3.49999 17.5487 3.49999C17.575 3.49999 17.6014 3.49999 17.6277 3.49999C17.6541 3.49999 17.6805 3.49999 17.7069 3.49999C17.7334 3.49999 17.7598 3.49999 17.7863 3.49999C17.8128 3.49999 17.8393 3.49999 17.8658 3.49999C17.8924 3.49999 17.9189 3.49999 17.9455 3.49999C17.9721 3.49999 17.9988 3.49999 18.0254 3.49999C18.0521 3.49999 18.0787 3.49999 18.1055 3.49999C18.1322 3.49999 18.1589 3.49999 18.1857 3.49999C18.2124 3.49999 18.2392 3.49999 18.266 3.49999C18.2928 3.49999 18.3197 3.49999 18.3466 3.49999C18.3734 3.49999 18.4003 3.49999 18.4273 3.49999C18.4542 3.49999 18.4811 3.49999 18.5081 3.49999C18.5351 3.49999 18.5621 3.49999 18.5891 3.49999C18.6162 3.49999 18.6432 3.49999 18.6703 3.49999C18.6974 3.49999 18.7245 3.49999 18.7516 3.49999C18.7788 3.49999 18.8059 3.49999 18.8331 3.49999C18.8603 3.49999 18.8875 3.49999 18.9148 3.49999C18.942 3.49999 18.9693 3.49999 18.9966 3.49999C19.0239 3.49999 19.0512 3.49999 19.0785 3.49999C19.1059 3.49999 19.1332 3.49999 19.1606 3.49999C19.188 3.49999 19.2154 3.49999 19.2429 3.49999C19.2703 3.49999 19.2978 3.49999 19.3253 3.49999C19.3528 3.49999 19.3803 3.49999 19.4078 3.49999C19.4354 3.49999 19.4629 3.49999 19.4905 3.49999C19.5181 3.49999 19.5457 3.49999 19.5734 3.49999C19.601 3.49999 19.6287 3.49999 19.6564 3.49999C19.6841 3.49999 19.7118 3.49999 19.7395 3.49999C19.7673 3.49999 19.795 3.49999 19.8228 3.49999C19.8506 3.49999 19.8784 3.49999 19.9062 3.49999C19.9341 3.49999 19.9619 3.49999 19.9898 3.49999C20.0177 3.49999 20.0456 3.49999 20.0735 3.49999C20.1014 3.49999 20.1294 3.49999 20.1574 3.49999C20.1853 3.49999 20.2133 3.49999 20.2413 3.49999C20.2694 3.49999 20.2974 3.49999 20.3255 3.49999C20.3535 3.49999 20.3816 3.49999 20.4097 3.49999C20.4378 3.49999 20.466 3.49999 20.4941 3.49999C20.5223 3.49999 20.5504 3.49999 20.5786 3.49999C20.6068 3.49999 20.6351 3.49999 20.6633 3.49999C20.6915 3.49999 20.7198 3.49999 20.7481 3.49999C20.7764 3.49999 20.8047 3.49999 20.833 3.49999C20.8613 3.49999 20.8897 3.49999 20.9181 3.49999C20.9464 3.49999 20.9748 3.49999 21.0033 3.49999C21.0317 3.49999 21.0601 3.49999 21.0886 3.49999C21.117 3.49999 21.1455 3.49999 21.174 3.49999C21.2025 3.49999 21.231 3.49999 21.2596 3.49999C21.2881 3.49999 21.3167 3.49999 21.3452 3.49999C21.3738 3.49999 21.4024 3.49999 21.4311 3.49999C21.4597 3.49999 21.4883 3.49999 21.517 3.49999C21.5456 3.49999 21.5743 3.49999 21.603 3.49999C21.6317 3.49999 21.6605 3.49999 21.6892 3.49999C21.718 3.49999 21.7467 3.49999 21.7755 3.49999C21.8043 3.49999 21.8331 3.49999 21.8619 3.49999C21.8907 3.49999 21.9196 3.49999 21.9484 3.49999C21.9773 3.49999 22.0062 3.49999 22.0351 3.49999C22.064 3.49999 22.0929 3.49999 22.1218 3.49999C22.1508 3.49999 22.1797 3.49999 22.2087 3.49999C22.2377 3.49999 22.2667 3.49999 22.2957 3.49999C22.3247 3.49999 22.3537 3.49999 22.3828 3.49999C22.4118 3.49999 22.4409 3.49999 22.47 3.49999C22.4991 3.49999 22.5282 3.49999 22.5573 3.49999C22.5864 3.49999 22.6156 3.49999 22.6447 3.49999C22.6739 3.49999 22.7031 3.49999 22.7323 3.49999C22.7614 3.49999 22.7907 3.49999 22.8199 3.49999C22.8491 3.49999 22.8784 3.49999 22.9076 3.49999C22.9369 3.49999 22.9662 3.49999 22.9955 3.49999C23.0248 3.49999 23.0541 3.49999 23.0834 3.49999C23.1128 3.49999 23.1421 3.49999 23.1715 3.49999C23.2008 3.49999 23.2302 3.49999 23.2596 3.49999C23.289 3.49999 23.3184 3.49999 23.3479 3.49999C23.3773 3.49999 23.4067 3.49999 23.4362 3.49999C23.4657 3.49999 23.4952 3.49999 23.5247 3.49999C23.5542 3.49999 23.5837 3.49999 23.6132 3.49999C23.6427 3.49999 23.6723 3.49999 23.7018 3.49999C23.7314 3.49999 23.761 3.49999 23.7906 3.49999C23.8202 3.49999 23.8498 3.49999 23.8794 3.49999C23.909 3.49999 23.9387 3.49999 23.9683 3.49999C23.998 3.49999 24.0276 3.49999 24.0573 3.49999C24.087 3.49999 24.1167 3.49999 24.1464 3.49999C24.1761 3.49999 24.2059 3.49999 24.2356 3.49999C24.2653 3.49999 24.2951 3.49999 24.3249 3.49999C24.3547 3.49999 24.3844 3.49999 24.4142 3.49999C24.444 3.49999 24.4739 3.49999 24.5037 3.49999C24.5335 3.49999 24.5634 3.49999 24.5932 3.49999C24.6231 3.49999 24.653 3.49999 24.6828 3.49999C24.7127 3.49999 24.7426 3.49999 24.7725 3.49999C24.8024 3.49999 24.8324 3.49999 24.8623 3.49999C24.8923 3.49999 24.9222 3.49999 24.9522 3.49999C24.9821 3.49999 25.0121 3.49999 25.0421 3.49999C25.0721 3.49999 25.1021 3.49999 25.1321 3.49999C25.1621 3.49999 25.1922 3.49999 25.2222 3.49999C25.2523 3.49999 25.2823 3.49999 25.3124 3.49999C25.3425 3.49999 25.3725 3.49999 25.4026 3.49999C25.4327 3.49999 25.4628 3.49999 25.493 3.49999C25.5231 3.49999 25.5532 3.49999 25.5833 3.49999C25.6135 3.49999 25.6436 3.49999 25.6738 3.49999C25.704 3.49999 25.7342 3.49999 25.7643 3.49999C25.7945 3.49999 25.8247 3.49999 25.8549 3.49999C25.8852 3.49999 25.9154 3.49999 25.9456 3.49999C25.9759 3.49999 26.0061 3.49999 26.0364 3.49999C26.0666 3.49999 26.0969 3.49999 26.1272 3.49999C26.1574 3.49999 26.1877 3.49999 26.218 3.49999C26.2483 3.49999 26.2787 3.49999 26.309 3.49999C26.3393 3.49999 26.3696 3.49999 26.4 3.49999C26.4303 3.49999 26.4607 3.49999 26.491 3.49999C26.5214 3.49999 26.5518 3.49999 26.5822 3.49999C26.6125 3.49999 26.6429 3.49999 26.6733 3.49999C26.7037 3.49999 26.7342 3.49999 26.7646 3.49999C26.795 3.49999 26.8254 3.49999 26.8559 3.49999C26.8863 3.49999 26.9168 3.49999 26.9472 3.49999C26.9777 3.49999 27.0082 3.49999 27.0386 3.49999C27.0691 3.49999 27.0996 3.49999 27.1301 3.49999C27.1606 3.49999 27.1911 3.49999 27.2216 3.49999C27.2521 3.49999 27.2827 3.49999 27.3132 3.49999C27.3437 3.49999 27.3743 3.49999 27.4048 3.49999C27.4354 3.49999 27.4659 3.49999 27.4965 3.49999C27.5271 3.49999 27.5576 3.49999 27.5882 3.49999C27.6188 3.49999 27.6494 3.49999 27.68 3.49999C27.7106 3.49999 27.7412 3.49999 27.7718 3.49999C27.8024 3.49999 27.833 3.49999 27.8637 3.49999C27.8943 3.49999 27.9249 3.49999 27.9556 3.49999C27.9862 3.49999 28.0169 3.49999 28.0475 3.49999C28.0782 3.49999 28.1088 3.49999 28.1395 3.49999C28.1702 3.49999 28.2009 3.49999 28.2315 3.49999C28.2622 3.49999 28.2929 3.49999 28.3236 3.49999C28.3543 3.49999 28.385 3.49999 28.4157 3.49999C28.4465 3.49999 28.4772 3.49999 28.5079 3.49999C28.5386 3.49999 28.5693 3.49999 28.6001 3.49999C28.6308 3.49999 28.6616 3.49999 28.6923 3.49999C28.7231 3.49999 28.7538 3.49999 28.7846 3.49999C28.8153 3.49999 28.8461 3.49999 28.8769 3.49999C28.9076 3.49999 28.9384 3.49999 28.9692 3.49999C29 3.49999 29.0308 3.49999 29.0616 3.49999C29.0924 3.49999 29.1232 3.49999 29.154 3.49999C29.1848 3.49999 29.2156 3.49999 29.2464 3.49999C29.2772 3.49999 29.308 3.49999 29.3388 3.49999C29.3697 3.49999 29.4005 3.49999 29.4313 3.49999C29.4621 3.49999 29.493 3.49999 29.5238 3.49999C29.5547 3.49999 29.5855 3.49999 29.6164 3.49999C29.6472 3.49999 29.6781 3.49999 29.7089 3.49999C29.7398 3.49999 29.7706 3.49999 29.8015 3.49999C29.8324 3.49999 29.8632 3.49999 29.8941 3.49999C29.925 3.49999 29.9558 3.49999 29.9867 3.49999C30.0176 3.49999 30.0485 3.49999 30.0794 3.49999C30.1102 3.49999 30.1411 3.5 30.172 3.5C30.2029 3.5 30.2338 3.5 30.2647 3.5C30.2956 3.5 30.3265 3.5 30.3574 3.5C30.3883 3.5 30.4192 3.5 30.4501 3.5C30.481 3.5 30.5119 3.5 30.5428 3.5C30.5738 3.5 30.6047 3.5 30.6356 3.5C30.6665 3.5 30.6974 3.5 30.7283 3.5C30.7593 3.5 30.7902 3.5 30.8211 3.5C30.852 3.5 30.883 3.5 30.9139 3.5C30.9448 3.5 30.9757 3.5 31.0067 3.5C31.0376 3.5 31.0685 3.5 31.0995 3.5C31.1304 3.5 31.1613 3.5 31.1923 3.5C31.2232 3.5 31.2541 3.5 31.2851 3.5C31.316 3.5 31.347 3.5 31.3779 3.5C31.4088 3.5 31.4398 3.5 31.4707 3.5C31.5017 3.5 31.5326 3.5 31.5635 3.5C31.5945 3.5 31.6254 3.5 31.6564 3.5C31.6873 3.5 31.7182 3.5 31.7492 3.5C31.7801 3.5 31.8111 3.5 31.842 3.5C31.8729 3.5 31.9039 3.5 31.9348 3.5C31.9658 3.5 31.9967 3.5 32.0276 3.5C32.0586 3.5 32.0895 3.5 32.1205 3.5C32.1514 3.5 32.1823 3.5 32.2133 3.5C32.2442 3.5 32.2751 3.5 32.3061 3.5C32.337 3.5 32.3679 3.5 32.3989 3.5C32.4298 3.5 32.4607 3.5 32.4917 3.5C32.5226 3.5 32.5535 3.5 32.5845 3.5C32.6154 3.5 32.6463 3.5 32.6772 3.5C32.7081 3.5 32.7391 3.5 32.77 3.5C32.8009 3.5 32.8318 3.5 32.8627 3.5C32.8937 3.5 32.9246 3.5 32.9555 3.5C32.9864 3.5 33.0173 3.5 33.0482 3.5C33.0791 3.5 33.11 3.5 33.1409 3.5C33.1718 3.5 33.2027 3.5 33.2336 3.5C33.2645 3.5 33.2954 3.5 33.3263 3.5C33.3572 3.5 33.388 3.5 33.4189 3.5C33.4498 3.5 33.4807 3.5 33.5116 3.5C33.5424 3.5 33.5733 3.5 33.6042 3.5C33.635 3.5 33.6659 3.5 33.6968 3.5C33.7276 3.5 33.7585 3.5 33.7893 3.5C33.8202 3.5 33.851 3.5 33.8819 3.5C33.9127 3.5 33.9436 3.5 33.9744 3.5C34.0052 3.5 34.0361 3.5 34.0669 3.5C34.0977 3.5 34.1286 3.5 34.1594 3.5C34.1902 3.5 34.221 3.5 34.2518 3.5C34.2826 3.5 34.3134 3.5 34.3442 3.5C34.375 3.5 34.4058 3.5 34.4366 3.5C34.4674 3.5 34.4982 3.5 34.529 3.5C34.5597 3.5 34.5905 3.5 34.6213 3.5C34.652 3.5 34.6828 3.5 34.7136 3.5C34.7443 3.5 34.7751 3.5 34.8058 3.5C34.8366 3.5 34.8673 3.5 34.898 3.5C34.9288 3.5 34.9595 3.5 34.9902 3.5C35.0209 3.5 35.0516 3.5 35.0823 3.5C35.113 3.5 35.1437 3.5 35.1744 3.5C35.2051 3.5 35.2358 3.5 35.2665 3.5C35.2972 3.5 35.3279 3.5 35.3585 3.5C35.3892 3.5 35.4198 3.5 35.4505 3.5C35.4812 3.5 35.5118 3.5 35.5424 3.5C35.5731 3.5 35.6037 3.5 35.6343 3.5C35.6649 3.5 35.6956 3.5 35.7262 3.5C35.7568 3.5 35.7874 3.5 35.818 3.5C35.8486 3.5 35.8791 3.5 35.9097 3.5C35.9403 3.5 35.9709 3.5 36.0014 3.5C36.032 3.5 36.0625 3.5 36.0931 3.5C36.1236 3.5 36.1541 3.5 36.1847 3.5C36.2152 3.5 36.2457 3.5 36.2762 3.5C36.3067 3.5 36.3372 3.5 36.3677 3.5C36.3982 3.5 36.4287 3.5 36.4592 3.5C36.4896 3.5 36.5201 3.5 36.5506 3.5C36.581 3.5 36.6115 3.5 36.6419 3.5C36.6723 3.5 36.7027 3.5 36.7332 3.5C36.7636 3.5 36.794 3.5 36.8244 3.5C36.8548 3.5 36.8852 3.5 36.9155 3.5C36.9459 3.5 36.9763 3.5 37.0066 3.5C37.037 3.5 37.0673 3.5 37.0977 3.5C37.128 3.5 37.1583 3.5 37.1886 3.5C37.219 3.5 37.2493 3.5 37.2796 3.5C37.3099 3.5 37.3401 3.5 37.3704 3.5C37.4007 3.5 37.4309 3.5 37.4612 3.5C37.4914 3.5 37.5217 3.5 37.5519 3.5C37.5821 3.5 37.6123 3.5 37.6425 3.5C37.6727 3.5 37.7029 3.5 37.7331 3.5C37.7633 3.5 37.7935 3.5 37.8236 3.5C37.8538 3.5 37.8839 3.5 37.9141 3.5C37.9442 3.5 37.9743 3.5 38.0044 3.5C38.0345 3.5 38.0646 3.5 38.0947 3.5C38.1248 3.5 38.1549 3.5 38.1849 3.5C38.215 3.5 38.245 3.5 38.2751 3.5C38.3051 3.5 38.3351 3.5 38.3651 3.5C38.3951 3.5 38.4251 3.5 38.4551 3.5C38.4851 3.5 38.5151 3.5 38.545 3.5C38.575 3.5 38.6049 3.5 38.6349 3.5C38.6648 3.5 38.6947 3.5 38.7246 3.5C38.7545 3.5 38.7844 3.5 38.8143 3.5C38.8441 3.5 38.874 3.5 38.9039 3.5C38.9337 3.5 38.9635 3.5 38.9933 3.5C39.0232 3.5 39.053 3.5 39.0828 3.5C39.1126 3.5 39.1423 3.5 39.1721 3.5C39.2019 3.5 39.2316 3.5 39.2613 3.5C39.2911 3.5 39.3208 3.5 39.3505 3.5C39.3802 3.5 39.4099 3.5 39.4395 3.5C39.4692 3.5 39.4989 3.5 39.5285 3.5C39.5582 3.5 39.5878 3.5 39.6174 3.5C39.647 3.5 39.6766 3.5 39.7062 3.5C39.7358 3.5 39.7653 3.5 39.7949 3.5C39.8244 3.5 39.854 3.5 39.8835 3.5C39.913 3.5 39.9425 3.5 39.972 3.5C40.0015 3.5 40.0309 3.5 40.0604 3.5C40.0898 3.5 40.1193 3.5 40.1487 3.5C40.1781 3.5 40.2075 3.5 40.2369 3.5C40.2663 3.5 40.2957 3.5 40.325 3.5C40.3544 3.5 40.3837 3.5 40.413 3.5C40.4423 3.5 40.4717 3.5 40.5009 3.5L40.5009 2.5Z" fill="#606580"/>
<circle cx="3" cy="3" r="2.5" stroke="#606580"/>
</svg>
