<svg width="169" height="52" viewBox="0 0 169 52" fill="none" xmlns="http://www.w3.org/2000/svg">
<path d="M112.807 12.9058C113.598 12.2758 114.418 11.6218 115.299 10.9167C132.246 16.2128 143.897 28.9229 143.897 28.9229H149.193C149.193 28.9229 162.932 41.6058 166.619 51.1948L168.772 50.1868C152.347 20.4938 120.712 0.384766 84.3769 0.384766C48.2019 0.384766 16.6879 20.3168 0.201904 49.7938C0.201904 49.7938 3.4689 51.3558 3.5109 51.3558C7.1799 41.7638 20.9929 28.9229 20.9929 28.9229H26.2889C26.2889 28.9229 37.9399 16.2128 54.8869 10.9167C55.6399 11.5198 56.3489 12.0848 57.0359 12.6328C65.6899 9.80786 74.9209 8.26086 84.5179 8.26086C94.4149 8.26086 103.921 9.90881 112.807 12.9058Z" fill="#272A38"/>
</svg>
