<svg width="169" height="52" viewBox="0 0 169 52" fill="none" xmlns="http://www.w3.org/2000/svg">
  <path fill-rule="evenodd" clip-rule="evenodd" d="M7.21558 40.8579C15.8211 29.6719 26.9826 20.5542 39.8263 14.3787L41.8283 16.1805C53.1158 10.896 65.7131 7.94364 79 7.94364C92.2869 7.94364 104.884 10.896 116.172 16.1805L118.174 14.3787C131.017 20.5542 142.179 29.6719 150.784 40.8579H157.593C148.606 28.0727 136.579 17.5796 122.562 10.4295C121.34 9.80648 120.104 9.20882 118.853 8.63723C106.714 3.09083 93.2179 0 79 0C64.7821 0 51.2861 3.09083 39.1473 8.63723C37.8963 9.20882 36.6598 9.80648 35.4383 10.4295C21.421 17.5796 9.39355 28.0727 0.406708 40.8579H7.21558Z" fill="#606580" fill-opacity="0.25"/>
</svg>
