<svg width="192" height="192" viewBox="0 0 192 192" fill="none" xmlns="http://www.w3.org/2000/svg">
<path d="M96 192C149.019 192 192 149.019 192 96C192 42.9807 149.019 0 96 0C42.9807 0 0 42.9807 0 96C0 149.019 42.9807 192 96 192Z" fill="#12151E" fill-opacity="0.5"/>
<path d="M191.5 96C191.5 148.743 148.743 191.5 96 191.5C43.2568 191.5 0.5 148.743 0.5 96C0.5 43.2568 43.2568 0.5 96 0.5C148.743 0.5 191.5 43.2568 191.5 96Z" stroke="#606580" stroke-opacity="0.25" stroke-miterlimit="10"/>
<path fill-rule="evenodd" clip-rule="evenodd" d="M24.2156 40.8579C32.8211 29.6719 43.9827 20.5542 56.8263 14.3787L58.8283 16.1805C70.1158 10.896 82.7132 7.94364 96.0001 7.94364C109.287 7.94364 121.884 10.896 133.172 16.1805L135.174 14.3787C148.017 20.5542 159.179 29.6719 167.784 40.8579H174.593C165.607 28.0727 153.579 17.5796 139.562 10.4295C138.34 9.80648 137.104 9.20882 135.853 8.63723C123.714 3.09083 110.218 0 96.0001 0C81.7822 0 68.2862 3.09083 56.1473 8.63723C54.8964 9.20882 53.6598 9.80648 52.4384 10.4295C38.4211 17.5796 26.3936 28.0727 17.4067 40.8579H24.2156Z" fill="#606580" fill-opacity="0.25"/>
<path fill-rule="evenodd" clip-rule="evenodd" d="M167.784 151.142C159.179 162.328 148.017 171.446 135.174 177.621L133.172 175.82C121.884 181.104 109.287 184.056 95.9999 184.056C82.7131 184.056 70.1157 181.104 58.8282 175.82L56.8262 177.621C43.9826 171.446 32.821 162.328 24.2155 151.142L17.4067 151.142C26.3935 163.927 38.421 174.42 52.4383 181.57C53.6597 182.194 54.8963 182.791 56.1473 183.363C68.2861 188.909 81.7821 192 95.9999 192C110.218 192 123.714 188.909 135.853 183.363C137.104 182.791 138.34 182.194 139.562 181.57C153.579 174.42 165.606 163.927 174.593 151.142L167.784 151.142Z" fill="#606580" fill-opacity="0.25"/>
</svg>
