<svg width="1593" height="887" viewBox="0 0 1593 887" fill="none" xmlns="http://www.w3.org/2000/svg">
<g id="&#208;&#145;&#208;&#187;&#208;&#190;&#208;&#186; &#208;&#173;&#208;&#155;&#208;&#158;&#208;&#163; &#208;&#144;&#208;&#146;&#208;&#162;-10">
<rect width="1593" height="887" fill="#1C1F2B"/>
<g id="element-1_3">
<rect x="32" y="554" width="200" height="24" rx="2" fill="#272A38"/>
<text id="text" fill="#606580" xml:space="preserve" style="white-space: pre" font-family="Tahoma" font-size="13" letter-spacing="0em"><tspan x="36" y="571.161">&#x418;&#x437; &#x441;&#x438;&#x441;&#x442;&#x435;&#x43c;&#x44b;</tspan></text>
<g id="arrow-group">
<g id="arrow_double_right">
<g id="Group">
<g id="Group_2">
<path id="arrow" d="M208.825 560.75L214.075 566L208.825 571.25" stroke="#606580" stroke-miterlimit="10" stroke-linecap="round" stroke-linejoin="round"/>
</g>
<g id="Group_3">
<path id="arrow_2" d="M213.925 560.75L219.175 566L213.925 571.25" stroke="#606580" stroke-miterlimit="10" stroke-linecap="round" stroke-linejoin="round"/>
</g>
</g>
</g>
</g>
<rect x="32" y="554" width="200" height="24" rx="2" stroke="#606580"/>
</g>
<g id="Group 22749">
<g id="element-1_8">
<rect x="561" y="299" width="32" height="194" rx="2" fill="#272A38"/>
<circle id="circle" cx="577" cy="315" r="11.5" fill="#1C1F2B" stroke="#606580"/>
<g id="icon">
<path id="Vector" d="M574.675 315H579.175" stroke="#606580" stroke-miterlimit="10" stroke-linecap="round" stroke-linejoin="round"/>
<g id="Group_4">
<path id="Vector_2" d="M576.925 315V311.25H579.175" stroke="#606580" stroke-miterlimit="10" stroke-linecap="round" stroke-linejoin="round"/>
<path id="Vector_3" d="M580.562 312.525C581.225 312.525 581.762 311.988 581.762 311.325C581.762 310.662 581.225 310.125 580.562 310.125C579.9 310.125 579.362 310.662 579.362 311.325C579.362 311.988 579.9 312.525 580.562 312.525Z" stroke="#606580" stroke-miterlimit="10" stroke-linecap="round" stroke-linejoin="round"/>
</g>
<path id="Vector_4" d="M576.925 315V318.75H579.175" stroke="#606580" stroke-miterlimit="10" stroke-linecap="round" stroke-linejoin="round"/>
<path id="Vector_5" d="M580.562 319.875C581.225 319.875 581.762 319.337 581.762 318.675C581.762 318.012 581.225 317.475 580.562 317.475C579.9 317.475 579.362 318.012 579.362 318.675C579.362 319.337 579.9 319.875 580.562 319.875Z" stroke="#606580" stroke-miterlimit="10" stroke-linecap="round" stroke-linejoin="round"/>
<path id="Vector_6" d="M580.562 316.201C581.225 316.201 581.762 315.664 581.762 315.001C581.762 314.338 581.225 313.801 580.562 313.801C579.9 313.801 579.362 314.338 579.362 315.001C579.362 315.664 579.9 316.201 580.562 316.201Z" stroke="#606580" stroke-miterlimit="10" stroke-linecap="round" stroke-linejoin="round"/>
<path id="Vector_7" d="M573.437 316.201C574.1 316.201 574.637 315.664 574.637 315.001C574.637 314.338 574.1 313.801 573.437 313.801C572.775 313.801 572.237 314.338 572.237 315.001C572.237 315.664 572.775 316.201 573.437 316.201Z" stroke="#606580" stroke-miterlimit="10" stroke-linecap="round" stroke-linejoin="round"/>
</g>
<text id="text_2" transform="translate(569 489) rotate(-90)" fill="#D7E2F2" xml:space="preserve" style="white-space: pre" font-family="Tahoma" font-size="13" letter-spacing="0em"><tspan x="52.4668" y="13.1606">PL3903.1</tspan></text>
<rect x="561" y="299" width="32" height="194" rx="2" stroke="#606580"/>
</g>
</g>
<g id="line_29">
<g id=".template arrow">
<path id="line_29_2" d="M594 395L953 395" stroke="#606580" stroke-linecap="round"/>
<g id=".on&#38;off">
<g id=".template on&#38;off">
<circle id="border" cx="594" cy="395" r="6.5" fill="#1C1F2B" stroke="#606580"/>
<circle id="ellipse" cx="594" cy="395" r="4" fill="white"/>
</g>
</g>
<g id=".start&#38;end">
<path id="Rectangle 7354" d="M950 392L956 395L950 398V395V392Z" fill="#606580"/>
</g>
</g>
</g>
<g id="element-1_1__ABT-10-ELOU">
<g id="element-1_1">
<rect x="34" y="346" width="200" height="36" rx="2" fill="#272A38"/>
<rect x="34" y="346" width="200" height="36" rx="2" stroke="#606580"/>
</g>
<g id="arrow-group_2">
<g id="arrow_double_right_2">
<g id="Group_5">
<g id="Group_6">
<path id="arrow_3" d="M210.825 358.75L216.075 364L210.825 369.25" stroke="#606580" stroke-miterlimit="10" stroke-linecap="round" stroke-linejoin="round"/>
</g>
<g id="Group_7">
<path id="arrow_4" d="M215.925 358.75L221.175 364L215.925 369.25" stroke="#606580" stroke-miterlimit="10" stroke-linecap="round" stroke-linejoin="round"/>
</g>
</g>
</g>
</g>
<text id="text_3" fill="#D7E2F2" xml:space="preserve" style="white-space: pre" font-family="Tahoma" font-size="13" letter-spacing="0em"><tspan x="69" y="362.161">&#x418;&#x437; &#x43a;&#x43e;&#x43b;&#x43b;&#x435;&#x43a;&#x442;&#x43e;&#x440;&#x430; &#x441;&#x44b;&#x440;&#x43e;&#x439;&#10;</tspan><tspan x="69" y="376.161">&#x43d;&#x435;&#x444;&#x442;&#x438; (&#x422;&#x421;&#x411;-2)</tspan></text>
<circle id="circle_2" cx="50" cy="364" r="11.5" fill="#1C1F2B" stroke="#606580"/>
<g id="icon_2">
<path id="Vector_8" d="M47.6748 364H52.1748" stroke="#606580" stroke-miterlimit="10" stroke-linecap="round" stroke-linejoin="round"/>
<g id="Group_8">
<path id="Vector_9" d="M49.9248 364V360.25H52.1748" stroke="#606580" stroke-miterlimit="10" stroke-linecap="round" stroke-linejoin="round"/>
<path id="Vector_10" d="M53.5623 361.525C54.225 361.525 54.7623 360.988 54.7623 360.325C54.7623 359.662 54.225 359.125 53.5623 359.125C52.8996 359.125 52.3623 359.662 52.3623 360.325C52.3623 360.988 52.8996 361.525 53.5623 361.525Z" stroke="#606580" stroke-miterlimit="10" stroke-linecap="round" stroke-linejoin="round"/>
</g>
<path id="Vector_11" d="M49.9248 364V367.75H52.1748" stroke="#606580" stroke-miterlimit="10" stroke-linecap="round" stroke-linejoin="round"/>
<path id="Vector_12" d="M53.5623 368.875C54.225 368.875 54.7623 368.337 54.7623 367.675C54.7623 367.012 54.225 366.475 53.5623 366.475C52.8996 366.475 52.3623 367.012 52.3623 367.675C52.3623 368.337 52.8996 368.875 53.5623 368.875Z" stroke="#606580" stroke-miterlimit="10" stroke-linecap="round" stroke-linejoin="round"/>
<path id="Vector_13" d="M53.5623 365.201C54.225 365.201 54.7623 364.664 54.7623 364.001C54.7623 363.338 54.225 362.801 53.5623 362.801C52.8996 362.801 52.3623 363.338 52.3623 364.001C52.3623 364.664 52.8996 365.201 53.5623 365.201Z" stroke="#606580" stroke-miterlimit="10" stroke-linecap="round" stroke-linejoin="round"/>
<path id="Vector_14" d="M46.4373 365.201C47.1 365.201 47.6373 364.664 47.6373 364.001C47.6373 363.338 47.1 362.801 46.4373 362.801C45.7746 362.801 45.2373 363.338 45.2373 364.001C45.2373 364.664 45.7746 365.201 46.4373 365.201Z" stroke="#606580" stroke-miterlimit="10" stroke-linecap="round" stroke-linejoin="round"/>
</g>
</g>
<g id="element-1_2">
<g id="element-1_1_2">
<rect x="32" y="431" width="200" height="36" rx="2" fill="#272A38"/>
<rect x="32" y="431" width="200" height="36" rx="2" stroke="#606580"/>
</g>
<g id="arrow-group_3">
<g id="arrow_double_right_3">
<g id="Group_9">
<g id="Group_10">
<path id="arrow_5" d="M208.825 443.75L214.075 449L208.825 454.25" stroke="#606580" stroke-miterlimit="10" stroke-linecap="round" stroke-linejoin="round"/>
</g>
<g id="Group_11">
<path id="arrow_6" d="M213.925 443.75L219.175 449L213.925 454.25" stroke="#606580" stroke-miterlimit="10" stroke-linecap="round" stroke-linejoin="round"/>
</g>
</g>
</g>
</g>
<text id="text_4" fill="#D7E2F2" xml:space="preserve" style="white-space: pre" font-family="Tahoma" font-size="13" letter-spacing="0em"><tspan x="67" y="447.161">&#x418;&#x437; &#x43a;&#x43e;&#x43b;&#x43b;&#x435;&#x43a;&#x442;&#x43e;&#x440;&#x430; &#x441;&#x44b;&#x440;&#x43e;&#x439;&#10;</tspan><tspan x="67" y="461.161">&#x43d;&#x435;&#x444;&#x442;&#x438; (&#x422;&#x421;&#x411;-2)</tspan></text>
<circle id="circle_3" cx="48" cy="449" r="11.5" fill="#1C1F2B" stroke="#606580"/>
<g id="icon_3">
<path id="Vector_15" d="M45.6748 449H50.1748" stroke="#606580" stroke-miterlimit="10" stroke-linecap="round" stroke-linejoin="round"/>
<g id="Group_12">
<path id="Vector_16" d="M47.9248 449V445.25H50.1748" stroke="#606580" stroke-miterlimit="10" stroke-linecap="round" stroke-linejoin="round"/>
<path id="Vector_17" d="M51.5623 446.525C52.225 446.525 52.7623 445.988 52.7623 445.325C52.7623 444.662 52.225 444.125 51.5623 444.125C50.8996 444.125 50.3623 444.662 50.3623 445.325C50.3623 445.988 50.8996 446.525 51.5623 446.525Z" stroke="#606580" stroke-miterlimit="10" stroke-linecap="round" stroke-linejoin="round"/>
</g>
<path id="Vector_18" d="M47.9248 449V452.75H50.1748" stroke="#606580" stroke-miterlimit="10" stroke-linecap="round" stroke-linejoin="round"/>
<path id="Vector_19" d="M51.5623 453.875C52.225 453.875 52.7623 453.337 52.7623 452.675C52.7623 452.012 52.225 451.475 51.5623 451.475C50.8996 451.475 50.3623 452.012 50.3623 452.675C50.3623 453.337 50.8996 453.875 51.5623 453.875Z" stroke="#606580" stroke-miterlimit="10" stroke-linecap="round" stroke-linejoin="round"/>
<path id="Vector_20" d="M51.5623 450.201C52.225 450.201 52.7623 449.664 52.7623 449.001C52.7623 448.338 52.225 447.801 51.5623 447.801C50.8996 447.801 50.3623 448.338 50.3623 449.001C50.3623 449.664 50.8996 450.201 51.5623 450.201Z" stroke="#606580" stroke-miterlimit="10" stroke-linecap="round" stroke-linejoin="round"/>
<path id="Vector_21" d="M44.4373 450.201C45.1 450.201 45.6373 449.664 45.6373 449.001C45.6373 448.338 45.1 447.801 44.4373 447.801C43.7746 447.801 43.2373 448.338 43.2373 449.001C43.2373 449.664 43.7746 450.201 44.4373 450.201Z" stroke="#606580" stroke-miterlimit="10" stroke-linecap="round" stroke-linejoin="round"/>
</g>
</g>
<g id="line_26">
<g id=".template arrow_2">
<path id="line_dotted" d="M232 364L557 364" stroke="#606580" stroke-linecap="round" stroke-dasharray="2 4"/>
<g id=".on&#38;off_2">
<g id=".template on&#38;off_2">
<circle id="border_2" cx="232" cy="364" r="6.5" fill="#1C1F2B" stroke="#606580"/>
<circle id="ellipse_2" cx="232" cy="364" r="4" fill="white"/>
</g>
</g>
<g id=".start&#38;end_2">
<path id="Rectangle 7354_2" d="M554 361L560 364L554 367V364V361Z" fill="#606580"/>
</g>
</g>
</g>
<g id="line_27">
<g id=".template arrow_3">
<path id="line_27_2" d="M232 450L557 450" stroke="#606580" stroke-linecap="round" stroke-dasharray="2 4"/>
<g id=".on&#38;off_3">
<g id=".template on&#38;off_3">
<circle id="border_3" cx="232" cy="450" r="6.5" fill="#1C1F2B" stroke="#606580"/>
<circle id="ellipse_3" cx="232" cy="450" r="4" fill="white"/>
</g>
</g>
<g id=".start&#38;end_3">
<path id="Rectangle 7354_3" d="M554 447L560 450L554 453V450V447Z" fill="#606580"/>
</g>
</g>
</g>
<g id="element-1_13">
<rect id="rect" x="958" y="183" width="60" height="522" rx="30" fill="#272A38" stroke="#606580"/>
<path id="rect_2" d="M1018 218H958" stroke="#606580"/>
<path id="rect_3" d="M1018 675H958" stroke="#606580"/>
<text id="text_5" transform="translate(972 477) rotate(-90)" fill="#D7E2F2" xml:space="preserve" style="white-space: pre" font-family="Tahoma" font-size="13" letter-spacing="0em"><tspan x="0.112793" y="13.1606">&#x411;&#x43b;&#x43e;&#x43a; &#x42d;&#x41b;&#x41e;&#x423;&#10;</tspan><tspan x="9.9834" y="29.1606"> &#x410;&#x412;&#x422;-10</tspan></text>
</g>
<g id="line_30">
<g id=".template arrow_4">
<path id="line_30_2" d="M1018 331L1356 331" stroke="#606580" stroke-linecap="round"/>
<g id=".on&#38;off_4">
<g id=".template on&#38;off_4">
<circle id="border_4" cx="1018" cy="331" r="6.5" fill="#1C1F2B" stroke="#606580"/>
<circle id="ellipse_4" cx="1018" cy="331" r="4" fill="white"/>
</g>
</g>
<g id=".start&#38;end_4">
<path id="Rectangle 7354_4" d="M1353 328L1359 331L1353 334V331V328Z" fill="#606580"/>
</g>
</g>
</g>
<g id="line_31">
<g id=".template arrow_5">
<path id="line_31_2" d="M1018 407L1356 407" stroke="#606580" stroke-linecap="round"/>
<g id=".on&#38;off_5">
<g id=".template on&#38;off_5">
<circle id="border_5" cx="1018" cy="407" r="6.5" fill="#1C1F2B" stroke="#606580"/>
<circle id="ellipse_5" cx="1018" cy="407" r="4" fill="white"/>
</g>
</g>
<g id=".start&#38;end_5">
<path id="Rectangle 7354_5" d="M1353 404L1359 407L1353 410V407V404Z" fill="#606580"/>
</g>
</g>
</g>
<g id="line_32">
<g id=".template arrow_6">
<path id="line_32_2" d="M1018 483L1356 483" stroke="#606580" stroke-linecap="round"/>
<g id=".on&#38;off_6">
<g id=".template on&#38;off_6">
<circle id="border_6" cx="1018" cy="483" r="6.5" fill="#1C1F2B" stroke="#606580"/>
<circle id="ellipse_6" cx="1018" cy="483" r="4" fill="white"/>
</g>
</g>
<g id=".start&#38;end_6">
<path id="Rectangle 7354_6" d="M1353 480L1359 483L1353 486V483V480Z" fill="#606580"/>
</g>
</g>
</g>
<g id="line_33">
<g id=".template arrow_7">
<path id="line_dotted_2" d="M1018 559L1356 559" stroke="#606580" stroke-linecap="round" stroke-dasharray="2 4"/>
<g id=".on&#38;off_7">
<g id=".template on&#38;off_7">
<circle id="border_7" cx="1018" cy="559" r="6.5" fill="#1C1F2B" stroke="#606580"/>
<circle id="ellipse_7" cx="1018" cy="559" r="4" fill="white"/>
</g>
</g>
<g id=".start&#38;end_7">
<path id="Rectangle 7354_7" d="M1353 556L1359 559L1353 562V559V556Z" fill="#606580"/>
</g>
</g>
</g>
<g id="line_28">
<g id=".template arrow_8">
<path id="line_dotted_3" d="M232 566L953 566" stroke="#303549" stroke-linecap="round" stroke-dasharray="2 4"/>
<g id=".on&#38;off_8">
<g id=".template on&#38;off_8">
<circle id="border_8" cx="232" cy="566" r="6.5" fill="#1C1F2B" stroke="#303549"/>
</g>
</g>
<g id=".start&#38;end_8">
<path id="Rectangle 7354_8" d="M950 563L956 566L950 569V566V563Z" fill="#303549"/>
</g>
</g>
</g>
<g id="element-3_5">
<g id="rect_4">
<rect x="264.5" y="427.5" width="169" height="43" rx="1.5" fill="#1C1F2B"/>
<rect x="264.5" y="427.5" width="169" height="43" rx="1.5" stroke="#606580"/>
</g>
<text id="text_6" fill="#D7E2F2" xml:space="preserve" style="white-space: pre" font-family="Tahoma" font-size="13" letter-spacing="0em"><tspan x="272" y="444.161">&#x41d;&#x435;&#x444;&#x442;&#x44f;&#x43d;&#x43e;&#x435; &#x441;&#x44b;&#x440;&#x44c;&#x435;</tspan></text>
<text id="text_value" fill="#D7E2F2" xml:space="preserve" style="white-space: pre" font-family="Tahoma" font-size="13" letter-spacing="0em"><tspan x="272" y="464.161">12 000&#x442;</tspan></text>
<text id="text_percent" fill="#D7E2F2" xml:space="preserve" style="white-space: pre" font-family="Tahoma" font-size="13" letter-spacing="0em"><tspan x="326" y="464.161">12.85%</tspan></text>
</g>
<g id="element-11_6">
<circle id="circle_4" cx="464" cy="364" r="11.5" fill="#1C1F2B" stroke="#606580"/>
<g id="icon_4">
<g id="Group_13">
<g id="Group_14">
<path id="Vector_22" d="M464 369.25C461.113 369.25 458.75 366.887 458.75 364C458.75 361.113 461.113 358.75 464 358.75C466.887 358.75 469.25 361.113 469.25 364C469.25 366.887 466.887 369.25 464 369.25Z" stroke="#606580" stroke-miterlimit="10" stroke-linecap="round" stroke-linejoin="round"/>
</g>
</g>
<g id="Group_15">
<g id="Group_16">
<path id="Vector_23" d="M464 364.9C463.512 364.9 463.1 364.487 463.1 364C463.1 363.512 463.512 363.1 464 363.1C464.487 363.1 464.9 363.512 464.9 364C464.9 364.487 464.487 364.9 464 364.9Z" stroke="#606580" stroke-miterlimit="10" stroke-linecap="round" stroke-linejoin="round"/>
</g>
</g>
<g id="Group_17">
<path id="Vector_24" d="M464 367.938V369.25" stroke="#606580" stroke-miterlimit="10" stroke-linecap="round" stroke-linejoin="round"/>
<path id="Vector_25" d="M464 358.975V360.212" stroke="#606580" stroke-miterlimit="10" stroke-linecap="round" stroke-linejoin="round"/>
</g>
<g id="Group_18">
<path id="Vector_26" d="M460.175 364.113H458.862" stroke="#606580" stroke-miterlimit="10" stroke-linecap="round" stroke-linejoin="round"/>
<path id="Vector_27" d="M469.137 364.113H467.899" stroke="#606580" stroke-miterlimit="10" stroke-linecap="round" stroke-linejoin="round"/>
</g>
<path id="Vector_28" d="M464.9 363.1L466.288 361.713" stroke="#606580" stroke-miterlimit="10" stroke-linecap="round" stroke-linejoin="round"/>
</g>
<text id="text_7" fill="#D7E2F2" xml:space="preserve" style="white-space: pre" font-family="Tahoma" font-size="13" letter-spacing="0em"><tspan x="480" y="359.161">Fl3903.1</tspan></text>
<text id="percent" fill="#606580" xml:space="preserve" style="white-space: pre" font-family="Tahoma" font-size="13" letter-spacing="0em"><tspan x="480" y="379.161">&#x2014;</tspan></text>
</g>
<g id="element-11_7">
<circle id="circle_5" cx="464" cy="450" r="11.5" fill="#1C1F2B" stroke="#606580"/>
<g id="icon_5">
<g id="Group_19">
<g id="Group_20">
<path id="Vector_29" d="M464 455.25C461.113 455.25 458.75 452.887 458.75 450C458.75 447.113 461.113 444.75 464 444.75C466.887 444.75 469.25 447.113 469.25 450C469.25 452.887 466.887 455.25 464 455.25Z" stroke="#606580" stroke-miterlimit="10" stroke-linecap="round" stroke-linejoin="round"/>
</g>
</g>
<g id="Group_21">
<g id="Group_22">
<path id="Vector_30" d="M464 450.9C463.512 450.9 463.1 450.487 463.1 450C463.1 449.512 463.512 449.1 464 449.1C464.487 449.1 464.9 449.512 464.9 450C464.9 450.487 464.487 450.9 464 450.9Z" stroke="#606580" stroke-miterlimit="10" stroke-linecap="round" stroke-linejoin="round"/>
</g>
</g>
<g id="Group_23">
<path id="Vector_31" d="M464 453.938V455.25" stroke="#606580" stroke-miterlimit="10" stroke-linecap="round" stroke-linejoin="round"/>
<path id="Vector_32" d="M464 444.975V446.212" stroke="#606580" stroke-miterlimit="10" stroke-linecap="round" stroke-linejoin="round"/>
</g>
<g id="Group_24">
<path id="Vector_33" d="M460.175 450.113H458.862" stroke="#606580" stroke-miterlimit="10" stroke-linecap="round" stroke-linejoin="round"/>
<path id="Vector_34" d="M469.137 450.113H467.899" stroke="#606580" stroke-miterlimit="10" stroke-linecap="round" stroke-linejoin="round"/>
</g>
<path id="Vector_35" d="M464.9 449.1L466.288 447.713" stroke="#606580" stroke-miterlimit="10" stroke-linecap="round" stroke-linejoin="round"/>
</g>
<text id="text_8" fill="#D7E2F2" xml:space="preserve" style="white-space: pre" font-family="Tahoma" font-size="13" letter-spacing="0em"><tspan x="480" y="445.161">Fl3912</tspan></text>
<text id="percent_2" fill="#606580" xml:space="preserve" style="white-space: pre" font-family="Tahoma" font-size="13" letter-spacing="0em"><tspan x="480" y="465.161">&#x2014;</tspan></text>
</g>
<g id="element-11_17">
<circle id="circle_6" cx="1046" cy="559" r="11.5" fill="#1C1F2B" stroke="#606580"/>
<g id="icon_6">
<g id="Group_25">
<g id="Group_26">
<path id="Vector_36" d="M1046 564.25C1043.11 564.25 1040.75 561.887 1040.75 559C1040.75 556.113 1043.11 553.75 1046 553.75C1048.89 553.75 1051.25 556.113 1051.25 559C1051.25 561.887 1048.89 564.25 1046 564.25Z" stroke="#606580" stroke-miterlimit="10" stroke-linecap="round" stroke-linejoin="round"/>
</g>
</g>
<g id="Group_27">
<g id="Group_28">
<path id="Vector_37" d="M1046 559.9C1045.51 559.9 1045.1 559.487 1045.1 559C1045.1 558.512 1045.51 558.1 1046 558.1C1046.49 558.1 1046.9 558.512 1046.9 559C1046.9 559.487 1046.49 559.9 1046 559.9Z" stroke="#606580" stroke-miterlimit="10" stroke-linecap="round" stroke-linejoin="round"/>
</g>
</g>
<g id="Group_29">
<path id="Vector_38" d="M1046 562.938V564.25" stroke="#606580" stroke-miterlimit="10" stroke-linecap="round" stroke-linejoin="round"/>
<path id="Vector_39" d="M1046 553.975V555.212" stroke="#606580" stroke-miterlimit="10" stroke-linecap="round" stroke-linejoin="round"/>
</g>
<g id="Group_30">
<path id="Vector_40" d="M1042.17 559.113H1040.86" stroke="#606580" stroke-miterlimit="10" stroke-linecap="round" stroke-linejoin="round"/>
<path id="Vector_41" d="M1051.14 559.113H1049.9" stroke="#606580" stroke-miterlimit="10" stroke-linecap="round" stroke-linejoin="round"/>
</g>
<path id="Vector_42" d="M1046.9 558.1L1048.29 556.713" stroke="#606580" stroke-miterlimit="10" stroke-linecap="round" stroke-linejoin="round"/>
</g>
<text id="text_9" fill="#D7E2F2" xml:space="preserve" style="white-space: pre" font-family="Tahoma" font-size="13" letter-spacing="0em"><tspan x="1062" y="554.161">FinSys1</tspan></text>
<text id="percent_3" fill="#606580" xml:space="preserve" style="white-space: pre" font-family="Tahoma" font-size="13" letter-spacing="0em"><tspan x="1062" y="574.161">&#x2014;</tspan></text>
</g>
<g id="element-11_11">
<circle id="circle_7" cx="697" cy="566" r="11.5" fill="#1C1F2B" stroke="#606580"/>
<g id="icon_7">
<g id="Group_31">
<g id="Group_32">
<path id="Vector_43" d="M697 571.25C694.113 571.25 691.75 568.887 691.75 566C691.75 563.113 694.113 560.75 697 560.75C699.887 560.75 702.25 563.113 702.25 566C702.25 568.887 699.887 571.25 697 571.25Z" stroke="#606580" stroke-miterlimit="10" stroke-linecap="round" stroke-linejoin="round"/>
</g>
</g>
<g id="Group_33">
<g id="Group_34">
<path id="Vector_44" d="M697 566.9C696.512 566.9 696.1 566.487 696.1 566C696.1 565.512 696.512 565.1 697 565.1C697.487 565.1 697.9 565.512 697.9 566C697.9 566.487 697.487 566.9 697 566.9Z" stroke="#606580" stroke-miterlimit="10" stroke-linecap="round" stroke-linejoin="round"/>
</g>
</g>
<g id="Group_35">
<path id="Vector_45" d="M697 569.938V571.25" stroke="#606580" stroke-miterlimit="10" stroke-linecap="round" stroke-linejoin="round"/>
<path id="Vector_46" d="M697 560.975V562.212" stroke="#606580" stroke-miterlimit="10" stroke-linecap="round" stroke-linejoin="round"/>
</g>
<g id="Group_36">
<path id="Vector_47" d="M693.175 566.113H691.862" stroke="#606580" stroke-miterlimit="10" stroke-linecap="round" stroke-linejoin="round"/>
<path id="Vector_48" d="M702.137 566.113H700.899" stroke="#606580" stroke-miterlimit="10" stroke-linecap="round" stroke-linejoin="round"/>
</g>
<path id="Vector_49" d="M697.9 565.1L699.288 563.713" stroke="#606580" stroke-miterlimit="10" stroke-linecap="round" stroke-linejoin="round"/>
</g>
<text id="text_10" fill="#606580" xml:space="preserve" style="white-space: pre" font-family="Tahoma" font-size="13" letter-spacing="0em"><tspan x="713" y="561.161">FoutSys1</tspan></text>
<text id="percent_4" fill="#606580" xml:space="preserve" style="white-space: pre" font-family="Tahoma" font-size="13" letter-spacing="0em"><tspan x="713" y="581.161">&#x2014;</tspan></text>
</g>
<g id="element-11_9">
<circle id="circle_8" cx="623" cy="395" r="11.5" fill="#1C1F2B" stroke="#606580"/>
<g id="icon_8">
<g id="Group_37">
<g id="Group_38">
<path id="Vector_50" d="M623 400.25C620.113 400.25 617.75 397.887 617.75 395C617.75 392.113 620.113 389.75 623 389.75C625.887 389.75 628.25 392.113 628.25 395C628.25 397.887 625.887 400.25 623 400.25Z" stroke="#606580" stroke-miterlimit="10" stroke-linecap="round" stroke-linejoin="round"/>
</g>
</g>
<g id="Group_39">
<g id="Group_40">
<path id="Vector_51" d="M623 395.9C622.512 395.9 622.1 395.487 622.1 395C622.1 394.512 622.512 394.1 623 394.1C623.487 394.1 623.9 394.512 623.9 395C623.9 395.487 623.487 395.9 623 395.9Z" stroke="#606580" stroke-miterlimit="10" stroke-linecap="round" stroke-linejoin="round"/>
</g>
</g>
<g id="Group_41">
<path id="Vector_52" d="M623 398.938V400.25" stroke="#606580" stroke-miterlimit="10" stroke-linecap="round" stroke-linejoin="round"/>
<path id="Vector_53" d="M623 389.975V391.212" stroke="#606580" stroke-miterlimit="10" stroke-linecap="round" stroke-linejoin="round"/>
</g>
<g id="Group_42">
<path id="Vector_54" d="M619.175 395.113H617.862" stroke="#606580" stroke-miterlimit="10" stroke-linecap="round" stroke-linejoin="round"/>
<path id="Vector_55" d="M628.137 395.113H626.899" stroke="#606580" stroke-miterlimit="10" stroke-linecap="round" stroke-linejoin="round"/>
</g>
<path id="Vector_56" d="M623.9 394.1L625.288 392.713" stroke="#606580" stroke-miterlimit="10" stroke-linecap="round" stroke-linejoin="round"/>
</g>
<text id="text_percent_2" fill="#D7E2F2" xml:space="preserve" style="white-space: pre" font-family="Tahoma" font-size="13" letter-spacing="0em"><tspan x="639" y="409.161">99%</tspan></text>
<text id="text_11" fill="#D7E2F2" xml:space="preserve" style="white-space: pre" font-family="Tahoma" font-size="13" letter-spacing="0em"><tspan x="639" y="387.161">Fl11</tspan></text>
</g>
<g id="element-11_14">
<circle id="circle_9" cx="1046" cy="332" r="11.5" fill="#1C1F2B" stroke="#606580"/>
<g id="icon_9">
<g id="Group_43">
<g id="Group_44">
<path id="Vector_57" d="M1046 337.25C1043.11 337.25 1040.75 334.887 1040.75 332C1040.75 329.113 1043.11 326.75 1046 326.75C1048.89 326.75 1051.25 329.113 1051.25 332C1051.25 334.887 1048.89 337.25 1046 337.25Z" stroke="#606580" stroke-miterlimit="10" stroke-linecap="round" stroke-linejoin="round"/>
</g>
</g>
<g id="Group_45">
<g id="Group_46">
<path id="Vector_58" d="M1046 332.9C1045.51 332.9 1045.1 332.487 1045.1 332C1045.1 331.512 1045.51 331.1 1046 331.1C1046.49 331.1 1046.9 331.512 1046.9 332C1046.9 332.487 1046.49 332.9 1046 332.9Z" stroke="#606580" stroke-miterlimit="10" stroke-linecap="round" stroke-linejoin="round"/>
</g>
</g>
<g id="Group_47">
<path id="Vector_59" d="M1046 335.938V337.25" stroke="#606580" stroke-miterlimit="10" stroke-linecap="round" stroke-linejoin="round"/>
<path id="Vector_60" d="M1046 326.975V328.212" stroke="#606580" stroke-miterlimit="10" stroke-linecap="round" stroke-linejoin="round"/>
</g>
<g id="Group_48">
<path id="Vector_61" d="M1042.17 332.113H1040.86" stroke="#606580" stroke-miterlimit="10" stroke-linecap="round" stroke-linejoin="round"/>
<path id="Vector_62" d="M1051.14 332.113H1049.9" stroke="#606580" stroke-miterlimit="10" stroke-linecap="round" stroke-linejoin="round"/>
</g>
<path id="Vector_63" d="M1046.9 331.1L1048.29 329.713" stroke="#606580" stroke-miterlimit="10" stroke-linecap="round" stroke-linejoin="round"/>
</g>
<text id="text_percent_3" fill="#D7E2F2" xml:space="preserve" style="white-space: pre" font-family="Tahoma" font-size="13" letter-spacing="0em"><tspan x="1062" y="346.161">99%</tspan></text>
<text id="text_12" fill="#D7E2F2" xml:space="preserve" style="white-space: pre" font-family="Tahoma" font-size="13" letter-spacing="0em"><tspan x="1062" y="324.161">FOIL</tspan></text>
</g>
<g id="element-11_15">
<circle id="circle_10" cx="1046" cy="407" r="11.5" fill="#1C1F2B" stroke="#606580"/>
<g id="icon_10">
<g id="Group_49">
<g id="Group_50">
<path id="Vector_64" d="M1046 412.25C1043.11 412.25 1040.75 409.887 1040.75 407C1040.75 404.113 1043.11 401.75 1046 401.75C1048.89 401.75 1051.25 404.113 1051.25 407C1051.25 409.887 1048.89 412.25 1046 412.25Z" stroke="#606580" stroke-miterlimit="10" stroke-linecap="round" stroke-linejoin="round"/>
</g>
</g>
<g id="Group_51">
<g id="Group_52">
<path id="Vector_65" d="M1046 407.9C1045.51 407.9 1045.1 407.487 1045.1 407C1045.1 406.512 1045.51 406.1 1046 406.1C1046.49 406.1 1046.9 406.512 1046.9 407C1046.9 407.487 1046.49 407.9 1046 407.9Z" stroke="#606580" stroke-miterlimit="10" stroke-linecap="round" stroke-linejoin="round"/>
</g>
</g>
<g id="Group_53">
<path id="Vector_66" d="M1046 410.938V412.25" stroke="#606580" stroke-miterlimit="10" stroke-linecap="round" stroke-linejoin="round"/>
<path id="Vector_67" d="M1046 401.975V403.212" stroke="#606580" stroke-miterlimit="10" stroke-linecap="round" stroke-linejoin="round"/>
</g>
<g id="Group_54">
<path id="Vector_68" d="M1042.17 407.113H1040.86" stroke="#606580" stroke-miterlimit="10" stroke-linecap="round" stroke-linejoin="round"/>
<path id="Vector_69" d="M1051.14 407.113H1049.9" stroke="#606580" stroke-miterlimit="10" stroke-linecap="round" stroke-linejoin="round"/>
</g>
<path id="Vector_70" d="M1046.9 406.1L1048.29 404.713" stroke="#606580" stroke-miterlimit="10" stroke-linecap="round" stroke-linejoin="round"/>
</g>
<text id="text_percent_4" fill="#D7E2F2" xml:space="preserve" style="white-space: pre" font-family="Tahoma" font-size="13" letter-spacing="0em"><tspan x="1062" y="421.161">99%</tspan></text>
<text id="text_13" fill="#D7E2F2" xml:space="preserve" style="white-space: pre" font-family="Tahoma" font-size="13" letter-spacing="0em"><tspan x="1062" y="399.161">FOIL 10n</tspan></text>
</g>
<g id="element-11_16">
<circle id="circle_11" cx="1046" cy="483" r="11.5" fill="#1C1F2B" stroke="#606580"/>
<g id="icon_11">
<g id="Group_55">
<g id="Group_56">
<path id="Vector_71" d="M1046 488.25C1043.11 488.25 1040.75 485.887 1040.75 483C1040.75 480.113 1043.11 477.75 1046 477.75C1048.89 477.75 1051.25 480.113 1051.25 483C1051.25 485.887 1048.89 488.25 1046 488.25Z" stroke="#606580" stroke-miterlimit="10" stroke-linecap="round" stroke-linejoin="round"/>
</g>
</g>
<g id="Group_57">
<g id="Group_58">
<path id="Vector_72" d="M1046 483.9C1045.51 483.9 1045.1 483.487 1045.1 483C1045.1 482.512 1045.51 482.1 1046 482.1C1046.49 482.1 1046.9 482.512 1046.9 483C1046.9 483.487 1046.49 483.9 1046 483.9Z" stroke="#606580" stroke-miterlimit="10" stroke-linecap="round" stroke-linejoin="round"/>
</g>
</g>
<g id="Group_59">
<path id="Vector_73" d="M1046 486.938V488.25" stroke="#606580" stroke-miterlimit="10" stroke-linecap="round" stroke-linejoin="round"/>
<path id="Vector_74" d="M1046 477.975V479.212" stroke="#606580" stroke-miterlimit="10" stroke-linecap="round" stroke-linejoin="round"/>
</g>
<g id="Group_60">
<path id="Vector_75" d="M1042.17 483.113H1040.86" stroke="#606580" stroke-miterlimit="10" stroke-linecap="round" stroke-linejoin="round"/>
<path id="Vector_76" d="M1051.14 483.113H1049.9" stroke="#606580" stroke-miterlimit="10" stroke-linecap="round" stroke-linejoin="round"/>
</g>
<path id="Vector_77" d="M1046.9 482.1L1048.29 480.713" stroke="#606580" stroke-miterlimit="10" stroke-linecap="round" stroke-linejoin="round"/>
</g>
<text id="text_percent_5" fill="#D7E2F2" xml:space="preserve" style="white-space: pre" font-family="Tahoma" font-size="13" letter-spacing="0em"><tspan x="1062" y="497.161">99%</tspan></text>
<text id="text_14" fill="#D7E2F2" xml:space="preserve" style="white-space: pre" font-family="Tahoma" font-size="13" letter-spacing="0em"><tspan x="1062" y="475.161">F1969</tspan></text>
</g>
<g id="element-11_10">
<circle id="circle_12" cx="695" cy="395" r="11.5" fill="#1C1F2B" stroke="#606580"/>
<g id="icon_12">
<g id="Group_61">
<g id="Group_62">
<path id="Vector_78" d="M695 400.25C692.113 400.25 689.75 397.887 689.75 395C689.75 392.113 692.113 389.75 695 389.75C697.887 389.75 700.25 392.113 700.25 395C700.25 397.887 697.887 400.25 695 400.25Z" stroke="#606580" stroke-miterlimit="10" stroke-linecap="round" stroke-linejoin="round"/>
</g>
</g>
<g id="Group_63">
<g id="Group_64">
<path id="Vector_79" d="M695 395.9C694.512 395.9 694.1 395.487 694.1 395C694.1 394.512 694.512 394.1 695 394.1C695.487 394.1 695.9 394.512 695.9 395C695.9 395.487 695.487 395.9 695 395.9Z" stroke="#606580" stroke-miterlimit="10" stroke-linecap="round" stroke-linejoin="round"/>
</g>
</g>
<g id="Group_65">
<path id="Vector_80" d="M695 398.938V400.25" stroke="#606580" stroke-miterlimit="10" stroke-linecap="round" stroke-linejoin="round"/>
<path id="Vector_81" d="M695 389.975V391.212" stroke="#606580" stroke-miterlimit="10" stroke-linecap="round" stroke-linejoin="round"/>
</g>
<g id="Group_66">
<path id="Vector_82" d="M691.175 395.113H689.862" stroke="#606580" stroke-miterlimit="10" stroke-linecap="round" stroke-linejoin="round"/>
<path id="Vector_83" d="M700.137 395.113H698.899" stroke="#606580" stroke-miterlimit="10" stroke-linecap="round" stroke-linejoin="round"/>
</g>
<path id="Vector_84" d="M695.9 394.1L697.288 392.713" stroke="#606580" stroke-miterlimit="10" stroke-linecap="round" stroke-linejoin="round"/>
</g>
<text id="text_percent_6" fill="#D7E2F2" xml:space="preserve" style="white-space: pre" font-family="Tahoma" font-size="13" letter-spacing="0em"><tspan x="711" y="409.161">99%</tspan></text>
<text id="text_15" fill="#D7E2F2" xml:space="preserve" style="white-space: pre" font-family="Tahoma" font-size="13" letter-spacing="0em"><tspan x="711" y="387.161">Fl1&#x410;</tspan></text>
</g>
<g id="element-1_23">
<rect x="1361" y="395" width="200" height="24" rx="2" fill="#272A38"/>
<text id="text_16" fill="#D7E2F2" xml:space="preserve" style="white-space: pre" font-family="Tahoma" font-size="13" letter-spacing="0em"><tspan x="1365" y="412.161">&#x41d;&#x435;&#x444;&#x442;&#x44c; &#x43d;&#x435;&#x442;&#x442;&#x43e;</tspan></text>
<g id="arrow-group_4">
<g id="arrow_double_right_4">
<g id="Group_67">
<g id="Group_68">
<path id="arrow_7" d="M1537.83 401.75L1543.08 407L1537.83 412.25" stroke="#606580" stroke-miterlimit="10" stroke-linecap="round" stroke-linejoin="round"/>
</g>
<g id="Group_69">
<path id="arrow_8" d="M1542.92 401.75L1548.17 407L1542.92 412.25" stroke="#606580" stroke-miterlimit="10" stroke-linecap="round" stroke-linejoin="round"/>
</g>
</g>
</g>
</g>
<rect x="1361" y="395" width="200" height="24" rx="2" stroke="#606580"/>
</g>
<g id="element-1_25">
<rect x="1361" y="547" width="200" height="24" rx="2" fill="#272A38"/>
<text id="text_17" fill="#D7E2F2" xml:space="preserve" style="white-space: pre" font-family="Tahoma" font-size="13" letter-spacing="0em"><tspan x="1365" y="564.161">&#x412; &#x441;&#x438;&#x441;&#x442;&#x435;&#x43c;&#x443;</tspan></text>
<g id="arrow-group_5">
<g id="arrow_double_right_5">
<g id="Group_70">
<g id="Group_71">
<path id="arrow_9" d="M1537.83 553.75L1543.08 559L1537.83 564.25" stroke="#606580" stroke-miterlimit="10" stroke-linecap="round" stroke-linejoin="round"/>
</g>
<g id="Group_72">
<path id="arrow_10" d="M1542.92 553.75L1548.17 559L1542.92 564.25" stroke="#606580" stroke-miterlimit="10" stroke-linecap="round" stroke-linejoin="round"/>
</g>
</g>
</g>
</g>
<rect x="1361" y="547" width="200" height="24" rx="2" stroke="#606580"/>
</g>
<g id="element-1_24">
<g id="rect_5">
<rect x="1361" y="465" width="200" height="36" rx="2" fill="#272A38"/>
<rect x="1361" y="465" width="200" height="36" rx="2" stroke="#606580"/>
</g>
<g id="arrow-group_6">
<g id="arrow_double_right_6">
<g id="Group_73">
<g id="Group_74">
<path id="arrow_11" d="M1537.83 477.75L1543.08 483L1537.83 488.25" stroke="#606580" stroke-miterlimit="10" stroke-linecap="round" stroke-linejoin="round"/>
</g>
<g id="Group_75">
<path id="arrow_12" d="M1542.92 477.75L1548.17 483L1542.92 488.25" stroke="#606580" stroke-miterlimit="10" stroke-linecap="round" stroke-linejoin="round"/>
</g>
</g>
</g>
</g>
<text id="text_18" fill="#D7E2F2" xml:space="preserve" style="white-space: pre" font-family="Tahoma" font-size="13" letter-spacing="0em"><tspan x="1396" y="481.161">&#x41a; &#x43a;&#x43e;&#x43b;-&#x440; &#x43f;&#x440;-&#x441;&#x442;&#x43e;&#x43a;&#x43e;&#x432; &#10;</tspan><tspan x="1396" y="495.161">&#x42d;&#x41b;&#x41e;&#x423; (PL1975)</tspan></text>
<circle id="circle_13" cx="1377" cy="483" r="11.5" fill="#1C1F2B" stroke="#606580"/>
<g id="icon_13">
<path id="Vector_85" d="M1374.67 483H1379.17" stroke="#606580" stroke-miterlimit="10" stroke-linecap="round" stroke-linejoin="round"/>
<g id="Group_76">
<path id="Vector_86" d="M1376.92 483V479.25H1379.17" stroke="#606580" stroke-miterlimit="10" stroke-linecap="round" stroke-linejoin="round"/>
<path id="Vector_87" d="M1380.56 480.525C1381.23 480.525 1381.76 479.988 1381.76 479.325C1381.76 478.662 1381.23 478.125 1380.56 478.125C1379.9 478.125 1379.36 478.662 1379.36 479.325C1379.36 479.988 1379.9 480.525 1380.56 480.525Z" stroke="#606580" stroke-miterlimit="10" stroke-linecap="round" stroke-linejoin="round"/>
</g>
<path id="Vector_88" d="M1376.92 483V486.75H1379.17" stroke="#606580" stroke-miterlimit="10" stroke-linecap="round" stroke-linejoin="round"/>
<path id="Vector_89" d="M1380.56 487.875C1381.23 487.875 1381.76 487.337 1381.76 486.675C1381.76 486.012 1381.23 485.475 1380.56 485.475C1379.9 485.475 1379.36 486.012 1379.36 486.675C1379.36 487.337 1379.9 487.875 1380.56 487.875Z" stroke="#606580" stroke-miterlimit="10" stroke-linecap="round" stroke-linejoin="round"/>
<path id="Vector_90" d="M1380.56 484.201C1381.23 484.201 1381.76 483.664 1381.76 483.001C1381.76 482.338 1381.23 481.801 1380.56 481.801C1379.9 481.801 1379.36 482.338 1379.36 483.001C1379.36 483.664 1379.9 484.201 1380.56 484.201Z" stroke="#606580" stroke-miterlimit="10" stroke-linecap="round" stroke-linejoin="round"/>
<path id="Vector_91" d="M1373.44 484.201C1374.1 484.201 1374.64 483.664 1374.64 483.001C1374.64 482.338 1374.1 481.801 1373.44 481.801C1372.77 481.801 1372.24 482.338 1372.24 483.001C1372.24 483.664 1372.77 484.201 1373.44 484.201Z" stroke="#606580" stroke-miterlimit="10" stroke-linecap="round" stroke-linejoin="round"/>
</g>
</g>
<g id="element-1_22">
<g id="rect_6">
<rect x="1361" y="313" width="200" height="36" rx="2" fill="#272A38"/>
<rect x="1361" y="313" width="200" height="36" rx="2" stroke="#606580"/>
</g>
<circle id="circle_14" cx="1377" cy="331" r="11.5" fill="#1C1F2B" stroke="#606580"/>
<g id="icon_14">
<path id="Vector_92" d="M1372.89 334.308V331.592H1375.26L1376.41 330.408H1377.97V334.308" stroke="#606580" stroke-miterlimit="10" stroke-linecap="round" stroke-linejoin="round"/>
<path id="Vector_93" d="M1381.88 334.309H1372.12V335.876H1381.88V334.309Z" stroke="#606580" stroke-miterlimit="10" stroke-linecap="round" stroke-linejoin="round"/>
<path id="Vector_94" d="M1374.88 326.125H1373.69V331.592H1374.88V326.125Z" stroke="#606580" stroke-miterlimit="10" stroke-linecap="round" stroke-linejoin="round"/>
<path id="Vector_95" d="M1377.21 330.408V327.309H1380.31V328.458" stroke="#606580" stroke-miterlimit="10" stroke-linecap="round" stroke-linejoin="round"/>
<path id="Vector_96" d="M1380.59 332.742H1380.06C1379.58 332.742 1379.16 332.324 1379.16 331.837V329.364C1379.16 328.877 1379.58 328.459 1380.06 328.459H1380.59C1381.07 328.459 1381.49 328.877 1381.49 329.364V331.837C1381.49 332.359 1381.07 332.742 1380.59 332.742Z" stroke="#606580" stroke-miterlimit="10" stroke-linecap="round" stroke-linejoin="round"/>
<path id="Vector_97" d="M1379.54 334.307V332.74" stroke="#606580" stroke-miterlimit="10" stroke-linecap="round" stroke-linejoin="round"/>
<path id="Vector_98" d="M1381.11 332.74V334.307" stroke="#606580" stroke-miterlimit="10" stroke-linecap="round" stroke-linejoin="round"/>
</g>
<g id="arrow-group_7">
<g id="arrow_double_right_7">
<g id="Group_77">
<g id="Group_78">
<path id="arrow_13" d="M1537.83 325.75L1543.08 331L1537.83 336.25" stroke="#606580" stroke-miterlimit="10" stroke-linecap="round" stroke-linejoin="round"/>
</g>
<g id="Group_79">
<path id="arrow_14" d="M1542.92 325.75L1548.17 331L1542.92 336.25" stroke="#606580" stroke-miterlimit="10" stroke-linecap="round" stroke-linejoin="round"/>
</g>
</g>
</g>
</g>
<text id="text_19" fill="#D7E2F2" xml:space="preserve" style="white-space: pre" font-family="Tahoma" font-size="13" letter-spacing="0em"><tspan x="1396" y="329.161">&#x412; &#x422;&#x41f; &#x41d;&#x435;&#x444;&#x442;&#x44c; &#x43e;&#x431;&#x435;&#x441;&#x441;&#x43e;&#x43b;&#x435;&#x43d;.&#10;</tspan><tspan x="1396" y="343.161">&#x43d;&#x430; &#x410;&#x411; &#x410;&#x412;&#x422;-10</tspan></text>
</g>
<g id="element-3_4">
<g id="rect_7">
<rect x="264.5" y="342.5" width="169" height="43" rx="1.5" fill="#1C1F2B"/>
<rect x="264.5" y="342.5" width="169" height="43" rx="1.5" stroke="#606580"/>
</g>
<text id="text_20" fill="#D7E2F2" xml:space="preserve" style="white-space: pre" font-family="Tahoma" font-size="13" letter-spacing="0em"><tspan x="272" y="359.161">&#x41d;&#x435;&#x444;&#x442;&#x44f;&#x43d;&#x43e;&#x435; &#x441;&#x44b;&#x440;&#x44c;&#x435;</tspan></text>
<text id="text_value_2" fill="#D7E2F2" xml:space="preserve" style="white-space: pre" font-family="Tahoma" font-size="13" letter-spacing="0em"><tspan x="272" y="379.161">12 000&#x442;</tspan></text>
<text id="text_percent_7" fill="#D7E2F2" xml:space="preserve" style="white-space: pre" font-family="Tahoma" font-size="13" letter-spacing="0em"><tspan x="326" y="379.161">12.85%</tspan></text>
</g>
<g id="element-3_18">
<g id="rect_8">
<rect x="1138.5" y="309.5" width="169" height="43" rx="1.5" fill="#1C1F2B"/>
<rect x="1138.5" y="309.5" width="169" height="43" rx="1.5" stroke="#606580"/>
</g>
<text id="text_21" fill="#D7E2F2" xml:space="preserve" style="white-space: pre" font-family="Tahoma" font-size="13" letter-spacing="0em"><tspan x="1146" y="326.161">&#x41d;&#x430;&#x437;&#x432;&#x430;&#x43d;&#x438;&#x435; &#x43f;&#x440;&#x43e;&#x434;&#x443;&#x43a;&#x442;&#x430;</tspan></text>
<text id="text_value_3" fill="#D7E2F2" xml:space="preserve" style="white-space: pre" font-family="Tahoma" font-size="13" letter-spacing="0em"><tspan x="1146" y="346.161">12 000&#x442;</tspan></text>
<text id="text_percent_8" fill="#D7E2F2" xml:space="preserve" style="white-space: pre" font-family="Tahoma" font-size="13" letter-spacing="0em"><tspan x="1200" y="346.161">12.85%</tspan></text>
</g>
<g id="element-3_12">
<g id="rect_9">
<rect x="758.5" y="373.5" width="169" height="43" rx="1.5" fill="#1C1F2B"/>
<rect x="758.5" y="373.5" width="169" height="43" rx="1.5" stroke="#606580"/>
</g>
<text id="text_22" fill="#D7E2F2" xml:space="preserve" style="white-space: pre" font-family="Tahoma" font-size="13" letter-spacing="0em"><tspan x="766" y="390.161">&#x41d;&#x430;&#x437;&#x432;&#x430;&#x43d;&#x438;&#x435; &#x43f;&#x440;&#x43e;&#x434;&#x443;&#x43a;&#x442;&#x430;</tspan></text>
<text id="text_value_4" fill="#D7E2F2" xml:space="preserve" style="white-space: pre" font-family="Tahoma" font-size="13" letter-spacing="0em"><tspan x="766" y="410.161">12 000&#x442;</tspan></text>
<text id="text_percent_9" fill="#D7E2F2" xml:space="preserve" style="white-space: pre" font-family="Tahoma" font-size="13" letter-spacing="0em"><tspan x="820" y="410.161">12.85%</tspan></text>
</g>
<g id="element-3_19">
<g id="rect_10">
<rect x="1138.5" y="387.5" width="169" height="43" rx="1.5" fill="#1C1F2B"/>
<rect x="1138.5" y="387.5" width="169" height="43" rx="1.5" stroke="#606580"/>
</g>
<text id="text_23" fill="#D7E2F2" xml:space="preserve" style="white-space: pre" font-family="Tahoma" font-size="13" letter-spacing="0em"><tspan x="1146" y="404.161">&#x41d;&#x430;&#x437;&#x432;&#x430;&#x43d;&#x438;&#x435; &#x43f;&#x440;&#x43e;&#x434;&#x443;&#x43a;&#x442;&#x430;</tspan></text>
<text id="text_value_5" fill="#D7E2F2" xml:space="preserve" style="white-space: pre" font-family="Tahoma" font-size="13" letter-spacing="0em"><tspan x="1146" y="424.161">12 000&#x442;</tspan></text>
<text id="text_percent_10" fill="#D7E2F2" xml:space="preserve" style="white-space: pre" font-family="Tahoma" font-size="13" letter-spacing="0em"><tspan x="1200" y="424.161">12.85%</tspan></text>
</g>
<g id="element-3_20">
<g id="rect_11">
<rect x="1138.5" y="461.5" width="169" height="43" rx="1.5" fill="#1C1F2B"/>
<rect x="1138.5" y="461.5" width="169" height="43" rx="1.5" stroke="#606580"/>
</g>
<text id="text_24" fill="#D7E2F2" xml:space="preserve" style="white-space: pre" font-family="Tahoma" font-size="13" letter-spacing="0em"><tspan x="1146" y="478.161">&#x41d;&#x430;&#x437;&#x432;&#x430;&#x43d;&#x438;&#x435; &#x43f;&#x440;&#x43e;&#x434;&#x443;&#x43a;&#x442;&#x430;</tspan></text>
<text id="text_value_6" fill="#D7E2F2" xml:space="preserve" style="white-space: pre" font-family="Tahoma" font-size="13" letter-spacing="0em"><tspan x="1146" y="498.161">12 000&#x442;</tspan></text>
<text id="text_percent_11" fill="#D7E2F2" xml:space="preserve" style="white-space: pre" font-family="Tahoma" font-size="13" letter-spacing="0em"><tspan x="1200" y="498.161">12.85%</tspan></text>
</g>
<g id="element-3_21">
<g id="rect_12">
<rect x="1138.5" y="537.5" width="169" height="43" rx="1.5" fill="#1C1F2B"/>
<rect x="1138.5" y="537.5" width="169" height="43" rx="1.5" stroke="#606580"/>
</g>
<text id="text_25" fill="#D7E2F2" xml:space="preserve" style="white-space: pre" font-family="Tahoma" font-size="13" letter-spacing="0em"><tspan x="1146" y="554.161">&#x41d;&#x430;&#x437;&#x432;&#x430;&#x43d;&#x438;&#x435; &#x43f;&#x440;&#x43e;&#x434;&#x443;&#x43a;&#x442;&#x430;</tspan></text>
<text id="text_value_7" fill="#D7E2F2" xml:space="preserve" style="white-space: pre" font-family="Tahoma" font-size="13" letter-spacing="0em"><tspan x="1146" y="574.161">12 000&#x442;</tspan></text>
<text id="text_percent_12" fill="#D7E2F2" xml:space="preserve" style="white-space: pre" font-family="Tahoma" font-size="13" letter-spacing="0em"><tspan x="1200" y="574.161">12.85%</tspan></text>
</g>
</g>
</svg>
