<svg xmlns="http://www.w3.org/2000/svg" width="15" height="15" viewBox="0 0 48 59"><title>Ресурс 2</title><path d="M24,51a1,1,0,0,0,1-1V17a1,1,0,0,0-2,0V50A1,1,0,0,0,24,51Z"/><path d="M14,51a1,1,0,0,0,1-1V17a1,1,0,0,0-2,0V50A1,1,0,0,0,14,51Z"/><path d="M34,51a1,1,0,0,0,1-1V17a1,1,0,0,0-2,0V50A1,1,0,0,0,34,51Z"/><path d="M47,6H33a7.94,7.94,0,0,0-1.82-4.71A4.2,4.2,0,0,0,28,0H18a4.2,4.2,0,0,0-3.14,1.29A7.94,7.94,0,0,0,13,6H1A1,1,0,0,0,1,8H3L5,54a4.84,4.84,0,0,0,4.9,5H38.14A4.84,4.84,0,0,0,43,54L45,8h2a1,1,0,0,0,0-2ZM16.29,2.68A2.27,2.27,0,0,1,18,2H28a2.27,2.27,0,0,1,1.71.68A6,6,0,0,1,31,6H15.05A6,6,0,0,1,16.29,2.68ZM41,54a2.89,2.89,0,0,1-2.9,3H9.86C7.13,57,7,54.28,7,54L5,8H43Z"/></svg>