<svg xmlns="http://www.w3.org/2000/svg" width="70" height="70" viewBox="0 0 512 387.67"><title>Ресурс 1</title><path d="M508.36,307.23,423,249.49a13,13,0,0,0-14.57.37L357,289.66l-35-88,29.13-17.52,46.67,36.1a12.77,12.77,0,0,0,9.49,2.27,10.56,10.56,0,0,0,7.8-4.76L500.41,69.34c2.4-4.17,0-9-5.41-10.89s-11.69,0-14.08,4.19l-79,137.49-42.35-32.75a13.08,13.08,0,0,0-14.09-.68l-30.17,18.15L276.86,88.31c-1.26-3.18-4.87-5.46-9.15-5.79s-8.4,1.37-10.44,4.3l-54,77.58-45.46-45.71a11.92,11.92,0,0,0-8.15-3.21,12.33,12.33,0,0,0-8.37,2.84l-119.94,107V8.25C21.33,3.69,16.56,0,10.67,0S0,3.69,0,8.25V379.42c0,4.55,4.78,8.25,10.67,8.25h480c5.89,0,10.66-3.7,10.66-8.25s-4.77-8.25-10.66-8.25H21.33V313.43h96c3.93,0,7.53-1.66,9.39-4.34l79.7-114.45L247.55,236a11.64,11.64,0,0,0,7.1,3.15,13,13,0,0,0,7.9-1.67L304,212.54l37.83,95.07c1.1,2.76,4,4.88,7.62,5.58A12.88,12.88,0,0,0,359.54,311l56.95-44,77.82,52.66a12.61,12.61,0,0,0,7,2,12.16,12.16,0,0,0,8-2.82C513.24,315.44,512.79,310.23,508.36,307.23ZM111,296.94H21.33V250.52L148.84,136.76l43.33,43.55Zm147-77.59-40.41-40.62L264,112l33.3,83.68Z"/></svg>