<svg width="1510" height="907" viewBox="0 0 1510 907" fill="none" xmlns="http://www.w3.org/2000/svg">
<g id="&#208;&#162;&#208;&#159; &#208;&#145;&#208;&#181;&#208;&#189;&#208;&#183;&#208;&#184;&#208;&#189;&#208;&#190;&#208;&#178; - &#208;&#157;&#208;&#176;&#209;&#129;&#208;&#190;&#209;&#129;&#208;&#189;&#208;&#176;&#209;&#143; &#209;&#130;.1163-1164 &#208;&#191;&#208;&#176;&#209;&#128;&#208;&#186; &#208;&#145;&#208;&#147;&#208;&#161;">
<rect width="1510" height="907" fill="#1C1F2B"/>
<g id="element-4_16">
<rect id="rect" x="499" y="171" width="88" height="134" rx="5" fill="#272A38" stroke="#272A38" stroke-width="2"/>
<path id="rect_volume" d="M502 250H584V298C584 300.209 582.209 302 580 302H506C503.791 302 502 300.209 502 298V250Z" fill="#0089FF" fill-opacity="0.2"/>
<line id="line_bottom" x1="498" y1="289.5" x2="588" y2="289.5" stroke="#4B5169" stroke-dasharray="2 2"/>
<line id="line_top" x1="498" y1="185.5" x2="588" y2="185.5" stroke="#4B5169" stroke-dasharray="2 2"/>
<rect id="line_volume" x="502" y="249" width="82" height="1" fill="#0089FF"/>
<text id="text" fill="white" xml:space="preserve" style="white-space: pre" font-family="Tahoma" font-size="16" letter-spacing="0em"><tspan x="526.445" y="223.852">P-37</tspan></text>
<text id="text_value" fill="#0089FF" xml:space="preserve" style="white-space: pre" font-family="Tahoma" font-size="14" letter-spacing="0em"><tspan x="516.251" y="277.058">12 047 &#x442;</tspan></text>
<circle id="point" cx="499" cy="200" r="3.5" fill="#1C1F2B" stroke="#272A38"/>
<circle id="point_2" cx="587" cy="199" r="3.5" fill="#1C1F2B" stroke="#272A38"/>
<circle id="point_3" cx="499" cy="275" r="3.5" fill="#1C1F2B" stroke="#272A38"/>
<circle id="point_4" cx="587" cy="274" r="3.5" fill="#1C1F2B" stroke="#272A38"/>
</g>
<g id="element-4_18">
<rect id="rect_2" x="499" y="523" width="88" height="134" rx="5" fill="#272A38" stroke="#272A38" stroke-width="2"/>
<path id="rect_volume_2" d="M502 602H584V650C584 652.209 582.209 654 580 654H506C503.791 654 502 652.209 502 650V602Z" fill="#0089FF" fill-opacity="0.2"/>
<line id="line_bottom_2" x1="498" y1="641.5" x2="588" y2="641.5" stroke="#4B5169" stroke-dasharray="2 2"/>
<line id="line_top_2" x1="498" y1="537.5" x2="588" y2="537.5" stroke="#4B5169" stroke-dasharray="2 2"/>
<rect id="line_volume_2" x="502" y="601" width="82" height="1" fill="#0089FF"/>
<text id="text_2" fill="white" xml:space="preserve" style="white-space: pre" font-family="Tahoma" font-size="16" letter-spacing="0em"><tspan x="526.445" y="575.852">P-37</tspan></text>
<text id="text_value_2" fill="#0089FF" xml:space="preserve" style="white-space: pre" font-family="Tahoma" font-size="14" letter-spacing="0em"><tspan x="516.251" y="629.058">12 047 &#x442;</tspan></text>
<circle id="point_5" cx="499" cy="552" r="3.5" fill="#1C1F2B" stroke="#272A38"/>
<circle id="point_6" cx="587" cy="551" r="3.5" fill="#1C1F2B" stroke="#272A38"/>
<circle id="point_7" cx="499" cy="627" r="3.5" fill="#1C1F2B" stroke="#272A38"/>
<circle id="point_8" cx="587" cy="626" r="3.5" fill="#1C1F2B" stroke="#272A38"/>
</g>
<g id="element-4_17">
<rect id="rect_3" x="499" y="347" width="88" height="134" rx="5" fill="#272A38" stroke="#272A38" stroke-width="2"/>
<path id="rect_volume_3" d="M502 426H584V474C584 476.209 582.209 478 580 478H506C503.791 478 502 476.209 502 474V426Z" fill="#0089FF" fill-opacity="0.2"/>
<line id="line_bottom_3" x1="498" y1="465.5" x2="588" y2="465.5" stroke="#4B5169" stroke-dasharray="2 2"/>
<line id="line_top_3" x1="498" y1="361.5" x2="588" y2="361.5" stroke="#4B5169" stroke-dasharray="2 2"/>
<rect id="line_volume_3" x="502" y="425" width="82" height="1" fill="#0089FF"/>
<text id="text_3" fill="white" xml:space="preserve" style="white-space: pre" font-family="Tahoma" font-size="16" letter-spacing="0em"><tspan x="526.445" y="399.852">P-37</tspan></text>
<circle id="point_9" cx="499" cy="376" r="3.5" fill="#1C1F2B" stroke="#272A38"/>
<circle id="point_10" cx="587" cy="375" r="3.5" fill="#1C1F2B" stroke="#272A38"/>
<circle id="point_11" cx="499" cy="451" r="3.5" fill="#1C1F2B" stroke="#272A38"/>
<circle id="point_12" cx="587" cy="450" r="3.5" fill="#1C1F2B" stroke="#272A38"/>
<text id="text_value_3" fill="#0089FF" xml:space="preserve" style="white-space: pre" font-family="Tahoma" font-size="14" letter-spacing="0em"><tspan x="517.251" y="454.058">12 047 &#x442;</tspan></text>
</g>
<path id="line_268" d="M462 200.5H495V199.5H462V200.5Z" fill="#272A38"/>
<path id="line_272" d="M462 552.5H495V551.5H462V552.5Z" fill="#272A38"/>
<path id="line_270" d="M462 376.5H495V375.5H462V376.5Z" fill="#272A38"/>
<path id="line_269" d="M462 275.5H495V274.5H462V275.5Z" fill="#272A38"/>
<path id="line_273" d="M462 627.5H495V626.5H462V627.5Z" fill="#272A38"/>
<path id="line_271" d="M462 451.5H495V450.5H462V451.5Z" fill="#272A38"/>
<path id="line_274" d="M591 199.5H603V198.5H591V199.5Z" fill="#272A38"/>
<path id="line_259" d="M146 200.5L279 200.5V199.5L146 199.5V200.5Z" fill="#272A38"/>
<g id="element-3_10">
<path id="rect_4" d="M283 173C283 172.172 283.672 171.5 284.5 171.5H456.5C457.328 171.5 458 172.172 458 173V207.5H283V173Z" fill="#1C1F2B" stroke="#272A38"/>
<path id="rect_5" d="M283 229C283 229.828 283.672 230.5 284.5 230.5H456.5C457.328 230.5 458 229.828 458 229V207.5H283V229Z" fill="#1C1F2B" stroke="#272A38"/>
<text id="text_4" fill="#606580" xml:space="preserve" style="white-space: pre" font-family="Tahoma" font-size="12" letter-spacing="0em"><tspan x="292.5" y="186.764">&#x421;&#x43c;&#x435;&#x441;&#x438; &#x43a;&#x43e;&#x43c;&#x43f;&#x43e;&#x43d;&#x435;&#x43d;&#x442;&#x43e;&#x432; &#x430;&#x432;&#x438;&#x430;&#x446;.&#10;</tspan><tspan x="292.5" y="200.764">&#x431;&#x435;&#x43d;&#x437;&#x438;&#x43d;&#x430; &#x43c;&#x430;&#x440;&#x43a;&#x430; &#x410;</tspan></text>
<text id="text_value_4" fill="#606580" xml:space="preserve" style="white-space: pre" font-family="Tahoma" font-size="12" letter-spacing="0em"><tspan x="292.5" y="222.764">0 &#x442;&#x43d;</tspan></text>
<text id="text_percent" fill="#606580" xml:space="preserve" style="white-space: pre" font-family="Tahoma" font-size="12" letter-spacing="0em"><tspan x="327.5" y="222.764">0%</tspan></text>
<path id="point_13" d="M286.414 200C286.414 201.938 284.861 203.5 282.957 203.5C281.053 203.5 279.5 201.938 279.5 200C279.5 198.062 281.053 196.5 282.957 196.5C284.861 196.5 286.414 198.062 286.414 200Z" fill="#1C1F2B" stroke="#272A38"/>
<path id="point_14" d="M461.5 200C461.5 201.938 459.947 203.5 458.043 203.5C456.139 203.5 454.586 201.938 454.586 200C454.586 198.062 456.139 196.5 458.043 196.5C459.947 196.5 461.5 198.062 461.5 200Z" fill="#1C1F2B" stroke="#272A38"/>
</g>
<g id="element-1_1__Насосная-парк-БГС">
<rect id="rect_6" x="28.5" y="180.5" width="113" height="39" rx="1.5" fill="#1C1F2B" stroke="#272A38"/>
<text id="text_5" fill="#606580" xml:space="preserve" style="white-space: pre" font-family="Tahoma" font-size="12" letter-spacing="0em"><tspan x="48" y="197.764">&#x41f;&#x440;&#x438;&#x433;&#x43e;&#x442;&#x43e;&#x432;&#x43b;&#x435;&#x43d;&#x438;&#x435;&#10;</tspan><tspan x="48" y="211.764">&#x438;&#x437; &#x43b;. 417</tspan></text>
<circle id="circle" cx="28" cy="200" r="11.5" fill="#1C1F2B" stroke="#272A38"/>
<circle id="point_15" cx="142" cy="200.5" r="3.5" fill="#1C1F2B" stroke="#272A38"/>
<g id="arrow-group">
<g id="arrow_double_right" clip-path="url(#clip0)">
<rect width="10" height="10" transform="translate(23.5 195)" fill="#1C1F2B"/>
<g id="Group">
<g id="Group_2">
<path id="arrow" d="M24.1875 195.625L28.5625 200L24.1875 204.375" stroke="#606580" stroke-miterlimit="10" stroke-linecap="round" stroke-linejoin="round"/>
</g>
<g id="Group_3">
<path id="arrow_2" d="M28.4375 195.625L32.8125 200L28.4375 204.375" stroke="#606580" stroke-miterlimit="10" stroke-linecap="round" stroke-linejoin="round"/>
</g>
</g>
</g>
</g>
</g>
<g id="element-3_14">
<path id="rect_7" d="M283 525C283 524.172 283.672 523.5 284.5 523.5H456.5C457.328 523.5 458 524.172 458 525V559.5H283V525Z" fill="#1C1F2B" stroke="#272A38"/>
<path id="rect_8" d="M284.5 582.5H456.5C457.328 582.5 458 581.828 458 581V559.5H283V581C283 581.828 283.672 582.5 284.5 582.5Z" fill="#1C1F2B" stroke="#272A38"/>
<text id="text_6" fill="#606580" xml:space="preserve" style="white-space: pre" font-family="Tahoma" font-size="12" letter-spacing="0em"><tspan x="292.5" y="538.764">&#x421;&#x43c;&#x435;&#x441;&#x438; &#x43a;&#x43e;&#x43c;&#x43f;&#x43e;&#x43d;&#x435;&#x43d;&#x442;&#x43e;&#x432; &#x430;&#x432;&#x438;&#x430;&#x446;.&#10;</tspan><tspan x="292.5" y="552.764">&#x431;&#x435;&#x43d;&#x437;&#x438;&#x43d;&#x430; &#x43c;&#x430;&#x440;&#x43a;&#x430; &#x410;</tspan></text>
<text id="text_percent_2" fill="#606580" xml:space="preserve" style="white-space: pre" font-family="Tahoma" font-size="12" letter-spacing="0em"><tspan x="292.5" y="574.764">0 &#x442;&#x43d;</tspan></text>
<text id="text_value_5" fill="#606580" xml:space="preserve" style="white-space: pre" font-family="Tahoma" font-size="12" letter-spacing="0em"><tspan x="327.5" y="574.764">0%</tspan></text>
<path id="point_16" d="M286.414 552C286.414 553.938 284.861 555.5 282.957 555.5C281.053 555.5 279.5 553.938 279.5 552C279.5 550.062 281.053 548.5 282.957 548.5C284.861 548.5 286.414 550.062 286.414 552Z" fill="#1C1F2B" stroke="#272A38"/>
<path id="point_17" d="M461.5 552C461.5 553.938 459.947 555.5 458.043 555.5C456.139 555.5 454.586 553.938 454.586 552C454.586 550.062 456.139 548.5 458.043 548.5C459.947 548.5 461.5 550.062 461.5 552Z" fill="#1C1F2B" stroke="#272A38"/>
</g>
<g id="element-1_5">
<rect id="rect_9" x="28.5" y="531.5" width="113" height="39" rx="1.5" fill="#1C1F2B" stroke="#272A38"/>
<text id="text_7" fill="#606580" xml:space="preserve" style="white-space: pre" font-family="Tahoma" font-size="12" letter-spacing="0em"><tspan x="48" y="548.764">&#x41f;&#x440;&#x438;&#x433;&#x43e;&#x442;&#x43e;&#x432;&#x43b;&#x435;&#x43d;&#x438;&#x435;&#10;</tspan><tspan x="48" y="562.764">&#x438;&#x437; &#x43b;. 417</tspan></text>
<circle id="circle_2" cx="28" cy="551" r="11.5" fill="#1C1F2B" stroke="#272A38"/>
<circle id="point_18" cx="142" cy="551.5" r="3.5" fill="#1C1F2B" stroke="#272A38"/>
<g id="arrow-group_2">
<g id="arrow_double_right_2" clip-path="url(#clip1)">
<rect width="10" height="10" transform="translate(23.5 546)" fill="#1C1F2B"/>
<g id="Group_4">
<g id="Group_5">
<path id="arrow_3" d="M24.1875 546.625L28.5625 551L24.1875 555.375" stroke="#606580" stroke-miterlimit="10" stroke-linecap="round" stroke-linejoin="round"/>
</g>
<g id="Group_6">
<path id="arrow_4" d="M28.4375 546.625L32.8125 551L28.4375 555.375" stroke="#606580" stroke-miterlimit="10" stroke-linecap="round" stroke-linejoin="round"/>
</g>
</g>
</g>
</g>
</g>
<path id="line_262" d="M146 376.5H279V375.5H146V376.5Z" fill="#272A38"/>
<g id="element-3_12">
<path id="rect_10" d="M283 349C283 348.172 283.672 347.5 284.5 347.5H456.5C457.328 347.5 458 348.172 458 349V383.5H283V349Z" fill="#1C1F2B" stroke="#272A38"/>
<path id="rect_11" d="M283 405C283 405.828 283.672 406.5 284.5 406.5H456.5C457.328 406.5 458 405.828 458 405V383.5H283V405Z" fill="#1C1F2B" stroke="#272A38"/>
<text id="text_8" fill="#606580" xml:space="preserve" style="white-space: pre" font-family="Tahoma" font-size="12" letter-spacing="0em"><tspan x="292.5" y="362.764">&#x421;&#x43c;&#x435;&#x441;&#x438; &#x43a;&#x43e;&#x43c;&#x43f;&#x43e;&#x43d;&#x435;&#x43d;&#x442;&#x43e;&#x432; &#x430;&#x432;&#x438;&#x430;&#x446;.&#10;</tspan><tspan x="292.5" y="376.764">&#x431;&#x435;&#x43d;&#x437;&#x438;&#x43d;&#x430; &#x43c;&#x430;&#x440;&#x43a;&#x430; &#x410;</tspan></text>
<text id="text_value_6" fill="#606580" xml:space="preserve" style="white-space: pre" font-family="Tahoma" font-size="12" letter-spacing="0em"><tspan x="292.5" y="398.764">0 &#x442;&#x43d;</tspan></text>
<text id="text_percent_3" fill="#606580" xml:space="preserve" style="white-space: pre" font-family="Tahoma" font-size="12" letter-spacing="0em"><tspan x="327.5" y="398.764">0%</tspan></text>
<path id="point_19" d="M286.414 376C286.414 377.938 284.861 379.5 282.957 379.5C281.053 379.5 279.5 377.938 279.5 376C279.5 374.062 281.053 372.5 282.957 372.5C284.861 372.5 286.414 374.062 286.414 376Z" fill="#1C1F2B" stroke="#272A38"/>
<path id="point_20" d="M461.5 376C461.5 377.938 459.947 379.5 458.043 379.5C456.139 379.5 454.586 377.938 454.586 376C454.586 374.062 456.139 372.5 458.043 372.5C459.947 372.5 461.5 374.062 461.5 376Z" fill="#1C1F2B" stroke="#272A38"/>
</g>
<g id="element-1_3">
<rect id="rect_12" x="28.5" y="356.5" width="113" height="39" rx="1.5" fill="#1C1F2B" stroke="#272A38"/>
<text id="text_9" fill="#606580" xml:space="preserve" style="white-space: pre" font-family="Tahoma" font-size="12" letter-spacing="0em"><tspan x="48" y="373.764">&#x41f;&#x440;&#x438;&#x433;&#x43e;&#x442;&#x43e;&#x432;&#x43b;&#x435;&#x43d;&#x438;&#x435;&#10;</tspan><tspan x="48" y="387.764">&#x438;&#x437; &#x43b;. 417</tspan></text>
<circle id="circle_3" cx="28" cy="376" r="11.5" fill="#1C1F2B" stroke="#272A38"/>
<circle id="point_21" cx="142" cy="376.5" r="3.5" fill="#1C1F2B" stroke="#272A38"/>
<g id="arrow-group_3">
<g id="arrow_double_right_3" clip-path="url(#clip2)">
<rect width="10" height="10" transform="translate(23.5 371)" fill="#1C1F2B"/>
<g id="Group_7">
<g id="Group_8">
<path id="arrow_5" d="M24.1875 371.625L28.5625 376L24.1875 380.375" stroke="#606580" stroke-miterlimit="10" stroke-linecap="round" stroke-linejoin="round"/>
</g>
<g id="Group_9">
<path id="arrow_6" d="M28.4375 371.625L32.8125 376L28.4375 380.375" stroke="#606580" stroke-miterlimit="10" stroke-linecap="round" stroke-linejoin="round"/>
</g>
</g>
</g>
</g>
</g>
<g id="element-3_15">
<path id="rect_13" d="M283 600C283 599.172 283.672 598.5 284.5 598.5H456.5C457.328 598.5 458 599.172 458 600V634.5H283V600Z" fill="#1C1F2B" stroke="#272A38"/>
<path id="rect_14" d="M283 656C283 656.828 283.672 657.5 284.5 657.5H456.5C457.328 657.5 458 656.828 458 656V634.5H283V656Z" fill="#1C1F2B" stroke="#272A38"/>
<text id="text_10" fill="#606580" xml:space="preserve" style="white-space: pre" font-family="Tahoma" font-size="12" letter-spacing="0em"><tspan x="292.5" y="613.764">&#x421;&#x43c;&#x435;&#x441;&#x438; &#x43a;&#x43e;&#x43c;&#x43f;&#x43e;&#x43d;&#x435;&#x43d;&#x442;&#x43e;&#x432; &#x430;&#x432;&#x438;&#x430;&#x446;.&#10;</tspan><tspan x="292.5" y="627.764">&#x431;&#x435;&#x43d;&#x437;&#x438;&#x43d;&#x430; &#x43c;&#x430;&#x440;&#x43a;&#x430; &#x411;</tspan></text>
<text id="text_value_7" fill="#606580" xml:space="preserve" style="white-space: pre" font-family="Tahoma" font-size="12" letter-spacing="0em"><tspan x="292.5" y="649.764">0 &#x442;&#x43d;</tspan></text>
<text id="text_percent_4" fill="#606580" xml:space="preserve" style="white-space: pre" font-family="Tahoma" font-size="12" letter-spacing="0em"><tspan x="327.5" y="649.764">0%</tspan></text>
<path id="point_22" d="M286.414 627C286.414 628.938 284.861 630.5 282.957 630.5C281.053 630.5 279.5 628.938 279.5 627C279.5 625.062 281.053 623.5 282.957 623.5C284.861 623.5 286.414 625.062 286.414 627Z" fill="#1C1F2B" stroke="#272A38"/>
<path id="point_23" d="M461.5 627C461.5 628.938 459.947 630.5 458.043 630.5C456.139 630.5 454.586 628.938 454.586 627C454.586 625.062 456.139 623.5 458.043 623.5C459.947 623.5 461.5 625.062 461.5 627Z" fill="#1C1F2B" stroke="#272A38"/>
</g>
<g id="element-2_9">
<g id="rect_15">
<mask id="path-89-inside-1" fill="white">
<path fill-rule="evenodd" clip-rule="evenodd" d="M168.711 638.979C168.476 638.993 168.239 639 168 639C161.373 639 156 633.627 156 627C156 620.373 161.373 615 168 615C168.239 615 168.476 615.007 168.711 615.021C168.805 615.007 168.902 615 169 615H250C251.105 615 252 615.895 252 617V637C252 638.105 251.105 639 250 639H169C168.902 639 168.805 638.993 168.711 638.979Z"/>
</mask>
<path fill-rule="evenodd" clip-rule="evenodd" d="M168.711 638.979C168.476 638.993 168.239 639 168 639C161.373 639 156 633.627 156 627C156 620.373 161.373 615 168 615C168.239 615 168.476 615.007 168.711 615.021C168.805 615.007 168.902 615 169 615H250C251.105 615 252 615.895 252 617V637C252 638.105 251.105 639 250 639H169C168.902 639 168.805 638.993 168.711 638.979Z" fill="#1C1F2B"/>
<path d="M168.711 638.979L168.854 637.99L168.754 637.975L168.653 637.981L168.711 638.979ZM168.711 615.021L168.653 616.019L168.754 616.025L168.854 616.01L168.711 615.021ZM168.653 637.981C168.437 637.994 168.219 638 168 638V640C168.258 640 168.515 639.992 168.769 639.978L168.653 637.981ZM168 638C161.925 638 157 633.075 157 627H155C155 634.18 160.82 640 168 640V638ZM157 627C157 620.925 161.925 616 168 616V614C160.82 614 155 619.82 155 627H157ZM168 616C168.219 616 168.437 616.006 168.653 616.019L168.769 614.022C168.515 614.008 168.258 614 168 614V616ZM168.854 616.01C168.901 616.004 168.95 616 169 616V614C168.854 614 168.709 614.011 168.568 614.031L168.854 616.01ZM169 616H250V614H169V616ZM250 616C250.552 616 251 616.448 251 617H253C253 615.343 251.657 614 250 614V616ZM251 617V637H253V617H251ZM251 637C251 637.552 250.552 638 250 638V640C251.657 640 253 638.657 253 637H251ZM250 638H169V640H250V638ZM169 638C168.95 638 168.901 637.996 168.854 637.99L168.568 639.969C168.709 639.989 168.854 640 169 640V638Z" fill="#272A38" mask="url(#path-89-inside-1)"/>
</g>
<text id="text_11" fill="#606580" xml:space="preserve" style="white-space: pre" font-family="Tahoma" font-size="14" letter-spacing="0em"><tspan x="170" y="632.058">FR-91</tspan></text>
<circle id="point_24" cx="251.5" cy="627" r="3.5" fill="#1C1F2B" stroke="#272A38"/>
</g>
<path id="line_266" d="M146 627.5L156 627.5L156 626.5L146 626.5L146 627.5Z" fill="#272A38"/>
<g id="element-1_6">
<rect id="rect_16" x="29.5" y="615.5" width="113" height="23" rx="1.5" fill="#1C1F2B" stroke="#272A38"/>
<text id="text_12" fill="#606580" xml:space="preserve" style="white-space: pre" font-family="Tahoma" font-size="12" letter-spacing="0em"><tspan x="49" y="631.764">&#x41f;&#x435;&#x440;&#x435;&#x43a;&#x430;&#x447;&#x43a;&#x430;</tspan></text>
<circle id="circle_4" cx="30" cy="627" r="11.5" fill="#1C1F2B" stroke="#272A38"/>
<circle id="point_25" cx="142" cy="627.5" r="3.5" fill="#1C1F2B" stroke="#272A38"/>
<g id="arrow-group_4">
<g id="arrow_double_right_4" clip-path="url(#clip3)">
<rect width="10" height="10" transform="translate(25.5 622)" fill="#1C1F2B"/>
<g id="Group_10">
<g id="Group_11">
<path id="arrow_7" d="M26.1875 622.625L30.5625 627L26.1875 631.375" stroke="#606580" stroke-miterlimit="10" stroke-linecap="round" stroke-linejoin="round"/>
</g>
<g id="Group_12">
<path id="arrow_8" d="M30.4375 622.625L34.8125 627L30.4375 631.375" stroke="#606580" stroke-miterlimit="10" stroke-linecap="round" stroke-linejoin="round"/>
</g>
</g>
</g>
</g>
</g>
<path id="line_267" d="M256 627.5H279V626.5H256V627.5Z" fill="#272A38"/>
<g id="element-3_13">
<path id="rect_17" d="M283 424C283 423.172 283.672 422.5 284.5 422.5H456.5C457.328 422.5 458 423.172 458 424V458.5H283V424Z" fill="#1C1F2B" stroke="#272A38"/>
<path id="rect_18" d="M283 480C283 480.828 283.672 481.5 284.5 481.5H456.5C457.328 481.5 458 480.828 458 480V458.5H283V480Z" fill="#1C1F2B" stroke="#272A38"/>
<text id="text_13" fill="#606580" xml:space="preserve" style="white-space: pre" font-family="Tahoma" font-size="12" letter-spacing="0em"><tspan x="292.5" y="437.764">&#x421;&#x43c;&#x435;&#x441;&#x438; &#x43a;&#x43e;&#x43c;&#x43f;&#x43e;&#x43d;&#x435;&#x43d;&#x442;&#x43e;&#x432; &#x430;&#x432;&#x438;&#x430;&#x446;.&#10;</tspan><tspan x="292.5" y="451.764">&#x431;&#x435;&#x43d;&#x437;&#x438;&#x43d;&#x430; &#x43c;&#x430;&#x440;&#x43a;&#x430; &#x411;</tspan></text>
<text id="text_value_8" fill="#606580" xml:space="preserve" style="white-space: pre" font-family="Tahoma" font-size="12" letter-spacing="0em"><tspan x="292.5" y="473.764">0 &#x442;&#x43d;</tspan></text>
<text id="text_percent_5" fill="#606580" xml:space="preserve" style="white-space: pre" font-family="Tahoma" font-size="12" letter-spacing="0em"><tspan x="327.5" y="473.764">0%</tspan></text>
<path id="point_26" d="M286.414 451C286.414 452.938 284.861 454.5 282.957 454.5C281.053 454.5 279.5 452.938 279.5 451C279.5 449.062 281.053 447.5 282.957 447.5C284.861 447.5 286.414 449.062 286.414 451Z" fill="#1C1F2B" stroke="#272A38"/>
<path id="point_27" d="M461.5 451C461.5 452.938 459.947 454.5 458.043 454.5C456.139 454.5 454.586 452.938 454.586 451C454.586 449.062 456.139 447.5 458.043 447.5C459.947 447.5 461.5 449.062 461.5 451Z" fill="#1C1F2B" stroke="#272A38"/>
</g>
<g id="element-2_8">
<g id="rect_19">
<mask id="path-108-inside-2" fill="white">
<path fill-rule="evenodd" clip-rule="evenodd" d="M168.711 462.979C168.476 462.993 168.239 463 168 463C161.373 463 156 457.627 156 451C156 444.373 161.373 439 168 439C168.239 439 168.476 439.007 168.711 439.021C168.805 439.007 168.902 439 169 439H250C251.105 439 252 439.895 252 441V461C252 462.105 251.105 463 250 463H169C168.902 463 168.805 462.993 168.711 462.979Z"/>
</mask>
<path fill-rule="evenodd" clip-rule="evenodd" d="M168.711 462.979C168.476 462.993 168.239 463 168 463C161.373 463 156 457.627 156 451C156 444.373 161.373 439 168 439C168.239 439 168.476 439.007 168.711 439.021C168.805 439.007 168.902 439 169 439H250C251.105 439 252 439.895 252 441V461C252 462.105 251.105 463 250 463H169C168.902 463 168.805 462.993 168.711 462.979Z" fill="#1C1F2B"/>
<path d="M168.711 462.979L168.854 461.99L168.754 461.975L168.653 461.981L168.711 462.979ZM168.711 439.021L168.653 440.019L168.754 440.025L168.854 440.01L168.711 439.021ZM168.653 461.981C168.437 461.994 168.219 462 168 462V464C168.258 464 168.515 463.992 168.769 463.978L168.653 461.981ZM168 462C161.925 462 157 457.075 157 451H155C155 458.18 160.82 464 168 464V462ZM157 451C157 444.925 161.925 440 168 440V438C160.82 438 155 443.82 155 451H157ZM168 440C168.219 440 168.437 440.006 168.653 440.019L168.769 438.022C168.515 438.008 168.258 438 168 438V440ZM168.854 440.01C168.901 440.004 168.95 440 169 440V438C168.854 438 168.709 438.011 168.568 438.031L168.854 440.01ZM169 440H250V438H169V440ZM250 440C250.552 440 251 440.448 251 441H253C253 439.343 251.657 438 250 438V440ZM251 441V461H253V441H251ZM251 461C251 461.552 250.552 462 250 462V464C251.657 464 253 462.657 253 461H251ZM250 462H169V464H250V462ZM169 462C168.95 462 168.901 461.996 168.854 461.99L168.568 463.969C168.709 463.989 168.854 464 169 464V462Z" fill="#272A38" mask="url(#path-108-inside-2)"/>
</g>
<text id="text_14" fill="#606580" xml:space="preserve" style="white-space: pre" font-family="Tahoma" font-size="14" letter-spacing="0em"><tspan x="170" y="456.058">FR-91</tspan></text>
<circle id="point_28" cx="251.5" cy="451" r="3.5" fill="#1C1F2B" stroke="#272A38"/>
</g>
<path id="line_263" d="M146 451.5L151 451.5L151 450.5L146 450.5L146 451.5ZM151 451.5L156 451.5L156 450.5L151 450.5L151 451.5Z" fill="#272A38"/>
<g id="element-1_4">
<rect id="rect_20" x="29.5" y="439.5" width="113" height="23" rx="1.5" fill="#1C1F2B" stroke="#272A38"/>
<text id="text_15" fill="#606580" xml:space="preserve" style="white-space: pre" font-family="Tahoma" font-size="12" letter-spacing="0em"><tspan x="49" y="455.764">&#x41f;&#x435;&#x440;&#x435;&#x43a;&#x430;&#x447;&#x43a;&#x430;</tspan></text>
<circle id="circle_5" cx="30" cy="451" r="11.5" fill="#1C1F2B" stroke="#272A38"/>
<circle id="point_29" cx="142" cy="451.5" r="3.5" fill="#1C1F2B" stroke="#272A38"/>
<g id="arrow-group_5">
<g id="arrow_double_right_5" clip-path="url(#clip4)">
<rect width="10" height="10" transform="translate(25.5 446)" fill="#1C1F2B"/>
<g id="Group_13">
<g id="Group_14">
<path id="arrow_9" d="M26.1875 446.625L30.5625 451L26.1875 455.375" stroke="#606580" stroke-miterlimit="10" stroke-linecap="round" stroke-linejoin="round"/>
</g>
<g id="Group_15">
<path id="arrow_10" d="M30.4375 446.625L34.8125 451L30.4375 455.375" stroke="#606580" stroke-miterlimit="10" stroke-linecap="round" stroke-linejoin="round"/>
</g>
</g>
</g>
</g>
</g>
<path id="line_264" d="M256 451.5H279V450.5H256V451.5Z" fill="#272A38"/>
<g id="element-3_11">
<path id="rect_21" d="M283 248C283 247.172 283.672 246.5 284.5 246.5H456.5C457.328 246.5 458 247.172 458 248V282.5H283V248Z" fill="#1C1F2B" stroke="#272A38"/>
<path id="rect_22" d="M283 304C283 304.828 283.672 305.5 284.5 305.5H456.5C457.328 305.5 458 304.828 458 304V282.5H283V304Z" fill="#1C1F2B" stroke="#272A38"/>
<text id="text_16" fill="#606580" xml:space="preserve" style="white-space: pre" font-family="Tahoma" font-size="12" letter-spacing="0em"><tspan x="292.5" y="261.764">&#x421;&#x43c;&#x435;&#x441;&#x438; &#x43a;&#x43e;&#x43c;&#x43f;&#x43e;&#x43d;&#x435;&#x43d;&#x442;&#x43e;&#x432; &#x430;&#x432;&#x438;&#x430;&#x446;.&#10;</tspan><tspan x="292.5" y="275.764">&#x431;&#x435;&#x43d;&#x437;&#x438;&#x43d;&#x430; &#x43c;&#x430;&#x440;&#x43a;&#x430; &#x411;</tspan></text>
<text id="text_value_9" fill="#606580" xml:space="preserve" style="white-space: pre" font-family="Tahoma" font-size="12" letter-spacing="0em"><tspan x="292.5" y="297.764">0 &#x442;&#x43d;</tspan></text>
<text id="text_percent_6" fill="#606580" xml:space="preserve" style="white-space: pre" font-family="Tahoma" font-size="12" letter-spacing="0em"><tspan x="327.5" y="297.764">0%</tspan></text>
<path id="point_30" d="M286.414 275C286.414 276.938 284.861 278.5 282.957 278.5C281.053 278.5 279.5 276.938 279.5 275C279.5 273.062 281.053 271.5 282.957 271.5C284.861 271.5 286.414 273.062 286.414 275Z" fill="#1C1F2B" stroke="#272A38"/>
<path id="point_31" d="M461.5 275C461.5 276.938 459.947 278.5 458.043 278.5C456.139 278.5 454.586 276.938 454.586 275C454.586 273.062 456.139 271.5 458.043 271.5C459.947 271.5 461.5 273.062 461.5 275Z" fill="#1C1F2B" stroke="#272A38"/>
</g>
<g id="element-2_7">
<g id="rect_23">
<mask id="path-127-inside-3" fill="white">
<path fill-rule="evenodd" clip-rule="evenodd" d="M168.711 286.979C168.476 286.993 168.239 287 168 287C161.373 287 156 281.627 156 275C156 268.373 161.373 263 168 263C168.239 263 168.476 263.007 168.711 263.021C168.805 263.007 168.902 263 169 263H250C251.105 263 252 263.895 252 265V285C252 286.105 251.105 287 250 287H169C168.902 287 168.805 286.993 168.711 286.979Z"/>
</mask>
<path fill-rule="evenodd" clip-rule="evenodd" d="M168.711 286.979C168.476 286.993 168.239 287 168 287C161.373 287 156 281.627 156 275C156 268.373 161.373 263 168 263C168.239 263 168.476 263.007 168.711 263.021C168.805 263.007 168.902 263 169 263H250C251.105 263 252 263.895 252 265V285C252 286.105 251.105 287 250 287H169C168.902 287 168.805 286.993 168.711 286.979Z" fill="#1C1F2B"/>
<path d="M168.711 286.979L168.854 285.99L168.754 285.975L168.653 285.981L168.711 286.979ZM168.711 263.021L168.653 264.019L168.754 264.025L168.854 264.01L168.711 263.021ZM168.653 285.981C168.437 285.994 168.219 286 168 286V288C168.258 288 168.515 287.992 168.769 287.978L168.653 285.981ZM168 286C161.925 286 157 281.075 157 275H155C155 282.18 160.82 288 168 288V286ZM157 275C157 268.925 161.925 264 168 264V262C160.82 262 155 267.82 155 275H157ZM168 264C168.219 264 168.437 264.006 168.653 264.019L168.769 262.022C168.515 262.008 168.258 262 168 262V264ZM168.854 264.01C168.901 264.004 168.95 264 169 264V262C168.854 262 168.709 262.011 168.568 262.031L168.854 264.01ZM169 264H250V262H169V264ZM250 264C250.552 264 251 264.448 251 265H253C253 263.343 251.657 262 250 262V264ZM251 265V285H253V265H251ZM251 285C251 285.552 250.552 286 250 286V288C251.657 288 253 286.657 253 285H251ZM250 286H169V288H250V286ZM169 286C168.95 286 168.901 285.996 168.854 285.99L168.568 287.969C168.709 287.989 168.854 288 169 288V286Z" fill="#272A38" mask="url(#path-127-inside-3)"/>
</g>
<text id="text_17" fill="#606580" xml:space="preserve" style="white-space: pre" font-family="Tahoma" font-size="14" letter-spacing="0em"><tspan x="170" y="280.058">FR-91</tspan></text>
<circle id="point_32" cx="251.5" cy="275" r="3.5" fill="#1C1F2B" stroke="#272A38"/>
</g>
<path id="line_260" d="M146 275.5L156 275.5L156 274.5L146 274.5L146 275.5Z" fill="#272A38"/>
<g id="element-1_2">
<rect id="rect_24" x="29.5" y="263.5" width="113" height="23" rx="1.5" fill="#1C1F2B" stroke="#272A38"/>
<text id="text_18" fill="#606580" xml:space="preserve" style="white-space: pre" font-family="Tahoma" font-size="12" letter-spacing="0em"><tspan x="49" y="279.764">&#x41f;&#x435;&#x440;&#x435;&#x43a;&#x430;&#x447;&#x43a;&#x430;</tspan></text>
<circle id="circle_6" cx="30" cy="275" r="11.5" fill="#1C1F2B" stroke="#272A38"/>
<circle id="point_33" cx="142" cy="275.5" r="3.5" fill="#1C1F2B" stroke="#272A38"/>
<g id="arrow-group_6">
<g id="arrow_double_right_6" clip-path="url(#clip5)">
<rect width="10" height="10" transform="translate(25.5 270)" fill="#1C1F2B"/>
<g id="Group_16">
<g id="Group_17">
<path id="arrow_11" d="M26.1875 270.625L30.5625 275L26.1875 279.375" stroke="#606580" stroke-miterlimit="10" stroke-linecap="round" stroke-linejoin="round"/>
</g>
<g id="Group_18">
<path id="arrow_12" d="M30.4375 270.625L34.8125 275L30.4375 279.375" stroke="#606580" stroke-miterlimit="10" stroke-linecap="round" stroke-linejoin="round"/>
</g>
</g>
</g>
</g>
</g>
<path id="line_261" d="M256 275.5H279V274.5H256V275.5Z" fill="#272A38"/>
<path id="line_265" d="M146 552.5H279V551.5H146V552.5Z" fill="#272A38"/>
<g id="element-3_25">
<path id="rect_25" d="M744 171C744 170.172 744.672 169.5 745.5 169.5H919.5C920.328 169.5 921 170.172 921 171V205.5H744V171Z" fill="#1C1F2B" stroke="#272A38"/>
<path id="rect_26" d="M744 227C744 227.828 744.672 228.5 745.5 228.5H919.5C920.328 228.5 921 227.828 921 227V205.5H744V227Z" fill="#1C1F2B" stroke="#272A38"/>
<text id="text_19" fill="#606580" xml:space="preserve" style="white-space: pre" font-family="Tahoma" font-size="12" letter-spacing="0em"><tspan x="753.5" y="184.764">&#x411;&#x435;&#x43d;&#x437;&#x438;&#x43d; &#x433;&#x430;&#x437;&#x43e;&#x432;&#x44b;&#x439; &#x441;&#x442;&#x430;&#x431;&#x438;&#x43b;&#x44c;&#x43d;&#x44b;&#x439;&#10;</tspan><tspan x="753.5" y="198.764">&#x43c;&#x430;&#x440;&#x43a;&#x430; &#x411;</tspan></text>
<text id="text_value_10" fill="#606580" xml:space="preserve" style="white-space: pre" font-family="Tahoma" font-size="12" letter-spacing="0em"><tspan x="753.5" y="220.764">0 &#x442;&#x43d;</tspan></text>
<text id="text_percent_7" fill="#606580" xml:space="preserve" style="white-space: pre" font-family="Tahoma" font-size="12" letter-spacing="0em"><tspan x="788.5" y="220.764">0%</tspan></text>
<circle id="point_34" cx="744" cy="198" r="3.5" fill="#1C1F2B" stroke="#272A38"/>
<circle id="point_35" cx="921" cy="198" r="3.5" fill="#1C1F2B" stroke="#272A38"/>
</g>
<g id="element-2_19">
<g id="rect_27">
<mask id="path-147-inside-4" fill="white">
<path fill-rule="evenodd" clip-rule="evenodd" d="M615.711 209.979C615.476 209.993 615.239 210 615 210C608.373 210 603 204.627 603 198C603 191.373 608.373 186 615 186C615.239 186 615.476 186.007 615.711 186.021C615.805 186.007 615.902 186 616 186H697C698.105 186 699 186.895 699 188V208C699 209.105 698.105 210 697 210H616C615.902 210 615.805 209.993 615.711 209.979Z"/>
</mask>
<path fill-rule="evenodd" clip-rule="evenodd" d="M615.711 209.979C615.476 209.993 615.239 210 615 210C608.373 210 603 204.627 603 198C603 191.373 608.373 186 615 186C615.239 186 615.476 186.007 615.711 186.021C615.805 186.007 615.902 186 616 186H697C698.105 186 699 186.895 699 188V208C699 209.105 698.105 210 697 210H616C615.902 210 615.805 209.993 615.711 209.979Z" fill="#1C1F2B"/>
<path d="M615.711 209.979L615.854 208.99L615.754 208.975L615.653 208.981L615.711 209.979ZM615.711 186.021L615.653 187.019L615.754 187.025L615.854 187.01L615.711 186.021ZM615.653 208.981C615.437 208.994 615.219 209 615 209V211C615.258 211 615.515 210.992 615.769 210.978L615.653 208.981ZM615 209C608.925 209 604 204.075 604 198H602C602 205.18 607.82 211 615 211V209ZM604 198C604 191.925 608.925 187 615 187V185C607.82 185 602 190.82 602 198H604ZM615 187C615.219 187 615.437 187.006 615.653 187.019L615.769 185.022C615.515 185.008 615.258 185 615 185V187ZM615.854 187.01C615.901 187.004 615.95 187 616 187V185C615.854 185 615.709 185.011 615.568 185.031L615.854 187.01ZM616 187H697V185H616V187ZM697 187C697.552 187 698 187.448 698 188H700C700 186.343 698.657 185 697 185V187ZM698 188V208H700V188H698ZM698 208C698 208.552 697.552 209 697 209V211C698.657 211 700 209.657 700 208H698ZM697 209H616V211H697V209ZM616 209C615.95 209 615.901 208.996 615.854 208.99L615.568 210.969C615.709 210.989 615.854 211 616 211V209Z" fill="#272A38" mask="url(#path-147-inside-4)"/>
</g>
<text id="text_20" fill="#606580" xml:space="preserve" style="white-space: pre" font-family="Tahoma" font-size="14" letter-spacing="0em"><tspan x="617" y="203.058">FRaviaJD91</tspan></text>
<circle id="point_36" cx="698.5" cy="198" r="3.5" fill="#1C1F2B" stroke="#272A38"/>
</g>
<g id="element-9_38">
<rect id="rect_28" x="1280.5" y="186.5" width="202" height="23" rx="1.5" fill="#1C1F2B" stroke="#272A38"/>
<text id="text_21" fill="#606580" xml:space="preserve" style="white-space: pre" font-family="Tahoma" font-size="12" letter-spacing="0em"><tspan x="1292" y="202.764">&#x41d;&#x430; &#x43e;&#x442;&#x433;&#x440;&#x443;&#x437;&#x43a;&#x443; (&#x436;/&#x434; &#x446;&#x441;)</tspan></text>
<circle id="circle_7" cx="1482" cy="198" r="11.5" fill="#1C1F2B" stroke="#272A38"/>
<g id="arrow-group_7" clip-path="url(#clip6)">
<g id="Group_19">
<g id="Group_20">
<path id="arrow_13" d="M1478.19 193.625L1482.56 198L1478.19 202.375" stroke="#606580" stroke-miterlimit="10" stroke-linecap="round" stroke-linejoin="round"/>
</g>
<g id="Group_21">
<path id="arrow_14" d="M1482.44 193.625L1486.81 198L1482.44 202.375" stroke="#606580" stroke-miterlimit="10" stroke-linecap="round" stroke-linejoin="round"/>
</g>
</g>
</g>
</g>
<path id="line_280" d="M702 198.5H740V197.5H702V198.5Z" fill="#272A38"/>
<path id="line_286" d="M925 198.5H1280V197.5H925V198.5Z" fill="#272A38"/>
<path id="line_279" d="M591 626.5H603V625.5H591V626.5Z" fill="#272A38"/>
<g id="element-3_30">
<path id="rect_29" d="M744 598C744 597.172 744.672 596.5 745.5 596.5H919.5C920.328 596.5 921 597.172 921 598V632.5H744V598Z" fill="#1C1F2B" stroke="#272A38"/>
<path id="rect_30" d="M744 654C744 654.828 744.672 655.5 745.5 655.5H919.5C920.328 655.5 921 654.828 921 654V632.5H744V654Z" fill="#1C1F2B" stroke="#272A38"/>
<text id="text_22" fill="#606580" xml:space="preserve" style="white-space: pre" font-family="Tahoma" font-size="12" letter-spacing="0em"><tspan x="753.5" y="611.764">&#x411;&#x435;&#x43d;&#x437;&#x438;&#x43d; &#x433;&#x430;&#x437;&#x43e;&#x432;&#x44b;&#x439; &#x441;&#x442;&#x430;&#x431;&#x438;&#x43b;&#x44c;&#x43d;&#x44b;&#x439;&#10;</tspan><tspan x="753.5" y="625.764">&#x43c;&#x430;&#x440;&#x43a;&#x430; &#x411;</tspan></text>
<text id="text_value_11" fill="#606580" xml:space="preserve" style="white-space: pre" font-family="Tahoma" font-size="12" letter-spacing="0em"><tspan x="753.5" y="647.764">0 &#x442;&#x43d;</tspan></text>
<text id="text_percent_8" fill="#606580" xml:space="preserve" style="white-space: pre" font-family="Tahoma" font-size="12" letter-spacing="0em"><tspan x="788.5" y="647.764">0%</tspan></text>
<circle id="point_37" cx="744" cy="625" r="3.5" fill="#1C1F2B" stroke="#272A38"/>
<circle id="point_38" cx="921" cy="625" r="3.5" fill="#1C1F2B" stroke="#272A38"/>
</g>
<g id="element-2_24">
<g id="rect_31">
<mask id="path-166-inside-5" fill="white">
<path fill-rule="evenodd" clip-rule="evenodd" d="M615.711 636.979C615.476 636.993 615.239 637 615 637C608.373 637 603 631.627 603 625C603 618.373 608.373 613 615 613C615.239 613 615.476 613.007 615.711 613.021C615.805 613.007 615.902 613 616 613H697C698.105 613 699 613.895 699 615V635C699 636.105 698.105 637 697 637H616C615.902 637 615.805 636.993 615.711 636.979Z"/>
</mask>
<path fill-rule="evenodd" clip-rule="evenodd" d="M615.711 636.979C615.476 636.993 615.239 637 615 637C608.373 637 603 631.627 603 625C603 618.373 608.373 613 615 613C615.239 613 615.476 613.007 615.711 613.021C615.805 613.007 615.902 613 616 613H697C698.105 613 699 613.895 699 615V635C699 636.105 698.105 637 697 637H616C615.902 637 615.805 636.993 615.711 636.979Z" fill="#1C1F2B"/>
<path d="M615.711 636.979L615.854 635.99L615.754 635.975L615.653 635.981L615.711 636.979ZM615.711 613.021L615.653 614.019L615.754 614.025L615.854 614.01L615.711 613.021ZM615.653 635.981C615.437 635.994 615.219 636 615 636V638C615.258 638 615.515 637.992 615.769 637.978L615.653 635.981ZM615 636C608.925 636 604 631.075 604 625H602C602 632.18 607.82 638 615 638V636ZM604 625C604 618.925 608.925 614 615 614V612C607.82 612 602 617.82 602 625H604ZM615 614C615.219 614 615.437 614.006 615.653 614.019L615.769 612.022C615.515 612.008 615.258 612 615 612V614ZM615.854 614.01C615.901 614.004 615.95 614 616 614V612C615.854 612 615.709 612.011 615.568 612.031L615.854 614.01ZM616 614H697V612H616V614ZM697 614C697.552 614 698 614.448 698 615H700C700 613.343 698.657 612 697 612V614ZM698 615V635H700V615H698ZM698 635C698 635.552 697.552 636 697 636V638C698.657 638 700 636.657 700 635H698ZM697 636H616V638H697V636ZM616 636C615.95 636 615.901 635.996 615.854 635.99L615.568 637.969C615.709 637.989 615.854 638 616 638V636Z" fill="#272A38" mask="url(#path-166-inside-5)"/>
</g>
<text id="text_23" fill="#606580" xml:space="preserve" style="white-space: pre" font-family="Tahoma" font-size="14" letter-spacing="0em"><tspan x="617" y="630.058">FRaviaJD91</tspan></text>
<circle id="point_39" cx="698.5" cy="625" r="3.5" fill="#1C1F2B" stroke="#272A38"/>
</g>
<path id="line_285" d="M702 625.5H740V624.5H702V625.5Z" fill="#272A38"/>
<path id="line_278" d="M591 551.5H603V550.5H591V551.5Z" fill="#272A38"/>
<g id="element-3_29">
<path id="rect_32" d="M744 523C744 522.172 744.672 521.5 745.5 521.5H919.5C920.328 521.5 921 522.172 921 523V557.5H744V523Z" fill="#1C1F2B" stroke="#272A38"/>
<path id="rect_33" d="M744 579C744 579.828 744.672 580.5 745.5 580.5H919.5C920.328 580.5 921 579.828 921 579V557.5H744V579Z" fill="#1C1F2B" stroke="#272A38"/>
<text id="text_24" fill="#606580" xml:space="preserve" style="white-space: pre" font-family="Tahoma" font-size="12" letter-spacing="0em"><tspan x="753.5" y="536.764">&#x411;&#x435;&#x43d;&#x437;&#x438;&#x43d; &#x433;&#x430;&#x437;&#x43e;&#x432;&#x44b;&#x439; &#x441;&#x442;&#x430;&#x431;&#x438;&#x43b;&#x44c;&#x43d;&#x44b;&#x439;&#10;</tspan><tspan x="753.5" y="550.764">&#x43c;&#x430;&#x440;&#x43a;&#x430; &#x411;</tspan></text>
<text id="text_value_12" fill="#606580" xml:space="preserve" style="white-space: pre" font-family="Tahoma" font-size="12" letter-spacing="0em"><tspan x="753.5" y="572.764">0 &#x442;&#x43d;</tspan></text>
<text id="text_percent_9" fill="#606580" xml:space="preserve" style="white-space: pre" font-family="Tahoma" font-size="12" letter-spacing="0em"><tspan x="788.5" y="572.764">0%</tspan></text>
<circle id="point_40" cx="744" cy="550" r="3.5" fill="#1C1F2B" stroke="#272A38"/>
<circle id="point_41" cx="921" cy="550" r="3.5" fill="#1C1F2B" stroke="#272A38"/>
</g>
<g id="element-2_23">
<g id="rect_34">
<mask id="path-179-inside-6" fill="white">
<path fill-rule="evenodd" clip-rule="evenodd" d="M615.711 561.979C615.476 561.993 615.239 562 615 562C608.373 562 603 556.627 603 550C603 543.373 608.373 538 615 538C615.239 538 615.476 538.007 615.711 538.021C615.805 538.007 615.902 538 616 538H697C698.105 538 699 538.895 699 540V560C699 561.105 698.105 562 697 562H616C615.902 562 615.805 561.993 615.711 561.979Z"/>
</mask>
<path fill-rule="evenodd" clip-rule="evenodd" d="M615.711 561.979C615.476 561.993 615.239 562 615 562C608.373 562 603 556.627 603 550C603 543.373 608.373 538 615 538C615.239 538 615.476 538.007 615.711 538.021C615.805 538.007 615.902 538 616 538H697C698.105 538 699 538.895 699 540V560C699 561.105 698.105 562 697 562H616C615.902 562 615.805 561.993 615.711 561.979Z" fill="#1C1F2B"/>
<path d="M615.711 561.979L615.854 560.99L615.754 560.975L615.653 560.981L615.711 561.979ZM615.711 538.021L615.653 539.019L615.754 539.025L615.854 539.01L615.711 538.021ZM615.653 560.981C615.437 560.994 615.219 561 615 561V563C615.258 563 615.515 562.992 615.769 562.978L615.653 560.981ZM615 561C608.925 561 604 556.075 604 550H602C602 557.18 607.82 563 615 563V561ZM604 550C604 543.925 608.925 539 615 539V537C607.82 537 602 542.82 602 550H604ZM615 539C615.219 539 615.437 539.006 615.653 539.019L615.769 537.022C615.515 537.008 615.258 537 615 537V539ZM615.854 539.01C615.901 539.004 615.95 539 616 539V537C615.854 537 615.709 537.011 615.568 537.031L615.854 539.01ZM616 539H697V537H616V539ZM697 539C697.552 539 698 539.448 698 540H700C700 538.343 698.657 537 697 537V539ZM698 540V560H700V540H698ZM698 560C698 560.552 697.552 561 697 561V563C698.657 563 700 561.657 700 560H698ZM697 561H616V563H697V561ZM616 561C615.95 561 615.901 560.996 615.854 560.99L615.568 562.969C615.709 562.989 615.854 563 616 563V561Z" fill="#272A38" mask="url(#path-179-inside-6)"/>
</g>
<text id="text_25" fill="#606580" xml:space="preserve" style="white-space: pre" font-family="Tahoma" font-size="14" letter-spacing="0em"><tspan x="617" y="555.058">FRaviaJD91</tspan></text>
<circle id="point_42" cx="698.5" cy="550" r="3.5" fill="#1C1F2B" stroke="#272A38"/>
</g>
<g id="element-9_43">
<rect id="rect_35" x="1280.5" y="613.5" width="202" height="23" rx="1.5" fill="#1C1F2B" stroke="#272A38"/>
<circle id="circle_8" cx="1482" cy="625" r="11.5" fill="#1C1F2B" stroke="#272A38"/>
<g id="arrow-group_8" clip-path="url(#clip7)">
<g id="Group_22">
<g id="Group_23">
<path id="arrow_15" d="M1478.19 620.625L1482.56 625L1478.19 629.375" stroke="#606580" stroke-miterlimit="10" stroke-linecap="round" stroke-linejoin="round"/>
</g>
<g id="Group_24">
<path id="arrow_16" d="M1482.44 620.625L1486.81 625L1482.44 629.375" stroke="#606580" stroke-miterlimit="10" stroke-linecap="round" stroke-linejoin="round"/>
</g>
</g>
</g>
<text id="text_26" fill="#606580" xml:space="preserve" style="white-space: pre" font-family="Tahoma" font-size="12" letter-spacing="0em"><tspan x="1292" y="629.764">&#x41d;&#x430; &#x43e;&#x442;&#x433;&#x440;&#x443;&#x437;&#x43a;&#x443; (&#x436;/&#x434; &#x446;&#x441;)</tspan></text>
</g>
<g id="element-9_45">
<rect id="rect_36" x="1280.5" y="703.5" width="202" height="23" rx="1.5" fill="#1C1F2B" stroke="#272A38"/>
<text id="text_27" fill="#606580" xml:space="preserve" style="white-space: pre" font-family="Tahoma" font-size="12" letter-spacing="0em"><tspan x="1292" y="719.764">&#x41d;&#x430; &#x43e;&#x442;&#x433;&#x440;&#x443;&#x437;&#x43a;&#x443; (&#x436;/&#x434; &#x446;&#x441;)</tspan></text>
<circle id="circle_9" cx="1482" cy="715" r="11.5" fill="#1C1F2B" stroke="#272A38"/>
<g id="arrow-group_9" clip-path="url(#clip8)">
<g id="Group_25">
<g id="Group_26">
<path id="arrow_17" d="M1478.19 710.625L1482.56 715L1478.19 719.375" stroke="#606580" stroke-miterlimit="10" stroke-linecap="round" stroke-linejoin="round"/>
</g>
<g id="Group_27">
<path id="arrow_18" d="M1482.44 710.625L1486.81 715L1482.44 719.375" stroke="#606580" stroke-miterlimit="10" stroke-linecap="round" stroke-linejoin="round"/>
</g>
</g>
</g>
</g>
<g id="element-9_44">
<rect id="rect_37" x="1280.5" y="658.5" width="202" height="23" rx="1.5" fill="#1C1F2B" stroke="#272A38"/>
<text id="text_28" fill="#606580" xml:space="preserve" style="white-space: pre" font-family="Tahoma" font-size="12" letter-spacing="0em"><tspan x="1292" y="674.764">&#x41d;&#x430; &#x43e;&#x442;&#x433;&#x440;&#x443;&#x437;&#x43a;&#x443; (&#x436;/&#x434; &#x446;&#x441;)</tspan></text>
<circle id="circle_10" cx="1482" cy="670" r="11.5" fill="#1C1F2B" stroke="#272A38"/>
<g id="arrow-group_10" clip-path="url(#clip9)">
<g id="Group_28">
<g id="Group_29">
<path id="arrow_19" d="M1478.19 665.625L1482.56 670L1478.19 674.375" stroke="#606580" stroke-miterlimit="10" stroke-linecap="round" stroke-linejoin="round"/>
</g>
<g id="Group_30">
<path id="arrow_20" d="M1482.44 665.625L1486.81 670L1482.44 674.375" stroke="#606580" stroke-miterlimit="10" stroke-linecap="round" stroke-linejoin="round"/>
</g>
</g>
</g>
</g>
<g id="element-9_42">
<rect id="rect_38" x="1280.5" y="538.5" width="202" height="23" rx="1.5" fill="#1C1F2B" stroke="#272A38"/>
<text id="text_29" fill="#606580" xml:space="preserve" style="white-space: pre" font-family="Tahoma" font-size="12" letter-spacing="0em"><tspan x="1292" y="554.764">&#x41d;&#x430; &#x43e;&#x442;&#x433;&#x440;&#x443;&#x437;&#x43a;&#x443; (&#x436;/&#x434; &#x446;&#x441;)</tspan></text>
<circle id="circle_11" cx="1482" cy="550" r="11.5" fill="#1C1F2B" stroke="#272A38"/>
<g id="arrow-group_11" clip-path="url(#clip10)">
<g id="Group_31">
<g id="Group_32">
<path id="arrow_21" d="M1478.19 545.625L1482.56 550L1478.19 554.375" stroke="#606580" stroke-miterlimit="10" stroke-linecap="round" stroke-linejoin="round"/>
</g>
<g id="Group_33">
<path id="arrow_22" d="M1482.44 545.625L1486.81 550L1482.44 554.375" stroke="#606580" stroke-miterlimit="10" stroke-linecap="round" stroke-linejoin="round"/>
</g>
</g>
</g>
</g>
<path id="line_284" d="M702 550.5H740V549.5H702V550.5Z" fill="#272A38"/>
<path id="line_290" d="M925 550.5H1280V549.5H925V550.5Z" fill="#272A38"/>
<path id="line_277" d="M590 450.5H602V449.5H590V450.5Z" fill="#272A38"/>
<g id="element-3_28">
<path id="rect_39" d="M743 422C743 421.172 743.672 420.5 744.5 420.5H918.5C919.328 420.5 920 421.172 920 422V456.5H743V422Z" fill="#1C1F2B" stroke="#272A38"/>
<path id="rect_40" d="M743 478C743 478.828 743.672 479.5 744.5 479.5H918.5C919.328 479.5 920 478.828 920 478V456.5H743V478Z" fill="#1C1F2B" stroke="#272A38"/>
<text id="text_30" fill="#606580" xml:space="preserve" style="white-space: pre" font-family="Tahoma" font-size="12" letter-spacing="0em"><tspan x="752.5" y="435.764">&#x411;&#x435;&#x43d;&#x437;&#x438;&#x43d; &#x433;&#x430;&#x437;&#x43e;&#x432;&#x44b;&#x439; &#x441;&#x442;&#x430;&#x431;&#x438;&#x43b;&#x44c;&#x43d;&#x44b;&#x439;&#10;</tspan><tspan x="752.5" y="449.764">&#x43c;&#x430;&#x440;&#x43a;&#x430; &#x411;</tspan></text>
<text id="text_value_13" fill="#606580" xml:space="preserve" style="white-space: pre" font-family="Tahoma" font-size="12" letter-spacing="0em"><tspan x="752.5" y="471.764">0 &#x442;&#x43d;</tspan></text>
<text id="text_percent_10" fill="#606580" xml:space="preserve" style="white-space: pre" font-family="Tahoma" font-size="12" letter-spacing="0em"><tspan x="787.5" y="471.764">0%</tspan></text>
<circle id="point_43" cx="743" cy="449" r="3.5" fill="#1C1F2B" stroke="#272A38"/>
<circle id="point_44" cx="920" cy="449" r="3.5" fill="#1C1F2B" stroke="#272A38"/>
</g>
<g id="element-2_22">
<g id="rect_41">
<mask id="path-213-inside-7" fill="white">
<path fill-rule="evenodd" clip-rule="evenodd" d="M614.711 460.979C614.476 460.993 614.239 461 614 461C607.373 461 602 455.627 602 449C602 442.373 607.373 437 614 437C614.239 437 614.476 437.007 614.711 437.021C614.805 437.007 614.902 437 615 437H696C697.105 437 698 437.895 698 439V459C698 460.105 697.105 461 696 461H615C614.902 461 614.805 460.993 614.711 460.979Z"/>
</mask>
<path fill-rule="evenodd" clip-rule="evenodd" d="M614.711 460.979C614.476 460.993 614.239 461 614 461C607.373 461 602 455.627 602 449C602 442.373 607.373 437 614 437C614.239 437 614.476 437.007 614.711 437.021C614.805 437.007 614.902 437 615 437H696C697.105 437 698 437.895 698 439V459C698 460.105 697.105 461 696 461H615C614.902 461 614.805 460.993 614.711 460.979Z" fill="#1C1F2B"/>
<path d="M614.711 460.979L614.854 459.99L614.754 459.975L614.653 459.981L614.711 460.979ZM614.711 437.021L614.653 438.019L614.754 438.025L614.854 438.01L614.711 437.021ZM614.653 459.981C614.437 459.994 614.219 460 614 460V462C614.258 462 614.515 461.992 614.769 461.978L614.653 459.981ZM614 460C607.925 460 603 455.075 603 449H601C601 456.18 606.82 462 614 462V460ZM603 449C603 442.925 607.925 438 614 438V436C606.82 436 601 441.82 601 449H603ZM614 438C614.219 438 614.437 438.006 614.653 438.019L614.769 436.022C614.515 436.008 614.258 436 614 436V438ZM614.854 438.01C614.901 438.004 614.95 438 615 438V436C614.854 436 614.709 436.011 614.568 436.031L614.854 438.01ZM615 438H696V436H615V438ZM696 438C696.552 438 697 438.448 697 439H699C699 437.343 697.657 436 696 436V438ZM697 439V459H699V439H697ZM697 459C697 459.552 696.552 460 696 460V462C697.657 462 699 460.657 699 459H697ZM696 460H615V462H696V460ZM615 460C614.95 460 614.901 459.996 614.854 459.99L614.568 461.969C614.709 461.989 614.854 462 615 462V460Z" fill="#272A38" mask="url(#path-213-inside-7)"/>
</g>
<text id="text_31" fill="#606580" xml:space="preserve" style="white-space: pre" font-family="Tahoma" font-size="14" letter-spacing="0em"><tspan x="616" y="454.058">FRaviaJD91</tspan></text>
<circle id="point_45" cx="697.5" cy="449" r="3.5" fill="#1C1F2B" stroke="#272A38"/>
</g>
<path id="line_283" d="M701 449.5H739V448.5H701V449.5Z" fill="#272A38"/>
<path id="line_289" d="M924 449.5H1279V448.5H924V449.5Z" fill="#272A38"/>
<path id="line_276" d="M591 375.5H603V374.5H591V375.5Z" fill="#272A38"/>
<g id="element-3_27">
<path id="rect_42" d="M744 347C744 346.172 744.672 345.5 745.5 345.5H919.5C920.328 345.5 921 346.172 921 347V381.5H744V347Z" fill="#1C1F2B" stroke="#272A38"/>
<path id="rect_43" d="M744 403C744 403.828 744.672 404.5 745.5 404.5H919.5C920.328 404.5 921 403.828 921 403V381.5H744V403Z" fill="#1C1F2B" stroke="#272A38"/>
<text id="text_32" fill="#606580" xml:space="preserve" style="white-space: pre" font-family="Tahoma" font-size="12" letter-spacing="0em"><tspan x="753.5" y="360.764">&#x411;&#x435;&#x43d;&#x437;&#x438;&#x43d; &#x433;&#x430;&#x437;&#x43e;&#x432;&#x44b;&#x439; &#x441;&#x442;&#x430;&#x431;&#x438;&#x43b;&#x44c;&#x43d;&#x44b;&#x439;&#10;</tspan><tspan x="753.5" y="374.764">&#x43c;&#x430;&#x440;&#x43a;&#x430; &#x411;</tspan></text>
<text id="text_value_14" fill="#606580" xml:space="preserve" style="white-space: pre" font-family="Tahoma" font-size="12" letter-spacing="0em"><tspan x="753.5" y="396.764">0 &#x442;&#x43d;</tspan></text>
<text id="text_percent_11" fill="#606580" xml:space="preserve" style="white-space: pre" font-family="Tahoma" font-size="12" letter-spacing="0em"><tspan x="788.5" y="396.764">0%</tspan></text>
<circle id="point_46" cx="744" cy="374" r="3.5" fill="#1C1F2B" stroke="#272A38"/>
<circle id="point_47" cx="921" cy="374" r="3.5" fill="#1C1F2B" stroke="#272A38"/>
</g>
<g id="element-2_21">
<g id="rect_44">
<mask id="path-227-inside-8" fill="white">
<path fill-rule="evenodd" clip-rule="evenodd" d="M615.711 385.979C615.476 385.993 615.239 386 615 386C608.373 386 603 380.627 603 374C603 367.373 608.373 362 615 362C615.239 362 615.476 362.007 615.711 362.021C615.805 362.007 615.902 362 616 362H697C698.105 362 699 362.895 699 364V384C699 385.105 698.105 386 697 386H616C615.902 386 615.805 385.993 615.711 385.979Z"/>
</mask>
<path fill-rule="evenodd" clip-rule="evenodd" d="M615.711 385.979C615.476 385.993 615.239 386 615 386C608.373 386 603 380.627 603 374C603 367.373 608.373 362 615 362C615.239 362 615.476 362.007 615.711 362.021C615.805 362.007 615.902 362 616 362H697C698.105 362 699 362.895 699 364V384C699 385.105 698.105 386 697 386H616C615.902 386 615.805 385.993 615.711 385.979Z" fill="#1C1F2B"/>
<path d="M615.711 385.979L615.854 384.99L615.754 384.975L615.653 384.981L615.711 385.979ZM615.711 362.021L615.653 363.019L615.754 363.025L615.854 363.01L615.711 362.021ZM615.653 384.981C615.437 384.994 615.219 385 615 385V387C615.258 387 615.515 386.992 615.769 386.978L615.653 384.981ZM615 385C608.925 385 604 380.075 604 374H602C602 381.18 607.82 387 615 387V385ZM604 374C604 367.925 608.925 363 615 363V361C607.82 361 602 366.82 602 374H604ZM615 363C615.219 363 615.437 363.006 615.653 363.019L615.769 361.022C615.515 361.008 615.258 361 615 361V363ZM615.854 363.01C615.901 363.004 615.95 363 616 363V361C615.854 361 615.709 361.011 615.568 361.031L615.854 363.01ZM616 363H697V361H616V363ZM697 363C697.552 363 698 363.448 698 364H700C700 362.343 698.657 361 697 361V363ZM698 364V384H700V364H698ZM698 384C698 384.552 697.552 385 697 385V387C698.657 387 700 385.657 700 384H698ZM697 385H616V387H697V385ZM616 385C615.95 385 615.901 384.996 615.854 384.99L615.568 386.969C615.709 386.989 615.854 387 616 387V385Z" fill="#272A38" mask="url(#path-227-inside-8)"/>
</g>
<text id="text_33" fill="#606580" xml:space="preserve" style="white-space: pre" font-family="Tahoma" font-size="14" letter-spacing="0em"><tspan x="617" y="379.058">FRaviaJD91</tspan></text>
<circle id="point_48" cx="698.5" cy="374" r="3.5" fill="#1C1F2B" stroke="#272A38"/>
</g>
<g id="element-9_40">
<rect id="rect_45" x="1280.5" y="362.5" width="202" height="23" rx="1.5" fill="#1C1F2B" stroke="#272A38"/>
<text id="text_34" fill="#606580" xml:space="preserve" style="white-space: pre" font-family="Tahoma" font-size="12" letter-spacing="0em"><tspan x="1292" y="378.764">&#x41d;&#x430; &#x43e;&#x442;&#x433;&#x440;&#x443;&#x437;&#x43a;&#x443; (&#x436;/&#x434; &#x446;&#x441;)</tspan></text>
<circle id="circle_12" cx="1482" cy="374" r="11.5" fill="#1C1F2B" stroke="#272A38"/>
<g id="arrow-group_12" clip-path="url(#clip11)">
<g id="Group_34">
<g id="Group_35">
<path id="arrow_23" d="M1478.19 369.625L1482.56 374L1478.19 378.375" stroke="#606580" stroke-miterlimit="10" stroke-linecap="round" stroke-linejoin="round"/>
</g>
<g id="Group_36">
<path id="arrow_24" d="M1482.44 369.625L1486.81 374L1482.44 378.375" stroke="#606580" stroke-miterlimit="10" stroke-linecap="round" stroke-linejoin="round"/>
</g>
</g>
</g>
</g>
<path id="line_282" d="M702 374.5H740V373.5H702V374.5Z" fill="#272A38"/>
<path id="line_288" d="M925 374.5H1280V373.5H925V374.5Z" fill="#272A38"/>
<path id="line_275" d="M591 274.5H603V273.5H591V274.5Z" fill="#272A38"/>
<g id="element-3_26">
<path id="rect_46" d="M744 246C744 245.172 744.672 244.5 745.5 244.5H919.5C920.328 244.5 921 245.172 921 246V280.5H744V246Z" fill="#1C1F2B" stroke="#272A38"/>
<path id="rect_47" d="M744 302C744 302.828 744.672 303.5 745.5 303.5H919.5C920.328 303.5 921 302.828 921 302V280.5H744V302Z" fill="#1C1F2B" stroke="#272A38"/>
<text id="text_35" fill="#606580" xml:space="preserve" style="white-space: pre" font-family="Tahoma" font-size="12" letter-spacing="0em"><tspan x="753.5" y="259.764">&#x411;&#x435;&#x43d;&#x437;&#x438;&#x43d; &#x433;&#x430;&#x437;&#x43e;&#x432;&#x44b;&#x439; &#x441;&#x442;&#x430;&#x431;&#x438;&#x43b;&#x44c;&#x43d;&#x44b;&#x439;&#10;</tspan><tspan x="753.5" y="273.764">&#x43c;&#x430;&#x440;&#x43a;&#x430; &#x411;</tspan></text>
<text id="text_value_15" fill="#606580" xml:space="preserve" style="white-space: pre" font-family="Tahoma" font-size="12" letter-spacing="0em"><tspan x="753.5" y="295.764">0 &#x442;&#x43d;</tspan></text>
<text id="text_percent_12" fill="#606580" xml:space="preserve" style="white-space: pre" font-family="Tahoma" font-size="12" letter-spacing="0em"><tspan x="788.5" y="295.764">0%</tspan></text>
<circle id="point_49" cx="744" cy="273" r="3.5" fill="#1C1F2B" stroke="#272A38"/>
<circle id="point_50" cx="921" cy="273" r="3.5" fill="#1C1F2B" stroke="#272A38"/>
</g>
<g id="element-2_20">
<g id="rect_48">
<mask id="path-246-inside-9" fill="white">
<path fill-rule="evenodd" clip-rule="evenodd" d="M615.711 284.979C615.476 284.993 615.239 285 615 285C608.373 285 603 279.627 603 273C603 266.373 608.373 261 615 261C615.239 261 615.476 261.007 615.711 261.021C615.805 261.007 615.902 261 616 261H697C698.105 261 699 261.895 699 263V283C699 284.105 698.105 285 697 285H616C615.902 285 615.805 284.993 615.711 284.979Z"/>
</mask>
<path fill-rule="evenodd" clip-rule="evenodd" d="M615.711 284.979C615.476 284.993 615.239 285 615 285C608.373 285 603 279.627 603 273C603 266.373 608.373 261 615 261C615.239 261 615.476 261.007 615.711 261.021C615.805 261.007 615.902 261 616 261H697C698.105 261 699 261.895 699 263V283C699 284.105 698.105 285 697 285H616C615.902 285 615.805 284.993 615.711 284.979Z" fill="#1C1F2B"/>
<path d="M615.711 284.979L615.854 283.99L615.754 283.975L615.653 283.981L615.711 284.979ZM615.711 261.021L615.653 262.019L615.754 262.025L615.854 262.01L615.711 261.021ZM615.653 283.981C615.437 283.994 615.219 284 615 284V286C615.258 286 615.515 285.992 615.769 285.978L615.653 283.981ZM615 284C608.925 284 604 279.075 604 273H602C602 280.18 607.82 286 615 286V284ZM604 273C604 266.925 608.925 262 615 262V260C607.82 260 602 265.82 602 273H604ZM615 262C615.219 262 615.437 262.006 615.653 262.019L615.769 260.022C615.515 260.008 615.258 260 615 260V262ZM615.854 262.01C615.901 262.004 615.95 262 616 262V260C615.854 260 615.709 260.011 615.568 260.031L615.854 262.01ZM616 262H697V260H616V262ZM697 262C697.552 262 698 262.448 698 263H700C700 261.343 698.657 260 697 260V262ZM698 263V283H700V263H698ZM698 283C698 283.552 697.552 284 697 284V286C698.657 286 700 284.657 700 283H698ZM697 284H616V286H697V284ZM616 284C615.95 284 615.901 283.996 615.854 283.99L615.568 285.969C615.709 285.989 615.854 286 616 286V284Z" fill="#272A38" mask="url(#path-246-inside-9)"/>
</g>
<text id="text_36" fill="#606580" xml:space="preserve" style="white-space: pre" font-family="Tahoma" font-size="14" letter-spacing="0em"><tspan x="617" y="278.058">FRaviaJD91</tspan></text>
<circle id="point_51" cx="698.5" cy="273" r="3.5" fill="#1C1F2B" stroke="#272A38"/>
</g>
<path id="line_281" d="M702 273.5H740V272.5H702V273.5Z" fill="#272A38"/>
<path id="line_287" d="M925 273.5H1280V272.5H925V273.5Z" fill="#272A38"/>
<g id="element-9_39">
<circle id="circle_13" cx="1369" cy="273" r="11.5" fill="#1C1F2B" stroke="#272A38"/>
<rect id="rect_49" x="1280.5" y="261.5" width="89" height="23" rx="1.5" fill="#1C1F2B" stroke="#272A38"/>
<g id="arrow-group_13">
<g id="arrow_right_simple">
<g id="Group_37">
<g id="Group_38">
<path id="arrow_25" d="M1366.81 268.625L1371.19 273L1366.81 277.375" stroke="#606580" stroke-miterlimit="10" stroke-linecap="round" stroke-linejoin="round"/>
</g>
</g>
</g>
</g>
<text id="text_37" fill="#606580" xml:space="preserve" style="white-space: pre" font-family="Tahoma" font-size="12" letter-spacing="0em"><tspan x="1288" y="277.764">PLaviret</tspan></text>
</g>
<g id="element-9_41">
<circle id="circle_14" cx="1368" cy="449" r="11.5" fill="#1C1F2B" stroke="#272A38"/>
<rect id="rect_50" x="1279.5" y="437.5" width="89" height="23" rx="1.5" fill="#1C1F2B" stroke="#272A38"/>
<g id="arrow-group_14">
<g id="arrow_right_simple_2">
<g id="Group_39">
<g id="Group_40">
<path id="arrow_26" d="M1365.81 444.625L1370.19 449L1365.81 453.375" stroke="#606580" stroke-miterlimit="10" stroke-linecap="round" stroke-linejoin="round"/>
</g>
</g>
</g>
</g>
<text id="text_38" fill="#606580" xml:space="preserve" style="white-space: pre" font-family="Tahoma" font-size="12" letter-spacing="0em"><tspan x="1287" y="453.764">PLaviret</tspan></text>
</g>
<g id="element-5_33">
<rect id="rect_51" x="960.5" y="597.5" width="23" height="138" rx="1.5" fill="#1C1F2B" stroke="#272A38"/>
<text id="text_39" transform="translate(964.5 676.538) rotate(-90)" fill="#606580" xml:space="preserve" style="white-space: pre" font-family="Tahoma" font-size="12" letter-spacing="0em"><tspan x="0.425781" y="11.7637">PL1</tspan></text>
<circle id="point_52" cx="984" cy="625" r="3.5" fill="#1C1F2B" stroke="#272A38"/>
<circle id="point_53" cx="984" cy="715" r="3.5" fill="#1C1F2B" stroke="#272A38"/>
<circle id="point_54" cx="984" cy="670" r="3.5" fill="#1C1F2B" stroke="#272A38"/>
<circle id="point_55" cx="960" cy="684" r="3.5" fill="#1C1F2B" stroke="#272A38"/>
<circle id="point_56" cx="960" cy="724" r="3.5" fill="#1C1F2B" stroke="#272A38"/>
<circle id="point_57" cx="960" cy="625" r="3.5" fill="#1C1F2B" stroke="#272A38"/>
</g>
<g id="line_296">
<path id="Vector 332" d="M988 715.5H1014V714.5H988V715.5Z" fill="#272A38"/>
</g>
<path id="line_294" d="M988 625.5H1014V624.5H988V625.5Z" fill="#272A38"/>
<path id="line_297" d="M1213 625.5H1280V624.5H1213V625.5Z" fill="#272A38"/>
<path id="line_300" d="M1213 715.5H1280V714.5H1213V715.5Z" fill="#272A38"/>
<path id="line_291" d="M925 625.5L956 625.5L956 624.5L925 624.5L925 625.5Z" fill="#272A38"/>
<path id="line_293" d="M925 724.5L956 724.5L956 723.5L925 723.5L925 724.5Z" fill="#272A38"/>
<path id="line_292" d="M925 684.5L956 684.5L956 683.5L925 683.5L925 684.5Z" fill="#272A38"/>
<path id="line_295" d="M988 670.5H1006V669.5H988V670.5Z" fill="#272A38"/>
<path id="line_298" d="M1096 670.5H1112V669.5H1096V670.5Z" fill="#272A38"/>
<path id="line_299" d="M1261 670.5H1280V669.5H1261V670.5Z" fill="#272A38"/>
<g id="element-6_35">
<rect id="rect_52" x="1095.5" y="686.5" width="4" height="33" rx="1.5" transform="rotate(-180 1095.5 686.5)" fill="#1C1F2B" stroke="#272A38"/>
<rect id="rect_53" x="0.5" y="-0.5" width="4" height="33" rx="1.5" transform="matrix(1 -8.74228e-08 -8.74228e-08 -1 1006 686)" fill="#1C1F2B" stroke="#272A38"/>
<rect id="rect_54" x="1091.5" y="681.5" width="5" height="23" transform="rotate(-180 1091.5 681.5)" fill="#1C1F2B" stroke="#272A38"/>
<rect id="rect_55" x="0.5" y="-0.5" width="5" height="23" transform="matrix(1 -8.74228e-08 -8.74228e-08 -1 1010 681)" fill="#1C1F2B" stroke="#272A38"/>
<g id="rect_56">
<mask id="path-282-inside-10" fill="white">
<path fill-rule="evenodd" clip-rule="evenodd" d="M1020 654L1015 658L1015 682L1020 686H1082L1087 682V658L1082 654H1020Z"/>
</mask>
<path fill-rule="evenodd" clip-rule="evenodd" d="M1020 654L1015 658L1015 682L1020 686H1082L1087 682V658L1082 654H1020Z" fill="#1C1F2B"/>
<path d="M1015 658L1014.38 657.219L1014 657.519V658H1015ZM1020 654V653H1019.65L1019.38 653.219L1020 654ZM1015 682H1014L1014 682.481L1014.38 682.781L1015 682ZM1020 686L1019.38 686.781L1019.65 687H1020V686ZM1082 686V687H1082.35L1082.62 686.781L1082 686ZM1087 682L1087.62 682.781L1088 682.481V682H1087ZM1087 658H1088V657.519L1087.62 657.219L1087 658ZM1082 654L1082.62 653.219L1082.35 653H1082V654ZM1015.62 658.781L1020.62 654.781L1019.38 653.219L1014.38 657.219L1015.62 658.781ZM1016 682L1016 658H1014L1014 682H1016ZM1020.62 685.219L1015.62 681.219L1014.38 682.781L1019.38 686.781L1020.62 685.219ZM1082 685H1020V687H1082V685ZM1086.38 681.219L1081.38 685.219L1082.62 686.781L1087.62 682.781L1086.38 681.219ZM1086 658V682H1088V658H1086ZM1081.38 654.781L1086.38 658.781L1087.62 657.219L1082.62 653.219L1081.38 654.781ZM1020 655H1082V653H1020V655Z" fill="#272A38" mask="url(#path-282-inside-10)"/>
</g>
<text id="text_40" fill="#606580" xml:space="preserve" style="white-space: pre" font-family="Tahoma" font-size="14" letter-spacing="0em"><tspan x="1025.3" y="675.058">SysAVIA</tspan></text>
</g>
<g id="element-7_34">
<g id="rect_57">
<mask id="path-285-inside-11" fill="white">
<path fill-rule="evenodd" clip-rule="evenodd" d="M1026.71 636.979C1026.48 636.993 1026.24 637 1026 637C1019.37 637 1014 631.627 1014 625C1014 618.373 1019.37 613 1026 613C1026.24 613 1026.48 613.007 1026.71 613.021C1026.81 613.007 1026.9 613 1027 613H1208C1209.1 613 1210 613.895 1210 615V635C1210 636.105 1209.1 637 1208 637H1027C1026.9 637 1026.81 636.993 1026.71 636.979Z"/>
</mask>
<path fill-rule="evenodd" clip-rule="evenodd" d="M1026.71 636.979C1026.48 636.993 1026.24 637 1026 637C1019.37 637 1014 631.627 1014 625C1014 618.373 1019.37 613 1026 613C1026.24 613 1026.48 613.007 1026.71 613.021C1026.81 613.007 1026.9 613 1027 613H1208C1209.1 613 1210 613.895 1210 615V635C1210 636.105 1209.1 637 1208 637H1027C1026.9 637 1026.81 636.993 1026.71 636.979Z" fill="#1C1F2B"/>
<path d="M1026.71 636.979L1026.85 635.99L1026.75 635.975L1026.65 635.981L1026.71 636.979ZM1026.71 613.021L1026.65 614.019L1026.75 614.025L1026.85 614.01L1026.71 613.021ZM1026.65 635.981C1026.44 635.994 1026.22 636 1026 636V638C1026.26 638 1026.51 637.992 1026.77 637.978L1026.65 635.981ZM1026 636C1019.92 636 1015 631.075 1015 625H1013C1013 632.18 1018.82 638 1026 638V636ZM1015 625C1015 618.925 1019.92 614 1026 614V612C1018.82 612 1013 617.82 1013 625H1015ZM1026 614C1026.22 614 1026.44 614.006 1026.65 614.019L1026.77 612.022C1026.51 612.008 1026.26 612 1026 612V614ZM1026.85 614.01C1026.9 614.004 1026.95 614 1027 614V612C1026.85 612 1026.71 612.011 1026.57 612.031L1026.85 614.01ZM1027 614H1208V612H1027V614ZM1208 614C1208.55 614 1209 614.448 1209 615H1211C1211 613.343 1209.66 612 1208 612V614ZM1209 615V635H1211V615H1209ZM1209 635C1209 635.552 1208.55 636 1208 636V638C1209.66 638 1211 636.657 1211 635H1209ZM1208 636H1027V638H1208V636ZM1027 636C1026.95 636 1026.9 635.996 1026.85 635.99L1026.57 637.969C1026.71 637.989 1026.85 638 1027 638V636Z" fill="#272A38" mask="url(#path-285-inside-11)"/>
</g>
<g id="rect_58">
<path d="M1167.5 613.5H1208C1208.83 613.5 1209.5 614.172 1209.5 615V635C1209.5 635.828 1208.83 636.5 1208 636.5H1167.5V613.5Z" fill="#1C1F2B"/>
<path d="M1167.5 613.5H1208C1208.83 613.5 1209.5 614.172 1209.5 615V635C1209.5 635.828 1208.83 636.5 1208 636.5H1167.5V613.5Z" stroke="#272A38"/>
</g>
<text id="text_41" fill="#606580" xml:space="preserve" style="white-space: pre" font-family="Tahoma" font-size="14" letter-spacing="0em"><tspan x="1028" y="630.058">FRAVIAout</tspan></text>
<text id="text_value_16" fill="#606580" xml:space="preserve" style="white-space: pre" font-family="Tahoma" font-size="12" letter-spacing="0em"><tspan x="1177.34" y="629.764">0 &#x442;&#x43d;</tspan></text>
<circle id="point_58" cx="1209" cy="625" r="3.5" fill="#1C1F2B" stroke="#272A38"/>
</g>
<g id="element-7_37">
<g id="rect_59">
<mask id="path-291-inside-12" fill="white">
<path fill-rule="evenodd" clip-rule="evenodd" d="M1027.71 726.979C1027.48 726.993 1027.24 727 1027 727C1020.37 727 1015 721.627 1015 715C1015 708.373 1020.37 703 1027 703C1027.24 703 1027.48 703.007 1027.71 703.021C1027.81 703.007 1027.9 703 1028 703H1209C1210.1 703 1211 703.895 1211 705V725C1211 726.105 1210.1 727 1209 727H1028C1027.9 727 1027.81 726.993 1027.71 726.979Z"/>
</mask>
<path fill-rule="evenodd" clip-rule="evenodd" d="M1027.71 726.979C1027.48 726.993 1027.24 727 1027 727C1020.37 727 1015 721.627 1015 715C1015 708.373 1020.37 703 1027 703C1027.24 703 1027.48 703.007 1027.71 703.021C1027.81 703.007 1027.9 703 1028 703H1209C1210.1 703 1211 703.895 1211 705V725C1211 726.105 1210.1 727 1209 727H1028C1027.9 727 1027.81 726.993 1027.71 726.979Z" fill="#1C1F2B"/>
<path d="M1027.71 726.979L1027.85 725.99L1027.75 725.975L1027.65 725.981L1027.71 726.979ZM1027.71 703.021L1027.65 704.019L1027.75 704.025L1027.85 704.01L1027.71 703.021ZM1027.65 725.981C1027.44 725.994 1027.22 726 1027 726V728C1027.26 728 1027.51 727.992 1027.77 727.978L1027.65 725.981ZM1027 726C1020.92 726 1016 721.075 1016 715H1014C1014 722.18 1019.82 728 1027 728V726ZM1016 715C1016 708.925 1020.92 704 1027 704V702C1019.82 702 1014 707.82 1014 715H1016ZM1027 704C1027.22 704 1027.44 704.006 1027.65 704.019L1027.77 702.022C1027.51 702.008 1027.26 702 1027 702V704ZM1027.85 704.01C1027.9 704.004 1027.95 704 1028 704V702C1027.85 702 1027.71 702.011 1027.57 702.031L1027.85 704.01ZM1028 704H1209V702H1028V704ZM1209 704C1209.55 704 1210 704.448 1210 705H1212C1212 703.343 1210.66 702 1209 702V704ZM1210 705V725H1212V705H1210ZM1210 725C1210 725.552 1209.55 726 1209 726V728C1210.66 728 1212 726.657 1212 725H1210ZM1209 726H1028V728H1209V726ZM1028 726C1027.95 726 1027.9 725.996 1027.85 725.99L1027.57 727.969C1027.71 727.989 1027.85 728 1028 728V726Z" fill="#272A38" mask="url(#path-291-inside-12)"/>
</g>
<g id="rect_60">
<path d="M1168.5 703.5H1209C1209.83 703.5 1210.5 704.172 1210.5 705V725C1210.5 725.828 1209.83 726.5 1209 726.5H1168.5V703.5Z" fill="#1C1F2B"/>
<path d="M1168.5 703.5H1209C1209.83 703.5 1210.5 704.172 1210.5 705V725C1210.5 725.828 1209.83 726.5 1209 726.5H1168.5V703.5Z" stroke="#272A38"/>
</g>
<text id="text_42" fill="#606580" xml:space="preserve" style="white-space: pre" font-family="Tahoma" font-size="14" letter-spacing="0em"><tspan x="1029" y="720.058">FRAVIAout</tspan></text>
<text id="text_value_17" fill="#606580" xml:space="preserve" style="white-space: pre" font-family="Tahoma" font-size="12" letter-spacing="0em"><tspan x="1178.34" y="719.764">0 &#x442;&#x43d;</tspan></text>
<circle id="point_59" cx="1210" cy="715" r="3.5" fill="#1C1F2B" stroke="#272A38"/>
</g>
<g id="element-9_32">
<circle id="circle_15" cx="839" cy="724" r="11.5" transform="rotate(-180 839 724)" fill="#1C1F2B" stroke="#272A38"/>
<rect id="rect_61" x="838.5" y="712.5" width="82" height="23" rx="1.5" fill="#1C1F2B" stroke="#272A38"/>
<g id="arrow-group_15">
<g id="arrow_right_simple_3">
<g id="Group_41">
<g id="Group_42">
<path id="arrow_27" d="M836.812 719.625L841.188 724L836.812 728.375" stroke="#606580" stroke-miterlimit="10" stroke-linecap="round" stroke-linejoin="round"/>
</g>
</g>
</g>
</g>
<text id="text_43" fill="#606580" xml:space="preserve" style="white-space: pre" font-family="Tahoma" font-size="12" letter-spacing="0em"><tspan x="856" y="727.764">Fr92benz</tspan></text>
<circle id="point_60" cx="921" cy="724" r="3.5" fill="#1C1F2B" stroke="#272A38"/>
</g>
<g id="element-9_31">
<circle id="circle_16" cx="839" cy="683" r="11.5" transform="rotate(-180 839 683)" fill="#1C1F2B" stroke="#272A38"/>
<rect id="rect_62" x="838.5" y="671.5" width="82" height="23" rx="1.5" fill="#1C1F2B" stroke="#272A38"/>
<g id="arrow-group_16">
<g id="arrow_right_simple_4">
<g id="Group_43">
<g id="Group_44">
<path id="arrow_28" d="M836.812 678.625L841.188 683L836.812 687.375" stroke="#606580" stroke-miterlimit="10" stroke-linecap="round" stroke-linejoin="round"/>
</g>
</g>
</g>
</g>
<text id="text_44" fill="#606580" xml:space="preserve" style="white-space: pre" font-family="Tahoma" font-size="12" letter-spacing="0em"><tspan x="856" y="686.764">Fr92benz</tspan></text>
<circle id="point_61" cx="921" cy="683" r="3.5" fill="#1C1F2B" stroke="#272A38"/>
</g>
<g id="element-7_36">
<g id="rect_63">
<mask id="path-307-inside-13" fill="white">
<path fill-rule="evenodd" clip-rule="evenodd" d="M1125.71 681.979C1125.48 681.993 1125.24 682 1125 682C1118.37 682 1113 676.627 1113 670C1113 663.373 1118.37 658 1125 658C1125.24 658 1125.48 658.007 1125.71 658.021C1125.81 658.007 1125.9 658 1126 658H1257C1258.1 658 1259 658.895 1259 660V680C1259 681.105 1258.1 682 1257 682H1126C1125.9 682 1125.81 681.993 1125.71 681.979Z"/>
</mask>
<path fill-rule="evenodd" clip-rule="evenodd" d="M1125.71 681.979C1125.48 681.993 1125.24 682 1125 682C1118.37 682 1113 676.627 1113 670C1113 663.373 1118.37 658 1125 658C1125.24 658 1125.48 658.007 1125.71 658.021C1125.81 658.007 1125.9 658 1126 658H1257C1258.1 658 1259 658.895 1259 660V680C1259 681.105 1258.1 682 1257 682H1126C1125.9 682 1125.81 681.993 1125.71 681.979Z" fill="#1C1F2B"/>
<path d="M1125.71 681.979L1125.85 680.99L1125.75 680.975L1125.65 680.981L1125.71 681.979ZM1125.71 658.021L1125.65 659.019L1125.75 659.025L1125.85 659.01L1125.71 658.021ZM1125.65 680.981C1125.44 680.994 1125.22 681 1125 681V683C1125.26 683 1125.51 682.992 1125.77 682.978L1125.65 680.981ZM1125 681C1118.92 681 1114 676.075 1114 670H1112C1112 677.18 1117.82 683 1125 683V681ZM1114 670C1114 663.925 1118.92 659 1125 659V657C1117.82 657 1112 662.82 1112 670H1114ZM1125 659C1125.22 659 1125.44 659.006 1125.65 659.019L1125.77 657.022C1125.51 657.008 1125.26 657 1125 657V659ZM1125.85 659.01C1125.9 659.004 1125.95 659 1126 659V657C1125.85 657 1125.71 657.011 1125.57 657.031L1125.85 659.01ZM1126 659H1257V657H1126V659ZM1257 659C1257.55 659 1258 659.448 1258 660H1260C1260 658.343 1258.66 657 1257 657V659ZM1258 660V680H1260V660H1258ZM1258 680C1258 680.552 1257.55 681 1257 681V683C1258.66 683 1260 681.657 1260 680H1258ZM1257 681H1126V683H1257V681ZM1126 681C1125.95 681 1125.9 680.996 1125.85 680.99L1125.57 682.969C1125.71 682.989 1125.85 683 1126 683V681Z" fill="#272A38" mask="url(#path-307-inside-13)"/>
</g>
<rect id="rect_64" x="1215.5" y="658.5" width="43" height="23" rx="1.5" fill="#1C1F2B" stroke="#272A38"/>
<text id="text_45" fill="#606580" xml:space="preserve" style="white-space: pre" font-family="Tahoma" font-size="14" letter-spacing="0em"><tspan x="1127" y="675.058">FRAVIAout</tspan></text>
<text id="text_value_18" fill="#606580" xml:space="preserve" style="white-space: pre" font-family="Tahoma" font-size="12" letter-spacing="0em"><tspan x="1226.34" y="674.764">0 &#x442;&#x43d;</tspan></text>
<circle id="point_62" cx="1258.5" cy="670" r="3.5" fill="#1C1F2B" stroke="#272A38"/>
</g>
</g>
<defs>
<clipPath id="clip0">
<rect width="10" height="10" fill="white" transform="translate(23.5 195)"/>
</clipPath>
<clipPath id="clip1">
<rect width="10" height="10" fill="white" transform="translate(23.5 546)"/>
</clipPath>
<clipPath id="clip2">
<rect width="10" height="10" fill="white" transform="translate(23.5 371)"/>
</clipPath>
<clipPath id="clip3">
<rect width="10" height="10" fill="white" transform="translate(25.5 622)"/>
</clipPath>
<clipPath id="clip4">
<rect width="10" height="10" fill="white" transform="translate(25.5 446)"/>
</clipPath>
<clipPath id="clip5">
<rect width="10" height="10" fill="white" transform="translate(25.5 270)"/>
</clipPath>
<clipPath id="clip6">
<rect width="10" height="10" fill="white" transform="translate(1477.5 193)"/>
</clipPath>
<clipPath id="clip7">
<rect width="10" height="10" fill="white" transform="translate(1477.5 620)"/>
</clipPath>
<clipPath id="clip8">
<rect width="10" height="10" fill="white" transform="translate(1477.5 710)"/>
</clipPath>
<clipPath id="clip9">
<rect width="10" height="10" fill="white" transform="translate(1477.5 665)"/>
</clipPath>
<clipPath id="clip10">
<rect width="10" height="10" fill="white" transform="translate(1477.5 545)"/>
</clipPath>
<clipPath id="clip11">
<rect width="10" height="10" fill="white" transform="translate(1477.5 369)"/>
</clipPath>
</defs>
</svg>
