<svg xmlns="http://www.w3.org/2000/svg" viewBox="0 0 21.38 25.12"><defs><style>.bc51bcf2-b0a1-4e16-81d5-cf25ba5ff2b9{fill:#41a7f3;}.b968b9a1-1f3c-45bf-9e64-8345010ba265{fill:#fff;}</style></defs><title>work</title><g id="b6ad4d23-9ca7-42da-8084-b0964540f274" data-name="Слой 2"><g id="b76da562-72b4-4d04-b359-d8beb25f4e6b" data-name="Layer 1"><path class="bc51bcf2-b0a1-4e16-81d5-cf25ba5ff2b9" d="M21.06,19.78l-1.11-2a1.67,1.67,0,0,0-1.78,0c-1,.55-5.65,3.25-5.65,3.25a1.17,1.17,0,0,0-.43,1.54c.49,1,1.29,2.27,1.29,2.27s.24.68,1.9,0,5.78-3,5.78-3S21.79,21.14,21.06,19.78Z"/><path class="b968b9a1-1f3c-45bf-9e64-8345010ba265" d="M18.29,15.84a35.11,35.11,0,0,1-.55-5.22s-2.83-8.23-4.18-4.3c0,0-1.47-1.36-2.15.49,0,0-1.9-1.54-2.45.8l-.72-.73A4.47,4.47,0,1,0,4.47,9a4.45,4.45,0,0,0,2.18-.57c1.17,1.78,2.2,4,1.88,5.92,0,0-4.85-2.27-5,.55,0,0,3.81.25,5.71,3.2a17,17,0,0,0,3.32,1ZM6.27,5a8.14,8.14,0,0,0-.88-.78S3.61,3,3.92,5c0,0,.49.49,1.14,1.28a1.92,1.92,0,0,1-.59.1A1.87,1.87,0,1,1,6.34,4.47,1.92,1.92,0,0,1,6.27,5ZM7.69,6.33l-.77-.76a2.5,2.5,0,0,0,.25-1.1,2.7,2.7,0,1,0-2.7,2.7A2.64,2.64,0,0,0,5.6,6.91c.2.26.41.55.62.84a3.57,3.57,0,0,1-1.75.46A3.74,3.74,0,1,1,8.21,4.47,3.69,3.69,0,0,1,7.69,6.33Z"/></g></g></svg>