<svg xmlns="http://www.w3.org/2000/svg" fill="currentColor" viewBox="0 0 9.8 10.37" height="50%" width="50%">
    <path d="M3.17,10.37A3.14,3.14,0,0,1,1,9.47,3.13,3.13,0,0,1,0,7.24,3.17,3.17,0,0,1,.9,5L1,4.93,5.2.69A2.25,2.25,0,0,1,8.37.62a2.21,2.21,0,0,1,.69,1.57,2.17,2.17,0,0,1-.62,1.6l-.07.08L4.12,8.11a1.32,1.32,0,0,1-1.85,0,1.33,1.33,0,0,1-.41-.93,1.3,1.3,0,0,1,.36-.94l4-4a.4.4,0,1,1,.56.56L2.82,6.8a.53.53,0,0,0-.17.4.51.51,0,0,0,.16.37.53.53,0,0,0,.75,0L7.82,3.3a1.47,1.47,0,0,0,.45-1.09,1.42,1.42,0,0,0-.45-1,1.45,1.45,0,0,0-2.05.05L1.51,5.49A2.42,2.42,0,0,0,.79,7.23,2.38,2.38,0,0,0,4.87,8.86L9.13,4.61a.39.39,0,0,1,.55,0,.39.39,0,0,1,0,.56L5.43,9.42A3.15,3.15,0,0,1,3.17,10.37Z"/>
</svg>
