<svg width="17" height="12" viewBox="0 0 17 12" fill="none" xmlns="http://www.w3.org/2000/svg">
<path d="M6.50781 5.34998C6.50781 4.24998 7.40781 3.34998 8.50781 3.34998C9.60781 3.34998 10.5078 4.24998 10.5078 5.34998C10.5078 6.44998 9.60781 8.19998 8.50781 8.19998C7.40781 8.19998 6.50781 6.44998 6.50781 5.34998Z" stroke="#D7E2F2" stroke-miterlimit="10" stroke-linecap="round" stroke-linejoin="round"/>
<path d="M9.75778 7.54999C11.2078 7.99999 12.3078 9.29999 12.5078 10.85C12.5578 11.15 12.3078 11.4 12.0578 11.4H4.95778C4.65778 11.4 4.45778 11.15 4.50778 10.85C4.70778 9.29999 5.75778 8.04999 7.20778 7.54999" stroke="#D7E2F2" stroke-miterlimit="10" stroke-linecap="round" stroke-linejoin="round"/>
<path d="M11.0077 2.29998C11.0077 1.34998 11.7577 0.599976 12.7077 0.599976C13.6577 0.599976 14.4077 1.34998 14.4077 2.29998C14.4077 3.24998 13.6577 4.64998 12.7077 4.64998" stroke="#D7E2F2" stroke-miterlimit="10" stroke-linecap="round" stroke-linejoin="round"/>
<path d="M13.7077 4.09998C14.9077 4.49998 15.8577 5.54998 16.0077 6.84998C16.0577 7.09998 15.8577 7.29998 15.6077 7.29998H13.0577" stroke="#D7E2F2" stroke-miterlimit="10" stroke-linecap="round" stroke-linejoin="round"/>
<path d="M6.00771 2.29998C6.00771 1.34998 5.25771 0.599976 4.30771 0.599976C3.35771 0.599976 2.65771 1.34998 2.65771 2.29998C2.65771 3.24998 3.40771 4.64998 4.35771 4.64998" stroke="#D7E2F2" stroke-miterlimit="10" stroke-linecap="round" stroke-linejoin="round"/>
<path d="M3.30771 4.09998C2.10771 4.49998 1.15771 5.59998 1.00771 6.89998C0.957713 7.14998 1.15771 7.34998 1.40771 7.34998H3.95771" stroke="#D7E2F2" stroke-miterlimit="10" stroke-linecap="round" stroke-linejoin="round"/>
</svg>
