<svg xmlns="http://www.w3.org/2000/svg" fill="currentColor" viewBox="0 0 10.58 11.11" height="50%" width="50%">
    <path d="M10.43.05a.32.32,0,0,0-.36,0L.14,6.73A.34.34,0,0,0,0,7a.33.33,0,0,0,.21.27l2.84,1L4,10.9a.32.32,0,0,0,.29.21h0a.32.32,0,0,0,.29-.18l.76-1.59,3.37,1.35a.33.33,0,0,0,.29,0,.32.32,0,0,0,.16-.23L10.58.37A.36.36,0,0,0,10.43.05ZM4.33,10,3.61,8a.34.34,0,0,0-.2-.19L1,6.92,8.3,2l-4.49,5a.33.33,0,0,0,0,.46.35.35,0,0,0,.22.08.32.32,0,0,0,.24-.11L8.28,3,4.89,8.76h0v0Zm4.24,0L5.65,8.76l4-6.84Z"/>
</svg>
