<svg xmlns="http://www.w3.org/2000/svg" viewBox="0 0 14 11.39"><defs><style>.cls-1{fill:#8c99b2;fill-rule:evenodd;}</style></defs><title>Ресурс 1</title><g id="Слой_2" data-name="Слой 2"><g id="Layer_1" data-name="Layer 1"><path class="cls-1" d="M11.52,5.48a.86.86,0,0,0,.1.16.47.47,0,0,0,.23.18h0a4.27,4.27,0,0,1,1.48.73A1.89,1.89,0,0,1,14,8.09c0,1.46-3.24,1.56-3.69,1.57-.49,1.74-5.12,1.73-5.13,1.73h0S0,11.4,0,9.34A2.52,2.52,0,0,1,.89,7.28a6,6,0,0,1,2.05-1h0A1,1,0,0,0,3.39,6a1.44,1.44,0,0,0,.21-.43,2.79,2.79,0,0,1-.67-1,5.14,5.14,0,0,1-.32-1.92A2.51,2.51,0,0,1,3.36.76,2.54,2.54,0,0,1,5.18,0,2.56,2.56,0,0,1,7.75,2.57a5.35,5.35,0,0,1-.32,1.92,2.81,2.81,0,0,1-.68,1A1.25,1.25,0,0,0,7,6a.92.92,0,0,0,.44.32h0l.1,0a2.78,2.78,0,0,1,.42-.22c.23-.1.47-.19.73-.28h0a.55.55,0,0,0,.24-.18A1.14,1.14,0,0,0,9,5.48a2.38,2.38,0,0,1-.44-.71,4,4,0,0,1-.23-1.39A1.94,1.94,0,0,1,8.89,2a1.94,1.94,0,0,1,2.73,0h0a2,2,0,0,1,.57,1.37A3.78,3.78,0,0,1,12,4.77a2.19,2.19,0,0,1-.44.71Zm-7.08.58a2.39,2.39,0,0,1-.28.49,1.86,1.86,0,0,1-.91.65h0A5.3,5.3,0,0,0,1.52,8,1.6,1.6,0,0,0,1,9.34C1,10.4,5,10.42,5.17,10.42h0c.14,0,4.2,0,4.2-1.08A1.6,1.6,0,0,0,8.83,8,5.11,5.11,0,0,0,7.11,7.2h0a1.85,1.85,0,0,1-.92-.65,3,3,0,0,1-.28-.49l-.08,0h0a2.38,2.38,0,0,1-.65.1,2.51,2.51,0,0,1-.66-.1h0l-.08,0ZM6.52,4.14a4.34,4.34,0,0,0,.25-1.57,1.63,1.63,0,0,0-.46-1.13A1.59,1.59,0,0,0,5.18,1a1.57,1.57,0,0,0-1.13.46,1.6,1.6,0,0,0-.47,1.13,4.34,4.34,0,0,0,.25,1.57A1.76,1.76,0,0,0,4.47,5h0a1.26,1.26,0,0,0,.33.16h0a1.44,1.44,0,0,0,.37,0,1.5,1.5,0,0,0,.37,0h0A1.37,1.37,0,0,0,5.87,5h0a1.76,1.76,0,0,0,.64-.85Z"/></g></g></svg>