<svg xmlns="http://www.w3.org/2000/svg" viewBox="0 0 10 13.66"><defs><style>.cls-1{fill:#fdfcff;}</style></defs><title>delete-icon</title><g id="Слой_2" data-name="Слой 2"><g id="Слой_1-2" data-name="Слой 1"><path class="cls-1" d="M.62,3.75H9.39c0,.15,0,.29,0,.43L9,7.31C8.82,9.19,8.6,11.07,8.39,13a1.7,1.7,0,0,1-.09.39.5.5,0,0,1-.49.32H2.17c-.29,0-.5-.19-.55-.55s-.08-.73-.12-1.1C1.34,10.6,1.19,9.2,1,7.81.9,6.57.76,5.33.63,4.08A1.76,1.76,0,0,1,.62,3.75Zm2.95,8.08s0,0,0-.06c-.12-1.13-.25-2.26-.37-3.38C3.12,7.75,3,7.12,3,6.49S2.86,5.43,2.8,4.9a.39.39,0,0,0-.41-.34c-.25,0-.4.22-.37.52.15,1.31.29,2.63.43,3.94.11,1,.21,1.9.32,2.86a.4.4,0,0,0,.43.37A.42.42,0,0,0,3.57,11.83ZM8,5.07c0-.31-.14-.49-.36-.51A.42.42,0,0,0,7.18,5L6.91,7.44c-.15,1.44-.31,2.87-.47,4.31a.4.4,0,1,0,.79.09c.07-.59.13-1.19.2-1.79.11-1.08.23-2.16.35-3.23C7.84,6.21,7.91,5.61,8,5.07ZM5.4,8.43h0v-2c0-.47,0-.93,0-1.4a.39.39,0,0,0-.48-.42A.42.42,0,0,0,4.6,5V11.9a.43.43,0,0,0,.33.35A.39.39,0,0,0,5.35,12a.66.66,0,0,0,0-.28C5.4,10.63,5.4,9.53,5.4,8.43Z"/><path class="cls-1" d="M3.18,1.75v-1A.63.63,0,0,1,3.89,0H6.12a.64.64,0,0,1,.7.71c0,.32,0,.64,0,1,0,0,0,0,0,.05H9.27a.68.68,0,0,1,.65.41.67.67,0,0,1-.07.74.74.74,0,0,1-.64.28H.75A.73.73,0,0,1,0,2.7a.69.69,0,0,1,.25-.81,1.07,1.07,0,0,1,.46-.14c.73,0,1.47,0,2.2,0Zm1,0H5.81V1H4.18Z"/></g></g></svg>