<svg width="24" height="31" viewBox="0 0 24 31" fill="none" xmlns="http://www.w3.org/2000/svg">
<path d="M12.0773 0.456238C5.76293 0.456238 0.410645 4.81171 0.410645 10.4562C0.410645 13.9133 2.03101 15.9055 3.36782 17.2922C4.70463 18.6789 5.59583 19.3771 5.59583 21.3156C5.59583 21.6965 5.77306 22.0529 6.08194 22.2922C6.09713 22.2922 6.10726 22.2922 6.12245 22.2922C6.13258 22.3166 6.14777 22.3459 6.16296 22.3703C6.18828 22.3849 6.21866 22.3996 6.24398 22.4094C6.25917 22.424 6.2693 22.4338 6.28449 22.4484C6.4921 22.6047 6.75541 22.673 7.01365 22.6437L17.384 21.3937C17.5106 21.3791 17.6372 21.34 17.7486 21.2766C18.255 21.0764 18.579 20.593 18.5588 20.0656C18.5588 19.4064 18.7259 19.0939 19.0854 18.6594C19.4449 18.2248 20.0576 17.7512 20.7463 17.1359C22.1287 15.9055 23.744 13.9133 23.744 10.4562C23.744 4.81171 18.3917 0.456238 12.0773 0.456238ZM12.0773 2.95624C17.1714 2.95624 21.1514 6.34979 21.1514 10.4562C21.1514 13.2492 20.1741 14.2209 18.9639 15.3C18.3562 15.842 17.6727 16.3547 17.06 17.0969C16.5181 17.756 16.0979 18.6398 16.0067 19.675L13.09 19.9875C13.2369 19.2892 13.3736 18.2834 13.3736 16.7062C13.3736 11.9553 10.1481 12.1994 11.8343 7.44843C11.4444 11.1984 14.2648 11.9553 14.2648 16.0812C14.2648 16.0812 17.141 15.4416 17.141 11.9406C17.2726 9.19159 12.7356 7.08221 12.6039 4.83124C8.71504 6.95526 6.89213 9.46991 6.89213 12.7219C6.89213 18.4738 12.0773 15.7053 12.0773 17.3312C12.0773 18.7521 11.7937 19.6603 11.4697 20.2219L8.14791 20.6125C7.89473 18.2297 6.37563 16.799 5.23125 15.6125C3.97546 14.3088 3.00324 13.2492 3.00324 10.4562C3.00324 6.34979 6.98327 2.95624 12.0773 2.95624ZM17.141 22.1359L6.7706 23.3859C6.23385 23.4494 5.85408 23.923 5.9199 24.4406C5.98573 24.9582 6.47691 25.3244 7.01365 25.2609L17.384 24.0109C17.9208 23.9474 18.3005 23.4738 18.2347 22.9562C18.1689 22.4387 17.6777 22.0724 17.141 22.1359ZM17.222 24.7531C17.1967 24.7629 17.1663 24.7775 17.141 24.7922L6.7706 26.0422C6.38576 26.0275 6.0313 26.2375 5.8642 26.5695C5.69204 26.9064 5.74774 27.3019 5.99586 27.5851C6.24398 27.8683 6.64401 27.9855 7.01365 27.8781L17.384 26.6281C17.9208 26.5842 18.3208 26.1301 18.2752 25.6125C18.2297 25.0949 17.7587 24.7092 17.222 24.7531ZM14.6699 27.9562L9.60625 28.6984C9.7379 29.6994 11.0393 30.4562 12.0773 30.4562C13.5053 30.4562 14.6699 29.3332 14.6699 27.9562Z" fill="currentColor"/>
</svg>
