<svg width="16" height="16" viewBox="0 0 16 16" fill="none" xmlns="http://www.w3.org/2000/svg">
<path d="M9.66269 2.57422H5.6377" stroke="#8C99B2" stroke-miterlimit="10" stroke-linecap="round" stroke-linejoin="round"/>
<path d="M3.7125 2.57422H2.4C1.6125 2.57422 1 3.18672 1 3.97422V13.5992C1 14.3867 1.6125 14.9992 2.4 14.9992H13.075C13.8625 14.9992 14.475 14.3867 14.475 13.5992V3.97422C14.475 3.18672 13.8625 2.57422 13.075 2.57422H11.7625" stroke="#8C99B2" stroke-miterlimit="10" stroke-linecap="round" stroke-linejoin="round"/>
<path d="M4.6748 1C4.2373 1 3.7998 1.35 3.7998 1.875V3.8C3.7998 4.2375 4.1498 4.675 4.6748 4.675C5.1123 4.675 5.5498 4.325 5.5498 3.8V1.875C5.5498 1.35 5.1998 1 4.6748 1Z" stroke="#8C99B2" stroke-miterlimit="10" stroke-linecap="round" stroke-linejoin="round"/>
<path d="M10.7998 1C10.3623 1 9.9248 1.35 9.9248 1.875V3.8C9.9248 4.2375 10.2748 4.675 10.7998 4.675C11.2373 4.675 11.6748 4.325 11.6748 3.8V1.875C11.6748 1.35 11.3248 1 10.7998 1Z" stroke="#8C99B2" stroke-miterlimit="10" stroke-linecap="round" stroke-linejoin="round"/>
<path d="M1.1748 6.86328H14.0373" stroke="#8C99B2" stroke-miterlimit="10" stroke-linecap="round" stroke-linejoin="round"/>
</svg>
