<svg width="23" height="30" viewBox="0 0 23 30" fill="none" xmlns="http://www.w3.org/2000/svg">
<path fill-rule="evenodd" clip-rule="evenodd" d="M13.7697 1H2.83551C2.34779 1.00264 1.88098 1.20083 1.53703 1.55124C1.19308 1.90165 0.999993 2.37577 1 2.87V27.13C0.999993 27.6242 1.19308 28.0984 1.53703 28.4488C1.88098 28.7992 2.34779 28.9974 2.83551 29H20.1546C20.644 29 21.1134 28.803 21.4595 28.4523C21.8056 28.1016 22 27.626 22 27.13V9.35001L13.7697 1Z" stroke="#4B5169" stroke-linecap="round" stroke-linejoin="round"/>
<path d="M13.5 1V9.5H22" stroke="#4B5169" stroke-linecap="round" stroke-linejoin="round"/>
<path d="M3.79297 25H2.62598V23.6084H3.79297V25ZM9.58887 25H8.6709V24.4434C8.52767 24.5638 8.40397 24.6631 8.2998 24.7412C8.19564 24.8193 8.07357 24.891 7.93359 24.9561C7.80339 25.0179 7.66829 25.0651 7.52832 25.0977C7.38835 25.1335 7.22559 25.1514 7.04004 25.1514C6.74382 25.1514 6.46875 25.0895 6.21484 24.9658C5.96419 24.8421 5.75098 24.6615 5.5752 24.4238C5.39616 24.1829 5.25781 23.8867 5.16016 23.5352C5.0625 23.1803 5.01367 22.7734 5.01367 22.3145C5.01367 21.8359 5.07552 21.4225 5.19922 21.0742C5.32292 20.7227 5.49382 20.4167 5.71191 20.1562C5.91048 19.9186 6.14974 19.7331 6.42969 19.5996C6.71289 19.4629 7.00911 19.3945 7.31836 19.3945C7.5918 19.3945 7.82943 19.4255 8.03125 19.4873C8.23307 19.5459 8.44629 19.6387 8.6709 19.7656V17.4023H9.58887V25ZM8.6709 23.6719V20.5273C8.44303 20.4167 8.23796 20.3402 8.05566 20.2979C7.87663 20.2555 7.68132 20.2344 7.46973 20.2344C6.99772 20.2344 6.62826 20.4118 6.36133 20.7666C6.0944 21.1182 5.96094 21.6276 5.96094 22.2949C5.96094 22.9362 6.06348 23.4277 6.26855 23.7695C6.47363 24.1081 6.80241 24.2773 7.25488 24.2773C7.49577 24.2773 7.73828 24.2236 7.98242 24.1162C8.22656 24.0055 8.45605 23.8574 8.6709 23.6719ZM15.4043 22.2754C15.4043 23.1934 15.1829 23.903 14.7402 24.4043C14.2975 24.9023 13.7083 25.1514 12.9727 25.1514C12.2142 25.1514 11.6169 24.8942 11.1807 24.3799C10.7477 23.8623 10.5312 23.1608 10.5312 22.2754C10.5312 21.3639 10.7542 20.6559 11.2002 20.1514C11.6494 19.6468 12.2402 19.3945 12.9727 19.3945C13.7083 19.3945 14.2975 19.6468 14.7402 20.1514C15.1829 20.6527 15.4043 21.3607 15.4043 22.2754ZM14.457 22.2754C14.457 21.569 14.3285 21.0449 14.0713 20.7031C13.8141 20.3581 13.4479 20.1855 12.9727 20.1855C12.4941 20.1855 12.1247 20.3581 11.8643 20.7031C11.6071 21.0449 11.4785 21.569 11.4785 22.2754C11.4785 22.959 11.6071 23.4782 11.8643 23.833C12.1247 24.1846 12.4941 24.3604 12.9727 24.3604C13.4447 24.3604 13.8092 24.1878 14.0664 23.8428C14.3268 23.4945 14.457 22.972 14.457 22.2754ZM18.5146 25.1221C18.1403 25.1221 17.7969 25.0651 17.4844 24.9512C17.1719 24.834 16.9033 24.6582 16.6787 24.4238C16.4541 24.1895 16.2799 23.8949 16.1562 23.54C16.0326 23.182 15.9707 22.762 15.9707 22.2803C15.9707 21.8018 16.0342 21.3883 16.1611 21.04C16.2913 20.6917 16.4639 20.3988 16.6787 20.1611C16.8936 19.9235 17.1605 19.7412 17.4795 19.6143C17.8018 19.484 18.1468 19.4189 18.5146 19.4189C18.8141 19.4189 19.1022 19.4613 19.3789 19.5459C19.6589 19.6305 19.9079 19.7282 20.126 19.8389V20.8691H20.0723C20.0072 20.8138 19.9225 20.7503 19.8184 20.6787C19.7174 20.6071 19.5938 20.5339 19.4473 20.459C19.3203 20.3939 19.1706 20.3369 18.998 20.2881C18.8255 20.2393 18.6595 20.2148 18.5 20.2148C18.0247 20.2148 17.6423 20.3955 17.3525 20.7568C17.0661 21.1149 16.9229 21.6227 16.9229 22.2803C16.9229 22.9248 17.0612 23.4277 17.3379 23.7891C17.6178 24.1471 18.0052 24.3262 18.5 24.3262C18.7995 24.3262 19.0843 24.2643 19.3545 24.1406C19.6247 24.0169 19.8639 23.8574 20.0723 23.6621H20.126V24.6924C20.0348 24.7347 19.9209 24.7868 19.7842 24.8486C19.6475 24.9072 19.5238 24.9512 19.4131 24.9805C19.2568 25.026 19.1169 25.0602 18.9932 25.083C18.8695 25.109 18.71 25.1221 18.5146 25.1221Z" fill="#4B5169"/>
</svg>
