<?xml version="1.0" encoding="utf-8"?>
<!-- Generator: Adobe Illustrator 19.0.0, SVG Export Plug-In . SVG Version: 6.00 Build 0)  -->
<svg version="1.1" id="Слой_1" xmlns="http://www.w3.org/2000/svg" xmlns:xlink="http://www.w3.org/1999/xlink" x="0px" y="0px"
	 viewBox="0 0 595.3 841.9" style="enable-background:new 0 0 595.3 841.9;" xml:space="preserve">
<style type="text/css">
	.st0{fill:#FFAA30;}
</style>
<path id="XMLID_1_" class="st0" d="M291.5,123.2C130.7,123.2,0,255,0,417s130.7,293.8,291.5,293.8c46.9,0,93.2-11.5,134.4-33
	c0,0-6.2-2.3-8.7-3.2C378.5,694,335.1,704,291.5,704C134.5,704,6.7,575.2,6.7,417s127.9-287.2,284.9-287.2s284.9,128.8,284.9,287.1
	c0,67.5-23.5,132.7-66.3,184.2c0.6,3.4,1.5,8.8,1.5,8.8c46.2-53.4,71.7-122,71.7-193.1c0-21.5-2.3-42.6-6.9-62.7
	c0,0,9.9-12.5,18.2-23.3c-21.9-79.5-73.8-146.7-142.6-187.9c-11.1,4.4-29.6,11.7-29.6,11.7C383.1,134.5,338.6,123.2,291.5,123.2z"/>
</svg>
