<?xml version="1.0" encoding="utf-8"?>
<!-- Generator: Adobe Illustrator 19.0.0, SVG Export Plug-In . SVG Version: 6.00 Build 0)  -->
<svg version="1.1" id="Слой_1" xmlns="http://www.w3.org/2000/svg" xmlns:xlink="http://www.w3.org/1999/xlink" x="0px" y="0px"
	 viewBox="-7 -24.9 595.3 841.9" style="enable-background:new -7 -24.9 595.3 841.9;" xml:space="preserve">
<style type="text/css">
	.st0{fill:#FFAA30;enable-background:new    ;}
	.st1{fill:none;stroke:#5B607D;stroke-width:3;stroke-miterlimit:10;}
	.st2{fill:#0D1014;stroke:#5B607D;stroke-width:1.0705;stroke-miterlimit:10;}
	.st3{fill:#0D1014;}
	.st4{fill:#5B607D;}
	.st5{fill:#1B1E27;}
</style>
<path id="XMLID_1_" class="st0" d="M285.9,146.2c-131.8,0-239,108-239,240.9S154.1,628,285.9,628c38.4,0,76.4-9.4,110.2-27.1
	c0,0-5.1-1.9-7.1-2.6c-31.8,15.8-67.3,24.1-103.1,24.1c-128.7,0-233.5-105.6-233.5-235.3s104.8-235.4,233.5-235.4
	S519.4,257.3,519.4,387c0,55.3-19.3,108.8-54.4,151c0.5,2.8,1.2,7.2,1.2,7.2c37.9-43.8,58.8-100,58.8-158.3
	c0-17.7-1.9-34.9-5.6-51.4c0,0,8.1-10.2,14.9-19.1c-17.9-65.2-60.5-120.2-116.9-154.1c-9.1,3.6-24.2,9.6-24.2,9.6
	C360.9,155.5,324.5,146.2,285.9,146.2z"/>
<path id="XMLID_2_" class="st1" d="M5.6-19.2v29.9c6.1,7,9.6,10.9,15.7,17.9h171.4L289,147.8"/>
<path class="st2" d="M5.6-10.6C6.4-10.6,7-11.2,7-12S6.4-2.2,5.6-2.2"/>
<path class="st2" d="M294.5,147.8c0.8,0,1.4-0.6,1.4-1.4c0-0.8-0.6-1.4-1.4-1.4"/>
<path class="st1" d="M433,574.8l152.2,116.9v98.1c-6,4.3-9.4,6.6-15.4,10.9H11.5c-6-4.3-9.4-6.6-15.4-10.9v-25.5"/>
<g>
	<path class="st3" d="M5.6-11.7c-4.1,0-7.5-3.4-7.5-7.5s3.4-7.5,7.5-7.5s7.5,3.4,7.5,7.5S9.7-11.7,5.6-11.7z"/>
	<path class="st4" d="M5.6-26.2c3.9,0,7,3.1,7,7s-3.1,7-7,7s-7-3.1-7-7S1.7-26.2,5.6-26.2 M5.6-27.2c-4.4,0-8,3.6-8,8s3.6,8,8,8
		s8-3.6,8-8S10-27.2,5.6-27.2L5.6-27.2z"/>
</g>
<g>
	<path class="st3" d="M435,581.8c-4.1,0-7.5-3.4-7.5-7.5s3.4-7.5,7.5-7.5s7.5,3.4,7.5,7.5S439.1,581.8,435,581.8z"/>
	<path class="st4" d="M435,567.3c3.9,0,7,3.1,7,7c0,3.9-3.1,7-7,7s-7-3.1-7-7C428,570.5,431.1,567.3,435,567.3 M435,566.3
		c-4.4,0-8,3.6-8,8c0,4.4,3.6,8,8,8s8-3.6,8-8C443,569.9,439.4,566.3,435,566.3L435,566.3z"/>
</g>
<g>
	<path class="st3" d="M-3.9,774.1c-4.1,0-7.5-3.4-7.5-7.5s3.4-7.5,7.5-7.5s7.5,3.4,7.5,7.5S0.3,774.1-3.9,774.1z"/>
	<path class="st4" d="M-3.9,759.6c3.9,0,7,3.1,7,7s-3.1,7-7,7s-7-3.1-7-7S-7.7,759.6-3.9,759.6 M-3.9,758.6c-4.4,0-8,3.6-8,8
		s3.6,8,8,8s8-3.6,8-8S0.5,758.6-3.9,758.6L-3.9,758.6z"/>
</g>
<g>
	<g>
		<path class="st5" d="M289,157.3c-5,0-9-4.3-9-9.5s4-9.5,9-9.5s9,4.3,9,9.5S294,157.3,289,157.3z"/>
		<path class="st4" d="M289,138.8c4.7,0,8.5,4,8.5,9s-3.8,9-8.5,9s-8.5-4-8.5-9S284.3,138.8,289,138.8 M289,137.8
			c-5.2,0-9.5,4.5-9.5,10c0,5.5,4.3,10,9.5,10s9.5-4.5,9.5-10C298.5,142.3,294.3,137.8,289,137.8L289,137.8z"/>
	</g>
	<g>
		<path class="st4" d="M289,153.1c-2.7,0-5-2.4-5-5.3s2.2-5.3,5-5.3s5,2.4,5,5.3S291.8,153.1,289,153.1z"/>
		<path class="st5" d="M289,143c2.5,0,4.5,2.1,4.5,4.8c0,2.6-2,4.8-4.5,4.8s-4.5-2.1-4.5-4.8C284.5,145.2,286.5,143,289,143
			 M289,142c-3,0-5.5,2.6-5.5,5.8c0,3.2,2.5,5.8,5.5,5.8s5.5-2.6,5.5-5.8C294.5,144.6,292,142,289,142L289,142z"/>
	</g>
</g>
</svg>
