<svg width="19" height="17" viewBox="0 0 19 17" fill="none" xmlns="http://www.w3.org/2000/svg">
<path d="M0.791667 0C0.352539 0 0 0.344105 0 0.772727V3.86364C0 4.29226 0.352539 4.63636 0.791667 4.63636H3.95833C4.39746 4.63636 4.75 4.29226 4.75 3.86364V0.772727C4.75 0.344105 4.39746 0 3.95833 0H0.791667ZM1.58333 1.54545H3.16667V3.09091H1.58333V1.54545ZM7.91667 1.54545V3.09091H19V1.54545H7.91667ZM0.791667 6.18182C0.352539 6.18182 0 6.52592 0 6.95455V10.0455C0 10.4741 0.352539 10.8182 0.791667 10.8182H3.95833C4.39746 10.8182 4.75 10.4741 4.75 10.0455V6.95455C4.75 6.52592 4.39746 6.18182 3.95833 6.18182H0.791667ZM1.58333 7.72727H3.16667V9.27273H1.58333V7.72727ZM7.91667 7.72727V9.27273H19V7.72727H7.91667ZM0.791667 12.3636C0.352539 12.3636 0 12.7077 0 13.1364V16.2273C0 16.6559 0.352539 17 0.791667 17H3.95833C4.39746 17 4.75 16.6559 4.75 16.2273V13.1364C4.75 12.7077 4.39746 12.3636 3.95833 12.3636H0.791667ZM1.58333 13.9091H3.16667V15.4545H1.58333V13.9091ZM7.91667 13.9091V15.4545H19V13.9091H7.91667Z" fill="#606580"/>
</svg>
