<svg xmlns="http://www.w3.org/2000/svg" width="13" height="13" viewBox="0 0 980 980">
  <path d="M280,560H140A140.025,140.025,0,0,0,0,700V840A140.025,140.025,0,0,0,140,980H280A140.025,140.025,0,0,0,420,840V700A140.025,140.025,0,0,0,280,560ZM280,0H140A140.025,140.025,0,0,0,0,140V280A140.025,140.025,0,0,0,140,420H280A140.025,140.025,0,0,0,420,280V140A140.025,140.025,0,0,0,280,0ZM840,560H700A140.025,140.025,0,0,0,560,700V840A140.025,140.025,0,0,0,700,980H840A140.025,140.025,0,0,0,980,840V700A140.025,140.025,0,0,0,840,560ZM840,0H700A140.025,140.025,0,0,0,560,140V280A140.025,140.025,0,0,0,700,420H840A140.025,140.025,0,0,0,980,280V140A140.025,140.025,0,0,0,840,0Z"/>
</svg>
