<svg xmlns="http://www.w3.org/2000/svg" width="170.65" height="169.44" viewBox="0 0 170.65 169.44"><title>Ресурс 6</title><path d="M26,31.53l-1.89-1.65-.84,1,1.92,1.62C25.41,32.16,25.67,31.84,26,31.53Z" style="fill:#f4a321"/><path d="M29.31,27.92l-1.78-1.77c-.3.31-.6.61-.89.92l1.81,1.73Z" style="fill:#f4a321"/><path d="M27.6,29.7,25.77,28l-.87.94,1.87,1.68Z" style="fill:#f4a321"/><path d="M21.33,37.33l-2-1.47-1.12,1.57,2.44.91C20.85,38,21.08,37.66,21.33,37.33Z" style="fill:#f4a321"/><path d="M24.35,33.42l-1.94-1.59c-.27.32-.54.65-.8,1l2,1.57C23.83,34.06,24.08,33.74,24.35,33.42Z" style="fill:#f4a321"/><path d="M22.81,35.35l-2-1.53c-.26.33-.52.67-.77,1l2,1.5Z" style="fill:#f4a321"/><path d="M36.68,21.34l-1.55-2c-.34.26-.67.53-1,.8l1.59,1.94Z" style="fill:#f4a321"/><path d="M36.13,18.59l1.53,2L39.83,19l-2.68-1.13Z" style="fill:#f4a321"/><path d="M31.08,26.19l-1.73-1.82-.92.89,1.76,1.79Z" style="fill:#f4a321"/><path d="M34.76,22.9,33.15,21c-.33.27-.65.55-1,.83l1.64,1.89Z" style="fill:#f4a321"/><path d="M32.89,24.52l-1.67-1.87-.94.85L32,25.35Z" style="fill:#f4a321"/><path d="M143.94,30.44l1.84-1.71c-.29-.31-.58-.62-.88-.92l-1.81,1.73Z" style="fill:#f4a321"/><path d="M142.23,28.65,144,26.89l-.91-.9-1.76,1.79Z" style="fill:#f4a321"/><path d="M145.59,32.28l1.89-1.65-.84-1-1.87,1.68Z" style="fill:#f4a321"/><path d="M140.47,26.92l1.73-1.82-.93-.87-1.7,1.84Z" style="fill:#f4a321"/><path d="M148.72,36.1l2-1.53c-.26-.34-.52-.67-.79-1l-2,1.55Z" style="fill:#f4a321"/><path d="M147.18,34.16l1.94-1.59-.81-1-1.92,1.62Z" style="fill:#f4a321"/><path d="M138.65,25.24l1.68-1.87-1-.84-1.64,1.89Z" style="fill:#f4a321"/><path d="M134.41,18.54l-1-.75L130.77,19l2.14,1.57Z" style="fill:#f4a321"/><path d="M149.46,37.08c.25.33.49.67.73,1l2.53-.79-1.24-1.7Z" style="fill:#f4a321"/><path d="M136.79,23.62l1.62-1.92-1-.81-1.59,1.94Z" style="fill:#f4a321"/><path d="M134.88,22.06l1.55-2-1-.78-1.53,2Z" style="fill:#f4a321"/><path d="M28.45,140.51l-1.81,1.74c.29.31.59.61.89.91l1.78-1.76C29,141.11,28.73,140.81,28.45,140.51Z" style="fill:#f4a321"/><path d="M30.19,142.27l-1.76,1.79.92.89,1.73-1.82Z" style="fill:#f4a321"/><path d="M23.57,134.94l-2,1.56c.26.34.53.67.8,1l1.94-1.59C24.08,135.58,23.83,135.26,23.57,134.94Z" style="fill:#f4a321"/><path d="M32,144l-1.7,1.85.94.85,1.67-1.87Z" style="fill:#f4a321"/><path d="M25.14,136.85l-1.92,1.62.84,1L26,137.78C25.67,137.47,25.41,137.16,25.14,136.85Z" style="fill:#f4a321"/><path d="M26.77,138.71l-1.87,1.68.87.94,1.83-1.72Z" style="fill:#f4a321"/><path d="M22.06,133l-2,1.51c.25.34.51.67.77,1l2-1.53C22.55,133.64,22.31,133.31,22.06,133Z" style="fill:#f4a321"/><path d="M33.82,145.62l-1.64,1.89c.32.28.64.56,1,.83l1.61-1.92Z" style="fill:#f4a321"/><path d="M20.61,131l-2.41,1,1.09,1.53,2-1.47C21.08,131.65,20.85,131.32,20.61,131Z" style="fill:#f4a321"/><path d="M35.72,147.2l-1.59,2,1,.8,1.55-2Z" style="fill:#f4a321"/><path d="M36.13,150.73l1,.76,2.68-1.13-2.17-1.63Z" style="fill:#f4a321"/><path d="M139.57,143.24l1.7,1.85.93-.88-1.73-1.81Z" style="fill:#f4a321"/><path d="M146.39,136.11l1.92,1.61.81-1-1.94-1.6Z" style="fill:#f4a321"/><path d="M143.09,139.78l1.81,1.73c.3-.3.59-.61.88-.93l-1.84-1.7Z" style="fill:#f4a321"/><path d="M144.77,138l1.87,1.67.84-.95L145.59,137Z" style="fill:#f4a321"/><path d="M149.46,132.23l2,1.5,1.16-1.59-2.45-.9Z" style="fill:#f4a321"/><path d="M148,134.19l2,1.56c.27-.33.53-.67.79-1l-2-1.53C148.47,133.55,148.21,133.87,148,134.19Z" style="fill:#f4a321"/><path d="M135.84,146.49l1.59,1.94,1-.81-1.62-1.92Z" style="fill:#f4a321"/><path d="M133.9,148l1.53,2,1-.78-1.55-2Z" style="fill:#f4a321"/><path d="M141.35,141.54l1.76,1.79.91-.9-1.79-1.76Z" style="fill:#f4a321"/><path d="M130.7,150.38l2.68,1.15,1-.75-1.5-2Z" style="fill:#f4a321"/><path d="M137.73,144.89l1.64,1.9,1-.85-1.68-1.87C138.35,144.35,138,144.62,137.73,144.89Z" style="fill:#f4a321"/><path d="M167.28,61l-1.38-.39a83.57,83.57,0,0,0-11.43-23.68c1.17-.45,2.91-1,4-1.4A87.88,87.88,0,0,0,124.77,5.34L121.5,7.58h-1.35a83.67,83.67,0,0,0-69.6,0h0L45.79,5.41A88,88,0,0,0,12.18,35.49c1.14.37,2.88.95,4,1.4A83.75,83.75,0,0,0,4.8,60.56L3.37,61a85.44,85.44,0,0,0,0,47.52l1.44.41a83.94,83.94,0,0,0,11.41,23.66c-1.16.45-2.9,1-4,1.4A87.9,87.9,0,0,0,45.93,164.1l3.26-2.24h1.36a83.67,83.67,0,0,0,69.6,0h0l4.75,2.17A87.76,87.76,0,0,0,158.51,134c-1.13-.37-2.87-.95-4-1.4a83.66,83.66,0,0,0,11.41-23.68l1.39-.39a85.44,85.44,0,0,0,0-47.52ZM163,109.69l1.5-.42a83.23,83.23,0,0,1-31.1,42.92l-3.35-1.4A78,78,0,0,1,102.17,163l-2.68-2.23H70.84l-2.61,2.17a78.06,78.06,0,0,1-27.55-12.1l-3.35,1.4a83.23,83.23,0,0,1-31.1-42.9l1.45.4a81.49,81.49,0,0,1,0-49.94l-1.45.41a83.14,83.14,0,0,1,31.1-42.9l3.35,1.4A78.06,78.06,0,0,1,68.53,6.49l2.68,2.24H99.86l2.6-2.17A78,78,0,0,1,130,18.66l3.35-1.4a83.24,83.24,0,0,1,31.11,42.91L163,59.75a81.69,81.69,0,0,1,0,49.94Z" style="fill:#f4a321"/></svg>