<svg width="16" height="16" viewBox="0 0 16 16" fill="none" xmlns="http://www.w3.org/2000/svg">
<path d="M15.45 16H0.550049C0.250049 16 0.0500488 15.8 0.0500488 15.5V0.5C0.0500488 0.2 0.250049 0 0.550049 0C0.850049 0 1.05005 0.2 1.05005 0.5V14.9H15.45C15.75 14.9 15.95 15.1 15.95 15.4C15.95 15.7 15.75 16 15.45 16Z" fill="#5B607D"/>
<path d="M2.1501 8.19995H0.850098C0.550098 8.19995 0.350098 7.99995 0.350098 7.69995C0.350098 7.39995 0.550098 7.19995 0.850098 7.19995H2.1501C2.4501 7.19995 2.6501 7.39995 2.6501 7.69995C2.6501 7.99995 2.4501 8.19995 2.1501 8.19995Z" fill="#5B607D"/>
<path d="M2.1501 3.90002H0.850098C0.550098 3.90002 0.350098 3.70002 0.350098 3.40002C0.350098 3.10002 0.550098 2.90002 0.850098 2.90002H2.1501C2.4501 2.90002 2.6501 3.10002 2.6501 3.40002C2.6501 3.70002 2.4501 3.90002 2.1501 3.90002Z" fill="#5B607D"/>
<path d="M2.1501 12.4H0.850098C0.550098 12.4 0.350098 12.2 0.350098 11.9C0.350098 11.6 0.550098 11.3 0.850098 11.3H2.1501C2.4501 11.3 2.6501 11.5 2.6501 11.8C2.6501 12.1 2.4501 12.4 2.1501 12.4Z" fill="#5B607D"/>
<path d="M11.75 11.4C11.15 11.4 10.25 11 9.65002 9.19998L8.25002 5.19998C7.85002 4.19998 7.45002 3.69998 7.15002 3.69998C6.85002 3.69998 6.45003 4.19998 6.05003 5.19998L4.75002 8.89998C4.65002 9.19998 4.35003 9.29997 4.05003 9.19998C3.75003 9.09998 3.65002 8.79998 3.75002 8.49998L5.05003 4.79998C5.65003 2.99998 6.55002 2.59998 7.15002 2.59998C7.75002 2.59998 8.55002 2.99998 9.25002 4.79998L10.65 8.79998C11.05 9.89998 11.45 10.3 11.75 10.3C12.05 10.3 12.45 9.79998 12.85 8.79998L13.75 6.09997C13.85 5.79997 14.15 5.69998 14.45 5.79998C14.75 5.89998 14.85 6.19998 14.75 6.49998L13.85 9.19998C13.15 11 12.35 11.4 11.75 11.4Z" fill="#5B607D"/>
</svg>
