<svg width="14" height="16" viewBox="0 0 14 16" fill="none" xmlns="http://www.w3.org/2000/svg">
<path d="M12.96 1.70093H9.81201V0.586914C9.81201 0.263916 9.5481 0 9.2251 0H4.32397C4.00195 0 3.73804 0.263916 3.73804 0.586914V3.67297C3.73804 3.995 4.00195 4.25903 4.32397 4.25903H7.948C8.27002 4.25903 8.53394 3.995 8.53394 3.67297C8.53394 3.34998 8.27002 3.08594 7.948 3.08594H4.91089V1.17395H8.64209V2.28796C8.64209 2.60999 8.90601 2.87402 9.229 2.87402H12.377V14.782H1.1731V2.87402H2.06909C2.39209 2.87402 2.65601 2.60999 2.65601 2.28796C2.65601 1.96497 2.39209 1.70093 2.06909 1.70093H0.586914C0.263916 1.70093 0 1.96497 0 2.28796V15.3679C0 15.6909 0.263916 15.955 0.586914 15.955H12.96C13.282 15.955 13.5469 15.6909 13.5469 15.3679V2.28796C13.5469 1.96497 13.282 1.70093 12.96 1.70093Z" fill="#616580"/>
<path d="M2.3396 6.30313C2.3396 5.93962 2.63429 5.64493 2.9978 5.64493H3.59479C3.95813 5.64493 4.25269 5.93948 4.25269 6.30283V6.83804C4.25269 7.20156 3.958 7.49625 3.59448 7.49625H2.9978C2.63429 7.49625 2.3396 7.20156 2.3396 6.83804V6.30313Z" fill="#616580"/>
<path d="M2.3396 9.12845C2.3396 8.76493 2.63429 8.47025 2.9978 8.47025H3.59448C3.958 8.47025 4.25269 8.76493 4.25269 9.12845V9.6636C4.25269 10.027 3.95813 10.3215 3.59479 10.3215H2.9978C2.63429 10.3215 2.3396 10.0268 2.3396 9.6633V9.12845Z" fill="#616580"/>
<rect x="5.22485" y="6.12503" width="5.74023" height="1.02106" fill="#616580"/>
<rect x="5.26929" y="8.88516" width="5.74023" height="1.021" fill="#616580"/>
<rect x="2.3396" y="11.4656" width="1.91309" height="1.85162" rx="0.658203" fill="#616580"/>
<rect x="5.26929" y="11.8803" width="2.87012" height="1.0213" fill="#616580"/>
</svg>
