<?xml version="1.0" encoding="utf-8"?>
<!-- Generator: Adobe Illustrator 19.0.0, SVG Export Plug-In . SVG Version: 6.00 Build 0)  -->
<svg version="1.1" id="Слой_1" xmlns="http://www.w3.org/2000/svg" xmlns:xlink="http://www.w3.org/1999/xlink" x="0px" y="0px"
	 viewBox="0 0 595.3 841.9" style="enable-background:new 0 0 595.3 841.9;" xml:space="preserve">
<style type="text/css">
	.st0{fill:#A7DCF8;fill-opacity:5.000000e-002;stroke:#A7DCF8;stroke-width:0.3891;stroke-miterlimit:10;}
	.st1{fill:#A7DCF8;}
	.st2{fill-rule:evenodd;clip-rule:evenodd;fill:#A7DCF8;}
</style>
<path class="st0" d="M184.6,434.7c0-12.5,5.3-24.3,14.5-34.5l-35.6-12.7c-12.8,13.9-20,30.1-20,47.2c0,16.8,7,32.6,19.3,46.4
	l35.6-12.7C189.6,458.3,184.6,446.9,184.6,434.7z"/>
<path class="st0" d="M411.7,434.7c0,12.5-5.2,24.2-14.4,34.3l35.6,12.7c12.7-13.9,19.9-30,19.9-47.1c0-17.4-7.5-33.8-20.7-47.9
	l-35.6,12.7C406.2,409.9,411.7,421.9,411.7,434.7z"/>
<path class="st0" d="M298.4,364.3c40.9,0.1,76.7,13.5,96.6,33.6l35.6-12.7c-27-27.8-76.2-46.3-132.3-46.4V364.3z"/>
<path class="st0" d="M295.4,505.1c-40.8-0.6-76.3-14.6-95.6-35.1l-35.6,12.7c26.3,28.2,75.1,47.3,131.2,47.9V505.1z"/>
<path class="st0" d="M200.6,398.6c19.4-20.1,54.5-33.7,94.8-34.3v-25.5c-55.5,0.6-103.9,19.3-130.4,47L200.6,398.6z"/>
<path class="st0" d="M395.9,470.6c-19.8,20.6-56,34.4-97.4,34.5v25.5c56.7-0.1,106.2-19,133.1-47.2L395.9,470.6z"/>
<g>
	<path class="st1" d="M161.3,433.9c0,0.5,0,1,0,1.4c0,0.3,0.3,0.5,0.8,0.5c0.4,0,0.8-0.2,0.8-0.5c0-0.4,0-0.8,0-1.2
		c0-0.1,0-0.1,0-0.2c0.2,0,0.3,0,0.4,0c1.1,0,2.3,0,3.4,0c0.2,0,0.3,0,0.5-0.1c0.3-0.1,0.4-0.3,0.3-0.5c-0.1-0.2-0.4-0.4-0.8-0.4
		c-1.1,0-2.2,0-3.2,0c-0.2,0-0.4,0-0.6,0c0-0.3,0-0.6,0-1c0.1,0,0.2,0,0.3,0c0.8,0,1.7,0,2.5,0c1.8,0,3.4-1.1,3.5-2.2
		c0-1.1-1.7-2.2-3.5-2.2c-1.1,0-2.3,0-3.4,0c-0.6,0-0.9,0.2-0.9,0.5c0,0.9,0,1.8,0,2.7c0,0.1,0,0.1,0,0.2c-0.5,0-1,0-1.5,0
		c-0.5,0-0.8,0.2-0.8,0.5c0,0.3,0.3,0.5,0.8,0.5c0.1,0,0.2,0,0.4,0c0.4,0,0.8,0,1.2,0c0,0.3,0,0.6,0,1c-0.1,0-0.2,0-0.2,0
		c-0.4,0-0.9,0-1.3,0c-0.5,0-0.8,0.2-0.8,0.5c0,0.3,0.3,0.5,0.8,0.5c0.3,0,0.6,0,0.9,0C160.9,433.9,161.1,433.9,161.3,433.9z
		 M162.9,428.6c0.6,0,1.2,0,1.8,0c0.4,0,0.8,0,1.2,0c1,0.1,1.7,0.5,1.7,1.2c0,0.7-0.7,1.1-1.7,1.2c-1,0-2,0-3,0
		C162.9,430.2,162.9,429.4,162.9,428.6z"/>
	<path class="st1" d="M165.4,424.2c0.2-0.1,0.3-0.2,0.3-0.4c0-0.1-0.1-0.3-0.2-0.4c-0.2-0.1-0.4-0.2-0.6-0.2
		c-4.6-0.2-9,1.1-11.8,3.4c-2.2,1.8-3.1,4.1-2.5,6.3l-1.1,0.2c-0.2,0-0.3,0.1-0.4,0.3c0,0.1,0,0.2,0.2,0.3l3,1.6
		c0.1,0.1,0.2,0.1,0.4,0.1c0.1,0,0.1,0,0.2,0c0.2,0,0.3-0.1,0.4-0.3l0.7-2.4c0-0.1,0-0.2-0.2-0.3c-0.2-0.1-0.4-0.1-0.5-0.1l-1,0.2
		c-0.4-1.9,0.4-3.8,2.2-5.4c2.4-2,6.2-3.1,10.3-3C165,424.3,165.2,424.3,165.4,424.2z"/>
	<path class="st1" d="M179.2,430.8l-2.6-1.8c-0.1-0.1-0.3-0.1-0.5-0.1c-0.2,0-0.4,0.1-0.4,0.2l-1.2,2.3c-0.1,0.1,0,0.2,0.1,0.3
		c0.1,0.1,0.3,0.1,0.4,0.1c0,0,0.1,0,0.1,0l1-0.1c0,1.6-0.8,3.1-2.4,4.4c-2.8,2.3-7.6,3.4-12.1,2.8c-0.2,0-0.5,0-0.6,0.1
		c-0.2,0.1-0.3,0.2-0.4,0.3c0,0.1,0,0.3,0.1,0.4c0.1,0.1,0.3,0.2,0.5,0.2c0.9,0.1,1.9,0.2,2.9,0.2c4.3,0,8.4-1.3,11-3.4
		c1.8-1.5,2.8-3.4,2.7-5.3l1.1-0.1c0.2,0,0.4-0.1,0.4-0.2C179.3,431,179.3,430.9,179.2,430.8z"/>
</g>
<g>
	<path class="st1" d="M368.5,367.4L368.5,367.4c-0.2,0-0.4-0.1-0.6-0.1l-3.4-2.1c-0.3-0.2-0.3-0.5,0-0.7s0.8-0.2,1.2,0l2.9,1.8
		l10.9-6.7c0.3-0.2,0.8-0.2,1.2,0c0.3,0.2,0.3,0.5,0,0.7l-11.5,7.1C369,367.3,368.8,367.4,368.5,367.4z"/>
	<path class="st1" d="M374.2,365.6c0,0.7-0.2,1.3-0.8,1.9c-0.9,0.9-2.4,1.6-4.2,1.8c-1.8,0.2-3.5-0.1-4.9-0.8
		c-1.4-0.7-2.2-1.7-2.2-2.8c0-0.4,0.1-0.8,0.4-1.3c1-1.8,2.6-3.5,4.1-5.1l0.1-0.1c0.3-0.4,0.7-0.7,1.1-1.1l0.4-0.4
		c0.3,0.3,0.6,0.7,0.9,1c0.8,0.9,1.6,1.7,2.4,2.5c0.3,0.4,0.6,0.7,0.9,1l1.2-0.8c-1-1.2-2-2.2-2.8-3.1c-0.5-0.5-1-0.9-1.5-1.4
		c-0.2-0.2-0.5-0.4-0.7-0.6l-0.1-0.1h-0.7l-0.1,0c0,0-0.1,0-0.1,0.1c-0.1,0.1-0.2,0.1-0.3,0.2c-2.4,2.3-4.3,4.3-5.9,6.4l0,0
		c-0.5,0.8-1.1,1.6-1.1,2.4c0,2,1.5,3.5,4.3,4.3c0.6,0.2,1.2,0.3,1.8,0.4c0.3,0,0.5,0.1,0.8,0.1l1.6,0l0.1,0c0.1,0,0.1,0,0.2,0
		c2.9-0.3,5-1.3,6.1-3c0.5-0.8,0.6-1.7,0.3-2.6L374.2,365.6z"/>
</g>
<g>
	<polygon class="st1" points="220.4,365.9 220.4,364.2 221.8,364.2 221.8,363.3 220.4,363.3 220.4,361.6 221.8,361.6 221.8,360.7 
		220.4,360.7 220.4,358 219,358 219,372.1 220.4,372.1 220.4,371.2 220.4,369.5 221.8,369.5 221.8,368.6 220.4,368.6 220.4,366.8 
		240.3,366.8 240.3,365.9 	"/>
	<polygon class="st1" points="225.4,363.8 226.8,363.8 226.8,365 228.2,365 228.2,363 223.9,363 223.9,365 225.4,365 	"/>
	<polygon class="st1" points="229.6,370.4 228.2,370.4 228.2,367.6 226.8,367.6 226.8,371.3 231,371.3 231,367.6 229.6,367.6 	"/>
	<polygon class="st1" points="231,361.2 232.4,361.2 232.4,365 233.8,365 233.8,360.3 229.6,360.3 229.6,365 231,365 	"/>
	<polygon class="st1" points="235.2,369.1 233.8,369.1 233.8,367.6 232.4,367.6 232.4,370 236.7,370 236.7,367.6 235.2,367.6 	"/>
</g>
<g>
	<path class="st2" d="M441.6,433l-1.6-0.2c-0.2-0.3-0.4-0.7-0.6-1l0.9-0.8c0.4-0.3,0.3-0.8-0.2-1.1l-1.4-0.9c-0.3-0.2-0.6-0.3-1-0.3
		c-0.3,0-0.6,0.1-0.8,0.2l-1.3,0.6c-0.5-0.2-1-0.3-1.6-0.4l-0.3-1c-0.1-0.4-0.7-0.7-1.4-0.7h-2c-0.7,0-1.3,0.3-1.4,0.7l-0.3,1
		c-0.5,0.1-1,0.2-1.5,0.4l-1.3-0.6c-0.2-0.1-0.5-0.2-0.8-0.2c-0.4,0-0.7,0.1-1,0.3l-1.4,0.9c-0.5,0.3-0.5,0.8-0.2,1.1l0.9,0.8
		c-0.3,0.3-0.5,0.6-0.6,1l-1.6,0.2c-0.7,0.1-1.2,0.4-1.2,0.9v1.2c0,0.4,0.5,0.8,1.2,0.9l1.6,0.2c0.2,0.3,0.4,0.6,0.6,1l-0.9,0.8
		c-0.4,0.3-0.3,0.8,0.2,1.1l1.4,0.9c0.3,0.2,0.6,0.3,1,0.3c0.3,0,0.6-0.1,0.8-0.2l1.3-0.6c0.5,0.2,1,0.3,1.5,0.4l0.3,1
		c0.1,0.4,0.7,0.7,1.4,0.7h2c0.7,0,1.3-0.3,1.4-0.7l0.3-1c0.5-0.1,1.1-0.2,1.5-0.4l1.3,0.6c0.2,0.1,0.5,0.2,0.8,0.2
		c0.4,0,0.7-0.1,1-0.3l1.4-0.9c0.5-0.3,0.5-0.8,0.2-1.1l-0.9-0.8c0.3-0.3,0.5-0.6,0.6-1l1.6-0.2c0.7-0.1,1.2-0.4,1.2-0.9v-1.2
		C442.8,433.5,442.3,433.1,441.6,433z M441.5,435.1L441.5,435.1c0,0,0,0.1-0.1,0.1l-2,0.2c-0.3,0-0.4,0.1-0.5,0.3
		c-0.2,0.4-0.5,0.8-0.8,1.2c-0.1,0.1-0.1,0.3,0,0.4l1.2,1c0,0,0,0.1,0,0.1l-1.4,0.9c0,0-0.1,0-0.1,0c0,0-0.1,0-0.1,0l-1.6-0.7
		c-0.2-0.1-0.5-0.1-0.7,0c-0.6,0.2-1.3,0.4-2,0.5c-0.2,0-0.4,0.2-0.5,0.3l-0.3,1.2c0,0-0.1,0.1-0.1,0.1h-2c-0.1,0-0.1,0-0.1-0.1
		l-0.3-1.2c0-0.2-0.2-0.3-0.5-0.3c-0.7-0.1-1.3-0.3-1.9-0.5c-0.1,0-0.2-0.1-0.3-0.1c-0.1,0-0.3,0-0.4,0.1l-1.7,0.7c0,0,0,0-0.1,0
		c0,0-0.1,0-0.1,0l-1.4-0.9c0,0,0-0.1,0-0.1l1.2-1c0.1-0.1,0.2-0.3,0-0.4c-0.4-0.4-0.7-0.8-0.8-1.2c-0.1-0.1-0.3-0.3-0.5-0.3l-2-0.2
		c-0.1,0-0.1,0-0.1-0.1v-1.2c0,0,0-0.1,0.1-0.1l2-0.2c0.3,0,0.5-0.1,0.5-0.3c0.2-0.4,0.4-0.8,0.8-1.2c0.1-0.1,0.1-0.3,0-0.4l-1.2-1
		c0,0,0-0.1,0-0.1l1.4-0.9c0,0,0.1,0,0.1,0c0,0,0.1,0,0.1,0l1.6,0.7c0.2,0.1,0.5,0.1,0.7,0c0.6-0.2,1.3-0.4,2-0.5
		c0.2,0,0.4-0.2,0.5-0.3l0.3-1.2c0,0,0.1-0.1,0.1-0.1h2c0.1,0,0.1,0,0.1,0.1l0.3,1.2c0,0.2,0.2,0.3,0.5,0.3c0.7,0.1,1.4,0.3,2,0.5
		c0.2,0.1,0.5,0.1,0.7,0l1.6-0.7c0,0,0,0,0.1,0c0,0,0.1,0,0.1,0l1.4,0.9c0,0,0,0.1,0,0.1l-1.2,1c-0.1,0.1-0.2,0.3,0,0.4
		c0.4,0.4,0.6,0.8,0.8,1.2c0.1,0.2,0.3,0.3,0.5,0.3l2,0.2c0.1,0,0.1,0,0.1,0.1V435.1z"/>
	<path class="st2" d="M431.5,431.5c-2.7,0-4.9,1.4-4.9,3c0,1.7,2.2,3,4.9,3c2.7,0,4.9-1.4,4.9-3
		C436.4,432.8,434.2,431.5,431.5,431.5z M431.5,436.8c-2,0-3.6-1-3.6-2.2c0-1.2,1.6-2.2,3.6-2.2c2,0,3.6,1,3.6,2.2
		C435.1,435.8,433.5,436.8,431.5,436.8z"/>
</g>
<g>
	<path class="st1" d="M380.1,510c-0.2,0.1-0.4,0.1-0.6,0.2c-0.1-0.3-0.2-0.5-0.3-0.8c-0.1-0.2-0.1-0.3-0.2-0.5
		c-1.2-1.3-2.4-2.6-3.6-3.9c-0.6-0.7-1.2-1.3-1.4-2.2c-0.1-0.3-0.3-0.4-0.7-0.2c-1.4,0.5-2.8,1-4.1,1.5c-0.4,0.2-0.5,0.3-0.4,0.7
		c0.1,0.2,0.2,0.5,0.3,0.7c-0.5,0.2-0.6,0.4-0.6,0.6c0.1,0.2,0.2,0.3,0.7,0.2c0,0.7,0,1.4,0,2.1c-0.1,0-0.1,0-0.1-0.1
		c-0.2-0.4-0.3-0.7-0.5-1.1c-0.1-0.3-0.3-0.4-0.7-0.2c-0.7,0.3-1.5,0.5-2.2,0.8c-0.3,0.1-0.6,0.2-0.9,0.3c-0.3,0.1-0.4,0.3-0.3,0.6
		c0,0.1,0.1,0.2,0.1,0.3c0.2,0.4,0.3,0.9,0.2,1.3c0,0.6,0,1.2,0,1.8c0,0,0,0-0.1,0c0,0-0.1-0.1-0.1-0.1c-0.1-0.1-0.1-0.3-0.2-0.4
		c-0.1-0.3-0.3-0.4-0.7-0.2c-0.6,0.2-1.2,0.4-1.8,0.7c-0.4,0.2-0.5,0.3-0.4,0.6c0.1,0.3,0.2,0.7,0.2,1c0,0.7,0,1.4,0,2.1
		c0,0.3,0,0.5,0.1,0.8c0,0.1,0,0.1-0.1,0.2c-0.2,0.1-0.5,0.2-0.7,0.3c-0.2,0.1-0.3,0.3-0.2,0.4c0,0.2,0.2,0.3,0.4,0.2
		c0.1,0,0.2,0,0.3-0.1c0.5-0.2,1-0.4,1.5-0.6c2.4-0.9,4.9-1.8,7.3-2.7c3-1.1,6-2.2,9-3.3c0.4-0.1,0.7-0.3,1.1-0.4
		c0.3-0.1,0.4-0.3,0.4-0.5C380.7,509.9,380.4,509.8,380.1,510z M364.7,513.9c0,0.1,0,0.3,0,0.4c0,0.4,0,0.7,0.2,1.1
		c0.1,0.1,0,0.2-0.1,0.3c-0.3,0.1-0.6,0.2-0.9,0.3c0,0,0,0,0,0c-0.3,0.1-0.6,0.2-0.9,0.3c-0.1,0-0.2,0-0.2-0.1c0-0.1,0-0.2,0-0.3
		c0-0.9,0-1.8,0-2.7c0-0.2,0-0.4-0.1-0.5c0-0.1,0-0.2,0.1-0.2c0.3-0.1,0.5-0.2,0.7-0.3c0.1,0,0.2,0,0.2,0c0.3,0.4,0.6,0.9,0.9,1.3
		C364.6,513.7,364.6,513.8,364.7,513.9z M369,512.3c0,0.1,0,0.2-0.2,0.2c-0.4,0.2-0.6,0.3-0.5,0.6c0.1,0.2,0.3,0.3,0.7,0.1
		c0,0,0,0,0.1,0c0.1,0.2,0.2,0.4,0.2,0.6c0,0.1-0.1,0.1-0.2,0.2c-1,0.4-1.9,0.7-2.9,1.1c0,0-0.1,0-0.1,0c-0.4,0.2-0.4,0.1-0.5-0.2
		c-0.2-0.4-0.1-0.8-0.1-1.2c0-1.3,0-2.7,0-4c0-0.3-0.1-0.5-0.2-0.8c-0.1-0.2,0-0.2,0.2-0.3c0.6-0.2,1.3-0.5,1.9-0.7
		c0.1,0,0.2-0.1,0.2,0c0.2,0.8,0.8,1.4,1.2,2.1c0,0.1,0.1,0.2,0.1,0.2C369,510.9,369,511.6,369,512.3z M378.3,510.6
		c-2.6,1-5.2,1.9-7.7,2.9c-0.3,0.1-0.3,0.1-0.4-0.1c-0.1-0.2-0.1-0.3-0.2-0.5c0.1-0.1,0.3-0.1,0.4-0.1c1.7-0.6,3.4-1.3,5.1-1.9
		c0.3-0.1,0.4-0.2,0.4-0.4c0-0.3-0.3-0.4-0.6-0.3c-0.7,0.3-1.4,0.5-2.2,0.8c-1,0.4-2,0.7-3,1.1c-0.1,0-0.1,0.1-0.2,0.1
		c0-0.1,0-0.1,0-0.2c0-2,0.1-3.9,0.1-5.9c0-0.1,0.1-0.2,0.2-0.2c0.6-0.2,1.2-0.4,1.8-0.7c0.3-0.1,0.5-0.3,0.4-0.5
		c-0.1-0.2-0.3-0.3-0.6-0.1c-0.5,0.2-1.1,0.4-1.6,0.6c-0.1,0-0.1,0.1-0.2,0.1c-0.1-0.2-0.1-0.3-0.2-0.5c1.2-0.4,2.3-0.9,3.5-1.3
		c0.1,0.1,0.1,0.3,0.2,0.4c0.1,0.3,0.3,0.6,0.5,0.8c1.4,1.6,2.9,3.1,4.3,4.7c0.2,0.2,0.3,0.5,0.4,0.8
		C378.7,510.5,378.7,510.5,378.3,510.6z"/>
	<path class="st1" d="M361.4,505.7c1.4-0.2,2.6-1.1,3.1-2.2c0-0.1,0.1-0.1,0.1-0.2c1.1,0.2,2.2-0.1,3.1-0.8c0.1,0.1,0.1,0.1,0.2,0.2
		c0.9,0.7,2.4,0.7,3.6,0c1.2-0.7,1.8-1.8,1.4-2.9c-0.3-1-1.4-1.6-2.7-1.5c-0.2,0-0.2,0-0.3-0.1c-1-1.2-3.2-1.2-4.6,0.1
		c-0.1,0.1-0.2,0.2-0.4,0.1c-1.4-0.5-3.3,0.2-4,1.5c-0.1,0.2-0.2,0.3-0.5,0.4c-2.2,0.7-3.4,2.8-2.4,4.3
		C358.7,505.5,360.1,505.9,361.4,505.7z M360.6,501c0.9-0.3,1.7-0.3,2.4,0.1c0.1,0.1,0.2,0.1,0.4,0.1c0.2,0,0.4-0.1,0.4-0.3
		c0.1-0.2,0-0.3-0.1-0.4c-0.4-0.3-0.9-0.4-1.5-0.5c-0.1,0-0.1,0-0.2,0c0.5-0.9,2-1.3,2.9-0.9c-0.2,0.4-0.3,0.8-0.2,1.2
		c0,0.2,0.1,0.3,0.1,0.5c0.1,0.2,0.3,0.3,0.6,0.2c0.3-0.1,0.4-0.3,0.3-0.6c-0.3-0.8,0.2-1.8,1.2-2.3c0.8-0.4,2-0.2,2.4,0.3
		c-0.1,0.1-0.3,0.2-0.4,0.2c-0.4,0.2-0.7,0.5-1,0.8c-0.2,0.3-0.1,0.5,0.1,0.6c0.3,0.1,0.5,0,0.7-0.3c0.3-0.4,0.7-0.6,1.1-0.8
		c1-0.3,2-0.1,2.4,0.7c0.4,0.7,0,1.6-0.8,2.1c-0.9,0.5-2,0.5-2.6,0c-0.1-0.1-0.2-0.3-0.3-0.4c-0.1-0.2-0.2-0.3-0.5-0.2
		c-0.2,0-0.3,0.2-0.5,0.4c-0.2,0.2-0.4,0.4-0.6,0.6c-0.8,0.4-1.5,0.4-2.2,0.1c-0.1,0-0.1-0.1-0.2-0.1c-0.2-0.1-0.4,0-0.6,0.1
		c-0.2,0.2-0.2,0.4,0,0.5c0.1,0.1,0.1,0.2,0.1,0.3c-0.3,0.9-1.4,1.7-2.5,1.8c-1.2,0.1-2.2-0.4-2.4-1.3
		C358.5,502.6,359.3,501.4,360.6,501z"/>
	<path class="st1" d="M372.8,507.2c-0.9,0.3-1.4,1.1-1.1,1.8c0.2,0.7,1.1,1,2,0.6c0.9-0.3,1.4-1.1,1.1-1.8
		C374.5,507.2,373.6,506.9,372.8,507.2z M373.4,508.9c-0.4,0.1-0.8,0-0.9-0.3c-0.1-0.3,0.1-0.6,0.5-0.8c0.4-0.1,0.8,0,0.9,0.3
		C374,508.4,373.8,508.8,373.4,508.9z"/>
	<path class="st1" d="M361.9,504.4c0.4-0.1,0.5-0.3,0.4-0.5c-0.1-0.2-0.3-0.3-0.7-0.1c-0.6,0.2-1.1,0.1-1.4-0.4
		c-0.1-0.2-0.4-0.3-0.6-0.1c-0.2,0.1-0.3,0.3-0.2,0.6C359.8,504.5,360.9,504.8,361.9,504.4z"/>
</g>
<path class="st2" d="M232.6,501.9l-0.6,3l4.6,0.1l-9.8,8.4l2.2-5.7l-3.9,0.2l8.1-8.5L232.6,501.9L232.6,501.9z M231.7,501.8
	l-5.1,5.4l3.5-0.2l-1.5,3.8l6.3-5.4l-3.9-0.1L231.7,501.8z"/>
</svg>
