<svg width="20" height="20" viewBox="0 0 20 20" fill="none" xmlns="http://www.w3.org/2000/svg">
<path d="M12.8434 1.55612L10.5475 8.93718H13.7325L5.71813 18.4558L8.92146 11.1844H6.19315L12.8434 1.55612ZM12.8434 0.338121C12.8069 0.338121 12.7764 0.338121 12.7399 0.344211C12.5389 0.362481 12.3562 0.423381 12.1918 0.526911C12.0822 0.593901 11.9786 0.68525 11.8934 0.78878C11.869 0.81923 11.8507 0.84968 11.8264 0.88013L5.1883 10.4901C4.93252 10.8616 4.90207 11.3488 5.11522 11.7508C5.32837 12.1527 5.74249 12.4024 6.19315 12.4024H7.05184L4.60366 17.9625C4.36006 18.5167 4.56103 19.1684 5.07259 19.485C5.27356 19.6068 5.4928 19.6677 5.71813 19.6677C6.06526 19.6677 6.41239 19.5155 6.6499 19.2353L14.6582 9.7167C14.9627 9.35739 15.0297 8.84583 14.8287 8.41953C14.6278 7.98714 14.1954 7.71309 13.7265 7.71309H12.1979L13.9883 1.97024C14.037 1.83626 14.0614 1.69619 14.0614 1.55003C14.0614 0.89231 13.5438 0.362481 12.8982 0.332031C12.8739 0.338121 12.8617 0.338121 12.8434 0.338121Z" fill="#606580"/>
<path fill-rule="evenodd" clip-rule="evenodd" d="M8.45878 1.8717C8.5432 2.19456 8.34991 2.52474 8.02705 2.60917C5.68959 3.22042 3.66683 4.89427 2.71163 7.30725C1.72839 9.80545 2.11752 12.5073 3.52069 14.5781C3.70789 14.8544 3.63569 15.2301 3.35941 15.4173C3.08314 15.6045 2.70742 15.5323 2.52022 15.256C0.902866 12.8691 0.45153 9.7492 1.58733 6.86401L1.58774 6.86298L1.58774 6.86298C2.69103 4.07536 5.02859 2.14412 7.7213 1.43997C8.04417 1.35554 8.37435 1.54883 8.45878 1.8717Z" fill="#606580"/>
<path fill-rule="evenodd" clip-rule="evenodd" d="M15.6653 3.90872C15.9063 3.67788 16.2888 3.68613 16.5196 3.92714C18.8867 6.39856 19.75 10.1116 18.4115 13.5068C17.0727 16.9027 13.906 19.0221 10.4895 19.2112C10.1563 19.2296 9.87119 18.9745 9.85275 18.6412C9.83431 18.308 10.0895 18.023 10.4227 18.0045C13.3885 17.8404 16.129 16.0013 17.2872 13.0636C18.4456 10.1252 17.7011 6.90785 15.6468 4.76307C15.416 4.52206 15.4243 4.13955 15.6653 3.90872Z" fill="#606580"/>
</svg>
