<?xml version="1.0" encoding="utf-8"?>
<!-- Generator: Adobe Illustrator 19.0.0, SVG Export Plug-In . SVG Version: 6.00 Build 0)  -->
<svg version="1.1" id="Слой_1" xmlns="http://www.w3.org/2000/svg" xmlns:xlink="http://www.w3.org/1999/xlink" x="0px" y="0px"
	 viewBox="0 0 595.3 841.9" style="enable-background:new 0 0 595.3 841.9;" xml:space="preserve">
<style type="text/css">
	.st0{fill:#636680;}
</style>
<g>
	<path class="st0" d="M356.4,522.7c-1.2,0-2,0-3.2,0c0-3,0-5.6,0-8.1c0-1.5,0-3-0.4-4.5c-3.6-15.6-7.7-30.8-11.3-46.4
		c-2-8.1-4-15.6-3.2-24.2c0.4-3-0.8-4-3.2-4c-8.5,0-17.4,0-25.8,0c-2.8,0-3.6,1-3.6,4.5c0,2.5,0,5,0,7.6c-3.2,0.5-4,1-4,3
		c0,2,0.4,3,3.2,4c-1.6,6.1-2.8,12.1-4.4,18.7c-0.4-0.5-0.4-0.5-0.4-1c0-3.5-0.4-7.6-0.4-11.1c0-3-0.8-4.5-3.6-4.5
		c-4.4,0-9.3,0-13.7,0c-1.6,0-3.6,0-5.2,0c-2,0-2.8,1.5-2.8,4c0,1,0,2,0,3c0.4,4-0.4,8.6-1.6,12.6c-1.6,5.6-2.8,10.6-4,16.2H268
		c0-0.5,0-1,0-1.5c0-1.5,0-3,0-4c0-3-0.8-4-3.2-4c-3.6,0-7.3,0-10.9,0c-2.4,0-3.6,1-3.2,4.5c0,3.5-0.4,6.6-1.2,9.6
		c-1.6,6.1-3.2,12.1-4.4,18.2c-0.4,2.5-0.8,5-1.2,7.6c0,1-0.4,1-1.2,1c-1.6,0-2.8,0-4.4,0c-1.2,0-2,1.5-2.4,3c0,1.5,0.8,3,2,3.5
		c0.4,0,1.2,0,1.6,0c3.2,0,6.5,0,9.3,0c15.3,0,30.3,0,45.6,0c18.6,0,37.1,0,55.7,0c2.4,0,4.4,0,6.9,0c2,0,3.2-1.5,3.2-3.5
		C359.7,523.8,358.5,522.7,356.4,522.7z M264,507.1c0,1-0.4,2.5-0.8,3.5c-1.2,3-1.2,6.6-1.2,10.1c0,1.5-0.4,2-1.2,2
		c-2,0-3.6,0-5.7,0l0,0c-2,0-3.6,0-5.7,0c-0.8,0-1.2-0.5-1.2-1.5c0-1,0-1.5,0.4-2.5c2-8.1,4-15.6,5.7-23.7c0.4-1.5,0.4-3,0.8-5
		c0-1,0.4-1.5,1.2-1.5c1.6,0,3.2,0,4.4,0c0.4,0,0.8,0.5,0.8,1c0.8,4.5,1.6,9.6,2,14.1C264.4,505.1,264.4,506.1,264,507.1z
		 M291,507.1c-0.4,1-0.8,1.5-1.6,1.5c-2.8,0-4,1-4,3.5c0,2,1.2,3.5,3.6,3.5c0,0,0,0,0.4,0c0,2,0,4,0,6.1c0,1-0.8,1-1.2,1
		c-6.1,0-12.1,0-17.8,0c-0.4,0-0.4,0-0.8,0c-2.4,0-2.4,0-2.4-3c-0.4-4,1.2-7.6,2-11.1c2.8-11.6,6.1-23.7,8.5-35.3
		c0.4-2.5,0.4-5,0.4-7.6c0-1.5,0.4-2,1.6-2c4,0,8.1,0,11.7,0c0.8,0,1.2,0,1.2,1c-0.4,7.6,1.2,14.6,2.4,22.2c0,1,0,1.5,0,2.5
		C294.3,495,292.7,501,291,507.1z M345.5,522.2c-16.1,0-31.9,0-48,0c-1.6,0-1.6,0-1.6-2c0-1.5,0-3,0-5c0.8,0,1.6,0,2.4,0
		c10.5,0,21.4,0,31.9,0c1.6,0,2.8-1,3.2-2.5c0.4-2-0.8-4.5-2.8-4.5c-4.4,0-8.9,0-13.3,0c-6.1,0-12.5,0-18.6,0c-0.4,0-0.8,0-1.6,0
		c0-0.5,0.4-1,0.4-1.5c4-17.2,8.5-34.3,12.5-51c0.4-1,0.8-1.5,1.6-1.5c3.6,0,7.3,0,10.9,0c2,0,3.2-1.5,3.2-3.5c0-2-1.2-3.5-3.2-3.5
		c-3.2,0-6.9,0-10.1,0c-0.4,0-0.8,0-1.6,0c0-2,0-3.5,0-5c7.3,0,14.5,0,21.8,0c0,1.5,0,3,0,4.5c0,3,0.4,6.1,1.2,9.1
		c4.4,18.7,9.3,36.8,13.7,55.5c0.8,2.5,0.4,5.6,0.4,8.6C347.6,522.7,348,522.2,345.5,522.2z"/>
	<path class="st0" d="M263.6,423.8c8.1,2.5,16.6-1,21.8-9.6c0.4-0.5,0.4-1,0.8-1.5c5.7,5.6,12.1,6.6,18.6,3c0.4,1,0.4,1.5,0.8,2
		c3.2,9.1,11.7,14.1,19.8,12.1c7.7-2.5,13.3-10.1,13.7-20.2c0.4-9.6-4-18.2-11.3-21.7c-0.8-0.5-1.2-1-1.2-2
		c-2.4-14.1-14.9-21.2-25-14.6c-1.2,0.5-1.6,0.5-2.4-0.5c-6.9-8.6-18.2-9.1-25,0c-0.8,1.5-2,2-3.2,1.5
		c-13.3-1.5-24.2,13.1-22.2,29.8C249.5,412.7,255.9,421.3,263.6,423.8z M269.2,379.4c5.2,0,9.7,3,12.5,8.6c0.4,1,1.2,1.5,2,2
		c1.2,0.5,2.4,0,2.8-1c0.8-1.5,0.8-2.5,0-4c-2-3.5-4.4-6.6-7.3-9.1c-0.4,0-0.8-0.5-0.8-0.5c4.4-6.6,13.7-5,17.4,1.5
		c-1.6,3-3.2,6.1-3.6,10.1c-0.4,1.5-0.4,3.5-0.4,5c0,2.5,1.2,4,2.8,3.5c1.6,0,2.4-1.5,2.4-4c0-8.6,4.4-15.1,11.3-15.6
		c5.2-0.5,11.3,4.5,12.1,10.6c-0.8,0-2,0.5-2.8,0.5c-2.4,0.5-4.8,2-6.9,4c-1.6,1.5-1.6,4-0.4,5.6c1.2,1.5,2.8,1.5,4.4-0.5
		c2-2.5,4.8-3,7.7-3c6.1,0.5,10.9,6.1,11.7,13.6c0.8,7.1-3.2,14.1-8.9,16.2c-5.7,2-12.1-2-14.1-8.6c-0.4-1.5-0.8-3-0.8-4.5
		c-0.4-2-0.8-3.5-2-4c-1.2-0.5-2,0.5-3.2,2c-1.2,1.5-2.8,2.5-4.8,2.5c-4.8,1-9.3-1-12.1-6.1c-0.4-0.5-0.4-1-0.8-1.5
		c-0.8-1.5-2.4-1.5-3.6-1c-1.2,1-2,2.5-1.2,4c0.4,1,0.4,1.5,0,2.5c-3.6,7.1-10.9,10.6-17.8,8.1c-6.5-2.5-10.9-11.1-10.5-19.7
		C254.3,387,260.8,379.4,269.2,379.4z"/>
	<path class="st0" d="M322.1,474.3c-5.2,0-9.7,5-9.7,12.1c0,6.6,4.4,12.1,9.7,12.1s9.7-5,9.7-12.1
		C331.8,479.3,327.8,474.3,322.1,474.3z M322.1,491.4c-2.4,0-4-2.5-4-5.6c0-3,2-5,4-5c2.4,0,4,2.5,4,5.6
		C326.6,488.9,324.5,491.4,322.1,491.4z"/>
	<path class="st0" d="M268.8,414.2c2.4,0,3.6-1,3.6-3.5c0-2.5-1.2-3.5-3.6-3.5c-3.6,0-6.1-3-6.9-8.1c-0.4-2-1.6-3.5-3.2-3
		c-1.6,0-2.4,2-2.4,4C257.5,407.7,262.8,413.7,268.8,414.2z"/>
</g>
</svg>
