<svg width="16" height="16" viewBox="0 0 16 16" fill="none" xmlns="http://www.w3.org/2000/svg">
<path d="M2.09999 10.3337V7.85039H5.49999L7.14999 6.15039H9.39999V10.3337" stroke="#606580" stroke-miterlimit="10" stroke-linecap="round" stroke-linejoin="round"/>
<path d="M15 10.334H1V15.6673H15V10.334Z" stroke="#606580" stroke-miterlimit="10" stroke-linecap="round" stroke-linejoin="round"/>
<path d="M4.95 0.666992H3.25V7.85033H4.95V0.666992Z" stroke="#606580" stroke-miterlimit="10" stroke-linecap="round" stroke-linejoin="round"/>
<path d="M8.30002 6.14987V2.0332H12.75V3.01654" stroke="#606580" stroke-miterlimit="10" stroke-linecap="round" stroke-linejoin="round"/>
<path d="M13.0398 9.00065H12.2935C11.597 9.00065 11 8.38174 11 7.65968V4.67496C11 3.9529 11.597 3.33398 12.2935 3.33398H13.0398C13.7363 3.33398 14.3333 3.9529 14.3333 4.67496V7.65968C14.3333 8.43332 13.7363 9.00065 13.0398 9.00065Z" stroke="#606580" stroke-miterlimit="10" stroke-linecap="round" stroke-linejoin="round"/>
<path d="M11.6667 10.3333V9" stroke="#606580" stroke-miterlimit="10" stroke-linecap="round" stroke-linejoin="round"/>
<path d="M13.6667 9V10.3333" stroke="#606580" stroke-miterlimit="10" stroke-linecap="round" stroke-linejoin="round"/>
</svg>
