<?xml version="1.0" encoding="utf-8"?>
<!-- Generator: Adobe Illustrator 19.0.0, SVG Export Plug-In . SVG Version: 6.00 Build 0)  -->
<svg version="1.1" id="Слой_1" xmlns="http://www.w3.org/2000/svg" xmlns:xlink="http://www.w3.org/1999/xlink" x="0px" y="0px"
	 viewBox="0 0 595.3 841.9" style="enable-background:new 0 0 595.3 841.9;" xml:space="preserve">
<style type="text/css">
	.st0{fill:#F5A422;}
</style>
<path class="st0" d="M301.7,474.2l-36,48.4c-3.4,4.6-8,6.6-12.5,6.6c-4.6,0-9.1-2-12.5-6.6c-3.4-4.6-4.9-10.7-4.9-16.8
	c0-6.1,1.5-12.2,4.9-16.3l36-48.4c-2.7-9.7-3.4-20.4-2.3-30.5c1.5-11.2,5.3-21.9,11.8-30.5c6.1-8.1,13.3-13.2,20.9-15.3
	c8-2.5,16.3-1.5,23.9,2l6.4,3.1l-25.8,34.6c-2.3,3.1-3.4,7.1-3.4,11.2c0,4.1,1.1,8.1,3.4,11.2c2.3,3.1,5.3,4.6,8.3,4.6
	c3,0,6.1-1.5,8.3-4.6l25.8-34.6l2.3,8.7c2.7,10.2,3.4,21.4,1.5,32.1c-1.5,10.2-5.7,20.4-11.4,28c-6.4,8.7-14.4,13.7-22.8,15.8
	C316.9,478.7,308.9,478.2,301.7,474.2L301.7,474.2z M259.6,513.8l40.2-53.9l2.7,1.5c6.4,4.1,13.7,5.1,20.5,3.6
	c6.8-1.5,12.9-5.6,18.2-12.7c4.9-6.6,8-14.3,9.1-22.4c0.8-5.6,1.1-10.7,0.4-16.3l-15.6,20.9c-4.2,5.6-9.1,8.1-14.4,8.1
	s-10.6-2.5-14.4-8.1c-4.2-5.6-6.1-12.2-6.1-19.3c0-7.1,1.9-14.3,6.1-19.3l15.6-20.9c-4.2-0.5-8-0.5-12.1,0.5
	c-6.1,2-12.1,6.1-16.7,12.2c-5.3,7.1-8.3,15.3-9.5,24.4c-1.1,9.2-0.4,18.8,2.7,27.5l1.1,3.6l-40.2,53.9c-1.5,2-2.7,5.1-2.7,8.1
	s0.8,6.1,2.7,8.1c1.5,2,3.8,3.6,6.1,3.6C255.8,517.4,258.1,516.4,259.6,513.8z"/>
</svg>
