<svg width="20" height="20" viewBox="0 0 20 20" fill="none" xmlns="http://www.w3.org/2000/svg">
<path fill-rule="evenodd" clip-rule="evenodd" d="M11.6363 3.15479L16.8452 8.36377L6.98303 18.226L6.98191 18.2271C5.539 19.6624 3.21208 19.664 1.77405 18.226C0.336627 16.7886 0.336627 14.4544 1.77405 13.017L11.6363 3.15479ZM11.6363 4.85457L2.62394 13.8669C1.6559 14.8349 1.6559 16.4081 2.62394 17.3761C3.59119 18.3433 5.15843 18.3451 6.13374 17.3755C6.13392 17.3753 6.13357 17.3757 6.13374 17.3755L15.1455 8.36377L11.6363 4.85457Z" fill="#606580"/>
<path fill-rule="evenodd" clip-rule="evenodd" d="M12.2192 2.46583C12.1071 2.3573 11.9383 2.36334 11.8384 2.46331L11.5863 2.71534C11.4778 2.82745 11.4838 2.99617 11.5838 3.09615L16.9014 8.41376C17.001 8.51517 17.1646 8.52095 17.2758 8.40979L17.5278 8.15775C17.6363 8.04565 17.6303 7.87692 17.5303 7.77695L12.2192 2.46583ZM10.9885 1.61342C11.5626 1.03929 12.4874 1.04494 13.0626 1.60947L13.0666 1.6134L18.3802 6.92706C18.9543 7.50119 18.9487 8.42597 18.3841 9.00114L18.3802 9.00515L18.1256 9.25968C17.5503 9.83505 16.621 9.84154 16.0458 9.25795L10.7339 3.94604C10.1598 3.37191 10.1655 2.44713 10.73 1.87196L10.7339 1.86795L10.9885 1.61342Z" fill="#606580"/>
<path fill-rule="evenodd" clip-rule="evenodd" d="M14.6349 1.01537C15.0605 0.589767 15.7465 0.589767 16.1721 1.01537L18.9848 3.82809C19.4104 4.2537 19.4104 4.93966 18.9848 5.36526L17.0517 7.29839L12.7018 2.9485L14.6349 1.01537ZM15.4035 1.94657L14.4016 2.9485L17.0517 5.5986L18.0536 4.59668L15.4035 1.94657Z" fill="#606580"/>
<path d="M5.97896 12.475L4.06987 14.3841C3.65624 14.7977 3.64987 15.4532 4.05078 15.8604L4.13351 15.9432C4.53442 16.3441 5.19624 16.3377 5.60987 15.9241L9.73987 11.7941L5.97896 12.475Z" fill="#606580"/>
<path fill-rule="evenodd" clip-rule="evenodd" d="M11.5232 10.8601L6.03465 16.3487C5.39592 16.9874 4.35347 17.0129 3.70839 16.3678L3.62232 16.2817C2.98356 15.6328 3.00415 14.5994 3.64475 13.9588L5.68676 11.9168L11.5232 10.8601ZM6.27082 13.0325L4.49465 14.8087C4.30848 14.9949 4.31579 15.2714 4.47759 15.4372L4.55828 15.5179C4.71502 15.6746 4.99621 15.6873 5.18476 15.4988L7.95617 12.7274L6.27082 13.0325Z" fill="#606580"/>
</svg>
