<?xml version="1.0" encoding="utf-8"?>
<!-- Generator: Adobe Illustrator 19.0.0, SVG Export Plug-In . SVG Version: 6.00 Build 0)  -->
<svg version="1.1" id="Слой_1" xmlns="http://www.w3.org/2000/svg" xmlns:xlink="http://www.w3.org/1999/xlink" x="0px" y="0px"
	 viewBox="0 0 595.3 841.9" style="enable-background:new 0 0 595.3 841.9;" xml:space="preserve">
<style type="text/css">
	.st0{fill:#5C617E;}
	.st1{fill:none;stroke:#636680;stroke-width:4;stroke-miterlimit:10;}
</style>
<path id="XMLID_2_" class="st0" d="M238.2,405.6c0-1.4,0.5-2.8,1.6-3.8l61.1-61.1c2.1-2.1,5.5-2.1,7.6,0s2.1,5.5,0,7.6l-57.3,57.3
	l57.3,57.3c2.1,2.1,2.1,5.5,0,7.6s-5.5,2.1-7.6,0l-61.1-61.1C238.7,408.4,238.2,407,238.2,405.6z"/>
<path id="XMLID_1_" class="st1" d="M394.9,547.3H200.4c-17.4-19.5-27.1-30.5-44.5-50.1V313.9c17.4-19.5,27.1-30.5,44.5-50.1h194.5
	c17.4,19.5,27.1,30.5,44.5,50.1v183.4C422,516.9,412.3,527.8,394.9,547.3z"/>
</svg>
