<?xml version="1.0" encoding="utf-8"?>
<!-- Generator: Adobe Illustrator 19.0.0, SVG Export Plug-In . SVG Version: 6.00 Build 0)  -->
<svg version="1.1" id="Слой_1" xmlns="http://www.w3.org/2000/svg" xmlns:xlink="http://www.w3.org/1999/xlink" x="0px" y="0px"
	 viewBox="0 0 595.3 841.9" style="enable-background:new 0 0 595.3 841.9;" xml:space="preserve">
<style type="text/css">
	.st0{fill-rule:evenodd;clip-rule:evenodd;fill:none;stroke:#636680;stroke-width:4;stroke-miterlimit:10;}
	.st1{fill:#5D627E;}
</style>
<path id="XMLID_1_" class="st0" d="M394.9,547.3H200.4c-17.4-19.5-27.1-30.5-44.5-50V313.9c17.4-19.5,27.1-30.5,44.5-50h194.5
	c17.4,19.5,27.1,30.5,44.5,50v183.4C422,516.8,412.3,527.8,394.9,547.3z"/>
<path id="XMLID_3_" class="st1" d="M333.4,405.6c0,1.4-0.5,2.8-1.6,3.8l-60.7,60.7c-2.1,2.1-5.5,2.1-7.6,0s-2.1-5.5,0-7.6l56.9-56.9
	l-56.9-56.9c-2.1-2.1-2.1-5.5,0-7.6s5.5-2.1,7.6,0l60.7,60.7C332.9,402.8,333.4,404.2,333.4,405.6z"/>
</svg>
