<svg width="4" height="15" viewBox="0 0 4 15" fill="none" xmlns="http://www.w3.org/2000/svg">
<path fill-rule="evenodd" clip-rule="evenodd" d="M1.89575 3.5302C2.60474 3.5302 3.2168 2.91821 3.2168 2.20821C3.2168 1.46721 2.60474 0.887207 1.89575 0.887207C1.15381 0.887207 0.57373 1.46721 0.57373 2.20821C0.57373 2.91821 1.15381 3.5302 1.89575 3.5302Z" fill="#5B607D"/>
<path fill-rule="evenodd" clip-rule="evenodd" d="M1.89575 9.04241C2.60474 9.04241 3.2168 8.43041 3.2168 7.72141C3.2168 6.97941 2.60474 6.39941 1.89575 6.39941C1.15381 6.39941 0.57373 6.97941 0.57373 7.72141C0.57373 8.43041 1.15381 9.04241 1.89575 9.04241Z" fill="#5B607D"/>
<path fill-rule="evenodd" clip-rule="evenodd" d="M1.89575 14.5221C2.60474 14.5221 3.2168 13.9421 3.2168 13.2331C3.2168 12.4911 2.60474 11.9111 1.89575 11.9111C1.15381 11.9111 0.57373 12.4911 0.57373 13.2331C0.57373 13.9421 1.15381 14.5221 1.89575 14.5221Z" fill="#5B607D"/>
</svg>
