<svg width="15" height="15" viewBox="0 0 15 15" fill="none" xmlns="http://www.w3.org/2000/svg">
<path d="M1.5 0C0.677469 0 0 0.677469 0 1.5V11.5C0 12.3225 0.677469 13 1.5 13H6H7V12V5H12V7H13V1.5C13 0.677469 12.3225 0 11.5 0H7H6H1.5ZM1.5 1H6V4H1V1.5C1 1.21853 1.21853 1 1.5 1ZM7 1H11.5C11.7815 1 12 1.21853 12 1.5V4H7V1ZM1 5H6V8H1V5ZM11 8V9.05469C10.6828 9.11998 10.3905 9.24814 10.1289 9.42188L9.35352 8.64648L8.64648 9.35352L9.42188 10.1289C9.24825 10.3907 9.11591 10.6827 9.05078 11H8V12H9.05078C9.11591 12.3173 9.24825 12.6093 9.42188 12.8711L8.64648 13.6465L9.35352 14.3535L10.1289 13.5781C10.3905 13.7519 10.6828 13.88 11 13.9453V15H12V13.9453C12.3068 13.8822 12.5905 13.7607 12.8457 13.5957L13.6289 14.4609L14.3711 13.7891L13.5605 12.8965C13.7431 12.6284 13.8819 12.3278 13.9492 12H15V11H13.9492C13.8845 10.6845 13.7541 10.3935 13.582 10.1328L14.3496 9.37695L13.6504 8.66406L12.875 9.42578C12.6123 9.25049 12.319 9.12035 12 9.05469V8H11ZM1 9H6V12H1.5C1.21853 12 1 11.7815 1 11.5V9ZM11.5 10C12.3343 10 13 10.6657 13 11.5C13 12.3343 12.3343 13 11.5 13C10.6657 13 10 12.3343 10 11.5C10 10.6657 10.6657 10 11.5 10Z" fill="#606580"/>
</svg>
