<?xml version="1.0" encoding="utf-8"?>
<!-- Generator: Adobe Illustrator 19.0.0, SVG Export Plug-In . SVG Version: 6.00 Build 0)  -->
<svg version="1.1" id="Слой_1" xmlns="http://www.w3.org/2000/svg" xmlns:xlink="http://www.w3.org/1999/xlink" x="0px" y="0px"
	 viewBox="0 0 595.3 841.9" style="enable-background:new 0 0 595.3 841.9;" xml:space="preserve">
<style type="text/css">
	.st0{opacity:0.5;fill:#5F6581;stroke:#000000;stroke-miterlimit:10;enable-background:new    ;}
</style>
<path id="XMLID_1_" class="st0" d="M292,126.1C132.3,126.1,2.4,257,2.4,418S132.3,709.9,292,709.9c46.5,0,92.6-11.4,133.5-32.8
	c0,0-6.2-2.3-8.6-3.2c-38.5,19.1-81.5,29.2-124.9,29.2C136,703.1,9,575.1,9,418S136,132.8,292,132.8s282.9,128,282.9,285.1
	c0,67-23.4,131.8-65.9,183c0.6,3.4,1.5,8.7,1.5,8.7c45.9-53.1,71.2-121.2,71.2-191.8c0-21.4-2.3-42.3-6.8-62.3
	c0,0,9.8-12.4,18.1-23.1c-21.7-79-73.3-145.6-141.6-186.7c-11,4.4-29.3,11.6-29.3,11.6C382.8,137.4,338.7,126.1,292,126.1z"/>
</svg>
