<?xml version="1.0" encoding="utf-8"?>
<!-- Generator: Adobe Illustrator 19.0.0, SVG Export Plug-In . SVG Version: 6.00 Build 0)  -->
<svg version="1.1" id="Слой_1" xmlns="http://www.w3.org/2000/svg" xmlns:xlink="http://www.w3.org/1999/xlink" x="0px" y="0px"
	 viewBox="-181 -140.9 595.3 841.9" style="enable-background:new -181 -140.9 595.3 841.9;" xml:space="preserve">
<style type="text/css">
	.st0{fill:none;stroke:#5B607D;stroke-width:3;stroke-miterlimit:10;}
	.st1{opacity:0.5;fill:#A2E2FF;enable-background:new    ;}
	.st2{fill:#5B607D;stroke:#5B607D;stroke-width:3;stroke-miterlimit:10;}
	.st3{fill:none;stroke:#1B1E27;stroke-width:6;stroke-miterlimit:10;}
	.st4{fill:#1B1E27;stroke:#5B607D;stroke-width:2;stroke-miterlimit:10;}
</style>
<path id="XMLID_2_" class="st0" d="M-165.7-126.3v31.4c5.6,7.4,8.6,11.4,14.2,18.7h155L96.8,47.2"/>
<path id="XMLID_1_" class="st1" d="M106,50.2c-131.8,0-239,108-239,240.9S-25.8,532,106,532c38.4,0,76.4-9.4,110.2-27.1
	c0,0-5.1-1.9-7.1-2.6c-31.8,15.8-67.3,24.1-103.1,24.1c-128.7,0-233.5-105.6-233.5-235.3S-22.7,55.7,106,55.7S339.5,161.3,339.5,291
	c0,55.3-19.3,108.8-54.4,151c0.5,2.8,1.2,7.2,1.2,7.2c37.9-43.8,58.8-100,58.8-158.3c0-17.7-1.9-34.9-5.6-51.4
	c0,0,8.1-10.2,14.9-19.1c-17.9-65.2-60.5-120.2-116.9-154.1c-9.1,3.6-24.2,9.6-24.2,9.6C181,59.5,144.6,50.2,106,50.2z"/>
<circle class="st2" cx="101" cy="52.8" r="12"/>
<circle class="st3" cx="101" cy="52.8" r="7"/>
<circle class="st4" cx="-165.7" cy="-126.3" r="7.5"/>
</svg>
