<svg width="20" height="20" viewBox="0 0 20 20" fill="none" xmlns="http://www.w3.org/2000/svg">
<path fill-rule="evenodd" clip-rule="evenodd" d="M9.99993 8.13375C8.96812 8.13375 8.13326 8.96861 8.13326 10.0004C8.13326 11.0322 8.96812 11.8671 9.99993 11.8671C10.3681 11.8671 10.6666 12.1656 10.6666 12.5337C10.6666 12.9019 10.3681 13.2004 9.99993 13.2004C8.23174 13.2004 6.79993 11.7686 6.79993 10.0004C6.79993 8.23223 8.23174 6.80042 9.99993 6.80042C11.7681 6.80042 13.1999 8.23223 13.1999 10.0004C13.1999 10.3686 12.9015 10.6671 12.5333 10.6671C12.1651 10.6671 11.8666 10.3686 11.8666 10.0004C11.8666 8.96861 11.0317 8.13375 9.99993 8.13375Z" fill="#5B607D"/>
<path fill-rule="evenodd" clip-rule="evenodd" d="M10.0003 4.73336C7.10179 4.73336 4.7336 7.10155 4.7336 10C4.7336 12.8985 7.10179 15.2667 10.0003 15.2667C10.3685 15.2667 10.6669 15.5652 10.6669 15.9334C10.6669 16.3015 10.3685 16.6 10.0003 16.6C6.36541 16.6 3.40027 13.6349 3.40027 10C3.40027 6.36517 6.36541 3.40002 10.0003 3.40002C10.3685 3.40002 10.6669 3.6985 10.6669 4.06669C10.6669 4.43488 10.3685 4.73336 10.0003 4.73336Z" fill="#5B607D"/>
<path fill-rule="evenodd" clip-rule="evenodd" d="M10 1.33333C5.23486 1.33333 1.33333 5.23486 1.33333 10C1.33333 14.7651 5.23486 18.6667 10 18.6667C10.3682 18.6667 10.6667 18.9651 10.6667 19.3333C10.6667 19.7015 10.3682 20 10 20C4.49848 20 0 15.5015 0 10C0 4.49848 4.49848 0 10 0C13.6443 0 16.7847 1.93095 18.5653 4.78L18.5668 4.78243C19.5028 6.29428 20 8.08382 20 10C20 10.3682 19.7015 10.6667 19.3333 10.6667C18.9651 10.6667 18.6667 10.3682 18.6667 10C18.6667 8.31665 18.2308 6.77326 17.4338 5.48532C15.881 3.00178 13.1552 1.33333 10 1.33333Z" fill="#5B607D"/>
</svg>
