<svg width="17" height="13" viewBox="0 0 17 13" fill="none" xmlns="http://www.w3.org/2000/svg">
<path d="M5.14407 12.885H0.932068C0.638062 12.885 0.399048 12.647 0.399048 12.3521C0.399048 12.0581 0.638062 11.8191 0.932068 11.8191H5.14407C5.43906 11.8191 5.67807 12.0581 5.67807 12.3521C5.67807 12.647 5.43906 12.885 5.14407 12.885Z" fill="#5B607D"/>
<path d="M7.82507 9.18433H0.932068C0.638062 9.18433 0.399048 8.94531 0.399048 8.65112C0.399048 8.3562 0.638062 8.11719 0.932068 8.11719H7.82507C8.11905 8.11719 8.35806 8.3562 8.35806 8.65112C8.35806 8.94531 8.11905 9.18433 7.82507 9.18433Z" fill="#5B607D"/>
<path d="M12.037 5.48291H0.932068C0.638062 5.48291 0.399048 5.2439 0.399048 4.94897C0.399048 4.65503 0.638062 4.41602 0.932068 4.41602H12.037C12.3311 4.41602 12.5701 4.65503 12.5701 4.94897C12.5701 5.2439 12.3311 5.48291 12.037 5.48291Z" fill="#5B607D"/>
<path d="M15.8661 1.78101H0.932068C0.638062 1.78101 0.399048 1.54199 0.399048 1.24805C0.399048 0.952881 0.638062 0.715088 0.932068 0.715088H15.8661C16.1611 0.715088 16.399 0.952881 16.399 1.24805C16.399 1.54199 16.1611 1.78101 15.8661 1.78101Z" fill="#5B607D"/>
</svg>
