<svg width="17" height="16" viewBox="0 0 17 16" fill="none" xmlns="http://www.w3.org/2000/svg">
<path fill-rule="evenodd" clip-rule="evenodd" d="M14.0057 10.9608C13.9058 10.9608 13.8098 10.9768 13.7128 10.9908L9.68872 3.80582C9.9928 3.44281 10.1837 2.9808 10.1837 2.4718C10.1837 1.31982 9.2467 0.382812 8.09473 0.382812C6.94275 0.382812 6.00574 1.31982 6.00574 2.4718C6.00574 3.03882 6.23474 3.55182 6.60181 3.92783L2.48181 10.9908C2.38379 10.9768 2.28577 10.9608 2.18372 10.9608C1.03174 10.9608 0.0947266 11.8978 0.0947266 13.0498C0.0947266 14.2018 1.03174 15.1388 2.18372 15.1388C3.03479 15.1388 3.76575 14.6258 4.0907 13.8938H12.0988C12.4248 14.6258 13.1548 15.1388 14.0057 15.1388C15.1577 15.1388 16.0947 14.2018 16.0947 13.0498C16.0947 11.8978 15.1577 10.9608 14.0057 10.9608ZM8.09473 1.44983C8.65881 1.44983 9.1167 1.90781 9.1167 2.4718C9.1167 3.03482 8.65881 3.4938 8.09473 3.4938C7.53174 3.4938 7.07275 3.03482 7.07275 2.4718C7.07275 1.90781 7.53174 1.44983 8.09473 1.44983ZM7.52075 4.47083C7.70374 4.5238 7.89478 4.56082 8.09473 4.56082C8.34875 4.56082 8.58875 4.50882 8.81372 4.42581L12.7257 11.4108C12.2927 11.7498 12.0017 12.2528 11.9397 12.8278H4.24976C4.18872 12.2548 3.8988 11.7548 3.46875 11.4158L7.52075 4.47083ZM2.18372 14.0718C1.61975 14.0718 1.16174 13.6138 1.16174 13.0498C1.16174 12.4868 1.61975 12.0278 2.18372 12.0278C2.7478 12.0278 3.20581 12.4868 3.20581 13.0498C3.20581 13.6138 2.7478 14.0718 2.18372 14.0718ZM14.0057 14.0718C13.4418 14.0718 12.9838 13.6138 12.9838 13.0498C12.9838 12.4868 13.4418 12.0278 14.0057 12.0278C14.5697 12.0278 15.0277 12.4868 15.0277 13.0498C15.0277 13.6138 14.5697 14.0718 14.0057 14.0718Z" fill="#5B607D"/>
</svg>
