<svg width="16" height="16" viewBox="0 0 16 16" fill="none" xmlns="http://www.w3.org/2000/svg">
<path d="M7.99995 11.05C5.19995 11.05 2.94995 8.79995 2.94995 5.99995C2.94995 3.19995 5.19995 0.949951 7.99995 0.949951C10.8 0.949951 13.05 3.19995 13.05 5.99995C13.05 8.79995 10.8 11.05 7.99995 11.05Z" stroke="#606580" stroke-miterlimit="10" stroke-linecap="round" stroke-linejoin="round"/>
<path d="M7.99985 6.9001C7.49985 6.9001 7.09985 6.5001 7.09985 6.0001C7.09985 5.5001 7.49985 5.1001 7.99985 5.1001C8.49985 5.1001 8.89985 5.5001 8.89985 6.0001C8.89985 6.5001 8.49985 6.9001 7.99985 6.9001Z" stroke="#606580" stroke-miterlimit="10" stroke-linecap="round" stroke-linejoin="round"/>
<path d="M8 9.80005V11.05" stroke="#606580" stroke-miterlimit="10" stroke-linecap="round" stroke-linejoin="round"/>
<path d="M8 1.15002V2.35002" stroke="#606580" stroke-miterlimit="10" stroke-linecap="round" stroke-linejoin="round"/>
<path d="M4.30005 6.1001H3.05005" stroke="#606580" stroke-miterlimit="10" stroke-linecap="round" stroke-linejoin="round"/>
<path d="M12.95 6.1001H11.75" stroke="#606580" stroke-miterlimit="10" stroke-linecap="round" stroke-linejoin="round"/>
<path d="M8.8999 5.10005L10.1999 3.80005" stroke="#606580" stroke-miterlimit="10" stroke-linecap="round" stroke-linejoin="round"/>
<path d="M10 12.5V15H6V12.5" stroke="#606580" stroke-miterlimit="10" stroke-linecap="round" stroke-linejoin="round"/>
<path d="M3.55005 15H12.45" stroke="#606580" stroke-miterlimit="10" stroke-linecap="round" stroke-linejoin="round"/>
</svg>
