<?xml version="1.0" encoding="utf-8"?>
<!-- Generator: Adobe Illustrator 19.0.0, SVG Export Plug-In . SVG Version: 6.00 Build 0)  -->
<svg version="1.1" id="Слой_1" xmlns="http://www.w3.org/2000/svg" xmlns:xlink="http://www.w3.org/1999/xlink" x="0px" y="0px"
	 viewBox="0 0 595.3 841.9" style="enable-background:new 0 0 595.3 841.9;" xml:space="preserve">
<style type="text/css">
	.st0{fill:#626580;}
</style>
<g id="XMLID_1_">
	<path id="XMLID_2_" class="st0" d="M253.1,367.1v62.2c0,2.4,1.1,4.8,3.2,5.4l46.1,22.9c0.6,0.6,1.5,0.6,2.1,0.6s1.5,0,2.1-0.6
		l46.6-22.9c2.1-1.2,3.2-3,3.2-5.4v-62.2c0-1.2,0-1.8-0.6-2.4c0,0,0-0.6-0.6-0.6c-0.6-0.6-0.6-1.2-1.1-1.2c0,0,0,0-0.6-0.6H353
		c0,0-0.6,0-0.6-0.6l-47.2-23.5c-1.5-0.6-2.6-0.6-4.1,0L256,361.1c0,0-0.6,0-0.6,0.6c0,0,0,0-0.6,0c0,0,0,0-0.6,0.6
		c-0.6,0.6-1.1,0.6-1.1,1.2l-0.6,0.6C253.1,365.3,253.1,365.9,253.1,367.1L253.1,367.1L253.1,367.1L253.1,367.1z M281.4,361.7
		l33.5,16.3l-9.9,4.8l-33-15.7L281.4,361.7z M263.6,376.2l35.6,17.5v49.5l-35.6-17.5V376.2z M345.8,425.1l-36.1,17.5v-49.5l13.7-6.6
		v9.1c0,3.6,2.1,6,5.2,6s5.2-2.4,5.2-6v-14.5l12-6L345.8,425.1L345.8,425.1z M303.3,350.2l34.1,16.3l-9.4,4.2l-33.5-16.3
		L303.3,350.2z"/>
	<path id="XMLID_8_" class="st0" d="M372.6,464.3c-7.9,0-14.2,6-16.3,13.9h-35c-2.1-7.8-9-13.9-16.3-13.9c-7.9,0-14.2,6-16.3,13.9
		h-35.6c-2.1-7.8-9-13.9-16.3-13.9c-9.4,0-17.2,9.1-17.2,19.9c0,10.9,7.9,19.9,17.2,19.9c7.9,0,14.2-6,16.3-13.9h35
		c2.1,7.8,9,13.9,16.3,13.9c7.9,0,14.2-6,16.3-13.9h35c2.1,7.8,9,13.9,16.3,13.9c9.4,0,17.2-9.1,17.2-19.9
		C389.8,472.7,382.5,464.3,372.6,464.3z M304.4,488.4c-2.1,0-3.7-1.8-3.7-4.2c0-2.4,1.5-4.2,3.7-4.2c2.1,0,3.7,1.8,3.7,4.2
		C308.1,486,306.5,488.4,304.4,488.4z M236.8,492.1c-3.7,0-6.8-3.6-6.8-7.8c0-4.2,3.2-7.8,6.8-7.8c3.7,0,6.8,3.6,6.8,7.8
		C243.6,488.4,240.4,492.1,236.8,492.1z M372.6,492.1c-3.7,0-6.8-3.6-6.8-7.8c0-4.2,3.2-7.8,6.8-7.8c3.7,0,6.8,3.6,6.8,7.8
		C379.3,488.4,376.7,492.1,372.6,492.1z"/>
	<ellipse id="XMLID_13_" class="st0" cx="304.4" cy="484.2" rx="7.3" ry="8.5"/>
</g>
</svg>
