<?xml version="1.0" encoding="utf-8"?>
<!-- Generator: Adobe Illustrator 19.0.0, SVG Export Plug-In . SVG Version: 6.00 Build 0)  -->
<svg version="1.1" id="Слой_1" xmlns="http://www.w3.org/2000/svg" xmlns:xlink="http://www.w3.org/1999/xlink" x="0px" y="0px"
	 viewBox="0 0 595.3 841.9" style="enable-background:new 0 0 595.3 841.9;" xml:space="preserve">
<style type="text/css">
	.st0{fill:#636680;}
</style>
<g>
	<path class="st0" d="M357.1,489.8c-14.7-8.2-15.1-42.3-15.1-42.8v-22.9c0-21.9-10.9-41.3-26.9-49.5c0-11.2-7.6-20.4-17.2-20.4
		s-16.8,9.2-17.2,20.4c-16,8.2-26.9,27-26.9,49.5V447c0,1-0.4,35.2-15.1,42.8c-1.7,1-2.5,3.1-2.1,5.1s2.1,3.6,3.8,3.6h36.9
		c0.8,5.1,2.5,9.7,5.9,13.8c4.2,5.1,9.2,7.6,14.7,7.6s10.9-2.5,14.7-7.6c2.9-3.6,5-8.7,5.9-13.8h36.9c1.7,0,3.4-1.5,3.8-3.6
		C359.6,492.9,358.8,490.3,357.1,489.8z M298.3,363.4c4.2,0,8,3.6,8.8,8.2c-2.9-0.5-5.9-1-8.8-1s-5.9,0.5-8.8,1
		C290.3,366.4,294.1,363.4,298.3,363.4z M261.8,446.5v-22.9c0-24.5,16.4-43.9,36.1-43.9s36.1,19.9,36.1,43.9v22.9
		c0,0.5,0,8.2,1.7,17.3h-75.6C261.8,454.6,261.8,447.5,261.8,446.5z M298.3,510.7c-5.9,0-10.9-5.1-12.6-12.2h25.2
		C309.2,505.6,304.2,510.7,298.3,510.7z M251.3,489.3c2.9-4.6,5-10.2,6.7-15.8h79.8c1.7,5.6,3.8,11.2,6.7,15.8H251.3z"/>
	<path class="st0" d="M298.3,386.3c-16.8,0-30.2,16.3-30.2,36.7c0,2.5,1.7,4.6,3.8,4.6s3.8-2,3.8-4.6c0-14.8,10.1-27,22.2-27
		c2.1,0,3.8-2,3.8-4.6C302.1,388.3,300.4,386.3,298.3,386.3z"/>
</g>
</svg>
