<svg width="18" height="20" viewBox="0 0 18 20" fill="none" xmlns="http://www.w3.org/2000/svg">
<path fill-rule="evenodd" clip-rule="evenodd" d="M8.97334 0.104858L16.8465 0.19094C17.1888 0.194683 17.4643 0.473219 17.4643 0.815523V12.6021C17.4643 14.2754 16.5435 15.8184 15.0618 16.6094C15.0616 16.6095 15.062 16.6093 15.0618 16.6094L9.08328 19.8205C8.89472 19.9217 8.66744 19.9194 8.48099 19.8143L2.81943 16.6227C1.39033 15.8159 0.508423 14.296 0.508423 12.6551V0.815523C0.508423 0.473232 0.783909 0.194702 1.12618 0.190941L8.97334 0.104858ZM8.96653 1.3541L1.75766 1.43332V12.6551C1.75766 13.8483 2.39906 14.9508 3.43323 15.5346L8.79502 18.5573L14.473 15.5076C15.547 14.9345 16.2151 13.8157 16.2151 12.6021V1.43335L8.96653 1.3541Z" fill="#606580"/>
<path fill-rule="evenodd" clip-rule="evenodd" d="M9.59764 4.50935C9.60164 4.85429 9.32525 5.13717 8.9803 5.14117L5.59818 5.18036V10.6218C5.59818 11.1173 5.86671 11.579 6.30094 11.8263C6.30128 11.8265 6.30162 11.8267 6.30197 11.8269L9.19339 13.4546C9.494 13.6238 9.60051 14.0047 9.43128 14.3053C9.26206 14.6059 8.88119 14.7124 8.58058 14.5432L5.6869 12.9142L5.68463 12.9129C4.86134 12.445 4.34894 11.5695 4.34894 10.6218V4.56294C4.34894 4.2208 4.6242 3.94233 4.96632 3.93836L8.96583 3.89201C9.31077 3.88801 9.59364 4.1644 9.59764 4.50935Z" fill="#606580"/>
</svg>
