<svg width="16" height="16" viewBox="0 0 16 16" fill="none" xmlns="http://www.w3.org/2000/svg">
<path d="M4.90009 8H10.9001" stroke="#606580" stroke-width="1.2" stroke-miterlimit="10" stroke-linecap="round" stroke-linejoin="round"/>
<path d="M7.90009 8V3H10.9001" stroke="#606580" stroke-width="1.2" stroke-miterlimit="10" stroke-linecap="round" stroke-linejoin="round"/>
<path d="M12.7501 4.7C13.6337 4.7 14.3501 3.98366 14.3501 3.1C14.3501 2.21634 13.6337 1.5 12.7501 1.5C11.8664 1.5 11.1501 2.21634 11.1501 3.1C11.1501 3.98366 11.8664 4.7 12.7501 4.7Z" stroke="#606580" stroke-width="1.2" stroke-miterlimit="10" stroke-linecap="round" stroke-linejoin="round"/>
<path d="M7.90009 8V13H10.9001" stroke="#606580" stroke-width="1.2" stroke-miterlimit="10" stroke-linecap="round" stroke-linejoin="round"/>
<path d="M12.7501 14.5C13.6337 14.5 14.3501 13.7836 14.3501 12.9C14.3501 12.0163 13.6337 11.3 12.7501 11.3C11.8664 11.3 11.1501 12.0163 11.1501 12.9C11.1501 13.7836 11.8664 14.5 12.7501 14.5Z" stroke="#606580" stroke-width="1.2" stroke-miterlimit="10" stroke-linecap="round" stroke-linejoin="round"/>
<path d="M12.7501 9.59998C13.6337 9.59998 14.3501 8.88363 14.3501 7.99998C14.3501 7.11632 13.6337 6.39998 12.7501 6.39998C11.8664 6.39998 11.1501 7.11632 11.1501 7.99998C11.1501 8.88363 11.8664 9.59998 12.7501 9.59998Z" stroke="#606580" stroke-width="1.2" stroke-miterlimit="10" stroke-linecap="round" stroke-linejoin="round"/>
<path d="M3.25009 9.59998C4.13374 9.59998 4.85009 8.88363 4.85009 7.99998C4.85009 7.11632 4.13374 6.39998 3.25009 6.39998C2.36643 6.39998 1.65009 7.11632 1.65009 7.99998C1.65009 8.88363 2.36643 9.59998 3.25009 9.59998Z" stroke="#606580" stroke-width="1.2" stroke-miterlimit="10" stroke-linecap="round" stroke-linejoin="round"/>
</svg>
