<svg width="17" height="16" viewBox="0 0 17 16" fill="none" xmlns="http://www.w3.org/2000/svg">
<path fill-rule="evenodd" clip-rule="evenodd" d="M15.573 1.46719L15.569 1.4632C15.123 1.01819 14.509 0.742188 13.838 0.742188H2.75098C2.07898 0.742188 1.46594 1.01819 1.01904 1.4632L1.01599 1.46719C0.569946 1.91318 0.293945 2.52618 0.293945 3.19818V12.9442C0.293945 13.6152 0.569946 14.2282 1.01599 14.6752L1.01904 14.6792C1.46594 15.1242 2.07898 15.4002 2.75098 15.4002H13.838C14.509 15.4002 15.123 15.1242 15.569 14.6792L15.573 14.6752C16.0179 14.2282 16.2939 13.6152 16.2939 12.9442V3.19818C16.2939 2.52618 16.0179 1.91318 15.573 1.46719ZM15.551 12.6262C15.551 13.1622 15.335 13.6522 14.9871 14.0092L14.983 14.0122C14.634 14.3682 14.1541 14.5882 13.6281 14.5882H3.02905C2.50305 14.5882 2.02405 14.3682 1.67395 14.0122L1.67102 14.0092C1.323 13.6522 1.10596 13.1622 1.10596 12.6262V4.84317C1.10596 4.30719 1.323 3.81717 1.67102 3.46118L1.67395 3.45718C2.02405 3.10217 2.50305 2.8812 3.02905 2.8812H13.6281C14.1541 2.8812 14.634 3.10217 14.983 3.45718L14.9871 3.46118C15.335 3.81717 15.551 4.30719 15.551 4.84317V12.6262Z" fill="#616580"/>
<path fill-rule="evenodd" clip-rule="evenodd" d="M6.11096 12.4973H2.88196V9.26825C2.88196 9.09225 2.73804 8.94824 2.56201 8.94824C2.38599 8.94824 2.24194 9.09225 2.24194 9.26825V12.8163C2.24194 12.9922 2.38599 13.1362 2.56201 13.1362H6.11096C6.28699 13.1362 6.43103 12.9922 6.43005 12.8163C6.43005 12.6403 6.28699 12.4973 6.11096 12.4973Z" fill="#616580"/>
<path fill-rule="evenodd" clip-rule="evenodd" d="M13.8928 4.09033H10.3439C10.1679 4.09033 10.0239 4.23434 10.0249 4.41034C10.0249 4.58633 10.1679 4.72934 10.3439 4.72934H13.5729V7.95935C13.5729 8.13434 13.7169 8.27835 13.8928 8.27835C14.0689 8.27835 14.2129 8.13434 14.2129 7.95935V4.41034C14.2129 4.23434 14.0689 4.09033 13.8928 4.09033Z" fill="#616580"/>
</svg>
