<svg width="18" height="18" viewBox="0 0 18 18" fill="none" xmlns="http://www.w3.org/2000/svg">
<path opacity="0.4" fill-rule="evenodd" clip-rule="evenodd" d="M7.04096 0.910103L6.83096 2.1601C6.41321 2.28947 6.00818 2.45683 5.62096 2.6601L4.62096 1.9201C4.40782 1.77028 4.14877 1.7002 3.88916 1.72214C3.62956 1.74408 3.38594 1.85663 3.20096 2.0401L2.09096 3.1501C1.8822 3.35627 1.76355 3.63671 1.76096 3.9301C1.76024 4.16048 1.83389 4.38494 1.97096 4.5701L2.71096 5.5701C2.48206 5.97922 2.29768 6.41169 2.16096 6.8601L0.920963 7.0701C0.66399 7.11475 0.430945 7.24846 0.262714 7.44777C0.094484 7.64709 0.00181354 7.89928 0.000963198 8.1601V9.7201C-0.0102602 9.98943 0.0769108 10.2536 0.246202 10.4634C0.415494 10.6732 0.655337 10.8142 0.920963 10.8601L2.19096 11.0801C2.32306 11.4984 2.4938 11.9035 2.70096 12.2901L1.96096 13.2901C1.83108 13.4783 1.76134 13.7014 1.76096 13.9301C1.76039 14.0748 1.78836 14.2181 1.84327 14.352C1.89818 14.4858 1.97895 14.6075 2.08096 14.7101L3.19096 15.8201C3.37594 16.0036 3.61956 16.1161 3.87916 16.1381C4.13877 16.16 4.39782 16.0899 4.61096 15.9401L5.61096 15.2001C6.00074 15.4027 6.40934 15.5668 6.83096 15.6901L7.08096 16.8601C7.12561 17.1171 7.25932 17.3501 7.45863 17.5184C7.65795 17.6866 7.91014 17.7793 8.17096 17.7801H9.73096C9.99179 17.7793 10.244 17.6866 10.4433 17.5184C10.6426 17.3501 10.7763 17.1171 10.821 16.8601L11.041 15.5901C11.4592 15.458 11.8643 15.2873 12.251 15.0801L13.251 15.8201C13.4641 15.9699 13.7232 16.04 13.9828 16.0181C14.2424 15.9961 14.486 15.8836 14.671 15.7001L15.771 14.5901C15.9797 14.3839 16.0984 14.1035 16.101 13.8101C16.1017 13.5797 16.028 13.3553 15.891 13.1701L15.151 12.1701C15.3501 11.7939 15.5109 11.3985 15.631 10.9901L16.881 10.7801C17.1388 10.7373 17.373 10.6042 17.5416 10.4044C17.7102 10.2047 17.8021 9.95146 17.801 9.6901V8.1201C17.8018 7.85991 17.7095 7.60801 17.5407 7.40994C17.372 7.21186 17.138 7.08068 16.881 7.0401L15.651 6.8601C15.5241 6.44143 15.3567 6.03617 15.151 5.6501L15.891 4.6501C16.0208 4.46192 16.0906 4.23876 16.091 4.0101C16.0927 3.86527 16.0652 3.72159 16.0102 3.58759C15.9552 3.45359 15.8739 3.33202 15.771 3.2301L14.661 2.0501C14.476 1.86663 14.2324 1.75408 13.9728 1.73214C13.7132 1.7102 13.4541 1.78028 13.241 1.9301L12.241 2.6701C11.8526 2.46182 11.4438 2.29426 11.021 2.1701L10.811 0.920103C10.7704 0.66309 10.6392 0.429072 10.4411 0.260343C10.2431 0.0916138 9.99116 -0.000694159 9.73096 0.000102589H8.13096C7.87052 -0.0034694 7.61741 0.0863407 7.41746 0.253269C7.21751 0.420197 7.08395 0.653207 7.04096 0.910103ZM9.70096 0.990103C9.72408 0.992319 9.74571 1.00251 9.76213 1.01894C9.77855 1.03536 9.78875 1.05698 9.79096 1.0801L10.051 2.6401C10.0685 2.73494 10.1126 2.82286 10.1781 2.89366C10.2436 2.96446 10.3278 3.01524 10.421 3.0401C10.9694 3.18105 11.4947 3.39995 11.981 3.6901C12.0635 3.74152 12.1587 3.76877 12.256 3.76877C12.3532 3.76877 12.4485 3.74152 12.531 3.6901L13.831 2.7701C13.8385 2.76159 13.8477 2.75477 13.858 2.7501C13.8684 2.74543 13.8796 2.74302 13.891 2.74302C13.9023 2.74302 13.9135 2.74543 13.9239 2.7501C13.9342 2.75477 13.9435 2.76159 13.951 2.7701L15.061 3.8601C15.0671 3.87074 15.0703 3.88281 15.0703 3.8951C15.0703 3.90739 15.0671 3.91946 15.061 3.9301C15.0663 3.94634 15.0663 3.96386 15.061 3.9801L14.141 5.2801C14.0893 5.36067 14.0618 5.45438 14.0618 5.5501C14.0618 5.64582 14.0893 5.73954 14.141 5.8201C14.4293 6.30725 14.6481 6.83234 14.791 7.3801C14.8135 7.47444 14.8636 7.55996 14.9348 7.62583C15.006 7.6917 15.0952 7.73495 15.191 7.7501L16.751 8.0201C16.7748 8.0201 16.7977 8.02958 16.8146 8.04646C16.8315 8.06334 16.841 8.08623 16.841 8.1101V9.6801C16.8391 9.70438 16.8293 9.72737 16.813 9.74547C16.7967 9.76356 16.7749 9.77574 16.751 9.7801L15.191 10.0401C15.0952 10.0553 15.006 10.0985 14.9348 10.1644C14.8636 10.2302 14.8135 10.3158 14.791 10.4101C14.6505 10.9429 14.4385 11.4542 14.161 11.9301C14.121 12.0109 14.1005 12.1 14.101 12.1901C14.1014 12.2936 14.1328 12.3945 14.191 12.4801L15.121 13.7801C15.1248 13.7965 15.1248 13.8137 15.121 13.8301C15.1294 13.8561 15.1294 13.8841 15.121 13.9101L14.011 15.0201C13.9916 15.0326 13.969 15.0392 13.946 15.0392C13.9229 15.0392 13.9003 15.0326 13.881 15.0201L12.531 14.1201C12.4485 14.0687 12.3532 14.0414 12.256 14.0414C12.1587 14.0414 12.0635 14.0687 11.981 14.1201C11.4982 14.4101 10.9762 14.629 10.431 14.7701C10.337 14.7968 10.2525 14.8494 10.187 14.9219C10.1216 14.9944 10.0779 15.0839 10.061 15.1801L9.79096 16.7501C9.78629 16.773 9.77372 16.7936 9.75545 16.8082C9.73718 16.8228 9.71436 16.8306 9.69096 16.8301H8.17096C8.14757 16.8306 8.12475 16.8228 8.10648 16.8082C8.08821 16.7936 8.07564 16.773 8.07096 16.7501L7.81096 15.2001C7.79638 15.103 7.75351 15.0123 7.68771 14.9394C7.62191 14.8665 7.53609 14.8145 7.44096 14.7901C6.89165 14.6518 6.36354 14.4398 5.87096 14.1601C5.79134 14.1059 5.69727 14.077 5.60096 14.077C5.50466 14.077 5.41059 14.1059 5.33096 14.1601L4.03096 15.0901C4.01158 15.1026 3.98902 15.1092 3.96596 15.1092C3.94291 15.1092 3.92034 15.1026 3.90096 15.0901L2.79096 13.9801C2.78566 13.9692 2.7829 13.9572 2.7829 13.9451C2.7829 13.933 2.78566 13.921 2.79096 13.9101C2.7854 13.8905 2.7854 13.8697 2.79096 13.8501L3.71096 12.5701C3.76238 12.4876 3.78963 12.3923 3.78963 12.2951C3.78963 12.1979 3.76238 12.1026 3.71096 12.0201C3.4183 11.5339 3.19609 11.0087 3.05096 10.4601C3.0261 10.3669 2.97532 10.2827 2.90452 10.2172C2.83372 10.1517 2.7458 10.1076 2.65096 10.0901L1.09096 9.8601C1.06709 9.8601 1.0442 9.85062 1.02732 9.83374C1.01045 9.81686 1.00096 9.79397 1.00096 9.7701V8.1501C1.00278 8.12582 1.01261 8.10284 1.02889 8.08474C1.04518 8.06664 1.06701 8.05446 1.09096 8.0501L2.64096 7.7901C2.73728 7.77625 2.82712 7.73344 2.89855 7.66736C2.96999 7.60128 3.01966 7.51505 3.04096 7.4201C3.1852 6.85858 3.40736 6.32001 3.70096 5.8201C3.75265 5.73954 3.78013 5.64582 3.78013 5.5501C3.78013 5.45438 3.75265 5.36067 3.70096 5.2801L2.77096 3.9901C2.76663 3.97034 2.76663 3.94987 2.77096 3.9301C2.76611 3.90702 2.76611 3.88318 2.77096 3.8601L3.88096 2.7501C3.90034 2.73762 3.92291 2.73097 3.94596 2.73097C3.96902 2.73097 3.99158 2.73762 4.01096 2.7501L5.30096 3.6701C5.3826 3.72387 5.47821 3.75252 5.57596 3.75252C5.67372 3.75252 5.76932 3.72387 5.85096 3.6701C6.33516 3.37591 6.86112 3.15675 7.41096 3.0201C7.50415 2.99524 7.58837 2.94446 7.65386 2.87366C7.71935 2.80286 7.76342 2.71494 7.78096 2.6201L8.04096 1.0501C8.04564 1.02717 8.05821 1.00661 8.07648 0.991996C8.09475 0.977378 8.11757 0.969631 8.14096 0.970102L9.70096 0.990103Z" fill="#606580"/>
<path opacity="0.4" fill-rule="evenodd" clip-rule="evenodd" d="M5.07094 8.91007C5.07094 9.67195 5.29699 10.4167 5.72048 11.0501C6.14397 11.6834 6.74584 12.1769 7.44992 12.468C8.154 12.7591 8.92862 12.8347 9.67572 12.6853C10.4228 12.536 11.1088 12.1683 11.6468 11.6289C12.1849 11.0894 12.5508 10.4025 12.6982 9.65502C12.8456 8.90754 12.7679 8.13312 12.475 7.4298C12.1821 6.72648 11.687 6.12589 11.0526 5.70405C10.4182 5.28221 9.67281 5.05809 8.91093 5.06007C8.40582 5.06007 7.90566 5.15973 7.43912 5.35333C6.97257 5.54693 6.54881 5.83068 6.1921 6.18832C5.8354 6.54595 5.55275 6.97045 5.36036 7.4375C5.16797 7.90454 5.06962 8.40495 5.07094 8.91007ZM11.7509 8.91007C11.7509 9.47177 11.5844 10.0209 11.2723 10.4879C10.9602 10.9549 10.5167 11.3189 9.99776 11.5339C9.47881 11.7488 8.90778 11.8051 8.35688 11.6955C7.80597 11.5859 7.29993 11.3154 6.90275 10.9183C6.50557 10.5211 6.23509 10.015 6.12551 9.46413C6.01592 8.91322 6.07216 8.34219 6.28712 7.82325C6.50207 7.30431 6.86608 6.86076 7.33312 6.5487C7.80015 6.23663 8.34924 6.07007 8.91093 6.07007C9.66415 6.07007 10.3865 6.36929 10.9191 6.90189C11.4517 7.43449 11.7509 8.15686 11.7509 8.91007Z" fill="#606580"/>
</svg>
