<svg width="16" height="16" viewBox="0 0 16 16" fill="none" xmlns="http://www.w3.org/2000/svg">
<path d="M12.3501 12.6L7.8501 15L3.6001 12.6C2.6501 12.05 2.1001 11.1 2.1001 10V1.05L8.0001 1L13.9501 1.05V9.95C13.9501 11.05 13.3501 12.05 12.3501 12.6Z" stroke="currentColor" stroke-miterlimit="10" stroke-linecap="round" stroke-linejoin="round"/>
<path d="M8.0002 5.3498L8.4502 5.4998C8.5502 5.5498 8.6002 5.5498 8.7002 5.5998L9.1002 5.7998L9.3002 6.1998C9.3502 6.2998 9.4002 6.3498 9.4002 6.4498L9.5502 6.8498L9.4002 7.2998C9.4002 7.3998 9.3502 7.44981 9.3002 7.5498L9.1002 7.9498L8.7002 8.1498C8.6002 8.1998 8.5502 8.2498 8.4502 8.2498L8.0002 8.3498L7.5502 8.1998C7.4502 8.1498 7.4002 8.14981 7.3002 8.0998L6.9002 7.89981L6.7002 7.4998C6.6502 7.3998 6.6002 7.3498 6.6002 7.2498L6.5002 6.8498L6.6502 6.4498C6.7002 6.3498 6.7002 6.2998 6.7502 6.1998L6.9502 5.7998L7.3502 5.5998C7.4502 5.5498 7.5002 5.4998 7.6002 5.4998L8.0002 5.3498ZM8.2502 3.7998H7.7002C7.5002 3.7998 7.3502 3.9498 7.3002 4.0998L7.2002 4.5498C7.0502 4.5998 6.9002 4.6498 6.8002 4.7498L6.5002 4.4498C6.4502 4.3998 6.3502 4.3998 6.3002 4.3998C6.2002 4.3998 6.1002 4.4498 6.0502 4.4998L5.6502 4.8998C5.5002 5.0498 5.5002 5.2498 5.6002 5.3998L5.8502 5.7498C5.8002 5.8998 5.7002 5.9998 5.7002 6.1498L5.2502 6.1998C5.0502 6.2498 4.9502 6.3998 4.9502 6.5498V7.0998C4.9502 7.2998 5.1002 7.4498 5.2502 7.4498L5.7002 7.4998C5.7502 7.6498 5.8002 7.79981 5.9002 7.89981L5.6502 8.2498C5.5502 8.3998 5.5502 8.5998 5.7002 8.7498L6.1002 9.1498C6.1502 9.1998 6.2502 9.2498 6.3502 9.2498C6.4502 9.2498 6.5002 9.2498 6.5502 9.1998L6.9002 8.9498C7.0502 8.9998 7.1502 9.0498 7.3002 9.0998L7.3502 9.5498C7.4002 9.7498 7.5502 9.8498 7.7502 9.8498H8.3002C8.5002 9.8498 8.6502 9.6998 8.7002 9.5498L8.7502 9.0998C8.9002 9.0498 9.0502 8.9998 9.1502 8.9498L9.5002 9.1998C9.5502 9.2498 9.6502 9.2498 9.7002 9.2498C9.8002 9.2498 9.9002 9.1998 9.9502 9.1498L10.3502 8.7498C10.5002 8.5998 10.5002 8.3998 10.4002 8.2498L10.1502 7.9998C10.2002 7.8498 10.3002 7.7498 10.3002 7.5998L10.7502 7.5498C10.9502 7.4998 11.0502 7.3498 11.0502 7.1998V6.6498C11.0502 6.4498 10.9002 6.2998 10.7502 6.2998L10.3002 6.2498C10.2502 6.0998 10.2002 5.9498 10.1002 5.8498L10.3502 5.4998C10.4502 5.3498 10.4502 5.1498 10.3002 4.9998L10.0002 4.4998C9.9502 4.4498 9.8502 4.3998 9.7502 4.3998C9.6502 4.3998 9.6002 4.3998 9.5502 4.4498L9.2002 4.6998C9.0502 4.6498 8.9002 4.5498 8.7502 4.4998L8.7002 4.0498C8.6002 3.9498 8.4502 3.7998 8.2502 3.7998Z" fill="currentColor"/>
</svg>
