<?xml version="1.0" encoding="utf-8"?>
<!-- Generator: Adobe Illustrator 19.0.0, SVG Export Plug-In . SVG Version: 6.00 Build 0)  -->
<svg version="1.1" id="Слой_1" xmlns="http://www.w3.org/2000/svg" xmlns:xlink="http://www.w3.org/1999/xlink" x="0px" y="0px"
	 viewBox="0 0 595.3 841.9" style="enable-background:new 0 0 595.3 841.9;" xml:space="preserve">
<style type="text/css">
	.st0{fill:#636680;}
</style>
<g>
	<path class="st0" d="M298.3,368c2.5,0,4.2-2.6,4.2-5.1V343c0-3.1-2.1-5.1-4.2-5.1c-2.5,0-4.2,2.6-4.2,5.1v19.9
		C294.1,365.5,296.2,368,298.3,368z"/>
	<path class="st0" d="M321,374.2c2.1,1.5,4.6,0.5,5.9-2l8.4-16.9c1.3-2.6,0.4-5.6-1.7-7.2c-2.1-1.5-4.6-0.5-5.9,2l-8.4,16.9
		C318.1,369.6,318.9,372.6,321,374.2z"/>
	<path class="st0" d="M358.8,377.2c-1.3-2.6-4.2-3.1-6.3-1l-13,11.8c-2.1,1.5-2.5,5.1-0.8,7.7c1.3,2.6,4.2,3.1,6.3,1l13-11.8
		C360,382.9,360.5,379.3,358.8,377.2z"/>
	<path class="st0" d="M270.2,372.1c1.3,2.6,3.8,3.1,5.9,2c2.1-1.5,2.5-4.6,1.7-7.2l-8.4-16.9c-1.3-2.6-3.8-3.1-5.9-2
		c-2.1,1.5-2.5,4.6-1.7,7.2L270.2,372.1z"/>
	<path class="st0" d="M258,395.6c1.3-2.6,1.3-5.6-0.8-7.7l-13-11.8c-2.1-1.5-4.6-1.5-6.3,1c-1.3,2.6-1.3,5.6,0.8,7.7l13,11.8
		C253.8,398.2,256.8,397.7,258,395.6z"/>
	<path class="st0" d="M346.6,475.4c-3.4-2-3.8-2-8.4-2.6c-0.4-1.5,0-33.2,0-35.8c0-12.3,0.4-21-3.8-31.2
		c-14.7-37.3-57.1-36.8-71.4,0c-4.2,10.2-3.8,18.4-3.8,31.2c0,2,0,34.3,0,35.3c-4.2,0.5-5,0-8.4,2.6c-2.1,1.5-3.8,3.6-5,6.1
		c-1.7,3.6-1.7,5.6-1.7,10.2c0,4.1,0,8.2,0,12.3h109.1c0-4.1,0-8.2,0-12.3c0-4.6,0-6.6-1.7-10.2C350.4,479,348.3,476.4,346.6,475.4z
		 M266.8,426.8c0-20.4,13.4-38.9,31.9-38.9c15.1,0,25.6,11.8,29.8,25.6c2.5,8.7,2.1,18.4,2.1,28.6c0,2.6,0,29.1,0,31.2h-63.4
		C266.8,471.3,266.8,429.9,266.8,426.8z M345.3,494.8h-93.6c-0.8-4.1-0.4-10.7,4.2-11.8c2.5-0.5,10.9-0.5,14.3-0.5h57.1
		c2.9,0,11.8-0.5,13.9,0.5c2.1,0.5,3.4,2,3.8,4.1C345.3,488.2,345.8,492.8,345.3,494.8z"/>
	<path class="st0" d="M299.6,404.3c10.1,0,18.1,9.7,18.1,22c0,3.1,2.1,5.1,4.2,5.1c2.5,0,4.2-2.6,4.2-5.1
		c0-17.9-12.2-32.7-26.9-32.7h-0.4c-2.5,0-4.2,2.6-4.2,5.6C295,402.3,297.1,404.3,299.6,404.3z"/>
</g>
</svg>
