<svg width="16" height="16" viewBox="0 0 16 16" fill="none" xmlns="http://www.w3.org/2000/svg">
<path d="M3.05029 1V8.6" stroke="#606580" stroke-width="1.2" stroke-miterlimit="10" stroke-linecap="round" stroke-linejoin="round"/>
<path d="M3.05029 12.1V15" stroke="#606580" stroke-width="1.2" stroke-miterlimit="10" stroke-linecap="round" stroke-linejoin="round"/>
<path d="M3.05015 11.8C3.82334 11.8 4.45015 11.1732 4.45015 10.4C4.45015 9.6268 3.82334 9 3.05015 9C2.27695 9 1.65015 9.6268 1.65015 10.4C1.65015 11.1732 2.27695 11.8 3.05015 11.8Z" stroke="#606580" stroke-width="1.2" stroke-miterlimit="10" stroke-linecap="round" stroke-linejoin="round"/>
<path d="M8 1V3.9" stroke="#606580" stroke-width="1.2" stroke-miterlimit="10" stroke-linecap="round" stroke-linejoin="round"/>
<path d="M8 7.39999V15" stroke="#606580" stroke-width="1.2" stroke-miterlimit="10" stroke-linecap="round" stroke-linejoin="round"/>
<path d="M7.99985 7.15001C8.77305 7.15001 9.39985 6.5232 9.39985 5.75001C9.39985 4.97681 8.77305 4.35001 7.99985 4.35001C7.22666 4.35001 6.59985 4.97681 6.59985 5.75001C6.59985 6.5232 7.22666 7.15001 7.99985 7.15001Z" stroke="#606580" stroke-width="1.2" stroke-miterlimit="10" stroke-linecap="round" stroke-linejoin="round"/>
<path d="M12.9503 1V6.25" stroke="#606580" stroke-width="1.2" stroke-miterlimit="10" stroke-linecap="round" stroke-linejoin="round"/>
<path d="M12.9503 9.75V15" stroke="#606580" stroke-width="1.2" stroke-miterlimit="10" stroke-linecap="round" stroke-linejoin="round"/>
<path d="M12.9502 9.50001C13.7234 9.50001 14.3502 8.87321 14.3502 8.10001C14.3502 7.32681 13.7234 6.70001 12.9502 6.70001C12.177 6.70001 11.5502 7.32681 11.5502 8.10001C11.5502 8.87321 12.177 9.50001 12.9502 9.50001Z" stroke="#606580" stroke-width="1.2" stroke-miterlimit="10" stroke-linecap="round" stroke-linejoin="round"/>
</svg>
