<svg width="18" height="18" viewBox="0 0 18 18" fill="none" xmlns="http://www.w3.org/2000/svg">
<path d="M3.68576 6.37151C5.16906 6.37151 6.37151 5.16906 6.37151 3.68575C6.37151 2.20245 5.16906 1 3.68576 1C2.20245 1 1 2.20245 1 3.68575C1 5.16906 2.20245 6.37151 3.68576 6.37151Z" stroke="#606580" stroke-miterlimit="10" stroke-linecap="round" stroke-linejoin="round"/>
<path d="M14.3138 6.37146C15.7971 6.37146 16.9996 5.16901 16.9996 3.68571C16.9996 2.20241 15.7971 0.999954 14.3138 0.999954C12.8305 0.999954 11.6281 2.20241 11.6281 3.68571C11.6281 5.16901 12.8305 6.37146 14.3138 6.37146Z" stroke="#606580" stroke-miterlimit="10" stroke-linecap="round" stroke-linejoin="round"/>
<path d="M3.68576 17.0003C5.16906 17.0003 6.37151 15.7978 6.37151 14.3145C6.37151 12.8312 5.16906 11.6288 3.68576 11.6288C2.20245 11.6288 1 12.8312 1 14.3145C1 15.7978 2.20245 17.0003 3.68576 17.0003Z" stroke="#606580" stroke-miterlimit="10" stroke-linecap="round" stroke-linejoin="round"/>
<path d="M14.3138 17.0003C15.7971 17.0003 16.9996 15.7978 16.9996 14.3145C16.9996 12.8312 15.7971 11.6288 14.3138 11.6288C12.8305 11.6288 11.6281 12.8312 11.6281 14.3145C11.6281 15.7978 12.8305 17.0003 14.3138 17.0003Z" stroke="#606580" stroke-miterlimit="10" stroke-linecap="round" stroke-linejoin="round"/>
<path d="M5.68561 5.68582L12.4857 12.4859" stroke="#606580" stroke-miterlimit="10" stroke-linecap="round" stroke-linejoin="round"/>
<path d="M10.8293 7.17157L12.315 5.68582" stroke="#606580" stroke-miterlimit="10" stroke-linecap="round" stroke-linejoin="round"/>
<path d="M5.51471 12.4857L7.34331 10.6571" stroke="#606580" stroke-miterlimit="10" stroke-linecap="round" stroke-linejoin="round"/>
<path d="M3.68561 6.31425V9" stroke="#606580" stroke-miterlimit="10" stroke-linecap="round" stroke-linejoin="round"/>
<path d="M6.31451 3.68578H9.00027" stroke="#606580" stroke-miterlimit="10" stroke-linecap="round" stroke-linejoin="round"/>
<path d="M14.3147 6.31425V9" stroke="#606580" stroke-miterlimit="10" stroke-linecap="round" stroke-linejoin="round"/>
<path d="M11.6859 14.3144H9.00015" stroke="#606580" stroke-miterlimit="10" stroke-linecap="round" stroke-linejoin="round"/>
</svg>
