<?xml version="1.0" encoding="utf-8"?>
<!-- Generator: Adobe Illustrator 19.0.0, SVG Export Plug-In . SVG Version: 6.00 Build 0)  -->
<svg version="1.1" id="Слой_1" xmlns="http://www.w3.org/2000/svg" xmlns:xlink="http://www.w3.org/1999/xlink" x="0px" y="0px"
	 viewBox="0 0 595.3 841.9" style="enable-background:new 0 0 595.3 841.9;" xml:space="preserve">
<style type="text/css">
	.st0{fill:#636680;}
</style>
<g>
	<path class="st0" d="M310.9,464.7c-1.5-1-2.3-2-2.3-3c0-16.2,0-32.6,0-48.8l0,0c0-15.8,0-32.1,0-47.8c0-9.4-11.2-16.2-25.5-16.2
		c-13.5,0.4-24,7.5-24,16.2c0,32.1,0,64.6,0,96.6c0,1.4-0.8,2-2.3,3c-9.7,5.9-14.3,13.8-12,22.3c2.3,11.3,15.7,20.2,33,21.7
		c16.5,2,33.7-3.9,41.2-14.3C327.3,484.4,323.6,472,310.9,464.7z M310.9,491.2c-6,8.4-18.7,12.8-32.3,10.9
		c-12.8-1.4-23.2-9.4-23.2-18.3c-0.8-6.4,3.7-12.4,11.2-16.2c2.3-1,3-2.5,3-4.5c0-16.7,0-33,0-49.8l0,0c0-16.2,0-32.6,0-49.3
		c0-5.9,6.8-10.3,15.7-9.9c8.3,0,13.5,4.5,13.5,10.3c0,12.4,0,24.1,0,36.5c0,20.7,0,41.5,0,62.2c0,2,0.8,3.5,3,4.5
		C313.2,473.6,316.9,483.4,310.9,491.2z"/>
	<path class="st0" d="M328.9,374.3c0,2,0,3.9,0,5.9c8.3,0,15.7,0,24,0c0-2,0-3.9,0-5.9C344.6,374.3,336.4,374.3,328.9,374.3z"/>
	<path class="st0" d="M366.4,393.6c-12.8,0-24.7,0-37.5,0c0,2,0,3.9,0,5.9c12.8,0,25.5,0,37.5,0
		C366.4,397.6,366.4,395.5,366.4,393.6z"/>
	<path class="st0" d="M352.8,412.8c-8.3,0-15.7,0-24,0c0,2,0,3.9,0,5.9c8.3,0,15.7,0,24,0C352.8,416.8,352.8,414.8,352.8,412.8z"/>
	<path class="st0" d="M328.9,437.9c12.8,0,24.7,0,37.5,0c0-2,0-3.9,0-5.9c-12.8,0-24.7,0-37.5,0C328.9,434,328.9,436.1,328.9,437.9z
		"/>
	<path class="st0" d="M328.9,457.2c8.3,0,15.7,0,24,0c0-2,0-3.9,0-5.9c-8.3,0-15.7,0-24,0C328.9,453.3,328.9,455.3,328.9,457.2z"/>
	<path class="st0" d="M289.2,474c0-29.1,0-58.2,0-87.3c-3,0-6,0-9.7,0c0,1,0,2,0,2.5c0,27.6,0,54.7,0,82.4c0,1.4-0.8,2.5-3,3.5
		c-6.8,2.5-9,7.9-6,12.4c3,4.5,10.5,6.4,17.2,5.4c7.5-1.4,11.2-5.9,10.5-10.9C298.1,478,294.4,475.4,289.2,474z"/>
</g>
</svg>
