<?xml version="1.0" encoding="utf-8"?>
<!-- Generator: Adobe Illustrator 19.0.0, SVG Export Plug-In . SVG Version: 6.00 Build 0)  -->
<svg version="1.1" id="Слой_1" xmlns="http://www.w3.org/2000/svg" xmlns:xlink="http://www.w3.org/1999/xlink" x="0px" y="0px"
	 viewBox="0 0 595.3 841.9" style="enable-background:new 0 0 595.3 841.9;" xml:space="preserve">
<style type="text/css">
	.st0{fill:#F5A422;}
</style>
<g>
	<path class="st0" d="M310.9,471.9c-1.5-1-2.3-2-2.3-3c0-16.2,0-32.6,0-48.8l0,0c0-15.7,0-32,0-47.8c0-9.3-11.2-16.2-25.5-16.2
		c-13.5,0.4-24,7.5-24,16.2c0,32,0,64.5,0,96.6c0,1.4-0.8,2-2.3,3c-9.7,5.9-14.3,13.8-12,22.2c2.3,11.3,15.7,20.2,33,21.7
		c16.5,2,33.8-3.9,41.2-14.3C327.3,491.5,323.6,479.2,310.9,471.9z M310.9,498.4c-6,8.4-18.7,12.8-32.3,10.9
		c-12.8-1.4-23.2-9.3-23.2-18.2c-0.8-6.4,3.7-12.4,11.2-16.2c2.3-1,3-2.5,3-4.4c0-16.7,0-33,0-49.7l0,0c0-16.2,0-32.6,0-49.3
		c0-5.9,6.8-10.3,15.7-9.9c8.3,0,13.5,4.4,13.5,10.3c0,12.4,0,24.1,0,36.5c0,20.6,0,41.5,0,62.1c0,2,0.8,3.5,3,4.4
		C313.1,480.8,316.9,490.5,310.9,498.4z"/>
	<path class="st0" d="M328.9,381.6c0,2,0,3.9,0,5.9c8.3,0,15.7,0,24,0c0-2,0-3.9,0-5.9C344.6,381.6,336.4,381.6,328.9,381.6z"/>
	<path class="st0" d="M366.4,400.9c-12.8,0-24.7,0-37.5,0c0,2,0,3.9,0,5.9c12.8,0,25.5,0,37.5,0
		C366.4,404.8,366.4,402.7,366.4,400.9z"/>
	<path class="st0" d="M352.8,420.1c-8.3,0-15.7,0-24,0c0,2,0,3.9,0,5.9c8.3,0,15.7,0,24,0C352.8,424,352.8,421.9,352.8,420.1z"/>
	<path class="st0" d="M328.9,445.2c12.8,0,24.7,0,37.5,0c0-2,0-3.9,0-5.9c-12.8,0-24.7,0-37.5,0
		C328.9,441.3,328.9,443.2,328.9,445.2z"/>
	<path class="st0" d="M328.9,464.4c8.3,0,15.7,0,24,0c0-2,0-3.9,0-5.9c-8.3,0-15.7,0-24,0C328.9,460.5,328.9,462.4,328.9,464.4z"/>
	<path class="st0" d="M289.1,481.2c0-29.1,0-58.2,0-87.2c-3,0-6,0-9.7,0c0,1,0,2,0,2.5c0,27.6,0,54.6,0,82.3c0,1.4-0.8,2.5-3,3.5
		c-6.8,2.5-9,7.9-6,12.4c3,4.4,10.5,6.4,17.2,5.4c7.5-1.4,11.2-5.9,10.5-10.9C298.1,485.1,294.3,482.6,289.1,481.2z"/>
</g>
</svg>
