<svg width="15" height="15" viewBox="0 0 15 15" fill="none" xmlns="http://www.w3.org/2000/svg">
<path d="M3.40794 6.42053C4.19295 6.42053 4.97893 6.12158 5.57695 5.52356C5.67293 5.42761 5.75795 5.32556 5.83894 5.22058L6.45595 5.83752C6.54695 5.92859 6.66594 5.97461 6.78593 5.97461C6.90495 5.97461 7.02394 5.92859 7.11595 5.83752C7.29793 5.65552 7.29793 5.35962 7.11595 5.17761L6.40895 4.47156C6.37395 4.43555 6.33195 4.41357 6.28993 4.39258C6.67793 3.30957 6.44194 2.05261 5.57695 1.18762C5.01994 0.630615 4.27995 0.311523 3.49293 0.289551C3.25093 0.301514 3.01994 0.485596 3.01295 0.74353C3.00593 1.00159 3.20894 1.21558 3.46693 1.22351C4.01393 1.23853 4.52894 1.45959 4.91694 1.84656C5.74794 2.67859 5.74794 4.03259 4.91694 4.86353C4.08494 5.69556 2.73195 5.69653 1.89894 4.86353C1.49995 4.46362 1.27794 3.93152 1.27495 3.36658C1.27394 3.10962 1.06492 2.90161 0.807936 2.90161H0.805953C0.548934 2.90356 0.339949 3.11255 0.341933 3.37061C0.345931 4.18359 0.663954 4.94861 1.23894 5.52356C1.83693 6.12158 2.62294 6.42053 3.40794 6.42053Z" fill="#0089FF"/>
<path d="M10.1764 8.23807C9.99341 8.05606 9.69839 8.05606 9.51642 8.23807C9.33441 8.42007 9.33441 8.71609 9.51642 8.8981L13.1894 12.5711L12.6234 13.1371L9.65741 10.1701C9.4744 9.98807 9.17941 9.98807 8.99741 10.1701C8.8154 10.3521 8.8154 10.6481 8.99741 10.8301L12.2934 14.1271C12.3844 14.218 12.5044 14.2631 12.6234 14.2631C12.7424 14.2631 12.8624 14.218 12.9534 14.1271L14.1794 12.9012C14.2664 12.8141 14.3164 12.6951 14.3164 12.5711C14.3164 12.4471 14.2664 12.3291 14.1794 12.2411L10.1764 8.23807Z" fill="#0089FF"/>
<path fill-rule="evenodd" clip-rule="evenodd" d="M8.05341 8.51861L11.5834 4.9876L13.2824 4.24566C13.3904 4.19866 13.4764 4.11163 13.5234 4.00457L14.3024 2.22466C14.3794 2.04864 14.3404 1.84356 14.2044 1.70757L13.7034 1.2066C13.5664 1.07061 13.3614 1.03265 13.1864 1.10967L11.4064 1.88763C11.2984 1.93462 11.2124 2.02056 11.1654 2.12762L10.4224 3.82757L6.8924 7.3576L6.72141 7.18658C6.6344 7.09856 6.51541 7.04961 6.39142 7.04961C6.2674 7.04961 6.14941 7.09856 6.0614 7.18658L1.28641 11.9616C1.1044 12.1436 1.1044 12.4396 1.28641 12.6216L2.7894 14.1246C2.8764 14.2116 2.99542 14.2616 3.11942 14.2616C3.24341 14.2616 3.36142 14.2116 3.4494 14.1246L8.2244 9.34966C8.4064 9.16656 8.4064 8.87163 8.2244 8.68963L8.05341 8.51861ZM11.9474 2.66961L13.2684 2.09161L13.3194 2.14263L12.7414 3.46258L11.3314 4.07964L11.9474 2.66961ZM3.11942 13.1346L2.2764 12.2916L6.39142 8.17657L7.23441 9.01958L3.11942 13.1346Z" fill="#0089FF"/>
</svg>
