<svg width="32" height="32" viewBox="0 0 32 32" fill="none" xmlns="http://www.w3.org/2000/svg">
<path d="M18.7997 19.3999C19.3997 17.7999 19.1997 16.1999 18.1997 14.3999C17.8997 13.8999 17.5997 13.4999 17.1997 12.9999C17.0997 14.4999 16.6997 15.8999 15.8997 17.3999L15.1997 18.6999L14.8997 17.2999C14.7997 16.6999 14.5997 16.1999 14.2997 15.7999C13.9997 16.4999 13.6997 17.1999 13.3997 17.8999C13.0997 18.5999 13.0997 19.2999 13.2997 19.8999L14.1997 22.2999L13.3997 21.9999C13.1997 21.8999 12.9997 21.7999 12.7997 21.6999C10.3997 20.2999 9.49967 17.9999 10.2997 15.0999C10.5997 13.8999 11.1997 12.8999 11.7997 11.9999L11.8997 11.8999C12.7997 10.2999 13.6997 8.7999 14.1997 7.1999C14.2997 6.9999 14.2997 6.6999 14.3997 6.4999L14.6997 5.3999L15.2997 5.7999C15.3997 5.8999 15.4997 5.8999 15.4997 5.9999L15.9997 6.4999C17.3997 7.8999 18.8997 9.2999 19.9997 10.9999C21.1997 12.6999 21.7997 14.2999 21.9997 15.9999C22.2997 18.5999 21.4997 20.4999 19.5997 21.7999C19.2997 21.9999 18.8997 22.1999 18.4997 22.2999C18.3997 22.3999 18.1997 22.3999 18.0997 22.4999" stroke="#606580" stroke-width="2.2019" stroke-miterlimit="10" stroke-linecap="round" stroke-linejoin="round"/>
<path d="M26.3 30.5H5.7C3.9 30.5 2.5 29.1 2.5 27.3V4.7C2.5 2.9 3.9 1.5 5.7 1.5H26.2C28 1.5 29.4 2.9 29.4 4.7V27.2C29.5 29.1 28.1 30.5 26.3 30.5Z" stroke="#606580" stroke-width="2" stroke-miterlimit="10" stroke-linecap="round" stroke-linejoin="round"/>
<path d="M7.5 25.5H24.5" stroke="#606580" stroke-width="2.2019" stroke-miterlimit="10" stroke-linecap="round" stroke-linejoin="round"/>
</svg>
