<svg width="31" height="33" viewBox="0 0 31 33" fill="none" xmlns="http://www.w3.org/2000/svg">
<path d="M20.4824 2.94531L16.6824 15.0453H21.8824L8.78243 30.6453L14.0824 18.7453H9.48243L20.4824 2.94531ZM20.4824 0.945312C20.3824 0.945312 20.3824 0.945312 20.2824 0.945312C19.9824 0.945312 19.6824 1.04531 19.3824 1.24531C19.1824 1.34531 19.0824 1.54531 18.8824 1.64531L18.7824 1.74531L7.88243 17.6453C7.48243 18.2453 7.38243 19.0453 7.78243 19.7453C8.18243 20.4453 8.78243 20.8453 9.58243 20.8453H10.9824L6.98243 29.9453C6.58243 30.8453 6.88243 31.9453 7.78243 32.4453C8.08243 32.6453 8.48243 32.7453 8.88243 32.7453C9.48243 32.7453 9.98243 32.5453 10.3824 32.0453L23.4824 16.4453C23.9824 15.8453 24.0824 15.0453 23.7824 14.3453C23.4824 13.6453 22.7824 13.1453 21.9824 13.1453H19.4824L22.3824 3.74531C22.4824 3.54531 22.4824 3.34531 22.4824 3.04531C22.4824 1.84531 21.5824 0.945312 20.4824 0.945312Z" fill="#606580"/>
<path d="M12.2822 3.74512C8.18223 4.84512 4.58223 7.74512 2.88223 12.0451C1.18223 16.4451 1.88223 21.2451 4.28223 24.9451" stroke="#606580" stroke-width="2" stroke-miterlimit="10" stroke-linecap="round" stroke-linejoin="round"/>
<path d="M16.582 30.9449C21.782 30.6449 26.682 27.4449 28.682 22.2449C30.682 17.0449 29.382 11.3449 25.782 7.54492" stroke="#606580" stroke-width="2" stroke-miterlimit="10" stroke-linecap="round" stroke-linejoin="round"/>
</svg>
