<svg width="30" height="30" viewBox="0 0 30 30" fill="none" xmlns="http://www.w3.org/2000/svg">
<path fill-rule="evenodd" clip-rule="evenodd" d="M29.7812 14.89C29.7812 10.779 28.1143 7.056 25.4189 4.362C22.7251 1.66701 19.002 0 14.8901 0C10.7788 0 7.05615 1.66701 4.36182 4.362C1.66699 7.056 0 10.779 0 14.89C0 19.002 1.66699 22.725 4.36182 25.419C7.05713 28.113 10.7788 29.78 14.8901 29.78C19.002 29.78 22.7251 28.114 25.4189 25.419C28.1143 22.725 29.7812 19.002 29.7812 14.89ZM15.8511 14.493L20.6343 19.277C21.0103 19.651 21.0103 20.26 20.6343 20.635C20.2603 21.01 19.6509 21.01 19.2759 20.635L14.2222 15.58C14.042 15.406 13.9302 15.162 13.9302 14.89V6.026C13.9302 5.49501 14.3599 5.065 14.8901 5.065C15.4209 5.065 15.8511 5.49501 15.8511 6.026V14.493ZM27.8589 14.89C27.8589 18.472 26.4072 21.714 24.061 24.061C21.7139 26.407 18.4722 27.859 14.8901 27.859C11.3091 27.859 8.06689 26.407 5.72021 24.061C3.37305 21.714 1.92188 18.472 1.92188 14.89C1.92188 11.309 3.37305 8.067 5.72021 5.72C8.06689 3.373 11.3091 1.922 14.8901 1.922C18.4722 1.922 21.7139 3.373 24.061 5.72C26.4072 8.067 27.8589 11.309 27.8589 14.89Z" fill="#0089FF"/>
</svg>
