<svg width="14" height="14" viewBox="0 0 14 14" fill="none" xmlns="http://www.w3.org/2000/svg">
<path fill-rule="evenodd" clip-rule="evenodd" d="M14 6.99939C14 5.06714 13.217 3.31616 11.9495 2.05051C10.6828 0.783314 8.93309 0 6.99888 0C5.06691 0 3.31569 0.783314 2.05046 2.05051C0.782986 3.31766 0 5.06714 0 6.99939C0 8.93318 0.782986 10.6827 2.05046 11.9499C3.31719 13.217 5.06691 14.0004 6.99888 14.0004C8.93309 14.0004 10.6828 13.217 11.9495 11.9499C13.217 10.6827 14 8.93318 14 6.99939ZM7.45112 6.81353L9.70108 9.06223C9.87582 9.23885 9.87582 9.52455 9.70108 9.70117C9.52408 9.87784 9.23834 9.87784 9.06209 9.70117L6.68613 7.32503C6.60138 7.24211 6.54738 7.12689 6.54738 6.99939V2.83232C6.54738 2.58347 6.75063 2.38074 6.99888 2.38074C7.24937 2.38074 7.45112 2.58347 7.45112 2.83232V6.81353ZM13.097 6.99939C13.097 8.68438 12.4153 10.2081 11.3105 11.3109C10.2081 12.4152 8.6841 13.0972 6.99888 13.0972C5.31591 13.0972 3.79193 12.4152 2.68795 11.3109C1.58472 10.2081 0.902984 8.68438 0.902984 6.99939C0.902984 5.316 1.58472 3.79231 2.68795 2.68945C3.79193 1.5851 5.31591 0.903125 6.99888 0.903125C8.6841 0.903125 10.2081 1.5851 11.3105 2.68945C12.4153 3.79231 13.097 5.316 13.097 6.99939Z" fill="#0089FF"/>
</svg>
