<svg xmlns="http://www.w3.org/2000/svg" viewBox="0 0 9.12 9.12"><defs><style>.cls-1{fill:#fff;fill-rule:evenodd;}</style></defs><title>Ресурс 3</title><g id="Слой_2" data-name="Слой 2"><g id="Layer_1" data-name="Layer 1"><path class="cls-1" d="M9.12,4.56A4.58,4.58,0,0,0,4.56,0a4.56,4.56,0,1,0,0,9.12A4.58,4.58,0,0,0,9.12,4.56ZM7.36,7.36A4,4,0,0,0,4.56.59a4,4,0,0,0,0,7.94A3.94,3.94,0,0,0,7.36,7.36ZM4.56,6.28h0A.3.3,0,0,1,4.26,6V2a.3.3,0,0,1,.3-.29h0A.29.29,0,0,1,4.85,2V6A.29.29,0,0,1,4.56,6.28Zm0,.27h0a.29.29,0,0,0-.3.3h0a.29.29,0,0,0,.3.29h0a.29.29,0,0,0,.29-.29h0A.29.29,0,0,0,4.56,6.55Z"/></g></g></svg>