<svg width="23" height="30" viewBox="0 0 23 30" fill="none" xmlns="http://www.w3.org/2000/svg">
    <path fill-rule="evenodd" clip-rule="evenodd" d="M13.7697 1H2.83551C2.34779 1.00264 1.88098 1.20083 1.53703 1.55124C1.19308 1.90165 0.999993 2.37577 1 2.87V27.13C0.999993 27.6242 1.19308 28.0984 1.53703 28.4488C1.88098 28.7992 2.34779 28.9974 2.83551 29H20.1546C20.644 29 21.1134 28.803 21.4595 28.4523C21.8056 28.1016 22 27.626 22 27.13V9.35001L13.7697 1Z" stroke="#4B5169" stroke-linecap="round" stroke-linejoin="round"/>
    <path d="M13.5 1V9.5H22" stroke="#4B5169" stroke-linecap="round" stroke-linejoin="round"/>
    <path d="M9.12012 22.1289C9.12012 23.0371 8.90202 23.7614 8.46582 24.3018C8.03288 24.8389 7.48438 25.1074 6.82031 25.1074C6.55013 25.1074 6.31087 25.0765 6.10254 25.0146C5.89421 24.9528 5.68099 24.8568 5.46289 24.7266V27.0117H4.54492V19.5459H5.46289V20.1172C5.69076 19.9121 5.94303 19.7412 6.21973 19.6045C6.49967 19.4645 6.80404 19.3945 7.13281 19.3945C7.75781 19.3945 8.24447 19.6419 8.59277 20.1367C8.94434 20.6315 9.12012 21.2956 9.12012 22.1289ZM8.17285 22.2314C8.17285 21.6097 8.07357 21.1279 7.875 20.7861C7.67643 20.4411 7.35417 20.2686 6.9082 20.2686C6.64779 20.2686 6.39551 20.3271 6.15137 20.4443C5.91048 20.5583 5.68099 20.7064 5.46289 20.8887V23.9795C5.70378 24.0967 5.90885 24.1764 6.07812 24.2188C6.25065 24.2611 6.44759 24.2822 6.66895 24.2822C7.14421 24.2822 7.51367 24.1081 7.77734 23.7598C8.04102 23.4115 8.17285 22.902 8.17285 22.2314ZM14.2715 25H13.3535V24.4434C13.2103 24.5638 13.0866 24.6631 12.9824 24.7412C12.8783 24.8193 12.7562 24.891 12.6162 24.9561C12.486 25.0179 12.3509 25.0651 12.2109 25.0977C12.071 25.1335 11.9082 25.1514 11.7227 25.1514C11.4264 25.1514 11.1514 25.0895 10.8975 24.9658C10.6468 24.8421 10.4336 24.6615 10.2578 24.4238C10.0788 24.1829 9.94043 23.8867 9.84277 23.5352C9.74512 23.1803 9.69629 22.7734 9.69629 22.3145C9.69629 21.8359 9.75814 21.4225 9.88184 21.0742C10.0055 20.7227 10.1764 20.4167 10.3945 20.1562C10.5931 19.9186 10.8324 19.7331 11.1123 19.5996C11.3955 19.4629 11.6917 19.3945 12.001 19.3945C12.2744 19.3945 12.512 19.4255 12.7139 19.4873C12.9157 19.5459 13.1289 19.6387 13.3535 19.7656V17.4023H14.2715V25ZM13.3535 23.6719V20.5273C13.1257 20.4167 12.9206 20.3402 12.7383 20.2979C12.5592 20.2555 12.3639 20.2344 12.1523 20.2344C11.6803 20.2344 11.3109 20.4118 11.0439 20.7666C10.777 21.1182 10.6436 21.6276 10.6436 22.2949C10.6436 22.9362 10.7461 23.4277 10.9512 23.7695C11.1562 24.1081 11.485 24.2773 11.9375 24.2773C12.1784 24.2773 12.4209 24.2236 12.665 24.1162C12.9092 24.0055 13.1387 23.8574 13.3535 23.6719ZM18.4707 18.2812H18.4219C18.3405 18.252 18.2233 18.2243 18.0703 18.1982C17.9173 18.1689 17.7806 18.1543 17.6602 18.1543C17.2728 18.1543 16.9961 18.2422 16.8301 18.418C16.6673 18.5905 16.5859 18.9046 16.5859 19.3604V19.5459H18.1045V20.3076H16.6152V25H15.6973V20.3076H15.0771V19.5459H15.6973V19.3652C15.6973 18.7077 15.8551 18.208 16.1709 17.8662C16.4867 17.5244 16.9391 17.3535 17.5283 17.3535C17.6976 17.3535 17.8636 17.3633 18.0264 17.3828C18.1891 17.3991 18.3372 17.4186 18.4707 17.4414V18.2812Z" fill="#4B5169"/>
</svg>
