<svg width="23" height="30" viewBox="0 0 23 30" fill="none" xmlns="http://www.w3.org/2000/svg">
    <path fill-rule="evenodd" clip-rule="evenodd" d="M13.7697 1H2.83551C2.34779 1.00264 1.88098 1.20083 1.53703 1.55124C1.19308 1.90165 0.999993 2.37577 1 2.87V27.13C0.999993 27.6242 1.19308 28.0984 1.53703 28.4488C1.88098 28.7992 2.34779 28.9974 2.83551 29H20.1546C20.644 29 21.1134 28.803 21.4595 28.4523C21.8056 28.1016 22 27.626 22 27.13V9.35001L13.7697 1Z" stroke="#4B5169" stroke-linecap="round" stroke-linejoin="round"/>
    <path d="M13.5 1V9.5H22" stroke="#4B5169" stroke-linecap="round" stroke-linejoin="round"/>
    <path d="M8.57715 25H7.44922L6.12598 22.9395L4.76367 25H3.72363L5.61816 22.2949L3.74316 19.5459H4.87109L6.18457 21.5869L7.53223 19.5459H8.57715L6.69238 22.2314L8.57715 25ZM10.2275 25H9.30957V17.4023H10.2275V25ZM13.0498 25.1318C12.6852 25.1318 12.3434 25.083 12.0244 24.9854C11.7087 24.8877 11.4466 24.7835 11.2383 24.6729V23.6426H11.2871C11.3652 23.7044 11.4564 23.7728 11.5605 23.8477C11.668 23.9225 11.8096 24.0007 11.9854 24.082C12.1416 24.1536 12.3125 24.2171 12.498 24.2725C12.6868 24.3278 12.8822 24.3555 13.084 24.3555C13.2305 24.3555 13.3867 24.3392 13.5527 24.3066C13.7188 24.2708 13.8424 24.2269 13.9238 24.1748C14.0378 24.0999 14.1191 24.0202 14.168 23.9355C14.2201 23.8509 14.2461 23.724 14.2461 23.5547C14.2461 23.3366 14.1859 23.1722 14.0654 23.0615C13.9482 22.9508 13.7383 22.8581 13.4355 22.7832C13.3184 22.7539 13.1654 22.7197 12.9766 22.6807C12.7878 22.6416 12.6136 22.5993 12.4541 22.5537C12.0374 22.4333 11.7347 22.2477 11.5459 21.9971C11.3571 21.7432 11.2627 21.4372 11.2627 21.0791C11.2627 20.5876 11.4482 20.1872 11.8193 19.8779C12.1904 19.5687 12.6836 19.4141 13.2988 19.4141C13.6016 19.4141 13.9059 19.4515 14.2119 19.5264C14.5179 19.6012 14.7751 19.6956 14.9834 19.8096V20.791H14.9346C14.7002 20.6055 14.4382 20.459 14.1484 20.3516C13.862 20.2441 13.5723 20.1904 13.2793 20.1904C12.9766 20.1904 12.721 20.2539 12.5127 20.3809C12.3044 20.5078 12.2002 20.6999 12.2002 20.957C12.2002 21.1849 12.262 21.3558 12.3857 21.4697C12.5094 21.5804 12.708 21.6715 12.9814 21.7432C13.1182 21.779 13.2695 21.8148 13.4355 21.8506C13.6048 21.8831 13.7822 21.9222 13.9678 21.9678C14.3714 22.0687 14.6742 22.2363 14.876 22.4707C15.0811 22.7051 15.1836 23.0241 15.1836 23.4277C15.1836 23.6621 15.1364 23.8851 15.042 24.0967C14.9508 24.305 14.8158 24.484 14.6367 24.6338C14.4414 24.7965 14.2201 24.9202 13.9727 25.0049C13.7285 25.0895 13.4209 25.1318 13.0498 25.1318ZM20.2764 25H19.1484L17.8252 22.9395L16.4629 25H15.4229L17.3174 22.2949L15.4424 19.5459H16.5703L17.8838 21.5869L19.2314 19.5459H20.2764L18.3916 22.2314L20.2764 25Z" fill="#4B5169"/>
</svg>
