<svg xmlns="http://www.w3.org/2000/svg" viewBox="0 0 12.87 18.9"><defs><style>.VVcls-1{fill:#589bdc;}.VVcls-2{opacity:0.75;}.VVcls-3{opacity:0.5;}</style></defs><title>Слив</title><g id="Слой_2" data-name="Слой 2"><g id="Слой_1-2" data-name="Слой 1"><path class="VVcls-1" d="M2.1,6.57a1.05,1.05,0,1,1-1-1.05A1,1,0,0,1,2.1,6.57Z"/><path class="VVcls-1" d="M4.79,3.81a1,1,0,1,1-1-1.05A1,1,0,0,1,4.79,3.81Z"/><path class="VVcls-1" d="M7.48,1.05A1.05,1.05,0,1,1,6.43,0,1,1,0,0,1,7.48,1.05Z"/><path class="VVcls-1" d="M10.17,3.81A1,1,0,1,1,9.12,2.76,1,1,0,0,1,10.17,3.81Z"/><path class="VVcls-1" d="M12.87,6.57a1,1,0,1,1-1-1.05A1,1,0,0,1,12.87,6.57Z"/><g class="VVcls-2"><path class="VVcls-1" d="M2.1,12.39a1.05,1.05,0,1,1-1-1.05A1,1,0,0,1,2.1,12.39Z"/><path class="VVcls-1" d="M4.79,9.64a1,1,0,1,1-1-1.05A1,1,0,0,1,4.79,9.64Z"/><path class="VVcls-1" d="M7.48,6.88a1.05,1.05,0,1,1-1.05-1A1,1,0,0,1,7.48,6.88Z"/><path class="VVcls-1" d="M10.17,9.64A1,1,0,1,1,9.12,8.59,1,1,0,0,1,10.17,9.64Z"/><path class="VVcls-1" d="M12.87,12.39a1,1,0,1,1-1-1.05A1,1,0,0,1,12.87,12.39Z"/></g><g class="VVcls-3"><path class="VVcls-1" d="M2.1,17.85a1.05,1.05,0,1,1-1-1.05A1,1,0,0,1,2.1,17.85Z"/><path class="VVcls-1" d="M4.79,15.1a1,1,0,1,1-1-1A1,1,0,0,1,4.79,15.1Z"/><path class="VVcls-1" d="M7.48,12.34a1.05,1.05,0,1,1-1.05-1.05A1,1,0,0,1,7.48,12.34Z"/><path class="VVcls-1" d="M10.17,15.1a1,1,0,1,1-1.05-1A1,1,0,0,1,10.17,15.1Z"/><path class="VVcls-1" d="M12.87,17.85a1,1,0,1,1-1-1.05A1,1,0,0,1,12.87,17.85Z"/></g></g></g></svg>
