<svg xmlns="http://www.w3.org/2000/svg" viewBox="0 0 28.87 18.9"><defs><style>.Twocls-1{fill:#589bdc;}.Twocls-2{opacity:0.75;}.Twocls-3{opacity:0.5;}.Twocls-4{opacity:0.59;}</style></defs><title>Проток</title><g id="Слой_2" data-name="Слой 2"><g id="Слой_1-2" data-name="Слой 1"><path class="Twocls-1" d="M26.77,12.34a1.05,1.05,0,1,1,1.05,1.05A1,1,0,0,1,26.77,12.34Z"/><path class="Twocls-1" d="M24.08,15.1a1,1,0,1,1,1,1A1,1,0,0,1,24.08,15.1Z"/><path class="Twocls-1" d="M21.38,17.85a1.05,1.05,0,1,1,1.05,1A1,1,0,0,1,21.38,17.85Z"/><path class="Twocls-1" d="M18.69,15.1a1.05,1.05,0,1,1,1,1A1,1,0,0,1,18.69,15.1Z"/><path class="Twocls-1" d="M16,12.34a1.05,1.05,0,1,1,1.05,1.05A1,1,0,0,1,16,12.34Z"/><g class="Twocls-2"><path class="Twocls-1" d="M26.77,6.51a1.05,1.05,0,1,1,1.05,1A1,1,0,0,1,26.77,6.51Z"/><path class="Twocls-1" d="M24.08,9.27a1,1,0,1,1,1,1.05A1,1,0,0,1,24.08,9.27Z"/><path class="Twocls-1" d="M21.38,12a1.05,1.05,0,1,1,1.05,1.05A1,1,0,0,1,21.38,12Z"/><path class="Twocls-1" d="M18.69,9.27a1.05,1.05,0,1,1,1,1.05A1,1,0,0,1,18.69,9.27Z"/><path class="Twocls-1" d="M16,6.51a1.05,1.05,0,1,1,1.05,1A1,1,0,0,1,16,6.51Z"/></g><g class="Twocls-3"><path class="Twocls-1" d="M26.77,1.05A1.05,1.05,0,1,1,27.82,2.1,1,1,0,0,1,26.77,1.05Z"/><path class="Twocls-1" d="M24.08,3.81a1,1,0,1,1,1,1.05A1,1,0,0,1,24.08,3.81Z"/><path class="Twocls-1" d="M21.38,6.57a1.05,1.05,0,1,1,1.05,1A1,1,0,0,1,21.38,6.57Z"/><path class="Twocls-1" d="M18.69,3.81a1.05,1.05,0,1,1,1,1.05A1,1,0,0,1,18.69,3.81Z"/><path class="Twocls-1" d="M16,1.05A1.05,1.05,0,1,1,17.05,2.1,1,1,0,0,1,16,1.05Z"/></g><path class="Twocls-1" d="M2.1,6.57a1.05,1.05,0,1,1-1-1.05A1,1,0,0,1,2.1,6.57Z"/><path class="Twocls-1" d="M4.79,3.81a1,1,0,1,1-1-1.05A1,1,0,0,1,4.79,3.81Z"/><path class="Twocls-1" d="M7.48,1.05A1.05,1.05,0,1,1,6.43,0,1,1,0,0,1,7.48,1.05Z"/><path class="Twocls-1" d="M10.17,3.81A1,1,0,1,1,9.12,2.76,1,1,0,0,1,10.17,3.81Z"/><path class="Twocls-1" d="M12.87,6.57a1,1,0,1,1-1-1.05A1,1,0,0,1,12.87,6.57Z"/><g class="Twocls-2"><path class="Twocls-1" d="M2.1,12.39a1.05,1.05,0,1,1-1-1A1,1,0,0,1,2.1,12.39Z"/><path class="Twocls-1" d="M4.79,9.64a1,1,0,1,1-1-1.05A1,1,0,0,1,4.79,9.64Z"/><path class="Twocls-1" d="M7.48,6.88a1.05,1.05,0,1,1-1.05-1A1,1,0,0,1,7.48,6.88Z"/><path class="Twocls-1" d="M10.17,9.64A1,1,0,1,1,9.12,8.59,1,1,0,0,1,10.17,9.64Z"/><path class="Twocls-1" d="M12.87,12.39a1.05,1.05,0,1,1-1-1A1,1,0,0,1,12.87,12.39Z"/></g><g class="Twocls-4"><path class="Twocls-1" d="M2.1,17.85a1.05,1.05,0,1,1-1-1.05A1,1,0,0,1,2.1,17.85Z"/><path class="Twocls-1" d="M4.79,15.1a1,1,0,1,1-1-1A1,1,0,0,1,4.79,15.1Z"/><path class="Twocls-1" d="M7.48,12.34a1.05,1.05,0,1,1-1.05-1.05A1,1,0,0,1,7.48,12.34Z"/><path class="Twocls-1" d="M10.17,15.1a1,1,0,1,1-1.05-1A1,1,0,0,1,10.17,15.1Z"/><path class="Twocls-1" d="M12.87,17.85a1,1,0,1,1-1-1.05A1,1,0,0,1,12.87,17.85Z"/></g></g></g></svg>
