<svg xmlns="http://www.w3.org/2000/svg" viewBox="0 0 28.28 28.26"><defs><style>.Otscls-1{fill:none;stroke:#6fcf97;stroke-miterlimit:10;stroke-width:0.5px;}.Otscls-2{fill:#6fcf97;}</style></defs><title>Ресурс 29</title><g id="Слой_2" data-name="Слой 2"><g id="Слой_1-2" data-name="Слой 1"><path class="Otscls-1" d="M.25,12.87A13.92,13.92,0,1,1,15.65,28"/><path class="Otscls-2" d="M13.72,14c-.31.1-.4.07-.54-.18a2.87,2.87,0,0,0-.89-.88,9,9,0,0,1-1-.74,3.1,3.1,0,0,1-.9-3.32.51.51,0,0,0-.06-.43,1.46,1.46,0,0,1-.24-1.24H18c0,.41.09.82-.21,1.17a.53.53,0,0,0-.09.56,3.22,3.22,0,0,1-1.39,3.65c-.32.23-.66.44-1,.68a2.69,2.69,0,0,0-.44.51c-.19.29-.2.3-.58.23a2.3,2.3,0,0,1,.49-.84,6.09,6.09,0,0,1,1.24-1A2.79,2.79,0,0,0,17.2,8.82a.19.19,0,0,0-.2-.14H11c-.11,0-.15.05-.19.15a2.76,2.76,0,0,0,1,3.33c.33.25.69.47,1,.72a2.4,2.4,0,0,1,.72.92A2.34,2.34,0,0,1,13.72,14Z"/><path class="Otscls-2" d="M14.29,14.44c.39-.06.4-.06.58.24a2.5,2.5,0,0,0,.85.83l.63.41a3.17,3.17,0,0,1,1.33,3.6.66.66,0,0,0,.07.58A1.59,1.59,0,0,1,18,21.25H10.07c0-.29-.08-.6.09-.87a1.4,1.4,0,0,0,.16-1.1,3.07,3.07,0,0,1,1.36-3.35c.24-.17.49-.32.74-.49a2.32,2.32,0,0,0,.83-.9c.12-.24.32-.07.48-.13l0,.05c-.08.16-.15.34-.24.5A3.35,3.35,0,0,1,12.39,16a6.88,6.88,0,0,0-1,.78,2.55,2.55,0,0,0-.64,2.51c.11.52.11.52.63.52,1.85,0,3.69,0,5.54,0,.19,0,.27-.06.3-.23s.13-.64.15-.95a2.61,2.61,0,0,0-1.23-2.31c-.25-.18-.52-.34-.77-.51A2.56,2.56,0,0,1,14.29,14.44Z"/><path class="Otscls-2" d="M16.65,19.5H11.39a3,3,0,0,1,.62-.88l.58-.53a4.59,4.59,0,0,0,1.34-1.91c0-.07.05-.14.09-.24,0,.09.06.15.08.21a4.69,4.69,0,0,0,1.4,2,4.07,4.07,0,0,1,1,1.05Z"/><path class="Otscls-2" d="M14,13.81a4,4,0,0,0-1.76-1.89,6.38,6.38,0,0,1,3.52,0A4,4,0,0,0,14,13.81Z"/></g></g></svg>