<svg xmlns="http://www.w3.org/2000/svg" viewBox="0 0 28.28 28.26"><defs><style>.cls-1{fill:none;stroke:#eb5757;stroke-miterlimit:10;stroke-width:0.5px;}.cls-2{fill:#eb5757;}</style></defs><title>Ресурс 28</title><g id="Слой_2" data-name="Слой 2"><g id="Слой_1-2" data-name="Слой 1"><path class="cls-1" d="M.25,12.87A13.92,13.92,0,1,1,15.65,28"/><path class="cls-2" d="M15.4,15.4a3.93,3.93,0,0,0,3.93-3.94,4,4,0,0,0-.44-1.82L16,12.56,14.59,12,14,10.61,16.83,7.8a3.8,3.8,0,0,0-1.43-.28,3.94,3.94,0,0,0,0,7.88Z"/><path class="cls-2" d="M11.87,15a3.31,3.31,0,0,1-.73-1L5.54,18.4a5.73,5.73,0,0,0,1.13,1.75,5.19,5.19,0,0,0,1.75,1l4.45-5.47A3.76,3.76,0,0,1,11.87,15ZM8.71,19a.85.85,0,1,1-.85-.85A.85.85,0,0,1,8.71,19Z"/></g></g></svg>