<svg xmlns="http://www.w3.org/2000/svg" viewBox="0 0 28.28 28.26"><defs><style>.ec49ca03-ef03-4966-9661-a3028ef7a13b,.f27078e0-291c-47e8-a9fb-d373cc03868c{opacity:0.65;}.aaca953e-9bed-47bf-beb1-14574559cecc,.ac5e8f6a-3f81-41fa-8142-898a37ca0e04,.ad714e71-4592-4c2f-85ac-ad95ee8dd6ca,.ad885275-bb96-47a9-8934-767f1a0a05eb,.add79c90-56ac-4e67-a8b5-1adcddb1c026,.b11001af-ba05-4ea0-b4d5-0d3c57639598,.b1857e64-6212-4895-8f1f-9fd46f57d42f,.b48250ad-385e-4ae9-aebd-402c467cd9fd,.b707ada9-05a3-4276-a338-8012954cd112,.b7947ad5-f698-4a1a-a585-b89a5725dd12,.b9081242-995f-4372-af8a-3c2809075daf,.b94faea5-3252-41ad-ac06-92fae9470ae3,.ba3a14df-420b-4ba4-a21b-d6cdc8fd2005,.bb310811-2077-4e1f-8261-0e271f35e0d2,.ec49ca03-ef03-4966-9661-a3028ef7a13b,.ef459998-55f6-4a4c-a0e8-767a16d82f25,.f441b815-c017-4a9a-97be-9bd72b6b9ef6,.fe0e74e7-479b-4ee7-8c9b-50e3ce960a9f{fill:#f28b4a;}.ba3a14df-420b-4ba4-a21b-d6cdc8fd2005{opacity:0.75;}.add79c90-56ac-4e67-a8b5-1adcddb1c026{opacity:0.8;}.ef459998-55f6-4a4c-a0e8-767a16d82f25{opacity:0.7;}.b94faea5-3252-41ad-ac06-92fae9470ae3{opacity:0.85;}.aaca953e-9bed-47bf-beb1-14574559cecc{opacity:0.9;}.ac5e8f6a-3f81-41fa-8142-898a37ca0e04{opacity:0.1;}.b1857e64-6212-4895-8f1f-9fd46f57d42f{opacity:0.2;}.ad714e71-4592-4c2f-85ac-ad95ee8dd6ca{opacity:0.3;}.b7947ad5-f698-4a1a-a585-b89a5725dd12{opacity:0.4;}.fe0e74e7-479b-4ee7-8c9b-50e3ce960a9f{opacity:0.55;}.f441b815-c017-4a9a-97be-9bd72b6b9ef6{opacity:0.6;}.bb310811-2077-4e1f-8261-0e271f35e0d2{opacity:0.05;}.b9081242-995f-4372-af8a-3c2809075daf{opacity:0.15;}.b707ada9-05a3-4276-a338-8012954cd112{opacity:0.25;}.b48250ad-385e-4ae9-aebd-402c467cd9fd{opacity:0.35;}.ad885275-bb96-47a9-8934-767f1a0a05eb{opacity:0.45;}.bb7333ed-1aa6-41b1-b7fd-d81aa1403040{fill:none;stroke:#f28b4a;stroke-miterlimit:10;stroke-width:0.5px;}</style></defs><title>Не известно</title><g id="a1c64247-ad14-4f6c-828d-1949083fed11" data-name="Слой 2"><g id="b630f647-0921-47f1-bacc-9c16cf216971" data-name="Слой 1"><g class="f27078e0-291c-47e8-a9fb-d373cc03868c"><path class="b11001af-ba05-4ea0-b4d5-0d3c57639598" d="M7.51,13.6a.39.39,0,1,1-.4.39A.39.39,0,0,1,7.51,13.6Z"/></g><path class="ba3a14df-420b-4ba4-a21b-d6cdc8fd2005" d="M10.09,9.39a.52.52,0,0,1-1,0,.52.52,0,1,1,1,0Z"/><circle class="add79c90-56ac-4e67-a8b5-1adcddb1c026" cx="11.8" cy="8.1" r="0.65"/><path class="ef459998-55f6-4a4c-a0e8-767a16d82f25" d="M8.45,11.47a.39.39,0,1,1-.78,0,.39.39,0,1,1,.78,0Z"/><circle class="b94faea5-3252-41ad-ac06-92fae9470ae3" cx="14.36" cy="7.83" r="0.79"/><path class="aaca953e-9bed-47bf-beb1-14574559cecc" d="M17.72,8.63a.92.92,0,1,1-.92-.92A.92.92,0,0,1,17.72,8.63Z"/><path class="b11001af-ba05-4ea0-b4d5-0d3c57639598" d="M19.74,10.56a1,1,0,0,1-2-.42,1,1,0,1,1,2,.42Z"/><path class="b11001af-ba05-4ea0-b4d5-0d3c57639598" d="M20.87,12.57A1.18,1.18,0,1,1,19.7,11.4,1.17,1.17,0,0,1,20.87,12.57Z"/><path class="b11001af-ba05-4ea0-b4d5-0d3c57639598" d="M21.07,15.27A1.31,1.31,0,1,1,19.76,14,1.31,1.31,0,0,1,21.07,15.27Z"/><path class="ac5e8f6a-3f81-41fa-8142-898a37ca0e04" d="M19.11,17.62a.4.4,0,1,1-.39-.39A.39.39,0,0,1,19.11,17.62Z"/><path class="b1857e64-6212-4895-8f1f-9fd46f57d42f" d="M17.2,19.34a.4.4,0,1,1-.79,0,.4.4,0,0,1,.79,0Z"/><path class="ad714e71-4592-4c2f-85ac-ad95ee8dd6ca" d="M14.75,20.14a.4.4,0,0,1-.79,0,.4.4,0,0,1,.79,0Z"/><path class="b7947ad5-f698-4a1a-a585-b89a5725dd12" d="M12.19,19.87a.39.39,0,1,1-.39-.39A.38.38,0,0,1,12.19,19.87Z"/><path class="fe0e74e7-479b-4ee7-8c9b-50e3ce960a9f" d="M10,18.58a.39.39,0,1,1-.39-.39A.39.39,0,0,1,10,18.58Z"/><path class="f441b815-c017-4a9a-97be-9bd72b6b9ef6" d="M8.45,16.5a.39.39,0,1,1-.39-.39A.38.38,0,0,1,8.45,16.5Z"/><path class="ba3a14df-420b-4ba4-a21b-d6cdc8fd2005" d="M16.71,11.59a.39.39,0,0,1-.39.4.4.4,0,0,1-.4-.4.39.39,0,0,1,.4-.39A.38.38,0,0,1,16.71,11.59Z"/><path class="b94faea5-3252-41ad-ac06-92fae9470ae3" d="M17.49,12.94a.39.39,0,0,1-.39.4.4.4,0,0,1-.4-.4.39.39,0,0,1,.4-.39A.38.38,0,0,1,17.49,12.94Z"/><path class="ef459998-55f6-4a4c-a0e8-767a16d82f25" d="M15.45,10.68a.38.38,0,0,1-.39.39.39.39,0,0,1-.4-.39.4.4,0,0,1,.4-.4A.39.39,0,0,1,15.45,10.68Z"/><path class="b11001af-ba05-4ea0-b4d5-0d3c57639598" d="M17.66,14.49a.4.4,0,1,1-.4-.39A.4.4,0,0,1,17.66,14.49Z"/><path class="bb310811-2077-4e1f-8261-0e271f35e0d2" d="M17.18,16a.4.4,0,0,1-.8,0,.4.4,0,1,1,.8,0Z"/><path class="ac5e8f6a-3f81-41fa-8142-898a37ca0e04" d="M16.13,17.14a.4.4,0,0,1-.79,0,.4.4,0,1,1,.79,0Z"/><path class="b9081242-995f-4372-af8a-3c2809075daf" d="M14.71,17.77a.4.4,0,1,1-.4-.4A.4.4,0,0,1,14.71,17.77Z"/><path class="b1857e64-6212-4895-8f1f-9fd46f57d42f" d="M13.15,17.77a.4.4,0,0,1-.4.4.4.4,0,0,1,0-.8A.4.4,0,0,1,13.15,17.77Z"/><path class="b707ada9-05a3-4276-a338-8012954cd112" d="M11.72,17.14a.38.38,0,0,1-.39.39.39.39,0,0,1-.4-.39.4.4,0,0,1,.4-.4A.39.39,0,0,1,11.72,17.14Z"/><path class="ad714e71-4592-4c2f-85ac-ad95ee8dd6ca" d="M10.68,16a.4.4,0,0,1-.79,0,.4.4,0,1,1,.79,0Z"/><path class="b48250ad-385e-4ae9-aebd-402c467cd9fd" d="M10.2,14.49a.4.4,0,0,1-.4.4.4.4,0,0,1,0-.79A.4.4,0,0,1,10.2,14.49Z"/><path class="ad885275-bb96-47a9-8934-767f1a0a05eb" d="M10.36,12.94a.4.4,0,1,1-.79,0,.4.4,0,0,1,.79,0Z"/><path class="fe0e74e7-479b-4ee7-8c9b-50e3ce960a9f" d="M11.14,11.59a.4.4,0,1,1-.79,0,.4.4,0,0,1,.79,0Z"/><path class="f441b815-c017-4a9a-97be-9bd72b6b9ef6" d="M12.4,10.68a.38.38,0,0,1-.39.39.39.39,0,0,1-.4-.39.4.4,0,0,1,.4-.4A.39.39,0,0,1,12.4,10.68Z"/><path class="ec49ca03-ef03-4966-9661-a3028ef7a13b" d="M13.93,10.34a.4.4,0,0,1-.4.4.4.4,0,0,1,0-.8A.4.4,0,0,1,13.93,10.34Z"/><path class="bb7333ed-1aa6-41b1-b7fd-d81aa1403040" d="M.25,12.87A13.92,13.92,0,1,1,15.65,28"/></g></g></svg>
