<svg xmlns="http://www.w3.org/2000/svg" viewBox="0 0 12.87 18.9"><defs><style>.cls-1{fill:#589bdc;}.cls-2{opacity:0.75;}.cls-3{opacity:0.5;}</style></defs><title>Ресурс 20</title><g id="Слой_2" data-name="Слой 2"><g id="Слой_1-2" data-name="Слой 1"><path class="cls-1" d="M10.77,12.34a1.05,1.05,0,1,1,1.05,1.05A1,1,0,0,1,10.77,12.34Z"/><path class="cls-1" d="M8.08,15.1a1,1,0,1,1,1,1A1,1,0,0,1,8.08,15.1Z"/><path class="cls-1" d="M5.38,17.85a1,1,0,1,1,1,1A1,1,0,0,1,5.38,17.85Z"/><path class="cls-1" d="M2.69,15.1a1.05,1.05,0,1,1,1.05,1A1,1,0,0,1,2.69,15.1Z"/><path class="cls-1" d="M0,12.34a1.05,1.05,0,1,1,1.05,1.05A1,1,0,0,1,0,12.34Z"/><g class="cls-2"><path class="cls-1" d="M10.77,6.51a1.05,1.05,0,1,1,1.05,1A1,1,0,0,1,10.77,6.51Z"/><path class="cls-1" d="M8.08,9.27a1,1,0,1,1,1,1.05A1,1,0,0,1,8.08,9.27Z"/><path class="cls-1" d="M5.38,12a1,1,0,1,1,1,1.05A1.06,1.06,0,0,1,5.38,12Z"/><path class="cls-1" d="M2.69,9.27a1.05,1.05,0,1,1,1.05,1.05A1,1,0,0,1,2.69,9.27Z"/><path class="cls-1" d="M0,6.51a1.05,1.05,0,1,1,1.05,1A1,1,0,0,1,0,6.51Z"/></g><g class="cls-3"><path class="cls-1" d="M10.77,1.05A1.05,1.05,0,1,1,11.82,2.1,1,1,0,0,1,10.77,1.05Z"/><path class="cls-1" d="M8.08,3.81a1,1,0,1,1,1,1.05A1,1,0,0,1,8.08,3.81Z"/><path class="cls-1" d="M5.38,6.57a1,1,0,1,1,1,1A1,1,0,0,1,5.38,6.57Z"/><path class="cls-1" d="M2.69,3.81A1.05,1.05,0,1,1,3.74,4.86,1,1,0,0,1,2.69,3.81Z"/><path class="cls-1" d="M0,1.05A1.05,1.05,0,1,1,1.05,2.1,1,1,0,0,1,0,1.05Z"/></g></g></g></svg>