<svg xmlns="http://www.w3.org/2000/svg" viewBox="0 0 28.28 28.26"><defs><style>.a4cd6677-b055-4d6a-852a-339725e33e33{fill:none;stroke:#3fa9f5;stroke-miterlimit:10;stroke-width:0.5px;}.b1c6430d-c8db-4435-ab19-0bf1bc1a229e{fill:#3fa9f5;}</style></defs><title>В работе</title><g id="b4d7b601-2645-4ccb-b6db-f31532671462" data-name="Слой 2"><g id="be442d9d-cd7b-4ed4-919b-66d596633458" data-name="Слой 1"><path class="a4cd6677-b055-4d6a-852a-339725e33e33" d="M.25,12.87A13.92,13.92,0,1,1,15.65,28"/><path class="b1c6430d-c8db-4435-ab19-0bf1bc1a229e" d="M20.72,14.47V12.92l-1.88-.59a4.6,4.6,0,0,0-.4-1l.91-1.74-1.1-1.1-1.74.91a4.6,4.6,0,0,0-1-.4L15,7.15H13.4L12.82,9a4.92,4.92,0,0,0-1,.4L10.1,8.52,9,9.62l.91,1.74a4.63,4.63,0,0,0-.41,1l-1.87.59v1.55l1.87.58a4.72,4.72,0,0,0,.41,1L9,17.77l1.09,1.09L11.84,18a5,5,0,0,0,1,.41l.58,1.87H15l.59-1.87a4.63,4.63,0,0,0,1-.41l1.74.91,1.1-1.09L18.44,16a4.69,4.69,0,0,0,.4-1Zm-4.22-.78a2.32,2.32,0,1,1-2.32-2.32A2.32,2.32,0,0,1,16.5,13.69Z"/><path class="b1c6430d-c8db-4435-ab19-0bf1bc1a229e" d="M12.07,22.2v-.79l-1-.3a2.13,2.13,0,0,0-.21-.49l.47-.89-.56-.56-.89.47a2.13,2.13,0,0,0-.49-.21l-.3-.95H8.35l-.3.95a2.41,2.41,0,0,0-.5.21l-.88-.47-.56.56.47.89a2.13,2.13,0,0,0-.21.49l-1,.3v.79l1,.3a2.13,2.13,0,0,0,.21.49l-.47.89.56.56L7.55,24a2.41,2.41,0,0,0,.5.21l.3.95h.79l.3-.95A2.13,2.13,0,0,0,9.93,24l.89.47.56-.56L10.91,23a2.13,2.13,0,0,0,.21-.49Zm-2.15-.4a1.18,1.18,0,1,1-2.36,0,1.18,1.18,0,1,1,2.36,0Z"/></g></g></svg>
