<svg xmlns="http://www.w3.org/2000/svg" viewBox="0 0 54.04 31.41"><defs><style>.ed99497c-6a2d-4ae4-8a58-f4a430828afb{fill:none;stroke:orange;stroke-miterlimit:10;stroke-width:0.5px;}.a492fa23-e92f-4e7a-a882-88ee3661d9cd,.a9d0c0c1-eaa8-405d-9095-2482de932bda,.bb13b534-0b88-4d09-80b0-55442a28e004,.e8fb5580-0632-493b-b2c0-98a2d9d2c387,.f05262bf-3ce4-49a9-b88b-c0152488e3a8,.ffd3004e-e593-4541-8f1f-88e0b3815d5c{fill:orange;}.bb13b534-0b88-4d09-80b0-55442a28e004{opacity:0.1;}.a492fa23-e92f-4e7a-a882-88ee3661d9cd{opacity:0.15;}.e8fb5580-0632-493b-b2c0-98a2d9d2c387{opacity:0.2;}.f05262bf-3ce4-49a9-b88b-c0152488e3a8{opacity:0.25;}.a9d0c0c1-eaa8-405d-9095-2482de932bda{opacity:0.3;}.ffd3004e-e593-4541-8f1f-88e0b3815d5c{opacity:0.5;}</style></defs><title>bottom-circle</title><g id="bf578baa-dfb8-42e4-b0d0-9e65d9961df4" data-name="Слой 2"><g id="fb6c2aaf-c63d-48bc-adb4-3820e2a466c9" data-name="Слой 1"><path class="ed99497c-6a2d-4ae4-8a58-f4a430828afb" d="M46,4.78c-10.46-6-27.41-6-37.86,0s-10.45,15.82,0,21.85,27.4,6,37.86,0S56.4,10.81,46,4.78Zm-.14,21.78c-10.38,6-27.21,6-37.59,0s-10.37-15.71,0-21.71,27.21-6,37.59,0S56.19,20.56,45.81,26.56Z"/><path class="bb13b534-0b88-4d09-80b0-55442a28e004" d="M44.16,5.81c9.46,5.47,9.46,14.33,0,19.79s-24.81,5.47-34.28,0S.41,11.28,9.88,5.81,34.69.35,44.16,5.81Z"/><path class="bb13b534-0b88-4d09-80b0-55442a28e004" d="M42.79,6.6c8.72,5,8.72,13.18,0,18.21s-22.83,5-31.55,0-8.71-13.18,0-18.21S34.08,1.57,42.79,6.6Z"/><path class="a492fa23-e92f-4e7a-a882-88ee3661d9cd" d="M40.45,8c7.42,4.28,7.42,11.23,0,15.51s-19.44,4.28-26.86,0S6.17,12.23,13.59,8,33,3.67,40.45,8Z"/><path class="e8fb5580-0632-493b-b2c0-98a2d9d2c387" d="M38.44,9.11c6.31,3.64,6.31,9.55,0,13.19s-16.54,3.64-22.84,0-6.31-9.55,0-13.19S32.13,5.47,38.44,9.11Z"/><path class="f05262bf-3ce4-49a9-b88b-c0152488e3a8" d="M36.41,10.28c5.19,3,5.19,7.85,0,10.85s-13.6,3-18.78,0-5.19-7.85,0-10.85S31.22,7.29,36.41,10.28Z"/><path class="a9d0c0c1-eaa8-405d-9095-2482de932bda" d="M33.74,11.82c3.72,2.15,3.72,5.62,0,7.77a14.89,14.89,0,0,1-13.45,0c-3.71-2.15-3.71-5.62,0-7.77A14.89,14.89,0,0,1,33.74,11.82Z"/><path class="ffd3004e-e593-4541-8f1f-88e0b3815d5c" d="M31.77,13c2.62,1.52,2.62,4,0,5.49a10.53,10.53,0,0,1-9.5,0c-2.63-1.52-2.63-4,0-5.49A10.53,10.53,0,0,1,31.77,13Z"/></g></g></svg>