<svg xmlns="http://www.w3.org/2000/svg" viewBox="0 0 23 23"><defs><style>.ab5464e4-7749-4b1f-a09e-73f584b2d1ae{fill:#00a99d;}.b93c70b0-abfd-4f17-9b4b-a94f6362bafe,.bba7d52a-7bc9-4e29-a158-c3162c5f7f2c{fill:#fff;}.bba7d52a-7bc9-4e29-a158-c3162c5f7f2c{opacity:0.15;}</style></defs><title>icon-good</title><g id="ea03c6f4-c1fe-4069-8a71-d6f784cc0a0e" data-name="Слой 2"><g id="a7a96ff5-3abf-40bb-9d9b-59c841cf4c97" data-name="Слой 1"><rect class="ab5464e4-7749-4b1f-a09e-73f584b2d1ae" width="23" height="23" rx="11.5" transform="translate(23 23) rotate(180)"/><rect class="bba7d52a-7bc9-4e29-a158-c3162c5f7f2c" x="2" y="2" width="19" height="19" rx="9.5" transform="translate(23 23) rotate(180)"/><rect class="bba7d52a-7bc9-4e29-a158-c3162c5f7f2c" x="4" y="4" width="15" height="15" rx="7.5" transform="translate(23 23) rotate(180)"/><rect class="bba7d52a-7bc9-4e29-a158-c3162c5f7f2c" x="6" y="6" width="11" height="11" rx="5.5" transform="translate(23 23) rotate(180)"/><path class="b93c70b0-abfd-4f17-9b4b-a94f6362bafe" d="M8.4,8.93a5,5,0,0,1,.47,2.45,2.49,2.49,0,0,0,1.91,2.67h0c.05,0,.14-.06.13-.13a1.94,1.94,0,0,1,.46-1.58,5.79,5.79,0,0,0-1.17-1.5,5.81,5.81,0,0,1,1.37,1.31,3.36,3.36,0,0,1,1-.6C12.26,10.6,11.16,9.6,8.4,8.93Z"/><path class="b93c70b0-abfd-4f17-9b4b-a94f6362bafe" d="M15.36,11.05c-.54.18-.81,1-1,1.48-.27.8-.28,1.78-1.12,2.23a2.78,2.78,0,0,1-1.43.17c-.08,0-.17.18-.07.19A2.17,2.17,0,0,0,14,14.25a14.47,14.47,0,0,0,.7-2.14c.11-.27.33-.76.64-.87.08,0,.14-.22,0-.19Z"/><path class="b93c70b0-abfd-4f17-9b4b-a94f6362bafe" d="M10.91,13.91c-.28-2.14,2.36-2.75,3.95-2.78.08,0,.16-.19.07-.19-1.31,0-2.93.25-3.73,1.44A2.44,2.44,0,0,0,10.76,14c0,.13.16,0,.15-.08Z"/><path class="b93c70b0-abfd-4f17-9b4b-a94f6362bafe" d="M14,11.56a5.75,5.75,0,0,0-2.72,3.62s-.18.56.07.56l.28,0s-.23-2.16,2.48-4.2C14.08,11.58,14.16,11.41,14,11.56Z"/></g></g></svg>