<svg xmlns="http://www.w3.org/2000/svg" viewBox="0 0 15.83 15.83"><defs><style>.cls-1{fill:#fff;fill-rule:evenodd;}</style></defs><title>Ресурс 6</title><g id="Слой_2" data-name="Слой 2"><g id="Layer_1" data-name="Layer 1"><path class="cls-1" d="M8.42,7.7,11,10.25a.51.51,0,0,1-.72.72L7.56,8.28a.49.49,0,0,1-.16-.37V3.2a.51.51,0,0,1,.51-.51.51.51,0,0,1,.51.51V7.7Zm7.41.21a7.92,7.92,0,1,0-2.32,5.6,7.89,7.89,0,0,0,2.32-5.6Zm-3,4.88a6.89,6.89,0,1,0-4.88,2A6.87,6.87,0,0,0,12.79,12.79Z"/></g></g></svg>