<svg width="14" height="17" viewBox="0 0 14 17" fill="none" xmlns="http://www.w3.org/2000/svg">
<path d="M2.1 0C0.946093 0 0 0.957356 0 2.125V14.875C0 16.0426 0.946093 17 2.1 17H11.9C13.0539 17 14 16.0426 14 14.875V4.66504L9.38984 0H2.1ZM2.1 1.41667H8.4V5.66667H12.6V14.875C12.6 15.2734 12.2937 15.5833 11.9 15.5833H2.1C1.70625 15.5833 1.4 15.2734 1.4 14.875V2.125C1.4 1.72656 1.70625 1.41667 2.1 1.41667ZM9.8 2.41829L11.6102 4.25H9.8V2.41829ZM4.2 8.5V9.91667H9.8V8.5H4.2ZM4.2 11.3333V12.75H8.4V11.3333H4.2Z" fill="white"/>
</svg>
