<svg width="15" height="13" viewBox="0 0 15 13" fill="none" xmlns="http://www.w3.org/2000/svg">
<path d="M1.60714 0C0.724051 0 0 0.732096 0 1.625V11.375C0 12.2679 0.724051 13 1.60714 13H13.3929C14.2759 13 15 12.2679 15 11.375V1.625C15 0.732096 14.2759 0 13.3929 0H1.60714ZM1.60714 1.08333H13.3929C13.6942 1.08333 13.9286 1.32031 13.9286 1.625V8.98405L10.1786 5.19238L8.03571 7.35905L4.82143 4.10905L1.07143 7.90072V1.625C1.07143 1.32031 1.3058 1.08333 1.60714 1.08333ZM11.7857 2.16667C11.1956 2.16667 10.7143 2.65332 10.7143 3.25C10.7143 3.84668 11.1956 4.33333 11.7857 4.33333C12.3758 4.33333 12.8571 3.84668 12.8571 3.25C12.8571 2.65332 12.3758 2.16667 11.7857 2.16667ZM4.82143 5.64095L8.73047 9.59342L9.48382 8.82324L8.79325 8.125L10.1786 6.72428L13.9286 10.516V11.375C13.9286 11.6797 13.6942 11.9167 13.3929 11.9167H1.60714C1.3058 11.9167 1.07143 11.6797 1.07143 11.375V9.43262L4.82143 5.64095Z" fill="white"/>
</svg>
