<svg width="15" height="13" viewBox="0 0 15 13" fill="none" xmlns="http://www.w3.org/2000/svg">
<path d="M3.95829 0.125C3.17558 0.125 2.54163 0.758958 2.54163 1.54167H12.4583C12.4583 0.758958 11.8243 0.125 11.0416 0.125H3.95829ZM1.83329 2.95833C1.05058 2.95833 0.416626 3.59229 0.416626 4.375V11.4583C0.416626 12.241 1.05058 12.875 1.83329 12.875H13.1666C13.9493 12.875 14.5833 12.241 14.5833 11.4583V4.375C14.5833 3.59229 13.9493 2.95833 13.1666 2.95833H1.83329ZM1.83329 4.375H13.1666V11.4583H1.83329V4.375ZM6.08329 5.79167V10.0417L9.62496 7.91667L6.08329 5.79167Z" fill="white"/>
</svg>
