<svg width="20" height="20" viewBox="0 0 20 20" fill="currentColor" xmlns="http://www.w3.org/2000/svg">
<path d="M9.85272 0C9.23354 0 8.64442 0.246459 8.21761 0.685277L0.667268 8.30747C-0.222423 9.20314 -0.222423 10.6699 0.667268 11.5655L5.29606 16.2362C5.33213 16.2723 5.37421 16.2964 5.41629 16.3324L8.37992 19.332H8.38593C9.27562 20.2217 10.7424 20.2217 11.6381 19.338L11.6441 19.332L19.3147 11.7819H19.3207C19.7595 11.3491 20 10.76 20 10.1469V5.39805C20 4.1357 18.96 3.08976 17.6916 3.08976H16.9222V2.3083C16.9222 1.03994 15.8822 0 14.6138 0H9.85272ZM9.85272 1.53887H14.6138C15.0466 1.53887 15.3832 1.87549 15.3832 2.3083V7.05113C15.3832 7.25551 15.2991 7.45388 15.1548 7.59815L7.4722 15.1482C7.18365 15.4368 6.76285 15.4428 6.45627 15.1963L4.84521 13.5733L4.83318 13.5853L1.76135 10.4775C1.45476 10.1709 1.44875 9.69606 1.75533 9.38949L9.31169 1.76729C9.44995 1.62302 9.64833 1.53887 9.85272 1.53887ZM13.0147 3.07773C12.5879 3.07773 12.2453 3.42037 12.2453 3.84717C12.2453 4.27396 12.5879 4.6166 13.0147 4.6166C13.4415 4.6166 13.7842 4.27396 13.7842 3.84717C13.7842 3.42037 13.4415 3.07773 13.0147 3.07773ZM16.9222 4.62862H17.6916C18.1244 4.62862 18.4611 4.96525 18.4611 5.39805V10.1469C18.4611 10.3513 18.3769 10.5436 18.2326 10.6879L10.5621 18.244C10.2495 18.5506 9.77457 18.5445 9.46799 18.244L7.91704 16.6751C8.14548 16.5669 8.36189 16.4286 8.55425 16.2483L16.2369 8.69219H16.2429C16.6757 8.25938 16.9222 7.67029 16.9222 7.05113V4.62862Z"/>
</svg>
