<svg width="13" height="8" viewBox="0 0 13 8" fill="none" xmlns="http://www.w3.org/2000/svg">
<path fill-rule="evenodd" clip-rule="evenodd" d="M0.212713 6.82137C0.278721 6.89537 0.359626 6.95459 0.450122 6.99513C0.540618 7.03568 0.638661 7.05664 0.737825 7.05664C0.836989 7.05664 0.935035 7.03568 1.02553 6.99513C1.11603 6.95459 1.19693 6.89537 1.26294 6.82137L6.30402 1.78029L11.3871 6.82137C11.4531 6.89537 11.534 6.95459 11.6245 6.99514C11.715 7.03568 11.8131 7.05664 11.9122 7.05664C12.0114 7.05664 12.1094 7.03568 12.1999 6.99514C12.2904 6.95459 12.3713 6.89537 12.4373 6.82137C12.5113 6.75536 12.5706 6.67446 12.6111 6.58396C12.6516 6.49347 12.6726 6.39542 12.6726 6.29626C12.6726 6.19709 12.6516 6.09905 12.6111 6.00855C12.5706 5.91806 12.5113 5.83715 12.4373 5.77115L6.80813 0.225955C6.74044 0.154777 6.65898 0.0981025 6.56871 0.0593767C6.47844 0.0206508 6.38124 0.00068085 6.28302 0.000680842C6.18479 0.000680833 6.08759 0.0206508 5.99732 0.0593766C5.90705 0.0981025 5.8256 0.154776 5.7579 0.225955L0.212713 5.81315C0.145388 5.87872 0.091878 5.9571 0.0553409 6.04368C0.0188037 6.13026 -2.0908e-05 6.22329 -2.09162e-05 6.31726C-2.09244e-05 6.41124 0.0188036 6.50426 0.0553408 6.59084C0.091878 6.67742 0.145388 6.75581 0.212713 6.82137Z" fill="currentColor"/>
</svg>
