<svg xmlns="http://www.w3.org/2000/svg" viewBox="0 0 30 29.67"><defs><style>.af606985-9021-4b5f-a14b-70de1cb438e4{fill:#ff0106;}.e8e58cf0-b633-4e39-8a7a-84a91d73c73a{fill:#fffdff;}.aea06ecb-9f26-4834-b8cb-bfd28a7f080d,.e4e5b772-4c03-4261-ba39-3e2ab67ba43e,.e7f11ab4-bfe0-4381-a01c-b4f4a71b7732{fill:#fff;}.aea06ecb-9f26-4834-b8cb-bfd28a7f080d{opacity:0.15;}.e4e5b772-4c03-4261-ba39-3e2ab67ba43e{opacity:0.25;}.e7f11ab4-bfe0-4381-a01c-b4f4a71b7732{opacity:0.2;}</style></defs><title>Удалить</title><g id="f1dc4ef7-414d-4e6e-a842-316bff6bc92d" data-name="Слой 2"><g id="b968e996-479b-429e-9129-537b17ea53b7" data-name="Слой 1"><rect class="af606985-9021-4b5f-a14b-70de1cb438e4" x="0.16" y="-0.16" width="29.67" height="30" rx="14.84" transform="translate(29.84 -0.16) rotate(90)"/><path class="e8e58cf0-b633-4e39-8a7a-84a91d73c73a" d="M11.68,12H18.8c0,.13,0,.24,0,.36-.09.84-.18,1.69-.28,2.54L18,19.52a.89.89,0,0,1-.08.31.4.4,0,0,1-.39.26H12.94c-.24,0-.4-.16-.45-.45s-.07-.6-.1-.9c-.12-1.13-.25-2.27-.37-3.4s-.23-2-.34-3A2.61,2.61,0,0,1,11.68,12Zm2.39,6.56v-.05c-.1-.91-.2-1.83-.31-2.74,0-.51-.11-1-.17-1.54s-.09-.86-.14-1.29a.32.32,0,0,0-.33-.28c-.21,0-.33.18-.3.42.12,1.07.23,2.14.35,3.2.08.78.17,1.55.26,2.32a.31.31,0,0,0,.35.3A.32.32,0,0,0,14.07,18.6Zm3.58-5.48c0-.26-.11-.4-.28-.41A.32.32,0,0,0,17,13c-.07.67-.15,1.34-.22,2-.13,1.17-.25,2.33-.38,3.5a.32.32,0,0,0,.27.4c.19,0,.34-.1.37-.33.05-.48.11-1,.16-1.45.09-.87.18-1.75.28-2.63C17.54,14.05,17.6,13.56,17.65,13.12Zm-2.09,2.72h0V13.05a.32.32,0,0,0-.4-.34.35.35,0,0,0-.25.37v5.58a.34.34,0,0,0,.27.28.32.32,0,0,0,.34-.18.59.59,0,0,0,0-.23Z"/><path class="e8e58cf0-b633-4e39-8a7a-84a91d73c73a" d="M13.76,10.42V9.58A.51.51,0,0,1,14.34,9h1.8a.53.53,0,0,1,.58.58v.78a.08.08,0,0,0,0,0h2a.57.57,0,0,1,.53.34.57.57,0,0,1-.57.82H11.78a.58.58,0,0,1-.57-.38.57.57,0,0,1,.2-.66,1,1,0,0,1,.38-.11h2Zm.81,0H15.9V9.82H14.57Z"/><rect class="aea06ecb-9f26-4834-b8cb-bfd28a7f080d" x="2.64" y="2.34" width="24.73" height="25" rx="12.36" transform="translate(29.84 -0.16) rotate(90)"/><rect class="e4e5b772-4c03-4261-ba39-3e2ab67ba43e" x="5.11" y="4.84" width="19.78" height="20" rx="9.89" transform="translate(29.84 -0.16) rotate(90)"/><rect class="e7f11ab4-bfe0-4381-a01c-b4f4a71b7732" x="7.58" y="7.34" width="14.84" height="15" rx="7.42" transform="translate(29.84 -0.16) rotate(90)"/></g></g></svg>